<?xml version="1.0" encoding="UTF-8" ?>
<!DOCTYPE svg PUBLIC "-//W3C//DTD SVG 1.1//EN" "http://www.w3.org/Graphics/SVG/1.1/DTD/svg11.dtd">
<svg width="1920pt" height="1080pt" viewBox="0 0 1920 1080" version="1.1" xmlns="http://www.w3.org/2000/svg">
<g id="#0fef00ff">
<path fill="#0fef00" fill-opacity="0" d=" M 916.23 246.22 C 918.88 243.95 922.48 243.40 925.67 242.22 C 931.93 247.02 939.29 252.90 947.77 251.42 C 955.26 250.97 962.64 245.24 970.16 248.75 C 982.55 254.18 989.65 267.30 1002.23 272.60 C 1016.22 278.05 1030.04 284.15 1044.79 287.31 C 1038.29 297.26 1026.20 300.20 1016.30 305.31 C 1010.50 309.05 1011.87 317.14 1010.54 322.88 C 1010.24 327.74 1005.68 330.97 1005.35 335.81 C 1004.52 345.62 1004.17 355.47 1003.59 365.30 C 997.04 363.53 990.55 361.20 983.75 360.69 C 978.01 361.41 972.85 364.67 967.14 365.50 C 964.61 364.76 963.45 361.84 961.92 360.07 C 957.68 353.67 952.51 347.95 946.89 342.76 C 942.76 345.14 938.10 347.37 936.04 352.01 C 927.34 364.73 924.94 380.06 920.72 394.52 C 920.36 379.98 919.28 365.49 918.57 350.97 C 918.12 346.65 917.80 341.88 914.20 338.87 C 900.99 321.68 880.54 313.02 860.61 306.28 C 852.97 303.98 846.54 299.08 841.42 293.04 C 852.88 288.85 863.10 282.10 874.17 277.06 C 890.30 270.23 905.14 259.85 916.23 246.22 Z" />
</g>
<g id="#cfaf7fff">
<path fill="#cfaf7f" fill-opacity="0" d=" M 1069.57 274.45 C 1075.32 271.91 1081.81 272.50 1087.89 273.18 C 1097.69 274.28 1107.57 272.78 1117.37 273.71 C 1125.72 274.29 1132.01 280.86 1137.27 286.71 C 1143.13 293.16 1147.86 301.56 1156.87 304.00 C 1153.93 306.95 1150.93 309.88 1148.51 313.27 C 1145.12 320.41 1146.75 329.80 1140.74 335.71 C 1136.62 339.76 1131.21 343.54 1125.07 342.56 C 1116.86 342.26 1109.34 337.50 1103.75 331.81 C 1103.68 327.09 1106.02 322.72 1106.63 318.09 C 1103.23 313.59 1096.76 312.84 1091.51 313.57 C 1077.78 314.29 1069.13 326.63 1056.82 331.06 C 1048.78 333.66 1040.23 336.17 1033.98 342.14 C 1027.51 352.49 1033.75 366.29 1026.45 376.34 C 1022.68 381.89 1023.07 388.89 1022.45 395.25 C 1015.74 393.32 1006.02 393.62 1003.17 385.82 C 1001.53 379.09 1003.81 372.13 1003.59 365.30 C 1004.17 355.47 1004.52 345.62 1005.35 335.81 C 1005.68 330.97 1010.24 327.74 1010.54 322.88 C 1011.87 317.14 1010.50 309.05 1016.30 305.31 C 1026.20 300.20 1038.29 297.26 1044.79 287.31 C 1048.17 286.68 1051.54 285.99 1054.69 284.51 C 1059.67 281.24 1063.82 276.50 1069.57 274.45 Z" />
</g>
<g id="#4faf7fff">
<path fill="#4faf7f" fill-opacity="0" d=" M 641.34 275.82 C 648.66 282.51 655.26 290.71 664.98 293.96 C 672.95 289.77 681.44 284.69 690.91 286.55 C 705.62 293.43 718.12 304.42 733.20 310.63 C 742.82 313.39 753.01 314.23 762.95 313.03 C 761.83 316.47 760.41 319.86 759.90 323.46 C 759.55 329.99 765.47 336.20 762.64 342.65 C 756.81 351.15 748.33 358.08 744.68 367.95 C 747.55 385.27 754.27 401.74 757.22 419.08 C 742.96 415.30 733.96 400.25 718.56 399.79 C 706.83 399.83 695.42 393.78 688.93 384.03 C 686.14 380.43 685.39 375.24 681.00 372.99 C 673.64 368.69 665.05 371.78 657.12 371.12 C 651.22 369.23 646.21 364.44 644.44 358.43 C 637.35 337.65 627.30 317.87 622.20 296.43 C 629.33 290.29 635.07 282.79 641.34 275.82 Z" />
</g>
<g id="#cf2f7fff">
<path fill="#cf2f7f" fill-opacity="0" d=" M 815.96 304.07 C 825.10 302.16 833.55 297.95 841.42 293.04 C 846.54 299.08 852.97 303.98 860.61 306.28 C 880.54 313.02 900.99 321.68 914.20 338.87 C 917.80 341.88 918.12 346.65 918.57 350.97 C 919.28 365.49 920.36 379.98 920.72 394.52 C 920.25 401.37 922.18 409.08 918.29 415.21 C 908.98 420.78 897.68 421.56 887.82 425.98 C 877.13 429.74 864.93 431.04 854.19 426.71 C 844.32 422.82 833.31 425.14 823.25 422.12 C 810.32 419.27 797.71 412.27 784.08 416.16 C 775.46 419.20 766.41 419.90 757.36 419.81 L 757.22 419.08 C 754.27 401.74 747.55 385.27 744.68 367.95 C 748.33 358.08 756.81 351.15 762.64 342.65 C 765.47 336.20 759.55 329.99 759.90 323.46 C 760.41 319.86 761.83 316.47 762.95 313.03 L 763.22 312.27 C 780.90 310.24 798.63 308.26 815.96 304.07 Z" />
</g>
<g id="#0f6f7ffe">
<path fill="#0f6f7f" fill-opacity="0" d=" M 1156.87 304.00 C 1164.36 308.19 1171.74 312.59 1179.23 316.80 C 1184.01 319.29 1186.52 324.28 1189.54 328.52 C 1194.25 335.34 1194.50 344.37 1200.28 350.57 C 1187.82 350.74 1175.53 355.02 1166.15 363.25 C 1164.07 365.68 1160.03 368.51 1161.67 372.19 C 1163.38 376.15 1167.97 377.48 1171.19 379.96 C 1175.61 383.22 1180.57 388.35 1178.10 394.38 C 1170.59 407.19 1167.91 421.90 1163.90 436.01 C 1162.07 442.16 1160.43 448.36 1158.93 454.59 C 1151.74 457.52 1148.39 464.59 1145.70 471.38 C 1147.65 456.34 1153.89 442.16 1155.81 427.10 C 1150.34 419.00 1140.03 418.73 1131.86 415.12 C 1123.44 412.27 1117.65 404.46 1108.84 402.53 C 1104.68 402.81 1102.03 406.78 1099.57 409.62 C 1095.74 414.10 1091.54 419.20 1085.86 421.22 C 1076.60 420.40 1074.02 409.49 1065.96 406.43 C 1061.07 404.37 1056.69 401.32 1052.39 398.28 C 1048.63 402.79 1045.45 408.71 1039.31 410.13 C 1032.77 411.63 1026.62 414.32 1020.82 417.63 C 1021.48 410.18 1021.94 402.71 1022.45 395.25 C 1023.07 388.89 1022.68 381.89 1026.45 376.34 C 1033.75 366.29 1027.51 352.49 1033.98 342.14 C 1040.23 336.17 1048.78 333.66 1056.82 331.06 C 1069.13 326.63 1077.78 314.29 1091.51 313.57 C 1096.76 312.84 1103.23 313.59 1106.63 318.09 C 1106.02 322.72 1103.68 327.09 1103.75 331.81 C 1109.34 337.50 1116.86 342.26 1125.07 342.56 C 1131.21 343.54 1136.62 339.76 1140.74 335.71 C 1146.75 329.80 1145.12 320.41 1148.51 313.27 C 1150.93 309.88 1153.93 306.95 1156.87 304.00 Z" />
</g>
<g id="#8fef00fe">
<path fill="#8fef00" fill-opacity="0" d=" M 1166.15 363.25 C 1175.53 355.02 1187.82 350.74 1200.28 350.57 C 1205.56 357.25 1209.10 365.13 1211.70 373.19 C 1216.54 388.00 1223.69 402.23 1233.88 414.09 C 1238.85 420.96 1244.31 427.44 1249.89 433.83 C 1249.52 435.17 1249.17 436.51 1248.84 437.87 C 1249.72 437.22 1250.63 436.59 1251.55 435.97 C 1257.16 450.71 1265.86 464.03 1271.09 478.93 C 1274.70 489.11 1279.08 499.00 1282.93 509.10 C 1283.50 511.25 1284.78 513.63 1283.81 515.85 C 1279.23 526.41 1273.74 536.53 1269.09 547.05 C 1266.14 553.70 1262.36 560.08 1257.35 565.38 C 1252.82 570.44 1245.06 568.87 1239.21 567.78 C 1232.64 563.60 1225.15 556.15 1227.05 547.62 C 1227.68 539.64 1228.47 531.47 1226.38 523.62 C 1223.46 515.56 1217.12 509.58 1212.52 502.53 C 1208.62 495.99 1204.28 489.57 1201.89 482.27 C 1200.44 478.01 1199.16 473.43 1195.67 470.34 C 1190.69 465.64 1185.82 460.62 1179.89 457.14 C 1173.51 453.43 1165.97 454.42 1158.93 454.59 C 1160.43 448.36 1162.07 442.16 1163.90 436.01 C 1167.91 421.90 1170.59 407.19 1178.10 394.38 C 1180.57 388.35 1175.61 383.22 1171.19 379.96 C 1167.97 377.48 1163.38 376.15 1161.67 372.19 C 1160.03 368.51 1164.07 365.68 1166.15 363.25 Z" />
</g>
<g id="#0f6f00ff">
<path fill="#0f6f00" fill-opacity="0" d=" M 1039.31 410.13 C 1045.45 408.71 1048.63 402.79 1052.39 398.28 C 1056.69 401.32 1061.07 404.37 1065.96 406.43 C 1074.02 409.49 1076.60 420.40 1085.86 421.22 C 1091.54 419.20 1095.74 414.10 1099.57 409.62 C 1102.03 406.78 1104.68 402.81 1108.84 402.53 C 1117.65 404.46 1123.44 412.27 1131.86 415.12 C 1140.03 418.73 1150.34 419.00 1155.81 427.10 C 1153.89 442.16 1147.65 456.34 1145.70 471.38 C 1148.83 478.44 1154.48 483.75 1158.77 490.02 C 1163.01 496.06 1164.58 503.40 1166.92 510.29 C 1171.31 521.17 1177.69 531.08 1183.97 540.95 C 1187.83 547.17 1189.14 554.53 1191.28 561.43 C 1192.82 571.98 1188.06 582.08 1184.74 591.88 C 1180.86 601.92 1177.39 612.13 1172.75 621.86 C 1168.49 629.32 1168.75 638.42 1169.95 646.68 C 1175.03 661.24 1180.53 675.70 1184.30 690.68 C 1185.91 697.49 1189.79 703.49 1191.59 710.22 C 1193.09 720.03 1186.83 728.47 1182.82 736.91 C 1179.66 743.11 1183.40 750.53 1180.61 756.82 C 1176.46 766.65 1171.31 776.01 1166.54 785.54 C 1162.92 793.28 1155.37 797.90 1151.12 805.15 C 1147.06 811.22 1144.15 818.86 1136.89 821.91 C 1130.61 825.31 1122.87 829.81 1115.92 825.22 C 1102.11 821.54 1099.70 804.49 1087.97 798.10 C 1076.18 795.52 1062.59 800.36 1051.90 793.19 C 1042.30 788.17 1035.18 779.86 1028.11 771.88 C 1024.56 768.44 1020.51 764.38 1015.24 764.46 C 1001.96 763.90 988.91 766.88 975.97 769.33 C 968.96 768.72 960.51 771.29 954.58 766.46 C 947.52 761.27 940.58 755.80 934.77 749.20 C 933.25 747.50 933.46 745.10 933.32 742.99 C 933.20 735.90 932.28 728.84 932.44 721.75 C 932.63 719.18 931.85 715.93 934.47 714.52 C 939.51 711.31 945.31 709.55 950.89 707.49 C 950.47 697.78 948.85 686.05 956.39 678.36 C 954.70 672.06 952.03 665.84 952.39 659.23 C 952.80 648.86 952.65 638.47 952.03 628.12 C 960.66 622.63 969.44 613.59 980.73 616.35 C 990.81 623.39 1001.47 631.02 1006.92 642.48 C 1010.50 648.97 1011.92 656.27 1013.72 663.37 C 1014.78 669.08 1020.47 671.96 1025.34 674.07 C 1034.35 673.46 1044.61 673.46 1051.44 666.42 C 1056.08 662.24 1062.44 658.45 1062.56 651.37 C 1062.65 646.98 1065.45 640.94 1061.85 637.23 C 1055.52 635.69 1048.72 637.15 1042.36 635.54 C 1037.97 632.72 1033.44 628.66 1032.56 623.25 C 1032.38 620.55 1033.33 617.94 1033.95 615.35 C 1028.69 610.30 1022.27 614.56 1016.25 614.87 C 1009.89 613.46 1004.85 608.94 999.62 605.33 C 995.72 602.67 994.85 597.50 995.32 593.11 C 995.52 579.96 996.69 566.81 998.73 553.83 C 996.67 544.87 994.76 535.84 991.80 527.12 C 986.57 511.55 991.02 495.30 990.47 479.36 C 989.90 471.70 994.57 465.02 997.93 458.53 C 1000.66 456.25 1004.60 456.56 1007.97 456.28 C 1008.65 448.31 1009.23 440.33 1009.67 432.35 C 1010.04 428.85 1010.56 424.90 1013.35 422.43 C 1015.60 420.50 1018.23 419.06 1020.82 417.63 C 1026.62 414.32 1032.77 411.63 1039.31 410.13 M 1067.05 462.28 C 1068.09 463.49 1070.17 465.91 1071.21 467.12 C 1073.24 466.42 1075.26 465.68 1077.29 464.93 C 1076.51 463.25 1075.73 461.57 1074.95 459.90 C 1072.33 460.74 1069.70 461.55 1067.05 462.28 Z" />
</g>
<g id="#8f6f00ff">
<path fill="#8f6f00" fill-opacity="0" d=" M 1067.05 462.28 C 1069.70 461.55 1072.33 460.74 1074.95 459.90 C 1075.73 461.57 1076.51 463.25 1077.29 464.93 C 1075.26 465.68 1073.24 466.42 1071.21 467.12 C 1070.17 465.91 1068.09 463.49 1067.05 462.28 Z" />
</g>
</svg>
