<?xml version="1.0" encoding="UTF-8" ?>
<!DOCTYPE svg PUBLIC "-//W3C//DTD SVG 1.1//EN" "http://www.w3.org/Graphics/SVG/1.1/DTD/svg11.dtd">
<svg width="1920pt" height="1080pt" viewBox="0 0 1920 1080" version="1.1" xmlns="http://www.w3.org/2000/svg">
<g id="#afdfbffe">
<path fill="#afdfbf" fill-opacity="0" d=" M 839.82 218.97 C 848.97 216.84 858.17 220.47 867.37 219.15 C 874.23 218.11 881.21 219.13 887.78 221.20 C 888.24 224.27 888.62 227.39 888.71 230.51 C 890.75 231.62 893.03 232.47 894.73 234.12 C 897.06 237.19 898.06 241.10 900.46 244.15 C 907.74 244.95 915.13 244.87 922.46 245.59 C 922.38 242.24 922.35 238.89 922.27 235.54 C 926.56 235.13 930.83 234.41 935.00 233.25 C 935.61 230.14 934.62 225.81 937.29 223.66 C 943.58 222.39 949.92 225.04 956.00 226.42 C 960.34 227.45 964.57 225.62 968.87 225.30 C 969.33 223.97 969.79 222.65 970.26 221.32 C 972.84 223.00 975.70 224.19 978.27 225.90 C 983.74 230.09 987.50 235.99 992.21 240.93 C 994.00 242.76 996.65 241.34 998.82 241.25 C 1000.43 248.42 1005.31 254.15 1008.79 260.45 C 1010.83 260.36 1013.36 260.37 1015.53 260.32 C 1021.81 266.14 1029.33 270.40 1036.66 274.75 C 1040.71 277.70 1043.63 281.95 1047.84 284.73 C 1048.09 287.30 1048.23 289.88 1048.36 292.46 C 1050.77 293.31 1053.32 293.94 1055.50 295.34 C 1055.87 297.64 1055.84 299.97 1055.90 302.29 C 1052.86 302.68 1049.81 302.93 1046.77 303.23 C 1047.37 306.10 1047.95 308.99 1048.69 311.84 C 1035.92 315.43 1022.46 311.06 1009.43 312.56 C 1010.24 321.46 1008.30 330.24 1006.84 338.96 C 996.59 337.91 986.26 336.92 975.97 337.95 C 968.06 338.82 960.11 339.27 952.17 339.59 C 949.23 339.66 946.29 339.57 943.36 339.44 C 942.20 341.34 941.04 343.24 939.91 345.16 C 939.03 342.84 938.22 340.50 937.42 338.16 C 930.06 337.78 922.73 338.71 915.37 338.59 C 902.33 338.24 889.14 338.92 876.32 336.03 C 874.78 332.74 874.23 328.49 871.14 326.26 C 864.65 324.28 857.63 325.50 850.99 325.21 C 843.07 324.76 835.55 327.62 827.73 328.23 C 829.25 325.40 830.80 322.59 832.34 319.78 C 823.30 319.52 814.59 321.95 805.76 323.34 C 798.75 323.94 792.01 321.11 785.63 318.58 C 788.05 317.41 790.52 316.29 792.94 315.09 C 789.53 296.37 787.73 277.40 784.67 258.62 C 783.53 246.67 782.05 234.75 779.82 222.95 C 799.33 216.57 820.02 223.54 839.82 218.97 Z" />
</g>
<g id="#ef5fbfff">
<path fill="#ef5fbf" fill-opacity="0" d=" M 1055.90 302.29 C 1056.96 302.15 1058.02 301.95 1059.09 301.77 L 1059.06 305.82 C 1060.74 305.25 1062.42 304.69 1064.12 304.12 C 1067.33 313.33 1064.98 323.19 1064.29 332.63 C 1062.63 354.19 1059.22 375.78 1061.34 397.41 C 1062.86 397.06 1064.36 396.68 1065.88 396.29 C 1065.82 398.76 1066.47 401.50 1066.64 404.04 C 1058.95 402.41 1051.12 401.10 1043.25 401.39 C 1037.19 401.57 1031.33 403.61 1025.26 403.53 C 1017.15 403.46 1009.37 400.89 1001.41 399.70 C 992.72 398.09 983.89 399.59 975.16 400.02 C 971.90 400.33 968.18 400.12 965.59 402.48 C 962.67 404.92 959.82 407.45 956.76 409.72 C 951.14 403.40 943.94 398.84 937.55 393.39 C 935.86 391.67 933.14 389.35 934.71 386.72 C 938.41 379.95 944.09 374.44 947.67 367.56 C 944.25 365.64 940.91 363.60 937.66 361.43 C 940.93 358.78 944.26 356.19 947.31 353.27 C 950.88 349.68 950.80 344.20 952.17 339.59 C 960.11 339.27 968.06 338.82 975.97 337.95 C 986.26 336.92 996.59 337.91 1006.84 338.96 C 1008.30 330.24 1010.24 321.46 1009.43 312.56 C 1022.46 311.06 1035.92 315.43 1048.69 311.84 C 1047.95 308.99 1047.37 306.10 1046.77 303.23 C 1049.81 302.93 1052.86 302.68 1055.90 302.29 M 1047.27 389.54 C 1046.11 390.41 1047.58 392.37 1048.73 391.46 C 1049.86 390.58 1048.40 388.62 1047.27 389.54 Z" />
<path fill="#ef5fbf" fill-opacity="0" d=" M 1068.56 404.47 C 1067.60 399.26 1068.60 393.63 1071.55 389.21 C 1072.23 395.81 1070.83 402.31 1069.65 408.76 C 1069.26 407.33 1068.88 405.91 1068.56 404.47 Z" />
<path fill="#ef5fbf" fill-opacity="0" d=" M 1072.78 435.78 C 1072.95 432.99 1073.33 430.22 1073.87 427.49 C 1073.73 430.27 1073.54 433.08 1072.78 435.78 Z" />
<path fill="#ef5fbf" fill-opacity="0" d=" M 1072.22 438.00 C 1074.02 437.65 1074.02 441.34 1072.22 441.00 C 1071.14 440.42 1071.14 438.57 1072.22 438.00 Z" />
</g>
<g id="#efdfbfff">
<path fill="#efdfbf" fill-opacity="0" d=" M 785.09 318.36 L 785.63 318.58 C 792.01 321.11 798.75 323.94 805.76 323.34 C 814.59 321.95 823.30 319.52 832.34 319.78 C 830.80 322.59 829.25 325.40 827.73 328.23 C 835.55 327.62 843.07 324.76 850.99 325.21 C 857.63 325.50 864.65 324.28 871.14 326.26 C 874.23 328.49 874.78 332.74 876.32 336.03 C 889.14 338.92 902.33 338.24 915.37 338.59 C 922.73 338.71 930.06 337.78 937.42 338.16 C 938.22 340.50 939.03 342.84 939.91 345.16 C 941.04 343.24 942.20 341.34 943.36 339.44 C 946.29 339.57 949.23 339.66 952.17 339.59 C 950.80 344.20 950.88 349.68 947.31 353.27 C 944.26 356.19 940.93 358.78 937.66 361.43 C 940.91 363.60 944.25 365.64 947.67 367.56 C 944.09 374.44 938.41 379.95 934.71 386.72 C 933.14 389.35 935.86 391.67 937.55 393.39 C 943.94 398.84 951.14 403.40 956.76 409.72 C 959.84 413.81 963.86 417.38 965.96 422.09 C 965.95 425.78 965.19 429.69 963.26 432.88 C 958.35 433.26 953.20 431.77 948.43 433.47 C 946.38 435.13 946.69 438.19 946.35 440.57 C 946.23 444.62 945.06 448.53 943.45 452.23 C 936.08 450.36 928.55 448.43 920.89 449.51 C 913.10 450.65 905.40 449.44 897.67 448.83 C 896.45 445.16 898.46 438.20 893.36 436.77 C 885.96 434.13 878.71 431.07 872.00 426.96 C 873.04 423.63 874.11 420.31 875.10 416.97 C 870.19 414.98 865.43 412.66 860.69 410.32 C 862.84 407.04 864.96 403.75 867.10 400.46 C 863.40 401.33 859.58 402.24 855.79 401.44 C 846.70 399.72 837.43 400.75 828.25 400.50 C 815.38 400.16 802.74 403.59 789.87 403.31 C 786.33 403.41 781.51 403.08 779.69 406.84 C 778.56 411.85 780.11 416.95 780.97 421.89 C 785.70 446.42 788.61 471.25 793.06 495.83 C 793.55 499.11 793.65 502.39 793.98 505.72 C 790.25 504.26 787.35 501.21 786.91 497.12 C 781.63 464.57 776.02 432.06 770.53 399.54 C 769.23 391.60 767.76 381.03 775.66 375.94 C 775.33 369.67 773.77 363.51 773.59 357.26 C 775.37 353.60 779.50 351.79 782.36 349.01 C 781.65 338.62 787.43 328.81 785.09 318.36 Z" />
</g>
<g id="#2f5f3fff">
<path fill="#2f5f3f" fill-opacity="0" d=" M 1163.21 378.35 C 1164.36 372.27 1164.88 365.89 1167.78 360.31 C 1168.93 368.49 1165.63 376.42 1164.58 384.44 C 1161.84 397.10 1161.24 410.38 1156.44 422.51 C 1157.42 407.62 1160.74 393.04 1163.21 378.35 Z" />
</g>
<g id="#6fdfbfff">
<path fill="#6fdfbf" fill-opacity="0" d=" M 1047.27 389.54 C 1048.40 388.62 1049.86 390.58 1048.73 391.46 C 1047.58 392.37 1046.11 390.41 1047.27 389.54 Z" />
</g>
<g id="#ec5ebdfc">
<path fill="#ec5ebd" fill-opacity="0" d=" M 1076.77 391.91 C 1077.62 391.94 1079.33 391.98 1080.19 392.00 C 1079.43 401.26 1078.38 410.49 1077.71 419.76 L 1076.94 420.12 C 1075.79 420.65 1074.67 421.20 1073.55 421.76 C 1074.05 419.65 1074.57 417.55 1075.14 415.46 C 1075.39 416.78 1075.66 418.11 1075.94 419.45 C 1076.09 418.38 1076.39 416.23 1076.54 415.16 C 1075.52 414.30 1074.51 413.44 1073.52 412.57 C 1074.45 405.66 1075.17 398.71 1076.77 391.91 Z" />
</g>
<g id="#0f001ffe">
<path fill="#0f001f" fill-opacity="0" d=" M 975.16 400.02 C 983.89 399.59 992.72 398.09 1001.41 399.70 C 1009.37 400.89 1017.15 403.46 1025.26 403.53 C 1031.33 403.61 1037.19 401.57 1043.25 401.39 C 1051.12 401.10 1058.95 402.41 1066.64 404.04 C 1067.12 404.15 1068.08 404.37 1068.56 404.47 C 1068.88 405.91 1069.26 407.33 1069.65 408.76 C 1070.11 410.58 1070.57 412.40 1071.06 414.23 C 1071.85 413.67 1072.69 413.13 1073.52 412.57 C 1074.51 413.44 1075.52 414.30 1076.54 415.16 C 1076.39 416.23 1076.09 418.38 1075.94 419.45 C 1075.66 418.11 1075.39 416.78 1075.14 415.46 C 1074.57 417.55 1074.05 419.65 1073.55 421.76 C 1074.67 421.20 1075.79 420.65 1076.94 420.12 C 1076.82 420.76 1076.58 422.04 1076.46 422.68 C 1076.30 423.87 1075.97 426.24 1075.81 427.42 C 1075.69 428.50 1075.47 430.65 1075.36 431.72 C 1074.97 433.58 1074.86 435.46 1075.00 437.37 C 1075.31 441.93 1075.58 446.49 1075.39 451.07 C 1077.41 451.48 1079.48 451.91 1081.59 452.34 C 1082.39 454.61 1083.22 456.87 1084.08 459.12 C 1084.56 458.98 1085.52 458.71 1085.99 458.57 C 1087.46 455.74 1089.64 453.38 1092.25 451.56 C 1092.45 454.42 1092.66 457.37 1094.01 459.97 C 1094.36 461.61 1094.68 463.27 1095.02 464.93 C 1096.17 464.51 1097.34 464.09 1098.52 463.68 C 1099.18 459.99 1099.88 456.30 1100.65 452.64 C 1100.63 456.98 1100.39 461.35 1100.59 465.69 C 1103.84 461.14 1104.81 455.51 1107.14 450.51 C 1107.28 454.14 1107.45 457.84 1107.84 461.48 C 1108.34 458.94 1108.83 456.40 1109.32 453.87 C 1111.08 454.84 1112.84 455.83 1114.62 456.81 C 1115.69 455.35 1116.78 453.89 1117.91 452.47 C 1118.29 455.93 1119.00 459.41 1119.85 462.80 C 1123.99 460.51 1125.92 456.10 1128.57 452.41 C 1135.98 459.23 1128.82 470.49 1134.37 478.03 C 1136.32 470.88 1137.30 463.49 1139.43 456.39 C 1139.32 461.81 1138.58 467.20 1138.54 472.63 C 1139.86 474.48 1141.71 475.87 1143.42 477.35 C 1143.78 476.45 1144.50 474.65 1144.86 473.75 C 1145.07 475.44 1145.22 477.14 1145.38 478.85 C 1146.72 479.69 1148.08 480.53 1149.45 481.37 C 1149.65 482.83 1149.85 484.28 1150.11 485.74 C 1153.74 476.48 1152.68 465.83 1157.84 457.08 C 1159.11 457.88 1160.40 458.68 1161.71 459.46 C 1159.66 472.66 1156.08 485.58 1154.33 498.83 C 1156.63 499.14 1158.90 499.65 1161.13 500.32 C 1163.32 489.73 1165.11 479.03 1167.84 468.57 C 1170.02 469.41 1172.19 470.32 1174.36 471.27 C 1172.99 481.67 1170.51 491.88 1168.23 502.11 C 1168.89 502.06 1170.22 501.96 1170.89 501.90 C 1173.24 492.37 1174.36 482.40 1178.32 473.34 C 1177.91 483.21 1174.11 492.51 1173.32 502.31 C 1172.89 506.19 1173.74 510.07 1175.50 513.54 C 1177.95 505.47 1179.38 497.16 1181.02 488.90 C 1181.53 489.23 1182.55 489.88 1183.06 490.20 C 1181.59 498.22 1179.64 506.14 1178.10 514.14 C 1177.23 517.74 1179.13 521.21 1178.78 524.82 C 1176.59 539.99 1172.64 556.78 1159.53 566.41 C 1155.39 558.89 1148.92 552.96 1144.23 545.79 C 1140.05 539.16 1133.63 533.37 1125.81 531.73 C 1119.26 530.81 1112.60 531.10 1106.04 530.79 C 1105.02 524.30 1104.36 517.54 1101.31 511.60 C 1098.83 507.92 1095.51 504.89 1092.92 501.28 C 1090.06 501.79 1087.21 502.35 1084.36 502.87 C 1079.98 498.35 1074.57 495.07 1069.80 491.04 C 1066.44 488.32 1067.51 483.39 1066.90 479.66 C 1061.42 477.80 1055.57 476.60 1050.77 473.22 C 1048.03 471.26 1044.83 470.19 1041.61 469.40 C 1037.68 474.99 1034.29 481.79 1027.84 484.82 C 1022.36 485.95 1016.49 485.39 1011.13 483.86 C 1005.43 482.39 1004.13 474.80 998.01 474.06 C 987.35 471.96 976.48 470.42 966.45 465.98 C 959.79 459.96 952.37 454.31 943.45 452.23 C 945.06 448.53 946.23 444.62 946.35 440.57 C 946.69 438.19 946.38 435.13 948.43 433.47 C 953.20 431.77 958.35 433.26 963.26 432.88 C 965.19 429.69 965.95 425.78 965.96 422.09 C 963.86 417.38 959.84 413.81 956.76 409.72 C 959.82 407.45 962.67 404.92 965.59 402.48 C 968.18 400.12 971.90 400.33 975.16 400.02 M 1073.40 425.15 C 1072.96 426.54 1073.44 427.03 1074.85 426.60 C 1075.27 425.19 1074.79 424.71 1073.40 425.15 M 1072.78 435.78 C 1073.54 433.08 1073.73 430.27 1073.87 427.49 C 1073.33 430.22 1072.95 432.99 1072.78 435.78 M 1072.22 438.00 C 1071.14 438.57 1071.14 440.42 1072.22 441.00 C 1074.02 441.34 1074.02 437.65 1072.22 438.00 M 1158.12 460.53 C 1155.82 463.96 1162.04 461.31 1158.12 460.53 M 1149.12 486.53 C 1146.82 489.96 1153.04 487.31 1149.12 486.53 Z" />
</g>
<g id="#ef5f3fff">
<path fill="#ef5f3f" fill-opacity="0" d=" M 789.87 403.31 C 802.74 403.59 815.38 400.16 828.25 400.50 C 837.43 400.75 846.70 399.72 855.79 401.44 C 859.58 402.24 863.40 401.33 867.10 400.46 C 864.96 403.75 862.84 407.04 860.69 410.32 C 865.43 412.66 870.19 414.98 875.10 416.97 C 874.11 420.31 873.04 423.63 872.00 426.96 C 878.71 431.07 885.96 434.13 893.36 436.77 C 898.46 438.20 896.45 445.16 897.67 448.83 C 894.44 448.93 891.19 449.22 887.98 449.22 C 883.05 449.17 878.39 447.03 873.44 447.11 C 869.53 447.42 866.01 449.60 862.08 449.78 C 852.80 448.79 844.88 442.35 835.41 442.43 C 827.34 442.55 819.65 439.45 811.62 439.52 C 804.73 439.64 803.61 448.12 798.45 451.17 C 795.03 452.12 791.44 451.59 787.95 451.47 C 790.33 469.30 794.30 486.90 796.40 504.77 C 795.79 505.01 794.58 505.49 793.98 505.72 C 793.65 502.39 793.55 499.11 793.06 495.83 C 788.61 471.25 785.70 446.42 780.97 421.89 C 780.11 416.95 778.56 411.85 779.69 406.84 C 781.51 403.08 786.33 403.41 789.87 403.31 M 816.78 427.04 C 817.23 428.10 817.68 429.17 818.15 430.24 C 819.17 429.19 820.20 428.15 821.24 427.10 C 819.74 427.08 818.26 427.06 816.78 427.04 Z" />
</g>
<g id="#ef60bfff">
<path fill="#ef60bf" fill-opacity="0" d=" M 1075.81 427.42 C 1075.97 426.24 1076.30 423.87 1076.46 422.68 C 1078.46 423.41 1078.09 427.54 1075.81 427.42 Z" />
</g>
<g id="#a43f8aff">
<path fill="#a43f8a" fill-opacity="0" d=" M 1073.40 425.15 C 1074.79 424.71 1075.27 425.19 1074.85 426.60 C 1073.44 427.03 1072.96 426.54 1073.40 425.15 Z" />
</g>
<g id="#6fdf3fff">
<path fill="#6fdf3f" fill-opacity="0" d=" M 816.78 427.04 C 818.26 427.06 819.74 427.08 821.24 427.10 C 820.20 428.15 819.17 429.19 818.15 430.24 C 817.68 429.17 817.23 428.10 816.78 427.04 Z" />
</g>
<g id="#ef5fbffe">
<path fill="#ef5fbf" fill-opacity="0" d=" M 1075.00 437.37 C 1074.86 435.46 1074.97 433.58 1075.36 431.72 C 1077.26 432.70 1077.29 436.97 1075.00 437.37 Z" />
</g>
<g id="#af5fbfff">
<path fill="#af5fbf" fill-opacity="0" d=" M 811.62 439.52 C 819.65 439.45 827.34 442.55 835.41 442.43 C 844.88 442.35 852.80 448.79 862.08 449.78 C 866.01 449.60 869.53 447.42 873.44 447.11 C 878.39 447.03 883.05 449.17 887.98 449.22 C 891.19 449.22 894.44 448.93 897.67 448.83 C 905.40 449.44 913.10 450.65 920.89 449.51 C 928.55 448.43 936.08 450.36 943.45 452.23 C 952.37 454.31 959.79 459.96 966.45 465.98 C 965.63 468.55 963.96 471.31 964.91 474.07 C 967.46 479.82 972.21 484.32 974.50 490.21 C 977.45 497.20 983.08 502.46 988.27 507.81 C 990.59 509.93 991.56 513.89 989.54 516.50 C 984.64 520.52 978.52 523.31 972.11 523.30 C 965.83 523.30 959.51 522.64 953.43 521.09 C 949.19 519.53 944.91 517.27 940.26 517.84 C 936.22 519.19 935.63 524.06 934.33 527.53 C 936.07 527.93 937.84 528.32 939.61 528.72 C 939.69 532.28 939.84 535.87 940.05 539.44 C 943.71 542.38 949.34 543.98 951.31 548.69 C 952.44 555.52 951.23 562.44 950.54 569.25 C 949.91 575.20 955.34 578.97 958.30 583.42 C 960.88 587.37 965.96 588.57 968.70 592.33 C 971.29 599.79 970.78 607.96 968.91 615.53 C 967.89 620.70 962.93 623.48 959.60 627.11 C 960.91 627.55 962.23 627.99 963.58 628.43 C 955.43 632.23 947.62 640.16 937.86 637.17 C 924.20 633.06 920.97 618.07 911.40 609.35 C 903.70 615.41 896.31 621.94 887.93 627.06 C 882.09 630.89 874.52 628.60 868.37 631.19 C 864.57 635.37 862.21 640.64 859.39 645.50 C 855.11 653.69 853.09 662.90 848.24 670.84 C 842.85 666.96 838.68 661.55 832.85 658.28 C 826.23 654.41 818.88 651.02 814.47 644.47 C 808.19 637.74 801.88 631.00 796.41 623.59 C 791.12 614.68 790.77 604.05 788.72 594.15 C 784.40 571.50 780.82 548.70 776.07 526.14 C 782.87 522.19 793.08 521.78 796.18 513.26 C 797.11 510.55 796.53 507.57 796.40 504.77 C 794.30 486.90 790.33 469.30 787.95 451.47 C 791.44 451.59 795.03 452.12 798.45 451.17 C 803.61 448.12 804.73 439.64 811.62 439.52 Z" />
</g>
<g id="#100020ff">
<path fill="#100020" fill-opacity="0" d=" M 1147.14 461.27 C 1148.79 461.23 1148.67 464.01 1147.06 463.93 C 1145.37 463.95 1145.51 461.21 1147.14 461.27 Z" />
</g>
<g id="#0f0020ff">
<path fill="#0f0020" fill-opacity="0" d=" M 1145.71 473.48 C 1145.73 470.44 1146.16 467.54 1146.48 464.56 C 1146.08 467.45 1146.14 470.54 1145.71 473.48 Z" />
</g>
<g id="#ef9f3fff">
<path fill="#ef9f3f" fill-opacity="0" d=" M 964.91 474.07 C 963.96 471.31 965.63 468.55 966.45 465.98 C 976.48 470.42 987.35 471.96 998.01 474.06 C 1004.13 474.80 1005.43 482.39 1011.13 483.86 C 1016.49 485.39 1022.36 485.95 1027.84 484.82 C 1034.29 481.79 1037.68 474.99 1041.61 469.40 C 1044.83 470.19 1048.03 471.26 1050.77 473.22 C 1055.57 476.60 1061.42 477.80 1066.90 479.66 C 1067.51 483.39 1066.44 488.32 1069.80 491.04 C 1074.57 495.07 1079.98 498.35 1084.36 502.87 C 1087.21 502.35 1090.06 501.79 1092.92 501.28 C 1095.51 504.89 1098.83 507.92 1101.31 511.60 C 1104.36 517.54 1105.02 524.30 1106.04 530.79 C 1112.60 531.10 1119.26 530.81 1125.81 531.73 C 1133.63 533.37 1140.05 539.16 1144.23 545.79 C 1148.92 552.96 1155.39 558.89 1159.53 566.41 C 1161.29 572.05 1165.74 576.15 1169.48 580.53 C 1162.89 580.59 1156.35 581.19 1149.82 581.95 C 1137.85 583.53 1126.30 578.65 1114.37 578.73 C 1104.55 578.78 1095.08 576.10 1085.43 574.76 C 1083.71 581.35 1082.59 588.06 1081.87 594.83 C 1080.73 592.70 1080.44 589.15 1077.54 588.75 C 1063.70 587.53 1049.79 586.49 1035.91 587.60 C 1035.49 589.12 1034.64 592.16 1034.21 593.68 C 1032.48 592.74 1030.72 591.83 1029.00 590.89 C 1026.51 593.57 1023.62 595.83 1020.42 597.59 C 1021.08 588.40 1022.05 579.22 1022.07 570.00 C 1022.17 565.14 1020.01 560.61 1019.40 555.86 C 1018.41 551.39 1018.05 546.76 1016.39 542.47 C 1015.42 540.07 1013.50 537.53 1010.68 537.50 C 1003.46 537.31 996.44 540.38 989.21 539.69 C 980.86 537.54 977.27 529.29 972.11 523.30 C 978.52 523.31 984.64 520.52 989.54 516.50 C 991.56 513.89 990.59 509.93 988.27 507.81 C 983.08 502.46 977.45 497.20 974.50 490.21 C 972.21 484.32 967.46 479.82 964.91 474.07 M 1027.61 530.56 C 1028.68 531.14 1029.78 531.71 1030.89 532.28 C 1031.32 531.16 1031.76 530.05 1032.21 528.95 C 1030.63 529.37 1029.09 529.90 1027.61 530.56 Z" />
</g>
<g id="#2fdfbfff">
<path fill="#2fdfbf" fill-opacity="0" d=" M 940.26 517.84 C 944.91 517.27 949.19 519.53 953.43 521.09 C 959.51 522.64 965.83 523.30 972.11 523.30 C 977.27 529.29 980.86 537.54 989.21 539.69 C 996.44 540.38 1003.46 537.31 1010.68 537.50 C 1013.50 537.53 1015.42 540.07 1016.39 542.47 C 1018.05 546.76 1018.41 551.39 1019.40 555.86 C 1020.01 560.61 1022.17 565.14 1022.07 570.00 C 1022.05 579.22 1021.08 588.40 1020.42 597.59 C 1023.62 595.83 1026.51 593.57 1029.00 590.89 C 1030.72 591.83 1032.48 592.74 1034.21 593.68 C 1034.64 592.16 1035.49 589.12 1035.91 587.60 C 1049.79 586.49 1063.70 587.53 1077.54 588.75 C 1080.44 589.15 1080.73 592.70 1081.87 594.83 C 1082.59 588.06 1083.71 581.35 1085.43 574.76 C 1095.08 576.10 1104.55 578.78 1114.37 578.73 C 1126.30 578.65 1137.85 583.53 1149.82 581.95 C 1156.35 581.19 1162.89 580.59 1169.48 580.53 C 1168.90 583.32 1168.34 586.12 1167.79 588.93 C 1170.05 587.92 1172.31 586.93 1174.60 585.95 C 1174.69 595.32 1168.88 604.07 1170.74 613.38 C 1176.02 619.69 1181.95 625.45 1187.07 631.93 C 1183.11 634.03 1178.95 636.59 1174.28 636.11 C 1170.03 636.04 1164.95 634.11 1161.40 637.36 C 1159.36 643.86 1161.16 650.84 1160.21 657.48 C 1158.86 664.12 1155.01 669.91 1152.83 676.25 C 1151.63 682.42 1153.53 688.82 1151.90 694.96 C 1144.76 719.07 1138.79 743.54 1133.27 768.08 C 1131.25 765.41 1129.21 762.74 1126.72 760.49 C 1122.91 769.16 1122.71 778.84 1119.46 787.66 C 1117.49 794.40 1110.96 797.00 1105.85 800.75 C 1104.10 799.51 1102.35 798.28 1100.60 797.07 C 1099.96 800.84 1099.39 804.66 1098.82 808.46 C 1093.10 805.69 1087.51 802.40 1082.54 798.45 C 1079.73 795.66 1078.32 791.87 1076.20 788.60 C 1075.55 787.36 1074.63 787.08 1073.45 787.76 C 1077.00 771.72 1079.00 755.39 1081.37 739.15 C 1082.31 734.16 1079.56 729.66 1078.76 724.89 C 1078.49 718.98 1080.83 713.24 1080.43 707.34 C 1078.82 695.25 1069.80 686.16 1064.29 675.76 C 1061.21 668.15 1066.08 660.08 1065.51 652.26 C 1061.94 647.35 1055.75 644.97 1052.28 639.95 C 1050.16 637.11 1048.01 633.20 1043.92 633.34 C 1035.57 634.03 1030.32 641.62 1023.38 645.25 C 1018.00 645.70 1013.23 642.92 1008.12 641.89 C 1002.91 641.17 997.70 642.80 992.48 642.11 C 986.06 640.14 978.72 639.19 973.83 634.18 C 970.96 631.41 967.44 629.40 963.58 628.43 C 962.23 627.99 960.91 627.55 959.60 627.11 C 962.93 623.48 967.89 620.70 968.91 615.53 C 970.78 607.96 971.29 599.79 968.70 592.33 C 965.96 588.57 960.88 587.37 958.30 583.42 C 955.34 578.97 949.91 575.20 950.54 569.25 C 951.23 562.44 952.44 555.52 951.31 548.69 C 949.34 543.98 943.71 542.38 940.05 539.44 C 939.84 535.87 939.69 532.28 939.61 528.72 C 937.84 528.32 936.07 527.93 934.33 527.53 C 935.63 524.06 936.22 519.19 940.26 517.84 Z" />
</g>
<g id="#6f20bfff">
<path fill="#6f20bf" fill-opacity="0" d=" M 1027.61 530.56 C 1029.09 529.90 1030.63 529.37 1032.21 528.95 C 1031.76 530.05 1031.32 531.16 1030.89 532.28 C 1029.78 531.71 1028.68 531.14 1027.61 530.56 Z" />
</g>
<g id="#ef1f3fff">
<path fill="#ef1f3f" fill-opacity="0" d=" M 887.93 627.06 C 896.31 621.94 903.70 615.41 911.40 609.35 C 920.97 618.07 924.20 633.06 937.86 637.17 C 947.62 640.16 955.43 632.23 963.58 628.43 C 967.44 629.40 970.96 631.41 973.83 634.18 C 978.72 639.19 986.06 640.14 992.48 642.11 C 989.21 649.67 984.06 656.63 982.62 664.86 C 985.10 668.03 989.19 669.24 992.55 671.24 C 989.02 678.02 984.38 685.25 976.57 687.46 C 971.49 687.24 969.49 691.64 970.72 695.75 C 973.14 705.04 972.99 715.03 969.46 724.02 C 966.72 732.99 967.07 743.70 959.65 750.54 C 954.89 754.15 948.91 756.20 945.41 761.34 C 940.72 765.75 938.05 774.51 930.43 773.79 C 923.51 772.59 917.20 769.15 910.61 766.82 C 904.98 776.50 899.08 787.26 899.90 798.83 C 891.20 800.37 882.34 802.49 873.53 801.45 C 866.99 797.74 867.38 789.29 865.94 782.88 C 863.84 777.19 856.36 779.58 852.05 776.94 C 849.01 773.26 848.10 767.97 844.39 764.87 C 839.42 762.88 833.35 761.85 830.52 756.67 C 827.34 751.45 824.60 745.67 824.75 739.41 C 824.46 731.68 824.01 723.83 825.26 716.16 C 827.12 709.04 829.26 701.99 831.22 694.90 C 838.16 687.85 843.91 679.75 848.24 670.84 C 853.09 662.90 855.11 653.69 859.39 645.50 C 862.21 640.64 864.57 635.37 868.37 631.19 C 874.52 628.60 882.09 630.89 887.93 627.06 Z" />
</g>
<g id="#ef1fbffe">
<path fill="#ef1fbf" fill-opacity="0" d=" M 1174.28 636.11 C 1178.95 636.59 1183.11 634.03 1187.07 631.93 C 1193.25 639.88 1203.00 643.17 1211.53 647.84 C 1217.33 650.37 1223.42 654.11 1230.01 651.98 C 1234.85 651.63 1239.38 648.30 1244.31 649.67 C 1252.82 652.49 1257.14 661.33 1259.52 669.40 C 1263.00 682.07 1257.20 694.52 1255.85 707.05 C 1258.16 708.00 1260.49 709.42 1263.11 709.17 C 1266.33 709.32 1270.59 706.85 1272.65 710.28 C 1275.37 714.69 1276.77 719.85 1280.24 723.84 C 1283.37 726.80 1283.52 731.04 1284.38 734.97 C 1286.30 736.39 1288.29 737.84 1290.27 739.24 C 1290.65 742.23 1291.46 745.14 1292.43 748.00 C 1290.58 753.18 1289.80 758.60 1289.42 764.06 C 1291.35 765.60 1293.29 767.13 1295.28 768.61 C 1294.27 774.45 1291.68 779.76 1289.00 784.98 C 1286.32 789.98 1289.47 795.50 1289.16 800.76 C 1287.33 807.35 1284.37 813.54 1281.71 819.82 C 1275.11 820.87 1268.46 821.49 1261.92 822.85 C 1258.38 822.94 1254.20 825.67 1251.06 822.99 C 1247.43 820.08 1244.47 816.09 1239.60 815.11 C 1236.23 814.06 1232.89 811.87 1229.31 812.30 C 1224.89 814.25 1222.75 818.90 1220.57 822.91 C 1215.48 820.85 1207.50 816.34 1203.78 822.64 C 1201.28 827.91 1199.75 833.64 1196.61 838.62 C 1187.59 854.59 1187.14 874.37 1175.68 889.05 C 1172.09 886.58 1166.50 885.45 1165.64 880.54 C 1163.77 871.60 1158.19 864.31 1152.10 857.81 C 1152.34 855.94 1152.60 854.07 1152.86 852.22 C 1150.68 848.73 1149.33 844.63 1146.12 841.89 C 1142.24 838.32 1139.33 833.94 1136.33 829.65 C 1136.48 828.20 1136.65 826.76 1136.83 825.33 C 1131.30 819.92 1123.93 813.78 1125.42 805.06 C 1126.86 792.53 1130.91 780.45 1133.27 768.08 C 1138.79 743.54 1144.76 719.07 1151.90 694.96 C 1153.53 688.82 1151.63 682.42 1152.83 676.25 C 1155.01 669.91 1158.86 664.12 1160.21 657.48 C 1161.16 650.84 1159.36 643.86 1161.40 637.36 C 1164.95 634.11 1170.03 636.04 1174.28 636.11 Z" />
</g>
<g id="#efdf3fff">
<path fill="#efdf3f" fill-opacity="0" d=" M 1023.38 645.25 C 1030.32 641.62 1035.57 634.03 1043.92 633.34 C 1048.01 633.20 1050.16 637.11 1052.28 639.95 C 1055.75 644.97 1061.94 647.35 1065.51 652.26 C 1066.08 660.08 1061.21 668.15 1064.29 675.76 C 1069.80 686.16 1078.82 695.25 1080.43 707.34 C 1080.83 713.24 1078.49 718.98 1078.76 724.89 C 1079.56 729.66 1082.31 734.16 1081.37 739.15 C 1079.00 755.39 1077.00 771.72 1073.45 787.76 C 1066.46 777.00 1074.99 764.79 1073.10 753.26 C 1070.46 745.27 1065.19 737.49 1057.12 734.28 C 1048.80 732.07 1039.25 731.71 1032.35 737.68 C 1028.22 735.02 1023.98 732.33 1019.30 730.82 C 1006.66 728.18 994.71 735.58 982.00 733.94 C 974.99 735.92 971.64 729.13 969.46 724.02 C 972.99 715.03 973.14 705.04 970.72 695.75 C 969.49 691.64 971.49 687.24 976.57 687.46 C 984.38 685.25 989.02 678.02 992.55 671.24 C 989.19 669.24 985.10 668.03 982.62 664.86 C 984.06 656.63 989.21 649.67 992.48 642.11 C 997.70 642.80 1002.91 641.17 1008.12 641.89 C 1013.23 642.92 1018.00 645.70 1023.38 645.25 M 1042.11 725.20 C 1040.18 725.62 1040.99 728.75 1042.90 728.14 C 1044.82 727.73 1043.95 724.60 1042.11 725.20 Z" />
</g>
<g id="#6f9f3fff">
<path fill="#6f9f3f" fill-opacity="0" d=" M 803.78 719.95 C 814.47 713.46 821.99 703.13 831.22 694.90 C 829.26 701.99 827.12 709.04 825.26 716.16 C 824.01 723.83 824.46 731.68 824.75 739.41 C 824.60 745.67 827.34 751.45 830.52 756.67 C 824.65 762.13 818.99 768.07 815.15 775.16 C 812.51 779.93 814.65 785.49 815.32 790.44 C 819.69 810.85 822.98 831.48 827.37 851.89 C 823.41 858.36 819.48 864.98 814.13 870.42 C 808.99 848.81 804.91 826.96 799.60 805.39 C 798.90 802.25 797.34 799.03 794.02 798.03 C 780.92 791.98 768.29 785.02 755.87 777.69 C 757.47 771.73 762.33 767.73 766.46 763.48 C 777.15 753.10 786.56 741.53 796.25 730.24 C 799.18 727.10 799.88 722.18 803.78 719.95 Z" />
</g>
<g id="#6f9fbfff">
<path fill="#6f9fbf" fill-opacity="0" d=" M 959.65 750.54 C 967.07 743.70 966.72 732.99 969.46 724.02 C 971.64 729.13 974.99 735.92 982.00 733.94 C 994.71 735.58 1006.66 728.18 1019.30 730.82 C 1023.98 732.33 1028.22 735.02 1032.35 737.68 C 1032.51 744.74 1036.02 750.81 1040.14 756.29 C 1034.15 759.62 1028.57 764.07 1025.15 770.11 C 1022.34 775.20 1024.89 781.11 1025.82 786.41 C 1026.09 790.42 1029.36 795.49 1026.26 799.19 C 1022.71 803.37 1018.61 807.06 1015.27 811.43 C 1019.84 810.61 1024.39 809.29 1029.06 809.06 C 1032.41 812.30 1033.60 817.03 1035.42 821.20 C 1033.00 823.60 1028.68 825.82 1029.60 829.87 C 1031.52 837.75 1036.99 844.44 1038.12 852.58 C 1038.28 857.74 1037.15 862.85 1036.15 867.89 C 1028.12 867.92 1020.17 866.31 1012.16 866.34 C 1008.76 867.50 1005.87 869.78 1002.85 871.67 C 1000.84 869.95 997.93 868.40 997.77 865.45 C 997.18 860.62 998.09 855.61 996.03 851.02 C 993.68 845.06 995.43 838.62 995.03 832.46 C 992.79 828.77 989.07 826.07 987.38 822.05 C 986.45 817.71 987.16 813.17 987.01 808.79 C 979.79 807.36 972.35 806.97 965.39 804.39 C 963.73 812.09 964.90 821.73 958.43 827.48 C 948.87 834.10 936.98 828.97 927.17 825.70 C 920.11 823.39 916.41 816.55 911.25 811.75 C 906.86 808.00 901.59 804.74 899.90 798.83 C 899.08 787.26 904.98 776.50 910.61 766.82 C 917.20 769.15 923.51 772.59 930.43 773.79 C 938.05 774.51 940.72 765.75 945.41 761.34 C 948.91 756.20 954.89 754.15 959.65 750.54 Z" />
</g>
<g id="#6f5fbffe">
<path fill="#6f5fbf" fill-opacity="0" d=" M 1042.11 725.20 C 1043.95 724.60 1044.82 727.73 1042.90 728.14 C 1040.99 728.75 1040.18 725.62 1042.11 725.20 Z" />
</g>
<g id="#ef9fbfff">
<path fill="#ef9fbf" fill-opacity="0" d=" M 1032.35 737.68 C 1039.25 731.71 1048.80 732.07 1057.12 734.28 C 1065.19 737.49 1070.46 745.27 1073.10 753.26 C 1074.99 764.79 1066.46 777.00 1073.45 787.76 C 1074.04 789.02 1074.96 789.30 1076.20 788.60 C 1078.32 791.87 1079.73 795.66 1082.54 798.45 C 1087.51 802.40 1093.10 805.69 1098.82 808.46 C 1105.61 810.27 1112.90 811.35 1118.95 815.16 C 1124.90 819.82 1128.77 827.18 1136.33 829.65 C 1139.33 833.94 1142.24 838.32 1146.12 841.89 C 1146.88 843.77 1146.24 845.81 1145.87 847.70 C 1144.06 854.80 1141.98 861.84 1139.84 868.86 C 1134.40 869.05 1132.02 873.94 1130.51 878.45 C 1126.90 876.79 1123.40 874.85 1119.91 873.01 C 1120.38 868.36 1120.95 863.73 1121.43 859.10 C 1116.53 861.69 1111.60 864.24 1106.49 866.36 C 1104.58 867.31 1102.90 865.49 1101.35 864.65 C 1095.05 859.93 1087.22 858.17 1080.09 855.12 C 1075.38 859.56 1069.68 862.72 1064.51 866.55 C 1061.29 870.91 1062.15 876.90 1060.91 881.99 C 1060.28 881.95 1059.01 881.86 1058.38 881.82 C 1055.19 874.66 1048.72 869.70 1041.70 866.61 C 1039.78 866.67 1037.97 867.38 1036.15 867.89 C 1037.15 862.85 1038.28 857.74 1038.12 852.58 C 1036.99 844.44 1031.52 837.75 1029.60 829.87 C 1028.68 825.82 1033.00 823.60 1035.42 821.20 C 1033.60 817.03 1032.41 812.30 1029.06 809.06 C 1024.39 809.29 1019.84 810.61 1015.27 811.43 C 1018.61 807.06 1022.71 803.37 1026.26 799.19 C 1029.36 795.49 1026.09 790.42 1025.82 786.41 C 1024.89 781.11 1022.34 775.20 1025.15 770.11 C 1028.57 764.07 1034.15 759.62 1040.14 756.29 C 1036.02 750.81 1032.51 744.74 1032.35 737.68 M 1042.84 781.36 C 1047.24 787.48 1053.56 791.48 1060.75 793.55 C 1060.45 791.58 1060.99 789.16 1059.43 787.63 C 1055.81 783.73 1051.32 780.79 1047.05 777.68 C 1045.63 778.90 1044.23 780.13 1042.84 781.36 Z" />
</g>
<g id="#af5f3fff">
<path fill="#af5f3f" fill-opacity="0" d=" M 815.15 775.16 C 818.99 768.07 824.65 762.13 830.52 756.67 C 833.35 761.85 839.42 762.88 844.39 764.87 C 848.10 767.97 849.01 773.26 852.05 776.94 C 856.36 779.58 863.84 777.19 865.94 782.88 C 867.38 789.29 866.99 797.74 873.53 801.45 C 882.34 802.49 891.20 800.37 899.90 798.83 C 901.59 804.74 906.86 808.00 911.25 811.75 C 910.16 816.93 909.00 822.11 907.41 827.18 C 905.50 833.26 907.47 839.61 908.35 845.67 C 909.45 851.64 908.24 857.69 908.57 863.71 C 910.14 882.87 911.71 902.03 912.83 921.22 C 904.48 916.32 896.08 911.43 888.34 905.61 C 883.18 901.84 880.55 895.96 877.71 890.48 C 877.28 892.16 876.86 893.85 876.46 895.56 C 874.81 894.55 873.11 893.62 871.67 892.34 C 869.99 888.88 870.26 884.80 868.47 881.38 C 865.76 876.66 862.53 872.27 859.43 867.82 C 859.32 868.50 859.11 869.87 859.00 870.55 C 855.84 869.17 852.39 868.92 849.03 868.43 L 848.21 874.07 C 843.37 871.15 843.61 865.13 841.35 860.64 C 837.19 857.01 831.92 854.96 827.37 851.89 C 822.98 831.48 819.69 810.85 815.32 790.44 C 814.65 785.49 812.51 779.93 815.15 775.16 M 855.54 801.27 C 854.61 802.40 856.57 803.86 857.46 802.73 C 858.37 801.58 856.40 800.12 855.54 801.27 Z" />
</g>
<g id="#6f5f3fff">
<path fill="#6f5f3f" fill-opacity="0" d=" M 737.04 795.99 C 741.74 788.41 749.01 783.15 755.87 777.69 C 768.29 785.02 780.92 791.98 794.02 798.03 C 797.34 799.03 798.90 802.25 799.60 805.39 C 804.91 826.96 808.99 848.81 814.13 870.42 C 814.69 873.45 815.65 877.55 812.69 879.67 C 810.64 880.49 808.40 880.43 806.24 880.62 C 806.23 882.08 806.22 883.55 806.21 885.02 C 802.77 884.29 799.36 883.56 795.94 882.88 C 796.26 885.34 796.64 887.80 797.01 890.27 C 794.84 890.21 792.67 890.09 790.53 889.99 C 787.22 896.08 788.26 903.08 786.81 909.59 C 783.76 909.73 779.68 910.41 777.86 907.27 C 773.83 901.23 769.30 895.52 765.62 889.25 C 763.72 885.17 758.68 886.71 755.10 885.69 C 747.95 883.41 744.73 874.09 736.67 873.68 C 732.15 872.79 725.68 875.08 723.18 870.01 C 720.43 863.84 713.12 862.05 709.26 856.84 C 706.63 852.70 705.29 847.93 703.43 843.43 C 702.31 840.17 700.34 836.98 700.46 833.45 C 705.67 827.32 711.97 822.12 716.51 815.42 C 725.85 812.24 731.91 803.94 737.04 795.99 Z" />
</g>
<g id="#afdf3ffe">
<path fill="#afdf3f" fill-opacity="0" d=" M 1042.84 781.36 C 1044.23 780.13 1045.63 778.90 1047.05 777.68 C 1051.32 780.79 1055.81 783.73 1059.43 787.63 C 1060.99 789.16 1060.45 791.58 1060.75 793.55 C 1053.56 791.48 1047.24 787.48 1042.84 781.36 Z" />
</g>
<g id="#30df40ff">
<path fill="#30df40" fill-opacity="0" d=" M 855.54 801.27 C 856.40 800.12 858.37 801.58 857.46 802.73 C 856.57 803.86 854.61 802.40 855.54 801.27 Z" />
</g>
<g id="#2f5fbfff">
<path fill="#2f5fbf" fill-opacity="0" d=" M 965.39 804.39 C 972.35 806.97 979.79 807.36 987.01 808.79 C 987.16 813.17 986.45 817.71 987.38 822.05 C 989.07 826.07 992.79 828.77 995.03 832.46 C 995.43 838.62 993.68 845.06 996.03 851.02 C 998.09 855.61 997.18 860.62 997.77 865.45 C 997.93 868.40 1000.84 869.95 1002.85 871.67 C 1003.34 872.03 1004.32 872.74 1004.81 873.10 C 1007.38 871.38 1010.01 869.77 1012.66 868.15 C 1016.14 869.10 1019.70 870.12 1023.21 871.12 C 1022.82 885.46 1019.49 899.84 1011.84 912.12 C 1004.64 909.28 999.47 902.14 991.37 901.61 C 990.91 903.58 990.48 905.58 990.01 907.56 C 980.05 912.35 971.23 921.12 969.17 932.34 C 967.03 938.57 959.41 939.25 953.84 938.30 C 948.92 946.21 952.46 955.92 951.59 964.66 C 951.44 969.83 949.40 974.70 948.01 979.63 C 947.52 976.90 946.53 971.46 946.04 968.73 C 942.91 963.70 937.40 960.39 935.23 954.71 C 932.55 949.32 932.65 943.12 931.32 937.39 C 927.28 929.95 920.21 924.95 912.83 921.22 C 911.71 902.03 910.14 882.87 908.57 863.71 C 908.24 857.69 909.45 851.64 908.35 845.67 C 907.47 839.61 905.50 833.26 907.41 827.18 C 909.00 822.11 910.16 816.93 911.25 811.75 C 916.41 816.55 920.11 823.39 927.17 825.70 C 936.98 828.97 948.87 834.10 958.43 827.48 C 964.90 821.73 963.73 812.09 965.39 804.39 Z" />
</g>
</svg>
