<?xml version="1.0" encoding="UTF-8" ?> 
<!DOCTYPE svg PUBLIC "-//W3C//DTD SVG 1.1//EN" "http://www.w3.org/Graphics/SVG/1.1/DTD/svg11.dtd">
<svg width="1920pt" height="1080pt" viewBox="0 0 1920 1080" version="1.1" xmlns="http://www.w3.org/2000/svg">
<g target="108">
	<path fill="#007f00" fill-opacity="0" d=" M 1313.90 135.89 C 1321.86 136.66 1328.84 140.80 1336.03 143.92 C 1343.60 147.52 1351.57 150.19 1359.09 153.94 C 1362.44 155.54 1363.16 159.75 1366.23 161.70 C 1372.29 165.55 1379.10 168.01 1385.18 171.86 C 1396.62 179.98 1411.36 181.21 1422.94 189.09 C 1443.19 203.99 1464.67 217.15 1485.04 231.91 C 1488.83 234.57 1492.75 237.16 1496.78 239.49 C 1496.28 240.98 1495.78 242.48 1495.30 243.98 C 1501.22 249.22 1508.49 253.33 1512.91 260.08 C 1515.10 263.13 1517.23 266.45 1520.44 268.55 C 1523.56 269.72 1527.31 268.18 1529.89 271.08 C 1535.33 274.36 1539.02 279.51 1542.32 284.76 C 1545.95 291.10 1553.88 289.00 1558.59 293.45 C 1565.91 299.40 1574.54 303.36 1582.46 308.40 C 1584.99 306.63 1587.72 304.85 1590.88 304.53 C 1592.60 306.12 1593.60 308.29 1594.93 310.20 C 1593.20 312.60 1591.46 314.99 1589.70 317.37 C 1596.46 324.46 1606.66 327.26 1612.32 335.53 C 1616.09 340.73 1620.21 345.70 1625.21 349.79 C 1629.87 354.19 1636.12 356.91 1639.72 362.40 C 1646.07 372.21 1655.80 378.88 1663.79 387.21 C 1670.45 393.88 1676.47 401.18 1682.17 408.70 C 1678.23 412.34 1674.36 416.04 1670.13 419.34 C 1648.92 402.56 1627.48 386.04 1604.96 371.05 C 1591.42 361.08 1578.14 350.65 1566.21 338.78 C 1561.50 334.07 1555.22 331.11 1551.24 325.69 C 1548.27 321.98 1545.29 318.27 1542.17 314.70 C 1544.01 318.77 1545.37 323.04 1546.02 327.48 C 1541.92 332.18 1538.14 337.17 1533.39 341.25 C 1534.15 342.74 1534.93 344.22 1535.72 345.71 C 1532.78 349.24 1529.96 352.82 1527.04 356.35 C 1529.71 365.25 1537.00 371.70 1541.58 379.59 C 1551.18 390.36 1556.12 404.12 1563.94 416.07 C 1566.79 420.81 1570.40 425.07 1572.96 430.00 C 1576.90 437.04 1578.60 445.10 1582.93 451.95 C 1586.87 449.11 1590.79 446.14 1595.11 443.88 C 1596.54 446.71 1598.18 449.44 1599.92 452.11 C 1602.44 450.52 1604.93 448.93 1607.50 447.37 C 1604.05 451.03 1600.68 454.78 1597.89 458.97 C 1603.52 457.53 1608.82 455.09 1612.95 450.85 C 1610.31 448.87 1608.26 446.29 1607.01 443.24 C 1611.01 439.41 1614.97 435.51 1618.97 431.65 C 1633.61 441.50 1648.08 451.90 1660.06 464.97 C 1676.83 479.23 1694.12 492.89 1711.22 506.77 C 1714.77 509.76 1718.92 511.92 1722.61 514.74 C 1720.39 516.87 1717.93 518.77 1716.03 521.20 C 1717.51 525.52 1720.88 528.79 1723.46 532.49 C 1728.20 538.30 1732.57 544.89 1739.17 548.79 C 1743.00 551.09 1746.53 553.86 1750.39 556.13 C 1755.73 559.04 1758.77 564.43 1762.33 569.14 C 1760.67 570.54 1758.99 571.92 1757.32 573.29 C 1759.05 576.03 1760.69 578.82 1762.29 581.65 C 1758.88 583.81 1755.50 586.07 1751.99 588.01 C 1748.28 590.03 1743.94 589.59 1739.89 589.91 C 1740.89 588.92 1741.92 587.95 1742.96 586.98 C 1737.25 580.22 1732.26 572.85 1726.04 566.56 C 1732.19 577.85 1738.13 589.25 1744.74 600.28 C 1754.09 615.79 1758.68 633.43 1765.98 649.89 C 1769.52 662.24 1776.73 673.23 1779.04 685.98 C 1780.49 695.16 1782.70 704.46 1780.93 713.78 C 1777.48 715.37 1774.02 716.92 1770.65 718.66 C 1772.41 718.43 1774.19 718.18 1775.98 717.94 C 1772.95 719.96 1769.61 722.17 1769.48 726.36 C 1770.19 726.53 1771.62 726.87 1772.33 727.05 C 1770.12 731.92 1771.31 737.09 1773.18 741.85 C 1768.31 743.91 1763.43 745.97 1758.62 748.13 C 1756.35 745.55 1753.59 743.35 1752.02 740.27 C 1751.25 735.90 1752.18 731.11 1749.99 727.07 C 1743.11 714.77 1734.39 703.57 1724.56 693.50 C 1721.99 687.59 1722.37 680.63 1721.08 674.31 C 1723.95 672.90 1726.88 671.50 1729.79 670.08 C 1725.12 662.17 1721.80 653.60 1717.65 645.45 C 1711.77 635.19 1705.58 625.11 1699.29 615.12 C 1694.88 623.49 1687.44 630.57 1678.10 632.85 C 1670.28 628.42 1664.97 620.78 1658.43 614.76 C 1655.24 614.71 1652.06 614.22 1649.15 612.89 C 1641.77 609.90 1633.98 613.60 1627.07 615.94 C 1620.65 611.81 1615.58 606.11 1610.05 600.96 C 1604.24 595.29 1596.90 591.54 1591.03 585.95 C 1585.02 580.22 1578.31 575.35 1571.75 570.30 C 1565.45 565.92 1558.81 560.00 1550.50 560.89 C 1544.11 561.52 1537.48 562.33 1531.19 560.69 C 1523.68 555.20 1516.18 549.41 1510.66 541.83 C 1511.39 541.59 1512.86 541.11 1513.59 540.87 C 1509.34 537.55 1503.52 535.44 1502.23 529.54 C 1500.11 524.49 1496.20 520.51 1491.78 517.41 C 1491.49 518.98 1491.25 520.56 1491.00 522.14 C 1486.77 518.84 1482.64 515.44 1478.76 511.75 C 1476.56 514.93 1474.26 518.05 1471.86 521.08 C 1468.97 518.01 1467.14 514.07 1467.91 509.79 C 1454.42 507.92 1447.03 495.00 1435.41 489.39 C 1430.40 487.01 1427.19 482.39 1423.53 478.46 C 1419.69 474.22 1414.58 471.46 1410.57 467.43 C 1407.46 464.52 1404.90 461.08 1401.67 458.31 C 1398.70 456.13 1394.96 455.48 1391.61 454.15 C 1391.57 455.71 1391.56 457.29 1391.57 458.86 C 1389.21 459.08 1386.84 459.54 1384.49 459.21 C 1380.64 457.25 1378.83 452.94 1375.56 450.30 C 1368.87 446.51 1360.95 446.49 1353.49 446.01 C 1353.05 449.11 1352.83 452.24 1352.79 455.37 C 1352.34 455.41 1351.91 455.45 1351.50 455.50 C 1354.08 462.64 1351.54 470.26 1353.55 477.48 C 1354.64 480.70 1352.85 483.71 1351.65 486.60 C 1350.70 486.14 1349.76 485.69 1348.85 485.25 C 1349.91 487.20 1351.01 489.14 1352.11 491.09 C 1350.20 489.37 1348.33 487.66 1346.48 485.95 C 1346.78 484.69 1347.10 483.44 1347.42 482.19 C 1344.95 481.63 1342.55 480.87 1340.21 479.94 C 1339.05 482.42 1338.42 485.77 1335.58 486.88 C 1333.02 488.12 1330.22 488.70 1327.49 489.36 C 1327.97 491.35 1328.45 493.34 1328.95 495.33 C 1322.82 498.68 1315.33 495.95 1311.00 491.02 C 1308.27 486.25 1307.85 480.53 1305.11 475.74 C 1301.99 470.44 1301.46 464.27 1300.36 458.36 C 1298.99 456.86 1300.23 452.80 1297.52 452.22 C 1293.04 450.71 1288.21 449.70 1284.56 446.50 C 1281.99 444.09 1278.22 442.20 1277.56 438.45 C 1277.00 436.34 1276.87 434.07 1275.82 432.12 C 1273.08 429.61 1268.73 430.41 1265.84 428.20 C 1263.69 425.47 1263.24 421.75 1260.86 419.16 C 1257.60 415.66 1254.34 411.57 1249.51 410.33 C 1245.74 409.14 1241.75 409.90 1237.93 410.25 C 1238.52 407.70 1239.22 405.19 1240.01 402.70 C 1236.34 400.27 1232.54 396.19 1227.71 397.55 C 1221.75 398.96 1215.51 398.29 1209.98 395.69 C 1210.16 396.62 1210.36 397.57 1210.57 398.52 C 1207.50 398.16 1204.07 398.33 1201.41 396.56 C 1197.36 390.97 1196.98 383.40 1199.34 377.03 C 1189.39 374.04 1182.71 365.37 1176.55 357.55 C 1174.05 354.50 1170.05 353.48 1166.43 352.45 C 1168.24 349.89 1169.73 347.11 1171.75 344.70 C 1165.59 336.13 1159.50 327.44 1152.06 319.92 C 1147.75 315.98 1142.22 313.79 1137.30 310.75 C 1142.98 306.37 1147.99 299.44 1155.89 299.62 C 1153.58 296.54 1151.28 293.49 1149.08 290.35 C 1150.62 289.90 1152.18 289.44 1153.74 288.99 C 1152.10 287.64 1150.47 286.29 1148.86 284.94 C 1151.84 281.28 1154.78 277.56 1157.44 273.65 C 1151.13 271.01 1145.54 267.03 1140.17 262.86 C 1134.06 258.43 1125.84 258.10 1120.19 252.85 C 1116.58 249.29 1112.02 247.17 1107.48 245.13 C 1108.17 244.91 1109.56 244.48 1110.26 244.26 C 1108.77 242.28 1107.27 240.32 1105.79 238.34 C 1107.26 238.49 1108.75 238.65 1110.26 238.80 C 1110.61 238.84 1111.33 238.91 1111.69 238.95 C 1112.24 237.37 1112.79 235.79 1113.35 234.22 C 1115.57 235.08 1117.79 235.95 1120.01 236.84 C 1121.49 232.62 1122.82 228.35 1124.52 224.21 C 1124.30 229.62 1123.28 234.95 1122.73 240.33 C 1130.16 234.19 1139.87 232.64 1149.16 231.43 C 1152.95 232.05 1155.70 235.37 1159.27 236.67 C 1157.32 230.55 1160.47 224.62 1162.08 218.79 C 1163.06 219.24 1164.07 219.67 1165.11 220.06 C 1163.67 224.94 1162.15 229.83 1161.49 234.90 C 1165.27 229.71 1166.17 223.09 1168.71 217.28 C 1173.94 218.26 1179.46 219.76 1184.72 218.09 C 1192.58 214.66 1201.75 217.23 1209.09 220.86 C 1216.84 224.62 1223.35 230.59 1231.45 233.67 C 1231.61 234.74 1231.79 235.81 1231.99 236.88 C 1235.90 233.27 1237.24 227.98 1238.90 223.12 C 1242.76 225.54 1246.96 227.35 1251.37 228.49 C 1251.12 226.82 1252.49 223.91 1250.23 223.22 C 1247.05 222.30 1243.78 221.71 1240.75 220.34 C 1241.40 218.56 1242.08 216.79 1242.78 215.03 C 1240.37 214.55 1237.99 214.07 1235.63 213.61 C 1237.11 208.22 1239.19 203.01 1241.59 197.96 C 1251.32 194.59 1260.89 190.68 1270.24 186.36 C 1274.56 185.26 1278.12 189.58 1282.33 190.01 C 1286.48 190.00 1290.55 189.19 1294.70 188.76 C 1295.43 181.51 1301.43 176.15 1301.62 168.85 C 1301.38 164.88 1298.07 161.98 1296.20 158.73 C 1298.20 153.52 1299.86 147.90 1303.47 143.55 C 1307.16 141.28 1311.55 139.87 1313.90 135.89 M 1302.16 171.16 C 1301.24 175.16 1306.15 170.25 1302.16 171.16 M 1307.23 172.62 C 1305.61 172.75 1305.31 175.65 1307.10 175.71 C 1308.74 175.67 1308.97 172.65 1307.23 172.62 M 1697.40 609.71 C 1696.33 610.83 1697.85 613.32 1699.33 612.56 C 1700.32 611.43 1698.83 608.98 1697.40 609.71 Z" />
<path fill="#007f00" fill-opacity="0" d=" M 1257.19 123.56 C 1265.02 125.17 1271.53 129.93 1278.09 134.24 C 1276.45 139.00 1274.65 143.70 1272.85 148.40 C 1264.96 147.11 1257.53 143.79 1251.04 139.18 C 1253.21 134.02 1255.19 128.79 1257.19 123.56 Z" />

<path fill="#007f00" fill-opacity="0" d=" M 1191.54 165.35 C 1197.59 163.81 1203.29 160.83 1209.64 160.54 C 1212.59 160.86 1215.73 163.56 1214.69 166.79 C 1213.59 171.39 1211.96 175.88 1209.99 180.16 C 1208.88 183.32 1204.36 182.16 1202.14 182.88 C 1199.63 188.66 1197.11 194.42 1194.82 200.29 C 1187.74 199.91 1180.51 199.23 1173.92 196.43 C 1172.93 197.28 1171.95 198.13 1170.98 198.98 C 1168.04 197.56 1165.09 196.16 1162.16 194.78 C 1162.28 188.43 1162.27 181.92 1164.92 175.98 C 1165.01 171.41 1169.44 169.81 1172.90 168.31 C 1179.12 167.42 1185.43 166.98 1191.54 165.35 Z" />
<path fill="#007f00" fill-opacity="0" d=" M 1690.30 447.03 C 1694.78 442.76 1699.34 438.14 1705.45 436.27 C 1707.33 438.57 1709.35 440.86 1711.35 443.12 C 1706.92 446.77 1702.47 450.38 1698.09 454.07 C 1695.68 451.52 1693.14 449.09 1690.30 447.03 Z" />
<path fill="#007f00" fill-opacity="0" d=" M 1747.53 525.93 C 1752.22 522.61 1756.97 519.30 1762.02 516.53 C 1765.90 522.62 1770.02 528.70 1772.47 535.57 C 1767.58 538.45 1762.76 541.40 1757.95 544.33 C 1754.15 538.38 1750.52 532.32 1747.53 525.93 Z" />
<path fill="#007f00" fill-opacity="0" d=" M 1774.02 584.98 C 1777.26 579.42 1784.08 577.41 1789.55 574.58 C 1790.68 577.75 1791.86 580.91 1793.04 584.07 C 1794.71 583.44 1796.40 582.80 1798.10 582.16 C 1798.66 583.68 1799.24 585.21 1799.84 586.75 C 1798.62 587.58 1797.41 588.41 1796.22 589.25 C 1796.48 590.09 1796.76 590.93 1797.06 591.79 C 1798.43 591.23 1799.81 590.68 1801.22 590.16 C 1800.19 591.49 1799.17 592.81 1798.13 594.12 C 1800.10 594.34 1802.08 594.56 1804.07 594.83 C 1804.03 595.59 1803.96 597.10 1803.92 597.86 C 1799.73 600.30 1795.83 603.37 1791.28 605.04 C 1788.51 605.21 1785.87 603.84 1783.17 603.43 C 1779.95 597.36 1776.52 591.37 1774.02 584.98 Z" />
</g>
<g target="102">
	<path fill="#007f7f" fill-opacity="0" d=" M 817.56 221.68 C 821.96 219.66 827.12 216.90 831.94 218.99 C 835.41 220.35 834.10 225.43 835.03 228.03 C 834.97 231.18 835.92 234.49 835.30 237.66 C 834.12 240.81 831.09 242.86 828.12 244.14 C 812.69 249.50 796.04 250.26 780.73 256.03 C 775.47 258.60 770.98 263.23 764.75 263.34 C 759.90 266.21 755.50 270.32 749.78 271.33 C 745.12 277.18 737.71 279.50 731.87 283.86 C 725.88 288.54 718.27 291.46 714.76 298.76 C 711.33 304.32 716.52 310.47 717.28 316.05 C 719.75 314.94 722.22 313.80 724.73 312.73 C 727.28 316.81 729.44 321.38 732.86 324.75 C 744.48 328.42 758.57 327.76 767.13 337.77 C 765.61 340.05 764.11 342.34 762.68 344.68 C 765.24 345.97 770.53 346.34 769.72 350.35 C 768.24 354.92 764.66 358.55 763.49 363.29 C 765.91 363.35 768.33 363.38 770.76 363.39 C 770.77 365.38 770.81 367.38 770.85 369.38 C 769.95 369.37 769.05 369.37 768.16 369.37 C 768.64 370.30 769.14 371.24 769.64 372.18 C 764.91 374.26 760.02 376.41 756.48 380.32 C 750.89 386.36 742.06 386.57 735.16 390.28 C 730.63 393.28 727.21 397.66 722.91 400.94 C 719.25 402.91 714.98 403.34 711.32 405.30 C 705.74 408.18 701.65 413.21 696.34 416.45 C 693.01 418.09 689.47 413.77 686.25 416.04 C 680.03 419.18 677.54 426.05 676.24 432.44 C 671.90 439.85 665.84 446.24 662.13 454.07 C 660.74 457.53 660.72 461.34 659.89 464.95 C 658.93 472.52 653.33 478.25 651.09 485.39 C 641.31 489.20 630.95 487.25 621.08 485.10 C 615.36 483.53 610.80 488.26 605.41 489.02 C 599.39 490.03 593.58 491.86 587.85 493.89 C 581.74 493.25 575.78 490.73 569.50 492.17 C 569.89 490.52 570.29 488.87 570.70 487.24 C 564.04 487.19 557.62 489.75 550.93 489.03 C 550.09 490.38 548.40 493.08 547.56 494.43 C 549.14 496.33 550.68 498.28 552.22 500.22 C 546.19 501.55 540.80 504.56 535.63 507.84 C 535.00 506.64 534.39 505.45 533.78 504.26 C 530.65 505.69 527.48 507.19 524.02 507.58 C 520.37 508.18 516.20 508.03 513.30 510.70 C 509.92 513.75 507.56 517.72 504.30 520.88 C 504.27 514.93 502.98 508.20 497.49 504.84 C 501.04 497.81 507.94 492.65 510.23 484.98 C 511.81 479.21 506.18 475.14 501.89 472.68 C 496.67 478.41 490.86 483.58 485.75 489.42 C 484.02 489.07 482.29 488.72 480.57 488.37 C 480.65 490.32 480.74 492.28 480.84 494.24 C 482.83 493.50 484.83 492.76 486.82 492.01 C 484.30 495.71 482.14 499.64 480.10 503.62 C 477.73 503.46 475.27 502.84 472.93 503.47 C 468.71 505.42 465.06 509.13 460.17 509.24 C 454.26 508.94 448.19 508.05 443.07 504.90 C 439.42 502.72 435.41 501.29 431.29 500.33 C 427.65 499.48 425.25 496.30 423.46 493.26 C 421.88 495.02 420.49 497.03 418.49 498.35 C 415.49 499.62 411.99 499.01 408.99 500.30 C 405.58 502.26 403.67 506.32 399.84 507.61 C 396.95 507.65 392.46 506.99 392.25 503.33 C 391.88 499.18 390.40 495.24 387.38 492.29 C 384.23 494.31 380.63 495.34 376.93 495.56 C 376.90 497.24 376.90 498.92 376.91 500.61 C 374.09 497.98 371.11 495.52 367.81 493.52 C 369.94 497.90 372.70 501.92 375.20 506.09 C 372.23 503.03 368.50 500.48 366.55 496.59 C 365.55 493.44 366.42 490.07 366.46 486.84 C 361.22 488.86 356.01 492.07 350.16 491.23 C 344.35 490.47 338.60 491.97 332.99 493.30 C 331.61 491.78 330.33 490.12 328.66 488.92 C 325.28 488.65 322.64 491.22 320.19 493.18 C 315.44 497.17 309.73 500.35 303.41 500.69 C 296.29 501.25 289.15 504.95 282.03 502.51 C 279.48 501.66 277.34 504.10 276.43 506.21 C 274.21 511.68 274.89 518.59 269.39 522.36 C 266.66 526.79 261.56 527.26 256.97 527.82 C 253.99 524.71 250.99 521.64 247.81 518.76 C 248.79 517.17 249.80 515.60 250.80 514.03 C 248.99 511.16 247.35 508.19 245.75 505.21 C 249.93 501.04 253.59 496.33 255.59 490.72 C 257.13 486.04 262.26 484.07 264.68 480.00 C 266.41 477.08 266.53 472.74 269.76 470.84 C 273.39 468.62 277.43 467.15 281.49 465.91 C 280.98 464.61 280.47 463.31 279.98 462.02 C 287.14 457.34 292.98 451.06 299.27 445.36 C 304.34 442.90 309.27 440.12 311.78 434.66 C 310.72 433.19 309.70 431.70 308.71 430.20 C 312.37 432.78 316.07 435.37 320.12 437.34 C 317.16 433.18 313.85 429.30 310.80 425.21 C 311.26 424.96 312.17 424.45 312.63 424.19 C 316.64 429.30 322.02 433.00 327.18 436.84 C 326.15 440.05 325.33 443.32 324.69 446.64 C 329.94 446.32 334.00 442.13 334.49 436.96 C 334.19 434.29 332.31 432.13 330.88 429.96 C 331.01 432.12 331.18 434.29 331.31 436.46 C 327.03 431.94 326.05 425.74 324.94 419.88 C 337.20 414.20 350.58 411.51 362.86 405.86 C 373.55 401.02 384.98 397.52 394.64 390.67 C 399.57 385.81 397.29 378.11 400.21 372.31 C 403.72 369.37 409.18 369.00 411.70 364.86 C 414.48 359.98 417.52 355.24 420.69 350.61 C 426.30 345.33 433.23 341.76 439.47 337.32 C 446.69 332.40 448.97 323.12 455.29 317.32 C 460.62 313.29 467.71 312.84 473.29 309.29 C 477.72 305.72 477.49 299.49 479.96 294.85 C 488.92 285.61 502.36 284.48 513.69 279.75 C 514.20 280.28 514.72 280.82 515.25 281.37 C 519.85 281.03 524.49 281.14 529.05 280.30 C 537.37 298.46 544.76 317.03 550.34 336.21 C 551.05 340.14 551.09 344.15 551.29 348.14 C 549.19 350.85 546.66 353.67 546.50 357.28 C 546.62 359.43 547.48 361.45 548.06 363.51 C 553.44 361.35 557.40 357.08 561.23 352.90 C 560.59 350.89 559.94 348.88 559.27 346.89 C 566.38 341.50 573.94 336.47 579.26 329.13 C 578.78 326.47 578.29 323.82 577.82 321.17 C 582.36 325.24 588.71 326.00 593.73 329.31 C 598.14 333.78 599.62 340.08 602.09 345.65 C 601.54 345.57 600.46 345.39 599.92 345.30 C 599.98 346.08 600.11 347.64 600.17 348.41 C 607.84 346.76 615.42 344.68 623.04 342.79 C 621.29 337.92 619.08 333.15 618.08 328.07 C 620.87 321.05 628.28 316.74 635.73 316.75 C 639.50 323.52 642.10 330.80 644.23 338.21 C 653.66 336.25 662.83 331.87 672.67 333.28 C 675.12 334.07 675.31 336.73 675.59 338.88 C 676.07 338.22 676.57 337.57 677.07 336.92 C 676.75 338.52 676.42 340.13 676.09 341.73 C 677.03 341.70 677.99 341.68 678.95 341.67 C 678.74 339.26 678.50 336.85 678.32 334.44 C 680.22 336.98 681.51 339.97 683.70 342.28 C 685.97 343.17 688.42 344.10 690.78 344.86 C 692.70 342.81 694.46 340.12 697.96 340.79 C 702.86 339.82 707.84 338.94 712.83 338.51 C 712.27 335.54 711.72 332.57 711.24 329.59 C 716.08 333.66 717.51 339.68 718.64 345.58 C 722.05 345.05 725.15 343.50 728.01 341.64 C 725.76 339.39 723.08 337.46 721.51 334.64 C 720.09 330.64 719.12 326.54 718.05 322.46 C 715.75 323.59 713.31 325.46 710.64 324.44 C 702.61 322.01 693.37 321.08 687.16 314.85 C 682.55 307.35 681.55 298.19 678.96 289.91 C 677.04 284.05 683.44 278.63 689.06 278.97 C 694.44 278.35 696.63 272.64 700.14 269.24 C 704.33 266.45 709.01 264.43 713.91 263.26 C 718.38 262.49 717.50 255.90 721.97 254.95 C 731.08 251.81 740.32 247.03 745.62 238.62 C 751.22 238.09 757.01 237.02 761.72 233.75 C 769.30 228.97 778.32 227.73 786.96 226.22 C 797.28 226.94 808.25 226.76 817.56 221.68 M 482.83 341.71 C 482.29 347.11 480.84 352.37 480.31 357.77 C 479.96 361.44 478.12 364.78 475.33 367.17 C 478.24 373.01 481.40 378.72 484.73 384.33 C 487.97 383.43 491.29 382.90 494.62 382.35 C 495.99 375.92 499.59 370.31 501.83 364.27 C 494.31 357.86 487.37 350.62 482.83 341.71 M 579.68 359.03 C 584.21 360.54 588.69 359.42 591.72 355.91 C 587.33 354.63 583.31 356.84 579.68 359.03 M 543.80 358.63 C 544.51 361.07 545.56 363.39 547.01 365.49 C 546.17 363.10 545.11 360.80 543.80 358.63 M 457.44 385.13 C 458.85 386.87 460.24 388.67 461.92 390.18 C 463.17 389.01 464.28 387.69 465.39 386.39 C 463.74 384.98 462.10 383.56 460.51 382.08 C 459.48 383.09 458.45 384.10 457.44 385.13 M 362.28 429.00 C 360.92 432.08 360.79 435.57 360.23 438.86 C 365.24 436.34 366.96 430.60 369.23 425.87 C 366.91 426.81 364.06 427.08 362.28 429.00 Z" />
<path fill="#007f7f" fill-opacity="0" d=" M 798.95 165.39 C 805.79 162.38 813.58 162.01 819.90 157.79 C 820.72 162.84 821.94 167.80 823.53 172.66 C 826.15 169.71 826.61 165.71 827.52 162.00 C 829.55 161.65 831.60 161.32 833.67 161.01 C 835.74 166.44 837.15 172.10 837.35 177.95 C 837.27 180.46 838.62 184.90 835.68 186.62 C 832.77 187.94 829.56 188.29 826.51 189.12 C 825.56 183.63 825.12 178.07 824.44 172.55 C 824.33 176.52 824.11 184.48 824.01 188.45 C 819.45 190.00 813.48 192.65 809.52 188.39 C 809.67 190.97 809.84 193.54 810.03 196.12 C 804.07 193.58 796.80 193.58 792.08 188.72 C 790.13 189.41 788.19 190.20 786.14 190.46 C 782.91 188.96 780.37 186.30 777.39 184.45 C 777.25 187.08 777.16 189.71 777.02 192.34 C 772.57 190.82 768.22 189.00 764.08 186.79 C 761.41 179.84 760.92 172.31 759.86 165.00 C 768.79 163.62 778.79 167.51 786.86 162.06 C 786.94 163.76 787.08 167.18 787.16 168.89 C 789.08 169.51 791.00 170.13 792.94 170.74 C 794.28 168.33 796.18 166.13 798.95 165.39 Z" />

<path fill="#007f7f" fill-opacity="0" d=" M 186.48 485.28 C 191.24 489.07 196.03 492.86 200.48 497.02 C 200.50 501.46 202.01 505.75 202.18 510.13 C 200.08 515.30 194.45 517.93 190.80 521.96 C 182.14 513.23 168.76 507.39 165.98 494.30 C 169.28 491.29 173.14 488.98 176.62 486.19 C 177.52 487.03 178.43 487.87 179.33 488.72 C 181.72 487.58 184.11 486.44 186.48 485.28 Z" />
</g>
<g target="107">
<path fill="#7f7f7f" fill-opacity="0" d=" M 989.03 180.46 C 997.68 181.08 1006.24 183.47 1014.21 186.86 C 1013.78 192.24 1013.37 197.63 1012.97 203.02 C 1017.32 199.12 1020.55 194.35 1020.89 188.28 C 1023.60 188.98 1026.30 189.72 1029.07 190.17 C 1028.65 192.87 1028.73 195.67 1028.39 198.40 C 1030.19 198.74 1032.02 199.00 1033.86 199.17 C 1034.10 201.26 1034.83 203.43 1035.40 205.49 C 1036.10 203.37 1036.80 201.26 1037.52 199.16 C 1038.02 199.15 1039.02 199.14 1039.52 199.13 C 1040.01 200.77 1040.52 202.41 1041.06 204.04 C 1042.67 203.85 1044.31 203.65 1045.94 203.44 C 1045.72 205.82 1045.51 208.19 1045.32 210.57 C 1051.44 203.09 1061.89 201.76 1070.97 202.47 C 1081.41 204.71 1091.00 210.30 1098.03 218.36 C 1098.75 231.08 1092.13 242.51 1091.20 254.95 C 1099.18 248.16 1095.44 235.37 1101.59 227.55 C 1104.94 225.76 1110.56 227.40 1111.67 231.30 C 1111.89 233.87 1110.88 236.35 1110.26 238.80 C 1108.75 238.65 1107.26 238.49 1105.79 238.34 C 1107.27 240.32 1108.77 242.28 1110.26 244.26 C 1109.56 244.48 1108.17 244.91 1107.48 245.13 C 1112.02 247.17 1116.58 249.29 1120.19 252.85 C 1125.84 258.10 1134.06 258.43 1140.17 262.86 C 1145.54 267.03 1151.13 271.01 1157.44 273.65 C 1154.78 277.56 1151.84 281.28 1148.86 284.94 C 1150.47 286.29 1152.10 287.64 1153.74 288.99 C 1152.18 289.44 1150.62 289.90 1149.08 290.35 C 1151.28 293.49 1153.58 296.54 1155.89 299.62 C 1147.99 299.44 1142.98 306.37 1137.30 310.75 C 1142.22 313.79 1147.75 315.98 1152.06 319.92 C 1159.50 327.44 1165.59 336.13 1171.75 344.70 C 1169.73 347.11 1168.24 349.89 1166.43 352.45 C 1170.05 353.48 1174.05 354.50 1176.55 357.55 C 1182.71 365.37 1189.39 374.04 1199.34 377.03 C 1196.98 383.40 1197.36 390.97 1201.41 396.56 C 1204.07 398.33 1207.50 398.16 1210.57 398.52 C 1210.36 397.57 1210.16 396.62 1209.98 395.69 C 1215.51 398.29 1221.75 398.96 1227.71 397.55 C 1232.54 396.19 1236.34 400.27 1240.01 402.70 C 1239.22 405.19 1238.52 407.70 1237.93 410.25 C 1241.75 409.90 1245.74 409.14 1249.51 410.33 C 1254.34 411.57 1257.60 415.66 1260.86 419.16 C 1263.24 421.75 1263.69 425.47 1265.84 428.20 C 1268.73 430.41 1273.08 429.61 1275.82 432.12 C 1276.87 434.07 1277.00 436.34 1277.56 438.45 C 1278.22 442.20 1281.99 444.09 1284.56 446.50 C 1288.21 449.70 1293.04 450.71 1297.52 452.22 C 1300.23 452.80 1298.99 456.86 1300.36 458.36 C 1301.46 464.27 1301.99 470.44 1305.11 475.74 C 1307.85 480.53 1308.27 486.25 1311.00 491.02 C 1315.33 495.95 1322.82 498.68 1328.95 495.33 C 1328.45 493.34 1327.97 491.35 1327.49 489.36 C 1330.22 488.70 1333.02 488.12 1335.58 486.88 C 1338.42 485.77 1339.05 482.42 1340.21 479.94 C 1342.55 480.87 1344.95 481.63 1347.42 482.19 C 1347.10 483.44 1346.78 484.69 1346.48 485.95 C 1348.33 487.66 1350.20 489.37 1352.11 491.09 C 1351.01 489.14 1349.91 487.20 1348.85 485.25 C 1349.76 485.69 1350.70 486.14 1351.65 486.60 C 1352.85 483.71 1354.64 480.70 1353.55 477.48 C 1351.54 470.26 1354.08 462.64 1351.50 455.50 C 1351.91 455.45 1352.34 455.41 1352.79 455.37 C 1352.83 452.24 1353.05 449.11 1353.49 446.01 C 1360.95 446.49 1368.87 446.51 1375.56 450.30 C 1378.83 452.94 1380.64 457.25 1384.49 459.21 C 1386.84 459.54 1389.21 459.08 1391.57 458.86 C 1391.56 457.29 1391.57 455.71 1391.61 454.15 C 1394.96 455.48 1398.70 456.13 1401.67 458.31 C 1404.90 461.08 1407.46 464.52 1410.57 467.43 C 1414.58 471.46 1419.69 474.22 1423.53 478.46 C 1427.19 482.39 1430.40 487.01 1435.41 489.39 C 1447.03 495.00 1454.42 507.92 1467.91 509.79 C 1467.14 514.07 1468.97 518.01 1471.86 521.08 C 1474.26 518.05 1476.56 514.93 1478.76 511.75 C 1482.64 515.44 1486.77 518.84 1491.00 522.14 C 1491.25 520.56 1491.49 518.98 1491.78 517.41 C 1496.20 520.51 1500.11 524.49 1502.23 529.54 C 1503.52 535.44 1509.34 537.55 1513.59 540.87 C 1512.86 541.11 1511.39 541.59 1510.66 541.83 C 1516.18 549.41 1523.68 555.20 1531.19 560.69 C 1529.20 563.86 1527.04 566.94 1525.38 570.28 C 1522.76 576.30 1524.83 582.70 1525.84 588.82 C 1528.44 588.25 1530.82 587.60 1533.52 587.13 C 1536.28 590.79 1540.32 593.45 1542.53 597.52 C 1544.38 602.99 1543.39 609.13 1545.46 614.60 C 1547.38 619.77 1549.57 624.84 1550.93 630.22 C 1552.65 635.16 1553.09 641.08 1557.52 644.49 C 1559.49 646.46 1563.23 649.00 1561.08 652.13 C 1557.09 658.16 1557.74 665.70 1555.08 672.15 C 1549.52 677.47 1541.94 681.08 1534.12 680.47 C 1530.69 680.00 1527.50 678.71 1524.06 678.52 C 1519.59 679.60 1516.31 683.45 1511.93 684.77 C 1508.55 684.25 1505.57 682.29 1502.45 681.10 C 1500.37 685.94 1499.55 691.17 1500.18 696.40 C 1500.76 702.69 1493.36 705.03 1489.70 708.70 C 1482.00 712.33 1481.15 722.06 1473.41 725.49 C 1464.14 732.01 1452.55 731.75 1441.94 733.99 C 1433.83 737.09 1423.79 733.39 1420.26 725.32 C 1415.13 724.85 1409.37 727.16 1404.66 724.42 C 1403.21 723.62 1400.31 722.01 1398.87 721.21 C 1394.45 722.33 1389.99 723.27 1385.44 722.89 C 1378.59 721.06 1374.65 727.51 1370.21 731.21 C 1365.20 736.18 1358.60 740.39 1351.20 739.36 C 1343.14 738.81 1333.19 738.06 1328.64 730.31 C 1325.00 725.62 1323.24 719.31 1318.65 715.44 C 1311.25 715.59 1303.76 715.85 1296.66 713.32 C 1290.97 711.36 1285.03 714.38 1279.34 712.69 C 1275.63 711.86 1271.97 710.58 1268.18 710.56 C 1264.70 712.40 1266.02 717.10 1264.86 720.34 C 1263.41 724.51 1262.16 729.21 1264.72 733.34 C 1267.91 737.96 1270.73 743.62 1276.78 744.89 C 1279.30 750.96 1279.12 758.53 1274.55 763.59 C 1269.95 768.21 1265.79 773.83 1259.83 776.79 C 1256.39 776.36 1253.29 774.14 1249.73 774.57 C 1245.83 774.92 1241.91 775.48 1238.00 775.62 C 1232.61 776.10 1227.64 779.09 1222.23 779.13 C 1218.75 778.31 1215.19 778.31 1211.69 777.95 C 1206.90 775.25 1204.48 770.22 1201.62 765.83 C 1194.72 766.22 1187.85 767.15 1181.20 769.03 C 1180.15 767.42 1179.11 765.80 1178.12 764.17 C 1175.26 765.93 1171.95 766.70 1168.70 765.57 C 1161.99 769.11 1156.38 774.29 1149.84 778.08 C 1147.78 779.28 1146.55 781.38 1145.11 783.19 C 1142.03 787.40 1137.51 790.25 1133.15 792.96 C 1131.05 799.79 1124.95 804.30 1119.64 808.62 C 1116.59 811.63 1112.05 811.33 1108.14 811.67 C 1103.49 819.12 1095.89 823.67 1087.81 826.54 C 1082.70 821.58 1076.14 818.24 1071.59 812.71 C 1071.60 810.59 1072.18 808.53 1072.52 806.46 C 1069.37 809.99 1066.33 813.62 1063.54 817.44 C 1057.47 816.38 1051.38 815.31 1045.21 815.37 C 1042.50 811.24 1040.22 806.74 1036.68 803.24 C 1033.09 800.52 1028.65 799.40 1024.38 798.31 C 1020.55 790.78 1016.59 781.11 1006.95 780.13 C 1000.39 777.32 994.51 782.34 990.33 786.81 C 983.56 787.83 976.49 785.99 970.09 789.08 C 969.30 786.81 968.54 784.53 967.78 782.27 C 965.93 782.51 964.07 782.75 962.24 783.00 C 962.13 781.27 961.90 777.80 961.79 776.07 C 959.31 775.23 956.86 774.18 954.23 774.02 C 951.91 776.76 951.11 780.37 949.31 783.41 C 947.51 785.53 945.15 787.07 943.05 788.86 C 933.70 774.35 926.26 758.71 916.55 744.42 C 909.88 734.62 904.88 723.16 895.14 715.89 C 890.08 711.86 884.42 708.64 879.46 704.53 C 875.87 701.42 874.69 696.63 873.53 692.23 C 865.46 695.65 858.13 700.40 851.13 705.58 C 845.80 706.62 841.42 710.03 839.18 715.01 C 835.19 713.51 831.09 709.93 826.70 712.76 C 824.77 713.65 823.10 714.99 821.37 716.20 C 819.13 712.19 818.38 707.63 817.52 703.19 C 816.97 699.92 813.74 698.41 811.10 697.07 C 809.99 699.67 808.08 701.72 805.92 703.43 C 804.27 699.53 802.93 695.49 801.56 691.51 C 801.73 693.18 801.94 694.86 802.14 696.55 C 799.90 695.81 797.50 694.13 795.11 695.24 C 791.62 696.75 787.79 696.85 784.06 696.89 C 782.62 692.15 781.17 687.44 779.83 682.69 C 781.35 682.49 782.88 682.26 784.42 682.04 C 783.87 676.65 782.49 671.43 781.37 666.15 C 779.82 665.80 778.27 665.49 776.72 665.18 C 775.79 661.51 774.88 657.82 773.99 654.16 C 775.80 652.74 777.63 651.36 779.46 649.98 C 778.55 648.33 777.64 646.69 776.77 645.04 C 778.58 644.09 780.39 643.12 782.19 642.15 C 780.28 642.21 778.37 642.30 776.47 642.38 C 778.63 641.34 780.84 640.36 783.04 639.39 C 783.03 636.72 782.88 634.05 782.70 631.38 C 783.79 631.08 784.89 630.79 786.00 630.50 C 785.19 629.49 784.38 628.50 783.58 627.51 C 786.26 625.32 788.58 622.51 791.94 621.33 C 794.08 620.34 797.40 619.12 796.79 616.14 C 794.95 611.02 790.80 607.15 788.03 602.58 C 786.41 603.97 784.82 605.37 783.23 606.77 C 781.82 605.38 780.41 604.01 779.02 602.62 C 780.84 601.38 782.67 600.13 784.49 598.89 C 783.31 594.88 781.96 590.63 783.54 586.48 C 784.83 581.39 788.18 577.20 790.85 572.78 C 794.55 575.73 795.81 580.16 795.00 584.75 C 802.29 584.45 809.43 585.81 816.57 586.99 C 824.22 585.80 831.89 584.63 839.60 583.71 C 848.72 580.31 855.42 572.69 861.21 565.17 C 863.61 562.04 862.92 557.64 865.45 554.57 C 868.09 550.36 873.23 548.94 877.81 548.14 C 879.21 538.07 880.79 528.02 884.47 518.49 C 890.91 518.68 897.36 519.06 903.80 518.50 C 907.49 518.35 911.42 518.19 914.78 520.02 C 921.93 523.65 929.66 517.32 936.99 518.42 C 943.31 521.62 950.58 520.53 957.24 522.53 C 959.59 516.95 963.99 511.95 970.20 510.73 C 973.16 510.73 975.86 512.22 978.75 512.74 C 984.80 515.68 989.25 509.77 993.89 507.03 C 998.27 504.31 1001.45 500.24 1004.07 495.88 C 998.22 494.72 992.44 493.06 986.94 490.75 C 983.10 489.46 980.86 484.87 982.38 481.16 C 984.88 474.85 988.61 469.09 990.99 462.74 C 991.91 457.55 987.35 454.03 983.69 451.32 C 985.19 446.88 987.51 442.80 990.94 439.59 C 989.11 434.94 988.32 429.76 985.55 425.55 C 980.30 424.21 974.79 424.11 969.43 423.42 C 968.87 422.23 968.33 421.04 967.80 419.86 C 968.77 417.67 970.86 414.95 968.59 412.82 C 965.19 407.15 956.12 408.40 954.07 401.77 C 952.59 397.56 950.70 393.49 949.64 389.14 C 948.30 382.63 938.42 383.61 937.54 376.82 C 936.78 372.43 933.87 368.94 930.35 366.40 C 932.68 365.56 936.10 365.60 937.05 362.82 C 938.61 359.16 939.66 354.87 938.57 350.96 C 936.18 346.86 933.25 342.92 929.40 340.08 C 926.79 337.92 923.22 340.90 920.51 340.81 C 912.24 342.53 905.17 336.75 899.52 331.48 C 903.33 325.83 909.02 321.43 915.70 319.81 C 915.21 316.76 914.99 313.50 913.31 310.81 C 909.07 307.98 902.02 307.33 900.82 301.36 C 904.77 300.46 907.50 297.48 909.23 293.98 C 903.31 292.89 896.22 293.05 892.55 287.36 C 893.04 282.97 893.58 278.60 894.12 274.23 C 895.16 273.77 896.20 273.31 897.26 272.86 C 899.70 277.51 900.81 282.67 901.39 287.87 C 902.79 288.66 905.59 290.24 906.98 291.03 C 904.14 284.13 904.03 276.55 903.83 269.21 C 908.68 268.40 913.55 267.59 918.36 266.55 C 918.73 264.17 919.12 261.80 919.56 259.45 C 922.27 259.37 924.84 259.26 927.59 259.17 C 927.80 261.54 928.02 263.93 928.28 266.31 C 928.62 259.48 931.34 253.45 935.92 248.51 C 937.15 248.07 938.41 247.63 939.67 247.22 C 939.85 245.50 940.22 242.07 940.41 240.35 C 941.00 241.87 942.18 244.90 942.77 246.42 C 946.42 243.46 948.93 239.58 949.63 234.84 C 949.80 237.48 950.13 240.12 950.60 242.74 C 956.74 235.63 966.85 235.74 973.76 229.95 C 974.16 230.19 974.57 230.43 975.00 230.67 C 977.55 223.39 979.57 215.75 985.10 210.04 C 985.72 210.06 986.98 210.10 987.60 210.12 C 988.30 212.26 989.04 214.38 989.83 216.50 C 993.02 211.39 989.23 205.67 988.83 200.33 C 987.65 193.73 988.51 187.06 989.03 180.46 M 1007.07 208.22 C 1007.13 211.17 1006.81 214.05 1006.95 217.03 C 1008.32 217.00 1009.70 216.97 1011.10 216.94 C 1011.62 213.19 1011.89 209.40 1012.20 205.64 C 1010.50 206.52 1008.80 207.39 1007.07 208.22 M 996.44 211.47 C 998.03 215.38 999.03 219.48 999.74 223.65 C 1000.80 224.09 1001.87 224.53 1002.96 224.98 C 1003.33 222.65 1003.72 220.33 1004.12 218.01 C 1004.73 218.68 1005.35 219.35 1005.99 220.02 C 1005.09 216.24 1004.49 212.39 1003.99 208.54 C 1001.44 209.43 998.92 210.40 996.44 211.47 M 991.97 214.00 C 991.99 216.40 992.01 218.80 992.03 221.20 C 992.51 220.84 993.45 220.12 993.93 219.76 C 993.95 217.84 994.00 215.92 994.08 214.01 C 993.55 214.01 992.50 214.01 991.97 214.00 M 1376.14 609.68 C 1376.63 613.46 1377.60 617.39 1376.17 621.10 C 1374.31 626.35 1375.95 632.16 1373.24 637.20 C 1374.17 636.09 1376.03 633.87 1376.96 632.77 C 1376.24 626.88 1381.88 623.11 1381.55 617.41 C 1380.34 614.46 1378.09 612.13 1376.14 609.68 M 1372.03 653.12 C 1370.24 658.69 1366.84 663.76 1366.83 669.82 C 1373.87 666.00 1376.51 657.87 1381.30 651.91 C 1381.32 646.85 1381.61 641.63 1383.88 637.01 C 1385.18 634.86 1382.75 633.02 1381.94 631.19 C 1380.05 639.17 1373.91 645.18 1372.03 653.12 M 1350.71 693.98 C 1355.49 694.57 1361.66 696.55 1365.31 692.29 C 1370.79 688.56 1367.56 682.04 1367.39 676.82 C 1362.75 683.38 1356.18 688.17 1350.71 693.98 Z" />
<path fill="#7f7f7f" fill-opacity="0" d=" M 940.75 168.97 C 942.75 166.59 945.59 165.09 947.99 163.13 C 951.98 164.77 956.08 166.18 959.92 168.19 C 961.66 169.80 962.67 172.04 964.39 173.69 C 968.35 176.36 973.85 173.16 977.50 176.50 C 980.22 179.74 983.30 182.90 985.23 186.74 C 986.75 193.90 984.95 201.11 983.94 208.20 C 983.17 207.02 982.43 205.84 981.70 204.67 C 976.18 204.62 970.72 203.90 965.22 203.72 C 964.62 207.63 964.00 211.52 963.39 215.43 C 963.22 211.98 963.30 208.57 963.36 205.14 C 960.63 203.05 957.93 200.93 955.37 198.64 C 954.23 200.85 952.51 203.02 951.94 205.43 C 951.01 203.91 950.16 202.36 949.43 200.75 C 946.33 200.60 943.15 200.33 940.10 200.06 C 937.99 189.82 937.41 179.00 940.75 168.97 Z" />
<path fill="#7f7f7f" fill-opacity="0" d=" M 929.00 166.03 C 930.79 165.62 932.56 165.15 934.34 164.63 C 934.42 170.51 936.02 176.85 933.84 182.50 L 929.09 183.74 C 929.01 177.83 928.98 171.93 929.00 166.03 Z" />
<path fill="#7f7f7f" fill-opacity="0" d=" M 887.43 170.63 C 888.98 170.43 890.55 170.49 892.12 170.52 C 892.00 176.23 891.92 181.94 891.72 187.65 C 890.09 187.82 888.47 187.99 886.86 188.16 C 887.06 182.32 886.56 176.42 887.43 170.63 Z" />
<path fill="#7f7f7f" fill-opacity="0" d=" M 876.74 185.71 C 878.85 186.12 880.97 186.55 883.09 186.99 C 882.97 192.60 882.86 198.21 882.70 203.83 C 880.82 203.56 878.96 203.24 877.11 202.94 C 876.90 197.19 876.47 191.45 876.74 185.71 Z" />
<path fill="#7f7f7f" fill-opacity="0" d=" M 958.73 223.68 C 958.49 217.78 958.50 211.72 960.39 206.06 C 960.46 211.95 960.48 218.00 958.73 223.68 Z" />
<path fill="#7f7f7f" fill-opacity="0" d=" M 909.02 210.78 C 909.51 211.17 910.47 211.95 910.95 212.34 C 910.97 217.55 911.00 222.77 911.04 227.99 C 910.52 227.99 909.49 228.00 908.97 228.00 C 908.96 222.26 908.98 216.52 909.02 210.78 Z" />
<path fill="#7f7f7f" fill-opacity="0" d=" M 955.56 222.65 C 955.45 218.55 955.41 214.45 955.44 210.35 C 955.51 214.45 955.55 218.55 955.56 222.65 Z" />
<path fill="#7f7f7f" fill-opacity="0" d=" M 946.01 232.61 C 944.99 225.66 943.19 215.90 950.12 211.29 C 949.70 218.23 953.07 228.13 946.01 232.61 Z" />
<path fill="#7f7f7f" fill-opacity="0" d=" M 951.92 214.00 C 952.37 214.01 953.27 214.04 953.72 214.05 C 954.03 218.45 954.50 222.84 954.99 227.22 C 954.36 226.07 953.79 224.90 953.19 223.74 C 952.97 225.46 952.51 228.89 952.29 230.60 C 952.15 225.06 952.03 219.53 951.92 214.00 Z" />
<path fill="#7f7f7f" fill-opacity="0" d=" M 895.85 253.00 C 896.57 253.01 898.03 253.04 898.76 253.05 C 898.52 258.88 899.95 265.19 897.05 270.58 C 896.14 264.76 896.00 258.86 895.85 253.00 Z" />

<path fill="#7f7f7f" fill-opacity="0" d=" M 908.81 233.92 C 912.25 233.25 915.62 232.53 919.07 231.85 C 918.95 237.37 918.86 242.89 918.71 248.42 C 917.62 248.42 916.54 248.41 915.47 248.42 C 915.11 252.59 914.54 256.76 913.63 260.85 C 912.59 259.77 911.46 258.76 910.72 257.47 C 909.09 249.73 909.21 241.77 908.81 233.92 Z" />
</g>
<g target="106">
<path fill="#3f0000" fill-opacity="0" d=" M 869.12 269.57 C 872.30 270.04 876.41 268.70 878.79 271.26 C 879.08 277.86 879.17 284.46 879.06 291.07 C 877.73 291.02 876.42 290.97 875.11 290.92 C 874.64 289.34 874.18 287.76 873.73 286.18 C 873.10 286.12 871.84 285.98 871.21 285.91 C 870.96 292.95 871.07 300.02 870.34 307.04 C 870.95 307.02 872.17 306.96 872.78 306.94 C 872.93 303.16 873.09 299.38 873.26 295.62 C 877.31 293.99 879.85 290.59 882.06 286.97 C 884.43 283.03 890.34 283.44 892.55 287.36 C 896.22 293.05 903.31 292.89 909.23 293.98 C 907.50 297.48 904.77 300.46 900.82 301.36 C 902.02 307.33 909.07 307.98 913.31 310.81 C 914.99 313.50 915.21 316.76 915.70 319.81 C 909.02 321.43 903.33 325.83 899.52 331.48 C 905.17 336.75 912.24 342.53 920.51 340.81 C 923.22 340.90 926.79 337.92 929.40 340.08 C 933.25 342.92 936.18 346.86 938.57 350.96 C 939.66 354.87 938.61 359.16 937.05 362.82 C 936.10 365.60 932.68 365.56 930.35 366.40 C 933.87 368.94 936.78 372.43 937.54 376.82 C 938.42 383.61 948.30 382.63 949.64 389.14 C 950.70 393.49 952.59 397.56 954.07 401.77 C 956.12 408.40 965.19 407.15 968.59 412.82 C 970.86 414.95 968.77 417.67 967.80 419.86 C 968.33 421.04 968.87 422.23 969.43 423.42 C 974.79 424.11 980.30 424.21 985.55 425.55 C 988.32 429.76 989.11 434.94 990.94 439.59 C 987.51 442.80 985.19 446.88 983.69 451.32 C 987.35 454.03 991.91 457.55 990.99 462.74 C 988.61 469.09 984.88 474.85 982.38 481.16 C 980.86 484.87 983.10 489.46 986.94 490.75 C 992.44 493.06 998.22 494.72 1004.07 495.88 C 1001.45 500.24 998.27 504.31 993.89 507.03 C 989.25 509.77 984.80 515.68 978.75 512.74 C 975.86 512.22 973.16 510.73 970.20 510.73 C 963.99 511.95 959.59 516.95 957.24 522.53 C 950.58 520.53 943.31 521.62 936.99 518.42 C 929.66 517.32 921.93 523.65 914.78 520.02 C 911.42 518.19 907.49 518.35 903.80 518.50 C 897.36 519.06 890.91 518.68 884.47 518.49 C 880.79 528.02 879.21 538.07 877.81 548.14 C 873.23 548.94 868.09 550.36 865.45 554.57 C 862.92 557.64 863.61 562.04 861.21 565.17 C 855.42 572.69 848.72 580.31 839.60 583.71 C 831.89 584.63 824.22 585.80 816.57 586.99 C 809.43 585.81 802.29 584.45 795.00 584.75 C 795.81 580.16 794.55 575.73 790.85 572.78 C 788.18 577.20 784.83 581.39 783.54 586.48 C 781.96 590.63 783.31 594.88 784.49 598.89 C 782.67 600.13 780.84 601.38 779.02 602.62 C 780.41 604.01 781.82 605.38 783.23 606.77 C 784.82 605.37 786.41 603.97 788.03 602.58 C 790.80 607.15 794.95 611.02 796.79 616.14 C 797.40 619.12 794.08 620.34 791.94 621.33 C 788.58 622.51 786.26 625.32 783.58 627.51 C 784.38 628.50 785.19 629.49 786.00 630.50 C 784.89 630.79 783.79 631.08 782.70 631.38 C 782.88 634.05 783.03 636.72 783.04 639.39 C 780.84 640.36 778.63 641.34 776.47 642.38 C 778.37 642.30 780.28 642.21 782.19 642.15 C 780.39 643.12 778.58 644.09 776.77 645.04 C 777.64 646.69 778.55 648.33 779.46 649.98 C 777.63 651.36 775.80 652.74 773.99 654.16 C 774.88 657.82 775.79 661.51 776.72 665.18 C 774.89 666.51 773.05 667.83 771.21 669.15 C 765.72 664.71 759.21 662.26 752.29 661.31 C 752.17 661.90 751.92 663.08 751.80 663.67 C 750.92 663.23 750.05 662.80 749.19 662.38 C 746.23 664.09 743.05 665.39 739.93 666.73 C 738.44 669.79 736.29 672.93 732.12 672.34 C 719.57 674.82 706.92 677.49 694.08 677.58 C 690.00 677.27 686.30 679.43 685.15 683.48 C 669.35 682.12 653.00 684.68 638.09 690.04 C 636.69 689.20 635.30 688.36 633.91 687.54 C 629.07 689.49 624.44 687.01 620.01 685.32 C 618.48 686.21 617.19 687.51 616.30 689.03 C 617.01 692.73 619.10 695.98 619.98 699.63 C 618.67 700.32 617.24 700.69 615.83 701.09 C 621.13 703.84 628.30 709.79 624.43 716.17 C 619.18 714.62 613.87 713.26 608.38 713.04 C 605.97 715.11 603.56 717.17 601.11 719.18 C 601.72 723.07 602.40 726.92 602.98 730.83 C 596.86 733.02 590.62 734.86 584.66 737.47 C 582.06 734.25 579.56 730.95 577.12 727.61 C 579.56 724.76 581.93 721.84 584.06 718.75 C 579.78 717.36 575.64 715.57 571.25 714.65 C 569.16 715.45 567.49 717.00 565.74 718.34 C 564.37 716.26 562.68 714.33 561.82 711.97 C 562.09 707.14 564.10 702.71 566.31 698.51 C 569.36 692.59 569.47 685.60 572.87 679.83 C 576.03 672.88 583.49 669.32 590.55 667.68 C 591.68 663.80 593.63 660.26 596.13 657.10 C 598.05 655.06 597.25 652.23 596.91 649.78 C 592.33 652.39 587.99 655.74 582.63 656.55 C 576.40 657.56 570.01 656.97 563.89 658.71 C 562.55 652.67 556.11 647.78 558.27 641.20 C 559.06 637.98 562.16 635.61 565.17 634.58 C 568.32 634.37 571.13 636.23 573.99 637.29 C 572.48 640.21 571.06 643.17 569.78 646.20 C 571.93 644.05 574.00 641.81 576.06 639.58 C 577.43 641.77 578.75 643.99 580.09 646.21 C 581.11 646.02 582.14 645.83 583.17 645.64 C 583.22 643.55 583.00 641.42 583.51 639.37 C 588.96 637.45 594.72 636.44 600.03 633.99 C 598.62 631.30 596.79 628.70 596.16 625.70 C 597.02 622.69 599.27 620.30 601.01 617.76 C 595.04 617.45 589.17 616.41 583.27 615.63 C 580.33 615.02 577.07 614.58 574.72 612.56 C 573.64 606.27 577.67 600.51 577.87 594.26 C 582.23 593.90 587.11 593.57 590.59 590.65 C 592.32 585.90 592.15 579.90 596.52 576.51 C 598.50 575.68 600.71 575.98 602.82 575.92 C 602.73 577.37 602.66 578.83 602.59 580.29 C 604.94 578.35 607.30 576.42 609.66 574.49 C 609.07 572.27 606.63 569.67 608.41 567.47 C 612.79 562.95 619.79 562.42 624.29 558.07 C 625.93 555.38 623.02 552.90 622.82 550.27 C 623.26 547.93 624.40 545.80 625.36 543.64 C 623.52 540.24 621.09 537.11 620.17 533.31 C 623.45 528.55 628.41 525.45 632.51 521.50 C 636.19 517.48 639.27 512.93 642.58 508.60 C 645.97 504.11 644.09 497.96 646.90 493.24 C 648.36 490.66 649.98 488.15 651.09 485.39 C 653.33 478.25 658.93 472.52 659.89 464.95 C 660.72 461.34 660.74 457.53 662.13 454.07 C 665.84 446.24 671.90 439.85 676.24 432.44 C 677.54 426.05 680.03 419.18 686.25 416.04 C 689.47 413.77 693.01 418.09 696.34 416.45 C 701.65 413.21 705.74 408.18 711.32 405.30 C 714.98 403.34 719.25 402.91 722.91 400.94 C 727.21 397.66 730.63 393.28 735.16 390.28 C 742.06 386.57 750.89 386.36 756.48 380.32 C 760.02 376.41 764.91 374.26 769.64 372.18 C 769.14 371.24 768.64 370.30 768.16 369.37 C 769.05 369.37 769.95 369.37 770.85 369.38 C 770.81 367.38 770.77 365.38 770.76 363.39 C 768.33 363.38 765.91 363.35 763.49 363.29 C 764.66 358.55 768.24 354.92 769.72 350.35 C 770.53 346.34 765.24 345.97 762.68 344.68 C 764.11 342.34 765.61 340.05 767.13 337.77 C 774.69 341.34 781.81 345.71 789.08 349.83 C 788.29 344.90 787.33 339.98 787.40 334.97 C 787.88 328.74 790.44 322.87 790.42 316.57 C 788.88 308.68 796.51 303.89 802.86 301.67 C 813.86 298.59 814.91 285.41 821.88 277.94 C 823.46 278.10 825.05 278.30 826.65 278.47 C 827.69 275.44 828.91 272.47 830.07 269.48 C 832.54 270.69 837.33 268.79 839.22 271.75 C 840.63 274.18 840.80 277.03 841.62 279.71 C 843.90 280.71 846.20 281.69 848.50 282.68 C 849.77 289.21 849.92 296.00 848.34 302.49 C 851.40 298.91 854.98 295.72 859.61 294.39 C 859.29 288.02 859.10 281.66 859.02 275.29 C 862.93 276.18 865.74 278.99 868.63 281.49 C 868.75 278.51 869.00 272.55 869.12 269.57 M 844.16 333.13 C 842.60 339.36 838.34 347.76 844.45 352.54 C 849.52 356.45 848.55 363.41 848.34 369.07 C 846.22 373.12 842.65 376.53 842.84 381.51 C 842.26 385.45 837.75 386.88 835.32 389.45 C 835.25 390.16 835.10 391.57 835.02 392.28 C 839.03 390.00 843.48 388.18 846.74 384.83 C 849.67 380.68 852.57 376.45 855.14 372.06 C 856.10 366.59 854.05 361.26 851.82 356.36 C 850.03 350.42 849.44 344.12 849.24 337.95 C 849.06 332.69 851.68 328.07 852.65 323.06 C 851.67 321.23 850.06 319.86 848.67 318.37 C 847.96 314.39 847.39 310.43 846.63 306.49 C 841.75 314.69 847.59 324.52 844.16 333.13 M 791.15 325.40 C 790.29 329.38 795.14 324.58 791.15 325.40 M 793.77 347.57 C 793.11 348.99 792.48 350.43 791.83 351.86 C 790.53 351.62 789.24 351.38 787.96 351.15 C 790.75 354.07 793.57 357.01 796.24 360.06 C 797.17 357.75 799.04 355.44 798.41 352.81 C 798.20 350.17 795.62 348.98 793.77 347.57 M 885.68 371.58 C 885.75 368.21 885.45 364.75 885.32 361.42 C 885.33 364.83 885.32 368.15 885.68 371.58 Z" />
</g>
<g target="105">
<path fill="#00007f" fill-opacity="0" d=" M 501.89 472.68 C 506.18 475.14 511.81 479.21 510.23 484.98 C 507.94 492.65 501.04 497.81 497.49 504.84 C 502.98 508.20 504.27 514.93 504.30 520.88 C 507.56 517.72 509.92 513.75 513.30 510.70 C 516.20 508.03 520.37 508.18 524.02 507.58 C 527.48 507.19 530.65 505.69 533.78 504.26 C 534.39 505.45 535.00 506.64 535.63 507.84 C 540.80 504.56 546.19 501.55 552.22 500.22 C 550.68 498.28 549.14 496.33 547.56 494.43 C 548.40 493.08 550.09 490.38 550.93 489.03 C 557.62 489.75 564.04 487.19 570.70 487.24 C 570.29 488.87 569.89 490.52 569.50 492.17 C 575.78 490.73 581.74 493.25 587.85 493.89 C 593.58 491.86 599.39 490.03 605.41 489.02 C 610.80 488.26 615.36 483.53 621.08 485.10 C 630.95 487.25 641.31 489.20 651.09 485.39 C 649.98 488.15 648.36 490.66 646.90 493.24 C 644.09 497.96 645.97 504.11 642.58 508.60 C 639.27 512.93 636.19 517.48 632.51 521.50 C 628.41 525.45 623.45 528.55 620.17 533.31 C 621.09 537.11 623.52 540.24 625.36 543.64 C 624.40 545.80 623.26 547.93 622.82 550.27 C 623.02 552.90 625.93 555.38 624.29 558.07 C 619.79 562.42 612.79 562.95 608.41 567.47 C 606.63 569.67 609.07 572.27 609.66 574.49 C 607.30 576.42 604.94 578.35 602.59 580.29 C 602.66 578.83 602.73 577.37 602.82 575.92 C 600.71 575.98 598.50 575.68 596.52 576.51 C 592.15 579.90 592.32 585.90 590.59 590.65 C 587.11 593.57 582.23 593.90 577.87 594.26 C 577.67 600.51 573.64 606.27 574.72 612.56 C 577.07 614.58 580.33 615.02 583.27 615.63 C 589.17 616.41 595.04 617.45 601.01 617.76 C 599.27 620.30 597.02 622.69 596.16 625.70 C 596.79 628.70 598.62 631.30 600.03 633.99 C 594.72 636.44 588.96 637.45 583.51 639.37 C 583.00 641.42 583.22 643.55 583.17 645.64 C 582.14 645.83 581.11 646.02 580.09 646.21 C 578.75 643.99 577.43 641.77 576.06 639.58 C 574.00 641.81 571.93 644.05 569.78 646.20 C 571.06 643.17 572.48 640.21 573.99 637.29 C 571.13 636.23 568.32 634.37 565.17 634.58 C 562.16 635.61 559.06 637.98 558.27 641.20 C 556.11 647.78 562.55 652.67 563.89 658.71 C 570.01 656.97 576.40 657.56 582.63 656.55 C 587.99 655.74 592.33 652.39 596.91 649.78 C 597.25 652.23 598.05 655.06 596.13 657.10 C 593.63 660.26 591.68 663.80 590.55 667.68 C 583.49 669.32 576.03 672.88 572.87 679.83 C 569.47 685.60 569.36 692.59 566.31 698.51 C 564.10 702.71 562.09 707.14 561.82 711.97 C 562.68 714.33 564.37 716.26 565.74 718.34 C 567.49 717.00 569.16 715.45 571.25 714.65 C 575.64 715.57 579.78 717.36 584.06 718.75 C 581.93 721.84 579.56 724.76 577.12 727.61 C 579.56 730.95 582.06 734.25 584.66 737.47 C 589.12 743.64 595.54 747.85 600.93 753.10 C 604.02 755.31 605.45 759.82 603.24 763.11 C 600.92 766.92 600.29 773.10 594.96 773.99 C 592.72 774.29 588.25 774.88 586.01 775.18 C 580.46 776.99 576.80 772.74 573.53 769.30 C 570.54 771.92 568.16 775.89 564.03 776.85 C 553.96 771.65 546.95 762.60 539.27 754.59 C 537.65 756.23 536.13 758.00 534.30 759.42 C 529.12 760.35 526.64 754.37 521.89 753.85 C 516.74 753.72 511.64 755.42 507.47 758.42 C 504.47 759.96 501.81 763.12 498.20 762.93 C 493.31 759.50 489.04 755.31 484.40 751.59 C 483.78 754.17 483.18 756.77 482.64 759.38 C 477.92 760.62 474.27 756.77 471.41 753.55 C 469.17 750.55 472.77 747.12 472.07 743.85 C 470.56 738.06 467.36 732.16 461.87 729.34 C 457.61 727.14 453.69 724.34 449.83 721.52 C 447.46 722.64 444.89 725.59 442.15 723.84 C 437.98 722.17 434.67 717.46 429.67 718.84 C 422.95 722.98 415.40 727.13 407.24 726.53 C 403.58 733.17 395.77 734.04 389.37 736.57 C 386.57 741.14 386.89 746.87 385.74 751.97 C 382.41 753.20 378.57 756.09 375.05 753.98 C 371.11 751.30 364.74 748.76 365.11 742.94 C 364.46 738.80 365.86 733.19 361.92 730.22 C 357.84 726.94 355.09 722.50 353.09 717.71 C 350.13 718.57 347.13 719.29 344.10 719.89 C 344.32 716.31 343.46 712.78 341.13 709.99 C 340.38 711.82 339.66 713.67 338.96 715.53 C 336.57 715.06 334.18 714.60 331.78 714.17 C 334.29 709.49 339.14 704.14 336.45 698.57 C 330.82 692.78 321.84 692.93 314.32 693.41 C 313.11 690.89 311.95 688.35 310.76 685.83 C 311.74 681.93 310.85 677.79 311.98 673.96 C 316.64 667.73 323.37 663.35 328.91 657.95 C 331.27 655.57 334.52 653.47 335.28 650.01 C 335.96 641.56 332.40 632.94 334.86 624.62 C 337.76 620.35 342.95 618.23 345.56 613.64 C 347.07 613.86 348.58 614.10 350.09 614.36 C 350.20 613.77 350.31 613.19 350.43 612.61 C 349.34 611.83 348.25 611.06 347.18 610.28 C 350.34 608.74 354.01 607.09 355.26 603.50 C 356.50 599.70 357.86 595.94 359.53 592.31 C 358.15 592.20 356.77 592.09 355.39 591.97 C 355.08 590.61 354.76 589.26 354.44 587.92 C 360.29 583.30 364.71 576.79 371.64 573.61 C 375.28 571.13 380.87 570.15 382.49 565.48 C 383.99 561.24 387.44 558.22 390.49 555.08 C 393.49 551.81 398.41 552.48 402.20 550.99 C 405.33 548.29 407.00 543.63 411.34 542.50 C 415.45 541.70 419.82 541.85 423.67 539.94 C 428.06 538.30 431.09 534.60 433.85 530.99 C 436.47 532.88 439.01 534.87 441.44 537.00 C 444.43 536.13 447.46 535.41 450.41 534.39 C 455.01 532.04 457.83 527.17 462.72 525.27 C 467.42 523.05 472.88 522.30 477.07 519.10 C 477.62 513.84 476.51 508.13 480.10 503.62 C 482.14 499.64 484.30 495.71 486.82 492.01 C 484.83 492.76 482.83 493.50 480.84 494.24 C 480.74 492.28 480.65 490.32 480.57 488.37 C 482.29 488.72 484.02 489.07 485.75 489.42 C 490.86 483.58 496.67 478.41 501.89 472.68 Z" />
</g>
<g target="101">
<path fill="#7f0000" fill-opacity="0" d=" M 350.16 491.23 C 356.01 492.07 361.22 488.86 366.46 486.84 C 366.42 490.07 365.55 493.44 366.55 496.59 C 368.50 500.48 372.23 503.03 375.20 506.09 C 372.70 501.92 369.94 497.90 367.81 493.52 C 371.11 495.52 374.09 497.98 376.91 500.61 C 376.90 498.92 376.90 497.24 376.93 495.56 C 380.63 495.34 384.23 494.31 387.38 492.29 C 390.40 495.24 391.88 499.18 392.25 503.33 C 392.46 506.99 396.95 507.65 399.84 507.61 C 403.67 506.32 405.58 502.26 408.99 500.30 C 411.99 499.01 415.49 499.62 418.49 498.35 C 420.49 497.03 421.88 495.02 423.46 493.26 C 425.25 496.30 427.65 499.48 431.29 500.33 C 435.41 501.29 439.42 502.72 443.07 504.90 C 448.19 508.05 454.26 508.94 460.17 509.24 C 465.06 509.13 468.71 505.42 472.93 503.47 C 475.27 502.84 477.73 503.46 480.10 503.62 C 476.51 508.13 477.62 513.84 477.07 519.10 C 472.88 522.30 467.42 523.05 462.72 525.27 C 457.83 527.17 455.01 532.04 450.41 534.39 C 447.46 535.41 444.43 536.13 441.44 537.00 C 439.01 534.87 436.47 532.88 433.85 530.99 C 431.09 534.60 428.06 538.30 423.67 539.94 C 419.82 541.85 415.45 541.70 411.34 542.50 C 407.00 543.63 405.33 548.29 402.20 550.99 C 398.41 552.48 393.49 551.81 390.49 555.08 C 387.44 558.22 383.99 561.24 382.49 565.48 C 380.87 570.15 375.28 571.13 371.64 573.61 C 364.71 576.79 360.29 583.30 354.44 587.92 C 354.76 589.26 355.08 590.61 355.39 591.97 C 356.77 592.09 358.15 592.20 359.53 592.31 C 357.86 595.94 356.50 599.70 355.26 603.50 C 354.01 607.09 350.34 608.74 347.18 610.28 C 348.25 611.06 349.34 611.83 350.43 612.61 C 350.31 613.19 350.20 613.77 350.09 614.36 C 348.58 614.10 347.07 613.86 345.56 613.64 C 342.95 618.23 337.76 620.35 334.86 624.62 C 332.40 632.94 335.96 641.56 335.28 650.01 C 334.52 653.47 331.27 655.57 328.91 657.95 C 323.37 663.35 316.64 667.73 311.98 673.96 C 310.85 677.79 311.74 681.93 310.76 685.83 C 305.87 685.79 301.08 684.66 296.22 684.42 C 291.83 685.24 287.26 686.62 283.71 689.41 C 282.05 693.69 282.54 699.34 278.64 702.58 C 274.24 706.29 269.26 709.22 264.71 712.74 C 260.88 715.78 255.72 714.42 251.39 713.51 C 247.61 712.94 246.85 708.88 245.50 705.99 C 242.55 700.71 237.25 697.30 233.24 692.95 C 231.93 689.92 231.38 686.68 230.50 683.53 C 223.70 679.26 217.39 674.09 212.44 667.75 C 213.14 661.35 218.67 656.67 219.61 650.29 C 219.96 645.85 215.65 643.17 213.11 640.16 C 215.62 635.57 218.68 631.31 222.67 627.90 C 223.88 624.34 224.21 620.46 225.78 616.98 C 225.43 616.83 224.73 616.51 224.38 616.35 C 220.98 618.10 216.52 619.48 213.28 616.75 C 210.38 613.92 203.62 612.19 204.35 607.03 C 205.81 601.15 210.33 596.64 212.74 591.16 C 214.34 588.13 215.05 584.03 218.35 582.25 C 223.56 580.92 227.14 588.37 232.09 585.22 C 235.66 584.23 235.15 579.76 236.08 576.80 C 236.96 574.08 234.44 572.01 233.21 569.89 C 234.67 568.53 236.13 567.17 237.59 565.82 C 237.79 562.19 237.31 558.35 239.01 555.03 C 240.81 551.37 242.81 547.71 242.78 543.46 C 248.97 539.74 252.57 533.31 256.97 527.82 C 261.56 527.26 266.66 526.79 269.39 522.36 C 274.89 518.59 274.21 511.68 276.43 506.21 C 277.34 504.10 279.48 501.66 282.03 502.51 C 289.15 504.95 296.29 501.25 303.41 500.69 C 309.73 500.35 315.44 497.17 320.19 493.18 C 322.64 491.22 325.28 488.65 328.66 488.92 C 330.33 490.12 331.61 491.78 332.99 493.30 C 338.60 491.97 344.35 490.47 350.16 491.23 Z" />
</g>
<g target="103">
<path fill="#7f7f00" fill-opacity="0" d=" M 283.71 689.41 C 287.26 686.62 291.83 685.24 296.22 684.42 C 301.08 684.66 305.87 685.79 310.76 685.83 C 311.95 688.35 313.11 690.89 314.32 693.41 C 321.84 692.93 330.82 692.78 336.45 698.57 C 339.14 704.14 334.29 709.49 331.78 714.17 C 334.18 714.60 336.57 715.06 338.96 715.53 C 339.66 713.67 340.38 711.82 341.13 709.99 C 343.46 712.78 344.32 716.31 344.10 719.89 C 347.13 719.29 350.13 718.57 353.09 717.71 C 355.09 722.50 357.84 726.94 361.92 730.22 C 365.86 733.19 364.46 738.80 365.11 742.94 C 357.89 746.18 350.84 751.10 347.83 758.70 C 347.37 761.10 348.43 763.48 348.85 765.83 C 342.59 770.41 335.87 775.13 332.74 782.51 C 334.81 785.35 337.59 788.07 336.97 792.05 C 336.78 795.16 334.74 797.72 333.58 800.53 C 337.92 802.85 342.13 805.41 346.31 808.02 C 346.19 812.66 348.08 816.83 349.79 820.98 C 350.26 826.88 349.30 832.84 349.58 838.79 C 348.97 839.53 348.36 840.28 347.76 841.05 C 345.10 840.33 342.45 839.58 339.79 838.90 C 342.30 844.28 345.25 849.42 348.40 854.44 C 344.20 858.20 339.63 861.54 335.62 865.51 C 331.80 864.08 327.70 864.32 324.68 867.31 C 321.63 866.82 318.51 866.06 315.42 866.61 C 310.03 871.53 306.89 878.66 300.35 882.42 C 298.53 884.08 296.06 883.70 293.98 882.85 C 288.07 880.54 281.34 879.06 277.03 874.05 C 273.83 870.31 269.68 867.50 266.51 863.78 C 263.42 858.54 260.39 853.21 256.32 848.64 C 251.94 843.98 252.87 836.95 250.28 831.43 C 246.89 826.33 243.13 821.44 240.51 815.87 C 236.90 817.56 233.15 818.99 229.24 819.87 C 229.59 817.64 229.93 815.43 230.29 813.22 C 228.79 814.63 227.29 816.05 225.87 817.55 C 222.09 814.32 217.46 812.42 212.70 811.21 C 212.50 813.42 212.32 815.64 212.13 817.86 C 209.10 817.93 206.08 817.90 203.06 817.92 C 202.89 823.12 202.14 828.69 204.59 833.53 C 204.79 836.91 205.24 840.27 206.17 843.53 C 204.56 845.29 202.91 847.01 201.25 848.73 C 202.11 856.48 198.18 863.79 191.72 867.89 C 189.87 865.27 188.58 861.55 185.23 860.55 C 179.52 863.81 175.33 869.54 173.86 875.95 C 169.94 874.88 166.05 873.84 162.15 872.76 C 161.44 865.16 160.99 857.53 160.05 849.97 C 159.35 842.21 154.22 835.75 152.94 828.12 C 152.41 825.11 150.51 822.70 148.61 820.44 C 148.93 813.75 148.64 806.99 144.15 801.57 C 146.08 801.69 148.01 801.84 149.94 801.99 C 148.91 800.50 147.87 799.03 146.86 797.55 C 151.40 796.93 155.83 798.21 159.96 800.01 C 165.77 794.95 172.30 790.82 178.76 786.67 C 180.34 781.89 178.51 776.79 178.66 771.85 C 187.23 774.93 195.99 771.09 204.75 771.11 C 200.82 768.10 196.56 765.54 192.98 762.11 C 194.92 759.13 196.54 755.77 199.43 753.58 C 203.12 751.69 207.14 750.52 210.91 748.79 C 214.54 750.21 218.04 752.23 221.93 752.88 C 228.22 748.96 231.73 741.99 232.12 734.73 C 232.14 731.24 235.59 730.08 238.38 729.24 C 237.78 727.60 237.22 725.94 236.68 724.30 C 239.90 723.59 243.43 723.19 246.07 721.05 C 248.08 718.71 249.67 716.05 251.39 713.51 C 255.72 714.42 260.88 715.78 264.71 712.74 C 269.26 709.22 274.24 706.29 278.64 702.58 C 282.54 699.34 282.05 693.69 283.71 689.41 Z" />
</g>
<g target="104">
<path fill="#7f007f" fill-opacity="0" d=" M 212.70 811.21 C 217.46 812.42 222.09 814.32 225.87 817.55 C 227.29 816.05 228.79 814.63 230.29 813.22 C 229.93 815.43 229.59 817.64 229.24 819.87 C 233.15 818.99 236.90 817.56 240.51 815.87 C 243.13 821.44 246.89 826.33 250.28 831.43 C 252.87 836.95 251.94 843.98 256.32 848.64 C 260.39 853.21 263.42 858.54 266.51 863.78 C 269.68 867.50 273.83 870.31 277.03 874.05 C 281.34 879.06 288.07 880.54 293.98 882.85 C 292.35 885.29 288.96 887.79 290.12 891.07 C 291.98 897.13 292.64 903.47 292.57 909.80 C 294.11 910.77 295.66 911.75 297.19 912.76 C 293.46 916.54 290.17 920.74 288.42 925.84 C 287.15 929.05 284.45 931.60 283.69 935.02 C 283.22 948.55 285.89 961.93 287.38 975.33 C 282.77 981.73 274.87 983.65 269.04 988.54 C 263.14 988.28 256.40 988.24 251.52 984.46 C 247.66 981.22 248.45 975.66 246.99 971.26 C 245.69 959.48 233.54 953.53 230.65 942.49 C 232.66 940.74 234.60 938.92 236.49 937.05 C 232.95 934.39 230.04 931.11 227.46 927.56 C 220.37 925.18 212.67 924.36 206.04 920.64 C 206.68 918.23 208.74 915.43 206.98 913.05 C 204.30 909.11 201.13 905.43 200.03 900.62 C 195.86 893.38 186.27 892.20 181.44 885.63 C 179.02 882.31 176.53 879.06 173.86 875.95 C 175.33 869.54 179.52 863.81 185.23 860.55 C 188.58 861.55 189.87 865.27 191.72 867.89 C 198.18 863.79 202.11 856.48 201.25 848.73 C 202.91 847.01 204.56 845.29 206.17 843.53 C 205.24 840.27 204.79 836.91 204.59 833.53 C 202.14 828.69 202.89 823.12 203.06 817.92 C 206.08 817.90 209.10 817.93 212.13 817.86 C 212.32 815.64 212.50 813.42 212.70 811.21 Z" />
</g>
</svg>
