<?xml version="1.0" encoding="utf-8"?>
<!-- Generator: Adobe Illustrator 16.0.0, SVG Export Plug-In . SVG Version: 6.00 Build 0)  -->
<!DOCTYPE svg PUBLIC "-//W3C//DTD SVG 1.1//EN" "http://www.w3.org/Graphics/SVG/1.1/DTD/svg11.dtd">
<svg version="1.1" id="Layer_1" xmlns="http://www.w3.org/2000/svg" xmlns:xlink="http://www.w3.org/1999/xlink" x="0px" y="0px"
	 width="960px" height="540px" viewBox="0 0 960 540" enable-background="new 0 0 960 540" xml:space="preserve">
<g target="46">
	<path fill-opacity="1" fill="#000000" d="M648.08,61.07c5.05,0.88,9.75-1.59,14.76-0.99c1.95,3.2-1.38,10.22,5.97,7.02c0.2,1.63,0.65,3.2,1.44,4.66
		c3.04,1.11,6.06,2.23,8.48,4.48c1.47,2.3,1.33,5.07,1.26,7.74c-0.95,2.59-3.271,4.73-2.08,7.93c-7.31-3.79-3.29,2.27-6.09,3.92
		c-1.25,0.12-2.5,0.2-3.75,0.26c-0.05,1.27-0.1,2.53-0.15,3.8c-3.72-0.14-9.36,1.76-7.07,7.07c-1.21,3.53-1.72,7.24-1.94,10.96
		c-4.29,0.08-8.5,0.87-12.75,1.23c-0.98,1.13-1.4,2.6-2.32,3.76c-3.77,0.4-5.39-5.27-9.79-3.06c-2.55-0.7-6.2-2.2-7.82,0.37
		c-0.17,3.35-1.19,6.54-2.41,9.61c-1.59,0.36-3.65-0.28-4.61,1.38c-1.73,1.05-0.7,3.52-2.39,4.59c-1.2,0.13-2.39,0.28-3.57,0.47
		c-1.91,2.06-4.72,3.41-7.55,2.51c0.35-2.89,1.15-5.72,1.25-8.63c-1.05-0.85-2.38-1.09-3.61-1.49c-0.33-1.76-1.03-3.66-3-4.07
		c-3.54-2.05-6.54,0.44-9.14,2.36c-0.71-1.84-0.32-5.65-3.26-4.97c-0.12,2.57,2.57,6-0.17,7.89c-3.01,1.1-5.88,0.54-7.33-2.05
		c0.48-2.61-0.36-5.27-0.5-7.84c-3.4-0.75-5.07,4.16-8.95,2.01c-0.41,0.06-1.24,0.18-1.66,0.24c-0.63,3.5-5.42,1.77-7.94,1.46
		c-2.2-3.8-7.8-3.3-11.43-3.71c1.76,1.92,3.84,6.21,0.78,7.75c-3.57-0.11-6.96,0.69-10.34,1.64c-0.79,1.21-1.6,2.41-2.59,3.45
		c-2.59-0.12-5.2-1.08-7.75-0.7c-1.99,0.6-3.92,1.39-5.91,1.96c-2.47-2.2-2.7-5.7-1.92-8.77c1.78-1.12,3.54-2.33,5.71-2.54
		c-0.93-1.34-2.63-2.68-1.53-4.46c0.8-1.63-0.02-3.31-0.2-4.96c0.89-0.44,1.73-0.96,2.53-1.56c0.18-1.13,0.39-2.27,0.63-3.39
		c0.87-0.76,2.3-1.17,2.55-2.45c0.73-2.77,3.45-4.22,5.91-5.26c-0.03-0.35-0.1-1.06-0.13-1.41c-1.6-1.75-2.92-3.76-4.85-5.15
		c-0.21-1.52,0.43-2.32,1.93-2.42c3.08-2.58,1.75-6.97,2.4-10.52c0.75-1.63,2.31-0.9,3.61-0.57c2.74-0.9,5.05-2.99,8.12-2.81
		c0.98-0.49,2.96-1.49,3.94-1.98c1.07-1.55-1.48-7.57,2.18-7.82c1.97-0.63,2.88,1.31,3.18,2.9c3.07,0.79,5.57-1.92,8.78-0.89
		c1.84-0.28,1.479,2.58,3.03,3c1.14,0.4,1.7,1.81,2.98,1.89c1.86-0.72,4.01-0.93,5.25-2.68c1.95-0.97,3.54,1.4,5.55,0.71
		c-0.11-1.88,1.62-2.24,3-2.85c0.2,1.06,0.65,2,1.34,2.83c1.87-0.74,3.53-2.37,5.7-1.89c0.09,0.47,0.25,1.41,0.33,1.89
		c9.31-0.35,18.32,2.88,27.66,2.02c0.1-0.46,0.28-1.38,0.37-1.83c6.14-1.23,12.41-0.89,18.63-1.25c2.72-1.68-1.13-7.58,5.99-4.01
		C647.74,65.71,648.16,63.45,648.08,61.07z"/>
</g>
<g target="76">
	<path fill-opacity="1" fill="#000000" d="M485.04,82.01c2.64-0.14,5.28-0.11,7.93,0.09c4.1,1.61,8.44,2.52,12.8,3.09c0.5,3.25,5.07,2.85,7.11,4.87
		c0.07,0.69,0.2,2.06,0.27,2.75c1.29,0.26,2.57,0.64,3.85,0.99c0.97-0.37,2.01-0.39,2.99,0.02c3.229-0.96,6.91-1.41,10.06,0.02
		c0.7,0.07,2.1,0.22,2.8,0.29c1.93,1.39,3.25,3.4,4.85,5.15c0.03,0.35,0.1,1.06,0.13,1.41c-2.46,1.04-5.18,2.49-5.91,5.26
		c-0.25,1.28-1.68,1.69-2.55,2.45c-0.24,1.12-0.45,2.26-0.63,3.39c-0.8,0.6-1.64,1.12-2.53,1.56c0.18,1.65,1,3.33,0.2,4.96
		c-1.1,1.78,0.6,3.12,1.53,4.46c-2.17,0.21-3.93,1.42-5.71,2.54c-0.78,3.07-0.55,6.57,1.92,8.77c-2.1,1.11-4.98-0.41-6.95-0.05
		c0.14,0.47,0.42,1.39,0.56,1.85c-2.17,2.15-5.74,1.05-8.32,2.51c-0.76,2.04-3.26,1.27-4.75,2.3c-1.33,0.61-2.25,1.78-3.37,2.68
		c0.04,0.82,0.14,1.64,0.28,2.46c-1.44,1.46-3.52,2.41-4.55,4.19c0.22,0.48,0.65,1.44,0.86,1.92c-2.05,1.46-1.72,3.8-1.02,5.88
		c-1.26,0.34-2.47,1.37-3.82,0.95c-2.88-0.87-5.89,0.15-8.79,0.12c-0.14-0.45-0.43-1.34-0.57-1.79c-3-0.36-5.49,2.13-8.49,1.87
		c0.04-2.12-0.96-3.92-3.12-4.43c-0.97-0.91-1.94-1.82-2.96-2.67c-2.3-1.9-2.42-4.94-3.07-7.63c1.3-0.33,2.79-0.31,3.78-1.36
		c-0.57-2.12-1.53-4.05-2.8-5.82c0.42-1.82,3.84-1.83,3.77-3.89c-1.81-2.86-5.12,0.96-7.51-0.48c-1.29-1.07-2.55-2.16-3.91-3.13
		c-0.14-1.35-0.43-4.04-0.57-5.38c-0.94-0.97-2.28-1.13-3.49-1.52c-0.33-1.73-1.04-3.37-2.61-4.32c-1.57-0.5-3.14-0.98-4.69-1.53
		c0.64-1.52,1.65-2.8,3.04-3.69c-0.8-0.05-2.4-0.15-3.19-0.2l0.42-0.64c2.63-0.3,4.23-2.51,6.49-3.61c-0.65-1.14-1.44-2.2-2.14-3.31
		c-1.86-0.42-3.73-0.79-5.5-1.5c-0.33-1.67,2.62-1.36,2.67-2.99c0.07-2.17,2.48-2.46,4.13-2.93c6.25,1.62-2.89-12.35,6.78-6.46
		c1.41,0.22,2.7-0.69,4.14-0.49c0.5,4.29,1.22,8.56,1.19,12.92c0.72,0.04,2.16,0.14,2.88,0.19c0.02,1.72,0.07,5.17,0.09,6.89
		c0.47,0,1.4-0.01,1.87-0.01c0.05-0.72,0.14-2.16,0.19-2.88c0.72-0.05,2.15-0.15,2.87-0.2c-0.18-4.56,0.66-9.23-0.53-13.69
		c0.17-1.5,0.5-4.52,0.67-6.02c2.09-0.12,4.16-1.93,6.21-0.62l4.62,0.44C484.97,86.51,485.02,83.51,485.04,82.01z"/>
</g>
<g target="70">
	<path fill-opacity="1" fill="#000000" d="M436.29,86.25c2.27-1.49,4.98-1.24,7.64-1.26C440.18,92.3,448.9,88.5,450,93c0.5,2.48,4.87,1.92,3.96,4.94
		c-1.65,0.47-4.06,0.76-4.13,2.93c-0.05,1.63-3,1.32-2.67,2.99c1.77,0.71,3.64,1.08,5.5,1.5c0.7,1.11,1.49,2.17,2.14,3.31
		c-2.26,1.1-3.86,3.31-6.49,3.61l-0.42,0.64c0.79,0.05,2.39,0.15,3.19,0.2c-1.39,0.89-2.4,2.17-3.04,3.69
		c1.55,0.55,3.12,1.03,4.69,1.53c1.57,0.95,2.28,2.59,2.61,4.32c1.21,0.39,2.55,0.55,3.49,1.52c0.14,1.34,0.43,4.03,0.57,5.38
		c1.36,0.97,2.62,2.06,3.91,3.13c2.39,1.44,5.7-2.38,7.51,0.48c0.07,2.06-3.35,2.07-3.77,3.89c1.27,1.77,2.23,3.7,2.8,5.82
		c-0.99,1.05-2.48,1.03-3.78,1.36c0.65,2.69,0.77,5.73,3.07,7.63c-1.48,0-4.45-0.01-5.93-0.01c-1.16-2.16-2.73-4.11-5.18-4.89
		c-2.38-2.04-5.23-0.37-7.71,0.31c-0.39,1.23-0.46,2.63-1.52,3.5c-3.48,0.7-7.03,0.93-10.53,1.32c0.17,1.47,0.5,4.4,0.67,5.87
		c0.19,1.82-2.31,2.58-3.63,1.68c-1.58-0.51-3.28-2.4-4.97-1.28c-5.07,4.1-12.04,3.93-17.94,6.18c-2.91,2.16-6.75,0.49-10.06,0.19
		c-1.23-2.01-2.1-5.44-5.99-2.58c-0.12,1.77-1.17,1.64-2.46,1.02c0.06,1.13,0.64,1.84,1.75,2.13c-0.29,1.5-0.59,2.99-0.9,4.48
		c-1.46,0.63-3,1.07-4.53,1.51c-0.57,1.75-0.76,3.55-0.51,5.37c-1.91,1.17-3.78,2.42-5.76,3.46c-3.16-0.86-6.45-0.83-9.63,0.05
		c-0.16,0.42-0.47,1.26-0.63,1.68c-2.41,0.78-3.86-1.87-5.97-2.47c-3.9,1.62-4.35-1.35-5.92-3.16c-3.21,0.2-6.41,0.17-9.6-0.12
		c-0.24,0.29-0.72,0.87-0.95,1.16c1.22,9.9-1,2.07-4.09,1.77c-0.35,1.41-1.05,4.21-1.4,5.62c-3.81,0.21-5.15,5.38-9.72,3.48
		c-2.11,0.22-3.24,2.06-4.24,3.7c-4.6-0.44-9.15-1.24-13.73-1.74c-1.18,0.24-1.91,1.3-2.91,1.89c-0.08-0.66-0.24-1.99-0.32-2.65
		c-4.24-0.32-8.43,0.68-12.66,0.7c0.42-1.31,0.84-2.64,0.9-4.03c-1.45,0.03-4.36,0.08-5.81,0.11c-0.14,0.45-0.41,1.35-0.55,1.81
		c-1.72,0.17-3.07-1.17-4.08-2.38c-2.33,0.42-4.5-0.61-6.56-1.55c-0.66-2.33-0.63-4.65,0-6.97c-0.07-1.52,1.7-1.95,2.85-2.24
		c0-0.66-0.01-1.98-0.01-2.64c-1.15-0.93-2.64-1.3-3.71-2.32c-0.55-7.24-6.11-13.24-5.2-20.78c1.06-2.49,3.56-3.81,5.21-5.87
		c1.36-0.4,2.83-0.21,4.11,0.4c4.36-0.08,9.63,1.93,13.54-0.71c0.71-0.79,2.13-2.36,2.85-3.15c1.61-2.22,4.89,0.12,7.09,0.23
		c0.12-0.42,0.36-1.26,0.48-1.68c2.11-0.97,4.13-2.2,6.48-2.5c0.12-0.4,0.34-1.2,0.45-1.6c3.69-0.02,6.87-2.3,10.56-2.36
		c0.5-3.61,5.49-4.16,8.23-3.74c1.64-0.02,3.27-0.18,4.8-0.81c0.59,0.74,1.29,1.34,2.1,1.8c0.03-1.28,0.14-2.55,0.35-3.82
		c1.58-1.29,2.24-3.23,3-5.05c4.7,2.17,5.73-2.14,7-4.92c2.94,0.01,1.68-3.64,0.81-5.28c0.3-1.66,2.18-2.48,3.18-3.75
		c1.43-0.08,4.29-0.23,5.72-0.31c2.73-0.12,2.35-5.83,7.01-1.92c2.58,0.38,2.54,5.06,6.76,2.37c1.64,0.78,3.24,1.99,5.19,1.63
		c0.04-1.29,0.12-2.57,0.21-3.85c3.64-1.91,7.79,0.76,11.62-0.42c0.88-0.85,1.79-1.67,3.01-2.01c0.12-0.62,0.36-1.86,0.48-2.48
		c3.16-1.64,6.9-3.33,10.47-1.88c1.54,0.8,4.88,1.53,4.47-1.21c4.9-0.61,9.76-1.38,14.59-2.36c0.2-1.62,1.42-2.83,3.04-3.03
		c0.09-0.66,0.25-1.97,0.34-2.62C434.57,87.98,436.32,88.2,436.29,86.25z"/>
</g>
<g target="40">
	<path fill-opacity="1" fill="#000000" d="M549.96,119.98c3.63,0.41,9.23-0.09,11.43,3.71c2.52,0.31,7.31,2.04,7.94-1.46
		c0.42-0.06,1.25-0.18,1.66-0.24c3.88,2.15,5.55-2.76,8.95-2.01c0.14,2.57,0.98,5.23,0.5,7.84c1.45,2.59,4.32,3.15,7.33,2.05
		c2.74-1.89,0.05-5.32,0.17-7.89c2.94-0.68,2.55,3.13,3.26,4.97c2.6-1.92,5.6-4.41,9.14-2.36c1.97,0.41,2.67,2.31,3,4.07
		c1.23,0.4,2.56,0.64,3.61,1.49c-0.1,2.91-0.9,5.74-1.25,8.63c-2.36,5.16-2.87,10.86-4.76,16.18c-0.17,1.26-1.43,1.91-2.16,2.82
		c-3.54,0.76-7.3,0.84-10.61,2.43c-0.44,3.24-1.32,6.43-1.22,9.73c-2.37-0.46-2-3.95-3.21-5.69c-2.47-1.5-5.48-0.44-8.08-1.75
		c-4.11-2.67-5.55,1.42-7.92,3.28c-2.96,1.24-4.95-2.22-4.98-4.73c-3.3,0.18-6.53,1.04-9.76,1.64c-3.92-0.88-8.04-2.17-12.02-1
		c-0.32-0.05-0.96-0.13-1.28-0.18c-4.12,1.69-4.37-1.5-5.91-3.41c-5.35-0.85-11.42,0.43-15.08,4.63c-2.2-0.03-4.37-0.31-6.51-0.83
		c-0.13-1.24-0.27-2.48-0.4-3.72c-0.84-0.55-1.7-1.07-2.58-1.53c-0.43-1.54,0.57-2.99,0.7-4.5c-1.41-1.18-3.28-1.47-4.98-2.03
		c-2.43,0.14-4.61,1.51-7.03,1.82c-0.21-0.48-0.64-1.44-0.86-1.92c1.03-1.78,3.11-2.73,4.55-4.19c-0.14-0.82-0.24-1.64-0.28-2.46
		c1.12-0.9,2.04-2.07,3.37-2.68c1.49-1.03,3.99-0.26,4.75-2.3c2.58-1.46,6.15-0.36,8.32-2.51c-0.14-0.46-0.42-1.38-0.56-1.85
		c1.97-0.36,4.85,1.16,6.95,0.05c1.99-0.57,3.92-1.36,5.91-1.96c2.55-0.38,5.16,0.58,7.75,0.7c0.99-1.04,1.8-2.24,2.59-3.45
		c3.38-0.95,6.77-1.75,10.34-1.64C553.8,126.19,551.72,121.9,549.96,119.98z"/>
</g>
<g target="52">
	<path fill-opacity="1" fill="#000000" d="M450.32,147.28c2.48-0.68,5.33-2.35,7.71-0.31c2.45,0.78,4.02,2.73,5.18,4.89c1.48,0,4.45,0.01,5.93,0.01
		c1.02,0.85,1.99,1.76,2.96,2.67c-1.38,1.83-1.29,4.41-2.85,6.22c0.9,1.08,2.2,1.9,2.77,3.23c1.36,2.19,0.24,5.13,1.77,7.24
		c1.22,1.41,1.1,3.42,2.03,4.98c0.71,1.11,1.09,2.37,1.54,3.59c3.7,0.85,7.56,0.66,11.27,1.5c1.3,3.84,6.13,2.76,8.71,5.26
		c3.01,0.86,8.59,2.47,10.06-1.35c5.12-3.12,4.75,1.97,5.95,4.46c2.22,1.41,6.04,1.51,3.85,6.07c0.65,0.13,1.96,0.39,2.61,0.53
		c-0.5,2.7,0.62,5.28,1.36,7.79c-2.65,5.32-10.58,2.56-13.29,7.79c1.39,0.09,2.79,0.18,4.19,0.27c-0.18,1.29-0.78,2.46-1.3,3.64
		c-4.53-2.15-5.18,2.04-8.46,2.63c-2.26,2.29-3.83,5.22-4.67,8.33c-1.47,1.03-2.78,2.13-2.98,4.05c-3.92,0.06-7.76,0.77-11.62,1.33
		c0,1.7,0,5.09,0,6.79c1.32,0.07,2.65,0.15,3.99,0.23c0.52,3.27-3.42,2.59-5.35,3.52c-1.83,0.33-1.76,2.39-2.62,3.67
		c-2.06-0.24-4.08-0.64-5.97-1.48c0-1.21,0.27-2.38,0.39-3.57c-1.21-2-2.34-4.04-3.38-6.13c1.79-0.79,3.49-1.72,2.94-4.01
		c-4.51,1.15-8.34-0.94-11.69-3.51c-0.89-1.37-1.29-2.95-1.65-4.51c-1.63-0.02-4.9-0.04-6.54-0.05c-0.35,1.64,0.18,3.69-1.34,4.86
		c-1.84-0.27-3.63-0.82-5.42-1.29c-0.78-1.18-1.53-2.41-2.63-3.33c-2.22-0.45-4.42-1-6.64-1.4c0.15-3.43-2.1-6.24-2.55-9.57
		c-1.01-1.33-2.08-2.61-2.96-4.03c-1.75-0.73-3.48,1.04-5.29,0.56c-0.16-2.28-2.54-1.68-4.13-2.05c-0.1-0.69-0.29-2.06-0.39-2.75
		c-1.87,0.39-3.72,0.85-5.58,1.25c-1.54,1.21-2.36,3.02-3.44,4.6c-5.4,1.31-8.95-3.7-14.1-3.5c-3.98-2.19-7.95,3.47-11.44,0.59
		c-1.08-0.76-2.69-1.34-2.28-3c-0.11-2.92,4.33-4.32,2.03-8c-0.14-1.34,0.46-2.12,1.81-2.33c-0.27-2.44-0.27-5.06-1.2-7.33
		c-1.42-1.95-2.51-4.1-3.67-6.2c1.98-1.04,3.85-2.29,5.76-3.46c-0.25-1.82-0.06-3.62,0.51-5.37c1.53-0.44,3.07-0.88,4.53-1.51
		c0.31-1.49,0.61-2.98,0.9-4.48c-1.11-0.29-1.69-1-1.75-2.13c1.29,0.62,2.34,0.75,2.46-1.02c3.89-2.86,4.76,0.57,5.99,2.58
		c3.31,0.3,7.15,1.97,10.06-0.19c5.9-2.25,12.87-2.08,17.94-6.18c1.69-1.12,3.39,0.77,4.97,1.28c1.32,0.9,3.82,0.14,3.63-1.68
		c-0.17-1.47-0.5-4.4-0.67-5.87c3.5-0.39,7.05-0.62,10.53-1.32C449.86,149.91,449.93,148.51,450.32,147.28z M438.03,177.95
		c0,0.77,0,2.33,0,3.1c1.16-0.45,3.85-0.38,3.84-1.91C440.59,178.74,439.38,178.04,438.03,177.95z M444.1,180.03
		c-0.59,3.67-1.11,7.34,0.79,10.86c-1.65-0.19-2.27,0.53-1.88,2.16c0.96-0.19,1.9-0.46,2.82-0.82c0.77,1.02,2.86,1.95,1.81,3.48
		c-1.43,1.63,1.31,1.55,2.27,2.23c0.05-0.69,0.16-2.08,0.21-2.77c3.19-0.07,5.66-2.14,7.69-4.38c0.04-1.86-1.12-3.62-0.99-5.57
		c-1.29-0.08-1.97-0.77-2.03-2.06c-1.2-0.11-2.38-0.23-3.56-0.39c-0.83-0.95-1.64-2.07-3.08-1.77c-0.07,0.49-0.22,1.47-0.29,1.95
		c-0.7,0.01-2.08,0.03-2.78,0.04c-0.03-0.74-0.1-2.23-0.14-2.97L444.1,180.03z M439.16,193.19c-0.52,2.1,4.74,0.5,1.87-0.34
		C440.57,192.94,439.63,193.1,439.16,193.19z"/>
</g>
<g target="36">
	<path fill-opacity="1" fill="#000000" d="M497.91,151.94c2.42-0.31,4.6-1.68,7.03-1.82c1.7,0.56,3.57,0.85,4.98,2.03c-0.13,1.51-1.13,2.96-0.7,4.5
		c0.88,0.46,1.74,0.98,2.58,1.53c0.13,1.24,0.27,2.48,0.4,3.72c2.14,0.52,4.31,0.8,6.51,0.83c3.66-4.2,9.73-5.48,15.08-4.63
		c1.54,1.91,1.79,5.1,5.91,3.41c0.32,0.05,0.96,0.13,1.28,0.18c3.98-1.17,8.1,0.12,12.02,1c3.23-0.6,6.46-1.46,9.76-1.64
		c0.03,2.51,2.02,5.97,4.98,4.73c2.37-1.86,3.81-5.95,7.92-3.28c2.6,1.31,5.61,0.25,8.08,1.75c1.21,1.74,0.84,5.23,3.21,5.69
		c0.76,0.04,2.28,0.12,3.04,0.15c0.47,5,0.08,10.66-3.17,14.71c-0.68,0.09-2.04,0.27-2.72,0.36c1.56,2.75-1.71,8.63-4.97,6.01
		c-1.53,1.07-0.95,3.07-1.31,4.66c-1.27,1.27-3.07,1.71-4.67,2.4c-0.41,2.61,0.22,5.48-0.61,8.07c0.85,3.03-1.07,4.73-2.65,6.61
		c-1.8,2.03-4.12,0.24-5.33-1.47c-1.52-0.53-3.09-0.88-4.63-1.29c-1.94-0.61-3.76,1.3-5.65,0.6c-2-1.67-3.51-4.82-7.07-2.62
		c-1.32,0.7-0.76,1.88-0.41,2.98c-2.44-0.23-2.77-3.27-4.12-4.89c-1.59-0.84-2.83,0.57-4.04,1.35c-2.3,0.97-4.95,1.76-7.45,1.34
		c-0.61-1.55-1.06-3.15-1.4-4.77c-1.54,0.67-3,1.53-4.61,1.99c0.32-1.03,0.61-2.08,0.85-3.13c-1.69-0.09-3.52-0.17-4.86,1.06
		c-0.74-2.51-1.86-5.09-1.36-7.79c-0.65-0.14-1.96-0.4-2.61-0.53c2.19-4.56-1.63-4.66-3.85-6.07c-1.2-2.49-0.83-7.58-5.95-4.46
		c-1.47,3.82-7.05,2.21-10.06,1.35c-2.58-2.5-7.41-1.42-8.71-5.26c-3.71-0.84-7.57-0.65-11.27-1.5c-0.45-1.22-0.83-2.48-1.54-3.59
		c-0.93-1.56-0.81-3.57-2.03-4.98c-1.53-2.11-0.41-5.05-1.77-7.24c-0.57-1.33-1.87-2.15-2.77-3.23c1.56-1.81,1.47-4.39,2.85-6.22
		c2.16,0.51,3.16,2.31,3.12,4.43c3,0.26,5.49-2.23,8.49-1.87c0.14,0.45,0.43,1.34,0.57,1.79c2.9,0.03,5.91-0.99,8.79-0.12
		c1.35,0.42,2.56-0.61,3.82-0.95C496.19,155.74,495.86,153.4,497.91,151.94z"/>
</g>
<g target="68">
	<path fill-opacity="1" fill="#000000" d="M352.19,176.11c3.19,0.29,6.39,0.32,9.6,0.12c1.57,1.81,2.02,4.78,5.92,3.16c2.11,0.6,3.56,3.25,5.97,2.47
		c0.16-0.42,0.47-1.26,0.63-1.68c3.18-0.88,6.47-0.91,9.63-0.05c1.16,2.1,2.25,4.25,3.67,6.2c0.93,2.27,0.93,4.89,1.2,7.33
		c-1.35,0.21-1.95,0.99-1.81,2.33c2.3,3.68-2.14,5.08-2.03,8c-0.41,1.66,1.2,2.24,2.28,3c-0.42,1.28-0.94,2.53-1.51,3.75
		c-1.93,1.4-4.07,2.61-5.15,4.84c-2.63,0.43-4.83,1.88-7.27,2.82c-1.17,1.47-2.47,4.82,0.53,4.89c0.01,0.36,0.03,1.08,0.04,1.44
		c-2.7,0.52-4.8,2.44-7.57,2.75c-2.45,1.14-4.89-0.4-7.36-0.55c0.51,1.25,2.28,2.22,1.85,3.71c-1.75,0.27-1.76,1.91-2.05,3.3
		c-2.05,0.29-4.02-0.85-6.05-0.37c-2.94,0.27-5.72-1.37-8.65-1.41c-3.02,0.7-6.58,0.67-8.81,3.06c-0.31,1.49-0.61,2.99-0.8,4.51
		c0.5,0.69,0.98,1.39,1.45,2.12c-0.83,0.51-1.67,1.02-2.52,1.52c-0.41,2.88-2.3,6.25-5.38,6.67c-1.66-0.35-1.32,3.3,0.13,3.22
		c-1.31,0.65-2.96,0.9-3.52,2.44c-0.79-0.06-1.56-0.14-2.34-0.24c-0.64,0.94-1.28,1.88-1.9,2.84c-0.4,1.17,0.48,2.3,0.56,3.48
		c-1.29,0.32-2.98,0.04-3.51,1.59c-0.56,1.79-2.57,1.49-4,2.05c-1.3,2.41-3.89,3.44-6.02,4.96c-0.78,1.81-1.04,4.01-2.62,5.36
		c-1.16,0.17-2.33,0.35-3.49,0.54c-0.81,1.49-1.21,3.26-2.51,4.44c-2.17,0.37-4.33,0.8-6.36,1.66c-1.5,2.22-3.17,4.93-6.19,4.92
		l-1.03-0.29c-0.12-1.68-0.45-3.26-1.91-4.26c-0.42-3.73-2.49-6.95-3.65-10.46c-0.33-0.39-1-1.16-1.34-1.55
		c-0.69-3.5-1.3-7.43-4.02-9.99c-0.31-1.86-0.19-3.9-2.01-4.99c0.03-4.26-3.31-7.26-5.04-10.88c-0.78-3.68-3.16-6.84-3.52-10.63
		c-0.36-0.37-1.06-1.13-1.42-1.5c-0.69-5.36-4.66-10.01-4.22-15.55c2.33,0.12,2.31-2.48,3.14-4.04c1.19-0.11,2.39-0.21,3.59-0.3
		c0.04-1.37,0.75-2.06,2.14-2.08c0.82-2.8,0.61-5.53-1.76-7.03c-3.14-4.89,1.55-4.95,3.63-6.92c-0.27-3.53,2.64-6.09,2.36-9.61
		c3.7,0.36-0.02-7.01,6.84-2.21c3.14,2.12,5.3-1.08,8.06-1.01c2.06,0.94,4.23,1.97,6.56,1.55c1.01,1.21,2.36,2.55,4.08,2.38
		c0.14-0.46,0.41-1.36,0.55-1.81c1.45-0.03,4.36-0.08,5.81-0.11c-0.06,1.39-0.48,2.72-0.9,4.03c4.23-0.02,8.42-1.02,12.66-0.7
		c0.08,0.66,0.24,1.99,0.32,2.65c1-0.59,1.73-1.65,2.91-1.89c4.58,0.5,9.13,1.3,13.73,1.74c1-1.64,2.13-3.48,4.24-3.7
		c4.57,1.9,5.91-3.27,9.72-3.48c0.35-1.41,1.05-4.21,1.4-5.62c3.09,0.3,5.31,8.13,4.09-1.77
		C351.47,176.98,351.95,176.4,352.19,176.11z"/>
</g>
<!--
<g>
	<path fill-opacity="1" fill="#000000" d="M438.03,177.95c1.35,0.09,2.56,0.79,3.84,1.19c0.01,1.53-2.68,1.46-3.84,1.91
		C438.03,180.28,438.03,178.72,438.03,177.95z"/>
</g>
<g>
	<path fill-opacity="1" fill="#000000" d="M444.1,180.03l0.84-0.01c0.04,0.74,0.11,2.23,0.14,2.97c0.7-0.01,2.08-0.03,2.78-0.04
		c0.07-0.48,0.22-1.46,0.29-1.95c1.44-0.3,2.25,0.82,3.08,1.77c1.18,0.16,2.36,0.28,3.56,0.39c0.06,1.29,0.74,1.98,2.03,2.06
		c-0.13,1.95,1.03,3.71,0.99,5.57c-2.03,2.24-4.5,4.31-7.69,4.38c-0.05,0.69-0.16,2.08-0.21,2.77c-0.96-0.68-3.7-0.6-2.27-2.23
		c1.05-1.53-1.04-2.46-1.81-3.48c-0.92,0.36-1.86,0.63-2.82,0.82c-0.39-1.63,0.23-2.35,1.88-2.16
		C442.99,187.37,443.51,183.7,444.1,180.03z"/>
</g>
<g>
	<path fill-opacity="1" fill="#000000" d="M439.16,193.19c0.47-0.09,1.41-0.25,1.87-0.34C443.9,193.69,438.64,195.29,439.16,193.19z"/>
</g>
-->
<g target="63">
	<path fill-opacity="1" fill="#000000" d="M521.17,204.06c1.34-1.23,3.17-1.15,4.86-1.06c-0.24,1.05-0.53,2.1-0.85,3.13
		c1.61-0.46,3.07-1.32,4.61-1.99c0.34,1.62,0.79,3.22,1.4,4.77c2.5,0.42,5.15-0.37,7.45-1.34c1.21-0.78,2.45-2.19,4.04-1.35
		c1.35,1.62,1.68,4.66,4.12,4.89c-0.35-1.1-0.91-2.28,0.41-2.98c3.56-2.2,5.07,0.95,7.07,2.62c1.89,0.7,3.71-1.21,5.65-0.6
		c1.54,0.41,3.11,0.76,4.63,1.29c1.21,1.71,3.53,3.5,5.33,1.47c0.49,0.03,1.48,0.09,1.97,0.12c-0.16,3.06,1.98,6.39,6.15,3.98
		c2.63,0.25,5.68-3.49,7.77-0.88c-0.78,2.12-0.17,4.4-0.3,6.63c-0.42,1.61-1.26,4.1,0.76,4.94c1.53,0.35,3.05,0.8,4.45,1.56
		c0.42,1.56,1.51,2.88,3.23,2.97c-0.56,3.9-0.1,8.16-1.84,11.81c-0.01,0.71-0.04,2.12-0.05,2.83c3.07-0.2,6.33,2.01,3.99,6.14
		c0.13,2.39-1.37,4.47-1.14,6.9c-1.24,0.06-2.48,0.12-3.71,0.2c-0.72,3.73-1.73,7.71-4.9,10.13c-0.12,0.64-0.35,1.91-0.46,2.55
		c-1.31,0.27-2.6,0.56-3.78,1.17c-0.01-3.34-0.65-6.64-1.13-9.92c-7.02-0.56-13.89,0.94-20.75,2.12c-0.93,3.67,0.96,8.17-1.45,11.46
		c-1.23,0.44-2.59,0.72-3.11,2.07c-1.07,0.48-2.13,0.48-3.19,0.01c-0.69-1.35-2-2.32-3.44-2.69c-1.67-0.12-3.18,0.67-4.79,0.91
		c-0.83-1.43-1.65-3.96-3.75-2.6c-0.79,1.72-3.1,1.62-3.81,3.4c-1.2,0.19-2.29-0.57-3.43-0.75c0.34,0.93,0.59,1.88,0.74,2.86
		c-1.57,1.55-3.7,2.05-5.75,1.26c-0.09,0.74-0.26,2.22-0.35,2.96c-1.24-0.25-2.37-0.8-3.52-1.26c-2.33-1.39-4.83-2.5-7.14-3.89
		c2.68-5.42-2.46-5.29-5.38-5.57c-3.38-0.64-6.86,1.92-7.11,5.38c-2.07,0.69-4.2,1.63-6.41,0.94c-1.5-0.46-2.75,0.8-4.13,1.16
		c-1.26-1.19-2.03-2.73-2.69-4.3c-1.15-0.79-1.34-2.16-1.73-3.39c-1.6,0.29-3.15,0.84-4.79,0.82c-0.01-3.19,1-6.38,3.08-8.83
		c-1.29-0.07-2.57-0.16-3.84-0.28c-1.18-3.09-1.42-6.42-2.48-9.53c-0.79-1.14-2.28-1.86-2.6-3.25c-0.19-1.73,3.19-1.13,2.79-2.9
		c-1.66-0.84-3.35-1.65-2.81-3.84c0.86-1.28,0.79-3.34,2.62-3.67c1.93-0.93,5.87-0.25,5.35-3.52c-1.34-0.08-2.67-0.16-3.99-0.23
		c0-1.7,0-5.09,0-6.79c3.86-0.56,7.7-1.27,11.62-1.33c0.2-1.92,1.51-3.02,2.98-4.05c0.84-3.11,2.41-6.04,4.67-8.33
		c3.28-0.59,3.93-4.78,8.46-2.63c0.52-1.18,1.12-2.35,1.3-3.64c-1.4-0.09-2.8-0.18-4.19-0.27
		C510.59,206.62,518.52,209.38,521.17,204.06z"/>
</g>
<g target="43">
	<path fill-opacity="1" fill="#000000" d="M416.23,205.3c1.86-0.4,3.71-0.86,5.58-1.25c0.1,0.69,0.29,2.06,0.39,2.75c1.59,0.37,3.97-0.23,4.13,2.05
		c1.81,0.48,3.54-1.29,5.29-0.56c0.88,1.42,1.95,2.7,2.96,4.03c0.45,3.33,2.7,6.14,2.55,9.57c0.66,3.98-0.54,7.59-2.39,10.98
		c-2.22,0.24-4.25-1.28-6.5-0.8c-0.31,1.36-0.33,2.97-2.01,3.3c-0.05,0.61-0.17,1.85-0.23,2.47c0.74,0.08,2.22,0.24,2.96,0.33
		c-0.43,1.91-0.89,3.81-1.19,5.74c-4.16,0.38-8.41-0.47-12.49,0.37c-0.88,0.77-1.7,1.6-2.59,2.36c-3.05-1.07-4.35,1.5-6.68,2.12
		c-1.66-0.46-3.35-0.86-5.08-0.79c0.2,1.89,3.81,1.65,2.31,3.93c0.72,0.07,2.15,0.2,2.87,0.26c-0.94,0.71-1.95,1.31-2.86,2.07
		c-0.17,1.16-0.33,2.33-0.48,3.5c-1.22,0.35-2.6,0.39-3.52,1.37c0.13,0.44,0.39,1.32,0.51,1.76c-0.64,0.08-1.94,0.24-2.59,0.32
		c0.17,1.54,0.17,3.09,0.04,4.64c0.46,0.28,1.39,0.85,1.86,1.13c1.72,0.41,0.26,2.16-0.13,3.03c-1.7,0.96-3.6,1.62-5.13,2.85
		c-0.99,0.67-1.64,1.89-2.87,2.13c-1.26-0.12-2.41-0.77-3.68-0.74c-1.17,1.11-2.24,2.32-3.45,3.38c-0.87-0.16-1.74-0.31-2.61-0.43
		c-1.49,1.25-2,3.67-4.16,3.91c-1.32,0.21-1.72,1.71-2.41,2.64c-1.49,0.41-3.06,0.26-4.58,0.35c-5.21-3.09-11.84-2.72-16.79-6.37
		c0.56-3.4-0.14-6.85,0.41-10.26c-0.91-0.75-2.34-1.2-2.59-2.49c-0.58-2.14-2.47-3.65-4.35-4.66c-2.86-0.34-5.61-0.1-8.42-0.49
		c-0.76-2.7-2.33-4.9-4.51-6.64c-1.41,0.03-4.25,0.07-5.67,0.1c-1.45,0.08-1.79-3.57-0.13-3.22c3.08-0.42,4.97-3.79,5.38-6.67
		c0.85-0.5,1.69-1.01,2.52-1.52c-0.47-0.73-0.95-1.43-1.45-2.12c0.19-1.52,0.49-3.02,0.8-4.51c2.23-2.39,5.79-2.36,8.81-3.06
		c2.93,0.04,5.71,1.68,8.65,1.41c2.03-0.48,4,0.66,6.05,0.37c0.29-1.39,0.3-3.03,2.05-3.3c0.43-1.49-1.34-2.46-1.85-3.71
		c2.47,0.15,4.91,1.69,7.36,0.55c2.77-0.31,4.87-2.23,7.57-2.75c-0.01-0.36-0.03-1.08-0.04-1.44c-3-0.07-1.7-3.42-0.53-4.89
		c2.44-0.94,4.64-2.39,7.27-2.82c1.08-2.23,3.22-3.44,5.15-4.84c0.57-1.22,1.09-2.47,1.51-3.75c3.49,2.88,7.46-2.78,11.44-0.59
		c5.15-0.2,8.7,4.81,14.1,3.5C413.87,208.32,414.69,206.51,416.23,205.3z"/>
</g>
<g target="72">
	<path fill-opacity="1" fill="#000000" d="M437.13,221.89c2.22,0.4,4.42,0.95,6.64,1.4c1.1,0.92,1.85,2.15,2.63,3.33c1.79,0.47,3.58,1.02,5.42,1.29
		c1.52-1.17,0.99-3.22,1.34-4.86c1.64,0.01,4.91,0.03,6.54,0.05c0.36,1.56,0.76,3.14,1.65,4.51c3.35,2.57,7.18,4.66,11.69,3.51
		c0.55,2.29-1.15,3.22-2.94,4.01c1.04,2.09,2.17,4.13,3.38,6.13c-0.12,1.19-0.39,2.36-0.39,3.57c1.89,0.84,3.91,1.24,5.97,1.48
		c-0.54,2.19,1.15,3,2.81,3.84c0.4,1.77-2.98,1.17-2.79,2.9c0.32,1.39,1.81,2.11,2.6,3.25c1.06,3.11,1.3,6.44,2.48,9.53
		c1.27,0.12,2.55,0.21,3.84,0.28c-2.08,2.45-3.09,5.64-3.08,8.83c-1.6,0.27-3.65-0.37-4.72,1.19c0.58,2.23,1.91,4.31,1.76,6.68
		c-2.32,0.58-4.64,1.12-7.01,1.39c0.1,1.53,1.49,2.48,1.81,3.91c0.39,1.98,1.29,3.78,1.92,5.68c-0.49,1.16-1,2.33-2.34,2.64
		c-1.17,0.8-2.06-0.87-3.04-1.26c-0.91,2.53-3.6,4.17-6.07,4.85c-0.32-1.36-0.18-2.94-1.44-3.84c-3.29-0.16-6.62,0.05-9.8-0.93
		c-1.4,0.39-2.47,1.51-3.89,1.89c-0.27-1.88-1.55-3.32-2.41-4.94c-1.52,0.1-2.95,0.89-4.5,0.71c-2.81-1.81,0.98-5.75-1.37-7.7
		c-2.66,1.03-7.37-2.04-8.21,1.61c-3.34,0.25-6.41-0.98-9.63-1.4c-2.16,0.13-4.73-0.41-6.68-0.53c-0.37-1.3-0.32-2.81-1.53-3.66
		c-3.92,0.14-7.43-0.99-10.51-3.37c-0.14-0.65-0.42-1.96-0.56-2.62c-2.4-1.17-4.98-1.84-7.55-2.47c-0.05-0.7-0.16-2.09-0.21-2.79
		c0.39-0.87,1.85-2.62,0.13-3.03c-0.47-0.28-1.4-0.85-1.86-1.13c0.13-1.55,0.13-3.1-0.04-4.64c0.65-0.08,1.95-0.24,2.59-0.32
		c-0.12-0.44-0.38-1.32-0.51-1.76c0.92-0.98,2.3-1.02,3.52-1.37c0.15-1.17,0.31-2.34,0.48-3.5c0.91-0.76,1.92-1.36,2.86-2.07
		c-0.72-0.06-2.15-0.19-2.87-0.26c1.5-2.28-2.11-2.04-2.31-3.93c1.73-0.07,3.42,0.33,5.08,0.79c2.33-0.62,3.63-3.19,6.68-2.12
		c0.89-0.76,1.71-1.59,2.59-2.36c4.08-0.84,8.33,0.01,12.49-0.37c0.3-1.93,0.76-3.83,1.19-5.74c-0.74-0.09-2.22-0.25-2.96-0.33
		c0.06-0.62,0.18-1.86,0.23-2.47c1.68-0.33,1.7-1.94,2.01-3.3c2.25-0.48,4.28,1.04,6.5,0.8
		C436.59,229.48,437.79,225.87,437.13,221.89z"/>
</g>
<g target="35">
	<path fill-opacity="1" fill="#000000" d="M328.13,253.26c1.42-0.03,4.26-0.07,5.67-0.1c2.18,1.74,3.75,3.94,4.51,6.64c2.81,0.39,5.56,0.15,8.42,0.49
		c1.88,1.01,3.77,2.52,4.35,4.66c0.25,1.29,1.68,1.74,2.59,2.49c-0.55,3.41,0.15,6.86-0.41,10.26c4.95,3.65,11.58,3.28,16.79,6.37
		c-0.27,2.23-0.51,4.47-0.72,6.72c1.16,0.5,2.34,0.97,3.52,1.46c0.17,1.18,0.2,2.37,0.11,3.57c-1.2,0.12-2.39,0.29-3.57,0.51
		c-0.92,2.41-4.02,2.15-6.14,1.97c-1.09,0.55-2.12,1.21-2.64,2.36c-1.19,0.23-2.38,0.4-3.58,0.5c0.61,1.26,1.09,2.65,2.21,3.56
		c1.88,0.56,3.78,1.06,5.69,1.51c-0.26,1.54-0.74,3.03-1.09,4.56c-0.44-0.16-1.34-0.48-1.79-0.64c-0.04,1.44-0.1,4.33-0.13,5.77
		c-1.08,2.21-3.58,3.35-5.72,4.4c-0.03,0.6-0.08,1.79-0.1,2.39c1.14,0.28,2.24,0.69,3.28,1.24c-0.21,2.32-2.6,2.95-4.11,4.28
		c-0.12,0.69-0.36,2.06-0.48,2.75c-1.92,0.3-4.37-1.99-5.65,0.22c0.08,1.88,1.9,4.39-0.34,5.67c-1.98,0.37-3.76-1.12-5.75-0.84
		c-1.64,0.62-3.19,1.47-4.74,2.28c-0.39,1.43-1.18,2.83-1.12,4.36c0.92,0.44,1.81,0.93,2.69,1.47c0.34,1.79-2.99,1.19-2.84,2.97
		c0.01,2.42,2.44,4.25,1.99,6.81c-1.55,0.1-3.1,0.11-4.65,0.18c-0.4-0.45-1.22-1.36-1.63-1.81c-2-0.37-4.08-2-6.07-0.71
		c-4.64,2.58-7.01-3.8-11.69-1.59c-1.72-0.34-3.24,0.3-4.25,1.69c-3.4,0.43-5.89,3.62-9.69,2.27c-1.52-0.72-4.57-2.17-6.1-2.89
		c-5.65-3.7-3.99,1.16-6.21,2.67c-1.07,1.02-0.55,2.75-0.97,4.07c-0.91,0.72-1.55,2-2.82,2.12c-3.12,0.44-5.34,3.58-8.96,2.07
		c-1.53,0.36-2.26-0.25-2.18-1.82c-0.64-0.1-1.92-0.29-2.56-0.38c-1.51-3.93-4.3-7.18-5.85-11.08c-2.84-8.18-8.29-15.28-10.3-23.75
		c0.21-3.27,1.66-6.5,1.23-9.77c3.4-1.7-0.63-5.26,1.09-7.87c1.64-2.55-1.12-4.77-1.62-7.2c-0.87-3.18-3.25-5.79-3.83-9.01
		c0.74-0.06,2.21-0.18,2.95-0.24c1.04-1.44,3.12-4.32,4.16-5.76c2.71,0.75,4.75,0.11,6.13-1.92c1.56,0.55,3,1.41,4.5,2.1
		c0.53,1.14,1.05,2.29,1.57,3.44c2.85,1.84,6.45,1.3,9.69,1.17c1.85-0.7,3.98-0.92,5.26-2.6c3.02,0.01,4.69-2.7,6.19-4.92
		c2.03-0.86,4.19-1.29,6.36-1.66c1.3-1.18,1.7-2.95,2.51-4.44c1.16-0.19,2.33-0.37,3.49-0.54c1.58-1.35,1.84-3.55,2.62-5.36
		c2.13-1.52,4.72-2.55,6.02-4.96c1.43-0.56,3.44-0.26,4-2.05c0.53-1.55,2.22-1.27,3.51-1.59c-0.08-1.18-0.96-2.31-0.56-3.48
		c0.62-0.96,1.26-1.9,1.9-2.84c0.78,0.1,1.55,0.18,2.34,0.24C325.17,254.16,326.82,253.91,328.13,253.26z"/>
</g>
<g target="69">
	<path fill-opacity="1" fill="#000000" d="M560.15,266.16c6.86-1.18,13.73-2.68,20.75-2.12c0.48,3.28,1.12,6.58,1.13,9.92
		c-0.93,5.59,9.98,1.61,6.17,8.84c0.25,0.25,0.75,0.74,1,0.99l4.55,0.42c0.8,2.78,3.96,3.73,4.29,6.76
		c0.66,2.51,4.08,2.49,5.17,4.81c5.61,3.61,11.42,7.05,16.07,11.93c3.53,2.05,3.89,7.11,1.72,10.29c-1.02,1.38-0.93,3.14-1.29,4.75
		c-2.13,2.03-3.25,4.99-3.07,7.99c-0.57,1.88-2.03,3.15-3.35,4.51c-2.1,8.66-4.43,17.28-7.45,25.68c-2.23-0.72-4.48,0.08-6.73,0.07
		c-0.45-2.53,1.15-7.47-4.92-3.95c-0.08,0.68-0.26,2.05-0.34,2.73c-2.23-0.28-4.42-0.64-6.56-1.07c-2.04-1.68-3.78-4.51-7.23-2.89
		c-2.65-0.74-5-2.96-8.07-1.83c-5.08-2.95-7.05,4.04-12,2.12c-1.66,0.22-3.24,0.81-4.91,0.96c0.04-2.65-0.03-5.29-0.21-7.92
		c-4.91-1.31-9.88-2.74-14.96-3.22c1.47-2.84,4.18-5.23,3.15-8.91c-0.08-2.03,3.69-1.53,2.94-3.96c-0.84-1.44-2.31-2.48-3.66-3.43
		c-2.95-2.18-7.61-1.04-10.11-3.84c-0.16-1.2-0.3-2.4-0.42-3.59c-4.09,0.3-6.83-2.92-9.51-5.48c-1.27-2.7-2.55-5.58-2.31-8.63
		l5.08-0.22c-0.51-2.24-1.65-4.31-1.99-6.59c0.46-0.14,1.38-0.42,1.84-0.57c-0.56-3.26-2.58-6.23-1.92-9.72
		c0.06-2.46,1.1-4.76,1.3-7.2c1.15,0.46,2.28,1.01,3.52,1.26c0.09-0.74,0.26-2.22,0.35-2.96c2.05,0.79,4.18,0.29,5.75-1.26
		c-0.15-0.98-0.4-1.93-0.74-2.86c1.14,0.18,2.23,0.94,3.43,0.75c0.71-1.78,3.02-1.68,3.81-3.4c2.1-1.36,2.92,1.17,3.75,2.6
		c1.61-0.24,3.12-1.03,4.79-0.91c1.44,0.37,2.75,1.34,3.44,2.69c1.06,0.47,2.12,0.47,3.19-0.01c0.52-1.35,1.88-1.63,3.11-2.07
		C561.11,274.33,559.22,269.83,560.15,266.16z"/>
</g>
<g target="59">
	<path fill-opacity="1" fill="#000000" d="M393.81,272.83c1.53-1.23,3.43-1.89,5.13-2.85c0.05,0.7,0.16,2.09,0.21,2.79c2.57,0.63,5.15,1.3,7.55,2.47
		c0.14,0.66,0.42,1.97,0.56,2.62c3.08,2.38,6.59,3.51,10.51,3.37c1.21,0.85,1.16,2.36,1.53,3.66c1.95,0.12,4.52,0.66,6.68,0.53
		c3.22,0.42,6.29,1.65,9.63,1.4c0.84-3.65,5.55-0.58,8.21-1.61c2.35,1.95-1.44,5.89,1.37,7.7c1.55,0.18,2.98-0.61,4.5-0.71
		c0.86,1.62,2.14,3.06,2.41,4.94c-0.01,1.4,0.07,2.81,0.48,4.17c0.57,1.44-0.46,2.93-0.07,4.38c0.12,1.27,0.88,2.69,0.18,3.91
		c-1.3,0.53-1.64,1.84-2.11,3.02c-1.23,0.71-2.51,1.31-3.69,2.08c1.68,0.34,3.34,0.79,4.91,1.54c0.47,1.11,0.77,2.3,0.67,3.53
		c1.05,0.51,2.13,0.97,3.2,1.45c-0.22,0.86-0.43,1.73-0.61,2.6c0.65,0.08,1.94,0.25,2.59,0.34c-0.52,1.53,0.61,2.62,1.33,3.86
		c-0.53,1.3-1.06,2.66-2.11,3.64c-0.84-0.18-1.67-0.32-2.5-0.42c-0.46,0.87-0.99,1.69-1.61,2.45c-1.28,0.37-2.67,0.49-3.65,1.5
		c0.01,1.37,0.01,4.13,0.01,5.51c-0.74,0.11-2.2,0.35-2.94,0.46c-0.09,0.71-0.27,2.13-0.36,2.84c-2.41,0.62-1.81-3.18-3.86-2.99
		c-2.87-0.81-3.03,3.21-5.01,3.94c-2.74-1.81-5.57-3.8-7.19-6.76c-2.56-0.02-5.12-0.13-7.66-0.34c-2.46-1.51-4.93-2.99-7.41-4.45
		c-2.45-0.92-5.05-1.46-7.37-2.69c-0.92-1.79-1.72-3.63-2.65-5.41c-1.05-0.42-2.16-1.59-3.36-0.93c-4.87,1.91-10.19,2-15.31,2.65
		c-2.25-0.13-3.42,2.7-5.81,1.97c-0.05-2.79-1.14-5.31-2.45-7.71c-1.83,0.12-3.65-0.09-5.47-0.13c-0.13,0.43-0.41,1.31-0.55,1.74
		c-1.65-0.11-3.55-1.67-4.93-0.11c-1.92,1.95-4.93,0.92-7.41,1.17c-1.04-0.55-2.14-0.96-3.28-1.24c0.02-0.6,0.07-1.79,0.1-2.39
		c2.14-1.05,4.64-2.19,5.72-4.4c0.03-1.44,0.09-4.33,0.13-5.77c0.45,0.16,1.35,0.48,1.79,0.64c0.35-1.53,0.83-3.02,1.09-4.56
		c-1.91-0.45-3.81-0.95-5.69-1.51c-1.12-0.91-1.6-2.3-2.21-3.56c1.2-0.1,2.39-0.27,3.58-0.5c0.52-1.15,1.55-1.81,2.64-2.36
		c2.12,0.18,5.22,0.44,6.14-1.97c1.18-0.22,2.37-0.39,3.57-0.51c0.09-1.2,0.06-2.39-0.11-3.57c-1.18-0.49-2.36-0.96-3.52-1.46
		c0.21-2.25,0.45-4.49,0.72-6.72c1.52-0.09,3.09,0.06,4.58-0.35c0.69-0.93,1.09-2.43,2.41-2.64c2.16-0.24,2.67-2.66,4.16-3.91
		c0.87,0.12,1.74,0.27,2.61,0.43c1.21-1.06,2.28-2.27,3.45-3.38c1.27-0.03,2.42,0.62,3.68,0.74
		C392.17,274.72,392.82,273.5,393.81,272.83z"/>
</g>
<g target="50">
	<path fill-opacity="1" fill="#000000" d="M484.92,274.94c1.64,0.02,3.19-0.53,4.79-0.82c0.39,1.23,0.58,2.6,1.73,3.39c0.66,1.57,1.43,3.11,2.69,4.3
		c1.38-0.36,2.63-1.62,4.13-1.16c2.21,0.69,4.34-0.25,6.41-0.94c0.25-3.46,3.73-6.02,7.11-5.38c2.92,0.28,8.06,0.15,5.38,5.57
		c2.31,1.39,4.81,2.5,7.14,3.89c-0.2,2.44-1.24,4.74-1.3,7.2c-0.66,3.49,1.36,6.46,1.92,9.72c-0.46,0.15-1.38,0.43-1.84,0.57
		c0.34,2.28,1.48,4.35,1.99,6.59l-5.08,0.22c-0.24,3.05,1.04,5.93,2.31,8.63c2.68,2.56,5.42,5.78,9.51,5.48
		c0.12,1.19,0.26,2.39,0.42,3.59c2.5,2.8,7.16,1.66,10.11,3.84c1.35,0.95,2.82,1.99,3.66,3.43c0.75,2.43-3.02,1.93-2.94,3.96
		c1.03,3.68-1.68,6.07-3.15,8.91c-5.38,0.98-10.74-1.77-15.99-0.22c-1.32,0.05-2.69-0.47-3.89,0.31c-3.8,1.92-7.96,0.59-11.78-0.32
		c-2.22-1.09-0.31-4.33-2.5-5.44c-3.74-1.27-7.75-1.38-11.65-1.23c3.29,6.05-1.27,5.08-3.88,4.79c-1.43-1.34-2.67-2.86-3.65-4.55
		c-2.47-0.28-4.95-0.35-7.41-0.23c-0.08,0.75-0.24,2.24-0.32,2.99c-2.23,0.03-4.37-1.6-6.56-0.78c-1.47,1.33-2.79,2.84-4.42,3.98
		c-4.62,0.5-9.16,1.65-13.81,1.77c-1.35-0.58-2.44-1.59-3.66-2.35c-0.46-1.31-0.46-2.8-1.27-3.95c0-1.38,0-4.14-0.01-5.51
		c0.98-1.01,2.37-1.13,3.65-1.5c0.62-0.76,1.15-1.58,1.61-2.45c0.83,0.1,1.66,0.24,2.5,0.42c1.05-0.98,1.58-2.34,2.11-3.64
		c-0.72-1.24-1.85-2.33-1.33-3.86c-0.65-0.09-1.94-0.26-2.59-0.34c0.18-0.87,0.39-1.74,0.61-2.6c-1.07-0.48-2.15-0.94-3.2-1.45
		c0.1-1.23-0.2-2.42-0.67-3.53c-1.57-0.75-3.23-1.2-4.91-1.54c1.18-0.77,2.46-1.37,3.69-2.08c0.47-1.18,0.81-2.49,2.11-3.02
		c0.7-1.22-0.06-2.64-0.18-3.91c-0.39-1.45,0.64-2.94,0.07-4.38c-0.41-1.36-0.49-2.77-0.48-4.17c1.42-0.38,2.49-1.5,3.89-1.89
		c3.18,0.98,6.51,0.77,9.8,0.93c1.26,0.9,1.12,2.48,1.44,3.84c2.47-0.68,5.16-2.32,6.07-4.85c0.98,0.39,1.87,2.06,3.04,1.26
		c1.34-0.31,1.85-1.48,2.34-2.64c-0.63-1.9-1.53-3.7-1.92-5.68c-0.32-1.43-1.71-2.38-1.81-3.91c2.37-0.27,4.69-0.81,7.01-1.39
		c0.15-2.37-1.18-4.45-1.76-6.68C481.27,274.57,483.32,275.21,484.92,274.94z"/>
</g>
<g target="48">
	<path fill-opacity="1" fill="#000000" d="M372.27,321.15c1.82,0.04,3.64,0.25,5.47,0.13c1.31,2.4,2.4,4.92,2.45,7.71c2.39,0.73,3.56-2.1,5.81-1.97
		c5.12-0.65,10.44-0.74,15.31-2.65c1.2-0.66,2.31,0.51,3.36,0.93c0.93,1.78,1.73,3.62,2.65,5.41c2.32,1.23,4.92,1.77,7.37,2.69
		c2.48,1.46,4.95,2.94,7.41,4.45c2.54,0.21,5.1,0.32,7.66,0.34c1.62,2.96,4.45,4.95,7.19,6.76c1.98-0.73,2.14-4.75,5.01-3.94
		c2.05-0.19,1.45,3.61,3.86,2.99c0.09-0.71,0.27-2.13,0.36-2.84c0.74-0.11,2.2-0.35,2.94-0.46c0.81,1.15,0.81,2.64,1.27,3.95
		c1.22,0.76,2.31,1.77,3.66,2.35c4.65-0.12,9.19-1.27,13.81-1.77c1.25,0.74,2.55,1.41,3.82,2.13c1.55,2.2,1.11,4.91,1.43,7.51
		c1.31,0.09,2.62,0.17,3.93,0.26c0.2,1.68-1.2,2.62-2.27,3.63c-3.97-0.46-7.88-0.64-11.75,0.44c-0.49,1.86,1.42,2.36,2.61,3.22
		c2.73,4.61,2.89,10.25,3.45,15.45c-3.25-1.16-6-3.42-9.11-4.86c-1.55-0.65-2.32-2.55-3.98-2.91c-3.89,1.02-8.59,4.81-12.27,1.33
		c-2.7,0.17-5.62-0.11-7.94,1.34c-2.45,1.89-5.99,0.64-8.52,2.48c-1.53,1.79-2.43,4.44-4.92,5.11c-2.85,1.49-6.62-0.57-9.13,1.87
		c-0.87,0.89-2.61,2.67-3.49,3.56c-2.74,0.72-4.74-0.44-7.07-1.25c-2.98,0.58-4.33-1.57-6.64-2.31c-1.31,0.3-2.59,0.83-3.95,0.78
		c-1.14-0.51-1.97-1.48-3.07-2.02c-1.43,0.22-2.12,1.76-3.02,2.74c0.49,0.13,1.46,0.37,1.94,0.49c0.77,2.35-2.08,2.63-3.65,3.11
		c-0.97,0.99-1.56,2.27-2.4,3.36c-2.19-0.82-4.61-1.05-6.23,0.96c-4.07,2.98-4.71-0.34-5.96-2.43c-1.56-0.37-3.62-0.63-4.54,1.01
		c-0.75,5.54,3.47,10.09,2.85,15.63c-0.49,0.05-1.46,0.17-1.94,0.22l-0.96-0.05c-0.04-0.76-0.13-2.27-0.18-3.03
		c-4.32-0.66-8.37,1.6-12.69,0.91c-0.44-2.52-2.87-5.37-6.21-2.88c-2.07,0.17-4.03-0.3-5.86-1.22c-3.82-5.16-4.26-11.7-6.49-17.53
		c-1.68-1.64-2.26-4.05-2.65-6.28c0.95-2.94,0.28-6,0.03-9c0.14-3.87-3.41-6.91-2.96-10.83c1.98-1.08,4.46-0.83,6.31-2.07
		c1.55-0.07,3.1-0.08,4.65-0.18c0.45-2.56-1.98-4.39-1.99-6.81c-0.15-1.78,3.18-1.18,2.84-2.97c-0.88-0.54-1.77-1.03-2.69-1.47
		c-0.06-1.53,0.73-2.93,1.12-4.36c1.55-0.81,3.1-1.66,4.74-2.28c1.99-0.28,3.77,1.21,5.75,0.84c2.24-1.28,0.42-3.79,0.34-5.67
		c1.28-2.21,3.73,0.08,5.65-0.22c0.12-0.69,0.36-2.06,0.48-2.75c1.51-1.33,3.9-1.96,4.11-4.28c2.48-0.25,5.49,0.78,7.41-1.17
		c1.38-1.56,3.28,0,4.93,0.11C371.86,322.46,372.14,321.58,372.27,321.15z"/>
</g>
<g target="39">
	<path fill-opacity="1" fill="#000000" d="M479.16,339.04c2.46-0.12,4.94-0.05,7.41,0.23c0.98,1.69,2.22,3.21,3.65,4.55
		c2.61,0.29,7.17,1.26,3.88-4.79c3.9-0.15,7.91-0.04,11.65,1.23c2.19,1.11,0.28,4.35,2.5,5.44c3.82,0.91,7.98,2.24,11.78,0.32
		c1.2-0.78,2.57-0.26,3.89-0.31c5.25-1.55,10.61,1.2,15.99,0.22c5.08,0.48,10.05,1.91,14.96,3.22c0.18,2.63,0.25,5.27,0.21,7.92
		c1.67-0.15,3.25-0.74,4.91-0.96c4.95,1.92,6.92-5.07,12-2.12c3.07-1.13,5.42,1.09,8.07,1.83c3.45-1.62,5.19,1.21,7.23,2.89
		c2.14,0.43,4.33,0.79,6.56,1.07c0.08-0.68,0.26-2.05,0.34-2.73c6.07-3.52,4.47,1.42,4.92,3.95c2.25,0.01,4.5-0.79,6.73-0.07
		c1.92,0.5,2.85,2.66,4.39,3.83c4.9-1.63,10.33,3.13,8.92,8.19c0.1,0.34,0.31,1.03,0.41,1.37c2.61,4.16-1.77,6.73-1.74,10.54
		c-3.31-0.11-7.26,1.44-8.07,4.98c-4.15-0.95-7.66,1.61-11.75,1.16c-4.39,0.63-10.81-3.63-13.75,1.23c1.42,3.47-1.51,4.96-2.6,7.45
		c-2.1,1.07-4.16,2.44-6.62,2.42c-2.12-0.08-2.77,2.93-1.31,4.17c1.08,0.98,1.43,2.46,2.46,3.5c1.31,0.29,2.8,0.22,3.71,1.4
		c-0.19,3.61-3.22,7.31-1,10.83c-1.65,4.07-2.03,8.51-3.16,12.74c-3.43,2.97-2.5,8.34-5.01,11.98c-2.51,1.76-5.56,3-7.47,5.48
		c-0.19,4.15-3.34,7.44-3.47,11.61c-3.19,3.07-9.42,0.9-12.03,5c-2.7-0.36-5.53,0.91-8.07-0.39c-3.24-1.94-5.69-0.44-7.46,1.8
		c-0.54,2.21-1.6,6.61-2.14,8.81c2.72,8.02-0.68,5-2.34,3.18c-4.67-1.82-9.62,2.52-14.06,0.2c-3.01-1.12-4.67-4.27-4.86-7.34
		c-2.66-0.05-7.98-0.13-10.64-0.17c-0.6-1.58-1.42-3.13-1.21-4.86c0.16-6.32-0.26-12.64,0.12-18.93c0.02-1.41,1.92-1.4,2.68-2.32
		c-1.57-4.38,4.26-6.13,2.06-10.56c-1.14-1.11-3.42-3.35-4.56-4.46c-0.43-3.82-0.82-7.67-1.49-11.45c-0.4-0.16-1.22-0.48-1.63-0.65
		c-0.83-1.95,1.16-3.16,1.84-4.73c-0.2-1.31-0.73-2.54-0.99-3.82c1.34-0.08,2.68-0.16,4.03-0.24c0.17-1.19-0.26-2.05-1.28-2.58
		c-3.86,1.59-4.31-1.25-6.03-2.96c-1.51-0.49-3.03-0.94-4.48-1.59c-0.52-1.21-0.97-2.44-1.31-3.7c-0.08-1.72-2.63-1.56-2.87-3.12
		c0.33-0.93,0.71-1.84,1.14-2.72c1.28-0.15,2.57-0.27,3.87-0.37c-0.17-1.2-0.93-2.13-1.54-3.11c0.07-1.17,0.44-2.33,0.29-3.5
		c-0.94-0.75-1.55-2.17-2.87-2.22c-2.67-0.68-3.23,3.73-5.88,2.82c-2.47-0.69-5.32-0.72-6.9-3.04c-0.78-2.26,2.6-2.87,2.8-4.86
		c0.09-1.37,0.33-3.04-1.19-3.69c-1.24-0.15-2.47-0.28-3.7-0.37c-0.56-5.2-0.72-10.84-3.45-15.45c-1.19-0.86-3.1-1.36-2.61-3.22
		c3.87-1.08,7.78-0.9,11.75-0.44c1.07-1.01,2.47-1.95,2.27-3.63c-1.31-0.09-2.62-0.17-3.93-0.26c-0.32-2.6,0.12-5.31-1.43-7.51
		c-1.27-0.72-2.57-1.39-3.82-2.13c1.63-1.14,2.95-2.65,4.42-3.98c2.19-0.82,4.33,0.81,6.56,0.78
		C478.92,341.28,479.08,339.79,479.16,339.04z"/>
</g>
<g target="34">
	<path fill-opacity="1" fill="#000000" d="M443.72,371.43c3.68,3.48,8.38-0.31,12.27-1.33c1.66,0.36,2.43,2.26,3.98,2.91
		c3.11,1.44,5.86,3.7,9.11,4.86c1.23,0.09,2.46,0.22,3.7,0.37c1.52,0.65,1.28,2.32,1.19,3.69c-0.2,1.99-3.58,2.6-2.8,4.86
		c1.58,2.32,4.43,2.35,6.9,3.04c2.65,0.91,3.21-3.5,5.88-2.82c1.32,0.05,1.93,1.47,2.87,2.22c0.15,1.17-0.22,2.33-0.29,3.5
		c0.61,0.98,1.37,1.91,1.54,3.11c-1.3,0.1-2.59,0.22-3.87,0.37c-0.43,0.88-0.81,1.79-1.14,2.72c0.24,1.56,2.79,1.4,2.87,3.12
		c0.34,1.26,0.79,2.49,1.31,3.7c1.45,0.65,2.97,1.1,4.48,1.59c1.72,1.71,2.17,4.55,6.03,2.96c1.02,0.53,1.45,1.39,1.28,2.58
		c-1.35,0.08-2.69,0.16-4.03,0.24c0.26,1.28,0.79,2.51,0.99,3.82c-0.68,1.57-2.67,2.78-1.84,4.73c0.41,0.17,1.23,0.49,1.63,0.65
		c0.67,3.78,1.06,7.63,1.49,11.45c1.14,1.11,3.42,3.35,4.56,4.46c2.2,4.43-3.63,6.18-2.06,10.56c-0.76,0.92-2.66,0.91-2.68,2.32
		c-0.38,6.29,0.04,12.61-0.12,18.93c-0.93-0.21-1.85-0.44-2.76-0.7c-2.64,1.8-6.46,2.67-9.23,0.67c-1.73-1.29-4.87-1.2-5.3-3.72
		c-3.46-2.24-7.58-2.5-11.47-3.51c-0.47-1.2-0.96-2.39-1.38-3.59c-1.2,0.43-2.44,0.74-3.68,1c-0.07,0.69-0.2,2.06-0.27,2.75
		c-2.12,1.39-4.37,2.42-6.75,3.08c-0.08-0.7-0.23-2.1-0.3-2.8c-2.43-0.05-2.64-2.64-4.06-3.97c-1.44-0.72-2.98-1.19-4.54-1.54
		c-2.82-2.29-5.05-5.52-4.42-9.44c-1.51-0.3-2.55-1.41-3.55-2.48c-0.32-1.31-0.29-2.78-1.43-3.68c-4.53-1.75-7.14,3.22-11.54,2.39
		c-4.75,1.87-11.36,0.69-14.44,5.37l-1.84,1.09l-0.79-0.03c-0.78-4.41-6.39-5.65-10.06-3.97c0.61-3.15-2.96-4.1-3.4-6.86
		c-4.08,0.45-8.91-1.55-12.45,1.26c-1.38,1.52-3.42,1.81-5.24,2.53c-1.17-2.1-2.39-4.17-3.66-6.2c-1.51-4.85-4.39-9.26-4.8-14.41
		c-2.74-5.25-3.65-11.34-3.57-17.2c0.48-0.05,1.45-0.17,1.94-0.22c0.62-5.54-3.6-10.09-2.85-15.63c0.92-1.64,2.98-1.38,4.54-1.01
		c1.25,2.09,1.89,5.41,5.96,2.43c1.62-2.01,4.04-1.78,6.23-0.96c0.84-1.09,1.43-2.37,2.4-3.36c1.57-0.48,4.42-0.76,3.65-3.11
		c-0.48-0.12-1.45-0.36-1.94-0.49c0.9-0.98,1.59-2.52,3.02-2.74c1.1,0.54,1.93,1.51,3.07,2.02c1.36,0.05,2.64-0.48,3.95-0.78
		c2.31,0.74,3.66,2.89,6.64,2.31c2.33,0.81,4.33,1.97,7.07,1.25c0.88-0.89,2.62-2.67,3.49-3.56c2.51-2.44,6.28-0.38,9.13-1.87
		c2.49-0.67,3.39-3.32,4.92-5.11c2.53-1.84,6.07-0.59,8.52-2.48C438.1,371.32,441.02,371.6,443.72,371.43z"/>
</g>
</svg>
