<?xml version="1.0" encoding="UTF-8" ?>
<!DOCTYPE svg PUBLIC "-//W3C//DTD SVG 1.1//EN" "http://www.w3.org/Graphics/SVG/1.1/DTD/svg11.dtd">
<svg width="1920pt" height="1080pt" viewBox="0 0 1920 1080" version="1.1" xmlns="http://www.w3.org/2000/svg">
<g target="32" id="#7f3f7fff">
	<path fill="#7f3f7f" fill-opacity="0" d=" M 1000.36 524.76 C 1000.20 521.81 1000.30 518.84 1001.02 515.97 C 1004.67 523.37 1006.15 532.02 1011.52 538.51 C 1014.84 542.64 1017.34 547.33 1019.63 552.09 C 1020.93 546.07 1024.61 541.17 1029.40 537.49 C 1033.75 542.41 1038.49 546.96 1044.58 549.67 C 1051.72 555.52 1060.43 559.48 1069.72 560.16 C 1073.40 563.90 1076.41 568.98 1081.52 570.99 C 1086.13 572.31 1090.96 572.48 1095.66 573.35 C 1095.90 570.35 1096.47 566.86 1099.93 565.89 C 1108.11 560.25 1117.79 563.77 1126.36 566.12 C 1124.07 578.21 1119.30 589.62 1116.06 601.45 C 1120.67 601.62 1125.26 601.90 1129.88 602.17 C 1130.82 607.95 1131.54 613.86 1133.77 619.32 C 1135.16 623.18 1139.43 624.45 1142.75 626.14 C 1139.74 630.84 1136.65 635.49 1133.32 639.97 C 1129.56 637.88 1125.88 635.35 1121.59 634.55 C 1117.76 633.98 1114.62 636.19 1111.60 638.07 C 1108.99 637.32 1106.41 636.38 1103.69 636.27 C 1100.30 636.01 1097.86 638.94 1094.73 639.72 C 1088.79 640.58 1084.19 645.10 1078.10 645.32 C 1077.79 642.75 1077.55 640.19 1077.30 637.63 C 1066.97 635.12 1056.39 633.68 1045.81 632.73 C 1040.03 632.69 1034.23 633.69 1028.52 632.19 C 1022.58 630.96 1016.64 632.50 1010.86 633.73 C 1011.77 637.27 1012.08 641.35 1014.61 644.18 C 1020.13 647.26 1026.78 648.97 1031.11 653.91 C 1034.42 657.77 1037.27 662.04 1039.93 666.38 C 1036.92 669.37 1033.94 672.37 1030.82 675.23 C 1032.06 683.10 1038.06 688.35 1043.63 693.34 C 1038.24 697.82 1031.88 700.84 1025.25 703.00 C 1026.60 712.03 1023.60 720.78 1019.04 728.47 C 1020.47 728.87 1021.91 729.29 1023.36 729.71 C 1022.95 732.29 1022.53 734.86 1022.19 737.44 C 1025.87 736.01 1029.31 733.86 1033.11 732.71 C 1038.29 731.55 1043.45 733.69 1048.49 734.59 C 1049.33 728.38 1050.12 720.90 1055.95 717.25 C 1061.45 715.21 1067.44 714.41 1073.30 714.20 C 1079.32 714.78 1084.77 717.72 1090.44 719.63 C 1085.29 728.64 1080.09 737.67 1074.25 746.25 C 1067.51 753.60 1062.85 762.45 1057.98 771.08 C 1061.88 773.19 1065.91 775.03 1069.91 776.97 C 1065.15 783.77 1060.46 790.61 1055.83 797.50 C 1046.25 795.73 1036.01 797.82 1027.70 802.82 C 1021.98 806.91 1024.70 814.54 1024.39 820.41 C 1022.02 819.81 1018.78 820.21 1017.50 817.66 C 1015.20 813.48 1012.52 809.52 1009.08 806.20 C 1005.48 806.90 1001.82 807.07 998.19 806.58 C 995.99 808.98 993.84 811.44 991.71 813.90 C 990.41 810.82 989.52 807.42 987.30 804.86 C 984.70 802.99 981.96 801.56 979.23 799.96 C 980.03 798.71 980.84 797.46 981.65 796.22 C 978.90 794.93 976.32 793.22 973.39 792.37 C 969.56 791.75 965.64 792.89 961.83 792.02 C 958.68 791.31 956.15 789.19 953.52 787.45 C 955.38 784.88 957.27 782.33 959.14 779.77 C 954.55 778.31 949.91 776.96 945.26 775.74 C 942.32 780.14 939.56 784.65 936.64 789.06 C 929.38 787.14 921.91 785.90 914.97 782.99 C 911.53 781.80 910.73 777.96 908.55 775.49 C 900.60 775.25 894.31 780.40 887.42 783.43 C 884.65 784.87 881.79 782.95 878.99 782.71 C 877.23 782.76 875.58 783.48 873.93 783.98 C 872.80 781.59 872.34 778.58 870.28 776.84 C 866.33 776.19 862.46 778.54 858.48 778.38 C 854.68 775.09 851.23 771.38 847.25 768.27 C 846.11 769.45 844.98 770.65 843.88 771.86 C 843.02 770.12 842.16 768.36 841.33 766.63 C 834.18 768.32 830.71 777.59 822.45 775.61 C 818.81 773.53 817.18 769.07 813.34 767.30 C 807.70 764.49 801.44 768.37 795.63 766.53 C 792.83 765.11 790.84 761.96 787.47 761.86 C 781.20 761.31 774.30 761.85 768.85 758.12 C 764.94 756.12 762.90 751.90 761.94 747.83 C 762.45 745.41 763.96 743.35 765.06 741.18 C 763.45 742.04 761.84 742.89 760.23 743.73 C 759.73 743.04 759.25 742.39 758.77 741.73 C 764.17 735.80 760.79 727.63 762.91 720.66 C 763.43 717.75 764.42 714.98 765.87 712.43 C 770.64 706.42 776.82 701.62 781.13 695.23 C 784.32 689.71 785.16 682.62 781.88 676.95 C 784.34 673.44 788.31 671.28 790.77 667.73 C 792.90 665.02 792.59 661.27 793.21 658.11 C 790.14 657.61 786.91 657.35 784.18 655.76 C 778.91 652.14 777.57 644.92 778.58 638.97 C 780.28 634.30 785.18 631.50 786.62 626.68 C 788.52 621.87 788.43 616.67 788.33 611.61 C 793.07 612.67 798.82 615.19 802.99 611.06 C 806.59 609.02 808.10 605.13 809.96 601.71 C 815.25 605.20 820.65 608.63 824.72 613.59 C 825.06 613.38 825.74 612.94 826.08 612.72 C 827.17 612.02 828.29 611.35 829.41 610.68 C 833.94 610.58 838.42 609.72 842.72 608.24 C 837.71 596.97 831.43 586.23 827.64 574.44 C 826.48 569.59 824.44 565.05 822.30 560.58 C 820.33 556.86 822.35 552.83 823.08 549.08 C 825.19 549.22 827.31 549.29 829.44 549.30 C 831.18 553.88 833.12 558.40 835.57 562.65 C 834.34 558.04 832.66 553.57 831.19 549.04 C 833.96 550.26 837.28 551.14 838.97 553.89 C 840.62 556.82 842.06 559.94 843.59 562.98 C 845.29 560.33 847.02 557.70 848.78 555.08 C 849.19 554.84 850.01 554.35 850.42 554.11 L 851.16 554.63 C 854.26 556.83 857.66 558.83 859.87 562.04 C 863.42 566.27 865.15 572.00 869.87 575.21 C 876.91 580.49 883.84 586.17 888.86 593.50 C 893.32 591.27 897.54 588.57 901.87 586.10 C 902.46 586.90 903.06 587.71 903.67 588.53 C 904.15 587.64 904.66 586.76 905.17 585.88 C 907.35 586.76 909.53 587.65 911.71 588.56 C 911.93 581.88 912.59 575.22 912.51 568.54 C 912.87 563.85 912.04 558.33 915.80 554.79 C 918.73 551.27 923.36 550.51 927.59 549.78 C 933.81 548.76 939.46 545.74 944.88 542.64 C 950.68 539.39 957.59 541.39 963.81 539.75 C 972.76 537.41 980.02 531.33 988.09 527.12 C 992.30 524.93 995.31 530.05 998.48 531.94 C 999.84 532.79 1001.27 533.53 1002.72 534.29 C 1002.02 531.09 1001.11 527.94 1000.36 524.76 Z" />
<path fill="#7f3f7f" fill-opacity="0" d=" M 1374.93 135.27 C 1377.04 131.54 1381.50 130.94 1385.37 130.36 C 1385.61 134.49 1384.79 138.75 1385.91 142.80 C 1388.58 142.55 1390.97 141.85 1393.67 141.37 C 1393.89 142.54 1394.14 143.71 1394.40 144.88 C 1396.04 144.91 1399.32 144.97 1400.96 145.00 C 1401.39 142.00 1401.78 138.99 1402.25 136.00 C 1406.43 135.55 1410.55 135.15 1414.80 134.77 C 1414.87 139.43 1415.02 144.11 1415.23 148.78 C 1417.70 147.53 1420.10 145.82 1422.20 143.97 C 1424.51 144.64 1428.86 144.46 1429.23 147.84 C 1430.32 155.06 1427.81 162.38 1427.58 169.58 C 1426.17 178.41 1426.65 187.67 1424.20 196.26 C 1419.14 200.77 1411.20 199.33 1405.04 198.35 C 1405.15 192.93 1405.26 187.50 1405.39 182.08 C 1402.29 188.77 1405.62 199.14 1398.03 203.12 C 1395.43 205.38 1391.98 204.15 1389.01 203.59 C 1388.26 206.80 1387.49 210.01 1386.84 213.25 C 1382.96 212.38 1378.78 211.98 1375.21 214.09 C 1373.76 211.98 1373.19 208.37 1370.10 208.24 C 1365.07 207.11 1360.04 208.91 1355.02 208.98 C 1354.12 204.96 1353.94 200.81 1353.46 196.75 C 1352.87 199.66 1351.90 202.53 1351.46 205.47 C 1349.25 204.41 1347.09 203.28 1344.95 202.14 C 1343.73 203.44 1342.51 204.74 1341.29 206.03 C 1341.24 205.45 1341.13 204.29 1341.08 203.71 C 1337.11 204.92 1332.16 207.40 1328.35 204.75 C 1326.20 201.94 1327.35 197.91 1326.60 194.64 C 1323.71 195.68 1320.82 196.71 1317.98 197.87 C 1317.96 200.67 1317.91 206.28 1317.88 209.09 C 1315.53 208.75 1310.82 208.08 1308.47 207.74 C 1307.90 206.66 1307.35 205.59 1306.81 204.51 C 1305.94 204.96 1305.08 205.40 1304.24 205.85 C 1301.39 203.88 1298.10 202.63 1294.61 203.30 C 1290.04 204.03 1286.07 200.45 1284.88 196.20 C 1282.45 193.90 1278.99 193.18 1276.00 191.91 C 1276.53 176.70 1276.84 161.48 1277.07 146.27 C 1285.19 145.98 1293.27 144.33 1301.41 144.55 C 1304.78 144.46 1305.99 147.85 1307.55 150.19 C 1307.83 148.92 1308.13 147.66 1308.43 146.39 C 1314.24 144.68 1320.10 142.80 1325.27 139.54 C 1326.54 145.15 1328.90 150.61 1328.35 156.51 C 1330.87 155.94 1333.42 155.47 1335.98 155.02 C 1336.86 153.16 1337.75 151.30 1338.72 149.48 C 1339.81 152.27 1340.56 155.18 1341.34 158.07 C 1344.19 151.62 1348.72 145.85 1349.97 138.77 C 1351.18 140.30 1352.36 141.86 1353.59 143.40 L 1353.97 137.77 C 1354.84 140.37 1355.96 142.99 1357.05 145.54 C 1357.53 144.08 1358.50 141.15 1358.98 139.69 C 1364.59 139.52 1369.68 136.95 1374.93 135.27 Z" />
<path fill="#7f3f7f" fill-opacity="0" d=" M 1456.74 240.74 C 1463.16 234.85 1471.93 231.49 1480.62 231.43 C 1486.58 231.23 1490.75 235.56 1494.96 239.01 C 1493.20 253.22 1490.77 267.34 1488.61 281.49 C 1487.59 287.67 1485.39 295.92 1478.46 297.63 C 1462.34 303.12 1446.06 308.49 1429.28 311.50 C 1421.62 314.29 1413.38 315.63 1406.22 319.67 C 1402.26 321.19 1397.96 322.82 1395.92 326.86 C 1393.16 331.97 1387.45 333.96 1383.20 337.50 C 1381.81 337.49 1380.43 337.47 1379.06 337.46 C 1377.96 341.22 1373.96 344.63 1370.51 341.47 C 1369.07 347.67 1364.01 351.87 1358.20 353.96 C 1356.55 359.95 1350.75 362.73 1346.47 366.55 C 1341.16 371.55 1334.27 374.93 1330.51 381.47 C 1328.77 384.67 1325.52 386.33 1322.39 387.84 C 1325.72 397.45 1335.60 402.34 1343.67 407.41 C 1347.57 409.52 1344.92 414.84 1345.40 418.07 C 1344.02 432.35 1344.79 447.06 1339.85 460.75 C 1336.70 460.61 1333.46 460.53 1330.34 460.57 C 1329.55 459.62 1328.79 458.68 1328.03 457.75 C 1324.72 461.72 1320.50 457.81 1316.79 456.89 C 1312.37 456.19 1308.02 455.14 1303.89 453.42 C 1302.58 454.52 1301.28 455.61 1299.98 456.69 C 1291.75 451.26 1282.18 448.77 1273.04 445.43 C 1268.57 444.16 1270.60 438.20 1269.47 434.69 C 1268.65 436.58 1267.85 438.47 1267.09 440.37 C 1263.93 436.06 1261.95 430.57 1256.57 428.44 C 1255.08 425.95 1254.10 423.07 1251.72 421.30 C 1249.41 419.02 1245.42 417.27 1247.13 412.98 C 1246.73 397.68 1247.06 382.38 1246.66 367.09 C 1246.52 363.08 1249.29 359.64 1251.97 356.97 C 1255.83 353.88 1260.79 356.19 1265.10 356.83 C 1269.23 350.83 1271.04 343.92 1271.91 336.76 C 1274.85 333.52 1281.37 335.11 1283.89 330.85 C 1286.64 326.03 1291.28 323.55 1296.62 322.60 C 1297.12 318.26 1297.65 313.92 1298.25 309.59 C 1304.74 307.37 1311.27 304.96 1317.04 301.16 C 1324.30 297.30 1328.32 289.76 1334.25 284.37 C 1335.95 280.98 1333.47 273.59 1338.21 272.50 C 1341.17 272.57 1343.65 274.56 1346.16 275.95 C 1347.26 273.56 1348.27 271.14 1349.30 268.72 C 1352.25 268.76 1355.21 268.83 1358.17 269.13 C 1361.36 264.28 1366.94 262.20 1372.00 259.91 C 1375.39 258.55 1377.13 255.19 1378.84 252.19 C 1379.55 252.87 1380.27 253.55 1381.00 254.24 C 1382.84 253.36 1384.72 252.57 1386.63 251.82 C 1386.93 253.35 1387.25 254.87 1387.60 256.40 C 1388.84 254.09 1390.05 251.76 1391.30 249.45 C 1394.63 250.19 1398.09 251.01 1401.33 252.19 C 1402.45 250.40 1403.08 247.24 1405.72 247.33 C 1413.39 246.94 1420.90 250.79 1428.59 249.21 C 1438.09 247.00 1448.68 246.98 1456.74 240.74 Z" />

<path fill="#7f3f7f" fill-opacity="0" d=" M 822.86 594.23 C 821.07 595.98 819.62 591.97 822.14 592.78 C 822.32 593.14 822.68 593.87 822.86 594.23 Z" />
<path fill="#2a3f2a" fill-opacity="0" d=" M 848.78 555.08 C 846.93 553.47 849.60 552.02 850.42 554.11 C 850.01 554.35 849.19 554.84 848.78 555.08 Z" />
<path fill="#7f487f" fill-opacity="0" d=" M 811.05 565.59 C 814.91 572.95 818.03 580.69 820.91 588.48 C 815.24 582.27 812.22 573.81 811.05 565.59 Z" />
<path fill="#7f5f7f" fill-opacity="0" d=" M 819.54 589.27 C 820.40 588.12 822.37 589.58 821.46 590.73 C 820.57 591.86 818.61 590.40 819.54 589.27 Z" />
<path fill="#0a0f0a" opacity="0.08" d=" M 820.12 598.71 C 822.57 603.15 824.89 607.75 826.08 612.72 C 825.74 612.94 825.06 613.38 824.72 613.59 C 824.49 611.89 824.25 610.20 824.03 608.52 C 823.37 608.82 822.72 609.14 822.08 609.47 C 821.38 605.89 820.61 602.32 820.12 598.71 Z" />
</g>
<g target="53" id="#00bf00fe">
<path fill="#00bf00" fill-opacity="0" d=" M 905.26 372.04 C 905.88 372.07 907.12 372.13 907.74 372.16 C 910.28 375.57 913.43 378.51 915.94 381.94 C 918.81 389.04 921.15 396.80 926.50 402.55 C 930.48 406.16 936.58 404.92 940.81 408.16 C 948.11 412.52 951.49 420.62 956.89 426.82 C 960.62 431.31 961.45 437.27 963.68 442.50 C 966.05 446.30 970.26 448.69 971.97 453.00 C 973.46 457.04 976.42 460.21 980.50 461.65 C 980.82 460.00 981.16 458.35 981.51 456.71 C 982.89 464.20 987.44 470.22 991.63 476.35 C 995.98 484.92 996.81 494.66 999.25 503.84 C 1000.00 507.80 1001.79 511.85 1001.02 515.97 C 1000.30 518.84 1000.20 521.81 1000.36 524.76 C 999.85 527.19 999.02 529.50 998.48 531.94 C 995.31 530.05 992.30 524.93 988.09 527.12 C 980.02 531.33 972.76 537.41 963.81 539.75 C 957.59 541.39 950.68 539.39 944.88 542.64 C 939.46 545.74 933.81 548.76 927.59 549.78 C 923.36 550.51 918.73 551.27 915.80 554.79 C 912.04 558.33 912.87 563.85 912.51 568.54 C 906.09 564.89 901.14 559.26 895.08 555.15 C 888.85 551.90 882.21 549.45 876.25 545.70 C 872.49 543.05 871.28 538.18 868.03 535.07 C 865.25 533.03 861.32 532.83 859.23 529.89 C 856.72 526.68 853.77 523.88 850.13 522.01 C 847.01 518.78 846.06 514.00 844.36 509.93 C 843.01 510.39 841.67 510.87 840.34 511.35 C 841.41 516.02 842.61 520.68 843.49 525.40 C 839.43 514.13 835.08 502.96 831.30 491.60 C 830.27 489.22 829.63 486.02 826.86 485.11 C 824.07 484.08 821.18 483.38 818.32 482.62 C 814.14 481.17 810.51 484.53 806.80 485.87 C 803.81 487.59 800.35 486.60 797.17 486.23 C 797.99 482.40 798.67 478.53 799.47 474.69 C 788.04 471.63 776.58 468.60 764.90 466.67 C 767.17 461.71 767.46 454.67 773.09 452.13 C 784.67 444.87 798.59 442.33 809.75 434.33 C 809.41 427.62 809.41 420.82 807.78 414.26 C 806.35 409.77 810.73 406.35 812.85 402.88 C 816.89 396.88 827.81 398.10 827.66 389.04 C 833.89 387.33 841.15 388.67 846.59 384.58 C 851.49 380.66 858.18 381.19 863.96 379.65 C 867.94 378.73 871.15 376.02 874.47 373.78 C 875.13 375.72 875.81 377.66 876.51 379.60 C 881.54 379.62 884.65 375.78 887.72 372.53 C 890.22 374.83 892.73 377.16 895.25 379.46 C 896.41 377.76 897.55 376.06 898.67 374.33 C 900.32 375.15 901.98 376.00 903.64 376.85 C 904.16 375.24 904.71 373.64 905.26 372.04 Z" />
</g>
<g target="80" id="#7fbf00fe">
<path fill="#7fbf00" fill-opacity="0" d=" M 1360.80 425.86 C 1362.80 423.74 1364.64 421.49 1366.23 419.05 C 1366.06 420.19 1365.90 421.33 1365.76 422.48 C 1367.73 421.55 1369.72 420.54 1371.90 420.16 C 1375.59 421.84 1378.23 425.10 1381.30 427.69 C 1386.58 432.85 1393.33 436.13 1398.57 441.36 C 1399.73 444.04 1399.83 447.05 1400.47 449.92 C 1401.01 449.91 1402.08 449.91 1402.62 449.90 C 1402.99 448.33 1403.72 445.17 1404.08 443.59 C 1412.67 442.55 1420.15 447.93 1428.62 448.22 C 1449.08 449.53 1469.75 454.83 1487.17 465.88 C 1491.05 470.50 1486.31 477.13 1486.20 482.33 C 1494.56 483.70 1505.01 485.64 1508.06 494.81 C 1508.95 501.33 1508.29 508.92 1504.46 514.46 C 1504.20 510.38 1504.95 506.35 1505.79 502.38 C 1499.57 501.96 1493.31 501.76 1487.14 502.85 C 1487.00 505.04 1487.77 507.61 1486.48 509.56 C 1483.60 512.24 1479.71 513.37 1476.23 515.03 C 1475.51 518.23 1475.28 522.21 1472.11 524.04 C 1468.15 526.06 1463.22 525.62 1459.70 528.65 C 1454.85 532.16 1456.30 540.07 1450.74 542.85 C 1444.18 546.51 1436.84 548.58 1430.42 552.52 C 1426.91 554.74 1422.90 556.53 1418.67 556.19 C 1403.47 555.28 1388.25 554.70 1373.06 553.84 C 1335.84 550.63 1298.38 549.91 1261.37 544.52 C 1246.32 542.19 1231.48 538.44 1216.33 536.90 C 1209.59 535.75 1203.17 538.61 1197.34 541.53 C 1193.57 544.00 1190.14 547.19 1185.79 548.60 C 1166.00 554.53 1146.04 559.83 1126.36 566.12 C 1117.79 563.77 1108.11 560.25 1099.93 565.89 C 1096.47 566.86 1095.90 570.35 1095.66 573.35 C 1090.96 572.48 1086.13 572.31 1081.52 570.99 C 1076.41 568.98 1073.40 563.90 1069.72 560.16 C 1060.43 559.48 1051.72 555.52 1044.58 549.67 C 1038.49 546.96 1033.75 542.41 1029.40 537.49 C 1032.45 534.87 1036.29 532.88 1038.46 529.36 C 1040.01 521.22 1036.01 513.38 1036.40 505.32 C 1042.10 494.58 1055.12 489.32 1059.39 477.54 C 1059.66 468.00 1056.69 458.76 1056.04 449.29 C 1061.73 452.17 1066.18 457.69 1072.97 458.06 C 1085.00 460.38 1098.83 461.65 1107.31 471.66 C 1108.80 476.65 1109.41 481.86 1110.04 487.03 C 1111.39 500.44 1114.85 513.90 1112.59 527.43 C 1115.45 522.39 1117.85 517.06 1121.71 512.67 C 1123.90 510.18 1124.63 506.90 1125.64 503.83 C 1132.37 503.02 1139.20 503.45 1145.94 502.49 C 1145.74 499.68 1146.02 497.08 1145.94 494.32 C 1148.85 495.98 1151.89 497.39 1155.01 498.64 C 1155.24 485.07 1151.78 471.73 1152.30 458.17 C 1154.45 446.72 1164.55 436.65 1176.51 436.47 C 1181.74 436.05 1185.27 440.08 1189.14 442.80 C 1192.55 445.55 1196.94 448.41 1196.36 453.58 C 1197.15 462.21 1197.29 470.91 1198.05 479.56 C 1207.92 478.41 1217.95 480.24 1227.78 478.07 C 1227.81 478.79 1227.88 480.22 1227.91 480.93 C 1229.11 478.19 1230.99 475.71 1234.05 475.00 C 1249.12 469.60 1265.99 462.56 1282.04 467.71 C 1281.86 475.46 1281.94 483.22 1280.95 490.93 L 1281.83 490.98 C 1281.88 489.66 1281.95 488.34 1282.04 487.03 C 1282.80 487.72 1283.57 488.42 1284.36 489.12 C 1284.70 482.41 1284.94 475.71 1285.11 469.01 C 1285.81 469.01 1287.21 469.01 1287.91 469.01 C 1287.60 475.05 1287.18 481.14 1287.68 487.20 C 1289.10 486.44 1290.52 485.65 1291.94 484.84 C 1292.20 479.66 1292.32 474.47 1292.95 469.33 C 1295.14 470.31 1299.47 470.34 1300.54 473.33 C 1300.94 476.75 1300.22 480.19 1300.04 483.63 C 1302.37 483.15 1304.78 482.42 1307.18 482.99 C 1314.12 484.88 1321.81 483.75 1327.79 488.63 C 1328.97 485.84 1329.22 481.45 1332.96 481.06 C 1341.00 479.65 1349.09 478.36 1356.98 476.14 C 1355.22 463.11 1357.60 450.07 1358.09 437.04 C 1358.62 433.26 1357.92 428.78 1360.80 425.86 M 1377.98 491.99 C 1378.04 493.97 1378.16 497.92 1378.22 499.90 C 1382.33 499.54 1384.47 497.38 1384.64 493.42 C 1382.40 492.95 1380.19 492.48 1377.98 491.99 Z" />
</g>
<g target="10" id="#7fbf7ffe">
<path fill="#7fbf7f" fill-opacity="0" d=" M 764.90 466.67 C 776.58 468.60 788.04 471.63 799.47 474.69 C 798.67 478.53 797.99 482.40 797.17 486.23 C 800.35 486.60 803.81 487.59 806.80 485.87 C 810.51 484.53 814.14 481.17 818.32 482.62 C 821.18 483.38 824.07 484.08 826.86 485.11 C 829.63 486.02 830.27 489.22 831.30 491.60 C 835.08 502.96 839.43 514.13 843.49 525.40 C 845.24 531.79 843.93 538.59 846.03 544.90 C 847.14 548.41 848.86 551.74 851.16 554.63 L 850.42 554.11 C 849.60 552.02 846.93 553.47 848.78 555.08 C 847.02 557.70 845.29 560.33 843.59 562.98 C 842.06 559.94 840.62 556.82 838.97 553.89 C 837.28 551.14 833.96 550.26 831.19 549.04 C 832.66 553.57 834.34 558.04 835.57 562.65 C 833.12 558.40 831.18 553.88 829.44 549.30 C 827.31 549.29 825.19 549.22 823.08 549.08 C 822.35 552.83 820.33 556.86 822.30 560.58 C 824.44 565.05 826.48 569.59 827.64 574.44 C 824.23 580.84 824.50 588.35 827.91 594.68 C 825.99 594.00 824.10 593.27 822.14 592.78 C 819.62 591.97 821.07 595.98 822.86 594.23 C 825.15 599.67 827.54 605.07 829.41 610.68 C 828.29 611.35 827.17 612.02 826.08 612.72 C 824.89 607.75 822.57 603.15 820.12 598.71 C 820.61 602.32 821.38 605.89 822.08 609.47 C 822.72 609.14 823.37 608.82 824.03 608.52 C 824.25 610.20 824.49 611.89 824.72 613.59 C 820.65 608.63 815.25 605.20 809.96 601.71 C 808.10 605.13 806.59 609.02 802.99 611.06 C 798.82 615.19 793.07 612.67 788.33 611.61 C 788.43 616.67 788.52 621.87 786.62 626.68 C 785.18 631.50 780.28 634.30 778.58 638.97 C 777.57 644.92 778.91 652.14 784.18 655.76 C 786.91 657.35 790.14 657.61 793.21 658.11 C 792.59 661.27 792.90 665.02 790.77 667.73 C 788.31 671.28 784.34 673.44 781.88 676.95 C 785.16 682.62 784.32 689.71 781.13 695.23 C 776.82 701.62 770.64 706.42 765.87 712.43 C 761.82 711.31 757.56 710.33 754.67 707.08 C 751.12 702.93 745.26 704.87 740.57 703.67 C 735.62 706.91 730.89 710.61 727.35 715.40 C 726.04 714.21 724.75 713.02 723.46 711.84 C 723.61 714.32 723.82 716.80 724.04 719.29 C 720.96 720.51 717.71 721.17 714.61 722.28 C 712.96 718.84 711.01 715.50 708.69 712.48 C 706.58 711.59 704.21 712.03 701.99 711.96 C 702.92 710.06 703.88 708.19 704.85 706.31 C 703.10 706.41 701.36 706.51 699.62 706.60 C 697.36 704.55 695.15 702.41 692.81 700.51 C 688.78 700.94 685.32 703.30 681.94 705.35 C 679.85 700.09 674.81 696.92 669.21 696.54 C 665.62 696.82 662.16 697.75 658.77 698.87 C 661.22 701.45 664.24 703.34 667.41 704.93 C 664.91 706.73 662.41 708.54 659.94 710.37 C 658.34 709.15 657.03 707.22 655.07 706.69 C 647.86 708.14 641.73 712.52 634.67 714.43 C 636.18 709.13 637.17 703.40 635.60 698.00 C 632.80 700.42 630.06 702.95 626.91 704.92 C 623.98 706.79 620.39 705.91 617.19 705.56 C 617.45 706.99 617.71 708.42 617.98 709.86 C 617.07 709.52 616.16 709.19 615.27 708.87 C 609.05 700.26 603.03 691.52 597.46 682.48 C 593.51 675.16 585.36 670.19 584.54 661.35 C 588.62 658.83 592.99 656.86 597.56 655.42 C 615.71 648.01 632.66 637.80 651.18 631.28 C 662.35 627.03 671.56 619.10 680.90 611.92 C 683.07 604.29 684.88 595.44 680.97 587.97 C 678.48 582.56 679.72 576.39 680.12 570.70 C 687.90 567.65 697.40 565.78 702.79 558.75 C 706.45 554.58 701.57 548.90 704.42 544.53 C 706.23 541.13 709.73 539.27 712.98 537.50 C 712.17 533.68 710.36 529.40 712.70 525.74 C 714.67 521.37 719.79 520.19 724.03 519.39 C 724.24 517.47 724.42 515.56 724.58 513.65 C 729.54 510.35 733.91 506.26 738.42 502.40 C 741.80 499.31 747.89 501.99 750.07 497.08 C 757.03 488.09 760.15 476.89 764.90 466.67 M 811.05 565.59 C 812.22 573.81 815.24 582.27 820.91 588.48 C 818.03 580.69 814.91 572.95 811.05 565.59 M 819.54 589.27 C 818.61 590.40 820.57 591.86 821.46 590.73 C 822.37 589.58 820.40 588.12 819.54 589.27 M 732.23 699.55 C 730.99 699.99 730.75 702.19 732.20 702.52 C 734.17 702.78 734.36 698.94 732.23 699.55 Z" />
</g>
<g target="11" id="#003f7ffe">
<path fill="#003f7f" fill-opacity="0" d=" M 1487.14 502.85 C 1493.31 501.76 1499.57 501.96 1505.79 502.38 C 1504.95 506.35 1504.20 510.38 1504.46 514.46 C 1504.47 518.39 1508.28 520.85 1511.78 521.46 C 1515.32 521.67 1518.75 520.43 1522.22 519.81 C 1522.38 521.76 1522.52 523.72 1522.63 525.68 C 1524.32 527.52 1525.99 529.38 1527.66 531.25 C 1526.14 539.42 1524.96 547.66 1522.90 555.73 C 1517.18 558.81 1511.16 561.84 1506.65 566.59 C 1504.46 571.19 1505.92 579.12 1499.42 580.36 C 1491.82 581.32 1487.60 590.14 1479.40 588.70 C 1475.88 592.27 1471.52 594.98 1466.44 595.46 C 1466.11 598.29 1465.58 601.09 1465.35 603.93 C 1456.33 605.80 1457.09 616.24 1451.95 621.86 C 1442.38 626.65 1430.55 627.68 1423.17 636.19 C 1419.86 639.80 1420.50 645.19 1418.28 649.24 C 1412.52 653.84 1406.42 658.04 1400.21 662.03 C 1397.54 658.26 1393.92 652.87 1388.56 654.60 C 1386.09 657.24 1383.81 660.09 1380.56 661.84 C 1378.30 662.96 1378.26 665.70 1377.70 667.83 C 1376.89 672.40 1374.78 676.92 1375.67 681.64 C 1377.63 683.24 1380.02 684.21 1382.25 685.40 C 1382.07 690.17 1381.51 694.89 1380.57 699.57 C 1378.03 704.18 1372.04 706.26 1370.75 711.66 C 1368.40 721.95 1366.39 732.32 1363.44 742.46 C 1365.27 744.29 1367.78 745.91 1368.34 748.64 C 1368.99 753.36 1368.07 758.13 1368.44 762.87 C 1369.30 766.01 1371.66 768.56 1372.27 771.80 C 1372.84 775.20 1372.35 778.63 1371.99 782.03 C 1371.18 787.05 1366.48 790.59 1366.12 795.77 C 1365.44 803.40 1363.68 810.87 1362.31 818.38 C 1361.66 821.74 1358.09 823.11 1355.56 824.79 C 1349.89 828.73 1342.59 828.77 1335.99 828.15 C 1326.00 827.40 1315.85 827.44 1306.08 825.01 C 1302.20 824.09 1298.22 823.69 1294.26 823.97 C 1289.05 824.19 1283.69 819.60 1278.87 823.02 C 1273.24 825.20 1269.55 829.96 1266.59 835.02 C 1262.73 834.24 1258.88 833.38 1255.13 832.20 C 1253.37 834.74 1251.62 837.29 1249.85 839.82 C 1245.33 838.85 1240.81 837.90 1236.31 836.97 C 1234.86 839.18 1233.46 841.44 1232.03 843.66 C 1231.07 843.12 1230.13 842.57 1229.20 842.05 C 1227.42 844.70 1225.57 847.30 1223.81 849.97 C 1213.08 846.53 1202.03 844.29 1191.28 840.97 C 1190.38 843.18 1189.50 845.39 1188.65 847.62 C 1183.90 846.22 1179.09 845.04 1174.32 843.76 C 1173.69 840.29 1173.07 836.83 1172.45 833.38 C 1169.29 832.93 1166.34 832.16 1163.20 832.28 C 1161.77 833.57 1158.92 836.13 1157.49 837.41 C 1155.37 836.85 1153.28 836.11 1151.10 835.90 C 1148.07 836.82 1145.92 839.45 1142.99 840.57 C 1138.79 840.60 1134.98 838.40 1131.07 837.15 C 1130.22 839.20 1129.42 841.28 1128.65 843.38 C 1132.32 847.86 1137.41 852.00 1138.10 858.09 C 1139.02 863.21 1138.61 868.91 1135.42 873.21 C 1132.14 870.80 1126.56 865.37 1123.11 870.07 C 1117.81 876.45 1111.83 882.19 1105.64 887.70 C 1103.47 883.89 1102.93 877.89 1097.68 877.27 C 1091.60 876.84 1088.84 883.90 1083.82 885.94 C 1078.39 886.06 1072.76 884.47 1067.53 886.67 C 1063.29 889.00 1056.41 885.53 1055.65 892.76 C 1053.88 893.23 1051.97 893.42 1050.41 894.44 C 1045.81 900.83 1048.28 909.99 1042.90 915.91 C 1039.93 918.27 1035.41 916.84 1033.88 913.56 C 1031.67 909.02 1030.98 903.89 1029.65 899.10 C 1027.23 898.62 1024.81 898.18 1022.40 897.73 C 1021.45 894.09 1020.87 890.24 1019.00 886.94 C 1016.04 884.11 1010.75 884.01 1009.13 879.80 C 1006.11 873.88 1007.93 867.02 1010.20 861.19 C 1012.21 856.37 1012.18 851.00 1014.25 846.21 C 1016.96 843.74 1020.29 842.16 1023.59 840.64 C 1022.85 837.79 1021.82 834.96 1021.73 832.00 C 1022.12 828.03 1024.25 824.41 1024.39 820.41 C 1024.70 814.54 1021.98 806.91 1027.70 802.82 C 1036.01 797.82 1046.25 795.73 1055.83 797.50 C 1060.46 790.61 1065.15 783.77 1069.91 776.97 C 1065.91 775.03 1061.88 773.19 1057.98 771.08 C 1062.85 762.45 1067.51 753.60 1074.25 746.25 C 1080.09 737.67 1085.29 728.64 1090.44 719.63 C 1084.77 717.72 1079.32 714.78 1073.30 714.20 C 1067.44 714.41 1061.45 715.21 1055.95 717.25 C 1050.12 720.90 1049.33 728.38 1048.49 734.59 C 1043.45 733.69 1038.29 731.55 1033.11 732.71 C 1029.31 733.86 1025.87 736.01 1022.19 737.44 C 1022.53 734.86 1022.95 732.29 1023.36 729.71 C 1021.91 729.29 1020.47 728.87 1019.04 728.47 C 1023.60 720.78 1026.60 712.03 1025.25 703.00 C 1031.88 700.84 1038.24 697.82 1043.63 693.34 C 1038.06 688.35 1032.06 683.10 1030.82 675.23 C 1033.94 672.37 1036.92 669.37 1039.93 666.38 C 1037.27 662.04 1034.42 657.77 1031.11 653.91 C 1026.78 648.97 1020.13 647.26 1014.61 644.18 C 1012.08 641.35 1011.77 637.27 1010.86 633.73 C 1016.64 632.50 1022.58 630.96 1028.52 632.19 C 1034.23 633.69 1040.03 632.69 1045.81 632.73 C 1056.39 633.68 1066.97 635.12 1077.30 637.63 C 1077.55 640.19 1077.79 642.75 1078.10 645.32 C 1084.19 645.10 1088.79 640.58 1094.73 639.72 C 1097.86 638.94 1100.30 636.01 1103.69 636.27 C 1106.41 636.38 1108.99 637.32 1111.60 638.07 C 1114.62 636.19 1117.76 633.98 1121.59 634.55 C 1125.88 635.35 1129.56 637.88 1133.32 639.97 C 1136.65 635.49 1139.74 630.84 1142.75 626.14 C 1139.43 624.45 1135.16 623.18 1133.77 619.32 C 1131.54 613.86 1130.82 607.95 1129.88 602.17 C 1125.26 601.90 1120.67 601.62 1116.06 601.45 C 1119.30 589.62 1124.07 578.21 1126.36 566.12 C 1146.04 559.83 1166.00 554.53 1185.79 548.60 C 1190.14 547.19 1193.57 544.00 1197.34 541.53 C 1203.17 538.61 1209.59 535.75 1216.33 536.90 C 1231.48 538.44 1246.32 542.19 1261.37 544.52 C 1298.38 549.91 1335.84 550.63 1373.06 553.84 C 1388.25 554.70 1403.47 555.28 1418.67 556.19 C 1422.90 556.53 1426.91 554.74 1430.42 552.52 C 1436.84 548.58 1444.18 546.51 1450.74 542.85 C 1456.30 540.07 1454.85 532.16 1459.70 528.65 C 1463.22 525.62 1468.15 526.06 1472.11 524.04 C 1475.28 522.21 1475.51 518.23 1476.23 515.03 C 1479.71 513.37 1483.60 512.24 1486.48 509.56 C 1487.77 507.61 1487.00 505.04 1487.14 502.85 Z" />
</g>
<g target="49" id="#3f3f00fe">
<path fill="#3f3f00" fill-opacity="0" d=" M 561.78 669.57 C 568.81 665.40 576.85 663.82 584.54 661.35 C 585.36 670.19 593.51 675.16 597.46 682.48 C 603.03 691.52 609.05 700.26 615.27 708.87 C 618.59 714.43 618.32 721.44 615.74 727.23 C 616.70 727.47 617.66 727.70 618.64 727.95 C 619.97 724.81 621.26 721.67 622.69 718.58 C 624.32 720.15 625.94 721.74 627.57 723.33 C 629.97 720.39 632.76 717.73 634.67 714.43 C 641.73 712.52 647.86 708.14 655.07 706.69 C 657.03 707.22 658.34 709.15 659.94 710.37 C 662.41 708.54 664.91 706.73 667.41 704.93 C 664.24 703.34 661.22 701.45 658.77 698.87 C 662.16 697.75 665.62 696.82 669.21 696.54 C 674.81 696.92 679.85 700.09 681.94 705.35 C 685.32 703.30 688.78 700.94 692.81 700.51 C 695.15 702.41 697.36 704.55 699.62 706.60 C 701.36 706.51 703.10 706.41 704.85 706.31 C 703.88 708.19 702.92 710.06 701.99 711.96 C 704.21 712.03 706.58 711.59 708.69 712.48 C 711.01 715.50 712.96 718.84 714.61 722.28 C 711.15 723.75 708.01 727.49 703.95 726.41 C 702.72 726.16 700.28 725.66 699.05 725.42 C 695.65 726.57 692.06 726.57 688.55 726.06 C 684.38 732.93 681.28 740.69 675.14 746.15 C 670.72 750.89 664.05 754.78 663.39 761.84 C 663.70 764.16 665.38 766.05 666.48 768.07 C 663.44 770.90 659.67 773.62 658.57 777.84 C 659.29 779.74 660.56 781.35 661.64 783.07 C 656.66 785.48 652.27 788.99 648.72 793.23 C 646.56 795.50 644.34 798.33 640.99 798.69 C 637.56 799.36 634.11 798.68 630.68 798.46 C 626.93 798.48 624.36 801.68 621.94 804.10 C 619.44 801.90 616.91 799.70 614.25 797.73 C 611.94 796.20 609.04 797.13 606.49 797.17 C 604.51 792.32 604.88 787.03 605.63 781.96 C 602.19 782.01 598.75 782.18 595.33 782.49 C 594.65 780.01 593.97 777.53 593.32 775.05 C 585.83 777.20 581.27 783.63 575.20 787.91 C 571.92 786.02 570.42 781.92 571.45 778.33 C 572.47 774.38 572.02 770.31 571.05 766.41 C 568.58 767.81 566.17 769.33 563.78 770.88 C 562.81 768.70 561.85 766.53 560.92 764.38 C 555.78 770.32 550.36 776.59 542.37 778.55 C 541.55 776.92 540.74 775.30 539.90 773.70 C 534.10 777.69 528.00 781.30 521.52 784.06 C 517.21 784.60 513.40 781.65 509.23 780.98 C 504.02 784.20 502.00 794.40 494.49 791.88 C 492.87 791.36 491.29 790.80 489.70 790.23 C 489.12 784.06 486.73 778.10 487.96 771.81 C 489.59 766.25 483.61 763.69 481.13 759.84 C 477.52 757.29 479.14 752.99 479.50 749.44 C 476.76 748.65 473.93 748.27 471.11 747.98 C 475.95 743.47 480.78 738.55 487.34 736.70 C 490.06 735.49 493.57 735.10 495.21 732.30 C 497.23 729.02 499.49 725.78 500.77 722.14 C 497.02 715.62 490.97 710.66 487.50 703.94 C 493.02 708.66 496.91 714.90 501.72 720.30 C 502.07 719.71 502.77 718.54 503.12 717.96 C 499.79 713.38 496.45 708.80 493.61 703.91 C 500.35 707.30 501.35 716.86 509.56 717.95 C 510.79 718.48 512.00 719.06 513.22 719.64 C 513.44 719.23 513.87 718.41 514.09 718.00 C 508.23 710.76 502.59 703.37 496.89 696.02 C 497.66 694.59 498.44 693.17 499.23 691.77 C 502.56 696.02 505.90 700.27 509.14 704.60 C 510.35 704.08 511.56 703.56 512.79 703.06 C 515.37 706.73 517.99 710.40 520.68 714.01 C 520.86 713.31 521.22 711.89 521.40 711.18 C 522.41 712.40 523.44 713.61 524.47 714.84 C 523.26 714.34 521.04 715.08 521.95 716.70 C 523.13 718.29 524.50 716.06 524.47 714.84 C 525.53 716.44 526.59 718.04 527.66 719.66 C 527.04 718.66 524.79 717.91 524.66 719.64 C 525.03 721.17 526.91 720.46 527.66 719.66 C 527.95 719.44 528.55 719.01 528.85 718.80 C 526.41 714.80 523.76 710.94 521.60 706.80 C 525.90 711.19 529.08 718.11 536.38 717.46 C 539.37 719.16 542.35 721.01 545.67 722.05 C 550.16 727.75 554.38 733.66 558.98 739.29 C 557.44 733.06 555.64 726.74 550.99 722.01 C 543.64 713.10 537.32 703.47 531.95 693.27 C 532.56 693.31 533.78 693.39 534.39 693.44 C 530.78 691.00 528.48 687.33 527.60 683.08 C 538.28 676.96 549.93 672.75 561.78 669.57 M 554.56 722.06 C 556.43 724.58 558.28 727.13 560.30 729.55 C 560.52 726.19 560.84 722.84 561.42 719.53 C 559.11 720.32 556.82 721.17 554.56 722.06 M 612.11 731.11 C 610.53 731.40 610.82 734.21 612.55 733.54 C 614.10 733.22 613.85 730.46 612.11 731.11 M 548.91 737.92 C 551.34 739.39 554.13 743.17 557.22 741.02 C 556.41 738.83 555.21 736.81 553.72 735.03 C 552.00 735.78 550.47 736.88 548.91 737.92 Z" />
</g>
<g target="38" id="#00bf7fff">
<path fill="#00bf7f" fill-opacity="0" d=" M 727.35 715.40 C 730.89 710.61 735.62 706.91 740.57 703.67 C 745.26 704.87 751.12 702.93 754.67 707.08 C 757.56 710.33 761.82 711.31 765.87 712.43 C 764.42 714.98 763.43 717.75 762.91 720.66 C 760.79 727.63 764.17 735.80 758.77 741.73 C 759.25 742.39 759.73 743.04 760.23 743.73 C 761.84 742.89 763.45 742.04 765.06 741.18 C 763.96 743.35 762.45 745.41 761.94 747.83 C 762.90 751.90 764.94 756.12 768.85 758.12 C 774.30 761.85 781.20 761.31 787.47 761.86 C 790.84 761.96 792.83 765.11 795.63 766.53 C 801.44 768.37 807.70 764.49 813.34 767.30 C 817.18 769.07 818.81 773.53 822.45 775.61 C 830.71 777.59 834.18 768.32 841.33 766.63 C 842.16 768.36 843.02 770.12 843.88 771.86 C 844.98 770.65 846.11 769.45 847.25 768.27 C 851.23 771.38 854.68 775.09 858.48 778.38 C 862.46 778.54 866.33 776.19 870.28 776.84 C 872.34 778.58 872.80 781.59 873.93 783.98 C 875.58 783.48 877.23 782.76 878.99 782.71 C 881.79 782.95 884.65 784.87 887.42 783.43 C 894.31 780.40 900.60 775.25 908.55 775.49 C 910.73 777.96 911.53 781.80 914.97 782.99 C 921.91 785.90 929.38 787.14 936.64 789.06 C 939.56 784.65 942.32 780.14 945.26 775.74 C 949.91 776.96 954.55 778.31 959.14 779.77 C 957.27 782.33 955.38 784.88 953.52 787.45 C 956.15 789.19 958.68 791.31 961.83 792.02 C 965.64 792.89 969.56 791.75 973.39 792.37 C 976.32 793.22 978.90 794.93 981.65 796.22 C 980.84 797.46 980.03 798.71 979.23 799.96 C 981.96 801.56 984.70 802.99 987.30 804.86 C 989.52 807.42 990.41 810.82 991.71 813.90 C 988.91 818.35 986.12 823.08 986.18 828.51 C 981.84 830.90 977.49 833.76 975.40 838.45 C 972.64 842.88 976.46 847.73 976.18 852.39 C 974.36 857.28 971.35 861.68 968.54 866.07 C 969.78 870.86 971.34 875.94 969.08 880.68 C 962.05 879.22 954.46 881.17 948.07 877.10 C 946.49 880.96 944.87 884.82 942.93 888.52 C 939.34 888.68 935.52 888.12 932.13 889.58 C 929.38 891.08 927.63 893.89 924.89 895.40 C 919.66 894.65 914.92 891.99 909.74 891.04 C 906.23 890.71 902.69 890.82 899.18 890.49 C 898.29 891.47 897.41 892.45 896.55 893.46 C 890.59 890.55 884.13 888.91 877.84 886.95 C 873.59 883.30 868.60 880.81 863.52 878.53 C 861.06 878.77 858.88 879.36 856.49 879.72 C 855.65 878.03 854.78 876.37 853.91 874.72 C 850.26 878.36 847.30 872.19 843.41 873.83 C 840.76 873.90 838.63 875.22 836.53 876.56 C 833.95 873.34 832.37 869.41 829.54 866.41 C 827.79 865.85 825.95 865.90 824.14 865.92 C 823.01 863.49 821.88 861.06 820.77 858.67 C 819.60 859.51 818.45 860.38 817.32 861.26 C 817.38 864.67 818.67 868.99 815.54 871.49 C 811.56 874.02 806.70 872.38 802.34 872.78 C 797.03 873.74 791.78 875.30 786.32 875.15 C 786.28 876.77 786.27 878.41 786.23 880.05 C 784.75 880.77 783.27 881.49 781.81 882.23 C 781.34 884.42 782.25 887.48 779.84 888.62 C 776.43 890.53 773.26 892.86 769.81 894.68 C 765.77 895.59 763.20 891.07 759.37 890.70 C 755.53 890.21 751.23 889.62 748.69 886.33 C 745.31 882.00 742.69 877.15 739.75 872.53 C 740.61 872.29 742.32 871.80 743.18 871.55 C 740.24 864.76 734.79 859.06 727.25 857.84 C 726.17 861.72 723.61 864.87 721.02 867.85 C 718.30 866.48 715.63 864.94 712.70 864.11 C 710.58 864.50 708.68 865.63 706.73 866.48 C 707.73 871.81 709.71 876.87 711.85 881.84 C 711.03 883.23 710.22 884.62 709.43 886.05 C 704.98 878.91 699.61 872.40 695.27 865.19 C 693.63 865.69 691.99 866.22 690.36 866.76 C 689.79 865.58 689.22 864.41 688.67 863.26 C 687.86 863.21 686.25 863.11 685.44 863.06 C 687.44 870.93 693.41 876.72 697.59 883.40 C 699.36 885.87 698.44 888.99 697.88 891.69 C 689.94 881.69 682.73 871.14 675.01 860.96 C 672.12 857.48 671.47 852.85 670.57 848.59 C 671.32 848.48 672.82 848.26 673.57 848.14 C 672.20 847.61 670.82 847.11 669.46 846.62 C 669.48 847.99 669.50 849.39 669.53 850.78 C 663.16 850.17 658.46 854.98 653.73 858.43 C 653.49 858.17 653.02 857.64 652.78 857.38 C 649.63 853.78 646.40 850.20 643.52 846.42 C 639.77 841.38 642.53 834.22 638.83 829.19 C 636.86 826.33 634.45 823.82 632.26 821.16 C 629.22 821.90 626.25 822.78 623.25 823.63 C 624.20 820.90 625.58 818.37 626.71 815.73 C 627.96 813.74 625.66 812.07 624.86 810.41 C 624.49 808.07 623.41 805.93 621.94 804.10 C 624.36 801.68 626.93 798.48 630.68 798.46 C 634.11 798.68 637.56 799.36 640.99 798.69 C 644.34 798.33 646.56 795.50 648.72 793.23 C 652.27 788.99 656.66 785.48 661.64 783.07 C 660.56 781.35 659.29 779.74 658.57 777.84 C 659.67 773.62 663.44 770.90 666.48 768.07 C 665.38 766.05 663.70 764.16 663.39 761.84 C 664.05 754.78 670.72 750.89 675.14 746.15 C 681.28 740.69 684.38 732.93 688.55 726.06 C 692.06 726.57 695.65 726.57 699.05 725.42 C 700.28 725.66 702.72 726.16 703.95 726.41 C 708.01 727.49 711.15 723.75 714.61 722.28 C 717.71 721.17 720.96 720.51 724.04 719.29 C 725.21 718.05 726.28 716.72 727.35 715.40 M 959.68 842.53 C 959.52 844.37 963.54 845.06 964.06 843.38 C 963.09 842.22 960.96 841.66 959.68 842.53 Z" />
<path fill="#2c2c00" fill-opacity="0" d=" M 515.87 704.50 C 518.06 706.41 519.90 708.69 521.40 711.18 C 519.04 709.42 517.19 707.11 515.87 704.50 Z" />
<path fill="#0c0c00" fill-opacity="0" d=" M 521.95 716.70 C 521.04 715.08 523.26 714.34 524.47 714.84 C 524.50 716.06 523.13 718.29 521.95 716.70 Z" />
</g>
<g target="61" id="#3fbf00ff">
<path fill="#3fbf00" fill-opacity="0" d=" M 471.11 747.98 C 473.93 748.27 476.76 748.65 479.50 749.44 C 479.14 752.99 477.52 757.29 481.13 759.84 C 483.61 763.69 489.59 766.25 487.96 771.81 C 486.73 778.10 489.12 784.06 489.70 790.23 C 491.29 790.80 492.87 791.36 494.49 791.88 C 491.96 796.78 486.79 798.56 481.97 800.33 C 476.66 803.32 479.09 809.79 479.83 814.52 C 480.40 818.93 484.18 821.57 487.65 823.77 C 483.41 828.12 478.52 832.86 478.50 839.40 C 474.77 841.19 471.41 843.64 468.16 846.18 C 468.11 850.31 472.46 856.52 467.63 859.54 C 464.89 862.52 459.73 864.33 459.33 868.83 C 460.32 870.15 461.70 871.09 463.04 872.04 C 467.52 875.04 470.21 879.88 473.94 883.68 C 470.53 886.21 465.97 887.88 463.96 891.89 C 463.15 894.34 464.76 896.98 464.04 899.45 C 462.93 901.29 461.78 903.12 460.59 904.94 C 462.07 908.02 461.57 911.30 461.06 914.52 C 462.08 916.43 463.62 917.99 464.99 919.65 C 464.01 919.86 463.03 920.07 462.06 920.30 C 461.05 924.16 458.06 926.95 455.97 930.22 C 454.28 932.89 450.72 933.31 448.87 935.81 C 446.42 938.97 444.83 942.67 442.92 946.16 C 439.97 945.06 437.10 943.68 434.02 943.00 C 430.71 942.90 428.15 945.45 425.88 947.53 C 413.07 938.03 400.97 927.52 389.33 916.65 C 385.40 912.69 392.42 908.74 392.88 904.45 C 389.65 900.96 386.02 897.88 382.41 894.82 C 382.47 893.38 382.53 891.96 382.59 890.54 C 379.59 887.76 375.60 884.43 377.81 879.94 C 383.59 873.16 388.86 865.67 391.57 857.08 C 392.78 853.05 394.48 849.16 396.82 845.66 C 395.57 844.24 394.30 842.84 393.04 841.45 C 398.48 836.38 403.31 830.61 409.60 826.54 C 415.35 822.89 410.80 814.75 414.27 809.56 C 413.78 808.30 413.28 807.03 412.80 805.78 C 418.32 800.73 424.95 795.01 432.99 796.60 C 434.69 793.62 436.32 790.61 438.27 787.79 C 440.57 789.96 442.89 792.17 445.26 794.31 C 446.67 789.19 442.93 785.33 439.91 781.73 C 442.85 775.40 449.44 772.56 455.23 769.45 C 459.87 767.26 460.57 761.48 464.12 758.16 C 467.12 755.27 469.79 751.99 471.11 747.98 Z" />
</g>
<g target="55" id="#bf3f00ff">
<path fill="#bf3f00" fill-opacity="0" d=" M 542.37 778.55 C 550.36 776.59 555.78 770.32 560.92 764.38 C 561.85 766.53 562.81 768.70 563.78 770.88 C 566.17 769.33 568.58 767.81 571.05 766.41 C 572.02 770.31 572.47 774.38 571.45 778.33 C 570.42 781.92 571.92 786.02 575.20 787.91 C 581.27 783.63 585.83 777.20 593.32 775.05 C 593.97 777.53 594.65 780.01 595.33 782.49 C 598.75 782.18 602.19 782.01 605.63 781.96 C 604.88 787.03 604.51 792.32 606.49 797.17 C 609.04 797.13 611.94 796.20 614.25 797.73 C 616.91 799.70 619.44 801.90 621.94 804.10 C 623.41 805.93 624.49 808.07 624.86 810.41 C 625.66 812.07 627.96 813.74 626.71 815.73 C 625.58 818.37 624.20 820.90 623.25 823.63 C 626.25 822.78 629.22 821.90 632.26 821.16 C 634.45 823.82 636.86 826.33 638.83 829.19 C 642.53 834.22 639.77 841.38 643.52 846.42 C 646.40 850.20 649.63 853.78 652.78 857.38 C 648.83 858.23 644.82 856.77 640.86 857.56 C 638.01 858.03 634.81 858.89 632.57 856.44 C 628.26 852.34 621.17 854.69 618.05 859.16 C 613.56 863.86 606.82 861.16 602.45 857.86 C 600.61 860.35 598.65 862.75 596.68 865.15 C 592.90 860.65 588.83 856.42 584.83 852.13 C 583.24 853.10 581.66 854.11 580.08 855.11 C 578.93 854.18 577.79 853.26 576.66 852.35 C 574.25 853.57 571.82 854.73 569.42 855.96 C 569.10 858.67 569.88 862.28 567.26 864.09 C 564.24 866.17 561.01 868.07 558.86 871.15 C 556.65 871.09 554.64 871.35 552.49 871.37 C 548.92 875.79 543.39 878.49 541.38 884.11 C 537.68 882.13 533.85 876.56 529.35 879.35 C 520.48 884.15 509.74 883.12 500.78 887.71 C 498.96 887.15 497.15 886.56 495.35 886.01 C 492.35 888.50 488.88 890.41 484.99 891.07 C 481.97 887.59 477.20 886.76 473.94 883.68 C 470.21 879.88 467.52 875.04 463.04 872.04 C 461.70 871.09 460.32 870.15 459.33 868.83 C 459.73 864.33 464.89 862.52 467.63 859.54 C 472.46 856.52 468.11 850.31 468.16 846.18 C 471.41 843.64 474.77 841.19 478.50 839.40 C 478.52 832.86 483.41 828.12 487.65 823.77 C 484.18 821.57 480.40 818.93 479.83 814.52 C 479.09 809.79 476.66 803.32 481.97 800.33 C 486.79 798.56 491.96 796.78 494.49 791.88 C 502.00 794.40 504.02 784.20 509.23 780.98 C 513.40 781.65 517.21 784.60 521.52 784.06 C 528.00 781.30 534.10 777.69 539.90 773.70 C 540.74 775.30 541.55 776.92 542.37 778.55 Z" />
</g>
<g target="42" id="#bfbf00ff">
<path fill="#bfbf00" fill-opacity="0" d=" M 203.96 843.10 C 209.69 840.51 215.36 837.84 221.00 835.09 C 235.17 845.62 249.48 856.08 262.49 868.04 C 262.32 872.61 262.21 877.28 263.34 881.76 C 265.39 885.84 269.53 888.27 272.66 891.46 C 271.79 895.66 271.31 899.93 269.97 904.03 C 268.94 906.65 266.01 907.56 263.86 909.02 C 257.56 912.59 253.82 919.08 249.92 924.92 C 231.41 913.15 214.44 899.14 196.63 886.37 C 185.53 878.12 178.63 865.94 171.92 854.18 C 180.97 850.48 188.86 844.45 194.82 836.71 C 197.89 838.80 200.89 840.99 203.96 843.10 Z" />
</g>
</svg>
