<?xml version="1.0" encoding="UTF-8" ?>
<!DOCTYPE svg PUBLIC "-//W3C//DTD SVG 1.1//EN" "http://www.w3.org/Graphics/SVG/1.1/DTD/svg11.dtd">
<svg width="1920pt" height="1080pt" viewBox="0 0 1920 1080" version="1.1" xmlns="http://www.w3.org/2000/svg">
<g target="32" id="#3f00bfff">
<path fill="#3f00bf" fill-opacity="0" d=" M 1053.83 20.57 C 1058.17 17.99 1059.68 10.74 1065.88 11.96 C 1067.56 15.05 1066.35 18.69 1066.11 21.99 C 1067.37 20.99 1068.58 19.89 1070.00 19.09 C 1071.55 19.86 1072.93 20.93 1074.36 21.92 C 1076.55 21.16 1078.75 20.41 1080.96 19.68 C 1080.64 25.04 1080.30 30.42 1080.38 35.79 C 1082.74 29.32 1082.83 22.29 1084.83 15.76 C 1086.26 11.76 1091.17 12.62 1094.53 12.64 C 1094.51 16.86 1093.66 21.18 1094.46 25.35 C 1096.26 26.66 1098.29 27.62 1100.25 28.68 C 1102.17 25.81 1104.29 23.01 1106.96 20.77 C 1110.47 18.92 1113.34 21.64 1116.22 23.06 C 1115.12 37.39 1113.58 51.70 1111.92 65.98 C 1110.95 72.62 1102.30 71.01 1097.29 70.73 C 1095.05 75.08 1092.60 79.32 1090.59 83.78 C 1088.57 89.09 1077.98 87.39 1080.59 80.20 C 1075.91 84.49 1069.14 84.12 1063.28 84.77 C 1060.73 82.26 1059.51 78.70 1057.78 75.61 C 1057.10 78.26 1056.47 80.91 1055.87 83.57 C 1054.65 82.03 1053.47 80.46 1052.34 78.87 C 1051.34 80.51 1050.35 82.16 1049.37 83.81 C 1048.54 82.60 1047.76 81.35 1047.00 80.10 C 1045.98 81.72 1045.37 83.77 1043.63 84.79 C 1040.61 84.78 1037.83 84.62 1034.89 84.33 C 1035.08 70.67 1035.24 56.98 1036.23 43.34 C 1036.15 41.11 1037.83 39.61 1039.59 38.55 C 1040.47 32.81 1040.92 27.01 1041.68 21.25 C 1043.35 23.98 1043.93 27.15 1043.83 30.32 C 1046.69 26.63 1049.76 22.97 1053.83 20.57 M 1043.17 31.17 C 1042.64 32.80 1043.19 33.35 1044.83 32.83 C 1045.34 31.20 1044.78 30.65 1043.17 31.17 Z" />
<path fill="#3f00bf" fill-opacity="0" d=" M 1019.05 25.44 C 1019.32 25.40 1019.85 25.32 1020.12 25.28 C 1021.44 29.60 1025.01 32.14 1029.46 32.34 C 1029.97 43.53 1032.91 54.55 1031.70 65.82 C 1031.14 73.88 1031.77 82.14 1029.94 90.01 C 1025.01 89.36 1020.31 87.58 1015.34 87.29 C 1015.23 85.43 1015.09 83.58 1014.95 81.72 C 1011.82 85.06 1007.62 86.84 1003.27 87.95 C 1003.10 86.73 1002.95 85.51 1002.81 84.29 C 1001.15 84.81 999.50 85.32 997.86 85.84 C 996.85 83.76 995.89 81.67 994.95 79.57 C 990.62 80.29 986.28 79.44 982.02 78.77 C 982.70 64.31 983.06 49.83 983.13 35.35 C 990.05 34.16 996.80 32.02 1003.80 31.30 C 1007.24 30.75 1008.56 34.64 1010.12 36.93 C 1011.13 31.63 1016.52 29.72 1019.05 25.44 Z" />
<path fill="#3f00bf" fill-opacity="0" d=" M 951.34 409.24 C 956.71 412.60 954.49 419.62 955.22 425.01 C 961.10 425.71 967.76 424.38 972.74 428.23 C 975.10 429.66 976.71 432.13 979.25 433.30 C 980.53 433.80 981.84 434.26 983.17 434.71 C 981.74 437.23 985.98 439.70 986.09 436.16 C 986.71 432.06 987.36 427.97 988.66 424.03 C 996.46 427.24 1003.99 431.14 1012.32 432.91 C 1019.92 436.28 1028.17 437.61 1036.45 437.83 C 1043.00 437.84 1047.45 443.84 1053.68 445.02 C 1058.93 445.72 1064.25 445.65 1069.56 445.77 C 1068.67 443.82 1067.76 441.87 1066.86 439.94 C 1069.34 437.75 1071.74 435.23 1074.96 434.15 C 1080.98 432.99 1087.16 433.40 1093.27 433.55 C 1096.81 444.29 1098.46 455.54 1100.85 466.57 C 1105.25 466.48 1109.70 465.68 1114.07 466.10 C 1118.30 470.47 1120.81 476.43 1125.71 480.26 C 1128.69 482.34 1132.31 483.12 1135.78 484.00 C 1135.62 488.64 1135.37 493.27 1135.14 497.91 C 1129.69 496.70 1124.25 495.06 1118.61 495.37 C 1116.99 496.66 1115.82 498.39 1114.55 499.99 C 1111.38 499.75 1108.08 499.07 1104.98 500.05 C 1102.75 501.35 1101.83 504.02 1100.43 506.07 C 1097.86 506.25 1095.30 506.40 1092.74 506.46 C 1092.92 508.38 1093.04 510.30 1093.17 512.23 C 1089.73 511.07 1086.50 509.44 1083.47 507.47 C 1078.36 504.07 1072.32 505.78 1066.69 505.96 C 1058.21 505.96 1049.98 507.78 1041.86 509.96 C 1034.53 510.44 1026.84 510.25 1020.22 513.93 C 1022.97 517.98 1026.09 522.49 1031.24 523.55 C 1042.15 525.82 1054.02 528.88 1061.44 537.84 C 1062.34 541.43 1060.20 544.89 1059.06 548.19 C 1063.85 555.10 1071.87 557.95 1078.80 562.09 C 1075.21 566.03 1070.58 568.97 1067.27 573.14 C 1067.90 576.73 1069.88 579.89 1070.89 583.37 C 1072.02 587.63 1070.73 592.19 1071.97 596.42 C 1075.05 599.71 1078.84 602.39 1082.95 604.30 C 1084.22 601.91 1084.61 597.92 1087.93 597.57 C 1092.06 596.93 1096.27 597.39 1100.42 597.57 C 1099.57 591.74 1099.67 585.83 1099.87 579.96 C 1104.34 578.33 1108.49 575.74 1113.13 574.56 C 1119.53 573.95 1125.95 575.38 1132.37 575.73 C 1132.31 592.59 1127.05 608.89 1126.71 625.69 C 1128.75 630.06 1135.02 629.14 1139.11 630.54 C 1137.83 636.93 1138.51 644.35 1135.18 650.11 C 1127.78 653.53 1117.83 653.70 1113.17 661.51 C 1111.51 667.11 1111.47 673.07 1111.29 678.87 C 1107.96 678.52 1104.78 678.26 1101.51 677.87 C 1099.77 675.19 1098.25 671.56 1094.71 671.00 C 1088.84 670.01 1080.05 667.75 1075.94 673.84 C 1076.02 672.64 1076.15 671.47 1076.28 670.29 C 1073.63 669.83 1071.52 669.68 1069.03 669.34 C 1067.20 666.23 1064.31 663.89 1060.83 662.90 C 1057.38 661.25 1054.25 664.22 1051.00 664.98 C 1046.38 666.51 1041.80 664.25 1037.62 662.51 C 1038.43 660.12 1039.26 657.73 1040.09 655.34 C 1034.83 654.05 1029.37 654.10 1024.04 654.93 C 1023.65 659.44 1023.20 663.97 1022.94 668.51 C 1016.67 667.41 1010.33 667.46 1004.00 667.42 C 998.05 667.40 993.05 663.54 987.37 662.54 C 980.82 664.39 976.27 670.02 971.61 674.66 C 968.51 674.28 965.43 673.81 962.36 673.31 C 961.92 674.57 961.50 675.83 961.09 677.10 C 958.04 674.81 955.44 671.86 951.99 670.23 C 948.57 671.24 945.86 674.23 942.25 674.52 C 936.65 673.19 931.61 670.17 926.35 667.95 C 925.37 668.69 924.40 669.44 923.43 670.19 C 920.83 669.29 917.59 667.71 915.21 670.00 C 913.40 672.95 913.80 677.71 909.69 678.79 C 901.21 682.40 894.22 671.87 885.66 674.42 C 881.52 675.86 877.34 677.53 872.90 677.63 C 869.90 677.66 867.78 675.23 865.50 673.66 C 857.86 676.99 849.24 676.77 841.19 675.35 C 835.96 674.50 832.85 669.75 828.70 666.95 C 828.97 665.30 829.25 663.64 829.54 662.00 C 827.87 662.46 826.21 662.94 824.56 663.42 C 823.80 662.97 823.04 662.52 822.30 662.07 C 823.14 659.86 823.97 657.65 824.78 655.43 C 818.31 650.40 815.04 641.83 815.69 633.77 C 817.52 628.03 821.16 623.02 822.46 617.09 C 824.20 611.59 820.65 606.23 819.64 600.93 C 817.34 599.72 815.18 598.63 812.97 597.42 C 815.00 594.62 817.40 591.96 818.59 588.66 C 819.21 585.31 818.25 581.92 817.99 578.57 C 813.46 578.04 808.79 578.22 804.39 577.02 C 798.11 573.99 792.71 568.52 790.56 561.81 C 789.48 558.13 792.66 555.26 794.61 552.57 C 793.59 553.05 792.60 553.55 791.60 554.05 C 794.76 547.46 789.12 541.29 786.74 535.45 C 791.77 535.30 797.62 536.60 801.61 532.61 C 805.26 530.69 804.29 526.27 804.42 522.95 C 805.40 523.35 806.40 523.72 807.43 524.07 C 808.57 524.43 809.72 524.74 810.90 525.04 C 812.62 525.45 814.35 525.83 816.09 526.20 C 815.25 520.50 814.50 514.79 813.55 509.12 C 811.54 509.40 809.55 509.77 807.56 510.11 C 806.59 508.49 805.45 506.99 804.41 505.45 C 803.71 505.64 803.02 505.84 802.34 506.05 C 802.70 507.63 803.06 509.22 803.43 510.81 C 802.56 512.48 801.69 514.15 800.82 515.81 C 799.60 514.98 798.38 514.16 797.20 513.32 C 797.02 512.98 796.64 512.29 796.45 511.95 L 796.72 511.70 C 797.80 511.10 798.40 510.21 798.52 509.06 C 797.51 507.18 796.21 510.02 796.60 511.09 C 794.95 502.00 793.53 492.87 791.29 483.91 C 790.22 479.60 789.50 475.22 788.78 470.84 C 790.97 470.63 793.16 470.44 795.36 470.20 C 796.62 471.99 797.88 473.80 799.10 475.64 C 799.37 474.01 799.91 470.74 800.18 469.11 C 802.03 470.06 803.65 470.88 805.59 471.87 C 807.35 474.98 807.13 481.63 812.06 481.82 C 817.81 481.42 819.71 475.04 822.07 470.77 C 828.73 472.79 835.36 475.74 840.04 481.08 C 843.96 485.44 850.83 485.33 854.20 490.38 C 854.35 489.57 854.50 488.77 854.68 487.98 C 860.07 489.81 865.73 491.21 870.65 494.21 C 874.01 495.99 877.09 498.46 880.81 499.46 C 883.77 500.13 885.59 496.98 887.14 495.01 C 892.46 488.38 887.96 479.41 887.66 471.85 C 887.13 467.63 887.26 463.27 888.16 459.13 C 889.18 454.98 893.66 453.61 897.14 452.16 C 903.27 449.85 907.64 444.74 912.81 440.96 C 918.37 438.20 924.90 438.15 930.44 435.24 C 936.71 431.55 941.03 425.43 945.95 420.22 C 947.57 420.81 949.20 421.41 950.83 422.02 C 950.96 417.75 951.13 413.49 951.34 409.24 Z" />
<path fill="#3f00bf" fill-opacity="0" d=" M 1201.68 99.58 C 1207.24 88.95 1224.35 90.15 1229.89 100.04 C 1232.58 112.99 1227.38 125.86 1225.61 138.59 C 1224.40 142.81 1224.96 148.23 1220.95 150.97 C 1211.91 158.06 1201.66 163.62 1191.04 167.95 C 1184.60 170.93 1179.19 175.58 1173.85 180.15 C 1172.20 185.50 1171.57 191.45 1168.00 195.98 C 1165.97 198.65 1164.52 202.19 1161.17 203.44 C 1158.44 210.78 1157.05 218.56 1153.82 225.71 C 1151.86 229.11 1156.76 231.47 1158.00 234.03 C 1169.16 247.88 1184.83 258.10 1202.20 262.08 C 1203.00 266.64 1204.21 271.37 1203.15 276.01 C 1200.70 287.55 1198.82 299.20 1196.13 310.69 C 1195.22 310.19 1194.33 309.70 1193.45 309.21 C 1192.94 310.35 1192.45 311.49 1191.97 312.63 C 1183.09 309.72 1173.53 311.39 1164.45 309.42 C 1162.51 310.56 1160.64 313.09 1158.14 312.06 C 1148.84 309.07 1139.20 307.50 1129.56 306.07 C 1130.09 301.53 1130.07 296.67 1126.80 293.15 C 1125.93 296.40 1125.40 299.74 1124.69 303.03 C 1119.90 299.45 1115.31 295.26 1109.10 294.43 C 1108.81 292.10 1108.57 289.77 1108.28 287.44 C 1104.62 287.45 1100.75 288.32 1097.36 286.64 C 1094.70 284.83 1093.70 281.40 1092.22 278.76 C 1091.30 266.08 1093.89 253.55 1094.75 240.94 C 1095.35 236.36 1095.15 231.06 1098.29 227.30 C 1103.17 220.77 1100.22 211.52 1104.86 204.91 C 1108.59 197.66 1107.31 189.17 1109.39 181.48 C 1112.87 178.15 1118.89 176.04 1118.02 169.99 C 1119.15 160.97 1119.97 151.91 1121.19 142.90 C 1123.69 143.53 1126.18 144.21 1128.69 144.87 C 1128.90 143.32 1129.34 140.21 1129.56 138.66 C 1130.97 138.35 1133.79 137.72 1135.20 137.41 C 1137.83 132.77 1141.34 128.72 1144.83 124.72 C 1147.12 122.89 1150.74 123.11 1152.31 120.24 C 1153.96 117.42 1157.36 117.06 1160.36 116.97 C 1160.92 115.91 1161.49 114.85 1162.09 113.79 C 1167.00 113.21 1171.95 113.47 1176.87 113.93 C 1186.83 113.73 1197.12 108.79 1201.68 99.58 Z" />
</g>
<g target="80" id="#3f7f3ffe">
<path fill="#3f7f3f" fill-opacity="0" d=" M 1223.69 278.66 C 1223.96 274.52 1227.53 271.55 1231.12 270.18 C 1238.05 271.40 1243.67 276.32 1250.25 278.64 C 1256.82 281.84 1265.89 283.58 1267.15 292.25 C 1268.67 289.99 1269.32 286.43 1271.97 285.37 C 1280.27 285.67 1288.49 287.49 1296.87 286.78 C 1313.69 285.47 1330.42 289.08 1346.22 294.64 C 1347.48 299.00 1347.98 303.73 1350.14 307.79 C 1356.10 309.48 1362.76 308.51 1368.34 311.60 C 1372.25 313.98 1376.91 317.17 1376.07 322.45 C 1371.41 323.27 1366.70 323.86 1362.19 325.28 C 1363.24 327.10 1364.56 328.84 1365.19 330.89 C 1363.63 333.43 1360.76 335.02 1359.47 337.71 C 1360.31 340.75 1361.30 343.82 1360.90 347.04 C 1358.27 347.64 1354.46 347.37 1353.40 350.49 C 1351.79 355.44 1356.11 362.13 1350.98 365.94 C 1344.65 371.29 1339.44 379.36 1330.77 380.79 C 1297.80 385.37 1264.64 388.32 1231.52 391.64 C 1221.77 392.78 1211.94 392.31 1202.18 393.28 C 1187.58 393.57 1172.96 393.14 1158.35 393.46 C 1153.87 393.49 1149.65 395.43 1146.15 398.11 C 1142.20 400.65 1142.40 406.54 1137.86 408.50 C 1122.89 416.67 1107.99 424.95 1093.27 433.55 C 1087.16 433.40 1080.98 432.99 1074.96 434.15 C 1071.74 435.23 1069.34 437.75 1066.86 439.94 C 1067.76 441.87 1068.67 443.82 1069.56 445.77 C 1064.25 445.65 1058.93 445.72 1053.68 445.02 C 1047.45 443.84 1043.00 437.84 1036.45 437.83 C 1028.17 437.61 1019.92 436.28 1012.32 432.91 C 1003.99 431.14 996.46 427.24 988.66 424.03 C 987.36 427.97 986.71 432.06 986.09 436.16 C 985.23 435.43 984.25 434.95 983.17 434.71 C 981.84 434.26 980.53 433.80 979.25 433.30 C 979.44 418.69 980.38 404.08 979.86 389.46 C 976.26 387.24 972.75 384.88 969.21 382.60 C 968.88 368.59 968.87 354.59 969.08 340.58 C 975.89 341.42 981.84 345.77 988.85 345.46 C 998.00 345.57 1007.52 344.86 1016.41 347.54 C 1019.49 348.39 1021.51 350.98 1023.63 353.19 C 1023.57 352.59 1023.44 351.41 1023.38 350.81 C 1023.92 350.93 1025.00 351.17 1025.55 351.29 C 1029.30 357.65 1035.03 363.20 1036.46 370.70 C 1036.30 382.48 1035.54 394.27 1034.11 405.97 C 1036.93 406.65 1039.72 407.89 1042.69 407.64 C 1048.22 406.68 1053.52 404.38 1059.21 404.26 C 1060.17 397.38 1061.10 390.47 1061.47 383.54 C 1062.56 376.72 1057.50 370.87 1058.27 364.10 C 1058.84 350.09 1060.19 336.11 1061.25 322.13 C 1061.91 314.76 1069.31 309.11 1076.63 310.44 C 1084.41 312.46 1091.65 316.37 1098.16 321.05 C 1096.96 335.36 1094.81 349.58 1093.79 363.92 C 1102.93 359.48 1109.70 351.85 1117.25 345.33 C 1122.83 343.33 1129.36 344.50 1134.86 341.85 C 1144.14 337.57 1151.56 330.00 1161.16 326.29 C 1166.21 324.48 1171.52 323.38 1176.86 322.77 C 1176.57 324.98 1176.30 327.20 1176.06 329.42 C 1176.56 329.47 1177.56 329.55 1178.07 329.60 C 1176.91 336.85 1175.65 344.11 1175.05 351.44 C 1177.03 349.66 1179.66 348.12 1180.33 345.35 C 1182.16 338.04 1182.63 330.38 1185.45 323.33 C 1184.48 331.87 1182.72 340.30 1180.87 348.69 C 1183.41 348.15 1185.98 347.73 1188.57 347.43 C 1188.71 339.40 1190.65 331.58 1191.95 323.70 C 1194.00 324.14 1196.06 324.59 1198.13 325.01 C 1197.36 329.39 1196.55 333.76 1195.91 338.17 C 1200.13 337.04 1204.08 335.10 1208.17 333.60 C 1214.32 332.89 1220.65 333.34 1226.68 334.81 C 1227.33 332.36 1228.05 329.92 1228.78 327.48 C 1224.59 324.62 1220.07 322.10 1216.53 318.43 C 1215.34 315.83 1217.16 312.58 1217.02 310.01 C 1219.18 299.55 1221.06 289.01 1223.69 278.66 Z" />
<path fill="#3f7f40" fill-opacity="0" d=" M 1178.23 323.95 C 1179.98 323.65 1179.98 327.34 1178.23 327.05 C 1177.17 326.42 1177.17 324.57 1178.23 323.95 Z" />
</g>
<g target="53" id="#bf003ffe">
<path fill="#bf003f" fill-opacity="0" d=" M 772.42 290.42 C 777.83 293.33 783.19 296.43 789.14 298.16 C 790.71 303.35 790.70 309.42 794.41 313.64 C 797.33 315.98 800.32 313.44 802.85 311.88 C 804.75 310.24 806.43 313.13 807.97 314.07 C 814.23 320.20 823.96 315.95 831.20 319.79 C 835.51 321.78 840.04 323.35 844.02 325.99 C 853.98 332.49 864.47 338.56 872.36 347.65 C 875.07 351.04 879.92 350.28 883.17 352.81 C 888.23 356.58 892.86 361.21 899.13 362.92 C 899.88 362.18 900.66 361.44 901.44 360.70 C 905.15 364.47 909.57 367.63 912.42 372.18 C 916.16 372.47 919.62 373.98 922.78 375.93 C 923.12 381.34 923.87 386.69 924.69 392.05 C 930.08 395.63 929.15 402.43 929.33 408.17 C 929.13 417.21 930.37 426.20 930.44 435.24 C 924.90 438.15 918.37 438.20 912.81 440.96 C 907.64 444.74 903.27 449.85 897.14 452.16 C 893.66 453.61 889.18 454.98 888.16 459.13 C 887.26 463.27 887.13 467.63 887.66 471.85 C 879.64 473.72 871.47 475.21 863.22 475.26 C 856.40 474.76 850.18 471.79 844.09 468.95 C 832.21 463.25 818.33 464.29 806.57 458.23 C 803.27 456.60 800.52 454.03 797.28 452.33 C 794.36 451.97 791.49 451.96 788.57 452.04 C 787.50 450.60 786.41 449.16 785.42 447.67 C 783.84 443.35 782.22 439.00 780.04 434.96 C 777.00 429.36 770.16 427.30 767.09 421.74 C 764.59 417.39 761.66 413.31 758.82 409.18 C 753.88 409.65 748.94 408.96 744.01 409.03 C 738.23 410.51 733.80 417.57 727.23 415.48 C 723.85 412.89 723.28 407.73 719.94 405.16 C 710.43 402.54 700.40 404.21 690.70 403.14 C 686.80 402.71 682.88 402.61 678.97 402.76 C 677.70 398.34 677.33 393.76 676.82 389.22 C 683.91 384.05 690.86 378.67 698.13 373.72 C 696.19 360.86 689.35 348.34 692.09 335.11 C 692.78 330.79 696.85 328.42 699.72 325.60 C 699.50 323.40 699.27 321.21 699.07 319.02 C 702.65 317.59 706.37 316.57 710.20 316.14 C 715.32 315.79 717.24 309.99 721.45 307.88 C 725.88 306.26 730.65 305.80 735.02 303.97 C 737.70 302.80 738.58 299.75 739.75 297.32 C 741.29 298.78 742.85 300.25 744.42 301.72 C 746.08 301.81 749.40 301.99 751.07 302.08 C 751.99 299.60 752.88 297.11 753.70 294.59 C 757.35 295.56 760.64 297.51 763.36 300.12 C 765.71 298.48 767.22 296.08 768.76 293.73 C 770.16 294.83 771.56 295.94 772.96 297.04 C 772.83 295.39 772.55 292.07 772.42 290.42 Z" />
</g>
<g target="11" id="#bf7f3fff">
<path fill="#bf7f3f" fill-opacity="0" d=" M 1362.19 325.28 C 1366.70 323.86 1371.41 323.27 1376.07 322.45 C 1374.87 328.22 1379.72 332.78 1383.50 336.48 C 1387.32 339.84 1392.08 337.14 1396.37 336.83 C 1399.02 339.76 1401.49 343.01 1405.44 344.34 C 1404.92 345.21 1404.41 346.09 1403.95 346.98 C 1405.56 348.91 1407.19 350.85 1408.83 352.80 C 1406.25 358.48 1403.71 364.19 1401.17 369.89 C 1402.17 371.56 1403.19 373.23 1404.21 374.91 C 1402.07 379.73 1400.33 384.83 1396.94 388.97 C 1393.57 393.00 1391.18 398.69 1385.53 399.90 C 1385.94 406.07 1383.00 411.85 1383.63 418.06 C 1383.62 421.24 1382.55 424.27 1381.34 427.17 C 1379.60 433.42 1372.91 435.62 1368.48 439.60 C 1366.47 440.67 1367.92 443.14 1368.03 444.86 C 1369.39 449.28 1367.24 453.63 1365.69 457.67 C 1363.58 463.04 1360.46 467.91 1357.71 472.96 C 1353.69 471.24 1349.53 469.77 1345.31 468.67 C 1346.16 472.58 1345.45 476.54 1345.73 480.47 C 1347.54 482.81 1350.22 484.51 1351.42 487.32 C 1352.46 489.32 1352.97 491.69 1354.52 493.41 C 1356.78 494.98 1359.40 495.93 1361.90 497.07 C 1360.81 501.01 1358.81 504.77 1358.47 508.87 C 1359.35 512.88 1361.41 516.51 1362.20 520.56 C 1364.57 528.44 1364.57 536.95 1368.04 544.51 C 1370.27 548.61 1376.88 549.52 1377.24 554.76 C 1377.89 559.30 1379.33 564.64 1383.97 566.54 C 1387.71 567.99 1389.55 572.04 1389.60 575.87 C 1389.08 585.62 1393.68 594.56 1395.70 603.88 C 1394.02 609.24 1391.10 614.29 1387.61 618.69 C 1379.71 626.96 1367.40 625.02 1357.12 627.06 C 1347.33 627.22 1337.67 629.97 1327.87 628.55 C 1325.41 633.57 1323.31 638.77 1321.04 643.88 C 1318.05 643.58 1315.32 643.55 1312.40 643.29 C 1311.30 645.76 1310.18 648.22 1309.01 650.66 C 1306.09 650.58 1303.07 650.28 1300.20 650.61 C 1296.30 654.12 1294.09 659.08 1291.88 663.77 C 1282.63 663.70 1273.38 663.74 1264.16 663.13 C 1263.25 665.07 1262.37 667.02 1261.52 668.98 C 1257.67 668.76 1253.71 669.41 1249.98 668.22 C 1249.42 665.92 1249.35 663.52 1248.69 661.25 C 1244.01 659.61 1238.89 660.69 1234.03 660.24 C 1233.23 662.27 1232.41 664.29 1231.64 666.33 C 1229.10 666.35 1226.45 666.05 1224.04 666.97 C 1222.63 668.59 1222.08 670.76 1221.28 672.71 C 1217.93 672.32 1214.57 671.84 1211.26 671.41 L 1212.77 675.27 C 1218.73 678.85 1228.89 679.42 1231.13 687.38 C 1230.60 692.04 1229.09 697.16 1225.89 700.66 C 1223.04 700.59 1220.22 698.04 1217.65 698.68 C 1213.02 705.37 1212.33 714.31 1206.65 720.46 C 1204.57 717.86 1202.54 715.25 1200.55 712.63 C 1193.68 711.49 1191.16 718.16 1189.59 723.26 C 1185.14 723.36 1180.67 724.10 1176.50 725.67 C 1173.63 727.13 1171.13 729.30 1168.00 730.21 C 1166.50 735.64 1167.23 741.26 1167.34 746.78 C 1166.48 750.98 1165.39 755.42 1162.92 759.00 C 1160.87 759.99 1158.51 759.23 1156.35 759.22 C 1156.52 756.55 1156.71 753.89 1156.93 751.25 C 1151.23 750.25 1146.53 745.99 1140.59 746.24 C 1139.23 744.02 1141.25 739.26 1137.99 738.07 C 1133.05 736.32 1127.63 736.64 1122.51 735.86 C 1121.72 729.50 1120.72 723.17 1119.58 716.88 C 1117.57 710.88 1121.72 704.84 1119.63 698.91 C 1118.84 691.47 1113.99 685.58 1111.29 678.87 C 1111.47 673.07 1111.51 667.11 1113.17 661.51 C 1117.83 653.70 1127.78 653.53 1135.18 650.11 C 1138.51 644.35 1137.83 636.93 1139.11 630.54 C 1135.02 629.14 1128.75 630.06 1126.71 625.69 C 1127.05 608.89 1132.31 592.59 1132.37 575.73 C 1125.95 575.38 1119.53 573.95 1113.13 574.56 C 1108.49 575.74 1104.34 578.33 1099.87 579.96 C 1099.67 585.83 1099.57 591.74 1100.42 597.57 C 1096.27 597.39 1092.06 596.93 1087.93 597.57 C 1084.61 597.92 1084.22 601.91 1082.95 604.30 C 1078.84 602.39 1075.05 599.71 1071.97 596.42 C 1070.73 592.19 1072.02 587.63 1070.89 583.37 C 1069.88 579.89 1067.90 576.73 1067.27 573.14 C 1070.58 568.97 1075.21 566.03 1078.80 562.09 C 1071.87 557.95 1063.85 555.10 1059.06 548.19 C 1060.20 544.89 1062.34 541.43 1061.44 537.84 C 1054.02 528.88 1042.15 525.82 1031.24 523.55 C 1026.09 522.49 1022.97 517.98 1020.22 513.93 C 1026.84 510.25 1034.53 510.44 1041.86 509.96 C 1049.98 507.78 1058.21 505.96 1066.69 505.96 C 1072.32 505.78 1078.36 504.07 1083.47 507.47 C 1086.50 509.44 1089.73 511.07 1093.17 512.23 C 1093.04 510.30 1092.92 508.38 1092.74 506.46 C 1095.30 506.40 1097.86 506.25 1100.43 506.07 C 1101.83 504.02 1102.75 501.35 1104.98 500.05 C 1108.08 499.07 1111.38 499.75 1114.55 499.99 C 1115.82 498.39 1116.99 496.66 1118.61 495.37 C 1124.25 495.06 1129.69 496.70 1135.14 497.91 C 1135.37 493.27 1135.62 488.64 1135.78 484.00 C 1132.31 483.12 1128.69 482.34 1125.71 480.26 C 1120.81 476.43 1118.30 470.47 1114.07 466.10 C 1109.70 465.68 1105.25 466.48 1100.85 466.57 C 1098.46 455.54 1096.81 444.29 1093.27 433.55 C 1107.99 424.95 1122.89 416.67 1137.86 408.50 C 1142.40 406.54 1142.20 400.65 1146.15 398.11 C 1149.65 395.43 1153.87 393.49 1158.35 393.46 C 1172.96 393.14 1187.58 393.57 1202.18 393.28 C 1211.94 392.31 1221.77 392.78 1231.52 391.64 C 1264.64 388.32 1297.80 385.37 1330.77 380.79 C 1339.44 379.36 1344.65 371.29 1350.98 365.94 C 1356.11 362.13 1351.79 355.44 1353.40 350.49 C 1354.46 347.37 1358.27 347.64 1360.90 347.04 C 1361.30 343.82 1360.31 340.75 1359.47 337.71 C 1360.76 335.02 1363.63 333.43 1365.19 330.89 C 1364.56 328.84 1363.24 327.10 1362.19 325.28 Z" />
</g>
<g target="10" id="#3f7fbffe">
<path fill="#3f7fbf" fill-opacity="0" d=" M 678.97 402.76 C 682.88 402.61 686.80 402.71 690.70 403.14 C 700.40 404.21 710.43 402.54 719.94 405.16 C 723.28 407.73 723.85 412.89 727.23 415.48 C 733.80 417.57 738.23 410.51 744.01 409.03 C 748.94 408.96 753.88 409.65 758.82 409.18 C 761.66 413.31 764.59 417.39 767.09 421.74 C 770.16 427.30 777.00 429.36 780.04 434.96 C 782.22 439.00 783.84 443.35 785.42 447.67 C 786.26 455.43 787.34 463.16 788.78 470.84 C 789.50 475.22 790.22 479.60 791.29 483.91 C 790.56 484.50 789.83 485.08 789.11 485.67 C 787.76 484.49 786.43 483.31 785.10 482.14 C 784.58 486.89 783.80 491.60 783.09 496.34 C 781.35 495.88 779.60 495.47 777.86 495.06 C 778.35 498.61 778.84 502.13 779.37 505.69 C 780.87 505.41 782.37 505.15 783.90 504.93 C 783.40 502.66 782.91 500.39 782.44 498.14 C 784.01 500.13 785.56 502.28 787.87 503.49 L 788.51 503.59 C 793.40 503.32 794.64 508.36 796.45 511.95 C 796.64 512.29 797.02 512.98 797.20 513.32 C 797.67 515.52 797.95 517.75 798.27 519.99 C 800.29 521.02 802.33 522.03 804.42 522.95 C 804.29 526.27 805.26 530.69 801.61 532.61 C 797.62 536.60 791.77 535.30 786.74 535.45 C 789.12 541.29 794.76 547.46 791.60 554.05 C 792.60 553.55 793.59 553.05 794.61 552.57 C 792.66 555.26 789.48 558.13 790.56 561.81 C 792.71 568.52 798.11 573.99 804.39 577.02 C 808.79 578.22 813.46 578.04 817.99 578.57 C 818.25 581.92 819.21 585.31 818.59 588.66 C 817.40 591.96 815.00 594.62 812.97 597.42 C 815.18 598.63 817.34 599.72 819.64 600.93 C 820.65 606.23 824.20 611.59 822.46 617.09 C 821.16 623.02 817.52 628.03 815.69 633.77 C 811.17 633.67 806.47 633.76 802.34 631.65 C 796.98 628.67 790.71 630.39 785.08 631.44 C 779.48 634.63 777.63 641.52 775.96 647.34 C 774.98 642.77 773.76 638.28 772.60 633.77 C 768.77 633.38 764.98 632.83 761.18 632.26 C 761.28 634.76 761.34 637.25 761.38 639.76 C 756.84 634.08 753.95 627.38 749.70 621.52 C 749.98 626.52 749.36 631.80 751.67 636.44 C 753.56 640.98 755.19 645.58 756.98 650.19 C 756.04 648.49 755.02 646.84 754.02 645.19 C 752.04 646.03 750.08 646.88 748.12 647.73 C 747.52 647.12 746.93 646.52 746.35 645.92 C 746.87 644.55 747.40 643.19 747.94 641.84 C 743.23 643.13 738.52 641.91 734.36 639.58 C 729.20 636.77 724.80 642.40 721.42 645.56 C 714.43 638.09 702.54 639.01 694.05 643.36 C 697.00 647.26 701.65 647.98 706.33 647.77 C 704.34 650.08 702.26 652.32 700.28 654.64 C 697.80 653.76 695.33 652.06 692.64 652.24 C 687.40 654.79 682.96 658.73 678.40 662.33 C 675.42 663.75 674.10 666.69 673.01 669.55 C 667.19 664.29 661.56 658.54 658.56 651.15 C 653.64 650.53 650.92 646.29 648.17 642.69 C 644.10 646.93 640.37 652.24 634.27 653.58 C 628.76 654.81 627.65 661.59 622.92 663.95 C 620.86 664.59 618.92 662.95 617.04 662.34 C 614.27 655.69 612.52 648.52 608.51 642.47 C 602.99 635.13 593.89 632.21 587.39 625.97 C 591.75 621.51 597.20 618.63 602.44 615.41 C 612.59 607.57 622.78 599.77 633.01 592.04 C 643.87 583.82 657.41 577.89 664.08 565.36 C 654.79 551.26 651.25 534.44 645.91 518.64 C 652.35 516.02 657.61 511.36 662.81 506.86 C 660.95 501.13 658.27 495.46 658.36 489.32 C 658.63 482.25 656.59 475.39 656.43 468.36 C 656.77 464.86 659.91 462.99 662.69 461.49 C 662.80 459.32 662.67 457.00 662.87 454.88 C 666.85 450.59 669.65 445.38 672.32 440.21 C 674.75 439.73 677.49 439.94 679.65 438.59 C 684.16 427.04 680.16 414.54 678.97 402.76 Z" />
</g>
<g id="#3b08b2ee">
<path fill="#3b08b2" opacity="0.93" d=" M 786.92 491.59 C 788.06 495.36 789.14 499.19 790.59 502.86 C 789.89 503.10 789.19 503.35 788.51 503.59 L 787.87 503.49 C 787.60 499.52 787.19 495.54 786.92 491.59 Z" />
</g>
<g id="#3f7dbfff">
<path fill="#3f7dbf" fill-opacity="0" d=" M 802.34 506.05 C 803.02 505.84 803.71 505.64 804.41 505.45 C 805.45 506.99 806.59 508.49 807.56 510.11 C 808.99 515.00 809.88 520.04 810.90 525.04 C 809.72 524.74 808.57 524.43 807.43 524.07 C 807.90 519.15 806.88 514.43 803.43 510.81 C 803.06 509.22 802.70 507.63 802.34 506.05 Z" />
</g>
<g id="#3f7fbfff">
<path fill="#3f7fbf" fill-opacity="0" d=" M 796.60 511.09 C 796.21 510.02 797.51 507.18 798.52 509.06 C 798.40 510.21 797.80 511.10 796.72 511.70 L 796.60 511.09 Z" />
<path fill="#3f7fbf" fill-opacity="0" d=" M 757.33 650.89 C 758.38 651.81 758.62 652.93 758.07 654.24 C 756.93 653.32 756.68 652.20 757.33 650.89 Z" />
<path fill="#3f7fbf" fill-opacity="0" d=" M 757.88 655.12 C 758.96 655.92 759.31 656.98 758.95 658.29 C 757.64 657.60 757.29 656.54 757.88 655.12 Z" />
</g>
<g id="#407fc0ff">
<path fill="#407fc0" fill-opacity="0" d=" M 806.12 517.53 C 810.05 518.31 803.82 520.96 806.12 517.53 Z" />
</g>
<g target="49" id="#bf7fbffe">
<path fill="#bf7fbf" fill-opacity="0" d=" M 565.34 639.24 C 572.10 633.87 579.50 629.48 587.39 625.97 C 593.89 632.21 602.99 635.13 608.51 642.47 C 612.52 648.52 614.27 655.69 617.04 662.34 C 619.21 667.68 621.80 672.86 623.71 678.31 C 625.39 683.15 624.18 688.28 623.56 693.18 C 626.45 690.53 629.09 687.56 632.36 685.36 C 635.83 683.10 640.25 685.05 643.78 685.95 C 646.92 688.20 649.57 693.14 654.17 691.30 C 658.61 690.61 660.45 686.30 661.38 682.44 C 664.06 679.47 663.38 675.30 663.66 671.60 C 665.77 673.31 667.87 675.03 669.93 676.81 C 671.00 674.41 672.02 671.98 673.01 669.55 C 674.10 666.69 675.42 663.75 678.40 662.33 C 682.96 658.73 687.40 654.79 692.64 652.24 C 695.33 652.06 697.80 653.76 700.28 654.64 C 702.26 652.32 704.34 650.08 706.33 647.77 C 701.65 647.98 697.00 647.26 694.05 643.36 C 702.54 639.01 714.43 638.09 721.42 645.56 C 724.80 642.40 729.20 636.77 734.36 639.58 C 738.52 641.91 743.23 643.13 747.94 641.84 C 747.40 643.19 746.87 644.55 746.35 645.92 C 746.93 646.52 747.52 647.12 748.12 647.73 C 750.08 646.88 752.04 646.03 754.02 645.19 C 755.02 646.84 756.04 648.49 756.98 650.19 L 757.33 650.89 C 756.68 652.20 756.93 653.32 758.07 654.24 L 757.88 655.12 C 757.29 656.54 757.64 657.60 758.95 658.29 L 759.64 658.66 C 752.71 659.79 745.67 661.27 739.43 664.59 C 737.96 669.73 741.13 675.33 738.27 680.39 C 736.21 687.25 728.70 692.96 730.41 700.74 C 730.56 704.48 734.74 705.49 737.47 706.98 C 735.72 710.37 733.55 713.82 733.48 717.75 C 734.50 720.19 737.44 720.85 739.57 722.01 C 739.53 722.54 739.50 723.08 739.47 723.62 C 732.54 726.73 732.65 735.59 727.68 740.46 C 723.70 743.25 718.71 743.97 713.97 744.44 C 709.90 744.89 708.35 749.38 706.43 752.37 C 702.27 750.75 698.08 749.09 693.74 748.06 C 690.66 747.55 687.37 748.83 684.43 747.63 C 680.71 744.74 679.63 739.77 676.86 736.15 C 672.96 735.38 669.06 736.93 665.29 737.76 C 663.47 735.66 661.64 733.59 659.85 731.49 C 656.23 734.33 651.24 736.29 649.78 741.05 C 648.62 743.47 648.07 747.06 645.04 747.79 C 640.80 747.08 637.49 743.51 636.55 739.40 C 635.32 734.66 631.42 731.38 628.02 728.13 C 626.50 730.16 625.01 732.21 623.51 734.25 C 621.00 732.40 618.50 730.52 615.96 728.73 C 615.28 735.84 611.62 743.00 605.05 746.27 C 601.86 746.96 599.02 744.64 596.22 743.50 C 592.63 747.45 588.92 751.30 585.18 755.11 C 580.43 761.36 570.84 760.16 565.05 756.10 C 562.80 760.69 562.03 765.75 560.41 770.54 C 558.50 771.55 556.30 771.77 554.19 772.02 C 547.70 773.75 543.97 767.73 539.98 763.88 C 536.55 760.94 537.76 755.57 534.64 752.36 C 529.80 747.05 521.64 747.27 516.11 742.98 C 513.87 740.44 512.99 736.74 510.05 734.86 C 506.97 734.23 503.86 735.75 500.85 736.27 C 504.56 727.77 511.26 720.98 520.05 718.00 C 519.37 716.28 518.67 714.57 517.98 712.87 C 519.48 714.23 520.95 715.62 522.43 717.01 C 519.22 701.77 506.27 690.90 502.72 675.78 C 510.07 686.16 514.90 698.07 522.25 708.46 C 523.74 704.30 522.02 697.96 527.05 695.96 C 529.94 696.73 531.15 700.08 533.34 701.92 C 530.36 695.37 525.61 689.64 523.86 682.56 C 528.18 688.09 531.50 694.29 535.29 700.18 C 536.35 698.29 537.42 696.41 538.48 694.52 C 540.70 695.88 542.89 697.30 544.98 698.86 C 550.06 699.31 555.09 696.64 555.07 691.25 C 553.80 690.90 552.55 690.57 551.29 690.23 C 551.10 690.94 550.74 692.35 550.55 693.06 C 545.44 682.75 539.66 672.80 534.46 662.54 C 532.65 659.83 535.22 656.91 537.34 655.36 C 545.89 648.73 555.55 643.73 565.34 639.24 M 574.47 689.85 C 576.14 694.67 578.35 699.37 578.91 704.50 C 579.17 709.03 583.54 712.64 587.90 712.84 C 591.59 711.46 594.67 708.78 598.56 707.85 C 596.79 704.09 594.69 700.07 596.22 695.86 C 592.31 693.03 588.52 689.95 584.20 687.77 C 580.92 686.01 577.60 689.17 574.47 689.85 Z" />
</g>
<g target="38" id="#bf00bffe">
<path fill="#bf00bf" fill-opacity="0" d=" M 785.08 631.44 C 790.71 630.39 796.98 628.67 802.34 631.65 C 806.47 633.76 811.17 633.67 815.69 633.77 C 815.04 641.83 818.31 650.40 824.78 655.43 C 823.97 657.65 823.14 659.86 822.30 662.07 C 823.04 662.52 823.80 662.97 824.56 663.42 C 826.21 662.94 827.87 662.46 829.54 662.00 C 829.25 663.64 828.97 665.30 828.70 666.95 C 832.85 669.75 835.96 674.50 841.19 675.35 C 849.24 676.77 857.86 676.99 865.50 673.66 C 867.78 675.23 869.90 677.66 872.90 677.63 C 877.34 677.53 881.52 675.86 885.66 674.42 C 894.22 671.87 901.21 682.40 909.69 678.79 C 913.80 677.71 913.40 672.95 915.21 670.00 C 917.59 667.71 920.83 669.29 923.43 670.19 C 924.40 669.44 925.37 668.69 926.35 667.95 C 931.61 670.17 936.65 673.19 942.25 674.52 C 945.86 674.23 948.57 671.24 951.99 670.23 C 955.44 671.86 958.04 674.81 961.09 677.10 C 961.50 675.83 961.92 674.57 962.36 673.31 C 965.43 673.81 968.51 674.28 971.61 674.66 C 976.27 670.02 980.82 664.39 987.37 662.54 C 993.05 663.54 998.05 667.40 1004.00 667.42 C 1010.33 667.46 1016.67 667.41 1022.94 668.51 C 1023.20 663.97 1023.65 659.44 1024.04 654.93 C 1029.37 654.10 1034.83 654.05 1040.09 655.34 C 1039.26 657.73 1038.43 660.12 1037.62 662.51 C 1041.80 664.25 1046.38 666.51 1051.00 664.98 C 1054.25 664.22 1057.38 661.25 1060.83 662.90 C 1064.31 663.89 1067.20 666.23 1069.03 669.34 C 1071.52 669.68 1073.63 669.83 1076.28 670.29 C 1076.15 671.47 1076.02 672.64 1075.94 673.84 C 1075.26 679.92 1077.36 685.97 1076.12 692.04 C 1075.19 694.81 1072.46 696.58 1071.74 699.45 C 1070.80 703.81 1069.87 708.18 1069.00 712.57 C 1073.14 711.83 1076.59 709.39 1079.13 706.11 C 1078.35 712.58 1077.78 719.07 1077.15 725.56 C 1079.45 726.14 1081.75 726.76 1084.06 727.35 C 1083.61 732.40 1084.38 738.07 1081.63 742.63 C 1075.59 744.08 1069.36 744.98 1063.13 744.95 C 1062.59 748.72 1061.79 752.46 1061.10 756.22 C 1058.18 756.90 1054.69 757.04 1052.73 759.63 C 1050.57 761.50 1049.67 765.19 1046.85 766.14 C 1037.71 765.76 1026.64 763.10 1019.41 770.25 C 1013.83 769.41 1008.17 769.28 1002.57 768.75 C 998.19 768.37 994.27 765.96 989.83 765.94 C 986.97 765.86 984.60 764.17 982.92 761.97 C 980.71 763.52 978.53 765.11 976.49 766.87 C 975.65 764.85 974.78 762.86 973.93 760.87 C 972.19 762.03 970.47 763.23 968.80 764.49 C 963.30 762.33 958.54 766.41 953.97 768.85 C 951.90 765.64 949.90 762.49 947.88 759.29 C 944.54 760.19 941.18 761.00 937.83 761.84 C 936.45 758.86 934.65 756.05 931.96 754.10 C 930.75 759.51 932.53 765.24 930.53 770.51 C 926.91 773.59 921.74 771.55 917.66 773.50 C 914.69 774.57 912.21 776.56 909.73 778.44 C 908.53 777.98 907.35 777.50 906.17 777.06 C 905.43 782.08 905.98 787.44 904.21 792.27 C 901.64 796.24 897.53 798.89 894.03 801.99 C 892.14 801.09 890.32 800.02 888.29 799.52 C 883.44 798.46 878.55 801.29 873.77 800.05 C 867.23 795.33 865.14 786.22 857.53 782.54 C 850.42 779.62 842.66 778.58 835.39 776.07 C 835.82 780.05 835.11 784.00 833.83 787.77 C 828.65 787.43 822.37 784.61 818.30 789.29 C 818.87 794.96 820.62 800.48 821.02 806.18 C 817.89 801.65 815.69 795.00 809.28 794.68 C 809.82 797.83 810.48 801.02 811.00 804.21 C 809.55 800.19 808.00 796.29 806.38 792.37 C 803.21 793.14 799.95 792.87 796.98 791.53 C 795.89 792.08 794.79 792.62 793.72 793.16 C 794.82 799.36 797.00 805.25 798.98 811.22 C 793.08 804.68 787.86 797.55 783.38 789.98 C 781.62 786.87 781.70 782.70 778.84 780.30 C 775.65 778.80 772.09 780.38 769.12 781.66 C 769.64 782.77 770.18 783.90 770.71 785.03 C 763.96 784.57 761.02 791.32 757.62 795.91 C 757.00 795.51 756.40 795.13 755.81 794.75 C 753.47 788.07 747.96 783.35 744.79 777.14 C 739.70 771.52 732.64 767.61 725.29 765.85 C 722.87 766.93 720.82 768.64 718.65 770.13 C 718.90 768.79 719.17 767.48 719.45 766.16 C 718.62 766.27 717.80 766.38 716.98 766.50 C 717.38 764.41 717.90 762.35 718.47 760.31 C 714.08 758.22 710.72 754.58 706.43 752.37 C 708.35 749.38 709.90 744.89 713.97 744.44 C 718.71 743.97 723.70 743.25 727.68 740.46 C 732.65 735.59 732.54 726.73 739.47 723.62 C 739.50 723.08 739.53 722.54 739.57 722.01 C 737.44 720.85 734.50 720.19 733.48 717.75 C 733.55 713.82 735.72 710.37 737.47 706.98 C 734.74 705.49 730.56 704.48 730.41 700.74 C 728.70 692.96 736.21 687.25 738.27 680.39 C 741.13 675.33 737.96 669.73 739.43 664.59 C 745.67 661.27 752.71 659.79 759.64 658.66 C 762.78 658.01 765.42 656.08 768.14 654.50 C 770.86 652.49 775.30 651.22 775.96 647.34 C 777.63 641.52 779.48 634.63 785.08 631.44 Z" />
</g>
<g id="#8f5f8fbf">
<path fill="#8f5f8f" opacity="0.75" d=" M 504.27 688.54 C 505.40 687.61 506.86 689.58 505.73 690.46 C 504.58 691.37 503.12 689.40 504.27 688.54 Z" />
<path fill="#8f5f8f" opacity="0.75" d=" M 506.27 692.54 C 507.40 691.61 508.86 693.58 507.73 694.46 C 506.58 695.37 505.12 693.40 506.27 692.54 Z" />
</g>
<g id="#7f547faa">
<path fill="#7f547f" opacity="0.67" d=" M 511.15 701.40 C 515.14 700.58 510.30 705.38 511.15 701.40 Z" />
</g>
<g target="55" id="#003f3fff">
<path fill="#003f3f" fill-opacity="0" d=" M 615.96 728.73 C 618.50 730.52 621.00 732.40 623.51 734.25 C 625.01 732.21 626.50 730.16 628.02 728.13 C 631.42 731.38 635.32 734.66 636.55 739.40 C 637.49 743.51 640.80 747.08 645.04 747.79 C 648.07 747.06 648.62 743.47 649.78 741.05 C 651.24 736.29 656.23 734.33 659.85 731.49 C 661.64 733.59 663.47 735.66 665.29 737.76 C 669.06 736.93 672.96 735.38 676.86 736.15 C 679.63 739.77 680.71 744.74 684.43 747.63 C 687.37 748.83 690.66 747.55 693.74 748.06 C 698.08 749.09 702.27 750.75 706.43 752.37 C 710.72 754.58 714.08 758.22 718.47 760.31 C 717.90 762.35 717.38 764.41 716.98 766.50 C 717.80 766.38 718.62 766.27 719.45 766.16 C 719.17 767.48 718.90 768.79 718.65 770.13 C 720.82 768.64 722.87 766.93 725.29 765.85 C 732.64 767.61 739.70 771.52 744.79 777.14 C 747.96 783.35 753.47 788.07 755.81 794.75 C 755.33 795.16 754.37 795.98 753.89 796.39 C 748.50 796.16 742.53 796.40 738.36 800.32 C 732.53 798.59 726.28 798.33 720.56 800.57 C 719.61 805.63 715.57 809.83 710.29 810.04 C 707.27 809.47 704.47 808.15 701.63 807.03 C 700.19 809.92 699.28 813.03 698.68 816.20 C 692.85 813.00 686.96 809.84 680.73 807.52 C 678.21 806.48 676.38 809.06 674.54 810.33 C 670.87 808.91 667.19 809.88 664.17 812.23 C 663.70 815.65 666.88 820.51 663.74 823.43 C 661.85 825.41 660.09 827.53 658.78 829.95 C 657.38 833.21 653.19 832.28 650.58 833.86 C 649.58 835.73 648.95 837.78 648.26 839.78 C 644.17 841.36 646.00 845.59 646.65 848.79 C 643.62 845.92 639.55 844.48 635.40 844.78 C 630.77 843.68 628.09 847.59 625.09 850.09 C 620.80 853.92 614.01 852.63 609.98 856.85 C 606.40 857.85 602.83 859.33 600.52 862.39 C 599.10 861.86 597.72 860.64 596.14 861.02 C 591.48 861.94 590.16 867.26 586.35 869.51 C 583.05 871.09 580.44 868.96 577.82 867.54 C 573.69 868.92 569.42 867.52 566.66 864.13 C 564.73 861.92 563.24 859.22 560.77 857.57 C 557.70 856.21 554.29 855.95 551.07 855.11 C 553.23 849.86 556.53 845.23 560.23 840.97 C 557.13 838.18 554.02 835.40 550.92 832.62 C 553.64 827.86 557.33 823.73 562.06 820.91 C 560.38 819.82 558.72 818.71 557.06 817.63 C 558.29 812.69 560.08 807.89 562.86 803.60 C 557.70 802.56 550.51 802.69 547.73 797.21 C 546.14 794.07 543.78 791.46 541.09 789.23 C 541.53 787.12 541.74 784.66 542.29 782.69 C 547.80 781.17 552.15 777.48 554.19 772.02 C 556.30 771.77 558.50 771.55 560.41 770.54 C 562.03 765.75 562.80 760.69 565.05 756.10 C 570.84 760.16 580.43 761.36 585.18 755.11 C 588.92 751.30 592.63 747.45 596.22 743.50 C 599.02 744.64 601.86 746.96 605.05 746.27 C 611.62 743.00 615.28 735.84 615.96 728.73 Z" />
</g>
<g target="61" id="#7f3f3fff">
<path fill="#7f3f3f" fill-opacity="0" d=" M 500.85 736.27 C 503.86 735.75 506.97 734.23 510.05 734.86 C 512.99 736.74 513.87 740.44 516.11 742.98 C 521.64 747.27 529.80 747.05 534.64 752.36 C 537.76 755.57 536.55 760.94 539.98 763.88 C 543.97 767.73 547.70 773.75 554.19 772.02 C 552.15 777.48 547.80 781.17 542.29 782.69 C 541.74 784.66 541.53 787.12 541.09 789.23 C 543.78 791.46 546.14 794.07 547.73 797.21 C 550.51 802.69 557.70 802.56 562.86 803.60 C 560.08 807.89 558.29 812.69 557.06 817.63 C 558.72 818.71 560.38 819.82 562.06 820.91 C 557.33 823.73 553.64 827.86 550.92 832.62 C 554.02 835.40 557.13 838.18 560.23 840.97 C 556.53 845.23 553.23 849.86 551.07 855.11 C 554.29 855.95 557.70 856.21 560.77 857.57 C 563.24 859.22 564.73 861.92 566.66 864.13 C 564.05 868.20 559.79 871.40 558.44 876.16 C 559.15 878.80 560.93 880.97 562.39 883.25 C 562.11 885.77 561.16 888.72 563.05 890.89 C 565.91 894.78 570.75 897.82 571.39 902.94 C 570.47 907.80 568.66 912.46 568.17 917.43 C 561.92 920.77 560.81 927.76 561.75 934.07 C 556.64 933.84 551.13 931.74 546.29 934.28 C 543.26 936.03 542.29 939.60 542.18 942.88 C 541.58 943.15 541.00 943.44 540.43 943.75 C 538.91 941.82 537.39 939.92 535.87 938.04 C 531.97 938.07 528.04 935.41 524.27 937.29 C 519.63 939.30 514.90 941.08 510.21 942.96 C 501.99 932.14 492.74 921.33 480.02 915.75 C 474.98 911.17 471.02 905.53 466.55 900.41 C 463.53 896.58 459.66 892.86 458.72 887.88 C 459.49 885.56 461.09 883.62 461.80 881.29 C 463.28 873.63 465.73 865.63 463.16 857.90 C 462.19 853.55 459.13 850.03 457.32 846.07 C 461.35 838.66 466.42 831.89 470.98 824.83 C 470.03 818.01 463.15 813.23 462.44 806.26 C 464.16 800.98 470.17 799.42 472.79 794.78 C 475.44 794.36 478.31 794.65 480.95 793.90 C 481.76 790.49 481.99 787.03 482.48 783.60 C 485.83 786.64 489.02 789.79 492.31 792.92 C 489.31 787.87 486.07 782.96 483.19 777.86 C 481.70 775.19 482.05 771.49 484.27 769.32 C 487.53 765.81 491.46 763.04 495.07 759.92 C 496.84 758.38 496.36 755.77 496.72 753.69 C 496.97 747.61 501.17 742.44 500.85 736.27 Z" />
</g>
<g target="42" id="#00bf3ffe">
<path fill="#00bf3f" fill-opacity="0" d=" M 223.27 891.52 C 225.65 893.27 228.03 895.07 230.46 896.79 C 232.20 895.75 233.95 894.67 235.90 894.08 C 243.24 898.86 249.11 905.63 256.42 910.50 C 268.39 917.79 279.66 926.40 289.76 936.07 C 291.24 941.34 297.84 949.10 292.00 953.88 C 284.46 958.79 279.71 967.39 279.58 976.44 C 273.02 976.29 266.77 973.87 260.38 972.64 C 252.19 970.63 243.68 969.63 235.94 966.10 C 226.28 962.41 217.00 957.82 207.67 953.39 C 197.99 949.41 190.13 942.30 181.53 936.54 C 176.23 932.95 170.90 929.42 165.90 925.42 C 170.93 921.31 176.67 917.89 180.83 912.83 C 183.34 909.25 184.88 905.10 186.85 901.23 C 192.24 902.70 197.72 905.01 203.38 904.42 C 210.74 901.43 216.89 896.14 223.27 891.52 Z" />
</g>
</svg>
