<?xml version="1.0" encoding="UTF-8" ?>
<!DOCTYPE svg PUBLIC "-//W3C//DTD SVG 1.1//EN" "http://www.w3.org/Graphics/SVG/1.1/DTD/svg11.dtd">
<svg width="1920pt" height="1080pt" viewBox="0 0 1920 1080" version="1.1" xmlns="http://www.w3.org/2000/svg">
<g target="37" id="#003fbfff">
<path fill="#003fbf" fill-opacity="0" d=" M 884.50 190.58 C 890.64 189.43 898.05 188.01 903.06 192.90 C 911.03 197.48 918.09 203.48 926.18 207.78 C 935.46 207.93 942.35 198.44 951.77 198.95 C 955.92 198.77 959.51 196.15 963.57 195.37 C 964.18 197.73 964.79 200.09 965.41 202.46 C 973.78 201.38 978.89 191.97 988.03 194.10 C 992.09 192.95 995.00 195.89 997.99 197.86 C 1004.27 194.16 1012.22 194.69 1018.49 198.15 C 1026.18 199.88 1034.21 204.33 1037.11 212.09 C 1038.10 215.31 1041.31 217.13 1042.54 220.17 C 1043.34 228.79 1042.57 237.46 1042.30 246.09 C 1049.20 242.62 1056.92 243.39 1064.35 244.41 C 1064.93 238.82 1064.03 229.73 1071.64 228.73 C 1079.62 228.41 1085.40 235.40 1092.42 238.14 C 1092.56 241.97 1090.83 246.98 1094.26 249.83 C 1099.56 250.46 1103.55 245.24 1108.83 245.98 C 1112.16 246.43 1116.54 247.43 1119.09 244.43 C 1121.17 241.57 1121.87 237.99 1123.15 234.75 C 1128.31 236.28 1133.43 237.97 1138.66 239.26 C 1140.98 244.92 1144.62 250.77 1150.72 252.84 C 1154.04 253.13 1157.26 251.97 1160.56 251.53 C 1162.27 254.36 1164.11 257.10 1165.93 259.89 C 1168.88 259.64 1172.04 259.48 1175.04 259.28 C 1172.18 271.19 1171.20 283.45 1168.47 295.39 C 1165.42 309.58 1164.11 324.14 1160.09 338.10 C 1158.28 345.19 1153.30 350.63 1147.19 354.29 C 1150.86 357.27 1154.56 360.27 1158.22 363.30 C 1155.17 382.15 1151.43 400.90 1147.45 419.57 C 1145.87 426.29 1139.67 430.20 1134.62 434.25 C 1132.16 433.36 1129.60 432.53 1127.52 430.91 C 1128.12 423.69 1130.80 416.82 1131.36 409.61 C 1131.67 407.42 1129.90 405.81 1128.24 404.76 C 1119.19 399.11 1109.65 393.24 1098.73 392.37 C 1091.39 392.54 1086.93 399.83 1082.79 404.84 C 1078.71 410.07 1072.63 413.15 1066.88 416.19 C 1058.06 421.10 1047.01 416.95 1038.22 421.89 C 1041.60 423.75 1045.31 424.89 1049.01 425.98 C 1048.95 427.58 1048.90 429.20 1048.87 430.81 C 1044.59 429.79 1040.52 428.09 1036.62 426.10 C 1031.75 431.25 1024.69 436.18 1024.24 443.93 C 1025.14 448.51 1031.05 449.09 1034.42 450.87 C 1038.79 452.43 1042.03 455.88 1045.40 458.91 C 1036.15 462.83 1028.04 453.87 1018.73 456.24 C 1019.45 458.65 1020.22 461.06 1021.00 463.47 C 1016.53 466.16 1011.23 466.06 1007.05 462.87 C 1003.55 464.55 1000.05 466.27 996.41 467.64 C 995.49 463.16 995.85 458.59 996.74 454.14 C 992.80 453.08 988.81 450.97 984.67 451.69 C 979.13 453.28 978.38 459.99 976.92 464.58 C 981.75 465.92 986.50 467.57 991.23 469.26 C 988.64 475.43 984.68 482.53 977.18 483.17 C 970.90 483.99 965.62 477.31 959.38 479.27 C 956.00 481.58 956.89 486.31 956.18 489.87 C 948.35 493.76 937.56 494.74 933.24 503.26 C 931.86 508.76 931.94 514.81 933.48 520.31 C 924.66 521.07 916.62 524.92 908.00 526.45 C 903.52 527.21 897.67 526.04 896.23 521.08 C 896.97 519.05 898.23 517.28 899.34 515.44 C 897.06 514.73 894.78 513.43 892.35 513.71 C 889.07 514.89 886.62 517.79 883.16 518.56 C 880.56 517.77 879.04 515.32 877.81 513.11 C 872.72 504.39 867.73 495.47 865.01 485.68 C 864.05 482.39 860.78 480.65 858.46 478.44 C 854.12 475.12 850.26 470.98 845.20 468.72 C 841.76 467.09 837.88 467.37 834.18 467.37 C 827.99 467.48 821.84 466.54 815.75 465.62 C 817.58 458.58 821.67 451.70 819.32 444.21 C 821.47 443.56 823.64 442.91 825.82 442.28 C 824.94 438.19 821.70 433.83 823.46 429.55 C 830.62 424.48 839.04 421.34 847.78 420.50 C 853.14 419.47 859.01 418.92 863.42 415.37 C 866.22 413.09 865.71 409.26 866.19 406.09 C 866.87 400.34 874.41 397.38 873.51 391.25 C 872.07 385.50 869.67 378.31 863.02 377.10 C 859.31 375.75 855.06 376.62 851.52 374.87 C 851.18 372.39 851.84 369.85 851.30 367.40 C 849.95 364.56 846.81 362.99 843.80 362.61 C 839.47 362.00 835.41 364.19 831.15 364.49 C 830.44 363.91 829.52 363.23 829.58 362.22 C 829.76 354.74 830.86 347.31 831.26 339.84 C 832.58 332.05 838.27 325.87 840.36 318.35 C 841.13 315.97 839.67 313.65 837.96 312.11 C 834.65 309.03 831.01 306.34 827.53 303.45 C 821.88 297.99 813.26 299.12 806.53 295.83 C 807.48 293.35 808.52 290.92 809.61 288.50 C 806.54 286.76 802.56 285.70 800.97 282.25 C 799.49 279.14 797.87 276.07 795.46 273.57 C 800.86 268.99 805.74 261.77 802.57 254.56 C 801.59 249.04 793.23 249.85 792.83 244.07 C 791.15 237.95 790.60 231.59 790.59 225.25 C 794.74 224.45 798.89 223.52 803.01 222.53 C 804.28 219.29 806.24 215.33 810.00 214.48 C 814.77 213.54 820.09 213.14 824.05 210.07 C 826.85 205.40 828.64 199.53 833.55 196.48 C 842.92 193.71 852.31 199.88 861.74 197.72 C 866.29 196.60 870.95 195.94 875.64 196.28 C 879.67 196.68 881.44 192.33 884.50 190.58 M 889.11 496.97 C 889.48 498.33 889.84 499.68 890.22 501.05 C 890.64 500.74 891.50 500.13 891.93 499.82 C 891.92 498.48 891.93 497.14 891.98 495.82 C 891.01 496.19 890.06 496.58 889.11 496.97 Z" />
</g>
<g target="62" id="#7f3fbfff">
<path fill="#7f3fbf" fill-opacity="0" d=" M 791.03 285.04 C 792.68 281.27 792.22 276.64 795.46 273.57 C 797.87 276.07 799.49 279.14 800.97 282.25 C 802.56 285.70 806.54 286.76 809.61 288.50 C 808.52 290.92 807.48 293.35 806.53 295.83 C 813.26 299.12 821.88 297.99 827.53 303.45 C 831.01 306.34 834.65 309.03 837.96 312.11 C 839.67 313.65 841.13 315.97 840.36 318.35 C 838.27 325.87 832.58 332.05 831.26 339.84 C 830.86 347.31 829.76 354.74 829.58 362.22 C 829.52 363.23 830.44 363.91 831.15 364.49 C 835.41 364.19 839.47 362.00 843.80 362.61 C 846.81 362.99 849.95 364.56 851.30 367.40 C 851.84 369.85 851.18 372.39 851.52 374.87 C 855.06 376.62 859.31 375.75 863.02 377.10 C 869.67 378.31 872.07 385.50 873.51 391.25 C 874.41 397.38 866.87 400.34 866.19 406.09 C 865.71 409.26 866.22 413.09 863.42 415.37 C 859.01 418.92 853.14 419.47 847.78 420.50 C 839.04 421.34 830.62 424.48 823.46 429.55 C 821.70 433.83 824.94 438.19 825.82 442.28 C 823.64 442.91 821.47 443.56 819.32 444.21 C 821.67 451.70 817.58 458.58 815.75 465.62 C 821.84 466.54 827.99 467.48 834.18 467.37 C 837.88 467.37 841.76 467.09 845.20 468.72 C 850.26 470.98 854.12 475.12 858.46 478.44 C 860.78 480.65 864.05 482.39 865.01 485.68 C 867.73 495.47 872.72 504.39 877.81 513.11 C 879.04 515.32 880.56 517.77 883.16 518.56 C 886.62 517.79 889.07 514.89 892.35 513.71 C 894.78 513.43 897.06 514.73 899.34 515.44 C 898.23 517.28 896.97 519.05 896.23 521.08 C 897.67 526.04 903.52 527.21 908.00 526.45 C 916.62 524.92 924.66 521.07 933.48 520.31 C 935.89 525.72 938.35 531.19 939.43 537.06 C 942.21 537.65 944.92 538.16 947.75 538.71 C 949.13 535.13 949.12 530.16 952.69 527.79 C 955.83 525.69 959.57 524.84 963.11 523.66 C 963.47 521.48 963.79 519.28 964.48 517.17 C 965.19 514.05 969.11 514.41 971.53 513.60 C 971.30 515.27 971.09 516.95 970.86 518.63 C 973.53 519.89 977.68 520.45 978.33 523.91 C 979.13 532.88 978.58 542.02 976.40 550.78 C 974.67 558.80 971.36 566.50 971.04 574.81 C 970.28 580.62 963.45 582.44 959.15 584.97 C 949.63 589.94 945.33 600.21 938.94 608.23 C 941.47 608.96 943.89 609.60 946.50 610.36 C 945.49 614.09 944.52 617.87 944.52 621.78 C 945.13 625.56 947.39 628.79 949.06 632.16 C 946.09 633.95 943.08 635.67 940.06 637.36 C 939.89 632.76 938.45 628.04 933.82 626.14 C 930.61 634.15 928.97 643.26 922.63 649.55 C 915.91 653.16 907.61 650.88 901.25 647.50 C 891.99 641.01 885.92 630.43 875.52 625.51 C 868.75 622.67 862.61 628.49 856.08 629.32 C 846.78 629.96 841.90 620.65 834.96 616.07 C 827.16 611.01 818.23 607.35 808.99 606.05 C 810.15 614.57 815.87 621.14 820.76 627.81 C 815.23 630.80 809.19 628.35 803.43 629.41 C 798.63 631.64 801.11 638.02 798.79 641.80 C 797.14 643.47 795.03 644.98 792.66 645.32 C 789.11 645.09 786.38 642.15 782.87 641.78 C 780.34 642.34 778.38 644.23 776.25 645.59 C 779.01 654.91 780.09 664.63 782.98 673.93 C 777.06 673.57 771.10 672.99 765.18 673.21 C 762.90 674.51 761.43 676.78 759.87 678.80 C 754.46 678.70 749.16 677.60 744.03 675.96 C 741.86 668.58 738.44 661.65 735.19 654.71 C 733.18 650.07 728.35 647.66 725.62 643.57 C 723.99 639.88 726.04 635.83 726.46 632.09 C 721.59 632.71 717.07 635.11 712.19 635.41 C 707.14 633.88 702.83 629.28 697.18 630.12 C 690.91 631.01 684.47 630.83 678.31 629.33 C 675.16 628.63 673.87 625.15 672.47 622.68 C 671.42 619.44 673.22 616.19 672.82 612.92 C 672.04 610.18 670.21 607.69 668.43 605.58 C 664.66 603.00 660.11 602.00 655.91 600.36 C 658.45 594.72 660.99 589.08 664.03 583.68 C 659.47 580.32 654.98 576.16 648.96 576.03 C 641.83 574.65 634.48 574.86 627.40 573.25 C 624.29 572.56 621.72 570.17 618.52 569.96 C 614.09 571.20 609.92 573.52 606.36 576.40 C 603.22 579.93 601.08 584.42 596.69 586.71 C 591.90 590.01 585.99 587.29 580.95 586.47 C 578.60 588.44 576.26 590.43 573.89 592.38 C 575.57 584.69 580.79 578.61 584.15 571.66 C 579.38 570.61 574.50 570.98 569.72 571.70 C 569.36 570.24 568.99 568.78 568.64 567.34 C 566.92 567.60 565.21 567.86 563.50 568.08 C 558.43 558.50 552.03 549.71 546.64 540.32 C 544.48 536.79 545.57 532.47 548.50 529.76 C 547.65 527.35 546.27 524.98 546.36 522.36 C 547.94 519.98 550.34 518.34 552.19 516.20 C 554.92 511.44 552.94 504.90 556.54 500.58 C 563.06 492.26 576.94 498.45 582.96 489.46 C 584.73 489.90 586.51 490.36 588.30 490.82 C 591.77 485.03 592.53 476.65 599.39 473.72 C 606.20 473.50 612.72 477.11 619.60 476.34 C 624.84 476.01 630.26 473.96 635.41 475.94 C 642.70 478.28 650.39 478.65 657.85 480.24 C 662.05 475.19 666.92 469.03 664.82 462.02 C 669.19 458.15 672.30 452.92 674.39 447.50 C 675.13 443.16 672.54 439.11 671.80 434.90 C 669.93 425.33 664.90 416.83 662.09 407.55 C 666.86 402.74 667.12 394.98 672.95 391.01 C 671.88 383.77 668.50 377.13 667.59 369.84 C 673.79 369.31 679.95 368.47 686.10 367.44 C 690.01 359.68 698.27 355.91 705.68 352.28 C 706.07 345.74 703.63 338.39 707.51 332.56 C 709.84 328.42 710.17 322.23 715.65 320.81 C 721.58 320.51 726.95 324.50 732.86 324.69 C 737.46 323.89 741.34 320.94 745.88 319.89 C 750.87 318.77 755.85 317.51 760.94 316.83 C 765.02 310.24 768.72 303.40 773.00 296.94 C 778.20 291.90 786.12 290.48 791.03 285.04 Z" />
</g>
<g target="33" id="#00bf3ffe">
<path fill="#00bf3f" fill-opacity="0" d=" M 1082.79 404.84 C 1086.93 399.83 1091.39 392.54 1098.73 392.37 C 1109.65 393.24 1119.19 399.11 1128.24 404.76 C 1129.90 405.81 1131.67 407.42 1131.36 409.61 C 1130.80 416.82 1128.12 423.69 1127.52 430.91 C 1129.60 432.53 1132.16 433.36 1134.62 434.25 C 1142.15 438.26 1152.28 436.95 1158.08 443.95 C 1160.96 446.73 1164.24 449.14 1167.07 452.01 C 1169.40 454.33 1168.25 457.89 1168.34 460.79 C 1170.64 461.58 1172.95 462.36 1175.26 463.14 C 1174.19 470.20 1170.15 477.27 1172.24 484.49 C 1172.87 486.94 1173.21 489.53 1174.37 491.82 C 1178.41 495.15 1183.14 497.54 1187.74 500.03 C 1188.80 495.99 1189.94 491.99 1191.11 487.99 C 1200.85 491.24 1210.90 495.20 1221.40 493.41 C 1226.85 493.58 1232.75 490.83 1238.04 492.93 C 1248.64 499.29 1252.88 511.41 1260.49 520.51 C 1264.29 525.49 1271.57 522.78 1276.86 524.36 C 1278.65 524.35 1278.74 526.40 1279.31 527.66 C 1283.46 543.99 1291.26 559.74 1303.19 571.80 C 1307.29 576.08 1311.16 580.64 1314.19 585.77 C 1309.52 594.74 1305.08 603.85 1300.98 613.10 C 1308.50 617.05 1316.31 620.45 1324.12 623.81 C 1328.70 624.99 1331.54 628.83 1334.68 632.02 C 1333.65 637.84 1333.48 643.93 1330.07 649.05 C 1321.52 669.48 1309.57 688.21 1298.00 707.01 C 1294.81 712.12 1292.43 717.94 1288.09 722.21 C 1283.53 719.66 1280.60 715.15 1276.99 711.53 C 1273.73 715.25 1270.70 719.17 1267.95 723.29 C 1265.98 722.57 1264.05 721.79 1262.11 721.05 C 1258.81 727.64 1255.59 734.32 1251.09 740.19 C 1246.81 738.50 1242.85 735.48 1238.14 735.22 C 1231.43 736.09 1227.34 742.46 1221.28 744.94 C 1220.65 742.50 1220.20 740.06 1219.92 737.62 C 1219.91 733.16 1221.98 728.79 1221.22 724.35 C 1219.49 720.80 1216.07 718.36 1214.15 714.92 C 1215.30 712.12 1217.80 710.25 1219.94 708.24 C 1215.71 707.46 1211.50 706.42 1207.27 705.76 C 1202.85 705.04 1198.64 706.94 1194.49 708.13 C 1186.21 710.51 1177.59 709.17 1169.14 709.82 C 1179.95 697.29 1181.22 679.83 1190.21 666.31 C 1191.49 663.69 1193.94 660.16 1191.63 657.43 C 1183.95 653.47 1176.48 661.17 1168.73 660.07 C 1161.43 657.54 1168.86 646.76 1161.61 644.16 C 1154.99 642.28 1148.05 641.15 1142.25 637.17 C 1147.42 627.50 1158.45 623.25 1169.01 623.48 C 1169.68 619.18 1169.71 614.63 1171.66 610.67 C 1174.88 603.97 1186.64 606.49 1186.92 597.56 C 1188.75 592.73 1184.35 588.74 1181.84 585.15 C 1179.15 581.15 1173.88 581.28 1170.22 578.74 C 1167.19 575.81 1165.44 571.70 1161.85 569.32 C 1153.82 564.28 1149.30 555.56 1143.81 548.17 C 1139.61 541.32 1133.34 534.58 1132.48 526.33 C 1135.51 518.23 1144.80 515.52 1151.80 511.67 C 1148.94 508.69 1144.70 504.76 1140.35 507.33 C 1133.60 512.25 1129.70 520.09 1123.10 525.15 C 1120.38 527.56 1117.06 524.83 1114.53 523.54 C 1103.51 516.15 1093.95 506.80 1085.13 496.95 C 1082.06 493.14 1079.07 489.27 1075.42 486.00 C 1075.74 481.31 1078.33 475.95 1075.45 471.57 C 1070.94 467.06 1064.39 472.98 1059.57 469.49 C 1054.75 466.10 1050.12 462.42 1045.40 458.91 C 1042.03 455.88 1038.79 452.43 1034.42 450.87 C 1031.05 449.09 1025.14 448.51 1024.24 443.93 C 1024.69 436.18 1031.75 431.25 1036.62 426.10 C 1040.52 428.09 1044.59 429.79 1048.87 430.81 C 1048.90 429.20 1048.95 427.58 1049.01 425.98 C 1045.31 424.89 1041.60 423.75 1038.22 421.89 C 1047.01 416.95 1058.06 421.10 1066.88 416.19 C 1072.63 413.15 1078.71 410.07 1082.79 404.84 Z" />
</g>
<g target="8" id="#7fbf3fff">
<path fill="#7fbf3f" fill-opacity="0" d=" M 984.67 451.69 C 988.81 450.97 992.80 453.08 996.74 454.14 C 995.85 458.59 995.49 463.16 996.41 467.64 C 1000.05 466.27 1003.55 464.55 1007.05 462.87 C 1011.23 466.06 1016.53 466.16 1021.00 463.47 C 1020.22 461.06 1019.45 458.65 1018.73 456.24 C 1028.04 453.87 1036.15 462.83 1045.40 458.91 C 1050.12 462.42 1054.75 466.10 1059.57 469.49 C 1064.39 472.98 1070.94 467.06 1075.45 471.57 C 1078.33 475.95 1075.74 481.31 1075.42 486.00 C 1079.07 489.27 1082.06 493.14 1085.13 496.95 C 1093.95 506.80 1103.51 516.15 1114.53 523.54 C 1117.06 524.83 1120.38 527.56 1123.10 525.15 C 1129.70 520.09 1133.60 512.25 1140.35 507.33 C 1144.70 504.76 1148.94 508.69 1151.80 511.67 C 1144.80 515.52 1135.51 518.23 1132.48 526.33 C 1133.34 534.58 1139.61 541.32 1143.81 548.17 C 1149.30 555.56 1153.82 564.28 1161.85 569.32 C 1165.44 571.70 1167.19 575.81 1170.22 578.74 C 1173.88 581.28 1179.15 581.15 1181.84 585.15 C 1184.35 588.74 1188.75 592.73 1186.92 597.56 C 1186.64 606.49 1174.88 603.97 1171.66 610.67 C 1169.71 614.63 1169.68 619.18 1169.01 623.48 C 1158.45 623.25 1147.42 627.50 1142.25 637.17 C 1148.05 641.15 1154.99 642.28 1161.61 644.16 C 1168.86 646.76 1161.43 657.54 1168.73 660.07 C 1176.48 661.17 1183.95 653.47 1191.63 657.43 C 1193.94 660.16 1191.49 663.69 1190.21 666.31 C 1181.22 679.83 1179.95 697.29 1169.14 709.82 C 1177.59 709.17 1186.21 710.51 1194.49 708.13 C 1198.64 706.94 1202.85 705.04 1207.27 705.76 C 1211.50 706.42 1215.71 707.46 1219.94 708.24 C 1217.80 710.25 1215.30 712.12 1214.15 714.92 C 1216.07 718.36 1219.49 720.80 1221.22 724.35 C 1221.98 728.79 1219.91 733.16 1219.92 737.62 C 1219.46 745.36 1220.08 753.57 1216.83 760.84 C 1213.45 768.40 1209.82 775.84 1206.56 783.46 C 1204.67 788.28 1199.46 790.49 1197.14 795.02 C 1194.93 798.60 1193.01 802.35 1190.94 806.01 C 1189.70 805.49 1188.50 804.98 1187.29 804.47 C 1184.36 810.48 1180.99 816.31 1176.91 821.63 C 1174.87 820.13 1172.83 818.65 1170.89 817.05 C 1169.54 818.70 1168.12 820.30 1166.77 821.94 C 1165.61 820.53 1164.45 819.13 1163.29 817.75 C 1165.81 811.66 1167.74 805.36 1169.65 799.06 C 1165.99 800.06 1162.57 802.05 1158.76 802.41 C 1154.07 802.00 1150.00 799.31 1145.74 797.55 C 1139.88 795.10 1135.85 789.79 1130.22 787.02 C 1116.60 783.95 1102.61 783.04 1089.00 779.90 C 1084.97 778.69 1081.35 781.24 1077.78 782.63 C 1072.58 778.96 1070.27 772.52 1066.18 767.81 C 1061.99 763.66 1056.61 761.00 1051.20 758.80 C 1041.36 754.87 1032.27 749.32 1022.32 745.65 C 1018.54 744.49 1016.59 740.79 1013.45 738.74 C 1004.81 736.03 995.51 736.41 987.06 732.99 C 976.88 728.80 969.55 720.07 963.62 711.12 C 960.53 706.29 959.81 700.42 957.14 695.41 C 954.67 691.43 950.04 689.73 945.91 688.09 C 941.27 686.39 936.68 684.54 931.94 683.18 C 926.82 681.68 921.41 683.19 916.28 681.85 C 908.75 680.36 905.88 671.82 898.87 669.29 C 891.70 665.31 881.66 665.49 877.06 657.90 C 876.24 656.72 875.44 655.52 874.65 654.34 C 869.10 656.79 865.76 662.07 863.68 667.56 C 860.77 668.38 857.74 668.95 855.05 670.36 C 851.06 672.86 847.78 676.67 842.92 677.56 C 837.88 678.59 832.17 680.45 827.20 678.74 C 824.17 673.82 824.41 667.59 822.85 662.16 C 821.61 662.52 820.37 662.87 819.15 663.23 C 819.65 665.43 820.13 667.64 820.64 669.85 C 817.04 673.31 814.45 677.80 815.17 683.06 C 809.67 682.41 805.83 678.13 800.91 676.16 C 795.03 674.75 788.96 674.57 782.98 673.93 C 780.09 664.63 779.01 654.91 776.25 645.59 C 778.38 644.23 780.34 642.34 782.87 641.78 C 786.38 642.15 789.11 645.09 792.66 645.32 C 795.03 644.98 797.14 643.47 798.79 641.80 C 801.11 638.02 798.63 631.64 803.43 629.41 C 809.19 628.35 815.23 630.80 820.76 627.81 C 815.87 621.14 810.15 614.57 808.99 606.05 C 818.23 607.35 827.16 611.01 834.96 616.07 C 841.90 620.65 846.78 629.96 856.08 629.32 C 862.61 628.49 868.75 622.67 875.52 625.51 C 885.92 630.43 891.99 641.01 901.25 647.50 C 907.61 650.88 915.91 653.16 922.63 649.55 C 928.97 643.26 930.61 634.15 933.82 626.14 C 938.45 628.04 939.89 632.76 940.06 637.36 C 943.08 635.67 946.09 633.95 949.06 632.16 C 947.39 628.79 945.13 625.56 944.52 621.78 C 944.52 617.87 945.49 614.09 946.50 610.36 C 943.89 609.60 941.47 608.96 938.94 608.23 C 945.33 600.21 949.63 589.94 959.15 584.97 C 963.45 582.44 970.28 580.62 971.04 574.81 C 971.36 566.50 974.67 558.80 976.40 550.78 C 978.58 542.02 979.13 532.88 978.33 523.91 C 977.68 520.45 973.53 519.89 970.86 518.63 C 971.09 516.95 971.30 515.27 971.53 513.60 C 969.11 514.41 965.19 514.05 964.48 517.17 C 963.79 519.28 963.47 521.48 963.11 523.66 C 959.57 524.84 955.83 525.69 952.69 527.79 C 949.12 530.16 949.13 535.13 947.75 538.71 C 944.92 538.16 942.21 537.65 939.43 537.06 C 938.35 531.19 935.89 525.72 933.48 520.31 C 931.94 514.81 931.86 508.76 933.24 503.26 C 937.56 494.74 948.35 493.76 956.18 489.87 C 956.89 486.31 956.00 481.58 959.38 479.27 C 965.62 477.31 970.90 483.99 977.18 483.17 C 984.68 482.53 988.64 475.43 991.23 469.26 C 986.50 467.57 981.75 465.92 976.92 464.58 C 978.38 459.99 979.13 453.28 984.67 451.69 Z" />
</g>
<g target="25" id="#00bfbfff">
<path fill="#00bfbf" fill-opacity="0" d=" M 556.81 566.69 C 558.95 567.45 561.16 568.56 563.50 568.08 C 565.21 567.86 566.92 567.60 568.64 567.34 C 568.99 568.78 569.36 570.24 569.72 571.70 C 574.50 570.98 579.38 570.61 584.15 571.66 C 580.79 578.61 575.57 584.69 573.89 592.38 C 576.26 590.43 578.60 588.44 580.95 586.47 C 585.99 587.29 591.90 590.01 596.69 586.71 C 601.08 584.42 603.22 579.93 606.36 576.40 C 609.92 573.52 614.09 571.20 618.52 569.96 C 621.72 570.17 624.29 572.56 627.40 573.25 C 634.48 574.86 641.83 574.65 648.96 576.03 C 654.98 576.16 659.47 580.32 664.03 583.68 C 660.99 589.08 658.45 594.72 655.91 600.36 C 660.11 602.00 664.66 603.00 668.43 605.58 C 670.21 607.69 672.04 610.18 672.82 612.92 C 673.22 616.19 671.42 619.44 672.47 622.68 C 673.87 625.15 675.16 628.63 678.31 629.33 C 684.47 630.83 690.91 631.01 697.18 630.12 C 702.83 629.28 707.14 633.88 712.19 635.41 C 717.07 635.11 721.59 632.71 726.46 632.09 C 726.04 635.83 723.99 639.88 725.62 643.57 C 728.35 647.66 733.18 650.07 735.19 654.71 C 738.44 661.65 741.86 668.58 744.03 675.96 C 745.61 682.82 749.78 688.83 750.92 695.81 C 747.26 698.01 741.76 697.91 741.11 703.41 C 740.19 704.97 739.12 707.61 736.91 706.33 C 731.26 703.41 723.87 701.32 718.23 705.24 C 714.37 708.36 717.58 713.25 719.51 716.50 C 724.73 724.30 729.63 732.64 730.43 742.23 C 735.51 742.42 740.58 741.62 745.64 741.54 C 750.07 743.05 751.63 748.06 753.06 752.02 C 755.06 756.16 753.04 761.13 755.91 764.99 C 758.86 770.50 766.09 769.84 770.47 773.50 C 774.66 779.68 778.35 787.94 775.81 795.46 C 771.13 801.96 764.88 807.59 757.16 810.19 C 762.05 815.94 768.07 820.50 774.42 824.55 C 779.12 827.22 780.72 832.78 783.28 837.24 C 779.21 840.07 774.57 841.85 769.88 843.36 C 772.74 848.16 776.88 852.95 776.73 858.85 C 775.36 864.84 772.34 870.37 768.96 875.48 C 766.74 875.60 764.30 875.07 762.25 876.14 C 759.52 879.76 758.23 884.51 754.53 887.38 C 749.74 888.23 744.98 885.54 742.38 881.58 C 736.69 873.31 725.89 872.43 717.18 869.11 C 714.18 867.13 709.18 867.84 707.65 871.25 C 707.78 876.97 708.19 882.94 705.13 888.08 C 702.60 888.18 700.07 888.27 697.54 888.34 C 694.41 895.14 691.86 902.21 688.12 908.71 C 687.03 913.16 687.43 917.85 686.22 922.31 C 685.99 925.27 684.32 928.86 686.52 931.46 C 689.51 935.20 692.88 938.64 696.25 942.06 C 690.72 941.52 685.18 944.72 679.82 942.55 C 670.61 940.33 661.19 934.68 651.59 938.60 C 646.98 943.60 644.06 949.86 642.11 956.32 C 633.03 950.09 624.81 942.71 616.74 935.25 C 612.45 931.75 611.79 925.85 608.05 921.95 C 605.07 918.24 601.00 915.43 598.70 911.22 C 595.82 906.23 591.59 902.23 588.38 897.48 C 580.85 887.93 575.62 876.70 567.05 867.96 C 561.78 862.58 557.37 856.28 551.13 851.96 C 545.81 849.32 539.52 849.58 534.26 846.76 C 519.83 840.96 510.62 827.61 498.29 818.75 C 492.75 815.25 485.70 815.40 480.26 811.70 C 471.69 805.76 464.37 798.25 456.37 791.61 C 451.48 787.20 446.00 783.26 442.21 777.82 C 439.86 774.39 439.87 769.32 436.10 767.02 C 423.53 760.44 413.99 749.75 403.23 740.77 C 398.18 736.12 391.72 732.06 390.63 724.66 C 394.82 723.77 399.52 724.62 403.29 722.31 C 400.90 719.49 398.29 716.92 395.73 714.28 C 400.51 710.17 404.84 705.55 409.73 701.58 C 416.21 698.85 420.64 705.52 425.62 708.28 C 434.37 715.14 446.28 716.43 456.83 713.73 C 460.86 712.29 465.18 710.23 467.29 706.27 C 470.96 698.94 469.34 689.76 473.80 682.81 C 479.40 678.89 487.01 677.94 491.97 672.93 C 497.31 664.95 499.36 655.12 505.73 647.75 C 509.57 644.86 515.09 644.89 519.09 647.44 C 521.39 643.08 524.23 639.03 527.58 635.40 C 519.08 622.72 506.52 611.85 503.85 596.13 C 503.03 592.09 502.47 588.03 501.87 583.97 C 507.82 587.21 514.77 589.24 521.56 587.42 C 528.02 584.99 534.35 582.17 540.70 579.44 C 543.35 584.35 547.37 588.28 552.94 589.38 C 550.90 585.54 546.72 581.53 548.73 576.85 C 549.91 572.43 553.45 569.48 556.81 566.69 M 599.56 749.45 C 592.45 752.46 585.61 756.66 577.76 757.37 C 573.14 757.80 568.45 759.00 563.83 758.24 C 558.95 756.78 554.94 753.48 550.94 750.47 C 545.81 752.63 541.27 750.39 537.54 746.94 C 534.69 749.46 532.27 752.66 533.63 756.66 C 537.11 757.92 541.48 757.86 543.83 761.11 C 547.78 766.73 555.15 767.50 560.23 771.72 C 564.40 774.58 569.48 771.95 574.04 773.04 C 580.27 774.52 586.45 776.44 592.83 777.11 C 597.47 776.23 605.35 776.96 606.95 771.02 C 608.79 764.45 611.42 758.17 615.43 752.59 C 617.50 754.78 619.37 757.15 621.22 759.53 C 625.87 758.79 630.43 760.02 634.89 761.25 C 633.54 763.34 632.01 765.33 630.35 767.20 C 632.74 768.43 635.18 769.56 637.64 770.65 C 637.96 772.00 638.58 774.71 638.90 776.06 C 637.09 777.37 635.23 778.60 633.41 779.89 C 635.43 781.53 637.51 783.10 639.66 784.58 C 639.76 785.13 639.96 786.23 640.06 786.78 C 636.40 788.33 632.21 789.31 629.36 792.25 C 628.34 794.45 628.65 797.00 628.37 799.37 C 626.22 800.60 623.09 801.39 622.61 804.21 C 621.83 809.52 624.27 814.67 624.38 819.97 C 623.72 823.06 621.69 825.62 620.08 828.28 C 623.09 829.96 626.30 831.06 629.66 831.86 C 630.68 835.87 632.34 840.35 637.73 839.97 C 637.00 843.95 636.41 847.99 636.53 852.05 C 632.66 854.39 628.94 860.02 623.68 857.40 C 619.70 853.39 619.75 846.51 615.29 842.81 C 611.83 840.97 605.45 844.32 607.38 848.61 C 608.43 851.48 610.52 853.80 612.23 856.31 C 609.69 857.15 607.18 858.06 604.69 859.02 C 605.25 860.98 605.82 862.96 606.49 864.91 C 604.12 865.77 601.74 866.60 599.37 867.46 C 601.12 869.70 602.81 872.19 605.40 873.54 C 610.73 874.63 616.45 872.33 621.65 874.38 C 624.53 876.41 626.57 879.36 629.34 881.58 C 632.16 883.20 635.45 883.30 638.58 883.90 C 641.34 887.09 644.48 893.32 649.74 891.41 C 656.42 887.84 661.20 881.16 662.97 873.81 C 666.39 865.86 660.84 857.88 661.54 849.77 C 661.87 843.40 666.73 839.08 669.43 833.79 C 670.63 823.85 663.88 815.41 662.44 805.88 C 662.64 798.99 667.37 793.34 670.92 787.82 C 674.47 789.29 679.35 789.91 680.96 793.94 C 682.87 798.75 684.32 803.73 686.50 808.45 C 686.02 805.40 685.20 802.37 685.33 799.27 C 686.38 797.80 687.96 796.86 689.46 795.91 C 684.32 788.81 683.01 780.02 679.96 772.01 C 677.76 763.20 668.66 759.31 663.33 752.75 C 656.95 749.76 649.59 750.95 643.68 754.40 C 635.64 755.38 630.64 747.43 624.79 743.39 C 620.43 742.56 615.70 743.59 611.69 740.97 C 608.03 744.31 604.12 747.44 599.56 749.45 M 690.82 816.56 C 689.41 813.96 688.15 811.29 686.84 808.65 C 687.46 812.78 684.22 819.38 689.11 821.94 C 692.08 824.87 696.40 820.68 695.58 817.28 C 694.54 810.52 692.25 804.01 690.16 797.52 C 686.35 803.85 694.18 809.78 690.82 816.56 Z" />
</g>
<g target="1" id="#7f3f3fff">
<path fill="#7f3f3f" fill-opacity="0" d=" M 599.56 749.45 C 604.12 747.44 608.03 744.31 611.69 740.97 C 615.70 743.59 620.43 742.56 624.79 743.39 C 630.64 747.43 635.64 755.38 643.68 754.40 C 649.59 750.95 656.95 749.76 663.33 752.75 C 668.66 759.31 677.76 763.20 679.96 772.01 C 683.01 780.02 684.32 788.81 689.46 795.91 C 687.96 796.86 686.38 797.80 685.33 799.27 C 685.20 802.37 686.02 805.40 686.50 808.45 C 684.32 803.73 682.87 798.75 680.96 793.94 C 679.35 789.91 674.47 789.29 670.92 787.82 C 667.37 793.34 662.64 798.99 662.44 805.88 C 663.88 815.41 670.63 823.85 669.43 833.79 C 666.73 839.08 661.87 843.40 661.54 849.77 C 660.84 857.88 666.39 865.86 662.97 873.81 C 661.20 881.16 656.42 887.84 649.74 891.41 C 644.48 893.32 641.34 887.09 638.58 883.90 C 635.45 883.30 632.16 883.20 629.34 881.58 C 626.57 879.36 624.53 876.41 621.65 874.38 C 616.45 872.33 610.73 874.63 605.40 873.54 C 602.81 872.19 601.12 869.70 599.37 867.46 C 601.74 866.60 604.12 865.77 606.49 864.91 C 605.82 862.96 605.25 860.98 604.69 859.02 C 607.18 858.06 609.69 857.15 612.23 856.31 C 610.52 853.80 608.43 851.48 607.38 848.61 C 605.45 844.32 611.83 840.97 615.29 842.81 C 619.75 846.51 619.70 853.39 623.68 857.40 C 628.94 860.02 632.66 854.39 636.53 852.05 C 636.41 847.99 637.00 843.95 637.73 839.97 C 632.34 840.35 630.68 835.87 629.66 831.86 C 626.30 831.06 623.09 829.96 620.08 828.28 C 621.69 825.62 623.72 823.06 624.38 819.97 C 624.27 814.67 621.83 809.52 622.61 804.21 C 623.09 801.39 626.22 800.60 628.37 799.37 C 628.65 797.00 628.34 794.45 629.36 792.25 C 632.21 789.31 636.40 788.33 640.06 786.78 C 639.96 786.23 639.76 785.13 639.66 784.58 C 637.51 783.10 635.43 781.53 633.41 779.89 C 635.23 778.60 637.09 777.37 638.90 776.06 C 638.58 774.71 637.96 772.00 637.64 770.65 C 635.18 769.56 632.74 768.43 630.35 767.20 C 632.01 765.33 633.54 763.34 634.89 761.25 C 630.43 760.02 625.87 758.79 621.22 759.53 C 619.37 757.15 617.50 754.78 615.43 752.59 C 611.42 758.17 608.79 764.45 606.95 771.02 C 605.35 776.96 597.47 776.23 592.83 777.11 C 586.45 776.44 580.27 774.52 574.04 773.04 C 569.48 771.95 564.40 774.58 560.23 771.72 C 555.15 767.50 547.78 766.73 543.83 761.11 C 541.48 757.86 537.11 757.92 533.63 756.66 C 532.27 752.66 534.69 749.46 537.54 746.94 C 541.27 750.39 545.81 752.63 550.94 750.47 C 554.94 753.48 558.95 756.78 563.83 758.24 C 568.45 759.00 573.14 757.80 577.76 757.37 C 585.61 756.66 592.45 752.46 599.56 749.45 Z" />
<path fill="#7f3f3f" fill-opacity="0" d=" M 690.82 816.56 C 694.18 809.78 686.35 803.85 690.16 797.52 C 692.25 804.01 694.54 810.52 695.58 817.28 C 696.40 820.68 692.08 824.87 689.11 821.94 C 684.22 819.38 687.46 812.78 686.84 808.65 C 688.15 811.29 689.41 813.96 690.82 816.56 Z" />
</g>
</svg>
