<?xml version="1.0" encoding="UTF-8" ?>
<!DOCTYPE svg PUBLIC "-//W3C//DTD SVG 1.1//EN" "http://www.w3.org/Graphics/SVG/1.1/DTD/svg11.dtd">
<svg width="1920pt" height="1080pt" viewBox="0 0 1920 1080" version="1.1" xmlns="http://www.w3.org/2000/svg">
<g target="37" id="#5f007fff">
<path fill="#5f007f" opacity="0.00" d=" M 881.01 138.05 C 885.02 133.67 891.74 132.55 897.31 133.71 C 905.76 138.77 913.77 144.57 921.95 150.05 C 928.80 153.92 936.95 149.73 943.10 146.10 C 946.22 143.69 950.23 144.01 953.95 143.43 C 957.39 142.97 959.19 138.92 962.79 138.96 C 963.84 141.08 964.56 143.33 965.42 145.53 C 968.81 146.15 972.52 145.65 974.96 142.99 C 979.76 137.91 987.35 138.60 993.73 137.93 C 995.15 139.58 996.61 141.20 998.09 142.82 C 1003.03 139.34 1009.76 137.90 1015.34 140.69 C 1020.76 143.88 1028.06 143.49 1032.04 149.01 C 1036.42 153.00 1037.06 159.91 1042.56 162.96 C 1044.69 172.26 1040.92 181.80 1043.42 191.04 C 1050.10 186.05 1058.45 188.03 1066.06 188.94 C 1066.39 184.81 1066.10 180.50 1067.62 176.57 C 1069.06 174.79 1071.17 172.69 1073.69 173.23 C 1079.91 174.52 1085.32 178.06 1090.55 181.48 C 1094.65 183.89 1091.26 189.71 1092.40 193.29 C 1096.64 193.82 1101.01 194.02 1104.83 191.81 C 1109.54 188.80 1115.60 194.16 1119.82 189.83 C 1122.60 186.85 1123.71 182.88 1125.03 179.14 C 1129.80 180.96 1134.60 182.79 1139.48 184.34 C 1141.70 191.12 1147.89 199.15 1155.93 197.20 C 1157.22 196.97 1159.80 196.50 1161.08 196.27 C 1162.18 198.89 1163.30 201.65 1165.46 203.61 C 1168.42 205.07 1171.81 204.35 1174.97 204.26 C 1171.06 230.19 1166.14 255.97 1160.37 281.54 C 1158.52 289.22 1152.94 295.01 1146.75 299.51 C 1150.59 302.32 1154.36 305.29 1158.19 308.15 C 1154.86 326.93 1151.27 345.69 1147.32 364.35 C 1145.87 371.39 1139.17 374.83 1134.34 379.40 C 1132.31 378.61 1130.26 377.87 1128.23 377.14 C 1128.31 369.05 1131.10 361.28 1131.54 353.25 C 1129.68 349.81 1125.48 348.58 1122.49 346.40 C 1114.32 341.52 1105.09 336.24 1095.22 337.65 C 1090.94 339.66 1088.12 343.69 1085.24 347.29 C 1079.75 354.23 1072.34 359.64 1064.14 362.91 C 1055.50 364.90 1046.13 363.52 1037.88 367.31 C 1042.13 369.89 1048.87 369.40 1050.06 375.45 C 1045.11 375.06 1040.43 373.35 1035.81 371.70 C 1031.70 375.95 1026.63 379.94 1025.27 386.04 C 1022.88 388.45 1024.85 390.90 1026.47 392.54 C 1029.50 395.05 1033.74 395.05 1037.05 397.05 C 1040.18 398.98 1042.74 401.66 1045.57 403.99 C 1044.09 404.96 1042.63 405.94 1041.18 406.93 C 1034.45 403.33 1027.11 401.26 1019.49 400.82 C 1019.41 403.85 1022.19 408.36 1018.78 410.33 C 1014.92 412.48 1010.89 409.74 1007.02 409.26 C 1003.67 409.76 1000.63 411.56 997.21 411.74 C 994.64 408.19 996.10 403.71 996.75 399.82 C 992.61 398.10 987.94 395.19 983.43 397.42 C 978.83 399.77 978.38 405.47 977.46 409.96 C 982.22 411.69 986.96 413.55 991.61 415.59 C 988.38 420.80 984.97 427.45 978.33 428.62 C 971.68 429.80 966.36 423.25 959.82 424.68 C 955.29 425.81 956.71 431.66 956.14 434.99 C 948.15 438.66 937.17 440.22 933.20 449.21 C 931.98 454.57 932.36 460.34 933.55 465.72 C 926.85 467.11 920.09 468.30 913.63 470.59 C 908.78 471.97 903.03 473.39 898.42 470.60 C 895.35 467.02 897.79 462.08 897.81 457.93 C 891.83 458.14 887.37 462.01 882.16 464.19 C 874.78 453.51 867.53 442.15 864.45 429.37 C 862.39 426.75 859.21 425.35 856.72 423.21 C 852.56 420.06 849.62 415.12 844.41 413.53 C 835.54 410.79 825.87 414.55 817.20 410.79 C 813.06 406.57 818.43 401.67 820.71 398.03 C 820.03 395.55 819.12 393.09 818.92 390.52 C 820.58 389.68 823.91 387.99 825.58 387.15 C 824.81 383.36 821.61 379.37 823.36 375.46 C 827.76 371.86 832.98 369.00 838.40 367.18 C 846.87 365.78 856.29 365.61 863.60 360.55 C 867.98 357.38 864.03 351.12 867.21 347.27 C 869.31 343.85 873.97 341.50 873.93 337.10 C 872.50 331.68 869.82 326.13 864.98 322.97 C 860.81 320.14 855.41 320.87 850.68 320.09 C 850.92 316.52 852.56 311.55 848.62 309.38 C 842.46 305.39 835.19 308.76 828.76 310.03 C 829.44 306.04 830.22 302.06 830.81 298.05 C 831.65 292.12 829.79 285.86 832.13 280.16 C 834.24 274.33 837.66 269.12 840.22 263.52 C 841.74 260.00 838.22 257.19 835.91 255.13 C 831.57 251.90 827.52 248.15 822.67 245.70 C 817.00 243.78 811.24 242.13 805.65 239.98 C 807.04 237.44 808.36 234.86 809.63 232.26 C 806.44 231.08 803.27 229.86 800.06 228.76 C 799.68 224.97 798.56 221.26 796.57 218.00 C 799.29 214.86 801.63 211.41 803.56 207.73 C 803.72 204.22 803.47 200.72 802.95 197.25 C 799.65 195.13 796.54 192.85 793.27 190.72 C 792.21 183.94 790.99 177.20 789.97 170.42 C 794.47 169.32 798.93 167.90 803.55 167.35 C 804.44 164.87 804.43 161.55 807.10 160.19 C 812.53 158.05 818.72 157.92 823.69 154.62 C 827.53 150.28 828.95 144.12 833.63 140.45 C 839.71 139.85 845.74 141.30 851.71 142.24 C 858.57 143.53 865.21 140.65 872.05 140.61 C 875.14 140.32 878.78 140.73 881.01 138.05 M 889.02 442.25 C 889.14 444.16 889.60 446.04 890.03 447.91 C 891.47 445.54 892.70 443.04 893.56 440.39 C 892.02 441.00 890.52 441.60 889.02 442.25 Z" />
</g>
<g target="62" id="#df007fff">
<path fill="#df007f" opacity="0.00" d=" M 791.89 228.14 C 792.63 224.37 792.50 219.98 796.57 218.00 C 798.56 221.26 799.68 224.97 800.06 228.76 C 803.27 229.86 806.44 231.08 809.63 232.26 C 808.36 234.86 807.04 237.44 805.65 239.98 C 811.24 242.13 817.00 243.78 822.67 245.70 C 827.52 248.15 831.57 251.90 835.91 255.13 C 838.22 257.19 841.74 260.00 840.22 263.52 C 837.66 269.12 834.24 274.33 832.13 280.16 C 829.79 285.86 831.65 292.12 830.81 298.05 C 830.22 302.06 829.44 306.04 828.76 310.03 C 835.19 308.76 842.46 305.39 848.62 309.38 C 852.56 311.55 850.92 316.52 850.68 320.09 C 855.41 320.87 860.81 320.14 864.98 322.97 C 869.82 326.13 872.50 331.68 873.93 337.10 C 873.97 341.50 869.31 343.85 867.21 347.27 C 864.03 351.12 867.98 357.38 863.60 360.55 C 856.29 365.61 846.87 365.78 838.40 367.18 C 832.98 369.00 827.76 371.86 823.36 375.46 C 821.61 379.37 824.81 383.36 825.58 387.15 C 823.91 387.99 820.58 389.68 818.92 390.52 C 819.12 393.09 820.03 395.55 820.71 398.03 C 818.43 401.67 813.06 406.57 817.20 410.79 C 825.87 414.55 835.54 410.79 844.41 413.53 C 849.62 415.12 852.56 420.06 856.72 423.21 C 859.21 425.35 862.39 426.75 864.45 429.37 C 867.53 442.15 874.78 453.51 882.16 464.19 C 887.37 462.01 891.83 458.14 897.81 457.93 C 897.79 462.08 895.35 467.02 898.42 470.60 C 903.03 473.39 908.78 471.97 913.63 470.59 C 920.09 468.30 926.85 467.11 933.55 465.72 C 935.84 470.40 937.59 475.30 939.65 480.08 C 941.69 482.17 944.42 483.70 946.77 485.56 C 948.30 481.80 949.13 477.68 951.45 474.31 C 954.31 471.17 958.88 470.88 962.74 469.77 C 963.41 466.59 964.10 463.43 964.87 460.29 C 966.46 460.26 968.28 459.42 969.79 460.05 C 972.45 463.07 975.38 465.89 977.68 469.20 C 979.61 474.56 978.22 480.46 978.10 485.99 C 977.73 493.78 975.37 501.27 972.64 508.52 C 970.96 512.91 972.75 517.82 970.99 522.15 C 967.78 527.76 960.31 527.64 955.98 531.94 C 948.05 537.07 944.79 546.23 938.96 553.24 C 941.15 554.16 943.36 555.07 945.60 555.90 C 945.16 559.22 944.62 562.52 944.62 565.90 C 945.49 569.83 947.47 573.42 949.09 577.09 C 946.13 579.26 943.03 581.23 939.96 583.23 C 940.49 578.16 938.60 573.57 934.10 571.22 C 930.78 579.06 928.63 587.51 923.67 594.54 C 918.04 598.19 910.67 596.23 904.75 594.39 C 892.62 589.38 886.93 575.63 874.76 570.57 C 866.69 568.62 859.55 576.73 851.53 573.71 C 846.31 572.52 842.83 568.29 839.24 564.69 C 830.75 557.39 819.83 553.95 809.36 550.58 C 809.64 556.94 813.02 562.41 816.80 567.30 C 818.09 569.47 820.71 572.25 818.74 574.77 C 813.07 576.83 806.48 572.29 801.29 576.32 C 798.89 579.34 800.77 583.74 799.06 587.07 C 797.09 589.41 793.71 591.22 790.63 590.15 C 787.61 589.09 784.56 587.99 781.40 587.41 C 779.37 588.49 777.75 590.17 776.06 591.71 C 778.16 595.62 780.32 599.75 780.13 604.33 C 779.88 609.39 782.00 614.06 783.78 618.68 C 778.62 618.29 773.50 617.33 768.32 617.40 C 764.19 617.22 761.85 621.36 758.88 623.60 C 753.79 622.47 748.67 621.48 743.63 620.19 C 739.11 608.83 735.56 595.97 725.17 588.38 C 725.63 584.73 726.36 581.11 726.85 577.47 C 721.38 578.38 715.99 579.71 710.56 580.75 C 706.95 577.86 702.94 574.14 697.93 575.06 C 691.30 576.42 684.22 576.53 677.91 573.82 C 675.06 572.03 673.23 569.07 671.22 566.45 C 674.31 561.42 672.88 555.09 669.05 550.95 C 665.12 548.63 660.56 547.67 656.32 546.05 C 658.23 540.84 661.08 535.97 662.45 530.57 C 663.29 528.09 660.66 526.29 659.04 524.88 C 647.05 517.49 630.62 524.00 619.46 514.70 C 615.09 516.83 610.16 518.13 606.40 521.27 C 603.46 525.82 600.20 530.65 595.16 533.11 C 588.26 534.55 580.31 531.18 574.56 536.57 C 576.20 529.14 580.67 522.84 584.78 516.59 C 579.84 515.95 574.87 516.14 569.93 516.67 C 569.44 515.57 568.95 514.47 568.46 513.38 C 567.08 513.59 565.71 513.81 564.35 514.01 C 559.15 504.57 553.36 495.48 547.49 486.45 C 546.49 484.55 544.83 482.55 545.23 480.30 C 546.30 478.49 548.06 477.27 549.64 475.95 C 548.52 473.70 547.17 471.54 546.56 469.10 C 547.74 466.01 550.85 464.33 552.68 461.70 C 554.81 456.72 552.55 449.96 557.08 446.11 C 563.72 438.31 577.24 444.39 583.02 435.52 C 584.97 435.94 586.93 436.35 588.88 436.81 C 591.23 431.21 592.31 424.23 597.67 420.60 C 603.46 418.79 609.39 421.08 615.08 422.26 C 620.42 422.52 625.66 420.81 631.01 420.90 C 639.56 424.55 649.11 423.94 657.98 426.37 C 662.40 421.28 666.80 414.81 665.07 407.75 C 669.33 403.08 672.86 397.63 675.32 391.83 C 674.59 386.63 672.03 381.87 671.07 376.70 C 669.27 368.47 664.34 361.22 662.88 352.95 C 665.24 346.88 668.33 340.86 672.92 336.15 C 671.94 329.02 667.01 321.70 669.19 314.48 C 674.54 313.22 680.83 315.02 685.82 312.85 C 690.07 305.19 698.20 301.39 705.74 297.72 C 706.25 290.25 703.65 281.72 709.15 275.45 C 710.92 272.70 710.35 268.18 713.93 266.88 C 722.20 264.51 730.45 272.47 738.50 268.42 C 745.17 264.90 752.63 263.27 759.98 261.85 C 762.12 261.71 763.28 259.81 764.11 258.08 C 767.89 250.40 772.09 242.46 779.10 237.23 C 783.42 234.37 789.92 233.61 791.89 228.14 Z" />
</g>
<g target="33" id="#5f7f00ff">
<path fill="#5f7f00" opacity="0.00" d=" M 1085.24 347.29 C 1088.12 343.69 1090.94 339.66 1095.22 337.65 C 1105.09 336.24 1114.32 341.52 1122.49 346.40 C 1125.48 348.58 1129.68 349.81 1131.54 353.25 C 1131.10 361.28 1128.31 369.05 1128.23 377.14 C 1130.26 377.87 1132.31 378.61 1134.34 379.40 C 1140.45 382.20 1146.82 384.35 1153.39 385.82 C 1158.14 389.77 1162.09 394.68 1167.65 397.67 C 1167.55 400.43 1167.69 403.27 1167.54 406.05 C 1170.02 407.04 1172.45 408.13 1174.94 409.12 C 1171.66 417.83 1171.40 426.99 1172.51 436.10 C 1177.14 440.38 1182.54 443.86 1188.73 445.34 C 1189.54 441.53 1190.42 437.75 1191.28 433.96 C 1200.67 437.11 1210.29 441.09 1220.46 439.57 C 1225.80 439.58 1231.45 436.51 1236.78 438.22 C 1249.12 444.73 1252.96 459.27 1262.47 468.52 C 1267.23 470.55 1272.70 469.68 1277.81 470.23 C 1282.12 489.62 1291.95 507.87 1306.45 521.54 C 1310.06 525.21 1314.94 530.79 1311.07 536.01 C 1308.11 543.68 1302.05 550.41 1301.09 558.73 C 1310.83 566.60 1325.31 567.20 1333.58 577.16 C 1332.46 582.16 1333.07 587.63 1330.22 592.14 C 1326.95 598.12 1324.79 604.61 1321.62 610.64 C 1311.19 629.70 1299.00 647.73 1288.51 666.76 C 1283.76 663.95 1280.18 659.67 1276.33 655.83 C 1273.11 659.80 1270.04 663.89 1267.08 668.05 C 1265.34 667.09 1263.65 666.11 1261.95 665.14 C 1258.24 671.64 1254.60 678.17 1250.82 684.63 C 1245.77 682.67 1240.77 679.55 1235.16 680.09 C 1230.03 682.06 1226.46 686.38 1222.21 689.67 C 1221.26 687.00 1220.17 684.40 1219.56 681.68 C 1220.05 677.28 1221.49 672.91 1221.07 668.48 C 1218.85 665.74 1215.58 663.98 1212.99 661.69 C 1213.85 658.29 1216.52 656.12 1219.36 654.45 C 1219.21 653.89 1219.07 653.33 1218.96 652.80 C 1211.49 652.49 1203.78 649.02 1196.62 652.74 C 1187.45 655.88 1177.69 653.84 1168.26 655.06 C 1175.88 646.13 1180.15 635.23 1183.64 624.20 C 1185.73 616.82 1193.69 610.22 1190.68 602.32 C 1182.81 598.69 1174.34 608.28 1166.38 604.64 C 1164.52 600.34 1165.62 595.46 1163.88 591.13 C 1159.35 587.47 1152.84 589.28 1148.06 586.03 C 1145.73 584.71 1141.36 582.15 1144.07 579.13 C 1149.56 570.87 1160.06 569.19 1169.28 569.32 C 1169.67 564.06 1169.08 558.09 1172.93 553.92 C 1176.38 550.90 1181.13 550.20 1185.39 548.95 C 1185.70 545.53 1188.07 542.10 1187.23 538.65 C 1184.85 534.38 1181.83 530.30 1177.85 527.41 C 1174.78 525.24 1170.56 525.05 1168.06 522.05 C 1162.41 515.66 1155.65 510.32 1150.61 503.40 C 1144.67 495.18 1138.63 486.94 1134.08 477.85 C 1132.89 475.34 1131.59 472.09 1133.49 469.57 C 1137.94 463.61 1145.38 461.02 1151.04 456.45 C 1148.97 452.00 1142.21 449.68 1138.49 453.47 C 1132.74 459.59 1127.68 466.32 1121.74 472.27 C 1102.73 463.89 1089.24 447.25 1076.29 431.66 C 1072.43 427.27 1079.95 421.59 1075.98 417.10 C 1071.07 412.49 1063.92 418.13 1058.74 414.26 C 1054.09 411.18 1049.90 407.48 1045.57 403.99 C 1042.74 401.66 1040.18 398.98 1037.05 397.05 C 1033.74 395.05 1029.50 395.05 1026.47 392.54 C 1024.85 390.90 1022.88 388.45 1025.27 386.04 C 1026.63 379.94 1031.70 375.95 1035.81 371.70 C 1040.43 373.35 1045.11 375.06 1050.06 375.45 C 1048.87 369.40 1042.13 369.89 1037.88 367.31 C 1046.13 363.52 1055.50 364.90 1064.14 362.91 C 1072.34 359.64 1079.75 354.23 1085.24 347.29 Z" />
</g>
<g target="8" id="#df7f00ff">
<path fill="#df7f00" opacity="0.00" d=" M 983.43 397.42 C 987.94 395.19 992.61 398.10 996.75 399.82 C 996.10 403.71 994.64 408.19 997.21 411.74 C 1000.63 411.56 1003.67 409.76 1007.02 409.26 C 1010.89 409.74 1014.92 412.48 1018.78 410.33 C 1022.19 408.36 1019.41 403.85 1019.49 400.82 C 1027.11 401.26 1034.45 403.33 1041.18 406.93 C 1042.63 405.94 1044.09 404.96 1045.57 403.99 C 1049.90 407.48 1054.09 411.18 1058.74 414.26 C 1063.92 418.13 1071.07 412.49 1075.98 417.10 C 1079.95 421.59 1072.43 427.27 1076.29 431.66 C 1089.24 447.25 1102.73 463.89 1121.74 472.27 C 1127.68 466.32 1132.74 459.59 1138.49 453.47 C 1142.21 449.68 1148.97 452.00 1151.04 456.45 C 1145.38 461.02 1137.94 463.61 1133.49 469.57 C 1131.59 472.09 1132.89 475.34 1134.08 477.85 C 1138.63 486.94 1144.67 495.18 1150.61 503.40 C 1155.65 510.32 1162.41 515.66 1168.06 522.05 C 1170.56 525.05 1174.78 525.24 1177.85 527.41 C 1181.83 530.30 1184.85 534.38 1187.23 538.65 C 1188.07 542.10 1185.70 545.53 1185.39 548.95 C 1181.13 550.20 1176.38 550.90 1172.93 553.92 C 1169.08 558.09 1169.67 564.06 1169.28 569.32 C 1160.06 569.19 1149.56 570.87 1144.07 579.13 C 1141.36 582.15 1145.73 584.71 1148.06 586.03 C 1152.84 589.28 1159.35 587.47 1163.88 591.13 C 1165.62 595.46 1164.52 600.34 1166.38 604.64 C 1174.34 608.28 1182.81 598.69 1190.68 602.32 C 1193.69 610.22 1185.73 616.82 1183.64 624.20 C 1180.15 635.23 1175.88 646.13 1168.26 655.06 C 1177.69 653.84 1187.45 655.88 1196.62 652.74 C 1203.78 649.02 1211.49 652.49 1218.96 652.80 C 1219.07 653.33 1219.21 653.89 1219.36 654.45 C 1216.52 656.12 1213.85 658.29 1212.99 661.69 C 1215.58 663.98 1218.85 665.74 1221.07 668.48 C 1221.49 672.91 1220.05 677.28 1219.56 681.68 C 1217.58 690.35 1219.02 699.81 1214.90 707.95 C 1211.00 716.60 1206.70 725.05 1202.73 733.67 C 1201.48 733.64 1200.25 733.64 1199.03 733.61 C 1196.15 739.05 1193.11 744.40 1190.06 749.74 C 1188.79 749.30 1187.54 748.87 1186.30 748.44 C 1183.53 754.77 1180.16 760.82 1175.95 766.31 C 1174.22 764.58 1172.58 762.79 1170.92 761.02 C 1169.13 762.48 1167.32 763.91 1165.51 765.34 C 1162.82 757.97 1168.66 751.13 1169.94 744.04 C 1168.93 743.50 1167.95 742.98 1166.99 742.45 C 1161.08 747.24 1153.21 745.41 1147.03 742.18 C 1140.68 740.49 1136.86 734.87 1131.41 731.71 C 1117.21 727.17 1102.17 726.78 1087.68 723.64 C 1084.10 723.64 1080.79 725.41 1077.24 725.64 C 1071.47 721.85 1069.80 714.63 1064.46 710.51 C 1056.76 703.10 1045.58 701.94 1036.86 696.19 C 1029.77 691.81 1020.24 691.04 1015.25 683.73 C 1007.79 680.00 998.68 681.19 990.86 678.26 C 979.55 675.58 971.78 665.76 965.13 656.89 C 959.44 651.21 961.48 640.98 954.34 636.65 C 949.68 633.63 944.44 631.71 939.32 629.64 C 932.28 626.75 924.50 626.97 917.10 625.85 C 911.64 624.97 908.21 620.09 904.17 616.84 C 899.23 611.68 891.83 610.70 885.47 608.28 C 881.05 606.46 878.40 601.65 873.97 600.07 C 867.95 601.42 865.80 608.01 862.36 612.36 C 857.12 614.05 852.18 616.47 847.74 619.76 C 842.15 624.04 834.71 622.64 828.13 623.07 C 826.50 617.78 824.79 612.51 823.81 607.08 C 822.10 607.19 820.39 607.32 818.68 607.42 C 818.96 609.75 819.71 612.41 820.21 614.81 C 819.05 616.02 817.89 617.21 816.73 618.41 C 816.50 621.28 816.79 624.37 815.89 627.19 C 810.55 628.64 807.51 623.76 803.36 621.74 C 797.23 618.92 790.39 618.97 783.78 618.68 C 782.00 614.06 779.88 609.39 780.13 604.33 C 780.32 599.75 778.16 595.62 776.06 591.71 C 777.75 590.17 779.37 588.49 781.40 587.41 C 784.56 587.99 787.61 589.09 790.63 590.15 C 793.71 591.22 797.09 589.41 799.06 587.07 C 800.77 583.74 798.89 579.34 801.29 576.32 C 806.48 572.29 813.07 576.83 818.74 574.77 C 820.71 572.25 818.09 569.47 816.80 567.30 C 813.02 562.41 809.64 556.94 809.36 550.58 C 819.83 553.95 830.75 557.39 839.24 564.69 C 842.83 568.29 846.31 572.52 851.53 573.71 C 859.55 576.73 866.69 568.62 874.76 570.57 C 886.93 575.63 892.62 589.38 904.75 594.39 C 910.67 596.23 918.04 598.19 923.67 594.54 C 928.63 587.51 930.78 579.06 934.10 571.22 C 938.60 573.57 940.49 578.16 939.96 583.23 C 943.03 581.23 946.13 579.26 949.09 577.09 C 947.47 573.42 945.49 569.83 944.62 565.90 C 944.62 562.52 945.16 559.22 945.60 555.90 C 943.36 555.07 941.15 554.16 938.96 553.24 C 944.79 546.23 948.05 537.07 955.98 531.94 C 960.31 527.64 967.78 527.76 970.99 522.15 C 972.75 517.82 970.96 512.91 972.64 508.52 C 975.37 501.27 977.73 493.78 978.10 485.99 C 978.22 480.46 979.61 474.56 977.68 469.20 C 975.38 465.89 972.45 463.07 969.79 460.05 C 968.28 459.42 966.46 460.26 964.87 460.29 C 964.10 463.43 963.41 466.59 962.74 469.77 C 958.88 470.88 954.31 471.17 951.45 474.31 C 949.13 477.68 948.30 481.80 946.77 485.56 C 944.42 483.70 941.69 482.17 939.65 480.08 C 937.59 475.30 935.84 470.40 933.55 465.72 C 932.36 460.34 931.98 454.57 933.20 449.21 C 937.17 440.22 948.15 438.66 956.14 434.99 C 956.71 431.66 955.29 425.81 959.82 424.68 C 966.36 423.25 971.68 429.80 978.33 428.62 C 984.97 427.45 988.38 420.80 991.61 415.59 C 986.96 413.55 982.22 411.69 977.46 409.96 C 978.38 405.47 978.83 399.77 983.43 397.42 Z" />
</g>
<g target="25" id="#5f7f7fff">
<path fill="#5f7f7f" opacity="0.00" d=" M 556.69 512.47 C 559.09 513.54 561.64 514.78 564.35 514.01 C 565.71 513.81 567.08 513.59 568.46 513.38 C 568.95 514.47 569.44 515.57 569.93 516.67 C 574.87 516.14 579.84 515.95 584.78 516.59 C 580.67 522.84 576.20 529.14 574.56 536.57 C 580.31 531.18 588.26 534.55 595.16 533.11 C 600.20 530.65 603.46 525.82 606.40 521.27 C 610.16 518.13 615.09 516.83 619.46 514.70 C 630.62 524.00 647.05 517.49 659.04 524.88 C 660.66 526.29 663.29 528.09 662.45 530.57 C 661.08 535.97 658.23 540.84 656.32 546.05 C 660.56 547.67 665.12 548.63 669.05 550.95 C 672.88 555.09 674.31 561.42 671.22 566.45 C 673.23 569.07 675.06 572.03 677.91 573.82 C 684.22 576.53 691.30 576.42 697.93 575.06 C 702.94 574.14 706.95 577.86 710.56 580.75 C 715.99 579.71 721.38 578.38 726.85 577.47 C 726.36 581.11 725.63 584.73 725.17 588.38 C 735.56 595.97 739.11 608.83 743.63 620.19 C 745.16 627.64 750.76 633.96 750.45 641.75 C 747.64 642.05 744.85 642.50 742.06 642.87 C 742.31 644.66 742.58 646.45 742.87 648.24 C 740.52 648.95 737.88 651.10 735.46 649.54 C 730.53 646.62 724.24 646.80 719.18 649.25 C 717.62 650.07 715.66 651.68 716.46 653.66 C 719.97 665.33 730.08 674.38 730.40 687.15 C 736.27 688.00 742.19 687.82 748.06 687.06 C 750.42 691.41 753.34 695.69 754.16 700.69 C 754.93 704.54 755.16 708.98 757.90 712.11 C 761.26 716.72 768.95 714.73 771.52 720.20 C 774.30 726.01 778.50 732.55 776.01 739.18 C 771.10 745.81 765.19 752.52 756.69 754.21 C 762.43 760.29 768.27 766.43 775.88 770.22 C 780.29 771.82 781.34 776.76 782.18 780.79 C 779.98 784.85 774.54 784.74 770.74 786.42 C 772.56 792.02 776.12 797.08 776.82 803.01 C 776.01 809.02 772.50 814.35 768.98 819.17 C 766.55 819.15 764.13 819.03 761.72 819.27 C 760.62 823.15 759.43 827.51 756.13 830.18 C 753.94 832.10 750.50 829.44 748.34 829.69 C 744.73 827.50 743.50 822.73 739.76 820.69 C 737.49 819.47 735.21 818.28 732.96 817.04 C 729.48 814.89 725.02 816.29 721.49 814.28 C 718.71 813.20 716.13 811.38 713.12 811.09 C 710.85 811.82 709.08 813.48 707.20 814.85 C 707.95 819.47 709.89 824.76 706.99 829.00 C 705.59 832.17 701.69 831.39 698.90 831.66 C 695.47 838.04 692.77 844.77 689.41 851.18 C 687.49 858.77 686.68 866.64 686.28 874.46 C 688.97 877.63 691.83 880.70 694.36 884.02 C 691.40 885.45 688.38 889.02 684.86 887.07 C 679.80 884.53 674.01 884.48 668.87 882.19 C 663.78 879.44 657.21 879.81 652.16 882.14 C 647.89 887.04 645.23 893.18 642.50 899.04 C 634.09 892.67 625.80 886.11 618.19 878.81 C 614.11 875.44 613.61 869.70 610.05 865.94 C 606.22 861.63 601.56 858.02 599.04 852.72 C 592.97 845.45 587.26 837.87 582.10 829.93 C 574.90 818.72 565.88 808.86 556.74 799.23 C 552.21 794.31 545.37 793.60 539.24 792.23 C 522.94 787.08 512.83 772.33 499.49 762.63 C 493.13 759.15 485.14 759.39 479.52 754.42 C 467.97 745.03 456.68 735.30 445.80 725.17 C 441.54 721.32 442.33 713.73 436.76 711.21 C 424.67 704.86 415.71 694.29 405.19 685.83 C 400.10 681.36 393.83 677.13 392.37 670.09 C 396.80 669.54 401.19 668.88 405.64 668.38 C 403.21 665.06 400.13 662.30 397.14 659.52 C 402.08 655.73 406.89 651.75 410.75 646.82 C 414.09 646.91 417.88 647.09 420.42 649.64 C 427.94 655.47 436.78 661.92 446.89 660.42 C 453.70 660.20 461.39 659.83 466.31 654.32 C 473.72 647.52 469.52 635.86 475.23 628.23 C 480.14 624.75 486.58 624.05 491.43 620.36 C 497.44 613.05 499.62 603.51 504.50 595.53 C 506.50 591.86 511.43 592.43 514.76 590.81 C 516.22 591.96 517.75 593.03 519.25 594.15 C 521.74 589.45 525.01 585.27 527.93 580.86 C 522.64 570.80 513.82 562.83 508.08 552.95 C 504.73 546.19 504.03 538.49 502.84 531.14 C 509.32 532.29 516.45 536.04 522.80 532.65 C 528.65 529.77 535.41 529.14 540.91 525.50 C 543.86 530.51 547.71 535.10 553.87 535.48 C 552.41 532.51 550.87 529.55 549.55 526.54 C 548.17 520.71 552.55 515.89 556.69 512.47 M 609.36 688.36 C 597.17 696.63 583.01 703.92 567.85 703.24 C 561.18 704.12 556.76 698.68 552.07 695.12 C 549.44 695.46 546.94 696.28 544.32 696.26 C 542.22 694.93 540.46 693.13 538.56 691.58 C 536.88 693.53 534.97 695.28 533.44 697.36 C 533.30 702.26 538.89 702.74 542.48 703.39 C 544.80 706.88 547.44 710.68 551.85 711.51 C 556.05 712.24 558.70 715.85 562.36 717.63 C 566.59 718.58 570.95 717.26 575.22 717.98 C 580.35 718.85 585.27 720.70 590.41 721.59 C 596.28 723.86 601.93 720.33 607.42 718.83 C 608.52 711.00 611.52 703.27 617.38 697.77 C 618.89 700.18 620.38 702.62 622.04 704.96 C 626.37 704.54 630.80 704.67 634.97 706.04 C 634.92 706.70 634.82 708.02 634.77 708.68 C 633.45 709.64 632.13 710.62 630.84 711.62 C 634.89 713.89 640.97 715.36 639.51 721.77 C 637.62 722.68 635.73 723.57 633.84 724.48 C 636.23 726.60 638.77 728.57 641.32 730.51 C 638.02 733.13 633.75 733.97 630.28 736.29 C 629.31 738.92 629.72 741.87 628.69 744.47 C 626.90 745.82 624.87 746.82 623.17 748.29 C 623.14 753.05 624.80 757.61 625.43 762.30 C 625.95 766.46 622.20 769.63 622.04 773.71 C 624.20 775.86 627.25 776.49 630.15 776.96 C 630.91 778.74 631.61 781.26 632.81 783.02 C 634.63 783.66 636.61 783.65 638.53 783.86 C 637.83 788.46 637.24 793.10 636.67 797.73 C 632.97 799.53 629.65 803.16 625.26 802.76 C 620.85 798.02 621.19 790.34 615.26 786.53 C 612.62 787.70 610.02 788.94 607.45 790.24 C 608.83 793.95 610.71 797.43 612.81 800.79 C 610.49 801.64 608.18 802.49 605.87 803.34 C 606.35 805.42 606.87 807.50 607.43 809.57 C 605.09 810.39 602.77 811.25 600.48 812.16 C 602.24 814.50 604.18 816.68 606.14 818.89 C 611.78 818.62 617.51 817.70 623.13 818.61 C 626.11 820.74 627.88 824.19 630.76 826.49 C 633.39 828.09 636.62 827.56 639.56 827.69 C 641.98 830.66 643.65 834.63 647.20 836.45 C 654.11 836.61 658.18 829.65 661.26 824.53 C 662.81 819.71 666.14 814.81 664.65 809.57 C 663.49 802.41 660.59 794.81 663.84 787.79 C 665.82 784.53 668.89 782.02 670.54 778.54 C 670.90 768.34 664.59 759.61 662.87 749.86 C 663.53 746.02 665.35 742.47 667.09 739.02 C 668.64 735.80 671.85 732.93 675.64 733.41 C 682.11 736.99 682.81 744.94 686.65 750.55 C 686.26 748.25 685.77 745.98 685.26 743.72 C 686.88 742.75 688.59 741.95 690.33 741.20 C 684.33 732.82 683.10 722.39 679.17 713.09 C 677.88 709.53 674.25 707.75 671.65 705.32 C 668.74 702.93 667.08 699.13 663.65 697.41 C 657.88 695.33 651.35 696.32 645.88 698.87 C 641.80 700.97 637.60 697.50 634.09 695.84 C 629.77 693.70 627.12 688.34 621.81 688.39 C 617.59 688.58 612.84 684.61 609.36 688.36 M 689.98 748.13 C 691.64 752.35 691.32 756.95 690.99 761.39 C 689.76 759.48 688.63 757.53 687.44 755.61 C 687.33 758.71 687.09 761.68 687.02 764.83 C 688.65 765.87 690.23 767.06 692.03 767.84 C 693.70 767.10 696.20 766.20 695.99 763.96 C 695.75 756.45 693.50 749.15 690.52 742.31 C 689.94 744.18 689.13 746.19 689.98 748.13 Z" />
</g>
<g target="1" id="#df0000ff">
<path fill="#df0000" opacity="0.00" d=" M 609.36 688.36 C 612.84 684.61 617.59 688.58 621.81 688.39 C 627.12 688.34 629.77 693.70 634.09 695.84 C 637.60 697.50 641.80 700.97 645.88 698.87 C 651.35 696.32 657.88 695.33 663.65 697.41 C 667.08 699.13 668.74 702.93 671.65 705.32 C 674.25 707.75 677.88 709.53 679.17 713.09 C 683.10 722.39 684.33 732.82 690.33 741.20 C 688.59 741.95 686.88 742.75 685.26 743.72 C 685.77 745.98 686.26 748.25 686.65 750.55 C 682.81 744.94 682.11 736.99 675.64 733.41 C 671.85 732.93 668.64 735.80 667.09 739.02 C 665.35 742.47 663.53 746.02 662.87 749.86 C 664.59 759.61 670.90 768.34 670.54 778.54 C 668.89 782.02 665.82 784.53 663.84 787.79 C 660.59 794.81 663.49 802.41 664.65 809.57 C 666.14 814.81 662.81 819.71 661.26 824.53 C 658.18 829.65 654.11 836.61 647.20 836.45 C 643.65 834.63 641.98 830.66 639.56 827.69 C 636.62 827.56 633.39 828.09 630.76 826.49 C 627.88 824.19 626.11 820.74 623.13 818.61 C 617.51 817.70 611.78 818.62 606.14 818.89 C 604.18 816.68 602.24 814.50 600.48 812.16 C 602.77 811.25 605.09 810.39 607.43 809.57 C 606.87 807.50 606.35 805.42 605.87 803.34 C 608.18 802.49 610.49 801.64 612.81 800.79 C 610.71 797.43 608.83 793.95 607.45 790.24 C 610.02 788.94 612.62 787.70 615.26 786.53 C 621.19 790.34 620.85 798.02 625.26 802.76 C 629.65 803.16 632.97 799.53 636.67 797.73 C 637.24 793.10 637.83 788.46 638.53 783.86 C 636.61 783.65 634.63 783.66 632.81 783.02 C 631.61 781.26 630.91 778.74 630.15 776.96 C 627.25 776.49 624.20 775.86 622.04 773.71 C 622.20 769.63 625.95 766.46 625.43 762.30 C 624.80 757.61 623.14 753.05 623.17 748.29 C 624.87 746.82 626.90 745.82 628.69 744.47 C 629.72 741.87 629.31 738.92 630.28 736.29 C 633.75 733.97 638.02 733.13 641.32 730.51 C 638.77 728.57 636.23 726.60 633.84 724.48 C 635.73 723.57 637.62 722.68 639.51 721.77 C 640.97 715.36 634.89 713.89 630.84 711.62 C 632.13 710.62 633.45 709.64 634.77 708.68 C 634.82 708.02 634.92 706.70 634.97 706.04 C 630.80 704.67 626.37 704.54 622.04 704.96 C 620.38 702.62 618.89 700.18 617.38 697.77 C 611.52 703.27 608.52 711.00 607.42 718.83 C 601.93 720.33 596.28 723.86 590.41 721.59 C 585.27 720.70 580.35 718.85 575.22 717.98 C 570.95 717.26 566.59 718.58 562.36 717.63 C 558.70 715.85 556.05 712.24 551.85 711.51 C 547.44 710.68 544.80 706.88 542.48 703.39 C 538.89 702.74 533.30 702.26 533.44 697.36 C 534.97 695.28 536.88 693.53 538.56 691.58 C 540.46 693.13 542.22 694.93 544.32 696.26 C 546.94 696.28 549.44 695.46 552.07 695.12 C 556.76 698.68 561.18 704.12 567.85 703.24 C 583.01 703.92 597.17 696.63 609.36 688.36 Z" />
<path fill="#df0000" opacity="0.00" d=" M 689.98 748.13 C 689.13 746.19 689.94 744.18 690.52 742.31 C 693.50 749.15 695.75 756.45 695.99 763.96 C 696.20 766.20 693.70 767.10 692.03 767.84 C 690.23 767.06 688.65 765.87 687.02 764.83 C 687.09 761.68 687.33 758.71 687.44 755.61 C 688.63 757.53 689.76 759.48 690.99 761.39 C 691.32 756.95 691.64 752.35 689.98 748.13 Z" />
</g>
</svg>
