<?xml version="1.0" encoding="UTF-8" ?>
<!DOCTYPE svg PUBLIC "-//W3C//DTD SVG 1.1//EN" "http://www.w3.org/Graphics/SVG/1.1/DTD/svg11.dtd">
<svg width="1920pt" height="1080pt" viewBox="0 -43 1920 1080" version="1.1" xmlns="http://www.w3.org/2000/svg">
<g target="29"  id="#bf3f3ffe">
<path fill="#bf3f3f" fill-opacity="0" d=" M 773.97 138.92 C 778.21 136.25 780.96 141.91 784.05 143.93 C 792.78 149.84 804.00 149.71 813.26 154.62 C 822.59 157.68 827.46 168.65 838.14 168.59 C 851.30 170.01 864.79 170.80 877.18 175.92 C 882.22 178.18 887.76 179.53 892.31 182.75 C 898.02 187.97 897.79 196.58 902.38 202.56 C 910.19 213.26 920.16 222.84 932.10 228.80 C 945.24 234.70 959.93 234.67 973.87 237.32 C 979.67 238.35 981.41 245.79 987.58 246.41 C 1001.35 250.26 1014.00 257.08 1027.46 261.78 C 1037.82 266.22 1049.82 269.65 1056.26 279.72 C 1059.53 284.58 1063.78 288.66 1068.27 292.38 C 1063.70 296.74 1059.58 301.53 1055.25 306.11 C 1057.83 311.56 1063.56 317.76 1060.49 324.19 C 1056.74 330.94 1051.58 336.83 1046.56 342.65 C 1040.97 347.67 1033.23 348.76 1026.53 351.66 C 1026.79 356.98 1026.44 362.41 1024.69 367.49 C 1032.03 369.73 1040.99 367.61 1046.88 373.26 C 1048.91 380.35 1044.89 390.30 1036.97 391.37 C 1029.54 392.92 1022.59 396.09 1015.34 398.26 C 1015.11 400.47 1014.84 402.68 1014.66 404.90 C 1021.16 404.83 1027.41 406.71 1032.96 410.04 C 1038.34 407.00 1044.49 403.29 1050.90 405.05 C 1054.21 405.55 1057.66 408.17 1057.21 411.86 C 1056.59 417.37 1056.17 422.89 1056.38 428.45 C 1053.95 430.88 1050.74 433.40 1050.91 437.22 C 1050.54 441.67 1053.18 447.54 1048.73 450.70 C 1042.32 453.94 1034.49 453.38 1027.62 452.40 C 1023.19 450.67 1024.92 444.85 1024.18 441.09 C 1018.94 441.17 1013.72 441.46 1008.53 442.14 C 1009.20 449.65 1010.72 457.45 1008.77 464.87 C 1005.16 472.83 995.75 480.97 986.48 477.49 C 984.47 473.61 982.29 469.78 979.49 466.42 C 976.55 462.83 971.77 461.60 967.35 461.14 C 952.90 459.02 939.43 466.50 925.08 466.40 C 924.58 461.21 924.23 455.28 928.22 451.24 C 932.98 446.25 936.81 440.38 937.29 433.26 C 931.31 437.35 928.24 444.37 922.41 448.53 C 915.57 449.23 910.19 444.07 903.74 442.82 C 897.09 441.31 891.01 437.68 884.14 437.19 C 875.91 439.53 870.50 447.15 867.78 454.90 C 866.39 457.08 866.09 461.08 863.06 461.94 C 860.13 462.55 857.26 461.19 854.55 460.28 C 847.36 457.37 839.53 455.94 831.79 456.50 C 826.41 456.98 821.58 459.66 816.48 461.15 C 814.71 461.75 812.75 460.81 811.93 459.18 C 809.24 454.34 810.26 448.28 807.39 443.52 C 805.96 441.41 803.60 443.27 801.88 443.92 C 791.79 449.90 780.06 452.56 768.49 453.68 C 765.34 454.43 762.55 456.14 759.59 457.39 C 754.71 459.54 749.34 460.14 744.09 460.72 C 742.36 458.68 740.43 456.75 739.16 454.37 C 736.75 449.01 739.69 442.64 736.49 437.52 C 734.36 434.10 732.16 430.51 728.85 428.11 C 726.80 426.61 723.17 427.00 722.23 429.59 C 722.13 432.37 723.26 435.03 723.80 437.74 C 715.07 438.54 708.74 432.18 702.21 427.59 C 700.22 426.22 701.22 423.50 701.33 421.53 C 701.02 414.78 707.84 412.06 712.73 409.47 C 719.63 405.53 727.52 403.76 734.34 399.63 C 737.54 397.71 741.28 397.20 744.83 396.24 C 741.22 390.18 736.72 384.73 732.58 379.04 C 732.07 379.48 731.57 379.92 731.07 380.37 C 730.34 382.88 729.92 385.51 728.80 387.89 C 724.89 388.84 720.87 387.83 716.92 387.70 C 716.53 390.28 716.08 392.85 715.57 395.41 C 708.37 392.82 706.18 383.44 698.26 382.55 C 687.50 377.95 673.84 382.70 664.62 374.32 C 659.71 371.06 661.06 363.84 656.95 360.12 C 652.54 358.21 646.96 359.26 643.22 362.23 C 636.91 367.03 629.74 370.47 622.32 373.18 C 619.24 370.24 616.59 366.78 615.47 362.61 C 612.49 352.16 608.66 341.99 604.90 331.81 C 611.45 328.85 619.96 327.73 623.63 320.74 C 622.28 317.24 619.47 314.53 617.49 311.44 C 612.32 304.69 609.94 296.41 606.16 288.91 C 597.26 291.59 586.70 293.09 578.55 287.49 C 573.20 276.60 570.55 264.64 568.10 252.83 C 566.64 250.06 562.85 249.53 561.12 246.94 C 557.00 238.91 554.63 230.19 551.65 221.72 C 550.02 216.20 549.30 209.84 551.42 204.40 C 555.67 199.58 562.86 199.61 568.68 198.42 C 573.11 197.82 575.69 202.77 579.79 203.42 C 585.32 203.05 589.41 198.50 589.38 193.02 C 590.73 192.70 593.44 192.07 594.79 191.75 C 592.59 183.59 587.10 174.28 591.96 165.99 C 598.87 167.37 605.81 168.97 612.85 169.43 C 616.30 168.08 618.08 164.13 621.47 162.51 C 627.69 160.06 634.30 161.98 640.68 162.34 C 649.91 163.09 659.20 162.66 668.40 163.73 C 674.99 163.19 678.79 169.36 684.51 171.27 C 688.14 171.54 691.83 171.48 695.51 171.45 C 694.91 168.75 694.05 166.01 694.42 163.22 C 695.22 160.81 696.95 158.88 698.36 156.82 C 698.19 153.70 698.25 150.57 698.65 147.46 C 703.38 148.08 709.04 147.71 713.00 150.93 C 715.47 156.31 715.51 162.52 717.69 168.05 C 723.88 167.02 730.32 166.70 736.20 164.28 C 741.67 162.17 745.92 157.89 751.13 155.30 C 754.52 154.04 758.23 154.32 761.78 153.88 C 765.14 148.45 768.23 142.17 773.97 138.92 Z" />
</g>
<g target="5" id="#7fbf3fff">
<path fill="#7fbf3f" fill-opacity="0" d=" M 1080.21 288.63 C 1088.96 288.74 1097.28 292.09 1106.02 292.52 C 1117.56 293.24 1128.89 295.66 1140.38 296.87 C 1149.30 297.76 1154.32 306.47 1162.48 309.25 C 1169.88 312.26 1177.36 315.56 1185.26 317.02 C 1190.63 316.53 1195.61 313.91 1201.01 313.46 C 1198.41 324.16 1196.20 334.96 1193.45 345.64 C 1194.64 346.51 1195.83 347.40 1197.04 348.29 C 1196.41 350.86 1196.12 353.53 1195.54 356.12 C 1200.65 356.82 1203.90 361.31 1208.61 362.93 C 1211.34 364.53 1216.89 364.09 1217.55 368.27 C 1219.83 378.09 1222.57 388.67 1230.41 395.64 C 1234.03 396.54 1237.19 393.18 1240.28 391.67 C 1244.15 397.24 1245.99 403.84 1249.43 409.63 C 1254.13 415.82 1260.53 420.58 1264.44 427.41 C 1269.78 435.93 1278.31 441.91 1283.61 450.46 C 1284.59 454.73 1282.80 458.72 1281.71 462.73 C 1279.34 470.54 1277.04 478.49 1276.35 486.66 C 1282.14 475.83 1284.88 463.69 1289.28 452.27 C 1291.20 447.69 1292.04 442.29 1295.58 438.57 C 1298.90 435.09 1304.11 436.36 1308.28 437.38 C 1300.19 460.62 1290.42 483.33 1284.02 507.13 C 1282.31 512.54 1285.10 518.05 1289.13 521.61 C 1290.24 518.88 1291.40 516.17 1292.56 513.47 C 1296.26 515.71 1300.34 519.55 1298.34 524.32 C 1293.99 536.75 1288.05 548.61 1284.38 561.30 C 1289.69 571.11 1300.81 574.43 1310.29 578.80 C 1313.31 580.15 1315.79 582.42 1317.59 585.21 C 1320.05 595.29 1320.11 605.87 1323.30 615.80 C 1324.90 621.85 1330.45 625.28 1335.00 629.01 C 1341.85 633.64 1345.63 641.30 1350.03 648.04 C 1355.93 655.80 1364.42 660.95 1371.48 667.53 C 1376.61 673.32 1379.35 680.82 1384.31 686.77 C 1389.22 693.10 1395.64 698.16 1399.89 705.05 C 1406.24 714.53 1409.31 726.24 1417.42 734.52 C 1423.23 737.31 1429.68 738.84 1435.39 741.99 C 1433.67 752.53 1430.50 762.80 1429.63 773.49 C 1430.02 780.60 1425.11 785.88 1421.20 791.21 C 1410.46 804.81 1400.27 818.85 1389.29 832.26 C 1384.81 838.19 1377.94 841.54 1372.92 846.93 C 1360.46 859.73 1351.20 875.18 1339.93 888.96 C 1334.96 896.37 1325.35 898.21 1317.07 898.63 C 1312.42 897.69 1308.02 895.83 1303.50 894.46 C 1299.63 895.74 1295.30 897.71 1291.39 895.61 C 1289.60 894.30 1288.62 892.23 1287.41 890.46 C 1278.06 891.01 1268.03 888.78 1261.22 882.08 C 1256.35 867.22 1247.75 853.83 1238.04 841.74 C 1236.01 843.05 1234.37 844.84 1232.78 846.62 C 1229.69 843.65 1226.50 840.54 1225.56 836.22 C 1222.98 834.28 1220.20 832.49 1218.08 830.07 C 1215.55 826.25 1215.19 820.50 1209.18 820.42 C 1201.09 817.68 1196.64 809.69 1195.26 801.70 C 1187.94 805.09 1180.16 807.23 1172.77 810.43 C 1171.81 806.96 1171.22 803.42 1170.66 799.90 C 1166.20 798.73 1161.42 798.68 1157.24 796.71 C 1153.86 795.12 1152.43 791.50 1151.18 788.26 C 1148.70 788.78 1146.24 789.71 1143.70 789.68 C 1139.95 788.12 1137.46 784.65 1134.76 781.78 C 1128.52 782.56 1122.51 779.58 1116.27 780.53 C 1115.91 779.16 1115.56 777.81 1115.22 776.46 C 1110.67 778.04 1105.89 776.83 1101.31 776.14 C 1097.12 775.25 1096.60 770.00 1093.42 767.75 C 1083.66 763.46 1073.91 758.96 1065.14 752.85 C 1061.97 750.88 1062.00 746.59 1062.45 743.35 C 1063.76 731.26 1066.57 719.39 1067.66 707.28 C 1068.39 698.22 1070.46 689.36 1074.00 680.98 C 1076.79 680.42 1081.17 681.20 1082.13 677.65 C 1084.80 670.27 1085.62 662.16 1089.40 655.20 C 1093.30 650.67 1099.34 648.71 1103.74 644.71 C 1106.93 642.02 1107.80 637.64 1109.43 634.03 C 1112.64 634.46 1118.22 637.01 1119.48 632.62 C 1121.47 628.29 1120.56 622.65 1123.89 619.02 C 1130.54 616.38 1138.01 617.04 1144.79 614.68 C 1140.59 610.09 1135.70 606.23 1131.59 601.59 C 1137.04 597.33 1142.09 591.67 1149.23 590.43 C 1153.22 589.76 1156.88 587.98 1160.45 586.13 C 1161.76 588.85 1162.98 591.60 1164.20 594.37 C 1171.43 593.38 1176.55 587.97 1180.90 582.63 C 1179.07 580.06 1176.88 577.62 1175.83 574.60 C 1175.12 571.17 1176.69 567.80 1177.49 564.53 C 1173.63 562.39 1167.59 561.45 1166.96 556.00 C 1164.11 549.48 1168.85 542.81 1167.71 536.23 C 1164.11 526.35 1158.22 517.55 1153.23 508.35 C 1160.71 497.41 1164.10 484.35 1171.73 473.52 C 1176.34 466.90 1181.22 458.55 1177.70 450.34 C 1174.73 446.90 1169.55 446.55 1166.49 443.29 C 1164.31 438.91 1162.96 434.06 1159.74 430.26 C 1158.21 428.39 1156.07 425.62 1153.33 426.60 C 1150.21 428.62 1148.71 432.33 1145.72 434.50 C 1143.45 436.12 1140.97 437.38 1138.58 438.78 C 1139.42 441.75 1140.01 444.79 1140.53 447.84 C 1135.47 448.17 1130.15 448.09 1125.63 450.80 C 1122.28 452.81 1119.30 455.38 1115.98 457.43 C 1114.85 451.59 1118.26 446.14 1117.64 440.40 C 1113.64 437.69 1108.64 438.31 1104.11 437.77 C 1100.13 437.36 1096.27 435.03 1092.22 436.21 C 1087.64 437.47 1083.06 440.54 1078.17 438.86 C 1070.52 436.28 1063.57 432.04 1056.38 428.45 C 1056.17 422.89 1056.59 417.37 1057.21 411.86 C 1057.66 408.17 1054.21 405.55 1050.90 405.05 C 1044.49 403.29 1038.34 407.00 1032.96 410.04 C 1027.41 406.71 1021.16 404.83 1014.66 404.90 C 1014.84 402.68 1015.11 400.47 1015.34 398.26 C 1022.59 396.09 1029.54 392.92 1036.97 391.37 C 1044.89 390.30 1048.91 380.35 1046.88 373.26 C 1040.99 367.61 1032.03 369.73 1024.69 367.49 C 1026.44 362.41 1026.79 356.98 1026.53 351.66 C 1033.23 348.76 1040.97 347.67 1046.56 342.65 C 1051.58 336.83 1056.74 330.94 1060.49 324.19 C 1063.56 317.76 1057.83 311.56 1055.25 306.11 C 1059.58 301.53 1063.70 296.74 1068.27 292.38 C 1072.04 290.64 1076.06 289.17 1080.21 288.63 Z" />
</g>
<g target="9" id="#3f3f3fff">
<path fill="#3f3f3f" fill-opacity="0" d=" M 643.22 362.23 C 646.96 359.26 652.54 358.21 656.95 360.12 C 661.06 363.84 659.71 371.06 664.62 374.32 C 673.84 382.70 687.50 377.95 698.26 382.55 C 706.18 383.44 708.37 392.82 715.57 395.41 C 716.08 392.85 716.53 390.28 716.92 387.70 C 720.87 387.83 724.89 388.84 728.80 387.89 C 729.92 385.51 730.34 382.88 731.07 380.37 C 731.57 379.92 732.07 379.48 732.58 379.04 C 736.72 384.73 741.22 390.18 744.83 396.24 C 741.28 397.20 737.54 397.71 734.34 399.63 C 727.52 403.76 719.63 405.53 712.73 409.47 C 707.84 412.06 701.02 414.78 701.33 421.53 C 701.22 423.50 700.22 426.22 702.21 427.59 C 708.74 432.18 715.07 438.54 723.80 437.74 C 723.26 435.03 722.13 432.37 722.23 429.59 C 723.17 427.00 726.80 426.61 728.85 428.11 C 732.16 430.51 734.36 434.10 736.49 437.52 C 739.69 442.64 736.75 449.01 739.16 454.37 C 740.43 456.75 742.36 458.68 744.09 460.72 C 742.56 465.42 743.79 472.00 739.20 475.19 C 730.12 481.86 716.96 481.20 709.61 490.60 C 707.07 495.87 709.85 502.02 709.68 507.57 C 705.76 510.87 701.33 514.37 701.09 520.05 C 700.34 525.15 697.01 530.11 697.95 535.40 C 707.82 559.99 713.64 585.95 721.96 611.07 C 718.76 609.90 715.56 608.72 712.34 607.63 C 711.79 605.86 711.25 604.11 710.73 602.35 C 702.57 603.79 694.29 604.54 686.01 604.63 C 677.27 605.12 668.69 607.98 659.90 607.15 C 656.00 606.00 652.49 603.84 648.90 601.99 C 648.46 603.69 648.04 605.40 647.63 607.12 C 642.59 606.41 637.68 604.82 632.57 604.71 C 628.78 604.30 624.71 605.24 621.05 603.84 C 615.57 600.75 610.42 597.13 605.02 593.94 C 601.99 592.33 600.91 588.86 599.38 586.04 C 597.28 586.65 595.27 587.53 593.13 587.93 C 587.83 587.29 583.18 584.54 578.24 582.80 C 573.86 581.22 568.99 583.01 564.67 581.29 C 562.41 579.51 560.70 577.16 558.77 575.06 C 556.98 575.65 555.20 576.25 553.42 576.85 C 551.35 574.29 549.45 571.47 546.78 569.51 C 541.66 566.95 536.29 564.70 531.62 561.38 C 528.76 558.23 527.70 553.91 525.79 550.21 C 515.91 529.47 504.26 509.56 494.46 488.81 C 495.36 479.63 498.03 470.59 500.00 461.56 C 505.76 453.11 508.35 442.84 515.03 434.98 C 518.30 432.86 522.74 434.01 526.11 432.06 C 528.51 429.74 529.70 426.46 530.98 423.45 C 532.42 419.68 529.94 415.98 528.70 412.55 C 532.09 408.02 538.70 404.57 543.99 408.03 C 549.78 411.53 556.57 412.51 563.17 413.32 C 568.29 415.19 573.47 416.90 578.65 418.63 C 581.56 421.45 582.55 425.72 585.45 428.54 C 588.86 430.60 593.11 431.85 597.09 431.09 C 603.73 428.66 605.33 421.24 609.27 416.14 C 611.61 412.96 616.19 416.06 619.10 415.61 C 622.71 410.74 627.01 405.90 628.20 399.78 C 626.25 391.14 619.44 382.47 622.32 373.18 C 629.74 370.47 636.91 367.03 643.22 362.23 Z" />
</g>
<g target="20" id="#003fbfff">
<path fill="#003fbf" fill-opacity="0" d=" M 1153.33 426.60 C 1156.07 425.62 1158.21 428.39 1159.74 430.26 C 1162.96 434.06 1164.31 438.91 1166.49 443.29 C 1169.55 446.55 1174.73 446.90 1177.70 450.34 C 1181.22 458.55 1176.34 466.90 1171.73 473.52 C 1164.10 484.35 1160.71 497.41 1153.23 508.35 C 1158.22 517.55 1164.11 526.35 1167.71 536.23 C 1168.85 542.81 1164.11 549.48 1166.96 556.00 C 1167.59 561.45 1173.63 562.39 1177.49 564.53 C 1176.69 567.80 1175.12 571.17 1175.83 574.60 C 1176.88 577.62 1179.07 580.06 1180.90 582.63 C 1176.55 587.97 1171.43 593.38 1164.20 594.37 C 1162.98 591.60 1161.76 588.85 1160.45 586.13 C 1156.88 587.98 1153.22 589.76 1149.23 590.43 C 1142.09 591.67 1137.04 597.33 1131.59 601.59 C 1135.70 606.23 1140.59 610.09 1144.79 614.68 C 1138.01 617.04 1130.54 616.38 1123.89 619.02 C 1120.56 622.65 1121.47 628.29 1119.48 632.62 C 1118.22 637.01 1112.64 634.46 1109.43 634.03 C 1107.80 637.64 1106.93 642.02 1103.74 644.71 C 1099.34 648.71 1093.30 650.67 1089.40 655.20 C 1085.62 662.16 1084.80 670.27 1082.13 677.65 C 1081.17 681.20 1076.79 680.42 1074.00 680.98 C 1070.46 689.36 1068.39 698.22 1067.66 707.28 C 1062.50 705.58 1057.62 702.76 1052.16 702.36 C 1043.88 702.54 1035.67 703.36 1027.43 703.95 C 1023.95 695.85 1017.38 689.79 1011.35 683.60 C 1008.77 680.58 1004.52 681.64 1001.00 681.43 L 1001.02 681.14 C 1001.77 666.88 1002.21 652.60 1003.29 638.36 C 1004.00 631.87 1003.40 625.20 1005.04 618.84 C 1006.10 614.59 1009.94 611.93 1011.74 608.09 C 1012.88 604.58 1011.81 600.77 1012.75 597.25 C 1014.24 593.02 1017.73 589.65 1018.49 585.15 C 1016.85 581.58 1012.38 579.13 1012.90 574.77 C 1013.51 563.92 1020.22 554.77 1026.30 546.25 C 1030.94 539.94 1029.03 531.60 1029.41 524.27 C 1024.80 523.40 1020.22 522.52 1015.70 521.36 C 1016.14 516.59 1016.56 511.86 1017.13 507.12 C 1010.64 505.74 1005.22 501.85 999.58 498.61 C 994.80 495.83 989.14 495.19 984.32 492.53 C 986.07 487.72 986.78 482.58 986.48 477.49 C 995.75 480.97 1005.16 472.83 1008.77 464.87 C 1010.72 457.45 1009.20 449.65 1008.53 442.14 C 1013.72 441.46 1018.94 441.17 1024.18 441.09 C 1024.92 444.85 1023.19 450.67 1027.62 452.40 C 1034.49 453.38 1042.32 453.94 1048.73 450.70 C 1053.18 447.54 1050.54 441.67 1050.91 437.22 C 1050.74 433.40 1053.95 430.88 1056.38 428.45 C 1063.57 432.04 1070.52 436.28 1078.17 438.86 C 1083.06 440.54 1087.64 437.47 1092.22 436.21 C 1096.27 435.03 1100.13 437.36 1104.11 437.77 C 1108.64 438.31 1113.64 437.69 1117.64 440.40 C 1118.26 446.14 1114.85 451.59 1115.98 457.43 C 1119.30 455.38 1122.28 452.81 1125.63 450.80 C 1130.15 448.09 1135.47 448.17 1140.53 447.84 C 1140.01 444.79 1139.42 441.75 1138.58 438.78 C 1140.97 437.38 1143.45 436.12 1145.72 434.50 C 1148.71 432.33 1150.21 428.62 1153.33 426.60 Z" />
</g>
<g target="7" id="#7fbfbfff">
<path fill="#7fbfbf" fill-opacity="0" d=" M 922.41 448.53 C 928.24 444.37 931.31 437.35 937.29 433.26 C 936.81 440.38 932.98 446.25 928.22 451.24 C 924.23 455.28 924.58 461.21 925.08 466.40 C 924.85 469.31 923.92 472.08 923.45 474.96 C 927.38 477.16 931.73 478.84 934.98 482.07 C 937.59 485.04 937.31 489.30 937.34 493.00 C 937.48 500.20 933.85 506.97 934.61 514.20 C 935.01 517.35 933.67 520.28 932.25 523.00 C 928.46 520.50 924.06 517.69 919.28 518.69 C 914.83 520.12 911.27 523.32 907.38 525.79 C 903.64 523.20 899.01 516.71 894.48 521.48 C 888.25 526.84 897.07 534.43 893.74 540.74 C 891.98 543.71 889.40 546.60 886.03 547.68 C 883.01 547.23 880.51 545.32 878.02 543.71 C 880.33 543.18 882.66 542.69 885.01 542.27 C 883.43 540.62 881.86 538.97 880.29 537.34 C 877.68 538.49 875.13 539.94 872.29 540.40 C 869.08 537.92 867.63 533.96 865.40 530.71 C 861.91 537.28 860.17 544.72 855.83 550.85 C 850.73 559.80 841.84 565.60 835.85 573.86 C 832.15 578.52 829.19 585.66 822.02 585.25 C 818.72 584.16 816.25 581.39 812.90 580.42 C 809.01 580.93 805.68 583.36 802.13 584.88 C 806.02 607.71 811.05 630.32 815.01 653.14 C 805.52 653.02 797.35 647.71 789.01 643.90 C 781.12 639.19 772.37 633.61 771.16 623.54 C 768.63 622.86 765.94 622.08 763.45 621.48 C 761.94 619.04 760.44 616.62 758.92 614.21 C 752.83 613.73 746.74 611.73 740.62 612.96 C 734.62 614.10 726.78 615.93 721.96 611.07 C 713.64 585.95 707.82 559.99 697.95 535.40 C 697.01 530.11 700.34 525.15 701.09 520.05 C 701.33 514.37 705.76 510.87 709.68 507.57 C 709.85 502.02 707.07 495.87 709.61 490.60 C 716.96 481.20 730.12 481.86 739.20 475.19 C 743.79 472.00 742.56 465.42 744.09 460.72 C 749.34 460.14 754.71 459.54 759.59 457.39 C 762.55 456.14 765.34 454.43 768.49 453.68 C 780.06 452.56 791.79 449.90 801.88 443.92 C 803.60 443.27 805.96 441.41 807.39 443.52 C 810.26 448.28 809.24 454.34 811.93 459.18 C 812.75 460.81 814.71 461.75 816.48 461.15 C 821.58 459.66 826.41 456.98 831.79 456.50 C 839.53 455.94 847.36 457.37 854.55 460.28 C 857.26 461.19 860.13 462.55 863.06 461.94 C 866.09 461.08 866.39 457.08 867.78 454.90 C 870.50 447.15 875.91 439.53 884.14 437.19 C 891.01 437.68 897.09 441.31 903.74 442.82 C 910.19 444.07 915.57 449.23 922.41 448.53 Z" />
</g>
<g target="15" id="#00bfbffe">
<path fill="#00bfbf" fill-opacity="0" d=" M 925.08 466.40 C 939.43 466.50 952.90 459.02 967.35 461.14 C 971.77 461.60 976.55 462.83 979.49 466.42 C 982.29 469.78 984.47 473.61 986.48 477.49 C 986.78 482.58 986.07 487.72 984.32 492.53 C 980.08 490.25 976.12 487.38 971.45 486.08 C 971.57 490.60 971.84 495.12 972.07 499.65 C 968.62 499.91 965.09 500.41 961.69 499.72 C 960.44 497.38 959.72 494.86 958.80 492.43 C 954.54 492.01 950.29 491.68 946.03 491.53 C 945.45 498.50 943.93 505.46 944.07 512.48 C 944.17 516.67 948.54 518.32 951.67 519.99 C 952.64 528.21 952.93 536.57 951.75 544.79 C 955.39 544.61 958.99 544.36 962.66 544.18 C 965.72 552.54 974.09 556.29 980.78 561.21 C 984.70 563.78 985.77 568.61 986.51 572.93 C 987.29 578.16 989.15 583.11 990.80 588.12 C 985.14 594.91 980.58 605.77 969.52 602.78 C 963.67 603.09 960.50 597.07 959.03 592.30 C 952.26 601.58 954.88 613.36 954.44 624.01 C 954.94 640.66 953.86 657.33 955.01 673.97 C 945.90 675.38 936.49 671.42 927.62 674.46 C 919.85 677.40 910.76 678.45 904.60 684.58 C 898.72 690.76 889.49 690.39 882.01 693.18 C 876.77 694.79 872.44 699.75 866.48 698.09 C 862.29 697.73 858.08 697.25 854.01 696.19 C 850.59 695.02 849.60 691.29 848.81 688.20 C 847.59 681.65 846.80 675.02 845.79 668.45 C 840.10 667.26 837.12 662.45 833.12 658.92 C 827.61 655.73 820.98 655.03 815.01 653.14 C 811.05 630.32 806.02 607.71 802.13 584.88 C 805.68 583.36 809.01 580.93 812.90 580.42 C 816.25 581.39 818.72 584.16 822.02 585.25 C 829.19 585.66 832.15 578.52 835.85 573.86 C 841.84 565.60 850.73 559.80 855.83 550.85 C 860.17 544.72 861.91 537.28 865.40 530.71 C 867.63 533.96 869.08 537.92 872.29 540.40 C 875.13 539.94 877.68 538.49 880.29 537.34 C 881.86 538.97 883.43 540.62 885.01 542.27 C 882.66 542.69 880.33 543.18 878.02 543.71 C 880.51 545.32 883.01 547.23 886.03 547.68 C 889.40 546.60 891.98 543.71 893.74 540.74 C 897.07 534.43 888.25 526.84 894.48 521.48 C 899.01 516.71 903.64 523.20 907.38 525.79 C 911.27 523.32 914.83 520.12 919.28 518.69 C 924.06 517.69 928.46 520.50 932.25 523.00 C 933.67 520.28 935.01 517.35 934.61 514.20 C 933.85 506.97 937.48 500.20 937.34 493.00 C 937.31 489.30 937.59 485.04 934.98 482.07 C 931.73 478.84 927.38 477.16 923.45 474.96 C 923.92 472.08 924.85 469.31 925.08 466.40 Z" />
</g>
<g target="6" id="#7f3fbfff">
<path fill="#7f3fbf" fill-opacity="0" d=" M 971.45 486.08 C 976.12 487.38 980.08 490.25 984.32 492.53 C 989.14 495.19 994.80 495.83 999.58 498.61 C 1005.22 501.85 1010.64 505.74 1017.13 507.12 C 1016.56 511.86 1016.14 516.59 1015.70 521.36 C 1020.22 522.52 1024.80 523.40 1029.41 524.27 C 1029.03 531.60 1030.94 539.94 1026.30 546.25 C 1020.22 554.77 1013.51 563.92 1012.90 574.77 C 1012.38 579.13 1016.85 581.58 1018.49 585.15 C 1017.73 589.65 1014.24 593.02 1012.75 597.25 C 1011.81 600.77 1012.88 604.58 1011.74 608.09 C 1009.94 611.93 1006.10 614.59 1005.04 618.84 C 1003.40 625.20 1004.00 631.87 1003.29 638.36 C 1002.21 652.60 1001.77 666.88 1001.02 681.14 C 991.96 679.29 984.15 673.69 974.83 672.63 C 971.06 678.34 970.45 687.12 963.34 690.05 C 962.23 683.93 961.40 676.81 955.01 673.97 C 953.86 657.33 954.94 640.66 954.44 624.01 C 954.88 613.36 952.26 601.58 959.03 592.30 C 960.50 597.07 963.67 603.09 969.52 602.78 C 980.58 605.77 985.14 594.91 990.80 588.12 C 989.15 583.11 987.29 578.16 986.51 572.93 C 985.77 568.61 984.70 563.78 980.78 561.21 C 974.09 556.29 965.72 552.54 962.66 544.18 C 958.99 544.36 955.39 544.61 951.75 544.79 C 952.93 536.57 952.64 528.21 951.67 519.99 C 948.54 518.32 944.17 516.67 944.07 512.48 C 943.93 505.46 945.45 498.50 946.03 491.53 C 950.29 491.68 954.54 492.01 958.80 492.43 C 959.72 494.86 960.44 497.38 961.69 499.72 C 965.09 500.41 968.62 499.91 972.07 499.65 C 971.84 495.12 971.57 490.60 971.45 486.08 Z" />
</g>
</svg>
