<?xml version="1.0" encoding="UTF-8" ?>
<!DOCTYPE svg PUBLIC "-//W3C//DTD SVG 1.1//EN" "http://www.w3.org/Graphics/SVG/1.1/DTD/svg11.dtd">
<svg width="1920pt" height="1080pt" viewBox="0 0 1920 1080" version="1.1" xmlns="http://www.w3.org/2000/svg">
<g target="27" id="#bf7f3ffe">
<path fill="#bf7f3f" fill-opacity="0" d=" M 1204.85 169.27 C 1210.90 168.63 1214.67 163.19 1220.12 161.02 C 1222.24 163.53 1225.27 166.17 1224.71 169.82 C 1224.75 176.15 1221.08 183.19 1224.93 189.06 C 1227.85 194.77 1233.53 199.20 1233.77 206.10 C 1234.23 216.48 1230.93 226.47 1229.42 236.63 C 1227.01 246.39 1226.98 256.66 1223.19 266.09 C 1220.16 269.21 1216.60 271.80 1213.51 274.86 C 1217.63 278.61 1221.42 283.84 1227.37 284.36 C 1231.66 284.78 1236.12 286.62 1238.28 290.59 C 1240.00 293.92 1241.36 297.44 1243.50 300.55 C 1243.04 303.66 1242.46 306.74 1242.06 309.87 C 1245.59 312.89 1250.07 313.87 1254.60 314.48 C 1255.58 319.94 1259.84 324.94 1257.84 330.70 C 1255.74 336.31 1256.88 344.43 1250.98 347.96 C 1248.18 349.75 1246.46 352.62 1245.35 355.67 C 1240.81 356.34 1236.37 357.75 1232.60 360.43 C 1236.11 361.81 1239.62 363.15 1243.22 364.35 C 1244.04 370.58 1241.99 376.66 1240.69 382.69 C 1240.37 390.94 1231.25 392.89 1227.37 399.00 C 1225.81 396.79 1224.34 394.58 1222.87 392.36 C 1217.59 393.18 1206.99 387.92 1207.35 397.66 C 1209.40 398.60 1211.46 399.56 1213.55 400.47 C 1213.63 402.38 1213.75 404.30 1213.91 406.22 C 1220.38 414.13 1215.87 424.24 1213.38 432.80 C 1211.63 432.13 1209.90 431.43 1208.16 430.77 C 1204.43 434.83 1200.75 439.06 1196.00 441.96 C 1188.89 445.33 1192.75 455.19 1194.16 460.91 C 1190.89 464.71 1188.39 469.21 1184.59 472.51 C 1180.59 474.81 1176.06 476.08 1171.52 476.70 C 1167.29 471.53 1162.28 467.10 1157.52 462.44 C 1155.77 460.90 1153.71 458.65 1151.13 459.54 C 1146.20 461.29 1141.74 465.25 1136.18 464.53 C 1130.31 461.42 1128.11 453.79 1121.84 451.23 C 1114.93 451.50 1110.07 457.75 1103.40 458.87 C 1100.60 458.72 1098.07 457.29 1095.37 456.73 C 1091.77 455.73 1088.29 458.45 1084.66 457.11 C 1078.80 455.67 1074.38 451.31 1069.87 447.60 C 1066.71 452.02 1063.65 456.52 1061.11 461.33 C 1059.31 457.69 1057.95 453.48 1054.47 451.06 C 1050.44 448.07 1046.65 444.46 1045.37 439.42 C 1042.91 440.96 1040.56 442.65 1038.32 444.49 C 1036.95 440.78 1035.99 436.95 1034.96 433.15 C 1038.25 432.00 1041.76 431.34 1044.86 429.67 C 1047.79 426.95 1049.02 422.84 1052.13 420.28 C 1054.52 418.55 1057.37 417.66 1060.09 416.56 C 1055.34 412.63 1054.53 406.47 1054.22 400.71 C 1052.33 400.50 1050.43 400.31 1048.56 400.13 C 1049.37 396.96 1051.86 394.19 1051.97 390.83 C 1049.91 387.90 1046.14 386.76 1043.88 384.02 C 1044.87 379.04 1047.91 374.52 1048.07 369.37 C 1046.96 359.89 1037.66 354.69 1034.46 346.29 C 1035.18 341.03 1034.25 335.87 1031.40 331.31 C 1030.10 327.13 1028.47 322.73 1029.09 318.28 C 1030.43 316.29 1032.72 315.20 1034.63 313.81 C 1029.12 309.38 1029.16 301.81 1031.59 295.74 C 1024.13 294.47 1012.34 295.40 1010.01 286.05 C 1009.48 279.14 1014.41 273.38 1016.42 267.02 C 1017.92 263.57 1021.91 261.98 1023.32 258.44 C 1024.78 254.06 1026.94 248.83 1024.69 244.32 C 1022.76 241.13 1019.90 238.68 1017.35 236.01 C 1015.46 237.36 1013.73 239.01 1011.56 239.90 C 1007.12 240.17 1002.72 239.38 998.32 238.87 C 991.70 237.89 984.80 238.02 978.55 235.27 C 973.52 233.50 968.99 230.06 963.41 230.26 C 961.18 231.70 959.49 233.79 957.78 235.78 L 957.30 236.34 C 957.24 228.02 954.60 219.07 958.08 211.05 C 959.22 207.93 960.58 204.90 962.00 201.90 C 967.35 202.14 972.73 202.48 978.00 203.59 C 979.37 201.68 980.72 199.77 982.07 197.84 C 985.83 197.70 989.60 197.68 993.37 197.66 C 994.41 196.39 996.50 193.86 997.54 192.59 C 1003.65 192.37 1009.78 193.72 1015.93 193.54 C 1016.08 195.93 1016.09 198.34 1016.53 200.71 C 1021.05 203.44 1026.68 203.54 1031.83 203.35 C 1032.05 201.24 1032.30 199.13 1032.52 197.02 C 1045.89 198.83 1059.31 200.66 1072.83 201.04 C 1074.04 198.93 1075.27 196.83 1076.46 194.70 C 1077.79 194.70 1079.11 194.68 1080.47 194.66 C 1081.40 192.79 1082.39 190.94 1083.38 189.09 C 1088.77 189.22 1094.20 189.38 1099.62 189.62 C 1100.77 187.03 1101.94 184.45 1103.13 181.86 C 1107.76 182.68 1112.44 183.36 1117.00 184.58 C 1119.01 180.28 1120.49 175.06 1125.38 173.10 C 1127.41 171.82 1129.37 170.06 1131.84 169.74 C 1135.86 169.92 1139.88 171.12 1143.95 170.93 C 1164.22 169.49 1184.67 172.45 1204.85 169.27 Z" />
</g>
<g target="45" id="#3f00bffe">
<path fill="#3f00bf" fill-opacity="0" d=" M 796.58 191.15 C 805.10 189.93 814.07 190.80 822.38 193.43 C 822.62 195.01 823.11 198.15 823.36 199.72 C 827.90 200.35 832.41 201.21 836.90 202.13 C 838.01 210.61 839.17 219.23 842.71 227.10 C 844.37 233.17 845.42 239.52 845.26 245.82 C 844.35 250.55 838.66 251.42 834.98 253.21 C 834.70 255.75 834.46 258.29 834.17 260.83 C 839.41 261.56 844.64 262.38 849.90 262.94 C 850.63 265.69 851.35 268.48 852.12 271.24 C 857.78 272.68 861.59 277.75 867.66 278.27 C 869.15 280.69 866.59 286.40 870.29 287.63 C 873.33 288.53 876.43 286.24 877.23 283.33 C 878.51 278.10 876.89 272.55 878.35 267.34 C 879.24 263.61 883.59 263.07 886.56 261.72 C 886.35 260.33 886.12 258.93 885.94 257.54 C 890.33 256.80 895.01 257.35 899.06 255.14 C 905.43 251.80 912.99 253.98 919.58 251.58 C 923.77 248.17 926.40 241.83 932.97 242.68 C 938.45 241.61 940.23 248.78 944.29 251.19 C 948.07 245.44 953.43 241.06 957.78 235.78 C 959.49 233.79 961.18 231.70 963.41 230.26 C 968.99 230.06 973.52 233.50 978.55 235.27 C 984.80 238.02 991.70 237.89 998.32 238.87 C 1002.72 239.38 1007.12 240.17 1011.56 239.90 C 1013.73 239.01 1015.46 237.36 1017.35 236.01 C 1019.90 238.68 1022.76 241.13 1024.69 244.32 C 1026.94 248.83 1024.78 254.06 1023.32 258.44 C 1021.91 261.98 1017.92 263.57 1016.42 267.02 C 1014.41 273.38 1009.48 279.14 1010.01 286.05 C 1012.34 295.40 1024.13 294.47 1031.59 295.74 C 1029.16 301.81 1029.12 309.38 1034.63 313.81 C 1032.72 315.20 1030.43 316.29 1029.09 318.28 C 1028.47 322.73 1030.10 327.13 1031.40 331.31 C 1026.46 331.78 1021.52 332.50 1016.70 333.67 C 1014.57 334.13 1012.43 335.27 1010.22 334.74 C 1007.29 333.11 1005.27 330.19 1002.77 328.07 C 998.14 329.02 995.23 332.77 992.53 336.33 C 982.93 335.76 973.57 333.62 964.17 331.86 C 954.74 331.95 949.75 341.62 945.19 348.50 C 949.09 351.61 951.76 355.83 954.59 359.86 C 953.69 364.73 953.56 369.68 953.00 374.58 C 950.78 380.63 946.09 385.39 940.89 389.01 C 935.31 393.73 926.73 389.04 921.41 394.44 C 916.69 397.96 919.76 403.99 921.53 408.23 C 924.03 415.88 929.21 422.10 933.41 428.80 C 931.20 432.56 927.95 435.63 926.02 439.60 C 923.35 439.50 920.59 439.34 917.99 439.26 C 917.58 443.21 916.47 447.27 917.20 451.22 C 920.44 456.35 925.40 460.14 930.14 463.85 C 928.85 465.00 927.58 466.18 926.32 467.35 C 927.52 468.38 928.72 469.42 929.94 470.46 C 928.98 471.69 928.02 472.92 927.03 474.11 C 926.19 475.01 925.35 475.92 924.53 476.83 C 918.60 474.66 910.79 474.74 907.06 468.78 C 903.80 465.07 907.25 460.10 905.33 455.99 C 903.98 454.64 902.15 453.94 900.54 453.01 C 900.49 455.22 900.45 457.44 900.45 459.66 C 898.32 458.94 895.84 458.76 894.13 457.17 C 891.42 453.11 890.57 448.12 887.85 444.05 C 886.30 442.21 885.13 437.61 881.83 438.26 C 877.83 438.94 873.85 439.76 869.83 440.27 C 870.75 435.85 874.26 430.94 871.63 426.53 C 867.46 424.64 862.77 424.62 858.31 424.02 C 858.53 420.57 858.76 417.12 859.00 413.68 C 855.15 412.66 851.00 411.74 847.17 413.33 C 844.07 414.41 839.59 416.38 837.50 412.53 C 833.68 407.35 837.26 401.39 839.15 396.30 C 837.03 397.90 830.84 395.79 830.34 399.85 C 829.20 405.30 827.04 411.71 820.08 411.75 C 820.05 409.32 820.12 406.90 820.21 404.48 C 814.61 404.98 808.79 405.19 803.73 407.92 C 801.86 407.13 800.08 405.94 798.03 405.76 C 793.55 408.78 790.56 415.06 784.42 414.81 C 780.13 415.72 776.75 413.04 773.47 410.90 C 769.20 414.34 765.46 418.52 760.74 421.35 C 756.05 422.17 751.23 422.21 746.59 423.43 C 746.07 421.75 745.67 419.98 744.65 418.53 C 740.33 416.71 735.44 416.97 730.93 415.90 C 732.04 410.24 732.64 404.22 736.19 399.43 C 735.55 396.20 734.86 392.93 734.86 389.63 C 735.36 386.85 737.28 384.61 738.78 382.30 C 743.22 382.85 748.07 384.18 752.39 382.24 C 755.32 381.36 758.38 378.97 761.49 380.58 C 763.43 380.95 765.64 382.86 767.56 381.60 C 770.63 378.03 772.15 373.55 773.85 369.25 C 775.61 364.39 780.43 361.84 784.21 358.68 C 775.57 355.57 766.65 352.93 757.43 352.55 C 747.60 352.34 737.89 350.95 728.25 349.18 C 728.39 346.40 729.60 343.90 731.11 341.62 C 732.33 341.60 733.55 341.60 734.79 341.60 C 735.23 338.59 735.60 335.56 736.41 332.62 C 737.01 329.65 740.76 329.51 743.01 328.27 C 744.22 325.61 744.17 320.98 747.75 320.06 C 752.50 318.75 757.45 318.31 762.35 317.81 C 763.23 310.97 770.89 311.07 775.94 309.21 C 776.51 307.31 776.64 305.33 776.92 303.38 C 779.12 302.57 781.17 301.26 781.65 298.80 C 779.46 297.24 776.33 296.29 775.54 293.42 C 772.23 283.92 775.79 273.66 773.05 264.07 C 771.91 257.75 761.76 259.67 760.72 253.21 C 759.07 245.68 757.58 238.10 756.55 230.47 C 761.75 228.47 767.61 230.25 773.08 230.03 C 776.92 224.30 778.72 215.78 786.59 214.06 C 784.83 205.07 791.92 197.99 796.58 191.15 Z" />
</g>
<g target="18" id="#3f003fff">
<path fill="#3f003f" fill-opacity="0" d=" M 1002.77 328.07 C 1005.27 330.19 1007.29 333.11 1010.22 334.74 C 1012.43 335.27 1014.57 334.13 1016.70 333.67 C 1021.52 332.50 1026.46 331.78 1031.40 331.31 C 1034.25 335.87 1035.18 341.03 1034.46 346.29 C 1037.66 354.69 1046.96 359.89 1048.07 369.37 C 1047.91 374.52 1044.87 379.04 1043.88 384.02 C 1046.14 386.76 1049.91 387.90 1051.97 390.83 C 1051.86 394.19 1049.37 396.96 1048.56 400.13 C 1050.43 400.31 1052.33 400.50 1054.22 400.71 C 1054.53 406.47 1055.34 412.63 1060.09 416.56 C 1057.37 417.66 1054.52 418.55 1052.13 420.28 C 1049.02 422.84 1047.79 426.95 1044.86 429.67 C 1041.76 431.34 1038.25 432.00 1034.96 433.15 C 1035.99 436.95 1036.95 440.78 1038.32 444.49 C 1040.56 442.65 1042.91 440.96 1045.37 439.42 C 1046.65 444.46 1050.44 448.07 1054.47 451.06 C 1057.95 453.48 1059.31 457.69 1061.11 461.33 C 1058.69 465.55 1053.15 466.37 1050.73 470.62 C 1046.72 477.38 1039.79 481.38 1033.38 485.53 C 1027.74 488.03 1022.02 490.46 1016.05 492.01 C 1013.06 493.00 1010.74 490.31 1008.56 488.76 C 1014.49 484.35 1018.14 477.69 1024.13 473.38 C 1023.83 466.59 1017.71 464.75 1012.11 464.44 C 1012.71 468.39 1013.23 472.35 1013.52 476.34 C 1008.08 474.88 1002.47 472.84 998.85 468.26 C 996.08 461.32 999.12 454.02 1003.42 448.53 C 1001.86 448.61 1000.26 448.50 998.77 448.98 C 995.95 451.11 995.29 455.02 992.60 457.26 C 987.88 459.89 982.84 462.06 978.59 465.46 C 983.23 468.91 990.40 469.09 992.80 475.15 C 990.00 474.92 987.22 474.63 984.44 474.34 C 985.21 477.22 985.97 480.12 986.70 483.02 C 984.21 481.99 981.83 480.72 979.49 479.40 C 977.48 480.18 975.50 480.98 973.50 481.74 C 971.86 479.66 970.20 477.59 968.54 475.55 C 966.56 477.08 963.81 478.15 962.86 480.61 C 962.41 484.04 963.38 487.46 963.77 490.86 C 956.64 489.02 949.69 486.07 942.21 486.08 C 936.41 485.29 930.03 488.54 924.90 484.57 C 929.33 480.24 934.18 476.35 939.08 472.55 C 935.04 472.94 931.01 473.36 927.03 474.11 C 928.02 472.92 928.98 471.69 929.94 470.46 C 928.72 469.42 927.52 468.38 926.32 467.35 C 927.58 466.18 928.85 465.00 930.14 463.85 C 925.40 460.14 920.44 456.35 917.20 451.22 C 916.47 447.27 917.58 443.21 917.99 439.26 C 920.59 439.34 923.35 439.50 926.02 439.60 C 927.95 435.63 931.20 432.56 933.41 428.80 C 929.21 422.10 924.03 415.88 921.53 408.23 C 919.76 403.99 916.69 397.96 921.41 394.44 C 926.73 389.04 935.31 393.73 940.89 389.01 C 946.09 385.39 950.78 380.63 953.00 374.58 C 953.56 369.68 953.69 364.73 954.59 359.86 C 951.76 355.83 949.09 351.61 945.19 348.50 C 949.75 341.62 954.74 331.95 964.17 331.86 C 973.57 333.62 982.93 335.76 992.53 336.33 C 995.23 332.77 998.14 329.02 1002.77 328.07 Z" />
</g>
<g target="54" id="#bf00bffe">
<path fill="#bf00bf" fill-opacity="0" d=" M 668.50 347.97 C 673.03 347.29 677.77 345.78 682.34 347.10 C 686.09 348.32 689.77 349.79 693.61 350.74 C 695.03 352.78 696.36 354.95 698.28 356.59 C 702.42 356.61 704.35 351.42 708.35 350.63 C 714.88 349.32 721.62 349.24 728.25 349.18 C 737.89 350.95 747.60 352.34 757.43 352.55 C 766.65 352.93 775.57 355.57 784.21 358.68 C 780.43 361.84 775.61 364.39 773.85 369.25 C 772.15 373.55 770.63 378.03 767.56 381.60 C 765.64 382.86 763.43 380.95 761.49 380.58 C 758.38 378.97 755.32 381.36 752.39 382.24 C 748.07 384.18 743.22 382.85 738.78 382.30 C 737.28 384.61 735.36 386.85 734.86 389.63 C 734.86 392.93 735.55 396.20 736.19 399.43 C 732.64 404.22 732.04 410.24 730.93 415.90 C 726.09 415.18 721.15 415.32 716.28 414.99 C 712.33 414.60 709.34 417.81 705.58 418.32 C 701.39 419.56 695.90 419.06 692.84 422.77 C 690.86 426.25 691.02 430.45 690.22 434.29 C 686.99 434.17 683.38 433.54 680.56 435.52 C 677.67 437.82 676.43 441.45 674.81 444.64 C 677.82 445.09 680.94 445.24 683.81 446.36 C 686.28 447.54 687.66 450.05 689.22 452.17 C 686.82 454.20 684.47 456.29 682.16 458.43 C 684.85 460.20 687.62 461.82 690.44 463.39 C 690.24 466.94 690.18 470.51 690.57 474.05 C 688.46 479.29 687.97 485.54 683.69 489.62 C 681.63 491.81 679.17 493.69 677.68 496.33 C 677.35 498.70 678.66 501.06 680.40 502.60 C 685.07 506.42 690.54 509.03 695.52 512.40 C 691.18 515.71 686.99 519.22 682.95 522.88 C 680.12 525.42 676.33 526.87 674.09 530.03 C 672.98 533.06 674.28 536.34 674.72 539.40 C 668.97 541.35 662.91 542.39 656.83 542.37 C 658.78 538.05 660.80 533.76 662.43 529.31 C 656.27 529.18 650.37 531.90 645.87 535.98 C 643.35 538.80 643.49 542.86 642.85 546.38 C 638.89 547.45 634.83 548.75 632.32 552.18 C 630.66 554.69 627.65 555.05 624.92 555.31 C 623.11 559.19 621.37 563.12 619.13 566.79 C 620.42 569.70 621.75 572.64 623.04 575.59 C 614.46 573.88 605.75 572.61 597.04 574.25 C 598.29 573.33 599.55 572.42 600.81 571.50 C 600.78 570.44 600.75 569.38 600.71 568.33 C 598.56 569.06 596.44 569.85 594.33 570.64 C 589.79 566.79 583.83 565.39 579.10 561.96 C 578.71 559.80 579.13 557.60 579.32 555.44 C 577.68 555.19 576.01 555.10 574.43 554.59 C 572.34 553.19 571.39 550.38 568.89 549.53 C 565.23 548.26 561.40 547.62 557.65 546.73 C 558.67 544.43 559.75 542.15 560.86 539.89 C 555.27 541.13 549.32 537.63 544.11 540.78 C 540.22 541.93 537.75 545.08 535.50 548.16 C 531.24 546.73 526.91 548.06 522.91 549.63 C 521.87 548.16 520.84 546.69 519.83 545.22 C 517.01 545.87 513.78 548.01 511.07 545.93 C 508.62 544.29 505.90 543.15 502.93 542.99 C 502.39 544.86 501.85 546.74 501.32 548.63 C 491.96 543.07 487.32 532.41 483.71 522.65 C 487.94 519.58 491.69 515.95 494.76 511.74 C 497.50 507.98 502.73 506.72 505.07 502.70 C 506.21 497.07 506.24 490.27 512.02 487.06 C 517.45 481.75 525.58 480.47 530.28 474.25 C 532.82 471.01 537.45 471.09 540.50 468.54 C 541.98 466.65 542.51 464.18 544.09 462.36 C 546.82 461.07 549.90 460.47 552.74 459.39 C 550.53 452.98 548.17 446.06 549.16 439.23 C 552.62 436.45 557.36 437.73 561.38 437.99 C 563.50 431.04 559.58 422.92 564.80 416.86 C 568.41 416.05 572.21 416.76 575.78 415.69 C 581.41 413.85 587.60 415.46 593.20 413.42 C 596.12 412.21 598.44 409.99 600.94 408.13 C 599.97 404.91 598.35 401.73 598.42 398.31 C 599.96 393.61 604.80 391.22 608.63 388.60 C 610.19 387.37 612.17 387.94 613.95 388.19 C 613.27 385.44 612.69 382.70 612.30 379.90 C 616.98 381.28 621.96 382.42 626.82 381.14 C 631.47 379.79 636.07 378.24 640.84 377.30 C 644.71 376.50 646.43 372.52 649.17 370.11 C 651.86 367.53 655.88 368.11 659.15 366.90 C 665.09 362.41 667.69 355.17 668.50 347.97 Z" />
</g>
<g target="12" id="#bf003fff">
<path fill="#bf003f" fill-opacity="0" d=" M 830.34 399.85 C 830.84 395.79 837.03 397.90 839.15 396.30 C 837.26 401.39 833.68 407.35 837.50 412.53 C 839.59 416.38 844.07 414.41 847.17 413.33 C 851.00 411.74 855.15 412.66 859.00 413.68 C 858.76 417.12 858.53 420.57 858.31 424.02 C 862.77 424.62 867.46 424.64 871.63 426.53 C 874.26 430.94 870.75 435.85 869.83 440.27 C 869.77 440.46 869.64 440.84 869.58 441.03 C 871.51 442.18 873.67 443.62 875.50 445.09 C 872.53 446.87 869.79 448.97 867.23 451.27 C 863.46 451.26 859.67 451.41 855.93 451.63 C 857.08 450.13 858.25 448.64 859.42 447.14 C 856.23 446.82 853.01 446.64 849.83 446.62 C 847.77 450.17 844.49 452.77 840.15 451.76 C 838.74 453.39 837.33 455.02 835.91 456.64 C 831.83 455.46 827.63 454.38 823.37 454.48 C 819.05 455.35 817.23 459.88 815.31 463.33 C 818.06 463.57 820.81 463.84 823.55 464.20 C 819.54 469.46 812.26 470.06 808.34 475.41 C 806.79 475.11 805.24 474.80 803.70 474.50 C 801.26 481.85 790.90 482.33 789.84 490.22 C 784.93 488.16 779.83 486.39 775.28 483.58 C 770.85 480.64 772.13 474.10 768.69 470.52 C 763.72 468.23 757.29 469.96 753.12 465.89 C 750.36 463.18 749.94 459.07 749.00 455.52 C 736.63 456.50 726.47 464.18 714.85 467.29 C 706.08 465.88 698.58 471.61 690.57 474.05 C 690.18 470.51 690.24 466.94 690.44 463.39 C 687.62 461.82 684.85 460.20 682.16 458.43 C 684.47 456.29 686.82 454.20 689.22 452.17 C 687.66 450.05 686.28 447.54 683.81 446.36 C 680.94 445.24 677.82 445.09 674.81 444.64 C 676.43 441.45 677.67 437.82 680.56 435.52 C 683.38 433.54 686.99 434.17 690.22 434.29 C 691.02 430.45 690.86 426.25 692.84 422.77 C 695.90 419.06 701.39 419.56 705.58 418.32 C 709.34 417.81 712.33 414.60 716.28 414.99 C 721.15 415.32 726.09 415.18 730.93 415.90 C 735.44 416.97 740.33 416.71 744.65 418.53 C 745.67 419.98 746.07 421.75 746.59 423.43 C 751.23 422.21 756.05 422.17 760.74 421.35 C 765.46 418.52 769.20 414.34 773.47 410.90 C 776.75 413.04 780.13 415.72 784.42 414.81 C 790.56 415.06 793.55 408.78 798.03 405.76 C 800.08 405.94 801.86 407.13 803.73 407.92 C 808.79 405.19 814.61 404.98 820.21 404.48 C 820.12 406.90 820.05 409.32 820.08 411.75 C 827.04 411.71 829.20 405.30 830.34 399.85 Z" />
</g>
<g target="16" id="#7f7fbfff">
<path fill="#7f7fbf" fill-opacity="0" d=" M 881.83 438.26 C 885.13 437.61 886.30 442.21 887.85 444.05 C 890.57 448.12 891.42 453.11 894.13 457.17 C 895.84 458.76 898.32 458.94 900.45 459.66 C 900.45 457.44 900.49 455.22 900.54 453.01 C 902.15 453.94 903.98 454.64 905.33 455.99 C 907.25 460.10 903.80 465.07 907.06 468.78 C 910.79 474.74 918.60 474.66 924.53 476.83 C 925.35 475.92 926.19 475.01 927.03 474.11 C 931.01 473.36 935.04 472.94 939.08 472.55 C 934.18 476.35 929.33 480.24 924.90 484.57 C 930.03 488.54 936.41 485.29 942.21 486.08 C 949.69 486.07 956.64 489.02 963.77 490.86 C 963.38 487.46 962.41 484.04 962.86 480.61 C 963.81 478.15 966.56 477.08 968.54 475.55 C 970.20 477.59 971.86 479.66 973.50 481.74 C 975.50 480.98 977.48 480.18 979.49 479.40 C 981.83 480.72 984.21 481.99 986.70 483.02 C 985.97 480.12 985.21 477.22 984.44 474.34 C 987.22 474.63 990.00 474.92 992.80 475.15 C 990.40 469.09 983.23 468.91 978.59 465.46 C 982.84 462.06 987.88 459.89 992.60 457.26 C 995.29 455.02 995.95 451.11 998.77 448.98 C 1000.26 448.50 1001.86 448.61 1003.42 448.53 C 999.12 454.02 996.08 461.32 998.85 468.26 C 1002.47 472.84 1008.08 474.88 1013.52 476.34 C 1013.23 472.35 1012.71 468.39 1012.11 464.44 C 1017.71 464.75 1023.83 466.59 1024.13 473.38 C 1018.14 477.69 1014.49 484.35 1008.56 488.76 C 1010.74 490.31 1013.06 493.00 1016.05 492.01 C 1022.02 490.46 1027.74 488.03 1033.38 485.53 C 1040.38 489.33 1045.67 495.37 1051.62 500.52 C 1053.77 502.00 1052.67 504.72 1051.34 506.36 C 1047.11 511.71 1042.84 517.08 1039.84 523.25 C 1038.48 525.87 1035.31 526.66 1033.07 528.27 C 1028.84 530.27 1025.84 534.04 1021.94 536.50 C 1015.88 538.87 1008.59 538.84 1003.69 543.65 C 1008.88 546.98 1014.50 549.73 1018.89 554.20 C 1021.48 556.95 1025.23 557.79 1028.67 558.98 C 1026.31 563.70 1025.86 568.99 1025.60 574.17 C 1023.05 580.15 1017.40 584.60 1016.36 591.32 C 1013.24 600.67 1016.54 610.28 1016.22 619.79 C 1013.14 617.93 1010.26 615.78 1007.64 613.33 C 1004.51 614.53 1001.40 615.76 998.27 616.93 C 998.40 615.46 998.56 614.00 998.72 612.54 C 996.95 610.86 995.23 609.12 993.61 607.31 C 997.15 606.25 1000.69 605.14 1004.23 604.03 C 1003.55 603.02 1002.88 602.03 1002.21 601.05 C 992.41 601.08 983.06 597.82 973.67 595.44 C 973.20 593.70 972.75 591.97 972.36 590.22 C 968.39 590.67 964.26 590.38 960.44 591.71 C 957.23 593.11 954.60 595.49 951.74 597.46 C 948.08 594.25 945.93 589.90 943.60 585.80 C 937.04 583.39 930.49 580.60 925.24 575.80 C 923.47 577.25 921.73 578.71 919.97 580.16 C 918.96 579.39 917.97 578.63 917.01 577.86 C 918.04 576.36 919.09 574.88 920.17 573.41 C 916.67 575.33 912.71 576.07 908.88 574.71 C 905.41 578.83 899.46 581.91 898.93 587.82 C 898.44 590.80 897.63 593.72 896.69 596.59 C 893.26 594.06 890.27 590.67 886.17 589.28 C 882.26 590.91 879.40 594.19 876.43 597.08 C 874.83 594.42 874.23 591.25 872.06 588.99 C 869.63 587.67 866.59 588.21 864.20 586.77 C 861.19 584.98 858.20 583.06 854.81 582.09 C 847.01 582.70 840.72 577.67 833.21 576.84 C 830.18 569.43 827.41 561.29 821.27 555.91 C 816.39 554.74 811.50 557.81 807.70 560.62 C 804.38 565.17 803.55 571.01 800.81 575.88 C 798.57 579.70 796.07 583.39 794.22 587.43 C 790.85 587.57 787.52 587.70 784.18 587.98 C 783.15 583.10 782.62 578.00 780.49 573.42 C 778.98 570.09 775.32 568.79 772.36 567.11 C 771.38 565.52 770.76 563.22 768.64 562.89 C 763.81 561.20 759.55 565.09 755.03 566.13 C 753.96 568.23 753.05 570.44 752.04 572.58 C 750.84 568.88 749.66 565.19 748.48 561.50 C 743.09 565.55 739.14 570.99 735.74 576.71 C 733.86 576.32 732.13 575.47 730.39 574.70 C 729.25 575.78 728.12 576.88 727.00 577.98 C 727.61 573.20 727.73 568.18 724.60 564.16 C 727.20 563.25 729.89 562.50 732.55 561.70 C 731.67 560.19 730.80 558.68 729.95 557.17 C 731.33 555.66 732.69 554.12 734.02 552.55 C 737.78 554.81 741.78 556.64 745.88 558.21 C 746.55 556.58 747.22 554.95 747.87 553.31 C 749.44 553.43 751.01 553.57 752.60 553.71 C 752.20 551.63 751.82 549.56 751.44 547.48 C 756.88 547.51 762.36 547.20 767.61 545.62 C 764.06 544.87 760.62 544.13 757.17 543.13 C 759.73 539.92 762.73 537.10 766.02 534.65 C 764.84 530.74 763.40 526.89 761.97 523.08 C 759.05 526.23 755.79 529.04 752.41 531.69 C 751.92 529.74 749.80 527.47 751.49 525.60 C 754.28 522.27 758.65 520.80 761.79 517.81 C 765.92 513.94 770.19 510.18 774.99 507.12 C 773.02 506.08 771.06 505.01 769.13 503.93 C 775.48 499.87 781.90 495.68 789.24 493.68 C 789.42 492.52 789.62 491.37 789.84 490.22 C 790.90 482.33 801.26 481.85 803.70 474.50 C 805.24 474.80 806.79 475.11 808.34 475.41 C 812.26 470.06 819.54 469.46 823.55 464.20 C 820.81 463.84 818.06 463.57 815.31 463.33 C 817.23 459.88 819.05 455.35 823.37 454.48 C 827.63 454.38 831.83 455.46 835.91 456.64 C 837.33 455.02 838.74 453.39 840.15 451.76 C 844.49 452.77 847.77 450.17 849.83 446.62 C 853.01 446.64 856.23 446.82 859.42 447.14 C 858.25 448.64 857.08 450.13 855.93 451.63 C 859.67 451.41 863.46 451.26 867.23 451.27 C 869.79 448.97 872.53 446.87 875.50 445.09 C 873.67 443.62 871.51 442.18 869.58 441.03 C 869.64 440.84 869.77 440.46 869.83 440.27 C 873.85 439.76 877.83 438.94 881.83 438.26 Z" />
</g>
<g target="3" id="#3f7f3fff">
<path fill="#3f7f3f" fill-opacity="0" d=" M 1069.87 447.60 C 1074.38 451.31 1078.80 455.67 1084.66 457.11 C 1088.29 458.45 1091.77 455.73 1095.37 456.73 C 1098.07 457.29 1100.60 458.72 1103.40 458.87 C 1110.07 457.75 1114.93 451.50 1121.84 451.23 C 1128.11 453.79 1130.31 461.42 1136.18 464.53 C 1141.74 465.25 1146.20 461.29 1151.13 459.54 C 1153.71 458.65 1155.77 460.90 1157.52 462.44 C 1162.28 467.10 1167.29 471.53 1171.52 476.70 C 1176.06 476.08 1180.59 474.81 1184.59 472.51 C 1188.39 469.21 1190.89 464.71 1194.16 460.91 C 1197.54 464.69 1200.88 468.82 1201.31 474.10 C 1205.08 473.46 1208.80 472.29 1212.65 472.30 C 1216.78 472.36 1219.98 476.87 1224.26 475.21 C 1228.78 473.87 1233.85 473.03 1238.06 475.73 C 1241.01 473.88 1243.71 471.33 1247.19 470.53 C 1252.81 471.73 1257.43 476.10 1263.24 476.64 C 1266.80 475.64 1268.38 471.10 1272.19 470.48 C 1276.14 470.10 1280.08 470.92 1284.00 471.49 C 1281.94 478.83 1280.15 486.27 1277.48 493.43 C 1279.82 494.21 1282.20 494.88 1284.60 495.53 C 1285.38 498.73 1286.32 501.94 1287.17 505.15 C 1292.41 504.27 1297.53 506.09 1302.60 507.18 C 1300.63 516.06 1297.15 524.52 1292.49 532.33 C 1289.10 533.65 1284.00 531.40 1281.38 534.33 C 1279.81 536.67 1279.27 539.53 1277.74 541.88 C 1276.02 543.99 1273.39 545.19 1271.76 547.36 C 1269.62 552.61 1269.87 559.25 1264.93 562.99 C 1263.01 564.43 1261.03 567.01 1258.31 566.75 C 1255.41 564.68 1252.67 562.25 1249.04 561.66 C 1246.28 557.89 1242.86 554.71 1239.08 552.01 C 1235.98 558.10 1235.06 565.32 1230.32 570.50 C 1229.78 570.09 1228.68 569.27 1228.14 568.86 C 1228.75 565.73 1229.56 562.49 1228.60 559.34 C 1227.30 555.50 1228.73 551.57 1229.78 547.86 C 1222.34 547.03 1215.01 545.28 1207.55 544.66 C 1203.46 543.52 1200.06 545.99 1196.84 547.95 C 1198.52 551.85 1198.22 556.18 1198.00 560.32 C 1197.55 563.74 1201.74 564.55 1204.05 565.89 C 1211.37 568.51 1218.69 572.10 1223.53 578.42 C 1227.91 583.00 1231.69 590.38 1238.81 590.51 C 1245.90 589.03 1249.47 580.32 1257.15 580.21 C 1262.20 580.49 1266.56 583.55 1271.27 585.17 C 1272.30 583.05 1273.33 580.92 1274.37 578.80 C 1278.62 577.89 1282.61 576.08 1286.71 574.66 C 1289.66 573.62 1292.86 574.66 1295.86 573.86 C 1304.17 569.30 1306.02 559.31 1312.76 553.25 C 1315.90 555.42 1319.69 556.85 1323.50 555.59 C 1323.40 560.47 1326.57 565.01 1325.06 569.90 C 1323.13 577.41 1321.16 584.90 1320.01 592.58 C 1321.89 593.39 1323.79 594.21 1325.68 595.06 C 1324.46 600.85 1325.08 607.01 1322.69 612.52 C 1321.55 615.55 1320.29 618.54 1319.36 621.64 C 1313.27 620.63 1307.09 620.29 1300.95 619.91 C 1298.57 625.14 1297.14 630.91 1293.43 635.43 C 1290.19 639.31 1289.33 644.66 1289.27 649.56 C 1291.62 656.15 1293.09 663.02 1293.48 670.03 C 1293.38 674.20 1296.40 677.38 1297.56 681.20 C 1298.51 684.40 1299.91 687.43 1301.74 690.23 C 1299.81 694.78 1297.92 699.38 1296.74 704.20 C 1297.03 710.00 1297.98 715.88 1296.72 721.65 C 1298.13 723.17 1299.56 724.72 1301.01 726.28 C 1301.31 729.47 1301.93 732.74 1303.25 735.70 C 1304.80 739.54 1306.71 743.21 1308.59 746.91 C 1307.79 747.78 1307.02 748.67 1306.25 749.56 C 1304.24 749.70 1302.15 749.60 1300.26 750.37 C 1297.71 753.46 1296.45 758.46 1299.05 761.92 C 1300.07 763.51 1301.31 764.96 1302.52 766.43 C 1301.01 774.04 1302.16 782.45 1298.56 789.46 C 1292.53 792.31 1285.70 793.37 1279.96 796.99 C 1272.00 789.08 1260.58 787.14 1249.89 786.08 C 1248.94 790.09 1248.56 794.63 1245.82 797.89 C 1242.89 798.14 1240.06 797.95 1237.18 797.75 C 1236.16 803.77 1231.77 808.04 1226.48 810.50 C 1221.36 804.04 1216.03 796.16 1206.98 795.73 C 1208.00 799.73 1209.24 803.64 1210.41 807.61 C 1207.89 808.39 1205.37 809.12 1202.81 809.74 C 1202.85 806.11 1204.11 802.18 1202.18 798.85 C 1199.79 794.64 1196.57 790.99 1193.58 787.23 C 1194.71 784.77 1196.88 782.33 1196.31 779.46 C 1193.29 770.59 1186.36 763.90 1178.65 758.96 C 1176.87 761.47 1175.05 763.96 1173.14 766.37 C 1171.43 764.43 1169.75 762.50 1168.07 760.56 C 1171.91 757.15 1175.71 753.51 1177.94 748.80 C 1178.86 741.41 1171.05 736.27 1173.18 728.81 C 1166.62 731.02 1161.75 725.71 1156.60 722.71 C 1153.88 729.91 1150.80 737.11 1146.28 743.37 C 1142.19 748.63 1134.99 745.03 1130.49 742.39 C 1125.92 737.99 1125.53 730.82 1120.91 726.40 C 1117.88 725.07 1114.66 724.46 1111.47 723.75 C 1112.20 722.32 1112.76 720.75 1113.86 719.56 C 1115.75 718.88 1117.79 718.82 1119.78 718.55 C 1118.29 715.10 1117.13 711.53 1115.87 708.01 C 1112.69 708.73 1109.47 710.28 1106.17 709.82 C 1103.53 706.64 1102.00 702.71 1099.63 699.34 C 1095.08 692.94 1094.61 684.72 1091.10 677.86 C 1086.77 677.57 1082.61 679.88 1078.30 679.23 C 1073.82 676.72 1072.47 670.37 1067.04 669.27 C 1060.47 667.29 1053.01 666.25 1048.19 660.82 C 1042.74 654.86 1038.97 647.51 1033.02 641.97 C 1025.77 635.90 1021.58 627.36 1016.22 619.79 C 1016.54 610.28 1013.24 600.67 1016.36 591.32 C 1017.40 584.60 1023.05 580.15 1025.60 574.17 C 1025.86 568.99 1026.31 563.70 1028.67 558.98 C 1025.23 557.79 1021.48 556.95 1018.89 554.20 C 1014.50 549.73 1008.88 546.98 1003.69 543.65 C 1008.59 538.84 1015.88 538.87 1021.94 536.50 C 1025.84 534.04 1028.84 530.27 1033.07 528.27 C 1035.31 526.66 1038.48 525.87 1039.84 523.25 C 1042.84 517.08 1047.11 511.71 1051.34 506.36 C 1052.67 504.72 1053.77 502.00 1051.62 500.52 C 1045.67 495.37 1040.38 489.33 1033.38 485.53 C 1039.79 481.38 1046.72 477.38 1050.73 470.62 C 1053.15 466.37 1058.69 465.55 1061.11 461.33 C 1063.65 456.52 1066.71 452.02 1069.87 447.60 Z" />
</g>
<g target="21" id="#007fbfff">
<path fill="#007fbf" fill-opacity="0" d=" M 714.85 467.29 C 726.47 464.18 736.63 456.50 749.00 455.52 C 749.94 459.07 750.36 463.18 753.12 465.89 C 757.29 469.96 763.72 468.23 768.69 470.52 C 772.13 474.10 770.85 480.64 775.28 483.58 C 779.83 486.39 784.93 488.16 789.84 490.22 C 789.62 491.37 789.42 492.52 789.24 493.68 C 781.90 495.68 775.48 499.87 769.13 503.93 C 771.06 505.01 773.02 506.08 774.99 507.12 C 770.19 510.18 765.92 513.94 761.79 517.81 C 758.65 520.80 754.28 522.27 751.49 525.60 C 749.80 527.47 751.92 529.74 752.41 531.69 C 755.79 529.04 759.05 526.23 761.97 523.08 C 763.40 526.89 764.84 530.74 766.02 534.65 C 762.73 537.10 759.73 539.92 757.17 543.13 C 760.62 544.13 764.06 544.87 767.61 545.62 C 762.36 547.20 756.88 547.51 751.44 547.48 C 751.82 549.56 752.20 551.63 752.60 553.71 C 751.01 553.57 749.44 553.43 747.87 553.31 C 747.22 554.95 746.55 556.58 745.88 558.21 C 741.78 556.64 737.78 554.81 734.02 552.55 C 732.69 554.12 731.33 555.66 729.95 557.17 C 730.80 558.68 731.67 560.19 732.55 561.70 C 729.89 562.50 727.20 563.25 724.60 564.16 C 722.81 564.83 721.09 565.61 719.35 566.37 C 716.77 565.67 713.90 563.79 711.28 565.30 C 709.12 566.36 707.00 567.47 704.90 568.63 C 698.81 565.80 691.97 564.13 687.10 559.21 C 686.23 553.75 684.85 548.39 681.51 543.87 C 682.82 542.58 684.13 541.30 685.44 540.01 C 684.16 538.72 682.89 537.45 681.62 536.17 C 679.68 538.65 677.70 541.12 675.61 543.48 C 675.30 542.12 675.01 540.75 674.72 539.40 C 674.28 536.34 672.98 533.06 674.09 530.03 C 676.33 526.87 680.12 525.42 682.95 522.88 C 686.99 519.22 691.18 515.71 695.52 512.40 C 690.54 509.03 685.07 506.42 680.40 502.60 C 678.66 501.06 677.35 498.70 677.68 496.33 C 679.17 493.69 681.63 491.81 683.69 489.62 C 687.97 485.54 688.46 479.29 690.57 474.05 C 698.58 471.61 706.08 465.88 714.85 467.29 Z" />
</g>
<g target="13" id="#3f7fbfff">
<path fill="#3f7fbf" fill-opacity="0" d=" M 645.87 535.98 C 650.37 531.90 656.27 529.18 662.43 529.31 C 660.80 533.76 658.78 538.05 656.83 542.37 C 662.91 542.39 668.97 541.35 674.72 539.40 C 675.01 540.75 675.30 542.12 675.61 543.48 C 677.70 541.12 679.68 538.65 681.62 536.17 C 682.89 537.45 684.16 538.72 685.44 540.01 C 684.13 541.30 682.82 542.58 681.51 543.87 C 684.85 548.39 686.23 553.75 687.10 559.21 C 687.57 562.10 688.88 564.94 688.64 567.91 C 687.52 569.70 685.82 571.02 684.32 572.48 C 686.10 572.87 687.87 573.30 689.65 573.75 C 687.79 575.55 685.89 577.31 683.98 579.07 C 686.53 578.47 689.08 577.87 691.65 577.31 C 689.83 579.24 687.93 581.09 686.02 582.94 C 688.37 583.91 690.42 584.64 692.90 585.69 C 692.52 586.97 692.13 588.26 691.76 589.56 C 684.27 592.37 677.57 597.37 669.56 598.71 C 665.49 599.50 661.16 599.61 657.41 601.55 C 653.17 605.04 649.65 609.33 645.84 613.27 C 642.70 615.19 639.17 616.69 635.41 616.35 C 629.93 615.99 624.46 616.62 619.15 617.97 C 618.38 615.96 617.64 613.94 616.94 611.90 C 612.03 611.93 607.12 611.61 602.22 611.56 C 596.82 612.71 591.78 615.17 586.40 616.44 C 586.51 621.26 588.43 625.73 590.81 629.84 C 579.87 632.19 568.53 629.47 558.26 625.76 C 553.11 623.55 555.96 617.49 554.59 613.41 C 550.58 609.68 544.76 608.69 540.75 604.94 C 535.47 604.90 530.15 604.38 525.38 601.96 C 523.53 603.94 520.39 605.61 520.65 608.72 C 520.63 610.82 520.86 612.92 521.02 615.02 C 510.87 616.21 500.50 613.67 490.51 616.13 C 490.46 615.01 490.41 613.90 490.37 612.80 C 488.64 613.55 486.91 614.30 485.19 615.07 C 485.20 616.89 485.21 618.72 485.22 620.56 C 482.91 618.26 480.68 615.90 478.29 613.69 C 481.26 610.72 484.21 607.74 487.30 604.89 C 485.66 601.67 484.01 598.47 482.43 595.23 C 483.80 591.44 483.20 587.42 482.52 583.55 C 490.58 584.68 496.33 578.37 503.27 575.75 C 502.82 573.30 502.24 570.71 503.18 568.30 C 504.82 567.34 506.79 567.35 508.63 567.09 C 509.19 560.09 504.09 554.60 501.32 548.63 C 501.85 546.74 502.39 544.86 502.93 542.99 C 505.90 543.15 508.62 544.29 511.07 545.93 C 513.78 548.01 517.01 545.87 519.83 545.22 C 520.84 546.69 521.87 548.16 522.91 549.63 C 526.91 548.06 531.24 546.73 535.50 548.16 C 537.75 545.08 540.22 541.93 544.11 540.78 C 549.32 537.63 555.27 541.13 560.86 539.89 C 559.75 542.15 558.67 544.43 557.65 546.73 C 561.40 547.62 565.23 548.26 568.89 549.53 C 571.39 550.38 572.34 553.19 574.43 554.59 C 576.01 555.10 577.68 555.19 579.32 555.44 C 579.13 557.60 578.71 559.80 579.10 561.96 C 583.83 565.39 589.79 566.79 594.33 570.64 C 596.44 569.85 598.56 569.06 600.71 568.33 C 600.75 569.38 600.78 570.44 600.81 571.50 C 599.55 572.42 598.29 573.33 597.04 574.25 C 605.75 572.61 614.46 573.88 623.04 575.59 C 621.75 572.64 620.42 569.70 619.13 566.79 C 621.37 563.12 623.11 559.19 624.92 555.31 C 627.65 555.05 630.66 554.69 632.32 552.18 C 634.83 548.75 638.89 547.45 642.85 546.38 C 643.49 542.86 643.35 538.80 645.87 535.98 Z" />
</g>
<g target="74" id="#7f00bfff">
<path fill="#7f00bf" fill-opacity="0" d=" M 807.70 560.62 C 811.50 557.81 816.39 554.74 821.27 555.91 C 827.41 561.29 830.18 569.43 833.21 576.84 C 840.72 577.67 847.01 582.70 854.81 582.09 C 856.93 585.77 859.75 589.17 860.98 593.30 C 862.04 600.26 859.76 607.25 857.19 613.61 C 853.90 617.91 848.58 620.10 844.33 623.28 C 845.21 625.37 846.06 627.49 846.62 629.70 C 842.36 629.66 838.15 627.79 833.90 628.92 C 824.52 631.33 815.40 626.36 805.96 627.06 C 806.57 629.97 807.23 632.86 807.92 635.75 C 805.75 634.59 803.57 633.45 801.41 632.32 C 796.89 642.96 797.10 654.86 799.89 665.92 C 798.40 665.70 796.91 665.49 795.43 665.30 C 792.91 657.05 790.76 648.65 787.21 640.77 C 782.03 636.73 775.74 632.64 768.81 633.87 C 771.39 636.67 774.46 638.91 777.43 641.27 C 773.02 641.42 768.62 640.88 764.29 640.13 C 763.56 640.81 762.84 641.51 762.13 642.21 C 764.25 646.58 765.51 651.71 762.59 656.07 C 759.31 654.82 756.04 653.13 752.49 652.93 C 747.63 653.36 743.79 657.61 742.26 662.00 C 743.66 665.50 746.80 667.90 748.64 671.13 C 750.62 676.72 749.87 682.65 748.27 688.20 C 750.22 687.73 752.16 687.06 754.18 686.99 C 755.15 688.12 755.83 689.46 756.60 690.75 C 759.42 691.21 762.25 691.60 765.08 692.04 C 764.76 694.41 764.79 696.90 763.86 699.14 C 762.34 702.12 759.45 703.99 757.01 706.15 C 749.68 702.79 741.66 706.50 735.42 710.49 C 732.12 713.02 728.34 707.23 725.08 709.95 C 722.74 712.86 723.54 717.20 722.83 720.62 C 722.64 720.87 722.27 721.37 722.08 721.62 C 719.18 720.09 716.36 717.97 713.03 717.67 C 709.23 718.25 705.95 720.56 702.24 721.36 C 697.86 721.22 693.64 719.74 689.34 718.99 C 686.40 718.71 684.56 716.19 682.57 714.32 C 679.02 715.28 675.02 716.71 671.69 714.29 C 674.80 709.99 679.85 707.69 683.21 703.71 C 683.92 699.79 682.13 695.83 683.03 691.92 C 684.48 685.41 686.92 679.06 687.16 672.34 C 687.25 667.93 690.67 663.26 687.91 659.11 C 685.35 656.15 682.81 652.95 679.41 650.97 C 676.34 650.53 673.27 651.37 670.24 651.72 C 669.77 647.75 671.04 643.85 670.89 639.90 C 669.61 634.32 664.13 630.79 662.91 625.16 C 662.12 621.93 662.19 618.27 660.09 615.53 C 656.46 611.61 650.59 612.72 645.84 613.27 C 649.65 609.33 653.17 605.04 657.41 601.55 C 661.16 599.61 665.49 599.50 669.56 598.71 C 677.57 597.37 684.27 592.37 691.76 589.56 C 692.13 588.26 692.52 586.97 692.90 585.69 C 690.42 584.64 688.37 583.91 686.02 582.94 C 687.93 581.09 689.83 579.24 691.65 577.31 C 689.08 577.87 686.53 578.47 683.98 579.07 C 685.89 577.31 687.79 575.55 689.65 573.75 C 687.87 573.30 686.10 572.87 684.32 572.48 C 685.82 571.02 687.52 569.70 688.64 567.91 C 688.88 564.94 687.57 562.10 687.10 559.21 C 691.97 564.13 698.81 565.80 704.90 568.63 C 707.00 567.47 709.12 566.36 711.28 565.30 C 713.90 563.79 716.77 565.67 719.35 566.37 C 721.09 565.61 722.81 564.83 724.60 564.16 C 727.73 568.18 727.61 573.20 727.00 577.98 C 728.12 576.88 729.25 575.78 730.39 574.70 C 732.13 575.47 733.86 576.32 735.74 576.71 C 739.14 570.99 743.09 565.55 748.48 561.50 C 749.66 565.19 750.84 568.88 752.04 572.58 C 753.05 570.44 753.96 568.23 755.03 566.13 C 759.55 565.09 763.81 561.20 768.64 562.89 C 770.76 563.22 771.38 565.52 772.36 567.11 C 775.32 568.79 778.98 570.09 780.49 573.42 C 782.62 578.00 783.15 583.10 784.18 587.98 C 787.52 587.70 790.85 587.57 794.22 587.43 C 796.07 583.39 798.57 579.70 800.81 575.88 C 803.55 571.01 804.38 565.17 807.70 560.62 Z" />
</g>
<g target="64" id="#0000bffe">
<path fill="#0000bf" fill-opacity="0" d=" M 908.88 574.71 C 912.71 576.07 916.67 575.33 920.17 573.41 C 919.09 574.88 918.04 576.36 917.01 577.86 C 917.97 578.63 918.96 579.39 919.97 580.16 C 921.73 578.71 923.47 577.25 925.24 575.80 C 930.49 580.60 937.04 583.39 943.60 585.80 C 945.93 589.90 948.08 594.25 951.74 597.46 C 954.60 595.49 957.23 593.11 960.44 591.71 C 964.26 590.38 968.39 590.67 972.36 590.22 C 972.75 591.97 973.20 593.70 973.67 595.44 C 971.17 596.86 967.93 597.75 966.69 600.61 C 965.05 604.13 964.28 607.97 963.12 611.67 C 965.34 614.59 969.18 617.43 968.37 621.57 C 966.99 627.40 963.67 632.53 960.48 637.52 C 957.30 642.38 956.74 648.47 953.21 653.15 C 951.30 656.09 948.88 660.35 951.27 663.68 C 953.46 665.87 956.75 666.25 959.60 667.15 C 952.49 669.42 950.30 677.00 949.56 683.54 C 949.45 687.66 950.64 693.64 946.00 695.76 C 940.23 698.44 934.99 702.16 930.54 706.70 C 926.93 710.56 929.66 718.14 923.95 720.24 C 919.44 722.03 915.24 725.73 914.79 730.82 C 915.89 733.33 917.49 735.62 918.90 738.01 C 915.28 741.35 911.94 744.96 908.54 748.51 C 909.57 754.43 912.70 761.36 909.00 766.96 C 900.62 777.96 887.18 782.73 876.29 790.61 C 874.10 785.66 872.37 780.27 868.81 776.15 C 862.68 771.89 854.87 771.35 847.79 769.63 C 844.98 767.93 844.30 764.19 841.95 762.00 C 834.88 757.50 825.34 758.16 819.53 751.46 C 817.18 747.50 817.53 742.46 814.86 738.61 C 812.86 740.08 811.26 741.98 809.62 743.82 C 807.74 742.61 805.58 741.40 804.82 739.15 C 803.69 736.75 803.75 733.15 800.72 732.27 C 795.20 730.59 789.39 731.98 783.78 732.25 C 781.88 732.50 780.48 730.98 779.16 729.89 C 773.11 724.55 768.30 717.43 760.21 714.92 C 756.16 715.60 752.59 717.86 748.70 719.10 C 750.63 714.30 753.66 710.05 757.01 706.15 C 759.45 703.99 762.34 702.12 763.86 699.14 C 764.79 696.90 764.76 694.41 765.08 692.04 C 762.25 691.60 759.42 691.21 756.60 690.75 C 755.83 689.46 755.15 688.12 754.18 686.99 C 752.16 687.06 750.22 687.73 748.27 688.20 C 749.87 682.65 750.62 676.72 748.64 671.13 C 746.80 667.90 743.66 665.50 742.26 662.00 C 743.79 657.61 747.63 653.36 752.49 652.93 C 756.04 653.13 759.31 654.82 762.59 656.07 C 765.51 651.71 764.25 646.58 762.13 642.21 C 762.84 641.51 763.56 640.81 764.29 640.13 C 768.62 640.88 773.02 641.42 777.43 641.27 C 774.46 638.91 771.39 636.67 768.81 633.87 C 775.74 632.64 782.03 636.73 787.21 640.77 C 790.76 648.65 792.91 657.05 795.43 665.30 C 796.91 665.49 798.40 665.70 799.89 665.92 C 797.10 654.86 796.89 642.96 801.41 632.32 C 803.57 633.45 805.75 634.59 807.92 635.75 C 807.23 632.86 806.57 629.97 805.96 627.06 C 815.40 626.36 824.52 631.33 833.90 628.92 C 838.15 627.79 842.36 629.66 846.62 629.70 C 846.06 627.49 845.21 625.37 844.33 623.28 C 848.58 620.10 853.90 617.91 857.19 613.61 C 859.76 607.25 862.04 600.26 860.98 593.30 C 859.75 589.17 856.93 585.77 854.81 582.09 C 858.20 583.06 861.19 584.98 864.20 586.77 C 866.59 588.21 869.63 587.67 872.06 588.99 C 874.23 591.25 874.83 594.42 876.43 597.08 C 879.40 594.19 882.26 590.91 886.17 589.28 C 890.27 590.67 893.26 594.06 896.69 596.59 C 897.63 593.72 898.44 590.80 898.93 587.82 C 899.46 581.91 905.41 578.83 908.88 574.71 Z" />
</g>
<g target="58" id="#7f7f3fff">
<path fill="#7f7f3f" fill-opacity="0" d=" M 973.67 595.44 C 983.06 597.82 992.41 601.08 1002.21 601.05 C 1002.88 602.03 1003.55 603.02 1004.23 604.03 C 1000.69 605.14 997.15 606.25 993.61 607.31 C 995.23 609.12 996.95 610.86 998.72 612.54 C 998.56 614.00 998.40 615.46 998.27 616.93 C 1001.40 615.76 1004.51 614.53 1007.64 613.33 C 1010.26 615.78 1013.14 617.93 1016.22 619.79 C 1021.58 627.36 1025.77 635.90 1033.02 641.97 C 1038.97 647.51 1042.74 654.86 1048.19 660.82 C 1053.01 666.25 1060.47 667.29 1067.04 669.27 C 1072.47 670.37 1073.82 676.72 1078.30 679.23 C 1082.61 679.88 1086.77 677.57 1091.10 677.86 C 1094.61 684.72 1095.08 692.94 1099.63 699.34 C 1102.00 702.71 1103.53 706.64 1106.17 709.82 C 1109.47 710.28 1112.69 708.73 1115.87 708.01 C 1117.13 711.53 1118.29 715.10 1119.78 718.55 C 1117.79 718.82 1115.75 718.88 1113.86 719.56 C 1112.76 720.75 1112.20 722.32 1111.47 723.75 C 1114.66 724.46 1117.88 725.07 1120.91 726.40 C 1125.53 730.82 1125.92 737.99 1130.49 742.39 C 1134.99 745.03 1142.19 748.63 1146.28 743.37 C 1150.80 737.11 1153.88 729.91 1156.60 722.71 C 1161.75 725.71 1166.62 731.02 1173.18 728.81 C 1171.05 736.27 1178.86 741.41 1177.94 748.80 C 1175.71 753.51 1171.91 757.15 1168.07 760.56 C 1169.75 762.50 1171.43 764.43 1173.14 766.37 C 1175.05 763.96 1176.87 761.47 1178.65 758.96 C 1186.36 763.90 1193.29 770.59 1196.31 779.46 C 1196.88 782.33 1194.71 784.77 1193.58 787.23 C 1196.57 790.99 1199.79 794.64 1202.18 798.85 C 1204.11 802.18 1202.85 806.11 1202.81 809.74 C 1205.37 809.12 1207.89 808.39 1210.41 807.61 C 1209.24 803.64 1208.00 799.73 1206.98 795.73 C 1216.03 796.16 1221.36 804.04 1226.48 810.50 C 1231.77 808.04 1236.16 803.77 1237.18 797.75 C 1240.06 797.95 1242.89 798.14 1245.82 797.89 C 1248.56 794.63 1248.94 790.09 1249.89 786.08 C 1260.58 787.14 1272.00 789.08 1279.96 796.99 C 1285.70 793.37 1292.53 792.31 1298.56 789.46 C 1302.16 782.45 1301.01 774.04 1302.52 766.43 C 1301.31 764.96 1300.07 763.51 1299.05 761.92 C 1296.45 758.46 1297.71 753.46 1300.26 750.37 C 1302.15 749.60 1304.24 749.70 1306.25 749.56 C 1307.02 748.67 1307.79 747.78 1308.59 746.91 C 1306.71 743.21 1304.80 739.54 1303.25 735.70 C 1306.09 735.61 1308.94 735.44 1311.78 735.22 C 1314.05 739.46 1317.43 742.91 1321.59 745.33 C 1323.68 741.68 1324.33 736.44 1328.61 734.57 C 1332.27 732.83 1336.78 730.47 1340.36 733.57 C 1347.38 731.76 1354.48 734.11 1361.12 736.25 C 1365.80 736.69 1372.35 733.06 1375.18 738.66 C 1379.91 748.57 1371.57 756.93 1368.85 765.96 C 1376.27 765.53 1373.70 771.41 1373.78 775.43 C 1374.80 777.03 1376.17 778.39 1377.47 779.80 C 1378.59 778.91 1379.74 778.03 1380.90 777.16 C 1386.76 780.76 1393.36 782.72 1399.98 784.52 C 1398.54 787.78 1397.08 791.02 1395.68 794.29 C 1403.66 800.01 1414.02 798.58 1423.24 798.19 C 1424.90 802.19 1426.73 806.84 1430.83 808.89 C 1439.28 811.24 1448.14 814.56 1456.81 811.39 C 1460.99 815.69 1464.26 821.03 1469.82 823.86 C 1462.24 834.76 1467.87 849.13 1466.10 861.36 C 1463.63 867.86 1458.27 872.81 1454.59 878.61 C 1448.46 885.99 1444.22 895.97 1434.96 899.99 C 1420.52 907.26 1403.80 912.61 1387.53 909.57 C 1380.34 909.52 1377.29 902.62 1374.02 897.51 C 1369.82 903.86 1366.12 910.53 1361.83 916.82 C 1357.82 922.61 1350.36 923.53 1344.28 926.07 C 1344.05 922.22 1343.55 918.27 1341.28 915.05 C 1330.52 916.80 1320.24 912.03 1309.51 912.14 C 1305.64 910.14 1302.94 906.36 1300.72 902.74 C 1298.01 902.33 1295.54 902.12 1292.88 901.81 C 1288.97 896.06 1290.54 888.73 1287.16 882.84 C 1283.93 882.87 1281.23 883.28 1278.15 883.49 C 1276.58 881.28 1275.04 879.03 1273.34 876.98 C 1270.69 878.80 1269.10 881.73 1266.64 883.75 C 1264.72 884.56 1263.33 882.54 1261.89 881.69 C 1258.53 882.51 1255.04 882.42 1251.77 881.32 C 1249.36 885.94 1247.29 890.71 1245.07 895.41 C 1240.09 894.85 1235.61 897.24 1231.30 899.34 C 1229.78 900.59 1228.14 898.84 1226.98 898.06 C 1222.34 894.10 1218.76 889.09 1214.87 884.45 C 1208.71 887.55 1201.66 886.92 1195.03 886.17 C 1194.25 888.43 1193.48 890.69 1192.73 892.97 C 1188.12 893.36 1184.24 891.26 1180.86 888.47 C 1178.53 891.67 1175.56 894.31 1173.04 897.35 C 1170.36 897.76 1167.91 898.36 1165.28 898.75 C 1163.65 903.07 1163.45 908.47 1159.77 911.75 C 1153.68 917.64 1146.62 922.61 1138.64 925.58 C 1134.01 925.96 1130.52 922.64 1126.35 921.44 C 1117.02 919.89 1110.23 912.75 1103.30 906.96 C 1103.78 904.26 1104.31 901.61 1104.84 898.95 C 1100.15 901.22 1094.71 905.46 1089.69 901.38 C 1087.66 910.12 1088.91 921.01 1081.39 927.41 C 1078.94 930.34 1073.69 931.22 1071.79 927.23 C 1068.70 920.29 1070.82 912.39 1071.79 905.18 C 1061.12 904.58 1056.27 894.30 1053.20 885.56 C 1048.34 878.34 1038.37 878.35 1031.24 874.79 C 1025.59 872.44 1025.57 865.20 1024.02 860.19 C 1020.13 858.32 1016.98 855.29 1013.20 853.29 C 1008.53 852.59 1003.68 852.96 999.09 854.04 C 989.18 855.69 979.31 852.20 969.42 854.22 C 966.39 847.18 961.06 841.09 960.40 833.16 C 959.88 833.01 959.38 832.87 958.89 832.75 C 952.96 836.65 946.03 839.69 938.80 838.47 C 935.18 837.63 931.52 839.37 930.95 843.43 C 930.74 848.70 926.56 851.45 922.38 853.38 C 921.44 851.62 920.50 849.87 919.57 848.13 C 915.98 852.11 910.59 854.26 905.28 852.76 C 901.34 849.34 902.12 843.23 900.62 838.62 C 895.08 838.04 889.38 837.20 884.45 834.47 C 883.25 833.94 882.72 832.73 882.43 831.56 C 879.83 818.00 877.21 804.40 876.29 790.61 C 887.18 782.73 900.62 777.96 909.00 766.96 C 912.70 761.36 909.57 754.43 908.54 748.51 C 911.94 744.96 915.28 741.35 918.90 738.01 C 917.49 735.62 915.89 733.33 914.79 730.82 C 915.24 725.73 919.44 722.03 923.95 720.24 C 929.66 718.14 926.93 710.56 930.54 706.70 C 934.99 702.16 940.23 698.44 946.00 695.76 C 950.64 693.64 949.45 687.66 949.56 683.54 C 950.30 677.00 952.49 669.42 959.60 667.15 C 956.75 666.25 953.46 665.87 951.27 663.68 C 948.88 660.35 951.30 656.09 953.21 653.15 C 956.74 648.47 957.30 642.38 960.48 637.52 C 963.67 632.53 966.99 627.40 968.37 621.57 C 969.18 617.43 965.34 614.59 963.12 611.67 C 964.28 607.97 965.05 604.13 966.69 600.61 C 967.93 597.75 971.17 596.86 973.67 595.44 Z" />
</g>
<g target="60" id="#bf7fbfff">
<path fill="#bf7fbf" fill-opacity="0" d=" M 520.65 608.72 C 520.39 605.61 523.53 603.94 525.38 601.96 C 530.15 604.38 535.47 604.90 540.75 604.94 C 544.76 608.69 550.58 609.68 554.59 613.41 C 555.96 617.49 553.11 623.55 558.26 625.76 C 568.53 629.47 579.87 632.19 590.81 629.84 C 588.43 625.73 586.51 621.26 586.40 616.44 C 591.78 615.17 596.82 612.71 602.22 611.56 C 607.12 611.61 612.03 611.93 616.94 611.90 C 617.64 613.94 618.38 615.96 619.15 617.97 C 624.46 616.62 629.93 615.99 635.41 616.35 C 639.17 616.69 642.70 615.19 645.84 613.27 C 650.59 612.72 656.46 611.61 660.09 615.53 C 662.19 618.27 662.12 621.93 662.91 625.16 C 664.13 630.79 669.61 634.32 670.89 639.90 C 671.04 643.85 669.77 647.75 670.24 651.72 C 673.27 651.37 676.34 650.53 679.41 650.97 C 682.81 652.95 685.35 656.15 687.91 659.11 C 690.67 663.26 687.25 667.93 687.16 672.34 C 686.92 679.06 684.48 685.41 683.03 691.92 C 682.13 695.83 683.92 699.79 683.21 703.71 C 679.85 707.69 674.80 709.99 671.69 714.29 C 670.23 713.58 668.78 712.86 667.32 712.18 C 667.35 710.59 667.39 709.00 667.43 707.43 C 660.98 708.87 653.58 707.75 648.13 712.15 C 642.68 715.49 636.65 717.80 630.68 720.05 C 630.72 723.38 630.75 726.70 630.75 730.04 C 624.33 728.64 619.80 723.54 614.24 720.58 C 609.57 721.76 606.82 728.24 601.27 727.21 C 595.23 727.35 587.73 724.34 582.90 729.34 C 581.68 729.96 580.46 732.02 578.99 731.00 C 575.45 728.35 575.37 722.33 570.66 721.04 C 567.04 719.95 563.54 718.48 559.87 717.60 C 555.68 723.57 549.32 727.11 543.84 731.72 C 535.51 727.84 525.51 726.62 519.19 719.39 C 512.01 719.59 504.98 721.15 498.43 724.09 C 496.33 721.04 494.15 718.04 492.01 715.02 C 489.43 716.52 486.82 717.99 484.20 719.42 C 484.88 716.92 485.51 714.39 486.62 712.05 C 489.28 707.34 496.65 706.62 497.88 700.89 C 497.91 694.49 492.01 690.09 488.71 685.30 C 479.05 673.72 473.89 659.35 465.65 646.86 C 468.27 640.55 460.69 635.91 462.79 629.55 C 464.32 624.43 465.94 619.09 469.14 614.75 C 471.84 614.80 475.76 611.12 478.29 613.69 C 480.68 615.90 482.91 618.26 485.22 620.56 C 485.21 618.72 485.20 616.89 485.19 615.07 C 486.91 614.30 488.64 613.55 490.37 612.80 C 490.41 613.90 490.46 615.01 490.51 616.13 C 500.50 613.67 510.87 616.21 521.02 615.02 C 520.86 612.92 520.63 610.82 520.65 608.72 Z" />
</g>
<g target="65" id="#003f3fff">
<path fill="#003f3f" fill-opacity="0" d=" M 735.42 710.49 C 741.66 706.50 749.68 702.79 757.01 706.15 C 753.66 710.05 750.63 714.30 748.70 719.10 C 752.59 717.86 756.16 715.60 760.21 714.92 C 768.30 717.43 773.11 724.55 779.16 729.89 C 780.48 730.98 781.88 732.50 783.78 732.25 C 789.39 731.98 795.20 730.59 800.72 732.27 C 803.75 733.15 803.69 736.75 804.82 739.15 C 805.58 741.40 807.74 742.61 809.62 743.82 C 811.26 741.98 812.86 740.08 814.86 738.61 C 817.53 742.46 817.18 747.50 819.53 751.46 C 825.34 758.16 834.88 757.50 841.95 762.00 C 844.30 764.19 844.98 767.93 847.79 769.63 C 854.87 771.35 862.68 771.89 868.81 776.15 C 872.37 780.27 874.10 785.66 876.29 790.61 C 877.21 804.40 879.83 818.00 882.43 831.56 C 881.13 831.39 879.86 831.23 878.59 831.07 C 878.38 835.21 878.05 839.35 877.40 843.45 C 874.14 842.74 871.39 840.60 868.05 840.32 C 863.34 842.69 864.44 849.27 860.48 852.39 C 857.47 854.90 855.40 858.19 853.25 861.40 C 847.97 866.52 840.47 867.63 833.87 870.13 C 829.48 872.58 825.77 876.20 820.93 877.84 C 815.45 879.22 809.82 877.79 804.32 878.48 C 801.62 879.12 800.99 882.25 800.18 884.49 C 798.67 888.62 801.93 892.72 801.07 896.86 C 797.68 898.66 793.93 899.63 790.53 901.39 C 781.66 905.52 774.92 913.13 765.85 916.88 C 762.22 916.39 759.36 913.71 756.24 912.07 C 759.05 923.12 755.81 934.90 759.14 945.89 C 761.23 951.85 763.52 957.78 764.96 963.96 C 757.87 971.94 748.27 977.47 737.85 979.64 C 733.94 979.59 730.66 976.49 727.59 974.44 C 721.03 963.49 715.78 951.77 710.94 939.97 C 708.65 934.70 705.18 929.79 700.48 926.43 C 696.77 925.52 694.24 928.33 691.52 930.12 C 687.87 923.53 685.12 916.46 681.25 910.01 C 678.48 908.76 674.76 909.88 672.22 907.86 C 670.19 905.69 668.87 902.99 667.42 900.44 C 664.77 900.74 661.49 902.03 659.40 899.64 C 653.90 893.26 650.54 884.95 642.96 880.56 C 639.83 883.51 638.36 887.58 636.07 891.10 C 632.97 894.33 628.40 892.53 624.65 891.96 C 620.78 892.00 617.16 893.76 613.45 894.70 C 610.86 890.28 607.78 886.13 605.54 881.52 C 604.65 878.83 605.26 875.95 604.71 873.21 C 600.54 870.58 593.62 872.05 592.53 877.27 C 592.81 880.94 594.20 884.70 592.45 888.26 C 586.75 886.62 580.81 885.01 574.83 886.19 C 572.06 886.35 568.60 888.18 566.38 885.65 C 562.94 882.25 560.54 877.85 558.54 873.52 C 558.09 870.92 556.04 866.39 559.26 864.52 C 564.38 861.40 568.38 856.09 568.60 849.95 C 567.16 843.57 562.10 838.75 556.79 835.30 C 552.53 833.07 547.49 834.44 543.43 836.45 C 541.37 834.32 539.35 831.32 536.05 831.39 C 527.58 830.64 521.82 838.58 513.41 838.55 C 512.24 836.99 511.04 835.45 509.85 833.92 C 507.29 834.09 504.71 833.89 502.16 834.08 C 498.66 834.58 495.78 836.84 492.52 838.05 C 488.94 839.39 485.25 840.43 481.65 841.72 C 479.16 839.77 476.66 837.79 474.69 835.31 C 467.28 826.11 457.47 819.01 451.25 808.84 C 449.04 804.67 453.03 799.29 449.40 795.65 C 445.07 789.41 437.23 783.78 438.50 775.32 C 442.03 768.62 448.98 764.57 452.91 758.13 C 456.65 751.78 462.02 746.53 465.08 739.76 C 467.56 735.48 471.70 732.46 474.17 728.15 C 476.28 724.00 480.17 721.45 484.20 719.42 C 486.82 717.99 489.43 716.52 492.01 715.02 C 494.15 718.04 496.33 721.04 498.43 724.09 C 504.98 721.15 512.01 719.59 519.19 719.39 C 525.51 726.62 535.51 727.84 543.84 731.72 C 549.32 727.11 555.68 723.57 559.87 717.60 C 563.54 718.48 567.04 719.95 570.66 721.04 C 575.37 722.33 575.45 728.35 578.99 731.00 C 580.46 732.02 581.68 729.96 582.90 729.34 C 587.73 724.34 595.23 727.35 601.27 727.21 C 606.82 728.24 609.57 721.76 614.24 720.58 C 619.80 723.54 624.33 728.64 630.75 730.04 C 630.75 726.70 630.72 723.38 630.68 720.05 C 636.65 717.80 642.68 715.49 648.13 712.15 C 653.58 707.75 660.98 708.87 667.43 707.43 C 667.39 709.00 667.35 710.59 667.32 712.18 C 668.78 712.86 670.23 713.58 671.69 714.29 C 675.02 716.71 679.02 715.28 682.57 714.32 C 684.56 716.19 686.40 718.71 689.34 718.99 C 693.64 719.74 697.86 721.22 702.24 721.36 C 705.95 720.56 709.23 718.25 713.03 717.67 C 716.36 717.97 719.18 720.09 722.08 721.62 C 722.27 721.37 722.64 720.87 722.83 720.62 C 723.54 717.20 722.74 712.86 725.08 709.95 C 728.34 707.23 732.12 713.02 735.42 710.49 Z" />
</g>
</svg>
