<?xml version="1.0" encoding="UTF-8" ?>
<!DOCTYPE svg PUBLIC "-//W3C//DTD SVG 1.1//EN" "http://www.w3.org/Graphics/SVG/1.1/DTD/svg11.dtd">
<svg width="1920pt" height="1080pt" viewBox="0 0 1920 1080" version="1.1" xmlns="http://www.w3.org/2000/svg">
<g target="27" id="#1f7f00ff">
<path fill="#1f7f00" opacity="0.00" d=" M 1221.89 126.99 C 1224.19 124.48 1227.16 122.17 1230.78 122.47 C 1232.98 124.23 1234.90 126.82 1233.57 129.98 C 1233.02 136.20 1231.06 143.00 1233.86 149.00 C 1235.90 154.63 1241.37 158.16 1242.97 164.02 C 1244.59 169.14 1243.33 174.53 1242.66 179.69 C 1239.45 193.36 1238.08 207.37 1235.21 221.11 C 1233.69 224.26 1234.49 228.99 1231.18 231.08 C 1228.10 233.32 1225.08 235.64 1222.44 238.39 C 1226.32 241.83 1229.33 246.88 1234.69 248.15 C 1239.41 249.42 1245.23 250.20 1248.41 254.42 C 1249.99 258.10 1251.48 261.82 1253.63 265.24 C 1253.25 268.11 1252.64 270.96 1252.65 273.87 C 1254.26 276.62 1256.87 278.69 1259.15 280.92 C 1261.33 280.32 1263.53 279.73 1265.72 279.10 C 1266.21 283.57 1268.54 287.54 1269.44 291.87 C 1268.86 297.84 1267.22 303.71 1265.41 309.42 C 1264.45 313.13 1259.86 313.62 1258.18 316.80 C 1257.21 320.25 1254.76 322.84 1251.13 322.60 C 1247.38 322.42 1244.63 325.03 1242.37 327.67 C 1245.56 328.81 1249.05 329.37 1251.99 331.15 C 1255.05 333.74 1252.96 338.27 1252.85 341.71 C 1251.37 346.70 1252.05 353.04 1248.23 357.05 C 1244.24 360.05 1240.52 363.38 1236.67 366.55 C 1235.16 364.13 1234.81 359.83 1231.27 359.66 C 1226.51 359.24 1221.60 359.20 1216.90 360.05 C 1214.81 365.14 1219.18 367.25 1222.40 369.37 C 1222.08 374.71 1225.53 379.08 1226.71 384.06 C 1226.57 390.17 1224.98 396.16 1223.14 401.96 C 1221.21 401.04 1219.26 400.21 1217.35 399.32 C 1213.30 404.99 1207.60 409.05 1202.19 413.25 C 1199.46 419.34 1201.91 426.01 1203.46 432.04 C 1199.50 436.20 1196.21 441.09 1191.41 444.36 C 1187.72 446.10 1183.87 447.35 1179.94 448.33 C 1174.66 441.39 1167.03 436.73 1162.17 429.45 C 1155.38 430.72 1149.51 435.45 1142.68 436.12 C 1137.10 433.24 1134.57 426.56 1130.67 421.85 C 1123.00 422.09 1116.50 426.45 1109.68 429.33 C 1105.92 429.55 1102.54 427.09 1098.77 427.22 C 1094.43 427.18 1089.82 428.64 1085.79 426.52 C 1081.65 424.86 1078.82 421.09 1074.76 419.33 C 1073.23 418.70 1072.16 420.18 1071.22 421.11 C 1068.61 424.22 1066.98 428.01 1065.08 431.57 C 1062.40 427.42 1059.94 423.04 1055.98 419.97 C 1052.41 417.12 1049.60 413.45 1048.35 409.01 C 1045.99 410.76 1043.68 412.56 1041.50 414.52 C 1040.14 410.30 1039.04 406.03 1037.83 401.78 C 1042.35 400.95 1048.54 402.02 1050.53 396.73 C 1053.11 390.97 1058.24 387.32 1063.84 384.88 C 1058.85 381.69 1058.76 375.46 1057.92 370.26 C 1055.87 369.40 1053.87 368.53 1051.91 367.64 C 1053.45 364.71 1055.04 361.80 1056.56 358.86 C 1053.58 356.79 1050.45 354.96 1047.32 353.15 C 1048.77 347.47 1051.06 341.78 1050.94 335.85 C 1048.70 326.36 1041.19 319.24 1035.06 312.04 C 1036.36 310.30 1037.70 308.59 1039.03 306.87 C 1037.08 303.71 1035.12 300.56 1033.46 297.25 C 1032.54 293.02 1031.46 288.64 1032.01 284.31 C 1033.06 281.99 1035.66 280.91 1037.62 279.46 C 1050.64 286.16 1065.47 286.83 1079.69 288.71 C 1079.51 284.81 1079.06 280.94 1078.61 277.07 C 1083.77 277.53 1089.19 279.16 1094.28 277.38 C 1102.73 274.85 1110.24 269.83 1118.91 267.93 C 1124.42 268.03 1129.50 270.27 1134.58 272.15 C 1135.26 268.21 1134.38 264.34 1132.95 260.68 C 1131.52 256.73 1132.23 251.18 1128.03 248.88 C 1121.45 246.54 1115.94 254.25 1109.44 252.23 C 1102.15 246.57 1099.41 237.31 1097.52 228.68 C 1096.48 223.58 1093.28 219.19 1092.39 214.07 C 1095.32 211.85 1099.09 211.92 1102.58 211.95 C 1102.57 210.28 1102.64 208.61 1102.42 206.96 C 1099.87 205.48 1095.72 206.02 1094.79 202.58 C 1093.68 199.03 1090.55 197.06 1087.64 195.09 C 1087.47 193.28 1087.33 191.49 1087.24 189.69 C 1084.62 188.44 1081.96 187.25 1079.40 185.94 C 1081.11 178.86 1081.74 171.56 1083.62 164.52 C 1081.62 164.15 1079.62 163.78 1077.64 163.42 C 1079.35 157.32 1086.32 155.77 1089.10 150.41 C 1094.49 150.31 1099.84 150.63 1105.26 150.71 C 1106.80 148.24 1107.68 144.07 1111.15 143.83 C 1115.33 143.85 1119.44 144.76 1123.63 144.95 C 1125.08 142.11 1126.13 138.91 1128.38 136.57 C 1131.59 134.56 1134.75 132.18 1138.36 130.88 C 1163.12 131.65 1188.02 132.75 1212.76 130.40 C 1216.00 130.04 1219.62 129.65 1221.89 126.99 Z" />
<path fill="#9f7f00" opacity="0.00" d=" M 999.35 154.26 C 1005.80 154.46 1012.21 154.94 1018.67 155.37 C 1018.64 158.05 1017.88 160.62 1017.93 163.32 C 1023.49 164.33 1029.10 164.79 1034.78 165.18 C 1035.34 163.18 1035.92 161.19 1036.48 159.18 C 1050.14 161.16 1063.98 161.31 1077.64 163.42 C 1079.62 163.78 1081.62 164.15 1083.62 164.52 C 1081.74 171.56 1081.11 178.86 1079.40 185.94 C 1081.96 187.25 1084.62 188.44 1087.24 189.69 C 1087.33 191.49 1087.47 193.28 1087.64 195.09 C 1090.55 197.06 1093.68 199.03 1094.79 202.58 C 1095.72 206.02 1099.87 205.48 1102.42 206.96 C 1102.64 208.61 1102.57 210.28 1102.58 211.95 C 1099.09 211.92 1095.32 211.85 1092.39 214.07 C 1093.28 219.19 1096.48 223.58 1097.52 228.68 C 1099.41 237.31 1102.15 246.57 1109.44 252.23 C 1115.94 254.25 1121.45 246.54 1128.03 248.88 C 1132.23 251.18 1131.52 256.73 1132.95 260.68 C 1134.38 264.34 1135.26 268.21 1134.58 272.15 C 1129.50 270.27 1124.42 268.03 1118.91 267.93 C 1110.24 269.83 1102.73 274.85 1094.28 277.38 C 1089.19 279.16 1083.77 277.53 1078.61 277.07 C 1079.06 280.94 1079.51 284.81 1079.69 288.71 C 1065.47 286.83 1050.64 286.16 1037.62 279.46 C 1034.95 277.27 1032.62 274.37 1032.41 270.74 C 1032.71 267.37 1033.73 264.13 1034.67 260.91 C 1029.15 260.30 1023.58 259.70 1018.25 258.09 C 1013.66 256.83 1011.19 251.59 1010.75 247.26 C 1012.79 241.23 1016.09 235.60 1019.53 230.27 C 1026.16 225.13 1028.74 216.33 1027.53 208.25 C 1026.12 203.73 1021.22 201.75 1017.87 198.86 C 1016.14 206.45 1008.36 201.62 1003.49 201.98 C 993.65 200.32 982.95 201.23 974.14 195.76 C 971.47 194.57 968.81 192.74 965.77 192.86 C 962.37 193.11 960.05 195.97 958.06 198.40 C 957.29 192.57 957.19 186.67 957.23 180.80 C 957.39 174.51 961.05 169.09 963.16 163.33 C 968.33 163.83 973.54 165.27 978.78 164.81 C 980.28 163.48 983.28 160.82 984.78 159.48 C 988.23 159.28 991.84 159.96 995.27 159.23 C 996.81 157.73 998.02 155.95 999.35 154.26 Z" />
</g>
<g target="45" id="#1f007fff">
<path fill="#1f007f" opacity="0.00" d=" M 791.51 153.27 C 799.67 150.97 808.36 151.78 816.34 154.63 C 817.02 156.66 817.74 158.69 818.43 160.73 C 822.84 161.88 827.34 162.51 831.83 163.36 C 834.01 171.38 833.79 180.04 837.22 187.70 C 839.90 194.85 840.55 202.52 841.66 210.02 C 838.05 212.26 833.79 213.64 830.81 216.78 C 829.23 219.09 829.70 222.09 829.53 224.75 C 835.12 225.33 840.70 226.15 846.27 226.99 C 846.61 229.73 846.88 232.44 847.26 235.20 C 852.99 237.38 858.48 240.14 864.40 241.85 C 864.57 245.38 864.75 248.88 865.01 252.41 C 868.38 252.75 872.44 252.70 874.59 249.59 C 876.82 243.84 874.27 237.40 876.64 231.64 C 877.64 228.34 881.45 227.92 884.20 226.57 C 884.73 224.47 885.19 222.35 885.91 220.30 C 895.55 221.42 904.53 216.69 914.04 215.97 C 922.21 217.02 923.96 205.88 931.51 205.46 C 937.12 204.19 938.53 209.93 940.61 213.48 C 949.52 213.41 953.11 204.29 958.06 198.40 C 960.05 195.97 962.37 193.11 965.77 192.86 C 968.81 192.74 971.47 194.57 974.14 195.76 C 982.95 201.23 993.65 200.32 1003.49 201.98 C 1008.36 201.62 1016.14 206.45 1017.87 198.86 C 1021.22 201.75 1026.12 203.73 1027.53 208.25 C 1028.74 216.33 1026.16 225.13 1019.53 230.27 C 1016.09 235.60 1012.79 241.23 1010.75 247.26 C 1011.19 251.59 1013.66 256.83 1018.25 258.09 C 1023.58 259.70 1029.15 260.30 1034.67 260.91 C 1033.73 264.13 1032.71 267.37 1032.41 270.74 C 1032.62 274.37 1034.95 277.27 1037.62 279.46 C 1035.66 280.91 1033.06 281.99 1032.01 284.31 C 1031.46 288.64 1032.54 293.02 1033.46 297.25 C 1026.50 298.47 1019.43 299.42 1012.82 302.02 C 1009.93 299.41 1007.50 296.09 1003.88 294.47 C 998.92 293.69 997.55 299.48 994.23 301.80 C 983.41 303.12 972.90 298.85 962.18 298.32 C 953.66 299.89 948.98 308.32 944.35 314.74 C 948.20 318.48 952.78 322.54 953.50 328.16 C 952.91 334.38 954.53 341.34 950.71 346.81 C 947.36 351.58 943.20 356.15 937.72 358.42 C 932.73 359.77 927.36 358.76 922.50 360.57 C 919.37 362.23 917.63 365.84 917.08 369.21 C 920.51 379.86 926.46 389.50 932.37 398.91 C 930.05 402.76 926.74 405.96 924.62 409.97 C 921.63 409.78 918.52 409.50 915.67 410.60 C 914.74 414.33 914.43 418.56 915.89 422.17 C 919.06 427.09 923.80 430.78 928.24 434.53 C 927.13 435.92 926.01 437.30 924.93 438.70 C 926.35 439.81 927.78 440.92 929.22 442.04 C 928.18 443.06 927.17 444.11 926.18 445.16 C 924.94 446.39 923.67 447.59 922.45 448.83 C 916.56 446.08 908.64 445.93 905.20 439.58 C 902.18 436.39 904.45 432.27 904.09 428.54 C 904.25 425.37 900.57 424.50 898.52 422.97 C 898.41 425.19 898.34 427.43 898.29 429.66 C 895.33 429.14 891.07 429.63 890.19 425.90 C 887.94 419.21 884.68 412.95 880.43 407.31 C 875.85 409.12 870.98 410.03 866.11 410.66 C 867.88 405.82 869.95 400.91 869.13 395.65 C 864.95 394.58 859.64 395.92 855.97 393.13 C 854.40 389.92 855.05 386.19 854.73 382.74 C 847.85 380.60 840.66 381.93 833.96 384.07 C 831.32 377.94 831.47 371.05 833.93 364.90 C 831.30 365.33 828.76 365.60 826.26 366.33 C 824.56 369.51 825.11 373.55 822.62 376.38 C 820.96 379.24 817.25 379.45 814.48 380.41 C 814.80 378.14 815.17 375.88 815.56 373.62 C 807.64 373.61 799.42 378.66 791.93 374.27 C 787.98 378.02 784.29 383.14 778.53 383.95 C 773.73 386.04 770.04 382.32 767.11 379.25 C 762.37 382.99 758.27 387.56 753.21 390.87 C 748.82 392.28 744.05 391.64 739.53 392.20 C 738.55 390.62 737.60 389.00 736.36 387.62 C 731.67 385.90 726.35 387.19 721.75 385.06 C 722.92 379.77 724.50 374.58 726.43 369.51 C 728.17 365.70 725.13 361.81 725.86 357.91 C 726.89 353.93 730.39 350.18 734.80 350.61 C 740.46 350.76 746.13 350.26 751.10 347.32 C 753.57 348.21 755.85 350.39 758.60 350.14 C 766.17 346.01 764.91 335.53 771.39 330.47 C 773.54 328.66 775.83 327.03 778.12 325.41 C 770.14 322.84 762.08 320.16 753.64 319.89 C 742.79 319.28 731.96 316.94 721.08 318.12 C 721.09 317.12 721.10 316.12 721.12 315.12 C 720.07 310.81 724.06 308.64 727.32 307.13 C 727.88 303.96 728.11 300.59 729.72 297.75 C 731.58 296.26 733.79 295.28 735.67 293.80 C 737.31 291.18 737.02 286.73 740.64 285.90 C 745.50 284.74 750.56 284.71 755.48 283.88 C 756.77 281.77 757.64 279.22 759.77 277.77 C 762.42 276.36 765.71 276.87 768.31 275.37 C 769.86 273.46 769.81 270.73 771.03 268.61 C 772.57 267.40 774.56 266.96 776.34 266.20 C 769.59 260.03 766.89 250.56 767.77 241.61 C 768.54 236.09 768.57 230.10 765.96 225.03 C 762.98 221.46 755.68 222.67 754.68 217.22 C 752.72 209.23 751.74 201.02 750.03 192.97 C 754.16 192.65 758.30 192.69 762.45 192.49 C 771.79 194.87 769.85 182.45 775.96 179.21 C 778.10 177.57 782.25 176.84 781.60 173.35 C 780.10 165.15 786.88 159.00 791.51 153.27 Z" />
</g>
<g target="18" id="#bfbfbfff">
<path fill="#bfbfbf" opacity="0.00" d=" M 994.23 301.80 C 997.55 299.48 998.92 293.69 1003.88 294.47 C 1007.50 296.09 1009.93 299.41 1012.82 302.02 C 1019.43 299.42 1026.50 298.47 1033.46 297.25 C 1035.12 300.56 1037.08 303.71 1039.03 306.87 C 1037.70 308.59 1036.36 310.30 1035.06 312.04 C 1041.19 319.24 1048.70 326.36 1050.94 335.85 C 1051.06 341.78 1048.77 347.47 1047.32 353.15 C 1050.45 354.96 1053.58 356.79 1056.56 358.86 C 1055.04 361.80 1053.45 364.71 1051.91 367.64 C 1053.87 368.53 1055.87 369.40 1057.92 370.26 C 1058.76 375.46 1058.85 381.69 1063.84 384.88 C 1058.24 387.32 1053.11 390.97 1050.53 396.73 C 1048.54 402.02 1042.35 400.95 1037.83 401.78 C 1039.04 406.03 1040.14 410.30 1041.50 414.52 C 1043.68 412.56 1045.99 410.76 1048.35 409.01 C 1049.60 413.45 1052.41 417.12 1055.98 419.97 C 1059.94 423.04 1062.40 427.42 1065.08 431.57 C 1063.98 433.99 1062.32 436.15 1059.92 437.39 C 1054.95 440.08 1052.17 445.28 1048.16 449.03 C 1044.42 451.92 1040.39 454.37 1036.44 456.95 C 1030.53 460.21 1024.17 462.87 1017.57 464.29 C 1014.44 465.17 1012.74 462.03 1011.20 459.95 C 1015.07 457.15 1018.34 453.68 1021.04 449.75 C 1023.17 446.93 1027.67 443.70 1025.18 439.76 C 1021.97 437.42 1018.10 436.10 1014.41 434.68 C 1014.59 438.57 1015.78 442.30 1016.51 446.11 C 1010.47 447.41 1004.28 444.15 1000.60 439.47 C 998.59 432.04 1001.78 424.39 1004.80 417.66 C 1002.51 418.57 1000.05 419.32 998.19 420.99 C 996.12 423.51 996.00 427.77 992.57 429.03 C 987.55 431.02 982.97 433.92 978.60 437.06 C 984.38 439.03 991.95 440.16 994.08 446.90 C 991.35 446.42 988.64 445.87 985.94 445.27 C 986.58 447.81 987.22 450.36 987.88 452.91 C 986.70 453.57 985.54 454.23 984.38 454.90 C 983.55 453.88 982.76 452.87 982.01 451.82 C 979.35 451.80 976.71 451.86 974.07 452.02 C 971.34 449.14 967.69 448.12 963.83 448.99 C 963.43 453.68 964.21 458.75 961.92 463.09 C 951.39 457.30 938.95 457.30 927.31 458.65 C 926.29 457.89 925.28 457.13 924.29 456.37 C 928.41 451.77 932.96 447.61 937.53 443.47 C 933.75 444.05 929.94 444.46 926.18 445.16 C 927.17 444.11 928.18 443.06 929.22 442.04 C 927.78 440.92 926.35 439.81 924.93 438.70 C 926.01 437.30 927.13 435.92 928.24 434.53 C 923.80 430.78 919.06 427.09 915.89 422.17 C 914.43 418.56 914.74 414.33 915.67 410.60 C 918.52 409.50 921.63 409.78 924.62 409.97 C 926.74 405.96 930.05 402.76 932.37 398.91 C 926.46 389.50 920.51 379.86 917.08 369.21 C 917.63 365.84 919.37 362.23 922.50 360.57 C 927.36 358.76 932.73 359.77 937.72 358.42 C 943.20 356.15 947.36 351.58 950.71 346.81 C 954.53 341.34 952.91 334.38 953.50 328.16 C 952.78 322.54 948.20 318.48 944.35 314.74 C 948.98 308.32 953.66 299.89 962.18 298.32 C 972.90 298.85 983.41 303.12 994.23 301.80 Z" />
</g>
<g target="54" id="#9f007fff">
<path fill="#9f007f" opacity="0.00" d=" M 659.02 314.48 C 663.51 314.61 668.21 313.00 672.62 314.56 C 676.31 315.70 680.04 316.61 683.82 317.48 C 685.10 319.76 686.37 322.04 687.62 324.34 C 691.98 324.59 695.04 321.96 696.62 318.27 C 704.73 316.74 713.00 316.53 721.12 315.12 C 721.10 316.12 721.09 317.12 721.08 318.12 C 731.96 316.94 742.79 319.28 753.64 319.89 C 762.08 320.16 770.14 322.84 778.12 325.41 C 775.83 327.03 773.54 328.66 771.39 330.47 C 764.91 335.53 766.17 346.01 758.60 350.14 C 755.85 350.39 753.57 348.21 751.10 347.32 C 746.13 350.26 740.46 350.76 734.80 350.61 C 730.39 350.18 726.89 353.93 725.86 357.91 C 725.13 361.81 728.17 365.70 726.43 369.51 C 724.50 374.58 722.92 379.77 721.75 385.06 C 720.93 384.75 720.13 384.44 719.33 384.14 C 713.47 387.50 706.69 384.43 700.52 386.20 C 694.24 387.80 687.90 389.19 681.75 391.26 C 681.47 394.34 680.90 400.50 680.61 403.58 C 677.16 404.21 673.67 404.81 670.31 405.75 C 667.04 407.63 665.98 411.35 664.75 414.62 C 670.45 414.89 676.46 417.13 678.89 422.74 C 676.35 424.83 673.85 426.95 671.49 429.24 C 674.46 431.21 677.94 432.69 680.25 435.50 C 681.03 438.67 680.76 442.06 680.62 445.32 C 679.32 449.63 677.87 453.94 675.98 458.03 C 672.80 462.46 668.98 466.42 665.59 470.69 C 671.03 476.74 678.22 480.58 684.92 485.01 C 677.29 490.02 671.98 497.58 664.41 502.65 C 661.17 504.90 663.51 509.24 663.66 512.35 C 657.72 514.77 651.49 516.43 645.11 517.06 C 646.46 511.77 649.06 506.96 650.97 501.88 C 644.20 502.55 638.61 506.64 632.76 509.69 C 631.96 513.36 631.07 517.02 630.30 520.72 C 623.73 521.30 619.90 526.26 616.21 531.00 C 615.63 529.66 615.04 528.34 614.44 527.03 C 610.95 531.81 609.00 537.50 605.73 542.42 C 607.64 545.09 609.41 547.85 611.14 550.65 C 605.71 550.33 600.24 549.94 595.00 548.41 C 591.30 547.36 587.58 548.90 584.03 549.81 C 585.46 548.11 586.87 546.38 588.26 544.64 C 584.06 544.40 579.25 546.24 575.66 543.26 C 572.06 540.60 567.38 539.47 564.34 536.13 C 563.94 533.91 564.44 531.63 564.58 529.41 C 562.48 529.53 560.38 529.57 558.28 529.63 C 558.31 528.12 558.35 526.62 558.40 525.12 C 553.16 523.79 547.86 522.78 542.67 521.31 C 543.32 518.99 543.96 516.69 544.67 514.40 C 538.85 514.03 532.53 512.21 527.03 514.96 C 523.41 516.47 521.37 520.07 518.59 522.65 C 515.20 521.89 511.73 522.22 508.37 522.97 C 505.42 523.78 503.71 520.36 501.14 519.79 C 499.15 520.09 497.24 520.75 495.32 521.28 C 493.11 519.93 491.17 517.42 488.36 517.65 C 486.46 517.73 484.62 518.26 482.78 518.67 C 483.27 519.79 483.78 520.91 484.29 522.03 C 474.72 516.63 470.21 505.99 465.89 496.42 C 471.52 493.29 475.29 488.04 479.07 482.99 C 481.50 479.52 486.27 479.15 489.10 476.19 C 490.37 471.56 488.43 466.02 492.09 462.10 C 498.80 455.18 508.91 452.56 514.86 444.76 C 517.32 441.75 521.96 443.24 524.78 440.80 C 526.82 438.82 527.65 436.00 528.76 433.47 C 531.79 432.30 534.88 431.20 537.90 429.96 C 536.20 423.95 534.93 417.82 533.80 411.69 C 533.40 409.43 535.78 407.81 537.78 407.68 C 540.61 407.95 543.50 408.60 546.34 409.04 C 550.39 403.15 546.35 395.76 549.14 389.53 C 550.01 387.04 552.30 384.75 555.46 386.06 C 562.00 385.86 568.33 383.95 574.88 383.72 C 579.71 383.36 585.56 381.57 587.63 376.73 C 587.48 372.35 583.40 367.26 587.51 363.55 C 591.58 359.99 596.42 356.43 602.05 356.32 C 601.38 353.85 600.69 351.38 600.00 348.91 C 609.75 351.25 619.68 349.09 629.03 345.98 C 633.51 345.10 635.72 340.64 638.89 337.86 C 642.23 334.26 648.62 336.71 651.36 332.32 C 656.14 327.56 657.35 320.73 659.02 314.48 Z" />
</g>
<g target="12" id="#1f0000ff">
<path fill="#1f0000" opacity="0.00" d=" M 826.26 366.33 C 828.76 365.60 831.30 365.33 833.93 364.90 C 831.47 371.05 831.32 377.94 833.96 384.07 C 840.66 381.93 847.85 380.60 854.73 382.74 C 855.05 386.19 854.40 389.92 855.97 393.13 C 859.64 395.92 864.95 394.58 869.13 395.65 C 869.95 400.91 867.88 405.82 866.11 410.66 C 868.20 412.12 870.28 413.58 872.42 414.99 C 866.62 419.51 859.96 422.93 852.43 422.92 C 852.91 420.66 853.39 418.39 853.87 416.13 C 846.11 417.95 838.92 421.64 832.18 425.80 C 827.13 425.87 822.03 425.30 817.02 426.11 C 813.25 427.14 811.60 431.11 809.62 434.10 C 812.60 434.50 815.61 434.84 818.59 435.31 C 813.72 440.17 806.96 442.35 802.01 447.12 C 800.38 446.94 798.76 446.74 797.15 446.58 C 795.45 449.98 793.09 453.07 789.54 454.68 C 786.21 456.26 783.45 459.06 783.55 462.98 C 777.76 459.95 771.30 457.93 766.20 453.74 C 763.74 450.54 764.42 445.93 762.36 442.50 C 757.54 440.28 752.04 440.24 747.17 438.16 C 742.24 436.32 742.81 429.89 739.88 426.25 C 728.68 427.05 719.01 433.27 709.27 438.24 C 705.79 439.84 701.99 437.72 698.39 438.48 C 692.13 439.76 686.54 443.08 680.62 445.32 C 680.76 442.06 681.03 438.67 680.25 435.50 C 677.94 432.69 674.46 431.21 671.49 429.24 C 673.85 426.95 676.35 424.83 678.89 422.74 C 676.46 417.13 670.45 414.89 664.75 414.62 C 665.98 411.35 667.04 407.63 670.31 405.75 C 673.67 404.81 677.16 404.21 680.61 403.58 C 680.90 400.50 681.47 394.34 681.75 391.26 C 687.90 389.19 694.24 387.80 700.52 386.20 C 706.69 384.43 713.47 387.50 719.33 384.14 C 720.13 384.44 720.93 384.75 721.75 385.06 C 726.35 387.19 731.67 385.90 736.36 387.62 C 737.60 389.00 738.55 390.62 739.53 392.20 C 744.05 391.64 748.82 392.28 753.21 390.87 C 758.27 387.56 762.37 382.99 767.11 379.25 C 770.04 382.32 773.73 386.04 778.53 383.95 C 784.29 383.14 787.98 378.02 791.93 374.27 C 799.42 378.66 807.64 373.61 815.56 373.62 C 815.17 375.88 814.80 378.14 814.48 380.41 C 817.25 379.45 820.96 379.24 822.62 376.38 C 825.11 373.55 824.56 369.51 826.26 366.33 Z" />
</g>
<g target="16" id="#3fbfbfff">
<path fill="#3fbfbf" opacity="0.00" d=" M 866.11 410.66 C 870.98 410.03 875.85 409.12 880.43 407.31 C 884.68 412.95 887.94 419.21 890.19 425.90 C 891.07 429.63 895.33 429.14 898.29 429.66 C 898.34 427.43 898.41 425.19 898.52 422.97 C 900.57 424.50 904.25 425.37 904.09 428.54 C 904.45 432.27 902.18 436.39 905.20 439.58 C 908.64 445.93 916.56 446.08 922.45 448.83 C 923.67 447.59 924.94 446.39 926.18 445.16 C 929.94 444.46 933.75 444.05 937.53 443.47 C 932.96 447.61 928.41 451.77 924.29 456.37 C 925.28 457.13 926.29 457.89 927.31 458.65 C 938.95 457.30 951.39 457.30 961.92 463.09 C 964.21 458.75 963.43 453.68 963.83 448.99 C 967.69 448.12 971.34 449.14 974.07 452.02 C 976.71 451.86 979.35 451.80 982.01 451.82 C 982.76 452.87 983.55 453.88 984.38 454.90 C 985.54 454.23 986.70 453.57 987.88 452.91 C 987.22 450.36 986.58 447.81 985.94 445.27 C 988.64 445.87 991.35 446.42 994.08 446.90 C 991.95 440.16 984.38 439.03 978.60 437.06 C 982.97 433.92 987.55 431.02 992.57 429.03 C 996.00 427.77 996.12 423.51 998.19 420.99 C 1000.05 419.32 1002.51 418.57 1004.80 417.66 C 1001.78 424.39 998.59 432.04 1000.60 439.47 C 1004.28 444.15 1010.47 447.41 1016.51 446.11 C 1015.78 442.30 1014.59 438.57 1014.41 434.68 C 1018.10 436.10 1021.97 437.42 1025.18 439.76 C 1027.67 443.70 1023.17 446.93 1021.04 449.75 C 1018.34 453.68 1015.07 457.15 1011.20 459.95 C 1012.74 462.03 1014.44 465.17 1017.57 464.29 C 1024.17 462.87 1030.53 460.21 1036.44 456.95 C 1043.92 461.81 1049.58 468.86 1056.93 473.89 C 1055.52 477.58 1053.05 480.63 1050.23 483.33 C 1045.62 487.94 1045.88 496.35 1039.47 499.40 C 1034.38 502.06 1030.19 506.04 1025.56 509.35 C 1019.20 512.07 1012.42 513.57 1005.96 516.00 C 1006.05 516.61 1006.23 517.83 1006.32 518.44 C 1012.11 521.08 1017.21 524.90 1021.92 529.14 C 1024.37 531.57 1027.78 532.32 1031.04 533.01 C 1030.18 537.58 1029.39 542.16 1029.08 546.81 C 1028.69 552.00 1023.92 555.15 1021.83 559.60 C 1019.32 565.83 1017.11 572.33 1016.73 579.10 C 1016.88 584.94 1018.74 590.68 1018.06 596.56 C 1015.34 594.84 1012.88 592.55 1009.77 591.64 C 1006.95 591.37 1004.16 592.08 1001.38 592.43 C 999.74 589.72 997.71 587.28 995.48 585.04 C 999.03 582.87 1002.52 580.67 1006.10 578.51 C 1000.97 576.58 995.36 576.77 990.19 575.02 C 985.07 573.40 979.67 573.01 974.56 571.38 C 973.87 569.76 973.19 568.14 972.53 566.52 C 967.46 567.06 961.63 565.75 957.47 569.47 C 955.21 570.98 953.05 572.59 950.88 574.22 C 947.98 570.35 946.24 565.70 943.26 561.96 C 936.74 558.85 929.91 556.09 924.31 551.41 C 921.68 553.27 918.77 554.64 915.89 556.03 C 916.41 553.28 917.02 550.55 917.71 547.84 C 916.07 548.85 914.45 549.87 912.84 550.90 C 911.02 550.18 909.21 549.48 907.41 548.76 C 904.35 552.53 900.86 555.95 897.94 559.83 C 896.33 563.98 896.39 568.57 894.96 572.79 C 890.83 570.35 887.55 566.42 883.05 564.69 C 879.11 567.65 875.97 571.77 871.15 573.42 C 871.64 569.11 869.71 565.21 867.41 561.73 C 865.98 563.05 864.58 564.39 863.18 565.73 C 859.95 562.67 856.70 559.11 852.08 558.36 C 843.73 558.34 836.13 555.10 828.50 552.14 C 825.26 544.36 821.76 536.27 815.72 530.28 C 810.50 530.38 806.03 533.41 801.22 535.02 C 799.95 537.75 798.46 540.38 797.10 543.07 C 795.76 545.70 796.12 548.91 794.52 551.45 C 792.22 555.24 789.90 559.06 788.59 563.32 C 785.01 563.22 781.50 563.07 777.95 563.15 C 776.72 558.63 776.13 553.94 774.24 549.64 C 772.49 545.86 768.61 543.91 765.52 541.41 C 763.10 539.40 760.19 537.66 756.95 537.72 C 753.53 538.38 750.35 539.91 747.06 541.03 C 745.92 543.23 744.94 545.55 743.75 547.74 C 742.22 543.97 741.33 539.98 740.24 536.07 C 735.28 540.02 730.94 544.88 728.02 550.54 C 724.64 550.60 721.32 551.18 718.03 551.87 C 718.37 547.49 718.06 543.03 716.25 538.97 C 718.16 538.23 720.06 537.47 721.97 536.71 C 721.46 532.75 723.14 529.20 725.44 526.10 C 728.92 529.75 733.47 531.86 738.39 532.75 C 738.50 531.07 738.62 529.40 738.73 527.73 C 740.73 527.91 742.71 528.20 744.70 528.48 C 744.12 526.17 743.71 523.82 743.24 521.49 C 749.16 521.81 755.30 521.89 760.81 519.34 C 757.97 518.92 755.10 518.80 752.25 518.96 C 752.15 516.75 752.12 514.56 752.17 512.39 C 754.46 511.23 756.83 510.27 759.15 509.16 C 757.74 505.13 756.62 500.91 754.39 497.23 C 750.89 500.08 747.29 502.83 743.15 504.70 C 743.60 502.26 742.71 498.99 744.93 497.26 C 753.00 492.31 759.68 485.50 767.53 480.25 C 765.75 478.44 763.94 476.68 762.13 474.93 C 769.42 472.59 776.06 468.75 783.20 465.99 C 783.30 464.98 783.42 463.98 783.55 462.98 C 783.45 459.06 786.21 456.26 789.54 454.68 C 793.09 453.07 795.45 449.98 797.15 446.58 C 798.76 446.74 800.38 446.94 802.01 447.12 C 806.96 442.35 813.72 440.17 818.59 435.31 C 815.61 434.84 812.60 434.50 809.62 434.10 C 811.60 431.11 813.25 427.14 817.02 426.11 C 822.03 425.30 827.13 425.87 832.18 425.80 C 838.92 421.64 846.11 417.95 853.87 416.13 C 853.39 418.39 852.91 420.66 852.43 422.92 C 859.96 422.93 866.62 419.51 872.42 414.99 C 870.28 413.58 868.20 412.12 866.11 410.66 Z" />
</g>
<g target="3" id="#9f0000fe">
<path fill="#9f0000" opacity="0.00" d=" M 1071.22 421.11 C 1072.16 420.18 1073.23 418.70 1074.76 419.33 C 1078.82 421.09 1081.65 424.86 1085.79 426.52 C 1089.82 428.64 1094.43 427.18 1098.77 427.22 C 1102.54 427.09 1105.92 429.55 1109.68 429.33 C 1116.50 426.45 1123.00 422.09 1130.67 421.85 C 1134.57 426.56 1137.10 433.24 1142.68 436.12 C 1149.51 435.45 1155.38 430.72 1162.17 429.45 C 1167.03 436.73 1174.66 441.39 1179.94 448.33 C 1183.87 447.35 1187.72 446.10 1191.41 444.36 C 1196.21 441.09 1199.50 436.20 1203.46 432.04 C 1206.72 436.53 1209.53 441.31 1212.28 446.14 C 1214.50 445.34 1216.65 444.25 1218.99 443.78 C 1224.10 443.08 1228.46 445.87 1232.75 448.08 C 1238.23 444.87 1244.81 445.03 1250.73 446.85 C 1253.04 445.11 1255.29 443.09 1258.11 442.21 C 1264.41 443.22 1269.56 447.96 1276.00 448.79 C 1278.96 447.67 1280.44 444.48 1282.38 442.16 C 1286.61 442.06 1290.95 442.00 1295.24 441.99 C 1294.05 449.72 1292.28 457.33 1290.02 464.81 C 1292.07 466.09 1294.52 466.88 1296.20 468.69 C 1297.80 471.39 1298.65 474.47 1299.85 477.37 C 1305.42 476.65 1310.43 479.70 1315.86 480.37 C 1313.12 488.05 1311.43 496.57 1305.81 502.82 C 1302.99 506.90 1297.54 505.33 1293.37 505.80 C 1292.90 507.96 1292.69 510.20 1291.90 512.29 C 1290.05 516.13 1285.47 517.62 1283.30 521.18 C 1281.16 527.30 1280.96 534.98 1274.90 538.92 C 1273.09 541.62 1269.94 541.05 1267.72 539.36 C 1260.61 536.44 1256.02 530.07 1249.98 525.64 C 1246.40 531.43 1246.01 540.14 1239.84 543.92 C 1240.81 536.43 1238.60 528.69 1241.80 521.53 C 1233.95 519.43 1225.86 518.43 1217.81 517.51 C 1213.77 517.05 1209.47 518.43 1206.66 521.41 C 1206.62 526.58 1208.08 531.81 1206.49 536.89 C 1213.33 540.62 1220.76 543.27 1227.17 547.78 C 1235.50 552.45 1239.23 562.74 1248.01 566.78 C 1256.26 567.32 1259.14 557.69 1266.73 556.73 C 1273.02 555.09 1277.95 559.92 1283.81 560.85 C 1286.19 558.23 1287.00 553.90 1290.88 552.95 C 1295.36 551.73 1299.73 549.35 1304.47 549.26 C 1311.92 551.36 1316.13 543.90 1319.55 538.80 C 1321.04 534.63 1323.93 531.32 1327.48 528.74 C 1330.60 529.68 1333.83 530.04 1337.06 530.64 C 1337.65 535.25 1341.25 539.56 1339.40 544.32 C 1336.80 552.01 1335.11 559.98 1334.41 568.07 C 1336.07 569.62 1338.65 570.75 1339.19 573.15 C 1339.22 581.66 1336.63 589.96 1333.83 597.92 C 1328.11 597.25 1322.40 596.33 1316.66 596.01 C 1314.15 595.70 1313.22 598.52 1312.35 600.33 C 1308.92 609.74 1300.72 618.30 1303.13 629.07 C 1305.39 636.72 1305.93 644.68 1306.82 652.55 C 1309.51 657.85 1313.26 662.86 1314.22 668.87 C 1311.12 678.68 1309.26 688.85 1310.38 699.19 C 1309.97 702.38 1312.70 704.40 1314.58 706.53 C 1317.44 709.39 1315.36 713.99 1317.15 717.42 C 1318.43 721.90 1323.21 726.33 1320.79 731.15 C 1318.15 731.97 1315.27 732.09 1312.79 733.34 C 1311.70 735.48 1311.34 737.89 1311.24 740.32 C 1311.69 744.58 1316.36 747.33 1316.00 751.81 C 1315.75 758.19 1315.11 764.62 1313.65 770.85 C 1313.07 774.13 1309.38 774.69 1306.80 775.71 C 1301.76 777.18 1297.06 779.98 1291.70 780.06 C 1285.96 777.66 1281.22 772.82 1274.88 772.03 C 1270.55 771.41 1266.17 771.14 1261.85 770.48 C 1260.54 775.20 1258.90 779.82 1256.99 784.32 C 1253.96 783.32 1251.09 782.35 1248.13 781.26 C 1248.43 788.44 1242.94 792.62 1237.24 795.36 C 1232.36 788.29 1226.24 781.30 1217.37 779.61 C 1218.26 783.63 1219.20 787.62 1219.59 791.74 C 1218.11 793.06 1216.08 793.97 1214.82 795.47 C 1214.96 785.64 1208.58 778.19 1203.18 770.77 C 1204.36 768.16 1207.28 765.33 1205.74 762.30 C 1201.76 753.69 1195.42 746.06 1186.89 741.70 C 1185.59 744.35 1184.10 746.89 1182.68 749.47 C 1180.51 747.49 1178.42 745.44 1176.47 743.25 C 1179.55 740.52 1182.66 737.85 1185.87 735.25 C 1187.34 728.47 1185.55 721.45 1180.35 716.77 C 1181.12 714.49 1181.97 712.25 1182.91 710.04 C 1180.61 710.28 1178.29 711.10 1175.98 710.69 C 1172.03 708.74 1168.39 706.40 1164.76 703.98 C 1162.03 711.37 1158.68 718.68 1154.01 725.05 C 1149.15 731.06 1140.74 726.38 1135.74 723.33 C 1132.92 719.00 1132.18 713.63 1129.59 709.17 C 1126.42 707.09 1122.58 706.44 1119.34 704.54 C 1118.81 703.11 1118.73 701.56 1118.50 700.07 C 1121.01 699.92 1123.52 699.70 1126.03 699.44 C 1124.85 695.77 1123.64 692.13 1122.40 688.50 C 1118.69 688.96 1113.65 692.27 1110.73 688.50 C 1105.73 681.04 1101.50 672.97 1099.00 664.31 C 1097.41 662.71 1098.36 658.27 1095.43 657.71 C 1091.28 656.87 1087.17 658.56 1083.16 659.43 C 1080.07 655.68 1077.27 651.50 1072.95 649.06 C 1067.92 645.78 1061.15 647.45 1056.37 643.62 C 1050.94 640.00 1047.77 634.15 1043.80 629.17 C 1038.81 622.24 1031.87 617.00 1027.34 609.72 C 1024.20 605.36 1022.15 600.19 1018.06 596.56 C 1018.74 590.68 1016.88 584.94 1016.73 579.10 C 1017.11 572.33 1019.32 565.83 1021.83 559.60 C 1023.92 555.15 1028.69 552.00 1029.08 546.81 C 1029.39 542.16 1030.18 537.58 1031.04 533.01 C 1027.78 532.32 1024.37 531.57 1021.92 529.14 C 1017.21 524.90 1012.11 521.08 1006.32 518.44 C 1006.23 517.83 1006.05 516.61 1005.96 516.00 C 1012.42 513.57 1019.20 512.07 1025.56 509.35 C 1030.19 506.04 1034.38 502.06 1039.47 499.40 C 1045.88 496.35 1045.62 487.94 1050.23 483.33 C 1053.05 480.63 1055.52 477.58 1056.93 473.89 C 1049.58 468.86 1043.92 461.81 1036.44 456.95 C 1040.39 454.37 1044.42 451.92 1048.16 449.03 C 1052.17 445.28 1054.95 440.08 1059.92 437.39 C 1062.32 436.15 1063.98 433.99 1065.08 431.57 C 1066.98 428.01 1068.61 424.22 1071.22 421.11 Z" />
</g>
<g target="21" id="#bf3fbffe">
<path fill="#bf3fbf" opacity="0.00" d=" M 709.27 438.24 C 719.01 433.27 728.68 427.05 739.88 426.25 C 742.81 429.89 742.24 436.32 747.17 438.16 C 752.04 440.24 757.54 440.28 762.36 442.50 C 764.42 445.93 763.74 450.54 766.20 453.74 C 771.30 457.93 777.76 459.95 783.55 462.98 C 783.42 463.98 783.30 464.98 783.20 465.99 C 776.06 468.75 769.42 472.59 762.13 474.93 C 763.94 476.68 765.75 478.44 767.53 480.25 C 759.68 485.50 753.00 492.31 744.93 497.26 C 742.71 498.99 743.60 502.26 743.15 504.70 C 747.29 502.83 750.89 500.08 754.39 497.23 C 756.62 500.91 757.74 505.13 759.15 509.16 C 756.83 510.27 754.46 511.23 752.17 512.39 C 752.12 514.56 752.15 516.75 752.25 518.96 C 755.10 518.80 757.97 518.92 760.81 519.34 C 755.30 521.89 749.16 521.81 743.24 521.49 C 743.71 523.82 744.12 526.17 744.70 528.48 C 742.71 528.20 740.73 527.91 738.73 527.73 C 738.62 529.40 738.50 531.07 738.39 532.75 C 733.47 531.86 728.92 529.75 725.44 526.10 C 723.14 529.20 721.46 532.75 721.97 536.71 C 720.06 537.47 718.16 538.23 716.25 538.97 C 711.85 541.26 706.88 541.37 702.15 540.03 C 699.74 541.16 697.37 542.33 694.99 543.49 C 688.88 540.20 681.73 538.96 676.51 534.07 C 675.64 528.65 674.47 523.04 670.48 518.98 C 672.55 516.08 673.83 512.71 672.67 509.16 C 669.79 511.69 667.16 514.48 664.53 517.27 C 664.23 515.62 663.95 513.99 663.66 512.35 C 663.51 509.24 661.17 504.90 664.41 502.65 C 671.98 497.58 677.29 490.02 684.92 485.01 C 678.22 480.58 671.03 476.74 665.59 470.69 C 668.98 466.42 672.80 462.46 675.98 458.03 C 677.87 453.94 679.32 449.63 680.62 445.32 C 686.54 443.08 692.13 439.76 698.39 438.48 C 701.99 437.72 705.79 439.84 709.27 438.24 Z" />
</g>
<g target="13" id="#1f7f7fff">
<path fill="#1f7f7f" opacity="0.00" d=" M 632.76 509.69 C 638.61 506.64 644.20 502.55 650.97 501.88 C 649.06 506.96 646.46 511.77 645.11 517.06 C 651.49 516.43 657.72 514.77 663.66 512.35 C 663.95 513.99 664.23 515.62 664.53 517.27 C 667.16 514.48 669.79 511.69 672.67 509.16 C 673.83 512.71 672.55 516.08 670.48 518.98 C 674.47 523.04 675.64 528.65 676.51 534.07 C 677.09 537.36 677.93 540.60 678.85 543.82 C 676.87 545.15 674.86 546.42 672.83 547.66 L 678.87 548.79 C 677.16 550.94 674.99 552.62 673.01 554.50 C 675.68 554.22 678.27 553.45 680.93 553.04 C 679.02 555.12 677.35 557.40 675.60 559.61 C 678.13 560.33 680.63 561.15 683.13 562.02 C 677.52 567.22 670.83 571.18 663.43 573.17 C 657.04 575.48 649.88 575.55 643.88 578.92 C 639.70 581.76 637.07 586.23 633.78 589.97 C 625.54 595.60 615.37 592.27 606.24 594.51 C 605.01 592.66 603.82 590.79 602.63 588.93 C 595.43 589.37 587.97 586.66 581.11 589.85 C 577.80 591.49 572.68 592.06 571.57 596.14 C 572.07 600.17 574.58 603.56 576.26 607.17 C 566.87 607.52 557.46 606.89 548.16 605.62 C 545.17 605.05 542.68 602.92 540.56 600.91 C 539.68 597.44 539.92 593.72 538.53 590.41 C 534.66 587.45 530.60 584.67 526.08 582.83 C 522.62 581.40 518.70 582.30 515.25 580.82 C 512.38 580.05 508.93 577.75 506.25 580.21 C 502.96 583.11 504.02 588.02 502.69 591.82 C 492.48 593.39 481.93 590.20 471.86 593.23 C 471.49 591.75 471.12 590.26 470.74 588.80 C 469.05 591.38 467.55 594.08 465.87 596.67 C 463.85 594.55 461.85 592.42 459.85 590.28 C 463.16 587.12 466.72 584.23 470.09 581.14 C 468.19 577.64 465.22 574.09 465.97 569.85 C 466.59 566.42 465.39 563.14 464.28 559.96 C 473.23 559.90 480.07 554.01 487.92 550.76 C 486.90 549.05 485.88 547.34 484.85 545.65 C 487.14 543.53 489.98 542.25 492.97 541.47 C 491.44 534.46 487.42 528.38 484.29 522.03 C 483.78 520.91 483.27 519.79 482.78 518.67 C 484.62 518.26 486.46 517.73 488.36 517.65 C 491.17 517.42 493.11 519.93 495.32 521.28 C 497.24 520.75 499.15 520.09 501.14 519.79 C 503.71 520.36 505.42 523.78 508.37 522.97 C 511.73 522.22 515.20 521.89 518.59 522.65 C 521.37 520.07 523.41 516.47 527.03 514.96 C 532.53 512.21 538.85 514.03 544.67 514.40 C 543.96 516.69 543.32 518.99 542.67 521.31 C 547.86 522.78 553.16 523.79 558.40 525.12 C 558.35 526.62 558.31 528.12 558.28 529.63 C 560.38 529.57 562.48 529.53 564.58 529.41 C 564.44 531.63 563.94 533.91 564.34 536.13 C 567.38 539.47 572.06 540.60 575.66 543.26 C 579.25 546.24 584.06 544.40 588.26 544.64 C 586.87 546.38 585.46 548.11 584.03 549.81 C 587.58 548.90 591.30 547.36 595.00 548.41 C 600.24 549.94 605.71 550.33 611.14 550.65 C 609.41 547.85 607.64 545.09 605.73 542.42 C 609.00 537.50 610.95 531.81 614.44 527.03 C 615.04 528.34 615.63 529.66 616.21 531.00 C 619.90 526.26 623.73 521.30 630.30 520.72 C 631.07 517.02 631.96 513.36 632.76 509.69 Z" />
</g>
<g target="74" id="#3f3fbfff">
<path fill="#3f3fbf" opacity="0.00" d=" M 801.22 535.02 C 806.03 533.41 810.50 530.38 815.72 530.28 C 821.76 536.27 825.26 544.36 828.50 552.14 C 836.13 555.10 843.73 558.34 852.08 558.36 C 853.68 562.16 855.69 565.80 856.87 569.78 C 858.05 577.06 855.55 584.31 852.49 590.80 C 849.05 595.29 843.54 597.39 838.93 600.40 C 840.45 602.59 841.97 604.79 843.39 607.07 C 840.35 607.22 837.38 606.59 834.51 605.66 C 830.81 604.33 827.35 606.99 823.87 607.85 C 820.77 609.27 817.79 607.06 814.96 606.05 C 810.23 603.65 804.83 604.99 799.78 604.80 C 800.59 607.78 801.36 610.77 802.17 613.75 C 799.98 612.63 797.76 611.57 795.55 610.53 C 791.65 617.16 791.18 625.15 791.65 632.66 C 792.04 637.02 792.67 641.39 793.77 645.65 C 791.30 644.02 788.02 642.74 787.80 639.17 C 784.29 632.41 784.31 624.26 780.15 617.87 C 775.77 614.11 769.92 612.64 764.62 610.66 C 763.68 611.55 762.75 612.45 761.82 613.35 C 765.07 615.34 768.43 617.24 771.03 620.09 C 766.57 620.23 762.29 618.95 758.14 617.52 C 756.78 618.36 755.45 619.24 754.14 620.15 C 755.72 624.10 759.41 629.62 755.32 633.17 C 752.41 633.99 749.28 632.42 746.29 632.21 C 741.28 629.85 737.14 634.05 734.85 637.91 C 731.02 642.75 738.85 646.08 740.63 650.29 C 742.06 656.01 741.17 662.01 739.71 667.62 C 742.21 667.21 744.72 666.83 747.23 666.42 C 747.48 667.66 747.75 668.91 748.01 670.17 C 751.30 671.10 754.73 671.75 757.97 672.91 C 757.00 678.47 754.44 684.40 748.59 686.16 C 743.18 683.84 737.55 685.92 732.28 687.45 C 729.45 688.73 727.38 691.19 724.73 692.74 C 722.27 691.95 720.23 690.28 718.13 688.86 C 713.93 692.27 712.77 697.51 714.25 702.78 C 710.47 701.38 706.91 699.22 702.91 698.59 C 698.93 699.05 695.71 702.00 691.89 702.86 C 686.47 701.96 681.33 699.32 675.69 699.93 C 674.37 698.38 673.12 696.78 671.87 695.20 C 667.93 695.89 663.91 696.63 659.91 696.00 C 662.89 691.03 668.06 688.19 671.97 684.14 C 672.97 680.46 671.19 676.48 671.64 672.67 C 672.54 665.93 676.67 659.82 676.11 652.87 C 675.46 647.86 679.86 643.11 676.70 638.33 C 674.44 634.91 671.67 631.62 668.19 629.42 C 665.15 629.04 662.05 629.46 659.01 628.99 C 658.24 624.67 659.00 620.26 658.64 615.93 C 656.77 610.56 651.79 606.62 650.90 600.86 C 650.19 596.92 649.89 592.03 645.44 590.43 C 641.99 587.60 637.58 589.06 633.78 589.97 C 637.07 586.23 639.70 581.76 643.88 578.92 C 649.88 575.55 657.04 575.48 663.43 573.17 C 670.83 571.18 677.52 567.22 683.13 562.02 C 680.63 561.15 678.13 560.33 675.60 559.61 C 677.35 557.40 679.02 555.12 680.93 553.04 C 678.27 553.45 675.68 554.22 673.01 554.50 C 674.99 552.62 677.16 550.94 678.87 548.79 L 672.83 547.66 C 674.86 546.42 676.87 545.15 678.85 543.82 C 677.93 540.60 677.09 537.36 676.51 534.07 C 681.73 538.96 688.88 540.20 694.99 543.49 C 697.37 542.33 699.74 541.16 702.15 540.03 C 706.88 541.37 711.85 541.26 716.25 538.97 C 718.06 543.03 718.37 547.49 718.03 551.87 C 721.32 551.18 724.64 550.60 728.02 550.54 C 730.94 544.88 735.28 540.02 740.24 536.07 C 741.33 539.98 742.22 543.97 743.75 547.74 C 744.94 545.55 745.92 543.23 747.06 541.03 C 750.35 539.91 753.53 538.38 756.95 537.72 C 760.19 537.66 763.10 539.40 765.52 541.41 C 768.61 543.91 772.49 545.86 774.24 549.64 C 776.13 553.94 776.72 558.63 777.95 563.15 C 781.50 563.07 785.01 563.22 788.59 563.32 C 789.90 559.06 792.22 555.24 794.52 551.45 C 796.12 548.91 795.76 545.70 797.10 543.07 C 798.46 540.38 799.95 537.75 801.22 535.02 Z" />
</g>
<g target="64" id="#bfbf3fff">
<path fill="#bfbf3f" opacity="0.00" d=" M 907.41 548.76 C 909.21 549.48 911.02 550.18 912.84 550.90 C 914.45 549.87 916.07 548.85 917.71 547.84 C 917.02 550.55 916.41 553.28 915.89 556.03 C 918.77 554.64 921.68 553.27 924.31 551.41 C 929.91 556.09 936.74 558.85 943.26 561.96 C 946.24 565.70 947.98 570.35 950.88 574.22 C 953.05 572.59 955.21 570.98 957.47 569.47 C 961.63 565.75 967.46 567.06 972.53 566.52 C 973.19 568.14 973.87 569.76 974.56 571.38 C 968.31 575.21 964.98 581.79 962.83 588.55 C 965.01 590.44 967.16 592.38 969.30 594.33 C 967.95 601.70 965.28 608.82 961.03 615.03 C 956.89 620.17 956.45 627.16 952.28 632.27 C 950.85 634.61 948.21 637.38 949.66 640.29 C 951.42 644.04 955.84 644.72 959.28 646.11 C 957.20 647.06 955.11 647.99 953.04 648.95 C 951.86 653.58 949.45 657.99 949.02 662.76 C 950.28 667.66 949.77 674.62 944.31 676.69 C 938.03 679.21 933.45 684.31 927.90 687.98 C 927.77 691.45 928.37 695.23 926.48 698.36 C 924.64 702.20 919.50 701.75 916.89 704.74 C 915.06 706.87 913.69 709.34 912.25 711.74 C 914.05 714.67 915.72 717.67 917.42 720.66 C 913.49 723.84 909.68 727.20 905.83 730.48 C 907.09 736.66 910.94 744.01 907.02 750.00 C 898.10 760.96 884.78 766.46 873.48 774.43 C 870.76 769.74 868.87 764.56 865.64 760.21 C 859.07 756.49 851.48 755.10 844.24 753.14 C 840.32 752.13 839.69 747.62 838.46 744.40 C 829.81 740.97 820.39 738.67 812.81 733.14 C 811.07 728.89 811.22 724.11 809.49 719.83 C 807.56 721.81 805.67 723.83 803.92 725.97 C 801.81 724.29 799.13 722.83 798.47 720.01 C 797.61 718.13 797.71 715.35 795.53 714.46 C 788.70 711.53 781.09 714.06 774.05 712.88 C 766.68 709.15 763.33 700.60 755.69 697.22 C 750.84 693.22 745.26 698.09 740.64 699.69 C 742.01 694.51 745.26 690.23 748.59 686.16 C 754.44 684.40 757.00 678.47 757.97 672.91 C 754.73 671.75 751.30 671.10 748.01 670.17 C 747.75 668.91 747.48 667.66 747.23 666.42 C 744.72 666.83 742.21 667.21 739.71 667.62 C 741.17 662.01 742.06 656.01 740.63 650.29 C 738.85 646.08 731.02 642.75 734.85 637.91 C 737.14 634.05 741.28 629.85 746.29 632.21 C 749.28 632.42 752.41 633.99 755.32 633.17 C 759.41 629.62 755.72 624.10 754.14 620.15 C 755.45 619.24 756.78 618.36 758.14 617.52 C 762.29 618.95 766.57 620.23 771.03 620.09 C 768.43 617.24 765.07 615.34 761.82 613.35 C 762.75 612.45 763.68 611.55 764.62 610.66 C 769.92 612.64 775.77 614.11 780.15 617.87 C 784.31 624.26 784.29 632.41 787.80 639.17 C 788.02 642.74 791.30 644.02 793.77 645.65 L 794.66 646.21 C 793.68 641.65 792.60 637.19 791.65 632.66 C 791.18 625.15 791.65 617.16 795.55 610.53 C 797.76 611.57 799.98 612.63 802.17 613.75 C 801.36 610.77 800.59 607.78 799.78 604.80 C 804.83 604.99 810.23 603.65 814.96 606.05 C 817.79 607.06 820.77 609.27 823.87 607.85 C 827.35 606.99 830.81 604.33 834.51 605.66 C 837.38 606.59 840.35 607.22 843.39 607.07 C 841.97 604.79 840.45 602.59 838.93 600.40 C 843.54 597.39 849.05 595.29 852.49 590.80 C 855.55 584.31 858.05 577.06 856.87 569.78 C 855.69 565.80 853.68 562.16 852.08 558.36 C 856.70 559.11 859.95 562.67 863.18 565.73 C 864.58 564.39 865.98 563.05 867.41 561.73 C 869.71 565.21 871.64 569.11 871.15 573.42 C 875.97 571.77 879.11 567.65 883.05 564.69 C 887.55 566.42 890.83 570.35 894.96 572.79 C 896.39 568.57 896.33 563.98 897.94 559.83 C 900.86 555.95 904.35 552.53 907.41 548.76 Z" />
</g>
<g target="58" id="#3fbf3fff">
<path fill="#3fbf3f" opacity="0.00" d=" M 962.83 588.55 C 964.98 581.79 968.31 575.21 974.56 571.38 C 979.67 573.01 985.07 573.40 990.19 575.02 C 995.36 576.77 1000.97 576.58 1006.10 578.51 C 1002.52 580.67 999.03 582.87 995.48 585.04 C 997.71 587.28 999.74 589.72 1001.38 592.43 C 1004.16 592.08 1006.95 591.37 1009.77 591.64 C 1012.88 592.55 1015.34 594.84 1018.06 596.56 C 1022.15 600.19 1024.20 605.36 1027.34 609.72 C 1031.87 617.00 1038.81 622.24 1043.80 629.17 C 1047.77 634.15 1050.94 640.00 1056.37 643.62 C 1061.15 647.45 1067.92 645.78 1072.95 649.06 C 1077.27 651.50 1080.07 655.68 1083.16 659.43 C 1087.17 658.56 1091.28 656.87 1095.43 657.71 C 1098.36 658.27 1097.41 662.71 1099.00 664.31 C 1101.50 672.97 1105.73 681.04 1110.73 688.50 C 1113.65 692.27 1118.69 688.96 1122.40 688.50 C 1123.64 692.13 1124.85 695.77 1126.03 699.44 C 1123.52 699.70 1121.01 699.92 1118.50 700.07 C 1118.73 701.56 1118.81 703.11 1119.34 704.54 C 1122.58 706.44 1126.42 707.09 1129.59 709.17 C 1132.18 713.63 1132.92 719.00 1135.74 723.33 C 1140.74 726.38 1149.15 731.06 1154.01 725.05 C 1158.68 718.68 1162.03 711.37 1164.76 703.98 C 1168.39 706.40 1172.03 708.74 1175.98 710.69 C 1178.29 711.10 1180.61 710.28 1182.91 710.04 C 1181.97 712.25 1181.12 714.49 1180.35 716.77 C 1185.55 721.45 1187.34 728.47 1185.87 735.25 C 1182.66 737.85 1179.55 740.52 1176.47 743.25 C 1178.42 745.44 1180.51 747.49 1182.68 749.47 C 1184.10 746.89 1185.59 744.35 1186.89 741.70 C 1195.42 746.06 1201.76 753.69 1205.74 762.30 C 1207.28 765.33 1204.36 768.16 1203.18 770.77 C 1208.58 778.19 1214.96 785.64 1214.82 795.47 C 1216.08 793.97 1218.11 793.06 1219.59 791.74 C 1219.20 787.62 1218.26 783.63 1217.37 779.61 C 1226.24 781.30 1232.36 788.29 1237.24 795.36 C 1242.94 792.62 1248.43 788.44 1248.13 781.26 C 1251.09 782.35 1253.96 783.32 1256.99 784.32 C 1258.90 779.82 1260.54 775.20 1261.85 770.48 C 1266.17 771.14 1270.55 771.41 1274.88 772.03 C 1281.22 772.82 1285.96 777.66 1291.70 780.06 C 1297.06 779.98 1301.76 777.18 1306.80 775.71 C 1309.38 774.69 1313.07 774.13 1313.65 770.85 C 1315.11 764.62 1315.75 758.19 1316.00 751.81 C 1316.36 747.33 1311.69 744.58 1311.24 740.32 C 1311.34 737.89 1311.70 735.48 1312.79 733.34 C 1315.27 732.09 1318.15 731.97 1320.79 731.15 C 1323.21 726.33 1318.43 721.90 1317.15 717.42 C 1320.38 717.73 1324.51 716.20 1327.00 718.96 C 1330.03 721.71 1332.50 725.15 1336.06 727.31 C 1339.08 724.41 1340.35 720.26 1342.76 716.91 C 1345.54 715.57 1348.49 714.42 1351.39 713.32 C 1355.80 717.25 1361.55 713.92 1366.68 714.97 C 1369.99 715.09 1373.00 716.55 1375.75 718.33 C 1380.61 718.99 1388.10 714.25 1391.09 719.82 C 1391.96 723.60 1394.62 728.31 1392.17 732.13 C 1389.28 737.36 1386.12 742.54 1384.67 748.41 C 1387.00 749.46 1389.33 750.56 1391.62 751.75 C 1391.24 754.45 1389.77 756.63 1389.56 759.47 C 1391.46 760.38 1393.44 761.13 1395.49 761.72 C 1403.51 761.02 1409.23 768.59 1417.30 768.64 C 1415.57 771.97 1413.69 775.21 1411.87 778.48 C 1420.48 784.54 1430.80 783.72 1440.68 783.20 C 1444.49 787.73 1446.51 795.52 1454.01 794.86 C 1461.48 795.49 1469.45 801.34 1476.33 796.30 C 1480.47 800.85 1484.21 805.92 1489.53 809.20 C 1482.80 819.64 1487.10 833.08 1486.58 844.68 C 1487.17 848.98 1483.40 852.04 1481.47 855.44 C 1475.78 862.48 1470.54 869.87 1465.10 877.10 C 1457.82 888.02 1444.19 891.38 1432.67 895.68 C 1421.45 897.92 1408.77 900.50 1398.21 894.83 C 1394.22 892.78 1393.42 887.82 1390.27 885.11 C 1384.89 892.50 1380.86 900.90 1374.80 907.79 C 1370.34 910.93 1364.87 912.30 1359.84 914.26 C 1359.58 911.49 1359.41 908.72 1359.48 905.95 C 1354.35 901.79 1347.52 904.26 1341.68 902.50 C 1335.59 900.77 1329.19 900.68 1322.98 899.74 C 1318.98 897.67 1316.83 893.31 1314.10 890.00 C 1311.78 889.10 1309.13 889.80 1306.72 889.78 C 1303.99 885.16 1303.50 879.95 1303.00 874.78 C 1301.70 868.67 1293.93 870.46 1289.50 869.45 C 1288.59 867.62 1287.74 865.77 1286.86 863.95 C 1285.74 864.03 1284.63 864.11 1283.54 864.19 C 1281.80 867.58 1279.09 870.31 1275.48 871.64 C 1275.21 870.12 1274.96 868.61 1274.72 867.11 C 1271.05 869.28 1266.86 869.79 1262.88 868.10 C 1260.45 872.70 1258.45 877.50 1256.07 882.13 C 1250.51 882.93 1245.54 885.76 1240.13 887.10 C 1234.55 882.30 1230.00 876.47 1224.98 871.11 C 1218.54 874.46 1210.97 874.19 1204.12 872.34 C 1203.33 874.71 1202.49 877.06 1201.74 879.44 C 1197.04 879.58 1192.69 878.03 1188.98 875.18 C 1186.53 878.68 1183.45 881.65 1180.86 885.02 C 1178.34 885.37 1175.74 885.51 1173.36 886.44 C 1170.57 890.32 1170.73 895.79 1167.46 899.41 C 1161.89 905.81 1154.23 909.91 1146.75 913.64 C 1142.65 916.19 1139.31 912.74 1136.04 910.89 C 1132.58 908.29 1127.79 909.12 1124.21 906.79 C 1119.42 903.30 1114.97 899.37 1110.32 895.71 C 1110.44 892.78 1110.76 890.01 1110.93 887.12 C 1110.11 886.89 1109.31 886.66 1108.52 886.45 C 1105.68 888.45 1102.51 889.86 1099.36 891.27 C 1097.61 890.47 1095.90 889.59 1094.24 888.68 C 1092.19 897.78 1094.10 909.32 1085.91 915.86 C 1083.69 918.66 1078.62 920.36 1076.76 916.24 C 1073.24 908.67 1076.05 900.10 1077.07 892.24 C 1073.17 891.22 1068.19 891.96 1065.66 888.30 C 1060.91 883.81 1060.17 877.21 1057.15 871.77 C 1050.44 864.49 1039.24 865.32 1031.69 859.31 C 1027.99 855.35 1029.81 848.26 1024.86 845.20 C 1021.76 843.09 1019.03 840.34 1015.55 838.88 C 1012.28 838.44 1008.96 838.34 1005.67 838.10 C 1001.64 838.64 997.84 840.70 993.69 840.48 C 989.69 840.51 986.06 838.52 982.19 837.91 C 978.19 838.16 974.35 839.40 970.41 840.03 C 968.32 835.56 965.54 831.45 963.44 827.01 C 962.42 823.47 961.32 820.07 959.93 816.69 C 955.94 820.18 950.76 821.59 945.84 823.23 C 940.61 824.76 934.05 821.06 930.13 826.13 C 927.51 828.30 928.73 831.84 928.61 834.74 C 926.25 835.91 923.88 837.09 921.35 837.80 C 919.88 836.31 918.66 834.61 917.32 833.02 C 914.20 838.50 907.88 838.36 902.22 838.14 C 901.00 833.30 899.78 828.45 898.65 823.59 C 892.02 822.50 882.78 822.66 879.11 815.89 C 877.01 808.40 876.32 800.59 874.79 793.00 C 873.58 786.90 872.81 780.63 873.48 774.43 C 884.78 766.46 898.10 760.96 907.02 750.00 C 910.94 744.01 907.09 736.66 905.83 730.48 C 909.68 727.20 913.49 723.84 917.42 720.66 C 915.72 717.67 914.05 714.67 912.25 711.74 C 913.69 709.34 915.06 706.87 916.89 704.74 C 919.50 701.75 924.64 702.20 926.48 698.36 C 928.37 695.23 927.77 691.45 927.90 687.98 C 933.45 684.31 938.03 679.21 944.31 676.69 C 949.77 674.62 950.28 667.66 949.02 662.76 C 949.45 657.99 951.86 653.58 953.04 648.95 C 955.11 647.99 957.20 647.06 959.28 646.11 C 955.84 644.72 951.42 644.04 949.66 640.29 C 948.21 637.38 950.85 634.61 952.28 632.27 C 956.45 627.16 956.89 620.17 961.03 615.03 C 965.28 608.82 967.95 601.70 969.30 594.33 C 967.16 592.38 965.01 590.44 962.83 588.55 Z" />
</g>
<g target="60" id="#9f7f7fff">
<path fill="#9f7f7f" opacity="0.00" d=" M 506.25 580.21 C 508.93 577.75 512.38 580.05 515.25 580.82 C 518.70 582.30 522.62 581.40 526.08 582.83 C 530.60 584.67 534.66 587.45 538.53 590.41 C 539.92 593.72 539.68 597.44 540.56 600.91 C 542.68 602.92 545.17 605.05 548.16 605.62 C 557.46 606.89 566.87 607.52 576.26 607.17 C 574.58 603.56 572.07 600.17 571.57 596.14 C 572.68 592.06 577.80 591.49 581.11 589.85 C 587.97 586.66 595.43 589.37 602.63 588.93 C 603.82 590.79 605.01 592.66 606.24 594.51 C 615.37 592.27 625.54 595.60 633.78 589.97 C 637.58 589.06 641.99 587.60 645.44 590.43 C 649.89 592.03 650.19 596.92 650.90 600.86 C 651.79 606.62 656.77 610.56 658.64 615.93 C 659.00 620.26 658.24 624.67 659.01 628.99 C 662.05 629.46 665.15 629.04 668.19 629.42 C 671.67 631.62 674.44 634.91 676.70 638.33 C 679.86 643.11 675.46 647.86 676.11 652.87 C 676.67 659.82 672.54 665.93 671.64 672.67 C 671.19 676.48 672.97 680.46 671.97 684.14 C 668.06 688.19 662.89 691.03 659.91 696.00 C 657.47 693.67 655.76 690.73 653.57 688.20 C 647.39 689.62 640.61 689.53 635.17 693.18 C 629.99 696.26 623.73 697.33 618.96 701.09 C 616.76 704.33 617.07 708.57 616.12 712.27 C 610.76 708.88 605.67 705.10 600.42 701.56 C 596.09 703.98 592.35 708.55 587.07 708.37 C 581.83 708.33 576.55 707.55 571.33 708.23 C 568.80 709.59 566.62 711.48 564.14 712.92 C 561.28 709.76 560.31 705.16 556.98 702.44 C 552.56 701.21 547.91 700.49 544.16 697.60 C 540.52 704.43 533.49 708.05 527.53 712.52 C 525.09 714.50 522.40 711.97 520.33 710.71 C 515.22 707.12 508.91 705.84 503.80 702.21 C 496.63 697.14 488.36 703.85 480.89 704.08 C 477.28 702.60 475.47 698.80 472.95 696.04 C 470.68 697.51 468.41 698.97 466.12 700.40 C 467.35 696.81 467.97 692.67 470.97 690.02 C 474.11 687.29 477.74 685.19 481.11 682.75 C 480.03 678.83 478.97 674.78 476.49 671.49 C 469.45 662.04 461.73 652.90 456.98 642.01 C 455.01 637.47 452.26 633.36 449.83 629.08 C 446.22 626.11 449.19 621.49 446.94 618.09 C 445.43 614.89 442.86 611.58 443.65 607.85 C 445.71 601.95 448.85 596.48 450.66 590.49 C 453.70 590.39 456.79 590.37 459.85 590.28 C 461.85 592.42 463.85 594.55 465.87 596.67 C 467.55 594.08 469.05 591.38 470.74 588.80 C 471.12 590.26 471.49 591.75 471.86 593.23 C 481.93 590.20 492.48 593.39 502.69 591.82 C 504.02 588.02 502.96 583.11 506.25 580.21 Z" />
</g>
<g target="65" id="#5f0000ff">
<path fill="#5f0000" opacity="0.00" d=" M 732.28 687.45 C 737.55 685.92 743.18 683.84 748.59 686.16 C 745.26 690.23 742.01 694.51 740.64 699.69 C 745.26 698.09 750.84 693.22 755.69 697.22 C 763.33 700.60 766.68 709.15 774.05 712.88 C 781.09 714.06 788.70 711.53 795.53 714.46 C 797.71 715.35 797.61 718.13 798.47 720.01 C 799.13 722.83 801.81 724.29 803.92 725.97 C 805.67 723.83 807.56 721.81 809.49 719.83 C 811.22 724.11 811.07 728.89 812.81 733.14 C 820.39 738.67 829.81 740.97 838.46 744.40 C 839.69 747.62 840.32 752.13 844.24 753.14 C 851.48 755.10 859.07 756.49 865.64 760.21 C 868.87 764.56 870.76 769.74 873.48 774.43 C 872.81 780.63 873.58 786.90 874.79 793.00 C 876.32 800.59 877.01 808.40 879.11 815.89 C 877.43 815.58 875.77 815.29 874.12 815.01 C 874.34 819.01 874.89 823.00 875.12 827.02 C 873.23 827.71 871.34 828.32 869.46 828.99 C 868.71 827.49 867.95 825.99 867.23 824.51 C 859.09 826.00 859.55 835.58 853.79 839.82 C 850.63 842.25 850.44 846.90 846.99 849.04 C 841.94 852.84 835.32 853.36 829.65 855.74 C 825.37 857.89 821.90 861.31 817.76 863.69 C 811.93 866.80 805.14 865.29 798.88 864.78 C 795.69 864.63 794.72 868.75 793.66 870.95 C 791.24 875.35 794.28 880.20 794.76 884.71 C 785.44 886.86 777.32 892.12 769.84 897.88 C 766.47 900.11 763.59 903.38 759.59 904.50 C 755.16 905.59 752.18 902.04 748.94 899.90 C 748.59 900.17 747.90 900.69 747.56 900.96 C 749.24 911.16 748.44 921.54 749.45 931.81 C 751.36 939.53 754.73 946.84 756.41 954.65 C 753.09 957.55 750.27 961.07 746.50 963.42 C 740.59 966.53 734.26 968.71 727.99 970.94 C 723.90 967.78 718.53 965.76 716.14 960.92 C 710.82 950.96 705.14 941.09 701.57 930.35 C 699.27 924.06 695.46 917.88 689.64 914.36 C 686.64 913.73 683.91 916.19 681.22 917.28 C 677.22 910.45 673.64 903.38 670.01 896.36 C 667.20 896.42 664.43 896.57 661.65 896.68 C 659.44 893.45 657.11 890.28 654.91 887.08 C 653.24 887.97 651.60 888.91 649.97 889.86 C 643.63 882.45 639.68 872.27 630.10 868.28 C 625.43 871.37 623.76 877.45 618.85 880.45 C 616.38 879.68 613.91 878.55 611.29 878.58 C 607.78 879.04 604.68 880.97 601.24 881.68 C 595.09 876.82 589.90 868.96 591.87 860.81 C 589.41 859.82 587.00 858.46 584.32 858.31 C 581.54 858.54 579.46 860.67 577.17 862.02 C 577.66 866.24 578.89 870.61 578.04 874.88 C 572.56 874.04 567.31 871.92 561.75 871.59 C 558.44 871.93 555.39 873.44 552.22 874.35 C 548.13 867.93 539.79 861.93 542.47 853.22 C 545.54 849.71 550.62 847.95 551.96 843.00 C 555.40 837.39 552.14 831.31 549.48 826.21 C 546.56 823.59 543.37 821.00 539.68 819.57 C 535.38 818.70 531.05 820.15 526.91 821.22 C 525.09 819.53 523.34 817.83 521.57 816.14 C 518.04 816.35 514.37 815.86 510.92 816.86 C 506.57 818.74 502.88 822.89 497.85 822.90 C 495.03 823.04 493.59 820.17 491.63 818.65 C 488.36 818.84 485.04 818.44 481.82 819.07 C 476.11 820.98 470.87 824.03 465.22 826.08 C 463.24 826.84 461.30 825.31 459.87 824.13 C 454.76 818.88 450.05 813.29 445.08 807.93 C 440.44 803.27 435.33 798.87 431.99 793.13 C 430.43 788.54 434.05 782.92 429.81 779.25 C 426.09 773.53 420.19 768.97 418.56 762.08 C 417.82 753.43 426.71 750.12 431.61 744.85 C 439.45 731.04 448.96 718.24 458.87 705.86 C 460.89 703.56 463.61 702.08 466.12 700.40 C 468.41 698.97 470.68 697.51 472.95 696.04 C 475.47 698.80 477.28 702.60 480.89 704.08 C 488.36 703.85 496.63 697.14 503.80 702.21 C 508.91 705.84 515.22 707.12 520.33 710.71 C 522.40 711.97 525.09 714.50 527.53 712.52 C 533.49 708.05 540.52 704.43 544.16 697.60 C 547.91 700.49 552.56 701.21 556.98 702.44 C 560.31 705.16 561.28 709.76 564.14 712.92 C 566.62 711.48 568.80 709.59 571.33 708.23 C 576.55 707.55 581.83 708.33 587.07 708.37 C 592.35 708.55 596.09 703.98 600.42 701.56 C 605.67 705.10 610.76 708.88 616.12 712.27 C 617.07 708.57 616.76 704.33 618.96 701.09 C 623.73 697.33 629.99 696.26 635.17 693.18 C 640.61 689.53 647.39 689.62 653.57 688.20 C 655.76 690.73 657.47 693.67 659.91 696.00 C 663.91 696.63 667.93 695.89 671.87 695.20 C 673.12 696.78 674.37 698.38 675.69 699.93 C 681.33 699.32 686.47 701.96 691.89 702.86 C 695.71 702.00 698.93 699.05 702.91 698.59 C 706.91 699.22 710.47 701.38 714.25 702.78 C 712.77 697.51 713.93 692.27 718.13 688.86 C 720.23 690.28 722.27 691.95 724.73 692.74 C 727.38 691.19 729.45 688.73 732.28 687.45 Z" />
</g>
</svg>
