<?xml version="1.0" encoding="UTF-8" ?>
<!DOCTYPE svg PUBLIC "-//W3C//DTD SVG 1.1//EN" "http://www.w3.org/Graphics/SVG/1.1/DTD/svg11.dtd">
<svg width="1920pt" height="1080pt" viewBox="0 0 1920 1080" version="1.1" xmlns="http://www.w3.org/2000/svg">
<g target="83">
<path fill="#000000" fill-opacity="0" d=" M 986.83 177.53 C 991.69 178.45 997.62 177.01 1001.88 180.23 C 1003.83 191.06 1002.44 202.13 1001.95 213.03 C 1004.18 211.69 1006.41 210.35 1008.67 209.03 C 1009.94 202.81 1015.04 196.26 1022.06 196.90 C 1025.44 196.41 1027.51 199.54 1030.08 201.12 C 1034.05 203.46 1037.77 206.64 1042.45 207.43 C 1048.84 208.36 1055.36 208.74 1061.51 210.93 C 1061.37 216.58 1060.05 222.07 1058.34 227.42 C 1063.26 229.29 1069.08 229.23 1073.34 232.60 C 1076.66 236.73 1079.50 241.38 1081.31 246.38 C 1082.08 250.80 1080.49 255.19 1079.99 259.56 C 1077.41 259.53 1074.69 259.28 1072.21 259.51 C 1069.55 260.74 1067.52 263.00 1065.24 264.76 C 1069.97 267.15 1072.62 273.14 1078.51 273.15 C 1085.84 272.74 1093.00 276.20 1100.30 274.78 C 1103.01 274.42 1103.72 271.31 1104.92 269.32 C 1106.75 269.96 1108.61 270.56 1110.47 271.16 C 1110.37 272.29 1110.28 273.42 1110.22 274.56 C 1113.69 275.69 1118.10 275.57 1120.29 278.91 C 1123.13 282.79 1126.75 286.01 1131.13 288.04 C 1131.61 291.38 1132.18 294.71 1132.52 298.07 C 1133.10 303.83 1131.17 309.43 1130.69 315.13 C 1130.52 317.08 1132.95 317.65 1134.13 318.78 C 1138.74 321.44 1136.37 329.32 1141.57 331.43 C 1148.29 334.60 1155.93 336.33 1161.52 341.54 C 1163.93 343.77 1163.29 347.42 1163.57 350.38 C 1166.31 351.91 1169.17 353.38 1171.41 355.64 C 1174.19 359.67 1174.60 365.21 1178.51 368.52 C 1180.99 369.90 1183.98 369.47 1186.71 369.97 C 1193.28 370.82 1199.05 374.80 1203.31 379.71 C 1207.06 383.86 1203.12 390.76 1207.35 394.74 C 1211.07 396.33 1215.19 394.57 1219.03 394.61 C 1222.81 399.44 1229.11 395.59 1234.18 396.69 C 1237.78 396.78 1238.56 400.86 1239.95 403.45 C 1242.03 409.37 1248.38 412.96 1249.44 419.31 C 1249.69 426.40 1246.65 433.08 1242.04 438.32 C 1245.56 441.17 1250.55 441.83 1253.78 445.01 C 1255.73 449.94 1260.10 454.75 1258.41 460.39 C 1255.72 470.02 1253.13 479.67 1250.47 489.31 C 1246.20 484.04 1240.00 480.86 1234.22 477.59 C 1228.30 473.39 1221.57 481.39 1215.45 477.43 C 1207.10 472.69 1197.84 469.96 1188.29 469.06 C 1187.54 470.71 1186.81 472.36 1186.09 474.02 C 1182.10 472.65 1178.13 471.18 1174.23 469.61 C 1168.48 467.37 1164.69 461.96 1159.04 459.57 C 1155.58 460.63 1153.99 464.23 1151.58 466.62 C 1148.97 469.68 1145.20 471.25 1141.59 472.75 C 1141.34 475.32 1141.13 477.92 1140.91 480.51 C 1132.48 481.10 1124.05 481.57 1115.62 482.04 C 1110.09 482.08 1104.84 484.26 1099.34 484.31 C 1090.37 482.49 1082.97 476.62 1076.13 470.87 C 1072.01 467.20 1066.37 469.53 1061.47 469.55 C 1055.57 469.42 1050.25 465.65 1044.31 466.06 C 1038.41 466.39 1032.71 468.22 1026.82 468.66 C 1020.07 471.04 1014.55 465.77 1008.15 465.14 C 1003.78 464.06 999.12 465.22 994.83 463.98 C 991.03 461.92 987.97 458.78 984.59 456.15 C 982.04 458.41 979.41 461.09 975.83 461.42 C 968.79 462.07 961.85 463.39 954.94 464.80 C 952.94 460.07 952.28 454.75 949.70 450.31 C 946.66 447.68 941.84 448.46 938.24 447.08 C 936.34 443.94 934.33 440.90 932.25 437.89 C 933.10 436.20 934.12 434.55 934.54 432.69 C 930.69 428.90 925.38 426.65 920.01 426.24 C 912.68 425.60 905.47 424.11 898.16 423.40 C 896.33 425.68 895.71 428.62 894.70 431.30 C 890.94 430.11 886.79 427.69 882.86 429.61 C 877.92 431.89 873.17 435.84 867.37 435.15 C 860.88 435.56 855.19 432.30 849.71 429.35 C 850.96 426.40 852.22 423.45 853.40 420.48 C 842.31 420.65 831.09 418.19 820.09 420.32 C 809.93 422.20 799.56 422.89 789.56 425.58 C 787.27 425.96 784.60 427.15 782.47 425.73 C 780.52 423.85 779.26 421.41 777.79 419.17 C 772.13 419.18 766.24 418.51 761.86 414.60 C 764.64 412.73 769.72 412.17 769.94 408.04 C 770.44 402.65 772.36 397.56 774.51 392.64 C 768.79 389.55 766.13 383.64 763.38 378.11 C 768.00 376.63 773.07 375.98 777.11 373.13 C 780.17 370.25 782.79 366.91 786.18 364.37 C 790.00 361.73 792.08 356.83 796.74 355.39 C 806.83 351.90 816.82 348.17 826.61 343.91 C 828.48 335.39 838.20 333.54 844.71 329.62 C 842.36 327.72 838.98 326.23 839.50 322.40 C 837.67 315.97 837.94 309.18 839.58 302.76 C 837.25 302.09 834.90 301.50 832.53 301.01 C 832.02 296.70 831.14 292.41 830.99 288.07 C 830.90 283.98 834.21 281.05 836.24 277.84 C 842.87 279.48 849.55 280.94 856.06 283.06 C 860.71 285.24 864.57 288.96 869.85 289.83 C 869.44 272.69 867.00 255.55 868.42 238.41 C 870.44 234.72 873.27 231.31 876.71 228.85 C 884.53 224.92 895.14 223.13 899.66 214.68 C 902.78 206.39 905.39 197.76 911.43 190.99 C 913.67 191.32 916.36 191.80 918.70 192.32 C 920.29 188.94 918.01 182.06 922.67 180.66 C 926.84 179.68 931.91 178.60 935.81 181.17 C 939.88 183.57 941.11 188.46 942.71 192.60 C 947.82 193.94 953.00 195.21 958.04 196.85 C 957.57 207.58 956.76 218.29 956.92 229.04 C 956.85 232.47 958.58 235.54 960.13 238.49 C 961.19 233.77 960.09 228.22 963.08 224.08 C 965.54 220.55 968.45 217.27 970.21 213.32 C 971.61 204.36 969.66 194.94 972.76 186.27 C 977.42 185.36 980.65 187.66 981.91 191.70 C 982.74 191.82 983.58 191.94 984.44 192.07 C 984.86 187.16 985.88 182.35 986.83 177.53 M 961.19 265.71 C 961.66 273.16 961.83 280.62 962.05 288.10 C 965.71 290.27 969.52 292.18 973.28 294.21 C 973.86 288.08 974.59 281.81 973.26 275.75 C 970.58 271.10 965.87 268.08 961.19 265.71 M 978.89 321.82 C 978.35 327.42 977.82 333.02 977.26 338.63 C 974.00 341.61 973.63 346.11 972.85 350.21 C 978.64 347.96 985.70 345.82 988.64 339.77 C 989.84 333.64 990.41 327.40 991.19 321.21 C 987.07 321.53 983.00 322.11 978.89 321.82 Z" />
</g>
<g target="81">
<path fill="#7f0000" fill-opacity="0" d=" M 751.04 384.07 C 754.60 381.07 758.93 379.29 763.38 378.11 C 766.13 383.64 768.79 389.55 774.51 392.64 C 772.36 397.56 770.44 402.65 769.94 408.04 C 769.72 412.17 764.64 412.73 761.86 414.60 C 766.24 418.51 772.13 419.18 777.79 419.17 C 779.26 421.41 780.52 423.85 782.47 425.73 C 784.60 427.15 787.27 425.96 789.56 425.58 C 799.56 422.89 809.93 422.20 820.09 420.32 C 831.09 418.19 842.31 420.65 853.40 420.48 C 852.22 423.45 850.96 426.40 849.71 429.35 C 855.19 432.30 860.88 435.56 867.37 435.15 C 873.17 435.84 877.92 431.89 882.86 429.61 C 886.79 427.69 890.94 430.11 894.70 431.30 C 895.71 428.62 896.33 425.68 898.16 423.40 C 905.47 424.11 912.68 425.60 920.01 426.24 C 925.38 426.65 930.69 428.90 934.54 432.69 C 934.12 434.55 933.10 436.20 932.25 437.89 C 934.33 440.90 936.34 443.94 938.24 447.08 C 941.84 448.46 946.66 447.68 949.70 450.31 C 952.28 454.75 952.94 460.07 954.94 464.80 C 961.85 463.39 968.79 462.07 975.83 461.42 C 979.41 461.09 982.04 458.41 984.59 456.15 C 987.97 458.78 991.03 461.92 994.83 463.98 C 999.12 465.22 1003.78 464.06 1008.15 465.14 C 1014.55 465.77 1020.07 471.04 1026.82 468.66 C 1032.71 468.22 1038.41 466.39 1044.31 466.06 C 1050.25 465.65 1055.57 469.42 1061.47 469.55 C 1066.37 469.53 1072.01 467.20 1076.13 470.87 C 1082.97 476.62 1090.37 482.49 1099.34 484.31 C 1104.84 484.26 1110.09 482.08 1115.62 482.04 C 1124.05 481.57 1132.48 481.10 1140.91 480.51 C 1141.13 477.92 1141.34 475.32 1141.59 472.75 C 1145.20 471.25 1148.97 469.68 1151.58 466.62 C 1153.99 464.23 1155.58 460.63 1159.04 459.57 C 1164.69 461.96 1168.48 467.37 1174.23 469.61 C 1178.13 471.18 1182.10 472.65 1186.09 474.02 C 1186.81 472.36 1187.54 470.71 1188.29 469.06 C 1197.84 469.96 1207.10 472.69 1215.45 477.43 C 1221.57 481.39 1228.30 473.39 1234.22 477.59 C 1240.00 480.86 1246.20 484.04 1250.47 489.31 C 1252.22 492.24 1253.14 495.86 1256.08 497.93 C 1261.19 501.80 1267.77 501.96 1273.76 503.47 C 1280.20 505.10 1286.72 506.58 1293.02 508.74 C 1290.27 516.23 1288.20 524.09 1284.27 531.06 C 1280.04 535.74 1274.01 538.26 1269.16 542.21 C 1264.56 544.94 1260.95 550.39 1254.95 549.95 C 1249.14 549.96 1244.88 544.70 1239.20 544.43 C 1227.98 545.53 1221.70 556.62 1218.61 566.25 C 1212.89 564.86 1207.19 561.52 1201.16 562.98 C 1198.01 563.21 1195.00 564.80 1191.85 564.16 C 1188.45 562.97 1186.65 559.07 1183.03 558.32 C 1178.98 557.77 1175.17 559.68 1171.50 561.11 C 1163.85 564.69 1155.26 565.38 1146.93 565.54 C 1145.35 563.62 1143.85 561.53 1141.70 560.22 C 1139.06 560.46 1136.84 561.44 1134.49 562.40 C 1131.77 561.56 1128.89 560.75 1126.11 561.82 C 1115.94 564.68 1105.50 562.34 1095.20 562.10 C 1093.32 570.33 1091.07 578.68 1091.53 587.19 C 1092.65 595.54 1093.03 604.75 1089.56 612.51 C 1083.17 614.55 1075.79 615.65 1071.64 621.62 C 1068.98 627.24 1070.33 633.91 1068.14 639.67 C 1065.56 643.23 1062.19 646.07 1058.88 648.91 C 1058.74 646.04 1059.11 641.67 1055.56 640.82 C 1047.23 639.29 1038.57 641.69 1030.30 639.87 C 1025.08 637.71 1019.62 634.83 1013.77 636.11 C 1008.31 637.37 1002.69 636.49 997.21 635.95 C 998.16 634.04 999.15 632.15 1000.12 630.25 C 998.31 629.34 996.51 628.43 994.70 627.54 C 995.05 625.95 995.39 624.36 995.75 622.79 C 992.47 622.91 989.07 623.90 985.87 622.97 C 981.92 620.49 980.85 615.53 977.66 612.34 C 973.44 607.55 966.72 606.82 961.49 603.60 C 956.64 601.12 952.59 597.22 947.48 595.27 C 941.48 594.36 935.36 595.56 929.35 594.82 C 924.86 593.73 920.53 590.89 915.76 592.22 C 909.34 593.89 902.97 591.04 896.72 590.07 C 897.63 592.65 898.60 595.22 899.72 597.72 C 893.83 601.88 887.61 606.13 880.27 607.02 C 878.39 610.72 877.14 615.02 873.94 617.87 C 868.50 621.74 861.36 620.98 855.50 623.78 C 851.09 626.47 846.84 629.67 841.78 631.03 C 838.05 632.00 833.93 630.42 830.45 632.42 C 827.84 635.47 828.71 639.88 828.33 643.60 C 820.78 645.65 812.93 647.85 805.11 645.53 C 801.10 642.40 795.92 640.33 793.45 635.60 C 790.51 629.64 790.55 622.60 787.13 616.84 C 784.88 613.37 780.47 613.49 776.88 612.79 C 769.00 611.17 760.54 610.64 753.76 605.91 C 754.18 597.73 756.14 589.60 755.49 581.39 C 753.41 577.63 748.65 576.81 745.06 575.04 C 746.98 566.45 738.82 560.05 738.67 551.74 C 738.83 547.00 742.58 541.51 738.59 537.41 C 730.40 530.67 720.65 526.14 712.10 519.88 C 702.89 513.37 690.94 512.44 680.02 513.40 C 679.64 511.08 679.52 508.65 678.55 506.48 C 675.27 505.16 671.99 504.02 668.66 502.95 C 670.10 498.14 672.90 493.91 676.52 490.45 C 674.90 481.64 678.95 473.29 677.86 464.49 C 680.60 456.87 686.60 450.97 689.40 443.35 C 691.15 438.29 694.97 434.31 699.62 431.78 C 699.48 426.51 700.48 421.26 699.81 416.01 C 701.63 413.76 703.44 411.48 704.82 408.93 C 707.30 402.97 714.67 402.15 718.44 397.25 C 720.19 397.29 721.95 397.29 723.71 397.24 C 724.75 399.11 725.87 400.94 726.97 402.79 C 730.98 400.16 735.20 397.89 739.31 395.41 C 744.20 392.73 746.13 386.81 751.04 384.07 Z" />
</g>
<g target="67">
<path fill="#7f7f00" fill-opacity="0" d=" M 668.66 502.95 C 671.99 504.02 675.27 505.16 678.55 506.48 C 679.52 508.65 679.64 511.08 680.02 513.40 C 690.94 512.44 702.89 513.37 712.10 519.88 C 720.65 526.14 730.40 530.67 738.59 537.41 C 742.58 541.51 738.83 547.00 738.67 551.74 C 738.82 560.05 746.98 566.45 745.06 575.04 C 748.65 576.81 753.41 577.63 755.49 581.39 C 756.14 589.60 754.18 597.73 753.76 605.91 C 760.54 610.64 769.00 611.17 776.88 612.79 C 780.47 613.49 784.88 613.37 787.13 616.84 C 790.55 622.60 790.51 629.64 793.45 635.60 C 795.92 640.33 801.10 642.40 805.11 645.53 C 803.44 653.58 804.55 661.82 807.72 669.35 C 801.87 672.16 796.32 675.50 790.83 678.92 C 788.88 680.20 786.47 679.89 784.27 680.02 C 778.80 680.12 773.90 682.90 769.02 685.05 C 769.80 686.28 770.61 687.51 771.43 688.73 C 769.92 690.63 768.44 692.54 766.97 694.47 C 768.09 702.54 769.73 710.55 770.12 718.71 C 771.99 718.72 773.88 718.74 775.77 718.77 C 773.91 722.94 770.68 726.54 765.77 726.42 C 762.80 724.02 759.21 721.40 755.16 722.37 C 747.53 723.83 742.88 731.06 740.57 737.96 C 733.38 738.54 726.61 736.03 720.34 732.78 C 711.67 731.18 702.42 731.63 694.35 735.38 C 693.89 733.85 693.44 732.32 692.99 730.82 C 685.75 736.68 675.90 741.40 673.16 751.02 C 669.59 747.81 666.65 743.72 662.15 741.70 C 657.74 739.31 652.62 739.16 647.76 738.62 C 647.68 740.98 647.64 743.36 647.57 745.73 C 637.96 747.09 629.11 741.93 619.59 742.89 C 615.86 742.90 612.13 742.44 608.49 741.69 C 603.27 740.20 598.89 736.33 593.41 735.70 C 590.06 738.32 587.56 741.84 584.65 744.92 C 586.03 748.15 587.48 751.36 588.88 754.60 C 587.65 756.10 586.41 757.60 585.26 759.17 C 582.47 757.19 579.91 754.83 576.90 753.27 C 572.79 754.50 568.57 756.15 564.47 753.81 C 558.76 755.93 553.18 751.96 547.38 752.10 C 542.87 744.44 540.01 735.27 542.51 726.42 C 543.68 723.30 545.56 720.51 547.34 717.72 C 545.20 713.33 544.48 708.14 547.63 704.02 C 550.31 705.02 552.93 706.62 555.86 706.70 C 561.13 705.35 565.13 699.62 570.94 701.02 C 570.87 696.07 571.33 691.08 570.52 686.17 C 573.54 680.61 577.41 675.63 582.03 671.32 C 586.06 671.95 590.36 672.71 592.85 676.34 C 595.90 674.82 598.97 673.34 602.05 671.85 C 600.69 667.44 597.05 662.79 599.05 658.09 C 602.79 653.07 608.19 649.44 614.19 647.68 C 619.31 646.44 622.95 642.31 627.70 640.24 C 624.22 633.78 620.36 625.11 626.37 618.94 C 621.08 614.12 617.51 607.57 615.67 600.70 C 614.47 596.07 618.29 592.23 621.11 589.08 C 626.41 583.18 634.92 581.07 639.22 574.19 C 643.00 569.70 644.43 563.76 648.41 559.43 C 651.33 555.98 654.18 552.37 656.07 548.23 C 658.91 542.50 655.04 536.17 657.31 530.33 C 658.95 524.74 665.66 521.32 665.08 515.00 C 664.82 510.69 666.41 506.56 668.66 502.95 Z" />
</g>
<g target="73">
<path fill="#007f00" fill-opacity="0" d=" M 896.72 590.07 C 902.97 591.04 909.34 593.89 915.76 592.22 C 920.53 590.89 924.86 593.73 929.35 594.82 C 935.36 595.56 941.48 594.36 947.48 595.27 C 952.59 597.22 956.64 601.12 961.49 603.60 C 966.72 606.82 973.44 607.55 977.66 612.34 C 980.85 615.53 981.92 620.49 985.87 622.97 C 989.07 623.90 992.47 622.91 995.75 622.79 C 995.39 624.36 995.05 625.95 994.70 627.54 C 996.51 628.43 998.31 629.34 1000.12 630.25 C 999.15 632.15 998.16 634.04 997.21 635.95 C 1002.69 636.49 1008.31 637.37 1013.77 636.11 C 1019.62 634.83 1025.08 637.71 1030.30 639.87 C 1038.57 641.69 1047.23 639.29 1055.56 640.82 C 1059.11 641.67 1058.74 646.04 1058.88 648.91 C 1058.35 654.91 1053.49 659.38 1049.84 663.80 C 1043.76 667.87 1038.03 672.46 1032.10 676.70 C 1023.69 677.90 1015.00 675.92 1006.55 676.66 C 1001.04 676.76 1000.00 684.94 994.34 684.43 C 987.46 683.15 980.12 684.61 973.57 681.69 C 966.79 678.17 959.58 682.97 952.68 682.07 C 948.90 678.28 952.18 671.49 948.67 667.39 C 946.45 664.83 943.39 663.33 940.39 661.91 C 937.43 668.09 934.17 674.15 931.65 680.52 C 928.52 685.60 934.16 689.10 935.45 693.57 C 938.32 699.23 935.68 705.05 934.69 710.70 C 937.33 708.76 939.06 705.98 940.38 703.03 C 942.15 703.17 943.94 703.33 945.73 703.42 C 947.89 707.74 950.14 712.20 953.92 715.37 C 957.09 718.67 962.24 720.84 962.95 725.96 C 963.56 731.60 964.42 738.23 961.44 743.34 C 958.00 745.64 953.80 746.15 949.77 746.12 C 948.67 754.32 944.12 761.63 943.33 769.89 C 942.92 774.10 941.92 778.21 940.82 782.28 C 939.33 787.99 939.58 794.08 937.57 799.65 C 936.65 802.20 933.69 802.47 931.46 803.16 C 931.28 809.53 931.76 815.88 931.66 822.26 C 931.65 828.31 926.35 833.09 920.86 834.64 C 915.89 834.19 912.60 829.75 908.35 827.62 C 901.07 823.81 892.40 825.99 885.17 822.11 L 884.90 826.60 C 881.14 825.17 877.17 825.49 873.86 827.85 C 873.44 817.84 872.38 807.88 872.08 797.88 C 867.91 791.16 860.45 787.02 856.95 779.74 C 850.08 779.97 843.41 778.07 836.59 777.57 C 831.72 777.35 831.38 771.00 829.84 767.77 C 823.83 766.13 817.69 764.91 811.91 762.55 C 810.25 763.68 808.59 764.82 806.94 765.98 C 804.65 763.68 802.35 761.40 800.02 759.16 C 797.32 760.22 794.61 761.28 791.91 762.32 C 787.71 757.93 783.86 753.22 780.65 748.06 C 776.43 747.72 772.22 747.40 768.00 747.18 C 766.46 740.37 765.77 733.40 765.77 726.42 C 770.68 726.54 773.91 722.94 775.77 718.77 C 773.88 718.74 771.99 718.72 770.12 718.71 C 769.73 710.55 768.09 702.54 766.97 694.47 C 768.44 692.54 769.92 690.63 771.43 688.73 C 770.61 687.51 769.80 686.28 769.02 685.05 C 773.90 682.90 778.80 680.12 784.27 680.02 C 786.47 679.89 788.88 680.20 790.83 678.92 C 796.32 675.50 801.87 672.16 807.72 669.35 C 804.55 661.82 803.44 653.58 805.11 645.53 C 812.93 647.85 820.78 645.65 828.33 643.60 C 828.71 639.88 827.84 635.47 830.45 632.42 C 833.93 630.42 838.05 632.00 841.78 631.03 C 846.84 629.67 851.09 626.47 855.50 623.78 C 861.36 620.98 868.50 621.74 873.94 617.87 C 877.14 615.02 878.39 610.72 880.27 607.02 C 887.61 606.13 893.83 601.88 899.72 597.72 C 898.60 595.22 897.63 592.65 896.72 590.07 Z" />
</g>
<g target="47">
<path fill="#00007f" fill-opacity="0" d=" M 740.57 737.96 C 742.88 731.06 747.53 723.83 755.16 722.37 C 759.21 721.40 762.80 724.02 765.77 726.42 C 765.77 733.40 766.46 740.37 768.00 747.18 C 772.22 747.40 776.43 747.72 780.65 748.06 C 783.86 753.22 787.71 757.93 791.91 762.32 C 794.61 761.28 797.32 760.22 800.02 759.16 C 802.35 761.40 804.65 763.68 806.94 765.98 C 808.59 764.82 810.25 763.68 811.91 762.55 C 817.69 764.91 823.83 766.13 829.84 767.77 C 831.38 771.00 831.72 777.35 836.59 777.57 C 843.41 778.07 850.08 779.97 856.95 779.74 C 860.45 787.02 867.91 791.16 872.08 797.88 C 872.38 807.88 873.44 817.84 873.86 827.85 C 873.86 829.05 873.86 830.26 873.87 831.48 C 870.13 831.82 866.43 832.17 862.74 832.55 C 862.37 836.01 861.86 839.70 859.43 842.40 C 854.42 843.64 849.06 843.50 844.53 846.30 C 827.54 850.26 810.44 854.01 793.32 857.42 C 790.94 858.06 788.77 856.76 786.75 855.74 C 781.22 859.66 773.84 857.64 768.10 861.16 C 764.10 862.54 764.37 867.56 764.00 870.90 C 761.20 870.23 758.53 868.80 755.60 868.86 C 746.05 869.49 736.31 869.41 727.06 872.20 C 720.32 874.44 713.10 874.66 706.15 875.85 C 703.16 868.13 700.17 860.41 697.95 852.43 C 697.54 847.34 693.04 844.62 690.60 840.66 C 691.31 837.09 694.90 835.12 696.09 831.80 C 696.57 828.94 696.27 826.03 696.27 823.16 C 688.63 823.35 681.16 825.53 673.48 824.66 C 674.28 824.07 675.89 822.89 676.69 822.31 C 671.85 821.96 667.03 823.41 662.20 822.72 C 659.80 816.80 660.45 810.06 660.28 803.77 C 662.35 804.63 664.43 805.51 666.48 806.43 C 667.64 805.25 668.82 804.08 670.01 802.93 C 668.48 799.58 666.79 796.28 665.16 792.99 C 666.90 792.08 668.65 791.19 670.42 790.32 C 670.32 788.79 670.22 787.26 670.15 785.75 C 674.40 786.28 678.71 785.86 682.75 784.41 C 682.46 779.27 685.86 773.91 682.97 769.07 C 679.45 763.19 676.60 756.94 673.16 751.02 C 675.90 741.40 685.75 736.68 692.99 730.82 C 693.44 732.32 693.89 733.85 694.35 735.38 C 702.42 731.63 711.67 731.18 720.34 732.78 C 726.61 736.03 733.38 738.54 740.57 737.96 Z" />
</g>
<g target="75">
<path fill="#7f007f" fill-opacity="0" d=" M 593.41 735.70 C 598.89 736.33 603.27 740.20 608.49 741.69 C 612.13 742.44 615.86 742.90 619.59 742.89 C 629.11 741.93 637.96 747.09 647.57 745.73 C 647.64 743.36 647.68 740.98 647.76 738.62 C 652.62 739.16 657.74 739.31 662.15 741.70 C 666.65 743.72 669.59 747.81 673.16 751.02 C 676.60 756.94 679.45 763.19 682.97 769.07 C 685.86 773.91 682.46 779.27 682.75 784.41 C 678.71 785.86 674.40 786.28 670.15 785.75 C 670.22 787.26 670.32 788.79 670.42 790.32 C 668.65 791.19 666.90 792.08 665.16 792.99 C 666.79 796.28 668.48 799.58 670.01 802.93 C 668.82 804.08 667.64 805.25 666.48 806.43 C 664.43 805.51 662.35 804.63 660.28 803.77 C 660.45 810.06 659.80 816.80 662.20 822.72 C 667.03 823.41 671.85 821.96 676.69 822.31 C 675.89 822.89 674.28 824.07 673.48 824.66 C 681.16 825.53 688.63 823.35 696.27 823.16 C 696.27 826.03 696.57 828.94 696.09 831.80 C 694.90 835.12 691.31 837.09 690.60 840.66 C 693.04 844.62 697.54 847.34 697.95 852.43 C 700.17 860.41 703.16 868.13 706.15 875.85 L 706.34 876.36 C 699.60 877.32 693.21 879.86 686.45 880.76 C 682.22 881.72 679.88 885.98 676.87 888.80 C 675.28 886.97 673.79 885.05 672.37 883.11 C 669.56 883.12 666.19 880.57 663.47 882.46 C 661.90 883.38 660.47 884.51 659.00 885.57 C 655.32 883.32 651.17 882.16 646.88 881.90 C 646.05 880.61 645.23 879.32 644.43 878.04 C 640.06 878.93 636.19 882.56 635.97 887.10 C 639.95 898.90 648.58 908.36 653.16 919.92 C 655.19 924.22 659.55 931.34 653.62 934.65 C 644.56 935.29 635.67 931.00 626.52 931.76 C 622.86 930.68 621.39 933.81 619.46 935.81 C 616.33 938.95 612.36 941.18 609.34 944.45 C 608.56 947.30 610.47 950.03 611.46 952.61 C 613.46 956.42 614.09 960.71 614.96 964.88 C 608.55 968.47 602.38 972.91 594.95 974.09 C 590.91 974.97 587.80 977.94 584.05 979.49 C 576.01 976.72 572.22 968.08 566.85 962.17 C 565.28 959.44 561.19 956.24 563.60 952.95 C 565.63 948.83 569.62 946.25 572.98 943.30 C 567.22 940.85 561.17 938.99 554.93 938.45 C 552.32 938.37 549.31 939.05 547.66 941.21 C 547.22 943.48 547.56 945.81 547.65 948.10 C 541.72 941.72 533.57 936.73 530.01 928.48 C 529.77 917.96 532.64 906.71 539.73 898.72 C 542.61 894.85 540.65 890.27 541.24 886.02 C 543.07 880.88 544.25 875.58 545.10 870.21 C 547.61 865.54 549.97 860.80 551.89 855.85 C 552.85 852.66 556.48 852.24 559.07 850.82 C 563.20 848.67 565.44 844.31 568.31 840.87 C 572.17 841.71 576.07 842.47 579.90 843.50 C 580.90 841.72 581.91 839.95 582.91 838.18 C 582.26 836.43 581.44 834.74 581.11 832.91 C 583.27 825.74 590.00 821.46 593.34 814.94 C 587.43 818.95 582.99 825.28 576.21 827.97 C 569.73 829.15 561.48 827.21 557.60 833.99 C 553.89 831.70 549.06 828.22 544.74 830.84 C 541.28 833.11 537.57 835.02 533.34 835.38 C 529.14 828.34 526.59 820.20 520.68 814.31 C 517.09 810.45 514.46 805.84 511.71 801.38 C 513.50 799.80 515.29 798.23 517.00 796.57 C 515.90 794.15 512.33 790.69 515.32 788.35 C 519.56 785.26 523.76 781.02 529.20 780.32 C 541.94 781.25 552.11 790.67 558.06 801.42 C 559.97 800.21 561.84 798.96 563.75 797.75 C 562.59 795.61 561.22 793.55 560.47 791.22 C 562.19 788.26 564.73 785.34 568.15 784.42 C 570.35 784.64 572.31 785.80 574.32 786.67 C 577.08 784.34 578.90 781.07 581.73 778.84 C 584.32 778.06 587.11 778.58 589.77 778.66 C 588.38 773.67 587.02 768.67 585.21 763.81 C 584.83 762.30 583.86 760.44 585.26 759.17 C 586.41 757.60 587.65 756.10 588.88 754.60 C 587.48 751.36 586.03 748.15 584.65 744.92 C 587.56 741.84 590.06 738.32 593.41 735.70 Z" />
</g>
</svg>
