<?xml version="1.0" encoding="UTF-8" ?>
<!DOCTYPE svg PUBLIC "-//W3C//DTD SVG 1.1//EN" "http://www.w3.org/Graphics/SVG/1.1/DTD/svg11.dtd">
<svg width="1920pt" height="1080pt" viewBox="0 0 1920 1080" version="1.1" xmlns="http://www.w3.org/2000/svg">
<g target="83" id="#00bf00fe">
<path fill="#00bf00" fill-opacity="0" d=" M 991.38 97.31 C 995.96 97.50 1000.53 97.99 1005.09 98.78 C 1006.02 110.65 1005.70 122.54 1005.05 134.42 C 1009.12 132.47 1013.93 130.54 1014.64 125.30 C 1016.98 120.69 1022.04 115.78 1027.65 117.54 C 1036.61 120.86 1043.74 128.96 1053.67 129.57 C 1058.90 129.71 1064.05 130.56 1069.14 131.78 C 1068.16 137.74 1068.09 144.04 1065.10 149.45 C 1070.15 151.01 1075.58 151.53 1080.43 153.74 C 1085.81 159.27 1090.86 166.51 1090.39 174.61 C 1090.24 177.24 1089.85 179.85 1089.64 182.48 C 1086.41 182.93 1082.56 181.62 1079.62 183.62 C 1077.14 185.37 1075.06 187.62 1072.94 189.76 C 1078.59 191.10 1081.17 197.55 1087.04 198.34 C 1093.68 199.01 1100.41 199.35 1106.97 200.83 C 1110.00 201.32 1112.93 199.97 1115.90 199.51 C 1116.11 197.60 1116.30 195.69 1116.50 193.77 C 1119.26 195.74 1121.67 198.07 1123.42 201.04 C 1126.73 201.46 1131.18 200.66 1133.00 204.21 C 1135.85 209.00 1140.26 212.37 1145.30 214.60 C 1145.58 218.29 1145.98 221.99 1146.31 225.68 C 1146.80 232.34 1144.00 238.81 1144.32 245.46 C 1146.12 246.84 1148.19 247.83 1150.21 248.86 C 1151.90 252.67 1151.15 258.46 1155.35 260.69 C 1161.01 264.04 1167.86 264.89 1173.34 268.62 C 1176.01 270.35 1178.14 272.73 1180.35 274.99 C 1179.55 277.01 1178.74 279.02 1177.96 281.04 C 1183.21 283.51 1190.53 285.77 1191.58 292.34 C 1191.75 296.29 1194.36 300.07 1197.93 301.66 C 1203.38 302.41 1209.44 302.44 1214.04 305.95 C 1217.77 309.12 1223.27 310.63 1225.18 315.55 C 1226.04 319.88 1225.50 324.39 1225.91 328.79 C 1232.61 329.25 1239.45 329.74 1245.84 332.03 C 1248.61 333.21 1251.22 331.33 1253.57 330.06 C 1257.31 332.57 1262.33 334.37 1263.36 339.26 C 1265.25 345.71 1271.99 349.60 1273.37 356.17 C 1272.67 363.02 1268.90 369.14 1265.58 375.00 C 1265.74 375.40 1266.07 376.19 1266.23 376.59 C 1270.14 378.87 1273.80 381.73 1278.21 383.01 C 1279.36 386.97 1281.55 390.46 1283.29 394.16 C 1284.41 400.72 1280.69 406.89 1279.41 413.15 C 1278.11 418.80 1276.65 424.43 1274.16 429.70 C 1268.15 425.18 1261.69 421.26 1254.81 418.25 C 1252.48 417.31 1250.03 418.32 1247.74 418.78 C 1247.88 418.57 1248.14 418.14 1248.28 417.93 C 1246.02 418.93 1243.74 420.58 1241.15 420.06 C 1233.06 418.63 1227.51 410.44 1219.01 410.47 C 1214.67 410.30 1210.34 409.97 1206.03 409.41 C 1205.72 411.18 1205.42 412.96 1205.14 414.74 C 1198.77 412.45 1191.81 411.00 1186.59 406.44 C 1183.10 403.96 1180.01 400.79 1176.03 399.17 C 1169.29 402.84 1165.23 410.28 1157.95 413.33 C 1157.35 416.05 1156.97 418.86 1156.43 421.61 C 1145.03 423.39 1133.28 421.12 1122.06 424.18 C 1118.05 425.04 1113.83 426.72 1109.75 425.30 C 1100.87 422.33 1092.53 417.68 1085.56 411.41 C 1080.75 406.65 1074.26 409.30 1068.53 409.53 C 1063.32 408.81 1058.51 406.03 1053.18 406.02 C 1044.92 406.32 1037.08 409.88 1028.80 409.75 C 1023.08 409.71 1018.56 405.38 1012.98 404.74 C 1008.20 404.14 1003.34 404.74 998.57 403.95 C 993.84 401.93 990.41 397.80 985.94 395.32 C 982.77 398.36 979.27 401.94 974.47 401.56 C 967.56 401.36 960.86 403.17 954.21 404.83 C 952.42 399.53 951.91 393.67 949.11 388.78 C 946.35 385.75 941.75 386.86 938.15 386.02 C 935.13 385.83 933.80 382.36 932.43 380.30 C 928.69 377.06 931.74 373.05 931.73 369.29 C 926.77 365.04 920.16 363.54 913.81 363.07 C 906.33 362.29 898.90 358.30 891.38 360.08 C 890.28 362.59 890.09 365.39 889.50 368.06 C 885.58 367.10 881.39 364.60 877.35 366.35 C 870.75 368.98 864.51 374.15 856.97 372.60 C 850.64 373.19 845.92 368.59 840.69 365.95 C 842.06 363.32 843.66 360.78 844.58 357.94 C 842.63 355.47 839.26 355.92 836.49 355.96 C 829.48 356.65 822.48 354.92 815.49 355.81 C 799.81 357.85 784.26 361.06 768.49 362.31 C 765.28 359.79 763.62 354.82 759.02 354.45 C 754.36 354.09 749.62 353.75 745.44 351.44 C 748.67 349.16 753.84 347.72 754.14 343.03 C 754.66 337.21 757.47 332.00 758.91 326.44 C 757.21 324.59 755.02 323.24 753.11 321.67 C 751.39 318.03 749.46 314.48 747.20 311.15 C 753.05 310.22 759.28 308.91 763.88 304.93 C 769.40 299.56 774.56 293.74 780.50 288.81 C 785.90 286.76 790.89 283.50 796.61 282.29 C 804.05 280.71 810.45 276.26 817.64 273.90 C 818.35 271.71 818.51 268.99 820.66 267.64 C 825.32 264.31 830.56 261.85 835.74 259.43 C 835.81 258.86 835.96 257.72 836.03 257.15 C 834.17 256.34 832.32 255.54 830.47 254.75 C 829.65 246.60 829.69 238.42 829.53 230.26 C 827.99 228.60 825.07 227.84 823.50 226.68 C 822.78 221.81 821.09 216.95 821.55 212.00 C 822.44 208.90 824.61 206.36 826.22 203.62 C 835.75 205.70 845.33 208.22 853.88 213.08 C 856.72 214.71 859.85 215.73 862.99 216.65 C 863.42 198.47 860.08 180.39 861.30 162.22 C 862.99 157.77 866.85 154.50 870.35 151.46 C 877.98 147.38 887.14 145.88 893.29 139.29 C 896.98 134.03 898.40 127.64 900.92 121.83 C 902.88 117.90 905.77 114.52 908.29 110.94 C 910.75 111.53 913.46 112.18 915.97 112.83 C 916.36 108.87 916.78 104.92 917.16 100.96 C 922.93 100.50 929.64 97.20 934.78 101.24 C 938.63 103.92 938.37 108.86 940.36 112.67 C 945.72 114.74 951.54 115.44 957.12 116.82 C 957.11 127.45 956.70 138.08 956.72 148.71 C 957.47 157.75 960.27 166.48 961.04 175.54 C 962.03 166.43 961.58 157.23 962.29 148.10 C 964.57 143.45 968.79 139.93 971.14 135.27 C 972.63 125.64 970.98 115.65 973.80 106.22 C 978.59 105.70 982.93 107.71 983.56 112.54 C 984.66 112.65 985.76 112.77 986.90 112.90 C 988.34 107.84 985.22 99.34 991.38 97.31 M 960.65 188.56 C 960.63 184.19 960.43 179.80 960.35 175.44 C 960.37 179.81 960.47 184.18 960.65 188.56 M 960.85 191.37 C 961.38 198.94 961.41 206.52 960.94 214.11 C 965.45 216.78 970.16 219.07 974.89 221.33 C 975.11 215.16 975.46 208.98 975.37 202.81 C 973.09 196.53 966.91 193.17 960.85 191.37 M 980.14 250.38 C 979.52 256.50 979.04 262.70 977.36 268.64 C 975.42 272.94 973.41 277.27 973.41 282.13 C 979.61 279.13 986.95 277.15 991.07 271.19 C 992.74 264.26 993.61 257.16 993.86 250.04 C 989.35 249.05 984.66 250.43 980.14 250.38 Z" />
</g>
<g target="81" id="#7fbf00ff">
<path fill="#7fbf00" fill-opacity="0" d=" M 731.67 319.69 C 735.97 315.50 741.85 313.62 747.20 311.15 C 749.46 314.48 751.39 318.03 753.11 321.67 C 755.02 323.24 757.21 324.59 758.91 326.44 C 757.47 332.00 754.66 337.21 754.14 343.03 C 753.84 347.72 748.67 349.16 745.44 351.44 C 749.62 353.75 754.36 354.09 759.02 354.45 C 763.62 354.82 765.28 359.79 768.49 362.31 C 784.26 361.06 799.81 357.85 815.49 355.81 C 822.48 354.92 829.48 356.65 836.49 355.96 C 839.26 355.92 842.63 355.47 844.58 357.94 C 843.66 360.78 842.06 363.32 840.69 365.95 C 845.92 368.59 850.64 373.19 856.97 372.60 C 864.51 374.15 870.75 368.98 877.35 366.35 C 881.39 364.60 885.58 367.10 889.50 368.06 C 890.09 365.39 890.28 362.59 891.38 360.08 C 898.90 358.30 906.33 362.29 913.81 363.07 C 920.16 363.54 926.77 365.04 931.73 369.29 C 931.74 373.05 928.69 377.06 932.43 380.30 C 933.80 382.36 935.13 385.83 938.15 386.02 C 941.75 386.86 946.35 385.75 949.11 388.78 C 951.91 393.67 952.42 399.53 954.21 404.83 C 960.86 403.17 967.56 401.36 974.47 401.56 C 979.27 401.94 982.77 398.36 985.94 395.32 C 990.41 397.80 993.84 401.93 998.57 403.95 C 1003.34 404.74 1008.20 404.14 1012.98 404.74 C 1018.56 405.38 1023.08 409.71 1028.80 409.75 C 1037.08 409.88 1044.92 406.32 1053.18 406.02 C 1058.51 406.03 1063.32 408.81 1068.53 409.53 C 1074.26 409.30 1080.75 406.65 1085.56 411.41 C 1092.53 417.68 1100.87 422.33 1109.75 425.30 C 1113.83 426.72 1118.05 425.04 1122.06 424.18 C 1133.28 421.12 1145.03 423.39 1156.43 421.61 C 1156.97 418.86 1157.35 416.05 1157.95 413.33 C 1165.23 410.28 1169.29 402.84 1176.03 399.17 C 1180.01 400.79 1183.10 403.96 1186.59 406.44 C 1191.81 411.00 1198.77 412.45 1205.14 414.74 C 1205.42 412.96 1205.72 411.18 1206.03 409.41 C 1210.34 409.97 1214.67 410.30 1219.01 410.47 C 1227.51 410.44 1233.06 418.63 1241.15 420.06 C 1243.74 420.58 1246.02 418.93 1248.28 417.93 C 1248.14 418.14 1247.88 418.57 1247.74 418.78 C 1250.03 418.32 1252.48 417.31 1254.81 418.25 C 1261.69 421.26 1268.15 425.18 1274.16 429.70 C 1276.65 435.94 1280.28 442.61 1287.43 444.08 C 1298.65 445.91 1309.29 450.08 1320.48 452.03 C 1318.99 458.05 1316.70 463.82 1314.66 469.66 C 1313.73 472.15 1312.68 474.77 1310.54 476.47 C 1303.97 482.03 1296.36 486.22 1289.79 491.77 C 1287.30 493.58 1285.01 496.07 1281.90 496.73 C 1274.72 496.78 1269.64 489.50 1262.34 490.20 C 1257.39 490.26 1253.08 493.39 1249.94 496.98 C 1245.07 501.14 1244.84 508.18 1240.84 512.92 C 1239.91 514.50 1238.18 513.47 1236.91 513.05 C 1233.88 511.90 1231.05 510.08 1227.80 509.67 C 1222.31 509.64 1216.96 512.46 1211.46 511.42 C 1208.63 509.65 1206.94 506.28 1203.61 505.32 C 1197.25 503.94 1191.68 507.92 1185.89 509.67 C 1179.39 512.44 1172.13 512.47 1165.24 513.27 C 1161.76 512.90 1160.44 508.95 1157.63 507.34 C 1154.89 507.68 1152.41 508.45 1149.83 509.26 C 1143.74 507.18 1137.60 509.78 1131.45 509.98 C 1123.09 512.21 1114.76 507.68 1106.31 509.93 C 1105.30 516.54 1103.78 523.08 1102.88 529.70 C 1102.48 541.21 1105.82 553.69 1100.50 564.54 C 1096.51 566.35 1091.97 566.49 1087.80 567.66 C 1085.98 569.98 1083.84 572.08 1081.12 573.31 C 1080.02 579.23 1079.49 585.27 1078.11 591.15 C 1076.89 596.42 1072.15 599.69 1068.21 602.92 C 1067.47 600.27 1066.98 596.24 1063.63 595.80 C 1055.06 594.63 1046.36 596.03 1037.77 595.24 C 1032.97 594.43 1028.75 591.71 1023.99 590.78 C 1020.27 589.74 1016.49 591.17 1012.81 591.56 C 1008.75 592.17 1004.74 591.02 1000.82 590.17 C 1001.82 588.24 1002.86 586.33 1003.89 584.43 C 1001.67 583.50 999.46 582.57 997.25 581.66 C 998.01 580.01 998.79 578.36 999.55 576.70 C 996.34 576.68 993.18 578.16 989.98 577.55 C 984.28 575.15 982.61 568.59 978.42 564.56 C 974.82 560.61 969.40 559.50 964.90 556.98 C 958.67 553.50 952.93 549.05 946.32 546.34 C 939.36 545.39 932.25 546.63 925.32 545.32 C 922.06 544.60 919.12 542.87 915.86 542.26 C 912.27 542.07 908.77 543.39 905.29 543.95 C 901.66 539.07 895.41 540.05 890.37 541.61 C 891.75 544.16 893.18 546.71 894.68 549.22 C 888.77 553.00 882.82 557.36 875.74 558.54 C 869.77 559.00 870.74 566.97 867.31 570.43 C 861.24 574.84 853.41 574.85 846.53 577.18 C 840.17 580.81 833.76 587.22 825.80 585.45 C 823.09 584.84 819.75 585.43 818.39 588.15 C 817.50 591.81 816.79 595.52 816.26 599.28 C 807.93 601.05 799.35 603.34 790.84 601.41 C 787.50 598.63 783.96 596.10 780.81 593.13 C 773.97 586.38 777.98 573.84 769.94 568.14 C 762.12 564.92 753.65 563.53 745.32 562.28 C 741.21 561.60 736.36 559.35 735.84 554.70 C 735.54 547.11 738.80 539.63 737.34 532.03 C 736.21 527.28 730.43 526.24 726.95 523.94 C 725.11 516.75 722.45 509.84 720.25 502.79 C 718.31 497.09 721.76 491.30 721.27 485.62 C 718.24 480.60 712.56 478.17 707.72 475.24 C 699.91 471.36 692.96 466.06 685.50 461.61 C 676.30 457.00 665.75 456.25 655.64 456.36 C 655.52 454.21 655.41 452.05 655.26 449.90 C 652.12 448.65 648.98 447.44 645.87 446.15 L 645.05 445.81 C 646.91 440.76 649.26 435.82 653.56 432.40 C 653.09 426.44 651.43 419.37 655.76 414.39 C 654.95 411.69 654.04 409.02 653.16 406.34 C 656.87 400.90 659.80 394.97 663.48 389.51 C 667.26 383.92 668.99 376.98 674.32 372.49 C 675.73 370.87 678.16 369.90 678.80 367.73 C 679.12 360.65 677.51 352.54 682.29 346.56 C 684.14 342.77 686.97 339.49 690.82 337.64 C 694.68 335.70 697.90 331.93 702.65 332.24 C 704.55 333.42 705.95 335.20 707.40 336.88 C 713.05 335.16 718.38 332.49 723.45 329.49 C 727.41 327.37 728.51 322.62 731.67 319.69 Z" />
</g>
<g target="67" id="#7f3f7fff">
<path fill="#7f3f7f" fill-opacity="0" d=" M 645.87 446.15 C 648.98 447.44 652.12 448.65 655.26 449.90 C 655.41 452.05 655.52 454.21 655.64 456.36 C 665.75 456.25 676.30 457.00 685.50 461.61 C 692.96 466.06 699.91 471.36 707.72 475.24 C 712.56 478.17 718.24 480.60 721.27 485.62 C 721.76 491.30 718.31 497.09 720.25 502.79 C 722.45 509.84 725.11 516.75 726.95 523.94 C 730.43 526.24 736.21 527.28 737.34 532.03 C 738.80 539.63 735.54 547.11 735.84 554.70 C 736.36 559.35 741.21 561.60 745.32 562.28 C 753.65 563.53 762.12 564.92 769.94 568.14 C 777.98 573.84 773.97 586.38 780.81 593.13 C 783.96 596.10 787.50 598.63 790.84 601.41 C 790.81 610.16 791.45 618.95 793.41 627.50 C 786.14 630.12 779.76 634.50 773.75 639.26 C 766.39 636.79 758.97 640.61 752.67 644.04 C 752.84 645.70 753.44 647.27 753.95 648.86 C 751.70 652.04 748.77 655.53 749.94 659.73 C 751.49 667.01 752.92 674.31 753.38 681.76 C 755.23 681.68 757.07 681.59 758.94 681.53 C 757.65 683.81 756.71 686.48 754.61 688.15 C 752.60 689.03 750.33 688.92 748.19 689.01 C 743.11 682.60 733.86 685.24 728.38 689.60 C 724.83 693.30 722.71 698.10 720.20 702.50 C 716.12 702.02 711.89 702.25 707.93 701.11 C 704.77 699.53 702.51 696.69 699.96 694.34 C 694.15 697.01 687.28 697.51 681.88 693.62 C 678.25 695.38 674.63 697.15 671.04 698.95 C 669.81 697.68 668.62 696.37 667.28 695.23 C 659.54 700.88 651.66 707.23 646.87 715.73 C 641.06 708.28 631.98 703.30 622.49 703.18 C 618.71 703.24 619.62 708.02 618.82 710.60 C 612.57 710.80 606.30 710.28 600.30 708.41 C 592.21 705.62 583.30 708.86 575.32 705.47 C 570.21 703.00 565.04 700.59 559.50 699.29 C 557.93 703.57 554.21 706.30 551.80 709.96 C 552.19 713.76 553.97 717.24 555.05 720.87 C 554.16 722.08 553.27 723.30 552.39 724.52 C 549.24 722.19 546.18 719.77 543.05 717.44 C 537.05 718.87 530.78 719.34 524.65 718.82 C 520.25 717.34 515.91 714.26 511.14 716.47 C 509.43 712.92 507.49 709.46 505.69 705.98 C 506.47 699.49 503.91 692.58 507.59 686.63 C 511.99 679.93 507.29 671.39 511.92 664.74 C 514.40 666.08 516.85 667.49 519.24 668.99 C 525.21 666.87 530.27 660.37 537.12 662.39 C 537.06 656.81 537.35 651.23 536.96 645.66 C 540.80 641.68 542.42 636.19 546.21 632.20 C 549.89 627.01 557.67 630.37 560.82 634.68 C 564.42 632.60 568.19 630.83 571.96 629.06 C 569.05 624.50 566.35 619.33 567.83 613.71 C 573.15 610.64 576.96 604.84 583.34 603.83 C 589.88 602.90 594.59 597.73 599.95 594.32 C 597.13 589.90 595.10 585.05 593.18 580.20 C 594.80 577.53 596.39 574.86 598.02 572.21 C 592.80 566.55 588.73 559.73 586.55 552.34 C 585.26 548.31 589.18 545.09 590.83 541.86 C 596.44 533.58 608.15 532.02 612.85 522.91 C 617.03 511.77 626.92 504.44 631.56 493.60 C 633.44 488.57 630.45 483.35 631.57 478.23 C 632.74 472.94 637.03 469.22 639.42 464.52 C 640.89 460.39 639.83 455.67 641.77 451.63 C 642.90 449.64 644.45 447.94 645.87 446.15 Z" />
</g>
<g target="73" id="#003f7fff">
<path fill="#003f7f" fill-opacity="0" d=" M 890.37 541.61 C 895.41 540.05 901.66 539.07 905.29 543.95 C 908.77 543.39 912.27 542.07 915.86 542.26 C 919.12 542.87 922.06 544.60 925.32 545.32 C 932.25 546.63 939.36 545.39 946.32 546.34 C 952.93 549.05 958.67 553.50 964.90 556.98 C 969.40 559.50 974.82 560.61 978.42 564.56 C 982.61 568.59 984.28 575.15 989.98 577.55 C 993.18 578.16 996.34 576.68 999.55 576.70 C 998.79 578.36 998.01 580.01 997.25 581.66 C 999.46 582.57 1001.67 583.50 1003.89 584.43 C 1002.86 586.33 1001.82 588.24 1000.82 590.17 C 1004.74 591.02 1008.75 592.17 1012.81 591.56 C 1016.49 591.17 1020.27 589.74 1023.99 590.78 C 1028.75 591.71 1032.97 594.43 1037.77 595.24 C 1046.36 596.03 1055.06 594.63 1063.63 595.80 C 1066.98 596.24 1067.47 600.27 1068.21 602.92 C 1066.26 611.11 1060.94 618.61 1053.55 622.73 C 1048.76 625.78 1044.42 629.46 1039.68 632.56 C 1032.16 635.81 1023.87 634.18 1015.98 634.13 C 1012.89 634.56 1008.23 632.72 1005.95 635.88 C 1003.30 638.60 1000.86 643.07 996.40 642.38 C 988.10 641.14 979.22 642.92 971.66 638.27 C 964.86 637.24 958.16 640.96 951.34 639.76 C 950.04 634.79 950.68 629.61 950.08 624.56 C 945.84 622.42 942.04 619.55 938.06 616.99 C 936.30 625.96 929.56 633.07 928.36 642.16 C 928.95 648.58 934.76 653.57 934.46 660.21 C 933.94 663.90 932.59 667.44 931.27 670.91 C 933.18 670.62 935.69 671.12 936.80 669.12 C 937.98 665.40 941.34 664.33 944.65 663.91 C 945.68 673.86 955.47 678.01 961.05 685.00 C 965.01 690.31 963.97 697.64 962.56 703.63 C 960.34 708.82 953.83 708.51 949.42 710.28 C 944.82 719.88 941.98 730.31 940.79 740.88 C 940.04 747.99 936.25 754.51 936.63 761.79 C 936.29 764.49 937.00 768.34 933.89 769.65 C 931.93 771.06 928.70 771.66 928.61 774.59 C 927.61 782.25 929.66 790.03 928.16 797.68 C 926.17 801.85 922.13 805.04 917.95 806.74 C 910.32 805.78 905.44 798.50 898.01 797.08 C 891.46 795.12 884.37 796.09 878.08 793.14 C 878.09 794.51 878.11 797.25 878.12 798.61 C 876.15 797.70 874.21 796.62 872.07 796.20 C 869.86 797.04 868.09 798.69 866.24 800.09 C 865.74 789.45 864.42 778.84 864.27 768.19 C 859.36 760.48 850.93 755.31 847.21 746.71 C 844.73 747.44 842.25 748.14 839.76 748.81 C 834.80 744.44 827.99 747.12 822.42 744.72 C 820.85 741.68 820.06 738.35 818.92 735.18 C 815.28 733.97 811.73 732.70 808.22 731.21 C 804.54 732.70 801.15 731.19 799.07 727.95 C 796.84 729.68 794.61 731.40 792.40 733.14 C 790.28 730.41 788.22 727.76 786.14 725.06 C 782.83 726.38 779.51 727.67 776.18 728.91 C 772.47 724.21 769.26 719.11 765.14 714.78 C 760.73 712.50 755.29 713.52 750.76 711.51 C 747.76 704.45 747.29 696.57 748.19 689.01 C 750.33 688.92 752.60 689.03 754.61 688.15 C 756.71 686.48 757.65 683.81 758.94 681.53 C 757.07 681.59 755.23 681.68 753.38 681.76 C 752.92 674.31 751.49 667.01 749.94 659.73 C 748.77 655.53 751.70 652.04 753.95 648.86 C 753.44 647.27 752.84 645.70 752.67 644.04 C 758.97 640.61 766.39 636.79 773.75 639.26 C 779.76 634.50 786.14 630.12 793.41 627.50 C 791.45 618.95 790.81 610.16 790.84 601.41 C 799.35 603.34 807.93 601.05 816.26 599.28 C 816.79 595.52 817.50 591.81 818.39 588.15 C 819.75 585.43 823.09 584.84 825.80 585.45 C 833.76 587.22 840.17 580.81 846.53 577.18 C 853.41 574.85 861.24 574.84 867.31 570.43 C 870.74 566.97 869.77 559.00 875.74 558.54 C 882.82 557.36 888.77 553.00 894.68 549.22 C 893.18 546.71 891.75 544.16 890.37 541.61 Z" />
</g>
<g target="47" id="#00bf7fff">
<path fill="#00bf7f" fill-opacity="0" d=" M 728.38 689.60 C 733.86 685.24 743.11 682.60 748.19 689.01 C 747.29 696.57 747.76 704.45 750.76 711.51 C 755.29 713.52 760.73 712.50 765.14 714.78 C 769.26 719.11 772.47 724.21 776.18 728.91 C 779.51 727.67 782.83 726.38 786.14 725.06 C 788.22 727.76 790.28 730.41 792.40 733.14 C 794.61 731.40 796.84 729.68 799.07 727.95 C 801.15 731.19 804.54 732.70 808.22 731.21 C 811.73 732.70 815.28 733.97 818.92 735.18 C 820.06 738.35 820.85 741.68 822.42 744.72 C 827.99 747.12 834.80 744.44 839.76 748.81 C 842.25 748.14 844.73 747.44 847.21 746.71 C 850.93 755.31 859.36 760.48 864.27 768.19 C 864.42 778.84 865.74 789.45 866.24 800.09 C 866.16 800.77 866.02 802.13 865.94 802.80 C 862.21 804.05 858.18 803.60 854.38 804.49 C 852.74 808.04 851.76 811.89 850.61 815.62 C 845.59 816.25 840.36 816.24 835.73 818.53 C 815.88 825.40 794.78 827.40 774.50 832.66 C 773.88 831.27 773.24 829.89 772.63 828.52 C 770.57 829.69 768.55 830.92 766.55 832.19 C 760.33 831.98 754.11 833.66 748.81 836.89 C 745.47 838.90 746.78 843.66 746.30 846.74 C 725.36 839.89 703.97 849.63 683.23 852.29 C 679.68 843.15 675.98 834.08 672.80 824.82 C 671.56 820.65 667.81 817.95 666.17 814.02 C 666.86 810.45 669.95 808.14 672.40 805.73 C 672.06 802.42 671.93 799.10 672.01 795.78 C 664.24 794.86 656.60 796.92 648.89 797.43 C 648.82 795.66 648.75 793.89 648.63 792.13 C 644.45 793.75 640.09 796.44 635.44 795.36 C 633.12 793.83 632.99 790.86 633.05 788.37 C 633.15 784.38 632.51 780.43 631.74 776.54 C 632.88 775.94 634.01 775.34 635.16 774.75 C 636.58 775.83 637.99 776.92 639.41 778.03 C 640.46 775.72 642.05 773.60 642.59 771.11 C 642.08 767.65 640.04 764.67 638.71 761.49 C 640.65 760.73 642.59 759.97 644.54 759.22 C 644.14 757.57 643.74 755.93 643.35 754.29 C 648.43 755.59 653.56 754.73 658.27 752.46 C 658.14 747.77 659.72 743.08 658.71 738.42 C 657.59 735.57 655.57 733.20 654.14 730.52 C 651.22 725.82 650.51 720.02 646.87 715.73 C 651.66 707.23 659.54 700.88 667.28 695.23 C 668.62 696.37 669.81 697.68 671.04 698.95 C 674.63 697.15 678.25 695.38 681.88 693.62 C 687.28 697.51 694.15 697.01 699.96 694.34 C 702.51 696.69 704.77 699.53 707.93 701.11 C 711.89 702.25 716.12 702.02 720.20 702.50 C 722.71 698.10 724.83 693.30 728.38 689.60 Z" />
</g>
<g target="75" id="#7fbf7ffe">
<path fill="#7fbf7f" fill-opacity="0" d=" M 559.50 699.29 C 565.04 700.59 570.21 703.00 575.32 705.47 C 583.30 708.86 592.21 705.62 600.30 708.41 C 606.30 710.28 612.57 710.80 618.82 710.60 C 619.62 708.02 618.71 703.24 622.49 703.18 C 631.98 703.30 641.06 708.28 646.87 715.73 C 650.51 720.02 651.22 725.82 654.14 730.52 C 655.57 733.20 657.59 735.57 658.71 738.42 C 659.72 743.08 658.14 747.77 658.27 752.46 C 653.56 754.73 648.43 755.59 643.35 754.29 C 643.74 755.93 644.14 757.57 644.54 759.22 C 642.59 759.97 640.65 760.73 638.71 761.49 C 640.04 764.67 642.08 767.65 642.59 771.11 C 642.05 773.60 640.46 775.72 639.41 778.03 C 637.99 776.92 636.58 775.83 635.16 774.75 C 634.01 775.34 632.88 775.94 631.74 776.54 C 632.51 780.43 633.15 784.38 633.05 788.37 C 632.99 790.86 633.12 793.83 635.44 795.36 C 640.09 796.44 644.45 793.75 648.63 792.13 C 648.75 793.89 648.82 795.66 648.89 797.43 C 656.60 796.92 664.24 794.86 672.01 795.78 C 671.93 799.10 672.06 802.42 672.40 805.73 C 669.95 808.14 666.86 810.45 666.17 814.02 C 667.81 817.95 671.56 820.65 672.80 824.82 C 675.98 834.08 679.68 843.15 683.23 852.29 C 676.74 853.00 670.60 855.42 664.17 856.41 C 658.79 857.66 654.01 861.04 651.11 865.73 C 649.59 863.48 648.09 861.20 646.61 858.97 C 641.97 858.27 636.47 857.40 633.42 861.87 C 629.15 860.28 624.65 859.20 620.07 859.50 C 618.89 858.04 617.72 856.58 616.57 855.12 C 614.04 855.26 611.81 855.83 609.36 856.08 C 608.91 857.95 608.46 859.82 608.00 861.70 C 606.52 861.11 605.02 860.53 603.54 859.99 C 610.65 878.79 624.20 894.72 629.61 914.18 C 622.60 918.24 613.78 916.12 606.83 912.95 C 600.96 913.22 595.05 912.53 589.24 913.81 C 589.36 915.04 589.50 916.31 589.63 917.58 C 584.83 920.64 580.20 923.95 575.53 927.21 C 578.63 934.56 582.22 941.79 583.06 949.85 C 579.02 952.27 574.93 954.60 570.73 956.73 C 566.14 958.97 560.61 958.42 556.28 961.27 C 553.78 962.82 551.45 964.63 549.03 966.31 C 541.61 961.93 538.07 953.76 532.12 947.86 C 530.18 945.37 527.17 943.39 526.40 940.20 C 528.66 934.60 533.46 930.71 538.08 927.11 C 530.59 921.87 521.36 919.34 512.32 921.32 C 508.66 922.46 509.48 927.40 508.18 930.27 C 502.28 923.54 495.77 917.39 490.14 910.43 C 492.31 907.47 492.78 903.88 490.59 900.79 C 494.49 892.77 495.62 882.92 503.22 877.31 C 502.95 871.02 502.61 864.57 505.36 858.72 C 505.82 847.79 512.21 839.00 516.43 829.38 C 518.91 826.66 523.20 826.47 525.88 823.92 C 528.55 821.26 530.36 817.88 532.52 814.83 C 537.00 815.73 541.50 816.67 545.94 817.84 C 547.10 815.63 548.26 813.42 549.45 811.22 C 548.90 809.59 548.01 808.00 547.96 806.27 C 548.94 803.56 550.46 801.06 551.07 798.22 C 554.85 795.28 558.17 791.76 560.44 787.52 C 552.15 788.35 548.67 797.63 540.82 799.26 C 534.05 799.99 526.14 799.74 521.44 805.48 C 518.33 803.95 515.27 802.21 511.96 801.20 C 506.24 801.72 501.71 805.97 496.30 807.57 C 492.84 802.58 489.44 797.55 486.82 792.07 C 483.16 784.27 474.21 779.31 473.08 770.28 C 474.59 768.72 476.41 767.52 478.15 766.24 C 476.85 764.21 475.52 762.21 474.12 760.25 C 478.58 754.74 483.84 749.08 491.35 748.49 C 505.14 749.32 515.17 759.87 521.65 771.12 C 524.26 769.94 526.83 768.69 529.36 767.36 C 527.94 764.86 526.51 762.37 525.03 759.92 C 527.07 758.00 528.82 755.70 531.25 754.26 C 534.97 753.06 538.96 754.66 542.72 753.73 C 545.02 752.66 545.54 750.00 546.27 747.84 C 550.07 747.16 553.91 746.57 557.75 746.13 C 554.87 739.68 553.97 732.60 551.24 726.10 C 551.52 725.70 552.10 724.91 552.39 724.52 C 553.27 723.30 554.16 722.08 555.05 720.87 C 553.97 717.24 552.19 713.76 551.80 709.96 C 554.21 706.30 557.93 703.57 559.50 699.29 M 559.15 785.40 C 558.29 789.38 563.14 784.58 559.15 785.40 Z" />
</g>
</svg>
