<?xml version="1.0" encoding="UTF-8" ?>
<!DOCTYPE svg PUBLIC "-//W3C//DTD SVG 1.1//EN" "http://www.w3.org/Graphics/SVG/1.1/DTD/svg11.dtd">
<svg width="1920pt" height="1080pt" viewBox="0 0 1920 1080" version="1.1" xmlns="http://www.w3.org/2000/svg">
<g target="26" id="#bf7f00fe">
<path fill="#bf7f00" fill-opacity="0" d=" M 918.23 181.04 C 925.36 177.64 924.46 184.46 925.24 188.76 C 929.73 183.73 936.59 182.22 943.02 181.44 C 946.86 182.05 949.98 184.80 953.44 186.46 C 953.37 188.72 954.43 191.16 954.71 193.48 C 959.30 192.65 963.69 193.76 967.05 196.93 C 966.99 201.30 967.02 205.69 967.01 210.06 C 970.52 206.39 972.94 199.26 979.07 200.36 C 984.67 201.66 990.17 203.55 995.54 205.63 C 1000.98 207.88 998.13 215.24 999.31 219.77 C 1000.91 220.14 1002.54 220.52 1004.16 220.91 C 1004.51 217.77 1004.92 214.64 1005.28 211.51 C 1008.77 211.87 1012.18 212.52 1015.67 213.08 C 1015.64 217.44 1015.80 221.81 1016.03 226.16 C 1016.40 225.43 1017.14 223.97 1017.52 223.24 C 1018.42 223.10 1019.34 222.97 1020.28 222.85 C 1020.42 226.52 1020.69 230.16 1021.16 233.81 C 1022.33 231.52 1023.42 229.16 1024.48 226.80 C 1024.73 227.56 1025.24 229.07 1025.49 229.83 C 1037.77 230.07 1050.78 227.49 1062.52 232.19 C 1069.71 233.33 1075.27 239.52 1077.99 245.96 C 1078.87 249.70 1078.25 253.66 1078.34 257.46 C 1080.98 258.33 1083.60 259.22 1086.27 260.13 C 1085.60 267.48 1086.27 275.55 1081.98 281.99 C 1079.58 281.69 1077.18 281.41 1074.78 281.15 C 1076.12 289.06 1084.24 291.47 1090.31 294.73 C 1095.11 296.89 1097.28 301.81 1100.23 305.82 C 1102.42 309.07 1106.52 309.80 1109.92 311.21 C 1109.25 315.32 1109.50 319.76 1107.56 323.53 C 1102.33 327.23 1095.92 328.81 1090.02 331.19 C 1090.21 332.81 1090.41 334.43 1090.63 336.05 C 1089.38 336.38 1086.87 337.06 1085.61 337.39 C 1085.15 341.69 1084.82 346.18 1082.49 349.94 C 1074.32 346.47 1066.72 352.39 1059.00 354.32 C 1061.92 358.38 1064.68 362.71 1065.35 367.81 C 1067.83 378.57 1070.96 389.53 1068.99 400.67 C 1067.85 400.79 1066.73 400.92 1065.63 401.05 C 1067.16 405.10 1067.37 409.45 1067.60 413.73 C 1069.29 414.58 1071.07 415.32 1072.61 416.45 C 1074.32 419.09 1073.62 422.91 1075.51 425.49 C 1078.50 427.15 1081.79 428.21 1084.99 429.47 C 1084.21 433.69 1083.95 438.46 1080.60 441.57 C 1078.24 444.51 1074.54 447.37 1074.58 451.43 C 1074.51 455.28 1080.17 453.29 1082.04 454.54 C 1091.67 455.41 1100.73 460.27 1110.57 459.18 C 1112.56 461.27 1114.34 463.48 1116.10 465.79 C 1107.44 466.92 1098.73 469.44 1089.97 467.66 C 1089.75 473.35 1090.20 479.27 1093.73 483.97 C 1092.57 483.99 1090.26 484.02 1089.10 484.04 C 1089.08 487.23 1088.46 490.37 1087.59 493.44 C 1091.30 496.87 1095.34 499.93 1099.13 503.28 C 1097.28 507.46 1095.15 511.54 1094.82 516.18 C 1093.12 519.86 1090.44 523.04 1088.93 526.84 C 1084.84 531.32 1078.63 533.16 1073.52 536.27 C 1074.34 537.38 1075.19 538.50 1076.03 539.63 C 1073.13 542.23 1069.15 544.75 1069.07 549.10 C 1068.84 553.53 1069.65 558.68 1073.44 561.52 C 1077.88 565.22 1083.73 566.08 1089.18 567.33 C 1089.73 571.01 1090.54 574.64 1091.55 578.22 C 1087.00 578.59 1081.59 579.52 1079.45 584.14 C 1080.66 587.10 1083.39 588.94 1085.83 590.84 C 1088.95 593.18 1091.09 596.52 1093.29 599.68 C 1089.99 602.06 1086.03 603.96 1083.78 607.48 C 1083.48 609.48 1083.81 611.50 1083.99 613.51 C 1081.07 614.52 1078.06 615.40 1075.11 616.25 C 1074.31 614.70 1073.49 613.18 1072.67 611.66 C 1071.17 611.40 1069.67 611.15 1068.19 610.91 C 1064.28 607.28 1058.49 607.29 1054.47 603.93 C 1052.21 601.68 1051.18 598.53 1050.14 595.59 C 1044.26 595.90 1039.01 598.66 1033.60 600.67 C 1035.06 604.93 1036.72 609.13 1038.49 613.28 C 1034.25 618.55 1028.11 620.71 1022.27 623.35 C 1017.72 627.86 1012.27 631.86 1009.56 637.86 C 1008.52 640.34 1005.65 640.65 1003.43 641.47 C 1004.44 645.70 1005.96 649.78 1007.79 653.73 C 1004.55 653.89 1000.50 654.85 998.09 652.03 C 995.38 648.32 993.51 644.07 990.55 640.53 C 988.53 638.06 987.25 633.74 983.33 634.08 C 978.04 633.44 977.18 640.09 973.89 642.83 C 970.64 644.77 966.55 645.82 962.79 644.88 C 956.43 643.32 949.84 643.32 943.35 643.20 C 938.67 651.02 934.17 658.93 929.79 666.91 C 931.85 667.88 933.92 668.84 936.01 669.80 C 934.61 671.19 933.24 672.61 931.90 674.05 C 934.33 674.90 936.81 675.65 939.29 676.39 C 940.08 680.45 940.93 684.53 941.93 688.55 C 938.91 688.54 936.94 689.30 934.23 689.56 C 933.11 693.55 931.51 698.45 926.89 699.43 C 921.66 700.70 918.05 705.11 915.73 709.71 C 913.92 714.90 918.09 720.85 914.68 725.72 C 909.33 733.63 912.54 743.93 907.77 752.13 C 904.03 751.68 899.92 750.70 896.39 752.53 C 892.87 754.37 889.51 756.53 886.10 758.56 C 888.40 762.56 891.53 765.99 894.92 769.10 C 900.53 774.13 903.80 781.59 911.09 784.67 C 909.66 786.25 907.76 787.58 905.55 787.60 C 896.51 787.59 887.73 790.09 878.88 791.63 C 872.69 792.07 866.43 792.07 860.34 793.43 C 859.69 798.73 857.65 803.70 855.81 808.67 C 852.21 809.26 848.15 809.57 845.58 812.52 C 840.10 818.68 836.21 826.00 831.81 832.93 C 829.80 836.20 825.82 837.11 822.71 838.98 C 817.85 841.54 813.67 845.21 808.79 847.70 C 802.73 849.39 796.35 849.74 790.09 849.89 C 783.19 850.00 777.13 846.23 770.40 845.43 C 766.07 844.87 761.74 844.17 757.38 843.97 C 755.23 840.35 752.89 836.86 750.53 833.40 C 754.24 828.56 757.49 823.01 762.86 819.85 C 767.94 816.71 773.25 813.83 777.49 809.54 C 778.96 806.97 778.60 803.86 778.79 801.02 C 782.81 799.50 787.15 798.26 790.51 795.50 C 791.58 793.23 791.54 790.64 791.73 788.19 C 789.15 787.37 786.58 786.57 784.01 785.76 C 783.66 782.19 782.64 778.67 782.77 775.08 C 783.36 771.75 785.52 768.94 786.87 765.90 C 784.32 758.28 782.78 749.99 776.45 744.35 C 777.05 742.55 777.68 740.76 778.32 738.98 C 774.37 737.01 770.21 734.97 767.75 731.12 C 766.10 729.55 764.73 726.37 762.02 727.07 C 755.31 728.14 748.47 731.19 741.62 729.47 C 738.04 724.58 735.67 718.93 731.78 714.28 C 733.79 712.46 735.85 710.68 738.12 709.21 C 742.14 706.61 747.30 706.30 751.07 703.27 C 751.33 698.02 749.56 692.62 747.09 688.02 C 743.93 684.33 739.87 681.43 737.40 677.15 C 740.22 674.43 742.21 671.02 743.49 667.33 C 744.42 665.06 745.30 662.78 746.17 660.49 C 744.66 660.54 743.16 660.58 741.67 660.64 C 748.66 654.17 755.07 646.28 764.50 643.36 C 764.82 640.84 765.47 638.31 765.16 635.76 C 757.89 632.12 749.43 630.93 742.46 626.60 C 739.28 622.52 739.86 615.43 744.21 612.32 C 750.12 607.74 756.31 603.43 763.10 600.25 C 761.92 597.63 760.72 595.03 759.56 592.42 C 755.22 592.21 750.58 593.25 746.41 591.62 C 744.03 588.04 743.72 583.54 742.59 579.52 C 741.09 579.47 739.60 579.40 738.11 579.35 C 737.32 577.21 737.14 574.38 734.92 573.18 C 727.66 569.20 719.09 570.46 711.18 570.46 C 704.62 570.74 698.06 570.20 691.54 569.53 C 694.15 564.88 697.74 560.83 700.21 556.11 C 700.30 551.43 697.57 547.21 695.98 542.92 C 705.35 538.06 715.81 535.91 725.79 532.60 C 725.83 532.13 725.93 531.17 725.98 530.70 C 722.25 528.76 716.87 527.87 715.60 523.25 C 713.80 517.61 711.21 510.49 715.96 505.62 C 722.81 500.22 729.53 494.59 736.89 489.87 C 738.80 488.35 741.79 486.66 741.36 483.81 C 740.93 480.06 739.80 476.45 739.06 472.77 C 741.06 470.93 742.92 468.93 744.90 467.07 C 748.20 464.31 752.58 463.42 756.13 461.05 C 758.25 459.35 758.23 456.14 759.39 453.92 C 754.64 451.30 749.61 449.30 744.12 449.30 C 743.37 445.90 742.21 442.50 742.38 438.99 C 742.63 435.17 745.50 432.37 747.48 429.34 C 745.67 429.53 743.87 429.71 742.07 429.88 C 741.06 425.86 739.86 421.86 739.45 417.73 C 739.15 414.17 741.40 411.06 741.61 407.56 C 743.25 400.15 736.15 394.57 737.41 387.25 C 738.39 385.18 740.03 383.53 741.44 381.76 C 740.81 378.60 740.33 375.41 739.87 372.22 C 749.56 372.96 756.23 364.76 761.08 357.44 C 752.96 354.49 743.60 356.31 736.13 351.28 C 733.28 345.79 728.85 338.55 732.42 332.41 C 738.86 327.10 747.11 325.21 755.07 323.56 C 757.15 323.25 758.97 322.20 760.62 320.95 C 755.73 317.12 755.76 310.83 755.01 305.21 C 757.00 303.62 759.00 302.03 761.03 300.48 C 760.59 296.29 759.98 292.13 759.40 287.96 C 762.17 288.36 764.86 288.70 767.68 289.09 C 767.47 286.56 767.30 284.04 767.14 281.54 C 770.66 279.13 774.00 276.47 777.66 274.26 C 779.11 283.70 779.39 293.46 782.72 302.52 C 782.55 298.36 781.47 294.27 781.51 290.11 C 782.27 286.82 785.18 284.50 786.08 281.25 C 786.77 278.61 787.24 275.88 788.48 273.43 C 790.18 271.75 792.85 271.75 795.05 271.10 C 794.79 265.41 794.11 259.72 794.28 254.01 C 798.17 258.99 797.34 265.90 798.66 271.79 C 803.60 271.44 808.57 271.15 813.53 270.88 C 813.66 268.94 813.66 266.97 814.15 265.08 C 816.71 264.28 819.42 264.23 822.08 263.94 C 821.45 258.38 820.78 252.83 820.02 247.29 C 823.81 245.30 827.17 242.63 828.45 238.28 C 831.96 238.49 835.47 238.50 838.97 239.02 C 840.15 245.76 840.47 252.67 842.01 259.36 C 842.72 257.77 843.47 256.19 844.26 254.63 C 848.10 254.62 852.00 254.74 855.76 253.86 C 856.39 252.30 856.53 250.61 856.83 248.98 C 857.30 249.02 858.22 249.11 858.69 249.16 C 858.81 250.22 858.94 251.29 859.09 252.36 C 863.11 251.91 867.28 252.18 871.21 251.08 C 872.61 249.16 872.26 246.59 872.68 244.38 C 873.22 245.92 874.30 249.00 874.84 250.53 C 876.11 248.73 877.31 246.88 878.43 244.98 C 881.34 246.93 884.87 246.65 888.18 246.31 C 888.02 239.55 887.90 232.81 887.10 226.09 C 887.94 225.63 888.80 225.18 889.66 224.72 C 889.99 232.07 890.70 239.40 891.93 246.65 C 893.52 238.53 891.53 230.18 892.78 222.02 C 901.03 226.83 896.84 237.99 899.25 245.73 C 900.43 245.04 901.70 244.43 902.74 243.50 C 903.01 236.83 902.30 230.19 902.16 223.54 C 903.17 230.35 904.01 237.19 905.09 243.99 C 908.37 243.01 913.77 242.10 911.86 236.96 C 912.10 224.07 912.72 211.19 913.19 198.31 C 914.34 198.08 915.51 197.84 916.69 197.61 C 917.73 192.32 915.27 185.79 918.23 181.04 M 914.10 228.64 C 914.07 231.45 914.02 237.08 913.99 239.89 C 917.17 239.50 920.35 239.15 923.54 238.79 C 922.93 237.01 922.39 235.19 921.54 233.51 C 920.26 230.55 916.67 230.01 914.10 228.64 M 929.26 230.20 C 926.84 232.01 932.05 233.70 932.27 231.26 C 931.95 230.02 930.27 229.65 929.26 230.20 M 924.17 231.17 C 923.64 232.79 924.19 233.35 925.83 232.83 C 926.34 231.20 925.79 230.65 924.17 231.17 M 945.53 236.29 C 944.36 237.07 945.64 239.14 946.85 238.32 C 948.04 237.53 946.75 235.42 945.53 236.29 Z" />
<path fill="#bf7f00" fill-opacity="0" d=" M 862.92 181.77 C 865.14 181.74 868.56 180.40 869.48 183.38 C 869.80 193.23 871.35 203.02 871.63 212.87 C 869.51 213.53 867.38 214.06 865.24 214.47 C 864.41 203.57 863.47 192.69 862.92 181.77 Z" />
<path fill="#bf7f00" fill-opacity="0" d=" M 836.57 192.51 C 838.53 193.70 841.26 194.28 842.44 196.42 C 843.81 206.67 844.43 217.00 845.08 227.32 C 843.12 226.88 841.19 226.43 839.25 225.99 C 838.87 214.79 836.24 203.73 836.57 192.51 Z" />
<path fill="#bf7f00" fill-opacity="0" d=" M 847.36 218.83 C 847.99 218.91 849.23 219.08 849.86 219.16 C 850.74 229.78 851.62 240.41 852.93 251.00 C 852.27 250.99 850.94 250.97 850.27 250.96 C 849.61 240.22 848.29 229.54 847.36 218.83 Z" />
<path fill="#362400" fill-opacity="0" d=" M 929.26 230.20 C 930.27 229.65 931.95 230.02 932.27 231.26 C 932.05 233.70 926.84 232.01 929.26 230.20 Z" />
</g>
<g target="41" id="#007f7fff">
<path fill="#007f7f" fill-opacity="0" d=" M 1110.14 458.71 C 1111.90 458.46 1113.68 458.16 1115.45 457.80 C 1117.61 461.16 1120.00 464.44 1122.99 467.15 C 1123.56 470.27 1124.11 473.46 1124.76 476.60 C 1127.75 476.50 1131.06 476.26 1133.47 478.45 C 1139.56 482.11 1141.06 489.61 1145.92 494.44 C 1145.52 497.97 1144.96 501.49 1144.19 504.96 C 1147.27 504.70 1150.42 504.06 1153.50 504.67 C 1158.42 509.57 1156.65 516.83 1155.01 522.73 C 1159.05 525.27 1161.28 529.47 1162.17 534.11 C 1166.76 535.53 1171.28 537.40 1176.16 537.54 C 1176.98 545.20 1174.74 552.79 1171.77 559.77 C 1170.53 562.56 1169.68 565.60 1170.11 568.67 C 1170.87 575.75 1168.52 582.61 1167.29 589.50 C 1174.09 593.03 1178.95 602.46 1187.98 599.08 C 1192.99 599.14 1194.93 594.36 1196.42 590.42 C 1205.33 590.80 1217.45 592.33 1221.70 582.34 C 1222.25 582.23 1223.35 582.00 1223.89 581.89 C 1224.40 583.49 1224.91 585.10 1225.45 586.72 C 1227.57 586.54 1229.71 586.38 1231.88 586.24 C 1231.51 589.85 1230.96 593.49 1230.92 597.14 C 1231.76 595.84 1232.64 594.55 1233.49 593.25 C 1234.43 593.58 1235.39 593.93 1236.36 594.28 C 1239.52 591.10 1243.40 588.32 1244.71 583.79 C 1247.06 576.45 1253.12 571.24 1256.32 564.35 C 1258.80 559.07 1262.03 554.18 1264.48 548.89 C 1268.09 548.14 1271.78 546.09 1275.50 547.44 C 1281.31 549.26 1287.65 549.01 1293.18 551.76 C 1297.24 553.66 1300.55 557.00 1305.00 558.10 C 1305.57 563.22 1307.73 568.79 1312.35 571.51 C 1315.85 571.78 1319.48 570.76 1322.88 572.07 C 1323.60 570.37 1324.32 568.68 1325.02 566.97 C 1330.12 568.44 1335.37 569.65 1340.18 571.95 C 1343.25 573.54 1342.03 577.70 1343.78 580.23 C 1346.51 584.18 1349.21 588.14 1351.93 592.11 C 1353.68 594.79 1357.01 595.61 1359.28 597.73 C 1361.31 599.73 1362.99 602.05 1364.50 604.47 C 1361.76 605.06 1359.05 606.08 1356.23 605.99 C 1350.43 604.98 1345.02 602.26 1339.16 601.64 C 1336.37 601.36 1334.52 603.94 1332.58 605.51 C 1333.70 606.33 1334.86 607.17 1335.99 608.01 C 1335.61 611.88 1336.02 615.73 1336.26 619.62 C 1335.22 619.84 1334.21 620.07 1333.21 620.32 C 1337.83 626.42 1342.88 632.19 1348.28 637.63 C 1349.49 636.25 1350.72 634.90 1351.98 633.56 C 1353.56 638.67 1354.91 643.86 1355.95 649.12 C 1353.82 648.67 1351.72 648.22 1349.62 647.76 C 1347.57 649.99 1345.79 653.29 1342.44 653.54 C 1334.95 653.66 1327.53 652.49 1320.21 651.03 C 1322.39 647.91 1324.67 644.85 1326.70 641.62 C 1318.97 640.19 1313.13 646.92 1305.55 646.87 C 1305.45 651.18 1305.00 655.47 1304.64 659.77 C 1300.51 660.69 1296.33 661.56 1292.20 662.39 C 1291.27 664.04 1290.37 665.71 1289.52 667.40 C 1286.26 666.22 1282.96 664.73 1279.43 664.88 C 1275.46 665.00 1271.40 665.75 1267.52 664.60 C 1263.13 664.44 1261.06 660.60 1258.79 657.60 C 1253.86 660.74 1248.05 659.37 1242.65 658.74 C 1239.48 658.40 1237.47 655.57 1235.28 653.59 C 1234.62 653.75 1233.99 653.93 1233.37 654.11 C 1232.07 657.12 1231.61 661.11 1228.49 662.86 C 1220.31 664.70 1211.98 661.90 1203.91 660.82 C 1202.87 663.65 1203.17 668.10 1199.66 669.10 C 1194.30 670.91 1188.50 671.64 1183.56 674.50 C 1179.91 676.11 1180.17 680.61 1179.19 683.88 C 1185.29 687.23 1190.47 691.92 1196.11 695.97 C 1193.86 696.24 1191.61 696.50 1189.37 696.72 C 1188.92 701.68 1186.76 706.88 1188.31 711.84 C 1192.68 723.05 1195.17 735.15 1194.33 747.21 C 1192.16 758.10 1188.54 768.59 1185.22 779.16 C 1182.14 790.71 1181.42 803.40 1174.54 813.55 C 1170.32 819.82 1161.82 819.91 1156.74 825.08 C 1156.10 826.36 1155.53 827.68 1154.97 829.01 C 1150.83 833.93 1145.67 837.74 1140.68 841.72 C 1135.26 845.79 1133.93 852.91 1131.36 858.78 C 1127.10 860.67 1122.87 862.61 1118.40 863.94 C 1118.30 865.32 1118.22 866.72 1118.14 868.13 C 1111.23 870.14 1104.67 873.16 1098.64 877.10 C 1097.82 873.18 1097.97 868.78 1095.71 865.30 C 1091.42 863.75 1086.27 865.51 1082.41 862.68 C 1079.69 858.63 1081.18 852.38 1076.73 849.44 C 1071.79 846.40 1067.12 843.02 1062.92 839.03 C 1058.69 834.01 1051.69 836.05 1046.05 834.59 C 1038.28 831.21 1034.11 823.15 1026.74 819.21 C 1020.59 815.84 1014.26 812.67 1009.12 807.79 C 1004.02 804.24 1002.59 798.05 1000.94 792.48 C 998.10 794.40 994.99 795.86 991.64 796.59 C 989.44 801.60 983.43 801.91 979.11 803.96 C 976.95 805.67 976.05 808.46 974.88 810.87 C 971.48 809.08 968.73 806.38 965.65 804.16 C 961.06 801.90 956.18 804.06 951.43 803.81 C 946.62 801.68 943.89 796.17 938.57 794.99 C 931.97 794.67 928.39 788.79 923.01 786.02 C 919.87 784.29 916.78 782.47 913.84 780.43 C 912.92 781.85 912.02 783.27 911.09 784.67 C 903.80 781.59 900.53 774.13 894.92 769.10 C 891.53 765.99 888.40 762.56 886.10 758.56 C 889.51 756.53 892.87 754.37 896.39 752.53 C 899.92 750.70 904.03 751.68 907.77 752.13 C 912.54 743.93 909.33 733.63 914.68 725.72 C 918.09 720.85 913.92 714.90 915.73 709.71 C 918.05 705.11 921.66 700.70 926.89 699.43 C 931.51 698.45 933.11 693.55 934.23 689.56 C 936.94 689.30 938.91 688.54 941.93 688.55 C 940.93 684.53 940.08 680.45 939.29 676.39 C 936.81 675.65 934.33 674.90 931.90 674.05 C 933.24 672.61 934.61 671.19 936.01 669.80 C 933.92 668.84 931.85 667.88 929.79 666.91 C 934.17 658.93 938.67 651.02 943.35 643.20 C 949.84 643.32 956.43 643.32 962.79 644.88 C 966.55 645.82 970.64 644.77 973.89 642.83 C 977.18 640.09 978.04 633.44 983.33 634.08 C 987.25 633.74 988.53 638.06 990.55 640.53 C 993.51 644.07 995.38 648.32 998.09 652.03 C 1000.50 654.85 1004.55 653.89 1007.79 653.73 C 1005.96 649.78 1004.44 645.70 1003.43 641.47 C 1005.65 640.65 1008.52 640.34 1009.56 637.86 C 1012.27 631.86 1017.72 627.86 1022.27 623.35 C 1028.11 620.71 1034.25 618.55 1038.49 613.28 C 1036.72 609.13 1035.06 604.93 1033.60 600.67 C 1039.01 598.66 1044.26 595.90 1050.14 595.59 C 1051.18 598.53 1052.21 601.68 1054.47 603.93 C 1058.49 607.29 1064.28 607.28 1068.19 610.91 C 1069.67 611.15 1071.17 611.40 1072.67 611.66 C 1073.49 613.18 1074.31 614.70 1075.11 616.25 C 1078.06 615.40 1081.07 614.52 1083.99 613.51 C 1083.81 611.50 1083.48 609.48 1083.78 607.48 C 1086.03 603.96 1089.99 602.06 1093.29 599.68 C 1091.09 596.52 1088.95 593.18 1085.83 590.84 C 1083.39 588.94 1080.66 587.10 1079.45 584.14 C 1081.59 579.52 1087.00 578.59 1091.55 578.22 C 1090.54 574.64 1089.73 571.01 1089.18 567.33 C 1083.73 566.08 1077.88 565.22 1073.44 561.52 C 1069.65 558.68 1068.84 553.53 1069.07 549.10 C 1069.15 544.75 1073.13 542.23 1076.03 539.63 C 1075.19 538.50 1074.34 537.38 1073.52 536.27 C 1078.63 533.16 1084.84 531.32 1088.93 526.84 C 1090.44 523.04 1093.12 519.86 1094.82 516.18 C 1095.15 511.54 1097.28 507.46 1099.13 503.28 C 1095.34 499.93 1091.30 496.87 1087.59 493.44 C 1088.46 490.37 1089.08 487.23 1089.10 484.04 C 1090.26 484.02 1092.57 483.99 1093.73 483.97 C 1090.20 479.27 1089.75 473.35 1089.97 467.66 C 1098.73 469.44 1107.44 466.92 1116.10 465.79 C 1114.34 463.48 1112.56 461.27 1110.57 459.18 L 1110.14 458.71 Z" />
</g>
<g target="71" id="#3f007ffe">
<path fill="#3f007f" fill-opacity="0" d=" M 576.41 530.85 C 587.50 533.23 598.78 534.80 610.11 535.63 C 610.63 540.30 615.30 539.75 618.60 540.38 C 624.89 540.78 631.05 539.00 637.27 538.32 C 638.87 540.24 640.46 542.18 642.07 544.11 C 647.38 544.07 653.50 543.88 656.86 548.85 C 659.81 547.23 662.09 544.75 664.69 542.67 C 669.48 539.72 674.97 538.13 680.34 536.58 C 686.61 534.84 689.88 542.78 695.98 542.92 C 697.57 547.21 700.30 551.43 700.21 556.11 C 697.74 560.83 694.15 564.88 691.54 569.53 C 698.06 570.20 704.62 570.74 711.18 570.46 C 719.09 570.46 727.66 569.20 734.92 573.18 C 737.14 574.38 737.32 577.21 738.11 579.35 C 739.60 579.40 741.09 579.47 742.59 579.52 C 743.72 583.54 744.03 588.04 746.41 591.62 C 750.58 593.25 755.22 592.21 759.56 592.42 C 760.72 595.03 761.92 597.63 763.10 600.25 C 756.31 603.43 750.12 607.74 744.21 612.32 C 739.86 615.43 739.28 622.52 742.46 626.60 C 749.43 630.93 757.89 632.12 765.16 635.76 C 765.47 638.31 764.82 640.84 764.50 643.36 C 755.07 646.28 748.66 654.17 741.67 660.64 C 743.16 660.58 744.66 660.54 746.17 660.49 C 745.30 662.78 744.42 665.06 743.49 667.33 C 735.37 670.61 726.91 673.03 718.79 676.36 C 718.76 675.54 718.73 674.72 718.72 673.92 C 716.22 673.81 713.72 673.65 711.27 673.10 C 708.00 673.81 704.70 674.45 701.44 675.13 C 701.44 674.21 701.45 673.31 701.47 672.42 C 696.31 673.02 690.35 670.86 685.84 674.42 C 682.49 676.04 679.54 678.30 676.35 680.19 C 671.42 684.07 664.93 683.54 659.07 684.25 C 655.03 684.51 651.22 685.95 647.37 687.08 C 642.33 688.85 636.23 687.00 632.03 691.00 C 627.59 694.07 622.90 697.41 617.23 696.74 C 619.90 693.01 622.16 688.76 621.60 684.01 C 621.08 679.42 622.38 674.91 625.51 671.47 C 625.15 670.34 624.79 669.20 624.45 668.09 C 620.35 669.71 616.35 672.03 611.81 671.98 C 604.57 672.12 597.39 673.09 590.22 673.99 C 588.78 671.07 587.87 667.72 585.57 665.36 C 579.60 663.37 573.14 665.48 567.00 665.27 C 564.94 660.26 564.13 654.58 560.81 650.18 C 556.02 644.85 548.63 643.40 542.38 640.53 C 533.78 636.60 524.23 636.38 515.17 634.20 C 510.39 632.91 505.63 631.55 500.91 630.10 C 499.96 623.70 499.30 617.06 501.28 610.78 C 502.88 606.78 498.74 603.04 500.39 599.04 C 501.10 595.42 504.54 593.65 507.43 591.94 C 507.73 590.68 508.02 589.42 508.34 588.18 C 508.59 587.11 508.85 586.06 509.10 585.01 C 514.04 582.44 520.94 581.79 523.94 576.49 C 528.70 567.29 540.14 564.05 549.71 563.41 C 555.29 556.15 559.90 548.08 566.25 541.44 C 570.31 538.56 572.78 534.14 576.41 530.85 Z" />
</g>
<g target="57" id="#7f3f00ff">
<path fill="#7f3f00" fill-opacity="0" d=" M 437.69 577.96 C 442.67 583.11 445.35 589.79 449.33 595.62 C 451.49 597.21 454.23 597.76 456.82 598.29 C 461.35 599.23 465.03 594.88 469.56 595.59 C 475.37 596.32 481.22 598.30 487.12 597.02 C 494.35 594.47 501.37 591.35 508.34 588.18 C 508.02 589.42 507.73 590.68 507.43 591.94 C 504.54 593.65 501.10 595.42 500.39 599.04 C 498.74 603.04 502.88 606.78 501.28 610.78 C 499.30 617.06 499.96 623.70 500.91 630.10 C 499.88 635.34 498.36 640.79 495.04 645.07 C 491.41 648.66 486.48 650.44 482.29 653.26 C 484.27 652.93 486.26 652.59 488.25 652.27 C 487.30 655.77 486.60 659.32 486.19 662.93 C 480.72 663.13 474.94 662.84 469.87 665.18 C 465.35 668.08 461.82 672.50 456.61 674.30 C 456.16 677.07 456.37 680.21 454.45 682.50 C 451.04 686.47 450.91 691.90 449.35 696.67 C 447.11 701.31 453.34 705.05 451.51 709.75 C 448.58 715.20 441.50 718.94 441.62 725.63 C 445.41 733.86 452.53 740.05 457.26 747.75 C 451.18 750.76 445.31 754.93 438.33 755.49 C 431.67 756.10 425.17 759.08 421.51 764.88 C 419.18 762.69 417.13 760.18 414.46 758.41 C 410.35 757.68 406.90 760.04 403.10 760.89 C 397.52 755.43 392.75 749.20 387.87 743.13 C 385.81 740.61 385.19 737.36 384.52 734.28 C 379.75 732.40 374.35 731.29 370.89 727.16 C 366.08 721.59 361.17 716.03 357.32 709.74 C 357.07 707.24 357.65 704.75 357.96 702.28 C 359.16 702.37 360.37 702.48 361.57 702.58 C 363.69 699.49 365.81 696.41 368.22 693.55 C 366.93 688.02 370.48 683.19 372.24 678.27 C 371.79 674.77 369.75 671.61 368.65 668.27 C 371.67 666.79 374.72 665.37 377.76 663.92 C 377.55 662.36 377.37 660.81 377.21 659.26 C 379.17 656.69 381.15 653.77 384.56 653.09 C 388.97 652.05 390.95 647.74 392.09 643.79 C 393.31 643.43 395.73 642.70 396.95 642.34 C 396.37 641.01 395.76 639.70 395.16 638.40 C 399.13 638.14 403.13 636.89 404.73 632.87 C 408.38 633.22 412.79 633.60 415.41 630.45 C 416.88 628.48 419.21 625.10 416.43 623.18 C 411.80 619.69 408.57 614.82 406.84 609.33 C 410.40 607.76 415.62 607.13 416.47 602.58 C 418.72 590.88 430.12 585.68 437.69 577.96 Z" />
</g>
<g target="23" id="#7f7f7ffe">
<path fill="#7f7f7f" fill-opacity="0" d=" M 1332.58 605.51 C 1334.52 603.94 1336.37 601.36 1339.16 601.64 C 1345.02 602.26 1350.43 604.98 1356.23 605.99 C 1359.05 606.08 1361.76 605.06 1364.50 604.47 C 1367.67 610.42 1367.97 621.02 1376.36 622.38 C 1380.51 622.60 1381.96 626.90 1384.50 629.49 C 1388.79 634.02 1391.95 639.79 1397.60 642.85 C 1397.19 643.91 1396.79 644.97 1396.41 646.05 C 1400.81 648.80 1404.20 653.59 1409.67 654.31 C 1413.61 654.76 1417.31 656.83 1419.67 660.04 C 1419.21 663.69 1414.77 667.61 1418.03 670.99 C 1419.75 673.33 1422.98 671.69 1425.10 670.81 C 1429.03 668.14 1433.08 665.57 1437.81 664.55 C 1441.68 670.02 1445.31 675.66 1449.05 681.23 C 1451.22 679.41 1453.27 677.46 1455.39 675.56 C 1461.63 678.86 1464.24 685.57 1467.67 691.31 C 1469.92 694.70 1467.49 698.58 1466.79 702.06 C 1468.34 702.26 1469.92 702.45 1471.49 702.68 C 1474.25 705.93 1477.48 708.76 1480.96 711.23 C 1479.75 713.49 1478.05 715.54 1477.36 718.05 C 1477.59 721.75 1479.37 725.20 1480.76 728.63 C 1490.54 729.34 1491.95 741.20 1499.04 746.07 C 1494.21 752.22 1489.15 758.18 1484.33 764.33 C 1480.66 769.16 1474.38 770.89 1470.30 775.21 C 1470.48 777.62 1471.15 779.96 1471.81 782.29 C 1476.38 780.42 1484.23 776.55 1487.07 782.77 C 1488.75 789.57 1496.54 793.37 1495.88 800.99 C 1494.26 807.18 1488.34 812.01 1489.48 818.96 C 1489.57 828.44 1490.02 837.94 1489.24 847.42 C 1489.08 852.67 1487.77 858.22 1489.38 863.35 C 1492.84 865.95 1497.99 869.56 1496.73 874.68 C 1494.94 879.44 1490.62 882.65 1487.32 886.31 C 1476.08 896.86 1466.62 909.08 1455.69 919.93 C 1447.45 918.80 1438.84 919.20 1431.06 915.84 C 1424.43 913.83 1418.81 909.22 1411.92 908.06 C 1404.85 907.62 1401.53 916.74 1394.03 914.99 C 1386.28 913.53 1380.86 906.48 1373.19 904.74 C 1366.52 903.79 1358.30 904.20 1355.18 911.15 C 1351.60 919.35 1346.17 926.57 1340.17 933.17 C 1337.24 935.98 1333.78 938.85 1329.38 938.32 C 1324.42 938.61 1320.30 941.77 1315.92 943.71 C 1309.44 946.31 1302.14 947.22 1296.48 951.63 C 1291.72 954.15 1287.10 960.31 1281.16 957.76 C 1277.45 956.00 1273.81 958.08 1270.13 958.62 C 1258.84 958.62 1247.90 954.04 1236.53 955.73 C 1233.25 955.70 1229.41 957.67 1226.35 955.62 C 1221.82 952.72 1217.05 950.30 1212.60 947.33 C 1208.72 944.86 1208.54 939.71 1206.88 935.93 C 1205.04 934.64 1202.77 934.20 1200.71 933.48 C 1204.38 927.21 1208.45 920.91 1209.31 913.52 C 1212.08 903.32 1222.90 899.49 1231.41 895.26 C 1225.44 893.77 1219.77 891.30 1214.39 888.33 C 1215.54 883.72 1216.45 879.05 1216.83 874.32 C 1218.43 873.13 1220.05 871.96 1221.65 870.77 C 1216.92 867.48 1216.74 860.15 1221.64 856.97 C 1227.47 855.13 1233.32 858.30 1239.17 858.04 C 1245.40 857.33 1248.64 851.43 1253.55 848.40 C 1259.75 847.33 1265.61 850.59 1271.72 850.43 C 1274.03 847.62 1274.92 843.98 1276.94 840.99 C 1279.59 836.52 1284.81 834.68 1288.60 831.40 C 1293.25 829.01 1293.84 823.46 1296.78 819.66 C 1298.67 816.47 1302.77 818.55 1305.71 818.54 C 1313.78 809.68 1327.29 809.17 1335.55 800.65 C 1338.26 798.14 1341.79 795.48 1341.89 791.44 C 1342.07 786.66 1339.10 782.38 1335.14 779.95 C 1329.78 776.63 1324.29 771.84 1323.52 765.23 C 1324.62 760.48 1330.43 759.70 1333.53 756.58 C 1340.20 749.74 1346.91 742.71 1351.43 734.18 C 1356.98 728.46 1366.51 730.48 1372.59 725.61 C 1374.41 722.18 1374.44 717.66 1372.78 714.17 C 1366.82 705.66 1356.65 701.35 1346.64 700.05 C 1342.43 696.50 1340.31 691.06 1337.64 686.35 C 1334.56 679.22 1330.65 672.52 1326.38 666.07 C 1324.44 663.50 1321.29 662.39 1318.57 660.91 C 1319.40 659.53 1320.23 658.14 1321.06 656.75 C 1319.95 656.11 1318.84 655.48 1317.75 654.85 C 1318.55 653.57 1319.35 652.28 1320.21 651.03 C 1327.53 652.49 1334.95 653.66 1342.44 653.54 C 1345.79 653.29 1347.57 649.99 1349.62 647.76 C 1351.72 648.22 1353.82 648.67 1355.95 649.12 C 1354.91 643.86 1353.56 638.67 1351.98 633.56 C 1350.72 634.90 1349.49 636.25 1348.28 637.63 C 1342.88 632.19 1337.83 626.42 1333.21 620.32 C 1334.21 620.07 1335.22 619.84 1336.26 619.62 C 1336.02 615.73 1335.61 611.88 1335.99 608.01 C 1334.86 607.17 1333.70 606.33 1332.58 605.51 Z" />
</g>
<g target="56" id="#003f00fe">
<path fill="#003f00" fill-opacity="0" d=" M 500.91 630.10 C 505.63 631.55 510.39 632.91 515.17 634.20 C 524.23 636.38 533.78 636.60 542.38 640.53 C 548.63 643.40 556.02 644.85 560.81 650.18 C 564.13 654.58 564.94 660.26 567.00 665.27 C 573.14 665.48 579.60 663.37 585.57 665.36 C 587.87 667.72 588.78 671.07 590.22 673.99 C 597.39 673.09 604.57 672.12 611.81 671.98 C 616.35 672.03 620.35 669.71 624.45 668.09 C 624.79 669.20 625.15 670.34 625.51 671.47 C 622.38 674.91 621.08 679.42 621.60 684.01 C 622.16 688.76 619.90 693.01 617.23 696.74 C 622.90 697.41 627.59 694.07 632.03 691.00 C 636.23 687.00 642.33 688.85 647.37 687.08 C 646.71 692.23 646.60 697.48 648.18 702.50 C 649.45 705.74 645.43 707.27 643.58 709.15 C 645.03 709.29 646.49 709.43 647.96 709.58 C 646.42 715.58 645.51 721.72 645.59 727.91 C 644.20 732.66 641.70 737.18 641.87 742.29 C 636.07 744.34 630.57 747.16 624.78 749.24 C 619.19 750.63 613.41 750.15 607.72 750.44 C 604.48 750.60 602.05 752.99 599.46 754.67 C 598.63 753.32 597.79 751.96 596.97 750.63 C 587.52 753.95 580.27 761.14 573.09 767.81 C 569.61 764.10 565.77 760.74 561.49 757.99 C 561.96 756.07 562.69 754.49 563.22 752.67 C 558.42 746.68 551.28 742.20 549.76 734.12 C 544.63 737.69 539.33 741.53 533.03 742.56 C 524.98 743.77 518.77 749.82 510.92 751.70 C 505.23 753.37 499.09 749.88 493.64 752.73 C 489.96 754.77 485.86 755.71 481.71 756.19 C 481.68 754.37 481.66 752.55 481.64 750.75 C 477.43 753.32 474.74 757.50 471.83 761.34 C 469.28 756.57 466.68 751.83 463.96 747.17 C 461.72 747.38 459.49 747.58 457.26 747.75 C 452.53 740.05 445.41 733.86 441.62 725.63 C 441.50 718.94 448.58 715.20 451.51 709.75 C 453.34 705.05 447.11 701.31 449.35 696.67 C 450.91 691.90 451.04 686.47 454.45 682.50 C 456.37 680.21 456.16 677.07 456.61 674.30 C 461.82 672.50 465.35 668.08 469.87 665.18 C 474.94 662.84 480.72 663.13 486.19 662.93 C 486.60 659.32 487.30 655.77 488.25 652.27 C 486.26 652.59 484.27 652.93 482.29 653.26 C 486.48 650.44 491.41 648.66 495.04 645.07 C 498.36 640.79 499.88 635.34 500.91 630.10 Z" />
</g>
<g target="4" id="#3f0000ff">
<path fill="#3f0000" fill-opacity="0" d=" M 1305.55 646.87 C 1313.13 646.92 1318.97 640.19 1326.70 641.62 C 1324.67 644.85 1322.39 647.91 1320.21 651.03 C 1319.35 652.28 1318.55 653.57 1317.75 654.85 C 1318.84 655.48 1319.95 656.11 1321.06 656.75 C 1320.23 658.14 1319.40 659.53 1318.57 660.91 C 1321.29 662.39 1324.44 663.50 1326.38 666.07 C 1330.65 672.52 1334.56 679.22 1337.64 686.35 C 1340.31 691.06 1342.43 696.50 1346.64 700.05 C 1356.65 701.35 1366.82 705.66 1372.78 714.17 C 1374.44 717.66 1374.41 722.18 1372.59 725.61 C 1366.51 730.48 1356.98 728.46 1351.43 734.18 C 1346.91 742.71 1340.20 749.74 1333.53 756.58 C 1330.43 759.70 1324.62 760.48 1323.52 765.23 C 1324.29 771.84 1329.78 776.63 1335.14 779.95 C 1339.10 782.38 1342.07 786.66 1341.89 791.44 C 1341.79 795.48 1338.26 798.14 1335.55 800.65 C 1327.29 809.17 1313.78 809.68 1305.71 818.54 C 1302.77 818.55 1298.67 816.47 1296.78 819.66 C 1293.84 823.46 1293.25 829.01 1288.60 831.40 C 1284.81 834.68 1279.59 836.52 1276.94 840.99 C 1274.92 843.98 1274.03 847.62 1271.72 850.43 C 1265.61 850.59 1259.75 847.33 1253.55 848.40 C 1248.64 851.43 1245.40 857.33 1239.17 858.04 C 1233.32 858.30 1227.47 855.13 1221.64 856.97 C 1216.74 860.15 1216.92 867.48 1221.65 870.77 C 1220.05 871.96 1218.43 873.13 1216.83 874.32 C 1216.45 879.05 1215.54 883.72 1214.39 888.33 C 1219.77 891.30 1225.44 893.77 1231.41 895.26 C 1222.90 899.49 1212.08 903.32 1209.31 913.52 C 1208.45 920.91 1204.38 927.21 1200.71 933.48 C 1196.59 933.62 1192.38 934.21 1188.33 933.32 C 1181.63 929.81 1176.66 921.20 1168.04 922.41 C 1157.66 922.27 1147.56 919.38 1137.23 918.94 C 1130.43 920.25 1124.08 923.28 1117.52 925.42 C 1111.72 926.22 1108.30 932.61 1102.23 932.19 C 1096.46 931.82 1090.39 933.26 1084.92 930.89 C 1078.39 928.05 1071.03 927.05 1065.16 922.82 C 1062.41 920.85 1059.50 919.15 1056.52 917.59 C 1056.74 910.23 1053.23 903.55 1051.84 896.48 C 1050.62 893.94 1051.27 891.43 1049.76 889.20 C 1044.61 886.49 1038.95 884.64 1033.12 884.43 C 1023.89 884.08 1016.42 877.50 1007.49 875.91 C 1001.47 874.48 994.27 876.10 989.35 871.66 C 983.22 866.95 972.22 868.03 968.73 860.22 C 969.18 854.10 969.98 847.96 969.51 841.82 C 969.48 836.88 963.76 835.56 960.25 833.62 C 962.93 827.63 966.09 821.88 968.94 815.98 C 967.89 815.71 966.85 815.46 965.82 815.22 C 966.59 813.80 967.36 812.39 968.15 810.99 C 970.15 811.50 972.16 812.03 974.18 812.55 C 974.35 812.13 974.71 811.29 974.88 810.87 C 976.05 808.46 976.95 805.67 979.11 803.96 C 983.43 801.91 989.44 801.60 991.64 796.59 C 994.99 795.86 998.10 794.40 1000.94 792.48 C 1002.59 798.05 1004.02 804.24 1009.12 807.79 C 1014.26 812.67 1020.59 815.84 1026.74 819.21 C 1034.11 823.15 1038.28 831.21 1046.05 834.59 C 1051.69 836.05 1058.69 834.01 1062.92 839.03 C 1067.12 843.02 1071.79 846.40 1076.73 849.44 C 1081.18 852.38 1079.69 858.63 1082.41 862.68 C 1086.27 865.51 1091.42 863.75 1095.71 865.30 C 1097.97 868.78 1097.82 873.18 1098.64 877.10 C 1104.67 873.16 1111.23 870.14 1118.14 868.13 C 1118.22 866.72 1118.30 865.32 1118.40 863.94 C 1122.87 862.61 1127.10 860.67 1131.36 858.78 C 1136.94 856.53 1143.02 854.80 1147.72 850.94 C 1151.01 843.98 1152.08 836.15 1154.97 829.01 C 1155.53 827.68 1156.10 826.36 1156.74 825.08 C 1160.24 824.81 1163.73 825.32 1167.06 826.43 C 1170.75 821.67 1174.59 816.81 1179.91 813.79 C 1183.44 811.31 1187.87 810.70 1191.45 808.30 C 1193.76 806.27 1195.67 803.84 1197.47 801.36 C 1195.86 801.36 1194.29 801.40 1192.71 801.43 C 1195.76 792.52 1198.98 783.65 1203.18 775.20 C 1208.45 764.81 1206.49 752.98 1206.57 741.79 C 1206.65 735.69 1205.92 729.48 1203.43 723.86 C 1199.51 731.26 1196.71 739.20 1194.33 747.21 C 1195.17 735.15 1192.68 723.05 1188.31 711.84 C 1186.76 706.88 1188.92 701.68 1189.37 696.72 C 1191.61 696.50 1193.86 696.24 1196.11 695.97 C 1190.47 691.92 1185.29 687.23 1179.19 683.88 C 1180.17 680.61 1179.91 676.11 1183.56 674.50 C 1188.50 671.64 1194.30 670.91 1199.66 669.10 C 1203.17 668.10 1202.87 663.65 1203.91 660.82 C 1211.98 661.90 1220.31 664.70 1228.49 662.86 C 1231.61 661.11 1232.07 657.12 1233.37 654.11 C 1233.99 653.93 1234.62 653.75 1235.28 653.59 C 1237.47 655.57 1239.48 658.40 1242.65 658.74 C 1248.05 659.37 1253.86 660.74 1258.79 657.60 C 1261.06 660.60 1263.13 664.44 1267.52 664.60 C 1271.40 665.75 1275.46 665.00 1279.43 664.88 C 1282.96 664.73 1286.26 666.22 1289.52 667.40 C 1290.37 665.71 1291.27 664.04 1292.20 662.39 C 1296.33 661.56 1300.51 660.69 1304.64 659.77 C 1305.00 655.47 1305.45 651.18 1305.55 646.87 Z" />
</g>
<g target="44" id="#3f7f7ffe">
<path fill="#3f7f7f" fill-opacity="0" d=" M 718.79 676.36 C 726.91 673.03 735.37 670.61 743.49 667.33 C 742.21 671.02 740.22 674.43 737.40 677.15 C 739.87 681.43 743.93 684.33 747.09 688.02 C 749.56 692.62 751.33 698.02 751.07 703.27 C 747.30 706.30 742.14 706.61 738.12 709.21 C 735.85 710.68 733.79 712.46 731.78 714.28 C 729.50 716.62 725.95 718.80 726.19 722.51 C 726.39 727.15 727.56 731.70 728.39 736.28 C 724.79 740.14 721.74 744.51 719.43 749.26 C 718.53 750.77 719.47 752.45 719.81 753.99 C 722.51 752.98 725.37 750.03 728.42 751.54 C 730.74 752.53 733.00 753.68 735.28 754.79 C 733.48 758.14 731.31 761.26 729.47 764.58 C 730.29 767.05 733.13 770.66 729.82 772.50 C 723.82 776.44 719.41 782.14 716.77 788.80 C 718.17 788.11 719.55 787.40 720.96 786.73 C 722.72 791.33 722.18 796.40 719.08 800.30 C 720.56 802.41 722.05 804.53 723.56 806.64 C 720.44 810.82 719.21 816.52 714.50 819.36 C 709.22 822.58 705.35 827.74 699.58 830.20 C 700.12 827.32 700.81 824.48 701.35 821.60 C 697.17 820.00 693.18 818.01 689.59 815.35 C 687.09 816.27 684.70 818.07 681.95 817.91 C 677.82 816.88 674.89 813.57 671.95 810.73 C 670.72 808.66 668.82 806.44 669.50 803.88 C 670.12 801.33 671.60 799.11 672.79 796.80 C 670.35 793.90 668.01 790.92 665.67 787.95 C 669.21 785.90 672.60 783.51 675.30 780.40 C 672.28 779.35 669.01 778.69 666.34 776.86 C 663.22 772.40 663.35 766.47 660.61 761.79 C 655.65 754.02 647.02 749.89 641.87 742.29 C 641.70 737.18 644.20 732.66 645.59 727.91 C 645.51 721.72 646.42 715.58 647.96 709.58 C 646.49 709.43 645.03 709.29 643.58 709.15 C 645.43 707.27 649.45 705.74 648.18 702.50 C 646.60 697.48 646.71 692.23 647.37 687.08 C 651.22 685.95 655.03 684.51 659.07 684.25 C 664.93 683.54 671.42 684.07 676.35 680.19 C 679.54 678.30 682.49 676.04 685.84 674.42 C 690.35 670.86 696.31 673.02 701.47 672.42 C 701.45 673.31 701.44 674.21 701.44 675.13 C 704.70 674.45 708.00 673.81 711.27 673.10 C 713.72 673.65 716.22 673.81 718.72 673.92 C 718.73 674.72 718.76 675.54 718.79 676.36 Z" />
</g>
<g target="19" id="#3f7f00fe">
<path fill="#3f7f00" fill-opacity="0" d=" M 726.19 722.51 C 725.95 718.80 729.50 716.62 731.78 714.28 C 735.67 718.93 738.04 724.58 741.62 729.47 C 748.47 731.19 755.31 728.14 762.02 727.07 C 764.73 726.37 766.10 729.55 767.75 731.12 C 770.21 734.97 774.37 737.01 778.32 738.98 C 777.68 740.76 777.05 742.55 776.45 744.35 C 782.78 749.99 784.32 758.28 786.87 765.90 C 785.52 768.94 783.36 771.75 782.77 775.08 C 782.64 778.67 783.66 782.19 784.01 785.76 C 786.58 786.57 789.15 787.37 791.73 788.19 C 791.54 790.64 791.58 793.23 790.51 795.50 C 787.15 798.26 782.81 799.50 778.79 801.02 C 778.60 803.86 778.96 806.97 777.49 809.54 C 773.25 813.83 767.94 816.71 762.86 819.85 C 757.49 823.01 754.24 828.56 750.53 833.40 C 747.46 833.61 744.31 833.67 741.40 834.72 C 734.55 839.13 738.97 850.73 730.20 853.36 C 725.54 857.64 719.55 854.75 714.13 854.90 C 714.25 853.92 714.37 852.94 714.51 851.99 C 711.07 852.68 707.64 853.38 704.28 854.36 C 700.63 856.82 698.12 861.35 693.90 862.76 C 688.46 861.13 684.89 856.05 680.64 852.52 C 683.53 850.21 686.20 847.65 688.71 844.93 C 687.05 844.60 685.42 844.29 683.78 843.97 C 685.72 840.31 687.57 836.21 691.28 834.02 C 693.94 832.54 696.86 831.58 699.58 830.20 C 705.35 827.74 709.22 822.58 714.50 819.36 C 719.21 816.52 720.44 810.82 723.56 806.64 C 722.05 804.53 720.56 802.41 719.08 800.30 C 722.18 796.40 722.72 791.33 720.96 786.73 C 719.55 787.40 718.17 788.11 716.77 788.80 C 719.41 782.14 723.82 776.44 729.82 772.50 C 733.13 770.66 730.29 767.05 729.47 764.58 C 731.31 761.26 733.48 758.14 735.28 754.79 C 733.00 753.68 730.74 752.53 728.42 751.54 C 725.37 750.03 722.51 752.98 719.81 753.99 C 719.47 752.45 718.53 750.77 719.43 749.26 C 721.74 744.51 724.79 740.14 728.39 736.28 C 727.56 731.70 726.39 727.15 726.19 722.51 Z" />
</g>
<g target="22" id="#bf7f7fff">
<path fill="#bf7f7f" fill-opacity="0" d=" M 533.03 742.56 C 539.33 741.53 544.63 737.69 549.76 734.12 C 551.28 742.20 558.42 746.68 563.22 752.67 C 562.69 754.49 561.96 756.07 561.49 757.99 C 565.77 760.74 569.61 764.10 573.09 767.81 C 580.27 761.14 587.52 753.95 596.97 750.63 C 597.79 751.96 598.63 753.32 599.46 754.67 C 602.05 752.99 604.48 750.60 607.72 750.44 C 613.41 750.15 619.19 750.63 624.78 749.24 C 630.57 747.16 636.07 744.34 641.87 742.29 C 647.02 749.89 655.65 754.02 660.61 761.79 C 663.35 766.47 663.22 772.40 666.34 776.86 C 669.01 778.69 672.28 779.35 675.30 780.40 C 672.60 783.51 669.21 785.90 665.67 787.95 C 668.01 790.92 670.35 793.90 672.79 796.80 C 671.60 799.11 670.12 801.33 669.50 803.88 C 668.82 806.44 670.72 808.66 671.95 810.73 C 667.39 808.21 661.10 810.76 659.39 815.60 C 657.99 819.48 658.07 823.65 657.73 827.71 C 653.31 827.45 649.16 829.13 644.90 829.82 C 641.36 830.05 635.17 825.84 633.87 831.01 C 631.24 839.39 622.87 844.86 614.75 847.03 C 606.33 848.09 598.26 850.71 590.21 853.26 C 585.64 854.35 582.42 858.02 578.77 860.71 C 583.08 863.19 590.26 863.97 591.23 869.66 C 591.69 870.95 590.41 871.83 589.66 872.66 C 585.97 876.22 580.53 876.21 575.77 876.87 C 576.42 878.51 577.08 880.16 577.63 881.86 C 575.46 881.05 573.27 880.28 571.09 879.54 C 568.33 881.92 564.86 883.00 561.29 882.00 C 556.49 887.47 548.43 888.39 542.26 884.85 C 538.29 882.31 533.54 885.24 529.38 883.67 C 522.60 877.56 519.28 868.15 511.41 863.20 C 510.50 866.03 509.63 868.89 508.72 871.75 C 504.28 873.16 500.03 875.11 496.09 877.60 C 490.74 869.39 480.74 863.04 480.61 852.35 C 478.62 821.94 476.79 791.44 471.83 761.34 C 474.74 757.50 477.43 753.32 481.64 750.75 C 481.66 752.55 481.68 754.37 481.71 756.19 C 485.86 755.71 489.96 754.77 493.64 752.73 C 499.09 749.88 505.23 753.37 510.92 751.70 C 518.77 749.82 524.98 743.77 533.03 742.56 Z" />
</g>
<g target="17" id="#bf0000ff">
<path fill="#bf0000" fill-opacity="0" d=" M 913.84 780.43 C 916.78 782.47 919.87 784.29 923.01 786.02 C 928.39 788.79 931.97 794.67 938.57 794.99 C 943.89 796.17 946.62 801.68 951.43 803.81 C 956.18 804.06 961.06 801.90 965.65 804.16 C 968.73 806.38 971.48 809.08 974.88 810.87 C 974.71 811.29 974.35 812.13 974.18 812.55 C 972.16 812.03 970.15 811.50 968.15 810.99 C 967.36 812.39 966.59 813.80 965.82 815.22 C 966.85 815.46 967.89 815.71 968.94 815.98 C 966.09 821.88 962.93 827.63 960.25 833.62 C 963.76 835.56 969.48 836.88 969.51 841.82 C 969.98 847.96 969.18 854.10 968.73 860.22 C 965.12 863.18 964.34 868.03 961.62 871.61 C 958.94 873.85 955.40 874.77 952.36 876.39 C 951.40 879.45 950.73 882.59 949.74 885.65 C 948.22 886.02 945.18 886.75 943.66 887.12 C 944.91 890.76 942.09 896.51 945.76 899.20 C 947.60 900.65 949.78 901.59 951.86 902.65 C 951.35 913.46 954.15 925.94 947.66 935.54 C 945.28 940.07 940.75 942.91 935.90 944.20 C 931.17 945.41 928.54 950.69 924.04 951.95 C 920.20 950.67 917.96 946.36 914.01 945.11 C 909.85 943.72 905.42 944.26 901.13 944.09 C 897.28 943.29 893.75 941.19 889.75 941.07 C 882.32 940.05 875.40 945.57 867.98 943.04 C 864.63 941.91 861.79 939.46 858.11 939.26 C 855.85 938.52 853.03 938.63 851.43 936.64 C 846.93 931.48 846.69 924.30 844.94 917.97 C 834.40 916.67 823.79 916.82 813.22 916.17 C 812.29 913.32 811.37 910.46 810.45 907.61 C 808.30 908.90 806.31 910.43 804.23 911.82 C 801.70 909.46 799.16 907.10 797.04 904.37 C 795.83 906.34 794.95 908.60 793.26 910.22 C 789.13 910.82 784.92 910.49 780.81 911.12 C 776.05 913.10 772.76 918.59 767.17 918.42 C 762.36 918.58 757.58 918.20 752.79 918.04 C 752.66 920.69 752.72 923.34 752.75 926.01 C 749.44 928.54 745.21 928.68 741.25 929.27 C 740.37 930.59 739.51 931.94 738.67 933.29 C 732.62 933.59 726.64 934.52 720.65 935.32 C 717.54 928.40 714.47 921.41 713.06 913.93 C 712.38 910.67 709.78 908.39 707.30 906.42 C 709.49 903.87 712.02 901.62 713.93 898.84 C 715.78 899.92 717.73 902.47 720.07 901.35 C 721.68 900.68 723.11 899.65 724.57 898.71 C 721.42 895.38 718.23 891.97 716.16 887.85 C 713.48 882.65 708.87 878.61 706.87 873.05 C 705.24 866.92 706.92 860.31 704.28 854.36 C 707.64 853.38 711.07 852.68 714.51 851.99 C 714.37 852.94 714.25 853.92 714.13 854.90 C 719.55 854.75 725.54 857.64 730.20 853.36 C 738.97 850.73 734.55 839.13 741.40 834.72 C 744.31 833.67 747.46 833.61 750.53 833.40 C 752.89 836.86 755.23 840.35 757.38 843.97 C 761.74 844.17 766.07 844.87 770.40 845.43 C 777.13 846.23 783.19 850.00 790.09 849.89 C 796.35 849.74 802.73 849.39 808.79 847.70 C 813.67 845.21 817.85 841.54 822.71 838.98 C 825.82 837.11 829.80 836.20 831.81 832.93 C 836.21 826.00 840.10 818.68 845.58 812.52 C 848.15 809.57 852.21 809.26 855.81 808.67 C 857.65 803.70 859.69 798.73 860.34 793.43 C 866.43 792.07 872.69 792.07 878.88 791.63 C 887.73 790.09 896.51 787.59 905.55 787.60 C 907.76 787.58 909.66 786.25 911.09 784.67 C 912.02 783.27 912.92 781.85 913.84 780.43 Z" />
</g>
<g target="2" id="#bf007ffe">
<path fill="#bf007f" fill-opacity="0" d=" M 659.39 815.60 C 661.10 810.76 667.39 808.21 671.95 810.73 C 674.89 813.57 677.82 816.88 681.95 817.91 C 684.70 818.07 687.09 816.27 689.59 815.35 C 693.18 818.01 697.17 820.00 701.35 821.60 C 700.81 824.48 700.12 827.32 699.58 830.20 C 696.86 831.58 693.94 832.54 691.28 834.02 C 687.57 836.21 685.72 840.31 683.78 843.97 C 685.42 844.29 687.05 844.60 688.71 844.93 C 686.20 847.65 683.53 850.21 680.64 852.52 C 684.89 856.05 688.46 861.13 693.90 862.76 C 698.12 861.35 700.63 856.82 704.28 854.36 C 706.92 860.31 705.24 866.92 706.87 873.05 C 708.87 878.61 713.48 882.65 716.16 887.85 C 718.23 891.97 721.42 895.38 724.57 898.71 C 723.11 899.65 721.68 900.68 720.07 901.35 C 717.73 902.47 715.78 899.92 713.93 898.84 C 712.02 901.62 709.49 903.87 707.30 906.42 C 709.78 908.39 712.38 910.67 713.06 913.93 C 714.47 921.41 717.54 928.40 720.65 935.32 C 721.53 937.89 723.76 941.03 721.74 943.62 C 717.16 946.62 711.12 946.35 706.73 949.77 C 704.31 951.81 701.06 950.79 698.20 950.66 C 698.03 951.12 697.71 952.02 697.55 952.47 C 691.05 951.82 684.11 949.87 677.90 952.69 C 678.22 954.46 678.53 956.24 678.86 958.02 C 671.74 961.60 663.77 962.72 656.17 964.84 C 649.08 957.07 642.40 948.89 637.43 939.58 C 633.96 940.97 631.10 943.66 627.68 944.98 C 620.93 943.65 614.95 939.66 608.06 938.73 C 601.03 932.03 595.24 923.25 593.35 913.52 C 586.94 908.87 583.11 901.68 578.55 895.41 C 575.47 891.40 577.84 886.35 577.63 881.86 C 577.08 880.16 576.42 878.51 575.77 876.87 C 580.53 876.21 585.97 876.22 589.66 872.66 C 590.41 871.83 591.69 870.95 591.23 869.66 C 590.26 863.97 583.08 863.19 578.77 860.71 C 582.42 858.02 585.64 854.35 590.21 853.26 C 598.26 850.71 606.33 848.09 614.75 847.03 C 622.87 844.86 631.24 839.39 633.87 831.01 C 635.17 825.84 641.36 830.05 644.90 829.82 C 649.16 829.13 653.31 827.45 657.73 827.71 C 658.07 823.65 657.99 819.48 659.39 815.60 Z" />
</g>
</svg>
