<?xml version="1.0" encoding="UTF-8" ?>
<!DOCTYPE svg PUBLIC "-//W3C//DTD SVG 1.1//EN" "http://www.w3.org/Graphics/SVG/1.1/DTD/svg11.dtd">
<svg width="1920pt" height="1080pt" viewBox="0 0 1920 1080" version="1.1" xmlns="http://www.w3.org/2000/svg">
<g target="14">
	
<path fill="#bf3f3f" fill-opacity="0" d=" M 1014.15 173.13 C 1015.69 172.65 1017.25 172.18 1018.82 171.72 C 1018.87 176.22 1018.99 180.73 1019.07 185.24 C 1025.52 187.39 1032.46 185.68 1039.08 186.92 C 1038.90 197.45 1038.18 207.96 1037.11 218.44 C 1040.94 219.08 1045.43 218.78 1048.73 221.31 C 1052.22 223.48 1055.00 227.29 1059.59 227.19 C 1065.42 227.86 1070.92 230.02 1075.83 233.21 C 1083.21 238.11 1092.57 234.83 1100.64 233.73 C 1118.17 230.27 1136.58 230.70 1153.50 236.79 C 1154.04 235.54 1154.61 234.30 1155.20 233.05 C 1155.92 233.02 1157.37 232.96 1158.10 232.93 C 1158.16 237.18 1158.75 241.43 1160.42 245.38 C 1161.50 240.83 1162.47 236.26 1163.40 231.69 C 1165.22 232.75 1167.05 233.83 1168.87 234.92 C 1168.51 239.85 1163.82 248.01 1170.80 249.76 C 1172.25 244.53 1172.53 238.76 1175.68 234.17 C 1175.70 238.95 1174.84 243.67 1174.35 248.42 C 1175.29 249.36 1176.25 250.31 1177.20 251.26 C 1180.37 250.17 1183.58 249.31 1186.84 248.41 L 1187.32 248.76 C 1194.68 253.79 1203.07 258.62 1206.63 267.30 C 1202.68 267.08 1198.74 266.37 1194.83 267.11 C 1186.08 268.81 1177.22 269.92 1168.53 271.89 C 1168.61 275.06 1167.67 278.37 1168.61 281.47 C 1172.42 287.17 1180.22 286.18 1185.53 289.43 C 1187.30 292.52 1187.62 296.22 1189.11 299.46 C 1189.95 300.87 1190.90 302.22 1191.85 303.58 C 1187.13 301.92 1182.67 303.96 1179.55 307.56 C 1175.61 305.97 1171.66 303.77 1167.29 303.98 C 1159.13 304.34 1150.96 304.40 1142.80 304.20 C 1143.44 305.81 1144.09 307.43 1144.56 309.11 C 1141.69 310.16 1138.53 310.05 1135.64 310.94 C 1135.96 313.36 1136.68 315.72 1137.38 318.06 C 1134.51 319.61 1131.27 320.79 1129.10 323.32 C 1128.96 326.76 1132.65 328.63 1134.72 330.87 C 1130.32 336.96 1122.18 334.56 1116.04 336.97 C 1113.14 337.76 1110.49 339.17 1108.04 340.85 C 1104.31 339.80 1101.43 337.20 1098.20 335.26 C 1094.39 335.05 1090.68 336.92 1086.83 336.70 C 1082.13 336.47 1077.39 335.81 1072.75 336.86 C 1074.10 338.53 1075.51 340.18 1076.89 341.85 C 1076.30 343.40 1075.73 344.96 1075.18 346.52 C 1072.97 345.44 1070.88 344.16 1068.75 342.97 C 1064.58 343.77 1060.41 342.96 1056.26 342.60 C 1051.01 341.97 1047.43 346.77 1043.81 349.77 C 1040.96 354.15 1037.89 360.54 1041.80 365.15 C 1046.76 371.81 1041.35 380.03 1036.01 384.49 C 1033.84 386.73 1031.77 389.20 1028.98 390.69 C 1024.16 387.93 1019.30 385.08 1013.67 384.31 C 1005.23 390.38 993.57 386.65 985.93 381.03 C 981.62 378.16 976.24 373.66 970.86 376.72 C 967.37 377.88 967.57 382.08 966.86 385.03 C 962.16 387.87 960.41 393.93 955.13 395.95 C 950.53 397.84 945.54 398.93 941.34 401.70 C 938.30 403.86 935.42 406.22 932.63 408.68 C 934.04 410.21 935.47 411.73 936.91 413.26 C 934.68 420.70 931.60 428.17 932.54 436.11 C 929.25 435.12 925.57 433.96 922.16 434.88 C 917.94 437.99 914.58 442.64 908.82 443.09 C 901.43 444.43 894.21 440.83 887.17 439.02 C 883.68 441.97 881.04 446.23 876.87 448.27 C 872.15 447.91 867.62 446.28 862.88 445.96 C 854.72 445.25 845.60 443.03 838.15 447.79 C 832.18 453.32 826.72 459.40 821.50 465.63 C 820.04 467.41 819.51 469.70 818.80 471.84 C 815.41 469.81 811.77 467.89 807.71 467.96 C 810.56 472.07 813.71 475.98 816.41 480.21 C 811.82 482.76 807.59 485.96 804.31 490.08 C 802.15 489.88 799.97 489.69 797.82 489.52 C 800.62 494.22 804.34 498.30 807.71 502.59 C 805.68 504.94 803.67 507.31 801.47 509.49 C 798.34 510.84 794.09 509.68 791.80 512.67 C 787.83 517.74 782.72 523.03 783.40 530.02 C 777.31 527.81 770.68 528.75 764.35 528.33 C 759.49 528.28 754.52 527.13 749.72 528.32 C 746.58 529.20 746.12 534.29 742.40 533.79 C 736.74 533.07 732.15 528.83 726.43 528.30 C 722.71 527.82 719.01 528.68 715.35 529.27 C 708.84 526.15 701.94 529.74 695.24 529.37 C 690.10 528.24 686.95 523.16 681.70 522.07 C 676.19 519.62 669.70 521.64 664.43 518.45 C 660.30 514.34 660.51 505.57 653.66 504.84 C 647.92 504.28 642.79 501.18 637.00 501.01 C 633.27 496.75 628.42 493.91 622.70 493.96 C 622.14 492.00 621.58 490.05 621.07 488.09 C 611.14 485.30 600.44 485.68 590.74 489.26 C 590.32 485.96 591.76 482.93 592.31 479.76 C 592.01 475.68 589.17 471.63 590.98 467.50 C 593.91 462.32 599.35 458.36 599.30 451.79 C 599.83 445.54 602.46 439.85 605.29 434.37 C 599.69 437.38 590.36 436.68 588.54 429.48 C 585.64 424.50 589.58 419.98 592.32 416.19 C 588.85 414.41 585.58 411.09 581.36 411.87 C 576.21 411.93 572.38 415.75 567.77 417.42 C 562.06 419.39 557.07 422.90 551.45 425.05 C 545.77 427.17 540.32 429.88 535.30 433.27 C 529.13 438.17 520.05 436.50 514.40 442.22 C 512.25 439.24 511.06 435.39 508.15 433.07 C 504.88 432.35 501.50 431.40 498.12 431.70 C 492.34 433.00 486.30 437.46 480.42 434.64 C 476.49 430.17 474.03 423.14 476.61 417.45 C 482.07 412.54 488.83 409.25 494.21 404.20 C 501.73 396.34 512.40 392.96 520.98 386.52 C 520.19 384.30 519.41 382.08 518.66 379.85 C 521.46 376.68 522.55 372.44 525.06 369.12 C 528.07 367.11 531.57 366.00 534.77 364.31 C 534.09 361.69 533.45 359.06 532.90 356.42 C 536.49 354.50 540.47 353.14 543.65 350.53 C 545.74 345.68 541.34 341.21 541.26 336.38 C 543.84 333.17 548.01 331.76 552.11 332.55 C 547.62 330.47 542.66 329.16 538.51 326.49 C 535.88 323.21 532.56 316.26 538.05 314.06 C 545.12 309.10 553.43 306.50 561.29 303.15 C 567.52 296.17 571.99 287.30 580.67 282.89 C 580.15 281.37 579.61 279.87 579.11 278.36 C 586.98 276.59 595.40 275.11 601.78 269.79 C 608.90 264.19 616.90 259.68 623.68 253.66 C 626.91 250.86 626.92 244.49 631.92 244.05 C 641.78 243.00 651.63 241.41 661.55 241.27 C 666.47 238.32 671.46 235.41 677.09 234.01 C 686.46 229.39 697.16 229.75 707.12 227.32 C 714.16 221.05 715.25 210.71 722.26 204.40 C 724.89 200.91 729.19 199.66 733.05 197.98 C 738.99 195.14 745.68 197.29 751.99 196.63 C 752.23 197.77 752.47 198.91 752.71 200.05 C 761.36 199.89 770.36 197.65 778.69 201.00 C 778.13 198.31 777.63 195.61 777.15 192.91 C 777.77 192.98 779.02 193.12 779.65 193.19 C 780.06 195.76 780.76 198.41 781.25 200.99 C 783.29 201.16 785.33 201.29 787.38 201.45 C 794.20 211.85 807.79 207.05 818.04 209.53 C 820.64 205.49 823.58 201.69 826.64 197.98 C 826.81 198.67 827.14 200.04 827.31 200.73 C 830.94 200.23 834.58 199.74 838.25 199.31 C 838.91 200.35 839.60 201.41 840.29 202.45 C 844.01 203.05 847.63 204.29 851.43 204.31 C 858.24 203.26 864.17 207.00 869.69 210.38 C 870.36 219.75 870.58 229.21 872.22 238.49 C 881.71 234.90 885.78 222.58 896.84 222.58 C 897.45 224.95 898.07 227.33 898.71 229.71 C 907.44 232.24 915.24 226.17 923.94 226.68 C 923.43 216.85 923.02 207.02 922.89 197.18 C 924.18 197.38 925.49 197.59 926.80 197.79 C 926.58 192.16 925.72 186.31 927.86 180.92 C 929.19 181.74 930.53 182.57 931.88 183.39 C 932.73 198.58 931.01 213.71 929.78 228.82 C 935.10 227.83 942.44 230.18 945.54 224.45 C 947.71 225.90 949.90 227.32 952.18 228.61 C 954.37 223.74 950.48 222.65 947.63 221.40 C 944.08 220.01 940.59 218.43 937.13 216.89 C 937.07 207.62 936.75 198.37 936.68 189.11 C 936.36 183.73 941.01 178.25 946.60 178.45 C 952.51 177.21 957.91 180.37 963.46 181.80 C 965.51 180.23 967.66 177.52 970.56 178.63 C 978.85 180.85 987.61 180.74 995.83 183.25 C 997.54 183.41 997.41 185.16 997.45 186.45 C 997.32 195.99 997.06 205.54 996.34 215.06 C 997.97 215.04 1001.24 215.00 1002.87 214.99 C 1002.89 204.35 1003.00 193.69 1004.68 183.16 C 1007.22 184.33 1009.88 185.25 1012.68 185.56 C 1013.12 181.41 1013.64 177.27 1014.15 173.13 Z" />
<path fill="#bf3f3f" fill-opacity="0" d=" M 1043.14 177.02 C 1043.83 177.03 1045.20 177.05 1045.89 177.06 C 1045.12 187.08 1044.73 197.13 1043.85 207.15 C 1043.22 206.97 1041.95 206.61 1041.31 206.43 C 1041.92 196.63 1042.59 186.83 1043.14 177.02 Z" />
<path fill="#bf3f3f" fill-opacity="0" d=" M 1059.61 199.60 C 1058.58 189.13 1060.35 178.65 1062.34 168.40 C 1062.39 178.85 1061.98 189.38 1059.61 199.60 Z" />
</g>
<g target="82">
<path fill="#1f0000" fill-opacity="0" d=" M 1291.94 213.59 C 1299.49 214.26 1307.31 214.77 1314.34 217.92 C 1311.87 225.39 1309.39 232.87 1308.33 240.70 C 1312.91 232.68 1314.44 223.35 1317.57 214.75 C 1318.19 214.52 1319.44 214.05 1320.06 213.82 C 1317.25 222.48 1314.66 231.20 1311.96 239.90 C 1323.12 240.80 1334.10 243.05 1344.92 245.92 C 1357.83 248.32 1370.49 251.87 1383.32 254.67 C 1394.99 257.41 1406.91 259.86 1417.78 265.10 C 1426.68 267.21 1436.42 262.65 1445.03 266.91 C 1452.13 269.60 1459.49 271.45 1466.87 273.18 C 1471.69 274.02 1473.30 279.34 1476.23 282.51 C 1475.84 284.66 1476.54 287.02 1476.44 289.22 C 1478.88 290.84 1481.10 292.90 1482.24 295.67 C 1483.28 295.63 1484.33 295.59 1485.41 295.55 C 1487.90 298.18 1490.92 300.21 1494.16 301.82 C 1489.84 312.18 1484.35 322.00 1479.55 332.14 C 1469.96 331.11 1460.94 327.33 1451.37 326.34 C 1446.49 325.71 1442.28 322.90 1437.87 321.02 C 1447.98 329.25 1461.03 332.64 1471.26 340.64 C 1473.01 343.61 1475.68 347.43 1473.96 350.92 C 1469.87 358.90 1465.54 366.75 1461.72 374.86 C 1455.27 373.94 1448.85 372.44 1442.32 372.36 C 1437.78 373.09 1435.55 377.64 1432.37 380.43 C 1433.62 374.09 1436.48 368.26 1438.92 362.33 C 1434.13 360.13 1429.47 357.66 1425.37 354.33 C 1422.27 351.73 1417.84 351.59 1414.16 352.87 C 1408.61 354.77 1402.53 355.16 1397.38 358.13 C 1391.53 361.35 1383.87 362.06 1378.41 357.63 C 1370.23 351.28 1359.64 350.97 1349.94 348.94 C 1350.61 344.80 1351.52 340.70 1352.76 336.68 C 1343.54 332.33 1334.10 327.19 1323.70 326.89 C 1319.08 326.38 1315.03 323.52 1310.37 323.30 C 1305.81 323.51 1301.21 324.32 1296.67 323.55 C 1292.55 322.57 1288.57 321.13 1284.55 319.90 C 1284.59 320.80 1284.65 321.70 1284.72 322.60 C 1277.63 319.82 1269.71 318.77 1262.51 321.83 C 1263.39 322.66 1264.30 323.49 1265.25 324.30 C 1256.13 323.87 1247.05 322.54 1238.74 318.57 C 1226.69 316.02 1214.56 313.26 1203.09 308.71 C 1199.59 307.75 1198.62 304.22 1197.56 301.27 C 1194.73 300.62 1191.94 300.01 1189.11 299.46 C 1187.62 296.22 1187.30 292.52 1185.53 289.43 C 1180.22 286.18 1172.42 287.17 1168.61 281.47 C 1167.67 278.37 1168.61 275.06 1168.53 271.89 C 1177.22 269.92 1186.08 268.81 1194.83 267.11 C 1198.74 266.37 1202.68 267.08 1206.63 267.30 C 1203.07 258.62 1194.68 253.79 1187.32 248.76 C 1193.41 247.79 1199.64 246.05 1205.87 246.99 C 1214.15 248.12 1222.50 247.63 1230.83 247.91 C 1231.85 245.18 1232.97 242.49 1234.06 239.79 C 1239.17 240.46 1244.60 240.65 1249.05 243.57 C 1249.51 241.72 1249.96 239.86 1250.44 238.01 C 1261.55 238.01 1272.66 238.76 1283.78 238.79 C 1285.78 230.17 1288.32 221.68 1291.94 213.59 Z" />
</g>
<g target="51">
<path fill="#bfbf3f" fill-opacity="0" d=" M 1189.11 299.46 C 1191.94 300.01 1194.73 300.62 1197.56 301.27 C 1198.62 304.22 1199.59 307.75 1203.09 308.71 C 1214.56 313.26 1226.69 316.02 1238.74 318.57 C 1247.05 322.54 1256.13 323.87 1265.25 324.30 C 1267.82 325.90 1270.42 327.49 1273.05 329.08 C 1271.96 330.81 1270.87 332.54 1269.76 334.25 C 1272.64 338.61 1275.78 342.95 1280.63 345.30 C 1279.93 346.05 1279.23 346.80 1278.55 347.55 C 1279.56 348.62 1280.57 349.69 1281.61 350.76 C 1280.40 351.97 1279.19 353.18 1277.98 354.37 C 1284.15 358.14 1290.54 362.10 1294.10 368.66 C 1292.60 369.50 1291.13 370.34 1289.65 371.18 C 1292.86 373.77 1296.83 376.45 1298.09 380.55 C 1296.56 390.16 1292.15 399.11 1289.14 408.33 C 1287.12 413.92 1283.53 418.74 1281.06 424.12 C 1279.49 428.09 1275.31 429.78 1272.08 432.12 C 1271.16 428.97 1270.37 425.78 1269.94 422.52 C 1267.80 423.39 1266.01 424.42 1264.01 425.44 C 1262.71 422.85 1261.00 420.45 1260.02 417.73 C 1260.21 413.40 1260.88 408.81 1258.78 404.79 C 1256.05 406.65 1253.87 409.15 1251.38 411.29 C 1248.49 409.59 1245.78 406.43 1242.25 406.54 C 1235.20 409.22 1227.82 410.95 1220.27 411.29 C 1216.65 418.38 1212.40 425.21 1209.67 432.72 C 1214.45 433.57 1221.48 434.12 1222.55 440.00 C 1221.17 449.25 1216.80 457.83 1214.75 466.96 C 1211.35 467.18 1208.02 467.22 1204.68 467.77 C 1202.03 468.26 1199.81 470.22 1197.11 470.39 C 1193.79 469.78 1190.64 468.30 1187.47 467.29 C 1184.97 469.81 1182.25 472.11 1179.83 474.71 C 1176.61 474.29 1173.44 473.84 1170.27 473.22 C 1166.03 476.93 1160.38 477.62 1154.98 477.89 C 1153.29 475.30 1149.21 473.45 1149.81 469.90 C 1150.12 467.05 1150.13 464.00 1150.72 461.25 C 1143.58 462.81 1146.60 472.80 1140.24 475.73 C 1140.30 471.96 1140.52 468.19 1140.80 464.44 C 1134.12 461.00 1126.75 459.35 1119.28 458.80 C 1118.00 463.81 1116.72 468.85 1114.77 473.65 C 1114.50 470.60 1114.86 467.79 1114.78 464.80 C 1113.96 466.39 1113.15 467.99 1112.39 469.61 C 1110.22 469.88 1108.07 470.16 1105.94 470.45 C 1104.47 469.43 1103.04 468.33 1101.42 467.59 C 1096.88 466.85 1093.19 469.87 1088.94 470.54 C 1085.56 470.39 1082.36 469.08 1079.13 468.26 C 1080.78 459.08 1080.65 449.40 1085.05 440.92 C 1086.36 437.90 1088.35 433.46 1085.11 430.95 C 1081.30 428.23 1076.90 426.46 1072.93 424.00 C 1067.62 420.76 1059.61 424.99 1055.76 418.95 C 1057.07 412.59 1064.08 410.45 1069.81 411.25 C 1070.33 406.09 1072.50 400.43 1069.29 395.74 C 1065.54 389.88 1059.17 384.76 1051.95 384.63 C 1046.66 385.48 1041.31 385.05 1036.01 384.49 C 1041.35 380.03 1046.76 371.81 1041.80 365.15 C 1037.89 360.54 1040.96 354.15 1043.81 349.77 C 1047.43 346.77 1051.01 341.97 1056.26 342.60 C 1060.41 342.96 1064.58 343.77 1068.75 342.97 C 1070.88 344.16 1072.97 345.44 1075.18 346.52 C 1075.73 344.96 1076.30 343.40 1076.89 341.85 C 1075.51 340.18 1074.10 338.53 1072.75 336.86 C 1077.39 335.81 1082.13 336.47 1086.83 336.70 C 1090.68 336.92 1094.39 335.05 1098.20 335.26 C 1101.43 337.20 1104.31 339.80 1108.04 340.85 C 1110.49 339.17 1113.14 337.76 1116.04 336.97 C 1122.18 334.56 1130.32 336.96 1134.72 330.87 C 1132.65 328.63 1128.96 326.76 1129.10 323.32 C 1131.27 320.79 1134.51 319.61 1137.38 318.06 C 1136.68 315.72 1135.96 313.36 1135.64 310.94 C 1138.53 310.05 1141.69 310.16 1144.56 309.11 C 1144.09 307.43 1143.44 305.81 1142.80 304.20 C 1150.96 304.40 1159.13 304.34 1167.29 303.98 C 1171.66 303.77 1175.61 305.97 1179.55 307.56 C 1182.67 303.96 1187.13 301.92 1191.85 303.58 C 1190.90 302.22 1189.95 300.87 1189.11 299.46 Z" />
<path fill="#bfbf3f" fill-opacity="0" d=" M 1218.11 464.46 C 1220.05 454.57 1222.93 444.81 1226.63 435.43 C 1225.81 445.49 1223.36 455.75 1218.11 464.46 Z" />
</g>
<g target="24">
<path fill="#3fbfbf" fill-opacity="0" d=" M 1262.51 321.83 C 1269.71 318.77 1277.63 319.82 1284.72 322.60 C 1284.65 321.70 1284.59 320.80 1284.55 319.90 C 1288.57 321.13 1292.55 322.57 1296.67 323.55 C 1301.21 324.32 1305.81 323.51 1310.37 323.30 C 1315.03 323.52 1319.08 326.38 1323.70 326.89 C 1334.10 327.19 1343.54 332.33 1352.76 336.68 C 1351.52 340.70 1350.61 344.80 1349.94 348.94 C 1359.64 350.97 1370.23 351.28 1378.41 357.63 C 1383.87 362.06 1391.53 361.35 1397.38 358.13 C 1402.53 355.16 1408.61 354.77 1414.16 352.87 C 1417.84 351.59 1422.27 351.73 1425.37 354.33 C 1429.47 357.66 1434.13 360.13 1438.92 362.33 C 1436.48 368.26 1433.62 374.09 1432.37 380.43 C 1431.26 387.07 1428.04 393.02 1425.05 398.96 C 1426.29 400.72 1427.55 402.47 1428.79 404.23 C 1424.05 413.57 1419.96 423.23 1414.88 432.40 C 1406.16 428.76 1399.18 421.00 1389.03 421.37 C 1382.25 420.72 1372.87 422.15 1371.26 430.12 C 1369.75 440.73 1364.06 450.00 1360.02 459.77 C 1362.92 460.83 1366.29 461.28 1368.78 463.31 C 1370.27 467.01 1368.31 470.84 1367.42 474.44 C 1370.51 477.90 1372.93 481.87 1375.28 485.87 C 1376.92 488.81 1381.33 486.85 1383.76 487.80 C 1386.83 491.83 1389.94 495.87 1393.02 499.93 C 1388.78 508.32 1384.61 516.74 1380.53 525.21 C 1384.51 528.68 1388.96 531.60 1392.92 535.14 C 1394.52 536.36 1393.70 538.47 1393.04 539.98 C 1388.86 548.70 1384.14 557.14 1379.71 565.73 C 1378.25 569.10 1374.21 569.37 1371.19 570.45 C 1372.60 575.03 1375.10 579.13 1378.57 582.46 C 1380.99 584.24 1379.36 587.21 1378.37 589.34 C 1374.85 595.85 1371.00 602.17 1367.64 608.77 C 1365.88 608.57 1364.13 608.37 1362.39 608.17 C 1361.34 617.35 1360.70 626.82 1356.19 635.12 C 1351.24 644.35 1346.00 653.47 1339.94 662.02 C 1339.78 659.98 1339.50 657.97 1339.24 655.96 C 1333.77 658.90 1327.44 661.39 1324.89 667.59 C 1323.25 665.84 1320.90 664.26 1320.72 661.67 C 1320.87 660.28 1321.07 658.91 1321.24 657.53 C 1320.18 656.74 1319.12 655.95 1318.12 655.11 C 1315.45 651.68 1314.67 647.16 1312.53 643.41 C 1309.57 637.63 1305.38 632.66 1301.43 627.58 C 1293.55 616.98 1288.85 604.49 1281.36 593.65 C 1272.14 578.82 1260.53 564.58 1256.89 547.07 C 1255.25 539.76 1253.92 532.32 1253.46 524.83 C 1254.34 516.97 1259.02 510.01 1259.88 502.14 C 1258.80 500.22 1257.07 498.79 1255.53 497.27 C 1257.87 489.77 1260.13 482.24 1262.82 474.86 C 1263.64 472.94 1264.33 470.64 1266.27 469.54 C 1268.74 469.24 1271.11 469.47 1273.70 469.53 C 1274.22 467.83 1274.77 466.13 1275.32 464.43 C 1278.23 464.47 1281.15 464.33 1284.07 464.21 C 1292.69 452.14 1294.10 436.64 1302.19 424.32 C 1305.48 418.76 1307.67 412.47 1308.03 405.98 C 1308.21 402.87 1305.62 400.67 1303.81 398.49 C 1302.54 402.27 1301.20 406.03 1299.86 409.79 C 1296.28 409.33 1292.66 409.13 1289.14 408.33 C 1292.15 399.11 1296.56 390.16 1298.09 380.55 C 1296.83 376.45 1292.86 373.77 1289.65 371.18 C 1291.13 370.34 1292.60 369.50 1294.10 368.66 C 1290.54 362.10 1284.15 358.14 1277.98 354.37 C 1279.19 353.18 1280.40 351.97 1281.61 350.76 C 1280.57 349.69 1279.56 348.62 1278.55 347.55 C 1279.23 346.80 1279.93 346.05 1280.63 345.30 C 1275.78 342.95 1272.64 338.61 1269.76 334.25 C 1270.87 332.54 1271.96 330.81 1273.05 329.08 C 1270.42 327.49 1267.82 325.90 1265.25 324.30 C 1264.30 323.49 1263.39 322.66 1262.51 321.83 M 1356.38 428.79 C 1353.81 435.01 1351.27 441.25 1348.22 447.26 C 1348.35 445.68 1348.52 444.13 1348.70 442.57 C 1347.39 442.11 1346.09 441.63 1344.82 441.16 C 1343.61 443.97 1342.04 446.74 1341.65 449.82 C 1341.75 452.96 1343.21 455.83 1344.48 458.64 C 1348.05 451.91 1350.75 444.79 1353.94 437.89 C 1355.21 434.95 1357.96 433.15 1360.33 431.16 C 1358.98 430.38 1357.67 429.60 1356.38 428.79 Z" />
<path fill="#3fbfbf" fill-opacity="0" d=" M 1445.84 516.82 C 1447.68 513.54 1452.59 514.83 1454.44 517.57 C 1458.91 522.69 1465.82 524.66 1470.16 529.92 C 1464.98 538.28 1459.74 546.59 1454.66 555.01 C 1446.37 551.36 1438.84 546.35 1431.24 541.50 C 1436.06 533.26 1440.26 524.60 1445.84 516.82 Z" />
<path fill="#3fbfbf" fill-opacity="0" d=" M 1478.24 523.95 C 1484.11 526.02 1489.91 528.40 1495.21 531.75 C 1489.78 539.74 1484.49 547.83 1479.59 556.15 C 1473.83 554.23 1468.21 551.87 1462.84 549.04 C 1467.57 540.43 1472.87 532.17 1478.24 523.95 Z" />
</g>
<g target="30">
<path fill="#bf3fbf" fill-opacity="0" d=" M 970.86 376.72 C 976.24 373.66 981.62 378.16 985.93 381.03 C 993.57 386.65 1005.23 390.38 1013.67 384.31 C 1019.30 385.08 1024.16 387.93 1028.98 390.69 C 1031.77 389.20 1033.84 386.73 1036.01 384.49 C 1041.31 385.05 1046.66 385.48 1051.95 384.63 C 1059.17 384.76 1065.54 389.88 1069.29 395.74 C 1072.50 400.43 1070.33 406.09 1069.81 411.25 C 1064.08 410.45 1057.07 412.59 1055.76 418.95 C 1059.61 424.99 1067.62 420.76 1072.93 424.00 C 1076.90 426.46 1081.30 428.23 1085.11 430.95 C 1088.35 433.46 1086.36 437.90 1085.05 440.92 C 1080.65 449.40 1080.78 459.08 1079.13 468.26 L 1079.01 469.08 C 1076.27 468.36 1073.55 467.59 1070.82 466.90 C 1072.11 471.99 1068.16 473.99 1064.33 473.61 C 1062.34 472.24 1061.32 469.63 1059.17 468.57 C 1045.88 467.75 1032.59 469.52 1019.34 470.28 C 1014.03 470.45 1008.84 472.03 1003.96 473.96 C 997.73 476.30 994.35 482.41 989.84 486.86 C 985.89 489.81 980.96 491.07 977.01 494.02 C 972.55 497.50 973.27 505.25 967.54 507.37 C 962.14 508.80 958.76 513.36 954.27 516.25 C 947.38 519.76 941.36 524.56 935.35 529.34 C 932.23 531.83 930.25 535.40 929.16 539.21 C 924.84 540.95 921.40 544.14 918.86 547.99 C 921.55 549.28 924.33 550.52 926.65 552.46 C 927.34 562.57 926.61 572.77 927.96 582.85 C 929.83 581.81 931.71 580.77 933.61 579.77 C 933.67 582.53 934.19 585.64 934.44 588.48 C 934.77 582.67 935.20 576.89 935.61 571.10 C 939.35 572.51 943.16 573.77 946.99 574.96 C 946.97 570.97 946.97 566.99 946.99 563.02 L 947.87 563.05 C 948.02 567.01 948.20 570.99 948.42 574.98 C 952.13 574.10 955.73 572.71 958.90 570.55 C 959.14 571.80 959.39 573.05 959.67 574.31 C 963.82 576.43 968.67 578.37 970.40 583.13 C 975.05 593.18 987.35 594.10 995.95 599.31 C 995.73 609.72 995.15 620.12 994.96 630.54 C 996.31 630.85 997.67 631.15 999.04 631.47 C 998.42 640.00 998.75 648.81 996.37 657.11 C 995.10 663.69 988.98 667.05 985.52 672.25 C 982.01 679.82 979.45 687.78 976.92 695.72 C 978.23 696.36 979.55 697.01 980.89 697.66 C 982.44 711.16 978.22 724.07 976.28 737.25 C 974.75 743.94 975.01 751.29 971.40 757.36 C 968.19 762.60 970.39 770.17 965.35 774.32 C 959.71 779.35 954.07 784.38 948.76 789.75 C 945.41 793.44 943.89 798.32 940.97 802.32 C 940.57 796.72 941.22 790.91 939.42 785.51 C 936.39 783.30 932.46 783.95 928.96 783.90 C 928.48 781.23 928.00 778.56 927.48 775.91 C 929.64 774.43 931.91 773.02 933.62 771.00 C 932.55 768.39 930.46 766.41 928.65 764.34 C 929.36 763.21 930.08 762.09 930.82 760.99 C 927.97 757.51 926.67 752.85 923.11 749.99 C 917.89 752.41 913.74 757.21 907.79 757.96 C 903.67 758.41 899.39 758.89 895.95 761.46 C 898.13 763.77 900.38 766.04 902.65 768.29 C 901.29 769.51 899.95 770.74 898.64 772.00 C 903.34 773.29 908.02 774.66 912.56 776.48 C 914.46 777.55 915.33 779.81 915.57 781.89 C 911.03 787.54 902.95 787.81 897.65 792.55 C 894.45 791.11 891.23 789.71 888.04 788.27 C 886.87 791.87 886.13 795.65 884.49 799.08 C 880.60 803.56 874.64 806.52 868.62 806.16 C 865.24 805.92 861.98 804.98 858.62 804.67 C 855.29 804.30 853.70 800.72 850.74 799.59 C 848.37 799.32 846.11 800.37 843.87 800.96 C 845.56 797.35 843.98 792.10 839.64 791.52 C 833.23 790.92 826.26 793.04 822.12 798.17 C 821.31 797.97 820.49 797.76 819.71 797.59 C 819.76 800.77 819.76 803.94 819.83 807.15 C 815.57 808.11 811.23 808.67 806.94 809.42 C 806.95 804.56 808.46 799.99 810.97 795.91 C 812.86 793.15 811.93 789.47 813.82 786.74 C 817.32 782.63 824.00 782.59 826.97 777.90 C 828.67 775.25 826.46 772.63 825.31 770.31 C 822.07 764.26 821.47 757.15 821.38 750.42 C 824.53 746.67 829.34 749.42 833.32 749.15 C 834.93 747.96 835.86 746.12 837.00 744.53 C 832.27 743.81 827.24 743.13 823.74 739.51 C 816.24 744.12 807.28 740.28 800.25 736.77 C 795.57 734.07 796.88 727.71 794.43 723.57 C 790.14 720.83 784.71 721.08 780.23 718.79 C 777.62 717.12 776.02 714.00 773.01 712.99 C 769.92 714.09 767.91 717.16 764.64 717.81 C 760.98 718.67 757.25 719.11 753.51 719.39 C 755.22 716.12 757.24 712.82 757.49 709.07 C 757.96 702.14 760.29 695.40 759.99 688.43 C 758.98 683.89 754.08 682.57 750.08 682.08 C 751.13 679.66 752.18 677.25 753.16 674.81 C 750.67 674.71 748.19 674.66 745.71 674.60 C 750.12 665.74 757.23 658.36 766.03 653.85 C 769.38 652.43 768.52 648.32 768.99 645.41 C 774.21 644.46 779.47 643.76 784.63 642.50 C 791.72 640.69 794.95 632.37 802.32 631.11 C 806.85 630.53 811.56 630.70 815.84 628.85 C 813.52 624.87 812.66 620.36 813.16 615.80 C 823.22 618.75 832.90 623.01 843.30 624.73 C 844.85 619.00 844.00 612.53 847.37 607.38 C 849.81 603.43 850.40 598.76 852.18 594.54 C 849.17 593.18 846.12 590.25 842.59 591.46 C 839.60 592.14 836.75 593.41 833.69 593.74 C 828.90 593.75 824.02 590.46 819.35 592.83 C 814.84 595.34 810.95 599.96 805.30 599.46 C 799.04 598.95 792.84 599.90 786.92 601.97 C 786.69 600.70 786.46 599.44 786.25 598.19 C 783.66 598.45 781.24 598.85 778.69 599.16 C 780.54 594.23 781.83 588.70 780.25 583.52 C 773.80 581.04 766.58 581.16 760.26 578.08 C 763.49 573.74 767.27 569.67 772.61 567.95 C 779.83 567.14 780.93 558.69 787.31 556.57 C 796.48 552.17 806.20 548.43 814.24 542.04 C 819.16 538.62 815.09 528.15 808.96 530.14 C 800.55 531.09 791.63 532.83 783.40 530.02 C 782.72 523.03 787.83 517.74 791.80 512.67 C 794.09 509.68 798.34 510.84 801.47 509.49 C 803.67 507.31 805.68 504.94 807.71 502.59 C 804.34 498.30 800.62 494.22 797.82 489.52 C 799.97 489.69 802.15 489.88 804.31 490.08 C 807.59 485.96 811.82 482.76 816.41 480.21 C 813.71 475.98 810.56 472.07 807.71 467.96 C 811.77 467.89 815.41 469.81 818.80 471.84 C 819.51 469.70 820.04 467.41 821.50 465.63 C 826.72 459.40 832.18 453.32 838.15 447.79 C 845.60 443.03 854.72 445.25 862.88 445.96 C 867.62 446.28 872.15 447.91 876.87 448.27 C 881.04 446.23 883.68 441.97 887.17 439.02 C 894.21 440.83 901.43 444.43 908.82 443.09 C 914.58 442.64 917.94 437.99 922.16 434.88 C 925.57 433.96 929.25 435.12 932.54 436.11 C 931.60 428.17 934.68 420.70 936.91 413.26 C 935.47 411.73 934.04 410.21 932.63 408.68 C 935.42 406.22 938.30 403.86 941.34 401.70 C 945.54 398.93 950.53 397.84 955.13 395.95 C 960.41 393.93 962.16 387.87 966.86 385.03 C 967.57 382.08 967.37 377.88 970.86 376.72 M 819.14 538.11 C 817.81 538.79 817.80 539.47 819.11 540.14 C 820.42 539.45 820.43 538.78 819.14 538.11 M 921.75 589.97 C 923.23 589.27 926.19 587.87 927.68 587.16 C 926.67 583.72 925.78 580.15 925.10 576.65 C 922.68 580.67 920.96 585.21 921.75 589.97 M 898.80 580.09 C 899.76 581.88 900.74 583.66 901.75 585.44 C 901.84 583.21 901.93 581.00 902.02 578.78 C 900.94 579.21 899.87 579.65 898.80 580.09 M 785.40 718.15 C 784.96 719.54 785.44 720.02 786.85 719.60 C 787.28 718.19 786.79 717.70 785.40 718.15 Z" />
<path fill="#bf3fbf" fill-opacity="0" d=" M 928.86 550.01 C 929.37 550.01 930.39 550.02 930.90 550.02 C 931.19 558.97 931.68 567.94 931.38 576.90 C 928.14 568.31 929.20 558.97 928.86 550.01 Z" />
</g>
<g target="31">
<path fill="#9f0000" fill-opacity="0" d=" M 590.74 489.26 C 600.44 485.68 611.14 485.30 621.07 488.09 C 621.58 490.05 622.14 492.00 622.70 493.96 C 628.42 493.91 633.27 496.75 637.00 501.01 C 642.79 501.18 647.92 504.28 653.66 504.84 C 660.51 505.57 660.30 514.34 664.43 518.45 C 669.70 521.64 676.19 519.62 681.70 522.07 C 686.95 523.16 690.10 528.24 695.24 529.37 C 701.94 529.74 708.84 526.15 715.35 529.27 C 719.01 528.68 722.71 527.82 726.43 528.30 C 732.15 528.83 736.74 533.07 742.40 533.79 C 746.12 534.29 746.58 529.20 749.72 528.32 C 754.52 527.13 759.49 528.28 764.35 528.33 C 770.68 528.75 777.31 527.81 783.40 530.02 C 791.63 532.83 800.55 531.09 808.96 530.14 C 815.09 528.15 819.16 538.62 814.24 542.04 C 806.20 548.43 796.48 552.17 787.31 556.57 C 780.93 558.69 779.83 567.14 772.61 567.95 C 767.27 569.67 763.49 573.74 760.26 578.08 C 766.58 581.16 773.80 581.04 780.25 583.52 C 781.83 588.70 780.54 594.23 778.69 599.16 C 781.24 598.85 783.66 598.45 786.25 598.19 C 786.46 599.44 786.69 600.70 786.92 601.97 C 792.84 599.90 799.04 598.95 805.30 599.46 C 810.95 599.96 814.84 595.34 819.35 592.83 C 824.02 590.46 828.90 593.75 833.69 593.74 C 836.75 593.41 839.60 592.14 842.59 591.46 C 846.12 590.25 849.17 593.18 852.18 594.54 C 850.40 598.76 849.81 603.43 847.37 607.38 C 844.00 612.53 844.85 619.00 843.30 624.73 C 832.90 623.01 823.22 618.75 813.16 615.80 C 812.66 620.36 813.52 624.87 815.84 628.85 C 811.56 630.70 806.85 630.53 802.32 631.11 C 794.95 632.37 791.72 640.69 784.63 642.50 C 779.47 643.76 774.21 644.46 768.99 645.41 C 768.52 648.32 769.38 652.43 766.03 653.85 C 757.23 658.36 750.12 665.74 745.71 674.60 C 748.19 674.66 750.67 674.71 753.16 674.81 C 752.18 677.25 751.13 679.66 750.08 682.08 C 754.08 682.57 758.98 683.89 759.99 688.43 C 760.29 695.40 757.96 702.14 757.49 709.07 C 757.24 712.82 755.22 716.12 753.51 719.39 C 749.31 718.97 745.70 720.97 743.24 724.33 C 740.01 728.75 732.49 727.71 730.81 733.54 C 727.50 738.96 730.02 745.00 731.54 750.50 C 723.80 747.46 721.63 738.60 715.77 733.36 C 712.24 733.35 708.24 734.14 705.19 731.90 C 702.22 730.09 699.83 727.43 696.76 725.81 C 690.71 727.79 683.16 727.22 678.63 722.37 C 673.93 714.69 670.24 706.39 667.22 697.93 C 665.99 695.27 667.45 692.38 667.80 689.73 C 668.98 684.34 666.84 678.82 668.18 673.45 C 669.41 668.40 666.00 663.95 664.95 659.21 C 663.56 651.08 665.40 642.70 663.44 634.64 C 662.16 629.14 662.41 623.23 659.84 618.09 C 656.03 614.00 650.40 617.46 646.07 615.09 C 641.12 612.09 637.23 607.54 631.75 605.32 C 621.39 600.04 610.04 607.82 599.41 603.60 C 595.68 598.31 594.04 591.86 590.69 586.32 C 588.47 582.80 587.88 578.50 589.63 574.66 C 591.36 570.98 589.55 567.17 588.41 563.63 C 590.11 560.69 591.11 557.36 592.96 554.52 C 595.70 553.37 598.83 554.47 601.66 554.11 C 599.91 550.79 598.58 547.26 597.70 543.62 C 601.45 541.33 605.42 539.03 607.75 535.15 C 602.74 531.94 601.04 525.95 601.60 520.30 C 596.92 521.77 592.01 521.76 587.17 521.70 C 585.95 518.80 584.51 515.92 583.95 512.80 C 584.76 508.94 588.06 506.08 591.76 504.98 C 589.70 500.41 588.29 495.62 587.17 490.75 C 588.35 490.23 589.52 489.69 590.74 489.26 Z" />
<path fill="#9f0000" fill-opacity="0" d=" M 819.14 538.11 C 820.43 538.78 820.42 539.45 819.11 540.14 C 817.80 539.47 817.81 538.79 819.14 538.11 Z" />
</g>
<g target="66">
<path fill="#3f3f3f" fill-opacity="0" d=" M 1011.09 571.79 C 1014.55 571.60 1017.84 570.35 1020.59 568.22 C 1022.62 570.59 1024.64 572.95 1026.70 575.34 C 1026.91 579.57 1025.58 584.30 1027.71 588.28 C 1031.00 594.86 1035.32 601.13 1036.62 608.53 C 1038.98 618.29 1035.99 628.39 1036.91 638.23 C 1042.75 650.27 1047.49 662.83 1051.23 675.70 C 1053.53 687.92 1061.08 698.12 1065.71 709.48 C 1068.71 715.12 1069.28 721.72 1072.91 727.07 C 1075.24 731.88 1081.43 733.80 1082.82 739.14 C 1085.26 747.17 1081.15 755.34 1079.83 763.22 C 1075.02 755.59 1069.07 748.47 1061.29 743.77 C 1055.00 742.08 1047.81 741.07 1041.62 743.58 C 1037.47 745.11 1037.75 750.51 1036.41 753.86 C 1034.65 760.58 1030.79 766.82 1030.98 773.99 C 1031.75 779.60 1037.08 782.58 1040.64 786.42 C 1045.53 791.26 1044.28 799.65 1049.75 804.10 C 1051.76 806.33 1055.08 805.12 1057.77 805.52 C 1059.09 811.95 1061.42 818.23 1061.59 824.86 C 1061.09 833.74 1057.71 842.01 1054.79 850.29 C 1053.53 844.48 1053.54 837.51 1048.86 833.16 C 1045.19 831.37 1040.98 831.66 1037.05 831.44 C 1036.14 829.89 1035.22 828.35 1034.35 826.82 C 1032.10 827.94 1029.11 828.51 1027.98 831.02 C 1024.46 839.27 1024.29 848.85 1019.21 856.45 C 1013.09 845.23 1011.09 831.69 1013.26 819.14 C 1014.30 812.11 1015.13 805.02 1014.36 797.92 C 1014.07 789.71 1016.70 781.68 1016.35 773.46 C 1014.37 768.78 1010.30 765.00 1009.58 759.82 C 1009.27 751.08 1010.19 742.15 1014.10 734.24 C 1014.58 725.85 1015.65 717.07 1012.92 708.89 C 1010.14 699.95 1012.90 690.58 1012.30 681.45 C 1010.91 675.03 1004.04 672.33 1001.06 666.96 C 998.39 655.24 999.78 643.15 1000.31 631.29 C 999.84 619.91 999.34 608.53 1000.05 597.15 C 1003.33 595.79 1006.57 594.39 1009.85 592.98 C 1009.88 585.89 1010.16 578.82 1011.09 571.79 Z" />
<path fill="#3f3f3f" fill-opacity="0" d=" M 1304.89 679.67 C 1308.90 671.30 1312.19 662.37 1318.12 655.11 C 1319.12 655.95 1320.18 656.74 1321.24 657.53 C 1321.07 658.91 1320.87 660.28 1320.72 661.67 C 1317.21 668.50 1313.32 675.14 1309.88 682.01 C 1309.22 681.97 1307.91 681.89 1307.25 681.85 C 1306.45 681.11 1305.66 680.38 1304.89 679.67 Z" />
<path fill="#3f3f3f" fill-opacity="0" d=" M 997.36 845.49 C 997.14 838.71 996.66 831.59 999.26 825.17 C 999.22 831.96 999.50 838.93 997.36 845.49 Z" />
<path fill="#3f3f3f" fill-opacity="0" d=" M 1195.78 851.83 C 1198.24 847.91 1201.63 844.59 1206.14 843.23 C 1206.59 846.56 1208.20 850.12 1206.44 853.34 C 1204.10 858.19 1202.20 863.46 1198.83 867.68 C 1191.70 870.79 1184.69 874.53 1179.46 880.45 C 1177.54 882.99 1174.48 883.84 1171.45 884.04 C 1166.95 891.52 1160.11 897.11 1154.46 903.64 C 1153.77 903.74 1152.39 903.95 1151.70 904.06 C 1153.48 893.34 1158.90 883.75 1163.22 873.91 C 1169.09 873.41 1170.20 866.74 1172.56 862.42 C 1173.64 862.39 1174.75 862.39 1175.87 862.41 C 1177.68 858.19 1179.43 853.94 1181.50 849.85 C 1183.52 851.68 1184.94 854.04 1186.74 856.13 C 1190.03 855.46 1194.13 855.38 1195.78 851.83 Z" />
<path fill="#3f3f3f" fill-opacity="0" d=" M 1153.06 914.05 C 1154.78 910.31 1159.09 909.12 1162.49 907.44 C 1163.50 913.33 1160.07 918.56 1157.52 923.60 C 1155.67 927.12 1151.98 929.01 1148.57 930.70 C 1147.57 924.74 1150.67 919.25 1153.06 914.05 Z" />
<path fill="#3f3f3f" fill-opacity="0" d=" M 1138.54 927.31 C 1140.62 922.81 1144.96 920.26 1148.96 917.69 C 1145.78 926.82 1141.65 935.88 1134.49 942.60 C 1134.59 940.90 1134.80 937.51 1134.90 935.81 C 1133.51 938.08 1132.11 940.34 1130.58 942.53 C 1129.84 936.54 1133.14 931.24 1135.33 925.93 C 1136.38 926.37 1137.46 926.84 1138.54 927.31 M 1135.02 935.52 C 1136.33 933.32 1137.30 930.94 1137.98 928.48 C 1136.65 930.67 1135.68 933.04 1135.02 935.52 Z" />
</g>
<g id="#3f3f3ffe">
<path fill="#3f3f3f" fill-opacity="0" d=" M 1324.89 667.59 C 1327.44 661.39 1333.77 658.90 1339.24 655.96 C 1339.50 657.97 1339.78 659.98 1339.94 662.02 C 1333.40 675.11 1326.36 688.02 1318.67 700.50 C 1318.25 703.08 1319.59 705.65 1319.15 708.25 C 1312.92 726.47 1296.95 740.18 1293.78 759.60 C 1292.69 769.39 1286.35 777.38 1281.67 785.70 C 1274.29 795.00 1270.16 806.50 1262.00 815.23 C 1261.01 814.43 1260.03 813.64 1259.06 812.87 C 1262.55 806.54 1265.62 799.90 1270.21 794.25 C 1277.30 786.92 1280.81 777.01 1287.51 769.35 C 1286.04 769.88 1284.58 770.40 1283.15 770.94 C 1283.57 764.24 1287.89 758.68 1291.02 753.01 C 1295.85 745.32 1299.07 736.76 1303.80 729.01 C 1303.42 727.61 1303.05 726.21 1302.71 724.84 C 1299.05 730.67 1297.47 738.60 1291.14 742.27 C 1294.09 733.34 1298.81 725.05 1304.55 717.62 C 1307.25 713.92 1308.92 709.62 1310.74 705.45 C 1308.28 702.83 1307.26 699.30 1306.26 695.94 C 1302.40 703.02 1298.99 710.44 1293.92 716.77 C 1294.25 713.84 1294.88 710.92 1296.33 708.34 C 1301.27 699.18 1306.02 689.84 1312.30 681.50 C 1310.54 686.09 1308.36 690.52 1306.82 695.19 C 1310.73 689.23 1313.45 682.54 1317.74 676.82 C 1320.54 674.09 1323.04 671.07 1324.89 667.59 Z" />
<path fill="#3f3f3f" fill-opacity="0" d=" M 1138.08 886.04 C 1141.90 887.80 1146.04 888.37 1150.22 888.78 C 1148.24 894.20 1146.64 899.82 1143.82 904.88 C 1140.63 908.98 1134.89 909.71 1131.22 913.22 C 1126.47 919.19 1122.67 925.91 1120.01 933.06 C 1118.00 931.03 1114.44 929.02 1115.63 925.66 C 1117.51 919.22 1119.68 912.38 1124.57 907.57 C 1130.77 901.60 1133.85 893.36 1138.08 886.04 Z" />
</g>
<g id="#403f40ff">
<path fill="#403f40" fill-opacity="0" d=" M 1312.30 681.50 C 1311.13 680.63 1312.55 678.65 1313.73 679.54 C 1314.87 680.39 1313.44 682.37 1312.30 681.50 Z" />
</g>
<g target="79">
<path fill="#7fbfbf" fill-opacity="0" d=" M 764.64 717.81 C 767.91 717.16 769.92 714.09 773.01 712.99 C 776.02 714.00 777.62 717.12 780.23 718.79 C 784.71 721.08 790.14 720.83 794.43 723.57 C 796.88 727.71 795.57 734.07 800.25 736.77 C 807.28 740.28 816.24 744.12 823.74 739.51 C 827.24 743.13 832.27 743.81 837.00 744.53 C 835.86 746.12 834.93 747.96 833.32 749.15 C 829.34 749.42 824.53 746.67 821.38 750.42 C 821.47 757.15 822.07 764.26 825.31 770.31 C 818.45 771.77 812.64 775.83 806.18 778.33 C 802.14 780.05 797.64 778.75 793.45 779.62 C 789.39 781.14 785.22 782.97 782.38 786.39 C 780.51 787.44 779.41 790.23 777.04 790.53 C 764.99 791.47 752.97 789.17 740.95 789.79 C 736.28 779.11 731.52 768.42 728.00 757.29 C 729.23 755.13 731.56 753.09 731.54 750.50 C 730.02 745.00 727.50 738.96 730.81 733.54 C 732.49 727.71 740.01 728.75 743.24 724.33 C 745.70 720.97 749.31 718.97 753.51 719.39 C 757.25 719.11 760.98 718.67 764.64 717.81 Z" />
</g>
<g id="#80bfbfff">
<path fill="#80bfbf" fill-opacity="0" d=" M 785.40 718.15 C 786.79 717.70 787.28 718.19 786.85 719.60 C 785.44 720.02 784.96 719.54 785.40 718.15 Z" />
</g>
<g id="#2b2b2baf">
<path fill="#2b2b2b" opacity="0.69" d=" M 1281.08 741.51 C 1284.39 733.88 1288.29 726.44 1292.76 719.42 C 1290.23 727.38 1286.22 734.92 1281.08 741.51 Z" />
</g>
<g id="#2a2a2aaa">
<path fill="#2a2a2a" opacity="0.67" d=" M 1290.09 749.66 C 1291.09 747.11 1292.43 744.71 1294.13 742.56 C 1293.28 745.18 1291.98 747.64 1290.09 749.66 Z" />
<path fill="#2a2a2a" opacity="0.67" d=" M 1283.33 762.65 C 1284.43 758.61 1286.08 754.69 1288.65 751.35 C 1287.69 755.44 1286.09 759.43 1283.33 762.65 Z" />
</g>
<g target="28">
<path fill="#3fbf3f" fill-opacity="0" d=" M 907.79 757.96 C 913.74 757.21 917.89 752.41 923.11 749.99 C 926.67 752.85 927.97 757.51 930.82 760.99 C 930.08 762.09 929.36 763.21 928.65 764.34 C 930.46 766.41 932.55 768.39 933.62 771.00 C 931.91 773.02 929.64 774.43 927.48 775.91 C 928.00 778.56 928.48 781.23 928.96 783.90 C 932.46 783.95 936.39 783.30 939.42 785.51 C 941.22 790.91 940.57 796.72 940.97 802.32 C 941.20 804.63 939.99 806.71 937.95 807.97 C 933.97 812.32 928.83 816.02 926.66 821.72 C 923.37 830.82 918.83 839.38 913.31 847.32 C 906.48 856.39 898.10 864.11 890.44 872.46 C 885.61 876.98 879.51 880.15 875.93 885.95 C 872.09 891.71 866.22 895.73 862.56 901.62 C 859.77 906.17 854.02 907.58 850.78 911.76 C 845.45 916.92 843.42 924.32 839.22 930.24 C 835.60 933.62 831.81 936.81 828.64 940.65 C 819.09 948.16 807.64 952.71 797.76 959.75 C 794.63 962.14 790.82 963.34 786.94 963.76 C 780.81 964.32 775.11 966.85 769.43 969.07 C 764.16 964.85 757.80 962.40 751.93 959.19 C 752.29 960.34 752.66 961.51 753.03 962.68 C 751.78 962.44 750.53 962.21 749.29 962.00 C 749.34 963.52 749.39 965.03 749.44 966.57 C 746.48 962.14 743.71 957.60 741.41 952.82 C 738.83 955.10 736.00 957.19 732.69 958.26 C 731.39 956.83 730.27 955.28 729.09 953.78 C 729.77 955.81 730.47 957.83 731.13 959.88 C 730.45 959.93 729.08 960.05 728.39 960.10 C 728.53 959.13 728.67 958.17 728.82 957.22 C 727.88 957.29 726.95 957.37 726.03 957.45 C 724.64 958.75 723.82 960.83 722.46 962.24 C 723.03 964.18 723.61 966.12 724.18 968.07 C 722.45 966.59 720.74 965.11 719.01 963.65 C 718.17 965.92 717.39 968.22 716.67 970.54 C 713.52 967.25 709.03 967.60 704.88 967.65 C 706.01 969.58 707.15 971.52 708.26 973.50 C 707.01 973.41 705.77 973.35 704.53 973.30 C 703.24 975.78 701.84 978.21 700.36 980.59 C 696.62 974.46 691.15 968.89 690.58 961.37 C 689.91 956.89 688.31 952.63 686.02 948.73 C 689.76 946.47 693.89 944.92 698.31 944.68 C 701.18 943.97 705.13 944.94 706.87 942.05 C 709.08 936.95 711.79 932.10 714.20 927.10 C 715.80 924.41 714.02 921.46 714.01 918.64 C 714.24 910.78 718.75 903.84 718.82 895.95 C 720.11 887.12 717.84 878.46 715.04 870.18 C 719.43 868.83 723.87 867.64 728.31 866.48 C 735.39 865.14 737.23 856.69 743.78 854.19 C 750.25 862.72 753.78 873.01 755.91 883.40 C 762.26 880.04 764.16 872.83 767.17 866.83 C 769.76 866.30 773.13 866.35 774.66 863.78 C 775.98 860.00 775.44 855.55 778.17 852.31 C 780.43 850.19 783.36 848.88 785.47 846.58 C 787.07 843.95 787.41 840.72 789.19 838.19 C 790.94 836.18 793.05 834.55 795.04 832.79 C 795.24 830.94 795.45 829.14 795.63 827.30 C 797.58 826.03 799.54 824.77 801.52 823.55 C 800.95 818.43 801.18 811.43 806.94 809.42 C 811.23 808.67 815.57 808.11 819.83 807.15 C 819.76 803.94 819.76 800.77 819.71 797.59 C 820.49 797.76 821.31 797.97 822.12 798.17 C 826.26 793.04 833.23 790.92 839.64 791.52 C 843.98 792.10 845.56 797.35 843.87 800.96 C 846.11 800.37 848.37 799.32 850.74 799.59 C 853.70 800.72 855.29 804.30 858.62 804.67 C 861.98 804.98 865.24 805.92 868.62 806.16 C 874.64 806.52 880.60 803.56 884.49 799.08 C 886.13 795.65 886.87 791.87 888.04 788.27 C 891.23 789.71 894.45 791.11 897.65 792.55 C 902.95 787.81 911.03 787.54 915.57 781.89 C 915.33 779.81 914.46 777.55 912.56 776.48 C 908.02 774.66 903.34 773.29 898.64 772.00 C 899.95 770.74 901.29 769.51 902.65 768.29 C 900.38 766.04 898.13 763.77 895.95 761.46 C 899.39 758.89 903.67 758.41 907.79 757.96 M 873.12 872.53 C 870.82 875.96 877.05 873.30 873.12 872.53 Z" />
</g>
<g id="#3f3f3ffd">
<path fill="#3f3f3f" fill-opacity="0" d=" M 1231.31 826.31 C 1238.66 818.70 1239.27 807.02 1246.74 799.42 C 1244.15 806.09 1240.39 812.22 1237.52 818.78 C 1239.85 818.41 1242.21 818.06 1244.61 817.73 C 1246.67 813.44 1248.67 809.00 1252.04 805.55 C 1247.54 821.13 1236.49 833.57 1227.96 847.02 C 1222.96 851.95 1218.86 858.84 1211.58 860.54 C 1216.12 848.15 1222.04 835.88 1231.31 826.31 Z" />
</g>
<g id="#bf40bfff">
<path fill="#bf40bf" fill-opacity="0" d=" M 873.12 872.53 C 877.05 873.30 870.82 875.96 873.12 872.53 Z" />
</g>
<g id="#100f0f3f">
<path fill="#100f0f" fill-opacity="0" d=" M 1135.02 935.52 C 1135.68 933.04 1136.65 930.67 1137.98 928.48 C 1137.30 930.94 1136.33 933.32 1135.02 935.52 Z" />
</g>
</svg>
