<?xml version="1.0" encoding="UTF-8" ?>
<!DOCTYPE svg PUBLIC "-//W3C//DTD SVG 1.1//EN" "http://www.w3.org/Graphics/SVG/1.1/DTD/svg11.dtd">
<svg width="1920pt" height="1080pt" viewBox="0 0 1920 1080" version="1.1" xmlns="http://www.w3.org/2000/svg">
<g id="#2f5f7fff">
<path fill="#2f5f7f" fill-opacity="0" d=" M 1216.38 252.49 C 1222.89 248.54 1230.98 253.62 1237.23 249.19 C 1234.50 257.98 1235.96 267.62 1240.59 275.48 C 1242.76 278.37 1246.63 280.83 1250.33 279.38 C 1253.83 278.57 1257.08 276.29 1260.78 276.48 C 1264.39 278.09 1263.01 282.57 1263.76 285.64 C 1265.72 288.16 1269.77 288.90 1270.57 292.30 C 1270.89 295.49 1269.90 298.62 1269.25 301.71 C 1270.63 304.55 1272.36 307.55 1270.76 310.89 C 1267.97 320.49 1264.45 329.87 1261.29 339.36 C 1259.87 344.58 1252.66 344.06 1250.91 349.04 C 1246.73 357.52 1245.26 367.04 1241.50 375.69 C 1240.34 378.53 1237.96 380.63 1235.46 382.27 C 1228.85 385.82 1224.56 392.17 1219.28 397.29 C 1216.37 397.49 1212.65 396.83 1210.85 399.74 C 1207.74 403.95 1203.93 407.68 1201.55 412.39 C 1199.69 416.73 1198.52 421.32 1197.60 425.94 C 1196.06 425.66 1194.53 425.37 1193.00 425.12 C 1194.88 415.79 1198.91 406.71 1199.24 397.15 C 1197.05 393.33 1192.26 391.79 1188.48 389.87 C 1181.52 387.20 1176.54 381.42 1172.18 375.64 C 1168.58 370.84 1161.96 374.27 1157.26 371.75 C 1155.91 367.47 1157.00 362.92 1157.58 358.60 C 1157.89 355.08 1161.09 353.06 1163.46 350.88 C 1163.50 350.36 1163.55 349.85 1163.63 349.34 C 1158.46 347.23 1153.14 345.53 1147.95 343.51 C 1147.65 343.29 1147.04 342.83 1146.73 342.60 C 1155.79 335.39 1166.55 330.05 1174.29 321.30 C 1177.43 312.98 1178.36 303.40 1184.47 296.42 C 1186.65 292.83 1191.14 293.57 1194.79 293.25 C 1196.28 287.64 1196.94 281.70 1199.57 276.49 C 1202.13 273.35 1206.14 271.85 1208.80 268.78 C 1211.69 263.54 1210.51 255.83 1216.38 252.49 Z" />
</g>
<g id="#6f1f3ffe">
<path fill="#6f1f3f" fill-opacity="0" d=" M 1118.18 350.28 C 1128.21 348.73 1139.54 350.48 1147.95 343.51 C 1153.14 345.53 1158.46 347.23 1163.63 349.34 C 1163.55 349.85 1163.50 350.36 1163.46 350.88 C 1161.09 353.06 1157.89 355.08 1157.58 358.60 C 1157.00 362.92 1155.91 367.47 1157.26 371.75 C 1161.96 374.27 1168.58 370.84 1172.18 375.64 C 1176.54 381.42 1181.52 387.20 1188.48 389.87 C 1192.26 391.79 1197.05 393.33 1199.24 397.15 C 1198.91 406.71 1194.88 415.79 1193.00 425.12 C 1190.37 434.13 1188.12 443.29 1185.00 452.12 C 1177.59 459.40 1166.18 461.30 1159.19 469.16 C 1156.03 472.69 1151.88 475.95 1150.87 480.84 C 1149.46 486.45 1148.75 492.23 1146.94 497.74 C 1145.51 502.26 1141.17 504.88 1138.79 508.82 C 1136.97 511.92 1133.68 513.57 1131.23 516.06 C 1129.21 518.85 1127.39 521.86 1124.61 523.99 C 1122.55 520.89 1120.50 517.66 1117.60 515.28 C 1114.37 513.66 1110.74 513.20 1107.23 512.66 C 1108.15 506.32 1109.58 500.08 1110.87 493.81 C 1111.97 488.83 1110.37 483.84 1110.47 478.84 C 1110.40 476.22 1110.65 473.29 1108.89 471.12 C 1103.59 471.62 1098.78 474.31 1093.47 474.78 C 1084.77 475.80 1073.63 477.68 1068.00 468.97 C 1064.10 464.55 1067.79 459.10 1069.70 454.68 C 1072.81 449.05 1074.08 442.67 1074.93 436.36 C 1070.55 436.79 1066.17 437.28 1061.78 436.89 C 1061.96 423.76 1059.31 410.86 1058.67 397.79 C 1058.75 390.86 1058.34 383.91 1056.99 377.10 C 1055.44 369.12 1055.75 360.93 1054.57 352.91 C 1075.81 352.96 1096.97 350.85 1118.18 350.28 Z" />
</g>
<g id="#2fdf7fff">
<path fill="#2fdf7f" fill-opacity="0" d=" M 844.75 349.64 C 850.69 345.86 858.07 347.38 864.64 348.10 C 874.68 349.03 884.70 350.14 894.75 350.99 C 893.13 359.04 891.90 367.15 890.35 375.21 C 888.96 382.63 888.96 390.24 887.46 397.65 C 884.65 405.85 879.47 412.93 875.66 420.65 C 868.68 434.39 862.13 448.34 855.85 462.41 C 853.38 467.68 849.50 473.06 851.29 479.22 C 853.98 486.82 859.68 492.94 862.49 500.47 C 864.11 504.56 859.99 507.98 856.76 509.62 C 848.32 513.25 839.12 514.53 830.56 517.78 C 827.26 518.89 825.60 522.22 824.09 525.10 C 816.22 523.92 808.76 520.32 800.73 520.32 C 796.97 520.17 794.51 523.40 792.13 525.81 C 791.22 525.91 790.31 526.01 789.43 526.15 C 788.98 518.78 787.71 511.30 784.27 504.70 C 781.72 502.08 778.25 499.43 774.39 500.00 C 772.37 503.78 770.89 507.83 769.30 511.80 C 760.34 502.98 757.39 490.00 754.35 478.21 C 748.24 478.93 742.13 479.52 736.00 480.01 C 728.87 467.14 733.64 452.58 735.47 439.07 C 734.44 428.20 740.14 418.00 738.32 407.08 C 758.52 398.24 778.04 387.92 798.41 379.47 C 806.88 375.15 815.58 371.34 824.27 367.52 C 828.01 366.03 827.10 361.50 828.48 358.47 C 833.40 354.72 839.47 352.83 844.75 349.64 Z" />
</g>
<g id="#6f5f00ff">
<path fill="#6f5f00" fill-opacity="0" d=" M 894.75 350.99 C 909.17 351.98 923.47 354.79 937.98 354.30 C 950.01 354.35 962.02 356.04 974.06 355.14 C 986.38 354.05 998.76 355.01 1011.10 354.44 C 1025.54 352.61 1040.09 354.18 1054.57 352.91 C 1055.75 360.93 1055.44 369.12 1056.99 377.10 C 1058.34 383.91 1058.75 390.86 1058.67 397.79 C 1059.31 410.86 1061.96 423.76 1061.78 436.89 C 1052.72 435.93 1043.74 437.82 1034.73 438.45 C 1018.12 439.51 1001.89 443.37 985.45 445.68 C 971.09 447.31 956.86 449.92 942.45 451.09 C 942.08 447.45 941.47 443.82 941.01 440.21 C 943.79 438.71 946.59 437.21 949.30 435.58 C 939.26 431.83 928.74 428.84 920.33 421.84 C 908.30 415.30 897.76 406.57 887.46 397.65 C 888.96 390.24 888.96 382.63 890.35 375.21 C 891.90 367.15 893.13 359.04 894.75 350.99 Z" />
</g>
<g id="#af9fbfff">
<path fill="#af9fbf" fill-opacity="0" d=" M 875.66 420.65 C 879.47 412.93 884.65 405.85 887.46 397.65 C 897.76 406.57 908.30 415.30 920.33 421.84 C 928.74 428.84 939.26 431.83 949.30 435.58 C 946.59 437.21 943.79 438.71 941.01 440.21 C 941.47 443.82 942.08 447.45 942.45 451.09 C 940.91 463.71 926.97 469.85 922.26 480.99 C 920.93 487.15 919.15 493.23 917.88 499.41 C 916.91 512.37 916.45 525.40 917.09 538.39 C 912.30 540.62 907.77 543.79 902.40 544.35 C 897.77 544.94 893.44 542.81 889.08 541.68 C 883.74 540.07 878.22 539.31 872.72 538.65 C 863.20 537.90 854.72 532.74 845.22 531.88 C 837.68 531.36 831.02 527.58 823.87 525.57 L 824.09 525.10 C 825.60 522.22 827.26 518.89 830.56 517.78 C 839.12 514.53 848.32 513.25 856.76 509.62 C 859.99 507.98 864.11 504.56 862.49 500.47 C 859.68 492.94 853.98 486.82 851.29 479.22 C 849.50 473.06 853.38 467.68 855.85 462.41 C 862.13 448.34 868.68 434.39 875.66 420.65 Z" />
</g>
<g id="#2f9f3fff">
<path fill="#2f9f3f" fill-opacity="0" d=" M 1034.73 438.45 C 1043.74 437.82 1052.72 435.93 1061.78 436.89 C 1066.17 437.28 1070.55 436.79 1074.93 436.36 C 1074.08 442.67 1072.81 449.05 1069.70 454.68 C 1067.79 459.10 1064.10 464.55 1068.00 468.97 C 1073.63 477.68 1084.77 475.80 1093.47 474.78 C 1098.78 474.31 1103.59 471.62 1108.89 471.12 C 1110.65 473.29 1110.40 476.22 1110.47 478.84 C 1110.37 483.84 1111.97 488.83 1110.87 493.81 C 1109.58 500.08 1108.15 506.32 1107.23 512.66 C 1106.83 518.08 1104.57 523.28 1099.84 526.24 C 1100.52 522.02 1101.35 517.84 1102.17 513.66 C 1097.48 511.98 1092.20 508.60 1087.30 511.35 C 1081.22 514.97 1075.66 519.40 1069.89 523.48 C 1067.73 523.41 1065.55 523.04 1063.42 523.42 C 1059.31 525.26 1056.48 529.98 1051.61 529.99 C 1044.12 529.87 1036.45 529.97 1029.27 527.53 C 1020.63 524.87 1010.43 522.14 1002.20 527.22 C 992.04 532.86 981.05 537.22 969.34 537.96 C 966.93 536.82 964.53 535.62 961.98 534.85 C 958.20 533.54 954.63 536.83 950.82 536.09 C 946.52 535.16 942.56 533.17 938.47 531.65 C 938.97 530.09 939.46 528.52 939.96 526.97 C 932.42 530.94 924.81 534.79 917.09 538.39 C 916.45 525.40 916.91 512.37 917.88 499.41 C 919.15 493.23 920.93 487.15 922.26 480.99 C 926.97 469.85 940.91 463.71 942.45 451.09 C 956.86 449.92 971.09 447.31 985.45 445.68 C 1001.89 443.37 1018.12 439.51 1034.73 438.45 Z" />
</g>
<g id="#efdf00ff">
<path fill="#efdf00" fill-opacity="0" d=" M 774.39 500.00 C 778.25 499.43 781.72 502.08 784.27 504.70 C 787.71 511.30 788.98 518.78 789.43 526.15 C 782.76 527.22 782.63 535.44 778.72 539.69 C 773.87 544.68 770.68 550.96 769.23 557.77 C 761.04 555.86 751.82 551.98 743.65 555.61 C 740.02 561.13 738.76 567.94 735.39 573.65 C 738.40 574.45 741.40 575.29 744.40 576.14 C 744.02 578.59 743.47 581.04 743.65 583.53 C 747.46 586.78 752.56 587.80 756.86 590.24 C 761.00 599.51 761.26 610.02 759.24 619.85 C 754.46 619.51 749.68 619.20 744.91 618.91 C 737.21 631.17 732.39 644.94 724.91 657.32 C 723.56 657.14 722.22 657.03 720.88 656.93 C 719.79 660.13 718.61 663.30 717.36 666.44 C 709.51 664.51 701.71 662.33 693.91 660.19 C 691.99 662.91 690.21 665.72 688.57 668.61 C 684.83 668.44 681.07 668.24 677.35 668.15 C 674.95 674.16 671.15 679.75 669.62 686.02 C 670.97 690.27 671.90 694.65 670.64 699.07 C 662.68 696.90 654.50 695.83 646.24 696.22 C 645.00 699.09 643.83 701.98 642.65 704.87 C 639.39 704.37 634.75 705.74 632.94 702.10 C 628.82 695.72 625.32 688.90 622.29 681.96 C 623.19 675.84 626.48 670.32 627.52 664.22 C 629.19 655.90 626.73 647.52 625.97 639.25 C 633.46 635.92 641.71 632.60 646.60 625.67 C 634.88 619.35 630.07 605.93 629.51 593.36 C 632.16 589.68 635.89 586.92 638.49 583.18 C 632.93 577.05 627.83 569.96 619.82 566.86 C 615.45 563.84 609.98 563.88 605.28 561.74 C 598.22 553.22 592.83 542.89 591.04 531.88 C 597.61 529.05 604.34 525.35 611.76 526.57 C 615.98 527.35 619.98 529.01 624.28 529.46 C 627.26 528.84 629.66 526.64 632.59 525.79 C 642.80 524.54 653.10 525.58 663.22 527.04 C 671.05 526.49 679.61 525.83 686.49 530.42 C 688.03 532.75 688.57 535.60 690.12 537.93 C 691.88 539.40 694.09 540.20 696.12 541.24 C 697.29 538.24 698.24 535.16 698.85 532.01 C 703.22 532.10 707.60 532.33 711.96 532.69 C 714.20 529.22 715.51 524.72 719.18 522.46 C 724.46 522.08 729.56 523.62 734.59 524.98 C 736.73 521.95 738.98 518.99 741.25 516.06 C 749.69 517.19 756.87 521.86 764.83 524.43 C 766.38 520.24 767.79 516.00 769.30 511.80 C 770.89 507.83 772.37 503.78 774.39 500.00 Z" />
</g>
<g id="#2fdf00ff">
<path fill="#2fdf00" fill-opacity="0" d=" M 1087.30 511.35 C 1092.20 508.60 1097.48 511.98 1102.17 513.66 C 1101.35 517.84 1100.52 522.02 1099.84 526.24 C 1098.78 531.25 1100.92 536.12 1101.32 541.08 C 1101.72 545.68 1102.11 550.28 1102.90 554.84 C 1104.72 554.91 1108.37 555.05 1110.20 555.12 C 1110.96 557.59 1111.98 560.15 1111.50 562.79 C 1110.25 569.31 1108.77 575.79 1106.96 582.18 C 1105.02 587.78 1101.21 592.70 1100.31 598.65 C 1098.11 614.47 1097.68 630.45 1096.25 646.33 C 1095.42 636.77 1089.83 628.29 1083.38 621.52 C 1080.10 619.79 1076.20 622.33 1072.69 621.00 C 1068.24 619.45 1063.64 620.65 1059.54 622.60 C 1055.80 612.71 1054.70 602.03 1050.07 592.46 C 1047.93 593.75 1045.94 595.47 1043.49 596.09 C 1041.79 595.27 1040.31 594.08 1038.76 593.05 C 1038.24 607.05 1036.37 620.97 1036.07 634.98 C 1022.83 633.39 1010.36 628.09 997.08 626.78 C 991.18 626.46 984.90 627.36 979.39 624.70 C 974.77 622.91 971.63 618.91 968.44 615.33 C 966.06 612.72 962.35 612.36 959.14 611.48 C 960.40 607.72 961.69 603.96 962.99 600.23 C 959.51 599.89 956.04 600.40 952.79 601.65 C 951.62 599.86 950.42 598.09 949.49 596.20 C 951.77 591.96 955.82 588.81 957.27 584.09 C 957.78 580.79 956.38 577.27 958.16 574.17 C 960.20 569.23 962.70 564.49 964.54 559.47 C 963.22 557.97 961.74 556.57 960.84 554.78 C 962.33 548.63 966.35 543.45 969.34 537.96 C 981.05 537.22 992.04 532.86 1002.20 527.22 C 1010.43 522.14 1020.63 524.87 1029.27 527.53 C 1036.45 529.97 1044.12 529.87 1051.61 529.99 C 1056.48 529.98 1059.31 525.26 1063.42 523.42 C 1065.55 523.04 1067.73 523.41 1069.89 523.48 C 1075.66 519.40 1081.22 514.97 1087.30 511.35 M 1020.32 582.18 C 1019.23 583.53 1021.58 585.00 1022.47 583.61 C 1023.54 582.25 1021.18 580.79 1020.32 582.18 Z" />
</g>
<g id="#2f9fbfff">
<path fill="#2f9fbf" fill-opacity="0" d=" M 792.13 525.81 C 794.51 523.40 796.97 520.17 800.73 520.32 C 808.76 520.32 816.22 523.92 824.09 525.10 L 823.87 525.57 C 822.00 529.65 820.28 533.80 818.46 537.91 C 819.66 539.22 821.12 540.39 821.97 542.00 C 821.96 544.91 820.98 547.71 820.30 550.52 C 823.59 551.74 826.86 552.98 830.17 554.24 C 830.10 558.17 829.83 562.08 829.63 566.02 C 832.83 566.99 835.97 567.85 839.23 568.79 C 839.45 578.17 838.66 587.54 837.79 596.88 C 837.46 599.22 839.11 601.07 840.45 602.76 C 839.15 606.85 837.70 610.90 836.48 615.02 C 839.56 615.91 842.58 616.65 845.71 617.50 C 845.58 621.39 845.46 625.25 845.39 629.17 C 847.47 630.21 849.78 630.98 851.57 632.53 C 852.95 635.82 852.82 639.68 854.41 642.92 C 856.52 644.96 859.15 646.42 861.58 648.10 C 861.84 651.51 862.11 654.96 862.19 658.40 C 853.54 656.14 844.63 655.25 835.80 654.08 C 833.98 660.12 831.40 665.90 828.76 671.62 C 822.63 669.69 817.06 666.14 810.76 664.77 C 806.42 663.90 802.42 666.15 798.26 666.84 C 794.76 666.57 791.75 664.52 788.64 663.10 C 786.31 668.03 782.92 672.27 779.10 676.12 C 774.84 680.76 777.23 687.48 774.92 692.84 C 772.81 698.28 770.18 703.48 767.51 708.66 C 764.05 707.64 760.64 706.75 757.29 705.48 C 755.85 695.66 745.28 691.48 742.82 682.35 C 737.82 680.63 732.83 678.98 727.79 677.44 C 730.09 671.47 732.80 665.66 736.19 660.23 C 732.48 659.08 728.70 658.07 724.91 657.32 C 732.39 644.94 737.21 631.17 744.91 618.91 C 749.68 619.20 754.46 619.51 759.24 619.85 C 761.26 610.02 761.00 599.51 756.86 590.24 C 752.56 587.80 747.46 586.78 743.65 583.53 C 743.47 581.04 744.02 578.59 744.40 576.14 C 741.40 575.29 738.40 574.45 735.39 573.65 C 738.76 567.94 740.02 561.13 743.65 555.61 C 751.82 551.98 761.04 555.86 769.23 557.77 C 770.68 550.96 773.87 544.68 778.72 539.69 C 782.63 535.44 782.76 527.22 789.43 526.15 C 790.31 526.01 791.22 525.91 792.13 525.81 Z" />
</g>
<g id="#6fdf00ff">
<path fill="#6fdf00" fill-opacity="0" d=" M 823.87 525.57 C 831.02 527.58 837.68 531.36 845.22 531.88 C 854.72 532.74 863.20 537.90 872.72 538.65 C 878.22 539.31 883.74 540.07 889.08 541.68 C 886.73 546.04 884.83 550.60 882.99 555.18 C 881.28 560.29 875.08 560.87 870.80 562.75 C 872.56 566.11 874.52 569.39 875.99 572.91 C 877.63 576.75 877.01 581.08 878.16 585.05 C 879.25 588.45 881.92 590.98 883.55 594.10 C 884.98 597.32 884.93 601.16 886.77 604.23 C 889.41 606.91 893.15 608.33 895.40 611.47 C 900.20 617.43 904.11 624.05 909.12 629.88 C 913.45 634.97 917.73 640.14 921.29 645.83 C 919.71 646.66 918.14 647.51 916.59 648.37 C 920.25 658.16 926.38 666.69 931.28 675.85 C 913.04 668.95 893.49 667.22 874.76 662.21 C 870.53 661.06 866.37 659.59 862.19 658.40 C 862.11 654.96 861.84 651.51 861.58 648.10 C 859.15 646.42 856.52 644.96 854.41 642.92 C 852.82 639.68 852.95 635.82 851.57 632.53 C 849.78 630.98 847.47 630.21 845.39 629.17 C 845.46 625.25 845.58 621.39 845.71 617.50 C 842.58 616.65 839.56 615.91 836.48 615.02 C 837.70 610.90 839.15 606.85 840.45 602.76 C 839.11 601.07 837.46 599.22 837.79 596.88 C 838.66 587.54 839.45 578.17 839.23 568.79 C 835.97 567.85 832.83 566.99 829.63 566.02 C 829.83 562.08 830.10 558.17 830.17 554.24 C 826.86 552.98 823.59 551.74 820.30 550.52 C 820.98 547.71 821.96 544.91 821.97 542.00 C 821.12 540.39 819.66 539.22 818.46 537.91 C 820.28 533.80 822.00 529.65 823.87 525.57 Z" />
</g>
<g id="#2f1f3ffe">
<path fill="#2f1f3f" fill-opacity="0" d=" M 917.09 538.39 C 924.81 534.79 932.42 530.94 939.96 526.97 C 939.46 528.52 938.97 530.09 938.47 531.65 C 942.56 533.17 946.52 535.16 950.82 536.09 C 954.63 536.83 958.20 533.54 961.98 534.85 C 964.53 535.62 966.93 536.82 969.34 537.96 C 966.35 543.45 962.33 548.63 960.84 554.78 C 961.74 556.57 963.22 557.97 964.54 559.47 C 962.70 564.49 960.20 569.23 958.16 574.17 C 956.38 577.27 957.78 580.79 957.27 584.09 C 955.82 588.81 951.77 591.96 949.49 596.20 C 950.42 598.09 951.62 599.86 952.79 601.65 C 956.04 600.40 959.51 599.89 962.99 600.23 C 961.69 603.96 960.40 607.72 959.14 611.48 C 962.35 612.36 966.06 612.72 968.44 615.33 C 971.63 618.91 974.77 622.91 979.39 624.70 C 984.90 627.36 991.18 626.46 997.08 626.78 C 996.03 628.72 995.00 630.67 993.98 632.63 C 986.46 632.07 978.82 632.12 971.47 630.22 C 968.47 629.20 966.13 626.90 963.13 625.88 C 959.36 624.59 955.40 624.05 951.50 623.38 C 950.40 629.46 949.38 635.57 948.75 641.72 C 946.41 641.48 944.07 641.24 941.75 641.02 C 939.24 652.95 938.10 665.21 934.28 676.84 C 933.26 676.52 932.26 676.19 931.28 675.85 C 926.38 666.69 920.25 658.16 916.59 648.37 C 918.14 647.51 919.71 646.66 921.29 645.83 C 917.73 640.14 913.45 634.97 909.12 629.88 C 904.11 624.05 900.20 617.43 895.40 611.47 C 893.15 608.33 889.41 606.91 886.77 604.23 C 884.93 601.16 884.98 597.32 883.55 594.10 C 881.92 590.98 879.25 588.45 878.16 585.05 C 877.01 581.08 877.63 576.75 875.99 572.91 C 874.52 569.39 872.56 566.11 870.80 562.75 C 875.08 560.87 881.28 560.29 882.99 555.18 C 884.83 550.60 886.73 546.04 889.08 541.68 C 893.44 542.81 897.77 544.94 902.40 544.35 C 907.77 543.79 912.30 540.62 917.09 538.39 Z" />
</g>
<g id="#afdf00ff">
<path fill="#afdf00" fill-opacity="0" d=" M 1020.32 582.18 C 1021.18 580.79 1023.54 582.25 1022.47 583.61 C 1021.58 585.00 1019.23 583.53 1020.32 582.18 Z" />
</g>
<g id="#6f5f7fff">
<path fill="#6f5f7f" fill-opacity="0" d=" M 1043.49 596.09 C 1045.94 595.47 1047.93 593.75 1050.07 592.46 C 1054.70 602.03 1055.80 612.71 1059.54 622.60 C 1063.64 620.65 1068.24 619.45 1072.69 621.00 C 1076.20 622.33 1080.10 619.79 1083.38 621.52 C 1089.83 628.29 1095.42 636.77 1096.25 646.33 C 1097.09 651.09 1102.91 652.19 1105.43 655.78 C 1108.62 662.58 1102.90 669.62 1105.21 676.50 C 1105.73 683.66 1114.67 686.42 1114.87 693.61 C 1116.42 702.36 1112.25 710.54 1110.26 718.85 C 1109.91 722.90 1110.91 726.94 1110.60 731.02 C 1110.55 734.43 1108.99 737.61 1108.80 741.01 C 1108.91 744.77 1110.91 748.47 1109.70 752.24 C 1108.11 757.92 1106.66 763.80 1104.10 769.05 C 1099.75 771.75 1095.07 774.48 1093.56 779.77 C 1083.96 784.10 1073.37 784.36 1063.02 784.53 C 1055.07 785.39 1047.08 785.85 1039.09 785.59 C 1033.40 785.55 1027.81 783.93 1022.10 784.41 C 1019.03 784.69 1016.15 786.34 1013.03 785.96 C 1008.66 785.58 1004.70 783.32 1000.38 782.76 C 997.37 785.04 995.55 788.44 993.73 791.66 C 992.30 791.24 990.87 790.84 989.46 790.44 C 988.57 792.08 987.66 793.72 986.75 795.37 C 988.00 788.65 987.67 781.77 985.01 775.46 C 983.33 767.52 991.28 760.35 988.35 752.41 C 985.32 745.16 979.57 738.95 972.52 735.49 C 967.25 734.56 961.87 738.14 956.70 735.35 C 954.31 733.53 952.17 730.93 951.73 727.89 C 952.79 724.41 955.23 721.52 956.98 718.36 C 952.07 714.51 947.21 710.65 942.44 706.65 C 945.40 697.42 951.13 689.55 956.02 681.30 C 948.75 679.92 941.43 678.72 934.28 676.84 C 938.10 665.21 939.24 652.95 941.75 641.02 C 944.07 641.24 946.41 641.48 948.75 641.72 C 949.38 635.57 950.40 629.46 951.50 623.38 C 955.40 624.05 959.36 624.59 963.13 625.88 C 966.13 626.90 968.47 629.20 971.47 630.22 C 978.82 632.12 986.46 632.07 993.98 632.63 C 995.00 630.67 996.03 628.72 997.08 626.78 C 1010.36 628.09 1022.83 633.39 1036.07 634.98 C 1036.37 620.97 1038.24 607.05 1038.76 593.05 C 1040.31 594.08 1041.79 595.27 1043.49 596.09 Z" />
</g>
<g id="#af1fbfff">
<path fill="#af1fbf" fill-opacity="0" d=" M 835.80 654.08 C 844.63 655.25 853.54 656.14 862.19 658.40 C 866.37 659.59 870.53 661.06 874.76 662.21 C 873.51 666.98 872.14 672.32 875.55 676.61 C 874.49 679.29 873.37 681.94 872.22 684.59 C 873.38 684.86 874.56 685.14 875.74 685.43 C 874.80 689.92 874.29 694.49 874.55 699.08 C 874.86 703.60 871.32 707.15 871.07 711.58 C 870.95 718.63 865.72 724.53 859.88 727.89 C 855.65 730.71 850.43 730.53 845.59 731.12 C 847.73 740.81 848.36 750.82 846.70 760.64 C 841.12 760.69 835.60 760.78 830.05 760.65 C 829.64 764.28 827.27 768.62 830.29 771.62 C 834.47 776.27 837.58 782.60 836.26 789.00 C 835.89 792.28 833.91 795.22 833.83 798.54 C 835.62 801.09 839.19 802.40 840.08 805.70 C 841.28 810.05 842.63 814.46 843.14 818.98 C 842.50 822.52 840.42 825.57 838.89 828.77 C 834.67 828.40 830.43 827.99 826.24 827.53 C 824.42 830.63 822.72 833.83 820.88 836.94 C 814.67 835.55 808.49 833.46 802.04 833.62 C 800.65 828.57 799.02 823.35 795.86 819.12 C 791.27 815.63 785.41 814.45 780.16 812.28 C 779.67 806.96 780.57 800.82 776.07 797.02 C 777.54 792.40 780.55 788.04 780.55 783.07 C 779.72 779.10 777.45 775.61 775.63 772.04 C 773.31 767.39 767.87 766.00 763.62 763.74 C 765.06 760.31 766.58 756.90 768.08 753.51 C 771.37 752.96 774.62 752.25 777.87 751.49 C 777.65 747.73 777.50 744.05 777.03 740.33 C 776.74 736.76 775.81 733.24 773.94 730.16 C 770.25 723.55 768.73 716.05 767.51 708.66 C 770.18 703.48 772.81 698.28 774.92 692.84 C 777.23 687.48 774.84 680.76 779.10 676.12 C 782.92 672.27 786.31 668.03 788.64 663.10 C 791.75 664.52 794.76 666.57 798.26 666.84 C 802.42 666.15 806.42 663.90 810.76 664.77 C 817.06 666.14 822.63 669.69 828.76 671.62 C 831.40 665.90 833.98 660.12 835.80 654.08 Z" />
</g>
<g id="#af5f7fff">
<path fill="#af5f7f" fill-opacity="0" d=" M 720.88 656.93 C 722.22 657.03 723.56 657.14 724.91 657.32 C 728.70 658.07 732.48 659.08 736.19 660.23 C 732.80 665.66 730.09 671.47 727.79 677.44 C 732.83 678.98 737.82 680.63 742.82 682.35 C 745.28 691.48 755.85 695.66 757.29 705.48 C 746.51 712.84 732.83 713.40 722.22 721.07 C 717.52 723.28 714.33 727.40 712.43 732.14 C 708.32 733.37 702.87 733.20 700.43 737.40 C 698.49 740.38 696.39 743.55 695.99 747.16 C 696.55 750.62 698.62 753.60 699.91 756.83 C 696.95 755.32 693.16 754.79 691.27 751.80 C 689.51 748.50 685.86 744.86 687.44 740.78 C 690.98 731.46 694.14 722.00 697.62 712.67 C 698.98 708.69 702.48 706.05 704.25 702.31 C 709.14 690.55 712.94 678.38 717.36 666.44 C 718.61 663.30 719.79 660.13 720.88 656.93 Z" />
</g>
<g id="#afdf7fff">
<path fill="#afdf7f" fill-opacity="0" d=" M 874.76 662.21 C 893.49 667.22 913.04 668.95 931.28 675.85 C 932.26 676.19 933.26 676.52 934.28 676.84 C 941.43 678.72 948.75 679.92 956.02 681.30 C 951.13 689.55 945.40 697.42 942.44 706.65 C 947.21 710.65 952.07 714.51 956.98 718.36 C 955.23 721.52 952.79 724.41 951.73 727.89 C 952.17 730.93 954.31 733.53 956.70 735.35 C 961.87 738.14 967.25 734.56 972.52 735.49 C 979.57 738.95 985.32 745.16 988.35 752.41 C 991.28 760.35 983.33 767.52 985.01 775.46 C 987.67 781.77 988.00 788.65 986.75 795.37 C 986.24 799.75 984.44 803.82 983.00 807.96 C 978.07 806.68 973.16 805.14 968.08 804.65 C 964.49 807.60 964.53 812.92 961.71 816.47 C 955.37 816.91 949.08 815.29 942.75 815.08 C 942.30 817.37 942.04 819.79 940.84 821.84 C 939.11 824.30 935.81 824.87 933.79 826.98 C 932.05 829.62 931.15 832.72 929.38 835.34 C 925.85 836.15 922.27 835.05 918.80 834.47 C 907.37 832.01 895.73 830.84 884.22 828.93 C 883.47 832.21 882.65 835.47 881.84 838.74 C 875.32 837.92 868.74 837.00 862.48 834.97 C 860.05 830.84 859.98 825.72 858.69 821.21 C 853.49 820.54 848.34 819.61 843.14 818.98 C 842.63 814.46 841.28 810.05 840.08 805.70 C 839.19 802.40 835.62 801.09 833.83 798.54 C 833.91 795.22 835.89 792.28 836.26 789.00 C 837.58 782.60 834.47 776.27 830.29 771.62 C 827.27 768.62 829.64 764.28 830.05 760.65 C 835.60 760.78 841.12 760.69 846.70 760.64 C 848.36 750.82 847.73 740.81 845.59 731.12 C 850.43 730.53 855.65 730.71 859.88 727.89 C 865.72 724.53 870.95 718.63 871.07 711.58 C 871.32 707.15 874.86 703.60 874.55 699.08 C 874.29 694.49 874.80 689.92 875.74 685.43 C 874.56 685.14 873.38 684.86 872.22 684.59 C 873.37 681.94 874.49 679.29 875.55 676.61 C 872.14 672.32 873.51 666.98 874.76 662.21 Z" />
</g>
<g id="#efdf7fff">
<path fill="#efdf7f" fill-opacity="0" d=" M 722.22 721.07 C 732.83 713.40 746.51 712.84 757.29 705.48 C 760.64 706.75 764.05 707.64 767.51 708.66 C 768.73 716.05 770.25 723.55 773.94 730.16 C 775.81 733.24 776.74 736.76 777.03 740.33 C 773.71 741.43 770.42 742.59 767.13 743.76 C 762.94 739.58 759.98 733.72 754.59 730.89 C 749.88 730.48 742.56 730.98 741.54 736.81 C 741.25 739.84 740.63 743.61 743.09 745.90 C 745.10 747.67 747.92 747.86 750.40 748.60 C 756.38 749.92 761.83 753.49 768.08 753.51 C 766.58 756.90 765.06 760.31 763.62 763.74 C 767.87 766.00 773.31 767.39 775.63 772.04 C 777.45 775.61 779.72 779.10 780.55 783.07 C 780.55 788.04 777.54 792.40 776.07 797.02 C 780.57 800.82 779.67 806.96 780.16 812.28 C 771.69 809.33 762.90 807.49 754.31 805.00 C 749.81 796.82 740.64 793.92 734.53 787.42 C 732.78 783.40 736.07 778.93 734.41 774.85 C 732.79 770.42 729.82 766.64 728.07 762.27 C 725.90 756.83 718.63 753.08 713.18 755.26 C 710.31 757.82 708.47 761.27 706.51 764.52 C 704.37 763.76 702.22 763.06 700.09 762.34 C 700.08 760.50 700.54 758.58 699.91 756.83 C 698.62 753.60 696.55 750.62 695.99 747.16 C 696.39 743.55 698.49 740.38 700.43 737.40 C 702.87 733.20 708.32 733.37 712.43 732.14 C 714.33 727.40 717.52 723.28 722.22 721.07 Z" />
</g>
<g id="#6fdf7fff">
<path fill="#6fdf7f" fill-opacity="0" d=" M 741.54 736.81 C 742.56 730.98 749.88 730.48 754.59 730.89 C 759.98 733.72 762.94 739.58 767.13 743.76 C 770.42 742.59 773.71 741.43 777.03 740.33 C 777.50 744.05 777.65 747.73 777.87 751.49 C 774.62 752.25 771.37 752.96 768.08 753.51 C 761.83 753.49 756.38 749.92 750.40 748.60 C 747.92 747.86 745.10 747.67 743.09 745.90 C 740.63 743.61 741.25 739.84 741.54 736.81 Z" />
</g>
<g id="#ef5f7fff">
<path fill="#ef5f7f" fill-opacity="0" d=" M 713.18 755.26 C 718.63 753.08 725.90 756.83 728.07 762.27 C 729.82 766.64 732.79 770.42 734.41 774.85 C 736.07 778.93 732.78 783.40 734.53 787.42 C 740.64 793.92 749.81 796.82 754.31 805.00 C 752.64 808.97 751.06 813.00 749.40 817.00 C 741.80 817.08 736.78 823.57 729.60 824.95 C 725.92 825.56 723.71 828.68 721.55 831.39 C 715.78 829.78 710.92 833.10 706.50 836.44 C 701.49 832.50 696.33 828.69 691.78 824.22 C 688.11 820.41 686.60 815.21 685.05 810.29 C 682.39 801.96 677.14 794.76 671.58 788.14 C 674.66 786.81 677.74 785.43 681.03 784.64 C 683.26 784.77 685.34 786.25 687.63 785.84 C 692.25 778.31 695.75 770.15 699.12 762.00 L 700.09 762.34 C 702.22 763.06 704.37 763.76 706.51 764.52 C 708.47 761.27 710.31 757.82 713.18 755.26 Z" />
</g>
<g id="#af1f3fff">
<path fill="#af1f3f" fill-opacity="0" d=" M 667.74 786.84 C 669.11 785.74 670.56 787.25 671.58 788.14 C 677.14 794.76 682.39 801.96 685.05 810.29 C 686.60 815.21 688.11 820.41 691.78 824.22 C 696.33 828.69 701.49 832.50 706.50 836.44 C 707.40 840.15 708.32 843.99 710.75 847.05 C 713.89 851.98 720.21 853.44 723.91 857.83 C 724.74 859.81 724.13 862.34 723.07 864.16 C 720.09 867.25 714.16 867.26 713.67 872.57 C 711.09 879.78 709.70 887.35 707.22 894.60 C 706.04 898.80 703.63 903.09 704.65 907.57 C 706.63 912.08 710.21 915.64 713.12 919.58 C 713.07 922.69 713.49 925.78 713.87 928.87 C 710.78 929.28 707.69 929.65 704.60 930.02 C 703.00 938.25 702.16 946.58 702.09 954.96 C 702.50 960.23 699.24 969.70 692.39 967.41 C 686.32 965.06 682.53 959.31 678.04 954.89 C 675.03 952.27 678.05 948.30 677.87 945.04 C 675.32 942.88 672.12 941.70 668.83 942.00 C 665.08 938.12 660.83 934.60 657.89 930.03 C 656.52 928.01 657.51 925.47 657.57 923.25 C 647.77 922.29 641.37 914.30 635.78 907.00 C 637.34 894.20 640.82 881.63 640.81 868.66 C 642.26 861.52 650.68 859.84 655.07 854.85 C 652.80 849.33 645.95 844.95 648.32 838.34 C 651.35 828.59 649.39 818.64 646.91 809.06 C 646.99 803.32 649.66 796.83 655.15 794.25 C 659.42 791.92 663.46 789.15 667.74 786.84 Z" />
</g>
<g id="#2f1fbfff">
<path fill="#2f1fbf" fill-opacity="0" d=" M 754.31 805.00 C 762.90 807.49 771.69 809.33 780.16 812.28 C 785.41 814.45 791.27 815.63 795.86 819.12 C 799.02 823.35 800.65 828.57 802.04 833.62 C 802.00 837.42 800.18 840.93 799.06 844.51 C 808.99 850.75 817.65 861.00 817.81 873.27 C 818.74 877.78 818.07 882.36 815.23 886.08 C 811.20 883.67 807.44 878.36 802.45 879.33 C 796.77 885.11 793.41 892.76 788.25 898.99 C 784.47 903.41 782.60 909.47 777.32 912.50 C 774.12 906.40 771.05 898.63 763.20 897.69 C 758.64 902.64 754.38 907.87 750.62 913.46 C 741.26 912.98 731.87 915.05 723.52 919.29 C 720.28 921.13 716.57 919.67 713.12 919.58 C 710.21 915.64 706.63 912.08 704.65 907.57 C 703.63 903.09 706.04 898.80 707.22 894.60 C 709.70 887.35 711.09 879.78 713.67 872.57 C 714.16 867.26 720.09 867.25 723.07 864.16 C 724.13 862.34 724.74 859.81 723.91 857.83 C 720.21 853.44 713.89 851.98 710.75 847.05 C 708.32 843.99 707.40 840.15 706.50 836.44 C 710.92 833.10 715.78 829.78 721.55 831.39 C 723.71 828.68 725.92 825.56 729.60 824.95 C 736.78 823.57 741.80 817.08 749.40 817.00 C 751.06 813.00 752.64 808.97 754.31 805.00 Z" />
</g>
</svg>
