<?xml version="1.0" encoding="UTF-8" standalone="no"?>
<svg
   xmlns:dc="http://purl.org/dc/elements/1.1/"
   xmlns:cc="http://creativecommons.org/ns#"
   xmlns:rdf="http://www.w3.org/1999/02/22-rdf-syntax-ns#"
   xmlns:svg="http://www.w3.org/2000/svg"
   xmlns="http://www.w3.org/2000/svg"
   xmlns:sodipodi="http://sodipodi.sourceforge.net/DTD/sodipodi-0.dtd"
   xmlns:inkscape="http://www.inkscape.org/namespaces/inkscape"
   width="960pt"
   height="540pt"
   viewBox="0 0 960 540"
   version="1.1"
   id="svg2"
   inkscape:version="0.48.4 r9939"
   sodipodi:docname="Crimea-rayony.svg">
  <metadata
     id="metadata118">
    <rdf:RDF>
      <cc:Work
         rdf:about="">
        <dc:format>image/svg+xml</dc:format>
        <dc:type
           rdf:resource="http://purl.org/dc/dcmitype/StillImage" />
      </cc:Work>
    </rdf:RDF>
  </metadata>
  <defs
     id="defs116" />
  <sodipodi:namedview
     pagecolor="#ffffff"
     bordercolor="#666666"
     borderopacity="1"
     objecttolerance="10"
     gridtolerance="10"
     guidetolerance="10"
     inkscape:pageopacity="0"
     inkscape:pageshadow="2"
     inkscape:window-width="1920"
     inkscape:window-height="1137"
     id="namedview114"
     showgrid="false"
     inkscape:zoom="1.3585185"
     inkscape:cx="600"
     inkscape:cy="337.5"
     inkscape:window-x="-4"
     inkscape:window-y="-4"
     inkscape:window-maximized="1"
     inkscape:current-layer="svg2" />
  <g
     id="#003f00ff">
    <path
       
        fill-opacity="0" opacity="0.00"
       d=" M 317.18 104.23 C 317.79 103.17 318.68 102.79 319.87 103.11 C 322.82 104.82 325.88 106.40 328.78 108.22 C 330.88 109.45 332.79 111.27 335.67 109.39 C 338.66 108.90 341.66 108.85 344.69 109.33 C 349.85 111.51 354.11 115.18 358.70 118.32 C 360.79 119.77 360.87 122.57 361.20 124.86 C 363.97 125.33 367.19 124.42 369.39 126.53 C 371.48 127.41 371.26 130.08 372.09 131.89 C 371.60 131.95 370.62 132.06 370.13 132.12 L 369.97 132.95 C 371.32 132.99 372.68 133.04 374.04 133.10 C 374.21 134.67 372.20 137.21 374.87 137.31 C 375.25 139.19 373.14 140.01 372.23 141.31 C 371.26 144.08 371.81 149.48 375.76 149.31 L 376.54 153.49 C 376.77 153.75 377.23 154.26 377.46 154.52 C 375.77 158.17 378.79 159.08 380.72 160.37 C 380.99 161.50 381.10 162.65 381.06 163.82 C 378.54 162.49 375.89 163.83 373.34 164.30 C 372.79 166.61 370.94 168.40 370.88 170.85 C 368.32 170.83 365.77 170.92 363.24 171.13 C 362.26 173.73 362.61 178.93 357.43 175.75 C 356.38 172.74 352.47 173.94 350.00 173.03 C 348.08 173.08 347.05 171.39 345.68 170.37 C 342.27 170.21 339.07 169.16 335.76 168.54 C 334.15 168.64 332.56 168.95 330.98 169.14 C 331.07 170.74 331.63 172.25 331.90 173.82 C 330.99 175.07 329.44 174.95 328.08 175.13 C 326.71 175.08 325.36 175.01 324.00 174.91 C 324.00 173.43 323.99 170.47 323.98 168.99 C 323.80 166.75 326.89 165.56 325.90 163.17 C 324.98 161.88 323.56 162.73 322.32 162.78 C 321.29 160.52 319.95 158.44 318.72 156.30 C 316.61 148.02 315.51 139.53 315.13 131.00 C 315.50 127.01 315.66 122.97 315.09 119.00 C 314.62 117.32 316.55 116.41 316.93 114.95 C 316.99 112.27 317.11 106.91 317.18 104.23 Z"
       id="path28" />
  </g>
  <g
     id="#00bf00ff">
    <path
       
        fill-opacity="0" opacity="0.00"
       d=" M 432.19 114.07 C 434.49 113.79 435.44 116.49 437.21 117.50 C 438.15 117.46 439.12 117.39 439.84 118.16 C 441.47 125.62 440.82 133.25 441.11 140.82 C 441.97 141.35 442.85 141.86 443.75 142.34 C 444.47 146.88 443.73 151.53 444.07 156.12 C 446.38 155.45 448.49 154.24 450.84 153.70 C 454.82 152.97 457.39 148.66 461.95 150.00 C 462.16 159.00 461.85 168.01 462.03 177.02 C 466.10 177.02 470.21 176.45 474.09 175.20 C 474.00 177.16 473.95 179.13 473.88 181.10 C 472.90 180.42 471.52 179.36 470.38 180.35 C 468.83 182.06 467.35 183.85 466.03 185.75 C 467.86 185.54 468.62 187.24 467.60 188.66 C 465.63 191.02 464.84 194.00 463.78 196.81 C 459.91 197.42 455.74 196.46 452.11 198.16 C 451.97 199.40 451.94 200.64 452.02 201.89 C 453.44 201.96 456.29 202.11 457.71 202.18 C 457.84 205.37 461.21 203.17 463.04 203.01 C 463.15 204.20 462.73 205.15 461.78 205.84 C 459.11 205.90 453.77 206.03 451.10 206.09 C 449.69 206.13 449.67 208.02 448.82 208.84 C 447.10 210.68 440.97 206.88 440.69 210.86 C 439.85 210.70 439.02 210.51 438.20 210.30 C 438.23 213.30 435.33 214.78 433.18 216.29 C 429.74 216.58 427.55 213.82 424.94 212.12 C 423.49 212.07 420.58 211.96 419.13 211.91 C 419.03 210.61 418.94 209.31 418.86 208.01 C 415.79 206.73 413.28 208.49 411.51 210.53 C 408.62 210.85 405.72 210.86 402.95 211.80 C 403.26 210.59 403.72 209.42 404.04 208.21 C 401.48 208.61 398.87 208.63 396.40 209.33 C 395.53 211.38 392.96 211.36 391.15 212.10 C 392.11 209.16 393.05 206.18 393.29 203.08 C 393.70 200.67 395.98 196.46 389.01 199.99 C 381.65 196.08 385.66 202.88 382.60 204.60 C 381.15 207.15 375.06 206.63 378.82 201.19 C 375.09 201.82 372.70 198.63 369.13 198.78 C 369.10 198.17 369.04 196.94 369.00 196.32 C 370.45 194.81 371.48 192.82 373.83 192.67 C 373.89 190.25 374.01 185.42 374.08 183.00 C 372.30 179.78 374.77 178.18 376.01 176.05 C 375.65 174.51 373.08 174.70 373.10 172.97 C 373.16 171.44 372.42 170.74 370.88 170.85 C 370.94 168.40 372.79 166.61 373.34 164.30 C 375.89 163.83 378.54 162.49 381.06 163.82 C 381.10 162.65 380.99 161.50 380.72 160.37 C 378.79 159.08 375.77 158.17 377.46 154.52 C 377.23 154.26 376.77 153.75 376.54 153.49 L 375.76 149.31 C 371.81 149.48 371.26 144.08 372.23 141.31 C 373.14 140.01 375.25 139.19 374.87 137.31 C 372.20 137.21 374.21 134.67 374.04 133.10 C 372.68 133.04 371.32 132.99 369.97 132.95 L 370.13 132.12 C 370.62 132.06 371.60 131.95 372.09 131.89 L 372.99 131.79 C 372.81 130.33 372.44 127.41 372.25 125.95 L 377.00 126.02 C 381.51 125.17 384.89 128.75 389.31 128.59 C 393.90 132.24 394.34 125.61 397.81 126.07 C 398.36 126.95 398.89 127.85 399.39 128.76 C 401.57 128.57 403.76 128.36 405.95 128.13 C 409.16 128.33 410.42 132.82 413.85 131.95 C 414.88 129.30 417.05 126.96 417.02 124.03 C 414.03 119.49 417.78 119.09 419.99 118.01 C 422.09 119.95 424.26 122.06 427.05 122.98 C 428.42 123.08 430.09 123.26 430.81 121.79 C 431.40 119.22 429.99 115.98 432.19 114.07 M 407.96 183.02 C 408.09 184.05 408.41 185.02 408.94 185.94 C 408.20 185.97 406.73 186.04 405.99 186.08 C 405.70 187.77 406.51 189.28 407.27 190.73 C 410.37 192.71 414.55 192.56 417.74 190.77 C 418.06 189.50 418.41 188.25 418.91 187.05 C 417.66 187.02 416.41 186.97 415.16 186.91 C 415.58 184.24 412.82 185.20 411.16 184.89 C 411.55 182.59 409.57 182.90 407.96 183.02 Z"
       id="path31" />
  </g>
  <g
     id="#3f0000ff">
    <path
       
        fill-opacity="0" opacity="0.00"
       d=" M 307.30 158.24 C 309.40 156.35 311.38 154.13 313.99 152.96 C 315.72 153.84 316.86 155.60 318.72 156.30 C 319.95 158.44 321.29 160.52 322.32 162.78 C 323.56 162.73 324.98 161.88 325.90 163.17 C 326.89 165.56 323.80 166.75 323.98 168.99 C 323.99 170.47 324.00 173.43 324.00 174.91 C 325.36 175.01 326.71 175.08 328.08 175.13 C 328.04 175.78 327.96 177.08 327.92 177.73 C 326.30 176.83 325.19 178.08 324.15 179.22 C 323.85 181.19 325.06 183.02 325.06 185.00 C 320.54 186.48 325.83 176.98 318.15 181.84 L 317.86 177.01 C 316.41 177.01 313.51 177.01 312.06 177.01 C 312.08 183.30 312.00 189.63 310.83 195.83 C 309.60 195.94 308.38 196.06 307.16 196.19 C 307.20 198.50 306.73 200.69 305.76 202.75 C 303.65 204.67 299.74 205.27 301.40 209.65 C 300.62 211.80 301.56 213.89 301.95 216.00 C 301.62 217.98 300.79 219.88 300.98 221.94 C 305.22 222.59 309.53 222.65 313.79 223.19 C 315.20 224.03 314.97 225.72 315.24 227.12 C 313.80 228.29 312.03 228.86 310.28 229.33 C 309.71 231.16 309.22 233.02 308.78 234.90 C 307.56 235.02 306.35 235.04 305.14 234.96 C 306.52 231.56 304.15 230.27 302.59 228.34 C 298.03 228.26 293.53 229.22 288.97 228.98 C 288.78 226.65 289.58 224.45 290.24 222.27 C 290.91 222.14 292.24 221.88 292.91 221.75 C 292.93 218.80 293.14 215.92 292.95 212.99 C 288.94 213.39 284.87 214.64 281.00 213.00 C 281.21 215.68 281.81 218.21 281.99 220.92 C 280.53 220.96 277.62 221.04 276.17 221.08 C 273.39 217.67 274.27 213.20 273.89 209.11 C 269.93 209.23 266.07 208.52 262.20 207.87 C 262.80 205.06 262.07 202.67 260.43 200.63 C 260.25 198.12 260.06 195.61 259.86 193.11 C 255.90 192.87 251.96 192.40 248.04 191.91 C 248.04 191.22 248.04 189.84 248.04 189.15 C 248.79 189.07 250.29 188.91 251.04 188.82 C 250.81 187.53 250.28 186.33 249.82 185.11 C 248.43 185.11 246.33 186.68 245.55 184.75 C 248.92 184.13 251.74 182.31 254.66 180.62 C 256.83 177.99 255.64 174.24 256.23 171.23 C 257.09 170.46 257.75 169.36 258.88 168.98 C 260.23 171.17 260.43 173.94 262.16 175.91 C 265.85 176.26 269.67 175.73 273.02 174.04 C 277.00 172.39 282.15 171.51 284.41 167.36 C 285.24 165.76 286.93 165.08 288.52 164.48 C 289.76 162.72 291.50 161.49 293.30 160.35 C 294.44 160.14 295.52 160.74 296.66 160.78 C 297.45 159.66 297.75 157.26 299.64 158.22 C 300.42 161.26 304.33 160.18 306.76 160.93 C 306.90 160.26 307.17 158.91 307.30 158.24 Z"
       id="path34" />
  </g>
  <g
     id="#bf0000ff">
    <path
       
        fill-opacity="0" opacity="0.00"
       d=" M 330.98 169.14 C 332.56 168.95 334.15 168.64 335.76 168.54 C 339.07 169.16 342.27 170.21 345.68 170.37 C 347.05 171.39 348.08 173.08 350.00 173.03 C 352.47 173.94 356.38 172.74 357.43 175.75 C 362.61 178.93 362.26 173.73 363.24 171.13 C 365.77 170.92 368.32 170.83 370.88 170.85 C 372.42 170.74 373.16 171.44 373.10 172.97 C 373.08 174.70 375.65 174.51 376.01 176.05 C 374.77 178.18 372.30 179.78 374.08 183.00 C 374.01 185.42 373.89 190.25 373.83 192.67 C 371.48 192.82 370.45 194.81 369.00 196.32 C 367.19 196.24 365.83 194.96 364.26 194.43 C 362.70 195.60 360.96 196.49 359.18 197.27 C 361.08 199.38 360.88 202.17 361.13 204.90 C 362.84 204.94 366.27 205.03 367.98 205.08 C 368.08 207.69 368.07 210.31 367.95 212.93 C 365.81 214.67 360.87 211.18 359.30 214.26 L 358.60 218.53 C 356.01 219.32 357.38 222.13 357.63 224.00 C 357.41 225.35 357.08 226.69 356.98 228.06 C 358.97 228.23 359.93 226.36 361.27 225.26 C 362.43 224.93 363.62 224.88 364.84 225.09 C 366.52 228.13 365.26 231.55 364.87 234.78 C 362.00 234.71 359.85 236.58 357.23 237.35 C 355.42 238.99 358.63 243.53 355.73 244.70 C 353.62 245.40 351.47 245.95 349.28 246.33 C 348.54 242.97 349.12 238.89 346.82 236.07 C 342.50 235.59 338.30 236.82 334.02 237.02 C 333.95 235.73 333.96 234.45 334.06 233.17 C 334.79 233.08 336.24 232.90 336.96 232.80 L 337.00 228.01 C 334.29 228.03 328.87 228.07 326.16 228.10 C 325.57 229.67 325.13 231.29 324.75 232.93 C 322.35 233.65 319.35 231.24 320.51 228.75 C 320.44 226.31 316.90 224.93 315.24 227.12 C 314.97 225.72 315.20 224.03 313.79 223.19 C 309.53 222.65 305.22 222.59 300.98 221.94 C 300.79 219.88 301.62 217.98 301.95 216.00 C 301.56 213.89 300.62 211.80 301.40 209.65 C 299.74 205.27 303.65 204.67 305.76 202.75 C 306.73 200.69 307.20 198.50 307.16 196.19 C 308.38 196.06 309.60 195.94 310.83 195.83 C 312.00 189.63 312.08 183.30 312.06 177.01 C 313.51 177.01 316.41 177.01 317.86 177.01 L 318.15 181.84 C 325.83 176.98 320.54 186.48 325.06 185.00 C 325.06 183.02 323.85 181.19 324.15 179.22 C 325.19 178.08 326.30 176.83 327.92 177.73 C 327.96 177.08 328.04 175.78 328.08 175.13 C 329.44 174.95 330.99 175.07 331.90 173.82 C 331.63 172.25 331.07 170.74 330.98 169.14 Z"
       id="path37" />
  </g>
  <g
     id="#3fbf00ff">
    <path
       
        fill-opacity="0" opacity="0.00"
       d=" M 485.03 173.95 C 485.69 174.02 487.03 174.14 487.70 174.20 C 488.79 176.74 490.29 179.07 491.85 181.35 C 493.22 183.74 494.78 186.00 496.54 188.13 C 499.65 197.16 508.33 202.73 513.97 210.05 C 524.85 223.56 534.67 238.83 550.20 247.52 C 553.96 246.12 555.61 252.08 560.00 249.01 C 564.69 250.74 567.19 246.12 571.05 245.14 C 573.88 246.20 575.85 244.08 578.06 243.11 C 579.74 243.04 583.09 242.90 584.76 242.83 C 586.06 238.06 586.94 232.32 591.50 229.53 C 592.69 227.19 594.06 224.93 594.34 222.26 C 595.98 220.48 597.20 217.78 600.77 220.14 C 603.11 221.42 601.16 224.03 601.05 225.95 C 601.87 227.99 602.24 230.38 605.04 230.94 C 607.86 232.38 610.50 234.17 613.31 235.65 C 616.07 235.82 618.95 237.43 621.82 236.87 C 625.91 233.20 625.36 226.37 630.30 223.39 C 632.31 223.01 633.81 221.70 635.32 220.40 C 637.38 219.94 639.41 219.34 641.34 218.44 C 648.49 217.73 655.72 218.25 662.87 217.18 C 665.90 218.76 668.77 220.85 672.05 221.96 C 673.42 222.36 674.31 220.93 675.38 220.36 C 681.36 216.89 683.42 226.00 688.89 224.97 C 690.31 224.87 690.29 222.94 691.17 222.09 C 692.35 221.88 693.52 221.93 694.67 222.24 C 695.80 224.16 697.00 226.03 698.17 227.93 C 697.73 230.27 697.09 232.56 696.80 234.93 C 695.02 234.43 693.22 234.07 691.38 234.47 C 690.75 233.36 689.52 233.12 688.43 232.72 C 688.69 231.67 688.54 229.75 687.01 230.05 C 685.11 229.55 685.71 233.12 683.95 232.82 C 682.02 232.30 680.22 231.35 678.25 231.08 C 677.74 232.34 677.26 233.62 676.76 234.88 C 675.22 235.22 673.69 235.03 673.70 233.12 C 672.32 232.71 670.94 233.16 670.55 234.63 C 669.87 236.67 666.67 236.55 666.94 239.03 C 668.24 238.92 669.54 238.61 670.84 238.37 C 671.86 239.26 672.81 240.23 673.71 241.26 C 673.57 243.71 674.13 246.36 674.69 248.80 C 674.11 248.93 672.95 249.20 672.37 249.33 C 671.78 252.37 668.30 253.77 667.91 256.84 C 670.87 254.99 673.06 257.38 674.64 259.15 C 674.49 260.30 673.89 261.45 674.23 262.63 C 677.50 263.59 675.78 268.57 677.50 270.62 C 679.40 273.72 681.28 276.98 681.21 280.74 C 681.56 280.85 682.28 281.08 682.63 281.19 C 683.33 282.52 684.25 283.71 685.00 285.01 C 684.04 288.00 681.13 289.77 680.21 292.78 C 675.81 300.29 669.64 306.64 665.05 314.06 C 659.16 321.24 654.27 329.17 648.48 336.42 C 646.55 339.84 642.22 340.12 639.24 342.21 C 635.67 344.71 630.53 341.45 626.98 343.98 C 625.40 344.66 624.61 346.51 622.94 346.99 C 615.35 346.62 607.88 344.33 600.23 345.12 C 599.32 346.28 598.72 347.65 597.74 348.75 C 594.28 350.76 590.05 350.11 586.34 351.41 C 585.13 352.27 583.89 353.45 582.28 352.90 C 581.88 351.63 581.77 350.17 580.42 349.56 C 580.14 348.46 579.89 347.36 579.67 346.26 C 577.00 342.87 572.98 340.97 569.65 338.39 C 562.93 335.52 556.47 331.80 549.08 330.92 C 549.98 326.98 551.57 323.32 552.53 319.40 C 554.88 316.15 554.84 311.90 556.40 308.31 C 558.93 303.20 561.04 297.85 562.46 292.32 C 564.59 288.01 566.13 283.46 567.88 278.99 C 567.56 278.01 567.20 277.05 566.82 276.10 C 565.25 276.38 563.73 276.91 562.15 277.04 C 562.17 274.26 561.75 271.23 559.82 269.12 C 556.47 268.96 553.21 268.97 549.89 269.04 C 548.98 266.52 548.87 263.79 549.08 261.16 C 549.94 260.64 550.83 260.15 551.75 259.70 C 551.47 258.81 551.16 257.93 550.83 257.07 C 549.17 256.95 547.67 257.76 546.06 257.89 C 544.79 257.53 543.54 257.09 542.32 256.63 C 541.00 255.61 539.92 254.24 538.31 253.67 C 532.07 251.92 526.36 248.54 520.83 245.17 C 518.36 243.05 514.73 243.94 511.91 244.80 C 509.22 245.90 507.74 242.28 504.96 243.01 C 504.50 242.71 503.57 242.09 503.10 241.79 C 502.23 232.79 506.15 224.07 504.91 215.05 C 503.63 210.40 500.26 206.63 499.38 201.85 C 497.56 197.36 494.32 193.33 490.21 190.78 C 488.33 189.07 488.27 184.79 485.16 184.94 C 485.13 182.20 485.06 176.70 485.03 173.95 Z"
       id="path40" />
  </g>
  <g
     id="#7fbf00ff">
    <path
       
        fill-opacity="0" opacity="0.00"
       d=" M 470.38 180.35 C 471.52 179.36 472.90 180.42 473.88 181.10 C 476.34 184.58 479.91 187.87 484.70 185.80 L 485.16 184.94 C 488.27 184.79 488.33 189.07 490.21 190.78 C 494.32 193.33 497.56 197.36 499.38 201.85 C 497.66 204.86 494.04 205.68 491.22 207.27 C 489.65 209.54 492.52 213.95 489.80 215.79 C 487.32 218.87 482.19 216.47 479.09 218.13 C 478.89 220.96 479.12 223.89 478.95 226.74 C 475.39 226.13 471.82 225.90 468.24 226.05 C 468.12 226.73 467.87 228.10 467.75 228.79 C 466.50 229.11 465.28 229.49 464.02 229.70 C 462.39 229.43 460.25 228.27 459.15 230.15 C 459.45 231.06 459.80 231.95 460.19 232.83 C 460.88 235.56 463.99 236.54 465.07 238.98 C 463.68 241.10 461.64 242.31 459.06 242.23 C 460.60 244.22 456.80 250.59 460.72 251.28 C 459.89 253.69 460.22 257.70 455.30 255.23 C 455.14 255.84 454.82 257.07 454.65 257.69 C 453.54 258.24 452.41 258.75 451.31 259.30 C 450.97 261.14 450.87 263.11 449.31 264.39 C 447.04 263.54 443.72 263.76 442.55 261.28 C 439.34 261.34 436.22 262.05 433.02 261.99 C 432.94 259.08 433.21 256.19 432.83 253.31 C 430.89 253.25 430.88 251.60 430.96 250.09 C 433.58 250.16 436.19 250.07 438.80 249.83 C 440.56 248.92 440.51 245.76 438.25 245.60 C 438.17 244.00 438.02 240.79 437.94 239.19 C 437.00 239.49 436.06 239.76 435.12 240.01 C 435.05 238.75 434.98 237.50 434.91 236.25 C 433.44 236.43 430.49 236.80 429.02 236.98 C 428.86 234.39 428.89 231.81 429.12 229.24 C 430.74 228.85 432.36 228.40 433.94 227.83 C 434.15 225.38 432.69 223.24 432.12 220.93 C 432.17 219.33 432.88 217.85 433.18 216.29 C 435.33 214.78 438.23 213.30 438.20 210.30 C 439.02 210.51 439.85 210.70 440.69 210.86 C 440.97 206.88 447.10 210.68 448.82 208.84 C 449.67 208.02 449.69 206.13 451.10 206.09 C 453.77 206.03 459.11 205.90 461.78 205.84 C 462.73 205.15 463.15 204.20 463.04 203.01 C 461.21 203.17 457.84 205.37 457.71 202.18 C 456.29 202.11 453.44 201.96 452.02 201.89 C 451.94 200.64 451.97 199.40 452.11 198.16 C 455.74 196.46 459.91 197.42 463.78 196.81 C 464.84 194.00 465.63 191.02 467.60 188.66 C 468.62 187.24 467.86 185.54 466.03 185.75 C 467.35 183.85 468.83 182.06 470.38 180.35 Z"
       id="path43" />
  </g>
  <g
     id="#7f3f00ff">
    <path
       
        fill-opacity="0" opacity="0.00"
       d=" M 407.96 183.02 C 409.57 182.90 411.55 182.59 411.16 184.89 C 412.82 185.20 415.58 184.24 415.16 186.91 C 416.41 186.97 417.66 187.02 418.91 187.05 C 418.41 188.25 418.06 189.50 417.74 190.77 C 414.55 192.56 410.37 192.71 407.27 190.73 C 406.51 189.28 405.70 187.77 405.99 186.08 C 406.73 186.04 408.20 185.97 408.94 185.94 C 408.41 185.02 408.09 184.05 407.96 183.02 Z"
       id="path46" />
  </g>
  <g
     id="#7f7f7fff">
    <path
       
        fill-opacity="0" opacity="0.00"
       d=" M 242.20 186.20 C 243.17 185.41 244.36 185.06 245.55 184.75 C 246.33 186.68 248.43 185.11 249.82 185.11 C 250.28 186.33 250.81 187.53 251.04 188.82 C 250.29 188.91 248.79 189.07 248.04 189.15 C 248.04 189.84 248.04 191.22 248.04 191.91 C 251.96 192.40 255.90 192.87 259.86 193.11 C 260.06 195.61 260.25 198.12 260.43 200.63 C 262.07 202.67 262.80 205.06 262.20 207.87 C 266.07 208.52 269.93 209.23 273.89 209.11 C 274.27 213.20 273.39 217.67 276.17 221.08 C 275.77 223.53 273.59 226.41 270.33 223.40 C 268.20 222.76 265.59 223.39 264.43 225.38 C 263.50 227.35 261.14 227.68 259.31 228.39 C 256.94 231.43 253.27 232.96 250.22 235.22 C 248.99 236.47 248.51 238.21 247.66 239.71 C 245.68 240.77 243.54 241.28 241.24 241.26 C 239.59 242.57 239.37 244.83 238.69 246.70 C 238.06 246.84 236.81 247.10 236.18 247.24 C 236.06 248.49 235.95 249.75 235.87 251.01 C 234.56 251.13 233.84 250.52 233.69 249.18 C 233.00 249.13 231.62 249.04 230.93 249.00 C 231.03 249.42 231.25 250.28 231.35 250.70 C 241.42 265.04 249.02 280.87 258.45 295.61 C 261.06 299.13 263.16 303.01 265.22 306.87 C 262.57 305.60 259.23 304.91 257.55 302.32 C 250.09 302.32 241.89 300.48 234.90 303.81 C 231.33 304.86 229.27 308.53 225.95 310.00 C 223.01 309.43 220.27 308.05 217.29 307.62 C 213.70 307.09 210.24 305.74 207.19 303.80 C 198.23 293.32 190.42 281.94 181.61 271.36 C 175.78 263.26 168.99 255.93 163.34 247.69 C 162.83 246.58 163.47 245.40 163.49 244.26 C 162.60 242.57 160.87 241.09 161.00 239.06 C 161.76 237.29 163.41 236.06 164.45 234.45 C 167.95 233.11 169.86 229.94 172.15 227.18 C 173.96 226.27 175.89 225.61 177.65 224.61 C 180.37 222.13 183.85 220.82 187.06 219.09 C 193.27 217.21 198.53 213.28 204.76 211.51 C 207.06 208.39 209.01 210.81 210.89 211.92 C 213.90 209.72 208.88 207.89 210.16 205.28 C 211.99 204.45 213.86 203.68 215.55 202.59 C 216.93 200.31 218.92 198.52 221.11 197.03 C 225.23 195.88 227.96 192.40 231.98 190.96 C 235.06 188.66 239.08 188.38 242.20 186.20 Z"
       id="path49" />
  </g>
  <g
     id="#3f7f00ff">
    <path
       
        fill-opacity="0" opacity="0.00"
       d=" M 364.26 194.43 C 365.83 194.96 367.19 196.24 369.00 196.32 C 369.04 196.94 369.10 198.17 369.13 198.78 C 372.70 198.63 375.09 201.82 378.82 201.19 C 375.06 206.63 381.15 207.15 382.60 204.60 C 385.66 202.88 381.65 196.08 389.01 199.99 C 395.98 196.46 393.70 200.67 393.29 203.08 C 393.05 206.18 392.11 209.16 391.15 212.10 C 392.96 211.36 395.53 211.38 396.40 209.33 C 398.87 208.63 401.48 208.61 404.04 208.21 C 403.72 209.42 403.26 210.59 402.95 211.80 C 405.72 210.86 408.62 210.85 411.51 210.53 C 413.28 208.49 415.79 206.73 418.86 208.01 C 418.94 209.31 419.03 210.61 419.13 211.91 C 420.58 211.96 423.49 212.07 424.94 212.12 C 427.55 213.82 429.74 216.58 433.18 216.29 C 432.88 217.85 432.17 219.33 432.12 220.93 C 432.69 223.24 434.15 225.38 433.94 227.83 C 432.36 228.40 430.74 228.85 429.12 229.24 C 428.89 231.81 428.86 234.39 429.02 236.98 C 430.49 236.80 433.44 236.43 434.91 236.25 C 434.98 237.50 435.05 238.75 435.12 240.01 C 436.06 239.76 437.00 239.49 437.94 239.19 C 438.02 240.79 438.17 244.00 438.25 245.60 C 440.51 245.76 440.56 248.92 438.80 249.83 C 436.19 250.07 433.58 250.16 430.96 250.09 C 430.88 251.60 430.89 253.25 432.83 253.31 C 433.21 256.19 432.94 259.08 433.02 261.99 C 432.23 262.02 430.65 262.09 429.86 262.12 C 430.73 263.66 432.59 264.17 433.95 265.19 C 432.11 266.93 431.31 270.66 428.18 270.00 C 428.08 269.26 427.90 267.77 427.81 267.02 C 421.28 266.75 414.83 268.15 408.31 268.19 C 407.94 271.42 404.00 269.68 402.14 268.78 C 401.91 264.95 403.55 261.03 402.79 257.24 C 400.66 255.25 398.85 251.94 394.98 253.98 C 393.27 253.74 391.73 254.50 390.24 255.21 C 389.80 256.74 390.43 258.84 388.73 259.71 C 386.88 260.28 385.00 260.77 383.12 261.22 C 382.96 262.80 383.00 264.39 383.04 265.98 C 381.53 266.23 378.51 266.73 377.00 266.98 C 368.86 270.44 373.23 264.95 373.08 262.05 C 371.49 262.76 369.45 262.91 368.52 264.57 C 366.94 264.71 363.78 265.00 362.20 265.14 C 361.80 266.69 362.39 268.98 360.30 269.37 C 360.10 270.55 359.94 271.74 359.83 272.94 C 359.13 272.95 357.75 272.99 357.06 273.00 C 356.90 269.98 357.12 267.06 356.94 264.06 C 355.27 263.96 353.61 263.99 351.96 263.98 C 349.94 261.83 349.98 258.92 349.86 256.11 C 348.46 256.07 345.65 255.98 344.24 255.94 C 344.58 253.03 344.81 250.12 345.17 247.23 C 346.54 246.94 347.95 246.81 349.28 246.33 C 351.47 245.95 353.62 245.40 355.73 244.70 C 358.63 243.53 355.42 238.99 357.23 237.35 C 359.85 236.58 362.00 234.71 364.87 234.78 C 365.26 231.55 366.52 228.13 364.84 225.09 C 363.62 224.88 362.43 224.93 361.27 225.26 C 359.93 226.36 358.97 228.23 356.98 228.06 C 357.08 226.69 357.41 225.35 357.63 224.00 C 357.38 222.13 356.01 219.32 358.60 218.53 L 359.30 214.26 C 360.87 211.18 365.81 214.67 367.95 212.93 C 368.07 210.31 368.08 207.69 367.98 205.08 C 366.27 205.03 362.84 204.94 361.13 204.90 C 360.88 202.17 361.08 199.38 359.18 197.27 C 360.96 196.49 362.70 195.60 364.26 194.43 Z"
       id="path52" />
  </g>
  <g
     id="#00bf7fff">
    <path
       
        fill-opacity="0" opacity="0.00"
       d=" M 499.38 201.85 C 500.26 206.63 503.63 210.40 504.91 215.05 C 506.15 224.07 502.23 232.79 503.10 241.79 C 503.57 242.09 504.50 242.71 504.96 243.01 C 505.98 244.38 506.23 246.07 505.89 247.72 C 504.62 248.10 503.15 248.21 502.57 249.59 C 501.46 249.85 500.34 250.08 499.22 250.29 C 498.03 251.76 496.92 253.33 496.01 255.00 C 496.38 255.93 496.79 256.85 497.24 257.75 C 501.17 256.25 503.31 259.24 505.70 261.29 C 505.62 263.73 506.23 266.36 506.61 268.83 C 505.72 269.88 504.75 270.86 503.76 271.81 C 499.81 272.80 497.11 268.08 493.21 269.06 C 493.09 269.74 492.87 271.12 492.75 271.81 C 491.52 273.02 489.55 273.02 488.47 274.43 C 485.84 275.90 487.47 279.45 486.90 281.96 C 486.64 284.29 482.74 286.51 481.37 283.84 C 481.57 282.61 481.96 281.40 481.95 280.15 C 481.16 279.52 480.26 279.12 479.27 278.95 C 479.14 277.67 479.00 276.40 478.85 275.13 C 469.31 280.11 478.72 265.52 468.99 270.96 C 467.70 270.93 466.43 270.98 465.17 271.12 C 464.07 272.09 464.08 273.58 463.77 274.90 C 463.10 274.93 461.76 274.98 461.09 275.01 C 459.57 272.56 462.59 268.12 459.80 266.11 C 456.53 265.52 454.15 268.23 451.42 269.42 C 450.95 270.62 450.61 271.88 449.86 272.94 C 449.19 272.93 447.86 272.91 447.19 272.90 C 446.79 271.43 445.39 269.84 446.31 268.31 C 447.36 267.04 448.57 265.88 449.31 264.39 C 450.87 263.11 450.97 261.14 451.31 259.30 C 452.41 258.75 453.54 258.24 454.65 257.69 C 454.82 257.07 455.14 255.84 455.30 255.23 C 460.22 257.70 459.89 253.69 460.72 251.28 C 456.80 250.59 460.60 244.22 459.06 242.23 C 461.64 242.31 463.68 241.10 465.07 238.98 C 463.99 236.54 460.88 235.56 460.19 232.83 C 459.80 231.95 459.45 231.06 459.15 230.15 C 460.25 228.27 462.39 229.43 464.02 229.70 C 465.28 229.49 466.50 229.11 467.75 228.79 C 467.87 228.10 468.12 226.73 468.24 226.05 C 471.82 225.90 475.39 226.13 478.95 226.74 C 479.12 223.89 478.89 220.96 479.09 218.13 C 482.19 216.47 487.32 218.87 489.80 215.79 C 492.52 213.95 489.65 209.54 491.22 207.27 C 494.04 205.68 497.66 204.86 499.38 201.85 Z"
       id="path55" />
  </g>
  <g
     id="#007f7fff">
    <path
       
        fill-opacity="0" opacity="0.00"
       d=" M 281.00 213.00 C 284.87 214.64 288.94 213.39 292.95 212.99 C 293.14 215.92 292.93 218.80 292.91 221.75 C 292.24 221.88 290.91 222.14 290.24 222.27 C 289.58 224.45 288.78 226.65 288.97 228.98 C 293.53 229.22 298.03 228.26 302.59 228.34 C 304.15 230.27 306.52 231.56 305.14 234.96 C 306.35 235.04 307.56 235.02 308.78 234.90 C 309.22 233.02 309.71 231.16 310.28 229.33 C 312.03 228.86 313.80 228.29 315.24 227.12 C 316.90 224.93 320.44 226.31 320.51 228.75 C 319.35 231.24 322.35 233.65 324.75 232.93 C 325.13 231.29 325.57 229.67 326.16 228.10 C 328.87 228.07 334.29 228.03 337.00 228.01 L 336.96 232.80 C 336.24 232.90 334.79 233.08 334.06 233.17 C 333.96 234.45 333.95 235.73 334.02 237.02 C 338.30 236.82 342.50 235.59 346.82 236.07 C 349.12 238.89 348.54 242.97 349.28 246.33 C 347.95 246.81 346.54 246.94 345.17 247.23 C 344.81 250.12 344.58 253.03 344.24 255.94 C 345.65 255.98 348.46 256.07 349.86 256.11 C 349.98 258.92 349.94 261.83 351.96 263.98 C 351.81 267.18 354.73 269.62 353.98 272.89 C 351.02 273.26 348.15 273.73 345.23 274.22 C 344.88 275.43 344.53 276.64 344.22 277.87 C 345.05 278.40 345.90 278.91 346.77 279.40 C 347.60 282.36 346.46 285.15 345.80 287.94 C 343.87 288.22 342.05 287.43 340.19 287.10 C 339.63 287.95 339.10 288.83 338.61 289.72 C 336.07 289.82 333.54 289.95 331.01 290.09 C 330.93 291.32 330.98 292.54 331.15 293.76 C 332.57 294.67 335.52 294.46 334.99 296.85 C 329.03 297.70 323.03 298.24 317.08 299.17 C 317.04 301.61 316.97 306.49 316.93 308.92 C 314.06 308.55 311.17 307.77 308.28 308.10 C 308.03 309.33 307.56 310.45 306.85 311.46 C 305.89 308.98 305.16 306.40 304.09 303.97 C 302.02 298.01 298.00 292.99 295.90 287.04 C 293.51 282.28 291.49 277.37 289.56 272.41 C 287.83 271.16 286.17 269.82 284.41 268.61 C 284.04 266.25 283.03 264.17 281.69 262.22 C 279.48 261.08 278.66 263.41 277.82 264.93 C 275.23 264.70 270.58 261.30 274.02 269.01 C 273.93 270.38 274.29 272.07 272.78 272.79 C 270.83 273.38 266.93 274.56 264.98 275.14 C 265.27 279.65 269.67 282.73 270.85 287.08 C 271.27 289.38 273.60 290.54 274.30 292.71 C 276.81 299.16 281.03 304.76 284.06 310.97 C 287.50 316.39 289.90 322.37 293.10 327.93 C 291.16 327.52 289.22 327.11 287.30 326.63 C 284.66 324.61 282.07 322.57 279.45 320.55 C 277.63 318.35 276.76 315.34 273.90 314.13 C 270.57 312.25 267.98 309.44 265.22 306.87 C 263.16 303.01 261.06 299.13 258.45 295.61 C 249.02 280.87 241.42 265.04 231.35 250.70 C 231.25 250.28 231.03 249.42 230.93 249.00 C 231.62 249.04 233.00 249.13 233.69 249.18 C 233.84 250.52 234.56 251.13 235.87 251.01 C 235.95 249.75 236.06 248.49 236.18 247.24 C 236.81 247.10 238.06 246.84 238.69 246.70 C 239.37 244.83 239.59 242.57 241.24 241.26 C 243.54 241.28 245.68 240.77 247.66 239.71 C 248.51 238.21 248.99 236.47 250.22 235.22 C 253.27 232.96 256.94 231.43 259.31 228.39 C 261.14 227.68 263.50 227.35 264.43 225.38 C 265.59 223.39 268.20 222.76 270.33 223.40 C 273.59 226.41 275.77 223.53 276.17 221.08 C 277.62 221.04 280.53 220.96 281.99 220.92 C 281.81 218.21 281.21 215.68 281.00 213.00 M 297.06 281.00 C 297.85 282.82 298.07 284.92 299.65 286.28 C 301.59 293.02 305.05 299.18 307.18 305.85 L 308.03 306.03 C 308.29 301.07 304.51 297.08 303.68 292.27 C 301.74 291.01 301.05 287.54 303.21 286.24 C 305.16 286.02 307.09 285.65 308.90 284.83 C 309.02 283.57 309.05 282.30 308.99 281.03 C 305.01 280.94 301.03 280.93 297.06 281.00 Z"
       id="path58" />
  </g>
  <g
     id="#bf3f00ff">
    <path
       
        fill-opacity="0" opacity="0.00"
       d=" M 698.17 227.93 C 700.41 228.96 703.34 230.96 702.70 233.70 C 698.33 238.21 695.56 243.97 692.04 249.11 C 692.06 249.53 692.09 250.38 692.11 250.81 C 694.14 253.03 696.60 254.74 699.18 256.28 C 699.05 256.88 698.78 258.09 698.65 258.69 C 693.12 265.25 688.41 272.42 683.40 279.36 C 683.21 279.82 682.82 280.73 682.63 281.19 C 682.28 281.08 681.56 280.85 681.21 280.74 C 681.28 276.98 679.40 273.72 677.50 270.62 C 675.78 268.57 677.50 263.59 674.23 262.63 C 673.89 261.45 674.49 260.30 674.64 259.15 C 673.06 257.38 670.87 254.99 667.91 256.84 C 668.30 253.77 671.78 252.37 672.37 249.33 C 672.95 249.20 674.11 248.93 674.69 248.80 C 674.13 246.36 673.57 243.71 673.71 241.26 C 672.81 240.23 671.86 239.26 670.84 238.37 C 669.54 238.61 668.24 238.92 666.94 239.03 C 666.67 236.55 669.87 236.67 670.55 234.63 C 670.94 233.16 672.32 232.71 673.70 233.12 C 673.69 235.03 675.22 235.22 676.76 234.88 C 677.26 233.62 677.74 232.34 678.25 231.08 C 680.22 231.35 682.02 232.30 683.95 232.82 C 685.71 233.12 685.11 229.55 687.01 230.05 C 688.54 229.75 688.69 231.67 688.43 232.72 C 689.52 233.12 690.75 233.36 691.38 234.47 C 693.22 234.07 695.02 234.43 696.80 234.93 C 697.09 232.56 697.73 230.27 698.17 227.93 Z"
       id="path61" />
  </g>
  <g
     id="#7fbf7fff">
    <path
       
        fill-opacity="0" opacity="0.00"
       d=" M 504.96 243.01 C 507.74 242.28 509.22 245.90 511.91 244.80 C 514.73 243.94 518.36 243.05 520.83 245.17 C 526.36 248.54 532.07 251.92 538.31 253.67 C 539.92 254.24 541.00 255.61 542.32 256.63 C 543.54 257.09 544.79 257.53 546.06 257.89 C 547.67 257.76 549.17 256.95 550.83 257.07 C 551.16 257.93 551.47 258.81 551.75 259.70 C 550.83 260.15 549.94 260.64 549.08 261.16 C 548.87 263.79 548.98 266.52 549.89 269.04 C 550.15 271.35 550.44 273.66 550.77 275.98 C 548.36 276.00 543.55 276.04 541.14 276.06 C 541.04 277.33 540.95 278.60 540.87 279.88 C 539.64 279.95 538.42 280.02 537.20 280.08 C 537.71 281.65 538.74 283.84 536.80 284.86 C 533.59 286.00 531.27 282.59 528.14 282.99 C 527.20 286.11 528.31 291.12 524.32 292.43 C 524.20 293.84 523.98 296.66 523.86 298.07 C 522.67 298.53 521.45 298.91 520.26 299.33 C 519.55 300.74 519.11 302.25 518.71 303.78 C 515.29 304.71 511.76 304.37 508.28 304.32 C 506.95 305.34 505.58 306.31 504.53 307.63 C 500.68 308.03 496.83 308.15 492.98 307.98 C 493.04 305.41 494.03 302.83 492.68 300.40 C 490.44 300.04 490.52 297.08 492.61 296.54 C 494.01 294.15 494.68 291.42 495.96 288.96 C 493.35 288.71 490.78 288.81 488.26 289.26 C 486.01 291.08 483.83 292.99 481.74 294.98 L 481.07 294.69 C 481.39 293.16 481.94 291.67 482.07 290.10 C 480.56 290.06 477.53 289.97 476.01 289.92 C 476.38 287.11 475.47 284.14 476.31 281.39 C 477.40 280.72 478.45 279.95 479.27 278.95 C 480.26 279.12 481.16 279.52 481.95 280.15 C 481.96 281.40 481.57 282.61 481.37 283.84 C 482.74 286.51 486.64 284.29 486.90 281.96 C 487.47 279.45 485.84 275.90 488.47 274.43 C 489.55 273.02 491.52 273.02 492.75 271.81 C 492.87 271.12 493.09 269.74 493.21 269.06 C 497.11 268.08 499.81 272.80 503.76 271.81 C 504.75 270.86 505.72 269.88 506.61 268.83 C 506.23 266.36 505.62 263.73 505.70 261.29 C 503.31 259.24 501.17 256.25 497.24 257.75 C 496.79 256.85 496.38 255.93 496.01 255.00 C 496.92 253.33 498.03 251.76 499.22 250.29 C 500.34 250.08 501.46 249.85 502.57 249.59 C 503.15 248.21 504.62 248.10 505.89 247.72 C 506.23 246.07 505.98 244.38 504.96 243.01 Z"
       id="path64" />
  </g>
  <g
     id="#bf7f00ff">
    <path
       
        fill-opacity="0" opacity="0.00"
       d=" M 390.24 255.21 C 391.73 254.50 393.27 253.74 394.98 253.98 C 398.85 251.94 400.66 255.25 402.79 257.24 C 403.55 261.03 401.91 264.95 402.14 268.78 C 404.00 269.68 407.94 271.42 408.31 268.19 C 414.83 268.15 421.28 266.75 427.81 267.02 C 427.90 267.77 428.08 269.26 428.18 270.00 C 431.31 270.66 432.11 266.93 433.95 265.19 C 432.59 264.17 430.73 263.66 429.86 262.12 C 430.65 262.09 432.23 262.02 433.02 261.99 C 436.22 262.05 439.34 261.34 442.55 261.28 C 443.72 263.76 447.04 263.54 449.31 264.39 C 448.57 265.88 447.36 267.04 446.31 268.31 C 445.39 269.84 446.79 271.43 447.19 272.90 C 447.86 272.91 449.19 272.93 449.86 272.94 C 450.61 271.88 450.95 270.62 451.42 269.42 C 454.15 268.23 456.53 265.52 459.80 266.11 C 462.59 268.12 459.57 272.56 461.09 275.01 C 461.76 274.98 463.10 274.93 463.77 274.90 C 464.08 273.58 464.07 272.09 465.17 271.12 C 466.43 270.98 467.70 270.93 468.99 270.96 C 478.72 265.52 469.31 280.11 478.85 275.13 C 479.00 276.40 479.14 277.67 479.27 278.95 C 478.45 279.95 477.40 280.72 476.31 281.39 C 475.47 284.14 476.38 287.11 476.01 289.92 C 477.53 289.97 480.56 290.06 482.07 290.10 C 481.94 291.67 481.39 293.16 481.07 294.69 L 481.74 294.98 C 482.97 295.41 484.36 296.56 485.70 295.71 C 486.80 294.77 487.81 293.73 488.99 292.89 C 488.30 296.31 489.37 300.89 486.08 303.06 C 483.49 306.36 474.41 302.08 476.50 309.50 C 476.25 309.75 475.75 310.25 475.50 310.50 L 474.78 314.79 C 469.92 313.85 466.72 318.56 466.74 322.78 C 466.23 323.00 465.21 323.45 464.70 323.67 C 460.46 326.73 460.01 323.28 458.65 321.24 C 455.40 320.38 451.14 323.76 452.57 327.55 C 449.09 329.21 448.04 333.77 443.90 334.25 C 442.28 333.19 440.53 332.28 439.27 330.78 C 438.85 329.19 439.22 327.27 437.83 326.10 C 431.48 322.43 434.18 328.04 431.82 329.84 C 429.54 329.03 427.11 329.80 425.81 331.88 C 423.94 332.05 422.15 330.80 420.31 331.43 C 418.32 332.17 416.24 331.71 414.21 331.53 C 412.32 330.06 410.82 328.29 409.70 326.21 C 408.17 325.79 406.71 326.78 405.20 326.86 C 402.42 324.56 402.17 320.73 400.01 317.99 C 400.59 316.95 401.39 316.06 402.01 315.04 C 401.64 313.79 400.04 313.67 399.23 312.78 C 400.57 309.27 397.97 307.76 396.29 305.70 C 395.39 303.94 397.63 302.05 396.62 300.31 C 393.31 295.18 396.85 288.43 393.74 283.25 C 392.08 282.38 390.22 282.08 388.45 281.55 C 387.98 280.58 387.13 280.44 386.17 280.55 C 383.70 276.06 385.20 270.53 383.04 265.98 C 383.00 264.39 382.96 262.80 383.12 261.22 C 385.00 260.77 386.88 260.28 388.73 259.71 C 390.43 258.84 389.80 256.74 390.24 255.21 Z"
       id="path67" />
  </g>
  <g
     id="#7f007fff">
    <path
       
        fill-opacity="0" opacity="0.00"
       d=" M 277.82 264.93 C 278.66 263.41 279.48 261.08 281.69 262.22 C 283.03 264.17 284.04 266.25 284.41 268.61 C 286.17 269.82 287.83 271.16 289.56 272.41 C 291.49 277.37 293.51 282.28 295.90 287.04 C 298.00 292.99 302.02 298.01 304.09 303.97 C 305.16 306.40 305.89 308.98 306.85 311.46 C 307.59 313.95 308.16 316.49 308.13 319.11 C 308.10 322.28 307.35 325.39 306.24 328.35 C 304.26 328.70 302.29 327.75 300.34 328.23 C 299.86 329.13 299.36 330.03 298.83 330.91 C 297.62 331.07 296.41 331.05 295.21 330.85 C 294.46 329.90 293.82 328.88 293.10 327.93 C 289.90 322.37 287.50 316.39 284.06 310.97 C 281.03 304.76 276.81 299.16 274.30 292.71 C 273.60 290.54 271.27 289.38 270.85 287.08 C 269.67 282.73 265.27 279.65 264.98 275.14 C 266.93 274.56 270.83 273.38 272.78 272.79 C 274.29 272.07 273.93 270.38 274.02 269.01 C 270.58 261.30 275.23 264.70 277.82 264.93 Z"
       id="path70" />
  </g>
  <g
     id="#bf007fff">
    <path
       
        fill-opacity="0" opacity="0.00"
       d=" M 368.52 264.57 C 369.45 262.91 371.49 262.76 373.08 262.05 C 373.23 264.95 368.86 270.44 377.00 266.98 C 378.51 266.73 381.53 266.23 383.04 265.98 C 385.20 270.53 383.70 276.06 386.17 280.55 C 387.13 280.44 387.98 280.58 388.45 281.55 C 390.22 282.08 392.08 282.38 393.74 283.25 C 396.85 288.43 393.31 295.18 396.62 300.31 C 397.63 302.05 395.39 303.94 396.29 305.70 C 397.97 307.76 400.57 309.27 399.23 312.78 C 400.04 313.67 401.64 313.79 402.01 315.04 C 401.39 316.06 400.59 316.95 400.01 317.99 C 402.17 320.73 402.42 324.56 405.20 326.86 C 406.71 326.78 408.17 325.79 409.70 326.21 C 410.82 328.29 412.32 330.06 414.21 331.53 C 416.24 331.71 418.32 332.17 420.31 331.43 C 422.15 330.80 423.94 332.05 425.81 331.88 C 427.20 331.93 428.59 332.00 430.00 332.09 C 429.98 332.54 429.96 333.43 429.95 333.87 C 427.22 333.90 424.81 334.55 422.30 335.33 C 420.08 337.39 417.08 338.71 415.35 341.26 C 414.63 346.02 411.24 349.99 406.95 352.00 C 405.43 351.94 404.15 350.98 402.74 350.53 C 401.18 350.54 399.58 350.41 398.07 350.89 C 398.31 347.32 394.67 344.11 391.12 345.01 C 391.03 346.43 390.86 349.29 390.77 350.72 C 388.48 352.27 385.84 353.11 383.41 354.37 C 382.16 356.16 380.80 357.85 379.63 359.69 C 379.29 359.72 378.60 359.77 378.26 359.80 C 375.92 355.28 372.38 351.72 368.84 348.18 C 367.19 346.16 364.82 343.02 361.95 344.83 C 360.94 341.33 364.95 339.41 364.90 336.23 C 363.75 335.28 362.33 334.76 361.22 333.79 C 361.07 332.63 360.94 331.48 360.84 330.32 C 357.62 330.42 354.42 330.16 351.23 330.51 C 349.75 329.21 348.28 327.91 346.23 327.71 C 346.08 326.55 345.93 325.39 345.80 324.23 C 343.29 324.02 340.80 322.54 338.30 323.39 C 334.05 324.70 329.56 324.78 325.27 325.87 C 325.14 325.42 324.86 324.52 324.73 324.07 C 323.20 323.95 322.26 325.40 321.01 326.01 C 320.23 325.52 319.47 325.01 318.72 324.49 C 316.42 324.36 313.69 325.88 312.08 323.81 C 311.96 321.82 312.99 319.98 313.04 318.00 C 311.39 318.33 309.79 318.83 308.13 319.11 C 308.16 316.49 307.59 313.95 306.85 311.46 C 307.56 310.45 308.03 309.33 308.28 308.10 C 311.17 307.77 314.06 308.55 316.93 308.92 C 316.97 306.49 317.04 301.61 317.08 299.17 C 323.03 298.24 329.03 297.70 334.99 296.85 C 335.52 294.46 332.57 294.67 331.15 293.76 C 330.98 292.54 330.93 291.32 331.01 290.09 C 333.54 289.95 336.07 289.82 338.61 289.72 C 339.10 288.83 339.63 287.95 340.19 287.10 C 342.05 287.43 343.87 288.22 345.80 287.94 C 346.46 285.15 347.60 282.36 346.77 279.40 C 345.90 278.91 345.05 278.40 344.22 277.87 C 344.53 276.64 344.88 275.43 345.23 274.22 C 348.15 273.73 351.02 273.26 353.98 272.89 C 354.73 269.62 351.81 267.18 351.96 263.98 C 353.61 263.99 355.27 263.96 356.94 264.06 C 357.12 267.06 356.90 269.98 357.06 273.00 C 357.75 272.99 359.13 272.95 359.83 272.94 C 359.94 271.74 360.10 270.55 360.30 269.37 C 362.39 268.98 361.80 266.69 362.20 265.14 C 363.78 265.00 366.94 264.71 368.52 264.57 M 363.22 300.33 C 362.07 302.21 359.90 301.99 357.97 302.11 C 357.67 303.83 359.19 304.73 360.22 305.81 C 362.49 305.60 364.79 305.30 367.09 304.90 C 366.16 303.12 363.88 302.23 363.80 300.01 L 363.22 300.33 M 380.27 307.34 C 378.85 307.88 377.43 308.39 376.01 308.89 C 374.51 308.20 372.85 307.62 371.21 308.19 C 370.22 309.19 369.24 310.19 368.30 311.25 C 367.79 313.08 367.22 314.90 366.69 316.73 C 365.72 317.63 364.74 318.57 364.97 320.03 C 366.35 319.93 367.54 319.13 368.90 318.94 C 367.55 320.59 368.91 325.82 371.79 324.93 C 371.93 323.87 372.38 322.99 373.15 322.29 C 374.43 322.68 375.66 322.25 376.93 321.99 C 376.97 323.33 377.02 324.67 377.06 326.01 C 379.30 326.69 378.92 324.25 380.12 323.18 C 380.55 323.33 381.41 323.64 381.84 323.79 C 383.68 322.81 382.76 320.75 382.37 319.22 C 383.29 317.63 384.03 315.96 384.19 314.10 C 388.86 318.84 390.90 310.54 387.27 310.66 C 385.37 308.98 383.06 306.22 380.27 307.34 Z"
       id="path73" />
  </g>
  <g
     id="#3f3f00ff">
    <path
       
        fill-opacity="0" opacity="0.00"
       d=" M 549.89 269.04 C 553.21 268.97 556.47 268.96 559.82 269.12 C 561.75 271.23 562.17 274.26 562.15 277.04 C 563.73 276.91 565.25 276.38 566.82 276.10 C 567.20 277.05 567.56 278.01 567.88 278.99 C 566.13 283.46 564.59 288.01 562.46 292.32 C 561.04 297.85 558.93 303.20 556.40 308.31 C 554.84 311.90 554.88 316.15 552.53 319.40 C 551.57 323.32 549.98 326.98 549.08 330.92 C 545.97 332.02 543.20 333.80 540.32 335.36 C 538.69 338.22 538.42 341.68 536.47 344.37 C 534.46 349.85 532.83 355.46 530.76 360.92 C 527.59 360.63 524.59 359.75 521.76 358.28 C 521.97 356.41 521.88 354.47 522.59 352.70 C 526.22 342.28 529.32 331.69 532.03 321.00 C 532.76 316.37 535.89 312.10 534.81 307.22 C 532.22 305.02 530.02 301.84 526.34 301.68 C 526.02 300.11 525.27 298.85 523.86 298.07 C 523.98 296.66 524.20 293.84 524.32 292.43 C 528.31 291.12 527.20 286.11 528.14 282.99 C 531.27 282.59 533.59 286.00 536.80 284.86 C 538.74 283.84 537.71 281.65 537.20 280.08 C 538.42 280.02 539.64 279.95 540.87 279.88 C 540.95 278.60 541.04 277.33 541.14 276.06 C 543.55 276.04 548.36 276.00 550.77 275.98 C 550.44 273.66 550.15 271.35 549.89 269.04 Z"
       id="path76" />
  </g>
  <g
     id="#00007fff">
    <path
       
        fill-opacity="0" opacity="0.00"
       d=" M 297.06 281.00 C 301.03 280.93 305.01 280.94 308.99 281.03 C 309.05 282.30 309.02 283.57 308.90 284.83 C 307.09 285.65 305.16 286.02 303.21 286.24 C 301.05 287.54 301.74 291.01 303.68 292.27 C 304.51 297.08 308.29 301.07 308.03 306.03 L 307.18 305.85 C 305.05 299.18 301.59 293.02 299.65 286.28 C 298.07 284.92 297.85 282.82 297.06 281.00 Z"
       id="path79" />
  </g>
  <g
     id="#7f3f7fff">
    <path
       
        fill-opacity="0" opacity="0.00"
       d=" M 488.26 289.26 C 490.78 288.81 493.35 288.71 495.96 288.96 C 494.68 291.42 494.01 294.15 492.61 296.54 C 490.52 297.08 490.44 300.04 492.68 300.40 C 494.03 302.83 493.04 305.41 492.98 307.98 C 496.83 308.15 500.68 308.03 504.53 307.63 C 505.58 306.31 506.95 305.34 508.28 304.32 C 511.76 304.37 515.29 304.71 518.71 303.78 C 519.11 302.25 519.55 300.74 520.26 299.33 C 521.45 298.91 522.67 298.53 523.86 298.07 C 525.27 298.85 526.02 300.11 526.34 301.68 C 530.02 301.84 532.22 305.02 534.81 307.22 C 535.89 312.10 532.76 316.37 532.03 321.00 C 529.32 331.69 526.22 342.28 522.59 352.70 C 521.88 354.47 521.97 356.41 521.76 358.28 C 520.27 358.72 518.73 358.93 517.23 359.29 C 515.26 360.83 515.14 363.53 514.74 365.80 C 511.72 367.14 508.36 367.28 505.24 368.26 C 502.22 371.18 502.82 375.93 501.69 379.74 C 500.11 381.49 498.48 383.19 496.80 384.84 C 490.77 388.36 492.42 383.67 491.81 381.16 C 489.71 380.41 487.58 379.85 485.39 379.48 C 484.27 378.96 483.34 377.78 482.00 377.98 C 480.33 377.73 479.38 379.47 477.90 379.86 C 473.60 382.03 468.60 380.53 464.04 381.12 C 460.75 381.70 457.51 382.44 454.30 383.32 C 452.17 385.61 449.43 387.31 446.19 387.25 C 445.69 371.52 446.26 355.77 445.91 340.05 C 445.15 338.14 444.03 336.35 443.90 334.25 C 448.04 333.77 449.09 329.21 452.57 327.55 C 451.14 323.76 455.40 320.38 458.65 321.24 C 460.01 323.28 460.46 326.73 464.70 323.67 C 465.21 323.45 466.23 323.00 466.74 322.78 C 466.72 318.56 469.92 313.85 474.78 314.79 L 475.50 310.50 C 475.75 310.25 476.25 309.75 476.50 309.50 C 474.41 302.08 483.49 306.36 486.08 303.06 C 489.37 300.89 488.30 296.31 488.99 292.89 C 487.81 293.73 486.80 294.77 485.70 295.71 C 484.36 296.56 482.97 295.41 481.74 294.98 C 483.83 292.99 486.01 291.08 488.26 289.26 Z"
       id="path82" />
  </g>
  <g
     id="#3f007fff">
    <path
       id="path91"
       d="m 380.27,307.34 c 2.79,-1.12 5.1,1.64 7,3.32 3.63,-0.12 1.59,8.18 -3.08,3.44 -0.16,1.86 -0.9,3.53 -1.82,5.12 0.39,1.53 1.31,3.59 -0.53,4.57 -0.43,-0.15 -1.29,-0.46 -1.72,-0.61 -1.2,1.07 -0.82,3.51 -3.06,2.83 -0.04,-1.34 -0.09,-2.68 -0.13,-4.02 -1.27,0.26 -2.5,0.69 -3.78,0.3 -0.77,0.7 -1.22,1.58 -1.36,2.64 -2.88,0.89 -4.24,-4.34 -2.89,-5.99 -1.36,0.19 -2.55,0.99 -3.93,1.09 -0.23,-1.46 0.75,-2.4 1.72,-3.3 0.53,-1.83 1.1,-3.65 1.61,-5.48 0.94,-1.06 1.92,-2.06 2.91,-3.06 1.64,-0.57 3.3,0.01 4.8,0.7 1.42,-0.5 2.84,-1.01 4.26,-1.55 z m -17.05,-7.01 0.58,-0.32 c 0.08,2.22 2.36,3.11 3.29,4.89 -2.3,0.4 -4.6,0.7 -6.87,0.91 -1.03,-1.08 -2.55,-1.98 -2.25,-3.7 1.93,-0.12 4.1,0.1 5.25,-1.78 z" />
  </g>
  <g
     id="#3f7f7fff">
    <path
       
        fill-opacity="0" opacity="0.00"
       d=" M 308.13 319.11 C 309.79 318.83 311.39 318.33 313.04 318.00 C 312.99 319.98 311.96 321.82 312.08 323.81 C 313.69 325.88 316.42 324.36 318.72 324.49 C 319.47 325.01 320.23 325.52 321.01 326.01 C 322.26 325.40 323.20 323.95 324.73 324.07 C 324.86 324.52 325.14 325.42 325.27 325.87 C 329.56 324.78 334.05 324.70 338.30 323.39 C 340.80 322.54 343.29 324.02 345.80 324.23 C 345.93 325.39 346.08 326.55 346.23 327.71 C 348.28 327.91 349.75 329.21 351.23 330.51 C 354.42 330.16 357.62 330.42 360.84 330.32 C 360.94 331.48 361.07 332.63 361.22 333.79 C 362.33 334.76 363.75 335.28 364.90 336.23 C 364.95 339.41 360.94 341.33 361.95 344.83 C 364.82 343.02 367.19 346.16 368.84 348.18 C 372.38 351.72 375.92 355.28 378.26 359.80 C 378.60 359.77 379.29 359.72 379.63 359.69 C 380.80 357.85 382.16 356.16 383.41 354.37 C 385.84 353.11 388.48 352.27 390.77 350.72 C 390.86 349.29 391.03 346.43 391.12 345.01 C 394.67 344.11 398.31 347.32 398.07 350.89 C 398.25 353.18 398.44 355.49 398.63 357.82 C 397.76 358.83 396.82 359.79 395.82 360.68 C 392.89 360.37 390.01 360.00 387.16 359.35 C 384.96 360.40 386.22 363.19 387.40 364.58 C 390.08 366.55 392.67 368.61 395.34 370.63 C 404.03 368.75 398.80 372.31 397.29 374.28 C 397.18 374.97 396.96 376.36 396.85 377.05 C 395.87 376.74 394.90 376.42 393.93 376.11 C 393.90 378.06 394.51 379.93 394.93 381.82 C 392.55 383.41 389.52 384.43 388.19 387.15 C 387.37 388.70 384.75 387.37 383.97 389.00 C 382.87 390.92 380.39 391.51 379.55 393.62 C 377.30 397.71 374.43 401.32 372.68 405.72 C 370.73 407.87 368.73 410.84 364.98 409.00 C 362.49 408.48 362.17 411.40 360.77 412.73 C 359.61 412.92 358.44 413.12 357.28 413.32 C 355.83 414.48 354.46 416.90 352.28 415.75 C 351.20 414.78 350.19 413.76 349.13 412.80 C 348.94 408.31 346.11 404.55 344.45 400.50 C 342.51 398.59 340.80 395.90 341.85 392.91 C 340.08 392.84 339.71 394.67 338.75 395.74 C 336.74 396.77 334.26 396.91 332.77 398.76 C 331.96 399.70 330.49 400.58 329.33 399.65 C 326.50 397.91 324.10 394.88 320.23 395.93 C 321.83 393.75 318.89 392.23 319.67 390.03 C 318.16 390.40 316.70 390.98 315.13 391.05 C 315.74 388.24 314.12 385.95 314.39 383.31 C 315.03 382.28 315.68 381.26 316.32 380.24 C 318.39 379.87 320.50 380.46 322.60 380.38 C 322.91 380.80 323.52 381.65 323.82 382.07 C 324.06 380.40 323.87 378.48 325.20 377.22 C 326.37 375.85 325.88 373.90 326.13 372.27 C 328.50 370.70 328.19 367.59 328.94 365.14 C 326.57 363.76 323.74 363.26 321.63 361.38 C 317.09 360.81 312.55 361.15 308.01 360.93 C 307.87 358.32 307.90 355.72 308.10 353.14 C 310.60 351.98 313.84 352.83 315.91 350.83 C 315.90 349.28 316.71 346.93 314.70 346.36 C 311.06 345.25 307.44 343.85 304.26 341.79 C 303.84 339.45 303.24 337.15 302.75 334.84 C 303.77 334.16 304.84 333.56 305.81 332.81 C 306.01 331.33 306.07 329.83 306.24 328.35 C 307.35 325.39 308.10 322.28 308.13 319.11 Z"
       id="path94" />
  </g>
  <g
     id="#003f7fff">
    <path
       
        fill-opacity="0" opacity="0.00"
       d=" M 431.82 329.84 C 434.18 328.04 431.48 322.43 437.83 326.10 C 439.22 327.27 438.85 329.19 439.27 330.78 C 440.53 332.28 442.28 333.19 443.90 334.25 C 444.03 336.35 445.15 338.14 445.91 340.05 C 446.26 355.77 445.69 371.52 446.19 387.25 C 441.65 390.53 436.34 392.48 431.78 395.65 C 426.23 397.61 422.21 402.31 419.36 407.29 C 421.06 410.86 418.38 412.04 416.39 413.39 C 415.94 415.62 415.56 418.18 413.42 419.47 C 413.24 419.89 412.86 420.72 412.67 421.13 C 412.12 416.53 410.78 412.10 409.50 407.67 C 409.26 403.27 408.45 398.95 407.52 394.66 C 407.36 391.93 406.86 389.54 405.83 387.11 C 404.60 387.27 403.43 387.72 402.20 387.86 C 401.50 386.90 400.25 386.20 400.15 384.93 C 399.78 382.04 397.92 379.70 396.85 377.05 C 396.96 376.36 397.18 374.97 397.29 374.28 C 398.80 372.31 404.03 368.75 395.34 370.63 C 392.67 368.61 390.08 366.55 387.40 364.58 C 386.22 363.19 384.96 360.40 387.16 359.35 C 390.01 360.00 392.89 360.37 395.82 360.68 C 396.82 359.79 397.76 358.83 398.63 357.82 C 398.44 355.49 398.25 353.18 398.07 350.89 C 399.58 350.41 401.18 350.54 402.74 350.53 C 404.15 350.98 405.43 351.94 406.95 352.00 C 411.24 349.99 414.63 346.02 415.35 341.26 C 417.08 338.71 420.08 337.39 422.30 335.33 C 424.81 334.55 427.22 333.90 429.95 333.87 C 429.96 333.43 429.98 332.54 430.00 332.09 C 428.59 332.00 427.20 331.93 425.81 331.88 C 427.11 329.80 429.54 329.03 431.82 329.84 Z"
       id="path97" />
  </g>
  <g
     id="#7f0000ff">
    <path
       
        fill-opacity="0" opacity="0.00"
       d=" M 298.84 340.88 C 297.05 337.22 299.78 334.68 302.75 334.84 C 303.24 337.15 303.84 339.45 304.26 341.79 C 307.44 343.85 311.06 345.25 314.70 346.36 C 316.71 346.93 315.90 349.28 315.91 350.83 C 313.84 352.83 310.60 351.98 308.10 353.14 C 307.90 355.72 307.87 358.32 308.01 360.93 C 312.55 361.15 317.09 360.81 321.63 361.38 C 323.74 363.26 326.57 363.76 328.94 365.14 C 328.19 367.59 328.50 370.70 326.13 372.27 C 324.12 371.21 322.32 369.84 320.67 368.29 C 316.08 365.58 315.08 370.77 312.03 372.05 C 310.11 371.04 309.58 368.10 307.19 367.96 C 307.00 370.23 306.54 372.48 305.62 374.59 C 304.41 375.39 303.20 376.21 302.12 377.19 C 301.20 379.89 304.36 382.86 302.20 385.22 C 300.95 386.42 301.13 388.23 300.83 389.80 L 300.07 389.88 C 299.99 389.48 299.81 388.69 299.73 388.30 C 296.04 387.81 292.41 384.06 294.00 379.98 C 294.45 378.03 292.67 376.93 290.97 376.81 C 290.97 375.63 291.05 374.45 291.19 373.28 C 292.72 372.48 294.54 372.10 295.73 370.78 C 298.30 361.80 296.71 352.34 296.13 343.19 C 296.91 342.30 298.93 342.32 298.84 340.88 Z"
       id="path100" />
  </g>
  <g
     id="#007f00ff">
    <path
       
        fill-opacity="0" opacity="0.00"
       d=" M 307.19 367.96 C 309.58 368.10 310.11 371.04 312.03 372.05 C 315.08 370.77 316.08 365.58 320.67 368.29 C 322.32 369.84 324.12 371.21 326.13 372.27 C 325.88 373.90 326.37 375.85 325.20 377.22 C 323.87 378.48 324.06 380.40 323.82 382.07 C 323.52 381.65 322.91 380.80 322.60 380.38 C 320.50 380.46 318.39 379.87 316.32 380.24 C 315.68 381.26 315.03 382.28 314.39 383.31 C 314.12 385.95 315.74 388.24 315.13 391.05 C 316.70 390.98 318.16 390.40 319.67 390.03 C 318.89 392.23 321.83 393.75 320.23 395.93 C 324.10 394.88 326.50 397.91 329.33 399.65 C 330.49 400.58 331.96 399.70 332.77 398.76 C 334.26 396.91 336.74 396.77 338.75 395.74 C 339.71 394.67 340.08 392.84 341.85 392.91 C 340.80 395.90 342.51 398.59 344.45 400.50 C 346.11 404.55 348.94 408.31 349.13 412.80 C 346.02 413.71 342.90 414.54 339.90 415.75 C 336.18 416.25 333.62 419.32 330.14 420.30 C 329.93 421.63 329.72 423.17 330.75 424.25 C 333.27 428.11 335.89 431.88 338.28 435.82 C 340.37 439.01 341.89 442.59 344.38 445.53 C 345.76 448.30 347.50 450.87 349.35 453.35 C 347.19 454.73 344.55 451.99 342.45 452.66 C 340.83 450.32 339.10 447.10 335.25 448.71 C 331.05 445.17 328.37 440.30 324.87 436.14 C 320.72 435.56 316.59 434.98 312.42 434.64 C 310.59 432.14 308.75 429.65 306.97 427.13 C 299.33 417.65 291.27 408.40 285.03 397.90 C 284.91 394.32 289.52 393.50 292.06 392.05 C 293.37 391.90 294.79 391.82 295.78 390.80 C 296.95 389.77 298.65 390.15 300.07 389.88 L 300.83 389.80 C 301.13 388.23 300.95 386.42 302.20 385.22 C 304.36 382.86 301.20 379.89 302.12 377.19 C 303.20 376.21 304.41 375.39 305.62 374.59 C 306.54 372.48 307.00 370.23 307.19 367.96 Z"
       id="path103" />
  </g>
  <g
     id="#bf7f7fff">
    <path
       
        fill-opacity="0" opacity="0.00"
       d=" M 393.93 376.11 C 394.90 376.42 395.87 376.74 396.85 377.05 C 397.92 379.70 399.78 382.04 400.15 384.93 C 400.25 386.20 401.50 386.90 402.20 387.86 C 403.43 387.72 404.60 387.27 405.83 387.11 C 406.86 389.54 407.36 391.93 407.52 394.66 C 408.45 398.95 409.26 403.27 409.50 407.67 C 410.78 412.10 412.12 416.53 412.67 421.13 C 412.75 422.61 412.89 425.55 412.96 427.02 C 411.21 426.77 409.33 425.37 407.67 426.62 C 405.43 427.95 401.52 428.24 403.81 432.75 C 400.49 433.17 397.37 434.41 394.16 435.26 C 391.63 438.42 391.24 442.70 388.84 445.92 C 385.51 445.15 381.79 445.69 379.48 448.43 C 376.44 448.38 373.95 449.97 371.63 451.62 C 365.20 451.98 358.63 448.64 352.44 451.42 C 351.86 452.68 350.56 452.99 349.35 453.35 C 347.50 450.87 345.76 448.30 344.38 445.53 C 341.89 442.59 340.37 439.01 338.28 435.82 C 335.89 431.88 333.27 428.11 330.75 424.25 C 329.72 423.17 329.93 421.63 330.14 420.30 C 333.62 419.32 336.18 416.25 339.90 415.75 C 342.90 414.54 346.02 413.71 349.13 412.80 C 350.19 413.76 351.20 414.78 352.28 415.75 C 354.46 416.90 355.83 414.48 357.28 413.32 C 358.44 413.12 359.61 412.92 360.77 412.73 C 362.17 411.40 362.49 408.48 364.98 409.00 C 368.73 410.84 370.73 407.87 372.68 405.72 C 374.43 401.32 377.30 397.71 379.55 393.62 C 380.39 391.51 382.87 390.92 383.97 389.00 C 384.75 387.37 387.37 388.70 388.19 387.15 C 389.52 384.43 392.55 383.41 394.93 381.82 C 394.51 379.93 393.90 378.06 393.93 376.11 Z"
       id="path106" />
  </g>
  <g
     id="#7f7f00ff">
    <path
       
        fill-opacity="0" opacity="0.00"
       d=" M 285.66 379.53 C 286.47 378.26 287.12 376.57 288.97 376.98 C 288.86 379.59 288.91 382.20 289.13 384.82 C 289.97 385.37 290.84 385.90 291.72 386.40 C 291.80 387.81 291.97 390.64 292.06 392.05 C 289.52 393.50 284.91 394.32 285.03 397.90 C 291.27 408.40 299.33 417.65 306.97 427.13 C 306.55 427.01 305.71 426.76 305.29 426.64 C 301.15 423.42 298.53 418.76 295.27 414.75 C 288.96 406.74 282.80 398.63 276.43 390.66 C 276.01 388.64 274.67 387.15 273.31 385.69 C 272.24 383.96 274.75 382.99 275.72 381.97 C 275.57 384.02 277.10 384.24 278.75 383.91 C 279.12 382.30 279.56 380.71 280.19 379.18 C 282.01 379.33 283.83 379.45 285.66 379.53 Z"
       id="path109" />
  </g>
  <g
     id="#000000ff">
    <path
       
        fill-opacity="0" opacity="0.00"
       d=" M 288.97 376.98 C 289.47 376.94 290.47 376.86 290.97 376.81 C 292.67 376.93 294.45 378.03 294.00 379.98 C 292.41 384.06 296.04 387.81 299.73 388.30 C 299.81 388.69 299.99 389.48 300.07 389.88 C 298.65 390.15 296.95 389.77 295.78 390.80 C 294.79 391.82 293.37 391.90 292.06 392.05 C 291.97 390.64 291.80 387.81 291.72 386.40 C 290.84 385.90 289.97 385.37 289.13 384.82 C 288.91 382.20 288.86 379.59 288.97 376.98 Z"
       id="path112" />
  </g>
</svg>
