<?xml version="1.0" encoding="UTF-8" ?>
<!DOCTYPE svg PUBLIC "-//W3C//DTD SVG 1.1//EN" "http://www.w3.org/Graphics/SVG/1.1/DTD/svg11.dtd">
<svg width="1920pt" height="1080pt" viewBox="0 0 1920 1080" version="1.1" xmlns="http://www.w3.org/2000/svg">
<g id="#df8f00ff">
<path fill="#df8f00" fill-opacity="0" d=" M 1201.97 135.73 C 1209.40 131.81 1219.98 130.14 1226.64 136.42 C 1229.42 138.98 1229.55 143.21 1229.27 146.73 C 1227.49 156.77 1225.38 166.76 1223.14 176.71 C 1222.68 178.98 1222.10 181.49 1223.33 183.65 C 1226.34 189.48 1231.30 194.52 1232.33 201.25 C 1233.87 210.64 1239.22 219.77 1248.21 223.76 C 1253.54 225.68 1260.23 227.03 1265.16 223.24 C 1272.10 220.07 1276.88 212.32 1284.98 211.89 C 1289.08 211.48 1293.25 211.14 1297.37 211.64 C 1306.39 212.27 1314.43 220.69 1312.89 230.02 C 1314.06 236.66 1309.21 241.76 1304.54 245.54 C 1300.26 248.85 1296.53 252.74 1293.18 256.96 C 1284.02 264.09 1272.81 269.04 1266.61 279.45 C 1261.14 280.26 1255.31 281.18 1250.03 278.90 C 1230.98 270.78 1213.40 259.46 1194.17 251.77 C 1196.23 247.09 1196.64 241.66 1193.79 237.19 C 1187.58 227.36 1183.63 216.39 1180.63 205.22 C 1179.51 205.63 1178.38 206.04 1177.28 206.45 L 1176.31 206.79 C 1177.75 194.22 1180.79 181.90 1182.62 169.38 C 1184.26 161.38 1184.79 153.12 1187.39 145.34 C 1189.48 139.10 1196.94 138.53 1201.97 135.73 Z" />
</g>
<g id="#5f0f00fe">
<path fill="#5f0f00" fill-opacity="0" d=" M 1131.73 177.89 C 1136.28 176.90 1141.21 175.90 1145.83 177.25 C 1150.07 178.29 1153.32 181.37 1156.67 183.98 C 1155.22 190.95 1153.98 197.99 1153.49 205.09 C 1153.41 208.22 1158.55 207.37 1160.04 208.05 C 1165.79 209.12 1171.83 208.65 1177.28 206.45 C 1178.38 206.04 1179.51 205.63 1180.63 205.22 C 1183.63 216.39 1187.58 227.36 1193.79 237.19 C 1196.64 241.66 1196.23 247.09 1194.17 251.77 C 1188.71 257.16 1181.86 260.71 1175.27 264.44 C 1169.36 269.13 1163.72 274.14 1157.45 278.35 C 1151.17 277.36 1144.64 277.68 1138.62 275.44 C 1125.21 270.82 1114.18 261.50 1103.47 252.52 C 1098.87 248.59 1092.48 245.53 1086.46 248.44 C 1078.28 250.69 1074.03 258.85 1067.34 263.47 C 1064.33 266.23 1059.84 265.31 1056.20 265.52 C 1057.50 260.62 1057.59 255.47 1057.37 250.45 C 1056.99 245.64 1053.62 241.07 1055.30 236.17 C 1056.75 231.19 1060.04 225.48 1056.37 220.61 C 1050.35 213.39 1042.23 207.32 1032.89 205.34 C 1037.29 199.83 1039.11 193.09 1040.42 186.32 C 1045.28 184.31 1050.95 185.49 1056.13 185.51 C 1059.71 185.39 1060.59 189.57 1062.41 191.80 C 1064.95 197.08 1072.57 200.33 1077.66 196.66 C 1084.79 192.11 1086.41 181.70 1094.61 178.58 C 1103.73 176.40 1108.35 187.86 1117.08 187.20 C 1122.35 184.76 1126.23 179.94 1131.73 177.89 Z" />
</g>
<g id="#df0f00ff">
<path fill="#df0f00" fill-opacity="0" d=" M 1018.06 209.99 C 1023.01 208.49 1027.76 206.16 1032.89 205.34 C 1042.23 207.32 1050.35 213.39 1056.37 220.61 C 1060.04 225.48 1056.75 231.19 1055.30 236.17 C 1053.62 241.07 1056.99 245.64 1057.37 250.45 C 1057.59 255.47 1057.50 260.62 1056.20 265.52 C 1045.92 282.50 1030.21 295.21 1015.57 308.27 C 998.11 304.70 980.63 301.21 963.27 297.20 C 947.90 293.35 932.58 289.29 917.19 285.54 C 919.49 276.15 923.96 267.21 924.29 257.40 C 924.34 253.98 922.35 250.02 918.66 249.54 C 913.35 248.49 907.92 249.68 902.69 250.58 C 910.93 242.15 920.29 234.37 925.79 223.72 C 928.69 218.06 934.89 212.28 941.54 216.40 C 946.50 220.73 946.82 228.97 953.13 231.93 C 963.44 238.39 976.12 237.01 987.44 234.59 C 997.42 232.53 1007.03 229.10 1016.94 226.75 C 1017.37 221.17 1017.65 215.57 1018.06 209.99 Z" />
</g>
<g id="#9f0f7ffe">
<path fill="#9f0f7f" fill-opacity="0" d=" M 1296.83 211.55 C 1301.20 209.62 1305.55 207.61 1309.78 205.37 C 1314.44 208.24 1318.72 212.60 1324.39 213.40 C 1330.00 213.81 1335.16 216.09 1340.30 218.20 C 1339.62 223.22 1338.03 229.09 1341.60 233.36 C 1343.77 237.60 1349.52 241.57 1346.78 246.76 C 1343.82 253.20 1345.01 260.29 1345.20 267.10 C 1354.69 270.78 1364.97 270.39 1374.93 271.44 C 1379.13 271.83 1382.77 276.11 1387.13 274.35 C 1391.02 273.48 1394.81 271.24 1398.92 271.93 C 1403.30 272.44 1406.99 275.07 1410.75 277.22 C 1415.26 279.89 1416.04 285.53 1418.63 289.65 C 1420.44 293.52 1423.78 296.51 1425.17 300.60 C 1426.37 306.09 1423.22 310.99 1422.64 316.30 C 1421.92 322.17 1422.21 328.17 1420.89 333.97 C 1419.60 340.02 1417.20 346.22 1419.42 352.43 C 1420.05 355.18 1420.91 360.29 1424.70 360.54 C 1432.47 361.71 1442.31 360.24 1448.24 366.74 C 1452.23 373.29 1451.30 381.98 1447.69 388.50 C 1439.02 406.05 1431.46 424.14 1422.62 441.58 C 1418.16 444.47 1412.02 443.60 1407.47 446.47 C 1402.97 453.17 1401.69 461.62 1396.87 468.18 C 1393.21 471.62 1388.83 475.37 1383.39 474.69 C 1379.00 472.32 1377.68 467.17 1375.63 463.01 C 1373.15 466.34 1371.10 470.17 1367.58 472.53 C 1362.86 475.81 1357.11 476.92 1351.88 479.11 C 1348.23 475.49 1344.14 471.53 1343.10 466.32 C 1344.58 460.85 1347.27 455.78 1349.29 450.49 C 1343.76 447.70 1336.99 443.98 1330.73 446.72 C 1324.34 449.25 1317.52 450.25 1310.85 451.71 C 1315.15 437.02 1323.16 423.30 1324.38 407.86 C 1321.99 398.10 1317.33 387.72 1308.56 382.19 C 1325.76 377.10 1343.11 372.11 1359.46 364.63 C 1355.61 355.91 1348.07 349.65 1343.66 341.27 C 1335.07 327.33 1328.26 312.38 1319.28 298.67 C 1313.58 289.54 1327.05 280.66 1322.69 271.32 C 1320.54 267.49 1315.53 267.90 1311.82 267.04 C 1304.47 266.37 1298.80 261.21 1293.18 256.96 C 1296.53 252.74 1300.26 248.85 1304.54 245.54 C 1309.21 241.76 1314.06 236.66 1312.89 230.02 C 1314.43 220.69 1306.39 212.27 1297.37 211.64 L 1296.83 211.55 Z" />
</g>
<g id="#1f8f00ff">
<path fill="#1f8f00" fill-opacity="0" d=" M 715.14 242.07 C 719.48 238.18 729.22 240.59 728.37 247.58 C 728.69 248.90 729.33 251.55 729.65 252.88 C 740.20 259.11 753.39 261.23 765.32 258.26 C 777.28 255.02 790.43 255.23 801.85 260.29 C 807.15 263.82 811.06 269.08 814.14 274.56 C 815.47 279.82 816.10 285.22 816.92 290.58 C 819.69 288.98 822.43 287.34 825.14 285.63 C 827.74 289.33 831.05 292.65 832.92 296.81 C 834.49 304.13 831.64 311.40 831.69 318.70 C 835.29 325.93 847.16 324.96 849.51 333.61 C 852.36 340.01 848.22 346.40 848.01 352.83 C 848.96 360.63 861.41 361.24 860.37 369.81 C 858.12 386.06 861.90 402.25 866.91 417.63 C 858.30 417.65 849.73 416.71 841.14 416.32 C 838.63 426.17 836.74 436.19 833.68 445.89 C 831.44 451.99 828.05 457.62 826.16 463.85 C 824.95 471.57 826.82 479.30 828.04 486.89 C 830.01 498.51 831.07 510.26 833.01 521.89 C 828.62 521.51 824.24 521.01 819.84 520.83 C 816.33 520.28 814.04 523.62 811.56 525.53 C 806.43 531.05 800.75 536.38 793.70 539.29 C 787.95 541.58 782.04 543.57 776.69 546.72 C 766.78 552.76 756.47 558.05 746.12 563.27 C 744.20 551.86 740.89 540.76 738.50 529.45 C 735.67 516.85 732.37 504.14 726.22 492.69 C 721.29 484.04 712.81 476.13 713.67 465.41 C 714.44 460.73 719.36 458.43 721.26 454.31 C 722.47 450.57 723.68 445.52 720.88 442.16 C 716.39 436.34 710.34 431.95 705.94 426.04 C 701.68 420.92 701.00 413.95 699.55 407.70 C 706.42 406.50 712.07 411.61 718.83 411.05 C 723.81 405.26 722.58 397.12 722.75 390.01 C 722.89 379.70 724.18 369.43 724.84 359.15 C 708.49 358.82 692.15 357.99 675.82 357.35 C 661.45 355.39 647.47 351.05 633.01 349.66 C 633.01 342.90 635.15 336.49 636.86 330.03 C 638.07 323.85 637.19 317.48 636.61 311.28 C 636.17 305.81 632.10 301.77 629.84 297.04 C 627.68 292.45 629.12 287.06 631.72 282.95 C 634.43 280.06 638.30 278.69 641.68 276.77 C 637.99 273.20 633.83 269.97 628.87 268.43 C 631.31 264.92 634.10 261.53 635.37 257.37 C 636.84 253.58 638.45 248.51 643.58 248.60 C 650.02 246.46 656.80 247.92 663.31 248.89 C 673.51 250.58 682.58 255.97 692.24 259.30 C 697.20 259.31 702.40 258.28 706.65 255.63 C 710.62 251.93 711.84 246.25 715.14 242.07 Z" />
</g>
<g id="#5f0f7fff">
<path fill="#5f0f7f" fill-opacity="0" d=" M 1086.46 248.44 C 1092.48 245.53 1098.87 248.59 1103.47 252.52 C 1114.18 261.50 1125.21 270.82 1138.62 275.44 C 1144.64 277.68 1151.17 277.36 1157.45 278.35 C 1150.04 283.39 1143.68 291.24 1143.37 300.54 C 1143.22 305.89 1144.60 311.15 1144.39 316.49 C 1144.72 323.60 1141.04 330.20 1141.84 337.33 C 1142.72 340.17 1145.99 341.15 1148.09 342.91 C 1153.92 346.24 1157.37 352.26 1160.95 357.73 C 1154.30 367.33 1145.93 375.61 1138.90 384.92 C 1130.78 390.95 1123.62 378.46 1115.18 381.06 C 1103.48 383.62 1094.42 392.58 1089.03 402.89 C 1086.96 406.96 1085.05 411.18 1082.18 414.76 C 1078.21 417.18 1073.94 419.01 1069.73 420.93 C 1060.30 419.09 1050.69 418.40 1041.34 416.17 C 1043.84 403.22 1034.13 392.39 1027.94 382.07 C 1024.87 376.39 1021.91 369.48 1024.08 363.01 C 1029.47 353.29 1041.49 349.68 1047.04 340.05 C 1047.92 337.97 1049.26 335.24 1047.88 333.11 C 1042.57 327.57 1035.52 324.25 1029.85 319.14 C 1025.38 315.17 1021.01 310.88 1015.57 308.27 C 1030.21 295.21 1045.92 282.50 1056.20 265.52 C 1059.84 265.31 1064.33 266.23 1067.34 263.47 C 1074.03 258.85 1078.28 250.69 1086.46 248.44 Z" />
</g>
<g id="#1f8f7fff">
<path fill="#1f8f7f" fill-opacity="0" d=" M 902.69 250.58 C 907.92 249.68 913.35 248.49 918.66 249.54 C 922.35 250.02 924.34 253.98 924.29 257.40 C 923.96 267.21 919.49 276.15 917.19 285.54 C 932.58 289.29 947.90 293.35 963.27 297.20 C 980.63 301.21 998.11 304.70 1015.57 308.27 C 1021.01 310.88 1025.38 315.17 1029.85 319.14 C 1035.52 324.25 1042.57 327.57 1047.88 333.11 C 1049.26 335.24 1047.92 337.97 1047.04 340.05 C 1041.49 349.68 1029.47 353.29 1024.08 363.01 C 1021.91 369.48 1024.87 376.39 1027.94 382.07 C 1034.13 392.39 1043.84 403.22 1041.34 416.17 C 1040.19 429.20 1037.14 442.31 1030.73 453.81 C 1019.03 456.52 1007.28 452.04 995.51 452.63 C 981.03 454.01 966.47 453.11 951.99 454.26 C 944.78 454.79 937.67 453.04 930.78 451.20 C 931.02 442.86 932.85 434.54 932.33 426.21 C 931.11 421.12 924.58 421.14 920.53 420.65 C 902.70 419.04 884.80 418.20 866.91 417.63 C 861.90 402.25 858.12 386.06 860.37 369.81 C 861.41 361.24 848.96 360.63 848.01 352.83 C 848.22 346.40 852.36 340.01 849.51 333.61 C 847.16 324.96 835.29 325.93 831.69 318.70 C 831.64 311.40 834.49 304.13 832.92 296.81 C 831.05 292.65 827.74 289.33 825.14 285.63 C 831.95 282.18 838.82 277.98 846.66 277.53 C 853.42 277.03 860.14 275.84 866.92 275.65 C 873.14 275.73 877.62 280.80 882.53 283.95 C 883.90 282.76 885.29 281.60 886.71 280.47 C 886.64 274.79 886.71 269.11 886.28 263.44 C 892.07 259.60 896.70 254.09 902.69 250.58 M 961.06 359.09 C 958.69 362.35 956.31 365.61 953.96 368.88 C 958.19 370.79 962.24 373.42 966.85 374.32 C 971.40 373.28 974.18 368.89 977.94 366.47 C 974.66 360.27 967.02 360.44 961.06 359.09 Z" />
</g>
<g id="#1f0f7fff">
<path fill="#1f0f7f" fill-opacity="0" d=" M 1175.27 264.44 C 1181.86 260.71 1188.71 257.16 1194.17 251.77 C 1213.40 259.46 1230.98 270.78 1250.03 278.90 C 1255.31 281.18 1261.14 280.26 1266.61 279.45 C 1263.32 284.42 1260.55 289.94 1255.76 293.69 C 1249.63 298.67 1242.64 303.90 1240.61 311.92 C 1239.19 316.84 1239.19 322.61 1242.05 327.01 C 1249.11 337.34 1256.97 347.60 1260.07 359.96 C 1248.28 361.73 1236.69 366.78 1224.59 364.68 C 1216.41 363.10 1211.87 354.53 1203.37 353.73 C 1195.96 352.02 1186.91 352.51 1181.25 358.23 C 1178.31 360.34 1175.67 363.25 1172.09 364.27 C 1167.74 363.68 1163.93 360.82 1160.95 357.73 C 1157.37 352.26 1153.92 346.24 1148.09 342.91 C 1145.99 341.15 1142.72 340.17 1141.84 337.33 C 1141.04 330.20 1144.72 323.60 1144.39 316.49 C 1144.60 311.15 1143.22 305.89 1143.37 300.54 C 1143.68 291.24 1150.04 283.39 1157.45 278.35 C 1163.72 274.14 1169.36 269.13 1175.27 264.44 Z" />
</g>
<g id="#5f8f00ff">
<path fill="#5f8f00" fill-opacity="0" d=" M 1266.61 279.45 C 1272.81 269.04 1284.02 264.09 1293.18 256.96 C 1298.80 261.21 1304.47 266.37 1311.82 267.04 C 1315.53 267.90 1320.54 267.49 1322.69 271.32 C 1327.05 280.66 1313.58 289.54 1319.28 298.67 C 1328.26 312.38 1335.07 327.33 1343.66 341.27 C 1348.07 349.65 1355.61 355.91 1359.46 364.63 C 1343.11 372.11 1325.76 377.10 1308.56 382.19 C 1301.61 379.96 1299.66 372.91 1296.32 367.38 C 1293.60 362.02 1287.54 360.92 1282.20 360.31 C 1274.84 359.72 1267.43 359.05 1260.07 359.96 C 1256.97 347.60 1249.11 337.34 1242.05 327.01 C 1239.19 322.61 1239.19 316.84 1240.61 311.92 C 1242.64 303.90 1249.63 298.67 1255.76 293.69 C 1260.55 289.94 1263.32 284.42 1266.61 279.45 Z" />
</g>
<g id="#5f8f7ffe">
<path fill="#5f8f7f" fill-opacity="0" d=" M 581.90 274.80 C 597.63 273.22 613.17 270.08 628.87 268.43 C 633.83 269.97 637.99 273.20 641.68 276.77 C 638.30 278.69 634.43 280.06 631.72 282.95 C 629.12 287.06 627.68 292.45 629.84 297.04 C 632.10 301.77 636.17 305.81 636.61 311.28 C 637.19 317.48 638.07 323.85 636.86 330.03 C 635.15 336.49 633.01 342.90 633.01 349.66 C 631.70 362.77 633.61 376.05 631.04 389.06 C 629.58 397.00 629.63 405.29 626.82 412.94 C 624.89 418.56 621.08 423.47 620.11 429.41 C 618.78 436.28 622.68 442.62 625.25 448.72 C 628.13 455.41 633.41 460.91 635.64 467.86 C 630.42 476.35 620.69 480.85 612.24 485.48 C 601.08 490.57 590.21 496.75 577.96 498.82 C 577.47 493.97 578.67 488.18 574.55 484.52 C 567.21 476.83 558.07 471.15 548.80 466.08 C 546.99 465.19 545.18 464.11 543.15 463.90 C 535.19 465.70 529.21 471.71 524.02 477.63 C 519.69 477.64 515.33 477.83 511.01 477.95 C 500.37 457.89 491.67 436.86 481.41 416.61 C 476.73 409.36 481.10 400.75 483.54 393.46 C 487.62 384.77 489.88 374.89 496.91 367.93 C 502.95 361.86 509.26 353.42 518.79 354.29 C 526.17 354.68 533.38 358.71 540.89 356.91 C 544.91 356.02 547.32 352.35 548.92 348.84 C 551.87 343.33 549.41 336.96 548.69 331.17 C 546.10 317.76 543.98 302.62 551.25 290.25 C 558.07 280.36 570.27 275.65 581.90 274.80 Z" />
</g>
<g id="#1f0f00ff">
<path fill="#1f0f00" fill-opacity="0" d=" M 633.01 349.66 C 647.47 351.05 661.45 355.39 675.82 357.35 C 692.15 357.99 708.49 358.82 724.84 359.15 C 724.18 369.43 722.89 379.70 722.75 390.01 C 722.58 397.12 723.81 405.26 718.83 411.05 C 712.07 411.61 706.42 406.50 699.55 407.70 C 701.00 413.95 701.68 420.92 705.94 426.04 C 710.34 431.95 716.39 436.34 720.88 442.16 C 723.68 445.52 722.47 450.57 721.26 454.31 C 719.36 458.43 714.44 460.73 713.67 465.41 C 712.81 476.13 721.29 484.04 726.22 492.69 C 732.37 504.14 735.67 516.85 738.50 529.45 C 740.89 540.76 744.20 551.86 746.12 563.27 C 734.32 569.18 728.24 581.97 717.43 589.22 C 712.68 590.83 707.15 592.95 702.22 590.75 C 697.24 587.96 693.59 583.41 689.33 579.74 C 679.77 576.46 672.07 584.08 664.63 588.58 C 657.53 593.35 648.63 595.12 642.26 600.98 C 637.19 605.39 630.86 607.85 624.93 610.85 C 617.87 614.49 609.85 615.59 602.57 618.61 C 599.95 619.48 599.13 622.31 597.92 624.48 C 597.46 624.92 597.00 625.36 596.56 625.82 C 588.94 610.92 582.94 595.27 575.72 580.17 C 572.71 574.14 572.06 567.14 568.63 561.33 C 563.14 555.07 554.14 552.69 549.51 545.58 C 545.84 539.33 543.40 532.45 540.08 526.02 C 534.42 513.29 528.09 500.84 523.22 487.77 C 521.88 484.46 523.01 480.85 524.02 477.63 C 529.21 471.71 535.19 465.70 543.15 463.90 C 545.18 464.11 546.99 465.19 548.80 466.08 C 558.07 471.15 567.21 476.83 574.55 484.52 C 578.67 488.18 577.47 493.97 577.96 498.82 C 590.21 496.75 601.08 490.57 612.24 485.48 C 620.69 480.85 630.42 476.35 635.64 467.86 C 633.41 460.91 628.13 455.41 625.25 448.72 C 622.68 442.62 618.78 436.28 620.11 429.41 C 621.08 423.47 624.89 418.56 626.82 412.94 C 629.63 405.29 629.58 397.00 631.04 389.06 C 633.61 376.05 631.70 362.77 633.01 349.66 M 661.61 489.53 C 662.91 490.02 664.22 490.51 665.54 491.02 C 665.34 489.23 665.14 487.44 664.95 485.66 C 663.83 486.95 662.71 488.24 661.61 489.53 Z" />
</g>
<g id="#9f8f7ffe">
<path fill="#9f8f7f" fill-opacity="0" d=" M 1181.25 358.23 C 1186.91 352.51 1195.96 352.02 1203.37 353.73 C 1211.87 354.53 1216.41 363.10 1224.59 364.68 C 1236.69 366.78 1248.28 361.73 1260.07 359.96 C 1267.43 359.05 1274.84 359.72 1282.20 360.31 C 1287.54 360.92 1293.60 362.02 1296.32 367.38 C 1299.66 372.91 1301.61 379.96 1308.56 382.19 C 1317.33 387.72 1321.99 398.10 1324.38 407.86 C 1323.16 423.30 1315.15 437.02 1310.85 451.71 C 1308.00 459.76 1305.43 467.96 1301.54 475.59 C 1299.73 477.63 1297.03 479.78 1294.11 479.01 C 1289.19 478.45 1285.28 474.47 1280.24 474.61 C 1277.38 474.78 1273.88 475.46 1272.68 478.46 C 1269.19 486.31 1269.03 496.00 1261.80 501.78 C 1256.82 504.76 1250.13 504.71 1245.04 501.94 C 1237.57 497.82 1228.90 497.26 1220.75 495.25 C 1216.36 515.14 1210.30 534.62 1205.03 554.29 C 1203.54 560.52 1197.27 563.41 1192.54 566.97 C 1196.78 548.63 1203.15 530.81 1206.33 512.22 C 1199.66 509.71 1192.92 506.81 1185.71 506.52 C 1161.17 506.41 1136.29 506.41 1112.31 512.26 C 1112.64 504.73 1113.14 497.14 1112.10 489.65 C 1110.33 482.17 1102.58 478.17 1099.82 471.24 C 1097.89 464.46 1102.58 458.35 1102.15 451.69 C 1101.08 444.21 1093.52 440.79 1087.86 437.17 C 1080.43 433.45 1075.57 426.54 1069.73 420.93 C 1073.94 419.01 1078.21 417.18 1082.18 414.76 C 1085.05 411.18 1086.96 406.96 1089.03 402.89 C 1094.42 392.58 1103.48 383.62 1115.18 381.06 C 1123.62 378.46 1130.78 390.95 1138.90 384.92 C 1145.93 375.61 1154.30 367.33 1160.95 357.73 C 1163.93 360.82 1167.74 363.68 1172.09 364.27 C 1175.67 363.25 1178.31 360.34 1181.25 358.23 Z" />
</g>
<g id="#9f0f00ff">
<path fill="#9f0f00" fill-opacity="0" d=" M 961.06 359.09 C 967.02 360.44 974.66 360.27 977.94 366.47 C 974.18 368.89 971.40 373.28 966.85 374.32 C 962.24 373.42 958.19 370.79 953.96 368.88 C 956.31 365.61 958.69 362.35 961.06 359.09 Z" />
</g>
<g id="#df8f7fff">
<path fill="#df8f7f" fill-opacity="0" d=" M 841.14 416.32 C 849.73 416.71 858.30 417.65 866.91 417.63 C 884.80 418.20 902.70 419.04 920.53 420.65 C 924.58 421.14 931.11 421.12 932.33 426.21 C 932.85 434.54 931.02 442.86 930.78 451.20 C 937.67 453.04 944.78 454.79 951.99 454.26 C 966.47 453.11 981.03 454.01 995.51 452.63 C 1007.28 452.04 1019.03 456.52 1030.73 453.81 C 1037.14 442.31 1040.19 429.20 1041.34 416.17 C 1050.69 418.40 1060.30 419.09 1069.73 420.93 C 1075.57 426.54 1080.43 433.45 1087.86 437.17 C 1093.52 440.79 1101.08 444.21 1102.15 451.69 C 1102.58 458.35 1097.89 464.46 1099.82 471.24 C 1102.58 478.17 1110.33 482.17 1112.10 489.65 C 1113.14 497.14 1112.64 504.73 1112.31 512.26 C 1103.91 516.45 1094.95 521.83 1090.83 530.63 C 1088.30 538.98 1087.81 547.87 1084.69 556.09 C 1076.56 557.03 1068.38 558.19 1060.19 557.21 C 1056.12 557.12 1051.88 555.78 1047.88 557.05 C 1042.07 559.10 1039.45 567.42 1043.98 571.99 C 1050.87 579.52 1062.49 579.27 1069.93 586.23 C 1070.18 592.59 1065.92 598.34 1060.97 602.00 C 1053.08 608.08 1046.61 615.81 1040.97 623.97 C 1039.04 626.70 1038.99 630.19 1038.58 633.39 C 1037.36 647.07 1036.59 660.81 1034.42 674.40 C 1025.43 670.86 1016.60 666.97 1007.77 663.10 C 997.44 658.96 987.50 652.15 981.74 642.48 C 977.77 632.33 972.98 621.93 973.55 610.77 C 974.49 603.33 969.74 597.08 964.64 592.36 C 959.09 587.69 951.34 588.51 944.66 587.58 C 934.86 586.57 925.54 582.70 915.60 582.64 C 910.64 582.32 904.75 583.97 900.45 580.57 C 895.81 577.20 891.40 573.25 885.76 571.62 C 882.93 570.08 879.11 569.77 876.96 567.13 C 874.69 563.04 874.97 558.08 872.90 553.91 C 869.45 547.25 863.68 541.48 862.66 533.77 C 861.90 530.09 862.33 526.01 860.34 522.73 C 857.55 520.52 854.30 518.77 850.91 517.74 C 844.75 518.04 838.74 519.67 833.01 521.89 C 831.07 510.26 830.01 498.51 828.04 486.89 C 826.82 479.30 824.95 471.57 826.16 463.85 C 828.05 457.62 831.44 451.99 833.68 445.89 C 836.74 436.19 838.63 426.17 841.14 416.32 Z" />
</g>
<g id="#9f8f00ff">
<path fill="#9f8f00" fill-opacity="0" d=" M 661.61 489.53 C 662.71 488.24 663.83 486.95 664.95 485.66 C 665.14 487.44 665.34 489.23 665.54 491.02 C 664.22 490.51 662.91 490.02 661.61 489.53 Z" />
</g>
<g id="#df0f7ffe">
<path fill="#df0f7f" fill-opacity="0" d=" M 1112.31 512.26 C 1136.29 506.41 1161.17 506.41 1185.71 506.52 C 1192.92 506.81 1199.66 509.71 1206.33 512.22 C 1203.15 530.81 1196.78 548.63 1192.54 566.97 C 1191.39 571.27 1190.15 575.56 1189.31 579.94 C 1183.10 579.15 1176.84 577.15 1170.62 577.66 C 1162.42 586.82 1155.86 597.81 1152.71 609.86 C 1149.08 610.39 1145.40 611.59 1141.73 611.10 C 1136.69 608.69 1132.18 605.34 1127.29 602.65 C 1124.71 616.77 1122.11 631.64 1113.49 643.53 C 1111.00 647.33 1106.18 647.58 1102.17 648.44 C 1096.72 649.25 1093.22 653.93 1089.15 657.14 C 1085.94 660.26 1081.57 663.15 1081.04 667.97 C 1079.55 677.44 1078.04 686.91 1076.68 696.41 C 1068.92 695.07 1062.44 690.29 1055.24 687.43 C 1047.67 684.40 1041.17 679.33 1034.32 675.06 L 1034.42 674.40 C 1036.59 660.81 1037.36 647.07 1038.58 633.39 C 1038.99 630.19 1039.04 626.70 1040.97 623.97 C 1046.61 615.81 1053.08 608.08 1060.97 602.00 C 1065.92 598.34 1070.18 592.59 1069.93 586.23 C 1062.49 579.27 1050.87 579.52 1043.98 571.99 C 1039.45 567.42 1042.07 559.10 1047.88 557.05 C 1051.88 555.78 1056.12 557.12 1060.19 557.21 C 1068.38 558.19 1076.56 557.03 1084.69 556.09 C 1087.81 547.87 1088.30 538.98 1090.83 530.63 C 1094.95 521.83 1103.91 516.45 1112.31 512.26 Z" />
</g>
</svg>
