<?xml version="1.0" encoding="UTF-8" ?>
<!DOCTYPE svg PUBLIC "-//W3C//DTD SVG 1.1//EN" "http://www.w3.org/Graphics/SVG/1.1/DTD/svg11.dtd">
<svg width="1920pt" height="1080pt" viewBox="0 0 1920 1080" version="1.1" xmlns="http://www.w3.org/2000/svg">
<g id="#1f4f7fff">
<path fill="#1f4f7f" fill-opacity="0" d=" M 1204.54 162.85 C 1211.67 159.70 1219.88 161.29 1226.64 164.66 C 1225.03 171.84 1226.57 179.07 1226.40 186.29 C 1225.46 193.79 1224.03 201.25 1222.10 208.56 C 1226.43 210.31 1231.19 212.48 1235.97 211.01 C 1241.47 209.21 1247.01 207.14 1252.87 206.93 C 1252.03 211.62 1251.15 216.36 1251.41 221.15 C 1251.53 228.37 1254.32 235.27 1254.44 242.48 C 1256.11 248.60 1250.15 251.92 1246.80 255.88 L 1245.96 256.09 C 1236.31 258.48 1226.27 256.95 1216.46 257.84 C 1208.43 257.88 1199.73 260.63 1192.17 256.87 C 1182.95 251.31 1179.75 240.42 1175.03 231.41 C 1171.08 234.88 1166.04 236.70 1160.83 237.10 C 1160.53 234.84 1160.91 232.57 1161.34 230.35 C 1163.78 218.81 1163.86 206.89 1166.60 195.40 C 1168.13 191.35 1170.82 187.83 1173.49 184.47 C 1177.12 179.95 1183.51 180.62 1188.31 178.13 C 1194.14 173.51 1197.91 166.50 1204.54 162.85 Z" />
</g>
<g id="#1f4f00ff">
<path fill="#1f4f00" fill-opacity="0" d=" M 1310.97 186.86 C 1314.12 182.52 1320.80 184.67 1324.14 187.85 C 1327.03 191.31 1330.13 195.01 1331.31 199.47 C 1331.66 206.72 1328.50 213.49 1326.92 220.45 C 1337.40 224.34 1348.79 228.86 1354.37 239.33 C 1358.10 244.17 1356.66 250.61 1358.88 256.02 C 1360.20 259.74 1362.36 263.10 1364.96 266.05 C 1367.88 269.08 1367.41 273.57 1368.87 277.26 C 1370.63 281.67 1373.65 285.41 1376.67 289.03 C 1371.63 288.19 1365.69 287.97 1361.59 291.58 C 1357.10 295.52 1353.23 300.29 1347.77 303.00 C 1335.38 299.38 1326.33 288.96 1314.17 284.76 C 1307.83 282.43 1300.87 284.93 1294.54 282.84 C 1290.31 279.54 1286.84 275.31 1282.31 272.40 C 1276.53 270.02 1269.85 269.97 1264.60 266.32 C 1259.04 262.32 1253.71 257.26 1246.80 255.88 C 1250.15 251.92 1256.11 248.60 1254.44 242.48 C 1254.32 235.27 1251.53 228.37 1251.41 221.15 C 1251.15 216.36 1252.03 211.62 1252.87 206.93 C 1257.94 206.83 1263.78 208.85 1268.41 205.84 C 1275.55 201.54 1282.32 196.64 1289.63 192.60 C 1292.29 198.20 1295.50 203.63 1296.95 209.73 C 1299.22 209.08 1301.50 208.47 1303.81 207.91 C 1305.78 200.79 1307.38 193.39 1310.97 186.86 Z" />
</g>
<g id="#1f0fbfff">
<path fill="#1f0fbf" fill-opacity="0" d=" M 773.74 224.55 C 777.74 223.96 781.74 222.75 785.82 222.82 C 790.16 224.12 792.79 228.78 797.40 229.56 C 801.73 230.33 806.28 230.96 810.68 230.19 C 816.18 228.78 821.58 226.41 827.35 226.36 C 829.72 226.20 831.30 228.51 831.35 230.68 C 832.16 238.91 832.76 247.16 833.68 255.38 C 828.74 253.36 825.24 249.31 822.31 245.01 C 818.98 248.72 814.88 251.89 812.39 256.27 C 810.29 261.36 808.60 267.15 810.37 272.59 C 812.68 282.05 820.63 289.78 819.63 300.03 C 819.45 314.39 821.48 328.68 825.87 342.36 C 815.31 341.68 804.90 332.94 794.35 338.39 C 787.14 341.07 783.54 347.76 781.84 354.72 C 776.99 348.39 770.48 341.39 761.65 342.35 C 738.20 345.22 722.08 365.62 699.16 369.89 C 690.05 365.54 679.27 367.38 670.41 371.38 C 664.31 376.29 658.03 381.86 649.92 382.82 C 649.20 375.52 649.15 366.55 655.82 361.82 C 665.13 353.22 678.57 355.03 689.58 350.48 C 694.50 347.89 693.38 341.83 692.50 337.36 C 691.04 327.50 687.41 318.15 685.94 308.32 C 684.13 301.24 689.50 292.56 697.18 292.67 C 704.04 292.51 710.92 293.88 717.77 292.57 C 714.44 281.97 707.51 272.57 707.37 261.07 C 710.06 260.45 712.78 259.19 715.60 259.54 C 720.01 261.57 722.44 266.11 725.64 269.54 C 727.66 268.49 731.60 269.52 732.91 266.87 C 736.57 262.47 735.60 256.65 737.07 251.53 C 740.10 246.31 744.33 241.15 750.32 239.32 C 756.33 237.38 762.74 236.86 768.60 234.38 C 770.78 231.37 772.34 227.97 773.74 224.55 Z" />
</g>
<g id="#9fcf7ffe">
<path fill="#9fcf7f" fill-opacity="0" d=" M 1160.83 237.10 C 1166.04 236.70 1171.08 234.88 1175.03 231.41 C 1179.75 240.42 1182.95 251.31 1192.17 256.87 C 1199.73 260.63 1208.43 257.88 1216.46 257.84 C 1226.27 256.95 1236.31 258.48 1245.96 256.09 C 1250.07 261.91 1255.35 267.29 1257.44 274.25 C 1258.40 282.36 1252.45 288.88 1247.79 294.78 C 1243.79 299.55 1240.41 305.31 1234.40 307.78 C 1224.91 311.46 1218.02 319.04 1211.39 326.43 C 1204.06 330.43 1195.95 333.52 1187.51 333.64 C 1180.37 334.44 1173.66 331.72 1166.78 330.42 C 1161.11 329.39 1155.54 331.52 1150.16 332.92 C 1141.56 335.42 1132.63 336.49 1123.78 337.60 C 1123.50 341.39 1123.27 345.20 1123.11 349.01 C 1121.72 349.62 1120.35 350.24 1118.99 350.86 C 1114.75 348.88 1110.58 346.53 1105.94 345.70 C 1101.60 345.09 1097.23 345.94 1093.00 346.83 C 1094.30 333.50 1092.77 318.81 1101.35 307.54 C 1104.93 297.38 1103.91 286.29 1105.37 275.72 C 1106.47 270.02 1110.83 265.66 1114.80 261.77 C 1116.88 259.59 1120.64 260.37 1122.12 262.85 C 1124.83 266.75 1127.24 270.93 1130.86 274.11 C 1134.04 266.41 1136.17 258.29 1137.00 249.98 C 1137.30 246.78 1138.77 243.51 1141.72 241.94 C 1147.77 239.24 1154.29 237.94 1160.83 237.10 Z" />
</g>
<g id="#9f8fbfff">
<path fill="#9f8fbf" fill-opacity="0" d=" M 822.31 245.01 C 825.24 249.31 828.74 253.36 833.68 255.38 C 852.49 263.00 873.38 258.40 892.73 263.35 C 896.58 268.36 894.25 275.16 896.28 280.79 C 904.91 284.20 914.23 274.68 922.61 280.40 C 930.78 287.04 922.63 299.30 929.44 306.55 C 935.31 311.41 942.20 314.98 949.42 317.39 C 946.80 322.37 944.84 327.66 942.94 332.94 C 935.87 334.57 928.41 332.53 921.50 335.17 C 918.38 335.78 915.15 339.17 916.72 342.42 C 920.12 347.09 925.04 350.52 928.24 355.35 C 928.50 358.88 925.61 361.76 924.22 364.80 C 916.18 361.40 908.44 357.02 899.79 355.37 C 894.86 354.06 889.51 353.55 885.07 350.85 C 880.12 347.55 877.71 341.28 872.20 338.72 C 869.07 337.24 865.51 336.41 862.07 337.15 C 850.12 339.47 838.16 342.91 825.87 342.36 C 821.48 328.68 819.45 314.39 819.63 300.03 C 820.63 289.78 812.68 282.05 810.37 272.59 C 808.60 267.15 810.29 261.36 812.39 256.27 C 814.88 251.89 818.98 248.72 822.31 245.01 Z" />
</g>
<g id="#9f0fbfff">
<path fill="#9f0fbf" fill-opacity="0" d=" M 607.78 249.23 C 612.44 251.72 617.29 254.14 620.69 258.34 C 625.96 263.58 632.68 270.34 640.84 268.35 C 647.32 263.92 652.85 257.39 661.23 256.41 C 664.27 256.45 668.37 255.83 670.11 258.80 C 672.10 262.53 671.92 267.18 674.41 270.67 C 678.30 274.69 684.91 272.83 689.87 272.81 C 696.23 269.85 701.76 265.27 707.37 261.07 C 707.51 272.57 714.44 281.97 717.77 292.57 C 710.92 293.88 704.04 292.51 697.18 292.67 C 689.50 292.56 684.13 301.24 685.94 308.32 C 687.41 318.15 691.04 327.50 692.50 337.36 C 693.38 341.83 694.50 347.89 689.58 350.48 C 678.57 355.03 665.13 353.22 655.82 361.82 C 649.15 366.55 649.20 375.52 649.92 382.82 C 641.85 381.11 634.33 377.65 627.08 373.81 C 627.82 378.37 628.66 382.90 629.37 387.48 C 625.50 386.75 621.64 385.93 617.76 385.33 C 614.55 375.50 612.80 365.29 610.73 355.18 C 602.74 327.70 595.93 299.88 587.78 272.44 C 586.91 268.87 584.84 264.05 587.80 260.82 C 590.40 258.44 593.24 256.12 596.42 254.55 C 600.62 253.71 604.87 255.22 609.06 255.74 C 608.62 253.57 608.19 251.40 607.78 249.23 Z" />
</g>
<g id="#9f4f00ff">
<path fill="#9f4f00" fill-opacity="0" d=" M 1245.96 256.09 L 1246.80 255.88 C 1253.71 257.26 1259.04 262.32 1264.60 266.32 C 1269.85 269.97 1276.53 270.02 1282.31 272.40 C 1286.84 275.31 1290.31 279.54 1294.54 282.84 C 1300.87 284.93 1307.83 282.43 1314.17 284.76 C 1326.33 288.96 1335.38 299.38 1347.77 303.00 C 1353.23 300.29 1357.10 295.52 1361.59 291.58 C 1365.69 287.97 1371.63 288.19 1376.67 289.03 C 1382.12 291.53 1385.75 296.91 1386.69 302.75 C 1386.84 308.48 1384.28 313.85 1382.34 319.12 C 1386.65 319.87 1390.51 322.00 1394.30 324.11 C 1394.57 330.96 1394.45 337.88 1392.32 344.46 C 1385.45 347.10 1378.97 341.85 1372.18 342.14 C 1361.98 343.77 1351.67 345.34 1341.95 348.97 C 1336.07 351.34 1332.94 357.29 1328.65 361.58 C 1323.30 364.82 1316.51 363.17 1311.33 360.37 C 1305.92 357.75 1300.58 353.96 1294.28 354.68 C 1287.69 355.30 1281.45 352.87 1276.17 349.03 C 1280.09 342.70 1285.35 336.85 1287.23 329.51 C 1288.64 324.39 1284.74 318.24 1279.18 318.54 C 1271.40 321.51 1267.32 330.68 1258.94 332.49 C 1245.80 332.82 1234.46 320.77 1234.40 307.78 C 1240.41 305.31 1243.79 299.55 1247.79 294.78 C 1252.45 288.88 1258.40 282.36 1257.44 274.25 C 1255.35 267.29 1250.07 261.91 1245.96 256.09 Z" />
</g>
<g id="#9f4f7fff">
<path fill="#9f4f7f" fill-opacity="0" d=" M 1211.39 326.43 C 1218.02 319.04 1224.91 311.46 1234.40 307.78 C 1234.46 320.77 1245.80 332.82 1258.94 332.49 C 1267.32 330.68 1271.40 321.51 1279.18 318.54 C 1284.74 318.24 1288.64 324.39 1287.23 329.51 C 1285.35 336.85 1280.09 342.70 1276.17 349.03 C 1281.45 352.87 1287.69 355.30 1294.28 354.68 C 1300.58 353.96 1305.92 357.75 1311.33 360.37 C 1312.06 362.90 1312.84 365.41 1313.65 367.92 C 1310.73 371.27 1307.94 374.68 1305.01 377.99 C 1305.96 381.99 1307.49 385.98 1307.26 390.16 C 1306.80 394.69 1305.82 399.15 1304.91 403.61 C 1300.25 404.08 1295.24 405.39 1290.85 402.87 C 1287.51 401.77 1284.86 398.82 1281.32 398.50 C 1276.17 399.65 1273.25 404.53 1270.36 408.51 C 1265.43 407.99 1261.18 405.40 1256.60 403.86 C 1251.23 404.23 1248.04 409.41 1245.07 413.31 C 1242.76 416.71 1238.69 418.01 1235.10 419.55 C 1229.88 413.90 1222.36 410.68 1218.70 403.53 C 1215.87 399.53 1213.26 395.38 1210.70 391.21 C 1209.10 388.52 1207.28 385.63 1207.50 382.37 C 1208.38 371.01 1213.75 360.69 1215.94 349.60 C 1217.87 341.63 1214.13 333.76 1211.39 326.43 Z" />
</g>
<g id="#9f8f3ffe">
<path fill="#9f8f3f" fill-opacity="0" d=" M 949.42 317.39 C 958.44 318.35 969.29 315.50 976.37 322.51 C 981.11 326.46 985.18 331.11 989.64 335.36 C 989.50 334.76 989.22 333.58 989.08 332.98 C 993.08 337.61 999.63 338.26 1005.38 337.48 C 1011.26 336.42 1014.29 330.71 1018.10 326.71 C 1022.71 328.92 1027.28 331.26 1032.00 333.26 C 1031.57 338.59 1031.02 343.90 1030.39 349.20 C 1038.66 345.54 1047.37 342.61 1056.38 341.46 C 1066.82 339.24 1073.09 351.22 1083.36 350.88 C 1085.09 356.88 1086.59 363.40 1084.38 369.50 C 1083.35 374.10 1081.01 378.40 1080.68 383.15 C 1081.02 388.33 1085.17 392.19 1086.50 397.07 C 1087.15 399.87 1087.47 402.78 1087.88 405.65 C 1084.67 404.56 1081.38 403.50 1078.14 402.56 C 1075.75 405.20 1073.36 407.84 1070.76 410.28 C 1064.72 413.42 1057.90 414.46 1051.53 416.68 C 1044.08 418.92 1037.75 423.87 1032.18 429.12 C 1025.44 437.38 1021.15 447.88 1012.25 454.26 C 1008.30 457.66 1003.47 459.67 998.81 461.85 C 989.19 454.99 979.34 448.46 969.76 441.55 C 971.08 439.21 972.37 436.86 973.90 434.65 C 978.27 427.75 985.72 423.87 991.82 418.73 C 985.12 412.79 976.23 408.89 971.36 401.07 C 969.99 394.63 968.47 388.06 968.76 381.44 C 969.25 373.34 976.88 366.52 974.80 358.25 C 972.21 350.37 962.43 353.11 956.17 350.66 C 948.21 348.42 945.21 340.00 942.94 332.94 C 944.84 327.66 946.80 322.37 949.42 317.39 Z" />
</g>
<g id="#dfcf7ffe">
<path fill="#dfcf7f" fill-opacity="0" d=" M 1187.51 333.64 C 1195.95 333.52 1204.06 330.43 1211.39 326.43 C 1214.13 333.76 1217.87 341.63 1215.94 349.60 C 1213.75 360.69 1208.38 371.01 1207.50 382.37 C 1207.28 385.63 1209.10 388.52 1210.70 391.21 C 1213.26 395.38 1215.87 399.53 1218.70 403.53 C 1216.10 407.99 1211.98 412.06 1206.51 412.21 C 1198.56 413.43 1194.49 404.84 1187.81 402.67 C 1180.72 401.65 1173.52 402.55 1166.39 402.44 C 1160.66 402.48 1155.10 404.62 1149.37 404.23 C 1139.82 401.44 1134.52 392.55 1128.55 385.42 C 1123.36 380.18 1116.18 375.02 1115.43 367.11 C 1116.70 360.57 1122.44 355.83 1123.11 349.01 C 1123.27 345.20 1123.50 341.39 1123.78 337.60 C 1132.63 336.49 1141.56 335.42 1150.16 332.92 C 1155.54 331.52 1161.11 329.39 1166.78 330.42 C 1173.66 331.72 1180.37 334.44 1187.51 333.64 Z" />
</g>
<g id="#df4f7fff">
<path fill="#df4f7f" fill-opacity="0" d=" M 921.50 335.17 C 928.41 332.53 935.87 334.57 942.94 332.94 C 945.21 340.00 948.21 348.42 956.17 350.66 C 962.43 353.11 972.21 350.37 974.80 358.25 C 976.88 366.52 969.25 373.34 968.76 381.44 C 968.47 388.06 969.99 394.63 971.36 401.07 C 963.05 406.78 955.19 413.09 947.19 419.20 C 939.50 422.37 931.30 418.29 923.62 417.08 C 913.04 412.49 903.37 405.52 891.84 403.45 C 879.27 402.99 866.53 402.90 854.08 405.00 C 842.65 407.59 831.26 410.78 820.62 415.78 C 810.08 407.04 801.42 396.02 795.13 383.89 C 791.63 378.08 795.61 371.25 793.67 365.19 C 790.22 361.19 785.32 358.71 781.84 354.72 C 783.54 347.76 787.14 341.07 794.35 338.39 C 804.90 332.94 815.31 341.68 825.87 342.36 C 838.16 342.91 850.12 339.47 862.07 337.15 C 865.51 336.41 869.07 337.24 872.20 338.72 C 877.71 341.28 880.12 347.55 885.07 350.85 C 889.51 353.55 894.86 354.06 899.79 355.37 C 908.44 357.02 916.18 361.40 924.22 364.80 C 925.61 361.76 928.50 358.88 928.24 355.35 C 925.04 350.52 920.12 347.09 916.72 342.42 C 915.15 339.17 918.38 335.78 921.50 335.17 Z" />
</g>
<g id="#1fcf7fff">
<path fill="#1fcf7f" fill-opacity="0" d=" M 1392.32 344.46 C 1396.97 342.67 1400.56 337.95 1405.87 338.11 C 1408.54 338.95 1411.10 342.02 1410.02 344.95 C 1407.51 352.15 1405.12 359.40 1402.54 366.58 C 1409.35 369.28 1416.60 370.15 1423.78 368.22 C 1425.67 372.53 1428.96 376.86 1427.93 381.84 C 1425.82 397.16 1418.01 410.92 1413.29 425.51 C 1410.23 434.56 1406.01 443.18 1403.38 452.38 C 1396.80 454.21 1389.49 454.61 1383.82 458.77 C 1378.68 462.22 1374.64 466.95 1369.88 470.84 C 1365.62 474.24 1360.34 476.07 1355.03 476.94 C 1362.09 457.10 1368.99 437.18 1375.67 417.20 C 1367.03 406.03 1363.11 391.21 1351.95 382.02 C 1346.91 377.75 1340.05 380.43 1334.67 382.52 C 1324.66 385.90 1314.25 381.74 1305.01 377.99 C 1307.94 374.68 1310.73 371.27 1313.65 367.92 C 1312.84 365.41 1312.06 362.90 1311.33 360.37 C 1316.51 363.17 1323.30 364.82 1328.65 361.58 C 1332.94 357.29 1336.07 351.34 1341.95 348.97 C 1351.67 345.34 1361.98 343.77 1372.18 342.14 C 1378.97 341.85 1385.45 347.10 1392.32 344.46 Z" />
</g>
<g id="#1fcf00ff">
<path fill="#1fcf00" fill-opacity="0" d=" M 699.16 369.89 C 722.08 365.62 738.20 345.22 761.65 342.35 C 770.48 341.39 776.99 348.39 781.84 354.72 C 785.32 358.71 790.22 361.19 793.67 365.19 C 795.61 371.25 791.63 378.08 795.13 383.89 C 801.42 396.02 810.08 407.04 820.62 415.78 C 806.45 421.66 795.39 433.68 779.77 436.21 C 775.70 437.02 771.11 437.08 767.66 439.70 C 763.72 442.77 760.34 446.66 755.79 448.88 C 753.42 449.07 751.14 447.81 749.56 446.13 C 741.68 435.64 738.60 422.18 729.52 412.49 C 723.25 406.66 713.57 405.74 707.89 399.19 C 703.18 390.03 705.68 378.39 699.16 369.89 Z" />
</g>
<g id="#5fcf7ffe">
<path fill="#5fcf7f" fill-opacity="0" d=" M 1093.00 346.83 C 1097.23 345.94 1101.60 345.09 1105.94 345.70 C 1110.58 346.53 1114.75 348.88 1118.99 350.86 C 1120.35 350.24 1121.72 349.62 1123.11 349.01 C 1122.44 355.83 1116.70 360.57 1115.43 367.11 C 1116.18 375.02 1123.36 380.18 1128.55 385.42 C 1134.52 392.55 1139.82 401.44 1149.37 404.23 C 1155.10 404.62 1160.66 402.48 1166.39 402.44 C 1173.52 402.55 1180.72 401.65 1187.81 402.67 C 1194.49 404.84 1198.56 413.43 1206.51 412.21 C 1211.98 412.06 1216.10 407.99 1218.70 403.53 C 1222.36 410.68 1229.88 413.90 1235.10 419.55 C 1241.30 427.73 1239.50 438.80 1235.41 447.49 C 1233.58 451.29 1231.04 454.67 1229.02 458.36 C 1224.05 457.01 1218.68 455.89 1214.79 452.25 C 1211.41 449.57 1208.99 445.44 1204.78 443.97 C 1200.90 444.36 1197.46 446.57 1193.84 447.80 C 1188.26 450.08 1182.04 449.26 1176.24 448.55 C 1175.76 444.67 1175.85 440.17 1172.86 437.21 C 1167.82 432.15 1161.13 429.26 1154.86 426.05 C 1149.00 423.46 1141.95 420.65 1135.85 424.02 C 1128.31 428.54 1124.35 437.26 1122.31 445.50 C 1114.77 443.62 1106.81 441.53 1101.05 436.03 C 1091.43 426.86 1079.56 420.34 1070.76 410.28 C 1073.36 407.84 1075.75 405.20 1078.14 402.56 C 1081.38 403.50 1084.67 404.56 1087.88 405.65 C 1087.47 402.78 1087.15 399.87 1086.50 397.07 C 1085.17 392.19 1081.02 388.33 1080.68 383.15 C 1081.01 378.40 1083.35 374.10 1084.38 369.50 C 1086.59 363.40 1085.09 356.88 1083.36 350.88 C 1086.37 349.12 1089.53 347.49 1093.00 346.83 Z" />
</g>
<g id="#1f8fbffe">
<path fill="#1f8fbf" fill-opacity="0" d=" M 670.41 371.38 C 679.27 367.38 690.05 365.54 699.16 369.89 C 705.68 378.39 703.18 390.03 707.89 399.19 C 713.57 405.74 723.25 406.66 729.52 412.49 C 738.60 422.18 741.68 435.64 749.56 446.13 C 751.14 447.81 753.42 449.07 755.79 448.88 C 760.34 446.66 763.72 442.77 767.66 439.70 C 771.11 437.08 775.70 437.02 779.77 436.21 C 783.22 437.36 787.44 438.17 789.47 441.55 C 792.31 445.95 791.61 451.39 791.60 456.36 C 790.83 470.69 790.58 485.08 787.97 499.22 C 789.29 518.81 793.65 538.07 796.03 557.56 L 796.22 559.15 C 790.71 557.47 786.85 552.85 781.84 550.25 C 776.72 546.94 770.34 548.79 764.71 548.75 C 763.00 546.56 761.75 543.08 758.41 543.29 C 754.73 542.37 752.39 545.93 750.18 548.21 C 747.90 551.40 744.63 554.24 743.72 558.20 C 744.51 568.80 749.40 579.01 748.52 589.78 C 747.38 594.25 743.69 597.42 741.05 601.02 C 737.41 600.18 733.75 599.44 730.03 599.19 C 726.35 588.32 725.09 576.85 721.94 565.84 C 720.16 557.56 717.62 549.35 717.47 540.82 C 717.27 534.17 716.18 527.57 714.50 521.14 C 711.84 513.41 706.12 507.22 700.82 501.20 C 692.96 493.61 686.95 484.22 682.87 474.11 C 680.68 468.10 676.59 461.65 679.05 455.05 C 684.51 449.60 691.32 445.71 698.17 442.23 C 691.01 430.61 681.34 420.37 676.94 407.21 C 672.91 395.70 672.43 383.31 670.41 371.38 Z" />
</g>
<g id="#5f0f3fff">
<path fill="#5f0f3f" fill-opacity="0" d=" M 649.92 382.82 C 658.03 381.86 664.31 376.29 670.41 371.38 C 672.43 383.31 672.91 395.70 676.94 407.21 C 681.34 420.37 691.01 430.61 698.17 442.23 C 691.32 445.71 684.51 449.60 679.05 455.05 C 676.59 461.65 680.68 468.10 682.87 474.11 C 686.95 484.22 692.96 493.61 700.82 501.20 C 706.12 507.22 711.84 513.41 714.50 521.14 C 716.18 527.57 717.27 534.17 717.47 540.82 C 717.62 549.35 720.16 557.56 721.94 565.84 C 725.09 576.85 726.35 588.32 730.03 599.19 C 727.84 600.84 725.74 602.81 723.06 603.62 C 718.95 602.18 715.44 599.49 711.83 597.14 C 702.53 605.20 689.62 605.55 677.95 605.67 C 668.38 606.24 659.39 601.86 649.87 601.86 C 639.41 603.24 631.83 610.95 622.94 615.75 C 617.38 611.59 615.32 604.90 612.91 598.72 C 608.30 601.60 603.19 604.46 600.45 609.36 C 600.26 616.47 606.93 623.65 602.35 630.47 C 595.95 625.74 590.21 620.17 583.61 615.72 C 577.88 611.72 570.37 608.24 569.21 600.54 C 565.30 589.12 560.90 577.89 556.27 566.75 C 553.91 559.80 550.64 552.81 550.62 545.38 C 555.02 536.91 560.18 528.70 566.68 521.66 C 561.76 511.52 559.03 500.55 554.94 490.09 C 552.30 482.70 549.37 475.42 546.98 467.95 C 545.55 464.51 549.76 462.27 551.16 459.62 C 546.51 444.88 541.39 430.30 536.02 415.81 C 543.78 417.97 551.79 425.18 560.07 421.20 C 566.54 418.91 571.11 413.39 577.19 410.41 C 583.47 408.20 591.20 409.57 596.00 404.01 C 601.67 399.99 600.87 392.13 604.98 387.11 C 608.79 384.89 613.47 384.54 617.76 385.33 C 621.64 385.93 625.50 386.75 629.37 387.48 C 628.66 382.90 627.82 378.37 627.08 373.81 C 634.33 377.65 641.85 381.11 649.92 382.82 Z" />
</g>
<g id="#9fcf00fe">
<path fill="#9fcf00" fill-opacity="0" d=" M 1305.01 377.99 C 1314.25 381.74 1324.66 385.90 1334.67 382.52 C 1340.05 380.43 1346.91 377.75 1351.95 382.02 C 1363.11 391.21 1367.03 406.03 1375.67 417.20 C 1368.99 437.18 1362.09 457.10 1355.03 476.94 C 1351.77 482.66 1346.83 488.24 1339.88 488.96 C 1331.94 490.60 1324.14 492.80 1316.26 494.67 C 1309.37 496.28 1301.79 494.97 1295.39 498.45 C 1291.05 500.83 1286.43 502.66 1282.07 504.97 C 1277.34 507.57 1275.60 513.03 1273.79 517.76 C 1270.76 526.53 1266.93 535.31 1260.43 542.10 C 1264.96 525.20 1269.73 508.37 1274.34 491.49 C 1274.79 488.76 1275.99 486.09 1275.72 483.28 C 1273.46 480.44 1270.59 477.54 1266.74 477.48 C 1255.81 477.41 1245.65 482.88 1234.72 482.50 C 1230.61 481.87 1226.65 478.87 1225.39 474.86 C 1225.06 469.17 1226.85 463.55 1229.02 458.36 C 1231.04 454.67 1233.58 451.29 1235.41 447.49 C 1239.50 438.80 1241.30 427.73 1235.10 419.55 C 1238.69 418.01 1242.76 416.71 1245.07 413.31 C 1248.04 409.41 1251.23 404.23 1256.60 403.86 C 1261.18 405.40 1265.43 407.99 1270.36 408.51 C 1273.25 404.53 1276.17 399.65 1281.32 398.50 C 1284.86 398.82 1287.51 401.77 1290.85 402.87 C 1295.24 405.39 1300.25 404.08 1304.91 403.61 C 1305.82 399.15 1306.80 394.69 1307.26 390.16 C 1307.49 385.98 1305.96 381.99 1305.01 377.99 Z" />
</g>
<g id="#df4f00ff">
<path fill="#df4f00" fill-opacity="0" d=" M 947.19 419.20 C 955.19 413.09 963.05 406.78 971.36 401.07 C 976.23 408.89 985.12 412.79 991.82 418.73 C 985.72 423.87 978.27 427.75 973.90 434.65 C 972.37 436.86 971.08 439.21 969.76 441.55 C 979.34 448.46 989.19 454.99 998.81 461.85 C 1004.60 466.02 1011.01 470.98 1012.75 478.26 C 1013.88 487.08 1011.91 496.33 1015.02 504.88 C 990.21 507.93 965.32 510.13 940.48 512.81 C 942.48 499.02 940.46 484.96 941.00 471.08 C 948.77 473.62 957.21 473.64 964.89 470.61 C 962.05 463.73 958.41 457.12 953.46 451.52 C 943.43 440.11 933.32 428.77 923.62 417.08 C 931.30 418.29 939.50 422.37 947.19 419.20 Z" />
</g>
<g id="#5f4f7fff">
<path fill="#5f4f7f" fill-opacity="0" d=" M 854.08 405.00 C 866.53 402.90 879.27 402.99 891.84 403.45 C 903.37 405.52 913.04 412.49 923.62 417.08 C 933.32 428.77 943.43 440.11 953.46 451.52 C 958.41 457.12 962.05 463.73 964.89 470.61 C 957.21 473.64 948.77 473.62 941.00 471.08 C 940.46 484.96 942.48 499.02 940.48 512.81 C 937.27 523.53 932.95 533.91 927.74 543.80 C 923.68 551.59 920.57 559.84 916.58 567.68 C 911.05 576.28 912.17 586.85 912.45 596.63 C 913.59 607.82 913.14 619.08 914.03 630.28 C 905.67 627.11 897.91 621.59 892.85 614.16 C 888.33 604.38 891.68 592.99 887.88 583.08 C 878.85 575.29 867.31 571.07 856.52 566.27 C 849.08 562.76 840.64 565.64 832.99 563.15 C 825.96 561.97 829.32 550.66 822.28 549.41 C 812.66 547.98 805.02 555.40 796.03 557.56 C 793.65 538.07 789.29 518.81 787.97 499.22 C 790.58 485.08 790.83 470.69 791.60 456.36 C 791.61 451.39 792.31 445.95 789.47 441.55 C 787.44 438.17 783.22 437.36 779.77 436.21 C 795.39 433.68 806.45 421.66 820.62 415.78 C 831.26 410.78 842.65 407.59 854.08 405.00 M 815.44 477.53 C 813.05 479.14 811.47 481.64 809.68 483.84 C 814.08 485.30 818.57 486.45 823.01 487.80 C 824.79 484.80 826.55 481.79 828.27 478.75 C 824.05 478.10 819.73 476.53 815.44 477.53 Z" />
</g>
<g id="#9f0f3fff">
<path fill="#9f0f3f" fill-opacity="0" d=" M 1051.53 416.68 C 1057.90 414.46 1064.72 413.42 1070.76 410.28 C 1079.56 420.34 1091.43 426.86 1101.05 436.03 C 1106.81 441.53 1114.77 443.62 1122.31 445.50 C 1127.21 454.57 1120.82 465.02 1125.96 474.00 C 1127.18 477.80 1131.31 478.89 1134.88 478.91 C 1138.00 484.32 1141.24 489.80 1145.90 494.06 C 1147.69 495.97 1149.99 497.69 1150.85 500.27 C 1151.23 503.22 1150.68 506.21 1150.27 509.14 C 1147.72 525.40 1143.99 541.45 1141.83 557.78 C 1135.57 557.45 1128.94 556.34 1122.99 558.94 C 1119.00 560.36 1115.35 562.96 1111.10 563.48 C 1104.15 561.82 1097.24 559.70 1089.98 560.10 C 1085.08 561.22 1081.00 556.69 1076.22 557.98 C 1067.05 560.15 1059.59 566.40 1052.48 572.20 C 1049.68 569.35 1046.34 567.14 1043.22 564.70 C 1037.43 560.15 1032.87 554.26 1028.88 548.14 C 1023.80 540.56 1027.08 530.67 1023.53 522.57 C 1020.89 516.57 1017.27 511.05 1015.02 504.88 C 1011.91 496.33 1013.88 487.08 1012.75 478.26 C 1011.01 470.98 1004.60 466.02 998.81 461.85 C 1003.47 459.67 1008.30 457.66 1012.25 454.26 C 1021.15 447.88 1025.44 437.38 1032.18 429.12 C 1037.75 423.87 1044.08 418.92 1051.53 416.68 M 1079.83 482.80 C 1082.49 485.44 1085.51 487.72 1088.37 490.17 C 1090.60 487.45 1093.06 484.91 1095.18 482.10 C 1098.31 478.99 1095.66 472.52 1091.02 473.18 C 1085.10 472.22 1081.90 478.19 1079.83 482.80 Z" />
</g>
<g id="#1f8f3fff">
<path fill="#1f8f3f" fill-opacity="0" d=" M 1135.85 424.02 C 1141.95 420.65 1149.00 423.46 1154.86 426.05 C 1161.13 429.26 1167.82 432.15 1172.86 437.21 C 1175.85 440.17 1175.76 444.67 1176.24 448.55 C 1165.48 453.34 1157.67 462.41 1149.86 470.85 C 1145.61 474.71 1140.28 477.14 1134.88 478.91 C 1131.31 478.89 1127.18 477.80 1125.96 474.00 C 1120.82 465.02 1127.21 454.57 1122.31 445.50 C 1124.35 437.26 1128.31 428.54 1135.85 424.02 Z" />
</g>
<g id="#5fcf00ff">
<path fill="#5fcf00" fill-opacity="0" d=" M 1193.84 447.80 C 1197.46 446.57 1200.90 444.36 1204.78 443.97 C 1208.99 445.44 1211.41 449.57 1214.79 452.25 C 1218.68 455.89 1224.05 457.01 1229.02 458.36 C 1226.85 463.55 1225.06 469.17 1225.39 474.86 C 1226.65 478.87 1230.61 481.87 1234.72 482.50 C 1245.65 482.88 1255.81 477.41 1266.74 477.48 C 1270.59 477.54 1273.46 480.44 1275.72 483.28 C 1275.99 486.09 1274.79 488.76 1274.34 491.49 C 1269.73 508.37 1264.96 525.20 1260.43 542.10 C 1258.54 548.58 1252.89 552.70 1249.05 557.93 C 1246.28 561.06 1245.11 566.40 1240.60 567.43 C 1230.88 568.89 1220.85 571.20 1211.05 568.97 C 1205.73 568.00 1200.24 568.51 1195.09 570.08 C 1185.73 572.83 1175.66 573.26 1166.89 577.81 C 1162.65 579.21 1157.53 583.33 1153.25 579.83 C 1144.75 575.99 1142.92 565.95 1141.83 557.78 C 1143.99 541.45 1147.72 525.40 1150.27 509.14 C 1150.68 506.21 1151.23 503.22 1150.85 500.27 C 1149.99 497.69 1147.69 495.97 1145.90 494.06 C 1141.24 489.80 1138.00 484.32 1134.88 478.91 C 1140.28 477.14 1145.61 474.71 1149.86 470.85 C 1157.67 462.41 1165.48 453.34 1176.24 448.55 C 1182.04 449.26 1188.26 450.08 1193.84 447.80 Z" />
</g>
<g id="#1f0f3fff">
<path fill="#1f0f3f" fill-opacity="0" d=" M 1079.83 482.80 C 1081.90 478.19 1085.10 472.22 1091.02 473.18 C 1095.66 472.52 1098.31 478.99 1095.18 482.10 C 1093.06 484.91 1090.60 487.45 1088.37 490.17 C 1085.51 487.72 1082.49 485.44 1079.83 482.80 Z" />
</g>
<g id="#dfcf00fe">
<path fill="#dfcf00" fill-opacity="0" d=" M 815.44 477.53 C 819.73 476.53 824.05 478.10 828.27 478.75 C 826.55 481.79 824.79 484.80 823.01 487.80 C 818.57 486.45 814.08 485.30 809.68 483.84 C 811.47 481.64 813.05 479.14 815.44 477.53 Z" />
</g>
<g id="#5f4f00fe">
<path fill="#5f4f00" fill-opacity="0" d=" M 940.48 512.81 C 965.32 510.13 990.21 507.93 1015.02 504.88 C 1017.27 511.05 1020.89 516.57 1023.53 522.57 C 1027.08 530.67 1023.80 540.56 1028.88 548.14 C 1032.87 554.26 1037.43 560.15 1043.22 564.70 C 1046.34 567.14 1049.68 569.35 1052.48 572.20 C 1053.70 574.13 1054.59 576.40 1054.44 578.73 C 1053.25 595.15 1051.53 611.52 1049.96 627.90 C 1049.56 632.22 1048.91 637.43 1044.49 639.51 C 1038.82 642.29 1032.25 642.04 1026.24 643.66 C 1021.82 644.48 1017.79 646.94 1013.26 647.13 C 1007.63 646.30 1005.25 640.54 1002.75 636.20 C 993.60 639.65 983.91 641.40 974.24 642.50 C 961.78 643.09 949.36 641.15 937.17 638.75 C 929.26 636.77 920.70 635.29 914.03 630.28 C 913.14 619.08 913.59 607.82 912.45 596.63 C 912.17 586.85 911.05 576.28 916.58 567.68 C 920.57 559.84 923.68 551.59 927.74 543.80 C 932.95 533.91 937.27 523.53 940.48 512.81 Z" />
</g>
</svg>
