<?xml version="1.0" encoding="UTF-8" ?>
<!DOCTYPE svg PUBLIC "-//W3C//DTD SVG 1.1//EN" "http://www.w3.org/Graphics/SVG/1.1/DTD/svg11.dtd">
<svg width="1920pt" height="1080pt" viewBox="0 0 1920 1080" version="1.1" xmlns="http://www.w3.org/2000/svg">
<g id="#cf6fbfff">
<path fill="#cf6fbf" fill-opacity="0" d=" M 1179.84 189.78 C 1180.33 190.11 1181.32 190.77 1181.82 191.09 C 1179.32 203.53 1176.74 215.94 1174.66 228.45 C 1174.21 232.09 1173.22 235.69 1171.29 238.82 C 1172.95 222.30 1177.11 206.14 1179.84 189.78 Z" />
</g>
<g id="#cf6fbffe">
<path fill="#cf6fbf" fill-opacity="0" d=" M 1121.07 208.97 C 1121.40 205.39 1125.38 204.25 1127.97 202.60 C 1127.10 213.86 1125.11 224.98 1123.90 236.20 C 1128.33 234.29 1132.99 232.38 1137.98 233.33 C 1140.29 234.23 1141.98 236.19 1143.87 237.75 C 1148.49 234.90 1153.90 235.00 1159.12 235.90 C 1160.74 227.52 1162.18 219.10 1163.87 210.73 C 1164.80 211.50 1165.77 212.28 1166.73 213.06 C 1165.22 220.88 1163.91 228.74 1162.84 236.64 C 1163.89 236.48 1164.96 236.33 1166.05 236.18 C 1168.39 249.24 1163.17 261.85 1161.65 274.67 C 1160.34 279.37 1160.86 284.91 1158.08 289.07 C 1151.84 293.51 1143.33 295.04 1135.98 292.95 C 1128.96 290.33 1121.61 288.74 1114.41 286.79 C 1118.03 291.97 1115.18 298.51 1114.97 304.20 C 1105.56 304.94 1096.27 303.25 1087.08 301.49 C 1086.57 305.10 1085.99 308.69 1085.49 312.30 C 1081.74 312.68 1076.61 311.45 1074.37 315.34 C 1071.50 321.23 1072.12 328.01 1071.43 334.38 C 1070.51 334.67 1069.60 334.95 1068.70 335.24 C 1068.40 333.20 1068.07 331.16 1067.78 329.13 C 1067.49 324.99 1067.60 320.82 1066.44 316.80 C 1064.79 310.59 1066.32 304.25 1066.92 298.01 C 1064.04 299.06 1061.11 299.98 1058.17 300.84 C 1057.23 299.98 1056.43 299.06 1055.55 298.18 C 1054.53 300.51 1053.66 302.90 1052.80 305.28 C 1043.60 304.06 1035.62 299.19 1028.16 293.96 C 1027.54 304.45 1026.93 314.97 1025.25 325.35 C 1022.05 322.48 1017.46 320.72 1015.53 316.72 C 1015.11 307.24 1016.22 297.72 1017.15 288.29 C 1015.33 289.00 1013.52 289.71 1011.71 290.40 C 1010.17 270.86 1012.62 251.33 1013.15 231.80 C 1014.93 233.72 1016.91 235.50 1018.36 237.70 C 1019.80 248.37 1018.39 259.16 1017.96 269.85 C 1020.28 271.22 1022.63 272.62 1024.97 274.02 C 1025.91 262.41 1026.22 250.76 1027.35 239.16 C 1027.90 235.66 1028.86 231.99 1031.15 229.21 C 1034.45 226.82 1038.03 224.55 1042.00 223.49 C 1048.15 226.15 1053.91 229.73 1060.32 231.86 C 1060.05 228.04 1061.74 223.37 1065.89 222.63 C 1072.60 224.49 1078.43 229.55 1085.85 228.66 C 1094.03 227.76 1101.61 231.19 1109.10 233.89 C 1107.53 248.83 1105.14 263.67 1103.93 278.63 C 1106.50 279.65 1109.05 280.71 1111.64 281.79 C 1112.82 257.33 1118.30 233.28 1121.07 208.97 Z" />
</g>
<g id="#efaf00ff">
<path fill="#efaf00" fill-opacity="0" d=" M 806.91 262.05 C 807.55 262.03 808.85 261.99 809.49 261.96 C 810.57 268.42 809.72 275.79 813.30 281.53 C 818.42 282.20 823.63 282.46 828.75 283.34 C 831.67 286.46 830.75 291.41 831.73 295.38 C 829.57 295.15 827.47 294.59 825.36 294.10 C 824.75 291.76 824.13 289.42 823.48 287.10 C 818.23 290.37 812.25 292.04 806.37 293.77 C 810.10 294.99 814.19 295.36 817.55 297.53 C 820.47 299.37 822.69 302.43 826.20 303.21 C 830.22 304.37 835.55 304.08 837.18 308.95 C 838.92 311.44 838.14 314.48 837.76 317.22 C 828.45 317.34 820.06 322.11 810.87 322.68 C 808.03 323.02 807.52 319.64 806.54 317.73 C 801.34 318.25 796.10 318.44 790.89 318.74 C 784.25 318.86 778.53 322.67 772.83 325.61 C 767.14 328.48 761.76 331.99 755.94 334.59 C 751.91 335.40 747.83 333.82 743.82 333.41 C 744.95 326.54 746.83 319.82 749.54 313.40 C 744.74 312.96 739.96 312.52 735.18 312.06 C 733.83 314.11 732.47 316.14 731.19 318.24 C 729.47 311.01 728.78 303.62 728.84 296.21 C 733.63 291.29 734.24 284.57 733.43 278.16 C 740.70 277.94 745.01 272.28 750.06 268.12 C 754.56 269.69 758.37 274.02 763.45 273.50 C 768.00 274.83 768.65 270.27 770.29 267.66 C 772.08 271.15 772.87 275.03 773.30 278.90 C 780.66 278.87 787.92 277.75 795.21 276.93 C 799.73 277.33 804.10 278.74 808.64 279.19 C 807.54 273.53 807.17 267.79 806.91 262.05 Z" />
</g>
<g id="#6faf00ff">
<path fill="#6faf00" fill-opacity="0" d=" M 877.07 304.02 C 879.77 294.65 879.09 284.64 881.89 275.31 C 882.00 277.98 883.27 281.01 883.68 283.79 C 888.36 280.49 894.37 280.53 899.35 277.71 C 901.27 281.50 903.46 285.18 906.81 287.95 C 907.98 286.79 909.24 285.69 910.56 284.69 C 910.82 285.95 911.07 287.22 911.32 288.49 C 917.82 289.95 924.44 289.63 931.04 289.55 C 939.30 292.69 945.78 299.23 952.96 304.21 C 953.18 319.14 952.61 334.07 953.09 349.00 C 953.24 351.32 955.00 353.06 956.25 354.90 C 956.62 350.10 956.98 345.33 957.36 340.54 C 958.45 346.24 955.99 353.57 960.92 358.03 C 962.69 361.41 966.61 361.26 969.80 361.03 C 970.62 362.88 971.46 364.71 972.34 366.54 C 976.52 363.75 980.20 360.18 982.83 355.88 C 984.23 357.52 985.81 359.01 987.40 360.48 C 986.81 364.08 986.32 367.72 986.42 371.38 C 986.47 372.52 986.24 374.04 987.70 374.38 C 992.36 376.93 999.10 375.14 1002.95 379.25 C 1002.36 382.68 1001.11 385.93 999.54 389.01 C 1003.20 391.23 1006.93 393.46 1011.15 394.46 C 1009.20 395.71 1007.22 396.90 1005.34 398.24 C 1000.14 400.94 999.53 407.00 997.59 411.85 C 994.31 413.63 990.85 416.03 986.93 415.81 C 983.28 415.13 979.83 413.14 976.01 413.61 C 967.11 414.49 959.33 419.34 951.80 423.77 C 944.93 428.04 937.18 423.07 929.83 424.68 C 921.57 426.31 913.12 425.34 904.79 425.15 C 899.85 424.73 894.81 424.46 890.09 422.91 C 884.72 421.14 881.23 416.48 877.19 412.84 C 875.23 418.97 868.96 422.17 863.08 423.37 C 857.26 422.23 853.70 416.70 848.29 414.61 C 844.06 412.56 839.16 412.81 834.89 410.95 C 830.80 408.50 828.13 404.30 824.58 401.23 C 816.74 400.81 808.14 409.28 800.96 403.14 C 806.79 399.98 810.88 394.35 813.36 388.31 C 814.94 384.49 813.59 380.36 813.88 376.40 C 818.82 369.78 827.15 369.97 834.41 368.38 C 840.03 367.41 841.31 360.96 845.13 357.62 C 848.91 354.47 852.59 350.78 854.24 346.04 C 850.37 339.52 846.33 332.77 840.05 328.25 C 840.56 325.81 842.42 322.84 840.48 320.60 C 839.62 319.42 838.67 318.33 837.76 317.22 C 838.14 314.48 838.92 311.44 837.18 308.95 C 835.55 304.08 830.22 304.37 826.20 303.21 C 822.69 302.43 820.47 299.37 817.55 297.53 C 814.19 295.36 810.10 294.99 806.37 293.77 C 812.25 292.04 818.23 290.37 823.48 287.10 C 824.13 289.42 824.75 291.76 825.36 294.10 C 827.47 294.59 829.57 295.15 831.73 295.38 C 834.78 295.48 837.65 294.49 840.72 294.39 C 843.17 296.14 844.76 299.16 847.64 300.30 C 855.57 301.94 863.53 299.68 871.26 298.04 C 873.03 300.18 874.91 302.24 877.07 304.02 Z" />
</g>
<g id="#8f6f3fff">
<path fill="#8f6f3f" fill-opacity="0" d=" M 1087.08 301.49 C 1096.27 303.25 1105.56 304.94 1114.97 304.20 C 1132.18 304.16 1150.18 303.17 1166.58 309.45 C 1157.41 311.71 1147.65 311.93 1139.15 316.39 C 1136.65 315.66 1133.51 313.70 1131.32 316.20 C 1125.16 320.47 1125.23 328.55 1123.06 335.05 C 1122.14 339.67 1126.08 343.35 1126.56 347.75 C 1124.67 351.94 1121.34 355.44 1120.37 360.05 C 1118.93 366.21 1113.72 370.92 1113.70 377.48 C 1113.50 378.98 1113.44 380.49 1113.35 382.01 C 1120.78 382.56 1128.01 385.04 1135.55 383.69 C 1135.41 386.28 1135.29 388.87 1135.23 391.48 C 1136.62 391.81 1138.06 392.11 1139.46 392.51 C 1143.08 395.21 1146.15 398.53 1149.35 401.71 C 1143.32 403.31 1137.05 403.11 1130.87 403.47 C 1133.17 410.11 1137.50 415.82 1142.40 420.78 C 1139.85 424.59 1136.34 427.63 1132.29 429.75 C 1133.65 436.74 1134.93 443.99 1139.88 449.53 C 1136.00 449.17 1132.16 447.71 1128.26 448.29 C 1123.14 449.82 1119.94 454.53 1115.58 457.31 C 1111.81 458.79 1107.85 459.55 1103.91 460.32 C 1102.74 459.22 1101.59 458.13 1100.44 457.05 C 1101.48 453.60 1103.19 450.05 1102.51 446.37 C 1101.39 443.28 1098.44 441.43 1096.13 439.30 C 1097.91 438.46 1099.69 437.66 1101.50 436.83 C 1097.52 434.13 1092.99 432.47 1088.54 430.79 C 1087.16 424.40 1084.55 417.93 1079.30 413.74 C 1073.68 411.15 1065.02 415.26 1061.17 408.97 C 1057.87 403.19 1053.20 396.52 1056.46 389.71 C 1053.67 389.00 1050.73 388.90 1048.01 389.93 C 1042.75 391.80 1037.30 393.00 1031.79 393.77 C 1029.16 390.74 1026.46 386.81 1022.12 386.38 C 1018.06 388.49 1015.06 392.13 1011.15 394.46 C 1006.93 393.46 1003.20 391.23 999.54 389.01 C 1001.11 385.93 1002.36 382.68 1002.95 379.25 C 999.10 375.14 992.36 376.93 987.70 374.38 C 986.24 374.04 986.47 372.52 986.42 371.38 C 986.32 367.72 986.81 364.08 987.40 360.48 C 985.81 359.01 984.23 357.52 982.83 355.88 L 982.32 355.24 C 983.96 348.13 986.23 341.11 989.58 334.61 C 991.21 330.94 996.15 329.20 999.68 331.14 C 1001.71 334.84 999.90 340.69 1003.69 343.34 C 1008.03 345.43 1013.04 346.64 1017.91 345.96 C 1022.61 343.83 1026.31 339.50 1031.58 338.58 C 1037.74 337.28 1043.69 341.18 1049.91 339.64 C 1054.44 338.64 1059.19 338.21 1063.77 339.18 C 1065.04 335.80 1066.28 332.41 1067.78 329.13 C 1068.07 331.16 1068.40 333.20 1068.70 335.24 C 1069.60 334.95 1070.51 334.67 1071.43 334.38 C 1072.12 328.01 1071.50 321.23 1074.37 315.34 C 1076.61 311.45 1081.74 312.68 1085.49 312.30 C 1085.99 308.69 1086.57 305.10 1087.08 301.49 Z" />
</g>
<g id="#ef2f7fff">
<path fill="#ef2f7f" fill-opacity="0" d=" M 1166.58 309.45 C 1180.27 306.41 1195.85 305.71 1207.82 314.21 C 1210.14 316.01 1209.21 319.26 1209.42 321.78 C 1214.65 322.59 1219.97 323.39 1224.87 325.54 C 1225.86 324.27 1226.87 323.02 1227.93 321.80 C 1227.57 323.23 1227.22 324.66 1226.87 326.09 C 1238.82 324.98 1245.97 337.20 1257.05 339.44 C 1257.94 342.50 1258.83 345.57 1259.23 348.74 C 1261.42 350.72 1263.70 352.73 1265.95 354.71 C 1265.18 356.39 1264.39 358.06 1263.61 359.73 C 1266.06 363.57 1268.38 367.49 1270.61 371.49 C 1265.91 371.13 1261.29 369.65 1256.57 369.91 C 1252.12 370.99 1249.18 375.00 1245.55 377.49 C 1242.80 380.12 1239.00 380.92 1235.47 381.88 C 1231.02 383.16 1227.58 386.45 1223.54 388.52 C 1220.52 389.36 1217.25 389.13 1214.36 390.46 C 1211.31 391.71 1208.58 393.99 1205.20 394.24 C 1200.26 393.65 1196.33 390.12 1191.48 389.20 C 1186.83 387.94 1182.31 390.25 1177.79 391.03 C 1174.69 391.55 1172.33 393.75 1170.05 395.73 C 1167.04 393.25 1164.18 389.73 1159.84 390.09 C 1153.03 390.48 1146.10 390.81 1139.46 392.51 C 1138.06 392.11 1136.62 391.81 1135.23 391.48 C 1135.29 388.87 1135.41 386.28 1135.55 383.69 C 1128.01 385.04 1120.78 382.56 1113.35 382.01 C 1113.44 380.49 1113.50 378.98 1113.70 377.48 C 1113.72 370.92 1118.93 366.21 1120.37 360.05 C 1121.34 355.44 1124.67 351.94 1126.56 347.75 C 1126.08 343.35 1122.14 339.67 1123.06 335.05 C 1125.23 328.55 1125.16 320.47 1131.32 316.20 C 1133.51 313.70 1136.65 315.66 1139.15 316.39 C 1147.65 311.93 1157.41 311.71 1166.58 309.45 Z" />
</g>
<g id="#cf6f3fff">
<path fill="#cf6f3f" fill-opacity="0" d=" M 735.18 312.06 C 739.96 312.52 744.74 312.96 749.54 313.40 C 746.83 319.82 744.95 326.54 743.82 333.41 C 747.83 333.82 751.91 335.40 755.94 334.59 C 761.76 331.99 767.14 328.48 772.83 325.61 C 778.53 322.67 784.25 318.86 790.89 318.74 C 796.10 318.44 801.34 318.25 806.54 317.73 C 807.52 319.64 808.03 323.02 810.87 322.68 C 820.06 322.11 828.45 317.34 837.76 317.22 C 838.67 318.33 839.62 319.42 840.48 320.60 C 842.42 322.84 840.56 325.81 840.05 328.25 C 846.33 332.77 850.37 339.52 854.24 346.04 C 852.59 350.78 848.91 354.47 845.13 357.62 C 841.31 360.96 840.03 367.41 834.41 368.38 C 827.15 369.97 818.82 369.78 813.88 376.40 C 813.59 380.36 814.94 384.49 813.36 388.31 C 810.88 394.35 806.79 399.98 800.96 403.14 C 799.30 404.15 797.61 405.15 796.17 406.46 C 798.25 413.88 806.81 418.62 806.45 426.77 C 801.98 430.19 796.50 432.06 791.34 434.23 C 790.83 436.48 790.46 438.79 789.50 440.91 C 784.81 441.23 780.31 438.55 775.61 439.55 C 773.59 442.00 773.38 445.82 770.87 447.77 C 764.46 448.75 757.82 448.48 751.59 450.58 C 752.81 453.73 754.10 456.85 755.44 459.96 C 750.87 461.10 746.40 462.99 743.23 466.59 C 750.71 467.98 757.67 470.90 763.63 475.63 C 762.89 480.62 761.97 485.60 760.52 490.44 C 755.84 490.74 749.81 489.31 746.45 493.47 C 745.09 496.98 747.45 500.69 747.82 504.12 C 745.39 507.36 742.76 510.48 739.58 513.02 C 734.85 514.09 730.69 516.82 727.52 520.46 C 723.53 524.16 721.18 529.70 716.08 532.08 C 711.85 534.19 707.55 536.19 703.36 538.36 C 697.17 533.80 688.70 532.94 681.81 536.42 C 676.07 538.20 669.86 540.37 667.35 546.36 C 663.28 547.16 659.25 547.98 655.20 548.83 C 654.90 546.29 654.98 543.80 654.27 541.38 C 651.06 538.40 646.47 537.32 642.74 535.16 C 642.22 531.96 641.78 528.82 641.30 525.64 C 639.34 525.41 637.38 525.18 635.44 524.95 C 637.29 521.40 639.94 518.37 643.01 515.82 C 640.94 513.22 638.77 510.69 636.65 508.14 C 642.73 505.44 648.39 501.84 654.66 499.55 C 657.38 498.66 660.07 500.11 662.67 500.76 C 663.63 495.89 664.95 491.10 665.93 486.23 C 666.85 482.11 662.12 479.75 660.11 476.93 C 656.05 472.21 650.19 468.22 643.72 469.75 C 629.05 473.09 613.82 474.68 599.95 480.88 C 599.15 480.20 598.37 479.53 597.59 478.86 C 601.70 475.18 604.50 470.42 607.06 465.61 C 604.27 465.43 598.68 465.06 595.88 464.88 C 598.27 463.21 600.69 461.57 602.82 459.57 C 599.60 459.45 596.15 458.90 593.14 460.35 C 589.28 462.10 585.59 465.17 581.09 464.47 C 574.28 463.64 567.60 461.97 560.78 461.20 C 561.91 458.66 563.09 456.14 564.48 453.73 C 562.63 450.09 560.96 446.34 559.75 442.44 C 568.26 444.34 574.35 435.84 582.88 437.13 C 593.25 423.98 603.45 410.68 612.54 396.60 C 617.52 389.46 615.15 380.14 616.85 372.14 C 627.92 372.70 639.13 371.46 649.68 368.04 C 653.85 366.39 659.31 366.93 661.56 371.23 C 669.11 369.21 670.40 360.35 676.40 356.31 C 678.96 353.64 682.88 354.67 686.14 354.73 C 686.75 352.75 687.18 350.57 688.59 348.96 C 694.86 346.53 701.66 345.99 708.15 344.26 C 714.34 342.39 720.76 341.53 727.08 340.26 C 726.46 336.91 724.83 333.36 726.08 329.96 C 727.57 325.97 729.04 321.93 731.19 318.24 C 732.47 316.14 733.83 314.11 735.18 312.06 Z" />
</g>
<g id="#4f6fbffe">
<path fill="#4f6fbf" fill-opacity="0" d=" M 1353.31 316.17 C 1354.07 316.14 1355.58 316.08 1356.34 316.05 C 1354.49 321.79 1352.09 327.37 1350.96 333.32 C 1353.73 328.32 1355.70 322.95 1357.59 317.58 C 1359.38 318.71 1361.23 319.80 1362.80 321.26 C 1362.52 323.78 1361.52 326.14 1360.63 328.49 C 1360.64 326.23 1360.71 323.97 1360.76 321.71 C 1358.99 326.29 1357.42 330.96 1355.87 335.62 C 1356.41 335.54 1357.49 335.39 1358.03 335.31 C 1357.49 336.78 1356.94 338.26 1356.42 339.74 C 1357.53 341.50 1358.61 343.28 1359.71 345.07 C 1363.30 336.43 1365.24 326.84 1370.92 319.25 C 1369.42 329.54 1364.03 338.68 1360.89 348.50 C 1368.04 349.99 1375.64 348.56 1382.60 351.05 C 1386.49 349.43 1390.61 348.18 1394.43 346.33 C 1397.76 350.97 1402.64 354.08 1407.76 356.45 C 1409.75 357.22 1409.52 359.67 1410.10 361.37 C 1413.52 363.47 1417.61 364.97 1419.77 368.60 C 1422.72 373.07 1426.33 377.19 1428.54 382.09 C 1428.04 386.24 1425.55 389.77 1423.82 393.48 C 1419.46 392.77 1414.96 392.00 1410.59 392.86 C 1407.67 394.30 1406.66 398.26 1403.25 399.01 C 1397.39 400.14 1392.92 404.15 1387.58 406.46 C 1383.46 399.84 1379.43 392.59 1372.24 388.85 C 1364.40 386.02 1356.32 389.15 1348.33 388.36 C 1344.06 387.91 1339.72 388.17 1335.46 388.45 C 1334.91 387.18 1334.37 385.91 1333.85 384.65 C 1329.03 386.53 1323.94 387.50 1318.87 388.34 C 1310.45 390.29 1304.48 381.70 1296.66 380.22 C 1291.49 379.47 1286.39 378.21 1281.14 378.16 C 1276.66 378.07 1272.24 375.87 1270.61 371.49 C 1268.38 367.49 1266.06 363.57 1263.61 359.73 C 1264.39 358.06 1265.18 356.39 1265.95 354.71 C 1263.70 352.73 1261.42 350.72 1259.23 348.74 C 1258.83 345.57 1257.94 342.50 1257.05 339.44 C 1271.28 335.93 1282.99 325.90 1297.59 323.51 C 1311.96 320.31 1326.99 322.04 1340.86 326.66 C 1341.88 323.75 1342.93 320.84 1343.99 317.94 C 1345.69 318.70 1347.42 319.40 1349.17 320.07 C 1348.40 323.58 1347.67 327.12 1347.26 330.70 C 1350.18 326.28 1351.84 321.22 1353.31 316.17 Z" />
</g>
<g id="#425c9fd4">
<path fill="#425c9f" fill-opacity="0" d=" M 1359.22 329.75 C 1361.06 330.03 1359.99 333.72 1358.30 333.14 C 1357.31 332.16 1357.93 330.15 1359.22 329.75 Z" />
</g>
<g id="#8fefbfff">
<path fill="#8fefbf" fill-opacity="0" d=" M 1256.57 369.91 C 1261.29 369.65 1265.91 371.13 1270.61 371.49 C 1272.24 375.87 1276.66 378.07 1281.14 378.16 C 1286.39 378.21 1291.49 379.47 1296.66 380.22 C 1304.48 381.70 1310.45 390.29 1318.87 388.34 C 1323.94 387.50 1329.03 386.53 1333.85 384.65 C 1334.37 385.91 1334.91 387.18 1335.46 388.45 C 1339.72 388.17 1344.06 387.91 1348.33 388.36 C 1356.32 389.15 1364.40 386.02 1372.24 388.85 C 1379.43 392.59 1383.46 399.84 1387.58 406.46 C 1388.63 408.16 1390.21 409.41 1391.70 410.73 C 1391.07 413.14 1390.43 415.55 1389.81 417.96 C 1392.90 420.55 1395.63 423.65 1399.03 425.89 C 1403.75 428.17 1409.01 428.82 1414.14 429.67 C 1416.57 432.18 1419.52 434.11 1422.01 436.56 C 1423.12 440.49 1422.72 444.84 1424.34 448.65 C 1426.57 452.54 1429.68 455.85 1432.92 458.92 C 1431.02 462.46 1429.17 466.02 1427.18 469.50 C 1425.22 469.41 1423.24 469.25 1421.30 469.52 C 1418.42 472.64 1417.78 477.72 1413.64 479.66 C 1410.46 480.79 1408.25 477.37 1406.22 475.55 C 1404.32 475.17 1402.48 474.80 1400.69 474.44 C 1399.58 475.64 1398.81 477.80 1396.85 477.57 C 1390.43 477.04 1383.98 476.98 1377.63 478.16 C 1376.52 483.29 1374.32 488.04 1372.24 492.82 C 1371.68 492.88 1370.55 492.99 1369.99 493.04 C 1368.42 489.16 1367.02 485.16 1366.97 480.93 C 1361.58 477.87 1356.03 474.99 1350.04 473.36 C 1337.87 471.11 1327.75 463.35 1316.35 458.97 C 1307.28 455.70 1298.44 451.90 1289.56 448.20 C 1283.65 445.60 1276.96 445.64 1271.09 442.95 C 1267.27 441.45 1263.87 438.87 1259.93 437.80 C 1255.95 438.50 1252.28 440.44 1248.25 441.04 C 1249.95 438.68 1251.92 436.53 1253.95 434.45 C 1249.76 428.95 1241.99 428.65 1237.97 423.06 C 1235.03 419.23 1232.63 415.01 1230.02 410.96 C 1235.51 409.82 1240.96 408.43 1246.17 406.33 C 1243.10 403.45 1239.65 401.02 1235.96 399.01 C 1237.35 396.07 1239.36 393.36 1240.17 390.17 C 1239.26 387.09 1237.09 384.60 1235.47 381.88 C 1239.00 380.92 1242.80 380.12 1245.55 377.49 C 1249.18 375.00 1252.12 370.99 1256.57 369.91 Z" />
</g>
<g id="#efaf7ffe">
<path fill="#efaf7f" fill-opacity="0" d=" M 1223.54 388.52 C 1227.58 386.45 1231.02 383.16 1235.47 381.88 C 1237.09 384.60 1239.26 387.09 1240.17 390.17 C 1239.36 393.36 1237.35 396.07 1235.96 399.01 C 1239.65 401.02 1243.10 403.45 1246.17 406.33 C 1240.96 408.43 1235.51 409.82 1230.02 410.96 C 1232.63 415.01 1235.03 419.23 1237.97 423.06 C 1241.99 428.65 1249.76 428.95 1253.95 434.45 C 1251.92 436.53 1249.95 438.68 1248.25 441.04 C 1247.97 444.48 1248.96 447.85 1248.89 451.29 C 1246.69 452.09 1244.59 453.25 1242.26 453.59 C 1239.54 452.22 1237.45 449.92 1235.41 447.72 C 1234.53 447.99 1233.64 448.26 1232.79 448.54 C 1236.00 451.60 1239.18 454.73 1241.83 458.31 C 1239.13 458.80 1236.48 459.42 1233.76 459.65 C 1230.24 460.07 1227.11 457.82 1223.63 457.90 C 1220.74 457.96 1217.91 458.48 1215.08 458.96 C 1214.34 465.16 1213.78 471.50 1211.00 477.20 C 1207.48 478.29 1203.96 476.08 1200.79 475.01 C 1194.28 472.15 1187.80 469.14 1181.91 465.14 C 1176.47 461.88 1171.31 457.68 1164.86 456.68 C 1159.15 455.72 1153.03 457.98 1147.56 455.55 C 1144.50 454.27 1142.03 451.98 1139.88 449.53 C 1134.93 443.99 1133.65 436.74 1132.29 429.75 C 1136.34 427.63 1139.85 424.59 1142.40 420.78 C 1137.50 415.82 1133.17 410.11 1130.87 403.47 C 1137.05 403.11 1143.32 403.31 1149.35 401.71 C 1146.15 398.53 1143.08 395.21 1139.46 392.51 C 1146.10 390.81 1153.03 390.48 1159.84 390.09 C 1164.18 389.73 1167.04 393.25 1170.05 395.73 C 1172.33 393.75 1174.69 391.55 1177.79 391.03 C 1182.31 390.25 1186.83 387.94 1191.48 389.20 C 1196.33 390.12 1200.26 393.65 1205.20 394.24 C 1208.58 393.99 1211.31 391.71 1214.36 390.46 C 1217.25 389.13 1220.52 389.36 1223.54 388.52 Z" />
</g>
<g id="#4fafbffe">
<path fill="#4fafbf" fill-opacity="0" d=" M 1011.15 394.46 C 1015.06 392.13 1018.06 388.49 1022.12 386.38 C 1026.46 386.81 1029.16 390.74 1031.79 393.77 C 1037.30 393.00 1042.75 391.80 1048.01 389.93 C 1050.73 388.90 1053.67 389.00 1056.46 389.71 C 1053.20 396.52 1057.87 403.19 1061.17 408.97 C 1065.02 415.26 1073.68 411.15 1079.30 413.74 C 1084.55 417.93 1087.16 424.40 1088.54 430.79 C 1092.99 432.47 1097.52 434.13 1101.50 436.83 C 1099.69 437.66 1097.91 438.46 1096.13 439.30 C 1098.44 441.43 1101.39 443.28 1102.51 446.37 C 1103.19 450.05 1101.48 453.60 1100.44 457.05 C 1101.59 458.13 1102.74 459.22 1103.91 460.32 C 1105.50 461.85 1107.09 463.38 1108.71 464.90 C 1108.53 467.49 1107.01 470.53 1108.55 472.94 C 1111.71 475.05 1115.75 475.67 1118.69 478.22 C 1125.66 483.82 1133.71 488.03 1142.03 491.26 C 1138.74 494.98 1133.64 495.92 1129.73 498.74 C 1128.39 499.49 1128.15 501.14 1128.26 502.53 C 1132.12 505.43 1138.40 506.27 1138.86 512.12 C 1137.23 512.74 1135.63 513.37 1134.03 514.00 C 1130.60 512.31 1127.45 509.82 1123.74 508.94 C 1118.74 509.06 1114.02 511.63 1109.00 511.22 C 1099.82 510.24 1090.91 507.78 1081.75 506.77 C 1074.36 506.66 1068.50 511.70 1063.21 516.23 C 1058.29 520.53 1051.61 521.82 1046.27 525.42 C 1042.26 529.47 1040.28 535.32 1035.59 538.77 C 1031.67 542.15 1026.69 544.02 1021.63 544.82 C 1018.39 545.59 1013.31 545.78 1011.98 549.62 C 1010.99 552.24 1010.52 555.01 1009.88 557.73 C 1013.07 560.44 1016.25 563.15 1019.41 565.93 C 1016.72 567.68 1014.02 569.41 1011.32 571.15 C 1007.30 569.46 1003.26 567.79 999.20 566.24 C 1000.00 564.05 1000.82 561.87 1001.63 559.70 C 996.52 552.39 992.24 544.47 985.59 538.36 C 981.24 534.84 986.76 530.12 988.11 526.45 C 992.25 519.60 997.66 513.58 1001.47 506.53 C 1006.07 496.53 1008.68 485.81 1012.16 475.41 C 1013.55 470.19 1015.59 464.99 1015.49 459.53 C 1014.70 444.37 1013.26 429.26 1012.32 414.11 C 1012.73 407.83 1008.35 403.20 1005.34 398.24 C 1007.22 396.90 1009.20 395.71 1011.15 394.46 Z" />
</g>
<g id="#6f2f00ff">
<path fill="#6f2f00" fill-opacity="0" d=" M 997.59 411.85 C 999.53 407.00 1000.14 400.94 1005.34 398.24 C 1008.35 403.20 1012.73 407.83 1012.32 414.11 C 1013.26 429.26 1014.70 444.37 1015.49 459.53 C 1015.59 464.99 1013.55 470.19 1012.16 475.41 C 1008.68 485.81 1006.07 496.53 1001.47 506.53 C 997.66 513.58 992.25 519.60 988.11 526.45 C 983.72 525.41 978.76 525.07 975.44 521.65 C 971.89 518.02 967.76 515.12 963.61 512.24 C 959.35 509.29 958.86 503.36 954.92 500.21 C 950.24 498.17 944.92 499.01 939.98 498.48 C 936.06 498.37 932.38 496.89 928.59 496.10 C 925.29 495.70 922.46 497.93 919.66 499.33 C 918.63 497.77 917.86 495.97 916.48 494.70 C 914.08 493.35 911.18 493.74 908.56 493.81 C 901.52 485.86 907.39 474.77 908.42 465.54 C 910.25 460.83 904.04 460.39 901.25 458.47 C 897.59 457.05 900.17 452.56 901.02 450.02 C 902.91 446.86 900.31 443.36 901.12 440.11 C 903.42 436.67 907.20 434.63 910.33 432.03 C 908.46 429.75 906.59 427.47 904.79 425.15 C 913.12 425.34 921.57 426.31 929.83 424.68 C 937.18 423.07 944.93 428.04 951.80 423.77 C 959.33 419.34 967.11 414.49 976.01 413.61 C 979.83 413.14 983.28 415.13 986.93 415.81 C 990.85 416.03 994.31 413.63 997.59 411.85 Z" />
</g>
<g id="#cfaf3fff">
<path fill="#cfaf3f" fill-opacity="0" d=" M 800.96 403.14 C 808.14 409.28 816.74 400.81 824.58 401.23 C 828.13 404.30 830.80 408.50 834.89 410.95 C 839.16 412.81 844.06 412.56 848.29 414.61 C 853.70 416.70 857.26 422.23 863.08 423.37 C 868.96 422.17 875.23 418.97 877.19 412.84 C 881.23 416.48 884.72 421.14 890.09 422.91 C 894.81 424.46 899.85 424.73 904.79 425.15 C 906.59 427.47 908.46 429.75 910.33 432.03 C 907.20 434.63 903.42 436.67 901.12 440.11 C 900.31 443.36 902.91 446.86 901.02 450.02 C 900.17 452.56 897.59 457.05 901.25 458.47 C 904.04 460.39 910.25 460.83 908.42 465.54 C 907.39 474.77 901.52 485.86 908.56 493.81 C 906.52 500.42 900.11 505.31 900.24 512.55 C 904.24 513.24 908.36 514.14 911.60 516.78 C 909.88 517.12 908.19 517.47 906.49 517.80 C 905.96 519.92 905.63 522.26 904.05 523.90 C 896.99 531.18 887.25 535.16 877.45 537.10 C 873.38 538.09 868.94 538.18 865.20 540.25 C 862.05 542.46 860.67 546.21 858.87 549.45 C 857.72 551.91 854.68 552.17 852.37 552.84 C 845.81 552.65 842.65 560.88 836.00 559.51 C 832.15 559.17 828.48 557.83 824.79 556.86 C 820.17 555.41 815.06 555.05 811.18 551.81 C 803.46 546.80 795.74 540.78 791.92 532.15 C 789.34 526.43 785.98 521.06 783.94 515.13 C 781.74 508.58 788.51 502.32 785.32 495.91 C 783.33 491.40 780.91 486.99 777.72 483.22 C 773.74 479.53 768.20 478.37 763.63 475.63 C 757.67 470.90 750.71 467.98 743.23 466.59 C 746.40 462.99 750.87 461.10 755.44 459.96 C 754.10 456.85 752.81 453.73 751.59 450.58 C 757.82 448.48 764.46 448.75 770.87 447.77 C 773.38 445.82 773.59 442.00 775.61 439.55 C 780.31 438.55 784.81 441.23 789.50 440.91 C 790.46 438.79 790.83 436.48 791.34 434.23 C 796.50 432.06 801.98 430.19 806.45 426.77 C 806.81 418.62 798.25 413.88 796.17 406.46 C 797.61 405.15 799.30 404.15 800.96 403.14 Z" />
</g>
<g id="#0f6f3fff">
<path fill="#0f6f3f" fill-opacity="0" d=" M 1248.25 441.04 C 1252.28 440.44 1255.95 438.50 1259.93 437.80 C 1263.87 438.87 1267.27 441.45 1271.09 442.95 C 1276.96 445.64 1283.65 445.60 1289.56 448.20 C 1298.44 451.90 1307.28 455.70 1316.35 458.97 C 1327.75 463.35 1337.87 471.11 1350.04 473.36 C 1356.03 474.99 1361.58 477.87 1366.97 480.93 C 1367.02 485.16 1368.42 489.16 1369.99 493.04 C 1371.09 495.94 1372.15 498.80 1373.18 501.75 C 1370.48 506.23 1368.11 510.90 1365.30 515.32 C 1368.51 518.21 1371.82 521.05 1375.53 523.30 C 1372.30 529.19 1375.80 536.30 1372.01 541.92 C 1370.89 543.75 1369.62 545.58 1367.78 546.73 C 1365.13 546.30 1362.83 544.82 1360.40 543.81 C 1358.50 546.20 1357.46 550.51 1353.79 550.50 C 1352.61 550.61 1351.43 550.66 1350.27 550.71 C 1348.28 553.23 1346.85 556.19 1344.54 558.43 C 1341.95 559.02 1339.14 559.07 1336.61 558.26 C 1331.98 555.77 1330.50 550.00 1325.68 547.67 C 1323.36 550.24 1321.31 553.09 1318.74 555.39 C 1314.80 555.10 1310.88 554.43 1306.92 554.67 C 1305.20 553.46 1303.51 552.25 1301.84 551.05 C 1304.68 544.51 1298.96 538.61 1300.39 532.10 C 1301.65 528.53 1303.54 525.22 1304.94 521.70 C 1300.11 518.35 1295.30 515.01 1290.71 511.35 C 1281.28 503.79 1269.05 500.76 1259.73 493.04 C 1257.25 490.35 1259.59 486.60 1260.72 483.90 C 1262.99 478.00 1267.51 473.46 1272.03 469.23 C 1269.57 465.79 1266.57 462.52 1262.20 461.75 C 1262.20 459.26 1262.34 456.73 1261.77 454.30 C 1257.81 452.50 1253.39 450.02 1248.89 451.29 C 1248.96 447.85 1247.97 444.48 1248.25 441.04 Z" />
</g>
<g id="#2f2f00ff">
<path fill="#2f2f00" fill-opacity="0" d=" M 1128.26 448.29 C 1132.16 447.71 1136.00 449.17 1139.88 449.53 C 1142.03 451.98 1144.50 454.27 1147.56 455.55 C 1153.03 457.98 1159.15 455.72 1164.86 456.68 C 1171.31 457.68 1176.47 461.88 1181.91 465.14 C 1187.80 469.14 1194.28 472.15 1200.79 475.01 C 1203.96 476.08 1207.48 478.29 1211.00 477.20 C 1213.78 471.50 1214.34 465.16 1215.08 458.96 C 1217.91 458.48 1220.74 457.96 1223.63 457.90 C 1227.11 457.82 1230.24 460.07 1233.76 459.65 C 1236.48 459.42 1239.13 458.80 1241.83 458.31 C 1239.18 454.73 1236.00 451.60 1232.79 448.54 C 1233.64 448.26 1234.53 447.99 1235.41 447.72 C 1237.45 449.92 1239.54 452.22 1242.26 453.59 C 1244.59 453.25 1246.69 452.09 1248.89 451.29 C 1253.39 450.02 1257.81 452.50 1261.77 454.30 C 1262.34 456.73 1262.20 459.26 1262.20 461.75 C 1266.57 462.52 1269.57 465.79 1272.03 469.23 C 1267.51 473.46 1262.99 478.00 1260.72 483.90 C 1259.59 486.60 1257.25 490.35 1259.73 493.04 C 1269.05 500.76 1281.28 503.79 1290.71 511.35 C 1295.30 515.01 1300.11 518.35 1304.94 521.70 C 1303.54 525.22 1301.65 528.53 1300.39 532.10 C 1298.96 538.61 1304.68 544.51 1301.84 551.05 C 1303.51 552.25 1305.20 553.46 1306.92 554.67 C 1306.90 557.90 1307.12 561.12 1307.24 564.35 C 1307.43 568.86 1304.39 572.53 1302.05 576.09 C 1298.66 574.46 1295.09 572.66 1293.78 568.82 C 1291.78 570.03 1289.84 571.35 1287.93 572.70 C 1283.09 570.49 1277.79 569.83 1272.63 571.50 C 1273.29 568.31 1273.63 565.05 1274.13 561.84 C 1261.85 556.05 1248.92 550.19 1235.07 550.49 C 1235.80 542.10 1226.95 540.08 1221.12 537.28 C 1212.24 534.69 1203.51 531.40 1194.29 530.15 C 1182.27 528.62 1170.33 526.33 1158.65 523.06 C 1154.51 521.62 1150.16 523.19 1146.23 524.56 C 1144.78 523.34 1143.36 522.12 1141.94 520.91 C 1143.19 519.30 1144.46 517.71 1145.73 516.12 C 1143.41 514.82 1141.11 513.50 1138.86 512.12 C 1138.40 506.27 1132.12 505.43 1128.26 502.53 C 1128.15 501.14 1128.39 499.49 1129.73 498.74 C 1133.64 495.92 1138.74 494.98 1142.03 491.26 C 1133.71 488.03 1125.66 483.82 1118.69 478.22 C 1115.75 475.67 1111.71 475.05 1108.55 472.94 C 1107.01 470.53 1108.53 467.49 1108.71 464.90 C 1107.09 463.38 1105.50 461.85 1103.91 460.32 C 1107.85 459.55 1111.81 458.79 1115.58 457.31 C 1119.94 454.53 1123.14 449.82 1128.26 448.29 Z" />
</g>
<g id="#2faf00ff">
<path fill="#2faf00" fill-opacity="0" d=" M 593.14 460.35 C 596.15 458.90 599.60 459.45 602.82 459.57 C 600.69 461.57 598.27 463.21 595.88 464.88 C 598.68 465.06 604.27 465.43 607.06 465.61 C 604.50 470.42 601.70 475.18 597.59 478.86 C 598.37 479.53 599.15 480.20 599.95 480.88 C 613.82 474.68 629.05 473.09 643.72 469.75 C 650.19 468.22 656.05 472.21 660.11 476.93 C 662.12 479.75 666.85 482.11 665.93 486.23 C 664.95 491.10 663.63 495.89 662.67 500.76 C 660.07 500.11 657.38 498.66 654.66 499.55 C 648.39 501.84 642.73 505.44 636.65 508.14 C 638.77 510.69 640.94 513.22 643.01 515.82 C 639.94 518.37 637.29 521.40 635.44 524.95 C 637.38 525.18 639.34 525.41 641.30 525.64 C 641.78 528.82 642.22 531.96 642.74 535.16 C 646.47 537.32 651.06 538.40 654.27 541.38 C 654.98 543.80 654.90 546.29 655.20 548.83 C 655.43 554.10 653.03 558.94 651.32 563.79 C 647.15 565.99 642.44 566.64 637.84 565.68 C 637.36 570.39 637.02 575.21 635.21 579.65 C 633.22 586.60 639.13 592.37 641.69 598.43 C 635.52 600.50 629.45 598.11 623.62 596.26 C 625.08 598.18 626.65 600.03 628.32 601.80 C 628.38 606.94 628.85 612.06 629.18 617.18 C 629.43 620.55 628.16 624.13 629.75 627.31 C 631.02 630.24 633.34 632.78 633.91 635.99 C 632.85 639.95 630.39 643.37 628.56 647.01 C 624.23 651.56 618.68 654.63 613.40 657.91 C 611.00 656.27 608.85 653.64 605.78 653.45 C 601.94 653.98 599.33 657.22 596.60 659.65 C 592.72 663.62 587.01 664.66 582.45 667.59 C 577.35 670.20 572.80 673.68 568.56 677.51 C 566.88 679.03 564.44 678.82 562.37 678.64 C 550.33 676.96 539.33 671.59 527.78 668.14 C 523.52 665.07 521.83 659.53 519.09 655.16 C 520.53 652.37 522.00 649.57 523.21 646.69 C 524.34 642.32 523.16 637.68 524.35 633.33 C 527.65 629.17 534.15 628.59 536.74 623.76 C 536.10 618.59 531.64 614.53 531.41 609.31 C 534.10 603.97 539.53 600.72 544.56 597.83 C 542.81 593.56 544.54 589.28 546.77 585.57 C 544.73 585.10 541.83 585.67 540.66 583.52 C 537.29 577.70 534.44 571.59 531.86 565.39 C 534.42 563.31 537.00 561.26 539.44 559.03 C 542.57 559.60 545.79 559.62 548.92 558.96 C 546.71 557.41 544.15 556.60 541.53 556.15 C 539.48 553.52 537.67 550.18 534.27 549.13 C 530.99 547.43 526.22 548.37 523.77 545.22 C 521.36 542.47 519.85 539.09 517.97 535.99 C 515.45 531.38 511.94 526.85 512.18 521.26 C 516.22 517.73 520.29 514.17 524.43 510.73 C 525.87 505.03 532.52 504.57 536.74 501.71 C 540.76 498.93 545.37 497.25 549.92 495.55 C 548.90 492.41 547.97 489.24 546.96 486.10 C 549.55 482.76 552.03 479.33 554.48 475.88 C 553.75 474.04 552.83 472.24 552.54 470.28 C 554.54 467.03 556.18 461.33 560.78 461.20 C 567.60 461.97 574.28 463.64 581.09 464.47 C 585.59 465.17 589.28 462.10 593.14 460.35 Z" />
</g>
<g id="#cf2fbffe">
<path fill="#cf2fbf" fill-opacity="0" d=" M 763.63 475.63 C 768.20 478.37 773.74 479.53 777.72 483.22 C 780.91 486.99 783.33 491.40 785.32 495.91 C 788.51 502.32 781.74 508.58 783.94 515.13 C 785.98 521.06 789.34 526.43 791.92 532.15 C 795.74 540.78 803.46 546.80 811.18 551.81 C 815.06 555.05 820.17 555.41 824.79 556.86 C 828.48 557.83 832.15 559.17 836.00 559.51 C 842.65 560.88 845.81 552.65 852.37 552.84 C 856.42 557.46 859.38 562.82 862.10 568.29 C 856.70 575.12 848.50 578.49 841.44 583.20 C 835.92 586.06 829.43 588.90 827.19 595.24 C 825.05 600.52 829.84 605.37 833.21 608.77 C 843.40 614.88 855.00 618.96 866.86 620.15 C 865.49 625.05 864.53 630.04 863.29 634.97 C 859.26 633.95 855.13 632.34 850.93 633.54 C 846.35 634.62 842.10 637.04 837.35 637.39 C 833.51 637.53 829.96 635.91 826.32 634.97 C 823.10 634.12 819.93 635.63 816.88 636.45 C 814.41 634.96 811.45 634.03 808.91 635.95 C 805.26 638.21 801.12 639.57 796.83 638.44 C 794.04 640.54 791.38 642.80 788.70 645.02 C 789.33 640.58 791.87 635.71 789.50 631.39 C 788.33 628.26 785.53 625.56 785.57 622.09 C 786.26 618.00 788.58 614.44 790.39 610.78 C 786.70 606.02 781.84 602.44 777.48 598.35 C 774.11 596.31 774.38 592.31 773.84 588.98 C 776.86 588.92 780.29 590.08 783.06 588.51 C 787.98 583.35 785.98 575.51 783.96 569.49 C 780.27 570.74 776.89 572.69 773.33 574.22 C 770.42 575.83 766.30 573.12 766.38 569.86 C 766.27 567.59 766.64 565.34 766.95 563.11 C 765.32 562.21 763.67 561.33 762.05 560.45 C 762.68 554.74 764.13 549.19 766.01 543.78 C 761.44 541.00 758.49 536.38 758.20 531.02 C 754.15 518.84 772.86 516.30 771.61 504.68 C 770.05 498.76 764.68 494.67 760.52 490.44 C 761.97 485.60 762.89 480.62 763.63 475.63 Z" />
</g>
<g id="#cfafbfff">
<path fill="#cfafbf" fill-opacity="0" d=" M 746.45 493.47 C 749.81 489.31 755.84 490.74 760.52 490.44 C 764.68 494.67 770.05 498.76 771.61 504.68 C 772.86 516.30 754.15 518.84 758.20 531.02 C 758.49 536.38 761.44 541.00 766.01 543.78 C 764.13 549.19 762.68 554.74 762.05 560.45 C 763.67 561.33 765.32 562.21 766.95 563.11 C 766.64 565.34 766.27 567.59 766.38 569.86 C 766.30 573.12 770.42 575.83 773.33 574.22 C 776.89 572.69 780.27 570.74 783.96 569.49 C 785.98 575.51 787.98 583.35 783.06 588.51 C 780.29 590.08 776.86 588.92 773.84 588.98 C 774.38 592.31 774.11 596.31 777.48 598.35 C 781.84 602.44 786.70 606.02 790.39 610.78 C 788.58 614.44 786.26 618.00 785.57 622.09 C 785.53 625.56 788.33 628.26 789.50 631.39 C 791.87 635.71 789.33 640.58 788.70 645.02 C 787.49 648.90 790.06 651.96 793.42 653.53 C 797.59 655.46 799.54 659.66 800.96 663.76 C 799.61 664.32 798.27 664.89 796.93 665.46 C 796.93 668.26 796.81 671.05 796.57 673.85 C 794.08 674.98 791.49 676.91 788.61 676.14 C 783.20 674.93 777.79 673.64 772.53 671.90 C 767.58 669.91 763.05 666.81 757.80 665.59 C 752.25 664.37 746.51 664.46 740.90 663.84 C 743.21 660.50 745.72 657.28 747.79 653.79 C 749.85 650.37 749.29 646.27 749.43 642.48 C 747.83 642.33 746.24 642.19 744.65 642.04 C 745.55 635.79 741.90 630.04 736.38 627.35 C 736.89 622.72 736.90 618.02 737.83 613.46 C 740.06 608.35 746.43 605.68 747.08 599.76 C 747.56 593.87 747.43 587.94 747.20 582.05 C 746.90 576.58 743.39 571.75 743.46 566.25 C 744.36 558.79 748.03 551.90 748.70 544.40 C 749.48 538.59 747.77 533.05 746.53 527.49 C 746.59 522.45 746.96 517.37 745.69 512.42 C 743.65 512.59 741.61 512.75 739.58 513.02 C 742.76 510.48 745.39 507.36 747.82 504.12 C 747.45 500.69 745.09 496.98 746.45 493.47 Z" />
</g>
<g id="#af2f7fff">
<path fill="#af2f7f" fill-opacity="0" d=" M 908.56 493.81 C 911.18 493.74 914.08 493.35 916.48 494.70 C 917.86 495.97 918.63 497.77 919.66 499.33 C 922.46 497.93 925.29 495.70 928.59 496.10 C 932.38 496.89 936.06 498.37 939.98 498.48 C 944.92 499.01 950.24 498.17 954.92 500.21 C 958.86 503.36 959.35 509.29 963.61 512.24 C 967.76 515.12 971.89 518.02 975.44 521.65 C 978.76 525.07 983.72 525.41 988.11 526.45 C 986.76 530.12 981.24 534.84 985.59 538.36 C 992.24 544.47 996.52 552.39 1001.63 559.70 C 1000.82 561.87 1000.00 564.05 999.20 566.24 C 1003.26 567.79 1007.30 569.46 1011.32 571.15 C 1012.08 574.09 1013.84 577.27 1012.43 580.32 C 1009.57 587.20 1006.90 594.30 1002.27 600.24 C 996.20 600.29 990.28 601.94 984.27 602.47 C 978.59 602.96 973.53 599.69 968.02 598.99 C 964.19 598.96 961.49 602.33 958.47 604.22 C 954.07 602.62 949.95 604.53 946.69 607.46 C 942.19 605.22 936.52 602.77 931.73 605.69 C 925.95 609.80 922.17 616.09 917.80 621.53 C 915.69 620.27 913.59 619.03 911.50 617.81 C 911.12 615.56 910.57 613.33 910.10 611.11 C 901.53 609.87 895.28 616.80 887.26 617.97 C 880.53 619.16 873.71 620.29 866.86 620.15 C 855.00 618.96 843.40 614.88 833.21 608.77 C 829.84 605.37 825.05 600.52 827.19 595.24 C 829.43 588.90 835.92 586.06 841.44 583.20 C 848.50 578.49 856.70 575.12 862.10 568.29 C 859.38 562.82 856.42 557.46 852.37 552.84 C 854.68 552.17 857.72 551.91 858.87 549.45 C 860.67 546.21 862.05 542.46 865.20 540.25 C 868.94 538.18 873.38 538.09 877.45 537.10 C 887.25 535.16 896.99 531.18 904.05 523.90 C 905.63 522.26 905.96 519.92 906.49 517.80 C 908.19 517.47 909.88 517.12 911.60 516.78 C 908.36 514.14 904.24 513.24 900.24 512.55 C 900.11 505.31 906.52 500.42 908.56 493.81 Z" />
</g>
<g id="#0f6fbfff">
<path fill="#0f6fbf" fill-opacity="0" d=" M 1063.21 516.23 C 1068.50 511.70 1074.36 506.66 1081.75 506.77 C 1090.91 507.78 1099.82 510.24 1109.00 511.22 C 1114.02 511.63 1118.74 509.06 1123.74 508.94 C 1127.45 509.82 1130.60 512.31 1134.03 514.00 C 1135.63 513.37 1137.23 512.74 1138.86 512.12 C 1141.11 513.50 1143.41 514.82 1145.73 516.12 C 1144.46 517.71 1143.19 519.30 1141.94 520.91 C 1143.36 522.12 1144.78 523.34 1146.23 524.56 C 1136.52 528.93 1137.37 540.85 1136.08 549.63 C 1142.81 551.25 1149.57 553.44 1154.95 558.03 C 1159.61 561.13 1157.70 567.40 1158.30 572.11 C 1161.37 573.56 1164.85 574.50 1167.78 576.38 C 1168.36 579.89 1166.70 583.39 1167.41 586.88 C 1168.66 590.04 1170.45 593.01 1172.02 596.04 C 1167.13 599.73 1161.98 603.36 1158.32 608.36 C 1156.34 610.82 1157.82 614.29 1158.00 617.00 C 1159.22 623.24 1160.81 631.03 1167.91 633.00 C 1167.04 636.31 1167.10 641.66 1161.95 640.97 C 1156.27 643.36 1150.92 639.77 1145.32 639.67 C 1139.00 641.15 1137.02 648.53 1131.76 651.63 C 1129.50 652.43 1127.05 651.76 1124.75 651.70 C 1125.72 656.05 1127.70 660.45 1127.01 665.02 C 1126.57 667.94 1125.93 670.83 1125.44 673.75 C 1118.12 674.12 1111.09 676.50 1103.81 676.93 C 1098.30 677.15 1094.37 672.46 1089.20 671.58 C 1084.53 671.75 1082.28 676.44 1080.48 680.06 C 1078.01 680.58 1075.56 681.14 1073.12 681.70 C 1072.97 674.59 1079.61 670.55 1082.77 664.95 C 1081.70 660.97 1078.53 658.08 1075.77 655.22 C 1070.56 649.86 1064.43 644.91 1056.92 643.42 C 1051.86 641.62 1045.32 641.07 1042.03 636.46 C 1040.30 627.07 1042.43 617.19 1039.25 607.95 C 1033.20 614.74 1023.70 614.11 1015.47 613.97 C 1012.76 608.08 1009.43 601.36 1002.27 600.24 C 1006.90 594.30 1009.57 587.20 1012.43 580.32 C 1013.84 577.27 1012.08 574.09 1011.32 571.15 C 1014.02 569.41 1016.72 567.68 1019.41 565.93 C 1016.25 563.15 1013.07 560.44 1009.88 557.73 C 1010.52 555.01 1010.99 552.24 1011.98 549.62 C 1013.31 545.78 1018.39 545.59 1021.63 544.82 C 1026.69 544.02 1031.67 542.15 1035.59 538.77 C 1040.28 535.32 1042.26 529.47 1046.27 525.42 C 1051.61 521.82 1058.29 520.53 1063.21 516.23 Z" />
</g>
<g id="#cfef3fff">
<path fill="#cfef3f" fill-opacity="0" d=" M 739.58 513.02 C 741.61 512.75 743.65 512.59 745.69 512.42 C 746.96 517.37 746.59 522.45 746.53 527.49 C 747.77 533.05 749.48 538.59 748.70 544.40 C 748.03 551.90 744.36 558.79 743.46 566.25 C 743.39 571.75 746.90 576.58 747.20 582.05 C 747.43 587.94 747.56 593.87 747.08 599.76 C 746.43 605.68 740.06 608.35 737.83 613.46 C 736.90 618.02 736.89 622.72 736.38 627.35 C 727.23 624.42 716.17 624.50 709.20 616.87 C 701.29 608.09 688.58 609.60 679.00 603.90 C 670.75 600.00 668.03 590.38 665.52 582.35 C 663.62 578.16 664.67 573.32 662.90 569.17 C 659.97 565.89 655.45 564.74 651.32 563.79 C 653.03 558.94 655.43 554.10 655.20 548.83 C 659.25 547.98 663.28 547.16 667.35 546.36 C 669.86 540.37 676.07 538.20 681.81 536.42 C 688.70 532.94 697.17 533.80 703.36 538.36 C 707.55 536.19 711.85 534.19 716.08 532.08 C 721.18 529.70 723.53 524.16 727.52 520.46 C 730.69 516.82 734.85 514.09 739.58 513.02 Z" />
</g>
<g id="#4f6f3fff">
<path fill="#4f6f3f" fill-opacity="0" d=" M 1146.23 524.56 C 1150.16 523.19 1154.51 521.62 1158.65 523.06 C 1170.33 526.33 1182.27 528.62 1194.29 530.15 C 1203.51 531.40 1212.24 534.69 1221.12 537.28 C 1226.95 540.08 1235.80 542.10 1235.07 550.49 C 1248.92 550.19 1261.85 556.05 1274.13 561.84 C 1273.63 565.05 1273.29 568.31 1272.63 571.50 C 1269.05 580.86 1265.46 590.74 1267.30 600.92 C 1269.12 604.75 1272.77 607.26 1274.93 610.84 C 1276.45 615.21 1278.81 619.46 1279.29 624.14 C 1279.05 627.42 1277.89 630.59 1278.07 633.91 C 1278.28 638.77 1275.56 643.07 1273.84 647.43 C 1271.51 652.59 1271.08 658.61 1267.48 663.17 C 1265.20 666.01 1261.77 667.50 1258.38 668.54 C 1257.60 665.18 1256.67 661.85 1255.70 658.55 C 1254.15 660.25 1252.67 662.00 1251.21 663.77 C 1250.01 661.98 1248.81 660.21 1247.67 658.40 C 1245.15 658.20 1242.65 657.95 1240.16 657.59 C 1238.97 660.29 1237.77 663.00 1236.54 665.68 C 1234.75 664.67 1232.96 663.61 1230.98 663.07 C 1228.74 663.65 1227.09 665.40 1225.30 666.72 C 1222.45 665.00 1219.79 662.98 1217.50 660.56 C 1215.93 661.27 1214.36 661.96 1212.80 662.67 C 1204.31 658.21 1198.31 650.03 1188.97 647.03 C 1185.66 644.67 1182.96 648.28 1180.52 650.12 C 1179.99 646.15 1181.03 642.03 1179.84 638.16 C 1177.70 634.00 1172.48 630.70 1167.91 633.00 C 1160.81 631.03 1159.22 623.24 1158.00 617.00 C 1157.82 614.29 1156.34 610.82 1158.32 608.36 C 1161.98 603.36 1167.13 599.73 1172.02 596.04 C 1170.45 593.01 1168.66 590.04 1167.41 586.88 C 1166.70 583.39 1168.36 579.89 1167.78 576.38 C 1164.85 574.50 1161.37 573.56 1158.30 572.11 C 1157.70 567.40 1159.61 561.13 1154.95 558.03 C 1149.57 553.44 1142.81 551.25 1136.08 549.63 C 1137.37 540.85 1136.52 528.93 1146.23 524.56 Z" />
</g>
<g id="#0fefbfff">
<path fill="#0fefbf" fill-opacity="0" d=" M 637.84 565.68 C 642.44 566.64 647.15 565.99 651.32 563.79 C 655.45 564.74 659.97 565.89 662.90 569.17 C 664.67 573.32 663.62 578.16 665.52 582.35 C 668.03 590.38 670.75 600.00 679.00 603.90 C 688.58 609.60 701.29 608.09 709.20 616.87 C 716.17 624.50 727.23 624.42 736.38 627.35 C 741.90 630.04 745.55 635.79 744.65 642.04 C 746.24 642.19 747.83 642.33 749.43 642.48 C 749.29 646.27 749.85 650.37 747.79 653.79 C 745.72 657.28 743.21 660.50 740.90 663.84 C 736.50 661.75 733.53 657.48 729.02 655.68 C 727.38 656.25 725.96 657.25 724.49 658.12 C 725.69 659.46 726.90 660.83 728.10 662.19 C 723.65 666.78 719.34 672.11 712.89 673.88 C 706.89 675.63 701.22 678.28 695.82 681.41 C 696.64 682.76 697.49 684.11 698.36 685.45 C 690.58 690.04 682.81 694.73 674.26 697.77 C 672.69 690.87 671.86 683.88 671.69 676.82 C 670.26 671.67 664.57 669.41 662.03 664.91 C 660.49 661.96 658.30 659.46 655.97 657.11 C 651.81 656.98 647.63 655.56 643.50 656.08 C 638.94 658.15 634.80 661.23 629.75 662.14 C 630.98 656.97 628.24 652.13 628.56 647.01 C 630.39 643.37 632.85 639.95 633.91 635.99 C 633.34 632.78 631.02 630.24 629.75 627.31 C 628.16 624.13 629.43 620.55 629.18 617.18 C 628.85 612.06 628.38 606.94 628.32 601.80 C 626.65 600.03 625.08 598.18 623.62 596.26 C 629.45 598.11 635.52 600.50 641.69 598.43 C 639.13 592.37 633.22 586.60 635.21 579.65 C 637.02 575.21 637.36 570.39 637.84 565.68 Z" />
</g>
<g id="#8fef3fff">
<path fill="#8fef3f" fill-opacity="0" d=" M 968.02 598.99 C 973.53 599.69 978.59 602.96 984.27 602.47 C 990.28 601.94 996.20 600.29 1002.27 600.24 C 1009.43 601.36 1012.76 608.08 1015.47 613.97 C 1011.69 624.88 1008.00 636.00 1007.93 647.69 C 1004.77 649.86 1001.88 652.63 998.21 653.90 C 994.16 654.62 990.06 654.81 985.98 654.94 C 980.32 655.58 975.30 652.69 971.88 648.37 C 967.27 650.08 962.41 650.87 957.54 651.29 C 957.12 651.36 956.28 651.50 955.86 651.57 C 958.06 646.44 960.84 641.60 963.67 636.80 C 962.06 635.33 960.29 634.25 959.13 632.51 C 955.94 625.17 955.44 617.04 952.34 609.69 C 954.33 607.80 956.34 605.95 958.47 604.22 C 961.49 602.33 964.19 598.96 968.02 598.99 Z" />
</g>
<g id="#cfefbfff">
<path fill="#cfefbf" fill-opacity="0" d=" M 946.69 607.46 C 949.95 604.53 954.07 602.62 958.47 604.22 C 956.34 605.95 954.33 607.80 952.34 609.69 C 955.44 617.04 955.94 625.17 959.13 632.51 C 960.29 634.25 962.06 635.33 963.67 636.80 C 960.84 641.60 958.06 646.44 955.86 651.57 C 951.33 652.49 947.52 655.58 942.93 656.23 C 937.56 655.32 932.56 652.18 926.96 652.65 C 921.22 653.43 913.76 653.55 910.76 647.46 C 916.68 645.03 922.51 642.30 927.55 638.29 C 922.83 634.78 917.01 632.37 913.55 627.49 C 912.10 624.47 911.99 621.06 911.50 617.81 C 913.59 619.03 915.69 620.27 917.80 621.53 C 922.17 616.09 925.95 609.80 931.73 605.69 C 936.52 602.77 942.19 605.22 946.69 607.46 Z" />
</g>
<g id="#8f6fbfff">
<path fill="#8f6fbf" fill-opacity="0" d=" M 1015.47 613.97 C 1023.70 614.11 1033.20 614.74 1039.25 607.95 C 1042.43 617.19 1040.30 627.07 1042.03 636.46 C 1045.32 641.07 1051.86 641.62 1056.92 643.42 C 1064.43 644.91 1070.56 649.86 1075.77 655.22 C 1078.53 658.08 1081.70 660.97 1082.77 664.95 C 1079.61 670.55 1072.97 674.59 1073.12 681.70 C 1075.56 681.14 1078.01 680.58 1080.48 680.06 C 1078.54 683.68 1075.88 687.13 1072.29 689.22 C 1067.84 690.83 1062.96 689.82 1058.40 690.96 C 1056.28 685.84 1054.98 680.09 1050.89 676.08 C 1045.00 672.63 1037.92 673.04 1031.67 670.61 C 1029.68 671.47 1027.34 673.55 1025.23 671.91 C 1021.75 670.14 1021.22 666.08 1019.85 662.87 C 1018.88 660.32 1016.61 658.63 1014.79 656.74 C 1014.89 653.88 1015.08 651.04 1015.22 648.19 C 1013.39 648.06 1009.75 647.81 1007.93 647.69 C 1008.00 636.00 1011.69 624.88 1015.47 613.97 Z" />
</g>
<g id="#afaf7fff">
<path fill="#afaf7f" fill-opacity="0" d=" M 887.26 617.97 C 895.28 616.80 901.53 609.87 910.10 611.11 C 910.57 613.33 911.12 615.56 911.50 617.81 C 911.99 621.06 912.10 624.47 913.55 627.49 C 917.01 632.37 922.83 634.78 927.55 638.29 C 922.51 642.30 916.68 645.03 910.76 647.46 C 913.76 653.55 921.22 653.43 926.96 652.65 C 928.85 657.22 929.58 662.17 928.22 667.00 C 920.26 668.03 912.24 666.48 904.32 667.13 C 903.74 669.74 904.23 672.51 903.47 675.08 C 899.86 677.38 895.48 677.98 891.73 680.01 C 889.80 681.59 889.59 684.35 888.75 686.56 C 880.39 687.38 872.27 685.33 864.16 683.86 C 858.11 687.69 852.15 692.01 846.97 697.03 C 841.37 696.21 835.73 697.44 830.13 696.68 C 826.28 692.81 822.34 689.01 818.12 685.56 C 817.53 680.74 815.31 676.41 813.15 672.14 C 807.73 673.53 802.17 674.88 796.57 673.85 C 796.81 671.05 796.93 668.26 796.93 665.46 C 798.27 664.89 799.61 664.32 800.96 663.76 C 799.54 659.66 797.59 655.46 793.42 653.53 C 790.06 651.96 787.49 648.90 788.70 645.02 C 791.38 642.80 794.04 640.54 796.83 638.44 C 801.12 639.57 805.26 638.21 808.91 635.95 C 811.45 634.03 814.41 634.96 816.88 636.45 C 819.93 635.63 823.10 634.12 826.32 634.97 C 829.96 635.91 833.51 637.53 837.35 637.39 C 842.10 637.04 846.35 634.62 850.93 633.54 C 855.13 632.34 859.26 633.95 863.29 634.97 C 864.53 630.04 865.49 625.05 866.86 620.15 C 873.71 620.29 880.53 619.16 887.26 617.97 Z" />
</g>
<g id="#0fef3fff">
<path fill="#0fef3f" fill-opacity="0" d=" M 1167.91 633.00 C 1172.48 630.70 1177.70 634.00 1179.84 638.16 C 1181.03 642.03 1179.99 646.15 1180.52 650.12 C 1180.73 652.95 1181.71 655.73 1181.45 658.59 C 1180.69 662.77 1178.11 666.26 1176.39 670.06 C 1174.18 676.15 1173.18 683.40 1167.98 687.85 C 1162.95 691.11 1157.53 693.87 1153.20 698.09 C 1150.69 701.49 1148.16 704.88 1145.70 708.32 C 1148.13 710.38 1151.24 711.90 1153.45 714.34 C 1153.15 725.16 1149.49 736.37 1153.68 746.88 C 1153.96 750.58 1154.40 754.34 1156.85 757.36 C 1155.55 760.51 1154.25 763.67 1152.72 766.73 C 1150.61 766.74 1149.58 764.62 1148.29 763.33 C 1144.97 763.58 1141.70 763.89 1138.42 764.17 C 1137.72 774.58 1127.62 780.39 1118.82 783.32 C 1109.64 782.82 1101.56 777.59 1092.41 776.82 C 1089.41 782.87 1087.29 789.64 1082.63 794.65 C 1078.47 794.90 1074.47 793.26 1070.78 791.52 C 1063.47 794.92 1056.45 788.16 1049.03 790.15 C 1043.53 791.34 1037.77 790.79 1032.35 792.37 C 1028.66 794.40 1028.33 799.48 1026.57 802.84 C 1026.10 805.69 1022.80 805.56 1020.64 806.26 C 1020.68 803.59 1020.61 800.82 1020.72 798.20 C 1020.26 797.98 1019.33 797.55 1018.87 797.33 C 1016.39 798.69 1013.91 800.04 1011.36 801.25 C 1011.60 797.54 1011.67 793.82 1012.19 790.14 C 1004.91 789.20 1003.21 781.13 1000.98 775.39 C 998.62 768.48 998.48 761.12 998.80 753.92 C 1000.87 753.56 1002.96 753.25 1005.04 752.94 C 1007.45 744.57 1008.32 735.69 1011.86 727.69 C 1012.74 724.84 1016.03 726.67 1018.10 726.81 C 1021.58 724.21 1025.90 722.29 1028.31 718.55 C 1029.05 712.14 1026.95 705.72 1026.47 699.38 C 1036.78 695.45 1047.54 692.86 1058.40 690.96 C 1062.96 689.82 1067.84 690.83 1072.29 689.22 C 1075.88 687.13 1078.54 683.68 1080.48 680.06 C 1082.28 676.44 1084.53 671.75 1089.20 671.58 C 1094.37 672.46 1098.30 677.15 1103.81 676.93 C 1111.09 676.50 1118.12 674.12 1125.44 673.75 C 1125.93 670.83 1126.57 667.94 1127.01 665.02 C 1127.70 660.45 1125.72 656.05 1124.75 651.70 C 1127.05 651.76 1129.50 652.43 1131.76 651.63 C 1137.02 648.53 1139.00 641.15 1145.32 639.67 C 1150.92 639.77 1156.27 643.36 1161.95 640.97 C 1167.10 641.66 1167.04 636.31 1167.91 633.00 Z" />
</g>
<g id="#2f2f7fff">
<path fill="#2f2f7f" fill-opacity="0" d=" M 613.40 657.91 C 618.68 654.63 624.23 651.56 628.56 647.01 C 628.24 652.13 630.98 656.97 629.75 662.14 C 634.80 661.23 638.94 658.15 643.50 656.08 C 647.63 655.56 651.81 656.98 655.97 657.11 C 658.30 659.46 660.49 661.96 662.03 664.91 C 664.57 669.41 670.26 671.67 671.69 676.82 C 671.86 683.88 672.69 690.87 674.26 697.77 C 670.29 700.57 666.60 703.82 663.83 707.83 C 661.04 712.03 656.16 714.10 652.98 717.91 C 650.34 721.70 650.17 726.56 650.51 731.00 C 644.28 730.87 640.05 726.00 635.79 722.14 C 631.92 723.40 627.84 724.66 623.76 723.65 C 621.22 726.47 619.08 729.69 616.26 732.25 C 613.43 733.83 609.80 733.18 607.06 735.03 C 604.60 737.17 603.23 740.45 600.18 741.92 C 596.26 743.91 593.42 747.66 589.13 748.90 C 582.90 751.21 577.33 755.09 572.60 759.71 C 570.36 761.99 570.72 766.10 567.70 767.69 C 564.36 769.01 560.66 768.62 557.21 769.46 C 554.32 770.05 552.09 772.11 549.83 773.86 C 548.69 772.86 547.55 771.87 546.42 770.89 C 545.67 773.51 544.88 776.11 544.13 778.73 C 536.45 776.16 532.12 767.94 530.08 760.55 C 527.68 759.29 525.20 757.76 522.36 758.29 C 518.25 758.92 514.64 756.69 510.90 755.47 C 507.54 757.05 505.38 760.31 502.22 762.21 C 496.98 764.57 491.55 762.40 486.20 762.15 C 482.49 756.48 477.20 751.93 474.06 745.89 C 472.02 742.23 473.86 737.75 471.78 734.10 C 471.26 732.27 468.85 730.35 470.43 728.48 C 473.61 724.04 478.67 721.34 481.67 716.75 C 484.82 712.02 489.70 708.76 492.72 703.93 C 500.80 688.75 516.91 680.91 527.78 668.14 C 539.33 671.59 550.33 676.96 562.37 678.64 C 564.44 678.82 566.88 679.03 568.56 677.51 C 572.80 673.68 577.35 670.20 582.45 667.59 C 587.01 664.66 592.72 663.62 596.60 659.65 C 599.33 657.22 601.94 653.98 605.78 653.45 C 608.85 653.64 611.00 656.27 613.40 657.91 Z" />
</g>
<g id="#afaf00ff">
<path fill="#afaf00" fill-opacity="0" d=" M 957.54 651.29 C 962.41 650.87 967.27 650.08 971.88 648.37 C 975.30 652.69 980.32 655.58 985.98 654.94 C 990.37 662.51 991.02 671.36 993.29 679.65 C 993.57 683.08 993.64 687.30 990.70 689.69 C 986.59 691.75 981.99 692.43 977.81 694.26 C 975.77 694.95 976.50 697.65 976.36 699.33 C 976.50 705.64 979.16 712.80 975.58 718.58 C 971.43 720.36 966.89 719.19 962.58 718.99 C 963.77 712.17 964.54 705.06 963.28 698.21 C 960.11 691.20 951.08 690.36 947.03 684.11 C 946.61 681.59 947.17 679.08 947.82 676.67 C 949.98 672.49 953.25 668.96 955.09 664.60 C 956.53 661.14 957.88 657.65 959.51 654.27 C 958.84 653.27 958.18 652.28 957.54 651.29 Z" />
</g>
<g id="#ef2f00ff">
<path fill="#ef2f00" fill-opacity="0" d=" M 998.21 653.90 C 1001.88 652.63 1004.77 649.86 1007.93 647.69 C 1009.75 647.81 1013.39 648.06 1015.22 648.19 C 1015.08 651.04 1014.89 653.88 1014.79 656.74 C 1016.61 658.63 1018.88 660.32 1019.85 662.87 C 1021.22 666.08 1021.75 670.14 1025.23 671.91 C 1027.34 673.55 1029.68 671.47 1031.67 670.61 C 1037.92 673.04 1045.00 672.63 1050.89 676.08 C 1054.98 680.09 1056.28 685.84 1058.40 690.96 C 1047.54 692.86 1036.78 695.45 1026.47 699.38 C 1025.18 698.56 1023.85 697.80 1022.77 696.75 C 1023.47 693.11 1026.81 690.05 1025.97 686.19 C 1023.47 681.51 1016.64 680.13 1012.50 683.55 C 1008.54 686.10 1004.46 688.48 1000.15 690.40 C 999.79 685.80 997.18 682.01 993.29 679.65 C 991.02 671.36 990.37 662.51 985.98 654.94 C 990.06 654.81 994.16 654.62 998.21 653.90 Z" />
</g>
<g id="#4f2fbfff">
<path fill="#4f2fbf" fill-opacity="0" d=" M 942.93 656.23 C 947.52 655.58 951.33 652.49 955.86 651.57 C 956.28 651.50 957.12 651.36 957.54 651.29 C 958.18 652.28 958.84 653.27 959.51 654.27 C 957.88 657.65 956.53 661.14 955.09 664.60 C 953.25 668.96 949.98 672.49 947.82 676.67 C 942.59 673.15 936.57 671.24 930.28 671.11 C 930.88 669.57 931.49 668.03 932.10 666.51 C 930.80 666.67 929.51 666.85 928.22 667.00 C 929.58 662.17 928.85 657.22 926.96 652.65 C 932.56 652.18 937.56 655.32 942.93 656.23 Z" />
</g>
<g id="#4fef3fff">
<path fill="#4fef3f" fill-opacity="0" d=" M 724.49 658.12 C 725.96 657.25 727.38 656.25 729.02 655.68 C 733.53 657.48 736.50 661.75 740.90 663.84 C 746.51 664.46 752.25 664.37 757.80 665.59 C 763.05 666.81 767.58 669.91 772.53 671.90 C 777.79 673.64 783.20 674.93 788.61 676.14 C 791.49 676.91 794.08 674.98 796.57 673.85 C 802.17 674.88 807.73 673.53 813.15 672.14 C 815.31 676.41 817.53 680.74 818.12 685.56 C 822.34 689.01 826.28 692.81 830.13 696.68 C 832.86 702.07 835.70 707.56 840.79 711.14 C 839.96 713.02 839.10 714.89 838.22 716.76 C 842.49 719.01 846.09 722.29 848.74 726.33 C 853.26 723.92 854.27 718.82 856.74 714.82 C 873.70 706.86 893.47 704.13 911.86 708.15 C 911.88 711.24 911.94 714.34 912.20 717.42 C 908.46 719.52 904.92 721.94 901.27 724.18 C 901.15 722.60 900.91 719.45 900.78 717.87 C 893.96 723.21 888.32 729.88 881.42 735.10 C 880.25 731.91 879.00 728.61 877.96 725.43 C 875.82 727.75 873.83 730.20 872.01 732.77 C 865.96 734.44 860.26 737.21 854.05 738.32 C 849.63 739.16 846.22 742.25 842.27 744.13 C 836.45 746.45 829.67 746.13 824.21 749.43 C 819.21 753.49 815.32 758.73 810.98 763.43 C 806.50 762.07 801.79 761.18 797.12 762.11 C 795.23 764.89 795.36 769.16 791.85 770.64 C 785.51 773.94 779.51 777.95 774.66 783.25 C 776.76 786.65 780.40 789.53 780.72 793.75 C 779.06 796.16 776.43 797.72 774.90 800.23 C 773.70 802.66 773.30 805.37 772.65 807.98 C 774.11 807.33 775.59 806.69 777.07 806.06 C 774.48 811.69 771.90 817.33 769.80 823.17 C 771.27 823.75 772.78 824.34 774.24 825.02 C 777.60 826.81 780.85 828.81 784.15 830.73 C 773.22 835.97 768.51 847.79 761.98 857.29 C 764.27 857.42 766.57 857.53 768.88 857.68 C 766.91 859.84 765.09 862.22 762.70 863.94 C 759.14 865.45 755.40 866.51 751.98 868.35 C 753.34 872.76 755.18 877.54 753.56 882.16 C 752.52 886.72 749.18 890.11 746.41 893.70 C 747.44 895.34 748.47 897.00 749.58 898.62 C 747.84 897.33 746.18 895.95 744.54 894.57 C 740.24 894.14 735.40 894.84 731.50 892.53 C 729.88 889.43 729.94 885.76 728.42 882.63 C 719.25 878.08 708.29 876.82 698.42 879.54 C 694.04 882.01 688.97 881.88 684.11 882.19 C 681.49 876.17 675.96 869.52 680.29 863.02 C 678.87 858.57 677.20 854.18 674.84 850.13 C 671.98 845.40 672.47 839.64 670.72 834.53 C 675.94 828.20 676.99 819.64 679.02 811.98 C 680.33 806.08 674.90 801.39 674.90 795.75 C 677.19 787.15 678.51 778.39 678.98 769.51 C 679.62 769.37 680.91 769.11 681.56 768.97 C 679.85 768.14 678.16 767.20 676.29 766.82 C 673.63 769.16 671.29 771.82 668.70 774.22 C 667.78 772.62 666.86 771.06 665.94 769.49 C 662.79 769.46 659.41 770.06 656.48 768.62 C 653.55 763.48 650.27 758.46 648.16 752.91 C 647.31 747.59 649.09 742.39 649.57 737.12 C 650.55 736.62 651.54 736.12 652.54 735.65 C 651.80 734.12 650.99 732.62 650.51 731.00 C 650.17 726.56 650.34 721.70 652.98 717.91 C 656.16 714.10 661.04 712.03 663.83 707.83 C 666.60 703.82 670.29 700.57 674.26 697.77 C 682.81 694.73 690.58 690.04 698.36 685.45 C 697.49 684.11 696.64 682.76 695.82 681.41 C 701.22 678.28 706.89 675.63 712.89 673.88 C 719.34 672.11 723.65 666.78 728.10 662.19 C 726.90 660.83 725.69 659.46 724.49 658.12 Z" />
</g>
<g id="#2faf7ffe">
<path fill="#2faf7f" fill-opacity="0" d=" M 904.32 667.13 C 912.24 666.48 920.26 668.03 928.22 667.00 C 929.51 666.85 930.80 666.67 932.10 666.51 C 931.49 668.03 930.88 669.57 930.28 671.11 C 936.57 671.24 942.59 673.15 947.82 676.67 C 947.17 679.08 946.61 681.59 947.03 684.11 C 951.08 690.36 960.11 691.20 963.28 698.21 C 964.54 705.06 963.77 712.17 962.58 718.99 C 959.79 719.12 956.91 719.49 954.19 719.84 C 947.89 714.02 939.27 712.30 931.06 711.17 C 924.62 710.40 918.26 709.16 911.86 708.15 C 893.47 704.13 873.70 706.86 856.74 714.82 C 854.27 718.82 853.26 723.92 848.74 726.33 C 846.09 722.29 842.49 719.01 838.22 716.76 C 839.10 714.89 839.96 713.02 840.79 711.14 C 835.70 707.56 832.86 702.07 830.13 696.68 C 835.73 697.44 841.37 696.21 846.97 697.03 C 852.15 692.01 858.11 687.69 864.16 683.86 C 872.27 685.33 880.39 687.38 888.75 686.56 C 889.59 684.35 889.80 681.59 891.73 680.01 C 895.48 677.98 899.86 677.38 903.47 675.08 C 904.23 672.51 903.74 669.74 904.32 667.13 Z" />
</g>
<g id="#6f2f7fff">
<path fill="#6f2f7f" fill-opacity="0" d=" M 993.29 679.65 C 997.18 682.01 999.79 685.80 1000.15 690.40 C 1004.46 688.48 1008.54 686.10 1012.50 683.55 C 1016.64 680.13 1023.47 681.51 1025.97 686.19 C 1026.81 690.05 1023.47 693.11 1022.77 696.75 C 1023.85 697.80 1025.18 698.56 1026.47 699.38 C 1026.95 705.72 1029.05 712.14 1028.31 718.55 C 1025.90 722.29 1021.58 724.21 1018.10 726.81 C 1016.03 726.67 1012.74 724.84 1011.86 727.69 C 1008.32 735.69 1007.45 744.57 1005.04 752.94 C 1002.96 753.25 1000.87 753.56 998.80 753.92 C 998.79 752.72 998.82 751.54 998.83 750.37 C 992.76 749.98 985.82 743.68 980.77 749.72 C 977.71 752.53 973.66 754.43 971.45 758.05 C 969.09 763.10 967.71 768.56 965.40 773.65 C 964.06 770.52 965.75 765.83 963.01 763.18 C 957.46 760.47 950.65 762.57 945.17 759.85 C 938.82 754.73 932.06 748.29 931.85 739.50 C 930.75 730.11 931.32 720.61 931.06 711.17 C 939.27 712.30 947.89 714.02 954.19 719.84 C 956.91 719.49 959.79 719.12 962.58 718.99 C 966.89 719.19 971.43 720.36 975.58 718.58 C 979.16 712.80 976.50 705.64 976.36 699.33 C 976.50 697.65 975.77 694.95 977.81 694.26 C 981.99 692.43 986.59 691.75 990.70 689.69 C 993.64 687.30 993.57 683.08 993.29 679.65 Z" />
</g>
<g id="#6faf7ffe">
<path fill="#6faf7f" fill-opacity="0" d=" M 911.86 708.15 C 918.26 709.16 924.62 710.40 931.06 711.17 C 931.32 720.61 930.75 730.11 931.85 739.50 C 932.06 748.29 938.82 754.73 945.17 759.85 C 950.65 762.57 957.46 760.47 963.01 763.18 C 965.75 765.83 964.06 770.52 965.40 773.65 C 967.71 768.56 969.09 763.10 971.45 758.05 C 973.66 754.43 977.71 752.53 980.77 749.72 C 985.82 743.68 992.76 749.98 998.83 750.37 C 998.82 751.54 998.79 752.72 998.80 753.92 C 998.48 761.12 998.62 768.48 1000.98 775.39 C 1003.21 781.13 1004.91 789.20 1012.19 790.14 C 1011.67 793.82 1011.60 797.54 1011.36 801.25 C 1013.91 800.04 1016.39 798.69 1018.87 797.33 C 1019.33 797.55 1020.26 797.98 1020.72 798.20 C 1020.61 800.82 1020.68 803.59 1020.64 806.26 C 1020.94 811.73 1019.47 817.01 1017.47 822.06 C 1016.05 822.47 1014.63 822.88 1013.23 823.32 C 1012.30 829.90 1011.73 836.52 1011.27 843.16 C 1008.40 842.47 1005.50 842.07 1002.59 841.67 C 1004.68 845.60 1007.87 848.69 1011.12 851.70 C 1012.09 856.42 1010.07 860.61 1006.25 863.25 C 1001.76 866.96 999.16 872.27 997.82 877.83 C 996.55 878.33 995.28 878.83 994.05 879.38 C 986.42 882.64 979.35 887.03 972.28 891.33 C 968.92 893.72 965.52 889.98 962.54 888.60 C 962.38 890.06 962.23 891.52 962.09 892.99 C 958.47 888.59 954.48 883.51 948.07 883.71 C 941.89 882.25 935.83 884.74 929.73 885.30 C 924.65 885.14 920.06 882.36 915.07 881.70 C 912.87 883.36 911.62 885.91 910.10 888.15 C 905.28 886.01 900.59 883.59 896.03 880.95 C 893.76 882.06 891.50 883.17 889.23 884.27 C 884.73 878.71 880.68 872.79 877.61 866.32 C 865.78 863.93 852.98 860.76 844.59 851.42 C 843.03 850.08 841.63 847.80 839.32 848.07 C 835.90 850.66 833.92 854.72 830.45 857.25 C 826.03 857.63 821.76 855.50 817.64 854.30 C 812.91 852.49 810.55 847.37 809.10 842.87 C 809.28 838.01 811.07 833.04 814.26 829.32 C 818.54 823.82 822.16 817.85 826.32 812.28 C 821.37 810.88 816.20 810.82 811.11 810.70 C 811.76 812.34 812.43 813.97 813.12 815.62 C 804.56 819.41 795.46 821.99 786.03 821.33 C 781.61 820.46 777.95 823.24 774.24 825.02 C 772.78 824.34 771.27 823.75 769.80 823.17 C 771.90 817.33 774.48 811.69 777.07 806.06 C 775.59 806.69 774.11 807.33 772.65 807.98 C 773.30 805.37 773.70 802.66 774.90 800.23 C 776.43 797.72 779.06 796.16 780.72 793.75 C 780.40 789.53 776.76 786.65 774.66 783.25 C 779.51 777.95 785.51 773.94 791.85 770.64 C 795.36 769.16 795.23 764.89 797.12 762.11 C 801.79 761.18 806.50 762.07 810.98 763.43 C 815.32 758.73 819.21 753.49 824.21 749.43 C 829.67 746.13 836.45 746.45 842.27 744.13 C 846.22 742.25 849.63 739.16 854.05 738.32 C 860.26 737.21 865.96 734.44 872.01 732.77 C 873.83 730.20 875.82 727.75 877.96 725.43 C 879.00 728.61 880.25 731.91 881.42 735.10 C 888.32 729.88 893.96 723.21 900.78 717.87 C 900.91 719.45 901.15 722.60 901.27 724.18 C 904.92 721.94 908.46 719.52 912.20 717.42 C 911.94 714.34 911.88 711.24 911.86 708.15 M 997.57 835.81 C 997.66 839.82 1001.19 840.87 1004.60 841.14 C 1002.39 839.18 1000.01 837.44 997.57 835.81 Z" />
</g>
<g id="#4fefbfff">
<path fill="#4fefbf" fill-opacity="0" d=" M 811.11 810.70 C 816.20 810.82 821.37 810.88 826.32 812.28 C 822.16 817.85 818.54 823.82 814.26 829.32 C 811.07 833.04 809.28 838.01 809.10 842.87 C 810.55 847.37 812.91 852.49 817.64 854.30 C 821.76 855.50 826.03 857.63 830.45 857.25 C 833.92 854.72 835.90 850.66 839.32 848.07 C 841.63 847.80 843.03 850.08 844.59 851.42 C 852.98 860.76 865.78 863.93 877.61 866.32 C 880.68 872.79 884.73 878.71 889.23 884.27 C 891.50 883.17 893.76 882.06 896.03 880.95 C 900.59 883.59 905.28 886.01 910.10 888.15 C 911.62 885.91 912.87 883.36 915.07 881.70 C 920.06 882.36 924.65 885.14 929.73 885.30 C 935.83 884.74 941.89 882.25 948.07 883.71 C 954.48 883.51 958.47 888.59 962.09 892.99 C 962.23 891.52 962.38 890.06 962.54 888.60 C 965.52 889.98 968.92 893.72 972.28 891.33 C 979.35 887.03 986.42 882.64 994.05 879.38 C 998.35 885.65 1006.96 891.14 1005.59 899.66 C 1005.34 902.80 1002.70 905.35 1003.32 908.62 C 1003.81 912.22 1003.64 916.06 1000.57 918.54 C 999.82 917.12 999.10 915.75 998.36 914.35 C 995.50 916.41 992.00 916.64 988.61 916.25 C 986.72 924.68 984.47 932.96 980.57 940.74 C 982.98 944.65 982.82 949.31 982.28 953.69 C 979.13 952.39 975.90 950.41 972.36 951.03 C 966.63 951.55 960.92 954.18 955.14 952.68 C 946.97 950.57 938.41 951.71 930.33 953.62 C 930.24 956.17 931.39 959.28 929.24 961.27 C 927.49 964.75 923.01 963.72 920.18 962.81 C 914.83 961.74 910.81 957.69 906.36 954.92 C 901.40 954.31 896.01 955.12 891.58 952.30 C 889.09 954.28 886.78 956.57 883.90 958.00 C 881.63 957.13 880.41 954.91 879.18 953.00 C 874.28 951.13 870.47 953.79 866.85 956.49 C 864.53 956.23 862.37 955.26 860.20 954.47 C 856.68 956.32 852.68 956.87 848.82 955.93 C 843.96 955.90 844.19 949.58 840.64 947.58 C 837.77 947.35 835.14 947.52 832.34 947.55 C 829.77 945.09 827.29 941.78 823.41 941.65 C 819.25 940.95 814.61 943.82 810.91 941.13 C 808.23 939.48 805.31 938.31 802.29 937.46 C 798.88 930.66 795.49 923.82 791.74 917.21 C 789.38 912.76 783.80 913.81 779.64 913.49 C 773.14 913.45 768.57 908.23 764.36 903.92 C 762.23 905.33 760.34 908.11 757.52 907.80 C 754.78 904.83 752.18 901.71 749.58 898.62 C 748.47 897.00 747.44 895.34 746.41 893.70 C 749.18 890.11 752.52 886.72 753.56 882.16 C 755.18 877.54 753.34 872.76 751.98 868.35 C 755.40 866.51 759.14 865.45 762.70 863.94 C 765.09 862.22 766.91 859.84 768.88 857.68 C 766.57 857.53 764.27 857.42 761.98 857.29 C 768.51 847.79 773.22 835.97 784.15 830.73 C 780.85 828.81 777.60 826.81 774.24 825.02 C 777.95 823.24 781.61 820.46 786.03 821.33 C 795.46 821.99 804.56 819.41 813.12 815.62 C 812.43 813.97 811.76 812.34 811.11 810.70 Z" />
</g>
<g id="#070c0912">
<path fill="#070c09" fill-opacity="0" d=" M 997.57 835.81 C 1000.01 837.44 1002.39 839.18 1004.60 841.14 C 1001.19 840.87 997.66 839.82 997.57 835.81 Z" />
</g>
</svg>
