<?xml version="1.0" encoding="UTF-8" ?>
<!DOCTYPE svg PUBLIC "-//W3C//DTD SVG 1.1//EN" "http://www.w3.org/Graphics/SVG/1.1/DTD/svg11.dtd">
<svg width="1920pt" height="1080pt" viewBox="0 0 1920 1080" version="1.1" xmlns="http://www.w3.org/2000/svg">
<g id="#af3f9fff">
<path fill="#af3f9f" fill-opacity="0" d=" M 1077.76 222.52 C 1083.28 221.21 1088.83 218.86 1094.61 219.76 C 1109.07 221.78 1123.54 223.74 1137.98 225.96 C 1146.12 227.15 1153.83 230.72 1160.38 235.62 C 1165.17 243.37 1166.71 253.05 1173.28 259.71 C 1179.47 266.15 1185.65 272.60 1191.54 279.32 C 1189.62 284.84 1187.94 290.48 1186.87 296.23 C 1186.84 305.87 1188.71 315.66 1186.24 325.16 C 1182.41 339.43 1177.13 353.26 1173.37 367.55 C 1170.12 376.70 1168.59 386.71 1162.68 394.68 C 1159.68 397.35 1154.30 397.73 1151.43 394.61 C 1146.33 390.38 1146.98 382.45 1141.64 378.40 C 1138.71 376.96 1133.42 375.97 1132.21 380.10 C 1128.65 391.90 1125.98 403.97 1122.98 415.93 C 1121.81 422.66 1113.39 424.11 1107.97 425.43 C 1101.14 425.97 1091.49 425.83 1088.74 418.13 C 1085.22 412.79 1086.68 406.47 1087.90 400.72 C 1084.34 397.71 1080.30 394.55 1075.35 395.41 C 1066.73 396.54 1058.07 392.00 1049.67 395.30 C 1046.92 395.85 1046.29 398.93 1045.72 401.24 C 1044.91 405.90 1044.49 410.63 1043.76 415.31 C 1043.13 413.89 1042.53 412.48 1041.93 411.08 C 1036.50 414.88 1030.98 419.46 1024.00 419.56 C 1018.43 418.80 1014.53 414.21 1010.25 411.01 C 1009.58 420.63 1008.44 430.23 1007.95 439.87 C 1005.95 441.57 1003.99 443.29 1002.01 444.99 L 1001.45 445.47 C 1002.73 435.54 1002.47 425.52 1003.56 415.59 C 1004.70 408.22 1003.47 400.13 1007.49 393.46 C 1012.54 385.80 1014.17 375.67 1011.25 366.95 C 1007.20 361.04 1001.82 356.09 996.08 351.84 C 991.31 348.17 984.81 348.93 979.58 346.25 C 971.84 341.78 966.17 333.01 967.23 323.87 C 967.69 306.24 967.59 288.60 967.53 270.97 C 966.22 262.99 972.73 257.26 974.97 250.21 C 975.72 245.16 976.22 240.09 976.48 234.99 C 979.19 237.69 981.48 240.98 984.73 243.10 C 988.55 244.48 992.64 245.59 996.74 245.28 C 1006.16 244.25 1015.32 241.64 1024.17 238.31 C 1041.44 231.22 1059.80 227.39 1077.76 222.52 Z" />
</g>
<g id="#2fbf9fff">
<path fill="#2fbf9f" fill-opacity="0" d=" M 1010.25 411.01 C 1014.53 414.21 1018.43 418.80 1024.00 419.56 C 1030.98 419.46 1036.50 414.88 1041.93 411.08 C 1042.53 412.48 1043.13 413.89 1043.76 415.31 C 1045.56 419.55 1047.85 423.61 1050.93 427.07 C 1054.28 430.44 1058.91 432.04 1063.09 434.15 C 1058.34 441.95 1053.03 449.38 1047.92 456.93 C 1041.69 465.95 1033.69 473.87 1029.38 484.11 C 1026.89 492.81 1027.45 502.04 1024.91 510.73 C 1023.67 514.85 1019.64 517.32 1015.82 518.72 C 1009.39 521.33 1001.69 522.32 997.05 528.01 C 993.34 532.42 988.94 536.27 983.88 539.07 C 972.33 540.80 959.04 542.72 949.05 535.01 C 943.88 532.24 940.67 527.10 939.06 521.60 C 935.55 511.34 933.21 500.38 926.77 491.45 C 921.95 488.14 915.24 488.25 910.40 491.50 C 903.65 496.23 896.83 501.30 888.83 503.72 C 883.91 505.12 878.78 505.52 873.70 505.91 C 872.81 508.50 871.98 511.11 871.08 513.70 C 867.27 500.41 866.32 486.48 863.64 472.95 C 862.46 466.70 860.44 459.45 865.18 454.11 C 871.40 445.47 880.95 438.09 891.84 437.33 C 898.61 441.53 900.70 450.37 907.50 454.56 C 911.17 457.00 915.10 458.99 918.97 461.12 C 922.49 458.57 926.08 456.13 929.55 453.52 C 936.15 448.53 940.30 440.69 948.05 437.17 C 957.49 433.28 967.78 432.53 977.80 431.28 C 983.99 437.53 991.08 442.78 997.51 448.80 C 999.01 447.54 1000.50 446.26 1002.01 444.99 C 1003.99 443.29 1005.95 441.57 1007.95 439.87 C 1008.44 430.23 1009.58 420.63 1010.25 411.01 Z" />
</g>
<g id="#2f3f9fff">
<path fill="#2f3f9f" fill-opacity="0" d=" M 1063.09 434.15 C 1066.60 435.52 1070.13 436.96 1073.67 438.31 C 1070.47 455.22 1073.58 472.36 1075.50 489.22 C 1075.35 502.93 1076.92 516.97 1072.27 530.20 C 1075.08 531.13 1077.77 532.82 1080.77 533.22 C 1084.86 532.28 1088.33 529.54 1092.50 528.82 C 1098.84 527.98 1105.73 527.81 1111.71 530.42 C 1118.00 537.32 1120.83 546.79 1122.70 555.79 C 1122.45 569.40 1120.50 582.93 1118.73 596.40 C 1118.10 600.34 1117.31 605.82 1112.44 606.49 C 1105.36 601.65 1103.51 592.27 1096.75 587.23 C 1091.86 585.16 1085.89 586.09 1081.14 588.30 C 1063.19 598.59 1052.27 616.61 1039.16 631.93 C 1036.15 626.13 1032.20 620.61 1030.85 614.13 C 1030.80 610.35 1033.14 607.04 1034.88 603.85 C 1039.97 596.20 1044.88 588.23 1047.49 579.35 C 1048.65 575.58 1047.11 571.74 1046.28 568.07 C 1031.94 570.31 1015.67 568.69 1004.73 558.25 C 998.08 551.54 991.44 544.78 983.88 539.07 C 988.94 536.27 993.34 532.42 997.05 528.01 C 1001.69 522.32 1009.39 521.33 1015.82 518.72 C 1019.64 517.32 1023.67 514.85 1024.91 510.73 C 1027.45 502.04 1026.89 492.81 1029.38 484.11 C 1033.69 473.87 1041.69 465.95 1047.92 456.93 C 1053.03 449.38 1058.34 441.95 1063.09 434.15 Z" />
</g>
<g id="#afbf9fff">
<path fill="#afbf9f" fill-opacity="0" d=" M 756.27 512.12 C 760.58 501.55 764.66 490.41 772.99 482.24 C 777.79 488.52 782.90 494.83 785.60 502.37 C 787.42 507.96 790.48 513.29 795.61 516.46 C 803.94 510.00 814.25 507.39 823.68 503.07 C 827.29 508.13 831.43 512.79 835.30 517.66 C 840.78 524.57 841.07 533.54 843.14 541.75 C 844.40 542.11 845.69 542.49 846.98 542.87 C 851.52 538.90 856.07 534.94 860.36 530.70 C 865.73 533.69 871.04 536.77 876.36 539.86 C 868.74 549.62 860.80 559.30 850.56 566.46 C 851.26 571.45 853.95 577.14 850.94 581.86 C 846.57 587.96 842.99 595.22 836.69 599.55 C 825.23 603.91 812.92 605.13 801.28 608.82 C 791.06 613.00 781.95 619.50 771.61 623.45 C 768.31 625.02 763.13 626.34 763.11 630.83 C 765.62 634.98 770.42 637.07 774.15 640.03 C 768.30 645.23 762.25 650.22 756.43 655.45 C 752.59 658.84 749.51 663.43 748.78 668.58 C 748.39 677.05 757.97 683.84 765.92 681.22 C 773.73 679.72 782.49 675.83 790.04 680.00 C 793.10 684.09 794.59 689.40 793.39 694.45 C 792.24 701.33 787.53 706.82 785.05 713.18 C 785.25 718.36 788.28 723.26 787.96 728.51 C 784.59 735.33 779.77 741.40 776.39 748.25 C 773.74 752.73 772.01 758.66 766.60 760.54 C 760.66 762.50 754.35 762.73 748.25 763.91 C 734.91 766.73 722.09 771.90 710.80 779.59 C 710.94 784.29 711.68 789.25 709.73 793.69 C 708.49 796.59 706.99 799.38 705.46 802.14 C 698.28 800.30 690.90 798.84 684.74 794.39 C 677.17 789.35 666.39 792.12 659.85 785.17 C 641.03 768.30 621.93 751.74 603.06 734.93 C 585.56 718.74 566.78 703.95 550.08 686.91 C 561.49 681.27 568.04 668.65 580.43 664.73 C 585.17 664.02 590.51 663.66 594.81 666.20 C 602.50 671.14 607.44 679.52 615.06 684.43 C 629.49 686.39 643.04 677.72 652.36 667.43 C 656.43 660.93 658.25 653.17 663.17 647.14 C 677.86 628.92 691.92 610.09 708.54 593.54 C 717.92 582.85 726.16 571.21 735.44 560.43 C 740.19 553.43 744.59 546.17 748.88 538.89 C 753.74 530.72 752.69 520.74 756.27 512.12 Z" />
</g>
<g id="#6f3f1fff">
<path fill="#6f3f1f" fill-opacity="0" d=" M 910.40 491.50 C 915.24 488.25 921.95 488.14 926.77 491.45 C 933.21 500.38 935.55 511.34 939.06 521.60 C 935.67 530.56 933.00 540.10 926.29 547.30 C 919.96 554.66 913.31 561.78 907.74 569.76 C 902.43 577.33 894.68 583.64 892.27 592.90 C 891.17 597.09 892.30 601.38 892.96 605.55 C 893.18 608.90 894.39 612.58 892.71 615.72 C 888.74 622.31 879.87 625.63 879.04 634.07 C 876.70 642.95 881.80 651.66 880.51 660.58 C 878.93 663.13 876.16 664.56 873.74 666.22 C 870.66 661.54 867.49 656.94 864.52 652.20 C 861.46 653.11 857.93 653.29 855.37 655.33 C 850.41 665.15 848.33 676.09 846.17 686.79 C 845.19 694.74 838.86 701.03 831.56 703.62 C 827.06 705.29 822.84 701.97 818.98 700.12 C 808.45 694.74 799.85 686.47 790.04 680.00 C 782.49 675.83 773.73 679.72 765.92 681.22 C 757.97 683.84 748.39 677.05 748.78 668.58 C 749.51 663.43 752.59 658.84 756.43 655.45 C 762.25 650.22 768.30 645.23 774.15 640.03 C 770.42 637.07 765.62 634.98 763.11 630.83 C 763.13 626.34 768.31 625.02 771.61 623.45 C 781.95 619.50 791.06 613.00 801.28 608.82 C 812.92 605.13 825.23 603.91 836.69 599.55 C 842.99 595.22 846.57 587.96 850.94 581.86 C 853.95 577.14 851.26 571.45 850.56 566.46 C 860.80 559.30 868.74 549.62 876.36 539.86 C 871.04 536.77 865.73 533.69 860.36 530.70 C 864.68 525.58 868.88 520.09 871.08 513.70 C 871.98 511.11 872.81 508.50 873.70 505.91 C 878.78 505.52 883.91 505.12 888.83 503.72 C 896.83 501.30 903.65 496.23 910.40 491.50 Z" />
</g>
<g id="#ef3f1fff">
<path fill="#ef3f1f" fill-opacity="0" d=" M 926.29 547.30 C 933.00 540.10 935.67 530.56 939.06 521.60 C 940.67 527.10 943.88 532.24 949.05 535.01 C 959.04 542.72 972.33 540.80 983.88 539.07 C 991.44 544.78 998.08 551.54 1004.73 558.25 C 1015.67 568.69 1031.94 570.31 1046.28 568.07 C 1047.11 571.74 1048.65 575.58 1047.49 579.35 C 1044.88 588.23 1039.97 596.20 1034.88 603.85 C 1033.14 607.04 1030.80 610.35 1030.85 614.13 C 1032.20 620.61 1036.15 626.13 1039.16 631.93 C 1039.16 632.25 1039.18 632.89 1039.19 633.20 C 1029.54 638.03 1018.92 640.31 1008.38 642.17 C 999.68 643.17 990.90 642.14 982.17 642.53 C 976.37 642.29 970.22 643.44 964.61 641.52 C 956.37 636.26 947.99 628.31 937.43 631.54 C 931.81 635.83 928.79 642.61 924.68 648.17 C 919.11 645.82 913.67 643.23 908.12 640.88 C 909.04 631.30 911.51 621.96 913.87 612.67 C 907.18 609.53 900.03 607.59 892.96 605.55 C 892.30 601.38 891.17 597.09 892.27 592.90 C 894.68 583.64 902.43 577.33 907.74 569.76 C 913.31 561.78 919.96 554.66 926.29 547.30 Z" />
</g>
<g id="#afbf1fff">
<path fill="#afbf1f" fill-opacity="0" d=" M 1122.70 555.79 C 1126.76 558.97 1130.30 562.97 1135.10 565.08 C 1140.23 567.95 1146.38 569.11 1150.90 573.06 C 1162.01 583.39 1174.26 592.41 1185.90 602.12 C 1190.27 605.51 1190.91 611.39 1192.55 616.29 C 1194.14 622.84 1196.67 629.37 1196.70 636.22 C 1196.84 642.20 1195.85 648.11 1195.83 654.10 C 1196.86 656.55 1198.94 658.38 1200.62 660.41 C 1207.36 667.74 1209.12 677.90 1211.62 687.20 C 1212.19 690.53 1213.76 694.48 1211.50 697.52 C 1202.25 710.04 1192.76 722.46 1184.98 735.98 C 1181.08 742.56 1175.88 748.21 1171.71 754.61 C 1167.36 761.44 1161.32 766.99 1155.17 772.16 C 1148.88 776.74 1140.77 777.02 1133.30 776.73 C 1119.98 778.14 1106.30 772.38 1097.27 762.72 C 1091.80 757.95 1093.19 750.67 1096.15 745.04 C 1093.38 743.68 1090.60 742.34 1087.86 740.97 C 1086.45 745.66 1084.00 750.38 1084.57 755.38 C 1085.01 762.46 1088.28 769.99 1084.94 776.85 C 1076.85 795.09 1068.15 813.05 1060.26 831.39 C 1056.66 837.78 1055.11 845.41 1050.43 851.11 C 1048.92 851.35 1045.90 851.82 1044.39 852.06 C 1054.64 825.86 1066.31 800.20 1076.83 774.09 C 1071.85 768.06 1066.55 762.28 1062.08 755.87 C 1059.58 752.38 1059.98 747.85 1060.08 743.78 C 1060.94 732.02 1062.80 720.35 1063.56 708.58 C 1063.92 704.89 1062.44 701.41 1060.79 698.21 C 1069.15 684.96 1075.98 670.76 1084.99 657.94 C 1089.33 650.87 1097.50 648.12 1104.77 645.16 C 1099.16 630.96 1092.99 616.96 1086.28 603.26 C 1078.90 607.57 1071.10 611.15 1063.74 615.49 C 1057.28 619.48 1055.80 627.54 1052.92 633.97 C 1047.47 648.52 1039.86 662.49 1037.46 678.00 C 1029.68 720.92 1021.96 763.88 1012.63 806.49 C 1009.72 821.29 1005.87 835.88 1003.28 850.76 C 990.82 849.68 981.58 859.19 970.82 863.66 C 962.84 866.21 954.39 866.65 946.09 865.93 C 944.94 844.04 943.01 822.21 941.57 800.35 C 941.38 793.73 937.55 788.09 934.43 782.53 C 943.80 775.19 956.09 769.81 960.10 757.61 C 955.13 752.51 948.50 746.78 951.54 738.59 C 954.20 734.06 958.62 730.95 961.95 726.95 C 968.66 719.04 974.06 710.12 979.03 701.04 C 981.21 697.40 983.26 692.83 987.85 691.80 C 996.32 688.88 1005.28 691.32 1013.92 691.11 C 1019.04 689.61 1023.02 685.73 1027.52 683.01 C 1028.69 674.03 1027.99 664.86 1030.34 656.04 C 1032.39 651.54 1036.81 648.57 1038.76 644.00 C 1039.76 640.51 1039.08 636.79 1039.19 633.20 C 1039.18 632.89 1039.16 632.25 1039.16 631.93 C 1052.27 616.61 1063.19 598.59 1081.14 588.30 C 1085.89 586.09 1091.86 585.16 1096.75 587.23 C 1103.51 592.27 1105.36 601.65 1112.44 606.49 C 1117.31 605.82 1118.10 600.34 1118.73 596.40 C 1120.50 582.93 1122.45 569.40 1122.70 555.79 Z" />
</g>
<g id="#2fbf1ffe">
<path fill="#2fbf1f" fill-opacity="0" d=" M 1063.74 615.49 C 1071.10 611.15 1078.90 607.57 1086.28 603.26 C 1092.99 616.96 1099.16 630.96 1104.77 645.16 C 1097.50 648.12 1089.33 650.87 1084.99 657.94 C 1075.98 670.76 1069.15 684.96 1060.79 698.21 C 1062.44 701.41 1063.92 704.89 1063.56 708.58 C 1062.80 720.35 1060.94 732.02 1060.08 743.78 C 1059.98 747.85 1059.58 752.38 1062.08 755.87 C 1066.55 762.28 1071.85 768.06 1076.83 774.09 C 1066.31 800.20 1054.64 825.86 1044.39 852.06 C 1037.29 852.48 1030.26 853.83 1023.15 853.66 C 1016.48 853.00 1009.86 851.99 1003.28 850.76 C 1005.87 835.88 1009.72 821.29 1012.63 806.49 C 1021.96 763.88 1029.68 720.92 1037.46 678.00 C 1039.86 662.49 1047.47 648.52 1052.92 633.97 C 1055.80 627.54 1057.28 619.48 1063.74 615.49 Z" />
</g>
<g id="#6fbf1fff">
<path fill="#6fbf1f" fill-opacity="0" d=" M 892.96 605.55 C 900.03 607.59 907.18 609.53 913.87 612.67 C 911.51 621.96 909.04 631.30 908.12 640.88 C 913.67 643.23 919.11 645.82 924.68 648.17 C 928.79 642.61 931.81 635.83 937.43 631.54 C 947.99 628.31 956.37 636.26 964.61 641.52 C 970.22 643.44 976.37 642.29 982.17 642.53 C 990.90 642.14 999.68 643.17 1008.38 642.17 C 1018.92 640.31 1029.54 638.03 1039.19 633.20 C 1039.08 636.79 1039.76 640.51 1038.76 644.00 C 1036.81 648.57 1032.39 651.54 1030.34 656.04 C 1027.99 664.86 1028.69 674.03 1027.52 683.01 C 1023.02 685.73 1019.04 689.61 1013.92 691.11 C 1005.28 691.32 996.32 688.88 987.85 691.80 C 983.26 692.83 981.21 697.40 979.03 701.04 C 974.06 710.12 968.66 719.04 961.95 726.95 C 958.62 730.95 954.20 734.06 951.54 738.59 C 948.50 746.78 955.13 752.51 960.10 757.61 C 956.09 769.81 943.80 775.19 934.43 782.53 C 937.55 788.09 941.38 793.73 941.57 800.35 C 943.01 822.21 944.94 844.04 946.09 865.93 C 934.42 868.45 922.63 873.55 915.83 883.90 C 911.17 888.55 910.60 895.64 906.74 900.70 C 901.65 903.74 895.48 904.49 890.19 907.18 C 884.85 909.63 878.98 907.42 873.43 907.74 C 867.46 909.87 861.84 913.45 855.33 913.74 C 843.89 913.39 837.20 923.87 828.92 929.91 C 825.42 932.61 820.96 931.23 817.30 929.74 C 809.99 926.58 801.94 925.50 795.06 921.32 C 791.21 922.82 786.46 924.18 782.94 921.07 C 777.06 915.90 768.42 922.06 762.93 916.11 C 741.72 901.25 720.32 886.67 698.98 872.00 C 690.00 866.43 685.07 856.89 679.98 848.04 C 677.50 843.92 676.81 838.00 680.18 834.20 C 684.20 829.49 690.13 826.87 694.31 822.34 C 698.52 815.89 701.50 808.74 705.46 802.14 C 706.99 799.38 708.49 796.59 709.73 793.69 C 711.68 789.25 710.94 784.29 710.80 779.59 C 722.09 771.90 734.91 766.73 748.25 763.91 C 754.35 762.73 760.66 762.50 766.60 760.54 C 772.01 758.66 773.74 752.73 776.39 748.25 C 779.77 741.40 784.59 735.33 787.96 728.51 C 788.28 723.26 785.25 718.36 785.05 713.18 C 787.53 706.82 792.24 701.33 793.39 694.45 C 794.59 689.40 793.10 684.09 790.04 680.00 C 799.85 686.47 808.45 694.74 818.98 700.12 C 822.84 701.97 827.06 705.29 831.56 703.62 C 838.86 701.03 845.19 694.74 846.17 686.79 C 848.33 676.09 850.41 665.15 855.37 655.33 C 857.93 653.29 861.46 653.11 864.52 652.20 C 867.49 656.94 870.66 661.54 873.74 666.22 C 876.16 664.56 878.93 663.13 880.51 660.58 C 881.80 651.66 876.70 642.95 879.04 634.07 C 879.87 625.63 888.74 622.31 892.71 615.72 C 894.39 612.58 893.18 608.90 892.96 605.55 Z" />
</g>
</svg>
