<?xml version="1.0" encoding="UTF-8" ?>
<!DOCTYPE svg PUBLIC "-//W3C//DTD SVG 1.1//EN" "http://www.w3.org/Graphics/SVG/1.1/DTD/svg11.dtd">
<svg width="1920pt" height="1080pt" viewBox="0 0 1920 1080" version="1.1" xmlns="http://www.w3.org/2000/svg">
<g id="#002f1ffe">
<path fill="#002f1f" fill-opacity="0" d=" M 873.45 163.36 C 877.15 162.58 880.72 165.32 882.14 168.62 C 884.14 172.69 884.54 177.69 888.04 180.90 C 893.72 186.32 898.01 192.97 903.48 198.58 C 906.15 200.95 905.56 204.88 905.91 208.02 C 904.05 215.94 911.59 219.83 915.06 225.56 C 904.59 229.19 894.68 234.95 887.27 243.29 C 883.14 247.90 878.07 251.57 872.70 254.60 C 866.27 255.40 859.84 256.92 854.49 260.78 C 846.61 255.87 836.93 258.33 828.44 255.98 C 820.81 251.08 812.89 246.63 804.75 242.63 C 814.02 238.11 823.38 233.66 832.10 228.11 C 830.14 223.91 828.14 219.73 826.09 215.57 C 834.67 208.96 835.92 197.25 833.72 187.33 C 833.17 182.01 832.55 176.70 831.75 171.41 C 834.24 173.43 836.97 175.86 840.40 175.69 C 845.99 176.76 849.56 171.73 853.48 168.72 C 857.50 169.87 861.34 171.60 864.77 174.02 C 867.88 170.65 869.98 166.41 873.45 163.36 Z" />
</g>
<g id="#1f4fdffe">
<path fill="#1f4fdf" fill-opacity="0" d=" M 1270.07 191.69 C 1272.76 192.82 1275.34 194.67 1276.65 197.36 C 1276.11 208.61 1271.47 219.07 1269.14 229.97 C 1268.17 238.20 1269.88 246.47 1269.15 254.72 C 1269.78 260.26 1270.59 266.93 1275.68 270.31 C 1284.23 277.01 1294.07 281.84 1303.39 287.36 C 1305.52 279.37 1308.43 271.62 1310.81 263.70 C 1311.95 260.15 1313.04 256.40 1315.55 253.53 C 1318.04 251.05 1322.04 252.23 1325.25 252.27 C 1333.88 253.80 1342.23 256.95 1349.85 261.24 C 1352.83 262.66 1352.19 266.52 1352.71 269.24 C 1353.01 275.38 1357.67 281.12 1355.44 287.34 C 1349.95 300.58 1345.75 314.31 1340.76 327.73 C 1339.23 331.93 1336.59 335.70 1332.44 337.59 C 1327.43 339.75 1327.07 345.69 1324.68 349.89 C 1315.69 356.08 1303.88 354.51 1294.02 351.67 C 1281.65 349.62 1270.16 344.26 1257.82 342.18 C 1249.43 340.66 1241.03 343.13 1232.61 342.74 C 1232.40 342.62 1231.99 342.38 1231.78 342.26 C 1234.95 334.51 1237.11 325.83 1233.50 317.89 C 1231.15 318.58 1228.80 319.49 1226.33 319.48 C 1221.44 316.10 1219.65 309.56 1214.43 306.53 C 1209.02 304.68 1205.22 309.07 1201.68 312.19 C 1197.81 310.92 1191.61 309.56 1192.51 304.17 C 1195.01 289.66 1198.65 275.36 1201.47 260.91 C 1202.48 253.47 1211.02 251.05 1216.05 246.97 C 1219.90 244.20 1221.86 239.61 1225.40 236.49 C 1231.26 234.53 1237.42 233.44 1243.53 232.46 C 1245.41 223.88 1246.65 215.06 1249.85 206.84 C 1251.05 202.71 1255.88 202.67 1259.09 200.77 C 1262.92 197.99 1265.65 193.69 1270.07 191.69 Z" />
</g>
<g id="#5f4fdfff">
<path fill="#5f4fdf" fill-opacity="0" d=" M 778.57 198.22 C 784.07 196.97 791.64 194.93 795.36 200.57 C 798.03 206.15 798.26 212.59 799.46 218.56 C 805.00 216.46 810.26 213.42 814.53 209.27 C 815.43 212.24 816.46 215.17 817.66 218.04 C 820.44 217.21 823.28 216.40 826.09 215.57 C 828.14 219.73 830.14 223.91 832.10 228.11 C 823.38 233.66 814.02 238.11 804.75 242.63 C 812.89 246.63 820.81 251.08 828.44 255.98 C 836.93 258.33 846.61 255.87 854.49 260.78 C 858.25 264.31 861.85 268.02 865.55 271.64 C 861.98 277.01 856.88 282.05 850.34 283.22 C 846.18 283.99 842.05 284.65 837.88 285.22 C 835.76 290.65 833.63 296.16 832.98 302.00 C 831.91 308.16 831.88 315.32 826.88 319.81 C 818.15 327.79 809.44 336.01 798.93 341.62 C 796.71 339.69 794.33 337.96 791.82 336.44 C 790.48 322.13 792.87 307.71 791.13 293.46 C 787.05 287.95 779.75 285.61 774.38 281.59 C 759.00 271.59 743.63 261.57 728.04 251.90 C 721.30 247.93 718.27 240.40 713.53 234.53 C 717.91 234.50 722.65 235.78 726.76 233.77 C 729.26 232.60 729.01 229.45 729.67 227.19 C 730.82 220.43 737.39 214.57 744.52 216.10 C 748.16 217.03 752.04 220.08 755.77 217.83 C 761.13 214.77 760.78 207.22 764.01 202.63 C 767.98 199.15 773.81 199.71 778.57 198.22 Z" />
</g>
<g id="#3faf1fff">
<path fill="#3faf1f" fill-opacity="0" d=" M 937.06 223.79 C 939.53 220.93 943.73 220.36 947.08 218.84 C 951.08 223.03 956.63 226.62 956.99 233.05 C 958.35 239.12 962.53 244.48 961.71 250.97 C 962.40 256.77 960.70 262.92 962.49 268.58 C 967.38 272.87 971.04 278.24 972.50 284.61 C 977.93 287.54 982.64 291.64 988.11 294.50 C 992.02 294.34 995.69 292.20 999.66 292.61 C 1004.48 295.54 1008.13 300.19 1013.51 302.30 C 1017.98 303.16 1023.10 304.53 1027.48 302.48 C 1030.13 299.64 1030.64 295.60 1032.67 292.39 C 1037.73 289.05 1043.71 290.01 1049.38 290.19 C 1055.13 290.39 1059.29 285.16 1064.79 284.60 C 1067.40 285.45 1072.02 286.01 1071.57 289.70 C 1071.31 304.02 1068.18 318.09 1067.38 332.38 C 1060.43 334.99 1053.75 338.25 1046.90 341.09 C 1046.08 328.73 1048.68 316.48 1049.07 304.14 C 1040.16 308.88 1030.36 311.44 1020.95 314.94 C 1016.86 316.67 1012.48 317.16 1008.16 317.86 C 1003.23 318.50 1000.91 323.52 996.97 325.92 C 991.69 329.36 985.03 327.58 979.20 328.46 C 976.40 332.68 977.35 338.72 973.17 342.11 C 964.16 349.78 954.24 357.59 942.02 358.80 C 941.56 353.82 942.16 348.52 939.97 343.90 C 935.96 337.06 930.93 330.88 927.11 323.92 C 920.61 311.01 922.94 294.40 912.72 283.31 C 905.14 277.79 895.53 275.07 889.13 267.89 C 884.49 262.50 878.67 258.39 872.70 254.60 C 878.07 251.57 883.14 247.90 887.27 243.29 C 894.68 234.95 904.59 229.19 915.06 225.56 C 915.05 227.42 915.05 231.15 915.04 233.01 C 921.58 237.18 929.31 238.19 936.87 238.87 C 937.07 233.87 936.06 228.72 937.06 223.79 Z" />
</g>
<g id="#df4fdfff">
<path fill="#df4fdf" fill-opacity="0" d=" M 688.32 226.32 C 693.53 227.48 698.62 229.12 703.85 230.18 C 707.33 230.90 711.12 231.67 713.53 234.53 C 718.27 240.40 721.30 247.93 728.04 251.90 C 743.63 261.57 759.00 271.59 774.38 281.59 C 779.75 285.61 787.05 287.95 791.13 293.46 C 792.87 307.71 790.48 322.13 791.82 336.44 C 787.61 334.56 783.12 336.09 779.30 338.12 C 776.09 334.31 772.78 330.37 771.01 325.65 C 768.93 315.83 771.81 305.84 770.83 295.99 C 769.83 293.45 768.53 289.99 765.37 289.67 C 758.40 289.09 751.92 292.10 745.33 293.74 C 739.16 286.19 734.41 275.26 723.81 273.55 C 719.70 272.48 714.79 272.69 711.82 269.25 C 707.90 265.11 707.81 258.54 703.26 254.89 C 699.10 252.91 693.27 255.03 690.06 251.08 C 687.19 243.16 687.65 234.57 688.32 226.32 Z" />
</g>
<g id="#002f5fff">
<path fill="#002f5f" fill-opacity="0" d=" M 663.40 240.18 C 669.81 232.88 679.45 229.66 688.32 226.32 C 687.65 234.57 687.19 243.16 690.06 251.08 C 693.27 255.03 699.10 252.91 703.26 254.89 C 707.81 258.54 707.90 265.11 711.82 269.25 C 714.79 272.69 719.70 272.48 723.81 273.55 C 734.41 275.26 739.16 286.19 745.33 293.74 C 751.92 292.10 758.40 289.09 765.37 289.67 C 768.53 289.99 769.83 293.45 770.83 295.99 C 771.81 305.84 768.93 315.83 771.01 325.65 C 772.78 330.37 776.09 334.31 779.30 338.12 C 778.01 342.50 775.72 346.45 772.76 349.89 C 769.34 348.90 765.88 347.32 762.26 347.69 C 759.24 348.46 756.61 350.30 753.82 351.59 C 748.32 345.34 741.69 338.44 732.79 338.26 C 728.27 337.89 725.30 341.95 723.32 345.44 C 721.03 349.86 717.92 354.08 716.89 359.03 C 717.63 364.04 720.58 368.40 723.67 372.29 C 723.37 373.16 723.07 374.04 722.79 374.93 C 716.94 374.39 711.11 373.68 705.34 372.61 C 701.08 371.96 696.52 371.39 692.48 373.22 C 687.68 375.63 683.43 381.51 677.57 379.60 C 669.81 377.75 661.79 378.83 654.00 379.86 C 653.11 377.20 652.27 374.12 649.75 372.54 C 646.22 370.92 642.55 369.75 638.82 368.71 C 642.10 362.02 645.22 355.09 650.05 349.36 C 656.28 343.72 664.87 342.24 672.16 338.45 C 671.26 333.84 670.50 329.19 670.10 324.51 C 674.68 324.44 679.26 324.31 683.84 324.42 C 682.74 315.14 677.09 306.08 668.69 301.84 C 662.89 301.85 658.00 305.97 652.28 306.33 C 647.16 304.66 644.86 299.09 641.45 295.37 C 644.81 291.66 648.03 287.82 651.28 284.01 C 655.00 284.55 658.72 285.12 662.45 285.69 C 660.28 274.77 657.34 264.02 654.35 253.30 C 658.82 250.04 661.56 245.32 663.40 240.18 Z" />
</g>
<g id="#bf6f1fff">
<path fill="#bf6f1f" fill-opacity="0" d=" M 854.49 260.78 C 859.84 256.92 866.27 255.40 872.70 254.60 C 878.67 258.39 884.49 262.50 889.13 267.89 C 895.53 275.07 905.14 277.79 912.72 283.31 C 922.94 294.40 920.61 311.01 927.11 323.92 C 930.93 330.88 935.96 337.06 939.97 343.90 C 942.16 348.52 941.56 353.82 942.02 358.80 C 936.28 365.25 928.57 369.44 921.43 374.09 C 918.06 375.90 914.46 377.30 910.76 378.24 C 906.70 372.81 902.62 367.09 896.96 363.22 C 888.78 359.86 880.24 356.13 871.18 356.49 C 866.70 356.36 862.20 356.40 857.73 356.39 C 845.76 355.77 834.27 360.54 823.80 365.89 C 814.25 359.20 807.41 349.50 798.93 341.62 C 809.44 336.01 818.15 327.79 826.88 319.81 C 831.88 315.32 831.91 308.16 832.98 302.00 C 833.63 296.16 835.76 290.65 837.88 285.22 C 842.05 284.65 846.18 283.99 850.34 283.22 C 856.88 282.05 861.98 277.01 865.55 271.64 C 861.85 268.02 858.25 264.31 854.49 260.78 Z" />
</g>
<g id="#7fafdfff">
<path fill="#7fafdf" fill-opacity="0" d=" M 631.90 306.91 C 637.51 305.97 638.58 299.33 641.45 295.37 C 644.86 299.09 647.16 304.66 652.28 306.33 C 658.00 305.97 662.89 301.85 668.69 301.84 C 677.09 306.08 682.74 315.14 683.84 324.42 C 679.26 324.31 674.68 324.44 670.10 324.51 C 670.50 329.19 671.26 333.84 672.16 338.45 C 664.87 342.24 656.28 343.72 650.05 349.36 C 645.22 355.09 642.10 362.02 638.82 368.71 C 628.95 365.39 618.41 366.60 608.23 366.95 C 608.98 372.81 610.73 378.71 610.19 384.66 C 606.65 397.70 594.84 405.01 585.32 413.35 C 576.40 418.73 584.54 430.02 579.33 437.38 C 575.03 443.38 568.56 447.31 563.21 452.29 C 564.30 444.41 570.31 433.65 562.94 427.04 C 554.75 433.03 549.01 442.50 538.99 445.90 C 534.90 447.29 530.44 446.43 526.35 447.66 C 522.13 450.23 518.74 453.93 515.20 457.34 C 510.95 451.27 506.49 445.33 502.94 438.80 C 506.10 436.77 509.23 434.70 512.38 432.66 C 510.22 426.13 506.34 420.27 504.52 413.63 C 503.24 408.87 507.60 405.02 511.49 403.24 C 518.71 398.44 527.43 397.35 535.85 396.70 C 538.62 391.45 540.01 384.60 545.98 382.00 C 553.94 378.54 562.76 377.66 571.33 376.85 C 574.17 367.19 569.50 357.13 571.42 347.40 C 575.75 343.02 581.19 339.82 586.11 336.11 C 590.48 332.17 596.72 332.41 601.61 329.47 C 605.67 326.80 608.12 322.45 610.23 318.21 C 611.99 314.54 611.11 310.38 611.93 306.52 C 613.10 304.13 615.20 302.38 616.92 300.40 C 621.61 303.17 626.11 307.07 631.90 306.91 Z" />
</g>
<g id="#bfaf9fff">
<path fill="#bfaf9f" fill-opacity="0" d=" M 1156.55 307.52 C 1161.76 302.01 1170.36 297.28 1177.96 300.85 C 1186.05 303.94 1185.80 314.84 1193.68 318.37 C 1196.34 316.32 1199.14 314.41 1201.68 312.19 C 1205.22 309.07 1209.02 304.68 1214.43 306.53 C 1219.65 309.56 1221.44 316.10 1226.33 319.48 C 1228.80 319.49 1231.15 318.58 1233.50 317.89 C 1237.11 325.83 1234.95 334.51 1231.78 342.26 C 1224.91 348.23 1217.87 355.87 1208.20 356.26 C 1201.92 356.14 1196.17 352.89 1189.92 352.55 C 1186.73 352.24 1183.23 355.45 1184.35 358.74 C 1186.61 364.84 1191.30 369.85 1193.31 376.09 C 1194.13 380.70 1194.06 385.54 1193.05 390.13 C 1187.64 388.61 1181.67 387.54 1177.48 383.51 C 1172.88 378.99 1172.32 372.14 1168.99 366.86 C 1167.89 365.06 1165.65 363.82 1163.60 364.80 C 1157.47 367.03 1151.74 370.57 1145.20 371.52 C 1147.47 365.16 1148.10 358.35 1146.43 351.75 C 1150.41 341.37 1151.74 330.15 1153.46 319.22 C 1154.16 315.27 1154.25 310.95 1156.55 307.52 Z" />
</g>
<g id="#3faf9fff">
<path fill="#3faf9f" fill-opacity="0" d=" M 1020.95 314.94 C 1030.36 311.44 1040.16 308.88 1049.07 304.14 C 1048.68 316.48 1046.08 328.73 1046.90 341.09 C 1047.14 344.64 1046.88 348.24 1047.54 351.75 C 1049.27 359.51 1053.06 366.76 1053.97 374.72 C 1054.67 386.25 1050.17 398.17 1054.78 409.40 C 1056.94 417.29 1062.21 423.51 1066.48 430.25 C 1066.58 436.41 1066.02 443.69 1060.91 447.89 C 1053.94 452.96 1046.01 456.87 1037.63 458.95 C 1031.37 454.46 1023.77 451.90 1015.99 453.65 C 1006.30 452.12 1000.24 461.83 990.93 461.64 C 980.96 463.59 972.82 456.21 963.24 455.33 C 963.14 457.87 962.94 462.94 962.84 465.47 C 960.94 465.38 959.05 465.27 957.16 465.29 C 957.18 458.51 959.33 450.85 955.27 444.82 C 953.53 441.90 951.81 438.97 950.45 435.85 C 948.18 430.59 944.33 426.19 942.10 420.91 C 940.38 416.93 941.38 412.48 940.46 408.34 C 938.61 397.78 927.61 393.08 922.64 384.34 C 920.74 381.26 921.07 377.52 921.43 374.09 C 928.57 369.44 936.28 365.25 942.02 358.80 C 954.24 357.59 964.16 349.78 973.17 342.11 C 977.35 338.72 976.40 332.68 979.20 328.46 C 985.03 327.58 991.69 329.36 996.97 325.92 C 1000.91 323.52 1003.23 318.50 1008.16 317.86 C 1012.48 317.16 1016.86 316.67 1020.95 314.94 Z" />
</g>
<g id="#1fcfdfff">
<path fill="#1fcfdf" fill-opacity="0" d=" M 1391.17 328.13 C 1393.95 327.18 1396.50 329.08 1398.98 330.09 C 1405.08 333.37 1412.18 333.70 1418.48 336.53 C 1425.21 342.58 1427.86 351.60 1433.62 358.39 C 1436.54 360.97 1440.47 361.87 1444.02 363.31 C 1443.76 365.00 1443.51 366.70 1443.26 368.40 C 1450.23 369.96 1457.98 371.22 1462.66 377.30 C 1465.84 384.20 1466.93 392.16 1464.57 399.51 C 1460.36 409.65 1454.29 418.86 1449.73 428.84 C 1446.89 435.41 1442.75 441.23 1439.25 447.43 C 1435.43 453.71 1436.43 461.55 1433.12 468.03 C 1426.21 482.03 1418.70 495.72 1411.36 509.49 C 1409.42 513.10 1405.10 514.23 1401.60 515.79 C 1409.12 502.49 1415.87 488.76 1423.08 475.30 C 1413.96 472.41 1404.79 469.51 1395.19 468.75 C 1390.12 468.16 1385.34 466.26 1380.35 465.35 C 1376.47 456.74 1371.52 448.63 1368.16 439.78 C 1365.32 432.67 1361.29 426.13 1356.53 420.16 C 1358.97 412.98 1362.16 405.82 1362.28 398.12 C 1362.33 394.10 1359.06 391.16 1356.73 388.28 C 1352.49 383.19 1347.43 378.81 1343.58 373.41 C 1339.49 367.49 1338.38 360.32 1335.77 353.77 C 1341.22 349.46 1347.94 347.36 1353.88 343.87 C 1360.11 340.24 1366.88 337.70 1373.63 335.19 C 1379.54 333.01 1385.02 329.69 1391.17 328.13 Z" />
</g>
<g id="#00af5fff">
<path fill="#00af5f" fill-opacity="0" d=" M 1067.38 332.38 C 1070.32 330.94 1073.35 332.75 1076.09 333.73 C 1082.09 336.71 1088.98 335.03 1095.24 336.94 C 1104.63 340.46 1113.49 331.50 1123.06 333.81 C 1125.97 333.99 1128.81 335.09 1131.11 336.90 C 1136.82 341.13 1142.48 345.75 1146.43 351.75 C 1148.10 358.35 1147.47 365.16 1145.20 371.52 C 1151.74 370.57 1157.47 367.03 1163.60 364.80 C 1165.65 363.82 1167.89 365.06 1168.99 366.86 C 1172.32 372.14 1172.88 378.99 1177.48 383.51 C 1181.67 387.54 1187.64 388.61 1193.05 390.13 C 1187.96 396.21 1181.87 403.01 1173.44 403.71 C 1173.36 401.34 1173.26 398.97 1173.14 396.60 C 1171.25 397.60 1169.37 398.59 1167.51 399.63 C 1169.23 400.99 1170.94 402.37 1172.72 403.68 C 1164.39 404.00 1155.83 402.51 1149.15 397.27 C 1145.51 395.09 1141.48 393.35 1137.15 393.44 C 1131.33 393.05 1126.05 396.10 1120.44 397.07 C 1111.34 399.19 1101.19 397.78 1092.93 402.93 C 1081.88 409.31 1071.34 418.12 1066.48 430.25 C 1062.21 423.51 1056.94 417.29 1054.78 409.40 C 1050.17 398.17 1054.67 386.25 1053.97 374.72 C 1053.06 366.76 1049.27 359.51 1047.54 351.75 C 1046.88 348.24 1047.14 344.64 1046.90 341.09 C 1053.75 338.25 1060.43 334.99 1067.38 332.38 M 1129.81 385.96 C 1129.05 387.66 1128.32 389.37 1127.62 391.10 C 1129.43 390.82 1131.27 390.55 1133.09 390.24 C 1133.04 389.47 1132.94 387.92 1132.90 387.15 C 1131.85 386.75 1130.82 386.35 1129.81 385.96 Z" />
</g>
<g id="#7fef9fff">
<path fill="#7fef9f" fill-opacity="0" d=" M 779.30 338.12 C 783.12 336.09 787.61 334.56 791.82 336.44 C 794.33 337.96 796.71 339.69 798.93 341.62 C 807.41 349.50 814.25 359.20 823.80 365.89 C 831.13 369.79 839.71 369.11 847.65 370.65 C 844.55 379.83 835.27 384.64 831.32 393.26 C 829.98 396.05 828.82 398.93 827.70 401.81 C 826.41 405.18 824.86 408.44 823.41 411.73 C 819.53 410.75 815.53 408.69 811.47 409.70 C 808.00 411.57 805.75 415.17 802.17 416.84 C 792.58 420.09 782.16 420.63 772.97 425.09 C 765.28 430.02 755.45 428.37 748.02 423.87 C 743.44 417.71 743.35 408.22 736.72 403.41 C 728.72 399.14 718.54 398.84 711.91 392.13 C 705.58 385.70 700.47 377.82 692.48 373.22 C 696.52 371.39 701.08 371.96 705.34 372.61 C 711.11 373.68 716.94 374.39 722.79 374.93 C 723.07 374.04 723.37 373.16 723.67 372.29 C 720.58 368.40 717.63 364.04 716.89 359.03 C 717.92 354.08 721.03 349.86 723.32 345.44 C 725.30 341.95 728.27 337.89 732.79 338.26 C 741.69 338.44 748.32 345.34 753.82 351.59 C 756.61 350.30 759.24 348.46 762.26 347.69 C 765.88 347.32 769.34 348.90 772.76 349.89 C 775.72 346.45 778.01 342.50 779.30 338.12 Z" />
</g>
<g id="#006f1fff">
<path fill="#006f1f" fill-opacity="0" d=" M 1232.61 342.74 C 1241.03 343.13 1249.43 340.66 1257.82 342.18 C 1270.16 344.26 1281.65 349.62 1294.02 351.67 C 1303.88 354.51 1315.69 356.08 1324.68 349.89 C 1328.35 351.20 1332.04 352.58 1335.77 353.77 C 1338.38 360.32 1339.49 367.49 1343.58 373.41 C 1347.43 378.81 1352.49 383.19 1356.73 388.28 C 1359.06 391.16 1362.33 394.10 1362.28 398.12 C 1362.16 405.82 1358.97 412.98 1356.53 420.16 C 1361.29 426.13 1365.32 432.67 1368.16 439.78 C 1371.52 448.63 1376.47 456.74 1380.35 465.35 C 1366.15 465.96 1354.31 455.09 1340.07 457.30 C 1327.86 459.93 1316.58 466.37 1303.94 467.08 C 1301.48 467.50 1299.07 466.65 1296.91 465.58 C 1291.84 459.52 1287.64 452.43 1281.07 447.86 C 1276.27 444.61 1270.24 445.98 1264.89 444.78 C 1260.05 443.57 1256.49 437.99 1251.17 439.27 C 1248.03 439.80 1244.81 440.46 1241.75 441.07 C 1243.36 435.02 1245.64 429.10 1246.26 422.84 C 1246.94 418.44 1245.66 414.10 1243.84 410.13 C 1241.43 404.74 1240.41 398.90 1239.49 393.11 C 1242.91 393.60 1246.34 394.09 1249.80 394.34 C 1247.39 386.79 1243.59 379.82 1239.87 372.86 C 1243.35 370.39 1246.87 367.98 1250.40 365.57 C 1249.19 360.81 1249.21 355.21 1245.37 351.69 C 1241.36 348.36 1236.96 345.57 1232.61 342.74 Z" />
</g>
<g id="#bf6f9fff">
<path fill="#bf6f9f" fill-opacity="0" d=" M 1208.20 356.26 C 1217.87 355.87 1224.91 348.23 1231.78 342.26 C 1231.99 342.38 1232.40 342.62 1232.61 342.74 C 1236.96 345.57 1241.36 348.36 1245.37 351.69 C 1249.21 355.21 1249.19 360.81 1250.40 365.57 C 1246.87 367.98 1243.35 370.39 1239.87 372.86 C 1243.59 379.82 1247.39 386.79 1249.80 394.34 C 1246.34 394.09 1242.91 393.60 1239.49 393.11 C 1240.41 398.90 1241.43 404.74 1243.84 410.13 C 1245.66 414.10 1246.94 418.44 1246.26 422.84 C 1238.59 428.83 1229.93 434.46 1225.82 443.71 C 1221.97 451.24 1215.40 456.60 1209.96 462.86 C 1201.91 461.31 1195.80 454.74 1187.45 454.17 C 1183.56 453.32 1179.37 453.77 1175.70 452.08 C 1171.62 449.51 1168.89 445.17 1164.70 442.80 C 1158.58 441.38 1152.76 446.32 1146.65 444.34 C 1141.59 441.74 1141.19 435.72 1141.09 430.67 C 1142.19 422.62 1145.45 415.13 1148.74 407.79 C 1150.31 404.46 1149.57 400.76 1149.15 397.27 C 1155.83 402.51 1164.39 404.00 1172.72 403.68 L 1173.44 403.71 C 1181.87 403.01 1187.96 396.21 1193.05 390.13 C 1194.06 385.54 1194.13 380.70 1193.31 376.09 C 1191.30 369.85 1186.61 364.84 1184.35 358.74 C 1183.23 355.45 1186.73 352.24 1189.92 352.55 C 1196.17 352.89 1201.92 356.14 1208.20 356.26 Z" />
</g>
<g id="#3fef9fff">
<path fill="#3fef9f" fill-opacity="0" d=" M 823.80 365.89 C 834.27 360.54 845.76 355.77 857.73 356.39 C 862.20 356.40 866.70 356.36 871.18 356.49 C 880.24 356.13 888.78 359.86 896.96 363.22 C 902.62 367.09 906.70 372.81 910.76 378.24 C 905.17 378.46 899.70 377.09 894.18 376.48 C 897.50 379.94 900.96 383.28 904.62 386.41 C 904.58 387.90 904.57 389.39 904.58 390.89 C 893.61 394.29 881.69 392.98 871.18 398.12 C 865.13 400.98 857.66 402.82 853.96 408.90 C 852.15 411.15 850.58 414.59 847.32 414.77 C 841.68 411.06 838.32 404.92 833.98 399.90 C 831.88 400.53 829.79 401.18 827.70 401.81 C 828.82 398.93 829.98 396.05 831.32 393.26 C 835.27 384.64 844.55 379.83 847.65 370.65 C 839.71 369.11 831.13 369.79 823.80 365.89 Z" />
</g>
<g id="#bfef9fff">
<path fill="#bfef9f" fill-opacity="0" d=" M 608.23 366.95 C 618.41 366.60 628.95 365.39 638.82 368.71 C 642.55 369.75 646.22 370.92 649.75 372.54 C 652.27 374.12 653.11 377.20 654.00 379.86 C 655.15 397.09 653.79 414.44 656.01 431.63 C 653.30 445.61 639.07 451.69 629.86 460.94 C 625.94 464.37 628.24 470.01 628.65 474.26 C 629.78 481.74 623.96 488.28 617.86 491.75 C 612.66 493.13 607.06 492.95 601.90 491.52 C 591.84 486.74 582.66 480.07 575.35 471.63 C 570.32 465.98 564.03 460.26 563.21 452.29 C 568.56 447.31 575.03 443.38 579.33 437.38 C 584.54 430.02 576.40 418.73 585.32 413.35 C 594.84 405.01 606.65 397.70 610.19 384.66 C 610.73 378.71 608.98 372.81 608.23 366.95 Z" />
</g>
<g id="#bfaf1fff">
<path fill="#bfaf1f" fill-opacity="0" d=" M 677.57 379.60 C 683.43 381.51 687.68 375.63 692.48 373.22 C 700.47 377.82 705.58 385.70 711.91 392.13 C 718.54 398.84 728.72 399.14 736.72 403.41 C 743.35 408.22 743.44 417.71 748.02 423.87 C 755.45 428.37 765.28 430.02 772.97 425.09 C 777.38 428.37 781.70 431.78 785.89 435.36 C 781.52 444.76 783.80 455.87 790.28 463.72 C 797.99 472.57 796.65 485.09 798.59 495.91 C 792.71 496.86 788.20 501.11 783.75 504.75 C 778.58 508.89 775.67 515.65 769.23 518.19 C 764.57 519.66 759.60 521.37 756.73 525.63 C 751.99 532.33 746.06 538.43 738.02 541.02 C 733.93 543.24 728.72 541.06 724.90 543.83 C 719.40 551.61 717.11 561.14 712.20 569.28 C 710.11 572.58 706.40 574.36 702.87 575.70 C 695.85 552.86 689.35 529.81 680.52 507.57 C 672.23 482.30 664.31 456.90 656.01 431.63 C 653.79 414.44 655.15 397.09 654.00 379.86 C 661.79 378.83 669.81 377.75 677.57 379.60 Z" />
</g>
<g id="#3f6f1fff">
<path fill="#3f6f1f" fill-opacity="0" d=" M 910.76 378.24 C 914.46 377.30 918.06 375.90 921.43 374.09 C 921.07 377.52 920.74 381.26 922.64 384.34 C 927.61 393.08 938.61 397.78 940.46 408.34 C 941.38 412.48 940.38 416.93 942.10 420.91 C 944.33 426.19 948.18 430.59 950.45 435.85 C 951.81 438.97 953.53 441.90 955.27 444.82 C 959.33 450.85 957.18 458.51 957.16 465.29 C 949.31 465.47 942.21 469.37 934.90 471.76 C 928.99 473.69 924.70 478.66 918.80 480.60 C 916.08 481.52 913.27 482.16 910.44 482.66 L 909.67 482.67 C 899.80 483.13 889.88 483.18 880.07 484.39 C 871.74 486.05 863.16 486.72 854.70 485.93 C 851.81 485.66 848.88 484.78 846.00 485.40 C 835.76 488.18 827.18 495.09 816.80 497.45 C 810.63 498.97 804.67 496.45 798.59 495.91 C 796.65 485.09 797.99 472.57 790.28 463.72 C 783.80 455.87 781.52 444.76 785.89 435.36 C 781.70 431.78 777.38 428.37 772.97 425.09 C 782.16 420.63 792.58 420.09 802.17 416.84 C 805.75 415.17 808.00 411.57 811.47 409.70 C 815.53 408.69 819.53 410.75 823.41 411.73 C 824.86 408.44 826.41 405.18 827.70 401.81 C 829.79 401.18 831.88 400.53 833.98 399.90 C 838.32 404.92 841.68 411.06 847.32 414.77 C 850.58 414.59 852.15 411.15 853.96 408.90 C 857.66 402.82 865.13 400.98 871.18 398.12 C 881.69 392.98 893.61 394.29 904.58 390.89 C 904.57 389.39 904.58 387.90 904.62 386.41 C 900.96 383.28 897.50 379.94 894.18 376.48 C 899.70 377.09 905.17 378.46 910.76 378.24 Z" />
</g>
<g id="#7f2f5fff">
<path fill="#7f2f5f" fill-opacity="0" d=" M 1129.81 385.96 C 1130.82 386.35 1131.85 386.75 1132.90 387.15 C 1132.94 387.92 1133.04 389.47 1133.09 390.24 C 1131.27 390.55 1129.43 390.82 1127.62 391.10 C 1128.32 389.37 1129.05 387.66 1129.81 385.96 Z" />
</g>
<g id="#006f9fff">
<path fill="#006f9f" fill-opacity="0" d=" M 1120.44 397.07 C 1126.05 396.10 1131.33 393.05 1137.15 393.44 C 1141.48 393.35 1145.51 395.09 1149.15 397.27 C 1149.57 400.76 1150.31 404.46 1148.74 407.79 C 1145.45 415.13 1142.19 422.62 1141.09 430.67 C 1131.57 438.07 1121.28 445.37 1115.83 456.52 C 1113.82 462.42 1113.74 469.38 1109.24 474.19 C 1103.10 480.88 1097.28 487.84 1091.74 495.03 C 1094.95 498.86 1099.03 502.02 1101.60 506.36 C 1100.79 509.67 1098.18 512.08 1096.32 514.82 C 1091.82 521.93 1092.66 532.07 1085.56 537.54 C 1078.51 542.05 1070.16 544.15 1061.90 544.95 C 1060.42 540.92 1058.30 536.81 1058.67 532.41 C 1059.99 526.40 1064.74 522.02 1068.35 517.32 C 1064.65 514.99 1060.73 511.47 1056.01 512.88 C 1049.12 513.40 1041.71 519.35 1035.37 514.70 C 1030.12 511.08 1032.90 503.57 1030.82 498.55 C 1028.77 495.84 1025.20 494.95 1022.11 493.94 C 1017.47 492.28 1012.66 491.31 1007.78 490.82 C 1003.24 490.40 1002.12 484.87 1001.75 481.16 C 1002.65 473.53 1009.89 468.74 1015.33 464.32 C 1021.78 459.41 1030.22 460.92 1037.63 458.95 C 1046.01 456.87 1053.94 452.96 1060.91 447.89 C 1066.02 443.69 1066.58 436.41 1066.48 430.25 C 1071.34 418.12 1081.88 409.31 1092.93 402.93 C 1101.19 397.78 1111.34 399.19 1120.44 397.07 M 1086.15 422.06 C 1085.71 423.35 1085.28 424.65 1084.87 425.96 C 1086.61 425.96 1088.36 425.96 1090.13 425.96 C 1089.69 424.65 1089.26 423.35 1088.85 422.06 C 1088.18 422.06 1086.82 422.06 1086.15 422.06 Z" />
</g>
<g id="#00ef1fff">
<path fill="#00ef1f" fill-opacity="0" d=" M 1167.51 399.63 C 1169.37 398.59 1171.25 397.60 1173.14 396.60 C 1173.26 398.97 1173.36 401.34 1173.44 403.71 L 1172.72 403.68 C 1170.94 402.37 1169.23 400.99 1167.51 399.63 Z" />
</g>
<g id="#7fef20ff">
<path fill="#7fef20" fill-opacity="0" d=" M 1086.15 422.06 C 1086.82 422.06 1088.18 422.06 1088.85 422.06 C 1089.26 423.35 1089.69 424.65 1090.13 425.96 C 1088.36 425.96 1086.61 425.96 1084.87 425.96 C 1085.28 424.65 1085.71 423.35 1086.15 422.06 Z" />
</g>
<g id="#3fef1fff">
<path fill="#3fef1f" fill-opacity="0" d=" M 1225.82 443.71 C 1229.93 434.46 1238.59 428.83 1246.26 422.84 C 1245.64 429.10 1243.36 435.02 1241.75 441.07 C 1244.81 440.46 1248.03 439.80 1251.17 439.27 C 1256.49 437.99 1260.05 443.57 1264.89 444.78 C 1270.24 445.98 1276.27 444.61 1281.07 447.86 C 1287.64 452.43 1291.84 459.52 1296.91 465.58 C 1298.14 468.85 1298.09 472.43 1297.62 475.85 C 1295.55 488.15 1292.07 500.17 1287.88 511.91 C 1286.84 514.39 1287.28 517.12 1288.19 519.57 C 1290.25 526.84 1295.00 534.81 1291.29 542.33 C 1285.61 552.01 1275.15 557.74 1269.50 567.46 C 1266.10 573.39 1262.61 579.30 1259.43 585.36 C 1254.81 580.06 1250.79 573.94 1244.64 570.25 C 1237.03 565.35 1227.11 564.15 1221.20 556.78 C 1218.87 554.67 1216.05 550.43 1212.43 552.47 C 1206.34 555.92 1201.02 560.97 1194.03 562.62 C 1202.33 550.76 1199.96 535.87 1200.95 522.29 C 1201.43 516.83 1204.57 512.06 1205.44 506.69 C 1206.04 498.97 1196.23 494.05 1198.16 486.19 C 1200.76 477.84 1205.71 470.44 1209.96 462.86 C 1215.40 456.60 1221.97 451.24 1225.82 443.71 Z" />
</g>
<g id="#dfcf5fff">
<path fill="#dfcf5f" fill-opacity="0" d=" M 538.99 445.90 C 549.01 442.50 554.75 433.03 562.94 427.04 C 570.31 433.65 564.30 444.41 563.21 452.29 C 564.03 460.26 570.32 465.98 575.35 471.63 C 582.66 480.07 591.84 486.74 601.90 491.52 C 599.25 499.17 593.71 507.52 598.79 515.42 C 602.69 521.58 603.04 529.80 598.80 535.87 C 590.44 537.98 583.75 543.94 575.62 546.61 C 571.43 547.92 567.05 547.30 562.94 546.16 C 556.84 544.50 550.45 544.68 544.19 544.76 C 541.28 540.76 539.46 534.97 534.55 533.12 C 530.84 535.48 528.37 541.18 523.37 540.61 C 513.56 536.65 504.82 530.44 495.12 526.18 C 494.94 526.77 494.58 527.96 494.40 528.55 C 493.79 530.52 493.21 532.49 492.65 534.48 C 481.69 534.68 472.29 543.01 469.23 553.29 C 466.05 551.37 461.90 550.53 460.26 546.82 C 454.67 538.85 450.41 530.05 445.12 521.88 C 442.55 517.35 438.37 513.09 439.49 507.36 C 440.91 499.60 442.83 491.65 446.90 484.82 C 451.14 480.72 457.98 482.87 462.94 479.99 C 472.35 475.69 477.01 466.29 482.56 458.24 C 489.26 451.68 495.56 444.64 502.94 438.80 C 506.49 445.33 510.95 451.27 515.20 457.34 C 518.74 453.93 522.13 450.23 526.35 447.66 C 530.44 446.43 534.90 447.29 538.99 445.90 Z" />
</g>
<g id="#7f2fdfff">
<path fill="#7f2fdf" fill-opacity="0" d=" M 1115.83 456.52 C 1121.28 445.37 1131.57 438.07 1141.09 430.67 C 1141.19 435.72 1141.59 441.74 1146.65 444.34 C 1152.76 446.32 1158.58 441.38 1164.70 442.80 C 1168.89 445.17 1171.62 449.51 1175.70 452.08 C 1179.37 453.77 1183.56 453.32 1187.45 454.17 C 1195.80 454.74 1201.91 461.31 1209.96 462.86 C 1205.71 470.44 1200.76 477.84 1198.16 486.19 C 1196.23 494.05 1206.04 498.97 1205.44 506.69 C 1204.57 512.06 1201.43 516.83 1200.95 522.29 C 1199.96 535.87 1202.33 550.76 1194.03 562.62 C 1188.75 565.26 1182.94 572.32 1176.64 568.38 C 1169.85 564.28 1169.85 555.74 1167.73 549.00 C 1165.84 545.24 1162.25 540.76 1157.56 541.37 C 1150.58 541.52 1144.13 544.51 1137.31 545.52 C 1131.06 546.02 1125.31 542.21 1121.57 537.47 C 1114.70 528.56 1107.45 518.57 1096.32 514.82 C 1098.18 512.08 1100.79 509.67 1101.60 506.36 C 1099.03 502.02 1094.95 498.86 1091.74 495.03 C 1097.28 487.84 1103.10 480.88 1109.24 474.19 C 1113.74 469.38 1113.82 462.42 1115.83 456.52 M 1136.00 501.00 C 1136.00 501.75 1136.00 503.25 1136.00 504.00 C 1136.75 504.00 1138.25 504.00 1139.00 504.00 C 1139.00 503.25 1139.00 501.75 1139.00 501.00 C 1138.25 501.00 1136.75 501.00 1136.00 501.00 Z" />
</g>
<g id="#bf2f1fff">
<path fill="#bf2f1f" fill-opacity="0" d=" M 629.86 460.94 C 639.07 451.69 653.30 445.61 656.01 431.63 C 664.31 456.90 672.23 482.30 680.52 507.57 C 689.35 529.81 695.85 552.86 702.87 575.70 C 695.21 576.38 687.63 569.36 680.31 573.28 C 671.41 577.73 662.22 583.42 651.80 582.33 C 645.90 581.09 640.62 577.90 634.98 575.88 C 632.96 586.06 631.16 596.29 628.16 606.24 C 623.52 596.81 620.29 586.76 615.56 577.37 C 613.97 573.71 611.00 570.40 610.68 566.34 C 613.37 560.55 618.82 556.29 620.87 550.12 C 621.50 548.42 620.29 546.42 618.70 545.76 C 614.27 543.98 609.31 544.10 604.96 542.10 C 602.42 540.58 600.69 538.08 598.80 535.87 C 603.04 529.80 602.69 521.58 598.79 515.42 C 593.71 507.52 599.25 499.17 601.90 491.52 C 607.06 492.95 612.66 493.13 617.86 491.75 C 623.96 488.28 629.78 481.74 628.65 474.26 C 628.24 470.01 625.94 464.37 629.86 460.94 Z" />
</g>
<g id="#7faf9fff">
<path fill="#7faf9f" fill-opacity="0" d=" M 1015.99 453.65 C 1023.77 451.90 1031.37 454.46 1037.63 458.95 C 1030.22 460.92 1021.78 459.41 1015.33 464.32 C 1009.89 468.74 1002.65 473.53 1001.75 481.16 C 1002.12 484.87 1003.24 490.40 1007.78 490.82 C 1012.66 491.31 1017.47 492.28 1022.11 493.94 C 1013.80 506.48 996.93 505.80 986.18 515.14 C 979.36 520.12 975.26 527.74 970.36 534.44 C 965.90 540.19 962.82 546.81 958.63 552.72 C 955.27 557.47 949.20 558.86 943.72 559.02 C 935.07 557.50 926.12 560.75 917.69 557.96 C 915.20 556.02 912.92 553.73 910.06 552.36 C 902.68 551.18 894.23 556.16 887.43 551.65 C 879.11 546.64 869.82 540.26 867.90 529.99 C 866.53 524.86 869.14 519.81 868.85 514.72 C 865.65 509.02 859.00 505.84 856.08 499.90 C 854.05 495.53 854.88 490.59 854.70 485.93 C 863.16 486.72 871.74 486.05 880.07 484.39 C 889.88 483.18 899.80 483.13 909.67 482.67 C 909.22 484.39 908.78 486.12 908.35 487.85 C 910.13 487.15 911.89 486.43 913.67 485.71 C 912.60 484.68 911.53 483.64 910.44 482.66 C 913.27 482.16 916.08 481.52 918.80 480.60 C 924.70 478.66 928.99 473.69 934.90 471.76 C 942.21 469.37 949.31 465.47 957.16 465.29 C 959.05 465.27 960.94 465.38 962.84 465.47 C 962.94 462.94 963.14 457.87 963.24 455.33 C 972.82 456.21 980.96 463.59 990.93 461.64 C 1000.24 461.83 1006.30 452.12 1015.99 453.65 Z" />
</g>
<g id="#7f6f1fff">
<path fill="#7f6f1f" fill-opacity="0" d=" M 1303.94 467.08 C 1316.58 466.37 1327.86 459.93 1340.07 457.30 C 1354.31 455.09 1366.15 465.96 1380.35 465.35 C 1385.34 466.26 1390.12 468.16 1395.19 468.75 C 1404.79 469.51 1413.96 472.41 1423.08 475.30 C 1415.87 488.76 1409.12 502.49 1401.60 515.79 C 1394.76 520.53 1386.42 523.38 1380.75 529.69 C 1377.48 534.01 1375.69 539.23 1372.95 543.88 C 1370.10 549.45 1365.29 553.73 1360.25 557.29 C 1355.17 560.39 1349.14 558.76 1343.57 559.00 C 1337.04 551.87 1326.76 551.27 1317.99 548.80 C 1319.60 544.15 1321.29 539.54 1323.00 534.93 C 1317.27 534.66 1311.38 534.99 1305.93 532.84 C 1299.06 529.89 1293.24 524.99 1288.19 519.57 C 1287.28 517.12 1286.84 514.39 1287.88 511.91 C 1292.07 500.17 1295.55 488.15 1297.62 475.85 C 1298.09 472.43 1298.14 468.85 1296.91 465.58 C 1299.07 466.65 1301.48 467.50 1303.94 467.08 Z" />
</g>
<g id="#00af9ffe">
<path fill="#00af9f" fill-opacity="0" d=" M 909.67 482.67 L 910.44 482.66 C 911.53 483.64 912.60 484.68 913.67 485.71 C 911.89 486.43 910.13 487.15 908.35 487.85 C 908.78 486.12 909.22 484.39 909.67 482.67 Z" />
</g>
<g id="#9fcfdfff">
<path fill="#9fcfdf" fill-opacity="0" d=" M 846.00 485.40 C 848.88 484.78 851.81 485.66 854.70 485.93 C 854.88 490.59 854.05 495.53 856.08 499.90 C 859.00 505.84 865.65 509.02 868.85 514.72 C 869.14 519.81 866.53 524.86 867.90 529.99 C 869.82 540.26 879.11 546.64 887.43 551.65 C 894.23 556.16 902.68 551.18 910.06 552.36 C 912.92 553.73 915.20 556.02 917.69 557.96 C 918.62 560.77 918.43 564.05 916.41 566.37 C 910.82 573.90 901.21 575.02 893.19 578.55 C 896.35 587.43 898.86 596.93 906.07 603.54 C 899.44 607.85 891.18 606.35 883.82 607.94 C 875.03 609.77 865.75 609.69 857.45 613.43 C 852.96 615.28 848.58 617.31 844.07 619.07 C 839.86 613.92 834.78 609.43 831.55 603.55 C 825.77 593.56 819.55 582.65 808.93 577.15 C 803.17 574.19 797.16 571.74 791.43 568.73 C 786.14 566.45 779.92 564.06 777.69 558.23 C 771.05 545.61 778.35 529.86 769.23 518.19 C 775.67 515.65 778.58 508.89 783.75 504.75 C 788.20 501.11 792.71 496.86 798.59 495.91 C 804.67 496.45 810.63 498.97 816.80 497.45 C 827.18 495.09 835.76 488.18 846.00 485.40 Z" />
</g>
<g id="#7f6f9ffe">
<path fill="#7f6f9f" fill-opacity="0" d=" M 1022.11 493.94 C 1025.20 494.95 1028.77 495.84 1030.82 498.55 C 1032.90 503.57 1030.12 511.08 1035.37 514.70 C 1041.71 519.35 1049.12 513.40 1056.01 512.88 C 1060.73 511.47 1064.65 514.99 1068.35 517.32 C 1064.74 522.02 1059.99 526.40 1058.67 532.41 C 1058.30 536.81 1060.42 540.92 1061.90 544.95 C 1055.14 545.23 1048.38 546.90 1042.56 550.42 C 1036.90 553.94 1030.46 557.07 1027.30 563.29 C 1024.03 567.23 1026.18 575.10 1031.69 575.48 C 1040.41 576.29 1050.48 571.54 1057.96 578.07 C 1061.63 580.31 1061.81 584.88 1062.44 588.66 C 1048.29 586.93 1036.46 596.32 1025.10 603.22 C 1016.13 608.00 1004.58 612.79 995.04 606.92 C 985.13 602.98 977.34 595.07 971.82 586.12 C 964.93 574.92 955.48 565.09 943.72 559.02 C 949.20 558.86 955.27 557.47 958.63 552.72 C 962.82 546.81 965.90 540.19 970.36 534.44 C 975.26 527.74 979.36 520.12 986.18 515.14 C 996.93 505.80 1013.80 506.48 1022.11 493.94 Z" />
</g>
<g id="#002fdfff">
<path fill="#002fdf" fill-opacity="0" d=" M 1136.00 501.00 C 1136.75 501.00 1138.25 501.00 1139.00 501.00 C 1139.00 501.75 1139.00 503.25 1139.00 504.00 C 1138.25 504.00 1136.75 504.00 1136.00 504.00 C 1136.00 503.25 1136.00 501.75 1136.00 501.00 Z" />
</g>
<g id="#5fcf5fff">
<path fill="#5fcf5f" fill-opacity="0" d=" M 1096.32 514.82 C 1107.45 518.57 1114.70 528.56 1121.57 537.47 C 1125.31 542.21 1131.06 546.02 1137.31 545.52 C 1144.13 544.51 1150.58 541.52 1157.56 541.37 C 1162.25 540.76 1165.84 545.24 1167.73 549.00 C 1169.85 555.74 1169.85 564.28 1176.64 568.38 C 1182.94 572.32 1188.75 565.26 1194.03 562.62 C 1201.02 560.97 1206.34 555.92 1212.43 552.47 C 1216.05 550.43 1218.87 554.67 1221.20 556.78 C 1227.11 564.15 1237.03 565.35 1244.64 570.25 C 1250.79 573.94 1254.81 580.06 1259.43 585.36 C 1257.50 591.55 1253.92 597.02 1251.57 603.01 C 1250.69 610.69 1252.23 618.63 1249.32 626.05 C 1235.23 631.57 1225.46 643.51 1212.89 651.38 C 1206.89 644.77 1201.10 637.67 1193.03 633.46 C 1186.78 638.75 1181.82 647.27 1173.12 648.65 C 1164.28 644.32 1160.58 632.95 1150.69 630.15 C 1145.32 628.05 1140.64 632.32 1136.23 634.68 C 1132.70 636.90 1128.55 638.00 1124.40 637.58 C 1105.95 635.66 1086.53 630.56 1073.09 616.92 C 1064.99 610.00 1063.69 598.52 1062.44 588.66 C 1061.81 584.88 1061.63 580.31 1057.96 578.07 C 1050.48 571.54 1040.41 576.29 1031.69 575.48 C 1026.18 575.10 1024.03 567.23 1027.30 563.29 C 1030.46 557.07 1036.90 553.94 1042.56 550.42 C 1048.38 546.90 1055.14 545.23 1061.90 544.95 C 1070.16 544.15 1078.51 542.05 1085.56 537.54 C 1092.66 532.07 1091.82 521.93 1096.32 514.82 M 1180.87 605.28 C 1180.92 606.21 1181.01 608.08 1181.06 609.01 C 1182.37 609.70 1183.69 610.37 1185.03 611.07 C 1185.86 610.62 1186.70 610.19 1187.56 609.76 C 1187.70 608.28 1187.84 606.78 1188.03 605.31 C 1185.64 605.13 1183.25 605.14 1180.87 605.28 Z" />
</g>
<g id="#bfef1fff">
<path fill="#bfef1f" fill-opacity="0" d=" M 756.73 525.63 C 759.60 521.37 764.57 519.66 769.23 518.19 C 778.35 529.86 771.05 545.61 777.69 558.23 C 779.92 564.06 786.14 566.45 791.43 568.73 C 791.46 570.64 792.81 573.22 790.99 574.65 C 786.25 578.62 779.68 578.56 774.39 581.41 C 769.70 583.58 765.68 587.43 760.41 588.18 C 755.12 589.71 749.89 588.04 745.05 586.06 C 741.46 597.73 738.54 609.62 737.38 621.81 C 736.53 627.92 733.73 634.70 737.46 640.37 C 743.48 643.90 752.21 642.19 756.64 648.45 C 759.46 651.72 758.06 656.24 757.60 660.06 C 762.07 663.99 769.30 667.24 769.09 674.17 C 768.15 681.56 763.65 688.36 765.06 696.09 C 766.61 705.34 769.32 714.41 772.43 723.26 C 764.11 720.10 755.54 725.77 747.02 723.88 C 743.65 723.42 739.09 723.04 737.96 719.13 C 733.66 708.26 730.95 696.82 727.09 685.80 C 723.03 677.24 720.16 668.18 716.14 659.61 C 710.57 651.84 703.70 644.81 695.54 639.77 C 692.12 643.00 688.66 646.20 685.18 649.37 C 684.23 647.22 683.31 645.06 682.43 642.90 C 676.45 645.66 672.98 651.20 669.51 656.46 C 663.30 658.70 656.25 658.54 649.73 659.95 C 651.40 664.25 653.27 668.47 654.96 672.77 C 654.05 673.15 653.15 673.54 652.25 673.94 C 650.33 664.77 645.22 656.72 642.10 647.96 C 638.90 638.94 633.04 630.76 632.36 620.98 C 631.71 615.89 630.13 610.97 628.16 606.24 C 631.16 596.29 632.96 586.06 634.98 575.88 C 640.62 577.90 645.90 581.09 651.80 582.33 C 662.22 583.42 671.41 577.73 680.31 573.28 C 687.63 569.36 695.21 576.38 702.87 575.70 C 706.40 574.36 710.11 572.58 712.20 569.28 C 717.11 561.14 719.40 551.61 724.90 543.83 C 728.72 541.06 733.93 543.24 738.02 541.02 C 746.06 538.43 751.99 532.33 756.73 525.63 Z" />
</g>
<g id="#dfcfdfff">
<path fill="#dfcfdf" fill-opacity="0" d=" M 1288.19 519.57 C 1293.24 524.99 1299.06 529.89 1305.93 532.84 C 1311.38 534.99 1317.27 534.66 1323.00 534.93 C 1321.29 539.54 1319.60 544.15 1317.99 548.80 C 1326.76 551.27 1337.04 551.87 1343.57 559.00 C 1350.15 566.45 1360.88 568.11 1367.58 575.42 C 1372.91 580.23 1376.78 586.29 1380.95 592.08 C 1383.11 595.66 1387.70 595.74 1391.32 596.74 C 1380.46 603.60 1372.26 614.42 1360.16 619.32 C 1348.49 624.47 1339.05 633.81 1326.84 637.82 C 1321.37 639.44 1315.56 639.10 1309.95 639.44 C 1302.68 639.43 1295.30 641.64 1289.51 646.08 C 1283.74 650.78 1278.63 656.31 1272.41 660.44 C 1269.90 662.06 1266.63 663.30 1263.71 662.11 C 1256.73 658.16 1252.06 651.26 1248.91 644.06 C 1246.44 638.30 1247.51 631.82 1249.32 626.05 C 1252.23 618.63 1250.69 610.69 1251.57 603.01 C 1253.92 597.02 1257.50 591.55 1259.43 585.36 C 1262.61 579.30 1266.10 573.39 1269.50 567.46 C 1275.15 557.74 1285.61 552.01 1291.29 542.33 C 1295.00 534.81 1290.25 526.84 1288.19 519.57 M 1306.83 614.86 C 1307.17 616.28 1307.55 617.72 1307.91 619.17 C 1309.31 618.15 1310.73 617.14 1312.14 616.12 C 1310.36 615.68 1308.59 615.25 1306.83 614.86 Z" />
</g>
<g id="#002f9fff">
<path fill="#002f9f" fill-opacity="0" d=" M 495.12 526.18 C 504.82 530.44 513.56 536.65 523.37 540.61 C 528.37 541.18 530.84 535.48 534.55 533.12 C 539.46 534.97 541.28 540.76 544.19 544.76 C 546.26 548.28 548.73 551.96 548.56 556.22 C 548.41 562.92 543.92 568.41 542.55 574.80 C 542.15 578.97 543.97 582.91 545.91 586.47 C 549.80 583.06 553.61 578.50 559.09 577.94 C 565.23 579.34 570.06 583.94 571.32 590.20 C 565.51 595.08 560.00 600.35 553.78 604.72 C 544.02 611.26 538.99 622.58 529.91 629.89 C 526.42 633.57 521.49 635.35 517.84 638.77 C 515.73 645.00 512.97 651.69 514.72 658.37 C 517.55 664.70 522.13 670.07 525.48 676.13 C 522.84 676.36 519.93 676.92 517.52 675.49 C 514.62 673.66 512.80 670.69 510.81 668.01 C 508.39 669.35 505.98 670.70 503.57 672.06 C 496.19 659.66 488.84 647.20 480.49 635.44 C 473.19 628.41 462.26 628.14 452.75 629.11 C 452.10 621.33 450.78 613.59 448.58 606.09 C 445.99 597.37 441.68 588.43 444.09 579.11 C 448.71 577.28 453.93 578.49 458.74 578.94 C 465.26 580.17 471.88 579.19 478.34 578.10 C 474.50 571.55 470.83 564.91 467.18 558.26 C 467.85 556.59 468.52 554.93 469.23 553.29 C 472.29 543.01 481.69 534.68 492.65 534.48 C 493.70 534.36 494.75 534.26 495.81 534.16 C 495.34 532.29 494.87 530.41 494.40 528.55 C 494.58 527.96 494.94 526.77 495.12 526.18 Z" />
</g>
<g id="#3f6f9fff">
<path fill="#3f6f9f" fill-opacity="0" d=" M 575.62 546.61 C 583.75 543.94 590.44 537.98 598.80 535.87 C 600.69 538.08 602.42 540.58 604.96 542.10 C 609.31 544.10 614.27 543.98 618.70 545.76 C 620.29 546.42 621.50 548.42 620.87 550.12 C 618.82 556.29 613.37 560.55 610.68 566.34 C 611.00 570.40 613.97 573.71 615.56 577.37 C 620.29 586.76 623.52 596.81 628.16 606.24 C 630.13 610.97 631.71 615.89 632.36 620.98 C 633.04 630.76 638.90 638.94 642.10 647.96 C 645.22 656.72 650.33 664.77 652.25 673.94 C 650.95 680.70 646.11 685.85 640.85 689.89 C 637.20 692.56 636.69 697.65 638.46 701.56 C 641.15 707.60 644.39 713.39 646.50 719.70 C 642.96 719.60 639.23 718.76 635.81 719.95 C 633.32 721.85 632.21 725.04 630.30 727.46 C 626.92 732.71 621.77 736.74 618.98 742.36 C 617.75 750.97 618.77 759.75 618.05 768.41 C 614.79 766.90 611.70 765.00 608.62 763.19 C 605.42 763.28 602.32 763.56 599.16 763.79 C 588.14 746.81 578.79 728.84 568.50 711.43 C 564.69 705.80 559.88 700.87 554.99 696.21 C 549.86 693.30 543.91 692.35 538.27 690.87 C 531.24 689.38 529.25 681.34 525.48 676.13 C 522.13 670.07 517.55 664.70 514.72 658.37 C 512.97 651.69 515.73 645.00 517.84 638.77 C 521.49 635.35 526.42 633.57 529.91 629.89 C 538.99 622.58 544.02 611.26 553.78 604.72 C 560.00 600.35 565.51 595.08 571.32 590.20 C 570.06 583.94 565.23 579.34 559.09 577.94 C 553.61 578.50 549.80 583.06 545.91 586.47 C 543.97 582.91 542.15 578.97 542.55 574.80 C 543.92 568.41 548.41 562.92 548.56 556.22 C 548.73 551.96 546.26 548.28 544.19 544.76 C 550.45 544.68 556.84 544.50 562.94 546.16 C 567.05 547.30 571.43 547.92 575.62 546.61 Z" />
</g>
<g id="#9f4fdfff">
<path fill="#9f4fdf" fill-opacity="0" d=" M 917.69 557.96 C 926.12 560.75 935.07 557.50 943.72 559.02 C 955.48 565.09 964.93 574.92 971.82 586.12 C 977.34 595.07 985.13 602.98 995.04 606.92 C 1004.58 612.79 1016.13 608.00 1025.10 603.22 C 1026.20 607.80 1027.61 613.26 1024.35 617.35 C 1019.02 623.97 1012.67 630.42 1004.52 633.43 C 999.13 635.14 992.74 632.15 987.94 635.92 C 982.91 641.19 985.43 648.94 986.20 655.23 C 986.89 660.23 985.20 665.47 981.85 669.23 C 968.23 678.28 951.02 679.71 935.16 677.85 C 923.39 676.84 910.63 680.57 899.86 674.13 C 893.52 671.86 889.45 665.07 890.92 658.38 C 893.83 652.12 898.22 646.67 901.23 640.46 C 903.16 636.28 902.11 630.94 905.39 627.39 C 910.49 624.98 916.23 627.48 921.48 628.19 C 922.32 623.92 926.80 618.13 922.30 614.87 C 917.13 610.75 910.95 608.01 906.07 603.54 C 898.86 596.93 896.35 587.43 893.19 578.55 C 901.21 575.02 910.82 573.90 916.41 566.37 C 918.43 564.05 918.62 560.77 917.69 557.96 Z" />
</g>
<g id="#5f4f5fff">
<path fill="#5f4f5f" fill-opacity="0" d=" M 791.43 568.73 C 797.16 571.74 803.17 574.19 808.93 577.15 C 819.55 582.65 825.77 593.56 831.55 603.55 C 834.78 609.43 839.86 613.92 844.07 619.07 C 843.37 627.65 843.50 636.34 845.65 644.72 C 847.31 650.69 845.70 657.08 841.86 661.87 C 838.71 666.77 832.96 670.04 831.32 675.80 C 834.11 681.81 839.27 686.78 840.26 693.58 C 841.34 697.87 840.39 702.36 839.41 706.57 C 838.25 710.83 833.64 712.29 830.12 714.04 C 831.65 724.33 833.49 734.59 836.04 744.68 C 829.52 743.48 823.12 741.72 817.15 738.82 C 806.97 735.18 796.39 738.64 786.13 739.53 C 778.86 737.38 774.45 730.20 772.43 723.26 C 769.32 714.41 766.61 705.34 765.06 696.09 C 763.65 688.36 768.15 681.56 769.09 674.17 C 769.30 667.24 762.07 663.99 757.60 660.06 C 758.06 656.24 759.46 651.72 756.64 648.45 C 752.21 642.19 743.48 643.90 737.46 640.37 C 733.73 634.70 736.53 627.92 737.38 621.81 C 738.54 609.62 741.46 597.73 745.05 586.06 C 749.89 588.04 755.12 589.71 760.41 588.18 C 765.68 587.43 769.70 583.58 774.39 581.41 C 779.68 578.56 786.25 578.62 790.99 574.65 C 792.81 573.22 791.46 570.64 791.43 568.73 Z" />
</g>
<g id="#7f2f9fff">
<path fill="#7f2f9f" fill-opacity="0" d=" M 1025.10 603.22 C 1036.46 596.32 1048.29 586.93 1062.44 588.66 C 1063.69 598.52 1064.99 610.00 1073.09 616.92 C 1086.53 630.56 1105.95 635.66 1124.40 637.58 C 1128.55 638.00 1132.70 636.90 1136.23 634.68 C 1138.89 637.15 1142.18 639.78 1142.37 643.72 C 1142.42 648.98 1139.72 653.71 1138.25 658.63 C 1137.43 661.86 1138.89 665.08 1139.62 668.19 C 1133.94 674.90 1126.67 680.40 1122.65 688.39 C 1120.96 691.94 1118.84 695.35 1117.78 699.15 C 1117.42 704.23 1121.76 708.59 1120.73 713.75 C 1118.83 723.26 1116.34 732.64 1114.11 742.08 C 1111.17 742.73 1108.21 743.68 1105.18 743.51 C 1097.99 741.85 1092.47 736.64 1086.97 732.06 C 1080.43 726.63 1071.98 724.90 1064.48 721.41 C 1059.24 717.24 1058.70 709.71 1053.58 705.32 C 1047.87 711.73 1045.22 721.07 1037.54 725.57 C 1034.12 727.87 1029.85 724.71 1028.47 721.46 C 1025.45 716.00 1026.30 709.60 1026.79 703.67 C 1023.11 706.72 1019.39 709.73 1015.80 712.87 C 1008.98 710.34 1003.81 703.51 996.32 703.02 C 996.59 696.40 997.61 689.82 997.47 683.20 C 997.40 681.01 996.27 678.95 994.42 677.79 C 990.23 674.92 985.69 672.58 981.85 669.23 C 985.20 665.47 986.89 660.23 986.20 655.23 C 985.43 648.94 982.91 641.19 987.94 635.92 C 992.74 632.15 999.13 635.14 1004.52 633.43 C 1012.67 630.42 1019.02 623.97 1024.35 617.35 C 1027.61 613.26 1026.20 607.80 1025.10 603.22 Z" />
</g>
<g id="#7faf5fff">
<path fill="#7faf5f" fill-opacity="0" d=" M 1391.32 596.74 C 1395.24 594.84 1399.64 594.46 1403.83 593.42 C 1406.28 596.64 1409.80 599.32 1411.27 603.22 C 1410.62 612.07 1403.08 618.72 1401.53 627.31 C 1402.30 633.46 1406.92 638.29 1408.39 644.24 C 1409.54 651.69 1408.68 659.45 1405.19 666.23 C 1399.98 677.76 1392.97 688.37 1387.09 699.54 C 1385.39 704.64 1385.11 710.09 1384.05 715.34 C 1374.03 715.59 1364.01 715.31 1354.01 716.04 C 1340.90 716.83 1327.75 715.77 1314.67 717.07 C 1313.67 714.67 1312.61 712.28 1312.24 709.70 C 1310.50 698.69 1321.43 690.43 1320.43 679.58 C 1316.73 670.45 1306.50 665.87 1302.60 656.90 C 1302.27 650.37 1307.30 645.00 1309.95 639.44 C 1315.56 639.10 1321.37 639.44 1326.84 637.82 C 1339.05 633.81 1348.49 624.47 1360.16 619.32 C 1372.26 614.42 1380.46 603.60 1391.32 596.74 Z" />
</g>
<g id="#3f2f1ffe">
<path fill="#3f2f1f" fill-opacity="0" d=" M 380.85 598.67 C 391.32 598.26 393.42 610.95 401.28 615.19 C 408.16 615.91 415.87 614.82 421.95 618.99 C 425.62 622.34 428.51 616.93 431.03 614.93 C 429.26 611.26 427.57 607.58 425.90 603.88 C 433.55 602.38 441.70 601.81 448.58 606.09 C 450.78 613.59 452.10 621.33 452.75 629.11 C 462.26 628.14 473.19 628.41 480.49 635.44 C 488.84 647.20 496.19 659.66 503.57 672.06 C 501.32 676.30 498.92 680.45 496.64 684.68 C 493.02 683.78 489.89 681.75 487.25 679.18 C 483.84 680.40 479.73 681.27 478.19 685.08 C 474.02 690.42 475.53 697.48 475.39 703.73 C 474.40 704.82 473.41 705.92 472.44 707.04 C 459.11 699.96 452.65 685.91 443.87 674.45 C 443.17 679.30 445.57 685.55 441.08 689.07 C 434.15 695.76 425.85 701.27 420.34 709.31 C 418.28 714.34 420.42 720.06 420.59 725.36 C 416.83 726.54 412.22 729.25 408.55 726.46 C 404.82 723.33 401.67 719.44 397.20 717.25 C 394.66 721.86 394.14 729.97 387.61 730.47 C 379.62 722.76 372.53 714.14 365.13 705.86 C 357.08 697.06 358.53 684.20 357.14 673.25 C 359.19 671.13 361.22 669.01 363.29 666.92 C 357.74 659.80 351.40 653.09 348.30 644.41 C 358.59 642.58 368.98 640.58 378.18 635.37 C 373.98 629.58 369.78 623.63 368.84 616.29 C 372.73 613.62 376.65 610.99 380.42 608.16 C 380.46 604.97 380.28 601.79 380.85 598.67 Z" />
</g>
<g id="#00ef9fff">
<path fill="#00ef9f" fill-opacity="0" d=" M 906.07 603.54 C 910.95 608.01 917.13 610.75 922.30 614.87 C 926.80 618.13 922.32 623.92 921.48 628.19 C 916.23 627.48 910.49 624.98 905.39 627.39 C 902.11 630.94 903.16 636.28 901.23 640.46 C 898.22 646.67 893.83 652.12 890.92 658.38 C 889.45 665.07 893.52 671.86 899.86 674.13 C 910.63 680.57 923.39 676.84 935.16 677.85 C 951.02 679.71 968.23 678.28 981.85 669.23 C 985.69 672.58 990.23 674.92 994.42 677.79 C 996.27 678.95 997.40 681.01 997.47 683.20 C 997.61 689.82 996.59 696.40 996.32 703.02 C 996.14 707.13 995.83 711.21 995.64 715.34 C 993.08 717.15 990.26 718.80 988.48 721.46 C 986.34 724.42 985.40 728.13 982.83 730.79 C 979.50 733.79 974.72 734.97 971.77 738.40 C 970.82 744.87 971.72 751.49 971.09 758.00 C 970.98 769.31 967.11 780.33 961.15 789.85 C 956.23 785.19 950.43 781.63 944.60 778.25 C 938.47 773.77 934.08 767.40 929.40 761.53 C 918.76 761.24 915.76 772.91 908.51 778.35 C 902.69 781.76 902.17 789.12 899.08 794.52 C 894.52 793.02 887.62 793.76 884.67 789.20 C 882.28 779.09 882.76 767.65 875.83 759.14 C 873.73 757.26 870.41 754.07 867.62 756.51 C 863.56 758.59 863.76 763.68 862.59 767.47 C 858.91 767.33 854.45 767.26 852.59 763.40 C 846.81 757.37 844.44 747.89 836.04 744.68 C 833.49 734.59 831.65 724.33 830.12 714.04 C 833.64 712.29 838.25 710.83 839.41 706.57 C 840.39 702.36 841.34 697.87 840.26 693.58 C 839.27 686.78 834.11 681.81 831.32 675.80 C 832.96 670.04 838.71 666.77 841.86 661.87 C 845.70 657.08 847.31 650.69 845.65 644.72 C 843.50 636.34 843.37 627.65 844.07 619.07 C 848.58 617.31 852.96 615.28 857.45 613.43 C 865.75 609.69 875.03 609.77 883.82 607.94 C 891.18 606.35 899.44 607.85 906.07 603.54 Z" />
</g>
<g id="#df4f5fff">
<path fill="#df4f5f" fill-opacity="0" d=" M 1180.87 605.28 C 1183.25 605.14 1185.64 605.13 1188.03 605.31 C 1187.84 606.78 1187.70 608.28 1187.56 609.76 C 1186.70 610.19 1185.86 610.62 1185.03 611.07 C 1183.69 610.37 1182.37 609.70 1181.06 609.01 C 1181.01 608.08 1180.92 606.21 1180.87 605.28 Z" />
</g>
<g id="#5fcfdfff">
<path fill="#5fcfdf" fill-opacity="0" d=" M 1306.83 614.86 C 1308.59 615.25 1310.36 615.68 1312.14 616.12 C 1310.73 617.14 1309.31 618.15 1307.91 619.17 C 1307.55 617.72 1307.17 616.28 1306.83 614.86 Z" />
</g>
<g id="#7faf1fff">
<path fill="#7faf1f" fill-opacity="0" d=" M 1212.89 651.38 C 1225.46 643.51 1235.23 631.57 1249.32 626.05 C 1247.51 631.82 1246.44 638.30 1248.91 644.06 C 1252.06 651.26 1256.73 658.16 1263.71 662.11 C 1266.63 663.30 1269.90 662.06 1272.41 660.44 C 1278.63 656.31 1283.74 650.78 1289.51 646.08 C 1295.30 641.64 1302.68 639.43 1309.95 639.44 C 1307.30 645.00 1302.27 650.37 1302.60 656.90 C 1306.50 665.87 1316.73 670.45 1320.43 679.58 C 1321.43 690.43 1310.50 698.69 1312.24 709.70 C 1312.61 712.28 1313.67 714.67 1314.67 717.07 C 1316.45 720.85 1318.03 725.00 1321.18 727.89 C 1325.65 730.74 1331.42 732.69 1333.73 737.94 C 1335.04 742.00 1334.11 746.33 1334.23 750.51 C 1333.75 756.42 1335.87 762.32 1334.92 768.20 C 1333.06 774.28 1329.28 779.58 1325.67 784.73 C 1322.89 788.84 1317.59 789.66 1313.13 790.85 C 1312.38 791.00 1311.65 791.14 1310.93 791.30 C 1310.07 793.01 1309.25 794.74 1308.39 796.46 L 1308.02 797.12 C 1304.40 798.67 1300.96 800.85 1297.05 801.53 C 1290.79 801.00 1284.41 798.62 1280.10 793.92 C 1277.43 791.44 1274.88 788.48 1271.30 787.39 C 1261.00 784.52 1250.10 783.46 1239.52 785.24 C 1235.95 786.29 1232.21 786.29 1229.77 783.24 C 1225.54 779.45 1221.99 774.98 1218.02 770.94 C 1214.74 767.88 1215.18 763.04 1216.24 759.12 C 1218.62 749.62 1223.96 741.21 1226.72 731.84 C 1228.58 726.46 1228.96 720.34 1232.94 715.95 C 1239.13 708.79 1246.62 702.73 1251.84 694.74 C 1252.64 693.08 1254.88 691.22 1253.92 689.14 C 1252.24 684.78 1248.10 682.22 1244.98 679.01 C 1238.79 672.81 1232.62 666.45 1225.11 661.83 C 1220.47 659.05 1216.44 655.43 1212.89 651.38 M 1270.88 714.25 C 1271.27 715.86 1271.68 717.48 1272.08 719.11 C 1273.48 718.62 1274.89 718.15 1276.34 717.71 C 1275.62 716.11 1274.89 714.54 1274.16 712.97 C 1273.05 713.39 1271.96 713.82 1270.88 714.25 Z" />
</g>
<g id="#bf2f9ffe">
<path fill="#bf2f9f" fill-opacity="0" d=" M 1136.23 634.68 C 1140.64 632.32 1145.32 628.05 1150.69 630.15 C 1160.58 632.95 1164.28 644.32 1173.12 648.65 C 1181.82 647.27 1186.78 638.75 1193.03 633.46 C 1201.10 637.67 1206.89 644.77 1212.89 651.38 C 1216.44 655.43 1220.47 659.05 1225.11 661.83 C 1232.62 666.45 1238.79 672.81 1244.98 679.01 C 1248.10 682.22 1252.24 684.78 1253.92 689.14 C 1254.88 691.22 1252.64 693.08 1251.84 694.74 C 1246.62 702.73 1239.13 708.79 1232.94 715.95 C 1228.96 720.34 1228.58 726.46 1226.72 731.84 C 1223.96 741.21 1218.62 749.62 1216.24 759.12 C 1213.35 758.88 1210.35 758.56 1207.50 758.37 C 1204.27 761.47 1201.01 764.52 1197.84 767.66 C 1192.32 764.37 1186.13 758.40 1179.15 761.16 C 1171.14 764.67 1166.89 772.93 1160.97 778.84 C 1155.27 782.28 1149.98 786.30 1144.90 790.59 C 1143.17 785.67 1143.19 780.11 1140.35 775.63 C 1135.70 770.35 1128.37 768.44 1123.60 763.36 C 1120.98 758.61 1123.50 752.89 1124.58 748.01 C 1121.07 746.02 1117.60 744.06 1114.11 742.08 C 1116.34 732.64 1118.83 723.26 1120.73 713.75 C 1121.76 708.59 1117.42 704.23 1117.78 699.15 C 1118.84 695.35 1120.96 691.94 1122.65 688.39 C 1126.67 680.40 1133.94 674.90 1139.62 668.19 C 1138.89 665.08 1137.43 661.86 1138.25 658.63 C 1139.72 653.71 1142.42 648.98 1142.37 643.72 C 1142.18 639.78 1138.89 637.15 1136.23 634.68 M 1211.11 672.74 C 1211.33 674.61 1211.59 676.50 1212.23 678.30 C 1214.30 677.80 1215.69 676.11 1217.07 674.62 C 1215.08 673.96 1213.09 673.34 1211.11 672.74 Z" />
</g>
<g id="#3f2f9fff">
<path fill="#3f2f9f" fill-opacity="0" d=" M 1211.11 672.74 C 1213.09 673.34 1215.08 673.96 1217.07 674.62 C 1215.69 676.11 1214.30 677.80 1212.23 678.30 C 1211.59 676.50 1211.33 674.61 1211.11 672.74 Z" />
</g>
<g id="#00af1fff">
<path fill="#00af1f" fill-opacity="0" d=" M 1270.88 714.25 C 1271.96 713.82 1273.05 713.39 1274.16 712.97 C 1274.89 714.54 1275.62 716.11 1276.34 717.71 C 1274.89 718.15 1273.48 718.62 1272.08 719.11 C 1271.68 717.48 1271.27 715.86 1270.88 714.25 Z" />
</g>
<g id="#7f2f1fff">
<path fill="#7f2f1f" fill-opacity="0" d=" M 1354.01 716.04 C 1364.01 715.31 1374.03 715.59 1384.05 715.34 C 1382.45 728.84 1382.45 742.49 1379.97 755.89 C 1379.52 765.82 1378.25 776.16 1381.41 785.81 C 1384.24 795.47 1387.97 804.84 1391.72 814.18 C 1394.12 820.29 1394.57 827.45 1391.53 833.43 C 1386.36 845.78 1377.07 855.63 1369.21 866.27 C 1367.50 869.59 1363.71 866.93 1361.92 865.10 C 1355.75 857.57 1348.73 850.85 1341.75 844.11 C 1331.18 848.47 1321.14 853.95 1310.85 858.88 C 1311.71 855.69 1312.96 852.57 1313.41 849.28 C 1313.66 845.91 1312.67 842.62 1312.01 839.36 C 1305.60 836.97 1299.51 833.84 1293.36 830.89 C 1293.54 817.96 1302.35 807.97 1308.02 797.12 L 1308.39 796.46 C 1309.88 794.52 1311.52 792.70 1313.13 790.85 C 1317.59 789.66 1322.89 788.84 1325.67 784.73 C 1329.28 779.58 1333.06 774.28 1334.92 768.20 C 1335.87 762.32 1333.75 756.42 1334.23 750.51 C 1334.11 746.33 1335.04 742.00 1333.73 737.94 C 1331.42 732.69 1325.65 730.74 1321.18 727.89 C 1318.03 725.00 1316.45 720.85 1314.67 717.07 C 1327.75 715.77 1340.90 716.83 1354.01 716.04 Z" />
</g>
<g id="#19090633">
<path fill="#190906" fill-opacity="0" d=" M 1310.93 791.30 C 1311.65 791.14 1312.38 791.00 1313.13 790.85 C 1311.52 792.70 1309.88 794.52 1308.39 796.46 C 1309.25 794.74 1310.07 793.01 1310.93 791.30 Z" />
</g>
</svg>
