<?xml version="1.0" encoding="UTF-8" ?>
<!DOCTYPE svg PUBLIC "-//W3C//DTD SVG 1.1//EN" "http://www.w3.org/Graphics/SVG/1.1/DTD/svg11.dtd">
<svg width="1920pt" height="1080pt" viewBox="0 0 1920 1080" version="1.1" xmlns="http://www.w3.org/2000/svg">
<g id="#9f9f3fff">
<path fill="#9f9f3f" fill-opacity="0" d=" M 1246.43 210.74 C 1250.28 209.74 1254.42 209.48 1258.42 209.72 C 1265.55 210.49 1268.15 218.51 1273.99 221.59 C 1279.20 223.73 1283.61 227.27 1288.50 230.00 C 1293.96 231.52 1299.87 229.16 1305.30 230.92 C 1310.34 233.86 1315.78 237.24 1317.82 243.07 C 1320.79 250.50 1329.04 254.11 1336.59 254.69 C 1337.97 257.83 1339.62 260.84 1341.05 263.96 C 1345.98 262.47 1351.09 260.60 1356.35 261.32 C 1361.97 261.74 1366.74 265.87 1372.56 265.16 C 1376.06 265.27 1379.85 263.86 1383.08 265.88 C 1386.20 267.53 1385.36 271.93 1386.41 274.62 C 1386.74 279.62 1391.76 281.98 1394.89 285.17 C 1401.96 284.45 1409.13 285.62 1415.65 288.49 C 1417.12 289.05 1417.62 290.64 1418.08 292.01 C 1419.58 296.73 1420.43 301.63 1421.41 306.49 C 1427.89 306.61 1433.70 303.74 1439.80 302.12 C 1446.44 300.24 1454.37 303.91 1460.18 299.19 C 1462.40 297.74 1464.21 294.46 1467.28 295.36 C 1470.19 296.45 1472.17 299.12 1474.51 301.08 C 1477.65 299.54 1480.58 297.60 1483.22 295.29 C 1489.08 296.38 1494.50 298.87 1499.92 301.27 C 1498.57 304.72 1497.16 308.15 1495.80 311.60 C 1506.98 318.20 1519.07 322.98 1530.95 328.14 C 1533.44 329.10 1534.83 331.66 1535.28 334.17 C 1534.90 336.19 1533.70 337.95 1532.73 339.72 C 1527.54 348.02 1522.95 356.66 1517.96 365.06 C 1515.97 368.07 1512.19 369.17 1510.00 371.98 C 1506.03 377.25 1502.77 383.32 1502.47 390.06 C 1501.72 399.22 1494.81 405.98 1490.91 413.87 C 1487.46 419.76 1492.46 426.85 1488.74 432.78 C 1486.29 435.52 1484.16 438.73 1480.92 440.59 C 1477.27 442.22 1472.99 442.11 1469.55 444.22 C 1468.42 446.81 1467.98 449.62 1467.18 452.32 C 1464.29 452.84 1461.14 453.96 1458.34 452.53 C 1454.18 450.66 1450.06 447.96 1445.31 448.28 C 1440.27 449.57 1441.46 456.22 1441.62 459.92 C 1442.07 469.43 1445.66 480.21 1439.43 488.51 C 1431.06 496.94 1419.10 491.56 1409.13 494.79 C 1403.03 496.62 1401.53 503.61 1398.98 508.69 C 1397.48 512.30 1393.67 513.88 1390.42 515.53 C 1391.33 522.11 1393.51 528.46 1396.89 534.20 C 1391.47 540.14 1388.48 550.15 1379.47 551.20 C 1375.17 551.18 1371.62 547.93 1369.98 544.15 C 1368.23 541.54 1367.37 537.40 1363.85 536.71 C 1357.37 535.94 1350.78 536.47 1344.34 537.07 C 1337.21 537.62 1336.03 547.48 1329.28 548.63 C 1322.31 548.23 1322.99 539.33 1321.43 534.60 C 1320.86 529.93 1315.52 527.62 1311.44 529.45 C 1297.71 534.00 1283.80 538.65 1269.28 539.65 C 1259.55 541.43 1258.24 528.96 1250.74 525.73 C 1232.58 517.22 1211.32 513.84 1196.15 499.80 C 1191.25 496.45 1191.29 490.16 1189.27 485.16 C 1187.15 479.95 1184.16 474.73 1179.15 471.83 C 1166.89 464.76 1152.76 462.04 1140.24 455.54 C 1133.46 452.34 1126.86 447.83 1119.01 448.25 C 1112.24 447.58 1105.91 450.50 1099.30 450.87 C 1090.87 448.90 1083.81 443.21 1078.02 436.98 C 1073.36 431.96 1067.28 427.87 1064.45 421.43 C 1062.80 417.94 1063.99 414.12 1065.11 410.69 C 1069.51 410.72 1074.72 412.74 1078.58 409.64 C 1082.57 406.95 1083.80 401.17 1081.87 396.91 C 1078.27 391.13 1074.27 385.56 1071.72 379.21 C 1069.49 375.30 1068.50 369.51 1063.76 367.76 C 1056.13 366.07 1047.12 370.53 1040.68 364.56 C 1042.43 358.15 1042.85 351.31 1041.24 344.83 C 1031.10 343.55 1021.03 344.60 1011.42 347.92 C 1010.71 345.90 1010.00 343.89 1009.29 341.88 L 1009.18 341.57 C 1012.54 340.33 1017.96 340.60 1019.50 336.46 C 1024.68 326.14 1024.38 314.28 1025.56 303.04 C 1026.87 294.27 1025.37 285.21 1027.70 276.61 C 1031.29 272.39 1036.12 268.90 1041.63 267.74 C 1050.96 266.07 1060.45 265.57 1069.85 264.43 C 1069.99 265.71 1070.14 267.00 1070.31 268.29 C 1076.96 265.88 1082.60 261.48 1087.11 256.10 C 1092.83 258.57 1098.45 261.24 1104.07 263.95 C 1109.53 266.88 1116.50 264.53 1120.62 260.27 C 1123.96 256.89 1129.16 257.32 1133.07 254.97 C 1136.21 252.97 1139.36 250.86 1142.35 248.61 C 1143.87 250.00 1145.30 251.56 1147.12 252.59 C 1151.79 251.63 1156.13 249.29 1161.04 249.41 C 1167.28 248.60 1172.96 251.85 1178.83 253.27 C 1182.77 252.79 1184.05 248.36 1185.67 245.36 C 1187.94 244.96 1192.50 244.15 1194.77 243.75 C 1195.25 240.92 1195.57 238.05 1196.12 235.23 C 1202.76 237.65 1209.08 241.36 1216.14 242.46 C 1223.82 242.22 1231.39 239.97 1238.23 236.53 C 1241.13 234.85 1240.74 230.61 1241.88 227.98 C 1243.39 222.25 1243.95 216.17 1246.43 210.74 Z" />
</g>
<g id="#9f9fbfff">
<path fill="#9f9fbf" fill-opacity="0" d=" M 981.60 348.53 C 989.13 341.89 999.72 341.40 1009.29 341.88 C 1010.00 343.89 1010.71 345.90 1011.42 347.92 C 1021.03 344.60 1031.10 343.55 1041.24 344.83 C 1042.85 351.31 1042.43 358.15 1040.68 364.56 C 1047.12 370.53 1056.13 366.07 1063.76 367.76 C 1068.50 369.51 1069.49 375.30 1071.72 379.21 C 1074.27 385.56 1078.27 391.13 1081.87 396.91 C 1083.80 401.17 1082.57 406.95 1078.58 409.64 C 1074.72 412.74 1069.51 410.72 1065.11 410.69 C 1057.63 410.66 1050.35 412.72 1043.32 415.08 C 1041.92 423.42 1041.73 433.59 1034.25 439.20 C 1029.26 441.40 1023.58 441.19 1018.26 442.09 C 1015.76 449.12 1013.14 456.44 1014.54 464.01 C 1009.26 466.08 1003.88 467.84 998.75 470.25 C 992.44 473.63 991.98 483.45 997.44 487.62 C 1004.10 489.34 1010.67 486.94 1017.24 486.13 C 1017.22 488.94 1017.20 491.71 1016.93 494.53 C 1015.84 498.57 1012.86 501.91 1011.98 506.02 C 1012.17 510.94 1013.10 515.83 1013.85 520.71 C 1010.34 522.51 1006.48 523.84 1003.50 526.48 C 1000.16 531.07 1000.25 537.78 995.35 541.34 C 985.82 550.27 972.78 553.07 960.38 555.50 C 952.57 556.59 944.67 558.26 936.79 557.07 C 934.59 556.76 932.44 556.43 930.31 556.07 C 923.94 553.24 919.54 546.51 920.70 539.40 C 922.41 534.73 925.74 530.54 925.48 525.31 C 921.93 525.83 918.40 526.48 914.88 527.13 C 913.95 523.25 913.60 519.21 912.20 515.48 C 911.33 513.19 908.37 513.00 906.33 513.47 C 901.21 514.98 897.10 518.66 892.13 520.50 C 886.35 522.11 881.37 525.46 876.65 529.03 C 873.78 527.67 869.86 527.26 868.15 524.20 C 865.96 521.04 864.82 515.90 860.16 515.65 C 851.50 513.94 845.29 521.47 837.76 523.98 C 833.46 523.76 829.60 521.47 825.67 519.92 C 831.69 520.39 834.20 514.41 837.66 510.67 C 841.94 505.41 848.29 502.59 854.39 500.02 C 861.13 496.09 863.67 486.49 872.69 486.27 C 876.11 481.90 879.03 476.81 883.86 473.79 C 888.92 470.50 894.31 467.75 899.56 464.78 C 906.46 462.45 913.66 461.21 920.78 459.73 C 922.45 452.72 923.11 445.38 925.83 438.67 C 928.92 435.13 933.74 433.69 937.10 430.42 C 938.44 424.60 936.91 418.34 938.94 412.67 C 942.71 406.93 948.43 402.89 953.50 398.40 C 956.36 395.16 955.30 390.24 956.64 386.43 C 959.71 383.18 965.46 382.13 966.63 377.30 C 969.56 366.82 974.27 356.67 981.60 348.53 Z" />
</g>
<g id="#5f9f3fff">
<path fill="#5f9f3f" fill-opacity="0" d=" M 1043.32 415.08 C 1050.35 412.72 1057.63 410.66 1065.11 410.69 C 1063.99 414.12 1062.80 417.94 1064.45 421.43 C 1067.28 427.87 1073.36 431.96 1078.02 436.98 C 1083.81 443.21 1090.87 448.90 1099.30 450.87 C 1105.91 450.50 1112.24 447.58 1119.01 448.25 C 1126.86 447.83 1133.46 452.34 1140.24 455.54 C 1152.76 462.04 1166.89 464.76 1179.15 471.83 C 1184.16 474.73 1187.15 479.95 1189.27 485.16 C 1181.99 488.32 1174.11 489.40 1166.34 490.60 C 1158.57 491.72 1151.69 496.68 1143.62 496.03 C 1136.53 496.00 1127.25 493.44 1122.41 500.39 C 1117.50 507.96 1109.58 513.00 1100.83 514.85 C 1093.90 517.01 1086.37 516.20 1079.52 518.54 C 1067.74 523.91 1055.67 528.61 1044.17 534.57 C 1044.73 539.18 1044.80 543.91 1046.21 548.37 C 1048.73 554.26 1053.19 559.32 1054.41 565.75 C 1055.29 570.18 1056.37 574.85 1060.05 577.92 C 1065.12 582.58 1066.80 589.55 1071.47 594.50 C 1076.19 598.77 1083.22 596.82 1088.53 599.55 C 1094.56 604.90 1096.99 613.14 1099.25 620.59 C 1097.08 623.37 1094.89 626.12 1092.83 628.97 C 1086.79 636.31 1084.67 647.38 1074.31 650.31 C 1067.78 651.96 1061.21 647.59 1057.89 642.16 C 1049.45 629.27 1038.42 617.84 1032.99 603.18 C 1030.47 596.29 1031.39 587.80 1025.55 582.47 C 1019.48 577.04 1010.97 577.98 1003.49 577.03 C 997.26 577.38 994.06 571.41 990.00 567.96 C 987.24 565.09 983.12 564.58 979.37 564.15 C 979.98 568.10 980.52 572.02 981.11 575.99 C 977.87 577.99 974.44 581.87 970.27 580.37 C 964.91 577.69 960.61 573.43 956.63 569.05 C 954.73 569.42 952.84 569.81 950.98 570.21 C 946.22 571.22 941.47 572.31 936.71 573.25 C 936.45 567.86 936.54 562.45 936.79 557.07 C 944.67 558.26 952.57 556.59 960.38 555.50 C 972.78 553.07 985.82 550.27 995.35 541.34 C 1000.25 537.78 1000.16 531.07 1003.50 526.48 C 1006.48 523.84 1010.34 522.51 1013.85 520.71 C 1013.10 515.83 1012.17 510.94 1011.98 506.02 C 1012.86 501.91 1015.84 498.57 1016.93 494.53 C 1017.20 491.71 1017.22 488.94 1017.24 486.13 C 1010.67 486.94 1004.10 489.34 997.44 487.62 C 991.98 483.45 992.44 473.63 998.75 470.25 C 1003.88 467.84 1009.26 466.08 1014.54 464.01 C 1013.14 456.44 1015.76 449.12 1018.26 442.09 C 1023.58 441.19 1029.26 441.40 1034.25 439.20 C 1041.73 433.59 1041.92 423.42 1043.32 415.08 M 1009.92 527.87 C 1005.60 532.19 1001.86 537.15 998.63 542.31 C 998.98 546.29 1000.31 550.28 1002.36 553.71 C 1005.78 557.45 1010.37 559.85 1014.29 563.04 C 1020.32 554.79 1028.31 547.56 1031.66 537.65 C 1027.00 534.21 1022.55 530.41 1017.56 527.46 C 1015.24 526.21 1011.82 525.57 1009.92 527.87 Z" />
<path fill="#5f9f3f" fill-opacity="0" d=" M 1436.14 586.21 C 1439.04 586.49 1441.94 586.74 1444.85 586.97 C 1442.48 592.34 1440.12 597.79 1438.88 603.55 C 1438.22 608.88 1439.67 614.20 1439.99 619.53 C 1440.24 622.95 1439.21 626.30 1438.64 629.65 C 1436.43 640.59 1436.47 652.32 1431.67 662.61 C 1433.95 665.98 1435.67 669.76 1438.14 673.02 C 1444.31 678.55 1451.57 682.71 1458.41 687.37 C 1455.86 694.72 1449.36 703.41 1455.12 710.93 C 1461.45 718.85 1466.87 727.74 1474.86 734.18 C 1482.21 741.06 1493.29 738.63 1501.64 743.42 C 1505.10 745.68 1503.18 750.71 1503.08 753.88 C 1502.71 760.04 1500.24 765.83 1499.56 771.91 C 1500.53 780.41 1506.17 788.25 1504.32 797.09 C 1504.08 802.33 1499.13 805.37 1496.52 809.48 C 1491.33 815.88 1492.47 824.56 1489.84 831.94 C 1484.93 845.41 1471.09 851.88 1462.92 862.99 C 1445.69 880.43 1426.86 896.20 1409.22 913.23 C 1405.25 916.43 1401.13 921.71 1395.35 920.86 C 1394.09 919.45 1393.23 917.77 1392.32 916.16 C 1400.39 908.62 1408.15 900.75 1416.23 893.21 C 1420.62 889.63 1421.94 883.05 1419.91 877.95 C 1413.01 871.77 1402.89 873.33 1394.65 870.31 C 1385.22 866.67 1376.26 861.95 1366.79 858.43 C 1357.59 854.99 1349.15 849.73 1341.79 843.25 C 1339.89 841.46 1337.47 839.82 1336.69 837.23 C 1336.43 830.91 1338.60 824.74 1338.37 818.42 C 1331.67 806.15 1319.46 799.28 1308.61 791.34 C 1301.49 786.20 1292.45 784.75 1285.40 779.55 C 1278.78 774.38 1273.73 766.87 1272.86 758.39 C 1276.92 754.21 1282.17 750.63 1284.05 744.85 C 1285.94 739.31 1287.16 733.56 1289.05 728.03 C 1292.38 716.38 1306.43 712.56 1311.36 701.88 C 1313.20 695.46 1314.21 688.69 1317.97 683.01 C 1321.19 677.74 1322.71 671.70 1325.43 666.20 C 1326.75 663.37 1330.39 663.84 1332.95 663.12 C 1337.68 662.55 1341.45 658.74 1346.33 658.80 C 1351.96 658.68 1357.95 659.96 1363.30 657.52 C 1367.14 655.89 1367.73 651.06 1369.37 647.79 C 1376.75 646.08 1385.20 645.59 1390.80 639.84 C 1396.35 634.43 1403.51 631.34 1409.63 626.69 C 1413.33 630.51 1417.72 635.28 1423.60 634.46 C 1429.21 633.44 1436.75 629.61 1434.68 622.54 C 1434.17 614.63 1430.89 607.32 1429.14 599.70 C 1429.81 594.58 1433.66 590.58 1436.14 586.21 Z" />
</g>
<g id="#5f1fbfff">
<path fill="#5f1fbf" fill-opacity="0" d=" M 1480.92 440.59 C 1484.16 438.73 1486.29 435.52 1488.74 432.78 C 1489.60 434.44 1490.47 436.10 1491.35 437.77 C 1497.72 436.08 1504.19 434.70 1510.74 433.83 C 1511.41 438.06 1511.65 442.41 1510.56 446.60 C 1514.14 447.73 1518.36 450.34 1521.87 447.77 C 1524.08 446.88 1526.57 443.90 1528.93 446.01 C 1533.21 449.99 1533.30 456.44 1533.45 461.90 C 1531.45 468.61 1525.75 473.50 1522.56 479.61 C 1515.10 489.66 1517.84 503.63 1511.02 513.98 C 1500.50 530.94 1488.96 547.22 1477.77 563.73 C 1465.63 582.63 1453.20 601.36 1439.99 619.53 C 1439.67 614.20 1438.22 608.88 1438.88 603.55 C 1440.12 597.79 1442.48 592.34 1444.85 586.97 C 1441.94 586.74 1439.04 586.49 1436.14 586.21 C 1433.66 590.58 1429.81 594.58 1429.14 599.70 C 1430.89 607.32 1434.17 614.63 1434.68 622.54 C 1436.75 629.61 1429.21 633.44 1423.60 634.46 C 1417.72 635.28 1413.33 630.51 1409.63 626.69 C 1403.51 631.34 1396.35 634.43 1390.80 639.84 C 1385.20 645.59 1376.75 646.08 1369.37 647.79 C 1367.73 651.06 1367.14 655.89 1363.30 657.52 C 1357.95 659.96 1351.96 658.68 1346.33 658.80 C 1341.45 658.74 1337.68 662.55 1332.95 663.12 C 1330.39 663.84 1326.75 663.37 1325.43 666.20 C 1322.71 671.70 1321.19 677.74 1317.97 683.01 C 1314.21 688.69 1313.20 695.46 1311.36 701.88 C 1306.43 712.56 1292.38 716.38 1289.05 728.03 C 1287.16 733.56 1285.94 739.31 1284.05 744.85 C 1282.17 750.63 1276.92 754.21 1272.86 758.39 C 1272.45 751.14 1271.52 742.61 1264.25 738.85 C 1256.61 736.79 1248.86 735.12 1241.25 732.97 C 1240.61 736.99 1241.13 742.12 1237.78 745.18 C 1235.64 747.64 1232.09 748.03 1229.08 748.26 C 1219.13 749.61 1209.33 746.96 1199.59 745.33 C 1186.71 742.36 1173.48 740.37 1161.23 735.21 C 1158.86 734.18 1156.22 733.48 1154.32 731.65 C 1152.80 727.30 1155.58 721.78 1151.93 718.20 C 1147.19 713.71 1142.51 709.04 1139.11 703.43 C 1137.00 682.62 1124.67 665.01 1111.95 649.17 C 1106.85 641.30 1099.99 634.92 1092.83 628.97 C 1094.89 626.12 1097.08 623.37 1099.25 620.59 C 1096.99 613.14 1094.56 604.90 1088.53 599.55 C 1083.22 596.82 1076.19 598.77 1071.47 594.50 C 1066.80 589.55 1065.12 582.58 1060.05 577.92 C 1056.37 574.85 1055.29 570.18 1054.41 565.75 C 1053.19 559.32 1048.73 554.26 1046.21 548.37 C 1044.80 543.91 1044.73 539.18 1044.17 534.57 C 1055.67 528.61 1067.74 523.91 1079.52 518.54 C 1086.37 516.20 1093.90 517.01 1100.83 514.85 C 1109.58 513.00 1117.50 507.96 1122.41 500.39 C 1127.25 493.44 1136.53 496.00 1143.62 496.03 C 1151.69 496.68 1158.57 491.72 1166.34 490.60 C 1174.11 489.40 1181.99 488.32 1189.27 485.16 C 1191.29 490.16 1191.25 496.45 1196.15 499.80 C 1211.32 513.84 1232.58 517.22 1250.74 525.73 C 1258.24 528.96 1259.55 541.43 1269.28 539.65 C 1283.80 538.65 1297.71 534.00 1311.44 529.45 C 1315.52 527.62 1320.86 529.93 1321.43 534.60 C 1322.99 539.33 1322.31 548.23 1329.28 548.63 C 1336.03 547.48 1337.21 537.62 1344.34 537.07 C 1350.78 536.47 1357.37 535.94 1363.85 536.71 C 1367.37 537.40 1368.23 541.54 1369.98 544.15 C 1371.62 547.93 1375.17 551.18 1379.47 551.20 C 1388.48 550.15 1391.47 540.14 1396.89 534.20 C 1393.51 528.46 1391.33 522.11 1390.42 515.53 C 1393.67 513.88 1397.48 512.30 1398.98 508.69 C 1401.53 503.61 1403.03 496.62 1409.13 494.79 C 1419.10 491.56 1431.06 496.94 1439.43 488.51 C 1445.66 480.21 1442.07 469.43 1441.62 459.92 C 1441.46 456.22 1440.27 449.57 1445.31 448.28 C 1450.06 447.96 1454.18 450.66 1458.34 452.53 C 1461.14 453.96 1464.29 452.84 1467.18 452.32 C 1467.98 449.62 1468.42 446.81 1469.55 444.22 C 1472.99 442.11 1477.27 442.22 1480.92 440.59 Z" />
</g>
<g id="#1f9fbfff">
<path fill="#1f9fbf" fill-opacity="0" d=" M 543.56 460.19 C 549.68 460.51 555.95 460.44 561.89 462.14 C 566.75 463.60 568.48 469.03 571.75 472.40 C 574.22 475.99 578.32 477.71 581.43 480.57 C 587.40 490.03 591.14 500.70 595.46 510.98 C 603.59 508.73 611.41 503.58 620.09 503.84 C 626.05 504.00 629.23 509.39 631.39 514.20 C 640.53 513.96 649.60 512.75 658.66 511.63 C 663.42 511.43 668.88 510.21 673.27 512.84 C 677.69 515.41 681.39 519.56 686.68 520.32 C 692.95 521.38 698.61 517.86 704.73 517.59 C 711.11 519.88 714.11 526.22 715.83 532.27 C 716.72 534.89 717.60 537.52 718.44 540.17 C 715.15 540.85 711.79 541.18 708.54 542.05 C 705.25 542.78 703.86 546.17 702.03 548.62 C 700.11 548.52 698.19 548.39 696.29 548.29 C 695.19 550.17 694.07 552.04 692.94 553.91 C 700.89 563.01 704.78 574.44 708.61 585.68 C 697.35 590.69 687.16 598.08 675.24 601.53 C 670.72 603.04 665.92 601.84 661.36 601.30 C 660.57 597.63 659.70 593.98 658.88 590.33 C 655.85 591.71 652.92 593.32 650.06 595.02 C 650.12 600.48 651.61 606.31 649.61 611.61 C 645.35 614.24 639.90 613.36 635.50 615.67 C 632.45 617.15 629.61 619.39 626.15 619.82 C 622.35 619.84 618.89 617.31 615.03 617.93 C 603.22 619.90 592.18 624.81 581.48 630.02 C 581.02 624.69 579.55 619.53 578.37 614.34 C 574.94 613.57 570.44 614.12 567.93 611.08 C 564.41 606.79 565.87 600.61 563.71 595.82 C 558.73 590.67 553.24 585.38 551.28 578.21 C 550.89 574.01 553.28 569.82 552.05 565.66 C 549.80 561.80 546.55 558.63 543.53 555.38 C 545.84 549.25 548.18 543.10 549.89 536.77 C 551.39 531.95 548.05 525.60 542.70 525.32 C 540.71 525.03 538.72 524.82 536.72 524.68 C 534.39 522.26 532.52 518.37 528.76 518.17 C 524.55 517.79 522.46 522.41 519.66 524.69 C 516.33 528.53 511.85 531.00 507.42 533.32 C 506.68 524.08 502.33 515.69 499.78 506.94 C 500.69 497.39 506.92 488.85 515.52 484.58 C 515.46 478.25 515.41 471.92 515.08 465.60 C 520.15 463.49 524.67 466.83 529.24 468.51 C 535.40 469.68 540.67 465.21 543.56 460.19 Z" />
</g>
<g id="#5f9f3ffe">
<path fill="#5f9f3f" fill-opacity="0" d=" M 906.33 513.47 C 908.37 513.00 911.33 513.19 912.20 515.48 C 913.60 519.21 913.95 523.25 914.88 527.13 C 918.40 526.48 921.93 525.83 925.48 525.31 C 925.74 530.54 922.41 534.73 920.70 539.40 C 919.54 546.51 923.94 553.24 930.31 556.07 C 928.73 559.55 927.69 563.92 923.91 565.69 C 918.58 568.55 912.04 570.29 908.78 575.84 C 905.34 580.82 906.31 587.42 903.67 592.64 C 899.68 595.04 894.81 595.17 890.37 596.25 C 884.45 586.90 881.32 576.10 879.66 565.24 C 878.71 553.16 879.07 540.96 876.65 529.03 C 881.37 525.46 886.35 522.11 892.13 520.50 C 897.10 518.66 901.21 514.98 906.33 513.47 Z" />
</g>
<g id="#1f9f3fff">
<path fill="#1f9f3f" fill-opacity="0" d=" M 837.76 523.98 C 845.29 521.47 851.50 513.94 860.16 515.65 C 864.82 515.90 865.96 521.04 868.15 524.20 C 869.86 527.26 873.78 527.67 876.65 529.03 C 879.07 540.96 878.71 553.16 879.66 565.24 C 881.32 576.10 884.45 586.90 890.37 596.25 C 889.90 603.40 888.73 610.63 889.78 617.79 C 893.30 628.65 903.72 637.72 902.06 650.05 C 901.59 660.03 895.55 668.41 890.00 676.29 C 881.68 678.61 873.15 677.62 864.69 677.73 C 857.26 678.79 851.68 684.36 846.16 688.96 C 844.10 683.82 841.10 678.61 836.12 675.86 C 827.98 670.11 817.63 673.17 808.48 671.93 C 806.71 664.88 803.10 658.56 798.97 652.66 C 804.00 636.02 808.43 619.21 813.42 602.56 C 815.69 594.53 818.48 586.62 820.08 578.42 C 816.10 573.74 810.37 571.08 805.58 567.36 C 788.62 554.60 770.95 542.83 753.85 530.28 C 758.54 528.02 763.39 525.25 768.77 525.38 C 772.83 525.44 776.23 528.57 780.31 528.33 C 792.18 526.45 802.86 520.00 814.85 518.64 C 818.48 518.18 822.32 518.24 825.67 519.92 C 829.60 521.47 833.46 523.76 837.76 523.98 Z" />
</g>
<g id="#1fdf3fff">
<path fill="#1fdf3f" fill-opacity="0" d=" M 519.66 524.69 C 522.46 522.41 524.55 517.79 528.76 518.17 C 532.52 518.37 534.39 522.26 536.72 524.68 C 538.72 524.82 540.71 525.03 542.70 525.32 C 548.05 525.60 551.39 531.95 549.89 536.77 C 548.18 543.10 545.84 549.25 543.53 555.38 C 546.55 558.63 549.80 561.80 552.05 565.66 C 553.28 569.82 550.89 574.01 551.28 578.21 C 553.24 585.38 558.73 590.67 563.71 595.82 C 565.87 600.61 564.41 606.79 567.93 611.08 C 570.44 614.12 574.94 613.57 578.37 614.34 C 579.55 619.53 581.02 624.69 581.48 630.02 C 580.73 638.50 583.52 646.54 585.50 654.64 C 587.26 661.62 583.20 668.20 580.67 674.44 C 583.14 677.78 586.17 681.21 585.17 685.82 C 584.39 692.64 584.63 699.54 586.01 706.28 C 587.16 709.61 590.01 712.02 591.31 715.29 C 593.51 721.39 594.99 727.75 597.31 733.81 C 599.72 739.81 603.78 744.93 607.10 750.43 C 586.99 754.01 566.40 753.32 546.30 756.90 C 542.43 749.92 543.46 741.68 542.47 734.07 C 542.25 731.56 540.07 729.97 538.55 728.22 C 532.94 722.97 529.62 715.99 525.11 709.90 C 521.41 704.99 517.72 699.96 515.44 694.20 C 513.14 686.42 518.15 678.44 515.89 670.68 C 511.75 661.29 509.59 651.16 504.82 642.04 C 505.43 639.01 506.84 635.87 506.04 632.76 C 504.61 629.43 500.89 627.00 497.30 626.97 C 490.83 629.09 485.20 633.97 478.06 633.93 C 471.93 631.58 466.16 628.42 460.20 625.68 C 460.88 620.43 464.34 614.26 460.39 609.62 C 456.83 605.09 450.21 606.97 445.61 604.35 C 442.92 601.17 440.84 595.68 444.12 592.18 C 448.11 587.42 452.52 583.01 456.45 578.19 C 453.25 575.38 450.25 572.30 446.71 569.92 C 452.20 569.22 457.35 566.96 461.97 563.97 C 465.51 561.77 466.84 557.55 469.73 554.71 C 473.17 551.57 477.99 550.42 481.32 547.12 C 483.52 544.76 485.31 542.03 487.64 539.79 C 491.83 537.30 496.88 536.57 501.70 536.76 C 503.59 535.59 505.49 534.44 507.42 533.32 C 511.85 531.00 516.33 528.53 519.66 524.69 Z" />
</g>
<g id="#df9f3fff">
<path fill="#df9f3f" fill-opacity="0" d=" M 1009.92 527.87 C 1011.82 525.57 1015.24 526.21 1017.56 527.46 C 1022.55 530.41 1027.00 534.21 1031.66 537.65 C 1028.31 547.56 1020.32 554.79 1014.29 563.04 C 1010.37 559.85 1005.78 557.45 1002.36 553.71 C 1000.31 550.28 998.98 546.29 998.63 542.31 C 1001.86 537.15 1005.60 532.19 1009.92 527.87 Z" />
</g>
<g id="#1f5f3fff">
<path fill="#1f5f3f" fill-opacity="0" d=" M 746.22 531.36 C 748.64 530.84 751.45 528.88 753.85 530.28 C 770.95 542.83 788.62 554.60 805.58 567.36 C 810.37 571.08 816.10 573.74 820.08 578.42 C 818.48 586.62 815.69 594.53 813.42 602.56 C 808.43 619.21 804.00 636.02 798.97 652.66 C 792.16 651.07 785.21 650.03 778.24 649.61 C 770.59 649.60 762.36 651.18 755.24 647.62 C 748.91 643.26 748.21 634.42 742.79 629.23 C 738.83 626.22 734.28 624.12 729.95 621.78 C 730.84 618.20 732.64 614.06 730.48 610.59 C 727.59 605.06 719.49 604.86 717.52 598.64 C 715.68 593.63 713.36 588.57 708.61 585.68 C 704.78 574.44 700.89 563.01 692.94 553.91 C 694.07 552.04 695.19 550.17 696.29 548.29 C 698.19 548.39 700.11 548.52 702.03 548.62 C 703.86 546.17 705.25 542.78 708.54 542.05 C 711.79 541.18 715.15 540.85 718.44 540.17 C 717.60 537.52 716.72 534.89 715.83 532.27 C 725.76 535.05 736.58 535.36 746.22 531.36 Z" />
</g>
<g id="#9f5f3fff">
<path fill="#9f5f3f" fill-opacity="0" d=" M 384.78 552.96 C 391.63 550.45 398.93 549.50 406.19 549.28 C 409.03 553.44 411.27 558.36 415.44 561.37 C 420.98 562.21 426.40 559.80 431.85 559.12 C 435.35 564.40 441.03 567.51 446.71 569.92 C 450.25 572.30 453.25 575.38 456.45 578.19 C 452.52 583.01 448.11 587.42 444.12 592.18 C 440.84 595.68 442.92 601.17 445.61 604.35 C 450.21 606.97 456.83 605.09 460.39 609.62 C 464.34 614.26 460.88 620.43 460.20 625.68 C 466.16 628.42 471.93 631.58 478.06 633.93 C 485.20 633.97 490.83 629.09 497.30 626.97 C 500.89 627.00 504.61 629.43 506.04 632.76 C 506.84 635.87 505.43 639.01 504.82 642.04 C 509.59 651.16 511.75 661.29 515.89 670.68 C 518.15 678.44 513.14 686.42 515.44 694.20 C 517.72 699.96 521.41 704.99 525.11 709.90 C 529.62 715.99 532.94 722.97 538.55 728.22 C 535.99 732.07 533.72 736.19 530.50 739.53 C 526.33 742.00 521.17 740.17 516.73 741.77 C 512.13 743.46 508.26 746.62 504.22 749.32 C 500.89 746.95 497.54 743.30 493.06 743.92 C 488.47 744.44 483.86 745.45 479.57 747.15 C 474.11 750.15 469.54 754.49 464.48 758.08 C 460.42 754.74 456.44 751.13 451.53 749.08 C 448.10 747.97 444.41 748.40 440.87 748.36 C 444.70 753.35 449.12 757.89 452.49 763.24 C 446.55 759.34 442.57 753.34 437.74 748.27 C 431.73 741.34 424.61 735.13 420.31 726.92 C 418.16 723.02 419.19 718.44 418.39 714.25 C 417.31 711.62 415.12 709.77 413.20 707.79 C 404.17 699.44 396.55 689.76 388.40 680.58 C 384.48 677.07 384.98 671.58 383.76 666.94 C 380.26 660.31 373.26 656.22 369.79 649.56 C 369.26 644.11 372.00 638.90 371.86 633.47 C 369.74 626.34 366.08 619.60 365.86 611.98 C 364.48 603.55 371.17 597.22 374.19 589.95 C 369.88 584.13 364.33 579.00 361.73 572.09 C 360.13 568.34 357.93 564.88 355.98 561.33 C 361.49 559.91 367.20 561.17 372.76 560.36 C 377.71 559.70 380.77 555.40 384.78 552.96 Z" />
</g>
<g id="#df9fbfff">
<path fill="#df9fbf" fill-opacity="0" d=" M 930.31 556.07 C 932.44 556.43 934.59 556.76 936.79 557.07 C 936.54 562.45 936.45 567.86 936.71 573.25 C 941.47 572.31 946.22 571.22 950.98 570.21 C 960.17 590.82 967.20 612.34 975.67 633.26 C 979.48 645.06 985.38 656.19 988.24 668.30 C 985.35 671.45 981.97 674.61 981.18 679.02 C 979.93 683.63 980.60 688.83 977.96 692.99 C 974.29 697.66 968.56 699.95 963.47 702.67 C 958.45 705.71 952.69 702.54 947.52 701.55 C 943.84 700.33 939.99 701.17 936.36 702.08 C 932.71 698.04 929.34 693.63 924.94 690.38 C 920.42 688.88 915.61 688.85 911.06 687.59 C 903.43 685.08 897.10 679.88 890.00 676.29 C 895.55 668.41 901.59 660.03 902.06 650.05 C 903.72 637.72 893.30 628.65 889.78 617.79 C 888.73 610.63 889.90 603.40 890.37 596.25 C 894.81 595.17 899.68 595.04 903.67 592.64 C 906.31 587.42 905.34 580.82 908.78 575.84 C 912.04 570.29 918.58 568.55 923.91 565.69 C 927.69 563.92 928.73 559.55 930.31 556.07 Z" />
</g>
<g id="#9f1fbfff">
<path fill="#9f1fbf" fill-opacity="0" d=" M 979.37 564.15 C 983.12 564.58 987.24 565.09 990.00 567.96 C 994.06 571.41 997.26 577.38 1003.49 577.03 C 1010.97 577.98 1019.48 577.04 1025.55 582.47 C 1031.39 587.80 1030.47 596.29 1032.99 603.18 C 1038.42 617.84 1049.45 629.27 1057.89 642.16 C 1061.21 647.59 1067.78 651.96 1074.31 650.31 C 1084.67 647.38 1086.79 636.31 1092.83 628.97 C 1099.99 634.92 1106.85 641.30 1111.95 649.17 C 1124.67 665.01 1137.00 682.62 1139.11 703.43 C 1130.08 709.38 1118.31 706.03 1109.01 711.07 C 1104.05 714.54 1102.47 720.88 1099.50 725.87 C 1096.74 724.86 1093.40 724.99 1091.11 722.94 C 1087.13 718.78 1085.02 713.18 1081.14 708.98 C 1074.09 705.52 1065.45 706.87 1058.81 702.17 C 1055.60 699.49 1053.45 695.83 1050.97 692.52 C 1043.17 695.35 1035.73 701.30 1027.00 699.71 C 1019.82 698.53 1011.56 698.56 1006.26 692.76 C 999.38 685.24 995.95 675.20 988.24 668.30 C 985.38 656.19 979.48 645.06 975.67 633.26 C 967.20 612.34 960.17 590.82 950.98 570.21 C 952.84 569.81 954.73 569.42 956.63 569.05 C 960.61 573.43 964.91 577.69 970.27 580.37 C 974.44 581.87 977.87 577.99 981.11 575.99 C 980.52 572.02 979.98 568.10 979.37 564.15 Z" />
</g>
<g id="#5f9fbfff">
<path fill="#5f9fbf" fill-opacity="0" d=" M 708.61 585.68 C 713.36 588.57 715.68 593.63 717.52 598.64 C 719.49 604.86 727.59 605.06 730.48 610.59 C 732.64 614.06 730.84 618.20 729.95 621.78 C 734.28 624.12 738.83 626.22 742.79 629.23 C 748.21 634.42 748.91 643.26 755.24 647.62 C 762.36 651.18 770.59 649.60 778.24 649.61 C 775.15 654.55 772.38 660.12 767.28 663.33 C 761.25 667.59 753.63 668.06 747.04 671.05 C 740.82 673.76 733.72 675.69 729.37 681.30 C 722.94 687.88 718.61 697.58 708.60 699.39 C 699.90 705.10 690.49 710.41 680.02 711.90 C 673.74 712.62 667.23 713.44 661.75 716.85 C 652.18 722.37 650.28 735.44 639.43 739.54 C 630.04 746.70 618.38 748.54 607.10 750.43 C 603.78 744.93 599.72 739.81 597.31 733.81 C 594.99 727.75 593.51 721.39 591.31 715.29 C 590.01 712.02 587.16 709.61 586.01 706.28 C 584.63 699.54 584.39 692.64 585.17 685.82 C 586.17 681.21 583.14 677.78 580.67 674.44 C 583.20 668.20 587.26 661.62 585.50 654.64 C 583.52 646.54 580.73 638.50 581.48 630.02 C 592.18 624.81 603.22 619.90 615.03 617.93 C 618.89 617.31 622.35 619.84 626.15 619.82 C 629.61 619.39 632.45 617.15 635.50 615.67 C 639.90 613.36 645.35 614.24 649.61 611.61 C 651.61 606.31 650.12 600.48 650.06 595.02 C 652.92 593.32 655.85 591.71 658.88 590.33 C 659.70 593.98 660.57 597.63 661.36 601.30 C 665.92 601.84 670.72 603.04 675.24 601.53 C 687.16 598.08 697.35 590.69 708.61 585.68 Z" />
</g>
<g id="#5f1f3fff">
<path fill="#5f1f3f" fill-opacity="0" d=" M 778.24 649.61 C 785.21 650.03 792.16 651.07 798.97 652.66 C 803.10 658.56 806.71 664.88 808.48 671.93 C 817.63 673.17 827.98 670.11 836.12 675.86 C 841.10 678.61 844.10 683.82 846.16 688.96 C 848.63 695.74 849.49 703.20 853.83 709.20 C 857.55 713.89 855.60 720.06 857.02 725.45 C 858.28 728.00 861.20 729.10 863.38 730.74 C 869.90 734.57 873.10 741.76 877.42 747.68 C 881.89 753.59 881.73 761.28 882.68 768.31 C 884.81 785.97 887.94 803.48 890.04 821.14 C 883.59 821.53 877.20 823.85 870.73 823.15 C 865.49 821.37 859.24 819.86 856.19 814.92 C 853.44 805.82 852.20 796.34 849.97 787.11 C 844.46 787.22 838.19 784.81 833.16 788.15 C 830.29 790.65 830.76 794.50 830.39 797.93 C 826.10 799.95 821.63 801.60 816.97 802.53 C 815.45 798.96 814.19 795.29 812.83 791.66 C 807.03 791.34 800.31 790.61 796.80 785.23 C 793.38 780.53 792.53 774.57 790.59 769.21 C 786.88 770.96 782.51 773.29 782.25 778.02 C 780.24 783.78 784.12 792.17 778.56 796.47 C 766.07 805.13 748.78 803.61 736.15 795.97 C 726.96 793.45 719.12 801.56 712.30 806.36 C 708.51 809.00 709.65 814.45 709.42 818.29 C 701.81 821.52 692.27 819.39 686.21 826.11 C 684.82 829.91 685.23 834.10 684.47 838.06 C 679.50 837.47 674.51 836.80 669.53 836.52 C 662.78 835.46 656.52 838.78 650.00 839.61 C 643.61 838.83 637.50 836.10 630.97 836.46 C 623.51 835.98 615.40 838.03 608.63 833.92 C 605.70 839.75 603.58 845.94 600.96 851.91 C 604.05 857.36 611.27 863.00 607.69 869.70 C 604.56 873.74 599.43 875.65 595.63 879.03 C 585.96 865.34 574.45 853.05 564.29 839.75 C 557.38 830.41 547.48 822.62 544.95 810.74 C 543.43 801.41 540.38 791.59 543.59 782.28 C 545.36 777.96 549.34 774.75 550.53 770.18 C 550.37 765.41 548.13 761.16 546.30 756.90 C 566.40 753.32 586.99 754.01 607.10 750.43 C 618.38 748.54 630.04 746.70 639.43 739.54 C 650.28 735.44 652.18 722.37 661.75 716.85 C 667.23 713.44 673.74 712.62 680.02 711.90 C 690.49 710.41 699.90 705.10 708.60 699.39 C 718.61 697.58 722.94 687.88 729.37 681.30 C 733.72 675.69 740.82 673.76 747.04 671.05 C 753.63 668.06 761.25 667.59 767.28 663.33 C 772.38 660.12 775.15 654.55 778.24 649.61 Z" />
</g>
<g id="#1f1fbfff">
<path fill="#1f1fbf" fill-opacity="0" d=" M 981.18 679.02 C 981.97 674.61 985.35 671.45 988.24 668.30 C 995.95 675.20 999.38 685.24 1006.26 692.76 C 1011.56 698.56 1019.82 698.53 1027.00 699.71 C 1035.73 701.30 1043.17 695.35 1050.97 692.52 C 1053.45 695.83 1055.60 699.49 1058.81 702.17 C 1065.45 706.87 1074.09 705.52 1081.14 708.98 C 1085.02 713.18 1087.13 718.78 1091.11 722.94 C 1093.40 724.99 1096.74 724.86 1099.50 725.87 C 1102.47 720.88 1104.05 714.54 1109.01 711.07 C 1118.31 706.03 1130.08 709.38 1139.11 703.43 C 1142.51 709.04 1147.19 713.71 1151.93 718.20 C 1155.58 721.78 1152.80 727.30 1154.32 731.65 C 1156.22 733.48 1158.86 734.18 1161.23 735.21 C 1159.88 739.19 1159.17 743.87 1155.88 746.85 C 1152.40 750.44 1147.35 752.18 1144.35 756.27 C 1141.80 759.58 1138.86 763.11 1134.46 763.73 C 1125.82 766.15 1118.33 757.91 1109.77 759.81 C 1094.68 764.25 1082.96 775.35 1071.53 785.55 C 1067.60 788.88 1064.23 793.51 1058.98 794.79 C 1054.29 796.24 1048.88 795.67 1044.79 798.75 C 1039.97 802.54 1036.79 808.18 1031.37 811.25 C 1027.54 813.64 1022.65 814.13 1019.22 817.11 C 1016.73 821.16 1017.31 826.28 1016.63 830.79 C 1014.81 846.95 1013.05 863.12 1011.06 879.26 C 1006.62 865.30 1008.09 850.01 1001.71 836.65 C 999.85 832.47 1000.83 825.16 995.15 823.88 C 982.23 822.52 969.20 821.77 956.21 821.53 C 940.72 822.23 925.15 822.28 909.85 819.44 C 903.21 817.66 896.60 820.40 890.04 821.14 C 887.94 803.48 884.81 785.97 882.68 768.31 C 881.73 761.28 881.89 753.59 877.42 747.68 C 873.10 741.76 869.90 734.57 863.38 730.74 C 861.20 729.10 858.28 728.00 857.02 725.45 C 855.60 720.06 857.55 713.89 853.83 709.20 C 849.49 703.20 848.63 695.74 846.16 688.96 C 851.68 684.36 857.26 678.79 864.69 677.73 C 873.15 677.62 881.68 678.61 890.00 676.29 C 897.10 679.88 903.43 685.08 911.06 687.59 C 915.61 688.85 920.42 688.88 924.94 690.38 C 929.34 693.63 932.71 698.04 936.36 702.08 C 939.99 701.17 943.84 700.33 947.52 701.55 C 952.69 702.54 958.45 705.71 963.47 702.67 C 968.56 699.95 974.29 697.66 977.96 692.99 C 980.60 688.83 979.93 683.63 981.18 679.02 Z" />
</g>
<g id="#df1f3fff">
<path fill="#df1f3f" fill-opacity="0" d=" M 530.50 739.53 C 533.72 736.19 535.99 732.07 538.55 728.22 C 540.07 729.97 542.25 731.56 542.47 734.07 C 543.46 741.68 542.43 749.92 546.30 756.90 C 548.13 761.16 550.37 765.41 550.53 770.18 C 549.34 774.75 545.36 777.96 543.59 782.28 C 540.38 791.59 543.43 801.41 544.95 810.74 C 547.48 822.62 557.38 830.41 564.29 839.75 C 574.45 853.05 585.96 865.34 595.63 879.03 C 597.29 881.17 596.19 883.82 595.65 886.15 C 590.24 884.19 584.37 882.33 578.59 883.52 C 572.49 884.98 566.11 885.81 560.42 888.55 C 553.40 893.78 551.30 902.55 548.09 910.19 C 542.90 907.55 537.30 905.62 531.41 905.45 C 523.58 904.74 516.63 909.71 511.22 914.85 C 506.17 914.29 501.21 913.01 496.17 912.44 C 492.45 912.08 489.51 914.98 485.96 915.51 C 483.34 915.82 480.64 915.38 478.05 915.39 C 476.90 916.89 475.77 918.41 474.65 919.94 C 452.89 901.11 430.56 882.96 408.65 864.31 C 404.88 861.47 405.16 856.30 403.59 852.27 C 405.79 846.97 410.02 841.16 407.66 835.32 C 405.18 830.76 399.90 828.99 396.04 825.90 C 389.54 821.44 384.64 815.04 377.90 810.90 C 378.15 803.36 385.13 799.59 388.82 793.87 C 392.44 787.66 400.17 786.73 406.35 784.44 C 406.31 776.83 403.73 769.36 404.81 761.71 C 415.70 765.72 422.58 775.72 430.38 783.76 C 434.78 782.32 439.56 781.27 443.14 778.15 C 447.50 774.09 449.91 768.49 452.49 763.24 C 449.12 757.89 444.70 753.35 440.87 748.36 C 444.41 748.40 448.10 747.97 451.53 749.08 C 456.44 751.13 460.42 754.74 464.48 758.08 C 469.54 754.49 474.11 750.15 479.57 747.15 C 483.86 745.45 488.47 744.44 493.06 743.92 C 497.54 743.30 500.89 746.95 504.22 749.32 C 508.26 746.62 512.13 743.46 516.73 741.77 C 521.17 740.17 526.33 742.00 530.50 739.53 Z" />
</g>
<g id="#df1fbfff">
<path fill="#df1fbf" fill-opacity="0" d=" M 1241.25 732.97 C 1248.86 735.12 1256.61 736.79 1264.25 738.85 C 1271.52 742.61 1272.45 751.14 1272.86 758.39 C 1273.73 766.87 1278.78 774.38 1285.40 779.55 C 1292.45 784.75 1301.49 786.20 1308.61 791.34 C 1319.46 799.28 1331.67 806.15 1338.37 818.42 C 1338.60 824.74 1336.43 830.91 1336.69 837.23 C 1337.47 839.82 1339.89 841.46 1341.79 843.25 C 1349.15 849.73 1357.59 854.99 1366.79 858.43 C 1376.26 861.95 1385.22 866.67 1394.65 870.31 C 1402.89 873.33 1413.01 871.77 1419.91 877.95 C 1421.94 883.05 1420.62 889.63 1416.23 893.21 C 1408.15 900.75 1400.39 908.62 1392.32 916.16 C 1379.82 927.34 1368.30 939.58 1355.47 950.39 C 1350.96 953.36 1346.02 955.99 1340.78 957.33 C 1336.36 956.94 1331.44 956.78 1327.58 954.41 C 1324.20 950.34 1321.34 945.65 1316.26 943.48 C 1309.76 940.95 1308.45 932.02 1301.35 930.70 C 1294.66 929.34 1287.98 927.06 1281.11 927.21 C 1276.33 929.60 1271.56 932.13 1266.17 932.89 C 1266.90 929.84 1267.68 926.80 1268.38 923.75 C 1265.39 922.62 1262.06 920.20 1258.83 921.82 C 1251.16 925.46 1246.40 933.80 1237.40 934.89 C 1233.08 930.40 1227.90 926.72 1224.44 921.48 C 1217.08 921.57 1210.00 919.68 1203.24 916.92 C 1196.60 914.22 1192.87 921.75 1187.10 922.86 C 1181.40 922.63 1181.01 915.51 1176.66 913.20 C 1168.51 910.12 1167.75 920.14 1163.06 923.83 C 1154.63 926.42 1145.52 927.88 1138.21 933.13 C 1134.99 935.90 1131.03 933.42 1127.61 932.55 C 1117.03 928.62 1105.72 930.51 1094.75 930.23 C 1088.32 929.81 1083.13 924.96 1081.00 919.09 C 1079.55 916.36 1079.07 912.26 1075.63 911.34 C 1062.12 909.68 1048.90 913.39 1035.77 916.01 C 1032.76 910.01 1028.77 904.55 1026.00 898.43 C 1024.70 892.03 1017.78 891.06 1013.52 887.40 C 1011.54 885.23 1010.93 882.11 1011.06 879.26 C 1013.05 863.12 1014.81 846.95 1016.63 830.79 C 1017.31 826.28 1016.73 821.16 1019.22 817.11 C 1022.65 814.13 1027.54 813.64 1031.37 811.25 C 1036.79 808.18 1039.97 802.54 1044.79 798.75 C 1048.88 795.67 1054.29 796.24 1058.98 794.79 C 1064.23 793.51 1067.60 788.88 1071.53 785.55 C 1082.96 775.35 1094.68 764.25 1109.77 759.81 C 1118.33 757.91 1125.82 766.15 1134.46 763.73 C 1138.86 763.11 1141.80 759.58 1144.35 756.27 C 1147.35 752.18 1152.40 750.44 1155.88 746.85 C 1159.17 743.87 1159.88 739.19 1161.23 735.21 C 1173.48 740.37 1186.71 742.36 1199.59 745.33 C 1209.33 746.96 1219.13 749.61 1229.08 748.26 C 1232.09 748.03 1235.64 747.64 1237.78 745.18 C 1241.13 742.12 1240.61 736.99 1241.25 732.97 Z" />
</g>
</svg>
