<?xml version="1.0" encoding="UTF-8" ?>
<!DOCTYPE svg PUBLIC "-//W3C//DTD SVG 1.1//EN" "http://www.w3.org/Graphics/SVG/1.1/DTD/svg11.dtd">
<svg width="1920pt" height="1080pt" viewBox="0 0 1920 1080" version="1.1" xmlns="http://www.w3.org/2000/svg">
<g id="#bf2f5fff">
<path fill="#bf2f5f" fill-opacity="0" d=" M 989.41 210.39 C 994.53 209.44 999.59 208.17 1004.70 207.17 C 1009.63 214.10 1013.33 221.83 1018.63 228.48 C 1023.42 235.59 1033.56 231.74 1040.47 233.53 C 1040.83 230.67 1041.00 227.70 1042.09 225.00 C 1045.87 222.08 1049.67 225.20 1052.40 227.93 C 1055.63 226.36 1058.78 224.43 1062.34 223.67 C 1065.47 223.52 1068.47 224.77 1071.45 225.58 C 1074.92 220.77 1080.44 218.20 1086.43 218.32 C 1092.36 216.27 1094.49 222.88 1097.62 226.08 C 1097.14 226.33 1096.16 226.83 1095.68 227.08 C 1085.91 231.09 1077.36 237.36 1067.84 241.84 C 1060.10 244.93 1050.85 246.59 1045.57 253.71 C 1044.63 260.94 1052.11 265.79 1052.39 272.83 C 1051.50 278.24 1045.63 280.40 1042.71 284.50 C 1043.46 288.66 1045.73 292.47 1046.22 296.68 C 1044.14 300.09 1040.18 301.58 1037.00 303.70 C 1040.11 307.30 1044.65 309.93 1046.46 314.49 C 1044.11 317.76 1040.80 320.26 1038.82 323.81 C 1034.63 330.89 1033.78 339.41 1034.24 347.47 C 1034.53 353.88 1039.50 358.61 1041.37 364.51 C 1042.23 367.52 1039.73 370.09 1038.43 372.56 C 1029.98 375.86 1023.03 381.99 1014.81 385.72 C 1005.12 389.20 994.62 391.09 984.33 389.89 C 979.23 389.36 974.08 389.18 968.98 388.89 C 968.05 380.33 966.80 371.37 961.96 364.02 C 958.61 359.18 955.10 354.47 951.01 350.22 C 952.16 342.60 957.47 336.76 961.61 330.60 C 965.13 325.47 963.32 318.64 966.46 313.37 C 970.19 309.00 975.17 305.90 980.07 302.96 C 980.10 297.21 978.78 291.60 978.29 285.91 C 979.44 280.14 984.70 276.08 986.18 270.37 C 988.75 263.32 982.85 257.38 982.19 250.65 C 983.65 244.74 990.18 241.49 992.19 236.01 C 990.94 227.71 989.41 219.39 989.44 210.94 L 989.41 210.39 Z" />
</g>
<g id="#3f2fdfff">
<path fill="#3f2fdf" fill-opacity="0" d=" M 989.44 210.94 C 989.41 219.39 990.94 227.71 992.19 236.01 C 990.18 241.49 983.65 244.74 982.19 250.65 C 982.85 257.38 988.75 263.32 986.18 270.37 C 984.70 276.08 979.44 280.14 978.29 285.91 C 978.78 291.60 980.10 297.21 980.07 302.96 C 975.17 305.90 970.19 309.00 966.46 313.37 C 963.32 318.64 965.13 325.47 961.61 330.60 C 957.47 336.76 952.16 342.60 951.01 350.22 C 944.98 349.57 938.17 346.82 932.69 350.75 C 927.77 343.71 922.67 336.50 915.59 331.46 C 912.62 329.23 909.03 326.84 908.63 322.80 C 907.75 316.25 903.77 310.83 901.11 304.94 C 899.06 300.62 899.78 295.55 897.62 291.27 C 890.90 290.00 884.02 292.58 877.23 291.48 C 877.49 288.10 876.94 284.19 879.30 281.39 C 885.42 274.86 895.92 272.17 898.64 262.78 C 902.38 251.15 902.53 238.54 899.05 226.85 C 905.87 229.19 912.45 232.77 919.75 233.41 C 928.50 233.96 937.31 235.09 946.04 233.62 C 954.07 232.76 961.70 236.17 969.59 236.35 C 977.81 233.17 976.62 222.96 978.27 215.84 C 981.94 214.12 985.67 212.47 989.44 210.94 M 943.08 294.31 C 941.65 294.23 941.38 296.68 942.92 296.69 C 944.32 296.76 944.59 294.31 943.08 294.31 Z" />
</g>
<g id="#1faf1fff">
<path fill="#1faf1f" fill-opacity="0" d=" M 878.34 221.60 C 885.66 220.92 892.32 224.60 899.05 226.85 C 902.53 238.54 902.38 251.15 898.64 262.78 C 895.92 272.17 885.42 274.86 879.30 281.39 C 876.94 284.19 877.49 288.10 877.23 291.48 C 868.16 296.40 859.57 302.15 851.29 308.29 C 848.86 310.27 846.04 312.54 845.68 315.88 C 845.08 320.61 846.32 325.68 844.06 330.11 C 841.06 335.75 838.77 341.76 837.63 348.05 C 833.56 341.98 826.34 339.62 821.07 334.90 C 818.15 332.61 818.08 328.69 817.53 325.35 C 815.97 313.66 814.76 301.91 813.36 290.21 C 811.42 282.38 817.92 276.65 822.02 271.01 C 827.55 264.64 828.43 255.87 831.35 248.27 C 834.53 245.36 838.71 243.76 842.07 241.04 C 846.82 237.96 847.40 231.05 852.87 228.77 C 860.97 225.32 869.55 222.61 878.34 221.60 Z" />
</g>
<g id="#7f6f5fff">
<path fill="#7f6f5f" fill-opacity="0" d=" M 1067.84 241.84 C 1077.36 237.36 1085.91 231.09 1095.68 227.08 L 1095.88 226.98 C 1098.38 232.89 1104.12 236.77 1106.03 242.98 C 1110.27 254.39 1104.33 266.51 1106.04 278.15 C 1109.44 283.21 1114.46 287.23 1116.45 293.20 C 1120.31 305.38 1132.81 311.13 1139.99 321.01 C 1144.87 325.71 1146.04 332.63 1145.81 339.10 C 1145.45 343.19 1148.56 346.21 1150.58 349.40 C 1152.88 352.57 1154.28 356.26 1155.36 360.00 C 1149.90 360.47 1144.30 361.70 1138.92 360.10 C 1133.66 358.77 1127.59 356.07 1122.54 359.59 C 1117.70 361.71 1113.68 367.93 1107.90 365.93 C 1103.82 365.07 1099.48 362.21 1095.35 364.29 C 1087.20 368.62 1083.32 378.73 1074.29 381.59 C 1066.11 383.65 1057.85 381.17 1049.74 380.07 C 1045.54 378.28 1041.49 376.02 1038.43 372.56 C 1039.73 370.09 1042.23 367.52 1041.37 364.51 C 1039.50 358.61 1034.53 353.88 1034.24 347.47 C 1033.78 339.41 1034.63 330.89 1038.82 323.81 C 1040.80 320.26 1044.11 317.76 1046.46 314.49 C 1044.65 309.93 1040.11 307.30 1037.00 303.70 C 1040.18 301.58 1044.14 300.09 1046.22 296.68 C 1045.73 292.47 1043.46 288.66 1042.71 284.50 C 1045.63 280.40 1051.50 278.24 1052.39 272.83 C 1052.11 265.79 1044.63 260.94 1045.57 253.71 C 1050.85 246.59 1060.10 244.93 1067.84 241.84 Z" />
</g>
<g id="#9faf1fff">
<path fill="#9faf1f" fill-opacity="0" d=" M 877.23 291.48 C 884.02 292.58 890.90 290.00 897.62 291.27 C 899.78 295.55 899.06 300.62 901.11 304.94 C 903.77 310.83 907.75 316.25 908.63 322.80 C 909.03 326.84 912.62 329.23 915.59 331.46 C 922.67 336.50 927.77 343.71 932.69 350.75 C 930.75 351.90 928.99 353.41 926.86 354.16 C 921.27 353.29 916.77 348.89 911.10 348.27 C 903.95 350.88 899.25 357.83 891.90 360.14 C 883.59 362.35 875.01 363.38 866.43 363.71 C 860.00 363.95 853.60 365.65 848.23 369.26 C 843.74 371.76 842.94 377.32 840.29 381.34 C 839.57 370.24 837.10 359.18 837.63 348.05 C 838.77 341.76 841.06 335.75 844.06 330.11 C 846.32 325.68 845.08 320.61 845.68 315.88 C 846.04 312.54 848.86 310.27 851.29 308.29 C 859.57 302.15 868.16 296.40 877.23 291.48 Z" />
</g>
<g id="#bfaf5fff">
<path fill="#bfaf5f" fill-opacity="0" d=" M 943.08 294.31 C 944.59 294.31 944.32 296.76 942.92 296.69 C 941.38 296.68 941.65 294.23 943.08 294.31 Z" />
</g>
<g id="#006fdfff">
<path fill="#006fdf" fill-opacity="0" d=" M 891.90 360.14 C 899.25 357.83 903.95 350.88 911.10 348.27 C 916.77 348.89 921.27 353.29 926.86 354.16 C 928.99 353.41 930.75 351.90 932.69 350.75 C 938.17 346.82 944.98 349.57 951.01 350.22 C 955.10 354.47 958.61 359.18 961.96 364.02 C 966.80 371.37 968.05 380.33 968.98 388.89 C 970.03 401.15 971.13 416.74 960.47 425.51 C 954.03 431.16 944.89 428.19 938.21 424.69 C 933.42 422.03 927.19 420.20 922.10 423.11 C 917.50 425.91 914.93 431.34 909.78 433.31 C 904.48 434.42 899.01 433.10 893.76 432.46 C 885.91 430.90 878.87 435.78 871.24 436.47 C 861.93 437.49 852.80 433.17 846.52 426.48 C 840.54 419.16 835.73 410.90 832.28 402.11 C 835.07 395.22 835.88 387.50 840.29 381.34 C 842.94 377.32 843.74 371.76 848.23 369.26 C 853.60 365.65 860.00 363.95 866.43 363.71 C 875.01 363.38 883.59 362.35 891.90 360.14 Z" />
</g>
<g id="#3faf5fff">
<path fill="#3faf5f" fill-opacity="0" d=" M 1122.54 359.59 C 1127.59 356.07 1133.66 358.77 1138.92 360.10 C 1144.30 361.70 1149.90 360.47 1155.36 360.00 C 1153.85 368.29 1152.77 376.66 1151.00 384.91 C 1149.37 396.55 1148.13 408.28 1145.14 419.69 C 1136.41 418.51 1128.95 425.79 1124.28 432.25 C 1119.80 438.32 1115.93 448.32 1106.81 447.66 C 1095.92 448.52 1090.67 437.16 1087.59 428.59 C 1091.26 426.65 1095.61 423.87 1094.90 418.89 C 1095.49 415.32 1094.72 411.74 1094.15 408.23 C 1086.68 410.83 1080.11 415.32 1074.59 420.94 C 1072.20 418.92 1069.40 417.18 1067.73 414.48 C 1066.78 410.73 1068.81 406.85 1067.83 403.07 C 1065.07 393.33 1057.54 386.04 1049.74 380.07 C 1057.85 381.17 1066.11 383.65 1074.29 381.59 C 1083.32 378.73 1087.20 368.62 1095.35 364.29 C 1099.48 362.21 1103.82 365.07 1107.90 365.93 C 1113.68 367.93 1117.70 361.71 1122.54 359.59 Z" />
</g>
<g id="#3fafdfff">
<path fill="#3fafdf" fill-opacity="0" d=" M 1014.81 385.72 C 1023.03 381.99 1029.98 375.86 1038.43 372.56 C 1041.49 376.02 1045.54 378.28 1049.74 380.07 C 1057.54 386.04 1065.07 393.33 1067.83 403.07 C 1068.81 406.85 1066.78 410.73 1067.73 414.48 C 1069.40 417.18 1072.20 418.92 1074.59 420.94 C 1080.11 415.32 1086.68 410.83 1094.15 408.23 C 1094.72 411.74 1095.49 415.32 1094.90 418.89 C 1095.61 423.87 1091.26 426.65 1087.59 428.59 C 1083.90 430.39 1079.11 430.93 1077.31 435.10 C 1072.46 446.39 1061.23 453.73 1049.86 457.31 C 1045.96 457.57 1041.08 455.62 1037.89 458.78 C 1034.55 461.60 1031.70 465.49 1027.25 466.58 C 1020.16 468.06 1012.51 467.08 1005.83 470.39 C 1001.01 472.32 996.54 475.34 991.22 475.77 C 986.57 473.61 984.09 468.76 979.98 465.91 C 972.85 461.99 964.48 461.26 957.27 457.56 C 951.16 455.13 945.61 449.02 938.53 449.79 C 933.83 451.73 930.66 456.28 928.15 460.54 C 925.69 458.55 922.95 455.22 919.41 456.38 C 911.65 459.26 909.06 469.25 900.88 471.29 C 899.59 471.65 898.29 471.93 897.01 472.23 C 898.91 458.86 897.38 445.39 893.76 432.46 C 899.01 433.10 904.48 434.42 909.78 433.31 C 914.93 431.34 917.50 425.91 922.10 423.11 C 927.19 420.20 933.42 422.03 938.21 424.69 C 944.89 428.19 954.03 431.16 960.47 425.51 C 971.13 416.74 970.03 401.15 968.98 388.89 C 974.08 389.18 979.23 389.36 984.33 389.89 C 994.62 391.09 1005.12 389.20 1014.81 385.72 Z" />
</g>
<g id="#3fef5fff">
<path fill="#3fef5f" fill-opacity="0" d=" M 832.28 402.11 C 835.73 410.90 840.54 419.16 846.52 426.48 C 852.80 433.17 861.93 437.49 871.24 436.47 C 878.87 435.78 885.91 430.90 893.76 432.46 C 897.38 445.39 898.91 458.86 897.01 472.23 C 898.29 471.93 899.59 471.65 900.88 471.29 C 909.06 469.25 911.65 459.26 919.41 456.38 C 922.95 455.22 925.69 458.55 928.15 460.54 C 925.49 466.02 923.50 472.43 918.20 476.06 C 912.29 479.86 905.22 481.49 899.45 485.48 C 893.59 489.66 893.20 497.35 890.07 503.29 C 886.13 510.06 880.28 516.64 872.03 517.70 C 861.43 519.58 849.97 518.46 840.13 514.01 C 835.27 509.73 830.70 503.02 823.48 503.88 C 817.81 504.60 812.08 504.69 806.38 504.30 C 805.77 499.10 804.98 493.92 804.59 488.70 C 799.54 488.34 793.91 488.42 789.74 485.16 C 786.37 483.05 783.38 480.16 779.56 478.88 C 775.58 477.97 771.53 479.16 767.62 479.88 C 766.21 476.85 764.08 473.82 764.34 470.34 C 765.97 460.65 773.57 453.74 777.56 445.07 L 777.76 444.68 C 783.92 447.92 790.54 445.41 796.70 443.51 C 796.55 440.20 796.44 436.88 796.31 433.58 C 802.23 431.32 808.43 429.32 813.65 425.62 C 817.22 422.00 817.12 416.21 820.16 412.19 C 823.36 407.93 828.04 405.19 832.28 402.11 Z" />
</g>
<g id="#bfef5fff">
<path fill="#bfef5f" fill-opacity="0" d=" M 1124.28 432.25 C 1128.95 425.79 1136.41 418.51 1145.14 419.69 C 1155.66 423.70 1167.06 429.26 1171.86 440.08 C 1174.74 452.25 1167.92 463.84 1166.84 475.87 C 1161.08 478.85 1155.80 482.79 1150.92 487.04 C 1147.12 493.14 1151.52 501.35 1147.78 507.62 C 1145.15 512.42 1140.29 517.41 1134.21 515.99 C 1123.55 515.27 1112.92 514.39 1102.24 514.44 C 1096.17 514.48 1089.73 512.35 1084.11 515.46 C 1083.65 511.64 1083.56 507.35 1080.64 504.44 C 1075.94 499.38 1069.85 495.86 1064.96 491.00 C 1065.42 484.88 1067.52 478.15 1064.70 472.27 C 1060.55 466.55 1054.63 462.47 1049.86 457.31 C 1061.23 453.73 1072.46 446.39 1077.31 435.10 C 1079.11 430.93 1083.90 430.39 1087.59 428.59 C 1090.67 437.16 1095.92 448.52 1106.81 447.66 C 1115.93 448.32 1119.80 438.32 1124.28 432.25 Z" />
</g>
<g id="#3f6fdfff">
<path fill="#3f6fdf" fill-opacity="0" d=" M 758.38 443.50 C 764.75 442.57 771.84 441.06 777.56 445.07 C 773.57 453.74 765.97 460.65 764.34 470.34 C 764.08 473.82 766.21 476.85 767.62 479.88 C 771.53 479.16 775.58 477.97 779.56 478.88 C 783.38 480.16 786.37 483.05 789.74 485.16 C 793.91 488.42 799.54 488.34 804.59 488.70 C 804.98 493.92 805.77 499.10 806.38 504.30 C 812.08 504.69 817.81 504.60 823.48 503.88 C 830.70 503.02 835.27 509.73 840.13 514.01 C 840.83 516.88 842.08 520.05 840.89 522.97 C 838.56 527.36 835.21 531.10 831.77 534.65 C 823.77 538.82 816.06 543.48 808.82 548.87 C 803.53 553.12 795.07 551.03 791.05 557.03 C 788.59 561.29 790.11 566.62 787.88 571.00 C 784.13 578.42 778.01 584.70 776.22 593.08 C 775.57 598.55 771.81 602.58 767.26 605.20 C 765.59 600.68 764.26 596.01 762.13 591.68 C 758.82 585.75 754.28 580.49 752.15 573.94 C 747.93 563.74 748.13 552.11 742.59 542.40 C 738.82 534.37 733.45 526.98 731.41 518.24 C 729.03 508.77 726.87 499.26 724.50 489.79 C 721.48 479.63 726.97 469.30 731.61 460.54 C 738.29 452.18 747.53 445.02 758.38 443.50 Z" />
</g>
<g id="#9f2f1fff">
<path fill="#9f2f1f" fill-opacity="0" d=" M 928.15 460.54 C 930.66 456.28 933.83 451.73 938.53 449.79 C 945.61 449.02 951.16 455.13 957.27 457.56 C 964.48 461.26 972.85 461.99 979.98 465.91 C 984.09 468.76 986.57 473.61 991.22 475.77 C 996.54 475.34 1001.01 472.32 1005.83 470.39 C 1012.51 467.08 1020.16 468.06 1027.25 466.58 C 1031.70 465.49 1034.55 461.60 1037.89 458.78 C 1041.08 455.62 1045.96 457.57 1049.86 457.31 C 1054.63 462.47 1060.55 466.55 1064.70 472.27 C 1067.52 478.15 1065.42 484.88 1064.96 491.00 C 1069.85 495.86 1075.94 499.38 1080.64 504.44 C 1083.56 507.35 1083.65 511.64 1084.11 515.46 C 1079.01 518.32 1073.50 521.00 1069.83 525.72 C 1067.30 528.91 1065.05 532.36 1062.10 535.21 C 1058.48 537.59 1054.29 539.11 1050.99 541.94 C 1048.77 546.28 1050.50 551.95 1046.72 555.63 C 1041.46 559.23 1034.72 558.39 1028.70 558.48 C 1011.25 557.92 993.39 556.58 977.07 549.87 C 970.44 547.47 963.75 545.25 957.12 542.87 C 957.78 531.24 954.76 519.79 952.06 508.59 C 947.68 503.52 940.02 502.51 935.29 497.68 C 928.92 491.00 924.73 482.60 918.20 476.06 C 923.50 472.43 925.49 466.02 928.15 460.54 Z" />
</g>
<g id="#1f2f1fff">
<path fill="#1f2f1f" fill-opacity="0" d=" M 1166.84 475.87 C 1170.75 474.08 1175.06 474.96 1179.18 475.19 C 1180.23 483.52 1179.45 492.45 1183.98 499.93 C 1189.00 507.65 1184.73 516.76 1185.95 524.95 C 1190.22 528.30 1199.23 525.00 1201.35 531.65 C 1202.19 537.00 1199.17 542.15 1198.27 547.32 C 1195.12 557.07 1195.31 568.17 1188.40 576.38 C 1185.40 580.29 1180.22 581.04 1176.08 583.18 C 1169.80 585.59 1164.36 589.90 1160.14 595.09 C 1157.09 601.16 1157.00 608.25 1154.25 614.46 C 1152.11 619.17 1150.35 624.14 1147.37 628.39 C 1142.47 634.62 1133.50 633.02 1126.48 633.78 C 1126.45 630.15 1126.99 626.49 1126.74 622.88 C 1125.45 618.31 1121.92 614.57 1121.19 609.82 C 1121.11 606.17 1121.76 602.58 1121.85 598.95 C 1118.47 593.42 1115.30 587.71 1111.21 582.69 C 1105.16 575.99 1093.77 583.40 1087.96 576.13 C 1082.61 571.44 1077.32 566.68 1072.55 561.40 C 1068.59 557.32 1070.17 550.99 1069.18 545.93 C 1068.80 541.41 1064.81 538.44 1062.10 535.21 C 1065.05 532.36 1067.30 528.91 1069.83 525.72 C 1073.50 521.00 1079.01 518.32 1084.11 515.46 C 1089.73 512.35 1096.17 514.48 1102.24 514.44 C 1112.92 514.39 1123.55 515.27 1134.21 515.99 C 1140.29 517.41 1145.15 512.42 1147.78 507.62 C 1151.52 501.35 1147.12 493.14 1150.92 487.04 C 1155.80 482.79 1161.08 478.85 1166.84 475.87 M 1141.01 544.68 C 1141.07 546.27 1141.15 547.86 1141.24 549.46 C 1142.63 548.38 1144.01 547.28 1145.39 546.18 C 1143.92 545.67 1142.46 545.16 1141.01 544.68 Z" />
</g>
<g id="#bf6fdfff">
<path fill="#bf6fdf" fill-opacity="0" d=" M 899.45 485.48 C 905.22 481.49 912.29 479.86 918.20 476.06 C 924.73 482.60 928.92 491.00 935.29 497.68 C 940.02 502.51 947.68 503.52 952.06 508.59 C 954.76 519.79 957.78 531.24 957.12 542.87 C 950.64 547.35 942.99 552.10 940.58 560.12 C 941.31 568.28 948.71 573.10 951.72 580.17 C 953.56 587.27 950.62 594.47 950.52 601.63 C 950.54 611.21 947.11 620.54 940.85 627.80 C 933.73 630.96 927.00 635.21 919.33 636.93 C 903.41 641.24 887.16 634.66 873.19 627.37 C 880.55 621.44 883.90 610.05 878.10 602.00 C 871.39 592.16 859.07 589.62 849.16 584.47 C 843.12 578.04 843.00 568.19 837.91 561.12 C 834.40 555.90 829.41 551.26 828.42 544.81 C 827.76 541.08 829.72 537.60 831.77 534.65 C 835.21 531.10 838.56 527.36 840.89 522.97 C 842.08 520.05 840.83 516.88 840.13 514.01 C 849.97 518.46 861.43 519.58 872.03 517.70 C 880.28 516.64 886.13 510.06 890.07 503.29 C 893.20 497.35 893.59 489.66 899.45 485.48 Z" />
</g>
<g id="#3fefdffe">
<path fill="#3fefdf" fill-opacity="0" d=" M 808.82 548.87 C 816.06 543.48 823.77 538.82 831.77 534.65 C 829.72 537.60 827.76 541.08 828.42 544.81 C 829.41 551.26 834.40 555.90 837.91 561.12 C 843.00 568.19 843.12 578.04 849.16 584.47 C 859.07 589.62 871.39 592.16 878.10 602.00 C 883.90 610.05 880.55 621.44 873.19 627.37 C 865.90 623.69 858.97 617.75 850.29 618.28 C 844.79 621.29 842.82 627.98 839.90 633.18 C 836.81 639.02 829.23 640.24 825.55 645.50 C 823.74 650.02 825.79 654.91 825.10 659.57 C 824.02 662.62 821.19 664.58 819.07 666.88 C 813.93 666.54 807.90 667.23 804.21 662.83 C 794.75 654.79 792.99 641.70 786.15 631.91 C 782.31 628.99 777.04 628.46 772.38 629.24 C 765.80 630.28 759.11 629.93 752.51 629.31 C 752.83 623.91 753.87 618.49 756.88 613.90 C 758.76 609.48 763.66 607.90 767.26 605.20 C 771.81 602.58 775.57 598.55 776.22 593.08 C 778.01 584.70 784.13 578.42 787.88 571.00 C 790.11 566.62 788.59 561.29 791.05 557.03 C 795.07 551.03 803.53 553.12 808.82 548.87 Z" />
</g>
<g id="#1f2f9fff">
<path fill="#1f2f9f" fill-opacity="0" d=" M 1050.99 541.94 C 1054.29 539.11 1058.48 537.59 1062.10 535.21 C 1064.81 538.44 1068.80 541.41 1069.18 545.93 C 1070.17 550.99 1068.59 557.32 1072.55 561.40 C 1077.32 566.68 1082.61 571.44 1087.96 576.13 C 1093.77 583.40 1105.16 575.99 1111.21 582.69 C 1115.30 587.71 1118.47 593.42 1121.85 598.95 C 1118.14 603.18 1114.27 607.27 1110.65 611.58 C 1108.14 610.29 1105.60 609.11 1103.11 607.82 C 1098.64 612.09 1094.37 616.58 1091.06 621.84 C 1086.68 620.49 1082.27 619.08 1077.93 617.74 C 1073.60 621.23 1068.13 623.79 1065.14 628.65 C 1063.49 634.18 1064.59 640.10 1064.25 645.79 C 1060.76 647.21 1057.30 648.71 1053.88 650.24 C 1042.11 643.12 1035.80 629.66 1023.22 623.71 C 1017.53 620.77 1010.89 619.97 1004.59 620.80 C 998.31 622.12 993.41 626.66 987.59 629.11 C 985.81 629.84 983.73 629.84 982.05 628.88 C 976.55 625.85 971.49 621.72 965.13 620.59 C 960.04 621.56 956.30 625.63 951.72 627.81 C 948.37 629.85 944.39 628.31 940.85 627.80 C 947.11 620.54 950.54 611.21 950.52 601.63 C 950.62 594.47 953.56 587.27 951.72 580.17 C 948.71 573.10 941.31 568.28 940.58 560.12 C 942.99 552.10 950.64 547.35 957.12 542.87 C 963.75 545.25 970.44 547.47 977.07 549.87 C 993.39 556.58 1011.25 557.92 1028.70 558.48 C 1034.72 558.39 1041.46 559.23 1046.72 555.63 C 1050.50 551.95 1048.77 546.28 1050.99 541.94 Z" />
</g>
<g id="#bfefdfff">
<path fill="#bfefdf" fill-opacity="0" d=" M 1141.01 544.68 C 1142.46 545.16 1143.92 545.67 1145.39 546.18 C 1144.01 547.28 1142.63 548.38 1141.24 549.46 C 1141.15 547.86 1141.07 546.27 1141.01 544.68 Z" />
</g>
<g id="#bf6f5ffe">
<path fill="#bf6f5f" fill-opacity="0" d=" M 1110.65 611.58 C 1114.27 607.27 1118.14 603.18 1121.85 598.95 C 1121.76 602.58 1121.11 606.17 1121.19 609.82 C 1121.92 614.57 1125.45 618.31 1126.74 622.88 C 1126.99 626.49 1126.45 630.15 1126.48 633.78 C 1126.41 640.44 1129.62 647.24 1135.58 650.54 C 1136.73 645.82 1137.85 641.10 1139.19 636.44 C 1144.33 634.54 1149.02 631.66 1154.03 629.46 C 1156.94 629.91 1159.47 631.57 1162.08 632.87 C 1161.04 637.46 1159.91 642.03 1159.44 646.73 C 1161.71 651.19 1166.36 653.72 1169.49 657.52 C 1160.36 659.64 1152.16 665.33 1147.16 673.28 C 1141.67 681.77 1129.23 678.53 1122.97 685.98 C 1119.98 689.14 1119.06 694.52 1121.95 698.03 C 1130.58 705.68 1141.46 710.21 1149.95 718.06 C 1161.71 727.19 1172.18 738.07 1179.68 751.00 C 1173.23 748.74 1167.03 745.71 1160.40 744.01 C 1154.08 743.19 1148.03 746.77 1141.76 746.41 C 1137.00 744.54 1133.02 739.26 1127.39 740.68 C 1123.50 742.94 1121.09 747.02 1117.30 749.43 C 1114.63 751.44 1111.07 750.01 1108.03 750.03 C 1104.64 749.43 1101.37 750.67 1098.09 751.24 C 1093.38 752.75 1088.67 751.21 1084.10 750.13 C 1082.56 758.37 1081.63 766.72 1079.66 774.88 C 1079.15 775.16 1078.14 775.74 1077.64 776.02 C 1071.69 771.06 1064.18 768.67 1057.05 766.00 L 1057.15 765.48 C 1059.40 751.12 1062.42 736.65 1062.13 722.06 C 1058.57 714.10 1050.85 708.71 1047.83 700.45 C 1045.64 694.39 1042.51 688.73 1039.00 683.35 C 1038.81 676.73 1038.14 670.12 1038.44 663.48 C 1044.37 660.18 1051.07 656.88 1053.88 650.24 C 1057.30 648.71 1060.76 647.21 1064.25 645.79 C 1064.59 640.10 1063.49 634.18 1065.14 628.65 C 1068.13 623.79 1073.60 621.23 1077.93 617.74 C 1082.27 619.08 1086.68 620.49 1091.06 621.84 C 1094.37 616.58 1098.64 612.09 1103.11 607.82 C 1105.60 609.11 1108.14 610.29 1110.65 611.58 M 1116.87 684.78 C 1116.57 686.78 1116.63 688.80 1116.69 690.83 C 1117.95 689.32 1119.25 687.83 1120.21 686.10 C 1119.11 685.58 1118.00 685.14 1116.87 684.78 Z" />
</g>
<g id="#7fefdfff">
<path fill="#7fefdf" fill-opacity="0" d=" M 850.29 618.28 C 858.97 617.75 865.90 623.69 873.19 627.37 C 887.16 634.66 903.41 641.24 919.33 636.93 C 927.00 635.21 933.73 630.96 940.85 627.80 C 940.56 631.00 940.95 634.37 939.89 637.45 C 935.45 644.36 928.43 649.28 924.44 656.53 C 922.08 662.66 928.75 666.06 932.11 670.03 C 938.07 675.17 932.40 684.18 936.88 690.10 C 942.73 701.40 959.78 699.71 965.01 711.47 C 966.75 722.14 965.27 733.10 965.24 743.87 C 960.44 744.81 955.52 745.87 951.64 749.03 C 950.77 748.76 949.92 748.51 949.07 748.27 C 948.39 739.39 950.56 730.31 948.91 721.53 C 945.91 718.62 941.90 716.94 938.78 714.14 C 933.96 710.03 930.33 704.61 924.98 701.10 C 919.85 697.92 913.13 698.07 907.87 700.85 C 902.70 702.96 897.30 708.21 898.44 714.22 C 899.80 721.16 904.61 726.68 908.85 732.11 C 901.55 732.24 892.56 735.48 890.49 743.17 C 889.40 746.71 889.60 750.47 889.94 754.11 C 882.43 746.99 874.88 736.50 863.12 738.07 C 856.53 740.74 853.74 748.97 846.64 750.76 C 842.65 751.61 840.30 747.41 837.80 745.08 C 840.60 736.31 846.14 728.63 848.40 719.67 C 850.24 710.68 851.91 701.22 848.85 692.27 C 846.93 683.72 839.71 677.81 832.70 673.28 C 828.36 670.74 824.06 667.91 819.07 666.88 C 821.19 664.58 824.02 662.62 825.10 659.57 C 825.79 654.91 823.74 650.02 825.55 645.50 C 829.23 640.24 836.81 639.02 839.90 633.18 C 842.82 627.98 844.79 621.29 850.29 618.28 M 873.04 705.74 C 873.04 706.62 873.04 708.38 873.04 709.26 C 874.38 708.88 875.74 708.49 877.10 708.10 L 877.10 706.90 C 875.74 706.49 874.38 706.10 873.04 705.74 Z" />
</g>
<g id="#7f6fdfff">
<path fill="#7f6fdf" fill-opacity="0" d=" M 951.72 627.81 C 956.30 625.63 960.04 621.56 965.13 620.59 C 971.49 621.72 976.55 625.85 982.05 628.88 C 983.73 629.84 985.81 629.84 987.59 629.11 C 993.41 626.66 998.31 622.12 1004.59 620.80 C 1010.89 619.97 1017.53 620.77 1023.22 623.71 C 1035.80 629.66 1042.11 643.12 1053.88 650.24 C 1051.07 656.88 1044.37 660.18 1038.44 663.48 C 1038.14 670.12 1038.81 676.73 1039.00 683.35 C 1035.07 684.26 1031.07 684.94 1027.12 685.65 C 1025.69 688.78 1024.15 691.88 1022.37 694.84 C 1021.31 689.34 1021.80 683.49 1019.60 678.26 C 1017.90 675.52 1014.73 674.08 1012.41 672.01 C 1006.77 682.90 998.95 692.61 994.65 704.19 C 993.60 706.10 992.35 707.89 991.23 709.76 C 990.12 709.62 989.02 709.47 987.94 709.34 C 987.23 719.22 987.84 730.66 979.91 737.89 C 976.36 742.38 970.43 742.92 965.24 743.87 C 965.27 733.10 966.75 722.14 965.01 711.47 C 959.78 699.71 942.73 701.40 936.88 690.10 C 932.40 684.18 938.07 675.17 932.11 670.03 C 928.75 666.06 922.08 662.66 924.44 656.53 C 928.43 649.28 935.45 644.36 939.89 637.45 C 940.95 634.37 940.56 631.00 940.85 627.80 C 944.39 628.31 948.37 629.85 951.72 627.81 Z" />
</g>
<g id="#7fef5fff">
<path fill="#7fef5f" fill-opacity="0" d=" M 772.38 629.24 C 777.04 628.46 782.31 628.99 786.15 631.91 C 792.99 641.70 794.75 654.79 804.21 662.83 C 807.90 667.23 813.93 666.54 819.07 666.88 C 824.06 667.91 828.36 670.74 832.70 673.28 C 839.71 677.81 846.93 683.72 848.85 692.27 C 851.91 701.22 850.24 710.68 848.40 719.67 C 846.14 728.63 840.60 736.31 837.80 745.08 C 835.68 750.98 834.15 757.21 830.64 762.50 C 826.12 769.31 821.99 777.75 813.80 780.72 C 808.65 782.95 802.18 781.66 797.88 785.81 C 791.14 792.11 784.99 800.51 785.02 810.11 C 786.48 822.73 792.05 834.48 794.00 847.03 C 786.33 849.82 779.12 854.10 771.03 855.60 C 763.36 856.22 758.42 848.16 756.35 841.81 C 753.88 832.88 749.78 824.33 749.22 814.98 C 749.18 807.47 759.18 802.96 757.00 795.11 C 755.50 787.25 752.31 779.85 749.94 772.24 C 751.32 771.40 752.72 770.57 754.12 769.74 C 750.10 757.25 749.06 743.96 744.19 731.78 C 739.34 727.00 732.60 724.15 729.14 717.89 C 722.91 706.05 719.49 692.88 716.15 680.00 C 714.21 674.63 718.60 670.19 719.90 665.30 C 721.93 657.30 716.97 649.28 718.70 641.28 C 721.31 634.26 729.93 631.53 736.80 633.48 C 740.84 634.70 744.70 636.56 748.91 637.22 C 749.96 634.57 751.00 631.92 751.99 629.26 L 752.51 629.31 C 759.11 629.93 765.80 630.28 772.38 629.24 Z" />
</g>
<g id="#bfafdffe">
<path fill="#bfafdf" fill-opacity="0" d=" M 1147.16 673.28 C 1152.16 665.33 1160.36 659.64 1169.49 657.52 C 1175.53 660.53 1180.03 665.90 1183.42 671.63 C 1186.50 677.48 1193.80 678.00 1199.39 680.26 C 1200.60 688.06 1202.33 695.94 1206.09 702.96 C 1209.27 709.95 1214.51 717.14 1212.23 725.27 C 1209.05 734.67 1205.50 743.94 1202.40 753.37 C 1201.27 756.44 1200.35 759.71 1198.30 762.32 C 1191.20 768.18 1180.93 767.76 1173.99 773.85 C 1175.99 766.29 1179.75 758.94 1179.68 751.00 C 1172.18 738.07 1161.71 727.19 1149.95 718.06 C 1141.46 710.21 1130.58 705.68 1121.95 698.03 C 1119.06 694.52 1119.98 689.14 1122.97 685.98 C 1129.23 678.53 1141.67 681.77 1147.16 673.28 Z" />
</g>
<g id="#00ef5fff">
<path fill="#00ef5f" fill-opacity="0" d=" M 994.65 704.19 C 998.95 692.61 1006.77 682.90 1012.41 672.01 C 1014.73 674.08 1017.90 675.52 1019.60 678.26 C 1021.80 683.49 1021.31 689.34 1022.37 694.84 C 1024.15 691.88 1025.69 688.78 1027.12 685.65 C 1031.07 684.94 1035.07 684.26 1039.00 683.35 C 1042.51 688.73 1045.64 694.39 1047.83 700.45 C 1050.85 708.71 1058.57 714.10 1062.13 722.06 C 1062.42 736.65 1059.40 751.12 1057.15 765.48 C 1052.88 769.09 1053.54 775.30 1052.71 780.25 C 1052.00 788.87 1051.55 798.56 1044.99 805.02 C 1042.46 807.70 1038.56 806.60 1035.46 805.84 C 1029.81 805.06 1025.09 801.74 1020.84 798.20 C 1013.82 792.57 1005.42 788.37 999.72 781.27 C 993.86 769.70 998.42 756.63 997.17 744.48 C 992.48 731.55 995.18 717.58 994.65 704.19 Z" />
</g>
<g id="#3f6f5ffe">
<path fill="#3f6f5f" fill-opacity="0" d=" M 1116.87 684.78 C 1118.00 685.14 1119.11 685.58 1120.21 686.10 C 1119.25 687.83 1117.95 689.32 1116.69 690.83 C 1116.63 688.80 1116.57 686.78 1116.87 684.78 Z" />
</g>
<g id="#3f2f5fff">
<path fill="#3f2f5f" fill-opacity="0" d=" M 907.87 700.85 C 913.13 698.07 919.85 697.92 924.98 701.10 C 930.33 704.61 933.96 710.03 938.78 714.14 C 941.90 716.94 945.91 718.62 948.91 721.53 C 950.56 730.31 948.39 739.39 949.07 748.27 C 949.92 748.51 950.77 748.76 951.64 749.03 C 961.13 751.90 973.65 755.73 976.27 766.65 C 976.92 780.25 977.85 794.53 972.74 807.45 C 969.09 806.41 965.52 805.12 962.13 803.43 C 961.67 803.62 960.76 803.99 960.30 804.17 C 960.26 811.84 961.35 819.56 960.27 827.19 C 959.12 832.67 953.99 835.88 949.47 838.45 C 945.64 832.37 941.77 826.34 937.80 820.38 C 929.88 823.69 924.30 830.48 916.84 834.57 C 912.45 831.52 909.99 826.75 908.96 821.58 C 906.29 816.68 900.47 814.02 895.00 814.43 L 894.94 813.97 C 893.43 797.38 890.21 780.83 890.87 764.13 C 890.67 760.75 890.25 757.45 889.94 754.11 C 889.60 750.47 889.40 746.71 890.49 743.17 C 892.56 735.48 901.55 732.24 908.85 732.11 C 904.61 726.68 899.80 721.16 898.44 714.22 C 897.30 708.21 902.70 702.96 907.87 700.85 Z" />
</g>
<g id="#00efdfff">
<path fill="#00efdf" fill-opacity="0" d=" M 873.04 705.74 C 874.38 706.10 875.74 706.49 877.10 706.90 L 877.10 708.10 C 875.74 708.49 874.38 708.88 873.04 709.26 C 873.04 708.38 873.04 706.62 873.04 705.74 Z" />
</g>
<g id="#bf2fdfff">
<path fill="#bf2fdf" fill-opacity="0" d=" M 846.64 750.76 C 853.74 748.97 856.53 740.74 863.12 738.07 C 874.88 736.50 882.43 746.99 889.94 754.11 C 890.25 757.45 890.67 760.75 890.87 764.13 C 890.21 780.83 893.43 797.38 894.94 813.97 C 890.01 816.10 885.02 818.38 881.13 822.17 C 879.40 823.87 879.25 826.48 879.43 828.76 C 880.37 839.81 883.67 850.64 882.80 861.84 C 879.70 866.68 873.32 870.81 867.51 869.46 C 861.06 863.36 856.60 854.55 847.97 851.04 C 839.75 848.29 831.81 853.30 823.83 854.47 C 818.62 854.19 813.88 851.26 808.58 851.37 C 803.28 851.81 798.47 849.50 794.00 847.03 C 792.05 834.48 786.48 822.73 785.02 810.11 C 784.99 800.51 791.14 792.11 797.88 785.81 C 802.18 781.66 808.65 782.95 813.80 780.72 C 821.99 777.75 826.12 769.31 830.64 762.50 C 834.15 757.21 835.68 750.98 837.80 745.08 C 840.30 747.41 842.65 751.61 846.64 750.76 Z" />
</g>
<g id="#006f5ffe">
<path fill="#006f5f" fill-opacity="0" d=" M 1117.30 749.43 C 1121.09 747.02 1123.50 742.94 1127.39 740.68 C 1133.02 739.26 1137.00 744.54 1141.76 746.41 C 1148.03 746.77 1154.08 743.19 1160.40 744.01 C 1167.03 745.71 1173.23 748.74 1179.68 751.00 C 1179.75 758.94 1175.99 766.29 1173.99 773.85 C 1172.03 780.67 1169.14 787.19 1165.31 793.17 C 1161.70 799.03 1160.63 806.53 1154.98 810.99 C 1145.06 819.34 1135.40 828.72 1123.00 833.26 C 1118.86 837.21 1118.50 844.14 1113.77 847.61 C 1095.85 855.00 1077.51 861.74 1060.99 872.06 C 1055.11 876.24 1046.49 874.38 1042.21 868.79 C 1039.54 865.00 1035.65 861.57 1034.84 856.81 C 1034.74 851.24 1036.11 845.78 1036.68 840.27 C 1037.61 833.96 1037.71 826.96 1041.65 821.61 C 1047.18 816.20 1054.47 812.86 1059.86 807.30 C 1062.24 801.68 1060.96 795.13 1063.49 789.57 C 1066.66 783.71 1072.11 779.52 1077.64 776.02 C 1078.14 775.74 1079.15 775.16 1079.66 774.88 C 1081.63 766.72 1082.56 758.37 1084.10 750.13 C 1088.67 751.21 1093.38 752.75 1098.09 751.24 C 1101.37 750.67 1104.64 749.43 1108.03 750.03 C 1111.07 750.01 1114.63 751.44 1117.30 749.43 Z" />
</g>
</svg>
