<?xml version="1.0" encoding="UTF-8" ?>
<!DOCTYPE svg PUBLIC "-//W3C//DTD SVG 1.1//EN" "http://www.w3.org/Graphics/SVG/1.1/DTD/svg11.dtd">
<svg width="1920pt" height="1080pt" viewBox="0 0 1920 1080" version="1.1" xmlns="http://www.w3.org/2000/svg">
<g id="#3f9f9fff">
<path fill="#3f9f9f" fill-opacity="0" d=" M 824.48 178.27 C 830.31 177.39 833.63 184.33 836.92 188.23 C 838.42 191.04 841.86 189.99 844.42 190.05 C 848.63 193.91 853.96 196.17 858.49 199.57 C 860.83 204.79 860.10 210.86 861.29 216.39 C 863.87 218.54 866.87 220.31 869.05 222.93 C 870.83 225.53 871.10 228.79 871.76 231.80 C 874.15 232.12 876.73 232.47 879.18 232.77 C 881.12 237.29 883.09 241.79 885.03 246.31 C 892.52 246.40 901.48 242.88 907.19 249.62 C 910.37 246.82 911.98 242.85 914.37 239.46 C 918.62 238.02 923.19 237.16 927.67 236.80 C 931.37 238.69 934.62 241.37 937.89 243.93 C 943.68 240.26 950.43 238.84 956.75 236.40 C 961.32 233.85 965.61 230.17 971.12 230.00 C 976.65 228.81 982.77 232.19 987.81 228.80 C 991.06 225.90 994.01 222.63 997.91 220.52 C 1000.85 224.71 1002.42 229.52 1003.02 234.57 C 1004.36 238.35 1009.83 236.93 1012.82 237.46 C 1018.60 237.50 1024.40 240.75 1026.84 246.11 C 1029.50 252.16 1030.32 258.83 1031.16 265.34 C 1030.62 265.58 1029.54 266.06 1029.00 266.30 C 1017.96 272.20 1005.28 273.40 993.27 276.16 C 983.35 277.90 974.27 282.41 964.94 285.97 C 962.21 284.07 959.49 282.18 956.75 280.32 C 955.02 285.84 956.81 291.39 957.35 296.91 C 954.22 304.08 945.98 308.35 938.25 308.09 C 930.24 306.53 926.29 298.65 921.30 293.09 C 913.04 288.49 904.30 294.79 896.11 296.44 C 896.71 293.77 897.33 291.11 897.93 288.44 C 896.14 286.89 894.37 285.33 892.63 283.74 C 889.41 286.42 886.25 289.18 883.17 292.02 C 884.24 296.39 885.18 300.80 886.05 305.22 C 882.29 306.71 878.01 308.01 876.16 312.05 C 871.97 317.30 871.51 324.38 867.74 329.84 C 861.46 336.33 853.20 340.53 847.00 347.12 C 844.11 349.98 845.91 354.67 845.80 358.08 C 846.78 367.63 847.82 377.18 849.20 386.68 C 846.95 385.47 844.76 383.88 842.18 383.55 C 835.61 383.92 829.54 387.67 825.67 392.87 C 823.41 397.19 819.98 402.48 814.38 401.86 C 808.49 399.68 803.13 396.31 797.56 393.47 C 794.47 392.00 792.09 389.21 791.19 385.91 C 788.19 373.32 787.43 360.35 784.99 347.66 C 791.81 345.86 798.88 343.99 804.52 339.59 C 808.78 330.45 808.35 319.85 809.26 310.02 C 810.37 302.65 814.86 296.49 817.22 289.58 C 817.26 285.00 814.73 280.80 814.24 276.26 C 811.69 251.68 807.38 227.30 805.45 202.65 C 805.37 199.95 805.18 197.04 806.56 194.61 C 810.01 191.86 814.49 190.78 817.81 187.80 C 820.85 185.20 822.01 181.28 824.48 178.27 Z" />
</g>
<g id="#bf9f9fff">
<path fill="#bf9f9f" fill-opacity="0" d=" M 1047.77 261.32 C 1050.62 261.13 1054.25 259.94 1056.26 262.73 C 1058.91 265.01 1058.57 268.68 1058.68 271.82 C 1063.18 271.96 1067.85 270.71 1072.32 271.74 C 1077.14 273.64 1082.11 278.17 1080.70 284.01 C 1080.17 292.00 1079.24 299.98 1078.43 307.95 C 1087.49 313.92 1097.09 319.01 1106.36 324.65 C 1118.51 330.89 1116.09 346.34 1121.20 356.92 C 1124.62 366.67 1133.00 373.19 1138.26 381.80 C 1142.82 388.50 1148.70 394.36 1152.21 401.75 C 1154.42 407.21 1153.92 413.24 1154.76 418.99 C 1144.26 422.18 1134.09 427.75 1122.84 427.30 C 1114.94 427.51 1107.54 431.03 1099.65 431.21 C 1096.10 431.02 1093.55 427.95 1092.45 424.82 C 1089.87 417.83 1088.28 410.10 1082.68 404.72 C 1077.87 403.26 1072.38 404.05 1068.06 401.03 C 1066.69 398.25 1067.30 395.10 1067.36 392.14 C 1055.83 390.45 1044.22 394.75 1034.42 400.58 C 1032.44 396.77 1030.75 391.47 1026.03 390.42 C 1020.92 390.89 1014.34 391.56 1011.39 396.46 C 1010.93 400.84 1012.29 405.02 1013.82 409.03 C 1011.37 409.81 1008.96 411.01 1006.36 411.06 C 995.58 407.40 987.98 398.55 980.43 390.52 C 976.28 385.67 970.44 382.95 964.77 380.34 C 967.52 378.44 969.87 375.59 973.21 374.69 C 977.00 375.43 980.22 378.27 984.16 378.43 C 988.82 378.08 992.72 374.66 997.46 374.60 C 1003.94 373.09 1010.67 378.31 1016.79 374.88 C 1024.41 371.98 1029.39 365.43 1034.35 359.34 C 1035.69 357.33 1037.46 355.00 1037.11 352.47 C 1033.62 346.31 1024.96 343.31 1025.74 335.01 C 1024.54 327.63 1022.42 320.45 1020.63 313.21 C 1026.36 312.68 1032.06 312.89 1037.83 312.81 C 1037.76 310.24 1037.79 307.59 1037.33 305.08 C 1035.90 301.20 1032.37 298.34 1031.53 294.21 C 1030.01 284.98 1029.29 275.65 1029.00 266.30 C 1029.54 266.06 1030.62 265.58 1031.16 265.34 C 1036.44 263.15 1042.16 262.33 1047.77 261.32 Z" />
</g>
<g id="#3f1f9fff">
<path fill="#3f1f9f" fill-opacity="0" d=" M 993.27 276.16 C 1005.28 273.40 1017.96 272.20 1029.00 266.30 C 1029.29 275.65 1030.01 284.98 1031.53 294.21 C 1032.37 298.34 1035.90 301.20 1037.33 305.08 C 1037.79 307.59 1037.76 310.24 1037.83 312.81 C 1032.06 312.89 1026.36 312.68 1020.63 313.21 C 1022.42 320.45 1024.54 327.63 1025.74 335.01 C 1024.96 343.31 1033.62 346.31 1037.11 352.47 C 1037.46 355.00 1035.69 357.33 1034.35 359.34 C 1029.39 365.43 1024.41 371.98 1016.79 374.88 C 1010.67 378.31 1003.94 373.09 997.46 374.60 C 992.72 374.66 988.82 378.08 984.16 378.43 C 980.22 378.27 977.00 375.43 973.21 374.69 C 969.87 375.59 967.52 378.44 964.77 380.34 C 957.39 386.58 947.40 387.79 938.20 389.39 C 931.83 390.38 926.68 394.78 920.51 396.39 C 916.87 397.32 913.32 395.20 909.66 395.71 C 905.44 396.29 901.10 397.96 898.27 401.26 C 891.84 408.75 893.18 420.13 886.40 427.45 C 883.44 431.05 878.45 431.30 874.20 432.00 C 874.53 440.24 875.33 448.45 876.23 456.64 C 871.83 457.26 867.39 457.69 863.02 458.41 C 861.32 451.14 861.18 443.63 860.53 436.24 C 859.96 429.56 858.96 422.88 859.45 416.16 C 859.94 410.45 862.17 405.12 864.10 399.78 C 860.55 399.97 856.84 400.86 853.45 399.54 C 849.40 396.66 850.24 391.04 849.20 386.68 C 847.82 377.18 846.78 367.63 845.80 358.08 C 845.91 354.67 844.11 349.98 847.00 347.12 C 853.20 340.53 861.46 336.33 867.74 329.84 C 871.51 324.38 871.97 317.30 876.16 312.05 C 878.01 308.01 882.29 306.71 886.05 305.22 C 885.18 300.80 884.24 296.39 883.17 292.02 C 886.25 289.18 889.41 286.42 892.63 283.74 C 894.37 285.33 896.14 286.89 897.93 288.44 C 897.33 291.11 896.71 293.77 896.11 296.44 C 904.30 294.79 913.04 288.49 921.30 293.09 C 926.29 298.65 930.24 306.53 938.25 308.09 C 945.98 308.35 954.22 304.08 957.35 296.91 C 956.81 291.39 955.02 285.84 956.75 280.32 C 959.49 282.18 962.21 284.07 964.94 285.97 C 974.27 282.41 983.35 277.90 993.27 276.16 Z" />
</g>
<g id="#3f9f1fff">
<path fill="#3f9f1f" fill-opacity="0" d=" M 938.20 389.39 C 947.40 387.79 957.39 386.58 964.77 380.34 C 970.44 382.95 976.28 385.67 980.43 390.52 C 987.98 398.55 995.58 407.40 1006.36 411.06 C 1008.96 411.01 1011.37 409.81 1013.82 409.03 C 1012.29 405.02 1010.93 400.84 1011.39 396.46 C 1014.34 391.56 1020.92 390.89 1026.03 390.42 C 1030.75 391.47 1032.44 396.77 1034.42 400.58 C 1044.22 394.75 1055.83 390.45 1067.36 392.14 C 1067.30 395.10 1066.69 398.25 1068.06 401.03 C 1072.38 404.05 1077.87 403.26 1082.68 404.72 C 1088.28 410.10 1089.87 417.83 1092.45 424.82 C 1093.55 427.95 1096.10 431.02 1099.65 431.21 C 1107.54 431.03 1114.94 427.51 1122.84 427.30 C 1134.09 427.75 1144.26 422.18 1154.76 418.99 C 1152.50 432.75 1149.68 446.41 1147.01 460.10 C 1145.56 465.19 1149.88 469.19 1151.97 473.37 C 1152.90 474.96 1153.80 476.57 1154.70 478.18 C 1155.55 479.73 1156.42 481.27 1157.29 482.82 C 1149.60 487.61 1146.38 497.13 1138.09 501.10 C 1131.78 504.52 1125.01 507.69 1120.31 513.33 C 1115.75 517.71 1114.16 524.24 1109.44 528.45 C 1105.60 532.84 1100.09 534.83 1095.01 537.28 C 1091.17 539.11 1088.94 542.92 1086.95 546.49 C 1083.74 535.93 1079.36 523.36 1068.28 518.75 C 1052.91 513.12 1037.13 525.86 1022.05 519.04 C 1028.57 513.80 1036.24 510.40 1044.14 507.84 C 1049.39 506.33 1051.70 501.14 1053.23 496.38 C 1049.61 495.78 1045.97 496.11 1042.50 494.91 C 1039.33 493.74 1037.15 490.89 1034.02 489.67 C 1023.42 490.44 1020.04 502.53 1010.42 505.09 C 1002.17 506.70 997.80 515.10 989.74 516.87 C 983.83 519.14 977.62 518.64 971.70 517.02 C 970.77 513.47 969.85 509.99 968.69 506.53 C 962.18 503.40 958.35 496.39 951.59 493.74 C 940.13 491.98 928.69 495.60 917.47 497.34 C 907.79 499.76 900.27 491.89 891.32 490.09 C 884.46 488.81 877.29 489.64 870.64 487.16 C 876.74 481.67 883.94 477.67 890.75 473.17 C 895.31 470.45 903.40 470.30 904.82 463.98 C 903.59 460.58 901.10 457.80 899.29 454.74 C 891.63 455.70 883.90 455.87 876.23 456.64 C 875.33 448.45 874.53 440.24 874.20 432.00 C 878.45 431.30 883.44 431.05 886.40 427.45 C 893.18 420.13 891.84 408.75 898.27 401.26 C 901.10 397.96 905.44 396.29 909.66 395.71 C 913.32 395.20 916.87 397.32 920.51 396.39 C 926.68 394.78 931.83 390.38 938.20 389.39 Z" />
</g>
<g id="#7f5f1ffe">
<path fill="#7f5f1f" fill-opacity="0" d=" M 876.23 456.64 C 883.90 455.87 891.63 455.70 899.29 454.74 C 901.10 457.80 903.59 460.58 904.82 463.98 C 903.40 470.30 895.31 470.45 890.75 473.17 C 883.94 477.67 876.74 481.67 870.64 487.16 C 877.29 489.64 884.46 488.81 891.32 490.09 C 900.27 491.89 907.79 499.76 917.47 497.34 C 928.69 495.60 940.13 491.98 951.59 493.74 C 958.35 496.39 962.18 503.40 968.69 506.53 C 969.85 509.99 970.77 513.47 971.70 517.02 C 977.62 518.64 983.83 519.14 989.74 516.87 C 997.80 515.10 1002.17 506.70 1010.42 505.09 C 1020.04 502.53 1023.42 490.44 1034.02 489.67 C 1037.15 490.89 1039.33 493.74 1042.50 494.91 C 1045.97 496.11 1049.61 495.78 1053.23 496.38 C 1051.70 501.14 1049.39 506.33 1044.14 507.84 C 1036.24 510.40 1028.57 513.80 1022.05 519.04 C 1037.13 525.86 1052.91 513.12 1068.28 518.75 C 1079.36 523.36 1083.74 535.93 1086.95 546.49 C 1086.83 546.86 1086.58 547.59 1086.45 547.96 C 1079.80 558.77 1070.47 567.72 1060.42 575.33 C 1055.19 579.23 1047.94 581.72 1045.59 588.37 C 1043.83 591.91 1043.82 596.83 1040.03 598.90 C 1030.98 604.18 1019.88 606.62 1013.02 615.07 C 1005.40 624.27 1006.17 636.75 1006.72 647.95 C 1001.26 648.58 993.95 650.10 990.25 644.82 C 985.64 638.20 981.30 631.38 975.94 625.33 C 966.14 626.57 956.28 627.02 946.41 627.02 C 935.62 628.38 927.10 636.53 916.67 638.90 C 908.64 637.65 899.26 635.21 895.32 627.24 C 894.59 621.19 896.81 614.96 895.00 608.98 C 893.81 602.04 888.08 597.31 883.79 592.24 C 877.49 592.20 870.87 593.51 864.83 591.13 C 860.68 589.61 858.47 585.39 854.70 583.32 C 852.28 582.10 849.58 583.32 847.20 584.00 C 846.08 577.26 843.51 570.90 840.74 564.69 C 836.54 567.51 832.78 570.94 828.32 573.38 C 826.69 565.03 825.00 556.70 824.23 548.23 C 823.85 541.91 821.86 535.62 822.88 529.27 C 824.16 523.77 827.80 519.23 829.90 514.07 C 831.69 507.79 829.82 501.38 828.95 495.11 C 835.61 489.45 843.98 485.40 848.84 477.88 C 852.17 472.61 853.90 466.47 857.43 461.31 C 858.66 459.46 860.97 458.86 863.02 458.41 C 867.39 457.69 871.83 457.26 876.23 456.64 Z" />
</g>
<g id="#7fdf1fff">
<path fill="#7fdf1f" fill-opacity="0" d=" M 1154.23 463.93 C 1155.11 464.68 1156.00 465.43 1156.90 466.19 C 1155.88 470.13 1155.21 474.15 1154.70 478.18 C 1153.80 476.57 1152.90 474.96 1151.97 473.37 C 1152.76 470.23 1153.48 467.08 1154.23 463.93 Z" />
</g>
<g id="#00df1fff">
<path fill="#00df1f" fill-opacity="0" d=" M 1138.09 501.10 C 1146.38 497.13 1149.60 487.61 1157.29 482.82 C 1160.55 488.56 1159.75 495.36 1161.57 501.50 C 1166.08 505.29 1171.81 507.74 1177.77 507.40 C 1189.30 505.71 1198.51 514.55 1205.28 522.72 C 1209.11 527.06 1211.32 532.85 1210.69 538.67 C 1210.10 549.41 1206.27 559.58 1203.93 570.00 C 1201.87 580.76 1194.11 589.14 1186.69 596.67 C 1179.23 603.42 1170.46 609.13 1160.64 611.64 C 1160.44 609.32 1160.14 607.01 1159.83 604.72 C 1161.35 596.70 1164.87 588.94 1164.41 580.67 C 1163.26 579.11 1161.68 577.95 1160.25 576.70 C 1158.81 582.29 1157.49 587.91 1155.87 593.45 C 1155.02 589.12 1155.65 584.55 1154.45 580.32 C 1149.91 573.08 1138.87 570.60 1138.17 560.92 C 1136.86 555.33 1134.00 550.31 1131.06 545.45 C 1127.39 546.84 1123.77 548.34 1120.13 549.79 C 1119.73 554.27 1119.60 559.59 1115.12 562.17 C 1111.42 567.67 1105.68 563.65 1101.49 561.56 C 1095.66 558.16 1087.22 555.90 1086.45 547.96 C 1086.58 547.59 1086.83 546.86 1086.95 546.49 C 1088.94 542.92 1091.17 539.11 1095.01 537.28 C 1100.09 534.83 1105.60 532.84 1109.44 528.45 C 1114.16 524.24 1115.75 517.71 1120.31 513.33 C 1125.01 507.69 1131.78 504.52 1138.09 501.10 Z" />
</g>
<g id="#005f1fff">
<path fill="#005f1f" fill-opacity="0" d=" M 1120.13 549.79 C 1123.77 548.34 1127.39 546.84 1131.06 545.45 C 1134.00 550.31 1136.86 555.33 1138.17 560.92 C 1138.87 570.60 1149.91 573.08 1154.45 580.32 C 1155.65 584.55 1155.02 589.12 1155.87 593.45 C 1156.85 597.31 1158.44 600.98 1159.83 604.72 C 1160.14 607.01 1160.44 609.32 1160.64 611.64 C 1161.75 625.53 1156.27 638.63 1154.09 652.13 C 1148.39 671.51 1130.89 683.48 1114.56 693.56 C 1108.03 697.17 1108.32 707.21 1100.91 709.72 C 1095.46 711.75 1090.67 715.05 1085.64 717.88 C 1088.39 709.59 1089.72 700.85 1090.42 692.17 C 1090.13 687.01 1089.64 680.98 1085.74 677.18 C 1078.88 677.83 1073.68 683.23 1067.13 684.91 C 1062.98 685.62 1058.86 684.19 1054.88 683.18 C 1056.59 673.81 1060.02 664.76 1060.52 655.20 C 1060.33 649.22 1056.68 644.12 1054.54 638.72 C 1037.98 637.18 1022.77 645.38 1006.72 647.95 C 1006.17 636.75 1005.40 624.27 1013.02 615.07 C 1019.88 606.62 1030.98 604.18 1040.03 598.90 C 1043.82 596.83 1043.83 591.91 1045.59 588.37 C 1047.94 581.72 1055.19 579.23 1060.42 575.33 C 1070.47 567.72 1079.80 558.77 1086.45 547.96 C 1087.22 555.90 1095.66 558.16 1101.49 561.56 C 1105.68 563.65 1111.42 567.67 1115.12 562.17 C 1119.60 559.59 1119.73 554.27 1120.13 549.79 Z" />
</g>
<g id="#bf1f9fff">
<path fill="#bf1f9f" fill-opacity="0" d=" M 1160.25 576.70 C 1161.68 577.95 1163.26 579.11 1164.41 580.67 C 1164.87 588.94 1161.35 596.70 1159.83 604.72 C 1158.44 600.98 1156.85 597.31 1155.87 593.45 C 1157.49 587.91 1158.81 582.29 1160.25 576.70 Z" />
</g>
<g id="#bf9f1fff">
<path fill="#bf9f1f" fill-opacity="0" d=" M 847.20 584.00 C 849.58 583.32 852.28 582.10 854.70 583.32 C 858.47 585.39 860.68 589.61 864.83 591.13 C 870.87 593.51 877.49 592.20 883.79 592.24 C 888.08 597.31 893.81 602.04 895.00 608.98 C 896.81 614.96 894.59 621.19 895.32 627.24 C 899.26 635.21 908.64 637.65 916.67 638.90 C 927.10 636.53 935.62 628.38 946.41 627.02 C 956.28 627.02 966.14 626.57 975.94 625.33 C 981.30 631.38 985.64 638.20 990.25 644.82 C 993.95 650.10 1001.26 648.58 1006.72 647.95 C 1022.77 645.38 1037.98 637.18 1054.54 638.72 C 1056.68 644.12 1060.33 649.22 1060.52 655.20 C 1060.02 664.76 1056.59 673.81 1054.88 683.18 C 1058.86 684.19 1062.98 685.62 1067.13 684.91 C 1073.68 683.23 1078.88 677.83 1085.74 677.18 C 1089.64 680.98 1090.13 687.01 1090.42 692.17 C 1089.72 700.85 1088.39 709.59 1085.64 717.88 C 1076.48 726.80 1067.39 736.23 1061.89 747.97 C 1058.26 753.37 1058.52 760.39 1054.61 765.65 C 1047.97 775.04 1043.72 785.77 1038.24 795.82 C 1031.09 795.22 1023.95 794.33 1016.76 794.48 C 1014.15 798.46 1012.01 803.72 1006.86 804.79 C 1000.56 807.14 994.80 802.63 989.19 800.49 C 988.87 807.52 988.93 814.61 988.56 821.66 C 988.19 827.79 981.01 830.28 978.73 835.30 C 982.69 845.48 990.40 855.40 987.90 866.99 C 986.85 873.50 989.36 881.28 984.66 886.67 C 978.33 889.44 970.62 888.82 964.70 892.70 C 961.42 895.64 961.23 900.82 957.69 903.55 C 954.09 906.29 950.30 908.82 947.03 911.95 C 943.38 916.35 941.50 922.40 936.43 925.48 C 932.44 927.97 928.29 931.20 923.31 930.72 C 916.01 930.64 909.95 925.83 904.95 920.99 C 903.15 918.85 900.26 919.50 897.86 919.79 C 893.68 920.47 889.59 921.62 885.57 922.91 C 881.56 924.27 878.59 927.57 874.64 929.04 C 871.69 929.11 868.93 927.65 866.15 926.87 C 864.98 920.86 864.01 914.82 862.84 908.82 C 858.06 909.76 853.19 910.43 848.63 912.22 C 843.41 914.17 841.53 920.71 836.03 922.21 C 830.02 924.71 823.45 922.96 817.19 923.71 C 813.87 924.12 810.53 924.19 807.21 923.84 C 804.00 927.87 799.71 931.59 798.96 936.98 C 797.03 944.27 798.45 952.94 792.88 958.84 C 787.00 967.64 778.69 976.42 767.57 977.58 C 758.65 981.11 749.93 974.27 746.40 966.45 C 742.84 959.33 734.02 959.23 727.68 956.09 C 722.19 950.83 719.38 942.45 711.85 939.40 C 706.80 936.75 700.27 937.04 695.95 933.14 C 692.21 923.98 687.29 915.32 683.94 906.01 C 681.17 900.99 683.09 895.49 684.17 890.37 C 688.66 889.21 693.10 887.88 697.60 886.69 C 699.16 881.52 704.16 876.28 701.27 870.73 C 697.10 862.05 693.12 853.27 689.91 844.19 C 689.53 843.14 689.36 841.97 690.01 841.00 C 693.42 834.83 698.42 829.58 700.97 822.93 C 704.57 813.59 711.75 805.34 711.47 794.87 C 716.34 792.13 721.14 788.66 726.82 787.85 C 732.04 787.37 737.35 787.83 742.49 786.45 C 744.84 784.28 746.19 781.29 748.30 778.91 C 751.02 776.55 754.44 775.21 757.44 773.25 C 760.67 771.11 761.97 766.98 765.27 764.94 C 778.95 761.17 791.64 754.02 802.61 745.07 C 801.64 739.54 800.70 733.81 801.54 728.20 C 802.16 723.92 806.29 721.75 809.58 719.67 C 817.41 715.26 824.93 710.30 833.15 706.63 C 839.75 702.32 845.54 696.56 849.87 689.96 C 852.58 680.88 846.28 671.17 850.18 662.26 C 852.05 657.19 857.67 655.05 862.33 653.16 C 860.20 648.22 857.21 643.70 854.19 639.28 C 851.46 639.97 848.71 640.53 845.96 641.12 C 840.42 630.80 840.34 618.98 838.56 607.68 C 837.97 602.61 836.97 597.44 838.51 592.43 C 839.91 588.44 843.40 585.60 847.20 584.00 Z" />
</g>
</svg>
