<?xml version="1.0" encoding="UTF-8" ?>
<!DOCTYPE svg PUBLIC "-//W3C//DTD SVG 1.1//EN" "http://www.w3.org/Graphics/SVG/1.1/DTD/svg11.dtd">
<svg width="1920pt" height="1080pt" viewBox="0 0 1920 1080" version="1.1" xmlns="http://www.w3.org/2000/svg">
<g id="#df1f5ffe">
<path fill="#df1f5f" fill-opacity="0" d=" M 936.41 210.46 C 945.21 200.58 958.37 194.64 971.67 195.45 C 978.84 196.52 982.63 203.90 989.01 206.61 C 994.45 204.07 1000.88 202.85 1006.52 205.56 C 1010.78 208.71 1010.56 214.25 1011.50 218.98 C 1021.38 221.88 1031.73 223.42 1041.06 228.00 C 1046.16 230.16 1053.10 233.19 1057.78 228.80 C 1063.62 223.04 1068.34 215.93 1075.74 211.96 C 1080.01 210.28 1084.91 211.56 1087.93 215.07 C 1096.23 222.83 1106.92 227.27 1115.42 234.75 C 1123.39 232.13 1131.94 228.17 1140.39 231.57 C 1145.55 233.12 1146.47 239.06 1148.85 243.15 C 1152.40 248.82 1148.63 255.18 1148.70 261.21 C 1148.93 267.76 1150.55 274.35 1148.64 280.83 C 1145.94 292.78 1146.30 305.39 1141.91 316.94 C 1140.14 322.39 1133.45 322.89 1130.18 327.02 C 1128.21 329.35 1126.36 332.55 1122.87 332.45 C 1115.14 332.76 1106.62 333.31 1100.81 339.04 C 1099.84 342.66 1095.80 349.92 1100.95 351.31 C 1105.08 350.84 1108.90 349.10 1112.81 347.80 C 1115.92 356.17 1114.24 365.16 1112.54 373.64 C 1111.01 380.18 1111.12 387.00 1109.22 393.48 C 1107.67 396.63 1104.98 399.01 1102.72 401.64 C 1099.37 400.54 1094.93 400.63 1092.68 397.42 C 1090.18 393.83 1089.47 389.38 1088.32 385.27 C 1084.61 386.70 1080.98 388.38 1077.11 389.33 C 1072.82 390.39 1069.14 386.80 1064.91 386.97 C 1062.95 387.14 1061.06 387.70 1059.18 388.15 C 1060.82 397.24 1064.46 405.74 1067.58 414.38 C 1069.00 418.12 1068.39 422.17 1067.73 425.99 C 1062.12 424.33 1055.65 420.62 1049.84 423.78 C 1043.08 427.02 1042.71 435.03 1040.38 441.25 C 1032.38 441.78 1024.38 442.79 1016.61 444.77 C 1009.45 446.59 1002.94 450.16 996.15 452.96 C 993.48 447.69 988.27 445.08 983.10 442.88 C 982.41 433.30 979.17 424.20 976.85 414.95 C 973.45 401.99 969.30 389.23 965.76 376.31 C 962.66 365.04 962.11 352.94 956.51 342.47 C 953.18 335.18 947.19 328.67 947.36 320.19 C 948.68 314.64 954.49 311.89 956.96 307.04 C 957.38 300.90 955.89 294.52 952.77 289.22 C 948.88 287.09 944.10 288.05 940.18 286.10 C 938.01 283.69 937.11 280.44 935.82 277.53 C 934.42 281.71 931.50 285.34 926.83 285.71 C 926.67 272.26 926.66 258.80 925.79 245.37 C 925.77 234.76 924.30 224.02 926.53 213.52 C 930.06 213.66 934.14 213.78 936.41 210.46 Z" />
</g>
<g id="#df9fdfff">
<path fill="#df9fdf" fill-opacity="0" d=" M 935.82 277.53 C 937.11 280.44 938.01 283.69 940.18 286.10 C 944.10 288.05 948.88 287.09 952.77 289.22 C 955.89 294.52 957.38 300.90 956.96 307.04 C 954.49 311.89 948.68 314.64 947.36 320.19 C 947.19 328.67 953.18 335.18 956.51 342.47 C 962.11 352.94 962.66 365.04 965.76 376.31 C 969.30 389.23 973.45 401.99 976.85 414.95 C 979.17 424.20 982.41 433.30 983.10 442.88 C 982.82 445.41 982.72 448.02 982.34 450.57 C 979.90 454.92 976.99 459.00 974.07 463.05 C 968.65 461.13 963.15 458.59 957.26 459.03 C 953.38 459.50 949.68 460.88 945.95 461.92 C 943.16 458.80 940.10 455.85 937.97 452.22 C 934.69 446.10 933.19 439.12 929.36 433.29 C 926.58 429.55 921.30 429.57 917.17 429.25 C 912.59 418.73 904.53 410.42 896.90 402.09 C 886.92 391.13 883.31 375.27 871.23 366.07 C 870.12 355.41 860.21 349.37 856.00 340.15 C 853.88 335.85 852.75 331.07 852.52 326.30 C 852.27 319.96 856.51 314.71 858.17 308.86 C 859.28 304.17 858.00 299.40 857.16 294.79 C 863.08 296.92 868.99 299.08 875.02 300.94 C 879.95 302.09 885.65 302.13 889.87 298.93 C 895.19 295.76 893.10 287.69 898.07 284.09 C 902.40 281.52 907.77 282.03 912.58 282.02 C 917.39 282.97 921.78 285.99 926.83 285.71 C 931.50 285.34 934.42 281.71 935.82 277.53 Z" />
</g>
<g id="#5f1fdfff">
<path fill="#5f1fdf" fill-opacity="0" d=" M 842.89 293.73 C 847.67 293.26 852.44 294.09 857.16 294.79 C 858.00 299.40 859.28 304.17 858.17 308.86 C 856.51 314.71 852.27 319.96 852.52 326.30 C 852.75 331.07 853.88 335.85 856.00 340.15 C 860.21 349.37 870.12 355.41 871.23 366.07 C 863.69 362.46 855.35 361.67 847.19 360.60 C 845.08 359.03 843.32 356.95 840.96 355.80 C 836.41 355.25 832.09 356.86 828.45 359.42 C 824.96 361.87 820.70 362.50 816.63 363.29 C 811.70 363.68 805.88 367.21 801.39 363.67 C 798.41 360.83 796.27 357.26 793.77 354.03 C 797.79 351.42 802.60 349.49 805.55 345.51 C 808.58 341.58 806.28 335.98 808.91 331.92 C 811.36 329.59 814.57 328.29 817.51 326.67 C 815.99 317.49 814.56 308.29 814.06 299.00 C 823.26 295.53 833.17 294.61 842.89 293.73 M 832.43 317.86 C 834.35 317.72 836.29 317.58 838.22 317.34 C 837.82 316.62 837.01 315.17 836.61 314.45 C 835.17 315.53 833.77 316.67 832.43 317.86 Z" />
</g>
<g id="#5f9fdfff">
<path fill="#5f9fdf" fill-opacity="0" d=" M 832.43 317.86 C 833.77 316.67 835.17 315.53 836.61 314.45 C 837.01 315.17 837.82 316.62 838.22 317.34 C 836.29 317.58 834.35 317.72 832.43 317.86 Z" />
</g>
<g id="#5f9f5fff">
<path fill="#5f9f5f" fill-opacity="0" d=" M 774.00 366.00 C 779.82 361.03 785.83 355.16 793.77 354.03 C 796.27 357.26 798.41 360.83 801.39 363.67 C 805.88 367.21 811.70 363.68 816.63 363.29 C 824.03 383.90 832.51 404.10 840.40 424.52 C 844.33 433.72 850.47 441.75 855.93 450.08 C 861.36 457.26 863.59 466.10 866.74 474.38 C 872.21 487.39 873.51 501.75 873.33 515.74 C 868.54 510.85 865.08 504.60 859.28 500.77 C 854.64 498.01 849.19 497.05 844.48 494.45 C 840.28 492.13 835.51 491.23 830.95 489.91 C 830.06 485.40 829.67 480.73 827.97 476.43 C 824.58 468.40 815.80 462.17 806.93 463.98 C 794.57 465.71 784.89 477.34 771.78 474.98 C 772.83 471.89 773.96 468.84 774.91 465.72 C 771.56 465.16 768.34 464.67 765.04 464.11 C 760.01 470.91 755.13 477.99 752.34 486.05 C 752.20 490.16 753.20 494.18 754.28 498.11 C 747.20 497.38 740.10 497.07 733.08 495.96 C 734.02 481.72 721.98 471.01 719.89 457.39 C 719.27 453.04 717.69 448.91 716.11 444.84 C 712.64 445.14 709.29 445.55 705.85 445.94 C 704.69 443.43 703.42 440.96 702.63 438.31 C 701.60 435.68 703.61 433.24 704.48 430.89 C 702.94 428.44 701.57 425.77 699.39 423.81 C 696.39 422.18 692.86 422.06 689.64 421.14 C 690.82 417.45 690.94 412.90 694.24 410.34 C 696.71 408.26 699.58 406.74 702.30 405.03 C 701.40 403.62 700.50 402.21 699.61 400.81 C 706.46 397.75 713.83 395.52 721.40 395.59 C 726.86 395.36 732.86 396.72 737.95 393.97 C 748.21 389.40 758.38 383.89 769.81 383.19 C 769.29 379.60 768.01 376.01 768.62 372.38 C 769.70 369.75 771.97 367.88 774.00 366.00 Z" />
</g>
<g id="#1f5f5fff">
<path fill="#1f5f5f" fill-opacity="0" d=" M 840.96 355.80 C 843.32 356.95 845.08 359.03 847.19 360.60 C 855.35 361.67 863.69 362.46 871.23 366.07 C 883.31 375.27 886.92 391.13 896.90 402.09 C 904.53 410.42 912.59 418.73 917.17 429.25 C 915.30 435.43 914.66 441.89 913.06 448.13 C 911.06 454.56 903.98 457.06 900.41 462.36 C 897.41 468.27 901.34 474.72 900.65 480.83 C 898.92 484.33 895.10 486.21 892.13 488.56 C 892.85 495.29 896.17 502.47 893.08 509.02 C 890.10 516.35 880.16 519.41 873.33 515.74 C 873.51 501.75 872.21 487.39 866.74 474.38 C 863.59 466.10 861.36 457.26 855.93 450.08 C 850.47 441.75 844.33 433.72 840.40 424.52 C 832.51 404.10 824.03 383.90 816.63 363.29 C 820.70 362.50 824.96 361.87 828.45 359.42 C 832.09 356.86 836.41 355.25 840.96 355.80 Z" />
</g>
<g id="#5f1f5ffe">
<path fill="#5f1f5f" fill-opacity="0" d=" M 1077.11 389.33 C 1080.98 388.38 1084.61 386.70 1088.32 385.27 C 1089.47 389.38 1090.18 393.83 1092.68 397.42 C 1094.93 400.63 1099.37 400.54 1102.72 401.64 C 1106.21 402.49 1110.09 402.58 1113.07 404.87 C 1117.94 408.20 1121.21 413.34 1125.97 416.80 C 1132.75 419.61 1139.87 421.53 1146.72 424.23 C 1148.30 431.35 1156.02 437.55 1163.42 435.57 C 1170.67 434.60 1178.26 432.13 1183.22 426.45 C 1192.00 415.28 1188.35 398.19 1199.28 388.32 C 1203.60 387.75 1208.73 388.73 1211.49 392.42 C 1214.74 397.08 1217.04 402.65 1221.90 406.00 C 1225.91 409.32 1231.90 410.56 1234.57 415.40 C 1234.80 422.87 1230.52 429.47 1229.88 436.76 C 1232.94 445.10 1237.75 452.79 1243.04 459.94 C 1247.26 465.97 1244.43 474.12 1247.48 480.54 C 1252.30 487.30 1261.31 488.47 1267.39 493.66 C 1270.31 497.51 1269.71 502.89 1272.09 507.04 C 1277.81 514.04 1286.68 519.42 1296.07 517.27 C 1297.75 520.56 1298.73 524.20 1300.68 527.36 C 1305.92 535.46 1316.92 537.02 1321.93 545.39 C 1323.59 549.72 1323.15 554.99 1326.19 558.78 C 1328.30 560.85 1331.05 562.08 1333.46 563.78 C 1338.07 566.65 1341.04 571.36 1345.30 574.65 C 1352.57 580.90 1362.53 582.84 1369.62 589.38 C 1374.74 595.55 1372.98 604.70 1368.96 610.97 C 1363.05 620.93 1359.56 632.25 1352.50 641.50 C 1346.46 647.71 1336.87 650.47 1328.60 647.43 C 1323.95 646.09 1321.62 641.56 1318.93 637.97 C 1317.15 642.97 1314.77 647.75 1311.66 652.06 C 1311.22 652.15 1310.34 652.33 1309.90 652.42 C 1304.32 652.10 1298.93 653.52 1293.69 655.25 C 1287.70 657.28 1280.95 651.96 1275.58 656.47 C 1274.51 659.95 1274.68 663.69 1274.32 667.30 C 1265.29 666.66 1256.41 664.36 1247.32 664.54 C 1238.76 669.07 1236.54 680.97 1226.06 682.91 C 1216.66 679.86 1209.77 671.73 1200.20 669.21 C 1192.57 669.22 1184.52 669.33 1177.48 665.93 C 1173.04 662.70 1171.30 657.11 1168.40 652.66 C 1165.18 646.91 1160.65 640.01 1152.97 640.88 C 1145.06 639.57 1137.26 642.40 1129.36 642.08 C 1124.07 641.63 1122.17 636.13 1119.24 632.60 C 1116.55 628.87 1111.95 627.38 1108.12 625.26 C 1103.27 630.31 1095.89 630.67 1090.22 634.31 C 1087.53 636.98 1087.59 641.14 1086.74 644.63 C 1085.69 650.86 1082.52 656.43 1079.45 661.86 C 1072.53 662.26 1065.69 663.70 1058.75 663.72 C 1054.41 663.79 1050.76 661.19 1047.20 659.07 C 1049.42 651.62 1051.27 642.86 1047.14 635.72 C 1043.97 630.43 1039.31 625.27 1033.00 624.11 C 1029.93 623.47 1026.79 623.51 1023.69 623.38 C 1025.62 615.30 1025.84 606.98 1026.66 598.75 C 1027.02 594.08 1031.01 591.01 1033.43 587.34 C 1036.75 582.29 1039.29 575.88 1037.40 569.84 C 1034.76 560.95 1030.22 552.69 1028.17 543.62 C 1025.54 531.95 1020.59 520.97 1017.79 509.36 C 1016.55 504.71 1015.51 499.73 1012.35 495.93 C 1006.80 489.39 999.95 483.77 996.18 475.91 C 991.81 467.34 987.78 458.54 982.34 450.57 C 982.72 448.02 982.82 445.41 983.10 442.88 C 988.27 445.08 993.48 447.69 996.15 452.96 C 1002.94 450.16 1009.45 446.59 1016.61 444.77 C 1024.38 442.79 1032.38 441.78 1040.38 441.25 C 1042.71 435.03 1043.08 427.02 1049.84 423.78 C 1055.65 420.62 1062.12 424.33 1067.73 425.99 C 1068.39 422.17 1069.00 418.12 1067.58 414.38 C 1064.46 405.74 1060.82 397.24 1059.18 388.15 C 1061.06 387.70 1062.95 387.14 1064.91 386.97 C 1069.14 386.80 1072.82 390.39 1077.11 389.33 Z" />
</g>
<g id="#9f9fdffe">
<path fill="#9f9fdf" fill-opacity="0" d=" M 687.20 408.31 C 692.27 407.84 695.67 403.52 699.61 400.81 C 700.50 402.21 701.40 403.62 702.30 405.03 C 699.58 406.74 696.71 408.26 694.24 410.34 C 690.94 412.90 690.82 417.45 689.64 421.14 C 692.86 422.06 696.39 422.18 699.39 423.81 C 701.57 425.77 702.94 428.44 704.48 430.89 C 703.61 433.24 701.60 435.68 702.63 438.31 C 703.42 440.96 704.69 443.43 705.85 445.94 C 709.29 445.55 712.64 445.14 716.11 444.84 C 717.69 448.91 719.27 453.04 719.89 457.39 C 721.98 471.01 734.02 481.72 733.08 495.96 C 729.11 498.41 725.46 502.86 727.14 507.80 C 728.99 512.81 730.39 518.10 732.99 522.79 C 737.30 527.15 743.36 529.20 748.52 532.34 C 746.45 536.90 744.10 541.32 742.04 545.88 C 735.80 549.77 728.61 552.10 723.03 557.03 C 719.56 559.62 716.38 562.99 712.06 564.11 C 704.62 566.15 695.98 564.27 690.81 558.30 C 686.95 553.74 680.88 547.95 674.35 550.35 C 669.86 555.06 671.71 562.82 668.00 568.02 C 664.33 571.01 659.04 571.11 655.56 574.47 C 660.10 579.25 666.08 582.33 670.76 586.97 C 663.52 588.07 656.37 589.61 649.16 590.80 C 640.50 592.58 632.21 588.81 623.72 587.95 C 617.61 587.31 612.53 591.63 609.57 596.50 C 606.38 602.37 604.67 608.90 601.83 614.94 C 600.24 618.64 598.11 622.49 598.52 626.68 C 599.22 636.61 603.19 645.90 607.12 654.92 C 618.68 679.71 629.60 704.80 641.45 729.46 C 644.28 735.82 647.22 742.14 649.57 748.70 C 645.19 747.80 640.45 748.38 636.29 746.67 C 630.17 741.17 627.41 733.23 623.91 726.04 C 612.27 701.69 600.44 677.44 588.96 653.02 C 585.81 645.95 581.34 639.44 578.96 632.05 C 577.10 625.66 583.70 620.47 581.89 614.17 C 579.73 606.10 578.27 597.76 574.84 590.10 C 569.81 579.60 565.32 568.87 560.29 558.38 C 567.56 557.70 574.70 556.13 581.90 554.93 C 588.29 553.62 595.08 553.09 600.82 549.69 C 603.34 548.51 605.64 546.82 608.30 545.97 C 612.03 545.89 615.84 549.98 619.17 546.31 C 625.34 544.75 625.97 538.40 625.37 533.24 C 627.03 532.02 628.70 530.82 630.34 529.57 C 625.93 528.49 621.62 527.08 617.32 525.67 C 612.70 524.17 607.69 524.47 603.11 522.86 C 600.20 520.31 599.12 516.24 596.55 513.38 C 591.75 511.50 586.63 513.83 581.78 514.38 C 579.65 514.76 577.33 513.72 576.28 511.82 C 571.63 503.05 568.61 493.57 564.52 484.55 C 561.93 479.14 562.08 473.05 561.21 467.24 C 566.88 465.08 572.51 462.64 578.58 461.86 C 580.24 463.73 581.94 465.57 583.67 467.39 C 586.99 458.31 588.84 448.70 592.92 439.90 C 593.50 438.52 595.30 438.55 596.56 438.30 C 605.37 437.68 614.32 437.83 623.01 435.98 C 630.17 434.47 635.30 428.65 642.06 426.12 C 652.41 421.76 661.60 415.27 670.88 409.06 C 676.28 408.47 681.78 408.81 687.20 408.31 Z" />
</g>
<g id="#df9f5fff">
<path fill="#df9f5f" fill-opacity="0" d=" M 917.17 429.25 C 921.30 429.57 926.58 429.55 929.36 433.29 C 933.19 439.12 934.69 446.10 937.97 452.22 C 940.10 455.85 943.16 458.80 945.95 461.92 C 949.68 460.88 953.38 459.50 957.26 459.03 C 963.15 458.59 968.65 461.13 974.07 463.05 C 976.99 459.00 979.90 454.92 982.34 450.57 C 987.78 458.54 991.81 467.34 996.18 475.91 C 999.95 483.77 1006.80 489.39 1012.35 495.93 C 1015.51 499.73 1016.55 504.71 1017.79 509.36 C 1020.59 520.97 1025.54 531.95 1028.17 543.62 C 1030.22 552.69 1034.76 560.95 1037.40 569.84 C 1039.29 575.88 1036.75 582.29 1033.43 587.34 C 1031.01 591.01 1027.02 594.08 1026.66 598.75 C 1025.84 606.98 1025.62 615.30 1023.69 623.38 C 1019.67 631.82 1016.11 640.67 1016.21 650.20 C 1012.68 651.02 1009.22 653.08 1005.52 652.63 C 1000.50 650.76 995.84 647.31 990.29 647.25 C 984.94 647.63 979.70 649.21 974.35 649.26 C 970.68 647.99 967.73 645.15 964.45 643.23 C 962.51 646.27 960.80 649.44 959.44 652.78 C 954.59 652.64 949.72 651.40 944.88 651.99 C 941.11 653.61 938.42 657.00 935.94 660.16 C 934.86 655.39 933.67 650.65 932.26 645.97 C 921.71 644.43 911.54 640.38 900.78 640.44 C 894.91 640.83 889.61 643.53 884.63 646.41 C 880.67 637.44 872.38 631.47 864.03 626.91 C 859.70 624.15 854.36 624.98 849.62 623.60 C 842.42 616.32 835.83 607.81 834.80 597.22 C 831.17 596.82 827.24 596.04 823.87 597.87 C 817.93 601.13 812.09 604.67 806.78 608.88 C 802.25 613.24 799.01 618.73 795.48 623.89 C 794.78 619.48 793.87 615.05 791.91 611.01 C 789.70 606.21 786.60 601.17 787.66 595.67 C 787.87 591.49 789.56 586.20 786.01 583.02 C 782.49 579.45 776.78 579.55 772.55 581.67 C 763.25 586.53 753.23 589.98 743.01 592.28 C 739.24 593.22 735.34 592.47 731.56 592.13 C 732.58 587.83 734.42 583.74 737.50 580.52 C 742.97 574.65 743.85 566.11 749.06 560.06 C 750.84 557.34 753.96 554.66 753.45 551.11 C 750.03 548.65 745.83 547.57 742.04 545.88 C 744.10 541.32 746.45 536.90 748.52 532.34 C 743.36 529.20 737.30 527.15 732.99 522.79 C 730.39 518.10 728.99 512.81 727.14 507.80 C 725.46 502.86 729.11 498.41 733.08 495.96 C 740.10 497.07 747.20 497.38 754.28 498.11 C 753.20 494.18 752.20 490.16 752.34 486.05 C 755.13 477.99 760.01 470.91 765.04 464.11 C 768.34 464.67 771.56 465.16 774.91 465.72 C 773.96 468.84 772.83 471.89 771.78 474.98 C 784.89 477.34 794.57 465.71 806.93 463.98 C 815.80 462.17 824.58 468.40 827.97 476.43 C 829.67 480.73 830.06 485.40 830.95 489.91 C 835.51 491.23 840.28 492.13 844.48 494.45 C 849.19 497.05 854.64 498.01 859.28 500.77 C 865.08 504.60 868.54 510.85 873.33 515.74 C 880.16 519.41 890.10 516.35 893.08 509.02 C 896.17 502.47 892.85 495.29 892.13 488.56 C 895.10 486.21 898.92 484.33 900.65 480.83 C 901.34 474.72 897.41 468.27 900.41 462.36 C 903.98 457.06 911.06 454.56 913.06 448.13 C 914.66 441.89 915.30 435.43 917.17 429.25 Z" />
</g>
<g id="#1f9fdfff">
<path fill="#1f9fdf" fill-opacity="0" d=" M 723.03 557.03 C 728.61 552.10 735.80 549.77 742.04 545.88 C 745.83 547.57 750.03 548.65 753.45 551.11 C 753.96 554.66 750.84 557.34 749.06 560.06 C 743.85 566.11 742.97 574.65 737.50 580.52 C 734.42 583.74 732.58 587.83 731.56 592.13 C 735.34 592.47 739.24 593.22 743.01 592.28 C 753.23 589.98 763.25 586.53 772.55 581.67 C 776.78 579.55 782.49 579.45 786.01 583.02 C 789.56 586.20 787.87 591.49 787.66 595.67 C 786.60 601.17 789.70 606.21 791.91 611.01 C 793.87 615.05 794.78 619.48 795.48 623.89 C 799.01 618.73 802.25 613.24 806.78 608.88 C 812.09 604.67 817.93 601.13 823.87 597.87 C 827.24 596.04 831.17 596.82 834.80 597.22 C 835.83 607.81 842.42 616.32 849.62 623.60 C 854.36 624.98 859.70 624.15 864.03 626.91 C 872.38 631.47 880.67 637.44 884.63 646.41 C 889.61 643.53 894.91 640.83 900.78 640.44 C 911.54 640.38 921.71 644.43 932.26 645.97 C 933.67 650.65 934.86 655.39 935.94 660.16 C 931.23 667.24 928.04 675.22 923.48 682.41 C 917.34 692.58 920.92 704.96 918.88 716.05 C 918.16 723.11 913.18 729.23 913.75 736.51 C 914.92 748.48 918.37 760.64 915.78 772.67 C 912.65 782.55 915.93 792.94 916.14 802.99 C 916.83 815.51 918.24 827.98 918.84 840.51 C 909.68 846.59 902.88 855.42 894.52 862.46 C 887.95 868.00 879.55 870.73 872.52 875.56 C 868.30 882.06 867.43 890.52 862.06 896.34 C 859.46 893.70 857.50 890.52 854.51 888.37 C 848.29 887.41 842.40 890.22 836.28 890.35 C 831.23 889.79 830.37 883.47 827.59 880.31 C 821.56 878.29 815.13 877.48 808.95 876.06 C 804.32 875.04 799.29 877.58 794.99 874.91 C 788.05 870.93 780.10 868.95 772.11 869.20 C 769.52 869.94 768.20 872.69 766.48 874.58 C 763.18 873.56 759.73 873.04 756.57 871.60 C 751.59 869.68 745.74 869.22 741.76 865.28 C 738.46 861.09 736.97 855.87 734.98 851.01 C 731.29 841.66 727.84 832.22 724.01 822.93 C 721.21 815.79 715.72 810.10 713.03 802.93 C 710.19 795.75 707.60 788.47 704.58 781.36 C 702.75 776.73 699.07 773.27 696.27 769.26 C 691.35 768.40 687.40 765.40 683.66 762.34 C 675.53 755.91 664.67 754.01 657.21 746.60 C 654.72 747.52 652.17 748.24 649.57 748.70 C 647.22 742.14 644.28 735.82 641.45 729.46 C 629.60 704.80 618.68 679.71 607.12 654.92 C 603.19 645.90 599.22 636.61 598.52 626.68 C 598.11 622.49 600.24 618.64 601.83 614.94 C 604.67 608.90 606.38 602.37 609.57 596.50 C 612.53 591.63 617.61 587.31 623.72 587.95 C 632.21 588.81 640.50 592.58 649.16 590.80 C 656.37 589.61 663.52 588.07 670.76 586.97 C 666.08 582.33 660.10 579.25 655.56 574.47 C 659.04 571.11 664.33 571.01 668.00 568.02 C 671.71 562.82 669.86 555.06 674.35 550.35 C 680.88 547.95 686.95 553.74 690.81 558.30 C 695.98 564.27 704.62 566.15 712.06 564.11 C 716.38 562.99 719.56 559.62 723.03 557.03 Z" />
</g>
<g id="#df1fdfff">
<path fill="#df1fdf" fill-opacity="0" d=" M 1023.69 623.38 C 1026.79 623.51 1029.93 623.47 1033.00 624.11 C 1039.31 625.27 1043.97 630.43 1047.14 635.72 C 1051.27 642.86 1049.42 651.62 1047.20 659.07 C 1050.76 661.19 1054.41 663.79 1058.75 663.72 C 1065.69 663.70 1072.53 662.26 1079.45 661.86 C 1082.52 656.43 1085.69 650.86 1086.74 644.63 C 1087.59 641.14 1087.53 636.98 1090.22 634.31 C 1095.89 630.67 1103.27 630.31 1108.12 625.26 C 1111.95 627.38 1116.55 628.87 1119.24 632.60 C 1122.17 636.13 1124.07 641.63 1129.36 642.08 C 1137.26 642.40 1145.06 639.57 1152.97 640.88 C 1160.65 640.01 1165.18 646.91 1168.40 652.66 C 1171.30 657.11 1173.04 662.70 1177.48 665.93 C 1184.52 669.33 1192.57 669.22 1200.20 669.21 C 1209.77 671.73 1216.66 679.86 1226.06 682.91 C 1236.54 680.97 1238.76 669.07 1247.32 664.54 C 1256.41 664.36 1265.29 666.66 1274.32 667.30 C 1274.68 663.69 1274.51 659.95 1275.58 656.47 C 1280.95 651.96 1287.70 657.28 1293.69 655.25 C 1298.93 653.52 1304.32 652.10 1309.90 652.42 C 1315.18 653.03 1320.41 654.17 1325.54 655.61 C 1329.89 660.52 1332.78 666.80 1338.09 670.89 C 1341.45 673.63 1345.98 676.35 1346.26 681.21 C 1346.02 685.75 1344.45 690.13 1343.55 694.58 C 1347.59 697.48 1349.13 702.09 1348.63 706.91 C 1350.07 708.00 1352.96 710.19 1354.40 711.29 C 1354.82 717.67 1356.96 724.00 1355.59 730.41 C 1359.65 731.37 1363.87 731.92 1367.86 733.29 C 1369.46 733.89 1371.55 735.14 1371.21 737.18 C 1370.89 749.84 1362.40 759.83 1356.31 770.25 C 1342.69 793.25 1328.66 816.03 1315.05 839.05 C 1312.27 844.26 1305.81 844.79 1300.91 846.77 C 1290.53 849.89 1280.56 855.91 1275.35 865.77 C 1271.37 864.55 1267.39 863.36 1263.43 862.13 C 1260.85 867.94 1258.00 874.01 1252.51 877.63 C 1245.54 883.37 1237.58 887.94 1229.15 891.15 C 1223.96 893.18 1220.63 887.10 1217.19 884.22 C 1215.08 887.97 1213.16 891.86 1210.58 895.33 C 1206.01 896.33 1201.33 895.59 1196.71 895.68 C 1193.48 895.48 1190.09 896.25 1187.10 894.96 C 1184.05 891.60 1182.38 887.17 1178.90 884.21 C 1174.05 886.03 1170.53 890.29 1165.36 891.46 C 1156.69 894.57 1148.60 888.90 1139.97 888.75 C 1135.69 901.00 1132.46 913.63 1127.38 925.59 C 1125.59 930.51 1121.55 933.95 1118.11 937.70 C 1115.62 935.42 1112.59 933.11 1109.03 935.94 C 1103.75 938.86 1103.08 945.91 1099.31 950.19 C 1089.69 957.19 1077.00 953.86 1065.99 956.07 C 1058.04 956.24 1052.15 962.28 1044.89 964.57 C 1042.62 964.28 1040.57 963.21 1038.49 962.38 C 1037.17 965.22 1036.39 968.92 1033.11 970.15 C 1026.66 973.90 1018.14 974.73 1011.94 970.07 C 1007.03 962.05 1010.42 948.29 1000.07 943.86 C 993.69 939.96 985.82 941.72 979.12 938.75 C 974.07 936.42 970.11 932.46 965.49 929.47 C 958.64 924.86 957.17 915.76 956.46 908.23 C 953.19 905.99 949.59 903.93 947.57 900.37 C 943.42 894.77 944.12 887.23 940.64 881.31 C 935.34 878.51 929.23 878.28 923.40 877.68 C 919.51 865.67 919.55 852.97 918.84 840.51 C 918.24 827.98 916.83 815.51 916.14 802.99 C 915.93 792.94 912.65 782.55 915.78 772.67 C 918.37 760.64 914.92 748.48 913.75 736.51 C 913.18 729.23 918.16 723.11 918.88 716.05 C 920.92 704.96 917.34 692.58 923.48 682.41 C 928.04 675.22 931.23 667.24 935.94 660.16 C 938.42 657.00 941.11 653.61 944.88 651.99 C 949.72 651.40 954.59 652.64 959.44 652.78 C 960.80 649.44 962.51 646.27 964.45 643.23 C 967.73 645.15 970.68 647.99 974.35 649.26 C 979.70 649.21 984.94 647.63 990.29 647.25 C 995.84 647.31 1000.50 650.76 1005.52 652.63 C 1009.22 653.08 1012.68 651.02 1016.21 650.20 C 1016.11 640.67 1019.67 631.82 1023.69 623.38 Z" />
</g>
</svg>
