<?xml version="1.0" encoding="UTF-8" ?>
<!DOCTYPE svg PUBLIC "-//W3C//DTD SVG 1.1//EN" "http://www.w3.org/Graphics/SVG/1.1/DTD/svg11.dtd">
<svg width="1920pt" height="1080pt" viewBox="0 0 1920 1080" version="1.1" xmlns="http://www.w3.org/2000/svg">
<g id="#0f9fdfff">
<path fill="#0f9fdf" fill-opacity="0" d=" M 1154.46 208.50 C 1158.06 204.05 1163.83 200.69 1169.67 201.35 C 1178.44 204.51 1180.23 214.21 1185.21 220.86 C 1188.07 225.16 1192.56 228.21 1195.02 232.78 C 1197.02 241.10 1194.79 250.62 1200.41 257.92 C 1211.10 255.64 1220.33 262.36 1229.60 266.48 C 1230.98 273.63 1234.51 280.38 1234.50 287.75 C 1232.69 317.29 1220.23 344.62 1212.94 372.97 C 1211.02 382.18 1204.41 389.54 1197.53 395.58 C 1190.49 401.78 1188.66 411.41 1184.47 419.43 C 1182.06 424.63 1176.48 427.89 1175.23 433.68 C 1173.13 442.90 1170.33 452.04 1165.99 460.46 C 1163.23 455.10 1160.95 449.51 1158.67 443.93 C 1154.98 447.92 1151.56 452.52 1146.27 454.44 C 1139.77 457.05 1132.69 460.79 1125.53 458.61 C 1113.41 456.95 1108.89 442.21 1097.11 440.13 C 1081.38 437.55 1065.45 442.11 1051.07 448.23 C 1045.12 450.98 1038.44 450.96 1032.08 451.88 C 1024.70 445.66 1017.93 438.73 1011.63 431.44 C 1007.73 426.93 1004.93 421.48 1000.34 417.59 C 998.10 415.62 995.01 415.46 992.19 415.26 C 994.86 404.50 986.71 396.17 983.43 386.74 C 981.61 381.42 980.67 375.60 982.27 370.09 C 983.25 365.42 986.26 361.57 988.05 357.22 C 996.20 334.91 1004.94 312.64 1008.52 288.99 C 1000.20 285.27 990.86 283.36 983.80 277.27 C 971.36 268.51 970.74 251.61 963.55 239.34 C 975.47 237.68 984.76 228.84 996.48 226.66 C 1001.18 224.63 1004.90 228.51 1008.92 230.09 C 1014.67 232.85 1020.29 237.33 1027.00 236.72 C 1031.84 236.50 1036.39 233.69 1041.31 234.73 C 1046.81 235.76 1052.18 237.33 1057.65 238.57 C 1063.05 239.94 1064.06 246.57 1063.79 251.38 C 1062.83 264.25 1060.47 277.00 1059.90 289.91 C 1064.51 287.75 1069.63 286.05 1073.01 282.01 C 1077.61 276.97 1079.77 268.93 1087.31 267.42 C 1096.43 263.67 1106.44 264.73 1116.02 264.90 C 1117.10 257.98 1118.09 251.05 1119.23 244.15 C 1119.91 239.48 1122.89 235.36 1126.62 232.58 C 1133.08 227.89 1142.82 229.71 1148.34 223.45 C 1150.69 218.64 1150.75 212.66 1154.46 208.50 Z" />
</g>
<g id="#cf9f5fff">
<path fill="#cf9f5f" fill-opacity="0" d=" M 886.20 211.06 C 889.04 208.91 892.83 208.77 896.06 209.97 C 907.30 214.18 918.44 218.80 928.60 225.31 C 939.34 232.00 951.23 236.51 963.55 239.34 C 970.74 251.61 971.36 268.51 983.80 277.27 C 990.86 283.36 1000.20 285.27 1008.52 288.99 C 1004.94 312.64 996.20 334.91 988.05 357.22 C 986.26 361.57 983.25 365.42 982.27 370.09 C 980.67 375.60 981.61 381.42 983.43 386.74 C 986.71 396.17 994.86 404.50 992.19 415.26 C 983.37 414.94 974.21 414.13 966.44 409.56 C 953.68 402.12 941.25 392.53 926.12 390.89 C 918.67 389.39 910.99 393.00 903.70 390.36 C 893.15 386.53 884.13 379.62 875.42 372.73 C 869.36 367.94 862.20 363.42 854.08 364.24 C 848.60 365.81 843.95 369.20 839.26 372.31 C 832.76 376.71 824.25 377.20 816.83 375.16 C 808.51 372.87 799.94 370.22 793.05 364.83 C 790.44 362.90 791.04 359.28 791.79 356.57 C 793.21 352.21 795.55 348.22 797.66 344.16 C 792.08 340.46 784.97 336.63 778.17 339.13 C 770.94 341.40 769.22 350.99 761.79 352.77 C 756.45 354.30 751.88 350.03 748.16 346.82 C 743.06 341.69 735.74 340.19 729.16 337.79 C 735.19 333.82 742.65 330.91 746.02 324.03 C 750.49 317.14 753.72 309.38 755.03 301.26 C 756.35 291.42 754.80 281.49 755.92 271.64 C 757.36 265.42 755.28 259.36 754.56 253.25 C 754.03 250.12 756.26 247.10 759.26 246.33 C 768.13 243.77 777.34 242.90 786.46 241.75 C 791.17 241.02 798.63 241.18 800.34 246.77 C 802.99 256.27 803.80 266.18 805.14 275.92 C 813.68 278.19 822.54 277.22 831.27 277.57 C 841.72 277.76 852.30 276.98 862.23 273.41 C 867.53 272.10 871.74 268.11 874.48 263.53 C 875.75 251.53 871.72 239.62 873.66 227.65 C 875.63 220.90 879.18 213.72 886.20 211.06 Z" />
</g>
<g id="#4f1fdfff">
<path fill="#4f1fdf" fill-opacity="0" d=" M 699.96 352.78 C 710.77 350.27 719.50 342.93 729.16 337.79 C 735.74 340.19 743.06 341.69 748.16 346.82 C 751.88 350.03 756.45 354.30 761.79 352.77 C 769.22 350.99 770.94 341.40 778.17 339.13 C 784.97 336.63 792.08 340.46 797.66 344.16 C 795.55 348.22 793.21 352.21 791.79 356.57 C 791.04 359.28 790.44 362.90 793.05 364.83 C 799.94 370.22 808.51 372.87 816.83 375.16 C 824.25 377.20 832.76 376.71 839.26 372.31 C 843.95 369.20 848.60 365.81 854.08 364.24 C 862.20 363.42 869.36 367.94 875.42 372.73 C 876.11 377.20 877.04 381.66 877.36 386.18 C 877.42 391.35 875.43 396.25 874.43 401.25 C 872.88 407.25 873.15 413.72 870.29 419.36 C 866.33 427.19 861.63 434.63 857.79 442.54 C 851.46 442.72 844.60 442.21 839.41 438.22 C 831.17 432.09 821.54 426.20 810.93 426.48 C 798.60 428.72 786.59 432.53 774.24 434.71 C 765.94 438.99 765.14 449.82 764.07 458.18 C 762.56 467.65 764.90 477.03 767.38 486.13 C 754.38 481.50 745.30 470.37 734.14 462.85 C 723.86 456.04 708.29 463.52 700.67 452.32 C 694.55 445.96 693.41 436.79 690.22 428.92 C 686.09 416.61 681.46 404.46 677.80 392.02 C 679.73 387.30 683.67 383.44 683.80 378.02 C 687.09 367.44 682.83 355.19 689.23 345.49 C 692.79 347.87 695.91 351.20 699.96 352.78 Z" />
</g>
<g id="#8f5f5fff">
<path fill="#8f5f5f" fill-opacity="0" d=" M 875.42 372.73 C 884.13 379.62 893.15 386.53 903.70 390.36 C 910.99 393.00 918.67 389.39 926.12 390.89 C 941.25 392.53 953.68 402.12 966.44 409.56 C 974.21 414.13 983.37 414.94 992.19 415.26 C 995.01 415.46 998.10 415.62 1000.34 417.59 C 1004.93 421.48 1007.73 426.93 1011.63 431.44 C 1017.93 438.73 1024.70 445.66 1032.08 451.88 C 1034.10 456.57 1035.42 462.04 1039.65 465.32 C 1043.58 468.71 1048.06 471.40 1052.08 474.67 C 1053.47 475.91 1055.21 477.66 1054.43 479.71 C 1052.88 482.42 1049.94 483.91 1047.45 485.63 C 1031.38 488.95 1015.24 495.48 1004.62 508.53 C 999.80 515.48 993.02 520.61 985.89 525.01 C 979.19 528.04 971.45 526.11 964.71 528.94 C 960.36 530.77 956.20 533.39 953.24 537.12 C 949.51 542.04 946.76 548.49 940.48 550.66 C 935.85 553.15 929.95 552.31 926.01 548.93 C 921.79 545.40 923.69 539.18 922.84 534.35 C 920.06 534.25 917.17 533.66 914.50 534.61 C 900.08 541.20 889.15 553.73 874.20 559.30 C 869.84 561.09 866.47 557.21 863.98 554.22 C 868.05 548.51 870.43 541.82 872.48 535.19 C 874.77 527.43 869.74 519.77 864.62 514.41 C 854.64 506.10 841.18 503.78 830.68 496.32 C 826.47 493.24 825.54 486.95 820.70 484.70 C 812.83 484.41 804.95 485.71 797.09 486.13 C 798.08 491.90 799.65 497.58 800.24 503.43 C 800.64 510.62 798.02 517.56 797.79 524.72 C 797.75 528.61 798.16 532.53 798.14 536.43 C 793.69 535.88 789.00 536.17 784.82 534.33 C 778.45 529.78 777.10 521.94 775.11 514.95 C 772.29 505.40 770.47 495.59 767.38 486.13 C 764.90 477.03 762.56 467.65 764.07 458.18 C 765.14 449.82 765.94 438.99 774.24 434.71 C 786.59 432.53 798.60 428.72 810.93 426.48 C 821.54 426.20 831.17 432.09 839.41 438.22 C 844.60 442.21 851.46 442.72 857.79 442.54 C 861.63 434.63 866.33 427.19 870.29 419.36 C 873.15 413.72 872.88 407.25 874.43 401.25 C 875.43 396.25 877.42 391.35 877.36 386.18 C 877.04 381.66 876.11 377.20 875.42 372.73 M 889.07 424.90 C 888.60 431.58 888.26 438.26 887.83 444.95 C 877.83 446.92 867.73 448.29 857.70 450.06 C 854.10 450.75 849.36 451.16 850.01 456.59 C 856.88 455.97 863.77 455.64 870.66 455.28 C 874.56 464.63 878.49 473.96 882.60 483.22 C 886.81 492.61 889.23 503.67 897.72 510.29 C 903.35 514.78 907.70 520.98 914.11 524.41 C 922.44 520.11 929.79 513.94 937.05 508.06 C 940.43 502.76 940.72 496.14 942.33 490.17 C 945.02 479.09 947.15 467.87 950.19 456.87 C 929.94 445.98 909.64 435.15 889.07 424.90 M 982.03 499.69 C 981.62 501.16 981.20 502.63 980.80 504.11 C 981.92 503.73 983.05 503.36 984.19 502.99 C 983.46 501.88 982.74 500.78 982.03 499.69 Z" />
</g>
<g id="#0f5f5fff">
<path fill="#0f5f5f" fill-opacity="0" d=" M 889.07 424.90 C 909.64 435.15 929.94 445.98 950.19 456.87 C 947.15 467.87 945.02 479.09 942.33 490.17 C 940.72 496.14 940.43 502.76 937.05 508.06 C 929.79 513.94 922.44 520.11 914.11 524.41 C 907.70 520.98 903.35 514.78 897.72 510.29 C 889.23 503.67 886.81 492.61 882.60 483.22 C 878.49 473.96 874.56 464.63 870.66 455.28 C 863.77 455.64 856.88 455.97 850.01 456.59 C 849.36 451.16 854.10 450.75 857.70 450.06 C 867.73 448.29 877.83 446.92 887.83 444.95 C 888.26 438.26 888.60 431.58 889.07 424.90 Z" />
</g>
<g id="#4f9fdfff">
<path fill="#4f9fdf" fill-opacity="0" d=" M 1051.07 448.23 C 1065.45 442.11 1081.38 437.55 1097.11 440.13 C 1108.89 442.21 1113.41 456.95 1125.53 458.61 C 1132.69 460.79 1139.77 457.05 1146.27 454.44 C 1151.56 452.52 1154.98 447.92 1158.67 443.93 C 1160.95 449.51 1163.23 455.10 1165.99 460.46 C 1169.15 467.02 1173.60 472.87 1176.54 479.55 C 1180.43 488.21 1184.06 496.98 1188.61 505.34 C 1194.98 517.96 1200.64 532.45 1197.44 546.73 C 1197.12 548.55 1196.76 550.36 1196.41 552.18 C 1188.01 552.31 1179.57 553.88 1172.36 558.46 C 1171.55 555.63 1170.74 552.79 1169.81 550.00 C 1166.96 545.20 1162.14 541.90 1157.31 539.31 C 1145.65 534.15 1133.79 528.79 1121.03 527.09 C 1112.13 524.58 1106.17 535.42 1097.45 533.55 C 1089.09 529.48 1084.44 519.89 1075.11 517.39 C 1065.06 518.10 1057.14 525.96 1047.27 527.49 C 1042.45 527.55 1036.89 527.37 1033.24 523.77 C 1031.32 521.82 1029.01 519.20 1029.99 516.26 C 1031.55 510.74 1035.80 506.58 1038.75 501.79 C 1042.17 496.69 1044.14 490.79 1047.45 485.63 C 1049.94 483.91 1052.88 482.42 1054.43 479.71 C 1055.21 477.66 1053.47 475.91 1052.08 474.67 C 1048.06 471.40 1043.58 468.71 1039.65 465.32 C 1035.42 462.04 1034.10 456.57 1032.08 451.88 C 1038.44 450.96 1045.12 450.98 1051.07 448.23 M 1065.12 476.14 C 1065.78 477.92 1066.51 479.69 1067.28 481.44 C 1067.91 480.01 1068.58 478.60 1069.23 477.17 C 1067.85 476.82 1066.48 476.48 1065.12 476.14 Z" />
</g>
<g id="#cf9fdfff">
<path fill="#cf9fdf" fill-opacity="0" d=" M 1065.12 476.14 C 1066.48 476.48 1067.85 476.82 1069.23 477.17 C 1068.58 478.60 1067.91 480.01 1067.28 481.44 C 1066.51 479.69 1065.78 477.92 1065.12 476.14 Z" />
</g>
<g id="#8fdf5fff">
<path fill="#8fdf5f" fill-opacity="0" d=" M 797.09 486.13 C 804.95 485.71 812.83 484.41 820.70 484.70 C 825.54 486.95 826.47 493.24 830.68 496.32 C 841.18 503.78 854.64 506.10 864.62 514.41 C 869.74 519.77 874.77 527.43 872.48 535.19 C 870.43 541.82 868.05 548.51 863.98 554.22 C 855.47 564.66 847.74 575.73 838.87 585.89 C 829.48 596.95 819.59 607.98 813.65 621.39 C 820.03 624.96 826.87 627.89 832.67 632.41 C 837.32 635.77 834.19 642.45 835.07 647.23 C 834.45 652.31 838.69 655.93 842.16 658.89 C 847.14 663.29 853.74 664.86 859.72 667.41 C 863.27 668.88 866.53 670.94 870.04 672.53 C 872.91 673.75 875.88 674.74 878.85 675.75 C 878.83 679.73 879.86 684.08 877.84 687.79 C 873.63 696.22 868.51 704.21 864.99 712.99 C 862.69 719.85 866.55 727.91 862.34 734.31 C 859.68 738.89 853.55 739.37 848.91 738.11 C 843.06 736.29 838.38 731.77 832.15 730.90 C 818.09 727.47 803.50 727.97 789.17 726.82 C 782.70 726.34 776.22 726.95 769.76 727.30 C 758.69 727.60 748.41 722.67 737.95 719.85 C 738.56 715.78 738.18 711.23 740.76 707.78 C 745.79 699.62 754.26 693.63 757.87 684.67 C 755.22 673.43 749.28 663.15 745.75 652.15 C 745.05 649.76 744.92 647.22 745.36 644.78 C 747.66 632.74 749.55 620.50 753.98 609.01 C 760.12 594.90 768.52 581.92 777.53 569.49 C 783.18 561.27 790.54 554.39 796.05 546.07 C 797.88 543.22 798.00 539.71 798.14 536.43 C 798.16 532.53 797.75 528.61 797.79 524.72 C 798.02 517.56 800.64 510.62 800.24 503.43 C 799.65 497.58 798.08 491.90 797.09 486.13 Z" />
</g>
<g id="#4f1f5fff">
<path fill="#4f1f5f" fill-opacity="0" d=" M 1004.62 508.53 C 1015.24 495.48 1031.38 488.95 1047.45 485.63 C 1044.14 490.79 1042.17 496.69 1038.75 501.79 C 1035.80 506.58 1031.55 510.74 1029.99 516.26 C 1029.01 519.20 1031.32 521.82 1033.24 523.77 C 1036.89 527.37 1042.45 527.55 1047.27 527.49 C 1057.14 525.96 1065.06 518.10 1075.11 517.39 C 1084.44 519.89 1089.09 529.48 1097.45 533.55 C 1106.17 535.42 1112.13 524.58 1121.03 527.09 C 1133.79 528.79 1145.65 534.15 1157.31 539.31 C 1162.14 541.90 1166.96 545.20 1169.81 550.00 C 1166.52 555.16 1162.91 560.11 1159.17 564.95 C 1156.96 568.01 1156.04 571.83 1153.68 574.78 C 1151.25 576.83 1147.88 577.09 1144.87 577.60 C 1136.67 578.55 1128.43 579.05 1120.19 579.40 C 1119.25 574.27 1119.33 568.75 1116.70 564.09 C 1114.78 564.02 1112.58 564.54 1111.77 566.50 C 1107.51 575.00 1104.47 585.90 1095.20 590.28 C 1088.26 593.92 1078.35 590.62 1073.49 597.88 C 1071.91 601.56 1071.18 606.13 1067.84 608.80 C 1059.41 615.43 1049.54 620.27 1039.18 623.01 C 1028.77 624.71 1019.63 617.18 1009.32 617.51 C 998.89 617.92 992.86 627.56 987.46 635.21 C 984.98 638.30 982.05 641.52 978.02 642.39 C 972.83 642.33 968.31 639.24 963.69 637.32 C 963.04 634.74 962.13 632.25 961.36 629.72 C 955.40 613.55 957.67 593.01 971.13 581.17 C 980.56 573.25 987.36 562.66 992.47 551.56 C 993.94 547.57 996.01 543.57 996.06 539.25 C 993.50 533.99 989.44 529.62 985.89 525.01 C 993.02 520.61 999.80 515.48 1004.62 508.53 M 991.39 576.50 C 991.25 577.41 990.98 579.24 990.85 580.15 C 991.76 580.02 993.59 579.75 994.50 579.61 C 993.48 578.55 992.44 577.51 991.39 576.50 Z" />
</g>
<g id="#0fdf5fff">
<path fill="#0fdf5f" fill-opacity="0" d=" M 982.03 499.69 C 982.74 500.78 983.46 501.88 984.19 502.99 C 983.05 503.36 981.92 503.73 980.80 504.11 C 981.20 502.63 981.62 501.16 982.03 499.69 Z" />
</g>
<g id="#8f1fdffe">
<path fill="#8f1fdf" fill-opacity="0" d=" M 964.71 528.94 C 971.45 526.11 979.19 528.04 985.89 525.01 C 989.44 529.62 993.50 533.99 996.06 539.25 C 996.01 543.57 993.94 547.57 992.47 551.56 C 987.36 562.66 980.56 573.25 971.13 581.17 C 957.67 593.01 955.40 613.55 961.36 629.72 C 960.86 634.10 960.03 638.47 958.54 642.63 C 956.23 648.75 950.11 652.16 946.93 657.70 C 944.23 663.72 946.32 671.35 941.59 676.54 C 938.87 680.43 933.78 681.81 929.29 681.09 C 923.34 677.67 918.50 672.35 916.16 665.86 C 913.91 661.50 915.95 656.70 916.21 652.16 C 916.77 643.70 916.19 635.22 915.93 626.77 C 908.05 627.40 906.10 636.45 899.83 639.84 C 894.93 643.98 887.96 642.72 882.39 645.12 C 881.16 650.92 881.73 657.01 880.17 662.74 C 878.11 667.10 873.53 669.45 870.04 672.53 C 866.53 670.94 863.27 668.88 859.72 667.41 C 853.74 664.86 847.14 663.29 842.16 658.89 C 838.69 655.93 834.45 652.31 835.07 647.23 C 834.19 642.45 837.32 635.77 832.67 632.41 C 826.87 627.89 820.03 624.96 813.65 621.39 C 819.59 607.98 829.48 596.95 838.87 585.89 C 847.74 575.73 855.47 564.66 863.98 554.22 C 866.47 557.21 869.84 561.09 874.20 559.30 C 889.15 553.73 900.08 541.20 914.50 534.61 C 917.17 533.66 920.06 534.25 922.84 534.35 C 923.69 539.18 921.79 545.40 926.01 548.93 C 929.95 552.31 935.85 553.15 940.48 550.66 C 946.76 548.49 949.51 542.04 953.24 537.12 C 956.20 533.39 960.36 530.77 964.71 528.94 Z" />
</g>
<g id="#4f9f5fff">
<path fill="#4f9f5f" fill-opacity="0" d=" M 1159.17 564.95 C 1162.91 560.11 1166.52 555.16 1169.81 550.00 C 1170.74 552.79 1171.55 555.63 1172.36 558.46 C 1179.57 553.88 1188.01 552.31 1196.41 552.18 C 1193.30 562.02 1188.20 572.51 1190.96 583.02 C 1192.21 587.58 1193.47 592.22 1195.75 596.40 C 1198.09 599.79 1201.27 602.60 1204.65 604.95 C 1209.59 607.47 1215.47 606.74 1220.53 608.93 C 1223.38 611.34 1224.30 615.81 1222.12 619.03 C 1218.19 627.31 1215.39 636.73 1217.57 645.90 C 1220.48 653.24 1228.23 657.56 1230.67 665.13 C 1230.35 669.15 1227.95 672.59 1226.14 676.07 C 1219.31 688.33 1214.54 701.76 1206.10 713.09 C 1200.87 720.45 1193.94 726.29 1188.07 733.09 C 1182.17 739.61 1172.28 741.03 1164.29 737.92 C 1163.42 731.68 1161.77 725.59 1160.36 719.47 C 1164.89 708.64 1169.84 697.99 1174.25 687.11 C 1177.18 680.98 1172.83 674.56 1169.14 669.87 C 1163.30 665.62 1155.31 663.33 1151.77 656.49 C 1150.26 651.81 1151.76 646.62 1149.93 642.00 C 1147.02 636.35 1141.51 631.88 1135.15 631.02 C 1131.03 630.25 1126.46 630.57 1122.84 628.15 C 1118.62 624.41 1118.21 617.09 1112.29 615.19 C 1107.98 618.42 1106.24 623.82 1102.55 627.60 C 1100.22 630.50 1096.07 628.10 1094.15 625.90 C 1089.97 620.40 1090.28 612.46 1084.85 607.75 C 1082.33 606.52 1079.83 605.98 1077.29 605.07 C 1076.00 602.67 1074.74 600.27 1073.49 597.88 C 1078.35 590.62 1088.26 593.92 1095.20 590.28 C 1104.47 585.90 1107.51 575.00 1111.77 566.50 C 1112.58 564.54 1114.78 564.02 1116.70 564.09 C 1119.33 568.75 1119.25 574.27 1120.19 579.40 C 1128.43 579.05 1136.67 578.55 1144.87 577.60 C 1147.88 577.09 1151.25 576.83 1153.68 574.78 C 1156.04 571.83 1156.96 568.01 1159.17 564.95 Z" />
</g>
<g id="#cf1f5fff">
<path fill="#cf1f5f" fill-opacity="0" d=" M 991.39 576.50 C 992.44 577.51 993.48 578.55 994.50 579.61 C 993.59 579.75 991.76 580.02 990.85 580.15 C 990.98 579.24 991.25 577.41 991.39 576.50 Z" />
</g>
<g id="#0f1fdfff">
<path fill="#0f1fdf" fill-opacity="0" d=" M 1073.49 597.88 C 1074.74 600.27 1076.00 602.67 1077.29 605.07 C 1079.83 605.98 1082.33 606.52 1084.85 607.75 C 1090.28 612.46 1089.97 620.40 1094.15 625.90 C 1096.07 628.10 1100.22 630.50 1102.55 627.60 C 1106.24 623.82 1107.98 618.42 1112.29 615.19 C 1118.21 617.09 1118.62 624.41 1122.84 628.15 C 1126.46 630.57 1131.03 630.25 1135.15 631.02 C 1141.51 631.88 1147.02 636.35 1149.93 642.00 C 1151.76 646.62 1150.26 651.81 1151.77 656.49 C 1155.31 663.33 1163.30 665.62 1169.14 669.87 C 1172.83 674.56 1177.18 680.98 1174.25 687.11 C 1169.84 697.99 1164.89 708.64 1160.36 719.47 C 1158.30 718.67 1156.27 717.70 1154.09 717.39 C 1148.62 719.61 1144.66 724.32 1139.74 727.44 C 1131.73 731.43 1122.84 728.60 1114.44 729.75 C 1109.18 732.56 1104.16 737.09 1101.86 742.67 C 1109.63 748.51 1118.28 754.44 1121.47 764.16 C 1120.37 772.56 1115.92 780.21 1113.27 788.21 C 1111.25 792.82 1110.05 798.70 1105.05 801.06 C 1099.86 803.38 1094.75 806.97 1088.81 806.60 C 1077.04 805.84 1064.99 806.60 1053.81 810.54 C 1054.05 808.45 1054.33 806.40 1054.65 804.37 C 1047.92 803.32 1041.33 801.57 1034.72 799.98 C 1031.87 793.25 1027.94 786.01 1030.64 778.48 C 1035.26 764.15 1042.50 750.80 1047.71 736.67 C 1051.31 726.16 1055.83 714.92 1053.51 703.59 C 1052.57 699.23 1048.81 693.96 1043.62 695.97 C 1036.57 698.93 1030.68 704.42 1023.11 706.12 C 1014.20 707.93 1004.39 706.50 997.02 700.98 C 990.57 695.98 986.39 688.54 984.13 680.81 C 983.16 677.89 983.78 674.78 984.91 672.01 C 988.20 663.63 991.93 655.06 991.82 645.89 C 993.42 641.34 990.07 638.15 987.46 635.21 C 992.86 627.56 998.89 617.92 1009.32 617.51 C 1019.63 617.18 1028.77 624.71 1039.18 623.01 C 1049.54 620.27 1059.41 615.43 1067.84 608.80 C 1071.18 606.13 1071.91 601.56 1073.49 597.88 Z" />
</g>
<g id="#cf1fdfff">
<path fill="#cf1fdf" fill-opacity="0" d=" M 899.83 639.84 C 906.10 636.45 908.05 627.40 915.93 626.77 C 916.19 635.22 916.77 643.70 916.21 652.16 C 915.95 656.70 913.91 661.50 916.16 665.86 C 918.50 672.35 923.34 677.67 929.29 681.09 C 933.78 681.81 938.87 680.43 941.59 676.54 C 946.32 671.35 944.23 663.72 946.93 657.70 C 950.11 652.16 956.23 648.75 958.54 642.63 C 960.03 638.47 960.86 634.10 961.36 629.72 C 962.13 632.25 963.04 634.74 963.69 637.32 C 965.07 647.88 964.70 658.68 963.21 669.21 C 962.64 676.09 957.03 680.66 954.49 686.70 C 952.70 694.51 952.08 702.56 949.92 710.30 C 946.92 722.87 938.95 733.34 932.53 744.31 C 928.03 751.03 924.78 759.27 917.24 763.19 C 909.25 767.54 903.19 774.48 896.73 780.71 C 883.41 790.17 866.34 790.96 850.69 792.53 C 838.05 793.28 824.77 794.29 812.74 789.52 C 805.54 786.58 797.72 787.79 790.22 788.34 C 781.46 788.81 776.11 796.91 769.39 801.41 C 782.30 825.45 793.02 850.58 804.82 875.18 C 809.32 885.61 814.72 895.62 819.23 906.05 C 811.03 897.66 804.56 887.84 797.16 878.80 C 791.76 871.83 781.61 876.72 774.24 876.78 C 765.32 859.41 754.75 842.97 745.60 825.74 C 735.18 807.75 725.24 789.50 715.14 771.33 C 722.52 760.82 733.99 753.66 739.92 742.05 C 741.93 734.61 740.32 726.97 737.95 719.85 C 748.41 722.67 758.69 727.60 769.76 727.30 C 776.22 726.95 782.70 726.34 789.17 726.82 C 803.50 727.97 818.09 727.47 832.15 730.90 C 838.38 731.77 843.06 736.29 848.91 738.11 C 853.55 739.37 859.68 738.89 862.34 734.31 C 866.55 727.91 862.69 719.85 864.99 712.99 C 868.51 704.21 873.63 696.22 877.84 687.79 C 879.86 684.08 878.83 679.73 878.85 675.75 C 875.88 674.74 872.91 673.75 870.04 672.53 C 873.53 669.45 878.11 667.10 880.17 662.74 C 881.73 657.01 881.16 650.92 882.39 645.12 C 887.96 642.72 894.93 643.98 899.83 639.84 Z" />
</g>
<g id="#8f9fdfff">
<path fill="#8f9fdf" fill-opacity="0" d=" M 987.46 635.21 C 990.07 638.15 993.42 641.34 991.82 645.89 C 991.93 655.06 988.20 663.63 984.91 672.01 C 983.78 674.78 983.16 677.89 984.13 680.81 C 986.39 688.54 990.57 695.98 997.02 700.98 C 1004.39 706.50 1014.20 707.93 1023.11 706.12 C 1030.68 704.42 1036.57 698.93 1043.62 695.97 C 1048.81 693.96 1052.57 699.23 1053.51 703.59 C 1055.83 714.92 1051.31 726.16 1047.71 736.67 C 1042.50 750.80 1035.26 764.15 1030.64 778.48 C 1027.94 786.01 1031.87 793.25 1034.72 799.98 C 1041.33 801.57 1047.92 803.32 1054.65 804.37 C 1054.33 806.40 1054.05 808.45 1053.81 810.54 C 1051.95 824.31 1048.35 837.84 1044.13 851.06 C 1042.59 856.84 1036.70 859.31 1031.58 861.08 C 1027.87 861.90 1025.57 857.88 1022.94 856.06 C 1020.67 854.23 1017.38 850.14 1014.58 853.48 C 1008.35 865.35 1007.49 881.43 995.38 889.43 C 983.73 897.36 972.78 907.96 958.52 910.80 C 958.88 915.70 958.79 920.81 956.36 925.23 C 951.25 935.45 942.72 944.29 942.35 956.39 C 935.29 952.45 928.40 948.20 921.03 944.88 C 914.39 941.95 909.84 935.85 903.53 932.46 C 895.61 932.22 887.94 934.75 880.02 934.69 C 872.02 935.16 863.77 933.29 856.00 936.04 C 850.62 936.86 844.39 941.44 839.01 938.00 C 832.27 933.42 830.61 924.82 826.81 918.08 C 825.08 913.56 821.46 910.25 819.23 906.05 C 814.72 895.62 809.32 885.61 804.82 875.18 C 793.02 850.58 782.30 825.45 769.39 801.41 C 776.11 796.91 781.46 788.81 790.22 788.34 C 797.72 787.79 805.54 786.58 812.74 789.52 C 824.77 794.29 838.05 793.28 850.69 792.53 C 866.34 790.96 883.41 790.17 896.73 780.71 C 903.19 774.48 909.25 767.54 917.24 763.19 C 924.78 759.27 928.03 751.03 932.53 744.31 C 938.95 733.34 946.92 722.87 949.92 710.30 C 952.08 702.56 952.70 694.51 954.49 686.70 C 957.03 680.66 962.64 676.09 963.21 669.21 C 964.70 658.68 965.07 647.88 963.69 637.32 C 968.31 639.24 972.83 642.33 978.02 642.39 C 982.05 641.52 984.98 638.30 987.46 635.21 Z" />
</g>
</svg>
