<?xml version="1.0" encoding="UTF-8" ?>
<!DOCTYPE svg PUBLIC "-//W3C//DTD SVG 1.1//EN" "http://www.w3.org/Graphics/SVG/1.1/DTD/svg11.dtd">
<svg width="1920pt" height="1080pt" viewBox="0 0 1920 1080" version="1.1" xmlns="http://www.w3.org/2000/svg">
<g id="#ef5fdfff">
<path fill="#ef5fdf" fill-opacity="0" d=" M 987.77 206.51 C 996.11 206.07 1004.10 201.54 1012.54 202.68 C 1017.33 204.69 1024.02 207.10 1024.45 213.15 C 1025.10 217.11 1024.62 221.50 1027.06 224.95 C 1030.63 231.22 1036.78 236.03 1038.70 243.21 C 1040.17 247.14 1040.48 252.50 1044.52 254.89 C 1048.49 256.36 1052.98 256.16 1056.76 258.24 C 1061.70 261.05 1066.91 263.93 1070.77 268.23 C 1073.98 272.87 1077.98 277.64 1078.85 283.34 C 1075.36 294.50 1065.95 302.33 1059.06 311.39 C 1063.35 316.39 1067.18 321.74 1071.09 327.04 C 1069.46 330.07 1068.26 333.36 1066.33 336.21 C 1055.42 339.62 1043.87 337.97 1032.67 338.71 C 1023.15 339.99 1014.06 343.63 1004.43 344.24 C 993.25 344.24 982.47 349.49 975.27 357.97 C 969.50 362.86 961.86 358.03 955.43 360.51 C 949.99 362.69 945.49 366.67 940.04 368.80 C 932.09 371.56 925.43 365.28 917.91 364.21 C 913.67 362.51 909.17 363.18 904.83 363.82 C 901.22 358.74 897.90 352.74 899.41 346.25 C 901.88 336.48 909.64 329.02 912.33 319.31 C 914.44 311.71 916.46 303.67 914.73 295.81 C 912.95 287.34 911.53 278.68 911.91 270.01 C 913.11 262.02 919.84 256.57 925.04 251.05 C 931.45 244.34 935.21 235.72 939.97 227.88 C 946.41 225.24 953.69 223.88 958.87 218.88 C 964.09 214.99 967.91 209.42 973.44 205.96 C 978.19 204.86 982.97 206.75 987.77 206.51 M 987.02 274.29 C 986.43 276.22 986.31 278.24 986.09 280.23 C 988.36 279.81 990.65 279.37 992.93 278.92 C 992.95 277.44 992.99 275.97 993.04 274.51 C 991.03 274.37 989.02 274.21 987.02 274.29 M 1030.31 296.13 C 1029.05 297.80 1028.19 299.72 1027.30 301.60 C 1031.01 301.99 1034.30 300.40 1036.89 297.84 C 1034.73 297.13 1032.58 296.31 1030.31 296.13 Z" />
</g>
<g id="#7f8f7fff">
<path fill="#7f8f7f" fill-opacity="0" d=" M 919.55 238.47 C 925.77 233.87 932.77 230.63 939.97 227.88 C 935.21 235.72 931.45 244.34 925.04 251.05 C 919.84 256.57 913.11 262.02 911.91 270.01 C 911.53 278.68 912.95 287.34 914.73 295.81 C 916.46 303.67 914.44 311.71 912.33 319.31 C 909.64 329.02 901.88 336.48 899.41 346.25 C 897.90 352.74 901.22 358.74 904.83 363.82 C 910.48 370.79 916.35 377.80 919.55 386.31 C 909.35 384.66 899.88 380.46 890.16 377.18 C 882.92 376.27 875.76 379.77 868.51 379.03 C 855.77 378.32 848.44 365.17 835.66 364.41 C 832.52 367.48 828.36 368.93 824.08 369.44 C 821.63 362.44 817.95 355.65 817.47 348.14 C 816.26 339.18 825.59 334.41 828.87 327.15 C 829.56 320.55 826.44 314.45 824.84 308.21 C 829.76 303.71 835.48 300.00 839.82 294.88 C 844.28 289.28 844.17 281.69 843.05 274.99 C 851.46 279.70 862.90 280.16 870.40 273.42 C 876.43 267.79 882.34 261.98 887.74 255.72 C 889.15 254.14 890.71 252.64 892.63 251.68 C 901.55 247.17 910.77 243.23 919.55 238.47 Z" />
</g>
<g id="#7f4f00ff">
<path fill="#7f4f00" fill-opacity="0" d=" M 806.79 276.74 C 814.27 272.38 821.47 265.57 830.68 266.17 C 836.21 265.66 841.06 270.19 843.05 274.99 C 844.17 281.69 844.28 289.28 839.82 294.88 C 835.48 300.00 829.76 303.71 824.84 308.21 C 826.44 314.45 829.56 320.55 828.87 327.15 C 825.59 334.41 816.26 339.18 817.47 348.14 C 817.95 355.65 821.63 362.44 824.08 369.44 C 822.24 374.39 821.72 380.07 818.29 384.28 C 813.66 388.42 807.79 390.94 802.04 393.13 C 791.68 396.05 781.00 393.68 770.75 391.63 C 763.23 389.89 756.64 385.02 748.80 384.55 C 740.22 384.25 731.31 387.01 723.06 383.66 C 723.65 375.00 724.28 366.17 722.36 357.63 C 721.10 351.97 719.85 346.30 719.09 340.54 C 724.01 335.68 730.85 331.75 732.46 324.60 C 733.72 318.69 735.47 312.88 738.25 307.50 C 752.63 305.28 765.85 299.07 778.78 292.71 C 783.29 290.42 786.31 286.06 790.86 283.84 C 796.02 281.10 802.10 280.46 806.79 276.74 Z" />
</g>
<g id="#008f7fff">
<path fill="#008f7f" fill-opacity="0" d=" M 1070.77 268.23 C 1077.11 268.31 1083.42 267.76 1089.78 267.93 C 1098.85 268.73 1107.50 272.15 1116.63 272.61 C 1126.36 273.76 1137.86 272.65 1144.51 281.44 C 1152.94 289.36 1150.34 302.01 1154.14 311.95 C 1156.41 317.53 1158.55 323.22 1161.46 328.51 C 1169.43 340.43 1182.84 347.37 1196.16 351.60 C 1190.17 354.50 1183.62 356.30 1178.23 360.34 C 1171.07 364.54 1166.60 372.13 1159.25 376.03 C 1152.70 377.52 1146.24 373.58 1139.66 374.87 C 1131.20 376.40 1122.96 379.24 1114.34 379.83 C 1108.40 373.02 1101.36 366.99 1097.23 358.79 C 1093.68 351.68 1087.46 346.52 1081.72 341.24 C 1077.38 337.14 1074.54 331.84 1071.09 327.04 C 1067.18 321.74 1063.35 316.39 1059.06 311.39 C 1065.95 302.33 1075.36 294.50 1078.85 283.34 C 1077.98 277.64 1073.98 272.87 1070.77 268.23 Z" />
</g>
<g id="#6fdfdfff">
<path fill="#6fdfdf" fill-opacity="0" d=" M 987.02 274.29 C 989.02 274.21 991.03 274.37 993.04 274.51 C 992.99 275.97 992.95 277.44 992.93 278.92 C 990.65 279.37 988.36 279.81 986.09 280.23 C 986.31 278.24 986.43 276.22 987.02 274.29 Z" />
</g>
<g id="#3f1000ff">
<path fill="#3f1000" fill-opacity="0" d=" M 1030.31 296.13 C 1032.58 296.31 1034.73 297.13 1036.89 297.84 C 1034.30 300.40 1031.01 301.99 1027.30 301.60 C 1028.19 299.72 1029.05 297.80 1030.31 296.13 Z" />
</g>
<g id="#bf0f7fff">
<path fill="#bf0f7f" fill-opacity="0" d=" M 1066.33 336.21 C 1068.26 333.36 1069.46 330.07 1071.09 327.04 C 1074.54 331.84 1077.38 337.14 1081.72 341.24 C 1087.46 346.52 1093.68 351.68 1097.23 358.79 C 1101.36 366.99 1108.40 373.02 1114.34 379.83 C 1117.33 383.49 1119.30 387.97 1119.76 392.69 C 1117.58 398.40 1115.52 404.60 1110.62 408.60 C 1102.49 416.13 1091.51 419.26 1080.88 421.29 C 1073.95 423.77 1068.01 428.32 1061.14 430.88 C 1050.08 435.01 1038.01 433.06 1026.70 435.80 C 1023.87 432.71 1019.72 429.74 1019.87 425.10 C 1019.35 416.65 1021.10 406.68 1015.37 399.60 C 1008.00 392.94 998.08 390.49 989.90 385.11 C 985.27 382.14 982.00 377.55 978.83 373.18 C 975.67 368.76 975.72 363.16 975.27 357.97 C 982.47 349.49 993.25 344.24 1004.43 344.24 C 1014.06 343.63 1023.15 339.99 1032.67 338.71 C 1043.87 337.97 1055.42 339.62 1066.33 336.21 Z" />
</g>
<g id="#7f8f00ff">
<path fill="#7f8f00" fill-opacity="0" d=" M 1196.16 351.60 C 1203.44 354.89 1211.02 357.45 1218.47 360.34 C 1227.62 363.58 1234.44 371.20 1243.71 374.24 C 1252.29 376.86 1259.90 382.32 1268.96 383.38 C 1273.19 390.16 1275.11 398.76 1271.82 406.33 C 1265.18 428.10 1259.76 450.24 1252.55 471.83 C 1243.51 472.58 1234.59 474.41 1225.89 476.89 C 1222.23 478.10 1218.39 479.63 1215.84 482.63 C 1214.01 487.05 1212.90 491.74 1211.04 496.16 C 1212.26 490.33 1213.29 484.45 1213.59 478.50 C 1206.35 476.83 1199.22 474.81 1192.15 472.55 C 1194.77 461.82 1196.75 450.95 1199.23 440.19 C 1191.84 435.75 1183.63 432.51 1176.87 427.11 C 1170.53 421.46 1173.22 412.04 1171.09 404.77 C 1168.79 398.69 1160.84 397.50 1155.25 397.79 C 1148.37 400.80 1144.27 408.03 1137.38 411.05 C 1134.31 412.33 1131.24 413.56 1128.17 414.74 C 1123.98 407.98 1120.04 400.86 1119.76 392.69 C 1119.30 387.97 1117.33 383.49 1114.34 379.83 C 1122.96 379.24 1131.20 376.40 1139.66 374.87 C 1146.24 373.58 1152.70 377.52 1159.25 376.03 C 1166.60 372.13 1171.07 364.54 1178.23 360.34 C 1183.62 356.30 1190.17 354.50 1196.16 351.60 M 1216.87 384.83 C 1218.24 385.98 1219.87 386.81 1221.62 387.27 C 1222.51 385.36 1223.10 383.33 1223.80 381.34 C 1221.27 381.60 1216.98 381.20 1216.87 384.83 Z" />
</g>
<g id="#000f7fff">
<path fill="#000f7f" fill-opacity="0" d=" M 955.43 360.51 C 961.86 358.03 969.50 362.86 975.27 357.97 C 975.72 363.16 975.67 368.76 978.83 373.18 C 982.00 377.55 985.27 382.14 989.90 385.11 C 998.08 390.49 1008.00 392.94 1015.37 399.60 C 1021.10 406.68 1019.35 416.65 1019.87 425.10 C 1019.72 429.74 1023.87 432.71 1026.70 435.80 C 1023.76 436.81 1020.69 438.08 1018.82 440.70 C 1014.43 446.33 1010.18 452.23 1004.46 456.61 C 995.31 457.89 987.82 451.48 980.19 447.60 C 976.20 444.71 973.23 440.66 969.16 437.89 C 964.49 434.64 959.37 432.12 954.38 429.44 C 937.18 420.67 928.38 402.43 919.55 386.31 C 916.35 377.80 910.48 370.79 904.83 363.82 C 909.17 363.18 913.67 362.51 917.91 364.21 C 925.43 365.28 932.09 371.56 940.04 368.80 C 945.49 366.67 949.99 362.69 955.43 360.51 Z" />
</g>
<g id="#efdf5fff">
<path fill="#efdf5f" fill-opacity="0" d=" M 824.08 369.44 C 828.36 368.93 832.52 367.48 835.66 364.41 C 848.44 365.17 855.77 378.32 868.51 379.03 C 875.76 379.77 882.92 376.27 890.16 377.18 C 899.88 380.46 909.35 384.66 919.55 386.31 C 928.38 402.43 937.18 420.67 954.38 429.44 C 942.57 427.42 930.74 431.16 921.60 438.62 C 917.00 442.43 912.31 446.70 906.23 447.82 C 900.53 449.14 894.92 446.70 889.46 445.42 C 887.11 447.22 884.81 449.08 882.33 450.69 C 873.95 453.87 864.83 452.36 857.02 448.42 C 852.91 453.02 848.06 457.47 841.81 458.72 C 830.93 461.53 819.95 457.52 809.73 454.10 C 807.79 449.42 805.87 444.48 806.42 439.32 C 807.34 430.39 808.60 421.04 804.98 412.47 C 802.25 406.34 801.35 399.77 802.04 393.13 C 807.79 390.94 813.66 388.42 818.29 384.28 C 821.72 380.07 822.24 374.39 824.08 369.44 Z" />
</g>
<g id="#bf8f7fff">
<path fill="#bf8f7f" fill-opacity="0" d=" M 1216.87 384.83 C 1216.98 381.20 1221.27 381.60 1223.80 381.34 C 1223.10 383.33 1222.51 385.36 1221.62 387.27 C 1219.87 386.81 1218.24 385.98 1216.87 384.83 Z" />
</g>
<g id="#7f0f7fff">
<path fill="#7f0f7f" fill-opacity="0" d=" M 723.06 383.66 C 731.31 387.01 740.22 384.25 748.80 384.55 C 756.64 385.02 763.23 389.89 770.75 391.63 C 781.00 393.68 791.68 396.05 802.04 393.13 C 801.35 399.77 802.25 406.34 804.98 412.47 C 808.60 421.04 807.34 430.39 806.42 439.32 C 805.87 444.48 807.79 449.42 809.73 454.10 C 803.14 451.61 796.07 451.54 789.15 450.98 C 782.75 448.43 779.09 438.58 770.86 441.84 C 762.98 447.55 758.64 456.72 754.06 465.04 C 748.42 476.28 741.53 487.11 738.47 499.44 C 736.96 505.27 739.10 511.13 740.37 516.79 C 743.94 532.41 747.37 548.06 751.15 563.63 C 750.94 564.04 750.52 564.86 750.31 565.27 C 739.37 558.22 729.91 549.18 719.29 541.68 C 709.09 534.62 700.95 524.09 698.32 511.82 C 693.54 490.53 686.39 469.81 682.41 448.35 C 679.97 440.46 683.63 432.50 688.25 426.28 C 693.96 418.78 698.86 410.20 706.84 404.81 C 713.94 399.47 722.36 393.29 723.06 383.66 Z" />
</g>
<g id="#3f8f7fff">
<path fill="#3f8f7f" fill-opacity="0" d=" M 1110.62 408.60 C 1115.52 404.60 1117.58 398.40 1119.76 392.69 C 1120.04 400.86 1123.98 407.98 1128.17 414.74 C 1131.24 413.56 1134.31 412.33 1137.38 411.05 C 1144.27 408.03 1148.37 400.80 1155.25 397.79 C 1160.84 397.50 1168.79 398.69 1171.09 404.77 C 1173.22 412.04 1170.53 421.46 1176.87 427.11 C 1183.63 432.51 1191.84 435.75 1199.23 440.19 C 1196.75 450.95 1194.77 461.82 1192.15 472.55 C 1199.22 474.81 1206.35 476.83 1213.59 478.50 C 1213.29 484.45 1212.26 490.33 1211.04 496.16 C 1206.37 511.95 1202.94 528.06 1198.92 544.02 C 1198.13 548.46 1193.32 549.92 1190.01 552.07 C 1183.55 554.99 1178.60 560.22 1172.81 564.16 C 1178.61 543.67 1181.83 522.54 1187.67 502.06 C 1172.98 496.99 1157.36 495.09 1143.04 488.89 C 1128.35 482.54 1112.73 478.20 1098.86 470.08 C 1094.03 464.08 1088.22 458.36 1086.48 450.58 C 1083.30 441.11 1082.11 431.15 1080.88 421.29 C 1091.51 419.26 1102.49 416.13 1110.62 408.60 Z" />
</g>
<g id="#7f0f00ff">
<path fill="#7f0f00" fill-opacity="0" d=" M 1061.14 430.88 C 1068.01 428.32 1073.95 423.77 1080.88 421.29 C 1082.11 431.15 1083.30 441.11 1086.48 450.58 C 1088.22 458.36 1094.03 464.08 1098.86 470.08 C 1101.42 475.25 1104.07 481.61 1101.27 487.27 C 1098.04 491.90 1091.48 491.76 1087.56 495.57 C 1084.10 499.36 1079.77 503.51 1078.77 508.73 C 1080.60 522.08 1094.88 527.88 1100.26 539.31 C 1104.73 551.27 1101.91 564.31 1104.95 576.51 C 1106.98 581.87 1108.98 587.41 1108.80 593.25 C 1102.27 592.14 1095.68 591.20 1089.11 590.45 C 1078.51 589.14 1068.60 584.85 1058.12 583.01 C 1051.10 581.81 1044.42 579.28 1037.53 577.56 C 1027.37 574.01 1014.72 575.61 1006.65 567.39 C 1003.45 564.52 1000.60 560.76 996.31 559.53 C 990.36 558.37 984.25 558.70 978.26 559.06 C 978.96 543.15 973.62 527.91 973.37 512.15 C 975.63 503.73 983.96 498.44 986.04 489.91 C 989.28 480.95 981.70 473.48 977.87 466.22 C 974.29 460.12 977.62 453.34 980.19 447.60 C 987.82 451.48 995.31 457.89 1004.46 456.61 C 1010.18 452.23 1014.43 446.33 1018.82 440.70 C 1020.69 438.08 1023.76 436.81 1026.70 435.80 C 1038.01 433.06 1050.08 435.01 1061.14 430.88 M 1049.31 513.69 C 1051.91 512.80 1053.79 510.91 1054.69 508.31 C 1052.08 509.20 1050.19 511.08 1049.31 513.69 Z" />
</g>
<g id="#004f00fe">
<path fill="#004f00" fill-opacity="0" d=" M 921.60 438.62 C 930.74 431.16 942.57 427.42 954.38 429.44 C 959.37 432.12 964.49 434.64 969.16 437.89 C 973.23 440.66 976.20 444.71 980.19 447.60 C 977.62 453.34 974.29 460.12 977.87 466.22 C 981.70 473.48 989.28 480.95 986.04 489.91 C 983.96 498.44 975.63 503.73 973.37 512.15 C 973.62 527.91 978.96 543.15 978.26 559.06 C 967.10 559.96 955.95 560.63 944.79 561.37 C 932.98 562.24 921.66 566.78 909.75 566.53 C 897.41 566.90 884.70 566.06 872.81 569.93 C 867.33 557.01 855.22 547.91 852.00 533.92 C 851.02 529.01 850.22 523.36 853.08 518.91 C 858.74 509.98 863.99 500.74 867.88 490.87 C 873.04 477.61 878.64 464.47 882.33 450.69 C 884.81 449.08 887.11 447.22 889.46 445.42 C 894.92 446.70 900.53 449.14 906.23 447.82 C 912.31 446.70 917.00 442.43 921.60 438.62 Z" />
</g>
<g id="#bf8f00ff">
<path fill="#bf8f00" fill-opacity="0" d=" M 770.86 441.84 C 779.09 438.58 782.75 448.43 789.15 450.98 C 796.07 451.54 803.14 451.61 809.73 454.10 C 819.95 457.52 830.93 461.53 841.81 458.72 C 848.06 457.47 852.91 453.02 857.02 448.42 C 864.83 452.36 873.95 453.87 882.33 450.69 C 878.64 464.47 873.04 477.61 867.88 490.87 C 863.99 500.74 858.74 509.98 853.08 518.91 C 850.22 523.36 851.02 529.01 852.00 533.92 C 855.22 547.91 867.33 557.01 872.81 569.93 C 873.47 572.07 874.07 574.27 874.26 576.53 C 876.07 583.65 870.54 589.17 867.39 594.94 C 857.26 598.35 846.56 599.28 835.94 599.39 C 825.32 598.84 816.14 604.93 806.23 607.61 C 800.73 609.13 795.18 606.55 790.07 604.94 C 771.56 598.40 755.71 583.05 751.15 563.63 C 747.37 548.06 743.94 532.41 740.37 516.79 C 739.10 511.13 736.96 505.27 738.47 499.44 C 741.53 487.11 748.42 476.28 754.06 465.04 C 758.64 456.72 762.98 447.55 770.86 441.84 M 789.89 516.26 C 790.27 517.86 790.68 519.47 791.08 521.08 C 792.44 520.65 793.80 520.21 795.18 519.78 C 794.46 518.18 793.75 516.59 793.05 515.00 C 791.99 515.42 790.94 515.84 789.89 516.26 Z" />
</g>
<g id="#004f7fff">
<path fill="#004f7f" fill-opacity="0" d=" M 1098.86 470.08 C 1112.73 478.20 1128.35 482.54 1143.04 488.89 C 1157.36 495.09 1172.98 496.99 1187.67 502.06 C 1181.83 522.54 1178.61 543.67 1172.81 564.16 C 1167.96 568.99 1163.02 573.79 1159.66 579.86 C 1157.22 580.22 1154.81 580.72 1152.40 581.18 C 1151.58 584.35 1150.75 587.53 1149.89 590.69 C 1147.60 594.80 1145.33 598.93 1142.77 602.88 C 1135.31 607.34 1131.01 615.10 1124.83 620.92 C 1121.60 624.30 1116.82 621.32 1113.16 620.33 C 1111.28 619.64 1109.40 618.94 1107.54 618.25 C 1107.21 609.89 1107.76 601.54 1108.80 593.25 C 1108.98 587.41 1106.98 581.87 1104.95 576.51 C 1101.91 564.31 1104.73 551.27 1100.26 539.31 C 1094.88 527.88 1080.60 522.08 1078.77 508.73 C 1079.77 503.51 1084.10 499.36 1087.56 495.57 C 1091.48 491.76 1098.04 491.90 1101.27 487.27 C 1104.07 481.61 1101.42 475.25 1098.86 470.08 Z" />
</g>
<g id="#000f00fe">
<path fill="#000f00" fill-opacity="0" d=" M 1049.31 513.69 C 1050.19 511.08 1052.08 509.20 1054.69 508.31 C 1053.79 510.91 1051.91 512.80 1049.31 513.69 Z" />
</g>
<g id="#3f107fff">
<path fill="#3f107f" fill-opacity="0" d=" M 789.89 516.26 C 790.94 515.84 791.99 515.42 793.05 515.00 C 793.75 516.59 794.46 518.18 795.18 519.78 C 793.80 520.21 792.44 520.65 791.08 521.08 C 790.68 519.47 790.27 517.86 789.89 516.26 Z" />
</g>
<g id="#efdfdfff">
<path fill="#efdfdf" fill-opacity="0" d=" M 978.26 559.06 C 984.25 558.70 990.36 558.37 996.31 559.53 C 1000.60 560.76 1003.45 564.52 1006.65 567.39 C 1014.72 575.61 1027.37 574.01 1037.53 577.56 C 1040.57 590.46 1040.71 603.86 1044.08 616.70 C 1044.58 620.62 1046.42 624.99 1044.87 628.95 C 1039.31 633.35 1031.92 634.86 1025.00 633.88 C 1020.27 633.84 1014.64 632.01 1011.01 635.96 C 1003.22 644.21 994.79 652.81 991.93 664.18 C 990.29 670.10 986.46 675.11 981.82 679.03 C 971.69 684.81 960.84 689.16 950.44 694.42 C 943.09 698.11 933.52 699.62 926.58 694.37 C 918.97 689.49 912.41 683.18 904.84 678.25 C 898.30 676.68 891.60 675.86 884.88 676.14 C 884.64 668.14 884.11 660.09 882.64 652.22 C 878.89 637.59 871.71 624.03 868.92 609.14 C 868.18 604.43 867.85 599.68 867.39 594.94 C 870.54 589.17 876.07 583.65 874.26 576.53 C 874.07 574.27 873.47 572.07 872.81 569.93 C 884.70 566.06 897.41 566.90 909.75 566.53 C 921.66 566.78 932.98 562.24 944.79 561.37 C 955.95 560.63 967.10 559.96 978.26 559.06 Z" />
</g>
<g id="#bf0f00ff">
<path fill="#bf0f00" fill-opacity="0" d=" M 751.15 563.63 C 755.71 583.05 771.56 598.40 790.07 604.94 C 795.18 606.55 800.73 609.13 806.23 607.61 C 816.14 604.93 825.32 598.84 835.94 599.39 C 846.56 599.28 857.26 598.35 867.39 594.94 C 867.85 599.68 868.18 604.43 868.92 609.14 C 871.71 624.03 878.89 637.59 882.64 652.22 C 884.11 660.09 884.64 668.14 884.88 676.14 C 867.34 676.83 849.79 677.39 832.27 678.37 C 814.53 680.91 797.87 688.16 781.82 695.84 C 774.09 699.58 765.31 699.11 757.03 700.58 C 757.02 704.02 758.44 708.57 755.12 710.96 C 749.28 715.23 740.94 718.07 739.37 726.18 C 739.51 732.54 741.50 738.65 743.29 744.71 C 740.52 750.03 737.36 755.29 736.48 761.33 C 735.38 765.97 732.62 772.38 726.90 771.90 C 724.62 772.11 722.14 771.26 721.54 768.83 C 716.45 754.30 711.84 739.60 706.89 725.02 C 705.14 720.25 705.77 715.07 704.68 710.17 C 702.84 701.27 699.02 692.95 696.56 684.23 C 693.16 672.42 687.63 660.65 688.27 648.10 C 688.66 639.57 695.39 633.81 698.78 626.53 C 701.35 619.77 708.43 617.60 714.51 615.23 C 722.19 611.39 729.80 607.16 736.58 601.84 C 741.59 597.11 740.60 589.80 741.78 583.60 C 742.06 576.49 746.98 571.12 750.31 565.27 C 750.52 564.86 750.94 564.04 751.15 563.63 Z" />
</g>
<g id="#008f00ff">
<path fill="#008f00" fill-opacity="0" d=" M 1037.53 577.56 C 1044.42 579.28 1051.10 581.81 1058.12 583.01 C 1068.60 584.85 1078.51 589.14 1089.11 590.45 C 1095.68 591.20 1102.27 592.14 1108.80 593.25 C 1107.76 601.54 1107.21 609.89 1107.54 618.25 C 1109.40 618.94 1111.28 619.64 1113.16 620.33 C 1114.24 638.32 1110.33 656.55 1113.97 674.40 C 1094.37 668.68 1073.87 664.85 1053.41 666.79 C 1044.33 668.08 1035.89 671.99 1026.98 674.00 C 1012.24 678.02 996.78 676.48 981.82 679.03 C 986.46 675.11 990.29 670.10 991.93 664.18 C 994.79 652.81 1003.22 644.21 1011.01 635.96 C 1014.64 632.01 1020.27 633.84 1025.00 633.88 C 1031.92 634.86 1039.31 633.35 1044.87 628.95 C 1046.42 624.99 1044.58 620.62 1044.08 616.70 C 1040.71 603.86 1040.57 590.46 1037.53 577.56 Z" />
</g>
<g id="#7fcf00ff">
<path fill="#7fcf00" fill-opacity="0" d=" M 1159.66 579.86 C 1164.94 578.65 1168.40 583.65 1171.72 586.84 C 1170.96 589.76 1169.92 592.70 1169.97 595.75 C 1170.54 599.11 1172.48 602.03 1174.17 604.92 C 1177.80 611.96 1185.22 615.79 1189.45 622.39 C 1193.26 627.81 1196.88 633.45 1199.50 639.56 C 1201.35 644.86 1203.68 650.79 1201.41 656.36 C 1196.55 671.49 1193.00 687.02 1188.15 702.15 C 1187.40 706.55 1182.53 706.96 1178.96 707.79 C 1180.25 709.14 1181.55 710.50 1182.84 711.87 C 1192.29 704.58 1203.93 701.50 1215.20 698.16 C 1215.31 704.14 1216.36 710.38 1214.16 716.11 C 1209.79 728.22 1206.12 740.56 1202.05 752.77 C 1200.67 756.77 1200.25 761.90 1196.09 764.08 C 1181.67 772.36 1164.96 775.39 1148.54 776.17 C 1149.11 773.21 1149.56 770.23 1150.08 767.27 C 1153.43 749.45 1161.35 732.34 1161.05 713.95 C 1161.18 710.16 1159.22 706.75 1157.53 703.51 C 1153.58 696.75 1149.40 689.77 1143.00 685.03 C 1134.72 678.46 1123.93 676.96 1113.97 674.40 C 1110.33 656.55 1114.24 638.32 1113.16 620.33 C 1116.82 621.32 1121.60 624.30 1124.83 620.92 C 1131.01 615.10 1135.31 607.34 1142.77 602.88 C 1144.29 603.62 1145.84 604.34 1147.40 605.06 C 1148.26 600.27 1149.03 595.48 1149.89 590.69 C 1150.75 587.53 1151.58 584.35 1152.40 581.18 C 1154.81 580.72 1157.22 580.22 1159.66 579.86 M 1172.48 646.27 C 1172.41 647.96 1172.32 649.66 1172.23 651.36 C 1176.51 651.56 1180.72 652.20 1184.97 652.84 C 1188.51 649.57 1192.77 646.82 1195.31 642.62 C 1195.26 640.49 1194.57 638.43 1194.16 636.36 C 1186.73 639.22 1179.75 643.07 1172.48 646.27 Z" />
</g>
<g id="#00cf00ff">
<path fill="#00cf00" fill-opacity="0" d=" M 1172.48 646.27 C 1179.75 643.07 1186.73 639.22 1194.16 636.36 C 1194.57 638.43 1195.26 640.49 1195.31 642.62 C 1192.77 646.82 1188.51 649.57 1184.97 652.84 C 1180.72 652.20 1176.51 651.56 1172.23 651.36 C 1172.32 649.66 1172.41 647.96 1172.48 646.27 Z" />
</g>
<g id="#6f5fdfff">
<path fill="#6f5fdf" fill-opacity="0" d=" M 1053.41 666.79 C 1073.87 664.85 1094.37 668.68 1113.97 674.40 C 1123.93 676.96 1134.72 678.46 1143.00 685.03 C 1149.40 689.77 1153.58 696.75 1157.53 703.51 C 1159.22 706.75 1161.18 710.16 1161.05 713.95 C 1161.35 732.34 1153.43 749.45 1150.08 767.27 C 1142.33 759.19 1140.35 748.11 1135.28 738.59 C 1130.25 733.79 1122.86 731.62 1115.99 732.81 C 1106.69 733.47 1097.30 733.97 1088.04 732.54 C 1078.10 731.77 1067.45 728.04 1058.03 733.03 C 1049.02 737.19 1044.72 748.35 1034.39 750.03 C 1022.74 751.95 1011.14 755.83 999.24 755.23 C 987.38 752.50 975.12 753.61 963.53 757.01 C 962.42 746.88 959.62 737.06 957.05 727.24 C 945.12 726.35 931.40 729.87 921.30 721.67 C 914.49 716.49 906.95 710.42 905.64 701.37 C 903.47 693.85 904.42 685.92 904.84 678.25 C 912.41 683.18 918.97 689.49 926.58 694.37 C 933.52 699.62 943.09 698.11 950.44 694.42 C 960.84 689.16 971.69 684.81 981.82 679.03 C 996.78 676.48 1012.24 678.02 1026.98 674.00 C 1035.89 671.99 1044.33 668.08 1053.41 666.79 Z" />
</g>
<g id="#6fdf5fff">
<path fill="#6fdf5f" fill-opacity="0" d=" M 832.27 678.37 C 849.79 677.39 867.34 676.83 884.88 676.14 C 891.60 675.86 898.30 676.68 904.84 678.25 C 904.42 685.92 903.47 693.85 905.64 701.37 C 906.95 710.42 914.49 716.49 921.30 721.67 C 931.40 729.87 945.12 726.35 957.05 727.24 C 959.62 737.06 962.42 746.88 963.53 757.01 C 963.88 765.85 962.92 774.70 963.29 783.56 C 963.33 792.05 965.02 800.69 963.08 809.08 C 961.12 817.92 960.49 827.47 955.05 835.08 C 952.87 839.12 948.90 842.65 948.66 847.49 C 948.65 860.28 949.69 873.06 949.61 885.85 L 949.64 886.45 C 940.99 884.11 931.75 886.77 924.31 891.31 C 921.21 894.35 920.33 898.81 918.64 902.67 C 915.01 911.59 906.23 918.83 896.33 918.53 C 889.67 916.89 887.39 909.52 884.79 904.05 C 883.91 900.40 879.98 899.14 876.82 898.37 C 871.14 897.90 865.71 900.40 860.07 900.55 C 850.35 900.72 841.74 895.03 833.70 890.30 C 821.91 881.52 810.49 872.24 799.51 862.48 C 792.72 856.53 792.96 846.63 790.22 838.70 C 786.97 828.52 784.66 818.11 782.14 807.75 C 780.91 801.75 774.94 798.90 770.47 795.57 C 764.83 791.34 756.91 788.84 754.46 781.66 C 750.45 769.42 747.62 756.83 743.29 744.71 C 741.50 738.65 739.51 732.54 739.37 726.18 C 740.94 718.07 749.28 715.23 755.12 710.96 C 758.44 708.57 757.02 704.02 757.03 700.58 C 765.31 699.11 774.09 699.58 781.82 695.84 C 797.87 688.16 814.53 680.91 832.27 678.37 M 826.99 774.99 C 826.35 776.60 825.72 778.23 825.10 779.85 C 826.01 780.18 826.92 780.52 827.85 780.86 C 828.87 779.69 829.91 778.53 830.95 777.38 C 829.62 776.58 828.30 775.78 826.99 774.99 Z" />
</g>
<g id="#3f8f00fe">
<path fill="#3f8f00" fill-opacity="0" d=" M 1058.03 733.03 C 1067.45 728.04 1078.10 731.77 1088.04 732.54 C 1097.30 733.97 1106.69 733.47 1115.99 732.81 C 1122.86 731.62 1130.25 733.79 1135.28 738.59 C 1140.35 748.11 1142.33 759.19 1150.08 767.27 C 1149.56 770.23 1149.11 773.21 1148.54 776.17 C 1145.53 790.11 1141.27 803.75 1137.57 817.52 C 1131.06 814.82 1124.72 810.40 1117.31 811.69 C 1115.41 819.24 1114.37 827.12 1111.31 834.33 C 1110.05 836.83 1108.19 840.00 1105.03 840.01 C 1100.58 838.89 1098.05 833.88 1093.31 833.48 C 1085.63 833.02 1077.94 833.61 1070.29 834.13 C 1068.83 834.27 1067.72 833.15 1066.74 832.27 C 1058.32 823.99 1050.98 814.09 1040.48 808.29 C 1040.10 809.37 1039.73 810.46 1039.38 811.57 C 1041.72 813.82 1044.28 815.95 1046.10 818.69 C 1047.24 821.23 1045.65 824.03 1045.83 826.62 C 1044.19 836.66 1043.18 846.78 1041.99 856.88 C 1041.39 859.89 1041.58 863.68 1038.72 865.63 C 1026.66 875.56 1010.37 876.81 996.10 881.93 C 988.11 884.41 987.11 894.23 981.46 899.36 C 977.98 901.61 973.98 902.87 970.14 904.35 C 965.66 899.71 961.15 895.04 956.19 890.95 C 954.05 889.18 951.26 888.13 949.61 885.85 C 949.69 873.06 948.65 860.28 948.66 847.49 C 948.90 842.65 952.87 839.12 955.05 835.08 C 960.49 827.47 961.12 817.92 963.08 809.08 C 965.02 800.69 963.33 792.05 963.29 783.56 C 962.92 774.70 963.88 765.85 963.53 757.01 C 975.12 753.61 987.38 752.50 999.24 755.23 C 1011.14 755.83 1022.74 751.95 1034.39 750.03 C 1044.72 748.35 1049.02 737.19 1058.03 733.03 Z" />
</g>
<g id="#ef5f5fff">
<path fill="#ef5f5f" fill-opacity="0" d=" M 826.99 774.99 C 828.30 775.78 829.62 776.58 830.95 777.38 C 829.91 778.53 828.87 779.69 827.85 780.86 C 826.92 780.52 826.01 780.18 825.10 779.85 C 825.72 778.23 826.35 776.60 826.99 774.99 Z" />
</g>
</svg>
