<?xml version="1.0" encoding="UTF-8" ?>
<!DOCTYPE svg PUBLIC "-//W3C//DTD SVG 1.1//EN" "http://www.w3.org/Graphics/SVG/1.1/DTD/svg11.dtd">
<svg width="1920pt" height="1080pt" viewBox="0 0 1920 1080" version="1.1" xmlns="http://www.w3.org/2000/svg">
<g id="#cf007fff">
<path fill="#cf007f" fill-opacity="0" d=" M 1226.46 192.39 C 1232.17 193.32 1234.39 186.22 1239.69 186.68 C 1247.19 188.38 1249.75 196.42 1254.63 201.36 C 1259.75 208.01 1267.00 212.71 1271.97 219.49 C 1264.72 225.36 1256.18 229.88 1250.44 237.42 C 1246.62 243.75 1250.18 251.93 1246.26 258.24 C 1237.72 263.50 1227.81 265.52 1218.37 268.48 C 1213.09 269.95 1210.27 274.99 1205.96 277.92 C 1197.93 282.30 1189.66 275.58 1181.34 277.60 C 1175.66 279.44 1170.43 282.31 1165.07 284.87 C 1162.44 279.33 1156.06 277.51 1152.43 272.98 C 1150.22 267.14 1149.43 260.77 1146.43 255.22 C 1142.39 257.03 1138.22 258.56 1134.02 259.96 C 1129.13 258.41 1123.85 257.59 1119.80 254.21 C 1114.91 250.88 1112.04 245.54 1109.40 240.41 C 1111.47 239.40 1113.56 238.40 1115.67 237.43 C 1115.52 235.99 1115.40 234.56 1115.28 233.13 L 1115.20 232.30 C 1122.90 228.88 1130.83 226.03 1138.51 222.57 C 1141.43 221.02 1144.45 222.85 1147.31 223.59 C 1151.08 224.87 1155.14 224.08 1158.98 224.93 C 1160.78 225.88 1161.98 227.67 1163.44 229.07 C 1166.49 226.35 1170.40 224.30 1172.56 220.68 C 1175.24 215.61 1177.37 209.50 1183.11 207.14 C 1197.00 200.78 1211.28 194.83 1226.46 192.39 Z" />
</g>
<g id="#0fbfbffe">
<path fill="#0fbfbf" fill-opacity="0" d=" M 754.31 198.29 C 757.53 194.80 762.80 195.79 767.11 195.06 C 768.17 199.82 768.28 204.98 770.75 209.29 C 774.86 213.53 780.34 216.18 784.31 220.60 C 785.95 224.11 785.73 228.14 786.32 231.88 C 790.49 231.54 794.65 231.29 798.84 231.47 C 803.35 233.13 806.61 237.83 811.90 237.28 C 816.08 237.53 820.44 236.09 824.58 237.28 C 825.71 238.85 826.39 240.68 827.16 242.44 C 821.25 244.59 815.20 247.22 810.66 251.68 C 806.29 257.52 808.80 265.11 806.38 271.47 C 799.77 281.16 787.95 284.22 777.90 288.86 C 770.05 292.57 764.01 282.94 756.03 283.52 C 746.82 284.07 737.19 286.27 729.83 292.15 C 726.85 280.82 724.43 269.37 722.12 257.89 C 721.48 254.23 719.02 251.36 716.37 248.93 C 716.76 243.70 715.69 238.38 712.75 234.00 C 715.12 232.87 717.50 231.76 719.89 230.66 C 719.54 228.39 719.17 226.12 718.82 223.85 C 722.21 221.75 725.28 218.73 729.24 217.68 C 737.43 215.83 744.96 211.21 753.63 211.81 C 753.38 207.49 750.77 202.02 754.31 198.29 Z" />
</g>
<g id="#4f007fff">
<path fill="#4f007f" fill-opacity="0" d=" M 1271.97 219.49 C 1275.82 217.28 1280.48 216.96 1284.82 216.63 C 1293.41 218.02 1299.84 225.05 1308.47 226.52 C 1315.09 226.76 1317.84 232.92 1322.15 236.76 C 1324.58 238.32 1327.52 238.83 1330.14 240.04 C 1333.06 241.10 1334.73 244.09 1337.68 245.10 C 1346.50 247.95 1356.52 249.81 1363.03 256.99 C 1367.55 261.80 1368.86 268.58 1371.93 274.26 C 1374.44 276.22 1377.73 276.63 1380.47 278.16 C 1385.88 283.81 1388.90 291.18 1392.58 297.99 C 1385.27 297.26 1377.62 298.37 1370.69 295.41 C 1361.20 291.80 1350.89 292.25 1340.93 292.54 C 1339.65 288.89 1339.22 284.89 1337.29 281.51 C 1335.26 279.86 1332.54 279.50 1330.03 279.30 C 1323.46 279.02 1316.73 279.35 1310.52 281.74 C 1305.80 283.36 1302.52 287.91 1297.52 288.81 C 1292.35 288.53 1288.52 292.00 1284.04 293.72 C 1279.25 295.61 1273.19 293.34 1269.06 296.97 C 1264.90 300.42 1261.10 304.28 1256.93 307.70 C 1247.77 314.78 1241.15 324.72 1230.98 330.59 C 1228.36 329.38 1224.99 328.62 1223.57 325.87 C 1222.46 322.27 1221.90 318.55 1221.25 314.86 C 1211.13 316.29 1202.20 321.44 1192.71 324.82 C 1186.08 327.26 1178.82 325.65 1171.97 326.13 C 1167.39 326.06 1162.03 328.52 1158.24 324.80 C 1151.69 320.66 1152.39 311.15 1156.49 305.60 C 1160.16 303.37 1164.77 303.66 1168.92 303.22 C 1167.83 297.06 1166.14 291.03 1165.07 284.87 C 1170.43 282.31 1175.66 279.44 1181.34 277.60 C 1189.66 275.58 1197.93 282.30 1205.96 277.92 C 1210.27 274.99 1213.09 269.95 1218.37 268.48 C 1227.81 265.52 1237.72 263.50 1246.26 258.24 C 1250.18 251.93 1246.62 243.75 1250.44 237.42 C 1256.18 229.88 1264.72 225.36 1271.97 219.49 Z" />
</g>
<g id="#4f00bffe">
<path fill="#4f00bf" fill-opacity="0" d=" M 704.44 233.46 C 706.99 231.67 710.39 232.12 712.75 234.00 C 715.69 238.38 716.76 243.70 716.37 248.93 C 719.02 251.36 721.48 254.23 722.12 257.89 C 724.43 269.37 726.85 280.82 729.83 292.15 C 726.64 294.91 723.99 298.28 721.77 301.84 C 719.20 307.47 719.05 313.78 718.61 319.84 C 711.53 321.02 704.22 321.25 697.33 323.40 C 690.95 325.55 687.12 331.52 681.65 335.01 C 677.11 335.30 672.64 333.84 668.13 333.62 C 660.64 332.65 653.11 334.13 645.98 336.37 C 643.94 326.16 643.28 315.65 640.01 305.71 C 636.42 295.09 633.85 283.76 627.03 274.61 C 630.00 273.16 632.93 271.59 635.60 269.60 C 638.35 266.67 638.76 261.75 642.82 260.03 C 649.56 256.83 656.61 254.30 663.38 251.12 C 664.79 249.14 662.25 244.67 664.87 243.00 C 668.29 240.83 672.19 239.58 675.88 237.92 C 677.36 240.40 678.80 242.91 680.28 245.39 C 688.69 242.21 696.68 237.98 704.44 233.46 Z" />
</g>
<g id="#4f3f00fe">
<path fill="#4f3f00" fill-opacity="0" d=" M 1084.67 233.61 C 1094.85 230.61 1105.13 236.54 1115.28 233.13 C 1115.40 234.56 1115.52 235.99 1115.67 237.43 C 1113.56 238.40 1111.47 239.40 1109.40 240.41 C 1112.04 245.54 1114.91 250.88 1119.80 254.21 C 1123.85 257.59 1129.13 258.41 1134.02 259.96 C 1134.40 261.15 1134.79 262.35 1135.20 263.55 C 1129.29 265.01 1122.84 265.46 1117.21 262.69 C 1114.15 261.38 1111.54 259.10 1108.33 258.32 C 1105.38 258.17 1103.52 261.02 1101.43 262.63 C 1098.04 266.36 1093.18 267.88 1088.73 269.87 C 1090.35 273.00 1092.49 275.93 1093.60 279.31 C 1094.50 284.91 1092.70 291.11 1095.80 296.24 C 1098.46 300.09 1103.95 299.44 1107.91 300.47 C 1102.98 305.38 1096.08 307.43 1090.60 311.56 C 1086.82 316.65 1086.41 324.05 1080.97 327.93 C 1074.88 332.08 1067.68 334.20 1060.90 336.90 C 1057.25 338.03 1053.52 338.89 1049.79 339.64 C 1045.55 338.41 1040.84 337.67 1037.59 334.47 C 1034.74 331.98 1032.51 328.72 1029.17 326.84 C 1020.68 323.10 1011.61 329.65 1003.08 326.13 C 1000.52 314.13 990.78 305.75 982.61 297.40 C 979.32 293.92 975.18 291.43 970.84 289.49 C 969.81 291.32 968.84 293.19 967.73 294.97 C 968.21 290.25 967.12 285.21 968.70 280.66 C 973.54 273.11 982.16 269.32 989.14 264.11 C 994.81 259.30 1002.59 257.27 1007.57 251.65 C 1012.44 244.32 1022.24 242.79 1030.39 243.53 C 1037.37 244.00 1036.26 253.39 1041.69 256.26 C 1044.51 257.73 1048.49 260.12 1051.27 257.31 C 1057.90 253.00 1056.09 243.71 1057.07 237.02 C 1066.13 234.84 1075.56 235.58 1084.67 233.61 Z" />
</g>
<g id="#4f3fbfff">
<path fill="#4f3fbf" fill-opacity="0" d=" M 827.16 242.44 C 830.91 243.17 834.19 245.33 837.61 246.95 C 837.80 251.48 838.23 255.98 838.63 260.51 C 848.00 257.64 857.34 262.97 866.88 262.05 C 867.48 272.39 868.01 282.74 869.02 293.05 C 875.87 293.75 882.01 297.16 888.40 299.48 C 880.98 300.20 873.67 301.53 866.48 303.42 C 863.76 304.39 861.23 302.82 858.85 301.73 C 856.65 308.98 853.47 316.09 853.21 323.79 C 849.60 325.20 846.02 326.65 842.45 328.15 C 842.61 332.73 844.63 337.91 842.21 342.21 C 838.99 345.16 833.34 344.71 830.11 341.91 C 823.90 337.45 818.66 329.91 810.04 331.16 C 802.62 332.04 796.08 336.13 789.52 339.43 C 781.63 343.63 773.21 346.81 765.64 351.59 C 758.01 348.62 749.72 348.18 741.78 346.52 C 740.95 341.37 741.29 335.43 737.77 331.25 C 731.67 327.00 724.91 323.80 718.61 319.84 C 719.05 313.78 719.20 307.47 721.77 301.84 C 723.99 298.28 726.64 294.91 729.83 292.15 C 737.19 286.27 746.82 284.07 756.03 283.52 C 764.01 282.94 770.05 292.57 777.90 288.86 C 787.95 284.22 799.77 281.16 806.38 271.47 C 808.80 265.11 806.29 257.52 810.66 251.68 C 815.20 247.22 821.25 244.59 827.16 242.44 Z" />
</g>
<g id="#4f7f3fff">
<path fill="#4f7f3f" fill-opacity="0" d=" M 1134.02 259.96 C 1138.22 258.56 1142.39 257.03 1146.43 255.22 C 1149.43 260.77 1150.22 267.14 1152.43 272.98 C 1156.06 277.51 1162.44 279.33 1165.07 284.87 C 1166.14 291.03 1167.83 297.06 1168.92 303.22 C 1164.77 303.66 1160.16 303.37 1156.49 305.60 C 1152.39 311.15 1151.69 320.66 1158.24 324.80 C 1162.03 328.52 1167.39 326.06 1171.97 326.13 C 1171.85 330.59 1171.73 335.26 1169.28 339.17 C 1161.24 356.66 1152.80 376.71 1158.91 396.13 C 1152.71 399.42 1145.29 400.84 1140.08 405.71 C 1137.44 410.05 1133.37 413.13 1130.15 416.93 C 1129.34 421.81 1129.96 426.81 1130.47 431.72 C 1125.07 432.25 1119.71 433.24 1114.44 434.49 C 1110.64 424.59 1102.85 417.02 1098.02 407.69 C 1100.94 404.63 1104.11 400.98 1102.88 396.40 C 1105.81 393.55 1109.41 390.98 1110.94 387.04 C 1111.77 382.31 1110.58 377.49 1109.74 372.86 C 1107.87 364.68 1107.40 355.68 1102.46 348.56 C 1098.39 341.56 1088.80 341.56 1084.60 334.56 C 1078.41 336.85 1073.26 342.13 1066.26 341.85 C 1064.12 340.62 1062.55 338.67 1060.90 336.90 C 1067.68 334.20 1074.88 332.08 1080.97 327.93 C 1086.41 324.05 1086.82 316.65 1090.60 311.56 C 1096.08 307.43 1102.98 305.38 1107.91 300.47 C 1103.95 299.44 1098.46 300.09 1095.80 296.24 C 1092.70 291.11 1094.50 284.91 1093.60 279.31 C 1092.49 275.93 1090.35 273.00 1088.73 269.87 C 1093.18 267.88 1098.04 266.36 1101.43 262.63 C 1103.52 261.02 1105.38 258.17 1108.33 258.32 C 1111.54 259.10 1114.15 261.38 1117.21 262.69 C 1122.84 265.46 1129.29 265.01 1135.20 263.55 C 1134.79 262.35 1134.40 261.15 1134.02 259.96 M 1108.82 333.05 C 1110.40 337.45 1112.06 341.83 1113.50 346.29 C 1120.51 343.77 1127.36 340.74 1133.81 337.01 C 1130.72 333.76 1127.23 330.58 1122.86 329.27 C 1117.97 329.46 1113.45 331.66 1108.82 333.05 Z" />
</g>
<g id="#cfbf3fff">
<path fill="#cfbf3f" fill-opacity="0" d=" M 612.84 275.60 C 617.22 274.28 622.95 271.31 627.03 274.61 C 633.85 283.76 636.42 295.09 640.01 305.71 C 643.28 315.65 643.94 326.16 645.98 336.37 C 637.92 340.17 629.08 341.78 620.77 344.79 C 616.95 351.79 614.42 361.14 605.61 363.51 C 600.77 354.50 596.59 345.11 590.86 336.62 C 586.11 346.55 580.56 356.07 575.67 365.94 C 569.60 365.07 562.19 365.38 558.11 359.92 C 550.71 350.89 544.60 340.89 537.74 331.46 C 534.29 333.51 530.84 335.51 527.50 337.71 C 525.17 333.78 523.33 329.25 519.46 326.56 C 514.87 323.22 509.26 321.89 503.91 320.31 C 503.74 313.03 502.27 305.94 499.55 299.21 C 507.79 298.48 515.90 296.67 524.17 296.15 C 527.95 295.71 530.91 299.30 534.69 298.77 C 536.58 297.49 538.01 295.68 539.64 294.12 C 546.46 299.91 556.01 297.27 563.42 294.23 C 565.93 293.42 568.36 290.43 571.12 291.95 C 574.05 293.14 576.64 295.48 579.88 295.71 C 584.44 294.95 588.38 292.28 592.67 290.70 C 596.12 289.23 600.24 288.86 602.95 286.02 C 605.94 282.34 607.74 276.90 612.84 275.60 Z" />
</g>
<g id="#8fbf3fff">
<path fill="#8fbf3f" fill-opacity="0" d=" M 1310.52 281.74 C 1316.73 279.35 1323.46 279.02 1330.03 279.30 C 1332.54 279.50 1335.26 279.86 1337.29 281.51 C 1339.22 284.89 1339.65 288.89 1340.93 292.54 C 1335.71 295.04 1329.41 297.04 1326.05 302.09 C 1322.25 308.11 1328.22 314.42 1327.97 320.56 C 1326.56 324.46 1323.58 327.83 1323.51 332.17 C 1323.12 340.56 1320.27 349.03 1322.57 357.36 C 1323.50 361.14 1324.31 364.92 1325.17 368.73 C 1322.53 371.53 1319.13 373.82 1314.96 373.06 C 1307.99 373.77 1301.20 371.06 1294.24 371.63 C 1281.49 372.39 1270.26 380.70 1257.24 379.39 C 1254.51 378.63 1252.25 376.82 1249.89 375.35 C 1250.58 368.96 1250.22 361.91 1254.72 356.75 C 1257.20 352.66 1262.11 347.14 1258.73 342.28 C 1251.04 335.32 1240.46 333.89 1230.98 330.59 C 1241.15 324.72 1247.77 314.78 1256.93 307.70 C 1261.10 304.28 1264.90 300.42 1269.06 296.97 C 1273.19 293.34 1279.25 295.61 1284.04 293.72 C 1288.52 292.00 1292.35 288.53 1297.52 288.81 C 1302.52 287.91 1305.80 283.36 1310.52 281.74 Z" />
</g>
<g id="#0f7f3fff">
<path fill="#0f7f3f" fill-opacity="0" d=" M 970.84 289.49 C 975.18 291.43 979.32 293.92 982.61 297.40 C 990.78 305.75 1000.52 314.13 1003.08 326.13 C 993.92 326.87 984.70 326.67 975.57 325.79 C 974.99 326.87 974.42 327.96 973.86 329.05 C 979.00 333.87 984.21 338.67 990.16 342.51 C 988.62 346.49 987.85 351.45 983.82 353.77 C 978.19 356.47 972.01 357.73 966.02 359.33 C 961.49 360.89 957.60 363.81 953.55 366.30 C 952.12 363.83 950.70 361.39 949.27 358.96 C 943.47 362.73 937.43 366.61 933.95 372.81 C 925.97 370.24 918.07 367.25 909.68 366.32 C 906.88 361.81 902.64 358.53 897.92 356.23 C 896.07 352.47 894.64 348.42 892.24 345.01 C 888.98 341.87 885.10 338.54 885.66 333.40 C 884.60 324.58 889.70 316.89 891.34 308.51 C 891.93 305.19 889.72 302.32 888.40 299.48 C 894.04 299.91 900.36 298.51 905.58 301.44 C 908.25 304.14 907.42 308.65 908.41 311.96 C 913.54 314.54 919.14 316.56 923.34 320.64 C 925.11 322.17 926.80 324.12 929.23 324.54 C 934.14 325.59 939.56 326.90 944.31 324.45 C 947.19 323.75 947.40 320.49 948.64 318.30 C 950.70 313.94 955.86 312.55 958.97 309.16 C 959.71 306.20 960.00 303.16 960.42 300.15 C 962.89 298.50 965.79 297.29 967.73 294.97 C 968.84 293.19 969.81 291.32 970.84 289.49 Z" />
</g>
<g id="#8fbf7fff">
<path fill="#8fbf7f" fill-opacity="0" d=" M 1340.93 292.54 C 1350.89 292.25 1361.20 291.80 1370.69 295.41 C 1377.62 298.37 1385.27 297.26 1392.58 297.99 C 1395.86 303.38 1401.89 305.75 1406.71 309.41 C 1412.23 312.61 1413.76 319.45 1418.54 323.34 C 1422.96 325.27 1427.93 325.06 1432.67 325.69 C 1433.31 328.15 1434.94 330.73 1434.29 333.29 C 1431.18 338.56 1424.51 339.09 1419.07 339.82 C 1416.98 334.70 1412.63 331.17 1408.00 328.43 C 1402.56 334.46 1398.75 341.83 1392.39 347.05 C 1394.03 350.27 1395.76 353.47 1397.42 356.71 C 1378.92 358.76 1361.27 365.36 1342.72 367.10 C 1336.87 367.71 1331.02 368.18 1325.17 368.73 C 1324.31 364.92 1323.50 361.14 1322.57 357.36 C 1320.27 349.03 1323.12 340.56 1323.51 332.17 C 1323.58 327.83 1326.56 324.46 1327.97 320.56 C 1328.22 314.42 1322.25 308.11 1326.05 302.09 C 1329.41 297.04 1335.71 295.04 1340.93 292.54 Z" />
</g>
<g id="#2f7f00ff">
<path fill="#2f7f00" fill-opacity="0" d=" M 491.32 305.14 C 493.13 302.03 496.51 300.72 499.55 299.21 C 502.27 305.94 503.74 313.03 503.91 320.31 C 509.26 321.89 514.87 323.22 519.46 326.56 C 523.33 329.25 525.17 333.78 527.50 337.71 C 521.33 342.46 513.42 343.20 506.28 345.62 C 498.25 349.36 489.59 353.47 484.94 361.43 C 482.44 365.68 477.63 367.64 474.43 371.25 C 470.49 377.25 463.07 378.32 456.92 380.87 C 454.67 378.52 452.59 375.73 449.49 374.49 C 444.90 373.85 440.62 375.61 436.52 377.33 C 438.18 381.21 439.91 385.19 442.89 388.27 C 444.48 390.35 447.24 392.51 446.48 395.46 C 445.52 399.07 441.74 400.65 438.97 402.67 C 438.96 407.69 436.72 412.35 432.05 414.73 C 429.82 410.44 427.62 406.16 425.51 401.82 C 423.59 402.52 421.67 403.24 419.75 403.96 C 424.64 415.25 428.79 426.87 434.61 437.73 L 435.03 438.55 C 434.87 439.87 435.17 441.05 435.95 442.08 C 436.23 442.46 436.80 443.20 437.09 443.57 C 436.83 445.43 437.66 447.22 439.25 448.23 C 439.45 449.42 439.65 450.62 439.85 451.82 C 439.83 453.32 441.04 454.37 442.29 454.98 C 442.47 456.25 442.66 457.52 442.83 458.80 C 442.75 460.32 443.99 461.39 445.26 461.99 C 448.36 470.86 451.32 479.82 455.46 488.27 C 462.32 503.58 468.29 519.30 475.97 534.24 C 477.34 538.18 478.72 542.13 480.01 546.11 C 472.64 533.75 467.94 520.02 460.31 507.80 C 456.52 501.83 454.03 495.18 451.26 488.71 C 433.99 449.00 416.50 409.40 399.36 369.64 C 397.12 364.10 393.76 358.91 392.44 353.05 C 393.76 349.62 396.51 347.04 398.60 344.10 C 401.17 343.53 405.46 344.03 406.57 340.75 C 406.47 338.43 405.67 336.23 405.12 334.00 C 407.34 333.06 409.58 332.16 411.80 331.19 C 408.67 325.25 409.19 318.63 410.92 312.33 C 416.18 312.55 421.61 314.15 426.79 312.82 C 430.84 310.45 433.72 306.41 438.08 304.41 C 441.33 311.52 444.20 318.79 447.30 325.97 C 452.79 324.88 458.15 323.30 463.51 321.72 C 470.00 319.77 476.96 320.61 483.48 318.91 C 488.54 316.14 488.55 309.61 491.32 305.14 Z" />
</g>
<g id="#0fbf00fe">
<path fill="#0fbf00" fill-opacity="0" d=" M 866.48 303.42 C 873.67 301.53 880.98 300.20 888.40 299.48 C 889.72 302.32 891.93 305.19 891.34 308.51 C 889.70 316.89 884.60 324.58 885.66 333.40 C 885.10 338.54 888.98 341.87 892.24 345.01 C 894.64 348.42 896.07 352.47 897.92 356.23 C 894.90 358.64 891.92 361.20 888.58 363.13 C 884.51 365.24 878.55 365.44 876.14 369.98 C 874.30 373.98 872.86 378.37 869.00 380.97 C 861.13 386.82 857.37 398.65 862.90 407.24 C 851.78 407.22 840.71 406.30 829.71 404.79 C 821.24 404.55 813.93 410.50 805.34 409.99 C 804.23 412.06 803.11 414.13 801.98 416.20 C 797.96 410.64 795.01 404.46 792.66 398.04 C 790.31 392.85 788.75 387.36 786.96 381.96 C 784.93 375.56 777.67 373.21 774.20 367.76 C 771.65 364.33 772.37 359.61 769.92 356.14 C 768.73 354.41 767.18 352.97 765.64 351.59 C 773.21 346.81 781.63 343.63 789.52 339.43 C 796.08 336.13 802.62 332.04 810.04 331.16 C 818.66 329.91 823.90 337.45 830.11 341.91 C 833.34 344.71 838.99 345.16 842.21 342.21 C 844.63 337.91 842.61 332.73 842.45 328.15 C 846.02 326.65 849.60 325.20 853.21 323.79 C 853.47 316.09 856.65 308.98 858.85 301.73 C 861.23 302.82 863.76 304.39 866.48 303.42 Z" />
</g>
<g id="#cf3f3fff">
<path fill="#cf3f3f" fill-opacity="0" d=" M 1192.71 324.82 C 1202.20 321.44 1211.13 316.29 1221.25 314.86 C 1221.90 318.55 1222.46 322.27 1223.57 325.87 C 1224.99 328.62 1228.36 329.38 1230.98 330.59 C 1240.46 333.89 1251.04 335.32 1258.73 342.28 C 1262.11 347.14 1257.20 352.66 1254.72 356.75 C 1250.22 361.91 1250.58 368.96 1249.89 375.35 C 1244.99 377.97 1239.99 380.42 1235.36 383.51 C 1231.66 385.78 1227.87 388.60 1223.35 388.71 C 1215.70 389.52 1208.70 385.47 1201.16 385.19 C 1186.17 383.74 1172.76 391.76 1158.91 396.13 C 1152.80 376.71 1161.24 356.66 1169.28 339.17 C 1171.73 335.26 1171.85 330.59 1171.97 326.13 C 1178.82 325.65 1186.08 327.26 1192.71 324.82 Z" />
</g>
<g id="#6f0000ff">
<path fill="#6f0000" fill-opacity="0" d=" M 697.33 323.40 C 704.22 321.25 711.53 321.02 718.61 319.84 C 724.91 323.80 731.67 327.00 737.77 331.25 C 741.29 335.43 740.95 341.37 741.78 346.52 C 749.72 348.18 758.01 348.62 765.64 351.59 C 767.18 352.97 768.73 354.41 769.92 356.14 C 772.37 359.61 771.65 364.33 774.20 367.76 C 777.67 373.21 784.93 375.56 786.96 381.96 C 788.75 387.36 790.31 392.85 792.66 398.04 C 785.33 400.79 777.70 404.14 769.67 403.18 C 766.26 399.27 765.94 393.48 762.38 389.68 C 753.77 388.06 746.27 394.18 739.10 397.87 C 735.50 396.62 731.60 394.12 727.72 395.64 C 722.17 397.67 716.86 400.30 711.28 402.23 C 702.51 396.38 692.50 392.93 683.36 387.81 C 678.28 384.25 673.36 380.21 667.03 379.15 C 665.27 375.04 662.31 371.01 662.50 366.35 C 663.92 364.18 666.14 362.75 668.18 361.24 C 666.07 356.66 662.02 353.63 657.69 351.28 C 655.73 344.97 651.44 339.92 645.98 336.37 C 653.11 334.13 660.64 332.65 668.13 333.62 C 672.64 333.84 677.11 335.30 681.65 335.01 C 687.12 331.52 690.95 325.55 697.33 323.40 Z" />
</g>
<g id="#cf7f3fff">
<path fill="#cf7f3f" fill-opacity="0" d=" M 975.57 325.79 C 984.70 326.67 993.92 326.87 1003.08 326.13 C 1011.61 329.65 1020.68 323.10 1029.17 326.84 C 1032.51 328.72 1034.74 331.98 1037.59 334.47 C 1040.84 337.67 1045.55 338.41 1049.79 339.64 C 1053.01 340.54 1056.13 341.72 1059.28 342.87 C 1056.79 345.68 1053.55 347.58 1050.37 349.47 C 1057.68 352.32 1064.44 356.46 1070.22 361.78 C 1054.37 366.49 1041.81 377.65 1027.36 385.19 C 1017.19 390.16 1007.24 395.57 997.14 400.68 C 991.68 404.03 986.67 408.04 981.29 411.51 C 978.80 408.69 974.86 406.51 974.27 402.49 C 973.44 398.07 973.51 392.63 969.52 389.61 C 961.80 383.80 958.23 374.42 953.55 366.30 C 957.60 363.81 961.49 360.89 966.02 359.33 C 972.01 357.73 978.19 356.47 983.82 353.77 C 987.85 351.45 988.62 346.49 990.16 342.51 C 984.21 338.67 979.00 333.87 973.86 329.05 C 974.42 327.96 974.99 326.87 975.57 325.79 Z" />
</g>
<g id="#4fbfbfff">
<path fill="#4fbfbf" fill-opacity="0" d=" M 1432.67 325.69 C 1436.04 325.35 1439.51 325.26 1442.80 326.27 C 1450.06 328.60 1457.83 328.81 1465.35 327.72 C 1467.70 332.51 1468.40 338.10 1467.07 343.29 C 1463.64 355.94 1457.41 367.61 1453.90 380.25 C 1462.49 384.73 1471.08 389.33 1480.19 392.74 C 1472.44 394.62 1464.75 396.74 1457.16 399.16 C 1450.21 401.41 1442.66 400.06 1435.71 402.09 C 1430.46 404.84 1425.97 408.87 1421.92 413.14 C 1418.76 405.42 1415.85 397.55 1411.76 390.26 C 1410.82 388.67 1409.53 386.88 1407.48 386.95 C 1402.69 386.84 1398.10 388.78 1393.32 388.68 C 1389.94 388.54 1386.53 388.05 1383.18 388.10 C 1376.11 388.40 1369.38 392.02 1362.26 391.26 C 1357.46 390.61 1355.20 385.71 1353.03 381.99 C 1350.30 376.57 1346.64 371.72 1342.72 367.10 C 1361.27 365.36 1378.92 358.76 1397.42 356.71 C 1395.76 353.47 1394.03 350.27 1392.39 347.05 C 1398.75 341.83 1402.56 334.46 1408.00 328.43 C 1412.63 331.17 1416.98 334.70 1419.07 339.82 C 1424.51 339.09 1431.18 338.56 1434.29 333.29 C 1434.94 330.73 1433.31 328.15 1432.67 325.69 Z" />
</g>
<g id="#4f7fbffe">
<path fill="#4f7fbf" fill-opacity="0" d=" M 1108.82 333.05 C 1113.45 331.66 1117.97 329.46 1122.86 329.27 C 1127.23 330.58 1130.72 333.76 1133.81 337.01 C 1127.36 340.74 1120.51 343.77 1113.50 346.29 C 1112.06 341.83 1110.40 337.45 1108.82 333.05 Z" />
</g>
<g id="#cf7fbfff">
<path fill="#cf7fbf" fill-opacity="0" d=" M 527.50 337.71 C 530.84 335.51 534.29 333.51 537.74 331.46 C 544.60 340.89 550.71 350.89 558.11 359.92 C 562.19 365.38 569.60 365.07 575.67 365.94 C 580.56 356.07 586.11 346.55 590.86 336.62 C 596.59 345.11 600.77 354.50 605.61 363.51 C 598.82 366.01 592.28 369.10 585.79 372.28 C 586.64 377.70 586.52 383.57 589.60 388.34 C 594.31 396.33 596.20 405.47 598.49 414.35 C 596.14 422.40 598.04 430.72 599.90 438.66 C 591.81 438.49 582.81 438.96 576.64 432.74 C 568.38 426.36 561.53 417.89 559.24 407.50 C 553.80 409.25 548.09 409.83 542.40 409.31 C 542.37 405.85 542.29 402.40 542.09 398.95 C 537.29 397.56 532.15 395.38 527.13 397.07 C 518.97 399.80 511.87 404.81 504.36 408.87 C 497.96 393.03 492.64 376.72 484.94 361.43 C 489.59 353.47 498.25 349.36 506.28 345.62 C 513.42 343.20 521.33 342.46 527.50 337.71 Z" />
</g>
<g id="#af7f7fff">
<path fill="#af7f7f" fill-opacity="0" d=" M 1066.26 341.85 C 1073.26 342.13 1078.41 336.85 1084.60 334.56 C 1088.80 341.56 1098.39 341.56 1102.46 348.56 C 1107.40 355.68 1107.87 364.68 1109.74 372.86 C 1110.58 377.49 1111.77 382.31 1110.94 387.04 C 1109.41 390.98 1105.81 393.55 1102.88 396.40 C 1100.12 389.89 1096.65 383.44 1091.22 378.77 C 1084.45 372.82 1076.91 367.82 1070.22 361.78 C 1064.44 356.46 1057.68 352.32 1050.37 349.47 C 1053.55 347.58 1056.79 345.68 1059.28 342.87 C 1056.13 341.72 1053.01 340.54 1049.79 339.64 C 1053.52 338.89 1057.25 338.03 1060.90 336.90 C 1062.55 338.67 1064.12 340.62 1066.26 341.85 Z" />
</g>
<g id="#4fbf00ff">
<path fill="#4fbf00" fill-opacity="0" d=" M 620.77 344.79 C 629.08 341.78 637.92 340.17 645.98 336.37 C 651.44 339.92 655.73 344.97 657.69 351.28 C 662.02 353.63 666.07 356.66 668.18 361.24 C 666.14 362.75 663.92 364.18 662.50 366.35 C 662.31 371.01 665.27 375.04 667.03 379.15 C 673.36 380.21 678.28 384.25 683.36 387.81 C 669.79 394.45 655.52 399.54 641.77 405.80 C 638.45 407.64 634.57 407.27 631.24 405.69 C 622.21 401.66 613.34 397.24 604.48 392.86 C 605.93 400.15 606.26 407.58 607.74 414.87 C 604.66 414.65 601.57 414.47 598.49 414.35 C 596.20 405.47 594.31 396.33 589.60 388.34 C 586.52 383.57 586.64 377.70 585.79 372.28 C 592.28 369.10 598.82 366.01 605.61 363.51 C 614.42 361.14 616.95 351.79 620.77 344.79 Z" />
</g>
<g id="#8f7fbfff">
<path fill="#8f7fbf" fill-opacity="0" d=" M 897.92 356.23 C 902.64 358.53 906.88 361.81 909.68 366.32 C 918.07 367.25 925.97 370.24 933.95 372.81 C 937.43 366.61 943.47 362.73 949.27 358.96 C 950.70 361.39 952.12 363.83 953.55 366.30 C 958.23 374.42 961.80 383.80 969.52 389.61 C 973.51 392.63 973.44 398.07 974.27 402.49 C 974.86 406.51 978.80 408.69 981.29 411.51 C 960.95 426.26 939.93 440.05 919.38 454.49 C 913.13 458.27 907.67 463.28 901.03 466.40 C 897.50 459.75 890.32 456.48 883.24 455.06 C 883.19 452.37 883.52 449.55 882.55 446.98 C 880.96 443.94 878.78 441.25 877.01 438.31 C 879.29 436.30 881.55 434.27 883.84 432.27 C 879.27 422.15 871.31 414.22 862.90 407.24 C 857.37 398.65 861.13 386.82 869.00 380.97 C 872.86 378.37 874.30 373.98 876.14 369.98 C 878.55 365.44 884.51 365.24 888.58 363.13 C 891.92 361.20 894.90 358.64 897.92 356.23 Z" />
</g>
<g id="#cfbf7fff">
<path fill="#cfbf7f" fill-opacity="0" d=" M 474.43 371.25 C 477.63 367.64 482.44 365.68 484.94 361.43 C 492.64 376.72 497.96 393.03 504.36 408.87 C 498.26 412.84 491.23 414.13 484.25 415.23 C 482.99 419.55 483.68 424.21 482.44 428.53 C 478.09 432.70 472.55 435.55 467.16 438.12 C 460.57 439.96 453.56 439.92 447.14 442.45 C 443.03 440.69 438.97 438.75 434.61 437.73 C 428.79 426.87 424.64 415.25 419.75 403.96 C 421.67 403.24 423.59 402.52 425.51 401.82 C 427.62 406.16 429.82 410.44 432.05 414.73 C 436.72 412.35 438.96 407.69 438.97 402.67 C 441.74 400.65 445.52 399.07 446.48 395.46 C 447.24 392.51 444.48 390.35 442.89 388.27 C 439.91 385.19 438.18 381.21 436.52 377.33 C 440.62 375.61 444.90 373.85 449.49 374.49 C 452.59 375.73 454.67 378.52 456.92 380.87 C 463.07 378.32 470.49 377.25 474.43 371.25 Z" />
<path fill="#cfbf7f" fill-opacity="0" d=" M 435.03 438.55 C 436.39 439.09 437.84 441.19 435.95 442.08 C 435.17 441.05 434.87 439.87 435.03 438.55 Z" />
</g>
<g id="#cf3fbffe">
<path fill="#cf3fbf" fill-opacity="0" d=" M 1027.36 385.19 C 1041.81 377.65 1054.37 366.49 1070.22 361.78 C 1076.91 367.82 1084.45 372.82 1091.22 378.77 C 1096.65 383.44 1100.12 389.89 1102.88 396.40 C 1104.11 400.98 1100.94 404.63 1098.02 407.69 C 1102.85 417.02 1110.64 424.59 1114.44 434.49 C 1116.25 438.65 1118.34 442.78 1118.68 447.41 C 1115.92 450.83 1110.84 449.92 1107.04 450.01 C 1098.47 448.29 1090.63 443.57 1081.87 442.70 C 1076.20 443.18 1071.09 446.45 1065.29 446.31 C 1058.17 447.35 1050.85 446.75 1044.13 444.02 C 1038.85 443.22 1037.17 438.02 1034.27 434.45 C 1032.40 431.50 1028.55 433.41 1025.83 433.48 C 1020.96 427.48 1018.12 419.64 1011.35 415.43 C 1005.58 411.56 1002.16 405.34 997.14 400.68 C 1007.24 395.57 1017.19 390.16 1027.36 385.19 Z" />
</g>
<g id="#8fbf00ff">
<path fill="#8fbf00" fill-opacity="0" d=" M 1325.17 368.73 C 1331.02 368.18 1336.87 367.71 1342.72 367.10 C 1346.64 371.72 1350.30 376.57 1353.03 381.99 C 1355.20 385.71 1357.46 390.61 1362.26 391.26 C 1369.38 392.02 1376.11 388.40 1383.18 388.10 C 1386.53 388.05 1389.94 388.54 1393.32 388.68 C 1398.10 388.78 1402.69 386.84 1407.48 386.95 C 1409.53 386.88 1410.82 388.67 1411.76 390.26 C 1415.85 397.55 1418.76 405.42 1421.92 413.14 C 1414.53 422.45 1406.10 431.12 1395.45 436.69 C 1383.60 441.47 1370.87 443.16 1358.26 444.46 C 1349.82 445.28 1345.77 436.10 1341.79 430.11 C 1338.89 431.43 1336.05 432.83 1333.20 434.21 C 1334.29 439.17 1335.13 444.18 1336.21 449.15 C 1324.97 456.08 1313.58 462.77 1302.00 469.10 C 1301.79 465.08 1301.67 461.09 1301.59 457.08 C 1299.58 456.28 1297.57 455.49 1295.57 454.73 C 1294.70 451.69 1293.49 448.48 1294.48 445.30 C 1294.90 442.51 1296.49 439.55 1295.31 436.76 C 1293.27 433.63 1289.90 431.68 1287.18 429.22 C 1286.87 423.30 1286.41 416.32 1281.19 412.50 C 1277.54 416.41 1274.70 422.23 1268.40 421.90 C 1271.58 417.61 1272.72 412.17 1276.01 408.00 C 1284.58 402.66 1294.73 408.17 1303.99 405.78 C 1307.68 403.74 1308.48 398.07 1306.67 394.48 C 1303.62 392.34 1299.65 392.51 1296.10 392.10 C 1293.49 385.54 1293.33 378.53 1294.24 371.63 C 1301.20 371.06 1307.99 373.77 1314.96 373.06 C 1319.13 373.82 1322.53 371.53 1325.17 368.73 Z" />
</g>
<g id="#0f3f7ffe">
<path fill="#0f3f7f" fill-opacity="0" d=" M 1257.24 379.39 C 1270.26 380.70 1281.49 372.39 1294.24 371.63 C 1293.33 378.53 1293.49 385.54 1296.10 392.10 C 1299.65 392.51 1303.62 392.34 1306.67 394.48 C 1308.48 398.07 1307.68 403.74 1303.99 405.78 C 1294.73 408.17 1284.58 402.66 1276.01 408.00 C 1272.72 412.17 1271.58 417.61 1268.40 421.90 C 1253.53 424.03 1238.37 426.48 1225.23 434.30 C 1222.09 436.36 1218.46 438.33 1217.03 442.03 C 1214.45 447.00 1216.63 452.51 1217.65 457.57 C 1209.66 458.76 1201.49 458.62 1193.62 460.62 C 1197.57 470.61 1204.62 478.98 1208.79 488.88 C 1205.41 487.20 1201.55 484.83 1197.72 486.60 C 1190.57 489.36 1183.35 491.95 1175.93 493.87 C 1170.58 494.98 1169.04 500.96 1165.14 504.05 C 1162.71 505.62 1159.72 505.88 1157.03 506.77 C 1152.70 501.18 1148.02 495.80 1142.15 491.78 C 1136.58 487.88 1132.42 482.40 1128.49 476.93 C 1134.17 472.83 1139.70 468.51 1145.05 463.99 C 1148.08 461.06 1147.81 456.11 1145.81 452.70 C 1142.84 449.56 1138.08 449.07 1135.10 446.02 C 1132.45 441.72 1131.28 436.66 1130.47 431.72 C 1129.96 426.81 1129.34 421.81 1130.15 416.93 C 1133.37 413.13 1137.44 410.05 1140.08 405.71 C 1145.29 400.84 1152.71 399.42 1158.91 396.13 C 1172.76 391.76 1186.17 383.74 1201.16 385.19 C 1208.70 385.47 1215.70 389.52 1223.35 388.71 C 1227.87 388.60 1231.66 385.78 1235.36 383.51 C 1239.99 380.42 1244.99 377.97 1249.89 375.35 C 1252.25 376.82 1254.51 378.63 1257.24 379.39 Z" />
</g>
<g id="#af7f00ff">
<path fill="#af7f00" fill-opacity="0" d=" M 641.77 405.80 C 655.52 399.54 669.79 394.45 683.36 387.81 C 692.50 392.93 702.51 396.38 711.28 402.23 C 707.93 403.55 704.70 405.18 701.48 406.71 C 703.23 414.89 706.29 422.95 711.88 429.29 C 707.36 432.40 702.46 434.87 697.49 437.16 C 691.52 440.21 685.96 444.02 679.89 446.88 C 674.76 449.30 669.05 447.57 663.68 447.26 C 664.67 451.47 665.38 455.73 666.15 459.99 C 661.50 461.14 656.86 463.42 651.96 462.66 C 648.47 462.21 644.60 461.28 641.41 463.31 C 639.50 465.53 639.03 468.59 637.91 471.26 C 631.61 472.28 625.27 473.24 619.21 475.29 C 613.13 477.36 606.58 477.19 600.38 478.76 C 594.67 480.78 590.71 485.96 584.78 487.53 L 584.06 487.78 C 578.99 481.88 574.51 475.45 571.21 468.40 C 569.01 468.81 566.81 469.22 564.62 469.62 C 561.40 462.15 555.24 455.94 547.04 454.55 C 557.95 448.68 564.67 437.08 576.64 432.74 C 582.81 438.96 591.81 438.49 599.90 438.66 C 598.04 430.72 596.14 422.40 598.49 414.35 C 601.57 414.47 604.66 414.65 607.74 414.87 C 606.26 407.58 605.93 400.15 604.48 392.86 C 613.34 397.24 622.21 401.66 631.24 405.69 C 634.57 407.27 638.45 407.64 641.77 405.80 Z" />
</g>
<g id="#cf7f00ff">
<path fill="#cf7f00" fill-opacity="0" d=" M 739.10 397.87 C 746.27 394.18 753.77 388.06 762.38 389.68 C 765.94 393.48 766.26 399.27 769.67 403.18 C 777.70 404.14 785.33 400.79 792.66 398.04 C 795.01 404.46 797.96 410.64 801.98 416.20 C 804.77 420.81 807.59 425.42 810.84 429.74 C 809.13 430.43 807.45 431.14 805.76 431.83 C 797.08 435.29 788.04 437.70 779.43 441.32 C 774.63 443.42 769.28 442.73 764.23 443.37 C 763.50 445.57 763.41 447.91 763.16 450.21 C 750.47 453.00 737.53 456.87 727.54 465.57 C 724.01 470.02 725.19 476.39 722.07 481.04 C 719.47 484.11 715.48 485.44 711.96 487.15 C 707.99 481.69 703.73 476.46 699.29 471.41 C 695.78 473.36 690.83 477.94 687.26 473.79 C 682.19 467.99 682.25 458.18 686.16 451.87 C 690.71 450.94 693.12 454.90 695.79 457.57 C 697.00 457.42 698.21 457.26 699.43 457.12 C 697.24 450.70 695.67 443.90 697.49 437.16 C 702.46 434.87 707.36 432.40 711.88 429.29 C 706.29 422.95 703.23 414.89 701.48 406.71 C 704.70 405.18 707.93 403.55 711.28 402.23 C 716.86 400.30 722.17 397.67 727.72 395.64 C 731.60 394.12 735.50 396.62 739.10 397.87 Z" />
</g>
<g id="#4f3f7fff">
<path fill="#4f3f7f" fill-opacity="0" d=" M 1457.16 399.16 C 1464.75 396.74 1472.44 394.62 1480.19 392.74 C 1487.56 398.35 1496.64 403.62 1498.53 413.61 C 1502.32 421.77 1495.47 428.63 1493.53 436.08 C 1494.12 443.71 1498.80 450.11 1502.51 456.56 C 1508.08 456.70 1516.05 454.04 1518.93 460.87 C 1521.07 466.60 1521.97 473.46 1519.18 479.13 C 1514.13 489.75 1508.21 499.98 1503.97 510.97 C 1500.90 509.05 1497.97 506.78 1494.51 505.60 C 1488.20 502.90 1481.54 505.15 1475.10 505.89 C 1475.42 501.61 1472.54 498.04 1470.51 494.59 C 1467.25 489.25 1460.91 486.81 1457.62 481.52 C 1455.66 478.86 1454.10 475.54 1450.92 474.15 C 1444.89 471.76 1438.29 471.35 1431.97 470.40 C 1428.34 476.97 1427.02 484.46 1424.15 491.31 C 1420.93 494.70 1416.65 497.67 1411.96 498.46 C 1405.51 498.36 1401.41 491.82 1401.28 485.88 C 1401.30 480.20 1397.53 476.05 1393.92 472.26 C 1393.21 465.79 1389.62 460.26 1385.47 455.45 C 1390.39 451.55 1395.54 447.90 1400.99 444.76 C 1399.16 442.06 1397.29 439.38 1395.45 436.69 C 1406.10 431.12 1414.53 422.45 1421.92 413.14 C 1425.97 408.87 1430.46 404.84 1435.71 402.09 C 1442.66 400.06 1450.21 401.41 1457.16 399.16 Z" />
</g>
<g id="#cf3f00ff">
<path fill="#cf3f00" fill-opacity="0" d=" M 527.13 397.07 C 532.15 395.38 537.29 397.56 542.09 398.95 C 542.29 402.40 542.37 405.85 542.40 409.31 C 548.09 409.83 553.80 409.25 559.24 407.50 C 561.53 417.89 568.38 426.36 576.64 432.74 C 564.67 437.08 557.95 448.68 547.04 454.55 C 541.99 455.78 536.77 456.88 531.56 456.48 C 527.99 453.71 526.41 448.96 522.61 446.43 C 518.48 445.70 514.63 448.29 511.16 450.13 C 505.60 453.45 504.31 460.43 501.52 465.76 C 492.07 468.82 482.17 470.41 472.84 473.81 C 469.35 474.87 467.36 478.02 465.70 481.02 C 463.69 484.99 459.11 486.30 455.46 488.27 C 451.32 479.82 448.36 470.86 445.26 461.99 C 445.22 460.58 444.60 458.60 442.83 458.80 C 442.66 457.52 442.47 456.25 442.29 454.98 C 442.34 453.54 441.61 451.59 439.85 451.82 C 439.65 450.62 439.45 449.42 439.25 448.23 C 439.46 446.37 438.64 444.60 437.09 443.57 C 436.80 443.20 436.23 442.46 435.95 442.08 C 437.84 441.19 436.39 439.09 435.03 438.55 L 434.61 437.73 C 438.97 438.75 443.03 440.69 447.14 442.45 C 453.56 439.92 460.57 439.96 467.16 438.12 C 472.55 435.55 478.09 432.70 482.44 428.53 C 483.68 424.21 482.99 419.55 484.25 415.23 C 491.23 414.13 498.26 412.84 504.36 408.87 C 511.87 404.81 518.97 399.80 527.13 397.07 Z" />
</g>
<g id="#0fbf7fff">
<path fill="#0fbf7f" fill-opacity="0" d=" M 981.29 411.51 C 986.67 408.04 991.68 404.03 997.14 400.68 C 1002.16 405.34 1005.58 411.56 1011.35 415.43 C 1018.12 419.64 1020.96 427.48 1025.83 433.48 C 1028.55 433.41 1032.40 431.50 1034.27 434.45 C 1037.17 438.02 1038.85 443.22 1044.13 444.02 C 1050.85 446.75 1058.17 447.35 1065.29 446.31 C 1071.09 446.45 1076.20 443.18 1081.87 442.70 C 1090.63 443.57 1098.47 448.29 1107.04 450.01 C 1110.84 449.92 1115.92 450.83 1118.68 447.41 C 1118.34 442.78 1116.25 438.65 1114.44 434.49 C 1119.71 433.24 1125.07 432.25 1130.47 431.72 C 1131.28 436.66 1132.45 441.72 1135.10 446.02 C 1138.08 449.07 1142.84 449.56 1145.81 452.70 C 1147.81 456.11 1148.08 461.06 1145.05 463.99 C 1139.70 468.51 1134.17 472.83 1128.49 476.93 C 1124.85 479.49 1119.88 480.18 1115.90 478.03 C 1111.97 475.92 1107.55 475.26 1103.22 474.57 C 1099.62 474.03 1096.29 472.15 1092.63 472.12 C 1085.95 473.42 1079.18 475.02 1073.14 478.24 C 1070.02 479.86 1068.54 483.20 1066.47 485.84 C 1064.54 488.46 1061.39 489.77 1059.30 492.21 C 1058.82 494.85 1060.12 497.45 1060.61 500.01 C 1056.87 504.15 1053.71 508.83 1049.58 512.61 C 1046.07 515.38 1042.08 517.44 1038.12 519.47 C 1030.38 513.07 1023.85 505.30 1015.96 499.09 C 1009.24 494.80 1001.75 491.84 994.81 487.92 C 995.44 478.93 997.45 468.31 991.40 460.59 C 986.55 456.41 981.97 450.37 975.30 449.35 C 970.34 452.25 967.11 458.27 960.89 458.65 C 955.20 459.09 949.65 460.42 944.33 462.47 C 940.51 458.91 935.62 455.56 930.08 457.67 C 926.09 458.79 922.23 457.34 919.38 454.49 C 939.93 440.05 960.95 426.26 981.29 411.51 Z" />
</g>
<g id="#8f3f3ffe">
<path fill="#8f3f3f" fill-opacity="0" d=" M 805.34 409.99 C 813.93 410.50 821.24 404.55 829.71 404.79 C 840.71 406.30 851.78 407.22 862.90 407.24 C 871.31 414.22 879.27 422.15 883.84 432.27 C 881.55 434.27 879.29 436.30 877.01 438.31 C 878.78 441.25 880.96 443.94 882.55 446.98 C 883.52 449.55 883.19 452.37 883.24 455.06 C 890.32 456.48 897.50 459.75 901.03 466.40 C 895.40 469.11 889.97 472.23 884.70 475.58 C 878.15 479.76 871.48 483.74 865.00 488.02 C 852.01 497.32 840.41 508.40 827.37 517.62 C 822.96 520.27 818.44 522.79 813.66 524.68 C 809.30 526.55 805.23 523.03 801.02 522.37 C 797.95 522.12 794.93 522.90 791.93 523.40 C 790.59 519.93 789.14 516.50 787.79 513.04 C 791.57 508.49 795.39 503.51 795.89 497.39 C 801.68 489.86 809.24 484.15 817.06 478.91 C 821.21 476.52 820.25 471.37 820.13 467.39 C 821.82 465.39 824.26 463.73 825.12 461.19 C 824.97 455.50 821.50 450.62 819.04 445.70 C 816.44 446.36 813.85 447.05 811.27 447.76 C 809.41 442.45 807.56 437.14 805.76 431.83 C 807.45 431.14 809.13 430.43 810.84 429.74 C 807.59 425.42 804.77 420.81 801.98 416.20 C 803.11 414.13 804.23 412.06 805.34 409.99 Z" />
</g>
<g id="#cf0000ff">
<path fill="#cf0000" fill-opacity="0" d=" M 1281.19 412.50 C 1286.41 416.32 1286.87 423.30 1287.18 429.22 C 1289.90 431.68 1293.27 433.63 1295.31 436.76 C 1296.49 439.55 1294.90 442.51 1294.48 445.30 C 1293.49 448.48 1294.70 451.69 1295.57 454.73 C 1292.05 459.70 1288.51 464.94 1283.04 467.96 C 1273.74 473.75 1263.62 478.06 1253.86 482.96 C 1254.03 483.57 1254.37 484.79 1254.55 485.40 C 1256.99 485.57 1259.45 485.72 1261.91 485.94 C 1262.19 487.54 1262.50 489.16 1262.82 490.77 C 1260.23 492.19 1257.65 493.62 1255.10 495.08 C 1259.83 498.13 1265.68 499.73 1268.96 504.66 C 1260.51 507.17 1251.91 509.24 1243.06 509.44 C 1237.60 509.67 1231.76 511.80 1226.66 508.93 C 1227.24 502.59 1234.57 500.98 1238.99 497.94 C 1234.87 493.58 1228.71 494.82 1223.36 494.54 C 1219.24 494.44 1215.18 495.14 1211.29 496.40 C 1210.49 493.88 1209.71 491.35 1208.79 488.88 C 1204.62 478.98 1197.57 470.61 1193.62 460.62 C 1201.49 458.62 1209.66 458.76 1217.65 457.57 C 1216.63 452.51 1214.45 447.00 1217.03 442.03 C 1218.46 438.33 1222.09 436.36 1225.23 434.30 C 1238.37 426.48 1253.53 424.03 1268.40 421.90 C 1274.70 422.23 1277.54 416.41 1281.19 412.50 Z" />
</g>
<g id="#2f007fff">
<path fill="#2f007f" fill-opacity="0" d=" M 1333.20 434.21 C 1336.05 432.83 1338.89 431.43 1341.79 430.11 C 1345.77 436.10 1349.82 445.28 1358.26 444.46 C 1370.87 443.16 1383.60 441.47 1395.45 436.69 C 1397.29 439.38 1399.16 442.06 1400.99 444.76 C 1395.54 447.90 1390.39 451.55 1385.47 455.45 C 1389.62 460.26 1393.21 465.79 1393.92 472.26 C 1387.16 472.51 1378.77 472.23 1374.68 478.74 C 1371.85 482.14 1374.02 486.70 1376.50 489.57 C 1379.65 494.23 1384.71 496.81 1389.35 499.69 C 1385.32 510.46 1377.24 521.18 1365.03 522.47 C 1362.04 520.56 1359.17 518.11 1355.56 517.56 C 1347.05 515.93 1338.42 514.98 1329.79 514.42 C 1322.38 514.11 1315.72 509.48 1311.37 503.69 C 1308.61 500.15 1305.34 495.82 1300.04 497.22 C 1292.32 498.41 1285.41 502.56 1277.80 504.26 C 1274.84 504.32 1271.87 504.15 1268.96 504.66 C 1265.68 499.73 1259.83 498.13 1255.10 495.08 C 1257.65 493.62 1260.23 492.19 1262.82 490.77 C 1262.50 489.16 1262.19 487.54 1261.91 485.94 C 1259.45 485.72 1256.99 485.57 1254.55 485.40 C 1254.37 484.79 1254.03 483.57 1253.86 482.96 C 1263.62 478.06 1273.74 473.75 1283.04 467.96 C 1288.51 464.94 1292.05 459.70 1295.57 454.73 C 1297.57 455.49 1299.58 456.28 1301.59 457.08 C 1301.67 461.09 1301.79 465.08 1302.00 469.10 C 1313.58 462.77 1324.97 456.08 1336.21 449.15 C 1335.13 444.18 1334.29 439.17 1333.20 434.21 M 1286.16 481.16 C 1285.24 485.16 1290.15 480.24 1286.16 481.16 Z" />
</g>
<g id="#8f00bfff">
<path fill="#8f00bf" fill-opacity="0" d=" M 779.43 441.32 C 788.04 437.70 797.08 435.29 805.76 431.83 C 807.56 437.14 809.41 442.45 811.27 447.76 C 813.85 447.05 816.44 446.36 819.04 445.70 C 821.50 450.62 824.97 455.50 825.12 461.19 C 824.26 463.73 821.82 465.39 820.13 467.39 C 820.25 471.37 821.21 476.52 817.06 478.91 C 809.24 484.15 801.68 489.86 795.89 497.39 C 791.37 497.18 786.25 497.24 783.27 501.26 C 775.89 509.65 767.99 517.63 761.34 526.63 C 759.68 524.19 758.24 521.61 756.82 519.03 C 749.36 521.63 742.78 526.04 736.03 530.03 C 733.74 528.37 731.45 526.73 729.16 525.08 C 728.78 521.32 730.37 517.04 728.52 513.49 C 724.09 509.70 716.56 509.95 713.76 504.26 C 711.38 498.92 711.87 492.86 711.96 487.15 C 715.48 485.44 719.47 484.11 722.07 481.04 C 725.19 476.39 724.01 470.02 727.54 465.57 C 737.53 456.87 750.47 453.00 763.16 450.21 C 763.41 447.91 763.50 445.57 764.23 443.37 C 769.28 442.73 774.63 443.42 779.43 441.32 Z" />
</g>
<g id="#0f7fbfff">
<path fill="#0f7fbf" fill-opacity="0" d=" M 679.89 446.88 C 685.96 444.02 691.52 440.21 697.49 437.16 C 695.67 443.90 697.24 450.70 699.43 457.12 C 698.21 457.26 697.00 457.42 695.79 457.57 C 693.12 454.90 690.71 450.94 686.16 451.87 C 682.25 458.18 682.19 467.99 687.26 473.79 C 690.83 477.94 695.78 473.36 699.29 471.41 C 703.73 476.46 707.99 481.69 711.96 487.15 C 711.87 492.86 711.38 498.92 713.76 504.26 C 716.56 509.95 724.09 509.70 728.52 513.49 C 730.37 517.04 728.78 521.32 729.16 525.08 C 716.17 531.06 702.17 534.91 690.06 542.66 C 688.49 541.69 686.93 540.74 685.38 539.77 C 682.09 543.39 677.34 544.80 672.63 545.30 C 670.67 542.20 668.63 539.17 666.60 536.11 C 659.69 536.91 652.43 536.91 646.06 540.11 C 642.54 542.75 640.66 547.39 636.34 548.98 C 631.82 550.70 627.14 552.10 622.98 554.63 C 621.36 549.84 618.68 545.52 615.82 541.38 C 611.64 541.50 607.27 542.02 603.25 540.56 C 600.55 532.41 603.04 523.26 599.26 515.28 C 594.22 516.02 589.18 516.66 584.10 516.77 C 586.67 513.43 592.27 510.02 589.77 505.18 C 587.18 499.58 585.05 493.75 584.78 487.53 C 590.71 485.96 594.67 480.78 600.38 478.76 C 606.58 477.19 613.13 477.36 619.21 475.29 C 625.27 473.24 631.61 472.28 637.91 471.26 C 639.03 468.59 639.50 465.53 641.41 463.31 C 644.60 461.28 648.47 462.21 651.96 462.66 C 656.86 463.42 661.50 461.14 666.15 459.99 C 665.38 455.73 664.67 451.47 663.68 447.26 C 669.05 447.57 674.76 449.30 679.89 446.88 Z" />
</g>
<g id="#cfa566ff">
<path fill="#cfa566" fill-opacity="0" d=" M 437.09 443.57 C 438.64 444.60 439.46 446.37 439.25 448.23 C 437.66 447.22 436.83 445.43 437.09 443.57 Z" />
</g>
<g id="#8f3fbeff">
<path fill="#8f3fbe" fill-opacity="0" d=" M 511.16 450.13 C 514.63 448.29 518.48 445.70 522.61 446.43 C 526.41 448.96 527.99 453.71 531.56 456.48 C 536.77 456.88 541.99 455.78 547.04 454.55 C 555.24 455.94 561.40 462.15 564.62 469.62 C 566.81 469.22 569.01 468.81 571.21 468.40 C 574.51 475.45 578.99 481.88 584.06 487.78 C 573.64 491.82 562.19 491.60 551.75 495.51 C 546.68 497.32 542.61 501.01 538.04 503.70 C 531.85 506.58 525.27 508.45 518.97 511.04 C 515.16 512.71 510.94 511.65 506.99 511.25 C 504.55 514.45 502.15 517.69 499.77 520.95 C 494.47 518.66 489.45 515.50 483.80 514.16 C 478.80 514.20 473.90 515.33 469.00 516.19 C 471.61 522.08 474.22 528.01 475.97 534.24 C 468.29 519.30 462.32 503.58 455.46 488.27 C 459.11 486.30 463.69 484.99 465.70 481.02 C 467.36 478.02 469.35 474.87 472.84 473.81 C 482.17 470.41 492.07 468.82 501.52 465.76 C 504.31 460.43 505.60 453.45 511.16 450.13 Z" />
</g>
<g id="#6f7f00ff">
<path fill="#6f7f00" fill-opacity="0" d=" M 960.89 458.65 C 967.11 458.27 970.34 452.25 975.30 449.35 C 981.97 450.37 986.55 456.41 991.40 460.59 C 997.45 468.31 995.44 478.93 994.81 487.92 C 1001.75 491.84 1009.24 494.80 1015.96 499.09 C 1023.85 505.30 1030.38 513.07 1038.12 519.47 C 1040.11 521.45 1042.76 523.26 1043.56 526.08 C 1043.65 531.80 1040.42 536.81 1037.76 541.64 C 1033.09 548.81 1030.58 558.19 1022.86 562.70 C 1015.19 565.57 1006.61 564.93 998.66 563.81 C 993.95 560.44 989.48 556.72 985.61 552.43 C 983.78 550.59 982.09 548.33 979.51 547.54 C 969.49 545.79 960.52 552.42 950.69 552.46 C 946.80 551.63 944.49 547.78 941.56 545.46 C 929.92 533.66 916.96 522.93 908.02 508.79 C 903.95 508.88 899.36 510.53 895.67 508.39 C 889.45 502.42 890.93 493.12 890.98 485.41 C 889.45 481.82 886.83 478.82 884.70 475.58 C 889.97 472.23 895.40 469.11 901.03 466.40 C 907.67 463.28 913.13 458.27 919.38 454.49 C 922.23 457.34 926.09 458.79 930.08 457.67 C 935.62 455.56 940.51 458.91 944.33 462.47 C 949.65 460.42 955.20 459.09 960.89 458.65 Z" />
</g>
<g id="#cf9f5fff">
<path fill="#cf9f5f" fill-opacity="0" d=" M 439.85 451.82 C 441.61 451.59 442.34 453.54 442.29 454.98 C 441.04 454.37 439.83 453.32 439.85 451.82 Z" />
<path fill="#cf9f5f" fill-opacity="0" d=" M 442.83 458.80 C 444.60 458.60 445.22 460.58 445.26 461.99 C 443.99 461.39 442.75 460.32 442.83 458.80 Z" />
</g>
<g id="#cf7f7fff">
<path fill="#cf7f7f" fill-opacity="0" d=" M 1092.63 472.12 C 1096.29 472.15 1099.62 474.03 1103.22 474.57 C 1107.55 475.26 1111.97 475.92 1115.90 478.03 C 1119.88 480.18 1124.85 479.49 1128.49 476.93 C 1132.42 482.40 1136.58 487.88 1142.15 491.78 C 1148.02 495.80 1152.70 501.18 1157.03 506.77 C 1153.06 507.90 1151.35 511.82 1150.25 515.46 C 1146.77 520.97 1140.98 524.44 1135.49 527.68 C 1131.62 529.94 1129.04 533.70 1125.79 536.68 C 1122.46 538.96 1118.42 539.99 1115.19 542.44 C 1115.50 550.05 1121.92 555.59 1123.17 562.99 C 1124.68 567.86 1121.47 572.37 1119.41 576.49 C 1116.69 581.27 1115.44 586.72 1112.53 591.40 C 1109.83 595.07 1108.07 599.93 1104.02 602.37 C 1097.47 604.07 1090.86 605.60 1084.24 607.00 C 1084.77 603.10 1085.88 599.32 1087.11 595.59 C 1085.29 593.17 1082.98 590.83 1082.45 587.75 C 1082.20 582.79 1085.47 578.48 1085.97 573.66 C 1085.68 569.41 1080.36 568.29 1077.62 565.85 C 1074.84 569.43 1071.38 572.70 1066.70 573.34 C 1065.15 569.06 1064.57 564.13 1061.32 560.74 C 1058.20 558.27 1054.28 557.21 1050.57 556.01 C 1053.24 551.46 1056.25 545.88 1053.30 540.67 C 1048.21 538.85 1042.82 540.89 1037.76 541.64 C 1040.42 536.81 1043.65 531.80 1043.56 526.08 C 1042.76 523.26 1040.11 521.45 1038.12 519.47 C 1042.08 517.44 1046.07 515.38 1049.58 512.61 C 1053.71 508.83 1056.87 504.15 1060.61 500.01 C 1060.12 497.45 1058.82 494.85 1059.30 492.21 C 1061.39 489.77 1064.54 488.46 1066.47 485.84 C 1068.54 483.20 1070.02 479.86 1073.14 478.24 C 1079.18 475.02 1085.95 473.42 1092.63 472.12 Z" />
</g>
<g id="#4f3f3fff">
<path fill="#4f3f3f" fill-opacity="0" d=" M 1431.97 470.40 C 1438.29 471.35 1444.89 471.76 1450.92 474.15 C 1454.10 475.54 1455.66 478.86 1457.62 481.52 C 1460.91 486.81 1467.25 489.25 1470.51 494.59 C 1472.54 498.04 1475.42 501.61 1475.10 505.89 C 1474.61 512.04 1474.11 518.37 1475.71 524.41 C 1476.26 527.20 1479.12 528.34 1481.20 529.86 C 1484.64 531.70 1485.45 535.94 1486.68 539.31 C 1488.32 546.23 1491.43 554.10 1488.15 561.09 C 1484.32 569.83 1479.73 578.21 1475.98 586.98 C 1474.18 589.96 1473.49 594.48 1469.74 595.75 C 1460.39 599.65 1450.89 589.59 1441.78 594.63 C 1438.16 600.89 1436.58 608.58 1430.55 613.20 C 1426.76 614.80 1422.32 614.65 1418.46 613.47 C 1407.51 610.94 1396.88 606.63 1385.46 606.67 C 1383.22 601.00 1381.10 595.28 1380.21 589.22 C 1381.71 583.74 1384.87 578.70 1385.45 572.99 C 1384.47 566.60 1380.21 561.27 1377.57 555.51 C 1371.54 545.26 1368.32 533.79 1365.03 522.47 C 1377.24 521.18 1385.32 510.46 1389.35 499.69 C 1384.71 496.81 1379.65 494.23 1376.50 489.57 C 1374.02 486.70 1371.85 482.14 1374.68 478.74 C 1378.77 472.23 1387.16 472.51 1393.92 472.26 C 1397.53 476.05 1401.30 480.20 1401.28 485.88 C 1401.41 491.82 1405.51 498.36 1411.96 498.46 C 1416.65 497.67 1420.93 494.70 1424.15 491.31 C 1427.02 484.46 1428.34 476.97 1431.97 470.40 Z" />
</g>
<g id="#8f003fff">
<path fill="#8f003f" fill-opacity="0" d=" M 865.00 488.02 C 871.48 483.74 878.15 479.76 884.70 475.58 C 886.83 478.82 889.45 481.82 890.98 485.41 C 890.93 493.12 889.45 502.42 895.67 508.39 C 899.36 510.53 903.95 508.88 908.02 508.79 C 916.96 522.93 929.92 533.66 941.56 545.46 C 944.49 547.78 946.80 551.63 950.69 552.46 C 960.52 552.42 969.49 545.79 979.51 547.54 C 982.09 548.33 983.78 550.59 985.61 552.43 C 989.48 556.72 993.95 560.44 998.66 563.81 C 1002.93 567.26 1007.62 570.40 1011.10 574.71 C 1012.48 577.82 1011.74 581.57 1010.73 584.74 C 1001.10 588.49 987.81 585.63 980.89 594.94 C 976.03 601.02 981.10 608.56 983.26 614.76 C 973.86 623.62 960.92 627.13 948.80 630.46 C 947.11 634.44 944.98 638.22 942.49 641.75 C 936.97 637.89 932.09 632.26 931.25 625.39 C 930.90 618.86 931.47 612.29 930.49 605.80 C 922.34 608.64 913.78 609.34 905.30 607.39 C 904.43 603.43 903.41 599.52 901.65 595.87 C 897.32 598.48 892.85 600.86 888.19 602.83 C 884.89 594.44 879.13 587.43 872.89 581.06 C 868.32 576.48 871.57 569.19 867.82 564.24 C 864.17 559.13 859.65 554.70 856.18 549.45 C 852.63 543.62 848.90 537.87 844.24 532.85 C 841.10 532.69 837.05 534.25 834.94 531.19 C 831.81 527.03 829.80 522.18 827.37 517.62 C 840.41 508.40 852.01 497.32 865.00 488.02 Z" />
</g>
<g id="#af007fff">
<path fill="#af007f" fill-opacity="0" d=" M 1286.16 481.16 C 1290.15 480.24 1285.24 485.16 1286.16 481.16 Z" />
</g>
<g id="#af0000ff">
<path fill="#af0000" fill-opacity="0" d=" M 1197.72 486.60 C 1201.55 484.83 1205.41 487.20 1208.79 488.88 C 1209.71 491.35 1210.49 493.88 1211.29 496.40 C 1215.18 495.14 1219.24 494.44 1223.36 494.54 C 1228.71 494.82 1234.87 493.58 1238.99 497.94 C 1234.57 500.98 1227.24 502.59 1226.66 508.93 C 1231.76 511.80 1237.60 509.67 1243.06 509.44 C 1241.08 516.26 1241.09 525.79 1232.94 528.55 C 1227.98 529.24 1225.29 524.05 1221.09 522.55 C 1218.86 522.80 1216.70 523.28 1214.63 523.99 C 1217.26 534.88 1227.51 541.39 1235.22 548.60 C 1242.46 553.95 1240.51 565.12 1235.02 570.99 C 1227.19 578.16 1216.25 580.31 1206.35 583.01 C 1203.68 579.42 1201.70 574.95 1197.54 572.85 C 1194.40 571.05 1190.35 569.83 1189.15 566.00 C 1185.93 557.14 1180.54 549.36 1174.91 541.88 C 1172.58 542.84 1170.26 543.82 1167.96 544.82 C 1165.31 541.60 1162.65 538.42 1160.12 535.12 C 1163.32 530.05 1166.84 524.95 1168.05 518.97 C 1164.40 520.12 1160.80 521.41 1157.25 522.80 C 1154.91 520.34 1152.54 517.89 1150.25 515.46 C 1151.35 511.82 1153.06 507.90 1157.03 506.77 C 1159.72 505.88 1162.71 505.62 1165.14 504.05 C 1169.04 500.96 1170.58 494.98 1175.93 493.87 C 1183.35 491.95 1190.57 489.36 1197.72 486.60 Z" />
</g>
<g id="#4fbf3fff">
<path fill="#4fbf3f" fill-opacity="0" d=" M 584.06 487.78 L 584.78 487.53 C 585.05 493.75 587.18 499.58 589.77 505.18 C 592.27 510.02 586.67 513.43 584.10 516.77 C 589.18 516.66 594.22 516.02 599.26 515.28 C 603.04 523.26 600.55 532.41 603.25 540.56 C 607.27 542.02 611.64 541.50 615.82 541.38 C 618.68 545.52 621.36 549.84 622.98 554.63 C 623.68 560.15 623.42 565.71 622.70 571.21 C 618.47 569.74 614.20 568.38 609.98 566.89 C 603.23 565.11 604.13 556.50 598.28 553.72 C 595.58 551.83 592.25 549.91 588.83 550.80 C 582.63 552.51 576.65 555.00 570.92 557.90 C 568.75 559.12 566.05 560.56 565.62 563.27 C 565.69 566.10 566.92 568.74 567.74 571.43 C 565.32 571.70 562.88 572.30 560.44 571.99 C 557.42 571.00 555.17 568.57 552.71 566.69 C 551.74 570.06 550.55 573.45 550.43 576.96 C 551.64 581.13 554.06 584.82 555.92 588.71 C 552.41 590.47 548.90 592.24 545.39 594.00 C 541.61 590.64 537.62 587.35 532.82 585.55 C 528.77 585.55 525.32 587.97 521.82 589.67 C 516.17 592.76 509.91 594.38 503.82 596.35 C 504.86 600.28 505.90 604.22 506.99 608.14 C 501.53 597.58 497.50 586.35 492.45 575.60 C 488.31 565.77 483.59 556.17 480.01 546.11 C 478.72 542.13 477.34 538.18 475.97 534.24 C 474.22 528.01 471.61 522.08 469.00 516.19 C 473.90 515.33 478.80 514.20 483.80 514.16 C 489.45 515.50 494.47 518.66 499.77 520.95 C 502.15 517.69 504.55 514.45 506.99 511.25 C 510.94 511.65 515.16 512.71 518.97 511.04 C 525.27 508.45 531.85 506.58 538.04 503.70 C 542.61 501.01 546.68 497.32 551.75 495.51 C 562.19 491.60 573.64 491.82 584.06 487.78 Z" />
</g>
<g id="#cf00bfff">
<path fill="#cf00bf" fill-opacity="0" d=" M 783.27 501.26 C 786.25 497.24 791.37 497.18 795.89 497.39 C 795.39 503.51 791.57 508.49 787.79 513.04 C 789.14 516.50 790.59 519.93 791.93 523.40 C 794.93 522.90 797.95 522.12 801.02 522.37 C 805.23 523.03 809.30 526.55 813.66 524.68 C 818.44 522.79 822.96 520.27 827.37 517.62 C 829.80 522.18 831.81 527.03 834.94 531.19 C 837.05 534.25 841.10 532.69 844.24 532.85 C 848.90 537.87 852.63 543.62 856.18 549.45 C 855.21 551.66 854.29 553.90 853.40 556.15 C 849.07 557.62 843.86 557.97 840.47 561.38 C 837.99 565.72 841.52 572.50 836.51 575.41 C 830.82 578.88 825.17 582.41 819.61 586.09 C 820.66 588.76 821.72 591.44 822.84 594.10 C 818.53 599.54 814.64 605.38 809.57 610.16 C 805.01 612.61 800.22 614.70 796.15 617.97 C 794.25 618.27 792.37 618.59 790.48 618.90 C 787.53 614.06 785.62 606.73 779.06 606.20 C 776.54 602.73 772.15 599.81 772.19 595.11 C 772.02 591.32 773.00 586.91 770.27 583.79 C 766.00 580.26 761.36 577.26 756.92 573.96 C 757.87 572.84 758.81 571.71 759.75 570.59 C 757.61 567.01 754.73 563.47 754.45 559.17 C 755.63 556.10 758.52 554.06 760.34 551.38 C 764.67 546.24 766.73 539.74 768.70 533.44 C 766.15 531.28 763.60 529.10 761.34 526.63 C 767.99 517.63 775.89 509.65 783.27 501.26 Z" />
</g>
<g id="#cfbf00ff">
<path fill="#cfbf00" fill-opacity="0" d=" M 1277.80 504.26 C 1285.41 502.56 1292.32 498.41 1300.04 497.22 C 1305.34 495.82 1308.61 500.15 1311.37 503.69 C 1315.72 509.48 1322.38 514.11 1329.79 514.42 C 1338.42 514.98 1347.05 515.93 1355.56 517.56 C 1359.17 518.11 1362.04 520.56 1365.03 522.47 C 1368.32 533.79 1371.54 545.26 1377.57 555.51 C 1380.21 561.27 1384.47 566.60 1385.45 572.99 C 1384.87 578.70 1381.71 583.74 1380.21 589.22 C 1378.07 585.04 1375.43 581.17 1372.86 577.26 C 1365.26 579.20 1357.54 586.48 1349.52 582.49 C 1343.57 576.70 1341.51 567.14 1333.89 563.05 C 1330.00 560.82 1325.66 562.48 1321.68 563.39 C 1317.18 564.49 1312.71 562.62 1308.22 562.64 C 1302.86 563.03 1298.51 566.44 1293.98 568.88 C 1291.03 570.49 1287.59 570.35 1284.37 570.85 C 1284.15 566.17 1283.40 561.09 1285.92 556.86 C 1288.04 553.07 1290.02 548.99 1289.54 544.51 C 1290.11 541.41 1288.05 535.32 1292.25 533.77 C 1297.49 532.69 1302.68 534.99 1307.76 535.87 C 1307.45 532.69 1307.85 529.00 1305.64 526.40 C 1301.14 522.04 1293.75 522.39 1289.29 518.05 C 1285.98 513.05 1283.58 507.00 1277.80 504.26 Z" />
</g>
<g id="#4fbf7fff">
<path fill="#4fbf7f" fill-opacity="0" d=" M 1268.96 504.66 C 1271.87 504.15 1274.84 504.32 1277.80 504.26 C 1283.58 507.00 1285.98 513.05 1289.29 518.05 C 1293.75 522.39 1301.14 522.04 1305.64 526.40 C 1307.85 529.00 1307.45 532.69 1307.76 535.87 C 1302.68 534.99 1297.49 532.69 1292.25 533.77 C 1288.05 535.32 1290.11 541.41 1289.54 544.51 C 1290.02 548.99 1288.04 553.07 1285.92 556.86 C 1283.40 561.09 1284.15 566.17 1284.37 570.85 C 1278.29 572.47 1270.35 575.39 1269.65 582.63 C 1270.14 588.30 1274.03 593.17 1274.29 598.99 C 1274.75 604.51 1278.04 609.17 1279.21 614.48 C 1280.64 616.91 1279.38 619.14 1277.80 620.77 C 1268.74 630.03 1253.87 631.32 1246.08 642.08 C 1244.96 638.76 1242.99 635.63 1242.91 632.05 C 1243.41 627.26 1246.26 623.09 1247.04 618.35 C 1247.35 616.90 1246.27 615.67 1245.53 614.57 C 1242.01 610.17 1238.00 606.22 1234.26 602.03 C 1229.95 605.07 1226.09 608.75 1221.61 611.55 C 1219.55 612.63 1217.05 613.93 1214.71 613.06 C 1207.46 609.59 1202.28 603.32 1196.30 598.16 C 1199.57 593.06 1202.93 588.01 1206.35 583.01 C 1216.25 580.31 1227.19 578.16 1235.02 570.99 C 1240.51 565.12 1242.46 553.95 1235.22 548.60 C 1227.51 541.39 1217.26 534.88 1214.63 523.99 C 1216.70 523.28 1218.86 522.80 1221.09 522.55 C 1225.29 524.05 1227.98 529.24 1232.94 528.55 C 1241.09 525.79 1241.08 516.26 1243.06 509.44 C 1251.91 509.24 1260.51 507.17 1268.96 504.66 Z" />
</g>
<g id="#cf003fff">
<path fill="#cf003f" fill-opacity="0" d=" M 1135.49 527.68 C 1140.98 524.44 1146.77 520.97 1150.25 515.46 C 1152.54 517.89 1154.91 520.34 1157.25 522.80 C 1160.80 521.41 1164.40 520.12 1168.05 518.97 C 1166.84 524.95 1163.32 530.05 1160.12 535.12 C 1162.65 538.42 1165.31 541.60 1167.96 544.82 C 1170.26 543.82 1172.58 542.84 1174.91 541.88 C 1180.54 549.36 1185.93 557.14 1189.15 566.00 C 1190.35 569.83 1194.40 571.05 1197.54 572.85 C 1201.70 574.95 1203.68 579.42 1206.35 583.01 C 1202.93 588.01 1199.57 593.06 1196.30 598.16 C 1195.15 599.68 1193.91 601.14 1192.68 602.59 C 1188.67 599.04 1185.76 593.08 1180.19 591.70 C 1170.86 592.83 1166.68 603.38 1157.84 605.56 C 1151.59 605.88 1145.41 604.25 1139.27 603.34 C 1129.63 601.30 1120.25 597.61 1112.53 591.40 C 1115.44 586.72 1116.69 581.27 1119.41 576.49 C 1121.47 572.37 1124.68 567.86 1123.17 562.99 C 1121.92 555.59 1115.50 550.05 1115.19 542.44 C 1118.42 539.99 1122.46 538.96 1125.79 536.68 C 1129.04 533.70 1131.62 529.94 1135.49 527.68 Z" />
</g>
<g id="#4f7f7fff">
<path fill="#4f7f7f" fill-opacity="0" d=" M 736.03 530.03 C 742.78 526.04 749.36 521.63 756.82 519.03 C 758.24 521.61 759.68 524.19 761.34 526.63 C 763.60 529.10 766.15 531.28 768.70 533.44 C 766.73 539.74 764.67 546.24 760.34 551.38 C 758.52 554.06 755.63 556.10 754.45 559.17 C 754.73 563.47 757.61 567.01 759.75 570.59 C 758.81 571.71 757.87 572.84 756.92 573.96 C 754.20 577.11 750.91 579.83 747.19 581.70 C 743.02 583.10 738.40 582.68 734.39 584.60 C 723.81 589.66 716.87 599.49 708.01 606.82 C 703.25 610.81 699.78 616.07 695.27 620.31 C 692.00 623.38 687.39 624.29 683.86 626.96 C 681.89 629.46 681.55 632.78 680.97 635.81 C 679.13 636.86 677.28 638.00 675.21 638.53 C 670.48 635.31 668.06 627.65 660.99 629.21 C 654.75 630.24 647.80 633.41 646.76 640.30 C 643.82 641.70 640.46 642.71 638.37 645.38 C 635.70 648.50 635.80 653.03 633.31 656.24 C 628.00 659.38 621.53 659.52 615.67 661.13 C 614.49 656.71 613.01 652.38 611.37 648.13 C 613.87 645.21 616.40 642.33 618.97 639.48 C 617.00 636.60 614.85 633.85 613.04 630.88 C 610.36 627.25 613.44 623.00 614.23 619.27 C 617.10 611.07 611.73 603.47 609.77 595.73 C 607.23 586.28 609.50 576.45 609.98 566.89 C 614.20 568.38 618.47 569.74 622.70 571.21 C 623.42 565.71 623.68 560.15 622.98 554.63 C 627.14 552.10 631.82 550.70 636.34 548.98 C 640.66 547.39 642.54 542.75 646.06 540.11 C 652.43 536.91 659.69 536.91 666.60 536.11 C 668.63 539.17 670.67 542.20 672.63 545.30 C 677.34 544.80 682.09 543.39 685.38 539.77 C 686.93 540.74 688.49 541.69 690.06 542.66 C 702.17 534.91 716.17 531.06 729.16 525.08 C 731.45 526.73 733.74 528.37 736.03 530.03 Z" />
</g>
<g id="#0f3f00fe">
<path fill="#0f3f00" fill-opacity="0" d=" M 1037.76 541.64 C 1042.82 540.89 1048.21 538.85 1053.30 540.67 C 1056.25 545.88 1053.24 551.46 1050.57 556.01 C 1054.28 557.21 1058.20 558.27 1061.32 560.74 C 1064.57 564.13 1065.15 569.06 1066.70 573.34 C 1071.38 572.70 1074.84 569.43 1077.62 565.85 C 1080.36 568.29 1085.68 569.41 1085.97 573.66 C 1085.47 578.48 1082.20 582.79 1082.45 587.75 C 1082.98 590.83 1085.29 593.17 1087.11 595.59 C 1085.88 599.32 1084.77 603.10 1084.24 607.00 C 1090.86 605.60 1097.47 604.07 1104.02 602.37 C 1108.07 599.93 1109.83 595.07 1112.53 591.40 C 1120.25 597.61 1129.63 601.30 1139.27 603.34 C 1133.23 607.17 1123.91 610.94 1125.32 619.80 C 1126.77 627.21 1130.37 633.93 1133.13 640.90 C 1129.07 644.57 1125.46 649.12 1120.27 651.28 C 1118.25 652.36 1116.55 650.06 1115.13 648.95 C 1108.67 642.03 1102.77 634.57 1095.88 628.05 C 1093.33 625.49 1089.20 624.31 1085.90 626.09 C 1080.32 629.24 1076.35 634.75 1070.57 637.55 C 1065.15 639.49 1059.89 635.35 1054.46 636.25 C 1051.65 636.61 1050.13 639.24 1048.36 641.12 C 1044.89 639.62 1041.53 637.81 1038.21 636.05 C 1041.58 628.96 1051.53 619.82 1044.04 612.01 C 1039.09 611.90 1034.70 614.70 1029.86 615.28 C 1026.00 616.30 1022.20 615.16 1018.36 614.99 C 1012.30 613.93 1006.81 617.20 1000.89 617.52 C 994.89 617.34 989.10 615.91 983.26 614.76 C 981.10 608.56 976.03 601.02 980.89 594.94 C 987.81 585.63 1001.10 588.49 1010.73 584.74 C 1011.74 581.57 1012.48 577.82 1011.10 574.71 C 1007.62 570.40 1002.93 567.26 998.66 563.81 C 1006.61 564.93 1015.19 565.57 1022.86 562.70 C 1030.58 558.19 1033.09 548.81 1037.76 541.64 Z" />
</g>
<g id="#103f3fff">
<path fill="#103f3f" fill-opacity="0" d=" M 588.83 550.80 C 592.25 549.91 595.58 551.83 598.28 553.72 C 604.13 556.50 603.23 565.11 609.98 566.89 C 609.50 576.45 607.23 586.28 609.77 595.73 C 611.73 603.47 617.10 611.07 614.23 619.27 C 613.44 623.00 610.36 627.25 613.04 630.88 C 614.85 633.85 617.00 636.60 618.97 639.48 C 616.40 642.33 613.87 645.21 611.37 648.13 C 613.01 652.38 614.49 656.71 615.67 661.13 C 616.10 662.79 616.52 664.47 616.97 666.14 C 605.58 673.05 592.08 674.45 579.95 679.55 C 572.46 681.81 566.19 686.68 559.04 689.68 C 552.72 691.74 546.13 692.84 539.73 694.62 L 539.13 694.78 C 537.38 690.19 535.46 685.68 534.07 680.99 C 528.49 663.07 521.17 645.78 514.91 628.10 C 512.58 621.32 509.01 615.02 506.99 608.14 C 505.90 604.22 504.86 600.28 503.82 596.35 C 509.91 594.38 516.17 592.76 521.82 589.67 C 525.32 587.97 528.77 585.55 532.82 585.55 C 537.62 587.35 541.61 590.64 545.39 594.00 C 548.90 592.24 552.41 590.47 555.92 588.71 C 554.06 584.82 551.64 581.13 550.43 576.96 C 550.55 573.45 551.74 570.06 552.71 566.69 C 555.17 568.57 557.42 571.00 560.44 571.99 C 562.88 572.30 565.32 571.70 567.74 571.43 C 566.92 568.74 565.69 566.10 565.62 563.27 C 566.05 560.56 568.75 559.12 570.92 557.90 C 576.65 555.00 582.63 552.51 588.83 550.80 Z" />
</g>
<g id="#4f003fff">
<path fill="#4f003f" fill-opacity="0" d=" M 853.40 556.15 C 854.29 553.90 855.21 551.66 856.18 549.45 C 859.65 554.70 864.17 559.13 867.82 564.24 C 871.57 569.19 868.32 576.48 872.89 581.06 C 879.13 587.43 884.89 594.44 888.19 602.83 C 892.85 600.86 897.32 598.48 901.65 595.87 C 903.41 599.52 904.43 603.43 905.30 607.39 C 913.78 609.34 922.34 608.64 930.49 605.80 C 931.47 612.29 930.90 618.86 931.25 625.39 C 924.02 632.48 913.74 633.07 904.22 634.06 C 899.85 634.43 895.20 635.56 892.16 638.94 C 889.62 643.67 890.83 651.50 884.80 653.85 C 879.44 654.90 875.11 650.06 870.57 648.11 C 867.64 655.97 867.22 664.56 867.88 672.85 C 862.28 675.90 856.49 678.58 850.53 680.84 C 843.45 675.33 834.03 679.03 825.94 677.88 C 822.43 673.87 822.22 667.53 818.56 663.40 C 814.15 658.37 816.22 650.35 811.39 645.63 C 807.19 640.98 801.22 638.47 796.63 634.31 C 793.15 629.51 795.45 623.29 796.15 617.97 C 800.22 614.70 805.01 612.61 809.57 610.16 C 814.64 605.38 818.53 599.54 822.84 594.10 C 821.72 591.44 820.66 588.76 819.61 586.09 C 825.17 582.41 830.82 578.88 836.51 575.41 C 841.52 572.50 837.99 565.72 840.47 561.38 C 843.86 557.97 849.07 557.62 853.40 556.15 Z" />
</g>
<g id="#ef0000ff">
<path fill="#ef0000" fill-opacity="0" d=" M 1321.68 563.39 C 1325.66 562.48 1330.00 560.82 1333.89 563.05 C 1341.51 567.14 1343.57 576.70 1349.52 582.49 C 1357.54 586.48 1365.26 579.20 1372.86 577.26 C 1375.43 581.17 1378.07 585.04 1380.21 589.22 C 1381.10 595.28 1383.22 601.00 1385.46 606.67 C 1379.66 617.60 1376.88 629.94 1370.71 640.64 C 1364.01 647.78 1362.47 657.88 1356.55 665.51 C 1353.61 669.56 1348.21 670.26 1343.98 672.25 C 1340.67 679.36 1337.78 686.66 1335.24 694.07 C 1334.23 696.30 1333.69 699.02 1331.63 700.57 C 1327.99 702.06 1323.98 702.17 1320.31 703.55 C 1314.43 705.42 1309.56 709.24 1304.24 712.19 C 1294.34 717.48 1282.38 713.64 1272.23 718.19 C 1267.15 719.09 1263.90 723.13 1260.55 726.59 C 1257.97 729.33 1253.78 728.84 1250.41 729.83 C 1253.16 718.25 1257.87 707.17 1259.51 695.34 C 1259.49 688.41 1255.44 682.33 1253.95 675.72 C 1252.80 671.27 1249.82 667.69 1247.93 663.60 C 1246.61 656.49 1247.71 649.15 1246.08 642.08 C 1253.87 631.32 1268.74 630.03 1277.80 620.77 C 1279.38 619.14 1280.64 616.91 1279.21 614.48 C 1278.04 609.17 1274.75 604.51 1274.29 598.99 C 1274.03 593.17 1270.14 588.30 1269.65 582.63 C 1270.35 575.39 1278.29 572.47 1284.37 570.85 C 1287.59 570.35 1291.03 570.49 1293.98 568.88 C 1298.51 566.44 1302.86 563.03 1308.22 562.64 C 1312.71 562.62 1317.18 564.49 1321.68 563.39 Z" />
</g>
<g id="#cfbfbfff">
<path fill="#cfbfbf" fill-opacity="0" d=" M 747.19 581.70 C 750.91 579.83 754.20 577.11 756.92 573.96 C 761.36 577.26 766.00 580.26 770.27 583.79 C 773.00 586.91 772.02 591.32 772.19 595.11 C 772.15 599.81 776.54 602.73 779.06 606.20 C 778.31 611.91 777.24 617.59 775.86 623.19 C 779.97 627.64 784.30 633.23 783.47 639.67 C 782.65 645.35 779.61 651.60 773.66 653.27 C 766.39 655.00 759.27 658.84 751.57 657.52 C 747.04 664.39 743.21 671.90 742.09 680.17 C 741.11 685.62 743.57 690.90 744.85 696.13 C 741.04 698.53 736.42 699.88 733.25 703.14 C 731.23 709.05 733.99 716.10 730.80 721.74 C 726.76 723.74 721.71 722.53 717.26 722.94 C 716.15 718.86 714.88 714.89 712.94 711.15 C 710.74 707.25 712.54 702.57 712.79 698.49 C 704.64 695.07 695.85 693.69 687.22 692.08 C 681.69 691.76 678.15 687.39 674.33 684.06 C 681.28 676.44 689.13 669.62 695.39 661.39 C 697.07 659.19 697.55 655.69 695.54 653.55 C 692.97 650.83 690.07 648.45 687.31 645.94 C 688.34 643.49 689.37 641.04 690.33 638.56 C 687.24 637.54 684.16 636.45 680.97 635.81 C 681.55 632.78 681.89 629.46 683.86 626.96 C 687.39 624.29 692.00 623.38 695.27 620.31 C 699.78 616.07 703.25 610.81 708.01 606.82 C 716.87 599.49 723.81 589.66 734.39 584.60 C 738.40 582.68 743.02 583.10 747.19 581.70 Z" />
</g>
<g id="#cf3f7fff">
<path fill="#cf3f7f" fill-opacity="0" d=" M 1180.19 591.70 C 1185.76 593.08 1188.67 599.04 1192.68 602.59 C 1193.91 601.14 1195.15 599.68 1196.30 598.16 C 1202.28 603.32 1207.46 609.59 1214.71 613.06 C 1217.05 613.93 1219.55 612.63 1221.61 611.55 C 1226.09 608.75 1229.95 605.07 1234.26 602.03 C 1238.00 606.22 1242.01 610.17 1245.53 614.57 C 1246.27 615.67 1247.35 616.90 1247.04 618.35 C 1246.26 623.09 1243.41 627.26 1242.91 632.05 C 1242.99 635.63 1244.96 638.76 1246.08 642.08 C 1247.71 649.15 1246.61 656.49 1247.93 663.60 C 1249.82 667.69 1252.80 671.27 1253.95 675.72 C 1255.44 682.33 1259.49 688.41 1259.51 695.34 C 1257.87 707.17 1253.16 718.25 1250.41 729.83 C 1246.07 730.73 1240.54 728.55 1237.05 732.00 C 1228.52 739.52 1219.71 747.39 1208.74 751.09 C 1211.61 741.86 1213.69 732.40 1216.19 723.08 C 1217.65 718.36 1214.05 714.12 1210.47 711.56 C 1204.89 707.64 1197.98 706.51 1191.51 704.89 C 1185.25 703.40 1177.68 704.37 1173.08 698.96 C 1167.45 692.40 1162.67 685.16 1157.36 678.35 C 1161.50 676.60 1165.65 674.88 1169.84 673.19 C 1168.18 670.92 1166.96 667.81 1164.12 666.85 C 1159.19 665.77 1154.73 669.35 1149.83 668.98 C 1147.79 668.87 1146.46 667.10 1145.45 665.54 C 1140.66 657.68 1136.89 649.27 1133.13 640.90 C 1130.37 633.93 1126.77 627.21 1125.32 619.80 C 1123.91 610.94 1133.23 607.17 1139.27 603.34 C 1145.41 604.25 1151.59 605.88 1157.84 605.56 C 1166.68 603.38 1170.86 592.83 1180.19 591.70 Z" />
</g>
<g id="#8f7f3fff">
<path fill="#8f7f3f" fill-opacity="0" d=" M 779.06 606.20 C 785.62 606.73 787.53 614.06 790.48 618.90 C 792.37 618.59 794.25 618.27 796.15 617.97 C 795.45 623.29 793.15 629.51 796.63 634.31 C 801.22 638.47 807.19 640.98 811.39 645.63 C 816.22 650.35 814.15 658.37 818.56 663.40 C 822.22 667.53 822.43 673.87 825.94 677.88 C 834.03 679.03 843.45 675.33 850.53 680.84 C 852.37 688.52 850.88 696.84 846.19 703.26 C 843.52 705.87 839.29 705.85 836.45 708.25 C 836.81 715.68 838.66 723.01 838.27 730.53 C 834.66 731.71 831.27 733.36 827.95 735.18 C 821.53 738.57 813.90 737.88 806.96 737.07 C 796.64 735.91 786.24 736.67 775.93 737.38 C 768.01 737.63 762.39 730.82 755.08 729.07 C 751.94 730.06 750.16 733.82 751.41 737.04 C 751.20 745.96 753.67 755.67 748.67 763.78 C 742.64 773.72 735.56 785.26 738.79 797.37 C 743.80 815.60 748.08 834.02 752.83 852.32 C 744.62 843.63 731.65 841.65 720.26 843.10 C 715.67 822.42 708.42 802.39 702.98 781.91 C 697.91 764.14 692.27 746.54 687.31 728.74 C 686.43 724.30 681.45 721.95 677.35 723.46 C 669.36 726.29 661.13 728.60 653.75 732.90 C 650.18 730.59 646.60 728.37 643.06 726.07 C 645.81 720.69 648.77 715.37 652.88 710.89 C 660.78 702.53 666.39 692.37 674.33 684.06 C 678.15 687.39 681.69 691.76 687.22 692.08 C 695.85 693.69 704.64 695.07 712.79 698.49 C 712.54 702.57 710.74 707.25 712.94 711.15 C 714.88 714.89 716.15 718.86 717.26 722.94 C 721.71 722.53 726.76 723.74 730.80 721.74 C 733.99 716.10 731.23 709.05 733.25 703.14 C 736.42 699.88 741.04 698.53 744.85 696.13 C 743.57 690.90 741.11 685.62 742.09 680.17 C 743.21 671.90 747.04 664.39 751.57 657.52 C 759.27 658.84 766.39 655.00 773.66 653.27 C 779.61 651.60 782.65 645.35 783.47 639.67 C 784.30 633.23 779.97 627.64 775.86 623.19 C 777.24 617.59 778.31 611.91 779.06 606.20 M 757.84 672.22 C 758.58 674.14 759.29 676.09 759.95 678.06 C 760.68 678.02 762.15 677.96 762.88 677.92 C 763.35 676.47 763.83 675.01 764.32 673.57 C 762.18 672.98 760.01 672.58 757.84 672.22 Z" />
</g>
<g id="#8fbfbfff">
<path fill="#8fbfbf" fill-opacity="0" d=" M 1029.86 615.28 C 1034.70 614.70 1039.09 611.90 1044.04 612.01 C 1051.53 619.82 1041.58 628.96 1038.21 636.05 C 1041.53 637.81 1044.89 639.62 1048.36 641.12 C 1051.15 650.06 1052.63 659.45 1052.46 668.82 C 1047.67 671.69 1042.83 674.46 1037.90 677.06 C 1041.37 686.26 1048.95 692.98 1057.68 697.11 C 1057.67 698.38 1057.65 700.91 1057.64 702.17 C 1051.51 702.67 1045.32 703.39 1039.50 705.41 C 1035.86 712.79 1036.27 721.35 1034.77 729.30 C 1034.22 737.40 1031.65 745.14 1030.53 753.14 C 1029.53 760.34 1034.04 766.68 1037.34 772.68 C 1028.16 771.05 1019.24 768.11 1009.91 767.24 C 1010.21 760.92 1011.25 754.69 1012.78 748.57 C 1013.32 745.75 1014.41 742.71 1013.19 739.91 C 1010.44 733.15 1003.99 728.84 998.57 724.41 C 993.40 720.86 986.87 724.18 981.22 723.63 C 977.32 717.63 975.36 710.67 972.76 704.07 C 966.42 690.70 954.81 680.67 944.09 670.87 C 941.77 668.65 939.78 665.56 940.48 662.22 C 944.66 658.84 949.69 656.71 954.40 654.18 C 951.64 648.97 946.68 645.67 942.49 641.75 C 944.98 638.22 947.11 634.44 948.80 630.46 C 960.92 627.13 973.86 623.62 983.26 614.76 C 989.10 615.91 994.89 617.34 1000.89 617.52 C 1006.81 617.20 1012.30 613.93 1018.36 614.99 C 1022.20 615.16 1026.00 616.30 1029.86 615.28 Z" />
</g>
<g id="#0f3fbfff">
<path fill="#0f3fbf" fill-opacity="0" d=" M 904.22 634.06 C 913.74 633.07 924.02 632.48 931.25 625.39 C 932.09 632.26 936.97 637.89 942.49 641.75 C 946.68 645.67 951.64 648.97 954.40 654.18 C 949.69 656.71 944.66 658.84 940.48 662.22 C 939.78 665.56 941.77 668.65 944.09 670.87 C 954.81 680.67 966.42 690.70 972.76 704.07 C 975.36 710.67 977.32 717.63 981.22 723.63 C 986.87 724.18 993.40 720.86 998.57 724.41 C 1003.99 728.84 1010.44 733.15 1013.19 739.91 C 1014.41 742.71 1013.32 745.75 1012.78 748.57 C 1011.25 754.69 1010.21 760.92 1009.91 767.24 L 1010.21 768.18 C 1006.59 772.02 1002.02 774.84 996.73 775.74 C 998.87 766.44 1002.33 757.31 1002.64 747.68 C 1002.80 743.83 1000.08 740.81 998.00 737.89 C 993.58 743.37 993.01 750.87 988.48 756.24 C 986.16 758.48 983.30 760.47 980.17 761.25 C 970.96 761.05 961.77 759.50 952.95 756.87 C 941.66 752.00 933.12 742.73 925.84 733.09 C 919.35 725.72 910.55 721.07 902.78 715.24 C 899.33 711.78 894.19 712.44 889.84 712.21 C 888.29 708.34 885.18 704.65 885.71 700.27 C 886.52 695.68 889.02 691.60 890.72 687.33 C 884.12 686.14 876.41 689.54 871.01 684.10 C 867.56 681.61 868.78 676.57 867.88 672.85 C 867.22 664.56 867.64 655.97 870.57 648.11 C 875.11 650.06 879.44 654.90 884.80 653.85 C 890.83 651.50 889.62 643.67 892.16 638.94 C 895.20 635.56 899.85 634.43 904.22 634.06 Z" />
</g>
<g id="#2f0000ff">
<path fill="#2f0000" fill-opacity="0" d=" M 1085.90 626.09 C 1089.20 624.31 1093.33 625.49 1095.88 628.05 C 1102.77 634.57 1108.67 642.03 1115.13 648.95 C 1116.55 650.06 1118.25 652.36 1120.27 651.28 C 1125.46 649.12 1129.07 644.57 1133.13 640.90 C 1136.89 649.27 1140.66 657.68 1145.45 665.54 C 1146.46 667.10 1147.79 668.87 1149.83 668.98 C 1154.73 669.35 1159.19 665.77 1164.12 666.85 C 1166.96 667.81 1168.18 670.92 1169.84 673.19 C 1165.65 674.88 1161.50 676.60 1157.36 678.35 C 1162.67 685.16 1167.45 692.40 1173.08 698.96 C 1177.68 704.37 1185.25 703.40 1191.51 704.89 C 1197.98 706.51 1204.89 707.64 1210.47 711.56 C 1214.05 714.12 1217.65 718.36 1216.19 723.08 C 1213.69 732.40 1211.61 741.86 1208.74 751.09 C 1206.13 755.39 1201.94 758.96 1196.81 759.57 C 1188.35 761.38 1179.72 762.63 1171.06 762.64 C 1170.40 766.19 1169.66 769.72 1169.12 773.31 C 1173.47 774.86 1177.03 777.85 1179.07 782.03 C 1181.13 786.67 1186.71 786.00 1191.00 786.49 C 1196.82 786.57 1202.19 789.09 1207.88 790.02 C 1213.09 790.91 1218.42 790.93 1223.53 792.47 C 1226.53 793.25 1225.01 797.17 1225.35 799.65 C 1225.17 802.93 1223.80 806.00 1222.91 809.13 C 1229.04 811.41 1235.31 813.37 1241.30 816.02 C 1238.91 827.89 1234.55 839.35 1229.69 850.39 C 1226.08 854.22 1222.95 858.46 1221.66 863.68 C 1220.76 869.63 1215.27 872.54 1211.15 876.11 C 1208.78 875.18 1206.47 874.02 1203.96 873.57 C 1199.24 875.26 1196.04 879.78 1190.94 880.75 C 1180.41 884.11 1169.57 886.51 1158.64 888.16 C 1150.52 913.12 1145.50 938.98 1138.05 964.15 C 1133.39 958.56 1128.66 952.90 1126.04 946.01 C 1122.49 936.13 1113.97 929.38 1106.81 922.18 C 1102.87 917.54 1096.07 918.54 1090.87 916.78 C 1086.24 914.28 1082.50 910.20 1077.38 908.62 C 1070.79 906.54 1063.96 905.24 1057.65 902.37 C 1050.43 899.02 1042.20 896.31 1034.25 898.53 C 1031.72 898.85 1029.00 899.53 1026.53 899.31 C 1023.16 897.19 1019.97 894.74 1016.27 893.25 C 1018.04 857.38 1022.00 821.64 1023.68 785.78 C 1017.37 781.54 1012.99 775.17 1010.21 768.18 L 1009.91 767.24 C 1019.24 768.11 1028.16 771.05 1037.34 772.68 C 1034.04 766.68 1029.53 760.34 1030.53 753.14 C 1031.65 745.14 1034.22 737.40 1034.77 729.30 C 1036.27 721.35 1035.86 712.79 1039.50 705.41 C 1045.32 703.39 1051.51 702.67 1057.64 702.17 C 1057.65 700.91 1057.67 698.38 1057.68 697.11 C 1048.95 692.98 1041.37 686.26 1037.90 677.06 C 1042.83 674.46 1047.67 671.69 1052.46 668.82 C 1052.63 659.45 1051.15 650.06 1048.36 641.12 C 1050.13 639.24 1051.65 636.61 1054.46 636.25 C 1059.89 635.35 1065.15 639.49 1070.57 637.55 C 1076.35 634.75 1080.32 629.24 1085.90 626.09 Z" />
</g>
<g id="#8f3f00ff">
<path fill="#8f3f00" fill-opacity="0" d=" M 646.76 640.30 C 647.80 633.41 654.75 630.24 660.99 629.21 C 668.06 627.65 670.48 635.31 675.21 638.53 C 677.28 638.00 679.13 636.86 680.97 635.81 C 684.16 636.45 687.24 637.54 690.33 638.56 C 689.37 641.04 688.34 643.49 687.31 645.94 C 690.07 648.45 692.97 650.83 695.54 653.55 C 697.55 655.69 697.07 659.19 695.39 661.39 C 689.13 669.62 681.28 676.44 674.33 684.06 C 666.39 692.37 660.78 702.53 652.88 710.89 C 648.77 715.37 645.81 720.69 643.06 726.07 C 646.60 728.37 650.18 730.59 653.75 732.90 C 661.13 728.60 669.36 726.29 677.35 723.46 C 681.45 721.95 686.43 724.30 687.31 728.74 C 692.27 746.54 697.91 764.14 702.98 781.91 C 708.42 802.39 715.67 822.42 720.26 843.10 C 718.39 847.14 717.20 851.42 715.98 855.69 C 707.71 855.09 699.85 857.52 692.64 861.28 C 693.51 868.81 696.61 876.08 695.47 883.79 C 694.78 888.76 693.77 893.72 692.81 898.66 C 691.56 898.68 690.33 898.71 689.10 898.76 C 687.44 901.74 686.45 905.58 683.05 907.08 C 676.13 911.44 667.42 907.59 660.37 911.41 C 655.66 914.09 657.36 920.73 655.92 925.19 C 651.23 924.77 646.59 924.40 641.93 923.98 C 641.43 928.39 641.03 932.78 640.60 937.23 C 620.50 895.85 602.32 853.57 583.43 811.61 C 578.96 801.18 575.54 790.34 571.15 779.88 C 566.74 769.33 563.74 758.26 559.47 747.66 C 552.92 729.97 545.26 712.68 539.73 694.62 C 546.13 692.84 552.72 691.74 559.04 689.68 C 566.19 686.68 572.46 681.81 579.95 679.55 C 592.08 674.45 605.58 673.05 616.97 666.14 C 616.52 664.47 616.10 662.79 615.67 661.13 C 621.53 659.52 628.00 659.38 633.31 656.24 C 635.80 653.03 635.70 648.50 638.37 645.38 C 640.46 642.71 643.82 641.70 646.76 640.30 Z" />
</g>
<g id="#0f00bfff">
<path fill="#0f00bf" fill-opacity="0" d=" M 757.84 672.22 C 760.01 672.58 762.18 672.98 764.32 673.57 C 763.83 675.01 763.35 676.47 762.88 677.92 C 762.15 677.96 760.68 678.02 759.95 678.06 C 759.29 676.09 758.58 674.14 757.84 672.22 Z" />
</g>
<g id="#4f7f00fe">
<path fill="#4f7f00" fill-opacity="0" d=" M 850.53 680.84 C 856.49 678.58 862.28 675.90 867.88 672.85 C 868.78 676.57 867.56 681.61 871.01 684.10 C 876.41 689.54 884.12 686.14 890.72 687.33 C 889.02 691.60 886.52 695.68 885.71 700.27 C 885.18 704.65 888.29 708.34 889.84 712.21 C 894.19 712.44 899.33 711.78 902.78 715.24 C 910.55 721.07 919.35 725.72 925.84 733.09 C 933.12 742.73 941.66 752.00 952.95 756.87 C 961.77 759.50 970.96 761.05 980.17 761.25 C 983.30 760.47 986.16 758.48 988.48 756.24 C 993.01 750.87 993.58 743.37 998.00 737.89 C 1000.08 740.81 1002.80 743.83 1002.64 747.68 C 1002.33 757.31 998.87 766.44 996.73 775.74 C 1002.02 774.84 1006.59 772.02 1010.21 768.18 C 1012.99 775.17 1017.37 781.54 1023.68 785.78 C 1022.00 821.64 1018.04 857.38 1016.27 893.25 C 1016.85 900.31 1011.31 905.21 1006.83 909.83 C 1004.23 912.06 1002.03 915.93 998.13 915.77 C 992.21 915.31 986.41 913.67 981.14 910.93 C 981.88 902.37 981.30 893.78 981.69 885.21 C 983.33 859.63 982.71 833.96 984.43 808.39 C 984.64 803.73 983.95 799.09 983.04 794.54 C 977.89 794.09 972.77 793.49 967.67 792.77 C 964.72 787.87 961.39 777.85 953.94 779.84 C 951.88 780.22 949.86 780.74 947.83 781.24 C 948.04 784.82 948.14 788.39 947.88 791.99 C 938.52 792.58 929.26 789.63 919.88 790.70 C 913.68 790.89 909.18 796.18 903.12 797.12 C 898.57 789.33 895.60 780.73 891.21 772.85 C 888.69 768.40 887.13 763.25 883.47 759.57 C 881.09 758.01 878.05 758.55 875.37 758.39 C 869.32 758.66 863.71 755.94 858.04 754.31 C 852.55 752.53 846.67 751.51 841.88 748.14 C 836.24 744.96 832.41 739.69 827.95 735.18 C 831.27 733.36 834.66 731.71 838.27 730.53 C 838.66 723.01 836.81 715.68 836.45 708.25 C 839.29 705.85 843.52 705.87 846.19 703.26 C 850.88 696.84 852.37 688.52 850.53 680.84 Z" />
</g>
<g id="#0fbf3fff">
<path fill="#0fbf3f" fill-opacity="0" d=" M 751.41 737.04 C 750.16 733.82 751.94 730.06 755.08 729.07 C 762.39 730.82 768.01 737.63 775.93 737.38 C 786.24 736.67 796.64 735.91 806.96 737.07 C 813.90 737.88 821.53 738.57 827.95 735.18 C 832.41 739.69 836.24 744.96 841.88 748.14 C 846.67 751.51 852.55 752.53 858.04 754.31 C 860.05 761.03 861.38 768.20 859.67 775.16 C 857.93 783.90 857.85 793.38 861.55 801.64 C 863.06 806.63 868.24 812.45 864.68 817.40 C 859.67 819.48 854.12 820.07 849.17 822.30 C 848.08 825.31 848.67 828.60 849.02 831.69 C 854.23 865.60 858.19 899.68 862.93 933.65 C 860.68 935.09 858.41 936.50 856.17 937.95 C 855.44 936.53 854.71 935.12 853.99 933.72 C 853.53 936.37 853.11 939.05 852.72 941.77 C 840.18 944.59 827.17 947.50 814.34 944.55 C 812.34 943.67 812.13 941.20 811.61 939.37 C 809.17 926.02 806.30 912.76 803.58 899.48 C 793.42 901.83 783.73 906.72 773.08 906.57 C 769.29 905.94 765.50 903.07 765.17 898.94 C 760.36 883.59 757.30 867.76 752.83 852.32 C 748.08 834.02 743.80 815.60 738.79 797.37 C 735.56 785.26 742.64 773.72 748.67 763.78 C 753.67 755.67 751.20 745.96 751.41 737.04 Z" />
</g>
<g id="#8f3f7fff">
<path fill="#8f3f7f" fill-opacity="0" d=" M 858.04 754.31 C 863.71 755.94 869.32 758.66 875.37 758.39 C 878.05 758.55 881.09 758.01 883.47 759.57 C 887.13 763.25 888.69 768.40 891.21 772.85 C 895.60 780.73 898.57 789.33 903.12 797.12 C 909.18 796.18 913.68 790.89 919.88 790.70 C 929.26 789.63 938.52 792.58 947.88 791.99 C 948.14 788.39 948.04 784.82 947.83 781.24 C 949.86 780.74 951.88 780.22 953.94 779.84 C 961.39 777.85 964.72 787.87 967.67 792.77 C 972.77 793.49 977.89 794.09 983.04 794.54 C 983.95 799.09 984.64 803.73 984.43 808.39 C 982.71 833.96 983.33 859.63 981.69 885.21 C 981.30 893.78 981.88 902.37 981.14 910.93 C 977.92 910.02 973.73 908.51 970.86 910.82 C 967.53 917.94 971.03 927.64 964.26 933.27 C 957.94 938.20 950.55 945.54 941.73 943.12 C 933.24 941.10 924.55 939.92 915.82 940.35 C 909.77 940.18 907.66 948.88 900.96 947.07 C 892.17 948.29 887.05 939.59 880.28 935.94 C 874.52 934.87 868.73 934.29 862.93 933.65 C 858.19 899.68 854.23 865.60 849.02 831.69 C 848.67 828.60 848.08 825.31 849.17 822.30 C 854.12 820.07 859.67 819.48 864.68 817.40 C 868.24 812.45 863.06 806.63 861.55 801.64 C 857.85 793.38 857.93 783.90 859.67 775.16 C 861.38 768.20 860.05 761.03 858.04 754.31 Z" />
</g>
</svg>
