<?xml version="1.0" encoding="UTF-8" ?>
<!DOCTYPE svg PUBLIC "-//W3C//DTD SVG 1.1//EN" "http://www.w3.org/Graphics/SVG/1.1/DTD/svg11.dtd">
<svg width="1920pt" height="1080pt" viewBox="0 0 1920 1080" version="1.1" xmlns="http://www.w3.org/2000/svg">
<g id="#9f5f7ffe">
<path fill="#9f5f7f" fill-opacity="0" d=" M 1051.74 221.44 C 1053.96 220.19 1056.22 218.19 1058.97 218.88 C 1066.36 220.47 1074.98 219.60 1081.15 224.82 C 1084.03 227.28 1086.39 230.59 1090.05 231.95 C 1098.23 235.26 1106.30 229.44 1114.50 230.71 C 1116.15 233.14 1117.53 235.96 1117.50 238.96 C 1117.47 246.50 1116.32 253.98 1115.15 261.41 C 1117.08 262.75 1120.01 263.50 1120.53 266.14 C 1121.46 269.65 1122.10 273.28 1124.03 276.43 C 1125.99 272.33 1127.79 267.71 1133.50 267.88 C 1135.16 272.35 1133.37 276.95 1133.76 281.44 C 1137.75 286.61 1142.58 291.19 1145.71 297.03 C 1147.07 301.01 1145.85 305.58 1147.53 309.49 C 1149.84 312.30 1153.06 314.17 1155.95 316.34 C 1155.41 320.00 1154.81 323.66 1154.21 327.31 C 1156.50 328.87 1159.17 330.55 1159.37 333.62 C 1159.94 338.63 1165.20 340.61 1168.34 343.84 C 1172.87 344.18 1177.44 344.61 1182.00 344.94 C 1181.81 346.51 1181.66 348.08 1181.49 349.64 C 1185.27 352.60 1188.98 355.68 1193.60 357.28 C 1190.86 365.40 1190.49 374.38 1186.55 382.06 C 1181.70 385.27 1175.84 385.11 1170.31 385.21 C 1164.68 387.36 1160.88 392.63 1155.43 395.15 C 1151.99 396.71 1148.31 397.59 1144.69 398.62 C 1146.94 405.23 1145.65 412.15 1142.28 418.11 C 1140.15 417.15 1138.04 416.19 1135.93 415.22 C 1129.96 421.55 1122.62 427.58 1113.30 426.98 C 1113.07 427.21 1112.62 427.68 1112.40 427.92 C 1113.39 429.72 1114.38 431.52 1115.34 433.35 C 1110.02 434.28 1104.82 435.81 1099.91 438.07 C 1095.48 438.02 1090.25 438.58 1086.66 435.37 C 1081.76 430.77 1079.77 423.83 1074.87 419.29 C 1066.85 415.73 1057.91 414.75 1049.23 414.54 C 1044.28 414.39 1041.35 418.71 1038.48 422.04 C 1037.84 416.35 1038.03 410.61 1037.44 404.92 C 1036.99 398.66 1039.85 392.23 1037.92 386.12 C 1035.93 381.46 1030.21 381.56 1025.99 380.49 C 1025.65 385.42 1024.28 390.90 1019.77 393.68 C 1012.03 397.52 1003.06 394.48 994.90 395.17 C 989.95 394.86 988.34 400.66 985.98 403.94 C 984.32 402.95 982.65 401.97 981.00 401.00 C 980.67 405.23 980.20 409.49 980.26 413.75 L 980.26 414.37 C 980.68 404.85 975.60 396.11 976.61 386.63 C 977.17 381.72 974.66 377.35 973.33 372.81 C 971.97 368.48 973.39 363.69 971.57 359.49 C 968.43 356.93 964.46 355.71 960.94 353.80 C 961.20 348.02 960.24 342.09 961.35 336.39 C 962.75 334.82 964.55 333.67 966.22 332.41 C 967.08 328.42 966.06 323.81 968.15 320.16 C 970.26 317.98 972.94 316.03 975.93 315.31 C 980.65 316.63 984.83 319.44 989.12 321.78 C 991.77 323.54 994.72 321.27 997.37 320.58 C 999.61 321.74 1001.74 322.83 1004.07 323.93 C 1009.15 327.36 1015.42 326.06 1021.04 327.65 C 1024.07 326.12 1027.32 324.97 1030.03 322.87 C 1031.31 323.13 1032.60 323.39 1033.90 323.67 C 1036.06 320.07 1038.64 316.66 1042.10 314.19 C 1045.10 316.85 1047.61 320.17 1051.46 321.70 C 1051.48 320.91 1051.52 319.33 1051.54 318.54 C 1052.65 319.66 1053.75 320.79 1054.85 321.94 C 1053.54 316.92 1053.98 311.72 1054.35 306.61 C 1051.74 308.77 1049.14 310.94 1046.49 313.02 C 1045.89 312.70 1044.69 312.04 1044.09 311.71 C 1044.28 310.25 1044.49 308.79 1044.71 307.33 C 1043.74 306.49 1042.79 305.66 1041.85 304.82 C 1041.14 298.82 1035.26 294.97 1036.03 288.48 C 1034.11 286.61 1032.07 284.58 1031.69 281.80 C 1031.08 277.61 1029.22 273.63 1029.42 269.35 C 1029.87 264.72 1030.56 260.11 1031.67 255.59 C 1033.95 254.42 1039.89 256.98 1040.97 253.04 C 1043.70 244.41 1042.14 235.13 1044.53 226.45 C 1046.43 224.15 1049.28 223.04 1051.74 221.44 Z" />
</g>
<g id="#1f9f00ff">
<path fill="#1f9f00" fill-opacity="0" d=" M 1218.64 374.31 C 1222.50 374.25 1228.04 372.03 1230.33 376.51 C 1234.00 384.25 1235.83 392.65 1238.41 400.78 C 1239.41 404.38 1239.60 409.59 1244.22 410.36 C 1247.10 410.49 1251.50 412.46 1253.05 409.13 C 1254.43 406.76 1255.07 404.05 1255.89 401.45 C 1264.11 401.77 1270.94 408.01 1272.53 416.01 C 1272.95 420.44 1271.11 424.80 1271.83 429.23 C 1273.56 430.36 1275.43 431.29 1277.45 432.02 C 1276.34 435.92 1275.75 439.94 1275.40 443.97 C 1274.35 449.85 1272.13 455.46 1270.03 461.04 C 1271.48 461.23 1274.39 461.61 1275.84 461.80 C 1277.87 464.82 1276.11 468.83 1277.99 471.94 C 1280.42 477.26 1285.39 480.70 1290.37 483.40 C 1288.78 490.71 1284.98 497.23 1282.71 504.30 C 1281.01 509.38 1278.95 514.77 1274.06 517.60 C 1274.40 510.23 1275.74 502.70 1272.81 495.64 C 1271.86 495.75 1269.94 495.96 1268.98 496.07 C 1267.09 498.23 1265.18 500.36 1263.18 502.41 C 1262.32 499.37 1262.31 495.94 1260.56 493.28 C 1256.97 490.16 1252.05 489.24 1247.46 488.80 C 1246.25 487.23 1245.15 485.54 1243.61 484.28 C 1239.52 485.50 1235.97 488.10 1232.77 490.83 C 1229.75 493.21 1230.90 498.01 1228.04 500.47 C 1224.49 502.22 1220.67 503.30 1217.19 505.19 C 1216.54 503.91 1215.88 502.62 1215.26 501.36 C 1212.04 505.08 1209.03 508.96 1205.83 512.69 C 1200.99 512.80 1197.44 516.18 1193.86 519.01 C 1190.53 516.05 1186.36 514.33 1182.01 513.53 C 1180.64 516.64 1179.19 519.71 1177.67 522.74 C 1173.82 523.30 1169.74 521.14 1166.12 523.17 C 1160.74 525.94 1155.86 529.55 1150.55 532.42 C 1149.25 529.99 1147.89 527.60 1146.43 525.28 C 1144.65 528.42 1142.89 531.57 1141.17 534.74 C 1136.98 529.21 1132.86 523.64 1129.39 517.63 C 1124.66 519.04 1120.33 521.49 1115.66 523.05 C 1110.43 524.83 1107.31 529.69 1103.76 533.61 C 1099.94 533.46 1096.12 533.20 1092.32 533.41 C 1085.83 536.10 1079.59 539.73 1075.16 545.28 C 1070.42 551.05 1062.25 550.94 1055.49 550.41 C 1050.72 551.28 1044.39 546.47 1048.22 541.35 C 1052.49 535.88 1059.92 534.50 1065.14 530.16 C 1073.38 524.03 1076.89 512.31 1072.49 502.85 C 1075.41 502.59 1078.21 502.29 1081.20 502.06 C 1078.55 497.62 1075.02 493.59 1073.82 488.43 C 1077.37 489.09 1080.84 489.67 1084.44 490.29 C 1085.81 486.95 1087.87 483.43 1087.09 479.69 C 1085.98 474.57 1083.79 469.58 1084.50 464.20 C 1084.80 458.02 1088.91 453.05 1091.75 447.85 C 1093.63 443.94 1096.80 440.99 1099.91 438.07 C 1104.82 435.81 1110.02 434.28 1115.34 433.35 C 1114.38 431.52 1113.39 429.72 1112.40 427.92 C 1112.62 427.68 1113.07 427.21 1113.30 426.98 C 1122.62 427.58 1129.96 421.55 1135.93 415.22 C 1138.04 416.19 1140.15 417.15 1142.28 418.11 C 1145.65 412.15 1146.94 405.23 1144.69 398.62 C 1148.31 397.59 1151.99 396.71 1155.43 395.15 C 1160.88 392.63 1164.68 387.36 1170.31 385.21 C 1175.84 385.11 1181.70 385.27 1186.55 382.06 C 1188.06 382.77 1189.54 383.69 1191.20 384.10 C 1201.25 383.48 1208.45 374.38 1218.64 374.31 Z" />
</g>
<g id="#9f1f00ff">
<path fill="#9f1f00" fill-opacity="0" d=" M 1025.99 380.49 C 1030.21 381.56 1035.93 381.46 1037.92 386.12 C 1039.85 392.23 1036.99 398.66 1037.44 404.92 C 1038.03 410.61 1037.84 416.35 1038.48 422.04 C 1041.35 418.71 1044.28 414.39 1049.23 414.54 C 1057.91 414.75 1066.85 415.73 1074.87 419.29 C 1079.77 423.83 1081.76 430.77 1086.66 435.37 C 1090.25 438.58 1095.48 438.02 1099.91 438.07 C 1096.80 440.99 1093.63 443.94 1091.75 447.85 C 1088.91 453.05 1084.80 458.02 1084.50 464.20 C 1083.79 469.58 1085.98 474.57 1087.09 479.69 C 1087.87 483.43 1085.81 486.95 1084.44 490.29 C 1080.84 489.67 1077.37 489.09 1073.82 488.43 C 1075.02 493.59 1078.55 497.62 1081.20 502.06 C 1078.21 502.29 1075.41 502.59 1072.49 502.85 C 1076.89 512.31 1073.38 524.03 1065.14 530.16 C 1059.92 534.50 1052.49 535.88 1048.22 541.35 C 1044.39 546.47 1050.72 551.28 1055.49 550.41 C 1062.25 550.94 1070.42 551.05 1075.16 545.28 C 1079.59 539.73 1085.83 536.10 1092.32 533.41 C 1092.19 538.92 1092.68 544.59 1091.37 550.02 C 1089.60 556.70 1086.31 563.39 1080.78 567.72 C 1075.42 571.26 1069.34 573.51 1063.43 575.94 C 1059.25 572.59 1055.17 569.05 1050.42 566.52 C 1046.41 564.52 1041.06 566.71 1040.23 571.11 C 1040.59 576.07 1045.10 579.29 1046.55 583.84 C 1045.11 587.32 1041.31 588.72 1038.32 590.54 C 1033.64 593.00 1029.78 596.86 1024.77 598.71 C 1021.69 597.53 1019.13 595.35 1016.08 594.13 C 1014.12 596.36 1012.97 599.15 1011.70 601.79 C 1007.08 603.49 1002.65 605.81 998.72 608.75 C 997.58 610.97 997.36 613.53 997.34 615.99 C 991.20 617.23 985.51 621.17 983.19 627.14 C 980.21 635.13 980.29 643.86 977.77 651.99 C 980.27 654.23 983.69 655.96 985.00 659.19 C 984.79 663.92 982.50 668.35 982.65 673.14 C 978.62 672.49 974.35 670.69 970.42 672.55 C 967.21 673.55 963.79 676.74 960.40 674.57 C 954.47 670.99 948.76 666.78 941.93 665.03 C 944.79 660.01 945.82 654.06 943.34 648.66 C 935.13 648.62 927.76 644.56 920.40 641.48 C 917.26 640.22 915.04 637.49 913.85 634.40 C 914.68 626.57 909.68 620.05 909.51 612.41 C 909.45 608.92 910.19 605.50 910.76 602.08 C 906.78 601.48 902.79 600.88 898.82 600.27 C 898.29 604.85 898.42 609.58 897.39 614.12 C 895.93 614.05 894.47 613.98 893.03 613.91 C 891.86 607.73 889.61 601.57 884.03 598.07 C 878.32 589.02 876.54 577.72 877.06 567.13 C 877.39 563.01 876.71 558.24 880.18 555.22 C 884.65 548.80 892.97 548.34 899.70 545.67 C 903.49 544.03 907.69 543.79 911.56 542.41 C 915.16 539.19 915.75 532.87 921.06 531.56 C 931.80 528.73 939.83 520.88 948.68 514.68 C 952.31 512.16 956.91 511.30 960.16 508.19 C 963.05 505.34 964.63 501.43 967.53 498.59 C 972.45 495.43 978.50 495.41 984.03 494.00 C 990.40 492.63 996.62 490.14 1003.17 489.79 C 1010.39 490.53 1017.58 488.81 1024.30 486.23 C 1027.30 483.28 1028.79 479.15 1030.07 475.23 C 1030.57 471.89 1029.21 468.60 1028.22 465.47 C 1026.72 461.41 1022.19 460.11 1018.91 457.90 C 1013.81 454.85 1012.16 448.17 1007.17 445.14 C 999.67 444.64 992.19 443.82 984.91 441.85 C 982.13 432.71 982.19 423.04 980.26 413.75 C 980.20 409.49 980.67 405.23 981.00 401.00 C 982.65 401.97 984.32 402.95 985.98 403.94 C 988.34 400.66 989.95 394.86 994.90 395.17 C 1003.06 394.48 1012.03 397.52 1019.77 393.68 C 1024.28 390.90 1025.65 385.42 1025.99 380.49 Z" />
</g>
<g id="#df1f7fff">
<path fill="#df1f7f" fill-opacity="0" d=" M 1232.77 490.83 C 1235.97 488.10 1239.52 485.50 1243.61 484.28 C 1245.15 485.54 1246.25 487.23 1247.46 488.80 C 1252.05 489.24 1256.97 490.16 1260.56 493.28 C 1262.31 495.94 1262.32 499.37 1263.18 502.41 C 1265.18 500.36 1267.09 498.23 1268.98 496.07 C 1269.94 495.96 1271.86 495.75 1272.81 495.64 C 1275.74 502.70 1274.40 510.23 1274.06 517.60 C 1274.62 521.54 1278.51 523.80 1282.28 522.80 C 1285.00 526.08 1287.58 529.47 1290.03 532.98 C 1293.35 538.39 1293.95 544.80 1295.56 550.82 C 1296.22 553.90 1298.96 555.85 1300.45 558.51 C 1302.63 562.00 1301.99 566.59 1300.31 570.18 C 1293.55 585.52 1286.57 600.76 1279.06 615.73 C 1272.16 617.13 1265.44 619.15 1259.15 622.34 C 1247.71 628.24 1234.06 626.98 1222.41 632.11 C 1218.98 633.83 1215.60 635.61 1212.10 637.16 C 1214.08 623.78 1224.09 612.07 1222.10 598.12 C 1221.65 594.02 1222.70 590.00 1223.54 586.02 C 1219.03 586.79 1214.60 587.79 1210.15 588.80 C 1206.84 585.93 1203.41 583.14 1199.36 581.39 C 1198.56 583.78 1197.81 586.20 1196.94 588.57 C 1190.18 584.03 1184.10 578.10 1175.99 576.01 C 1170.64 573.68 1164.86 574.92 1159.41 575.90 C 1159.43 577.12 1159.46 578.34 1159.50 579.57 C 1154.37 581.42 1149.47 584.09 1143.99 584.74 C 1136.87 585.72 1131.66 591.11 1125.65 594.50 C 1121.71 596.53 1120.19 601.01 1118.81 604.91 C 1111.11 597.00 1104.70 587.81 1100.15 577.74 C 1098.95 575.11 1097.30 572.13 1098.20 569.16 C 1099.25 565.76 1101.86 563.19 1104.05 560.50 C 1102.11 556.88 1100.51 552.85 1097.42 550.05 C 1095.41 549.69 1093.37 549.94 1091.37 550.02 C 1092.68 544.59 1092.19 538.92 1092.32 533.41 C 1096.12 533.20 1099.94 533.46 1103.76 533.61 C 1107.31 529.69 1110.43 524.83 1115.66 523.05 C 1120.33 521.49 1124.66 519.04 1129.39 517.63 C 1132.86 523.64 1136.98 529.21 1141.17 534.74 C 1142.89 531.57 1144.65 528.42 1146.43 525.28 C 1147.89 527.60 1149.25 529.99 1150.55 532.42 C 1155.86 529.55 1160.74 525.94 1166.12 523.17 C 1169.74 521.14 1173.82 523.30 1177.67 522.74 C 1179.19 519.71 1180.64 516.64 1182.01 513.53 C 1186.36 514.33 1190.53 516.05 1193.86 519.01 C 1197.44 516.18 1200.99 512.80 1205.83 512.69 C 1209.03 508.96 1212.04 505.08 1215.26 501.36 C 1215.88 502.62 1216.54 503.91 1217.19 505.19 C 1220.67 503.30 1224.49 502.22 1228.04 500.47 C 1230.90 498.01 1229.75 493.21 1232.77 490.83 Z" />
</g>
<g id="#5fdf00ff">
<path fill="#5fdf00" fill-opacity="0" d=" M 1091.37 550.02 C 1093.37 549.94 1095.41 549.69 1097.42 550.05 C 1100.51 552.85 1102.11 556.88 1104.05 560.50 C 1101.86 563.19 1099.25 565.76 1098.20 569.16 C 1097.30 572.13 1098.95 575.11 1100.15 577.74 C 1104.70 587.81 1111.11 597.00 1118.81 604.91 C 1116.85 610.16 1116.19 616.65 1111.74 620.60 C 1108.17 622.52 1104.29 625.51 1099.94 624.72 C 1095.29 624.00 1090.18 622.91 1085.81 625.32 C 1080.69 627.43 1077.19 631.94 1072.51 634.76 C 1066.74 638.83 1063.81 645.72 1061.37 652.09 C 1060.27 655.63 1062.33 659.35 1061.32 662.81 C 1057.59 665.44 1052.85 666.33 1049.35 669.36 C 1045.39 672.78 1042.25 677.03 1038.91 681.04 C 1034.48 679.88 1030.64 677.45 1027.39 674.31 C 1024.53 674.72 1020.10 677.37 1018.72 673.50 C 1015.68 666.04 1011.82 658.47 1012.31 650.17 C 1012.37 641.95 1008.95 633.77 1011.16 625.62 C 1008.04 621.86 1003.55 619.85 998.69 621.15 C 998.21 619.43 997.73 617.71 997.34 615.99 C 997.36 613.53 997.58 610.97 998.72 608.75 C 1002.65 605.81 1007.08 603.49 1011.70 601.79 C 1012.97 599.15 1014.12 596.36 1016.08 594.13 C 1019.13 595.35 1021.69 597.53 1024.77 598.71 C 1029.78 596.86 1033.64 593.00 1038.32 590.54 C 1041.31 588.72 1045.11 587.32 1046.55 583.84 C 1045.10 579.29 1040.59 576.07 1040.23 571.11 C 1041.06 566.71 1046.41 564.52 1050.42 566.52 C 1055.17 569.05 1059.25 572.59 1063.43 575.94 C 1069.34 573.51 1075.42 571.26 1080.78 567.72 C 1086.31 563.39 1089.60 556.70 1091.37 550.02 Z" />
</g>
<g id="#9f9f00ff">
<path fill="#9f9f00" fill-opacity="0" d=" M 1159.41 575.90 C 1164.86 574.92 1170.64 573.68 1175.99 576.01 C 1184.10 578.10 1190.18 584.03 1196.94 588.57 C 1195.65 593.85 1189.99 594.85 1185.88 597.15 C 1179.34 601.44 1173.09 606.39 1168.86 613.07 C 1163.81 617.11 1154.09 617.42 1153.56 625.69 C 1151.92 633.73 1161.48 635.77 1166.96 638.20 C 1173.26 640.45 1174.99 648.14 1172.85 653.90 C 1170.71 658.71 1170.38 665.12 1165.85 668.52 C 1162.68 668.14 1159.75 666.70 1156.78 665.68 C 1155.18 661.99 1153.31 658.48 1150.88 655.30 C 1146.48 663.30 1142.28 671.50 1136.27 678.45 C 1126.47 679.63 1119.61 688.43 1115.82 696.88 C 1102.94 692.54 1093.03 679.26 1078.28 681.42 C 1072.50 685.07 1067.63 690.00 1062.19 694.12 C 1061.10 694.90 1060.02 695.66 1058.90 696.38 C 1054.19 695.21 1049.06 694.71 1044.94 691.96 C 1042.28 688.73 1040.86 684.66 1038.91 681.04 C 1042.25 677.03 1045.39 672.78 1049.35 669.36 C 1052.85 666.33 1057.59 665.44 1061.32 662.81 C 1062.33 659.35 1060.27 655.63 1061.37 652.09 C 1063.81 645.72 1066.74 638.83 1072.51 634.76 C 1077.19 631.94 1080.69 627.43 1085.81 625.32 C 1090.18 622.91 1095.29 624.00 1099.94 624.72 C 1104.29 625.51 1108.17 622.52 1111.74 620.60 C 1116.19 616.65 1116.85 610.16 1118.81 604.91 C 1120.19 601.01 1121.71 596.53 1125.65 594.50 C 1131.66 591.11 1136.87 585.72 1143.99 584.74 C 1149.47 584.09 1154.37 581.42 1159.50 579.57 C 1159.46 578.34 1159.43 577.12 1159.41 575.90 Z" />
</g>
<g id="#1fdf7fff">
<path fill="#1fdf7f" fill-opacity="0" d=" M 1199.36 581.39 C 1203.41 583.14 1206.84 585.93 1210.15 588.80 C 1214.60 587.79 1219.03 586.79 1223.54 586.02 C 1222.70 590.00 1221.65 594.02 1222.10 598.12 C 1224.09 612.07 1214.08 623.78 1212.10 637.16 C 1215.60 635.61 1218.98 633.83 1222.41 632.11 C 1222.99 632.36 1224.13 632.84 1224.71 633.09 C 1228.23 638.74 1233.37 643.18 1236.57 649.06 C 1233.25 649.33 1229.93 649.50 1226.65 649.77 C 1225.52 656.10 1224.61 662.48 1224.02 668.89 C 1223.55 672.30 1223.19 676.04 1220.73 678.67 C 1214.91 685.06 1207.61 689.79 1200.94 695.20 C 1199.58 692.10 1198.53 688.88 1196.76 686.01 C 1191.19 690.21 1186.21 695.26 1180.82 699.74 C 1175.76 702.81 1173.88 708.73 1169.38 712.34 C 1166.20 715.07 1162.20 716.87 1159.74 720.40 C 1156.17 729.20 1155.95 739.03 1151.63 747.56 C 1151.07 748.70 1150.49 749.84 1149.95 750.99 C 1148.00 750.66 1146.06 750.33 1144.14 750.01 C 1142.61 745.13 1143.45 738.44 1138.19 735.84 C 1132.63 734.52 1126.01 736.58 1123.18 741.82 C 1120.65 746.13 1117.29 750.83 1111.95 751.53 C 1108.55 751.22 1106.05 748.55 1103.59 746.47 C 1107.55 736.26 1104.32 724.56 1109.86 714.82 C 1113.56 709.47 1119.85 706.89 1124.47 702.48 C 1131.36 696.37 1134.48 687.23 1136.27 678.45 C 1142.28 671.50 1146.48 663.30 1150.88 655.30 C 1153.31 658.48 1155.18 661.99 1156.78 665.68 C 1159.75 666.70 1162.68 668.14 1165.85 668.52 C 1170.38 665.12 1170.71 658.71 1172.85 653.90 C 1174.99 648.14 1173.26 640.45 1166.96 638.20 C 1161.48 635.77 1151.92 633.73 1153.56 625.69 C 1154.09 617.42 1163.81 617.11 1168.86 613.07 C 1173.09 606.39 1179.34 601.44 1185.88 597.15 C 1189.99 594.85 1195.65 593.85 1196.94 588.57 C 1197.81 586.20 1198.56 583.78 1199.36 581.39 Z" />
</g>
<g id="#5f5f00ff">
<path fill="#5f5f00" fill-opacity="0" d=" M 898.82 600.27 C 902.79 600.88 906.78 601.48 910.76 602.08 C 910.19 605.50 909.45 608.92 909.51 612.41 C 909.68 620.05 914.68 626.57 913.85 634.40 C 911.48 636.32 909.12 638.26 906.55 639.90 C 906.45 647.57 906.88 655.40 904.79 662.87 C 903.17 668.63 904.54 675.08 901.31 680.37 C 898.44 685.04 895.03 689.41 892.65 694.37 C 891.60 698.67 894.12 702.62 894.54 706.81 C 892.40 709.25 889.79 711.38 887.00 713.02 C 880.13 716.02 872.27 711.34 865.44 714.48 C 858.68 721.73 856.29 731.83 852.29 740.65 C 848.36 748.45 843.00 755.92 842.11 764.86 C 839.88 764.30 837.61 763.90 835.37 763.43 C 832.00 771.91 823.38 775.88 815.46 779.11 C 812.29 779.23 809.59 777.06 806.78 775.90 C 806.71 771.14 806.71 766.38 806.88 761.63 C 815.77 764.63 821.79 756.39 824.18 749.13 C 826.54 741.40 832.78 735.80 836.26 728.64 C 836.59 726.58 837.10 723.30 834.64 722.70 C 829.78 720.72 824.19 720.33 820.03 716.81 C 816.35 713.56 810.80 710.27 805.86 712.86 C 800.23 716.27 796.41 721.85 792.08 726.68 C 789.05 725.07 785.77 721.28 782.07 723.06 C 774.58 727.69 768.06 733.70 760.79 738.66 C 755.40 733.84 748.20 731.88 741.30 730.32 C 743.10 722.90 748.38 716.18 747.83 708.30 C 745.79 703.71 743.13 699.33 742.44 694.26 C 742.39 694.05 742.29 693.62 742.24 693.40 C 751.44 691.79 755.97 683.32 762.01 677.32 C 766.62 671.64 772.68 667.54 778.33 663.00 C 783.50 665.38 788.83 667.83 794.67 667.79 C 797.85 665.27 799.69 661.33 803.15 659.17 C 809.28 656.65 815.86 660.05 822.16 659.30 C 826.78 657.20 830.38 653.20 835.27 651.52 C 842.47 649.10 850.19 649.95 857.62 649.16 C 862.71 647.07 864.78 641.23 869.22 638.23 C 874.24 635.42 880.75 636.86 885.57 633.56 C 891.14 628.29 896.07 621.90 897.39 614.12 C 898.42 609.58 898.29 604.85 898.82 600.27 M 846.23 680.11 C 845.84 681.41 845.47 682.73 845.10 684.05 C 846.72 684.02 848.35 684.00 849.99 683.99 C 849.98 682.64 849.98 681.30 849.99 679.96 C 848.73 680.00 847.47 680.05 846.23 680.11 Z" />
</g>
<g id="#df9f00fe">
<path fill="#df9f00" fill-opacity="0" d=" M 983.19 627.14 C 985.51 621.17 991.20 617.23 997.34 615.99 C 997.73 617.71 998.21 619.43 998.69 621.15 C 1003.55 619.85 1008.04 621.86 1011.16 625.62 C 1008.95 633.77 1012.37 641.95 1012.31 650.17 C 1011.82 658.47 1015.68 666.04 1018.72 673.50 C 1020.10 677.37 1024.53 674.72 1027.39 674.31 C 1030.64 677.45 1034.48 679.88 1038.91 681.04 C 1040.86 684.66 1042.28 688.73 1044.94 691.96 C 1049.06 694.71 1054.19 695.21 1058.90 696.38 C 1052.67 700.06 1046.06 703.07 1039.40 705.86 C 1032.53 710.61 1028.37 718.48 1021.16 722.79 C 1014.99 724.57 1008.12 723.22 1002.34 726.59 C 1000.50 723.47 998.28 720.33 997.71 716.69 C 998.35 713.05 1001.47 710.43 1003.21 707.30 C 1006.54 702.66 1007.25 696.82 1007.94 691.32 C 1003.65 691.79 999.36 692.21 995.05 692.44 C 997.29 689.24 1000.35 686.17 1000.77 682.10 C 995.64 677.13 985.66 680.63 982.65 673.14 C 982.50 668.35 984.79 663.92 985.00 659.19 C 983.69 655.96 980.27 654.23 977.77 651.99 C 980.29 643.86 980.21 635.13 983.19 627.14 Z" />
</g>
<g id="#5f9f00ff">
<path fill="#5f9f00" fill-opacity="0" d=" M 1224.71 633.09 C 1226.68 632.61 1228.80 631.11 1230.87 632.14 C 1235.64 633.94 1239.97 636.72 1244.73 638.55 C 1243.47 644.50 1242.42 650.54 1242.43 656.64 C 1246.01 660.18 1250.55 663.34 1251.05 668.84 C 1251.62 684.98 1242.47 699.00 1236.37 713.34 C 1233.40 719.43 1231.37 726.03 1227.59 731.69 C 1222.42 737.17 1216.14 741.51 1211.11 747.14 C 1206.78 752.08 1207.24 759.11 1204.94 764.98 C 1201.93 772.66 1198.24 780.05 1194.71 787.49 C 1194.83 783.40 1195.60 779.38 1196.45 775.40 C 1190.31 776.09 1183.83 776.37 1178.27 779.34 C 1175.41 780.86 1172.23 781.81 1169.03 782.21 C 1166.01 777.33 1165.25 771.58 1163.93 766.12 C 1166.86 763.32 1169.81 760.52 1172.72 757.68 C 1170.54 756.04 1168.43 754.25 1165.96 753.08 C 1162.83 754.61 1160.42 757.24 1157.70 759.34 C 1157.77 756.56 1157.93 753.79 1158.19 751.02 C 1156.00 749.86 1153.80 748.71 1151.63 747.56 C 1155.95 739.03 1156.17 729.20 1159.74 720.40 C 1162.20 716.87 1166.20 715.07 1169.38 712.34 C 1173.88 708.73 1175.76 702.81 1180.82 699.74 C 1186.21 695.26 1191.19 690.21 1196.76 686.01 C 1198.53 688.88 1199.58 692.10 1200.94 695.20 C 1207.61 689.79 1214.91 685.06 1220.73 678.67 C 1223.19 676.04 1223.55 672.30 1224.02 668.89 C 1224.61 662.48 1225.52 656.10 1226.65 649.77 C 1229.93 649.50 1233.25 649.33 1236.57 649.06 C 1233.37 643.18 1228.23 638.74 1224.71 633.09 Z" />
</g>
<g id="#9fdf00ff">
<path fill="#9fdf00" fill-opacity="0" d=" M 913.85 634.40 C 915.04 637.49 917.26 640.22 920.40 641.48 C 927.76 644.56 935.13 648.62 943.34 648.66 C 945.82 654.06 944.79 660.01 941.93 665.03 C 940.31 668.16 936.97 671.24 937.72 675.05 C 939.82 679.10 943.54 682.01 946.87 685.02 C 942.98 688.11 938.80 690.85 935.08 694.16 C 932.56 696.85 932.68 700.81 932.44 704.26 C 932.39 708.86 930.98 713.29 929.50 717.61 C 922.07 722.67 915.61 729.01 909.76 735.80 C 904.49 740.17 898.27 744.34 896.39 751.34 C 889.01 751.34 885.31 744.06 878.87 741.95 C 870.23 743.88 863.45 750.32 856.99 756.03 C 859.63 757.72 862.33 759.44 865.00 761.15 C 863.16 764.76 861.29 768.36 859.51 772.01 C 853.75 769.52 847.94 767.15 842.11 764.86 C 843.00 755.92 848.36 748.45 852.29 740.65 C 856.29 731.83 858.68 721.73 865.44 714.48 C 872.27 711.34 880.13 716.02 887.00 713.02 C 889.79 711.38 892.40 709.25 894.54 706.81 C 894.12 702.62 891.60 698.67 892.65 694.37 C 895.03 689.41 898.44 685.04 901.31 680.37 C 904.54 675.08 903.17 668.63 904.79 662.87 C 906.88 655.40 906.45 647.57 906.55 639.90 C 909.12 638.26 911.48 636.32 913.85 634.40 Z" />
</g>
<g id="#1f1f7ffe">
<path fill="#1f1f7f" fill-opacity="0" d=" M 941.93 665.03 C 948.76 666.78 954.47 670.99 960.40 674.57 C 963.79 676.74 967.21 673.55 970.42 672.55 C 974.35 670.69 978.62 672.49 982.65 673.14 C 985.66 680.63 995.64 677.13 1000.77 682.10 C 1000.35 686.17 997.29 689.24 995.05 692.44 C 999.36 692.21 1003.65 691.79 1007.94 691.32 C 1007.25 696.82 1006.54 702.66 1003.21 707.30 C 1001.47 710.43 998.35 713.05 997.71 716.69 C 998.28 720.33 1000.50 723.47 1002.34 726.59 C 998.61 728.12 994.32 729.14 991.67 732.39 C 991.45 735.01 992.15 737.58 992.59 740.15 C 990.21 743.07 987.88 746.03 985.72 749.12 C 984.69 749.08 983.68 749.04 982.68 749.01 C 978.93 746.73 974.76 745.10 971.28 742.41 C 968.06 738.61 966.98 733.29 963.07 729.99 C 955.40 723.91 945.44 722.02 937.68 716.10 C 936.59 718.29 935.48 720.48 934.33 722.65 C 932.70 720.98 931.08 719.30 929.50 717.61 C 930.98 713.29 932.39 708.86 932.44 704.26 C 932.68 700.81 932.56 696.85 935.08 694.16 C 938.80 690.85 942.98 688.11 946.87 685.02 C 943.54 682.01 939.82 679.10 937.72 675.05 C 936.97 671.24 940.31 668.16 941.93 665.03 Z" />
</g>
<g id="#9f1f7fff">
<path fill="#9f1f7f" fill-opacity="0" d=" M 1115.82 696.88 C 1119.61 688.43 1126.47 679.63 1136.27 678.45 C 1134.48 687.23 1131.36 696.37 1124.47 702.48 C 1119.85 706.89 1113.56 709.47 1109.86 714.82 C 1104.32 724.56 1107.55 736.26 1103.59 746.47 C 1101.14 749.52 1098.47 752.40 1095.56 755.01 C 1093.57 753.42 1091.98 750.40 1089.08 750.61 C 1081.07 751.83 1073.75 755.60 1066.64 759.30 C 1065.21 756.32 1062.92 753.06 1064.20 749.62 C 1066.44 743.19 1068.47 736.32 1067.00 729.46 C 1065.61 721.40 1063.95 713.37 1063.81 705.17 C 1063.80 701.42 1063.21 697.72 1062.19 694.12 C 1067.63 690.00 1072.50 685.07 1078.28 681.42 C 1093.03 679.26 1102.94 692.54 1115.82 696.88 Z" />
</g>
<g id="#df5f00ff">
<path fill="#df5f00" fill-opacity="0" d=" M 846.23 680.11 C 847.47 680.05 848.73 680.00 849.99 679.96 C 849.98 681.30 849.98 682.64 849.99 683.99 C 848.35 684.00 846.72 684.02 845.10 684.05 C 845.47 682.73 845.84 681.41 846.23 680.11 Z" />
</g>
<g id="#1fdf00ff">
<path fill="#1fdf00" fill-opacity="0" d=" M 720.31 700.41 C 727.70 698.37 734.80 695.42 742.44 694.26 C 743.13 699.33 745.79 703.71 747.83 708.30 C 748.38 716.18 743.10 722.90 741.30 730.32 C 748.20 731.88 755.40 733.84 760.79 738.66 C 756.15 742.36 751.52 746.11 747.24 750.23 C 744.25 753.09 741.98 757.04 737.91 758.50 C 731.30 760.65 724.25 760.73 717.39 761.17 C 713.17 762.47 708.49 763.86 705.39 767.15 C 702.47 773.27 700.92 780.71 694.62 784.47 C 688.77 788.26 681.66 788.98 674.93 789.88 C 664.21 790.67 654.37 796.79 643.38 795.01 C 645.83 790.76 647.14 785.88 646.36 780.99 C 645.43 773.43 651.56 766.91 649.85 759.34 C 647.48 755.83 642.10 755.71 638.76 757.82 C 632.89 761.46 627.90 767.36 620.41 767.50 C 618.35 768.14 617.50 765.53 616.93 764.04 C 615.56 758.51 613.09 753.39 610.95 748.15 C 618.73 747.20 626.78 745.94 633.43 741.51 C 635.31 738.14 634.07 734.13 633.48 730.59 C 638.27 725.94 643.19 721.15 649.26 718.22 C 657.85 715.91 666.71 717.84 675.37 718.57 C 677.28 721.97 679.09 726.43 683.96 726.14 C 691.14 729.40 696.10 723.18 701.30 719.67 C 701.83 716.02 703.61 712.71 707.06 711.10 C 712.32 708.55 714.56 701.98 720.31 700.41 Z" />
</g>
<g id="#df5f7fff">
<path fill="#df5f7f" fill-opacity="0" d=" M 1058.90 696.38 C 1060.02 695.66 1061.10 694.90 1062.19 694.12 C 1063.21 697.72 1063.80 701.42 1063.81 705.17 C 1063.95 713.37 1065.61 721.40 1067.00 729.46 C 1068.47 736.32 1066.44 743.19 1064.20 749.62 C 1062.92 753.06 1065.21 756.32 1066.64 759.30 C 1060.58 762.80 1055.24 767.34 1050.35 772.29 C 1047.23 775.62 1043.18 777.79 1039.04 779.56 C 1038.25 772.40 1036.36 765.38 1033.45 758.80 C 1035.16 757.11 1036.86 755.41 1038.55 753.70 C 1035.08 750.95 1031.73 746.77 1026.88 747.05 C 1019.79 747.40 1012.64 745.18 1005.73 747.72 C 1004.67 750.29 1004.00 753.36 1001.63 755.09 C 998.95 756.93 995.86 758.01 992.83 759.06 C 993.32 756.15 994.19 753.23 993.90 750.25 C 991.27 749.32 988.46 749.23 985.72 749.12 C 987.88 746.03 990.21 743.07 992.59 740.15 C 992.15 737.58 991.45 735.01 991.67 732.39 C 994.32 729.14 998.61 728.12 1002.34 726.59 C 1008.12 723.22 1014.99 724.57 1021.16 722.79 C 1028.37 718.48 1032.53 710.61 1039.40 705.86 C 1046.06 703.07 1052.67 700.06 1058.90 696.38 M 1025.15 721.40 C 1024.29 725.38 1029.14 720.58 1025.15 721.40 Z" />
</g>
<g id="#1f1f00ff">
<path fill="#1f1f00" fill-opacity="0" d=" M 805.86 712.86 C 810.80 710.27 816.35 713.56 820.03 716.81 C 824.19 720.33 829.78 720.72 834.64 722.70 C 837.10 723.30 836.59 726.58 836.26 728.64 C 832.78 735.80 826.54 741.40 824.18 749.13 C 821.79 756.39 815.77 764.63 806.88 761.63 C 802.10 761.41 796.28 757.98 792.44 762.35 C 786.79 768.72 780.99 775.15 776.67 782.52 C 775.92 786.87 776.46 791.26 777.08 795.59 C 781.22 795.13 785.44 793.87 789.66 794.43 C 792.48 795.04 795.15 796.17 797.96 796.86 C 796.80 801.37 795.65 805.90 794.69 810.47 C 794.02 813.38 793.41 816.69 790.66 818.42 C 784.80 822.85 780.45 829.11 777.95 836.00 C 773.25 835.57 768.56 834.94 763.91 834.21 C 757.63 831.01 754.57 837.69 750.94 841.13 C 749.83 838.89 748.72 836.67 747.57 834.48 C 745.33 839.83 743.08 845.18 739.91 850.06 C 736.43 846.85 730.99 840.54 726.10 844.95 C 720.55 851.15 714.16 856.72 709.71 863.84 C 705.62 869.35 704.67 876.71 699.57 881.53 C 696.25 884.74 693.70 888.57 691.31 892.49 C 689.25 896.26 684.21 895.56 680.66 896.53 C 680.92 892.68 680.83 888.80 681.57 885.03 C 683.97 879.99 687.50 875.57 690.03 870.59 C 686.86 867.29 682.16 864.01 682.57 858.87 C 683.32 853.07 685.73 846.75 691.65 844.41 C 697.91 840.96 695.94 832.26 697.31 826.60 C 698.27 818.08 702.96 810.31 703.38 801.75 C 701.59 795.38 693.57 791.83 694.62 784.47 C 700.92 780.71 702.47 773.27 705.39 767.15 C 708.49 763.86 713.17 762.47 717.39 761.17 C 724.25 760.73 731.30 760.65 737.91 758.50 C 741.98 757.04 744.25 753.09 747.24 750.23 C 751.52 746.11 756.15 742.36 760.79 738.66 C 768.06 733.70 774.58 727.69 782.07 723.06 C 785.77 721.28 789.05 725.07 792.08 726.68 C 796.41 721.85 800.23 716.27 805.86 712.86 Z" />
</g>
<g id="#5f1f7fff">
<path fill="#5f1f7f" fill-opacity="0" d=" M 937.68 716.10 C 945.44 722.02 955.40 723.91 963.07 729.99 C 966.98 733.29 968.06 738.61 971.28 742.41 C 974.76 745.10 978.93 746.73 982.68 749.01 C 980.94 754.28 980.46 760.32 976.65 764.63 C 973.38 768.45 968.87 770.88 964.70 773.56 C 960.08 776.15 955.16 772.30 950.81 770.84 C 948.68 776.12 945.39 781.54 946.17 787.44 C 955.13 790.52 964.65 791.64 973.82 794.04 C 974.03 799.71 973.54 805.76 970.11 810.52 C 967.44 812.81 965.39 816.53 961.68 817.15 C 957.98 817.33 954.41 816.06 950.80 815.45 C 945.80 804.99 943.56 792.99 936.20 783.80 C 931.37 779.59 927.09 774.48 921.27 771.56 C 917.15 769.11 911.72 772.65 908.01 769.06 C 902.58 764.33 901.03 756.75 896.39 751.34 C 898.27 744.34 904.49 740.17 909.76 735.80 C 915.61 729.01 922.07 722.67 929.50 717.61 C 931.08 719.30 932.70 720.98 934.33 722.65 C 935.48 720.48 936.59 718.29 937.68 716.10 Z" />
</g>
<g id="#5fdf7fff">
<path fill="#5fdf7f" fill-opacity="0" d=" M 1025.15 721.40 C 1029.14 720.58 1024.29 725.38 1025.15 721.40 Z" />
</g>
<g id="#9f9f7fff">
<path fill="#9f9f7f" fill-opacity="0" d=" M 578.89 723.48 C 585.79 727.59 594.01 726.77 601.73 727.13 C 606.07 729.43 609.38 735.71 615.09 734.14 C 621.11 732.43 627.21 731.02 633.48 730.59 C 634.07 734.13 635.31 738.14 633.43 741.51 C 626.78 745.94 618.73 747.20 610.95 748.15 C 613.09 753.39 615.56 758.51 616.93 764.04 C 617.50 765.53 618.35 768.14 620.41 767.50 C 627.90 767.36 632.89 761.46 638.76 757.82 C 642.10 755.71 647.48 755.83 649.85 759.34 C 651.56 766.91 645.43 773.43 646.36 780.99 C 647.14 785.88 645.83 790.76 643.38 795.01 C 634.35 794.70 625.17 793.03 616.22 795.05 C 610.86 796.22 604.62 795.03 600.43 799.39 C 592.41 806.80 580.79 802.93 571.10 803.78 C 566.03 804.44 564.55 810.03 563.25 814.15 C 553.70 808.15 544.47 801.24 538.31 791.58 C 536.97 790.50 538.19 789.03 538.96 788.04 C 541.56 785.18 546.04 784.71 548.31 781.53 C 550.76 775.52 551.17 768.81 554.06 762.97 C 555.00 760.97 557.43 760.82 559.30 760.34 C 562.44 759.76 565.34 758.37 568.18 756.95 C 565.97 753.38 563.18 750.13 561.59 746.23 C 563.07 743.43 565.89 741.49 566.86 738.41 C 568.00 735.49 568.21 730.96 571.91 729.96 C 575.17 728.99 577.25 726.29 578.89 723.48 Z" />
</g>
<g id="#dfdf7ffe">
<path fill="#dfdf7f" fill-opacity="0" d=" M 1123.18 741.82 C 1126.01 736.58 1132.63 734.52 1138.19 735.84 C 1143.45 738.44 1142.61 745.13 1144.14 750.01 C 1140.58 756.29 1139.27 763.47 1136.83 770.19 C 1134.89 773.84 1130.55 775.06 1127.30 777.22 C 1119.33 782.23 1111.02 788.23 1107.60 797.37 C 1106.47 800.44 1104.27 802.92 1101.76 804.95 C 1101.41 802.82 1101.09 800.70 1100.77 798.59 C 1095.96 802.58 1095.31 809.24 1094.88 815.12 C 1089.41 818.21 1083.75 822.85 1083.20 829.55 C 1080.63 829.17 1078.05 828.91 1075.48 828.67 C 1076.42 821.01 1076.65 813.07 1079.93 805.96 C 1080.77 803.80 1081.62 801.56 1081.65 799.21 C 1076.97 793.11 1067.89 798.60 1062.09 793.99 C 1053.03 790.46 1053.94 779.69 1050.35 772.29 C 1055.24 767.34 1060.58 762.80 1066.64 759.30 C 1073.75 755.60 1081.07 751.83 1089.08 750.61 C 1091.98 750.40 1093.57 753.42 1095.56 755.01 C 1098.47 752.40 1101.14 749.52 1103.59 746.47 C 1106.05 748.55 1108.55 751.22 1111.95 751.53 C 1117.29 750.83 1120.65 746.13 1123.18 741.82 Z" />
</g>
<g id="#9f1f3fff">
<path fill="#9f1f3f" fill-opacity="0" d=" M 856.99 756.03 C 863.45 750.32 870.23 743.88 878.87 741.95 C 885.31 744.06 889.01 751.34 896.39 751.34 C 901.03 756.75 902.58 764.33 908.01 769.06 C 911.72 772.65 917.15 769.11 921.27 771.56 C 927.09 774.48 931.37 779.59 936.20 783.80 C 943.56 792.99 945.80 804.99 950.80 815.45 C 944.46 814.06 939.52 818.18 934.19 820.56 C 920.48 824.11 906.23 821.94 892.28 822.88 C 892.12 815.41 891.93 807.92 890.74 800.52 C 884.97 798.01 879.14 795.71 873.26 793.51 C 866.30 792.48 864.72 784.87 860.41 780.53 C 857.95 778.26 858.12 774.79 859.51 772.01 C 861.29 768.36 863.16 764.76 865.00 761.15 C 862.33 759.44 859.63 757.72 856.99 756.03 Z" />
</g>
<g id="#df1f00ff">
<path fill="#df1f00" fill-opacity="0" d=" M 1005.73 747.72 C 1012.64 745.18 1019.79 747.40 1026.88 747.05 C 1031.73 746.77 1035.08 750.95 1038.55 753.70 C 1036.86 755.41 1035.16 757.11 1033.45 758.80 C 1036.36 765.38 1038.25 772.40 1039.04 779.56 C 1035.78 784.06 1033.30 789.23 1029.07 792.97 C 1025.51 796.47 1021.07 799.12 1018.34 803.41 C 1012.59 811.70 1004.37 819.02 994.20 820.99 C 991.71 821.56 989.94 823.55 987.87 824.89 C 984.95 827.07 981.40 828.08 977.98 829.16 C 981.09 821.83 974.61 815.52 970.11 810.52 C 973.54 805.76 974.03 799.71 973.82 794.04 C 964.65 791.64 955.13 790.52 946.17 787.44 C 945.39 781.54 948.68 776.12 950.81 770.84 C 955.16 772.30 960.08 776.15 964.70 773.56 C 968.87 770.88 973.38 768.45 976.65 764.63 C 980.46 760.32 980.94 754.28 982.68 749.01 C 983.68 749.04 984.69 749.08 985.72 749.12 C 988.46 749.23 991.27 749.32 993.90 750.25 C 994.19 753.23 993.32 756.15 992.83 759.06 C 995.86 758.01 998.95 756.93 1001.63 755.09 C 1004.00 753.36 1004.67 750.29 1005.73 747.72 Z" />
</g>
<g id="#1f5f7fff">
<path fill="#1f5f7f" fill-opacity="0" d=" M 1149.95 750.99 C 1150.49 749.84 1151.07 748.70 1151.63 747.56 C 1153.80 748.71 1156.00 749.86 1158.19 751.02 C 1157.93 753.79 1157.77 756.56 1157.70 759.34 C 1160.42 757.24 1162.83 754.61 1165.96 753.08 C 1168.43 754.25 1170.54 756.04 1172.72 757.68 C 1169.81 760.52 1166.86 763.32 1163.93 766.12 C 1165.25 771.58 1166.01 777.33 1169.03 782.21 C 1172.23 781.81 1175.41 780.86 1178.27 779.34 C 1183.83 776.37 1190.31 776.09 1196.45 775.40 C 1195.60 779.38 1194.83 783.40 1194.71 787.49 C 1194.18 798.37 1187.53 807.81 1182.81 817.28 C 1183.39 812.81 1184.05 808.34 1184.78 803.90 C 1175.32 800.43 1165.30 803.28 1155.60 803.50 C 1150.72 803.85 1147.97 799.19 1144.54 796.56 C 1141.23 793.97 1138.94 790.44 1136.92 786.83 C 1134.69 782.75 1130.68 780.22 1127.30 777.22 C 1130.55 775.06 1134.89 773.84 1136.83 770.19 C 1139.27 763.47 1140.58 756.29 1144.14 750.01 C 1146.06 750.33 1148.00 750.66 1149.95 750.99 Z" />
</g>
<g id="#9fdf7ffe">
<path fill="#9fdf7f" fill-opacity="0" d=" M 792.44 762.35 C 796.28 757.98 802.10 761.41 806.88 761.63 C 806.71 766.38 806.71 771.14 806.78 775.90 C 809.59 777.06 812.29 779.23 815.46 779.11 C 823.38 775.88 832.00 771.91 835.37 763.43 C 837.61 763.90 839.88 764.30 842.11 764.86 C 847.94 767.15 853.75 769.52 859.51 772.01 C 858.12 774.79 857.95 778.26 860.41 780.53 C 864.72 784.87 866.30 792.48 873.26 793.51 C 879.14 795.71 884.97 798.01 890.74 800.52 C 891.93 807.92 892.12 815.41 892.28 822.88 C 888.52 821.73 884.80 819.27 880.73 820.10 C 875.26 821.53 869.34 822.78 865.51 827.34 C 860.85 823.87 856.27 819.58 850.33 818.63 C 847.72 818.24 845.79 820.42 843.75 821.63 C 840.10 824.59 835.73 826.35 831.17 827.34 C 830.17 823.04 829.15 818.76 827.62 814.62 C 824.31 813.41 821.23 811.68 818.18 809.96 C 812.22 812.03 805.74 811.81 799.89 814.27 C 798.16 812.99 796.43 811.71 794.69 810.47 C 795.65 805.90 796.80 801.37 797.96 796.86 C 795.15 796.17 792.48 795.04 789.66 794.43 C 785.44 793.87 781.22 795.13 777.08 795.59 C 776.46 791.26 775.92 786.87 776.67 782.52 C 780.99 775.15 786.79 768.72 792.44 762.35 Z" />
</g>
<g id="#5f5f7fff">
<path fill="#5f5f7f" fill-opacity="0" d=" M 1039.04 779.56 C 1043.18 777.79 1047.23 775.62 1050.35 772.29 C 1053.94 779.69 1053.03 790.46 1062.09 793.99 C 1067.89 798.60 1076.97 793.11 1081.65 799.21 C 1081.62 801.56 1080.77 803.80 1079.93 805.96 C 1076.65 813.07 1076.42 821.01 1075.48 828.67 C 1073.94 828.52 1072.40 828.40 1070.88 828.28 C 1070.50 831.84 1070.05 835.42 1069.05 838.88 C 1065.30 840.55 1061.89 843.13 1057.87 844.10 C 1053.97 844.25 1050.96 841.27 1047.42 840.19 C 1043.17 841.87 1042.73 847.26 1041.06 850.98 C 1038.91 849.77 1036.95 848.03 1034.49 847.58 C 1030.07 850.37 1025.49 854.06 1019.92 853.41 C 1012.01 852.10 1005.96 858.49 999.04 861.13 C 996.14 872.73 996.80 884.82 995.00 896.59 C 989.64 900.21 983.93 903.40 977.96 905.87 C 971.67 907.37 965.12 906.33 958.77 906.39 C 958.86 895.71 958.72 885.03 959.31 874.37 C 959.70 868.62 963.49 862.84 969.35 861.52 C 973.30 859.84 978.72 860.13 981.31 856.31 C 986.21 846.62 974.43 838.62 977.98 829.16 C 981.40 828.08 984.95 827.07 987.87 824.89 C 989.94 823.55 991.71 821.56 994.20 820.99 C 1004.37 819.02 1012.59 811.70 1018.34 803.41 C 1021.07 799.12 1025.51 796.47 1029.07 792.97 C 1033.30 789.23 1035.78 784.06 1039.04 779.56 M 1027.17 827.25 C 1025.53 827.60 1026.24 830.24 1027.83 829.75 C 1029.45 829.38 1028.74 826.75 1027.17 827.25 Z" />
</g>
<g id="#1f9f7fff">
<path fill="#1f9f7f" fill-opacity="0" d=" M 1107.60 797.37 C 1111.02 788.23 1119.33 782.23 1127.30 777.22 C 1130.68 780.22 1134.69 782.75 1136.92 786.83 C 1138.94 790.44 1141.23 793.97 1144.54 796.56 C 1147.97 799.19 1150.72 803.85 1155.60 803.50 C 1165.30 803.28 1175.32 800.43 1184.78 803.90 C 1184.05 808.34 1183.39 812.81 1182.81 817.28 C 1182.25 821.26 1180.50 824.93 1179.21 828.71 C 1182.85 828.98 1186.44 829.32 1190.11 829.46 C 1190.01 834.66 1190.76 839.79 1191.54 844.92 C 1189.99 852.06 1186.17 858.48 1183.06 865.03 C 1178.40 873.88 1174.92 883.59 1168.19 891.16 C 1160.99 896.74 1151.62 896.63 1143.15 898.61 C 1148.00 887.23 1153.14 875.99 1157.99 864.62 C 1152.87 860.02 1150.56 853.59 1147.23 847.85 C 1144.06 848.60 1141.30 850.62 1138.06 851.07 C 1135.02 851.08 1132.12 849.99 1129.32 848.94 C 1125.27 847.35 1120.85 847.32 1116.61 846.73 C 1115.12 840.69 1110.71 835.88 1104.27 834.85 C 1101.91 835.16 1099.90 836.61 1097.79 837.61 C 1094.16 833.12 1088.96 830.14 1083.20 829.55 C 1083.75 822.85 1089.41 818.21 1094.88 815.12 C 1095.31 809.24 1095.96 802.58 1100.77 798.59 C 1101.09 800.70 1101.41 802.82 1101.76 804.95 C 1104.27 802.92 1106.47 800.44 1107.60 797.37 Z" />
</g>
<g id="#9f5f00fe">
<path fill="#9f5f00" fill-opacity="0" d=" M 674.93 789.88 C 681.66 788.98 688.77 788.26 694.62 784.47 C 693.57 791.83 701.59 795.38 703.38 801.75 C 702.96 810.31 698.27 818.08 697.31 826.60 C 695.94 832.26 697.91 840.96 691.65 844.41 C 685.73 846.75 683.32 853.07 682.57 858.87 C 682.16 864.01 686.86 867.29 690.03 870.59 C 687.50 875.57 683.97 879.99 681.57 885.03 C 680.83 888.80 680.92 892.68 680.66 896.53 C 680.61 900.37 678.90 904.14 675.65 906.32 C 671.84 903.90 671.51 899.06 669.40 895.47 C 664.72 894.23 659.71 895.31 654.93 894.89 C 652.10 899.68 647.66 903.04 642.05 903.98 C 640.47 906.96 639.10 910.42 636.16 912.32 C 630.92 913.13 625.57 912.85 620.29 912.66 C 619.83 909.04 619.78 905.35 618.74 901.86 C 615.02 901.14 612.14 904.19 609.15 905.85 C 609.24 902.99 609.31 900.14 609.32 897.29 C 606.07 899.09 601.94 900.86 600.94 904.83 C 599.60 910.04 599.90 915.49 599.36 920.84 C 596.33 917.99 593.18 915.27 589.84 912.80 C 598.29 922.76 607.28 932.27 616.19 941.83 C 604.20 942.04 592.32 939.39 580.32 940.63 C 577.32 940.86 574.05 940.51 571.92 938.12 C 560.74 927.28 549.35 916.58 539.31 904.65 C 530.64 895.05 519.76 887.35 513.36 875.86 C 515.70 872.84 517.89 868.71 516.39 864.86 C 513.48 860.59 509.61 857.07 506.71 852.79 C 510.50 855.62 513.49 859.93 518.39 860.87 C 514.24 855.42 506.70 851.62 506.16 844.11 C 508.26 838.95 514.01 836.66 518.67 834.47 C 522.25 831.60 522.62 824.25 528.48 824.83 C 532.85 824.99 535.55 820.94 539.57 819.98 C 544.76 818.78 549.62 816.60 554.33 814.15 C 557.11 814.55 559.97 815.16 562.76 815.71 C 562.88 815.32 563.13 814.54 563.25 814.15 C 564.55 810.03 566.03 804.44 571.10 803.78 C 580.79 802.93 592.41 806.80 600.43 799.39 C 604.62 795.03 610.86 796.22 616.22 795.05 C 625.17 793.03 634.35 794.70 643.38 795.01 C 654.37 796.79 664.21 790.67 674.93 789.88 Z" />
</g>
<g id="#1f1f3fff">
<path fill="#1f1f3f" fill-opacity="0" d=" M 799.89 814.27 C 805.74 811.81 812.22 812.03 818.18 809.96 C 821.23 811.68 824.31 813.41 827.62 814.62 C 829.15 818.76 830.17 823.04 831.17 827.34 C 835.73 826.35 840.10 824.59 843.75 821.63 C 845.79 820.42 847.72 818.24 850.33 818.63 C 856.27 819.58 860.85 823.87 865.51 827.34 C 868.76 830.18 869.12 834.70 869.89 838.66 C 870.73 843.36 874.61 846.80 875.53 851.47 C 877.61 861.63 879.42 871.87 880.75 882.16 C 880.95 883.91 878.14 884.31 877.44 885.51 C 871.06 889.85 863.40 891.83 856.90 895.98 C 848.99 901.08 841.64 906.97 834.16 912.68 C 830.01 900.48 826.94 887.94 822.27 875.92 C 818.71 878.22 815.02 880.94 810.46 880.38 C 806.99 879.70 804.48 876.86 801.16 875.90 C 795.83 875.53 790.62 878.02 785.29 877.10 C 778.51 875.47 769.41 876.37 765.97 868.96 C 763.53 865.00 767.35 860.62 769.35 857.48 C 774.32 851.28 775.17 843.20 777.95 836.00 C 780.45 829.11 784.80 822.85 790.66 818.42 C 793.41 816.69 794.02 813.38 794.69 810.47 C 796.43 811.71 798.16 812.99 799.89 814.27 Z" />
</g>
<g id="#5f1f00fe">
<path fill="#5f1f00" fill-opacity="0" d=" M 961.68 817.15 C 965.39 816.53 967.44 812.81 970.11 810.52 C 974.61 815.52 981.09 821.83 977.98 829.16 C 974.43 838.62 986.21 846.62 981.31 856.31 C 978.72 860.13 973.30 859.84 969.35 861.52 C 963.49 862.84 959.70 868.62 959.31 874.37 C 958.72 885.03 958.86 895.71 958.77 906.39 C 952.85 902.37 946.89 898.13 942.93 892.06 C 939.42 887.62 936.58 881.92 930.78 880.10 C 921.83 875.66 911.63 876.92 902.11 875.10 C 893.98 872.34 887.72 879.36 880.75 882.16 C 879.42 871.87 877.61 861.63 875.53 851.47 C 874.61 846.80 870.73 843.36 869.89 838.66 C 869.12 834.70 868.76 830.18 865.51 827.34 C 869.34 822.78 875.26 821.53 880.73 820.10 C 884.80 819.27 888.52 821.73 892.28 822.88 C 906.23 821.94 920.48 824.11 934.19 820.56 C 939.52 818.18 944.46 814.06 950.80 815.45 C 954.41 816.06 957.98 817.33 961.68 817.15 Z" />
</g>
<g id="#dfdf00ff">
<path fill="#dfdf00" fill-opacity="0" d=" M 1027.17 827.25 C 1028.74 826.75 1029.45 829.38 1027.83 829.75 C 1026.24 830.24 1025.53 827.60 1027.17 827.25 Z" />
</g>
<g id="#df9f7fff">
<path fill="#df9f7f" fill-opacity="0" d=" M 1070.88 828.28 C 1072.40 828.40 1073.94 828.52 1075.48 828.67 C 1078.05 828.91 1080.63 829.17 1083.20 829.55 C 1088.96 830.14 1094.16 833.12 1097.79 837.61 C 1099.90 836.61 1101.91 835.16 1104.27 834.85 C 1110.71 835.88 1115.12 840.69 1116.61 846.73 C 1120.85 847.32 1125.27 847.35 1129.32 848.94 C 1132.12 849.99 1135.02 851.08 1138.06 851.07 C 1141.30 850.62 1144.06 848.60 1147.23 847.85 C 1150.56 853.59 1152.87 860.02 1157.99 864.62 C 1153.14 875.99 1148.00 887.23 1143.15 898.61 C 1138.62 899.59 1133.81 901.01 1131.14 905.10 C 1127.08 911.05 1120.61 914.51 1115.75 919.65 C 1110.10 926.89 1101.62 931.13 1095.70 938.11 C 1093.77 937.38 1091.84 936.67 1089.93 935.96 C 1093.07 927.36 1095.92 918.66 1099.48 910.22 C 1102.90 902.57 1104.82 894.11 1104.52 885.73 C 1103.98 878.75 1096.91 875.19 1092.07 871.48 C 1092.55 869.34 1093.07 867.20 1093.59 865.08 C 1090.77 864.74 1088.28 864.67 1085.55 864.40 C 1085.47 861.08 1085.28 857.77 1085.06 854.46 C 1081.36 853.09 1077.48 851.96 1074.19 849.72 C 1070.65 847.31 1070.34 842.55 1069.05 838.88 C 1070.05 835.42 1070.50 831.84 1070.88 828.28 M 1114.99 851.00 C 1114.98 852.32 1114.98 853.66 1114.99 855.00 C 1115.50 855.00 1116.50 855.00 1117.01 855.00 C 1116.99 853.66 1116.99 852.32 1117.01 851.00 C 1116.50 851.00 1115.50 851.00 1114.99 851.00 Z" />
</g>
<g id="#5f9f7ffe">
<path fill="#5f9f7f" fill-opacity="0" d=" M 750.94 841.13 C 754.57 837.69 757.63 831.01 763.91 834.21 C 768.56 834.94 773.25 835.57 777.95 836.00 C 775.17 843.20 774.32 851.28 769.35 857.48 C 767.35 860.62 763.53 865.00 765.97 868.96 C 769.41 876.37 778.51 875.47 785.29 877.10 C 790.62 878.02 795.83 875.53 801.16 875.90 C 804.48 876.86 806.99 879.70 810.46 880.38 C 815.02 880.94 818.71 878.22 822.27 875.92 C 826.94 887.94 830.01 900.48 834.16 912.68 C 831.62 917.61 829.66 922.81 828.12 928.14 C 821.39 930.70 815.22 934.42 808.77 937.54 C 804.36 937.50 800.39 935.04 796.04 934.54 C 787.53 934.98 780.25 939.77 772.23 942.04 C 758.09 945.78 743.32 945.92 728.91 948.05 C 716.23 950.72 707.51 962.73 694.16 963.45 C 686.98 965.09 681.03 959.10 676.41 954.38 C 673.34 956.41 670.26 958.76 666.55 959.41 C 659.17 960.42 652.42 956.64 645.33 955.47 C 639.69 954.21 633.89 953.64 628.29 952.39 C 623.59 949.69 620.14 945.44 616.19 941.83 C 607.28 932.27 598.29 922.76 589.84 912.80 C 593.18 915.27 596.33 917.99 599.36 920.84 C 599.90 915.49 599.60 910.04 600.94 904.83 C 601.94 900.86 606.07 899.09 609.32 897.29 C 609.31 900.14 609.24 902.99 609.15 905.85 C 612.14 904.19 615.02 901.14 618.74 901.86 C 619.78 905.35 619.83 909.04 620.29 912.66 C 625.57 912.85 630.92 913.13 636.16 912.32 C 639.10 910.42 640.47 906.96 642.05 903.98 C 647.66 903.04 652.10 899.68 654.93 894.89 C 659.71 895.31 664.72 894.23 669.40 895.47 C 671.51 899.06 671.84 903.90 675.65 906.32 C 678.90 904.14 680.61 900.37 680.66 896.53 C 684.21 895.56 689.25 896.26 691.31 892.49 C 693.70 888.57 696.25 884.74 699.57 881.53 C 704.67 876.71 705.62 869.35 709.71 863.84 C 714.16 856.72 720.55 851.15 726.10 844.95 C 730.99 840.54 736.43 846.85 739.91 850.06 C 743.08 845.18 745.33 839.83 747.57 834.48 C 748.72 836.67 749.83 838.89 750.94 841.13 Z" />
</g>
<g id="#bfdfbfff">
<path fill="#bfdfbf" fill-opacity="0" d=" M 1047.42 840.19 C 1050.96 841.27 1053.97 844.25 1057.87 844.10 C 1061.89 843.13 1065.30 840.55 1069.05 838.88 C 1070.34 842.55 1070.65 847.31 1074.19 849.72 C 1077.48 851.96 1081.36 853.09 1085.06 854.46 C 1085.28 857.77 1085.47 861.08 1085.55 864.40 C 1088.28 864.67 1090.77 864.74 1093.59 865.08 C 1093.07 867.20 1092.55 869.34 1092.07 871.48 C 1096.91 875.19 1103.98 878.75 1104.52 885.73 C 1104.82 894.11 1102.90 902.57 1099.48 910.22 C 1095.92 918.66 1093.07 927.36 1089.93 935.96 C 1084.89 933.42 1079.97 930.42 1074.52 928.95 C 1055.33 928.19 1036.11 919.00 1024.88 903.19 C 1019.86 900.49 1013.80 900.26 1008.87 897.21 C 1004.66 894.59 999.54 896.30 995.00 896.59 C 996.80 884.82 996.14 872.73 999.04 861.13 C 1005.96 858.49 1012.01 852.10 1019.92 853.41 C 1025.49 854.06 1030.07 850.37 1034.49 847.58 C 1036.95 848.03 1038.91 849.77 1041.06 850.98 C 1042.73 847.26 1043.17 841.87 1047.42 840.19 Z" />
</g>
<g id="#9f5f00ff">
<path fill="#9f5f00" fill-opacity="0" d=" M 504.53 851.13 C 505.34 849.92 507.42 851.26 506.45 852.46 C 505.64 853.68 503.60 852.30 504.53 851.13 Z" />
</g>
<g id="#205f00ff">
<path fill="#205f00" fill-opacity="0" d=" M 1114.99 851.00 C 1115.50 851.00 1116.50 851.00 1117.01 851.00 C 1116.99 852.32 1116.99 853.66 1117.01 855.00 C 1116.50 855.00 1115.50 855.00 1114.99 855.00 C 1114.98 853.66 1114.98 852.32 1114.99 851.00 Z" />
</g>
</svg>
