<?xml version="1.0" encoding="UTF-8" ?>
<!DOCTYPE svg PUBLIC "-//W3C//DTD SVG 1.1//EN" "http://www.w3.org/Graphics/SVG/1.1/DTD/svg11.dtd">
<svg width="1920pt" height="1080pt" viewBox="0 0 1920 1080" version="1.1" xmlns="http://www.w3.org/2000/svg">
<g id="#8fcf9ffe">
<path fill="#8fcf9f" fill-opacity="0" d=" M 957.01 185.37 C 960.63 184.48 963.78 182.47 967.15 181.01 C 970.35 181.12 973.53 182.35 976.75 181.54 C 985.57 179.55 993.86 184.84 1000.86 189.61 C 1001.28 187.54 1001.70 185.47 1002.16 183.41 C 1007.95 184.44 1013.49 186.48 1019.17 188.00 C 1022.43 188.50 1022.51 192.47 1023.70 194.85 C 1027.10 194.23 1030.43 193.38 1033.93 193.38 C 1037.64 194.06 1040.92 196.69 1044.85 196.15 C 1048.88 196.25 1052.36 194.07 1056.00 192.72 C 1061.87 194.93 1065.98 200.23 1071.32 203.40 C 1076.87 205.74 1082.90 203.04 1088.61 203.70 C 1092.90 206.07 1097.35 208.70 1100.27 212.76 C 1101.93 214.87 1103.85 217.15 1106.67 217.59 C 1115.49 217.52 1122.39 225.47 1123.35 233.78 C 1122.01 239.63 1123.45 249.06 1116.21 251.46 C 1111.99 253.22 1108.76 256.53 1105.61 259.72 C 1114.79 260.53 1123.66 263.52 1131.28 268.72 C 1134.57 271.18 1138.68 271.89 1142.28 273.71 C 1145.16 278.95 1148.39 284.00 1152.01 288.78 C 1145.48 289.71 1143.26 296.17 1141.12 301.45 C 1135.95 307.54 1128.60 311.07 1121.69 314.81 C 1116.32 317.85 1109.89 315.39 1104.27 317.45 C 1097.19 320.53 1091.24 325.97 1083.81 328.25 C 1077.61 328.58 1071.59 326.17 1065.37 326.57 C 1062.41 329.13 1061.55 333.30 1058.76 335.97 C 1054.60 337.94 1049.90 334.89 1045.72 336.80 C 1041.08 338.84 1036.38 340.81 1031.89 343.16 C 1027.48 345.46 1027.58 351.33 1026.01 355.33 C 1022.09 355.52 1018.06 355.26 1014.28 356.36 C 1012.29 357.45 1011.44 359.78 1010.21 361.57 C 1004.32 361.07 997.45 357.83 992.29 362.22 C 990.27 365.00 990.47 368.74 989.78 372.00 C 984.65 371.65 978.60 371.31 975.22 366.84 C 973.22 363.05 972.87 358.65 971.65 354.59 C 970.04 355.25 968.44 355.91 966.87 356.61 C 965.74 347.95 973.79 342.92 975.17 335.05 C 972.52 335.73 969.88 336.40 967.22 337.01 C 966.96 340.12 966.94 343.31 966.63 346.44 C 966.34 343.62 966.07 340.80 965.83 337.99 C 965.17 338.00 963.85 338.04 963.20 338.05 C 962.81 344.46 962.54 350.89 961.94 357.29 C 959.11 358.33 956.24 359.26 953.47 360.45 C 947.73 362.34 943.26 366.89 937.23 368.07 C 936.55 355.64 937.56 343.11 936.02 330.74 C 931.71 319.56 928.19 307.63 929.93 295.52 C 934.85 294.86 939.61 293.44 944.28 291.82 C 942.38 286.66 941.00 279.93 934.48 278.65 C 933.32 271.10 932.25 263.13 935.12 255.80 C 938.00 254.57 944.15 255.60 945.15 251.32 C 946.29 246.38 947.53 241.38 947.51 236.27 C 947.07 228.01 950.28 220.11 949.10 211.82 C 952.33 210.72 955.60 209.75 958.90 208.77 C 957.58 201.03 956.86 193.22 957.01 185.37 M 945.17 358.80 C 943.89 359.25 944.40 361.65 945.83 361.20 C 947.08 360.74 946.58 358.34 945.17 358.80 Z" />
</g>
<g id="#4f4f1fff">
<path fill="#4f4f1f" fill-opacity="0" d=" M 1227.70 279.73 C 1234.48 276.19 1241.46 272.39 1249.20 271.65 C 1253.77 272.86 1259.67 274.19 1260.98 279.38 C 1261.93 282.79 1263.21 286.09 1264.75 289.28 C 1270.47 288.70 1274.33 293.34 1277.78 297.23 C 1279.56 299.37 1278.38 302.33 1277.71 304.68 C 1271.51 321.96 1267.62 339.97 1261.82 357.37 C 1256.88 359.54 1252.65 362.97 1248.66 366.54 C 1246.85 365.70 1245.04 364.89 1243.25 364.08 C 1241.04 370.85 1236.57 376.55 1231.61 381.54 C 1228.63 385.24 1223.63 386.86 1221.50 391.30 C 1219.16 397.14 1212.40 399.32 1210.47 405.45 C 1209.89 405.33 1209.33 405.22 1208.78 405.11 C 1206.49 405.89 1204.14 406.40 1201.78 406.84 C 1198.46 412.34 1193.65 416.99 1187.90 419.88 C 1185.20 421.39 1182.27 422.76 1180.31 425.24 C 1175.45 433.00 1174.83 442.32 1171.96 450.83 C 1166.52 449.38 1161.60 446.33 1157.75 442.27 C 1153.09 437.23 1150.46 430.12 1143.90 427.10 C 1135.06 422.06 1124.41 423.49 1114.69 422.16 C 1101.46 420.47 1090.03 428.82 1078.04 432.80 C 1067.42 435.17 1063.39 446.38 1056.48 453.44 C 1053.64 457.49 1049.87 460.65 1044.95 461.62 C 1045.28 450.94 1046.74 440.34 1047.05 429.66 C 1042.82 432.16 1038.94 435.21 1034.63 437.56 C 1030.08 440.29 1024.89 442.14 1021.09 445.96 C 1018.83 449.59 1017.85 453.93 1015.31 457.38 C 1013.04 459.20 1010.56 460.68 1008.12 462.22 C 1008.14 456.90 1009.22 451.48 1008.16 446.20 C 1007.09 442.18 1004.87 438.61 1002.97 434.95 C 997.39 439.19 991.49 443.05 984.93 445.59 C 983.61 435.11 985.62 424.63 985.37 414.14 C 985.26 408.62 985.81 403.06 987.66 397.83 C 985.93 395.39 984.23 392.95 982.56 390.49 C 989.51 387.85 995.15 382.55 1002.41 380.74 C 1007.87 378.89 1012.95 376.11 1018.04 373.45 C 1016.02 369.12 1013.27 365.21 1010.21 361.57 C 1011.44 359.78 1012.29 357.45 1014.28 356.36 C 1018.06 355.26 1022.09 355.52 1026.01 355.33 C 1027.58 351.33 1027.48 345.46 1031.89 343.16 C 1036.38 340.81 1041.08 338.84 1045.72 336.80 C 1049.90 334.89 1054.60 337.94 1058.76 335.97 C 1061.55 333.30 1062.41 329.13 1065.37 326.57 C 1071.59 326.17 1077.61 328.58 1083.81 328.25 C 1091.24 325.97 1097.19 320.53 1104.27 317.45 C 1109.89 315.39 1116.32 317.85 1121.69 314.81 C 1128.60 311.07 1135.95 307.54 1141.12 301.45 C 1143.26 296.17 1145.48 289.71 1152.01 288.78 C 1156.71 287.07 1161.69 287.65 1166.34 289.19 C 1171.19 290.69 1175.02 286.45 1179.28 285.00 C 1183.25 284.44 1187.34 285.90 1191.24 284.47 C 1195.47 283.59 1198.22 279.82 1202.28 278.55 C 1204.25 278.70 1206.08 279.60 1207.93 280.30 C 1211.56 279.51 1215.21 278.69 1218.89 277.98 C 1221.65 279.01 1224.72 281.64 1227.70 279.73 Z" />
</g>
<g id="#cf4f1ffe">
<path fill="#cf4f1f" fill-opacity="0" d=" M 966.87 356.61 C 968.44 355.91 970.04 355.25 971.65 354.59 C 972.87 358.65 973.22 363.05 975.22 366.84 C 978.60 371.31 984.65 371.65 989.78 372.00 C 990.47 368.74 990.27 365.00 992.29 362.22 C 997.45 357.83 1004.32 361.07 1010.21 361.57 C 1013.27 365.21 1016.02 369.12 1018.04 373.45 C 1012.95 376.11 1007.87 378.89 1002.41 380.74 C 995.15 382.55 989.51 387.85 982.56 390.49 C 984.23 392.95 985.93 395.39 987.66 397.83 C 985.81 403.06 985.26 408.62 985.37 414.14 C 985.62 424.63 983.61 435.11 984.93 445.59 C 991.49 443.05 997.39 439.19 1002.97 434.95 C 1004.87 438.61 1007.09 442.18 1008.16 446.20 C 1009.22 451.48 1008.14 456.90 1008.12 462.22 C 1006.96 476.68 1007.40 491.31 1004.73 505.63 C 990.08 509.06 975.01 515.86 966.06 528.41 C 964.19 509.46 965.09 490.40 965.07 471.40 C 967.30 470.27 969.88 469.53 971.61 467.61 C 973.53 464.64 973.59 460.87 974.55 457.60 C 971.57 457.74 966.77 456.67 965.63 460.46 C 962.87 473.38 963.41 486.88 958.72 499.38 C 957.45 497.84 956.21 496.29 954.98 494.74 C 955.99 501.00 951.16 504.11 946.45 506.20 C 951.39 510.06 959.64 508.99 961.67 516.18 C 961.89 534.21 963.83 552.75 959.76 570.50 C 955.79 571.01 951.90 571.60 948.00 572.42 C 947.93 558.81 947.21 545.21 947.52 531.60 C 943.85 533.17 940.34 535.20 936.51 536.30 C 930.48 537.32 924.48 535.12 918.42 535.59 C 912.94 535.36 907.95 538.38 902.49 538.32 C 893.51 539.07 886.88 532.10 878.88 529.44 C 871.00 527.35 863.49 523.59 855.32 522.75 C 855.56 518.73 855.33 514.35 857.96 510.98 C 866.01 500.08 876.97 490.15 879.82 476.39 C 881.37 469.74 889.37 468.29 893.24 463.28 C 900.23 453.74 901.27 441.70 903.66 430.52 C 909.38 431.21 915.10 432.02 920.79 433.04 C 921.54 432.07 922.32 431.10 923.10 430.13 C 915.34 422.27 904.88 416.08 900.44 405.52 C 898.93 402.75 900.85 399.91 902.18 397.51 C 905.87 393.21 912.06 392.24 915.99 388.14 C 917.30 385.14 917.85 381.89 918.91 378.81 C 919.65 375.14 923.74 374.16 926.56 372.52 C 926.38 371.91 926.21 371.30 926.05 370.70 C 930.01 370.98 933.99 370.49 937.23 368.07 C 943.26 366.89 947.73 362.34 953.47 360.45 C 956.24 359.26 959.11 358.33 961.94 357.29 C 962.20 357.58 962.74 358.17 963.01 358.46 C 964.28 357.84 965.57 357.20 966.87 356.61 Z" />
</g>
<g id="#cf5020ff">
<path fill="#cf5020" fill-opacity="0" d=" M 945.17 358.80 C 946.58 358.34 947.08 360.74 945.83 361.20 C 944.40 361.65 943.89 359.25 945.17 358.80 Z" />
<path fill="#cf5020" fill-opacity="0" d=" M 693.15 931.40 C 697.14 930.58 692.29 935.38 693.15 931.40 Z" />
</g>
<g id="#0fcf9fff">
<path fill="#0fcf9f" fill-opacity="0" d=" M 870.77 418.94 C 884.02 416.65 893.33 406.73 902.18 397.51 C 900.85 399.91 898.93 402.75 900.44 405.52 C 904.88 416.08 915.34 422.27 923.10 430.13 C 922.32 431.10 921.54 432.07 920.79 433.04 C 915.10 432.02 909.38 431.21 903.66 430.52 C 901.27 441.70 900.23 453.74 893.24 463.28 C 889.37 468.29 881.37 469.74 879.82 476.39 C 876.97 490.15 866.01 500.08 857.96 510.98 C 855.33 514.35 855.56 518.73 855.32 522.75 C 854.16 534.40 845.65 543.57 837.91 551.68 C 835.11 554.65 832.60 557.90 829.44 560.51 C 830.49 561.51 831.53 562.52 832.58 563.54 C 830.15 565.17 827.67 566.70 825.15 568.18 C 825.16 569.27 825.18 570.36 825.17 571.46 C 811.27 573.43 797.27 575.16 783.90 579.65 C 782.01 575.71 780.14 571.77 778.27 567.86 C 772.73 568.88 767.14 568.04 761.74 566.73 C 757.43 564.64 753.45 567.40 749.53 568.81 C 749.12 574.23 742.47 578.28 745.01 583.85 C 746.47 587.79 748.85 591.33 751.56 594.52 C 757.11 599.32 764.76 598.76 771.42 600.74 C 762.21 608.32 753.20 616.11 744.62 624.40 C 744.58 626.16 744.55 627.93 744.51 629.71 C 738.52 628.13 732.45 626.67 726.24 626.35 C 719.69 626.04 713.39 624.02 706.92 623.14 C 702.32 622.42 698.07 624.81 693.79 626.06 C 686.31 626.20 680.07 621.25 672.96 619.60 C 674.27 613.99 675.34 608.21 678.26 603.16 C 683.69 592.48 688.40 581.45 693.85 570.78 C 696.26 567.06 698.17 562.66 701.94 560.07 C 706.10 557.37 710.81 555.63 714.94 552.86 C 718.61 549.87 720.02 545.21 721.72 540.98 C 722.10 542.68 722.50 544.39 722.92 546.10 C 723.64 546.04 725.07 545.90 725.79 545.83 C 730.16 539.80 734.62 533.83 738.89 527.72 C 737.31 521.75 735.82 515.76 734.09 509.83 C 736.84 507.87 739.62 505.92 742.46 504.08 C 745.83 506.89 749.87 509.69 754.60 508.50 C 761.42 507.90 764.08 500.70 767.84 496.01 C 773.03 497.07 778.58 499.03 783.71 496.76 C 792.92 492.84 800.17 485.63 808.95 480.92 C 816.60 476.88 822.40 470.38 829.16 465.12 C 835.02 460.21 841.90 455.34 843.88 447.43 C 846.97 437.88 856.61 433.51 864.27 428.18 C 867.81 426.30 869.13 422.33 870.77 418.94 Z" />
</g>
<g id="#4fcf1fff">
<path fill="#4fcf1f" fill-opacity="0" d=" M 855.32 522.75 C 863.49 523.59 871.00 527.35 878.88 529.44 C 886.88 532.10 893.51 539.07 902.49 538.32 C 907.95 538.38 912.94 535.36 918.42 535.59 C 924.48 535.12 930.48 537.32 936.51 536.30 C 940.34 535.20 943.85 533.17 947.52 531.60 C 947.21 545.21 947.93 558.81 948.00 572.42 C 951.90 571.60 955.79 571.01 959.76 570.50 C 960.61 579.40 961.37 588.34 963.42 597.06 C 964.52 611.99 963.85 627.02 963.98 642.00 C 963.89 644.82 964.03 648.39 961.05 649.85 C 957.02 652.10 953.66 655.28 951.30 659.25 C 944.68 657.21 941.13 651.09 937.03 646.01 C 931.28 648.13 924.88 649.21 919.85 652.80 C 916.39 659.53 913.76 666.73 910.44 673.57 C 907.86 670.03 905.25 666.52 903.06 662.74 C 897.22 664.32 892.17 667.72 887.84 671.87 C 884.89 669.38 882.14 666.43 878.52 664.95 C 873.57 665.23 869.07 668.17 863.96 667.71 C 858.47 668.76 853.66 665.89 849.54 662.75 C 849.46 660.33 849.32 657.86 849.25 655.45 C 842.85 650.68 838.29 643.97 833.20 637.94 C 829.33 630.53 822.09 625.85 818.08 618.57 C 817.20 619.81 816.34 621.07 815.48 622.33 C 811.41 619.94 806.46 618.56 803.38 614.81 C 803.31 610.63 807.28 607.98 809.71 605.08 C 809.24 602.66 805.80 598.84 808.96 597.21 C 811.47 595.56 814.33 594.50 816.73 592.66 C 822.60 587.31 825.90 579.48 825.17 571.46 C 825.18 570.36 825.16 569.27 825.15 568.18 C 827.67 566.70 830.15 565.17 832.58 563.54 C 831.53 562.52 830.49 561.51 829.44 560.51 C 832.60 557.90 835.11 554.65 837.91 551.68 C 845.65 543.57 854.16 534.40 855.32 522.75 Z" />
</g>
<g id="#8f0f5fff">
<path fill="#8f0f5f" fill-opacity="0" d=" M 749.53 568.81 C 753.45 567.40 757.43 564.64 761.74 566.73 C 767.14 568.04 772.73 568.88 778.27 567.86 C 780.14 571.77 782.01 575.71 783.90 579.65 C 797.27 575.16 811.27 573.43 825.17 571.46 C 825.90 579.48 822.60 587.31 816.73 592.66 C 814.33 594.50 811.47 595.56 808.96 597.21 C 805.80 598.84 809.24 602.66 809.71 605.08 C 807.28 607.98 803.31 610.63 803.38 614.81 C 806.46 618.56 811.41 619.94 815.48 622.33 C 807.95 632.50 804.48 645.42 795.44 654.50 C 790.03 657.82 784.44 652.05 779.31 650.53 C 772.18 662.07 759.78 668.15 749.91 676.86 C 745.83 681.51 740.84 685.17 735.38 688.02 C 734.49 683.81 735.46 679.15 733.74 675.16 C 731.34 672.12 727.18 671.56 723.75 670.26 C 717.73 668.30 712.27 664.89 706.16 663.19 C 700.52 662.47 694.79 665.13 689.17 663.88 C 686.22 651.06 693.69 638.92 693.79 626.06 C 698.07 624.81 702.32 622.42 706.92 623.14 C 713.39 624.02 719.69 626.04 726.24 626.35 C 732.45 626.67 738.52 628.13 744.51 629.71 C 744.55 627.93 744.58 626.16 744.62 624.40 C 753.20 616.11 762.21 608.32 771.42 600.74 C 764.76 598.76 757.11 599.32 751.56 594.52 C 748.85 591.33 746.47 587.79 745.01 583.85 C 742.47 578.28 749.12 574.23 749.53 568.81 Z" />
</g>
<g id="#4fcf9fff">
<path fill="#4fcf9f" fill-opacity="0" d=" M 815.48 622.33 C 816.34 621.07 817.20 619.81 818.08 618.57 C 822.09 625.85 829.33 630.53 833.20 637.94 C 838.29 643.97 842.85 650.68 849.25 655.45 C 849.32 657.86 849.46 660.33 849.54 662.75 C 841.63 668.66 835.52 676.73 826.99 681.81 C 821.44 685.29 815.63 688.43 810.62 692.69 C 805.24 697.29 802.80 704.68 796.59 708.39 C 793.05 710.86 788.65 711.71 785.20 714.30 C 782.58 716.60 781.64 720.09 780.02 723.07 C 776.96 729.47 770.57 734.40 763.43 735.06 C 757.11 735.48 751.05 737.22 744.94 738.69 C 745.13 735.82 745.57 732.87 744.86 730.04 C 738.82 728.09 732.30 727.99 726.53 725.13 C 728.46 720.51 729.02 715.24 732.17 711.18 C 734.25 708.09 737.40 705.13 737.17 701.10 C 736.88 696.70 735.67 692.42 735.38 688.02 C 740.84 685.17 745.83 681.51 749.91 676.86 C 759.78 668.15 772.18 662.07 779.31 650.53 C 784.44 652.05 790.03 657.82 795.44 654.50 C 804.48 645.42 807.95 632.50 815.48 622.33 Z" />
</g>
<g id="#4f4f9fff">
<path fill="#4f4f9f" fill-opacity="0" d=" M 672.96 619.60 C 680.07 621.25 686.31 626.20 693.79 626.06 C 693.69 638.92 686.22 651.06 689.17 663.88 C 694.79 665.13 700.52 662.47 706.16 663.19 C 712.27 664.89 717.73 668.30 723.75 670.26 C 727.18 671.56 731.34 672.12 733.74 675.16 C 735.46 679.15 734.49 683.81 735.38 688.02 C 735.67 692.42 736.88 696.70 737.17 701.10 C 737.40 705.13 734.25 708.09 732.17 711.18 C 729.02 715.24 728.46 720.51 726.53 725.13 C 724.05 728.83 721.09 732.27 719.41 736.44 C 714.96 747.33 715.36 759.34 712.36 770.60 C 702.20 777.71 690.92 783.94 678.38 785.29 C 672.07 785.99 665.90 787.55 659.97 789.79 C 662.34 773.28 661.78 756.59 662.68 739.99 C 663.55 722.82 660.97 705.73 661.58 688.57 C 662.31 673.17 661.48 657.46 665.42 642.41 C 667.18 634.58 670.41 627.18 672.96 619.60 Z" />
</g>
<g id="#0f8f5fff">
<path fill="#0f8f5f" fill-opacity="0" d=" M 1056.12 658.00 C 1056.60 653.56 1061.57 651.93 1065.21 650.80 C 1069.21 651.05 1073.05 652.47 1077.08 652.74 C 1077.36 656.86 1076.39 661.44 1078.94 665.01 C 1081.84 669.68 1085.76 673.55 1090.08 676.93 C 1095.01 680.79 1095.25 687.93 1094.70 693.68 C 1092.57 706.98 1089.74 720.16 1086.81 733.32 C 1083.05 729.59 1079.65 725.35 1074.73 723.05 C 1068.61 719.74 1065.46 713.37 1062.43 707.45 C 1060.15 702.82 1055.76 699.97 1051.07 698.29 C 1052.46 684.82 1054.41 671.42 1056.12 658.00 Z" />
<path fill="#0f8f5f" fill-opacity="0" d=" M 1123.89 677.77 C 1134.40 684.00 1144.44 691.14 1152.71 700.23 C 1149.03 714.00 1145.26 727.74 1141.57 741.50 C 1133.52 737.03 1125.98 731.71 1118.34 726.60 C 1115.39 724.72 1113.60 721.07 1114.55 717.62 C 1117.56 704.31 1120.81 691.06 1123.89 677.77 Z" />
</g>
<g id="#cfcf9ffe">
<path fill="#cfcf9f" fill-opacity="0" d=" M 826.99 681.81 C 835.52 676.73 841.63 668.66 849.54 662.75 C 853.66 665.89 858.47 668.76 863.96 667.71 C 869.07 668.17 873.57 665.23 878.52 664.95 C 882.14 666.43 884.89 669.38 887.84 671.87 C 892.17 667.72 897.22 664.32 903.06 662.74 C 905.25 666.52 907.86 670.03 910.44 673.57 C 913.20 678.03 917.11 682.35 916.67 688.03 C 917.42 702.10 919.57 716.22 918.04 730.31 C 912.08 734.40 906.79 739.37 901.69 744.46 C 896.01 744.06 890.37 744.62 884.83 745.85 C 883.54 743.52 882.32 741.16 881.20 738.76 C 868.81 738.70 858.21 746.42 849.42 754.39 C 844.36 758.94 837.49 762.21 834.62 768.73 C 832.17 774.12 828.90 779.62 829.62 785.83 C 830.34 800.14 832.13 814.37 833.02 828.67 C 827.16 825.57 821.88 821.53 816.27 818.05 C 811.36 820.90 806.17 823.29 800.67 824.77 C 791.92 827.29 785.40 833.78 778.69 839.55 C 777.18 835.74 775.69 831.91 773.68 828.35 C 774.41 833.23 776.64 838.60 774.38 843.37 C 772.03 847.95 773.21 854.00 768.49 857.31 C 769.11 863.63 770.13 870.04 768.99 876.39 C 764.11 878.85 761.44 883.70 757.92 887.62 C 756.80 899.18 745.81 905.09 740.00 914.04 C 736.43 919.87 729.80 922.55 723.74 925.03 C 720.13 926.33 719.28 930.68 717.23 933.51 C 715.58 930.15 713.74 926.87 711.26 924.07 C 712.76 927.67 714.74 931.08 717.24 934.10 L 718.05 935.17 C 717.17 935.24 715.42 935.38 714.54 935.46 C 713.29 932.31 712.11 929.12 710.96 925.96 C 713.36 920.33 708.71 915.24 704.09 912.68 C 705.71 915.53 707.61 918.22 709.38 920.99 C 707.60 919.93 705.83 918.86 704.06 917.82 C 705.05 919.79 706.06 921.76 707.07 923.74 C 707.68 923.21 708.30 922.71 708.93 922.21 C 710.38 926.26 711.89 930.32 713.87 934.20 C 710.11 938.36 706.72 942.96 702.07 946.19 C 701.74 945.00 701.20 942.76 699.57 943.21 C 698.66 944.52 700.24 945.87 701.15 946.71 C 699.52 947.84 697.93 949.02 696.36 950.22 C 690.33 940.69 684.82 930.83 679.52 920.88 C 677.06 922.41 674.60 923.95 672.11 925.43 C 677.87 935.50 684.07 945.32 690.12 955.23 C 689.73 955.54 688.93 956.17 688.54 956.49 C 681.75 947.28 675.65 937.59 670.60 927.32 C 669.79 927.99 668.99 928.67 668.21 929.37 C 671.94 923.95 673.65 917.27 678.53 912.63 C 683.12 908.19 688.95 905.04 692.59 899.63 C 702.27 887.56 705.90 872.31 711.39 858.21 C 716.83 848.89 720.92 838.45 728.82 830.82 C 732.18 827.18 737.19 824.86 739.32 820.25 C 740.28 814.56 741.52 808.30 739.26 802.72 C 735.41 794.72 725.34 793.25 718.64 788.34 C 712.80 784.65 711.76 776.95 712.36 770.60 C 715.36 759.34 714.96 747.33 719.41 736.44 C 721.09 732.27 724.05 728.83 726.53 725.13 C 732.30 727.99 738.82 728.09 744.86 730.04 C 745.57 732.87 745.13 735.82 744.94 738.69 C 751.05 737.22 757.11 735.48 763.43 735.06 C 770.57 734.40 776.96 729.47 780.02 723.07 C 781.64 720.09 782.58 716.60 785.20 714.30 C 788.65 711.71 793.05 710.86 796.59 708.39 C 802.80 704.68 805.24 697.29 810.62 692.69 C 815.63 688.43 821.44 685.29 826.99 681.81 M 752.66 781.16 C 751.64 782.83 754.54 784.19 755.50 782.68 C 756.56 780.97 753.60 779.63 752.66 781.16 M 766.71 789.14 C 766.08 790.54 765.46 791.95 764.85 793.38 C 766.85 793.56 768.85 793.71 770.86 793.88 C 769.59 792.19 768.22 790.60 766.71 789.14 M 717.40 890.15 C 716.96 891.54 717.44 892.02 718.85 891.60 C 719.28 890.18 718.80 889.70 717.40 890.15 M 718.84 893.43 C 719.99 896.46 721.77 899.21 723.98 901.59 C 722.85 898.53 721.16 895.72 718.84 893.43 M 697.56 904.39 C 699.02 908.20 700.85 911.87 703.12 915.28 C 702.17 911.79 700.90 908.40 699.75 904.98 C 701.71 907.56 703.70 910.12 705.92 912.49 C 704.80 909.29 703.48 906.17 702.15 903.07 C 700.62 903.52 699.08 903.95 697.56 904.39 M 729.40 914.15 C 728.96 915.54 729.44 916.02 730.85 915.60 C 731.28 914.18 730.79 913.70 729.40 914.15 M 685.34 916.31 C 686.16 919.29 686.69 922.54 688.95 924.86 C 688.21 921.83 687.03 918.93 685.34 916.31 M 689.40 925.15 C 688.96 926.54 689.44 927.02 690.85 926.60 C 691.28 925.18 690.80 924.70 689.40 925.15 M 684.68 926.47 C 683.63 927.56 685.14 930.01 686.59 929.26 C 687.67 928.14 686.14 925.65 684.68 926.47 M 691.20 928.39 C 689.55 928.77 690.09 931.69 691.78 931.35 C 693.37 930.88 692.97 927.99 691.20 928.39 M 693.15 931.40 C 692.29 935.38 697.14 930.58 693.15 931.40 M 695.22 934.27 C 693.55 934.73 694.61 937.20 696.12 936.73 C 697.76 936.30 696.70 933.73 695.22 934.27 M 690.27 935.54 C 689.12 936.40 690.58 938.37 691.73 937.46 C 692.86 936.57 691.40 934.61 690.27 935.54 M 696.61 938.41 C 695.49 939.43 697.14 941.56 698.39 940.59 C 699.50 939.55 697.84 937.42 696.61 938.41 M 692.27 939.54 C 691.12 940.40 692.58 942.37 693.73 941.46 C 694.86 940.57 693.40 938.61 692.27 939.54 Z" />
</g>
<g id="#cfcf1fff">
<path fill="#cfcf1f" fill-opacity="0" d=" M 678.38 785.29 C 690.92 783.94 702.20 777.71 712.36 770.60 C 711.76 776.95 712.80 784.65 718.64 788.34 C 725.34 793.25 735.41 794.72 739.26 802.72 C 741.52 808.30 740.28 814.56 739.32 820.25 C 737.19 824.86 732.18 827.18 728.82 830.82 C 720.92 838.45 716.83 848.89 711.39 858.21 C 705.90 872.31 702.27 887.56 692.59 899.63 C 688.95 905.04 683.12 908.19 678.53 912.63 C 673.65 917.27 671.94 923.95 668.21 929.37 C 665.94 931.40 663.53 933.27 661.17 935.19 C 663.76 931.43 666.01 927.37 667.15 922.93 C 667.53 921.72 667.08 921.04 665.81 920.90 C 665.51 914.14 660.77 908.64 660.04 902.01 C 659.05 886.43 664.13 871.42 664.87 855.94 C 668.29 833.70 659.38 811.98 659.97 789.79 C 665.90 787.55 672.07 785.99 678.38 785.29 Z" />
</g>
<g id="#0f0f5ffe">
<path fill="#0f0f5f" fill-opacity="0" d=" M 752.66 781.16 C 753.60 779.63 756.56 780.97 755.50 782.68 C 754.54 784.19 751.64 782.83 752.66 781.16 Z" />
</g>
<g id="#cf4f9fff">
<path fill="#cf4f9f" fill-opacity="0" d=" M 766.71 789.14 C 768.22 790.60 769.59 792.19 770.86 793.88 C 768.85 793.71 766.85 793.56 764.85 793.38 C 765.46 791.95 766.08 790.54 766.71 789.14 Z" />
</g>
<g id="#cf7a4aff">
<path fill="#cf7a4a" fill-opacity="0" d=" M 717.40 890.15 C 718.80 889.70 719.28 890.18 718.85 891.60 C 717.44 892.02 716.96 891.54 717.40 890.15 Z" />
<path fill="#cf7a4a" fill-opacity="0" d=" M 729.40 914.15 C 730.79 913.70 731.28 914.18 730.85 915.60 C 729.44 916.02 728.96 915.54 729.40 914.15 Z" />
<path fill="#cf7a4a" fill-opacity="0" d=" M 689.40 925.15 C 690.80 924.70 691.28 925.18 690.85 926.60 C 689.44 927.02 688.96 926.54 689.40 925.15 Z" />
<path fill="#cf7a4a" fill-opacity="0" d=" M 684.68 926.47 C 686.14 925.65 687.67 928.14 686.59 929.26 C 685.14 930.01 683.63 927.56 684.68 926.47 Z" />
</g>
<g id="#cf6f3fff">
<path fill="#cf6f3f" fill-opacity="0" d=" M 718.84 893.43 C 721.16 895.72 722.85 898.53 723.98 901.59 C 721.77 899.21 719.99 896.46 718.84 893.43 Z" />
<path fill="#cf6f3f" fill-opacity="0" d=" M 690.27 935.54 C 691.40 934.61 692.86 936.57 691.73 937.46 C 690.58 938.37 689.12 936.40 690.27 935.54 Z" />
</g>
<g id="#cf5626ff">
<path fill="#cf5626" fill-opacity="0" d=" M 697.56 904.39 C 699.08 903.95 700.62 903.52 702.15 903.07 C 703.48 906.17 704.80 909.29 705.92 912.49 C 703.70 910.12 701.71 907.56 699.75 904.98 C 700.90 908.40 702.17 911.79 703.12 915.28 C 700.85 911.87 699.02 908.20 697.56 904.39 Z" />
</g>
<g id="#cf5829fe">
<path fill="#cf5829" fill-opacity="0" d=" M 704.09 912.68 C 708.71 915.24 713.36 920.33 710.96 925.96 C 712.11 929.12 713.29 932.31 714.54 935.46 C 714.37 935.14 714.04 934.51 713.87 934.20 C 711.89 930.32 710.38 926.26 708.93 922.21 C 708.30 922.71 707.68 923.21 707.07 923.74 C 706.06 921.76 705.05 919.79 704.06 917.82 C 705.83 918.86 707.60 919.93 709.38 920.99 C 707.61 918.22 705.71 915.53 704.09 912.68 Z" />
</g>
<g id="#cf6333ff">
<path fill="#cf6333" fill-opacity="0" d=" M 685.34 916.31 C 687.03 918.93 688.21 921.83 688.95 924.86 C 686.69 922.54 686.16 919.29 685.34 916.31 Z" />
</g>
<g id="#cf7a20ff">
<path fill="#cf7a20" fill-opacity="0" d=" M 665.81 920.90 C 667.08 921.04 667.53 921.72 667.15 922.93 C 665.59 922.95 665.15 922.27 665.81 920.90 Z" />
</g>
<g id="#cf4f1fff">
<path fill="#cf4f1f" fill-opacity="0" d=" M 672.11 925.43 C 674.60 923.95 677.06 922.41 679.52 920.88 C 684.82 930.83 690.33 940.69 696.36 950.22 C 694.34 951.97 692.26 953.63 690.12 955.23 C 684.07 945.32 677.87 935.50 672.11 925.43 M 676.15 925.68 C 674.95 926.46 676.23 928.56 677.46 927.71 C 678.62 926.92 677.34 924.83 676.15 925.68 M 679.12 930.53 C 676.82 933.96 683.05 931.30 679.12 930.53 M 685.16 940.16 C 684.24 944.16 689.16 939.24 685.16 940.16 M 686.99 943.76 C 687.72 945.58 688.43 947.40 689.12 949.25 C 689.77 948.47 690.43 947.71 691.09 946.94 C 689.68 945.94 688.33 944.84 686.99 943.76 Z" />
<path fill="#cf4f1f" fill-opacity="0" d=" M 691.20 928.39 C 692.97 927.99 693.37 930.88 691.78 931.35 C 690.09 931.69 689.55 928.77 691.20 928.39 Z" />
<path fill="#cf4f1f" fill-opacity="0" d=" M 696.61 938.41 C 697.84 937.42 699.50 939.55 698.39 940.59 C 697.14 941.56 695.49 939.43 696.61 938.41 Z" />
</g>
<g id="#cfcf9fff">
<path fill="#cfcf9f" fill-opacity="0" d=" M 676.15 925.68 C 677.34 924.83 678.62 926.92 677.46 927.71 C 676.23 928.56 674.95 926.46 676.15 925.68 Z" />
<path fill="#cfcf9f" fill-opacity="0" d=" M 679.12 930.53 C 683.05 931.30 676.82 933.96 679.12 930.53 Z" />
<path fill="#cfcf9f" fill-opacity="0" d=" M 677.27 942.54 C 678.40 941.61 679.86 943.57 678.73 944.46 C 677.58 945.37 676.12 943.40 677.27 942.54 Z" />
</g>
<g id="#cf5e2eff">
<path fill="#cf5e2e" fill-opacity="0" d=" M 711.26 924.07 C 713.74 926.87 715.58 930.15 717.23 933.51 L 717.84 934.82 L 717.24 934.10 C 714.74 931.08 712.76 927.67 711.26 924.07 Z" />
</g>
<g id="#cf5221ff">
<path fill="#cf5221" fill-opacity="0" d=" M 668.21 929.37 C 668.99 928.67 669.79 927.99 670.60 927.32 C 675.65 937.59 681.75 947.28 688.54 956.49 C 685.60 959.28 682.51 961.91 679.45 964.57 C 673.06 955.00 666.79 945.34 660.51 935.71 L 661.17 935.19 C 663.53 933.27 665.94 931.40 668.21 929.37 M 671.51 935.14 C 670.23 936.32 672.36 937.90 673.45 936.86 C 674.81 935.70 672.57 933.93 671.51 935.14 M 677.27 942.54 C 676.12 943.40 677.58 945.37 678.73 944.46 C 679.86 943.57 678.40 941.61 677.27 942.54 M 682.88 955.16 C 679.67 955.95 684.75 959.42 684.05 956.04 C 686.65 955.29 682.85 952.46 682.88 955.16 Z" />
</g>
<g id="#cf6939ff">
<path fill="#cf6939" fill-opacity="0" d=" M 695.22 934.27 C 696.70 933.73 697.76 936.30 696.12 936.73 C 694.61 937.20 693.55 934.73 695.22 934.27 Z" />
</g>
<g id="#cfb585ff">
<path fill="#cfb585" fill-opacity="0" d=" M 671.51 935.14 C 672.57 933.93 674.81 935.70 673.45 936.86 C 672.36 937.90 670.23 936.32 671.51 935.14 Z" />
</g>
<g id="#cf4f20ff">
<path fill="#cf4f20" fill-opacity="0" d=" M 692.27 939.54 C 693.40 938.61 694.86 940.57 693.73 941.46 C 692.58 942.37 691.12 940.40 692.27 939.54 Z" />
</g>
<g id="#cfa474ff">
<path fill="#cfa474" fill-opacity="0" d=" M 685.16 940.16 C 689.16 939.24 684.24 944.16 685.16 940.16 Z" />
</g>
<g id="#cf6535ff">
<path fill="#cf6535" fill-opacity="0" d=" M 699.57 943.21 C 701.20 942.76 701.74 945.00 702.07 946.19 C 701.84 946.32 701.38 946.58 701.15 946.71 C 700.24 945.87 698.66 944.52 699.57 943.21 Z" />
</g>
<g id="#cfa475ff">
<path fill="#cfa475" fill-opacity="0" d=" M 686.99 943.76 C 688.33 944.84 689.68 945.94 691.09 946.94 C 690.43 947.71 689.77 948.47 689.12 949.25 C 688.43 947.40 687.72 945.58 686.99 943.76 Z" />
</g>
<g id="#cfa575ff">
<path fill="#cfa575" fill-opacity="0" d=" M 682.88 955.16 C 682.85 952.46 686.65 955.29 684.05 956.04 C 683.76 955.82 683.17 955.38 682.88 955.16 Z" />
</g>
<g id="#cfcf20ff">
<path fill="#cfcf20" fill-opacity="0" d=" M 684.05 956.04 C 684.75 959.42 679.67 955.95 682.88 955.16 C 683.17 955.38 683.76 955.82 684.05 956.04 Z" />
</g>
</svg>
