<?xml version="1.0" encoding="UTF-8" ?>
<!DOCTYPE svg PUBLIC "-//W3C//DTD SVG 1.1//EN" "http://www.w3.org/Graphics/SVG/1.1/DTD/svg11.dtd">
<svg width="1920pt" height="1080pt" viewBox="0 0 1920 1080" version="1.1" xmlns="http://www.w3.org/2000/svg">
<g id="#ef8f00ff">
<path fill="#ef8f00" fill-opacity="0" d=" M 806.46 183.98 C 808.95 184.16 811.20 185.54 813.65 186.01 C 818.57 188.08 822.98 184.36 827.81 184.52 C 831.45 184.99 831.96 189.47 833.59 192.09 C 838.74 191.83 844.15 192.20 849.03 190.17 C 854.08 188.13 859.41 190.01 864.43 191.14 C 864.40 201.25 865.81 211.28 867.25 221.26 C 864.34 221.02 860.69 219.75 858.49 222.38 C 853.29 227.91 848.10 233.95 846.35 241.52 C 843.48 241.59 840.62 241.68 837.77 241.84 C 837.58 248.81 838.02 255.76 838.45 262.71 C 829.40 266.01 819.59 265.92 810.11 266.47 C 806.14 266.47 799.78 267.55 798.68 262.36 C 797.57 253.20 802.61 244.69 803.36 235.70 C 803.59 233.25 802.13 231.00 799.64 230.58 C 793.69 229.11 787.28 228.64 782.26 224.73 C 785.54 224.91 788.82 225.20 792.12 225.52 C 791.05 215.62 789.31 205.03 793.74 195.69 C 796.55 190.60 800.69 185.69 806.46 183.98 Z" />
</g>
<g id="#afcf7fff">
<path fill="#afcf7f" fill-opacity="0" d=" M 923.13 191.73 C 927.97 188.84 932.09 184.03 937.99 183.36 C 941.79 183.44 943.98 186.82 945.47 189.86 C 961.54 192.09 977.89 191.09 993.87 194.01 C 1000.23 194.76 1006.89 193.72 1013.08 195.73 C 1020.42 197.89 1026.02 203.44 1032.85 206.69 C 1031.96 219.22 1030.94 231.75 1030.31 244.30 L 1029.77 243.97 C 1025.27 241.47 1021.18 236.19 1015.34 239.22 C 1011.54 243.15 1011.49 249.51 1007.21 253.24 C 1004.06 257.86 998.32 253.85 994.83 252.14 C 991.84 251.21 991.39 247.99 990.49 245.50 C 987.07 244.09 983.87 241.73 980.10 241.41 C 973.25 242.45 968.24 247.78 965.68 253.90 C 973.90 259.64 984.74 258.39 993.28 263.51 C 996.92 265.65 1003.27 267.94 1002.32 273.19 C 1001.80 277.53 996.79 277.11 993.67 278.16 C 988.35 279.29 986.14 285.02 981.55 287.35 C 979.42 287.89 977.23 287.03 975.18 286.54 C 968.96 280.83 960.79 279.83 952.78 279.11 C 952.22 271.04 954.62 261.98 950.29 254.70 C 946.90 249.85 940.71 253.92 937.76 257.37 C 936.26 258.75 935.32 261.50 932.92 261.31 C 928.70 261.28 924.88 259.18 921.00 257.79 C 921.85 246.08 922.29 234.25 920.50 222.59 C 919.91 219.86 919.35 216.78 917.14 214.86 C 913.99 212.76 910.58 211.17 907.13 209.66 C 907.42 205.19 906.28 200.08 909.41 196.38 C 913.47 193.56 918.60 193.40 923.13 191.73 Z" />
</g>
<g id="#2f8fbfff">
<path fill="#2f8fbf" fill-opacity="0" d=" M 765.26 216.09 C 768.69 214.06 771.86 211.55 774.98 209.06 C 775.74 213.27 776.49 217.49 777.23 221.71 C 778.90 222.71 780.59 223.69 782.26 224.73 C 787.28 228.64 793.69 229.11 799.64 230.58 C 802.13 231.00 803.59 233.25 803.36 235.70 C 802.61 244.69 797.57 253.20 798.68 262.36 C 799.78 267.55 806.14 266.47 810.11 266.47 C 810.99 267.32 811.88 268.18 812.78 269.04 C 810.73 281.55 808.64 294.05 805.93 306.44 C 804.46 314.06 803.02 321.81 803.79 329.60 C 804.15 334.33 805.24 338.98 805.81 343.69 C 801.18 344.47 796.18 347.27 791.74 344.32 C 784.13 339.78 775.09 334.37 773.64 324.82 C 772.24 316.69 771.07 308.50 768.81 300.54 C 767.05 303.21 765.20 305.85 763.86 308.75 C 762.66 312.71 763.14 317.04 761.69 320.94 C 759.47 325.94 753.21 327.94 751.71 333.39 C 749.57 340.39 747.21 347.32 745.21 354.36 C 744.77 354.53 743.88 354.87 743.44 355.05 C 742.72 350.58 741.81 346.14 740.78 341.74 C 734.86 342.53 728.87 343.05 723.11 344.67 C 712.84 302.63 701.12 260.96 690.74 218.95 C 702.06 228.29 717.36 230.21 731.51 228.65 C 738.25 228.01 743.36 223.29 748.78 219.80 C 753.65 216.58 759.89 217.77 765.26 216.09 M 748.64 221.23 C 755.05 226.72 762.83 230.29 769.23 235.79 C 773.74 239.98 780.67 237.96 786.21 238.89 C 784.55 234.22 783.00 229.23 779.22 225.79 C 776.18 223.12 775.14 219.05 774.34 215.26 C 766.45 219.59 757.42 220.36 748.64 221.23 Z" />
</g>
<g id="#af8f7fff">
<path fill="#af8f7f" fill-opacity="0" d=" M 897.72 215.68 C 900.33 212.94 903.80 211.34 907.13 209.66 C 910.58 211.17 913.99 212.76 917.14 214.86 C 919.35 216.78 919.91 219.86 920.50 222.59 C 922.29 234.25 921.85 246.08 921.00 257.79 C 914.38 261.63 907.72 265.70 902.59 271.48 C 899.84 274.45 897.99 278.21 894.79 280.77 C 893.32 280.56 891.93 280.02 890.58 279.45 C 881.51 270.19 868.26 267.68 855.84 267.34 C 849.70 267.26 844.02 265.01 838.45 262.71 C 838.02 255.76 837.58 248.81 837.77 241.84 C 840.62 241.68 843.48 241.59 846.35 241.52 C 848.10 233.95 853.29 227.91 858.49 222.38 C 860.69 219.75 864.34 221.02 867.25 221.26 C 874.46 222.44 882.15 224.80 889.32 222.17 C 892.77 220.98 895.25 218.22 897.72 215.68 Z" />
</g>
<g id="#af8fbfff">
<path fill="#af8fbf" fill-opacity="0" d=" M 748.64 221.23 C 757.42 220.36 766.45 219.59 774.34 215.26 C 775.14 219.05 776.18 223.12 779.22 225.79 C 783.00 229.23 784.55 234.22 786.21 238.89 C 780.67 237.96 773.74 239.98 769.23 235.79 C 762.83 230.29 755.05 226.72 748.64 221.23 Z" />
</g>
<g id="#efcf00ff">
<path fill="#efcf00" fill-opacity="0" d=" M 1015.34 239.22 C 1021.18 236.19 1025.27 241.47 1029.77 243.97 C 1037.25 245.87 1045.94 244.69 1052.57 249.51 C 1054.70 251.84 1054.43 255.36 1056.11 257.95 C 1058.32 260.73 1061.67 262.42 1063.69 265.38 C 1064.19 271.13 1063.16 276.91 1063.60 282.66 C 1066.06 286.06 1069.28 288.87 1071.77 292.28 C 1075.11 297.60 1082.10 295.05 1087.19 294.94 C 1081.64 299.42 1076.18 303.99 1070.87 308.75 C 1064.70 306.97 1058.83 302.90 1052.24 303.43 C 1047.50 306.14 1045.07 311.65 1040.43 314.53 C 1037.20 314.84 1034.05 314.76 1030.91 314.09 C 1017.99 311.22 1004.68 310.15 991.47 310.61 C 981.38 311.11 971.38 312.58 961.29 313.02 C 960.90 311.16 960.43 309.28 960.48 307.38 C 962.34 304.62 965.38 302.99 967.61 300.57 C 971.34 296.64 972.69 291.23 975.18 286.54 C 977.23 287.03 979.42 287.89 981.55 287.35 C 986.14 285.02 988.35 279.29 993.67 278.16 C 996.79 277.11 1001.80 277.53 1002.32 273.19 C 1003.27 267.94 996.92 265.65 993.28 263.51 C 984.74 258.39 973.90 259.64 965.68 253.90 C 968.24 247.78 973.25 242.45 980.10 241.41 C 983.87 241.73 987.07 244.09 990.49 245.50 C 991.39 247.99 991.84 251.21 994.83 252.14 C 998.32 253.85 1004.06 257.86 1007.21 253.24 C 1011.49 249.51 1011.54 243.15 1015.34 239.22 Z" />
</g>
<g id="#2f4f7fff">
<path fill="#2f4f7f" fill-opacity="0" d=" M 937.76 257.37 C 940.71 253.92 946.90 249.85 950.29 254.70 C 954.62 261.98 952.22 271.04 952.78 279.11 C 960.79 279.83 968.96 280.83 975.18 286.54 C 972.69 291.23 971.34 296.64 967.61 300.57 C 965.38 302.99 962.34 304.62 960.48 307.38 C 960.43 309.28 960.90 311.16 961.29 313.02 C 957.09 313.32 953.09 314.69 949.17 316.10 C 948.62 321.07 949.54 326.56 947.08 331.14 C 944.59 334.22 940.36 335.02 937.42 337.57 C 935.41 339.75 935.17 342.89 934.87 345.70 C 927.10 344.51 919.20 344.17 911.55 342.35 C 907.62 341.39 905.18 336.91 906.31 332.96 C 906.01 325.29 908.94 317.89 908.51 310.24 C 908.02 305.15 902.85 302.82 900.08 299.11 C 896.98 292.54 894.82 285.45 890.58 279.45 C 891.93 280.02 893.32 280.56 894.79 280.77 C 897.99 278.21 899.84 274.45 902.59 271.48 C 907.72 265.70 914.38 261.63 921.00 257.79 C 924.88 259.18 928.70 261.28 932.92 261.31 C 935.32 261.50 936.26 258.75 937.76 257.37 Z" />
</g>
<g id="#af0f3fff">
<path fill="#af0f3f" fill-opacity="0" d=" M 838.45 262.71 C 844.02 265.01 849.70 267.26 855.84 267.34 C 868.26 267.68 881.51 270.19 890.58 279.45 C 894.82 285.45 896.98 292.54 900.08 299.11 C 902.85 302.82 908.02 305.15 908.51 310.24 C 908.94 317.89 906.01 325.29 906.31 332.96 C 905.18 336.91 907.62 341.39 911.55 342.35 C 919.20 344.17 927.10 344.51 934.87 345.70 C 936.00 352.76 937.48 359.76 939.26 366.68 C 934.69 367.26 929.92 367.16 925.56 368.72 C 922.15 370.91 920.61 374.91 918.56 378.23 C 913.40 377.60 908.43 376.07 903.66 374.04 C 902.99 369.74 903.76 364.12 899.56 361.48 C 894.32 359.91 888.78 359.96 883.57 358.35 C 879.46 357.14 878.08 352.54 874.81 350.22 C 871.77 348.52 868.13 348.36 864.80 347.70 C 861.74 344.19 857.85 341.48 853.34 340.16 C 848.51 338.26 848.21 331.40 843.18 329.72 C 839.11 328.38 834.01 327.36 830.41 330.39 C 826.09 334.17 825.31 340.41 821.61 344.67 C 819.61 346.66 816.55 346.53 813.95 346.80 C 811.12 346.09 808.42 344.96 805.81 343.69 C 805.24 338.98 804.15 334.33 803.79 329.60 C 803.02 321.81 804.46 314.06 805.93 306.44 C 808.64 294.05 810.73 281.55 812.78 269.04 C 811.88 268.18 810.99 267.32 810.11 266.47 C 819.59 265.92 829.40 266.01 838.45 262.71 Z" />
</g>
<g id="#6f0fbfff">
<path fill="#6f0fbf" fill-opacity="0" d=" M 1121.05 293.52 C 1125.73 293.63 1130.39 294.30 1134.95 295.39 C 1137.36 302.09 1144.68 304.81 1151.22 305.35 C 1160.74 305.24 1167.44 296.67 1176.71 296.10 C 1181.95 299.86 1178.94 307.20 1178.54 312.40 C 1177.80 316.13 1179.16 320.46 1182.70 322.33 C 1189.13 327.68 1199.55 328.33 1202.41 337.37 C 1205.19 344.39 1208.87 351.03 1214.49 356.24 C 1213.34 361.26 1212.49 366.38 1212.51 371.55 C 1214.82 378.47 1224.46 377.11 1227.78 383.08 C 1229.86 386.92 1232.97 390.21 1234.52 394.32 C 1234.61 399.12 1232.22 403.59 1231.12 408.16 C 1225.07 426.57 1219.61 445.19 1212.90 463.36 C 1210.05 463.42 1207.02 462.99 1204.32 464.09 C 1202.26 467.38 1201.79 471.41 1200.67 475.08 L 1200.14 474.61 C 1197.10 471.86 1193.46 469.93 1190.07 467.69 C 1186.07 462.49 1184.55 455.78 1180.38 450.70 C 1177.20 448.05 1172.93 447.38 1169.32 445.52 C 1173.15 435.30 1175.27 424.55 1177.85 413.98 C 1172.89 410.21 1166.55 407.55 1164.16 401.30 C 1169.98 400.06 1175.99 399.43 1181.79 398.03 C 1185.62 397.37 1186.25 392.57 1185.72 389.42 C 1183.49 387.07 1180.04 386.23 1178.01 383.73 C 1177.03 380.55 1176.15 377.31 1176.05 374.00 C 1177.52 373.53 1180.47 372.61 1181.94 372.15 C 1178.47 360.43 1166.41 355.01 1156.57 349.42 C 1151.22 346.06 1144.97 343.20 1141.53 337.68 C 1140.29 331.12 1140.82 324.32 1139.29 317.78 C 1127.32 318.96 1115.58 321.60 1103.66 323.14 C 1103.27 320.23 1101.04 316.34 1104.06 314.15 C 1111.46 308.95 1124.56 313.90 1127.71 303.16 C 1126.15 299.54 1123.42 296.61 1121.05 293.52 Z" />
</g>
<g id="#af4f00ff">
<path fill="#af4f00" fill-opacity="0" d=" M 1087.19 294.94 C 1098.09 299.45 1110.36 297.94 1121.05 293.52 C 1123.42 296.61 1126.15 299.54 1127.71 303.16 C 1124.56 313.90 1111.46 308.95 1104.06 314.15 C 1101.04 316.34 1103.27 320.23 1103.66 323.14 C 1115.58 321.60 1127.32 318.96 1139.29 317.78 C 1140.82 324.32 1140.29 331.12 1141.53 337.68 C 1144.97 343.20 1151.22 346.06 1156.57 349.42 C 1166.41 355.01 1178.47 360.43 1181.94 372.15 C 1180.47 372.61 1177.52 373.53 1176.05 374.00 C 1176.15 377.31 1177.03 380.55 1178.01 383.73 C 1180.04 386.23 1183.49 387.07 1185.72 389.42 C 1186.25 392.57 1185.62 397.37 1181.79 398.03 C 1175.99 399.43 1169.98 400.06 1164.16 401.30 C 1166.55 407.55 1172.89 410.21 1177.85 413.98 C 1175.27 424.55 1173.15 435.30 1169.32 445.52 C 1166.38 439.75 1166.98 433.02 1166.09 426.78 C 1166.21 421.44 1161.26 417.09 1156.17 416.73 C 1152.86 416.53 1149.72 416.51 1146.47 416.44 C 1145.84 419.18 1145.11 421.87 1144.57 424.64 C 1140.76 424.50 1136.95 424.55 1133.14 424.67 C 1132.74 427.46 1132.85 430.44 1132.66 433.29 C 1126.21 433.11 1119.90 434.30 1113.62 435.55 C 1115.41 432.22 1117.31 428.95 1118.79 425.46 C 1113.99 422.11 1107.93 419.50 1105.35 413.90 C 1101.74 399.50 1100.50 384.50 1095.80 370.36 C 1094.67 367.44 1093.62 362.21 1089.53 362.10 C 1080.99 361.45 1070.81 361.34 1064.80 354.32 C 1063.55 350.02 1064.92 345.43 1065.03 341.03 C 1068.63 339.53 1072.21 337.96 1075.85 336.52 C 1073.00 327.51 1071.52 318.15 1070.87 308.75 C 1076.18 303.99 1081.64 299.42 1087.19 294.94 Z" />
</g>
<g id="#ef0f7fff">
<path fill="#ef0f7f" fill-opacity="0" d=" M 763.86 308.75 C 765.20 305.85 767.05 303.21 768.81 300.54 C 771.07 308.50 772.24 316.69 773.64 324.82 C 775.09 334.37 784.13 339.78 791.74 344.32 C 796.18 347.27 801.18 344.47 805.81 343.69 C 808.42 344.96 811.12 346.09 813.95 346.80 C 823.27 349.12 832.86 356.17 833.04 366.59 C 827.55 369.05 822.11 371.57 816.68 374.14 C 817.95 381.00 820.61 387.72 820.18 394.79 C 813.36 395.27 806.49 396.37 800.26 399.34 C 794.48 402.12 787.60 404.33 781.39 401.52 C 775.81 398.90 769.45 395.97 763.22 397.70 C 756.91 400.30 751.80 405.42 745.35 407.65 C 738.45 408.33 734.22 400.69 727.53 400.37 C 717.67 399.03 709.15 404.98 700.82 409.22 C 697.80 408.03 694.95 406.45 691.95 405.23 C 700.76 391.41 704.56 375.37 710.29 360.22 C 712.93 354.18 716.22 346.72 723.11 344.67 C 728.87 343.05 734.86 342.53 740.78 341.74 C 741.81 346.14 742.72 350.58 743.44 355.05 C 743.88 354.87 744.77 354.53 745.21 354.36 C 747.21 347.32 749.57 340.39 751.71 333.39 C 753.21 327.94 759.47 325.94 761.69 320.94 C 763.14 317.04 762.66 312.71 763.86 308.75 Z" />
</g>
<g id="#6f8f7fff">
<path fill="#6f8f7f" fill-opacity="0" d=" M 1040.43 314.53 C 1045.07 311.65 1047.50 306.14 1052.24 303.43 C 1058.83 302.90 1064.70 306.97 1070.87 308.75 C 1071.52 318.15 1073.00 327.51 1075.85 336.52 C 1072.21 337.96 1068.63 339.53 1065.03 341.03 C 1058.49 339.88 1051.81 337.53 1045.17 339.15 C 1042.15 342.75 1041.44 347.80 1038.03 351.17 C 1036.57 353.19 1033.17 356.03 1035.44 358.56 C 1037.50 361.27 1040.08 363.52 1042.67 365.71 C 1041.72 366.73 1040.77 367.76 1039.84 368.79 C 1033.42 367.20 1026.71 364.36 1020.04 366.22 C 1016.79 366.99 1013.51 368.09 1010.14 367.60 C 1004.68 366.76 999.15 367.67 993.80 368.82 C 986.00 369.47 979.79 374.32 974.91 380.03 C 971.77 377.14 970.34 373.05 968.70 369.24 C 962.29 368.13 959.34 374.81 954.05 376.70 C 950.01 377.29 946.02 375.82 942.07 375.20 C 941.01 372.40 940.04 369.57 939.26 366.68 C 937.48 359.76 936.00 352.76 934.87 345.70 C 935.17 342.89 935.41 339.75 937.42 337.57 C 940.36 335.02 944.59 334.22 947.08 331.14 C 949.54 326.56 948.62 321.07 949.17 316.10 C 953.09 314.69 957.09 313.32 961.29 313.02 C 971.38 312.58 981.38 311.11 991.47 310.61 C 1004.68 310.15 1017.99 311.22 1030.91 314.09 C 1034.05 314.76 1037.20 314.84 1040.43 314.53 Z" />
</g>
<g id="#ef0f3fff">
<path fill="#ef0f3f" fill-opacity="0" d=" M 830.41 330.39 C 834.01 327.36 839.11 328.38 843.18 329.72 C 848.21 331.40 848.51 338.26 853.34 340.16 C 857.85 341.48 861.74 344.19 864.80 347.70 C 868.13 348.36 871.77 348.52 874.81 350.22 C 878.08 352.54 879.46 357.14 883.57 358.35 C 888.78 359.96 894.32 359.91 899.56 361.48 C 903.76 364.12 902.99 369.74 903.66 374.04 C 908.43 376.07 913.40 377.60 918.56 378.23 C 920.61 374.91 922.15 370.91 925.56 368.72 C 929.92 367.16 934.69 367.26 939.26 366.68 C 940.04 369.57 941.01 372.40 942.07 375.20 C 941.20 377.66 940.22 380.06 939.46 382.55 C 937.60 387.23 938.91 394.06 933.89 396.94 C 930.73 399.11 927.45 401.12 924.12 403.01 C 914.95 405.61 906.18 396.84 897.30 400.03 C 896.41 403.83 896.69 407.78 895.92 411.60 C 886.41 408.08 876.32 406.99 866.29 406.12 C 867.07 401.56 868.45 397.13 869.52 392.63 C 865.53 391.09 861.80 388.45 857.44 388.24 C 851.45 387.16 846.00 390.24 840.95 392.97 C 834.76 397.14 827.09 394.05 820.18 394.79 C 820.61 387.72 817.95 381.00 816.68 374.14 C 822.11 371.57 827.55 369.05 833.04 366.59 C 832.86 356.17 823.27 349.12 813.95 346.80 C 816.55 346.53 819.61 346.66 821.61 344.67 C 825.31 340.41 826.09 334.17 830.41 330.39 Z" />
</g>
<g id="#af8f00ff">
<path fill="#af8f00" fill-opacity="0" d=" M 1045.17 339.15 C 1051.81 337.53 1058.49 339.88 1065.03 341.03 C 1064.92 345.43 1063.55 350.02 1064.80 354.32 C 1070.81 361.34 1080.99 361.45 1089.53 362.10 C 1093.62 362.21 1094.67 367.44 1095.80 370.36 C 1100.50 384.50 1101.74 399.50 1105.35 413.90 C 1107.93 419.50 1113.99 422.11 1118.79 425.46 C 1117.31 428.95 1115.41 432.22 1113.62 435.55 C 1112.14 438.45 1110.89 441.46 1109.75 444.51 C 1101.78 443.34 1091.82 443.69 1086.43 436.67 C 1078.86 437.65 1071.25 437.30 1063.66 436.84 C 1058.55 436.58 1053.45 436.64 1048.35 436.51 C 1045.18 436.35 1042.09 436.15 1038.98 435.96 C 1039.03 431.82 1039.09 427.72 1039.07 423.61 C 1043.05 422.93 1046.98 421.99 1050.90 421.01 C 1051.12 419.57 1051.56 416.69 1051.78 415.24 C 1048.70 413.70 1045.32 412.56 1042.61 410.44 C 1037.64 404.39 1031.12 399.92 1026.04 393.99 C 1022.90 395.91 1019.80 397.91 1016.75 399.94 C 1011.34 396.84 1006.01 393.65 1000.55 390.66 C 1001.08 387.52 1002.64 384.11 1001.10 381.01 C 999.18 376.66 996.26 372.86 993.80 368.82 C 999.15 367.67 1004.68 366.76 1010.14 367.60 C 1013.51 368.09 1016.79 366.99 1020.04 366.22 C 1026.71 364.36 1033.42 367.20 1039.84 368.79 C 1040.77 367.76 1041.72 366.73 1042.67 365.71 C 1040.08 363.52 1037.50 361.27 1035.44 358.56 C 1033.17 356.03 1036.57 353.19 1038.03 351.17 C 1041.44 347.80 1042.15 342.75 1045.17 339.15 M 1045.64 383.94 C 1047.54 386.63 1049.44 389.31 1051.30 392.03 C 1055.43 389.84 1059.42 387.16 1061.94 383.10 C 1056.72 380.52 1050.57 380.91 1045.64 383.94 Z" />
</g>
<g id="#cf4fbfff">
<path fill="#cf4fbf" fill-opacity="0" d=" M 954.05 376.70 C 959.34 374.81 962.29 368.13 968.70 369.24 C 970.34 373.05 971.77 377.14 974.91 380.03 C 979.79 374.32 986.00 369.47 993.80 368.82 C 996.26 372.86 999.18 376.66 1001.10 381.01 C 1002.64 384.11 1001.08 387.52 1000.55 390.66 C 1006.01 393.65 1011.34 396.84 1016.75 399.94 C 1019.80 397.91 1022.90 395.91 1026.04 393.99 C 1031.12 399.92 1037.64 404.39 1042.61 410.44 C 1045.32 412.56 1048.70 413.70 1051.78 415.24 C 1051.56 416.69 1051.12 419.57 1050.90 421.01 C 1046.98 421.99 1043.05 422.93 1039.07 423.61 C 1039.09 427.72 1039.03 431.82 1038.98 435.96 C 1042.09 436.15 1045.18 436.35 1048.35 436.51 C 1047.40 439.08 1046.41 441.64 1045.43 444.20 C 1041.92 444.44 1038.14 444.10 1035.02 446.02 C 1032.88 447.72 1031.47 450.06 1030.07 452.35 C 1024.68 451.46 1019.22 450.45 1013.73 450.95 C 1011.08 452.15 1011.52 455.81 1013.10 457.73 C 1016.20 463.46 1022.26 466.23 1027.37 469.80 C 1020.08 476.62 1009.81 470.06 1001.46 473.49 C 998.65 475.40 997.69 478.96 995.99 481.75 C 993.54 479.91 991.54 477.58 990.41 474.72 C 986.46 474.43 982.07 474.94 978.74 472.34 C 975.07 469.86 970.94 468.21 966.86 466.58 C 967.99 461.96 968.69 457.23 969.65 452.57 C 967.49 450.70 965.34 448.81 963.22 446.90 C 963.75 441.84 965.32 436.66 964.25 431.57 C 961.75 428.40 957.16 427.49 955.15 423.91 C 951.46 412.29 955.86 399.12 949.94 388.05 C 948.18 383.86 943.33 383.34 939.46 382.55 C 940.22 380.06 941.20 377.66 942.07 375.20 C 946.02 375.82 950.01 377.29 954.05 376.70 Z" />
</g>
<g id="#2f0f7fff">
<path fill="#2f0f7f" fill-opacity="0" d=" M 1045.64 383.94 C 1050.57 380.91 1056.72 380.52 1061.94 383.10 C 1059.42 387.16 1055.43 389.84 1051.30 392.03 C 1049.44 389.31 1047.54 386.63 1045.64 383.94 Z" />
</g>
<g id="#efcf7fff">
<path fill="#efcf7f" fill-opacity="0" d=" M 939.46 382.55 C 943.33 383.34 948.18 383.86 949.94 388.05 C 955.86 399.12 951.46 412.29 955.15 423.91 C 957.16 427.49 961.75 428.40 964.25 431.57 C 965.32 436.66 963.75 441.84 963.22 446.90 C 965.34 448.81 967.49 450.70 969.65 452.57 C 968.69 457.23 967.99 461.96 966.86 466.58 C 965.83 469.99 964.73 473.57 962.21 476.21 C 959.75 478.82 956.19 480.04 953.69 482.59 C 951.52 485.89 949.49 489.26 947.59 492.72 C 943.98 493.83 940.39 494.89 936.85 496.14 C 936.35 493.52 936.81 489.55 933.39 488.92 C 924.33 486.50 914.80 487.50 905.63 485.89 C 898.95 483.41 894.73 477.17 890.06 472.13 C 891.29 467.85 893.64 463.69 893.54 459.16 C 891.74 453.28 884.44 449.38 885.59 442.58 C 889.48 434.79 897.05 430.03 902.75 423.73 C 906.91 419.06 912.76 416.57 918.36 414.11 C 920.68 416.79 922.74 420.17 926.22 421.46 C 930.99 421.91 932.96 416.36 934.71 413.01 C 930.96 409.91 927.35 406.64 924.12 403.01 C 927.45 401.12 930.73 399.11 933.89 396.94 C 938.91 394.06 937.60 387.23 939.46 382.55 Z" />
</g>
<g id="#2f8f00ff">
<path fill="#2f8f00" fill-opacity="0" d=" M 840.95 392.97 C 846.00 390.24 851.45 387.16 857.44 388.24 C 861.80 388.45 865.53 391.09 869.52 392.63 C 868.45 397.13 867.07 401.56 866.29 406.12 C 876.32 406.99 886.41 408.08 895.92 411.60 C 896.69 407.78 896.41 403.83 897.30 400.03 C 906.18 396.84 914.95 405.61 924.12 403.01 C 927.35 406.64 930.96 409.91 934.71 413.01 C 932.96 416.36 930.99 421.91 926.22 421.46 C 922.74 420.17 920.68 416.79 918.36 414.11 C 912.76 416.57 906.91 419.06 902.75 423.73 C 897.05 430.03 889.48 434.79 885.59 442.58 C 884.44 449.38 891.74 453.28 893.54 459.16 C 893.64 463.69 891.29 467.85 890.06 472.13 C 879.34 471.95 868.49 472.10 857.96 469.82 C 854.79 469.26 852.62 466.65 849.80 465.35 C 847.97 465.93 846.50 467.23 844.93 468.27 C 843.26 467.54 841.59 466.80 839.91 466.11 C 842.33 462.21 845.27 458.59 847.11 454.37 C 848.14 451.13 848.22 446.93 845.69 444.36 C 841.48 441.45 835.90 441.92 831.55 439.32 C 828.66 436.52 825.56 433.68 824.03 429.88 C 827.30 424.86 834.62 422.09 834.51 415.25 C 832.35 411.02 827.80 408.65 824.66 405.29 C 821.59 402.68 821.29 398.42 820.18 394.79 C 827.09 394.05 834.76 397.14 840.95 392.97 Z" />
</g>
<g id="#2f8f3fff">
<path fill="#2f8f3f" fill-opacity="0" d=" M 800.26 399.34 C 806.49 396.37 813.36 395.27 820.18 394.79 C 821.29 398.42 821.59 402.68 824.66 405.29 C 827.80 408.65 832.35 411.02 834.51 415.25 C 834.62 422.09 827.30 424.86 824.03 429.88 C 825.56 433.68 828.66 436.52 831.55 439.32 C 835.90 441.92 841.48 441.45 845.69 444.36 C 848.22 446.93 848.14 451.13 847.11 454.37 C 845.27 458.59 842.33 462.21 839.91 466.11 C 841.59 466.80 843.26 467.54 844.93 468.27 C 844.47 473.36 843.35 479.50 838.76 482.44 C 836.01 482.31 833.43 480.90 830.67 481.02 C 827.62 482.28 825.34 484.90 822.65 486.72 C 816.77 483.63 810.17 486.66 804.13 487.36 C 803.28 486.33 802.43 485.32 801.59 484.30 C 802.87 481.39 804.57 478.48 804.70 475.23 C 799.19 466.69 791.01 460.19 785.74 451.47 C 785.08 447.67 786.72 443.91 787.55 440.24 C 779.96 442.42 772.29 444.40 764.31 444.11 C 762.57 440.98 760.89 437.81 759.16 434.67 C 750.36 432.89 741.52 431.04 732.51 431.03 C 730.77 429.40 728.70 427.91 727.72 425.68 C 727.37 420.33 729.81 415.27 731.13 410.21 C 721.22 406.93 710.93 409.17 700.82 409.22 C 709.15 404.98 717.67 399.03 727.53 400.37 C 734.22 400.69 738.45 408.33 745.35 407.65 C 751.80 405.42 756.91 400.30 763.22 397.70 C 769.45 395.97 775.81 398.90 781.39 401.52 C 787.60 404.33 794.48 402.12 800.26 399.34 Z" />
</g>
<g id="#ef0f00ff">
<path fill="#ef0f00" fill-opacity="0" d=" M 674.55 413.39 C 681.31 412.18 684.10 402.45 691.95 405.23 C 694.95 406.45 697.80 408.03 700.82 409.22 C 710.93 409.17 721.22 406.93 731.13 410.21 C 729.81 415.27 727.37 420.33 727.72 425.68 C 728.70 427.91 730.77 429.40 732.51 431.03 C 729.33 445.77 721.88 459.19 718.18 473.78 C 717.44 476.93 719.39 479.79 720.60 482.54 C 715.75 480.90 710.97 479.13 706.21 477.26 C 700.53 484.93 693.78 492.02 690.08 500.94 C 693.08 506.78 698.43 511.01 702.98 515.65 C 698.19 515.31 693.56 513.32 688.73 513.59 C 682.15 515.30 676.96 519.95 670.96 522.85 C 667.76 521.83 666.16 518.57 664.18 516.13 C 652.85 516.85 643.05 526.13 631.36 523.06 C 625.26 520.37 619.40 517.18 613.50 514.08 C 619.17 505.46 623.98 496.33 628.84 487.25 C 631.92 483.99 636.59 482.77 640.13 480.08 C 646.38 475.96 651.06 469.38 652.38 461.99 C 653.77 449.73 652.75 437.08 656.18 425.12 C 658.87 417.34 667.44 415.05 674.55 413.39 Z" />
</g>
<g id="#2f0f3fff">
<path fill="#2f0f3f" fill-opacity="0" d=" M 1146.47 416.44 C 1149.72 416.51 1152.86 416.53 1156.17 416.73 C 1161.26 417.09 1166.21 421.44 1166.09 426.78 C 1166.98 433.02 1166.38 439.75 1169.32 445.52 C 1172.93 447.38 1177.20 448.05 1180.38 450.70 C 1184.55 455.78 1186.07 462.49 1190.07 467.69 C 1176.12 470.45 1163.74 478.38 1149.62 480.28 C 1141.23 481.73 1133.52 475.64 1125.12 478.14 C 1120.73 480.22 1117.10 483.52 1112.87 485.83 C 1106.26 488.02 1100.96 479.70 1094.43 482.37 C 1089.86 483.91 1085.50 486.01 1081.23 488.22 C 1085.49 479.20 1082.11 469.54 1080.61 460.35 C 1079.73 456.72 1083.56 454.73 1085.80 452.69 C 1084.19 450.46 1082.56 448.23 1080.97 446.02 C 1077.03 446.54 1073.13 447.07 1069.22 447.61 C 1067.37 444.02 1065.48 440.43 1063.66 436.84 C 1071.25 437.30 1078.86 437.65 1086.43 436.67 C 1091.82 443.69 1101.78 443.34 1109.75 444.51 C 1110.89 441.46 1112.14 438.45 1113.62 435.55 C 1119.90 434.30 1126.21 433.11 1132.66 433.29 C 1132.85 430.44 1132.74 427.46 1133.14 424.67 C 1136.95 424.55 1140.76 424.50 1144.57 424.64 C 1145.11 421.87 1145.84 419.18 1146.47 416.44 M 1117.54 451.33 C 1115.45 456.33 1111.99 460.65 1110.00 465.68 C 1109.77 470.65 1112.02 475.41 1112.52 480.31 C 1117.99 478.59 1123.31 476.51 1128.64 474.36 C 1126.42 467.01 1124.88 459.47 1122.92 452.05 C 1121.11 451.82 1119.33 451.58 1117.54 451.33 Z" />
</g>
<g id="#6fcf7ffe">
<path fill="#6fcf7f" fill-opacity="0" d=" M 732.51 431.03 C 741.52 431.04 750.36 432.89 759.16 434.67 C 760.89 437.81 762.57 440.98 764.31 444.11 C 772.29 444.40 779.96 442.42 787.55 440.24 C 786.72 443.91 785.08 447.67 785.74 451.47 C 791.01 460.19 799.19 466.69 804.70 475.23 C 804.57 478.48 802.87 481.39 801.59 484.30 C 802.43 485.32 803.28 486.33 804.13 487.36 C 810.14 493.60 810.74 502.98 816.70 509.23 C 820.88 513.46 825.87 516.78 830.91 519.90 C 832.86 522.48 834.46 525.32 836.15 528.08 C 832.44 531.73 828.96 535.73 824.49 538.48 C 820.81 540.85 816.56 542.08 812.72 544.14 C 807.56 544.40 802.39 544.27 797.25 544.71 C 796.90 543.23 796.06 542.80 794.72 543.43 L 794.03 543.75 C 787.50 541.27 780.89 538.19 776.71 532.33 C 772.02 530.41 766.06 533.97 761.94 530.13 C 757.09 526.72 754.98 521.02 751.34 516.57 C 748.88 513.45 744.77 512.54 741.04 512.00 C 738.90 511.99 736.78 512.09 734.66 512.30 C 733.51 505.06 730.56 498.16 725.72 492.62 L 725.45 492.12 C 723.94 489.13 722.41 486.13 720.90 483.15 L 720.60 482.54 C 719.39 479.79 717.44 476.93 718.18 473.78 C 721.88 459.19 729.33 445.77 732.51 431.03 Z" />
</g>
<g id="#2f8f7fff">
<path fill="#2f8f7f" fill-opacity="0" d=" M 1048.35 436.51 C 1053.45 436.64 1058.55 436.58 1063.66 436.84 C 1065.48 440.43 1067.37 444.02 1069.22 447.61 C 1073.13 447.07 1077.03 446.54 1080.97 446.02 C 1082.56 448.23 1084.19 450.46 1085.80 452.69 C 1083.56 454.73 1079.73 456.72 1080.61 460.35 C 1082.11 469.54 1085.49 479.20 1081.23 488.22 C 1079.76 489.44 1078.30 490.66 1076.84 491.88 C 1077.58 493.34 1078.35 494.81 1079.11 496.29 C 1083.21 495.61 1087.36 495.50 1091.51 495.67 C 1091.43 497.97 1091.37 500.27 1091.33 502.57 C 1096.70 506.40 1104.19 510.05 1103.43 517.80 C 1103.40 524.34 1095.68 526.35 1090.60 527.84 C 1085.78 526.87 1080.89 526.40 1076.01 527.10 C 1066.36 527.81 1056.69 525.54 1047.07 527.05 C 1044.49 525.58 1041.95 524.12 1039.40 522.68 C 1041.49 515.20 1044.16 507.81 1044.79 500.02 C 1044.47 496.22 1041.77 493.16 1040.20 489.83 C 1037.06 484.44 1036.98 477.93 1034.63 472.25 C 1032.69 470.42 1029.82 470.39 1027.37 469.80 C 1022.26 466.23 1016.20 463.46 1013.10 457.73 C 1011.52 455.81 1011.08 452.15 1013.73 450.95 C 1019.22 450.45 1024.68 451.46 1030.07 452.35 C 1031.47 450.06 1032.88 447.72 1035.02 446.02 C 1038.14 444.10 1041.92 444.44 1045.43 444.20 C 1046.41 441.64 1047.40 439.08 1048.35 436.51 Z" />
</g>
<g id="#6f4f7fff">
<path fill="#6f4f7f" fill-opacity="0" d=" M 1117.54 451.33 C 1119.33 451.58 1121.11 451.82 1122.92 452.05 C 1124.88 459.47 1126.42 467.01 1128.64 474.36 C 1123.31 476.51 1117.99 478.59 1112.52 480.31 C 1112.02 475.41 1109.77 470.65 1110.00 465.68 C 1111.99 460.65 1115.45 456.33 1117.54 451.33 Z" />
</g>
<g id="#af0f7ffe">
<path fill="#af0f7f" fill-opacity="0" d=" M 528.65 464.51 C 541.86 462.41 551.16 474.76 562.00 479.97 C 577.49 487.43 595.18 492.34 612.45 489.77 C 614.78 489.64 616.46 487.93 618.00 486.37 C 621.61 486.61 625.22 486.90 628.84 487.25 C 623.98 496.33 619.17 505.46 613.50 514.08 C 602.33 529.01 592.99 545.95 577.36 556.84 C 583.95 571.83 593.14 585.49 600.47 600.10 C 602.13 603.42 603.72 606.79 604.89 610.33 C 607.93 624.97 617.99 636.69 624.27 649.97 C 607.59 645.78 593.19 633.10 575.17 635.53 C 569.73 636.00 564.88 633.00 560.08 630.89 C 556.41 629.35 554.89 625.29 552.58 622.39 C 534.16 593.52 515.51 564.81 496.91 536.06 C 492.81 530.09 489.58 523.36 488.35 516.19 C 492.41 511.67 499.57 511.96 505.23 511.21 C 501.94 505.36 497.83 499.96 495.10 493.82 C 500.05 487.45 508.48 484.83 513.31 478.30 C 518.02 473.46 521.02 465.09 528.65 464.51 Z" />
</g>
<g id="#6f0f3fff">
<path fill="#6f0f3f" fill-opacity="0" d=" M 844.93 468.27 C 846.50 467.23 847.97 465.93 849.80 465.35 C 852.62 466.65 854.79 469.26 857.96 469.82 C 868.49 472.10 879.34 471.95 890.06 472.13 C 894.73 477.17 898.95 483.41 905.63 485.89 C 914.80 487.50 924.33 486.50 933.39 488.92 C 936.81 489.55 936.35 493.52 936.85 496.14 C 932.41 498.19 925.73 499.21 924.27 504.61 C 923.70 512.41 935.58 508.40 938.43 513.98 C 940.63 518.44 942.13 525.46 948.19 526.05 C 953.97 526.58 959.69 527.69 964.93 530.30 C 964.91 539.44 964.95 548.60 964.86 557.76 C 959.43 563.51 953.15 568.54 946.01 572.02 C 935.74 577.02 925.89 583.02 915.15 587.03 C 914.49 579.31 913.61 571.62 913.00 563.91 C 912.83 561.35 912.00 558.71 909.95 557.05 C 904.08 552.35 897.06 549.45 890.54 545.82 C 891.91 543.44 893.33 541.08 894.77 538.74 C 892.59 536.45 890.62 533.70 887.62 532.45 C 879.71 529.93 871.24 530.02 863.39 527.26 C 863.80 524.83 864.20 522.41 864.60 519.98 C 853.38 519.05 842.14 520.85 830.91 519.90 C 825.87 516.78 820.88 513.46 816.70 509.23 C 810.74 502.98 810.14 493.60 804.13 487.36 C 810.17 486.66 816.77 483.63 822.65 486.72 C 825.34 484.90 827.62 482.28 830.67 481.02 C 833.43 480.90 836.01 482.31 838.76 482.44 C 843.35 479.50 844.47 473.36 844.93 468.27 Z" />
</g>
<g id="#4fcfbfff">
<path fill="#4fcfbf" fill-opacity="0" d=" M 966.86 466.58 C 970.94 468.21 975.07 469.86 978.74 472.34 C 982.07 474.94 986.46 474.43 990.41 474.72 C 991.54 477.58 993.54 479.91 995.99 481.75 C 997.69 478.96 998.65 475.40 1001.46 473.49 C 1009.81 470.06 1020.08 476.62 1027.37 469.80 C 1029.82 470.39 1032.69 470.42 1034.63 472.25 C 1036.98 477.93 1037.06 484.44 1040.20 489.83 C 1041.77 493.16 1044.47 496.22 1044.79 500.02 C 1044.16 507.81 1041.49 515.20 1039.40 522.68 C 1041.95 524.12 1044.49 525.58 1047.07 527.05 C 1045.09 531.47 1042.85 535.78 1040.70 540.12 C 1043.08 542.54 1045.49 544.93 1047.91 547.32 C 1046.64 556.32 1045.35 565.34 1044.76 574.43 C 1039.53 580.33 1031.70 576.20 1025.31 574.98 C 1025.67 571.47 1025.83 566.66 1022.07 564.92 C 1016.70 562.20 1010.48 561.87 1004.57 561.75 C 1000.69 558.29 995.83 556.22 990.68 555.65 C 988.31 553.96 986.24 551.44 983.26 550.95 C 981.08 552.48 979.32 554.54 977.83 556.73 C 975.67 555.36 973.59 553.73 971.08 553.13 C 968.59 554.01 966.72 555.97 964.86 557.76 C 964.95 548.60 964.91 539.44 964.93 530.30 C 959.69 527.69 953.97 526.58 948.19 526.05 C 942.13 525.46 940.63 518.44 938.43 513.98 C 935.58 508.40 923.70 512.41 924.27 504.61 C 925.73 499.21 932.41 498.19 936.85 496.14 C 940.39 494.89 943.98 493.83 947.59 492.72 C 949.49 489.26 951.52 485.89 953.69 482.59 C 956.19 480.04 959.75 478.82 962.21 476.21 C 964.73 473.57 965.83 469.99 966.86 466.58 Z" />
</g>
<g id="#af8f3fff">
<path fill="#af8f3f" fill-opacity="0" d=" M 1149.62 480.28 C 1163.74 478.38 1176.12 470.45 1190.07 467.69 C 1193.46 469.93 1197.10 471.86 1200.14 474.61 C 1205.68 486.65 1207.24 499.97 1208.07 513.06 C 1200.06 513.64 1191.76 513.35 1184.20 516.45 C 1182.31 514.99 1180.05 513.47 1178.09 512.29 C 1174.53 517.27 1172.85 522.99 1171.73 528.87 C 1166.95 535.54 1158.86 538.66 1151.85 542.45 C 1146.24 538.82 1141.27 533.59 1134.38 532.56 C 1127.60 531.77 1121.65 528.21 1115.11 526.69 C 1109.94 526.98 1106.47 532.22 1101.43 533.13 C 1097.43 532.39 1094.19 529.58 1090.60 527.84 C 1095.68 526.35 1103.40 524.34 1103.43 517.80 C 1104.19 510.05 1096.70 506.40 1091.33 502.57 C 1091.37 500.27 1091.43 497.97 1091.51 495.67 C 1087.36 495.50 1083.21 495.61 1079.11 496.29 C 1078.35 494.81 1077.58 493.34 1076.84 491.88 C 1078.30 490.66 1079.76 489.44 1081.23 488.22 C 1085.50 486.01 1089.86 483.91 1094.43 482.37 C 1100.96 479.70 1106.26 488.02 1112.87 485.83 C 1117.10 483.52 1120.73 480.22 1125.12 478.14 C 1133.52 475.64 1141.23 481.73 1149.62 480.28 Z" />
</g>
<g id="#6f8f00ff">
<path fill="#6f8f00" fill-opacity="0" d=" M 706.21 477.26 C 710.97 479.13 715.75 480.90 720.60 482.54 L 720.90 483.15 C 722.33 486.18 723.81 489.19 725.45 492.12 L 725.72 492.62 C 727.87 497.61 730.14 502.55 732.17 507.61 C 722.93 510.05 713.58 512.18 704.61 515.52 C 704.21 515.55 703.39 515.62 702.98 515.65 C 698.43 511.01 693.08 506.78 690.08 500.94 C 693.78 492.02 700.53 484.93 706.21 477.26 Z" />
</g>
<g id="#d32b00fe">
<path fill="#d32b00" fill-opacity="0" d=" M 720.90 483.15 C 722.41 486.13 723.94 489.13 725.45 492.12 C 723.81 489.19 722.33 486.18 720.90 483.15 Z" />
</g>
<g id="#ec1200ff">
<path fill="#ec1200" fill-opacity="0" d=" M 732.17 507.61 C 730.14 502.55 727.87 497.61 725.72 492.62 C 730.56 498.16 733.51 505.06 734.66 512.30 C 724.69 513.76 714.67 514.86 704.61 515.52 C 713.58 512.18 722.93 510.05 732.17 507.61 Z" />
</g>
<g id="#ef4f00ff">
<path fill="#ef4f00" fill-opacity="0" d=" M 704.61 515.52 C 714.67 514.86 724.69 513.76 734.66 512.30 C 736.78 512.09 738.90 511.99 741.04 512.00 C 738.64 525.35 734.12 538.77 725.25 549.27 C 722.15 553.50 716.37 552.33 711.92 552.68 C 709.10 552.45 707.66 555.31 706.04 557.09 C 701.76 563.08 695.44 567.22 691.38 573.38 C 693.96 574.79 696.58 576.19 699.16 577.64 C 693.82 583.96 688.70 591.43 680.37 593.97 C 677.38 591.16 674.71 587.73 670.82 586.14 C 667.12 584.73 662.94 587.44 659.46 586.44 C 656.33 579.50 652.04 572.89 645.20 569.12 C 647.52 565.85 649.19 562.17 650.32 558.33 C 645.20 559.88 640.15 561.63 634.96 562.87 C 634.32 555.65 631.17 548.89 631.11 541.60 C 631.11 535.42 631.73 529.24 631.36 523.06 C 643.05 526.13 652.85 516.85 664.18 516.13 C 666.16 518.57 667.76 521.83 670.96 522.85 C 676.96 519.95 682.15 515.30 688.73 513.59 C 693.56 513.32 698.19 515.31 702.98 515.65 C 703.39 515.62 704.21 515.55 704.61 515.52 Z" />
</g>
<g id="#af4f3fff">
<path fill="#af4f3f" fill-opacity="0" d=" M 741.04 512.00 C 744.77 512.54 748.88 513.45 751.34 516.57 C 754.98 521.02 757.09 526.72 761.94 530.13 C 766.06 533.97 772.02 530.41 776.71 532.33 C 780.89 538.19 787.50 541.27 794.03 543.75 C 786.81 547.28 778.51 549.70 773.28 556.17 C 777.08 560.98 782.35 567.27 778.81 573.81 C 773.96 579.05 765.39 580.20 762.44 587.44 C 763.31 592.64 767.33 596.66 768.42 601.77 C 767.31 610.43 762.79 618.11 759.20 625.93 C 752.47 628.28 746.13 623.02 739.34 624.39 C 733.37 625.01 728.69 629.15 723.04 630.61 C 715.06 630.31 708.12 625.64 702.06 620.89 C 697.82 617.19 697.11 610.85 692.93 607.23 C 688.17 606.85 683.97 610.37 679.20 610.23 C 676.56 609.40 674.62 607.27 672.56 605.55 C 675.37 601.84 677.79 597.85 680.37 593.97 C 688.70 591.43 693.82 583.96 699.16 577.64 C 696.58 576.19 693.96 574.79 691.38 573.38 C 695.44 567.22 701.76 563.08 706.04 557.09 C 707.66 555.31 709.10 552.45 711.92 552.68 C 716.37 552.33 722.15 553.50 725.25 549.27 C 734.12 538.77 738.64 525.35 741.04 512.00 M 703.14 579.09 C 703.48 580.06 703.82 581.05 704.18 582.03 C 705.45 581.64 706.72 581.24 708.00 580.86 C 707.55 579.13 707.07 577.40 706.64 575.67 C 705.46 576.80 704.29 577.94 703.14 579.09 Z" />
</g>
<g id="#2fcf00ff">
<path fill="#2fcf00" fill-opacity="0" d=" M 1208.07 513.06 C 1217.82 514.17 1227.11 519.39 1237.16 517.24 C 1244.39 516.26 1252.32 510.56 1259.18 515.77 C 1265.28 517.44 1263.32 523.71 1263.29 528.21 C 1263.40 532.14 1263.17 536.79 1266.37 539.62 C 1272.63 545.77 1278.03 552.68 1283.63 559.42 C 1284.53 560.59 1285.51 561.84 1285.65 563.38 C 1283.58 565.75 1280.86 567.75 1277.43 566.80 C 1274.68 564.42 1273.48 560.42 1270.13 558.77 C 1265.08 558.17 1260.90 563.03 1255.86 562.58 C 1253.88 561.40 1252.82 559.15 1251.40 557.42 C 1243.42 562.77 1235.51 568.25 1227.19 573.05 C 1225.69 564.40 1218.76 558.00 1213.93 551.09 C 1205.68 555.40 1197.23 559.32 1188.81 563.26 C 1191.91 567.11 1194.79 571.22 1198.58 574.45 C 1203.13 577.39 1208.45 579.18 1213.81 580.04 C 1215.11 587.56 1212.10 594.60 1209.65 601.49 C 1203.00 598.91 1196.15 596.68 1190.14 592.79 C 1185.87 589.90 1180.89 587.09 1178.89 582.05 C 1176.68 577.14 1177.64 571.62 1177.81 566.46 C 1172.62 564.47 1167.57 566.91 1162.79 568.78 C 1158.16 570.89 1153.34 567.75 1150.14 564.55 C 1151.86 559.32 1155.98 555.25 1157.63 549.95 C 1157.81 546.37 1154.31 544.36 1151.85 542.45 C 1158.86 538.66 1166.95 535.54 1171.73 528.87 C 1172.85 522.99 1174.53 517.27 1178.09 512.29 C 1180.05 513.47 1182.31 514.99 1184.20 516.45 C 1191.76 513.35 1200.06 513.64 1208.07 513.06 Z" />
</g>
<g id="#ef8fbfff">
<path fill="#ef8fbf" fill-opacity="0" d=" M 577.36 556.84 C 592.99 545.95 602.33 529.01 613.50 514.08 C 619.40 517.18 625.26 520.37 631.36 523.06 C 631.73 529.24 631.11 535.42 631.11 541.60 C 631.17 548.89 634.32 555.65 634.96 562.87 C 640.15 561.63 645.20 559.88 650.32 558.33 C 649.19 562.17 647.52 565.85 645.20 569.12 C 639.89 572.76 633.79 575.03 628.38 578.51 C 621.15 583.61 619.34 593.15 612.77 598.82 C 610.32 601.30 607.84 597.19 605.67 596.07 C 603.95 597.42 602.20 598.75 600.47 600.10 C 593.14 585.49 583.95 571.83 577.36 556.84 M 609.49 576.66 C 607.78 577.77 606.33 579.22 604.83 580.58 C 610.32 582.28 613.64 586.90 615.92 591.97 C 618.06 588.01 620.26 584.09 622.29 580.07 C 618.06 578.85 613.92 576.80 609.49 576.66 Z" />
</g>
<g id="#ef4f7fff">
<path fill="#ef4f7f" fill-opacity="0" d=" M 830.91 519.90 C 842.14 520.85 853.38 519.05 864.60 519.98 C 864.20 522.41 863.80 524.83 863.39 527.26 C 871.24 530.02 879.71 529.93 887.62 532.45 C 890.62 533.70 892.59 536.45 894.77 538.74 C 893.33 541.08 891.91 543.44 890.54 545.82 C 897.06 549.45 904.08 552.35 909.95 557.05 C 912.00 558.71 912.83 561.35 913.00 563.91 C 913.61 571.62 914.49 579.31 915.15 587.03 C 909.02 588.77 902.59 589.33 896.34 590.38 C 887.48 591.32 878.37 594.16 869.54 591.25 C 861.31 588.14 854.82 581.79 846.89 578.12 C 842.95 576.15 838.78 578.39 835.12 579.88 C 830.43 574.14 825.23 568.64 817.80 566.68 C 816.18 559.15 814.46 551.63 812.72 544.14 C 816.56 542.08 820.81 540.85 824.49 538.48 C 828.96 535.73 832.44 531.73 836.15 528.08 C 834.46 525.32 832.86 522.48 830.91 519.90 Z" />
</g>
<g id="#6f4f00ff">
<path fill="#6f4f00" fill-opacity="0" d=" M 1047.07 527.05 C 1056.69 525.54 1066.36 527.81 1076.01 527.10 C 1080.89 526.40 1085.78 526.87 1090.60 527.84 C 1094.19 529.58 1097.43 532.39 1101.43 533.13 C 1106.47 532.22 1109.94 526.98 1115.11 526.69 C 1121.65 528.21 1127.60 531.77 1134.38 532.56 C 1141.27 533.59 1146.24 538.82 1151.85 542.45 C 1154.31 544.36 1157.81 546.37 1157.63 549.95 C 1155.98 555.25 1151.86 559.32 1150.14 564.55 C 1153.34 567.75 1158.16 570.89 1162.79 568.78 C 1167.57 566.91 1172.62 564.47 1177.81 566.46 C 1177.64 571.62 1176.68 577.14 1178.89 582.05 C 1180.89 587.09 1185.87 589.90 1190.14 592.79 C 1196.15 596.68 1203.00 598.91 1209.65 601.49 C 1212.36 603.89 1216.93 605.97 1217.12 610.05 C 1215.78 614.07 1213.20 617.71 1213.09 622.11 C 1212.06 622.69 1211.04 623.27 1210.04 623.86 C 1208.23 622.12 1206.45 620.35 1204.67 618.64 C 1201.55 619.01 1198.53 620.13 1195.37 619.91 C 1188.60 620.79 1186.54 611.52 1180.00 612.04 C 1174.95 613.46 1172.85 619.58 1167.82 621.10 C 1163.34 620.87 1159.03 618.39 1154.49 619.22 C 1152.48 623.19 1151.28 627.50 1149.43 631.54 C 1146.75 635.57 1143.89 639.50 1141.93 643.95 C 1138.05 637.49 1136.33 629.60 1130.68 624.35 C 1128.97 622.66 1127.14 621.12 1125.35 619.55 C 1120.32 612.87 1117.39 604.95 1113.18 597.79 C 1109.10 591.87 1101.63 589.94 1095.98 585.99 C 1089.33 582.32 1086.60 574.13 1079.65 570.94 C 1072.66 569.62 1065.46 570.59 1058.40 569.78 C 1053.39 569.17 1048.47 571.12 1044.76 574.43 C 1045.35 565.34 1046.64 556.32 1047.91 547.32 C 1045.49 544.93 1043.08 542.54 1040.70 540.12 C 1042.85 535.78 1045.09 531.47 1047.07 527.05 Z" />
</g>
<g id="#af503fff">
<path fill="#af503f" fill-opacity="0" d=" M 794.72 543.43 C 796.06 542.80 796.90 543.23 797.25 544.71 C 795.94 545.04 795.10 544.62 794.72 543.43 Z" />
</g>
<g id="#6f0f7fff">
<path fill="#6f0f7f" fill-opacity="0" d=" M 794.03 543.75 L 794.72 543.43 C 795.10 544.62 795.94 545.04 797.25 544.71 C 802.39 544.27 807.56 544.40 812.72 544.14 C 814.46 551.63 816.18 559.15 817.80 566.68 C 825.23 568.64 830.43 574.14 835.12 579.88 C 840.96 586.57 850.82 583.49 857.60 588.34 C 862.18 591.25 866.65 594.32 871.27 597.20 C 867.50 601.97 863.83 606.80 860.56 611.92 C 863.73 615.58 866.68 619.42 869.78 623.16 C 867.57 624.69 865.47 626.47 862.97 627.51 C 858.30 628.23 852.88 623.22 848.79 626.74 C 842.14 635.15 846.87 649.45 836.95 655.76 C 824.54 656.89 812.25 658.99 800.18 662.05 C 793.21 657.91 786.61 653.10 779.17 649.82 C 773.95 647.55 768.95 644.72 764.68 640.93 C 767.48 638.00 770.32 635.11 773.20 632.25 C 768.58 630.03 763.96 627.82 759.20 625.93 C 762.79 618.11 767.31 610.43 768.42 601.77 C 767.33 596.66 763.31 592.64 762.44 587.44 C 765.39 580.20 773.96 579.05 778.81 573.81 C 782.35 567.27 777.08 560.98 773.28 556.17 C 778.51 549.70 786.81 547.28 794.03 543.75 Z" />
</g>
<g id="#6f8f3fff">
<path fill="#6f8f3f" fill-opacity="0" d=" M 977.83 556.73 C 979.32 554.54 981.08 552.48 983.26 550.95 C 986.24 551.44 988.31 553.96 990.68 555.65 C 992.63 558.40 994.40 561.22 996.32 564.05 C 999.05 563.25 1001.78 562.41 1004.57 561.75 C 1010.48 561.87 1016.70 562.20 1022.07 564.92 C 1025.83 566.66 1025.67 571.47 1025.31 574.98 C 1025.06 576.74 1024.77 578.49 1024.48 580.25 C 1028.10 581.63 1032.81 581.85 1035.21 585.25 C 1037.54 593.19 1036.35 601.60 1036.19 609.72 C 1038.89 611.00 1041.58 612.32 1044.32 613.55 C 1043.07 622.75 1043.02 632.22 1040.00 641.07 C 1036.56 647.26 1027.31 645.58 1023.40 651.28 C 1021.39 656.48 1022.64 662.41 1020.39 667.56 C 1019.29 669.52 1017.21 670.58 1015.40 671.76 C 1014.35 668.44 1013.63 664.58 1010.62 662.40 C 1006.25 659.13 1000.97 657.37 996.19 654.82 C 997.22 650.98 998.13 647.10 998.54 643.14 C 992.19 645.53 986.66 649.72 979.98 651.29 C 979.55 647.82 979.04 644.35 978.47 640.90 C 975.05 642.18 971.68 643.60 968.36 645.10 C 966.01 642.31 963.26 639.91 960.58 637.46 C 967.07 631.90 972.40 625.07 976.68 617.69 C 971.06 613.52 964.21 611.93 957.42 610.98 C 955.77 607.27 954.37 603.44 953.06 599.61 C 958.24 596.98 969.23 597.43 969.32 589.17 C 969.61 577.87 971.98 566.52 977.83 556.73 M 1000.80 607.92 C 999.03 610.80 998.82 614.30 998.05 617.53 C 1004.07 618.18 1010.10 618.96 1016.11 619.73 C 1015.43 615.23 1014.73 610.72 1014.02 606.23 C 1009.61 606.81 1005.07 606.65 1000.80 607.92 Z" />
</g>
<g id="#ed11bdff">
<path fill="#ed11bd" fill-opacity="0" d=" M 1188.81 563.26 C 1197.23 559.32 1205.68 555.40 1213.93 551.09 C 1218.76 558.00 1225.69 564.40 1227.19 573.05 C 1222.71 575.35 1218.14 577.49 1213.81 580.04 C 1208.45 579.18 1203.13 577.39 1198.58 574.45 C 1194.79 571.22 1191.91 567.11 1188.81 563.26 Z" />
</g>
<g id="#cfcfbfff">
<path fill="#cfcfbf" fill-opacity="0" d=" M 1227.19 573.05 C 1235.51 568.25 1243.42 562.77 1251.40 557.42 C 1252.82 559.15 1253.88 561.40 1255.86 562.58 C 1260.90 563.03 1265.08 558.17 1270.13 558.77 C 1273.48 560.42 1274.68 564.42 1277.43 566.80 C 1280.86 567.75 1283.58 565.75 1285.65 563.38 C 1291.17 566.94 1297.32 570.10 1303.99 570.54 C 1310.38 570.82 1316.70 574.55 1319.75 580.20 C 1320.97 587.08 1323.12 594.41 1322.01 601.46 C 1313.14 617.03 1305.04 633.04 1295.79 648.40 C 1294.68 647.17 1293.58 645.96 1292.49 644.76 C 1288.85 651.70 1284.62 658.55 1278.02 663.06 C 1272.02 666.69 1270.83 674.28 1265.89 678.84 C 1260.79 682.68 1254.09 681.53 1248.42 679.92 C 1248.85 677.72 1249.64 675.52 1249.45 673.25 C 1247.80 669.03 1243.68 666.25 1242.24 661.90 C 1244.29 656.36 1249.37 652.54 1251.90 647.18 C 1244.07 644.18 1235.51 642.57 1228.85 637.15 C 1223.09 632.75 1215.84 629.26 1213.09 622.11 C 1213.20 617.71 1215.78 614.07 1217.12 610.05 C 1216.93 605.97 1212.36 603.89 1209.65 601.49 C 1212.10 594.60 1215.11 587.56 1213.81 580.04 C 1218.14 577.49 1222.71 575.35 1227.19 573.05 Z" />
</g>
<g id="#2f4f00ff">
<path fill="#2f4f00" fill-opacity="0" d=" M 628.38 578.51 C 633.79 575.03 639.89 572.76 645.20 569.12 C 652.04 572.89 656.33 579.50 659.46 586.44 C 662.94 587.44 667.12 584.73 670.82 586.14 C 674.71 587.73 677.38 591.16 680.37 593.97 C 677.79 597.85 675.37 601.84 672.56 605.55 C 667.36 610.56 659.20 609.98 653.92 614.87 C 647.74 620.47 643.74 627.99 638.91 634.70 C 653.74 663.91 669.45 692.68 684.08 721.99 C 668.28 719.72 655.84 707.86 648.78 694.15 C 640.85 679.29 632.45 664.69 624.27 649.97 C 617.99 636.69 607.93 624.97 604.89 610.33 C 603.72 606.79 602.13 603.42 600.47 600.10 C 602.20 598.75 603.95 597.42 605.67 596.07 C 607.84 597.19 610.32 601.30 612.77 598.82 C 619.34 593.15 621.15 583.61 628.38 578.51 Z" />
</g>
<g id="#2f4f3fff">
<path fill="#2f4f3f" fill-opacity="0" d=" M 609.49 576.66 C 613.92 576.80 618.06 578.85 622.29 580.07 C 620.26 584.09 618.06 588.01 615.92 591.97 C 613.64 586.90 610.32 582.28 604.83 580.58 C 606.33 579.22 607.78 577.77 609.49 576.66 Z" />
</g>
<g id="#6fcf00ff">
<path fill="#6fcf00" fill-opacity="0" d=" M 703.14 579.09 C 704.29 577.94 705.46 576.80 706.64 575.67 C 707.07 577.40 707.55 579.13 708.00 580.86 C 706.72 581.24 705.45 581.64 704.18 582.03 C 703.82 581.05 703.48 580.06 703.14 579.09 Z" />
</g>
<g id="#2f0fbfff">
<path fill="#2f0fbf" fill-opacity="0" d=" M 889.48 594.80 C 896.36 593.82 902.96 596.15 909.53 597.79 C 918.61 600.28 928.15 599.84 937.32 601.97 C 942.76 603.65 948.02 601.36 953.06 599.61 C 954.37 603.44 955.77 607.27 957.42 610.98 C 964.21 611.93 971.06 613.52 976.68 617.69 C 972.40 625.07 967.07 631.90 960.58 637.46 C 950.65 644.53 939.37 649.35 928.74 655.22 C 932.50 659.27 936.54 663.03 940.69 666.70 C 934.83 673.55 926.52 678.51 917.43 679.20 C 910.91 671.39 899.83 668.97 890.15 671.02 C 881.28 672.41 869.54 675.31 867.25 685.46 C 866.19 687.85 865.11 690.61 862.59 691.82 C 857.05 692.23 851.83 690.24 846.66 688.65 C 840.35 686.60 833.73 685.24 827.92 681.91 C 834.23 675.88 843.15 674.15 850.05 669.04 C 853.06 667.10 852.59 662.15 850.10 659.98 C 846.44 656.97 841.62 655.69 836.95 655.76 C 846.87 649.45 842.14 635.15 848.79 626.74 C 852.88 623.22 858.30 628.23 862.97 627.51 C 865.47 626.47 867.57 624.69 869.78 623.16 C 866.68 619.42 863.73 615.58 860.56 611.92 C 863.83 606.80 867.50 601.97 871.27 597.20 C 877.34 596.57 883.43 595.72 889.48 594.80 Z" />
</g>
<g id="#af0fbfff">
<path fill="#af0fbf" fill-opacity="0" d=" M 653.92 614.87 C 659.20 609.98 667.36 610.56 672.56 605.55 C 674.62 607.27 676.56 609.40 679.20 610.23 C 683.97 610.37 688.17 606.85 692.93 607.23 C 697.11 610.85 697.82 617.19 702.06 620.89 C 708.12 625.64 715.06 630.31 723.04 630.61 C 728.69 629.15 733.37 625.01 739.34 624.39 C 746.13 623.02 752.47 628.28 759.20 625.93 C 763.96 627.82 768.58 630.03 773.20 632.25 C 770.32 635.11 767.48 638.00 764.68 640.93 C 768.95 644.72 773.95 647.55 779.17 649.82 C 786.61 653.10 793.21 657.91 800.18 662.05 C 793.10 670.40 784.58 677.72 779.42 687.52 C 776.12 693.67 771.29 700.31 773.32 707.74 C 776.72 719.61 781.72 730.97 785.24 742.81 C 788.89 755.78 795.20 767.89 797.76 781.19 C 798.30 782.74 795.58 782.14 794.69 782.58 C 788.60 782.70 785.29 775.90 779.52 774.85 C 775.55 773.24 769.87 774.86 767.10 770.92 C 759.82 763.55 757.02 752.77 748.53 746.47 C 745.05 742.86 739.20 743.94 735.70 740.31 C 728.08 734.76 725.94 725.24 721.47 717.49 C 719.05 714.31 715.29 712.64 711.94 710.68 C 711.98 714.60 715.13 718.72 713.76 722.68 C 709.47 726.16 702.93 727.65 697.81 725.10 C 693.57 723.14 688.98 721.92 684.26 722.37 L 684.08 721.99 C 669.45 692.68 653.74 663.91 638.91 634.70 C 643.74 627.99 647.74 620.47 653.92 614.87 Z" />
</g>
<g id="#ef8f3fff">
<path fill="#ef8f3f" fill-opacity="0" d=" M 1000.80 607.92 C 1005.07 606.65 1009.61 606.81 1014.02 606.23 C 1014.73 610.72 1015.43 615.23 1016.11 619.73 C 1010.10 618.96 1004.07 618.18 998.05 617.53 C 998.82 614.30 999.03 610.80 1000.80 607.92 Z" />
</g>
<g id="#af4f7fff">
<path fill="#af4f7f" fill-opacity="0" d=" M 1167.82 621.10 C 1172.85 619.58 1174.95 613.46 1180.00 612.04 C 1186.54 611.52 1188.60 620.79 1195.37 619.91 C 1198.53 620.13 1201.55 619.01 1204.67 618.64 C 1206.45 620.35 1208.23 622.12 1210.04 623.86 C 1211.04 623.27 1212.06 622.69 1213.09 622.11 C 1215.84 629.26 1223.09 632.75 1228.85 637.15 C 1235.51 642.57 1244.07 644.18 1251.90 647.18 C 1249.37 652.54 1244.29 656.36 1242.24 661.90 C 1243.68 666.25 1247.80 669.03 1249.45 673.25 C 1249.64 675.52 1248.85 677.72 1248.42 679.92 C 1248.05 681.88 1247.23 683.97 1247.87 685.96 C 1249.40 689.05 1252.28 691.26 1253.77 694.39 C 1251.35 697.47 1248.04 699.73 1245.02 702.19 C 1245.25 705.03 1248.23 708.84 1245.29 711.10 C 1239.95 714.82 1233.37 717.00 1229.00 722.04 C 1227.45 723.56 1228.37 726.01 1229.34 727.60 C 1233.04 731.50 1237.93 734.19 1241.39 738.36 C 1244.00 741.76 1244.97 746.53 1248.90 748.82 C 1252.88 751.12 1256.96 753.30 1260.61 756.15 C 1258.40 759.01 1256.30 762.10 1253.19 764.07 C 1249.63 766.51 1244.91 767.73 1242.81 771.85 C 1236.67 783.08 1230.24 794.14 1223.93 805.27 C 1219.71 806.13 1215.37 807.03 1211.07 806.84 C 1207.05 806.10 1203.38 803.67 1201.00 800.37 C 1201.78 795.71 1202.80 791.11 1203.15 786.40 C 1202.84 777.87 1207.96 770.71 1211.38 763.31 C 1213.56 759.11 1211.07 754.30 1209.78 750.29 C 1205.97 745.92 1199.47 745.09 1195.60 740.78 C 1192.05 734.57 1197.59 728.55 1200.17 723.31 C 1196.05 716.68 1189.53 711.84 1186.26 704.65 C 1181.75 696.49 1175.52 686.25 1164.90 686.18 C 1163.37 685.93 1161.85 685.77 1160.34 685.61 C 1160.35 684.26 1159.03 683.01 1157.69 683.60 C 1161.01 675.80 1161.23 667.10 1160.71 658.78 C 1160.01 653.16 1155.62 649.11 1152.20 644.98 C 1153.17 641.68 1154.17 638.38 1155.17 635.09 C 1153.24 633.92 1151.33 632.72 1149.43 631.54 C 1151.28 627.50 1152.48 623.19 1154.49 619.22 C 1159.03 618.39 1163.34 620.87 1167.82 621.10 Z" />
</g>
<g id="#afcf00ff">
<path fill="#afcf00" fill-opacity="0" d=" M 1102.20 632.18 C 1104.41 626.88 1106.20 620.27 1111.93 617.73 C 1116.42 616.54 1120.94 618.74 1125.35 619.55 C 1127.14 621.12 1128.97 622.66 1130.68 624.35 C 1136.33 629.60 1138.05 637.49 1141.93 643.95 C 1144.87 648.67 1148.76 652.79 1151.13 657.86 C 1153.81 663.78 1151.74 670.45 1152.57 676.64 C 1153.12 679.72 1155.43 682.03 1157.44 684.29 C 1158.16 685.19 1159.13 685.63 1160.34 685.61 C 1161.85 685.77 1163.37 685.93 1164.90 686.18 C 1175.52 686.25 1181.75 696.49 1186.26 704.65 C 1189.53 711.84 1196.05 716.68 1200.17 723.31 C 1197.59 728.55 1192.05 734.57 1195.60 740.78 C 1199.47 745.09 1205.97 745.92 1209.78 750.29 C 1211.07 754.30 1213.56 759.11 1211.38 763.31 C 1207.96 770.71 1202.84 777.87 1203.15 786.40 C 1202.80 791.11 1201.78 795.71 1201.00 800.37 C 1193.32 813.91 1185.96 827.63 1178.73 841.43 C 1177.22 841.33 1175.71 841.22 1174.23 841.16 C 1170.91 847.30 1166.79 853.64 1167.43 861.00 C 1167.43 872.72 1168.26 884.49 1167.25 896.19 C 1166.62 903.15 1161.83 908.64 1158.53 914.50 C 1150.64 927.07 1144.05 940.43 1135.83 952.78 C 1133.21 950.78 1130.85 948.48 1128.52 946.18 C 1126.20 947.06 1123.88 947.96 1121.56 948.80 C 1132.69 930.02 1140.57 909.28 1153.79 891.77 C 1156.09 888.48 1156.43 884.32 1157.39 880.56 C 1148.91 875.95 1140.67 870.81 1131.61 867.41 C 1125.65 865.16 1120.22 861.79 1114.89 858.38 C 1116.74 855.78 1118.58 853.18 1120.42 850.58 C 1116.18 848.44 1111.42 848.42 1107.04 850.15 C 1103.98 851.64 1100.96 849.94 1098.27 848.53 C 1100.67 844.99 1103.19 841.53 1105.82 838.15 C 1104.18 836.85 1102.57 835.52 1100.95 834.21 C 1106.11 828.73 1109.98 821.96 1111.91 814.67 C 1112.78 810.46 1114.82 805.99 1113.46 801.66 C 1111.09 793.40 1107.90 785.41 1105.30 777.23 C 1100.02 760.12 1106.47 742.21 1113.66 726.70 C 1115.96 721.88 1111.89 717.15 1109.83 713.12 C 1104.25 704.04 1101.10 693.73 1095.31 684.77 C 1093.54 681.24 1090.48 677.78 1091.84 673.48 C 1093.59 659.36 1097.68 645.64 1102.20 632.18 Z" />
</g>
<g id="#2fcf7fff">
<path fill="#2fcf7f" fill-opacity="0" d=" M 1149.43 631.54 C 1151.33 632.72 1153.24 633.92 1155.17 635.09 C 1154.17 638.38 1153.17 641.68 1152.20 644.98 C 1155.62 649.11 1160.01 653.16 1160.71 658.78 C 1161.23 667.10 1161.01 675.80 1157.69 683.60 L 1157.44 684.29 C 1155.43 682.03 1153.12 679.72 1152.57 676.64 C 1151.74 670.45 1153.81 663.78 1151.13 657.86 C 1148.76 652.79 1144.87 648.67 1141.93 643.95 C 1143.89 639.50 1146.75 635.57 1149.43 631.54 Z" />
</g>
<g id="#6f8fbfff">
<path fill="#6f8fbf" fill-opacity="0" d=" M 928.74 655.22 C 939.37 649.35 950.65 644.53 960.58 637.46 C 963.26 639.91 966.01 642.31 968.36 645.10 C 971.68 643.60 975.05 642.18 978.47 640.90 C 979.04 644.35 979.55 647.82 979.98 651.29 C 986.66 649.72 992.19 645.53 998.54 643.14 C 998.13 647.10 997.22 650.98 996.19 654.82 C 1000.97 657.37 1006.25 659.13 1010.62 662.40 C 1013.63 664.58 1014.35 668.44 1015.40 671.76 C 1017.04 677.92 1020.65 683.75 1019.50 690.39 C 1019.56 696.59 1017.02 702.99 1019.06 709.03 C 1022.67 714.82 1029.84 713.09 1035.52 712.70 C 1036.54 716.96 1036.96 722.29 1040.93 725.04 C 1045.25 727.16 1050.32 725.96 1054.85 727.36 C 1056.42 732.00 1054.21 736.87 1054.05 741.55 C 1053.43 746.81 1055.92 751.99 1054.68 757.26 C 1053.19 764.07 1053.02 771.81 1048.63 777.60 C 1043.20 783.44 1035.90 788.14 1027.74 788.54 C 1020.13 784.85 1020.25 775.33 1015.98 768.99 C 1012.52 761.40 1004.33 757.91 996.67 756.22 C 999.43 759.77 1003.70 763.00 1003.60 767.95 C 1003.41 773.90 1002.45 779.82 1002.00 785.77 C 999.71 786.67 997.42 787.56 995.14 788.45 C 994.39 793.72 993.76 799.03 992.97 804.31 C 987.58 801.35 982.89 797.08 979.97 791.63 C 974.64 794.21 968.20 797.79 962.59 793.46 C 955.40 788.99 965.00 781.19 962.88 775.05 C 958.47 765.17 948.49 760.33 939.78 754.99 C 937.29 753.94 937.70 751.51 938.70 749.48 C 942.85 741.67 948.04 733.62 945.79 724.22 C 944.19 717.19 936.21 715.05 930.67 712.17 C 925.62 709.63 918.60 707.47 917.68 700.99 C 917.08 693.75 917.85 686.45 917.43 679.20 C 926.52 678.51 934.83 673.55 940.69 666.70 C 936.54 663.03 932.50 659.27 928.74 655.22 Z" />
</g>
<g id="#ef8f7fff">
<path fill="#ef8f7f" fill-opacity="0" d=" M 1292.49 644.76 C 1293.58 645.96 1294.68 647.17 1295.79 648.40 C 1300.21 653.62 1305.75 657.74 1311.26 661.77 C 1316.64 665.72 1321.34 670.60 1326.96 674.25 C 1334.58 677.98 1342.49 681.12 1350.33 684.37 C 1347.60 695.00 1339.18 702.60 1333.72 711.74 C 1331.47 715.11 1335.59 717.30 1337.54 719.47 C 1343.17 724.43 1346.83 732.32 1344.87 739.87 C 1343.16 752.68 1338.20 764.95 1330.94 775.61 C 1322.71 786.51 1314.18 797.18 1306.20 808.26 C 1303.94 811.23 1299.16 809.79 1296.86 812.80 C 1291.53 818.67 1287.52 825.60 1282.23 831.50 C 1280.78 833.06 1278.91 834.62 1276.64 834.25 C 1271.15 833.63 1265.58 832.61 1260.53 830.32 C 1255.31 826.08 1255.29 818.27 1250.16 813.97 C 1245.18 812.05 1239.12 815.52 1234.62 812.05 C 1231.41 809.25 1228.06 806.53 1223.93 805.27 C 1230.24 794.14 1236.67 783.08 1242.81 771.85 C 1244.91 767.73 1249.63 766.51 1253.19 764.07 C 1256.30 762.10 1258.40 759.01 1260.61 756.15 C 1256.96 753.30 1252.88 751.12 1248.90 748.82 C 1244.97 746.53 1244.00 741.76 1241.39 738.36 C 1237.93 734.19 1233.04 731.50 1229.34 727.60 C 1228.37 726.01 1227.45 723.56 1229.00 722.04 C 1233.37 717.00 1239.95 714.82 1245.29 711.10 C 1248.23 708.84 1245.25 705.03 1245.02 702.19 C 1248.04 699.73 1251.35 697.47 1253.77 694.39 C 1252.28 691.26 1249.40 689.05 1247.87 685.96 C 1247.23 683.97 1248.05 681.88 1248.42 679.92 C 1254.09 681.53 1260.79 682.68 1265.89 678.84 C 1270.83 674.28 1272.02 666.69 1278.02 663.06 C 1284.62 658.55 1288.85 651.70 1292.49 644.76 Z" />
</g>
<g id="#2f0f00ff">
<path fill="#2f0f00" fill-opacity="0" d=" M 836.95 655.76 C 841.62 655.69 846.44 656.97 850.10 659.98 C 852.59 662.15 853.06 667.10 850.05 669.04 C 843.15 674.15 834.23 675.88 827.92 681.91 C 833.73 685.24 840.35 686.60 846.66 688.65 C 851.83 690.24 857.05 692.23 862.59 691.82 C 865.11 690.61 866.19 687.85 867.25 685.46 C 869.54 675.31 881.28 672.41 890.15 671.02 C 899.83 668.97 910.91 671.39 917.43 679.20 C 917.85 686.45 917.08 693.75 917.68 700.99 C 918.60 707.47 925.62 709.63 930.67 712.17 C 936.21 715.05 944.19 717.19 945.79 724.22 C 948.04 733.62 942.85 741.67 938.70 749.48 C 932.76 744.47 924.60 747.11 918.91 751.01 C 915.98 753.30 915.84 757.75 913.10 760.02 C 902.20 761.90 890.76 762.58 880.86 768.04 C 884.01 791.46 887.72 814.82 892.28 838.01 C 890.59 837.77 888.89 837.64 887.26 837.20 C 884.41 832.81 884.94 825.82 879.25 823.88 C 874.20 821.28 868.08 820.94 863.44 817.56 C 857.02 811.27 855.63 800.21 845.98 797.28 C 838.85 795.52 831.81 793.25 825.48 789.43 C 817.01 784.46 806.89 784.26 797.76 781.19 C 795.20 767.89 788.89 755.78 785.24 742.81 C 781.72 730.97 776.72 719.61 773.32 707.74 C 771.29 700.31 776.12 693.67 779.42 687.52 C 784.58 677.72 793.10 670.40 800.18 662.05 C 812.25 658.99 824.54 656.89 836.95 655.76 M 876.88 757.93 C 876.09 759.50 875.35 761.09 874.62 762.69 C 876.42 762.61 878.24 762.57 880.06 762.59 C 879.99 761.47 879.92 760.36 879.88 759.26 C 878.87 758.82 877.87 758.37 876.88 757.93 Z" />
</g>
<g id="#6f0f00ff">
<path fill="#6f0f00" fill-opacity="0" d=" M 918.91 751.01 C 924.60 747.11 932.76 744.47 938.70 749.48 C 937.70 751.51 937.29 753.94 939.78 754.99 C 948.49 760.33 958.47 765.17 962.88 775.05 C 965.00 781.19 955.40 788.99 962.59 793.46 C 968.20 797.79 974.64 794.21 979.97 791.63 C 982.89 797.08 987.58 801.35 992.97 804.31 C 1005.06 806.53 1016.59 800.60 1028.67 802.23 C 1036.83 806.96 1041.45 816.18 1050.35 819.83 C 1056.75 823.11 1064.20 819.88 1070.77 822.27 C 1076.77 826.50 1079.07 835.23 1086.59 837.58 C 1091.61 839.60 1096.68 836.64 1100.95 834.21 C 1102.57 835.52 1104.18 836.85 1105.82 838.15 C 1103.19 841.53 1100.67 844.99 1098.27 848.53 C 1100.96 849.94 1103.98 851.64 1107.04 850.15 C 1111.42 848.42 1116.18 848.44 1120.42 850.58 C 1118.58 853.18 1116.74 855.78 1114.89 858.38 C 1120.22 861.79 1125.65 865.16 1131.61 867.41 C 1140.67 870.81 1148.91 875.95 1157.39 880.56 C 1156.43 884.32 1156.09 888.48 1153.79 891.77 C 1140.57 909.28 1132.69 930.02 1121.56 948.80 C 1119.68 951.81 1116.91 955.04 1113.02 954.86 C 1107.51 954.35 1103.21 950.35 1097.97 949.00 C 1095.16 948.36 1092.35 949.50 1089.54 949.29 C 1082.16 949.43 1075.93 945.18 1069.16 943.06 C 1061.57 942.59 1053.55 942.96 1046.61 946.45 C 1037.14 956.70 1035.78 970.99 1031.00 983.55 C 1025.92 982.06 1020.63 980.05 1017.33 975.68 C 1013.81 971.02 1014.34 964.61 1011.17 959.80 C 1005.09 953.35 996.61 950.39 989.47 945.43 C 985.41 942.73 985.34 937.12 983.55 933.10 C 979.59 930.46 975.39 928.23 971.73 925.24 C 968.20 919.89 964.38 914.72 959.51 910.50 C 948.45 900.71 941.45 887.37 930.66 877.32 C 923.90 867.12 913.75 860.10 904.16 852.81 C 899.87 848.18 895.73 843.30 892.28 838.01 C 887.72 814.82 884.01 791.46 880.86 768.04 C 890.76 762.58 902.20 761.90 913.10 760.02 C 915.84 757.75 915.98 753.30 918.91 751.01 Z" />
</g>
<g id="#af0f00ff">
<path fill="#af0f00" fill-opacity="0" d=" M 876.88 757.93 C 877.87 758.37 878.87 758.82 879.88 759.26 C 879.92 760.36 879.99 761.47 880.06 762.59 C 878.24 762.57 876.42 762.61 874.62 762.69 C 875.35 761.09 876.09 759.50 876.88 757.93 Z" />
</g>
</svg>
