<?xml version="1.0" encoding="UTF-8" ?>
<!DOCTYPE svg PUBLIC "-//W3C//DTD SVG 1.1//EN" "http://www.w3.org/Graphics/SVG/1.1/DTD/svg11.dtd">
<svg width="1920pt" height="1080pt" viewBox="0 0 1920 1080" version="1.1" xmlns="http://www.w3.org/2000/svg">
<g id="#df3fdffe">
<path fill="#df3fdf" fill-opacity="0" d=" M 931.25 190.07 C 933.89 189.72 936.16 189.23 938.92 188.83 C 939.56 191.99 940.23 195.16 940.95 198.31 C 944.75 193.52 950.19 190.19 956.51 190.19 C 962.91 188.50 968.49 192.55 974.22 194.71 C 974.64 197.35 975.23 200.04 975.80 202.68 C 981.16 201.89 986.67 202.42 990.88 206.09 C 990.93 212.55 990.95 219.03 991.28 225.50 C 995.74 219.93 997.38 209.68 1005.92 209.46 C 1012.62 213.03 1020.48 213.36 1027.17 216.96 C 1030.42 218.48 1029.25 222.44 1029.64 225.42 C 1027.43 230.51 1033.12 231.47 1036.02 232.77 C 1036.37 228.75 1037.05 224.64 1039.13 221.13 C 1042.62 222.46 1046.27 223.34 1049.90 224.26 C 1049.56 229.38 1049.26 234.50 1049.11 239.63 C 1052.05 238.77 1053.55 236.14 1054.94 233.64 C 1057.05 237.60 1058.90 241.81 1058.48 246.41 C 1053.58 247.70 1048.61 248.95 1043.50 248.76 C 1039.20 248.97 1034.39 248.97 1030.96 251.92 C 1022.34 260.07 1009.64 260.44 999.18 265.03 C 1004.10 268.42 1007.88 273.18 1009.23 279.08 C 1005.02 279.46 1000.81 279.67 996.61 280.06 C 998.42 280.57 1002.05 281.61 1003.86 282.12 C 996.95 286.28 988.21 282.84 981.43 287.21 C 976.93 289.86 972.23 292.17 967.93 295.12 C 964.11 297.73 963.20 304.45 957.24 303.15 C 949.85 303.05 942.53 301.56 935.14 301.32 C 929.92 301.12 925.13 298.47 919.84 298.76 C 916.35 298.93 913.05 300.21 909.61 300.70 C 898.05 302.40 886.16 300.01 874.79 303.22 C 864.78 305.76 854.44 305.40 844.27 306.54 C 845.55 309.73 846.89 312.91 848.40 316.00 C 842.58 319.74 836.45 315.46 830.33 315.20 C 822.49 314.08 813.47 311.28 806.53 316.55 C 805.01 319.92 805.37 323.73 805.34 327.33 C 801.10 327.29 796.83 327.45 792.66 326.55 C 790.96 315.65 794.64 305.35 797.67 295.11 C 798.55 292.95 801.34 292.64 803.13 291.46 C 802.84 285.26 801.74 279.13 801.58 272.93 C 802.60 273.39 803.64 273.84 804.69 274.30 C 805.40 280.18 806.25 286.05 807.11 291.91 C 813.13 291.77 819.20 291.64 825.23 291.81 C 825.74 289.24 825.93 286.48 827.13 284.10 C 829.02 283.21 831.20 283.42 833.25 283.27 C 832.86 276.92 831.24 270.65 831.36 264.28 C 832.84 262.18 835.37 261.29 837.58 260.17 C 837.70 258.22 837.80 256.28 837.95 254.34 C 840.79 254.41 843.65 254.40 846.50 254.30 C 842.75 237.74 842.41 220.64 840.91 203.78 C 843.26 204.20 845.62 204.66 847.98 205.11 C 849.86 220.97 850.59 236.93 851.99 252.84 C 851.39 252.80 850.18 252.72 849.58 252.68 C 854.13 260.16 852.75 269.29 854.16 277.59 C 860.25 278.13 860.84 271.11 860.64 267.02 C 860.53 255.28 859.20 243.60 858.08 231.93 C 858.80 231.97 860.24 232.05 860.96 232.09 C 862.22 245.48 862.69 258.93 864.15 272.31 C 867.48 272.84 870.82 272.31 873.93 271.01 C 873.69 269.31 873.44 267.62 873.21 265.93 C 873.80 266.00 874.99 266.14 875.58 266.21 C 876.01 267.83 876.47 269.44 876.94 271.06 C 877.78 270.10 878.62 269.14 879.48 268.19 C 882.93 268.40 886.40 268.65 889.87 268.91 C 890.56 266.02 891.28 263.13 892.06 260.25 C 892.42 262.11 893.15 265.84 893.52 267.70 C 896.16 265.85 898.52 263.54 898.82 259.98 C 898.96 261.35 899.09 262.72 899.25 264.09 C 901.54 263.33 903.84 262.59 906.16 261.90 C 906.06 255.31 905.56 248.75 905.61 242.17 C 905.53 240.52 906.75 239.29 907.60 238.01 C 909.07 245.91 908.88 253.99 909.20 261.99 C 909.67 261.99 910.61 261.99 911.08 261.98 C 910.85 253.41 910.32 244.85 909.99 236.28 C 913.01 236.64 915.60 238.24 918.00 240.01 C 917.94 247.00 918.00 254.00 918.05 261.00 L 923.09 260.98 C 922.56 252.49 922.02 243.97 922.26 235.46 C 922.87 244.01 923.59 252.55 924.13 261.10 C 925.28 260.39 926.44 259.69 927.61 258.98 C 927.52 257.89 927.44 256.81 927.38 255.72 C 928.08 257.06 928.77 258.41 929.45 259.78 C 930.23 259.43 931.02 259.08 931.81 258.71 C 931.92 257.60 932.03 256.49 932.15 255.39 C 931.60 255.43 930.50 255.50 929.95 255.54 C 930.03 244.02 930.03 232.51 929.77 221.00 C 928.89 210.63 932.73 200.42 931.25 190.07 M 915.23 247.97 C 914.16 248.57 914.16 250.42 915.23 251.03 C 916.99 251.34 916.99 247.65 915.23 247.97 M 915.12 253.53 C 912.82 256.96 919.05 254.31 915.12 253.53 Z" />
</g>
<g id="#df3fdfff">
<path fill="#df3fdf" fill-opacity="0" d=" M 868.94 190.98 C 871.36 190.66 873.78 190.23 876.20 189.69 C 877.78 202.41 878.05 215.22 879.26 227.97 C 879.10 231.55 880.66 235.61 878.92 239.05 C 877.44 239.06 874.47 239.09 872.99 239.11 C 871.09 223.13 870.87 206.97 868.94 190.98 Z" />
<path fill="#df3fdf" fill-opacity="0" d=" M 1061.74 238.52 C 1062.28 240.70 1062.80 242.97 1062.36 245.21 C 1061.99 245.34 1061.24 245.59 1060.87 245.72 C 1061.08 243.92 1061.52 240.32 1061.74 238.52 Z" />
</g>
<g id="#5f00dffe">
<path fill="#5f00df" fill-opacity="0" d=" M 1062.36 245.21 C 1069.97 241.94 1078.31 242.43 1086.37 241.61 C 1094.65 240.93 1102.50 244.26 1110.52 245.75 C 1114.61 250.47 1121.63 251.87 1124.45 257.75 C 1127.99 262.84 1126.59 269.60 1126.32 275.33 C 1127.48 274.34 1128.66 273.34 1129.83 272.34 C 1129.95 272.80 1130.20 273.71 1130.32 274.17 C 1133.00 274.64 1135.65 275.26 1138.32 275.87 C 1137.48 286.54 1135.71 297.11 1134.05 307.67 C 1140.21 311.19 1146.70 314.12 1153.01 317.36 C 1156.98 320.92 1159.06 326.31 1163.59 329.36 C 1166.87 331.29 1170.41 332.75 1173.88 334.38 C 1171.95 342.86 1171.26 351.65 1168.88 360.01 C 1164.26 363.30 1158.29 364.24 1153.85 367.81 C 1148.82 374.38 1146.84 382.41 1145.75 390.47 C 1140.15 389.61 1133.29 387.04 1128.65 391.70 C 1124.27 384.03 1113.97 381.85 1111.31 373.04 C 1107.91 374.32 1104.65 376.10 1101.13 376.95 C 1096.98 377.11 1092.80 375.29 1088.76 377.20 C 1084.65 378.04 1080.43 380.69 1076.22 378.83 C 1070.78 376.53 1064.78 379.08 1059.26 377.25 C 1054.59 375.74 1050.13 373.30 1045.05 373.56 C 1040.30 372.95 1035.41 374.02 1030.76 372.86 C 1027.31 370.82 1024.38 367.27 1020.03 367.35 C 1016.50 366.90 1013.74 369.46 1011.23 371.53 C 1004.98 371.88 998.49 370.08 992.44 372.16 C 981.06 375.91 969.57 379.38 958.24 383.23 C 953.47 384.57 952.06 389.66 948.81 392.77 C 946.70 394.90 944.23 396.63 941.85 398.42 C 940.74 396.46 939.95 394.25 938.39 392.67 C 932.31 390.02 925.00 390.52 919.51 386.47 C 916.08 383.90 912.91 381.02 909.68 378.23 C 910.88 376.98 912.08 375.72 913.31 374.49 C 912.27 372.26 911.24 370.01 910.24 367.79 C 918.12 365.60 926.27 365.04 934.40 365.05 C 934.48 360.98 934.14 356.90 932.96 353.01 C 935.00 350.68 938.45 348.30 937.24 344.74 C 935.36 337.12 934.96 329.17 931.83 321.88 C 927.47 320.93 922.35 320.81 919.31 317.09 C 915.38 312.08 911.87 306.68 909.61 300.70 C 913.05 300.21 916.35 298.93 919.84 298.76 C 925.13 298.47 929.92 301.12 935.14 301.32 C 942.53 301.56 949.85 303.05 957.24 303.15 C 963.20 304.45 964.11 297.73 967.93 295.12 C 972.23 292.17 976.93 289.86 981.43 287.21 C 988.21 282.84 996.95 286.28 1003.86 282.12 C 1002.05 281.61 998.42 280.57 996.61 280.06 C 1000.81 279.67 1005.02 279.46 1009.23 279.08 C 1007.88 273.18 1004.10 268.42 999.18 265.03 C 1009.64 260.44 1022.34 260.07 1030.96 251.92 C 1034.39 248.97 1039.20 248.97 1043.50 248.76 C 1048.61 248.95 1053.58 247.70 1058.48 246.41 C 1059.07 246.24 1060.27 245.89 1060.87 245.72 C 1061.24 245.59 1061.99 245.34 1062.36 245.21 Z" />
</g>
<g id="#9fbf1fff">
<path fill="#9fbf1f" fill-opacity="0" d=" M 775.20 303.36 C 778.60 300.78 780.97 295.65 785.94 296.41 C 786.85 304.91 787.31 313.50 789.31 321.84 C 789.79 323.73 790.98 325.50 792.66 326.55 C 796.83 327.45 801.10 327.29 805.34 327.33 C 805.37 323.73 805.01 319.92 806.53 316.55 C 813.47 311.28 822.49 314.08 830.33 315.20 C 836.45 315.46 842.58 319.74 848.40 316.00 C 856.04 313.02 864.43 314.84 872.24 315.85 C 874.76 316.41 877.56 316.81 879.59 318.54 C 880.83 320.19 881.36 322.24 882.08 324.16 C 879.91 325.60 877.67 326.97 875.84 328.83 C 876.87 330.48 878.16 331.95 879.47 333.39 C 875.60 335.10 872.00 337.30 868.30 339.31 C 870.89 341.82 873.45 344.43 875.49 347.44 C 868.73 353.30 858.30 356.27 849.97 351.94 C 845.47 349.68 840.38 349.40 835.46 348.96 C 837.57 352.48 839.58 357.84 836.21 361.22 C 829.65 364.05 822.39 364.74 815.40 365.94 C 815.03 368.33 814.77 370.97 812.87 372.71 C 808.96 376.70 805.57 381.20 802.97 386.15 C 801.14 388.75 800.25 392.53 797.03 393.81 C 794.35 394.95 791.43 395.31 788.59 395.83 C 788.39 396.83 788.19 397.83 788.00 398.85 C 783.19 397.08 778.32 395.44 773.29 394.41 C 772.90 395.89 772.54 397.38 772.16 398.88 C 770.68 400.10 769.19 401.30 767.72 402.53 C 760.94 402.81 754.95 399.14 748.32 398.42 C 746.52 394.18 743.26 390.81 741.37 386.66 C 739.06 378.71 738.72 370.28 738.80 362.05 C 747.46 357.71 756.63 354.56 765.78 351.41 C 764.84 344.95 763.99 338.48 763.05 332.02 C 764.70 330.01 766.35 328.01 767.99 325.99 C 767.20 321.34 766.68 316.66 765.90 312.02 C 768.13 311.99 771.22 312.29 773.69 312.51 C 774.38 309.74 772.37 305.51 775.20 303.36 Z" />
</g>
<g id="#dfbf5fff">
<path fill="#dfbf5f" fill-opacity="0" d=" M 874.79 303.22 C 886.16 300.01 898.05 302.40 909.61 300.70 C 911.87 306.68 915.38 312.08 919.31 317.09 C 922.35 320.81 927.47 320.93 931.83 321.88 C 934.96 329.17 935.36 337.12 937.24 344.74 C 938.45 348.30 935.00 350.68 932.96 353.01 C 934.14 356.90 934.48 360.98 934.40 365.05 C 926.27 365.04 918.12 365.60 910.24 367.79 C 911.24 370.01 912.27 372.26 913.31 374.49 C 912.08 375.72 910.88 376.98 909.68 378.23 C 912.91 381.02 916.08 383.90 919.51 386.47 C 925.00 390.52 932.31 390.02 938.39 392.67 C 939.95 394.25 940.74 396.46 941.85 398.42 C 942.29 399.86 942.65 401.33 943.04 402.80 C 938.16 402.26 933.33 401.04 928.41 401.34 C 925.29 401.52 923.16 404.09 921.01 406.03 C 916.66 410.51 910.52 412.67 906.19 417.17 C 903.02 420.40 899.44 423.20 895.59 425.57 C 886.98 425.87 878.40 425.28 869.85 424.40 C 862.99 423.71 856.39 426.66 849.52 425.62 C 844.79 425.32 840.08 425.87 835.36 425.98 C 832.86 426.15 831.04 424.14 829.55 422.43 C 826.03 418.48 825.89 412.83 823.40 408.34 C 816.01 406.06 807.62 409.80 802.97 415.76 C 800.40 419.26 797.21 422.22 794.48 425.58 C 792.92 426.26 791.40 427.05 789.88 427.82 C 785.55 420.08 777.83 415.36 772.66 408.30 C 773.84 407.14 775.04 406.00 776.23 404.85 C 774.88 402.85 773.50 400.87 772.16 398.88 C 772.54 397.38 772.90 395.89 773.29 394.41 C 778.32 395.44 783.19 397.08 788.00 398.85 C 788.19 397.83 788.39 396.83 788.59 395.83 C 791.43 395.31 794.35 394.95 797.03 393.81 C 800.25 392.53 801.14 388.75 802.97 386.15 C 805.57 381.20 808.96 376.70 812.87 372.71 C 814.77 370.97 815.03 368.33 815.40 365.94 C 822.39 364.74 829.65 364.05 836.21 361.22 C 839.58 357.84 837.57 352.48 835.46 348.96 C 840.38 349.40 845.47 349.68 849.97 351.94 C 858.30 356.27 868.73 353.30 875.49 347.44 C 873.45 344.43 870.89 341.82 868.30 339.31 C 872.00 337.30 875.60 335.10 879.47 333.39 C 878.16 331.95 876.87 330.48 875.84 328.83 C 877.67 326.97 879.91 325.60 882.08 324.16 C 881.36 322.24 880.83 320.19 879.59 318.54 C 877.56 316.81 874.76 316.41 872.24 315.85 C 864.43 314.84 856.04 313.02 848.40 316.00 C 846.89 312.91 845.55 309.73 844.27 306.54 C 854.44 305.40 864.78 305.76 874.79 303.22 Z" />
</g>
<g id="#9fbf5fff">
<path fill="#9fbf5f" fill-opacity="0" d=" M 1011.23 371.53 C 1013.74 369.46 1016.50 366.90 1020.03 367.35 C 1024.38 367.27 1027.31 370.82 1030.76 372.86 C 1035.41 374.02 1040.30 372.95 1045.05 373.56 C 1050.13 373.30 1054.59 375.74 1059.26 377.25 C 1064.78 379.08 1070.78 376.53 1076.22 378.83 C 1080.43 380.69 1084.65 378.04 1088.76 377.20 C 1092.80 375.29 1096.98 377.11 1101.13 376.95 C 1104.65 376.10 1107.91 374.32 1111.31 373.04 C 1113.97 381.85 1124.27 384.03 1128.65 391.70 C 1132.88 401.26 1135.51 411.43 1138.56 421.41 C 1140.44 427.13 1136.79 432.95 1137.67 438.77 C 1138.37 442.73 1138.88 446.71 1139.79 450.63 C 1140.99 454.60 1146.30 455.02 1147.83 458.80 C 1148.83 466.24 1156.05 468.65 1161.85 471.55 C 1160.34 478.33 1159.69 485.28 1158.02 492.01 C 1157.34 495.40 1154.54 497.59 1151.93 499.53 C 1153.44 499.65 1154.98 499.79 1156.51 499.95 C 1156.54 500.51 1156.61 501.63 1156.64 502.19 C 1159.68 501.60 1162.66 500.07 1165.82 499.95 C 1171.27 501.04 1176.38 503.52 1181.91 504.36 C 1187.27 505.09 1192.58 506.18 1197.84 507.49 C 1199.78 508.57 1202.14 510.28 1201.72 512.83 C 1201.55 516.68 1200.45 520.41 1199.74 524.18 C 1194.72 524.39 1189.19 524.98 1185.67 528.98 C 1183.52 528.25 1181.37 527.49 1179.28 526.63 C 1178.83 527.26 1178.40 527.90 1177.97 528.55 C 1176.94 528.08 1175.91 527.62 1174.89 527.18 C 1175.38 530.08 1177.71 531.86 1179.93 533.51 C 1178.83 538.71 1177.50 543.89 1175.05 548.63 C 1175.93 548.52 1176.81 548.42 1177.72 548.33 C 1179.98 552.80 1183.87 555.92 1188.90 556.38 C 1187.75 565.87 1186.21 575.39 1183.30 584.51 C 1181.43 588.17 1180.07 592.02 1178.67 595.88 C 1178.10 597.80 1175.80 598.03 1174.28 598.86 C 1170.87 600.13 1168.49 603.02 1166.22 605.71 C 1167.37 597.79 1157.43 597.05 1151.75 597.52 C 1152.72 591.77 1155.41 585.83 1153.15 580.05 C 1150.22 572.02 1149.51 561.39 1140.99 556.99 C 1136.77 554.06 1132.57 551.17 1128.41 548.20 C 1125.80 550.51 1122.79 553.42 1118.99 552.00 C 1115.15 550.67 1111.15 550.27 1107.61 552.67 C 1104.48 547.66 1101.32 542.69 1098.01 537.81 C 1093.34 541.54 1087.02 543.64 1081.09 542.22 C 1077.77 541.53 1074.70 539.74 1071.28 539.61 C 1067.29 540.36 1065.04 544.20 1062.70 547.13 C 1056.65 548.32 1053.06 543.59 1049.57 539.73 C 1048.85 540.67 1048.18 541.63 1047.50 542.59 C 1048.29 544.35 1049.08 546.12 1049.88 547.88 C 1045.77 548.63 1040.49 547.90 1037.32 551.30 C 1035.31 553.45 1037.94 556.19 1038.53 558.47 C 1035.14 557.82 1031.70 556.95 1028.24 557.42 C 1024.85 557.77 1021.19 558.91 1018.11 556.63 C 1013.36 554.43 1009.17 549.80 1003.57 550.23 C 992.10 550.37 980.64 552.91 970.24 557.74 C 968.75 554.57 967.39 551.34 966.16 548.07 C 957.01 549.88 951.24 540.14 942.52 539.56 C 937.94 539.19 933.34 539.57 928.77 539.54 C 924.83 539.46 921.31 537.47 917.84 535.83 C 920.90 533.97 923.98 532.10 927.06 530.24 C 924.20 526.85 920.91 521.21 915.76 522.85 C 909.70 524.65 903.36 525.47 897.40 527.61 C 897.51 526.10 897.63 524.60 897.78 523.11 C 896.85 522.38 895.94 521.66 895.02 520.95 C 896.00 519.40 897.03 517.85 897.66 516.12 C 894.68 512.90 891.15 509.70 886.82 508.55 C 880.82 507.60 874.82 506.62 869.02 504.77 C 870.09 503.50 871.15 502.24 872.21 500.96 C 869.93 501.61 867.72 502.62 865.36 502.89 C 862.67 501.79 861.89 498.72 861.81 496.10 C 860.98 496.56 860.16 497.02 859.35 497.49 C 854.65 493.76 848.75 496.30 843.41 495.25 C 847.27 491.43 852.89 487.60 852.52 481.48 C 850.43 476.71 844.79 475.77 840.53 473.89 C 842.74 470.70 845.76 468.16 848.20 465.15 C 851.44 461.37 850.12 455.35 853.94 451.94 C 857.37 449.62 861.84 450.23 865.74 449.61 C 868.76 446.94 872.20 444.83 875.49 442.51 C 882.90 437.72 888.16 430.36 895.59 425.57 C 899.44 423.20 903.02 420.40 906.19 417.17 C 910.52 412.67 916.66 410.51 921.01 406.03 C 923.16 404.09 925.29 401.52 928.41 401.34 C 933.33 401.04 938.16 402.26 943.04 402.80 C 942.65 401.33 942.29 399.86 941.85 398.42 C 944.23 396.63 946.70 394.90 948.81 392.77 C 952.06 389.66 953.47 384.57 958.24 383.23 C 969.57 379.38 981.06 375.91 992.44 372.16 C 998.49 370.08 1004.98 371.88 1011.23 371.53 Z" />
</g>
<g id="#9f3f9fff">
<path fill="#9f3f9f" fill-opacity="0" d=" M 767.72 402.53 C 769.19 401.30 770.68 400.10 772.16 398.88 C 773.50 400.87 774.88 402.85 776.23 404.85 C 775.04 406.00 773.84 407.14 772.66 408.30 C 777.83 415.36 785.55 420.08 789.88 427.82 C 791.40 427.05 792.92 426.26 794.48 425.58 C 796.11 425.02 797.78 424.54 799.44 424.05 C 799.21 429.46 799.55 434.97 798.09 440.24 C 796.81 443.98 798.01 448.44 801.14 450.91 C 804.72 453.88 807.96 458.25 812.87 458.82 C 817.78 457.93 821.47 454.05 825.25 451.07 C 829.37 447.91 825.37 440.40 831.24 438.71 C 837.94 435.22 844.51 431.47 849.52 425.62 C 856.39 426.66 862.99 423.71 869.85 424.40 C 878.40 425.28 886.98 425.87 895.59 425.57 C 888.16 430.36 882.90 437.72 875.49 442.51 C 872.20 444.83 868.76 446.94 865.74 449.61 C 861.84 450.23 857.37 449.62 853.94 451.94 C 850.12 455.35 851.44 461.37 848.20 465.15 C 845.76 468.16 842.74 470.70 840.53 473.89 C 844.79 475.77 850.43 476.71 852.52 481.48 C 852.89 487.60 847.27 491.43 843.41 495.25 C 848.75 496.30 854.65 493.76 859.35 497.49 C 860.16 497.02 860.98 496.56 861.81 496.10 C 861.89 498.72 862.67 501.79 865.36 502.89 C 867.72 502.62 869.93 501.61 872.21 500.96 C 871.15 502.24 870.09 503.50 869.02 504.77 C 874.82 506.62 880.82 507.60 886.82 508.55 C 891.15 509.70 894.68 512.90 897.66 516.12 C 897.03 517.85 896.00 519.40 895.02 520.95 C 895.94 521.66 896.85 522.38 897.78 523.11 C 897.63 524.60 897.51 526.10 897.40 527.61 C 893.89 529.35 889.42 530.92 887.82 534.90 C 885.63 539.48 887.00 544.65 886.13 549.47 C 884.20 552.45 880.32 553.13 877.31 554.63 C 872.63 556.36 869.80 560.90 865.33 562.98 C 859.86 565.69 853.73 568.13 849.98 573.20 C 853.45 579.71 862.59 580.51 865.98 587.22 C 863.38 590.09 859.68 592.08 857.68 595.47 C 856.31 602.65 861.45 608.50 866.18 613.16 C 860.53 613.58 854.45 615.52 849.11 612.88 C 844.91 609.80 842.45 604.48 837.42 602.52 C 821.94 597.20 804.57 607.65 789.66 599.28 C 782.56 595.15 774.44 593.36 766.42 592.05 C 760.77 590.49 755.07 593.23 751.52 597.53 C 748.82 600.73 744.85 602.25 740.93 603.32 C 738.43 594.08 736.13 584.76 734.52 575.34 C 733.66 570.29 738.36 566.59 742.17 564.31 C 746.81 561.99 748.86 556.93 752.94 553.96 C 756.72 551.17 760.51 548.37 764.47 545.82 C 764.43 539.89 762.66 534.10 762.45 528.21 C 766.05 521.52 772.76 517.55 779.44 514.45 C 775.11 512.63 770.51 511.51 765.99 510.39 C 764.28 493.21 757.86 476.94 756.68 459.69 C 756.72 457.74 757.30 455.87 757.79 454.01 C 752.64 445.55 752.45 435.29 750.22 425.86 C 751.73 424.77 754.53 424.16 754.48 421.84 C 754.49 417.53 753.38 413.29 753.24 408.99 C 755.83 408.13 758.66 408.82 761.24 408.03 C 763.57 406.41 765.51 404.30 767.72 402.53 Z" />
</g>
<g id="#9f3fdfff">
<path fill="#9f3fdf" fill-opacity="0" d=" M 802.97 415.76 C 807.62 409.80 816.01 406.06 823.40 408.34 C 825.89 412.83 826.03 418.48 829.55 422.43 C 831.04 424.14 832.86 426.15 835.36 425.98 C 840.08 425.87 844.79 425.32 849.52 425.62 C 844.51 431.47 837.94 435.22 831.24 438.71 C 825.37 440.40 829.37 447.91 825.25 451.07 C 821.47 454.05 817.78 457.93 812.87 458.82 C 807.96 458.25 804.72 453.88 801.14 450.91 C 798.01 448.44 796.81 443.98 798.09 440.24 C 799.55 434.97 799.21 429.46 799.44 424.05 C 797.78 424.54 796.11 425.02 794.48 425.58 C 797.21 422.22 800.40 419.26 802.97 415.76 Z" />
</g>
<g id="#009f9fff">
<path fill="#009f9f" fill-opacity="0" d=" M 915.76 522.85 C 920.91 521.21 924.20 526.85 927.06 530.24 C 923.98 532.10 920.90 533.97 917.84 535.83 C 921.31 537.47 924.83 539.46 928.77 539.54 C 933.34 539.57 937.94 539.19 942.52 539.56 C 951.24 540.14 957.01 549.88 966.16 548.07 C 967.39 551.34 968.75 554.57 970.24 557.74 C 980.64 552.91 992.10 550.37 1003.57 550.23 C 1009.17 549.80 1013.36 554.43 1018.11 556.63 C 1021.19 558.91 1024.85 557.77 1028.24 557.42 C 1031.70 556.95 1035.14 557.82 1038.53 558.47 C 1037.94 556.19 1035.31 553.45 1037.32 551.30 C 1040.49 547.90 1045.77 548.63 1049.88 547.88 C 1052.68 554.71 1061.40 558.00 1062.16 565.88 C 1058.81 567.77 1054.31 566.81 1051.34 569.33 C 1048.29 574.80 1046.47 580.99 1042.28 585.82 C 1044.71 588.65 1047.50 591.53 1048.29 595.30 C 1047.63 598.36 1044.72 600.85 1045.41 604.18 C 1045.59 606.34 1046.08 608.46 1046.58 610.58 C 1044.28 610.50 1041.97 610.45 1039.68 610.44 C 1040.93 613.35 1042.30 616.21 1043.74 619.04 C 1050.66 617.22 1057.89 615.87 1065.05 616.29 C 1068.45 618.00 1075.09 620.45 1073.36 625.28 C 1071.70 630.00 1067.93 633.47 1064.83 637.24 C 1062.82 636.61 1060.84 635.88 1058.74 635.75 C 1058.60 638.71 1058.99 641.67 1059.22 644.63 C 1056.18 644.46 1053.03 644.09 1050.10 645.09 C 1045.27 647.22 1044.20 654.41 1038.55 655.07 C 1029.38 656.65 1020.07 657.24 1010.88 658.70 C 1007.26 658.88 1003.60 659.48 1000.55 661.58 C 995.48 664.92 989.24 664.73 983.44 664.44 C 983.40 665.80 983.36 667.17 983.34 668.55 C 981.38 666.86 979.57 665.00 977.78 663.15 C 974.38 663.00 971.01 662.47 967.73 661.63 C 967.28 662.40 966.84 663.18 966.42 663.97 C 962.22 662.76 957.89 662.03 953.57 661.43 C 950.21 654.70 948.55 647.24 948.17 639.76 C 947.88 636.35 951.97 635.11 953.87 632.94 C 958.58 627.54 960.33 617.87 954.12 612.84 C 948.22 608.35 939.59 607.53 933.09 611.37 C 926.38 615.29 919.36 609.94 912.41 609.95 C 911.24 607.43 910.45 604.63 908.67 602.47 C 906.01 600.83 902.62 601.70 899.68 601.72 C 901.12 604.98 902.68 608.19 904.11 611.46 C 901.21 610.27 898.26 609.07 895.32 608.05 C 890.68 613.80 885.50 621.69 877.20 621.43 C 875.66 621.24 872.58 620.87 871.05 620.68 C 869.67 618.02 868.18 615.40 866.18 613.16 C 861.45 608.50 856.31 602.65 857.68 595.47 C 859.68 592.08 863.38 590.09 865.98 587.22 C 862.59 580.51 853.45 579.71 849.98 573.20 C 853.73 568.13 859.86 565.69 865.33 562.98 C 869.80 560.90 872.63 556.36 877.31 554.63 C 880.32 553.13 884.20 552.45 886.13 549.47 C 887.00 544.65 885.63 539.48 887.82 534.90 C 889.42 530.92 893.89 529.35 897.40 527.61 C 903.36 525.47 909.70 524.65 915.76 522.85 Z" />
</g>
<g id="#1fbf9fff">
<path fill="#1fbf9f" fill-opacity="0" d=" M 1081.09 542.22 C 1087.02 543.64 1093.34 541.54 1098.01 537.81 C 1101.32 542.69 1104.48 547.66 1107.61 552.67 C 1111.15 550.27 1115.15 550.67 1118.99 552.00 C 1122.79 553.42 1125.80 550.51 1128.41 548.20 C 1132.57 551.17 1136.77 554.06 1140.99 556.99 C 1149.51 561.39 1150.22 572.02 1153.15 580.05 C 1155.41 585.83 1152.72 591.77 1151.75 597.52 C 1157.43 597.05 1167.37 597.79 1166.22 605.71 C 1164.80 611.58 1158.82 616.93 1160.90 623.31 C 1164.31 626.87 1168.72 629.48 1173.09 631.82 C 1176.46 633.06 1180.19 632.41 1183.67 633.36 C 1186.33 636.62 1186.94 641.01 1188.33 644.89 C 1189.84 648.56 1188.64 652.57 1187.72 656.21 C 1187.28 660.68 1179.36 656.20 1177.53 658.77 C 1180.71 660.76 1184.68 661.86 1187.01 664.97 C 1188.96 667.42 1190.91 669.87 1192.93 672.27 C 1191.93 676.98 1191.62 682.38 1187.68 685.72 C 1183.46 689.37 1185.08 696.23 1180.89 699.89 C 1177.99 702.12 1173.21 704.13 1170.50 700.60 C 1168.11 697.76 1164.47 698.04 1161.11 698.34 C 1160.64 696.78 1160.21 695.23 1159.80 693.68 C 1151.39 693.16 1142.12 688.83 1140.05 679.98 C 1135.39 679.86 1131.29 682.06 1127.05 683.61 C 1123.55 678.13 1120.92 670.29 1125.89 664.80 C 1123.86 662.57 1122.16 660.08 1120.82 657.39 C 1117.90 658.04 1114.82 659.21 1111.87 658.10 C 1107.84 656.81 1103.78 654.86 1099.45 655.67 C 1090.79 657.23 1082.10 654.94 1073.67 653.11 C 1068.80 652.21 1064.58 649.48 1061.01 646.17 C 1060.56 645.79 1059.67 645.01 1059.22 644.63 C 1058.99 641.67 1058.60 638.71 1058.74 635.75 C 1060.84 635.88 1062.82 636.61 1064.83 637.24 C 1067.93 633.47 1071.70 630.00 1073.36 625.28 C 1075.09 620.45 1068.45 618.00 1065.05 616.29 C 1057.89 615.87 1050.66 617.22 1043.74 619.04 C 1042.30 616.21 1040.93 613.35 1039.68 610.44 C 1041.97 610.45 1044.28 610.50 1046.58 610.58 C 1046.08 608.46 1045.59 606.34 1045.41 604.18 C 1044.72 600.85 1047.63 598.36 1048.29 595.30 C 1047.50 591.53 1044.71 588.65 1042.28 585.82 C 1046.47 580.99 1048.29 574.80 1051.34 569.33 C 1054.31 566.81 1058.81 567.77 1062.16 565.88 C 1061.40 558.00 1052.68 554.71 1049.88 547.88 C 1049.08 546.12 1048.29 544.35 1047.50 542.59 C 1048.18 541.63 1048.85 540.67 1049.57 539.73 C 1053.06 543.59 1056.65 548.32 1062.70 547.13 C 1065.04 544.20 1067.29 540.36 1071.28 539.61 C 1074.70 539.74 1077.77 541.53 1081.09 542.22 Z" />
</g>
<g id="#5f3f5fff">
<path fill="#5f3f5f" fill-opacity="0" d=" M 751.52 597.53 C 755.07 593.23 760.77 590.49 766.42 592.05 C 774.44 593.36 782.56 595.15 789.66 599.28 C 804.57 607.65 821.94 597.20 837.42 602.52 C 842.45 604.48 844.91 609.80 849.11 612.88 C 854.45 615.52 860.53 613.58 866.18 613.16 C 868.18 615.40 869.67 618.02 871.05 620.68 C 872.58 620.87 875.66 621.24 877.20 621.43 C 873.49 626.48 869.25 631.14 865.95 636.49 C 867.25 636.83 868.56 637.16 869.89 637.50 C 869.87 638.55 869.86 639.60 869.87 640.66 C 864.96 643.47 858.29 646.82 860.11 653.89 C 862.05 659.70 868.12 662.61 871.80 667.24 C 878.58 674.46 877.95 685.31 883.03 693.44 C 886.23 695.12 890.20 693.94 893.51 695.40 C 895.79 697.47 896.94 700.48 898.46 703.11 C 902.23 708.66 901.25 715.54 900.51 721.83 C 900.19 723.78 900.03 725.90 898.79 727.54 C 895.20 727.73 891.68 726.91 888.14 726.52 C 884.47 724.05 880.95 719.49 876.00 720.33 C 869.91 721.38 866.82 727.42 863.11 731.68 C 859.50 729.39 856.29 725.41 851.71 725.33 C 850.16 727.12 848.99 729.19 847.74 731.19 C 843.82 732.32 840.06 733.92 836.18 735.14 C 836.14 730.34 837.50 725.72 839.74 721.52 C 832.79 722.60 825.90 723.99 818.93 724.92 C 814.50 725.63 807.50 725.07 807.50 731.26 C 803.32 731.77 798.56 731.81 795.31 728.70 C 791.29 724.86 785.42 724.85 780.30 723.68 C 778.83 716.12 776.74 708.48 777.31 700.70 C 777.36 697.16 780.69 695.12 783.22 693.24 C 788.92 689.74 793.34 684.52 799.33 681.44 C 794.34 681.59 789.31 682.24 784.36 681.49 C 780.23 678.05 780.76 671.84 778.62 667.33 C 776.24 666.04 773.40 666.31 770.80 665.93 C 770.29 663.60 769.72 661.15 769.10 658.91 C 759.97 655.00 749.81 654.84 740.11 656.08 C 732.51 657.03 724.79 656.61 717.28 655.13 C 716.53 650.97 715.47 646.88 714.17 642.86 C 716.81 638.53 719.93 634.49 722.35 630.05 C 720.64 623.81 716.48 618.23 716.83 611.42 C 724.80 608.53 732.89 606.01 740.93 603.32 C 744.85 602.25 748.82 600.73 751.52 597.53 Z" />
</g>
<g id="#5f3f9fff">
<path fill="#5f3f9f" fill-opacity="0" d=" M 899.68 601.72 C 902.62 601.70 906.01 600.83 908.67 602.47 C 910.45 604.63 911.24 607.43 912.41 609.95 C 919.36 609.94 926.38 615.29 933.09 611.37 C 939.59 607.53 948.22 608.35 954.12 612.84 C 960.33 617.87 958.58 627.54 953.87 632.94 C 951.97 635.11 947.88 636.35 948.17 639.76 C 948.55 647.24 950.21 654.70 953.57 661.43 C 948.71 664.51 945.31 669.15 941.41 673.24 C 938.02 674.43 934.25 673.08 930.74 672.77 C 929.80 676.41 930.08 680.62 927.80 683.81 C 922.01 689.58 913.60 691.27 907.25 696.24 C 904.33 698.55 901.37 700.82 898.46 703.11 C 896.94 700.48 895.79 697.47 893.51 695.40 C 890.20 693.94 886.23 695.12 883.03 693.44 C 877.95 685.31 878.58 674.46 871.80 667.24 C 868.12 662.61 862.05 659.70 860.11 653.89 C 858.29 646.82 864.96 643.47 869.87 640.66 C 869.86 639.60 869.87 638.55 869.89 637.50 C 868.56 637.16 867.25 636.83 865.95 636.49 C 869.25 631.14 873.49 626.48 877.20 621.43 C 885.50 621.69 890.68 613.80 895.32 608.05 C 898.26 609.07 901.21 610.27 904.11 611.46 C 902.68 608.19 901.12 604.98 899.68 601.72 Z" />
</g>
<g id="#7f1f1fff">
<path fill="#7f1f1f" fill-opacity="0" d=" M 1050.10 645.09 C 1053.03 644.09 1056.18 644.46 1059.22 644.63 C 1059.67 645.01 1060.56 645.79 1061.01 646.17 C 1061.27 647.37 1061.55 648.57 1061.84 649.78 C 1059.74 651.95 1057.67 654.15 1055.63 656.37 C 1059.73 658.71 1065.05 660.29 1066.70 665.22 C 1068.65 670.60 1071.16 677.35 1067.57 682.60 C 1060.50 688.04 1051.69 690.18 1043.53 693.43 C 1045.39 696.54 1047.64 699.41 1049.40 702.59 C 1051.05 705.31 1048.58 708.25 1047.88 710.89 C 1051.79 711.90 1055.84 712.30 1059.84 712.90 C 1062.59 717.09 1063.15 722.15 1062.12 726.99 C 1061.96 728.02 1061.80 729.06 1061.64 730.11 C 1059.32 732.23 1058.37 735.28 1057.43 738.19 C 1053.86 738.64 1050.44 739.81 1047.23 741.39 C 1038.66 738.16 1029.35 739.18 1020.41 739.05 C 1017.82 745.96 1014.22 752.41 1011.42 759.23 C 1011.26 759.07 1010.93 758.76 1010.77 758.60 C 1005.12 748.70 993.32 744.07 982.36 743.59 C 978.64 743.43 975.95 740.65 973.00 738.77 C 972.81 738.86 972.42 739.03 972.23 739.12 C 970.33 739.96 968.44 740.95 966.37 741.28 C 963.81 738.74 963.02 735.03 961.67 731.81 C 959.02 731.57 956.38 731.40 953.73 731.36 C 957.41 725.85 961.12 720.35 964.06 714.39 C 962.17 711.00 960.04 707.47 960.02 703.47 C 960.00 697.33 961.18 691.14 959.86 685.05 C 958.84 682.45 956.54 680.67 955.13 678.32 C 959.28 673.86 963.85 669.61 966.42 663.97 C 966.84 663.18 967.28 662.40 967.73 661.63 C 971.01 662.47 974.38 663.00 977.78 663.15 C 979.57 665.00 981.38 666.86 983.34 668.55 C 983.36 667.17 983.40 665.80 983.44 664.44 C 989.24 664.73 995.48 664.92 1000.55 661.58 C 1003.60 659.48 1007.26 658.88 1010.88 658.70 C 1020.07 657.24 1029.38 656.65 1038.55 655.07 C 1044.20 654.41 1045.27 647.22 1050.10 645.09 Z" />
</g>
<g id="#df00dfff">
<path fill="#df00df" fill-opacity="0" d=" M 1061.01 646.17 C 1064.58 649.48 1068.80 652.21 1073.67 653.11 C 1082.10 654.94 1090.79 657.23 1099.45 655.67 C 1103.78 654.86 1107.84 656.81 1111.87 658.10 C 1114.82 659.21 1117.90 658.04 1120.82 657.39 C 1122.16 660.08 1123.86 662.57 1125.89 664.80 C 1120.92 670.29 1123.55 678.13 1127.05 683.61 C 1131.07 688.36 1130.40 695.43 1127.66 700.67 C 1123.90 706.44 1118.37 711.67 1111.15 712.13 C 1106.13 719.22 1098.88 725.28 1097.17 734.24 C 1097.76 739.16 1100.05 745.50 1095.55 749.18 C 1093.81 750.33 1091.46 752.38 1089.46 750.66 C 1085.42 748.65 1082.48 745.15 1081.08 740.88 C 1080.14 737.27 1076.06 736.83 1073.51 734.84 C 1072.61 732.62 1072.76 730.18 1072.64 727.85 C 1069.13 727.54 1065.63 727.21 1062.12 726.99 C 1063.15 722.15 1062.59 717.09 1059.84 712.90 C 1055.84 712.30 1051.79 711.90 1047.88 710.89 C 1048.58 708.25 1051.05 705.31 1049.40 702.59 C 1047.64 699.41 1045.39 696.54 1043.53 693.43 C 1051.69 690.18 1060.50 688.04 1067.57 682.60 C 1071.16 677.35 1068.65 670.60 1066.70 665.22 C 1065.05 660.29 1059.73 658.71 1055.63 656.37 C 1057.67 654.15 1059.74 651.95 1061.84 649.78 C 1061.55 648.57 1061.27 647.37 1061.01 646.17 Z" />
</g>
<g id="#1f00dfff">
<path fill="#1f00df" fill-opacity="0" d=" M 953.57 661.43 C 957.89 662.03 962.22 662.76 966.42 663.97 C 963.85 669.61 959.28 673.86 955.13 678.32 C 956.54 680.67 958.84 682.45 959.86 685.05 C 961.18 691.14 960.00 697.33 960.02 703.47 C 960.04 707.47 962.17 711.00 964.06 714.39 C 961.12 720.35 957.41 725.85 953.73 731.36 C 944.55 731.02 933.67 732.98 926.41 726.05 C 917.86 724.20 909.28 722.18 900.51 721.83 C 901.25 715.54 902.23 708.66 898.46 703.11 C 901.37 700.82 904.33 698.55 907.25 696.24 C 913.60 691.27 922.01 689.58 927.80 683.81 C 930.08 680.62 929.80 676.41 930.74 672.77 C 934.25 673.08 938.02 674.43 941.41 673.24 C 945.31 669.15 948.71 664.51 953.57 661.43 Z" />
</g>
<g id="#debf9ffe">
<path fill="#debf9f" fill-opacity="0" d=" M 863.11 731.68 C 866.82 727.42 869.91 721.38 876.00 720.33 C 880.95 719.49 884.47 724.05 888.14 726.52 C 888.30 727.76 888.50 729.03 888.72 730.29 C 887.17 731.02 885.68 731.86 884.17 732.65 C 884.61 734.48 885.91 736.63 884.39 738.31 C 882.04 741.71 879.70 745.24 878.99 749.40 C 873.55 753.19 867.61 756.15 861.96 759.60 C 859.68 757.75 857.58 755.71 855.56 753.60 C 858.42 750.00 860.91 746.13 862.98 742.03 C 860.67 741.00 858.30 740.08 856.22 738.65 C 853.77 737.30 855.59 734.03 855.39 731.86 C 852.84 731.59 850.29 731.31 847.74 731.19 C 848.99 729.19 850.16 727.12 851.71 725.33 C 856.29 725.41 859.50 729.39 863.11 731.68 Z" />
</g>
<g id="#001f9fff">
<path fill="#001f9f" fill-opacity="0" d=" M 818.93 724.92 C 825.90 723.99 832.79 722.60 839.74 721.52 C 837.50 725.72 836.14 730.34 836.18 735.14 C 840.06 733.92 843.82 732.32 847.74 731.19 C 850.29 731.31 852.84 731.59 855.39 731.86 C 855.59 734.03 853.77 737.30 856.22 738.65 C 858.30 740.08 860.67 741.00 862.98 742.03 C 860.91 746.13 858.42 750.00 855.56 753.60 C 857.58 755.71 859.68 757.75 861.96 759.60 C 862.18 760.69 862.39 761.77 862.63 762.88 C 863.27 766.13 864.24 769.44 863.79 772.79 C 860.93 772.77 858.09 772.90 855.25 773.02 C 854.02 771.02 853.51 767.96 850.91 767.30 C 846.88 766.13 842.64 766.09 838.52 765.47 C 835.35 764.98 831.72 765.04 829.18 767.29 C 826.10 770.11 824.05 773.94 820.37 776.16 C 820.43 773.48 820.57 770.81 820.74 768.14 C 819.95 768.25 819.18 768.37 818.42 768.50 C 817.21 763.49 813.49 759.94 808.88 757.94 C 811.42 754.49 814.55 751.19 815.47 746.86 C 816.65 742.35 815.31 737.72 815.49 733.16 C 815.59 730.08 817.43 727.48 818.93 724.92 Z" />
</g>
<g id="#5f7fdfff">
<path fill="#5f7fdf" fill-opacity="0" d=" M 900.51 721.83 C 909.28 722.18 917.86 724.20 926.41 726.05 C 921.77 731.58 916.88 737.20 914.45 744.11 C 914.73 746.00 915.73 747.69 916.57 749.40 C 914.44 750.02 912.33 750.82 910.13 751.06 C 907.74 749.16 906.41 746.22 903.91 744.45 C 900.34 745.38 897.50 748.48 893.67 748.43 C 888.78 748.40 883.71 747.82 878.99 749.40 C 879.70 745.24 882.04 741.71 884.39 738.31 C 885.91 736.63 884.61 734.48 884.17 732.65 C 885.68 731.86 887.17 731.02 888.72 730.29 C 888.50 729.03 888.30 727.76 888.14 726.52 C 891.68 726.91 895.20 727.73 898.79 727.54 C 900.03 725.90 900.19 723.78 900.51 721.83 Z" />
</g>
<g id="#1f3f9fff">
<path fill="#1f3f9f" fill-opacity="0" d=" M 807.50 731.26 C 807.50 725.07 814.50 725.63 818.93 724.92 C 817.43 727.48 815.59 730.08 815.49 733.16 C 815.31 737.72 816.65 742.35 815.47 746.86 C 814.55 751.19 811.42 754.49 808.88 757.94 C 813.49 759.94 817.21 763.49 818.42 768.50 C 817.04 772.01 816.11 775.67 814.93 779.25 C 814.75 779.65 814.39 780.46 814.21 780.86 C 812.50 779.29 810.75 777.80 809.06 776.25 C 802.35 780.85 794.23 782.19 786.40 783.58 C 787.01 786.43 787.58 789.31 788.45 792.11 C 780.87 791.92 780.12 782.26 778.47 776.79 C 777.27 773.40 780.66 771.77 783.04 770.27 C 783.52 764.61 782.78 758.98 782.15 753.37 C 788.37 749.29 790.63 740.46 798.66 739.21 C 798.46 738.08 798.24 736.94 798.06 735.83 C 801.04 735.19 803.99 734.41 806.98 733.82 C 807.13 732.96 807.30 732.10 807.50 731.26 Z" />
</g>
<g id="#9fbf9ffe">
<path fill="#9fbf9f" fill-opacity="0" d=" M 926.41 726.05 C 933.67 732.98 944.55 731.02 953.73 731.36 C 956.38 731.40 959.02 731.57 961.67 731.81 C 963.02 735.03 963.81 738.74 966.37 741.28 C 968.44 740.95 970.33 739.96 972.23 739.12 C 973.40 746.22 973.18 754.04 977.07 760.37 C 975.09 760.65 973.12 760.93 971.15 761.12 C 970.43 760.17 969.74 759.25 969.05 758.33 C 963.98 759.31 959.04 756.32 954.03 757.83 C 945.23 759.43 936.57 761.76 928.51 765.73 C 927.05 764.25 925.45 762.94 923.96 761.51 C 920.88 757.88 918.82 753.55 916.57 749.40 C 915.73 747.69 914.73 746.00 914.45 744.11 C 916.88 737.20 921.77 731.58 926.41 726.05 Z" />
</g>
<g id="#bf1f1fff">
<path fill="#bf1f1f" fill-opacity="0" d=" M 972.23 739.12 C 972.42 739.03 972.81 738.86 973.00 738.77 C 975.95 740.65 978.64 743.43 982.36 743.59 C 993.32 744.07 1005.12 748.70 1010.77 758.60 C 1010.93 758.76 1011.26 759.07 1011.42 759.23 C 1014.92 761.01 1016.07 764.51 1014.85 768.17 C 1009.68 770.00 1006.22 774.91 1000.69 776.15 C 994.02 779.18 986.26 777.86 979.52 780.66 C 975.75 782.94 971.46 782.70 967.53 781.04 C 966.13 780.67 964.74 780.36 963.35 780.06 C 962.93 778.85 962.54 777.64 962.16 776.44 C 963.70 771.62 965.93 766.76 965.20 761.58 C 967.18 761.45 969.16 761.29 971.15 761.12 C 973.12 760.93 975.09 760.65 977.07 760.37 C 973.18 754.04 973.40 746.22 972.23 739.12 Z" />
</g>
<g id="#001f1fff">
<path fill="#001f1f" fill-opacity="0" d=" M 893.67 748.43 C 897.50 748.48 900.34 745.38 903.91 744.45 C 906.41 746.22 907.74 749.16 910.13 751.06 C 912.33 750.82 914.44 750.02 916.57 749.40 C 918.82 753.55 920.88 757.88 923.96 761.51 C 916.59 764.59 909.15 767.67 902.66 772.40 C 895.61 775.28 887.41 773.46 880.91 769.91 C 874.88 767.40 868.77 765.09 862.63 762.88 C 862.39 761.77 862.18 760.69 861.96 759.60 C 867.61 756.15 873.55 753.19 878.99 749.40 C 883.71 747.82 888.78 748.40 893.67 748.43 Z" />
</g>
<g id="#5fbe5fff">
<path fill="#5fbe5f" fill-opacity="0" d=" M 954.03 757.83 C 959.04 756.32 963.98 759.31 969.05 758.33 C 969.74 759.25 970.43 760.17 971.15 761.12 C 969.16 761.29 967.18 761.45 965.20 761.58 C 965.93 766.76 963.70 771.62 962.16 776.44 C 958.63 777.68 954.95 778.85 951.17 778.46 C 946.58 778.34 942.38 775.86 937.76 776.16 C 934.47 772.86 931.64 769.16 928.51 765.73 C 936.57 761.76 945.23 759.43 954.03 757.83 Z" />
</g>
<g id="#5f3f1fff">
<path fill="#5f3f1f" fill-opacity="0" d=" M 902.66 772.40 C 909.15 767.67 916.59 764.59 923.96 761.51 C 925.45 762.94 927.05 764.25 928.51 765.73 C 931.64 769.16 934.47 772.86 937.76 776.16 C 937.25 778.48 936.67 780.80 936.01 783.09 C 930.64 785.16 926.14 788.78 921.73 792.37 C 917.92 786.34 910.18 786.46 903.99 787.88 C 901.61 788.42 899.26 789.69 896.79 789.48 C 889.48 786.58 882.86 782.14 877.02 776.91 C 879.40 776.59 881.78 776.29 884.17 775.99 C 883.11 773.94 882.01 771.92 880.91 769.91 C 887.41 773.46 895.61 775.28 902.66 772.40 Z" />
</g>
<g id="#df3f5fff">
<path fill="#df3f5f" fill-opacity="0" d=" M 862.63 762.88 C 868.77 765.09 874.88 767.40 880.91 769.91 C 882.01 771.92 883.11 773.94 884.17 775.99 C 881.78 776.29 879.40 776.59 877.02 776.91 C 882.86 782.14 889.48 786.58 896.79 789.48 C 899.26 789.69 901.61 788.42 903.99 787.88 C 903.82 788.94 903.67 790.02 903.53 791.10 C 900.98 792.31 898.48 793.70 896.58 795.83 C 894.11 796.70 891.80 797.75 889.35 798.62 C 888.81 798.77 887.71 799.08 887.17 799.23 C 882.40 800.54 877.21 800.73 872.82 803.15 C 872.90 806.41 875.72 808.41 877.92 810.39 C 872.17 811.77 866.24 811.79 860.40 812.47 C 858.70 810.18 856.92 807.96 855.10 805.78 C 855.77 804.72 856.48 803.68 857.22 802.66 C 859.93 802.79 862.64 802.90 865.36 802.86 C 864.63 800.08 864.08 797.26 863.64 794.43 C 860.55 794.31 857.49 794.20 854.43 794.05 C 853.55 785.67 859.44 779.26 863.79 772.79 C 864.24 769.44 863.27 766.13 862.63 762.88 Z" />
</g>
<g id="#dfbfdfff">
<path fill="#dfbfdf" fill-opacity="0" d=" M 829.18 767.29 C 831.72 765.04 835.35 764.98 838.52 765.47 C 842.64 766.09 846.88 766.13 850.91 767.30 C 853.51 767.96 854.02 771.02 855.25 773.02 C 853.16 774.94 851.05 776.83 848.91 778.69 C 841.91 778.74 835.30 781.20 829.04 784.08 C 828.02 782.18 827.06 780.25 826.06 778.36 C 822.33 778.52 818.61 778.68 814.93 779.25 C 816.11 775.67 817.04 772.01 818.42 768.50 C 819.18 768.37 819.95 768.25 820.74 768.14 C 820.57 770.81 820.43 773.48 820.37 776.16 C 824.05 773.94 826.10 770.11 829.18 767.29 Z" />
</g>
<g id="#1f7f5fff">
<path fill="#1f7f5f" fill-opacity="0" d=" M 1000.69 776.15 C 1006.22 774.91 1009.68 770.00 1014.85 768.17 C 1016.60 767.98 1018.37 768.00 1020.14 767.96 C 1020.31 770.91 1020.45 773.87 1020.38 776.83 C 1021.53 777.45 1022.67 778.07 1023.86 778.69 C 1023.84 783.39 1023.64 788.09 1022.75 792.72 C 1020.56 793.65 1018.19 794.00 1015.87 794.44 C 1014.38 798.63 1013.07 803.38 1009.80 806.61 C 1007.75 807.02 1005.62 806.56 1003.58 806.99 C 1000.36 809.95 998.70 814.11 996.47 817.79 C 996.32 817.44 996.02 816.75 995.87 816.40 C 995.07 814.47 994.29 812.55 993.54 810.62 C 990.73 810.59 987.83 810.73 985.14 809.83 C 983.25 805.07 983.76 799.37 979.78 795.55 C 980.85 793.04 981.59 790.38 981.26 787.62 C 982.45 787.30 983.64 786.98 984.86 786.68 C 984.93 786.03 985.06 784.74 985.13 784.09 C 983.24 782.96 981.36 781.82 979.52 780.66 C 986.26 777.86 994.02 779.18 1000.69 776.15 Z" />
</g>
<g id="#df7f5fff">
<path fill="#df7f5f" fill-opacity="0" d=" M 855.25 773.02 C 858.09 772.90 860.93 772.77 863.79 772.79 C 859.44 779.26 853.55 785.67 854.43 794.05 C 857.49 794.20 860.55 794.31 863.64 794.43 C 864.08 797.26 864.63 800.08 865.36 802.86 C 862.64 802.90 859.93 802.79 857.22 802.66 C 856.48 803.68 855.77 804.72 855.10 805.78 C 856.92 807.96 858.70 810.18 860.40 812.47 C 853.87 813.20 847.54 817.94 840.92 815.24 C 840.04 810.45 838.66 805.76 838.16 800.91 C 837.93 796.60 839.16 792.33 841.02 788.49 C 842.67 785.56 846.50 785.61 849.40 784.97 C 849.22 782.87 849.05 780.77 848.91 778.69 C 851.05 776.83 853.16 774.94 855.25 773.02 Z" />
</g>
<g id="#1f3f5fff">
<path fill="#1f3f5f" fill-opacity="0" d=" M 937.76 776.16 C 942.38 775.86 946.58 778.34 951.17 778.46 C 954.95 778.85 958.63 777.68 962.16 776.44 C 962.54 777.64 962.93 778.85 963.35 780.06 C 964.74 780.36 966.13 780.67 967.53 781.04 C 969.43 790.09 971.08 799.28 970.70 808.58 C 967.76 808.22 964.75 808.48 961.88 807.78 C 960.81 806.56 960.25 804.99 959.50 803.61 C 956.40 796.15 947.84 793.70 940.66 792.22 C 939.14 789.14 937.69 786.06 936.01 783.09 C 936.67 780.80 937.25 778.48 937.76 776.16 M 966.30 793.39 C 964.85 794.58 966.89 796.74 968.19 795.40 C 969.67 794.25 967.53 792.08 966.30 793.39 Z" />
</g>
<g id="#009f20ff">
<path fill="#009f20" fill-opacity="0" d=" M 786.40 783.58 C 794.23 782.19 802.35 780.85 809.06 776.25 C 810.75 777.80 812.50 779.29 814.21 780.86 C 816.22 783.10 818.73 785.37 819.17 788.52 C 819.27 791.34 818.38 794.10 817.97 796.91 C 810.59 795.29 803.47 798.15 796.81 800.93 C 796.50 803.02 796.36 805.27 796.13 807.43 C 794.77 801.76 792.74 796.19 788.45 792.11 C 787.58 789.31 787.01 786.43 786.40 783.58 Z" />
</g>
<g id="#3f1f1ffe">
<path fill="#3f1f1f" fill-opacity="0" d=" M 814.93 779.25 C 818.61 778.68 822.33 778.52 826.06 778.36 C 827.06 780.25 828.02 782.18 829.04 784.08 C 835.30 781.20 841.91 778.74 848.91 778.69 C 849.05 780.77 849.22 782.87 849.40 784.97 C 846.50 785.61 842.67 785.56 841.02 788.49 C 839.16 792.33 837.93 796.60 838.16 800.91 C 831.35 799.98 824.63 798.57 817.97 796.91 C 818.38 794.10 819.27 791.34 819.17 788.52 C 818.73 785.37 816.22 783.10 814.21 780.86 C 814.39 780.46 814.75 779.65 814.93 779.25 Z" />
</g>
<g id="#1f3fdfff">
<path fill="#1f3fdf" fill-opacity="0" d=" M 967.53 781.04 C 971.46 782.70 975.75 782.94 979.52 780.66 C 981.36 781.82 983.24 782.96 985.13 784.09 C 985.06 784.74 984.93 786.03 984.86 786.68 C 983.64 786.98 982.45 787.30 981.26 787.62 C 981.59 790.38 980.85 793.04 979.78 795.55 C 983.76 799.37 983.25 805.07 985.14 809.83 C 987.83 810.73 990.73 810.59 993.54 810.62 C 994.29 812.55 995.07 814.47 995.87 816.40 C 992.57 818.18 989.23 817.22 986.83 814.54 C 982.41 816.73 977.46 817.26 972.59 816.92 C 973.25 814.98 973.98 813.08 974.71 811.18 C 973.35 811.23 972.01 811.31 970.67 811.38 C 970.68 810.68 970.69 809.28 970.70 808.58 C 971.08 799.28 969.43 790.09 967.53 781.04 Z" />
</g>
<g id="#5fbe9fff">
<path fill="#5fbe9f" fill-opacity="0" d=" M 921.73 792.37 C 926.14 788.78 930.64 785.16 936.01 783.09 C 937.69 786.06 939.14 789.14 940.66 792.22 C 947.84 793.70 956.40 796.15 959.50 803.61 C 957.09 803.62 954.67 803.65 952.33 804.22 C 951.92 806.61 952.21 809.04 952.32 811.45 C 950.16 811.15 948.01 810.84 945.87 810.54 C 946.73 812.53 947.58 814.52 948.44 816.52 C 944.77 819.11 940.94 821.47 937.26 824.05 C 936.85 821.53 936.54 818.99 936.28 816.45 C 936.75 814.05 938.57 811.36 937.07 809.01 C 933.40 802.56 927.07 798.26 922.18 792.84 L 921.73 792.37 Z" />
</g>
<g id="#7f209fff">
<path fill="#7f209f" fill-opacity="0" d=" M 903.99 787.88 C 910.18 786.46 917.92 786.34 921.73 792.37 L 922.18 792.84 C 919.49 794.39 916.86 795.99 914.23 797.59 C 911.99 797.60 909.72 797.36 907.53 797.87 C 904.73 799.61 902.74 802.36 900.48 804.72 C 904.87 810.21 903.62 819.48 896.85 822.50 C 897.49 824.37 898.15 826.23 898.81 828.10 C 896.92 829.67 895.01 831.21 893.09 832.73 C 890.15 830.55 887.14 828.45 883.88 826.80 C 884.09 820.76 883.89 813.86 877.92 810.39 C 875.72 808.41 872.90 806.41 872.82 803.15 C 877.21 800.73 882.40 800.54 887.17 799.23 C 888.89 801.62 891.69 804.23 894.89 803.07 C 895.94 801.16 896.54 799.06 897.25 797.01 C 894.59 797.44 891.95 797.96 889.35 798.62 C 891.80 797.75 894.11 796.70 896.58 795.83 C 898.48 793.70 900.98 792.31 903.53 791.10 C 903.67 790.02 903.82 788.94 903.99 787.88 M 903.15 793.40 C 902.29 797.38 907.14 792.58 903.15 793.40 Z" />
</g>
<g id="#bf344aff">
<path fill="#bf344a" fill-opacity="0" d=" M 903.15 793.40 C 907.14 792.58 902.29 797.38 903.15 793.40 Z" />
</g>
<g id="#1fbf1fff">
<path fill="#1fbf1f" fill-opacity="0" d=" M 914.23 797.59 C 916.86 795.99 919.49 794.39 922.18 792.84 C 927.07 798.26 933.40 802.56 937.07 809.01 C 938.57 811.36 936.75 814.05 936.28 816.45 C 931.14 817.19 925.98 818.03 920.78 817.90 C 918.41 814.57 915.51 811.37 914.65 807.27 C 914.08 804.07 914.27 800.81 914.23 797.59 Z" />
</g>
<g id="#9f3f5fff">
<path fill="#9f3f5f" fill-opacity="0" d=" M 966.30 793.39 C 967.53 792.08 969.67 794.25 968.19 795.40 C 966.89 796.74 964.85 794.58 966.30 793.39 Z" />
</g>
<g id="#9f7f5fff">
<path fill="#9f7f5f" fill-opacity="0" d=" M 796.81 800.93 C 803.47 798.15 810.59 795.29 817.97 796.91 C 824.63 798.57 831.35 799.98 838.16 800.91 C 838.66 805.76 840.04 810.45 840.92 815.24 C 836.31 816.94 832.19 819.69 828.42 822.81 C 828.21 820.63 828.23 818.44 828.30 816.26 C 823.45 817.22 818.03 819.62 813.33 816.84 C 808.95 814.52 803.56 812.95 799.18 816.24 C 796.73 814.03 794.26 811.86 791.74 809.76 L 791.21 809.31 C 792.83 808.65 794.48 808.04 796.13 807.43 C 796.36 805.27 796.50 803.02 796.81 800.93 Z" />
</g>
<g id="#df005fff">
<path fill="#df005f" fill-opacity="0" d=" M 889.35 798.62 C 891.95 797.96 894.59 797.44 897.25 797.01 C 896.54 799.06 895.94 801.16 894.89 803.07 C 891.69 804.23 888.89 801.62 887.17 799.23 C 887.71 799.08 888.81 798.77 889.35 798.62 Z" />
</g>
<g id="#9f7fdfff">
<path fill="#9f7fdf" fill-opacity="0" d=" M 900.48 804.72 C 902.74 802.36 904.73 799.61 907.53 797.87 C 909.72 797.36 911.99 797.60 914.23 797.59 C 914.27 800.81 914.08 804.07 914.65 807.27 C 915.51 811.37 918.41 814.57 920.78 817.90 C 919.48 819.30 917.72 820.49 916.94 822.26 C 917.39 826.26 920.50 829.50 920.95 833.49 C 919.40 842.83 909.97 846.93 903.17 851.98 C 900.91 850.26 898.45 848.83 895.84 847.74 C 894.80 842.76 893.80 837.76 893.09 832.73 C 895.01 831.21 896.92 829.67 898.81 828.10 C 898.15 826.23 897.49 824.37 896.85 822.50 C 903.62 819.48 904.87 810.21 900.48 804.72 Z" />
</g>
<g id="#1fbf5fff">
<path fill="#1fbf5f" fill-opacity="0" d=" M 952.33 804.22 C 954.67 803.65 957.09 803.62 959.50 803.61 C 960.25 804.99 960.81 806.56 961.88 807.78 C 964.75 808.48 967.76 808.22 970.70 808.58 C 970.69 809.28 970.68 810.68 970.67 811.38 C 972.01 811.31 973.35 811.23 974.71 811.18 C 973.98 813.08 973.25 814.98 972.59 816.92 C 977.46 817.26 982.41 816.73 986.83 814.54 C 989.23 817.22 992.57 818.18 995.87 816.40 C 996.02 816.75 996.32 817.44 996.47 817.79 C 996.22 823.34 998.48 828.54 999.04 833.99 C 998.45 838.61 991.35 840.19 993.50 845.83 C 993.24 851.01 994.25 856.43 992.28 861.41 C 991.00 864.79 989.50 868.10 988.11 871.45 C 984.26 870.95 980.38 871.00 976.51 870.77 C 974.79 873.74 972.38 876.22 969.35 877.86 C 968.88 877.43 967.94 876.58 967.47 876.16 C 968.32 870.48 969.09 864.83 970.52 859.28 C 963.60 853.19 958.76 844.91 956.83 835.92 C 956.03 832.23 957.04 828.42 956.37 824.76 C 952.83 822.90 949.35 820.75 948.44 816.52 C 947.58 814.52 946.73 812.53 945.87 810.54 C 948.01 810.84 950.16 811.15 952.32 811.45 C 952.21 809.04 951.92 806.61 952.33 804.22 Z" />
</g>
<g id="#dfbf1fff">
<path fill="#dfbf1f" fill-opacity="0" d=" M 791.74 809.76 C 794.26 811.86 796.73 814.03 799.18 816.24 C 795.97 818.77 792.87 821.43 789.77 824.09 C 793.53 825.70 796.99 827.97 799.81 830.95 C 798.47 831.16 797.15 831.40 795.82 831.63 C 797.84 836.69 798.97 842.03 800.31 847.32 C 796.43 846.17 792.70 848.70 788.88 848.51 C 785.36 845.92 783.42 841.72 782.07 837.67 C 780.94 833.62 776.30 831.96 775.05 827.99 C 774.22 825.42 773.69 822.74 773.13 820.15 C 778.56 815.43 784.82 811.76 791.74 809.76 Z" />
</g>
<g id="#7f9f9fff">
<path fill="#7f9f9f" fill-opacity="0" d=" M 877.92 810.39 C 883.89 813.86 884.09 820.76 883.88 826.80 C 887.14 828.45 890.15 830.55 893.09 832.73 C 893.80 837.76 894.80 842.76 895.84 847.74 C 892.55 846.47 889.24 845.22 885.85 844.26 C 881.57 843.83 877.29 843.42 873.01 843.15 C 869.29 842.53 867.86 847.00 864.88 848.27 C 861.81 848.86 858.71 848.82 855.63 849.03 C 854.81 848.10 853.99 847.18 853.20 846.26 C 851.54 843.04 851.79 839.27 851.56 835.77 C 847.32 835.53 843.12 835.09 838.97 834.27 C 837.20 836.13 835.40 837.96 833.67 839.85 C 831.89 838.81 830.12 837.77 828.37 836.72 C 828.56 832.09 828.70 827.44 828.42 822.81 C 832.19 819.69 836.31 816.94 840.92 815.24 C 847.54 817.94 853.87 813.20 860.40 812.47 C 866.24 811.79 872.17 811.77 877.92 810.39 Z" />
</g>
<g id="#9f3f1fff">
<path fill="#9f3f1f" fill-opacity="0" d=" M 799.18 816.24 C 803.56 812.95 808.95 814.52 813.33 816.84 C 818.03 819.62 823.45 817.22 828.30 816.26 C 828.23 818.44 828.21 820.63 828.42 822.81 C 828.70 827.44 828.56 832.09 828.37 836.72 C 826.05 837.54 823.61 838.16 821.55 839.53 C 820.09 841.63 820.37 844.39 820.02 846.82 C 818.76 847.22 817.45 847.38 816.18 847.66 C 816.30 846.44 816.44 845.23 816.60 844.04 C 811.16 845.14 805.76 846.45 800.57 848.45 L 800.31 847.32 C 798.97 842.03 797.84 836.69 795.82 831.63 C 797.15 831.40 798.47 831.16 799.81 830.95 C 796.99 827.97 793.53 825.70 789.77 824.09 C 792.87 821.43 795.97 818.77 799.18 816.24 Z" />
</g>
<g id="#20005fff">
<path fill="#20005f" fill-opacity="0" d=" M 920.78 817.90 C 925.98 818.03 931.14 817.19 936.28 816.45 C 936.54 818.99 936.85 821.53 937.26 824.05 C 937.53 825.70 937.82 827.35 938.13 829.02 C 934.27 831.83 929.69 833.78 924.84 832.81 C 924.21 834.11 923.62 835.42 923.03 836.75 C 927.96 840.91 931.28 848.36 938.61 848.43 C 938.23 849.75 937.84 851.08 937.47 852.42 C 939.68 854.29 941.98 856.11 943.74 858.45 C 943.51 861.26 941.52 863.49 940.12 865.81 C 938.11 863.93 936.17 861.76 933.55 860.76 C 931.42 860.69 929.40 861.41 927.38 861.94 C 923.82 858.19 918.50 858.83 913.80 858.30 C 909.40 858.17 906.55 854.25 903.17 851.98 C 909.97 846.93 919.40 842.83 920.95 833.49 C 920.50 829.50 917.39 826.26 916.94 822.26 C 917.72 820.49 919.48 819.30 920.78 817.90 Z" />
</g>
<g id="#df3f9fff">
<path fill="#df3f9f" fill-opacity="0" d=" M 937.26 824.05 C 940.94 821.47 944.77 819.11 948.44 816.52 C 949.35 820.75 952.83 822.90 956.37 824.76 C 957.04 828.42 956.03 832.23 956.83 835.92 C 958.76 844.91 963.60 853.19 970.52 859.28 C 969.09 864.83 968.32 870.48 967.47 876.16 C 965.02 874.20 962.85 870.98 959.38 871.11 C 954.94 870.85 950.48 871.57 946.07 871.06 C 943.53 870.11 942.06 867.57 940.12 865.81 C 941.52 863.49 943.51 861.26 943.74 858.45 C 941.98 856.11 939.68 854.29 937.47 852.42 C 937.84 851.08 938.23 849.75 938.61 848.43 C 931.28 848.36 927.96 840.91 923.03 836.75 C 923.62 835.42 924.21 834.11 924.84 832.81 C 929.69 833.78 934.27 831.83 938.13 829.02 C 937.82 827.35 937.53 825.70 937.26 824.05 Z" />
</g>
<g id="#9f005fff">
<path fill="#9f005f" fill-opacity="0" d=" M 833.67 839.85 C 835.40 837.96 837.20 836.13 838.97 834.27 C 843.12 835.09 847.32 835.53 851.56 835.77 C 851.79 839.27 851.54 843.04 853.20 846.26 C 849.88 849.82 849.15 855.15 845.46 858.35 C 841.36 859.90 836.90 858.86 832.65 858.85 C 833.31 861.95 834.03 865.06 835.22 868.02 C 829.87 865.47 830.72 858.60 828.03 854.10 C 826.11 854.32 824.21 854.57 822.32 854.83 C 821.53 852.16 820.53 849.55 820.02 846.82 C 820.37 844.39 820.09 841.63 821.55 839.53 C 823.61 838.16 826.05 837.54 828.37 836.72 C 830.12 837.77 831.89 838.81 833.67 839.85 Z" />
</g>
<g id="#1fbfdffe">
<path fill="#1fbfdf" fill-opacity="0" d=" M 864.88 848.27 C 867.86 847.00 869.29 842.53 873.01 843.15 C 877.29 843.42 881.57 843.83 885.85 844.26 C 887.37 848.05 886.22 852.11 885.43 855.92 C 888.05 855.81 890.66 855.55 893.28 855.34 C 893.30 858.94 894.24 862.72 893.11 866.23 C 891.04 869.30 886.88 869.56 883.59 870.47 C 875.19 871.96 867.88 876.65 859.72 878.95 C 853.80 870.05 856.27 859.05 855.63 849.03 C 858.71 848.82 861.81 848.86 864.88 848.27 Z" />
</g>
<g id="#5f005fff">
<path fill="#5f005f" fill-opacity="0" d=" M 885.85 844.26 C 889.24 845.22 892.55 846.47 895.84 847.74 C 898.45 848.83 900.91 850.26 903.17 851.98 C 906.55 854.25 909.40 858.17 913.80 858.30 C 918.50 858.83 923.82 858.19 927.38 861.94 C 929.40 861.41 931.42 860.69 933.55 860.76 C 936.17 861.76 938.11 863.93 940.12 865.81 C 942.06 867.57 943.53 870.11 946.07 871.06 C 950.48 871.57 954.94 870.85 959.38 871.11 C 962.85 870.98 965.02 874.20 967.47 876.16 C 967.94 876.58 968.88 877.43 969.35 877.86 C 976.94 883.54 981.80 891.92 988.65 898.38 C 990.89 900.59 994.23 900.59 997.01 901.79 C 996.40 905.27 996.62 908.98 995.21 912.27 C 993.30 915.77 988.30 913.71 985.36 914.50 C 980.98 914.59 977.43 918.22 972.89 917.54 C 968.19 916.97 963.84 918.69 959.76 920.83 C 957.25 922.36 954.58 920.60 952.17 919.77 C 947.39 921.99 942.06 922.12 936.93 922.76 C 937.46 919.84 937.74 916.82 938.21 913.94 C 934.39 911.86 930.48 909.80 926.15 909.09 C 920.29 908.36 916.46 903.36 911.79 900.29 C 907.62 897.71 905.06 893.49 902.11 889.74 C 900.13 891.26 898.19 892.81 896.25 894.36 C 889.13 890.34 880.40 891.40 873.12 894.34 C 872.53 894.38 871.95 894.43 871.39 894.49 C 866.86 891.70 861.89 889.75 857.19 887.30 C 858.56 886.48 859.91 885.64 861.28 884.81 C 860.75 882.82 860.23 880.87 859.72 878.95 C 867.88 876.65 875.19 871.96 883.59 870.47 C 886.88 869.56 891.04 869.30 893.11 866.23 C 894.24 862.72 893.30 858.94 893.28 855.34 C 890.66 855.55 888.05 855.81 885.43 855.92 C 886.22 852.11 887.37 848.05 885.85 844.26 Z" />
</g>
<g id="#5f7f5fff">
<path fill="#5f7f5f" fill-opacity="0" d=" M 853.20 846.26 C 853.99 847.18 854.81 848.10 855.63 849.03 C 856.27 859.05 853.80 870.05 859.72 878.95 C 860.23 880.87 860.75 882.82 861.28 884.81 C 859.91 885.64 858.56 886.48 857.19 887.30 C 852.41 890.54 846.20 889.05 841.33 892.04 C 842.32 889.81 844.23 887.44 843.05 884.91 C 840.97 879.03 839.42 872.77 835.22 868.02 C 834.03 865.06 833.31 861.95 832.65 858.85 C 836.90 858.86 841.36 859.90 845.46 858.35 C 849.15 855.15 849.88 849.82 853.20 846.26 Z" />
</g>
<g id="#9f00dfff">
<path fill="#9f00df" fill-opacity="0" d=" M 841.33 892.04 C 846.20 889.05 852.41 890.54 857.19 887.30 C 861.89 889.75 866.86 891.70 871.39 894.49 C 871.56 896.48 871.87 898.45 872.21 900.43 C 870.11 901.87 868.00 903.30 865.77 904.52 C 860.25 904.10 854.76 905.18 849.90 907.84 C 850.42 910.85 850.84 913.76 851.42 916.82 C 849.06 916.51 845.61 917.37 844.49 914.62 C 842.49 910.05 841.71 905.05 840.61 900.22 C 840.47 897.45 838.77 893.88 841.33 892.04 M 849.15 895.40 C 848.29 899.38 853.14 894.58 849.15 895.40 Z" />
</g>
<g id="#df7fdfff">
<path fill="#df7fdf" fill-opacity="0" d=" M 896.25 894.36 C 898.19 892.81 900.13 891.26 902.11 889.74 C 905.06 893.49 907.62 897.71 911.79 900.29 C 916.46 903.36 920.29 908.36 926.15 909.09 C 930.48 909.80 934.39 911.86 938.21 913.94 C 937.74 916.82 937.46 919.84 936.93 922.76 C 935.12 928.81 934.53 935.29 932.18 941.15 C 928.12 943.63 922.38 943.62 919.18 947.76 C 919.24 942.93 916.78 938.88 914.55 934.86 C 908.51 935.28 902.67 936.60 897.04 938.77 C 893.32 933.01 893.16 925.86 894.59 919.38 C 889.36 917.92 883.80 917.88 878.64 916.24 C 875.45 912.91 874.50 907.25 869.60 905.77 C 868.32 905.30 867.05 904.88 865.77 904.52 C 868.00 903.30 870.11 901.87 872.21 900.43 C 871.87 898.45 871.56 896.48 871.39 894.49 C 871.95 894.43 872.53 894.38 873.12 894.34 C 880.40 891.40 889.13 890.34 896.25 894.36 Z" />
</g>
<g id="#207fdfff">
<path fill="#207fdf" fill-opacity="0" d=" M 849.15 895.40 C 853.14 894.58 848.29 899.38 849.15 895.40 Z" />
</g>
<g id="#5fbf1fff">
<path fill="#5fbf1f" fill-opacity="0" d=" M 849.90 907.84 C 854.76 905.18 860.25 904.10 865.77 904.52 C 867.05 904.88 868.32 905.30 869.60 905.77 C 865.31 908.55 859.29 909.94 857.33 915.18 C 854.28 924.75 858.86 934.20 859.07 943.78 C 858.67 949.57 859.43 955.55 857.91 961.19 C 854.20 969.91 844.04 966.85 836.99 969.96 C 831.61 972.41 825.62 974.64 821.63 979.18 C 821.71 981.78 822.70 984.26 823.90 986.55 C 821.63 987.16 819.39 987.97 817.07 988.35 C 813.97 985.19 812.23 980.95 809.53 977.49 C 807.16 974.26 804.93 969.91 806.93 965.96 C 810.40 958.89 815.38 952.26 822.22 948.16 C 827.03 944.67 832.61 942.05 836.53 937.49 C 839.43 934.18 837.45 929.18 839.21 925.54 C 843.79 924.18 847.97 921.91 851.80 919.03 C 851.70 918.48 851.51 917.37 851.42 916.82 C 850.84 913.76 850.42 910.85 849.90 907.84 Z" />
</g>
<g id="#9fbfdfff">
<path fill="#9fbfdf" fill-opacity="0" d=" M 869.60 905.77 C 874.50 907.25 875.45 912.91 878.64 916.24 C 883.80 917.88 889.36 917.92 894.59 919.38 C 893.16 925.86 893.32 933.01 897.04 938.77 C 902.67 936.60 908.51 935.28 914.55 934.86 C 916.78 938.88 919.24 942.93 919.18 947.76 C 918.27 951.79 915.23 954.81 913.03 958.16 C 909.16 963.09 907.45 969.29 903.97 974.47 C 902.66 975.87 900.64 976.28 898.99 977.15 C 891.33 980.17 886.20 987.22 879.00 990.98 C 871.07 993.22 862.75 993.59 854.70 995.28 C 851.24 996.13 848.42 993.54 845.95 991.53 C 840.08 991.13 834.29 989.84 828.44 989.36 C 826.56 989.24 824.97 988.01 823.90 986.55 C 822.70 984.26 821.71 981.78 821.63 979.18 C 825.62 974.64 831.61 972.41 836.99 969.96 C 844.04 966.85 854.20 969.91 857.91 961.19 C 859.43 955.55 858.67 949.57 859.07 943.78 C 858.86 934.20 854.28 924.75 857.33 915.18 C 859.29 909.94 865.31 908.55 869.60 905.77 Z" />
</g>
</svg>
