<?xml version="1.0" encoding="UTF-8" ?>
<!DOCTYPE svg PUBLIC "-//W3C//DTD SVG 1.1//EN" "http://www.w3.org/Graphics/SVG/1.1/DTD/svg11.dtd">
<svg width="1920pt" height="1080pt" viewBox="0 0 1920 1080" version="1.1" xmlns="http://www.w3.org/2000/svg">
<g id="#3f0f1ffe">
<path fill="#3f0f1f" fill-opacity="0" d=" M 1136.77 223.37 C 1140.97 215.13 1150.11 213.07 1157.68 209.16 C 1160.69 213.26 1165.01 217.27 1164.43 222.87 C 1164.16 234.12 1162.09 245.20 1160.35 256.28 C 1159.01 262.78 1162.02 269.23 1165.37 274.64 C 1168.66 279.28 1173.44 283.08 1175.21 288.66 C 1177.35 297.55 1176.54 306.78 1175.26 315.73 C 1172.00 340.18 1168.11 364.57 1163.54 388.81 C 1160.98 396.06 1158.17 403.30 1157.48 411.04 C 1155.98 425.36 1152.08 439.26 1147.90 453.00 C 1146.49 457.38 1141.10 458.09 1138.07 461.04 C 1136.77 459.73 1135.48 458.42 1134.28 457.04 C 1131.13 454.00 1131.05 449.44 1131.99 445.40 C 1133.84 431.25 1135.36 417.03 1137.88 402.97 C 1134.05 401.35 1130.47 398.79 1126.28 398.34 C 1117.98 398.20 1110.55 402.92 1102.20 402.68 C 1094.21 402.52 1086.22 403.36 1078.24 402.87 C 1075.82 395.43 1076.47 384.67 1067.70 381.42 C 1061.34 381.56 1056.19 386.19 1050.22 387.83 C 1044.74 389.22 1039.21 390.28 1033.76 391.78 C 1027.02 393.57 1020.49 389.57 1013.73 390.08 C 1009.70 390.41 1005.67 390.85 1001.62 390.53 C 1003.01 386.85 1005.08 383.33 1005.60 379.37 C 999.01 372.24 988.34 372.63 979.72 370.10 C 975.72 369.02 972.20 366.75 968.72 364.59 C 968.82 359.28 966.57 354.18 966.90 348.88 C 968.46 345.26 973.04 344.25 976.06 342.28 C 977.26 339.86 978.51 337.45 980.36 335.44 C 984.98 332.60 990.41 331.72 995.39 329.71 C 993.86 328.13 992.35 326.56 990.85 324.99 C 1001.30 320.96 1010.32 314.08 1018.07 306.06 C 1022.30 301.34 1028.92 297.45 1035.42 298.96 C 1042.59 302.72 1049.36 308.24 1057.91 308.08 C 1063.36 307.56 1068.91 305.63 1074.39 307.07 C 1079.26 307.74 1084.21 310.86 1089.25 309.36 C 1093.71 308.36 1096.05 304.01 1099.11 301.06 C 1104.53 295.05 1112.57 292.62 1118.79 287.65 C 1120.84 286.05 1120.54 283.19 1120.14 280.93 C 1118.05 270.51 1114.95 260.30 1113.19 249.81 C 1112.38 242.16 1114.84 234.73 1116.26 227.30 C 1123.18 226.45 1129.82 224.14 1136.77 223.37 Z" />
</g>
<g id="#9fefbfff">
<path fill="#9fefbf" fill-opacity="0" d=" M 973.60 234.21 C 976.32 229.94 980.08 226.08 985.08 224.68 C 992.66 225.29 999.94 227.71 1007.40 229.07 C 1010.99 229.07 1014.29 227.26 1017.81 226.65 C 1026.31 225.17 1034.79 227.43 1043.24 228.20 C 1067.59 229.66 1091.90 226.54 1116.26 227.30 C 1114.84 234.73 1112.38 242.16 1113.19 249.81 C 1114.95 260.30 1118.05 270.51 1120.14 280.93 C 1120.54 283.19 1120.84 286.05 1118.79 287.65 C 1112.57 292.62 1104.53 295.05 1099.11 301.06 C 1096.05 304.01 1093.71 308.36 1089.25 309.36 C 1084.21 310.86 1079.26 307.74 1074.39 307.07 C 1068.91 305.63 1063.36 307.56 1057.91 308.08 C 1049.36 308.24 1042.59 302.72 1035.42 298.96 C 1028.92 297.45 1022.30 301.34 1018.07 306.06 C 1010.32 314.08 1001.30 320.96 990.85 324.99 C 992.35 326.56 993.86 328.13 995.39 329.71 C 990.41 331.72 984.98 332.60 980.36 335.44 C 978.51 337.45 977.26 339.86 976.06 342.28 C 973.04 344.25 968.46 345.26 966.90 348.88 C 966.57 354.18 968.82 359.28 968.72 364.59 C 966.37 367.62 963.16 369.78 959.96 371.81 C 960.01 378.81 960.20 385.86 959.34 392.83 C 956.57 392.75 953.81 392.71 951.05 392.75 C 952.39 395.17 953.75 397.59 955.13 399.99 C 951.28 400.44 946.76 401.38 943.56 398.54 C 937.70 394.66 937.66 386.06 931.22 382.81 C 923.19 378.73 913.83 380.14 905.30 378.01 C 900.27 376.66 895.17 375.52 889.95 375.28 C 888.71 369.65 889.99 363.21 886.81 358.21 C 883.63 356.54 879.84 357.62 876.52 358.18 C 877.03 353.20 879.73 348.36 878.83 343.30 C 874.22 340.55 868.70 339.93 863.66 338.28 C 865.31 333.52 867.96 329.19 869.75 324.49 C 871.20 318.43 870.69 312.03 872.29 306.01 C 873.92 301.62 876.42 297.61 878.04 293.21 C 873.62 291.99 869.23 290.65 864.75 289.70 C 867.21 284.68 870.55 280.17 873.28 275.30 C 875.74 275.34 878.26 275.64 880.70 275.16 C 884.07 272.00 885.48 267.29 888.50 263.82 C 898.66 264.16 908.84 264.74 919.02 264.95 C 922.62 260.26 925.44 255.05 928.31 249.89 C 937.17 251.11 945.88 253.09 954.64 254.87 C 957.55 248.24 960.46 241.55 964.60 235.57 C 966.50 232.37 970.66 234.17 973.60 234.21 Z" />
</g>
<g id="#df6fbfff">
<path fill="#df6fbf" fill-opacity="0" d=" M 723.16 268.63 C 735.39 269.81 747.57 271.68 759.80 273.02 C 760.32 278.87 760.97 284.71 762.06 290.48 C 769.31 291.24 776.52 292.26 783.77 293.06 C 785.58 288.68 787.61 284.40 789.43 280.03 C 814.48 283.68 839.69 286.16 864.75 289.70 C 869.23 290.65 873.62 291.99 878.04 293.21 C 876.42 297.61 873.92 301.62 872.29 306.01 C 870.69 312.03 871.20 318.43 869.75 324.49 C 867.96 329.19 865.31 333.52 863.66 338.28 C 868.70 339.93 874.22 340.55 878.83 343.30 C 879.73 348.36 877.03 353.20 876.52 358.18 C 874.14 359.64 871.86 361.29 869.58 362.86 C 861.28 359.11 851.96 357.85 842.91 358.32 C 839.70 358.38 837.30 360.76 834.91 362.57 C 831.07 363.42 826.93 363.50 823.44 365.49 C 822.64 372.03 824.76 378.47 824.18 385.01 C 820.00 385.04 815.79 384.90 811.64 385.37 C 803.18 386.03 795.21 390.22 786.63 389.56 C 780.94 389.45 775.03 387.49 769.49 389.57 C 765.10 391.48 760.95 394.18 758.12 398.09 C 755.47 395.55 752.14 394.04 748.43 394.74 C 747.32 397.52 746.16 400.29 745.02 403.07 C 732.00 401.80 719.16 399.35 706.21 397.58 C 697.35 396.84 688.57 394.98 680.26 391.80 C 673.55 388.88 668.14 383.63 661.52 380.55 C 658.32 379.66 655.07 379.99 651.87 380.53 C 647.04 360.34 643.31 339.92 638.16 319.81 C 636.98 316.20 639.32 312.90 640.79 309.80 C 645.00 302.16 649.09 294.45 653.44 286.89 C 663.30 288.26 673.14 289.71 682.99 291.18 C 686.20 287.16 689.09 282.58 693.60 279.88 C 700.18 278.09 706.96 281.23 713.65 280.49 C 717.38 277.08 718.60 271.08 723.16 268.63 Z" />
</g>
<g id="#008f9fff">
<path fill="#008f9f" fill-opacity="0" d=" M 876.52 358.18 C 879.84 357.62 883.63 356.54 886.81 358.21 C 889.99 363.21 888.71 369.65 889.95 375.28 C 895.17 375.52 900.27 376.66 905.30 378.01 C 903.48 381.87 901.74 385.77 900.02 389.68 C 896.27 388.55 891.67 385.78 888.22 389.16 C 885.42 391.22 881.14 394.05 883.45 398.33 C 884.82 404.27 885.04 410.76 888.91 415.80 C 888.08 417.22 887.25 418.64 886.54 420.13 C 887.60 424.10 890.69 427.97 889.22 432.25 C 887.91 435.76 888.27 439.47 889.54 442.93 C 885.95 447.11 882.21 451.17 877.79 454.48 C 871.87 449.54 868.03 442.70 862.43 437.46 C 865.96 435.88 868.63 432.94 868.34 428.88 C 862.62 428.86 856.90 427.29 852.53 423.49 C 846.71 418.28 837.93 419.83 831.75 415.25 C 823.62 409.41 815.84 403.08 808.14 396.70 C 812.54 394.83 817.30 394.16 822.08 394.19 C 822.64 391.10 823.47 388.07 824.18 385.01 C 824.76 378.47 822.64 372.03 823.44 365.49 C 826.93 363.50 831.07 363.42 834.91 362.57 C 837.30 360.76 839.70 358.38 842.91 358.32 C 851.96 357.85 861.28 359.11 869.58 362.86 C 871.86 361.29 874.14 359.64 876.52 358.18 Z" />
</g>
<g id="#3fcf1fff">
<path fill="#3fcf1f" fill-opacity="0" d=" M 968.72 364.59 C 972.20 366.75 975.72 369.02 979.72 370.10 C 988.34 372.63 999.01 372.24 1005.60 379.37 C 1005.08 383.33 1003.01 386.85 1001.62 390.53 C 1005.67 390.85 1009.70 390.41 1013.73 390.08 C 1020.49 389.57 1027.02 393.57 1033.76 391.78 C 1039.21 390.28 1044.74 389.22 1050.22 387.83 C 1056.19 386.19 1061.34 381.56 1067.70 381.42 C 1076.47 384.67 1075.82 395.43 1078.24 402.87 C 1073.51 402.46 1068.36 402.40 1064.25 405.13 C 1059.96 407.44 1059.28 412.83 1057.19 416.76 C 1058.85 417.46 1060.52 418.13 1062.20 418.82 C 1060.93 422.05 1059.76 425.33 1058.36 428.51 C 1052.81 430.59 1046.65 430.33 1041.06 432.18 C 1037.75 436.84 1036.32 442.76 1031.76 446.58 C 1025.62 446.58 1019.48 446.60 1013.37 446.04 C 1002.16 445.66 991.51 441.60 981.84 436.17 C 979.47 434.95 977.10 433.75 974.75 432.51 C 970.17 435.69 963.48 438.58 958.57 434.52 C 951.01 428.44 942.01 424.07 935.70 416.59 C 924.76 412.79 913.46 418.20 902.32 418.13 C 901.98 419.72 901.66 421.32 901.34 422.93 C 896.41 421.94 891.47 421.07 886.54 420.13 C 887.25 418.64 888.08 417.22 888.91 415.80 C 885.04 410.76 884.82 404.27 883.45 398.33 C 881.14 394.05 885.42 391.22 888.22 389.16 C 891.67 385.78 896.27 388.55 900.02 389.68 C 901.74 385.77 903.48 381.87 905.30 378.01 C 913.83 380.14 923.19 378.73 931.22 382.81 C 937.66 386.06 937.70 394.66 943.56 398.54 C 946.76 401.38 951.28 400.44 955.13 399.99 C 953.75 397.59 952.39 395.17 951.05 392.75 C 953.81 392.71 956.57 392.75 959.34 392.83 C 960.20 385.86 960.01 378.81 959.96 371.81 C 963.16 369.78 966.37 367.62 968.72 364.59 M 989.29 430.13 C 987.31 430.81 988.81 433.70 990.54 432.70 C 992.57 432.04 991.01 429.15 989.29 430.13 Z" />
</g>
<g id="#7f109fff">
<path fill="#7f109f" fill-opacity="0" d=" M 811.64 385.37 C 815.79 384.90 820.00 385.04 824.18 385.01 C 823.47 388.07 822.64 391.10 822.08 394.19 C 817.30 394.16 812.54 394.83 808.14 396.70 C 815.84 403.08 823.62 409.41 831.75 415.25 C 837.93 419.83 846.71 418.28 852.53 423.49 C 856.90 427.29 862.62 428.86 868.34 428.88 C 868.63 432.94 865.96 435.88 862.43 437.46 C 860.10 435.31 857.99 432.56 854.84 431.61 C 848.94 433.10 844.44 438.20 838.23 438.85 C 824.52 440.32 811.13 447.05 797.20 443.77 C 789.24 442.22 781.16 441.67 773.15 440.57 C 769.56 440.26 769.16 435.87 767.85 433.32 C 766.30 433.53 764.75 433.75 763.22 433.98 C 764.18 431.37 766.64 428.70 765.47 425.77 C 764.10 422.69 763.38 418.61 759.97 417.23 C 757.25 416.05 754.24 415.63 751.41 414.91 C 753.81 409.37 755.24 403.44 758.12 398.09 C 760.95 394.18 765.10 391.48 769.49 389.57 C 775.03 387.49 780.94 389.45 786.63 389.56 C 795.21 390.22 803.18 386.03 811.64 385.37 Z" />
</g>
<g id="#dfafbffe">
<path fill="#dfafbf" fill-opacity="0" d=" M 1102.20 402.68 C 1110.55 402.92 1117.98 398.20 1126.28 398.34 C 1130.47 398.79 1134.05 401.35 1137.88 402.97 C 1135.36 417.03 1133.84 431.25 1131.99 445.40 C 1131.05 449.44 1131.13 454.00 1134.28 457.04 C 1130.35 461.60 1126.84 466.50 1123.87 471.74 C 1115.81 471.70 1106.64 468.80 1099.31 473.26 C 1094.35 475.91 1095.75 482.22 1095.09 486.93 C 1088.65 487.32 1083.18 483.85 1077.36 481.84 C 1072.98 478.97 1069.81 482.58 1067.02 485.19 C 1064.74 485.52 1062.47 485.87 1060.21 486.28 C 1056.86 490.77 1051.15 492.59 1048.04 497.33 C 1040.71 499.83 1032.61 502.29 1027.86 508.91 C 1025.99 511.06 1023.95 513.61 1020.90 513.92 C 1018.10 513.34 1015.82 511.39 1013.35 510.14 C 1014.52 505.84 1016.52 501.67 1016.82 497.16 C 1014.79 495.89 1012.42 495.40 1010.15 494.78 C 1013.46 490.37 1017.82 486.85 1022.05 483.36 C 1021.08 482.02 1020.12 480.69 1019.17 479.36 C 1021.28 477.47 1023.54 475.71 1025.28 473.45 C 1024.38 469.57 1020.34 467.71 1017.72 465.10 C 1023.23 459.62 1028.69 453.85 1031.76 446.58 C 1036.32 442.76 1037.75 436.84 1041.06 432.18 C 1046.65 430.33 1052.81 430.59 1058.36 428.51 C 1059.76 425.33 1060.93 422.05 1062.20 418.82 C 1060.52 418.13 1058.85 417.46 1057.19 416.76 C 1059.28 412.83 1059.96 407.44 1064.25 405.13 C 1068.36 402.40 1073.51 402.46 1078.24 402.87 C 1086.22 403.36 1094.21 402.52 1102.20 402.68 Z" />
</g>
<g id="#bf4f9fff">
<path fill="#bf4f9f" fill-opacity="0" d=" M 902.32 418.13 C 913.46 418.20 924.76 412.79 935.70 416.59 C 942.01 424.07 951.01 428.44 958.57 434.52 C 963.48 438.58 970.17 435.69 974.75 432.51 C 977.10 433.75 979.47 434.95 981.84 436.17 C 978.68 438.98 972.42 442.13 975.30 447.24 C 977.59 450.29 981.93 450.82 985.25 452.36 C 984.66 455.04 983.46 457.78 983.96 460.57 C 985.53 464.52 989.51 466.71 992.51 469.49 C 995.55 471.69 998.75 474.60 1002.78 474.39 C 1006.52 473.91 1009.91 472.08 1013.39 470.71 C 1008.72 467.12 1004.06 463.22 1001.61 457.71 C 1004.28 456.62 1006.94 455.49 1009.60 454.37 C 1010.59 451.48 1011.81 448.67 1013.37 446.04 C 1019.48 446.60 1025.62 446.58 1031.76 446.58 C 1028.69 453.85 1023.23 459.62 1017.72 465.10 C 1020.34 467.71 1024.38 469.57 1025.28 473.45 C 1023.54 475.71 1021.28 477.47 1019.17 479.36 C 1020.12 480.69 1021.08 482.02 1022.05 483.36 C 1017.82 486.85 1013.46 490.37 1010.15 494.78 C 1009.15 497.59 1008.34 500.53 1006.68 503.05 C 998.72 504.61 993.36 497.65 986.23 496.09 C 978.21 495.41 970.35 497.66 962.37 497.95 C 959.32 498.05 956.45 499.14 953.83 500.63 C 951.53 498.33 949.26 495.98 947.00 493.67 C 947.54 487.44 950.33 481.20 949.06 474.90 C 947.06 469.08 940.86 465.51 935.04 464.58 C 926.22 465.10 920.49 473.36 912.10 475.25 C 909.08 475.24 906.74 472.61 904.11 471.50 C 902.39 465.02 896.78 461.19 892.94 456.17 C 891.84 452.42 894.18 448.59 895.02 444.97 C 893.19 444.27 891.36 443.59 889.54 442.93 C 888.27 439.47 887.91 435.76 889.22 432.25 C 890.69 427.97 887.60 424.10 886.54 420.13 C 891.47 421.07 896.41 421.94 901.34 422.93 C 901.66 421.32 901.98 419.72 902.32 418.13 Z" />
</g>
<g id="#bfcf9ffe">
<path fill="#bfcf9f" fill-opacity="0" d=" M 751.41 414.91 C 754.24 415.63 757.25 416.05 759.97 417.23 C 763.38 418.61 764.10 422.69 765.47 425.77 C 766.64 428.70 764.18 431.37 763.22 433.98 C 764.75 433.75 766.30 433.53 767.85 433.32 C 769.16 435.87 769.56 440.26 773.15 440.57 C 781.16 441.67 789.24 442.22 797.20 443.77 C 811.13 447.05 824.52 440.32 838.23 438.85 C 844.44 438.20 848.94 433.10 854.84 431.61 C 857.99 432.56 860.10 435.31 862.43 437.46 C 868.03 442.70 871.87 449.54 877.79 454.48 C 870.41 461.97 860.73 466.82 850.57 469.25 C 845.33 470.47 840.20 472.11 835.06 473.69 C 828.40 475.18 821.44 472.60 814.75 473.89 C 808.89 475.39 804.11 479.54 798.30 481.16 C 792.80 482.30 787.27 480.47 781.74 480.61 C 774.24 480.67 771.05 471.53 764.03 470.37 C 758.05 470.93 752.80 474.23 747.32 476.41 C 750.13 482.01 754.94 486.89 755.54 493.36 C 756.02 497.23 754.72 500.99 754.58 504.84 C 754.31 510.53 754.41 516.26 755.20 521.92 C 749.48 519.26 743.80 515.75 737.34 515.48 C 735.60 515.19 733.36 515.46 732.25 513.80 C 723.18 496.89 721.95 477.46 718.26 459.00 C 723.00 452.82 728.12 446.92 732.68 440.60 C 737.10 434.62 736.92 426.71 740.34 420.30 C 743.13 419.17 746.21 419.32 749.16 419.07 C 749.92 417.69 750.65 416.29 751.41 414.91 Z" />
</g>
<g id="#bf4f1ffe">
<path fill="#bf4f1f" fill-opacity="0" d=" M 989.29 430.13 C 991.01 429.15 992.57 432.04 990.54 432.70 C 988.81 433.70 987.31 430.81 989.29 430.13 Z" />
</g>
<g id="#9f6f3fff">
<path fill="#9f6f3f" fill-opacity="0" d=" M 981.84 436.17 C 991.51 441.60 1002.16 445.66 1013.37 446.04 C 1011.81 448.67 1010.59 451.48 1009.60 454.37 C 1006.94 455.49 1004.28 456.62 1001.61 457.71 C 1004.06 463.22 1008.72 467.12 1013.39 470.71 C 1009.91 472.08 1006.52 473.91 1002.78 474.39 C 998.75 474.60 995.55 471.69 992.51 469.49 C 989.51 466.71 985.53 464.52 983.96 460.57 C 983.46 457.78 984.66 455.04 985.25 452.36 C 981.93 450.82 977.59 450.29 975.30 447.24 C 972.42 442.13 978.68 438.98 981.84 436.17 Z" />
</g>
<g id="#3f8f1fff">
<path fill="#3f8f1f" fill-opacity="0" d=" M 877.79 454.48 C 882.21 451.17 885.95 447.11 889.54 442.93 C 891.36 443.59 893.19 444.27 895.02 444.97 C 894.18 448.59 891.84 452.42 892.94 456.17 C 896.78 461.19 902.39 465.02 904.11 471.50 C 898.25 468.01 890.05 464.26 883.87 468.95 C 880.72 473.20 885.76 480.41 880.54 483.50 C 873.05 484.68 865.97 481.64 858.70 480.57 C 854.96 480.09 850.68 481.16 848.54 484.49 C 847.23 488.54 848.83 493.01 847.71 497.12 C 846.61 499.68 844.54 501.65 843.17 504.05 C 840.37 509.68 834.64 512.88 829.69 516.41 C 831.63 522.87 835.80 528.27 840.96 532.48 C 840.98 537.38 841.79 542.37 840.90 547.21 C 839.11 551.90 833.16 549.46 829.90 548.23 C 825.83 546.27 821.41 548.24 817.29 548.95 C 810.20 544.48 801.63 544.26 793.73 542.19 C 787.10 540.42 780.22 539.14 774.11 535.86 C 768.85 533.50 763.21 529.57 757.19 531.84 C 756.48 528.54 755.63 525.26 755.20 521.92 C 754.41 516.26 754.31 510.53 754.58 504.84 C 754.72 500.99 756.02 497.23 755.54 493.36 C 754.94 486.89 750.13 482.01 747.32 476.41 C 752.80 474.23 758.05 470.93 764.03 470.37 C 771.05 471.53 774.24 480.67 781.74 480.61 C 787.27 480.47 792.80 482.30 798.30 481.16 C 804.11 479.54 808.89 475.39 814.75 473.89 C 821.44 472.60 828.40 475.18 835.06 473.69 C 840.20 472.11 845.33 470.47 850.57 469.25 C 860.73 466.82 870.41 461.97 877.79 454.48 Z" />
</g>
<g id="#000f9fff">
<path fill="#000f9f" fill-opacity="0" d=" M 1134.28 457.04 C 1135.48 458.42 1136.77 459.73 1138.07 461.04 C 1140.50 463.63 1143.34 465.80 1146.40 467.63 C 1140.87 474.09 1135.64 481.00 1132.48 488.97 C 1127.70 489.37 1122.86 489.62 1118.15 490.58 C 1112.08 492.00 1106.25 494.57 1101.19 498.22 C 1094.39 503.74 1084.74 502.84 1077.52 507.62 C 1073.12 510.80 1066.21 510.72 1062.53 506.49 C 1058.59 502.17 1053.51 499.22 1048.04 497.33 C 1051.15 492.59 1056.86 490.77 1060.21 486.28 C 1062.47 485.87 1064.74 485.52 1067.02 485.19 C 1069.81 482.58 1072.98 478.97 1077.36 481.84 C 1083.18 483.85 1088.65 487.32 1095.09 486.93 C 1095.75 482.22 1094.35 475.91 1099.31 473.26 C 1106.64 468.80 1115.81 471.70 1123.87 471.74 C 1126.84 466.50 1130.35 461.60 1134.28 457.04 Z" />
</g>
<g id="#000f5fff">
<path fill="#000f5f" fill-opacity="0" d=" M 912.10 475.25 C 920.49 473.36 926.22 465.10 935.04 464.58 C 940.86 465.51 947.06 469.08 949.06 474.90 C 950.33 481.20 947.54 487.44 947.00 493.67 C 949.26 495.98 951.53 498.33 953.83 500.63 C 952.97 506.64 949.74 511.87 946.57 516.91 C 940.96 513.44 935.48 509.48 929.25 507.23 C 920.18 504.85 911.65 509.56 903.59 512.95 C 898.57 514.87 893.78 517.30 888.94 519.60 C 884.33 521.44 879.09 521.31 874.69 523.72 C 870.99 525.77 867.53 528.19 863.94 530.40 C 857.89 527.05 850.97 524.96 844.08 524.44 C 840.15 524.80 840.92 529.69 840.96 532.48 C 835.80 528.27 831.63 522.87 829.69 516.41 C 834.64 512.88 840.37 509.68 843.17 504.05 C 844.54 501.65 846.61 499.68 847.71 497.12 C 848.83 493.01 847.23 488.54 848.54 484.49 C 850.68 481.16 854.96 480.09 858.70 480.57 C 865.97 481.64 873.05 484.68 880.54 483.50 C 885.76 480.41 880.72 473.20 883.87 468.95 C 890.05 464.26 898.25 468.01 904.11 471.50 C 906.74 472.61 909.08 475.24 912.10 475.25 Z" />
</g>
<g id="#5fefbfff">
<path fill="#5fefbf" fill-opacity="0" d=" M 1132.48 488.97 C 1135.64 481.00 1140.87 474.09 1146.40 467.63 C 1152.33 468.48 1159.06 467.92 1163.98 471.97 C 1167.89 475.29 1172.29 478.38 1174.94 482.89 C 1176.25 486.56 1175.33 490.61 1175.59 494.41 C 1178.68 497.58 1182.79 501.06 1182.44 505.91 C 1181.77 511.80 1180.42 517.59 1179.55 523.45 C 1183.37 527.36 1185.27 533.91 1191.27 535.02 C 1195.61 535.13 1199.84 533.98 1204.13 533.31 C 1204.18 537.20 1204.26 541.08 1204.51 544.98 C 1205.06 551.33 1210.11 556.68 1209.47 563.22 C 1206.19 581.48 1201.53 599.48 1198.35 617.76 C 1197.57 622.04 1195.10 626.22 1190.82 627.73 C 1185.96 629.65 1181.12 633.16 1180.44 638.73 C 1180.09 643.14 1177.01 646.21 1173.47 648.52 C 1172.88 648.06 1171.72 647.14 1171.14 646.68 C 1166.99 642.97 1160.94 643.43 1156.35 640.53 C 1151.51 638.36 1148.17 634.23 1145.94 629.59 C 1141.99 630.72 1137.83 632.11 1133.70 631.06 C 1128.23 629.61 1123.07 627.33 1117.72 625.57 C 1118.81 619.21 1120.31 612.75 1119.51 606.27 C 1117.62 600.35 1113.15 595.74 1110.42 590.25 C 1115.43 587.71 1120.39 585.07 1125.42 582.56 C 1121.89 579.75 1118.09 576.93 1113.49 576.36 C 1102.99 575.17 1093.30 570.38 1082.81 569.29 C 1088.31 557.23 1090.12 541.90 1102.88 534.85 C 1110.21 528.35 1121.56 530.14 1128.02 522.50 C 1131.90 518.30 1137.62 515.83 1140.56 510.81 C 1140.13 502.88 1135.54 496.09 1132.48 488.97 Z" />
</g>
<g id="#dfefbfff">
<path fill="#dfefbf" fill-opacity="0" d=" M 1118.15 490.58 C 1122.86 489.62 1127.70 489.37 1132.48 488.97 C 1135.54 496.09 1140.13 502.88 1140.56 510.81 C 1137.62 515.83 1131.90 518.30 1128.02 522.50 C 1121.56 530.14 1110.21 528.35 1102.88 534.85 C 1090.12 541.90 1088.31 557.23 1082.81 569.29 C 1079.47 568.83 1075.36 570.00 1073.05 566.99 C 1068.55 562.36 1068.81 555.18 1064.77 550.26 C 1058.49 541.91 1048.30 538.22 1038.79 535.02 C 1045.04 532.63 1051.63 534.48 1058.04 533.78 C 1064.18 530.80 1069.32 524.81 1076.58 524.39 C 1080.87 523.66 1086.51 524.60 1089.42 520.50 C 1097.67 509.34 1107.61 499.55 1118.15 490.58 Z" />
</g>
<g id="#001020fe">
<path fill="#001020" fill-opacity="0" d=" M 1101.19 498.22 C 1106.25 494.57 1112.08 492.00 1118.15 490.58 C 1107.61 499.55 1097.67 509.34 1089.42 520.50 C 1086.51 524.60 1080.87 523.66 1076.58 524.39 C 1069.32 524.81 1064.18 530.80 1058.04 533.78 C 1051.63 534.48 1045.04 532.63 1038.79 535.02 C 1038.43 535.10 1037.71 535.27 1037.35 535.35 C 1035.14 534.63 1032.92 533.93 1030.72 533.22 C 1029.82 525.11 1028.68 517.02 1027.86 508.91 C 1032.61 502.29 1040.71 499.83 1048.04 497.33 C 1053.51 499.22 1058.59 502.17 1062.53 506.49 C 1066.21 510.72 1073.12 510.80 1077.52 507.62 C 1084.74 502.84 1094.39 503.74 1101.19 498.22 Z" />
</g>
<g id="#dfef3fff">
<path fill="#dfef3f" fill-opacity="0" d=" M 962.37 497.95 C 970.35 497.66 978.21 495.41 986.23 496.09 C 993.36 497.65 998.72 504.61 1006.68 503.05 C 1008.34 500.53 1009.15 497.59 1010.15 494.78 C 1012.42 495.40 1014.79 495.89 1016.82 497.16 C 1016.52 501.67 1014.52 505.84 1013.35 510.14 C 1015.82 511.39 1018.10 513.34 1020.90 513.92 C 1023.95 513.61 1025.99 511.06 1027.86 508.91 C 1028.68 517.02 1029.82 525.11 1030.72 533.22 C 1032.92 533.93 1035.14 534.63 1037.35 535.35 C 1038.01 546.85 1035.74 558.20 1035.25 569.66 C 1034.85 576.39 1026.28 579.55 1020.53 577.27 C 1015.43 575.87 1010.56 578.54 1007.09 582.09 C 1000.15 587.44 999.40 597.08 992.42 602.41 C 986.23 608.00 979.26 612.92 971.48 616.02 C 971.09 616.02 970.29 616.01 969.90 616.01 C 970.33 614.54 970.77 613.08 971.21 611.62 C 966.61 610.68 962.22 609.22 957.63 608.46 C 954.61 608.50 951.88 610.14 949.33 611.57 C 945.33 604.67 940.74 598.14 936.03 591.72 C 935.19 590.62 934.37 589.55 933.55 588.47 C 936.22 585.59 939.66 582.96 940.81 579.06 C 938.77 572.47 930.54 570.31 928.40 563.89 C 931.40 547.17 948.51 534.88 946.57 516.91 C 949.74 511.87 952.97 506.64 953.83 500.63 C 956.45 499.14 959.32 498.05 962.37 497.95 Z" />
</g>
<g id="#7f0f1fff">
<path fill="#7f0f1f" fill-opacity="0" d=" M 903.59 512.95 C 911.65 509.56 920.18 504.85 929.25 507.23 C 935.48 509.48 940.96 513.44 946.57 516.91 C 948.51 534.88 931.40 547.17 928.40 563.89 C 930.54 570.31 938.77 572.47 940.81 579.06 C 939.66 582.96 936.22 585.59 933.55 588.47 C 934.37 589.55 935.19 590.62 936.03 591.72 C 930.85 593.47 925.43 594.66 919.97 594.90 C 915.65 595.03 911.85 592.73 908.03 591.06 C 904.08 589.28 899.67 589.15 895.54 588.08 C 889.49 585.95 883.56 583.46 877.34 581.87 C 878.07 578.06 879.52 574.20 879.25 570.30 C 877.54 565.37 872.85 561.85 871.81 556.63 C 871.16 551.22 872.85 545.70 871.64 540.35 C 870.48 536.15 866.88 533.35 863.94 530.40 C 867.53 528.19 870.99 525.77 874.69 523.72 C 879.09 521.31 884.33 521.44 888.94 519.60 C 893.78 517.30 898.57 514.87 903.59 512.95 Z" />
</g>
<g id="#008f1fff">
<path fill="#008f1f" fill-opacity="0" d=" M 840.96 532.48 C 840.92 529.69 840.15 524.80 844.08 524.44 C 850.97 524.96 857.89 527.05 863.94 530.40 C 866.88 533.35 870.48 536.15 871.64 540.35 C 872.85 545.70 871.16 551.22 871.81 556.63 C 872.85 561.85 877.54 565.37 879.25 570.30 C 879.52 574.20 878.07 578.06 877.34 581.87 C 871.49 585.74 864.48 588.47 860.08 594.07 C 857.30 600.29 858.80 607.47 857.70 614.10 C 854.43 612.76 851.16 611.42 847.91 610.05 C 846.53 613.14 845.26 616.30 843.71 619.33 C 833.67 610.97 822.70 603.79 813.11 594.89 C 811.21 593.24 809.14 591.82 807.09 590.40 C 809.38 586.43 810.29 581.88 811.42 577.49 C 812.35 573.91 810.77 570.39 810.42 566.86 C 810.16 560.29 812.29 553.44 817.29 548.95 C 821.41 548.24 825.83 546.27 829.90 548.23 C 833.16 549.46 839.11 551.90 840.90 547.21 C 841.79 542.37 840.98 537.38 840.96 532.48 Z" />
</g>
<g id="#3f4f1ffe">
<path fill="#3f4f1f" fill-opacity="0" d=" M 757.19 531.84 C 763.21 529.57 768.85 533.50 774.11 535.86 C 780.22 539.14 787.10 540.42 793.73 542.19 C 801.63 544.26 810.20 544.48 817.29 548.95 C 812.29 553.44 810.16 560.29 810.42 566.86 C 810.77 570.39 812.35 573.91 811.42 577.49 C 810.29 581.88 809.38 586.43 807.09 590.40 C 803.62 595.44 801.41 601.12 799.79 606.99 C 793.76 608.32 787.94 612.00 781.62 611.35 C 773.65 608.83 771.56 599.36 765.70 594.27 C 761.91 592.29 757.13 593.15 753.29 594.63 C 751.47 576.09 746.22 557.57 748.89 538.87 C 749.77 534.97 753.70 532.97 757.19 531.84 Z" />
</g>
<g id="#5fef3fff">
<path fill="#5fef3f" fill-opacity="0" d=" M 1037.35 535.35 C 1037.71 535.27 1038.43 535.10 1038.79 535.02 C 1048.30 538.22 1058.49 541.91 1064.77 550.26 C 1068.81 555.18 1068.55 562.36 1073.05 566.99 C 1075.36 570.00 1079.47 568.83 1082.81 569.29 C 1093.30 570.38 1102.99 575.17 1113.49 576.36 C 1118.09 576.93 1121.89 579.75 1125.42 582.56 C 1120.39 585.07 1115.43 587.71 1110.42 590.25 C 1113.15 595.74 1117.62 600.35 1119.51 606.27 C 1120.31 612.75 1118.81 619.21 1117.72 625.57 C 1113.82 624.29 1109.51 623.49 1106.45 620.55 C 1102.61 616.72 1099.97 612.01 1097.41 607.32 C 1095.47 603.79 1091.55 600.66 1087.35 601.51 C 1081.37 603.04 1076.36 607.19 1070.25 608.33 C 1066.31 609.01 1062.25 608.92 1058.29 609.18 C 1056.56 612.37 1054.86 615.69 1052.22 618.24 C 1048.69 621.36 1043.83 621.77 1039.43 622.67 C 1036.35 623.24 1034.07 625.55 1031.71 627.41 C 1020.00 629.44 1008.88 634.00 997.03 635.23 C 989.58 627.61 982.55 618.22 971.48 616.02 C 979.26 612.92 986.23 608.00 992.42 602.41 C 999.40 597.08 1000.15 587.44 1007.09 582.09 C 1010.56 578.54 1015.43 575.87 1020.53 577.27 C 1026.28 579.55 1034.85 576.39 1035.25 569.66 C 1035.74 558.20 1038.01 546.85 1037.35 535.35 M 1078.15 595.40 C 1077.29 599.38 1082.13 594.58 1078.15 595.40 Z" />
</g>
<g id="#004f1fff">
<path fill="#004f1f" fill-opacity="0" d=" M 860.08 594.07 C 864.48 588.47 871.49 585.74 877.34 581.87 C 883.56 583.46 889.49 585.95 895.54 588.08 C 897.46 599.09 900.67 612.46 892.20 621.62 C 889.40 617.34 886.39 613.16 882.56 609.72 C 880.89 612.58 879.00 615.63 879.28 619.10 C 879.73 624.62 883.70 628.88 886.44 633.46 C 888.40 636.92 891.33 640.07 892.43 644.00 C 889.75 649.59 885.69 654.42 882.49 659.73 C 880.99 659.55 879.50 659.37 878.02 659.20 C 873.62 655.41 869.24 651.42 864.16 648.58 C 858.93 647.19 855.24 652.59 850.34 653.23 C 846.21 650.67 842.37 647.69 837.95 645.62 C 837.87 638.34 836.08 629.90 841.13 623.74 C 842.04 622.30 842.91 620.83 843.71 619.33 C 845.26 616.30 846.53 613.14 847.91 610.05 C 851.16 611.42 854.43 612.76 857.70 614.10 C 858.80 607.47 857.30 600.29 860.08 594.07 Z" />
</g>
<g id="#7f8f9fff">
<path fill="#7f8f9f" fill-opacity="0" d=" M 895.54 588.08 C 899.67 589.15 904.08 589.28 908.03 591.06 C 911.85 592.73 915.65 595.03 919.97 594.90 C 925.43 594.66 930.85 593.47 936.03 591.72 C 940.74 598.14 945.33 604.67 949.33 611.57 C 940.50 617.69 931.17 623.39 920.85 626.59 C 916.87 628.13 912.57 627.30 908.54 626.55 C 906.88 625.32 905.31 623.76 903.25 623.33 C 900.57 623.91 898.89 626.31 896.87 627.94 C 893.96 630.71 890.07 631.97 886.44 633.46 C 883.70 628.88 879.73 624.62 879.28 619.10 C 879.00 615.63 880.89 612.58 882.56 609.72 C 886.39 613.16 889.40 617.34 892.20 621.62 C 900.67 612.46 897.46 599.09 895.54 588.08 Z" />
</g>
<g id="#3fcf9fff">
<path fill="#3fcf9f" fill-opacity="0" d=" M 807.09 590.40 C 809.14 591.82 811.21 593.24 813.11 594.89 C 822.70 603.79 833.67 610.97 843.71 619.33 C 842.91 620.83 842.04 622.30 841.13 623.74 C 835.75 623.83 830.30 623.89 825.07 625.28 C 820.33 626.99 817.38 631.55 812.90 633.66 C 806.77 635.14 799.99 633.31 794.17 636.26 C 790.46 637.82 787.20 640.65 783.17 641.31 C 778.19 640.73 774.57 636.68 770.51 634.12 C 770.94 642.31 771.44 650.48 773.35 658.49 L 772.98 659.30 C 769.65 655.61 765.89 652.07 763.88 647.43 C 761.14 638.84 754.39 631.94 753.31 622.79 C 752.42 615.38 750.68 608.12 749.36 600.80 C 748.56 597.96 751.10 595.86 753.29 594.63 C 757.13 593.15 761.91 592.29 765.70 594.27 C 771.56 599.36 773.65 608.83 781.62 611.35 C 787.94 612.00 793.76 608.32 799.79 606.99 C 801.41 601.12 803.62 595.44 807.09 590.40 Z" />
</g>
<g id="#df6f40ff">
<path fill="#df6f40" fill-opacity="0" d=" M 1078.15 595.40 C 1082.13 594.58 1077.29 599.38 1078.15 595.40 Z" />
</g>
<g id="#bf8f9fff">
<path fill="#bf8f9f" fill-opacity="0" d=" M 1087.35 601.51 C 1091.55 600.66 1095.47 603.79 1097.41 607.32 C 1099.97 612.01 1102.61 616.72 1106.45 620.55 C 1109.51 623.49 1113.82 624.29 1117.72 625.57 C 1123.07 627.33 1128.23 629.61 1133.70 631.06 C 1137.83 632.11 1141.99 630.72 1145.94 629.59 C 1148.17 634.23 1151.51 638.36 1156.35 640.53 C 1160.94 643.43 1166.99 642.97 1171.14 646.68 C 1174.46 652.74 1173.05 659.85 1171.92 666.31 C 1169.07 678.66 1167.11 691.17 1164.54 703.57 C 1163.15 710.29 1163.13 718.44 1156.47 722.42 C 1148.50 727.33 1141.70 733.82 1136.37 741.51 C 1132.07 737.57 1131.29 731.59 1129.80 726.25 C 1123.01 727.04 1116.00 727.11 1109.58 724.47 C 1106.31 722.84 1102.83 723.97 1099.91 725.73 C 1103.46 707.33 1105.32 688.66 1108.01 670.13 C 1102.26 666.46 1096.11 663.40 1090.73 659.18 C 1087.75 656.93 1087.32 652.98 1085.47 649.97 C 1080.63 652.80 1078.18 659.01 1072.59 660.49 C 1069.56 657.49 1067.59 653.64 1064.95 650.32 C 1063.16 653.10 1061.56 656.01 1060.17 659.01 C 1050.44 656.82 1043.02 650.08 1034.54 645.39 C 1035.90 639.34 1035.80 632.42 1031.71 627.41 C 1034.07 625.55 1036.35 623.24 1039.43 622.67 C 1043.83 621.77 1048.69 621.36 1052.22 618.24 C 1054.86 615.69 1056.56 612.37 1058.29 609.18 C 1062.25 608.92 1066.31 609.01 1070.25 608.33 C 1076.36 607.19 1081.37 603.04 1087.35 601.51 M 1079.19 617.91 C 1077.52 618.35 1078.42 620.95 1080.01 620.29 C 1081.67 619.86 1080.75 617.22 1079.19 617.91 Z" />
</g>
<g id="#00cf9fff">
<path fill="#00cf9f" fill-opacity="0" d=" M 949.33 611.57 C 951.88 610.14 954.61 608.50 957.63 608.46 C 962.22 609.22 966.61 610.68 971.21 611.62 C 970.77 613.08 970.33 614.54 969.90 616.01 C 967.42 623.93 965.82 632.11 962.91 639.88 C 955.57 642.17 947.75 643.07 940.11 644.09 C 933.96 644.97 930.87 638.27 925.84 636.15 C 921.36 637.60 917.86 641.02 913.98 643.57 C 910.14 638.73 908.93 632.55 908.54 626.55 C 912.57 627.30 916.87 628.13 920.85 626.59 C 931.17 623.39 940.50 617.69 949.33 611.57 Z" />
</g>
<g id="#7fcf9fff">
<path fill="#7fcf9f" fill-opacity="0" d=" M 969.90 616.01 C 970.29 616.01 971.09 616.02 971.48 616.02 C 982.55 618.22 989.58 627.61 997.03 635.23 C 994.72 640.09 992.30 645.15 992.77 650.73 C 993.11 655.47 994.35 660.07 995.19 664.74 C 992.02 665.93 988.82 667.07 985.65 668.25 C 986.81 672.19 991.05 676.85 987.88 680.83 C 980.01 688.11 969.78 693.33 959.05 694.42 C 955.06 694.73 950.35 691.50 946.88 694.49 C 944.30 699.67 945.44 706.33 941.76 711.10 C 932.61 709.25 926.16 701.39 917.34 698.62 C 912.76 697.16 907.90 698.44 903.28 698.77 C 897.01 699.35 890.80 700.35 884.71 701.87 C 877.73 696.65 870.21 690.08 868.34 681.24 C 871.41 675.83 878.86 675.12 883.63 671.71 C 882.10 667.39 880.89 662.86 878.02 659.20 C 879.50 659.37 880.99 659.55 882.49 659.73 C 885.69 654.42 889.75 649.59 892.43 644.00 C 891.33 640.07 888.40 636.92 886.44 633.46 C 890.07 631.97 893.96 630.71 896.87 627.94 C 898.89 626.31 900.57 623.91 903.25 623.33 C 905.31 623.76 906.88 625.32 908.54 626.55 C 908.93 632.55 910.14 638.73 913.98 643.57 C 917.86 641.02 921.36 637.60 925.84 636.15 C 930.87 638.27 933.96 644.97 940.11 644.09 C 947.75 643.07 955.57 642.17 962.91 639.88 C 965.82 632.11 967.42 623.93 969.90 616.01 Z" />
</g>
<g id="#3f8f9fff">
<path fill="#3f8f9f" fill-opacity="0" d=" M 1079.19 617.91 C 1080.75 617.22 1081.67 619.86 1080.01 620.29 C 1078.42 620.95 1077.52 618.35 1079.19 617.91 Z" />
</g>
<g id="#7f4f1ffe">
<path fill="#7f4f1f" fill-opacity="0" d=" M 825.07 625.28 C 830.30 623.89 835.75 623.83 841.13 623.74 C 836.08 629.90 837.87 638.34 837.95 645.62 C 837.80 650.04 837.33 654.89 834.39 658.41 C 829.92 662.83 824.38 665.87 819.01 669.04 C 815.10 666.06 811.14 662.66 806.22 661.69 C 795.61 659.47 784.08 662.50 774.33 656.46 C 773.99 657.12 773.66 657.80 773.35 658.49 C 771.44 650.48 770.94 642.31 770.51 634.12 C 774.57 636.68 778.19 640.73 783.17 641.31 C 787.20 640.65 790.46 637.82 794.17 636.26 C 799.99 633.31 806.77 635.14 812.90 633.66 C 817.38 631.55 820.33 626.99 825.07 625.28 Z" />
</g>
<g id="#bf0f9fff">
<path fill="#bf0f9f" fill-opacity="0" d=" M 997.03 635.23 C 1008.88 634.00 1020.00 629.44 1031.71 627.41 C 1035.80 632.42 1035.90 639.34 1034.54 645.39 C 1028.92 649.35 1023.00 653.29 1019.62 659.47 C 1023.32 663.33 1028.02 666.64 1030.18 671.72 C 1030.99 673.11 1029.95 674.73 1028.80 675.54 C 1025.69 677.64 1022.15 678.93 1018.76 680.47 C 1019.13 685.56 1020.84 690.67 1025.01 693.90 C 1029.86 697.54 1031.47 703.68 1032.07 709.43 C 1031.26 713.89 1029.57 718.11 1028.48 722.50 C 1027.42 726.58 1027.74 730.83 1027.18 734.98 C 1025.30 741.01 1022.26 746.79 1017.63 751.16 C 1016.82 745.09 1016.25 738.94 1014.90 732.99 C 1013.35 727.12 1006.42 725.11 1000.99 725.48 C 995.73 725.95 989.00 728.57 988.89 734.78 C 988.64 741.02 987.38 748.73 981.04 751.61 C 972.15 752.48 963.07 753.42 954.72 756.81 C 950.07 758.94 948.54 764.17 946.95 768.60 C 939.59 770.51 932.21 768.17 924.82 767.85 C 924.08 762.00 922.52 756.32 920.11 750.96 C 916.69 740.78 911.54 731.20 908.89 720.78 C 907.90 713.26 907.30 705.42 903.28 698.77 C 907.90 698.44 912.76 697.16 917.34 698.62 C 926.16 701.39 932.61 709.25 941.76 711.10 C 945.44 706.33 944.30 699.67 946.88 694.49 C 950.35 691.50 955.06 694.73 959.05 694.42 C 969.78 693.33 980.01 688.11 987.88 680.83 C 991.05 676.85 986.81 672.19 985.65 668.25 C 988.82 667.07 992.02 665.93 995.19 664.74 C 994.35 660.07 993.11 655.47 992.77 650.73 C 992.30 645.15 994.72 640.09 997.03 635.23 M 1011.19 711.91 C 1009.52 712.35 1010.42 714.95 1012.01 714.29 C 1013.67 713.86 1012.75 711.21 1011.19 711.91 Z" />
</g>
<g id="#00cf1fff">
<path fill="#00cf1f" fill-opacity="0" d=" M 837.95 645.62 C 842.37 647.69 846.21 650.67 850.34 653.23 C 855.24 652.59 858.93 647.19 864.16 648.58 C 869.24 651.42 873.62 655.41 878.02 659.20 C 880.89 662.86 882.10 667.39 883.63 671.71 C 878.86 675.12 871.41 675.83 868.34 681.24 C 870.21 690.08 877.73 696.65 884.71 701.87 C 883.42 705.85 882.07 711.32 877.40 712.36 C 872.39 712.49 867.86 709.57 862.95 708.95 C 859.97 711.68 857.40 714.81 854.75 717.85 C 850.92 716.68 846.50 715.32 845.10 711.00 C 841.89 705.95 842.38 699.24 838.43 694.63 C 835.45 693.35 832.14 693.55 828.98 693.55 C 826.22 685.18 823.24 676.78 819.01 669.04 C 824.38 665.87 829.92 662.83 834.39 658.41 C 837.33 654.89 837.80 650.04 837.95 645.62 Z" />
</g>
<g id="#1fef3fff">
<path fill="#1fef3f" fill-opacity="0" d=" M 1019.62 659.47 C 1023.00 653.29 1028.92 649.35 1034.54 645.39 C 1043.02 650.08 1050.44 656.82 1060.17 659.01 C 1061.56 656.01 1063.16 653.10 1064.95 650.32 C 1067.59 653.64 1069.56 657.49 1072.59 660.49 C 1078.18 659.01 1080.63 652.80 1085.47 649.97 C 1087.32 652.98 1087.75 656.93 1090.73 659.18 C 1096.11 663.40 1102.26 666.46 1108.01 670.13 C 1105.32 688.66 1103.46 707.33 1099.91 725.73 L 1099.70 726.77 C 1098.56 725.51 1097.38 724.03 1097.55 722.24 C 1097.94 714.00 1099.88 705.93 1099.99 697.67 C 1094.88 700.09 1090.36 703.49 1085.74 706.69 C 1079.55 710.11 1072.77 712.27 1066.07 714.44 C 1061.94 708.92 1058.76 700.46 1051.18 699.36 C 1046.00 700.69 1044.93 707.59 1040.34 709.97 C 1037.57 710.39 1034.80 709.61 1032.07 709.43 C 1031.47 703.68 1029.86 697.54 1025.01 693.90 C 1020.84 690.67 1019.13 685.56 1018.76 680.47 C 1022.15 678.93 1025.69 677.64 1028.80 675.54 C 1029.95 674.73 1030.99 673.11 1030.18 671.72 C 1028.02 666.64 1023.32 663.33 1019.62 659.47 Z" />
</g>
<g id="#9fef3fff">
<path fill="#9fef3f" fill-opacity="0" d=" M 774.33 656.46 C 784.08 662.50 795.61 659.47 806.22 661.69 C 811.14 662.66 815.10 666.06 819.01 669.04 C 823.24 676.78 826.22 685.18 828.98 693.55 C 828.57 699.03 826.16 704.07 823.39 708.74 C 818.00 705.72 811.82 705.35 805.81 706.34 C 807.69 715.65 811.13 724.53 813.28 733.77 C 812.07 733.30 810.89 732.86 809.70 732.41 C 809.37 738.32 807.14 745.35 800.82 747.21 C 793.39 748.84 786.40 744.53 779.89 741.63 C 778.98 745.41 777.83 749.14 776.73 752.87 C 776.57 753.44 776.25 754.57 776.09 755.14 C 774.49 753.52 772.61 752.02 771.77 749.85 C 768.12 734.98 767.62 719.54 763.85 704.69 C 762.88 698.81 760.46 692.85 762.14 686.87 C 763.65 683.63 766.07 680.89 767.48 677.60 C 768.90 673.76 768.09 669.44 769.84 665.70 C 770.83 663.54 772.00 661.47 772.98 659.30 L 773.35 658.49 C 773.66 657.80 773.99 657.12 774.33 656.46 Z" />
</g>
<g id="#1f6fbfff">
<path fill="#1f6fbf" fill-opacity="0" d=" M 828.98 693.55 C 832.14 693.55 835.45 693.35 838.43 694.63 C 842.38 699.24 841.89 705.95 845.10 711.00 C 846.50 715.32 850.92 716.68 854.75 717.85 C 854.69 720.92 854.66 723.99 854.68 727.07 C 851.04 726.43 847.43 725.67 843.84 724.90 C 836.25 731.58 832.90 741.83 834.04 751.74 C 834.35 756.12 835.07 761.94 830.95 764.96 C 825.71 767.69 819.32 770.03 813.49 767.46 C 809.83 766.23 807.23 763.12 804.31 760.79 C 796.20 766.68 788.05 772.64 778.93 776.89 C 773.48 779.52 767.36 780.12 761.64 781.95 C 762.97 778.70 763.56 774.75 766.53 772.53 C 770.46 769.82 774.66 767.51 778.98 765.49 C 778.42 761.25 777.29 757.11 776.73 752.87 C 777.83 749.14 778.98 745.41 779.89 741.63 C 786.40 744.53 793.39 748.84 800.82 747.21 C 807.14 745.35 809.37 738.32 809.70 732.41 C 810.89 732.86 812.07 733.30 813.28 733.77 C 811.13 724.53 807.69 715.65 805.81 706.34 C 811.82 705.35 818.00 705.72 823.39 708.74 C 826.16 704.07 828.57 699.03 828.98 693.55 Z" />
</g>
<g id="#7f8f1fff">
<path fill="#7f8f1f" fill-opacity="0" d=" M 1085.74 706.69 C 1090.36 703.49 1094.88 700.09 1099.99 697.67 C 1099.88 705.93 1097.94 714.00 1097.55 722.24 C 1097.38 724.03 1098.56 725.51 1099.70 726.77 C 1102.01 728.25 1105.17 728.81 1106.72 731.27 C 1107.11 735.94 1105.52 740.51 1104.77 745.09 C 1091.50 739.48 1076.04 741.74 1062.83 746.43 C 1050.32 744.78 1039.66 736.91 1027.18 734.98 C 1027.74 730.83 1027.42 726.58 1028.48 722.50 C 1029.57 718.11 1031.26 713.89 1032.07 709.43 C 1034.80 709.61 1037.57 710.39 1040.34 709.97 C 1044.93 707.59 1046.00 700.69 1051.18 699.36 C 1058.76 700.46 1061.94 708.92 1066.07 714.44 C 1072.77 712.27 1079.55 710.11 1085.74 706.69 Z" />
</g>
<g id="#7f4f9fff">
<path fill="#7f4f9f" fill-opacity="0" d=" M 884.71 701.87 C 890.80 700.35 897.01 699.35 903.28 698.77 C 907.30 705.42 907.90 713.26 908.89 720.78 C 911.54 731.20 916.69 740.78 920.11 750.96 C 916.62 754.92 913.16 759.04 908.66 761.89 C 903.44 765.46 898.25 769.93 891.67 770.50 C 890.01 770.75 888.97 769.22 888.30 767.95 C 886.60 764.72 885.57 761.20 884.21 757.82 C 873.63 760.50 862.92 762.67 852.51 765.97 C 852.41 768.12 852.31 770.28 852.17 772.44 C 849.60 772.79 847.03 773.20 844.49 773.63 C 844.82 768.39 848.38 763.25 847.08 757.97 C 843.89 754.24 838.36 753.69 834.04 751.74 C 832.90 741.83 836.25 731.58 843.84 724.90 C 847.43 725.67 851.04 726.43 854.68 727.07 C 854.66 723.99 854.69 720.92 854.75 717.85 C 857.40 714.81 859.97 711.68 862.95 708.95 C 867.86 709.57 872.39 712.49 877.40 712.36 C 882.07 711.32 883.42 705.85 884.71 701.87 Z" />
</g>
<g id="#3f109fff">
<path fill="#3f109f" fill-opacity="0" d=" M 1011.19 711.91 C 1012.75 711.21 1013.67 713.86 1012.01 714.29 C 1010.42 714.95 1009.52 712.35 1011.19 711.91 Z" />
</g>
<g id="#004f9ffe">
<path fill="#004f9f" fill-opacity="0" d=" M 988.89 734.78 C 989.00 728.57 995.73 725.95 1000.99 725.48 C 1006.42 725.11 1013.35 727.12 1014.90 732.99 C 1016.25 738.94 1016.82 745.09 1017.63 751.16 C 1018.38 756.11 1019.46 761.16 1022.01 765.53 C 1024.72 769.47 1029.88 770.25 1034.04 771.95 C 1035.32 777.62 1037.21 783.12 1039.61 788.41 C 1035.43 789.88 1030.97 790.87 1027.27 793.38 C 1024.18 796.14 1021.60 799.39 1018.72 802.34 C 1014.30 801.19 1008.78 801.14 1006.44 796.57 C 1001.98 788.41 997.03 780.16 989.74 774.20 C 986.80 771.55 982.89 773.55 979.68 774.43 C 972.06 776.91 963.54 779.20 955.75 776.16 C 952.15 774.52 949.65 771.35 946.95 768.60 C 948.54 764.17 950.07 758.94 954.72 756.81 C 963.07 753.42 972.15 752.48 981.04 751.61 C 987.38 748.73 988.64 741.02 988.89 734.78 Z" />
</g>
<g id="#bfcf1fff">
<path fill="#bfcf1f" fill-opacity="0" d=" M 1027.18 734.98 C 1039.66 736.91 1050.32 744.78 1062.83 746.43 C 1076.04 741.74 1091.50 739.48 1104.77 745.09 C 1109.25 747.64 1111.88 752.52 1111.77 757.65 C 1113.67 768.20 1110.23 778.61 1109.07 789.03 C 1107.31 799.00 1106.88 809.25 1103.83 818.96 C 1101.46 817.24 1099.29 815.30 1097.28 813.19 C 1094.79 813.74 1091.74 813.75 1090.14 816.07 C 1084.16 823.99 1077.34 831.46 1069.61 837.69 C 1065.66 841.09 1060.42 839.23 1056.01 838.08 C 1056.28 832.85 1058.55 827.38 1056.63 822.29 C 1052.52 814.95 1046.95 808.56 1042.54 801.42 C 1040.08 797.55 1040.40 792.74 1039.61 788.41 C 1037.21 783.12 1035.32 777.62 1034.04 771.95 C 1029.88 770.25 1024.72 769.47 1022.01 765.53 C 1019.46 761.16 1018.38 756.11 1017.63 751.16 C 1022.26 746.79 1025.30 741.01 1027.18 734.98 Z" />
</g>
<g id="#1f6f3fff">
<path fill="#1f6f3f" fill-opacity="0" d=" M 920.11 750.96 C 922.52 756.32 924.08 762.00 924.82 767.85 C 922.29 772.78 919.36 777.63 918.02 783.05 C 917.18 786.47 918.89 789.78 919.89 792.97 C 922.10 798.97 923.26 805.27 924.76 811.47 C 918.54 811.15 913.15 814.08 907.92 817.01 C 908.48 821.47 909.12 825.93 909.68 830.39 C 906.96 831.93 904.24 833.49 901.56 835.10 C 893.64 833.33 887.00 828.61 879.70 825.34 C 869.31 820.92 861.58 812.33 853.47 804.76 C 853.05 798.79 850.83 793.18 847.55 788.23 C 844.51 784.03 844.22 778.63 844.49 773.63 C 847.03 773.20 849.60 772.79 852.17 772.44 C 852.31 770.28 852.41 768.12 852.51 765.97 C 862.92 762.67 873.63 760.50 884.21 757.82 C 885.57 761.20 886.60 764.72 888.30 767.95 C 888.97 769.22 890.01 770.75 891.67 770.50 C 898.25 769.93 903.44 765.46 908.66 761.89 C 913.16 759.04 916.62 754.92 920.11 750.96 Z" />
</g>
<g id="#5f6fbfff">
<path fill="#5f6fbf" fill-opacity="0" d=" M 834.04 751.74 C 838.36 753.69 843.89 754.24 847.08 757.97 C 848.38 763.25 844.82 768.39 844.49 773.63 C 844.22 778.63 844.51 784.03 847.55 788.23 C 850.83 793.18 853.05 798.79 853.47 804.76 C 848.04 808.51 843.86 814.73 836.97 815.72 C 831.30 816.80 826.24 819.67 821.55 822.91 C 822.21 815.41 817.03 807.37 809.47 805.99 C 806.01 806.91 803.06 809.11 799.91 810.73 C 799.01 810.47 798.11 810.23 797.22 810.01 C 800.17 802.35 802.53 794.49 803.51 786.33 C 799.88 786.25 796.15 786.02 792.59 786.83 C 784.28 789.38 775.19 792.04 770.20 799.72 C 767.26 794.46 764.71 788.93 760.98 784.16 C 760.68 783.76 760.09 782.96 759.80 782.56 C 760.40 782.34 761.01 782.13 761.64 781.95 C 767.36 780.12 773.48 779.52 778.93 776.89 C 788.05 772.64 796.20 766.68 804.31 760.79 C 807.23 763.12 809.83 766.23 813.49 767.46 C 819.32 770.03 825.71 767.69 830.95 764.96 C 835.07 761.94 834.35 756.12 834.04 751.74 Z" />
</g>
<g id="#3f4f9fff">
<path fill="#3f4f9f" fill-opacity="0" d=" M 924.82 767.85 C 932.21 768.17 939.59 770.51 946.95 768.60 C 949.65 771.35 952.15 774.52 955.75 776.16 C 963.54 779.20 972.06 776.91 979.68 774.43 C 982.89 773.55 986.80 771.55 989.74 774.20 C 997.03 780.16 1001.98 788.41 1006.44 796.57 C 1008.78 801.14 1014.30 801.19 1018.72 802.34 C 1014.56 805.85 1013.27 811.20 1011.75 816.19 C 1005.72 813.55 999.71 806.27 992.72 809.68 C 982.03 815.30 971.04 820.29 960.32 825.85 C 956.83 819.77 950.06 816.79 943.96 813.97 C 938.02 811.00 931.21 811.09 924.76 811.47 C 923.26 805.27 922.10 798.97 919.89 792.97 C 918.89 789.78 917.18 786.47 918.02 783.05 C 919.36 777.63 922.29 772.78 924.82 767.85 Z" />
</g>
<g id="#1fefbfff">
<path fill="#1fefbf" fill-opacity="0" d=" M 751.30 796.25 C 755.72 793.37 757.48 787.96 760.98 784.16 C 764.71 788.93 767.26 794.46 770.20 799.72 C 775.19 792.04 784.28 789.38 792.59 786.83 C 796.15 786.02 799.88 786.25 803.51 786.33 C 802.53 794.49 800.17 802.35 797.22 810.01 C 798.11 810.23 799.01 810.47 799.91 810.73 C 803.06 809.11 806.01 806.91 809.47 805.99 C 817.03 807.37 822.21 815.41 821.55 822.91 C 815.59 826.99 809.51 830.89 803.30 834.57 C 800.87 836.19 797.89 838.47 798.39 841.78 C 799.49 849.44 801.16 857.02 802.25 864.69 C 791.87 871.10 789.27 884.19 780.97 892.57 C 778.75 887.44 777.48 882.04 776.04 876.69 C 774.94 872.22 769.36 871.52 767.64 867.40 C 764.99 862.28 759.74 859.25 756.82 854.34 C 755.26 851.15 754.70 847.59 753.80 844.20 C 750.97 845.33 748.08 846.35 745.23 847.39 C 744.46 849.93 743.71 852.47 742.96 855.04 C 742.21 855.02 740.70 854.98 739.95 854.96 C 735.42 841.77 731.71 828.06 731.42 814.04 C 731.32 809.51 729.27 804.67 731.23 800.29 C 737.05 796.16 744.86 798.32 751.30 796.25 M 753.17 807.17 C 752.64 808.79 753.19 809.34 754.83 808.83 C 755.34 807.19 754.79 806.64 753.17 807.17 Z" />
</g>
<g id="#7fcf1fff">
<path fill="#7fcf1f" fill-opacity="0" d=" M 1039.61 788.41 C 1040.40 792.74 1040.08 797.55 1042.54 801.42 C 1046.95 808.56 1052.52 814.95 1056.63 822.29 C 1058.55 827.38 1056.28 832.85 1056.01 838.08 C 1055.13 846.87 1053.63 855.74 1054.64 864.60 C 1058.96 875.21 1056.23 886.87 1054.57 897.70 C 1049.40 903.68 1043.15 908.80 1038.44 915.20 C 1036.28 918.98 1035.90 924.45 1030.92 925.78 C 1022.87 928.79 1015.15 934.66 1006.17 933.88 C 1000.29 930.40 997.88 923.37 993.74 918.18 C 990.02 912.15 982.40 909.67 979.22 903.26 C 978.16 898.86 975.27 895.43 971.97 892.55 C 971.97 883.13 972.97 873.67 971.93 864.27 C 971.25 858.88 967.37 854.85 964.07 850.86 C 957.98 844.02 961.41 834.05 960.32 825.85 C 971.04 820.29 982.03 815.30 992.72 809.68 C 999.71 806.27 1005.72 813.55 1011.75 816.19 C 1013.27 811.20 1014.56 805.85 1018.72 802.34 C 1021.60 799.39 1024.18 796.14 1027.27 793.38 C 1030.97 790.87 1035.43 789.88 1039.61 788.41 Z" />
</g>
<g id="#bf8f1fff">
<path fill="#bf8f1f" fill-opacity="0" d=" M 836.97 815.72 C 843.86 814.73 848.04 808.51 853.47 804.76 C 861.58 812.33 869.31 820.92 879.70 825.34 C 887.00 828.61 893.64 833.33 901.56 835.10 C 903.87 835.96 906.47 837.29 907.16 839.87 C 907.90 843.61 906.83 847.40 906.68 851.14 C 905.81 858.64 906.80 866.18 907.89 873.61 C 901.49 874.78 895.08 876.21 889.34 879.44 C 882.00 881.94 878.11 890.34 870.03 891.20 C 861.51 892.93 856.11 883.91 848.17 883.16 C 843.45 887.25 835.02 891.98 829.52 886.53 C 825.61 882.07 820.23 879.53 814.45 878.59 C 813.08 875.23 812.03 871.74 810.25 868.61 C 808.28 866.22 805.04 865.62 802.25 864.69 C 801.16 857.02 799.49 849.44 798.39 841.78 C 797.89 838.47 800.87 836.19 803.30 834.57 C 809.51 830.89 815.59 826.99 821.55 822.91 C 826.24 819.67 831.30 816.80 836.97 815.72 Z" />
</g>
<g id="#9f6fbfff">
<path fill="#9f6fbf" fill-opacity="0" d=" M 753.17 807.17 C 754.79 806.64 755.34 807.19 754.83 808.83 C 753.19 809.34 752.64 808.79 753.17 807.17 Z" />
</g>
<g id="#5f6f3fff">
<path fill="#5f6f3f" fill-opacity="0" d=" M 907.92 817.01 C 913.15 814.08 918.54 811.15 924.76 811.47 C 931.21 811.09 938.02 811.00 943.96 813.97 C 950.06 816.79 956.83 819.77 960.32 825.85 C 961.41 834.05 957.98 844.02 964.07 850.86 C 967.37 854.85 971.25 858.88 971.93 864.27 C 972.97 873.67 971.97 883.13 971.97 892.55 C 963.45 890.88 958.35 898.02 951.80 901.65 C 946.37 903.86 940.58 905.15 934.85 906.27 C 929.94 904.53 928.78 898.94 925.66 895.31 C 920.77 889.56 917.87 882.47 913.61 876.31 C 912.34 874.48 909.87 874.49 907.94 873.93 L 907.89 873.61 C 906.80 866.18 905.81 858.64 906.68 851.14 C 906.83 847.40 907.90 843.61 907.16 839.87 C 906.47 837.29 903.87 835.96 901.56 835.10 C 904.24 833.49 906.96 831.93 909.68 830.39 C 909.12 825.93 908.48 821.47 907.92 817.01 Z" />
</g>
</svg>
