<?xml version="1.0" encoding="UTF-8" ?>
<!DOCTYPE svg PUBLIC "-//W3C//DTD SVG 1.1//EN" "http://www.w3.org/Graphics/SVG/1.1/DTD/svg11.dtd">
<svg width="1920pt" height="1080pt" viewBox="0 0 1920 1080" version="1.1" xmlns="http://www.w3.org/2000/svg">
<g id="#6f6f00fe">
<path fill="#6f6f00" fill-opacity="0" d=" M 1186.87 212.89 C 1191.96 208.87 1200.19 209.62 1204.36 214.63 C 1206.45 216.90 1206.23 220.19 1206.77 223.03 C 1206.80 225.83 1210.08 226.48 1211.94 227.90 C 1211.17 236.18 1219.76 235.89 1225.20 235.29 C 1224.86 240.87 1223.09 246.19 1221.53 251.51 C 1227.10 253.97 1229.50 259.75 1232.02 264.85 C 1233.44 271.18 1230.24 277.25 1228.25 283.09 C 1226.34 289.31 1220.51 293.50 1220.02 300.33 C 1223.74 300.68 1227.24 302.03 1230.73 303.28 C 1233.71 304.60 1236.05 301.56 1238.72 300.73 C 1241.38 299.29 1244.28 300.99 1246.48 302.51 C 1249.68 304.91 1253.32 306.58 1257.00 308.10 C 1247.82 333.75 1239.45 359.72 1229.31 385.00 C 1219.15 386.50 1215.33 396.73 1210.39 404.30 C 1203.34 421.04 1198.75 438.72 1192.74 455.85 C 1191.23 459.67 1187.01 461.50 1185.00 464.96 C 1180.90 474.18 1179.89 485.19 1172.97 492.96 C 1167.93 499.00 1163.88 505.79 1158.87 511.86 C 1153.89 518.00 1152.69 526.35 1147.05 532.02 C 1143.67 535.35 1139.98 538.33 1136.28 541.26 C 1125.51 548.44 1122.77 562.66 1112.73 570.62 C 1106.25 575.16 1101.02 581.26 1094.18 585.30 C 1089.27 588.75 1090.83 596.44 1086.21 600.16 C 1083.09 602.70 1079.15 604.48 1077.27 608.26 C 1073.60 615.96 1067.85 622.61 1065.99 631.12 C 1064.27 629.80 1062.58 628.45 1060.91 627.11 C 1059.42 631.61 1058.18 636.63 1053.28 638.49 C 1052.33 642.58 1051.57 646.85 1049.14 650.38 C 1050.65 635.91 1055.23 621.82 1055.90 607.29 C 1052.66 602.60 1046.81 600.80 1041.56 599.37 C 1041.47 590.33 1050.22 582.45 1046.67 573.30 C 1044.06 570.91 1039.84 572.65 1036.62 572.18 C 1038.52 567.12 1043.79 561.70 1040.94 556.08 C 1036.05 550.27 1028.51 547.39 1023.61 541.52 C 1026.86 538.95 1029.08 534.50 1033.47 533.73 C 1044.38 532.20 1055.21 527.81 1063.21 520.12 C 1069.81 509.27 1070.35 495.69 1077.60 485.11 C 1080.22 483.23 1084.36 483.39 1085.96 480.23 C 1084.88 478.23 1083.44 476.46 1082.09 474.66 C 1084.51 473.79 1086.93 472.90 1089.34 471.98 C 1086.69 467.80 1083.78 463.79 1081.05 459.68 C 1084.68 456.07 1087.98 452.13 1090.58 447.70 C 1091.49 444.70 1090.48 441.43 1091.55 438.47 C 1092.59 436.36 1094.23 434.63 1095.70 432.82 C 1100.09 432.34 1104.85 431.82 1108.83 434.21 C 1114.56 437.58 1122.14 435.69 1126.01 430.36 C 1129.83 431.44 1133.69 433.80 1137.82 432.84 C 1138.66 429.42 1137.19 425.78 1138.38 422.46 C 1141.00 419.14 1145.31 418.06 1148.93 416.20 C 1151.55 415.03 1152.22 411.81 1154.39 410.11 C 1157.01 408.68 1160.13 408.28 1162.60 406.55 C 1165.51 402.87 1167.99 398.86 1170.50 394.89 C 1174.32 394.67 1177.87 393.31 1181.11 391.29 C 1180.00 389.81 1178.92 388.34 1177.83 386.88 C 1178.65 383.97 1180.42 380.58 1178.21 377.83 C 1173.32 370.84 1169.26 362.90 1169.95 354.05 C 1168.00 353.81 1166.04 353.60 1164.10 353.41 C 1164.91 349.26 1165.95 345.15 1167.46 341.19 C 1165.28 341.64 1163.13 342.13 1160.99 342.66 C 1159.57 334.71 1154.45 328.18 1149.11 322.39 C 1151.01 319.29 1152.90 315.69 1156.55 314.39 C 1160.78 312.17 1165.25 317.15 1169.41 314.53 C 1174.94 312.58 1174.16 305.39 1172.92 300.84 C 1169.94 295.16 1162.90 298.67 1158.13 298.44 C 1152.69 298.43 1149.08 293.67 1144.37 291.71 C 1140.40 291.45 1136.51 291.58 1132.60 291.75 C 1130.43 286.21 1133.75 280.84 1133.63 275.31 C 1130.20 271.51 1124.96 268.88 1123.42 263.68 C 1123.09 258.01 1124.83 252.38 1125.75 246.83 C 1127.52 238.24 1137.19 235.22 1144.42 232.41 C 1148.31 230.33 1151.93 233.68 1155.71 234.20 C 1159.05 233.16 1162.12 231.32 1165.62 230.68 C 1166.83 228.69 1167.28 225.56 1169.99 225.11 C 1173.53 223.98 1177.26 223.46 1180.71 221.96 C 1182.82 219.00 1184.08 215.35 1186.87 212.89 M 1087.17 571.79 C 1085.89 572.25 1086.40 574.65 1087.83 574.21 C 1089.08 573.74 1088.58 571.34 1087.17 571.79 M 1085.19 581.50 C 1083.80 581.55 1083.68 583.98 1085.20 583.90 C 1086.61 583.88 1086.69 581.38 1085.19 581.50 M 1084.17 585.79 C 1082.89 586.25 1083.40 588.65 1084.83 588.21 C 1086.08 587.74 1085.58 585.34 1084.17 585.79 M 1083.34 590.87 C 1082.21 591.60 1081.81 593.56 1082.73 594.59 C 1084.51 594.97 1085.07 591.07 1083.34 590.87 M 1082.14 598.11 C 1080.81 598.79 1080.80 599.46 1082.11 600.14 C 1083.42 599.45 1083.43 598.78 1082.14 598.11 Z" />
</g>
<g id="#6f6f7fff">
<path fill="#6f6f7f" fill-opacity="0" d=" M 1111.17 318.83 C 1115.50 320.23 1119.93 321.30 1124.36 322.35 C 1128.27 323.10 1130.41 327.15 1134.26 328.09 C 1140.01 330.41 1144.12 324.15 1149.11 322.39 C 1154.45 328.18 1159.57 334.71 1160.99 342.66 C 1163.13 342.13 1165.28 341.64 1167.46 341.19 C 1165.95 345.15 1164.91 349.26 1164.10 353.41 C 1166.04 353.60 1168.00 353.81 1169.95 354.05 C 1169.26 362.90 1173.32 370.84 1178.21 377.83 C 1180.42 380.58 1178.65 383.97 1177.83 386.88 C 1178.92 388.34 1180.00 389.81 1181.11 391.29 C 1177.87 393.31 1174.32 394.67 1170.50 394.89 C 1167.99 398.86 1165.51 402.87 1162.60 406.55 C 1160.13 408.28 1157.01 408.68 1154.39 410.11 C 1152.22 411.81 1151.55 415.03 1148.93 416.20 C 1145.31 418.06 1141.00 419.14 1138.38 422.46 C 1137.19 425.78 1138.66 429.42 1137.82 432.84 C 1133.69 433.80 1129.83 431.44 1126.01 430.36 C 1122.14 435.69 1114.56 437.58 1108.83 434.21 C 1104.85 431.82 1100.09 432.34 1095.70 432.82 C 1092.83 429.43 1091.18 425.34 1091.85 420.78 C 1087.45 417.73 1084.36 413.08 1079.86 410.24 C 1071.31 407.58 1062.03 405.62 1053.10 407.55 C 1049.23 408.40 1046.55 404.45 1042.87 404.14 C 1040.78 404.28 1038.81 405.08 1036.83 405.67 C 1036.98 398.00 1032.53 392.23 1027.43 387.25 C 1023.74 392.98 1019.25 398.49 1012.85 401.26 C 1012.54 398.53 1012.05 395.72 1011.83 393.02 C 1007.55 397.89 1003.77 403.15 1000.31 408.61 C 995.28 413.99 989.00 418.34 982.22 421.19 C 976.39 423.55 970.21 420.89 964.22 421.53 C 956.13 423.14 948.70 426.85 941.50 430.73 C 940.25 426.19 934.08 421.94 930.14 425.98 C 925.86 431.03 920.30 434.81 916.30 440.11 C 912.44 438.53 908.35 435.38 904.00 437.14 C 896.88 439.76 888.86 440.94 883.29 446.56 C 878.21 444.18 873.42 441.21 868.46 438.62 C 865.11 437.01 861.34 438.21 857.85 438.52 L 856.36 438.71 C 859.30 434.68 864.57 433.38 867.47 429.25 C 868.40 429.77 869.32 430.30 870.28 430.84 C 874.32 422.35 871.31 413.08 871.54 404.18 C 874.51 394.97 880.13 384.97 890.34 382.73 C 898.04 382.04 905.57 380.26 913.27 379.54 C 916.45 379.38 918.77 377.17 920.81 374.97 C 919.18 366.87 917.70 358.52 918.99 350.26 C 919.93 349.86 920.89 349.47 921.86 349.07 C 923.99 351.29 926.39 353.30 929.21 354.60 C 929.69 348.18 933.17 342.52 936.26 337.05 C 939.80 335.78 943.81 336.87 947.38 335.44 C 951.58 333.81 956.07 335.69 960.34 335.29 C 963.18 333.76 964.51 330.54 966.35 328.03 C 972.32 329.75 977.92 334.16 984.44 332.03 C 985.21 334.91 985.55 337.84 986.06 340.78 C 988.09 342.19 991.62 342.71 992.57 345.43 C 992.70 349.27 992.66 353.14 992.58 357.01 C 993.28 357.23 993.99 357.47 994.71 357.70 C 997.18 355.57 999.35 352.76 1002.55 351.69 C 1004.43 351.66 1006.02 353.07 1007.87 353.40 C 1010.51 353.77 1013.14 352.66 1015.79 353.14 C 1018.10 355.48 1018.04 359.22 1020.25 361.69 C 1023.38 366.31 1028.76 368.72 1034.22 369.11 C 1035.55 366.51 1036.95 363.95 1038.38 361.41 C 1043.01 362.75 1045.72 367.12 1050.08 368.94 C 1052.57 370.01 1055.17 371.07 1057.91 371.23 C 1062.00 370.42 1065.90 368.73 1070.00 367.84 C 1073.51 367.66 1077.23 369.30 1080.59 367.60 C 1087.18 363.86 1092.43 358.15 1099.16 354.59 C 1102.22 353.25 1101.64 349.34 1102.39 346.65 C 1103.55 336.87 1108.01 328.03 1111.17 318.83 Z" />
</g>
<g id="#2fafbfff">
<path fill="#2fafbf" fill-opacity="0" d=" M 1027.43 387.25 C 1032.53 392.23 1036.98 398.00 1036.83 405.67 C 1038.81 405.08 1040.78 404.28 1042.87 404.14 C 1046.55 404.45 1049.23 408.40 1053.10 407.55 C 1062.03 405.62 1071.31 407.58 1079.86 410.24 C 1084.36 413.08 1087.45 417.73 1091.85 420.78 C 1091.18 425.34 1092.83 429.43 1095.70 432.82 C 1094.23 434.63 1092.59 436.36 1091.55 438.47 C 1090.48 441.43 1091.49 444.70 1090.58 447.70 C 1087.98 452.13 1084.68 456.07 1081.05 459.68 C 1083.78 463.79 1086.69 467.80 1089.34 471.98 C 1086.93 472.90 1084.51 473.79 1082.09 474.66 C 1083.44 476.46 1084.88 478.23 1085.96 480.23 C 1084.36 483.39 1080.22 483.23 1077.60 485.11 C 1070.35 495.69 1069.81 509.27 1063.21 520.12 C 1055.21 527.81 1044.38 532.20 1033.47 533.73 C 1029.08 534.50 1026.86 538.95 1023.61 541.52 C 1017.80 546.28 1012.87 552.08 1006.34 555.93 C 999.66 549.56 989.94 548.45 981.32 551.00 C 981.77 549.30 982.21 547.61 982.67 545.92 C 981.53 545.64 980.40 545.37 979.29 545.09 C 977.69 547.37 976.10 549.67 974.54 551.98 C 974.15 551.80 973.37 551.43 972.98 551.25 C 972.38 549.77 971.79 548.28 971.16 546.83 C 967.86 540.25 964.00 533.91 961.53 526.95 C 958.96 527.70 956.43 528.55 953.92 529.45 C 953.26 523.49 947.39 520.92 943.18 517.57 C 943.46 516.21 943.76 514.87 944.05 513.53 C 946.89 513.50 949.73 513.46 952.58 513.45 C 953.89 509.39 956.11 505.48 956.30 501.15 C 956.30 499.45 954.81 498.58 953.35 498.26 C 945.78 496.48 938.26 499.63 930.66 499.31 C 927.63 496.68 925.83 492.88 922.81 490.26 C 915.25 486.71 905.85 489.26 898.88 484.24 C 895.22 482.50 893.53 478.89 892.65 475.17 C 894.67 474.82 896.70 474.37 898.77 474.34 C 900.68 476.30 901.48 479.00 902.49 481.49 C 905.61 480.89 911.04 481.11 911.80 476.91 C 911.24 472.60 908.60 468.91 907.00 464.98 C 898.89 463.82 890.62 463.74 882.60 461.98 C 881.13 461.15 879.74 460.23 878.34 459.35 C 879.11 457.07 879.83 454.78 880.65 452.52 C 881.41 450.48 882.27 448.48 883.29 446.56 C 888.86 440.94 896.88 439.76 904.00 437.14 C 908.35 435.38 912.44 438.53 916.30 440.11 C 920.30 434.81 925.86 431.03 930.14 425.98 C 934.08 421.94 940.25 426.19 941.50 430.73 C 948.70 426.85 956.13 423.14 964.22 421.53 C 970.21 420.89 976.39 423.55 982.22 421.19 C 989.00 418.34 995.28 413.99 1000.31 408.61 C 1003.77 403.15 1007.55 397.89 1011.83 393.02 C 1012.05 395.72 1012.54 398.53 1012.85 401.26 C 1019.25 398.49 1023.74 392.98 1027.43 387.25 Z" />
</g>
<g id="#6f2fbfff">
<path fill="#6f2fbf" fill-opacity="0" d=" M 857.85 438.52 C 861.34 438.21 865.11 437.01 868.46 438.62 C 873.42 441.21 878.21 444.18 883.29 446.56 C 882.27 448.48 881.41 450.48 880.65 452.52 C 876.32 453.60 871.09 453.35 867.84 456.82 C 864.46 459.94 862.56 464.27 861.66 468.72 C 866.56 469.77 871.43 470.91 876.35 472.00 C 878.51 468.71 880.69 465.43 882.60 461.98 C 890.62 463.74 898.89 463.82 907.00 464.98 C 908.60 468.91 911.24 472.60 911.80 476.91 C 911.04 481.11 905.61 480.89 902.49 481.49 C 901.48 479.00 900.68 476.30 898.77 474.34 C 896.70 474.37 894.67 474.82 892.65 475.17 C 893.53 478.89 895.22 482.50 898.88 484.24 C 905.85 489.26 915.25 486.71 922.81 490.26 C 925.83 492.88 927.63 496.68 930.66 499.31 C 938.26 499.63 945.78 496.48 953.35 498.26 C 954.81 498.58 956.30 499.45 956.30 501.15 C 956.11 505.48 953.89 509.39 952.58 513.45 C 949.73 513.46 946.89 513.50 944.05 513.53 C 943.76 514.87 943.46 516.21 943.18 517.57 C 947.39 520.92 953.26 523.49 953.92 529.45 C 956.43 528.55 958.96 527.70 961.53 526.95 C 964.00 533.91 967.86 540.25 971.16 546.83 C 969.10 548.03 967.02 549.19 965.01 550.46 C 964.20 548.98 963.35 547.54 962.46 546.13 C 959.29 548.52 955.64 550.55 951.52 549.87 C 946.18 548.76 945.97 555.37 944.31 558.96 C 940.99 559.24 937.69 559.50 934.40 559.73 C 932.70 556.00 931.88 551.13 928.01 549.00 C 921.66 547.42 914.76 548.25 908.88 551.08 C 904.07 548.31 906.17 543.08 907.50 538.98 C 901.12 538.58 894.72 539.42 888.34 539.06 C 880.72 537.81 873.58 534.71 867.05 530.65 C 874.99 520.79 880.56 509.31 886.63 498.27 C 880.34 495.19 874.33 491.53 869.09 486.87 C 864.04 482.79 861.24 476.77 856.79 472.16 C 854.24 469.53 850.47 468.83 847.21 467.45 C 847.51 466.72 847.81 465.99 848.13 465.27 C 849.12 462.96 849.91 460.54 850.92 458.25 C 858.92 456.26 859.63 445.10 857.85 438.52 Z" />
</g>
<g id="#ef2fbfff">
<path fill="#ef2fbf" fill-opacity="0" d=" M 867.84 456.82 C 871.09 453.35 876.32 453.60 880.65 452.52 C 879.83 454.78 879.11 457.07 878.34 459.35 C 879.74 460.23 881.13 461.15 882.60 461.98 C 880.69 465.43 878.51 468.71 876.35 472.00 C 871.43 470.91 866.56 469.77 861.66 468.72 C 862.56 464.27 864.46 459.94 867.84 456.82 Z" />
</g>
<g id="#2f2fbfff">
<path fill="#2f2fbf" fill-opacity="0" d=" M 836.48 481.46 C 838.89 474.78 839.09 467.19 843.67 461.45 C 845.14 462.73 846.62 464.01 848.13 465.27 C 847.81 465.99 847.51 466.72 847.21 467.45 C 850.47 468.83 854.24 469.53 856.79 472.16 C 861.24 476.77 864.04 482.79 869.09 486.87 C 874.33 491.53 880.34 495.19 886.63 498.27 C 880.56 509.31 874.99 520.79 867.05 530.65 C 861.95 531.22 856.85 532.46 851.71 531.67 C 852.27 529.49 852.83 527.31 853.44 525.15 C 846.42 525.36 839.76 530.64 832.82 528.64 C 825.28 523.56 818.67 517.20 811.36 511.78 C 813.29 507.45 815.94 502.06 821.21 501.42 C 822.90 501.76 824.40 502.70 825.93 503.47 C 826.97 501.37 828.04 499.28 829.12 497.20 C 830.38 496.63 831.65 496.06 832.93 495.51 C 833.69 493.33 834.81 491.31 836.13 489.43 C 835.96 486.74 835.52 484.03 836.48 481.46 Z" />
</g>
<g id="#afafbfff">
<path fill="#afafbf" fill-opacity="0" d=" M 811.36 511.78 C 818.67 517.20 825.28 523.56 832.82 528.64 C 839.76 530.64 846.42 525.36 853.44 525.15 C 852.83 527.31 852.27 529.49 851.71 531.67 C 856.85 532.46 861.95 531.22 867.05 530.65 C 873.58 534.71 880.72 537.81 888.34 539.06 C 894.72 539.42 901.12 538.58 907.50 538.98 C 906.17 543.08 904.07 548.31 908.88 551.08 C 907.77 551.75 906.72 552.50 905.67 553.23 C 903.80 551.63 902.04 549.94 900.05 548.57 C 896.49 549.08 893.72 551.85 891.16 554.17 C 889.71 555.80 887.16 557.76 888.55 560.18 C 891.02 565.74 892.83 571.74 892.52 577.91 C 891.99 582.50 889.68 586.64 887.22 590.46 C 885.43 588.30 883.63 586.16 881.88 584.03 C 880.08 586.34 878.28 588.65 876.52 590.99 C 870.80 588.51 864.31 586.75 859.96 582.06 C 855.37 576.69 858.55 565.81 849.73 564.38 C 848.63 562.82 847.77 561.10 846.86 559.45 C 840.59 561.46 835.82 566.17 830.69 570.03 C 827.42 566.68 823.52 564.10 819.39 561.98 C 821.23 559.03 824.30 555.97 823.47 552.20 C 821.41 548.88 817.75 546.80 816.11 543.20 C 813.66 537.28 811.13 531.34 807.52 526.03 C 809.02 521.34 810.41 516.61 811.36 511.78 Z" />
</g>
<g id="#6faf3ffe">
<path fill="#6faf3f" fill-opacity="0" d=" M 701.58 530.76 C 704.29 525.74 706.99 520.05 712.63 517.79 C 714.44 522.21 717.32 526.15 721.77 528.20 C 725.79 529.84 726.69 534.33 728.07 537.98 C 735.16 558.30 744.12 578.00 748.96 599.05 C 745.18 597.60 741.31 595.88 737.19 595.95 C 727.98 595.68 720.28 602.73 710.84 600.99 C 712.08 599.20 713.32 597.40 714.62 595.64 C 711.24 592.98 707.18 591.13 704.33 587.87 C 703.59 584.48 705.04 580.91 703.97 577.58 C 702.51 575.31 700.26 573.53 697.81 572.44 C 694.19 571.52 690.37 572.81 686.74 572.14 C 684.14 571.14 681.82 568.55 682.06 565.62 C 682.23 560.95 682.36 556.25 681.51 551.63 C 685.15 548.60 688.81 545.60 692.59 542.74 C 692.59 538.35 692.60 533.86 694.83 529.94 C 697.07 530.20 699.32 530.49 701.58 530.76 Z" />
</g>
<g id="#ee6f00ff">
<path fill="#ee6f00" fill-opacity="0" d=" M 807.52 526.03 C 811.13 531.34 813.66 537.28 816.11 543.20 C 817.75 546.80 821.41 548.88 823.47 552.20 C 824.30 555.97 821.23 559.03 819.39 561.98 C 823.52 564.10 827.42 566.68 830.69 570.03 C 835.82 566.17 840.59 561.46 846.86 559.45 C 847.77 561.10 848.63 562.82 849.73 564.38 C 847.64 567.22 845.68 570.13 843.62 572.99 C 845.48 574.20 847.33 575.42 849.16 576.70 C 848.05 579.86 847.05 583.19 844.78 585.75 C 842.35 588.82 838.79 590.91 836.78 594.33 C 835.58 598.92 838.06 603.42 838.36 607.99 C 834.41 609.81 829.87 610.44 826.46 613.41 C 826.13 613.20 825.45 612.79 825.11 612.58 C 824.02 611.88 822.96 611.17 821.89 610.48 C 818.55 611.30 815.10 612.00 811.66 611.33 C 804.81 609.57 799.52 615.76 795.18 620.17 C 791.77 616.91 788.82 612.69 784.11 611.23 C 781.10 610.05 777.36 609.74 775.33 606.91 C 772.70 602.77 768.85 599.75 764.50 597.62 C 768.91 593.05 772.60 587.71 774.68 581.67 C 778.45 570.96 782.70 560.44 786.50 549.74 C 788.82 551.09 791.26 552.26 793.52 553.75 C 799.98 551.64 803.90 545.80 809.14 541.87 C 808.01 536.69 805.26 531.27 807.52 526.03 Z" />
</g>
<g id="#6fafbfff">
<path fill="#6fafbf" fill-opacity="0" d=" M 1006.34 555.93 C 1012.87 552.08 1017.80 546.28 1023.61 541.52 C 1028.51 547.39 1036.05 550.27 1040.94 556.08 C 1043.79 561.70 1038.52 567.12 1036.62 572.18 C 1039.84 572.65 1044.06 570.91 1046.67 573.30 C 1050.22 582.45 1041.47 590.33 1041.56 599.37 C 1046.81 600.80 1052.66 602.60 1055.90 607.29 C 1055.23 621.82 1050.65 635.91 1049.14 650.38 C 1047.50 659.36 1037.93 662.73 1030.34 665.34 C 1026.36 666.37 1023.65 669.48 1021.91 673.05 C 1023.30 659.42 1025.12 645.85 1027.05 632.29 C 1024.42 633.91 1020.94 638.33 1017.87 635.18 C 1013.20 631.65 1015.00 625.39 1014.89 620.43 C 1011.36 620.82 1007.60 622.20 1004.14 620.84 C 1000.36 615.75 1001.01 608.24 996.48 603.56 C 991.92 598.43 985.26 595.65 980.68 590.62 C 980.13 588.33 980.90 585.87 980.58 583.52 C 972.27 583.02 964.57 587.22 956.20 586.34 C 958.03 584.49 959.91 582.65 962.13 581.24 C 966.39 578.59 969.45 574.46 973.72 571.80 C 973.50 570.54 973.26 569.27 973.06 568.01 C 966.89 568.19 961.23 570.52 955.89 573.43 C 957.53 565.42 958.82 556.36 965.01 550.46 C 967.02 549.19 969.10 548.03 971.16 546.83 C 971.79 548.28 972.38 549.77 972.98 551.25 C 973.37 551.43 974.15 551.80 974.54 551.98 C 976.10 549.67 977.69 547.37 979.29 545.09 C 980.40 545.37 981.53 545.64 982.67 545.92 C 982.21 547.61 981.77 549.30 981.32 551.00 C 989.94 548.45 999.66 549.56 1006.34 555.93 M 1006.28 602.64 C 1005.91 603.28 1005.17 604.55 1004.80 605.19 C 1006.35 605.47 1007.90 605.75 1009.47 606.05 C 1008.45 604.86 1007.42 603.69 1006.28 602.64 Z" />
</g>
<g id="#2f6f3fff">
<path fill="#2f6f3f" fill-opacity="0" d=" M 951.52 549.87 C 955.64 550.55 959.29 548.52 962.46 546.13 C 963.35 547.54 964.20 548.98 965.01 550.46 C 958.82 556.36 957.53 565.42 955.89 573.43 C 961.23 570.52 966.89 568.19 973.06 568.01 C 973.26 569.27 973.50 570.54 973.72 571.80 C 969.45 574.46 966.39 578.59 962.13 581.24 C 959.91 582.65 958.03 584.49 956.20 586.34 C 953.96 586.56 951.34 586.82 950.16 589.11 C 945.99 594.06 941.44 600.21 942.88 607.11 C 945.31 613.43 950.27 618.35 953.94 623.95 C 950.91 627.48 948.95 632.90 943.91 633.98 C 937.32 635.16 931.01 630.21 924.43 631.82 C 920.13 635.46 919.28 641.44 918.59 646.72 C 917.95 652.25 915.58 657.35 913.06 662.25 C 914.57 663.32 916.09 664.42 917.63 665.50 C 916.75 668.20 914.96 671.32 916.64 674.09 C 919.07 678.36 925.50 681.79 921.65 687.59 C 917.21 694.61 909.47 699.25 906.47 707.27 C 904.45 711.12 903.38 716.98 898.36 717.89 C 892.58 718.50 885.52 721.70 880.28 717.63 C 876.79 714.12 874.62 708.91 869.39 707.57 C 868.38 709.80 867.38 712.04 866.38 714.28 C 858.88 711.65 851.64 708.17 846.06 702.39 C 843.16 699.88 839.67 698.24 836.20 696.72 C 838.06 691.15 841.32 686.22 845.35 681.98 C 841.06 680.42 836.59 679.38 832.10 678.65 C 833.45 674.05 834.63 669.40 835.85 664.76 C 838.52 658.13 841.43 651.42 845.68 645.64 C 851.27 639.64 858.38 634.80 862.34 627.41 C 864.84 622.64 863.96 616.98 866.18 612.12 C 868.41 605.53 874.83 601.95 878.08 596.01 C 879.80 592.40 884.22 592.45 887.22 590.46 C 889.68 586.64 891.99 582.50 892.52 577.91 C 892.83 571.74 891.02 565.74 888.55 560.18 C 887.16 557.76 889.71 555.80 891.16 554.17 C 893.72 551.85 896.49 549.08 900.05 548.57 C 902.04 549.94 903.80 551.63 905.67 553.23 C 906.72 552.50 907.77 551.75 908.88 551.08 C 914.76 548.25 921.66 547.42 928.01 549.00 C 931.88 551.13 932.70 556.00 934.40 559.73 C 937.69 559.50 940.99 559.24 944.31 558.96 C 945.97 555.37 946.18 548.76 951.52 549.87 Z" />
</g>
<g id="#ef6f7fff">
<path fill="#ef6f7f" fill-opacity="0" d=" M 675.76 556.77 C 676.41 553.90 678.98 552.57 681.51 551.63 C 682.36 556.25 682.23 560.95 682.06 565.62 C 681.82 568.55 684.14 571.14 686.74 572.14 C 690.37 572.81 694.19 571.52 697.81 572.44 C 700.26 573.53 702.51 575.31 703.97 577.58 C 705.04 580.91 703.59 584.48 704.33 587.87 C 707.18 591.13 711.24 592.98 714.62 595.64 C 713.32 597.40 712.08 599.20 710.84 600.99 C 704.86 600.82 702.35 607.64 699.58 611.65 C 697.30 615.33 696.99 619.81 697.18 624.03 C 694.01 624.34 690.44 624.46 688.25 627.19 C 687.04 629.87 686.59 632.79 686.26 635.69 C 683.21 633.78 679.94 631.09 676.10 632.21 C 667.35 634.45 658.87 629.68 650.06 629.95 L 649.24 629.88 C 647.79 617.24 646.84 604.46 643.71 592.09 C 641.73 583.32 634.74 576.82 632.46 568.16 C 635.47 567.23 638.43 566.26 641.40 565.17 C 643.79 563.68 644.76 560.38 647.58 559.56 C 651.11 559.28 654.42 562.59 657.95 561.02 C 660.73 559.48 663.10 557.30 665.57 555.32 C 668.96 555.76 672.36 556.30 675.76 556.77 Z" />
</g>
<g id="#af6f7ffe">
<path fill="#af6f7f" fill-opacity="0" d=" M 843.62 572.99 C 845.68 570.13 847.64 567.22 849.73 564.38 C 858.55 565.81 855.37 576.69 859.96 582.06 C 864.31 586.75 870.80 588.51 876.52 590.99 C 878.28 588.65 880.08 586.34 881.88 584.03 C 883.63 586.16 885.43 588.30 887.22 590.46 C 884.22 592.45 879.80 592.40 878.08 596.01 C 874.83 601.95 868.41 605.53 866.18 612.12 C 863.96 616.98 864.84 622.64 862.34 627.41 C 858.38 634.80 851.27 639.64 845.68 645.64 C 841.43 651.42 838.52 658.13 835.85 664.76 C 832.04 665.86 828.25 667.07 824.34 667.73 C 825.74 664.34 827.57 660.98 827.83 657.26 C 826.79 655.83 825.40 654.73 824.00 653.71 C 827.25 654.06 830.98 654.98 833.88 652.93 C 836.42 651.24 836.72 647.98 837.50 645.30 C 833.58 642.54 829.73 639.72 825.86 636.91 C 827.03 635.39 828.05 633.75 829.01 632.09 C 823.66 629.92 818.94 626.63 814.03 623.69 C 818.62 620.96 822.31 617.10 825.11 612.58 C 825.45 612.79 826.13 613.20 826.46 613.41 C 829.87 610.44 834.41 609.81 838.36 607.99 C 838.06 603.42 835.58 598.92 836.78 594.33 C 838.79 590.91 842.35 588.82 844.78 585.75 C 847.05 583.19 848.05 579.86 849.16 576.70 C 847.33 575.42 845.48 574.20 843.62 572.99 Z" />
</g>
<g id="#efaf3fff">
<path fill="#efaf3f" fill-opacity="0" d=" M 956.20 586.34 C 964.57 587.22 972.27 583.02 980.58 583.52 C 980.90 585.87 980.13 588.33 980.68 590.62 C 985.26 595.65 991.92 598.43 996.48 603.56 C 1001.01 608.24 1000.36 615.75 1004.14 620.84 C 1007.60 622.20 1011.36 620.82 1014.89 620.43 C 1015.00 625.39 1013.20 631.65 1017.87 635.18 C 1020.94 638.33 1024.42 633.91 1027.05 632.29 C 1025.12 645.85 1023.30 659.42 1021.91 673.05 C 1022.02 680.98 1013.85 684.31 1009.68 689.91 C 1010.86 677.58 1011.96 665.23 1013.95 653.00 C 1007.69 649.00 1001.77 643.45 994.29 642.15 C 987.69 644.84 983.64 651.02 979.21 656.29 C 976.20 660.64 970.62 661.41 965.80 660.66 C 954.90 658.57 946.48 650.41 936.06 647.16 C 930.64 647.77 933.53 654.84 931.30 658.30 C 928.39 661.96 924.35 664.50 921.01 667.75 C 919.87 667.00 918.73 666.25 917.63 665.50 C 916.09 664.42 914.57 663.32 913.06 662.25 C 915.58 657.35 917.95 652.25 918.59 646.72 C 919.28 641.44 920.13 635.46 924.43 631.82 C 931.01 630.21 937.32 635.16 943.91 633.98 C 948.95 632.90 950.91 627.48 953.94 623.95 C 950.27 618.35 945.31 613.43 942.88 607.11 C 941.44 600.21 945.99 594.06 950.16 589.11 C 951.34 586.82 953.96 586.56 956.20 586.34 Z" />
</g>
<g id="#6f2f3fff">
<path fill="#6f2f3f" fill-opacity="0" d=" M 737.19 595.95 C 741.31 595.88 745.18 597.60 748.96 599.05 C 753.07 600.84 757.34 602.49 761.89 602.60 C 760.13 608.29 754.05 610.09 748.93 611.49 C 743.63 613.10 747.47 619.69 746.97 623.27 C 748.33 631.87 740.73 640.53 745.94 648.79 C 744.00 651.44 742.44 655.83 738.50 655.63 C 732.58 655.42 726.70 653.91 721.28 651.54 C 722.69 646.47 724.88 640.62 721.69 635.81 C 718.72 637.25 715.73 638.64 712.73 640.01 C 713.97 634.91 715.15 629.76 715.39 624.50 C 713.40 624.31 711.42 624.09 709.45 623.89 C 709.62 626.97 709.79 630.09 709.97 633.20 C 706.77 634.33 703.47 635.11 700.13 635.61 C 699.44 631.67 697.87 627.96 697.18 624.03 C 696.99 619.81 697.30 615.33 699.58 611.65 C 702.35 607.64 704.86 600.82 710.84 600.99 C 720.28 602.73 727.98 595.68 737.19 595.95 Z" />
</g>
<g id="#af6f3fff">
<path fill="#af6f3f" fill-opacity="0" d=" M 761.89 602.60 C 762.63 600.88 763.50 599.21 764.50 597.62 C 768.85 599.75 772.70 602.77 775.33 606.91 C 777.36 609.74 781.10 610.05 784.11 611.23 C 788.82 612.69 791.77 616.91 795.18 620.17 C 792.03 624.19 789.05 628.35 785.87 632.35 C 789.30 635.44 793.39 638.02 795.84 642.04 C 794.32 646.25 790.97 649.38 788.43 652.97 C 783.30 651.74 778.22 650.57 773.11 649.36 C 769.26 653.42 765.47 657.54 761.41 661.39 C 757.23 656.17 752.65 650.68 745.94 648.79 C 740.73 640.53 748.33 631.87 746.97 623.27 C 747.47 619.69 743.63 613.10 748.93 611.49 C 754.05 610.09 760.13 608.29 761.89 602.60 Z" />
</g>
<g id="#25250055">
<path fill="#252500" opacity="0.33" d=" M 1082.14 598.11 C 1083.43 598.78 1083.42 599.45 1082.11 600.14 C 1080.80 599.46 1080.81 598.79 1082.14 598.11 Z" />
</g>
<g id="#efafbfff">
<path fill="#efafbf" fill-opacity="0" d=" M 1006.28 602.64 C 1007.42 603.69 1008.45 604.86 1009.47 606.05 C 1007.90 605.75 1006.35 605.47 1004.80 605.19 C 1005.17 604.55 1005.91 603.28 1006.28 602.64 Z" />
</g>
<g id="#af6fbfff">
<path fill="#af6fbf" fill-opacity="0" d=" M 795.18 620.17 C 799.52 615.76 804.81 609.57 811.66 611.33 C 815.10 612.00 818.55 611.30 821.89 610.48 C 822.96 611.17 824.02 611.88 825.11 612.58 C 822.31 617.10 818.62 620.96 814.03 623.69 C 818.94 626.63 823.66 629.92 829.01 632.09 C 828.05 633.75 827.03 635.39 825.86 636.91 C 820.88 639.67 816.00 642.81 813.53 648.15 C 816.41 650.97 819.99 653.02 824.00 653.71 C 825.40 654.73 826.79 655.83 827.83 657.26 C 827.57 660.98 825.74 664.34 824.34 667.73 C 828.25 667.07 832.04 665.86 835.85 664.76 C 834.63 669.40 833.45 674.05 832.10 678.65 C 821.43 685.16 810.04 690.33 798.30 694.50 C 792.82 697.30 798.94 702.68 801.95 704.81 C 800.98 707.44 799.89 710.04 798.70 712.59 C 801.52 712.54 804.45 712.07 807.20 712.93 C 809.78 714.41 811.17 717.25 812.75 719.67 C 807.56 725.32 800.03 726.75 793.11 729.05 C 786.93 732.10 781.38 726.59 777.49 722.42 C 774.10 719.25 776.79 714.49 777.84 710.87 C 781.17 706.23 785.26 702.19 788.53 697.51 C 791.87 692.70 790.56 686.42 790.37 681.02 C 790.24 675.84 786.45 671.37 787.12 666.12 C 787.63 661.74 788.19 657.36 788.43 652.97 C 790.97 649.38 794.32 646.25 795.84 642.04 C 793.39 638.02 789.30 635.44 785.87 632.35 C 789.05 628.35 792.03 624.19 795.18 620.17 Z" />
</g>
<g id="#2f2f3ffe">
<path fill="#2f2f3f" fill-opacity="0" d=" M 688.25 627.19 C 690.44 624.46 694.01 624.34 697.18 624.03 C 697.87 627.96 699.44 631.67 700.13 635.61 C 699.68 640.04 699.01 644.45 698.29 648.86 C 691.59 652.59 692.43 660.95 694.25 667.26 C 695.35 670.56 696.99 673.64 698.42 676.81 C 689.32 675.91 680.08 672.93 670.93 675.22 C 667.75 675.61 663.06 677.65 661.07 674.00 C 657.51 667.80 655.98 660.66 653.57 653.98 C 651.21 646.18 650.70 638.01 650.06 629.95 C 658.87 629.68 667.35 634.45 676.10 632.21 C 679.94 631.09 683.21 633.78 686.26 635.69 C 686.59 632.79 687.04 629.87 688.25 627.19 Z" />
</g>
<g id="#afaf3fff">
<path fill="#afaf3f" fill-opacity="0" d=" M 709.45 623.89 C 711.42 624.09 713.40 624.31 715.39 624.50 C 715.15 629.76 713.97 634.91 712.73 640.01 C 715.73 638.64 718.72 637.25 721.69 635.81 C 724.88 640.62 722.69 646.47 721.28 651.54 C 726.70 653.91 732.58 655.42 738.50 655.63 C 742.44 655.83 744.00 651.44 745.94 648.79 C 752.65 650.68 757.23 656.17 761.41 661.39 C 765.47 657.54 769.26 653.42 773.11 649.36 C 778.22 650.57 783.30 651.74 788.43 652.97 C 788.19 657.36 787.63 661.74 787.12 666.12 C 786.45 671.37 790.24 675.84 790.37 681.02 C 790.56 686.42 791.87 692.70 788.53 697.51 C 785.26 702.19 781.17 706.23 777.84 710.87 C 773.68 707.08 774.38 701.22 773.63 696.22 C 768.42 691.64 761.71 688.94 754.89 687.94 C 752.05 683.50 748.66 678.83 749.18 673.31 C 741.43 673.79 733.68 673.12 725.95 673.60 C 721.06 673.37 716.16 674.82 711.30 673.98 C 709.73 668.01 710.23 661.42 706.97 655.96 C 705.01 652.62 701.57 650.65 698.29 648.86 C 699.01 644.45 699.68 640.04 700.13 635.61 C 703.47 635.11 706.77 634.33 709.97 633.20 C 709.79 630.09 709.62 626.97 709.45 623.89 Z" />
</g>
<g id="#2f6fbfff">
<path fill="#2f6fbf" fill-opacity="0" d=" M 813.53 648.15 C 816.00 642.81 820.88 639.67 825.86 636.91 C 829.73 639.72 833.58 642.54 837.50 645.30 C 836.72 647.98 836.42 651.24 833.88 652.93 C 830.98 654.98 827.25 654.06 824.00 653.71 C 819.99 653.02 816.41 650.97 813.53 648.15 Z" />
</g>
<g id="#af2fbfff">
<path fill="#af2fbf" fill-opacity="0" d=" M 979.21 656.29 C 983.64 651.02 987.69 644.84 994.29 642.15 C 1001.77 643.45 1007.69 649.00 1013.95 653.00 C 1011.96 665.23 1010.86 677.58 1009.68 689.91 C 1009.18 694.19 1008.65 698.48 1007.59 702.67 C 1006.55 707.52 998.09 706.50 999.98 712.96 C 999.76 725.72 990.66 735.85 980.25 742.06 C 979.27 740.70 978.30 739.36 977.34 738.01 C 977.00 741.05 977.36 744.69 975.33 747.31 C 972.66 751.12 971.49 755.67 970.36 760.11 C 962.17 761.49 956.16 767.34 949.24 771.31 C 945.89 773.23 944.43 776.99 941.76 779.58 C 926.97 786.28 915.45 798.83 899.81 803.84 C 894.47 805.86 892.73 812.09 887.93 814.86 C 882.76 817.98 877.79 821.60 874.68 826.89 C 874.12 826.87 872.99 826.84 872.43 826.82 C 871.80 825.57 871.19 824.34 870.58 823.12 C 865.92 825.60 861.20 828.39 858.30 832.96 C 856.81 831.36 855.78 829.24 853.81 828.19 C 849.77 828.00 846.71 831.84 842.56 831.26 C 838.63 834.07 834.64 837.94 829.43 837.13 C 823.62 836.31 818.39 840.09 815.06 844.54 C 810.66 835.62 807.06 826.35 802.48 817.52 C 801.49 815.13 799.46 812.08 801.69 809.74 C 804.74 806.07 808.94 803.14 810.25 798.29 C 812.44 791.25 816.47 784.89 821.98 779.98 C 826.67 774.49 833.83 771.99 838.50 766.50 C 843.60 760.64 847.34 753.81 851.58 747.36 C 853.66 743.47 859.16 742.97 861.38 739.49 C 860.84 735.10 856.91 730.57 852.21 730.53 C 850.47 730.29 848.72 730.17 847.04 729.67 C 846.80 725.81 848.67 722.03 847.87 718.18 C 846.27 715.22 843.21 713.43 841.32 710.69 C 842.15 707.57 844.29 705.02 846.06 702.39 C 851.64 708.17 858.88 711.65 866.38 714.28 C 867.38 712.04 868.38 709.80 869.39 707.57 C 874.62 708.91 876.79 714.12 880.28 717.63 C 885.52 721.70 892.58 718.50 898.36 717.89 C 903.38 716.98 904.45 711.12 906.47 707.27 C 909.47 699.25 917.21 694.61 921.65 687.59 C 925.50 681.79 919.07 678.36 916.64 674.09 C 914.96 671.32 916.75 668.20 917.63 665.50 C 918.73 666.25 919.87 667.00 921.01 667.75 C 924.35 664.50 928.39 661.96 931.30 658.30 C 933.53 654.84 930.64 647.77 936.06 647.16 C 946.48 650.41 954.90 658.57 965.80 660.66 C 970.62 661.41 976.20 660.64 979.21 656.29 Z" />
</g>
<g id="#afef7fff">
<path fill="#afef7f" fill-opacity="0" d=" M 694.25 667.26 C 692.43 660.95 691.59 652.59 698.29 648.86 C 701.57 650.65 705.01 652.62 706.97 655.96 C 710.23 661.42 709.73 668.01 711.30 673.98 C 716.16 674.82 721.06 673.37 725.95 673.60 C 733.68 673.12 741.43 673.79 749.18 673.31 C 748.66 678.83 752.05 683.50 754.89 687.94 C 752.03 687.51 749.06 687.21 746.23 686.96 C 745.25 688.32 744.23 689.67 743.17 690.97 C 746.99 692.81 755.20 694.70 753.75 700.65 C 750.75 706.59 744.10 709.66 740.42 715.19 C 737.48 713.39 734.87 711.16 732.32 708.87 C 730.53 711.90 728.94 715.10 726.67 717.82 C 724.99 719.86 722.08 719.44 719.75 719.75 C 720.40 717.82 720.92 715.85 721.45 713.88 C 717.55 712.46 713.56 711.26 709.61 710.03 C 709.86 707.50 710.09 704.94 710.38 702.45 C 705.85 701.57 702.49 698.49 701.10 694.08 C 696.97 694.31 692.36 694.13 689.02 696.99 C 685.08 700.40 681.35 704.06 677.31 707.35 C 672.84 711.01 669.76 716.22 664.72 719.19 C 661.36 721.03 657.74 722.34 654.27 723.95 C 651.83 725.05 649.41 726.20 646.96 727.28 C 643.90 722.11 640.15 717.26 638.17 711.55 C 644.40 704.14 641.99 693.99 642.44 685.14 C 642.62 680.68 644.97 676.80 646.78 672.86 C 648.55 668.93 646.95 664.38 648.41 660.40 C 649.84 658.04 651.85 656.11 653.57 653.98 C 655.98 660.66 657.51 667.80 661.07 674.00 C 663.06 677.65 667.75 675.61 670.93 675.22 C 680.08 672.93 689.32 675.91 698.42 676.81 C 696.99 673.64 695.35 670.56 694.25 667.26 Z" />
</g>
<g id="#6fef7fff">
<path fill="#6fef7f" fill-opacity="0" d=" M 798.30 694.50 C 810.04 690.33 821.43 685.16 832.10 678.65 C 836.59 679.38 841.06 680.42 845.35 681.98 C 841.32 686.22 838.06 691.15 836.20 696.72 C 839.67 698.24 843.16 699.88 846.06 702.39 C 844.29 705.02 842.15 707.57 841.32 710.69 C 843.21 713.43 846.27 715.22 847.87 718.18 C 848.67 722.03 846.80 725.81 847.04 729.67 C 848.72 730.17 850.47 730.29 852.21 730.53 C 856.91 730.57 860.84 735.10 861.38 739.49 C 859.16 742.97 853.66 743.47 851.58 747.36 C 847.34 753.81 843.60 760.64 838.50 766.50 C 833.83 771.99 826.67 774.49 821.98 779.98 C 816.47 784.89 812.44 791.25 810.25 798.29 C 808.94 803.14 804.74 806.07 801.69 809.74 C 799.46 812.08 801.49 815.13 802.48 817.52 C 807.06 826.35 810.66 835.62 815.06 844.54 C 811.15 845.60 807.09 845.68 803.08 845.84 C 799.93 840.62 796.84 835.34 794.31 829.79 C 792.45 825.08 789.69 820.78 787.83 816.08 C 786.44 812.78 787.91 809.19 787.14 805.80 C 786.62 803.21 785.73 800.71 784.93 798.21 C 785.43 797.98 786.44 797.53 786.94 797.30 C 789.04 799.87 791.49 802.15 794.39 803.82 C 793.82 799.75 792.16 795.13 787.41 794.72 C 779.84 792.22 773.31 796.87 767.44 800.96 C 766.99 798.08 765.37 793.40 769.25 792.29 C 772.51 791.30 774.44 788.47 775.69 785.46 C 772.41 784.19 769.28 782.44 765.83 781.76 C 762.62 781.77 759.81 783.60 756.96 784.84 C 755.56 783.88 754.16 782.94 752.77 782.00 C 753.11 778.71 752.64 775.25 754.08 772.21 C 759.24 770.30 765.10 771.40 770.18 769.12 C 773.24 767.48 774.96 764.25 777.05 761.63 C 781.06 761.74 785.04 761.30 789.04 760.96 C 792.15 763.18 795.77 764.42 799.21 766.01 C 802.12 767.28 802.34 771.12 803.86 773.45 C 807.11 769.58 811.63 766.69 814.02 762.17 C 815.86 754.24 815.49 746.00 817.19 738.03 C 818.29 731.62 815.98 725.13 812.75 719.67 C 811.17 717.25 809.78 714.41 807.20 712.93 C 804.45 712.07 801.52 712.54 798.70 712.59 C 799.89 710.04 800.98 707.44 801.95 704.81 C 798.94 702.68 792.82 697.30 798.30 694.50 Z" />
</g>
<g id="#efef00ff">
<path fill="#efef00" fill-opacity="0" d=" M 746.23 686.96 C 749.06 687.21 752.03 687.51 754.89 687.94 C 761.71 688.94 768.42 691.64 773.63 696.22 C 774.38 701.22 773.68 707.08 777.84 710.87 C 776.79 714.49 774.10 719.25 777.49 722.42 C 781.38 726.59 786.93 732.10 793.11 729.05 C 792.38 731.69 792.02 734.48 790.88 737.01 C 788.45 740.92 783.03 742.71 782.08 747.57 C 781.11 752.48 779.60 757.29 777.05 761.63 C 774.96 764.25 773.24 767.48 770.18 769.12 C 765.10 771.40 759.24 770.30 754.08 772.21 C 752.64 775.25 753.11 778.71 752.77 782.00 C 750.85 785.33 748.81 788.58 746.66 791.76 C 753.39 803.69 760.39 815.48 766.84 827.58 C 761.99 825.09 759.17 820.20 755.41 816.46 C 757.23 821.90 758.80 827.44 760.08 833.04 C 756.60 829.24 752.07 826.86 747.12 825.66 C 740.54 816.29 734.97 806.16 728.12 796.93 C 723.64 788.20 728.85 778.42 726.95 769.25 C 731.64 766.60 730.36 760.68 732.30 756.41 C 731.47 754.73 730.62 753.07 729.78 751.41 C 731.04 748.38 732.23 745.33 733.16 742.18 C 739.15 737.99 746.56 730.72 743.34 722.84 C 742.54 720.22 741.50 717.69 740.42 715.19 C 744.10 709.66 750.75 706.59 753.75 700.65 C 755.20 694.70 746.99 692.81 743.17 690.97 C 744.23 689.67 745.25 688.32 746.23 686.96 Z" />
<path fill="#efef00" fill-opacity="0" d=" M 727.38 802.38 C 728.91 803.18 730.76 803.69 731.78 805.22 C 736.98 813.04 741.95 821.04 747.10 828.92 C 749.54 832.07 750.83 835.80 751.18 839.79 C 748.81 838.65 746.31 837.39 745.06 834.94 C 738.60 825.39 732.50 815.59 726.08 806.02 C 726.50 804.80 726.94 803.59 727.38 802.38 Z" />
</g>
<g id="#2faf3fff">
<path fill="#2faf3f" fill-opacity="0" d=" M 689.02 696.99 C 692.36 694.13 696.97 694.31 701.10 694.08 C 702.49 698.49 705.85 701.57 710.38 702.45 C 710.09 704.94 709.86 707.50 709.61 710.03 C 713.56 711.26 717.55 712.46 721.45 713.88 C 720.92 715.85 720.40 717.82 719.75 719.75 C 716.28 726.35 713.90 733.44 710.69 740.15 C 707.18 746.05 701.71 750.37 696.03 754.05 C 693.58 749.53 690.96 745.10 689.20 740.27 C 687.77 736.58 685.94 732.40 681.88 731.01 C 673.91 728.21 665.40 730.75 657.25 730.73 C 655.62 728.80 655.08 726.27 654.27 723.95 C 657.74 722.34 661.36 721.03 664.72 719.19 C 669.76 716.22 672.84 711.01 677.31 707.35 C 681.35 704.06 685.08 700.40 689.02 696.99 Z" />
</g>
<g id="#afef3ffe">
<path fill="#afef3f" fill-opacity="0" d=" M 732.32 708.87 C 734.87 711.16 737.48 713.39 740.42 715.19 C 741.50 717.69 742.54 720.22 743.34 722.84 C 746.56 730.72 739.15 737.99 733.16 742.18 C 732.23 745.33 731.04 748.38 729.78 751.41 C 730.62 753.07 731.47 754.73 732.30 756.41 C 730.36 760.68 731.64 766.60 726.95 769.25 C 723.72 763.75 719.52 758.70 717.97 752.39 C 716.78 747.67 713.19 744.18 710.69 740.15 C 713.90 733.44 716.28 726.35 719.75 719.75 C 722.08 719.44 724.99 719.86 726.67 717.82 C 728.94 715.10 730.53 711.90 732.32 708.87 Z" />
</g>
<g id="#efef7fff">
<path fill="#efef7f" fill-opacity="0" d=" M 793.11 729.05 C 800.03 726.75 807.56 725.32 812.75 719.67 C 815.98 725.13 818.29 731.62 817.19 738.03 C 815.49 746.00 815.86 754.24 814.02 762.17 C 811.63 766.69 807.11 769.58 803.86 773.45 C 802.34 771.12 802.12 767.28 799.21 766.01 C 795.77 764.42 792.15 763.18 789.04 760.96 C 785.04 761.30 781.06 761.74 777.05 761.63 C 779.60 757.29 781.11 752.48 782.08 747.57 C 783.03 742.71 788.45 740.92 790.88 737.01 C 792.02 734.48 792.38 731.69 793.11 729.05 Z" />
</g>
<g id="#ee2f3ffe">
<path fill="#ee2f3f" fill-opacity="0" d=" M 646.96 727.28 C 649.41 726.20 651.83 725.05 654.27 723.95 C 655.08 726.27 655.62 728.80 657.25 730.73 C 665.40 730.75 673.91 728.21 681.88 731.01 C 685.94 732.40 687.77 736.58 689.20 740.27 C 690.96 745.10 693.58 749.53 696.03 754.05 C 694.24 758.82 692.44 763.78 688.93 767.60 C 684.84 771.07 682.29 776.29 676.92 778.12 C 676.94 780.69 676.94 783.29 676.45 785.84 C 680.94 793.75 686.55 800.90 692.20 808.00 C 691.51 808.68 690.84 809.39 690.17 810.10 C 683.27 802.59 678.68 792.85 670.11 786.99 C 669.72 790.55 671.12 793.86 673.58 796.40 C 677.83 801.38 681.63 806.71 685.49 811.99 C 677.04 808.29 674.25 798.71 668.10 792.53 C 669.21 795.99 670.52 799.51 672.89 802.34 C 676.55 806.59 679.37 811.49 682.83 815.92 C 682.61 816.39 682.17 817.32 681.95 817.79 C 680.93 817.23 679.92 816.67 678.93 816.13 C 682.72 820.15 679.67 825.21 679.90 829.93 C 678.23 828.51 676.54 827.11 674.81 825.78 C 677.83 830.62 682.05 834.53 685.34 839.16 C 680.28 836.11 676.97 831.11 673.16 826.75 C 673.71 829.75 671.54 834.04 674.45 836.49 C 676.52 839.06 678.81 841.48 681.10 843.88 C 680.58 845.06 680.06 846.25 679.56 847.46 C 676.73 845.37 674.18 842.97 671.60 840.62 C 671.46 841.37 671.18 842.86 671.05 843.61 C 670.12 839.73 668.55 835.94 665.38 833.34 C 666.26 835.60 667.18 837.85 668.10 840.11 C 666.75 838.69 665.42 837.27 664.09 835.86 C 661.40 842.16 660.20 848.86 659.88 855.66 C 653.29 853.77 649.82 845.86 642.76 845.43 C 639.41 846.26 637.77 851.27 633.47 849.40 C 631.10 848.34 628.78 847.22 626.49 846.06 C 626.16 853.49 633.54 858.20 637.04 864.06 C 636.59 864.19 635.69 864.45 635.24 864.58 C 632.25 863.07 628.71 862.18 625.55 863.80 C 621.55 870.04 620.80 878.08 615.19 883.38 C 604.67 875.05 594.29 866.54 583.64 858.39 C 578.82 854.77 580.14 847.72 578.90 842.54 C 577.25 836.62 574.98 830.88 573.73 824.86 C 575.57 824.70 577.41 824.58 579.26 824.48 C 579.35 823.08 579.51 821.69 579.45 820.30 C 573.95 814.75 567.90 809.76 562.59 804.02 C 570.64 796.93 580.85 791.57 591.82 791.85 C 594.80 792.05 596.96 789.80 599.12 788.10 C 605.28 789.74 611.68 790.16 618.03 790.33 C 617.33 788.09 616.59 785.86 615.90 783.63 C 618.88 783.61 621.78 783.56 624.79 783.69 C 625.47 783.05 626.16 782.42 626.86 781.80 C 626.17 778.61 625.36 775.34 625.13 772.10 C 626.73 766.92 631.66 763.91 634.37 759.43 C 635.75 755.76 634.46 751.22 637.03 747.99 C 642.17 742.01 642.44 733.67 646.96 727.28 Z" />
</g>
<g id="#30ee7fff">
<path fill="#30ee7f" fill-opacity="0" d=" M 696.03 754.05 C 701.71 750.37 707.18 746.05 710.69 740.15 C 713.19 744.18 716.78 747.67 717.97 752.39 C 719.52 758.70 723.72 763.75 726.95 769.25 C 728.85 778.42 723.64 788.20 728.12 796.93 C 725.95 799.07 723.87 801.33 721.55 803.32 C 719.51 803.02 717.63 802.14 715.74 801.41 C 717.09 803.83 718.79 806.14 719.49 808.86 C 718.79 813.35 713.87 814.89 710.47 816.95 C 708.39 814.80 706.29 812.67 704.06 810.70 C 704.54 812.03 705.06 813.39 705.57 814.73 C 705.02 814.90 703.92 815.23 703.38 815.40 C 703.53 816.95 703.69 818.49 703.86 820.06 C 703.19 820.01 701.86 819.92 701.19 819.87 C 698.19 815.89 695.21 811.95 692.20 808.00 C 686.55 800.90 680.94 793.75 676.45 785.84 C 676.94 783.29 676.94 780.69 676.92 778.12 C 682.29 776.29 684.84 771.07 688.93 767.60 C 692.44 763.78 694.24 758.82 696.03 754.05 M 681.15 780.40 C 680.30 784.38 685.14 779.57 681.15 780.40 M 683.46 783.59 C 682.58 784.82 684.47 786.92 685.78 786.17 C 686.78 784.87 684.83 782.70 683.46 783.59 M 693.15 796.40 C 692.30 800.38 697.14 795.57 693.15 796.40 Z" />
</g>
<g id="#af6f55ff">
<path fill="#af6f55" fill-opacity="0" d=" M 681.15 780.40 C 685.14 779.57 680.30 784.38 681.15 780.40 Z" />
</g>
<g id="#af2f3fff">
<path fill="#af2f3f" fill-opacity="0" d=" M 756.96 784.84 C 759.81 783.60 762.62 781.77 765.83 781.76 C 769.28 782.44 772.41 784.19 775.69 785.46 C 774.44 788.47 772.51 791.30 769.25 792.29 C 765.37 793.40 766.99 798.08 767.44 800.96 C 773.31 796.87 779.84 792.22 787.41 794.72 C 792.16 795.13 793.82 799.75 794.39 803.82 C 791.49 802.15 789.04 799.87 786.94 797.30 C 786.44 797.53 785.43 797.98 784.93 798.21 C 785.73 800.71 786.62 803.21 787.14 805.80 C 787.91 809.19 786.44 812.78 787.83 816.08 C 789.69 820.78 792.45 825.08 794.31 829.79 C 796.34 834.69 793.06 839.46 788.28 839.88 C 784.24 835.91 782.46 830.32 779.83 825.45 C 775.64 826.54 771.37 827.23 767.16 828.19 L 766.84 827.58 C 760.39 815.48 753.39 803.69 746.66 791.76 C 748.81 788.58 750.85 785.33 752.77 782.00 C 754.16 782.94 755.56 783.88 756.96 784.84 Z" />
</g>
<g id="#af6f54ff">
<path fill="#af6f54" fill-opacity="0" d=" M 683.46 783.59 C 684.83 782.70 686.78 784.87 685.78 786.17 C 684.47 786.92 682.58 784.82 683.46 783.59 Z" />
<path fill="#af6f54" fill-opacity="0" d=" M 693.15 796.40 C 697.14 795.57 692.30 800.38 693.15 796.40 Z" />
</g>
<g id="#2fef7fff">
<path fill="#2fef7f" fill-opacity="0" d=" M 670.11 786.99 C 678.68 792.85 683.27 802.59 690.17 810.10 C 693.38 814.16 696.68 818.25 699.32 822.73 C 697.96 823.15 696.63 823.59 695.29 824.02 C 692.16 819.88 688.79 815.98 685.49 811.99 C 681.63 806.71 677.83 801.38 673.58 796.40 C 671.12 793.86 669.72 790.55 670.11 786.99 Z" />
</g>
<g id="#3dd575f4">
<path fill="#3dd575" fill-opacity="0" d=" M 668.10 792.53 C 674.25 798.71 677.04 808.29 685.49 811.99 C 685.66 813.66 685.84 815.35 685.93 817.04 C 687.18 817.61 688.42 818.19 689.67 818.79 C 689.24 819.54 688.82 820.29 688.41 821.06 C 690.49 822.21 692.50 823.48 694.53 824.72 C 693.76 825.55 692.99 826.39 692.23 827.25 C 689.10 823.45 685.95 819.70 682.83 815.92 C 679.37 811.49 676.55 806.59 672.89 802.34 C 670.52 799.51 669.21 795.99 668.10 792.53 Z" />
</g>
</svg>
