<?xml version="1.0" encoding="UTF-8" ?>
<!DOCTYPE svg PUBLIC "-//W3C//DTD SVG 1.1//EN" "http://www.w3.org/Graphics/SVG/1.1/DTD/svg11.dtd">
<svg width="1920pt" height="1080pt" viewBox="0 0 1920 1080" version="1.1" xmlns="http://www.w3.org/2000/svg">
<g id="#ef7f9ffe">
<path fill="#ef7f9f" fill-opacity="0" d=" M 841.27 190.28 C 846.04 185.59 851.88 181.04 858.73 180.44 C 866.84 183.00 868.68 193.81 876.95 196.77 C 885.85 200.67 895.28 203.45 904.75 205.66 C 916.35 206.94 926.83 212.07 937.31 216.80 C 948.61 222.26 955.98 233.09 966.90 239.09 C 976.78 243.02 987.26 245.90 998.00 245.45 C 1006.04 246.36 1014.24 243.07 1022.09 245.72 C 1042.65 252.14 1063.77 257.00 1083.58 265.65 C 1093.11 269.99 1100.21 278.53 1103.71 288.29 C 1106.57 296.34 1109.97 304.25 1114.78 311.35 C 1100.61 309.81 1086.29 308.70 1072.06 310.02 C 1073.61 320.22 1077.66 331.34 1071.91 340.96 C 1070.62 344.82 1066.12 344.55 1062.84 344.79 C 1053.96 344.94 1045.03 346.13 1036.22 344.64 C 1033.58 344.02 1030.65 342.86 1029.42 340.26 C 1028.13 337.56 1027.60 334.53 1026.01 331.98 C 1017.69 330.00 1008.78 329.37 1000.45 331.66 C 991.69 340.13 991.36 353.67 988.72 364.93 C 981.02 366.06 973.21 367.16 965.42 366.35 C 962.25 365.92 958.11 365.99 955.97 363.09 C 954.45 360.47 954.31 357.33 954.20 354.38 C 954.20 345.45 955.23 336.49 954.26 327.59 C 953.28 321.86 944.22 321.39 945.43 314.73 C 948.59 311.72 952.69 309.86 955.75 306.73 C 958.54 299.46 956.57 291.53 955.64 284.11 C 932.99 287.09 910.47 295.57 887.36 291.64 C 882.51 285.54 891.95 279.69 890.33 273.28 C 888.05 268.30 882.81 264.95 881.87 259.29 C 880.90 255.24 880.65 249.60 876.04 247.97 C 869.77 246.71 863.46 248.11 857.18 248.50 C 857.88 253.91 860.34 259.53 859.00 265.03 C 856.61 269.83 850.78 271.41 846.03 272.84 C 840.54 275.04 834.53 272.27 831.43 267.65 C 825.23 257.92 818.33 248.65 812.26 238.86 C 808.92 231.91 806.69 224.49 803.37 217.53 L 803.04 216.78 C 811.31 214.50 820.29 215.29 828.33 212.35 C 833.28 205.40 834.88 196.24 841.27 190.28 Z" />
</g>
<g id="#2f7f9ffe">
<path fill="#2f7f9f" fill-opacity="0" d=" M 702.24 202.16 C 711.10 200.10 720.31 201.59 728.86 204.24 C 732.93 205.53 733.41 210.31 734.22 213.86 C 735.71 222.83 736.43 231.93 738.76 240.75 C 751.82 239.29 765.74 240.64 778.00 235.01 C 786.71 229.57 797.03 226.07 803.37 217.53 C 806.69 224.49 808.92 231.91 812.26 238.86 C 818.33 248.65 825.23 257.92 831.43 267.65 C 834.53 272.27 840.54 275.04 846.03 272.84 C 850.78 271.41 856.61 269.83 859.00 265.03 C 860.34 259.53 857.88 253.91 857.18 248.50 C 863.46 248.11 869.77 246.71 876.04 247.97 C 880.65 249.60 880.90 255.24 881.87 259.29 C 882.81 264.95 888.05 268.30 890.33 273.28 C 891.95 279.69 882.51 285.54 887.36 291.64 C 910.47 295.57 932.99 287.09 955.64 284.11 C 956.57 291.53 958.54 299.46 955.75 306.73 C 952.69 309.86 948.59 311.72 945.43 314.73 C 944.22 321.39 953.28 321.86 954.26 327.59 C 955.23 336.49 954.20 345.45 954.20 354.38 C 947.94 359.60 939.50 360.16 931.85 358.27 C 929.26 362.78 928.30 368.69 923.97 371.90 C 911.94 373.91 899.65 371.75 887.70 370.04 C 883.12 364.67 879.08 358.84 874.40 353.58 C 872.29 351.09 868.82 350.79 865.80 350.36 C 861.43 349.99 858.35 353.78 855.47 356.47 C 851.09 360.95 846.09 366.37 839.34 366.39 C 829.53 361.83 824.33 349.56 812.87 348.08 C 804.41 347.67 795.98 349.35 787.59 350.26 C 782.57 350.51 781.58 356.77 777.37 358.41 C 772.86 359.19 768.31 358.48 763.96 357.30 C 764.24 354.98 764.55 352.66 764.86 350.34 C 762.15 350.39 759.43 350.40 756.73 350.40 C 741.90 351.70 727.71 345.28 716.32 336.30 C 717.96 332.11 719.48 327.80 719.87 323.28 C 717.58 320.66 714.06 319.88 710.84 319.11 C 702.24 317.18 693.09 316.85 685.12 312.77 C 681.75 311.19 678.53 309.37 675.29 307.56 C 676.03 303.90 676.36 299.87 678.65 296.74 C 682.15 291.70 687.86 288.97 692.80 285.57 C 691.42 283.61 690.45 281.08 688.26 279.89 C 680.15 277.50 671.55 277.72 663.47 275.22 C 659.32 273.39 655.81 270.46 652.11 267.89 C 648.40 265.69 644.28 264.33 640.30 262.72 C 641.93 258.56 643.75 254.04 647.65 251.47 C 652.07 250.77 655.77 253.32 659.56 255.02 C 662.62 256.50 666.09 256.50 669.40 256.95 C 669.20 254.28 668.80 248.95 668.61 246.28 C 676.23 252.49 687.13 251.63 695.83 248.21 C 694.18 242.71 692.58 236.96 693.41 231.18 C 694.13 226.52 702.17 225.87 701.01 220.61 C 699.81 214.60 698.29 207.53 702.24 202.16 Z" />
</g>
<g id="#2f7f1fff">
<path fill="#2f7f1f" fill-opacity="0" d=" M 549.00 230.03 C 555.50 228.93 562.11 229.47 568.63 230.11 C 589.51 231.13 610.39 232.46 631.30 232.47 C 642.50 233.34 654.93 233.46 664.09 240.88 C 665.96 242.27 667.87 244.00 668.61 246.28 C 668.80 248.95 669.20 254.28 669.40 256.95 C 666.09 256.50 662.62 256.50 659.56 255.02 C 655.77 253.32 652.07 250.77 647.65 251.47 C 643.75 254.04 641.93 258.56 640.30 262.72 C 644.28 264.33 648.40 265.69 652.11 267.89 C 650.42 275.00 650.57 282.66 647.10 289.21 C 642.75 295.07 634.35 293.26 628.58 296.68 C 626.11 298.42 624.57 301.21 622.04 302.87 C 617.02 304.19 611.72 302.75 606.73 304.03 C 602.36 306.47 601.06 311.84 599.26 316.16 C 592.96 321.94 583.95 318.66 576.38 319.77 C 574.38 324.41 573.38 329.93 569.46 333.41 C 564.06 335.27 558.03 333.82 552.66 335.94 C 549.74 336.93 547.12 338.90 544.01 339.28 C 540.97 339.11 538.14 337.80 535.21 337.11 C 525.93 335.08 519.35 344.52 510.59 344.53 C 502.24 343.63 504.33 333.13 502.95 327.32 C 500.89 319.96 495.90 313.81 493.44 306.57 C 495.85 303.75 498.18 300.86 500.42 297.90 C 498.47 296.56 496.56 295.19 494.54 293.98 C 494.95 291.77 494.96 289.48 494.38 287.30 C 490.79 276.38 485.61 265.97 482.42 254.93 C 483.03 248.73 487.17 243.55 489.30 237.80 C 497.55 240.47 506.21 241.29 514.69 242.97 C 519.97 244.00 525.21 246.35 530.68 245.64 C 533.74 245.22 535.19 242.23 536.92 240.05 C 540.20 236.03 543.52 231.11 549.00 230.03 Z" />
</g>
<g id="#8f3f5fff">
<path fill="#8f3f5f" fill-opacity="0" d=" M 652.11 267.89 C 655.81 270.46 659.32 273.39 663.47 275.22 C 671.55 277.72 680.15 277.50 688.26 279.89 C 690.45 281.08 691.42 283.61 692.80 285.57 C 687.86 288.97 682.15 291.70 678.65 296.74 C 676.36 299.87 676.03 303.90 675.29 307.56 C 678.53 309.37 681.75 311.19 685.12 312.77 C 693.09 316.85 702.24 317.18 710.84 319.11 C 714.06 319.88 717.58 320.66 719.87 323.28 C 719.48 327.80 717.96 332.11 716.32 336.30 C 727.71 345.28 741.90 351.70 756.73 350.40 C 755.31 357.26 757.46 364.23 755.90 371.05 C 751.40 372.28 746.60 371.91 742.16 373.35 C 738.79 375.56 739.44 380.68 737.45 383.77 C 734.09 385.76 729.90 385.73 726.54 387.73 C 723.29 390.14 722.39 394.60 719.13 396.99 C 715.42 398.66 711.14 398.14 707.36 399.59 C 704.87 400.56 703.41 402.93 701.83 404.92 C 700.44 406.45 698.82 408.04 696.67 408.31 C 691.20 409.16 685.65 408.49 680.15 408.65 C 672.22 408.59 664.44 410.16 656.60 410.97 C 648.91 410.21 641.90 406.03 634.11 405.64 C 629.10 405.57 625.13 402.28 621.53 399.18 C 624.29 392.88 628.25 386.80 628.60 379.75 C 628.90 374.15 629.93 368.27 627.98 362.86 C 624.77 358.01 618.94 355.83 615.01 351.67 C 615.95 348.29 618.48 345.68 619.80 342.48 C 620.00 340.06 618.83 337.75 618.27 335.45 C 611.76 336.00 605.39 337.56 598.91 338.34 C 596.56 338.60 593.73 336.45 594.85 333.94 C 596.87 328.15 598.58 322.27 599.26 316.16 C 601.06 311.84 602.36 306.47 606.73 304.03 C 611.72 302.75 617.02 304.19 622.04 302.87 C 624.57 301.21 626.11 298.42 628.58 296.68 C 634.35 293.26 642.75 295.07 647.10 289.21 C 650.57 282.66 650.42 275.00 652.11 267.89 Z" />
</g>
<g id="#4fbf5fff">
<path fill="#4fbf5f" fill-opacity="0" d=" M 484.17 294.19 C 486.95 291.17 491.26 292.50 494.54 293.98 C 496.56 295.19 498.47 296.56 500.42 297.90 C 498.18 300.86 495.85 303.75 493.44 306.57 C 495.90 313.81 500.89 319.96 502.95 327.32 C 504.33 333.13 502.24 343.63 510.59 344.53 C 519.35 344.52 525.93 335.08 535.21 337.11 C 531.70 342.48 527.35 347.66 526.37 354.22 C 524.66 365.85 521.60 377.22 519.56 388.80 C 518.75 393.60 517.99 398.63 519.41 403.40 C 520.70 407.86 526.44 409.30 527.59 413.78 C 527.55 420.94 525.06 427.84 522.41 434.42 C 519.85 441.47 511.27 444.11 509.48 451.62 C 505.37 462.82 511.73 473.55 515.70 483.76 C 523.37 501.09 530.29 518.75 537.78 536.16 C 528.43 538.38 518.86 542.16 509.16 539.75 C 501.66 537.79 493.73 537.09 486.57 534.04 C 483.32 530.37 482.01 525.40 479.82 521.09 C 467.65 495.83 456.24 470.23 443.94 445.03 C 442.14 441.34 439.93 437.76 439.12 433.68 C 437.99 428.78 440.32 423.36 437.23 418.88 C 430.22 405.50 424.55 391.47 418.07 377.83 C 413.48 367.82 408.40 358.02 404.11 347.87 C 401.23 341.70 404.60 334.99 404.37 328.56 C 403.11 320.72 408.96 314.22 415.72 311.42 C 424.77 308.40 434.26 306.69 443.79 306.44 C 446.39 306.48 449.19 306.18 451.56 307.47 C 455.10 309.67 457.47 313.40 461.19 315.34 C 467.50 316.94 473.12 312.38 478.15 309.19 C 483.73 305.99 479.15 297.93 484.17 294.19 Z" />
</g>
<g id="#0f3f5fff">
<path fill="#0f3f5f" fill-opacity="0" d=" M 1072.06 310.02 C 1086.29 308.70 1100.61 309.81 1114.78 311.35 C 1117.27 313.12 1118.99 315.73 1120.92 318.07 C 1130.23 330.27 1142.13 340.09 1153.20 350.63 C 1146.90 352.24 1140.02 356.24 1133.39 353.64 C 1123.85 350.17 1114.40 344.30 1103.87 345.68 C 1098.51 347.28 1094.29 353.19 1095.98 358.84 C 1098.08 368.85 1102.70 378.42 1102.32 388.89 C 1102.17 393.15 1097.71 395.26 1095.19 398.11 C 1093.06 399.62 1091.04 401.91 1088.31 402.14 C 1082.32 401.38 1077.06 398.04 1071.28 396.46 C 1067.64 404.15 1064.53 412.09 1062.20 420.29 C 1064.58 422.56 1066.95 424.87 1069.33 427.16 C 1068.14 429.25 1066.96 431.34 1065.81 433.45 C 1061.43 431.84 1056.86 430.12 1052.15 430.17 C 1039.22 435.88 1035.63 451.96 1023.22 458.32 C 1019.01 454.32 1014.86 450.27 1011.41 445.60 C 1009.17 442.88 1007.01 439.55 1003.38 438.66 C 994.74 436.72 985.84 436.60 977.04 436.78 C 975.73 441.28 975.10 446.01 973.08 450.28 C 972.28 452.45 969.73 452.57 967.79 452.83 C 960.94 453.28 954.06 453.76 947.19 453.50 C 943.97 448.30 939.98 443.36 938.91 437.16 C 935.91 426.27 939.76 413.75 933.18 403.90 C 925.82 405.00 918.41 405.58 910.99 406.06 C 910.20 413.57 911.66 421.53 908.66 428.68 C 906.97 432.93 901.81 433.52 897.83 433.90 C 893.96 434.05 888.69 434.19 886.69 430.18 C 885.60 420.78 888.47 410.89 884.08 401.93 C 882.80 398.08 878.73 396.69 875.47 395.02 C 877.23 385.70 881.09 376.94 887.70 370.04 C 899.65 371.75 911.94 373.91 923.97 371.90 C 928.30 368.69 929.26 362.78 931.85 358.27 C 939.50 360.16 947.94 359.60 954.20 354.38 C 954.31 357.33 954.45 360.47 955.97 363.09 C 958.11 365.99 962.25 365.92 965.42 366.35 C 973.21 367.16 981.02 366.06 988.72 364.93 C 991.36 353.67 991.69 340.13 1000.45 331.66 C 1008.78 329.37 1017.69 330.00 1026.01 331.98 C 1027.60 334.53 1028.13 337.56 1029.42 340.26 C 1030.65 342.86 1033.58 344.02 1036.22 344.64 C 1045.03 346.13 1053.96 344.94 1062.84 344.79 C 1066.12 344.55 1070.62 344.82 1071.91 340.96 C 1077.66 331.34 1073.61 320.22 1072.06 310.02 Z" />
</g>
<g id="#af009ffe">
<path fill="#af009f" fill-opacity="0" d=" M 576.38 319.77 C 583.95 318.66 592.96 321.94 599.26 316.16 C 598.58 322.27 596.87 328.15 594.85 333.94 C 593.73 336.45 596.56 338.60 598.91 338.34 C 605.39 337.56 611.76 336.00 618.27 335.45 C 618.83 337.75 620.00 340.06 619.80 342.48 C 618.48 345.68 615.95 348.29 615.01 351.67 C 618.94 355.83 624.77 358.01 627.98 362.86 C 629.93 368.27 628.90 374.15 628.60 379.75 C 628.25 386.80 624.29 392.88 621.53 399.18 C 625.13 402.28 629.10 405.57 634.11 405.64 C 641.90 406.03 648.91 410.21 656.60 410.97 C 664.44 410.16 672.22 408.59 680.15 408.65 C 679.11 412.18 678.21 415.74 677.35 419.32 C 675.63 419.29 673.90 419.26 672.20 419.24 C 670.40 425.57 668.88 431.96 667.61 438.42 C 651.98 441.51 636.21 434.09 620.63 437.63 C 612.63 441.40 612.16 453.64 603.17 456.34 C 595.22 459.18 591.52 446.86 583.67 448.95 C 581.61 449.72 577.48 451.24 575.42 452.01 C 578.89 455.83 583.14 458.77 587.28 461.82 C 584.46 466.93 582.36 473.12 577.22 476.31 C 572.72 477.47 568.35 476.07 564.13 474.75 C 556.96 472.66 550.11 476.85 543.17 478.11 C 536.12 479.27 529.64 482.36 523.68 486.22 C 533.68 512.52 545.19 538.22 555.58 564.37 C 554.45 565.43 553.38 566.56 552.39 567.75 C 545.39 558.33 543.01 546.53 537.78 536.16 C 530.29 518.75 523.37 501.09 515.70 483.76 C 511.73 473.55 505.37 462.82 509.48 451.62 C 511.27 444.11 519.85 441.47 522.41 434.42 C 525.06 427.84 527.55 420.94 527.59 413.78 C 526.44 409.30 520.70 407.86 519.41 403.40 C 517.99 398.63 518.75 393.60 519.56 388.80 C 521.60 377.22 524.66 365.85 526.37 354.22 C 527.35 347.66 531.70 342.48 535.21 337.11 C 538.14 337.80 540.97 339.11 544.01 339.28 C 547.12 338.90 549.74 336.93 552.66 335.94 C 558.03 333.82 564.06 335.27 569.46 333.41 C 573.38 329.93 574.38 324.41 576.38 319.77 Z" />
</g>
<g id="#6f7f9fff">
<path fill="#6f7f9f" fill-opacity="0" d=" M 1095.98 358.84 C 1094.29 353.19 1098.51 347.28 1103.87 345.68 C 1114.40 344.30 1123.85 350.17 1133.39 353.64 C 1140.02 356.24 1146.90 352.24 1153.20 350.63 L 1153.68 350.47 C 1160.87 357.71 1169.92 362.72 1179.15 366.88 C 1183.88 369.04 1188.53 371.53 1193.70 372.49 C 1206.68 375.06 1219.48 379.20 1232.79 379.81 C 1247.18 381.21 1261.36 384.28 1275.49 387.32 C 1277.68 393.60 1281.99 398.73 1287.79 401.97 C 1284.18 410.36 1281.76 419.26 1277.26 427.25 C 1268.19 443.72 1260.91 461.78 1246.68 474.69 C 1243.75 476.54 1240.99 480.07 1237.21 479.73 C 1229.98 476.62 1225.27 469.60 1218.60 465.63 C 1214.41 463.77 1210.95 467.84 1208.88 470.95 C 1206.89 474.35 1202.55 478.65 1205.13 482.88 C 1208.96 488.97 1216.37 493.17 1216.45 501.22 C 1214.95 509.55 1211.34 517.36 1208.36 525.24 C 1206.72 529.66 1204.24 533.82 1200.54 536.83 C 1191.75 529.86 1185.15 520.40 1175.58 514.36 C 1166.44 508.61 1155.78 506.05 1146.22 501.14 C 1147.49 496.37 1149.12 491.36 1147.73 486.41 C 1145.45 482.76 1141.07 481.37 1137.50 479.36 C 1129.48 475.46 1122.25 470.11 1114.19 466.34 C 1108.73 463.61 1103.78 468.20 1099.46 470.96 C 1094.35 475.12 1087.35 472.94 1082.62 469.36 C 1077.84 465.61 1073.97 460.86 1070.16 456.18 C 1079.05 452.55 1088.52 450.37 1097.06 445.90 C 1101.06 443.56 1105.40 440.55 1106.61 435.80 C 1108.10 429.75 1107.52 423.44 1107.81 417.28 C 1102.45 415.36 1097.17 413.37 1091.81 411.51 C 1092.83 407.02 1094.03 402.56 1095.19 398.11 C 1097.71 395.26 1102.17 393.15 1102.32 388.89 C 1102.70 378.42 1098.08 368.85 1095.98 358.84 Z" />
</g>
<g id="#4f3f5fff">
<path fill="#4f3f5f" fill-opacity="0" d=" M 787.59 350.26 C 795.98 349.35 804.41 347.67 812.87 348.08 C 824.33 349.56 829.53 361.83 839.34 366.39 C 846.09 366.37 851.09 360.95 855.47 356.47 C 858.35 353.78 861.43 349.99 865.80 350.36 C 868.82 350.79 872.29 351.09 874.40 353.58 C 879.08 358.84 883.12 364.67 887.70 370.04 C 881.09 376.94 877.23 385.70 875.47 395.02 C 878.73 396.69 882.80 398.08 884.08 401.93 C 888.47 410.89 885.60 420.78 886.69 430.18 C 888.69 434.19 893.96 434.05 897.83 433.90 C 901.81 433.52 906.97 432.93 908.66 428.68 C 911.66 421.53 910.20 413.57 910.99 406.06 C 918.41 405.58 925.82 405.00 933.18 403.90 C 939.76 413.75 935.91 426.27 938.91 437.16 C 939.98 443.36 943.97 448.30 947.19 453.50 C 944.86 453.25 942.54 452.89 940.28 452.60 C 939.40 456.16 938.90 460.26 935.76 462.64 C 933.08 465.35 928.69 467.71 929.16 472.14 C 930.48 487.36 938.87 501.22 938.39 516.72 C 932.00 521.69 923.53 519.20 916.34 521.66 C 911.69 524.63 909.84 531.52 903.85 532.36 C 890.11 534.74 876.04 534.78 862.41 537.94 C 864.55 529.47 866.36 518.58 858.83 512.17 C 846.34 500.99 827.86 505.35 812.67 503.22 C 806.41 500.67 803.95 492.82 803.88 486.62 C 807.26 481.83 813.92 481.34 819.19 479.80 C 819.48 476.00 820.03 472.22 820.72 468.47 C 812.20 467.37 803.69 466.13 795.11 465.68 C 789.90 465.50 784.96 463.79 780.20 461.82 C 780.22 450.79 782.49 439.25 778.23 428.68 C 776.57 425.50 772.88 424.35 769.93 422.71 C 770.51 416.23 770.98 409.60 769.80 403.18 C 768.69 397.49 764.71 393.08 761.21 388.70 C 757.03 383.86 756.60 377.10 755.90 371.05 C 757.46 364.23 755.31 357.26 756.73 350.40 C 759.43 350.40 762.15 350.39 764.86 350.34 C 764.55 352.66 764.24 354.98 763.96 357.30 C 768.31 358.48 772.86 359.19 777.37 358.41 C 781.58 356.77 782.57 350.51 787.59 350.26 Z" />
</g>
<g id="#af7f9fff">
<path fill="#af7f9f" fill-opacity="0" d=" M 742.16 373.35 C 746.60 371.91 751.40 372.28 755.90 371.05 C 756.60 377.10 757.03 383.86 761.21 388.70 C 764.71 393.08 768.69 397.49 769.80 403.18 C 770.98 409.60 770.51 416.23 769.93 422.71 C 772.88 424.35 776.57 425.50 778.23 428.68 C 782.49 439.25 780.22 450.79 780.20 461.82 C 784.96 463.79 789.90 465.50 795.11 465.68 C 803.69 466.13 812.20 467.37 820.72 468.47 C 820.03 472.22 819.48 476.00 819.19 479.80 C 813.92 481.34 807.26 481.83 803.88 486.62 C 803.95 492.82 806.41 500.67 812.67 503.22 C 827.86 505.35 846.34 500.99 858.83 512.17 C 866.36 518.58 864.55 529.47 862.41 537.94 C 849.77 541.28 836.76 542.53 823.71 542.55 C 813.11 542.07 802.72 545.31 792.13 544.55 C 786.82 544.51 781.89 542.59 777.00 540.81 C 776.19 533.10 776.13 525.33 776.93 517.61 C 769.02 515.84 760.97 514.87 752.96 513.70 C 742.33 512.07 730.89 512.23 721.33 506.73 C 716.82 504.26 717.05 498.64 715.12 494.53 C 710.15 489.21 701.62 489.44 696.41 484.63 C 695.61 479.93 697.28 474.80 700.37 471.24 C 709.87 467.68 722.66 472.77 730.32 464.39 C 738.72 455.99 741.93 444.05 743.97 432.67 C 744.24 429.85 745.21 425.62 741.93 424.21 C 738.23 422.30 734.10 421.48 730.15 420.26 C 728.05 423.15 725.94 426.03 723.87 428.94 C 717.96 427.55 711.85 426.90 706.16 424.76 C 703.70 423.65 700.66 421.95 700.62 418.88 C 700.20 414.20 700.99 409.51 701.83 404.92 C 703.41 402.93 704.87 400.56 707.36 399.59 C 711.14 398.14 715.42 398.66 719.13 396.99 C 722.39 394.60 723.29 390.14 726.54 387.73 C 729.90 385.73 734.09 385.76 737.45 383.77 C 739.44 380.68 738.79 375.56 742.16 373.35 Z" />
</g>
<g id="#ef009fff">
<path fill="#ef009f" fill-opacity="0" d=" M 1071.28 396.46 C 1077.06 398.04 1082.32 401.38 1088.31 402.14 C 1091.04 401.91 1093.06 399.62 1095.19 398.11 C 1094.03 402.56 1092.83 407.02 1091.81 411.51 C 1097.17 413.37 1102.45 415.36 1107.81 417.28 C 1107.52 423.44 1108.10 429.75 1106.61 435.80 C 1105.40 440.55 1101.06 443.56 1097.06 445.90 C 1088.52 450.37 1079.05 452.55 1070.16 456.18 C 1073.97 460.86 1077.84 465.61 1082.62 469.36 C 1087.35 472.94 1094.35 475.12 1099.46 470.96 C 1108.27 475.71 1116.49 481.43 1124.22 487.77 C 1111.17 506.27 1099.26 525.75 1083.71 542.34 C 1077.76 539.69 1072.40 535.62 1066.11 533.88 C 1060.06 534.00 1055.91 539.16 1051.81 542.94 C 1056.93 549.10 1062.29 555.06 1067.42 561.23 C 1062.66 563.75 1058.21 566.81 1053.76 569.82 C 1043.90 557.57 1030.54 548.54 1016.75 541.27 C 1011.62 538.81 1006.41 536.29 1000.80 535.17 C 992.03 532.75 985.48 540.48 978.28 544.09 C 971.31 538.20 964.70 531.71 956.42 527.64 C 950.04 524.62 943.28 522.13 938.39 516.72 C 938.87 501.22 930.48 487.36 929.16 472.14 C 928.69 467.71 933.08 465.35 935.76 462.64 C 938.90 460.26 939.40 456.16 940.28 452.60 C 942.54 452.89 944.86 453.25 947.19 453.50 C 954.06 453.76 960.94 453.28 967.79 452.83 C 969.73 452.57 972.28 452.45 973.08 450.28 C 975.10 446.01 975.73 441.28 977.04 436.78 C 985.84 436.60 994.74 436.72 1003.38 438.66 C 1007.01 439.55 1009.17 442.88 1011.41 445.60 C 1014.86 450.27 1019.01 454.32 1023.22 458.32 C 1035.63 451.96 1039.22 435.88 1052.15 430.17 C 1056.86 430.12 1061.43 431.84 1065.81 433.45 C 1066.96 431.34 1068.14 429.25 1069.33 427.16 C 1066.95 424.87 1064.58 422.56 1062.20 420.29 C 1064.53 412.09 1067.64 404.15 1071.28 396.46 Z" />
</g>
<g id="#cfbfdfff">
<path fill="#cfbfdf" fill-opacity="0" d=" M 1287.79 401.97 C 1295.67 403.08 1303.22 405.59 1310.63 408.41 C 1325.92 412.82 1339.61 421.24 1354.63 426.42 C 1379.42 437.45 1406.44 444.13 1428.64 460.35 C 1435.90 466.91 1440.91 475.48 1447.41 482.72 C 1453.63 488.63 1460.05 494.37 1466.32 500.24 C 1457.91 500.14 1449.54 496.92 1441.18 498.18 C 1434.68 500.75 1436.47 509.08 1436.37 514.60 C 1435.84 519.66 1438.34 527.50 1432.59 530.50 C 1422.21 534.03 1410.96 533.61 1400.17 534.10 C 1398.37 526.32 1397.25 518.40 1395.56 510.61 C 1387.69 508.98 1385.83 516.97 1382.79 521.90 C 1378.48 529.09 1370.39 532.85 1365.89 539.88 C 1360.71 547.71 1357.08 556.41 1352.54 564.60 C 1349.77 569.55 1345.47 573.70 1340.29 576.06 C 1334.32 579.51 1325.84 579.54 1321.95 585.97 C 1317.10 594.25 1310.85 601.55 1305.51 609.49 C 1301.12 615.29 1297.32 621.83 1291.48 626.30 C 1282.83 630.49 1272.96 631.72 1263.43 631.58 C 1258.58 630.95 1253.36 631.34 1248.88 629.08 C 1238.75 624.10 1230.34 616.40 1221.74 609.27 C 1214.02 602.59 1205.67 595.52 1202.00 585.68 C 1198.79 571.05 1207.38 557.20 1208.98 542.89 C 1206.11 540.93 1203.27 538.95 1200.54 536.83 C 1204.24 533.82 1206.72 529.66 1208.36 525.24 C 1211.34 517.36 1214.95 509.55 1216.45 501.22 C 1216.37 493.17 1208.96 488.97 1205.13 482.88 C 1202.55 478.65 1206.89 474.35 1208.88 470.95 C 1210.95 467.84 1214.41 463.77 1218.60 465.63 C 1225.27 469.60 1229.98 476.62 1237.21 479.73 C 1240.99 480.07 1243.75 476.54 1246.68 474.69 C 1260.91 461.78 1268.19 443.72 1277.26 427.25 C 1281.76 419.26 1284.18 410.36 1287.79 401.97 Z" />
</g>
<g id="#8f3fdffe">
<path fill="#8f3fdf" fill-opacity="0" d=" M 696.67 408.31 C 698.82 408.04 700.44 406.45 701.83 404.92 C 700.99 409.51 700.20 414.20 700.62 418.88 C 700.66 421.95 703.70 423.65 706.16 424.76 C 711.85 426.90 717.96 427.55 723.87 428.94 C 725.94 426.03 728.05 423.15 730.15 420.26 C 734.10 421.48 738.23 422.30 741.93 424.21 C 745.21 425.62 744.24 429.85 743.97 432.67 C 741.93 444.05 738.72 455.99 730.32 464.39 C 722.66 472.77 709.87 467.68 700.37 471.24 C 697.28 474.80 695.61 479.93 696.41 484.63 C 701.62 489.44 710.15 489.21 715.12 494.53 C 717.05 498.64 716.82 504.26 721.33 506.73 C 730.89 512.23 742.33 512.07 752.96 513.70 C 755.20 515.29 757.57 517.31 757.71 520.29 C 759.36 535.41 758.51 550.64 758.65 565.82 C 758.74 574.20 757.51 582.50 756.47 590.79 C 751.31 591.39 746.16 592.06 740.98 592.48 C 740.25 592.37 738.78 592.16 738.05 592.05 L 737.21 591.90 C 731.79 590.58 725.97 589.95 721.01 587.26 C 718.86 585.22 718.11 582.04 715.81 580.10 C 710.51 578.29 704.65 577.21 699.24 579.28 C 693.30 581.03 689.77 586.78 684.18 589.17 C 676.56 590.39 670.29 583.20 662.64 584.49 C 657.49 585.98 654.35 591.39 649.10 592.57 C 642.80 591.12 636.59 586.82 634.21 580.62 C 630.17 571.77 627.10 562.05 619.71 555.27 C 611.42 548.68 602.20 543.38 593.38 537.56 C 587.69 533.51 580.72 532.20 574.01 530.92 C 573.01 537.55 573.94 544.75 570.94 550.91 C 567.17 556.75 560.78 560.01 555.58 564.37 C 545.19 538.22 533.68 512.52 523.68 486.22 C 529.64 482.36 536.12 479.27 543.17 478.11 C 550.11 476.85 556.96 472.66 564.13 474.75 C 568.35 476.07 572.72 477.47 577.22 476.31 C 582.36 473.12 584.46 466.93 587.28 461.82 C 583.14 458.77 578.89 455.83 575.42 452.01 C 577.48 451.24 581.61 449.72 583.67 448.95 C 591.52 446.86 595.22 459.18 603.17 456.34 C 612.16 453.64 612.63 441.40 620.63 437.63 C 636.21 434.09 651.98 441.51 667.61 438.42 C 668.88 431.96 670.40 425.57 672.20 419.24 C 673.90 419.26 675.63 419.29 677.35 419.32 C 678.21 415.74 679.11 412.18 680.15 408.65 C 685.65 408.49 691.20 409.16 696.67 408.31 M 619.55 461.19 C 608.27 472.80 597.19 484.63 586.55 496.84 C 591.10 498.56 595.97 501.23 600.91 498.84 C 608.68 497.33 616.04 494.01 623.85 492.75 C 629.04 495.40 632.81 500.24 637.97 502.96 C 644.66 505.19 651.79 505.55 658.69 506.90 C 661.38 501.95 664.10 497.02 666.87 492.13 C 652.95 482.05 639.05 471.94 625.15 461.85 C 623.45 461.10 620.97 458.62 619.55 461.19 Z" />
</g>
<g id="#8fbf5fff">
<path fill="#8fbf5f" fill-opacity="0" d=" M 619.55 461.19 C 620.97 458.62 623.45 461.10 625.15 461.85 C 639.05 471.94 652.95 482.05 666.87 492.13 C 664.10 497.02 661.38 501.95 658.69 506.90 C 651.79 505.55 644.66 505.19 637.97 502.96 C 632.81 500.24 629.04 495.40 623.85 492.75 C 616.04 494.01 608.68 497.33 600.91 498.84 C 595.97 501.23 591.10 498.56 586.55 496.84 C 597.19 484.63 608.27 472.80 619.55 461.19 Z" />
</g>
<g id="#ef7f1fff">
<path fill="#ef7f1f" fill-opacity="0" d=" M 1099.46 470.96 C 1103.78 468.20 1108.73 463.61 1114.19 466.34 C 1122.25 470.11 1129.48 475.46 1137.50 479.36 C 1141.07 481.37 1145.45 482.76 1147.73 486.41 C 1149.12 491.36 1147.49 496.37 1146.22 501.14 C 1155.78 506.05 1166.44 508.61 1175.58 514.36 C 1185.15 520.40 1191.75 529.86 1200.54 536.83 C 1203.27 538.95 1206.11 540.93 1208.98 542.89 C 1207.38 557.20 1198.79 571.05 1202.00 585.68 C 1205.67 595.52 1214.02 602.59 1221.74 609.27 C 1230.34 616.40 1238.75 624.10 1248.88 629.08 C 1253.36 631.34 1258.58 630.95 1263.43 631.58 C 1258.33 643.39 1251.76 654.54 1247.52 666.71 C 1245.06 672.99 1242.42 679.21 1239.68 685.37 C 1235.78 682.70 1231.64 680.39 1227.81 677.65 C 1230.21 673.84 1232.35 669.88 1234.26 665.80 C 1230.66 665.67 1226.98 665.96 1223.73 667.61 C 1215.48 671.46 1207.42 675.88 1198.44 677.82 C 1192.61 671.73 1185.93 666.57 1179.35 661.35 C 1173.02 670.38 1166.24 679.08 1159.99 688.16 C 1149.54 684.35 1139.27 680.08 1128.77 676.43 C 1120.74 673.44 1112.67 670.26 1105.57 665.41 C 1101.68 661.76 1101.26 655.52 1096.61 652.49 C 1088.84 645.99 1079.33 642.13 1070.87 636.64 C 1075.16 632.90 1078.67 628.37 1082.91 624.59 C 1086.23 621.62 1091.07 623.74 1094.76 621.84 C 1098.04 618.78 1099.19 614.11 1100.86 610.13 C 1096.06 606.58 1090.94 603.42 1086.39 599.56 C 1084.41 597.76 1082.04 595.27 1082.79 592.36 C 1084.21 589.15 1086.79 586.66 1088.88 583.89 C 1093.39 578.42 1095.82 571.69 1099.07 565.48 C 1093.61 562.52 1088.41 558.06 1082.01 557.59 C 1076.99 557.97 1072.14 559.60 1067.42 561.23 C 1062.29 555.06 1056.93 549.10 1051.81 542.94 C 1055.91 539.16 1060.06 534.00 1066.11 533.88 C 1072.40 535.62 1077.76 539.69 1083.71 542.34 C 1099.26 525.75 1111.17 506.27 1124.22 487.77 C 1116.49 481.43 1108.27 475.71 1099.46 470.96 M 1113.08 561.14 C 1109.31 562.87 1105.93 565.29 1102.39 567.40 C 1108.52 574.78 1117.14 579.45 1123.99 586.09 C 1128.96 582.23 1134.16 578.72 1139.45 575.32 C 1134.30 571.89 1129.15 568.46 1124.16 564.80 C 1120.91 562.67 1117.30 559.54 1113.08 561.14 Z" />
</g>
<g id="#4f3fdfff">
<path fill="#4f3fdf" fill-opacity="0" d=" M 1441.18 498.18 C 1449.54 496.92 1457.91 500.14 1466.32 500.24 C 1461.17 509.95 1457.15 520.20 1451.87 529.85 C 1450.42 532.95 1448.48 536.17 1448.55 539.68 C 1451.86 547.25 1459.45 553.28 1459.70 562.11 C 1459.53 573.17 1452.44 582.38 1448.11 592.11 C 1441.10 604.38 1435.76 617.52 1428.76 629.78 C 1422.34 638.69 1417.70 648.67 1412.03 658.03 C 1408.97 663.85 1401.92 664.92 1397.16 668.80 C 1404.32 670.39 1411.73 669.29 1418.82 667.75 C 1431.87 665.54 1442.84 678.26 1443.96 690.42 C 1443.53 698.80 1439.64 706.33 1435.57 713.47 C 1428.02 728.53 1418.32 742.43 1410.82 757.50 C 1402.55 750.33 1391.12 753.66 1381.23 751.53 C 1383.19 746.85 1385.67 742.42 1388.07 737.96 C 1389.06 735.77 1390.72 733.22 1389.39 730.81 C 1387.36 726.27 1384.36 721.65 1379.76 719.43 C 1376.30 718.99 1372.72 720.14 1369.70 721.74 C 1364.49 725.36 1363.38 732.44 1358.64 736.50 C 1354.71 738.88 1350.35 740.32 1345.96 741.54 C 1336.07 738.06 1325.72 735.71 1315.23 735.25 C 1309.62 735.48 1304.74 738.76 1299.70 740.89 C 1298.88 734.60 1298.62 728.27 1299.00 721.95 C 1302.18 719.73 1307.66 719.69 1309.45 715.71 C 1309.51 713.21 1308.76 710.80 1308.27 708.39 C 1302.30 708.71 1296.13 709.19 1290.35 707.38 C 1284.72 703.07 1280.30 696.51 1273.17 694.48 C 1266.21 692.87 1259.69 696.68 1253.84 699.94 C 1249.31 694.91 1245.24 689.34 1239.68 685.37 C 1242.42 679.21 1245.06 672.99 1247.52 666.71 C 1251.76 654.54 1258.33 643.39 1263.43 631.58 C 1272.96 631.72 1282.83 630.49 1291.48 626.30 C 1297.32 621.83 1301.12 615.29 1305.51 609.49 C 1310.85 601.55 1317.10 594.25 1321.95 585.97 C 1325.84 579.54 1334.32 579.51 1340.29 576.06 C 1345.47 573.70 1349.77 569.55 1352.54 564.60 C 1357.08 556.41 1360.71 547.71 1365.89 539.88 C 1370.39 532.85 1378.48 529.09 1382.79 521.90 C 1385.83 516.97 1387.69 508.98 1395.56 510.61 C 1397.25 518.40 1398.37 526.32 1400.17 534.10 C 1410.96 533.61 1422.21 534.03 1432.59 530.50 C 1438.34 527.50 1435.84 519.66 1436.37 514.60 C 1436.47 509.08 1434.68 500.75 1441.18 498.18 Z" />
</g>
<g id="#2f3f1ffe">
<path fill="#2f3f1f" fill-opacity="0" d=" M 752.96 513.70 C 760.97 514.87 769.02 515.84 776.93 517.61 C 776.13 525.33 776.19 533.10 777.00 540.81 C 781.89 542.59 786.82 544.51 792.13 544.55 C 802.72 545.31 813.11 542.07 823.71 542.55 C 822.73 547.18 821.89 551.85 821.05 556.52 C 824.33 559.39 827.55 562.45 829.76 566.26 C 830.29 569.40 829.77 572.59 829.60 575.75 C 837.75 578.79 847.09 579.69 853.94 585.56 C 851.63 587.61 849.33 589.65 847.03 591.69 C 841.88 589.64 836.30 589.19 830.89 590.39 C 829.51 598.87 826.26 606.89 824.36 615.24 C 823.64 617.05 825.32 618.36 826.58 619.37 C 830.78 622.37 836.26 623.35 840.05 627.00 C 843.06 630.07 842.96 634.73 842.80 638.73 C 839.99 653.04 838.18 667.60 833.81 681.55 C 832.50 685.56 827.31 686.27 825.65 689.99 C 824.14 696.33 824.64 702.98 823.23 709.34 C 822.09 715.15 815.46 717.48 813.29 722.78 C 812.08 725.80 811.97 729.15 810.64 732.12 C 808.72 735.45 806.22 738.41 803.74 741.34 C 800.22 739.56 796.20 738.43 792.25 738.90 C 786.45 742.57 783.01 749.23 777.11 752.76 C 772.27 754.10 767.16 754.24 762.37 755.82 C 755.80 757.54 750.98 762.46 745.64 766.29 C 741.12 760.92 739.06 754.16 736.01 747.96 C 732.24 737.86 730.39 727.22 726.96 717.02 C 725.86 712.60 723.66 707.88 725.44 703.36 C 728.56 695.75 732.63 688.52 734.45 680.42 C 727.87 679.75 721.26 682.07 714.78 680.18 C 711.26 679.08 708.26 676.80 705.09 675.03 C 705.16 672.01 705.41 669.16 705.57 666.19 C 697.97 662.79 690.42 659.29 682.91 655.70 C 683.81 649.88 685.07 643.74 689.43 639.44 C 700.63 627.82 706.51 611.91 719.77 602.12 C 724.19 603.22 729.91 607.23 733.57 602.66 C 735.39 599.27 734.32 595.15 734.47 591.45 C 735.16 591.56 736.52 591.79 737.21 591.90 L 738.05 592.05 C 738.20 593.69 740.31 593.93 740.98 592.48 C 746.16 592.06 751.31 591.39 756.47 590.79 C 757.51 582.50 758.74 574.20 758.65 565.82 C 758.51 550.64 759.36 535.41 757.71 520.29 C 757.57 517.31 755.20 515.29 752.96 513.70 Z" />
</g>
<g id="#af3f1fff">
<path fill="#af3f1f" fill-opacity="0" d=" M 916.34 521.66 C 923.53 519.20 932.00 521.69 938.39 516.72 C 943.28 522.13 950.04 524.62 956.42 527.64 C 951.83 534.22 947.10 540.71 942.32 547.16 C 937.09 554.04 930.00 559.08 923.76 564.94 C 922.87 566.88 921.57 569.89 923.16 571.92 C 931.08 582.66 942.39 590.03 952.53 598.44 C 956.87 602.34 964.33 604.78 963.87 611.80 C 962.08 614.90 959.20 617.20 957.07 620.04 C 956.70 622.40 958.06 624.69 958.62 626.95 C 955.19 629.20 951.79 631.48 948.38 633.74 C 950.75 635.16 953.24 636.37 955.72 637.61 C 955.46 640.92 954.40 644.08 952.87 647.01 C 962.80 655.17 975.60 657.19 987.12 662.06 C 979.94 669.30 975.80 678.96 967.92 685.60 C 962.40 683.81 956.72 682.58 951.00 681.66 C 949.89 683.67 948.76 685.68 947.79 687.76 C 940.89 689.15 932.34 691.68 926.48 686.44 C 924.09 681.97 928.68 675.84 925.05 671.96 C 915.00 669.00 903.99 671.44 893.97 668.07 C 890.63 665.79 888.09 662.55 884.65 660.43 C 879.38 658.06 873.35 660.35 868.11 657.99 C 858.25 653.73 849.63 646.99 842.80 638.73 C 842.96 634.73 843.06 630.07 840.05 627.00 C 836.26 623.35 830.78 622.37 826.58 619.37 C 825.32 618.36 823.64 617.05 824.36 615.24 C 826.26 606.89 829.51 598.87 830.89 590.39 C 836.30 589.19 841.88 589.64 847.03 591.69 C 849.33 589.65 851.63 587.61 853.94 585.56 C 847.09 579.69 837.75 578.79 829.60 575.75 C 829.77 572.59 830.29 569.40 829.76 566.26 C 827.55 562.45 824.33 559.39 821.05 556.52 C 821.89 551.85 822.73 547.18 823.71 542.55 C 836.76 542.53 849.77 541.28 862.41 537.94 C 876.04 534.78 890.11 534.74 903.85 532.36 C 909.84 531.52 911.69 524.63 916.34 521.66 Z" />
</g>
<g id="#cf3f5fff">
<path fill="#cf3f5f" fill-opacity="0" d=" M 956.42 527.64 C 964.70 531.71 971.31 538.20 978.28 544.09 C 985.48 540.48 992.03 532.75 1000.80 535.17 C 1006.41 536.29 1011.62 538.81 1016.75 541.27 C 1030.54 548.54 1043.90 557.57 1053.76 569.82 C 1058.21 566.81 1062.66 563.75 1067.42 561.23 C 1072.14 559.60 1076.99 557.97 1082.01 557.59 C 1088.41 558.06 1093.61 562.52 1099.07 565.48 C 1095.82 571.69 1093.39 578.42 1088.88 583.89 C 1086.79 586.66 1084.21 589.15 1082.79 592.36 C 1082.04 595.27 1084.41 597.76 1086.39 599.56 C 1090.94 603.42 1096.06 606.58 1100.86 610.13 C 1099.19 614.11 1098.04 618.78 1094.76 621.84 C 1091.07 623.74 1086.23 621.62 1082.91 624.59 C 1078.67 628.37 1075.16 632.90 1070.87 636.64 C 1068.19 639.07 1065.43 641.43 1062.71 643.82 C 1056.56 638.79 1050.27 632.42 1042.09 631.39 C 1036.22 633.85 1032.18 639.26 1027.22 643.13 C 1028.92 646.41 1030.66 649.67 1032.39 652.98 C 1029.63 656.32 1026.80 659.61 1024.01 662.92 C 1020.13 660.70 1016.11 658.83 1012.16 656.79 C 1014.08 654.03 1015.96 651.23 1017.72 648.36 C 1015.13 647.12 1012.54 645.90 1009.97 644.70 C 1004.63 649.12 999.90 654.17 995.11 659.15 C 993.11 661.44 990.10 662.47 987.12 662.06 C 975.60 657.19 962.80 655.17 952.87 647.01 C 954.40 644.08 955.46 640.92 955.72 637.61 C 953.24 636.37 950.75 635.16 948.38 633.74 C 951.79 631.48 955.19 629.20 958.62 626.95 C 958.06 624.69 956.70 622.40 957.07 620.04 C 959.20 617.20 962.08 614.90 963.87 611.80 C 964.33 604.78 956.87 602.34 952.53 598.44 C 942.39 590.03 931.08 582.66 923.16 571.92 C 921.57 569.89 922.87 566.88 923.76 564.94 C 930.00 559.08 937.09 554.04 942.32 547.16 C 947.10 540.71 951.83 534.22 956.42 527.64 Z" />
</g>
<g id="#af7f1ffe">
<path fill="#af7f1f" fill-opacity="0" d=" M 574.01 530.92 C 580.72 532.20 587.69 533.51 593.38 537.56 C 602.20 543.38 611.42 548.68 619.71 555.27 C 627.10 562.05 630.17 571.77 634.21 580.62 C 636.59 586.82 642.80 591.12 649.10 592.57 C 654.35 591.39 657.49 585.98 662.64 584.49 C 670.29 583.20 676.56 590.39 684.18 589.17 C 689.77 586.78 693.30 581.03 699.24 579.28 C 704.65 577.21 710.51 578.29 715.81 580.10 C 718.11 582.04 718.86 585.22 721.01 587.26 C 725.97 589.95 731.79 590.58 737.21 591.90 C 736.52 591.79 735.16 591.56 734.47 591.45 C 734.32 595.15 735.39 599.27 733.57 602.66 C 729.91 607.23 724.19 603.22 719.77 602.12 C 706.51 611.91 700.63 627.82 689.43 639.44 C 685.07 643.74 683.81 649.88 682.91 655.70 C 690.42 659.29 697.97 662.79 705.57 666.19 C 705.41 669.16 705.16 672.01 705.09 675.03 C 708.26 676.80 711.26 679.08 714.78 680.18 C 721.26 682.07 727.87 679.75 734.45 680.42 C 732.63 688.52 728.56 695.75 725.44 703.36 C 723.66 707.88 725.86 712.60 726.96 717.02 C 730.39 727.22 732.24 737.86 736.01 747.96 C 725.22 747.88 714.54 746.06 704.31 742.72 C 698.84 741.33 693.32 738.74 687.57 739.67 C 682.83 739.79 677.51 743.02 673.08 739.93 C 663.35 734.67 652.72 728.60 648.20 717.91 C 645.02 712.06 643.99 705.20 640.51 699.53 C 637.06 697.47 632.86 696.94 628.94 696.33 C 621.50 695.54 616.22 701.98 610.10 705.17 C 604.58 707.74 604.49 715.69 598.46 717.58 C 594.11 718.63 589.33 722.02 584.74 720.24 C 577.37 714.37 569.88 708.39 564.16 700.82 C 557.95 693.30 555.04 683.88 550.73 675.29 C 546.99 665.45 541.70 656.35 537.25 646.84 C 529.40 628.04 518.48 610.36 513.89 590.32 C 522.10 587.79 530.49 585.67 538.38 582.25 C 544.65 579.23 548.59 573.30 552.39 567.75 C 553.38 566.56 554.45 565.43 555.58 564.37 C 560.78 560.01 567.17 556.75 570.94 550.91 C 573.94 544.75 573.01 537.55 574.01 530.92 M 607.44 587.99 C 605.64 592.95 603.10 597.67 601.80 602.80 C 601.66 609.75 601.81 616.84 603.42 623.65 C 604.61 625.66 607.24 626.15 609.34 625.44 C 615.53 623.73 621.20 620.59 627.02 617.93 C 625.85 611.59 625.14 605.09 622.81 599.06 C 618.65 594.23 612.59 591.54 607.44 587.99 Z" />
</g>
<g id="#6f009ffe">
<path fill="#6f009f" fill-opacity="0" d=" M 1113.08 561.14 C 1117.30 559.54 1120.91 562.67 1124.16 564.80 C 1129.15 568.46 1134.30 571.89 1139.45 575.32 C 1134.16 578.72 1128.96 582.23 1123.99 586.09 C 1117.14 579.45 1108.52 574.78 1102.39 567.40 C 1105.93 565.29 1109.31 562.87 1113.08 561.14 Z" />
</g>
<g id="#cfbf5fff">
<path fill="#cfbf5f" fill-opacity="0" d=" M 607.44 587.99 C 612.59 591.54 618.65 594.23 622.81 599.06 C 625.14 605.09 625.85 611.59 627.02 617.93 C 621.20 620.59 615.53 623.73 609.34 625.44 C 607.24 626.15 604.61 625.66 603.42 623.65 C 601.81 616.84 601.66 609.75 601.80 602.80 C 603.10 597.67 605.64 592.95 607.44 587.99 Z" />
</g>
<g id="#b07f20ff">
<path fill="#b07f20" fill-opacity="0" d=" M 738.05 592.05 C 738.78 592.16 740.25 592.37 740.98 592.48 C 740.31 593.93 738.20 593.69 738.05 592.05 Z" />
</g>
<g id="#0f3fdfff">
<path fill="#0f3fdf" fill-opacity="0" d=" M 1027.22 643.13 C 1032.18 639.26 1036.22 633.85 1042.09 631.39 C 1050.27 632.42 1056.56 638.79 1062.71 643.82 C 1065.43 641.43 1068.19 639.07 1070.87 636.64 C 1079.33 642.13 1088.84 645.99 1096.61 652.49 C 1101.26 655.52 1101.68 661.76 1105.57 665.41 C 1112.67 670.26 1120.74 673.44 1128.77 676.43 C 1139.27 680.08 1149.54 684.35 1159.99 688.16 C 1155.94 693.87 1152.05 699.70 1147.71 705.20 C 1151.49 708.42 1155.29 711.55 1159.13 714.74 C 1162.70 712.89 1166.32 711.10 1169.90 709.26 C 1175.70 715.84 1181.91 722.12 1186.95 729.35 C 1182.67 730.95 1178.21 731.96 1173.83 733.20 C 1172.58 745.35 1172.28 757.61 1169.85 769.61 C 1159.44 771.73 1149.00 773.77 1138.65 776.17 C 1135.08 777.22 1130.37 777.53 1128.49 781.31 C 1125.72 786.56 1123.90 792.27 1121.03 797.49 C 1116.00 795.58 1110.13 794.06 1107.17 789.14 C 1103.76 783.53 1098.71 777.05 1091.25 778.45 C 1082.50 779.76 1074.15 783.26 1066.23 787.10 C 1051.98 780.36 1037.15 774.93 1022.90 768.20 C 1025.62 762.64 1028.34 757.10 1031.19 751.62 C 1040.00 752.07 1049.28 751.74 1057.09 747.09 C 1060.66 742.41 1059.76 735.80 1058.67 730.40 C 1057.22 724.52 1056.25 718.19 1052.65 713.16 C 1051.46 711.41 1049.16 711.37 1047.30 711.09 C 1037.57 710.30 1027.79 711.03 1018.06 711.03 C 1020.67 703.84 1022.47 696.21 1026.88 689.84 C 1029.71 685.31 1033.35 681.39 1036.88 677.41 C 1032.62 672.55 1028.71 667.35 1024.01 662.92 C 1026.80 659.61 1029.63 656.32 1032.39 652.98 C 1030.66 649.67 1028.92 646.41 1027.22 643.13 Z" />
</g>
<g id="#cf3fdfff">
<path fill="#cf3fdf" fill-opacity="0" d=" M 842.80 638.73 C 849.63 646.99 858.25 653.73 868.11 657.99 C 873.35 660.35 879.38 658.06 884.65 660.43 C 888.09 662.55 890.63 665.79 893.97 668.07 C 903.99 671.44 915.00 669.00 925.05 671.96 C 928.68 675.84 924.09 681.97 926.48 686.44 C 932.34 691.68 940.89 689.15 947.79 687.76 C 945.93 694.91 949.31 701.94 950.72 708.89 C 945.73 712.59 940.52 715.97 935.15 719.08 C 937.74 729.28 934.21 739.47 934.52 749.75 C 937.58 754.83 944.45 756.01 947.70 761.03 C 944.49 768.94 940.95 776.85 939.77 785.43 C 936.95 786.14 933.81 787.65 931.06 785.91 C 916.83 777.76 899.01 781.12 884.67 773.29 C 879.17 767.55 872.30 763.46 864.52 761.81 C 862.48 764.90 860.45 767.99 858.40 771.08 C 851.96 770.58 844.43 771.12 839.10 766.84 C 837.36 761.76 840.57 756.35 838.92 751.21 C 831.77 749.36 824.31 750.00 817.04 749.45 C 811.64 748.68 807.73 744.65 803.74 741.34 C 806.22 738.41 808.72 735.45 810.64 732.12 C 811.97 729.15 812.08 725.80 813.29 722.78 C 815.46 717.48 822.09 715.15 823.23 709.34 C 824.64 702.98 824.14 696.33 825.65 689.99 C 827.31 686.27 832.50 685.56 833.81 681.55 C 838.18 667.60 839.99 653.04 842.80 638.73 M 862.72 730.99 C 860.88 736.17 866.01 736.74 869.08 737.92 C 875.58 739.55 881.88 741.84 888.19 744.09 C 893.34 746.44 898.66 743.26 903.68 741.95 C 904.69 738.09 905.83 734.28 906.99 730.47 C 892.95 728.88 878.96 726.79 864.90 725.42 C 862.15 725.56 862.32 729.01 862.72 730.99 M 839.93 733.84 C 835.53 736.09 831.65 739.18 827.65 742.05 C 829.33 744.26 831.03 746.46 832.63 748.74 C 836.40 746.97 840.22 745.26 844.07 743.63 C 846.93 748.72 846.42 757.22 853.35 758.71 C 862.44 763.06 871.90 758.07 881.08 756.65 C 873.82 749.70 866.83 742.22 858.24 736.90 C 852.25 735.46 846.12 734.01 839.93 733.84 Z" />
</g>
<g id="#6f001ffe">
<path fill="#6f001f" fill-opacity="0" d=" M 995.11 659.15 C 999.90 654.17 1004.63 649.12 1009.97 644.70 C 1012.54 645.90 1015.13 647.12 1017.72 648.36 C 1015.96 651.23 1014.08 654.03 1012.16 656.79 C 1016.11 658.83 1020.13 660.70 1024.01 662.92 C 1028.71 667.35 1032.62 672.55 1036.88 677.41 C 1033.35 681.39 1029.71 685.31 1026.88 689.84 C 1022.47 696.21 1020.67 703.84 1018.06 711.03 C 1027.79 711.03 1037.57 710.30 1047.30 711.09 C 1049.16 711.37 1051.46 711.41 1052.65 713.16 C 1056.25 718.19 1057.22 724.52 1058.67 730.40 C 1059.76 735.80 1060.66 742.41 1057.09 747.09 C 1049.28 751.74 1040.00 752.07 1031.19 751.62 C 1028.34 757.10 1025.62 762.64 1022.90 768.20 C 1037.15 774.93 1051.98 780.36 1066.23 787.10 C 1060.43 792.87 1055.56 799.47 1050.35 805.76 C 1045.99 802.94 1041.69 799.68 1036.57 798.43 C 1033.26 797.62 1030.77 800.78 1028.23 802.26 C 1020.70 808.46 1010.82 810.33 1002.10 814.19 C 997.97 815.76 997.74 820.77 997.30 824.53 C 996.06 830.04 998.53 837.48 993.45 841.45 C 987.87 843.89 981.56 841.74 976.03 840.12 C 976.50 835.75 977.26 831.42 978.37 827.17 C 981.39 819.30 976.66 811.16 971.41 805.55 C 962.18 802.20 952.28 807.17 942.84 805.23 C 940.59 804.81 939.99 802.29 939.33 800.48 C 937.63 795.57 938.77 790.34 939.77 785.43 C 940.95 776.85 944.49 768.94 947.70 761.03 C 944.45 756.01 937.58 754.83 934.52 749.75 C 934.21 739.47 937.74 729.28 935.15 719.08 C 940.52 715.97 945.73 712.59 950.72 708.89 C 949.31 701.94 945.93 694.91 947.79 687.76 C 948.76 685.68 949.89 683.67 951.00 681.66 C 956.72 682.58 962.40 683.81 967.92 685.60 C 975.80 678.96 979.94 669.30 987.12 662.06 C 990.10 662.47 993.11 661.44 995.11 659.15 M 955.86 745.65 C 958.14 751.19 959.82 756.95 961.89 762.57 C 962.66 765.25 966.18 765.07 968.21 764.10 C 971.57 761.72 973.11 757.57 974.82 753.99 C 971.07 747.32 963.36 744.48 955.86 745.65 Z" />
</g>
<g id="#0fbf5fff">
<path fill="#0fbf5f" fill-opacity="0" d=" M 1179.35 661.35 C 1185.93 666.57 1192.61 671.73 1198.44 677.82 C 1207.42 675.88 1215.48 671.46 1223.73 667.61 C 1226.98 665.96 1230.66 665.67 1234.26 665.80 C 1232.35 669.88 1230.21 673.84 1227.81 677.65 C 1231.64 680.39 1235.78 682.70 1239.68 685.37 C 1245.24 689.34 1249.31 694.91 1253.84 699.94 C 1259.69 696.68 1266.21 692.87 1273.17 694.48 C 1280.30 696.51 1284.72 703.07 1290.35 707.38 C 1296.13 709.19 1302.30 708.71 1308.27 708.39 C 1308.76 710.80 1309.51 713.21 1309.45 715.71 C 1307.66 719.69 1302.18 719.73 1299.00 721.95 C 1298.62 728.27 1298.88 734.60 1299.70 740.89 C 1304.74 738.76 1309.62 735.48 1315.23 735.25 C 1325.72 735.71 1336.07 738.06 1345.96 741.54 C 1341.22 752.32 1335.69 762.99 1333.82 774.73 C 1332.32 783.09 1330.33 791.35 1328.80 799.71 C 1321.30 798.45 1313.75 797.61 1306.33 795.99 C 1306.99 791.19 1307.62 786.38 1307.91 781.55 C 1302.31 781.21 1296.56 779.51 1291.05 781.11 C 1286.95 782.34 1287.46 787.30 1287.02 790.69 C 1275.95 791.71 1264.70 792.37 1253.79 789.75 C 1253.62 787.29 1253.44 784.84 1253.21 782.40 C 1244.62 783.99 1235.93 783.22 1227.27 783.41 C 1222.33 783.24 1217.97 787.13 1216.92 791.85 C 1215.90 796.92 1215.51 802.13 1215.59 807.31 C 1209.44 808.50 1203.14 809.10 1196.90 808.39 C 1192.56 807.77 1187.31 808.47 1183.71 805.37 C 1181.70 802.26 1181.35 798.39 1180.34 794.93 C 1178.49 786.95 1173.07 780.51 1168.23 774.15 C 1168.77 772.63 1169.34 771.13 1169.85 769.61 C 1172.28 757.61 1172.58 745.35 1173.83 733.20 C 1178.21 731.96 1182.67 730.95 1186.95 729.35 C 1181.91 722.12 1175.70 715.84 1169.90 709.26 C 1166.32 711.10 1162.70 712.89 1159.13 714.74 C 1155.29 711.55 1151.49 708.42 1147.71 705.20 C 1152.05 699.70 1155.94 693.87 1159.99 688.16 C 1166.24 679.08 1173.02 670.38 1179.35 661.35 Z" />
</g>
<g id="#af001ffe">
<path fill="#af001f" fill-opacity="0" d=" M 1369.70 721.74 C 1372.72 720.14 1376.30 718.99 1379.76 719.43 C 1384.36 721.65 1387.36 726.27 1389.39 730.81 C 1390.72 733.22 1389.06 735.77 1388.07 737.96 C 1385.67 742.42 1383.19 746.85 1381.23 751.53 C 1391.12 753.66 1402.55 750.33 1410.82 757.50 C 1413.42 759.21 1415.89 761.32 1418.89 762.32 C 1425.50 761.81 1428.76 754.70 1434.84 752.80 C 1447.37 747.94 1465.39 749.63 1471.96 763.04 C 1474.48 771.47 1467.93 780.31 1471.15 788.68 C 1472.98 794.17 1474.67 799.89 1474.25 805.75 C 1471.12 812.42 1465.52 817.67 1462.53 824.40 C 1461.98 832.68 1469.10 840.61 1466.98 849.00 C 1460.77 859.79 1452.75 869.46 1445.50 879.56 C 1442.13 883.50 1439.73 888.32 1435.74 891.70 C 1427.36 896.67 1417.32 896.65 1407.88 896.66 C 1402.06 896.37 1395.82 896.81 1390.47 894.12 C 1385.17 889.79 1388.40 881.94 1386.80 876.18 C 1386.42 872.45 1382.75 870.69 1380.27 868.49 C 1382.00 877.53 1382.19 886.93 1378.47 895.58 C 1375.21 905.98 1367.86 914.27 1362.58 923.62 C 1358.29 931.02 1353.20 938.19 1345.97 942.96 C 1339.03 947.23 1332.73 952.88 1325.13 955.93 C 1318.57 952.42 1314.57 945.75 1309.06 940.94 C 1303.92 936.64 1301.71 930.18 1298.26 924.66 C 1292.38 917.82 1282.51 917.58 1274.25 916.35 C 1266.15 915.55 1257.78 912.98 1249.77 915.56 C 1238.72 918.61 1227.62 921.64 1217.01 926.05 C 1210.98 928.22 1204.65 930.85 1198.13 929.89 C 1192.96 928.83 1188.84 924.24 1188.33 919.00 C 1185.17 905.00 1192.52 891.77 1196.62 878.82 C 1199.11 870.21 1203.12 862.21 1208.45 855.02 C 1196.34 864.75 1191.64 880.22 1180.85 891.06 C 1174.55 889.86 1168.01 889.35 1162.00 886.98 C 1156.95 884.98 1154.96 879.32 1150.92 876.15 C 1145.57 874.27 1139.67 875.03 1134.12 874.22 C 1136.09 866.38 1138.11 858.54 1140.14 850.72 C 1143.26 836.91 1150.60 824.31 1152.13 810.10 C 1156.53 810.62 1160.95 811.12 1165.33 811.91 C 1166.40 806.96 1166.77 801.89 1166.67 796.83 C 1171.20 796.14 1175.77 795.53 1180.34 794.93 C 1181.35 798.39 1181.70 802.26 1183.71 805.37 C 1187.31 808.47 1192.56 807.77 1196.90 808.39 C 1203.14 809.10 1209.44 808.50 1215.59 807.31 C 1215.51 802.13 1215.90 796.92 1216.92 791.85 C 1217.97 787.13 1222.33 783.24 1227.27 783.41 C 1235.93 783.22 1244.62 783.99 1253.21 782.40 C 1253.44 784.84 1253.62 787.29 1253.79 789.75 C 1264.70 792.37 1275.95 791.71 1287.02 790.69 C 1287.46 787.30 1286.95 782.34 1291.05 781.11 C 1296.56 779.51 1302.31 781.21 1307.91 781.55 C 1307.62 786.38 1306.99 791.19 1306.33 795.99 C 1313.75 797.61 1321.30 798.45 1328.80 799.71 C 1330.33 791.35 1332.32 783.09 1333.82 774.73 C 1335.69 762.99 1341.22 752.32 1345.96 741.54 C 1350.35 740.32 1354.71 738.88 1358.64 736.50 C 1363.38 732.44 1364.49 725.36 1369.70 721.74 Z" />
</g>
<g id="#4fbfdfff">
<path fill="#4fbfdf" fill-opacity="0" d=" M 862.72 730.99 C 862.32 729.01 862.15 725.56 864.90 725.42 C 878.96 726.79 892.95 728.88 906.99 730.47 C 905.83 734.28 904.69 738.09 903.68 741.95 C 898.66 743.26 893.34 746.44 888.19 744.09 C 881.88 741.84 875.58 739.55 869.08 737.92 C 866.01 736.74 860.88 736.17 862.72 730.99 Z" />
</g>
<g id="#cf7fdfff">
<path fill="#cf7fdf" fill-opacity="0" d=" M 839.93 733.84 C 846.12 734.01 852.25 735.46 858.24 736.90 C 866.83 742.22 873.82 749.70 881.08 756.65 C 871.90 758.07 862.44 763.06 853.35 758.71 C 846.42 757.22 846.93 748.72 844.07 743.63 C 840.22 745.26 836.40 746.97 832.63 748.74 C 831.03 746.46 829.33 744.26 827.65 742.05 C 831.65 739.18 835.53 736.09 839.93 733.84 Z" />
</g>
<g id="#8fbfdffe">
<path fill="#8fbfdf" fill-opacity="0" d=" M 792.25 738.90 C 796.20 738.43 800.22 739.56 803.74 741.34 C 807.73 744.65 811.64 748.68 817.04 749.45 C 824.31 750.00 831.77 749.36 838.92 751.21 C 840.57 756.35 837.36 761.76 839.10 766.84 C 844.43 771.12 851.96 770.58 858.40 771.08 C 860.45 767.99 862.48 764.90 864.52 761.81 C 872.30 763.46 879.17 767.55 884.67 773.29 C 899.01 781.12 916.83 777.76 931.06 785.91 C 933.81 787.65 936.95 786.14 939.77 785.43 C 938.77 790.34 937.63 795.57 939.33 800.48 C 939.99 802.29 940.59 804.81 942.84 805.23 C 952.28 807.17 962.18 802.20 971.41 805.55 C 976.66 811.16 981.39 819.30 978.37 827.17 C 967.68 830.49 953.47 833.01 949.00 844.88 C 947.58 856.36 949.28 868.10 949.46 879.64 C 946.05 878.93 942.51 877.94 939.03 878.82 C 931.96 879.99 929.46 888.23 924.43 892.27 C 919.54 893.33 914.46 892.04 909.57 893.17 C 900.83 894.83 893.40 900.27 884.79 902.34 C 879.55 902.95 874.38 900.71 869.16 901.20 C 863.77 902.91 859.93 907.22 855.64 910.64 C 852.14 913.53 847.41 914.09 843.24 915.47 C 837.08 916.68 830.74 918.39 824.44 917.46 C 819.78 914.49 813.42 912.18 811.46 906.44 C 806.70 893.04 804.39 878.94 800.27 865.36 C 798.02 860.34 795.33 855.41 794.66 849.86 C 789.29 846.91 783.45 845.06 777.48 843.82 C 774.16 850.90 780.41 857.90 777.99 864.94 C 776.75 868.65 772.33 867.53 769.23 867.63 C 765.27 867.29 761.15 867.13 757.53 865.39 C 751.47 861.32 748.87 853.63 742.67 849.77 C 738.17 847.14 730.62 848.06 728.92 842.05 C 725.73 832.24 722.44 822.47 719.24 812.67 C 717.25 807.71 720.77 802.87 721.81 798.17 C 721.60 794.18 719.91 790.40 719.93 786.43 C 722.05 782.85 724.86 779.70 727.67 776.65 C 732.58 771.53 739.85 770.07 745.64 766.29 C 750.98 762.46 755.80 757.54 762.37 755.82 C 767.16 754.24 772.27 754.10 777.11 752.76 C 783.01 749.23 786.45 742.57 792.25 738.90 M 828.60 779.26 C 833.87 788.07 845.60 788.91 854.26 785.11 C 852.80 780.71 851.24 776.33 849.73 771.97 C 842.92 775.03 835.96 777.86 828.60 779.26 M 859.28 776.69 C 858.18 782.72 856.86 788.72 855.91 794.79 C 863.96 796.61 872.06 798.22 880.14 799.94 C 880.71 792.92 880.86 785.85 880.11 778.84 C 873.35 776.65 866.31 776.13 859.28 776.69 M 811.16 798.26 C 807.74 805.61 803.84 812.74 800.63 820.19 C 803.91 818.84 807.94 818.99 810.97 816.96 C 815.29 813.26 818.19 808.18 822.42 804.40 C 826.77 802.80 831.43 805.12 835.85 805.13 C 836.17 802.10 836.50 799.09 836.86 796.07 C 828.28 796.64 819.73 797.61 811.16 798.26 Z" />
</g>
<g id="#ef001fff">
<path fill="#ef001f" fill-opacity="0" d=" M 955.86 745.65 C 963.36 744.48 971.07 747.32 974.82 753.99 C 973.11 757.57 971.57 761.72 968.21 764.10 C 966.18 765.07 962.66 765.25 961.89 762.57 C 959.82 756.95 958.14 751.19 955.86 745.65 Z" />
</g>
<g id="#2f009fff">
<path fill="#2f009f" fill-opacity="0" d=" M 1138.65 776.17 C 1149.00 773.77 1159.44 771.73 1169.85 769.61 C 1169.34 771.13 1168.77 772.63 1168.23 774.15 C 1173.07 780.51 1178.49 786.95 1180.34 794.93 C 1175.77 795.53 1171.20 796.14 1166.67 796.83 C 1166.77 801.89 1166.40 806.96 1165.33 811.91 C 1160.95 811.12 1156.53 810.62 1152.13 810.10 C 1150.60 824.31 1143.26 836.91 1140.14 850.72 C 1138.11 858.54 1136.09 866.38 1134.12 874.22 L 1133.88 875.16 C 1122.86 873.43 1115.35 861.41 1103.46 863.63 C 1095.26 868.77 1087.59 874.86 1080.53 881.47 C 1074.78 890.08 1073.25 900.60 1071.38 910.56 C 1070.43 915.85 1066.28 920.20 1061.14 921.68 C 1048.07 916.89 1035.38 910.29 1021.38 908.67 C 1012.45 906.64 1003.26 907.67 994.30 908.88 C 984.07 910.73 974.98 916.21 965.92 921.01 C 961.87 916.68 957.31 912.30 955.78 906.37 C 953.00 897.58 954.18 887.80 949.46 879.64 C 949.28 868.10 947.58 856.36 949.00 844.88 C 953.47 833.01 967.68 830.49 978.37 827.17 C 977.26 831.42 976.50 835.75 976.03 840.12 C 981.56 841.74 987.87 843.89 993.45 841.45 C 998.53 837.48 996.06 830.04 997.30 824.53 C 997.74 820.77 997.97 815.76 1002.10 814.19 C 1010.82 810.33 1020.70 808.46 1028.23 802.26 C 1030.77 800.78 1033.26 797.62 1036.57 798.43 C 1041.69 799.68 1045.99 802.94 1050.35 805.76 C 1055.56 799.47 1060.43 792.87 1066.23 787.10 C 1074.15 783.26 1082.50 779.76 1091.25 778.45 C 1098.71 777.05 1103.76 783.53 1107.17 789.14 C 1110.13 794.06 1116.00 795.58 1121.03 797.49 C 1123.90 792.27 1125.72 786.56 1128.49 781.31 C 1130.37 777.53 1135.08 777.22 1138.65 776.17 Z" />
</g>
<g id="#2f001fff">
<path fill="#2f001f" fill-opacity="0" d=" M 828.60 779.26 C 835.96 777.86 842.92 775.03 849.73 771.97 C 851.24 776.33 852.80 780.71 854.26 785.11 C 845.60 788.91 833.87 788.07 828.60 779.26 Z" />
</g>
<g id="#0fbfdffe">
<path fill="#0fbfdf" fill-opacity="0" d=" M 859.28 776.69 C 866.31 776.13 873.35 776.65 880.11 778.84 C 880.86 785.85 880.71 792.92 880.14 799.94 C 872.06 798.22 863.96 796.61 855.91 794.79 C 856.86 788.72 858.18 782.72 859.28 776.69 Z" />
</g>
<g id="#6f7f1fff">
<path fill="#6f7f1f" fill-opacity="0" d=" M 811.16 798.26 C 819.73 797.61 828.28 796.64 836.86 796.07 C 836.50 799.09 836.17 802.10 835.85 805.13 C 831.43 805.12 826.77 802.80 822.42 804.40 C 818.19 808.18 815.29 813.26 810.97 816.96 C 807.94 818.99 803.91 818.84 800.63 820.19 C 803.84 812.74 807.74 805.61 811.16 798.26 Z" />
</g>
</svg>
