<?xml version="1.0" encoding="UTF-8" ?>
<!DOCTYPE svg PUBLIC "-//W3C//DTD SVG 1.1//EN" "http://www.w3.org/Graphics/SVG/1.1/DTD/svg11.dtd">
<svg width="1920pt" height="1080pt" viewBox="0 0 1920 1080" version="1.1" xmlns="http://www.w3.org/2000/svg">
<g id="#af5fdfff">
<path fill="#af5fdf" fill-opacity="0" d=" M 748.60 156.54 C 751.19 153.33 755.55 151.39 759.70 152.26 C 764.03 153.97 765.09 159.05 767.13 162.75 C 772.35 163.21 777.01 165.67 781.24 168.65 C 786.40 173.79 793.05 168.03 798.04 165.71 C 805.11 166.76 810.38 172.29 817.44 173.56 C 819.18 176.29 820.90 179.04 822.10 182.06 C 822.15 185.32 819.60 188.26 820.44 191.54 C 822.27 196.03 826.64 198.76 829.00 202.91 C 830.36 205.68 830.19 208.85 830.65 211.85 C 828.75 213.10 826.91 214.47 825.26 216.04 C 816.84 211.14 807.93 207.15 798.69 204.06 C 785.25 199.35 770.32 205.86 757.14 199.75 C 754.20 199.32 752.35 197.17 750.73 194.99 C 750.65 192.99 750.66 190.99 750.66 189.00 C 743.77 187.35 736.85 188.95 730.30 191.11 C 731.08 188.37 731.74 185.61 732.45 182.86 C 734.64 172.37 742.73 165.01 748.60 156.54 M 776.32 188.18 C 775.24 189.54 777.59 191.01 778.47 189.61 C 779.55 188.25 777.18 186.80 776.32 188.18 Z" />
</g>
<g id="#ef9fdfff">
<path fill="#ef9fdf" fill-opacity="0" d=" M 838.87 162.91 C 845.68 160.85 853.77 156.99 860.78 160.19 C 865.58 165.60 868.99 172.16 873.55 177.80 C 875.23 179.98 876.02 183.01 878.53 184.44 C 886.16 184.99 893.62 182.78 900.78 180.38 C 899.25 187.07 896.58 193.38 892.77 199.09 C 889.72 199.86 886.76 200.93 883.80 201.96 C 877.87 204.89 872.50 195.94 866.75 199.64 C 860.55 203.11 855.55 208.34 850.56 213.33 C 846.69 211.70 843.12 209.08 838.88 208.54 C 835.85 208.60 833.19 210.37 830.65 211.85 C 830.19 208.85 830.36 205.68 829.00 202.91 C 826.64 198.76 822.27 196.03 820.44 191.54 C 819.60 188.26 822.15 185.32 822.10 182.06 C 820.90 179.04 819.18 176.29 817.44 173.56 C 825.48 171.92 831.64 166.32 838.87 162.91 Z" />
</g>
<g id="#8fdfdfff">
<path fill="#8fdfdf" fill-opacity="0" d=" M 900.78 180.38 C 903.57 175.21 910.65 173.17 916.17 174.77 C 920.27 175.29 921.37 180.11 923.48 182.85 C 927.88 188.33 935.19 190.94 938.89 197.06 C 941.72 200.71 943.61 205.83 948.22 207.65 C 954.60 209.00 960.01 204.45 965.89 202.89 C 970.94 201.76 976.98 200.46 979.34 195.23 C 982.99 188.67 989.09 184.17 995.04 179.86 C 996.90 185.09 1001.40 188.42 1004.90 192.49 C 1007.37 195.06 1006.07 198.82 1006.01 201.95 C 1004.92 201.67 1003.86 201.40 1002.80 201.14 C 1001.48 205.13 1000.16 209.15 998.28 212.92 C 996.97 215.08 995.61 217.24 993.81 219.02 C 990.95 216.74 989.07 213.36 985.86 211.52 C 981.61 213.07 975.41 216.67 976.95 222.07 C 977.40 224.43 978.16 226.72 978.84 229.02 C 970.23 230.87 961.62 232.64 953.20 235.20 C 953.03 234.62 952.70 233.46 952.53 232.88 C 953.97 229.97 955.47 227.06 956.22 223.89 C 952.39 222.40 948.30 223.24 944.38 223.67 C 941.09 224.04 938.20 221.59 934.94 221.88 C 930.64 223.57 927.02 226.98 922.34 227.72 C 918.76 228.24 915.25 228.74 911.74 229.56 C 908.22 223.96 907.60 217.10 904.20 211.47 C 900.44 207.29 896.18 203.58 892.77 199.09 C 896.58 193.38 899.25 187.07 900.78 180.38 Z" />
</g>
<g id="#6f5f9ffe">
<path fill="#6f5f9f" fill-opacity="0" d=" M 715.56 189.45 C 719.13 183.96 726.65 184.22 732.45 182.86 C 731.74 185.61 731.08 188.37 730.30 191.11 C 736.85 188.95 743.77 187.35 750.66 189.00 C 750.66 190.99 750.65 192.99 750.73 194.99 C 746.02 198.10 741.56 201.54 737.53 205.50 C 739.12 208.46 741.04 211.30 742.18 214.49 C 743.68 220.79 736.80 226.72 739.99 232.91 C 743.62 240.78 752.28 243.66 757.12 250.38 C 752.84 251.51 748.56 253.01 744.08 253.02 C 734.00 250.72 723.20 250.85 713.76 246.26 C 708.89 244.26 703.41 240.76 697.98 242.97 C 696.58 250.30 699.87 257.54 701.13 264.71 C 700.26 265.20 699.40 265.69 698.55 266.19 C 695.71 260.52 688.61 261.40 684.42 257.66 C 681.17 247.17 678.21 236.47 676.79 225.57 C 675.07 220.47 679.69 216.62 683.73 214.72 C 691.13 211.56 698.92 208.56 704.74 202.77 C 708.66 198.60 712.32 194.17 715.56 189.45 M 718.14 207.11 C 716.81 207.79 716.80 208.47 718.11 209.14 C 719.42 208.46 719.43 207.78 718.14 207.11 Z" />
</g>
<g id="#2f5fdfff">
<path fill="#2f5fdf" fill-opacity="0" d=" M 776.32 188.18 C 777.18 186.80 779.55 188.25 778.47 189.61 C 777.59 191.01 775.24 189.54 776.32 188.18 Z" />
</g>
<g id="#afdf9fff">
<path fill="#afdf9f" fill-opacity="0" d=" M 737.53 205.50 C 741.56 201.54 746.02 198.10 750.73 194.99 C 752.35 197.17 754.20 199.32 757.14 199.75 C 770.32 205.86 785.25 199.35 798.69 204.06 C 807.93 207.15 816.84 211.14 825.26 216.04 C 823.03 218.06 821.29 220.79 818.49 222.06 C 814.68 222.28 810.89 221.97 807.11 221.78 C 807.60 226.60 808.26 231.42 809.04 236.21 C 800.85 239.21 792.02 237.87 783.71 239.78 C 779.33 243.19 777.22 248.91 772.25 251.79 C 767.45 255.80 761.81 252.76 757.12 250.38 C 752.28 243.66 743.62 240.78 739.99 232.91 C 736.80 226.72 743.68 220.79 742.18 214.49 C 741.04 211.30 739.12 208.46 737.53 205.50 Z" />
</g>
<g id="#4fdf5ffe">
<path fill="#4fdf5f" fill-opacity="0" d=" M 866.75 199.64 C 872.50 195.94 877.87 204.89 883.80 201.96 C 886.76 200.93 889.72 199.86 892.77 199.09 C 896.18 203.58 900.44 207.29 904.20 211.47 C 907.60 217.10 908.22 223.96 911.74 229.56 C 913.64 233.28 916.81 236.60 917.46 240.86 C 916.77 242.46 915.60 243.78 914.50 245.10 C 909.53 247.44 904.61 249.88 899.94 252.77 C 896.81 251.53 893.71 249.91 890.31 249.61 C 885.90 252.69 883.68 258.51 878.42 260.40 C 872.34 262.63 865.78 262.77 859.44 263.62 C 858.52 258.26 856.56 253.14 855.78 247.76 C 855.56 243.11 858.94 239.38 861.14 235.58 C 852.37 230.34 842.33 228.04 832.43 226.07 C 837.39 224.30 842.78 223.77 847.50 221.32 C 850.22 219.69 850.24 216.12 850.56 213.33 C 855.55 208.34 860.55 203.11 866.75 199.64 Z" />
</g>
<g id="#af1f5fff">
<path fill="#af1f5f" fill-opacity="0" d=" M 1079.86 207.83 C 1085.22 207.20 1087.58 201.61 1092.03 199.44 C 1102.65 197.87 1111.19 205.40 1120.09 209.88 C 1112.93 212.09 1107.76 217.83 1101.34 221.38 C 1095.09 224.70 1092.56 232.21 1092.39 238.88 C 1094.05 244.25 1099.04 248.00 1100.28 253.60 C 1102.72 258.49 1098.70 262.34 1096.03 265.79 C 1087.99 265.58 1079.83 266.42 1072.33 269.43 C 1067.98 269.08 1062.65 267.01 1062.31 261.99 C 1063.12 257.04 1068.53 255.16 1072.28 252.79 C 1070.61 248.46 1067.95 244.60 1064.53 241.47 C 1060.50 237.96 1059.76 231.94 1055.40 228.74 C 1051.58 226.63 1046.87 226.94 1042.76 226.05 C 1047.45 222.98 1052.43 220.16 1055.92 215.63 C 1051.91 213.21 1047.89 210.85 1043.87 208.46 C 1051.60 209.77 1057.32 202.83 1064.89 203.09 C 1070.07 203.97 1074.58 207.37 1079.86 207.83 Z" />
</g>
<g id="#cfdfdfff">
<path fill="#cfdfdf" fill-opacity="0" d=" M 1141.00 200.11 C 1148.68 200.06 1156.43 199.98 1164.09 198.91 C 1165.57 201.32 1167.96 203.69 1167.54 206.76 C 1165.97 219.21 1163.18 231.49 1161.72 243.94 C 1160.98 248.21 1168.25 248.10 1167.98 252.30 C 1167.58 257.27 1168.77 262.11 1169.98 266.89 C 1172.55 266.43 1175.16 265.31 1177.82 265.75 C 1181.19 266.89 1184.07 269.25 1187.58 270.06 C 1191.69 270.73 1195.93 271.23 1200.12 271.58 C 1196.51 290.19 1192.53 308.73 1189.48 327.44 C 1188.84 337.38 1181.60 344.62 1176.55 352.60 C 1168.31 353.36 1160.10 354.48 1151.83 354.92 C 1154.12 338.40 1157.33 322.01 1159.35 305.45 C 1160.94 300.37 1157.38 296.18 1154.41 292.59 C 1149.35 286.85 1141.08 286.44 1134.62 283.25 C 1132.84 280.66 1134.05 277.05 1134.03 274.05 C 1127.13 269.79 1121.41 262.98 1112.89 262.11 C 1110.72 264.39 1108.88 267.53 1105.61 268.30 C 1102.26 268.30 1099.23 266.55 1096.03 265.79 C 1098.70 262.34 1102.72 258.49 1100.28 253.60 C 1099.04 248.00 1094.05 244.25 1092.39 238.88 C 1092.56 232.21 1095.09 224.70 1101.34 221.38 C 1107.76 217.83 1112.93 212.09 1120.09 209.88 C 1123.50 209.81 1126.95 211.01 1130.35 210.30 C 1135.18 208.41 1136.57 202.49 1141.00 200.11 Z" />
</g>
<g id="#6f9f9fff">
<path fill="#6f9f9f" fill-opacity="0" d=" M 1007.73 204.93 C 1014.46 203.08 1021.14 199.32 1028.34 200.41 C 1034.21 201.44 1038.81 205.61 1043.87 208.46 C 1047.89 210.85 1051.91 213.21 1055.92 215.63 C 1052.43 220.16 1047.45 222.98 1042.76 226.05 C 1046.87 226.94 1051.58 226.63 1055.40 228.74 C 1059.76 231.94 1060.50 237.96 1064.53 241.47 C 1067.95 244.60 1070.61 248.46 1072.28 252.79 C 1068.53 255.16 1063.12 257.04 1062.31 261.99 C 1062.65 267.01 1067.98 269.08 1072.33 269.43 C 1078.21 270.73 1084.48 271.35 1089.87 274.22 C 1093.29 275.92 1091.52 280.21 1091.47 283.12 C 1095.40 288.20 1099.44 293.20 1103.53 298.19 C 1096.53 302.90 1087.72 303.78 1080.93 308.82 C 1072.57 304.92 1073.90 293.28 1065.75 289.43 C 1066.06 293.39 1066.43 297.31 1066.85 301.27 C 1064.63 299.75 1062.30 298.34 1060.36 296.47 C 1057.83 294.02 1058.00 290.10 1055.87 287.40 C 1053.01 287.73 1050.31 288.76 1047.59 289.63 C 1045.90 286.12 1045.60 280.75 1040.95 279.91 C 1037.01 277.89 1035.52 283.21 1033.69 285.60 C 1030.72 285.18 1027.72 284.73 1024.79 284.30 C 1022.77 288.22 1021.32 292.38 1020.20 296.63 C 1016.19 294.96 1012.86 291.90 1008.71 290.60 C 1004.44 290.25 1000.60 292.80 996.74 294.23 C 992.35 288.59 988.91 282.08 987.42 275.06 C 987.60 270.80 986.94 265.66 990.78 262.79 C 996.07 256.31 1005.19 256.31 1012.41 253.42 C 1014.38 252.81 1015.15 250.69 1016.24 249.14 C 1018.06 245.77 1020.49 242.70 1021.85 239.09 C 1022.64 235.01 1022.41 229.95 1019.15 226.90 C 1016.90 224.88 1014.01 223.84 1011.43 222.35 C 1006.62 219.81 1002.90 215.73 998.28 212.92 C 1000.16 209.15 1001.48 205.13 1002.80 201.14 C 1003.86 201.40 1004.92 201.67 1006.01 201.95 C 1006.57 202.94 1007.14 203.94 1007.73 204.93 Z" />
</g>
<g id="#309fdfff">
<path fill="#309fdf" fill-opacity="0" d=" M 718.14 207.11 C 719.43 207.78 719.42 208.46 718.11 209.14 C 716.80 208.47 716.81 207.79 718.14 207.11 Z" />
</g>
<g id="#af9f9fff">
<path fill="#af9f9f" fill-opacity="0" d=" M 830.65 211.85 C 833.19 210.37 835.85 208.60 838.88 208.54 C 843.12 209.08 846.69 211.70 850.56 213.33 C 850.24 216.12 850.22 219.69 847.50 221.32 C 842.78 223.77 837.39 224.30 832.43 226.07 C 842.33 228.04 852.37 230.34 861.14 235.58 C 858.94 239.38 855.56 243.11 855.78 247.76 C 856.56 253.14 858.52 258.26 859.44 263.62 C 853.43 264.46 845.77 263.88 843.16 257.38 C 841.76 257.31 838.97 257.16 837.57 257.09 C 836.50 260.46 836.08 264.62 832.85 266.73 C 828.74 269.56 824.07 271.45 819.57 273.55 C 812.27 276.23 805.14 279.32 798.30 283.01 C 797.48 280.44 796.80 277.83 796.08 275.23 C 792.06 274.35 787.31 274.72 783.85 272.12 C 781.47 269.29 781.06 265.40 779.64 262.08 C 778.22 258.01 775.11 254.89 772.25 251.79 C 777.22 248.91 779.33 243.19 783.71 239.78 C 792.02 237.87 800.85 239.21 809.04 236.21 C 808.26 231.42 807.60 226.60 807.11 221.78 C 810.89 221.97 814.68 222.28 818.49 222.06 C 821.29 220.79 823.03 218.06 825.26 216.04 C 826.91 214.47 828.75 213.10 830.65 211.85 Z" />
</g>
<g id="#6f5f1fff">
<path fill="#6f5f1f" fill-opacity="0" d=" M 976.95 222.07 C 975.41 216.67 981.61 213.07 985.86 211.52 C 989.07 213.36 990.95 216.74 993.81 219.02 C 995.61 217.24 996.97 215.08 998.28 212.92 C 1002.90 215.73 1006.62 219.81 1011.43 222.35 C 1014.01 223.84 1016.90 224.88 1019.15 226.90 C 1022.41 229.95 1022.64 235.01 1021.85 239.09 C 1020.49 242.70 1018.06 245.77 1016.24 249.14 C 1015.15 250.69 1014.38 252.81 1012.41 253.42 C 1005.19 256.31 996.07 256.31 990.78 262.79 C 986.94 265.66 987.60 270.80 987.42 275.06 C 981.58 278.14 974.78 280.07 970.48 285.38 C 968.21 287.77 966.17 291.06 962.62 291.54 C 954.33 292.24 948.06 285.76 940.43 283.95 C 934.95 283.37 929.46 283.14 923.99 283.76 C 917.00 284.81 909.82 285.87 902.84 284.22 C 902.10 278.08 899.31 272.57 896.39 267.24 C 903.18 260.49 908.23 252.30 914.50 245.10 C 915.60 243.78 916.77 242.46 917.46 240.86 C 916.81 236.60 913.64 233.28 911.74 229.56 C 915.25 228.74 918.76 228.24 922.34 227.72 C 927.02 226.98 930.64 223.57 934.94 221.88 C 938.20 221.59 941.09 224.04 944.38 223.67 C 948.30 223.24 952.39 222.40 956.22 223.89 C 955.47 227.06 953.97 229.97 952.53 232.88 C 952.70 233.46 953.03 234.62 953.20 235.20 C 961.62 232.64 970.23 230.87 978.84 229.02 C 978.16 226.72 977.40 224.43 976.95 222.07 Z" />
</g>
<g id="#2f5f9fff">
<path fill="#2f5f9f" fill-opacity="0" d=" M 697.98 242.97 C 703.41 240.76 708.89 244.26 713.76 246.26 C 723.20 250.85 734.00 250.72 744.08 253.02 C 745.93 256.74 748.34 260.51 748.35 264.79 C 744.91 270.96 737.17 273.67 734.15 280.13 C 734.46 285.41 740.36 287.54 744.19 290.03 C 742.25 298.22 733.09 300.44 728.60 306.69 C 726.59 310.01 730.47 312.70 732.69 314.61 C 734.36 315.86 736.10 317.03 737.84 318.22 C 737.93 319.61 738.03 321.00 738.15 322.40 C 735.05 323.23 732.24 325.30 729.00 325.39 C 724.78 324.52 721.34 321.35 717.01 320.87 C 712.23 320.89 707.53 321.97 702.75 321.94 C 699.94 319.78 696.44 318.63 693.80 316.28 C 692.01 313.24 692.61 308.95 689.64 306.58 C 685.54 303.33 681.47 299.85 679.07 295.10 C 679.54 289.65 682.82 284.94 686.69 281.25 C 687.89 278.35 687.37 274.28 689.96 271.99 C 692.53 269.66 695.59 267.97 698.55 266.19 C 699.40 265.69 700.26 265.20 701.13 264.71 C 699.87 257.54 696.58 250.30 697.98 242.97 Z" />
</g>
<g id="#2f1fdfff">
<path fill="#2f1fdf" fill-opacity="0" d=" M 899.94 252.77 C 904.61 249.88 909.53 247.44 914.50 245.10 C 908.23 252.30 903.18 260.49 896.39 267.24 C 899.31 272.57 902.10 278.08 902.84 284.22 C 900.33 292.81 897.07 301.44 891.62 308.61 C 884.56 313.59 874.97 311.88 866.91 313.13 C 868.15 309.53 870.47 306.16 870.56 302.26 C 870.23 298.99 868.30 296.07 866.56 293.40 C 863.28 292.14 859.77 293.12 856.44 293.56 C 855.51 291.19 854.58 288.83 853.65 286.47 C 850.68 288.10 847.85 289.95 845.03 291.81 C 842.79 288.70 840.59 285.60 838.40 282.48 C 834.98 282.60 831.43 283.65 828.11 282.71 C 824.45 280.56 822.22 276.74 819.57 273.55 C 824.07 271.45 828.74 269.56 832.85 266.73 C 836.08 264.62 836.50 260.46 837.57 257.09 C 838.97 257.16 841.76 257.31 843.16 257.38 C 845.77 263.88 853.43 264.46 859.44 263.62 C 865.78 262.77 872.34 262.63 878.42 260.40 C 883.68 258.51 885.90 252.69 890.31 249.61 C 893.71 249.91 896.81 251.53 899.94 252.77 Z" />
</g>
<g id="#2f5f1fff">
<path fill="#2f5f1f" fill-opacity="0" d=" M 744.08 253.02 C 748.56 253.01 752.84 251.51 757.12 250.38 C 761.81 252.76 767.45 255.80 772.25 251.79 C 775.11 254.89 778.22 258.01 779.64 262.08 C 781.06 265.40 781.47 269.29 783.85 272.12 C 787.31 274.72 792.06 274.35 796.08 275.23 C 796.80 277.83 797.48 280.44 798.30 283.01 C 799.40 287.20 802.16 291.03 802.24 295.43 C 800.08 300.41 793.98 302.19 790.77 306.38 C 790.66 311.24 791.98 316.01 792.18 320.87 C 786.96 321.22 782.02 319.22 776.91 318.62 C 772.87 318.72 769.81 321.89 766.60 323.96 C 757.59 320.26 748.92 315.77 740.60 310.75 C 737.66 310.56 735.19 313.24 732.69 314.61 C 730.47 312.70 726.59 310.01 728.60 306.69 C 733.09 300.44 742.25 298.22 744.19 290.03 C 740.36 287.54 734.46 285.41 734.15 280.13 C 737.17 273.67 744.91 270.96 748.35 264.79 C 748.34 260.51 745.93 256.74 744.08 253.02 M 764.40 287.15 C 763.96 288.54 764.44 289.03 765.85 288.60 C 766.28 287.19 765.79 286.71 764.40 287.15 Z" />
</g>
<g id="#efdf1fff">
<path fill="#efdf1f" fill-opacity="0" d=" M 1112.89 262.11 C 1121.41 262.98 1127.13 269.79 1134.03 274.05 C 1134.05 277.05 1132.84 280.66 1134.62 283.25 C 1141.08 286.44 1149.35 286.85 1154.41 292.59 C 1157.38 296.18 1160.94 300.37 1159.35 305.45 C 1157.33 322.01 1154.12 338.40 1151.83 354.92 C 1150.58 360.32 1151.00 366.69 1147.21 371.17 C 1144.53 375.04 1140.05 377.18 1135.59 378.22 C 1132.84 378.22 1130.38 376.65 1127.83 375.84 C 1129.22 363.65 1134.30 350.97 1130.14 338.93 C 1128.13 331.89 1120.03 332.08 1114.24 330.82 C 1114.41 328.95 1114.58 327.08 1114.77 325.21 C 1103.23 320.35 1091.64 315.33 1080.93 308.82 C 1087.72 303.78 1096.53 302.90 1103.53 298.19 C 1099.44 293.20 1095.40 288.20 1091.47 283.12 C 1091.52 280.21 1093.29 275.92 1089.87 274.22 C 1084.48 271.35 1078.21 270.73 1072.33 269.43 C 1079.83 266.42 1087.99 265.58 1096.03 265.79 C 1099.23 266.55 1102.26 268.30 1105.61 268.30 C 1108.88 267.53 1110.72 264.39 1112.89 262.11 Z" />
</g>
<g id="#2f9f1fff">
<path fill="#2f9f1f" fill-opacity="0" d=" M 798.30 283.01 C 805.14 279.32 812.27 276.23 819.57 273.55 C 822.22 276.74 824.45 280.56 828.11 282.71 C 831.43 283.65 834.98 282.60 838.40 282.48 C 840.59 285.60 842.79 288.70 845.03 291.81 C 847.85 289.95 850.68 288.10 853.65 286.47 C 854.58 288.83 855.51 291.19 856.44 293.56 C 859.77 293.12 863.28 292.14 866.56 293.40 C 868.30 296.07 870.23 298.99 870.56 302.26 C 870.47 306.16 868.15 309.53 866.91 313.13 C 866.17 316.26 865.61 319.43 864.95 322.58 C 857.36 324.10 850.56 327.77 843.99 331.67 C 837.13 332.80 830.42 335.39 823.42 335.29 C 816.58 334.19 812.12 327.88 805.67 325.77 C 801.33 324.70 796.89 324.39 792.46 324.02 C 792.36 322.97 792.27 321.91 792.18 320.87 C 791.98 316.01 790.66 311.24 790.77 306.38 C 793.98 302.19 800.08 300.41 802.24 295.43 C 802.16 291.03 799.40 287.20 798.30 283.01 M 826.13 298.95 C 825.93 299.23 825.52 299.80 825.31 300.08 C 826.15 303.22 829.47 298.42 826.13 298.95 Z" />
</g>
<g id="#af9fdfff">
<path fill="#af9fdf" fill-opacity="0" d=" M 970.48 285.38 C 974.78 280.07 981.58 278.14 987.42 275.06 C 988.91 282.08 992.35 288.59 996.74 294.23 C 1001.96 314.32 998.69 335.18 998.62 355.60 C 998.51 362.06 998.28 368.53 998.14 375.00 C 994.65 377.07 991.36 379.45 987.94 381.60 C 986.95 381.00 985.99 380.39 985.05 379.77 C 984.95 372.22 986.57 364.54 985.38 357.03 C 981.61 349.48 972.53 345.72 970.84 336.86 C 967.58 336.12 964.50 334.61 961.15 334.56 C 951.24 336.94 948.21 350.93 937.26 350.88 C 931.14 350.49 925.72 353.59 919.88 354.73 C 915.88 355.19 912.73 352.11 909.08 351.10 C 907.30 350.98 905.62 351.85 903.95 352.30 C 906.45 346.02 912.95 343.03 916.81 337.85 C 919.40 329.77 911.97 319.97 920.37 313.41 C 926.41 309.10 932.59 316.73 939.16 314.85 C 937.03 308.55 932.50 303.58 928.25 298.64 C 924.66 294.52 924.40 288.92 923.99 283.76 C 929.46 283.14 934.95 283.37 940.43 283.95 C 948.06 285.76 954.33 292.24 962.62 291.54 C 966.17 291.06 968.21 287.77 970.48 285.38 Z" />
</g>
<g id="#6f9f5fff">
<path fill="#6f9f5f" fill-opacity="0" d=" M 1033.69 285.60 C 1035.52 283.21 1037.01 277.89 1040.95 279.91 C 1045.60 280.75 1045.90 286.12 1047.59 289.63 C 1050.31 288.76 1053.01 287.73 1055.87 287.40 C 1058.00 290.10 1057.83 294.02 1060.36 296.47 C 1062.30 298.34 1064.63 299.75 1066.85 301.27 C 1066.43 297.31 1066.06 293.39 1065.75 289.43 C 1073.90 293.28 1072.57 304.92 1080.93 308.82 C 1091.64 315.33 1103.23 320.35 1114.77 325.21 C 1114.58 327.08 1114.41 328.95 1114.24 330.82 C 1120.03 332.08 1128.13 331.89 1130.14 338.93 C 1134.30 350.97 1129.22 363.65 1127.83 375.84 C 1126.49 383.18 1125.78 390.62 1125.00 398.04 C 1124.44 402.13 1123.63 406.52 1120.51 409.48 C 1116.96 413.07 1113.30 417.73 1107.89 418.15 C 1105.18 416.94 1102.44 415.79 1099.59 415.01 C 1098.47 413.26 1097.36 411.52 1096.23 409.80 C 1093.37 409.81 1090.04 410.41 1087.68 408.39 C 1083.88 404.72 1081.79 399.65 1078.17 395.84 C 1075.54 393.58 1072.83 391.54 1070.11 389.45 C 1067.43 392.27 1064.20 394.95 1063.11 398.86 C 1061.19 406.22 1058.93 413.91 1053.95 419.84 C 1051.76 422.45 1048.26 423.05 1045.07 423.37 C 1046.11 408.90 1047.95 394.49 1048.79 380.00 C 1031.83 378.85 1015.30 370.82 998.14 375.00 C 998.28 368.53 998.51 362.06 998.62 355.60 C 998.69 335.18 1001.96 314.32 996.74 294.23 C 1000.60 292.80 1004.44 290.25 1008.71 290.60 C 1012.86 291.90 1016.19 294.96 1020.20 296.63 C 1021.32 292.38 1022.77 288.22 1024.79 284.30 C 1027.72 284.73 1030.72 285.18 1033.69 285.60 Z" />
</g>
<g id="#2f9f9fff">
<path fill="#2f9f9f" fill-opacity="0" d=" M 902.84 284.22 C 909.82 285.87 917.00 284.81 923.99 283.76 C 924.40 288.92 924.66 294.52 928.25 298.64 C 932.50 303.58 937.03 308.55 939.16 314.85 C 932.59 316.73 926.41 309.10 920.37 313.41 C 911.97 319.97 919.40 329.77 916.81 337.85 C 912.95 343.03 906.45 346.02 903.95 352.30 C 903.02 357.10 902.75 362.10 900.78 366.64 C 897.29 364.03 893.94 360.94 889.83 359.43 C 883.71 359.61 879.88 365.31 874.67 367.73 C 869.09 370.73 862.27 369.86 856.77 367.12 C 859.75 364.28 862.95 361.66 865.52 358.43 C 861.12 359.51 856.89 361.15 852.68 362.79 C 849.72 355.94 844.42 350.53 840.89 344.06 C 838.34 339.72 841.67 335.23 843.99 331.67 C 850.56 327.77 857.36 324.10 864.95 322.58 C 865.61 319.43 866.17 316.26 866.91 313.13 C 874.97 311.88 884.56 313.59 891.62 308.61 C 897.07 301.44 900.33 292.81 902.84 284.22 M 863.13 348.95 C 862.93 349.23 862.52 349.80 862.31 350.08 C 863.15 353.22 866.47 348.42 863.13 348.95 Z" />
</g>
<g id="#efa09fff">
<path fill="#efa09f" fill-opacity="0" d=" M 764.40 287.15 C 765.79 286.71 766.28 287.19 765.85 288.60 C 764.44 289.03 763.96 288.54 764.40 287.15 Z" />
</g>
<g id="#cf5f5fff">
<path fill="#cf5f5f" fill-opacity="0" d=" M 679.07 295.10 C 681.47 299.85 685.54 303.33 689.64 306.58 C 692.61 308.95 692.01 313.24 693.80 316.28 C 696.44 318.63 699.94 319.78 702.75 321.94 C 698.83 329.10 696.60 336.95 694.11 344.68 C 692.81 347.54 692.37 351.37 689.36 352.97 C 681.69 352.49 674.49 346.85 666.66 349.78 C 660.95 352.00 654.90 350.51 649.03 351.03 C 645.40 357.56 645.60 365.78 640.72 371.76 C 638.25 374.83 636.31 378.62 637.37 382.63 C 637.54 384.12 637.70 385.62 637.85 387.13 C 631.02 378.01 621.37 370.45 610.29 367.43 C 606.44 356.47 603.16 345.32 600.03 334.13 C 605.24 325.52 616.49 326.03 624.97 322.85 C 630.34 320.60 636.55 322.66 641.70 319.75 C 647.29 317.24 650.26 311.64 654.49 307.54 C 661.83 301.83 671.80 300.92 679.07 295.10 Z" />
</g>
<g id="#af201fff">
<path fill="#af201f" fill-opacity="0" d=" M 826.13 298.95 C 829.47 298.42 826.15 303.22 825.31 300.08 C 825.52 299.80 825.93 299.23 826.13 298.95 Z" />
</g>
<g id="#6f9f1fff">
<path fill="#6f9f1f" fill-opacity="0" d=" M 732.69 314.61 C 735.19 313.24 737.66 310.56 740.60 310.75 C 748.92 315.77 757.59 320.26 766.60 323.96 C 769.67 328.48 771.30 334.90 776.75 337.27 C 778.53 338.15 780.38 338.90 782.23 339.68 C 781.57 342.06 781.27 344.70 779.68 346.68 C 776.40 348.84 772.15 348.11 768.69 349.81 C 765.61 351.52 763.12 354.10 761.14 356.97 C 760.60 358.59 760.14 360.23 759.65 361.86 C 753.95 363.64 746.90 363.74 742.97 368.95 C 740.78 368.08 738.01 367.71 736.63 365.60 C 735.08 362.48 734.51 359.02 733.49 355.73 C 725.48 357.77 721.20 365.09 718.15 372.19 C 711.69 361.57 699.78 355.94 694.11 344.68 C 696.60 336.95 698.83 329.10 702.75 321.94 C 707.53 321.97 712.23 320.89 717.01 320.87 C 721.34 321.35 724.78 324.52 729.00 325.39 C 732.24 325.30 735.05 323.23 738.15 322.40 C 738.03 321.00 737.93 319.61 737.84 318.22 C 736.10 317.03 734.36 315.86 732.69 314.61 Z" />
</g>
<g id="#efdf9fff">
<path fill="#efdf9f" fill-opacity="0" d=" M 766.60 323.96 C 769.81 321.89 772.87 318.72 776.91 318.62 C 782.02 319.22 786.96 321.22 792.18 320.87 C 792.27 321.91 792.36 322.97 792.46 324.02 C 796.89 324.39 801.33 324.70 805.67 325.77 C 812.12 327.88 816.58 334.19 823.42 335.29 C 830.42 335.39 837.13 332.80 843.99 331.67 C 841.67 335.23 838.34 339.72 840.89 344.06 C 844.42 350.53 849.72 355.94 852.68 362.79 C 849.86 364.92 846.89 367.46 842.98 366.82 C 837.01 366.23 832.44 361.27 826.52 360.56 C 820.69 360.31 814.76 358.89 808.96 360.05 C 805.49 360.64 804.69 364.62 803.34 367.28 C 806.74 367.19 810.19 366.63 813.60 367.13 C 816.52 368.05 818.35 370.79 820.52 372.80 C 817.21 373.96 813.69 374.08 810.27 373.42 C 809.68 373.90 809.08 374.37 808.50 374.85 C 804.09 378.47 798.83 380.81 793.77 383.33 C 793.50 378.71 792.40 374.07 789.88 370.13 C 785.82 367.01 781.05 365.16 776.10 364.10 C 770.62 362.91 765.80 359.95 761.14 356.97 C 763.12 354.10 765.61 351.52 768.69 349.81 C 772.15 348.11 776.40 348.84 779.68 346.68 C 781.27 344.70 781.57 342.06 782.23 339.68 C 780.38 338.90 778.53 338.15 776.75 337.27 C 771.30 334.90 769.67 328.48 766.60 323.96 Z" />
</g>
<g id="#afdf1fff">
<path fill="#afdf1f" fill-opacity="0" d=" M 937.26 350.88 C 948.21 350.93 951.24 336.94 961.15 334.56 C 964.50 334.61 967.58 336.12 970.84 336.86 C 972.53 345.72 981.61 349.48 985.38 357.03 C 986.57 364.54 984.95 372.22 985.05 379.77 C 981.78 377.57 978.75 375.04 975.69 372.57 C 973.08 375.73 970.59 378.99 968.17 382.30 C 969.90 385.89 971.67 389.48 973.21 393.17 C 969.06 394.01 964.98 394.84 960.84 395.65 C 958.73 391.30 956.96 386.67 953.89 382.88 C 952.93 381.80 951.76 380.56 950.18 381.02 C 946.15 384.30 945.95 390.01 943.00 394.04 C 940.43 398.02 935.28 398.78 932.03 401.96 C 928.07 407.05 925.23 413.01 920.65 417.60 C 916.89 421.53 911.31 422.62 906.17 423.53 C 901.50 423.76 896.85 424.11 892.23 424.82 C 889.66 417.60 885.82 410.85 880.48 405.31 C 887.71 401.80 893.18 395.68 896.79 388.61 C 900.30 387.51 904.27 387.75 907.34 385.37 C 903.44 382.21 899.51 379.09 895.72 375.81 C 898.37 373.70 901.05 371.60 903.69 369.46 C 902.72 368.50 901.78 367.54 900.78 366.64 C 902.75 362.10 903.02 357.10 903.95 352.30 C 905.62 351.85 907.30 350.98 909.08 351.10 C 912.73 352.11 915.88 355.19 919.88 354.73 C 925.72 353.59 931.14 350.49 937.26 350.88 Z" />
</g>
<g id="#ef9f5fff">
<path fill="#ef9f5f" fill-opacity="0" d=" M 694.11 344.68 C 699.78 355.94 711.69 361.57 718.15 372.19 C 717.28 373.95 716.50 375.76 715.72 377.56 C 714.02 376.01 712.30 374.48 710.53 373.02 C 710.52 375.24 710.57 377.46 710.62 379.67 C 708.91 380.34 705.49 381.66 703.77 382.33 C 702.75 385.09 701.35 387.70 699.75 390.18 C 691.90 389.55 684.37 391.29 677.23 394.36 C 672.05 389.57 665.34 387.11 659.17 383.91 C 655.51 386.19 651.90 388.54 648.29 390.88 C 645.89 386.68 642.75 382.48 637.37 382.63 C 636.31 378.62 638.25 374.83 640.72 371.76 C 645.60 365.78 645.40 357.56 649.03 351.03 C 654.90 350.51 660.95 352.00 666.66 349.78 C 674.49 346.85 681.69 352.49 689.36 352.97 C 692.37 351.37 692.81 347.54 694.11 344.68 Z" />
</g>
<g id="#8f3f9fff">
<path fill="#8f3f9f" fill-opacity="0" d=" M 863.13 348.95 C 866.47 348.42 863.15 353.22 862.31 350.08 C 862.52 349.80 862.93 349.23 863.13 348.95 Z" />
</g>
<g id="#ef1f1fff">
<path fill="#ef1f1f" fill-opacity="0" d=" M 718.15 372.19 C 721.20 365.09 725.48 357.77 733.49 355.73 C 734.51 359.02 735.08 362.48 736.63 365.60 C 738.01 367.71 740.78 368.08 742.97 368.95 C 740.72 371.61 738.83 375.20 735.15 376.01 C 731.44 376.49 727.81 375.12 724.20 374.50 C 730.31 384.13 739.01 391.82 744.88 401.64 C 741.95 403.01 738.74 404.20 735.88 405.58 C 738.31 408.97 741.40 411.81 743.93 415.12 C 746.40 418.17 745.37 422.33 745.47 425.91 C 746.57 425.86 747.68 425.82 748.80 425.77 C 748.31 427.65 747.84 429.54 747.35 431.42 C 743.48 431.96 739.59 432.51 735.74 433.00 C 734.52 429.79 733.30 426.67 731.94 423.54 C 723.93 427.03 715.67 432.22 713.36 441.23 C 708.82 443.80 703.60 441.85 701.14 437.42 C 699.83 435.60 698.58 433.75 697.30 431.92 C 699.51 428.59 701.57 425.17 703.70 421.79 C 701.59 411.36 701.42 400.68 699.75 390.18 C 701.35 387.70 702.75 385.09 703.77 382.33 C 705.49 381.66 708.91 380.34 710.62 379.67 C 710.57 377.46 710.52 375.24 710.53 373.02 C 712.30 374.48 714.02 376.01 715.72 377.56 C 716.50 375.76 717.28 373.95 718.15 372.19 Z" />
</g>
<g id="#2f1f9fff">
<path fill="#2f1f9f" fill-opacity="0" d=" M 761.14 356.97 C 765.80 359.95 770.62 362.91 776.10 364.10 C 781.05 365.16 785.82 367.01 789.88 370.13 C 792.40 374.07 793.50 378.71 793.77 383.33 C 789.88 389.36 784.94 395.37 785.14 402.99 C 784.70 410.69 786.07 419.23 781.90 426.13 C 777.29 430.48 770.24 430.58 765.05 434.15 C 761.22 430.85 758.11 426.85 755.00 422.90 C 752.91 423.80 750.82 424.73 748.80 425.77 C 747.68 425.82 746.57 425.86 745.47 425.91 C 745.37 422.33 746.40 418.17 743.93 415.12 C 741.40 411.81 738.31 408.97 735.88 405.58 C 738.74 404.20 741.95 403.01 744.88 401.64 C 739.01 391.82 730.31 384.13 724.20 374.50 C 727.81 375.12 731.44 376.49 735.15 376.01 C 738.83 375.20 740.72 371.61 742.97 368.95 C 746.90 363.74 753.95 363.64 759.65 361.86 C 760.14 360.23 760.60 358.59 761.14 356.97 Z" />
</g>
<g id="#afdf5fff">
<path fill="#afdf5f" fill-opacity="0" d=" M 852.68 362.79 C 856.89 361.15 861.12 359.51 865.52 358.43 C 862.95 361.66 859.75 364.28 856.77 367.12 C 862.27 369.86 869.09 370.73 874.67 367.73 C 879.88 365.31 883.71 359.61 889.83 359.43 C 893.94 360.94 897.29 364.03 900.78 366.64 C 901.78 367.54 902.72 368.50 903.69 369.46 C 901.05 371.60 898.37 373.70 895.72 375.81 C 899.51 379.09 903.44 382.21 907.34 385.37 C 904.27 387.75 900.30 387.51 896.79 388.61 C 893.18 395.68 887.71 401.80 880.48 405.31 C 877.40 407.18 874.82 409.75 871.73 411.60 C 866.61 413.95 860.41 414.78 856.26 418.89 C 853.68 424.27 852.71 430.31 850.65 435.91 C 846.85 434.04 843.16 431.95 839.58 429.75 C 836.57 424.95 834.62 419.60 832.31 414.46 C 830.12 409.62 825.87 406.15 823.42 401.49 C 821.24 397.61 829.18 393.22 824.89 390.07 C 819.70 389.17 815.18 393.64 810.36 394.68 C 807.82 388.22 811.33 381.29 808.50 374.85 C 809.08 374.37 809.68 373.90 810.27 373.42 C 813.69 374.08 817.21 373.96 820.52 372.80 C 818.35 370.79 816.52 368.05 813.60 367.13 C 810.19 366.63 806.74 367.19 803.34 367.28 C 804.69 364.62 805.49 360.64 808.96 360.05 C 814.76 358.89 820.69 360.31 826.52 360.56 C 832.44 361.27 837.01 366.23 842.98 366.82 C 846.89 367.46 849.86 364.92 852.68 362.79 Z" />
</g>
<g id="#2fdf5fff">
<path fill="#2fdf5f" fill-opacity="0" d=" M 1208.45 368.50 C 1210.56 365.90 1212.46 363.12 1214.59 360.51 C 1215.86 363.96 1217.55 367.88 1221.30 369.22 C 1226.28 370.47 1231.18 368.29 1235.67 366.34 C 1235.09 370.53 1233.68 374.62 1233.58 378.87 C 1234.51 382.29 1238.21 384.90 1237.44 388.74 C 1233.14 407.20 1228.28 425.55 1224.00 444.03 C 1226.35 444.86 1228.73 445.66 1231.12 446.45 C 1230.39 453.77 1228.18 460.89 1228.37 468.31 C 1226.25 480.84 1222.30 492.96 1219.28 505.29 C 1217.26 513.02 1215.80 520.92 1213.00 528.43 C 1206.55 526.44 1200.28 522.69 1193.27 523.93 C 1187.36 525.48 1179.83 520.86 1175.03 526.02 C 1168.47 534.23 1170.13 547.59 1160.74 553.73 C 1157.66 556.34 1153.69 557.28 1149.89 558.23 C 1150.61 549.75 1153.50 541.55 1153.55 533.00 C 1153.57 525.14 1153.79 517.28 1153.27 509.44 C 1147.25 510.07 1141.22 510.44 1135.46 512.30 C 1127.68 509.70 1120.27 505.28 1114.98 498.95 C 1112.96 496.96 1113.95 494.05 1115.07 491.89 C 1123.15 476.94 1137.92 466.52 1153.71 460.93 C 1154.75 452.69 1158.50 445.29 1162.15 437.95 C 1157.11 434.56 1149.95 431.91 1149.44 424.83 C 1149.36 420.18 1154.21 417.97 1157.22 415.29 C 1155.34 412.48 1153.43 409.66 1151.49 406.92 C 1155.48 405.37 1159.39 401.49 1163.92 403.11 C 1167.41 403.69 1171.07 405.66 1174.59 404.57 C 1178.90 402.04 1181.96 397.95 1185.56 394.57 C 1189.09 390.81 1193.54 387.73 1195.64 382.84 C 1197.38 379.73 1198.12 376.11 1200.19 373.17 C 1202.43 370.86 1206.06 370.64 1208.45 368.50 Z" />
</g>
<g id="#0fdfdffe">
<path fill="#0fdfdf" fill-opacity="0" d=" M 968.17 382.30 C 970.59 378.99 973.08 375.73 975.69 372.57 C 978.75 375.04 981.78 377.57 985.05 379.77 C 985.99 380.39 986.95 381.00 987.94 381.60 C 993.25 384.73 998.81 387.44 1004.46 389.92 C 1001.45 394.00 998.58 398.52 994.01 401.00 C 991.25 403.12 987.20 404.47 985.77 407.89 C 985.68 413.42 988.75 418.41 989.91 423.74 C 987.72 425.49 985.18 426.98 983.63 429.37 C 982.90 433.90 984.87 438.36 985.69 442.78 C 981.68 444.76 977.71 446.81 973.82 449.01 C 975.16 452.41 977.69 455.79 976.95 459.64 C 974.78 460.83 972.36 461.40 969.97 461.89 C 959.38 463.36 948.64 462.57 937.99 462.54 C 927.01 463.90 919.13 454.69 912.55 447.31 C 906.67 440.88 907.22 431.59 906.17 423.53 C 911.31 422.62 916.89 421.53 920.65 417.60 C 925.23 413.01 928.07 407.05 932.03 401.96 C 935.28 398.78 940.43 398.02 943.00 394.04 C 945.95 390.01 946.15 384.30 950.18 381.02 C 951.76 380.56 952.93 381.80 953.89 382.88 C 956.96 386.67 958.73 391.30 960.84 395.65 C 964.98 394.84 969.06 394.01 973.21 393.17 C 971.67 389.48 969.90 385.89 968.17 382.30 Z" />
</g>
<g id="#ef9f1ffe">
<path fill="#ef9f1f" fill-opacity="0" d=" M 793.77 383.33 C 798.83 380.81 804.09 378.47 808.50 374.85 C 811.33 381.29 807.82 388.22 810.36 394.68 C 815.18 393.64 819.70 389.17 824.89 390.07 C 829.18 393.22 821.24 397.61 823.42 401.49 C 825.87 406.15 830.12 409.62 832.31 414.46 C 834.62 419.60 836.57 424.95 839.58 429.75 C 834.46 432.56 829.19 435.16 824.36 438.46 C 819.39 441.74 819.69 448.60 819.00 453.77 C 815.49 454.24 812.01 454.83 808.52 455.31 C 805.21 455.88 801.67 455.85 798.69 457.47 C 797.32 459.91 796.64 462.63 795.76 465.29 C 790.70 461.27 786.25 456.43 780.43 453.49 C 772.28 449.78 772.20 439.05 765.05 434.15 C 770.24 430.58 777.29 430.48 781.90 426.13 C 786.07 419.23 784.70 410.69 785.14 402.99 C 784.94 395.37 789.88 389.36 793.77 383.33 Z" />
</g>
<g id="#2f5f5fff">
<path fill="#2f5f5f" fill-opacity="0" d=" M 637.37 382.63 C 642.75 382.48 645.89 386.68 648.29 390.88 C 651.90 388.54 655.51 386.19 659.17 383.91 C 665.34 387.11 672.05 389.57 677.23 394.36 C 684.37 391.29 691.90 389.55 699.75 390.18 C 701.42 400.68 701.59 411.36 703.70 421.79 C 701.57 425.17 699.51 428.59 697.30 431.92 C 698.58 433.75 699.83 435.60 701.14 437.42 C 696.96 440.45 691.98 442.06 687.68 444.87 C 683.51 448.71 682.19 454.55 678.94 459.09 C 675.80 453.82 672.66 448.58 669.60 443.27 C 663.75 446.35 658.30 450.11 652.99 454.05 C 650.86 455.93 647.92 454.61 645.53 454.12 C 641.41 451.96 636.76 450.17 633.88 446.33 C 631.98 443.53 630.55 440.50 628.93 437.57 C 621.44 440.19 613.88 442.69 606.70 446.09 C 607.78 439.40 610.89 433.30 612.51 426.75 C 612.71 426.79 613.11 426.88 613.31 426.93 C 614.95 427.30 616.59 427.66 618.25 428.01 C 617.83 426.61 617.43 425.21 617.03 423.82 C 616.02 424.64 615.02 425.48 614.04 426.31 L 613.26 426.95 C 614.94 421.04 617.23 415.06 621.54 410.55 C 626.79 405.13 632.20 399.75 636.43 393.46 C 637.75 391.63 638.17 389.33 637.85 387.13 C 637.70 385.62 637.54 384.12 637.37 382.63 M 641.20 409.24 C 639.52 408.69 638.49 411.42 640.30 411.92 C 641.98 412.57 642.99 409.68 641.20 409.24 Z" />
</g>
<g id="#2f1f1fff">
<path fill="#2f1f1f" fill-opacity="0" d=" M 994.01 401.00 C 998.58 398.52 1001.45 394.00 1004.46 389.92 C 1012.53 393.95 1018.97 400.51 1025.76 406.31 C 1030.73 409.99 1031.89 416.58 1036.42 420.62 C 1040.08 423.97 1043.31 427.74 1046.77 431.30 C 1050.78 435.45 1057.49 435.70 1062.53 433.43 C 1069.93 429.50 1074.72 422.14 1082.09 418.19 C 1087.69 416.20 1093.62 415.08 1099.59 415.01 C 1102.44 415.79 1105.18 416.94 1107.89 418.15 C 1113.43 421.18 1118.70 426.30 1125.63 424.21 C 1127.57 420.29 1128.49 415.71 1131.25 412.23 C 1133.85 410.09 1137.51 410.44 1140.64 409.67 C 1144.35 409.17 1147.72 407.03 1151.49 406.92 C 1153.43 409.66 1155.34 412.48 1157.22 415.29 C 1154.21 417.97 1149.36 420.18 1149.44 424.83 C 1149.95 431.91 1157.11 434.56 1162.15 437.95 C 1158.50 445.29 1154.75 452.69 1153.71 460.93 C 1137.92 466.52 1123.15 476.94 1115.07 491.89 C 1113.95 494.05 1112.96 496.96 1114.98 498.95 C 1120.27 505.28 1127.68 509.70 1135.46 512.30 C 1136.66 514.07 1139.06 517.59 1140.25 519.35 C 1136.74 521.77 1133.14 524.04 1129.70 526.55 C 1124.42 530.22 1126.80 538.06 1122.50 542.49 C 1117.51 548.37 1110.90 553.98 1102.86 554.53 C 1090.83 555.28 1078.46 554.61 1066.79 558.02 C 1059.28 562.72 1054.43 571.64 1044.89 572.89 C 1036.59 575.61 1033.24 585.16 1024.94 587.64 C 1017.59 591.42 1008.84 592.91 1000.79 590.93 C 996.46 589.34 997.59 584.02 997.12 580.42 C 997.12 572.74 990.94 567.41 987.35 561.18 C 983.99 562.98 980.61 564.78 976.95 565.87 C 977.25 562.50 979.38 558.74 977.54 555.51 C 973.83 551.67 968.34 550.24 963.82 547.63 C 966.88 543.55 970.35 539.75 973.09 535.45 C 972.74 533.53 971.47 530.25 969.05 531.24 C 963.13 532.75 958.32 536.81 952.88 539.41 C 950.32 534.80 947.80 530.21 945.67 525.39 C 951.41 524.87 957.15 522.69 962.92 524.19 C 967.01 525.30 971.28 525.25 975.25 523.69 C 975.07 512.75 977.23 501.73 975.34 490.87 C 974.25 486.88 971.97 483.32 970.84 479.34 C 968.91 473.71 969.55 467.70 969.97 461.89 C 972.36 461.40 974.78 460.83 976.95 459.64 C 977.69 455.79 975.16 452.41 973.82 449.01 C 977.71 446.81 981.68 444.76 985.69 442.78 C 984.87 438.36 982.90 433.90 983.63 429.37 C 985.18 426.98 987.72 425.49 989.91 423.74 C 988.75 418.41 985.68 413.42 985.77 407.89 C 987.20 404.47 991.25 403.12 994.01 401.00 Z" />
</g>
<g id="#ef5f1fff">
<path fill="#ef5f1f" fill-opacity="0" d=" M 871.73 411.60 C 874.82 409.75 877.40 407.18 880.48 405.31 C 885.82 410.85 889.66 417.60 892.23 424.82 C 896.85 424.11 901.50 423.76 906.17 423.53 C 907.22 431.59 906.67 440.88 912.55 447.31 C 910.60 452.16 907.74 456.54 905.25 461.12 C 901.57 467.31 899.73 475.22 892.76 478.62 C 891.11 474.37 889.06 470.29 886.89 466.29 C 882.75 469.38 879.25 473.20 876.22 477.36 C 873.23 476.06 869.71 475.26 867.59 472.61 C 864.37 466.38 865.40 457.34 858.89 453.07 C 854.21 450.66 850.29 454.29 846.72 456.67 C 842.45 459.70 837.16 460.41 832.49 462.54 C 826.08 466.59 818.72 461.15 811.86 463.50 C 810.65 460.81 809.54 458.08 808.52 455.31 C 812.01 454.83 815.49 454.24 819.00 453.77 C 819.69 448.60 819.39 441.74 824.36 438.46 C 829.19 435.16 834.46 432.56 839.58 429.75 C 843.16 431.95 846.85 434.04 850.65 435.91 C 852.71 430.31 853.68 424.27 856.26 418.89 C 860.41 414.78 866.61 413.95 871.73 411.60 Z" />
</g>
<g id="#af5f5fff">
<path fill="#af5f5f" fill-opacity="0" d=" M 641.20 409.24 C 642.99 409.68 641.98 412.57 640.30 411.92 C 638.49 411.42 639.52 408.69 641.20 409.24 Z" />
</g>
<g id="#ee1f9ffe">
<path fill="#ee1f9f" fill-opacity="0" d=" M 748.80 425.77 C 750.82 424.73 752.91 423.80 755.00 422.90 C 758.11 426.85 761.22 430.85 765.05 434.15 C 772.20 439.05 772.28 449.78 780.43 453.49 C 786.25 456.43 790.70 461.27 795.76 465.29 C 796.64 462.63 797.32 459.91 798.69 457.47 C 801.67 455.85 805.21 455.88 808.52 455.31 C 809.54 458.08 810.65 460.81 811.86 463.50 C 813.26 466.65 814.64 469.82 815.90 473.03 C 812.66 475.13 808.83 476.86 806.72 480.23 C 806.88 483.12 808.00 485.83 808.77 488.59 C 807.78 488.59 806.80 488.61 805.83 488.60 C 801.95 488.59 798.16 487.72 794.49 486.58 C 788.58 484.78 782.06 485.44 776.54 482.36 C 773.47 480.01 771.15 476.78 767.79 474.82 C 765.58 473.35 762.70 472.47 761.46 469.94 C 760.06 466.80 759.45 463.39 758.35 460.15 C 753.78 462.28 749.35 464.66 744.97 467.14 C 745.01 464.34 745.08 461.54 745.36 458.75 C 736.11 458.03 725.48 460.38 718.04 453.27 C 717.93 448.75 716.33 444.57 713.36 441.23 C 715.67 432.22 723.93 427.03 731.94 423.54 C 733.30 426.67 734.52 429.79 735.74 433.00 C 739.59 432.51 743.48 431.96 747.35 431.42 C 747.84 429.54 748.31 427.65 748.80 425.77 Z" />
</g>
<g id="#6f1f5fff">
<path fill="#6f1f5f" fill-opacity="0" d=" M 614.04 426.31 C 615.02 425.48 616.02 424.64 617.03 423.82 C 617.43 425.21 617.83 426.61 618.25 428.01 C 616.59 427.66 614.95 427.30 613.31 426.93 L 614.04 426.31 Z" />
</g>
<g id="#cf5fdfff">
<path fill="#cf5fdf" fill-opacity="0" d=" M 687.68 444.87 C 691.98 442.06 696.96 440.45 701.14 437.42 C 703.60 441.85 708.82 443.80 713.36 441.23 C 716.33 444.57 717.93 448.75 718.04 453.27 C 718.04 459.62 721.39 465.08 725.67 469.51 C 723.33 471.67 720.97 473.82 718.65 476.00 C 719.10 480.83 720.75 486.87 716.97 490.91 C 713.82 494.03 709.78 497.54 705.00 496.77 C 700.07 495.40 695.47 497.72 690.80 498.87 C 686.10 498.77 681.73 496.46 677.02 496.29 C 669.54 495.47 662.41 498.39 655.08 499.21 C 651.86 499.46 648.57 499.33 645.38 499.40 C 642.80 490.77 649.57 483.65 654.49 477.45 C 656.51 474.80 659.51 470.80 656.68 467.67 C 652.79 466.39 647.37 468.21 645.05 463.83 C 642.51 460.94 644.68 457.22 645.53 454.12 C 647.92 454.61 650.86 455.93 652.99 454.05 C 658.30 450.11 663.75 446.35 669.60 443.27 C 672.66 448.58 675.80 453.82 678.94 459.09 C 682.19 454.55 683.51 448.71 687.68 444.87 M 671.14 478.12 C 669.63 478.50 670.45 480.83 671.87 480.27 C 673.36 479.91 672.51 477.56 671.14 478.12 Z" />
</g>
<g id="#2fdfdffe">
<path fill="#2fdfdf" fill-opacity="0" d=" M 606.70 446.09 C 613.88 442.69 621.44 440.19 628.93 437.57 C 630.55 440.50 631.98 443.53 633.88 446.33 C 636.76 450.17 641.41 451.96 645.53 454.12 C 644.68 457.22 642.51 460.94 645.05 463.83 C 647.37 468.21 652.79 466.39 656.68 467.67 C 659.51 470.80 656.51 474.80 654.49 477.45 C 649.57 483.65 642.80 490.77 645.38 499.40 C 648.57 499.33 651.86 499.46 655.08 499.21 C 658.82 504.15 660.69 511.82 655.38 516.37 C 649.34 524.91 638.68 526.15 629.66 529.57 C 633.13 538.67 635.27 548.25 639.02 557.25 C 626.68 550.43 624.29 535.27 619.67 523.32 C 618.03 517.75 612.00 515.02 610.50 509.42 C 607.97 501.98 605.08 494.67 602.70 487.19 C 601.83 484.24 603.76 481.51 604.56 478.79 C 607.81 469.00 602.51 458.87 604.86 449.01 C 605.20 447.91 605.43 446.49 606.70 446.09 Z" />
</g>
<g id="#2fdf1fff">
<path fill="#2fdf1f" fill-opacity="0" d=" M 912.55 447.31 C 919.13 454.69 927.01 463.90 937.99 462.54 C 948.64 462.57 959.38 463.36 969.97 461.89 C 969.55 467.70 968.91 473.71 970.84 479.34 C 971.97 483.32 974.25 486.88 975.34 490.87 C 977.23 501.73 975.07 512.75 975.25 523.69 C 971.28 525.25 967.01 525.30 962.92 524.19 C 957.15 522.69 951.41 524.87 945.67 525.39 C 936.83 525.40 926.79 521.52 918.95 526.99 C 915.40 529.42 916.30 534.12 915.09 537.69 C 913.90 539.76 911.64 540.89 909.82 542.34 C 908.95 540.17 908.07 538.01 907.19 535.87 C 904.46 538.42 902.27 541.45 900.09 544.47 C 897.57 543.17 895.12 541.53 892.24 541.26 C 888.55 544.46 887.62 549.84 883.70 552.85 C 880.41 552.98 877.93 550.36 875.80 548.21 C 873.12 542.09 870.58 535.76 869.52 529.16 C 870.54 522.87 877.85 520.92 882.38 517.58 C 879.42 514.58 876.59 511.45 873.56 508.53 C 875.83 507.75 878.10 507.00 880.38 506.24 C 878.31 502.40 875.17 498.80 874.97 494.28 C 878.53 490.17 883.60 488.22 888.41 486.05 C 891.46 484.91 892.37 481.52 892.76 478.62 C 899.73 475.22 901.57 467.31 905.25 461.12 C 907.74 456.54 910.60 452.16 912.55 447.31 Z" />
</g>
<g id="#4f5f5fff">
<path fill="#4f5f5f" fill-opacity="0" d=" M 846.72 456.67 C 850.29 454.29 854.21 450.66 858.89 453.07 C 865.40 457.34 864.37 466.38 867.59 472.61 C 869.71 475.26 873.23 476.06 876.22 477.36 C 879.25 473.20 882.75 469.38 886.89 466.29 C 889.06 470.29 891.11 474.37 892.76 478.62 C 892.37 481.52 891.46 484.91 888.41 486.05 C 883.60 488.22 878.53 490.17 874.97 494.28 C 875.17 498.80 878.31 502.40 880.38 506.24 C 878.10 507.00 875.83 507.75 873.56 508.53 C 867.70 503.52 857.79 505.50 854.35 512.42 C 848.73 520.29 839.94 524.92 832.03 530.10 C 829.40 531.79 826.22 530.55 823.39 530.22 C 817.40 528.95 810.10 531.23 805.76 525.79 C 808.53 521.97 811.71 518.31 813.64 513.99 C 812.44 509.17 808.35 505.87 804.97 502.53 C 805.58 497.91 805.68 493.25 805.83 488.60 C 806.80 488.61 807.78 488.59 808.77 488.59 C 808.00 485.83 806.88 483.12 806.72 480.23 C 808.83 476.86 812.66 475.13 815.90 473.03 C 814.64 469.82 813.26 466.65 811.86 463.50 C 818.72 461.15 826.08 466.59 832.49 462.54 C 837.16 460.41 842.45 459.70 846.72 456.67 Z" />
</g>
<g id="#8f5fdfff">
<path fill="#8f5fdf" fill-opacity="0" d=" M 725.67 469.51 C 721.39 465.08 718.04 459.62 718.04 453.27 C 725.48 460.38 736.11 458.03 745.36 458.75 C 745.08 461.54 745.01 464.34 744.97 467.14 C 749.35 464.66 753.78 462.28 758.35 460.15 C 759.45 463.39 760.06 466.80 761.46 469.94 C 762.70 472.47 765.58 473.35 767.79 474.82 C 771.15 476.78 773.47 480.01 776.54 482.36 C 782.06 485.44 788.58 484.78 794.49 486.58 C 798.16 487.72 801.95 488.59 805.83 488.60 C 805.68 493.25 805.58 497.91 804.97 502.53 C 802.13 500.84 799.01 499.51 796.01 498.19 C 794.79 501.97 792.05 506.43 794.90 510.17 C 797.43 513.92 800.25 518.18 798.09 522.83 C 793.26 521.46 788.20 520.37 783.21 521.44 C 786.24 524.98 789.67 528.15 793.38 530.98 C 790.58 533.13 787.64 535.09 784.80 537.18 C 782.82 534.70 780.97 532.06 779.26 529.41 C 776.56 525.19 770.86 523.87 768.83 519.10 C 766.58 515.25 766.81 510.70 766.68 506.44 C 763.26 507.82 759.94 509.64 757.50 512.47 C 755.00 514.92 753.09 518.30 749.62 519.49 C 744.43 520.20 740.03 515.95 734.82 516.52 C 727.60 517.33 721.90 522.37 715.87 526.00 C 712.56 522.77 709.33 519.49 705.84 516.47 C 702.20 511.89 696.49 512.50 691.35 513.51 C 690.31 512.44 689.26 511.36 688.24 510.29 C 694.34 506.47 702.56 504.44 705.00 496.77 C 709.78 497.54 713.82 494.03 716.97 490.91 C 720.75 486.87 719.10 480.83 718.65 476.00 C 720.97 473.82 723.33 471.67 725.67 469.51 Z" />
</g>
<g id="#4fdfdfff">
<path fill="#4fdfdf" fill-opacity="0" d=" M 671.14 478.12 C 672.51 477.56 673.36 479.91 671.87 480.27 C 670.45 480.83 669.63 478.50 671.14 478.12 Z" />
</g>
<g id="#af9f1fff">
<path fill="#af9f1f" fill-opacity="0" d=" M 690.80 498.87 C 695.47 497.72 700.07 495.40 705.00 496.77 C 702.56 504.44 694.34 506.47 688.24 510.29 C 689.26 511.36 690.31 512.44 691.35 513.51 C 696.49 512.50 702.20 511.89 705.84 516.47 C 706.05 520.76 707.42 525.38 705.42 529.42 C 702.16 536.10 697.56 542.15 695.12 549.21 C 694.22 552.17 694.16 556.49 697.44 557.91 C 702.68 560.71 707.86 563.61 712.71 567.08 C 707.15 571.21 698.48 572.88 696.65 580.53 C 693.46 592.68 698.66 604.73 702.22 616.21 C 699.48 615.18 696.85 613.93 694.18 612.79 C 689.38 610.52 683.87 612.15 678.87 610.92 C 662.91 601.60 656.80 583.46 647.25 568.72 C 644.90 564.61 641.14 561.49 639.02 557.25 C 635.27 548.25 633.13 538.67 629.66 529.57 C 638.68 526.15 649.34 524.91 655.38 516.37 C 660.69 511.82 658.82 504.15 655.08 499.21 C 662.41 498.39 669.54 495.47 677.02 496.29 C 681.73 496.46 686.10 498.77 690.80 498.87 Z" />
</g>
<g id="#6f9fdfff">
<path fill="#6f9fdf" fill-opacity="0" d=" M 796.01 498.19 C 799.01 499.51 802.13 500.84 804.97 502.53 C 808.35 505.87 812.44 509.17 813.64 513.99 C 811.71 518.31 808.53 521.97 805.76 525.79 C 810.10 531.23 817.40 528.95 823.39 530.22 C 826.22 530.55 829.40 531.79 832.03 530.10 C 839.94 524.92 848.73 520.29 854.35 512.42 C 857.79 505.50 867.70 503.52 873.56 508.53 C 876.59 511.45 879.42 514.58 882.38 517.58 C 877.85 520.92 870.54 522.87 869.52 529.16 C 870.58 535.76 873.12 542.09 875.80 548.21 C 874.30 549.36 872.83 550.54 871.36 551.71 C 868.69 549.89 865.91 548.25 863.13 546.64 C 860.45 549.75 857.79 552.86 855.07 555.92 C 856.90 559.90 859.67 563.66 860.41 568.02 C 857.56 572.16 851.42 574.48 851.18 580.10 C 851.38 585.74 852.32 591.33 852.55 596.99 C 851.05 597.92 849.57 598.87 848.08 599.81 C 845.12 596.84 842.73 593.26 839.35 590.76 C 834.90 588.79 829.84 589.18 825.17 588.00 C 823.22 586.47 821.22 583.62 818.39 584.60 C 814.82 585.68 811.71 587.85 808.47 589.64 C 804.77 585.56 801.29 581.29 798.17 576.78 C 802.72 574.33 807.85 572.59 811.65 568.96 C 813.95 566.67 814.02 562.88 812.29 560.24 C 807.45 559.13 802.28 563.00 797.78 560.28 C 794.68 555.26 801.62 545.90 794.96 542.37 C 792.36 543.41 790.12 545.15 787.81 546.70 C 786.28 544.12 784.74 541.55 783.23 538.97 C 783.71 538.34 784.24 537.74 784.80 537.18 C 787.64 535.09 790.58 533.13 793.38 530.98 C 789.67 528.15 786.24 524.98 783.21 521.44 C 788.20 520.37 793.26 521.46 798.09 522.83 C 800.25 518.18 797.43 513.92 794.90 510.17 C 792.05 506.43 794.79 501.97 796.01 498.19 M 847.17 592.17 C 846.64 593.79 847.19 594.34 848.83 593.83 C 849.34 592.20 848.79 591.64 847.17 592.17 Z" />
</g>
<g id="#af1fdfff">
<path fill="#af1fdf" fill-opacity="0" d=" M 757.50 512.47 C 759.94 509.64 763.26 507.82 766.68 506.44 C 766.81 510.70 766.58 515.25 768.83 519.10 C 770.86 523.87 776.56 525.19 779.26 529.41 C 780.97 532.06 782.82 534.70 784.80 537.18 C 784.24 537.74 783.71 538.34 783.23 538.97 C 780.79 542.62 778.63 546.46 775.77 549.81 C 771.91 555.18 765.34 557.35 760.45 561.56 C 757.36 564.29 756.05 568.37 753.42 571.46 C 749.68 574.43 743.71 574.50 741.37 579.17 C 738.98 582.88 737.60 588.70 732.44 589.30 C 727.11 588.47 723.08 583.12 717.40 583.58 C 711.20 584.89 706.42 589.38 701.12 592.55 C 703.59 601.80 706.42 610.94 709.05 620.15 C 706.69 618.99 704.08 618.11 702.22 616.21 C 698.66 604.73 693.46 592.68 696.65 580.53 C 698.48 572.88 707.15 571.21 712.71 567.08 C 707.86 563.61 702.68 560.71 697.44 557.91 C 694.16 556.49 694.22 552.17 695.12 549.21 C 697.56 542.15 702.16 536.10 705.42 529.42 C 707.42 525.38 706.05 520.76 705.84 516.47 C 709.33 519.49 712.56 522.77 715.87 526.00 C 721.90 522.37 727.60 517.33 734.82 516.52 C 740.03 515.95 744.43 520.20 749.62 519.49 C 753.09 518.30 755.00 514.92 757.50 512.47 Z" />
</g>
<g id="#0f5fdfff">
<path fill="#0f5fdf" fill-opacity="0" d=" M 1135.46 512.30 C 1141.22 510.44 1147.25 510.07 1153.27 509.44 C 1153.79 517.28 1153.57 525.14 1153.55 533.00 C 1153.50 541.55 1150.61 549.75 1149.89 558.23 C 1149.79 563.73 1152.58 568.87 1152.61 574.40 C 1152.54 586.24 1154.71 598.31 1152.49 610.07 C 1154.99 612.44 1157.71 614.89 1158.67 618.34 C 1160.74 623.48 1159.31 629.63 1162.72 634.26 C 1164.31 636.84 1166.79 639.44 1166.35 642.73 C 1165.28 650.64 1162.07 658.07 1160.83 665.95 C 1159.22 674.88 1156.81 683.63 1153.72 692.15 C 1153.04 688.16 1154.69 683.30 1152.30 679.67 C 1147.54 674.91 1141.15 671.95 1137.00 666.56 C 1131.45 659.31 1121.99 656.96 1114.40 652.57 C 1108.84 649.40 1101.34 651.58 1096.27 647.80 C 1092.92 640.45 1093.84 631.20 1088.14 624.80 C 1084.29 619.63 1076.83 621.35 1071.42 620.36 C 1066.11 617.23 1061.78 612.70 1058.13 607.78 C 1061.99 605.23 1066.11 603.14 1070.25 601.10 C 1077.63 597.60 1081.74 589.09 1081.74 581.19 C 1080.56 577.50 1077.13 573.71 1072.92 574.38 C 1067.26 575.12 1061.97 578.06 1056.15 577.65 C 1052.12 576.83 1048.61 574.52 1044.89 572.89 C 1054.43 571.64 1059.28 562.72 1066.79 558.02 C 1078.46 554.61 1090.83 555.28 1102.86 554.53 C 1110.90 553.98 1117.51 548.37 1122.50 542.49 C 1126.80 538.06 1124.42 530.22 1129.70 526.55 C 1133.14 524.04 1136.74 521.77 1140.25 519.35 C 1139.06 517.59 1136.66 514.07 1135.46 512.30 Z" />
</g>
<g id="#2fdf9fff">
<path fill="#2fdf9f" fill-opacity="0" d=" M 918.95 526.99 C 926.79 521.52 936.83 525.40 945.67 525.39 C 947.80 530.21 950.32 534.80 952.88 539.41 C 958.32 536.81 963.13 532.75 969.05 531.24 C 971.47 530.25 972.74 533.53 973.09 535.45 C 970.35 539.75 966.88 543.55 963.82 547.63 C 968.34 550.24 973.83 551.67 977.54 555.51 C 979.38 558.74 977.25 562.50 976.95 565.87 C 975.99 570.13 977.35 575.08 975.01 578.98 C 970.51 583.09 964.45 584.51 959.19 587.30 C 952.62 591.14 946.83 596.45 942.98 603.05 C 939.96 608.17 936.65 613.12 933.00 617.83 C 928.04 618.17 923.18 619.65 918.19 619.47 C 911.71 618.91 905.75 616.03 899.83 613.59 C 899.43 617.78 900.43 622.50 898.30 626.31 C 893.85 630.94 887.15 634.64 880.59 633.49 C 875.62 630.65 870.22 625.53 870.45 619.34 C 872.52 615.94 876.45 614.44 879.72 612.46 C 879.37 611.70 879.04 610.95 878.72 610.21 C 870.80 610.63 862.81 611.62 854.94 610.24 C 853.92 605.87 852.93 601.47 852.55 596.99 C 852.32 591.33 851.38 585.74 851.18 580.10 C 851.42 574.48 857.56 572.16 860.41 568.02 C 859.67 563.66 856.90 559.90 855.07 555.92 C 857.79 552.86 860.45 549.75 863.13 546.64 C 865.91 548.25 868.69 549.89 871.36 551.71 C 872.83 550.54 874.30 549.36 875.80 548.21 C 877.93 550.36 880.41 552.98 883.70 552.85 C 887.62 549.84 888.55 544.46 892.24 541.26 C 895.12 541.53 897.57 543.17 900.09 544.47 C 902.27 541.45 904.46 538.42 907.19 535.87 C 908.07 538.01 908.95 540.17 909.82 542.34 C 911.64 540.89 913.90 539.76 915.09 537.69 C 916.30 534.12 915.40 529.42 918.95 526.99 M 858.47 580.13 C 858.52 582.04 858.65 583.97 858.83 585.89 C 860.50 583.90 860.89 581.72 858.47 580.13 Z" />
</g>
<g id="#ef1fdffe">
<path fill="#ef1fdf" fill-opacity="0" d=" M 775.77 549.81 C 778.63 546.46 780.79 542.62 783.23 538.97 C 784.74 541.55 786.28 544.12 787.81 546.70 C 790.12 545.15 792.36 543.41 794.96 542.37 C 801.62 545.90 794.68 555.26 797.78 560.28 C 802.28 563.00 807.45 559.13 812.29 560.24 C 814.02 562.88 813.95 566.67 811.65 568.96 C 807.85 572.59 802.72 574.33 798.17 576.78 C 801.29 581.29 804.77 585.56 808.47 589.64 C 811.71 587.85 814.82 585.68 818.39 584.60 C 821.22 583.62 823.22 586.47 825.17 588.00 C 821.34 590.85 817.00 593.18 813.84 596.84 C 811.20 600.83 809.73 605.43 807.92 609.84 C 802.30 612.45 795.77 619.20 789.40 614.78 C 788.41 611.23 788.22 607.55 787.72 603.92 C 780.39 604.45 774.83 610.36 767.44 610.58 C 765.04 609.38 763.19 607.37 761.27 605.54 C 765.97 599.65 771.33 593.75 772.38 585.93 C 765.90 586.76 757.87 583.42 752.77 588.79 C 749.45 594.23 753.80 600.86 751.62 606.60 C 748.61 610.18 743.22 610.09 739.23 611.86 C 739.87 619.26 741.12 626.60 743.19 633.75 C 736.99 634.71 730.83 635.93 724.72 637.31 C 722.37 637.65 719.57 638.14 717.62 636.42 C 713.09 632.09 710.56 626.13 709.05 620.15 C 706.42 610.94 703.59 601.80 701.12 592.55 C 706.42 589.38 711.20 584.89 717.40 583.58 C 723.08 583.12 727.11 588.47 732.44 589.30 C 737.60 588.70 738.98 582.88 741.37 579.17 C 743.71 574.50 749.68 574.43 753.42 571.46 C 756.05 568.37 757.36 564.29 760.45 561.56 C 765.34 557.35 771.91 555.18 775.77 549.81 Z" />
</g>
<g id="#6f1f1fff">
<path fill="#6f1f1f" fill-opacity="0" d=" M 976.95 565.87 C 980.61 564.78 983.99 562.98 987.35 561.18 C 990.94 567.41 997.12 572.74 997.12 580.42 C 997.59 584.02 996.46 589.34 1000.79 590.93 C 1008.84 592.91 1017.59 591.42 1024.94 587.64 C 1033.24 585.16 1036.59 575.61 1044.89 572.89 C 1048.61 574.52 1052.12 576.83 1056.15 577.65 C 1061.97 578.06 1067.26 575.12 1072.92 574.38 C 1077.13 573.71 1080.56 577.50 1081.74 581.19 C 1081.74 589.09 1077.63 597.60 1070.25 601.10 C 1066.11 603.14 1061.99 605.23 1058.13 607.78 C 1061.78 612.70 1066.11 617.23 1071.42 620.36 C 1074.24 623.75 1077.46 627.36 1078.21 631.84 C 1077.54 636.31 1074.31 639.79 1071.99 643.49 C 1067.19 639.01 1062.55 634.36 1057.72 629.91 C 1054.15 632.14 1050.62 634.44 1047.18 636.87 C 1047.91 643.57 1052.55 653.34 1045.00 658.00 C 1040.13 661.72 1034.56 657.82 1030.30 655.24 C 1026.22 652.19 1020.69 650.24 1015.86 652.76 C 1004.35 656.35 996.88 667.83 984.35 668.71 C 979.77 665.56 977.83 658.39 971.16 658.90 C 963.77 661.81 965.05 670.28 966.22 676.49 C 958.47 672.78 951.07 668.41 943.70 664.03 C 945.50 663.65 949.12 662.87 950.92 662.48 C 949.74 654.99 944.24 649.55 941.05 643.00 C 938.45 636.75 944.29 631.19 944.79 625.12 C 943.24 620.18 937.85 617.81 933.00 617.83 C 936.65 613.12 939.96 608.17 942.98 603.05 C 946.83 596.45 952.62 591.14 959.19 587.30 C 964.45 584.51 970.51 583.09 975.01 578.98 C 977.35 575.08 975.99 570.13 976.95 565.87 Z" />
</g>
<g id="#af5f9fff">
<path fill="#af5f9f" fill-opacity="0" d=" M 858.47 580.13 C 860.89 581.72 860.50 583.90 858.83 585.89 C 858.65 583.97 858.52 582.04 858.47 580.13 Z" />
</g>
<g id="#af5f1fff">
<path fill="#af5f1f" fill-opacity="0" d=" M 752.77 588.79 C 757.87 583.42 765.90 586.76 772.38 585.93 C 771.33 593.75 765.97 599.65 761.27 605.54 C 763.19 607.37 765.04 609.38 767.44 610.58 C 774.83 610.36 780.39 604.45 787.72 603.92 C 788.22 607.55 788.41 611.23 789.40 614.78 C 795.77 619.20 802.30 612.45 807.92 609.84 C 811.34 614.51 815.19 618.87 818.51 623.62 C 815.42 625.43 811.72 626.60 809.42 629.46 C 807.67 634.59 810.65 640.24 808.35 645.29 C 806.09 650.43 803.58 655.47 800.99 660.46 C 800.02 661.92 798.98 663.34 797.94 664.75 C 791.95 662.09 785.26 660.00 778.86 662.41 C 775.65 659.38 772.53 653.71 767.34 655.20 C 763.16 656.35 757.88 657.86 756.31 662.41 C 755.21 667.24 755.26 672.29 755.98 677.18 C 746.33 664.73 747.10 648.30 743.19 633.75 C 741.12 626.60 739.87 619.26 739.23 611.86 C 743.22 610.09 748.61 610.18 751.62 606.60 C 753.80 600.86 749.45 594.23 752.77 588.79 Z" />
</g>
<g id="#af9f5fff">
<path fill="#af9f5f" fill-opacity="0" d=" M 825.17 588.00 C 829.84 589.18 834.90 588.79 839.35 590.76 C 842.73 593.26 845.12 596.84 848.08 599.81 C 849.57 598.87 851.05 597.92 852.55 596.99 C 852.93 601.47 853.92 605.87 854.94 610.24 C 862.81 611.62 870.80 610.63 878.72 610.21 C 879.04 610.95 879.37 611.70 879.72 612.46 C 876.45 614.44 872.52 615.94 870.45 619.34 C 870.22 625.53 875.62 630.65 880.59 633.49 C 887.15 634.64 893.85 630.94 898.30 626.31 C 900.43 622.50 899.43 617.78 899.83 613.59 C 905.75 616.03 911.71 618.91 918.19 619.47 C 923.18 619.65 928.04 618.17 933.00 617.83 C 937.85 617.81 943.24 620.18 944.79 625.12 C 944.29 631.19 938.45 636.75 941.05 643.00 C 944.24 649.55 949.74 654.99 950.92 662.48 C 949.12 662.87 945.50 663.65 943.70 664.03 C 938.83 661.06 934.82 656.95 930.05 653.86 C 926.80 651.67 922.73 652.02 919.01 651.92 C 915.69 651.94 912.10 651.40 909.09 653.13 C 899.84 658.83 891.03 666.71 879.72 667.52 C 874.19 667.78 870.65 672.66 865.94 674.80 C 861.16 675.27 856.37 674.99 851.61 674.50 C 851.01 672.35 850.85 669.75 849.10 668.20 C 845.75 666.50 841.72 666.98 838.35 665.36 C 836.10 664.14 834.25 662.34 832.32 660.71 C 827.51 664.06 823.36 668.21 818.87 671.94 C 817.76 672.68 816.11 674.23 814.84 672.94 C 810.54 668.44 806.31 663.80 800.99 660.46 C 803.58 655.47 806.09 650.43 808.35 645.29 C 810.65 640.24 807.67 634.59 809.42 629.46 C 811.72 626.60 815.42 625.43 818.51 623.62 C 815.19 618.87 811.34 614.51 807.92 609.84 C 809.73 605.43 811.20 600.83 813.84 596.84 C 817.00 593.18 821.34 590.85 825.17 588.00 M 847.19 657.91 C 845.52 658.35 846.42 660.95 848.01 660.29 C 849.67 659.86 848.75 657.22 847.19 657.91 Z" />
</g>
<g id="#ef205fff">
<path fill="#ef205f" fill-opacity="0" d=" M 847.17 592.17 C 848.79 591.64 849.34 592.20 848.83 593.83 C 847.19 594.34 846.64 593.79 847.17 592.17 Z" />
</g>
<g id="#4f5fdfff">
<path fill="#4f5fdf" fill-opacity="0" d=" M 1071.42 620.36 C 1076.83 621.35 1084.29 619.63 1088.14 624.80 C 1093.84 631.20 1092.92 640.45 1096.27 647.80 C 1101.34 651.58 1108.84 649.40 1114.40 652.57 C 1121.99 656.96 1131.45 659.31 1137.00 666.56 C 1141.15 671.95 1147.54 674.91 1152.30 679.67 C 1154.69 683.30 1153.04 688.16 1153.72 692.15 C 1154.17 697.59 1152.55 702.74 1151.46 707.96 C 1152.98 712.40 1157.58 715.05 1160.24 718.80 C 1163.75 722.48 1159.69 727.94 1159.65 732.09 C 1161.14 734.78 1162.40 737.65 1162.61 740.77 C 1163.03 749.51 1171.55 756.04 1170.03 765.16 C 1168.69 772.21 1166.51 779.13 1163.68 785.73 C 1162.23 788.32 1160.36 792.20 1156.72 791.13 C 1152.95 790.30 1149.05 790.64 1145.82 792.91 C 1146.93 785.93 1148.02 778.95 1149.54 772.05 C 1142.40 769.91 1134.97 768.85 1127.90 766.55 C 1121.03 763.13 1114.62 755.28 1106.04 758.44 C 1100.90 760.46 1095.70 762.38 1090.12 762.79 C 1086.21 758.70 1082.99 753.28 1077.84 750.78 C 1072.19 751.82 1067.33 755.72 1061.49 756.01 C 1056.05 756.59 1050.38 753.57 1045.19 756.26 C 1040.06 757.80 1034.05 761.66 1028.83 758.23 C 1021.32 753.26 1014.52 744.97 1014.96 735.55 C 1016.86 728.67 1025.07 726.22 1028.27 720.22 C 1030.83 714.74 1028.61 708.67 1028.73 702.94 C 1029.00 700.72 1027.69 697.28 1030.40 696.52 C 1035.97 694.65 1042.71 696.34 1047.80 692.81 C 1048.27 685.04 1039.92 681.45 1034.94 677.00 C 1036.93 674.39 1039.28 671.97 1040.67 668.96 C 1037.98 663.86 1033.28 660.17 1030.30 655.24 C 1034.56 657.82 1040.13 661.72 1045.00 658.00 C 1052.55 653.34 1047.91 643.57 1047.18 636.87 C 1050.62 634.44 1054.15 632.14 1057.72 629.91 C 1062.55 634.36 1067.19 639.01 1071.99 643.49 C 1074.31 639.79 1077.54 636.31 1078.21 631.84 C 1077.46 627.36 1074.24 623.75 1071.42 620.36 M 1135.12 697.17 C 1135.12 697.95 1135.10 699.52 1135.10 700.30 C 1136.41 699.52 1137.74 698.73 1139.08 697.96 C 1138.79 697.48 1138.22 696.51 1137.94 696.03 C 1136.98 696.40 1136.05 696.78 1135.12 697.17 M 1100.24 722.44 C 1100.15 723.36 1099.97 725.20 1099.88 726.12 C 1100.80 726.03 1102.64 725.85 1103.56 725.76 C 1102.57 724.53 1101.46 723.41 1100.24 722.44 Z" />
</g>
<g id="#ef5f9fff">
<path fill="#ef5f9f" fill-opacity="0" d=" M 909.09 653.13 C 912.10 651.40 915.69 651.94 919.01 651.92 C 922.73 652.02 926.80 651.67 930.05 653.86 C 934.82 656.95 938.83 661.06 943.70 664.03 C 951.07 668.41 958.47 672.78 966.22 676.49 C 969.40 684.18 975.14 690.44 979.55 697.42 C 980.73 699.38 981.32 702.12 980.03 704.17 C 978.06 706.59 974.78 707.08 971.87 707.51 C 963.94 708.59 955.89 711.69 950.55 717.85 C 949.84 720.03 950.83 722.30 951.64 724.32 C 954.01 729.47 956.24 734.70 959.10 739.61 C 952.87 744.66 946.67 749.97 939.07 752.87 C 932.71 756.00 924.40 756.87 919.97 763.04 C 916.11 768.37 912.98 775.29 905.78 776.72 C 899.83 779.21 898.65 771.71 895.58 768.65 C 896.19 766.80 896.85 764.99 897.52 763.18 C 895.57 761.29 893.14 759.71 891.94 757.22 C 890.78 753.12 890.27 748.90 889.72 744.70 C 881.12 744.82 873.54 738.04 869.40 731.01 C 868.33 724.68 867.33 718.32 866.98 711.91 C 866.63 707.54 869.92 704.12 870.83 700.05 C 867.49 695.55 861.79 693.92 857.09 691.28 C 852.75 693.89 848.45 696.57 843.84 698.69 C 844.65 690.27 845.19 680.84 851.61 674.50 C 856.37 674.99 861.16 675.27 865.94 674.80 C 870.65 672.66 874.19 667.78 879.72 667.52 C 891.03 666.71 899.84 658.83 909.09 653.13 Z" />
</g>
<g id="#6f5f5fff">
<path fill="#6f5f5f" fill-opacity="0" d=" M 1015.86 652.76 C 1020.69 650.24 1026.22 652.19 1030.30 655.24 C 1033.28 660.17 1037.98 663.86 1040.67 668.96 C 1039.28 671.97 1036.93 674.39 1034.94 677.00 C 1039.92 681.45 1048.27 685.04 1047.80 692.81 C 1042.71 696.34 1035.97 694.65 1030.40 696.52 C 1027.69 697.28 1029.00 700.72 1028.73 702.94 C 1028.61 708.67 1030.83 714.74 1028.27 720.22 C 1025.07 726.22 1016.86 728.67 1014.96 735.55 C 1014.52 744.97 1021.32 753.26 1028.83 758.23 C 1034.05 761.66 1040.06 757.80 1045.19 756.26 C 1050.38 753.57 1056.05 756.59 1061.49 756.01 C 1067.33 755.72 1072.19 751.82 1077.84 750.78 C 1082.99 753.28 1086.21 758.70 1090.12 762.79 C 1093.81 768.57 1093.98 776.41 1090.20 782.23 C 1084.54 790.66 1078.38 798.80 1073.73 807.87 C 1071.09 813.48 1063.97 812.45 1058.94 813.93 C 1058.47 818.16 1059.21 823.46 1055.86 826.81 C 1053.49 828.87 1050.21 829.19 1047.28 829.91 C 1042.18 830.85 1037.25 832.49 1032.32 834.05 C 1031.42 833.33 1030.56 832.65 1029.68 831.96 C 1029.97 827.04 1029.35 822.13 1028.37 817.33 C 1025.81 819.21 1023.92 822.96 1020.52 823.27 C 1014.78 819.98 1011.90 812.00 1004.34 812.07 C 1006.41 816.73 1008.89 821.19 1011.50 825.58 C 1009.43 827.62 1007.43 829.74 1005.51 831.92 C 998.01 827.08 989.30 824.85 980.53 823.91 C 978.03 818.63 976.24 813.02 976.06 807.15 C 970.02 803.02 966.03 796.68 962.73 790.31 C 961.76 787.81 960.02 784.88 961.36 782.23 C 964.03 777.29 968.44 772.83 968.14 766.79 C 967.22 757.19 964.14 747.83 959.10 739.61 C 956.24 734.70 954.01 729.47 951.64 724.32 C 950.83 722.30 949.84 720.03 950.55 717.85 C 955.89 711.69 963.94 708.59 971.87 707.51 C 974.78 707.08 978.06 706.59 980.03 704.17 C 981.32 702.12 980.73 699.38 979.55 697.42 C 975.14 690.44 969.40 684.18 966.22 676.49 C 965.05 670.28 963.77 661.81 971.16 658.90 C 977.83 658.39 979.77 665.56 984.35 668.71 C 996.88 667.83 1004.35 656.35 1015.86 652.76 Z" />
</g>
<g id="#2f1f5fff">
<path fill="#2f1f5f" fill-opacity="0" d=" M 767.34 655.20 C 772.53 653.71 775.65 659.38 778.86 662.41 C 785.26 660.00 791.95 662.09 797.94 664.75 C 798.98 663.34 800.02 661.92 800.99 660.46 C 806.31 663.80 810.54 668.44 814.84 672.94 C 816.11 674.23 817.76 672.68 818.87 671.94 C 823.36 668.21 827.51 664.06 832.32 660.71 C 834.25 662.34 836.10 664.14 838.35 665.36 C 841.72 666.98 845.75 666.50 849.10 668.20 C 850.85 669.75 851.01 672.35 851.61 674.50 C 845.19 680.84 844.65 690.27 843.84 698.69 C 848.45 696.57 852.75 693.89 857.09 691.28 C 861.79 693.92 867.49 695.55 870.83 700.05 C 869.92 704.12 866.63 707.54 866.98 711.91 C 867.33 718.32 868.33 724.68 869.40 731.01 C 867.00 730.53 864.62 729.99 862.26 729.41 C 861.28 733.90 860.02 738.31 858.38 742.61 C 856.15 748.84 849.58 751.98 846.94 757.97 C 843.35 765.64 839.00 774.03 830.76 777.41 C 823.23 779.12 818.31 771.52 811.23 770.63 C 808.06 769.55 802.95 770.08 802.28 765.88 C 800.33 756.97 797.73 748.24 795.28 739.46 C 794.20 736.02 791.24 733.59 788.43 731.55 C 785.25 729.32 781.06 732.11 777.74 731.89 C 771.88 724.38 771.63 714.37 769.02 705.53 C 767.65 699.42 760.59 696.49 759.93 690.02 C 758.67 685.72 757.04 681.53 755.98 677.18 C 755.26 672.29 755.21 667.24 756.31 662.41 C 757.88 657.86 763.16 656.35 767.34 655.20 M 824.32 691.18 C 823.23 692.53 825.59 694.00 826.47 692.61 C 827.55 691.24 825.18 689.80 824.32 691.18 Z" />
</g>
<g id="#2f9f5fff">
<path fill="#2f9f5f" fill-opacity="0" d=" M 847.19 657.91 C 848.75 657.22 849.67 659.86 848.01 660.29 C 846.42 660.95 845.52 658.35 847.19 657.91 Z" />
</g>
<g id="#6fdf9fff">
<path fill="#6fdf9f" fill-opacity="0" d=" M 824.32 691.18 C 825.18 689.80 827.55 691.24 826.47 692.61 C 825.59 694.00 823.23 692.53 824.32 691.18 Z" />
</g>
<g id="#6f1fdfff">
<path fill="#6f1fdf" fill-opacity="0" d=" M 1135.12 697.17 C 1136.05 696.78 1136.98 696.40 1137.94 696.03 C 1138.22 696.51 1138.79 697.48 1139.08 697.96 C 1137.74 698.73 1136.41 699.52 1135.10 700.30 C 1135.10 699.52 1135.12 697.95 1135.12 697.17 Z" />
</g>
<g id="#cfdf5fff">
<path fill="#cfdf5f" fill-opacity="0" d=" M 1100.24 722.44 C 1101.46 723.41 1102.57 724.53 1103.56 725.76 C 1102.64 725.85 1100.80 726.03 1099.88 726.12 C 1099.97 725.20 1100.15 723.36 1100.24 722.44 Z" />
</g>
<g id="#afdfdfff">
<path fill="#afdfdf" fill-opacity="0" d=" M 939.07 752.87 C 946.67 749.97 952.87 744.66 959.10 739.61 C 964.14 747.83 967.22 757.19 968.14 766.79 C 968.44 772.83 964.03 777.29 961.36 782.23 C 960.02 784.88 961.76 787.81 962.73 790.31 C 966.03 796.68 970.02 803.02 976.06 807.15 C 976.24 813.02 978.03 818.63 980.53 823.91 C 989.30 824.85 998.01 827.08 1005.51 831.92 C 1008.47 834.31 1012.55 836.82 1012.34 841.18 C 1010.97 846.86 1005.43 850.54 1004.11 856.25 C 1004.51 861.34 1007.76 865.76 1008.42 870.83 C 1008.82 876.63 1008.85 882.52 1008.44 888.34 C 1007.78 893.79 1008.85 901.02 1004.09 905.07 C 999.01 909.15 993.64 913.85 986.97 914.89 C 982.89 914.94 981.05 910.51 979.55 907.40 C 974.87 896.79 965.37 888.54 954.49 884.72 C 954.42 890.42 954.63 896.12 954.20 901.82 C 954.30 907.16 950.44 911.71 945.86 913.91 C 942.98 915.42 939.36 913.55 937.73 911.10 C 936.70 904.08 938.05 896.91 937.05 889.88 C 935.96 885.86 934.57 881.92 932.63 878.24 C 930.35 873.77 925.59 871.00 923.93 866.17 C 921.70 857.64 921.46 848.33 924.98 840.10 C 926.66 836.65 924.76 832.97 922.96 830.02 C 916.44 820.48 909.11 810.41 897.78 806.33 C 896.09 811.70 893.27 816.67 889.21 820.60 C 885.15 817.16 880.40 813.67 878.91 808.30 C 877.73 801.35 876.54 794.34 876.44 787.28 C 880.49 778.91 890.72 776.38 895.58 768.65 C 898.65 771.71 899.83 779.21 905.78 776.72 C 912.98 775.29 916.11 768.37 919.97 763.04 C 924.40 756.87 932.71 756.00 939.07 752.87 Z" />
</g>
<g id="#6fdf1fff">
<path fill="#6fdf1f" fill-opacity="0" d=" M 1106.04 758.44 C 1114.62 755.28 1121.03 763.13 1127.90 766.55 C 1134.97 768.85 1142.40 769.91 1149.54 772.05 C 1148.02 778.95 1146.93 785.93 1145.82 792.91 L 1145.65 794.04 C 1149.27 797.35 1153.42 800.26 1156.22 804.35 C 1156.19 809.30 1154.10 813.98 1153.03 818.78 C 1150.14 833.94 1146.57 848.97 1142.94 863.98 C 1141.29 870.64 1136.79 878.15 1129.17 878.50 C 1120.09 878.52 1112.26 883.31 1104.74 887.76 C 1101.81 889.55 1097.57 890.78 1094.75 888.27 C 1090.14 884.40 1087.30 878.50 1081.79 875.71 C 1072.24 873.65 1062.84 870.24 1052.94 870.62 C 1049.04 871.16 1046.71 867.54 1044.19 865.27 C 1041.75 866.25 1038.01 866.44 1037.58 869.67 C 1035.47 878.81 1032.07 889.10 1023.75 894.43 C 1017.81 895.51 1014.34 888.41 1008.44 888.34 C 1008.85 882.52 1008.82 876.63 1008.42 870.83 C 1007.76 865.76 1004.51 861.34 1004.11 856.25 C 1005.43 850.54 1010.97 846.86 1012.34 841.18 C 1012.55 836.82 1008.47 834.31 1005.51 831.92 C 1007.43 829.74 1009.43 827.62 1011.50 825.58 C 1008.89 821.19 1006.41 816.73 1004.34 812.07 C 1011.90 812.00 1014.78 819.98 1020.52 823.27 C 1023.92 822.96 1025.81 819.21 1028.37 817.33 C 1029.35 822.13 1029.97 827.04 1029.68 831.96 C 1030.56 832.65 1031.42 833.33 1032.32 834.05 C 1037.25 832.49 1042.18 830.85 1047.28 829.91 C 1050.21 829.19 1053.49 828.87 1055.86 826.81 C 1059.21 823.46 1058.47 818.16 1058.94 813.93 C 1063.97 812.45 1071.09 813.48 1073.73 807.87 C 1078.38 798.80 1084.54 790.66 1090.20 782.23 C 1093.98 776.41 1093.81 768.57 1090.12 762.79 C 1095.70 762.38 1100.90 760.46 1106.04 758.44 Z" />
</g>
</svg>
