<?xml version="1.0" encoding="UTF-8" ?>
<!DOCTYPE svg PUBLIC "-//W3C//DTD SVG 1.1//EN" "http://www.w3.org/Graphics/SVG/1.1/DTD/svg11.dtd">
<svg width="1920pt" height="1080pt" viewBox="0 0 1920 1080" version="1.1" xmlns="http://www.w3.org/2000/svg">
<g id="#8f8f9ffe">
<path fill="#8f8f9f" fill-opacity="0" d=" M 1009.16 171.08 C 1019.92 173.95 1026.35 183.92 1034.97 190.25 C 1037.11 189.52 1039.26 188.75 1041.42 188.03 C 1043.07 190.30 1044.16 193.68 1047.19 194.42 C 1050.93 194.61 1054.34 192.48 1057.93 191.79 C 1059.32 192.79 1060.71 193.81 1062.10 194.84 C 1063.48 191.56 1064.86 188.28 1066.13 184.95 C 1068.98 187.18 1072.30 188.85 1076.02 188.76 C 1076.99 190.76 1077.95 192.76 1078.93 194.76 C 1081.06 192.81 1083.35 191.06 1085.73 189.41 C 1086.01 192.93 1086.33 196.47 1086.55 200.00 C 1091.11 199.38 1096.38 198.60 1098.49 193.90 C 1099.72 188.98 1105.28 183.41 1110.54 186.47 C 1113.91 188.40 1117.80 188.74 1121.60 188.36 C 1121.52 189.34 1121.46 190.32 1121.41 191.31 C 1122.95 189.34 1124.41 187.30 1125.79 185.20 C 1132.87 186.87 1139.73 189.93 1145.08 194.94 C 1152.65 202.87 1157.79 213.15 1160.27 223.76 C 1159.24 233.75 1155.99 243.39 1153.44 253.07 C 1150.35 251.93 1147.28 250.68 1144.25 249.49 C 1141.73 251.93 1139.24 254.40 1136.71 256.81 C 1139.50 258.07 1141.94 260.52 1145.00 261.29 C 1149.14 261.21 1153.13 259.87 1156.97 258.41 C 1160.17 261.34 1163.74 263.80 1168.05 264.89 C 1168.26 268.06 1169.37 271.07 1171.40 273.53 C 1172.86 272.26 1174.34 271.00 1175.81 269.73 C 1179.98 273.82 1184.14 278.82 1184.09 285.00 C 1183.75 289.79 1184.01 294.74 1182.73 299.42 C 1181.51 303.79 1175.94 304.89 1174.58 309.20 C 1171.89 316.88 1170.53 324.93 1168.77 332.86 C 1168.29 335.58 1166.40 337.64 1164.49 339.48 C 1161.64 337.92 1158.79 336.36 1155.92 334.87 C 1154.82 338.52 1153.74 342.17 1152.73 345.85 C 1150.17 346.70 1147.69 347.87 1145.02 348.33 C 1140.71 347.36 1137.93 343.27 1139.41 338.77 C 1127.98 338.39 1116.73 340.70 1105.37 341.40 C 1098.28 341.86 1091.06 340.33 1084.12 342.15 C 1079.46 343.26 1074.63 343.06 1069.98 344.10 C 1062.79 346.39 1055.57 349.00 1049.24 353.21 C 1041.29 358.57 1038.88 368.65 1032.28 375.26 C 1026.92 381.35 1018.24 382.81 1012.73 388.72 C 1009.81 392.87 1008.12 397.69 1005.98 402.25 C 1006.48 390.40 1007.11 378.56 1008.18 366.76 C 1003.00 367.78 997.71 367.91 992.48 368.38 C 986.55 368.88 983.80 362.62 980.20 359.08 C 976.49 355.87 974.46 350.71 969.63 348.93 C 960.42 345.16 949.86 342.83 943.71 334.24 C 940.60 330.41 936.83 324.25 940.52 319.63 C 942.91 316.14 945.56 312.82 947.86 309.25 C 945.14 308.91 942.45 308.52 939.77 308.00 C 936.58 310.55 932.78 312.16 928.72 312.70 C 928.65 311.49 928.64 310.30 928.60 309.09 C 923.01 309.72 917.39 310.01 911.80 310.65 C 912.68 307.08 913.60 303.48 915.26 300.19 C 917.87 297.93 921.33 296.40 922.95 293.18 C 924.28 290.97 925.15 288.29 927.33 286.72 C 931.57 285.67 936.05 286.30 940.42 286.00 C 941.03 287.50 941.69 289.00 942.39 290.49 C 942.81 284.19 943.30 277.90 943.36 271.59 C 943.29 266.75 946.16 262.52 946.53 257.78 C 945.68 249.28 941.93 240.33 946.09 232.13 C 947.39 227.69 952.58 226.76 956.04 224.61 C 956.15 222.94 956.22 221.27 956.34 219.61 C 959.94 219.49 964.00 219.46 966.75 216.75 C 969.93 213.66 974.61 213.63 978.50 211.95 C 984.39 208.24 988.70 201.55 987.53 194.39 C 989.86 193.46 992.29 192.78 994.55 191.57 C 996.80 186.18 993.39 177.26 1000.16 174.95 C 1003.27 173.93 1006.08 172.18 1009.16 171.08 Z" />
</g>
<g id="#8fcf1fff">
<path fill="#8fcf1f" fill-opacity="0" d=" M 874.09 296.09 C 876.04 294.75 878.44 295.63 880.32 296.64 C 887.34 300.44 895.21 302.16 902.70 304.82 C 906.45 302.30 910.63 300.21 915.26 300.19 C 913.60 303.48 912.68 307.08 911.80 310.65 C 917.39 310.01 923.01 309.72 928.60 309.09 C 928.64 310.30 928.65 311.49 928.72 312.70 C 932.78 312.16 936.58 310.55 939.77 308.00 C 942.45 308.52 945.14 308.91 947.86 309.25 C 945.56 312.82 942.91 316.14 940.52 319.63 C 936.83 324.25 940.60 330.41 943.71 334.24 C 949.86 342.83 960.42 345.16 969.63 348.93 C 974.46 350.71 976.49 355.87 980.20 359.08 C 983.80 362.62 986.55 368.88 992.48 368.38 C 997.71 367.91 1003.00 367.78 1008.18 366.76 C 1007.11 378.56 1006.48 390.40 1005.98 402.25 C 1005.80 405.13 1005.23 407.93 1004.95 410.83 C 1000.98 412.62 996.88 414.12 993.05 416.18 C 988.89 418.31 988.40 423.80 984.58 426.29 C 982.31 427.77 980.08 429.34 978.46 431.54 C 975.26 436.12 968.68 435.89 965.28 440.25 C 962.20 443.93 959.88 448.36 955.24 450.40 C 951.60 451.75 952.41 456.04 951.55 459.15 C 951.15 458.02 950.77 456.89 950.42 455.76 C 945.26 460.64 941.04 466.58 941.51 474.15 C 932.53 476.01 930.37 486.09 922.89 490.09 C 917.42 494.42 912.53 499.62 906.17 502.75 C 899.51 504.79 893.60 508.61 889.13 513.94 C 888.72 514.21 887.90 514.73 887.49 515.00 C 887.44 502.90 885.19 490.97 883.91 478.97 C 880.82 482.21 878.76 486.78 874.77 489.07 C 870.94 489.79 867.03 488.81 863.18 488.69 C 864.21 487.25 865.24 485.81 866.27 484.37 C 862.75 485.16 859.22 485.90 855.71 486.72 C 855.99 480.84 856.00 474.96 855.12 469.12 C 852.46 472.49 850.07 476.07 847.66 479.61 C 846.56 479.42 845.46 479.23 844.39 479.05 C 844.99 477.70 845.58 476.35 846.21 475.01 C 843.65 474.34 841.00 473.38 838.34 473.97 C 832.53 473.34 831.20 479.26 829.14 483.05 C 825.03 478.81 822.45 473.34 820.55 467.81 C 814.31 469.18 807.90 470.89 801.47 469.92 C 801.27 471.84 801.05 473.75 800.85 475.68 C 795.17 476.37 790.81 471.61 785.26 471.98 C 781.63 472.60 778.80 475.52 775.08 475.87 C 771.73 476.26 768.35 476.20 764.99 476.09 C 759.08 474.93 753.51 478.36 747.61 477.38 C 738.73 475.04 729.36 479.88 720.76 476.23 C 715.47 471.45 715.03 463.54 715.03 456.85 C 715.39 450.89 720.48 447.20 723.47 442.57 C 726.04 436.84 727.05 428.69 734.52 427.40 C 734.71 428.27 735.07 430.00 735.26 430.87 C 736.96 429.72 738.68 428.58 740.41 427.47 C 741.96 428.53 743.52 429.57 745.10 430.60 C 745.47 427.08 745.71 423.54 745.95 420.02 C 747.42 418.92 748.90 417.84 750.43 416.80 C 747.14 409.33 739.13 404.95 736.73 397.11 C 735.29 393.47 739.03 390.88 740.89 388.25 C 742.46 389.69 744.11 391.05 745.79 392.37 C 749.80 385.57 754.18 378.31 761.77 375.07 C 756.43 367.43 753.71 358.45 751.72 349.45 C 758.73 348.42 763.76 353.57 769.56 356.37 C 768.86 352.19 769.48 347.95 773.12 345.33 C 772.90 342.04 772.72 338.72 772.73 335.42 C 775.67 334.83 779.88 336.79 781.86 333.87 C 784.53 329.78 784.49 324.41 787.33 320.39 C 789.14 319.41 791.20 319.06 793.17 318.53 C 793.26 312.42 798.73 309.32 803.60 306.91 C 811.52 304.36 819.93 305.18 828.09 305.68 C 832.30 306.17 835.98 308.59 840.13 309.36 C 842.46 309.37 844.70 308.54 846.97 308.03 C 847.64 309.01 848.32 309.99 849.01 310.97 C 853.26 310.77 859.47 315.24 861.94 309.93 C 865.31 304.83 868.72 299.32 874.09 296.09 Z" />
</g>
<g id="#8f8f1fff">
<path fill="#8f8f1f" fill-opacity="0" d=" M 801.47 469.92 C 807.90 470.89 814.31 469.18 820.55 467.81 C 822.45 473.34 825.03 478.81 829.14 483.05 C 831.20 479.26 832.53 473.34 838.34 473.97 C 841.00 473.38 843.65 474.34 846.21 475.01 C 845.58 476.35 844.99 477.70 844.39 479.05 C 845.46 479.23 846.56 479.42 847.66 479.61 C 850.07 476.07 852.46 472.49 855.12 469.12 C 856.00 474.96 855.99 480.84 855.71 486.72 C 859.22 485.90 862.75 485.16 866.27 484.37 C 865.24 485.81 864.21 487.25 863.18 488.69 C 867.03 488.81 870.94 489.79 874.77 489.07 C 878.76 486.78 880.82 482.21 883.91 478.97 C 885.19 490.97 887.44 502.90 887.49 515.00 C 887.45 520.16 888.54 525.26 890.22 530.13 C 890.80 524.69 890.08 519.27 889.13 513.94 C 893.60 508.61 899.51 504.79 906.17 502.75 C 906.82 507.50 907.52 512.28 908.16 517.05 C 912.44 511.66 916.76 506.22 919.28 499.74 C 926.37 502.36 933.22 505.60 939.92 509.12 C 939.78 525.08 940.50 541.04 941.16 556.99 C 940.65 556.99 939.63 557.00 939.13 557.00 C 938.95 552.03 938.98 547.11 938.66 542.17 C 931.61 548.31 931.14 559.05 931.48 567.67 C 927.56 572.00 926.71 577.80 927.99 583.44 C 932.54 580.80 936.98 577.97 941.38 575.05 C 941.48 568.75 945.41 564.25 950.86 561.57 C 951.34 567.23 951.80 572.91 952.63 578.55 C 955.61 567.46 951.37 555.71 954.49 544.75 C 959.61 547.73 965.05 550.20 970.87 551.48 C 970.93 544.68 970.98 537.88 971.03 531.09 C 971.96 530.64 972.91 530.21 973.87 529.80 C 973.39 537.31 973.15 544.81 972.98 552.35 C 980.17 551.36 986.52 547.89 991.46 542.66 C 991.00 544.42 990.66 546.22 989.98 547.92 C 984.72 555.58 979.74 563.66 972.80 569.96 C 969.73 567.44 965.97 562.65 961.54 564.88 C 956.09 570.05 957.39 578.04 956.40 584.77 C 955.11 585.04 953.85 585.32 952.58 585.59 C 952.94 588.40 953.08 591.14 953.40 594.00 C 951.80 594.96 950.22 595.94 948.65 596.93 C 942.37 600.36 937.21 605.23 932.28 610.31 C 929.07 613.15 924.82 614.21 921.04 616.04 C 917.94 613.79 914.38 612.34 910.58 611.94 C 909.25 608.97 907.65 606.13 905.95 603.37 C 898.38 604.42 890.29 603.34 883.27 606.89 C 876.96 609.06 871.96 613.63 865.99 616.48 C 858.25 620.13 852.95 627.08 846.46 632.41 C 843.91 628.47 842.50 622.66 837.36 621.37 C 831.25 619.43 825.76 616.08 820.33 612.76 C 820.55 611.39 820.76 610.03 820.99 608.67 C 822.02 603.00 821.48 597.10 820.04 591.56 C 818.78 589.95 816.78 587.90 814.55 588.71 C 809.03 590.07 804.01 592.82 798.60 594.48 C 792.79 595.54 787.97 590.51 782.45 589.84 C 777.07 591.39 769.49 593.58 768.91 600.05 C 764.86 600.34 761.55 602.77 757.84 604.08 C 751.73 604.41 745.73 602.33 739.63 602.61 C 735.63 602.73 732.97 605.94 729.79 607.87 C 726.26 606.83 725.22 602.91 723.61 600.06 C 720.51 600.43 717.30 601.83 714.20 600.84 C 712.04 599.49 710.41 597.18 709.87 594.68 C 711.35 592.04 713.20 589.62 714.91 587.13 C 712.66 582.25 713.86 576.80 712.55 571.80 C 707.24 569.32 700.88 570.46 695.92 567.12 C 693.24 565.50 690.26 564.53 687.38 563.36 C 683.99 562.09 682.92 558.16 680.92 555.52 C 684.83 550.98 687.48 545.63 690.61 540.59 C 695.35 536.69 701.55 533.91 707.80 535.22 C 710.43 530.53 711.88 525.25 714.67 520.67 C 720.45 515.42 728.41 513.72 735.14 510.03 C 738.82 507.81 741.87 504.72 745.25 502.10 C 749.47 499.93 756.10 500.28 755.76 493.46 C 761.35 493.10 764.88 488.88 767.50 484.37 C 766.58 481.63 765.77 478.86 764.99 476.09 C 768.35 476.20 771.73 476.26 775.08 475.87 C 778.80 475.52 781.63 472.60 785.26 471.98 C 790.81 471.61 795.17 476.37 800.85 475.68 C 801.05 473.75 801.27 471.84 801.47 469.92 M 879.17 526.57 C 881.28 527.87 883.35 529.22 885.48 530.51 C 885.50 526.57 885.29 522.63 885.04 518.71 C 883.08 521.33 881.13 523.95 879.17 526.57 M 908.90 538.66 L 908.01 543.97 C 907.34 543.33 906.68 542.69 906.03 542.06 C 905.52 544.67 904.97 547.28 904.56 549.92 C 905.46 549.93 907.27 549.95 908.17 549.97 C 909.40 546.32 909.48 542.45 908.90 538.66 M 897.98 544.74 C 896.76 552.66 899.66 560.77 897.44 568.69 C 899.17 569.46 900.88 570.27 902.61 571.07 C 902.55 565.96 901.87 560.85 901.84 555.75 C 902.14 552.58 903.66 549.49 902.85 546.26 C 901.31 545.50 899.65 545.04 897.98 544.74 Z" />
<path fill="#8f8f1f" fill-opacity="0" d=" M 942.97 505.01 C 943.70 505.01 945.16 505.02 945.90 505.03 C 946.44 516.68 946.92 528.33 947.08 540.01 C 946.32 540.00 944.80 539.97 944.05 539.96 C 943.14 528.33 942.85 516.66 942.97 505.01 Z" />
</g>
<g id="#cf0f1fff">
<path fill="#cf0f1f" fill-opacity="0" d=" M 972.80 569.96 C 979.74 563.66 984.72 555.58 989.98 547.92 C 992.21 550.64 994.60 553.41 997.79 555.06 C 1000.78 556.69 1004.24 557.98 1006.08 561.07 C 1008.46 563.73 1008.03 567.50 1008.52 570.83 C 1014.86 576.82 1021.07 583.65 1029.60 586.47 C 1036.44 588.74 1042.61 592.50 1048.74 596.26 C 1048.74 611.59 1044.80 626.52 1042.70 641.63 C 1042.25 644.67 1043.65 647.50 1044.14 650.47 C 1045.35 646.52 1046.41 642.52 1047.57 638.56 C 1047.77 643.68 1047.34 648.88 1048.08 653.97 C 1050.09 654.60 1052.20 654.75 1054.30 654.93 C 1054.45 668.33 1049.89 681.29 1045.65 693.83 C 1043.84 696.31 1041.12 698.04 1038.89 700.14 C 1039.98 692.96 1042.15 685.88 1042.49 678.61 C 1042.65 674.67 1038.29 673.14 1035.51 671.43 C 1035.29 664.83 1035.92 657.89 1033.69 651.56 C 1029.84 647.65 1024.78 645.40 1020.08 642.76 C 1022.55 641.00 1025.16 639.44 1027.79 637.93 C 1025.06 635.61 1022.00 633.40 1020.52 630.03 C 1023.70 628.36 1027.33 629.31 1030.70 629.68 C 1031.43 627.27 1032.66 624.98 1033.03 622.48 C 1030.56 618.04 1025.47 616.06 1020.89 614.56 C 1017.12 613.31 1014.59 617.16 1011.55 618.58 C 1008.02 617.32 1005.04 614.92 1001.82 613.10 C 1003.27 608.16 1002.52 602.94 1000.15 598.42 C 995.70 600.07 991.82 602.94 987.77 605.36 C 985.95 601.99 984.43 598.40 984.22 594.51 C 983.54 592.17 983.87 588.98 981.49 587.57 C 978.87 585.91 975.89 584.99 973.04 583.87 C 971.01 585.90 969.01 587.95 967.03 590.01 C 963.56 588.12 959.97 586.41 956.40 584.77 C 957.39 578.04 956.09 570.05 961.54 564.88 C 965.97 562.65 969.73 567.44 972.80 569.96 M 1023.17 603.17 C 1022.64 604.79 1023.19 605.34 1024.83 604.83 C 1025.34 603.20 1024.78 602.64 1023.17 603.17 Z" />
</g>
<g id="#0f8f1fff">
<path fill="#0f8f1f" fill-opacity="0" d=" M 967.03 590.01 C 969.01 587.95 971.01 585.90 973.04 583.87 C 975.89 584.99 978.87 585.91 981.49 587.57 C 983.87 588.98 983.54 592.17 984.22 594.51 C 984.43 598.40 985.95 601.99 987.77 605.36 C 991.82 602.94 995.70 600.07 1000.15 598.42 C 1002.52 602.94 1003.27 608.16 1001.82 613.10 C 1005.04 614.92 1008.02 617.32 1011.55 618.58 C 1014.59 617.16 1017.12 613.31 1020.89 614.56 C 1025.47 616.06 1030.56 618.04 1033.03 622.48 C 1032.66 624.98 1031.43 627.27 1030.70 629.68 C 1027.33 629.31 1023.70 628.36 1020.52 630.03 C 1022.00 633.40 1025.06 635.61 1027.79 637.93 C 1025.16 639.44 1022.55 641.00 1020.08 642.76 C 1024.78 645.40 1029.84 647.65 1033.69 651.56 C 1035.92 657.89 1035.29 664.83 1035.51 671.43 C 1038.29 673.14 1042.65 674.67 1042.49 678.61 C 1042.15 685.88 1039.98 692.96 1038.89 700.14 C 1038.10 704.39 1036.09 708.61 1031.79 710.22 C 1030.34 716.05 1030.28 722.79 1025.83 727.37 C 1025.86 726.35 1025.91 724.30 1025.93 723.28 C 1021.83 726.49 1018.80 731.37 1013.78 733.17 C 1006.80 733.93 1002.39 727.23 998.83 722.28 C 996.98 723.80 995.41 725.89 993.13 726.76 C 987.50 726.87 982.75 723.40 978.25 720.46 C 977.40 721.09 976.55 721.73 975.72 722.39 C 975.96 720.09 976.09 717.57 974.34 715.79 C 970.42 710.97 967.88 704.97 963.01 701.03 C 961.32 699.32 959.37 702.28 957.86 702.76 C 954.07 704.81 951.26 708.76 947.16 710.11 C 939.18 708.03 931.62 704.41 923.88 701.55 C 929.44 696.69 935.56 690.73 934.65 682.64 C 928.99 682.71 922.71 682.85 918.30 678.69 C 914.90 675.24 912.00 671.20 909.76 666.91 C 911.65 663.31 915.22 661.06 918.13 658.36 C 922.18 658.20 926.52 659.29 930.52 658.07 C 934.57 656.31 937.23 652.44 941.21 650.55 C 945.12 648.57 949.89 647.69 952.66 643.99 C 954.18 642.49 955.13 639.63 957.71 639.86 C 965.40 640.35 972.90 636.68 980.57 638.60 C 985.09 638.90 989.00 641.15 993.15 642.69 C 997.24 640.09 1002.04 636.08 1000.59 630.49 C 998.97 627.40 995.77 625.70 993.03 623.78 C 988.07 620.42 982.68 617.05 976.52 616.83 C 972.34 616.32 967.57 617.95 963.98 615.07 C 960.21 612.32 956.30 609.79 952.26 607.46 C 948.40 605.48 949.52 600.43 948.65 596.93 C 950.22 595.94 951.80 594.96 953.40 594.00 C 953.08 591.14 952.94 588.40 952.58 585.59 C 953.85 585.32 955.11 585.04 956.40 584.77 C 959.97 586.41 963.56 588.12 967.03 590.01 Z" />
</g>
<g id="#cf8f9fff">
<path fill="#cf8f9f" fill-opacity="0" d=" M 932.28 610.31 C 937.21 605.23 942.37 600.36 948.65 596.93 C 949.52 600.43 948.40 605.48 952.26 607.46 C 956.30 609.79 960.21 612.32 963.98 615.07 C 967.57 617.95 972.34 616.32 976.52 616.83 C 982.68 617.05 988.07 620.42 993.03 623.78 C 995.77 625.70 998.97 627.40 1000.59 630.49 C 1002.04 636.08 997.24 640.09 993.15 642.69 C 989.00 641.15 985.09 638.90 980.57 638.60 C 972.90 636.68 965.40 640.35 957.71 639.86 C 955.13 639.63 954.18 642.49 952.66 643.99 C 949.89 647.69 945.12 648.57 941.21 650.55 C 937.23 652.44 934.57 656.31 930.52 658.07 C 926.52 659.29 922.18 658.20 918.13 658.36 C 916.91 655.88 915.73 653.39 914.49 650.94 C 906.05 657.60 896.79 663.20 887.05 667.73 C 888.00 670.13 888.99 672.51 889.95 674.91 C 884.42 676.59 879.23 679.11 874.08 681.69 C 869.55 679.07 864.44 677.53 859.27 676.93 C 854.78 677.57 850.95 680.27 846.93 682.16 C 845.16 681.09 843.42 680.02 841.68 678.95 C 838.72 680.13 835.71 681.20 832.59 681.86 C 828.35 682.72 824.75 685.28 820.90 687.11 C 819.35 684.20 817.29 681.50 816.56 678.25 C 818.71 674.38 823.15 672.50 825.40 668.71 C 825.80 663.27 820.07 660.86 816.09 658.74 C 813.84 660.87 811.59 663.01 809.31 665.11 C 808.89 657.83 804.76 649.60 809.65 642.94 C 810.10 642.15 810.61 641.40 811.12 640.65 C 811.75 637.57 812.92 634.64 813.71 631.61 C 814.30 626.84 812.77 622.02 813.76 617.28 C 814.65 613.42 818.25 611.17 820.99 608.67 C 820.76 610.03 820.55 611.39 820.33 612.76 C 825.76 616.08 831.25 619.43 837.36 621.37 C 842.50 622.66 843.91 628.47 846.46 632.41 C 852.95 627.08 858.25 620.13 865.99 616.48 C 871.96 613.63 876.96 609.06 883.27 606.89 C 890.29 603.34 898.38 604.42 905.95 603.37 C 907.65 606.13 909.25 608.97 910.58 611.94 C 914.38 612.34 917.94 613.79 921.04 616.04 C 924.82 614.21 929.07 613.15 932.28 610.31 Z" />
</g>
<g id="#4f101fff">
<path fill="#4f101f" fill-opacity="0" d=" M 1023.17 603.17 C 1024.78 602.64 1025.34 603.20 1024.83 604.83 C 1023.19 605.34 1022.64 604.79 1023.17 603.17 Z" />
</g>
<g id="#0f0f1fff">
<path fill="#0f0f1f" fill-opacity="0" d=" M 766.66 626.24 C 775.41 629.39 783.08 634.90 791.91 637.86 C 797.81 639.56 804.03 640.32 809.65 642.94 C 804.76 649.60 808.89 657.83 809.31 665.11 C 811.59 663.01 813.84 660.87 816.09 658.74 C 820.07 660.86 825.80 663.27 825.40 668.71 C 823.15 672.50 818.71 674.38 816.56 678.25 C 817.29 681.50 819.35 684.20 820.90 687.11 C 816.52 689.61 811.66 691.49 807.97 695.00 C 806.25 696.63 804.63 699.54 806.25 701.75 C 809.41 706.42 814.09 709.87 817.13 714.64 C 820.75 721.64 822.97 729.26 826.91 736.12 C 822.16 740.65 818.11 745.82 814.70 751.43 C 810.00 750.82 805.42 748.72 800.67 748.95 C 796.68 751.22 794.79 755.91 790.91 758.36 C 787.00 759.59 782.42 757.75 778.75 759.58 C 774.49 764.44 768.35 767.37 761.95 767.91 C 760.17 767.31 759.00 765.55 757.58 764.42 C 754.78 767.73 751.96 771.01 749.28 774.41 C 747.95 774.11 746.62 773.81 745.30 773.51 C 745.30 775.47 745.30 777.43 745.27 779.40 C 739.31 780.63 735.66 785.96 730.94 789.33 C 728.00 791.13 729.75 794.67 730.15 797.31 C 732.04 804.06 727.08 810.30 727.59 817.08 C 724.81 817.35 722.01 817.79 719.21 817.56 C 716.04 814.81 714.59 810.83 712.45 807.35 C 711.23 805.19 708.26 805.87 706.20 805.50 C 704.32 809.10 702.46 812.74 700.60 816.36 C 698.19 815.10 695.85 813.74 693.50 812.43 C 689.47 814.71 684.07 820.95 679.56 816.50 C 678.51 815.58 677.61 814.53 676.68 813.51 C 681.21 805.83 684.71 795.60 679.61 787.39 C 682.09 785.47 684.57 783.19 684.97 779.89 C 686.51 774.95 683.95 770.12 683.75 765.20 C 684.48 763.26 685.94 761.69 686.76 759.79 C 684.86 755.92 681.44 752.40 677.05 751.61 C 673.98 750.98 670.63 749.77 669.22 746.72 C 666.52 742.52 672.18 739.25 674.13 735.99 C 672.01 736.61 669.89 737.25 667.78 737.92 C 665.93 735.70 663.42 733.75 662.73 730.82 C 664.72 725.21 670.48 721.01 669.56 714.50 C 675.41 713.23 677.49 707.66 680.09 703.04 C 685.05 698.08 691.64 695.10 697.93 692.16 C 696.85 687.33 696.69 682.35 697.14 677.44 C 705.05 677.46 712.94 676.34 720.65 674.53 C 724.45 673.12 729.31 672.50 731.30 668.45 C 735.05 661.82 741.22 656.72 748.15 653.72 C 755.09 654.11 762.40 655.79 768.44 651.13 C 766.92 646.61 764.25 642.16 764.73 637.24 C 765.06 633.51 765.61 629.82 766.66 626.24 Z" />
</g>
<g id="#cf101fff">
<path fill="#cf101f" fill-opacity="0" d=" M 1044.17 639.80 C 1045.58 639.34 1046.09 641.73 1044.83 642.20 C 1043.40 642.64 1042.88 640.25 1044.17 639.80 Z" />
</g>
<g id="#0f8f9fff">
<path fill="#0f8f9f" fill-opacity="0" d=" M 887.05 667.73 C 896.79 663.20 906.05 657.60 914.49 650.94 C 915.73 653.39 916.91 655.88 918.13 658.36 C 915.22 661.06 911.65 663.31 909.76 666.91 C 912.00 671.20 914.90 675.24 918.30 678.69 C 922.71 682.85 928.99 682.71 934.65 682.64 C 935.56 690.73 929.44 696.69 923.88 701.55 C 920.24 700.05 916.31 699.51 912.40 699.35 C 911.93 708.88 908.44 719.41 899.78 724.50 C 899.56 729.45 900.10 735.30 895.77 738.74 C 890.81 742.59 884.66 744.76 878.67 746.39 C 872.77 746.60 865.80 742.73 861.08 748.04 C 860.65 748.37 859.78 749.04 859.34 749.37 C 845.14 749.63 830.97 752.22 817.82 757.70 C 816.79 755.60 815.76 753.51 814.70 751.43 C 818.11 745.82 822.16 740.65 826.91 736.12 C 822.97 729.26 820.75 721.64 817.13 714.64 C 814.09 709.87 809.41 706.42 806.25 701.75 C 804.63 699.54 806.25 696.63 807.97 695.00 C 811.66 691.49 816.52 689.61 820.90 687.11 C 824.75 685.28 828.35 682.72 832.59 681.86 C 835.71 681.20 838.72 680.13 841.68 678.95 C 843.42 680.02 845.16 681.09 846.93 682.16 C 850.95 680.27 854.78 677.57 859.27 676.93 C 864.44 677.53 869.55 679.07 874.08 681.69 C 879.23 679.11 884.42 676.59 889.95 674.91 C 888.99 672.51 888.00 670.13 887.05 667.73 Z" />
</g>
<g id="#4f0f9fff">
<path fill="#4f0f9f" fill-opacity="0" d=" M 912.40 699.35 C 916.31 699.51 920.24 700.05 923.88 701.55 C 931.62 704.41 939.18 708.03 947.16 710.11 C 951.26 708.76 954.07 704.81 957.86 702.76 C 959.37 702.28 961.32 699.32 963.01 701.03 C 967.88 704.97 970.42 710.97 974.34 715.79 C 976.09 717.57 975.96 720.09 975.72 722.39 C 972.20 725.79 967.34 726.67 962.82 727.94 C 956.41 729.51 953.48 736.01 949.72 740.78 C 954.75 744.69 960.03 748.28 965.63 751.33 C 962.44 753.60 959.18 755.78 955.83 757.79 C 958.12 763.11 958.96 768.85 959.53 774.58 C 965.00 778.45 970.33 782.54 975.60 786.68 C 977.50 785.14 979.44 783.64 981.38 782.14 C 983.93 790.50 981.71 799.93 974.83 805.59 C 973.72 801.64 972.87 797.62 971.72 793.68 C 966.02 797.02 959.09 797.41 952.83 795.60 C 952.47 793.87 951.77 790.41 951.41 788.67 C 949.66 790.72 947.69 792.65 946.50 795.10 C 945.65 799.33 945.98 803.70 945.91 808.00 C 947.97 809.18 950.04 810.37 952.12 811.55 C 946.29 816.48 938.20 814.18 932.32 810.71 C 930.26 807.02 932.65 803.51 934.29 800.35 C 928.96 796.28 922.27 798.46 916.19 798.30 C 912.42 797.91 911.62 802.46 909.73 804.92 C 908.10 798.42 906.16 791.82 907.86 785.10 C 903.99 780.47 897.45 779.68 891.94 778.07 C 893.46 776.33 894.99 774.60 896.54 772.89 C 894.19 772.51 891.82 772.26 889.44 772.14 C 889.50 769.31 891.25 765.52 888.76 763.37 C 883.00 760.39 875.90 762.07 870.09 759.23 C 866.49 756.04 864.05 751.77 861.08 748.04 C 865.80 742.73 872.77 746.60 878.67 746.39 C 884.66 744.76 890.81 742.59 895.77 738.74 C 900.10 735.30 899.56 729.45 899.78 724.50 C 908.44 719.41 911.93 708.88 912.40 699.35 M 890.74 743.98 C 891.16 745.39 891.55 746.83 891.99 748.26 C 893.00 747.84 894.02 747.44 895.05 747.03 C 894.62 746.06 894.21 745.10 893.81 744.15 C 893.04 744.10 891.51 744.02 890.74 743.98 Z" />
</g>
<g id="#8f0f1fff">
<path fill="#8f0f1f" fill-opacity="0" d=" M 975.72 722.39 C 976.55 721.73 977.40 721.09 978.25 720.46 C 982.75 723.40 987.50 726.87 993.13 726.76 C 995.41 725.89 996.98 723.80 998.83 722.28 C 1002.39 727.23 1006.80 733.93 1013.78 733.17 C 1018.80 731.37 1021.83 726.49 1025.93 723.28 C 1025.91 724.30 1025.86 726.35 1025.83 727.37 C 1025.06 735.55 1022.35 743.33 1019.88 751.09 C 1020.20 758.12 1021.77 765.07 1022.27 772.12 C 1024.47 773.01 1026.72 773.80 1028.98 774.62 C 1027.38 783.58 1024.06 792.26 1023.70 801.42 C 1023.85 813.67 1019.60 825.32 1016.84 837.11 C 1014.15 836.40 1011.35 836.19 1008.58 836.42 C 1000.81 837.09 992.71 833.14 985.38 837.32 C 983.47 840.66 983.45 844.69 982.03 848.24 C 979.70 847.47 977.45 846.30 974.98 846.08 C 971.25 846.66 968.03 849.90 964.08 848.95 C 958.24 847.52 953.12 844.17 947.65 841.83 C 947.57 837.36 944.37 831.83 948.16 828.14 C 953.78 822.64 959.07 815.94 958.27 807.52 C 956.19 808.82 954.16 810.19 952.12 811.55 C 950.04 810.37 947.97 809.18 945.91 808.00 C 945.98 803.70 945.65 799.33 946.50 795.10 C 947.69 792.65 949.66 790.72 951.41 788.67 C 951.77 790.41 952.47 793.87 952.83 795.60 C 959.09 797.41 966.02 797.02 971.72 793.68 C 972.87 797.62 973.72 801.64 974.83 805.59 C 981.71 799.93 983.93 790.50 981.38 782.14 C 979.44 783.64 977.50 785.14 975.60 786.68 C 970.33 782.54 965.00 778.45 959.53 774.58 C 958.96 768.85 958.12 763.11 955.83 757.79 C 959.18 755.78 962.44 753.60 965.63 751.33 C 960.03 748.28 954.75 744.69 949.72 740.78 C 953.48 736.01 956.41 729.51 962.82 727.94 C 967.34 726.67 972.20 725.79 975.72 722.39 Z" />
</g>
<g id="#cf8f1fff">
<path fill="#cf8f1f" fill-opacity="0" d=" M 890.74 743.98 C 891.51 744.02 893.04 744.10 893.81 744.15 C 894.21 745.10 894.62 746.06 895.05 747.03 C 894.02 747.44 893.00 747.84 891.99 748.26 C 891.55 746.83 891.16 745.39 890.74 743.98 Z" />
</g>
<g id="#cf0f9ffe">
<path fill="#cf0f9f" fill-opacity="0" d=" M 800.67 748.95 C 805.42 748.72 810.00 750.82 814.70 751.43 C 815.76 753.51 816.79 755.60 817.82 757.70 C 830.97 752.22 845.14 749.63 859.34 749.37 C 853.92 754.00 850.18 760.18 845.45 765.41 C 839.66 769.06 832.29 767.24 825.94 769.10 C 822.62 770.43 819.94 772.97 816.79 774.61 C 810.31 779.18 801.24 781.02 797.71 788.87 C 796.58 791.07 794.35 793.34 794.58 796.07 C 797.99 800.22 803.21 802.30 807.75 805.02 C 807.23 808.63 806.34 812.22 806.36 815.89 C 806.28 819.36 808.54 822.20 809.74 825.32 C 807.98 825.35 806.23 825.39 804.49 825.46 C 807.58 829.55 811.90 832.34 815.88 835.47 C 816.27 839.20 815.93 843.30 817.96 846.59 C 824.45 848.80 831.22 845.99 837.46 844.16 C 842.16 842.83 845.88 839.48 850.34 837.66 C 854.39 836.25 857.76 841.54 855.83 844.94 C 854.25 847.71 852.38 850.30 850.53 852.88 C 844.89 860.64 846.63 871.23 842.55 879.68 C 838.57 880.69 834.36 879.67 830.34 880.06 C 819.64 880.61 809.79 885.25 799.62 888.16 C 798.29 886.69 796.97 885.25 795.66 883.80 C 795.01 883.99 794.36 884.19 793.73 884.41 C 793.14 884.59 791.96 884.95 791.37 885.13 C 788.03 880.43 784.72 875.74 780.96 871.38 C 782.64 869.58 784.28 867.67 786.42 866.41 C 789.72 864.97 793.23 866.51 796.57 866.98 C 801.59 870.12 803.79 864.33 806.42 861.59 C 802.29 861.35 798.24 860.54 794.16 859.99 C 791.79 857.53 789.49 855.13 787.12 852.72 C 784.93 854.44 782.76 856.18 780.61 857.95 C 768.78 857.34 756.61 853.43 748.37 844.60 C 746.05 841.19 742.53 838.02 743.00 833.47 C 742.35 830.09 743.27 826.01 740.78 823.26 C 736.42 821.12 730.75 821.37 727.59 817.08 C 727.08 810.30 732.04 804.06 730.15 797.31 C 729.75 794.67 728.00 791.13 730.94 789.33 C 735.66 785.96 739.31 780.63 745.27 779.40 C 745.30 777.43 745.30 775.47 745.30 773.51 C 746.62 773.81 747.95 774.11 749.28 774.41 C 751.96 771.01 754.78 767.73 757.58 764.42 C 759.00 765.55 760.17 767.31 761.95 767.91 C 768.35 767.37 774.49 764.44 778.75 759.58 C 782.42 757.75 787.00 759.59 790.91 758.36 C 794.79 755.91 796.68 751.22 800.67 748.95 M 806.89 871.18 C 809.26 871.41 811.65 871.60 814.05 871.63 C 813.54 869.83 813.05 868.03 812.57 866.25 C 810.08 867.12 808.05 868.77 806.89 871.18 Z" />
</g>
<g id="#0f4f9fff">
<path fill="#0f4f9f" fill-opacity="0" d=" M 859.34 749.37 C 859.78 749.04 860.65 748.37 861.08 748.04 C 864.05 751.77 866.49 756.04 870.09 759.23 C 875.90 762.07 883.00 760.39 888.76 763.37 C 891.25 765.52 889.50 769.31 889.44 772.14 C 891.82 772.26 894.19 772.51 896.54 772.89 C 894.99 774.60 893.46 776.33 891.94 778.07 C 897.45 779.68 903.99 780.47 907.86 785.10 C 898.46 783.27 888.91 782.87 879.40 782.16 C 875.73 782.92 873.14 785.95 870.66 788.54 C 863.58 796.43 856.31 804.18 848.63 811.48 C 842.96 814.81 837.14 817.92 831.39 821.12 C 828.48 822.76 826.97 825.86 825.00 828.41 C 822.67 831.56 819.25 833.60 815.88 835.47 C 811.90 832.34 807.58 829.55 804.49 825.46 C 806.23 825.39 807.98 825.35 809.74 825.32 C 808.54 822.20 806.28 819.36 806.36 815.89 C 806.34 812.22 807.23 808.63 807.75 805.02 C 803.21 802.30 797.99 800.22 794.58 796.07 C 794.35 793.34 796.58 791.07 797.71 788.87 C 801.24 781.02 810.31 779.18 816.79 774.61 C 819.94 772.97 822.62 770.43 825.94 769.10 C 832.29 767.24 839.66 769.06 845.45 765.41 C 850.18 760.18 853.92 754.00 859.34 749.37 M 886.27 764.54 C 885.12 765.41 886.58 767.37 887.73 766.46 C 888.86 765.57 887.40 763.61 886.27 764.54 Z" />
</g>
<g id="#904f9fff">
<path fill="#904f9f" fill-opacity="0" d=" M 886.27 764.54 C 887.40 763.61 888.86 765.57 887.73 766.46 C 886.58 767.37 885.12 765.41 886.27 764.54 Z" />
</g>
<g id="#4f8f1fff">
<path fill="#4f8f1f" fill-opacity="0" d=" M 879.40 782.16 C 888.91 782.87 898.46 783.27 907.86 785.10 C 906.16 791.82 908.10 798.42 909.73 804.92 C 911.62 802.46 912.42 797.91 916.19 798.30 C 922.27 798.46 928.96 796.28 934.29 800.35 C 932.65 803.51 930.26 807.02 932.32 810.71 C 938.20 814.18 946.29 816.48 952.12 811.55 C 954.16 810.19 956.19 808.82 958.27 807.52 C 959.07 815.94 953.78 822.64 948.16 828.14 C 944.37 831.83 947.57 837.36 947.65 841.83 C 942.80 847.64 937.28 852.83 931.53 857.73 C 934.36 862.85 937.85 867.64 940.17 873.05 C 936.62 874.64 934.72 878.02 932.34 880.82 C 927.17 882.32 922.58 884.97 918.07 887.85 C 914.75 888.39 911.31 887.44 907.95 887.50 C 907.14 884.24 905.08 880.83 906.38 877.44 C 908.00 873.23 910.40 869.10 914.13 866.45 C 919.48 862.80 922.87 856.70 923.73 850.34 C 919.42 851.09 915.30 852.60 911.19 854.03 C 912.15 852.30 913.10 850.58 914.07 848.87 C 913.28 847.93 911.71 846.06 910.92 845.12 C 905.05 844.56 899.29 842.72 893.40 842.86 C 889.63 844.80 888.65 849.46 886.69 852.90 C 884.50 857.96 879.14 861.32 878.47 867.07 C 877.81 871.96 877.31 876.90 875.39 881.52 C 872.02 883.50 867.47 883.05 864.50 880.54 C 862.67 878.49 862.35 875.54 860.59 873.46 C 857.76 870.26 854.25 867.59 852.07 863.87 C 850.17 860.54 850.79 856.53 850.53 852.88 C 852.38 850.30 854.25 847.71 855.83 844.94 C 857.76 841.54 854.39 836.25 850.34 837.66 C 845.88 839.48 842.16 842.83 837.46 844.16 C 831.22 845.99 824.45 848.80 817.96 846.59 C 815.93 843.30 816.27 839.20 815.88 835.47 C 819.25 833.60 822.67 831.56 825.00 828.41 C 826.97 825.86 828.48 822.76 831.39 821.12 C 837.14 817.92 842.96 814.81 848.63 811.48 C 856.31 804.18 863.58 796.43 870.66 788.54 C 873.14 785.95 875.73 782.92 879.40 782.16 Z" />
</g>
<g id="#0f0f9fff">
<path fill="#0f0f9f" fill-opacity="0" d=" M 985.38 837.32 C 992.71 833.14 1000.81 837.09 1008.58 836.42 C 1011.35 836.19 1014.15 836.40 1016.84 837.11 C 1017.50 837.27 1018.82 837.58 1019.48 837.73 C 1018.47 844.25 1017.60 850.92 1014.92 857.01 C 1011.13 865.17 1012.20 874.68 1008.97 883.00 C 1003.92 891.39 994.99 896.52 989.77 904.81 C 987.47 908.44 984.39 911.43 981.18 914.25 C 974.85 920.42 972.65 929.17 969.00 936.93 C 965.44 934.85 962.19 929.59 957.56 931.64 C 953.78 933.11 950.08 930.91 946.58 929.75 C 947.50 927.50 948.56 925.31 949.59 923.12 C 948.52 920.59 947.40 917.92 946.51 915.38 C 950.04 913.15 953.68 911.04 957.22 908.80 C 955.99 905.02 953.93 901.58 950.82 899.06 C 947.97 896.99 950.21 893.39 950.93 890.80 C 947.41 886.74 945.50 881.59 944.45 876.38 C 943.01 875.27 941.57 874.17 940.17 873.05 C 937.85 867.64 934.36 862.85 931.53 857.73 C 937.28 852.83 942.80 847.64 947.65 841.83 C 953.12 844.17 958.24 847.52 964.08 848.95 C 968.03 849.90 971.25 846.66 974.98 846.08 C 977.45 846.30 979.70 847.47 982.03 848.24 C 983.45 844.69 983.47 840.66 985.38 837.32 M 1015.53 840.12 C 1015.68 840.44 1015.96 841.09 1016.10 841.41 C 1018.69 842.02 1016.94 837.93 1015.53 840.12 Z" />
</g>
<g id="#8f109fff">
<path fill="#8f109f" fill-opacity="0" d=" M 1015.53 840.12 C 1016.94 837.93 1018.69 842.02 1016.10 841.41 C 1015.96 841.09 1015.68 840.44 1015.53 840.12 Z" />
</g>
<g id="#0f4f1fff">
<path fill="#0f4f1f" fill-opacity="0" d=" M 893.40 842.86 C 899.29 842.72 905.05 844.56 910.92 845.12 C 911.71 846.06 913.28 847.93 914.07 848.87 C 913.10 850.58 912.15 852.30 911.19 854.03 C 915.30 852.60 919.42 851.09 923.73 850.34 C 922.87 856.70 919.48 862.80 914.13 866.45 C 910.40 869.10 908.00 873.23 906.38 877.44 C 905.08 880.83 907.14 884.24 907.95 887.50 L 908.09 887.95 C 905.47 889.09 902.65 890.46 901.40 893.21 C 902.28 898.50 909.96 898.53 910.57 903.87 C 909.93 906.01 908.00 907.34 906.48 908.84 C 909.89 910.04 913.07 911.92 916.55 912.94 C 920.17 913.75 924.22 913.54 927.35 915.86 C 929.27 919.90 929.21 924.53 930.04 928.89 C 926.77 931.38 922.72 933.69 921.82 938.05 C 918.69 938.31 915.56 938.45 912.42 938.43 C 909.55 942.26 905.72 945.13 901.45 947.21 C 897.62 943.86 893.17 941.41 888.14 940.59 C 887.00 943.15 885.79 945.70 884.83 948.36 C 883.95 951.60 884.85 955.02 884.24 958.31 C 880.29 961.35 876.26 964.29 872.32 967.34 C 867.83 970.91 861.65 969.51 856.38 969.98 C 852.51 969.80 849.55 967.05 846.60 964.90 C 845.92 966.47 845.23 968.05 844.55 969.65 C 839.62 967.44 836.34 963.09 832.34 959.69 C 828.42 956.70 823.67 960.46 819.78 961.26 C 818.25 958.16 819.07 954.97 820.76 952.16 C 819.52 950.37 817.07 948.74 817.76 946.28 C 819.35 940.65 818.97 934.74 816.92 929.28 C 819.81 926.31 822.99 923.38 824.71 919.55 C 825.27 914.64 823.67 909.76 822.90 904.94 C 813.41 904.34 803.70 902.63 794.32 904.92 C 792.27 901.27 788.97 897.62 789.38 893.15 C 790.26 889.98 792.21 887.28 793.73 884.41 C 794.36 884.19 795.01 883.99 795.66 883.80 C 796.97 885.25 798.29 886.69 799.62 888.16 C 809.79 885.25 819.64 880.61 830.34 880.06 C 834.36 879.67 838.57 880.69 842.55 879.68 C 846.63 871.23 844.89 860.64 850.53 852.88 C 850.79 856.53 850.17 860.54 852.07 863.87 C 854.25 867.59 857.76 870.26 860.59 873.46 C 862.35 875.54 862.67 878.49 864.50 880.54 C 867.47 883.05 872.02 883.50 875.39 881.52 C 877.31 876.90 877.81 871.96 878.47 867.07 C 879.14 861.32 884.50 857.96 886.69 852.90 C 888.65 849.46 889.63 844.80 893.40 842.86 Z" />
</g>
<g id="#4f8f9fff">
<path fill="#4f8f9f" fill-opacity="0" d=" M 806.89 871.18 C 808.05 868.77 810.08 867.12 812.57 866.25 C 813.05 868.03 813.54 869.83 814.05 871.63 C 811.65 871.60 809.26 871.41 806.89 871.18 Z" />
</g>
<g id="#eeeebfff">
<path fill="#eeeebf" fill-opacity="0" d=" M 794.32 904.92 C 803.70 902.63 813.41 904.34 822.90 904.94 C 823.67 909.76 825.27 914.64 824.71 919.55 C 822.99 923.38 819.81 926.31 816.92 929.28 C 818.97 934.74 819.35 940.65 817.76 946.28 C 815.42 945.25 813.14 944.12 810.88 942.96 C 809.22 944.51 807.60 946.10 805.94 947.67 C 803.87 947.07 801.79 946.50 799.71 946.01 C 799.08 942.74 798.38 939.49 797.69 936.26 C 788.61 935.75 779.12 935.17 770.76 939.51 C 769.14 935.07 772.69 931.37 775.56 928.49 C 778.97 925.79 784.03 926.39 787.19 923.21 C 791.18 920.06 793.76 915.56 796.26 911.25 C 797.58 909.04 794.99 906.91 794.32 904.92 Z" />
</g>
<g id="#8f4f1fff">
<path fill="#8f4f1f" fill-opacity="0" d=" M 770.76 939.51 C 779.12 935.17 788.61 935.75 797.69 936.26 C 798.38 939.49 799.08 942.74 799.71 946.01 C 799.65 948.27 795.20 947.19 793.31 947.64 C 791.66 951.02 790.02 954.40 788.61 957.89 C 787.11 956.56 785.63 955.22 784.15 953.90 C 783.91 959.30 786.27 965.98 782.69 970.71 C 777.01 974.24 769.68 972.96 763.38 974.83 C 761.38 964.95 763.10 952.55 771.07 945.68 C 770.99 944.14 770.83 941.05 770.76 939.51 M 774.16 961.16 C 773.24 965.16 778.16 960.24 774.16 961.16 Z" />
</g>
<g id="#10cf20ff">
<path fill="#10cf20" fill-opacity="0" d=" M 774.16 961.16 C 778.16 960.24 773.24 965.16 774.16 961.16 Z" />
</g>
</svg>
