<?xml version="1.0" encoding="UTF-8" ?>
<!DOCTYPE svg PUBLIC "-//W3C//DTD SVG 1.1//EN" "http://www.w3.org/Graphics/SVG/1.1/DTD/svg11.dtd">
<svg width="1920pt" height="1080pt" viewBox="0 0 1920 1080" version="1.1" xmlns="http://www.w3.org/2000/svg">
<g id="#7fbf3fff">
<path fill="#7fbf3f" fill-opacity="0" d=" M 1066.70 220.96 C 1074.01 219.63 1081.42 218.39 1088.89 218.49 C 1092.06 218.84 1094.34 221.44 1096.77 223.24 C 1107.96 233.12 1117.98 245.01 1131.96 251.09 C 1141.34 255.94 1151.93 258.24 1160.70 264.30 C 1166.80 267.95 1172.24 272.92 1179.27 274.76 C 1187.39 276.89 1195.87 276.65 1204.14 277.95 C 1208.77 278.77 1211.13 283.35 1212.89 287.23 C 1215.22 292.43 1217.76 298.21 1216.02 303.98 C 1210.76 318.16 1205.04 332.18 1200.31 346.55 C 1197.67 344.13 1195.44 341.31 1193.15 338.59 C 1189.41 346.93 1185.33 355.26 1183.21 364.20 C 1175.81 361.81 1168.43 356.73 1160.37 358.62 C 1154.66 361.92 1152.35 369.18 1146.32 372.11 C 1142.38 373.50 1137.82 372.80 1134.25 370.72 C 1128.50 367.44 1126.39 359.95 1119.60 358.11 C 1114.20 356.92 1108.55 357.88 1103.17 356.64 C 1094.41 354.63 1086.97 348.90 1078.19 347.00 C 1069.26 345.11 1061.04 350.35 1052.14 349.19 C 1052.79 343.99 1054.95 338.84 1054.25 333.55 C 1053.60 329.27 1048.71 328.36 1045.32 327.10 C 1037.06 324.78 1029.64 319.73 1020.79 319.69 C 1012.70 318.74 1003.68 316.11 999.35 308.58 C 996.59 304.84 995.97 298.51 1000.79 296.13 C 1007.47 293.10 1015.11 289.58 1018.03 282.34 C 1020.27 268.15 1018.82 253.62 1021.91 239.51 C 1027.79 239.47 1033.95 240.69 1039.64 238.65 C 1045.51 236.60 1051.13 233.76 1056.23 230.18 C 1060.08 227.53 1062.54 223.21 1066.70 220.96 M 1032.20 260.10 C 1033.84 260.86 1035.52 261.62 1037.19 262.36 C 1037.91 260.34 1038.59 258.30 1039.22 256.25 C 1036.76 257.33 1034.40 258.60 1032.20 260.10 Z" />
</g>
<g id="#7f7fbffe">
<path fill="#7f7fbf" fill-opacity="0" d=" M 980.46 236.70 C 987.12 236.68 993.18 233.36 999.74 232.94 C 1007.29 234.47 1014.35 237.91 1021.91 239.51 C 1018.82 253.62 1020.27 268.15 1018.03 282.34 C 1015.11 289.58 1007.47 293.10 1000.79 296.13 C 995.97 298.51 996.59 304.84 999.35 308.58 C 1003.68 316.11 1012.70 318.74 1020.79 319.69 C 1021.77 322.21 1022.77 324.73 1023.86 327.21 C 1020.28 329.32 1016.34 332.52 1011.91 331.05 C 1002.29 327.88 993.26 320.74 982.60 322.56 C 973.23 326.64 973.97 340.78 981.73 346.17 C 986.26 349.34 991.09 354.23 988.64 360.40 C 984.98 363.55 980.09 365.08 976.85 368.79 C 971.71 374.45 968.23 381.37 964.16 387.80 C 947.77 384.63 930.88 382.63 915.63 375.40 C 909.47 372.47 904.84 367.26 899.77 362.86 C 900.07 358.09 900.35 353.32 901.10 348.60 C 902.48 343.87 902.21 338.16 898.32 334.67 C 889.41 329.90 879.08 328.87 869.15 329.71 C 869.02 327.27 868.63 324.77 869.33 322.38 C 876.27 317.15 885.70 318.17 892.89 313.79 C 895.58 309.61 890.75 305.56 887.39 303.71 C 880.28 299.93 873.58 294.57 871.68 286.26 C 874.12 283.54 876.66 280.86 878.68 277.80 C 881.82 272.15 882.10 265.30 886.00 260.00 C 887.15 256.13 891.16 255.43 894.47 254.66 C 909.09 251.84 924.39 251.13 938.20 245.06 C 943.48 241.21 947.97 235.51 954.99 234.88 C 963.57 232.83 971.87 237.58 980.46 236.70 M 977.98 262.99 C 977.99 264.33 977.99 265.66 978.01 267.00 C 978.77 266.99 980.29 266.98 981.05 266.97 C 981.00 266.28 980.91 264.90 980.87 264.21 C 979.89 263.80 978.93 263.40 977.98 262.99 Z" />
</g>
<g id="#003fbfff">
<path fill="#003fbf" fill-opacity="0" d=" M 1032.20 260.10 C 1034.40 258.60 1036.76 257.33 1039.22 256.25 C 1038.59 258.30 1037.91 260.34 1037.19 262.36 C 1035.52 261.62 1033.84 260.86 1032.20 260.10 Z" />
</g>
<g id="#007fbfff">
<path fill="#007fbf" fill-opacity="0" d=" M 977.98 262.99 C 978.93 263.40 979.89 263.80 980.87 264.21 C 980.91 264.90 981.00 266.28 981.05 266.97 C 980.29 266.98 978.77 266.99 978.01 267.00 C 977.99 265.66 977.99 264.33 977.98 262.99 Z" />
</g>
<g id="#3f7fbfff">
<path fill="#3f7fbf" fill-opacity="0" d=" M 842.03 299.10 C 853.58 301.25 863.03 292.51 871.68 286.26 C 873.58 294.57 880.28 299.93 887.39 303.71 C 890.75 305.56 895.58 309.61 892.89 313.79 C 885.70 318.17 876.27 317.15 869.33 322.38 C 868.63 324.77 869.02 327.27 869.15 329.71 C 879.08 328.87 889.41 329.90 898.32 334.67 C 902.21 338.16 902.48 343.87 901.10 348.60 C 898.99 351.87 896.53 354.94 894.73 358.39 C 892.09 367.37 892.33 377.44 887.77 385.83 C 884.78 389.47 878.80 392.97 874.40 389.69 C 870.06 387.02 865.85 384.00 861.14 382.03 C 856.10 385.00 853.35 390.43 849.88 394.92 C 847.92 398.01 844.98 400.90 844.60 404.68 C 846.28 411.84 856.57 410.69 860.30 415.76 C 861.33 419.25 860.50 423.61 857.25 425.61 C 854.53 426.26 851.89 426.56 849.17 426.89 C 838.43 420.91 829.96 411.86 820.07 404.70 C 815.17 407.19 810.43 410.10 805.32 412.10 C 796.45 415.76 789.16 405.56 780.42 408.64 C 775.24 410.52 768.27 414.66 763.41 409.67 C 759.75 403.76 756.13 397.72 750.66 393.25 C 747.80 395.66 744.97 398.09 742.05 400.41 C 744.28 405.83 747.24 410.92 749.15 416.46 C 750.13 420.23 748.79 424.06 748.12 427.75 C 741.18 428.40 735.72 423.44 731.37 418.65 C 727.23 413.85 723.67 408.56 719.16 404.08 C 726.19 394.33 736.75 386.68 740.87 375.05 C 744.44 362.98 740.80 349.73 746.60 338.17 C 753.25 337.46 760.33 337.60 766.50 334.62 C 774.08 330.92 780.29 325.09 786.41 319.41 C 791.19 314.82 794.86 309.21 799.76 304.76 C 804.10 300.69 810.46 300.80 816.02 300.52 C 824.68 300.02 833.34 297.27 842.03 299.10 Z" />
</g>
<g id="#3f003fff">
<path fill="#3f003f" fill-opacity="0" d=" M 626.73 298.75 C 633.73 304.33 638.63 311.86 644.53 318.47 C 649.60 321.36 656.26 320.11 660.82 316.79 C 665.23 313.76 669.23 309.51 674.99 309.31 C 683.33 310.49 684.99 321.56 693.42 322.82 C 699.91 325.62 706.76 323.40 713.40 322.96 C 721.51 324.95 727.27 331.40 734.20 335.61 C 738.11 337.24 742.46 337.32 746.60 338.17 C 740.80 349.73 744.44 362.98 740.87 375.05 C 736.75 386.68 726.19 394.33 719.16 404.08 C 708.91 402.43 699.09 397.92 688.54 398.61 C 679.95 398.65 671.24 401.63 662.71 399.76 C 657.43 398.34 655.87 392.41 652.37 388.89 C 648.72 386.41 644.16 385.99 640.17 384.24 C 638.31 380.51 636.16 376.80 632.89 374.11 C 625.68 367.93 615.43 367.62 607.77 362.19 C 603.42 358.33 602.95 352.15 601.81 346.85 C 606.62 345.60 614.89 346.32 615.73 339.68 C 616.08 331.40 606.87 325.47 607.93 317.02 C 611.71 308.88 619.40 303.49 626.73 298.75 Z" />
</g>
<g id="#0000bfff">
<path fill="#0000bf" fill-opacity="0" d=" M 1020.79 319.69 C 1029.64 319.73 1037.06 324.78 1045.32 327.10 C 1048.71 328.36 1053.60 329.27 1054.25 333.55 C 1054.95 338.84 1052.79 343.99 1052.14 349.19 C 1061.04 350.35 1069.26 345.11 1078.19 347.00 C 1086.97 348.90 1094.41 354.63 1103.17 356.64 C 1108.55 357.88 1114.20 356.92 1119.60 358.11 C 1126.39 359.95 1128.50 367.44 1134.25 370.72 C 1137.82 372.80 1142.38 373.50 1146.32 372.11 C 1152.35 369.18 1154.66 361.92 1160.37 358.62 C 1168.43 356.73 1175.81 361.81 1183.21 364.20 C 1181.74 376.63 1179.72 389.77 1184.06 401.87 C 1175.52 403.15 1166.20 402.88 1158.52 407.40 C 1154.82 409.28 1151.16 411.87 1146.85 411.90 C 1141.19 411.63 1135.80 408.80 1130.12 409.50 C 1124.32 411.80 1118.80 415.65 1112.32 415.55 C 1098.62 415.24 1086.16 421.84 1073.81 426.88 C 1063.70 431.07 1051.91 425.58 1042.20 431.30 C 1037.40 433.41 1033.07 438.33 1027.40 437.57 C 1018.05 434.88 1010.28 428.76 1002.09 423.80 C 996.12 420.16 988.75 421.37 982.27 422.46 C 975.95 416.85 971.35 409.14 970.33 400.67 C 969.77 395.79 967.03 391.63 964.16 387.80 C 968.23 381.37 971.71 374.45 976.85 368.79 C 980.09 365.08 984.98 363.55 988.64 360.40 C 991.09 354.23 986.26 349.34 981.73 346.17 C 973.97 340.78 973.23 326.64 982.60 322.56 C 993.26 320.74 1002.29 327.88 1011.91 331.05 C 1016.34 332.52 1020.28 329.32 1023.86 327.21 C 1022.77 324.73 1021.77 322.21 1020.79 319.69 Z" />
</g>
<g id="#3f7f3fff">
<path fill="#3f7f3f" fill-opacity="0" d=" M 1277.38 338.37 C 1282.52 335.24 1286.20 341.71 1289.07 344.98 C 1292.16 350.04 1297.76 352.26 1302.99 354.36 C 1303.45 359.18 1304.50 364.19 1302.94 368.90 C 1301.53 372.91 1299.46 376.65 1297.82 380.56 C 1303.42 384.70 1310.88 387.38 1314.58 393.54 C 1317.52 397.95 1312.48 402.07 1310.88 405.88 C 1304.25 416.39 1298.25 427.28 1291.23 437.54 C 1288.14 435.40 1285.06 433.20 1282.02 431.04 C 1280.18 450.64 1278.75 470.28 1277.11 489.89 C 1271.16 487.77 1265.14 485.80 1259.22 483.68 C 1254.94 473.93 1245.13 468.23 1239.80 459.24 C 1233.95 442.93 1239.03 424.47 1231.46 408.61 C 1229.41 403.54 1225.32 398.95 1219.94 397.49 C 1208.95 397.63 1203.53 408.54 1197.38 415.91 C 1191.46 412.86 1186.85 407.94 1184.06 401.87 C 1179.72 389.77 1181.74 376.63 1183.21 364.20 C 1185.33 355.26 1189.41 346.93 1193.15 338.59 C 1195.44 341.31 1197.67 344.13 1200.31 346.55 C 1207.81 353.63 1218.87 352.98 1227.82 357.12 C 1235.52 360.41 1243.69 364.74 1252.32 362.31 C 1262.93 356.80 1265.98 342.99 1277.38 338.37 Z" />
</g>
<g id="#bf7fbfff">
<path fill="#bf7fbf" fill-opacity="0" d=" M 588.26 356.12 C 590.93 350.93 596.46 348.36 601.81 346.85 C 602.95 352.15 603.42 358.33 607.77 362.19 C 615.43 367.62 625.68 367.93 632.89 374.11 C 636.16 376.80 638.31 380.51 640.17 384.24 C 638.71 390.54 635.11 395.98 630.22 400.16 C 621.62 396.24 611.82 393.37 602.69 397.51 C 605.30 405.23 611.10 411.51 618.19 415.44 C 625.28 420.11 634.33 425.24 634.81 434.79 C 636.58 441.83 632.78 448.13 627.80 452.61 C 623.61 450.18 619.89 447.05 616.39 443.72 C 600.33 454.01 588.55 469.44 574.48 482.09 C 570.64 480.68 566.69 479.33 563.43 476.78 C 554.66 458.76 546.03 440.66 537.22 422.65 C 530.78 409.21 524.89 395.49 518.04 382.24 C 526.45 380.35 536.35 381.34 543.14 375.11 C 547.75 371.69 551.17 364.86 557.76 365.54 C 564.83 368.51 571.32 372.92 578.88 374.70 C 582.80 368.90 585.43 362.46 588.26 356.12 Z" />
</g>
<g id="#bf003fff">
<path fill="#bf003f" fill-opacity="0" d=" M 894.73 358.39 C 896.53 354.94 898.99 351.87 901.10 348.60 C 900.35 353.32 900.07 358.09 899.77 362.86 C 904.84 367.26 909.47 372.47 915.63 375.40 C 930.88 382.63 947.77 384.63 964.16 387.80 C 967.03 391.63 969.77 395.79 970.33 400.67 C 971.35 409.14 975.95 416.85 982.27 422.46 C 980.38 425.71 977.73 428.89 977.63 432.82 C 977.33 441.37 979.73 449.78 979.52 458.32 C 979.21 463.42 974.31 466.16 970.51 468.65 C 971.25 482.58 973.91 496.51 979.95 509.18 C 973.92 505.31 967.41 502.27 961.21 498.72 C 955.05 495.36 948.91 491.20 941.76 490.43 C 935.93 490.19 930.02 490.40 924.49 492.35 C 920.56 493.77 916.25 493.78 912.23 492.64 C 903.35 489.88 896.99 482.48 888.75 478.61 C 880.63 478.41 874.69 485.43 868.08 489.10 C 861.59 492.56 862.88 501.20 858.10 506.06 C 848.17 516.81 831.41 519.17 818.23 513.56 C 813.68 510.93 809.54 507.73 804.95 505.21 C 798.07 501.36 788.35 498.86 785.61 490.63 C 784.25 480.14 791.06 470.85 796.31 462.46 C 806.78 453.99 819.24 448.32 829.25 439.23 C 834.88 433.73 841.35 428.77 849.17 426.89 C 851.89 426.56 854.53 426.26 857.25 425.61 C 860.50 423.61 861.33 419.25 860.30 415.76 C 856.57 410.69 846.28 411.84 844.60 404.68 C 844.98 400.90 847.92 398.01 849.88 394.92 C 853.35 390.43 856.10 385.00 861.14 382.03 C 865.85 384.00 870.06 387.02 874.40 389.69 C 878.80 392.97 884.78 389.47 887.77 385.83 C 892.33 377.44 892.09 367.37 894.73 358.39 Z" />
</g>
<g id="#3f00bfff">
<path fill="#3f00bf" fill-opacity="0" d=" M 463.65 357.95 C 472.85 357.46 482.41 356.97 490.95 361.14 C 497.71 366.11 501.63 373.75 507.07 379.97 C 509.69 383.26 514.37 382.41 518.04 382.24 C 524.89 395.49 530.78 409.21 537.22 422.65 C 546.03 440.66 554.66 458.76 563.43 476.78 C 559.10 473.78 553.61 469.55 548.15 472.18 C 542.87 477.90 539.22 484.85 535.12 491.42 C 529.54 492.29 523.34 492.64 518.33 489.54 C 516.01 488.41 515.78 485.51 515.83 483.25 C 516.41 477.01 517.53 470.85 518.28 464.63 C 514.69 463.39 510.56 461.89 506.91 463.83 C 501.85 468.85 497.93 475.40 491.23 478.52 C 488.94 474.46 484.21 471.26 485.05 465.98 C 484.26 459.46 487.38 453.50 487.70 447.10 C 485.25 442.36 481.75 438.23 479.55 433.35 C 476.35 427.92 478.04 421.33 477.13 415.38 C 476.89 411.53 473.80 408.84 471.68 405.92 C 472.51 403.19 474.21 400.35 473.45 397.45 C 470.77 391.54 465.41 387.42 462.12 381.90 C 460.68 379.56 461.81 376.77 462.23 374.32 C 463.67 368.97 464.62 363.48 463.65 357.95 Z" />
</g>
<g id="#bf3f3fff">
<path fill="#bf3f3f" fill-opacity="0" d=" M 630.22 400.16 C 635.11 395.98 638.71 390.54 640.17 384.24 C 644.16 385.99 648.72 386.41 652.37 388.89 C 655.87 392.41 657.43 398.34 662.71 399.76 C 671.24 401.63 679.95 398.65 688.54 398.61 C 699.09 397.92 708.91 402.43 719.16 404.08 C 723.67 408.56 727.23 413.85 731.37 418.65 C 735.72 423.44 741.18 428.40 748.12 427.75 C 748.79 424.06 750.13 420.23 749.15 416.46 C 747.24 410.92 744.28 405.83 742.05 400.41 C 744.97 398.09 747.80 395.66 750.66 393.25 C 756.13 397.72 759.75 403.76 763.41 409.67 C 768.27 414.66 775.24 410.52 780.42 408.64 C 789.16 405.56 796.45 415.76 805.32 412.10 C 810.43 410.10 815.17 407.19 820.07 404.70 C 829.96 411.86 838.43 420.91 849.17 426.89 C 841.35 428.77 834.88 433.73 829.25 439.23 C 819.24 448.32 806.78 453.99 796.31 462.46 C 789.04 459.77 781.83 456.29 773.92 456.23 C 766.35 455.55 758.75 458.30 752.67 462.68 C 743.58 469.67 745.10 483.34 736.36 490.62 C 733.04 487.57 729.07 484.68 728.30 479.86 C 727.12 473.81 727.43 467.61 727.10 461.49 C 724.23 461.48 721.27 461.02 718.44 461.40 C 714.42 462.89 711.46 466.62 707.14 467.41 C 702.96 467.57 700.26 463.50 696.37 462.71 C 690.65 460.29 684.57 466.53 685.55 472.15 C 685.55 484.32 695.85 492.68 701.65 502.40 C 704.82 506.94 703.59 512.99 701.07 517.52 C 695.18 526.24 684.42 531.46 673.92 530.80 C 670.00 530.70 667.93 526.86 665.34 524.54 C 662.32 520.92 658.34 518.45 654.65 515.63 C 644.90 503.47 634.17 491.67 627.84 477.24 C 624.81 469.35 626.87 460.71 627.80 452.61 C 632.78 448.13 636.58 441.83 634.81 434.79 C 634.33 425.24 625.28 420.11 618.19 415.44 C 611.10 411.51 605.30 405.23 602.69 397.51 C 611.82 393.37 621.62 396.24 630.22 400.16 Z" />
</g>
<g id="#bf7f3fff">
<path fill="#bf7f3f" fill-opacity="0" d=" M 1197.38 415.91 C 1203.53 408.54 1208.95 397.63 1219.94 397.49 C 1225.32 398.95 1229.41 403.54 1231.46 408.61 C 1239.03 424.47 1233.95 442.93 1239.80 459.24 C 1245.13 468.23 1254.94 473.93 1259.22 483.68 C 1256.15 492.29 1255.07 501.45 1253.64 510.43 C 1253.81 525.36 1264.73 536.26 1271.14 548.78 C 1279.37 566.91 1275.82 587.59 1274.35 606.70 C 1274.27 617.16 1275.60 628.20 1270.88 637.97 C 1268.36 643.65 1263.15 650.31 1256.06 648.70 C 1247.19 647.11 1238.96 642.35 1229.83 642.19 C 1219.01 641.65 1206.97 643.92 1197.57 637.32 C 1193.83 633.85 1193.34 628.34 1190.86 624.07 C 1186.91 615.66 1178.55 610.77 1171.11 605.86 C 1162.92 600.26 1154.13 595.59 1146.01 589.90 C 1142.77 587.90 1140.56 584.75 1139.24 581.25 C 1138.78 575.75 1140.03 570.04 1143.62 565.73 C 1148.21 558.77 1155.95 551.91 1153.48 542.64 C 1152.07 535.55 1144.26 534.16 1139.05 530.82 C 1132.36 527.08 1128.77 518.97 1121.03 517.01 C 1116.65 516.12 1112.24 515.60 1107.83 515.36 C 1110.80 507.27 1113.09 498.78 1117.47 491.29 C 1122.08 485.25 1128.87 481.37 1134.72 476.70 C 1144.00 469.44 1155.13 465.14 1164.89 458.62 C 1171.69 452.96 1177.63 445.66 1179.82 436.91 C 1183.64 425.60 1181.69 413.46 1184.06 401.87 C 1186.85 407.94 1191.46 412.86 1197.38 415.91 M 1248.26 499.70 C 1247.60 501.48 1247.32 503.37 1247.10 505.25 C 1249.09 504.64 1251.08 504.01 1253.09 503.37 C 1251.69 501.88 1250.29 500.25 1248.26 499.70 Z" />
</g>
<g id="#bf00bfff">
<path fill="#bf00bf" fill-opacity="0" d=" M 1158.52 407.40 C 1166.20 402.88 1175.52 403.15 1184.06 401.87 C 1181.69 413.46 1183.64 425.60 1179.82 436.91 C 1177.63 445.66 1171.69 452.96 1164.89 458.62 C 1155.13 465.14 1144.00 469.44 1134.72 476.70 C 1128.87 481.37 1122.08 485.25 1117.47 491.29 C 1113.09 498.78 1110.80 507.27 1107.83 515.36 C 1082.77 516.53 1057.30 517.13 1033.06 524.24 C 1027.77 526.75 1023.04 530.37 1018.83 534.41 C 1003.97 529.42 992.65 517.89 979.95 509.18 C 973.91 496.51 971.25 482.58 970.51 468.65 C 974.31 466.16 979.21 463.42 979.52 458.32 C 979.73 449.78 977.33 441.37 977.63 432.82 C 977.73 428.89 980.38 425.71 982.27 422.46 C 988.75 421.37 996.12 420.16 1002.09 423.80 C 1010.28 428.76 1018.05 434.88 1027.40 437.57 C 1033.07 438.33 1037.40 433.41 1042.20 431.30 C 1051.91 425.58 1063.70 431.07 1073.81 426.88 C 1086.16 421.84 1098.62 415.24 1112.32 415.55 C 1118.80 415.65 1124.32 411.80 1130.12 409.50 C 1135.80 408.80 1141.19 411.63 1146.85 411.90 C 1151.16 411.87 1154.82 409.28 1158.52 407.40 Z" />
</g>
<g id="#00003fff">
<path fill="#00003f" fill-opacity="0" d=" M 1282.02 431.04 C 1285.06 433.20 1288.14 435.40 1291.23 437.54 C 1295.37 440.85 1301.01 441.64 1305.01 445.05 C 1308.10 450.17 1302.40 454.80 1302.35 459.81 C 1304.49 464.33 1308.24 467.84 1311.28 471.76 C 1316.55 477.49 1321.38 484.33 1329.05 487.00 C 1333.52 488.75 1337.64 483.71 1342.04 484.94 C 1348.93 489.98 1350.12 499.96 1357.00 504.98 C 1366.33 509.15 1377.61 506.06 1386.60 511.39 C 1390.36 514.47 1395.23 517.66 1395.74 522.97 C 1390.02 531.59 1380.65 537.34 1375.14 546.15 C 1374.78 548.73 1377.53 550.19 1378.91 551.98 C 1377.01 558.08 1372.72 562.87 1367.99 566.99 C 1365.25 569.95 1362.54 574.04 1363.83 578.24 C 1365.84 585.29 1368.63 592.18 1372.74 598.30 C 1375.69 602.36 1380.67 604.33 1383.71 608.31 C 1382.47 614.63 1378.70 620.31 1378.38 626.86 C 1379.36 632.02 1382.68 636.27 1385.10 640.82 C 1387.64 645.49 1388.05 650.89 1388.96 656.06 C 1379.92 651.75 1370.37 648.67 1360.71 646.15 C 1358.85 650.42 1357.62 655.70 1353.23 658.12 C 1349.30 659.86 1344.94 660.17 1340.79 661.09 C 1338.46 665.20 1335.12 668.51 1331.75 671.74 C 1326.13 664.92 1320.80 657.75 1317.54 649.47 C 1312.76 638.10 1307.21 626.52 1297.71 618.33 C 1290.89 612.77 1282.41 609.90 1274.35 606.70 C 1275.82 587.59 1279.37 566.91 1271.14 548.78 C 1264.73 536.26 1253.81 525.36 1253.64 510.43 C 1255.07 501.45 1256.15 492.29 1259.22 483.68 C 1265.14 485.80 1271.16 487.77 1277.11 489.89 C 1278.75 470.28 1280.18 450.64 1282.02 431.04 Z" />
</g>
<g id="#7f7f3fff">
<path fill="#7f7f3f" fill-opacity="0" d=" M 574.48 482.09 C 588.55 469.44 600.33 454.01 616.39 443.72 C 619.89 447.05 623.61 450.18 627.80 452.61 C 626.87 460.71 624.81 469.35 627.84 477.24 C 634.17 491.67 644.90 503.47 654.65 515.63 C 648.85 522.32 642.24 528.73 639.33 537.32 C 637.40 543.37 632.89 547.91 628.36 552.15 C 631.03 563.78 637.93 573.57 645.27 582.73 C 651.54 590.78 658.12 598.58 664.31 606.70 C 669.16 612.68 670.57 620.57 675.38 626.60 C 681.12 634.11 686.72 641.78 693.16 648.73 C 684.24 649.15 675.03 649.34 666.59 652.55 C 663.56 653.82 660.25 652.75 657.38 651.60 C 648.47 643.49 641.36 633.65 633.03 624.98 C 620.28 611.68 608.58 597.44 595.96 584.04 C 587.59 574.70 578.69 565.75 571.73 555.26 C 566.24 546.64 558.88 539.37 553.65 530.60 C 549.28 520.25 548.91 508.20 542.18 498.87 C 540.05 496.18 537.61 493.76 535.12 491.42 C 539.22 484.85 542.87 477.90 548.15 472.18 C 553.61 469.55 559.10 473.78 563.43 476.78 C 566.69 479.33 570.64 480.68 574.48 482.09 Z" />
</g>
<g id="#007f3fff">
<path fill="#007f3f" fill-opacity="0" d=" M 752.67 462.68 C 758.75 458.30 766.35 455.55 773.92 456.23 C 781.83 456.29 789.04 459.77 796.31 462.46 C 791.06 470.85 784.25 480.14 785.61 490.63 C 788.35 498.86 798.07 501.36 804.95 505.21 C 808.51 508.73 810.39 514.75 807.24 519.14 C 801.72 530.55 790.26 537.07 780.94 544.94 C 774.88 550.15 767.91 554.41 760.00 556.02 C 753.79 557.39 746.02 559.66 744.86 567.00 C 743.35 575.51 752.04 580.83 758.34 584.52 C 758.07 597.97 762.89 611.38 759.43 624.74 C 757.03 633.51 752.00 641.28 747.77 649.23 C 756.44 666.36 768.42 681.54 777.95 698.19 C 775.32 696.28 772.90 694.11 770.60 691.84 C 767.10 691.60 763.81 690.37 761.16 688.06 C 754.14 693.36 747.31 702.24 737.60 700.26 C 720.34 685.35 709.76 664.30 693.16 648.73 C 686.72 641.78 681.12 634.11 675.38 626.60 C 670.57 620.57 669.16 612.68 664.31 606.70 C 658.12 598.58 651.54 590.78 645.27 582.73 C 637.93 573.57 631.03 563.78 628.36 552.15 C 632.89 547.91 637.40 543.37 639.33 537.32 C 642.24 528.73 648.85 522.32 654.65 515.63 C 658.34 518.45 662.32 520.92 665.34 524.54 C 667.93 526.86 670.00 530.70 673.92 530.80 C 684.42 531.46 695.18 526.24 701.07 517.52 C 703.59 512.99 704.82 506.94 701.65 502.40 C 695.85 492.68 685.55 484.32 685.55 472.15 C 684.57 466.53 690.65 460.29 696.37 462.71 C 700.26 463.50 702.96 467.57 707.14 467.41 C 711.46 466.62 714.42 462.89 718.44 461.40 C 721.27 461.02 724.23 461.48 727.10 461.49 C 727.43 467.61 727.12 473.81 728.30 479.86 C 729.07 484.68 733.04 487.57 736.36 490.62 C 745.10 483.34 743.58 469.67 752.67 462.68 M 738.62 496.37 C 736.81 496.69 734.84 497.00 733.44 498.29 C 732.01 506.13 731.43 514.10 730.87 522.05 C 740.01 525.77 749.44 528.76 758.51 532.66 C 762.21 534.17 766.19 535.80 770.24 535.19 C 774.11 534.13 773.76 529.89 773.61 526.74 C 772.66 515.32 772.36 503.88 772.02 492.43 C 760.95 494.19 749.76 495.16 738.62 496.37 Z" />
</g>
<g id="#7f00bfff">
<path fill="#7f00bf" fill-opacity="0" d=" M 506.91 463.83 C 510.56 461.89 514.69 463.39 518.28 464.63 C 517.53 470.85 516.41 477.01 515.83 483.25 C 515.78 485.51 516.01 488.41 518.33 489.54 C 523.34 492.64 529.54 492.29 535.12 491.42 C 537.61 493.76 540.05 496.18 542.18 498.87 C 548.91 508.20 549.28 520.25 553.65 530.60 C 558.88 539.37 566.24 546.64 571.73 555.26 C 578.69 565.75 587.59 574.70 595.96 584.04 C 608.58 597.44 620.28 611.68 633.03 624.98 C 641.36 633.65 648.47 643.49 657.38 651.60 C 656.52 652.71 655.68 653.84 654.83 654.96 C 651.08 654.23 647.29 653.55 643.52 653.02 C 639.99 662.10 631.85 667.71 624.61 673.65 C 619.80 676.96 613.47 676.77 607.94 677.72 C 605.41 677.91 603.70 675.43 601.81 674.21 C 575.75 651.25 549.41 628.60 523.18 605.83 C 516.40 599.56 508.10 593.97 505.20 584.72 C 503.80 579.25 505.17 573.55 505.78 568.08 C 496.85 559.43 486.20 551.96 480.36 540.68 C 476.67 535.09 476.30 528.20 474.74 521.90 C 473.15 517.67 469.75 514.52 466.92 511.13 C 468.43 511.05 469.95 510.97 471.47 510.89 C 471.30 504.51 470.49 498.19 469.61 491.88 C 469.27 489.51 473.42 488.50 474.68 488.32 C 479.59 486.43 484.77 485.44 489.94 484.51 C 490.40 482.54 490.71 480.43 491.23 478.52 C 497.93 475.40 501.85 468.85 506.91 463.83 Z" />
</g>
<g id="#00bf3fff">
<path fill="#00bf3f" fill-opacity="0" d=" M 868.08 489.10 C 874.69 485.43 880.63 478.41 888.75 478.61 C 896.99 482.48 903.35 489.88 912.23 492.64 C 916.25 493.78 920.56 493.77 924.49 492.35 C 930.02 490.40 935.93 490.19 941.76 490.43 C 948.91 491.20 955.05 495.36 961.21 498.72 C 967.41 502.27 973.92 505.31 979.95 509.18 C 992.65 517.89 1003.97 529.42 1018.83 534.41 C 1013.67 539.70 1008.67 545.18 1004.15 551.03 C 996.83 560.31 992.56 571.56 985.05 580.72 C 978.95 579.58 972.83 577.92 966.58 578.37 C 964.61 578.43 963.39 580.20 962.85 581.91 C 959.52 591.40 960.21 601.57 960.42 611.44 C 960.91 627.75 959.52 644.11 960.84 660.40 C 957.52 661.88 954.30 663.50 951.01 664.99 C 945.36 667.91 939.14 663.94 933.27 664.36 C 929.44 665.90 927.60 670.08 923.91 671.87 C 905.26 681.63 884.41 688.13 863.13 686.67 C 856.34 685.79 849.94 688.37 843.43 689.65 C 836.37 694.58 828.64 698.49 820.58 701.55 C 811.74 704.88 807.53 713.95 800.25 719.30 C 797.50 721.55 793.43 720.21 791.37 717.69 C 786.18 711.72 781.90 705.01 777.95 698.19 C 768.42 681.54 756.44 666.36 747.77 649.23 C 752.00 641.28 757.03 633.51 759.43 624.74 C 762.89 611.38 758.07 597.97 758.34 584.52 C 752.04 580.83 743.35 575.51 744.86 567.00 C 746.02 559.66 753.79 557.39 760.00 556.02 C 767.91 554.41 774.88 550.15 780.94 544.94 C 790.26 537.07 801.72 530.55 807.24 519.14 C 810.39 514.75 808.51 508.73 804.95 505.21 C 809.54 507.73 813.68 510.93 818.23 513.56 C 831.41 519.17 848.17 516.81 858.10 506.06 C 862.88 501.20 861.59 492.56 868.08 489.10 M 825.19 579.21 C 823.39 579.62 824.27 582.45 825.98 581.96 C 827.77 581.57 826.87 578.68 825.19 579.21 Z" />
</g>
<g id="#7f003fff">
<path fill="#7f003f" fill-opacity="0" d=" M 738.62 496.37 C 749.76 495.16 760.95 494.19 772.02 492.43 C 772.36 503.88 772.66 515.32 773.61 526.74 C 773.76 529.89 774.11 534.13 770.24 535.19 C 766.19 535.80 762.21 534.17 758.51 532.66 C 749.44 528.76 740.01 525.77 730.87 522.05 C 731.43 514.10 732.01 506.13 733.44 498.29 C 734.84 497.00 736.81 496.69 738.62 496.37 Z" />
</g>
<g id="#bfbf7fff">
<path fill="#bfbf7f" fill-opacity="0" d=" M 1248.26 499.70 C 1250.29 500.25 1251.69 501.88 1253.09 503.37 C 1251.08 504.01 1249.09 504.64 1247.10 505.25 C 1247.32 503.37 1247.60 501.48 1248.26 499.70 Z" />
</g>
<g id="#3f3f3fff">
<path fill="#3f3f3f" fill-opacity="0" d=" M 1033.06 524.24 C 1057.30 517.13 1082.77 516.53 1107.83 515.36 C 1112.24 515.60 1116.65 516.12 1121.03 517.01 C 1128.77 518.97 1132.36 527.08 1139.05 530.82 C 1144.26 534.16 1152.07 535.55 1153.48 542.64 C 1155.95 551.91 1148.21 558.77 1143.62 565.73 C 1140.03 570.04 1138.78 575.75 1139.24 581.25 C 1131.69 585.54 1122.33 587.60 1117.32 595.38 C 1113.60 600.21 1116.55 608.38 1110.61 611.61 C 1103.71 614.42 1095.54 611.52 1088.99 615.89 C 1080.91 620.06 1081.25 631.13 1074.03 636.08 C 1069.40 637.91 1065.32 633.68 1061.47 631.77 C 1056.31 636.03 1052.98 642.50 1046.98 645.71 C 1038.76 641.78 1031.41 635.32 1022.09 634.11 C 1014.48 632.89 1006.74 632.68 999.06 632.84 C 996.79 654.55 993.98 676.20 992.37 697.97 C 988.84 697.64 984.41 700.50 981.30 697.76 C 974.95 692.83 968.47 688.09 962.28 682.97 C 961.87 675.43 961.72 667.89 960.84 660.40 C 959.52 644.11 960.91 627.75 960.42 611.44 C 960.21 601.57 959.52 591.40 962.85 581.91 C 963.39 580.20 964.61 578.43 966.58 578.37 C 972.83 577.92 978.95 579.58 985.05 580.72 C 992.56 571.56 996.83 560.31 1004.15 551.03 C 1008.67 545.18 1013.67 539.70 1018.83 534.41 C 1023.04 530.37 1027.77 526.75 1033.06 524.24 Z" />
</g>
<g id="#7f3f3fff">
<path fill="#7f3f3f" fill-opacity="0" d=" M 825.19 579.21 C 826.87 578.68 827.77 581.57 825.98 581.96 C 824.27 582.45 823.39 579.62 825.19 579.21 Z" />
</g>
<g id="#00bfbfff">
<path fill="#00bfbf" fill-opacity="0" d=" M 1139.24 581.25 C 1140.56 584.75 1142.77 587.90 1146.01 589.90 C 1154.13 595.59 1162.92 600.26 1171.11 605.86 C 1178.55 610.77 1186.91 615.66 1190.86 624.07 C 1193.34 628.34 1193.83 633.85 1197.57 637.32 C 1206.97 643.92 1219.01 641.65 1229.83 642.19 C 1230.30 649.55 1232.14 658.59 1226.71 664.67 C 1222.26 669.91 1217.06 674.88 1214.83 681.56 C 1213.56 686.69 1210.63 691.06 1207.51 695.22 C 1203.45 693.96 1199.44 692.74 1195.41 691.48 C 1193.85 694.18 1191.79 696.69 1190.90 699.73 C 1189.91 705.86 1192.94 711.41 1195.27 716.83 C 1198.04 723.12 1201.35 729.27 1203.09 735.96 C 1204.11 740.06 1199.93 742.90 1197.62 745.61 C 1186.89 755.55 1177.23 766.56 1166.72 776.71 C 1162.48 780.81 1158.85 785.58 1154.00 789.00 C 1151.47 790.70 1148.80 792.19 1146.23 793.80 C 1143.56 791.55 1140.65 789.61 1137.49 788.13 C 1136.16 782.27 1134.69 776.43 1131.97 771.05 C 1131.25 771.04 1129.81 771.04 1129.10 771.04 C 1124.81 776.76 1120.55 782.49 1116.12 788.09 C 1109.69 797.50 1098.88 802.21 1090.15 809.07 C 1090.02 807.57 1089.90 806.08 1089.79 804.60 C 1086.08 805.42 1082.12 805.37 1078.55 806.71 C 1075.98 808.41 1074.07 810.90 1071.93 813.09 C 1071.51 812.82 1070.68 812.28 1070.26 812.01 C 1071.59 808.67 1072.72 805.22 1073.82 801.81 C 1069.07 797.58 1063.86 793.96 1059.00 789.91 C 1053.80 786.01 1053.75 778.40 1048.98 774.22 C 1041.17 770.63 1032.27 768.42 1026.47 761.58 C 1023.53 761.46 1020.51 761.75 1017.66 761.23 C 1006.94 750.45 995.09 739.23 991.53 723.89 C 991.48 715.25 992.53 706.61 992.37 697.97 C 993.98 676.20 996.79 654.55 999.06 632.84 C 1006.74 632.68 1014.48 632.89 1022.09 634.11 C 1031.41 635.32 1038.76 641.78 1046.98 645.71 C 1052.98 642.50 1056.31 636.03 1061.47 631.77 C 1065.32 633.68 1069.40 637.91 1074.03 636.08 C 1081.25 631.13 1080.91 620.06 1088.99 615.89 C 1095.54 611.52 1103.71 614.42 1110.61 611.61 C 1116.55 608.38 1113.60 600.21 1117.32 595.38 C 1122.33 587.60 1131.69 585.54 1139.24 581.25 M 1126.13 662.53 C 1124.91 663.33 1126.25 665.42 1127.46 664.45 C 1128.67 663.64 1127.30 661.60 1126.13 662.53 Z" />
</g>
<g id="#7fbfbfff">
<path fill="#7fbfbf" fill-opacity="0" d=" M 1274.35 606.70 C 1282.41 609.90 1290.89 612.77 1297.71 618.33 C 1307.21 626.52 1312.76 638.10 1317.54 649.47 C 1320.80 657.75 1326.13 664.92 1331.75 671.74 C 1328.08 676.11 1321.92 681.36 1324.32 687.70 C 1325.53 692.54 1328.51 697.26 1328.12 702.40 C 1325.71 708.47 1317.63 710.16 1315.47 716.48 C 1314.12 725.90 1322.57 732.06 1325.97 739.89 C 1328.50 744.89 1326.11 750.78 1321.80 753.77 C 1308.65 761.74 1311.51 781.39 1298.30 789.31 C 1276.42 802.13 1254.10 814.26 1232.80 828.06 C 1226.08 823.28 1217.20 821.80 1211.45 815.58 C 1208.96 812.72 1206.22 810.11 1204.06 807.03 C 1203.00 802.40 1206.89 798.80 1206.79 794.26 C 1202.00 796.35 1198.11 800.27 1193.07 801.73 C 1190.32 800.79 1188.12 798.74 1185.38 797.81 C 1179.56 796.53 1174.05 799.46 1168.31 799.46 C 1162.09 798.19 1159.20 791.98 1154.00 789.00 C 1158.85 785.58 1162.48 780.81 1166.72 776.71 C 1177.23 766.56 1186.89 755.55 1197.62 745.61 C 1199.93 742.90 1204.11 740.06 1203.09 735.96 C 1201.35 729.27 1198.04 723.12 1195.27 716.83 C 1192.94 711.41 1189.91 705.86 1190.90 699.73 C 1191.79 696.69 1193.85 694.18 1195.41 691.48 C 1199.44 692.74 1203.45 693.96 1207.51 695.22 C 1210.63 691.06 1213.56 686.69 1214.83 681.56 C 1217.06 674.88 1222.26 669.91 1226.71 664.67 C 1232.14 658.59 1230.30 649.55 1229.83 642.19 C 1238.96 642.35 1247.19 647.11 1256.06 648.70 C 1263.15 650.31 1268.36 643.65 1270.88 637.97 C 1275.60 628.20 1274.27 617.16 1274.35 606.70 Z" />
</g>
<g id="#003f3fff">
<path fill="#003f3f" fill-opacity="0" d=" M 1360.71 646.15 C 1370.37 648.67 1379.92 651.75 1388.96 656.06 C 1389.97 665.43 1391.64 674.75 1394.24 683.83 C 1396.65 696.58 1409.56 702.41 1419.16 708.96 C 1427.55 714.99 1429.58 725.76 1430.62 735.38 C 1430.96 737.76 1428.76 739.35 1427.44 741.00 C 1426.38 742.02 1425.40 743.16 1424.94 744.57 C 1417.50 759.50 1415.06 776.03 1413.70 792.47 C 1405.78 795.54 1401.36 803.72 1393.23 806.37 C 1372.13 814.19 1351.70 823.67 1330.71 831.77 C 1323.30 834.70 1315.98 837.88 1308.62 840.92 C 1307.54 837.65 1306.24 834.46 1304.81 831.33 C 1295.01 834.37 1286.19 840.15 1276.02 842.08 C 1271.27 842.95 1266.83 844.86 1262.30 846.38 C 1258.36 847.98 1254.12 845.94 1250.50 844.39 C 1247.12 840.32 1248.11 834.32 1246.82 829.43 C 1242.10 828.98 1237.44 828.81 1232.80 828.06 C 1254.10 814.26 1276.42 802.13 1298.30 789.31 C 1311.51 781.39 1308.65 761.74 1321.80 753.77 C 1326.11 750.78 1328.50 744.89 1325.97 739.89 C 1322.57 732.06 1314.12 725.90 1315.47 716.48 C 1317.63 710.16 1325.71 708.47 1328.12 702.40 C 1328.51 697.26 1325.53 692.54 1324.32 687.70 C 1321.92 681.36 1328.08 676.11 1331.75 671.74 C 1335.12 668.51 1338.46 665.20 1340.79 661.09 C 1344.94 660.17 1349.30 659.86 1353.23 658.12 C 1357.62 655.70 1358.85 650.42 1360.71 646.15 Z" />
</g>
<g id="#7f40bfff">
<path fill="#7f40bf" fill-opacity="0" d=" M 1126.13 662.53 C 1127.30 661.60 1128.67 663.64 1127.46 664.45 C 1126.25 665.42 1124.91 663.33 1126.13 662.53 Z" />
</g>
<g id="#555415ff">
<path fill="#555415" fill-opacity="0" d=" M 1424.94 744.57 C 1425.40 743.16 1426.38 742.02 1427.44 741.00 C 1428.95 742.44 1426.80 745.66 1424.94 744.57 Z" />
</g>
<g id="#cf3f5ffe">
<path fill="#cf3f5f" fill-opacity="0" d=" M 0.00 1079.00 C 456.67 1079.00 913.33 1078.99 1370.00 1079.00 C 1393.58 1079.06 1417.20 1078.43 1440.76 1079.97 L 1441.66 1080.00 L 0.00 1080.00 L 0.00 1079.00 Z" />
</g>
<g id="#af3fbffe">
<path fill="#af3fbf" fill-opacity="0" d=" M 1440.76 1079.97 C 1458.48 1078.81 1476.24 1078.82 1494.00 1078.99 C 1636.00 1079.02 1778.00 1078.99 1920.00 1079.00 L 1920.00 1080.00 L 1441.66 1080.00 L 1440.76 1079.97 Z" />
</g>
</svg>
