<?xml version="1.0" encoding="UTF-8" ?>
<!DOCTYPE svg PUBLIC "-//W3C//DTD SVG 1.1//EN" "http://www.w3.org/Graphics/SVG/1.1/DTD/svg11.dtd">
<svg width="1920pt" height="1080pt" viewBox="0 0 1920 1080" version="1.1" xmlns="http://www.w3.org/2000/svg">
<g id="#af8f1fff" target="898">
<path fill="#af8f1f" opacity="1.00" d=" M 629.69 207.81 C 636.98 206.66 644.42 206.14 651.81 206.41 C 659.93 206.30 667.53 209.72 675.61 210.14 C 678.82 210.66 682.57 210.58 685.13 212.84 C 687.66 217.42 688.71 222.71 691.08 227.37 C 694.72 229.67 699.43 229.54 703.57 228.93 C 706.84 228.89 711.39 226.93 714.18 229.76 C 720.28 235.77 727.91 240.00 733.64 246.41 C 736.46 249.59 740.97 248.55 744.66 248.13 C 745.30 245.82 745.96 243.52 746.64 241.22 C 752.67 243.27 754.87 250.22 760.95 252.20 C 770.65 257.78 782.06 254.72 792.66 255.66 C 804.97 259.18 806.09 274.47 816.01 280.98 C 819.88 283.11 820.70 287.60 821.99 291.42 C 823.11 293.76 826.19 293.44 828.35 293.99 C 835.87 294.01 841.73 301.10 849.50 299.01 C 855.17 298.11 861.00 296.69 866.76 297.74 C 871.41 299.20 874.21 303.78 878.54 305.89 C 883.31 306.35 888.23 304.47 892.90 306.06 C 896.04 307.07 898.95 308.59 901.98 309.91 C 902.36 312.88 902.76 315.84 903.20 318.80 C 909.14 318.07 915.40 318.04 920.77 321.09 C 918.24 325.53 915.70 329.97 913.24 334.44 C 909.59 340.33 901.91 340.45 895.76 340.89 C 896.43 344.94 897.48 348.97 899.42 352.61 C 903.65 360.24 900.09 369.37 901.06 377.50 C 902.16 382.08 904.84 387.34 901.71 391.73 C 898.34 395.91 892.55 397.00 888.67 400.56 C 886.05 403.33 884.17 406.66 882.11 409.84 C 884.39 413.61 887.85 416.94 889.02 421.30 C 889.03 427.47 886.03 434.02 889.33 439.89 C 882.08 450.53 868.59 453.47 856.75 455.87 C 852.19 455.05 847.47 454.20 842.97 455.67 C 837.66 457.57 831.50 457.94 826.43 455.18 C 822.84 452.65 821.14 448.04 817.18 445.97 C 808.09 442.84 797.95 445.20 789.20 440.77 C 785.83 436.87 785.54 431.34 784.10 426.57 C 786.45 424.45 789.28 422.62 790.77 419.73 C 793.43 413.19 786.60 406.92 789.23 400.36 C 791.80 399.00 794.74 398.64 797.57 398.18 C 797.66 397.16 797.75 396.13 797.87 395.13 C 794.33 393.83 790.84 392.49 787.37 391.09 C 785.10 393.96 782.97 396.98 780.39 399.59 C 775.90 400.08 773.66 395.68 770.37 393.55 C 769.84 395.89 769.29 398.23 768.74 400.56 C 765.06 399.59 760.66 397.13 757.23 400.17 C 750.17 404.61 747.72 413.05 743.59 419.77 C 736.79 421.42 729.35 416.41 722.92 419.71 C 717.64 423.58 712.06 427.02 706.64 430.69 C 705.05 431.60 703.34 432.88 701.41 432.48 C 691.07 430.57 682.44 424.32 673.32 419.53 C 674.28 416.65 675.14 413.73 675.95 410.80 C 675.59 410.31 674.86 409.32 674.50 408.82 C 671.74 405.21 670.94 400.56 669.41 396.41 C 667.68 390.36 665.17 384.40 664.99 378.02 C 666.84 367.51 680.93 366.35 683.81 356.53 C 679.15 358.83 673.95 358.34 669.07 357.07 C 664.63 343.96 660.07 330.86 656.39 317.51 C 647.64 318.16 640.15 323.32 631.67 324.89 C 625.41 325.06 618.97 322.70 612.98 325.68 C 608.18 313.98 604.37 301.90 599.98 290.05 C 598.56 282.17 598.29 271.10 606.66 267.22 C 602.15 257.51 599.49 247.11 595.67 237.14 C 594.05 232.62 592.35 228.04 592.20 223.20 C 592.20 221.88 593.77 221.40 594.57 220.58 C 598.98 217.67 603.44 213.64 609.13 214.33 C 616.75 215.43 622.62 209.45 629.69 207.81 M 823.30 351.08 C 821.49 351.57 822.52 354.30 824.20 353.76 C 825.99 353.32 824.98 350.42 823.30 351.08 Z" />
</g>
<g id="#2f8f9fff" target="887">
<path fill="#2f8f9f" opacity="1.00" d=" M 1221.98 304.86 C 1226.14 303.29 1230.59 304.60 1234.89 304.47 C 1236.36 308.90 1239.22 312.81 1243.70 314.54 C 1243.46 316.73 1243.25 318.92 1243.07 321.13 C 1248.18 323.89 1253.59 326.06 1259.01 328.16 C 1257.14 333.95 1255.94 340.00 1253.36 345.54 C 1251.67 348.94 1247.06 348.65 1244.03 349.86 C 1243.13 356.23 1238.35 360.27 1232.79 362.60 C 1231.31 366.07 1231.29 371.05 1227.68 373.25 C 1223.93 375.26 1219.66 375.99 1215.62 377.18 C 1214.78 379.88 1214.01 382.79 1211.89 384.81 C 1205.94 390.12 1198.65 393.52 1192.52 398.57 C 1189.30 401.03 1184.52 400.56 1181.89 403.94 C 1172.92 411.40 1176.62 425.13 1170.19 434.02 C 1164.18 435.00 1158.16 435.86 1152.62 438.57 C 1148.59 443.44 1142.75 447.48 1142.42 454.40 C 1145.92 454.61 1149.42 454.28 1152.87 453.70 C 1158.63 457.63 1165.15 460.34 1171.70 462.70 C 1170.07 469.85 1171.59 477.21 1171.75 484.43 C 1168.21 484.32 1164.67 484.25 1161.14 484.16 C 1160.84 486.50 1160.53 488.84 1160.22 491.19 C 1154.06 489.14 1148.36 485.75 1141.87 484.79 C 1141.33 487.34 1140.83 489.91 1140.37 492.49 C 1138.79 492.56 1137.22 492.63 1135.66 492.68 C 1133.60 501.70 1129.02 509.93 1123.03 516.94 C 1114.12 514.01 1107.43 507.35 1099.47 502.83 C 1089.54 500.97 1079.52 504.92 1069.56 502.62 C 1069.04 506.03 1067.30 509.50 1067.94 513.01 C 1069.44 516.90 1072.08 520.25 1074.13 523.88 C 1069.01 523.93 1063.98 522.67 1058.95 522.00 C 1057.19 529.26 1057.60 537.48 1052.55 543.51 C 1050.76 545.94 1047.89 547.47 1046.43 550.15 C 1045.28 553.57 1045.72 557.33 1044.39 560.72 C 1036.28 561.71 1029.67 568.42 1021.31 567.71 C 1016.99 566.65 1009.54 568.60 1008.13 562.88 C 1008.10 557.97 1012.83 555.05 1015.10 551.18 C 1015.47 549.08 1014.76 546.95 1014.51 544.88 C 1008.01 547.85 1000.92 548.83 993.86 549.23 C 988.32 547.00 982.25 548.27 976.47 548.17 C 976.47 546.41 976.48 544.66 976.49 542.92 C 971.19 541.05 966.43 537.23 960.54 537.51 C 958.39 537.49 956.25 537.97 954.12 537.66 C 951.81 535.79 952.09 532.56 951.92 529.91 C 945.62 528.68 939.43 533.84 933.46 530.57 C 932.32 530.09 931.20 529.58 930.10 529.10 C 932.25 526.46 934.36 523.79 936.38 521.06 C 934.23 519.91 932.08 518.79 929.94 517.66 C 929.01 514.75 931.02 508.26 926.23 508.08 C 922.65 507.32 918.28 507.47 916.58 503.38 C 911.68 498.36 919.72 494.47 922.97 491.93 C 918.52 486.92 913.56 482.42 908.64 477.90 C 912.77 476.53 917.14 476.31 921.47 476.17 C 914.77 471.69 906.92 468.69 901.54 462.47 C 895.52 456.14 893.05 447.58 889.33 439.89 C 886.03 434.02 889.03 427.47 889.02 421.30 C 887.85 416.94 884.39 413.61 882.11 409.84 C 884.17 406.66 886.05 403.33 888.67 400.56 C 892.55 397.00 898.34 395.91 901.71 391.73 C 904.84 387.34 902.16 382.08 901.06 377.50 C 900.09 369.37 903.65 360.24 899.42 352.61 C 897.48 348.97 896.43 344.94 895.76 340.89 C 901.91 340.45 909.59 340.33 913.24 334.44 C 915.70 329.97 918.24 325.53 920.77 321.09 L 921.13 320.39 C 924.67 318.55 928.17 316.63 931.75 314.88 C 935.04 316.38 938.25 318.48 941.92 318.86 C 945.76 318.41 947.86 314.54 951.23 313.02 C 955.62 310.32 961.05 311.92 965.87 312.07 C 969.31 313.79 970.12 319.71 974.78 319.45 C 980.29 319.77 982.59 314.07 986.43 311.26 C 990.43 309.49 993.45 312.52 996.25 314.66 C 1002.32 313.53 1008.48 312.81 1014.66 312.64 C 1020.62 313.91 1024.25 319.64 1029.89 321.63 C 1033.56 322.44 1037.44 323.08 1040.74 325.03 C 1045.42 325.34 1050.12 325.80 1054.70 326.84 C 1055.05 322.24 1055.52 317.65 1056.06 313.07 C 1065.26 309.95 1074.71 307.35 1084.46 306.80 C 1090.02 306.50 1095.67 307.69 1101.18 306.34 C 1102.76 307.47 1104.34 308.63 1105.93 309.79 C 1118.44 307.78 1130.97 305.84 1143.64 305.13 C 1147.02 305.15 1150.11 306.74 1153.16 308.06 C 1162.22 313.40 1173.09 311.36 1182.98 310.41 C 1187.89 310.00 1193.13 305.30 1197.53 309.58 C 1201.73 308.89 1205.98 308.63 1210.25 308.61 C 1214.49 308.66 1218.06 306.08 1221.98 304.86 M 957.30 466.14 C 955.35 466.96 957.21 469.59 958.83 468.72 C 960.75 467.91 958.92 465.18 957.30 466.14 Z" />
</g>
<g id="#4fcfdfff" target="896">
<path fill="#4fcfdf" opacity="1.00" d=" M 787.37 391.09 C 790.84 392.49 794.33 393.83 797.87 395.13 C 797.75 396.13 797.66 397.16 797.57 398.18 C 794.74 398.64 791.80 399.00 789.23 400.36 C 786.60 406.92 793.43 413.19 790.77 419.73 C 789.28 422.62 786.45 424.45 784.10 426.57 C 785.54 431.34 785.83 436.87 789.20 440.77 C 797.95 445.20 808.09 442.84 817.18 445.97 C 821.14 448.04 822.84 452.65 826.43 455.18 C 831.50 457.94 837.66 457.57 842.97 455.67 C 847.47 454.20 852.19 455.05 856.75 455.87 C 860.52 456.97 864.27 458.18 868.03 459.34 C 866.16 462.58 864.35 465.89 863.39 469.53 C 860.13 471.05 856.83 472.49 853.60 473.98 C 851.48 481.75 849.76 489.73 850.54 497.82 C 842.53 496.99 834.04 496.52 827.81 490.81 C 824.03 494.61 823.07 500.07 822.37 505.15 C 821.33 512.23 817.47 519.17 819.26 526.47 C 822.33 541.92 824.85 557.48 828.09 572.89 C 823.74 571.85 819.19 571.56 815.03 569.89 C 810.58 567.81 808.91 562.79 805.46 559.64 C 801.37 557.90 796.58 557.94 793.04 554.96 C 786.67 550.07 779.57 546.36 772.17 543.30 C 765.53 546.23 758.81 542.05 752.09 542.27 C 744.55 543.48 737.42 546.70 729.82 547.65 C 716.40 549.05 702.65 544.84 689.45 548.72 C 685.25 535.78 679.69 523.33 675.57 510.35 C 672.13 499.36 666.13 488.87 665.73 477.10 C 665.25 467.72 660.12 459.43 657.34 450.65 C 655.67 445.67 652.33 440.51 654.03 435.10 C 655.21 431.69 658.36 429.51 660.25 426.54 C 661.41 421.43 659.12 416.11 659.98 410.95 C 660.96 407.63 664.89 407.02 667.60 405.64 C 667.83 407.08 668.07 408.53 668.32 409.99 C 670.38 409.59 672.44 409.23 674.50 408.82 C 674.86 409.32 675.59 410.31 675.95 410.80 C 675.14 413.73 674.28 416.65 673.32 419.53 C 682.44 424.32 691.07 430.57 701.41 432.48 C 703.34 432.88 705.05 431.60 706.64 430.69 C 712.06 427.02 717.64 423.58 722.92 419.71 C 729.35 416.41 736.79 421.42 743.59 419.77 C 747.72 413.05 750.17 404.61 757.23 400.17 C 760.66 397.13 765.06 399.59 768.74 400.56 C 769.29 398.23 769.84 395.89 770.37 393.55 C 773.66 395.68 775.90 400.08 780.39 399.59 C 782.97 396.98 785.10 393.96 787.37 391.09 Z" />
</g>
<g id="#0f4fdfff" target="890">
<path fill="#0f4fdf" opacity="1.00" d=" M 856.75 455.87 C 868.59 453.47 882.08 450.53 889.33 439.89 C 893.05 447.58 895.52 456.14 901.54 462.47 C 906.92 468.69 914.77 471.69 921.47 476.17 C 917.14 476.31 912.77 476.53 908.64 477.90 C 913.56 482.42 918.52 486.92 922.97 491.93 C 919.72 494.47 911.68 498.36 916.58 503.38 C 918.28 507.47 922.65 507.32 926.23 508.08 C 931.02 508.26 929.01 514.75 929.94 517.66 C 932.08 518.79 934.23 519.91 936.38 521.06 C 934.36 523.79 932.25 526.46 930.10 529.10 C 931.20 529.58 932.32 530.09 933.46 530.57 C 939.43 533.84 945.62 528.68 951.92 529.91 C 952.09 532.56 951.81 535.79 954.12 537.66 C 956.25 537.97 958.39 537.49 960.54 537.51 C 966.43 537.23 971.19 541.05 976.49 542.92 C 976.48 544.66 976.47 546.41 976.47 548.17 C 982.25 548.27 988.32 547.00 993.86 549.23 C 993.26 550.92 992.70 552.64 992.13 554.35 C 990.71 554.39 989.28 554.43 987.87 554.48 C 992.05 560.24 996.77 566.86 994.58 574.38 C 987.83 574.14 980.99 576.52 974.38 574.27 C 967.48 573.41 960.12 570.66 953.28 573.35 C 943.32 576.85 936.67 585.82 927.02 589.92 C 920.52 593.57 912.01 595.07 908.08 601.96 C 905.88 612.74 908.80 623.71 909.12 634.55 C 905.07 631.27 902.73 626.24 898.20 623.54 C 896.63 622.34 894.31 621.47 893.96 619.30 C 892.33 613.11 893.23 605.46 888.52 600.48 C 885.81 597.21 881.09 598.86 877.38 598.56 C 876.87 594.22 876.66 589.78 875.58 585.54 C 867.65 581.94 859.96 577.82 852.28 573.74 C 848.45 572.16 843.76 570.95 839.91 572.89 C 837.39 574.18 837.57 577.38 836.91 579.75 C 834.08 577.39 829.41 576.57 828.09 572.89 C 824.85 557.48 822.33 541.92 819.26 526.47 C 817.47 519.17 821.33 512.23 822.37 505.15 C 823.07 500.07 824.03 494.61 827.81 490.81 C 834.04 496.52 842.53 496.99 850.54 497.82 C 849.76 489.73 851.48 481.75 853.60 473.98 C 856.83 472.49 860.13 471.05 863.39 469.53 C 864.35 465.89 866.16 462.58 868.03 459.34 C 864.27 458.18 860.52 456.97 856.75 455.87 Z" />
</g>
<g id="#4fcf5fff" target="894">
<path fill="#4fcf5f" opacity="1.00" d=" M 1173.23 460.13 C 1178.01 459.22 1182.46 462.37 1187.31 461.83 C 1190.74 462.16 1195.83 461.31 1197.22 465.48 C 1199.54 472.86 1203.88 479.75 1204.18 487.63 C 1205.23 491.53 1208.59 494.26 1210.25 497.90 C 1210.79 502.41 1208.61 506.64 1207.68 510.96 C 1214.76 508.31 1222.30 504.32 1229.86 507.60 C 1229.15 510.44 1228.47 513.29 1227.83 516.14 C 1231.31 517.35 1235.00 517.78 1238.66 517.24 C 1239.49 514.93 1240.40 512.65 1241.28 510.37 C 1251.66 507.53 1262.46 508.55 1273.03 506.99 C 1276.76 506.35 1280.69 508.41 1284.24 507.24 C 1288.79 502.38 1294.00 497.86 1297.04 491.82 C 1299.84 486.95 1305.55 484.80 1310.71 483.29 C 1314.12 482.37 1316.58 479.11 1320.46 479.64 C 1322.87 480.88 1324.87 482.76 1326.99 484.44 C 1330.88 483.41 1334.95 483.31 1338.41 485.53 C 1341.80 487.76 1345.59 485.57 1348.59 483.76 C 1352.84 481.34 1356.87 478.13 1361.89 477.57 C 1365.60 477.33 1367.17 473.40 1369.53 471.07 C 1377.78 476.63 1386.91 480.80 1395.08 486.43 C 1394.57 489.37 1392.91 491.95 1391.62 494.59 C 1395.84 499.52 1395.17 506.16 1395.40 512.19 C 1395.53 519.88 1386.50 524.95 1387.54 532.71 C 1390.03 539.18 1391.87 546.12 1396.79 551.26 C 1396.13 554.74 1393.73 557.63 1393.11 561.12 C 1393.53 563.67 1395.39 565.93 1395.27 568.56 C 1393.18 575.01 1388.65 580.30 1385.03 585.91 C 1377.21 584.82 1369.46 582.89 1361.56 582.79 C 1355.56 583.51 1349.98 580.84 1344.40 579.21 C 1335.79 575.02 1325.95 574.51 1317.47 569.95 C 1317.07 571.54 1316.58 573.13 1316.46 574.78 C 1318.99 579.69 1325.13 581.50 1327.78 586.34 C 1328.76 594.80 1322.53 601.65 1318.23 608.23 C 1311.28 615.86 1299.55 612.27 1290.38 613.68 C 1286.31 615.06 1283.29 618.39 1280.28 621.30 C 1272.53 627.90 1272.83 639.68 1265.65 646.65 C 1256.04 653.07 1243.95 653.44 1233.81 658.68 C 1230.32 660.42 1226.44 661.02 1222.66 661.67 C 1221.56 657.95 1221.72 654.06 1221.83 650.24 C 1218.72 651.62 1215.67 653.10 1212.63 654.58 C 1211.43 653.18 1210.25 651.79 1209.06 650.42 C 1205.65 651.12 1202.25 652.37 1198.76 652.19 C 1195.75 652.17 1194.52 649.01 1193.16 646.87 C 1189.46 639.96 1184.57 633.79 1178.86 628.45 C 1181.44 625.99 1184.13 623.65 1186.89 621.39 C 1183.02 616.35 1179.93 610.69 1179.74 604.22 C 1175.73 604.49 1171.49 604.09 1167.75 605.80 C 1164.43 607.89 1163.08 611.98 1159.97 614.31 C 1157.70 615.09 1155.42 613.58 1153.43 612.65 C 1146.75 609.25 1141.83 603.45 1135.80 599.14 C 1131.05 595.76 1126.05 592.86 1121.05 589.92 C 1123.90 585.99 1127.31 582.48 1129.98 578.43 C 1131.95 572.01 1125.48 566.63 1125.66 560.31 C 1129.12 551.81 1135.10 543.73 1134.85 534.18 C 1132.55 527.57 1127.79 521.96 1123.03 516.94 C 1129.02 509.93 1133.60 501.70 1135.66 492.68 C 1137.22 492.63 1138.79 492.56 1140.37 492.49 C 1140.83 489.91 1141.33 487.34 1141.87 484.79 C 1148.36 485.75 1154.06 489.14 1160.22 491.19 C 1160.53 488.84 1160.84 486.50 1161.14 484.16 C 1164.67 484.25 1168.21 484.32 1171.75 484.43 C 1171.59 477.21 1170.07 469.85 1171.70 462.70 C 1172.08 462.06 1172.85 460.78 1173.23 460.13 Z" />
</g>
<g id="#8f4fdfff" target="891">
<path fill="#8f4fdf" opacity="1.00" d=" M 1069.56 502.62 C 1079.52 504.92 1089.54 500.97 1099.47 502.83 C 1107.43 507.35 1114.12 514.01 1123.03 516.94 C 1127.79 521.96 1132.55 527.57 1134.85 534.18 C 1135.10 543.73 1129.12 551.81 1125.66 560.31 C 1125.48 566.63 1131.95 572.01 1129.98 578.43 C 1127.31 582.48 1123.90 585.99 1121.05 589.92 C 1126.05 592.86 1131.05 595.76 1135.80 599.14 C 1141.83 603.45 1146.75 609.25 1153.43 612.65 C 1155.42 613.58 1157.70 615.09 1159.97 614.31 C 1163.08 611.98 1164.43 607.89 1167.75 605.80 C 1171.49 604.09 1175.73 604.49 1179.74 604.22 C 1179.93 610.69 1183.02 616.35 1186.89 621.39 C 1184.13 623.65 1181.44 625.99 1178.86 628.45 C 1184.57 633.79 1189.46 639.96 1193.16 646.87 C 1194.52 649.01 1195.75 652.17 1198.76 652.19 C 1202.25 652.37 1205.65 651.12 1209.06 650.42 C 1210.25 651.79 1211.43 653.18 1212.63 654.58 C 1215.67 653.10 1218.72 651.62 1221.83 650.24 C 1221.72 654.06 1221.56 657.95 1222.66 661.67 C 1224.10 665.24 1226.58 668.32 1227.81 672.00 C 1226.36 678.01 1223.14 683.45 1220.95 689.21 C 1218.35 688.97 1215.78 688.71 1213.24 688.43 C 1209.81 682.83 1204.65 678.33 1198.57 675.83 C 1197.07 679.16 1195.83 682.64 1194.26 685.95 C 1186.37 682.20 1177.47 682.31 1169.00 681.05 C 1160.74 679.86 1152.50 682.13 1144.24 681.58 C 1141.71 681.54 1139.10 681.28 1136.65 681.98 C 1134.03 683.54 1132.46 686.29 1130.58 688.61 C 1124.52 697.14 1114.68 701.53 1106.09 707.00 C 1100.31 699.15 1093.42 691.24 1083.51 688.91 C 1078.40 687.78 1073.10 689.29 1068.03 688.09 C 1065.60 684.65 1065.18 680.24 1063.18 676.59 C 1061.54 674.65 1058.95 673.94 1056.77 672.81 C 1055.82 675.21 1054.79 677.58 1053.74 679.94 C 1051.98 678.82 1050.22 677.71 1048.46 676.62 C 1049.64 679.82 1050.71 683.03 1051.69 686.31 C 1044.29 683.46 1036.24 683.46 1028.58 681.71 C 1030.86 679.75 1033.57 678.09 1035.11 675.42 C 1036.65 672.22 1036.75 668.49 1038.50 665.38 C 1042.17 662.91 1046.32 665.04 1049.91 666.44 C 1053.44 664.29 1057.11 662.38 1060.90 660.73 C 1058.09 655.65 1053.29 652.16 1049.92 647.54 C 1046.38 641.27 1041.12 635.77 1039.99 628.39 C 1039.55 620.58 1042.60 613.16 1044.31 605.69 C 1043.92 599.51 1042.10 593.49 1041.17 587.38 C 1043.58 587.07 1046.02 586.77 1048.47 586.49 C 1048.89 585.04 1049.33 583.61 1049.77 582.18 C 1047.06 578.84 1043.65 575.68 1042.76 571.29 C 1042.30 567.66 1043.30 564.12 1044.39 560.72 C 1045.72 557.33 1045.28 553.57 1046.43 550.15 C 1047.89 547.47 1050.76 545.94 1052.55 543.51 C 1057.60 537.48 1057.19 529.26 1058.95 522.00 C 1063.98 522.67 1069.01 523.93 1074.13 523.88 C 1072.08 520.25 1069.44 516.90 1067.94 513.01 C 1067.30 509.50 1069.04 506.03 1069.56 502.62 Z" />
</g>
<g id="#cf4fdfff">
<path fill="#cf4fdf" opacity="1.00" d=" M 993.86 549.23 C 1000.92 548.83 1008.01 547.85 1014.51 544.88 C 1014.76 546.95 1015.47 549.08 1015.10 551.18 C 1012.83 555.05 1008.10 557.97 1008.13 562.88 C 1009.54 568.60 1016.99 566.65 1021.31 567.71 C 1029.67 568.42 1036.28 561.71 1044.39 560.72 C 1043.30 564.12 1042.30 567.66 1042.76 571.29 C 1043.65 575.68 1047.06 578.84 1049.77 582.18 C 1049.33 583.61 1048.89 585.04 1048.47 586.49 C 1046.02 586.77 1043.58 587.07 1041.17 587.38 C 1042.10 593.49 1043.92 599.51 1044.31 605.69 C 1042.60 613.16 1039.55 620.58 1039.99 628.39 C 1033.47 631.05 1027.57 634.85 1021.64 638.59 C 1016.34 641.77 1009.57 641.35 1004.33 638.33 C 1000.63 636.10 998.52 642.44 995.76 643.61 C 988.49 643.94 981.21 643.15 973.99 642.48 C 967.93 649.00 961.37 655.19 956.64 662.82 C 955.06 666.19 954.38 670.39 956.00 673.87 C 959.34 677.41 966.99 677.09 968.16 682.80 C 962.41 689.05 952.17 684.48 946.05 690.04 C 940.92 695.39 942.45 703.14 942.54 709.81 C 942.44 719.66 943.46 729.48 943.19 739.33 C 936.96 733.21 939.79 723.54 937.20 715.87 C 936.81 712.05 932.95 710.02 931.90 706.52 C 930.82 700.53 930.81 694.08 927.34 688.82 C 924.59 682.60 919.03 677.50 918.81 670.34 C 917.94 666.52 918.34 662.45 917.12 658.76 C 915.79 656.58 913.18 655.75 911.12 654.49 C 910.39 647.84 909.88 641.18 909.12 634.55 C 908.80 623.71 905.88 612.74 908.08 601.96 C 912.01 595.07 920.52 593.57 927.02 589.92 C 936.67 585.82 943.32 576.85 953.28 573.35 C 960.12 570.66 967.48 573.41 974.38 574.27 C 980.99 576.52 987.83 574.14 994.58 574.38 C 996.77 566.86 992.05 560.24 987.87 554.48 C 989.28 554.43 990.71 554.39 992.13 554.35 C 992.70 552.64 993.26 550.92 993.86 549.23 M 984.52 616.22 C 983.45 617.88 986.30 618.86 987.12 617.42 C 988.24 615.79 985.29 614.78 984.52 616.22 Z" />
</g>
<g id="#cfcfdfff" target="893">
<path fill="#cfcfdf" opacity="1.00" d=" M 1021.64 638.59 C 1027.57 634.85 1033.47 631.05 1039.99 628.39 C 1041.12 635.77 1046.38 641.27 1049.92 647.54 C 1053.29 652.16 1058.09 655.65 1060.90 660.73 C 1057.11 662.38 1053.44 664.29 1049.91 666.44 C 1046.32 665.04 1042.17 662.91 1038.50 665.38 C 1036.75 668.49 1036.65 672.22 1035.11 675.42 C 1033.57 678.09 1030.86 679.75 1028.58 681.71 C 1026.25 683.59 1024.13 685.70 1021.97 687.75 C 1023.82 689.57 1025.67 691.40 1027.52 693.24 C 1024.76 695.09 1022.01 696.95 1019.29 698.85 C 1017.36 697.14 1015.40 695.48 1013.42 693.86 C 1013.49 699.00 1013.72 704.17 1014.27 709.29 C 1011.20 709.69 1008.20 710.34 1005.12 710.42 C 1001.69 710.39 998.20 709.80 994.81 710.21 C 988.54 711.52 982.91 715.75 976.26 714.89 C 973.49 715.09 970.37 714.40 967.88 715.86 C 965.11 719.16 964.69 723.75 963.44 727.76 C 960.74 736.22 961.58 745.14 961.48 753.88 C 961.61 760.72 961.22 767.56 961.59 774.40 C 956.87 767.53 950.80 761.72 946.30 754.70 C 943.65 750.07 943.60 744.52 943.19 739.33 C 943.46 729.48 942.44 719.66 942.54 709.81 C 942.45 703.14 940.92 695.39 946.05 690.04 C 952.17 684.48 962.41 689.05 968.16 682.80 C 966.99 677.09 959.34 677.41 956.00 673.87 C 954.38 670.39 955.06 666.19 956.64 662.82 C 961.37 655.19 967.93 649.00 973.99 642.48 C 981.21 643.15 988.49 643.94 995.76 643.61 C 998.52 642.44 1000.63 636.10 1004.33 638.33 C 1009.57 641.35 1016.34 641.77 1021.64 638.59 M 1014.88 676.91 L 1014.88 678.09 C 1016.23 678.49 1017.59 678.86 1018.96 679.28 C 1018.96 678.39 1018.96 676.61 1018.96 675.72 C 1017.59 676.12 1016.23 676.50 1014.88 676.91 Z" />
</g>
<g id="#cfcf5fff" target="895">
<path fill="#cfcf5f" opacity="1.00" d=" M 1056.77 672.81 C 1058.95 673.94 1061.54 674.65 1063.18 676.59 C 1065.18 680.24 1065.60 684.65 1068.03 688.09 C 1073.10 689.29 1078.40 687.78 1083.51 688.91 C 1093.42 691.24 1100.31 699.15 1106.09 707.00 C 1099.54 710.51 1093.94 715.43 1087.73 719.44 C 1079.44 723.81 1069.79 727.09 1060.35 725.09 C 1054.36 723.87 1048.19 720.31 1041.97 722.49 L 1041.23 722.70 C 1035.77 724.33 1029.94 725.25 1024.32 723.93 C 1016.67 722.57 1010.55 717.44 1004.00 713.67 C 1004.36 712.58 1004.74 711.49 1005.12 710.42 C 1008.20 710.34 1011.20 709.69 1014.27 709.29 C 1013.72 704.17 1013.49 699.00 1013.42 693.86 C 1015.40 695.48 1017.36 697.14 1019.29 698.85 C 1022.01 696.95 1024.76 695.09 1027.52 693.24 C 1025.67 691.40 1023.82 689.57 1021.97 687.75 C 1024.13 685.70 1026.25 683.59 1028.58 681.71 C 1036.24 683.46 1044.29 683.46 1051.69 686.31 C 1050.71 683.03 1049.64 679.82 1048.46 676.62 C 1050.22 677.71 1051.98 678.82 1053.74 679.94 C 1054.79 677.58 1055.82 675.21 1056.77 672.81 Z" />
</g>
<g id="#cf4f5fff" target="897">
<path fill="#cf4f5f" opacity="1.00" d=" M 1198.57 675.83 C 1204.65 678.33 1209.81 682.83 1213.24 688.43 C 1211.18 691.75 1209.95 695.54 1207.66 698.72 C 1206.01 701.13 1202.89 701.45 1200.28 702.03 C 1196.94 716.71 1189.34 729.88 1184.53 744.05 C 1185.34 745.78 1186.71 747.17 1187.91 748.66 C 1185.45 751.18 1182.72 753.62 1179.14 754.40 C 1173.13 756.98 1165.90 751.40 1160.50 756.55 C 1157.76 761.42 1160.41 767.25 1160.75 772.45 C 1159.16 771.26 1157.60 770.06 1156.09 768.81 C 1150.89 764.67 1146.74 759.26 1140.92 755.93 C 1136.76 753.44 1132.24 751.36 1127.48 750.41 C 1123.60 749.45 1122.43 754.59 1120.45 756.89 C 1118.12 755.71 1115.89 754.46 1113.65 753.18 C 1110.64 755.26 1107.62 757.32 1104.61 759.39 C 1099.69 757.23 1094.41 756.38 1089.07 756.64 C 1085.37 756.72 1082.41 754.26 1079.60 752.22 C 1078.23 753.16 1076.87 754.10 1075.52 755.06 C 1076.66 757.50 1077.85 759.93 1079.08 762.34 C 1076.26 763.73 1073.38 764.97 1070.53 766.28 C 1071.79 769.45 1073.14 772.57 1074.52 775.71 C 1071.44 775.87 1068.33 776.19 1065.30 776.56 C 1065.01 772.59 1064.55 768.64 1064.37 764.68 C 1061.26 764.90 1058.10 765.23 1055.03 765.60 C 1052.57 762.88 1050.19 760.06 1047.43 757.65 C 1052.73 756.17 1059.00 756.32 1063.12 752.15 C 1065.43 749.72 1068.61 748.73 1071.70 747.74 C 1074.61 746.85 1076.12 744.00 1077.86 741.74 C 1079.26 743.19 1080.60 744.74 1082.27 745.92 C 1087.79 743.37 1088.13 736.07 1092.72 732.34 C 1091.07 730.76 1089.20 729.36 1087.92 727.45 C 1087.37 724.81 1087.76 722.10 1087.73 719.44 C 1093.94 715.43 1099.54 710.51 1106.09 707.00 C 1114.68 701.53 1124.52 697.14 1130.58 688.61 C 1132.46 686.29 1134.03 683.54 1136.65 681.98 C 1139.10 681.28 1141.71 681.54 1144.24 681.58 C 1152.50 682.13 1160.74 679.86 1169.00 681.05 C 1177.47 682.31 1186.37 682.20 1194.26 685.95 C 1195.83 682.64 1197.07 679.16 1198.57 675.83 Z" />
</g>
<g id="#0f4f5fff" target="885">
<path fill="#0f4f5f" opacity="1.00" d=" M 994.81 710.21 C 998.20 709.80 1001.69 710.39 1005.12 710.42 C 1004.74 711.49 1004.36 712.58 1004.00 713.67 C 1002.00 719.56 999.93 725.47 998.79 731.60 C 996.90 739.32 996.11 747.30 993.85 754.93 C 991.58 761.07 988.89 768.28 992.44 774.53 C 996.33 778.63 1002.55 777.59 1007.57 776.80 C 1007.66 778.84 1007.76 780.88 1007.89 782.92 C 1005.77 783.89 1003.65 784.85 1001.53 785.80 C 1002.48 789.79 1004.07 794.02 1002.13 798.04 C 1001.78 803.69 995.53 803.66 991.55 805.46 C 991.03 808.71 990.55 811.96 990.04 815.22 C 987.02 815.36 983.99 815.42 980.97 815.44 C 980.31 824.54 979.74 833.64 979.25 842.76 C 979.07 837.33 978.91 831.91 978.76 826.50 C 975.89 824.38 971.93 823.25 970.12 819.99 C 966.61 809.36 966.43 798.08 965.52 787.04 C 966.15 782.23 962.42 778.78 961.59 774.40 C 961.22 767.56 961.61 760.72 961.48 753.88 C 961.58 745.14 960.74 736.22 963.44 727.76 C 964.69 723.75 965.11 719.16 967.88 715.86 C 970.37 714.40 973.49 715.09 976.26 714.89 C 982.91 715.75 988.54 711.52 994.81 710.21 M 980.33 782.25 C 982.22 783.89 984.23 785.39 986.30 786.82 C 986.37 784.37 986.36 781.93 986.25 779.49 C 984.23 780.31 982.26 781.24 980.33 782.25 Z" />
</g>
<g id="#4f8fdfff" target="881">
<path fill="#4f8fdf" opacity="1.00" d=" M 1004.00 713.67 C 1010.55 717.44 1016.67 722.57 1024.32 723.93 C 1029.94 725.25 1035.77 724.33 1041.23 722.70 C 1040.59 724.09 1040.02 725.52 1039.47 726.95 C 1040.29 726.85 1041.93 726.65 1042.74 726.55 C 1042.48 725.19 1042.21 723.83 1041.97 722.49 C 1048.19 720.31 1054.36 723.87 1060.35 725.09 C 1069.79 727.09 1079.44 723.81 1087.73 719.44 C 1087.76 722.10 1087.37 724.81 1087.92 727.45 C 1089.20 729.36 1091.07 730.76 1092.72 732.34 C 1088.13 736.07 1087.79 743.37 1082.27 745.92 C 1080.60 744.74 1079.26 743.19 1077.86 741.74 C 1076.12 744.00 1074.61 746.85 1071.70 747.74 C 1068.61 748.73 1065.43 749.72 1063.12 752.15 C 1059.00 756.32 1052.73 756.17 1047.43 757.65 C 1043.00 754.39 1038.63 750.95 1033.77 748.38 C 1028.80 745.81 1023.22 747.05 1017.98 745.99 C 1014.43 745.37 1012.45 742.04 1010.26 739.55 C 1012.18 737.78 1014.11 736.02 1016.05 734.25 C 1010.30 733.31 1004.60 732.08 998.79 731.60 C 999.93 725.47 1002.00 719.56 1004.00 713.67 Z" />
</g>
<g id="#0fcf5fff" target="888">
<path fill="#0fcf5f" opacity="1.00" d=" M 998.79 731.60 C 1004.60 732.08 1010.30 733.31 1016.05 734.25 C 1014.11 736.02 1012.18 737.78 1010.26 739.55 C 1012.45 742.04 1014.43 745.37 1017.98 745.99 C 1023.22 747.05 1028.80 745.81 1033.77 748.38 C 1038.63 750.95 1043.00 754.39 1047.43 757.65 C 1050.19 760.06 1052.57 762.88 1055.03 765.60 C 1054.45 766.93 1053.88 768.28 1053.31 769.62 C 1054.52 770.53 1055.75 771.45 1057.00 772.36 C 1053.04 774.60 1049.65 777.74 1047.31 781.66 C 1045.78 781.59 1044.27 781.52 1042.76 781.45 C 1041.59 785.83 1040.87 790.34 1041.15 794.89 C 1029.27 793.99 1018.55 787.69 1007.89 782.92 C 1007.76 780.88 1007.66 778.84 1007.57 776.80 C 1002.55 777.59 996.33 778.63 992.44 774.53 C 988.89 768.28 991.58 761.07 993.85 754.93 C 996.11 747.30 996.90 739.32 998.79 731.60 Z" />
</g>
<g id="#8f4f5fff" target="883">
<path fill="#8f4f5f" opacity="1.00" d=" M 1187.91 748.66 C 1190.83 745.98 1193.61 742.30 1197.85 741.87 C 1201.88 744.64 1206.39 748.86 1205.54 754.30 C 1204.61 759.24 1201.81 763.62 1199.80 768.20 C 1203.23 769.75 1206.92 769.34 1209.45 766.38 C 1214.13 767.88 1218.51 771.70 1223.68 769.53 C 1224.86 772.39 1224.97 776.25 1228.07 777.77 C 1233.04 780.39 1236.09 785.25 1239.59 789.46 C 1237.08 789.28 1234.50 788.56 1232.03 789.21 C 1229.55 790.38 1227.87 792.68 1225.98 794.58 C 1223.58 791.42 1221.24 788.24 1219.03 784.96 C 1216.62 786.45 1214.20 787.92 1211.81 789.42 C 1206.49 786.75 1201.66 783.06 1195.98 781.21 C 1194.35 783.17 1193.32 785.53 1192.15 787.77 C 1187.38 787.34 1182.61 786.83 1177.89 786.09 C 1177.67 793.42 1176.71 801.46 1182.05 807.37 C 1180.48 810.64 1178.85 813.89 1176.67 816.81 C 1174.32 821.04 1169.48 822.87 1166.91 826.87 C 1165.35 829.21 1163.78 831.54 1161.85 833.59 C 1157.43 834.69 1152.99 832.96 1148.75 831.88 C 1144.38 836.77 1140.70 842.25 1136.01 846.85 C 1131.01 849.93 1123.84 850.07 1120.54 855.58 C 1114.46 864.66 1111.50 875.38 1107.59 885.50 C 1105.71 890.59 1103.63 895.62 1102.10 900.84 C 1100.57 900.52 1099.07 900.20 1097.58 899.86 C 1100.71 890.59 1104.36 881.50 1107.58 872.27 C 1108.23 868.69 1109.94 864.14 1107.06 861.26 C 1103.14 858.57 1099.01 856.20 1095.41 853.07 C 1096.27 850.88 1097.09 848.68 1097.92 846.49 C 1093.85 844.09 1090.05 841.28 1086.02 838.83 C 1084.78 841.17 1083.51 843.50 1082.19 845.80 C 1080.15 842.63 1077.29 839.87 1076.24 836.20 C 1080.30 829.62 1085.52 823.74 1088.89 816.71 C 1089.86 819.58 1090.63 822.57 1091.39 825.53 C 1096.48 825.70 1101.58 826.15 1106.64 826.81 C 1110.85 820.02 1115.54 813.50 1120.89 807.56 C 1123.66 804.22 1124.31 799.59 1127.38 796.44 C 1132.16 791.47 1136.52 786.07 1139.83 779.99 C 1141.21 777.72 1142.52 775.02 1145.22 774.07 C 1148.11 773.02 1151.06 774.55 1153.82 775.35 C 1154.56 773.16 1155.31 770.98 1156.09 768.81 C 1157.60 770.06 1159.16 771.26 1160.75 772.45 C 1160.41 767.25 1157.76 761.42 1160.50 756.55 C 1165.90 751.40 1173.13 756.98 1179.14 754.40 C 1182.72 753.62 1185.45 751.18 1187.91 748.66 M 1117.87 844.51 C 1119.46 843.91 1121.15 843.47 1122.61 842.54 C 1123.64 838.83 1123.83 835.01 1123.66 831.20 C 1120.89 835.21 1119.25 839.87 1117.87 844.51 M 1125.12 834.53 C 1122.82 837.96 1129.04 835.30 1125.12 834.53 Z" />
</g>
<g id="#2f0f9ffe" target="886">
<path fill="#2f0f9f" opacity="1.00" d=" M 1120.45 756.89 C 1122.43 754.59 1123.60 749.45 1127.48 750.41 C 1132.24 751.36 1136.76 753.44 1140.92 755.93 C 1146.74 759.26 1150.89 764.67 1156.09 768.81 C 1155.31 770.98 1154.56 773.16 1153.82 775.35 C 1151.06 774.55 1148.11 773.02 1145.22 774.07 C 1142.52 775.02 1141.21 777.72 1139.83 779.99 C 1136.52 786.07 1132.16 791.47 1127.38 796.44 C 1124.31 799.59 1123.66 804.22 1120.89 807.56 C 1115.54 813.50 1110.85 820.02 1106.64 826.81 C 1101.58 826.15 1096.48 825.70 1091.39 825.53 C 1090.63 822.57 1089.86 819.58 1088.89 816.71 C 1088.25 815.13 1087.59 813.60 1086.90 812.07 C 1084.96 812.06 1082.98 812.29 1081.08 811.87 C 1079.84 810.45 1079.05 808.71 1078.24 807.05 C 1080.97 803.15 1083.71 799.03 1088.05 796.74 C 1095.15 792.91 1101.75 787.75 1105.80 780.64 C 1107.89 776.78 1112.01 774.98 1115.74 773.12 C 1112.89 767.88 1108.48 763.82 1104.61 759.39 C 1107.62 757.32 1110.64 755.26 1113.65 753.18 C 1115.89 754.46 1118.12 755.71 1120.45 756.89 Z" />
</g>
<g id="#8fcfdfff" target="892">
<path fill="#8fcfdf" opacity="1.00" d=" M 1075.52 755.06 C 1076.87 754.10 1078.23 753.16 1079.60 752.22 C 1082.41 754.26 1085.37 756.72 1089.07 756.64 C 1094.41 756.38 1099.69 757.23 1104.61 759.39 C 1108.48 763.82 1112.89 767.88 1115.74 773.12 C 1112.01 774.98 1107.89 776.78 1105.80 780.64 C 1101.75 787.75 1095.15 792.91 1088.05 796.74 C 1083.71 799.03 1080.97 803.15 1078.24 807.05 C 1077.30 804.72 1076.57 802.31 1075.75 799.95 C 1072.84 803.64 1068.74 805.96 1064.06 806.37 C 1063.78 812.53 1060.29 817.85 1056.10 822.14 C 1054.77 817.03 1050.46 813.92 1046.35 811.05 C 1046.41 805.37 1043.09 799.44 1045.99 794.04 C 1048.01 790.20 1048.85 785.84 1047.31 781.66 C 1049.65 777.74 1053.04 774.60 1057.00 772.36 C 1055.75 771.45 1054.52 770.53 1053.31 769.62 C 1053.88 768.28 1054.45 766.93 1055.03 765.60 C 1058.10 765.23 1061.26 764.90 1064.37 764.68 C 1064.55 768.64 1065.01 772.59 1065.30 776.56 C 1068.33 776.19 1071.44 775.87 1074.52 775.71 C 1073.14 772.57 1071.79 769.45 1070.53 766.28 C 1073.38 764.97 1076.26 763.73 1079.08 762.34 C 1077.85 759.93 1076.66 757.50 1075.52 755.06 Z" />
</g>
<g id="#cf8fdfff" target="882">
<path fill="#cf8fdf" opacity="1.00" d=" M 980.33 782.25 C 982.26 781.24 984.23 780.31 986.25 779.49 C 986.36 781.93 986.37 784.37 986.30 786.82 C 984.23 785.39 982.22 783.89 980.33 782.25 Z" />
</g>
<g id="#af0f1fff" target="884">
<path fill="#af0f1f" opacity="1.00" d=" M 1042.76 781.45 C 1044.27 781.52 1045.78 781.59 1047.31 781.66 C 1048.85 785.84 1048.01 790.20 1045.99 794.04 C 1043.09 799.44 1046.41 805.37 1046.35 811.05 C 1045.37 813.24 1044.26 815.37 1043.38 817.60 C 1038.29 818.67 1033.00 819.68 1027.94 817.92 C 1027.02 819.51 1026.12 821.10 1025.22 822.71 C 1020.95 819.64 1017.58 815.57 1013.64 812.14 C 1010.80 816.67 1009.40 821.97 1006.32 826.35 C 1002.79 830.51 997.01 831.62 992.89 835.03 C 990.74 837.73 991.72 841.69 991.11 844.80 C 990.88 853.63 989.70 862.40 989.18 871.21 C 986.22 869.74 981.96 868.91 981.06 865.21 C 980.51 859.86 979.78 854.54 979.24 849.20 C 979.24 847.85 979.22 845.17 979.22 843.83 L 979.25 842.76 C 979.74 833.64 980.31 824.54 980.97 815.44 C 983.99 815.42 987.02 815.36 990.04 815.22 C 990.55 811.96 991.03 808.71 991.55 805.46 C 995.53 803.66 1001.78 803.69 1002.13 798.04 C 1004.07 794.02 1002.48 789.79 1001.53 785.80 C 1003.65 784.85 1005.77 783.89 1007.89 782.92 C 1018.55 787.69 1029.27 793.99 1041.15 794.89 C 1040.87 790.34 1041.59 785.83 1042.76 781.45 Z" />
</g>
<g id="#4f0fdfff" target="880">
<path fill="#4f0fdf" opacity="1.00" d=" M 1192.15 787.77 C 1193.32 785.53 1194.35 783.17 1195.98 781.21 C 1201.66 783.06 1206.49 786.75 1211.81 789.42 C 1214.20 787.92 1216.62 786.45 1219.03 784.96 C 1221.24 788.24 1223.58 791.42 1225.98 794.58 C 1227.87 792.68 1229.55 790.38 1232.03 789.21 C 1234.50 788.56 1237.08 789.28 1239.59 789.46 C 1238.23 792.72 1235.38 795.66 1235.42 799.36 C 1237.43 801.54 1240.54 803.25 1240.44 806.66 C 1240.49 810.08 1242.68 812.73 1244.68 815.29 C 1244.26 818.69 1243.85 822.10 1243.95 825.53 C 1245.36 830.61 1241.22 834.31 1240.30 838.89 C 1242.15 844.01 1246.30 848.27 1246.74 853.90 C 1248.09 864.47 1249.34 876.85 1241.39 885.36 C 1237.36 891.53 1229.10 888.24 1223.20 890.18 C 1215.48 897.34 1218.65 911.89 1207.78 916.21 C 1201.23 917.07 1195.00 919.80 1190.06 924.21 C 1182.84 932.35 1178.96 942.86 1172.20 951.28 C 1168.04 952.84 1163.48 948.34 1159.08 950.16 C 1156.23 950.84 1153.00 952.63 1150.18 950.87 C 1135.03 943.07 1126.65 927.80 1115.97 915.36 C 1113.05 914.17 1109.97 914.15 1107.22 912.71 C 1104.57 909.25 1104.15 904.63 1102.10 900.84 C 1103.63 895.62 1105.71 890.59 1107.59 885.50 C 1111.50 875.38 1114.46 864.66 1120.54 855.58 C 1123.84 850.07 1131.01 849.93 1136.01 846.85 C 1140.70 842.25 1144.38 836.77 1148.75 831.88 C 1152.99 832.96 1157.43 834.69 1161.85 833.59 C 1163.78 831.54 1165.35 829.21 1166.91 826.87 C 1169.48 822.87 1174.32 821.04 1176.67 816.81 C 1178.85 813.89 1180.48 810.64 1182.05 807.37 C 1176.71 801.46 1177.67 793.42 1177.89 786.09 C 1182.61 786.83 1187.38 787.34 1192.15 787.77 Z" />
</g>
<g id="#0fcfdfff" target="889">
<path fill="#0fcfdf" opacity="1.00" d=" M 1064.06 806.37 C 1068.74 805.96 1072.84 803.64 1075.75 799.95 C 1076.57 802.31 1077.30 804.72 1078.24 807.05 C 1079.05 808.71 1079.84 810.45 1081.08 811.87 C 1082.98 812.29 1084.96 812.06 1086.90 812.07 C 1087.59 813.60 1088.25 815.13 1088.89 816.71 C 1085.52 823.74 1080.30 829.62 1076.24 836.20 C 1077.29 839.87 1080.15 842.63 1082.19 845.80 C 1083.51 843.50 1084.78 841.17 1086.02 838.83 C 1090.05 841.28 1093.85 844.09 1097.92 846.49 C 1097.09 848.68 1096.27 850.88 1095.41 853.07 C 1099.01 856.20 1103.14 858.57 1107.06 861.26 C 1109.94 864.14 1108.23 868.69 1107.58 872.27 C 1104.36 881.50 1100.71 890.59 1097.58 899.86 C 1096.24 902.67 1095.66 906.86 1092.18 907.74 C 1089.96 906.76 1088.05 905.21 1085.81 904.33 C 1083.06 904.86 1080.86 906.78 1078.52 908.17 C 1075.66 905.50 1072.95 902.58 1070.09 899.96 C 1065.68 897.58 1060.66 897.13 1055.87 896.09 C 1056.01 893.04 1056.59 890.33 1056.90 887.38 C 1051.21 887.47 1045.56 886.63 1039.90 886.24 C 1042.60 875.16 1044.13 863.85 1046.29 852.66 C 1044.04 850.21 1041.38 848.13 1039.68 845.26 C 1039.16 840.57 1041.00 836.19 1041.81 831.69 C 1042.09 826.97 1041.91 822.16 1043.38 817.60 C 1044.26 815.37 1045.37 813.24 1046.35 811.05 C 1050.46 813.92 1054.77 817.03 1056.10 822.14 C 1060.29 817.85 1063.78 812.53 1064.06 806.37 Z" />
</g>
<g id="#8fcf5ffe">
<path fill="#8fcf5f" opacity="1.00" d=" M 1013.64 812.14 C 1017.58 815.57 1020.95 819.64 1025.22 822.71 C 1026.12 821.10 1027.02 819.51 1027.94 817.92 C 1033.00 819.68 1038.29 818.67 1043.38 817.60 C 1041.91 822.16 1042.09 826.97 1041.81 831.69 C 1041.00 836.19 1039.16 840.57 1039.68 845.26 C 1041.38 848.13 1044.04 850.21 1046.29 852.66 C 1044.13 863.85 1042.60 875.16 1039.90 886.24 C 1035.55 887.30 1031.69 889.54 1028.15 892.21 C 1025.76 894.20 1022.59 892.63 1019.99 892.03 C 1014.00 890.49 1008.76 886.32 1002.36 886.63 C 998.54 886.93 996.12 883.69 993.69 881.30 C 991.09 878.59 989.00 875.08 989.18 871.21 C 989.70 862.40 990.88 853.63 991.11 844.80 C 991.72 841.69 990.74 837.73 992.89 835.03 C 997.01 831.62 1002.79 830.51 1006.32 826.35 C 1009.40 821.97 1010.80 816.67 1013.64 812.14 Z" />
</g>
</svg>
