<?xml version="1.0" encoding="UTF-8" ?>
<!DOCTYPE svg PUBLIC "-//W3C//DTD SVG 1.1//EN" "http://www.w3.org/Graphics/SVG/1.1/DTD/svg11.dtd">
<svg width="1920pt" height="1080pt" viewBox="0 0 1920 1080" version="1.1" xmlns="http://www.w3.org/2000/svg">
<g id="#1f003fff">
<path fill="#1f003f" fill-opacity="0" d=" M 1027.85 177.78 C 1036.41 176.94 1044.99 175.09 1053.61 175.57 C 1060.51 178.67 1066.92 182.84 1073.59 186.45 C 1079.56 189.39 1082.68 195.53 1086.22 200.82 C 1091.91 210.20 1098.47 219.07 1103.43 228.88 C 1099.43 230.64 1095.62 232.78 1091.81 234.88 C 1092.55 237.71 1093.19 240.59 1094.18 243.36 C 1090.99 248.67 1088.23 254.21 1085.72 259.87 C 1082.67 266.82 1077.28 272.30 1072.93 278.43 C 1067.50 274.14 1060.66 275.53 1054.32 275.51 C 1045.85 273.23 1040.41 265.36 1032.61 261.72 C 1028.19 259.87 1023.14 259.64 1019.09 256.93 C 1011.96 252.18 1005.98 245.85 998.52 241.58 C 994.81 239.79 990.50 240.07 986.53 240.49 C 979.81 239.84 976.50 246.19 972.86 250.52 C 971.46 249.82 970.05 249.13 968.65 248.47 C 968.87 239.84 968.59 231.16 969.72 222.58 C 972.47 217.63 976.84 213.67 979.21 208.47 C 981.04 203.55 982.54 198.50 984.31 193.55 C 988.92 196.18 992.53 200.12 996.75 203.26 C 999.23 205.22 1002.54 203.18 1003.47 200.58 C 1003.68 196.92 1004.10 189.61 1004.31 185.95 C 1012.01 182.82 1019.31 178.24 1027.85 177.78 Z" />
</g>
<g id="#df7fbfff">
<path fill="#df7fbf" fill-opacity="0" d=" M 1123.21 234.39 C 1135.96 231.08 1148.28 226.30 1161.00 222.86 C 1162.99 227.46 1164.11 232.65 1167.39 236.56 C 1171.05 239.16 1175.60 240.07 1179.83 241.37 C 1180.59 244.23 1181.36 247.11 1182.14 249.99 C 1187.10 252.74 1192.19 255.29 1197.51 257.29 C 1198.02 261.60 1197.21 266.25 1198.71 270.42 C 1203.48 277.56 1212.00 280.74 1219.86 283.22 C 1220.21 295.98 1221.16 308.70 1221.68 321.45 C 1221.20 329.27 1226.18 335.66 1230.42 341.68 C 1228.68 345.54 1227.32 349.62 1227.47 353.90 C 1225.82 354.42 1224.16 354.92 1222.53 355.43 C 1221.03 361.86 1222.53 368.30 1225.92 373.83 C 1217.37 371.27 1208.74 369.07 1200.14 366.74 C 1192.69 364.70 1193.17 355.32 1190.64 349.46 C 1185.56 350.82 1181.43 354.22 1177.62 357.69 C 1173.73 355.87 1169.81 354.11 1165.96 352.20 C 1168.40 346.94 1170.71 341.63 1173.03 336.33 C 1170.79 334.46 1168.55 332.60 1166.26 330.83 C 1162.99 335.06 1159.78 339.34 1156.67 343.69 C 1150.22 342.90 1143.72 342.57 1137.30 341.61 C 1129.50 341.62 1126.04 333.72 1122.01 328.34 C 1117.99 321.64 1114.55 314.61 1110.93 307.70 C 1115.68 305.88 1120.42 304.03 1125.11 302.03 C 1122.75 293.53 1120.72 284.90 1117.38 276.73 C 1114.52 272.41 1108.19 272.05 1105.67 267.33 C 1101.16 259.69 1098.22 251.24 1094.18 243.36 C 1093.19 240.59 1092.55 237.71 1091.81 234.88 C 1095.62 232.78 1099.43 230.64 1103.43 228.88 C 1107.10 227.68 1110.72 226.03 1114.60 225.59 C 1117.76 228.20 1120.25 231.55 1123.21 234.39 M 1193.20 311.31 C 1191.71 311.29 1191.71 313.70 1193.20 313.69 C 1194.66 313.74 1194.66 311.25 1193.20 311.31 Z" />
</g>
<g id="#9f3f3fff">
<path fill="#9f3f3f" fill-opacity="0" d=" M 972.86 250.52 C 976.50 246.19 979.81 239.84 986.53 240.49 C 990.50 240.07 994.81 239.79 998.52 241.58 C 1005.98 245.85 1011.96 252.18 1019.09 256.93 C 1023.14 259.64 1028.19 259.87 1032.61 261.72 C 1040.41 265.36 1045.85 273.23 1054.32 275.51 C 1060.66 275.53 1067.50 274.14 1072.93 278.43 C 1068.69 284.60 1065.34 291.62 1059.09 296.09 C 1048.08 304.70 1036.69 312.91 1026.68 322.73 C 1023.87 325.63 1023.46 329.91 1022.48 333.61 C 1021.36 338.76 1020.05 343.86 1018.69 348.95 C 1009.64 349.68 1000.56 349.79 991.50 349.65 C 994.56 346.29 997.78 343.07 1000.97 339.82 C 993.49 327.05 987.34 313.56 979.84 300.79 C 976.03 304.06 972.28 307.41 968.24 310.39 C 964.55 304.94 960.96 299.42 957.48 293.84 C 951.80 296.53 946.73 301.20 939.99 300.78 C 935.01 301.47 929.96 301.39 925.02 302.32 C 926.72 300.29 928.52 298.35 930.41 296.50 C 931.71 291.92 930.66 286.04 934.52 282.56 C 938.15 278.85 941.96 275.31 945.52 271.52 C 949.73 272.81 954.00 274.12 958.26 275.34 C 959.80 265.29 957.40 254.46 961.51 244.89 C 963.86 246.13 966.23 247.35 968.65 248.47 C 970.05 249.13 971.46 249.82 972.86 250.52 Z" />
</g>
<g id="#9fbf7fff">
<path fill="#9fbf7f" fill-opacity="0" d=" M 1085.72 259.87 C 1088.23 254.21 1090.99 248.67 1094.18 243.36 C 1098.22 251.24 1101.16 259.69 1105.67 267.33 C 1108.19 272.05 1114.52 272.41 1117.38 276.73 C 1120.72 284.90 1122.75 293.53 1125.11 302.03 C 1120.42 304.03 1115.68 305.88 1110.93 307.70 C 1114.55 314.61 1117.99 321.64 1122.01 328.34 C 1116.79 337.91 1116.75 349.01 1114.42 359.41 C 1111.95 371.72 1110.76 384.25 1108.19 396.56 C 1093.10 396.10 1078.07 394.70 1063.04 393.29 C 1061.97 397.90 1060.89 402.50 1059.80 407.10 C 1054.32 397.75 1048.42 388.63 1043.64 378.89 C 1034.36 380.36 1025.23 382.58 1016.14 384.86 C 1006.43 375.46 996.22 366.44 987.48 356.13 C 987.94 353.56 989.91 351.61 991.50 349.65 C 1000.56 349.79 1009.64 349.68 1018.69 348.95 C 1020.05 343.86 1021.36 338.76 1022.48 333.61 C 1023.46 329.91 1023.87 325.63 1026.68 322.73 C 1036.69 312.91 1048.08 304.70 1059.09 296.09 C 1065.34 291.62 1068.69 284.60 1072.93 278.43 C 1077.28 272.30 1082.67 266.82 1085.72 259.87 Z" />
</g>
<g id="#5f00bffe">
<path fill="#5f00bf" fill-opacity="0" d=" M 939.99 300.78 C 946.73 301.20 951.80 296.53 957.48 293.84 C 960.96 299.42 964.55 304.94 968.24 310.39 C 972.28 307.41 976.03 304.06 979.84 300.79 C 987.34 313.56 993.49 327.05 1000.97 339.82 C 997.78 343.07 994.56 346.29 991.50 349.65 C 989.91 351.61 987.94 353.56 987.48 356.13 C 996.22 366.44 1006.43 375.46 1016.14 384.86 C 1008.24 386.84 1000.32 388.78 992.39 390.62 C 992.12 405.07 991.29 419.51 991.11 433.97 C 990.82 437.12 991.07 441.05 988.21 443.14 C 980.95 448.84 973.04 453.62 965.33 458.67 C 960.51 461.78 955.53 464.69 951.01 468.22 C 941.27 457.72 930.94 447.76 921.63 436.85 C 915.86 437.61 910.16 440.18 904.30 439.37 C 897.24 436.62 891.03 432.12 884.66 428.10 C 885.74 424.16 886.88 420.25 888.01 416.33 C 877.22 409.89 867.77 401.36 856.64 395.50 C 856.58 395.24 856.46 394.71 856.40 394.45 C 853.83 389.12 857.11 384.18 859.10 379.39 C 860.03 373.49 865.81 371.65 870.33 369.32 C 873.10 368.10 875.87 366.48 878.96 366.32 C 883.46 367.41 887.44 370.06 891.79 371.64 C 892.07 365.30 892.16 358.98 892.53 352.66 C 892.85 347.49 896.93 343.71 898.78 339.08 C 900.22 333.29 898.85 327.28 899.81 321.46 C 904.73 311.58 914.21 304.62 925.02 302.32 C 929.96 301.39 935.01 301.47 939.99 300.78 Z" />
</g>
<g id="#1f3f3fff">
<path fill="#1f3f3f" fill-opacity="0" d=" M 1193.20 311.31 C 1194.66 311.25 1194.66 313.74 1193.20 313.69 C 1191.71 313.70 1191.71 311.29 1193.20 311.31 Z" />
</g>
<g id="#1fbf3fff">
<path fill="#1fbf3f" fill-opacity="0" d=" M 1122.01 328.34 C 1126.04 333.72 1129.50 341.62 1137.30 341.61 C 1143.72 342.57 1150.22 342.90 1156.67 343.69 C 1159.78 339.34 1162.99 335.06 1166.26 330.83 C 1168.55 332.60 1170.79 334.46 1173.03 336.33 C 1170.71 341.63 1168.40 346.94 1165.96 352.20 C 1169.81 354.11 1173.73 355.87 1177.62 357.69 C 1181.43 354.22 1185.56 350.82 1190.64 349.46 C 1193.17 355.32 1192.69 364.70 1200.14 366.74 C 1208.74 369.07 1217.37 371.27 1225.92 373.83 C 1222.53 368.30 1221.03 361.86 1222.53 355.43 C 1224.16 354.92 1225.82 354.42 1227.47 353.90 C 1227.63 357.16 1227.98 360.48 1228.19 363.76 C 1236.23 366.65 1244.86 369.72 1249.53 377.49 C 1255.90 377.64 1262.27 378.03 1268.64 378.66 C 1274.13 381.22 1278.89 385.32 1284.73 387.17 C 1290.31 388.91 1295.84 390.77 1301.53 392.22 C 1307.10 394.11 1312.38 391.04 1317.89 390.80 C 1321.06 391.26 1323.90 392.99 1327.10 393.41 C 1329.19 393.24 1331.07 392.17 1333.02 391.44 C 1334.11 394.82 1335.21 398.20 1336.32 401.58 C 1331.46 406.56 1326.95 412.20 1320.34 414.95 C 1314.08 418.50 1306.68 419.53 1300.56 423.26 C 1291.43 430.93 1283.79 440.21 1276.79 449.83 C 1272.43 456.06 1264.61 457.70 1258.03 460.55 C 1250.15 459.35 1241.57 455.68 1234.09 460.10 C 1217.06 467.71 1200.99 477.22 1184.92 486.65 C 1185.87 478.76 1186.01 470.79 1186.28 462.86 C 1178.83 459.55 1170.55 458.37 1163.34 454.56 C 1155.95 446.55 1153.44 435.39 1147.35 426.51 C 1146.21 424.79 1144.28 423.85 1142.31 423.54 C 1123.66 421.46 1104.85 420.88 1086.23 418.53 C 1085.04 414.34 1083.68 410.19 1082.08 406.15 C 1074.65 406.43 1067.21 406.57 1059.80 407.10 C 1060.89 402.50 1061.97 397.90 1063.04 393.29 C 1078.07 394.70 1093.10 396.10 1108.19 396.56 C 1110.76 384.25 1111.95 371.72 1114.42 359.41 C 1116.75 349.01 1116.79 337.91 1122.01 328.34 M 1177.83 414.34 C 1184.27 424.75 1191.18 435.60 1201.94 442.08 C 1205.01 443.81 1208.15 446.77 1211.96 445.99 C 1217.80 445.11 1223.36 443.09 1229.14 441.86 C 1218.72 425.50 1208.16 409.24 1197.88 392.78 C 1191.09 399.87 1185.04 407.67 1177.83 414.34 Z" />
</g>
<g id="#5f3f00ff">
<path fill="#5f3f00" fill-opacity="0" d=" M 1016.14 384.86 C 1025.23 382.58 1034.36 380.36 1043.64 378.89 C 1048.42 388.63 1054.32 397.75 1059.80 407.10 C 1067.21 406.57 1074.65 406.43 1082.08 406.15 C 1083.68 410.19 1085.04 414.34 1086.23 418.53 C 1078.45 420.13 1070.91 422.82 1063.71 426.15 C 1065.37 431.75 1067.23 437.32 1069.60 442.67 C 1055.87 446.68 1042.90 452.72 1029.51 457.67 C 1019.83 461.70 1010.01 465.62 1000.98 471.00 C 996.80 473.44 994.70 477.95 992.33 481.94 C 983.27 474.25 974.14 466.64 965.33 458.67 C 973.04 453.62 980.95 448.84 988.21 443.14 C 991.07 441.05 990.82 437.12 991.11 433.97 C 991.29 419.51 992.12 405.07 992.39 390.62 C 1000.32 388.78 1008.24 386.84 1016.14 384.86 Z" />
</g>
<g id="#9fbf3fff">
<path fill="#9fbf3f" fill-opacity="0" d=" M 1177.83 414.34 C 1185.04 407.67 1191.09 399.87 1197.88 392.78 C 1208.16 409.24 1218.72 425.50 1229.14 441.86 C 1223.36 443.09 1217.80 445.11 1211.96 445.99 C 1208.15 446.77 1205.01 443.81 1201.94 442.08 C 1191.18 435.60 1184.27 424.75 1177.83 414.34 Z" />
</g>
<g id="#df3f7fff">
<path fill="#df3f7f" fill-opacity="0" d=" M 856.40 394.45 C 856.46 394.71 856.58 395.24 856.64 395.50 C 857.96 402.68 859.24 409.87 861.22 416.91 C 861.87 420.02 862.96 423.26 862.18 426.45 C 860.38 430.34 856.91 433.08 854.01 436.12 C 846.21 432.37 838.31 428.81 830.17 425.85 C 826.30 442.25 822.99 458.78 819.34 475.24 C 819.21 477.55 817.58 481.05 820.55 482.16 C 826.74 485.19 833.39 487.16 839.84 489.57 C 839.64 498.97 839.16 508.35 838.81 517.76 C 828.33 522.94 818.64 529.91 807.37 533.33 C 802.76 534.82 797.90 533.42 793.21 533.86 C 781.04 536.56 772.25 546.17 764.26 555.04 C 745.72 547.63 727.58 539.27 709.41 531.01 C 712.07 516.66 710.43 501.70 704.76 488.26 C 712.94 488.07 721.79 489.95 729.50 486.41 C 731.87 484.39 733.04 481.39 734.57 478.76 C 737.28 480.24 739.75 482.32 742.83 483.01 C 745.58 480.34 745.60 476.26 746.34 472.76 C 752.12 473.28 759.18 475.98 763.35 470.35 C 768.48 466.81 770.15 460.83 770.11 454.95 C 776.50 453.22 784.08 454.72 789.73 450.70 C 799.75 441.44 807.97 428.49 806.70 414.30 C 812.44 415.89 818.46 416.09 824.19 417.78 C 825.69 414.28 827.83 411.11 830.50 408.39 C 830.40 406.25 830.29 404.12 830.19 402.00 C 833.48 403.86 836.77 405.70 840.18 407.40 C 841.38 405.29 842.64 403.22 843.92 401.16 C 847.24 403.04 850.93 404.09 854.82 403.69 C 855.35 400.61 855.88 397.53 856.40 394.45 Z" />
</g>
<g id="#1f7fbfff">
<path fill="#1f7fbf" fill-opacity="0" d=" M 856.64 395.50 C 867.77 401.36 877.22 409.89 888.01 416.33 C 886.88 420.25 885.74 424.16 884.66 428.10 C 891.03 432.12 897.24 436.62 904.30 439.37 C 910.16 440.18 915.86 437.61 921.63 436.85 C 930.94 447.76 941.27 457.72 951.01 468.22 C 944.27 475.86 941.39 486.19 942.29 496.29 C 933.48 493.95 924.90 490.83 916.27 487.95 C 914.86 493.25 913.76 498.71 911.47 503.73 C 904.31 513.14 895.93 521.56 888.68 530.90 C 882.78 529.36 877.02 527.42 871.21 525.61 C 872.09 521.40 873.01 517.19 873.94 513.00 C 868.26 510.60 862.44 508.55 856.49 506.95 C 853.97 511.55 851.41 516.14 848.81 520.69 C 845.48 519.69 842.14 518.73 838.81 517.76 C 839.16 508.35 839.64 498.97 839.84 489.57 C 833.39 487.16 826.74 485.19 820.55 482.16 C 817.58 481.05 819.21 477.55 819.34 475.24 C 822.99 458.78 826.30 442.25 830.17 425.85 C 838.31 428.81 846.21 432.37 854.01 436.12 C 856.91 433.08 860.38 430.34 862.18 426.45 C 862.96 423.26 861.87 420.02 861.22 416.91 C 859.24 409.87 857.96 402.68 856.64 395.50 Z" />
</g>
<g id="#df00bfff">
<path fill="#df00bf" fill-opacity="0" d=" M 1320.34 414.95 C 1326.95 412.20 1331.46 406.56 1336.32 401.58 C 1342.51 405.29 1349.09 408.69 1354.33 413.72 C 1360.21 424.45 1353.59 437.89 1359.32 448.73 C 1362.42 453.64 1356.44 457.87 1355.39 462.55 C 1359.20 464.05 1363.20 465.23 1366.71 467.42 C 1370.13 469.60 1371.48 474.30 1375.66 475.38 C 1380.16 477.25 1385.26 477.96 1389.48 480.53 C 1391.63 482.78 1393.21 485.81 1393.63 488.91 C 1390.73 500.19 1381.41 507.76 1374.67 516.67 C 1370.45 521.84 1366.11 527.08 1360.30 530.51 C 1353.02 534.70 1349.52 542.91 1342.77 547.61 C 1335.46 549.22 1327.70 550.15 1321.27 554.35 C 1319.51 551.55 1317.63 548.84 1315.73 546.15 C 1311.05 550.22 1307.31 555.96 1300.70 556.99 C 1303.86 552.94 1308.11 549.45 1310.17 544.65 C 1311.00 538.32 1307.94 532.15 1307.11 526.01 C 1302.67 526.86 1297.74 526.41 1293.73 528.79 C 1290.04 531.66 1287.58 535.74 1284.70 539.36 C 1280.05 534.95 1274.81 531.12 1270.58 526.31 C 1266.81 522.10 1270.86 515.87 1267.70 511.43 C 1265.72 508.29 1263.24 505.50 1261.04 502.53 C 1259.56 503.66 1256.60 505.93 1255.12 507.07 C 1252.11 505.46 1247.87 503.33 1248.42 499.23 C 1250.48 486.08 1255.08 473.50 1258.03 460.55 C 1264.61 457.70 1272.43 456.06 1276.79 449.83 C 1283.79 440.21 1291.43 430.93 1300.56 423.26 C 1306.68 419.53 1314.08 418.50 1320.34 414.95 Z" />
</g>
<g id="#df3f00ff">
<path fill="#df3f00" fill-opacity="0" d=" M 1063.71 426.15 C 1070.91 422.82 1078.45 420.13 1086.23 418.53 C 1104.85 420.88 1123.66 421.46 1142.31 423.54 C 1144.28 423.85 1146.21 424.79 1147.35 426.51 C 1153.44 435.39 1155.95 446.55 1163.34 454.56 C 1170.55 458.37 1178.83 459.55 1186.28 462.86 C 1186.01 470.79 1185.87 478.76 1184.92 486.65 C 1180.32 489.65 1175.07 492.18 1172.21 497.11 C 1166.19 505.74 1160.93 514.87 1155.45 523.85 C 1147.19 523.90 1138.98 523.83 1130.75 523.50 C 1130.42 530.63 1129.52 537.72 1128.97 544.84 C 1116.61 547.38 1102.83 555.05 1090.43 548.55 C 1084.77 546.01 1079.22 543.22 1073.42 541.00 C 1077.48 533.66 1083.56 527.38 1085.93 519.21 C 1085.97 514.71 1084.21 510.41 1083.06 506.11 C 1080.87 499.61 1079.85 492.27 1074.97 487.08 C 1070.36 482.16 1065.35 477.64 1060.73 472.74 C 1066.80 468.42 1072.73 463.91 1078.89 459.72 C 1075.72 454.07 1072.39 448.51 1069.60 442.67 C 1067.23 437.32 1065.37 431.75 1063.71 426.15 Z" />
</g>
<g id="#9f7fbffe">
<path fill="#9f7fbf" fill-opacity="0" d=" M 604.72 447.63 C 610.27 444.41 613.53 438.35 619.02 435.06 C 624.97 437.20 630.37 440.68 636.46 442.50 C 641.43 443.75 646.43 446.43 649.16 450.92 C 650.08 461.00 647.24 471.01 648.13 481.10 C 648.70 486.35 651.23 491.23 651.51 496.51 C 648.95 499.30 645.94 501.66 643.11 504.16 C 646.90 512.41 650.82 520.60 654.92 528.71 C 650.79 532.39 646.00 535.65 643.12 540.49 C 640.62 546.87 640.99 553.93 639.78 560.61 C 638.25 574.91 634.70 588.89 631.11 602.78 C 629.60 607.45 627.72 611.99 625.84 616.53 C 618.21 612.79 611.52 607.52 604.41 602.93 C 603.28 598.79 604.76 593.66 601.88 590.13 C 598.26 585.40 593.88 581.27 590.80 576.16 C 583.86 565.06 574.07 556.23 565.82 546.18 C 561.37 540.75 560.50 533.34 556.18 527.84 C 550.22 519.87 542.97 512.98 536.64 505.32 C 535.08 503.54 534.48 501.21 533.97 498.97 C 538.82 500.75 543.66 502.75 548.91 503.12 C 551.73 497.11 551.75 489.98 555.35 484.29 C 558.67 481.61 563.47 482.39 567.50 481.61 C 567.43 477.17 566.31 472.91 564.07 469.10 C 569.86 463.32 573.43 455.79 574.93 447.82 C 575.78 443.39 582.07 444.81 585.03 444.10 C 591.78 443.97 598.09 447.16 604.72 447.63 Z" />
</g>
<g id="#1f7f3fff">
<path fill="#1f7f3f" fill-opacity="0" d=" M 1029.51 457.67 C 1042.90 452.72 1055.87 446.68 1069.60 442.67 C 1072.39 448.51 1075.72 454.07 1078.89 459.72 C 1072.73 463.91 1066.80 468.42 1060.73 472.74 C 1065.35 477.64 1070.36 482.16 1074.97 487.08 C 1079.85 492.27 1080.87 499.61 1083.06 506.11 C 1084.21 510.41 1085.97 514.71 1085.93 519.21 C 1083.56 527.38 1077.48 533.66 1073.42 541.00 C 1068.72 549.75 1063.14 558.06 1059.09 567.14 C 1056.13 573.44 1059.84 579.84 1062.07 585.72 C 1057.04 586.39 1052.03 587.13 1047.03 587.97 C 1044.84 594.47 1043.92 601.43 1041.08 607.70 C 1038.79 610.27 1035.53 611.81 1032.61 613.57 C 1023.09 618.41 1013.67 623.46 1004.06 628.11 C 991.49 617.29 979.15 606.18 967.03 594.87 C 964.69 599.07 962.46 603.34 960.55 607.76 C 954.78 603.76 949.08 599.65 943.04 596.08 C 940.55 584.77 939.92 573.20 938.47 561.76 C 935.49 555.35 929.52 551.14 924.84 546.07 C 919.99 541.73 926.12 535.49 926.72 530.63 C 929.14 526.12 924.18 523.12 921.68 520.19 C 918.60 517.42 920.64 512.60 920.08 509.16 C 917.21 507.33 914.36 505.50 911.47 503.73 C 913.76 498.71 914.86 493.25 916.27 487.95 C 924.90 490.83 933.48 493.95 942.29 496.29 C 941.39 486.19 944.27 475.86 951.01 468.22 C 955.53 464.69 960.51 461.78 965.33 458.67 C 974.14 466.64 983.27 474.25 992.33 481.94 C 994.70 477.95 996.80 473.44 1000.98 471.00 C 1010.01 465.62 1019.83 461.70 1029.51 457.67 Z" />
</g>
<g id="#5f7fbffe">
<path fill="#5f7fbf" fill-opacity="0" d=" M 649.16 450.92 C 655.14 459.24 659.68 468.45 665.04 477.16 C 668.29 476.82 671.65 476.52 674.92 476.11 C 676.97 479.46 679.00 482.84 681.10 486.17 C 686.32 485.39 691.49 484.35 696.75 483.69 C 700.14 482.92 702.93 485.78 704.76 488.26 C 710.43 501.70 712.07 516.66 709.41 531.01 C 696.70 542.71 683.77 554.19 669.55 564.08 C 670.91 569.24 673.57 574.76 671.20 580.05 C 668.03 589.75 658.56 594.93 651.79 601.84 C 648.78 604.91 651.36 609.37 652.05 612.97 C 648.43 614.63 644.77 616.22 641.14 617.86 C 637.86 612.80 634.57 607.73 631.11 602.78 C 634.70 588.89 638.25 574.91 639.78 560.61 C 640.99 553.93 640.62 546.87 643.12 540.49 C 646.00 535.65 650.79 532.39 654.92 528.71 C 650.82 520.60 646.90 512.41 643.11 504.16 C 645.94 501.66 648.95 499.30 651.51 496.51 C 651.23 491.23 648.70 486.35 648.13 481.10 C 647.24 471.01 650.08 461.00 649.16 450.92 Z" />
</g>
<g id="#9f00bfff">
<path fill="#9f00bf" fill-opacity="0" d=" M 1234.09 460.10 C 1241.57 455.68 1250.15 459.35 1258.03 460.55 C 1255.08 473.50 1250.48 486.08 1248.42 499.23 C 1247.87 503.33 1252.11 505.46 1255.12 507.07 C 1256.60 505.93 1259.56 503.66 1261.04 502.53 C 1263.24 505.50 1265.72 508.29 1267.70 511.43 C 1270.86 515.87 1266.81 522.10 1270.58 526.31 C 1274.81 531.12 1280.05 534.95 1284.70 539.36 C 1287.58 535.74 1290.04 531.66 1293.73 528.79 C 1297.74 526.41 1302.67 526.86 1307.11 526.01 C 1307.94 532.15 1311.00 538.32 1310.17 544.65 C 1308.11 549.45 1303.86 552.94 1300.70 556.99 C 1299.79 557.95 1298.81 558.85 1297.89 559.79 C 1298.46 565.34 1300.87 570.38 1303.37 575.29 C 1295.81 577.66 1288.26 580.10 1280.89 583.04 C 1280.32 588.60 1279.66 594.16 1279.35 599.75 C 1276.05 599.14 1272.68 598.55 1269.40 598.04 C 1265.76 605.76 1261.73 613.29 1257.63 620.78 C 1249.89 620.28 1242.20 619.43 1234.49 618.70 C 1230.13 618.36 1225.10 618.35 1222.36 622.33 C 1217.36 628.57 1211.81 634.32 1206.46 640.24 C 1197.64 635.36 1188.52 631.07 1179.67 626.29 C 1177.08 625.16 1174.29 623.37 1171.38 624.29 C 1163.45 626.57 1155.95 630.01 1148.31 633.07 C 1145.14 625.82 1141.85 618.63 1138.99 611.25 C 1134.66 600.22 1127.89 589.72 1128.26 577.43 C 1128.64 566.57 1128.44 555.69 1128.97 544.84 C 1129.52 537.72 1130.42 530.63 1130.75 523.50 C 1138.98 523.83 1147.19 523.90 1155.45 523.85 C 1160.93 514.87 1166.19 505.74 1172.21 497.11 C 1175.07 492.18 1180.32 489.65 1184.92 486.65 C 1200.99 477.22 1217.06 467.71 1234.09 460.10 Z" />
</g>
<g id="#5fbf00ff">
<path fill="#5fbf00" fill-opacity="0" d=" M 888.68 530.90 C 895.93 521.56 904.31 513.14 911.47 503.73 C 914.36 505.50 917.21 507.33 920.08 509.16 C 920.64 512.60 918.60 517.42 921.68 520.19 C 924.18 523.12 929.14 526.12 926.72 530.63 C 926.12 535.49 919.99 541.73 924.84 546.07 C 929.52 551.14 935.49 555.35 938.47 561.76 C 939.92 573.20 940.55 584.77 943.04 596.08 L 942.32 596.11 C 936.11 596.84 930.13 598.91 923.91 599.43 C 921.17 598.94 919.35 596.45 917.27 594.81 C 911.50 595.24 905.72 595.43 899.96 595.92 C 899.56 599.95 899.26 603.99 898.90 608.03 C 890.89 608.93 882.77 609.05 874.78 607.84 C 861.85 605.73 850.20 599.31 837.37 596.80 C 830.34 609.44 823.32 622.08 815.94 634.52 C 808.08 630.67 800.09 627.11 792.14 623.49 C 784.89 620.03 777.35 617.24 770.13 613.75 C 768.56 612.80 766.28 611.87 766.15 609.77 C 766.56 605.17 769.60 601.04 769.31 596.37 C 767.91 593.04 765.35 590.35 763.36 587.39 C 766.91 585.36 770.42 583.23 773.87 581.03 C 770.30 572.51 767.10 563.82 764.26 555.04 C 772.25 546.17 781.04 536.56 793.21 533.86 C 797.90 533.42 802.76 534.82 807.37 533.33 C 818.64 529.91 828.33 522.94 838.81 517.76 C 842.14 518.73 845.48 519.69 848.81 520.69 C 851.41 516.14 853.97 511.55 856.49 506.95 C 862.44 508.55 868.26 510.60 873.94 513.00 C 873.01 517.19 872.09 521.40 871.21 525.61 C 877.02 527.42 882.78 529.36 888.68 530.90 Z" />
</g>
<g id="#5f7f3fff">
<path fill="#5f7f3f" fill-opacity="0" d=" M 669.55 564.08 C 683.77 554.19 696.70 542.71 709.41 531.01 C 727.58 539.27 745.72 547.63 764.26 555.04 C 767.10 563.82 770.30 572.51 773.87 581.03 C 770.42 583.23 766.91 585.36 763.36 587.39 C 765.35 590.35 767.91 593.04 769.31 596.37 C 769.60 601.04 766.56 605.17 766.15 609.77 C 766.28 611.87 768.56 612.80 770.13 613.75 C 777.35 617.24 784.89 620.03 792.14 623.49 C 790.85 627.79 789.70 632.14 788.76 636.53 C 781.71 633.55 774.45 631.11 767.35 628.26 C 766.60 631.63 765.19 635.02 765.61 638.53 C 769.05 644.51 774.72 648.71 778.54 654.38 C 782.77 661.53 783.03 670.12 784.64 678.06 C 774.74 676.82 764.89 675.23 755.01 673.95 C 756.33 678.24 757.80 682.49 758.73 686.89 C 748.60 683.42 738.89 678.87 728.88 675.09 C 721.14 659.27 710.56 645.08 702.85 629.24 C 697.25 633.90 691.69 638.60 685.90 643.02 C 679.23 638.76 672.59 634.46 665.97 630.14 C 659.52 626.21 655.50 619.47 652.05 612.97 C 651.36 609.37 648.78 604.91 651.79 601.84 C 658.56 594.93 668.03 589.75 671.20 580.05 C 673.57 574.76 670.91 569.24 669.55 564.08 M 742.34 592.94 C 742.52 594.23 742.69 595.54 743.07 596.80 C 744.21 596.07 745.32 595.30 746.47 594.57 C 745.08 594.02 743.71 593.47 742.34 592.94 Z" />
</g>
<g id="#dfbf00fe">
<path fill="#dfbf00" fill-opacity="0" d=" M 1073.42 541.00 C 1079.22 543.22 1084.77 546.01 1090.43 548.55 C 1102.83 555.05 1116.61 547.38 1128.97 544.84 C 1128.44 555.69 1128.64 566.57 1128.26 577.43 C 1127.89 589.72 1134.66 600.22 1138.99 611.25 C 1141.85 618.63 1145.14 625.82 1148.31 633.07 C 1152.44 641.37 1149.23 650.54 1148.09 659.12 C 1146.00 672.25 1144.30 685.44 1142.10 698.56 C 1120.15 699.34 1098.21 700.76 1076.27 701.97 C 1073.23 714.70 1070.57 727.52 1067.35 740.22 C 1065.06 749.80 1060.62 758.70 1056.74 767.71 C 1052.61 776.68 1049.38 786.12 1044.31 794.63 C 1038.05 801.16 1028.02 800.47 1021.29 806.18 C 1019.35 807.58 1017.70 809.31 1016.08 811.06 C 1012.97 810.71 1009.97 810.36 1006.94 809.66 C 1008.02 805.12 1009.11 800.60 1010.18 796.06 C 1007.45 796.03 1004.73 796.00 1002.03 795.99 C 1001.33 797.97 1000.66 799.98 999.98 801.98 C 995.41 798.45 990.92 794.80 985.85 792.02 C 987.41 777.17 990.02 762.43 991.16 747.54 C 991.97 741.33 990.13 735.30 988.60 729.37 C 986.47 722.01 985.16 714.43 983.05 707.06 C 981.81 701.87 980.01 696.55 981.50 691.19 C 983.35 682.26 986.11 673.57 988.55 664.79 C 992.15 651.95 998.77 640.28 1004.06 628.11 C 1013.67 623.46 1023.09 618.41 1032.61 613.57 C 1035.53 611.81 1038.79 610.27 1041.08 607.70 C 1043.92 601.43 1044.84 594.47 1047.03 587.97 C 1052.03 587.13 1057.04 586.39 1062.07 585.72 C 1059.84 579.84 1056.13 573.44 1059.09 567.14 C 1063.14 558.06 1068.72 549.75 1073.42 541.00 Z" />
</g>
<g id="#1f3fbfff">
<path fill="#1f3fbf" fill-opacity="0" d=" M 1303.37 575.29 L 1303.95 575.10 C 1305.31 578.66 1306.56 582.39 1309.08 585.35 C 1313.49 583.32 1316.17 579.09 1319.21 575.51 C 1323.39 578.34 1327.10 581.87 1329.62 586.28 C 1331.03 588.04 1332.01 591.26 1334.84 590.74 C 1339.55 590.27 1344.19 589.16 1348.87 588.28 C 1347.66 593.47 1344.57 597.92 1341.66 602.28 C 1344.08 606.75 1346.95 610.94 1349.94 615.06 C 1350.91 616.57 1352.73 618.58 1351.49 620.52 C 1348.51 626.57 1343.08 630.93 1338.22 635.39 C 1339.21 638.00 1340.19 640.63 1341.14 643.29 C 1339.94 647.89 1336.79 651.60 1335.08 655.97 C 1338.96 661.16 1345.12 664.03 1349.96 668.22 C 1343.30 674.40 1333.39 678.40 1331.18 688.10 C 1331.04 688.03 1330.77 687.87 1330.63 687.79 C 1320.93 683.12 1311.78 675.43 1300.55 675.24 C 1290.77 674.35 1280.93 674.24 1271.15 675.08 C 1262.40 675.81 1253.29 675.56 1245.05 679.00 C 1228.27 685.67 1210.95 690.96 1194.51 698.45 C 1190.38 700.24 1186.06 701.53 1181.85 703.12 C 1184.13 699.33 1186.03 695.33 1188.04 691.39 C 1185.18 688.90 1182.33 686.39 1179.52 683.87 C 1181.96 678.13 1184.24 672.19 1188.36 667.41 C 1195.26 658.95 1200.47 649.32 1206.46 640.24 C 1211.81 634.32 1217.36 628.57 1222.36 622.33 C 1225.10 618.35 1230.13 618.36 1234.49 618.70 C 1242.20 619.43 1249.89 620.28 1257.63 620.78 C 1261.73 613.29 1265.76 605.76 1269.40 598.04 C 1272.68 598.55 1276.05 599.14 1279.35 599.75 C 1279.66 594.16 1280.32 588.60 1280.89 583.04 C 1288.26 580.10 1295.81 577.66 1303.37 575.29 Z" />
</g>
<g id="#df003fff">
<path fill="#df003f" fill-opacity="0" d=" M 742.34 592.94 C 743.71 593.47 745.08 594.02 746.47 594.57 C 745.32 595.30 744.21 596.07 743.07 596.80 C 742.69 595.54 742.52 594.23 742.34 592.94 Z" />
</g>
<g id="#5fbf7fff">
<path fill="#5fbf7f" fill-opacity="0" d=" M 899.96 595.92 C 905.72 595.43 911.50 595.24 917.27 594.81 C 919.35 596.45 921.17 598.94 923.91 599.43 C 930.13 598.91 936.11 596.84 942.32 596.11 C 939.63 606.12 935.33 615.59 932.31 625.51 C 925.91 626.61 919.49 627.58 913.03 628.24 C 911.34 636.69 910.36 645.26 908.53 653.68 C 907.10 660.79 896.92 658.06 893.32 663.37 C 892.63 665.15 891.52 667.91 893.67 669.14 C 895.74 670.57 898.14 671.42 900.48 672.33 C 900.88 683.53 904.07 694.31 908.18 704.67 C 899.84 705.95 891.58 707.62 883.28 709.11 C 884.00 714.37 883.05 720.32 886.02 724.93 C 891.36 728.00 897.93 727.56 903.80 728.95 C 909.59 755.63 915.58 782.27 920.91 809.05 C 914.96 816.99 905.74 820.97 897.23 825.44 C 896.05 822.90 894.91 820.35 893.78 817.81 C 882.37 819.38 870.98 821.00 859.49 821.86 C 856.43 814.60 850.29 809.62 842.58 808.05 C 839.91 805.45 837.82 802.21 834.52 800.39 C 830.45 799.15 826.60 800.90 822.90 802.24 C 820.71 801.39 818.47 800.60 816.48 799.36 C 804.20 784.34 793.10 768.39 781.22 753.05 C 790.16 746.75 799.14 739.57 804.70 729.99 C 806.21 720.88 806.88 711.62 807.10 702.38 C 807.26 699.61 804.89 697.66 803.20 695.82 C 797.00 689.91 790.61 684.20 784.64 678.06 C 783.03 670.12 782.77 661.53 778.54 654.38 C 774.72 648.71 769.05 644.51 765.61 638.53 C 765.19 635.02 766.60 631.63 767.35 628.26 C 774.45 631.11 781.71 633.55 788.76 636.53 C 789.70 632.14 790.85 627.79 792.14 623.49 C 800.09 627.11 808.08 630.67 815.94 634.52 C 823.32 622.08 830.34 609.44 837.37 596.80 C 850.20 599.31 861.85 605.73 874.78 607.84 C 882.77 609.05 890.89 608.93 898.90 608.03 C 899.26 603.99 899.56 599.95 899.96 595.92 Z" />
</g>
<g id="#9f003ffe">
<path fill="#9f003f" fill-opacity="0" d=" M 967.03 594.87 C 979.15 606.18 991.49 617.29 1004.06 628.11 C 998.77 640.28 992.15 651.95 988.55 664.79 C 986.11 673.57 983.35 682.26 981.50 691.19 C 980.01 696.55 981.81 701.87 983.05 707.06 C 985.16 714.43 986.47 722.01 988.60 729.37 C 990.13 735.30 991.97 741.33 991.16 747.54 C 990.02 762.43 987.41 777.17 985.85 792.02 C 983.30 794.15 980.92 796.46 978.61 798.85 C 969.71 793.75 960.07 790.29 949.93 788.71 C 949.51 791.66 949.12 794.64 948.75 797.63 C 942.10 798.65 934.98 800.10 930.84 805.93 C 927.07 804.86 923.75 806.75 920.91 809.05 C 915.58 782.27 909.59 755.63 903.80 728.95 C 897.93 727.56 891.36 728.00 886.02 724.93 C 883.05 720.32 884.00 714.37 883.28 709.11 C 891.58 707.62 899.84 705.95 908.18 704.67 C 904.07 694.31 900.88 683.53 900.48 672.33 C 898.14 671.42 895.74 670.57 893.67 669.14 C 891.52 667.91 892.63 665.15 893.32 663.37 C 896.92 658.06 907.10 660.79 908.53 653.68 C 910.36 645.26 911.34 636.69 913.03 628.24 C 919.49 627.58 925.91 626.61 932.31 625.51 C 935.33 615.59 939.63 606.12 942.32 596.11 L 943.04 596.08 C 949.08 599.65 954.78 603.76 960.55 607.76 C 962.46 603.34 964.69 599.07 967.03 594.87 Z" />
</g>
<g id="#9f7f3ffe">
<path fill="#9f7f3f" fill-opacity="0" d=" M 604.41 602.93 C 611.52 607.52 618.21 612.79 625.84 616.53 C 627.72 611.99 629.60 607.45 631.11 602.78 C 634.57 607.73 637.86 612.80 641.14 617.86 C 644.77 616.22 648.43 614.63 652.05 612.97 C 655.50 619.47 659.52 626.21 665.97 630.14 C 672.59 634.46 679.23 638.76 685.90 643.02 C 691.69 638.60 697.25 633.90 702.85 629.24 C 710.56 645.08 721.14 659.27 728.88 675.09 C 725.07 677.82 721.23 680.57 716.97 682.56 C 711.34 684.49 705.35 684.78 699.47 685.19 C 699.27 689.22 699.02 693.27 698.72 697.32 C 688.25 696.80 678.14 693.71 667.77 692.50 C 657.99 691.14 651.31 699.90 644.29 705.27 C 643.21 697.69 642.74 689.96 640.27 682.67 C 633.95 684.88 627.65 687.15 621.32 689.31 C 620.06 679.12 617.74 669.05 617.18 658.78 C 614.29 661.10 611.42 663.45 608.53 665.78 C 607.42 664.27 606.32 662.77 605.21 661.28 C 603.38 661.72 601.56 662.20 599.70 662.49 C 597.42 662.07 596.00 659.09 594.60 657.36 C 591.57 652.02 595.72 645.24 591.67 640.21 C 588.44 633.96 585.26 627.70 582.62 621.19 C 586.56 620.32 590.75 620.07 594.47 618.34 C 598.63 613.79 601.79 608.48 604.41 602.93 M 676.18 679.32 C 674.69 680.31 676.35 682.84 677.82 681.68 C 679.29 680.67 677.63 678.14 676.18 679.32 Z" />
</g>
<g id="#5f3f7fff">
<path fill="#5f3f7f" fill-opacity="0" d=" M 1171.38 624.29 C 1174.29 623.37 1177.08 625.16 1179.67 626.29 C 1188.52 631.07 1197.64 635.36 1206.46 640.24 C 1200.47 649.32 1195.26 658.95 1188.36 667.41 C 1184.24 672.19 1181.96 678.13 1179.52 683.87 C 1182.33 686.39 1185.18 688.90 1188.04 691.39 C 1186.03 695.33 1184.13 699.33 1181.85 703.12 C 1181.64 703.25 1181.21 703.50 1180.99 703.62 C 1191.07 707.68 1200.75 712.62 1210.70 716.97 C 1205.74 719.89 1199.82 720.79 1195.04 724.02 C 1193.68 728.50 1193.19 733.16 1192.54 737.78 C 1198.17 737.07 1203.83 736.49 1209.50 736.15 C 1211.76 738.88 1214.14 741.52 1216.48 744.20 C 1205.29 750.89 1192.11 754.38 1182.44 763.44 C 1177.94 767.57 1173.06 771.27 1167.71 774.22 C 1172.91 779.94 1184.26 783.58 1183.66 792.81 C 1183.41 797.98 1182.98 803.15 1182.62 808.34 C 1174.54 811.23 1166.46 814.11 1158.30 816.78 C 1149.42 819.32 1143.19 826.59 1136.37 832.38 C 1128.98 839.42 1121.01 845.82 1113.79 853.04 C 1108.33 851.71 1107.89 845.94 1107.51 841.19 C 1104.58 840.96 1102.08 841.04 1099.26 840.88 C 1097.74 837.97 1096.61 834.88 1094.73 832.21 C 1092.23 828.87 1087.70 827.36 1085.80 823.62 C 1085.42 819.04 1085.25 814.36 1083.16 810.15 C 1078.29 809.81 1073.44 809.43 1068.60 809.02 C 1068.29 804.93 1068.60 800.55 1066.00 797.10 C 1062.98 793.67 1057.76 792.23 1053.73 794.76 C 1050.75 796.71 1047.36 795.85 1044.31 794.63 C 1049.38 786.12 1052.61 776.68 1056.74 767.71 C 1060.62 758.70 1065.06 749.80 1067.35 740.22 C 1070.57 727.52 1073.23 714.70 1076.27 701.97 C 1098.21 700.76 1120.15 699.34 1142.10 698.56 C 1144.30 685.44 1146.00 672.25 1148.09 659.12 C 1149.23 650.54 1152.44 641.37 1148.31 633.07 C 1155.95 630.01 1163.45 626.57 1171.38 624.29 Z" />
</g>
<g id="#1fbf7fff">
<path fill="#1fbf7f" fill-opacity="0" d=" M 608.53 665.78 C 611.42 663.45 614.29 661.10 617.18 658.78 C 617.74 669.05 620.06 679.12 621.32 689.31 C 627.65 687.15 633.95 684.88 640.27 682.67 C 642.74 689.96 643.21 697.69 644.29 705.27 C 651.31 699.90 657.99 691.14 667.77 692.50 C 678.14 693.71 688.25 696.80 698.72 697.32 C 694.04 704.84 688.63 712.29 680.85 716.86 C 670.11 722.45 664.06 733.16 657.83 743.01 C 665.63 752.48 673.04 762.28 680.61 771.95 C 675.13 773.59 669.55 771.81 664.00 771.87 C 657.51 772.95 650.16 774.32 645.65 779.61 C 640.85 785.51 638.58 792.94 636.26 800.07 C 630.22 800.50 624.16 801.22 618.35 802.98 C 622.62 805.53 626.99 807.95 631.22 810.58 C 631.18 811.87 631.14 813.17 631.17 814.48 C 623.55 811.48 616.39 807.40 609.57 802.91 C 612.76 794.72 614.25 786.04 614.19 777.25 C 606.84 772.45 597.76 768.67 593.07 760.89 C 593.74 757.80 596.08 755.43 596.94 752.43 C 598.65 744.35 600.32 736.22 600.85 727.98 C 599.60 722.71 594.11 718.74 594.17 713.07 C 596.64 707.95 601.86 703.66 600.80 697.32 C 598.45 693.93 594.73 691.81 591.65 689.17 C 594.04 687.68 596.61 686.45 598.82 684.69 C 599.78 681.94 599.85 679.01 600.35 676.18 C 602.82 678.15 605.34 680.11 608.06 681.76 C 608.71 679.23 609.56 676.71 609.68 674.08 C 607.03 669.68 603.44 665.96 599.70 662.49 C 601.56 662.20 603.38 661.72 605.21 661.28 C 606.32 662.77 607.42 664.27 608.53 665.78 Z" />
</g>
<g id="#df7f3fff">
<path fill="#df7f3f" fill-opacity="0" d=" M 755.01 673.95 C 764.89 675.23 774.74 676.82 784.64 678.06 C 790.61 684.20 797.00 689.91 803.20 695.82 C 804.89 697.66 807.26 699.61 807.10 702.38 C 806.88 711.62 806.21 720.88 804.70 729.99 C 799.14 739.57 790.16 746.75 781.22 753.05 C 793.10 768.39 804.20 784.34 816.48 799.36 C 815.91 799.74 814.78 800.50 814.22 800.88 C 812.17 799.57 810.20 797.99 807.84 797.34 C 805.19 797.34 802.69 798.33 800.18 799.02 C 800.76 803.77 802.99 807.96 805.03 812.20 C 804.56 816.01 804.85 819.86 805.79 823.58 C 801.83 825.10 797.64 825.88 793.60 827.12 C 794.76 836.49 796.07 845.90 798.41 855.07 C 796.39 855.47 794.39 855.87 792.40 856.30 C 791.24 860.38 790.60 864.70 788.44 868.42 C 784.48 870.06 779.93 870.00 776.19 872.21 C 773.46 873.93 772.17 877.03 770.50 879.65 C 767.80 879.10 764.98 878.45 762.31 878.01 C 758.25 882.85 753.01 886.96 746.82 888.55 C 741.83 888.31 737.31 885.19 732.20 885.84 C 727.11 885.68 721.78 887.34 716.97 885.09 C 699.02 877.08 680.78 869.75 662.74 861.95 C 664.07 858.37 666.11 855.11 667.34 851.50 C 658.78 847.90 650.48 843.72 641.98 840.00 C 639.60 838.85 636.96 837.81 635.31 835.66 C 634.22 832.34 635.69 828.82 635.12 825.45 C 634.21 821.65 631.97 818.30 631.17 814.48 C 631.14 813.17 631.18 811.87 631.22 810.58 C 626.99 807.95 622.62 805.53 618.35 802.98 C 624.16 801.22 630.22 800.50 636.26 800.07 C 638.58 792.94 640.85 785.51 645.65 779.61 C 650.16 774.32 657.51 772.95 664.00 771.87 C 669.55 771.81 675.13 773.59 680.61 771.95 C 673.04 762.28 665.63 752.48 657.83 743.01 C 664.06 733.16 670.11 722.45 680.85 716.86 C 688.63 712.29 694.04 704.84 698.72 697.32 C 699.02 693.27 699.27 689.22 699.47 685.19 C 705.35 684.78 711.34 684.49 716.97 682.56 C 721.23 680.57 725.07 677.82 728.88 675.09 C 738.89 678.87 748.60 683.42 758.73 686.89 C 757.80 682.49 756.33 678.24 755.01 673.95 Z" />
</g>
<g id="#5f003fff">
<path fill="#5f003f" fill-opacity="0" d=" M 1271.15 675.08 C 1280.93 674.24 1290.77 674.35 1300.55 675.24 C 1311.78 675.43 1320.93 683.12 1330.63 687.79 C 1324.35 695.84 1315.66 702.03 1310.79 711.10 C 1309.72 711.92 1310.43 714.06 1311.89 713.19 C 1311.45 716.79 1311.20 720.43 1311.52 724.05 C 1315.92 723.17 1320.32 722.30 1324.84 722.21 C 1329.43 725.58 1332.93 730.17 1337.39 733.69 C 1328.91 741.89 1328.13 755.16 1318.86 762.83 C 1311.14 768.67 1314.83 780.15 1309.46 787.49 C 1302.51 793.32 1294.22 797.11 1286.32 801.41 C 1281.20 804.67 1275.70 800.11 1270.61 798.91 C 1261.66 795.56 1252.94 791.64 1244.05 788.17 C 1247.52 783.92 1251.00 779.64 1253.76 774.89 C 1254.84 771.57 1253.22 768.08 1252.20 764.95 C 1249.57 758.50 1247.24 751.91 1244.51 745.51 C 1242.96 738.66 1234.72 736.25 1228.75 738.25 C 1224.46 739.78 1220.49 742.08 1216.48 744.20 C 1214.14 741.52 1211.76 738.88 1209.50 736.15 C 1203.83 736.49 1198.17 737.07 1192.54 737.78 C 1193.19 733.16 1193.68 728.50 1195.04 724.02 C 1199.82 720.79 1205.74 719.89 1210.70 716.97 C 1200.75 712.62 1191.07 707.68 1180.99 703.62 C 1181.21 703.50 1181.64 703.25 1181.85 703.12 C 1186.06 701.53 1190.38 700.24 1194.51 698.45 C 1210.95 690.96 1228.27 685.67 1245.05 679.00 C 1253.29 675.56 1262.40 675.81 1271.15 675.08 Z" />
</g>
<g id="#1f00bfff">
<path fill="#1f00bf" fill-opacity="0" d=" M 676.18 679.32 C 677.63 678.14 679.29 680.67 677.82 681.68 C 676.35 682.84 674.69 680.31 676.18 679.32 Z" />
</g>
<g id="#bf9f20ff">
<path fill="#bf9f20" fill-opacity="0" d=" M 1311.89 713.19 C 1310.43 714.06 1309.72 711.92 1310.79 711.10 C 1311.06 711.62 1311.61 712.67 1311.89 713.19 Z" />
</g>
<g id="#dfbf7fff">
<path fill="#dfbf7f" fill-opacity="0" d=" M 1228.75 738.25 C 1234.72 736.25 1242.96 738.66 1244.51 745.51 C 1247.24 751.91 1249.57 758.50 1252.20 764.95 C 1253.22 768.08 1254.84 771.57 1253.76 774.89 C 1251.00 779.64 1247.52 783.92 1244.05 788.17 C 1252.94 791.64 1261.66 795.56 1270.61 798.91 C 1272.53 805.34 1277.78 810.07 1283.09 813.88 C 1282.19 820.38 1281.06 827.09 1277.97 832.95 C 1275.68 837.52 1270.34 838.98 1266.19 841.26 C 1259.75 843.99 1253.67 847.82 1246.82 849.45 C 1237.28 849.01 1227.45 840.90 1217.89 845.95 C 1212.66 849.58 1207.99 853.94 1203.21 858.12 C 1202.54 863.12 1205.44 869.41 1201.72 873.69 C 1199.74 876.35 1197.03 878.42 1195.28 881.26 C 1194.92 884.53 1196.07 888.15 1198.53 890.43 C 1207.28 894.46 1216.77 896.50 1225.72 900.07 C 1222.99 903.25 1219.80 905.98 1216.48 908.54 C 1212.04 911.87 1210.57 917.71 1206.48 921.34 C 1186.76 929.55 1165.65 933.67 1145.10 939.23 C 1145.46 934.73 1145.73 930.19 1146.08 925.72 C 1144.25 924.12 1139.40 927.27 1138.26 924.13 C 1136.48 920.92 1136.97 915.79 1133.21 913.88 C 1130.46 912.30 1127.40 911.41 1124.41 910.44 C 1123.58 907.32 1123.08 904.07 1121.88 901.10 C 1119.03 900.57 1116.21 900.70 1113.38 900.56 C 1113.94 892.56 1111.49 884.85 1110.27 877.06 C 1111.61 871.00 1117.33 866.54 1116.98 859.99 C 1116.80 857.36 1115.06 855.22 1113.79 853.04 C 1121.01 845.82 1128.98 839.42 1136.37 832.38 C 1143.19 826.59 1149.42 819.32 1158.30 816.78 C 1166.46 814.11 1174.54 811.23 1182.62 808.34 C 1182.98 803.15 1183.41 797.98 1183.66 792.81 C 1184.26 783.58 1172.91 779.94 1167.71 774.22 C 1173.06 771.27 1177.94 767.57 1182.44 763.44 C 1192.11 754.38 1205.29 750.89 1216.48 744.20 C 1220.49 742.08 1224.46 739.78 1228.75 738.25 Z" />
</g>
<g id="#cf3f5ffe">
<path fill="#cf3f5f" fill-opacity="0" d=" M 0.00 1079.00 C 136.33 1079.00 272.66 1078.99 409.00 1079.00 L 409.01 1080.00 L 0.00 1080.00 L 0.00 1079.00 Z" />
</g>
<g id="#8f5f00ff">
<path fill="#8f5f00" fill-opacity="0" d=" M 409.00 1079.00 C 427.91 1078.92 446.84 1078.59 465.72 1079.96 L 466.71 1080.00 L 409.01 1080.00 L 409.00 1079.00 Z" />
</g>
<g id="#cf3f5fff">
<path fill="#cf3f5f" fill-opacity="0" d=" M 465.72 1079.96 C 485.44 1078.41 505.24 1079.05 525.00 1079.01 C 678.33 1078.99 831.67 1079.00 985.00 1079.00 C 1035.33 1079.31 1085.67 1078.35 1135.99 1079.52 L 1136.38 1080.00 L 466.71 1080.00 L 465.72 1079.96 Z" />
</g>
<g id="#fefefeff">
<path fill="#fefefe" fill-opacity="0" d=" M 1135.99 1079.52 C 1137.46 1078.39 1139.51 1078.39 1141.01 1079.52 L 1140.62 1080.00 L 1136.38 1080.00 L 1135.99 1079.52 Z" />
</g>
<g id="#4f3f00ff">
<path fill="#4f3f00" fill-opacity="0" d=" M 1141.01 1079.52 C 1166.66 1078.57 1192.33 1079.11 1218.00 1079.00 L 1217.99 1080.00 L 1140.62 1080.00 L 1141.01 1079.52 Z" />
<path fill="#4f3f00" fill-opacity="0" d=" M 1232.00 1078.97 C 1246.23 1078.76 1260.47 1078.99 1274.69 1079.95 L 1275.70 1080.00 L 1231.98 1080.00 L 1232.00 1078.97 Z" />
</g>
<g id="#0f7f7ffe">
<path fill="#0f7f7f" fill-opacity="0" d=" M 1218.00 1079.00 C 1222.66 1079.00 1227.29 1078.95 1232.00 1078.97 L 1231.98 1080.00 L 1217.99 1080.00 L 1218.00 1079.00 Z" />
</g>
<g id="#8fbf00fe">
<path fill="#8fbf00" fill-opacity="0" d=" M 1274.69 1079.95 C 1304.97 1078.23 1335.40 1078.54 1365.69 1079.95 L 1366.70 1080.00 L 1275.70 1080.00 L 1274.69 1079.95 Z" />
</g>
<g id="#8f0000fe">
<path fill="#8f0000" fill-opacity="0" d=" M 1365.69 1079.95 C 1379.32 1078.50 1393.06 1078.83 1406.72 1079.95 L 1407.72 1080.00 L 1366.70 1080.00 L 1365.69 1079.95 Z" />
</g>
<g id="#4f3f7fff">
<path fill="#4f3f7f" fill-opacity="0" d=" M 1406.72 1079.95 C 1436.77 1077.96 1466.91 1079.43 1497.00 1079.00 L 1497.00 1080.00 L 1407.72 1080.00 L 1406.72 1079.95 Z" />
</g>
<g id="#cf7f00ff">
<path fill="#cf7f00" fill-opacity="0" d=" M 1497.00 1079.00 C 1546.22 1079.56 1595.50 1077.82 1644.69 1079.95 L 1645.70 1080.00 L 1497.00 1080.00 L 1497.00 1079.00 Z" />
</g>
<g id="#8f7f00ff">
<path fill="#8f7f00" fill-opacity="0" d=" M 1644.69 1079.95 C 1693.41 1077.74 1742.24 1079.62 1791.00 1079.00 L 1791.00 1080.00 L 1645.70 1080.00 L 1644.69 1079.95 Z" />
</g>
<g id="#4f007fff">
<path fill="#4f007f" fill-opacity="0" d=" M 1791.00 1079.00 C 1816.89 1079.27 1842.82 1078.16 1868.69 1079.95 L 1869.70 1080.00 L 1791.00 1080.00 L 1791.00 1079.00 Z" />
</g>
<g id="#7f7fbfff">
<path fill="#7f7fbf" fill-opacity="0" d=" M 1868.69 1079.95 C 1885.75 1078.47 1902.88 1078.95 1920.00 1079.02 L 1920.00 1080.00 L 1869.70 1080.00 L 1868.69 1079.95 Z" />
</g>
</svg>
