<?xml version="1.0" encoding="UTF-8" ?>
<!DOCTYPE svg PUBLIC "-//W3C//DTD SVG 1.1//EN" "http://www.w3.org/Graphics/SVG/1.1/DTD/svg11.dtd">
<svg width="1920pt" height="1080pt" viewBox="0 0 1920 1080" version="1.1" xmlns="http://www.w3.org/2000/svg">
<g id="#cf00dffe">
<path fill="#cf00df" fill-opacity="0" d=" M 1031.46 184.24 C 1033.97 183.72 1036.48 183.22 1039.01 182.74 C 1039.49 185.65 1039.91 188.57 1040.42 191.49 C 1044.30 194.51 1048.76 196.78 1053.82 194.30 C 1054.08 195.85 1054.60 198.96 1054.86 200.52 C 1056.41 195.39 1057.81 190.22 1059.39 185.10 C 1061.89 184.78 1066.90 184.15 1069.40 183.84 C 1070.74 190.83 1066.71 199.12 1071.90 205.08 C 1074.30 201.78 1076.95 198.69 1079.83 195.79 C 1083.59 190.03 1093.54 196.94 1090.87 203.01 C 1090.44 222.49 1087.37 241.83 1086.00 261.27 C 1080.78 263.97 1074.85 265.73 1069.19 263.36 C 1066.28 269.74 1061.47 275.35 1061.50 282.80 C 1059.01 282.70 1056.51 282.61 1054.04 282.46 C 1053.48 283.64 1052.93 284.83 1052.44 286.04 C 1049.45 283.11 1048.29 279.13 1047.59 275.11 C 1046.79 276.65 1045.95 278.17 1045.10 279.68 C 1041.08 278.66 1037.25 279.70 1033.59 281.30 C 1026.93 283.73 1026.59 273.38 1024.20 269.78 C 1024.07 272.77 1023.89 275.77 1023.66 278.77 C 1022.06 277.68 1020.51 276.53 1018.92 275.46 C 1013.16 278.64 1005.27 284.21 999.18 278.70 C 998.59 261.45 1000.20 244.23 1000.09 226.98 C 998.99 220.50 1003.65 215.54 1006.51 210.36 C 1007.32 210.42 1008.14 210.48 1008.97 210.55 C 1008.97 205.50 1008.98 200.46 1008.98 195.42 C 1010.67 195.48 1012.38 195.67 1014.05 196.04 L 1014.20 200.03 C 1015.33 199.97 1016.47 199.91 1017.62 199.86 C 1017.94 198.59 1018.27 197.33 1018.64 196.08 C 1024.93 195.16 1028.85 189.51 1031.46 184.24 Z" />
</g>
<g id="#cf00dfff">
<path fill="#cf00df" fill-opacity="0" d=" M 984.55 199.22 C 985.14 199.14 986.32 198.99 986.91 198.92 C 987.66 201.54 988.47 204.18 989.22 206.84 C 991.00 207.58 993.11 207.98 994.50 209.40 C 996.50 219.67 995.34 230.19 995.45 240.57 C 994.96 255.84 995.27 271.14 994.16 286.39 C 987.62 285.61 981.23 284.34 974.98 282.33 C 968.22 282.40 957.41 283.26 956.43 273.99 C 952.22 274.37 948.18 272.90 944.17 271.88 C 943.69 251.94 942.54 232.02 942.99 212.06 C 951.60 210.50 959.94 205.92 968.89 207.03 C 971.77 207.96 972.57 211.38 973.71 213.85 C 972.34 208.62 976.99 207.18 980.10 204.93 C 982.21 203.60 983.25 201.25 984.55 199.22 Z" />
</g>
<g id="#0f7f5fff">
<path fill="#0f7f5f" fill-opacity="0" d=" M 1168.02 299.24 C 1171.31 292.13 1177.76 285.84 1185.90 285.31 C 1192.55 285.90 1201.30 288.36 1203.18 295.78 C 1204.32 301.26 1203.38 306.95 1202.45 312.38 C 1200.12 325.06 1197.76 337.73 1195.66 350.45 C 1194.28 355.14 1195.38 361.67 1190.60 364.63 C 1179.27 373.17 1167.14 380.81 1154.10 386.45 C 1147.66 390.56 1139.21 393.03 1136.33 400.83 C 1135.27 400.32 1134.24 399.79 1133.21 399.28 C 1131.62 405.12 1131.42 411.66 1127.57 416.60 C 1124.06 421.00 1121.12 425.81 1117.50 430.12 C 1117.27 429.27 1116.81 427.57 1116.58 426.72 C 1114.49 434.81 1111.35 442.58 1108.37 450.37 C 1106.85 454.58 1103.16 458.19 1103.18 462.82 C 1106.02 468.59 1111.28 472.80 1115.33 477.69 C 1124.37 487.59 1136.82 492.92 1148.97 497.87 C 1148.01 519.44 1143.91 540.70 1139.83 561.86 C 1134.23 561.87 1128.63 562.67 1123.04 562.42 C 1116.81 560.26 1110.14 560.43 1103.72 559.22 C 1103.04 560.53 1102.35 561.85 1101.68 563.17 C 1094.80 560.82 1087.98 558.00 1080.70 557.25 C 1076.15 556.51 1071.67 555.46 1067.27 554.16 C 1066.95 550.18 1066.32 542.22 1066.00 538.24 C 1065.27 542.41 1064.10 546.49 1063.23 550.64 C 1059.09 547.98 1055.55 544.56 1052.67 540.59 C 1050.49 540.43 1048.32 540.31 1046.15 540.24 C 1045.76 537.19 1046.13 534.53 1045.91 531.60 C 1041.86 531.20 1037.05 532.28 1033.94 529.12 C 1028.48 522.40 1030.40 512.97 1030.17 505.01 C 1031.53 488.89 1031.57 472.63 1033.58 456.59 C 1034.07 452.37 1038.64 451.38 1042.11 452.32 C 1042.78 444.64 1042.75 436.87 1044.38 429.31 C 1044.99 425.73 1048.89 424.71 1051.62 423.17 C 1053.78 414.38 1054.18 405.29 1055.55 396.39 C 1060.54 391.21 1067.84 388.06 1071.15 381.35 C 1073.11 370.22 1072.05 358.66 1075.47 347.79 C 1078.27 348.79 1081.05 349.88 1083.83 350.98 C 1083.91 349.30 1084.07 345.93 1084.14 344.25 C 1087.25 342.38 1090.98 341.28 1093.26 338.30 C 1096.78 334.02 1101.55 330.61 1102.84 324.86 C 1105.67 323.31 1108.29 321.43 1111.09 319.81 C 1111.24 321.24 1111.31 322.67 1111.41 324.11 C 1112.45 321.82 1113.18 319.38 1114.44 317.19 C 1117.17 316.34 1119.99 317.19 1122.70 317.70 C 1123.22 315.89 1123.74 314.09 1124.29 312.29 C 1132.03 311.86 1140.10 314.18 1147.61 311.32 C 1155.16 308.90 1163.55 306.39 1168.02 299.24 Z" />
</g>
<g id="#107f5fff">
<path fill="#107f5f" fill-opacity="0" d=" M 1103.12 320.53 C 1107.04 321.31 1100.82 323.97 1103.12 320.53 Z" />
</g>
<g id="#8f7f5fff">
<path fill="#8f7f5f" fill-opacity="0" d=" M 850.26 670.96 C 851.66 671.86 853.19 672.56 854.62 673.44 C 856.38 678.55 856.29 684.14 857.18 689.48 C 859.81 689.73 865.08 690.24 867.71 690.49 C 874.97 695.61 881.60 701.88 886.87 709.06 C 886.12 703.01 885.54 695.27 891.36 691.38 C 897.31 690.60 899.77 697.74 905.21 698.59 C 910.32 699.78 915.35 701.31 919.83 704.16 C 923.93 706.50 928.99 705.52 933.11 707.90 C 936.14 709.90 939.52 707.99 942.76 707.91 C 949.31 710.30 953.58 716.89 960.21 719.13 C 964.53 719.01 968.88 718.58 973.22 718.55 C 974.05 714.57 974.77 709.90 979.00 707.99 C 985.79 702.11 995.72 704.45 1003.67 705.75 C 1007.30 709.53 1004.89 715.55 1005.99 720.16 C 1006.81 725.32 1007.88 730.47 1007.96 735.74 L 1007.25 735.71 C 997.96 735.08 988.57 735.34 979.44 737.29 C 971.57 739.06 963.44 738.74 955.43 738.88 C 944.39 739.42 933.55 736.43 922.54 736.55 C 917.86 736.49 915.35 741.24 911.25 742.66 C 904.72 744.20 898.01 743.25 891.40 743.73 C 891.46 748.59 891.55 753.46 891.67 758.32 C 886.86 756.20 881.64 755.38 876.44 755.06 C 876.62 752.82 876.17 750.01 876.66 748.01 C 863.32 746.35 849.70 747.48 836.49 744.93 C 830.02 741.61 823.65 737.74 818.74 732.29 C 812.53 725.82 808.12 717.94 802.85 710.74 C 802.61 710.41 802.13 709.75 801.89 709.42 C 810.99 706.23 821.67 706.09 828.86 698.89 C 834.52 694.59 837.94 687.65 844.06 684.02 C 846.79 684.49 849.25 685.89 851.75 687.04 C 851.12 681.69 850.55 676.34 850.26 670.96 Z" />
</g>
<g id="#cfbf1fff">
<path fill="#cfbf1f" fill-opacity="0" d=" M 802.85 710.74 C 808.12 717.94 812.53 725.82 818.74 732.29 C 823.65 737.74 830.02 741.61 836.49 744.93 C 835.33 750.97 832.27 756.56 826.92 759.83 C 826.90 762.83 828.04 766.31 825.95 768.89 C 823.38 772.33 820.09 775.14 817.41 778.48 C 816.10 778.74 814.79 779.00 813.51 779.29 C 812.87 781.43 812.26 783.57 811.63 785.71 C 806.18 785.41 800.67 785.20 795.24 785.46 C 790.08 786.93 788.31 792.56 785.45 796.50 C 782.06 801.17 780.03 806.61 778.26 812.06 C 776.82 811.62 775.40 811.20 773.97 810.81 C 769.85 807.19 765.41 803.59 760.26 801.61 C 758.11 802.81 756.47 804.71 754.37 805.97 C 752.19 805.52 750.24 804.39 748.22 803.53 C 750.08 799.91 752.14 796.39 754.14 792.85 C 747.70 788.75 740.41 786.38 733.05 784.56 C 733.53 783.04 734.02 781.53 734.52 780.02 C 727.44 776.82 720.39 773.57 713.23 770.54 C 705.19 767.54 696.79 765.49 689.02 761.80 C 693.20 778.09 700.33 793.68 702.85 810.36 C 699.41 803.32 697.37 795.70 695.15 788.22 C 692.00 776.50 687.84 764.90 687.05 752.70 C 688.37 752.58 689.71 752.47 691.04 752.33 C 697.98 752.64 699.68 745.48 701.39 740.34 C 711.73 741.39 718.73 749.50 725.31 756.70 C 734.42 762.19 745.16 764.83 753.89 771.15 C 757.66 773.29 760.81 777.32 765.66 776.77 C 770.42 772.95 773.48 766.83 780.09 765.86 C 778.22 756.82 775.79 747.89 774.56 738.74 C 774.06 733.04 775.68 726.09 781.54 723.78 C 789.33 720.69 796.36 716.02 802.85 710.74 M 770.25 776.40 C 768.78 777.73 771.07 780.05 772.41 778.56 C 773.86 777.25 771.55 774.98 770.25 776.40 M 787.96 777.66 C 788.87 779.83 789.89 781.96 790.96 784.07 C 791.49 783.77 792.55 783.18 793.09 782.89 C 791.43 781.08 789.75 779.32 787.96 777.66 Z" />
</g>
<g id="#0f00dfff">
<path fill="#0f00df" fill-opacity="0" d=" M 979.44 737.29 C 988.57 735.34 997.96 735.08 1007.25 735.71 C 1007.77 739.32 1008.35 742.99 1008.99 746.62 C 1013.49 745.65 1018.35 743.37 1022.91 745.01 C 1027.64 751.01 1030.25 758.73 1035.93 764.07 C 1038.77 766.33 1042.56 766.63 1045.91 767.71 C 1044.72 777.19 1043.56 786.69 1041.92 796.11 C 1035.66 795.08 1029.67 792.01 1023.22 792.58 C 1021.82 794.36 1021.03 796.52 1020.12 798.57 C 1015.91 798.54 1011.74 798.30 1007.55 798.34 C 1006.57 800.41 1005.68 802.54 1004.34 804.42 C 1001.86 805.99 998.70 805.49 995.90 805.89 C 995.22 807.92 994.55 809.97 993.89 812.04 C 991.16 811.12 987.25 811.24 986.10 808.05 C 985.53 806.97 984.98 805.89 984.45 804.82 C 972.71 804.06 960.89 804.03 949.18 805.28 C 945.52 805.60 942.61 808.13 939.15 809.04 C 932.73 808.29 926.23 807.32 919.88 809.09 C 918.13 802.68 919.87 795.41 916.56 789.45 C 912.81 785.40 906.95 784.37 902.23 781.90 C 902.44 779.79 902.62 777.68 902.83 775.58 C 900.97 775.42 899.12 775.25 897.28 775.09 C 898.48 772.01 899.78 768.97 901.05 765.92 C 897.97 763.31 894.93 760.66 891.67 758.32 C 891.55 753.46 891.46 748.59 891.40 743.73 C 898.01 743.25 904.72 744.20 911.25 742.66 C 915.35 741.24 917.86 736.49 922.54 736.55 C 933.55 736.43 944.39 739.42 955.43 738.88 C 963.44 738.74 971.57 739.06 979.44 737.29 Z" />
</g>
<g id="#4f3f1fff">
<path fill="#4f3f1f" fill-opacity="0" d=" M 668.35 739.54 C 670.66 738.65 673.11 738.19 675.54 737.68 C 676.77 740.33 678.09 742.95 679.62 745.45 C 679.48 742.94 679.26 740.44 679.04 737.95 C 681.71 738.32 684.15 738.58 686.87 739.16 C 688.26 743.54 689.65 747.93 691.04 752.33 C 689.71 752.47 688.37 752.58 687.05 752.70 C 687.84 764.90 692.00 776.50 695.15 788.22 C 693.48 786.24 692.12 784.03 690.54 782.00 C 691.56 785.59 692.65 789.18 693.89 792.71 C 691.10 793.70 688.36 794.77 685.64 795.93 C 677.92 782.92 675.77 767.60 670.44 753.61 C 669.20 749.14 666.73 744.13 668.35 739.54 M 679.74 745.97 C 683.01 757.87 686.10 769.98 690.88 781.37 C 688.24 769.28 684.85 757.26 679.74 745.97 Z" />
<path fill="#4f3f1f" fill-opacity="0" d=" M 662.26 760.47 C 666.99 767.45 669.21 775.62 671.58 783.59 C 673.50 789.79 676.67 795.74 677.22 802.27 C 677.21 802.61 677.20 803.29 677.20 803.62 C 672.09 793.17 668.59 782.04 664.77 771.08 C 663.52 767.65 662.79 764.06 662.26 760.47 Z" />
</g>
<g id="#cf3f9fff">
<path fill="#cf3f9f" fill-opacity="0" d=" M 836.49 744.93 C 849.70 747.48 863.32 746.35 876.66 748.01 C 876.17 750.01 876.62 752.82 876.44 755.06 C 881.64 755.38 886.86 756.20 891.67 758.32 C 894.93 760.66 897.97 763.31 901.05 765.92 C 899.78 768.97 898.48 772.01 897.28 775.09 C 899.12 775.25 900.97 775.42 902.83 775.58 C 902.62 777.68 902.44 779.79 902.23 781.90 C 906.95 784.37 912.81 785.40 916.56 789.45 C 919.87 795.41 918.13 802.68 919.88 809.09 C 922.19 814.96 929.44 812.51 934.11 814.66 C 943.57 816.75 949.45 824.85 956.93 830.28 C 957.64 837.44 957.34 844.63 956.90 851.80 C 950.06 852.61 943.23 854.73 936.32 853.26 C 931.97 852.86 927.68 850.96 923.31 851.38 C 920.53 852.78 918.63 855.45 915.77 856.73 C 911.75 858.55 907.33 859.23 903.18 860.69 C 897.93 857.00 892.70 852.92 886.43 851.19 C 878.39 851.05 869.77 858.06 861.97 853.20 C 854.08 850.98 852.63 841.91 845.91 838.29 C 850.30 832.66 855.08 827.00 857.18 820.05 C 858.07 817.09 855.70 814.55 854.51 812.06 C 858.74 807.95 862.81 803.63 866.19 798.78 C 857.79 793.81 850.44 786.34 840.38 785.01 C 832.53 783.60 824.76 781.60 817.41 778.48 C 820.09 775.14 823.38 772.33 825.95 768.89 C 828.04 766.31 826.90 762.83 826.92 759.83 C 832.27 756.56 835.33 750.97 836.49 744.93 Z" />
</g>
<g id="#0f0c0633">
<path fill="#0f0c06" fill-opacity="0" d=" M 679.74 745.97 C 684.85 757.26 688.24 769.28 690.88 781.37 C 686.10 769.98 683.01 757.87 679.74 745.97 Z" />
</g>
<g id="#4fbf9fff">
<path fill="#4fbf9f" fill-opacity="0" d=" M 689.02 761.80 C 696.79 765.49 705.19 767.54 713.23 770.54 C 720.39 773.57 727.44 776.82 734.52 780.02 C 734.02 781.53 733.53 783.04 733.05 784.56 C 740.41 786.38 747.70 788.75 754.14 792.85 C 752.14 796.39 750.08 799.91 748.22 803.53 C 750.24 804.39 752.19 805.52 754.37 805.97 C 756.47 804.71 758.11 802.81 760.26 801.61 C 765.41 803.59 769.85 807.19 773.97 810.81 C 771.50 813.87 769.18 817.34 765.55 819.14 C 761.46 821.19 757.17 823.58 754.89 827.74 C 752.24 833.14 749.77 838.67 747.99 844.43 C 746.85 847.59 748.30 850.91 747.92 854.15 C 747.50 860.63 743.49 866.04 740.66 871.66 C 737.11 871.35 732.91 872.48 729.74 870.29 C 725.57 866.86 724.28 860.98 720.08 857.61 C 714.92 856.26 711.10 860.67 706.80 862.55 C 699.34 866.26 692.02 859.50 684.54 860.73 C 681.14 863.01 678.75 866.74 677.37 870.54 C 677.39 874.21 679.07 877.65 679.99 881.17 C 673.21 880.11 668.02 874.87 665.34 868.78 C 662.61 862.86 659.91 856.88 657.80 850.73 C 657.92 845.20 661.38 840.24 661.24 834.65 C 660.97 828.43 658.31 822.65 656.29 816.87 C 661.80 816.81 668.70 820.16 672.82 814.81 C 676.75 812.34 677.09 807.74 677.20 803.62 C 677.20 803.29 677.21 802.61 677.22 802.27 C 683.90 804.76 692.48 804.96 695.83 812.32 C 696.29 809.95 703.15 813.19 702.85 810.36 C 700.33 793.68 693.20 778.09 689.02 761.80 Z" />
</g>
<g id="#4fbf1ffe">
<path fill="#4fbf1f" fill-opacity="0" d=" M 770.25 776.40 C 771.55 774.98 773.86 777.25 772.41 778.56 C 771.07 780.05 768.78 777.73 770.25 776.40 Z" />
</g>
<g id="#4f7fdfff">
<path fill="#4f7fdf" fill-opacity="0" d=" M 787.96 777.66 C 789.75 779.32 791.43 781.08 793.09 782.89 C 792.55 783.18 791.49 783.77 790.96 784.07 C 789.89 781.96 788.87 779.83 787.96 777.66 Z" />
</g>
<g id="#cf7f5fff">
<path fill="#cf7f5f" fill-opacity="0" d=" M 813.51 779.29 C 814.79 779.00 816.10 778.74 817.41 778.48 C 824.76 781.60 832.53 783.60 840.38 785.01 C 850.44 786.34 857.79 793.81 866.19 798.78 C 862.81 803.63 858.74 807.95 854.51 812.06 C 855.70 814.55 858.07 817.09 857.18 820.05 C 855.08 827.00 850.30 832.66 845.91 838.29 C 842.69 836.73 839.14 835.89 835.75 834.85 C 830.24 841.41 825.33 851.54 815.03 850.30 C 811.88 857.82 807.51 864.73 803.02 871.51 C 799.16 867.83 796.99 862.95 795.09 858.07 C 789.87 856.27 784.54 854.84 779.09 853.96 C 781.50 849.18 784.15 844.52 786.35 839.65 C 788.42 833.98 789.14 827.95 789.73 821.99 C 790.44 814.19 793.68 807.00 796.59 799.83 C 792.88 798.70 789.15 797.61 785.45 796.50 C 788.31 792.56 790.08 786.93 795.24 785.46 C 800.67 785.20 806.18 785.41 811.63 785.71 C 812.26 783.57 812.87 781.43 813.51 779.29 M 792.16 788.16 C 791.24 792.16 796.16 787.24 792.16 788.16 Z" />
</g>
<g id="#a42a5fff">
<path fill="#a42a5f" fill-opacity="0" d=" M 792.16 788.16 C 796.16 787.24 791.24 792.16 792.16 788.16 Z" />
</g>
<g id="#4f3f9fff">
<path fill="#4f3f9f" fill-opacity="0" d=" M 778.26 812.06 C 780.03 806.61 782.06 801.17 785.45 796.50 C 789.15 797.61 792.88 798.70 796.59 799.83 C 793.68 807.00 790.44 814.19 789.73 821.99 C 789.14 827.95 788.42 833.98 786.35 839.65 C 784.15 844.52 781.50 849.18 779.09 853.96 C 784.54 854.84 789.87 856.27 795.09 858.07 C 796.99 862.95 799.16 867.83 803.02 871.51 C 804.44 875.39 806.17 879.22 808.53 882.64 C 800.56 885.04 794.37 891.66 791.93 899.52 C 790.73 904.99 791.63 910.60 792.67 916.02 C 791.75 915.68 790.83 915.36 789.93 915.04 C 788.25 914.41 786.60 913.78 784.93 913.18 C 786.27 907.68 787.38 901.18 783.91 896.26 C 781.60 892.36 777.83 889.17 773.20 888.49 C 769.54 887.31 766.03 889.84 762.37 889.79 C 760.31 889.49 758.44 888.54 756.53 887.80 C 754.59 889.86 752.60 891.88 750.64 893.93 C 752.54 896.31 755.55 898.76 754.54 902.20 C 754.04 906.31 750.66 908.94 747.36 910.91 C 743.09 913.58 739.78 917.40 736.35 921.01 C 733.46 922.03 730.68 923.32 727.96 924.71 C 724.82 918.26 723.26 911.21 720.17 904.75 C 717.97 906.12 715.63 907.23 713.39 908.51 C 708.45 911.99 705.37 917.29 701.78 922.00 C 700.57 920.30 699.49 918.52 698.23 916.88 C 696.15 917.79 694.11 918.80 692.03 919.72 C 690.44 918.56 688.89 917.36 687.23 916.34 C 686.44 908.12 680.80 901.64 677.95 894.11 C 680.84 890.09 683.41 885.83 686.15 881.72 C 684.09 881.51 682.03 881.33 679.99 881.17 C 679.07 877.65 677.39 874.21 677.37 870.54 C 678.75 866.74 681.14 863.01 684.54 860.73 C 692.02 859.50 699.34 866.26 706.80 862.55 C 711.10 860.67 714.92 856.26 720.08 857.61 C 724.28 860.98 725.57 866.86 729.74 870.29 C 732.91 872.48 737.11 871.35 740.66 871.66 C 743.49 866.04 747.50 860.63 747.92 854.15 C 748.30 850.91 746.85 847.59 747.99 844.43 C 749.77 838.67 752.24 833.14 754.89 827.74 C 757.17 823.58 761.46 821.19 765.55 819.14 C 769.18 817.34 771.50 813.87 773.97 810.81 C 775.40 811.20 776.82 811.62 778.26 812.06 Z" />
</g>
<g id="#8fbf1fff">
<path fill="#8fbf1f" fill-opacity="0" d=" M 835.75 834.85 C 839.14 835.89 842.69 836.73 845.91 838.29 C 852.63 841.91 854.08 850.98 861.97 853.20 C 869.77 858.06 878.39 851.05 886.43 851.19 C 892.70 852.92 897.93 857.00 903.18 860.69 C 902.36 864.50 901.75 868.85 898.49 871.43 C 894.95 873.99 891.44 876.86 887.25 878.26 C 884.36 879.47 882.18 876.39 879.91 875.16 C 874.06 881.10 872.02 889.52 867.91 896.59 C 864.84 896.43 861.74 895.71 858.70 896.24 C 855.26 897.51 852.85 900.49 850.25 902.94 C 846.13 897.00 839.60 893.54 832.48 892.84 C 831.95 889.14 831.24 883.93 826.85 882.86 C 820.82 881.78 814.61 882.20 808.53 882.64 C 806.17 879.22 804.44 875.39 803.02 871.51 C 807.51 864.73 811.88 857.82 815.03 850.30 C 825.33 851.54 830.24 841.41 835.75 834.85 Z" />
</g>
<g id="#8f3f9ffe">
<path fill="#8f3f9f" fill-opacity="0" d=" M 915.77 856.73 C 918.63 855.45 920.53 852.78 923.31 851.38 C 927.68 850.96 931.97 852.86 936.32 853.26 C 943.23 854.73 950.06 852.61 956.90 851.80 C 962.62 852.19 966.96 856.76 971.84 859.40 C 971.56 863.95 972.37 868.74 971.04 873.19 C 968.80 877.28 964.92 880.17 961.46 883.20 C 962.72 890.06 962.79 897.06 961.92 903.97 C 961.76 906.07 961.72 908.18 961.65 910.30 C 953.06 913.70 943.81 911.93 934.97 913.14 C 931.49 918.45 930.90 925.46 926.69 930.31 C 921.86 931.24 917.18 928.94 912.38 928.73 C 905.35 928.20 897.96 927.07 891.13 929.26 C 888.14 932.22 888.42 937.08 887.71 941.04 C 883.63 938.54 878.85 939.16 874.36 938.53 C 873.05 936.91 872.23 934.97 871.34 933.12 C 868.69 925.65 862.44 920.41 858.32 913.82 C 855.92 909.98 853.12 906.42 850.25 902.94 C 852.85 900.49 855.26 897.51 858.70 896.24 C 861.74 895.71 864.84 896.43 867.91 896.59 C 872.02 889.52 874.06 881.10 879.91 875.16 C 882.18 876.39 884.36 879.47 887.25 878.26 C 891.44 876.86 894.95 873.99 898.49 871.43 C 901.75 868.85 902.36 864.50 903.18 860.69 C 907.33 859.23 911.75 858.55 915.77 856.73 Z" />
</g>
<g id="#8f00dfff">
<path fill="#8f00df" fill-opacity="0" d=" M 1006.37 876.21 C 1014.84 877.44 1023.36 878.42 1031.82 879.74 C 1029.68 891.47 1028.26 903.31 1026.13 915.06 C 1024.24 924.49 1020.37 933.47 1019.46 943.12 C 1024.10 943.80 1028.62 944.98 1033.18 946.08 C 1032.80 952.60 1031.93 959.20 1029.40 965.27 C 1029.59 962.46 1029.78 959.66 1029.98 956.86 C 1021.71 955.13 1013.42 953.48 1005.00 952.79 C 996.98 952.08 988.65 950.46 980.71 952.62 C 981.00 950.29 981.79 948.02 981.50 945.71 C 979.41 942.34 976.36 939.63 973.86 936.59 C 976.38 931.16 978.92 925.70 982.17 920.65 C 985.57 915.74 991.06 911.43 991.06 904.90 C 991.36 898.49 991.59 892.01 993.88 885.89 C 994.44 881.83 999.77 883.48 1002.82 882.51 C 1004.08 880.46 1005.24 878.34 1006.37 876.21 Z" />
</g>
<g id="#cf3f1fff">
<path fill="#cf3f1f" fill-opacity="0" d=" M 808.53 882.64 C 814.61 882.20 820.82 881.78 826.85 882.86 C 831.24 883.93 831.95 889.14 832.48 892.84 C 839.60 893.54 846.13 897.00 850.25 902.94 C 853.12 906.42 855.92 909.98 858.32 913.82 C 862.44 920.41 868.69 925.65 871.34 933.12 C 867.20 936.17 862.95 939.09 858.97 942.37 C 849.91 941.20 840.56 940.65 831.64 943.04 C 822.93 945.28 813.14 947.31 804.57 943.59 C 800.48 942.00 802.02 936.68 800.87 933.22 C 796.80 930.98 793.48 927.69 791.42 923.50 C 790.75 920.71 790.39 917.86 789.93 915.04 C 790.83 915.36 791.75 915.68 792.67 916.02 C 791.63 910.60 790.73 904.99 791.93 899.52 C 794.37 891.66 800.56 885.04 808.53 882.64 Z" />
</g>
<g id="#0f005fff">
<path fill="#0f005f" fill-opacity="0" d=" M 750.64 893.93 C 752.60 891.88 754.59 889.86 756.53 887.80 C 758.44 888.54 760.31 889.49 762.37 889.79 C 766.03 889.84 769.54 887.31 773.20 888.49 C 777.83 889.17 781.60 892.36 783.91 896.26 C 787.38 901.18 786.27 907.68 784.93 913.18 C 786.60 913.78 788.25 914.41 789.93 915.04 C 790.39 917.86 790.75 920.71 791.42 923.50 C 786.55 929.82 784.59 937.77 780.17 944.34 C 778.70 946.76 775.46 945.91 773.08 946.25 C 772.89 947.34 772.72 948.45 772.55 949.56 C 766.62 948.17 760.41 949.03 754.55 947.29 C 749.31 945.87 743.88 944.84 738.45 945.59 C 737.40 937.42 736.36 929.25 736.35 921.01 C 739.78 917.40 743.09 913.58 747.36 910.91 C 750.66 908.94 754.04 906.31 754.54 902.20 C 755.55 898.76 752.54 896.31 750.64 893.93 Z" />
</g>
<g id="#0f7fdfff">
<path fill="#0f7fdf" fill-opacity="0" d=" M 961.65 910.30 C 961.72 908.18 961.76 906.07 961.92 903.97 C 963.56 904.07 965.21 904.17 966.87 904.32 C 966.68 906.21 967.40 908.92 967.48 911.04 C 969.63 911.34 971.80 911.70 973.98 912.10 C 974.37 909.73 974.76 907.36 975.19 905.00 C 980.46 904.56 985.77 904.54 991.06 904.90 C 991.06 911.43 985.57 915.74 982.17 920.65 C 978.92 925.70 976.38 931.16 973.86 936.59 C 970.03 932.06 963.39 934.21 960.04 938.08 C 957.95 942.01 959.02 946.91 956.71 950.76 C 953.68 953.73 950.34 956.68 946.11 957.70 C 940.31 958.38 935.44 953.19 929.99 953.11 C 922.28 959.56 913.00 963.88 903.08 965.64 C 900.02 959.60 900.68 952.92 899.47 946.51 C 895.90 944.01 891.66 942.78 887.71 941.04 C 888.42 937.08 888.14 932.22 891.13 929.26 C 897.96 927.07 905.35 928.20 912.38 928.73 C 917.18 928.94 921.86 931.24 926.69 930.31 C 930.90 925.46 931.49 918.45 934.97 913.14 C 943.81 911.93 953.06 913.70 961.65 910.30 Z" />
</g>
<g id="#4f00dfff">
<path fill="#4f00df" fill-opacity="0" d=" M 713.39 908.51 C 715.63 907.23 717.97 906.12 720.17 904.75 C 723.26 911.21 724.82 918.26 727.96 924.71 C 730.68 923.32 733.46 922.03 736.35 921.01 C 736.36 929.25 737.40 937.42 738.45 945.59 C 737.73 948.16 737.24 951.12 735.05 952.91 C 729.21 957.91 722.38 961.62 715.22 964.34 C 709.21 966.88 701.83 969.51 699.27 976.18 C 696.49 983.22 699.78 990.70 701.84 997.45 C 699.65 996.73 697.30 996.05 695.81 994.17 C 690.92 988.68 685.51 983.47 682.09 976.88 C 680.29 973.26 681.60 969.11 680.66 965.31 C 678.74 958.05 676.05 950.90 675.71 943.34 C 676.32 933.36 683.39 925.39 685.47 915.77 C 685.91 915.92 686.79 916.20 687.23 916.34 C 688.89 917.36 690.44 918.56 692.03 919.72 C 694.11 918.80 696.15 917.79 698.23 916.88 C 699.49 918.52 700.57 920.30 701.78 922.00 C 705.37 917.29 708.45 911.99 713.39 908.51 Z" />
</g>
<g id="#0fbf9fff">
<path fill="#0fbf9f" fill-opacity="0" d=" M 780.17 944.34 C 784.59 937.77 786.55 929.82 791.42 923.50 C 793.48 927.69 796.80 930.98 800.87 933.22 C 802.02 936.68 800.48 942.00 804.57 943.59 C 813.14 947.31 822.93 945.28 831.64 943.04 C 840.56 940.65 849.91 941.20 858.97 942.37 C 851.88 949.33 844.14 957.14 833.73 958.18 C 832.41 961.53 830.75 964.81 830.14 968.39 C 830.52 973.94 833.47 978.88 835.07 984.12 C 831.13 985.78 827.17 987.45 822.98 988.35 C 823.68 991.32 824.33 994.29 825.24 997.24 C 820.18 997.16 816.54 1001.13 811.86 1002.27 C 808.29 1001.57 805.34 999.19 802.92 996.60 C 802.11 996.84 801.30 997.09 800.51 997.36 C 798.51 995.76 796.82 993.83 794.72 992.39 C 794.01 994.27 793.37 996.20 792.66 998.09 C 790.88 996.61 789.37 994.84 787.59 993.37 C 785.82 993.81 784.19 994.64 782.57 995.45 C 781.83 988.78 778.33 982.75 777.82 976.00 C 775.29 973.57 771.44 971.73 770.98 967.89 C 769.69 961.76 771.98 955.63 772.55 949.56 C 772.72 948.45 772.89 947.34 773.08 946.25 C 775.46 945.91 778.70 946.76 780.17 944.34 Z" />
</g>
<g id="#8fbf9fff">
<path fill="#8fbf9f" fill-opacity="0" d=" M 871.34 933.12 C 872.23 934.97 873.05 936.91 874.36 938.53 C 878.85 939.16 883.63 938.54 887.71 941.04 C 891.66 942.78 895.90 944.01 899.47 946.51 C 900.68 952.92 900.02 959.60 903.08 965.64 C 902.84 970.72 902.96 975.80 902.64 980.89 C 902.05 986.55 901.20 992.22 900.52 997.90 C 891.03 995.96 881.10 996.94 871.74 994.43 C 868.74 994.03 867.60 991.10 866.60 988.69 C 856.29 988.42 850.44 997.51 843.81 1003.74 C 840.79 1003.47 838.00 1002.20 835.17 1001.24 C 833.68 1002.86 832.26 1004.55 830.84 1006.23 C 828.83 1003.32 826.61 1000.51 825.24 997.24 C 824.33 994.29 823.68 991.32 822.98 988.35 C 827.17 987.45 831.13 985.78 835.07 984.12 C 833.47 978.88 830.52 973.94 830.14 968.39 C 830.75 964.81 832.41 961.53 833.73 958.18 C 844.14 957.14 851.88 949.33 858.97 942.37 C 862.95 939.09 867.20 936.17 871.34 933.12 Z" />
</g>
<g id="#8f7fdfff">
<path fill="#8f7fdf" fill-opacity="0" d=" M 960.04 938.08 C 963.39 934.21 970.03 932.06 973.86 936.59 C 976.36 939.63 979.41 942.34 981.50 945.71 C 981.79 948.02 981.00 950.29 980.71 952.62 C 975.90 959.40 972.18 966.90 967.25 973.61 C 970.34 974.47 973.59 975.09 976.36 976.79 C 978.40 978.47 978.69 981.35 978.72 983.83 C 978.59 989.20 978.22 994.61 978.00 1000.00 L 977.98 1000.55 C 973.06 997.60 967.50 1000.01 962.34 1000.55 C 961.31 1002.63 960.23 1004.68 959.20 1006.76 C 951.43 1002.60 945.97 995.54 938.64 990.89 C 937.66 992.33 936.67 993.77 935.68 995.21 C 929.27 995.36 922.91 994.77 917.02 992.13 C 916.77 988.72 916.62 985.47 916.46 982.10 C 911.85 981.58 907.25 981.28 902.64 980.89 C 902.96 975.80 902.84 970.72 903.08 965.64 C 913.00 963.88 922.28 959.56 929.99 953.11 C 935.44 953.19 940.31 958.38 946.11 957.70 C 950.34 956.68 953.68 953.73 956.71 950.76 C 959.02 946.91 957.95 942.01 960.04 938.08 M 946.14 967.11 C 944.81 967.79 944.80 968.46 946.11 969.14 C 947.42 968.45 947.43 967.77 946.14 967.11 Z" />
</g>
<g id="#4f7f5fff">
<path fill="#4f7f5f" fill-opacity="0" d=" M 738.45 945.59 C 743.88 944.84 749.31 945.87 754.55 947.29 C 760.41 949.03 766.62 948.17 772.55 949.56 C 771.98 955.63 769.69 961.76 770.98 967.89 C 771.44 971.73 775.29 973.57 777.82 976.00 C 778.33 982.75 781.83 988.78 782.57 995.45 C 782.10 998.70 781.74 1002.72 778.64 1004.59 C 775.97 1005.89 772.93 1006.52 770.00 1006.69 C 765.98 1005.63 763.27 1002.15 760.19 999.61 C 756.80 1000.16 753.44 999.36 750.22 998.38 C 749.41 999.37 748.59 1000.37 747.79 1001.39 C 743.66 1001.40 739.67 1002.67 735.58 1002.95 C 732.44 1002.04 730.83 998.21 727.48 997.70 C 724.37 998.23 721.72 1000.69 718.41 1000.28 C 712.88 999.87 706.56 1001.01 701.84 997.45 C 699.78 990.70 696.49 983.22 699.27 976.18 C 701.83 969.51 709.21 966.88 715.22 964.34 C 722.38 961.62 729.21 957.91 735.05 952.91 C 737.24 951.12 737.73 948.16 738.45 945.59 Z" />
</g>
<g id="#0f3f9fff">
<path fill="#0f3f9f" fill-opacity="0" d=" M 980.71 952.62 C 988.65 950.46 996.98 952.08 1005.00 952.79 C 1013.42 953.48 1021.71 955.13 1029.98 956.86 C 1029.78 959.66 1029.59 962.46 1029.40 965.27 C 1028.79 970.88 1026.95 976.26 1025.21 981.60 C 1015.63 981.34 1006.30 986.04 999.85 992.90 C 996.78 998.34 998.13 1005.13 997.23 1011.19 C 993.93 1010.82 990.55 1010.69 987.39 1009.59 C 986.04 1007.57 985.60 1005.13 984.92 1002.85 C 982.60 1001.91 980.27 1001.02 978.00 1000.00 C 978.22 994.61 978.59 989.20 978.72 983.83 C 978.69 981.35 978.40 978.47 976.36 976.79 C 973.59 975.09 970.34 974.47 967.25 973.61 C 972.18 966.90 975.90 959.40 980.71 952.62 Z" />
</g>
<g id="#4f0060ff">
<path fill="#4f0060" fill-opacity="0" d=" M 946.14 967.11 C 947.43 967.77 947.42 968.45 946.11 969.14 C 944.80 968.46 944.81 967.79 946.14 967.11 Z" />
</g>
</svg>
