<?xml version="1.0" encoding="UTF-8" ?>
<!DOCTYPE svg PUBLIC "-//W3C//DTD SVG 1.1//EN" "http://www.w3.org/Graphics/SVG/1.1/DTD/svg11.dtd">
<svg width="1920pt" height="1080pt" viewBox="0 0 1920 1080" version="1.1" xmlns="http://www.w3.org/2000/svg">
<g id="#cfaf00ff">
<path fill="#cfaf00" opacity="1.00" d=" M 816.49 179.50 C 824.83 175.37 834.11 178.58 842.83 179.42 C 858.16 183.54 870.73 193.75 884.15 201.81 C 888.77 204.59 894.45 207.94 894.30 214.24 C 895.32 223.84 895.28 233.56 896.44 243.16 C 896.34 249.88 891.54 258.06 897.31 263.60 C 909.15 269.72 921.86 276.11 935.58 275.33 C 939.20 282.10 944.86 287.44 949.81 293.23 C 953.09 297.15 958.88 297.96 962.01 301.97 C 963.48 308.09 963.51 314.58 963.24 320.87 C 967.47 322.32 971.73 323.68 976.02 324.99 C 976.36 346.74 975.69 368.48 974.78 390.21 C 971.52 387.80 968.93 384.65 965.88 382.02 C 963.25 379.61 959.05 381.52 956.05 380.93 C 953.20 381.25 950.65 379.75 948.19 378.56 C 940.25 383.37 932.99 389.20 925.03 393.97 C 918.88 397.66 910.78 398.02 906.04 403.93 C 902.75 393.48 895.97 384.18 887.23 377.62 C 883.33 375.12 882.03 370.39 878.64 367.43 C 871.57 368.45 864.69 373.20 857.35 370.73 C 853.74 368.65 853.63 363.90 851.29 360.82 C 846.59 358.90 841.56 357.96 836.74 356.39 C 843.73 350.80 849.93 341.99 847.17 332.67 C 844.87 318.98 831.64 312.20 823.33 302.60 C 820.15 298.98 824.18 292.18 818.97 290.11 C 812.99 287.07 806.27 285.79 800.41 282.49 C 794.92 280.16 789.72 275.54 783.43 275.74 C 779.32 276.11 775.54 278.24 771.39 278.35 C 766.89 275.87 765.26 270.64 763.13 266.31 C 758.49 257.62 749.48 251.20 739.51 250.54 C 731.74 248.80 724.26 251.77 716.97 253.95 C 712.38 255.38 708.75 250.86 704.91 249.18 C 703.88 245.16 702.28 241.25 701.74 237.13 C 702.94 233.27 707.84 233.84 711.12 233.02 C 718.30 231.64 725.90 233.54 732.84 230.80 C 735.10 230.13 737.35 229.15 739.75 229.09 C 744.07 229.25 748.66 231.20 752.73 228.80 C 762.97 223.37 773.73 218.77 783.46 212.45 C 796.69 203.68 803.03 187.93 816.49 179.50 M 826.03 287.72 C 826.03 288.61 826.03 290.39 826.03 291.28 C 827.38 290.86 828.75 290.47 830.13 290.11 L 830.13 288.89 C 828.75 288.52 827.38 288.13 826.03 287.72 Z" />
</g>
<g id="#cf2f00ff">
<path fill="#cf2f00" opacity="1.00" d=" M 695.20 246.44 C 698.68 245.71 702.05 247.35 704.91 249.18 C 708.75 250.86 712.38 255.38 716.97 253.95 C 724.26 251.77 731.74 248.80 739.51 250.54 C 749.48 251.20 758.49 257.62 763.13 266.31 C 765.26 270.64 766.89 275.87 771.39 278.35 C 775.54 278.24 779.32 276.11 783.43 275.74 C 789.72 275.54 794.92 280.16 800.41 282.49 C 806.27 285.79 812.99 287.07 818.97 290.11 C 824.18 292.18 820.15 298.98 823.33 302.60 C 831.64 312.20 844.87 318.98 847.17 332.67 C 849.93 341.99 843.73 350.80 836.74 356.39 C 829.60 363.98 821.18 370.33 814.78 378.62 C 808.94 386.34 800.67 391.70 793.74 398.34 C 794.54 409.75 797.47 420.86 799.46 432.09 C 796.00 429.81 792.37 427.59 789.44 424.66 C 786.81 421.04 785.22 416.79 783.19 412.83 C 781.13 408.08 776.19 405.65 772.29 402.58 C 769.59 390.75 767.57 378.74 763.95 367.14 C 757.90 368.76 750.60 374.52 744.94 369.09 C 739.75 365.32 735.95 360.04 731.14 355.87 C 725.45 351.16 718.73 347.79 713.53 342.50 C 708.94 337.80 704.50 332.67 698.65 329.47 C 693.67 327.69 687.81 327.94 683.53 324.46 C 676.04 317.28 675.57 306.18 671.76 297.09 C 669.97 290.78 666.82 284.48 667.91 277.79 C 670.49 268.58 678.31 262.29 684.09 255.09 C 687.21 251.69 690.27 247.23 695.20 246.44 Z" />
</g>
<g id="#4f2f7fff">
<path fill="#4f2f7f" opacity="1.00" d=" M 826.03 287.72 C 827.38 288.13 828.75 288.52 830.13 288.89 L 830.13 290.11 C 828.75 290.47 827.38 290.86 826.03 291.28 C 826.03 290.39 826.03 288.61 826.03 287.72 Z" />
</g>
<g id="#4f2f00fe">
<path fill="#4f2f00" opacity="1.00" d=" M 814.78 378.62 C 821.18 370.33 829.60 363.98 836.74 356.39 C 841.56 357.96 846.59 358.90 851.29 360.82 C 853.63 363.90 853.74 368.65 857.35 370.73 C 864.69 373.20 871.57 368.45 878.64 367.43 C 882.03 370.39 883.33 375.12 887.23 377.62 C 895.97 384.18 902.75 393.48 906.04 403.93 C 907.88 413.85 906.04 424.04 908.22 433.94 C 912.83 431.40 916.76 427.81 919.84 423.55 C 921.46 424.21 923.09 424.85 924.73 425.52 C 921.90 429.69 918.26 433.22 915.31 437.31 C 921.23 438.61 927.32 438.39 933.31 438.98 C 939.20 440.62 939.89 448.07 944.19 451.68 C 947.85 452.81 952.10 451.27 955.50 453.47 C 959.47 456.46 963.13 459.90 966.83 463.24 C 966.16 465.46 965.49 467.68 964.85 469.92 C 970.65 475.89 977.88 482.07 978.50 490.98 C 978.79 498.63 977.53 506.27 977.29 513.92 C 984.88 519.59 991.50 526.81 1000.27 530.74 C 1002.01 531.48 1003.84 530.31 1005.02 529.09 C 1008.18 525.30 1010.78 521.08 1013.37 516.89 C 1017.48 520.00 1021.60 523.12 1025.39 526.63 C 1030.01 530.87 1036.26 532.27 1041.69 535.12 C 1036.28 540.71 1030.43 545.84 1024.40 550.75 C 1031.43 559.75 1045.49 559.45 1050.73 570.21 C 1053.13 573.72 1054.79 577.67 1056.61 581.50 C 1049.41 589.60 1042.71 598.18 1034.66 605.51 C 1030.52 602.26 1026.21 599.23 1021.54 596.81 C 1018.67 603.49 1017.08 612.57 1008.82 614.73 C 999.88 617.32 990.31 616.10 981.13 616.20 C 980.67 617.61 980.21 619.02 979.70 620.42 C 974.39 613.46 971.72 604.68 965.51 598.44 C 961.08 596.57 955.80 600.24 951.43 597.68 C 944.56 593.72 944.95 584.55 940.13 578.91 C 936.77 573.33 929.02 573.86 925.13 568.94 C 911.73 549.63 899.65 529.47 888.00 509.07 C 885.64 504.16 884.07 498.91 882.04 493.87 C 879.00 485.90 878.67 477.29 877.84 468.90 C 871.55 474.93 865.16 480.86 858.63 486.63 C 845.83 479.12 832.58 471.60 822.86 460.12 C 814.72 451.18 801.81 445.10 799.46 432.09 C 797.47 420.86 794.54 409.75 793.74 398.34 C 800.67 391.70 808.94 386.34 814.78 378.62 Z" />
</g>
<g id="#8f2f7ffe">
<path fill="#8f2f7f" opacity="1.00" d=" M 1005.80 376.73 C 1018.70 382.72 1032.14 387.95 1046.16 390.62 C 1060.37 391.73 1074.58 389.50 1088.58 387.29 C 1092.61 386.40 1097.22 385.64 1100.84 388.21 C 1108.61 393.92 1116.69 399.75 1121.99 407.99 C 1128.94 417.10 1132.50 428.29 1139.80 437.17 C 1142.74 441.80 1147.51 445.77 1148.63 451.31 C 1147.92 459.41 1144.51 467.29 1145.52 475.49 C 1147.19 490.19 1149.08 505.01 1147.70 519.80 C 1145.67 523.72 1142.70 528.10 1138.06 529.05 C 1131.83 529.35 1125.63 529.14 1119.42 529.04 C 1119.29 542.76 1120.50 556.56 1118.81 570.23 C 1117.81 579.52 1117.48 588.87 1116.23 598.13 C 1107.84 598.34 1101.15 592.87 1093.71 589.96 C 1090.35 590.45 1086.66 593.99 1087.63 597.71 C 1088.51 602.62 1090.14 607.39 1091.72 612.13 C 1089.54 613.08 1087.35 614.03 1085.18 614.98 C 1081.04 607.98 1075.58 601.82 1071.85 594.60 C 1072.30 588.71 1074.76 583.08 1074.75 577.11 C 1074.71 574.56 1072.47 572.57 1070.06 572.21 C 1065.29 574.84 1060.94 578.20 1056.61 581.50 C 1054.79 577.67 1053.13 573.72 1050.73 570.21 C 1045.49 559.45 1031.43 559.75 1024.40 550.75 C 1030.43 545.84 1036.28 540.71 1041.69 535.12 C 1036.26 532.27 1030.01 530.87 1025.39 526.63 C 1021.60 523.12 1017.48 520.00 1013.37 516.89 C 1010.78 521.08 1008.18 525.30 1005.02 529.09 C 1003.84 530.31 1002.01 531.48 1000.27 530.74 C 991.50 526.81 984.88 519.59 977.29 513.92 C 977.53 506.27 978.79 498.63 978.50 490.98 C 977.88 482.07 970.65 475.89 964.85 469.92 C 965.49 467.68 966.16 465.46 966.83 463.24 C 963.13 459.90 959.47 456.46 955.50 453.47 C 952.10 451.27 947.85 452.81 944.19 451.68 C 939.89 448.07 939.20 440.62 933.31 438.98 C 927.32 438.39 921.23 438.61 915.31 437.31 C 918.26 433.22 921.90 429.69 924.73 425.52 C 923.09 424.85 921.46 424.21 919.84 423.55 C 916.76 427.81 912.83 431.40 908.22 433.94 C 906.04 424.04 907.88 413.85 906.04 403.93 C 910.78 398.02 918.88 397.66 925.03 393.97 C 932.99 389.20 940.25 383.37 948.19 378.56 C 950.65 379.75 953.20 381.25 956.05 380.93 C 959.05 381.52 963.25 379.61 965.88 382.02 C 968.93 384.65 971.52 387.80 974.78 390.21 C 983.57 395.67 993.06 399.90 1001.93 405.25 C 1004.48 395.94 1004.95 386.29 1005.80 376.73 Z" />
</g>
<g id="#0f2f7fff">
<path fill="#0f2f7f" opacity="1.00" d=" M 1148.63 451.31 C 1159.35 457.51 1172.30 456.98 1184.25 456.47 C 1187.56 471.42 1189.11 487.11 1196.09 500.97 C 1202.24 513.44 1208.05 526.10 1214.73 538.31 C 1224.04 551.43 1235.66 562.72 1245.57 575.37 C 1249.02 580.45 1252.42 586.36 1251.61 592.75 C 1243.91 612.23 1233.09 630.36 1225.68 649.97 C 1223.87 647.19 1222.52 644.06 1220.24 641.63 C 1215.82 637.89 1209.86 637.31 1204.87 634.72 C 1202.15 632.27 1200.91 628.62 1198.53 625.87 C 1195.80 627.21 1193.80 629.63 1191.76 631.78 C 1186.42 637.75 1180.25 642.93 1175.24 649.20 C 1170.70 654.95 1166.13 660.74 1160.80 665.79 C 1158.06 668.44 1154.58 670.50 1150.72 670.80 C 1145.36 670.76 1140.02 671.66 1134.67 671.13 L 1133.68 670.90 C 1130.75 666.40 1129.01 660.94 1129.88 655.54 C 1130.71 651.58 1132.13 647.78 1132.99 643.83 C 1122.44 647.09 1112.06 650.89 1101.43 653.91 C 1099.97 639.68 1092.24 627.08 1085.18 614.98 C 1087.35 614.03 1089.54 613.08 1091.72 612.13 C 1090.14 607.39 1088.51 602.62 1087.63 597.71 C 1086.66 593.99 1090.35 590.45 1093.71 589.96 C 1101.15 592.87 1107.84 598.34 1116.23 598.13 C 1117.48 588.87 1117.81 579.52 1118.81 570.23 C 1120.50 556.56 1119.29 542.76 1119.42 529.04 C 1125.63 529.14 1131.83 529.35 1138.06 529.05 C 1142.70 528.10 1145.67 523.72 1147.70 519.80 C 1149.08 505.01 1147.19 490.19 1145.52 475.49 C 1144.51 467.29 1147.92 459.41 1148.63 451.31 Z" />
</g>
<g id="#0faf00ff">
<path fill="#0faf00" opacity="1.00" d=" M 1056.61 581.50 C 1060.94 578.20 1065.29 574.84 1070.06 572.21 C 1072.47 572.57 1074.71 574.56 1074.75 577.11 C 1074.76 583.08 1072.30 588.71 1071.85 594.60 C 1075.58 601.82 1081.04 607.98 1085.18 614.98 C 1092.24 627.08 1099.97 639.68 1101.43 653.91 C 1100.84 661.38 1106.00 667.04 1108.08 673.74 C 1108.65 680.19 1104.49 685.53 1102.40 691.32 C 1099.54 697.45 1098.40 705.38 1092.10 709.16 C 1087.23 710.68 1081.81 711.37 1077.86 714.87 C 1074.98 717.13 1072.89 720.44 1069.50 721.98 C 1065.21 723.09 1060.65 722.26 1056.40 723.54 C 1051.33 725.03 1046.67 727.92 1041.37 728.62 C 1035.76 728.86 1030.70 725.73 1025.22 725.27 C 1019.89 726.85 1015.02 729.66 1009.93 731.87 C 1005.26 733.90 1000.74 736.80 998.20 741.36 C 993.08 740.22 987.62 738.63 982.45 740.42 C 980.37 745.97 981.74 752.04 981.40 757.82 C 974.21 758.49 966.89 758.51 960.01 761.03 C 954.25 762.79 948.85 765.50 943.11 767.29 C 938.49 768.45 933.94 765.13 931.66 761.33 C 926.55 752.39 931.10 741.03 925.81 732.20 C 918.15 729.46 909.35 730.90 902.13 726.85 C 896.97 724.03 892.04 720.85 886.86 718.09 C 886.31 709.98 881.28 701.24 885.40 693.36 C 891.37 682.90 901.95 676.06 912.71 671.30 C 922.63 669.01 933.05 670.14 943.14 668.92 C 942.73 656.03 944.13 640.84 954.91 632.14 C 963.22 628.78 975.15 629.56 979.70 620.42 C 980.21 619.02 980.67 617.61 981.13 616.20 C 990.31 616.10 999.88 617.32 1008.82 614.73 C 1017.08 612.57 1018.67 603.49 1021.54 596.81 C 1026.21 599.23 1030.52 602.26 1034.66 605.51 C 1042.71 598.18 1049.41 589.60 1056.61 581.50 Z" />
</g>
<g id="#0f2f00ff">
<path fill="#0f2f00" opacity="1.00" d=" M 1191.76 631.78 C 1193.80 629.63 1195.80 627.21 1198.53 625.87 C 1200.91 628.62 1202.15 632.27 1204.87 634.72 C 1209.86 637.31 1215.82 637.89 1220.24 641.63 C 1222.52 644.06 1223.87 647.19 1225.68 649.97 C 1227.86 654.92 1234.63 652.24 1237.79 656.25 C 1244.49 662.01 1254.01 662.58 1260.60 668.42 C 1266.56 673.05 1274.45 674.01 1281.35 676.59 C 1282.68 678.66 1283.20 681.20 1284.78 683.15 C 1287.76 685.88 1291.85 687.57 1294.09 691.09 C 1293.27 695.54 1289.81 698.92 1288.40 703.15 C 1288.72 706.16 1290.40 708.84 1290.71 711.86 C 1286.18 721.43 1278.67 729.29 1273.91 738.75 C 1273.23 742.16 1275.21 745.97 1273.13 749.13 C 1262.03 766.29 1249.48 782.50 1239.38 800.30 C 1227.73 821.16 1213.28 840.26 1200.21 860.21 C 1197.67 862.34 1196.33 867.93 1192.15 866.88 C 1189.11 866.00 1187.07 863.18 1185.29 860.79 C 1181.26 855.28 1176.72 850.16 1171.82 845.44 C 1180.75 830.07 1188.78 814.19 1198.07 799.03 C 1199.38 796.56 1201.30 794.14 1201.48 791.25 C 1200.52 787.15 1196.59 784.79 1193.74 782.04 C 1194.36 779.06 1195.48 775.88 1194.20 772.91 C 1190.86 765.05 1184.54 758.69 1182.55 750.21 C 1180.59 743.58 1174.05 740.17 1169.82 735.20 C 1165.50 729.90 1161.94 724.06 1158.46 718.20 C 1160.65 710.11 1162.55 701.85 1166.27 694.29 C 1167.40 691.65 1168.94 689.09 1169.30 686.21 C 1169.40 682.91 1166.69 680.53 1164.29 678.74 C 1160.03 675.67 1155.54 672.88 1150.72 670.80 C 1154.58 670.50 1158.06 668.44 1160.80 665.79 C 1166.13 660.74 1170.70 654.95 1175.24 649.20 C 1180.25 642.93 1186.42 637.75 1191.76 631.78 Z" />
</g>
<g id="#8f2f00ff">
<path fill="#8f2f00" opacity="1.00" d=" M 1101.43 653.91 C 1112.06 650.89 1122.44 647.09 1132.99 643.83 C 1132.13 647.78 1130.71 651.58 1129.88 655.54 C 1129.01 660.94 1130.75 666.40 1133.68 670.90 C 1130.28 670.26 1126.64 668.81 1123.26 670.23 C 1119.46 671.86 1115.94 674.16 1112.85 676.89 C 1107.69 680.57 1112.88 687.14 1113.79 691.93 C 1109.03 695.06 1104.29 698.21 1099.67 701.54 C 1103.46 703.89 1107.23 706.16 1111.08 708.47 C 1120.62 703.30 1129.37 696.65 1136.79 688.74 C 1141.96 683.92 1139.86 675.11 1134.67 671.13 C 1140.02 671.66 1145.36 670.76 1150.72 670.80 C 1155.54 672.88 1160.03 675.67 1164.29 678.74 C 1166.69 680.53 1169.40 682.91 1169.30 686.21 C 1168.94 689.09 1167.40 691.65 1166.27 694.29 C 1162.55 701.85 1160.65 710.11 1158.46 718.20 C 1156.67 723.17 1154.88 729.06 1149.74 731.49 C 1144.31 734.29 1139.38 737.97 1135.51 742.73 C 1129.71 741.00 1123.69 740.53 1117.68 740.26 C 1107.90 739.71 1098.98 735.00 1091.38 729.12 C 1094.09 725.27 1096.89 721.35 1098.72 717.00 C 1097.33 713.79 1094.55 711.53 1092.10 709.16 C 1098.40 705.38 1099.54 697.45 1102.40 691.32 C 1104.49 685.53 1108.65 680.19 1108.08 673.74 C 1106.00 667.04 1100.84 661.38 1101.43 653.91 Z" />
</g>
<g id="#4faf00ff">
<path fill="#4faf00" opacity="1.00" d=" M 1123.26 670.23 C 1126.64 668.81 1130.28 670.26 1133.68 670.90 L 1134.67 671.13 C 1139.86 675.11 1141.96 683.92 1136.79 688.74 C 1129.37 696.65 1120.62 703.30 1111.08 708.47 C 1107.23 706.16 1103.46 703.89 1099.67 701.54 C 1104.29 698.21 1109.03 695.06 1113.79 691.93 C 1112.88 687.14 1107.69 680.57 1112.85 676.89 C 1115.94 674.16 1119.46 671.86 1123.26 670.23 Z" />
</g>
<g id="#8faf7fff">
<path fill="#8faf7f" opacity="1.00" d=" M 1077.86 714.87 C 1081.81 711.37 1087.23 710.68 1092.10 709.16 C 1094.55 711.53 1097.33 713.79 1098.72 717.00 C 1096.89 721.35 1094.09 725.27 1091.38 729.12 C 1086.02 736.25 1081.01 743.61 1075.95 750.95 C 1074.05 754.00 1071.95 757.26 1071.82 760.96 C 1072.42 765.35 1074.79 769.22 1076.26 773.35 C 1078.84 780.56 1081.60 787.70 1083.86 795.02 C 1084.53 797.24 1083.37 799.43 1082.42 801.37 C 1079.82 805.92 1076.84 810.24 1074.10 814.71 C 1081.70 825.66 1089.47 836.50 1099.11 845.78 C 1092.72 862.83 1085.78 879.66 1079.71 896.82 C 1076.18 901.79 1071.61 906.05 1067.33 910.37 C 1065.29 912.95 1061.80 911.16 1060.13 909.14 C 1058.67 902.27 1058.56 893.82 1051.64 890.05 C 1053.27 881.31 1057.79 872.88 1056.25 863.81 C 1053.99 858.77 1048.94 855.64 1044.93 852.04 C 1045.76 843.80 1049.52 836.02 1049.28 827.67 C 1048.68 822.84 1048.02 818.01 1047.28 813.21 C 1045.02 804.97 1037.45 798.18 1039.46 789.00 C 1039.12 782.25 1041.97 774.54 1037.39 768.65 C 1035.85 765.60 1032.20 765.49 1029.26 765.05 C 1019.96 763.85 1010.93 761.13 1001.71 759.54 C 998.72 758.74 994.55 758.19 993.52 754.75 C 993.60 749.94 996.20 745.61 998.20 741.36 C 1000.74 736.80 1005.26 733.90 1009.93 731.87 C 1015.02 729.66 1019.89 726.85 1025.22 725.27 C 1030.70 725.73 1035.76 728.86 1041.37 728.62 C 1046.67 727.92 1051.33 725.03 1056.40 723.54 C 1060.65 722.26 1065.21 723.09 1069.50 721.98 C 1072.89 720.44 1074.98 717.13 1077.86 714.87 Z" />
</g>
<g id="#0faf7ffe">
<path fill="#0faf7f" opacity="1.00" d=" M 1158.46 718.20 C 1161.94 724.06 1165.50 729.90 1169.82 735.20 C 1174.05 740.17 1180.59 743.58 1182.55 750.21 C 1184.54 758.69 1190.86 765.05 1194.20 772.91 C 1195.48 775.88 1194.36 779.06 1193.74 782.04 C 1196.59 784.79 1200.52 787.15 1201.48 791.25 C 1201.30 794.14 1199.38 796.56 1198.07 799.03 C 1188.78 814.19 1180.75 830.07 1171.82 845.44 C 1166.17 854.01 1158.08 860.77 1153.76 870.31 C 1149.82 868.30 1145.94 866.06 1142.10 863.94 C 1136.33 875.09 1131.02 886.54 1123.91 896.93 C 1121.88 899.79 1119.36 903.68 1114.97 902.02 C 1109.09 900.04 1104.57 894.86 1098.32 893.66 C 1091.89 892.45 1085.79 895.19 1079.71 896.82 C 1085.78 879.66 1092.72 862.83 1099.11 845.78 C 1089.47 836.50 1081.70 825.66 1074.10 814.71 C 1076.84 810.24 1079.82 805.92 1082.42 801.37 C 1083.37 799.43 1084.53 797.24 1083.86 795.02 C 1081.60 787.70 1078.84 780.56 1076.26 773.35 C 1074.79 769.22 1072.42 765.35 1071.82 760.96 C 1071.95 757.26 1074.05 754.00 1075.95 750.95 C 1081.01 743.61 1086.02 736.25 1091.38 729.12 C 1098.98 735.00 1107.90 739.71 1117.68 740.26 C 1123.69 740.53 1129.71 741.00 1135.51 742.73 C 1139.38 737.97 1144.31 734.29 1149.74 731.49 C 1154.88 729.06 1156.67 723.17 1158.46 718.20 Z" />
</g>
<g id="#8faf00ff">
<path fill="#8faf00" opacity="1.00" d=" M 982.45 740.42 C 987.62 738.63 993.08 740.22 998.20 741.36 C 996.20 745.61 993.60 749.94 993.52 754.75 C 994.55 758.19 998.72 758.74 1001.71 759.54 C 1010.93 761.13 1019.96 763.85 1029.26 765.05 C 1032.20 765.49 1035.85 765.60 1037.39 768.65 C 1041.97 774.54 1039.12 782.25 1039.46 789.00 C 1037.45 798.18 1045.02 804.97 1047.28 813.21 C 1048.02 818.01 1048.68 822.84 1049.28 827.67 C 1049.52 836.02 1045.76 843.80 1044.93 852.04 C 1048.94 855.64 1053.99 858.77 1056.25 863.81 C 1057.79 872.88 1053.27 881.31 1051.64 890.05 C 1046.60 906.08 1043.24 922.65 1037.07 938.32 C 1035.44 937.59 1033.83 936.85 1032.23 936.12 C 1036.14 925.17 1036.96 913.57 1038.73 902.19 C 1032.58 899.26 1026.00 895.26 1024.47 888.00 C 1024.07 881.59 1025.74 875.28 1026.84 869.01 C 1020.59 867.13 1014.24 865.54 1007.92 863.94 C 1002.88 862.54 997.96 865.09 993.13 866.26 C 987.74 867.54 983.89 872.12 978.60 873.54 C 969.72 874.36 961.15 870.50 952.27 871.56 C 944.45 872.76 936.53 872.42 928.66 872.84 C 928.38 868.07 928.36 863.31 928.59 858.56 C 931.65 853.18 937.33 849.95 940.61 844.70 C 947.91 833.13 953.31 820.52 959.35 808.28 C 963.43 799.98 965.44 790.92 968.40 782.22 C 971.44 773.38 980.44 767.37 981.40 757.82 C 981.74 752.04 980.37 745.97 982.45 740.42 Z" />
</g>
</svg>
