<?xml version="1.0" encoding="UTF-8" ?>
<!DOCTYPE svg PUBLIC "-//W3C//DTD SVG 1.1//EN" "http://www.w3.org/Graphics/SVG/1.1/DTD/svg11.dtd">
<svg width="1920pt" height="1080pt" viewBox="0 0 1920 1080" version="1.1" xmlns="http://www.w3.org/2000/svg">
<g id="#bf9fbfff">
<path fill="#bf9fbf" fill-opacity="0" d=" M 763.57 216.43 C 773.18 212.14 784.52 212.64 794.00 217.01 C 802.93 220.98 812.20 224.32 820.65 229.28 C 825.06 249.23 829.12 269.41 830.54 289.85 C 831.75 299.48 839.16 306.93 840.34 316.61 C 842.51 323.01 841.35 330.91 845.37 336.54 C 853.73 338.91 862.84 338.62 870.88 342.20 C 876.70 346.92 883.22 351.12 887.90 357.07 C 890.20 360.81 892.15 364.75 894.28 368.60 C 890.98 371.20 887.76 373.84 884.43 376.39 C 876.98 371.97 870.08 366.74 862.80 362.09 C 858.70 359.35 853.66 359.51 848.99 360.09 C 847.61 373.50 847.86 388.12 839.69 399.55 C 833.26 401.95 826.87 404.75 819.98 405.42 C 815.96 405.35 812.35 401.91 808.26 403.29 C 802.94 405.00 798.14 407.97 793.14 410.42 C 786.77 406.42 780.73 401.81 774.02 398.40 C 769.77 397.27 765.30 397.91 760.96 397.76 C 759.51 394.26 757.84 390.86 756.78 387.23 C 755.16 381.87 757.41 376.18 755.95 370.79 C 752.62 362.18 746.42 355.17 741.31 347.61 C 738.44 343.85 735.51 339.21 730.16 339.03 C 719.59 336.84 708.69 336.84 698.14 334.56 C 693.14 333.23 689.01 329.90 684.66 327.28 C 690.73 320.10 698.02 314.06 705.47 308.39 C 706.81 307.45 708.26 306.70 709.70 305.90 C 709.67 302.37 709.52 298.84 709.34 295.32 C 713.40 293.68 717.94 291.28 718.17 286.29 C 718.16 276.21 714.52 266.47 715.31 256.31 C 717.32 253.44 720.03 250.90 721.13 247.49 C 722.99 242.78 722.98 236.68 727.53 233.51 C 732.09 229.28 739.02 231.12 744.47 229.17 C 750.30 224.20 755.98 218.59 763.57 216.43 Z" />
</g>
<g id="#9f1f7fff">
<path fill="#9f1f7f" fill-opacity="0" d=" M 511.47 256.07 C 516.66 255.49 523.06 249.46 527.55 254.45 C 532.64 258.66 537.31 263.35 542.07 267.93 C 550.15 275.86 553.65 286.96 559.87 296.17 C 560.91 297.35 561.96 299.43 563.87 298.74 C 568.05 297.26 570.74 293.46 573.62 290.31 C 577.98 290.36 582.32 291.92 586.69 291.47 C 590.85 289.66 592.68 284.93 596.28 282.33 C 602.51 282.57 610.39 283.17 614.13 288.93 C 618.00 293.30 620.77 298.92 625.87 302.02 C 634.25 304.69 643.20 303.75 651.87 303.56 C 659.59 303.48 663.51 295.94 668.03 290.90 C 673.23 293.46 678.40 296.18 681.79 301.03 C 687.44 302.54 691.60 306.45 694.96 311.01 C 698.42 310.00 701.91 309.05 705.47 308.39 C 698.02 314.06 690.73 320.10 684.66 327.28 C 679.61 333.09 673.28 337.84 666.20 340.89 C 667.20 347.77 668.23 354.76 666.82 361.69 C 666.26 368.12 661.84 373.23 658.19 378.21 C 654.15 383.14 649.93 387.93 645.62 392.62 C 640.44 392.27 635.30 391.93 630.12 392.04 C 624.64 392.31 620.19 388.58 615.74 385.93 C 608.37 393.86 601.94 402.66 594.19 410.20 C 588.59 413.74 582.39 409.42 577.16 407.27 C 568.55 417.35 559.20 426.84 548.14 434.26 C 543.64 430.55 539.19 426.81 534.69 423.12 C 532.82 427.06 533.62 431.32 534.91 435.29 C 529.79 428.73 524.22 422.45 519.87 415.34 C 519.24 412.36 517.77 409.31 518.36 406.19 C 519.73 402.59 522.86 400.00 524.29 396.41 C 525.57 392.31 522.47 389.08 521.99 385.31 C 523.17 379.98 525.34 374.52 523.77 369.02 C 524.38 368.95 525.62 368.80 526.23 368.72 C 524.10 363.51 520.92 358.72 519.85 353.12 C 518.68 347.26 513.68 343.34 511.33 338.03 C 507.90 328.33 502.75 319.34 499.49 309.58 C 505.84 305.42 512.02 300.96 518.73 297.37 C 517.75 293.14 515.73 289.30 513.37 285.71 C 514.00 279.46 514.15 273.17 514.69 266.92 C 515.05 263.01 513.13 259.46 511.47 256.07 Z" />
</g>
<g id="#7fdf3fff">
<path fill="#7fdf3f" fill-opacity="0" d=" M 968.18 296.55 C 977.56 299.30 985.16 291.86 993.90 290.29 C 999.64 291.07 1005.17 293.17 1010.58 295.23 C 1005.32 312.45 999.75 329.58 994.65 346.86 C 992.91 352.93 990.00 358.91 984.98 362.93 C 977.71 369.68 970.44 376.43 963.43 383.44 C 961.81 385.15 960.06 386.87 959.20 389.10 C 960.87 396.60 969.10 399.88 972.56 406.28 C 974.50 411.59 974.51 417.87 971.92 422.98 C 967.78 430.79 964.24 439.58 965.21 448.59 C 967.97 456.54 971.65 464.13 974.81 471.93 C 964.20 478.95 955.60 488.60 945.74 496.60 C 942.09 490.52 935.17 488.81 928.72 487.16 C 925.09 492.53 921.63 498.44 915.81 501.74 C 906.42 507.20 896.43 511.65 886.17 515.20 C 882.45 512.60 879.01 509.18 877.76 504.71 C 876.05 496.89 875.91 488.85 875.69 480.89 C 875.48 473.71 876.51 466.16 873.53 459.37 C 870.40 454.67 866.87 450.06 862.06 446.98 C 855.01 441.85 845.72 438.24 842.11 429.64 C 836.37 420.53 839.28 409.60 839.69 399.55 C 847.86 388.12 847.61 373.50 848.99 360.09 C 853.66 359.51 858.70 359.35 862.80 362.09 C 870.08 366.74 876.98 371.97 884.43 376.39 C 887.76 373.84 890.98 371.20 894.28 368.60 C 892.15 364.75 890.20 360.81 887.90 357.07 C 891.46 354.50 892.91 350.30 894.51 346.41 C 898.16 337.11 904.30 329.11 909.12 320.42 C 912.62 321.04 916.07 321.57 919.61 322.07 C 921.52 318.98 922.35 314.90 925.37 312.64 C 931.36 311.59 937.79 312.66 943.63 310.67 C 946.82 307.44 947.83 302.33 952.02 300.06 C 957.01 297.72 962.54 294.79 968.18 296.55 M 926.46 355.02 C 925.79 361.42 926.99 367.74 931.45 372.68 C 934.97 369.71 937.04 365.32 935.54 360.59 C 937.54 353.72 930.14 355.83 926.46 355.02 M 920.87 453.84 C 916.55 454.72 911.60 454.96 908.52 458.48 C 901.56 465.74 895.55 473.88 888.58 481.13 C 887.05 479.62 885.52 478.11 883.98 476.62 C 882.66 477.51 881.37 478.41 880.07 479.30 C 881.73 481.88 883.34 484.46 885.02 487.09 C 899.76 485.88 915.28 486.68 928.93 480.03 C 932.07 478.68 932.95 475.00 934.34 472.20 C 937.04 465.28 940.78 458.60 941.77 451.15 C 934.87 452.58 927.84 452.95 920.87 453.84 Z" />
</g>
<g id="#1f9f00ff">
<path fill="#1f9f00" fill-opacity="0" d=" M 1010.58 295.23 L 1010.80 294.52 C 1013.59 301.71 1015.70 309.16 1017.43 316.68 C 1018.25 325.62 1028.15 327.97 1034.84 331.52 C 1035.64 329.03 1036.39 326.54 1037.18 324.06 C 1043.29 326.40 1049.76 328.16 1055.45 331.50 C 1057.87 334.18 1058.82 337.92 1061.50 340.40 C 1064.99 341.95 1068.76 343.08 1072.44 344.26 C 1073.70 340.58 1075.20 336.98 1076.68 333.38 C 1083.13 348.82 1088.75 366.55 1083.15 383.09 C 1079.56 397.87 1070.89 410.64 1065.85 424.86 C 1063.67 430.64 1066.05 436.77 1067.45 442.40 C 1069.22 450.93 1078.47 455.27 1079.96 464.01 C 1073.08 467.23 1066.13 470.30 1059.25 473.52 C 1049.46 478.08 1038.83 480.34 1028.41 482.92 C 1023.41 476.69 1017.38 470.77 1009.37 468.86 C 1007.60 471.16 1005.81 473.45 1004.05 475.75 C 999.73 473.52 995.41 471.08 990.63 469.99 C 985.30 468.97 979.91 470.62 974.81 471.93 C 971.65 464.13 967.97 456.54 965.21 448.59 C 964.24 439.58 967.78 430.79 971.92 422.98 C 974.51 417.87 974.50 411.59 972.56 406.28 C 969.10 399.88 960.87 396.60 959.20 389.10 C 960.06 386.87 961.81 385.15 963.43 383.44 C 970.44 376.43 977.71 369.68 984.98 362.93 C 990.00 358.91 992.91 352.93 994.65 346.86 C 999.75 329.58 1005.32 312.45 1010.58 295.23 Z" />
</g>
<g id="#bf5fbfff">
<path fill="#bf5fbf" fill-opacity="0" d=" M 1219.50 331.61 C 1224.71 328.68 1230.16 326.26 1235.64 323.87 C 1240.39 333.07 1243.15 343.11 1243.86 353.45 C 1236.15 355.70 1231.57 362.74 1225.76 367.75 C 1218.78 373.51 1210.51 377.30 1202.74 381.80 C 1197.14 385.47 1193.43 391.28 1189.91 396.83 C 1186.77 401.78 1182.13 405.48 1177.77 409.30 C 1179.11 411.88 1180.15 414.58 1181.81 417.01 C 1187.83 417.74 1194.61 414.91 1200.30 417.97 C 1204.07 421.20 1207.48 426.34 1206.40 431.49 C 1202.98 438.88 1195.19 442.81 1189.87 448.61 C 1177.51 462.87 1168.57 480.95 1168.97 500.18 C 1175.56 499.44 1182.28 498.96 1188.54 496.62 C 1194.91 493.77 1201.92 492.84 1208.83 493.61 C 1210.57 497.62 1212.06 501.80 1214.17 505.66 C 1208.86 509.80 1203.69 514.20 1199.64 519.62 C 1197.18 523.04 1193.58 525.32 1189.78 527.01 C 1186.87 522.16 1183.83 517.43 1180.88 512.62 C 1174.42 514.20 1167.51 515.76 1162.77 520.78 C 1153.48 529.34 1140.65 530.55 1128.73 532.01 C 1125.87 528.96 1121.27 526.38 1121.20 521.68 C 1120.96 518.12 1120.70 513.91 1117.39 511.74 C 1110.08 507.54 1100.98 507.11 1094.29 501.77 C 1090.91 499.27 1088.30 495.75 1087.02 491.75 C 1084.00 482.68 1082.26 473.26 1079.96 464.01 C 1078.47 455.27 1069.22 450.93 1067.45 442.40 C 1066.05 436.77 1063.67 430.64 1065.85 424.86 C 1070.89 410.64 1079.56 397.87 1083.15 383.09 C 1088.75 366.55 1083.13 348.82 1076.68 333.38 C 1081.99 330.24 1087.62 327.58 1093.47 325.61 C 1098.30 323.89 1100.76 329.94 1103.33 332.93 C 1110.54 334.58 1117.77 336.38 1125.14 337.26 C 1132.60 337.23 1140.02 336.11 1147.48 335.59 C 1150.48 339.86 1153.63 344.00 1156.85 348.13 C 1158.66 350.10 1160.25 352.93 1163.74 351.67 C 1170.30 347.93 1174.59 339.84 1182.94 339.88 C 1195.25 338.09 1208.44 337.98 1219.50 331.61 M 1105.66 376.17 C 1104.66 382.81 1102.45 389.15 1100.74 395.62 C 1103.47 396.85 1106.20 398.08 1108.97 399.26 C 1111.81 396.20 1114.80 393.27 1117.92 390.48 C 1117.32 385.21 1116.51 379.95 1115.42 374.76 C 1112.09 375.20 1108.92 375.68 1105.66 376.17 Z" />
</g>
<g id="#bfdfbffe">
<path fill="#bfdfbf" fill-opacity="0" d=" M 666.20 340.89 C 673.28 337.84 679.61 333.09 684.66 327.28 C 689.01 329.90 693.14 333.23 698.14 334.56 C 708.69 336.84 719.59 336.84 730.16 339.03 C 735.51 339.21 738.44 343.85 741.31 347.61 C 746.42 355.17 752.62 362.18 755.95 370.79 C 757.41 376.18 755.16 381.87 756.78 387.23 C 757.84 390.86 759.51 394.26 760.96 397.76 C 765.30 397.91 769.77 397.27 774.02 398.40 C 780.73 401.81 786.77 406.42 793.14 410.42 C 791.66 422.99 790.68 435.77 786.80 447.89 C 784.82 453.95 778.02 455.89 772.82 458.42 C 769.14 459.92 765.37 461.23 761.65 462.60 C 757.04 459.06 751.02 456.65 745.18 458.31 C 735.36 462.69 726.11 468.83 719.17 477.13 C 716.68 479.96 714.28 483.40 710.37 484.24 C 704.25 485.53 697.99 487.38 691.68 486.89 C 681.18 484.21 671.07 480.02 661.59 474.78 C 662.96 473.41 664.37 472.02 665.31 470.30 C 665.83 464.75 661.60 460.60 659.21 456.11 C 654.80 457.94 650.26 459.83 645.46 460.23 C 640.83 455.92 639.55 449.34 637.33 443.71 C 633.63 432.89 634.72 420.04 641.98 410.93 C 646.23 405.88 645.85 398.83 645.62 392.62 C 649.93 387.93 654.15 383.14 658.19 378.21 C 661.84 373.23 666.26 368.12 666.82 361.69 C 668.23 354.76 667.20 347.77 666.20 340.89 M 701.48 398.29 C 698.39 399.03 697.63 402.67 696.16 405.03 C 700.94 406.02 705.74 406.97 710.61 407.35 C 711.43 406.42 712.25 405.49 713.09 404.58 C 711.69 401.89 710.29 399.22 708.89 396.55 C 706.35 397.07 703.89 397.50 701.48 398.29 Z" />
</g>
<g id="#005f3ffe">
<path fill="#005f3f" fill-opacity="0" d=" M 1311.07 340.12 C 1319.52 334.23 1329.86 339.08 1338.94 340.29 C 1346.73 341.23 1348.45 349.62 1351.00 355.62 C 1358.80 355.57 1366.98 355.09 1374.25 358.47 C 1376.83 359.59 1379.36 360.85 1381.90 362.10 C 1380.49 368.47 1379.71 375.06 1377.11 381.11 C 1374.51 387.33 1370.54 392.96 1368.96 399.60 C 1366.00 412.24 1366.98 425.63 1361.84 437.82 C 1359.82 442.99 1358.53 449.39 1352.93 451.87 C 1341.59 458.34 1331.22 467.36 1325.80 479.49 C 1323.47 483.21 1322.87 488.97 1318.30 490.84 C 1314.47 492.09 1310.38 492.21 1306.41 492.58 C 1304.04 501.53 1305.78 510.82 1310.11 518.85 C 1312.40 524.20 1316.39 529.07 1317.15 535.00 C 1316.31 539.88 1312.62 543.62 1309.77 547.48 C 1305.74 540.58 1302.34 532.43 1294.82 528.59 C 1294.44 533.06 1294.09 537.54 1293.78 542.02 C 1290.66 542.36 1287.53 542.66 1284.42 543.00 C 1276.26 531.71 1266.75 521.55 1256.56 512.09 C 1252.61 514.90 1248.84 517.95 1244.97 520.87 C 1242.24 518.16 1239.45 515.51 1236.72 512.81 C 1233.09 514.65 1229.45 516.46 1225.87 518.35 C 1221.75 514.33 1217.47 510.40 1214.17 505.66 C 1212.06 501.80 1210.57 497.62 1208.83 493.61 C 1201.92 492.84 1194.91 493.77 1188.54 496.62 C 1182.28 498.96 1175.56 499.44 1168.97 500.18 C 1168.57 480.95 1177.51 462.87 1189.87 448.61 C 1195.19 442.81 1202.98 438.88 1206.40 431.49 C 1207.48 426.34 1204.07 421.20 1200.30 417.97 C 1194.61 414.91 1187.83 417.74 1181.81 417.01 C 1180.15 414.58 1179.11 411.88 1177.77 409.30 C 1182.13 405.48 1186.77 401.78 1189.91 396.83 C 1193.43 391.28 1197.14 385.47 1202.74 381.80 C 1210.51 377.30 1218.78 373.51 1225.76 367.75 C 1231.57 362.74 1236.15 355.70 1243.86 353.45 C 1243.87 358.31 1243.96 363.19 1244.03 368.06 C 1253.74 371.60 1263.12 377.66 1273.60 377.60 C 1285.60 369.08 1290.28 354.26 1297.97 342.31 C 1302.41 342.18 1307.31 343.04 1311.07 340.12 M 1284.39 415.71 C 1279.19 417.97 1281.95 424.57 1286.52 425.58 C 1291.79 427.35 1299.84 431.80 1303.80 425.97 C 1301.62 421.59 1297.03 419.25 1292.92 417.05 C 1290.30 415.89 1287.23 414.55 1284.39 415.71 Z" />
</g>
<g id="#201f7fff">
<path fill="#201f7f" fill-opacity="0" d=" M 1374.25 358.47 C 1378.34 356.61 1382.37 354.12 1386.89 353.50 C 1393.33 355.25 1399.48 359.21 1403.03 364.99 C 1408.51 371.09 1408.11 379.49 1410.03 386.92 C 1412.28 394.96 1412.94 403.71 1416.90 411.18 C 1427.73 420.78 1442.42 422.78 1456.11 425.28 C 1456.41 429.56 1457.33 434.06 1456.14 438.26 C 1451.77 444.72 1445.67 449.82 1441.41 456.39 C 1434.04 467.76 1423.36 476.33 1414.67 486.57 C 1411.93 493.27 1413.79 501.34 1411.02 508.13 C 1401.29 521.81 1388.57 532.95 1377.34 545.34 C 1373.54 549.47 1368.84 552.85 1365.67 557.49 C 1362.83 565.64 1362.44 575.35 1355.62 581.59 C 1347.76 589.41 1339.81 597.13 1332.01 605.01 C 1324.81 611.52 1318.72 619.35 1310.47 624.64 C 1323.14 610.53 1337.10 597.66 1350.56 584.31 C 1342.40 580.20 1333.02 578.19 1326.03 572.01 C 1318.24 565.67 1314.40 556.11 1309.77 547.48 C 1312.62 543.62 1316.31 539.88 1317.15 535.00 C 1316.39 529.07 1312.40 524.20 1310.11 518.85 C 1305.78 510.82 1304.04 501.53 1306.41 492.58 C 1310.38 492.21 1314.47 492.09 1318.30 490.84 C 1322.87 488.97 1323.47 483.21 1325.80 479.49 C 1331.22 467.36 1341.59 458.34 1352.93 451.87 C 1358.53 449.39 1359.82 442.99 1361.84 437.82 C 1366.98 425.63 1366.00 412.24 1368.96 399.60 C 1370.54 392.96 1374.51 387.33 1377.11 381.11 C 1379.71 375.06 1380.49 368.47 1381.90 362.10 C 1379.36 360.85 1376.83 359.59 1374.25 358.47 Z" />
</g>
<g id="#005fbfff">
<path fill="#005fbf" fill-opacity="0" d=" M 926.46 355.02 C 930.14 355.83 937.54 353.72 935.54 360.59 C 937.04 365.32 934.97 369.71 931.45 372.68 C 926.99 367.74 925.79 361.42 926.46 355.02 Z" />
</g>
<g id="#3fdfbfff">
<path fill="#3fdfbf" fill-opacity="0" d=" M 1105.66 376.17 C 1108.92 375.68 1112.09 375.20 1115.42 374.76 C 1116.51 379.95 1117.32 385.21 1117.92 390.48 C 1114.80 393.27 1111.81 396.20 1108.97 399.26 C 1106.20 398.08 1103.47 396.85 1100.74 395.62 C 1102.45 389.15 1104.66 382.81 1105.66 376.17 Z" />
</g>
<g id="#9f1f00ff">
<path fill="#9f1f00" fill-opacity="0" d=" M 594.19 410.20 C 601.94 402.66 608.37 393.86 615.74 385.93 C 620.19 388.58 624.64 392.31 630.12 392.04 C 635.30 391.93 640.44 392.27 645.62 392.62 C 645.85 398.83 646.23 405.88 641.98 410.93 C 634.72 420.04 633.63 432.89 637.33 443.71 C 639.55 449.34 640.83 455.92 645.46 460.23 C 650.26 459.83 654.80 457.94 659.21 456.11 C 661.60 460.60 665.83 464.75 665.31 470.30 C 664.37 472.02 662.96 473.41 661.59 474.78 C 642.85 489.66 621.84 501.33 602.94 515.97 C 598.80 519.14 595.74 523.43 592.58 527.52 C 595.19 531.42 597.97 535.22 600.97 538.84 C 593.73 537.25 586.30 538.31 579.04 539.11 C 575.78 539.61 573.26 536.93 571.19 534.82 C 562.73 525.56 554.14 516.38 546.52 506.41 C 548.92 504.59 551.48 503.00 554.10 501.50 C 552.63 497.69 551.14 493.88 549.89 490.00 C 548.18 484.63 543.01 481.09 541.64 475.58 C 539.59 462.13 539.14 448.31 534.91 435.29 C 533.62 431.32 532.82 427.06 534.69 423.12 C 539.19 426.81 543.64 430.55 548.14 434.26 C 559.20 426.84 568.55 417.35 577.16 407.27 C 582.39 409.42 588.59 413.74 594.19 410.20 Z" />
</g>
<g id="#1f1f00ff">
<path fill="#1f1f00" fill-opacity="0" d=" M 701.48 398.29 C 703.89 397.50 706.35 397.07 708.89 396.55 C 710.29 399.22 711.69 401.89 713.09 404.58 C 712.25 405.49 711.43 406.42 710.61 407.35 C 705.74 406.97 700.94 406.02 696.16 405.03 C 697.63 402.67 698.39 399.03 701.48 398.29 Z" />
</g>
<g id="#00dfbfff">
<path fill="#00dfbf" fill-opacity="0" d=" M 819.98 405.42 C 826.87 404.75 833.26 401.95 839.69 399.55 C 839.28 409.60 836.37 420.53 842.11 429.64 C 845.72 438.24 855.01 441.85 862.06 446.98 C 866.87 450.06 870.40 454.67 873.53 459.37 C 876.51 466.16 875.48 473.71 875.69 480.89 C 875.91 488.85 876.05 496.89 877.76 504.71 C 879.01 509.18 882.45 512.60 886.17 515.20 C 890.03 518.32 897.92 519.76 897.58 526.07 C 897.82 535.16 893.72 544.23 896.14 553.27 C 899.18 565.68 903.20 578.02 910.02 588.91 C 906.04 592.93 901.68 596.55 897.65 600.52 C 891.11 599.49 883.62 595.61 877.36 599.36 C 871.95 605.09 868.23 612.19 864.37 619.04 C 860.26 617.41 856.16 615.74 851.97 614.33 C 849.80 619.23 846.90 623.93 845.66 629.18 C 845.31 634.37 848.00 639.12 849.49 643.95 C 845.52 638.04 837.68 635.87 834.98 629.05 C 832.77 624.38 830.84 619.58 829.35 614.66 C 827.83 608.31 829.47 601.83 830.15 595.51 C 824.11 595.22 817.94 595.41 812.04 596.83 C 811.31 595.32 810.55 593.82 809.83 592.33 C 803.86 592.27 798.45 594.60 793.97 598.36 C 791.49 591.93 788.25 585.84 785.62 579.48 C 782.81 572.67 783.43 565.14 782.83 557.94 C 782.00 548.96 791.88 544.40 794.74 536.74 C 797.83 531.49 795.75 525.25 793.86 519.98 C 789.09 509.82 782.25 500.76 777.81 490.43 C 777.19 485.61 783.51 481.75 781.44 476.85 C 779.31 470.38 775.47 464.67 772.82 458.42 C 778.02 455.89 784.82 453.95 786.80 447.89 C 790.68 435.77 791.66 422.99 793.14 410.42 C 798.14 407.97 802.94 405.00 808.26 403.29 C 812.35 401.91 815.96 405.35 819.98 405.42 M 830.16 521.24 C 833.28 523.60 836.86 525.59 840.79 526.14 C 844.72 525.18 846.15 521.28 845.69 517.60 C 840.20 516.82 834.59 517.87 830.16 521.24 Z" />
</g>
<g id="#7f5f3fff">
<path fill="#7f5f3f" fill-opacity="0" d=" M 1284.39 415.71 C 1287.23 414.55 1290.30 415.89 1292.92 417.05 C 1297.03 419.25 1301.62 421.59 1303.80 425.97 C 1299.84 431.80 1291.79 427.35 1286.52 425.58 C 1281.95 424.57 1279.19 417.97 1284.39 415.71 Z" />
</g>
<g id="#00df3fff">
<path fill="#00df3f" fill-opacity="0" d=" M 920.87 453.84 C 927.84 452.95 934.87 452.58 941.77 451.15 C 940.78 458.60 937.04 465.28 934.34 472.20 C 932.95 475.00 932.07 478.68 928.93 480.03 C 915.28 486.68 899.76 485.88 885.02 487.09 C 883.34 484.46 881.73 481.88 880.07 479.30 C 881.37 478.41 882.66 477.51 883.98 476.62 C 885.52 478.11 887.05 479.62 888.58 481.13 C 895.55 473.88 901.56 465.74 908.52 458.48 C 911.60 454.96 916.55 454.72 920.87 453.84 Z" />
</g>
<g id="#bf5f3fff">
<path fill="#bf5f3f" fill-opacity="0" d=" M 719.17 477.13 C 726.11 468.83 735.36 462.69 745.18 458.31 C 751.02 456.65 757.04 459.06 761.65 462.60 C 765.37 461.23 769.14 459.92 772.82 458.42 C 775.47 464.67 779.31 470.38 781.44 476.85 C 783.51 481.75 777.19 485.61 777.81 490.43 C 782.25 500.76 789.09 509.82 793.86 519.98 C 795.75 525.25 797.83 531.49 794.74 536.74 C 791.88 544.40 782.00 548.96 782.83 557.94 C 783.43 565.14 782.81 572.67 785.62 579.48 C 788.25 585.84 791.49 591.93 793.97 598.36 C 792.41 603.40 787.69 609.01 781.83 608.14 C 776.17 607.93 770.48 608.31 764.91 607.10 C 761.75 608.91 758.35 610.35 755.48 612.60 C 754.04 615.86 754.47 619.58 754.22 623.09 C 751.94 624.30 749.69 625.54 747.46 626.80 C 744.64 622.93 742.76 617.99 738.58 615.40 C 731.85 612.35 724.96 616.31 718.20 615.88 C 711.00 609.14 707.84 599.08 700.99 592.01 C 697.37 589.65 692.67 590.26 688.54 589.51 C 683.24 588.18 675.82 589.96 672.51 584.48 C 664.88 574.59 657.65 564.37 650.65 554.03 C 647.83 554.96 644.93 557.34 641.87 555.94 C 638.58 554.96 635.33 553.01 631.75 554.20 C 627.81 555.54 624.22 557.94 620.08 558.63 C 613.18 552.62 607.21 545.53 600.97 538.84 C 597.97 535.22 595.19 531.42 592.58 527.52 C 595.74 523.43 598.80 519.14 602.94 515.97 C 621.84 501.33 642.85 489.66 661.59 474.78 C 671.07 480.02 681.18 484.21 691.68 486.89 C 697.99 487.38 704.25 485.53 710.37 484.24 C 714.28 483.40 716.68 479.96 719.17 477.13 Z" />
</g>
<g id="#7f5fbfff">
<path fill="#7f5fbf" fill-opacity="0" d=" M 1059.25 473.52 C 1066.13 470.30 1073.08 467.23 1079.96 464.01 C 1082.26 473.26 1084.00 482.68 1087.02 491.75 C 1088.30 495.75 1090.91 499.27 1094.29 501.77 C 1100.98 507.11 1110.08 507.54 1117.39 511.74 C 1120.70 513.91 1120.96 518.12 1121.20 521.68 C 1121.27 526.38 1125.87 528.96 1128.73 532.01 C 1135.23 537.59 1141.47 544.65 1142.21 553.60 C 1144.19 567.10 1144.76 581.11 1141.55 594.47 C 1138.39 610.06 1133.09 625.08 1128.23 640.19 C 1126.22 647.09 1119.37 650.71 1114.65 655.56 C 1112.36 648.10 1111.86 637.93 1104.13 633.81 C 1093.48 629.65 1087.02 641.04 1077.26 641.83 C 1072.57 642.27 1066.88 643.85 1063.24 639.78 C 1059.48 637.19 1060.42 632.48 1061.64 628.85 C 1064.60 618.30 1068.48 606.76 1063.77 596.16 C 1062.38 590.07 1055.01 589.94 1050.22 588.62 C 1024.80 583.31 999.07 578.02 972.97 578.55 C 965.03 578.41 957.08 578.79 949.14 578.59 C 940.56 578.61 939.09 565.52 929.92 566.88 C 927.46 566.57 925.59 568.42 924.17 570.14 C 919.15 576.16 915.23 583.04 910.02 588.91 C 903.20 578.02 899.18 565.68 896.14 553.27 C 893.72 544.23 897.82 535.16 897.58 526.07 C 897.92 519.76 890.03 518.32 886.17 515.20 C 896.43 511.65 906.42 507.20 915.81 501.74 C 921.63 498.44 925.09 492.53 928.72 487.16 C 935.17 488.81 942.09 490.52 945.74 496.60 C 955.60 488.60 964.20 478.95 974.81 471.93 C 979.91 470.62 985.30 468.97 990.63 469.99 C 995.41 471.08 999.73 473.52 1004.05 475.75 C 1005.81 473.45 1007.60 471.16 1009.37 468.86 C 1017.38 470.77 1023.41 476.69 1028.41 482.92 C 1038.83 480.34 1049.46 478.08 1059.25 473.52 Z" />
</g>
<g id="#3f5f3fff">
<path fill="#3f5f3f" fill-opacity="0" d=" M 1199.64 519.62 C 1203.69 514.20 1208.86 509.80 1214.17 505.66 C 1217.47 510.40 1221.75 514.33 1225.87 518.35 C 1229.45 516.46 1233.09 514.65 1236.72 512.81 C 1239.45 515.51 1242.24 518.16 1244.97 520.87 C 1248.84 517.95 1252.61 514.90 1256.56 512.09 C 1266.75 521.55 1276.26 531.71 1284.42 543.00 C 1282.14 548.46 1280.04 554.05 1277.06 559.16 C 1268.54 569.18 1255.43 572.91 1244.65 579.69 C 1235.60 588.64 1232.11 601.56 1223.75 611.01 C 1215.56 616.90 1207.41 622.86 1200.26 630.02 C 1202.36 640.88 1205.19 651.84 1204.42 663.00 C 1196.94 665.22 1189.56 667.84 1182.06 669.96 C 1174.30 671.92 1166.22 669.21 1158.48 671.02 C 1150.48 673.39 1146.84 681.83 1140.53 686.49 C 1134.70 688.70 1128.17 686.16 1122.18 686.37 C 1119.06 676.26 1116.71 665.93 1114.65 655.56 C 1119.37 650.71 1126.22 647.09 1128.23 640.19 C 1133.09 625.08 1138.39 610.06 1141.55 594.47 C 1144.76 581.11 1144.19 567.10 1142.21 553.60 C 1141.47 544.65 1135.23 537.59 1128.73 532.01 C 1140.65 530.55 1153.48 529.34 1162.77 520.78 C 1167.51 515.76 1174.42 514.20 1180.88 512.62 C 1183.83 517.43 1186.87 522.16 1189.78 527.01 C 1193.58 525.32 1197.18 523.04 1199.64 519.62 Z" />
</g>
<g id="#7fdfbffe">
<path fill="#7fdfbf" fill-opacity="0" d=" M 830.16 521.24 C 834.59 517.87 840.20 516.82 845.69 517.60 C 846.15 521.28 844.72 525.18 840.79 526.14 C 836.86 525.59 833.28 523.60 830.16 521.24 Z" />
</g>
<g id="#3fdf3fff">
<path fill="#3fdf3f" fill-opacity="0" d=" M 1294.82 528.59 C 1302.34 532.43 1305.74 540.58 1309.77 547.48 C 1314.40 556.11 1318.24 565.67 1326.03 572.01 C 1333.02 578.19 1342.40 580.20 1350.56 584.31 C 1337.10 597.66 1323.14 610.53 1310.47 624.64 C 1306.37 628.06 1302.00 631.43 1299.58 636.33 C 1297.42 641.00 1294.18 645.07 1291.91 649.67 C 1290.71 658.92 1291.84 668.23 1291.61 677.52 C 1288.67 670.38 1286.36 662.93 1282.68 656.13 C 1281.82 653.87 1279.22 654.31 1277.30 654.38 C 1273.90 654.72 1270.60 655.45 1267.26 656.00 C 1267.57 659.04 1266.92 663.05 1270.03 664.90 C 1277.10 669.71 1284.59 673.90 1291.91 678.33 C 1292.73 684.49 1290.98 691.68 1294.79 697.12 C 1298.42 702.80 1300.81 709.09 1302.94 715.47 C 1291.76 717.20 1280.85 721.39 1269.34 720.31 C 1261.07 718.85 1253.28 714.55 1247.94 708.04 C 1239.97 700.03 1237.32 687.82 1228.14 680.91 C 1219.98 675.26 1212.34 668.95 1204.42 663.00 C 1205.19 651.84 1202.36 640.88 1200.26 630.02 C 1207.41 622.86 1215.56 616.90 1223.75 611.01 C 1232.11 601.56 1235.60 588.64 1244.65 579.69 C 1255.43 572.91 1268.54 569.18 1277.06 559.16 C 1280.04 554.05 1282.14 548.46 1284.42 543.00 C 1287.53 542.66 1290.66 542.36 1293.78 542.02 C 1294.09 537.54 1294.44 533.06 1294.82 528.59 Z" />
</g>
<g id="#9f9f00ff">
<path fill="#9f9f00" fill-opacity="0" d=" M 924.17 570.14 C 925.59 568.42 927.46 566.57 929.92 566.88 C 939.09 565.52 940.56 578.61 949.14 578.59 C 957.08 578.79 965.03 578.41 972.97 578.55 C 999.07 578.02 1024.80 583.31 1050.22 588.62 C 1055.01 589.94 1062.38 590.07 1063.77 596.16 C 1068.48 606.76 1064.60 618.30 1061.64 628.85 C 1060.42 632.48 1059.48 637.19 1063.24 639.78 C 1066.88 643.85 1072.57 642.27 1077.26 641.83 C 1087.02 641.04 1093.48 629.65 1104.13 633.81 C 1111.86 637.93 1112.36 648.10 1114.65 655.56 C 1116.71 665.93 1119.06 676.26 1122.18 686.37 C 1124.58 697.53 1132.04 709.74 1125.87 720.97 C 1117.33 734.14 1103.46 742.86 1095.12 756.20 C 1089.32 763.68 1090.39 774.07 1091.45 782.85 C 1093.08 791.35 1100.12 797.64 1102.16 805.98 C 1100.79 809.81 1097.33 812.50 1094.39 815.18 C 1091.43 817.59 1087.49 819.02 1085.41 822.37 C 1084.80 828.86 1085.93 835.37 1085.61 841.86 C 1083.90 847.93 1076.86 850.79 1070.97 849.80 C 1067.03 841.66 1065.21 832.75 1062.70 824.14 C 1061.16 821.27 1058.07 819.61 1056.23 816.96 C 1054.21 813.24 1052.81 809.26 1051.54 805.24 C 1045.14 804.29 1038.76 803.21 1032.29 802.91 C 1030.86 809.74 1029.37 816.78 1025.81 822.89 C 1024.37 825.90 1020.21 825.34 1017.67 826.48 C 1016.77 823.72 1016.24 820.76 1014.65 818.30 C 1012.06 816.42 1008.51 816.48 1005.60 815.60 C 1002.90 819.85 1001.72 827.69 995.39 827.50 C 987.01 827.43 978.60 828.04 970.23 827.78 C 965.50 822.43 963.13 815.48 959.82 809.24 C 955.63 800.90 958.62 791.73 959.09 782.97 C 955.17 781.92 951.24 780.63 947.21 780.27 C 942.40 784.72 939.85 791.08 935.05 795.56 C 934.03 796.23 933.83 797.05 934.44 798.03 C 929.00 798.41 923.52 798.77 918.10 799.08 C 914.19 791.71 910.99 784.02 908.74 775.98 C 903.82 776.63 898.94 777.37 894.04 778.09 C 889.25 772.68 886.58 765.88 885.20 758.85 C 883.04 750.07 876.98 742.92 874.80 734.16 C 873.50 731.13 876.82 729.06 878.43 726.99 C 878.42 723.99 878.41 721.08 878.26 718.11 C 880.00 718.06 883.46 717.96 885.19 717.91 C 884.83 714.23 884.44 710.64 883.92 707.01 C 876.69 707.38 869.45 707.81 862.22 707.70 C 855.39 696.84 854.39 683.72 854.76 671.19 C 856.44 671.43 859.80 671.91 861.49 672.16 C 862.43 667.53 863.36 662.44 860.90 658.10 C 858.72 652.10 851.34 650.08 849.49 643.95 C 848.00 639.12 845.31 634.37 845.66 629.18 C 846.90 623.93 849.80 619.23 851.97 614.33 C 856.16 615.74 860.26 617.41 864.37 619.04 C 868.23 612.19 871.95 605.09 877.36 599.36 C 883.62 595.61 891.11 599.49 897.65 600.52 C 901.68 596.55 906.04 592.93 910.02 588.91 C 915.23 583.04 919.15 576.16 924.17 570.14 Z" />
</g>
<g id="#bedf3fff">
<path fill="#bedf3f" fill-opacity="0" d=" M 1267.26 656.00 C 1270.60 655.45 1273.90 654.72 1277.30 654.38 C 1279.22 654.31 1281.82 653.87 1282.68 656.13 C 1286.36 662.93 1288.67 670.38 1291.61 677.52 L 1291.91 678.33 C 1284.59 673.90 1277.10 669.71 1270.03 664.90 C 1266.92 663.05 1267.57 659.04 1267.26 656.00 Z" />
</g>
<g id="#3f5fbfff">
<path fill="#3f5fbf" fill-opacity="0" d=" M 1182.06 669.96 C 1189.56 667.84 1196.94 665.22 1204.42 663.00 C 1212.34 668.95 1219.98 675.26 1228.14 680.91 C 1237.32 687.82 1239.97 700.03 1247.94 708.04 C 1253.28 714.55 1261.07 718.85 1269.34 720.31 C 1280.85 721.39 1291.76 717.20 1302.94 715.47 C 1304.51 722.44 1306.34 730.57 1301.21 736.54 C 1300.28 737.45 1299.44 738.43 1298.75 739.52 C 1296.01 743.15 1292.47 746.07 1289.36 749.36 C 1284.64 754.39 1278.23 757.39 1273.28 762.10 C 1271.63 765.24 1270.72 768.73 1269.27 771.98 C 1268.70 772.84 1268.56 773.77 1268.86 774.78 C 1269.29 779.23 1269.72 783.83 1268.86 788.29 C 1267.78 791.45 1265.56 794.04 1263.80 796.84 C 1260.99 800.37 1264.00 804.76 1264.72 808.54 C 1261.87 811.73 1258.37 814.60 1256.67 818.64 C 1254.65 823.71 1254.61 829.42 1252.24 834.38 C 1250.54 836.17 1248.14 837.02 1245.96 838.04 C 1239.24 840.89 1232.84 844.42 1226.10 847.19 C 1221.01 849.32 1215.37 847.47 1210.11 847.75 C 1204.85 848.46 1200.53 852.24 1195.26 852.86 C 1190.80 849.17 1188.29 843.67 1183.82 840.02 C 1178.88 840.72 1174.90 844.05 1170.81 846.64 C 1168.51 845.57 1166.28 844.26 1163.82 843.65 C 1161.33 843.71 1159.07 844.90 1156.72 845.56 C 1155.70 845.77 1154.98 846.35 1154.56 847.32 C 1152.48 849.48 1149.62 850.61 1147.08 852.10 C 1143.26 849.48 1138.99 847.51 1135.49 844.48 C 1132.48 840.81 1131.79 835.80 1128.91 832.04 C 1119.22 823.34 1107.73 816.02 1094.39 815.18 C 1097.33 812.50 1100.79 809.81 1102.16 805.98 C 1100.12 797.64 1093.08 791.35 1091.45 782.85 C 1090.39 774.07 1089.32 763.68 1095.12 756.20 C 1103.46 742.86 1117.33 734.14 1125.87 720.97 C 1132.04 709.74 1124.58 697.53 1122.18 686.37 C 1128.17 686.16 1134.70 688.70 1140.53 686.49 C 1146.84 681.83 1150.48 673.39 1158.48 671.02 C 1166.22 669.21 1174.30 671.92 1182.06 669.96 Z" />
</g>
<g id="#a926bfff">
<path fill="#a926bf" fill-opacity="0" d=" M 1298.75 739.52 C 1299.44 738.43 1300.28 737.45 1301.21 736.54 C 1302.78 737.94 1300.40 740.86 1298.75 739.52 Z" />
</g>
<g id="#ef00bfff">
<path fill="#ef00bf" fill-opacity="0" d=" M 1268.86 774.78 C 1268.56 773.77 1268.70 772.84 1269.27 771.98 C 1270.62 773.17 1270.48 774.10 1268.86 774.78 Z" />
</g>
<g id="#753594ff">
<path fill="#753594" fill-opacity="0" d=" M 934.44 798.03 C 933.83 797.05 934.03 796.23 935.05 795.56 C 936.17 796.71 935.97 797.53 934.44 798.03 Z" />
</g>
<g id="#a920d4ff">
<path fill="#a920d4" fill-opacity="0" d=" M 1154.56 847.32 C 1154.98 846.35 1155.70 845.77 1156.72 845.56 C 1156.95 847.30 1156.23 847.89 1154.56 847.32 Z" />
</g>
<g id="#0fbf3fff">
<path fill="#0fbf3f" fill-opacity="0" d=" M 0.00 1079.02 C 21.25 1078.91 42.51 1078.62 63.73 1079.97 L 64.65 1080.00 L 0.00 1080.00 L 0.00 1079.02 Z" />
</g>
<g id="#0f3fbfff">
<path fill="#0f3fbf" fill-opacity="0" d=" M 63.73 1079.97 C 95.37 1078.31 127.12 1078.51 158.77 1079.98 L 159.64 1080.00 L 64.65 1080.00 L 63.73 1079.97 Z" />
</g>
<g id="#7fbf1fff">
<path fill="#7fbf1f" fill-opacity="0" d=" M 158.77 1079.98 C 176.19 1078.81 193.65 1079.02 211.09 1079.21 L 211.18 1080.00 L 159.64 1080.00 L 158.77 1079.98 Z" />
</g>
<g id="#00409fff">
<path fill="#00409f" fill-opacity="0" d=" M 211.09 1079.21 C 211.79 1079.21 213.21 1079.21 213.91 1079.21 L 213.82 1080.00 L 211.18 1080.00 L 211.09 1079.21 Z" />
</g>
<g id="#7fbf1ffe">
<path fill="#7fbf1f" fill-opacity="0" d=" M 213.91 1079.21 C 241.27 1079.05 268.63 1078.91 296.00 1079.00 L 296.01 1080.00 L 213.82 1080.00 L 213.91 1079.21 Z" />
</g>
<g id="#9fdfbfff">
<path fill="#9fdfbf" fill-opacity="0" d=" M 296.00 1079.00 C 335.91 1079.45 375.85 1077.94 415.73 1079.97 L 416.64 1080.00 L 296.01 1080.00 L 296.00 1079.00 Z" />
</g>
<g id="#df5f3fff">
<path fill="#df5f3f" fill-opacity="0" d=" M 415.73 1079.97 C 440.79 1078.24 465.91 1079.19 491.00 1079.00 L 491.00 1080.00 L 416.64 1080.00 L 415.73 1079.97 Z" />
</g>
<g id="#1fdf1fff">
<path fill="#1fdf1f" fill-opacity="0" d=" M 491.00 1079.00 C 523.58 1079.34 556.19 1078.08 588.75 1079.97 L 589.65 1080.00 L 491.00 1080.00 L 491.00 1079.00 Z" />
</g>
<g id="#9fbf1fff">
<path fill="#9fbf1f" fill-opacity="0" d=" M 588.75 1079.97 C 603.38 1078.79 618.09 1078.86 632.74 1079.96 L 633.65 1080.00 L 589.65 1080.00 L 588.75 1079.97 Z" />
<path fill="#9fbf1f" fill-opacity="0" d=" M 668.00 1078.97 C 673.90 1079.16 679.80 1079.62 685.72 1079.96 L 686.63 1080.00 L 668.02 1080.00 L 668.00 1078.97 Z" />
</g>
<g id="#9f005fff">
<path fill="#9f005f" fill-opacity="0" d=" M 632.74 1079.96 C 644.47 1079.20 656.23 1078.70 668.00 1078.97 L 668.02 1080.00 L 633.65 1080.00 L 632.74 1079.96 Z" />
</g>
<g id="#9f7f5fff">
<path fill="#9f7f5f" fill-opacity="0" d=" M 685.72 1079.96 C 705.77 1078.42 725.90 1079.03 746.00 1079.00 C 788.00 1079.00 830.00 1078.99 872.00 1079.00 L 872.00 1080.00 L 686.63 1080.00 L 685.72 1079.96 Z" />
</g>
<g id="#9fbf9fff">
<path fill="#9fbf9f" fill-opacity="0" d=" M 872.00 1079.00 C 905.66 1079.00 939.33 1078.99 973.00 1079.00 C 998.24 1079.12 1023.50 1078.35 1048.72 1079.97 L 1049.64 1080.00 L 872.00 1080.00 L 872.00 1079.00 Z" />
</g>
<g id="#5fbf1ffe">
<path fill="#5fbf1f" fill-opacity="0" d=" M 1048.72 1079.97 C 1082.36 1078.25 1116.13 1078.53 1149.78 1079.97 L 1150.67 1080.00 L 1049.64 1080.00 L 1048.72 1079.97 Z" />
</g>
<g id="#9f3f5fff">
<path fill="#9f3f5f" fill-opacity="0" d=" M 1149.78 1079.97 C 1156.08 1079.92 1162.38 1079.88 1168.72 1079.99 L 1169.59 1080.00 L 1150.67 1080.00 L 1149.78 1079.97 Z" />
</g>
<g id="#9f7fdfff">
<path fill="#9f7fdf" fill-opacity="0" d=" M 1168.72 1079.99 C 1203.99 1078.21 1239.41 1078.55 1274.70 1079.96 L 1275.63 1080.00 L 1169.59 1080.00 L 1168.72 1079.99 Z" />
</g>
<g id="#df3f9fff">
<path fill="#df3f9f" fill-opacity="0" d=" M 1274.70 1079.96 C 1285.02 1079.09 1295.39 1079.35 1305.74 1079.96 L 1306.67 1080.00 L 1275.63 1080.00 L 1274.70 1079.96 Z" />
</g>
<g id="#df7fdfff">
<path fill="#df7fdf" fill-opacity="0" d=" M 1305.74 1079.96 C 1342.45 1077.91 1379.24 1079.47 1416.00 1079.00 L 1416.02 1080.00 L 1306.67 1080.00 L 1305.74 1079.96 Z" />
</g>
<g id="#6f7fbffe">
<path fill="#6f7fbf" fill-opacity="0" d=" M 1416.00 1079.00 C 1584.00 1079.00 1752.00 1079.00 1920.00 1079.00 L 1920.00 1080.00 L 1416.02 1080.00 L 1416.00 1079.00 Z" />
</g>
</svg>
