<?xml version="1.0" encoding="UTF-8" ?>
<!DOCTYPE svg PUBLIC "-//W3C//DTD SVG 1.1//EN" "http://www.w3.org/Graphics/SVG/1.1/DTD/svg11.dtd">
<svg width="1920pt" height="1080pt" viewBox="0 0 1920 1080" version="1.1" xmlns="http://www.w3.org/2000/svg">
<g id="#5faf5ffe">
<path fill="#5faf5f" opacity="1.00" d=" M 824.40 188.80 C 830.22 189.05 835.87 191.91 840.00 196.00 C 847.17 202.94 856.40 207.03 864.95 211.92 L 864.66 212.48 C 860.05 220.78 856.67 229.72 851.84 237.88 C 845.74 241.53 836.33 237.84 831.76 244.39 C 828.80 247.88 825.66 251.20 822.41 254.41 C 823.10 256.29 823.83 258.16 824.57 260.03 C 821.47 261.97 818.41 263.94 815.33 265.89 C 812.80 263.73 810.35 261.49 807.82 259.36 C 802.30 264.76 802.42 274.73 794.48 277.58 C 792.37 278.53 790.19 279.29 788.00 280.00 C 787.56 278.33 787.12 276.66 786.69 275.00 C 782.21 276.31 777.44 277.11 773.45 279.64 C 768.20 283.60 763.48 288.50 757.22 290.87 C 754.01 287.33 750.85 283.77 747.54 280.35 C 751.03 278.73 752.82 275.32 753.49 271.69 C 751.33 270.84 749.18 269.99 747.05 269.11 C 748.62 263.03 748.12 256.70 743.89 251.70 C 746.68 242.36 746.09 230.62 736.82 225.15 C 739.54 220.46 741.36 215.30 742.54 210.02 C 750.66 210.07 758.66 208.44 766.13 205.22 C 773.74 201.03 782.20 206.63 790.13 204.18 C 796.94 202.63 798.00 193.06 805.10 192.15 C 811.54 191.11 818.02 190.24 824.40 188.80 Z" />
</g>
<g id="#df6f9fff">
<path fill="#df6f9f" opacity="1.00" d=" M 992.42 200.61 C 1001.97 200.08 1011.31 197.26 1020.92 197.47 C 1027.51 196.99 1028.07 207.25 1034.64 207.39 C 1038.51 205.21 1041.19 199.79 1046.29 200.72 C 1051.74 201.31 1057.20 201.17 1062.67 200.80 C 1069.29 200.54 1072.15 208.55 1078.43 209.42 C 1082.46 210.36 1086.70 209.88 1090.72 210.82 C 1094.41 212.66 1096.22 216.83 1099.64 219.10 C 1103.24 221.46 1107.33 223.42 1109.94 226.99 C 1112.93 232.86 1112.56 241.22 1118.65 245.21 C 1121.62 247.57 1126.23 249.35 1126.32 253.78 C 1126.82 262.86 1127.08 272.07 1125.02 281.00 C 1123.08 290.68 1122.00 300.51 1119.83 310.15 C 1117.58 307.72 1115.69 305.00 1113.90 302.23 C 1109.48 305.59 1105.15 309.22 1101.97 313.82 C 1092.65 313.22 1083.29 312.99 1074.02 311.84 C 1065.66 310.38 1059.94 303.75 1053.64 298.71 C 1056.34 294.27 1059.43 290.08 1062.51 285.88 C 1059.39 279.19 1056.56 272.30 1055.68 264.91 C 1055.25 261.30 1051.65 259.49 1050.03 256.53 C 1048.81 252.20 1048.59 247.70 1048.04 243.26 C 1044.15 241.60 1039.35 240.82 1036.76 237.16 C 1033.51 231.48 1032.20 224.84 1028.41 219.44 C 1026.17 216.05 1021.18 217.39 1017.95 217.10 C 1014.77 217.47 1012.98 220.61 1010.88 222.66 C 1007.19 221.02 1003.57 219.18 999.99 217.35 C 1000.39 215.86 1000.88 214.40 1001.36 212.94 C 998.18 209.18 995.22 205.24 992.68 201.02 L 992.42 200.61 Z" />
</g>
<g id="#5f6fdfff">
<path fill="#5f6fdf" opacity="1.00" d=" M 950.11 207.21 C 953.70 202.37 960.13 200.21 965.75 202.79 C 965.45 207.43 965.49 212.09 965.14 216.73 C 968.38 215.63 971.64 214.74 975.02 214.10 C 983.12 213.73 987.83 206.50 992.68 201.02 C 995.22 205.24 998.18 209.18 1001.36 212.94 C 1000.88 214.40 1000.39 215.86 999.99 217.35 C 999.42 221.70 1000.50 226.30 999.00 230.49 C 996.01 234.63 991.52 237.36 988.01 241.02 C 979.21 249.20 972.98 260.16 970.72 271.97 C 970.43 275.56 968.64 278.63 966.43 281.32 C 961.84 281.84 956.82 282.97 954.31 287.30 C 948.50 295.97 940.46 302.74 934.14 310.99 C 928.68 308.65 922.85 302.56 916.62 305.51 C 912.01 311.34 909.74 318.67 906.34 325.23 C 899.80 320.82 893.51 316.05 886.93 311.70 C 892.52 308.36 900.14 305.29 900.86 297.84 C 899.58 291.16 895.52 285.29 894.51 278.52 C 892.69 273.00 894.77 267.37 897.14 262.42 C 899.19 259.57 902.96 258.82 905.98 257.34 C 904.61 254.24 903.26 251.14 901.92 248.04 C 896.73 248.13 891.63 248.33 886.47 248.32 C 889.11 244.12 892.48 240.43 896.34 237.32 C 895.23 234.96 894.17 232.58 892.87 230.33 C 896.27 228.26 899.66 226.16 903.00 223.99 C 908.02 220.55 914.74 221.24 919.71 217.66 C 924.38 214.29 928.56 209.31 934.63 208.76 C 939.77 209.65 946.05 211.93 950.11 207.21 Z" />
</g>
<g id="#dfef9fff">
<path fill="#dfef9f" opacity="1.00" d=" M 698.35 207.30 C 700.83 204.40 704.86 203.66 708.48 203.41 C 715.17 202.35 721.30 205.69 727.82 206.34 C 732.75 207.35 737.91 207.88 742.54 210.02 C 741.36 215.30 739.54 220.46 736.82 225.15 C 746.09 230.62 746.68 242.36 743.89 251.70 C 748.12 256.70 748.62 263.03 747.05 269.11 C 749.18 269.99 751.33 270.84 753.49 271.69 C 752.82 275.32 751.03 278.73 747.54 280.35 C 750.85 283.77 754.01 287.33 757.22 290.87 C 755.06 296.06 752.83 305.17 745.36 303.66 C 740.82 300.72 741.32 293.94 739.04 289.37 C 735.46 291.63 731.84 293.93 728.65 296.72 C 726.49 300.29 727.49 304.76 727.76 308.71 C 725.21 315.14 720.11 320.14 717.56 326.58 C 715.11 332.70 709.62 336.68 704.98 341.07 C 703.72 333.93 699.82 327.63 698.34 320.57 C 697.06 315.69 703.35 312.58 702.41 307.72 C 701.68 304.43 699.96 300.05 695.89 300.30 C 685.66 300.18 674.86 300.96 665.27 296.60 C 662.72 294.94 661.71 291.83 660.20 289.33 C 652.02 293.05 643.10 294.44 634.23 293.14 C 636.35 299.98 639.55 306.57 640.50 313.71 C 639.86 318.17 636.67 322.04 636.76 326.66 C 637.29 331.03 638.98 335.17 639.98 339.46 C 637.17 338.38 633.74 337.45 633.46 333.67 C 625.75 314.04 619.38 293.89 611.94 274.16 C 610.34 271.07 613.71 268.18 616.64 268.07 C 624.63 268.36 630.82 260.87 639.06 262.61 C 640.12 259.38 640.97 256.07 642.10 252.86 C 643.71 248.43 648.52 246.46 652.24 244.18 C 655.15 242.73 658.22 244.77 661.08 245.42 C 666.21 238.45 676.51 240.34 682.04 234.00 C 684.36 231.26 685.28 227.69 686.54 224.39 C 688.73 217.68 694.12 212.72 698.35 207.30 M 700.39 268.39 C 699.09 269.61 701.20 271.75 702.43 270.43 C 703.74 269.20 701.61 267.09 700.39 268.39 Z" />
</g>
<g id="#1f6fdffe">
<path fill="#1f6fdf" opacity="1.00" d=" M 851.84 237.88 C 856.67 229.72 860.05 220.78 864.66 212.48 C 869.22 216.21 873.18 220.69 878.27 223.76 C 882.79 226.66 888.20 227.70 892.87 230.33 C 894.17 232.58 895.23 234.96 896.34 237.32 C 892.48 240.43 889.11 244.12 886.47 248.32 C 891.63 248.33 896.73 248.13 901.92 248.04 C 903.26 251.14 904.61 254.24 905.98 257.34 C 902.96 258.82 899.19 259.57 897.14 262.42 C 894.77 267.37 892.69 273.00 894.51 278.52 C 895.52 285.29 899.58 291.16 900.86 297.84 C 900.14 305.29 892.52 308.36 886.93 311.70 C 881.62 315.63 878.64 321.93 872.96 325.47 C 861.58 319.43 847.83 321.03 836.75 314.28 C 831.49 311.17 830.38 304.46 828.35 299.23 C 826.98 294.94 822.81 292.68 819.34 290.26 C 819.25 289.77 819.06 288.79 818.97 288.30 C 822.32 286.46 825.72 284.65 829.08 282.81 C 828.67 280.39 828.03 277.89 827.67 275.50 C 823.50 272.36 819.36 269.19 815.33 265.89 C 818.41 263.94 821.47 261.97 824.57 260.03 C 823.83 258.16 823.10 256.29 822.41 254.41 C 825.66 251.20 828.80 247.88 831.76 244.39 C 836.33 237.84 845.74 241.53 851.84 237.88 Z" />
</g>
<g id="#1fafdfff">
<path fill="#1fafdf" opacity="1.00" d=" M 999.00 230.49 C 1000.50 226.30 999.42 221.70 999.99 217.35 C 1003.57 219.18 1007.19 221.02 1010.88 222.66 C 1012.98 220.61 1014.77 217.47 1017.95 217.10 C 1021.18 217.39 1026.17 216.05 1028.41 219.44 C 1032.20 224.84 1033.51 231.48 1036.76 237.16 C 1039.35 240.82 1044.15 241.60 1048.04 243.26 C 1048.59 247.70 1048.81 252.20 1050.03 256.53 C 1051.65 259.49 1055.25 261.30 1055.68 264.91 C 1056.56 272.30 1059.39 279.19 1062.51 285.88 C 1059.43 290.08 1056.34 294.27 1053.64 298.71 C 1049.44 300.12 1045.18 301.40 1041.24 303.44 C 1037.48 305.30 1036.22 309.62 1034.44 313.08 C 1027.91 310.85 1020.90 310.24 1014.07 311.00 C 1003.89 312.20 997.52 301.42 988.09 299.60 C 985.02 299.31 981.93 300.02 978.92 300.34 C 974.81 293.96 970.46 287.75 966.43 281.32 C 968.64 278.63 970.43 275.56 970.72 271.97 C 972.98 260.16 979.21 249.20 988.01 241.02 C 991.52 237.36 996.01 234.63 999.00 230.49 Z" />
</g>
<g id="#dfaf5fff">
<path fill="#dfaf5f" opacity="1.00" d=" M 794.48 277.58 C 802.42 274.73 802.30 264.76 807.82 259.36 C 810.35 261.49 812.80 263.73 815.33 265.89 C 819.36 269.19 823.50 272.36 827.67 275.50 C 828.03 277.89 828.67 280.39 829.08 282.81 C 825.72 284.65 822.32 286.46 818.97 288.30 C 819.06 288.79 819.25 289.77 819.34 290.26 C 822.81 292.68 826.98 294.94 828.35 299.23 C 830.38 304.46 831.49 311.17 836.75 314.28 C 847.83 321.03 861.58 319.43 872.96 325.47 C 877.38 333.77 888.24 335.19 892.61 343.46 C 894.99 347.42 899.00 351.69 896.13 356.49 C 890.70 353.42 883.90 355.26 880.10 359.98 C 877.39 364.29 876.46 369.85 872.60 373.43 C 870.35 375.09 867.57 375.83 865.05 376.97 C 863.42 374.94 861.83 372.92 860.23 370.90 C 861.88 368.20 863.51 365.50 865.18 362.80 C 862.80 360.95 860.59 358.62 857.63 357.77 C 851.88 357.21 846.08 360.58 840.47 358.39 C 836.16 356.66 830.96 356.49 826.93 358.98 C 821.12 363.09 817.03 369.32 810.71 372.74 C 805.80 369.86 800.09 371.05 794.87 372.18 C 789.43 367.79 782.41 364.16 779.24 357.64 C 778.17 351.47 783.09 346.23 784.51 340.44 C 777.20 341.05 770.10 342.71 762.98 344.21 C 759.42 342.68 757.46 338.84 754.53 336.42 C 750.04 331.74 742.08 332.16 738.64 326.30 C 735.06 320.40 731.16 314.71 727.76 308.71 C 727.49 304.76 726.49 300.29 728.65 296.72 C 731.84 293.93 735.46 291.63 739.04 289.37 C 741.32 293.94 740.82 300.72 745.36 303.66 C 752.83 305.17 755.06 296.06 757.22 290.87 C 763.48 288.50 768.20 283.60 773.45 279.64 C 777.44 277.11 782.21 276.31 786.69 275.00 C 787.12 276.66 787.56 278.33 788.00 280.00 C 790.19 279.29 792.37 278.53 794.48 277.58 Z" />
</g>
<g id="#202f5fff">
<path fill="#202f5f" opacity="1.00" d=" M 700.39 268.39 C 701.61 267.09 703.74 269.20 702.43 270.43 C 701.20 271.75 699.09 269.61 700.39 268.39 Z" />
</g>
<g id="#9faf5fff">
<path fill="#9faf5f" opacity="1.00" d=" M 1172.80 281.71 C 1174.90 275.49 1181.39 271.67 1187.90 272.31 C 1194.29 271.63 1200.40 274.73 1204.91 279.08 C 1210.73 285.03 1219.87 285.52 1225.93 291.11 C 1228.69 293.33 1227.46 297.29 1227.14 300.28 C 1226.22 305.41 1225.16 312.41 1230.58 315.49 C 1233.68 318.91 1238.48 317.56 1242.09 316.00 C 1246.94 313.81 1251.80 311.32 1255.60 307.50 C 1262.63 308.63 1270.84 314.60 1277.53 309.61 C 1285.04 304.68 1283.25 293.97 1288.46 287.46 C 1290.30 285.97 1292.62 283.46 1295.19 284.87 C 1301.91 287.76 1308.66 290.75 1315.85 292.36 C 1319.27 293.18 1322.75 295.04 1324.51 298.21 C 1325.81 302.31 1326.25 307.22 1329.78 310.21 C 1335.89 315.73 1342.53 320.84 1349.98 324.45 C 1353.67 318.97 1360.78 319.56 1366.64 320.50 C 1368.89 324.80 1369.80 329.92 1373.82 333.16 C 1379.58 339.06 1388.48 337.30 1395.71 336.05 C 1394.82 341.86 1393.76 347.73 1390.90 352.95 C 1387.17 359.90 1385.00 367.61 1380.76 374.30 C 1381.09 371.91 1381.76 369.59 1382.41 367.28 C 1380.75 366.70 1379.10 366.12 1377.46 365.54 C 1376.80 363.17 1376.14 360.80 1375.50 358.43 C 1369.73 357.39 1364.01 356.21 1358.29 355.00 C 1356.15 359.18 1354.77 363.96 1351.39 367.36 C 1348.08 369.16 1343.91 367.48 1340.41 367.78 C 1337.74 369.52 1335.06 371.23 1332.28 372.78 C 1331.47 367.79 1330.72 362.79 1329.97 357.80 C 1318.31 353.31 1306.27 349.99 1294.34 346.36 C 1293.27 354.22 1293.93 362.18 1292.95 370.05 C 1292.48 373.77 1289.47 376.42 1287.56 379.43 C 1280.00 377.59 1272.13 376.39 1265.20 372.70 C 1260.11 370.04 1257.24 364.17 1251.56 362.54 C 1238.96 359.91 1225.94 359.88 1213.19 361.28 C 1204.55 362.10 1195.91 361.00 1187.41 359.56 C 1192.95 350.86 1200.01 341.79 1199.10 330.85 C 1198.18 319.09 1191.84 308.26 1183.11 300.50 C 1181.82 302.67 1180.56 304.87 1179.34 307.07 C 1175.23 306.84 1171.16 306.51 1167.09 306.04 C 1169.48 298.04 1170.17 289.63 1172.80 281.71 Z" />
</g>
<g id="#5fefdfff">
<path fill="#5fefdf" opacity="1.00" d=" M 954.31 287.30 C 956.82 282.97 961.84 281.84 966.43 281.32 C 970.46 287.75 974.81 293.96 978.92 300.34 C 981.93 300.02 985.02 299.31 988.09 299.60 C 997.52 301.42 1003.89 312.20 1014.07 311.00 C 1020.90 310.24 1027.91 310.85 1034.44 313.08 C 1041.13 317.38 1046.43 323.43 1052.42 328.59 C 1049.76 330.70 1047.13 332.84 1044.52 335.01 C 1050.33 344.54 1057.48 353.59 1059.27 364.97 C 1055.15 364.18 1051.78 361.87 1048.98 358.94 C 1044.23 354.15 1037.53 352.42 1031.26 350.54 C 1029.42 353.84 1027.54 357.12 1025.76 360.46 C 1030.92 363.03 1036.01 365.79 1041.16 368.41 C 1040.64 373.77 1037.41 378.06 1033.07 380.92 C 1026.19 386.11 1019.96 392.58 1016.44 400.54 C 1013.80 406.29 1012.95 412.63 1012.27 418.87 C 1009.06 419.57 1005.90 420.27 1002.73 421.05 C 996.00 411.96 987.37 404.54 979.38 396.61 C 970.18 388.56 959.62 382.34 949.62 375.39 C 944.97 379.31 942.00 384.63 942.35 390.88 C 938.86 391.60 935.39 392.35 931.95 393.21 C 931.77 391.00 931.58 388.79 931.49 386.58 C 932.33 375.47 927.66 364.76 920.90 356.15 C 917.87 351.76 913.47 348.35 911.06 343.56 C 911.02 341.20 912.07 339.00 912.73 336.78 C 917.18 337.36 921.75 339.09 926.26 338.07 C 930.52 336.19 932.90 331.84 935.62 328.28 C 932.68 325.78 929.67 323.36 926.79 320.80 C 929.21 317.51 931.64 314.23 934.14 310.99 C 940.46 302.74 948.50 295.97 954.31 287.30 Z" />
</g>
<g id="#df2fdfff">
<path fill="#df2fdf" opacity="1.00" d=" M 634.23 293.14 C 643.10 294.44 652.02 293.05 660.20 289.33 C 661.71 291.83 662.72 294.94 665.27 296.60 C 674.86 300.96 685.66 300.18 695.89 300.30 C 699.96 300.05 701.68 304.43 702.41 307.72 C 703.35 312.58 697.06 315.69 698.34 320.57 C 699.82 327.63 703.72 333.93 704.98 341.07 C 705.80 348.68 706.15 356.35 706.90 363.97 C 706.27 370.17 706.06 376.42 707.99 382.45 C 705.11 384.94 702.47 387.84 699.15 389.73 C 695.72 390.37 692.34 388.76 689.04 388.05 C 685.17 391.54 681.39 395.13 677.55 398.66 C 676.21 397.02 674.86 395.40 673.52 393.78 C 663.77 401.33 657.19 413.15 645.37 417.78 C 646.44 421.57 647.51 425.37 648.72 429.13 C 642.96 425.01 641.61 417.70 638.72 411.64 C 636.99 407.99 632.99 406.05 631.51 402.24 C 629.13 396.61 627.14 390.82 624.69 385.21 C 623.30 381.95 621.97 378.43 622.87 374.81 C 628.33 367.54 634.06 360.38 638.41 352.36 C 640.49 348.40 641.23 343.80 639.98 339.46 C 638.98 335.17 637.29 331.03 636.76 326.66 C 636.67 322.04 639.86 318.17 640.50 313.71 C 639.55 306.57 636.35 299.98 634.23 293.14 Z" />
</g>
<g id="#9f6f5fff">
<path fill="#9f6f5f" opacity="1.00" d=" M 1041.24 303.44 C 1045.18 301.40 1049.44 300.12 1053.64 298.71 C 1059.94 303.75 1065.66 310.38 1074.02 311.84 C 1083.29 312.99 1092.65 313.22 1101.97 313.82 C 1099.35 319.51 1097.04 325.80 1097.85 332.16 C 1098.90 335.66 1102.14 337.89 1104.56 340.45 C 1110.95 345.53 1115.11 352.63 1119.14 359.58 C 1111.30 369.54 1102.76 379.14 1092.03 386.07 C 1087.10 382.30 1082.40 377.32 1076.01 376.32 C 1071.47 377.70 1067.79 381.02 1063.65 383.28 C 1060.21 382.10 1056.79 380.87 1053.33 379.78 C 1051.41 381.83 1049.49 383.87 1047.60 385.94 C 1042.75 384.30 1037.92 382.56 1033.07 380.92 C 1037.41 378.06 1040.64 373.77 1041.16 368.41 C 1036.01 365.79 1030.92 363.03 1025.76 360.46 C 1027.54 357.12 1029.42 353.84 1031.26 350.54 C 1037.53 352.42 1044.23 354.15 1048.98 358.94 C 1051.78 361.87 1055.15 364.18 1059.27 364.97 C 1057.48 353.59 1050.33 344.54 1044.52 335.01 C 1047.13 332.84 1049.76 330.70 1052.42 328.59 C 1046.43 323.43 1041.13 317.38 1034.44 313.08 C 1036.22 309.62 1037.48 305.30 1041.24 303.44 Z" />
</g>
<g id="#9f6fdfff">
<path fill="#9f6fdf" opacity="1.00" d=" M 1179.34 307.07 C 1180.56 304.87 1181.82 302.67 1183.11 300.50 C 1191.84 308.26 1198.18 319.09 1199.10 330.85 C 1200.01 341.79 1192.95 350.86 1187.41 359.56 C 1176.73 372.39 1162.97 383.13 1156.04 398.70 C 1150.15 411.06 1148.23 424.81 1146.59 438.27 C 1146.47 446.51 1148.63 454.93 1145.62 462.94 C 1136.62 460.68 1127.23 459.27 1119.02 454.66 C 1116.93 449.76 1115.64 443.41 1109.86 441.48 C 1099.68 436.31 1088.32 434.04 1077.46 430.69 C 1078.06 424.36 1080.51 416.60 1075.79 411.22 C 1070.97 405.34 1066.85 398.82 1064.13 391.70 C 1062.99 389.03 1063.53 386.08 1063.65 383.28 C 1067.79 381.02 1071.47 377.70 1076.01 376.32 C 1082.40 377.32 1087.10 382.30 1092.03 386.07 C 1102.76 379.14 1111.30 369.54 1119.14 359.58 C 1115.11 352.63 1110.95 345.53 1104.56 340.45 C 1102.14 337.89 1098.90 335.66 1097.85 332.16 C 1097.04 325.80 1099.35 319.51 1101.97 313.82 C 1105.15 309.22 1109.48 305.59 1113.90 302.23 C 1115.69 305.00 1117.58 307.72 1119.83 310.15 C 1120.48 310.82 1121.26 311.31 1122.17 311.61 C 1128.62 311.13 1133.91 307.17 1139.73 304.83 C 1148.84 302.91 1158.01 304.99 1167.09 306.04 C 1171.16 306.51 1175.23 306.84 1179.34 307.07 M 1138.17 397.42 C 1139.38 397.90 1140.61 398.38 1141.85 398.86 C 1142.50 398.18 1143.17 397.51 1143.86 396.85 C 1143.37 395.62 1142.89 394.39 1142.42 393.17 C 1140.93 394.51 1139.51 395.93 1138.17 397.42 Z" />
</g>
<g id="#5fafdfff">
<path fill="#5fafdf" opacity="1.00" d=" M 916.62 305.51 C 922.85 302.56 928.68 308.65 934.14 310.99 C 931.64 314.23 929.21 317.51 926.79 320.80 C 929.67 323.36 932.68 325.78 935.62 328.28 C 932.90 331.84 930.52 336.19 926.26 338.07 C 921.75 339.09 917.18 337.36 912.73 336.78 C 912.07 339.00 911.02 341.20 911.06 343.56 C 913.47 348.35 917.87 351.76 920.90 356.15 C 927.66 364.76 932.33 375.47 931.49 386.58 C 927.07 390.00 923.32 394.53 922.37 400.19 C 920.97 407.89 914.28 412.78 910.26 419.06 C 908.13 423.78 908.03 429.44 904.57 433.57 C 901.22 437.67 900.80 443.09 899.35 447.98 C 896.01 446.39 892.66 444.81 889.31 443.28 C 887.57 445.52 886.11 448.75 882.88 448.95 C 877.51 449.63 872.40 451.70 868.12 455.02 C 868.39 451.09 868.51 447.16 868.75 443.24 C 865.78 443.47 862.82 443.69 859.87 443.92 C 859.04 441.07 858.11 438.26 857.12 435.48 C 849.47 439.43 841.70 443.33 834.79 448.49 C 830.20 439.05 825.68 429.56 820.50 420.43 C 814.57 409.64 801.40 406.45 793.93 397.10 C 792.41 395.15 791.08 393.07 789.76 390.99 C 792.03 384.88 793.58 378.56 794.87 372.18 C 800.09 371.05 805.80 369.86 810.71 372.74 C 817.03 369.32 821.12 363.09 826.93 358.98 C 830.96 356.49 836.16 356.66 840.47 358.39 C 846.08 360.58 851.88 357.21 857.63 357.77 C 860.59 358.62 862.80 360.95 865.18 362.80 C 863.51 365.50 861.88 368.20 860.23 370.90 C 861.83 372.92 863.42 374.94 865.05 376.97 C 867.57 375.83 870.35 375.09 872.60 373.43 C 876.46 369.85 877.39 364.29 880.10 359.98 C 883.90 355.26 890.70 353.42 896.13 356.49 C 899.00 351.69 894.99 347.42 892.61 343.46 C 888.24 335.19 877.38 333.77 872.96 325.47 C 878.64 321.93 881.62 315.63 886.93 311.70 C 893.51 316.05 899.80 320.82 906.34 325.23 C 909.74 318.67 912.01 311.34 916.62 305.51 M 848.60 400.72 C 850.15 401.51 851.71 402.30 853.28 403.09 C 853.32 400.89 853.32 398.70 853.25 396.51 C 851.64 397.85 850.08 399.24 848.60 400.72 Z" />
</g>
<g id="#8f0f00ff">
<path fill="#8f0f00" opacity="1.00" d=" M 717.56 326.58 C 720.11 320.14 725.21 315.14 727.76 308.71 C 731.16 314.71 735.06 320.40 738.64 326.30 C 742.08 332.16 750.04 331.74 754.53 336.42 C 757.46 338.84 759.42 342.68 762.98 344.21 C 770.10 342.71 777.20 341.05 784.51 340.44 C 783.09 346.23 778.17 351.47 779.24 357.64 C 782.41 364.16 789.43 367.79 794.87 372.18 C 793.58 378.56 792.03 384.88 789.76 390.99 C 783.93 392.85 778.16 394.91 772.41 397.02 C 770.04 395.32 767.75 393.39 765.00 392.37 C 762.30 393.48 760.10 395.46 757.87 397.28 C 759.66 400.60 764.51 403.47 763.47 407.77 C 761.72 411.06 759.00 413.89 755.91 415.98 C 753.30 417.72 750.11 416.57 747.34 415.99 C 738.99 413.95 730.35 413.95 721.86 412.98 C 717.64 412.52 713.19 409.61 709.14 412.08 C 702.32 415.91 695.76 420.72 687.63 421.24 C 682.04 421.65 678.13 425.78 674.84 429.96 C 678.54 439.41 681.71 449.07 685.31 458.56 C 682.33 459.85 678.72 461.55 675.69 459.39 C 670.52 455.43 664.06 454.37 658.40 451.64 C 654.07 444.70 652.10 436.55 648.72 429.13 C 647.51 425.37 646.44 421.57 645.37 417.78 C 657.19 413.15 663.77 401.33 673.52 393.78 C 674.86 395.40 676.21 397.02 677.55 398.66 C 681.39 395.13 685.17 391.54 689.04 388.05 C 692.34 388.76 695.72 390.37 699.15 389.73 C 702.47 387.84 705.11 384.94 707.99 382.45 C 706.06 376.42 706.27 370.17 706.90 363.97 C 706.15 356.35 705.80 348.68 704.98 341.07 C 709.62 336.68 715.11 332.70 717.56 326.58 Z" />
</g>
<g id="#9fafdfff">
<path fill="#9fafdf" opacity="1.00" d=" M 1294.34 346.36 C 1306.27 349.99 1318.31 353.31 1329.97 357.80 C 1330.72 362.79 1331.47 367.79 1332.28 372.78 C 1335.06 371.23 1337.74 369.52 1340.41 367.78 C 1343.91 367.48 1348.08 369.16 1351.39 367.36 C 1354.77 363.96 1356.15 359.18 1358.29 355.00 C 1364.01 356.21 1369.73 357.39 1375.50 358.43 C 1376.14 360.80 1376.80 363.17 1377.46 365.54 C 1379.10 366.12 1380.75 366.70 1382.41 367.28 C 1381.76 369.59 1381.09 371.91 1380.76 374.30 C 1383.35 380.08 1390.73 383.77 1390.53 390.63 C 1385.55 402.91 1380.25 415.14 1373.81 426.76 C 1361.98 449.67 1350.66 472.84 1338.73 495.71 C 1331.01 508.30 1334.96 524.05 1332.90 537.96 C 1343.32 543.10 1352.94 549.67 1361.90 557.06 C 1365.78 560.39 1370.97 563.21 1372.55 568.45 C 1373.66 578.54 1370.55 588.75 1365.41 597.38 C 1353.28 617.17 1340.30 636.46 1328.58 656.48 C 1324.06 669.95 1317.93 682.88 1309.34 694.27 C 1309.49 692.58 1309.67 690.89 1309.84 689.22 C 1296.31 678.94 1282.00 669.60 1266.52 662.53 C 1256.79 656.02 1244.32 657.15 1233.26 658.26 C 1217.43 667.85 1214.49 689.63 1197.99 698.39 C 1200.53 693.00 1202.98 687.57 1205.15 682.03 C 1207.72 675.47 1206.02 668.22 1205.72 661.46 C 1203.72 633.09 1203.74 604.61 1203.77 576.19 C 1203.89 572.13 1207.07 569.03 1207.87 565.17 C 1208.08 560.17 1207.55 555.20 1207.00 550.25 C 1204.42 530.93 1202.17 511.58 1199.75 492.24 C 1197.81 491.64 1195.88 491.04 1193.96 490.46 C 1195.41 485.38 1196.84 480.29 1198.26 475.21 C 1209.03 473.96 1219.97 473.26 1230.49 470.58 C 1232.64 464.63 1233.36 458.25 1234.13 452.00 C 1237.10 448.76 1240.21 445.54 1244.07 443.34 C 1247.14 441.43 1251.00 439.91 1252.39 436.26 C 1254.19 431.17 1255.27 425.86 1256.59 420.64 C 1259.54 419.95 1262.68 419.32 1265.69 418.67 C 1265.72 416.84 1265.77 415.02 1265.84 413.20 C 1262.98 411.42 1260.10 409.62 1257.26 407.86 C 1257.48 406.40 1257.92 403.48 1258.14 402.02 C 1269.15 400.90 1280.09 399.06 1291.11 398.02 C 1290.34 391.75 1288.99 385.57 1287.56 379.43 C 1289.47 376.42 1292.48 373.77 1292.95 370.05 C 1293.93 362.18 1293.27 354.22 1294.34 346.36 Z" />
</g>
<g id="#5f2fdfff">
<path fill="#5f2fdf" opacity="1.00" d=" M 1156.04 398.70 C 1162.97 383.13 1176.73 372.39 1187.41 359.56 C 1195.91 361.00 1204.55 362.10 1213.19 361.28 C 1225.94 359.88 1238.96 359.91 1251.56 362.54 C 1257.24 364.17 1260.11 370.04 1265.20 372.70 C 1272.13 376.39 1280.00 377.59 1287.56 379.43 C 1288.99 385.57 1290.34 391.75 1291.11 398.02 C 1280.09 399.06 1269.15 400.90 1258.14 402.02 C 1257.92 403.48 1257.48 406.40 1257.26 407.86 C 1260.10 409.62 1262.98 411.42 1265.84 413.20 C 1265.77 415.02 1265.72 416.84 1265.69 418.67 C 1262.68 419.32 1259.54 419.95 1256.59 420.64 C 1255.27 425.86 1254.19 431.17 1252.39 436.26 C 1251.00 439.91 1247.14 441.43 1244.07 443.34 C 1240.21 445.54 1237.10 448.76 1234.13 452.00 C 1226.39 450.45 1218.61 448.42 1210.66 448.59 C 1204.45 449.14 1198.24 449.74 1192.04 450.20 C 1187.19 439.98 1184.03 428.41 1175.65 420.33 C 1168.88 413.33 1162.37 406.09 1156.04 398.70 Z" />
</g>
<g id="#5fef5fff">
<path fill="#5fef5f" opacity="1.00" d=" M 942.35 390.88 C 942.00 384.63 944.97 379.31 949.62 375.39 C 959.62 382.34 970.18 388.56 979.38 396.61 C 987.37 404.54 996.00 411.96 1002.73 421.05 C 998.22 425.56 993.32 429.67 988.12 433.37 C 982.26 429.05 975.97 424.81 968.50 424.14 C 970.12 429.03 971.74 434.13 970.82 439.36 C 970.25 443.92 966.79 447.74 966.76 452.36 C 968.22 456.98 972.31 460.12 975.44 463.65 C 974.26 465.31 973.09 466.97 971.94 468.65 C 969.78 469.54 967.62 470.41 965.46 471.26 C 964.02 475.62 963.47 480.35 961.25 484.42 C 959.30 486.99 955.96 487.88 953.24 489.38 C 953.38 486.04 953.54 482.71 953.70 479.37 C 950.16 480.12 946.45 481.09 944.05 484.02 C 939.62 489.09 933.02 491.05 927.10 493.74 C 924.57 491.21 922.14 488.59 919.73 485.97 C 908.90 495.54 898.49 505.57 887.44 514.89 C 886.50 508.72 885.84 502.19 881.91 497.07 C 874.19 485.71 868.71 473.03 860.74 461.84 C 863.12 459.49 865.45 457.05 868.12 455.02 C 872.40 451.70 877.51 449.63 882.88 448.95 C 886.11 448.75 887.57 445.52 889.31 443.28 C 892.66 444.81 896.01 446.39 899.35 447.98 C 900.80 443.09 901.22 437.67 904.57 433.57 C 908.03 429.44 908.13 423.78 910.26 419.06 C 914.28 412.78 920.97 407.89 922.37 400.19 C 923.32 394.53 927.07 390.00 931.49 386.58 C 931.58 388.79 931.77 391.00 931.95 393.21 C 935.39 392.35 938.86 391.60 942.35 390.88 M 911.59 455.48 C 913.13 455.58 914.67 455.70 916.22 455.83 C 915.78 454.42 915.33 453.02 914.89 451.63 C 913.78 452.91 912.68 454.19 911.59 455.48 Z" />
</g>
<g id="#5f2f5fff">
<path fill="#5f2f5f" opacity="1.00" d=" M 1053.33 379.78 C 1056.79 380.87 1060.21 382.10 1063.65 383.28 C 1063.53 386.08 1062.99 389.03 1064.13 391.70 C 1066.85 398.82 1070.97 405.34 1075.79 411.22 C 1080.51 416.60 1078.06 424.36 1077.46 430.69 C 1088.32 434.04 1099.68 436.31 1109.86 441.48 C 1115.64 443.41 1116.93 449.76 1119.02 454.66 C 1115.70 458.70 1114.33 463.80 1115.56 468.94 C 1114.80 469.58 1114.06 470.23 1113.33 470.89 C 1109.94 469.19 1107.16 465.39 1103.22 465.36 C 1096.71 467.19 1091.30 471.55 1085.10 474.16 C 1071.69 480.01 1061.02 491.84 1046.20 494.20 C 1044.12 494.79 1041.36 494.95 1040.34 497.17 C 1038.20 502.00 1036.98 507.18 1035.56 512.26 C 1033.20 511.58 1030.87 510.84 1028.56 510.05 C 1026.48 504.24 1025.27 498.04 1022.13 492.67 C 1019.31 488.92 1014.48 487.52 1010.61 485.21 C 1006.45 488.40 1002.90 494.07 997.23 494.49 C 990.96 493.11 983.60 490.50 981.00 484.05 C 980.12 482.17 979.40 480.23 978.66 478.31 C 980.16 476.72 981.67 475.14 983.16 473.55 C 979.41 471.94 975.69 470.26 971.94 468.65 C 973.09 466.97 974.26 465.31 975.44 463.65 C 972.31 460.12 968.22 456.98 966.76 452.36 C 966.79 447.74 970.25 443.92 970.82 439.36 C 971.74 434.13 970.12 429.03 968.50 424.14 C 975.97 424.81 982.26 429.05 988.12 433.37 C 993.32 429.67 998.22 425.56 1002.73 421.05 C 1005.90 420.27 1009.06 419.57 1012.27 418.87 C 1012.95 412.63 1013.80 406.29 1016.44 400.54 C 1019.96 392.58 1026.19 386.11 1033.07 380.92 C 1037.92 382.56 1042.75 384.30 1047.60 385.94 C 1049.49 383.87 1051.41 381.83 1053.33 379.78 Z" />
</g>
<g id="#dfaf5ffe">
<path fill="#dfaf5f" opacity="1.00" d=" M 772.41 397.02 C 778.16 394.91 783.93 392.85 789.76 390.99 C 791.08 393.07 792.41 395.15 793.93 397.10 C 801.40 406.45 814.57 409.64 820.50 420.43 C 825.68 429.56 830.20 439.05 834.79 448.49 C 821.22 461.43 805.02 470.98 790.20 482.32 C 785.83 485.08 786.61 491.53 782.62 494.61 C 772.52 499.75 760.88 498.67 750.01 500.63 C 734.80 503.59 719.23 502.34 703.83 502.18 C 705.45 494.49 709.26 487.56 711.61 480.17 C 707.29 475.71 701.80 472.79 696.93 469.04 C 692.64 465.89 691.50 458.64 685.31 458.56 C 681.71 449.07 678.54 439.41 674.84 429.96 C 678.13 425.78 682.04 421.65 687.63 421.24 C 695.76 420.72 702.32 415.91 709.14 412.08 C 713.19 409.61 717.64 412.52 721.86 412.98 C 730.35 413.95 738.99 413.95 747.34 415.99 C 750.11 416.57 753.30 417.72 755.91 415.98 C 759.00 413.89 761.72 411.06 763.47 407.77 C 764.51 403.47 759.66 400.60 757.87 397.28 C 760.10 395.46 762.30 393.48 765.00 392.37 C 767.75 393.39 770.04 395.32 772.41 397.02 Z" />
</g>
<g id="#1fefdfff">
<path fill="#1fefdf" opacity="1.00" d=" M 1138.17 397.42 C 1139.51 395.93 1140.93 394.51 1142.42 393.17 C 1142.89 394.39 1143.37 395.62 1143.86 396.85 C 1143.17 397.51 1142.50 398.18 1141.85 398.86 C 1140.61 398.38 1139.38 397.90 1138.17 397.42 Z" />
</g>
<g id="#dfafdfff">
<path fill="#dfafdf" opacity="1.00" d=" M 848.60 400.72 C 850.08 399.24 851.64 397.85 853.25 396.51 C 853.32 398.70 853.32 400.89 853.28 403.09 C 851.71 402.30 850.15 401.51 848.60 400.72 Z" />
</g>
<g id="#0f0f00fe">
<path fill="#0f0f00" opacity="1.00" d=" M 1156.04 398.70 C 1162.37 406.09 1168.88 413.33 1175.65 420.33 C 1184.03 428.41 1187.19 439.98 1192.04 450.20 C 1198.24 449.74 1204.45 449.14 1210.66 448.59 C 1218.61 448.42 1226.39 450.45 1234.13 452.00 C 1233.36 458.25 1232.64 464.63 1230.49 470.58 C 1219.97 473.26 1209.03 473.96 1198.26 475.21 C 1196.84 480.29 1195.41 485.38 1193.96 490.46 C 1195.88 491.04 1197.81 491.64 1199.75 492.24 C 1202.17 511.58 1204.42 530.93 1207.00 550.25 C 1199.72 550.15 1192.45 549.75 1185.21 549.24 C 1183.75 556.36 1183.04 563.74 1180.47 570.59 C 1179.48 573.15 1177.48 576.11 1174.39 575.92 C 1172.27 575.63 1170.42 574.40 1168.51 573.55 C 1164.67 575.70 1160.85 577.90 1156.96 579.98 C 1152.20 582.12 1147.33 584.32 1142.16 585.15 C 1133.32 586.04 1126.68 577.26 1117.80 578.32 C 1112.28 579.12 1106.72 579.51 1101.16 579.30 C 1100.20 571.80 1097.62 564.42 1097.88 556.83 C 1100.32 550.21 1107.24 545.97 1108.95 538.93 C 1111.14 530.35 1112.49 521.56 1115.05 513.08 C 1117.56 503.96 1121.69 495.38 1126.15 487.08 C 1129.73 481.48 1135.88 478.17 1140.22 473.24 C 1142.50 470.09 1144.31 466.60 1145.62 462.94 C 1148.63 454.93 1146.47 446.51 1146.59 438.27 C 1148.23 424.81 1150.15 411.06 1156.04 398.70 Z" />
</g>
<g id="#9f2fdfff">
<path fill="#9f2fdf" opacity="1.00" d=" M 834.79 448.49 C 841.70 443.33 849.47 439.43 857.12 435.48 C 858.11 438.26 859.04 441.07 859.87 443.92 C 862.82 443.69 865.78 443.47 868.75 443.24 C 868.51 447.16 868.39 451.09 868.12 455.02 C 865.45 457.05 863.12 459.49 860.74 461.84 C 868.71 473.03 874.19 485.71 881.91 497.07 C 885.84 502.19 886.50 508.72 887.44 514.89 L 887.55 515.54 C 881.59 516.80 874.45 516.10 869.77 520.73 C 862.77 526.48 859.28 535.08 857.59 543.74 C 854.68 543.99 851.68 544.81 848.81 544.03 C 835.63 537.39 825.10 526.61 811.93 519.99 C 809.07 519.22 805.67 516.48 802.88 518.74 C 793.81 524.89 788.24 534.92 779.33 541.22 C 770.75 546.98 757.61 544.01 751.57 553.62 C 746.24 561.57 739.10 568.94 737.23 578.62 C 737.17 585.35 738.23 592.08 737.40 598.81 C 732.05 596.67 726.14 595.29 720.37 596.45 C 716.25 597.40 712.73 599.93 709.04 601.87 C 705.62 600.35 701.51 598.83 700.49 594.80 C 698.43 587.41 693.39 580.93 693.40 573.02 C 692.87 564.30 691.85 554.66 698.53 547.77 C 697.36 539.95 694.04 532.34 694.61 524.36 C 696.14 516.60 698.10 508.62 702.84 502.12 L 703.83 502.18 C 719.23 502.34 734.80 503.59 750.01 500.63 C 760.88 498.67 772.52 499.75 782.62 494.61 C 786.61 491.53 785.83 485.08 790.20 482.32 C 805.02 470.98 821.22 461.43 834.79 448.49 Z" />
</g>
<g id="#d3ef5fff">
<path fill="#d3ef5f" opacity="1.00" d=" M 911.59 455.48 C 912.68 454.19 913.78 452.91 914.89 451.63 C 915.33 453.02 915.78 454.42 916.22 455.83 C 914.67 455.70 913.13 455.58 911.59 455.48 Z" />
</g>
<g id="#df6fdfff">
<path fill="#df6fdf" opacity="1.00" d=" M 1119.02 454.66 C 1127.23 459.27 1136.62 460.68 1145.62 462.94 C 1144.31 466.60 1142.50 470.09 1140.22 473.24 C 1135.88 478.17 1129.73 481.48 1126.15 487.08 C 1121.69 495.38 1117.56 503.96 1115.05 513.08 C 1112.49 521.56 1111.14 530.35 1108.95 538.93 C 1107.24 545.97 1100.32 550.21 1097.88 556.83 C 1097.62 564.42 1100.20 571.80 1101.16 579.30 C 1095.89 587.63 1091.90 596.86 1085.34 604.31 C 1079.77 610.87 1073.81 617.12 1068.69 624.05 C 1059.91 622.26 1051.05 621.12 1042.17 620.02 C 1031.83 618.77 1021.92 615.45 1011.92 612.72 C 1011.81 609.51 1011.87 606.41 1011.84 603.25 C 1008.09 600.26 1004.38 597.31 1000.76 594.20 C 1004.52 591.16 1009.51 588.74 1011.34 583.99 C 1012.62 577.08 1012.66 570.00 1013.66 563.05 C 1014.15 557.60 1015.66 551.95 1014.26 546.52 C 1011.47 543.32 1007.26 541.75 1003.79 539.41 C 1004.92 537.06 1005.84 534.55 1007.57 532.56 C 1011.28 529.41 1017.61 530.95 1020.40 526.48 C 1023.77 521.36 1025.90 515.55 1028.56 510.05 C 1030.87 510.84 1033.20 511.58 1035.56 512.26 C 1036.98 507.18 1038.20 502.00 1040.34 497.17 C 1041.36 494.95 1044.12 494.79 1046.20 494.20 C 1061.02 491.84 1071.69 480.01 1085.10 474.16 C 1091.30 471.55 1096.71 467.19 1103.22 465.36 C 1107.16 465.39 1109.94 469.19 1113.33 470.89 C 1114.06 470.23 1114.80 469.58 1115.56 468.94 C 1114.33 463.80 1115.70 458.70 1119.02 454.66 Z" />
</g>
<g id="#5f6f5fff">
<path fill="#5f6f5f" opacity="1.00" d=" M 965.46 471.26 C 967.62 470.41 969.78 469.54 971.94 468.65 C 975.69 470.26 979.41 471.94 983.16 473.55 C 981.67 475.14 980.16 476.72 978.66 478.31 C 979.40 480.23 980.12 482.17 981.00 484.05 C 983.60 490.50 990.96 493.11 997.23 494.49 C 1002.90 494.07 1006.45 488.40 1010.61 485.21 C 1014.48 487.52 1019.31 488.92 1022.13 492.67 C 1025.27 498.04 1026.48 504.24 1028.56 510.05 C 1025.90 515.55 1023.77 521.36 1020.40 526.48 C 1017.61 530.95 1011.28 529.41 1007.57 532.56 C 1005.84 534.55 1004.92 537.06 1003.79 539.41 C 1007.26 541.75 1011.47 543.32 1014.26 546.52 C 1015.66 551.95 1014.15 557.60 1013.66 563.05 C 1012.66 570.00 1012.62 577.08 1011.34 583.99 C 1009.51 588.74 1004.52 591.16 1000.76 594.20 C 1004.38 597.31 1008.09 600.26 1011.84 603.25 C 1011.87 606.41 1011.81 609.51 1011.92 612.72 C 999.48 609.86 987.39 605.75 975.27 601.82 C 966.56 599.44 962.42 590.30 955.22 585.55 C 949.07 593.31 945.86 602.73 941.28 611.38 C 938.62 616.11 933.02 617.67 928.26 619.26 C 927.12 617.87 925.98 616.50 924.86 615.12 C 926.00 612.30 927.33 609.58 928.62 606.84 C 922.50 600.61 914.45 596.95 906.20 594.42 C 905.28 591.55 904.71 588.39 903.08 585.86 C 899.18 581.89 894.80 578.48 890.50 574.98 C 890.66 570.91 892.19 566.51 890.28 562.68 C 887.31 558.78 882.31 557.40 878.04 555.45 C 876.65 551.75 874.48 547.77 875.73 543.73 C 878.70 536.05 883.57 529.30 888.92 523.11 C 888.47 520.60 887.91 518.02 887.55 515.54 L 887.44 514.89 C 898.49 505.57 908.90 495.54 919.73 485.97 C 922.14 488.59 924.57 491.21 927.10 493.74 C 933.02 491.05 939.62 489.09 944.05 484.02 C 946.45 481.09 950.16 480.12 953.70 479.37 C 953.54 482.71 953.38 486.04 953.24 489.38 C 955.96 487.88 959.30 486.99 961.25 484.42 C 963.47 480.35 964.02 475.62 965.46 471.26 Z" />
</g>
<g id="#9fef5fff">
<path fill="#9fef5f" opacity="1.00" d=" M 869.77 520.73 C 874.45 516.10 881.59 516.80 887.55 515.54 C 887.91 518.02 888.47 520.60 888.92 523.11 C 883.57 529.30 878.70 536.05 875.73 543.73 C 874.48 547.77 876.65 551.75 878.04 555.45 C 872.93 558.48 867.54 561.47 864.41 566.74 C 867.97 567.22 871.55 567.46 875.12 567.81 C 874.96 570.27 874.30 572.84 875.02 575.27 C 878.27 579.01 882.73 581.52 886.71 584.45 C 885.65 588.52 884.66 592.59 883.77 596.71 C 880.20 595.89 876.37 594.05 872.74 595.56 C 868.68 597.13 865.01 599.53 861.19 601.58 C 855.96 604.22 851.02 607.48 845.52 609.54 C 841.29 611.25 837.40 607.84 833.75 606.20 C 827.72 609.31 821.63 612.33 815.86 615.90 C 810.41 619.19 805.08 623.18 798.61 624.19 C 799.35 618.12 798.34 612.01 794.04 607.32 C 790.33 612.80 786.95 618.76 781.19 622.39 C 781.62 626.98 781.94 631.65 782.96 636.17 C 775.66 630.68 768.08 623.69 758.32 623.87 C 754.12 624.22 749.02 628.54 745.44 624.63 C 743.13 621.13 742.43 616.88 740.94 613.02 C 739.64 608.35 737.16 603.77 737.40 598.81 C 738.23 592.08 737.17 585.35 737.23 578.62 C 739.10 568.94 746.24 561.57 751.57 553.62 C 757.61 544.01 770.75 546.98 779.33 541.22 C 788.24 534.92 793.81 524.89 802.88 518.74 C 805.67 516.48 809.07 519.22 811.93 519.99 C 825.10 526.61 835.63 537.39 848.81 544.03 C 851.68 544.81 854.68 543.99 857.59 543.74 C 859.28 535.08 862.77 526.48 869.77 520.73 Z" />
</g>
<g id="#1f6f5fff">
<path fill="#1f6f5f" opacity="1.00" d=" M 1185.21 549.24 C 1192.45 549.75 1199.72 550.15 1207.00 550.25 C 1207.55 555.20 1208.08 560.17 1207.87 565.17 C 1207.07 569.03 1203.89 572.13 1203.77 576.19 C 1203.74 604.61 1203.72 633.09 1205.72 661.46 C 1206.02 668.22 1207.72 675.47 1205.15 682.03 C 1202.98 687.57 1200.53 693.00 1197.99 698.39 C 1196.27 700.90 1193.35 702.22 1190.88 703.87 C 1184.39 707.54 1178.34 712.01 1171.67 715.33 C 1166.14 715.41 1158.75 712.27 1154.44 717.42 C 1149.82 724.44 1149.53 733.58 1144.15 740.20 C 1143.13 741.54 1141.69 742.49 1140.06 742.87 C 1133.77 740.35 1128.91 734.14 1121.84 733.62 C 1118.39 734.49 1115.73 737.05 1112.87 739.01 C 1115.32 733.00 1116.60 726.61 1118.29 720.37 C 1114.33 720.83 1110.42 721.32 1106.48 721.78 C 1104.87 719.79 1103.24 717.82 1101.54 715.92 C 1103.15 710.05 1105.81 704.59 1109.01 699.44 C 1105.31 695.68 1099.48 693.17 1097.59 687.91 C 1096.42 680.49 1097.71 672.94 1098.43 665.54 C 1104.34 664.41 1111.13 665.07 1116.22 661.31 C 1118.68 659.22 1121.83 657.50 1123.32 654.49 C 1124.28 650.35 1122.33 646.25 1121.30 642.32 C 1127.85 640.03 1134.81 641.32 1141.41 642.60 C 1145.31 636.84 1150.60 631.55 1151.46 624.28 C 1152.77 609.46 1154.97 594.73 1156.96 579.98 C 1160.85 577.90 1164.67 575.70 1168.51 573.55 C 1170.42 574.40 1172.27 575.63 1174.39 575.92 C 1177.48 576.11 1179.48 573.15 1180.47 570.59 C 1183.04 563.74 1183.75 556.36 1185.21 549.24 Z" />
</g>
<g id="#9fefdffe">
<path fill="#9fefdf" opacity="1.00" d=" M 878.04 555.45 C 882.31 557.40 887.31 558.78 890.28 562.68 C 892.19 566.51 890.66 570.91 890.50 574.98 C 894.80 578.48 899.18 581.89 903.08 585.86 C 904.71 588.39 905.28 591.55 906.20 594.42 C 914.45 596.95 922.50 600.61 928.62 606.84 C 927.33 609.58 926.00 612.30 924.86 615.12 C 923.08 622.16 920.92 629.13 917.72 635.67 C 919.61 638.28 921.45 640.84 923.36 643.50 C 933.76 644.07 943.55 640.29 953.42 637.81 C 962.63 640.06 967.08 649.71 972.68 656.40 C 977.22 660.13 983.80 660.22 988.67 663.41 C 991.55 666.27 993.42 669.96 996.15 672.98 C 1000.06 677.85 1006.29 681.36 1007.10 688.19 C 1007.56 695.07 1007.84 702.03 1007.10 708.91 C 1006.32 714.20 1003.25 720.34 997.12 720.11 C 992.20 719.97 989.21 723.81 986.16 726.99 C 981.65 726.34 977.41 722.66 972.74 723.77 C 966.66 727.48 961.15 732.17 956.13 737.22 C 952.46 740.59 955.04 745.90 953.72 750.11 C 948.07 760.48 938.75 767.83 929.53 774.82 C 923.01 771.42 919.43 764.66 913.85 760.13 C 911.12 757.72 907.87 756.06 904.60 754.54 C 903.10 759.81 902.42 766.22 897.42 769.52 C 892.83 773.26 886.18 770.97 881.67 768.35 C 874.27 761.98 867.92 754.45 860.41 748.18 C 862.54 742.96 865.56 738.11 867.16 732.67 C 868.91 728.56 869.35 723.78 872.08 720.13 C 877.27 715.12 884.73 713.77 891.51 712.28 C 890.84 707.36 889.53 701.75 892.16 697.14 C 897.44 689.19 892.87 679.43 891.40 670.98 C 886.73 674.68 881.95 678.23 877.23 681.86 C 875.20 679.64 873.17 677.43 871.12 675.23 C 872.69 671.72 876.19 668.02 874.17 663.96 C 873.81 662.78 873.10 660.41 872.74 659.23 C 874.95 656.95 877.79 654.98 878.93 651.92 C 878.15 646.69 873.28 643.29 869.98 639.51 C 871.92 636.23 874.07 633.07 876.54 630.16 C 874.62 625.43 872.44 620.76 869.20 616.79 C 865.53 612.29 863.77 606.69 861.19 601.58 C 865.01 599.53 868.68 597.13 872.74 595.56 C 876.37 594.05 880.20 595.89 883.77 596.71 C 884.66 592.59 885.65 588.52 886.71 584.45 C 882.73 581.52 878.27 579.01 875.02 575.27 C 874.30 572.84 874.96 570.27 875.12 567.81 C 871.55 567.46 867.97 567.22 864.41 566.74 C 867.54 561.47 872.93 558.48 878.04 555.45 Z" />
</g>
<g id="#1f2fdfff">
<path fill="#1f2fdf" opacity="1.00" d=" M 1117.80 578.32 C 1126.68 577.26 1133.32 586.04 1142.16 585.15 C 1147.33 584.32 1152.20 582.12 1156.96 579.98 C 1154.97 594.73 1152.77 609.46 1151.46 624.28 C 1150.60 631.55 1145.31 636.84 1141.41 642.60 C 1134.81 641.32 1127.85 640.03 1121.30 642.32 C 1122.33 646.25 1124.28 650.35 1123.32 654.49 C 1121.83 657.50 1118.68 659.22 1116.22 661.31 C 1111.13 665.07 1104.34 664.41 1098.43 665.54 C 1097.71 672.94 1096.42 680.49 1097.59 687.91 C 1099.48 693.17 1105.31 695.68 1109.01 699.44 C 1105.81 704.59 1103.15 710.05 1101.54 715.92 C 1096.08 713.38 1093.73 706.69 1087.73 705.16 C 1080.01 703.56 1072.77 707.45 1065.22 707.91 C 1060.78 706.22 1057.20 702.75 1054.02 699.29 C 1048.62 693.38 1043.07 687.64 1037.52 681.88 C 1042.77 670.41 1050.20 660.14 1055.77 648.84 C 1060.15 640.61 1063.63 631.90 1068.69 624.05 C 1073.81 617.12 1079.77 610.87 1085.34 604.31 C 1091.90 596.86 1095.89 587.63 1101.16 579.30 C 1106.72 579.51 1112.28 579.12 1117.80 578.32 Z" />
</g>
<g id="#df6f5fff">
<path fill="#df6f5f" opacity="1.00" d=" M 955.22 585.55 C 962.42 590.30 966.56 599.44 975.27 601.82 C 987.39 605.75 999.48 609.86 1011.92 612.72 C 1021.92 615.45 1031.83 618.77 1042.17 620.02 C 1051.05 621.12 1059.91 622.26 1068.69 624.05 C 1063.63 631.90 1060.15 640.61 1055.77 648.84 C 1050.20 660.14 1042.77 670.41 1037.52 681.88 C 1043.07 687.64 1048.62 693.38 1054.02 699.29 C 1051.05 705.62 1046.32 712.06 1038.95 713.26 C 1028.26 712.37 1017.90 708.87 1007.10 708.91 C 1007.84 702.03 1007.56 695.07 1007.10 688.19 C 1006.29 681.36 1000.06 677.85 996.15 672.98 C 993.42 669.96 991.55 666.27 988.67 663.41 C 983.80 660.22 977.22 660.13 972.68 656.40 C 967.08 649.71 962.63 640.06 953.42 637.81 C 943.55 640.29 933.76 644.07 923.36 643.50 C 921.45 640.84 919.61 638.28 917.72 635.67 C 920.92 629.13 923.08 622.16 924.86 615.12 C 925.98 616.50 927.12 617.87 928.26 619.26 C 933.02 617.67 938.62 616.11 941.28 611.38 C 945.86 602.73 949.07 593.31 955.22 585.55 M 1011.12 654.26 C 1009.79 658.10 1008.42 661.92 1006.99 665.72 C 1013.24 669.40 1019.37 673.29 1025.37 677.38 C 1030.45 673.18 1030.79 666.39 1030.27 660.29 C 1023.78 658.60 1017.40 656.57 1011.12 654.26 Z" />
</g>
<g id="#1faf5fff">
<path fill="#1faf5f" opacity="1.00" d=" M 845.52 609.54 C 851.02 607.48 855.96 604.22 861.19 601.58 C 863.77 606.69 865.53 612.29 869.20 616.79 C 872.44 620.76 874.62 625.43 876.54 630.16 C 874.07 633.07 871.92 636.23 869.98 639.51 C 873.28 643.29 878.15 646.69 878.93 651.92 C 877.79 654.98 874.95 656.95 872.74 659.23 C 873.10 660.41 873.81 662.78 874.17 663.96 C 876.19 668.02 872.69 671.72 871.12 675.23 C 873.17 677.43 875.20 679.64 877.23 681.86 C 881.95 678.23 886.73 674.68 891.40 670.98 C 892.87 679.43 897.44 689.19 892.16 697.14 C 889.53 701.75 890.84 707.36 891.51 712.28 C 884.73 713.77 877.27 715.12 872.08 720.13 C 869.35 723.78 868.91 728.56 867.16 732.67 C 865.56 738.11 862.54 742.96 860.41 748.18 C 853.95 749.07 846.33 750.54 842.70 756.66 C 840.48 761.89 842.80 768.42 839.36 773.27 C 836.76 777.37 832.70 781.15 832.65 786.32 C 833.08 794.89 831.90 803.61 835.15 811.84 C 831.68 813.37 828.32 815.12 824.97 816.88 C 821.61 801.23 814.59 786.66 811.05 771.05 C 809.40 765.47 809.50 759.20 805.69 754.49 C 803.24 751.25 801.60 745.75 796.78 745.54 C 792.79 746.59 789.90 750.03 786.02 751.34 C 778.90 752.02 772.77 746.44 765.71 746.91 C 756.51 749.52 748.69 756.04 738.98 757.11 C 739.25 753.51 738.58 749.75 739.86 746.31 C 741.92 742.73 745.42 740.26 747.60 736.75 C 749.81 733.41 750.90 729.42 753.33 726.22 C 756.72 724.64 760.70 726.58 764.20 726.39 C 765.06 722.30 765.68 718.17 766.21 714.03 C 759.58 712.85 752.89 711.99 746.30 710.70 C 742.09 709.95 739.39 706.23 736.20 703.77 L 735.56 703.20 C 743.41 700.34 752.39 700.49 759.42 695.51 C 764.04 692.97 767.75 688.95 770.24 684.33 C 771.09 678.75 766.87 672.99 769.43 667.58 C 771.91 660.34 777.76 655.23 782.68 649.67 C 786.34 646.01 783.58 640.55 782.96 636.17 C 781.94 631.65 781.62 626.98 781.19 622.39 C 786.95 618.76 790.33 612.80 794.04 607.32 C 798.34 612.01 799.35 618.12 798.61 624.19 C 805.08 623.18 810.41 619.19 815.86 615.90 C 821.63 612.33 827.72 609.31 833.75 606.20 C 837.40 607.84 841.29 611.25 845.52 609.54 Z" />
</g>
<g id="#5fef9ffe">
<path fill="#5fef9f" opacity="1.00" d=" M 1011.12 654.26 C 1017.40 656.57 1023.78 658.60 1030.27 660.29 C 1030.79 666.39 1030.45 673.18 1025.37 677.38 C 1019.37 673.29 1013.24 669.40 1006.99 665.72 C 1008.42 661.92 1009.79 658.10 1011.12 654.26 Z" />
</g>
<g id="#9f2f5fff">
<path fill="#9f2f5f" opacity="1.00" d=" M 1054.02 699.29 C 1057.20 702.75 1060.78 706.22 1065.22 707.91 C 1072.77 707.45 1080.01 703.56 1087.73 705.16 C 1093.73 706.69 1096.08 713.38 1101.54 715.92 C 1103.24 717.82 1104.87 719.79 1106.48 721.78 C 1110.42 721.32 1114.33 720.83 1118.29 720.37 C 1116.60 726.61 1115.32 733.00 1112.87 739.01 C 1110.29 745.31 1104.62 749.73 1101.88 755.87 C 1104.77 760.00 1108.14 764.14 1112.86 766.26 C 1117.82 769.21 1124.40 767.17 1128.97 770.99 C 1135.38 776.52 1141.30 782.59 1147.54 788.31 C 1144.38 794.26 1143.13 801.41 1138.34 806.38 C 1133.94 811.71 1125.97 810.11 1120.67 807.20 C 1113.69 803.14 1106.66 798.17 1098.23 798.14 C 1093.88 803.12 1094.27 810.46 1090.96 815.96 C 1085.58 820.41 1078.30 820.95 1071.66 821.97 C 1069.31 819.17 1067.01 816.39 1064.47 813.80 C 1058.20 818.29 1051.31 821.82 1043.92 824.03 C 1042.21 820.76 1039.15 817.73 1039.48 813.82 C 1039.82 807.85 1041.30 802.05 1042.70 796.28 C 1034.68 793.56 1026.69 789.72 1018.05 790.05 C 1012.43 791.33 1009.35 796.72 1006.39 801.15 C 1006.52 797.78 1006.65 794.39 1006.84 791.05 C 999.74 789.49 992.57 787.84 985.26 787.99 C 975.64 791.90 970.23 801.14 962.98 808.01 C 960.71 810.34 957.40 811.26 954.19 811.04 C 950.15 807.83 947.60 803.18 944.64 799.04 C 951.55 792.87 958.65 786.91 965.95 781.21 C 963.45 778.33 960.95 775.40 958.49 772.50 C 949.17 774.82 938.95 779.22 929.53 774.82 C 938.75 767.83 948.07 760.48 953.72 750.11 C 955.04 745.90 952.46 740.59 956.13 737.22 C 961.15 732.17 966.66 727.48 972.74 723.77 C 977.41 722.66 981.65 726.34 986.16 726.99 C 989.21 723.81 992.20 719.97 997.12 720.11 C 1003.25 720.34 1006.32 714.20 1007.10 708.91 C 1017.90 708.87 1028.26 712.37 1038.95 713.26 C 1046.32 712.06 1051.05 705.62 1054.02 699.29 Z" />
</g>
<g id="#dfefdfff">
<path fill="#dfefdf" opacity="1.00" d=" M 712.96 706.01 C 720.63 704.73 728.48 704.81 736.20 703.77 C 739.39 706.23 742.09 709.95 746.30 710.70 C 752.89 711.99 759.58 712.85 766.21 714.03 C 765.68 718.17 765.06 722.30 764.20 726.39 C 760.70 726.58 756.72 724.64 753.33 726.22 C 750.90 729.42 749.81 733.41 747.60 736.75 C 745.42 740.26 741.92 742.73 739.86 746.31 C 738.58 749.75 739.25 753.51 738.98 757.11 C 748.69 756.04 756.51 749.52 765.71 746.91 C 772.77 746.44 778.90 752.02 786.02 751.34 C 789.90 750.03 792.79 746.59 796.78 745.54 C 801.60 745.75 803.24 751.25 805.69 754.49 C 809.50 759.20 809.40 765.47 811.05 771.05 C 814.59 786.66 821.61 801.23 824.97 816.88 C 823.17 821.58 821.53 826.45 821.94 831.59 C 819.92 833.04 817.88 834.47 815.93 836.00 C 811.64 837.72 813.83 842.94 813.98 846.16 C 808.92 852.91 805.29 861.53 797.27 865.38 C 791.40 868.67 784.51 869.13 777.94 868.51 C 776.36 865.22 775.50 860.93 771.93 859.16 C 767.28 856.53 762.11 854.59 758.32 850.68 C 753.08 845.87 749.35 839.70 744.41 834.65 C 735.08 828.88 723.77 825.67 712.77 827.07 C 702.06 827.27 691.24 827.00 680.81 824.34 C 678.48 823.48 677.03 821.29 675.52 819.46 C 670.11 811.88 664.39 803.33 665.73 793.57 C 667.19 787.12 674.85 784.13 676.16 777.62 C 675.99 771.49 671.06 766.52 671.17 760.34 C 675.85 756.67 682.18 756.70 687.67 754.89 C 686.70 745.86 678.75 738.93 679.52 729.59 C 682.16 721.09 691.16 717.43 698.71 714.28 C 703.95 712.39 707.69 707.75 712.96 706.01 Z" />
</g>
<g id="#df2f5fff">
<path fill="#df2f5f" opacity="1.00" d=" M 842.70 756.66 C 846.33 750.54 853.95 749.07 860.41 748.18 C 867.92 754.45 874.27 761.98 881.67 768.35 C 886.18 770.97 892.83 773.26 897.42 769.52 C 902.42 766.22 903.10 759.81 904.60 754.54 C 907.87 756.06 911.12 757.72 913.85 760.13 C 919.43 764.66 923.01 771.42 929.53 774.82 C 938.95 779.22 949.17 774.82 958.49 772.50 C 960.95 775.40 963.45 778.33 965.95 781.21 C 958.65 786.91 951.55 792.87 944.64 799.04 C 947.60 803.18 950.15 807.83 954.19 811.04 C 957.40 811.26 960.71 810.34 962.98 808.01 C 970.23 801.14 975.64 791.90 985.26 787.99 C 992.57 787.84 999.74 789.49 1006.84 791.05 C 1006.65 794.39 1006.52 797.78 1006.39 801.15 C 1006.37 801.57 1006.33 802.40 1006.32 802.82 C 1015.20 807.68 1026.43 808.46 1033.45 816.23 C 1033.84 831.43 1025.93 845.92 1015.69 856.69 C 1011.40 861.78 1004.26 861.54 998.21 861.42 C 990.29 860.40 984.21 855.17 977.27 851.88 C 971.63 848.88 965.59 852.77 962.73 857.56 C 961.41 862.83 963.53 868.49 961.65 873.67 C 955.92 880.26 947.38 882.40 939.70 885.72 C 934.55 887.85 929.93 891.06 924.83 893.28 C 924.59 885.80 923.89 878.33 922.73 870.95 C 922.45 867.73 918.90 866.74 916.61 865.27 C 917.55 859.87 919.78 854.83 920.80 849.46 C 910.02 849.74 899.05 848.95 888.82 845.34 C 883.97 843.56 879.12 841.81 874.26 840.10 C 875.20 834.35 875.74 828.50 874.85 822.71 C 864.36 821.83 855.01 816.62 844.73 814.86 C 841.42 814.28 838.23 813.16 835.15 811.84 C 831.90 803.61 833.08 794.89 832.65 786.32 C 832.70 781.15 836.76 777.37 839.36 773.27 C 842.80 768.42 840.48 761.89 842.70 756.66 Z" />
</g>
<g id="#1fef5ffe">
<path fill="#1fef5f" opacity="1.00" d=" M 824.97 816.88 C 828.32 815.12 831.68 813.37 835.15 811.84 C 838.23 813.16 841.42 814.28 844.73 814.86 C 855.01 816.62 864.36 821.83 874.85 822.71 C 875.74 828.50 875.20 834.35 874.26 840.10 C 879.12 841.81 883.97 843.56 888.82 845.34 C 899.05 848.95 910.02 849.74 920.80 849.46 C 919.78 854.83 917.55 859.87 916.61 865.27 C 918.90 866.74 922.45 867.73 922.73 870.95 C 923.89 878.33 924.59 885.80 924.83 893.28 C 921.38 898.41 916.10 902.49 914.70 908.85 C 910.48 920.98 917.42 933.29 915.14 945.54 C 908.68 946.47 902.35 948.42 895.78 948.50 C 888.96 948.37 884.36 954.79 877.75 955.72 C 870.62 957.04 863.63 959.54 856.33 959.68 C 850.40 959.85 844.54 956.25 842.14 950.81 C 839.13 944.09 835.22 937.29 835.39 929.70 C 832.72 929.53 829.83 929.06 827.36 930.35 C 824.42 932.64 823.70 936.57 822.40 939.87 C 818.70 939.69 813.26 943.56 810.29 939.76 C 803.33 932.37 799.42 922.82 794.97 913.85 C 787.06 898.55 779.17 883.25 771.16 868.00 C 773.41 868.19 775.67 868.37 777.94 868.51 C 784.51 869.13 791.40 868.67 797.27 865.38 C 805.29 861.53 808.92 852.91 813.98 846.16 C 819.54 856.37 822.72 867.61 826.76 878.45 C 828.77 874.04 831.67 869.78 832.27 864.92 C 829.99 853.47 824.78 842.89 821.94 831.59 C 821.53 826.45 823.17 821.58 824.97 816.88 Z" />
</g>
</svg>
