<?xml version="1.0" encoding="UTF-8" ?>
<!DOCTYPE svg PUBLIC "-//W3C//DTD SVG 1.1//EN" "http://www.w3.org/Graphics/SVG/1.1/DTD/svg11.dtd">
<svg width="1920pt" height="1080pt" viewBox="0 0 1920 1080" version="1.1" xmlns="http://www.w3.org/2000/svg">
<g id="#6f007fff">
<path fill="#6f007f" fill-opacity="0" d=" M 633.35 277.94 C 636.51 277.48 638.58 280.54 641.02 282.02 C 643.97 284.60 648.06 284.56 651.71 285.19 C 652.94 287.89 653.64 291.05 655.95 293.09 C 658.92 295.67 663.16 293.95 666.69 293.78 C 675.93 291.74 685.45 292.89 694.76 291.32 C 696.74 302.53 700.30 313.40 702.11 324.66 C 703.10 334.29 708.27 342.73 710.15 352.16 C 713.24 352.33 717.08 351.92 719.12 354.83 C 724.37 365.58 726.66 377.49 728.35 389.26 C 731.07 385.79 734.30 382.75 738.03 380.38 C 742.02 387.79 742.50 396.39 743.91 404.54 C 741.00 403.62 738.34 402.10 735.74 400.56 C 732.07 405.98 728.73 411.63 726.09 417.62 C 717.39 419.63 708.32 417.14 699.71 419.41 C 691.42 421.96 690.78 432.30 684.44 437.07 C 676.20 439.02 668.19 434.73 660.18 433.42 C 652.89 432.40 644.86 429.69 637.73 432.77 C 631.53 436.37 625.84 440.79 620.24 445.26 C 614.82 443.55 609.62 441.16 604.08 439.87 C 598.30 438.39 594.11 444.57 588.50 444.62 C 581.88 444.99 577.00 439.50 570.57 438.91 C 561.81 442.24 555.77 451.48 545.77 451.69 C 537.48 452.75 528.41 450.83 520.66 454.81 C 516.79 456.76 512.66 458.87 508.15 457.54 C 497.18 454.90 485.80 452.50 474.51 454.54 C 469.31 447.29 460.22 445.74 453.81 440.05 C 455.80 426.96 452.12 413.83 449.04 401.21 C 454.39 397.20 459.13 391.86 465.60 389.62 C 470.02 389.45 473.91 395.04 478.40 392.52 C 483.19 390.39 484.07 384.30 488.12 381.46 C 494.11 380.54 500.18 379.79 506.23 379.26 C 509.86 382.38 514.13 384.57 518.24 386.97 C 516.75 383.51 514.93 380.21 513.51 376.73 C 519.01 375.82 525.45 376.13 529.54 371.57 C 534.35 366.25 538.57 360.37 543.85 355.47 C 546.37 355.92 548.97 356.85 551.56 356.32 C 558.66 351.89 567.55 348.00 570.31 339.32 C 570.82 334.65 569.57 329.97 569.86 325.29 C 571.46 321.75 575.32 319.89 577.48 316.75 C 579.14 312.31 578.87 306.98 582.40 303.41 C 587.93 297.10 591.72 288.31 599.83 284.83 C 606.37 281.80 611.53 287.32 616.82 290.08 C 620.15 283.95 626.16 278.48 633.35 277.94 Z" />
</g>
<g id="#af3f00ff">
<path fill="#af3f00" fill-opacity="0" d=" M 1352.55 342.27 C 1366.47 343.32 1380.58 342.18 1394.38 344.49 C 1396.52 345.15 1400.11 345.23 1400.35 348.13 C 1399.58 354.46 1397.92 360.66 1396.95 366.97 C 1404.42 371.11 1412.40 374.57 1420.77 376.39 C 1430.03 376.90 1439.55 376.83 1448.58 374.44 C 1453.52 371.99 1455.49 366.19 1460.10 363.34 C 1466.80 365.87 1471.10 372.93 1478.22 374.43 C 1482.98 374.22 1487.66 371.50 1492.41 373.73 C 1491.74 377.58 1491.00 381.42 1490.06 385.21 C 1498.79 391.25 1510.40 392.64 1520.12 388.27 C 1519.37 395.52 1517.46 402.89 1518.62 410.19 C 1520.97 417.62 1525.66 424.03 1528.83 431.12 C 1530.03 433.58 1528.59 436.28 1527.52 438.51 C 1523.72 446.06 1516.69 452.76 1517.44 461.79 C 1516.95 472.58 1519.64 484.43 1513.03 493.91 C 1507.87 502.60 1502.39 511.12 1497.56 520.02 C 1494.13 518.41 1490.72 516.59 1487.75 514.26 C 1484.07 509.70 1481.72 504.28 1479.07 499.12 C 1477.32 495.92 1476.22 492.01 1472.68 490.39 C 1462.12 484.68 1449.96 482.84 1438.17 481.68 C 1429.57 480.70 1421.19 483.50 1412.63 482.65 C 1410.28 486.81 1409.30 491.51 1408.71 496.21 C 1401.88 494.50 1395.23 491.77 1388.12 491.54 C 1383.73 490.96 1378.79 491.67 1375.05 489.02 C 1369.09 482.39 1365.75 473.81 1359.67 467.25 C 1356.68 464.27 1352.27 463.99 1348.32 463.46 C 1348.82 438.54 1348.09 413.60 1348.98 388.69 C 1345.98 388.04 1342.98 387.48 1339.96 387.08 C 1340.12 371.23 1347.49 356.93 1352.55 342.27 M 1456.93 409.93 C 1458.40 412.49 1460.50 414.59 1463.07 416.07 C 1462.90 413.95 1464.76 410.94 1462.76 409.36 C 1460.79 409.29 1458.84 409.67 1456.93 409.93 Z" />
</g>
<g id="#afbf7fff">
<path fill="#afbf7f" fill-opacity="0" d=" M 1235.38 373.43 C 1242.17 370.49 1249.92 369.01 1257.16 370.96 C 1259.45 373.74 1257.41 378.84 1260.76 381.25 C 1265.86 385.37 1273.21 384.31 1279.22 385.90 C 1279.67 393.62 1279.51 401.36 1279.16 409.09 C 1271.29 409.25 1262.93 410.26 1256.96 415.98 C 1252.08 418.47 1250.87 423.92 1250.31 428.84 C 1249.29 438.09 1242.63 445.44 1240.54 454.32 C 1239.89 460.24 1245.79 463.35 1249.29 467.06 C 1247.73 471.53 1247.95 476.31 1250.24 480.53 C 1252.81 484.77 1250.18 489.31 1247.98 493.01 C 1245.22 497.13 1242.41 501.42 1238.37 504.40 C 1235.10 506.70 1230.96 506.82 1227.14 507.27 C 1222.31 503.24 1218.04 498.43 1212.43 495.43 C 1212.69 499.61 1213.25 503.76 1213.88 507.90 C 1207.52 508.39 1203.34 503.54 1199.55 499.19 C 1200.08 496.43 1201.38 493.58 1200.84 490.76 C 1198.79 487.33 1195.15 485.33 1192.13 482.87 C 1187.62 479.29 1182.86 476.03 1177.70 473.46 C 1174.51 478.78 1173.03 484.77 1173.61 490.90 C 1171.16 489.75 1168.78 488.28 1166.10 487.83 C 1162.56 487.77 1159.79 491.40 1160.41 494.81 C 1161.40 499.51 1164.54 503.31 1166.76 507.46 C 1159.38 506.23 1152.01 505.01 1144.66 503.70 C 1143.83 496.48 1142.60 489.31 1141.75 482.10 C 1141.85 480.11 1142.60 477.95 1141.79 476.05 C 1138.58 471.38 1133.03 468.72 1130.30 463.68 C 1129.26 461.92 1130.96 460.37 1132.16 459.28 C 1135.55 456.53 1139.56 454.66 1142.96 451.91 C 1148.02 448.03 1151.01 442.16 1155.80 437.98 C 1156.21 433.80 1156.57 429.02 1160.29 426.32 C 1165.95 421.59 1171.38 416.51 1175.18 410.10 C 1181.37 413.52 1188.82 416.07 1195.63 412.60 C 1199.51 411.65 1199.46 406.50 1201.23 403.78 C 1204.90 400.45 1207.89 396.53 1210.56 392.38 C 1211.88 390.09 1214.79 390.37 1217.06 390.04 C 1218.76 386.37 1219.80 382.34 1222.01 378.95 C 1225.94 376.09 1230.98 375.42 1235.38 373.43 Z" />
</g>
<g id="#6f3f7fff">
<path fill="#6f3f7f" fill-opacity="0" d=" M 1279.22 385.90 C 1299.28 390.14 1319.77 384.66 1339.96 387.08 C 1342.98 387.48 1345.98 388.04 1348.98 388.69 C 1348.09 413.60 1348.82 438.54 1348.32 463.46 C 1341.85 471.80 1330.37 477.15 1329.42 488.81 C 1327.79 497.36 1333.22 507.14 1327.78 514.75 C 1320.92 520.46 1311.56 521.97 1304.41 527.32 C 1296.94 531.29 1289.79 537.02 1287.95 545.73 C 1278.64 539.20 1271.00 530.50 1261.14 524.73 C 1258.98 526.72 1256.87 528.77 1254.78 530.82 C 1252.72 530.14 1250.65 529.54 1248.61 528.90 C 1247.89 524.53 1246.91 520.07 1244.23 516.45 C 1240.10 510.96 1232.75 510.54 1227.14 507.27 C 1230.96 506.82 1235.10 506.70 1238.37 504.40 C 1242.41 501.42 1245.22 497.13 1247.98 493.01 C 1250.18 489.31 1252.81 484.77 1250.24 480.53 C 1247.95 476.31 1247.73 471.53 1249.29 467.06 C 1245.79 463.35 1239.89 460.24 1240.54 454.32 C 1242.63 445.44 1249.29 438.09 1250.31 428.84 C 1250.87 423.92 1252.08 418.47 1256.96 415.98 C 1262.93 410.26 1271.29 409.25 1279.16 409.09 C 1279.51 401.36 1279.67 393.62 1279.22 385.90 Z" />
</g>
<g id="#2f3f00fe">
<path fill="#2f3f00" fill-opacity="0" d=" M 1047.88 392.60 C 1055.35 394.95 1060.04 401.44 1066.57 405.30 C 1069.78 402.40 1073.10 398.74 1077.86 399.45 C 1077.64 401.89 1077.42 404.34 1077.21 406.79 C 1085.11 410.30 1092.66 414.87 1100.84 417.63 C 1105.97 415.10 1110.52 411.18 1116.43 410.48 C 1119.02 406.22 1121.42 399.74 1127.27 399.42 C 1131.86 400.29 1135.80 403.14 1139.86 405.31 C 1148.21 409.38 1151.52 419.88 1160.66 422.75 C 1162.91 417.39 1165.38 412.13 1168.25 407.07 C 1170.56 408.05 1172.88 409.05 1175.18 410.10 C 1171.38 416.51 1165.95 421.59 1160.29 426.32 C 1156.57 429.02 1156.21 433.80 1155.80 437.98 C 1151.01 442.16 1148.02 448.03 1142.96 451.91 C 1139.56 454.66 1135.55 456.53 1132.16 459.28 C 1130.96 460.37 1129.26 461.92 1130.30 463.68 C 1133.03 468.72 1138.58 471.38 1141.79 476.05 C 1142.60 477.95 1141.85 480.11 1141.75 482.10 C 1135.38 480.39 1129.08 478.33 1122.50 477.69 C 1116.05 476.14 1111.30 481.64 1105.30 482.50 C 1101.17 483.12 1096.94 483.20 1092.79 483.47 C 1085.55 483.76 1078.65 481.06 1071.53 480.42 C 1067.27 479.92 1065.27 484.39 1063.38 487.37 C 1058.65 484.90 1053.87 482.56 1048.86 480.75 C 1046.22 485.84 1043.02 493.21 1036.20 492.85 C 1033.00 490.97 1031.54 487.36 1029.12 484.71 C 1027.16 482.58 1024.36 481.59 1021.79 480.47 C 1023.89 470.46 1019.36 461.08 1015.89 452.02 C 1013.03 443.61 1007.00 436.81 1001.04 430.44 C 1003.50 428.48 1006.83 427.10 1008.26 424.18 C 1008.97 418.24 1008.37 412.18 1009.01 406.23 C 1015.52 402.61 1021.50 398.14 1027.36 393.56 C 1029.87 396.43 1030.63 400.95 1034.37 402.57 C 1037.42 404.08 1040.70 405.06 1043.92 406.15 C 1044.80 401.52 1045.61 396.79 1047.88 392.60 Z" />
</g>
<g id="#efbf7ffe">
<path fill="#efbf7f" fill-opacity="0" d=" M 735.74 400.56 C 738.34 402.10 741.00 403.62 743.91 404.54 C 747.91 405.93 753.02 405.47 755.94 409.04 C 758.64 412.97 759.53 417.79 761.03 422.24 C 766.01 422.74 771.07 422.74 775.92 421.35 C 779.17 423.55 782.42 425.75 785.60 428.07 C 798.79 436.47 804.35 454.96 798.32 469.29 C 794.09 475.96 785.71 477.66 778.83 480.26 C 780.25 486.27 782.23 492.18 782.96 498.34 C 782.99 506.71 779.90 515.16 782.81 523.37 C 786.34 529.29 790.64 535.18 791.52 542.23 C 791.99 548.51 789.29 554.33 787.18 560.07 C 785.79 563.45 786.92 567.12 788.35 570.28 C 785.13 573.96 781.47 577.21 777.43 579.97 C 778.25 584.40 779.02 589.00 777.77 593.44 C 775.64 602.10 782.70 611.47 777.48 619.53 C 773.07 626.21 767.80 632.39 764.63 639.82 C 760.75 639.28 757.40 637.14 754.82 634.26 C 750.19 629.49 744.70 625.69 740.01 621.00 C 736.38 617.38 732.61 613.68 727.76 611.77 C 719.43 608.71 710.55 611.58 702.03 612.02 C 704.02 607.50 706.06 602.99 707.56 598.27 C 702.74 597.98 698.36 600.15 694.77 603.20 C 694.51 593.83 694.84 584.44 694.01 575.10 C 692.90 561.85 697.35 549.00 697.44 535.79 C 696.61 534.65 695.78 533.52 695.03 532.35 C 692.69 527.19 692.99 521.38 693.16 515.86 C 707.35 515.81 721.32 509.10 729.24 497.26 C 731.05 494.35 731.68 490.94 732.44 487.66 C 735.25 487.70 737.98 487.69 740.84 487.76 C 737.90 481.32 737.75 474.16 738.00 467.22 C 738.79 460.69 733.16 456.93 730.50 451.86 C 732.64 445.78 738.28 439.81 736.18 432.96 C 733.12 427.67 728.74 423.20 726.09 417.62 C 728.73 411.63 732.07 405.98 735.74 400.56 Z" />
</g>
<g id="#2fbf00fe">
<path fill="#2fbf00" fill-opacity="0" d=" M 1456.93 409.93 C 1458.84 409.67 1460.79 409.29 1462.76 409.36 C 1464.76 410.94 1462.90 413.95 1463.07 416.07 C 1460.50 414.59 1458.40 412.49 1456.93 409.93 Z" />
</g>
<g id="#ef007fff">
<path fill="#ef007f" fill-opacity="0" d=" M 918.64 414.61 C 925.65 415.86 932.29 418.53 938.73 421.51 C 942.05 419.79 945.94 415.65 949.83 418.18 C 958.54 423.83 966.76 430.48 976.49 434.38 C 984.77 437.53 993.57 434.12 1001.04 430.44 C 1007.00 436.81 1013.03 443.61 1015.89 452.02 C 1019.36 461.08 1023.89 470.46 1021.79 480.47 C 1021.30 483.00 1021.02 485.63 1019.97 488.01 C 1018.47 490.63 1015.08 491.64 1012.27 490.75 C 1006.26 489.16 1000.06 488.29 994.24 486.07 C 991.50 488.52 988.15 491.59 984.39 489.11 C 976.29 484.61 968.30 491.04 960.17 492.02 C 959.85 493.91 959.55 495.80 959.26 497.70 C 953.41 495.35 947.47 493.25 941.43 491.46 C 937.65 497.04 934.74 503.63 929.34 507.91 C 925.30 509.28 920.95 507.82 916.78 508.01 C 911.09 507.91 903.70 510.46 900.37 504.24 C 907.76 500.60 918.39 502.18 923.16 494.15 C 916.41 490.77 908.86 490.14 901.58 488.68 C 892.80 486.93 887.95 477.30 879.08 475.88 C 865.63 473.84 850.95 472.82 838.58 479.60 C 832.86 482.75 828.06 487.27 822.71 490.97 C 818.58 493.94 813.62 495.75 808.50 495.47 C 799.85 494.93 791.43 497.09 782.96 498.34 C 782.23 492.18 780.25 486.27 778.83 480.26 C 785.71 477.66 794.09 475.96 798.32 469.29 C 804.35 454.96 798.79 436.47 785.60 428.07 C 792.57 426.41 799.30 428.50 805.43 431.67 C 807.33 429.49 808.63 426.60 811.12 425.01 C 814.93 424.20 818.44 426.80 822.17 427.25 C 827.00 427.88 831.91 427.49 836.73 428.39 C 841.02 424.25 845.33 417.20 852.22 418.54 C 856.25 419.13 861.18 418.43 864.09 421.85 C 867.27 425.04 869.07 429.81 873.39 431.71 C 882.39 432.86 890.32 427.97 898.77 425.96 C 903.62 424.41 909.42 428.22 913.73 424.74 C 916.81 422.29 917.17 418.05 918.64 414.61 Z" />
</g>
<g id="#afbf00ff">
<path fill="#afbf00" fill-opacity="0" d=" M 699.71 419.41 C 708.32 417.14 717.39 419.63 726.09 417.62 C 728.74 423.20 733.12 427.67 736.18 432.96 C 738.28 439.81 732.64 445.78 730.50 451.86 C 733.16 456.93 738.79 460.69 738.00 467.22 C 737.75 474.16 737.90 481.32 740.84 487.76 C 737.98 487.69 735.25 487.70 732.44 487.66 C 731.68 490.94 731.05 494.35 729.24 497.26 C 721.32 509.10 707.35 515.81 693.16 515.86 C 692.99 521.38 692.69 527.19 695.03 532.35 C 691.11 531.76 687.22 530.92 683.32 530.29 C 680.31 531.48 677.63 533.94 674.32 534.17 C 669.86 533.64 665.75 531.51 661.32 530.81 C 656.09 529.37 651.71 536.37 646.67 533.44 C 641.39 530.10 635.48 527.42 631.00 522.98 C 627.75 517.41 626.19 511.04 623.82 505.08 C 620.88 496.36 616.52 487.94 615.64 478.67 C 614.75 470.29 616.21 461.92 617.36 453.65 C 617.75 450.69 618.71 447.81 620.24 445.26 C 625.84 440.79 631.53 436.37 637.73 432.77 C 644.86 429.69 652.89 432.40 660.18 433.42 C 668.19 434.73 676.20 439.02 684.44 437.07 C 690.78 432.30 691.42 421.96 699.71 419.41 Z" />
</g>
<g id="#2f7fbffe">
<path fill="#2f7fbf" fill-opacity="0" d=" M 570.57 438.91 C 577.00 439.50 581.88 444.99 588.50 444.62 C 594.11 444.57 598.30 438.39 604.08 439.87 C 609.62 441.16 614.82 443.55 620.24 445.26 C 618.71 447.81 617.75 450.69 617.36 453.65 C 616.21 461.92 614.75 470.29 615.64 478.67 C 616.52 487.94 620.88 496.36 623.82 505.08 C 626.19 511.04 627.75 517.41 631.00 522.98 C 635.48 527.42 641.39 530.10 646.67 533.44 C 651.71 536.37 656.09 529.37 661.32 530.81 C 665.75 531.51 669.86 533.64 674.32 534.17 C 677.63 533.94 680.31 531.48 683.32 530.29 C 687.22 530.92 691.11 531.76 695.03 532.35 C 695.78 533.52 696.61 534.65 697.44 535.79 C 697.35 549.00 692.90 561.85 694.01 575.10 C 694.84 584.44 694.51 593.83 694.77 603.20 C 689.65 607.59 682.19 611.61 675.53 608.40 C 669.13 605.39 662.32 603.46 655.43 601.95 C 650.43 600.50 646.51 596.25 641.29 595.57 C 633.81 597.81 629.68 605.55 622.78 608.78 C 619.10 609.15 616.47 605.57 613.84 603.48 C 604.58 594.06 590.31 595.53 578.32 593.32 C 570.04 591.12 560.46 586.52 558.64 577.24 C 556.01 566.78 558.96 555.79 556.53 545.28 C 555.20 542.73 552.57 541.23 550.76 539.08 C 548.68 537.16 550.13 534.17 550.33 531.80 C 551.09 527.52 551.66 523.08 550.43 518.84 C 548.89 512.71 553.08 506.66 552.02 500.60 C 543.91 488.36 549.99 473.20 545.47 460.01 C 544.60 457.28 545.29 454.41 545.77 451.69 C 555.77 451.48 561.81 442.24 570.57 438.91 Z" />
</g>
<g id="#6f003ffe">
<path fill="#6f003f" fill-opacity="0" d=" M 447.75 452.96 C 450.38 448.97 452.35 444.59 453.81 440.05 C 460.22 445.74 469.31 447.29 474.51 454.54 C 485.80 452.50 497.18 454.90 508.15 457.54 C 512.66 458.87 516.79 456.76 520.66 454.81 C 528.41 450.83 537.48 452.75 545.77 451.69 C 545.29 454.41 544.60 457.28 545.47 460.01 C 549.99 473.20 543.91 488.36 552.02 500.60 C 553.08 506.66 548.89 512.71 550.43 518.84 C 551.66 523.08 551.09 527.52 550.33 531.80 C 550.13 534.17 548.68 537.16 550.76 539.08 C 552.57 541.23 555.20 542.73 556.53 545.28 C 558.96 555.79 556.01 566.78 558.64 577.24 C 549.89 579.83 540.68 579.55 531.73 580.92 C 533.04 584.67 534.56 588.37 535.69 592.19 C 536.70 595.58 534.14 598.67 532.24 601.22 C 524.45 609.79 513.50 614.76 506.08 623.75 C 510.20 629.90 514.99 635.65 520.84 640.24 C 524.79 644.06 530.34 648.53 530.11 654.59 C 525.60 659.81 521.71 665.61 519.72 672.32 C 522.10 672.55 524.47 672.82 526.85 673.12 C 526.62 676.05 526.43 678.99 526.24 681.92 C 519.48 683.81 510.85 683.03 505.90 688.87 C 497.73 697.80 492.71 709.04 484.81 718.17 C 481.64 716.13 478.18 714.28 475.99 711.11 C 473.31 707.50 470.66 703.40 466.23 701.82 C 460.80 700.16 455.05 701.54 450.07 703.88 C 449.20 701.20 447.58 698.04 449.42 695.41 C 453.74 689.25 459.94 684.04 461.72 676.43 C 452.70 673.11 443.84 668.61 434.14 667.86 C 425.71 666.90 418.67 672.60 410.49 673.49 C 411.55 668.65 412.88 663.86 414.42 659.16 C 417.17 653.19 418.77 646.34 423.63 641.63 C 425.41 639.65 427.59 638.04 429.21 635.92 C 427.73 632.56 425.55 629.55 423.89 626.29 C 429.06 622.57 435.18 619.45 438.60 613.83 C 441.67 607.60 440.84 600.34 442.93 593.79 C 441.66 587.82 435.81 583.57 435.32 577.25 C 434.92 569.60 438.05 562.12 437.31 554.48 C 432.39 544.30 424.74 535.54 420.42 525.03 C 422.23 522.82 424.93 521.64 426.96 519.67 C 426.41 515.97 423.89 512.97 422.80 509.45 C 422.54 504.10 425.14 499.26 426.16 494.14 C 426.94 490.46 428.39 486.83 431.34 484.35 C 440.71 476.33 441.51 462.98 447.75 452.96 Z" />
</g>
<g id="#2f003fff">
<path fill="#2f003f" fill-opacity="0" d=" M 1348.32 463.46 C 1352.27 463.99 1356.68 464.27 1359.67 467.25 C 1365.75 473.81 1369.09 482.39 1375.05 489.02 C 1378.79 491.67 1383.73 490.96 1388.12 491.54 C 1395.23 491.77 1401.88 494.50 1408.71 496.21 C 1409.30 491.51 1410.28 486.81 1412.63 482.65 C 1421.19 483.50 1429.57 480.70 1438.17 481.68 C 1449.96 482.84 1462.12 484.68 1472.68 490.39 C 1476.22 492.01 1477.32 495.92 1479.07 499.12 C 1481.72 504.28 1484.07 509.70 1487.75 514.26 C 1490.72 516.59 1494.13 518.41 1497.56 520.02 C 1506.41 523.72 1516.11 527.01 1525.80 525.15 C 1533.29 519.73 1535.10 509.10 1544.40 505.62 C 1544.91 518.98 1549.19 532.29 1546.75 545.67 C 1545.68 553.60 1545.77 561.65 1544.26 569.53 C 1550.88 573.12 1558.55 572.78 1565.67 574.37 C 1571.56 579.92 1572.04 588.29 1572.76 595.79 C 1573.43 599.91 1570.05 602.90 1568.05 606.05 C 1556.35 620.52 1546.58 636.47 1534.80 650.88 C 1533.48 652.47 1531.24 652.31 1529.40 652.49 C 1522.17 652.71 1514.93 652.52 1507.71 652.78 C 1511.21 647.59 1512.06 641.12 1511.70 635.00 C 1511.44 629.35 1508.16 624.43 1507.32 618.90 C 1506.26 615.11 1507.37 611.14 1506.65 607.34 C 1502.75 605.09 1498.23 604.04 1494.59 601.29 C 1486.43 595.35 1476.04 594.01 1466.19 594.36 C 1452.99 594.04 1439.45 597.20 1426.59 593.28 C 1418.53 590.90 1410.15 589.36 1402.41 586.06 C 1397.33 582.39 1395.52 576.03 1391.48 571.45 C 1387.68 566.96 1384.88 561.78 1381.99 556.71 C 1378.81 551.05 1372.30 548.68 1367.27 545.09 C 1366.17 540.47 1366.02 534.28 1361.01 532.03 C 1351.31 527.53 1340.29 530.13 1330.04 529.59 C 1321.46 529.33 1312.92 528.12 1304.41 527.32 C 1311.56 521.97 1320.92 520.46 1327.78 514.75 C 1333.22 507.14 1327.79 497.36 1329.42 488.81 C 1330.37 477.15 1341.85 471.80 1348.32 463.46 Z" />
</g>
<g id="#af003fff">
<path fill="#af003f" fill-opacity="0" d=" M 838.58 479.60 C 850.95 472.82 865.63 473.84 879.08 475.88 C 887.95 477.30 892.80 486.93 901.58 488.68 C 908.86 490.14 916.41 490.77 923.16 494.15 C 918.39 502.18 907.76 500.60 900.37 504.24 C 903.70 510.46 911.09 507.91 916.78 508.01 C 920.95 507.82 925.30 509.28 929.34 507.91 C 934.74 503.63 937.65 497.04 941.43 491.46 C 947.47 493.25 953.41 495.35 959.26 497.70 C 959.55 495.80 959.85 493.91 960.17 492.02 C 968.30 491.04 976.29 484.61 984.39 489.11 C 981.57 493.89 977.90 498.09 973.75 501.76 C 968.76 506.36 966.03 512.78 961.46 517.76 C 957.98 517.82 953.44 514.34 950.17 517.06 C 946.31 520.57 944.33 525.61 942.88 530.51 C 946.42 532.98 949.86 535.61 953.05 538.52 C 949.85 539.65 946.61 540.46 943.72 542.22 C 945.54 547.30 949.82 551.14 951.55 556.25 C 951.43 559.18 950.31 561.98 949.98 564.90 C 947.04 564.71 944.18 564.55 941.26 564.37 C 944.93 569.16 949.76 572.83 954.07 576.99 C 957.28 579.97 957.25 584.65 957.42 588.68 C 950.03 590.56 942.37 590.50 934.88 591.74 C 929.32 593.11 924.28 596.50 918.42 596.54 C 912.29 596.59 905.92 598.45 899.98 596.20 C 896.35 595.04 894.51 591.41 891.96 588.89 C 889.40 586.03 885.60 584.98 882.39 583.12 C 877.11 578.92 872.71 573.70 868.70 568.31 C 863.50 561.24 863.17 552.15 860.08 544.19 C 856.88 546.51 853.79 549.00 850.68 551.43 C 846.66 545.04 840.16 541.26 833.36 538.53 C 834.33 532.31 840.17 529.82 845.35 527.72 C 840.49 524.61 834.38 522.80 830.77 518.16 C 826.60 509.62 825.05 500.11 822.71 490.97 C 828.06 487.27 832.86 482.75 838.58 479.60 Z" />
</g>
<g id="#2fbf7ffe">
<path fill="#2fbf7f" fill-opacity="0" d=" M 1177.70 473.46 C 1182.86 476.03 1187.62 479.29 1192.13 482.87 C 1195.15 485.33 1198.79 487.33 1200.84 490.76 C 1201.38 493.58 1200.08 496.43 1199.55 499.19 C 1203.34 503.54 1207.52 508.39 1213.88 507.90 C 1213.25 503.76 1212.69 499.61 1212.43 495.43 C 1218.04 498.43 1222.31 503.24 1227.14 507.27 C 1232.75 510.54 1240.10 510.96 1244.23 516.45 C 1238.56 523.65 1231.65 529.75 1226.02 536.97 C 1222.68 541.39 1223.59 548.35 1218.26 551.30 C 1214.69 553.99 1210.54 551.56 1207.17 549.87 C 1201.67 546.95 1195.21 547.83 1189.25 547.33 C 1183.34 546.81 1178.39 543.16 1172.93 541.29 C 1168.18 545.10 1164.78 550.28 1160.62 554.68 C 1156.67 559.01 1150.39 560.06 1146.45 564.43 C 1143.16 567.95 1139.80 571.99 1138.94 576.86 C 1142.49 581.96 1148.25 585.14 1151.49 590.52 C 1154.85 595.66 1154.01 602.15 1155.55 607.87 C 1157.00 612.98 1161.99 616.03 1165.96 619.10 C 1171.83 621.89 1178.48 622.45 1184.75 623.96 C 1186.43 632.45 1188.57 640.86 1191.59 648.98 C 1187.80 651.35 1184.51 654.37 1181.01 657.13 C 1178.24 659.52 1174.24 659.10 1171.26 661.12 C 1167.40 663.74 1162.58 666.54 1162.53 671.91 C 1160.52 679.78 1168.44 686.15 1167.67 694.09 C 1168.88 702.68 1164.93 710.59 1162.66 718.64 C 1160.51 725.88 1159.05 733.31 1157.02 740.59 C 1155.80 743.58 1155.43 747.82 1152.08 749.23 C 1150.44 750.16 1148.92 748.22 1148.07 747.03 C 1144.15 741.99 1142.16 733.76 1134.41 733.25 C 1133.68 727.92 1131.80 722.03 1126.94 719.14 C 1123.49 719.59 1120.32 721.17 1116.91 721.78 C 1112.21 722.84 1106.81 722.51 1103.11 726.09 C 1101.38 727.28 1099.19 730.06 1097.05 728.00 C 1091.24 722.19 1087.98 713.95 1087.94 705.74 C 1087.85 701.82 1087.96 697.86 1088.20 693.95 C 1088.28 691.55 1088.35 689.14 1088.54 686.75 C 1086.79 686.23 1085.04 685.73 1083.31 685.23 C 1085.36 672.25 1087.58 659.29 1089.37 646.28 C 1090.21 639.22 1099.25 634.84 1097.33 627.29 C 1094.76 622.88 1089.16 624.96 1085.41 626.26 C 1084.40 621.71 1084.24 616.84 1082.30 612.56 C 1080.10 609.77 1076.34 609.09 1073.23 607.78 C 1071.89 609.24 1070.56 610.70 1069.26 612.18 C 1066.34 608.34 1063.49 604.05 1058.74 602.32 C 1053.46 600.43 1049.50 596.14 1047.22 591.10 C 1052.79 583.26 1064.27 575.55 1060.49 564.46 C 1059.16 557.46 1058.85 550.00 1061.40 543.24 C 1062.66 539.49 1064.64 535.18 1062.40 531.39 C 1060.42 527.65 1057.19 523.08 1059.76 518.84 C 1064.95 510.43 1071.14 502.38 1073.85 492.71 C 1070.33 490.92 1066.87 489.14 1063.38 487.37 C 1065.27 484.39 1067.27 479.92 1071.53 480.42 C 1078.65 481.06 1085.55 483.76 1092.79 483.47 C 1096.94 483.20 1101.17 483.12 1105.30 482.50 C 1111.30 481.64 1116.05 476.14 1122.50 477.69 C 1129.08 478.33 1135.38 480.39 1141.75 482.10 C 1142.60 489.31 1143.83 496.48 1144.66 503.70 C 1152.01 505.01 1159.38 506.23 1166.76 507.46 C 1164.54 503.31 1161.40 499.51 1160.41 494.81 C 1159.79 491.40 1162.56 487.77 1166.10 487.83 C 1168.78 488.28 1171.16 489.75 1173.61 490.90 C 1173.03 484.77 1174.51 478.78 1177.70 473.46 Z" />
</g>
<g id="#6f3f00ff">
<path fill="#6f3f00" fill-opacity="0" d=" M 1021.79 480.47 C 1024.36 481.59 1027.16 482.58 1029.12 484.71 C 1031.54 487.36 1033.00 490.97 1036.20 492.85 C 1043.02 493.21 1046.22 485.84 1048.86 480.75 C 1053.87 482.56 1058.65 484.90 1063.38 487.37 C 1066.87 489.14 1070.33 490.92 1073.85 492.71 C 1071.14 502.38 1064.95 510.43 1059.76 518.84 C 1057.19 523.08 1060.42 527.65 1062.40 531.39 C 1064.64 535.18 1062.66 539.49 1061.40 543.24 C 1058.85 550.00 1059.16 557.46 1060.49 564.46 C 1064.27 575.55 1052.79 583.26 1047.22 591.10 C 1039.25 592.36 1031.18 591.45 1023.18 591.52 C 1015.42 591.78 1008.58 595.89 1000.99 597.02 C 997.10 597.64 992.50 598.58 989.13 595.94 C 980.48 588.47 968.26 588.30 957.42 588.68 C 957.25 584.65 957.28 579.97 954.07 576.99 C 949.76 572.83 944.93 569.16 941.26 564.37 C 944.18 564.55 947.04 564.71 949.98 564.90 C 950.31 561.98 951.43 559.18 951.55 556.25 C 949.82 551.14 945.54 547.30 943.72 542.22 C 946.61 540.46 949.85 539.65 953.05 538.52 C 949.86 535.61 946.42 532.98 942.88 530.51 C 944.33 525.61 946.31 520.57 950.17 517.06 C 953.44 514.34 957.98 517.82 961.46 517.76 C 966.03 512.78 968.76 506.36 973.75 501.76 C 977.90 498.09 981.57 493.89 984.39 489.11 C 988.15 491.59 991.50 488.52 994.24 486.07 C 1000.06 488.29 1006.26 489.16 1012.27 490.75 C 1015.08 491.64 1018.47 490.63 1019.97 488.01 C 1021.02 485.63 1021.30 483.00 1021.79 480.47 Z" />
</g>
<g id="#af3f7ffe">
<path fill="#af3f7f" fill-opacity="0" d=" M 808.50 495.47 C 813.62 495.75 818.58 493.94 822.71 490.97 C 825.05 500.11 826.60 509.62 830.77 518.16 C 834.38 522.80 840.49 524.61 845.35 527.72 C 840.17 529.82 834.33 532.31 833.36 538.53 C 840.16 541.26 846.66 545.04 850.68 551.43 C 853.79 549.00 856.88 546.51 860.08 544.19 C 863.17 552.15 863.50 561.24 868.70 568.31 C 872.71 573.70 877.11 578.92 882.39 583.12 C 880.20 586.89 877.70 590.51 874.59 593.58 C 872.00 596.19 869.10 599.30 869.65 603.31 C 870.41 612.86 870.69 622.59 873.25 631.88 C 873.56 633.53 874.21 635.25 873.81 636.94 C 872.05 639.40 869.19 640.69 867.19 642.90 C 865.98 645.37 866.01 648.28 865.45 650.98 C 850.85 636.10 835.51 621.96 821.01 606.98 C 809.73 595.10 798.90 582.79 788.35 570.28 C 786.92 567.12 785.79 563.45 787.18 560.07 C 789.29 554.33 791.99 548.51 791.52 542.23 C 790.64 535.18 786.34 529.29 782.81 523.37 C 779.90 515.16 782.99 506.71 782.96 498.34 C 791.43 497.09 799.85 494.93 808.50 495.47 Z" />
</g>
<g id="#af7fbffe">
<path fill="#af7fbf" fill-opacity="0" d=" M 1244.23 516.45 C 1246.91 520.07 1247.89 524.53 1248.61 528.90 C 1250.65 529.54 1252.72 530.14 1254.78 530.82 C 1256.87 528.77 1258.98 526.72 1261.14 524.73 C 1271.00 530.50 1278.64 539.20 1287.95 545.73 C 1289.79 537.02 1296.94 531.29 1304.41 527.32 C 1312.92 528.12 1321.46 529.33 1330.04 529.59 C 1331.04 533.14 1332.95 536.95 1331.59 540.68 C 1329.25 546.11 1323.86 550.35 1324.21 556.79 C 1325.82 561.11 1329.97 563.84 1331.78 568.04 C 1330.81 571.52 1328.76 574.59 1327.21 577.83 C 1322.27 576.92 1316.88 575.71 1312.16 578.15 C 1307.82 580.42 1303.20 583.54 1301.59 588.41 C 1301.42 592.63 1304.16 596.28 1305.02 600.33 C 1307.72 617.88 1303.23 635.31 1303.29 652.84 C 1298.64 655.18 1290.58 655.64 1289.96 662.07 C 1288.93 670.24 1289.99 678.60 1288.38 686.72 C 1287.10 691.28 1284.71 695.42 1282.80 699.74 C 1277.40 711.23 1273.36 723.37 1267.21 734.50 C 1263.52 738.88 1257.68 737.07 1253.54 734.52 C 1249.42 731.76 1244.54 733.29 1240.05 733.83 C 1240.33 731.32 1240.61 728.81 1240.89 726.31 C 1240.13 725.49 1239.38 724.67 1238.64 723.86 C 1233.83 726.34 1227.59 727.96 1225.56 733.60 C 1224.06 738.04 1219.48 739.64 1215.72 741.67 C 1214.86 737.96 1215.17 734.02 1213.65 730.48 C 1212.40 727.42 1211.42 724.26 1211.09 720.98 C 1208.19 722.79 1204.97 724.18 1202.39 726.43 C 1199.89 730.50 1199.07 736.18 1193.83 737.81 C 1193.53 736.74 1193.30 735.72 1193.04 734.67 C 1187.23 735.11 1182.87 731.07 1178.82 727.56 C 1175.44 730.26 1172.82 733.74 1171.53 737.90 C 1166.77 739.18 1161.99 740.66 1157.02 740.59 C 1159.05 733.31 1160.51 725.88 1162.66 718.64 C 1164.93 710.59 1168.88 702.68 1167.67 694.09 C 1168.44 686.15 1160.52 679.78 1162.53 671.91 C 1162.58 666.54 1167.40 663.74 1171.26 661.12 C 1174.24 659.10 1178.24 659.52 1181.01 657.13 C 1184.51 654.37 1187.80 651.35 1191.59 648.98 C 1188.57 640.86 1186.43 632.45 1184.75 623.96 C 1178.48 622.45 1171.83 621.89 1165.96 619.10 C 1161.99 616.03 1157.00 612.98 1155.55 607.87 C 1154.01 602.15 1154.85 595.66 1151.49 590.52 C 1148.25 585.14 1142.49 581.96 1138.94 576.86 C 1139.80 571.99 1143.16 567.95 1146.45 564.43 C 1150.39 560.06 1156.67 559.01 1160.62 554.68 C 1164.78 550.28 1168.18 545.10 1172.93 541.29 C 1178.39 543.16 1183.34 546.81 1189.25 547.33 C 1195.21 547.83 1201.67 546.95 1207.17 549.87 C 1210.54 551.56 1214.69 553.99 1218.26 551.30 C 1223.59 548.35 1222.68 541.39 1226.02 536.97 C 1231.65 529.75 1238.56 523.65 1244.23 516.45 Z" />
</g>
<g id="#ef3f7fff">
<path fill="#ef3f7f" fill-opacity="0" d=" M 1330.04 529.59 C 1340.29 530.13 1351.31 527.53 1361.01 532.03 C 1366.02 534.28 1366.17 540.47 1367.27 545.09 C 1372.30 548.68 1378.81 551.05 1381.99 556.71 C 1384.88 561.78 1387.68 566.96 1391.48 571.45 C 1395.52 576.03 1397.33 582.39 1402.41 586.06 C 1410.15 589.36 1418.53 590.90 1426.59 593.28 C 1439.45 597.20 1452.99 594.04 1466.19 594.36 C 1476.04 594.01 1486.43 595.35 1494.59 601.29 C 1498.23 604.04 1502.75 605.09 1506.65 607.34 C 1507.37 611.14 1506.26 615.11 1507.32 618.90 C 1508.16 624.43 1511.44 629.35 1511.70 635.00 C 1512.06 641.12 1511.21 647.59 1507.71 652.78 C 1499.29 664.39 1490.87 675.99 1482.88 687.90 C 1480.50 691.01 1478.67 694.73 1475.37 696.99 C 1471.12 698.55 1466.46 698.49 1462.05 699.09 C 1455.25 708.68 1448.67 718.43 1442.25 728.26 C 1439.77 732.49 1433.99 731.65 1430.00 731.15 C 1425.57 730.80 1422.34 727.44 1418.50 725.64 C 1417.84 727.08 1417.21 728.53 1416.59 729.99 C 1405.23 729.99 1394.01 727.89 1382.65 728.31 C 1380.99 730.48 1380.04 734.66 1376.61 734.21 C 1371.80 734.28 1366.51 733.14 1361.95 735.12 C 1358.64 738.74 1356.71 743.40 1354.09 747.53 C 1340.92 745.34 1327.62 743.64 1314.25 743.67 C 1306.20 741.99 1298.22 744.52 1290.60 746.83 C 1288.74 740.97 1282.40 740.43 1277.24 739.77 C 1276.32 737.55 1275.34 735.35 1274.48 733.12 C 1271.87 733.46 1269.71 734.08 1267.21 734.50 C 1273.36 723.37 1277.40 711.23 1282.80 699.74 C 1284.71 695.42 1287.10 691.28 1288.38 686.72 C 1289.99 678.60 1288.93 670.24 1289.96 662.07 C 1290.58 655.64 1298.64 655.18 1303.29 652.84 C 1303.23 635.31 1307.72 617.88 1305.02 600.33 C 1304.16 596.28 1301.42 592.63 1301.59 588.41 C 1303.20 583.54 1307.82 580.42 1312.16 578.15 C 1316.88 575.71 1322.27 576.92 1327.21 577.83 C 1328.76 574.59 1330.81 571.52 1331.78 568.04 C 1329.97 563.84 1325.82 561.11 1324.21 556.79 C 1323.86 550.35 1329.25 546.11 1331.59 540.68 C 1332.95 536.95 1331.04 533.14 1330.04 529.59 Z" />
</g>
<g id="#6f7f7fff">
<path fill="#6f7f7f" fill-opacity="0" d=" M 788.35 570.28 C 798.90 582.79 809.73 595.10 821.01 606.98 C 835.51 621.96 850.85 636.10 865.45 650.98 C 871.70 656.94 877.36 664.09 885.62 667.29 C 889.03 666.03 891.21 662.54 894.75 661.51 C 898.89 660.63 902.71 663.59 905.36 666.45 C 907.06 670.01 906.83 674.09 907.45 677.93 C 906.62 681.56 905.19 685.58 906.77 689.20 C 908.86 694.45 910.89 699.76 912.49 705.20 C 908.69 708.86 904.96 712.60 901.34 716.43 C 895.65 721.57 888.40 724.51 881.59 727.82 C 879.36 725.68 877.05 723.61 874.76 721.57 C 869.34 725.71 862.97 728.39 857.70 732.75 C 853.39 736.41 847.37 734.73 842.33 736.37 C 842.57 739.13 843.17 741.92 842.83 744.71 C 841.90 747.75 839.41 749.96 837.41 752.33 C 840.22 767.15 841.94 782.22 845.57 796.87 C 841.60 798.49 837.39 800.03 833.03 799.41 C 824.42 797.18 817.49 790.12 808.22 790.09 C 803.74 790.26 799.79 787.42 797.37 783.83 C 792.59 769.04 788.93 753.88 785.59 738.70 C 793.44 733.52 799.45 725.51 801.58 716.33 C 802.38 710.71 796.76 707.47 792.81 704.82 C 786.42 701.15 783.81 693.94 780.10 688.05 C 774.94 687.63 769.32 686.66 765.79 682.48 C 760.42 676.17 756.59 668.26 755.42 660.04 C 754.21 651.94 761.57 646.54 764.63 639.82 C 767.80 632.39 773.07 626.21 777.48 619.53 C 782.70 611.47 775.64 602.10 777.77 593.44 C 779.02 589.00 778.25 584.40 777.43 579.97 C 781.47 577.21 785.13 573.96 788.35 570.28 M 855.56 693.20 C 856.30 697.34 857.28 701.48 858.36 705.55 C 861.46 703.40 863.76 700.38 865.50 697.07 C 862.82 694.44 859.39 692.69 855.56 693.20 Z" />
</g>
<g id="#2f7f3fff">
<path fill="#2f7f3f" fill-opacity="0" d=" M 531.73 580.92 C 540.68 579.55 549.89 579.83 558.64 577.24 C 560.46 586.52 570.04 591.12 578.32 593.32 C 590.31 595.53 604.58 594.06 613.84 603.48 C 612.60 605.50 610.87 607.41 610.48 609.82 C 610.46 614.57 615.04 618.31 614.26 623.18 C 613.65 628.48 613.26 633.80 613.34 639.15 C 614.11 648.42 621.59 655.65 622.18 664.93 C 619.63 673.39 613.75 680.28 608.24 687.01 C 610.71 688.84 613.19 690.66 615.68 692.50 C 613.47 696.71 610.40 700.35 607.23 703.87 C 602.80 703.61 597.98 701.58 593.86 703.92 C 591.98 704.81 590.35 706.36 588.25 706.71 C 578.96 707.47 569.64 707.62 560.35 708.20 C 560.48 700.33 562.25 690.12 554.61 684.97 C 545.34 683.13 535.76 680.88 526.24 681.92 C 526.43 678.99 526.62 676.05 526.85 673.12 C 524.47 672.82 522.10 672.55 519.72 672.32 C 521.71 665.61 525.60 659.81 530.11 654.59 C 530.34 648.53 524.79 644.06 520.84 640.24 C 514.99 635.65 510.20 629.90 506.08 623.75 C 513.50 614.76 524.45 609.79 532.24 601.22 C 534.14 598.67 536.70 595.58 535.69 592.19 C 534.56 588.37 533.04 584.67 531.73 580.92 Z" />
</g>
<g id="#ef3f00ff">
<path fill="#ef3f00" fill-opacity="0" d=" M 882.39 583.12 C 885.60 584.98 889.40 586.03 891.96 588.89 C 894.51 591.41 896.35 595.04 899.98 596.20 C 905.92 598.45 912.29 596.59 918.42 596.54 C 924.28 596.50 929.32 593.11 934.88 591.74 C 942.37 590.50 950.03 590.56 957.42 588.68 C 968.26 588.30 980.48 588.47 989.13 595.94 C 992.50 598.58 997.10 597.64 1000.99 597.02 C 1008.58 595.89 1015.42 591.78 1023.18 591.52 C 1031.18 591.45 1039.25 592.36 1047.22 591.10 C 1049.50 596.14 1053.46 600.43 1058.74 602.32 C 1063.49 604.05 1066.34 608.34 1069.26 612.18 C 1068.82 618.00 1068.65 623.90 1067.43 629.63 C 1062.50 626.23 1057.73 622.47 1052.09 620.28 C 1054.07 624.95 1056.17 629.60 1058.73 634.00 C 1051.88 638.09 1044.25 640.56 1037.20 644.24 C 1031.59 647.14 1025.75 649.55 1019.91 651.93 C 1019.03 646.08 1016.83 640.55 1014.83 635.03 C 1009.41 635.39 1005.80 638.89 1002.66 642.77 C 995.63 645.18 988.24 642.78 981.20 641.40 C 978.63 643.17 976.70 645.99 973.78 647.19 C 969.54 647.94 965.23 647.70 960.97 648.12 C 961.91 650.79 962.75 653.42 963.70 656.12 C 960.94 656.88 957.97 657.27 955.42 658.58 C 951.71 661.71 948.49 665.36 944.83 668.55 C 943.39 665.98 941.86 663.48 940.41 660.93 C 935.06 665.45 929.34 669.82 922.61 672.03 C 917.41 673.62 912.49 675.95 907.45 677.93 C 906.83 674.09 907.06 670.01 905.36 666.45 C 902.71 663.59 898.89 660.63 894.75 661.51 C 891.21 662.54 889.03 666.03 885.62 667.29 C 877.36 664.09 871.70 656.94 865.45 650.98 C 866.01 648.28 865.98 645.37 867.19 642.90 C 869.19 640.69 872.05 639.40 873.81 636.94 C 874.21 635.25 873.56 633.53 873.25 631.88 C 870.69 622.59 870.41 612.86 869.65 603.31 C 869.10 599.30 872.00 596.19 874.59 593.58 C 877.70 590.51 880.20 586.89 882.39 583.12 M 879.14 638.19 C 878.75 639.38 878.35 640.58 877.94 641.78 C 878.96 642.58 879.99 643.39 881.03 644.21 C 881.77 642.26 882.54 640.33 883.33 638.41 C 881.93 638.34 880.53 638.27 879.14 638.19 Z" />
</g>
<g id="#2f00bffe">
<path fill="#2f00bf" fill-opacity="0" d=" M 641.29 595.57 C 646.51 596.25 650.43 600.50 655.43 601.95 C 662.32 603.46 669.13 605.39 675.53 608.40 C 682.19 611.61 689.65 607.59 694.77 603.20 C 698.36 600.15 702.74 597.98 707.56 598.27 C 706.06 602.99 704.02 607.50 702.03 612.02 C 710.55 611.58 719.43 608.71 727.76 611.77 C 720.27 618.67 711.71 624.75 701.42 626.41 C 703.81 635.53 706.88 644.68 707.23 654.17 C 706.11 661.23 702.67 667.70 700.20 674.35 C 698.66 678.59 692.88 681.05 693.47 685.89 C 696.37 693.80 703.92 698.71 707.89 705.99 C 709.98 710.33 710.75 715.18 712.17 719.77 C 719.52 721.26 726.50 724.51 731.52 730.21 C 742.17 729.81 753.51 731.92 761.61 739.37 C 766.60 743.80 770.16 749.84 771.74 756.32 C 774.38 766.59 776.91 776.89 779.79 787.11 C 780.66 791.06 782.38 794.84 782.69 798.90 C 782.30 806.46 775.57 812.15 776.39 819.93 C 775.27 821.05 773.03 823.28 771.91 824.39 C 769.25 823.00 766.65 821.49 764.01 820.07 C 760.53 821.21 756.98 823.19 753.23 822.54 C 751.21 821.53 750.22 819.21 748.36 817.96 C 745.71 817.60 743.18 817.54 740.55 817.40 C 739.56 819.65 738.83 822.23 736.91 823.89 C 733.91 825.66 730.22 825.67 726.97 826.54 C 731.07 839.03 736.81 850.91 740.79 863.44 C 730.63 850.52 721.19 837.07 712.91 822.88 C 711.00 824.33 709.15 825.84 707.25 827.30 C 703.66 822.12 700.36 816.80 697.86 811.02 C 696.67 808.00 693.49 806.82 690.83 805.46 C 695.90 820.30 703.11 834.30 708.61 848.98 C 702.35 851.62 703.80 859.25 699.74 863.71 C 696.27 856.89 694.18 849.39 689.94 842.98 C 687.29 838.32 681.43 841.48 677.44 842.10 C 676.55 844.47 675.57 846.81 674.63 849.16 C 671.06 845.83 668.88 840.35 663.80 838.99 C 660.93 838.00 657.97 837.32 655.01 836.68 C 654.43 840.74 651.96 845.17 653.90 849.14 C 658.82 858.29 663.29 867.67 668.44 876.70 C 664.91 882.07 669.65 887.59 670.26 893.13 C 670.23 895.47 669.39 897.71 668.92 899.99 C 668.27 899.93 666.99 899.81 666.34 899.75 C 665.54 898.22 664.75 896.71 663.95 895.21 C 662.40 895.80 660.86 896.39 659.33 896.99 C 655.06 887.90 647.96 880.57 643.15 871.81 C 636.93 861.39 632.20 849.97 624.52 840.49 C 617.98 830.74 612.99 820.07 607.09 809.95 C 604.59 805.56 600.38 802.60 597.38 798.62 C 590.66 787.73 584.89 776.27 578.07 765.43 C 576.19 762.17 573.86 759.16 572.54 755.62 C 570.88 751.04 572.15 746.10 571.39 741.40 C 569.04 729.93 564.35 719.15 560.35 708.20 C 569.64 707.62 578.96 707.47 588.25 706.71 C 590.35 706.36 591.98 704.81 593.86 703.92 C 597.98 701.58 602.80 703.61 607.23 703.87 C 610.40 700.35 613.47 696.71 615.68 692.50 C 613.19 690.66 610.71 688.84 608.24 687.01 C 613.75 680.28 619.63 673.39 622.18 664.93 C 621.59 655.65 614.11 648.42 613.34 639.15 C 613.26 633.80 613.65 628.48 614.26 623.18 C 615.04 618.31 610.46 614.57 610.48 609.82 C 610.87 607.41 612.60 605.50 613.84 603.48 C 616.47 605.57 619.10 609.15 622.78 608.78 C 629.68 605.55 633.81 597.81 641.29 595.57 Z" />
</g>
<g id="#6fbf7fff">
<path fill="#6fbf7f" fill-opacity="0" d=" M 1073.23 607.78 C 1076.34 609.09 1080.10 609.77 1082.30 612.56 C 1084.24 616.84 1084.40 621.71 1085.41 626.26 C 1089.16 624.96 1094.76 622.88 1097.33 627.29 C 1099.25 634.84 1090.21 639.22 1089.37 646.28 C 1087.58 659.29 1085.36 672.25 1083.31 685.23 C 1085.04 685.73 1086.79 686.23 1088.54 686.75 C 1088.35 689.14 1088.28 691.55 1088.20 693.95 C 1083.39 694.41 1078.59 695.10 1073.77 695.44 C 1064.59 696.06 1055.30 694.68 1046.21 696.59 C 1037.00 698.23 1027.48 699.82 1019.08 704.14 C 1013.47 708.57 1010.25 715.28 1006.44 721.20 C 1003.05 718.72 999.96 715.83 996.27 713.85 C 992.40 711.97 987.97 712.36 983.81 712.00 C 986.39 718.00 989.47 723.78 992.16 729.73 C 980.40 725.10 973.51 711.74 960.40 710.08 C 951.67 708.02 943.51 713.50 934.90 713.47 C 927.15 711.60 920.54 706.11 912.49 705.20 C 910.89 699.76 908.86 694.45 906.77 689.20 C 905.19 685.58 906.62 681.56 907.45 677.93 C 912.49 675.95 917.41 673.62 922.61 672.03 C 929.34 669.82 935.06 665.45 940.41 660.93 C 941.86 663.48 943.39 665.98 944.83 668.55 C 948.49 665.36 951.71 661.71 955.42 658.58 C 957.97 657.27 960.94 656.88 963.70 656.12 C 962.75 653.42 961.91 650.79 960.97 648.12 C 965.23 647.70 969.54 647.94 973.78 647.19 C 976.70 645.99 978.63 643.17 981.20 641.40 C 988.24 642.78 995.63 645.18 1002.66 642.77 C 1005.80 638.89 1009.41 635.39 1014.83 635.03 C 1016.83 640.55 1019.03 646.08 1019.91 651.93 C 1025.75 649.55 1031.59 647.14 1037.20 644.24 C 1044.25 640.56 1051.88 638.09 1058.73 634.00 C 1056.17 629.60 1054.07 624.95 1052.09 620.28 C 1057.73 622.47 1062.50 626.23 1067.43 629.63 C 1068.65 623.90 1068.82 618.00 1069.26 612.18 C 1070.56 610.70 1071.89 609.24 1073.23 607.78 Z" />
</g>
<g id="#efbf00ff">
<path fill="#efbf00" fill-opacity="0" d=" M 727.76 611.77 C 732.61 613.68 736.38 617.38 740.01 621.00 C 744.70 625.69 750.19 629.49 754.82 634.26 C 757.40 637.14 760.75 639.28 764.63 639.82 C 761.57 646.54 754.21 651.94 755.42 660.04 C 756.59 668.26 760.42 676.17 765.79 682.48 C 769.32 686.66 774.94 687.63 780.10 688.05 C 783.81 693.94 786.42 701.15 792.81 704.82 C 796.76 707.47 802.38 710.71 801.58 716.33 C 799.45 725.51 793.44 733.52 785.59 738.70 C 788.93 753.88 792.59 769.04 797.37 783.83 C 795.31 785.49 793.27 787.17 791.26 788.89 C 788.51 787.18 785.74 785.48 783.01 783.78 C 781.92 784.87 780.86 786.00 779.79 787.11 C 776.91 776.89 774.38 766.59 771.74 756.32 C 770.16 749.84 766.60 743.80 761.61 739.37 C 753.51 731.92 742.17 729.81 731.52 730.21 C 726.50 724.51 719.52 721.26 712.17 719.77 C 710.75 715.18 709.98 710.33 707.89 705.99 C 703.92 698.71 696.37 693.80 693.47 685.89 C 692.88 681.05 698.66 678.59 700.20 674.35 C 702.67 667.70 706.11 661.23 707.23 654.17 C 706.88 644.68 703.81 635.53 701.42 626.41 C 711.71 624.75 720.27 618.67 727.76 611.77 Z" />
</g>
<g id="#6fbf00ff">
<path fill="#6fbf00" fill-opacity="0" d=" M 879.14 638.19 C 880.53 638.27 881.93 638.34 883.33 638.41 C 882.54 640.33 881.77 642.26 881.03 644.21 C 879.99 643.39 878.96 642.58 877.94 641.78 C 878.35 640.58 878.75 639.38 879.14 638.19 Z" />
</g>
<g id="#af00bfff">
<path fill="#af00bf" fill-opacity="0" d=" M 402.39 658.56 C 406.38 657.75 410.44 658.87 414.42 659.16 C 412.88 663.86 411.55 668.65 410.49 673.49 C 418.67 672.60 425.71 666.90 434.14 667.86 C 443.84 668.61 452.70 673.11 461.72 676.43 C 459.94 684.04 453.74 689.25 449.42 695.41 C 447.58 698.04 449.20 701.20 450.07 703.88 C 450.88 705.94 451.73 707.98 452.56 710.05 C 447.25 712.11 441.64 711.02 436.40 709.40 C 440.52 723.39 432.18 736.99 425.38 748.56 C 431.72 755.67 437.26 763.45 443.32 770.80 C 436.88 766.79 427.97 760.00 420.22 765.21 C 415.44 769.83 413.14 776.65 407.42 780.48 C 397.56 770.05 387.09 760.12 378.62 748.46 C 376.98 743.36 381.43 738.46 380.33 733.35 C 374.78 725.44 367.87 718.62 362.25 710.76 C 357.42 703.06 349.21 697.49 346.69 688.42 C 348.22 687.56 349.75 686.72 351.28 685.86 C 350.96 678.93 357.23 675.66 361.35 671.36 C 364.42 668.43 366.78 664.49 370.86 662.85 C 373.90 664.97 376.09 668.04 378.40 670.90 C 380.06 668.66 381.69 666.42 383.36 664.21 C 386.16 665.16 388.94 666.46 391.93 666.66 C 396.38 665.41 398.03 660.00 402.39 658.56 Z" />
</g>
<g id="#2f3f7fff">
<path fill="#2f3f7f" fill-opacity="0" d=" M 526.24 681.92 C 535.76 680.88 545.34 683.13 554.61 684.97 C 562.25 690.12 560.48 700.33 560.35 708.20 C 564.35 719.15 569.04 729.93 571.39 741.40 C 572.15 746.10 570.88 751.04 572.54 755.62 C 573.86 759.16 576.19 762.17 578.07 765.43 C 584.89 776.27 590.66 787.73 597.38 798.62 C 595.40 800.20 593.45 801.90 591.12 802.97 C 589.00 801.60 587.34 799.67 585.59 797.89 C 581.02 800.43 576.44 802.94 571.74 805.23 C 573.41 809.43 575.10 813.66 577.08 817.75 C 573.93 818.84 570.78 820.83 567.32 820.25 C 564.26 819.92 560.66 818.38 558.19 821.18 C 554.31 824.32 554.42 829.60 553.44 834.03 C 547.26 835.86 541.50 840.37 539.79 846.78 C 539.14 849.40 538.65 852.05 537.97 854.66 C 534.90 853.60 530.92 854.04 528.39 851.61 C 523.15 846.07 519.25 839.45 514.84 833.28 C 509.54 832.79 503.45 832.63 499.43 828.57 C 493.51 822.09 488.08 815.12 483.22 807.82 C 480.84 805.19 480.70 801.71 479.89 798.50 C 476.77 789.22 468.28 781.66 458.24 781.28 C 456.39 778.69 454.55 776.13 452.71 773.56 C 449.18 774.57 445.18 774.55 443.32 770.80 C 437.26 763.45 431.72 755.67 425.38 748.56 C 432.18 736.99 440.52 723.39 436.40 709.40 C 441.64 711.02 447.25 712.11 452.56 710.05 C 451.73 707.98 450.88 705.94 450.07 703.88 C 455.05 701.54 460.80 700.16 466.23 701.82 C 470.66 703.40 473.31 707.50 475.99 711.11 C 478.18 714.28 481.64 716.13 484.81 718.17 C 492.71 709.04 497.73 697.80 505.90 688.87 C 510.85 683.03 519.48 683.81 526.24 681.92 Z" />
</g>
<g id="#ef7f7fff">
<path fill="#ef7f7f" fill-opacity="0" d=" M 855.56 693.20 C 859.39 692.69 862.82 694.44 865.50 697.07 C 863.76 700.38 861.46 703.40 858.36 705.55 C 857.28 701.48 856.30 697.34 855.56 693.20 Z" />
</g>
<g id="#af7f3fff">
<path fill="#af7f3f" fill-opacity="0" d=" M 1073.77 695.44 C 1078.59 695.10 1083.39 694.41 1088.20 693.95 C 1087.96 697.86 1087.85 701.82 1087.94 705.74 C 1086.15 721.52 1082.51 737.05 1080.25 752.78 C 1080.09 755.89 1077.67 757.92 1075.31 759.57 C 1073.80 758.50 1072.31 757.43 1070.80 756.38 C 1069.41 757.92 1070.45 763.04 1067.16 763.27 C 1062.31 764.43 1057.68 761.23 1052.82 761.64 C 1049.03 762.04 1045.42 763.44 1042.04 765.13 C 1030.74 771.28 1019.23 777.79 1010.99 787.97 C 1009.74 784.68 1008.56 781.37 1007.55 778.01 C 1006.41 778.38 1005.28 778.75 1004.16 779.13 C 1007.28 786.67 1005.38 794.82 1004.93 802.67 C 1004.32 809.55 1003.57 816.42 1003.56 823.33 C 1003.62 829.01 1000.60 834.07 997.60 838.67 C 995.17 842.58 989.37 842.07 986.67 845.71 C 983.15 850.01 982.94 855.67 982.20 860.89 C 980.87 860.24 979.55 859.59 978.24 858.97 C 976.17 860.44 974.23 862.24 971.81 863.09 C 967.92 863.80 963.92 863.55 960.03 864.27 C 959.40 861.79 959.14 858.38 955.89 858.16 C 947.87 856.95 938.50 856.34 931.53 861.28 C 930.43 859.99 929.36 858.65 927.95 857.69 C 925.77 859.54 924.14 861.98 921.80 863.65 C 918.15 863.34 915.41 860.43 912.46 858.56 C 910.81 860.02 909.16 861.47 907.54 862.97 C 903.28 860.89 898.83 858.88 895.67 855.25 C 893.50 852.82 890.11 852.21 887.55 850.38 C 884.76 845.17 885.03 838.83 882.34 833.61 C 877.66 827.63 872.57 821.73 865.96 817.82 C 862.47 815.89 862.34 811.24 861.19 807.97 C 857.76 808.80 854.30 809.51 850.94 810.56 C 849.05 806.02 847.14 801.50 845.57 796.87 C 841.94 782.22 840.22 767.15 837.41 752.33 C 839.41 749.96 841.90 747.75 842.83 744.71 C 843.17 741.92 842.57 739.13 842.33 736.37 C 847.37 734.73 853.39 736.41 857.70 732.75 C 862.97 728.39 869.34 725.71 874.76 721.57 C 877.05 723.61 879.36 725.68 881.59 727.82 C 888.40 724.51 895.65 721.57 901.34 716.43 C 904.96 712.60 908.69 708.86 912.49 705.20 C 920.54 706.11 927.15 711.60 934.90 713.47 C 943.51 713.50 951.67 708.02 960.40 710.08 C 973.51 711.74 980.40 725.10 992.16 729.73 C 989.47 723.78 986.39 718.00 983.81 712.00 C 987.97 712.36 992.40 711.97 996.27 713.85 C 999.96 715.83 1003.05 718.72 1006.44 721.20 C 1010.25 715.28 1013.47 708.57 1019.08 704.14 C 1027.48 699.82 1037.00 698.23 1046.21 696.59 C 1055.30 694.68 1064.59 696.06 1073.77 695.44 Z" />
</g>
</svg>
