<?xml version="1.0" encoding="UTF-8" ?>
<!DOCTYPE svg PUBLIC "-//W3C//DTD SVG 1.1//EN" "http://www.w3.org/Graphics/SVG/1.1/DTD/svg11.dtd">
<svg width="1920pt" height="1080pt" viewBox="0 0 1920 1080" version="1.1" xmlns="http://www.w3.org/2000/svg">
<g id="#005f00ff">
<path fill="#005f00" fill-opacity="0" d=" M 694.24 184.27 C 697.70 184.87 701.06 185.95 704.29 187.36 C 704.79 190.70 707.66 194.36 705.73 197.68 C 704.03 200.53 701.45 202.70 699.15 205.04 C 701.45 207.53 704.06 209.77 706.07 212.53 C 706.61 215.39 705.90 218.29 705.91 221.16 C 709.67 221.77 713.46 222.13 717.19 222.91 C 717.23 228.12 716.21 233.35 717.52 238.50 C 719.16 241.07 722.37 241.86 724.97 243.15 C 724.69 238.82 724.76 234.47 725.57 230.20 C 729.95 231.92 733.77 235.32 738.48 236.08 C 741.71 234.06 744.50 229.17 749.02 231.93 C 754.35 237.39 756.59 245.31 756.64 252.85 C 756.21 260.11 761.14 266.47 760.21 273.74 C 755.54 280.43 753.29 288.41 754.33 296.52 C 753.75 307.49 757.39 319.87 750.73 329.73 C 747.26 329.67 743.07 328.58 740.41 331.36 C 736.47 335.27 734.32 340.51 731.75 345.34 C 727.21 338.76 723.89 331.36 718.88 325.10 C 715.27 320.62 709.93 318.07 705.83 314.17 C 703.87 310.58 704.73 306.17 703.41 302.40 C 700.24 299.70 696.60 297.65 693.02 295.58 C 687.65 301.22 681.63 306.24 674.53 309.59 C 672.84 304.87 670.06 300.66 667.12 296.65 C 666.29 297.61 665.48 298.57 664.66 299.52 C 661.23 292.20 657.65 284.94 654.58 277.45 C 652.24 272.41 654.40 266.90 654.49 261.62 C 651.61 260.31 647.73 260.96 645.20 258.79 C 640.97 254.22 639.01 248.15 636.39 242.63 C 632.92 235.15 629.47 227.66 626.03 220.17 C 629.67 218.48 633.28 216.69 636.79 214.73 C 644.27 210.77 649.79 203.76 657.87 200.81 C 665.50 197.12 673.07 202.97 680.56 204.20 C 685.30 207.20 688.53 202.20 691.70 199.76 C 695.26 195.44 694.60 189.46 694.24 184.27 Z" />
</g>
<g id="#005f7fff">
<path fill="#005f7f" fill-opacity="0" d=" M 715.20 188.19 C 718.75 185.88 723.46 182.44 727.63 185.34 C 738.12 191.25 739.18 204.79 747.19 212.80 C 752.98 216.43 759.92 220.44 767.03 218.10 C 768.97 217.72 771.20 217.07 772.01 215.00 C 775.34 207.45 772.57 198.27 777.01 191.03 C 777.51 187.92 780.41 187.86 782.65 187.64 C 788.40 187.42 793.98 189.62 799.73 189.32 C 813.00 186.83 826.82 190.47 838.85 196.10 C 840.22 197.11 843.63 198.07 842.55 200.28 C 838.25 206.29 835.03 212.93 832.25 219.75 C 830.59 224.90 825.53 227.47 822.45 231.58 C 819.74 237.04 824.29 243.11 829.63 244.33 C 836.57 246.19 844.47 246.10 849.64 252.05 C 850.73 256.10 846.75 258.72 843.79 260.51 C 834.45 262.77 824.60 261.83 815.34 259.64 C 811.58 259.08 807.21 257.20 803.59 259.35 C 800.63 265.23 799.65 273.83 792.52 276.45 C 781.87 280.18 770.61 276.34 760.21 273.74 C 761.14 266.47 756.21 260.11 756.64 252.85 C 756.59 245.31 754.35 237.39 749.02 231.93 C 744.50 229.17 741.71 234.06 738.48 236.08 C 733.77 235.32 729.95 231.92 725.57 230.20 C 724.76 234.47 724.69 238.82 724.97 243.15 C 722.37 241.86 719.16 241.07 717.52 238.50 C 716.21 233.35 717.23 228.12 717.19 222.91 C 713.46 222.13 709.67 221.77 705.91 221.16 C 705.90 218.29 706.61 215.39 706.07 212.53 C 704.06 209.77 701.45 207.53 699.15 205.04 C 701.45 202.70 704.03 200.53 705.73 197.68 C 707.66 194.36 704.79 190.70 704.29 187.36 C 707.53 189.22 711.91 190.73 715.20 188.19 Z" />
</g>
<g id="#bf1f7fff">
<path fill="#bf1f7f" fill-opacity="0" d=" M 832.25 219.75 C 835.03 212.93 838.25 206.29 842.55 200.28 C 844.47 208.48 845.61 216.83 846.86 225.16 C 855.93 229.68 866.27 230.76 875.13 235.78 C 881.46 239.70 888.97 235.33 895.72 237.42 C 900.16 238.65 905.15 241.18 909.63 238.56 C 913.82 235.34 914.44 228.84 919.27 226.29 C 925.00 226.59 930.36 230.87 936.20 228.64 C 942.24 227.20 948.27 224.99 954.59 225.69 C 963.77 226.45 972.84 228.40 982.08 228.49 C 985.11 235.81 986.56 243.63 988.87 251.18 C 992.89 258.34 998.39 264.59 1001.97 272.04 C 995.60 274.30 990.00 278.26 983.68 280.59 C 978.88 282.33 973.79 279.75 968.98 281.11 C 963.34 283.29 959.00 288.48 952.80 289.27 C 946.36 289.11 942.01 283.44 936.17 281.58 C 932.72 280.67 930.38 284.22 927.76 285.74 C 922.09 290.36 914.70 291.87 908.47 295.49 C 904.35 297.87 901.86 302.04 899.24 305.84 C 896.42 300.52 892.03 296.22 889.21 290.94 C 886.83 284.78 892.08 279.32 891.33 273.24 C 890.10 269.35 885.91 266.70 881.90 266.82 C 873.62 269.62 867.59 278.80 858.04 277.46 C 849.97 276.24 844.67 268.22 843.79 260.51 C 846.75 258.72 850.73 256.10 849.64 252.05 C 844.47 246.10 836.57 246.19 829.63 244.33 C 824.29 243.11 819.74 237.04 822.45 231.58 C 825.53 227.47 830.59 224.90 832.25 219.75 Z" />
</g>
<g id="#3f1f3fff">
<path fill="#3f1f3f" fill-opacity="0" d=" M 982.08 228.49 C 998.05 226.79 1013.69 231.02 1029.61 230.83 C 1035.15 231.55 1039.94 234.92 1045.35 236.25 C 1053.20 237.70 1061.87 236.65 1068.96 241.04 C 1075.73 245.83 1084.19 244.32 1091.98 245.28 C 1097.85 246.48 1104.06 250.86 1104.57 257.32 C 1105.23 268.15 1102.51 278.89 1102.37 289.66 C 1107.69 297.79 1119.53 297.92 1127.81 294.78 C 1130.21 296.67 1133.02 298.48 1134.09 301.50 C 1135.51 305.39 1136.03 309.80 1138.98 312.96 C 1141.54 316.26 1145.78 319.70 1144.52 324.41 C 1143.23 331.20 1134.03 330.42 1130.30 335.14 C 1129.09 338.56 1129.88 342.34 1129.67 345.91 C 1127.94 347.13 1126.21 348.33 1124.49 349.54 C 1116.87 345.44 1107.96 346.58 1099.89 344.24 C 1090.90 341.20 1091.11 329.78 1085.48 323.60 C 1080.27 320.45 1073.85 322.18 1068.18 322.16 C 1056.92 322.64 1045.59 325.78 1034.37 323.60 C 1029.39 322.38 1024.76 320.07 1020.24 317.74 C 1024.61 313.31 1030.28 310.87 1036.09 308.97 C 1040.56 307.82 1040.73 302.40 1041.87 298.85 C 1035.08 297.38 1028.06 297.12 1021.32 295.44 C 1016.95 293.59 1015.56 288.46 1013.30 284.75 C 1010.72 279.59 1006.73 275.27 1001.97 272.04 C 998.39 264.59 992.89 258.34 988.87 251.18 C 986.56 243.63 985.11 235.81 982.08 228.49 Z" />
</g>
<g id="#bf5f7ffe">
<path fill="#bf5f7f" fill-opacity="0" d=" M 803.59 259.35 C 807.21 257.20 811.58 259.08 815.34 259.64 C 824.60 261.83 834.45 262.77 843.79 260.51 C 844.67 268.22 849.97 276.24 858.04 277.46 C 867.59 278.80 873.62 269.62 881.90 266.82 C 885.91 266.70 890.10 269.35 891.33 273.24 C 892.08 279.32 886.83 284.78 889.21 290.94 C 892.03 296.22 896.42 300.52 899.24 305.84 C 895.52 311.54 890.16 316.28 887.56 322.64 C 883.75 338.70 881.20 355.14 876.08 370.87 C 865.80 369.71 855.50 368.26 845.13 368.42 C 833.93 368.71 822.88 366.08 811.68 366.49 C 801.84 366.75 792.25 364.31 783.07 361.00 C 777.04 359.26 770.83 358.22 764.74 356.77 C 763.41 349.94 766.23 343.33 766.29 336.66 C 762.40 332.56 755.97 331.62 750.73 329.73 C 757.39 319.87 753.75 307.49 754.33 296.52 C 753.29 288.41 755.54 280.43 760.21 273.74 C 770.61 276.34 781.87 280.18 792.52 276.45 C 799.65 273.83 800.63 265.23 803.59 259.35 Z" />
</g>
<g id="#3fdf00ff">
<path fill="#3fdf00" fill-opacity="0" d=" M 983.68 280.59 C 990.00 278.26 995.60 274.30 1001.97 272.04 C 1006.73 275.27 1010.72 279.59 1013.30 284.75 C 1015.56 288.46 1016.95 293.59 1021.32 295.44 C 1028.06 297.12 1035.08 297.38 1041.87 298.85 C 1040.73 302.40 1040.56 307.82 1036.09 308.97 C 1030.28 310.87 1024.61 313.31 1020.24 317.74 C 1015.11 320.69 1009.21 322.12 1004.40 325.65 C 999.61 328.63 997.11 334.15 992.23 336.98 C 989.58 338.66 986.52 339.87 984.42 342.28 C 979.80 348.62 978.84 356.69 975.35 363.57 C 972.01 367.91 966.60 370.09 962.47 373.57 C 958.22 376.56 956.75 381.80 953.72 385.79 C 951.06 389.17 948.06 392.25 945.05 395.30 C 937.71 390.60 932.37 383.51 924.92 378.99 C 920.81 383.08 916.82 387.70 911.20 389.69 C 910.62 385.01 909.79 379.23 905.05 376.93 C 896.09 372.48 885.80 372.35 876.08 370.87 C 881.20 355.14 883.75 338.70 887.56 322.64 C 890.16 316.28 895.52 311.54 899.24 305.84 C 901.86 302.04 904.35 297.87 908.47 295.49 C 914.70 291.87 922.09 290.36 927.76 285.74 C 930.38 284.22 932.72 280.67 936.17 281.58 C 942.01 283.44 946.36 289.11 952.80 289.27 C 959.00 288.48 963.34 283.29 968.98 281.11 C 973.79 279.75 978.88 282.33 983.68 280.59 Z" />
</g>
<g id="#3f9f7fff">
<path fill="#3f9f7f" fill-opacity="0" d=" M 1171.17 277.09 C 1175.27 273.27 1181.57 276.63 1186.07 277.87 C 1196.88 282.88 1209.13 278.82 1220.38 281.64 C 1229.78 285.77 1237.49 293.47 1247.50 296.37 C 1254.14 299.17 1258.91 292.77 1264.77 291.61 C 1271.48 294.45 1274.16 301.99 1279.37 306.66 C 1282.13 309.38 1286.06 310.15 1289.48 311.74 C 1292.24 313.73 1294.65 316.15 1297.17 318.44 C 1293.77 323.74 1289.31 328.30 1286.17 333.77 C 1285.44 337.90 1285.01 342.09 1284.53 346.27 C 1279.00 348.51 1273.02 349.05 1267.14 349.57 C 1257.81 350.76 1251.64 341.03 1242.23 341.47 C 1241.52 345.15 1242.42 349.72 1239.64 352.65 C 1233.65 355.87 1226.29 352.56 1221.67 348.42 C 1219.57 345.28 1219.19 341.37 1218.17 337.82 C 1206.99 340.03 1196.07 344.00 1184.56 344.17 C 1181.95 343.78 1178.31 343.46 1177.52 340.43 C 1175.97 336.02 1176.65 331.17 1176.20 326.61 C 1172.35 326.85 1167.43 325.02 1164.77 328.65 C 1160.06 334.37 1158.29 341.74 1155.18 348.30 C 1153.31 352.12 1148.51 353.08 1144.72 351.96 C 1138.17 349.27 1130.96 352.12 1124.49 349.54 C 1126.21 348.33 1127.94 347.13 1129.67 345.91 C 1129.88 342.34 1129.09 338.56 1130.30 335.14 C 1134.03 330.42 1143.23 331.20 1144.52 324.41 C 1145.78 319.70 1141.54 316.26 1138.98 312.96 C 1136.03 309.80 1135.51 305.39 1134.09 301.50 C 1133.02 298.48 1130.21 296.67 1127.81 294.78 L 1127.29 294.39 C 1135.54 293.36 1143.60 291.01 1152.00 291.24 C 1156.22 291.03 1160.52 291.66 1164.71 290.75 C 1167.15 286.36 1168.17 281.17 1171.17 277.09 Z" />
</g>
<g id="#bfdf7fff">
<path fill="#bfdf7f" fill-opacity="0" d=" M 637.71 295.84 C 645.60 293.90 649.73 302.84 656.89 303.76 C 660.03 303.72 662.82 302.02 664.66 299.52 C 665.48 298.57 666.29 297.61 667.12 296.65 C 670.06 300.66 672.84 304.87 674.53 309.59 C 674.92 316.48 672.23 322.93 670.75 329.54 C 669.71 333.07 672.84 335.79 674.63 338.43 C 677.12 341.33 677.55 345.25 678.67 348.79 C 673.96 351.68 667.13 353.00 664.77 358.52 C 663.48 372.01 673.43 383.38 672.97 396.80 C 668.20 401.78 662.42 405.76 658.18 411.23 C 655.72 414.33 652.96 417.18 650.33 420.13 C 654.12 426.73 657.14 434.59 654.40 442.16 C 647.99 441.03 640.67 440.22 636.37 434.69 C 630.14 427.15 625.62 418.43 620.34 410.25 C 623.74 403.97 626.82 397.21 626.95 389.96 C 627.98 381.47 622.54 374.30 620.93 366.31 C 620.08 358.72 624.28 349.75 618.57 343.45 C 614.09 338.65 610.39 333.15 607.70 327.16 C 604.23 319.46 599.11 312.55 596.55 304.46 C 610.30 301.77 623.68 296.94 637.71 295.84 Z" />
</g>
<g id="#009f3ffe">
<path fill="#009f3f" fill-opacity="0" d=" M 674.53 309.59 C 681.63 306.24 687.65 301.22 693.02 295.58 C 696.60 297.65 700.24 299.70 703.41 302.40 C 704.73 306.17 703.87 310.58 705.83 314.17 C 709.93 318.07 715.27 320.62 718.88 325.10 C 723.89 331.36 727.21 338.76 731.75 345.34 C 734.32 340.51 736.47 335.27 740.41 331.36 C 743.07 328.58 747.26 329.67 750.73 329.73 C 755.97 331.62 762.40 332.56 766.29 336.66 C 766.23 343.33 763.41 349.94 764.74 356.77 C 770.83 358.22 777.04 359.26 783.07 361.00 C 781.14 368.90 783.49 376.81 784.47 384.61 C 780.99 390.55 774.78 394.37 771.32 400.33 C 769.36 403.40 770.79 408.58 774.70 409.10 C 778.81 409.85 782.97 410.63 786.73 412.58 C 784.71 417.89 780.23 421.50 775.89 424.87 C 769.27 430.34 763.79 437.00 757.57 442.89 C 754.50 439.12 751.48 434.37 746.23 433.63 C 739.22 432.59 732.10 432.38 725.02 432.48 C 725.64 426.85 722.61 421.07 717.56 418.59 C 711.27 416.56 704.29 417.57 698.21 414.78 C 688.64 410.56 681.31 402.88 672.97 396.80 C 673.43 383.38 663.48 372.01 664.77 358.52 C 667.13 353.00 673.96 351.68 678.67 348.79 C 677.55 345.25 677.12 341.33 674.63 338.43 C 672.84 335.79 669.71 333.07 670.75 329.54 C 672.23 322.93 674.92 316.48 674.53 309.59 Z" />
</g>
<g id="#7f9fbfff">
<path fill="#7f9fbf" fill-opacity="0" d=" M 1324.09 298.67 C 1331.39 298.77 1338.65 300.06 1345.67 302.08 C 1345.46 306.65 1344.66 311.27 1345.23 315.85 C 1347.80 321.04 1352.87 324.18 1357.11 327.86 C 1360.88 325.91 1365.28 324.50 1367.95 320.93 C 1369.94 325.45 1372.82 330.64 1370.67 335.62 C 1367.72 340.71 1363.17 344.97 1357.85 347.49 C 1348.76 349.70 1339.08 349.20 1330.20 352.36 C 1323.75 354.83 1322.31 362.36 1320.39 368.22 C 1317.74 380.01 1310.42 390.56 1300.70 397.64 C 1292.33 403.40 1281.84 407.49 1277.32 417.23 C 1276.17 420.02 1275.32 422.93 1274.50 425.84 C 1271.92 424.86 1268.78 423.49 1266.25 425.26 C 1261.15 427.99 1257.42 434.56 1250.77 432.95 C 1242.20 431.13 1234.58 426.18 1227.01 421.99 C 1223.04 419.73 1221.14 415.14 1217.25 412.84 C 1211.85 411.36 1206.22 411.87 1200.73 411.15 C 1196.24 410.33 1192.31 407.79 1188.36 405.67 C 1176.11 398.06 1163.76 390.30 1153.83 379.72 C 1154.39 375.59 1155.23 371.25 1153.77 367.21 C 1151.85 361.54 1147.63 357.10 1144.72 351.96 C 1148.51 353.08 1153.31 352.12 1155.18 348.30 C 1158.29 341.74 1160.06 334.37 1164.77 328.65 C 1167.43 325.02 1172.35 326.85 1176.20 326.61 C 1176.65 331.17 1175.97 336.02 1177.52 340.43 C 1178.31 343.46 1181.95 343.78 1184.56 344.17 C 1196.07 344.00 1206.99 340.03 1218.17 337.82 C 1219.19 341.37 1219.57 345.28 1221.67 348.42 C 1226.29 352.56 1233.65 355.87 1239.64 352.65 C 1242.42 349.72 1241.52 345.15 1242.23 341.47 C 1251.64 341.03 1257.81 350.76 1267.14 349.57 C 1273.02 349.05 1279.00 348.51 1284.53 346.27 C 1285.01 342.09 1285.44 337.90 1286.17 333.77 C 1289.31 328.30 1293.77 323.74 1297.17 318.44 C 1294.65 316.15 1292.24 313.73 1289.48 311.74 C 1294.21 311.02 1299.03 310.18 1303.87 310.37 C 1307.54 311.80 1311.15 313.64 1314.74 315.36 C 1317.90 309.82 1320.87 304.18 1324.09 298.67 M 1295.26 361.08 C 1292.63 365.86 1289.92 370.58 1286.95 375.15 C 1289.79 377.92 1292.68 380.89 1296.41 382.44 C 1301.59 383.17 1306.75 381.16 1311.92 380.79 C 1310.21 375.09 1308.68 369.34 1307.35 363.55 C 1303.29 362.73 1299.28 361.91 1295.26 361.08 Z" />
</g>
<g id="#3f9fbfff">
<path fill="#3f9fbf" fill-opacity="0" d=" M 1004.40 325.65 C 1009.21 322.12 1015.11 320.69 1020.24 317.74 C 1024.76 320.07 1029.39 322.38 1034.37 323.60 C 1045.59 325.78 1056.92 322.64 1068.18 322.16 C 1073.85 322.18 1080.27 320.45 1085.48 323.60 C 1091.11 329.78 1090.90 341.20 1099.89 344.24 C 1107.96 346.58 1116.87 345.44 1124.49 349.54 C 1130.96 352.12 1138.17 349.27 1144.72 351.96 C 1147.63 357.10 1151.85 361.54 1153.77 367.21 C 1155.23 371.25 1154.39 375.59 1153.83 379.72 C 1151.38 383.98 1148.34 387.94 1146.72 392.63 C 1144.56 398.91 1142.77 405.37 1139.36 411.12 C 1134.32 409.56 1129.38 407.60 1124.20 406.61 C 1117.66 405.68 1111.56 409.04 1105.99 411.91 C 1105.61 416.03 1105.18 420.13 1104.87 424.25 C 1101.97 425.09 1099.00 427.09 1095.92 426.15 C 1087.07 422.31 1081.40 414.16 1076.76 406.09 C 1073.26 399.27 1066.47 394.85 1059.31 392.70 C 1052.30 390.98 1045.91 394.98 1039.87 397.86 C 1031.33 402.38 1021.98 405.48 1014.10 411.18 C 1008.90 415.03 1008.12 421.90 1007.81 427.88 C 999.20 426.23 990.11 425.89 982.33 421.42 C 975.70 418.12 970.98 412.23 964.85 408.23 C 958.24 403.94 951.58 399.71 945.05 395.30 C 948.06 392.25 951.06 389.17 953.72 385.79 C 956.75 381.80 958.22 376.56 962.47 373.57 C 966.60 370.09 972.01 367.91 975.35 363.57 C 978.84 356.69 979.80 348.62 984.42 342.28 C 986.52 339.87 989.58 338.66 992.23 336.98 C 997.11 334.15 999.61 328.63 1004.40 325.65 Z" />
</g>
<g id="#3f9f3fff">
<path fill="#3f9f3f" fill-opacity="0" d=" M 1367.38 319.71 C 1372.97 319.38 1378.41 320.89 1383.37 323.40 C 1388.54 325.65 1391.57 330.70 1395.40 334.62 C 1399.57 339.44 1405.37 342.46 1411.25 344.72 C 1417.06 346.45 1423.26 346.06 1429.10 347.80 C 1440.08 349.19 1445.46 359.72 1452.26 366.95 C 1448.97 368.70 1445.66 370.50 1442.69 372.73 C 1438.88 376.44 1436.29 381.25 1432.50 384.95 C 1428.68 387.66 1423.29 384.55 1419.48 387.41 C 1415.35 391.49 1412.86 396.87 1409.03 401.19 C 1401.97 407.43 1391.11 405.82 1384.08 412.04 C 1379.80 417.16 1378.21 423.89 1375.37 429.81 C 1374.58 431.13 1373.31 432.86 1371.57 432.33 C 1365.92 431.40 1361.16 427.67 1357.48 423.48 C 1353.42 418.80 1352.63 412.31 1349.61 407.09 C 1346.50 403.81 1341.58 403.29 1337.47 402.15 C 1337.16 408.92 1338.73 416.04 1336.61 422.63 C 1335.04 427.08 1330.37 429.90 1325.82 430.32 C 1317.57 430.40 1308.72 429.11 1301.94 424.04 C 1297.37 421.08 1293.57 416.68 1288.32 414.88 C 1284.52 414.37 1280.90 416.27 1277.32 417.23 C 1281.84 407.49 1292.33 403.40 1300.70 397.64 C 1310.42 390.56 1317.74 380.01 1320.39 368.22 C 1322.31 362.36 1323.75 354.83 1330.20 352.36 C 1339.08 349.20 1348.76 349.70 1357.85 347.49 C 1363.17 344.97 1367.72 340.71 1370.67 335.62 C 1372.82 330.64 1369.94 325.45 1367.95 320.93 L 1367.38 319.71 Z" />
</g>
<g id="#7f9f3fff">
<path fill="#7f9f3f" fill-opacity="0" d=" M 783.07 361.00 C 792.25 364.31 801.84 366.75 811.68 366.49 C 822.88 366.08 833.93 368.71 845.13 368.42 C 855.50 368.26 865.80 369.71 876.08 370.87 C 885.80 372.35 896.09 372.48 905.05 376.93 C 909.79 379.23 910.62 385.01 911.20 389.69 C 911.74 397.95 908.81 406.17 903.55 412.51 C 898.77 418.23 896.78 425.50 893.90 432.22 C 891.94 436.93 886.69 438.76 883.78 442.70 C 881.35 446.09 879.34 449.75 877.17 453.32 C 874.31 446.56 872.56 439.06 867.40 433.56 C 861.57 428.02 854.85 422.94 847.06 420.59 C 841.11 419.08 836.71 424.72 831.15 425.43 C 822.73 422.92 817.54 414.39 808.97 412.09 C 803.69 410.62 798.96 413.86 793.88 414.48 C 791.34 414.76 789.00 413.52 786.73 412.58 C 782.97 410.63 778.81 409.85 774.70 409.10 C 770.79 408.58 769.36 403.40 771.32 400.33 C 774.78 394.37 780.99 390.55 784.47 384.61 C 783.49 376.81 781.14 368.90 783.07 361.00 Z" />
</g>
<g id="#bf9f3fff">
<path fill="#bf9f3f" fill-opacity="0" d=" M 1295.26 361.08 C 1299.28 361.91 1303.29 362.73 1307.35 363.55 C 1308.68 369.34 1310.21 375.09 1311.92 380.79 C 1306.75 381.16 1301.59 383.17 1296.41 382.44 C 1292.68 380.89 1289.79 377.92 1286.95 375.15 C 1289.92 370.58 1292.63 365.86 1295.26 361.08 Z" />
</g>
<g id="#7f5f7fff">
<path fill="#7f5f7f" fill-opacity="0" d=" M 1452.26 366.95 L 1453.07 366.52 C 1454.77 372.04 1456.81 377.69 1456.35 383.58 C 1456.49 389.80 1454.59 396.94 1458.58 402.41 C 1460.68 405.78 1463.99 411.06 1460.54 414.53 C 1444.99 430.32 1430.82 447.47 1415.05 463.05 C 1408.74 469.43 1399.02 466.25 1391.47 469.53 C 1384.26 474.17 1380.50 482.55 1373.68 487.60 C 1362.35 493.15 1348.29 485.57 1337.37 492.39 C 1328.11 497.91 1316.98 499.68 1306.35 498.54 C 1296.29 496.34 1285.90 495.92 1276.00 493.00 C 1271.83 491.84 1267.58 491.07 1263.38 490.20 C 1275.10 475.49 1283.97 458.78 1294.74 443.39 C 1287.64 437.94 1281.10 431.85 1274.50 425.84 C 1275.32 422.93 1276.17 420.02 1277.32 417.23 C 1280.90 416.27 1284.52 414.37 1288.32 414.88 C 1293.57 416.68 1297.37 421.08 1301.94 424.04 C 1308.72 429.11 1317.57 430.40 1325.82 430.32 C 1330.37 429.90 1335.04 427.08 1336.61 422.63 C 1338.73 416.04 1337.16 408.92 1337.47 402.15 C 1341.58 403.29 1346.50 403.81 1349.61 407.09 C 1352.63 412.31 1353.42 418.80 1357.48 423.48 C 1361.16 427.67 1365.92 431.40 1371.57 432.33 C 1373.31 432.86 1374.58 431.13 1375.37 429.81 C 1378.21 423.89 1379.80 417.16 1384.08 412.04 C 1391.11 405.82 1401.97 407.43 1409.03 401.19 C 1412.86 396.87 1415.35 391.49 1419.48 387.41 C 1423.29 384.55 1428.68 387.66 1432.50 384.95 C 1436.29 381.25 1438.88 376.44 1442.69 372.73 C 1445.66 370.50 1448.97 368.70 1452.26 366.95 Z" />
</g>
<g id="#bf1fbfff">
<path fill="#bf1fbf" fill-opacity="0" d=" M 924.92 378.99 C 932.37 383.51 937.71 390.60 945.05 395.30 C 951.58 399.71 958.24 403.94 964.85 408.23 C 970.98 412.23 975.70 418.12 982.33 421.42 C 990.11 425.89 999.20 426.23 1007.81 427.88 C 1015.34 429.87 1017.14 438.29 1018.12 444.94 C 1013.71 445.45 1009.30 445.03 1004.90 444.76 C 1001.26 444.33 996.88 447.75 999.03 451.96 C 1000.41 456.62 1005.73 458.66 1007.67 463.03 C 1009.45 468.25 1007.22 474.47 1010.87 479.07 C 1015.45 485.26 1022.16 491.41 1020.05 500.07 C 1015.85 507.32 1008.95 512.33 1003.23 518.27 C 998.85 524.67 998.37 533.60 992.11 538.82 C 983.64 542.84 974.12 541.33 965.54 538.69 C 961.99 544.98 962.11 552.11 964.17 558.79 C 960.15 564.47 957.25 570.81 954.32 577.09 C 948.53 577.84 941.60 579.50 936.55 575.50 C 931.25 571.19 927.14 565.60 923.23 560.07 C 917.22 548.12 917.50 534.69 917.50 521.72 C 917.35 509.45 908.17 499.98 899.23 492.67 C 893.76 485.30 896.05 475.03 891.80 467.13 C 887.29 462.20 880.56 459.33 877.17 453.32 C 879.34 449.75 881.35 446.09 883.78 442.70 C 886.69 438.76 891.94 436.93 893.90 432.22 C 896.78 425.50 898.77 418.23 903.55 412.51 C 908.81 406.17 911.74 397.95 911.20 389.69 C 916.82 387.70 920.81 383.08 924.92 378.99 Z" />
</g>
<g id="#3fdf7fff">
<path fill="#3fdf7f" fill-opacity="0" d=" M 1146.72 392.63 C 1148.34 387.94 1151.38 383.98 1153.83 379.72 C 1163.76 390.30 1176.11 398.06 1188.36 405.67 C 1192.31 407.79 1196.24 410.33 1200.73 411.15 C 1206.22 411.87 1211.85 411.36 1217.25 412.84 C 1221.14 415.14 1223.04 419.73 1227.01 421.99 C 1234.58 426.18 1242.20 431.13 1250.77 432.95 C 1257.42 434.56 1261.15 427.99 1266.25 425.26 C 1268.78 423.49 1271.92 424.86 1274.50 425.84 C 1281.10 431.85 1287.64 437.94 1294.74 443.39 C 1283.97 458.78 1275.10 475.49 1263.38 490.20 C 1256.13 499.17 1250.46 509.36 1243.75 518.76 C 1238.42 526.41 1234.38 535.08 1227.74 541.75 C 1223.57 545.87 1217.35 546.21 1212.21 548.44 C 1208.33 549.82 1206.19 553.56 1203.85 556.67 C 1201.13 555.70 1198.46 554.20 1195.50 554.29 C 1190.38 560.64 1186.83 568.10 1182.62 575.07 C 1176.99 569.32 1169.01 567.08 1161.62 564.50 C 1162.89 561.18 1164.26 557.90 1165.70 554.66 C 1154.41 556.12 1142.66 556.72 1132.11 561.36 C 1129.56 543.16 1129.40 524.61 1125.13 506.68 C 1122.69 503.60 1119.10 501.74 1115.89 499.58 C 1122.17 496.72 1126.94 491.55 1132.19 487.23 C 1139.31 481.01 1146.63 473.04 1146.08 462.90 C 1146.78 455.60 1145.12 447.17 1149.98 440.93 C 1153.78 436.20 1162.95 436.25 1163.53 429.14 C 1161.11 418.07 1148.98 413.90 1139.36 411.12 C 1142.77 405.37 1144.56 398.91 1146.72 392.63 Z" />
</g>
<g id="#bf9f7fff">
<path fill="#bf9f7f" fill-opacity="0" d=" M 1039.87 397.86 C 1045.91 394.98 1052.30 390.98 1059.31 392.70 C 1066.47 394.85 1073.26 399.27 1076.76 406.09 C 1081.40 414.16 1087.07 422.31 1095.92 426.15 C 1099.00 427.09 1101.97 425.09 1104.87 424.25 C 1105.18 420.13 1105.61 416.03 1105.99 411.91 C 1111.56 409.04 1117.66 405.68 1124.20 406.61 C 1129.38 407.60 1134.32 409.56 1139.36 411.12 C 1148.98 413.90 1161.11 418.07 1163.53 429.14 C 1162.95 436.25 1153.78 436.20 1149.98 440.93 C 1145.12 447.17 1146.78 455.60 1146.08 462.90 C 1146.63 473.04 1139.31 481.01 1132.19 487.23 C 1126.94 491.55 1122.17 496.72 1115.89 499.58 C 1109.62 501.06 1103.12 501.70 1097.10 504.10 C 1089.00 507.10 1082.66 513.69 1074.06 515.53 C 1067.18 514.17 1061.47 508.65 1054.18 509.12 C 1048.34 511.22 1045.91 517.79 1040.73 520.84 C 1036.68 521.36 1033.89 517.36 1031.32 514.88 C 1027.78 509.77 1024.01 504.85 1020.05 500.07 C 1022.16 491.41 1015.45 485.26 1010.87 479.07 C 1007.22 474.47 1009.45 468.25 1007.67 463.03 C 1005.73 458.66 1000.41 456.62 999.03 451.96 C 996.88 447.75 1001.26 444.33 1004.90 444.76 C 1009.30 445.03 1013.71 445.45 1018.12 444.94 C 1017.14 438.29 1015.34 429.87 1007.81 427.88 C 1008.12 421.90 1008.90 415.03 1014.10 411.18 C 1021.98 405.48 1031.33 402.38 1039.87 397.86 Z" />
</g>
<g id="#7fdf00ff">
<path fill="#7fdf00" fill-opacity="0" d=" M 672.97 396.80 C 681.31 402.88 688.64 410.56 698.21 414.78 C 704.29 417.57 711.27 416.56 717.56 418.59 C 722.61 421.07 725.64 426.85 725.02 432.48 C 724.11 436.50 722.86 440.44 721.88 444.45 C 727.82 446.88 734.34 450.74 734.94 457.94 C 737.26 465.89 730.67 472.65 730.93 480.49 C 729.87 486.04 733.88 492.50 730.08 497.46 C 726.51 501.67 722.00 505.11 719.25 509.99 C 718.30 507.70 717.05 505.48 716.67 503.02 C 717.80 499.17 720.15 495.81 721.61 492.08 C 718.12 490.98 713.98 489.01 710.64 491.61 C 702.57 495.34 698.88 504.09 691.44 508.48 C 683.30 509.93 676.34 504.49 668.88 502.19 C 663.23 500.02 655.85 499.26 652.53 493.45 C 647.12 485.16 641.24 477.16 636.46 468.49 C 633.05 462.25 635.90 453.55 642.26 450.55 C 646.26 448.18 653.45 447.90 654.40 442.16 C 657.14 434.59 654.12 426.73 650.33 420.13 C 652.96 417.18 655.72 414.33 658.18 411.23 C 662.42 405.76 668.20 401.78 672.97 396.80 Z" />
</g>
<g id="#001f3fff">
<path fill="#001f3f" fill-opacity="0" d=" M 793.88 414.48 C 798.96 413.86 803.69 410.62 808.97 412.09 C 817.54 414.39 822.73 422.92 831.15 425.43 C 836.71 424.72 841.11 419.08 847.06 420.59 C 854.85 422.94 861.57 428.02 867.40 433.56 C 872.56 439.06 874.31 446.56 877.17 453.32 C 880.56 459.33 887.29 462.20 891.80 467.13 C 896.05 475.03 893.76 485.30 899.23 492.67 C 908.17 499.98 917.35 509.45 917.50 521.72 C 917.50 534.69 917.22 548.12 923.23 560.07 C 923.28 566.85 918.27 572.64 912.46 575.41 C 905.58 575.60 899.92 571.12 893.30 570.05 C 878.94 566.73 866.56 557.31 851.61 556.09 C 838.07 554.02 824.66 558.66 811.16 558.67 C 804.80 557.71 801.79 551.26 798.66 546.42 C 801.76 542.79 804.96 539.24 808.05 535.59 C 804.60 534.88 801.27 534.15 797.86 533.39 C 798.45 528.99 799.09 524.40 801.64 520.63 C 805.06 515.56 810.93 512.15 812.45 505.86 C 813.26 498.90 808.65 492.62 803.75 488.23 C 801.69 485.07 798.00 487.45 795.34 488.36 C 790.13 491.18 785.18 494.55 779.50 496.42 C 781.04 489.85 785.84 484.95 790.10 480.02 C 794.92 474.54 791.86 466.30 792.23 459.79 C 785.44 457.03 777.98 457.52 770.94 456.02 C 765.24 453.21 761.74 447.47 757.57 442.89 C 763.79 437.00 769.27 430.34 775.89 424.87 C 780.23 421.50 784.71 417.89 786.73 412.58 C 789.00 413.52 791.34 414.76 793.88 414.48 M 826.93 481.05 C 825.77 486.14 824.82 491.29 823.91 496.44 C 834.50 496.84 844.90 499.67 855.52 499.53 C 854.87 495.71 854.59 491.84 854.47 487.98 C 850.99 485.44 847.61 482.60 843.64 480.90 C 838.15 479.64 832.46 480.87 826.93 481.05 Z" />
</g>
<g id="#bfdf00ff">
<path fill="#bfdf00" fill-opacity="0" d=" M 725.02 432.48 C 732.10 432.38 739.22 432.59 746.23 433.63 C 751.48 434.37 754.50 439.12 757.57 442.89 C 761.74 447.47 765.24 453.21 770.94 456.02 C 777.98 457.52 785.44 457.03 792.23 459.79 C 791.86 466.30 794.92 474.54 790.10 480.02 C 785.84 484.95 781.04 489.85 779.50 496.42 C 785.18 494.55 790.13 491.18 795.34 488.36 C 798.00 487.45 801.69 485.07 803.75 488.23 C 808.65 492.62 813.26 498.90 812.45 505.86 C 810.93 512.15 805.06 515.56 801.64 520.63 C 799.09 524.40 798.45 528.99 797.86 533.39 C 801.27 534.15 804.60 534.88 808.05 535.59 C 804.96 539.24 801.76 542.79 798.66 546.42 C 798.34 552.61 804.08 558.52 800.72 564.54 C 795.92 573.78 788.83 581.56 783.14 590.23 C 780.42 594.19 781.13 599.18 780.29 603.70 C 780.00 606.93 776.65 608.39 774.48 610.30 C 776.40 614.11 778.73 617.70 780.58 621.56 C 779.52 622.65 778.46 623.73 777.46 624.87 C 777.06 624.66 776.26 624.25 775.86 624.05 C 771.80 622.79 767.63 621.94 763.62 620.54 C 758.17 616.33 755.74 609.34 751.87 603.76 C 748.95 604.75 746.16 606.33 743.04 606.62 C 740.53 605.90 738.67 603.89 736.90 602.08 C 724.59 588.13 716.42 571.28 705.82 556.13 C 702.62 550.98 697.13 546.14 698.72 539.43 C 700.16 532.70 701.86 526.02 703.26 519.27 C 709.51 522.60 715.83 526.02 723.07 526.46 C 723.87 524.27 724.67 522.08 725.36 519.86 C 726.18 518.06 724.88 516.35 723.68 515.13 C 722.17 513.44 720.72 511.70 719.25 509.99 C 722.00 505.11 726.51 501.67 730.08 497.46 C 733.88 492.50 729.87 486.04 730.93 480.49 C 730.67 472.65 737.26 465.89 734.94 457.94 C 734.34 450.74 727.82 446.88 721.88 444.45 C 722.86 440.44 724.11 436.50 725.02 432.48 Z" />
</g>
<g id="#7f1f3ffe">
<path fill="#7f1f3f" fill-opacity="0" d=" M 826.93 481.05 C 832.46 480.87 838.15 479.64 843.64 480.90 C 847.61 482.60 850.99 485.44 854.47 487.98 C 854.59 491.84 854.87 495.71 855.52 499.53 C 844.90 499.67 834.50 496.84 823.91 496.44 C 824.82 491.29 825.77 486.14 826.93 481.05 Z" />
</g>
<g id="#bf1f3fff">
<path fill="#bf1f3f" fill-opacity="0" d=" M 1003.23 518.27 C 1008.95 512.33 1015.85 507.32 1020.05 500.07 C 1024.01 504.85 1027.78 509.77 1031.32 514.88 C 1033.89 517.36 1036.68 521.36 1040.73 520.84 C 1045.91 517.79 1048.34 511.22 1054.18 509.12 C 1061.47 508.65 1067.18 514.17 1074.06 515.53 C 1082.66 513.69 1089.00 507.10 1097.10 504.10 C 1103.12 501.70 1109.62 501.06 1115.89 499.58 C 1119.10 501.74 1122.69 503.60 1125.13 506.68 C 1129.40 524.61 1129.56 543.16 1132.11 561.36 C 1128.74 563.14 1125.73 566.45 1121.73 566.51 C 1116.44 564.59 1112.97 559.12 1107.22 558.13 C 1104.10 560.32 1102.75 564.05 1101.47 567.48 C 1098.53 577.73 1091.18 585.70 1085.78 594.65 C 1080.65 603.37 1073.75 610.87 1068.52 619.51 C 1063.65 627.14 1058.28 635.15 1050.19 639.64 C 1044.77 641.47 1038.86 642.10 1033.30 640.44 C 1027.53 639.18 1023.19 634.84 1019.13 630.86 C 1014.88 626.84 1010.85 622.25 1008.93 616.62 C 1007.52 609.89 1009.21 603.06 1009.08 596.30 C 1007.57 589.92 1002.86 584.80 1000.04 578.99 C 995.23 571.06 991.97 561.24 983.32 556.66 C 976.95 554.36 970.43 557.58 964.17 558.79 C 962.11 552.11 961.99 544.98 965.54 538.69 C 974.12 541.33 983.64 542.84 992.11 538.82 C 998.37 533.60 998.85 524.67 1003.23 518.27 Z" />
</g>
<g id="#88df00fe">
<path fill="#88df00" fill-opacity="0" d=" M 723.68 515.13 C 724.88 516.35 726.18 518.06 725.36 519.86 C 723.44 519.52 722.52 516.60 723.68 515.13 Z" />
</g>
<g id="#7f1fbffe">
<path fill="#7f1fbf" fill-opacity="0" d=" M 800.72 564.54 C 804.08 558.52 798.34 552.61 798.66 546.42 C 801.79 551.26 804.80 557.71 811.16 558.67 C 824.66 558.66 838.07 554.02 851.61 556.09 C 866.56 557.31 878.94 566.73 893.30 570.05 C 887.67 573.18 882.61 577.17 877.79 581.42 C 871.25 586.74 863.55 590.35 855.44 592.56 C 853.47 598.18 853.25 604.97 848.72 609.39 C 842.63 613.28 834.00 609.26 828.74 614.70 C 823.83 619.42 819.53 625.09 813.34 628.24 C 808.26 630.77 801.91 630.38 797.67 634.59 C 793.34 638.54 789.82 643.40 784.76 646.51 C 783.69 645.13 782.56 643.83 781.43 642.53 C 775.96 645.58 770.52 648.74 764.59 650.82 C 765.32 648.34 767.48 645.65 765.97 643.06 C 763.78 638.40 759.53 634.45 759.27 629.06 C 760.15 625.97 762.21 623.39 763.62 620.54 C 767.63 621.94 771.80 622.79 775.86 624.05 C 773.69 625.38 776.76 626.90 777.46 624.87 C 778.46 623.73 779.52 622.65 780.58 621.56 C 778.73 617.70 776.40 614.11 774.48 610.30 C 776.65 608.39 780.00 606.93 780.29 603.70 C 781.13 599.18 780.42 594.19 783.14 590.23 C 788.83 581.56 795.92 573.78 800.72 564.54 Z" />
</g>
<g id="#bf5f00ff">
<path fill="#bf5f00" fill-opacity="0" d=" M 964.17 558.79 C 970.43 557.58 976.95 554.36 983.32 556.66 C 991.97 561.24 995.23 571.06 1000.04 578.99 C 1002.86 584.80 1007.57 589.92 1009.08 596.30 C 1009.21 603.06 1007.52 609.89 1008.93 616.62 C 1010.85 622.25 1014.88 626.84 1019.13 630.86 C 1023.19 634.84 1027.53 639.18 1033.30 640.44 C 1038.86 642.10 1044.77 641.47 1050.19 639.64 C 1053.04 641.47 1055.41 643.95 1056.90 647.02 C 1049.20 655.94 1040.23 663.61 1031.82 671.83 C 1025.68 678.45 1016.11 679.81 1009.44 685.70 C 1001.80 693.09 995.59 701.81 989.12 710.19 C 982.02 718.20 973.06 724.13 964.77 730.76 C 957.98 736.43 950.42 741.16 942.13 744.27 C 942.99 737.52 945.50 728.76 939.14 723.91 C 934.17 719.77 929.17 715.53 923.37 712.58 C 928.12 701.31 932.90 690.01 939.61 679.72 C 941.42 676.04 945.09 671.61 942.64 667.36 C 937.56 658.63 928.63 653.36 921.72 646.28 C 917.51 641.80 915.47 635.87 912.02 630.88 C 909.49 627.16 905.70 624.61 902.66 621.37 C 892.10 609.43 889.91 592.23 877.79 581.42 C 882.61 577.17 887.67 573.18 893.30 570.05 C 899.92 571.12 905.58 575.60 912.46 575.41 C 918.27 572.64 923.28 566.85 923.23 560.07 C 927.14 565.60 931.25 571.19 936.55 575.50 C 941.60 579.50 948.53 577.84 954.32 577.09 C 957.25 570.81 960.15 564.47 964.17 558.79 Z" />
</g>
<g id="#bf9f00ff">
<path fill="#bf9f00" fill-opacity="0" d=" M 1132.11 561.36 C 1142.66 556.72 1154.41 556.12 1165.70 554.66 C 1164.26 557.90 1162.89 561.18 1161.62 564.50 C 1169.01 567.08 1176.99 569.32 1182.62 575.07 C 1183.81 576.18 1184.97 577.34 1186.17 578.47 C 1184.31 582.09 1182.85 586.02 1180.10 589.10 C 1175.56 593.31 1167.51 592.42 1164.33 598.19 C 1162.95 603.88 1168.18 610.27 1164.44 615.44 C 1160.33 619.02 1154.91 615.79 1150.39 614.96 C 1148.12 619.94 1145.05 624.78 1144.57 630.36 C 1144.19 635.73 1142.88 642.04 1137.57 644.64 C 1129.89 648.17 1121.44 645.34 1113.52 644.75 C 1103.17 643.01 1093.07 648.16 1082.74 646.48 C 1077.40 644.96 1073.21 641.00 1068.68 637.97 C 1064.45 640.56 1060.25 643.32 1056.90 647.02 C 1055.41 643.95 1053.04 641.47 1050.19 639.64 C 1058.28 635.15 1063.65 627.14 1068.52 619.51 C 1073.75 610.87 1080.65 603.37 1085.78 594.65 C 1091.18 585.70 1098.53 577.73 1101.47 567.48 C 1102.75 564.05 1104.10 560.32 1107.22 558.13 C 1112.97 559.12 1116.44 564.59 1121.73 566.51 C 1125.73 566.45 1128.74 563.14 1132.11 561.36 Z" />
</g>
<g id="#009fbfff">
<path fill="#009fbf" fill-opacity="0" d=" M 1180.10 589.10 C 1182.85 586.02 1184.31 582.09 1186.17 578.47 C 1190.47 582.74 1194.93 587.13 1197.19 592.90 C 1201.07 601.88 1207.60 610.71 1217.30 613.76 C 1222.12 615.36 1225.59 619.21 1228.12 623.49 C 1222.37 632.21 1214.96 639.66 1209.17 648.33 C 1208.08 656.83 1215.81 662.67 1217.53 670.55 C 1221.15 681.25 1218.49 692.60 1213.41 702.27 C 1209.93 714.75 1201.94 725.04 1194.20 735.13 C 1189.95 739.83 1190.81 746.72 1189.51 752.48 C 1182.28 749.60 1175.63 745.38 1170.11 739.89 C 1165.51 735.03 1159.72 731.45 1153.38 729.33 C 1145.57 726.59 1137.19 732.31 1129.51 729.47 C 1116.06 722.44 1103.93 713.22 1091.56 704.50 C 1085.91 700.59 1080.43 694.65 1072.75 696.62 C 1070.99 700.65 1069.07 704.74 1065.80 707.81 C 1062.62 711.58 1057.78 713.96 1055.72 718.62 C 1053.65 723.24 1052.95 728.31 1051.46 733.12 C 1047.14 726.74 1049.48 718.20 1045.43 711.79 C 1038.55 703.96 1026.35 706.95 1018.98 700.00 C 1014.67 696.07 1011.64 691.05 1009.44 685.70 C 1016.11 679.81 1025.68 678.45 1031.82 671.83 C 1040.23 663.61 1049.20 655.94 1056.90 647.02 C 1060.25 643.32 1064.45 640.56 1068.68 637.97 C 1073.21 641.00 1077.40 644.96 1082.74 646.48 C 1093.07 648.16 1103.17 643.01 1113.52 644.75 C 1121.44 645.34 1129.89 648.17 1137.57 644.64 C 1142.88 642.04 1144.19 635.73 1144.57 630.36 C 1145.05 624.78 1148.12 619.94 1150.39 614.96 C 1154.91 615.79 1160.33 619.02 1164.44 615.44 C 1168.18 610.27 1162.95 603.88 1164.33 598.19 C 1167.51 592.42 1175.56 593.31 1180.10 589.10 Z" />
</g>
<g id="#7fdf7fff">
<path fill="#7fdf7f" fill-opacity="0" d=" M 855.44 592.56 C 863.55 590.35 871.25 586.74 877.79 581.42 C 889.91 592.23 892.10 609.43 902.66 621.37 C 905.70 624.61 909.49 627.16 912.02 630.88 C 915.47 635.87 917.51 641.80 921.72 646.28 C 928.63 653.36 937.56 658.63 942.64 667.36 C 945.09 671.61 941.42 676.04 939.61 679.72 C 932.90 690.01 928.12 701.31 923.37 712.58 C 917.51 714.82 910.72 715.62 904.91 712.84 C 898.43 709.10 893.69 703.06 887.33 699.21 C 881.18 696.77 875.35 701.19 869.34 702.04 C 858.90 705.80 850.82 696.50 841.15 694.85 C 834.04 693.86 827.28 690.38 824.25 683.65 C 821.74 679.21 819.65 674.46 816.56 670.40 C 810.00 664.34 800.22 664.23 793.35 658.70 C 789.75 655.20 787.71 650.50 784.76 646.51 C 789.82 643.40 793.34 638.54 797.67 634.59 C 801.91 630.38 808.26 630.77 813.34 628.24 C 819.53 625.09 823.83 619.42 828.74 614.70 C 834.00 609.26 842.63 613.28 848.72 609.39 C 853.25 604.97 853.47 598.18 855.44 592.56 Z" />
</g>
<g id="#000040ff">
<path fill="#000040" fill-opacity="0" d=" M 775.86 624.05 C 776.26 624.25 777.06 624.66 777.46 624.87 C 776.76 626.90 773.69 625.38 775.86 624.05 Z" />
</g>
<g id="#3f5f7fff">
<path fill="#3f5f7f" fill-opacity="0" d=" M 764.59 650.82 C 770.52 648.74 775.96 645.58 781.43 642.53 C 782.56 643.83 783.69 645.13 784.76 646.51 C 787.71 650.50 789.75 655.20 793.35 658.70 C 800.22 664.23 810.00 664.34 816.56 670.40 C 819.65 674.46 821.74 679.21 824.25 683.65 C 820.16 700.14 826.42 716.49 829.15 732.58 C 828.53 739.69 820.01 741.70 815.13 745.21 C 808.13 748.57 804.13 755.68 797.60 759.68 C 793.08 762.60 788.75 766.27 786.86 771.48 C 782.24 765.39 776.15 760.58 771.62 754.45 C 767.66 744.60 767.19 733.78 767.50 723.30 C 767.99 715.78 762.58 709.97 761.41 702.89 C 761.75 698.49 764.39 694.70 766.34 690.85 C 761.08 682.04 754.04 673.62 752.96 663.04 C 754.15 657.11 759.26 653.01 764.59 650.82 Z" />
</g>
<g id="#7f5f00ff">
<path fill="#7f5f00" fill-opacity="0" d=" M 824.25 683.65 C 827.28 690.38 834.04 693.86 841.15 694.85 C 850.82 696.50 858.90 705.80 869.34 702.04 C 875.35 701.19 881.18 696.77 887.33 699.21 C 893.69 703.06 898.43 709.10 904.91 712.84 C 910.72 715.62 917.51 714.82 923.37 712.58 C 929.17 715.53 934.17 719.77 939.14 723.91 C 945.50 728.76 942.99 737.52 942.13 744.27 C 940.79 751.93 937.87 759.65 939.44 767.50 C 940.58 778.78 947.47 788.93 956.67 795.34 C 962.10 799.41 965.73 805.39 967.38 811.93 C 969.22 817.64 971.00 823.39 973.11 829.02 C 967.47 831.93 961.18 833.25 954.89 833.75 C 943.81 834.48 933.13 837.83 922.17 839.34 C 916.88 839.97 912.38 836.33 907.67 834.62 C 902.47 831.92 896.21 832.88 891.06 830.17 C 888.96 820.87 894.46 811.59 893.53 802.35 C 888.43 795.91 879.37 792.92 871.32 794.33 C 865.25 795.77 859.78 798.80 853.92 800.80 C 848.79 802.61 843.29 801.15 838.27 799.75 C 833.47 798.26 828.39 798.65 823.44 798.57 C 823.54 802.47 822.79 807.13 825.83 810.18 C 831.86 815.25 839.84 816.65 846.50 820.58 C 850.91 823.47 850.77 830.49 846.57 833.53 C 840.72 837.71 833.01 836.77 826.61 839.61 C 821.08 841.84 817.54 846.95 812.79 850.30 C 808.30 851.10 804.01 848.55 799.91 847.19 C 792.16 844.38 785.14 839.98 777.56 836.79 C 778.94 825.95 781.45 815.14 786.26 805.27 C 788.26 801.17 791.75 798.04 793.97 794.08 C 795.85 787.95 794.12 781.58 793.79 775.40 C 791.44 774.15 789.14 772.82 786.86 771.48 C 788.75 766.27 793.08 762.60 797.60 759.68 C 804.13 755.68 808.13 748.57 815.13 745.21 C 820.01 741.70 828.53 739.69 829.15 732.58 C 826.42 716.49 820.16 700.14 824.25 683.65 M 828.21 722.25 C 829.41 724.41 830.39 727.12 832.97 728.00 C 840.04 731.15 847.29 733.91 854.39 737.00 C 852.55 732.99 852.66 727.06 848.14 724.87 C 842.05 721.49 834.89 722.46 828.21 722.25 Z" />
</g>
<g id="#3f1f7fff">
<path fill="#3f1f7f" fill-opacity="0" d=" M 989.12 710.19 C 995.59 701.81 1001.80 693.09 1009.44 685.70 C 1011.64 691.05 1014.67 696.07 1018.98 700.00 C 1026.35 706.95 1038.55 703.96 1045.43 711.79 C 1049.48 718.20 1047.14 726.74 1051.46 733.12 C 1057.05 740.41 1055.26 750.07 1054.41 758.57 C 1049.03 764.78 1042.54 769.89 1037.02 775.92 C 1030.95 785.04 1022.87 792.51 1014.91 799.93 C 1009.91 803.85 1004.66 809.12 997.83 809.15 C 992.21 808.14 988.00 803.03 982.24 802.67 C 976.71 804.70 972.06 808.45 967.38 811.93 C 965.73 805.39 962.10 799.41 956.67 795.34 C 947.47 788.93 940.58 778.78 939.44 767.50 C 937.87 759.65 940.79 751.93 942.13 744.27 C 950.42 741.16 957.98 736.43 964.77 730.76 C 973.06 724.13 982.02 718.20 989.12 710.19 Z" />
</g>
<g id="#3f5f00ff">
<path fill="#3f5f00" fill-opacity="0" d=" M 1072.75 696.62 C 1080.43 694.65 1085.91 700.59 1091.56 704.50 C 1103.93 713.22 1116.06 722.44 1129.51 729.47 C 1137.19 732.31 1145.57 726.59 1153.38 729.33 C 1159.72 731.45 1165.51 735.03 1170.11 739.89 C 1175.63 745.38 1182.28 749.60 1189.51 752.48 C 1190.60 756.22 1192.40 759.89 1192.54 763.84 C 1190.15 771.68 1184.36 777.99 1178.55 783.55 C 1169.33 792.47 1159.28 800.54 1148.60 807.63 C 1144.20 810.74 1140.27 814.83 1138.09 819.80 C 1135.28 829.92 1133.03 840.73 1126.12 849.00 C 1119.35 845.64 1111.60 843.44 1106.58 837.43 C 1101.69 831.65 1096.13 826.51 1090.58 821.39 C 1081.70 813.42 1074.87 803.04 1072.52 791.24 C 1069.72 782.56 1069.29 772.79 1063.80 765.20 C 1061.50 761.98 1057.82 760.31 1054.41 758.57 C 1055.26 750.07 1057.05 740.41 1051.46 733.12 C 1052.95 728.31 1053.65 723.24 1055.72 718.62 C 1057.78 713.96 1062.62 711.58 1065.80 707.81 C 1069.07 704.74 1070.99 700.65 1072.75 696.62 Z" />
</g>
<g id="#00df00ff">
<path fill="#00df00" fill-opacity="0" d=" M 828.21 722.25 C 834.89 722.46 842.05 721.49 848.14 724.87 C 852.66 727.06 852.55 732.99 854.39 737.00 C 847.29 733.91 840.04 731.15 832.97 728.00 C 830.39 727.12 829.41 724.41 828.21 722.25 Z" />
</g>
<g id="#3f1fbfff">
<path fill="#3f1fbf" fill-opacity="0" d=" M 1054.41 758.57 C 1057.82 760.31 1061.50 761.98 1063.80 765.20 C 1069.29 772.79 1069.72 782.56 1072.52 791.24 C 1074.87 803.04 1081.70 813.42 1090.58 821.39 C 1096.13 826.51 1101.69 831.65 1106.58 837.43 C 1111.60 843.44 1119.35 845.64 1126.12 849.00 C 1121.94 858.80 1118.98 869.06 1116.40 879.39 C 1115.48 883.43 1113.04 887.24 1109.25 889.10 C 1102.64 892.44 1095.66 895.03 1088.61 897.22 C 1079.62 899.49 1071.57 904.66 1062.18 905.43 C 1049.79 907.40 1041.77 918.40 1030.06 922.07 C 1021.18 925.97 1011.41 923.27 1003.01 919.52 C 1004.34 918.60 1005.67 917.70 1007.02 916.79 C 1003.33 905.52 999.66 894.25 996.01 882.97 C 994.17 877.33 989.96 872.92 987.72 867.49 C 985.85 861.49 986.73 854.83 983.81 849.15 C 980.78 842.15 975.85 836.15 973.11 829.02 C 971.00 823.39 969.22 817.64 967.38 811.93 C 972.06 808.45 976.71 804.70 982.24 802.67 C 988.00 803.03 992.21 808.14 997.83 809.15 C 1004.66 809.12 1009.91 803.85 1014.91 799.93 C 1022.87 792.51 1030.95 785.04 1037.02 775.92 C 1042.54 769.89 1049.03 764.78 1054.41 758.57 Z" />
</g>
<g id="#001fbfff">
<path fill="#001fbf" fill-opacity="0" d=" M 871.32 794.33 C 879.37 792.92 888.43 795.91 893.53 802.35 C 894.46 811.59 888.96 820.87 891.06 830.17 C 896.21 832.88 902.47 831.92 907.67 834.62 C 912.38 836.33 916.88 839.97 922.17 839.34 C 933.13 837.83 943.81 834.48 954.89 833.75 C 961.18 833.25 967.47 831.93 973.11 829.02 C 975.85 836.15 980.78 842.15 983.81 849.15 C 986.73 854.83 985.85 861.49 987.72 867.49 C 989.96 872.92 994.17 877.33 996.01 882.97 C 999.66 894.25 1003.33 905.52 1007.02 916.79 C 1005.67 917.70 1004.34 918.60 1003.01 919.52 C 992.38 916.06 981.18 914.81 970.52 911.45 C 965.85 917.53 961.37 923.79 956.29 929.54 C 953.26 925.33 950.53 920.99 948.05 916.46 C 945.63 917.61 943.37 918.99 941.17 920.50 C 932.90 920.23 924.64 920.88 916.54 922.58 C 913.01 925.43 911.40 932.98 905.71 931.29 C 897.55 928.82 888.64 930.24 880.93 926.15 C 874.05 924.23 871.64 916.23 865.07 913.94 C 859.31 911.12 852.87 909.30 847.91 905.16 C 842.75 896.97 842.20 886.82 836.93 878.66 C 831.64 880.26 826.56 882.44 821.66 884.99 C 808.33 881.21 796.38 874.01 783.98 868.02 C 779.69 865.54 774.66 863.76 771.44 859.84 C 769.31 854.93 766.91 850.16 764.76 845.27 C 769.03 842.45 773.43 839.81 777.56 836.79 C 785.14 839.98 792.16 844.38 799.91 847.19 C 804.01 848.55 808.30 851.10 812.79 850.30 C 817.54 846.95 821.08 841.84 826.61 839.61 C 833.01 836.77 840.72 837.71 846.57 833.53 C 850.77 830.49 850.91 823.47 846.50 820.58 C 839.84 816.65 831.86 815.25 825.83 810.18 C 822.79 807.13 823.54 802.47 823.44 798.57 C 828.39 798.65 833.47 798.26 838.27 799.75 C 843.29 801.15 848.79 802.61 853.92 800.80 C 859.78 798.80 865.25 795.77 871.32 794.33 Z" />
</g>
<g id="#cf3f5fff">
<path fill="#cf3f5f" fill-opacity="0" d=" M 0.00 1079.00 C 286.67 1079.00 573.33 1079.00 860.00 1079.00 L 860.01 1080.00 L 0.00 1080.00 L 0.00 1079.00 Z" />
</g>
<g id="#af3fbfff">
<path fill="#af3fbf" fill-opacity="0" d=" M 860.00 1079.00 C 1030.69 1079.13 1201.39 1078.73 1372.09 1079.20 L 1372.18 1080.00 L 860.01 1080.00 L 860.00 1079.00 Z" />
<path fill="#af3fbf" fill-opacity="0" d=" M 1374.91 1079.20 C 1383.99 1079.31 1393.08 1079.58 1402.19 1079.96 L 1401.13 1080.00 L 1374.82 1080.00 L 1374.91 1079.20 Z" />
</g>
<g id="#303fbfff">
<path fill="#303fbf" fill-opacity="0" d=" M 1372.09 1079.20 C 1372.79 1079.20 1374.20 1079.20 1374.91 1079.20 L 1374.82 1080.00 L 1372.18 1080.00 L 1372.09 1079.20 Z" />
</g>
<g id="#2f3fbfff">
<path fill="#2f3fbf" fill-opacity="0" d=" M 1402.19 1079.96 C 1432.74 1077.91 1463.39 1079.47 1494.00 1079.00 C 1636.00 1079.00 1778.00 1079.00 1920.00 1079.00 L 1920.00 1080.00 L 1401.13 1080.00 L 1402.19 1079.96 Z" />
</g>
</svg>
