<?xml version="1.0" encoding="UTF-8" ?>
<!DOCTYPE svg PUBLIC "-//W3C//DTD SVG 1.1//EN" "http://www.w3.org/Graphics/SVG/1.1/DTD/svg11.dtd">
<svg width="1920pt" height="1080pt" viewBox="0 0 1920 1080" version="1.1" xmlns="http://www.w3.org/2000/svg">
<g id="#5f5fdfff">
<path fill="#5f5fdf" fill-opacity="0" d=" M 1412.25 202.75 C 1416.01 202.00 1419.97 202.26 1423.82 202.30 C 1428.60 202.34 1432.36 205.68 1436.41 207.82 C 1433.56 215.02 1431.13 222.37 1428.57 229.67 C 1427.11 234.37 1421.68 235.26 1418.52 238.44 C 1413.50 241.62 1410.65 246.90 1408.50 252.26 C 1411.97 253.17 1416.01 253.32 1419.27 255.12 C 1422.57 258.14 1425.31 261.68 1428.65 264.72 C 1428.16 267.75 1427.68 270.79 1427.12 273.81 C 1430.61 278.29 1434.98 282.11 1438.26 286.77 C 1440.74 290.23 1438.16 294.49 1438.94 298.28 C 1440.53 302.23 1444.37 304.81 1445.95 308.79 C 1446.69 311.86 1447.27 315.08 1447.89 318.22 C 1424.38 321.65 1400.66 316.90 1377.16 319.56 C 1371.92 320.81 1365.27 319.78 1361.35 324.22 C 1357.48 328.95 1354.32 334.24 1351.28 339.53 C 1342.28 337.65 1333.30 334.81 1324.01 335.36 C 1312.27 335.95 1300.51 336.05 1288.80 337.15 C 1286.33 327.46 1277.51 321.17 1268.90 317.18 C 1264.97 315.00 1260.34 315.08 1256.26 313.40 C 1254.62 305.33 1255.75 296.76 1253.60 288.66 C 1255.68 288.39 1257.75 288.11 1259.84 287.83 C 1260.18 286.58 1260.55 285.34 1260.91 284.10 C 1280.70 282.07 1293.90 265.93 1308.52 254.37 C 1310.02 254.25 1311.27 256.55 1312.66 257.39 C 1314.92 259.88 1318.46 259.68 1321.53 259.97 C 1324.30 255.69 1326.83 250.89 1331.00 247.76 C 1337.67 246.22 1344.68 249.85 1351.25 247.35 C 1355.59 245.79 1360.39 245.62 1364.62 243.67 C 1367.15 233.37 1369.08 222.54 1374.25 213.22 C 1383.86 211.17 1394.23 213.92 1403.72 210.58 C 1407.05 208.55 1408.64 204.41 1412.25 202.75 Z" />
</g>
<g id="#9fdfdfff">
<path fill="#9fdfdf" fill-opacity="0" d=" M 1176.70 216.51 C 1182.82 221.88 1188.40 227.84 1194.57 233.18 C 1199.44 230.12 1205.70 229.53 1210.86 232.25 C 1216.74 235.31 1223.36 236.31 1229.82 237.45 C 1233.15 234.37 1235.99 229.30 1241.11 229.15 C 1242.38 228.79 1243.59 229.52 1243.98 230.78 C 1245.03 234.31 1244.31 238.37 1246.46 241.57 C 1254.83 248.92 1266.23 249.56 1276.50 252.37 C 1284.43 255.54 1291.95 249.99 1299.88 250.24 C 1303.02 250.95 1305.70 252.87 1308.52 254.37 C 1293.90 265.93 1280.70 282.07 1260.91 284.10 C 1260.55 285.34 1260.18 286.58 1259.84 287.83 C 1257.75 288.11 1255.68 288.39 1253.60 288.66 C 1255.75 296.76 1254.62 305.33 1256.26 313.40 C 1260.34 315.08 1264.97 315.00 1268.90 317.18 C 1277.51 321.17 1286.33 327.46 1288.80 337.15 C 1289.84 343.34 1290.29 349.60 1291.05 355.83 C 1285.70 358.78 1281.51 363.58 1275.83 365.91 C 1273.65 366.91 1271.66 365.21 1269.93 364.14 C 1265.03 360.65 1259.45 357.99 1253.61 356.55 C 1243.54 355.91 1238.14 367.59 1228.27 367.62 C 1227.29 365.44 1226.28 363.28 1225.23 361.14 C 1221.92 362.23 1218.60 363.23 1215.23 364.08 C 1209.74 356.38 1200.15 354.58 1191.57 352.30 C 1186.84 351.39 1185.26 346.38 1183.04 342.81 C 1175.17 344.31 1175.40 353.03 1171.07 358.03 C 1167.74 361.92 1165.02 366.71 1160.27 369.01 C 1157.22 370.59 1153.73 371.76 1151.65 374.68 C 1146.46 380.80 1147.06 389.36 1144.35 396.55 C 1142.46 401.76 1137.59 405.28 1135.92 410.59 C 1134.13 417.28 1134.97 424.28 1134.31 431.09 C 1134.12 434.42 1130.77 435.90 1128.19 437.16 C 1122.86 439.83 1116.57 442.08 1113.57 447.61 C 1111.27 453.04 1112.78 459.19 1114.30 464.64 C 1110.77 469.59 1108.18 475.07 1105.75 480.62 C 1096.72 483.50 1087.31 484.43 1078.04 482.19 C 1075.69 486.82 1073.24 491.67 1068.92 494.78 C 1070.44 477.87 1072.46 461.02 1074.16 444.13 C 1074.73 436.69 1077.62 429.80 1080.29 422.93 C 1075.85 421.55 1071.38 420.34 1066.89 419.21 C 1064.00 418.32 1062.31 421.88 1060.31 423.26 C 1056.11 427.99 1051.58 432.57 1048.30 438.00 C 1044.75 451.97 1043.41 466.38 1040.45 480.45 C 1037.25 482.89 1032.63 483.69 1030.68 487.55 C 1026.57 495.96 1022.33 504.35 1019.52 513.31 C 1018.57 517.68 1015.84 521.22 1012.96 524.48 C 1013.03 504.00 1015.11 483.57 1015.55 463.10 C 1013.62 461.81 1011.47 460.28 1011.58 457.68 C 1011.31 450.14 1011.27 441.97 1015.34 435.34 C 1017.96 430.66 1020.30 425.55 1019.46 419.99 C 1018.98 411.81 1021.28 402.95 1016.98 395.44 C 1014.49 381.02 1014.28 365.87 1017.67 351.54 C 1017.73 346.38 1022.42 343.35 1023.50 338.61 C 1025.07 332.31 1026.15 325.89 1028.15 319.70 C 1023.73 315.48 1017.54 314.50 1012.43 311.49 C 1007.90 308.76 1008.54 302.44 1008.66 297.98 C 1009.50 291.08 1007.65 283.08 1011.97 276.98 C 1014.51 273.19 1014.99 268.54 1016.38 264.30 C 1020.53 262.99 1025.07 263.55 1029.16 261.93 C 1032.87 260.40 1036.02 257.80 1039.69 256.18 C 1043.12 255.29 1046.74 255.57 1050.21 254.88 C 1053.43 254.22 1056.26 252.36 1059.51 251.79 C 1064.24 251.44 1069.05 252.19 1073.82 252.04 C 1077.20 251.44 1079.71 248.79 1082.70 247.26 C 1082.97 241.43 1084.87 235.30 1089.36 231.34 C 1095.70 228.97 1102.45 232.84 1108.87 233.22 C 1114.73 234.02 1118.82 239.64 1124.68 240.04 C 1131.92 238.51 1139.35 238.49 1146.70 239.27 C 1149.84 239.81 1152.68 241.47 1155.87 241.83 C 1166.11 236.15 1165.73 221.58 1176.70 216.51 M 1056.59 341.33 C 1055.44 342.38 1057.20 344.46 1058.39 343.33 C 1059.60 342.26 1057.76 340.22 1056.59 341.33 Z" />
</g>
<g id="#8f7f7ffe">
<path fill="#8f7f7f" fill-opacity="0" d=" M 1377.16 319.56 C 1400.66 316.90 1424.38 321.65 1447.89 318.22 C 1451.15 324.02 1455.65 329.26 1457.33 335.83 C 1459.03 341.95 1460.95 348.08 1464.37 353.48 C 1470.60 354.11 1476.63 356.76 1483.00 355.76 C 1487.00 355.72 1491.40 354.66 1495.04 356.93 C 1501.96 361.49 1506.94 368.66 1514.49 372.36 C 1518.11 374.35 1522.66 375.19 1525.28 378.66 C 1528.47 383.12 1531.75 387.53 1535.20 391.82 C 1537.49 394.40 1537.95 397.99 1537.24 401.27 C 1535.89 408.49 1536.52 416.26 1533.01 422.92 C 1529.14 431.17 1524.43 438.98 1520.12 446.99 C 1516.05 447.39 1512.11 448.54 1508.43 450.30 C 1504.40 452.18 1499.89 451.02 1495.66 450.91 C 1491.92 451.02 1488.48 452.92 1484.94 453.83 C 1476.51 456.81 1467.59 458.08 1459.28 461.43 C 1455.10 465.26 1454.00 471.14 1450.38 475.37 C 1447.16 479.11 1442.07 480.24 1438.43 483.43 C 1430.86 490.45 1424.37 499.02 1414.76 503.40 C 1411.78 505.00 1408.20 506.24 1406.45 509.35 C 1404.59 512.63 1403.36 516.21 1401.87 519.67 C 1398.54 520.19 1394.96 520.25 1392.04 522.13 C 1386.69 525.34 1380.72 527.24 1374.79 529.04 C 1374.39 522.25 1377.30 515.97 1379.76 509.81 C 1375.67 507.33 1371.47 503.90 1366.39 504.39 C 1359.95 505.09 1353.74 507.61 1348.65 511.59 C 1345.56 514.75 1344.65 519.21 1342.88 523.11 C 1337.93 521.69 1334.44 517.92 1332.23 513.47 C 1331.65 513.31 1330.48 512.99 1329.90 512.83 C 1328.39 516.49 1327.39 520.39 1325.41 523.83 C 1323.63 526.62 1319.50 525.61 1317.59 523.52 C 1312.88 518.37 1310.03 511.71 1305.07 506.80 C 1301.34 503.92 1298.87 509.87 1297.15 512.13 C 1292.58 520.44 1282.56 522.45 1275.01 527.04 C 1268.81 529.90 1265.21 535.99 1261.61 541.44 C 1257.02 542.56 1252.05 543.08 1248.45 546.47 C 1245.41 548.60 1243.22 551.74 1240.05 553.68 C 1237.51 554.52 1234.62 553.75 1232.09 553.88 C 1231.59 556.38 1231.04 558.86 1230.54 561.36 C 1224.09 562.08 1217.63 562.25 1211.17 562.00 C 1196.39 566.28 1183.62 575.33 1169.27 580.69 C 1162.38 581.34 1155.36 581.79 1148.72 579.53 C 1149.64 576.61 1150.00 572.73 1153.26 571.39 C 1159.76 568.45 1167.26 566.63 1172.05 560.92 C 1170.55 559.87 1169.10 558.85 1167.63 557.83 C 1170.41 548.01 1168.95 536.34 1176.26 528.29 C 1181.34 522.03 1190.19 521.30 1196.24 516.37 C 1196.88 510.54 1194.42 504.96 1192.27 499.68 C 1193.81 498.72 1195.37 497.75 1196.92 496.77 C 1197.18 495.72 1197.47 494.67 1197.80 493.64 C 1198.99 489.48 1201.37 485.59 1201.56 481.18 C 1201.66 474.92 1196.17 470.15 1195.93 464.03 C 1201.51 459.49 1207.79 455.14 1210.24 447.93 C 1210.87 445.16 1210.70 442.30 1210.75 439.49 C 1213.76 436.27 1217.61 433.50 1219.17 429.22 C 1220.87 424.85 1221.72 420.23 1222.66 415.66 C 1218.34 411.53 1214.46 407.00 1212.30 401.37 C 1217.12 397.51 1219.69 392.10 1221.75 386.50 C 1223.50 382.36 1227.76 380.35 1231.52 378.42 C 1229.77 376.07 1227.79 373.88 1226.34 371.37 C 1226.83 370.05 1227.58 368.84 1228.27 367.62 C 1238.14 367.59 1243.54 355.91 1253.61 356.55 C 1259.45 357.99 1265.03 360.65 1269.93 364.14 C 1271.66 365.21 1273.65 366.91 1275.83 365.91 C 1281.51 363.58 1285.70 358.78 1291.05 355.83 C 1290.29 349.60 1289.84 343.34 1288.80 337.15 C 1300.51 336.05 1312.27 335.95 1324.01 335.36 C 1333.30 334.81 1342.28 337.65 1351.28 339.53 C 1354.32 334.24 1357.48 328.95 1361.35 324.22 C 1365.27 319.78 1371.92 320.81 1377.16 319.56 Z" />
</g>
<g id="#5f5f5fff">
<path fill="#5f5f5f" fill-opacity="0" d=" M 1056.59 341.33 C 1057.76 340.22 1059.60 342.26 1058.39 343.33 C 1057.20 344.46 1055.44 342.38 1056.59 341.33 Z" />
</g>
<g id="#dfdfdfff">
<path fill="#dfdfdf" fill-opacity="0" d=" M 1171.07 358.03 C 1175.40 353.03 1175.17 344.31 1183.04 342.81 C 1185.26 346.38 1186.84 351.39 1191.57 352.30 C 1200.15 354.58 1209.74 356.38 1215.23 364.08 C 1218.60 363.23 1221.92 362.23 1225.23 361.14 C 1226.28 363.28 1227.29 365.44 1228.27 367.62 C 1227.58 368.84 1226.83 370.05 1226.34 371.37 C 1227.79 373.88 1229.77 376.07 1231.52 378.42 C 1227.76 380.35 1223.50 382.36 1221.75 386.50 C 1219.69 392.10 1217.12 397.51 1212.30 401.37 C 1214.46 407.00 1218.34 411.53 1222.66 415.66 C 1221.72 420.23 1220.87 424.85 1219.17 429.22 C 1217.61 433.50 1213.76 436.27 1210.75 439.49 C 1210.70 442.30 1210.87 445.16 1210.24 447.93 C 1207.79 455.14 1201.51 459.49 1195.93 464.03 C 1196.17 470.15 1201.66 474.92 1201.56 481.18 C 1201.37 485.59 1198.99 489.48 1197.80 493.64 C 1190.58 491.81 1184.14 488.11 1177.55 484.81 C 1173.40 482.15 1173.22 476.66 1171.65 472.42 C 1156.10 471.74 1144.75 484.51 1129.99 486.99 C 1121.53 488.63 1111.75 487.35 1105.75 480.62 C 1108.18 475.07 1110.77 469.59 1114.30 464.64 C 1112.78 459.19 1111.27 453.04 1113.57 447.61 C 1116.57 442.08 1122.86 439.83 1128.19 437.16 C 1130.77 435.90 1134.12 434.42 1134.31 431.09 C 1134.97 424.28 1134.13 417.28 1135.92 410.59 C 1137.59 405.28 1142.46 401.76 1144.35 396.55 C 1147.06 389.36 1146.46 380.80 1151.65 374.68 C 1153.73 371.76 1157.22 370.59 1160.27 369.01 C 1165.02 366.71 1167.74 361.92 1171.07 358.03 Z" />
</g>
<g id="#4f0000ff">
<path fill="#4f0000" fill-opacity="0" d=" M 1129.99 486.99 C 1144.75 484.51 1156.10 471.74 1171.65 472.42 C 1173.22 476.66 1173.40 482.15 1177.55 484.81 C 1184.14 488.11 1190.58 491.81 1197.80 493.64 C 1197.47 494.67 1197.18 495.72 1196.92 496.77 C 1195.37 497.75 1193.81 498.72 1192.27 499.68 C 1194.42 504.96 1196.88 510.54 1196.24 516.37 C 1190.19 521.30 1181.34 522.03 1176.26 528.29 C 1168.95 536.34 1170.41 548.01 1167.63 557.83 C 1157.77 559.07 1147.92 560.33 1138.20 562.40 C 1134.27 563.31 1130.28 562.44 1126.44 561.53 C 1128.91 557.37 1130.51 552.60 1129.99 547.70 C 1122.66 549.22 1115.81 552.51 1110.71 558.09 C 1106.14 555.42 1101.90 551.91 1096.74 550.51 C 1090.67 549.64 1084.98 553.08 1080.04 556.12 C 1072.94 560.39 1069.36 569.16 1061.48 572.22 C 1052.60 574.69 1045.59 581.20 1036.74 583.72 C 1029.76 585.65 1022.04 586.45 1015.15 583.77 C 1010.72 582.06 1007.58 578.35 1004.44 574.97 C 1006.91 572.99 1009.62 570.77 1010.29 567.50 C 1011.29 558.67 1011.23 549.79 1011.90 540.95 C 1011.79 535.39 1017.15 532.14 1020.05 528.05 C 1026.05 521.79 1029.56 513.72 1035.16 507.17 C 1038.12 503.71 1043.11 504.38 1047.22 503.53 C 1048.31 510.72 1048.53 517.96 1048.18 525.22 C 1050.66 525.35 1053.16 525.43 1055.65 525.40 C 1056.19 514.37 1057.38 499.89 1068.92 494.78 C 1073.24 491.67 1075.69 486.82 1078.04 482.19 C 1087.31 484.43 1096.72 483.50 1105.75 480.62 C 1111.75 487.35 1121.53 488.63 1129.99 486.99 Z" />
</g>
<g id="#9fdf5fff">
<path fill="#9fdf5f" fill-opacity="0" d=" M 1348.65 511.59 C 1353.74 507.61 1359.95 505.09 1366.39 504.39 C 1371.47 503.90 1375.67 507.33 1379.76 509.81 C 1377.30 515.97 1374.39 522.25 1374.79 529.04 C 1373.40 538.09 1382.96 542.53 1385.84 550.10 C 1390.04 555.78 1397.02 560.44 1404.38 559.47 C 1404.32 563.19 1404.45 566.95 1403.88 570.65 C 1407.67 571.38 1411.53 571.59 1415.37 571.98 C 1415.70 578.03 1416.63 584.12 1415.25 590.11 C 1415.93 598.92 1411.03 606.60 1407.08 614.06 C 1403.39 620.72 1399.53 627.27 1395.88 633.95 C 1389.12 635.52 1381.19 635.56 1376.19 641.17 C 1372.75 644.35 1372.29 649.59 1368.83 652.69 C 1357.53 654.58 1345.66 655.05 1335.10 659.92 C 1330.11 662.16 1328.30 669.47 1322.22 669.35 C 1315.61 669.22 1308.91 667.39 1302.37 669.44 C 1296.82 671.84 1296.92 679.86 1291.70 682.51 C 1284.89 683.57 1278.39 680.11 1272.43 677.27 C 1270.12 676.46 1267.99 678.10 1266.69 679.88 C 1263.29 684.39 1258.97 688.06 1255.04 692.08 C 1256.82 687.63 1258.47 683.13 1260.12 678.63 C 1253.73 680.84 1247.11 679.44 1240.66 678.49 C 1235.69 677.53 1230.96 680.20 1225.99 679.73 C 1222.28 679.80 1219.30 677.10 1215.71 676.74 C 1211.45 677.16 1208.41 681.09 1204.15 681.53 C 1201.07 679.95 1199.93 676.37 1198.25 673.59 C 1191.89 678.13 1186.46 683.95 1179.62 687.80 C 1173.92 691.25 1166.91 689.71 1160.71 691.41 C 1157.79 692.31 1155.57 694.54 1153.37 696.54 C 1149.67 690.10 1146.60 682.28 1149.86 674.97 C 1150.81 666.87 1158.92 663.92 1164.17 659.11 C 1162.28 649.95 1159.23 640.75 1160.61 631.23 C 1163.46 630.09 1166.32 628.97 1169.21 627.90 C 1169.05 622.46 1169.21 616.12 1174.80 613.26 C 1172.25 610.05 1168.55 607.42 1167.43 603.33 C 1167.07 597.99 1170.79 593.41 1171.31 588.18 C 1171.46 585.53 1170.15 583.10 1169.27 580.69 C 1183.62 575.33 1196.39 566.28 1211.17 562.00 C 1217.63 562.25 1224.09 562.08 1230.54 561.36 C 1231.04 558.86 1231.59 556.38 1232.09 553.88 C 1234.62 553.75 1237.51 554.52 1240.05 553.68 C 1243.22 551.74 1245.41 548.60 1248.45 546.47 C 1252.05 543.08 1257.02 542.56 1261.61 541.44 C 1265.21 535.99 1268.81 529.90 1275.01 527.04 C 1282.56 522.45 1292.58 520.44 1297.15 512.13 C 1298.87 509.87 1301.34 503.92 1305.07 506.80 C 1310.03 511.71 1312.88 518.37 1317.59 523.52 C 1319.50 525.61 1323.63 526.62 1325.41 523.83 C 1327.39 520.39 1328.39 516.49 1329.90 512.83 C 1330.48 512.99 1331.65 513.31 1332.23 513.47 C 1334.44 517.92 1337.93 521.69 1342.88 523.11 C 1344.65 519.21 1345.56 514.75 1348.65 511.59 Z" />
</g>
<g id="#dfdf5fff">
<path fill="#dfdf5f" fill-opacity="0" d=" M 442.12 543.71 C 444.88 539.20 449.56 534.31 455.37 535.46 C 460.24 544.65 466.51 553.69 467.76 564.29 C 468.46 568.43 468.03 572.66 467.98 576.84 C 470.91 581.24 476.21 583.54 478.75 588.26 C 481.30 592.60 483.19 598.01 488.53 599.56 C 494.73 601.59 497.40 608.11 503.06 610.96 C 511.09 615.34 516.73 622.59 522.92 629.10 C 527.10 633.61 528.93 639.67 532.41 644.65 C 535.96 648.38 540.47 651.24 543.56 655.43 C 545.24 657.39 546.68 659.88 549.28 660.73 C 552.78 660.58 555.70 658.26 559.08 657.60 C 563.20 658.01 566.99 660.47 571.24 659.95 C 576.45 659.18 582.01 659.88 586.58 662.57 C 591.14 668.32 593.00 675.49 595.71 682.16 C 598.17 686.92 602.15 690.70 604.58 695.50 C 598.50 698.83 591.06 702.52 584.26 698.73 C 579.28 695.10 575.32 689.37 568.41 689.40 C 556.08 689.15 545.42 696.09 534.04 699.68 C 516.94 702.43 499.73 704.93 482.50 706.47 C 472.03 703.36 461.23 706.33 450.56 706.31 C 447.00 706.71 441.66 705.81 440.48 710.30 C 440.73 714.93 444.75 718.29 446.86 722.12 C 459.92 740.35 470.36 760.35 483.58 778.45 C 470.27 773.25 455.56 775.53 441.88 772.10 C 434.76 769.39 432.19 761.07 426.81 756.36 C 419.38 753.57 411.55 751.81 404.30 748.54 C 399.42 744.46 394.82 740.03 389.70 736.23 C 379.98 725.42 372.66 712.73 363.63 701.36 C 355.90 689.89 347.04 679.22 339.51 667.61 C 337.89 665.01 335.72 662.78 333.06 661.25 C 326.86 657.32 322.65 651.17 318.88 645.05 C 316.73 641.65 318.20 637.42 319.54 634.02 C 320.94 624.09 332.74 622.23 336.89 614.03 C 339.92 606.69 348.01 603.76 352.33 597.36 C 350.54 593.58 346.66 589.47 349.04 585.09 C 351.08 581.25 354.84 576.69 359.67 577.33 C 363.29 580.44 366.52 584.33 371.73 584.79 C 374.06 578.73 376.76 572.07 382.83 568.87 C 386.69 567.05 388.33 562.98 391.08 560.03 C 395.95 558.99 401.34 561.50 405.92 558.94 C 411.69 556.30 417.32 552.99 423.76 552.29 C 424.93 548.64 424.24 543.32 428.32 541.39 C 433.04 540.75 437.58 542.77 442.12 543.71 Z" />
</g>
<g id="#5fdf5fff">
<path fill="#5fdf5f" fill-opacity="0" d=" M 1110.71 558.09 C 1115.81 552.51 1122.66 549.22 1129.99 547.70 C 1130.51 552.60 1128.91 557.37 1126.44 561.53 C 1130.28 562.44 1134.27 563.31 1138.20 562.40 C 1147.92 560.33 1157.77 559.07 1167.63 557.83 C 1169.10 558.85 1170.55 559.87 1172.05 560.92 C 1167.26 566.63 1159.76 568.45 1153.26 571.39 C 1150.00 572.73 1149.64 576.61 1148.72 579.53 C 1137.31 582.92 1125.34 584.69 1114.67 590.21 C 1106.21 592.97 1098.20 597.55 1089.19 598.31 C 1083.72 598.97 1078.09 596.38 1072.85 598.95 C 1067.42 602.44 1062.62 606.84 1057.07 610.14 C 1052.53 612.26 1047.38 612.49 1042.57 613.57 C 1037.17 623.36 1032.85 633.89 1025.35 642.37 C 1021.05 646.75 1016.00 650.43 1012.34 655.40 C 1007.38 662.47 1000.49 668.32 997.54 676.64 C 994.04 677.47 990.37 677.73 987.17 679.41 C 983.04 682.01 979.97 686.10 975.33 687.94 C 969.38 690.76 963.11 693.46 958.99 698.88 C 956.31 702.55 952.28 704.75 947.90 705.70 C 946.69 702.14 946.36 698.32 944.86 694.87 C 944.20 693.27 942.30 691.95 940.59 692.69 C 935.97 694.24 933.74 699.07 929.79 701.60 C 925.55 703.34 921.01 704.16 916.46 704.50 C 912.81 698.54 906.70 694.91 901.91 690.03 C 899.02 687.34 899.56 682.91 899.69 679.42 C 900.19 672.85 901.25 666.34 902.34 659.86 C 902.84 658.24 903.44 655.80 905.56 655.89 C 914.89 654.05 924.85 657.55 933.82 653.73 C 936.82 652.71 937.05 649.29 937.06 646.61 C 936.77 638.09 938.88 629.72 938.68 621.20 C 943.03 618.20 948.50 616.85 953.74 617.55 C 957.81 618.00 962.21 619.45 965.99 617.00 C 974.89 612.21 982.44 605.35 990.82 599.74 C 1000.45 594.68 993.65 578.89 1004.44 574.97 C 1007.58 578.35 1010.72 582.06 1015.15 583.77 C 1022.04 586.45 1029.76 585.65 1036.74 583.72 C 1045.59 581.20 1052.60 574.69 1061.48 572.22 C 1069.36 569.16 1072.94 560.39 1080.04 556.12 C 1084.98 553.08 1090.67 549.64 1096.74 550.51 C 1101.90 551.91 1106.14 555.42 1110.71 558.09 Z" />
</g>
<g id="#8f0000ff">
<path fill="#8f0000" fill-opacity="0" d=" M 1114.67 590.21 C 1125.34 584.69 1137.31 582.92 1148.72 579.53 C 1155.36 581.79 1162.38 581.34 1169.27 580.69 C 1170.15 583.10 1171.46 585.53 1171.31 588.18 C 1170.79 593.41 1167.07 597.99 1167.43 603.33 C 1168.55 607.42 1172.25 610.05 1174.80 613.26 C 1169.21 616.12 1169.05 622.46 1169.21 627.90 C 1166.32 628.97 1163.46 630.09 1160.61 631.23 C 1159.23 640.75 1162.28 649.95 1164.17 659.11 C 1158.92 663.92 1150.81 666.87 1149.86 674.97 C 1146.60 682.28 1149.67 690.10 1153.37 696.54 C 1149.74 701.56 1143.18 700.52 1137.87 699.48 C 1133.87 698.61 1129.62 699.06 1125.77 697.62 C 1120.93 694.08 1118.22 688.17 1113.07 685.01 C 1109.97 683.76 1106.22 684.50 1103.60 686.51 C 1095.57 692.12 1091.48 701.34 1086.12 709.23 C 1083.42 710.54 1080.57 711.47 1077.71 712.31 C 1069.96 714.08 1063.92 720.70 1055.58 720.34 C 1048.11 719.47 1040.29 717.42 1034.38 712.51 C 1028.80 709.15 1029.24 701.92 1027.69 696.39 C 1030.67 692.09 1031.67 686.88 1033.19 681.98 C 1036.17 681.17 1039.10 680.18 1041.98 679.05 C 1038.86 673.53 1032.44 672.04 1027.93 668.16 C 1023.97 662.56 1019.19 657.22 1012.34 655.40 C 1016.00 650.43 1021.05 646.75 1025.35 642.37 C 1032.85 633.89 1037.17 623.36 1042.57 613.57 C 1047.38 612.49 1052.53 612.26 1057.07 610.14 C 1062.62 606.84 1067.42 602.44 1072.85 598.95 C 1078.09 596.38 1083.72 598.97 1089.19 598.31 C 1098.20 597.55 1106.21 592.97 1114.67 590.21 Z" />
</g>
<g id="#0f7f00fe">
<path fill="#0f7f00" fill-opacity="0" d=" M 929.19 630.91 C 933.15 628.59 935.67 624.56 938.68 621.20 C 938.88 629.72 936.77 638.09 937.06 646.61 C 937.05 649.29 936.82 652.71 933.82 653.73 C 924.85 657.55 914.89 654.05 905.56 655.89 C 903.44 655.80 902.84 658.24 902.34 659.86 C 901.25 666.34 900.19 672.85 899.69 679.42 C 899.56 682.91 899.02 687.34 901.91 690.03 C 906.70 694.91 912.81 698.54 916.46 704.50 C 914.12 706.61 912.08 709.68 908.74 710.16 C 905.52 710.83 901.97 710.42 899.05 712.11 C 892.70 717.35 887.00 724.58 878.52 726.33 C 874.09 727.40 868.60 725.35 865.28 729.22 C 860.45 734.28 857.02 740.47 852.89 746.08 C 849.66 746.33 845.56 746.23 843.54 749.26 C 841.19 753.53 839.42 758.09 837.58 762.59 C 833.52 759.53 830.38 754.61 825.18 753.52 C 819.77 754.07 815.84 758.62 811.82 761.83 C 806.94 766.19 800.89 768.91 795.51 772.56 C 788.03 777.77 778.40 774.74 770.02 776.18 C 764.48 776.77 758.81 776.49 753.40 777.90 C 746.41 780.53 744.20 789.25 737.34 792.07 C 727.48 796.37 717.58 801.23 709.82 808.85 C 709.29 799.32 707.51 789.23 711.17 780.11 C 712.81 776.11 716.29 773.34 719.53 770.68 C 721.33 769.14 723.44 767.81 724.69 765.74 C 726.09 761.38 725.45 756.69 725.64 752.19 C 729.98 753.70 734.68 755.16 739.21 753.44 C 749.92 749.43 759.52 742.37 771.03 740.59 C 777.26 739.68 783.78 739.66 789.73 737.33 C 795.09 735.21 799.53 731.39 804.69 728.89 C 810.13 726.63 816.31 726.94 821.75 724.65 C 831.69 719.79 838.15 710.10 842.16 700.11 C 842.88 700.80 843.61 701.50 844.36 702.21 C 842.78 693.72 846.76 685.45 853.63 680.61 C 853.63 674.42 854.12 668.25 854.70 662.08 C 856.88 660.10 858.73 657.80 860.72 655.62 C 865.96 653.79 871.18 651.01 876.91 651.43 C 880.84 650.93 881.78 655.73 884.00 658.04 C 885.94 662.20 892.40 661.07 894.33 657.49 C 896.60 653.33 897.77 648.57 900.80 644.83 C 905.23 640.85 909.80 636.71 915.43 634.49 C 919.79 632.51 924.75 632.64 929.19 630.91 Z" />
</g>
<g id="#1fdf5fff">
<path fill="#1fdf5f" fill-opacity="0" d=" M 1012.34 655.40 C 1019.19 657.22 1023.97 662.56 1027.93 668.16 C 1032.44 672.04 1038.86 673.53 1041.98 679.05 C 1039.10 680.18 1036.17 681.17 1033.19 681.98 C 1031.67 686.88 1030.67 692.09 1027.69 696.39 C 1029.24 701.92 1028.80 709.15 1034.38 712.51 C 1040.29 717.42 1048.11 719.47 1055.58 720.34 C 1063.92 720.70 1069.96 714.08 1077.71 712.31 C 1080.57 711.47 1083.42 710.54 1086.12 709.23 C 1083.92 712.45 1081.50 715.52 1079.13 718.61 C 1081.45 721.98 1084.27 725.65 1083.68 730.01 C 1082.70 737.74 1076.43 744.00 1069.19 746.41 C 1065.98 747.76 1061.44 748.29 1060.30 752.17 C 1058.20 758.88 1057.41 765.90 1056.07 772.79 L 1055.93 773.57 C 1045.73 775.24 1034.78 775.18 1025.61 769.91 C 1024.72 773.17 1024.99 777.06 1022.89 779.96 C 1020.77 779.75 1018.74 779.15 1016.72 778.57 C 1017.10 771.35 1020.12 762.41 1014.54 756.47 C 1011.63 753.37 1007.59 750.21 1003.07 751.06 C 997.63 751.90 992.32 753.62 987.45 756.19 C 982.64 754.45 977.52 753.29 973.07 750.71 C 972.26 744.99 976.70 739.94 975.78 734.18 C 975.10 729.84 975.59 725.04 973.78 721.04 C 970.34 718.12 965.92 716.43 963.06 712.77 C 959.16 708.32 953.03 707.89 947.90 705.70 C 952.28 704.75 956.31 702.55 958.99 698.88 C 963.11 693.46 969.38 690.76 975.33 687.94 C 979.97 686.10 983.04 682.01 987.17 679.41 C 990.37 677.73 994.04 677.47 997.54 676.64 C 1000.49 668.32 1007.38 662.47 1012.34 655.40 Z" />
</g>
<g id="#0f0000ff">
<path fill="#0f0000" fill-opacity="0" d=" M 1179.62 687.80 C 1186.46 683.95 1191.89 678.13 1198.25 673.59 C 1199.93 676.37 1201.07 679.95 1204.15 681.53 C 1208.41 681.09 1211.45 677.16 1215.71 676.74 C 1219.30 677.10 1222.28 679.80 1225.99 679.73 C 1230.96 680.20 1235.69 677.53 1240.66 678.49 C 1247.11 679.44 1253.73 680.84 1260.12 678.63 C 1258.47 683.13 1256.82 687.63 1255.04 692.08 C 1251.68 700.10 1246.20 706.99 1240.95 713.83 C 1229.76 721.72 1216.05 724.31 1203.69 729.78 C 1198.55 731.97 1197.76 738.29 1193.81 741.78 C 1188.92 746.15 1189.28 753.98 1183.97 757.99 C 1181.42 760.00 1179.32 762.59 1176.46 764.18 C 1170.59 766.29 1164.23 764.90 1158.32 763.81 C 1156.46 761.02 1154.65 758.25 1152.85 755.45 C 1143.45 756.21 1134.02 754.90 1124.63 755.31 C 1116.47 756.67 1110.32 763.20 1105.35 769.35 C 1101.63 775.15 1093.96 775.26 1088.14 777.27 C 1083.20 778.39 1078.94 781.67 1073.87 782.17 C 1069.02 781.21 1064.64 778.54 1060.03 776.94 C 1059.52 775.36 1059.02 773.79 1058.55 772.22 C 1057.71 772.40 1056.88 772.59 1056.07 772.79 C 1057.41 765.90 1058.20 758.88 1060.30 752.17 C 1061.44 748.29 1065.98 747.76 1069.19 746.41 C 1076.43 744.00 1082.70 737.74 1083.68 730.01 C 1084.27 725.65 1081.45 721.98 1079.13 718.61 C 1081.50 715.52 1083.92 712.45 1086.12 709.23 C 1091.48 701.34 1095.57 692.12 1103.60 686.51 C 1106.22 684.50 1109.97 683.76 1113.07 685.01 C 1118.22 688.17 1120.93 694.08 1125.77 697.62 C 1129.62 699.06 1133.87 698.61 1137.87 699.48 C 1143.18 700.52 1149.74 701.56 1153.37 696.54 C 1155.57 694.54 1157.79 692.31 1160.71 691.41 C 1166.91 689.71 1173.92 691.25 1179.62 687.80 Z" />
</g>
<g id="#9f5fdffe">
<path fill="#9f5fdf" fill-opacity="0" d=" M 534.04 699.68 C 545.42 696.09 556.08 689.15 568.41 689.40 C 575.32 689.37 579.28 695.10 584.26 698.73 C 591.06 702.52 598.50 698.83 604.58 695.50 C 612.56 699.24 622.46 702.46 625.37 711.72 C 630.63 723.75 636.11 737.36 631.11 750.47 C 641.66 750.73 654.28 746.90 662.57 755.44 C 667.62 763.96 672.57 773.89 671.31 784.15 C 664.96 787.55 657.95 789.66 650.85 790.78 C 651.51 782.97 646.50 775.60 639.14 773.39 C 633.63 773.10 628.14 772.62 622.77 771.28 C 621.49 778.21 621.06 785.33 619.02 792.12 C 618.03 795.27 614.48 796.13 611.76 797.21 C 611.68 792.38 611.37 787.57 610.77 782.79 C 603.31 783.01 595.76 783.05 588.44 784.66 C 585.17 786.11 583.33 789.72 579.92 790.90 C 576.24 791.51 572.49 791.16 568.79 791.14 C 568.97 788.77 569.20 786.42 569.46 784.08 C 559.25 783.62 549.03 782.54 539.08 780.15 C 539.09 788.14 542.22 795.91 541.40 803.88 C 536.02 804.37 530.76 805.49 525.53 806.74 C 523.18 803.89 521.80 799.34 517.62 798.81 C 510.99 797.84 506.24 792.74 500.82 789.35 C 494.93 785.94 488.81 782.82 483.58 778.45 C 470.36 760.35 459.92 740.35 446.86 722.12 C 444.75 718.29 440.73 714.93 440.48 710.30 C 441.66 705.81 447.00 706.71 450.56 706.31 C 461.23 706.33 472.03 703.36 482.50 706.47 C 499.73 704.93 516.94 702.43 534.04 699.68 Z" />
</g>
<g id="#8f7f00ff">
<path fill="#8f7f00" fill-opacity="0" d=" M 940.59 692.69 C 942.30 691.95 944.20 693.27 944.86 694.87 C 946.36 698.32 946.69 702.14 947.90 705.70 C 953.03 707.89 959.16 708.32 963.06 712.77 C 962.15 715.29 961.58 718.53 958.83 719.68 C 955.58 720.96 951.99 720.47 948.59 720.84 C 950.56 719.62 952.48 718.31 954.42 717.04 C 952.73 713.80 950.96 710.61 949.14 707.46 C 943.00 708.45 936.78 708.10 930.62 707.64 C 930.91 711.99 931.21 716.35 931.68 720.70 C 936.27 721.17 940.88 721.74 945.41 722.67 C 937.32 726.80 931.71 734.13 925.97 740.91 C 926.45 744.17 926.91 747.43 927.39 750.72 C 921.88 752.02 915.78 752.80 911.29 756.58 C 907.69 759.83 904.38 763.42 900.63 766.51 C 896.53 768.83 891.35 772.09 886.74 769.01 C 885.57 761.93 894.12 761.68 896.37 756.55 C 897.63 752.66 893.76 749.49 890.29 748.88 C 886.31 748.36 882.45 750.29 878.47 749.86 C 874.54 749.13 871.07 746.73 867.02 746.48 C 862.33 746.09 857.60 746.15 852.89 746.08 C 857.02 740.47 860.45 734.28 865.28 729.22 C 868.60 725.35 874.09 727.40 878.52 726.33 C 887.00 724.58 892.70 717.35 899.05 712.11 C 901.97 710.42 905.52 710.83 908.74 710.16 C 912.08 709.68 914.12 706.61 916.46 704.50 C 921.01 704.16 925.55 703.34 929.79 701.60 C 933.74 699.07 935.97 694.24 940.59 692.69 Z" />
</g>
<g id="#1f5fdfff">
<path fill="#1f5fdf" fill-opacity="0" d=" M 930.62 707.64 C 936.78 708.10 943.00 708.45 949.14 707.46 C 950.96 710.61 952.73 713.80 954.42 717.04 C 952.48 718.31 950.56 719.62 948.59 720.84 C 947.51 721.43 946.45 722.04 945.41 722.67 C 940.88 721.74 936.27 721.17 931.68 720.70 C 931.21 716.35 930.91 711.99 930.62 707.64 Z" />
</g>
<g id="#1fdfdfff">
<path fill="#1fdfdf" fill-opacity="0" d=" M 963.06 712.77 C 965.92 716.43 970.34 718.12 973.78 721.04 C 975.59 725.04 975.10 729.84 975.78 734.18 C 976.70 739.94 972.26 744.99 973.07 750.71 C 977.52 753.29 982.64 754.45 987.45 756.19 C 984.56 758.89 981.91 761.85 979.22 764.75 C 976.98 763.42 974.76 762.07 972.54 760.74 C 970.64 764.13 970.97 770.17 966.34 770.90 C 961.17 771.51 957.78 775.95 953.06 777.69 C 951.66 774.81 950.69 771.73 948.85 769.14 C 945.41 769.63 943.28 772.72 940.93 774.95 C 937.60 778.70 933.12 781.08 929.25 784.18 C 927.33 786.40 926.82 789.53 925.53 792.13 C 920.25 794.18 914.98 796.22 909.65 798.11 C 904.24 792.89 897.40 789.22 892.25 783.83 C 893.09 778.87 898.53 776.97 900.87 772.93 C 901.66 770.86 900.85 768.61 900.63 766.51 C 904.38 763.42 907.69 759.83 911.29 756.58 C 915.78 752.80 921.88 752.02 927.39 750.72 C 926.91 747.43 926.45 744.17 925.97 740.91 C 931.71 734.13 937.32 726.80 945.41 722.67 C 946.45 722.04 947.51 721.43 948.59 720.84 C 951.99 720.47 955.58 720.96 958.83 719.68 C 961.58 718.53 962.15 715.29 963.06 712.77 Z" />
</g>
<g id="#df5f5fff">
<path fill="#df5f5f" fill-opacity="0" d=" M 843.54 749.26 C 845.56 746.23 849.66 746.33 852.89 746.08 C 857.60 746.15 862.33 746.09 867.02 746.48 C 871.07 746.73 874.54 749.13 878.47 749.86 C 882.45 750.29 886.31 748.36 890.29 748.88 C 893.76 749.49 897.63 752.66 896.37 756.55 C 894.12 761.68 885.57 761.93 886.74 769.01 C 891.35 772.09 896.53 768.83 900.63 766.51 C 900.85 768.61 901.66 770.86 900.87 772.93 C 898.53 776.97 893.09 778.87 892.25 783.83 C 897.40 789.22 904.24 792.89 909.65 798.11 C 910.74 806.98 903.09 812.86 899.59 820.20 C 898.09 823.06 896.56 825.92 895.30 828.90 C 888.84 828.64 882.41 828.03 875.96 827.73 C 870.04 827.13 865.69 832.27 862.86 836.85 C 859.44 841.93 856.88 848.30 851.04 851.09 C 848.11 852.93 844.61 852.36 841.45 851.66 C 842.38 848.61 844.29 844.53 841.30 841.96 C 837.60 839.06 833.33 836.95 829.74 833.89 C 826.38 839.26 825.43 846.68 819.14 849.66 C 818.58 839.21 816.09 827.30 806.49 821.38 C 807.01 824.37 807.65 827.34 808.39 830.30 C 806.59 830.24 804.81 830.19 803.05 830.16 C 795.04 822.19 783.37 819.69 775.24 811.77 C 776.78 806.01 778.73 799.64 776.13 793.87 C 773.30 788.26 771.15 782.35 770.02 776.18 C 778.40 774.74 788.03 777.77 795.51 772.56 C 800.89 768.91 806.94 766.19 811.82 761.83 C 815.84 758.62 819.77 754.07 825.18 753.52 C 830.38 754.61 833.52 759.53 837.58 762.59 C 839.42 758.09 841.19 753.53 843.54 749.26 M 873.19 771.36 C 871.58 770.95 870.48 773.70 872.29 774.13 C 873.95 774.64 875.00 771.76 873.19 771.36 Z" />
</g>
<g id="#df5fdfff">
<path fill="#df5fdf" fill-opacity="0" d=" M 1003.07 751.06 C 1007.59 750.21 1011.63 753.37 1014.54 756.47 C 1020.12 762.41 1017.10 771.35 1016.72 778.57 C 1016.22 782.02 1015.87 785.55 1015.43 789.03 C 1017.83 790.70 1023.63 791.24 1023.59 795.32 C 1023.68 800.68 1023.57 806.20 1022.13 811.40 C 1018.94 818.44 1010.68 820.68 1003.58 821.01 C 1003.60 817.35 1003.56 813.67 1003.59 810.04 C 996.87 810.00 990.28 811.23 983.62 811.84 C 980.32 812.05 977.09 810.55 973.82 811.09 C 970.37 813.03 968.63 816.95 966.02 819.77 C 956.15 818.79 945.71 818.22 936.45 822.46 C 931.30 825.19 928.56 830.55 924.14 834.07 C 922.83 835.31 920.97 833.83 919.91 833.11 C 913.30 828.53 907.82 821.94 899.59 820.20 C 903.09 812.86 910.74 806.98 909.65 798.11 C 914.98 796.22 920.25 794.18 925.53 792.13 C 926.82 789.53 927.33 786.40 929.25 784.18 C 933.12 781.08 937.60 778.70 940.93 774.95 C 943.28 772.72 945.41 769.63 948.85 769.14 C 950.69 771.73 951.66 774.81 953.06 777.69 C 957.78 775.95 961.17 771.51 966.34 770.90 C 970.97 770.17 970.64 764.13 972.54 760.74 C 974.76 762.07 976.98 763.42 979.22 764.75 C 981.91 761.85 984.56 758.89 987.45 756.19 C 992.32 753.62 997.63 751.90 1003.07 751.06 Z" />
</g>
<g id="#9f5f5fff">
<path fill="#9f5f5f" fill-opacity="0" d=" M 712.86 768.96 C 715.23 767.50 717.48 769.63 719.53 770.68 C 716.29 773.34 712.81 776.11 711.17 780.11 C 707.51 789.23 709.29 799.32 709.82 808.85 C 711.61 818.12 710.58 829.34 701.93 834.89 C 691.89 839.92 679.70 835.29 669.78 840.93 C 670.32 842.29 670.88 843.67 671.44 845.05 C 678.69 844.97 687.49 846.47 691.52 853.29 C 695.48 861.32 697.90 870.19 697.61 879.20 C 697.39 887.00 701.25 893.94 704.12 900.95 C 709.72 913.50 714.41 926.44 719.99 939.01 C 712.89 943.04 706.88 948.70 699.84 952.77 C 691.27 956.52 683.31 950.79 675.28 948.72 C 671.12 951.02 667.19 954.61 662.02 953.95 C 657.72 952.87 654.47 949.44 650.45 947.78 C 646.94 947.33 643.47 947.52 639.99 947.76 C 637.53 943.61 634.97 939.57 632.61 935.38 C 626.59 935.61 620.19 936.09 614.60 933.40 C 611.29 931.93 609.41 928.63 606.48 926.66 C 603.40 924.58 599.88 923.21 596.86 921.08 C 593.33 917.63 591.28 912.94 587.64 909.63 C 582.95 907.18 577.12 905.65 574.22 900.80 C 562.59 881.80 550.74 862.91 539.10 843.93 C 535.90 838.12 541.44 833.57 543.60 828.76 C 542.85 823.91 539.15 820.10 537.63 815.51 C 536.56 811.03 539.79 807.65 541.40 803.88 C 542.22 795.91 539.09 788.14 539.08 780.15 C 549.03 782.54 559.25 783.62 569.46 784.08 C 569.20 786.42 568.97 788.77 568.79 791.14 C 572.49 791.16 576.24 791.51 579.92 790.90 C 583.33 789.72 585.17 786.11 588.44 784.66 C 595.76 783.05 603.31 783.01 610.77 782.79 C 611.37 787.57 611.68 792.38 611.76 797.21 C 614.48 796.13 618.03 795.27 619.02 792.12 C 621.06 785.33 621.49 778.21 622.77 771.28 C 628.14 772.62 633.63 773.10 639.14 773.39 C 646.50 775.60 651.51 782.97 650.85 790.78 C 657.95 789.66 664.96 787.55 671.31 784.15 C 676.07 780.69 682.12 780.55 687.32 778.12 C 690.75 775.88 693.79 772.47 698.25 772.60 C 703.38 772.66 708.31 771.29 712.86 768.96 Z" />
</g>
<g id="#10007fff">
<path fill="#10007f" fill-opacity="0" d=" M 873.19 771.36 C 875.00 771.76 873.95 774.64 872.29 774.13 C 870.48 773.70 871.58 770.95 873.19 771.36 Z" />
</g>
<g id="#8f007fff">
<path fill="#8f007f" fill-opacity="0" d=" M 753.40 777.90 C 758.81 776.49 764.48 776.77 770.02 776.18 C 771.15 782.35 773.30 788.26 776.13 793.87 C 778.73 799.64 776.78 806.01 775.24 811.77 C 783.37 819.69 795.04 822.19 803.05 830.16 C 804.81 830.19 806.59 830.24 808.39 830.30 C 807.65 827.34 807.01 824.37 806.49 821.38 C 816.09 827.30 818.58 839.21 819.14 849.66 C 825.43 846.68 826.38 839.26 829.74 833.89 C 833.33 836.95 837.60 839.06 841.30 841.96 C 844.29 844.53 842.38 848.61 841.45 851.66 C 839.54 852.96 837.54 854.23 836.11 856.09 C 833.80 859.68 835.76 864.56 833.07 867.99 C 831.61 869.92 829.89 871.63 828.24 873.40 C 832.68 892.43 835.23 911.87 840.25 930.76 C 831.78 930.32 823.44 928.70 815.00 928.01 C 805.05 927.70 796.14 921.86 786.14 922.17 C 779.20 924.07 773.73 930.10 766.25 930.45 C 750.41 930.68 735.64 937.49 719.99 939.01 C 714.41 926.44 709.72 913.50 704.12 900.95 C 701.25 893.94 697.39 887.00 697.61 879.20 C 697.90 870.19 695.48 861.32 691.52 853.29 C 687.49 846.47 678.69 844.97 671.44 845.05 C 670.88 843.67 670.32 842.29 669.78 840.93 C 679.70 835.29 691.89 839.92 701.93 834.89 C 710.58 829.34 711.61 818.12 709.82 808.85 C 717.58 801.23 727.48 796.37 737.34 792.07 C 744.20 789.25 746.41 780.53 753.40 777.90 Z" />
</g>
<g id="#0f7f7fff">
<path fill="#0f7f7f" fill-opacity="0" d=" M 973.82 811.09 C 977.09 810.55 980.32 812.05 983.62 811.84 C 990.28 811.23 996.87 810.00 1003.59 810.04 C 1003.56 813.67 1003.60 817.35 1003.58 821.01 C 1003.66 826.64 1002.16 832.11 1001.61 837.68 C 1000.86 842.88 1001.14 848.51 998.40 853.21 C 1005.12 853.92 1010.48 858.86 1017.27 859.49 C 1018.36 861.96 1018.72 865.23 1021.29 866.69 C 1025.23 868.85 1029.84 868.68 1034.19 869.03 C 1033.68 876.77 1032.83 884.64 1029.17 891.62 C 1025.48 890.64 1021.66 889.72 1017.85 889.75 C 1014.39 891.02 1011.69 893.80 1008.51 895.59 C 1005.54 897.63 1001.83 897.78 998.60 899.15 C 994.50 901.32 991.09 904.48 987.86 907.75 C 985.85 907.09 983.86 906.45 981.87 905.81 C 980.09 908.27 978.32 910.73 976.62 913.24 C 976.98 908.64 977.26 904.03 977.63 899.46 C 967.95 900.29 958.09 902.41 948.43 900.34 C 943.09 898.94 937.64 897.82 932.39 896.14 C 928.56 894.87 925.88 891.47 922.04 890.26 C 917.46 889.33 912.83 892.06 908.29 890.76 C 905.22 889.17 905.10 885.07 903.58 882.26 C 902.61 881.76 901.64 881.28 900.69 880.80 C 899.89 884.42 899.09 888.06 898.34 891.70 C 897.29 891.45 896.25 891.20 895.23 890.97 C 893.77 885.13 892.12 879.32 890.06 873.68 C 887.50 867.23 882.97 861.32 883.15 854.06 C 883.91 850.69 886.41 848.13 888.15 845.25 C 891.52 840.27 892.98 834.37 895.30 828.90 C 896.56 825.92 898.09 823.06 899.59 820.20 C 907.82 821.94 913.30 828.53 919.91 833.11 C 920.97 833.83 922.83 835.31 924.14 834.07 C 928.56 830.55 931.30 825.19 936.45 822.46 C 945.71 818.22 956.15 818.79 966.02 819.77 C 968.63 816.95 970.37 813.03 973.82 811.09 Z" />
</g>
<g id="#5fdfdffe">
<path fill="#5fdfdf" fill-opacity="0" d=" M 862.86 836.85 C 865.69 832.27 870.04 827.13 875.96 827.73 C 882.41 828.03 888.84 828.64 895.30 828.90 C 892.98 834.37 891.52 840.27 888.15 845.25 C 886.41 848.13 883.91 850.69 883.15 854.06 C 882.97 861.32 887.50 867.23 890.06 873.68 C 892.12 879.32 893.77 885.13 895.23 890.97 C 896.25 891.20 897.29 891.45 898.34 891.70 C 899.09 888.06 899.89 884.42 900.69 880.80 C 901.64 881.28 902.61 881.76 903.58 882.26 C 905.10 885.07 905.22 889.17 908.29 890.76 C 912.83 892.06 917.46 889.33 922.04 890.26 C 925.88 891.47 928.56 894.87 932.39 896.14 C 937.64 897.82 943.09 898.94 948.43 900.34 C 958.09 902.41 967.95 900.29 977.63 899.46 C 977.26 904.03 976.98 908.64 976.62 913.24 C 976.42 915.54 975.91 917.81 975.01 919.97 C 972.25 922.85 968.16 923.70 965.15 926.21 C 961.55 929.83 962.33 935.42 961.98 940.02 C 961.15 953.23 962.58 966.49 961.40 979.69 C 960.47 977.40 959.68 975.07 958.94 972.73 C 958.47 975.19 958.09 977.77 957.70 980.31 C 947.93 980.13 938.63 976.47 928.96 975.87 C 919.85 977.72 912.20 969.55 909.55 961.64 C 906.09 949.06 893.55 940.58 881.15 938.74 C 869.00 936.56 856.17 944.67 844.73 938.34 C 841.82 937.01 841.26 933.45 840.25 930.76 C 835.23 911.87 832.68 892.43 828.24 873.40 C 829.89 871.63 831.61 869.92 833.07 867.99 C 835.76 864.56 833.80 859.68 836.11 856.09 C 837.54 854.23 839.54 852.96 841.45 851.66 C 844.61 852.36 848.11 852.93 851.04 851.09 C 856.88 848.30 859.44 841.93 862.86 836.85 M 959.41 959.47 C 960.04 953.84 959.68 948.17 959.26 942.55 C 958.09 948.12 958.19 953.91 959.41 959.47 M 958.57 960.42 C 957.13 961.07 957.55 964.08 959.34 963.74 C 961.03 963.18 960.48 959.81 958.57 960.42 M 957.76 971.92 C 958.35 971.95 959.53 972.00 960.12 972.03 C 959.90 970.15 959.44 966.40 959.22 964.52 C 958.67 966.97 958.20 969.44 957.76 971.92 Z" />
</g>
</svg>
