<?xml version="1.0" encoding="UTF-8" ?>
<!DOCTYPE svg PUBLIC "-//W3C//DTD SVG 1.1//EN" "http://www.w3.org/Graphics/SVG/1.1/DTD/svg11.dtd">
<svg width="1920pt" height="1080pt" viewBox="0 0 1920 1080" version="1.1" xmlns="http://www.w3.org/2000/svg">
<g id="#3fbf3fff">
<path fill="#3fbf3f" fill-opacity="0" d=" M 943.04 259.96 C 941.84 255.62 944.21 252.00 946.44 248.66 C 952.35 251.40 958.20 255.13 965.01 254.67 C 971.72 255.15 978.53 254.93 985.22 256.00 C 991.88 258.33 998.10 261.73 1004.70 264.24 C 1006.90 265.21 1009.37 265.93 1011.11 267.70 C 1013.22 271.46 1013.67 276.09 1016.44 279.48 C 1020.47 282.17 1025.56 283.36 1028.98 286.99 C 1034.31 292.40 1041.27 296.75 1048.91 297.61 C 1052.75 296.35 1055.76 293.20 1059.16 291.01 C 1063.61 293.50 1067.96 297.55 1073.55 296.19 C 1080.64 295.48 1087.57 293.65 1094.64 292.67 C 1097.01 287.49 1097.62 280.24 1103.36 277.46 C 1107.07 275.75 1110.84 273.75 1114.96 273.34 C 1119.45 274.63 1122.81 278.95 1127.87 278.48 C 1131.87 278.51 1135.92 277.91 1139.90 277.36 C 1141.78 292.68 1145.67 309.39 1137.70 323.70 C 1129.74 332.75 1118.35 337.96 1107.40 342.52 C 1102.44 344.92 1097.01 343.34 1092.03 342.00 C 1067.89 335.05 1043.77 328.02 1019.47 321.69 C 1011.64 329.15 1002.98 336.01 997.37 345.42 C 981.57 340.22 965.65 348.21 950.48 352.02 C 942.32 347.89 932.94 344.97 927.38 337.22 C 933.04 336.09 939.39 336.52 944.55 333.56 C 946.81 328.96 950.19 324.36 950.52 319.09 C 948.28 310.15 944.91 301.40 943.86 292.20 C 943.78 281.45 943.23 270.71 943.04 259.96 Z" />
</g>
<g id="#5f7f7fff">
<path fill="#5f7f7f" fill-opacity="0" d=" M 1166.20 256.63 C 1173.42 257.96 1180.31 260.56 1187.21 263.01 C 1187.04 275.60 1183.02 287.62 1182.08 300.08 C 1181.30 309.54 1195.57 312.71 1192.63 322.89 C 1190.44 331.48 1187.57 340.03 1183.46 347.92 C 1181.44 344.60 1179.24 341.36 1177.15 338.11 C 1164.98 342.56 1152.08 345.04 1140.27 350.43 C 1146.66 370.45 1159.56 388.47 1162.23 409.69 C 1163.73 417.89 1160.21 425.61 1158.78 433.51 C 1152.20 442.40 1145.60 451.27 1139.57 460.55 C 1135.42 467.24 1128.99 472.31 1122.09 475.91 C 1117.85 477.00 1113.00 478.91 1108.65 477.14 C 1101.83 472.24 1096.97 465.31 1091.65 458.94 C 1080.44 444.46 1068.74 430.11 1054.40 418.58 C 1048.97 413.80 1042.38 409.84 1038.99 403.19 C 1033.69 391.79 1024.29 383.09 1017.35 372.74 C 1011.37 363.14 1003.98 354.57 997.37 345.42 C 1002.98 336.01 1011.64 329.15 1019.47 321.69 C 1043.77 328.02 1067.89 335.05 1092.03 342.00 C 1097.01 343.34 1102.44 344.92 1107.40 342.52 C 1118.35 337.96 1129.74 332.75 1137.70 323.70 C 1145.67 309.39 1141.78 292.68 1139.90 277.36 L 1139.81 276.67 C 1145.92 276.36 1151.98 275.56 1158.08 274.94 C 1161.02 268.95 1163.60 262.78 1166.20 256.63 M 1041.50 333.01 C 1039.76 336.43 1037.94 339.81 1036.04 343.14 C 1038.43 344.55 1040.88 345.90 1043.38 347.19 C 1047.36 346.62 1050.75 344.11 1054.41 342.55 C 1050.91 338.35 1046.44 335.25 1041.50 333.01 Z" />
</g>
<g id="#207f00ff">
<path fill="#207f00" fill-opacity="0" d=" M 1261.75 276.33 C 1266.15 298.66 1267.41 321.46 1270.21 344.03 C 1270.82 343.97 1272.06 343.87 1272.67 343.82 C 1276.89 331.26 1286.11 321.40 1296.41 313.49 C 1304.32 308.44 1313.64 303.77 1323.33 305.66 C 1329.70 306.40 1336.14 305.14 1342.52 305.80 C 1350.15 308.16 1356.11 313.87 1361.88 319.13 C 1365.09 322.28 1365.95 326.99 1366.86 331.20 C 1367.88 337.50 1363.06 344.84 1367.54 350.42 C 1373.63 358.76 1385.47 358.77 1394.39 361.71 C 1400.41 364.54 1399.32 373.15 1394.57 376.67 C 1393.62 377.12 1393.04 377.85 1392.84 378.86 C 1388.42 387.67 1381.67 395.16 1375.64 402.89 C 1374.76 403.63 1374.09 404.57 1373.72 405.66 C 1365.98 417.73 1356.96 428.99 1348.79 440.79 C 1346.62 440.61 1344.48 440.44 1342.35 440.29 C 1339.97 443.51 1337.61 446.72 1335.25 449.94 C 1332.71 448.68 1330.18 447.40 1327.64 446.19 C 1325.34 450.94 1327.51 455.60 1330.16 459.63 C 1338.57 460.82 1347.03 462.07 1355.12 464.77 C 1355.53 467.46 1355.47 470.52 1357.26 472.74 C 1360.86 475.33 1365.56 475.70 1369.70 477.13 C 1369.04 482.19 1367.52 487.21 1364.19 491.16 C 1360.75 495.34 1360.05 500.88 1357.47 505.53 C 1353.93 511.99 1349.54 518.04 1346.99 525.00 C 1342.94 535.70 1336.83 545.61 1328.94 553.92 C 1322.84 560.20 1318.14 567.85 1311.56 573.62 C 1310.61 574.04 1310.00 574.74 1309.71 575.72 C 1305.85 582.25 1299.91 587.19 1294.99 592.87 C 1291.43 592.18 1287.80 591.55 1284.17 591.58 C 1280.09 592.54 1276.85 595.51 1272.90 596.81 C 1267.68 598.90 1262.15 599.66 1256.61 599.97 C 1267.55 586.44 1278.27 572.70 1289.01 558.99 C 1290.58 556.26 1294.19 553.41 1293.08 549.80 C 1291.53 544.02 1288.37 538.87 1286.26 533.31 C 1276.13 509.40 1267.00 484.90 1252.96 462.92 C 1253.67 443.28 1256.83 423.66 1254.90 404.00 C 1254.42 385.63 1254.47 367.21 1252.21 348.94 C 1248.13 352.73 1244.24 356.76 1239.78 360.12 C 1237.33 353.28 1233.82 346.42 1233.39 339.07 C 1237.54 323.38 1245.19 308.95 1250.87 293.81 C 1253.07 287.21 1257.20 281.52 1261.75 276.33 Z" />
</g>
<g id="#df7f7fff">
<path fill="#df7f7f" fill-opacity="0" d=" M 1041.50 333.01 C 1046.44 335.25 1050.91 338.35 1054.41 342.55 C 1050.75 344.11 1047.36 346.62 1043.38 347.19 C 1040.88 345.90 1038.43 344.55 1036.04 343.14 C 1037.94 339.81 1039.76 336.43 1041.50 333.01 Z" />
</g>
<g id="#5f0000ff">
<path fill="#5f0000" fill-opacity="0" d=" M 891.46 346.66 C 903.38 343.30 914.99 338.68 927.38 337.22 C 932.94 344.97 942.32 347.89 950.48 352.02 C 949.69 359.88 949.64 367.99 947.17 375.58 C 944.57 381.26 937.69 383.60 935.41 389.53 C 932.68 394.57 933.35 400.71 935.61 405.79 C 925.58 415.48 912.99 422.41 904.23 433.41 C 897.84 429.07 890.39 425.58 885.96 418.96 C 879.76 411.85 883.82 402.32 883.93 393.97 C 876.44 394.68 868.95 395.47 861.53 396.72 C 858.33 391.84 855.57 386.60 851.44 382.44 C 848.83 379.55 844.54 380.42 841.08 380.12 C 845.01 375.39 849.43 370.94 852.49 365.58 C 854.02 361.19 853.53 356.37 854.06 351.80 C 859.67 353.98 865.43 357.82 871.71 355.66 C 878.48 353.09 884.53 348.88 891.46 346.66 Z" />
</g>
<g id="#3f3fbffe">
<path fill="#3f3fbf" fill-opacity="0" d=" M 1140.27 350.43 C 1152.08 345.04 1164.98 342.56 1177.15 338.11 C 1179.24 341.36 1181.44 344.60 1183.46 347.92 C 1184.88 350.27 1186.12 352.92 1188.55 354.43 C 1200.75 362.71 1216.04 364.67 1230.45 363.40 C 1233.87 363.56 1237.27 362.43 1239.78 360.12 C 1244.24 356.76 1248.13 352.73 1252.21 348.94 C 1254.47 367.21 1254.42 385.63 1254.90 404.00 C 1256.83 423.66 1253.67 443.28 1252.96 462.92 C 1243.04 464.61 1233.30 467.42 1223.22 467.91 C 1213.41 468.55 1203.72 470.30 1193.96 471.38 C 1188.22 472.01 1182.32 470.92 1177.39 467.86 C 1172.62 464.18 1168.72 459.46 1165.59 454.36 C 1161.80 448.00 1160.65 440.56 1158.78 433.51 C 1160.21 425.61 1163.73 417.89 1162.23 409.69 C 1159.56 388.47 1146.66 370.45 1140.27 350.43 Z" />
</g>
<g id="#bf3fbfff">
<path fill="#bf3fbf" fill-opacity="0" d=" M 950.48 352.02 C 965.65 348.21 981.57 340.22 997.37 345.42 C 1003.98 354.57 1011.37 363.14 1017.35 372.74 C 1024.29 383.09 1033.69 391.79 1038.99 403.19 C 1042.38 409.84 1048.97 413.80 1054.40 418.58 C 1068.74 430.11 1080.44 444.46 1091.65 458.94 C 1085.32 461.44 1078.81 463.56 1072.83 466.85 C 1065.08 470.89 1062.97 481.45 1054.44 484.42 C 1045.68 487.44 1036.69 489.66 1027.91 492.61 C 1024.49 487.06 1023.57 480.34 1020.07 474.86 C 1016.89 470.71 1012.37 467.88 1008.29 464.72 C 997.11 456.87 986.56 448.13 974.83 441.11 C 965.27 435.33 956.16 428.63 948.58 420.38 C 944.17 415.60 939.17 411.28 935.61 405.79 C 933.35 400.71 932.68 394.57 935.41 389.53 C 937.69 383.60 944.57 381.26 947.17 375.58 C 949.64 367.99 949.69 359.88 950.48 352.02 M 995.25 422.98 C 996.50 427.03 998.40 430.86 1000.91 434.28 C 1004.57 432.68 1008.24 431.11 1011.96 429.62 C 1010.77 426.34 1011.52 421.17 1007.84 419.56 C 1003.51 420.12 999.41 421.79 995.25 422.98 Z" />
</g>
<g id="#5faa00ff">
<path fill="#5faa00" fill-opacity="0" d=" M 1392.84 378.86 C 1393.04 377.85 1393.62 377.12 1394.57 376.67 C 1395.16 378.35 1394.58 379.08 1392.84 378.86 Z" />
</g>
<g id="#1f3f7fff">
<path fill="#1f3f7f" fill-opacity="0" d=" M 803.62 379.51 C 812.22 382.46 819.26 388.62 827.87 391.59 C 828.35 388.06 828.80 384.53 829.25 381.00 C 833.16 380.74 837.12 380.19 841.08 380.12 C 844.54 380.42 848.83 379.55 851.44 382.44 C 855.57 386.60 858.33 391.84 861.53 396.72 C 868.95 395.47 876.44 394.68 883.93 393.97 C 883.82 402.32 879.76 411.85 885.96 418.96 C 890.39 425.58 897.84 429.07 904.23 433.41 C 900.47 447.77 897.85 462.66 890.91 475.94 C 885.71 474.69 880.43 473.62 875.34 472.00 C 869.35 469.64 863.95 465.94 857.66 464.35 C 845.29 461.05 832.33 462.66 819.71 461.83 C 806.55 462.14 796.79 451.51 784.82 447.76 C 778.45 446.54 772.99 451.30 767.29 453.25 C 762.52 455.69 757.44 452.47 752.75 451.59 C 749.51 450.69 746.20 451.90 743.08 452.71 C 744.02 445.88 744.75 439.03 745.86 432.22 C 750.06 432.54 754.39 433.98 758.57 433.02 C 762.32 430.59 764.37 426.05 765.82 421.94 C 760.68 415.78 751.85 413.16 748.20 405.60 C 745.44 401.21 745.64 395.90 745.37 390.92 C 749.79 391.43 754.18 393.03 758.67 392.59 C 762.04 390.71 763.82 387.00 766.45 384.30 C 779.22 386.33 791.21 381.39 803.62 379.51 M 837.32 409.18 C 836.24 410.53 838.59 412.01 839.47 410.61 C 840.55 409.25 838.18 407.80 837.32 409.18 Z" />
</g>
<g id="#df007fff">
<path fill="#df007f" fill-opacity="0" d=" M 722.61 399.27 C 729.63 398.80 734.76 393.82 739.22 388.95 C 741.26 389.60 743.32 390.25 745.37 390.92 C 745.64 395.90 745.44 401.21 748.20 405.60 C 751.85 413.16 760.68 415.78 765.82 421.94 C 764.37 426.05 762.32 430.59 758.57 433.02 C 754.39 433.98 750.06 432.54 745.86 432.22 C 744.75 439.03 744.02 445.88 743.08 452.71 C 741.79 460.98 739.30 469.00 737.83 477.24 C 736.94 483.28 734.56 488.97 731.03 493.94 C 729.37 493.53 727.71 493.13 726.07 492.74 C 721.07 505.03 715.34 517.10 707.80 528.05 C 703.66 533.62 695.67 529.75 690.11 532.36 C 687.43 535.09 685.32 538.33 683.10 541.43 C 673.96 538.06 669.22 528.78 661.06 524.01 C 655.48 522.43 650.27 525.75 645.49 528.19 C 640.20 515.74 635.07 503.11 632.19 489.85 C 631.24 485.41 629.80 480.82 630.60 476.23 C 633.23 467.73 641.76 462.81 645.30 454.93 C 645.40 447.41 641.93 440.26 639.92 433.10 C 642.61 434.78 645.11 437.73 648.58 437.37 C 652.08 437.07 655.53 436.35 659.02 435.86 C 659.51 430.96 660.08 426.07 660.66 421.19 C 662.03 414.71 657.23 409.54 654.93 403.93 C 658.39 403.38 661.78 402.47 665.11 401.38 C 669.89 404.15 674.69 407.09 680.11 408.49 C 683.97 407.86 687.30 405.47 691.14 404.73 C 695.38 405.30 699.22 408.02 703.63 407.55 C 710.17 405.31 715.58 400.24 722.61 399.27 Z" />
</g>
<g id="#67af00ff">
<path fill="#67af00" fill-opacity="0" d=" M 1373.72 405.66 C 1374.09 404.57 1374.76 403.63 1375.64 402.89 C 1377.06 404.00 1375.26 406.68 1373.72 405.66 Z" />
</g>
<g id="#1f7f7ffe">
<path fill="#1f7f7f" fill-opacity="0" d=" M 904.23 433.41 C 912.99 422.41 925.58 415.48 935.61 405.79 C 939.17 411.28 944.17 415.60 948.58 420.38 C 956.16 428.63 965.27 435.33 974.83 441.11 C 986.56 448.13 997.11 456.87 1008.29 464.72 C 1012.37 467.88 1016.89 470.71 1020.07 474.86 C 1023.57 480.34 1024.49 487.06 1027.91 492.61 C 1033.12 497.46 1038.67 501.96 1043.54 507.18 C 1038.56 510.35 1033.10 512.60 1027.88 515.31 C 1018.03 521.28 1007.42 526.07 998.56 533.55 C 994.56 536.64 989.92 540.92 984.45 539.47 C 976.02 534.99 976.31 524.72 973.52 516.84 C 971.12 512.96 968.21 508.52 963.65 507.12 C 956.82 506.81 949.94 509.46 943.15 507.80 C 935.70 506.00 928.31 503.95 920.91 501.97 C 912.83 499.57 906.03 494.17 899.93 488.53 C 896.62 484.55 893.97 480.08 890.91 475.94 C 897.85 462.66 900.47 447.77 904.23 433.41 Z" />
</g>
<g id="#9f3f7fff">
<path fill="#9f3f7f" fill-opacity="0" d=" M 837.32 409.18 C 838.18 407.80 840.55 409.25 839.47 410.61 C 838.59 412.01 836.24 410.53 837.32 409.18 Z" />
</g>
<g id="#3fbfbfff">
<path fill="#3fbfbf" fill-opacity="0" d=" M 995.25 422.98 C 999.41 421.79 1003.51 420.12 1007.84 419.56 C 1011.52 421.17 1010.77 426.34 1011.96 429.62 C 1008.24 431.11 1004.57 432.68 1000.91 434.28 C 998.40 430.86 996.50 427.03 995.25 422.98 Z" />
</g>
<g id="#1fbf00ff">
<path fill="#1fbf00" fill-opacity="0" d=" M 629.52 425.84 C 634.60 423.80 638.71 428.77 639.92 433.10 C 641.93 440.26 645.40 447.41 645.30 454.93 C 641.76 462.81 633.23 467.73 630.60 476.23 C 629.80 480.82 631.24 485.41 632.19 489.85 C 635.07 503.11 640.20 515.74 645.49 528.19 C 638.06 536.31 628.25 544.12 627.32 555.97 C 627.09 562.39 627.03 569.17 629.82 575.11 C 625.29 577.02 620.69 581.02 615.47 579.48 C 609.01 578.77 605.23 573.12 600.65 569.32 C 597.29 566.17 592.56 565.13 588.19 564.35 C 580.10 568.12 574.09 574.75 567.99 581.01 C 573.36 586.32 580.70 591.05 582.30 599.00 C 569.84 593.47 555.26 592.64 542.78 598.59 C 536.11 600.37 533.38 607.51 527.56 610.58 C 517.82 612.08 511.24 603.90 504.51 598.51 C 499.97 594.05 494.31 590.70 490.33 585.73 C 488.28 577.21 488.75 568.17 487.22 559.53 C 490.77 559.64 494.32 559.79 497.88 559.91 C 500.26 555.68 503.88 551.88 504.85 547.01 C 504.12 543.91 501.88 541.48 500.12 538.92 C 501.21 537.62 502.28 536.31 503.36 535.01 C 506.41 535.57 509.50 536.25 512.55 536.89 C 514.58 532.78 516.62 528.66 519.09 524.80 C 522.91 525.08 526.76 525.50 530.58 525.95 C 530.79 523.78 531.20 519.45 531.41 517.29 C 527.75 511.37 522.49 506.68 518.03 501.39 C 521.51 498.13 524.72 494.53 528.51 491.63 C 532.86 490.08 537.60 490.33 542.09 489.39 C 541.70 486.25 541.27 483.07 540.90 479.95 C 550.36 474.50 559.96 469.29 569.71 464.37 C 572.62 465.43 575.51 466.43 578.46 467.42 C 586.14 460.48 593.27 452.89 597.96 443.57 C 601.88 442.30 607.22 443.77 610.33 440.39 C 616.10 434.86 621.21 427.56 629.52 425.84 Z" />
</g>
<g id="#df7f00ff">
<path fill="#df7f00" fill-opacity="0" d=" M 1139.57 460.55 C 1145.60 451.27 1152.20 442.40 1158.78 433.51 C 1160.65 440.56 1161.80 448.00 1165.59 454.36 C 1168.72 459.46 1172.62 464.18 1177.39 467.86 C 1175.88 470.05 1173.02 472.24 1173.88 475.23 C 1176.04 483.22 1181.91 490.03 1182.32 498.54 C 1182.69 507.35 1182.29 516.18 1183.21 524.98 C 1174.28 525.11 1165.10 522.04 1156.41 525.25 C 1148.26 527.48 1140.12 530.31 1133.06 535.04 C 1127.76 538.60 1123.01 543.12 1117.07 545.63 C 1110.45 547.66 1103.40 545.68 1096.70 547.09 C 1091.18 549.47 1086.15 552.99 1081.93 557.28 C 1063.52 543.79 1046.14 528.97 1027.88 515.31 C 1033.10 512.60 1038.56 510.35 1043.54 507.18 C 1038.67 501.96 1033.12 497.46 1027.91 492.61 C 1036.69 489.66 1045.68 487.44 1054.44 484.42 C 1062.97 481.45 1065.08 470.89 1072.83 466.85 C 1078.81 463.56 1085.32 461.44 1091.65 458.94 C 1096.97 465.31 1101.83 472.24 1108.65 477.14 C 1113.00 478.91 1117.85 477.00 1122.09 475.91 C 1128.99 472.31 1135.42 467.24 1139.57 460.55 Z" />
</g>
<g id="#1f3f00ff">
<path fill="#1f3f00" fill-opacity="0" d=" M 767.29 453.25 C 772.99 451.30 778.45 446.54 784.82 447.76 C 796.79 451.51 806.55 462.14 819.71 461.83 C 832.33 462.66 845.29 461.05 857.66 464.35 C 863.95 465.94 869.35 469.64 875.34 472.00 C 880.43 473.62 885.71 474.69 890.91 475.94 C 893.97 480.08 896.62 484.55 899.93 488.53 C 892.59 498.33 886.60 509.16 877.97 517.96 C 868.53 527.45 862.55 539.67 853.62 549.59 C 846.86 558.64 839.11 567.40 828.71 572.34 C 821.50 573.72 814.77 569.71 809.26 565.51 C 804.49 560.90 800.76 555.38 796.52 550.32 C 798.09 546.25 799.42 542.09 800.63 537.90 C 794.98 535.61 789.34 533.33 783.57 531.37 C 783.46 526.39 782.81 521.44 782.31 516.50 C 774.51 518.14 770.31 525.17 765.74 530.92 C 754.89 517.95 743.41 505.48 731.03 493.94 C 734.56 488.97 736.94 483.28 737.83 477.24 C 739.30 469.00 741.79 460.98 743.08 452.71 C 746.20 451.90 749.51 450.69 752.75 451.59 C 757.44 452.47 762.52 455.69 767.29 453.25 M 805.23 467.42 C 800.05 477.34 794.27 486.92 788.69 496.62 C 794.06 500.11 798.93 504.54 804.87 507.11 C 808.37 508.53 811.93 506.50 815.23 505.43 C 821.90 502.76 829.51 502.59 835.68 498.68 C 834.69 487.33 825.39 479.57 818.12 471.86 C 815.05 467.72 809.78 468.02 805.23 467.42 Z" />
</g>
<g id="#9f7f7fff">
<path fill="#9f7f7f" fill-opacity="0" d=" M 1223.22 467.91 C 1233.30 467.42 1243.04 464.61 1252.96 462.92 C 1267.00 484.90 1276.13 509.40 1286.26 533.31 C 1288.37 538.87 1291.53 544.02 1293.08 549.80 C 1294.19 553.41 1290.58 556.26 1289.01 558.99 C 1278.27 572.70 1267.55 586.44 1256.61 599.97 C 1248.56 604.84 1238.11 602.07 1229.23 603.26 C 1226.18 609.08 1221.54 614.16 1214.94 615.88 C 1208.84 618.96 1203.27 614.77 1198.28 611.84 C 1199.98 609.12 1202.18 606.40 1202.50 603.11 C 1201.79 599.45 1199.19 596.58 1197.24 593.53 C 1201.07 586.40 1205.54 579.65 1209.92 572.84 C 1210.51 571.59 1211.73 570.16 1211.05 568.72 C 1205.67 558.27 1196.89 550.16 1191.13 539.97 C 1188.22 535.12 1185.72 530.02 1183.21 524.98 C 1182.29 516.18 1182.69 507.35 1182.32 498.54 C 1181.91 490.03 1176.04 483.22 1173.88 475.23 C 1173.02 472.24 1175.88 470.05 1177.39 467.86 C 1182.32 470.92 1188.22 472.01 1193.96 471.38 C 1203.72 470.30 1213.41 468.55 1223.22 467.91 Z" />
</g>
<g id="#9f3f00fe">
<path fill="#9f3f00" fill-opacity="0" d=" M 805.23 467.42 C 809.78 468.02 815.05 467.72 818.12 471.86 C 825.39 479.57 834.69 487.33 835.68 498.68 C 829.51 502.59 821.90 502.76 815.23 505.43 C 811.93 506.50 808.37 508.53 804.87 507.11 C 798.93 504.54 794.06 500.11 788.69 496.62 C 794.27 486.92 800.05 477.34 805.23 467.42 Z" />
</g>
<g id="#9f7f00ff">
<path fill="#9f7f00" fill-opacity="0" d=" M 877.97 517.96 C 886.60 509.16 892.59 498.33 899.93 488.53 C 906.03 494.17 912.83 499.57 920.91 501.97 C 928.31 503.95 935.70 506.00 943.15 507.80 C 949.94 509.46 956.82 506.81 963.65 507.12 C 968.21 508.52 971.12 512.96 973.52 516.84 C 971.22 526.05 970.21 535.50 968.82 544.88 C 967.49 553.31 960.23 558.90 956.77 566.35 C 955.07 572.07 955.44 578.27 953.68 583.98 C 950.56 589.94 945.57 594.63 942.07 600.35 C 938.56 607.40 934.52 614.22 928.85 619.77 C 923.38 619.63 917.66 619.15 912.54 621.44 C 901.70 625.97 890.77 632.16 878.75 632.24 C 870.89 628.14 868.86 617.22 860.51 613.47 C 855.76 610.36 851.10 613.47 847.39 616.35 C 838.35 622.57 831.80 632.66 820.63 635.45 C 817.70 629.11 814.44 622.81 813.20 615.87 C 811.07 603.43 804.94 591.97 804.60 579.14 C 803.72 574.07 806.90 569.68 809.26 565.51 C 814.77 569.71 821.50 573.72 828.71 572.34 C 839.11 567.40 846.86 558.64 853.62 549.59 C 862.55 539.67 868.53 527.45 877.97 517.96 M 887.70 554.83 C 887.51 559.44 887.65 564.05 887.82 568.66 C 892.22 567.69 896.64 566.97 901.13 566.51 C 900.04 563.00 899.00 559.54 897.88 556.07 C 894.51 555.70 891.03 555.20 887.70 554.83 Z" />
</g>
<g id="#1f0000ff">
<path fill="#1f0000" fill-opacity="0" d=" M 726.07 492.74 C 727.71 493.13 729.37 493.53 731.03 493.94 C 743.41 505.48 754.89 517.95 765.74 530.92 C 765.75 544.04 765.53 557.15 764.67 570.25 C 765.18 581.10 770.84 590.77 774.36 600.85 C 775.55 604.21 777.38 607.58 777.21 611.24 C 774.31 625.43 768.71 638.86 764.65 652.74 C 761.77 661.17 770.72 667.76 773.68 674.80 C 766.30 673.95 759.56 677.07 753.05 680.03 C 747.31 682.87 741.09 678.55 735.17 680.23 C 731.22 681.33 727.28 682.73 723.78 684.87 C 721.23 687.75 719.76 691.40 717.44 694.46 C 711.28 696.54 704.56 695.36 698.19 696.08 C 692.72 690.14 687.55 683.90 681.45 678.59 C 677.81 674.72 671.90 672.02 670.58 666.41 C 669.05 658.53 674.00 651.14 673.91 643.34 C 669.32 635.11 662.96 628.02 657.66 620.24 C 654.28 614.38 647.94 611.53 643.20 607.07 C 640.80 603.33 640.71 598.58 639.33 594.46 C 637.69 587.36 633.27 581.40 629.82 575.11 C 627.03 569.17 627.09 562.39 627.32 555.97 C 628.25 544.12 638.06 536.31 645.49 528.19 C 650.27 525.75 655.48 522.43 661.06 524.01 C 669.22 528.78 673.96 538.06 683.10 541.43 C 685.32 538.33 687.43 535.09 690.11 532.36 C 695.67 529.75 703.66 533.62 707.80 528.05 C 715.34 517.10 721.07 505.03 726.07 492.74 M 722.99 568.11 C 723.69 569.39 724.39 570.68 725.09 571.98 C 725.78 571.96 727.15 571.91 727.83 571.89 C 728.16 570.98 728.50 570.08 728.85 569.18 C 728.13 568.47 727.43 567.75 726.73 567.04 C 725.48 567.39 724.23 567.74 722.99 568.11 Z" />
</g>
<g id="#5f7f00ff">
<path fill="#5f7f00" fill-opacity="0" d=" M 998.56 533.55 C 1007.42 526.07 1018.03 521.28 1027.88 515.31 C 1046.14 528.97 1063.52 543.79 1081.93 557.28 C 1079.53 560.31 1077.36 563.67 1076.09 567.32 C 1077.22 573.21 1081.79 577.98 1082.53 584.00 C 1082.26 590.61 1080.74 597.14 1078.52 603.36 C 1063.92 606.82 1054.30 620.56 1039.09 622.37 C 1028.52 622.01 1018.16 619.66 1007.65 618.65 C 984.89 616.44 963.11 608.93 942.07 600.35 C 945.57 594.63 950.56 589.94 953.68 583.98 C 955.44 578.27 955.07 572.07 956.77 566.35 C 960.23 558.90 967.49 553.31 968.82 544.88 C 970.21 535.50 971.22 526.05 973.52 516.84 C 976.31 524.72 976.02 534.99 984.45 539.47 C 989.92 540.92 994.56 536.64 998.56 533.55 Z" />
</g>
<g id="#5f007ffe">
<path fill="#5f007f" fill-opacity="0" d=" M 765.74 530.92 C 770.31 525.17 774.51 518.14 782.31 516.50 C 782.81 521.44 783.46 526.39 783.57 531.37 C 789.34 533.33 794.98 535.61 800.63 537.90 C 799.42 542.09 798.09 546.25 796.52 550.32 C 800.76 555.38 804.49 560.90 809.26 565.51 C 806.90 569.68 803.72 574.07 804.60 579.14 C 804.94 591.97 811.07 603.43 813.20 615.87 C 814.44 622.81 817.70 629.11 820.63 635.45 C 818.99 642.81 815.95 650.13 810.25 655.26 C 800.35 663.86 786.98 667.05 777.55 676.30 C 777.05 676.69 776.06 677.47 775.56 677.86 C 775.09 677.10 774.15 675.57 773.68 674.80 C 770.72 667.76 761.77 661.17 764.65 652.74 C 768.71 638.86 774.31 625.43 777.21 611.24 C 777.38 607.58 775.55 604.21 774.36 600.85 C 770.84 590.77 765.18 581.10 764.67 570.25 C 765.53 557.15 765.75 544.04 765.74 530.92 Z" />
</g>
<g id="#bfbfbfff">
<path fill="#bfbfbf" fill-opacity="0" d=" M 1156.41 525.25 C 1165.10 522.04 1174.28 525.11 1183.21 524.98 C 1185.72 530.02 1188.22 535.12 1191.13 539.97 C 1196.89 550.16 1205.67 558.27 1211.05 568.72 C 1211.73 570.16 1210.51 571.59 1209.92 572.84 C 1205.54 579.65 1201.07 586.40 1197.24 593.53 C 1199.19 596.58 1201.79 599.45 1202.50 603.11 C 1202.18 606.40 1199.98 609.12 1198.28 611.84 C 1196.78 613.96 1194.94 615.79 1193.07 617.56 C 1190.47 610.01 1187.98 599.03 1178.53 597.52 C 1168.11 594.06 1157.95 599.71 1147.72 600.54 C 1138.94 598.64 1133.07 590.72 1124.85 587.37 C 1115.47 600.66 1101.05 610.43 1085.01 613.51 C 1082.90 610.09 1080.66 606.74 1078.52 603.36 C 1080.74 597.14 1082.26 590.61 1082.53 584.00 C 1081.79 577.98 1077.22 573.21 1076.09 567.32 C 1077.36 563.67 1079.53 560.31 1081.93 557.28 C 1086.15 552.99 1091.18 549.47 1096.70 547.09 C 1103.40 545.68 1110.45 547.66 1117.07 545.63 C 1123.01 543.12 1127.76 538.60 1133.06 535.04 C 1140.12 530.31 1148.26 527.48 1156.41 525.25 Z" />
</g>
<g id="#1f007fff">
<path fill="#1f007f" fill-opacity="0" d=" M 887.70 554.83 C 891.03 555.20 894.51 555.70 897.88 556.07 C 899.00 559.54 900.04 563.00 901.13 566.51 C 896.64 566.97 892.22 567.69 887.82 568.66 C 887.65 564.05 887.51 559.44 887.70 554.83 Z" />
</g>
<g id="#9fbf00ff">
<path fill="#9fbf00" fill-opacity="0" d=" M 567.99 581.01 C 574.09 574.75 580.10 568.12 588.19 564.35 C 592.56 565.13 597.29 566.17 600.65 569.32 C 605.23 573.12 609.01 578.77 615.47 579.48 C 620.69 581.02 625.29 577.02 629.82 575.11 C 633.27 581.40 637.69 587.36 639.33 594.46 C 640.71 598.58 640.80 603.33 643.20 607.07 C 647.94 611.53 654.28 614.38 657.66 620.24 C 662.96 628.02 669.32 635.11 673.91 643.34 C 674.00 651.14 669.05 658.53 670.58 666.41 C 671.90 672.02 677.81 674.72 681.45 678.59 C 687.55 683.90 692.72 690.14 698.19 696.08 C 696.87 699.32 695.54 702.56 694.16 705.77 C 690.60 705.17 687.06 704.60 683.51 704.09 C 677.26 715.58 669.01 726.01 664.66 738.49 C 658.60 734.23 653.28 728.97 647.00 725.04 C 638.78 721.29 629.26 721.15 621.29 716.76 C 615.82 713.35 611.16 708.83 606.10 704.87 C 602.06 701.31 597.77 697.59 595.56 692.57 C 594.75 685.68 600.54 678.71 597.29 671.89 C 595.82 666.31 589.88 664.52 585.95 661.06 C 579.64 655.71 573.38 650.30 566.87 645.18 C 571.15 637.35 575.26 629.42 579.37 621.50 C 583.25 614.73 583.73 606.54 582.30 599.00 C 580.70 591.05 573.36 586.32 567.99 581.01 Z" />
</g>
<g id="#9f0000ff">
<path fill="#9f0000" fill-opacity="0" d=" M 722.99 568.11 C 724.23 567.74 725.48 567.39 726.73 567.04 C 727.43 567.75 728.13 568.47 728.85 569.18 C 728.50 570.08 728.16 570.98 727.83 571.89 C 727.15 571.91 725.78 571.96 725.09 571.98 C 724.39 570.68 723.69 569.39 722.99 568.11 Z" />
</g>
<g id="#aa2a7fff">
<path fill="#aa2a7f" fill-opacity="0" d=" M 1309.71 575.72 C 1310.00 574.74 1310.61 574.04 1311.56 573.62 C 1312.08 575.34 1311.46 576.04 1309.71 575.72 Z" />
</g>
<g id="#df0000ff">
<path fill="#df0000" fill-opacity="0" d=" M 1124.85 587.37 C 1133.07 590.72 1138.94 598.64 1147.72 600.54 C 1157.95 599.71 1168.11 594.06 1178.53 597.52 C 1187.98 599.03 1190.47 610.01 1193.07 617.56 C 1193.56 621.78 1192.63 626.22 1193.70 630.40 C 1197.05 633.85 1201.34 636.22 1205.14 639.18 C 1208.74 636.68 1212.37 634.25 1216.04 631.82 C 1217.54 637.90 1219.80 644.00 1219.27 650.39 C 1218.54 657.29 1216.76 664.03 1215.77 670.90 C 1214.93 675.81 1218.12 680.11 1219.51 684.62 C 1221.66 689.40 1220.18 694.71 1219.63 699.68 C 1213.00 709.18 1204.14 716.84 1196.56 725.57 C 1192.75 729.37 1189.53 734.04 1184.83 736.76 C 1175.58 740.19 1166.95 733.72 1157.93 733.01 C 1153.63 732.51 1151.59 737.55 1148.72 739.75 C 1145.44 743.59 1140.52 745.34 1135.92 747.01 C 1133.65 747.90 1131.43 746.28 1129.32 745.66 C 1124.58 743.46 1119.15 744.80 1114.17 744.64 C 1112.16 739.91 1110.32 735.17 1108.11 730.56 C 1111.17 723.93 1115.98 717.68 1115.69 709.98 C 1115.84 700.35 1114.17 690.79 1113.17 681.24 C 1117.49 679.97 1121.84 678.79 1126.20 677.64 C 1125.50 670.54 1125.09 663.37 1123.45 656.43 C 1117.45 650.52 1106.49 651.99 1101.93 644.13 C 1096.05 634.06 1091.00 623.52 1085.01 613.51 C 1101.05 610.43 1115.47 600.66 1124.85 587.37 Z" />
</g>
<g id="#bfbf3fff">
<path fill="#bfbf3f" fill-opacity="0" d=" M 928.85 619.77 C 934.52 614.22 938.56 607.40 942.07 600.35 C 963.11 608.93 984.89 616.44 1007.65 618.65 C 1018.16 619.66 1028.52 622.01 1039.09 622.37 C 1054.30 620.56 1063.92 606.82 1078.52 603.36 C 1080.66 606.74 1082.90 610.09 1085.01 613.51 C 1091.00 623.52 1096.05 634.06 1101.93 644.13 C 1106.49 651.99 1117.45 650.52 1123.45 656.43 C 1125.09 663.37 1125.50 670.54 1126.20 677.64 C 1121.84 678.79 1117.49 679.97 1113.17 681.24 C 1114.17 690.79 1115.84 700.35 1115.69 709.98 C 1115.98 717.68 1111.17 723.93 1108.11 730.56 C 1098.63 729.20 1089.38 726.42 1079.86 725.42 C 1074.20 726.12 1069.97 730.92 1064.25 731.72 C 1061.76 736.85 1060.84 743.30 1055.69 746.60 C 1049.78 751.00 1043.88 755.52 1039.57 761.59 C 1037.57 763.29 1035.86 767.42 1032.76 766.13 C 1025.14 763.27 1017.79 759.73 1010.14 756.93 C 1010.02 748.67 1010.32 740.38 1009.43 732.17 C 1008.33 724.69 1005.37 717.74 1003.39 710.51 C 999.14 712.04 994.97 713.79 990.97 715.88 C 991.74 710.40 993.03 704.92 992.26 699.36 C 987.10 691.92 978.28 688.29 972.74 681.20 C 966.83 674.73 967.44 665.40 964.25 657.70 C 962.44 652.68 959.02 648.43 954.95 645.06 C 945.64 637.28 937.17 628.57 928.85 619.77 Z" />
</g>
<g id="#9f007fff">
<path fill="#9f007f" fill-opacity="0" d=" M 847.39 616.35 C 851.10 613.47 855.76 610.36 860.51 613.47 C 868.86 617.22 870.89 628.14 878.75 632.24 C 890.77 632.16 901.70 625.97 912.54 621.44 C 917.66 619.15 923.38 619.63 928.85 619.77 C 937.17 628.57 945.64 637.28 954.95 645.06 C 959.02 648.43 962.44 652.68 964.25 657.70 C 967.44 665.40 966.83 674.73 972.74 681.20 C 978.28 688.29 987.10 691.92 992.26 699.36 C 993.03 704.92 991.74 710.40 990.97 715.88 C 984.16 719.18 977.64 723.68 969.88 724.33 C 960.79 725.10 951.64 725.71 942.78 728.02 C 937.74 730.97 934.07 736.20 928.35 738.01 C 923.83 733.21 920.48 727.47 916.77 722.05 C 903.10 722.96 888.52 725.43 875.67 719.17 C 872.43 716.77 870.68 712.97 867.76 710.26 C 861.20 711.35 855.10 714.40 849.08 717.11 C 844.21 719.25 842.76 724.73 840.81 729.17 C 838.10 728.31 835.31 727.36 832.61 726.55 C 830.83 723.10 829.51 719.18 826.44 716.65 C 820.63 712.32 813.26 711.25 806.41 709.59 C 805.95 711.48 805.49 713.37 805.02 715.27 C 798.83 711.55 792.05 707.97 788.84 701.10 C 783.88 694.50 780.88 686.76 780.66 678.50 C 779.61 677.76 778.57 677.03 777.55 676.30 C 786.98 667.05 800.35 663.86 810.25 655.26 C 815.95 650.13 818.99 642.81 820.63 635.45 C 831.80 632.66 838.35 622.57 847.39 616.35 Z" />
</g>
<g id="#3fdf9fff">
<path fill="#3fdf9f" fill-opacity="0" d=" M 0.00 1079.37 C 1.37 1077.76 3.55 1078.67 4.72 1080.00 L 0.00 1080.00 L 0.00 1079.37 Z" />
<path fill="#3fdf9f" fill-opacity="0" d=" M 6.13 1080.00 C 6.06 1077.90 9.47 1077.82 9.27 1080.00 L 6.13 1080.00 Z" />
</g>
<g id="#dfdf1fff">
<path fill="#dfdf1f" fill-opacity="0" d=" M 12.35 1080.00 C 38.79 1078.39 65.32 1078.48 91.75 1079.97 L 92.63 1080.00 L 12.35 1080.00 Z" />
<path fill="#dfdf1f" fill-opacity="0" d=" M 106.00 1079.23 C 109.91 1079.44 113.82 1079.68 117.73 1079.96 L 118.67 1080.00 L 106.03 1080.00 L 106.00 1079.23 Z" />
</g>
<g id="#5f5f9ffe">
<path fill="#5f5f9f" fill-opacity="0" d=" M 91.75 1079.97 C 96.50 1079.77 101.24 1079.33 106.00 1079.23 L 106.03 1080.00 L 92.63 1080.00 L 91.75 1079.97 Z" />
</g>
<g id="#3fdfdfff">
<path fill="#3fdfdf" fill-opacity="0" d=" M 117.73 1079.96 C 138.04 1078.29 158.44 1078.70 178.76 1079.97 L 179.66 1080.00 L 118.67 1080.00 L 117.73 1079.96 Z" />
</g>
<g id="#1fdf9fff">
<path fill="#1fdf9f" fill-opacity="0" d=" M 178.76 1079.97 C 208.39 1078.40 238.10 1078.45 267.73 1079.97 L 268.64 1080.00 L 179.66 1080.00 L 178.76 1079.97 Z" />
</g>
<g id="#00df1fff">
<path fill="#00df1f" fill-opacity="0" d=" M 267.73 1079.97 C 291.36 1078.24 315.09 1078.64 338.73 1079.97 L 339.63 1080.00 L 268.64 1080.00 L 267.73 1079.97 Z" />
</g>
<g id="#3fdf1fff">
<path fill="#3fdf1f" fill-opacity="0" d=" M 338.73 1079.97 C 360.71 1078.22 382.79 1078.72 404.78 1079.98 L 405.64 1080.00 L 339.63 1080.00 L 338.73 1079.97 Z" />
</g>
<g id="#bfdf5fff">
<path fill="#bfdf5f" fill-opacity="0" d=" M 404.78 1079.98 C 412.19 1079.75 419.60 1079.43 427.02 1079.24 L 427.26 1080.00 L 405.64 1080.00 L 404.78 1079.98 Z" />
<path fill="#bfdf5f" fill-opacity="0" d=" M 429.99 1079.26 C 445.41 1078.69 460.83 1079.05 476.23 1079.98 L 475.35 1080.00 L 429.75 1080.00 L 429.99 1079.26 Z" />
</g>
<g id="#3fdf20ff">
<path fill="#3fdf20" fill-opacity="0" d=" M 427.02 1079.24 C 427.76 1079.24 429.25 1079.25 429.99 1079.26 L 429.75 1080.00 L 427.26 1080.00 L 427.02 1079.24 Z" />
</g>
<g id="#df9f1fff">
<path fill="#df9f1f" fill-opacity="0" d=" M 476.23 1079.98 C 531.78 1077.80 587.41 1079.56 643.00 1079.00 L 643.00 1080.00 L 475.35 1080.00 L 476.23 1079.98 Z" />
</g>
<g id="#9f9f00fe">
<path fill="#9f9f00" fill-opacity="0" d=" M 643.00 1079.00 C 722.00 1079.00 801.00 1079.00 880.00 1079.00 L 880.00 1080.00 L 643.00 1080.00 L 643.00 1079.00 Z" />
</g>
<g id="#3f5fbfff">
<path fill="#3f5fbf" fill-opacity="0" d=" M 880.00 1079.00 C 915.91 1079.42 951.86 1077.98 987.75 1079.97 L 988.64 1080.00 L 880.00 1080.00 L 880.00 1079.00 Z" />
</g>
<g id="#3fdf3fff">
<path fill="#3fdf3f" fill-opacity="0" d=" M 987.75 1079.97 C 1006.13 1078.65 1024.57 1078.88 1043.00 1079.00 L 1043.00 1080.00 L 988.64 1080.00 L 987.75 1079.97 Z" />
</g>
<g id="#ef00bfff">
<path fill="#ef00bf" fill-opacity="0" d=" M 1043.00 1079.00 C 1301.67 1079.01 1560.33 1078.99 1819.00 1079.01 C 1840.91 1078.98 1862.85 1078.53 1884.75 1079.97 L 1885.64 1080.00 L 1043.00 1080.00 L 1043.00 1079.00 Z" />
</g>
<g id="#af00bfff">
<path fill="#af00bf" fill-opacity="0" d=" M 1884.75 1079.97 C 1896.47 1079.24 1908.22 1078.84 1920.00 1078.87 L 1920.00 1080.00 L 1885.64 1080.00 L 1884.75 1079.97 Z" />
</g>
</svg>
