<?xml version="1.0" encoding="UTF-8" ?>
<!DOCTYPE svg PUBLIC "-//W3C//DTD SVG 1.1//EN" "http://www.w3.org/Graphics/SVG/1.1/DTD/svg11.dtd">
<svg width="1920pt" height="1080pt" viewBox="0 0 1920 1080" version="1.1" xmlns="http://www.w3.org/2000/svg">
<g id="#1f5f9fff">
<path fill="#1f5f9f" fill-opacity="0" d=" M 986.73 218.42 C 990.48 218.47 994.23 218.15 997.91 217.40 C 998.76 220.52 999.31 223.71 1000.40 226.79 C 1001.96 229.64 1007.39 229.33 1007.54 233.21 C 1007.96 238.82 1007.66 244.49 1007.39 250.12 C 1011.01 250.53 1015.39 249.61 1017.90 253.10 C 1020.28 255.33 1023.13 257.20 1025.12 259.85 C 1027.01 263.94 1027.75 268.39 1028.66 272.77 C 1029.40 276.30 1032.74 278.33 1034.43 281.35 C 1035.25 287.41 1033.53 293.47 1033.04 299.51 C 1036.13 299.53 1039.27 299.24 1042.36 299.76 C 1046.10 304.23 1046.64 310.45 1045.92 316.02 C 1045.04 326.95 1043.79 337.94 1044.45 348.90 C 1044.18 352.55 1048.16 352.23 1050.64 353.08 C 1053.82 354.00 1055.80 357.03 1058.83 358.25 C 1061.59 358.87 1064.42 358.26 1067.21 358.15 C 1068.10 368.19 1065.42 378.10 1065.17 388.13 C 1065.26 393.54 1062.55 398.24 1060.35 402.98 C 1058.14 411.27 1051.42 417.19 1047.52 424.61 C 1044.52 429.40 1045.45 435.28 1044.25 440.57 C 1043.06 445.53 1040.80 450.14 1039.12 454.94 C 1041.37 458.01 1043.35 461.27 1044.76 464.82 C 1040.52 468.19 1036.00 471.57 1030.57 472.64 C 1025.70 473.04 1020.81 472.44 1015.97 472.11 C 1014.18 477.56 1011.83 482.98 1011.79 488.84 C 1011.19 494.11 1012.31 499.74 1009.89 504.66 C 1008.55 507.73 1006.31 510.25 1003.92 512.54 C 997.63 503.87 988.09 497.11 984.99 486.42 C 980.97 485.72 977.05 484.51 973.15 483.42 C 971.82 489.80 966.94 495.50 968.38 502.34 C 963.21 505.12 958.32 508.60 955.33 513.79 C 950.64 514.53 945.84 514.23 941.14 514.74 C 935.63 515.92 930.48 518.21 925.14 519.89 C 919.28 521.57 913.17 519.31 907.23 520.16 C 905.41 526.12 906.62 532.55 905.11 538.56 C 901.76 545.09 893.86 545.61 887.50 546.29 C 883.86 538.60 876.68 533.82 870.69 528.14 C 875.05 524.45 873.69 518.59 874.64 513.61 C 875.96 509.16 878.69 505.11 878.58 500.29 C 877.64 496.99 875.29 494.37 873.30 491.67 C 876.17 489.32 878.98 486.87 881.63 484.26 C 880.97 484.51 879.66 485.02 879.01 485.28 C 878.70 482.03 877.65 478.59 878.72 475.39 C 883.26 470.55 890.05 468.57 894.74 463.89 C 895.24 459.27 889.41 458.08 887.36 454.72 C 883.47 448.57 881.93 440.90 882.51 433.69 C 884.08 429.86 888.47 428.04 891.41 425.34 C 895.12 422.06 900.42 424.49 904.66 422.66 C 906.70 420.35 904.02 417.67 903.27 415.35 C 893.19 417.38 884.26 409.77 879.19 401.81 C 876.35 392.92 878.31 383.45 877.16 374.31 C 878.13 374.07 879.11 373.84 880.11 373.61 C 880.57 370.75 880.25 367.45 881.88 364.88 C 884.57 361.31 888.99 359.87 892.52 357.36 C 893.74 354.54 893.22 351.30 894.40 348.47 C 898.53 346.08 903.51 345.46 907.27 342.34 C 911.96 338.77 917.54 336.92 923.01 334.96 C 924.26 332.29 924.46 329.25 925.72 326.57 C 929.38 322.76 934.26 320.48 938.38 317.26 C 939.94 314.26 939.26 310.64 939.71 307.44 C 941.22 305.06 942.34 302.49 943.41 299.89 C 940.46 296.97 936.27 294.65 935.30 290.30 C 933.76 284.13 934.88 277.68 934.49 271.39 C 936.14 270.89 937.80 270.38 939.46 269.86 C 939.49 266.31 939.96 262.79 940.85 259.36 C 941.97 259.54 943.12 259.72 944.28 259.91 C 945.25 250.04 950.33 241.18 950.57 231.18 C 955.55 233.63 961.06 233.90 966.46 234.52 C 973.23 236.85 979.03 231.29 985.60 230.54 C 985.92 226.49 986.24 222.45 986.73 218.42 Z" />
</g>
<g id="#1f1f5fff">
<path fill="#1f1f5f" fill-opacity="0" d=" M 1218.67 385.91 C 1225.05 387.48 1230.41 380.41 1236.59 383.46 C 1240.73 385.00 1244.97 386.28 1249.09 387.93 C 1254.18 390.23 1260.30 388.56 1265.01 391.97 C 1270.33 395.75 1277.96 396.94 1280.52 403.72 C 1283.19 403.45 1286.07 403.24 1288.80 402.99 C 1287.81 408.29 1285.35 413.90 1287.90 419.10 C 1289.83 423.61 1290.54 430.26 1296.35 431.29 C 1301.13 431.46 1305.80 429.98 1310.45 429.03 C 1311.82 430.85 1313.23 432.67 1314.71 434.43 C 1316.12 430.75 1317.50 427.06 1318.90 423.37 C 1321.22 423.72 1323.65 423.66 1325.91 424.41 C 1329.00 425.79 1331.15 428.83 1334.53 429.67 C 1338.71 431.10 1344.09 431.15 1346.81 435.23 C 1349.15 437.70 1347.79 441.20 1347.74 444.18 C 1347.36 448.20 1350.30 451.45 1353.11 453.91 C 1353.41 461.24 1360.27 466.23 1359.44 473.99 C 1363.26 475.96 1367.53 477.31 1371.00 479.95 C 1372.58 482.82 1373.57 485.99 1375.20 488.86 C 1377.04 491.79 1375.18 495.22 1374.46 498.21 C 1373.03 501.57 1372.13 506.13 1368.22 507.40 C 1364.33 508.77 1360.33 510.09 1356.20 510.29 C 1350.30 510.01 1345.74 505.76 1341.10 502.69 C 1336.67 501.02 1331.76 501.52 1327.17 500.55 C 1325.63 505.35 1323.15 510.06 1323.33 515.21 C 1323.66 520.13 1320.80 524.45 1319.12 528.90 C 1321.02 530.08 1322.84 530.98 1324.78 532.36 C 1325.52 534.20 1325.53 536.23 1325.81 538.18 C 1328.83 541.33 1331.00 545.21 1334.31 548.10 C 1334.61 549.85 1334.92 551.58 1335.30 553.32 C 1337.19 551.43 1338.97 549.43 1340.73 547.40 C 1343.02 547.56 1345.68 547.85 1348.06 547.99 C 1347.23 552.57 1345.33 557.40 1347.02 562.00 C 1349.16 570.91 1344.93 579.47 1341.66 587.52 C 1336.79 588.88 1333.02 585.92 1330.43 582.31 C 1327.92 585.16 1325.79 588.41 1322.82 590.78 C 1318.17 593.80 1312.29 593.81 1306.96 593.82 C 1303.39 593.44 1300.54 590.90 1297.14 590.01 C 1295.03 590.50 1293.15 591.62 1291.23 592.54 C 1286.68 589.66 1281.76 587.47 1276.87 585.26 C 1278.77 579.51 1281.77 574.20 1285.20 569.22 C 1281.90 569.57 1278.69 569.94 1275.43 570.27 C 1273.83 572.30 1272.50 574.74 1270.22 576.10 C 1264.95 577.49 1259.47 577.75 1254.07 578.20 C 1250.66 586.17 1248.30 594.57 1244.20 602.24 C 1236.93 603.23 1229.68 605.24 1222.29 604.28 C 1219.66 607.08 1218.48 614.78 1213.25 613.44 C 1208.25 610.85 1203.97 606.53 1197.99 606.29 C 1199.93 601.83 1201.18 597.02 1201.58 592.17 C 1201.33 582.79 1195.21 574.73 1194.60 565.40 C 1194.19 560.66 1194.02 555.90 1193.44 551.18 C 1189.10 551.34 1184.05 553.56 1180.17 550.85 C 1176.62 546.19 1177.21 539.61 1179.14 534.38 C 1181.21 528.84 1178.81 522.75 1180.65 517.21 C 1182.88 513.48 1187.86 512.92 1190.66 509.77 C 1192.33 506.88 1192.74 503.48 1193.41 500.26 C 1195.00 499.55 1196.59 498.84 1198.21 498.15 C 1195.58 494.48 1192.85 490.86 1190.14 487.27 C 1191.49 483.47 1193.77 479.90 1194.31 475.84 C 1193.85 471.49 1190.69 467.99 1189.83 463.75 C 1189.65 460.50 1191.03 457.44 1191.80 454.35 C 1187.53 447.34 1186.17 439.10 1183.50 431.43 C 1183.10 427.51 1187.75 424.99 1191.06 423.94 C 1197.54 417.29 1200.96 408.80 1205.09 400.71 C 1207.65 400.50 1210.19 400.19 1212.75 399.88 C 1213.53 394.80 1215.42 389.93 1218.67 385.91 Z" />
</g>
<g id="#1f5f1ffe">
<path fill="#1f5f1f" fill-opacity="0" d=" M 1173.37 442.32 C 1176.06 438.13 1178.20 432.82 1183.50 431.43 C 1186.17 439.10 1187.53 447.34 1191.80 454.35 C 1191.03 457.44 1189.65 460.50 1189.83 463.75 C 1190.69 467.99 1193.85 471.49 1194.31 475.84 C 1193.77 479.90 1191.49 483.47 1190.14 487.27 C 1192.85 490.86 1195.58 494.48 1198.21 498.15 C 1196.59 498.84 1195.00 499.55 1193.41 500.26 C 1192.74 503.48 1192.33 506.88 1190.66 509.77 C 1187.86 512.92 1182.88 513.48 1180.65 517.21 C 1178.81 522.75 1181.21 528.84 1179.14 534.38 C 1177.21 539.61 1176.62 546.19 1180.17 550.85 C 1184.05 553.56 1189.10 551.34 1193.44 551.18 C 1194.02 555.90 1194.19 560.66 1194.60 565.40 C 1195.21 574.73 1201.33 582.79 1201.58 592.17 C 1201.18 597.02 1199.93 601.83 1197.99 606.29 C 1193.92 610.83 1187.15 608.93 1182.03 607.55 C 1176.81 606.28 1170.98 605.08 1167.82 600.24 C 1166.53 597.46 1166.64 594.29 1166.36 591.31 C 1162.71 592.68 1159.68 595.21 1157.39 598.33 C 1151.09 597.81 1145.10 595.77 1139.37 593.20 C 1137.62 594.10 1135.91 595.03 1134.19 595.97 C 1130.91 591.65 1127.43 587.49 1123.83 583.44 C 1117.91 588.31 1116.40 596.58 1110.62 601.48 C 1105.08 601.04 1099.56 600.14 1093.99 600.11 C 1094.67 595.21 1095.44 590.30 1095.29 585.34 C 1094.71 581.40 1091.75 578.43 1089.65 575.25 C 1093.09 574.26 1096.59 573.49 1100.13 572.88 C 1098.63 565.51 1095.27 558.74 1092.08 552.00 C 1093.83 549.92 1095.83 547.80 1096.50 545.08 C 1095.61 533.72 1083.03 528.85 1079.70 518.61 C 1079.37 514.95 1081.76 511.67 1082.76 508.31 C 1086.22 509.21 1090.00 510.93 1093.54 509.31 C 1096.97 507.78 1101.88 506.81 1102.45 502.43 C 1102.93 498.10 1100.86 494.04 1099.93 489.92 C 1102.98 490.15 1107.39 488.20 1109.74 491.17 C 1111.06 492.48 1112.26 493.91 1113.51 495.31 C 1119.97 492.26 1123.08 484.46 1121.16 477.71 C 1118.34 473.08 1113.79 469.32 1108.58 467.73 C 1100.28 466.74 1093.96 473.30 1086.41 475.52 C 1081.27 477.53 1075.68 476.62 1070.40 475.80 C 1070.43 473.14 1070.47 470.48 1070.45 467.82 C 1072.97 466.38 1076.25 465.56 1077.64 462.77 C 1078.92 460.31 1079.45 457.55 1080.26 454.91 C 1085.87 454.29 1091.59 454.50 1097.12 455.70 C 1099.84 456.39 1102.13 454.20 1104.61 453.47 C 1107.53 451.62 1110.35 454.52 1112.95 455.69 C 1116.29 453.00 1120.23 451.36 1124.23 449.89 C 1127.44 447.14 1129.21 443.10 1132.01 439.95 C 1135.61 442.49 1136.16 446.49 1134.55 450.38 C 1138.72 449.76 1142.88 449.25 1147.10 448.93 C 1146.29 454.45 1145.47 459.98 1144.56 465.49 C 1145.53 463.74 1146.44 461.97 1147.35 460.19 C 1148.86 462.32 1150.45 464.42 1152.19 466.39 C 1154.16 463.02 1155.68 458.51 1160.39 458.16 C 1163.18 456.92 1166.27 456.67 1169.15 455.72 C 1171.09 451.43 1170.82 446.37 1173.37 442.32 Z" />
</g>
<g id="#bfdfdfff">
<path fill="#bfdfdf" fill-opacity="0" d=" M 810.40 455.15 C 814.22 454.74 816.84 450.64 820.84 451.28 C 824.45 451.63 828.14 451.33 831.68 452.31 C 833.39 458.03 833.93 464.03 835.03 469.89 C 839.72 471.03 844.57 471.51 849.18 472.93 C 850.81 475.06 850.58 478.02 850.98 480.58 C 853.51 480.06 856.25 478.99 858.78 480.15 C 861.96 481.81 863.34 485.42 863.93 488.78 C 869.15 488.62 874.29 487.55 879.01 485.28 C 879.66 485.02 880.97 484.51 881.63 484.26 C 878.98 486.87 876.17 489.32 873.30 491.67 C 875.29 494.37 877.64 496.99 878.58 500.29 C 878.69 505.11 875.96 509.16 874.64 513.61 C 873.69 518.59 875.05 524.45 870.69 528.14 C 866.45 531.76 865.78 537.48 865.10 542.68 C 861.35 543.22 857.61 543.72 853.87 544.27 C 851.13 540.50 849.23 536.23 847.74 531.84 C 842.77 532.29 837.72 533.52 833.82 536.78 C 828.82 540.24 825.72 545.75 820.82 549.28 C 814.16 551.43 807.56 553.84 801.31 557.01 C 797.98 553.24 795.74 548.70 793.56 544.22 C 792.27 544.09 790.98 543.98 789.70 543.88 C 789.05 547.19 788.02 550.64 788.98 554.00 C 789.58 556.71 791.26 559.36 790.57 562.22 C 789.75 566.07 788.36 569.77 787.65 573.66 C 786.65 576.90 790.28 578.89 791.94 581.16 C 789.72 583.17 787.50 585.18 785.27 587.18 C 785.89 589.39 786.47 591.62 787.08 593.84 C 782.10 593.44 776.87 593.94 772.24 591.69 C 765.27 587.62 757.23 587.19 749.57 585.46 C 746.14 584.60 742.69 585.69 739.25 585.61 C 734.37 584.95 729.87 581.75 724.82 582.67 C 720.82 583.43 716.79 584.39 712.69 583.90 C 715.29 582.20 718.17 580.62 719.99 578.03 C 721.71 573.40 721.97 568.40 723.22 563.65 C 724.95 557.90 728.29 552.85 731.28 547.71 C 732.70 545.68 731.22 543.20 731.04 541.03 C 729.61 535.70 732.74 530.51 732.52 525.16 C 735.09 525.31 737.57 525.39 740.19 525.56 C 743.43 521.95 746.43 518.13 747.48 513.29 C 751.41 508.81 757.67 506.79 763.24 505.09 C 765.52 501.83 767.03 497.78 770.38 495.41 C 775.23 493.11 781.27 495.01 785.79 491.79 C 790.31 488.15 794.94 484.66 799.91 481.64 C 799.48 474.76 797.72 467.85 798.97 460.97 C 800.17 455.86 806.47 456.45 810.40 455.15 M 801.32 518.18 C 800.23 519.53 802.59 521.00 803.47 519.61 C 804.55 518.25 802.18 516.80 801.32 518.18 Z" />
</g>
<g id="#1fdf1ffe">
<path fill="#1fdf1f" fill-opacity="0" d=" M 1044.76 464.82 C 1047.74 465.01 1050.31 466.40 1051.17 469.43 C 1057.52 467.80 1064.17 469.87 1070.45 467.82 C 1070.47 470.48 1070.43 473.14 1070.40 475.80 C 1075.68 476.62 1081.27 477.53 1086.41 475.52 C 1093.96 473.30 1100.28 466.74 1108.58 467.73 C 1113.79 469.32 1118.34 473.08 1121.16 477.71 C 1123.08 484.46 1119.97 492.26 1113.51 495.31 C 1112.26 493.91 1111.06 492.48 1109.74 491.17 C 1107.39 488.20 1102.98 490.15 1099.93 489.92 C 1100.86 494.04 1102.93 498.10 1102.45 502.43 C 1101.88 506.81 1096.97 507.78 1093.54 509.31 C 1090.00 510.93 1086.22 509.21 1082.76 508.31 C 1081.76 511.67 1079.37 514.95 1079.70 518.61 C 1083.03 528.85 1095.61 533.72 1096.50 545.08 C 1095.83 547.80 1093.83 549.92 1092.08 552.00 C 1095.27 558.74 1098.63 565.51 1100.13 572.88 C 1096.59 573.49 1093.09 574.26 1089.65 575.25 C 1091.75 578.43 1094.71 581.40 1095.29 585.34 C 1095.44 590.30 1094.67 595.21 1093.99 600.11 L 1093.79 601.50 C 1088.26 601.59 1083.87 597.78 1078.65 596.62 C 1074.58 595.63 1070.45 594.93 1066.29 594.50 C 1066.90 590.82 1067.36 587.13 1067.88 583.44 C 1060.37 580.92 1053.15 577.62 1046.13 573.99 C 1040.52 570.95 1033.79 576.38 1028.41 572.57 C 1021.68 566.28 1029.59 557.62 1025.86 550.41 C 1025.08 547.11 1022.08 543.89 1018.47 545.56 C 1009.11 549.83 1002.14 558.27 997.11 567.06 C 994.32 571.64 992.44 577.74 986.71 579.46 C 978.78 582.56 971.48 587.07 965.98 593.68 C 962.31 593.57 958.43 593.71 955.11 591.89 C 953.47 585.77 953.96 579.28 955.26 573.16 C 956.22 568.41 961.30 566.68 964.84 564.23 C 962.87 561.67 960.66 559.31 958.28 557.14 C 957.45 550.90 957.30 544.61 957.10 538.34 C 960.96 538.69 964.84 539.03 968.72 538.66 C 962.72 531.28 957.26 523.31 955.33 513.79 C 958.32 508.60 963.21 505.12 968.38 502.34 C 966.94 495.50 971.82 489.80 973.15 483.42 C 977.05 484.51 980.97 485.72 984.99 486.42 C 988.09 497.11 997.63 503.87 1003.92 512.54 C 1006.31 510.25 1008.55 507.73 1009.89 504.66 C 1012.31 499.74 1011.19 494.11 1011.79 488.84 C 1011.83 482.98 1014.18 477.56 1015.97 472.11 C 1020.81 472.44 1025.70 473.04 1030.57 472.64 C 1036.00 471.57 1040.52 468.19 1044.76 464.82 Z" />
</g>
<g id="#df5f1fff">
<path fill="#df5f1f" fill-opacity="0" d=" M 694.47 512.20 C 698.68 512.58 703.12 511.69 707.24 512.91 C 710.16 514.59 710.59 518.30 711.58 521.22 C 712.54 525.28 715.16 528.65 716.39 532.62 C 718.37 538.77 719.97 545.17 723.38 550.75 C 725.88 549.42 728.53 548.39 731.28 547.71 C 728.29 552.85 724.95 557.90 723.22 563.65 C 721.97 568.40 721.71 573.40 719.99 578.03 C 718.17 580.62 715.29 582.20 712.69 583.90 C 707.23 587.05 701.03 588.62 695.57 591.74 C 692.13 593.61 691.01 598.47 693.32 601.63 C 696.40 605.58 700.86 608.13 705.28 610.34 C 706.93 611.32 709.10 612.30 709.45 614.42 C 710.16 621.55 707.28 628.60 708.80 635.69 C 711.12 641.67 707.87 648.23 702.36 650.88 C 698.26 651.20 694.19 649.69 690.07 650.38 C 686.60 650.37 684.53 653.52 682.44 655.81 C 679.73 656.11 676.98 656.49 674.27 656.08 C 668.87 655.09 664.36 651.34 658.85 650.81 C 654.49 650.31 649.68 649.92 646.45 646.58 C 642.12 642.16 639.16 636.64 635.65 631.60 C 634.27 629.22 631.93 626.39 633.64 623.57 C 635.60 619.71 636.02 615.36 636.00 611.10 C 635.89 603.26 638.59 595.76 639.87 588.12 C 640.48 580.83 641.28 572.85 645.84 566.86 C 650.96 562.77 658.01 559.67 659.77 552.72 C 660.02 545.14 660.44 537.53 662.99 530.31 C 667.86 530.15 672.54 528.71 677.36 528.13 C 679.54 527.65 682.23 527.78 683.74 525.81 C 687.43 521.37 691.10 516.89 694.47 512.20 Z" />
</g>
<g id="#bf5fdfff">
<path fill="#bf5fdf" fill-opacity="0" d=" M 941.14 514.74 C 945.84 514.23 950.64 514.53 955.33 513.79 C 957.26 523.31 962.72 531.28 968.72 538.66 C 964.84 539.03 960.96 538.69 957.10 538.34 C 957.30 544.61 957.45 550.90 958.28 557.14 C 960.66 559.31 962.87 561.67 964.84 564.23 C 961.30 566.68 956.22 568.41 955.26 573.16 C 953.96 579.28 953.47 585.77 955.11 591.89 C 958.43 593.71 962.31 593.57 965.98 593.68 C 965.09 599.01 967.68 604.22 966.76 609.51 C 965.48 617.68 954.54 620.31 954.54 629.00 C 954.54 635.56 947.58 638.31 943.69 642.46 C 945.08 643.92 946.52 645.37 947.92 646.85 C 946.72 648.81 945.51 650.78 944.46 652.83 C 934.42 653.01 924.24 652.26 914.40 654.70 C 904.91 656.79 895.11 656.67 885.61 658.72 C 882.00 659.58 878.85 657.20 875.72 655.85 C 876.10 653.72 876.55 651.60 876.82 649.46 C 877.16 643.41 874.59 637.66 873.43 631.84 C 870.38 621.03 870.91 609.31 865.84 599.06 C 863.66 593.51 859.00 588.53 859.59 582.19 C 860.68 576.52 864.69 571.47 864.37 565.52 C 861.86 560.38 856.31 557.63 853.27 552.89 C 852.40 550.08 853.56 547.11 853.87 544.27 C 857.61 543.72 861.35 543.22 865.10 542.68 C 865.78 537.48 866.45 531.76 870.69 528.14 C 876.68 533.82 883.86 538.60 887.50 546.29 C 893.86 545.61 901.76 545.09 905.11 538.56 C 906.62 532.55 905.41 526.12 907.23 520.16 C 913.17 519.31 919.28 521.57 925.14 519.89 C 930.48 518.21 935.63 515.92 941.14 514.74 M 907.19 590.60 C 905.89 591.90 908.13 593.93 909.32 592.53 C 910.59 591.25 908.33 589.32 907.19 590.60 Z" />
</g>
<g id="#1f2020ff">
<path fill="#1f2020" fill-opacity="0" d=" M 801.32 518.18 C 802.18 516.80 804.55 518.25 803.47 519.61 C 802.59 521.00 800.23 519.53 801.32 518.18 Z" />
</g>
<g id="#9f1f9fff">
<path fill="#9f1f9f" fill-opacity="0" d=" M 630.71 524.92 C 638.20 523.56 645.71 525.14 653.19 525.71 C 656.94 525.93 660.21 527.92 662.99 530.31 C 660.44 537.53 660.02 545.14 659.77 552.72 C 658.01 559.67 650.96 562.77 645.84 566.86 C 641.28 572.85 640.48 580.83 639.87 588.12 C 638.59 595.76 635.89 603.26 636.00 611.10 C 636.02 615.36 635.60 619.71 633.64 623.57 C 631.93 626.39 634.27 629.22 635.65 631.60 C 634.16 634.19 632.79 636.84 631.47 639.51 C 629.05 639.64 626.63 639.78 624.22 639.96 C 623.28 644.54 622.20 649.07 621.10 653.62 C 615.02 652.67 608.79 652.02 602.77 653.70 C 605.27 659.18 607.93 664.64 611.79 669.32 C 613.90 671.71 613.08 675.07 612.85 677.94 C 612.32 681.18 612.13 684.64 610.52 687.57 C 607.79 690.55 603.42 690.89 599.81 692.20 C 598.26 688.23 597.02 684.14 596.00 680.01 C 593.71 680.41 591.39 680.66 589.18 681.31 C 588.33 683.90 588.26 686.80 588.93 689.44 C 591.52 692.69 598.10 693.15 597.76 698.27 C 597.69 703.51 596.22 709.05 592.86 713.16 C 589.24 711.14 586.83 707.51 583.11 705.67 C 578.86 707.63 575.17 710.61 571.18 713.03 C 571.98 708.01 573.06 703.03 574.21 698.09 C 566.29 696.70 558.56 694.15 550.36 695.30 C 548.84 692.35 547.94 688.89 545.46 686.57 C 543.49 685.80 541.31 686.00 539.25 685.89 C 542.40 680.80 545.53 675.36 545.59 669.21 C 548.85 668.14 552.11 667.09 555.41 666.10 C 554.50 662.20 554.73 658.19 555.48 654.29 C 556.45 648.92 554.74 642.78 558.07 638.05 C 562.75 634.49 567.57 630.81 569.84 625.19 C 573.02 623.94 575.99 622.22 578.63 620.07 C 580.72 620.96 582.80 621.91 584.87 622.88 C 587.37 618.97 589.87 614.83 594.08 612.55 C 594.64 610.09 595.17 607.57 596.37 605.33 C 600.38 603.91 604.85 604.30 608.81 602.70 C 609.02 602.21 609.44 601.21 609.64 600.71 C 608.81 591.30 599.86 583.52 601.94 573.69 C 602.44 569.61 598.60 565.28 601.53 561.58 C 609.03 551.12 618.02 541.79 625.13 531.05 C 626.78 528.84 628.31 526.38 630.71 524.92 M 611.32 628.18 C 610.15 629.64 612.67 631.29 613.68 629.82 C 614.84 628.35 612.31 626.69 611.32 628.18 Z" />
</g>
<g id="#df9f9fff">
<path fill="#df9f9f" fill-opacity="0" d=" M 833.82 536.78 C 837.72 533.52 842.77 532.29 847.74 531.84 C 849.23 536.23 851.13 540.50 853.87 544.27 C 853.56 547.11 852.40 550.08 853.27 552.89 C 856.31 557.63 861.86 560.38 864.37 565.52 C 864.69 571.47 860.68 576.52 859.59 582.19 C 859.00 588.53 863.66 593.51 865.84 599.06 C 870.91 609.31 870.38 621.03 873.43 631.84 C 874.59 637.66 877.16 643.41 876.82 649.46 C 872.49 650.36 868.62 652.54 865.59 655.75 C 863.79 652.45 861.96 649.07 861.33 645.33 C 860.58 639.99 861.59 634.38 859.68 629.24 C 858.62 627.47 856.00 625.83 854.02 627.18 C 849.39 629.71 844.49 633.23 838.90 631.98 C 830.51 629.68 822.63 625.53 815.63 620.41 C 812.24 617.40 808.87 614.35 804.95 612.05 C 803.73 616.94 803.70 622.24 801.26 626.76 C 798.80 628.72 796.26 630.66 793.37 631.92 C 790.91 632.83 788.18 630.76 787.79 628.31 C 786.94 619.98 788.94 611.65 792.05 603.97 C 792.54 601.88 794.33 599.27 792.88 597.18 C 791.35 595.49 789.12 594.70 787.08 593.84 C 786.47 591.62 785.89 589.39 785.27 587.18 C 787.50 585.18 789.72 583.17 791.94 581.16 C 790.28 578.89 786.65 576.90 787.65 573.66 C 788.36 569.77 789.75 566.07 790.57 562.22 C 791.26 559.36 789.58 556.71 788.98 554.00 C 788.02 550.64 789.05 547.19 789.70 543.88 C 790.98 543.98 792.27 544.09 793.56 544.22 C 795.74 548.70 797.98 553.24 801.31 557.01 C 807.56 553.84 814.16 551.43 820.82 549.28 C 825.72 545.75 828.82 540.24 833.82 536.78 Z" />
</g>
<g id="#9fdf1fff">
<path fill="#9fdf1f" fill-opacity="0" d=" M 1018.47 545.56 C 1022.08 543.89 1025.08 547.11 1025.86 550.41 C 1029.59 557.62 1021.68 566.28 1028.41 572.57 C 1033.79 576.38 1040.52 570.95 1046.13 573.99 C 1053.15 577.62 1060.37 580.92 1067.88 583.44 C 1067.36 587.13 1066.90 590.82 1066.29 594.50 C 1064.82 599.96 1063.37 606.09 1058.80 609.80 C 1056.09 611.00 1053.07 609.64 1050.25 609.82 C 1039.94 610.82 1031.32 616.74 1021.86 620.19 C 1021.50 622.03 1021.42 623.91 1021.23 625.77 C 1023.38 626.20 1025.55 626.66 1027.71 627.12 C 1029.57 630.55 1030.66 634.60 1033.41 637.52 C 1036.41 639.87 1040.17 640.97 1043.74 642.19 C 1042.87 647.09 1042.60 652.19 1040.89 656.88 C 1037.38 658.55 1033.28 656.95 1029.55 656.97 C 1027.22 664.04 1025.55 671.32 1023.85 678.57 C 1022.16 681.82 1023.01 685.32 1024.96 688.05 C 1028.24 692.57 1026.02 698.33 1025.73 703.37 C 1025.26 714.19 1026.11 725.06 1024.96 735.86 C 1024.08 736.29 1023.21 736.73 1022.35 737.17 C 1022.47 733.95 1022.54 730.70 1022.66 727.50 C 1018.26 725.54 1013.71 723.77 1009.64 721.21 C 1004.98 715.60 1005.41 707.59 1000.94 701.85 C 998.93 704.53 997.02 707.28 995.19 710.08 C 988.32 709.24 981.05 705.23 974.43 709.57 C 967.65 713.09 960.02 711.83 952.70 711.95 C 946.39 712.23 941.12 708.12 935.19 706.64 C 936.26 700.59 940.33 696.13 944.67 692.16 C 942.60 689.66 939.42 687.26 939.40 683.73 C 940.23 680.21 943.84 678.24 945.20 674.97 C 946.34 667.43 939.38 659.88 944.46 652.83 C 945.51 650.78 946.72 648.81 947.92 646.85 C 946.52 645.37 945.08 643.92 943.69 642.46 C 947.58 638.31 954.54 635.56 954.54 629.00 C 954.54 620.31 965.48 617.68 966.76 609.51 C 967.68 604.22 965.09 599.01 965.98 593.68 C 971.48 587.07 978.78 582.56 986.71 579.46 C 992.44 577.74 994.32 571.64 997.11 567.06 C 1002.14 558.27 1009.11 549.83 1018.47 545.56 Z" />
</g>
<g id="#5f5f9fff">
<path fill="#5f5f9f" fill-opacity="0" d=" M 712.69 583.90 C 716.79 584.39 720.82 583.43 724.82 582.67 C 729.87 581.75 734.37 584.95 739.25 585.61 C 742.69 585.69 746.14 584.60 749.57 585.46 C 757.23 587.19 765.27 587.62 772.24 591.69 C 776.87 593.94 782.10 593.44 787.08 593.84 C 789.12 594.70 791.35 595.49 792.88 597.18 C 794.33 599.27 792.54 601.88 792.05 603.97 C 788.94 611.65 786.94 619.98 787.79 628.31 C 788.18 630.76 790.91 632.83 793.37 631.92 C 796.26 630.66 798.80 628.72 801.26 626.76 C 801.75 627.89 802.72 630.15 803.21 631.28 C 805.18 632.37 807.51 633.17 808.90 635.06 C 810.30 640.93 809.41 647.05 809.43 653.01 C 809.21 659.90 812.69 666.58 810.64 673.45 C 807.36 673.67 804.06 673.79 800.83 674.28 C 795.60 675.01 789.97 679.18 784.75 676.49 C 781.79 674.75 780.17 671.55 778.14 668.92 C 777.66 674.16 777.39 679.45 776.33 684.62 C 775.13 689.71 772.17 694.11 770.27 698.93 C 762.69 696.64 756.29 691.11 752.34 684.31 C 746.05 687.74 738.94 688.18 731.94 688.08 C 728.03 687.68 727.27 692.60 725.53 694.99 C 724.16 695.22 722.79 695.45 721.44 695.71 C 721.85 698.35 722.27 700.98 722.64 703.63 C 720.44 701.02 718.42 698.28 716.47 695.49 C 713.64 695.09 710.99 694.87 708.21 694.52 C 697.05 693.54 685.83 689.32 674.66 692.64 C 674.03 691.56 673.41 690.48 672.80 689.41 C 675.45 686.83 678.65 684.41 679.96 680.85 C 681.13 672.78 681.78 664.49 685.02 656.92 C 684.37 656.64 683.08 656.09 682.44 655.81 C 684.53 653.52 686.60 650.37 690.07 650.38 C 694.19 649.69 698.26 651.20 702.36 650.88 C 707.87 648.23 711.12 641.67 708.80 635.69 C 707.28 628.60 710.16 621.55 709.45 614.42 C 709.10 612.30 706.93 611.32 705.28 610.34 C 700.86 608.13 696.40 605.58 693.32 601.63 C 691.01 598.47 692.13 593.61 695.57 591.74 C 701.03 588.62 707.23 587.05 712.69 583.90 M 746.05 623.08 C 748.26 626.96 753.13 625.78 755.80 623.02 C 752.53 622.90 749.29 622.92 746.05 623.08 Z" />
</g>
<g id="#3fdfdfff">
<path fill="#3fdfdf" fill-opacity="0" d=" M 907.19 590.60 C 908.33 589.32 910.59 591.25 909.32 592.53 C 908.13 593.93 905.89 591.90 907.19 590.60 Z" />
</g>
<g id="#3f5fdffe">
<path fill="#3f5fdf" fill-opacity="0" d=" M 804.95 612.05 C 808.87 614.35 812.24 617.40 815.63 620.41 C 822.63 625.53 830.51 629.68 838.90 631.98 C 844.49 633.23 849.39 629.71 854.02 627.18 C 856.00 625.83 858.62 627.47 859.68 629.24 C 861.59 634.38 860.58 639.99 861.33 645.33 C 861.96 649.07 863.79 652.45 865.59 655.75 C 868.62 652.54 872.49 650.36 876.82 649.46 C 876.55 651.60 876.10 653.72 875.72 655.85 C 874.17 662.70 878.64 670.32 874.63 676.61 C 869.39 681.93 861.32 679.13 854.79 679.06 C 849.62 685.69 847.15 694.09 846.28 702.38 C 841.71 702.28 837.08 700.15 832.58 701.49 C 828.30 708.33 829.73 717.03 830.71 724.59 C 828.97 724.85 825.51 725.39 823.78 725.65 C 824.28 730.01 824.68 734.81 827.62 738.35 C 833.93 745.58 836.34 755.20 838.69 764.26 C 832.25 767.71 826.00 771.53 818.73 773.06 C 813.38 776.20 808.37 780.25 801.77 780.11 C 802.70 782.83 803.72 785.52 804.79 788.20 C 803.76 789.10 802.73 790.00 801.72 790.92 C 800.00 790.32 798.28 789.72 796.58 789.14 C 796.17 785.07 795.61 781.02 795.04 776.98 C 793.38 776.80 791.72 776.64 790.07 776.47 C 788.44 770.42 786.30 764.55 784.39 758.60 C 781.94 750.79 786.11 743.02 787.49 735.46 C 790.02 735.19 792.55 734.93 795.10 734.69 C 794.06 727.81 792.72 720.99 791.71 714.12 C 791.42 712.22 791.55 710.21 792.54 708.53 C 796.19 701.87 802.10 696.56 805.11 689.54 C 805.21 684.19 802.29 679.32 800.83 674.28 C 804.06 673.79 807.36 673.67 810.64 673.45 C 812.69 666.58 809.21 659.90 809.43 653.01 C 809.41 647.05 810.30 640.93 808.90 635.06 C 807.51 633.17 805.18 632.37 803.21 631.28 C 802.72 630.15 801.75 627.89 801.26 626.76 C 803.70 622.24 803.73 616.94 804.95 612.05 Z" />
</g>
<g id="#df5f9fff">
<path fill="#df5f9f" fill-opacity="0" d=" M 746.05 623.08 C 749.29 622.92 752.53 622.90 755.80 623.02 C 753.13 625.78 748.26 626.96 746.05 623.08 Z" />
</g>
<g id="#209f9fff">
<path fill="#209f9f" fill-opacity="0" d=" M 611.32 628.18 C 612.31 626.69 614.84 628.35 613.68 629.82 C 612.67 631.29 610.15 629.64 611.32 628.18 Z" />
</g>
<g id="#df1f9ffe">
<path fill="#df1f9f" fill-opacity="0" d=" M 631.47 639.51 C 632.79 636.84 634.16 634.19 635.65 631.60 C 639.16 636.64 642.12 642.16 646.45 646.58 C 649.68 649.92 654.49 650.31 658.85 650.81 C 664.36 651.34 668.87 655.09 674.27 656.08 C 676.98 656.49 679.73 656.11 682.44 655.81 C 683.08 656.09 684.37 656.64 685.02 656.92 C 681.78 664.49 681.13 672.78 679.96 680.85 C 678.65 684.41 675.45 686.83 672.80 689.41 C 673.41 690.48 674.03 691.56 674.66 692.64 C 670.69 693.80 663.35 696.48 666.19 701.67 C 669.47 708.37 668.27 716.17 667.06 723.19 C 664.36 726.12 659.54 725.63 655.92 726.68 C 655.63 729.49 655.76 732.44 654.68 735.10 C 652.56 739.00 649.13 742.13 647.62 746.37 C 646.96 749.35 647.30 752.51 647.33 755.56 C 643.51 757.21 639.44 758.50 636.09 761.03 C 633.32 763.79 631.62 767.40 629.73 770.78 C 627.60 770.71 625.48 770.63 623.36 770.59 C 626.46 774.90 630.90 778.39 633.07 783.30 C 632.86 786.91 631.09 790.21 630.25 793.69 C 635.00 793.40 640.15 791.28 644.72 793.28 C 651.90 797.69 655.84 805.39 660.40 812.16 C 656.11 812.90 651.99 814.81 652.05 820.12 C 648.51 821.40 645.23 823.22 641.77 824.67 C 639.05 825.81 636.05 824.59 633.25 825.24 C 629.27 829.09 625.54 833.30 622.47 837.94 C 616.89 834.95 612.16 830.66 608.20 825.75 C 606.15 823.14 602.61 821.88 599.36 822.39 C 594.25 823.00 589.08 822.83 584.00 823.66 C 580.01 818.73 576.00 813.83 572.55 808.52 C 571.08 806.43 569.65 804.00 567.19 802.99 C 564.11 802.26 561.01 802.34 557.90 802.09 C 554.05 796.37 551.58 788.53 544.61 785.89 C 540.24 783.75 537.85 779.27 535.29 775.39 C 532.29 776.39 529.69 778.15 527.28 780.14 C 523.95 779.64 520.42 778.48 518.61 775.41 C 512.24 765.85 507.19 755.50 501.69 745.44 C 498.78 739.85 493.34 736.12 490.32 730.59 C 489.81 726.74 491.16 722.63 493.96 719.95 C 497.83 717.36 503.95 719.23 507.00 715.12 C 508.66 713.44 510.02 710.67 512.73 710.71 C 517.83 710.85 522.84 712.08 527.63 713.77 C 529.95 707.85 534.36 703.17 538.16 698.20 C 540.94 694.58 540.47 689.93 539.25 685.89 C 541.31 686.00 543.49 685.80 545.46 686.57 C 547.94 688.89 548.84 692.35 550.36 695.30 C 558.56 694.15 566.29 696.70 574.21 698.09 C 573.06 703.03 571.98 708.01 571.18 713.03 C 575.17 710.61 578.86 707.63 583.11 705.67 C 586.83 707.51 589.24 711.14 592.86 713.16 C 596.22 709.05 597.69 703.51 597.76 698.27 C 598.10 693.15 591.52 692.69 588.93 689.44 C 588.26 686.80 588.33 683.90 589.18 681.31 C 591.39 680.66 593.71 680.41 596.00 680.01 C 597.02 684.14 598.26 688.23 599.81 692.20 C 603.42 690.89 607.79 690.55 610.52 687.57 C 612.13 684.64 612.32 681.18 612.85 677.94 C 613.08 675.07 613.90 671.71 611.79 669.32 C 607.93 664.64 605.27 659.18 602.77 653.70 C 608.79 652.02 615.02 652.67 621.10 653.62 C 622.20 649.07 623.28 644.54 624.22 639.96 C 626.63 639.78 629.05 639.64 631.47 639.51 M 631.37 699.47 C 632.61 699.56 633.87 699.66 635.13 699.77 C 634.96 698.29 634.79 696.83 634.63 695.37 C 633.42 696.63 632.33 698.00 631.37 699.47 Z" />
</g>
<g id="#3fdf5fff">
<path fill="#3fdf5f" fill-opacity="0" d=" M 914.40 654.70 C 924.24 652.26 934.42 653.01 944.46 652.83 C 939.38 659.88 946.34 667.43 945.20 674.97 C 943.84 678.24 940.23 680.21 939.40 683.73 C 939.42 687.26 942.60 689.66 944.67 692.16 C 940.33 696.13 936.26 700.59 935.19 706.64 C 932.86 716.15 919.11 711.74 914.48 719.11 C 912.18 724.90 910.79 731.07 910.25 737.28 C 901.66 734.42 893.31 738.84 884.66 738.09 C 884.88 740.33 885.10 742.57 885.23 744.83 C 879.66 745.74 874.21 747.27 868.77 748.73 C 866.36 749.59 863.83 751.38 863.35 754.03 C 863.06 759.97 869.97 763.71 869.02 769.73 C 868.74 771.93 868.46 774.15 868.20 776.41 C 860.30 775.56 852.24 776.68 845.37 780.78 C 844.43 779.56 843.49 778.34 842.57 777.14 C 841.40 777.67 840.24 778.21 839.09 778.76 C 838.91 773.92 839.81 769.04 838.69 764.26 C 836.34 755.20 833.93 745.58 827.62 738.35 C 824.68 734.81 824.28 730.01 823.78 725.65 C 825.51 725.39 828.97 724.85 830.71 724.59 C 829.73 717.03 828.30 708.33 832.58 701.49 C 837.08 700.15 841.71 702.28 846.28 702.38 C 847.15 694.09 849.62 685.69 854.79 679.06 C 861.32 679.13 869.39 681.93 874.63 676.61 C 878.64 670.32 874.17 662.70 875.72 655.85 C 878.85 657.20 882.00 659.58 885.61 658.72 C 895.11 656.67 904.91 656.79 914.40 654.70 Z" />
</g>
<g id="#1f9f5fff">
<path fill="#1f9f5f" fill-opacity="0" d=" M 778.14 668.92 C 780.17 671.55 781.79 674.75 784.75 676.49 C 789.97 679.18 795.60 675.01 800.83 674.28 C 802.29 679.32 805.21 684.19 805.11 689.54 C 802.10 696.56 796.19 701.87 792.54 708.53 C 791.55 710.21 791.42 712.22 791.71 714.12 C 792.72 720.99 794.06 727.81 795.10 734.69 C 792.55 734.93 790.02 735.19 787.49 735.46 C 786.11 743.02 781.94 750.79 784.39 758.60 C 786.30 764.55 788.44 770.42 790.07 776.47 C 785.51 776.39 781.62 773.87 777.90 771.54 C 778.49 768.43 779.05 765.31 779.50 762.18 C 774.64 761.57 770.25 763.20 767.66 767.34 C 766.13 766.18 764.61 765.02 763.15 763.82 C 761.37 760.68 760.18 757.22 758.77 753.96 C 761.59 752.34 764.95 751.21 767.02 748.58 C 769.44 743.41 766.47 738.10 763.86 733.71 C 762.14 729.84 759.11 726.75 757.23 723.00 C 759.74 719.07 764.00 716.67 766.51 712.72 C 769.69 708.79 769.20 703.57 770.27 698.93 C 772.17 694.11 775.13 689.71 776.33 684.62 C 777.39 679.45 777.66 674.16 778.14 668.92 Z" />
</g>
<g id="#9f5f1fff">
<path fill="#9f5f1f" fill-opacity="0" d=" M 731.94 688.08 C 738.94 688.18 746.05 687.74 752.34 684.31 C 756.29 691.11 762.69 696.64 770.27 698.93 C 769.20 703.57 769.69 708.79 766.51 712.72 C 764.00 716.67 759.74 719.07 757.23 723.00 C 759.11 726.75 762.14 729.84 763.86 733.71 C 758.52 737.41 752.59 740.31 747.92 744.91 C 745.69 747.24 742.68 748.43 739.72 749.47 C 738.06 753.53 737.47 758.78 733.18 761.03 C 727.99 764.04 721.85 761.86 716.25 762.79 C 711.52 763.61 704.77 762.74 701.88 767.61 C 699.58 771.33 697.46 775.20 694.42 778.40 C 689.84 778.68 685.28 779.03 680.71 779.44 C 680.82 769.27 690.12 763.46 695.39 755.90 C 692.84 753.15 690.23 750.42 687.67 747.70 C 692.59 746.22 697.56 744.96 702.58 743.85 C 703.63 739.74 704.55 735.53 706.75 731.86 C 708.30 728.48 710.84 725.23 710.75 721.37 C 706.99 717.50 701.77 714.91 699.47 709.75 C 702.18 707.68 705.57 706.32 707.74 703.61 C 709.58 700.87 708.47 697.51 708.21 694.52 C 710.99 694.87 713.64 695.09 716.47 695.49 C 718.42 698.28 720.44 701.02 722.64 703.63 C 722.27 700.98 721.85 698.35 721.44 695.71 C 722.79 695.45 724.16 695.22 725.53 694.99 C 727.27 692.60 728.03 687.68 731.94 688.08 Z" />
</g>
<g id="#9f9f1fff">
<path fill="#9f9f1f" fill-opacity="0" d=" M 674.66 692.64 C 685.83 689.32 697.05 693.54 708.21 694.52 C 708.47 697.51 709.58 700.87 707.74 703.61 C 705.57 706.32 702.18 707.68 699.47 709.75 C 701.77 714.91 706.99 717.50 710.75 721.37 C 710.84 725.23 708.30 728.48 706.75 731.86 C 704.55 735.53 703.63 739.74 702.58 743.85 C 697.56 744.96 692.59 746.22 687.67 747.70 C 690.23 750.42 692.84 753.15 695.39 755.90 C 690.12 763.46 680.82 769.27 680.71 779.44 C 685.28 779.03 689.84 778.68 694.42 778.40 C 694.83 779.55 695.25 780.71 695.69 781.88 C 686.87 783.92 681.54 791.82 676.44 798.66 C 674.87 800.89 672.33 802.03 670.05 803.34 C 671.61 805.66 673.24 807.95 674.91 810.22 C 672.91 810.96 671.01 811.92 669.14 812.93 C 669.30 811.46 669.48 809.99 669.65 808.54 C 667.43 810.71 665.24 812.90 663.10 815.14 C 662.17 814.16 661.22 813.20 660.40 812.16 C 655.84 805.39 651.90 797.69 644.72 793.28 C 640.15 791.28 635.00 793.40 630.25 793.69 C 631.09 790.21 632.86 786.91 633.07 783.30 C 630.90 778.39 626.46 774.90 623.36 770.59 C 625.48 770.63 627.60 770.71 629.73 770.78 C 631.62 767.40 633.32 763.79 636.09 761.03 C 639.44 758.50 643.51 757.21 647.33 755.56 C 647.30 752.51 646.96 749.35 647.62 746.37 C 649.13 742.13 652.56 739.00 654.68 735.10 C 655.76 732.44 655.63 729.49 655.92 726.68 C 659.54 725.63 664.36 726.12 667.06 723.19 C 668.27 716.17 669.47 708.37 666.19 701.67 C 663.35 696.48 670.69 693.80 674.66 692.64 M 680.12 730.21 C 680.87 731.40 681.59 732.64 682.48 733.78 C 684.44 734.12 684.75 731.30 685.88 730.21 C 683.95 730.18 682.03 730.18 680.12 730.21 Z" />
</g>
<g id="#5f9f9fff">
<path fill="#5f9f9f" fill-opacity="0" d=" M 631.37 699.47 C 632.33 698.00 633.42 696.63 634.63 695.37 C 634.79 696.83 634.96 698.29 635.13 699.77 C 633.87 699.66 632.61 699.56 631.37 699.47 Z" />
</g>
<g id="#9f5f9fff">
<path fill="#9f5f9f" fill-opacity="0" d=" M 1000.94 701.85 C 1005.41 707.59 1004.98 715.60 1009.64 721.21 C 1013.71 723.77 1018.26 725.54 1022.66 727.50 C 1022.54 730.70 1022.47 733.95 1022.35 737.17 C 1022.33 747.84 1020.74 758.41 1019.69 769.02 C 1019.05 775.48 1015.77 781.26 1014.21 787.50 C 1011.05 796.31 1005.45 804.04 1003.01 813.17 C 1003.61 802.75 1004.51 792.37 1004.97 781.95 C 1007.12 775.66 1000.48 772.65 997.28 768.66 C 995.73 771.27 994.32 773.95 992.97 776.67 C 980.10 779.03 973.25 791.78 968.36 802.68 C 966.20 806.36 963.01 811.54 958.12 810.69 C 954.47 809.93 951.34 807.80 948.13 806.06 C 939.38 814.20 927.44 817.05 916.33 820.50 C 913.77 815.66 911.58 810.58 908.43 806.10 C 905.70 806.95 903.63 808.98 901.51 810.79 C 899.98 810.45 898.44 810.10 896.93 809.78 C 898.39 803.60 897.55 797.28 895.95 791.22 C 892.36 794.78 891.12 799.69 890.67 804.58 C 884.42 804.47 878.17 804.32 871.96 805.01 C 867.65 805.56 863.40 806.47 859.12 807.12 C 858.31 807.25 856.69 807.51 855.88 807.64 C 854.41 804.23 853.21 800.71 852.16 797.16 C 848.66 795.95 844.11 795.56 842.21 791.93 C 839.80 787.98 839.53 783.23 839.09 778.76 C 840.24 778.21 841.40 777.67 842.57 777.14 C 843.49 778.34 844.43 779.56 845.37 780.78 C 852.24 776.68 860.30 775.56 868.20 776.41 C 868.46 774.15 868.74 771.93 869.02 769.73 C 869.97 763.71 863.06 759.97 863.35 754.03 C 863.83 751.38 866.36 749.59 868.77 748.73 C 874.21 747.27 879.66 745.74 885.23 744.83 C 885.10 742.57 884.88 740.33 884.66 738.09 C 893.31 738.84 901.66 734.42 910.25 737.28 C 910.79 731.07 912.18 724.90 914.48 719.11 C 919.11 711.74 932.86 716.15 935.19 706.64 C 941.12 708.12 946.39 712.23 952.70 711.95 C 960.02 711.83 967.65 713.09 974.43 709.57 C 981.05 705.23 988.32 709.24 995.19 710.08 C 997.02 707.28 998.93 704.53 1000.94 701.85 Z" />
</g>
<g id="#1f1f9ffe">
<path fill="#1f1f9f" fill-opacity="0" d=" M 680.12 730.21 C 682.03 730.18 683.95 730.18 685.88 730.21 C 684.75 731.30 684.44 734.12 682.48 733.78 C 681.59 732.64 680.87 731.40 680.12 730.21 Z" />
</g>
<g id="#3f5f5fff">
<path fill="#3f5f5f" fill-opacity="0" d=" M 747.92 744.91 C 752.59 740.31 758.52 737.41 763.86 733.71 C 766.47 738.10 769.44 743.41 767.02 748.58 C 764.95 751.21 761.59 752.34 758.77 753.96 C 760.18 757.22 761.37 760.68 763.15 763.82 C 760.35 767.66 756.95 771.03 754.35 775.01 C 742.34 776.35 734.94 787.48 725.06 793.07 C 719.75 796.49 713.26 797.00 707.65 799.72 C 704.48 801.70 702.17 804.83 698.88 806.66 C 691.31 810.00 682.93 809.32 674.91 810.22 C 673.24 807.95 671.61 805.66 670.05 803.34 C 672.33 802.03 674.87 800.89 676.44 798.66 C 681.54 791.82 686.87 783.92 695.69 781.88 C 695.25 780.71 694.83 779.55 694.42 778.40 C 697.46 775.20 699.58 771.33 701.88 767.61 C 704.77 762.74 711.52 763.61 716.25 762.79 C 721.85 761.86 727.99 764.04 733.18 761.03 C 737.47 758.78 738.06 753.53 739.72 749.47 C 742.68 748.43 745.69 747.24 747.92 744.91 M 755.52 756.12 C 754.48 757.41 756.72 758.99 757.67 757.68 C 758.73 756.36 756.46 754.79 755.52 756.12 M 742.22 767.74 C 744.11 767.70 746.00 767.67 747.90 767.63 C 746.21 764.66 744.13 765.56 742.22 767.74 Z" />
</g>
<g id="#df2020ff">
<path fill="#df2020" fill-opacity="0" d=" M 755.52 756.12 C 756.46 754.79 758.73 756.36 757.67 757.68 C 756.72 758.99 754.48 757.41 755.52 756.12 Z" />
</g>
<g id="#5f1f9fff">
<path fill="#5f1f9f" fill-opacity="0" d=" M 767.66 767.34 C 770.25 763.20 774.64 761.57 779.50 762.18 C 779.05 765.31 778.49 768.43 777.90 771.54 C 781.62 773.87 785.51 776.39 790.07 776.47 C 791.72 776.64 793.38 776.80 795.04 776.98 C 795.61 781.02 796.17 785.07 796.58 789.14 C 796.89 792.97 796.99 796.76 797.26 800.63 C 794.38 800.21 791.52 799.71 788.71 798.97 C 789.03 796.39 790.56 793.49 789.05 791.03 C 788.13 789.29 786.97 787.69 785.90 786.07 C 784.37 789.01 782.98 791.99 781.95 795.15 C 780.83 797.87 783.33 800.20 784.46 802.47 C 784.23 803.38 784.00 804.29 783.79 805.22 C 780.50 803.37 776.68 801.94 774.36 798.84 C 773.50 796.03 774.22 793.02 774.27 790.16 C 771.74 790.67 769.22 791.23 766.72 791.86 C 762.67 786.15 761.64 777.68 754.35 775.01 C 756.95 771.03 760.35 767.66 763.15 763.82 C 764.61 765.02 766.13 766.18 767.66 767.34 Z" />
</g>
<g id="#5f9f1fff">
<path fill="#5f9f1f" fill-opacity="0" d=" M 818.73 773.06 C 826.00 771.53 832.25 767.71 838.69 764.26 C 839.81 769.04 838.91 773.92 839.09 778.76 C 839.53 783.23 839.80 787.98 842.21 791.93 C 844.11 795.56 848.66 795.95 852.16 797.16 C 853.21 800.71 854.41 804.23 855.88 807.64 C 851.75 808.64 847.43 808.55 843.34 809.62 C 840.49 811.97 839.99 816.05 838.63 819.32 C 833.80 819.43 828.67 820.34 824.32 817.69 C 818.93 814.99 813.06 813.08 808.10 809.64 C 805.45 806.33 804.66 801.89 802.80 798.16 C 800.95 798.99 799.10 799.80 797.26 800.63 C 796.99 796.76 796.89 792.97 796.58 789.14 C 798.28 789.72 800.00 790.32 801.72 790.92 C 802.73 790.00 803.76 789.10 804.79 788.20 C 803.72 785.52 802.70 782.83 801.77 780.11 C 808.37 780.25 813.38 776.20 818.73 773.06 Z" />
</g>
<g id="#bf5f5fff">
<path fill="#bf5f5f" fill-opacity="0" d=" M 742.22 767.74 C 744.13 765.56 746.21 764.66 747.90 767.63 C 746.00 767.67 744.11 767.70 742.22 767.74 Z" />
</g>
<g id="#df9f1ffe">
<path fill="#df9f1f" fill-opacity="0" d=" M 992.97 776.67 C 994.32 773.95 995.73 771.27 997.28 768.66 C 1000.48 772.65 1007.12 775.66 1004.97 781.95 C 1004.51 792.37 1003.61 802.75 1003.01 813.17 C 1000.99 818.96 993.12 819.81 989.46 824.36 C 989.00 835.18 988.86 846.22 984.95 856.50 C 979.75 859.30 975.67 863.77 970.43 866.46 C 965.18 868.51 959.60 869.45 954.20 871.01 C 953.67 868.60 953.13 866.19 952.65 863.78 C 953.40 872.40 946.94 878.84 941.19 884.15 C 936.67 886.96 931.21 887.91 926.72 890.79 C 924.58 893.01 923.72 896.05 922.37 898.76 C 920.68 902.27 916.36 902.89 913.06 904.23 C 912.06 891.46 911.83 878.53 908.76 866.04 C 904.65 866.65 900.51 867.27 896.41 867.85 C 894.24 865.89 892.26 862.63 888.91 863.13 C 885.52 863.42 881.92 864.48 878.84 862.35 C 881.32 859.78 883.24 856.76 884.92 853.63 C 887.82 853.73 891.78 853.60 893.00 850.40 C 897.27 838.40 903.74 825.52 916.33 820.50 C 927.44 817.05 939.38 814.20 948.13 806.06 C 951.34 807.80 954.47 809.93 958.12 810.69 C 963.01 811.54 966.20 806.36 968.36 802.68 C 973.25 791.78 980.10 779.03 992.97 776.67 Z" />
</g>
<g id="#bfdf5fff">
<path fill="#bfdf5f" fill-opacity="0" d=" M 725.06 793.07 C 734.94 787.48 742.34 776.35 754.35 775.01 C 761.64 777.68 762.67 786.15 766.72 791.86 C 765.06 796.45 762.07 800.32 759.79 804.58 C 754.04 806.54 748.43 808.87 742.61 810.62 C 742.20 812.93 741.75 815.24 741.31 817.55 C 738.37 817.47 735.27 817.14 732.50 818.30 C 731.04 821.82 731.63 826.10 729.46 829.30 C 722.90 831.92 715.03 827.65 708.78 831.60 C 703.14 834.63 696.80 837.59 693.43 843.32 C 693.32 846.49 695.04 849.35 696.35 852.14 C 692.89 851.06 690.20 848.57 688.45 845.46 C 684.89 839.48 678.06 836.55 674.30 830.75 C 670.95 825.58 669.65 819.43 667.83 813.64 C 668.15 813.46 668.81 813.11 669.14 812.93 C 671.01 811.92 672.91 810.96 674.91 810.22 C 682.93 809.32 691.31 810.00 698.88 806.66 C 702.17 804.83 704.48 801.70 707.65 799.72 C 713.26 797.00 719.75 796.49 725.06 793.07 Z" />
</g>
<g id="#9f1fdfff">
<path fill="#9f1fdf" fill-opacity="0" d=" M 785.90 786.07 C 786.97 787.69 788.13 789.29 789.05 791.03 C 790.56 793.49 789.03 796.39 788.71 798.97 C 791.52 799.71 794.38 800.21 797.26 800.63 C 797.67 807.36 795.99 814.04 792.11 819.59 C 791.34 816.76 790.43 813.98 789.49 811.21 C 786.33 812.79 783.14 814.94 779.46 814.75 C 777.67 813.08 776.41 810.95 775.02 808.97 C 772.06 816.12 770.07 824.67 763.72 829.67 C 758.48 829.68 753.92 826.06 751.47 821.63 C 749.46 818.06 744.90 817.95 741.31 817.55 C 741.75 815.24 742.20 812.93 742.61 810.62 C 748.43 808.87 754.04 806.54 759.79 804.58 C 762.07 800.32 765.06 796.45 766.72 791.86 C 769.22 791.23 771.74 790.67 774.27 790.16 C 774.22 793.02 773.50 796.03 774.36 798.84 C 776.68 801.94 780.50 803.37 783.79 805.22 C 784.00 804.29 784.23 803.38 784.46 802.47 C 783.33 800.20 780.83 797.87 781.95 795.15 C 782.98 791.99 784.37 789.01 785.90 786.07 Z" />
</g>
<g id="#9f1f5fff">
<path fill="#9f1f5f" fill-opacity="0" d=" M 890.67 804.58 C 891.12 799.69 892.36 794.78 895.95 791.22 C 897.55 797.28 898.39 803.60 896.93 809.78 C 898.44 810.10 899.98 810.45 901.51 810.79 C 903.63 808.98 905.70 806.95 908.43 806.10 C 911.58 810.58 913.77 815.66 916.33 820.50 C 903.74 825.52 897.27 838.40 893.00 850.40 C 891.78 853.60 887.82 853.73 884.92 853.63 C 879.84 853.07 874.76 852.75 869.66 852.73 C 866.93 852.85 866.53 849.51 865.31 847.74 C 868.66 845.78 872.55 844.13 874.76 840.75 C 875.28 838.51 874.33 836.29 873.90 834.11 C 871.65 834.41 869.41 834.71 867.17 835.00 C 867.35 831.59 867.57 828.22 867.83 824.83 C 869.69 826.27 871.55 827.72 873.40 829.21 C 874.26 827.12 875.00 824.93 875.93 822.92 C 881.84 821.96 887.63 820.38 893.20 818.19 C 892.77 816.87 892.37 815.57 892.00 814.26 C 888.05 814.81 884.18 815.74 880.20 815.89 C 878.70 816.11 878.13 814.40 877.37 813.47 C 875.74 810.89 873.78 808.55 871.72 806.33 C 871.78 806.00 871.90 805.34 871.96 805.01 C 878.17 804.32 884.42 804.47 890.67 804.58 Z" />
</g>
<g id="#5fdf9fff">
<path fill="#5fdf9f" fill-opacity="0" d=" M 797.26 800.63 C 799.10 799.80 800.95 798.99 802.80 798.16 C 804.66 801.89 805.45 806.33 808.10 809.64 C 813.06 813.08 818.93 814.99 824.32 817.69 C 828.67 820.34 833.80 819.43 838.63 819.32 C 839.99 816.05 840.49 811.97 843.34 809.62 C 847.43 808.55 851.75 808.64 855.88 807.64 C 856.69 807.51 858.31 807.25 859.12 807.12 C 854.41 816.54 851.18 827.78 841.40 833.31 C 835.30 832.96 829.22 832.30 823.12 831.95 C 819.91 831.66 816.38 832.95 814.92 836.04 C 811.10 841.73 815.29 848.36 813.82 854.55 C 811.08 852.17 808.33 849.73 806.26 846.74 C 804.07 843.49 804.42 839.12 802.03 836.01 C 799.52 834.30 796.35 834.09 793.48 833.45 C 791.38 829.10 791.63 824.26 792.11 819.59 C 795.99 814.04 797.67 807.36 797.26 800.63 Z" />
</g>
<g id="#5f5f1fff">
<path fill="#5f5f1f" fill-opacity="0" d=" M 859.12 807.12 C 863.40 806.47 867.65 805.56 871.96 805.01 C 871.90 805.34 871.78 806.00 871.72 806.33 C 873.78 808.55 875.74 810.89 877.37 813.47 C 878.13 814.40 878.70 816.11 880.20 815.89 C 884.18 815.74 888.05 814.81 892.00 814.26 C 892.37 815.57 892.77 816.87 893.20 818.19 C 887.63 820.38 881.84 821.96 875.93 822.92 C 875.00 824.93 874.26 827.12 873.40 829.21 C 871.55 827.72 869.69 826.27 867.83 824.83 C 867.57 828.22 867.35 831.59 867.17 835.00 C 869.41 834.71 871.65 834.41 873.90 834.11 C 874.33 836.29 875.28 838.51 874.76 840.75 C 872.55 844.13 868.66 845.78 865.31 847.74 C 866.53 849.51 866.93 852.85 869.66 852.73 C 874.76 852.75 879.84 853.07 884.92 853.63 C 883.24 856.76 881.32 859.78 878.84 862.35 C 871.10 867.28 864.92 874.11 857.71 879.72 C 854.76 875.58 852.78 870.90 851.14 866.14 C 848.09 861.75 842.81 859.09 840.97 853.81 C 839.37 848.95 835.85 845.21 831.21 843.09 C 832.48 838.41 836.97 836.84 841.10 835.73 C 841.19 834.92 841.29 834.11 841.40 833.31 C 851.18 827.78 854.41 816.54 859.12 807.12 Z" />
</g>
<g id="#5fdf1fff">
<path fill="#5fdf1f" fill-opacity="0" d=" M 763.72 829.67 C 770.07 824.67 772.06 816.12 775.02 808.97 C 776.41 810.95 777.67 813.08 779.46 814.75 C 783.14 814.94 786.33 812.79 789.49 811.21 C 790.43 813.98 791.34 816.76 792.11 819.59 C 791.63 824.26 791.38 829.10 793.48 833.45 C 791.57 835.91 789.79 838.50 787.62 840.74 C 784.86 843.90 780.29 842.96 776.66 844.07 C 778.57 845.39 780.45 846.79 782.27 848.25 C 779.38 849.14 775.88 849.35 773.90 851.96 C 771.11 855.29 767.53 857.84 763.36 859.15 C 764.21 860.88 765.06 862.62 765.90 864.38 C 762.56 867.46 760.78 871.67 758.38 875.43 C 755.81 877.76 751.72 877.83 749.21 880.35 C 747.87 884.24 749.97 888.16 750.92 891.90 L 751.17 892.73 C 745.67 891.44 740.10 892.40 734.59 892.30 C 729.91 888.07 724.96 884.07 720.31 879.84 C 717.50 874.73 716.27 868.43 711.29 864.79 C 705.79 861.25 700.06 857.69 696.35 852.14 C 695.04 849.35 693.32 846.49 693.43 843.32 C 696.80 837.59 703.14 834.63 708.78 831.60 C 715.03 827.65 722.90 831.92 729.46 829.30 C 731.63 826.10 731.04 821.82 732.50 818.30 C 735.27 817.14 738.37 817.47 741.31 817.55 C 744.90 817.95 749.46 818.06 751.47 821.63 C 753.92 826.06 758.48 829.68 763.72 829.67 M 783.45 825.30 C 784.47 826.43 785.55 827.51 786.70 828.55 C 786.80 827.63 787.01 825.80 787.12 824.88 C 786.20 824.99 784.37 825.20 783.45 825.30 Z" />
</g>
<g id="#dfdf20ff">
<path fill="#dfdf20" fill-opacity="0" d=" M 783.45 825.30 C 784.37 825.20 786.20 824.99 787.12 824.88 C 787.01 825.80 786.80 827.63 786.70 828.55 C 785.55 827.51 784.47 826.43 783.45 825.30 Z" />
</g>
<g id="#9f9f5ffe">
<path fill="#9f9f5f" fill-opacity="0" d=" M 814.92 836.04 C 816.38 832.95 819.91 831.66 823.12 831.95 C 829.22 832.30 835.30 832.96 841.40 833.31 C 841.29 834.11 841.19 834.92 841.10 835.73 C 836.97 836.84 832.48 838.41 831.21 843.09 C 835.85 845.21 839.37 848.95 840.97 853.81 C 837.22 858.13 833.81 863.09 828.54 865.68 C 822.36 869.10 815.19 869.26 808.34 870.00 C 810.43 864.96 812.98 860.00 813.82 854.55 C 815.29 848.36 811.10 841.73 814.92 836.04 Z" />
</g>
<g id="#9f1f1fff">
<path fill="#9f1f1f" fill-opacity="0" d=" M 787.62 840.74 C 789.79 838.50 791.57 835.91 793.48 833.45 C 796.35 834.09 799.52 834.30 802.03 836.01 C 804.42 839.12 804.07 843.49 806.26 846.74 C 808.33 849.73 811.08 852.17 813.82 854.55 C 812.98 860.00 810.43 864.96 808.34 870.00 C 804.17 870.95 800.09 872.33 796.01 873.55 C 797.52 878.47 799.70 883.26 800.29 888.42 C 800.69 892.48 798.53 896.13 796.77 899.62 C 794.65 903.56 793.36 907.86 791.82 912.05 C 784.23 909.36 776.31 907.99 768.28 907.58 C 768.57 909.29 768.87 911.01 769.24 912.73 C 765.91 909.70 764.01 905.53 760.84 902.38 C 758.58 900.16 757.59 897.09 756.70 894.15 C 754.77 893.40 752.84 892.64 750.92 891.90 C 749.97 888.16 747.87 884.24 749.21 880.35 C 751.72 877.83 755.81 877.76 758.38 875.43 C 760.78 871.67 762.56 867.46 765.90 864.38 C 765.06 862.62 764.21 860.88 763.36 859.15 C 767.53 857.84 771.11 855.29 773.90 851.96 C 775.88 849.35 779.38 849.14 782.27 848.25 C 780.45 846.79 778.57 845.39 776.66 844.07 C 780.29 842.96 784.86 843.90 787.62 840.74 M 806.30 851.08 C 804.48 851.56 805.52 854.29 807.20 853.76 C 808.99 853.31 807.98 850.41 806.30 851.08 Z" />
</g>
<g id="#1f9f1fff">
<path fill="#1f9f1f" fill-opacity="0" d=" M 806.30 851.08 C 807.98 850.41 808.99 853.31 807.20 853.76 C 805.52 854.29 804.48 851.56 806.30 851.08 Z" />
</g>
<g id="#1fdf9ffe">
<path fill="#1fdf9f" fill-opacity="0" d=" M 828.54 865.68 C 833.81 863.09 837.22 858.13 840.97 853.81 C 842.81 859.09 848.09 861.75 851.14 866.14 C 852.78 870.90 854.76 875.58 857.71 879.72 C 864.92 874.11 871.10 867.28 878.84 862.35 C 881.92 864.48 885.52 863.42 888.91 863.13 C 892.26 862.63 894.24 865.89 896.41 867.85 C 900.51 867.27 904.65 866.65 908.76 866.04 C 911.83 878.53 912.06 891.46 913.06 904.23 C 910.95 905.61 908.54 906.83 907.26 909.11 C 902.48 917.73 898.08 926.89 891.16 934.03 C 886.39 936.37 882.67 940.07 878.84 943.64 C 874.56 945.48 869.99 946.57 865.51 947.83 C 864.05 945.11 862.36 942.53 860.95 939.80 C 858.80 931.63 856.99 923.39 855.25 915.13 C 848.49 913.37 842.53 909.50 835.78 907.78 C 831.80 907.07 827.81 906.75 823.79 906.51 C 823.51 909.82 823.31 913.15 823.10 916.47 C 812.45 917.54 801.68 916.31 791.82 912.05 C 793.36 907.86 794.65 903.56 796.77 899.62 C 798.53 896.13 800.69 892.48 800.29 888.42 C 799.70 883.26 797.52 878.47 796.01 873.55 C 800.09 872.33 804.17 870.95 808.34 870.00 C 815.19 869.26 822.36 869.10 828.54 865.68 M 830.33 878.72 C 829.55 880.41 828.94 882.17 828.36 883.94 C 830.16 883.53 831.97 883.18 833.79 882.84 C 832.74 881.37 831.67 879.93 830.33 878.72 M 823.32 891.18 C 822.23 892.53 824.59 894.00 825.47 892.61 C 826.55 891.24 824.18 889.79 823.32 891.18 Z" />
</g>
<g id="#9fdf9fff">
<path fill="#9fdf9f" fill-opacity="0" d=" M 830.33 878.72 C 831.67 879.93 832.74 881.37 833.79 882.84 C 831.97 883.18 830.16 883.53 828.36 883.94 C 828.94 882.17 829.55 880.41 830.33 878.72 Z" />
</g>
<g id="#601f1fff">
<path fill="#601f1f" fill-opacity="0" d=" M 823.32 891.18 C 824.18 889.79 826.55 891.24 825.47 892.61 C 824.59 894.00 822.23 892.53 823.32 891.18 Z" />
</g>
<g id="#9f9f9fff">
<path fill="#9f9f9f" fill-opacity="0" d=" M 823.79 906.51 C 827.81 906.75 831.80 907.07 835.78 907.78 C 842.53 909.50 848.49 913.37 855.25 915.13 C 856.99 923.39 858.80 931.63 860.95 939.80 C 861.42 942.47 861.67 945.19 861.99 947.89 C 857.20 950.20 852.08 951.61 846.86 952.50 C 846.64 956.51 846.70 960.74 844.41 964.24 C 831.59 963.88 819.98 970.55 808.96 976.23 C 807.78 972.24 806.09 968.37 805.50 964.26 C 805.35 960.46 806.35 956.73 806.93 953.00 C 800.95 951.88 794.91 951.11 788.82 951.54 C 783.25 944.90 777.71 934.65 782.99 926.49 C 780.83 919.59 772.46 918.41 769.24 912.73 C 768.87 911.01 768.57 909.29 768.28 907.58 C 776.31 907.99 784.23 909.36 791.82 912.05 C 801.68 916.31 812.45 917.54 823.10 916.47 C 823.31 913.15 823.51 909.82 823.79 906.51 Z" />
</g>
</svg>
