<?xml version="1.0" encoding="UTF-8" ?>
<!DOCTYPE svg PUBLIC "-//W3C//DTD SVG 1.1//EN" "http://www.w3.org/Graphics/SVG/1.1/DTD/svg11.dtd">
<svg width="1920pt" height="1080pt" viewBox="0 0 1920 1080" version="1.1" xmlns="http://www.w3.org/2000/svg">
<g id="#8f7f1fff">
<path fill="#8f7f1f" fill-opacity="0" d=" M 947.80 261.57 C 951.93 259.92 957.07 256.43 961.04 260.01 C 969.90 267.14 973.04 278.72 977.11 288.90 C 979.55 295.55 987.38 297.23 991.07 302.90 C 993.14 306.08 996.19 308.36 999.50 310.14 C 1003.65 304.70 1010.52 303.33 1017.11 304.20 C 1022.60 312.16 1034.44 307.72 1041.05 313.93 C 1046.58 318.78 1053.26 322.21 1058.11 327.85 C 1062.68 332.90 1066.63 339.01 1073.02 341.98 C 1079.10 345.08 1086.09 344.64 1092.72 345.29 C 1095.40 348.81 1098.20 352.50 1102.22 354.58 C 1106.18 356.30 1110.33 357.90 1113.86 360.49 C 1105.20 358.51 1096.30 358.26 1087.48 357.78 C 1086.55 357.72 1085.61 357.66 1084.70 357.61 C 1082.14 363.13 1079.00 368.47 1077.67 374.46 C 1076.46 378.50 1076.22 383.06 1073.68 386.58 C 1069.11 393.28 1062.94 399.45 1061.60 407.76 C 1060.36 417.67 1058.40 427.95 1061.40 437.76 C 1068.48 447.60 1079.65 452.90 1089.19 459.89 C 1093.74 466.57 1095.85 474.75 1097.23 482.66 C 1098.17 495.13 1090.00 505.07 1084.62 515.49 C 1075.40 517.88 1066.59 523.24 1060.75 530.73 C 1059.65 537.13 1063.85 543.24 1065.04 549.35 C 1057.86 552.08 1051.38 556.69 1043.93 558.59 C 1039.37 557.96 1036.12 554.06 1032.59 551.40 C 1021.99 541.93 1009.74 534.61 998.40 526.11 C 997.68 522.21 995.96 517.93 997.96 514.12 C 1004.18 501.41 1015.26 490.57 1017.88 476.27 C 1012.59 471.25 1004.64 470.57 998.16 467.86 C 990.00 464.80 980.42 464.25 973.57 458.41 C 967.15 453.75 968.74 444.92 965.30 438.55 C 962.29 433.13 958.23 428.34 955.58 422.71 C 951.14 413.07 948.72 402.43 942.74 393.54 C 937.98 388.21 931.04 385.84 925.59 381.39 C 922.54 379.13 919.76 376.33 916.17 374.95 C 911.83 373.72 907.35 373.24 902.92 372.63 C 903.79 381.67 905.07 390.72 904.55 399.84 C 904.05 415.07 907.79 430.20 906.81 445.41 C 903.18 410.96 900.60 376.42 897.08 341.96 C 895.95 328.95 894.11 315.93 894.83 302.84 C 899.24 302.43 903.49 301.13 907.70 299.81 C 908.04 302.04 908.42 304.28 908.80 306.51 C 914.07 305.51 920.42 305.47 924.26 301.27 C 925.31 294.69 924.74 287.86 925.42 281.21 C 930.88 272.84 939.53 266.95 947.80 261.57 Z" />
</g>
<g id="#8f001fff">
<path fill="#8f001f" fill-opacity="0" d=" M 825.26 264.75 C 831.48 265.92 841.24 266.97 840.29 275.83 C 849.63 334.78 858.82 393.77 868.49 452.67 C 868.64 453.69 868.60 454.71 868.38 455.71 C 867.20 458.56 865.74 461.28 864.41 464.06 C 860.27 462.21 855.56 458.64 851.09 462.01 C 848.16 464.08 844.98 462.20 842.20 461.00 C 840.36 462.23 838.53 464.27 836.10 463.73 C 830.18 462.85 824.33 461.51 818.39 460.83 C 813.00 460.28 807.70 458.96 802.90 456.41 C 800.22 457.53 797.41 458.59 794.78 459.72 C 786.49 453.04 783.71 440.69 773.10 436.91 C 765.76 432.35 759.57 439.69 753.04 441.90 C 747.04 443.81 740.45 442.35 734.83 439.84 C 727.82 445.16 720.51 450.14 713.86 455.92 C 711.87 457.46 712.43 460.21 712.62 462.37 C 713.61 468.08 713.73 473.87 713.52 479.65 C 703.68 479.81 694.08 476.92 684.26 476.93 C 681.38 477.80 679.28 480.15 677.03 482.03 C 669.74 488.86 662.55 495.81 654.99 502.34 C 659.33 506.59 666.75 509.64 665.94 516.92 C 665.70 519.19 664.59 521.42 662.91 522.96 C 657.43 524.18 651.90 522.37 646.40 522.75 C 639.34 523.44 632.44 525.14 625.47 526.39 C 623.73 530.00 621.54 533.37 619.73 536.95 C 609.68 536.92 599.79 538.72 589.81 539.47 C 583.02 538.32 576.14 537.24 569.23 537.76 C 567.21 547.39 564.88 557.00 564.26 566.86 C 563.36 572.18 563.31 578.50 567.19 582.75 C 575.23 592.22 583.64 601.40 592.31 610.29 C 583.84 613.24 574.96 614.97 566.66 618.43 C 560.72 620.75 559.09 627.62 554.76 631.77 C 548.80 637.24 541.77 641.36 534.53 644.90 C 528.70 639.36 522.51 634.22 516.15 629.31 C 501.68 617.32 487.86 604.55 474.21 591.64 C 478.55 587.10 482.83 582.40 485.80 576.82 C 490.47 568.02 495.73 559.46 498.97 549.98 C 504.51 535.37 511.01 520.03 507.80 504.08 C 506.29 496.18 506.52 487.76 502.88 480.43 C 500.13 473.58 501.31 466.01 501.30 458.85 C 502.17 450.58 506.67 443.19 511.48 436.58 C 513.94 432.92 515.79 428.82 518.72 425.48 C 523.33 423.90 526.23 428.27 529.77 430.23 C 535.29 434.43 542.73 431.90 548.99 432.53 C 558.09 432.34 567.38 435.25 576.28 432.23 C 581.75 430.51 586.91 426.37 592.92 427.82 C 598.76 429.72 604.33 426.79 609.68 424.84 C 612.80 428.44 614.93 433.29 619.14 435.80 C 631.21 439.54 644.49 439.70 656.09 434.18 C 680.85 423.68 705.13 410.53 723.80 390.80 C 730.31 384.31 737.53 378.55 743.67 371.69 C 754.01 360.74 761.75 347.74 770.76 335.76 C 779.65 325.30 789.03 315.20 797.01 304.00 C 805.83 290.48 817.01 278.67 825.26 264.75 Z" />
<path fill="#8f001f" fill-opacity="0" d=" M 475.59 595.89 C 488.78 606.71 500.89 618.77 514.03 629.66 C 511.50 630.22 508.42 630.36 506.79 632.69 C 498.05 644.08 500.03 660.00 491.51 671.49 C 486.62 676.91 479.30 679.63 472.19 680.53 C 465.24 680.95 459.39 685.29 453.76 688.97 C 447.25 693.18 444.93 700.67 441.48 707.15 C 480.06 731.07 518.76 754.78 557.29 778.79 C 554.56 780.58 551.89 782.52 548.97 784.00 C 546.38 783.09 543.97 781.76 541.58 780.49 C 492.06 751.05 442.47 721.75 392.93 692.36 C 411.04 675.63 426.71 656.54 443.97 638.98 C 454.81 624.93 468.24 612.29 475.59 595.89 Z" />
</g>
<g id="#0f7f1fff">
<path fill="#0f7f1f" fill-opacity="0" d=" M 1084.70 357.61 C 1085.61 357.66 1086.55 357.72 1087.48 357.78 C 1091.24 360.39 1095.85 360.39 1100.24 360.36 C 1107.34 359.89 1111.05 366.99 1116.36 370.43 C 1111.49 375.26 1106.30 379.83 1100.39 383.35 C 1095.26 374.71 1089.99 366.15 1084.70 357.61 Z" />
</g>
<g id="#4f001fff">
<path fill="#4f001f" fill-opacity="0" d=" M 1087.48 357.78 C 1096.30 358.26 1105.20 358.51 1113.86 360.49 C 1121.63 363.03 1129.33 367.58 1137.78 366.68 C 1145.02 362.83 1156.02 358.08 1162.36 365.55 C 1162.18 372.19 1157.48 379.65 1162.24 385.62 C 1165.82 393.07 1175.53 394.04 1182.80 392.79 C 1188.21 390.35 1188.65 383.46 1192.74 379.75 C 1197.99 376.71 1204.37 377.02 1210.16 375.51 C 1209.31 383.23 1207.26 391.10 1209.33 398.81 C 1212.07 406.05 1216.83 412.48 1218.75 420.04 C 1220.25 426.74 1215.95 434.84 1220.12 440.85 C 1225.98 444.67 1233.29 445.41 1239.85 447.47 C 1239.94 451.91 1242.19 457.17 1238.97 460.93 C 1233.49 467.69 1226.26 472.70 1219.56 478.14 C 1215.44 485.08 1212.80 492.77 1208.76 499.75 C 1204.67 507.40 1198.58 513.74 1191.93 519.22 C 1183.83 514.39 1175.11 510.76 1166.96 506.04 C 1160.72 503.05 1154.50 498.45 1147.23 499.25 C 1139.95 502.61 1135.18 509.96 1127.47 512.66 C 1121.49 515.54 1114.67 515.61 1108.23 514.61 C 1100.39 513.36 1092.42 514.53 1084.62 515.49 C 1090.00 505.07 1098.17 495.13 1097.23 482.66 C 1095.85 474.75 1093.74 466.57 1089.19 459.89 C 1079.65 452.90 1068.48 447.60 1061.40 437.76 C 1058.40 427.95 1060.36 417.67 1061.60 407.76 C 1062.94 399.45 1069.11 393.28 1073.68 386.58 C 1076.22 383.06 1076.46 378.50 1077.67 374.46 C 1079.00 368.47 1082.14 363.13 1084.70 357.61 C 1089.99 366.15 1095.26 374.71 1100.39 383.35 C 1106.30 379.83 1111.49 375.26 1116.36 370.43 C 1111.05 366.99 1107.34 359.89 1100.24 360.36 C 1095.85 360.39 1091.24 360.39 1087.48 357.78 M 1157.15 385.40 C 1156.29 389.38 1161.13 384.58 1157.15 385.40 Z" />
</g>
<g id="#4f7f1fff">
<path fill="#4f7f1f" fill-opacity="0" d=" M 1306.39 375.41 C 1311.84 371.57 1317.70 368.07 1324.23 366.46 C 1326.99 365.79 1328.93 368.70 1330.25 370.71 C 1334.87 379.87 1336.42 390.72 1343.43 398.60 C 1348.45 403.54 1350.10 410.62 1354.45 416.02 C 1357.42 414.38 1358.48 410.71 1360.95 408.51 C 1363.11 410.79 1364.85 413.41 1366.67 415.98 C 1374.89 417.46 1379.59 424.63 1382.11 431.97 C 1384.85 432.72 1387.67 433.57 1390.46 434.35 C 1389.80 437.51 1389.19 440.69 1388.25 443.79 C 1390.65 443.14 1393.07 442.52 1395.50 441.93 C 1397.13 445.61 1399.41 448.98 1402.48 451.62 C 1408.08 448.51 1413.61 452.76 1418.18 455.88 C 1422.20 460.65 1421.56 467.20 1419.67 472.72 C 1421.20 474.63 1423.35 476.03 1424.62 478.16 C 1425.87 481.66 1425.60 485.87 1428.15 488.86 C 1431.59 493.12 1431.55 499.01 1433.15 504.04 C 1432.30 505.81 1431.42 507.57 1430.55 509.33 C 1431.68 511.33 1432.06 513.29 1433.15 515.44 C 1417.16 532.25 1401.67 549.61 1385.90 566.58 L 1385.38 566.91 C 1388.34 559.57 1387.37 551.58 1388.59 543.93 C 1381.25 546.44 1373.96 549.41 1366.18 550.20 C 1356.15 551.27 1346.14 552.30 1336.12 553.44 C 1325.53 552.25 1314.92 549.96 1304.21 551.15 C 1294.71 552.14 1285.20 551.24 1275.76 550.22 C 1266.06 548.80 1257.50 555.67 1248.19 556.68 C 1237.10 555.11 1229.73 545.45 1222.21 538.04 C 1227.48 523.88 1237.87 510.89 1236.95 495.07 C 1236.76 492.74 1236.69 489.98 1234.73 488.37 C 1230.11 484.37 1224.73 481.35 1219.56 478.14 C 1226.26 472.70 1233.49 467.69 1238.97 460.93 C 1242.19 457.17 1239.94 451.91 1239.85 447.47 C 1233.29 445.41 1225.98 444.67 1220.12 440.85 C 1215.95 434.84 1220.25 426.74 1218.75 420.04 C 1216.83 412.48 1212.07 406.05 1209.33 398.81 C 1207.26 391.10 1209.31 383.23 1210.16 375.51 C 1225.38 370.89 1241.60 369.81 1257.24 372.87 C 1267.71 375.09 1278.52 375.66 1288.72 379.11 C 1294.89 381.41 1301.34 379.00 1306.39 375.41 Z" />
</g>
<g id="#8f009fff">
<path fill="#8f009f" fill-opacity="0" d=" M 902.92 372.63 C 907.35 373.24 911.83 373.72 916.17 374.95 C 919.76 376.33 922.54 379.13 925.59 381.39 C 931.04 385.84 937.98 388.21 942.74 393.54 C 948.72 402.43 951.14 413.07 955.58 422.71 C 958.23 428.34 962.29 433.13 965.30 438.55 C 968.74 444.92 967.15 453.75 973.57 458.41 C 980.42 464.25 990.00 464.80 998.16 467.86 C 1004.64 470.57 1012.59 471.25 1017.88 476.27 C 1015.26 490.57 1004.18 501.41 997.96 514.12 C 995.96 517.93 997.68 522.21 998.40 526.11 C 995.07 535.26 987.19 541.22 981.11 548.42 C 967.72 547.14 962.23 533.20 951.14 527.71 C 945.58 524.39 938.32 528.07 935.02 532.96 C 929.43 541.54 925.10 550.87 919.61 559.52 C 907.71 557.46 896.30 553.34 885.14 548.84 C 877.79 546.00 871.36 538.40 872.57 530.17 C 873.69 523.44 874.52 516.68 874.96 509.88 C 870.57 508.90 866.14 507.09 861.60 507.99 C 854.16 509.41 846.99 512.33 839.38 512.73 C 833.84 511.90 828.89 508.90 823.99 506.35 C 818.18 502.43 812.71 498.06 807.10 493.87 C 810.67 482.79 814.47 471.79 818.39 460.83 C 824.33 461.51 830.18 462.85 836.10 463.73 C 838.53 464.27 840.36 462.23 842.20 461.00 C 844.98 462.20 848.16 464.08 851.09 462.01 C 855.56 458.64 860.27 462.21 864.41 464.06 C 865.74 461.28 867.20 458.56 868.38 455.71 C 870.24 456.44 872.12 457.17 874.00 457.90 C 883.78 450.73 896.96 452.38 906.81 445.41 C 907.79 430.20 904.05 415.07 904.55 399.84 C 905.07 390.72 903.79 381.67 902.92 372.63 Z" />
</g>
<g id="#a4001fff">
<path fill="#a4001f" fill-opacity="0" d=" M 1157.15 385.40 C 1161.13 384.58 1156.29 389.38 1157.15 385.40 Z" />
</g>
<g id="#4f7f9ffe">
<path fill="#4f7f9f" fill-opacity="0" d=" M 753.04 441.90 C 759.57 439.69 765.76 432.35 773.10 436.91 C 783.71 440.69 786.49 453.04 794.78 459.72 C 797.41 458.59 800.22 457.53 802.90 456.41 C 807.70 458.96 813.00 460.28 818.39 460.83 C 814.47 471.79 810.67 482.79 807.10 493.87 C 812.71 498.06 818.18 502.43 823.99 506.35 C 823.31 515.16 822.98 523.99 822.66 532.82 C 818.36 532.74 814.03 532.00 809.76 532.69 C 807.10 533.02 805.92 535.74 804.85 537.84 C 801.04 546.35 798.19 555.28 794.22 563.73 C 790.33 571.93 778.13 568.98 772.88 575.69 C 768.68 583.69 767.08 592.85 762.65 600.77 C 760.66 604.83 757.56 608.51 756.69 613.05 C 756.06 621.17 757.80 629.22 757.55 637.34 C 737.28 630.35 719.95 616.68 699.25 610.80 C 692.98 608.88 686.58 607.02 679.93 607.35 C 672.35 607.58 664.60 606.52 657.18 608.53 C 652.22 610.62 648.38 614.67 643.52 616.92 C 636.12 617.47 628.81 615.59 621.42 615.35 C 613.48 615.38 605.75 613.11 598.64 609.70 C 596.56 608.69 594.33 609.64 592.31 610.29 C 583.64 601.40 575.23 592.22 567.19 582.75 C 563.31 578.50 563.36 572.18 564.26 566.86 C 564.88 557.00 567.21 547.39 569.23 537.76 C 576.14 537.24 583.02 538.32 589.81 539.47 C 599.79 538.72 609.68 536.92 619.73 536.95 C 621.54 533.37 623.73 530.00 625.47 526.39 C 632.44 525.14 639.34 523.44 646.40 522.75 C 651.90 522.37 657.43 524.18 662.91 522.96 C 664.59 521.42 665.70 519.19 665.94 516.92 C 666.75 509.64 659.33 506.59 654.99 502.34 C 662.55 495.81 669.74 488.86 677.03 482.03 C 679.28 480.15 681.38 477.80 684.26 476.93 C 694.08 476.92 703.68 479.81 713.52 479.65 C 713.73 473.87 713.61 468.08 712.62 462.37 C 712.43 460.21 711.87 457.46 713.86 455.92 C 720.51 450.14 727.82 445.16 734.83 439.84 C 740.45 442.35 747.04 443.81 753.04 441.90 Z" />
</g>
<g id="#4f009fff">
<path fill="#4f009f" fill-opacity="0" d=" M 1219.56 478.14 C 1224.73 481.35 1230.11 484.37 1234.73 488.37 C 1236.69 489.98 1236.76 492.74 1236.95 495.07 C 1237.87 510.89 1227.48 523.88 1222.21 538.04 C 1229.73 545.45 1237.10 555.11 1248.19 556.68 C 1257.50 555.67 1266.06 548.80 1275.76 550.22 C 1285.20 551.24 1294.71 552.14 1304.21 551.15 C 1314.92 549.96 1325.53 552.25 1336.12 553.44 C 1327.78 557.48 1319.34 561.49 1311.67 566.72 C 1307.98 571.05 1307.92 577.21 1306.38 582.47 C 1302.62 592.47 1307.57 603.13 1304.13 613.16 C 1301.00 622.09 1299.97 631.52 1297.52 640.60 C 1290.47 658.05 1282.03 674.92 1272.49 691.15 C 1255.41 686.92 1238.01 683.78 1220.36 683.78 C 1211.27 683.38 1202.51 680.60 1193.49 679.68 C 1182.16 677.91 1169.19 678.97 1159.93 671.06 C 1155.07 663.81 1154.11 654.71 1151.11 646.64 C 1157.64 636.39 1164.04 625.94 1168.57 614.63 C 1170.25 608.28 1171.07 600.66 1166.94 595.05 C 1163.79 589.65 1159.15 585.03 1157.61 578.82 C 1154.56 567.20 1149.73 555.96 1148.96 543.85 C 1162.08 545.33 1174.99 548.22 1188.05 550.12 C 1189.95 539.89 1190.75 529.53 1191.93 519.22 C 1198.58 513.74 1204.67 507.40 1208.76 499.75 C 1212.80 492.77 1215.44 485.08 1219.56 478.14 M 1251.14 621.27 C 1249.51 621.21 1249.37 623.94 1251.06 623.93 C 1252.67 624.00 1252.79 621.23 1251.14 621.27 Z" />
</g>
<g id="#cf7f9fff">
<path fill="#cf7f9f" fill-opacity="0" d=" M 1127.47 512.66 C 1135.18 509.96 1139.95 502.61 1147.23 499.25 C 1154.50 498.45 1160.72 503.05 1166.96 506.04 C 1175.11 510.76 1183.83 514.39 1191.93 519.22 C 1190.75 529.53 1189.95 539.89 1188.05 550.12 C 1174.99 548.22 1162.08 545.33 1148.96 543.85 C 1149.73 555.96 1154.56 567.20 1157.61 578.82 C 1159.15 585.03 1163.79 589.65 1166.94 595.05 C 1171.07 600.66 1170.25 608.28 1168.57 614.63 C 1164.04 625.94 1157.64 636.39 1151.11 646.64 C 1139.55 644.94 1128.05 642.77 1116.59 640.51 C 1115.56 648.31 1115.09 661.09 1104.91 662.74 C 1086.61 668.06 1068.11 673.14 1049.14 675.41 C 1040.06 675.98 1031.01 673.82 1021.93 675.13 C 1015.48 675.99 1009.14 673.91 1003.11 671.93 C 995.57 663.40 986.76 656.19 977.90 649.10 C 969.57 642.83 963.13 634.49 957.81 625.60 C 961.45 620.33 964.65 614.33 965.10 607.83 C 963.71 600.69 956.99 595.54 956.37 588.15 C 956.23 580.87 961.91 575.40 966.04 570.03 C 971.68 563.27 975.66 555.31 981.11 548.42 C 987.19 541.22 995.07 535.26 998.40 526.11 C 1009.74 534.61 1021.99 541.93 1032.59 551.40 C 1036.12 554.06 1039.37 557.96 1043.93 558.59 C 1051.38 556.69 1057.86 552.08 1065.04 549.35 C 1063.85 543.24 1059.65 537.13 1060.75 530.73 C 1066.59 523.24 1075.40 517.88 1084.62 515.49 C 1092.42 514.53 1100.39 513.36 1108.23 514.61 C 1114.67 515.61 1121.49 515.54 1127.47 512.66 M 1106.52 610.05 C 1107.37 611.42 1108.29 612.77 1109.36 614.01 C 1110.12 612.74 1110.83 611.44 1111.54 610.14 C 1109.86 610.11 1108.18 610.08 1106.52 610.05 Z" />
</g>
<g id="#cf7f1fff">
<path fill="#cf7f1f" fill-opacity="0" d=" M 822.66 532.82 C 822.98 523.99 823.31 515.16 823.99 506.35 C 828.89 508.90 833.84 511.90 839.38 512.73 C 846.99 512.33 854.16 509.41 861.60 507.99 C 866.14 507.09 870.57 508.90 874.96 509.88 C 874.52 516.68 873.69 523.44 872.57 530.17 C 871.36 538.40 877.79 546.00 885.14 548.84 C 896.30 553.34 907.71 557.46 919.61 559.52 C 925.10 550.87 929.43 541.54 935.02 532.96 C 938.32 528.07 945.58 524.39 951.14 527.71 C 962.23 533.20 967.72 547.14 981.11 548.42 C 975.66 555.31 971.68 563.27 966.04 570.03 C 961.91 575.40 956.23 580.87 956.37 588.15 C 956.99 595.54 963.71 600.69 965.10 607.83 C 964.65 614.33 961.45 620.33 957.81 625.60 C 953.71 630.80 949.52 636.15 944.07 639.98 C 936.17 643.29 927.37 643.95 919.59 647.61 C 908.04 653.44 894.69 655.21 881.89 654.47 C 869.44 651.68 860.54 641.36 849.49 635.67 C 838.42 630.91 826.24 627.01 814.07 628.85 C 809.49 629.46 805.07 631.92 800.37 631.09 C 794.01 629.65 787.88 626.17 781.16 627.02 C 772.31 628.13 764.82 633.43 757.55 638.19 C 757.55 637.98 757.55 637.55 757.55 637.34 C 757.80 629.22 756.06 621.17 756.69 613.05 C 757.56 608.51 760.66 604.83 762.65 600.77 C 767.08 592.85 768.68 583.69 772.88 575.69 C 778.13 568.98 790.33 571.93 794.22 563.73 C 798.19 555.28 801.04 546.35 804.85 537.84 C 805.92 535.74 807.10 533.02 809.76 532.69 C 814.03 532.00 818.36 532.74 822.66 532.82 Z" />
</g>
<g id="#8f7f9fff">
<path fill="#8f7f9f" fill-opacity="0" d=" M 1366.18 550.20 C 1373.96 549.41 1381.25 546.44 1388.59 543.93 C 1387.37 551.58 1388.34 559.57 1385.38 566.91 L 1385.90 566.58 C 1389.74 566.74 1391.09 570.71 1392.76 573.52 C 1387.96 580.13 1395.85 586.70 1395.42 593.62 C 1395.25 599.71 1389.52 603.56 1387.04 608.73 C 1384.85 614.92 1379.46 618.98 1376.19 624.43 C 1379.93 628.46 1384.63 632.73 1383.81 638.91 C 1382.67 645.16 1378.73 650.86 1379.33 657.45 C 1380.76 669.79 1382.60 682.14 1385.98 694.13 C 1389.73 697.68 1394.56 700.29 1396.69 705.32 C 1402.22 716.22 1405.76 728.02 1409.53 739.60 C 1411.43 742.48 1414.87 743.77 1417.48 745.94 C 1412.88 751.48 1405.94 754.17 1400.08 758.11 C 1366.45 778.82 1332.69 799.34 1299.07 820.08 C 1294.10 823.45 1287.96 824.09 1282.30 825.51 C 1268.49 828.64 1254.26 828.24 1240.31 830.30 C 1223.90 832.67 1207.27 832.12 1190.76 831.86 C 1210.54 814.91 1230.53 798.21 1250.51 781.50 C 1258.85 774.10 1267.26 766.77 1275.95 759.78 C 1275.74 748.29 1275.72 736.83 1276.45 725.37 C 1276.10 713.88 1274.33 702.48 1272.49 691.15 C 1282.03 674.92 1290.47 658.05 1297.52 640.60 C 1299.97 631.52 1301.00 622.09 1304.13 613.16 C 1307.57 603.13 1302.62 592.47 1306.38 582.47 C 1307.92 577.21 1307.98 571.05 1311.67 566.72 C 1319.34 561.49 1327.78 557.48 1336.12 553.44 C 1346.14 552.30 1356.15 551.27 1366.18 550.20 Z" />
</g>
<g id="#8f3f1fff">
<path fill="#8f3f1f" fill-opacity="0" d=" M 657.18 608.53 C 664.60 606.52 672.35 607.58 679.93 607.35 C 686.58 607.02 692.98 608.88 699.25 610.80 C 719.95 616.68 737.28 630.35 757.55 637.34 C 757.55 637.55 757.55 637.98 757.55 638.19 C 757.59 644.18 757.20 650.19 755.81 656.03 C 752.24 663.46 744.77 669.41 744.31 678.15 C 743.49 690.46 740.98 702.69 741.47 715.07 C 741.96 727.69 741.37 740.34 742.21 752.94 C 743.64 758.11 748.33 761.44 751.42 765.61 C 767.10 785.93 784.02 805.30 799.00 826.16 C 762.92 823.45 727.71 814.97 692.40 807.54 C 681.33 804.72 669.81 804.78 658.53 803.54 C 632.78 800.85 606.72 799.35 581.49 793.32 C 573.05 789.13 565.38 783.59 557.29 778.79 C 518.76 754.78 480.06 731.07 441.48 707.15 C 444.93 700.67 447.25 693.18 453.76 688.97 C 459.39 685.29 465.24 680.95 472.19 680.53 C 479.30 679.63 486.62 676.91 491.51 671.49 C 500.03 660.00 498.05 644.08 506.79 632.69 C 508.42 630.36 511.50 630.22 514.03 629.66 C 514.56 629.57 515.62 629.40 516.15 629.31 C 522.51 634.22 528.70 639.36 534.53 644.90 C 541.77 641.36 548.80 637.24 554.76 631.77 C 559.09 627.62 560.72 620.75 566.66 618.43 C 574.96 614.97 583.84 613.24 592.31 610.29 C 594.33 609.64 596.56 608.69 598.64 609.70 C 605.75 613.11 613.48 615.38 621.42 615.35 C 628.81 615.59 636.12 617.47 643.52 616.92 C 648.38 614.67 652.22 610.62 657.18 608.53 Z" />
</g>
<g id="#0f3f1fff">
<path fill="#0f3f1f" fill-opacity="0" d=" M 1106.52 610.05 C 1108.18 610.08 1109.86 610.11 1111.54 610.14 C 1110.83 611.44 1110.12 612.74 1109.36 614.01 C 1108.29 612.77 1107.37 611.42 1106.52 610.05 Z" />
</g>
<g id="#cf009fff">
<path fill="#cf009f" fill-opacity="0" d=" M 1251.14 621.27 C 1252.79 621.23 1252.67 624.00 1251.06 623.93 C 1249.37 623.94 1249.51 621.21 1251.14 621.27 Z" />
</g>
<g id="#0f009fff">
<path fill="#0f009f" fill-opacity="0" d=" M 781.16 627.02 C 787.88 626.17 794.01 629.65 800.37 631.09 C 805.07 631.92 809.49 629.46 814.07 628.85 C 826.24 627.01 838.42 630.91 849.49 635.67 C 860.54 641.36 869.44 651.68 881.89 654.47 C 894.69 655.21 908.04 653.44 919.59 647.61 C 927.37 643.95 936.17 643.29 944.07 639.98 C 949.52 636.15 953.71 630.80 957.81 625.60 C 963.13 634.49 969.57 642.83 977.90 649.10 C 986.76 656.19 995.57 663.40 1003.11 671.93 C 1007.54 676.59 1012.48 681.38 1014.11 687.85 C 1017.47 700.06 1021.06 712.36 1021.90 725.07 C 1021.89 732.54 1025.42 739.38 1025.65 746.81 C 1024.42 758.76 1020.22 770.12 1017.64 781.81 C 1013.16 801.57 1007.60 821.08 1004.00 841.04 L 1003.84 841.87 C 994.26 842.04 984.71 842.92 975.14 842.76 C 953.60 840.73 932.04 838.85 910.53 836.60 C 894.51 835.04 878.65 832.01 862.54 831.53 C 841.39 831.22 820.67 825.99 799.48 826.83 L 799.00 826.16 C 784.02 805.30 767.10 785.93 751.42 765.61 C 748.33 761.44 743.64 758.11 742.21 752.94 C 741.37 740.34 741.96 727.69 741.47 715.07 C 740.98 702.69 743.49 690.46 744.31 678.15 C 744.77 669.41 752.24 663.46 755.81 656.03 C 757.20 650.19 757.59 644.18 757.55 638.19 C 764.82 633.43 772.31 628.13 781.16 627.02 Z" />
</g>
<g id="#0f7f9fff">
<path fill="#0f7f9f" fill-opacity="0" d=" M 1116.59 640.51 C 1128.05 642.77 1139.55 644.94 1151.11 646.64 C 1154.11 654.71 1155.07 663.81 1159.93 671.06 C 1169.19 678.97 1182.16 677.91 1193.49 679.68 C 1202.51 680.60 1211.27 683.38 1220.36 683.78 C 1238.01 683.78 1255.41 686.92 1272.49 691.15 C 1274.33 702.48 1276.10 713.88 1276.45 725.37 C 1275.72 736.83 1275.74 748.29 1275.95 759.78 C 1267.26 766.77 1258.85 774.10 1250.51 781.50 C 1230.53 798.21 1210.54 814.91 1190.76 831.86 C 1167.43 831.59 1144.34 835.44 1121.06 836.26 C 1082.04 837.84 1043.00 838.98 1004.00 841.04 C 1007.60 821.08 1013.16 801.57 1017.64 781.81 C 1020.22 770.12 1024.42 758.76 1025.65 746.81 C 1025.42 739.38 1021.89 732.54 1021.90 725.07 C 1021.06 712.36 1017.47 700.06 1014.11 687.85 C 1012.48 681.38 1007.54 676.59 1003.11 671.93 C 1009.14 673.91 1015.48 675.99 1021.93 675.13 C 1031.01 673.82 1040.06 675.98 1049.14 675.41 C 1068.11 673.14 1086.61 668.06 1104.91 662.74 C 1115.09 661.09 1115.56 648.31 1116.59 640.51 Z" />
</g>
</svg>
