<?xml version="1.0" encoding="UTF-8" ?>
<!DOCTYPE svg PUBLIC "-//W3C//DTD SVG 1.1//EN" "http://www.w3.org/Graphics/SVG/1.1/DTD/svg11.dtd">
<svg width="1920pt" height="1080pt" viewBox="0 0 1920 1080" version="1.1" xmlns="http://www.w3.org/2000/svg">
<g id="#8fbfbfff">
<path fill="#8fbfbf" fill-opacity="0" d=" M 1191.64 190.71 C 1193.35 185.85 1195.95 181.19 1200.71 178.74 C 1202.67 180.00 1204.65 181.23 1206.66 182.42 C 1207.10 190.58 1207.61 198.73 1208.11 206.88 C 1218.71 207.00 1229.33 207.32 1239.95 207.48 C 1241.84 212.58 1245.28 217.44 1245.51 223.02 C 1243.54 230.23 1240.52 237.14 1239.46 244.59 C 1237.63 251.40 1236.84 258.85 1232.70 264.73 C 1228.27 269.18 1221.96 271.06 1216.70 274.27 C 1206.85 271.31 1197.54 265.75 1186.90 266.31 C 1175.93 264.13 1167.85 273.06 1157.42 273.97 C 1153.59 268.96 1149.69 264.03 1145.74 259.13 C 1137.22 258.43 1126.44 262.46 1119.38 255.67 C 1112.46 249.17 1106.06 242.14 1099.36 235.42 C 1096.73 232.22 1093.95 229.15 1090.88 226.36 C 1093.37 224.63 1096.19 222.30 1099.45 223.32 C 1107.56 222.91 1106.29 234.19 1113.05 235.89 C 1116.59 235.15 1118.86 231.78 1121.99 230.11 C 1126.41 229.54 1130.86 229.42 1135.34 229.75 C 1136.62 232.53 1138.06 235.23 1139.55 237.91 C 1149.26 231.29 1151.84 219.04 1156.09 208.87 C 1159.68 202.13 1163.83 195.70 1167.86 189.22 C 1170.66 191.12 1173.64 193.57 1177.38 192.01 C 1181.87 190.04 1186.86 189.57 1191.64 190.71 M 1203.51 254.51 C 1201.78 256.83 1201.19 259.82 1200.29 262.48 C 1202.10 263.22 1203.94 263.98 1205.75 264.78 C 1209.40 260.90 1213.33 257.06 1215.48 252.08 C 1211.48 252.81 1207.16 252.58 1203.51 254.51 Z" />
</g>
<g id="#cf003fff">
<path fill="#cf003f" fill-opacity="0" d=" M 1017.98 200.52 C 1022.16 199.59 1026.40 198.80 1030.46 197.39 C 1036.84 203.80 1043.03 210.47 1050.36 215.83 C 1055.61 216.51 1060.45 214.08 1065.11 212.05 C 1066.18 213.67 1067.28 215.29 1068.39 216.91 C 1070.75 216.28 1073.38 215.66 1075.80 215.02 C 1080.68 218.68 1083.73 226.91 1090.88 226.36 C 1093.95 229.15 1096.73 232.22 1099.36 235.42 C 1101.24 248.06 1102.44 260.85 1102.48 273.64 C 1102.42 283.83 1097.23 292.99 1095.53 302.79 C 1098.09 307.26 1101.75 311.05 1104.60 315.36 C 1096.11 321.16 1086.21 324.26 1076.55 327.50 C 1065.79 331.97 1054.42 334.60 1043.42 338.35 C 1044.09 331.73 1046.50 323.30 1040.77 318.24 C 1033.82 311.55 1023.22 312.45 1014.36 310.51 C 1014.88 307.18 1014.21 303.33 1016.50 300.59 C 1019.50 296.96 1023.43 294.27 1026.71 290.91 C 1024.44 290.51 1022.17 290.11 1019.92 289.72 C 1024.04 281.48 1029.08 273.75 1033.94 265.94 C 1035.42 263.38 1037.12 260.75 1037.39 257.73 C 1033.43 253.87 1027.19 252.84 1023.94 248.28 C 1020.32 232.90 1021.03 216.90 1018.11 201.39 L 1017.98 200.52 Z" />
</g>
<g id="#8fbf3fff">
<path fill="#8fbf3f" fill-opacity="0" d=" M 1005.39 199.67 C 1009.67 199.83 1013.83 201.00 1018.11 201.39 C 1021.03 216.90 1020.32 232.90 1023.94 248.28 C 1027.19 252.84 1033.43 253.87 1037.39 257.73 C 1037.12 260.75 1035.42 263.38 1033.94 265.94 C 1029.08 273.75 1024.04 281.48 1019.92 289.72 C 1022.17 290.11 1024.44 290.51 1026.71 290.91 C 1023.43 294.27 1019.50 296.96 1016.50 300.59 C 1014.21 303.33 1014.88 307.18 1014.36 310.51 C 1023.22 312.45 1033.82 311.55 1040.77 318.24 C 1046.50 323.30 1044.09 331.73 1043.42 338.35 C 1029.18 342.04 1013.76 341.56 1000.50 348.66 C 996.41 351.40 993.33 355.33 989.72 358.63 C 980.52 353.55 970.61 348.41 964.65 339.37 C 960.64 334.11 958.54 326.78 951.90 324.22 C 947.28 321.92 941.97 322.31 936.99 322.05 C 925.51 321.82 913.96 321.29 902.65 319.23 C 893.76 316.57 885.82 311.54 877.78 307.04 C 882.96 300.93 887.95 294.63 893.85 289.18 C 897.40 294.15 900.06 299.65 903.07 304.95 C 906.53 301.18 906.43 295.79 908.56 291.36 C 910.39 287.82 913.50 285.09 915.10 281.41 C 917.80 275.02 920.45 268.60 923.26 262.26 C 925.89 262.05 928.93 261.97 931.67 261.79 C 937.54 253.14 943.80 244.56 947.68 234.78 C 948.96 228.54 949.21 222.13 950.10 215.83 C 959.95 219.80 970.62 219.38 981.02 219.87 C 982.64 216.97 984.20 214.03 985.84 211.15 C 988.06 212.87 990.25 214.70 992.82 215.92 C 997.42 210.84 1000.15 204.18 1005.39 199.67 Z" />
</g>
<g id="#4fbf7fff">
<path fill="#4fbf7f" fill-opacity="0" d=" M 1277.90 208.96 C 1282.21 216.53 1283.85 229.13 1294.77 230.02 C 1296.08 232.97 1297.50 236.86 1301.00 237.89 C 1304.20 238.59 1307.63 238.21 1310.92 238.27 C 1309.33 242.61 1307.16 246.71 1305.78 251.12 C 1309.60 252.90 1313.04 255.34 1316.61 257.56 C 1316.53 262.36 1317.93 267.36 1315.99 271.97 C 1315.36 274.60 1313.02 277.98 1315.78 280.16 C 1320.57 284.73 1327.74 288.95 1325.59 296.90 C 1327.43 298.65 1329.30 300.40 1331.19 302.17 C 1330.84 307.67 1333.21 312.67 1336.16 317.18 C 1333.86 323.78 1333.38 330.74 1332.77 337.63 C 1323.52 343.48 1312.78 345.93 1302.62 349.62 C 1293.89 352.33 1284.67 350.72 1275.92 348.99 C 1266.82 348.46 1257.73 346.92 1249.51 342.80 C 1248.94 337.95 1248.78 332.86 1246.43 328.48 C 1242.45 321.62 1236.06 316.44 1232.71 309.17 C 1226.83 298.89 1224.56 287.18 1222.42 275.69 C 1220.50 275.22 1218.59 274.77 1216.70 274.27 C 1221.96 271.06 1228.27 269.18 1232.70 264.73 C 1236.84 258.85 1237.63 251.40 1239.46 244.59 C 1240.52 237.14 1243.54 230.23 1245.51 223.02 C 1249.91 223.78 1254.34 224.48 1258.78 225.07 C 1260.83 221.06 1262.05 216.50 1265.15 213.12 C 1269.14 211.01 1273.56 210.16 1277.90 208.96 Z" />
</g>
<g id="#4f7f3fff">
<path fill="#4f7f3f" fill-opacity="0" d=" M 1099.36 235.42 C 1106.06 242.14 1112.46 249.17 1119.38 255.67 C 1126.44 262.46 1137.22 258.43 1145.74 259.13 C 1149.69 264.03 1153.59 268.96 1157.42 273.97 C 1167.85 273.06 1175.93 264.13 1186.90 266.31 C 1197.54 265.75 1206.85 271.31 1216.70 274.27 C 1218.59 274.77 1220.50 275.22 1222.42 275.69 C 1224.56 287.18 1226.83 298.89 1232.71 309.17 C 1236.06 316.44 1242.45 321.62 1246.43 328.48 C 1248.78 332.86 1248.94 337.95 1249.51 342.80 C 1243.23 352.16 1241.27 363.72 1242.51 374.79 C 1237.39 376.97 1231.72 378.58 1227.75 382.70 C 1224.88 385.64 1222.32 388.86 1219.66 391.99 C 1214.48 391.04 1209.32 390.04 1204.17 388.96 C 1201.35 392.13 1198.70 395.43 1195.83 398.55 C 1189.24 403.49 1181.20 405.12 1173.35 406.80 C 1163.77 409.03 1159.55 418.84 1154.36 426.18 C 1146.44 425.90 1139.19 422.47 1132.93 417.83 C 1130.62 416.00 1128.21 413.97 1127.15 411.14 C 1124.70 402.87 1125.37 394.12 1123.45 385.76 C 1121.98 377.67 1119.13 369.73 1119.04 361.46 C 1119.79 355.21 1121.70 349.17 1123.15 343.07 C 1118.69 339.52 1113.19 336.65 1110.61 331.31 C 1108.10 326.19 1107.12 320.47 1104.60 315.36 C 1101.75 311.05 1098.09 307.26 1095.53 302.79 C 1097.23 292.99 1102.42 283.83 1102.48 273.64 C 1102.44 260.85 1101.24 248.06 1099.36 235.42 Z" />
</g>
<g id="#0f7fbfff">
<path fill="#0f7fbf" fill-opacity="0" d=" M 1203.51 254.51 C 1207.16 252.58 1211.48 252.81 1215.48 252.08 C 1213.33 257.06 1209.40 260.90 1205.75 264.78 C 1203.94 263.98 1202.10 263.22 1200.29 262.48 C 1201.19 259.82 1201.78 256.83 1203.51 254.51 Z" />
</g>
<g id="#0f003fff">
<path fill="#0f003f" fill-opacity="0" d=" M 859.62 314.98 C 866.66 314.92 872.15 310.62 877.78 307.04 C 885.82 311.54 893.76 316.57 902.65 319.23 C 913.96 321.29 925.51 321.82 936.99 322.05 C 941.97 322.31 947.28 321.92 951.90 324.22 C 958.54 326.78 960.64 334.11 964.65 339.37 C 970.61 348.41 980.52 353.55 989.72 358.63 C 995.71 363.40 1000.17 371.37 998.27 379.14 C 995.32 384.98 990.91 389.95 987.65 395.61 C 986.30 397.87 987.39 400.55 988.16 402.81 C 992.10 412.66 998.65 421.17 1003.13 430.77 C 1005.57 436.07 1007.88 441.44 1010.25 446.78 C 993.06 457.37 977.41 471.08 958.28 478.23 C 954.69 474.81 951.30 470.91 946.71 468.85 C 939.17 466.72 931.38 465.77 923.67 464.55 C 917.48 454.61 908.90 446.51 900.43 438.55 C 888.72 427.94 877.47 416.84 865.87 406.13 C 863.09 403.26 859.82 400.64 857.82 397.17 C 856.54 388.94 856.91 380.53 855.80 372.27 C 854.59 373.21 853.40 374.16 852.24 375.13 C 850.02 361.60 847.85 348.06 846.01 334.47 C 849.02 333.14 852.51 332.32 854.85 329.86 C 857.53 325.35 857.87 319.86 859.62 314.98 Z" />
</g>
<g id="#8f3fbfff">
<path fill="#8f3fbf" fill-opacity="0" d=" M 1076.55 327.50 C 1086.21 324.26 1096.11 321.16 1104.60 315.36 C 1107.12 320.47 1108.10 326.19 1110.61 331.31 C 1113.19 336.65 1118.69 339.52 1123.15 343.07 C 1121.70 349.17 1119.79 355.21 1119.04 361.46 C 1119.13 369.73 1121.98 377.67 1123.45 385.76 C 1125.37 394.12 1124.70 402.87 1127.15 411.14 C 1128.21 413.97 1130.62 416.00 1132.93 417.83 C 1129.15 423.35 1126.29 429.42 1123.71 435.57 C 1119.31 437.01 1113.92 437.04 1110.38 440.28 C 1107.61 448.75 1110.51 458.33 1106.57 466.60 C 1103.61 472.73 1097.48 476.68 1091.50 479.50 C 1086.93 467.84 1076.68 459.73 1065.98 453.99 C 1055.87 447.80 1044.31 444.37 1032.56 443.28 C 1024.92 441.50 1017.31 444.09 1010.25 446.78 C 1007.88 441.44 1005.57 436.07 1003.13 430.77 C 998.65 421.17 992.10 412.66 988.16 402.81 C 987.39 400.55 986.30 397.87 987.65 395.61 C 990.91 389.95 995.32 384.98 998.27 379.14 C 1000.17 371.37 995.71 363.40 989.72 358.63 C 993.33 355.33 996.41 351.40 1000.50 348.66 C 1013.76 341.56 1029.18 342.04 1043.42 338.35 C 1054.42 334.60 1065.79 331.97 1076.55 327.50 Z" />
</g>
<g id="#107f3fff">
<path fill="#107f3f" fill-opacity="0" d=" M 1302.62 349.62 C 1312.78 345.93 1323.52 343.48 1332.77 337.63 C 1335.16 339.57 1337.66 341.38 1340.12 343.25 C 1339.81 348.60 1339.89 354.01 1338.99 359.31 C 1338.96 359.88 1338.91 361.03 1338.88 361.60 C 1338.66 384.19 1339.57 408.73 1328.27 429.18 C 1323.54 438.56 1320.01 448.98 1312.35 456.49 C 1311.45 457.00 1310.91 457.76 1310.73 458.77 C 1307.90 465.20 1303.62 470.91 1299.37 476.46 C 1291.40 471.27 1285.30 463.34 1276.45 459.59 C 1278.19 456.79 1279.89 453.98 1281.70 451.21 C 1272.68 433.69 1262.51 416.77 1251.30 400.58 C 1246.07 392.95 1243.96 383.78 1242.51 374.79 C 1241.27 363.72 1243.23 352.16 1249.51 342.80 C 1257.73 346.92 1266.82 348.46 1275.92 348.99 C 1284.67 350.72 1293.89 352.33 1302.62 349.62 Z" />
</g>
<g id="#609f9fff">
<path fill="#609f9f" fill-opacity="0" d=" M 1338.99 359.31 C 1340.86 358.67 1340.68 362.40 1338.88 361.60 C 1338.91 361.03 1338.96 359.88 1338.99 359.31 Z" />
</g>
<g id="#8f7fbfff">
<path fill="#8f7fbf" fill-opacity="0" d=" M 852.24 375.13 C 853.40 374.16 854.59 373.21 855.80 372.27 C 856.91 380.53 856.54 388.94 857.82 397.17 C 859.82 400.64 863.09 403.26 865.87 406.13 C 877.47 416.84 888.72 427.94 900.43 438.55 C 908.90 446.51 917.48 454.61 923.67 464.55 C 918.91 470.19 913.19 475.34 910.58 482.44 C 906.89 489.42 906.57 497.36 905.59 505.01 C 895.57 499.83 885.09 495.46 874.07 492.94 C 872.01 492.42 869.84 492.85 868.06 493.96 C 862.42 497.19 857.25 501.17 851.97 504.93 C 846.14 508.97 843.88 516.13 839.15 521.20 C 835.79 524.66 832.13 527.82 828.18 530.58 C 819.19 524.63 809.26 518.83 803.54 509.38 C 797.86 500.09 790.83 491.45 782.05 484.94 C 774.95 479.69 766.08 477.76 758.57 473.28 C 755.74 471.61 755.48 468.11 754.86 465.22 C 759.55 461.98 763.77 457.26 764.21 451.33 C 765.34 444.68 760.42 436.35 766.91 431.44 C 762.87 418.66 758.07 406.14 753.71 393.47 C 768.72 391.80 780.43 403.46 794.68 405.38 C 803.19 407.08 808.96 399.64 815.03 395.05 C 820.99 391.23 828.40 393.70 834.78 391.73 C 841.67 387.43 845.72 379.92 852.24 375.13 Z" />
</g>
<g id="#103fbfff">
<path fill="#103fbf" fill-opacity="0" d=" M 1227.75 382.70 C 1231.72 378.58 1237.39 376.97 1242.51 374.79 C 1243.96 383.78 1246.07 392.95 1251.30 400.58 C 1262.51 416.77 1272.68 433.69 1281.70 451.21 C 1279.89 453.98 1278.19 456.79 1276.45 459.59 C 1273.77 464.70 1269.29 468.80 1267.51 474.37 C 1267.07 478.77 1269.41 482.86 1270.87 486.89 C 1277.98 487.87 1285.19 488.38 1292.27 489.74 C 1291.10 500.32 1289.93 510.91 1288.58 521.48 C 1285.71 528.93 1293.02 533.66 1295.40 539.88 C 1290.13 548.79 1282.37 555.97 1276.75 564.68 C 1264.14 567.42 1251.21 566.21 1238.42 566.60 C 1242.83 560.53 1246.56 554.00 1250.95 547.92 C 1252.07 545.91 1254.26 543.53 1252.85 541.14 C 1246.42 528.27 1237.06 517.13 1227.56 506.44 C 1219.90 499.99 1212.70 491.27 1202.25 489.54 C 1192.40 487.07 1182.18 487.16 1172.11 487.48 C 1171.37 479.16 1169.41 470.68 1171.38 462.39 C 1176.25 447.23 1186.92 435.03 1193.96 420.96 C 1197.78 414.09 1196.41 406.02 1195.83 398.55 C 1198.70 395.43 1201.35 392.13 1204.17 388.96 C 1209.32 390.04 1214.48 391.04 1219.66 391.99 C 1222.32 388.86 1224.88 385.64 1227.75 382.70 Z" />
</g>
<g id="#0fbf3fff">
<path fill="#0fbf3f" fill-opacity="0" d=" M 1173.35 406.80 C 1181.20 405.12 1189.24 403.49 1195.83 398.55 C 1196.41 406.02 1197.78 414.09 1193.96 420.96 C 1186.92 435.03 1176.25 447.23 1171.38 462.39 C 1169.41 470.68 1171.37 479.16 1172.11 487.48 C 1160.35 488.82 1148.19 490.95 1137.81 496.75 C 1131.81 499.49 1129.72 505.93 1127.04 511.38 C 1119.51 497.97 1106.50 489.24 1092.51 483.66 C 1092.17 482.26 1091.88 480.87 1091.50 479.50 C 1097.48 476.68 1103.61 472.73 1106.57 466.60 C 1110.51 458.33 1107.61 448.75 1110.38 440.28 C 1113.92 437.04 1119.31 437.01 1123.71 435.57 C 1126.29 429.42 1129.15 423.35 1132.93 417.83 C 1139.19 422.47 1146.44 425.90 1154.36 426.18 C 1159.55 418.84 1163.77 409.03 1173.35 406.80 Z" />
</g>
<g id="#0f00bfff">
<path fill="#0f00bf" fill-opacity="0" d=" M 641.41 441.49 C 645.34 441.16 649.77 439.62 653.62 441.41 C 656.57 443.32 658.38 446.73 661.73 448.07 C 667.99 450.01 675.40 449.08 680.79 453.39 C 685.30 458.60 688.11 465.08 692.96 470.02 C 700.17 477.88 710.11 482.36 718.76 488.35 C 721.97 491.35 721.50 496.38 722.42 500.31 C 718.16 504.66 713.58 508.85 710.32 514.06 C 703.13 527.14 697.94 541.24 690.91 554.40 C 681.61 567.29 668.54 576.83 654.44 583.86 C 650.77 582.15 646.88 580.08 642.69 580.82 C 637.83 581.21 632.57 583.43 627.94 580.92 C 623.02 578.09 618.14 574.93 614.20 570.84 C 612.74 567.08 614.48 562.95 614.85 559.11 C 605.54 553.36 596.09 547.84 586.89 541.94 C 588.32 538.40 592.30 534.26 589.54 530.46 C 585.34 524.41 579.92 519.31 575.17 513.71 C 578.73 506.54 582.93 499.58 585.47 491.97 C 585.10 486.75 579.99 483.61 578.18 478.94 C 580.03 472.61 583.87 467.00 586.88 461.15 C 591.15 462.06 595.47 462.58 599.79 463.23 C 603.45 458.39 607.20 453.63 610.93 448.85 C 613.80 449.60 616.62 450.32 619.53 451.00 C 621.07 448.10 622.71 445.26 624.26 442.38 C 625.98 445.19 627.61 448.32 630.53 450.07 C 634.05 447.15 636.45 442.16 641.41 441.49 Z" />
</g>
<g id="#cf3f3fff">
<path fill="#cf3f3f" fill-opacity="0" d=" M 1010.25 446.78 C 1017.31 444.09 1024.92 441.50 1032.56 443.28 C 1044.31 444.37 1055.87 447.80 1065.98 453.99 C 1076.68 459.73 1086.93 467.84 1091.50 479.50 C 1091.88 480.87 1092.17 482.26 1092.51 483.66 C 1088.00 490.26 1083.15 496.86 1080.79 504.61 C 1078.84 511.10 1071.55 513.48 1067.90 518.78 C 1066.69 521.23 1067.68 524.06 1068.36 526.53 C 1070.54 532.86 1072.18 539.36 1073.47 545.94 C 1071.32 547.76 1069.18 549.58 1067.04 551.38 C 1056.09 558.84 1046.70 568.18 1036.82 576.93 C 1033.87 572.35 1030.70 567.90 1026.70 564.17 C 1025.92 558.54 1025.91 552.56 1023.64 547.27 C 1021.24 543.16 1017.18 540.43 1014.01 536.97 C 1008.92 531.82 1006.25 524.86 1001.39 519.52 C 998.18 515.87 992.75 514.80 988.20 516.17 C 980.30 517.72 973.80 522.97 966.13 525.11 C 957.60 526.64 950.49 519.86 945.89 513.55 C 947.14 501.09 953.82 489.82 958.28 478.23 C 977.41 471.08 993.06 457.37 1010.25 446.78 Z" />
</g>
<g id="#4f3f3fff">
<path fill="#4f3f3f" fill-opacity="0" d=" M 680.79 453.39 C 685.19 450.98 691.08 446.06 695.96 450.01 C 700.35 455.20 703.02 461.59 705.69 467.79 C 712.74 466.02 718.30 459.97 725.76 459.70 C 735.53 460.91 745.52 461.91 754.86 465.22 C 755.48 468.11 755.74 471.61 758.57 473.28 C 766.08 477.76 774.95 479.69 782.05 484.94 C 790.83 491.45 797.86 500.09 803.54 509.38 C 809.26 518.83 819.19 524.63 828.18 530.58 L 828.70 530.85 C 821.95 536.99 814.79 542.63 807.44 548.02 C 808.10 551.67 808.63 555.30 809.23 558.97 C 805.93 562.50 802.58 565.99 799.28 569.52 C 808.04 576.95 819.72 579.29 829.75 584.46 C 830.25 590.96 830.34 597.50 830.89 604.00 L 830.04 603.98 C 820.29 603.53 808.47 606.83 800.15 599.87 C 795.30 596.65 793.46 590.61 788.94 587.18 C 768.34 581.15 749.84 569.84 730.05 561.76 C 728.65 561.20 727.09 560.98 725.66 561.54 C 718.45 563.98 711.67 567.47 704.56 570.17 C 700.59 564.44 696.20 558.96 690.91 554.40 C 697.94 541.24 703.13 527.14 710.32 514.06 C 713.58 508.85 718.16 504.66 722.42 500.31 C 721.50 496.38 721.97 491.35 718.76 488.35 C 710.11 482.36 700.17 477.88 692.96 470.02 C 688.11 465.08 685.30 458.60 680.79 453.39 Z" />
</g>
<g id="#5aaa2aff">
<path fill="#5aaa2a" fill-opacity="0" d=" M 1310.73 458.77 C 1310.91 457.76 1311.45 457.00 1312.35 456.49 C 1313.04 458.15 1312.49 458.91 1310.73 458.77 Z" />
</g>
<g id="#4f003fff">
<path fill="#4f003f" fill-opacity="0" d=" M 923.67 464.55 C 931.38 465.77 939.17 466.72 946.71 468.85 C 951.30 470.91 954.69 474.81 958.28 478.23 C 953.82 489.82 947.14 501.09 945.89 513.55 C 950.49 519.86 957.60 526.64 966.13 525.11 C 973.80 522.97 980.30 517.72 988.20 516.17 C 992.75 514.80 998.18 515.87 1001.39 519.52 C 1006.25 524.86 1008.92 531.82 1014.01 536.97 C 1017.18 540.43 1021.24 543.16 1023.64 547.27 C 1025.91 552.56 1025.92 558.54 1026.70 564.17 C 1021.18 565.53 1015.65 567.14 1010.53 569.62 C 1003.68 573.88 997.65 579.36 992.45 585.49 C 984.69 581.87 976.92 577.74 968.35 576.46 C 959.32 575.35 950.39 578.49 942.37 582.40 C 939.49 583.50 936.40 585.54 933.22 584.58 C 926.76 582.39 920.37 579.98 913.90 577.87 C 908.67 576.32 906.49 570.74 902.51 567.53 C 898.24 564.19 893.63 560.78 888.20 559.72 C 883.73 559.03 879.27 560.24 874.87 560.83 C 871.35 555.71 868.58 549.60 863.08 546.28 C 858.40 543.96 853.09 543.06 848.66 540.20 C 842.52 536.07 835.44 533.74 828.70 530.85 L 828.18 530.58 C 832.13 527.82 835.79 524.66 839.15 521.20 C 843.88 516.13 846.14 508.97 851.97 504.93 C 857.25 501.17 862.42 497.19 868.06 493.96 C 869.84 492.85 872.01 492.42 874.07 492.94 C 885.09 495.46 895.57 499.83 905.59 505.01 C 906.57 497.36 906.89 489.42 910.58 482.44 C 913.19 475.34 918.91 470.19 923.67 464.55 Z" />
</g>
<g id="#8f00bfff">
<path fill="#8f00bf" fill-opacity="0" d=" M 1092.51 483.66 C 1106.50 489.24 1119.51 497.97 1127.04 511.38 C 1129.72 505.93 1131.81 499.49 1137.81 496.75 C 1148.19 490.95 1160.35 488.82 1172.11 487.48 C 1182.18 487.16 1192.40 487.07 1202.25 489.54 C 1212.70 491.27 1219.90 499.99 1227.56 506.44 C 1237.06 517.13 1246.42 528.27 1252.85 541.14 C 1254.26 543.53 1252.07 545.91 1250.95 547.92 C 1246.56 554.00 1242.83 560.53 1238.42 566.60 C 1233.93 568.83 1228.28 569.58 1223.18 569.45 C 1218.30 567.44 1214.62 563.29 1209.82 561.11 C 1205.12 562.52 1201.36 565.99 1196.97 568.04 C 1191.14 571.28 1182.92 566.68 1177.90 571.86 C 1172.59 577.50 1168.18 583.92 1163.01 589.68 C 1157.87 587.72 1151.93 586.32 1147.37 590.28 C 1144.75 588.72 1142.30 586.63 1139.24 586.07 C 1130.86 593.38 1122.94 602.08 1119.68 612.96 C 1117.66 612.12 1115.64 611.28 1113.63 610.48 C 1114.92 606.76 1116.32 603.08 1117.71 599.40 C 1109.33 595.08 1101.24 590.18 1092.74 586.09 C 1090.79 588.20 1088.99 590.53 1086.60 592.16 C 1083.18 592.14 1079.36 590.48 1077.77 587.32 C 1072.86 575.75 1072.35 562.80 1067.04 551.38 C 1069.18 549.58 1071.32 547.76 1073.47 545.94 C 1072.18 539.36 1070.54 532.86 1068.36 526.53 C 1067.68 524.06 1066.69 521.23 1067.90 518.78 C 1071.55 513.48 1078.84 511.10 1080.79 504.61 C 1083.15 496.86 1088.00 490.26 1092.51 483.66 Z" />
</g>
<g id="#8f7f3fff">
<path fill="#8f7f3f" fill-opacity="0" d=" M 828.70 530.85 C 835.44 533.74 842.52 536.07 848.66 540.20 C 853.09 543.06 858.40 543.96 863.08 546.28 C 868.58 549.60 871.35 555.71 874.87 560.83 C 879.27 560.24 883.73 559.03 888.20 559.72 C 893.63 560.78 898.24 564.19 902.51 567.53 C 906.49 570.74 908.67 576.32 913.90 577.87 C 920.37 579.98 926.76 582.39 933.22 584.58 C 936.40 585.54 939.49 583.50 942.37 582.40 C 950.39 578.49 959.32 575.35 968.35 576.46 C 976.92 577.74 984.69 581.87 992.45 585.49 C 989.11 592.88 986.96 600.76 983.29 608.03 C 987.01 612.20 990.86 616.32 993.88 621.07 C 995.33 623.57 995.75 627.30 993.26 629.24 C 988.19 634.24 980.66 634.15 974.15 635.71 C 978.52 640.31 983.20 645.27 983.97 651.89 C 985.00 664.55 981.42 677.43 974.80 688.23 C 972.34 692.79 968.60 696.57 963.87 698.76 C 958.96 701.22 954.79 705.07 949.66 707.06 C 946.46 706.88 944.06 704.08 941.64 702.22 C 936.56 697.97 932.37 692.84 928.31 687.64 C 920.16 677.65 905.01 677.32 897.87 666.17 C 890.24 655.27 885.62 642.31 876.68 632.29 C 872.47 627.98 866.97 625.26 862.06 621.89 C 854.52 617.28 847.85 611.44 840.57 606.46 C 837.72 604.56 834.21 604.21 830.89 604.00 C 830.34 597.50 830.25 590.96 829.75 584.46 C 819.72 579.29 808.04 576.95 799.28 569.52 C 802.58 565.99 805.93 562.50 809.23 558.97 C 808.63 555.30 808.10 551.67 807.44 548.02 C 814.79 542.63 821.95 536.99 828.70 530.85 Z" />
</g>
<g id="#cf00bfff">
<path fill="#cf00bf" fill-opacity="0" d=" M 581.94 551.18 C 583.58 548.09 585.16 544.97 586.89 541.94 C 596.09 547.84 605.54 553.36 614.85 559.11 C 614.48 562.95 612.74 567.08 614.20 570.84 C 618.14 574.93 623.02 578.09 627.94 580.92 C 632.57 583.43 637.83 581.21 642.69 580.82 C 646.88 580.08 650.77 582.15 654.44 583.86 C 650.03 592.38 645.94 601.06 642.05 609.83 C 647.18 617.44 657.05 623.45 656.39 633.76 C 655.50 647.97 651.94 661.96 652.50 676.26 C 650.90 686.38 647.90 696.25 647.12 706.50 C 649.67 708.14 652.20 709.84 654.77 711.49 C 652.65 712.65 650.52 713.76 648.38 714.85 C 643.41 710.37 638.18 706.21 633.04 701.95 C 626.23 696.49 623.49 687.87 619.50 680.44 C 614.86 671.64 611.82 660.66 602.21 655.83 C 590.50 653.38 578.86 658.05 567.14 657.63 C 562.53 656.25 559.39 652.16 555.64 649.39 C 550.58 644.82 544.34 641.41 540.38 635.74 C 536.93 629.90 533.37 624.12 530.42 618.01 C 536.76 615.86 543.28 613.57 550.10 614.55 C 553.40 615.21 555.03 611.78 556.56 609.52 C 559.29 605.34 553.53 601.08 555.64 596.74 C 557.77 591.08 559.80 585.19 563.05 580.09 C 567.78 577.20 573.29 575.80 578.40 573.65 C 576.84 568.10 573.61 563.25 571.59 557.91 C 572.37 555.02 574.28 552.57 575.52 549.90 C 577.65 550.34 579.79 550.77 581.94 551.18 Z" />
</g>
<g id="#4f7fbfff">
<path fill="#4f7fbf" fill-opacity="0" d=" M 1036.82 576.93 C 1046.70 568.18 1056.09 558.84 1067.04 551.38 C 1072.35 562.80 1072.86 575.75 1077.77 587.32 C 1079.36 590.48 1083.18 592.14 1086.60 592.16 C 1088.99 590.53 1090.79 588.20 1092.74 586.09 C 1101.24 590.18 1109.33 595.08 1117.71 599.40 C 1116.32 603.08 1114.92 606.76 1113.63 610.48 C 1112.80 612.80 1112.14 615.18 1111.52 617.57 C 1116.89 617.89 1121.93 615.85 1127.06 614.65 C 1130.52 614.84 1133.94 616.05 1137.30 616.97 C 1132.88 625.64 1129.09 634.67 1123.71 642.81 C 1121.29 646.35 1117.48 648.99 1116.17 653.26 C 1113.53 660.75 1118.56 668.81 1115.27 676.14 C 1113.36 680.39 1111.56 684.86 1108.44 688.41 C 1102.44 687.93 1096.61 685.66 1090.50 686.29 C 1089.09 687.75 1087.59 689.57 1087.90 691.75 C 1089.48 701.41 1083.64 710.73 1076.25 716.46 C 1076.88 719.28 1078.53 721.72 1079.89 724.24 C 1077.45 729.37 1074.75 734.37 1071.71 739.17 C 1065.66 733.94 1057.35 732.96 1050.09 730.21 C 1048.48 733.29 1046.86 736.37 1045.18 739.42 C 1038.04 732.32 1030.92 724.94 1022.13 719.88 C 1005.37 710.88 990.45 698.95 974.80 688.23 C 981.42 677.43 985.00 664.55 983.97 651.89 C 983.20 645.27 978.52 640.31 974.15 635.71 C 980.66 634.15 988.19 634.24 993.26 629.24 C 995.75 627.30 995.33 623.57 993.88 621.07 C 990.86 616.32 987.01 612.20 983.29 608.03 C 986.96 600.76 989.11 592.88 992.45 585.49 C 997.65 579.36 1003.68 573.88 1010.53 569.62 C 1015.65 567.14 1021.18 565.53 1026.70 564.17 C 1030.70 567.90 1033.87 572.35 1036.82 576.93 Z" />
</g>
<g id="#cf7fbfff">
<path fill="#cf7fbf" fill-opacity="0" d=" M 654.44 583.86 C 668.54 576.83 681.61 567.29 690.91 554.40 C 696.20 558.96 700.59 564.44 704.56 570.17 C 711.67 567.47 718.45 563.98 725.66 561.54 C 727.09 560.98 728.65 561.20 730.05 561.76 C 749.84 569.84 768.34 581.15 788.94 587.18 C 793.46 590.61 795.30 596.65 800.15 599.87 C 808.47 606.83 820.29 603.53 830.04 603.98 C 828.54 618.42 823.31 631.96 818.88 645.67 C 811.94 647.20 805.02 648.81 798.07 650.29 C 796.37 645.75 795.56 640.77 792.90 636.68 C 786.26 630.70 776.47 630.08 769.72 624.26 C 766.56 621.40 763.65 618.34 760.69 615.31 C 756.18 617.15 750.90 618.84 748.54 623.52 C 742.62 635.54 734.01 646.84 733.34 660.72 C 732.42 665.50 728.96 669.18 725.95 672.79 C 721.89 666.38 720.72 658.78 719.71 651.41 C 717.25 651.34 714.71 651.19 712.31 651.17 C 706.58 658.68 702.18 670.65 691.20 671.02 C 686.93 671.50 682.44 670.67 678.28 671.98 C 675.48 673.44 673.86 676.35 671.96 678.75 C 665.44 678.22 658.90 677.66 652.50 676.26 C 651.94 661.96 655.50 647.97 656.39 633.76 C 657.05 623.45 647.18 617.44 642.05 609.83 C 645.94 601.06 650.03 592.38 654.44 583.86 M 709.41 629.31 C 712.13 632.04 714.89 634.83 718.22 636.83 C 724.24 635.85 726.21 629.26 725.56 623.90 C 720.14 625.59 714.74 627.34 709.41 629.31 Z" />
</g>
<g id="#0fbfbffe">
<path fill="#0fbfbf" fill-opacity="0" d=" M 830.04 603.98 L 830.89 604.00 C 834.21 604.21 837.72 604.56 840.57 606.46 C 847.85 611.44 854.52 617.28 862.06 621.89 C 866.97 625.26 872.47 627.98 876.68 632.29 C 885.62 642.31 890.24 655.27 897.87 666.17 C 905.01 677.32 920.16 677.65 928.31 687.64 C 932.37 692.84 936.56 697.97 941.64 702.22 C 933.15 706.40 923.64 709.84 918.11 718.03 C 912.96 729.06 912.23 741.32 910.35 753.16 C 903.55 757.25 896.72 761.32 889.85 765.28 C 888.56 764.59 887.24 763.98 885.92 763.43 C 881.91 762.69 877.71 761.07 873.59 761.93 C 869.48 764.44 866.91 768.76 863.83 772.35 C 861.02 768.88 859.10 764.15 861.08 759.81 C 864.75 751.88 869.49 744.48 872.88 736.40 C 865.94 736.59 858.80 737.09 852.13 734.74 C 846.93 732.47 842.11 729.44 837.07 726.86 C 829.40 722.48 820.90 718.84 814.88 712.14 C 812.22 709.39 809.75 706.48 807.36 703.51 C 808.09 699.51 809.05 695.27 807.66 691.30 C 806.20 686.13 803.42 680.85 803.62 675.52 C 806.30 668.87 814.17 670.51 819.80 670.53 C 824.05 670.88 827.21 667.69 830.46 665.46 C 826.60 658.86 822.66 652.30 818.88 645.67 C 823.31 631.96 828.54 618.42 830.04 603.98 Z" />
</g>
<g id="#cf7f3fff">
<path fill="#cf7f3f" fill-opacity="0" d=" M 748.54 623.52 C 750.90 618.84 756.18 617.15 760.69 615.31 C 763.65 618.34 766.56 621.40 769.72 624.26 C 776.47 630.08 786.26 630.70 792.90 636.68 C 795.56 640.77 796.37 645.75 798.07 650.29 C 805.02 648.81 811.94 647.20 818.88 645.67 C 822.66 652.30 826.60 658.86 830.46 665.46 C 827.21 667.69 824.05 670.88 819.80 670.53 C 814.17 670.51 806.30 668.87 803.62 675.52 C 803.42 680.85 806.20 686.13 807.66 691.30 C 809.05 695.27 808.09 699.51 807.36 703.51 C 800.90 702.88 794.65 700.81 788.19 700.42 C 781.17 708.05 781.04 719.44 774.03 727.03 C 770.24 731.23 766.14 735.14 762.42 739.41 C 755.50 747.47 746.15 752.81 737.66 759.02 C 735.87 757.23 734.08 755.44 732.44 753.53 C 728.39 749.14 729.45 742.10 725.13 737.90 C 719.07 731.62 712.39 725.94 706.69 719.30 C 703.89 716.78 701.40 712.35 697.16 712.38 C 687.02 714.67 677.41 719.21 667.04 720.50 C 662.50 718.17 659.27 713.92 654.77 711.49 C 652.20 709.84 649.67 708.14 647.12 706.50 C 647.90 696.25 650.90 686.38 652.50 676.26 C 658.90 677.66 665.44 678.22 671.96 678.75 C 673.86 676.35 675.48 673.44 678.28 671.98 C 682.44 670.67 686.93 671.50 691.20 671.02 C 702.18 670.65 706.58 658.68 712.31 651.17 C 714.71 651.19 717.25 651.34 719.71 651.41 C 720.72 658.78 721.89 666.38 725.95 672.79 C 728.96 669.18 732.42 665.50 733.34 660.72 C 734.01 646.84 742.62 635.54 748.54 623.52 M 730.07 689.03 C 728.39 693.72 726.95 698.49 725.19 703.15 C 731.01 703.57 736.85 703.62 742.69 703.74 C 743.70 699.50 744.79 695.26 745.85 691.03 C 740.61 690.23 735.34 689.60 730.07 689.03 Z" />
</g>
<g id="#0f3f3fff">
<path fill="#0f3f3f" fill-opacity="0" d=" M 709.41 629.31 C 714.74 627.34 720.14 625.59 725.56 623.90 C 726.21 629.26 724.24 635.85 718.22 636.83 C 714.89 634.83 712.13 632.04 709.41 629.31 Z" />
</g>
<g id="#8f003fff">
<path fill="#8f003f" fill-opacity="0" d=" M 963.87 698.76 C 968.60 696.57 972.34 692.79 974.80 688.23 C 990.45 698.95 1005.37 710.88 1022.13 719.88 C 1030.92 724.94 1038.04 732.32 1045.18 739.42 C 1046.86 736.37 1048.48 733.29 1050.09 730.21 C 1057.35 732.96 1065.66 733.94 1071.71 739.17 C 1074.64 742.56 1076.83 746.80 1080.66 749.35 C 1084.80 752.11 1090.58 751.13 1094.31 754.63 C 1097.30 757.66 1099.56 761.31 1102.46 764.43 C 1096.21 773.15 1090.84 782.61 1083.51 790.49 C 1072.06 800.11 1059.68 808.61 1048.34 818.35 C 1044.57 823.80 1042.50 830.28 1039.07 835.96 C 1032.76 836.20 1026.46 836.71 1020.23 837.70 C 1017.86 833.51 1015.58 829.28 1013.33 825.04 C 1008.89 827.57 1006.27 832.07 1002.90 835.71 C 999.72 837.55 994.31 835.54 992.89 839.85 C 988.42 850.92 984.34 862.16 979.81 873.21 C 976.72 872.63 973.67 871.90 970.66 871.07 C 972.95 864.26 976.55 857.90 978.09 850.85 C 973.82 849.87 969.79 852.20 965.69 852.99 C 965.86 849.23 965.23 845.48 964.06 841.93 C 961.52 834.19 959.38 826.33 957.57 818.40 C 956.30 817.86 955.03 817.33 953.78 816.81 C 948.22 822.03 943.02 827.84 935.86 830.94 C 933.23 823.99 933.94 816.56 934.20 809.33 C 934.30 803.90 930.26 799.72 925.90 797.10 C 917.00 791.60 910.59 783.16 902.77 776.37 C 898.46 772.68 894.43 768.64 889.85 765.28 C 896.72 761.32 903.55 757.25 910.35 753.16 C 912.23 741.32 912.96 729.06 918.11 718.03 C 923.64 709.84 933.15 706.40 941.64 702.22 C 944.06 704.08 946.46 706.88 949.66 707.06 C 954.79 705.07 958.96 701.22 963.87 698.76 Z" />
</g>
<g id="#4f00bfff">
<path fill="#4f00bf" fill-opacity="0" d=" M 730.07 689.03 C 735.34 689.60 740.61 690.23 745.85 691.03 C 744.79 695.26 743.70 699.50 742.69 703.74 C 736.85 703.62 731.01 703.57 725.19 703.15 C 726.95 698.49 728.39 693.72 730.07 689.03 Z" />
</g>
<g id="#cfbf7ffe">
<path fill="#cfbf7f" fill-opacity="0" d=" M 788.19 700.42 C 794.65 700.81 800.90 702.88 807.36 703.51 C 809.75 706.48 812.22 709.39 814.88 712.14 C 820.90 718.84 829.40 722.48 837.07 726.86 C 842.11 729.44 846.93 732.47 852.13 734.74 C 858.80 737.09 865.94 736.59 872.88 736.40 C 869.49 744.48 864.75 751.88 861.08 759.81 C 859.10 764.15 861.02 768.88 863.83 772.35 C 866.91 768.76 869.48 764.44 873.59 761.93 C 877.71 761.07 881.91 762.69 885.92 763.43 C 880.39 771.80 875.72 780.72 869.62 788.71 C 864.50 794.89 856.31 797.11 850.65 802.59 C 843.01 812.65 844.30 826.64 836.46 836.66 C 826.15 833.86 815.70 837.64 807.09 843.20 C 801.99 847.05 797.96 852.09 794.03 857.08 C 789.09 862.93 786.45 870.51 780.55 875.58 C 783.17 877.12 785.78 878.75 788.48 880.21 C 782.48 878.94 776.68 876.01 772.97 871.01 C 768.01 864.68 760.94 860.69 753.62 857.72 C 753.79 850.63 752.74 842.89 756.38 836.49 C 757.02 834.91 758.11 833.18 757.47 831.43 C 754.86 824.58 749.65 818.43 749.96 810.71 C 750.62 800.46 749.83 790.18 750.72 779.95 C 750.42 776.69 752.05 772.37 749.37 769.64 C 745.82 765.73 741.60 762.51 737.66 759.02 C 746.15 752.81 755.50 747.47 762.42 739.41 C 766.14 735.14 770.24 731.23 774.03 727.03 C 781.04 719.44 781.17 708.05 788.19 700.42 Z" />
</g>
<g id="#8f3f3fff">
<path fill="#8f3f3f" fill-opacity="0" d=" M 869.62 788.71 C 875.72 780.72 880.39 771.80 885.92 763.43 C 887.24 763.98 888.56 764.59 889.85 765.28 C 894.43 768.64 898.46 772.68 902.77 776.37 C 910.59 783.16 917.00 791.60 925.90 797.10 C 930.26 799.72 934.30 803.90 934.20 809.33 C 933.94 816.56 933.23 823.99 935.86 830.94 C 943.02 827.84 948.22 822.03 953.78 816.81 C 955.03 817.33 956.30 817.86 957.57 818.40 C 959.38 826.33 961.52 834.19 964.06 841.93 C 965.23 845.48 965.86 849.23 965.69 852.99 C 962.65 859.58 958.26 865.51 955.50 872.26 C 953.13 879.58 951.40 887.12 949.70 894.64 C 945.37 894.73 940.64 893.57 936.59 895.65 C 931.24 898.40 926.02 901.50 921.54 905.54 C 919.17 910.14 921.10 915.34 921.69 920.17 C 918.24 918.51 914.98 916.01 911.11 915.54 C 904.61 916.64 898.98 920.39 893.14 923.21 C 885.26 914.29 872.41 910.04 867.40 898.72 C 862.32 897.72 857.49 895.32 852.19 895.76 C 847.27 895.98 842.30 897.98 837.39 896.59 C 827.34 893.94 817.39 890.24 809.18 883.73 C 803.64 877.97 795.32 881.70 788.48 880.21 C 785.78 878.75 783.17 877.12 780.55 875.58 C 786.45 870.51 789.09 862.93 794.03 857.08 C 797.96 852.09 801.99 847.05 807.09 843.20 C 815.70 837.64 826.15 833.86 836.46 836.66 C 844.30 826.64 843.01 812.65 850.65 802.59 C 856.31 797.11 864.50 794.89 869.62 788.71 Z" />
</g>
<g id="#8f5f00ff">
<path fill="#8f5f00" fill-opacity="0" d=" M 0.00 1079.00 C 35.33 1078.97 70.66 1079.06 106.00 1078.95 L 106.01 1080.00 L 0.00 1080.00 L 0.00 1079.00 Z" />
</g>
<g id="#9f7fbfff">
<path fill="#9f7fbf" fill-opacity="0" d=" M 106.00 1078.95 C 119.91 1078.81 133.82 1079.15 147.71 1079.96 L 148.65 1080.00 L 106.01 1080.00 L 106.00 1078.95 Z" />
</g>
<g id="#5f7fbfff">
<path fill="#5f7fbf" fill-opacity="0" d=" M 147.71 1079.96 C 159.36 1079.04 171.07 1079.13 182.73 1079.96 L 183.66 1080.00 L 148.65 1080.00 L 147.71 1079.96 Z" />
</g>
<g id="#5f7f3ffe">
<path fill="#5f7f3f" fill-opacity="0" d=" M 182.73 1079.96 C 216.35 1078.25 250.10 1078.53 283.73 1079.97 L 284.65 1080.00 L 183.66 1080.00 L 182.73 1079.96 Z" />
</g>
<g id="#5fbf00ff">
<path fill="#5fbf00" fill-opacity="0" d=" M 283.73 1079.97 C 305.12 1078.45 326.57 1079.02 348.00 1079.00 C 383.33 1079.00 418.66 1078.99 454.00 1079.00 L 454.00 1080.00 L 284.65 1080.00 L 283.73 1079.97 Z" />
</g>
<g id="#1f7f3fff">
<path fill="#1f7f3f" fill-opacity="0" d=" M 454.00 1079.00 C 494.57 1079.46 535.18 1077.93 575.72 1079.97 L 576.63 1080.00 L 454.00 1080.00 L 454.00 1079.00 Z" />
</g>
<g id="#dfbf00ff">
<path fill="#dfbf00" fill-opacity="0" d=" M 575.72 1079.97 C 599.44 1078.19 623.24 1079.20 647.00 1079.01 L 647.00 1080.00 L 576.63 1080.00 L 575.72 1079.97 Z" />
</g>
<g id="#9f00bfff">
<path fill="#9f00bf" fill-opacity="0" d=" M 647.00 1079.01 C 704.24 1079.55 761.53 1077.81 818.74 1079.97 L 819.65 1080.00 L 647.00 1080.00 L 647.00 1079.01 Z" />
</g>
<g id="#5fbf5fff">
<path fill="#5fbf5f" fill-opacity="0" d=" M 818.74 1079.97 C 848.79 1078.17 878.93 1079.00 909.02 1079.39 L 909.35 1080.00 L 819.65 1080.00 L 818.74 1079.97 Z" />
<path fill="#5fbf5f" fill-opacity="0" d=" M 913.01 1079.37 C 919.73 1079.43 926.44 1079.77 933.19 1079.96 L 932.27 1080.00 L 912.69 1080.00 L 913.01 1079.37 Z" />
</g>
<g id="#df3f5fff">
<path fill="#df3f5f" fill-opacity="0" d=" M 909.02 1079.39 C 910.33 1078.52 911.66 1078.51 913.01 1079.37 L 912.69 1080.00 L 909.35 1080.00 L 909.02 1079.39 Z" />
<path fill="#df3f5f" fill-opacity="0" d=" M 933.19 1079.96 C 939.79 1079.63 946.37 1079.13 953.00 1078.97 L 952.99 1080.00 L 932.27 1080.00 L 933.19 1079.96 Z" />
</g>
<g id="#1fbfdfff">
<path fill="#1fbfdf" fill-opacity="0" d=" M 953.00 1078.97 C 975.56 1079.05 998.15 1078.43 1020.69 1079.76 L 1022.02 1080.00 L 952.99 1080.00 L 953.00 1078.97 Z" />
</g>
<g id="#5f3fdfff">
<path fill="#5f3fdf" fill-opacity="0" d=" M 1020.69 1079.76 C 1072.10 1078.07 1123.56 1079.43 1175.00 1079.00 L 1175.00 1080.00 L 1022.02 1080.00 L 1020.69 1079.76 Z" />
</g>
<g id="#1f3fdfff">
<path fill="#1f3fdf" fill-opacity="0" d=" M 1175.00 1079.00 C 1224.00 1079.00 1273.00 1078.99 1322.00 1079.00 L 1322.00 1080.00 L 1175.00 1080.00 L 1175.00 1079.00 Z" />
</g>
<g id="#9f3fdffe">
<path fill="#9f3fdf" fill-opacity="0" d=" M 1322.00 1079.00 C 1342.91 1078.91 1363.84 1078.63 1384.73 1079.97 L 1385.64 1080.00 L 1322.00 1080.00 L 1322.00 1079.00 Z" />
</g>
<g id="#dfbfdfff">
<path fill="#dfbfdf" fill-opacity="0" d=" M 1384.73 1079.97 C 1394.80 1079.32 1404.88 1079.00 1415.00 1078.91 L 1415.00 1080.00 L 1385.64 1080.00 L 1384.73 1079.97 Z" />
</g>
<g id="#7f1f9fff">
<path fill="#7f1f9f" fill-opacity="0" d=" M 1415.00 1078.91 C 1440.57 1079.18 1466.18 1078.32 1491.73 1079.97 L 1492.65 1080.00 L 1415.00 1080.00 L 1415.00 1078.91 Z" />
</g>
<g id="#9fdf5fff">
<path fill="#9fdf5f" fill-opacity="0" d=" M 1491.73 1079.97 C 1513.36 1078.40 1535.08 1078.61 1556.73 1079.97 L 1557.65 1080.00 L 1492.65 1080.00 L 1491.73 1079.97 Z" />
</g>
<g id="#5f1fdfff">
<path fill="#5f1fdf" fill-opacity="0" d=" M 1556.73 1079.97 C 1583.36 1078.34 1610.08 1078.54 1636.72 1079.97 L 1637.64 1080.00 L 1557.65 1080.00 L 1556.73 1079.97 Z" />
</g>
<g id="#9f5f5fff">
<path fill="#9f5f5f" fill-opacity="0" d=" M 1636.72 1079.97 C 1673.76 1078.17 1710.92 1078.75 1747.99 1079.69 L 1748.42 1080.00 L 1637.64 1080.00 L 1636.72 1079.97 Z" />
</g>
<g id="#5f1f5fff">
<path fill="#5f1f5f" fill-opacity="0" d=" M 1747.99 1079.69 C 1749.75 1078.28 1752.22 1078.25 1754.04 1079.66 L 1753.61 1080.00 L 1748.42 1080.00 L 1747.99 1079.69 Z" />
</g>
<g id="#1f5f5fff">
<path fill="#1f5f5f" fill-opacity="0" d=" M 1754.04 1079.66 C 1785.00 1078.31 1816.01 1079.27 1847.00 1079.00 L 1846.99 1080.00 L 1753.61 1080.00 L 1754.04 1079.66 Z" />
</g>
<g id="#df605fff">
<path fill="#df605f" fill-opacity="0" d=" M 1847.00 1079.00 C 1849.61 1078.96 1852.28 1078.94 1854.99 1078.96 L 1855.02 1080.00 L 1846.99 1080.00 L 1847.00 1079.00 Z" />
</g>
<g id="#df1fdfff">
<path fill="#df1fdf" fill-opacity="0" d=" M 1854.99 1078.96 C 1868.24 1078.85 1881.49 1079.21 1894.74 1079.97 L 1895.64 1080.00 L 1855.02 1080.00 L 1854.99 1078.96 Z" />
</g>
<g id="#df5f5fff">
<path fill="#df5f5f" fill-opacity="0" d=" M 1894.74 1079.97 C 1903.14 1079.48 1911.54 1079.10 1920.00 1078.77 L 1920.00 1080.00 L 1895.64 1080.00 L 1894.74 1079.97 Z" />
</g>
</svg>
