<?xml version="1.0" encoding="UTF-8" ?>
<!DOCTYPE svg PUBLIC "-//W3C//DTD SVG 1.1//EN" "http://www.w3.org/Graphics/SVG/1.1/DTD/svg11.dtd">
<svg width="1920pt" height="1080pt" viewBox="0 0 1920 1080" version="1.1" xmlns="http://www.w3.org/2000/svg">
<g id="#000000ff">
<path fill="#000000" fill-opacity="0" d=" M 1410.26 203.80 C 1423.07 205.33 1427.94 187.48 1441.00 190.48 C 1453.68 190.48 1466.35 190.85 1479.04 190.82 C 1479.01 213.16 1477.74 235.50 1478.38 257.84 C 1478.50 259.26 1478.73 260.66 1479.04 262.05 C 1482.14 274.64 1486.08 287.64 1484.27 300.72 C 1481.55 309.35 1473.84 315.27 1466.16 319.40 C 1463.45 320.69 1461.36 323.98 1463.23 326.81 C 1474.23 346.45 1479.03 369.36 1477.54 391.77 C 1476.08 399.74 1472.90 407.52 1468.13 414.09 C 1461.57 422.57 1457.00 432.52 1449.20 440.03 C 1442.83 444.38 1435.61 447.27 1428.67 450.55 C 1422.64 453.46 1416.08 451.85 1409.94 450.46 C 1409.18 454.31 1408.51 458.18 1407.81 462.04 C 1402.18 461.88 1394.53 459.79 1391.27 466.04 C 1388.95 473.40 1388.99 481.29 1388.52 488.94 C 1384.46 489.37 1380.40 489.79 1376.38 490.22 C 1377.38 477.71 1377.11 464.49 1372.03 452.85 C 1369.43 446.98 1362.43 446.54 1356.98 445.27 C 1349.75 443.82 1342.01 441.74 1338.64 434.28 C 1334.46 428.14 1342.71 422.85 1347.90 421.22 C 1348.54 415.02 1349.08 408.82 1349.79 402.63 C 1358.15 394.77 1363.67 383.75 1374.24 378.46 C 1378.11 376.19 1382.82 374.15 1384.39 369.54 C 1388.14 362.00 1387.25 351.10 1396.04 347.14 C 1401.15 343.88 1406.38 340.80 1411.26 337.19 C 1404.96 316.27 1398.99 295.25 1393.01 274.24 C 1390.95 266.68 1381.78 265.22 1375.71 262.42 C 1363.60 261.00 1351.71 265.18 1339.66 266.02 C 1351.97 244.31 1362.65 221.64 1374.89 199.95 C 1384.69 196.92 1395.44 197.10 1405.66 195.47 C 1406.97 198.32 1407.57 201.85 1410.26 203.80 Z" />
</g>
<g id="#7f7f00ff">
<path fill="#7f7f00" fill-opacity="0" d=" M 700.51 251.71 C 707.27 253.19 713.65 256.17 720.62 256.78 C 725.24 270.46 730.05 284.09 734.34 297.88 C 734.98 297.91 736.26 297.97 736.90 298.00 C 741.17 293.85 745.12 287.62 752.02 288.25 C 763.01 287.64 773.40 284.09 783.88 281.11 C 789.29 288.38 792.71 296.78 795.39 305.38 C 797.67 306.77 800.60 307.43 802.19 309.74 C 807.65 317.55 811.15 326.56 816.88 334.20 C 817.86 335.59 818.86 336.97 819.87 338.35 C 813.67 343.83 805.17 347.63 801.46 355.43 C 798.27 365.14 803.59 375.67 800.60 385.48 C 799.10 390.88 793.51 393.37 789.35 396.37 C 771.10 407.25 753.83 419.67 735.74 430.80 C 729.27 435.40 722.25 439.18 715.92 443.97 C 710.77 447.63 709.70 454.22 707.86 459.82 C 698.70 454.03 689.70 447.86 679.81 443.38 C 668.71 439.35 656.95 437.35 645.94 433.07 C 638.03 430.16 638.37 419.96 635.22 413.48 C 631.25 413.52 627.28 413.61 623.31 413.75 C 621.13 407.68 619.80 401.13 616.25 395.68 C 613.00 392.44 608.34 391.25 604.33 389.22 C 604.40 383.15 604.44 377.07 605.14 371.03 C 609.41 364.57 618.40 364.63 624.31 360.32 C 633.57 353.45 644.93 350.16 656.24 348.79 C 664.81 350.03 673.65 354.99 682.27 351.07 C 681.54 348.52 680.77 345.99 679.97 343.47 C 681.45 342.79 682.91 342.00 684.50 341.58 C 686.01 342.87 687.25 344.43 688.57 345.92 C 692.36 345.01 696.13 344.05 699.93 343.12 C 699.50 337.72 700.29 332.08 698.01 326.99 C 693.47 315.39 688.81 303.83 684.13 292.29 C 688.76 284.71 691.17 276.14 694.02 267.81 C 696.13 262.42 698.41 257.10 700.51 251.71 Z" />
</g>
<g id="#3f0000ff">
<path fill="#3f0000" fill-opacity="0" d=" M 1339.66 266.02 C 1351.71 265.18 1363.60 261.00 1375.71 262.42 C 1381.78 265.22 1390.95 266.68 1393.01 274.24 C 1398.99 295.25 1404.96 316.27 1411.26 337.19 C 1406.38 340.80 1401.15 343.88 1396.04 347.14 C 1387.25 351.10 1388.14 362.00 1384.39 369.54 C 1382.82 374.15 1378.11 376.19 1374.24 378.46 C 1363.67 383.75 1358.15 394.77 1349.79 402.63 C 1339.36 403.00 1326.60 408.26 1317.46 400.67 C 1308.81 395.53 1302.64 386.50 1301.11 376.53 C 1299.42 368.55 1290.00 364.15 1289.97 355.64 C 1289.38 350.97 1292.61 347.13 1294.66 343.25 C 1288.86 335.43 1285.32 326.31 1281.59 317.40 C 1287.20 317.78 1292.75 318.32 1298.40 318.60 C 1300.43 318.57 1303.21 318.48 1304.13 316.26 C 1306.53 311.52 1308.32 306.47 1310.98 301.85 C 1315.85 293.51 1319.17 284.30 1324.98 276.52 C 1328.44 276.29 1332.13 276.80 1335.37 275.24 C 1336.58 274.95 1336.99 273.63 1337.25 272.55 C 1337.84 270.30 1338.76 268.16 1339.66 266.02 Z" />
</g>
<g id="#bf7f00fe">
<path fill="#bf7f00" fill-opacity="0" d=" M 1479.04 262.05 C 1489.74 263.75 1500.60 264.45 1511.21 266.74 C 1510.99 273.40 1510.85 280.08 1510.26 286.73 C 1512.34 289.22 1514.81 291.49 1516.27 294.43 C 1516.62 297.87 1513.52 301.26 1515.28 304.65 C 1517.42 309.57 1520.83 313.77 1523.82 318.19 C 1526.40 321.99 1531.18 323.31 1535.36 324.67 C 1540.29 326.18 1542.86 320.14 1546.20 317.85 C 1550.14 322.54 1551.01 328.67 1551.47 334.60 C 1555.77 338.20 1560.44 341.55 1563.78 346.14 C 1570.10 354.44 1569.31 365.96 1575.88 374.11 C 1579.79 379.02 1582.49 387.48 1577.33 392.30 C 1559.01 408.94 1541.33 426.29 1523.39 443.33 C 1513.54 451.27 1504.02 459.71 1495.53 469.10 C 1494.34 464.53 1491.93 460.11 1492.04 455.31 C 1493.49 451.39 1496.70 448.46 1499.24 445.21 C 1489.20 446.59 1479.19 448.08 1469.15 449.37 C 1465.79 449.81 1462.30 449.67 1459.01 449.02 C 1456.01 445.71 1453.78 441.44 1449.20 440.03 C 1457.00 432.52 1461.57 422.57 1468.13 414.09 C 1472.90 407.52 1476.08 399.74 1477.54 391.77 C 1479.03 369.36 1474.23 346.45 1463.23 326.81 C 1461.36 323.98 1463.45 320.69 1466.16 319.40 C 1473.84 315.27 1481.55 309.35 1484.27 300.72 C 1486.08 287.64 1482.14 274.64 1479.04 262.05 Z" />
</g>
<g id="#100000ff">
<path fill="#100000" fill-opacity="0" d=" M 1335.37 275.24 C 1334.14 274.14 1335.79 271.74 1337.25 272.55 C 1336.99 273.63 1336.58 274.95 1335.37 275.24 Z" />
</g>
<g id="#bfbf00ff">
<path fill="#bfbf00" fill-opacity="0" d=" M 908.04 296.13 C 913.67 296.16 918.06 292.59 922.72 290.00 C 923.81 295.55 924.19 301.35 926.51 306.57 C 928.63 311.42 929.75 316.82 929.47 322.11 C 928.29 328.95 926.83 336.43 921.01 340.98 C 918.19 344.70 912.33 347.68 913.11 353.13 C 913.68 358.23 914.15 363.51 915.92 368.37 C 916.89 371.26 920.03 372.28 922.77 372.62 C 931.56 373.61 940.38 374.45 949.20 375.20 C 950.16 388.36 950.52 401.55 951.13 414.73 C 938.96 416.89 927.12 420.50 915.04 423.03 C 909.07 424.47 904.01 419.77 898.24 419.54 C 895.98 420.27 894.24 421.98 892.49 423.49 C 886.71 428.85 880.59 433.98 873.54 437.58 C 868.62 440.45 863.00 442.55 859.09 446.82 C 855.97 455.10 858.55 464.43 855.54 472.72 C 849.93 479.41 841.37 482.83 835.79 489.59 C 832.44 496.97 830.64 504.97 828.05 512.64 C 818.85 513.06 810.49 509.54 802.35 505.86 C 798.69 510.21 795.02 514.55 791.31 518.87 C 780.74 518.24 770.34 520.58 759.79 520.53 C 756.83 511.16 755.07 501.41 751.67 492.20 C 749.32 486.14 742.81 484.10 737.58 481.19 C 727.08 474.92 717.80 466.89 707.86 459.82 C 709.70 454.22 710.77 447.63 715.92 443.97 C 722.25 439.18 729.27 435.40 735.74 430.80 C 753.83 419.67 771.10 407.25 789.35 396.37 C 793.51 393.37 799.10 390.88 800.60 385.48 C 803.59 375.67 798.27 365.14 801.46 355.43 C 805.17 347.63 813.67 343.83 819.87 338.35 C 818.86 336.97 817.86 335.59 816.88 334.20 C 819.12 333.63 823.59 332.48 825.83 331.90 C 826.46 326.51 827.00 321.10 827.98 315.76 C 829.19 317.50 830.40 319.24 831.60 321.01 C 839.92 319.57 848.07 317.31 856.35 315.69 C 856.54 312.95 856.52 310.10 857.61 307.54 C 860.97 304.20 864.97 301.60 868.76 298.77 C 873.01 302.98 876.96 307.61 882.19 310.67 C 884.25 310.73 886.27 310.16 888.28 309.71 C 889.58 311.84 890.85 313.99 892.16 316.13 C 895.35 315.40 898.59 314.58 901.78 313.76 C 901.45 308.58 900.71 303.36 901.19 298.18 C 903.08 296.46 905.55 296.71 908.04 296.13 Z" />
</g>
<g id="#7fbf7fff">
<path fill="#7fbf7f" fill-opacity="0" d=" M 941.41 308.93 C 950.61 304.28 960.16 300.39 969.36 295.75 C 970.97 300.93 971.15 306.39 971.93 311.72 C 976.99 312.00 982.44 310.68 987.36 312.54 C 992.54 314.45 997.24 317.38 1002.17 319.85 C 1010.53 317.59 1018.85 315.12 1027.22 312.89 C 1028.59 316.49 1028.54 321.44 1031.82 324.10 C 1036.88 326.72 1042.88 326.79 1048.13 328.96 C 1049.77 331.41 1050.31 334.38 1051.39 337.12 C 1062.14 335.81 1072.42 332.03 1083.27 331.30 C 1085.56 332.62 1087.80 334.65 1090.62 334.51 C 1097.23 333.95 1103.87 333.78 1110.48 333.17 L 1110.51 333.66 C 1111.09 341.70 1111.49 349.84 1113.53 357.67 C 1116.81 362.20 1123.60 363.99 1125.27 369.86 C 1127.47 377.63 1130.97 385.18 1132.04 393.23 C 1129.74 401.52 1117.57 405.51 1119.23 415.23 C 1123.79 441.87 1127.74 468.63 1133.03 495.13 C 1131.00 497.72 1129.43 500.69 1127.01 502.96 C 1119.85 507.71 1109.47 505.44 1103.31 511.96 C 1100.92 517.39 1098.45 523.24 1092.48 525.39 C 1083.05 511.96 1072.25 499.54 1062.89 486.05 C 1054.20 476.00 1047.34 463.41 1035.09 457.14 C 1027.32 454.25 1019.18 452.56 1011.20 450.43 C 1008.82 445.26 1007.24 439.70 1004.24 434.86 C 1001.01 431.23 995.47 431.42 991.79 428.42 C 989.43 423.78 989.49 418.01 985.95 413.96 C 981.06 411.16 975.48 414.01 970.32 414.51 C 963.98 415.97 957.52 414.84 951.13 414.73 C 950.52 401.55 950.16 388.36 949.20 375.20 C 940.38 374.45 931.56 373.61 922.77 372.62 C 920.03 372.28 916.89 371.26 915.92 368.37 C 914.15 363.51 913.68 358.23 913.11 353.13 C 912.33 347.68 918.19 344.70 921.01 340.98 C 926.83 336.43 928.29 328.95 929.47 322.11 C 933.24 321.58 937.82 321.69 940.60 318.65 C 941.72 315.53 941.51 312.17 941.41 308.93 Z" />
</g>
<g id="#007f7fff">
<path fill="#007f7f" fill-opacity="0" d=" M 1270.28 308.57 C 1274.28 311.05 1279.94 312.40 1281.59 317.40 C 1285.32 326.31 1288.86 335.43 1294.66 343.25 C 1292.61 347.13 1289.38 350.97 1289.97 355.64 C 1290.00 364.15 1299.42 368.55 1301.11 376.53 C 1302.64 386.50 1308.81 395.53 1317.46 400.67 C 1326.60 408.26 1339.36 403.00 1349.79 402.63 C 1349.08 408.82 1348.54 415.02 1347.90 421.22 C 1342.71 422.85 1334.46 428.14 1338.64 434.28 C 1342.01 441.74 1349.75 443.82 1356.98 445.27 C 1354.08 450.86 1352.51 458.98 1345.41 460.59 C 1333.58 463.46 1321.34 464.86 1309.89 469.13 C 1306.65 471.12 1305.17 474.89 1303.09 477.92 C 1297.82 473.87 1291.68 471.13 1285.38 469.15 C 1283.51 473.35 1282.02 477.78 1279.49 481.65 C 1277.94 484.10 1274.63 485.93 1271.96 484.01 C 1263.32 478.70 1255.69 470.88 1245.37 468.98 C 1236.55 467.49 1227.62 466.74 1218.85 465.00 C 1220.41 456.56 1221.28 448.01 1222.26 439.49 C 1225.13 437.25 1228.04 435.02 1230.92 432.77 C 1230.60 425.66 1230.26 418.54 1229.75 411.44 C 1223.52 406.24 1214.65 401.90 1213.41 393.07 C 1210.66 372.96 1208.39 352.75 1204.58 332.80 C 1204.04 328.96 1203.33 325.06 1203.94 321.19 C 1206.07 317.43 1208.67 313.92 1211.06 310.31 C 1229.91 312.26 1249.02 312.42 1267.50 317.07 C 1268.33 314.21 1269.28 311.38 1270.28 308.57 Z" />
</g>
<g id="#003f00ff">
<path fill="#003f00" fill-opacity="0" d=" M 1170.30 320.96 C 1181.47 320.00 1192.86 318.65 1203.94 321.19 C 1203.33 325.06 1204.04 328.96 1204.58 332.80 C 1208.39 352.75 1210.66 372.96 1213.41 393.07 C 1214.65 401.90 1223.52 406.24 1229.75 411.44 C 1230.26 418.54 1230.60 425.66 1230.92 432.77 C 1228.04 435.02 1225.13 437.25 1222.26 439.49 C 1221.28 448.01 1220.41 456.56 1218.85 465.00 C 1215.15 469.05 1211.59 473.33 1209.66 478.53 C 1214.87 481.54 1220.35 484.19 1225.07 487.97 C 1226.47 489.01 1226.52 490.90 1226.54 492.48 C 1226.19 499.06 1226.67 506.28 1223.15 512.19 C 1219.24 518.79 1213.83 524.57 1211.06 531.81 C 1209.60 537.49 1210.74 543.46 1209.95 549.24 C 1205.36 543.77 1200.76 538.32 1195.90 533.09 C 1187.99 524.30 1177.74 517.97 1170.31 508.70 C 1163.19 501.17 1156.86 491.50 1146.32 488.66 C 1140.89 487.12 1136.16 491.20 1133.03 495.13 C 1127.74 468.63 1123.79 441.87 1119.23 415.23 C 1117.57 405.51 1129.74 401.52 1132.04 393.23 C 1130.97 385.18 1127.47 377.63 1125.27 369.86 C 1123.60 363.99 1116.81 362.20 1113.53 357.67 C 1111.49 349.84 1111.09 341.70 1110.51 333.66 C 1127.66 334.64 1144.24 339.85 1161.41 340.90 C 1164.38 334.26 1167.73 327.78 1170.30 320.96 Z" />
</g>
<g id="#3f3f7fff">
<path fill="#3f3f7f" fill-opacity="0" d=" M 593.76 377.86 C 597.51 375.52 601.31 373.25 605.14 371.03 C 604.44 377.07 604.40 383.15 604.33 389.22 C 608.34 391.25 613.00 392.44 616.25 395.68 C 619.80 401.13 621.13 407.68 623.31 413.75 C 627.28 413.61 631.25 413.52 635.22 413.48 C 638.37 419.96 638.03 430.16 645.94 433.07 C 656.95 437.35 668.71 439.35 679.81 443.38 C 689.70 447.86 698.70 454.03 707.86 459.82 C 704.99 462.62 701.77 465.12 699.31 468.30 C 694.10 474.82 693.59 483.40 690.96 491.03 C 689.92 493.33 689.86 496.83 687.38 498.33 C 680.71 502.09 672.66 501.54 665.67 504.19 C 658.15 511.27 652.92 520.41 646.22 528.23 C 638.02 537.78 630.61 547.94 622.82 557.82 C 621.00 560.22 618.75 563.33 620.70 566.35 C 626.78 578.82 632.87 591.29 638.29 604.06 C 628.77 601.03 619.29 597.84 609.62 595.33 C 604.96 594.02 600.23 595.70 595.53 595.56 C 590.94 595.62 586.29 594.44 581.75 595.23 C 577.52 597.03 574.58 600.82 571.35 603.95 C 566.91 602.99 562.63 601.28 558.12 600.71 C 554.80 600.42 552.75 603.67 550.37 605.42 C 546.39 609.56 540.10 609.38 534.83 609.49 C 529.40 605.10 523.92 600.64 517.65 597.50 C 513.91 596.38 509.93 596.64 506.08 596.62 C 510.65 590.25 518.41 588.83 525.43 586.53 C 530.97 584.97 534.38 580.07 538.02 576.00 C 540.04 573.39 542.91 570.43 541.08 566.76 C 537.97 561.11 532.64 557.00 529.80 551.15 C 525.90 544.13 526.76 535.54 523.63 528.33 C 518.76 522.63 512.79 517.91 508.22 511.92 C 512.65 508.22 517.99 506.61 523.66 508.76 C 523.41 504.98 522.96 501.23 521.56 497.69 C 526.19 493.56 530.04 488.71 534.14 484.08 C 538.16 479.44 546.20 481.99 549.87 476.90 C 555.17 470.20 558.89 462.42 563.32 455.15 C 558.74 449.53 554.20 443.88 549.81 438.13 C 549.13 437.04 547.77 435.86 548.76 434.54 C 551.69 428.98 555.13 423.70 558.10 418.15 C 560.16 419.31 562.22 420.47 564.34 421.54 C 564.28 416.26 566.12 410.11 562.19 405.79 C 559.88 402.01 554.58 397.68 557.88 392.97 C 559.60 388.28 564.20 386.24 568.77 385.36 C 569.29 382.36 569.74 379.33 570.28 376.35 C 572.17 375.63 574.05 374.90 575.93 374.16 C 578.78 378.14 580.79 382.93 584.64 386.12 C 587.93 383.64 590.22 380.03 593.76 377.86 M 598.30 530.39 C 596.85 531.58 598.90 533.74 600.19 532.41 C 601.66 531.26 599.54 529.08 598.30 530.39 Z" />
</g>
<g id="#bf0000ff">
<path fill="#bf0000" fill-opacity="0" d=" M 970.32 414.51 C 975.48 414.01 981.06 411.16 985.95 413.96 C 989.49 418.01 989.43 423.78 991.79 428.42 C 995.47 431.42 1001.01 431.23 1004.24 434.86 C 1007.24 439.70 1008.82 445.26 1011.20 450.43 C 1005.11 453.95 998.51 456.62 992.91 460.95 C 987.82 464.63 983.38 469.10 978.85 473.42 C 971.66 468.98 963.95 465.48 955.67 463.70 C 955.54 466.87 954.21 470.65 956.53 473.38 C 965.65 483.92 979.81 488.67 987.95 500.22 C 989.63 502.14 989.65 504.89 988.01 506.84 C 983.33 515.17 971.58 520.55 973.62 531.59 C 977.19 540.59 985.67 546.45 989.95 555.02 C 991.53 557.99 989.91 561.50 987.31 563.27 C 984.32 565.45 980.56 568.29 976.65 567.04 C 969.53 563.28 964.27 556.24 956.44 553.84 C 943.71 552.71 930.87 562.22 927.98 574.67 C 925.06 584.64 928.06 594.96 928.39 605.07 C 922.80 606.02 916.57 606.04 911.93 609.71 C 908.73 612.61 907.18 616.96 903.58 619.50 C 898.24 623.42 892.94 627.40 887.90 631.71 C 883.80 627.21 878.91 623.01 877.17 616.93 C 873.73 609.65 875.99 601.43 876.49 593.85 C 877.61 584.63 877.84 574.98 874.82 566.10 C 871.44 558.36 865.86 551.87 861.44 544.74 C 858.81 538.48 863.09 531.57 860.75 525.21 C 858.91 520.93 856.63 516.11 852.23 513.95 C 844.21 512.82 836.10 512.99 828.05 512.64 C 830.64 504.97 832.44 496.97 835.79 489.59 C 841.37 482.83 849.93 479.41 855.54 472.72 C 858.55 464.43 855.97 455.10 859.09 446.82 C 863.00 442.55 868.62 440.45 873.54 437.58 C 880.59 433.98 886.71 428.85 892.49 423.49 C 894.24 421.98 895.98 420.27 898.24 419.54 C 904.01 419.77 909.07 424.47 915.04 423.03 C 927.12 420.50 938.96 416.89 951.13 414.73 C 957.52 414.84 963.98 415.97 970.32 414.51 Z" />
</g>
<g id="#7f7f7fff">
<path fill="#7f7f7f" fill-opacity="0" d=" M 1428.67 450.55 C 1435.61 447.27 1442.83 444.38 1449.20 440.03 C 1453.78 441.44 1456.01 445.71 1459.01 449.02 C 1462.30 449.67 1465.79 449.81 1469.15 449.37 C 1479.19 448.08 1489.20 446.59 1499.24 445.21 C 1496.70 448.46 1493.49 451.39 1492.04 455.31 C 1491.93 460.11 1494.34 464.53 1495.53 469.10 C 1496.14 471.83 1497.78 475.19 1495.71 477.70 C 1491.53 483.16 1485.71 487.02 1480.94 491.93 C 1470.78 501.80 1460.02 511.01 1449.92 520.94 C 1445.61 525.13 1439.72 527.01 1434.03 528.46 C 1433.50 532.80 1433.31 537.20 1432.23 541.46 C 1427.05 547.05 1421.64 552.42 1415.70 557.19 C 1418.24 565.22 1411.09 570.52 1408.20 577.12 C 1405.93 583.36 1412.97 588.23 1412.42 594.06 C 1411.79 594.90 1411.61 595.83 1411.90 596.84 C 1412.09 598.30 1412.49 601.23 1412.68 602.70 C 1413.94 602.93 1415.21 603.17 1416.51 603.41 C 1414.61 608.17 1412.19 613.15 1407.60 615.84 C 1406.44 616.48 1405.45 617.35 1404.70 618.42 C 1400.89 622.88 1395.38 626.37 1394.70 632.71 C 1392.33 640.51 1398.11 646.79 1402.98 651.98 C 1392.57 661.80 1380.15 669.12 1368.92 677.91 C 1360.92 683.52 1351.79 691.51 1341.18 687.37 C 1354.16 676.86 1367.36 666.63 1380.97 656.92 C 1374.04 632.71 1368.85 608.00 1361.20 583.99 C 1353.62 585.25 1345.99 586.21 1338.35 586.95 C 1337.44 584.99 1336.53 583.03 1335.64 581.08 C 1331.22 580.24 1326.88 579.46 1322.47 578.70 C 1322.57 564.98 1319.89 551.56 1315.82 538.51 C 1331.80 535.82 1349.78 537.19 1362.90 525.90 C 1371.44 516.03 1374.04 502.68 1376.38 490.22 C 1380.40 489.79 1384.46 489.37 1388.52 488.94 C 1388.99 481.29 1388.95 473.40 1391.27 466.04 C 1394.53 459.79 1402.18 461.88 1407.81 462.04 C 1408.51 458.18 1409.18 454.31 1409.94 450.46 C 1416.08 451.85 1422.64 453.46 1428.67 450.55 Z" />
</g>
<g id="#7f007fff">
<path fill="#7f007f" fill-opacity="0" d=" M 1356.98 445.27 C 1362.43 446.54 1369.43 446.98 1372.03 452.85 C 1377.11 464.49 1377.38 477.71 1376.38 490.22 C 1374.04 502.68 1371.44 516.03 1362.90 525.90 C 1349.78 537.19 1331.80 535.82 1315.82 538.51 C 1319.89 551.56 1322.57 564.98 1322.47 578.70 C 1326.88 579.46 1331.22 580.24 1335.64 581.08 C 1336.53 583.03 1337.44 584.99 1338.35 586.95 C 1345.99 586.21 1353.62 585.25 1361.20 583.99 C 1368.85 608.00 1374.04 632.71 1380.97 656.92 C 1367.36 666.63 1354.16 676.86 1341.18 687.37 C 1330.34 690.21 1319.21 692.64 1307.96 693.19 C 1304.06 693.24 1301.39 696.36 1298.86 698.88 C 1287.80 709.97 1274.82 718.82 1263.05 729.09 C 1259.72 732.23 1254.52 732.54 1250.28 731.76 C 1245.47 728.94 1243.74 722.94 1239.22 719.72 C 1233.51 715.76 1235.17 706.36 1228.37 703.60 C 1220.41 700.02 1212.14 704.34 1204.35 705.92 C 1202.77 703.72 1201.21 701.54 1199.67 699.36 C 1196.28 698.72 1192.91 698.08 1189.56 697.44 C 1188.58 694.96 1187.62 692.47 1186.70 689.98 C 1177.72 690.00 1168.76 690.21 1159.82 690.69 C 1166.50 682.24 1172.38 673.19 1178.45 664.30 C 1179.76 662.13 1181.57 659.76 1180.95 657.07 C 1179.99 651.61 1176.78 646.78 1176.26 641.21 C 1174.72 628.17 1175.86 614.99 1175.28 601.90 C 1174.37 592.32 1178.98 583.15 1185.12 576.11 C 1193.33 567.10 1202.32 558.75 1209.95 549.24 C 1210.74 543.46 1209.60 537.49 1211.06 531.81 C 1213.83 524.57 1219.24 518.79 1223.15 512.19 C 1226.67 506.28 1226.19 499.06 1226.54 492.48 C 1226.52 490.90 1226.47 489.01 1225.07 487.97 C 1220.35 484.19 1214.87 481.54 1209.66 478.53 C 1211.59 473.33 1215.15 469.05 1218.85 465.00 C 1227.62 466.74 1236.55 467.49 1245.37 468.98 C 1255.69 470.88 1263.32 478.70 1271.96 484.01 C 1274.63 485.93 1277.94 484.10 1279.49 481.65 C 1282.02 477.78 1283.51 473.35 1285.38 469.15 C 1291.68 471.13 1297.82 473.87 1303.09 477.92 C 1305.17 474.89 1306.65 471.12 1309.89 469.13 C 1321.34 464.86 1333.58 463.46 1345.41 460.59 C 1352.51 458.98 1354.08 450.86 1356.98 445.27 M 1256.29 570.80 C 1256.30 571.82 1256.34 572.85 1256.37 573.89 C 1257.47 574.27 1258.59 574.66 1259.72 575.05 C 1260.15 573.96 1260.59 572.88 1261.05 571.81 C 1259.46 571.45 1257.87 571.12 1256.29 570.80 Z" />
</g>
<g id="#3f007fff">
<path fill="#3f007f" fill-opacity="0" d=" M 1011.20 450.43 C 1019.18 452.56 1027.32 454.25 1035.09 457.14 C 1047.34 463.41 1054.20 476.00 1062.89 486.05 C 1072.25 499.54 1083.05 511.96 1092.48 525.39 C 1090.05 531.63 1090.21 539.98 1083.16 543.20 C 1077.50 546.95 1070.74 547.79 1064.18 548.48 C 1058.38 549.52 1051.75 553.27 1050.55 559.44 C 1046.85 578.28 1048.96 597.61 1048.90 616.64 C 1048.68 618.62 1048.85 621.27 1046.84 622.39 C 1043.02 624.51 1038.75 625.59 1034.66 627.05 C 1035.69 631.02 1036.68 635.03 1038.24 638.84 C 1030.13 639.21 1022.02 639.59 1013.91 639.49 C 1013.15 643.48 1014.13 648.57 1010.77 651.66 C 1006.54 656.00 1002.11 660.51 996.64 663.21 C 987.68 663.91 980.27 655.08 971.18 657.42 C 967.71 658.88 962.77 658.92 960.89 662.72 C 956.17 671.65 953.10 681.40 947.94 690.12 C 944.07 684.64 939.79 679.48 935.75 674.14 C 931.07 674.09 926.47 674.09 921.83 674.08 C 919.66 667.21 916.77 660.45 912.70 654.51 C 905.77 650.53 897.46 648.23 891.72 642.35 C 889.49 639.23 889.00 635.29 887.90 631.71 C 892.94 627.40 898.24 623.42 903.58 619.50 C 907.18 616.96 908.73 612.61 911.93 609.71 C 916.57 606.04 922.80 606.02 928.39 605.07 C 928.06 594.96 925.06 584.64 927.98 574.67 C 930.87 562.22 943.71 552.71 956.44 553.84 C 964.27 556.24 969.53 563.28 976.65 567.04 C 980.56 568.29 984.32 565.45 987.31 563.27 C 989.91 561.50 991.53 557.99 989.95 555.02 C 985.67 546.45 977.19 540.59 973.62 531.59 C 971.58 520.55 983.33 515.17 988.01 506.84 C 989.65 504.89 989.63 502.14 987.95 500.22 C 979.81 488.67 965.65 483.92 956.53 473.38 C 954.21 470.65 955.54 466.87 955.67 463.70 C 963.95 465.48 971.66 468.98 978.85 473.42 C 983.38 469.10 987.82 464.63 992.91 460.95 C 998.51 456.62 1005.11 453.95 1011.20 450.43 M 981.16 600.20 C 981.23 602.14 981.33 604.09 981.45 606.04 C 982.61 604.99 983.83 603.98 984.85 602.78 C 983.64 601.87 982.39 601.03 981.16 600.20 Z" />
</g>
<g id="#bf3f00ff">
<path fill="#bf3f00" fill-opacity="0" d=" M 707.86 459.82 C 717.80 466.89 727.08 474.92 737.58 481.19 C 742.81 484.10 749.32 486.14 751.67 492.20 C 755.07 501.41 756.83 511.16 759.79 520.53 C 770.34 520.58 780.74 518.24 791.31 518.87 C 798.13 527.90 794.80 539.53 794.51 549.80 C 794.59 562.16 793.54 574.48 792.86 586.82 C 787.10 590.40 778.95 592.23 776.06 599.03 C 772.30 607.19 768.73 615.81 762.36 622.35 C 758.42 626.04 754.05 629.23 749.81 632.54 C 745.91 631.23 742.02 629.90 738.11 628.66 C 732.88 634.96 727.95 641.50 723.14 648.13 C 716.61 657.89 706.30 663.95 697.68 671.61 C 691.88 667.35 686.24 662.86 680.79 658.18 C 676.17 653.95 673.35 648.19 670.19 642.91 C 667.93 637.42 667.58 631.31 665.00 625.96 C 661.33 621.76 656.34 619.18 651.35 616.91 C 651.99 614.37 652.62 611.83 653.23 609.29 C 648.22 607.57 643.29 605.77 638.29 604.06 C 632.87 591.29 626.78 578.82 620.70 566.35 C 618.75 563.33 621.00 560.22 622.82 557.82 C 630.61 547.94 638.02 537.78 646.22 528.23 C 652.92 520.41 658.15 511.27 665.67 504.19 C 672.66 501.54 680.71 502.09 687.38 498.33 C 689.86 496.83 689.92 493.33 690.96 491.03 C 693.59 483.40 694.10 474.82 699.31 468.30 C 701.77 465.12 704.99 462.62 707.86 459.82 Z" />
</g>
<g id="#7f3f00fe">
<path fill="#7f3f00" fill-opacity="0" d=" M 1133.03 495.13 C 1136.16 491.20 1140.89 487.12 1146.32 488.66 C 1156.86 491.50 1163.19 501.17 1170.31 508.70 C 1177.74 517.97 1187.99 524.30 1195.90 533.09 C 1200.76 538.32 1205.36 543.77 1209.95 549.24 C 1202.32 558.75 1193.33 567.10 1185.12 576.11 C 1178.98 583.15 1174.37 592.32 1175.28 601.90 C 1175.86 614.99 1174.72 628.17 1176.26 641.21 C 1176.78 646.78 1179.99 651.61 1180.95 657.07 C 1181.57 659.76 1179.76 662.13 1178.45 664.30 C 1172.38 673.19 1166.50 682.24 1159.82 690.69 C 1157.09 694.01 1152.94 695.63 1148.74 695.89 C 1149.12 700.99 1149.94 706.05 1150.79 711.10 C 1139.93 705.64 1129.35 699.26 1117.35 696.62 C 1107.75 694.33 1098.40 691.23 1089.19 687.74 C 1082.46 685.11 1075.01 685.13 1068.37 682.33 C 1061.58 676.99 1057.75 669.04 1053.41 661.78 C 1049.18 653.61 1043.19 646.54 1038.24 638.84 C 1036.68 635.03 1035.69 631.02 1034.66 627.05 C 1038.75 625.59 1043.02 624.51 1046.84 622.39 C 1048.85 621.27 1048.68 618.62 1048.90 616.64 C 1048.96 597.61 1046.85 578.28 1050.55 559.44 C 1051.75 553.27 1058.38 549.52 1064.18 548.48 C 1070.74 547.79 1077.50 546.95 1083.16 543.20 C 1090.21 539.98 1090.05 531.63 1092.48 525.39 C 1098.45 523.24 1100.92 517.39 1103.31 511.96 C 1109.47 505.44 1119.85 507.71 1127.01 502.96 C 1129.43 500.69 1131.00 497.72 1133.03 495.13 M 1129.75 586.77 C 1129.76 588.22 1129.80 589.67 1129.86 591.13 C 1131.32 590.63 1132.79 590.12 1134.27 589.62 C 1132.76 588.65 1131.25 587.70 1129.75 586.77 Z" />
</g>
<g id="#3fbf7fff">
<path fill="#3fbf7f" fill-opacity="0" d=" M 802.35 505.86 C 810.49 509.54 818.85 513.06 828.05 512.64 C 836.10 512.99 844.21 512.82 852.23 513.95 C 856.63 516.11 858.91 520.93 860.75 525.21 C 863.09 531.57 858.81 538.48 861.44 544.74 C 865.86 551.87 871.44 558.36 874.82 566.10 C 877.84 574.98 877.61 584.63 876.49 593.85 C 875.99 601.43 873.73 609.65 877.17 616.93 C 878.91 623.01 883.80 627.21 887.90 631.71 C 889.00 635.29 889.49 639.23 891.72 642.35 C 897.46 648.23 905.77 650.53 912.70 654.51 C 916.77 660.45 919.66 667.21 921.83 674.08 C 923.51 679.67 921.71 685.37 920.50 690.84 C 905.88 691.44 891.32 692.99 876.76 694.38 C 867.93 695.05 860.17 688.74 851.30 689.96 C 839.45 692.10 829.83 683.10 819.07 679.92 C 816.40 678.95 813.08 678.35 810.75 680.43 C 808.77 682.37 808.30 685.32 807.86 687.95 C 806.54 701.31 807.07 714.77 806.74 728.18 C 800.83 729.11 795.00 730.90 788.96 730.69 C 785.54 729.57 782.28 728.05 778.96 726.69 C 779.62 720.59 781.86 714.84 785.64 710.02 C 775.45 699.00 764.38 688.82 753.48 678.51 C 746.96 672.35 742.35 664.56 737.25 657.26 C 743.20 651.11 748.87 644.70 754.36 638.14 C 752.84 636.27 751.32 634.40 749.81 632.54 C 754.05 629.23 758.42 626.04 762.36 622.35 C 768.73 615.81 772.30 607.19 776.06 599.03 C 778.95 592.23 787.10 590.40 792.86 586.82 C 793.54 574.48 794.59 562.16 794.51 549.80 C 794.80 539.53 798.13 527.90 791.31 518.87 C 795.02 514.55 798.69 510.21 802.35 505.86 Z" />
</g>
<g id="#bf3f7fff">
<path fill="#bf3f7f" fill-opacity="0" d=" M 598.30 530.39 C 599.54 529.08 601.66 531.26 600.19 532.41 C 598.90 533.74 596.85 531.58 598.30 530.39 Z" />
</g>
<g id="#00007ffe">
<path fill="#00007f" fill-opacity="0" d=" M 1256.29 570.80 C 1257.87 571.12 1259.46 571.45 1261.05 571.81 C 1260.59 572.88 1260.15 573.96 1259.72 575.05 C 1258.59 574.66 1257.47 574.27 1256.37 573.89 C 1256.34 572.85 1256.30 571.82 1256.29 570.80 Z" />
</g>
<g id="#00bf00ff">
<path fill="#00bf00" fill-opacity="0" d=" M 1129.75 586.77 C 1131.25 587.70 1132.76 588.65 1134.27 589.62 C 1132.79 590.12 1131.32 590.63 1129.86 591.13 C 1129.80 589.67 1129.76 588.22 1129.75 586.77 Z" />
</g>
<g id="#7f0000ff">
<path fill="#7f0000" fill-opacity="0" d=" M 581.75 595.23 C 586.29 594.44 590.94 595.62 595.53 595.56 C 600.23 595.70 604.96 594.02 609.62 595.33 C 619.29 597.84 628.77 601.03 638.29 604.06 C 643.29 605.77 648.22 607.57 653.23 609.29 C 652.62 611.83 651.99 614.37 651.35 616.91 C 656.34 619.18 661.33 621.76 665.00 625.96 C 667.58 631.31 667.93 637.42 670.19 642.91 C 659.94 640.64 649.67 637.62 639.05 638.19 C 634.46 639.57 630.26 642.01 626.01 644.20 C 629.04 647.53 631.89 650.99 634.78 654.44 C 624.20 662.53 613.63 670.61 602.99 678.61 C 599.40 676.96 595.90 674.13 591.82 674.20 C 581.25 677.93 574.04 687.32 564.05 692.08 C 559.28 694.44 554.01 692.74 549.14 691.77 C 547.43 687.34 545.23 683.05 544.45 678.33 C 543.16 671.67 543.68 664.48 540.53 658.28 C 537.23 652.81 533.22 647.80 530.24 642.15 C 528.87 638.40 529.87 634.22 530.17 630.40 C 531.28 623.34 532.80 616.34 534.83 609.49 C 540.10 609.38 546.39 609.56 550.37 605.42 C 552.75 603.67 554.80 600.42 558.12 600.71 C 562.63 601.28 566.91 602.99 571.35 603.95 C 574.58 600.82 577.52 597.03 581.75 595.23 Z" />
</g>
<g id="#6f00bfff">
<path fill="#6f00bf" fill-opacity="0" d=" M 1411.90 596.84 C 1411.61 595.83 1411.79 594.90 1412.42 594.06 C 1413.70 595.31 1413.53 596.23 1411.90 596.84 Z" />
</g>
<g id="#7f3f7ffe">
<path fill="#7f3f7f" fill-opacity="0" d=" M 506.08 596.62 C 509.93 596.64 513.91 596.38 517.65 597.50 C 523.92 600.64 529.40 605.10 534.83 609.49 C 532.80 616.34 531.28 623.34 530.17 630.40 C 529.87 634.22 528.87 638.40 530.24 642.15 C 533.22 647.80 537.23 652.81 540.53 658.28 C 543.68 664.48 543.16 671.67 544.45 678.33 C 545.23 683.05 547.43 687.34 549.14 691.77 C 544.12 699.56 538.36 706.91 533.99 715.10 C 530.43 721.52 530.72 729.17 527.91 735.85 C 525.33 742.26 521.84 748.29 517.74 753.85 C 510.71 762.08 503.23 769.93 495.79 777.79 C 491.80 782.06 486.24 786.21 487.17 792.92 C 485.98 806.14 496.27 818.06 492.68 831.22 C 492.00 834.01 490.97 836.70 489.96 839.40 C 481.78 834.77 472.44 832.11 465.44 825.54 C 458.17 819.40 448.94 816.32 441.42 810.55 C 438.11 807.55 436.66 803.09 435.35 798.96 C 433.61 788.59 425.67 780.55 424.52 770.02 C 425.33 759.05 434.64 751.90 440.01 743.06 C 441.59 737.51 437.90 732.58 436.29 727.50 C 433.84 721.65 432.82 715.34 431.72 709.14 C 438.98 704.22 446.62 699.86 453.71 694.69 C 460.10 690.36 462.23 681.70 461.29 674.39 C 460.44 668.79 458.52 663.04 459.83 657.34 C 462.18 655.00 465.40 653.80 468.26 652.20 C 475.52 648.60 481.69 643.25 488.16 638.45 C 486.84 632.42 484.75 626.61 483.09 620.68 C 489.15 617.92 495.68 615.27 499.97 609.94 C 503.35 606.29 503.95 601.22 505.32 596.63 L 506.08 596.62 M 474.80 743.24 C 474.03 750.26 473.62 757.32 473.07 764.37 C 468.57 764.19 464.08 764.50 459.64 765.16 C 464.66 768.72 469.20 774.27 475.74 774.56 C 483.66 773.96 488.93 767.21 496.00 764.40 C 497.08 758.49 496.41 752.37 494.20 746.79 C 487.98 744.62 481.19 744.77 474.80 743.24 Z" />
</g>
<g id="#bf007fff">
<path fill="#bf007f" fill-opacity="0" d=" M 981.16 600.20 C 982.39 601.03 983.64 601.87 984.85 602.78 C 983.83 603.98 982.61 604.99 981.45 606.04 C 981.33 604.09 981.23 602.14 981.16 600.20 Z" />
</g>
<g id="#7633a5ff">
<path fill="#7633a5" fill-opacity="0" d=" M 1404.70 618.42 C 1405.45 617.35 1406.44 616.48 1407.60 615.84 C 1408.84 617.43 1406.13 619.82 1404.70 618.42 Z" />
</g>
<g id="#3f7f00ff">
<path fill="#3f7f00" fill-opacity="0" d=" M 738.11 628.66 C 742.02 629.90 745.91 631.23 749.81 632.54 C 751.32 634.40 752.84 636.27 754.36 638.14 C 748.87 644.70 743.20 651.11 737.25 657.26 C 742.35 664.56 746.96 672.35 753.48 678.51 C 764.38 688.82 775.45 699.00 785.64 710.02 C 781.86 714.84 779.62 720.59 778.96 726.69 C 782.28 728.05 785.54 729.57 788.96 730.69 C 789.58 741.40 792.01 752.00 791.35 762.77 C 790.00 770.13 786.60 776.92 784.17 783.97 C 787.26 787.06 790.22 790.34 793.61 793.12 C 790.82 798.58 788.09 804.07 785.49 809.62 C 773.76 809.68 760.94 816.15 750.75 806.91 C 746.61 808.59 742.20 809.94 738.60 812.68 C 735.66 815.97 733.73 819.98 731.80 823.89 C 726.15 824.70 720.53 825.88 714.83 826.08 C 710.83 825.33 707.35 822.89 703.45 821.80 C 700.54 823.56 697.60 828.20 693.83 826.18 C 684.65 821.31 674.83 817.05 667.23 809.77 C 663.85 806.80 659.72 804.82 655.94 802.48 C 654.70 798.10 654.86 791.24 649.05 790.11 C 641.34 788.57 633.32 789.44 625.75 787.17 C 621.58 785.91 617.85 783.59 613.98 781.68 C 612.17 780.78 610.34 779.93 608.51 779.10 C 608.66 771.53 607.89 763.66 609.99 756.29 C 613.78 754.09 618.12 753.18 622.30 752.03 C 628.10 750.69 631.35 745.23 635.07 741.06 C 641.13 732.84 648.16 725.42 654.33 717.30 C 660.32 709.59 669.36 705.04 675.36 697.36 C 682.66 688.66 689.72 679.72 697.68 671.61 C 706.30 663.95 716.61 657.89 723.14 648.13 C 727.95 641.50 732.88 634.96 738.11 628.66 Z" />
</g>
<g id="#007f00ff">
<path fill="#007f00" fill-opacity="0" d=" M 626.01 644.20 C 630.26 642.01 634.46 639.57 639.05 638.19 C 649.67 637.62 659.94 640.64 670.19 642.91 C 673.35 648.19 676.17 653.95 680.79 658.18 C 686.24 662.86 691.88 667.35 697.68 671.61 C 689.72 679.72 682.66 688.66 675.36 697.36 C 669.36 705.04 660.32 709.59 654.33 717.30 C 648.16 725.42 641.13 732.84 635.07 741.06 C 631.35 745.23 628.10 750.69 622.30 752.03 C 618.12 753.18 613.78 754.09 609.99 756.29 C 607.89 763.66 608.66 771.53 608.51 779.10 C 610.34 779.93 612.17 780.78 613.98 781.68 C 612.43 783.10 610.93 784.57 609.46 786.08 C 603.58 783.22 597.97 779.79 592.03 777.07 C 584.77 774.50 576.78 775.11 569.26 775.84 C 564.04 777.11 559.68 780.52 555.24 783.39 C 552.02 779.51 549.06 775.24 544.88 772.32 C 540.52 770.05 535.24 769.84 531.22 766.84 C 526.13 763.17 521.94 758.45 517.74 753.85 C 521.84 748.29 525.33 742.26 527.91 735.85 C 530.72 729.17 530.43 721.52 533.99 715.10 C 538.36 706.91 544.12 699.56 549.14 691.77 C 554.01 692.74 559.28 694.44 564.05 692.08 C 574.04 687.32 581.25 677.93 591.82 674.20 C 595.90 674.13 599.40 676.96 602.99 678.61 C 613.63 670.61 624.20 662.53 634.78 654.44 C 631.89 650.99 629.04 647.53 626.01 644.20 Z" />
</g>
<g id="#7fbf00ff">
<path fill="#7fbf00" fill-opacity="0" d=" M 1013.91 639.49 C 1022.02 639.59 1030.13 639.21 1038.24 638.84 C 1043.19 646.54 1049.18 653.61 1053.41 661.78 C 1057.75 669.04 1061.58 676.99 1068.37 682.33 C 1075.01 685.13 1082.46 685.11 1089.19 687.74 C 1098.40 691.23 1107.75 694.33 1117.35 696.62 C 1129.35 699.26 1139.93 705.64 1150.79 711.10 C 1151.21 716.02 1152.68 720.89 1152.63 725.87 C 1152.34 731.27 1148.26 735.32 1146.52 740.20 C 1146.32 743.71 1147.88 747.08 1147.86 750.60 C 1145.59 755.91 1140.79 759.64 1137.87 764.55 C 1136.39 769.99 1139.16 777.15 1134.56 781.54 C 1128.52 787.79 1123.37 795.04 1116.59 800.49 C 1109.43 801.34 1102.27 798.55 1095.10 799.17 C 1093.15 799.49 1091.96 801.44 1091.25 803.12 C 1087.95 812.15 1087.72 822.63 1081.33 830.29 C 1075.16 838.03 1068.98 845.92 1061.54 852.47 C 1053.24 855.02 1042.15 852.34 1036.35 860.43 C 1033.10 865.57 1026.43 864.72 1021.43 866.69 C 1016.91 867.65 1014.71 872.14 1012.39 875.64 C 1007.97 875.52 1003.50 875.35 999.13 875.64 C 994.49 876.24 990.09 878.65 985.37 878.54 C 976.79 877.33 968.29 875.65 959.70 874.53 C 958.33 866.08 958.86 856.31 952.00 850.03 C 946.92 845.02 940.75 839.02 933.08 839.77 C 926.78 840.10 920.61 838.51 914.36 838.70 C 904.35 841.17 895.02 846.41 888.36 854.37 C 883.00 858.97 879.49 865.05 876.10 871.13 C 875.11 870.06 874.18 868.89 873.65 867.54 C 871.99 850.07 873.06 832.33 869.82 815.02 C 869.02 811.15 868.23 807.34 867.37 803.51 C 883.67 800.96 900.46 799.52 915.64 792.49 C 918.76 790.72 923.07 789.02 923.41 784.87 C 925.15 766.82 920.63 749.03 917.66 731.37 C 914.81 717.76 920.43 704.43 920.50 690.84 C 921.71 685.37 923.51 679.67 921.83 674.08 C 926.47 674.09 931.07 674.09 935.75 674.14 C 939.79 679.48 944.07 684.64 947.94 690.12 C 953.10 681.40 956.17 671.65 960.89 662.72 C 962.77 658.92 967.71 658.88 971.18 657.42 C 980.27 655.08 987.68 663.91 996.64 663.21 C 1002.11 660.51 1006.54 656.00 1010.77 651.66 C 1014.13 648.57 1013.15 643.48 1013.91 639.49 Z" />
</g>
<g id="#3f3f00ff">
<path fill="#3f3f00" fill-opacity="0" d=" M 810.75 680.43 C 813.08 678.35 816.40 678.95 819.07 679.92 C 829.83 683.10 839.45 692.10 851.30 689.96 C 860.17 688.74 867.93 695.05 876.76 694.38 C 891.32 692.99 905.88 691.44 920.50 690.84 C 920.43 704.43 914.81 717.76 917.66 731.37 C 920.63 749.03 925.15 766.82 923.41 784.87 C 923.07 789.02 918.76 790.72 915.64 792.49 C 900.46 799.52 883.67 800.96 867.37 803.51 C 868.23 807.34 869.02 811.15 869.82 815.02 C 863.59 819.08 861.02 826.44 859.75 833.44 C 859.42 844.50 864.34 854.96 864.83 865.95 C 862.90 873.46 858.43 880.46 852.40 885.34 C 841.26 890.37 828.53 888.42 817.42 884.48 C 811.63 881.52 806.64 877.22 801.08 873.88 C 796.51 871.27 795.26 865.72 792.87 861.42 C 797.60 857.33 802.42 853.19 806.19 848.17 C 808.27 843.02 806.53 837.87 802.60 834.36 C 798.71 830.62 798.67 824.83 799.73 819.88 C 801.42 812.22 803.93 804.76 805.39 797.05 C 801.42 795.87 797.26 795.12 793.61 793.12 C 790.22 790.34 787.26 787.06 784.17 783.97 C 786.60 776.92 790.00 770.13 791.35 762.77 C 792.01 752.00 789.58 741.40 788.96 730.69 C 795.00 730.90 800.83 729.11 806.74 728.18 C 807.07 714.77 806.54 701.31 807.86 687.95 C 808.30 685.32 808.77 682.37 810.75 680.43 Z" />
</g>
<g id="#00bf7fff">
<path fill="#00bf7f" fill-opacity="0" d=" M 474.80 743.24 C 481.19 744.77 487.98 744.62 494.20 746.79 C 496.41 752.37 497.08 758.49 496.00 764.40 C 488.93 767.21 483.66 773.96 475.74 774.56 C 469.20 774.27 464.66 768.72 459.64 765.16 C 464.08 764.50 468.57 764.19 473.07 764.37 C 473.62 757.32 474.03 750.26 474.80 743.24 Z" />
</g>
<g id="#003f7ffe">
<path fill="#003f7f" fill-opacity="0" d=" M 495.79 777.79 C 503.23 769.93 510.71 762.08 517.74 753.85 C 521.94 758.45 526.13 763.17 531.22 766.84 C 535.24 769.84 540.52 770.05 544.88 772.32 C 549.06 775.24 552.02 779.51 555.24 783.39 C 559.68 780.52 564.04 777.11 569.26 775.84 C 576.78 775.11 584.77 774.50 592.03 777.07 C 597.97 779.79 603.58 783.22 609.46 786.08 C 610.15 796.17 613.22 805.84 615.07 815.74 C 616.23 827.05 615.70 839.04 610.54 849.40 C 609.02 852.21 608.48 856.90 604.58 857.25 C 590.47 858.87 576.36 861.29 562.95 866.08 C 557.05 868.25 551.76 871.99 545.59 873.44 C 541.32 874.09 537.10 872.57 532.91 871.90 C 526.71 870.75 520.42 869.39 515.02 865.95 C 508.38 863.14 505.00 856.57 500.73 851.21 C 497.36 847.07 494.09 842.81 489.96 839.40 C 490.97 836.70 492.00 834.01 492.68 831.22 C 496.27 818.06 485.98 806.14 487.17 792.92 C 486.24 786.21 491.80 782.06 495.79 777.79 Z" />
</g>
<g id="#3f7f7fff">
<path fill="#3f7f7f" fill-opacity="0" d=" M 430.83 804.75 C 432.69 803.13 433.94 800.95 435.35 798.96 C 436.66 803.09 438.11 807.55 441.42 810.55 C 448.94 816.32 458.17 819.40 465.44 825.54 C 472.44 832.11 481.78 834.77 489.96 839.40 C 494.09 842.81 497.36 847.07 500.73 851.21 C 505.00 856.57 508.38 863.14 515.02 865.95 C 520.42 869.39 526.71 870.75 532.91 871.90 C 531.45 880.29 527.16 887.95 520.13 892.90 C 516.52 893.97 512.72 894.31 509.05 895.08 C 509.31 897.73 509.49 900.40 509.44 903.07 C 500.55 901.38 491.25 900.94 483.02 896.82 C 475.78 892.78 467.13 895.65 459.33 894.59 C 457.52 897.30 455.67 899.96 453.84 902.68 C 448.07 901.85 442.32 900.52 436.46 900.67 C 433.11 901.98 430.68 904.85 427.42 906.33 C 419.09 907.06 410.83 905.49 402.57 904.70 C 399.18 903.84 394.18 904.62 391.96 901.12 C 389.12 896.74 385.44 892.71 383.13 888.08 C 383.90 881.29 384.90 874.31 381.44 868.01 C 382.99 867.55 384.54 867.08 386.11 866.65 C 386.01 857.80 385.06 849.00 384.06 840.23 C 387.37 838.70 390.69 837.19 394.01 835.69 C 393.72 830.78 393.50 825.95 393.09 821.08 C 397.63 820.02 402.18 818.99 406.72 817.94 C 406.41 812.95 406.47 807.95 406.20 802.96 C 409.39 803.79 413.08 806.70 416.18 804.17 C 420.63 800.57 425.94 804.68 430.83 804.75 M 403.45 847.53 C 402.91 848.98 402.37 850.45 401.79 851.90 C 403.34 851.39 404.90 850.92 406.47 850.51 C 405.44 849.52 404.44 848.53 403.45 847.53 Z" />
</g>
<g id="#bf7f7fff">
<path fill="#bf7f7f" fill-opacity="0" d=" M 403.45 847.53 C 404.44 848.53 405.44 849.52 406.47 850.51 C 404.90 850.92 403.34 851.39 401.79 851.90 C 402.37 850.45 402.91 848.98 403.45 847.53 Z" />
</g>
<g id="#1f5f1fff">
<path fill="#1f5f1f" fill-opacity="0" d=" M 0.00 1079.00 C 15.33 1078.99 30.66 1078.99 46.00 1079.00 L 46.01 1080.00 L 0.00 1080.00 L 0.00 1079.00 Z" />
</g>
<g id="#9f1f7fff">
<path fill="#9f1f7f" fill-opacity="0" d=" M 46.00 1079.00 C 52.00 1078.98 58.00 1078.97 64.00 1079.00 L 64.01 1080.00 L 46.01 1080.00 L 46.00 1079.00 Z" />
</g>
<g id="#7f1f00ff">
<path fill="#7f1f00" fill-opacity="0" d=" M 64.00 1079.00 C 115.25 1079.55 166.54 1077.83 217.76 1079.97 L 218.67 1080.00 L 64.01 1080.00 L 64.00 1079.00 Z" />
</g>
<g id="#bf9fbfff">
<path fill="#bf9fbf" fill-opacity="0" d=" M 217.76 1079.97 C 245.73 1078.41 273.79 1078.47 301.76 1079.97 L 302.66 1080.00 L 218.67 1080.00 L 217.76 1079.97 Z" />
</g>
<g id="#9fbf00ff">
<path fill="#9fbf00" fill-opacity="0" d=" M 301.76 1079.97 C 318.05 1078.66 334.42 1078.71 350.72 1079.96 L 351.66 1080.00 L 302.66 1080.00 L 301.76 1079.97 Z" />
</g>
<g id="#1f0000ff">
<path fill="#1f0000" fill-opacity="0" d=" M 350.72 1079.96 C 386.10 1077.82 421.58 1079.58 457.00 1078.92 L 457.01 1080.00 L 351.66 1080.00 L 350.72 1079.96 Z" />
</g>
<g id="#5f007ffe">
<path fill="#5f007f" fill-opacity="0" d=" M 457.00 1078.92 C 466.24 1079.06 475.48 1079.49 484.73 1079.97 L 485.66 1080.00 L 457.01 1080.00 L 457.00 1078.92 Z" />
</g>
<g id="#9f7f00ff">
<path fill="#9f7f00" fill-opacity="0" d=" M 484.73 1079.97 C 497.80 1079.08 510.90 1078.78 524.00 1078.94 C 549.25 1079.22 574.53 1078.29 599.76 1079.96 L 600.67 1080.00 L 485.66 1080.00 L 484.73 1079.97 Z" />
</g>
<g id="#5f7f00ff">
<path fill="#5f7f00" fill-opacity="0" d=" M 599.76 1079.96 C 636.04 1078.38 672.44 1078.42 708.73 1079.96 L 709.66 1080.00 L 600.67 1080.00 L 599.76 1079.96 Z" />
</g>
<g id="#bfbfbfff">
<path fill="#bfbfbf" fill-opacity="0" d=" M 708.73 1079.96 C 742.11 1077.94 775.58 1079.44 809.00 1079.00 L 809.00 1080.00 L 709.66 1080.00 L 708.73 1079.96 Z" />
</g>
<g id="#ef00bfff">
<path fill="#ef00bf" fill-opacity="0" d=" M 809.00 1079.00 C 952.67 1079.01 1096.33 1078.99 1240.00 1079.01 C 1263.58 1079.08 1287.19 1078.41 1310.76 1079.96 L 1311.67 1080.00 L 809.00 1080.00 L 809.00 1079.00 Z" />
</g>
<g id="#6f003fff">
<path fill="#6f003f" fill-opacity="0" d=" M 1310.76 1079.96 C 1320.15 1079.41 1329.56 1079.00 1339.00 1078.94 C 1532.66 1079.07 1726.33 1078.96 1920.00 1079.00 L 1920.00 1080.00 L 1311.67 1080.00 L 1310.76 1079.96 Z" />
</g>
</svg>
