<?xml version="1.0" encoding="UTF-8" ?>
<!DOCTYPE svg PUBLIC "-//W3C//DTD SVG 1.1//EN" "http://www.w3.org/Graphics/SVG/1.1/DTD/svg11.dtd">
<svg width="1920pt" height="1080pt" viewBox="0 0 1920 1080" version="1.1" xmlns="http://www.w3.org/2000/svg">
<g id="#bf1f5fff" target="1747">
<path fill="#bf1f5f" fill-opacity="0" d=" M 1109.31 166.40 C 1112.37 170.12 1112.89 175.01 1112.90 179.66 C 1113.12 183.53 1116.19 186.30 1117.30 189.85 C 1118.00 201.92 1113.52 213.71 1114.87 225.78 C 1110.46 227.02 1106.09 228.41 1101.52 228.86 C 1098.18 232.36 1094.09 235.18 1091.38 239.26 C 1087.42 246.22 1094.09 255.63 1087.93 261.73 C 1083.79 265.70 1086.77 271.75 1086.79 276.53 C 1088.46 282.04 1084.44 286.46 1081.53 290.53 C 1075.70 286.74 1070.08 282.70 1064.79 278.20 C 1056.99 271.92 1046.25 273.57 1037.15 270.79 C 1028.72 268.05 1018.47 269.80 1012.33 276.47 C 1006.66 282.78 1000.67 289.09 993.16 293.22 C 988.06 296.10 982.29 297.37 976.71 298.94 C 979.37 295.82 982.94 293.64 985.53 290.47 C 987.52 287.89 986.71 284.32 985.35 281.65 C 981.46 281.04 977.63 282.57 973.77 282.27 C 969.49 280.90 965.57 278.55 961.15 277.56 C 960.77 276.53 960.40 275.52 960.05 274.50 C 967.68 269.79 974.70 264.19 982.30 259.43 C 971.59 258.20 960.15 257.40 951.17 250.73 C 955.61 246.69 961.29 243.64 964.43 238.40 C 968.32 232.95 961.78 229.77 959.58 225.70 C 957.80 221.26 957.03 216.53 956.45 211.81 C 960.54 210.72 964.73 209.60 968.35 207.32 C 969.56 204.07 970.44 200.69 971.45 197.37 C 977.50 198.54 983.62 198.50 989.77 198.32 C 989.77 200.94 989.83 203.57 989.96 206.19 C 997.16 203.92 1003.43 199.24 1010.71 197.36 C 1016.08 199.94 1014.47 207.00 1015.78 211.92 C 1023.89 208.40 1033.51 208.40 1040.60 202.66 C 1048.03 196.95 1056.02 191.89 1064.99 188.93 C 1074.29 185.69 1082.23 179.85 1090.41 174.54 C 1093.75 176.50 1097.78 180.11 1101.82 177.88 C 1106.38 175.80 1108.68 171.12 1109.31 166.40 Z" />
</g>
<g id="#00df9fff" target="1757">
<path fill="#00df9f" fill-opacity="0" d=" M 875.83 198.16 C 883.71 197.55 888.55 203.83 892.26 209.71 C 897.26 219.10 899.13 229.98 905.44 238.70 C 908.60 244.03 913.16 248.59 915.42 254.41 C 915.78 259.54 913.04 264.40 911.96 269.33 C 908.43 279.56 909.62 290.47 908.90 301.06 C 903.33 306.44 895.19 306.86 888.01 308.35 C 881.37 309.52 874.83 311.61 868.06 311.74 C 864.46 310.82 861.16 309.19 857.81 307.72 C 859.58 305.31 861.63 302.99 862.62 300.11 C 859.01 293.67 849.55 292.63 847.27 285.12 C 846.57 279.78 850.30 274.32 847.99 269.14 C 846.15 264.58 842.93 259.45 837.60 258.80 C 831.88 258.26 826.05 258.88 820.45 257.37 C 816.40 256.19 812.18 256.32 808.03 256.56 C 807.82 253.26 806.68 249.64 808.34 246.54 C 815.26 243.67 823.38 244.86 829.90 240.86 C 832.45 239.32 831.43 235.31 832.90 233.25 C 838.76 230.47 843.88 226.27 850.04 224.09 C 855.64 222.60 859.47 217.82 864.91 216.01 C 867.45 214.90 870.60 214.71 872.63 212.66 C 874.97 208.20 874.70 202.97 875.83 198.16 Z" />
</g>
<g id="#005f5fff" target="1743">
<path fill="#005f5f" fill-opacity="0" d=" M 910.23 205.09 C 917.54 199.42 927.37 201.25 936.00 200.74 C 936.37 204.58 936.86 208.41 937.13 212.26 C 943.57 211.90 949.99 211.11 956.45 211.81 C 957.03 216.53 957.80 221.26 959.58 225.70 C 961.78 229.77 968.32 232.95 964.43 238.40 C 961.29 243.64 955.61 246.69 951.17 250.73 C 960.15 257.40 971.59 258.20 982.30 259.43 C 974.70 264.19 967.68 269.79 960.05 274.50 C 960.40 275.52 960.77 276.53 961.15 277.56 C 965.57 278.55 969.49 280.90 973.77 282.27 C 977.63 282.57 981.46 281.04 985.35 281.65 C 986.71 284.32 987.52 287.89 985.53 290.47 C 982.94 293.64 979.37 295.82 976.71 298.94 C 974.61 301.65 973.17 304.86 972.82 308.29 C 971.96 321.52 966.56 334.28 959.00 345.01 C 954.17 347.70 948.11 346.24 942.79 346.86 C 938.89 343.13 937.69 337.66 934.39 333.55 C 930.32 330.04 924.41 329.91 920.05 326.86 C 915.74 323.06 915.64 316.79 914.66 311.56 C 914.08 307.48 911.15 304.32 908.90 301.06 C 909.62 290.47 908.43 279.56 911.96 269.33 C 913.04 264.40 915.78 259.54 915.42 254.41 C 913.16 248.59 908.60 244.03 905.44 238.70 C 899.13 229.98 897.26 219.10 892.26 209.71 C 898.47 209.53 904.92 208.55 910.23 205.09 Z" />
</g>
<g id="#3f5f1fff" target="1754">
<path fill="#3f5f1f" fill-opacity="0" d=" M 1101.52 228.86 C 1106.09 228.41 1110.46 227.02 1114.87 225.78 C 1116.14 225.14 1117.42 225.60 1118.32 226.64 C 1121.06 229.49 1123.05 232.96 1125.28 236.21 C 1130.38 236.39 1135.46 235.83 1140.53 235.36 C 1142.72 238.05 1143.64 242.22 1146.73 244.10 C 1151.30 245.20 1156.08 244.85 1160.77 245.12 C 1161.73 251.11 1163.15 257.83 1168.68 261.32 C 1174.15 266.35 1184.10 269.72 1183.14 278.64 C 1181.96 286.61 1186.56 293.79 1191.13 299.86 C 1193.95 303.93 1199.36 304.01 1203.23 306.58 C 1204.47 323.62 1199.23 340.32 1195.92 356.86 C 1190.91 359.00 1185.97 361.27 1180.81 363.01 C 1183.42 353.15 1184.59 343.00 1186.55 333.01 C 1188.47 325.03 1186.84 315.26 1180.30 309.82 C 1175.48 307.61 1170.01 306.72 1165.95 302.99 C 1163.53 304.87 1160.85 306.68 1159.44 309.50 C 1158.81 315.10 1162.42 319.61 1164.42 324.49 C 1153.33 324.18 1143.13 319.30 1132.16 318.13 C 1125.53 317.12 1123.31 309.18 1117.23 307.11 C 1112.71 306.06 1108.21 305.42 1103.71 304.54 C 1104.86 300.93 1107.65 294.22 1102.14 292.90 C 1095.04 292.20 1088.23 295.58 1081.17 296.12 C 1081.32 294.25 1081.43 292.39 1081.53 290.53 C 1084.44 286.46 1088.46 282.04 1086.79 276.53 C 1086.77 271.75 1083.79 265.70 1087.93 261.73 C 1094.09 255.63 1087.42 246.22 1091.38 239.26 C 1094.09 235.18 1098.18 232.36 1101.52 228.86 Z" />
</g>
<g id="#7fdf9fff" target="1758">
<path fill="#7fdf9f" fill-opacity="0" d=" M 808.03 256.56 C 812.18 256.32 816.40 256.19 820.45 257.37 C 826.05 258.88 831.88 258.26 837.60 258.80 C 842.93 259.45 846.15 264.58 847.99 269.14 C 850.30 274.32 846.57 279.78 847.27 285.12 C 849.55 292.63 859.01 293.67 862.62 300.11 C 861.63 302.99 859.58 305.31 857.81 307.72 C 853.20 305.75 846.16 303.19 842.78 308.34 C 840.27 313.19 837.90 318.12 834.64 322.54 C 834.47 324.95 834.11 329.77 833.93 332.18 C 829.56 332.04 824.90 331.30 820.77 333.02 C 817.69 335.86 817.96 340.73 816.50 344.48 C 810.83 339.06 805.06 333.16 797.44 330.62 C 791.98 328.24 787.68 333.04 782.51 333.36 C 775.42 334.41 768.90 330.73 761.89 330.60 C 755.85 330.23 747.46 329.42 745.65 322.29 C 742.88 316.52 748.76 313.39 750.89 309.02 C 755.29 302.32 749.81 295.13 749.12 288.33 C 748.11 282.56 751.25 277.50 753.89 272.71 C 751.90 270.96 749.94 269.19 747.78 267.67 C 758.77 263.77 769.64 258.81 781.34 257.42 C 790.24 257.60 799.13 257.13 808.03 256.56 Z" />
</g>
<g id="#005f9fff" target="1756">
<path fill="#005f9f" fill-opacity="0" d=" M 723.00 270.04 C 730.49 266.03 739.68 265.15 747.78 267.67 C 749.94 269.19 751.90 270.96 753.89 272.71 C 751.25 277.50 748.11 282.56 749.12 288.33 C 749.81 295.13 755.29 302.32 750.89 309.02 C 748.76 313.39 742.88 316.52 745.65 322.29 C 747.46 329.42 755.85 330.23 761.89 330.60 C 768.90 330.73 775.42 334.41 782.51 333.36 C 787.68 333.04 791.98 328.24 797.44 330.62 C 805.06 333.16 810.83 339.06 816.50 344.48 C 816.85 344.82 817.55 345.51 817.89 345.86 C 812.99 347.34 808.07 348.85 803.37 350.88 C 799.71 353.25 797.46 357.21 793.96 359.76 C 790.42 358.09 787.79 355.08 785.14 352.30 C 773.83 354.72 762.63 357.58 751.57 360.97 C 750.42 366.25 751.92 373.88 746.65 377.38 C 741.00 379.44 735.12 380.85 729.50 383.01 C 729.62 393.55 724.37 403.76 727.93 414.28 C 722.37 414.72 716.77 414.83 711.22 415.06 C 709.03 403.80 705.96 392.72 704.43 381.34 C 704.14 378.98 704.00 375.78 706.49 374.53 C 709.57 373.02 713.06 372.44 716.36 371.53 C 713.05 366.78 708.88 362.33 708.57 356.19 C 706.72 346.70 704.64 337.24 703.34 327.66 C 703.37 312.23 698.94 297.27 696.09 282.22 C 705.24 278.57 714.24 274.56 723.00 270.04 Z" />
</g>
<g id="#7fdf5fff" target="1755">
<path fill="#7fdf5f" fill-opacity="0" d=" M 1012.33 276.47 C 1018.47 269.80 1028.72 268.05 1037.15 270.79 C 1046.25 273.57 1056.99 271.92 1064.79 278.20 C 1070.08 282.70 1075.70 286.74 1081.53 290.53 C 1081.43 292.39 1081.32 294.25 1081.17 296.12 C 1079.63 301.92 1074.58 305.66 1070.36 309.49 C 1066.51 312.15 1066.71 317.38 1064.84 321.18 C 1062.71 323.41 1059.62 324.40 1057.41 326.53 C 1056.20 331.16 1059.35 336.32 1056.87 340.68 C 1052.25 342.14 1047.23 341.03 1042.64 342.60 C 1035.45 344.93 1028.72 348.50 1021.44 350.59 C 1012.01 353.39 1006.19 363.01 996.01 364.14 C 982.94 367.02 971.13 373.54 958.38 377.39 C 955.56 376.04 952.55 375.18 949.57 374.30 C 947.09 377.20 944.71 380.23 941.99 382.89 C 938.94 385.17 935.14 386.09 931.87 388.00 C 935.15 383.10 938.54 377.85 938.63 371.76 C 938.89 363.25 942.93 355.41 942.79 346.86 C 948.11 346.24 954.17 347.70 959.00 345.01 C 966.56 334.28 971.96 321.52 972.82 308.29 C 973.17 304.86 974.61 301.65 976.71 298.94 C 982.29 297.37 988.06 296.10 993.16 293.22 C 1000.67 289.09 1006.66 282.78 1012.33 276.47 Z" />
</g>
<g id="#bfdf1fff" target="1752">
<path fill="#bfdf1f" fill-opacity="0" d=" M 1081.17 296.12 C 1088.23 295.58 1095.04 292.20 1102.14 292.90 C 1107.65 294.22 1104.86 300.93 1103.71 304.54 C 1108.21 305.42 1112.71 306.06 1117.23 307.11 C 1123.31 309.18 1125.53 317.12 1132.16 318.13 C 1143.13 319.30 1153.33 324.18 1164.42 324.49 C 1162.42 319.61 1158.81 315.10 1159.44 309.50 C 1160.85 306.68 1163.53 304.87 1165.95 302.99 C 1170.01 306.72 1175.48 307.61 1180.30 309.82 C 1186.84 315.26 1188.47 325.03 1186.55 333.01 C 1184.59 343.00 1183.42 353.15 1180.81 363.01 C 1175.87 374.81 1161.62 373.28 1151.32 376.46 C 1143.88 380.62 1140.06 388.59 1135.01 395.06 C 1129.32 402.08 1119.94 407.37 1119.14 417.21 C 1119.21 423.80 1118.84 430.80 1122.29 436.74 C 1124.77 440.46 1128.58 443.10 1131.05 446.86 C 1132.43 448.98 1133.21 451.41 1134.59 453.54 C 1137.92 457.52 1144.93 457.87 1146.41 463.48 C 1147.59 472.71 1144.81 481.77 1143.79 490.86 C 1142.36 497.61 1142.47 504.98 1139.06 511.16 C 1136.27 513.59 1132.57 514.77 1129.23 516.30 C 1128.83 511.51 1128.44 506.77 1128.01 502.01 C 1124.78 501.52 1121.28 501.33 1118.51 499.43 C 1116.40 497.43 1116.10 494.34 1116.10 491.60 C 1116.25 484.41 1117.48 476.74 1113.83 470.16 C 1111.14 467.29 1106.97 466.58 1103.36 465.53 C 1095.43 463.27 1086.89 468.97 1079.36 464.46 C 1077.43 457.71 1077.02 448.49 1068.93 446.20 C 1063.65 443.12 1057.37 443.40 1051.77 441.39 C 1044.21 437.80 1042.53 427.44 1034.34 424.77 C 1029.38 423.81 1024.40 425.75 1019.43 425.84 C 1012.90 426.71 1007.03 423.20 1001.21 420.90 C 993.93 417.55 986.18 415.34 978.81 412.22 C 974.90 410.54 971.13 407.21 970.76 402.74 C 971.16 398.37 973.93 394.58 974.50 390.25 C 974.01 387.60 971.50 386.08 969.48 384.63 C 965.73 382.28 962.11 379.76 958.38 377.39 C 971.13 373.54 982.94 367.02 996.01 364.14 C 1006.19 363.01 1012.01 353.39 1021.44 350.59 C 1028.72 348.50 1035.45 344.93 1042.64 342.60 C 1047.23 341.03 1052.25 342.14 1056.87 340.68 C 1059.35 336.32 1056.20 331.16 1057.41 326.53 C 1059.62 324.40 1062.71 323.41 1064.84 321.18 C 1066.71 317.38 1066.51 312.15 1070.36 309.49 C 1074.58 305.66 1079.63 301.92 1081.17 296.12 Z" />
</g>
<g id="#3f9fdfff" target="1744">
<path fill="#3f9fdf" fill-opacity="0" d=" M 888.01 308.35 C 895.19 306.86 903.33 306.44 908.90 301.06 C 911.15 304.32 914.08 307.48 914.66 311.56 C 915.64 316.79 915.74 323.06 920.05 326.86 C 924.41 329.91 930.32 330.04 934.39 333.55 C 937.69 337.66 938.89 343.13 942.79 346.86 C 942.93 355.41 938.89 363.25 938.63 371.76 C 938.54 377.85 935.15 383.10 931.87 388.00 C 924.20 393.36 915.98 397.89 908.15 402.97 C 902.90 408.55 904.50 417.36 900.80 423.64 C 894.76 426.79 888.18 428.85 882.36 432.46 C 879.59 433.81 877.14 436.03 874.06 436.59 C 870.59 435.72 867.90 433.09 864.55 431.95 C 859.77 431.16 854.98 432.09 850.27 432.87 C 851.53 419.16 839.14 410.53 829.48 403.52 C 830.04 399.70 831.16 395.88 830.78 392.02 C 829.22 388.06 825.60 385.07 824.76 380.77 C 824.35 373.37 828.38 366.62 828.41 359.32 C 827.25 353.47 821.54 350.16 817.89 345.86 C 817.55 345.51 816.85 344.82 816.50 344.48 C 817.96 340.73 817.69 335.86 820.77 333.02 C 824.90 331.30 829.56 332.04 833.93 332.18 C 834.11 329.77 834.47 324.95 834.64 322.54 C 837.90 318.12 840.27 313.19 842.78 308.34 C 846.16 303.19 853.20 305.75 857.81 307.72 C 861.16 309.19 864.46 310.82 868.06 311.74 C 874.83 311.61 881.37 309.52 888.01 308.35 M 876.19 335.91 C 874.52 336.36 875.42 338.96 877.01 338.29 C 878.67 337.86 877.75 335.22 876.19 335.91 M 852.48 375.27 C 851.16 376.65 853.55 378.76 854.83 377.41 C 856.17 376.00 853.77 373.83 852.48 375.27 Z" />
</g>
<g id="#bf5f1fff" target="1753">
<path fill="#bf5f1f" fill-opacity="0" d=" M 803.37 350.88 C 808.07 348.85 812.99 347.34 817.89 345.86 C 821.54 350.16 827.25 353.47 828.41 359.32 C 828.38 366.62 824.35 373.37 824.76 380.77 C 825.60 385.07 829.22 388.06 830.78 392.02 C 831.16 395.88 830.04 399.70 829.48 403.52 C 839.14 410.53 851.53 419.16 850.27 432.87 L 850.38 433.85 C 842.42 434.25 833.71 437.89 826.25 433.35 C 824.45 435.71 822.58 438.01 820.64 440.26 C 816.67 436.60 813.31 431.73 808.00 430.00 C 800.06 428.55 792.10 430.70 784.19 431.31 C 773.24 432.83 762.13 433.00 751.12 432.31 C 747.63 431.89 742.40 430.37 742.83 425.94 C 743.86 421.48 746.50 417.59 748.28 413.41 C 741.21 412.33 734.40 415.14 729.84 420.47 C 728.98 418.48 728.30 416.41 727.93 414.28 C 724.37 403.76 729.62 393.55 729.50 383.01 C 735.12 380.85 741.00 379.44 746.65 377.38 C 751.92 373.88 750.42 366.25 751.57 360.97 C 762.63 357.58 773.83 354.72 785.14 352.30 C 787.79 355.08 790.42 358.09 793.96 359.76 C 797.46 357.21 799.71 353.25 803.37 350.88 Z" />
</g>
<g id="#3f1fdfff" target="1745">
<path fill="#3f1fdf" fill-opacity="0" d=" M 949.57 374.30 C 952.55 375.18 955.56 376.04 958.38 377.39 C 962.11 379.76 965.73 382.28 969.48 384.63 C 971.50 386.08 974.01 387.60 974.50 390.25 C 973.93 394.58 971.16 398.37 970.76 402.74 C 971.13 407.21 974.90 410.54 978.81 412.22 C 986.18 415.34 993.93 417.55 1001.21 420.90 C 1007.03 423.20 1012.90 426.71 1019.43 425.84 C 1024.40 425.75 1029.38 423.81 1034.34 424.77 C 1042.53 427.44 1044.21 437.80 1051.77 441.39 C 1057.37 443.40 1063.65 443.12 1068.93 446.20 C 1077.02 448.49 1077.43 457.71 1079.36 464.46 C 1070.76 467.05 1063.61 475.27 1054.08 473.38 C 1050.63 477.36 1046.77 481.03 1041.85 483.14 C 1039.37 480.23 1037.57 475.60 1032.86 476.13 C 1026.78 475.59 1022.81 481.25 1018.80 484.81 C 1014.12 489.80 1008.51 493.72 1002.18 496.30 C 997.00 498.08 994.28 502.95 991.42 507.22 C 985.13 507.43 978.86 506.58 972.59 506.72 C 966.96 506.83 961.41 508.54 955.78 507.58 C 952.04 506.22 948.86 503.11 944.65 503.26 C 939.36 503.39 936.08 508.33 931.46 510.16 C 928.41 510.75 925.37 509.51 922.37 509.12 C 921.10 505.12 920.13 500.34 916.27 497.99 C 910.76 495.23 903.92 495.08 899.25 490.73 C 896.45 487.03 896.09 482.20 895.09 477.81 C 894.15 473.42 891.88 469.30 891.75 464.76 C 892.33 461.07 894.76 458.00 896.44 454.75 C 894.44 452.11 892.40 449.50 890.36 446.90 C 881.31 453.75 870.82 458.55 859.63 460.58 C 855.02 452.27 851.05 443.44 850.38 433.85 L 850.27 432.87 C 854.98 432.09 859.77 431.16 864.55 431.95 C 867.90 433.09 870.59 435.72 874.06 436.59 C 877.14 436.03 879.59 433.81 882.36 432.46 C 888.18 428.85 894.76 426.79 900.80 423.64 C 904.50 417.36 902.90 408.55 908.15 402.97 C 915.98 397.89 924.20 393.36 931.87 388.00 C 935.14 386.09 938.94 385.17 941.99 382.89 C 944.71 380.23 947.09 377.20 949.57 374.30 Z" />
</g>
<g id="#bf9fdffe">
<path fill="#bf9fdf" fill-opacity="0" d=" M 852.48 375.27 C 853.77 373.83 856.17 376.00 854.83 377.41 C 853.55 378.76 851.16 376.65 852.48 375.27 Z" />
</g>
<g id="#bfdf9ffe" target="1750">
<path fill="#bfdf9f" fill-opacity="0" d=" M 729.84 420.47 C 734.40 415.14 741.21 412.33 748.28 413.41 C 746.50 417.59 743.86 421.48 742.83 425.94 C 742.40 430.37 747.63 431.89 751.12 432.31 C 762.13 433.00 773.24 432.83 784.19 431.31 C 792.10 430.70 800.06 428.55 808.00 430.00 C 813.31 431.73 816.67 436.60 820.64 440.26 C 822.58 438.01 824.45 435.71 826.25 433.35 C 833.71 437.89 842.42 434.25 850.38 433.85 C 851.05 443.44 855.02 452.27 859.63 460.58 C 853.32 470.48 840.59 473.75 829.73 476.03 C 821.01 478.39 811.51 476.20 803.16 480.07 C 798.95 481.94 794.58 483.37 790.21 484.76 C 783.54 486.84 779.04 493.23 771.96 494.33 C 766.33 495.27 760.97 497.62 756.70 501.44 C 753.03 504.35 750.21 509.40 744.75 508.69 C 742.00 505.92 740.36 502.01 736.85 500.06 C 733.66 498.43 730.56 501.18 728.01 502.80 L 727.53 503.14 C 726.49 496.66 724.50 490.28 724.71 483.66 C 724.85 480.34 727.58 478.13 729.90 476.15 C 727.82 463.69 724.33 451.42 723.00 438.86 C 725.69 432.89 728.80 427.06 729.84 420.47 Z" />
</g>
<g id="#bf9f5fff" target="1746">
<path fill="#bf9f5f" fill-opacity="0" d=" M 859.63 460.58 C 870.82 458.55 881.31 453.75 890.36 446.90 C 892.40 449.50 894.44 452.11 896.44 454.75 C 894.76 458.00 892.33 461.07 891.75 464.76 C 891.88 469.30 894.15 473.42 895.09 477.81 C 896.09 482.20 896.45 487.03 899.25 490.73 C 903.92 495.08 910.76 495.23 916.27 497.99 C 920.13 500.34 921.10 505.12 922.37 509.12 C 918.45 508.53 914.46 508.78 910.56 509.31 C 904.78 510.07 900.02 513.97 894.22 514.73 C 891.07 513.50 888.93 510.68 886.26 508.71 C 883.71 514.64 884.98 524.75 875.86 524.57 C 875.57 522.55 875.01 518.52 874.73 516.50 C 869.60 517.11 862.21 515.79 859.94 521.67 C 858.54 528.41 861.36 535.14 861.71 541.86 C 855.88 543.91 850.23 547.08 843.93 547.32 C 841.92 547.49 839.97 545.77 840.21 543.71 C 840.90 537.55 844.63 530.80 841.19 524.91 C 839.08 521.46 837.17 517.38 834.01 514.96 C 823.19 512.73 812.58 517.25 802.38 520.20 C 795.37 522.20 788.18 526.14 780.67 524.44 C 776.33 523.00 774.41 518.40 772.00 514.92 C 768.46 508.92 762.15 505.41 756.70 501.44 C 760.97 497.62 766.33 495.27 771.96 494.33 C 779.04 493.23 783.54 486.84 790.21 484.76 C 794.58 483.37 798.95 481.94 803.16 480.07 C 811.51 476.20 821.01 478.39 829.73 476.03 C 840.59 473.75 853.32 470.48 859.63 460.58 Z" />
</g>
<g id="#7f9fdffe" target="1748">
<path fill="#7f9fdf" fill-opacity="0" d=" M 1054.08 473.38 C 1063.61 475.27 1070.76 467.05 1079.36 464.46 C 1086.89 468.97 1095.43 463.27 1103.36 465.53 C 1106.97 466.58 1111.14 467.29 1113.83 470.16 C 1117.48 476.74 1116.25 484.41 1116.10 491.60 C 1116.10 494.34 1116.40 497.43 1118.51 499.43 C 1121.28 501.33 1124.78 501.52 1128.01 502.01 C 1128.44 506.77 1128.83 511.51 1129.23 516.30 C 1129.20 527.70 1126.36 538.85 1125.09 550.14 C 1129.05 551.61 1133.01 554.16 1137.39 553.58 C 1143.09 553.19 1143.79 546.32 1146.73 542.53 C 1150.31 536.48 1157.62 535.73 1163.81 534.54 C 1165.83 536.98 1168.29 539.31 1169.10 542.52 C 1169.03 548.00 1173.75 551.92 1178.79 552.35 C 1184.67 551.83 1188.80 546.95 1194.35 545.50 C 1196.81 544.77 1198.79 547.17 1199.72 549.17 C 1202.91 555.93 1205.43 563.17 1206.09 570.66 C 1205.83 577.18 1203.63 583.40 1202.25 589.73 C 1200.21 597.55 1199.12 605.78 1195.03 612.88 C 1197.97 612.67 1200.92 612.53 1203.87 612.35 C 1205.34 620.45 1208.47 628.02 1213.40 634.61 C 1216.98 639.33 1214.77 644.80 1213.51 649.78 C 1211.59 658.05 1209.42 666.25 1207.64 674.54 C 1199.46 676.66 1190.96 678.06 1183.39 681.93 C 1185.22 675.86 1186.40 669.63 1187.72 663.43 C 1171.80 663.37 1155.90 664.90 1140.00 664.03 C 1127.30 663.44 1114.59 663.67 1101.88 663.70 C 1098.06 663.76 1094.16 663.08 1090.89 661.05 C 1052.45 633.60 1014.50 605.44 976.86 576.92 C 981.43 569.89 990.91 569.80 997.90 566.43 C 995.83 563.78 993.80 559.84 989.89 560.07 C 983.32 560.42 976.74 562.07 970.19 560.71 C 969.41 557.73 968.35 554.83 967.38 551.92 C 966.97 549.32 966.65 546.66 966.90 544.06 C 971.59 541.08 977.30 540.60 982.57 539.25 C 990.20 537.45 997.90 535.93 1005.64 534.61 C 1003.82 524.31 999.67 514.00 991.42 507.22 C 994.28 502.95 997.00 498.08 1002.18 496.30 C 1008.51 493.72 1014.12 489.80 1018.80 484.81 C 1022.81 481.25 1026.78 475.59 1032.86 476.13 C 1037.57 475.60 1039.37 480.23 1041.85 483.14 C 1046.77 481.03 1050.63 477.36 1054.08 473.38 Z" />
<path fill="#001fdf" fill-opacity="0" d=" M 971.57 585.48 C 974.35 583.38 975.30 579.88 976.86 576.92 C 1014.50 605.44 1052.45 633.60 1090.89 661.05 C 1094.16 663.08 1098.06 663.76 1101.88 663.70 C 1114.59 663.67 1127.30 663.44 1140.00 664.03 C 1155.90 664.90 1171.80 663.37 1187.72 663.43 C 1186.40 669.63 1185.22 675.86 1183.39 681.93 L 1183.04 682.85 C 1182.24 683.82 1181.45 685.36 1182.72 686.36 L 1183.43 687.25 C 1181.76 686.76 1181.37 688.76 1181.53 689.97 C 1181.38 694.07 1178.91 697.57 1176.84 700.95 C 1171.78 707.70 1171.39 716.48 1169.31 724.39 C 1168.46 716.90 1171.15 709.56 1172.23 702.24 C 1165.94 701.20 1158.95 701.46 1153.73 697.22 C 1150.03 694.63 1147.40 690.32 1142.84 689.15 C 1139.09 688.45 1135.99 691.51 1134.79 694.78 C 1131.17 704.15 1135.52 714.59 1131.93 723.98 C 1130.44 728.11 1125.44 728.77 1122.68 731.73 C 1121.09 734.27 1121.00 737.70 1118.87 739.86 C 1114.61 741.85 1109.68 740.83 1105.20 740.66 C 1096.71 739.77 1088.16 741.82 1079.70 740.21 C 1073.01 737.01 1068.70 730.31 1061.84 727.38 C 1057.71 725.39 1052.89 723.97 1048.33 725.30 C 1040.62 727.57 1033.01 730.16 1025.26 732.26 C 1015.56 735.10 1006.83 742.58 996.15 740.61 C 991.93 739.53 988.72 736.31 985.45 733.64 C 976.15 738.81 967.52 748.58 968.41 759.83 C 968.46 761.15 968.55 763.81 968.60 765.14 C 973.88 765.38 980.50 762.78 984.73 767.24 C 986.35 769.03 987.91 771.81 986.76 774.24 C 984.93 777.47 982.23 780.13 980.42 783.37 C 981.65 790.45 989.39 794.39 996.05 794.75 C 997.01 790.26 996.98 785.37 999.44 781.35 C 1006.16 779.24 1013.74 783.49 1019.91 778.81 C 1024.93 775.89 1028.36 768.75 1034.94 769.46 C 1042.02 772.46 1046.23 780.19 1047.23 787.58 C 1044.20 788.37 1040.32 788.44 1038.48 791.40 C 1034.95 798.60 1036.06 807.07 1033.29 814.46 C 1029.53 821.10 1020.82 819.12 1014.39 818.89 C 1011.27 827.11 1011.59 835.92 1011.14 844.53 C 1010.78 848.68 1006.43 850.87 1002.73 851.45 C 989.33 853.12 975.82 851.07 963.03 847.04 C 962.91 855.82 961.79 864.82 963.45 873.53 C 959.38 874.19 955.27 874.54 951.15 874.70 C 945.31 860.92 945.48 845.88 945.51 831.20 C 945.31 824.19 944.57 815.92 950.50 810.93 C 940.30 799.93 925.72 794.39 915.34 783.64 C 908.07 776.34 908.23 765.27 907.47 755.74 C 907.43 749.98 905.97 743.17 910.72 738.83 C 917.24 735.54 924.67 734.52 931.33 731.50 C 921.33 727.02 910.14 728.22 899.77 725.36 C 894.50 724.30 893.26 718.34 892.31 713.89 C 890.75 704.08 890.46 694.13 889.94 684.23 C 898.58 680.67 907.75 678.70 916.51 675.50 C 922.22 673.39 922.85 666.54 926.52 662.46 C 930.61 659.19 936.00 657.61 939.18 653.20 C 944.89 646.23 950.52 639.19 956.66 632.58 C 958.95 630.60 957.10 627.48 956.90 625.05 C 955.20 619.44 959.54 614.35 961.01 609.25 C 957.20 608.33 953.39 607.41 949.57 606.55 C 951.45 602.61 953.34 598.57 956.42 595.41 C 960.63 590.94 966.80 589.22 971.57 585.48 M 977.33 651.32 C 976.25 652.63 978.52 654.19 979.48 652.88 C 980.50 651.57 978.25 649.99 977.33 651.32 M 1080.49 660.62 C 1079.67 662.29 1078.64 663.92 1078.35 665.78 C 1079.04 667.55 1080.15 669.12 1081.14 670.75 C 1083.28 668.51 1085.37 666.17 1086.76 663.37 C 1084.63 662.50 1082.54 661.60 1080.49 660.62 Z" />
</g>
<g id="#7f5f5fff" target="1742">
<path fill="#7f5f5f" fill-opacity="0" d=" M 728.01 502.80 C 730.56 501.18 733.66 498.43 736.85 500.06 C 740.36 502.01 742.00 505.92 744.75 508.69 C 750.21 509.40 753.03 504.35 756.70 501.44 C 762.15 505.41 768.46 508.92 772.00 514.92 C 774.41 518.40 776.33 523.00 780.67 524.44 C 788.18 526.14 795.37 522.20 802.38 520.20 C 812.58 517.25 823.19 512.73 834.01 514.96 C 837.17 517.38 839.08 521.46 841.19 524.91 C 844.63 530.80 840.90 537.55 840.21 543.71 C 839.97 545.77 841.92 547.49 843.93 547.32 C 850.23 547.08 855.88 543.91 861.71 541.86 C 862.60 543.77 863.53 545.66 864.44 547.57 C 871.05 548.21 878.30 546.20 884.63 548.84 C 890.70 555.21 893.05 563.96 897.17 571.56 C 889.34 575.81 886.21 586.71 876.53 587.70 C 871.09 589.11 865.43 589.04 859.87 588.76 C 857.37 588.57 854.99 589.50 852.98 590.90 C 846.16 595.52 838.49 598.63 831.11 602.22 C 832.35 613.06 833.34 623.94 835.07 634.73 C 833.80 634.80 832.54 634.87 831.29 634.95 C 830.75 633.05 830.21 631.17 829.69 629.29 C 826.49 628.11 823.37 626.97 820.22 625.81 C 818.37 622.32 817.25 618.36 814.59 615.37 C 811.05 612.78 806.23 612.92 802.69 610.31 C 797.53 606.70 792.64 601.54 785.84 601.81 C 781.96 601.81 778.14 602.54 774.31 603.01 C 770.05 596.22 764.65 590.17 761.06 582.97 C 758.61 578.38 757.17 573.21 753.89 569.10 C 750.53 566.46 744.27 569.36 742.11 564.95 C 738.33 556.93 735.04 548.57 733.12 539.90 C 731.55 529.26 728.70 518.89 726.64 508.35 C 726.13 506.40 726.85 504.37 728.01 502.80 M 835.14 554.12 C 833.63 554.50 834.45 556.83 835.87 556.27 C 837.36 555.91 836.50 553.56 835.14 554.12 Z" />
</g>
<g id="#7f5fdfff" target="1741">
<path fill="#7f5fdf" fill-opacity="0" d=" M 931.46 510.16 C 936.08 508.33 939.36 503.39 944.65 503.26 C 948.86 503.11 952.04 506.22 955.78 507.58 C 961.41 508.54 966.96 506.83 972.59 506.72 C 978.86 506.58 985.13 507.43 991.42 507.22 C 999.67 514.00 1003.82 524.31 1005.64 534.61 C 997.90 535.93 990.20 537.45 982.57 539.25 C 977.30 540.60 971.59 541.08 966.90 544.06 C 966.65 546.66 966.97 549.32 967.38 551.92 C 963.05 552.14 958.23 554.34 954.27 551.79 C 950.15 549.37 945.02 548.17 940.34 549.46 C 932.44 553.19 927.67 561.33 919.89 565.24 C 916.04 567.36 911.80 565.03 907.98 564.07 C 904.39 566.60 900.81 569.13 897.17 571.56 C 893.05 563.96 890.70 555.21 884.63 548.84 C 878.30 546.20 871.05 548.21 864.44 547.57 C 863.53 545.66 862.60 543.77 861.71 541.86 C 861.36 535.14 858.54 528.41 859.94 521.67 C 862.21 515.79 869.60 517.11 874.73 516.50 C 875.01 518.52 875.57 522.55 875.86 524.57 C 884.98 524.75 883.71 514.64 886.26 508.71 C 888.93 510.68 891.07 513.50 894.22 514.73 C 900.02 513.97 904.78 510.07 910.56 509.31 C 914.46 508.78 918.45 508.53 922.37 509.12 C 925.37 509.51 928.41 510.75 931.46 510.16 M 875.29 529.53 C 874.42 530.76 876.51 532.04 877.33 530.85 C 878.14 529.64 876.06 528.37 875.29 529.53 Z" />
</g>
<g id="#001f5fff" target="1749">
<path fill="#001f5f" fill-opacity="0" d=" M 919.89 565.24 C 927.67 561.33 932.44 553.19 940.34 549.46 C 945.02 548.17 950.15 549.37 954.27 551.79 C 958.23 554.34 963.05 552.14 967.38 551.92 C 968.35 554.83 969.41 557.73 970.19 560.71 C 976.74 562.07 983.32 560.42 989.89 560.07 C 993.80 559.84 995.83 563.78 997.90 566.43 C 990.91 569.80 981.43 569.89 976.86 576.92 C 975.30 579.88 974.35 583.38 971.57 585.48 C 966.80 589.22 960.63 590.94 956.42 595.41 C 953.34 598.57 951.45 602.61 949.57 606.55 C 953.39 607.41 957.20 608.33 961.01 609.25 C 959.54 614.35 955.20 619.44 956.90 625.05 C 957.10 627.48 958.95 630.60 956.66 632.58 C 950.52 639.19 944.89 646.23 939.18 653.20 C 936.00 657.61 930.61 659.19 926.52 662.46 C 922.85 666.54 922.22 673.39 916.51 675.50 C 907.75 678.70 898.58 680.67 889.94 684.23 C 890.46 694.13 890.75 704.08 892.31 713.89 C 889.69 707.98 883.96 704.70 879.23 700.75 C 874.83 692.54 873.92 683.02 870.31 674.49 C 867.78 671.32 863.73 669.78 860.32 667.68 C 859.61 662.70 859.16 657.63 858.09 652.73 C 853.81 643.57 844.70 637.71 835.16 635.31 L 835.07 634.73 C 833.34 623.94 832.35 613.06 831.11 602.22 C 838.49 598.63 846.16 595.52 852.98 590.90 C 854.99 589.50 857.37 588.57 859.87 588.76 C 865.43 589.04 871.09 589.11 876.53 587.70 C 886.21 586.71 889.34 575.81 897.17 571.56 C 900.81 569.13 904.39 566.60 907.98 564.07 C 911.80 565.03 916.04 567.36 919.89 565.24 M 911.17 607.17 C 910.64 608.79 911.19 609.34 912.83 608.83 C 913.34 607.20 912.79 606.64 911.17 607.17 M 920.53 629.12 C 920.68 629.44 920.96 630.09 921.10 630.41 C 923.69 631.02 921.94 626.93 920.53 629.12 Z" />
</g>
<g id="#bf5f9fff" target="1751">
<path fill="#bf5f9f" fill-opacity="0" d=" M 1134.79 694.78 C 1135.99 691.51 1139.09 688.45 1142.84 689.15 C 1147.40 690.32 1150.03 694.63 1153.73 697.22 C 1158.95 701.46 1165.94 701.20 1172.23 702.24 C 1171.15 709.56 1168.46 716.90 1169.31 724.39 C 1169.39 725.05 1169.55 726.38 1169.63 727.05 C 1174.07 725.24 1176.96 721.35 1180.17 717.98 C 1183.43 722.87 1186.70 727.90 1191.23 731.76 C 1194.87 734.88 1198.21 738.52 1199.92 743.09 C 1202.58 747.28 1199.89 751.88 1198.49 755.97 C 1200.66 756.82 1202.83 757.67 1205.04 758.47 C 1208.59 770.52 1201.91 781.95 1198.84 793.31 C 1200.62 793.56 1202.59 793.32 1204.28 794.07 C 1208.08 797.67 1210.51 802.41 1213.19 806.84 C 1216.34 813.21 1225.56 811.55 1229.33 817.31 C 1231.34 821.00 1233.49 825.38 1231.43 829.53 C 1228.36 836.67 1226.56 844.34 1223.27 851.38 C 1219.77 853.78 1215.10 854.53 1212.45 858.23 C 1216.15 860.48 1220.53 862.07 1223.43 865.47 C 1223.16 871.46 1220.24 876.97 1218.65 882.68 C 1217.29 885.69 1216.81 889.55 1214.03 891.64 C 1204.95 895.18 1202.43 905.48 1195.94 911.90 C 1190.96 918.42 1182.56 920.45 1176.32 925.35 C 1174.81 926.47 1173.97 928.21 1173.57 930.00 C 1171.71 937.30 1169.82 944.62 1167.14 951.67 C 1163.11 960.46 1153.52 964.05 1146.02 969.08 C 1142.02 971.79 1137.42 973.64 1132.53 973.47 C 1132.41 963.74 1130.54 953.98 1132.03 944.29 C 1133.41 937.79 1129.55 931.90 1126.29 926.73 C 1121.32 923.44 1114.56 922.73 1109.00 924.96 C 1105.17 926.21 1100.51 929.24 1096.72 926.34 C 1089.19 920.52 1081.05 915.45 1074.33 908.66 C 1070.52 904.88 1065.53 900.04 1059.61 902.55 C 1050.85 907.22 1046.15 916.63 1039.58 923.60 C 1032.61 927.32 1025.73 921.14 1019.58 918.47 C 1010.65 915.27 1001.35 913.16 992.36 910.13 C 992.75 904.61 993.99 895.90 987.12 893.91 C 981.88 891.98 976.97 894.82 972.46 897.10 C 970.39 895.79 967.88 894.36 966.92 892.06 C 967.07 885.69 966.58 879.22 963.45 873.53 C 961.79 864.82 962.91 855.82 963.03 847.04 C 975.82 851.07 989.33 853.12 1002.73 851.45 C 1006.43 850.87 1010.78 848.68 1011.14 844.53 C 1011.59 835.92 1011.27 827.11 1014.39 818.89 C 1020.82 819.12 1029.53 821.10 1033.29 814.46 C 1036.06 807.07 1034.95 798.60 1038.48 791.40 C 1040.32 788.44 1044.20 788.37 1047.23 787.58 C 1046.23 780.19 1042.02 772.46 1034.94 769.46 C 1028.36 768.75 1024.93 775.89 1019.91 778.81 C 1013.74 783.49 1006.16 779.24 999.44 781.35 C 996.98 785.37 997.01 790.26 996.05 794.75 C 989.39 794.39 981.65 790.45 980.42 783.37 C 982.23 780.13 984.93 777.47 986.76 774.24 C 987.91 771.81 986.35 769.03 984.73 767.24 C 980.50 762.78 973.88 765.38 968.60 765.14 C 968.55 763.81 968.46 761.15 968.41 759.83 C 967.52 748.58 976.15 738.81 985.45 733.64 C 988.72 736.31 991.93 739.53 996.15 740.61 C 1006.83 742.58 1015.56 735.10 1025.26 732.26 C 1033.01 730.16 1040.62 727.57 1048.33 725.30 C 1052.89 723.97 1057.71 725.39 1061.84 727.38 C 1068.70 730.31 1073.01 737.01 1079.70 740.21 C 1088.16 741.82 1096.71 739.77 1105.20 740.66 C 1109.68 740.83 1114.61 741.85 1118.87 739.86 C 1121.00 737.70 1121.09 734.27 1122.68 731.73 C 1125.44 728.77 1130.44 728.11 1131.93 723.98 C 1135.52 714.59 1131.17 704.15 1134.79 694.78 Z" />
</g>
</svg>
