<?xml version="1.0" encoding="UTF-8" ?>
<!DOCTYPE svg PUBLIC "-//W3C//DTD SVG 1.1//EN" "http://www.w3.org/Graphics/SVG/1.1/DTD/svg11.dtd">
<svg width="1920pt" height="1080pt" viewBox="0 0 1920 1080" version="1.1" xmlns="http://www.w3.org/2000/svg">
<g id="#000fbfff">
<path fill="#000fbf" fill-opacity="0" d=" M 789.79 190.21 C 795.27 188.59 800.13 192.29 805.13 193.87 C 810.41 196.05 816.42 196.01 821.58 198.50 C 825.37 202.28 822.74 209.01 825.85 213.10 C 834.41 216.50 844.41 215.02 852.76 219.31 C 856.48 221.11 856.59 225.80 857.53 229.23 C 859.77 239.80 864.02 250.08 864.08 261.03 C 864.53 264.58 864.04 268.34 865.31 271.74 C 868.12 274.57 872.06 276.21 874.54 279.43 C 877.31 288.10 876.95 297.29 877.64 306.28 C 878.58 316.73 879.49 327.18 880.30 337.63 C 880.23 341.13 880.74 345.28 877.89 347.84 C 871.96 353.40 863.51 356.37 859.46 363.82 C 858.48 350.27 858.02 336.64 855.56 323.24 C 854.52 317.63 854.48 311.77 852.44 306.38 C 851.05 302.80 847.00 301.72 843.93 300.06 C 832.63 294.08 821.07 288.54 810.19 281.81 C 807.29 279.53 803.19 278.20 801.58 274.64 C 799.58 267.71 802.31 259.47 798.01 253.24 C 793.98 251.35 789.21 253.26 785.21 254.62 C 785.86 257.73 786.50 260.84 786.96 263.99 C 774.91 261.22 763.79 255.76 752.78 250.32 C 750.95 244.38 748.71 238.28 749.85 231.95 C 750.23 225.64 754.42 220.53 756.88 214.94 C 759.81 209.70 761.39 203.77 764.85 198.81 C 766.37 196.61 767.47 194.16 768.36 191.64 C 775.54 192.88 782.81 192.23 789.79 190.21 Z" />
</g>
<g id="#bf8fbffe">
<path fill="#bf8fbf" fill-opacity="0" d=" M 752.78 250.32 C 763.79 255.76 774.91 261.22 786.96 263.99 C 786.50 260.84 785.86 257.73 785.21 254.62 C 789.21 253.26 793.98 251.35 798.01 253.24 C 802.31 259.47 799.58 267.71 801.58 274.64 C 803.19 278.20 807.29 279.53 810.19 281.81 C 821.07 288.54 832.63 294.08 843.93 300.06 C 842.62 305.70 843.40 313.41 837.80 316.75 C 832.42 318.52 826.63 314.32 821.28 316.21 C 817.80 318.83 816.64 323.56 813.01 326.04 C 810.84 327.30 808.20 326.54 805.84 326.65 C 802.02 326.29 798.98 329.07 795.71 330.55 C 788.22 334.59 779.32 333.93 771.19 332.80 C 761.16 331.37 751.07 330.49 741.00 329.44 C 737.35 337.07 734.09 344.88 730.27 352.43 C 728.35 355.81 728.92 359.78 729.69 363.40 C 730.96 369.10 732.37 374.78 733.68 380.48 C 727.80 379.18 722.08 377.04 716.82 374.14 C 713.76 372.02 709.91 370.15 708.81 366.32 C 702.26 342.35 697.21 317.99 690.69 294.01 C 702.55 291.14 714.91 293.82 726.83 291.73 C 730.50 289.09 730.38 283.66 732.14 279.91 C 734.52 273.42 734.59 265.81 739.47 260.49 C 743.07 256.04 749.21 254.83 752.78 250.32 Z" />
</g>
<g id="#bf4f3ffe">
<path fill="#bf4f3f" fill-opacity="0" d=" M 1129.06 283.64 C 1133.61 283.63 1138.46 283.09 1142.60 285.45 C 1153.04 291.14 1163.06 298.85 1175.25 300.24 C 1195.71 302.08 1216.14 304.43 1236.57 306.63 C 1237.82 302.29 1238.42 295.94 1243.87 294.92 C 1248.48 297.60 1251.10 302.48 1254.83 306.15 C 1258.95 310.33 1263.75 314.62 1264.82 320.69 C 1266.05 327.77 1267.12 335.10 1265.62 342.24 C 1264.27 350.02 1263.87 357.95 1262.27 365.69 C 1260.17 373.08 1258.23 380.54 1255.91 387.86 C 1254.91 391.57 1251.61 393.74 1249.60 396.78 C 1246.65 403.63 1245.90 411.21 1243.15 418.14 C 1242.66 413.02 1244.36 408.07 1245.65 403.20 C 1240.48 403.58 1235.30 403.60 1230.13 403.65 C 1216.20 404.23 1202.52 399.65 1188.56 401.53 C 1190.02 407.80 1192.85 413.76 1193.47 420.23 C 1193.78 424.01 1193.29 427.80 1193.06 431.58 C 1187.20 437.36 1179.41 441.72 1171.02 441.87 C 1160.65 441.58 1153.85 430.77 1143.15 432.03 C 1141.53 432.32 1138.49 432.17 1138.79 434.54 C 1138.13 438.99 1138.54 443.48 1139.15 447.90 C 1133.05 447.39 1126.39 448.64 1120.86 445.27 C 1121.05 435.51 1124.08 426.14 1126.78 416.85 C 1124.40 417.64 1122.02 418.45 1119.65 419.24 C 1119.57 411.47 1126.62 406.51 1131.14 401.04 C 1127.97 400.65 1124.65 400.85 1121.67 399.62 C 1120.62 395.88 1121.08 391.94 1120.25 388.16 C 1119.78 380.90 1118.14 373.72 1115.02 367.12 C 1109.75 355.63 1103.80 343.27 1092.18 336.96 C 1095.47 335.82 1099.48 334.87 1101.00 331.34 C 1104.36 323.66 1109.24 316.83 1113.84 309.88 C 1119.04 301.20 1123.78 292.27 1129.06 283.64 Z" />
</g>
<g id="#bf8f3fff">
<path fill="#bf8f3f" fill-opacity="0" d=" M 843.93 300.06 C 847.00 301.72 851.05 302.80 852.44 306.38 C 854.48 311.77 854.52 317.63 855.56 323.24 C 858.02 336.64 858.48 350.27 859.46 363.82 C 859.61 365.42 859.82 367.02 860.03 368.63 C 857.81 368.24 855.61 367.82 853.41 367.41 C 851.90 376.27 850.36 385.14 849.52 394.10 C 849.08 397.75 848.55 401.89 845.52 404.38 C 841.59 406.87 836.13 406.10 832.83 409.71 C 829.10 413.75 826.26 418.63 821.62 421.76 C 817.06 419.30 812.58 416.46 807.61 414.95 C 802.86 415.08 799.96 420.36 795.21 420.52 C 788.24 419.66 782.62 414.84 777.29 410.70 C 775.32 408.91 772.49 409.85 770.32 410.70 C 764.06 413.60 759.31 418.82 754.27 423.39 C 750.39 426.13 751.27 431.28 751.37 435.36 C 752.80 447.80 756.57 459.80 758.99 472.07 C 755.74 471.64 752.23 471.50 749.44 469.60 C 747.22 464.96 746.68 459.71 745.61 454.75 C 743.52 443.07 740.00 431.69 738.23 419.95 C 736.37 412.76 739.40 405.38 737.71 398.20 C 736.39 392.28 734.89 386.42 733.68 380.48 C 732.37 374.78 730.96 369.10 729.69 363.40 C 728.92 359.78 728.35 355.81 730.27 352.43 C 734.09 344.88 737.35 337.07 741.00 329.44 C 751.07 330.49 761.16 331.37 771.19 332.80 C 779.32 333.93 788.22 334.59 795.71 330.55 C 798.98 329.07 802.02 326.29 805.84 326.65 C 808.20 326.54 810.84 327.30 813.01 326.04 C 816.64 323.56 817.80 318.83 821.28 316.21 C 826.63 314.32 832.42 318.52 837.80 316.75 C 843.40 313.41 842.62 305.70 843.93 300.06 Z" />
</g>
<g id="#7f8fbfff">
<path fill="#7f8fbf" fill-opacity="0" d=" M 1056.86 323.87 C 1059.41 321.41 1061.68 317.57 1065.66 317.48 C 1070.74 317.32 1076.19 317.73 1080.64 320.40 C 1085.73 324.98 1085.55 333.76 1092.18 336.96 C 1103.80 343.27 1109.75 355.63 1115.02 367.12 C 1118.14 373.72 1119.78 380.90 1120.25 388.16 C 1111.38 388.20 1102.92 385.25 1094.21 384.08 C 1095.02 395.94 1099.13 409.49 1092.15 420.17 C 1089.55 424.62 1083.94 425.03 1079.36 425.70 C 1072.22 426.97 1065.17 424.70 1058.04 424.63 C 1054.77 424.49 1052.61 427.39 1050.25 429.18 C 1047.26 432.06 1043.12 433.99 1041.05 437.70 C 1040.50 443.49 1045.03 448.76 1044.11 454.58 C 1041.75 459.28 1035.79 459.39 1031.23 459.12 C 1024.53 456.71 1018.49 452.52 1011.41 451.25 C 1004.03 449.87 996.53 449.17 989.22 447.45 C 986.69 446.87 984.02 444.86 984.38 441.98 C 984.67 434.82 986.51 427.80 986.49 420.62 C 979.94 420.17 973.27 418.53 966.75 420.00 C 963.36 423.11 962.75 428.21 960.61 432.16 C 960.54 413.44 958.85 394.36 963.17 375.99 C 966.10 373.80 970.43 373.89 974.05 373.44 C 974.97 367.93 972.53 360.57 978.17 357.16 C 982.65 354.63 987.67 357.66 992.32 357.83 C 996.31 355.81 999.21 351.97 1003.61 350.58 C 1016.72 346.11 1030.52 342.50 1044.50 343.99 C 1046.54 336.24 1051.70 329.83 1056.86 323.87 Z" />
</g>
<g id="#008fbfff">
<path fill="#008fbf" fill-opacity="0" d=" M 853.41 367.41 C 855.61 367.82 857.81 368.24 860.03 368.63 C 873.39 370.51 886.79 372.24 900.03 374.91 C 900.69 382.38 901.18 389.88 901.65 397.38 C 908.39 395.11 914.72 399.16 920.93 401.23 C 921.39 403.81 921.75 406.35 922.27 408.96 C 928.41 409.50 934.79 409.19 940.69 411.30 C 943.14 419.03 942.49 427.58 941.93 435.62 C 938.36 433.99 938.42 429.78 937.87 426.48 C 931.13 426.42 924.36 426.09 917.67 426.96 C 912.59 428.02 908.63 431.65 904.14 434.00 C 893.84 439.67 882.02 441.72 870.49 443.25 C 866.71 444.07 862.35 443.72 859.04 446.05 C 859.91 449.45 861.77 452.46 863.44 455.52 C 859.65 458.42 854.54 460.55 852.57 465.22 C 853.72 469.39 856.44 473.00 858.30 476.90 C 853.47 480.14 848.04 482.28 842.71 484.51 C 835.95 476.73 828.24 469.35 824.02 459.77 C 822.31 456.27 822.29 452.27 822.52 448.47 C 823.34 439.56 822.70 430.61 821.62 421.76 C 826.26 418.63 829.10 413.75 832.83 409.71 C 836.13 406.10 841.59 406.87 845.52 404.38 C 848.55 401.89 849.08 397.75 849.52 394.10 C 850.36 385.14 851.90 376.27 853.41 367.41 Z" />
</g>
<g id="#7fcf7fff">
<path fill="#7fcf7f" fill-opacity="0" d=" M 1094.21 384.08 C 1102.92 385.25 1111.38 388.20 1120.25 388.16 C 1121.08 391.94 1120.62 395.88 1121.67 399.62 C 1124.65 400.85 1127.97 400.65 1131.14 401.04 C 1126.62 406.51 1119.57 411.47 1119.65 419.24 C 1122.02 418.45 1124.40 417.64 1126.78 416.85 C 1124.08 426.14 1121.05 435.51 1120.86 445.27 C 1126.39 448.64 1133.05 447.39 1139.15 447.90 C 1139.47 454.91 1141.01 462.82 1137.10 469.09 C 1130.50 472.53 1122.24 470.61 1115.15 471.33 C 1108.25 470.58 1104.98 478.50 1103.08 483.92 C 1102.33 494.38 1103.44 506.07 1110.22 514.59 C 1107.99 518.02 1105.60 521.38 1102.59 524.18 C 1100.46 523.19 1098.35 522.21 1096.25 521.21 C 1095.27 522.26 1094.31 523.32 1093.35 524.37 C 1090.32 523.18 1087.15 522.40 1083.98 521.69 C 1083.35 525.74 1083.20 529.96 1081.65 533.80 C 1070.09 535.47 1058.66 528.82 1046.97 531.55 C 1050.70 525.16 1056.45 520.28 1060.17 513.89 C 1049.59 511.51 1038.25 515.79 1028.16 510.80 C 1025.73 509.77 1024.71 506.52 1026.30 504.38 C 1029.45 499.11 1035.63 497.14 1040.91 494.73 C 1040.82 492.68 1040.74 490.64 1040.69 488.60 C 1034.93 488.42 1029.16 487.71 1023.46 488.69 C 1020.44 489.22 1017.32 489.14 1014.35 488.37 C 1014.83 484.49 1016.22 480.86 1017.84 477.35 C 1019.90 473.20 1017.17 468.69 1016.39 464.62 C 1021.17 462.44 1025.95 459.90 1031.23 459.12 C 1035.79 459.39 1041.75 459.28 1044.11 454.58 C 1045.03 448.76 1040.50 443.49 1041.05 437.70 C 1043.12 433.99 1047.26 432.06 1050.25 429.18 C 1052.61 427.39 1054.77 424.49 1058.04 424.63 C 1065.17 424.70 1072.22 426.97 1079.36 425.70 C 1083.94 425.03 1089.55 424.62 1092.15 420.17 C 1099.13 409.49 1095.02 395.94 1094.21 384.08 Z" />
</g>
<g id="#7f4f7ffe">
<path fill="#7f4f7f" fill-opacity="0" d=" M 1188.56 401.53 C 1202.52 399.65 1216.20 404.23 1230.13 403.65 C 1235.30 403.60 1240.48 403.58 1245.65 403.20 C 1244.36 408.07 1242.66 413.02 1243.15 418.14 C 1246.67 426.60 1251.81 434.48 1257.77 441.43 C 1265.45 440.89 1272.58 443.94 1279.64 446.48 C 1284.57 448.30 1290.58 444.44 1294.85 448.16 C 1298.91 451.90 1294.95 457.82 1294.53 462.15 C 1291.84 469.37 1294.86 476.84 1297.65 483.45 C 1300.67 487.13 1304.62 489.96 1308.14 493.16 C 1305.82 501.24 1302.46 508.96 1299.84 516.95 C 1296.69 524.91 1304.01 532.20 1303.35 540.16 C 1301.26 547.86 1297.61 555.04 1294.74 562.46 C 1289.95 563.68 1285.16 565.18 1281.80 568.99 C 1277.68 568.03 1273.54 569.06 1269.83 570.89 C 1268.57 569.92 1267.33 568.94 1266.10 567.97 C 1265.01 570.46 1263.96 572.96 1262.89 575.45 C 1260.21 575.23 1254.85 574.79 1252.17 574.57 C 1245.80 571.24 1243.07 564.10 1239.52 558.25 C 1235.77 558.70 1232.09 559.27 1228.35 559.65 C 1232.83 552.35 1234.18 543.76 1236.82 535.73 C 1231.95 534.96 1226.41 534.96 1222.43 531.60 C 1216.05 526.25 1211.74 518.86 1208.52 511.29 C 1205.45 504.70 1207.01 497.17 1208.49 490.40 C 1211.16 482.28 1217.48 476.03 1221.62 468.70 C 1223.17 465.77 1222.29 462.36 1221.80 459.28 C 1220.77 454.43 1220.59 449.46 1220.22 444.53 C 1224.74 443.26 1229.36 442.05 1233.92 440.80 C 1230.45 437.91 1227.04 434.39 1222.36 433.77 C 1212.63 432.45 1202.78 432.78 1193.06 431.58 C 1193.29 427.80 1193.78 424.01 1193.47 420.23 C 1192.85 413.76 1190.02 407.80 1188.56 401.53 Z" />
</g>
<g id="#bf4f00fe">
<path fill="#bf4f00" fill-opacity="0" d=" M 770.32 410.70 C 772.49 409.85 775.32 408.91 777.29 410.70 C 782.62 414.84 788.24 419.66 795.21 420.52 C 799.96 420.36 802.86 415.08 807.61 414.95 C 812.58 416.46 817.06 419.30 821.62 421.76 C 822.70 430.61 823.34 439.56 822.52 448.47 C 822.29 452.27 822.31 456.27 824.02 459.77 C 828.24 469.35 835.95 476.73 842.71 484.51 C 845.50 487.74 848.01 491.37 849.17 495.53 C 850.48 501.07 848.11 506.61 846.95 511.95 C 845.53 517.67 842.86 522.98 839.02 527.44 C 833.35 523.29 830.64 515.92 823.94 513.04 C 817.90 510.30 811.59 507.62 804.96 506.79 C 796.63 507.38 789.30 511.94 782.08 515.73 C 779.30 515.17 776.54 514.79 773.78 514.37 C 773.35 508.36 773.63 502.35 774.87 496.46 C 767.02 496.50 759.22 497.70 751.45 498.65 C 750.05 492.46 750.42 486.10 750.30 479.81 C 753.68 479.69 757.08 479.61 760.48 479.59 C 760.17 477.04 759.60 474.54 758.99 472.07 C 756.57 459.80 752.80 447.80 751.37 435.36 C 751.27 431.28 750.39 426.13 754.27 423.39 C 759.31 418.82 764.06 413.60 770.32 410.70 Z" />
</g>
<g id="#00cf3fff">
<path fill="#00cf3f" fill-opacity="0" d=" M 966.75 420.00 C 973.27 418.53 979.94 420.17 986.49 420.62 C 986.51 427.80 984.67 434.82 984.38 441.98 C 984.02 444.86 986.69 446.87 989.22 447.45 C 996.53 449.17 1004.03 449.87 1011.41 451.25 C 1018.49 452.52 1024.53 456.71 1031.23 459.12 C 1025.95 459.90 1021.17 462.44 1016.39 464.62 C 1017.17 468.69 1019.90 473.20 1017.84 477.35 C 1016.22 480.86 1014.83 484.49 1014.35 488.37 C 1017.32 489.14 1020.44 489.22 1023.46 488.69 C 1029.16 487.71 1034.93 488.42 1040.69 488.60 C 1040.74 490.64 1040.82 492.68 1040.91 494.73 C 1035.63 497.14 1029.45 499.11 1026.30 504.38 C 1024.71 506.52 1025.73 509.77 1028.16 510.80 C 1038.25 515.79 1049.59 511.51 1060.17 513.89 C 1056.45 520.28 1050.70 525.16 1046.97 531.55 C 1044.75 534.29 1043.46 538.02 1040.41 539.97 C 1036.05 540.87 1031.44 539.21 1027.15 540.30 C 1023.84 542.68 1022.14 546.61 1019.64 549.73 C 1014.89 549.19 1010.20 548.01 1005.97 545.75 C 1010.55 543.42 1015.27 541.35 1019.84 538.96 C 1017.15 536.65 1014.29 534.55 1011.57 532.29 C 1007.19 529.17 1009.52 523.04 1008.47 518.56 C 1002.68 522.34 998.47 528.52 991.72 530.73 C 984.48 533.64 976.54 534.83 969.77 538.83 C 967.58 539.85 965.39 541.51 962.88 541.34 C 960.64 540.23 959.13 538.09 957.39 536.39 C 962.39 532.05 967.80 528.22 973.26 524.47 C 968.43 519.67 962.85 514.05 955.37 514.91 C 950.73 516.53 946.73 519.56 942.71 522.31 C 941.72 519.16 940.92 515.96 940.51 512.69 C 946.88 511.46 951.30 506.10 955.63 501.71 C 958.40 496.20 958.89 489.79 961.10 484.02 C 957.87 481.56 953.83 479.67 951.96 475.87 C 952.73 471.90 956.03 469.20 958.53 466.25 C 953.15 456.72 960.41 446.39 958.50 436.25 C 959.24 434.91 959.99 433.57 960.61 432.16 C 962.75 428.21 963.36 423.11 966.75 420.00 Z" />
</g>
<g id="#3fcfbfff">
<path fill="#3fcfbf" fill-opacity="0" d=" M 917.67 426.96 C 924.36 426.09 931.13 426.42 937.87 426.48 C 938.42 429.78 938.36 433.99 941.93 435.62 C 947.17 437.95 953.06 437.53 958.50 436.25 C 960.41 446.39 953.15 456.72 958.53 466.25 C 956.03 469.20 952.73 471.90 951.96 475.87 C 953.83 479.67 957.87 481.56 961.10 484.02 C 958.89 489.79 958.40 496.20 955.63 501.71 C 951.30 506.10 946.88 511.46 940.51 512.69 C 936.88 512.87 933.05 512.20 929.71 513.90 C 923.18 517.78 915.06 516.86 908.49 520.71 C 908.03 512.22 904.57 503.67 906.87 495.18 C 900.44 492.61 896.93 486.38 891.51 482.57 C 884.45 481.28 878.49 486.98 871.94 488.81 C 870.23 483.11 868.72 477.38 867.15 471.65 C 864.08 473.20 861.15 474.99 858.30 476.90 C 856.44 473.00 853.72 469.39 852.57 465.22 C 854.54 460.55 859.65 458.42 863.44 455.52 C 861.77 452.46 859.91 449.45 859.04 446.05 C 862.35 443.72 866.71 444.07 870.49 443.25 C 882.02 441.72 893.84 439.67 904.14 434.00 C 908.63 431.65 912.59 428.02 917.67 426.96 Z" />
</g>
<g id="#3f8f3fff">
<path fill="#3f8f3f" fill-opacity="0" d=" M 1171.02 441.87 C 1179.41 441.72 1187.20 437.36 1193.06 431.58 C 1202.78 432.78 1212.63 432.45 1222.36 433.77 C 1227.04 434.39 1230.45 437.91 1233.92 440.80 C 1229.36 442.05 1224.74 443.26 1220.22 444.53 C 1220.59 449.46 1220.77 454.43 1221.80 459.28 C 1222.29 462.36 1223.17 465.77 1221.62 468.70 C 1217.48 476.03 1211.16 482.28 1208.49 490.40 C 1207.01 497.17 1205.45 504.70 1208.52 511.29 C 1211.74 518.86 1216.05 526.25 1222.43 531.60 C 1226.41 534.96 1231.95 534.96 1236.82 535.73 C 1234.18 543.76 1232.83 552.35 1228.35 559.65 C 1224.08 565.15 1224.38 573.38 1218.78 577.80 C 1214.37 579.96 1209.52 576.77 1204.90 577.13 C 1196.84 577.64 1188.57 578.56 1180.68 576.29 C 1173.11 573.83 1165.81 570.18 1157.76 569.63 C 1159.31 562.53 1161.33 555.51 1162.38 548.31 C 1162.93 544.34 1159.91 541.24 1158.01 538.11 C 1155.97 535.36 1154.15 531.98 1150.90 530.56 C 1147.00 530.09 1143.47 532.41 1139.95 533.72 C 1138.68 530.22 1137.97 526.47 1135.91 523.36 C 1130.86 522.49 1124.68 525.47 1120.48 521.60 C 1117.16 519.10 1113.82 516.64 1110.22 514.59 C 1103.44 506.07 1102.33 494.38 1103.08 483.92 C 1104.98 478.50 1108.25 470.58 1115.15 471.33 C 1122.24 470.61 1130.50 472.53 1137.10 469.09 C 1141.01 462.82 1139.47 454.91 1139.15 447.90 C 1138.54 443.48 1138.13 438.99 1138.79 434.54 C 1138.49 432.17 1141.53 432.32 1143.15 432.03 C 1153.85 430.77 1160.65 441.58 1171.02 441.87 Z" />
</g>
<g id="#bf0fbfff">
<path fill="#bf0fbf" fill-opacity="0" d=" M 858.30 476.90 C 861.15 474.99 864.08 473.20 867.15 471.65 C 868.72 477.38 870.23 483.11 871.94 488.81 C 878.49 486.98 884.45 481.28 891.51 482.57 C 896.93 486.38 900.44 492.61 906.87 495.18 C 904.57 503.67 908.03 512.22 908.49 520.71 C 908.30 521.72 908.08 522.73 907.84 523.73 C 902.61 536.03 893.14 548.48 879.24 551.08 C 871.51 553.03 865.01 547.73 858.86 543.99 C 851.81 538.99 845.79 532.77 839.02 527.44 C 842.86 522.98 845.53 517.67 846.95 511.95 C 848.11 506.61 850.48 501.07 849.17 495.53 C 848.01 491.37 845.50 487.74 842.71 484.51 C 848.04 482.28 853.47 480.14 858.30 476.90 Z" />
</g>
<g id="#7f4f3fff">
<path fill="#7f4f3f" fill-opacity="0" d=" M 751.45 498.65 C 759.22 497.70 767.02 496.50 774.87 496.46 C 773.63 502.35 773.35 508.36 773.78 514.37 C 768.09 519.32 761.45 523.58 758.34 530.79 C 755.62 535.74 749.74 537.85 746.60 542.35 C 745.29 549.97 752.69 555.31 753.30 562.44 C 751.31 569.16 744.88 573.41 739.84 577.82 C 737.11 580.39 732.82 582.75 732.55 586.96 C 733.36 594.92 740.60 600.77 740.33 609.03 C 741.13 618.56 743.59 627.84 746.22 637.00 C 739.49 637.09 732.89 635.75 726.26 634.90 C 713.39 634.52 700.55 633.37 687.77 631.94 C 683.32 631.76 678.45 628.89 674.20 631.27 C 672.43 632.15 670.75 633.19 669.04 634.17 C 664.14 621.22 658.64 608.39 655.44 594.90 C 656.36 590.37 659.98 586.34 664.29 584.59 C 671.05 581.89 669.00 573.11 668.56 567.41 C 670.96 563.82 670.00 559.55 669.05 555.67 C 673.93 552.35 679.82 551.37 685.24 549.28 C 687.23 544.69 684.78 539.51 685.91 534.81 C 687.25 530.87 690.05 527.69 692.64 524.52 C 698.09 525.69 704.07 525.61 709.00 522.77 C 713.77 519.64 719.63 522.26 724.85 520.73 C 725.55 516.40 723.53 511.43 726.68 507.69 C 730.55 504.47 734.82 499.99 740.36 500.77 C 744.22 501.29 747.80 499.60 751.45 498.65 Z" />
</g>
<g id="#7f0f3fff">
<path fill="#7f0f3f" fill-opacity="0" d=" M 782.08 515.73 C 789.30 511.94 796.63 507.38 804.96 506.79 C 811.59 507.62 817.90 510.30 823.94 513.04 C 830.64 515.92 833.35 523.29 839.02 527.44 C 845.79 532.77 851.81 538.99 858.86 543.99 C 860.56 546.19 862.08 548.55 863.65 550.86 C 860.78 554.36 857.57 557.82 856.25 562.24 C 855.01 566.33 853.78 570.56 850.72 573.74 C 846.70 579.51 839.28 585.28 842.04 593.18 C 844.22 600.09 848.06 606.44 849.43 613.63 C 849.34 616.10 848.97 618.55 848.63 621.00 C 847.65 625.25 847.14 629.93 844.49 633.51 C 837.27 636.90 829.39 633.69 822.80 630.39 C 819.96 629.17 816.66 627.48 813.57 628.75 C 809.03 631.77 807.07 637.49 802.48 640.42 C 798.43 642.22 793.94 640.75 789.91 639.66 C 785.68 636.44 781.94 632.65 778.03 629.07 C 774.25 633.64 769.63 637.38 765.20 641.28 C 762.15 642.17 759.78 641.65 758.09 639.73 C 753.17 627.40 749.16 612.83 755.48 600.27 C 757.78 595.56 763.86 595.68 768.15 594.25 C 779.29 591.98 790.89 587.32 797.56 577.64 C 803.12 565.69 795.04 553.42 791.95 542.01 C 789.83 535.87 793.03 529.27 790.80 523.16 C 789.36 519.37 785.78 516.97 782.08 515.73 M 833.32 578.18 C 832.14 579.64 834.67 581.29 835.68 579.82 C 836.84 578.35 834.31 576.69 833.32 578.18 Z" />
</g>
<g id="#bfcf7fff">
<path fill="#bfcf7f" fill-opacity="0" d=" M 929.71 513.90 C 933.05 512.20 936.88 512.87 940.51 512.69 C 940.92 515.96 941.72 519.16 942.71 522.31 C 939.44 525.35 934.74 528.00 933.94 532.81 C 936.61 536.85 941.09 539.59 945.69 540.92 C 950.38 542.79 953.99 538.87 957.39 536.39 C 959.13 538.09 960.64 540.23 962.88 541.34 C 965.39 541.51 967.58 539.85 969.77 538.83 C 976.54 534.83 984.48 533.64 991.72 530.73 C 998.47 528.52 1002.68 522.34 1008.47 518.56 C 1009.52 523.04 1007.19 529.17 1011.57 532.29 C 1014.29 534.55 1017.15 536.65 1019.84 538.96 C 1015.27 541.35 1010.55 543.42 1005.97 545.75 C 1010.20 548.01 1014.89 549.19 1019.64 549.73 C 1022.62 554.36 1028.20 555.03 1032.59 557.56 C 1035.59 563.40 1030.79 569.45 1028.43 574.66 C 1034.68 580.37 1040.59 586.57 1044.64 594.08 C 1040.00 596.04 1035.58 593.66 1031.09 592.79 C 1026.42 593.05 1023.37 597.66 1019.00 598.99 C 1015.46 597.38 1013.73 593.48 1011.23 590.78 C 1007.27 585.32 1000.96 582.36 996.02 577.93 C 992.75 575.18 989.93 571.62 985.70 570.34 C 978.53 568.00 970.47 566.43 963.20 569.25 C 956.87 571.94 951.49 576.33 946.21 580.64 C 946.47 576.82 947.14 572.52 944.88 569.16 C 939.63 564.90 932.66 563.62 927.17 559.74 C 923.93 557.49 922.20 553.82 920.65 550.33 C 916.82 541.25 911.25 533.01 907.84 523.73 C 908.08 522.73 908.30 521.72 908.49 520.71 C 915.06 516.86 923.18 517.78 929.71 513.90 M 983.27 541.03 C 981.34 541.47 982.19 544.53 984.06 543.98 C 985.98 543.58 985.15 540.38 983.27 541.03 Z" />
</g>
<g id="#7f4fbfff">
<path fill="#7f4fbf" fill-opacity="0" d=" M 773.78 514.37 C 776.54 514.79 779.30 515.17 782.08 515.73 C 785.78 516.97 789.36 519.37 790.80 523.16 C 793.03 529.27 789.83 535.87 791.95 542.01 C 795.04 553.42 803.12 565.69 797.56 577.64 C 790.89 587.32 779.29 591.98 768.15 594.25 C 763.86 595.68 757.78 595.56 755.48 600.27 C 749.16 612.83 753.17 627.40 758.09 639.73 C 754.21 638.52 750.24 637.60 746.22 637.00 C 743.59 627.84 741.13 618.56 740.33 609.03 C 740.60 600.77 733.36 594.92 732.55 586.96 C 732.82 582.75 737.11 580.39 739.84 577.82 C 744.88 573.41 751.31 569.16 753.30 562.44 C 752.69 555.31 745.29 549.97 746.60 542.35 C 749.74 537.85 755.62 535.74 758.34 530.79 C 761.45 523.58 768.09 519.32 773.78 514.37 Z" />
</g>
<g id="#bf4f7fff">
<path fill="#bf4f7f" fill-opacity="0" d=" M 955.37 514.91 C 962.85 514.05 968.43 519.67 973.26 524.47 C 967.80 528.22 962.39 532.05 957.39 536.39 C 953.99 538.87 950.38 542.79 945.69 540.92 C 941.09 539.59 936.61 536.85 933.94 532.81 C 934.74 528.00 939.44 525.35 942.71 522.31 C 946.73 519.56 950.73 516.53 955.37 514.91 Z" />
</g>
<g id="#3fcf00ff">
<path fill="#3fcf00" fill-opacity="0" d=" M 1102.59 524.18 C 1105.60 521.38 1107.99 518.02 1110.22 514.59 C 1113.82 516.64 1117.16 519.10 1120.48 521.60 C 1124.68 525.47 1130.86 522.49 1135.91 523.36 C 1137.97 526.47 1138.68 530.22 1139.95 533.72 C 1143.47 532.41 1147.00 530.09 1150.90 530.56 C 1154.15 531.98 1155.97 535.36 1158.01 538.11 C 1159.91 541.24 1162.93 544.34 1162.38 548.31 C 1161.33 555.51 1159.31 562.53 1157.76 569.63 C 1153.28 571.19 1148.56 572.18 1144.40 574.50 C 1140.18 577.31 1138.49 582.47 1134.90 585.92 C 1132.26 588.41 1130.82 591.73 1129.61 595.06 C 1138.13 597.00 1145.47 605.63 1142.37 614.57 C 1145.65 615.74 1148.94 616.53 1152.43 617.00 C 1151.83 625.12 1148.06 632.99 1149.26 641.19 C 1144.03 640.24 1138.75 638.93 1133.39 639.49 C 1128.37 640.09 1123.75 637.50 1119.11 636.09 C 1113.93 640.45 1108.08 644.03 1101.44 645.64 C 1093.25 647.49 1087.96 654.69 1079.97 657.13 C 1084.18 650.97 1083.32 643.34 1083.71 636.29 C 1083.81 631.83 1087.51 628.74 1089.02 624.77 C 1089.76 619.26 1089.36 613.63 1090.52 608.19 C 1092.42 602.17 1097.66 598.12 1102.09 593.96 C 1099.29 590.30 1096.13 586.78 1094.00 582.71 C 1093.89 577.39 1097.04 572.59 1096.97 567.26 C 1096.94 563.82 1096.69 560.34 1097.19 556.92 C 1100.13 553.19 1105.67 551.46 1107.40 546.78 C 1108.06 539.01 1105.69 531.23 1102.59 524.18 Z" />
</g>
<g id="#bfcfbfff">
<path fill="#bfcfbf" fill-opacity="0" d=" M 1096.25 521.21 C 1098.35 522.21 1100.46 523.19 1102.59 524.18 C 1105.69 531.23 1108.06 539.01 1107.40 546.78 C 1105.67 551.46 1100.13 553.19 1097.19 556.92 C 1096.69 560.34 1096.94 563.82 1096.97 567.26 C 1097.04 572.59 1093.89 577.39 1094.00 582.71 C 1096.13 586.78 1099.29 590.30 1102.09 593.96 C 1097.66 598.12 1092.42 602.17 1090.52 608.19 C 1089.36 613.63 1089.76 619.26 1089.02 624.77 C 1084.59 619.61 1078.36 616.53 1072.47 613.40 C 1071.35 616.79 1070.67 620.54 1068.38 623.38 C 1063.29 625.75 1057.40 625.82 1052.05 627.28 C 1050.82 622.53 1049.34 617.77 1049.38 612.82 C 1050.04 606.19 1048.98 599.37 1044.64 594.08 C 1040.59 586.57 1034.68 580.37 1028.43 574.66 C 1030.79 569.45 1035.59 563.40 1032.59 557.56 C 1028.20 555.03 1022.62 554.36 1019.64 549.73 C 1022.14 546.61 1023.84 542.68 1027.15 540.30 C 1031.44 539.21 1036.05 540.87 1040.41 539.97 C 1043.46 538.02 1044.75 534.29 1046.97 531.55 C 1058.66 528.82 1070.09 535.47 1081.65 533.80 C 1083.20 529.96 1083.35 525.74 1083.98 521.69 C 1087.15 522.40 1090.32 523.18 1093.35 524.37 C 1094.31 523.32 1095.27 522.26 1096.25 521.21 Z" />
</g>
<g id="#3f0fbffe">
<path fill="#3f0fbf" fill-opacity="0" d=" M 879.24 551.08 C 893.14 548.48 902.61 536.03 907.84 523.73 C 911.25 533.01 916.82 541.25 920.65 550.33 C 922.20 553.82 923.93 557.49 927.17 559.74 C 932.66 563.62 939.63 564.90 944.88 569.16 C 947.14 572.52 946.47 576.82 946.21 580.64 C 940.48 585.12 934.33 589.03 928.73 593.68 C 922.95 587.92 915.62 583.16 907.16 583.17 C 902.35 584.31 899.83 589.02 897.03 592.64 C 893.12 591.56 888.13 589.35 884.67 592.61 C 880.51 597.47 878.98 603.89 875.90 609.40 C 873.60 608.82 871.32 607.69 868.92 607.92 C 865.71 609.48 863.48 612.57 860.23 614.07 C 856.60 614.60 853.00 614.24 849.43 613.63 C 848.06 606.44 844.22 600.09 842.04 593.18 C 839.28 585.28 846.70 579.51 850.72 573.74 C 853.78 570.56 855.01 566.33 856.25 562.24 C 857.57 557.82 860.78 554.36 863.65 550.86 C 862.08 548.55 860.56 546.19 858.86 543.99 C 865.01 547.73 871.51 553.03 879.24 551.08 Z" />
</g>
<g id="#3fcf7ffe">
<path fill="#3fcf7f" fill-opacity="0" d=" M 983.27 541.03 C 985.15 540.38 985.98 543.58 984.06 543.98 C 982.19 544.53 981.34 541.47 983.27 541.03 Z" />
</g>
<g id="#008f3fff">
<path fill="#008f3f" fill-opacity="0" d=" M 963.20 569.25 C 970.47 566.43 978.53 568.00 985.70 570.34 C 989.93 571.62 992.75 575.18 996.02 577.93 C 1000.96 582.36 1007.27 585.32 1011.23 590.78 C 1013.73 593.48 1015.46 597.38 1019.00 598.99 C 1023.37 597.66 1026.42 593.05 1031.09 592.79 C 1035.58 593.66 1040.00 596.04 1044.64 594.08 C 1048.98 599.37 1050.04 606.19 1049.38 612.82 C 1044.60 610.30 1039.28 605.69 1033.57 608.66 C 1026.51 613.17 1016.17 614.01 1012.73 622.73 C 999.47 625.64 987.86 613.81 974.82 617.44 C 970.24 620.04 967.43 625.05 962.71 627.51 C 958.05 629.91 953.04 631.48 948.32 633.73 C 948.01 633.87 947.39 634.16 947.08 634.30 C 945.37 631.92 943.44 629.67 942.09 627.06 C 939.45 621.76 940.66 615.39 937.81 610.17 C 936.07 606.82 932.71 604.85 929.72 602.78 C 929.34 599.72 929.05 596.72 928.73 593.68 C 934.33 589.03 940.48 585.12 946.21 580.64 C 951.49 576.33 956.87 571.94 963.20 569.25 Z" />
</g>
<g id="#000f40ff">
<path fill="#000f40" fill-opacity="0" d=" M 833.32 578.18 C 834.31 576.69 836.84 578.35 835.68 579.82 C 834.67 581.29 832.14 579.64 833.32 578.18 Z" />
</g>
<g id="#3fcf3ffe">
<path fill="#3fcf3f" fill-opacity="0" d=" M 897.03 592.64 C 899.83 589.02 902.35 584.31 907.16 583.17 C 915.62 583.16 922.95 587.92 928.73 593.68 C 929.05 596.72 929.34 599.72 929.72 602.78 C 932.71 604.85 936.07 606.82 937.81 610.17 C 940.66 615.39 939.45 621.76 942.09 627.06 C 943.44 629.67 945.37 631.92 947.08 634.30 C 943.51 636.58 940.34 639.41 937.04 642.04 C 930.78 646.71 929.74 655.01 925.96 661.40 C 919.69 662.62 912.97 663.00 907.16 659.77 C 897.71 655.37 890.77 647.33 882.01 641.93 C 877.04 638.86 871.12 638.63 865.47 638.34 C 859.11 633.41 851.31 629.07 848.63 621.00 C 848.97 618.55 849.34 616.10 849.43 613.63 C 853.00 614.24 856.60 614.60 860.23 614.07 C 863.48 612.57 865.71 609.48 868.92 607.92 C 871.32 607.69 873.60 608.82 875.90 609.40 C 878.98 603.89 880.51 597.47 884.67 592.61 C 888.13 589.35 893.12 591.56 897.03 592.64 Z" />
</g>
<g id="#3f4f00fe">
<path fill="#3f4f00" fill-opacity="0" d=" M 1033.57 608.66 C 1039.28 605.69 1044.60 610.30 1049.38 612.82 C 1049.34 617.77 1050.82 622.53 1052.05 627.28 C 1057.40 625.82 1063.29 625.75 1068.38 623.38 C 1070.67 620.54 1071.35 616.79 1072.47 613.40 C 1078.36 616.53 1084.59 619.61 1089.02 624.77 C 1087.51 628.74 1083.81 631.83 1083.71 636.29 C 1083.32 643.34 1084.18 650.97 1079.97 657.13 C 1071.13 662.81 1066.75 673.03 1058.36 679.10 C 1054.56 681.23 1050.56 683.63 1046.09 683.75 C 1041.84 683.37 1041.05 678.34 1039.33 675.28 C 1037.04 669.37 1030.59 666.85 1027.52 661.48 C 1023.62 654.99 1016.13 652.34 1009.88 648.71 C 1012.87 642.01 1018.39 636.09 1017.84 628.22 C 1016.62 625.99 1014.55 624.42 1012.73 622.73 C 1016.17 614.01 1026.51 613.17 1033.57 608.66 Z" />
</g>
<g id="#004fbfff">
<path fill="#004fbf" fill-opacity="0" d=" M 974.82 617.44 C 987.86 613.81 999.47 625.64 1012.73 622.73 C 1014.55 624.42 1016.62 625.99 1017.84 628.22 C 1018.39 636.09 1012.87 642.01 1009.88 648.71 C 1007.35 654.62 1004.24 660.28 1002.22 666.39 C 995.41 667.76 987.71 669.47 981.36 665.65 C 972.66 661.99 967.56 654.04 962.20 646.80 C 958.36 641.68 953.40 637.55 948.32 633.73 C 953.04 631.48 958.05 629.91 962.71 627.51 C 967.43 625.05 970.24 620.04 974.82 617.44 Z" />
</g>
<g id="#00cf7fff">
<path fill="#00cf7f" fill-opacity="0" d=" M 844.49 633.51 C 847.14 629.93 847.65 625.25 848.63 621.00 C 851.31 629.07 859.11 633.41 865.47 638.34 C 866.92 645.79 866.19 653.39 865.32 660.87 C 864.31 661.14 863.31 661.43 862.32 661.73 C 859.89 656.88 857.32 652.04 853.63 648.03 C 851.83 659.88 854.87 671.60 857.92 682.97 C 852.19 680.54 846.72 677.33 840.66 675.88 C 835.52 675.89 831.00 679.01 826.22 680.47 C 815.27 674.86 802.29 672.54 793.26 663.69 C 790.95 661.11 792.12 657.38 792.25 654.29 C 792.99 649.30 792.54 644.07 789.91 639.66 C 793.94 640.75 798.43 642.22 802.48 640.42 C 807.07 637.49 809.03 631.77 813.57 628.75 C 816.66 627.48 819.96 629.17 822.80 630.39 C 829.39 633.69 837.27 636.90 844.49 633.51 Z" />
</g>
<g id="#00cfbffe">
<path fill="#00cfbf" fill-opacity="0" d=" M 778.03 629.07 C 781.94 632.65 785.68 636.44 789.91 639.66 C 792.54 644.07 792.99 649.30 792.25 654.29 C 792.12 657.38 790.95 661.11 793.26 663.69 C 802.29 672.54 815.27 674.86 826.22 680.47 C 829.08 681.73 834.32 684.04 832.30 688.01 C 828.91 692.10 823.75 694.35 820.61 698.74 C 817.83 701.24 815.45 705.09 811.37 705.39 C 800.59 706.04 791.16 698.67 780.34 699.48 C 774.51 700.94 770.91 706.99 764.86 708.03 C 758.06 709.31 751.07 707.60 744.62 705.46 C 742.36 700.25 744.62 694.92 747.34 690.43 C 750.81 683.62 756.33 677.62 757.37 669.79 C 759.29 660.25 759.03 649.31 765.20 641.28 C 769.63 637.38 774.25 633.64 778.03 629.07 Z" />
</g>
<g id="#bf0f3fff">
<path fill="#bf0f3f" fill-opacity="0" d=" M 947.08 634.30 C 947.39 634.16 948.01 633.87 948.32 633.73 C 953.40 637.55 958.36 641.68 962.20 646.80 C 967.56 654.04 972.66 661.99 981.36 665.65 C 987.71 669.47 995.41 667.76 1002.22 666.39 C 1001.00 671.76 1000.95 677.57 1003.32 682.65 C 1006.42 689.79 1009.97 696.88 1010.57 704.80 C 1008.93 709.02 1005.14 711.86 1002.18 715.14 C 1002.54 716.25 1002.90 717.38 1003.28 718.51 C 1006.58 719.31 1010.64 719.09 1013.11 721.80 C 1014.94 725.30 1014.43 729.54 1015.14 733.38 C 1008.00 732.46 1000.65 731.35 994.33 727.67 C 987.45 723.80 980.09 720.87 973.35 716.75 C 966.25 712.87 960.32 706.89 952.50 704.40 C 944.65 701.27 936.21 700.39 928.02 698.67 C 924.28 697.99 923.71 693.57 922.70 690.59 C 924.08 689.65 925.47 688.73 926.87 687.82 C 925.66 684.97 924.50 682.09 923.36 679.25 C 928.55 677.18 934.32 674.82 935.21 668.31 C 932.09 665.98 929.03 663.73 925.96 661.40 C 929.74 655.01 930.78 646.71 937.04 642.04 C 940.34 639.41 943.51 636.58 947.08 634.30 Z" />
</g>
<g id="#7fcfbfff">
<path fill="#7fcfbf" fill-opacity="0" d=" M 1101.44 645.64 C 1108.08 644.03 1113.93 640.45 1119.11 636.09 C 1123.75 637.50 1128.37 640.09 1133.39 639.49 C 1138.75 638.93 1144.03 640.24 1149.26 641.19 C 1149.81 641.30 1150.90 641.52 1151.45 641.62 C 1151.95 647.92 1154.46 654.41 1152.65 660.71 C 1150.06 670.38 1147.22 680.00 1144.70 689.69 C 1143.77 693.60 1140.91 696.49 1138.16 699.22 C 1135.19 702.22 1134.99 706.68 1133.03 710.24 C 1130.38 713.52 1125.55 714.83 1124.10 719.10 C 1122.88 722.34 1120.14 725.78 1116.31 725.36 C 1111.34 724.65 1106.46 722.84 1101.37 723.57 C 1094.55 723.87 1089.21 728.79 1085.16 733.83 C 1084.25 731.42 1083.65 728.92 1083.09 726.43 C 1076.31 724.21 1069.66 721.46 1063.61 717.67 C 1066.92 711.76 1069.68 705.57 1072.61 699.46 C 1073.66 696.91 1075.30 693.96 1073.91 691.22 C 1071.51 689.01 1068.14 688.57 1065.25 687.31 C 1061.59 686.07 1060.25 682.07 1058.36 679.10 C 1066.75 673.03 1071.13 662.81 1079.97 657.13 C 1087.96 654.69 1093.25 647.49 1101.44 645.64 Z" />
</g>
<g id="#7fcf3ffe">
<path fill="#7fcf3f" fill-opacity="0" d=" M 865.47 638.34 C 871.12 638.63 877.04 638.86 882.01 641.93 C 890.77 647.33 897.71 655.37 907.16 659.77 C 912.97 663.00 919.69 662.62 925.96 661.40 C 929.03 663.73 932.09 665.98 935.21 668.31 C 934.32 674.82 928.55 677.18 923.36 679.25 C 924.50 682.09 925.66 684.97 926.87 687.82 C 925.47 688.73 924.08 689.65 922.70 690.59 C 918.95 693.17 914.44 695.88 914.16 701.07 C 911.63 710.36 910.60 719.99 909.91 729.59 C 908.95 734.90 904.95 739.20 904.26 744.62 C 901.16 745.76 898.11 746.99 895.03 748.15 C 895.17 753.91 895.42 759.73 895.67 765.50 C 893.38 767.23 890.87 768.80 889.16 771.16 C 887.21 774.29 887.68 778.19 886.39 781.56 C 883.01 784.17 876.90 784.64 874.11 781.01 C 872.41 776.47 871.91 771.59 870.91 766.86 C 869.24 767.16 867.60 767.49 865.95 767.84 C 865.13 760.03 863.49 752.35 862.33 744.59 C 861.16 739.95 866.69 738.00 869.55 735.62 C 866.62 732.22 862.36 728.90 862.54 723.98 C 862.74 717.85 864.20 711.71 863.27 705.56 C 862.58 697.79 859.74 690.49 857.92 682.97 C 854.87 671.60 851.83 659.88 853.63 648.03 C 857.32 652.04 859.89 656.88 862.32 661.73 C 863.31 661.43 864.31 661.14 865.32 660.87 C 866.19 653.39 866.92 645.79 865.47 638.34 Z" />
</g>
<g id="#3f0f3fff">
<path fill="#3f0f3f" fill-opacity="0" d=" M 1002.22 666.39 C 1004.24 660.28 1007.35 654.62 1009.88 648.71 C 1016.13 652.34 1023.62 654.99 1027.52 661.48 C 1030.59 666.85 1037.04 669.37 1039.33 675.28 C 1041.05 678.34 1041.84 683.37 1046.09 683.75 C 1050.56 683.63 1054.56 681.23 1058.36 679.10 C 1060.25 682.07 1061.59 686.07 1065.25 687.31 C 1068.14 688.57 1071.51 689.01 1073.91 691.22 C 1075.30 693.96 1073.66 696.91 1072.61 699.46 C 1069.68 705.57 1066.92 711.76 1063.61 717.67 C 1057.55 714.35 1055.26 707.52 1053.01 701.45 C 1049.56 700.99 1046.19 700.67 1042.74 700.65 C 1044.45 705.93 1046.33 711.17 1047.93 716.51 C 1045.19 719.30 1042.28 722.13 1040.89 725.87 C 1038.53 731.94 1039.33 738.63 1040.08 744.96 C 1032.83 744.11 1025.38 743.98 1018.46 741.46 C 1015.20 740.22 1015.71 736.24 1015.14 733.38 C 1014.43 729.54 1014.94 725.30 1013.11 721.80 C 1010.64 719.09 1006.58 719.31 1003.28 718.51 C 1002.90 717.38 1002.54 716.25 1002.18 715.14 C 1005.14 711.86 1008.93 709.02 1010.57 704.80 C 1009.97 696.88 1006.42 689.79 1003.32 682.65 C 1000.95 677.57 1001.00 671.76 1002.22 666.39 Z" />
</g>
<g id="#3f8fbfff">
<path fill="#3f8fbf" fill-opacity="0" d=" M 826.22 680.47 C 831.00 679.01 835.52 675.89 840.66 675.88 C 846.72 677.33 852.19 680.54 857.92 682.97 C 859.74 690.49 862.58 697.79 863.27 705.56 C 864.20 711.71 862.74 717.85 862.54 723.98 C 862.36 728.90 866.62 732.22 869.55 735.62 C 866.69 738.00 861.16 739.95 862.33 744.59 C 863.49 752.35 865.13 760.03 865.95 767.84 C 863.64 769.07 861.43 770.57 858.92 771.34 C 855.09 770.61 851.84 768.19 848.24 766.80 C 846.64 759.97 845.80 752.95 843.62 746.28 C 840.15 737.14 826.83 735.31 826.04 724.60 C 822.98 716.26 819.07 707.92 820.61 698.74 C 823.75 694.35 828.91 692.10 832.30 688.01 C 834.32 684.04 829.08 681.73 826.22 680.47 Z" />
</g>
<g id="#bfcf00ff">
<path fill="#bfcf00" fill-opacity="0" d=" M 727.72 682.75 C 733.66 680.34 736.51 686.77 740.32 689.77 C 742.12 691.97 745.01 690.60 747.34 690.43 C 744.62 694.92 742.36 700.25 744.62 705.46 C 746.32 708.95 748.29 712.29 750.15 715.70 C 745.70 719.29 740.74 722.77 738.13 728.02 C 736.65 732.51 738.06 737.31 738.47 741.88 C 731.05 745.64 725.62 751.90 719.48 757.28 C 716.51 760.67 711.79 759.24 708.27 757.85 C 698.75 753.89 690.44 747.49 680.79 743.78 C 682.10 743.07 683.42 742.38 684.75 741.71 C 682.08 736.16 679.26 730.64 677.36 724.77 C 675.69 719.74 677.05 714.37 677.34 709.27 C 677.65 704.93 680.93 701.75 682.85 698.09 C 684.56 695.12 686.39 691.30 690.17 690.75 C 697.65 691.32 705.60 696.03 712.95 691.93 C 718.87 690.53 722.43 685.23 727.72 682.75 Z" />
</g>
<g id="#7f8f3fff">
<path fill="#7f8f3f" fill-opacity="0" d=" M 914.16 701.07 C 914.44 695.88 918.95 693.17 922.70 690.59 C 923.71 693.57 924.28 697.99 928.02 698.67 C 936.21 700.39 944.65 701.27 952.50 704.40 C 960.32 706.89 966.25 712.87 973.35 716.75 C 974.33 720.64 975.35 724.55 975.34 728.61 C 973.63 734.48 967.57 737.70 962.77 740.66 C 953.06 743.57 943.12 739.80 933.29 741.14 C 934.94 748.08 942.09 752.97 940.30 760.78 C 938.26 768.92 938.19 777.32 938.92 785.65 C 932.32 784.99 927.23 789.04 922.02 792.24 C 916.77 794.07 912.41 788.54 911.25 783.97 C 909.51 776.16 905.62 768.80 905.38 760.69 C 905.14 755.32 903.94 750.00 904.26 744.62 C 904.95 739.20 908.95 734.90 909.91 729.59 C 910.60 719.99 911.63 710.36 914.16 701.07 Z" />
</g>
<g id="#bf4fbfff">
<path fill="#bf4fbf" fill-opacity="0" d=" M 764.86 708.03 C 770.91 706.99 774.51 700.94 780.34 699.48 C 791.16 698.67 800.59 706.04 811.37 705.39 C 815.45 705.09 817.83 701.24 820.61 698.74 C 819.07 707.92 822.98 716.26 826.04 724.60 C 826.83 735.31 840.15 737.14 843.62 746.28 C 845.80 752.95 846.64 759.97 848.24 766.80 C 845.52 770.42 843.55 775.60 838.67 776.70 C 833.97 777.78 833.90 769.79 829.25 770.21 C 825.53 769.80 822.76 772.90 822.33 776.53 C 821.28 780.55 816.78 781.16 814.03 783.55 C 813.18 785.68 812.99 788.00 812.58 790.25 C 803.81 793.42 793.35 798.49 784.25 793.76 C 780.32 792.15 779.92 787.35 778.29 783.99 C 774.70 785.03 771.95 787.49 769.40 790.06 C 768.42 783.87 765.97 778.05 763.31 772.42 C 760.57 766.83 760.59 760.38 758.56 754.56 C 754.06 753.57 749.04 754.64 744.93 752.14 C 741.09 750.15 739.50 745.80 738.47 741.88 C 738.06 737.31 736.65 732.51 738.13 728.02 C 740.74 722.77 745.70 719.29 750.15 715.70 C 748.29 712.29 746.32 708.95 744.62 705.46 C 751.07 707.60 758.06 709.31 764.86 708.03 Z" />
</g>
<g id="#3f4f7fff">
<path fill="#3f4f7f" fill-opacity="0" d=" M 1042.74 700.65 C 1046.19 700.67 1049.56 700.99 1053.01 701.45 C 1055.26 707.52 1057.55 714.35 1063.61 717.67 C 1069.66 721.46 1076.31 724.21 1083.09 726.43 C 1083.65 728.92 1084.25 731.42 1085.16 733.83 C 1090.21 742.62 1096.80 750.86 1099.19 760.94 C 1100.74 768.06 1105.82 773.50 1109.38 779.63 C 1112.00 784.10 1113.19 789.40 1116.65 793.38 C 1119.31 796.10 1122.84 797.67 1126.05 799.70 C 1125.97 808.97 1124.16 818.22 1120.60 826.78 C 1119.08 830.10 1115.48 831.59 1112.45 833.17 C 1112.74 831.56 1113.02 829.96 1113.31 828.36 C 1108.50 826.04 1103.76 823.42 1098.53 822.19 C 1090.87 820.56 1083.01 821.96 1075.34 820.58 C 1066.48 819.06 1057.43 819.49 1048.55 818.18 C 1051.07 815.17 1053.52 812.10 1055.82 808.92 C 1046.94 804.58 1037.39 801.93 1027.76 799.91 C 1032.49 795.54 1038.08 791.52 1040.97 785.60 C 1042.25 780.30 1041.27 774.77 1041.53 769.37 C 1041.83 761.20 1041.45 753.01 1040.08 744.96 C 1039.33 738.63 1038.53 731.94 1040.89 725.87 C 1042.28 722.13 1045.19 719.30 1047.93 716.51 C 1046.33 711.17 1044.45 705.93 1042.74 700.65 Z" />
</g>
<g id="#3f4f3fff">
<path fill="#3f4f3f" fill-opacity="0" d=" M 973.35 716.75 C 980.09 720.87 987.45 723.80 994.33 727.67 C 1000.65 731.35 1008.00 732.46 1015.14 733.38 C 1015.71 736.24 1015.20 740.22 1018.46 741.46 C 1025.38 743.98 1032.83 744.11 1040.08 744.96 C 1041.45 753.01 1041.83 761.20 1041.53 769.37 C 1041.27 774.77 1042.25 780.30 1040.97 785.60 C 1038.08 791.52 1032.49 795.54 1027.76 799.91 C 1017.40 808.05 1003.38 809.46 990.72 807.55 C 990.41 812.41 990.25 817.27 990.08 822.14 C 988.00 820.58 985.97 818.97 983.91 817.40 C 976.49 818.72 969.10 816.73 961.96 815.00 C 960.16 814.24 957.10 813.67 957.42 811.14 C 957.10 804.17 958.00 797.18 957.30 790.22 C 954.00 786.75 948.99 785.65 944.98 783.17 C 942.96 784.00 940.94 784.84 938.92 785.65 C 938.19 777.32 938.26 768.92 940.30 760.78 C 942.09 752.97 934.94 748.08 933.29 741.14 C 943.12 739.80 953.06 743.57 962.77 740.66 C 967.57 737.70 973.63 734.48 975.34 728.61 C 975.35 724.55 974.33 720.64 973.35 716.75 Z" />
</g>
<g id="#004f3fff">
<path fill="#004f3f" fill-opacity="0" d=" M 719.48 757.28 C 725.62 751.90 731.05 745.64 738.47 741.88 C 739.50 745.80 741.09 750.15 744.93 752.14 C 749.04 754.64 754.06 753.57 758.56 754.56 C 760.59 760.38 760.57 766.83 763.31 772.42 C 765.97 778.05 768.42 783.87 769.40 790.06 C 769.51 792.50 767.65 794.42 766.18 796.16 C 761.88 800.66 757.05 804.62 752.67 809.05 C 752.57 812.36 752.35 815.68 751.53 818.90 C 748.34 816.83 745.03 814.23 741.02 814.35 C 733.04 814.09 725.91 818.25 718.85 821.39 C 715.04 816.07 714.23 808.97 709.64 804.24 C 701.44 802.64 692.04 807.80 684.52 802.50 C 680.95 798.10 678.67 792.76 676.33 787.64 C 673.96 783.10 676.05 778.10 675.74 773.31 C 675.28 767.22 680.02 761.77 678.47 755.68 C 677.77 751.48 675.27 745.46 680.79 743.78 C 690.44 747.49 698.75 753.89 708.27 757.85 C 711.79 759.24 716.51 760.67 719.48 757.28 Z" />
</g>
<g id="#7f0fbfff">
<path fill="#7f0fbf" fill-opacity="0" d=" M 990.72 807.55 C 1003.38 809.46 1017.40 808.05 1027.76 799.91 C 1037.39 801.93 1046.94 804.58 1055.82 808.92 C 1053.52 812.10 1051.07 815.17 1048.55 818.18 C 1057.43 819.49 1066.48 819.06 1075.34 820.58 C 1083.01 821.96 1090.87 820.56 1098.53 822.19 C 1103.76 823.42 1108.50 826.04 1113.31 828.36 C 1113.02 829.96 1112.74 831.56 1112.45 833.17 C 1110.82 839.73 1109.07 846.28 1107.03 852.74 C 1103.41 851.42 1099.72 850.29 1095.95 849.53 C 1095.84 855.68 1093.15 862.51 1096.61 868.22 C 1093.77 871.18 1090.96 874.34 1087.20 876.15 C 1082.84 878.55 1077.69 879.59 1073.88 882.92 C 1070.72 886.44 1070.43 891.47 1069.62 895.93 C 1067.35 892.67 1064.49 889.91 1061.31 887.58 C 1060.39 892.47 1059.53 897.38 1058.70 902.31 C 1053.87 901.81 1048.88 901.44 1044.33 899.73 C 1041.65 894.77 1039.49 889.51 1035.81 885.18 C 1033.06 882.06 1033.82 877.77 1034.55 874.07 C 1028.29 866.48 1020.86 859.30 1018.38 849.41 C 1016.52 848.60 1014.68 847.79 1012.85 846.97 C 1011.47 849.59 1010.12 852.23 1008.79 854.88 C 1006.17 853.65 1003.07 851.39 1000.17 853.20 C 996.59 854.98 992.33 858.61 988.29 855.75 C 986.54 851.72 987.43 847.11 987.45 842.84 C 987.37 835.81 990.50 829.20 990.08 822.14 C 990.25 817.27 990.41 812.41 990.72 807.55 Z" />
</g>
<g id="#3f4fbffe">
<path fill="#3f4fbf" fill-opacity="0" d=" M 1087.20 876.15 C 1090.96 874.34 1093.77 871.18 1096.61 868.22 C 1101.39 871.62 1107.91 874.33 1109.45 880.63 C 1111.83 889.02 1120.54 893.04 1127.98 896.12 C 1126.55 900.98 1125.10 905.86 1123.86 910.79 C 1125.67 912.02 1127.50 913.24 1129.35 914.46 C 1127.07 927.14 1119.46 937.62 1113.69 948.84 C 1107.22 948.05 1102.12 943.89 1097.01 940.27 C 1093.93 940.81 1090.63 942.25 1087.54 941.15 C 1084.32 938.53 1080.47 936.28 1078.67 932.38 C 1076.45 928.10 1073.17 924.57 1070.17 920.85 C 1067.52 917.45 1069.45 913.06 1069.72 909.24 C 1070.64 904.79 1068.69 900.37 1069.62 895.93 C 1070.43 891.47 1070.72 886.44 1073.88 882.92 C 1077.69 879.59 1082.84 878.55 1087.20 876.15 M 1086.32 911.33 C 1084.99 912.25 1086.56 914.50 1087.88 913.48 C 1089.18 912.52 1087.62 910.25 1086.32 911.33 Z" />
</g>
<g id="#bfcf3fff">
<path fill="#bfcf3f" fill-opacity="0" d=" M 1086.32 911.33 C 1087.62 910.25 1089.18 912.52 1087.88 913.48 C 1086.56 914.50 1084.99 912.25 1086.32 911.33 Z" />
</g>
</svg>
