<?xml version="1.0" encoding="UTF-8" ?>
<!DOCTYPE svg PUBLIC "-//W3C//DTD SVG 1.1//EN" "http://www.w3.org/Graphics/SVG/1.1/DTD/svg11.dtd">
<svg width="1920pt" height="1080pt" viewBox="0 0 1920 1080" version="1.1" xmlns="http://www.w3.org/2000/svg">
<g id="#5f003fff">
<path fill="#5f003f" fill-opacity="0" d=" M 891.48 204.51 C 899.27 197.59 907.03 186.75 918.92 189.30 C 928.11 191.09 937.48 190.18 946.77 190.44 C 952.53 194.81 957.14 200.68 963.60 204.29 C 963.24 209.38 963.90 214.75 967.05 218.97 C 973.75 228.12 971.52 239.80 971.40 250.32 C 971.36 254.52 970.80 259.07 973.08 262.84 C 978.15 271.77 986.65 278.43 990.27 288.26 C 991.10 293.92 990.31 299.62 989.92 305.28 C 997.74 308.32 1006.31 307.70 1014.53 307.82 C 1014.63 316.71 1017.79 329.70 1008.01 335.03 C 1001.75 338.95 994.46 342.23 986.91 341.52 C 981.13 340.61 975.70 338.30 970.06 336.86 C 963.76 335.43 957.25 336.43 950.90 336.44 C 946.52 333.88 943.72 329.22 939.78 326.09 C 930.63 330.88 921.38 336.21 910.96 337.58 C 898.40 339.23 891.79 352.77 879.36 354.87 C 875.45 346.27 872.39 337.30 867.86 329.00 C 863.78 320.05 858.02 311.95 854.43 302.77 C 852.32 298.81 854.43 294.35 855.38 290.43 C 857.09 284.31 860.48 278.47 865.80 274.82 C 868.82 272.33 873.05 270.21 873.79 265.99 C 873.50 262.02 868.74 260.84 865.48 260.21 C 861.19 258.45 857.64 261.03 854.86 263.78 C 854.37 257.31 853.50 250.82 853.74 244.35 C 857.95 237.79 865.66 235.57 872.14 232.02 C 871.74 226.11 870.66 220.21 870.75 214.29 C 872.76 210.63 876.30 208.17 879.40 205.49 C 883.22 205.22 888.41 208.22 891.48 204.51 Z" />
</g>
<g id="#5f3f3fff">
<path fill="#5f3f3f" fill-opacity="0" d=" M 661.23 243.26 C 667.58 240.19 673.06 233.87 680.82 235.25 C 686.68 237.74 690.68 243.35 696.57 245.84 C 704.73 247.79 713.02 244.57 721.24 245.53 C 724.42 246.83 726.83 249.51 729.55 251.59 C 733.57 245.19 738.68 238.99 746.60 237.42 C 753.78 234.01 761.28 238.75 766.56 243.46 C 772.15 248.78 778.71 253.24 783.54 259.31 C 786.35 263.77 788.62 268.52 791.17 273.13 C 782.38 283.66 767.84 285.24 756.60 292.10 C 760.33 295.40 764.08 298.72 767.28 302.56 C 757.11 307.34 746.77 311.88 735.91 314.85 C 728.00 317.03 721.15 321.74 714.75 326.72 C 710.65 329.65 708.44 334.40 706.91 339.07 C 705.47 344.51 709.51 349.33 710.20 354.57 C 710.79 357.24 711.81 361.76 708.47 363.24 C 704.46 366.37 697.13 367.23 696.59 373.29 C 696.83 387.08 706.20 399.49 703.44 413.53 C 698.09 422.40 691.10 430.59 688.72 440.95 C 683.18 444.97 678.08 449.54 672.69 453.75 C 669.41 456.46 663.97 455.97 661.27 452.70 C 656.80 446.79 655.63 439.26 651.96 432.94 C 650.57 430.44 647.21 430.27 644.72 430.77 C 639.36 431.93 634.26 434.00 629.04 435.66 C 625.40 433.75 621.82 431.74 618.24 429.73 C 621.07 425.18 624.28 420.68 629.00 417.92 C 633.98 415.25 637.98 410.99 639.74 405.51 C 641.87 399.41 636.37 394.05 633.90 389.06 C 627.92 380.31 626.91 369.50 623.61 359.66 C 621.22 352.59 613.23 350.51 607.26 347.43 C 607.23 346.01 607.18 343.17 607.15 341.76 C 611.15 340.12 615.61 338.99 618.89 336.06 C 620.86 330.12 617.33 323.44 619.53 317.49 C 622.93 310.62 628.37 305.09 633.88 299.89 C 640.06 294.28 648.11 291.47 655.73 288.39 C 653.92 283.71 650.80 279.71 647.53 275.96 C 649.99 267.52 647.54 257.25 639.31 253.00 C 646.07 248.47 654.48 247.84 661.23 243.26 Z" />
</g>
<g id="#1fbfbffe">
<path fill="#1fbfbf" fill-opacity="0" d=" M 599.97 250.94 C 605.67 247.70 611.48 243.28 618.52 244.70 C 620.20 251.89 623.05 258.88 627.52 264.81 C 631.71 261.14 635.70 257.25 639.31 253.00 C 647.54 257.25 649.99 267.52 647.53 275.96 C 650.80 279.71 653.92 283.71 655.73 288.39 C 648.11 291.47 640.06 294.28 633.88 299.89 C 628.37 305.09 622.93 310.62 619.53 317.49 C 617.33 323.44 620.86 330.12 618.89 336.06 C 615.61 338.99 611.15 340.12 607.15 341.76 C 607.18 343.17 607.23 346.01 607.26 347.43 C 613.23 350.51 621.22 352.59 623.61 359.66 C 626.91 369.50 627.92 380.31 633.90 389.06 C 636.37 394.05 641.87 399.41 639.74 405.51 C 637.98 410.99 633.98 415.25 629.00 417.92 C 624.28 420.68 621.07 425.18 618.24 429.73 C 615.62 433.17 612.20 437.05 607.53 437.15 C 601.53 437.30 594.35 436.74 590.28 442.28 C 584.57 447.73 588.89 455.95 591.07 462.12 C 585.79 457.82 581.81 452.11 579.15 445.87 C 576.75 439.63 569.81 436.64 567.77 430.13 C 561.85 416.48 557.31 402.23 550.65 388.88 C 544.79 377.88 540.94 365.99 535.71 354.70 C 533.93 349.75 530.91 344.91 531.11 339.51 C 533.11 330.17 534.72 320.75 535.48 311.22 C 543.45 307.45 552.29 304.08 557.76 296.78 C 562.67 290.71 567.51 284.55 573.31 279.29 C 581.81 269.57 588.19 257.24 599.97 250.94 Z" />
</g>
<g id="#df003fff">
<path fill="#df003f" fill-opacity="0" d=" M 783.54 259.31 C 797.63 267.63 814.87 267.04 830.63 265.58 C 835.92 265.53 839.98 271.57 845.58 268.61 C 849.07 267.98 852.27 266.18 854.86 263.78 C 857.64 261.03 861.19 258.45 865.48 260.21 C 868.74 260.84 873.50 262.02 873.79 265.99 C 873.05 270.21 868.82 272.33 865.80 274.82 C 860.48 278.47 857.09 284.31 855.38 290.43 C 854.43 294.35 852.32 298.81 854.43 302.77 C 858.02 311.95 863.78 320.05 867.86 329.00 C 872.39 337.30 875.45 346.27 879.36 354.87 C 872.15 357.29 865.95 361.86 859.12 365.12 C 851.03 369.33 841.86 371.75 834.96 377.98 C 828.41 383.11 825.20 391.05 820.79 397.87 C 816.92 403.47 815.11 410.17 814.08 416.82 C 811.59 420.37 809.39 424.26 806.05 427.10 C 800.15 431.57 792.56 432.20 785.95 435.16 C 781.27 437.03 775.89 439.78 770.95 437.11 C 764.19 433.66 756.87 431.39 749.22 431.48 C 747.09 433.60 745.06 435.99 742.29 437.30 C 736.03 437.92 729.94 436.23 723.74 435.81 C 720.81 435.48 718.56 437.79 716.63 439.62 C 709.92 446.28 701.90 451.94 697.60 460.65 C 692.80 461.00 688.02 461.56 683.23 461.94 C 686.25 457.77 690.56 454.48 692.71 449.74 C 692.89 446.38 690.34 443.66 688.72 440.95 C 691.10 430.59 698.09 422.40 703.44 413.53 C 706.20 399.49 696.83 387.08 696.59 373.29 C 697.13 367.23 704.46 366.37 708.47 363.24 C 711.81 361.76 710.79 357.24 710.20 354.57 C 709.51 349.33 705.47 344.51 706.91 339.07 C 708.44 334.40 710.65 329.65 714.75 326.72 C 721.15 321.74 728.00 317.03 735.91 314.85 C 746.77 311.88 757.11 307.34 767.28 302.56 C 764.08 298.72 760.33 295.40 756.60 292.10 C 767.84 285.24 782.38 283.66 791.17 273.13 C 788.62 268.52 786.35 263.77 783.54 259.31 M 763.44 358.91 C 764.94 362.49 766.76 365.93 768.43 369.43 C 773.50 369.07 777.39 365.91 780.86 362.59 C 776.21 358.29 769.41 356.67 763.44 358.91 Z" />
</g>
<g id="#5fbf3fff">
<path fill="#5fbf3f" fill-opacity="0" d=" M 1014.50 307.13 C 1022.80 307.52 1031.12 307.61 1039.42 307.44 C 1047.37 306.79 1055.26 309.26 1062.29 312.78 C 1065.18 316.67 1065.70 321.75 1068.30 325.81 C 1072.20 332.43 1078.57 336.81 1083.92 342.12 C 1091.96 350.06 1100.27 357.78 1107.41 366.56 C 1110.21 370.15 1114.13 372.47 1117.97 374.78 C 1111.40 382.13 1105.02 392.61 1109.38 402.66 C 1114.38 411.72 1124.58 415.67 1132.66 421.27 C 1131.67 425.23 1129.98 428.95 1128.07 432.54 C 1127.96 431.95 1127.74 430.78 1127.63 430.19 C 1122.02 432.71 1116.27 434.91 1110.85 437.82 C 1113.69 442.94 1115.55 448.47 1116.88 454.16 C 1111.41 454.54 1106.23 456.38 1101.21 458.43 C 1104.61 463.33 1109.49 467.18 1112.30 472.46 C 1112.63 477.11 1109.75 481.29 1108.39 485.62 C 1100.28 481.28 1090.60 483.68 1082.37 479.77 C 1072.43 475.29 1062.02 469.63 1050.67 472.17 C 1046.18 472.69 1042.23 476.03 1037.62 475.41 C 1032.78 473.39 1028.27 470.19 1025.39 465.74 C 1021.76 460.15 1016.95 455.45 1013.22 449.95 C 1010.65 445.95 1009.87 440.93 1006.65 437.35 C 1003.40 434.68 998.95 434.47 995.00 433.65 C 996.49 431.61 998.06 429.46 998.55 426.94 C 998.17 423.84 995.15 420.84 991.87 421.41 C 986.54 422.04 981.62 424.36 976.66 426.23 C 973.45 420.01 971.78 412.42 974.62 405.77 C 976.56 400.02 980.79 395.20 982.10 389.24 C 982.32 382.65 979.86 376.36 977.89 370.18 C 974.18 359.37 971.04 348.29 970.06 336.86 C 975.70 338.30 981.13 340.61 986.91 341.52 C 994.46 342.23 1001.75 338.95 1008.01 335.03 C 1017.79 329.70 1014.63 316.71 1014.53 307.82 L 1014.50 307.13 Z" />
</g>
<g id="#9fbfbfff">
<path fill="#9fbfbf" fill-opacity="0" d=" M 939.78 326.09 C 943.72 329.22 946.52 333.88 950.90 336.44 C 957.25 336.43 963.76 335.43 970.06 336.86 C 971.04 348.29 974.18 359.37 977.89 370.18 C 979.86 376.36 982.32 382.65 982.10 389.24 C 980.79 395.20 976.56 400.02 974.62 405.77 C 971.78 412.42 973.45 420.01 976.66 426.23 C 981.62 424.36 986.54 422.04 991.87 421.41 C 995.15 420.84 998.17 423.84 998.55 426.94 C 998.06 429.46 996.49 431.61 995.00 433.65 C 989.51 437.05 983.51 439.42 977.37 441.33 C 970.94 443.21 966.55 449.17 959.77 450.20 C 957.29 450.98 953.02 450.83 952.90 454.34 C 952.31 461.87 950.10 469.41 945.29 475.36 C 939.40 474.98 933.50 474.51 927.60 474.86 C 923.95 475.23 920.76 473.13 918.10 470.91 C 913.52 467.06 908.40 463.82 904.51 459.22 C 900.63 454.60 893.69 455.22 888.45 456.58 C 884.46 457.15 880.05 460.23 875.99 458.19 C 869.81 455.38 863.59 452.66 857.14 450.55 C 855.10 455.88 853.07 461.22 851.06 466.57 C 854.14 468.75 857.28 470.96 860.36 473.19 C 851.36 477.99 841.29 474.92 831.74 475.55 C 828.52 478.00 826.58 481.80 824.00 484.85 C 815.83 474.51 807.82 462.48 808.47 448.74 C 808.94 437.88 814.03 427.76 814.08 416.82 C 815.11 410.17 816.92 403.47 820.79 397.87 C 825.20 391.05 828.41 383.11 834.96 377.98 C 841.86 371.75 851.03 369.33 859.12 365.12 C 865.95 361.86 872.15 357.29 879.36 354.87 C 891.79 352.77 898.40 339.23 910.96 337.58 C 921.38 336.21 930.63 330.88 939.78 326.09 Z" />
</g>
<g id="#5f7f3fff">
<path fill="#5f7f3f" fill-opacity="0" d=" M 763.44 358.91 C 769.41 356.67 776.21 358.29 780.86 362.59 C 777.39 365.91 773.50 369.07 768.43 369.43 C 766.76 365.93 764.94 362.49 763.44 358.91 Z" />
</g>
<g id="#1f00bfff">
<path fill="#1f00bf" fill-opacity="0" d=" M 1146.00 363.02 C 1151.04 360.52 1157.44 357.68 1162.78 361.20 C 1169.29 367.09 1173.83 374.79 1180.00 381.01 C 1183.31 384.42 1188.33 386.27 1190.70 390.51 C 1191.70 393.22 1192.71 395.94 1193.74 398.67 C 1198.33 398.91 1205.07 397.37 1207.16 402.98 C 1211.33 407.81 1205.97 413.24 1204.62 417.90 C 1203.11 421.16 1199.20 422.00 1196.24 423.40 C 1189.92 425.75 1183.92 428.83 1177.94 431.92 C 1174.90 429.10 1172.36 425.60 1168.63 423.65 C 1165.00 422.53 1161.24 422.09 1157.58 421.36 C 1158.19 424.85 1159.81 428.68 1158.08 432.11 C 1157.16 434.87 1154.74 437.75 1156.08 440.76 C 1158.18 445.34 1163.61 446.68 1166.84 450.24 C 1166.74 453.31 1164.08 456.05 1164.96 459.15 C 1167.61 463.90 1171.45 467.91 1175.30 471.74 C 1172.49 475.76 1169.11 479.36 1165.14 482.25 C 1159.69 485.25 1158.82 491.77 1157.07 497.07 C 1154.98 505.07 1151.25 512.68 1150.23 520.92 C 1151.48 529.62 1157.76 536.52 1161.54 544.23 C 1157.60 546.66 1153.53 548.88 1149.33 550.84 C 1152.53 555.34 1156.91 558.77 1161.47 561.79 C 1159.38 565.74 1156.88 569.53 1153.68 572.64 C 1149.40 576.26 1143.89 577.96 1139.00 580.47 C 1139.78 585.64 1139.60 591.20 1142.21 595.91 C 1144.84 601.34 1150.79 603.87 1154.28 608.63 C 1155.94 611.97 1156.23 615.87 1156.96 619.51 C 1154.15 619.11 1151.15 618.19 1148.43 619.42 C 1143.28 621.72 1140.12 627.00 1134.94 629.23 C 1129.14 630.12 1127.56 623.88 1124.04 620.86 C 1119.56 617.15 1111.87 614.70 1107.08 619.04 C 1103.05 622.16 1098.91 626.86 1093.40 626.46 C 1083.65 620.70 1079.54 609.37 1072.85 600.77 C 1080.97 597.22 1092.16 596.79 1097.57 588.78 C 1097.84 579.48 1094.55 569.80 1087.68 563.33 C 1081.25 557.39 1078.55 548.80 1075.04 541.06 C 1073.29 535.93 1070.98 530.06 1073.76 524.88 C 1077.89 516.34 1090.09 517.01 1094.40 508.51 C 1098.55 500.50 1106.11 494.64 1108.39 485.62 C 1109.75 481.29 1112.63 477.11 1112.30 472.46 C 1109.49 467.18 1104.61 463.33 1101.21 458.43 C 1106.23 456.38 1111.41 454.54 1116.88 454.16 C 1115.55 448.47 1113.69 442.94 1110.85 437.82 C 1116.27 434.91 1122.02 432.71 1127.63 430.19 C 1127.74 430.78 1127.96 431.95 1128.07 432.54 C 1129.98 428.95 1131.67 425.23 1132.66 421.27 C 1124.58 415.67 1114.38 411.72 1109.38 402.66 C 1105.02 392.61 1111.40 382.13 1117.97 374.78 C 1128.72 374.89 1136.64 366.98 1146.00 363.02 Z" />
</g>
<g id="#df7fbfff">
<path fill="#df7fbf" fill-opacity="0" d=" M 1206.45 380.41 C 1210.12 375.35 1214.37 369.40 1220.90 368.16 C 1229.39 368.81 1224.48 380.82 1231.12 383.90 C 1236.17 386.26 1242.12 386.91 1247.64 386.46 C 1252.97 383.79 1256.77 378.39 1263.10 377.58 C 1266.54 381.96 1269.07 387.68 1274.28 390.27 C 1285.13 394.03 1297.10 393.31 1308.08 390.33 C 1313.86 396.73 1314.69 405.45 1317.00 413.37 C 1320.85 423.41 1325.25 434.18 1333.97 440.95 C 1341.17 443.13 1348.95 443.28 1356.02 446.12 C 1354.76 451.66 1353.77 457.49 1356.19 462.96 C 1359.46 471.48 1362.53 480.09 1365.84 488.60 C 1356.46 492.35 1346.79 495.35 1337.04 497.95 C 1335.28 495.74 1333.51 493.54 1331.77 491.33 C 1327.10 492.43 1322.49 494.04 1317.69 494.42 C 1312.44 494.76 1309.80 489.06 1306.45 486.06 C 1301.33 487.67 1294.57 488.44 1292.12 494.08 C 1290.04 497.41 1290.35 501.46 1291.16 505.12 C 1286.45 504.03 1281.11 503.47 1277.36 500.10 C 1274.43 496.66 1272.73 491.92 1268.49 489.76 C 1262.90 489.28 1257.42 492.15 1251.83 491.38 C 1248.47 489.92 1246.57 486.53 1244.38 483.79 C 1240.60 484.45 1235.95 483.16 1232.57 485.46 C 1229.17 489.67 1226.02 494.10 1222.15 497.91 C 1214.73 494.84 1207.00 492.58 1199.70 489.21 C 1190.23 485.49 1182.94 478.17 1175.30 471.74 C 1171.45 467.91 1167.61 463.90 1164.96 459.15 C 1164.08 456.05 1166.74 453.31 1166.84 450.24 C 1163.61 446.68 1158.18 445.34 1156.08 440.76 C 1154.74 437.75 1157.16 434.87 1158.08 432.11 C 1159.81 428.68 1158.19 424.85 1157.58 421.36 C 1161.24 422.09 1165.00 422.53 1168.63 423.65 C 1172.36 425.60 1174.90 429.10 1177.94 431.92 C 1183.92 428.83 1189.92 425.75 1196.24 423.40 C 1199.20 422.00 1203.11 421.16 1204.62 417.90 C 1205.97 413.24 1211.33 407.81 1207.16 402.98 C 1205.07 397.37 1198.33 398.91 1193.74 398.67 C 1192.71 395.94 1191.70 393.22 1190.70 390.51 C 1196.49 388.21 1202.99 386.02 1206.45 380.41 Z" />
</g>
<g id="#1f3f3fff">
<path fill="#1f3f3f" fill-opacity="0" d=" M 806.05 427.10 C 809.39 424.26 811.59 420.37 814.08 416.82 C 814.03 427.76 808.94 437.88 808.47 448.74 C 807.82 462.48 815.83 474.51 824.00 484.85 C 819.76 494.34 810.93 500.62 802.01 505.37 C 802.11 506.70 802.22 508.04 802.35 509.39 C 805.27 509.68 808.34 510.07 811.32 510.41 C 814.22 513.80 816.22 518.77 820.92 520.15 C 824.79 521.99 828.86 520.01 832.64 518.99 C 836.52 524.28 839.29 530.35 843.55 535.35 C 847.41 537.81 852.25 538.26 856.00 540.98 C 860.08 543.94 864.81 546.72 867.32 551.28 C 865.74 559.65 857.41 564.40 853.56 571.60 C 847.79 578.71 850.27 588.41 848.35 596.68 C 847.01 602.06 842.03 604.84 837.48 607.10 C 833.88 604.77 830.54 599.68 825.80 601.41 C 819.53 603.21 813.42 606.11 808.42 610.31 C 803.13 619.21 799.75 629.29 799.72 639.73 C 794.10 641.51 788.65 646.88 782.45 644.54 C 773.55 641.11 763.82 638.11 757.70 630.27 C 752.78 623.20 752.76 613.94 754.73 605.85 C 755.95 598.98 756.76 591.60 754.09 584.97 C 752.28 575.67 741.66 572.38 738.69 563.73 C 736.40 559.04 735.18 553.57 731.18 549.94 C 729.30 547.90 726.59 546.42 725.47 543.82 C 724.74 536.29 729.89 528.40 726.03 521.12 C 723.48 514.28 716.19 511.69 710.66 507.80 C 714.03 503.82 717.69 499.91 722.48 497.64 C 725.89 495.98 730.02 493.80 730.06 489.43 C 729.71 485.55 727.25 482.10 724.47 479.51 C 720.28 475.48 713.77 474.48 710.49 469.48 C 707.08 465.51 703.60 459.80 697.60 460.65 C 701.90 451.94 709.92 446.28 716.63 439.62 C 718.56 437.79 720.81 435.48 723.74 435.81 C 729.94 436.23 736.03 437.92 742.29 437.30 C 745.06 435.99 747.09 433.60 749.22 431.48 C 756.87 431.39 764.19 433.66 770.95 437.11 C 775.89 439.78 781.27 437.03 785.95 435.16 C 792.56 432.20 800.15 431.57 806.05 427.10 Z" />
</g>
<g id="#9f7fbfff">
<path fill="#9f7fbf" fill-opacity="0" d=" M 607.53 437.15 C 612.20 437.05 615.62 433.17 618.24 429.73 C 621.82 431.74 625.40 433.75 629.04 435.66 C 634.35 447.24 645.96 453.99 651.78 465.29 C 648.37 468.65 645.23 472.92 640.32 474.06 C 635.05 475.09 629.72 473.11 624.45 473.62 C 620.88 476.13 620.33 481.51 623.10 484.93 C 625.30 491.05 631.33 495.48 631.71 502.29 C 631.47 509.00 626.37 514.56 625.89 521.24 C 625.79 526.60 631.52 528.94 634.61 532.42 C 640.17 537.25 640.75 545.17 645.18 550.78 C 651.85 558.84 662.15 564.05 665.45 574.67 C 661.52 576.62 657.63 578.64 653.60 580.38 C 657.62 592.07 654.23 604.24 650.48 615.46 C 647.13 620.00 643.48 624.32 639.86 628.64 C 633.55 625.16 631.76 617.80 627.36 612.65 C 620.38 609.31 612.33 612.87 606.07 616.24 C 598.24 621.58 590.91 627.81 582.16 631.67 C 581.62 626.99 578.94 621.82 581.15 617.17 C 582.55 613.28 585.85 607.73 580.95 605.13 C 574.07 603.60 568.34 609.08 562.67 612.06 C 560.05 607.81 557.34 603.63 554.22 599.74 C 549.48 602.05 545.12 605.51 539.88 606.52 C 536.31 606.35 533.25 604.14 530.42 602.18 C 521.64 590.90 515.83 577.54 508.91 565.04 C 507.02 560.83 503.07 555.66 506.11 551.08 C 509.62 545.48 516.98 546.15 522.76 545.19 C 525.79 544.73 530.87 544.80 531.60 540.79 C 530.70 536.42 527.75 532.80 526.74 528.47 C 524.96 524.12 525.58 519.54 526.33 515.10 C 533.81 512.20 541.59 515.02 548.45 518.24 C 554.39 521.28 560.63 518.06 566.43 516.63 C 574.00 514.58 580.93 510.83 588.06 507.66 C 584.91 500.61 581.91 493.50 579.15 486.28 C 583.71 482.54 588.96 479.35 592.41 474.46 C 594.73 470.54 592.51 465.96 591.07 462.12 C 588.89 455.95 584.57 447.73 590.28 442.28 C 594.35 436.74 601.53 437.30 607.53 437.15 Z" />
</g>
<g id="#1f7fbffe">
<path fill="#1f7fbf" fill-opacity="0" d=" M 644.72 430.77 C 647.21 430.27 650.57 430.44 651.96 432.94 C 655.63 439.26 656.80 446.79 661.27 452.70 C 663.97 455.97 669.41 456.46 672.69 453.75 C 678.08 449.54 683.18 444.97 688.72 440.95 C 690.34 443.66 692.89 446.38 692.71 449.74 C 690.56 454.48 686.25 457.77 683.23 461.94 C 688.02 461.56 692.80 461.00 697.60 460.65 C 703.60 459.80 707.08 465.51 710.49 469.48 C 713.77 474.48 720.28 475.48 724.47 479.51 C 727.25 482.10 729.71 485.55 730.06 489.43 C 730.02 493.80 725.89 495.98 722.48 497.64 C 717.69 499.91 714.03 503.82 710.66 507.80 C 716.19 511.69 723.48 514.28 726.03 521.12 C 729.89 528.40 724.74 536.29 725.47 543.82 C 726.59 546.42 729.30 547.90 731.18 549.94 C 735.18 553.57 736.40 559.04 738.69 563.73 C 741.66 572.38 752.28 575.67 754.09 584.97 C 756.76 591.60 755.95 598.98 754.73 605.85 C 744.51 610.08 734.17 614.08 724.42 619.34 C 715.37 624.28 705.18 626.10 695.37 628.90 C 689.84 630.46 684.88 633.51 679.43 635.25 C 675.93 636.48 672.78 633.83 670.21 631.82 C 663.73 626.25 657.47 620.40 650.48 615.46 C 654.23 604.24 657.62 592.07 653.60 580.38 C 657.63 578.64 661.52 576.62 665.45 574.67 C 662.15 564.05 651.85 558.84 645.18 550.78 C 640.75 545.17 640.17 537.25 634.61 532.42 C 631.52 528.94 625.79 526.60 625.89 521.24 C 626.37 514.56 631.47 509.00 631.71 502.29 C 631.33 495.48 625.30 491.05 623.10 484.93 C 620.33 481.51 620.88 476.13 624.45 473.62 C 629.72 473.11 635.05 475.09 640.32 474.06 C 645.23 472.92 648.37 468.65 651.78 465.29 C 645.96 453.99 634.35 447.24 629.04 435.66 C 634.26 434.00 639.36 431.93 644.72 430.77 Z" />
</g>
<g id="#9f3fbfff">
<path fill="#9f3fbf" fill-opacity="0" d=" M 977.37 441.33 C 983.51 439.42 989.51 437.05 995.00 433.65 C 998.95 434.47 1003.40 434.68 1006.65 437.35 C 1009.87 440.93 1010.65 445.95 1013.22 449.95 C 1016.95 455.45 1021.76 460.15 1025.39 465.74 C 1028.27 470.19 1032.78 473.39 1037.62 475.41 C 1042.23 476.03 1046.18 472.69 1050.67 472.17 C 1062.02 469.63 1072.43 475.29 1082.37 479.77 C 1090.60 483.68 1100.28 481.28 1108.39 485.62 C 1106.11 494.64 1098.55 500.50 1094.40 508.51 C 1090.09 517.01 1077.89 516.34 1073.76 524.88 C 1070.98 530.06 1073.29 535.93 1075.04 541.06 C 1078.55 548.80 1081.25 557.39 1087.68 563.33 C 1094.55 569.80 1097.84 579.48 1097.57 588.78 C 1092.16 596.79 1080.97 597.22 1072.85 600.77 C 1068.79 603.08 1063.75 605.24 1062.20 610.03 C 1061.13 614.24 1060.94 618.63 1060.36 622.95 C 1052.54 610.95 1041.74 601.26 1030.55 592.49 C 1024.15 588.22 1017.25 584.22 1009.56 582.94 C 1004.40 582.76 1000.30 586.28 995.91 588.39 C 992.13 589.47 988.11 588.77 984.24 588.90 C 984.70 593.22 985.88 597.60 985.30 601.97 C 984.51 605.54 981.65 608.11 979.38 610.80 C 974.08 607.88 969.01 604.04 962.70 603.76 C 956.97 603.40 951.40 605.80 945.65 605.21 C 939.26 603.69 933.75 599.96 928.45 596.26 C 925.85 597.71 923.23 599.15 920.79 600.86 C 918.63 595.04 917.06 588.92 917.02 582.67 C 918.34 576.69 922.71 572.00 925.95 566.98 C 931.08 559.54 938.59 554.26 946.80 550.71 C 946.40 546.74 945.79 542.75 945.90 538.76 C 946.33 533.24 951.16 529.34 952.38 524.10 C 951.86 517.65 945.72 514.10 940.83 511.05 C 933.84 506.95 928.84 500.46 925.39 493.26 C 932.98 489.85 941.47 487.64 946.49 480.36 C 946.07 478.69 945.69 477.03 945.29 475.36 C 950.10 469.41 952.31 461.87 952.90 454.34 C 953.02 450.83 957.29 450.98 959.77 450.20 C 966.55 449.17 970.94 443.21 977.37 441.33 M 1006.47 518.03 C 1005.66 524.41 1004.84 530.78 1004.59 537.22 C 1004.54 540.63 1006.94 543.72 1010.12 544.82 C 1016.60 547.35 1023.21 549.57 1029.74 552.02 C 1034.26 545.84 1039.02 539.83 1043.39 533.55 C 1044.49 530.15 1042.43 526.34 1042.01 523.00 C 1041.51 517.47 1035.84 515.49 1031.62 513.54 C 1023.01 513.25 1014.77 516.24 1006.47 518.03 Z" />
</g>
<g id="#df3f3fff">
<path fill="#df3f3f" fill-opacity="0" d=" M 1367.74 447.29 C 1375.30 444.82 1382.27 438.64 1390.59 439.71 C 1397.64 443.74 1402.78 450.43 1409.42 455.06 C 1413.55 456.35 1417.98 455.43 1422.22 455.37 C 1430.24 454.69 1436.21 448.71 1442.66 444.60 C 1447.15 441.18 1453.25 445.36 1455.43 449.62 C 1457.47 453.22 1454.81 457.01 1454.69 460.71 C 1456.44 465.03 1459.81 468.59 1463.14 471.78 C 1467.85 474.48 1473.59 475.30 1477.53 479.41 C 1482.80 482.43 1483.29 488.92 1486.49 493.50 C 1489.15 495.48 1492.68 495.90 1495.66 497.49 C 1499.49 498.87 1501.68 502.52 1504.27 505.43 C 1510.79 513.58 1522.46 514.14 1529.43 521.86 C 1523.91 525.39 1518.58 529.92 1511.98 531.14 C 1505.69 529.26 1501.17 520.60 1493.96 522.88 C 1486.66 525.22 1486.95 534.13 1484.94 540.17 C 1471.90 540.15 1459.00 538.03 1445.96 538.09 C 1426.02 536.34 1406.03 543.75 1386.23 538.87 C 1383.48 530.51 1381.15 521.89 1376.84 514.16 C 1372.21 506.01 1371.93 496.05 1365.84 488.60 C 1362.53 480.09 1359.46 471.48 1356.19 462.96 C 1353.77 457.49 1354.76 451.66 1356.02 446.12 C 1359.88 446.73 1363.81 447.94 1367.74 447.29 Z" />
</g>
<g id="#9f7f3fff">
<path fill="#9f7f3f" fill-opacity="0" d=" M 857.14 450.55 C 863.59 452.66 869.81 455.38 875.99 458.19 C 880.05 460.23 884.46 457.15 888.45 456.58 C 893.69 455.22 900.63 454.60 904.51 459.22 C 908.40 463.82 913.52 467.06 918.10 470.91 C 920.76 473.13 923.95 475.23 927.60 474.86 C 933.50 474.51 939.40 474.98 945.29 475.36 C 945.69 477.03 946.07 478.69 946.49 480.36 C 941.47 487.64 932.98 489.85 925.39 493.26 C 928.84 500.46 933.84 506.95 940.83 511.05 C 945.72 514.10 951.86 517.65 952.38 524.10 C 951.16 529.34 946.33 533.24 945.90 538.76 C 945.79 542.75 946.40 546.74 946.80 550.71 C 938.59 554.26 931.08 559.54 925.95 566.98 C 922.71 572.00 918.34 576.69 917.02 582.67 C 917.06 588.92 918.63 595.04 920.79 600.86 C 917.23 604.64 913.85 609.61 908.20 610.14 C 899.16 611.37 890.02 612.18 880.92 612.59 C 876.59 613.11 873.86 609.32 871.18 606.61 C 863.69 609.25 857.57 614.46 851.22 619.03 C 845.94 616.02 839.83 613.15 837.48 607.10 C 842.03 604.84 847.01 602.06 848.35 596.68 C 850.27 588.41 847.79 578.71 853.56 571.60 C 857.41 564.40 865.74 559.65 867.32 551.28 C 864.81 546.72 860.08 543.94 856.00 540.98 C 852.25 538.26 847.41 537.81 843.55 535.35 C 839.29 530.35 836.52 524.28 832.64 518.99 C 828.86 520.01 824.79 521.99 820.92 520.15 C 816.22 518.77 814.22 513.80 811.32 510.41 C 808.34 510.07 805.27 509.68 802.35 509.39 C 802.22 508.04 802.11 506.70 802.01 505.37 C 810.93 500.62 819.76 494.34 824.00 484.85 C 826.58 481.80 828.52 478.00 831.74 475.55 C 841.29 474.92 851.36 477.99 860.36 473.19 C 857.28 470.96 854.14 468.75 851.06 466.57 C 853.07 461.22 855.10 455.88 857.14 450.55 Z" />
</g>
<g id="#1fbf3fff">
<path fill="#1fbf3f" fill-opacity="0" d=" M 1175.30 471.74 C 1182.94 478.17 1190.23 485.49 1199.70 489.21 C 1207.00 492.58 1214.73 494.84 1222.15 497.91 C 1226.02 494.10 1229.17 489.67 1232.57 485.46 C 1235.95 483.16 1240.60 484.45 1244.38 483.79 C 1246.57 486.53 1248.47 489.92 1251.83 491.38 C 1257.42 492.15 1262.90 489.28 1268.49 489.76 C 1272.73 491.92 1274.43 496.66 1277.36 500.10 C 1281.11 503.47 1286.45 504.03 1291.16 505.12 C 1292.93 511.77 1294.29 519.07 1291.19 525.57 C 1287.67 532.65 1290.49 541.11 1287.31 548.22 C 1282.87 553.65 1272.67 551.67 1269.78 558.82 C 1269.21 566.11 1273.26 572.71 1276.34 579.04 C 1271.99 581.65 1265.64 584.48 1267.12 590.86 C 1269.30 597.45 1276.52 600.46 1281.22 605.15 C 1274.58 607.29 1267.88 610.04 1262.53 614.59 C 1259.80 619.15 1264.34 624.38 1262.92 629.20 C 1261.09 632.23 1257.95 634.14 1255.63 636.76 C 1253.25 639.12 1253.35 642.72 1252.79 645.81 C 1249.19 648.77 1245.62 651.93 1241.36 653.92 C 1238.64 655.27 1235.69 653.78 1232.94 653.39 C 1228.34 652.29 1223.84 655.11 1219.24 654.31 C 1215.18 653.33 1212.54 649.76 1209.56 647.17 C 1205.26 648.45 1201.01 650.86 1196.41 650.35 C 1191.43 646.56 1187.39 639.22 1180.19 639.60 C 1175.70 638.99 1170.19 642.31 1166.27 638.86 C 1160.54 634.19 1157.37 626.82 1156.96 619.51 C 1156.23 615.87 1155.94 611.97 1154.28 608.63 C 1150.79 603.87 1144.84 601.34 1142.21 595.91 C 1139.60 591.20 1139.78 585.64 1139.00 580.47 C 1143.89 577.96 1149.40 576.26 1153.68 572.64 C 1156.88 569.53 1159.38 565.74 1161.47 561.79 C 1156.91 558.77 1152.53 555.34 1149.33 550.84 C 1153.53 548.88 1157.60 546.66 1161.54 544.23 C 1157.76 536.52 1151.48 529.62 1150.23 520.92 C 1151.25 512.68 1154.98 505.07 1157.07 497.07 C 1158.82 491.77 1159.69 485.25 1165.14 482.25 C 1169.11 479.36 1172.49 475.76 1175.30 471.74 Z" />
</g>
<g id="#9f3f3fff">
<path fill="#9f3f3f" fill-opacity="0" d=" M 1292.12 494.08 C 1294.57 488.44 1301.33 487.67 1306.45 486.06 C 1309.80 489.06 1312.44 494.76 1317.69 494.42 C 1322.49 494.04 1327.10 492.43 1331.77 491.33 C 1333.51 493.54 1335.28 495.74 1337.04 497.95 C 1346.79 495.35 1356.46 492.35 1365.84 488.60 C 1371.93 496.05 1372.21 506.01 1376.84 514.16 C 1381.15 521.89 1383.48 530.51 1386.23 538.87 C 1387.22 543.75 1387.17 548.79 1388.44 553.63 C 1390.23 561.55 1398.81 565.57 1400.43 573.62 C 1393.72 574.90 1385.00 574.29 1380.71 580.74 C 1374.83 588.96 1376.29 599.32 1376.58 608.81 C 1376.54 611.79 1376.89 615.50 1380.26 616.59 C 1383.98 618.50 1391.58 617.75 1390.86 623.84 C 1390.91 628.97 1384.57 628.96 1381.16 626.84 C 1376.09 623.70 1371.51 619.93 1366.85 616.24 C 1357.60 625.20 1351.67 637.18 1348.70 649.60 C 1346.60 658.96 1356.33 667.77 1351.78 676.88 C 1330.89 713.91 1311.37 751.72 1290.83 788.95 C 1289.47 788.71 1288.13 788.49 1286.79 788.30 C 1285.21 790.33 1284.00 793.09 1281.41 794.01 C 1270.54 796.92 1260.53 802.20 1249.91 805.81 C 1241.63 809.30 1232.49 809.22 1223.71 809.94 C 1235.71 782.54 1248.27 755.39 1260.03 727.89 C 1265.91 717.16 1269.36 705.24 1275.83 694.83 C 1272.30 687.82 1269.46 679.98 1262.99 675.04 C 1256.76 670.61 1255.03 662.88 1252.81 656.03 C 1251.63 652.70 1252.32 649.19 1252.79 645.81 C 1253.35 642.72 1253.25 639.12 1255.63 636.76 C 1257.95 634.14 1261.09 632.23 1262.92 629.20 C 1264.34 624.38 1259.80 619.15 1262.53 614.59 C 1267.88 610.04 1274.58 607.29 1281.22 605.15 C 1276.52 600.46 1269.30 597.45 1267.12 590.86 C 1265.64 584.48 1271.99 581.65 1276.34 579.04 C 1273.26 572.71 1269.21 566.11 1269.78 558.82 C 1272.67 551.67 1282.87 553.65 1287.31 548.22 C 1290.49 541.11 1287.67 532.65 1291.19 525.57 C 1294.29 519.07 1292.93 511.77 1291.16 505.12 C 1290.35 501.46 1290.04 497.41 1292.12 494.08 Z" />
</g>
<g id="#1f3fbfff">
<path fill="#1f3fbf" fill-opacity="0" d=" M 1006.47 518.03 C 1014.77 516.24 1023.01 513.25 1031.62 513.54 C 1035.84 515.49 1041.51 517.47 1042.01 523.00 C 1042.43 526.34 1044.49 530.15 1043.39 533.55 C 1039.02 539.83 1034.26 545.84 1029.74 552.02 C 1023.21 549.57 1016.60 547.35 1010.12 544.82 C 1006.94 543.72 1004.54 540.63 1004.59 537.22 C 1004.84 530.78 1005.66 524.41 1006.47 518.03 Z" />
</g>
<g id="#5f7fbffe">
<path fill="#5f7fbf" fill-opacity="0" d=" M 1493.96 522.88 C 1501.17 520.60 1505.69 529.26 1511.98 531.14 C 1518.58 529.92 1523.91 525.39 1529.43 521.86 C 1534.43 526.79 1540.95 530.85 1543.20 537.90 C 1547.81 548.16 1544.98 559.60 1544.77 570.37 C 1544.79 574.51 1542.72 578.20 1540.54 581.59 C 1528.16 600.34 1514.10 617.89 1501.66 636.60 C 1488.71 654.12 1476.90 672.43 1463.94 689.94 C 1460.14 694.76 1457.43 700.55 1452.70 704.54 C 1450.04 704.15 1447.65 702.80 1445.16 701.90 C 1432.26 719.26 1420.45 737.37 1408.11 755.12 C 1406.44 757.84 1403.15 759.11 1400.04 759.06 C 1390.88 760.17 1381.93 763.52 1372.60 762.57 C 1367.76 762.44 1363.14 760.98 1358.45 760.02 C 1355.19 765.53 1352.02 771.11 1348.30 776.32 C 1344.72 781.02 1338.48 782.14 1333.28 784.10 C 1327.43 785.35 1321.98 788.92 1315.76 787.96 C 1308.09 787.15 1300.52 788.88 1293.15 790.75 C 1292.36 790.14 1291.59 789.54 1290.83 788.95 C 1311.37 751.72 1330.89 713.91 1351.78 676.88 C 1356.33 667.77 1346.60 658.96 1348.70 649.60 C 1351.67 637.18 1357.60 625.20 1366.85 616.24 C 1371.51 619.93 1376.09 623.70 1381.16 626.84 C 1384.57 628.96 1390.91 628.97 1390.86 623.84 C 1391.58 617.75 1383.98 618.50 1380.26 616.59 C 1376.89 615.50 1376.54 611.79 1376.58 608.81 C 1376.29 599.32 1374.83 588.96 1380.71 580.74 C 1385.00 574.29 1393.72 574.90 1400.43 573.62 C 1398.81 565.57 1390.23 561.55 1388.44 553.63 C 1387.17 548.79 1387.22 543.75 1386.23 538.87 C 1406.03 543.75 1426.02 536.34 1445.96 538.09 C 1459.00 538.03 1471.90 540.15 1484.94 540.17 C 1486.95 534.13 1486.66 525.22 1493.96 522.88 Z" />
</g>
<g id="#5f00bfff">
<path fill="#5f00bf" fill-opacity="0" d=" M 1009.56 582.94 C 1017.25 584.22 1024.15 588.22 1030.55 592.49 C 1041.74 601.26 1052.54 610.95 1060.36 622.95 C 1067.29 634.52 1075.76 645.37 1080.48 658.12 C 1075.44 659.22 1070.26 659.62 1065.20 660.56 C 1061.24 661.28 1060.82 666.47 1061.31 669.77 C 1064.63 676.72 1072.56 680.94 1073.86 689.04 C 1076.25 695.60 1073.86 702.54 1073.70 709.23 C 1072.74 718.25 1076.52 726.81 1077.98 735.56 C 1079.32 741.41 1077.68 747.25 1076.70 753.01 C 1070.73 783.62 1065.79 814.42 1060.12 845.09 C 1052.91 844.22 1045.67 843.64 1038.66 841.74 C 1040.02 825.77 1043.51 810.07 1045.15 794.14 C 1046.76 781.68 1048.74 769.28 1050.33 756.83 C 1050.24 750.01 1048.09 743.32 1048.95 736.45 C 1049.31 732.33 1046.96 727.35 1042.26 727.44 C 1020.86 724.86 999.44 722.10 977.91 720.86 C 978.96 695.59 978.23 670.26 979.23 644.98 C 979.59 633.59 979.45 622.19 979.38 610.80 C 981.65 608.11 984.51 605.54 985.30 601.97 C 985.88 597.60 984.70 593.22 984.24 588.90 C 988.11 588.77 992.13 589.47 995.91 588.39 C 1000.30 586.28 1004.40 582.76 1009.56 582.94 Z" />
</g>
<g id="#9fbf3fff">
<path fill="#9fbf3f" fill-opacity="0" d=" M 920.79 600.86 C 923.23 599.15 925.85 597.71 928.45 596.26 C 933.75 599.96 939.26 603.69 945.65 605.21 C 951.40 605.80 956.97 603.40 962.70 603.76 C 969.01 604.04 974.08 607.88 979.38 610.80 C 979.45 622.19 979.59 633.59 979.23 644.98 C 978.23 670.26 978.96 695.59 977.91 720.86 C 964.02 744.69 948.65 767.65 933.76 790.87 C 931.73 794.46 929.29 797.92 928.03 801.88 C 926.00 815.67 928.19 829.54 928.51 843.36 C 929.20 862.19 931.04 880.96 931.71 899.79 C 927.20 900.41 922.67 900.86 918.21 901.70 C 913.32 902.57 910.03 906.74 905.73 908.86 C 901.61 909.80 897.75 908.33 894.16 906.59 C 892.44 909.65 890.91 913.98 886.91 914.48 C 881.57 914.45 876.27 913.61 870.93 913.63 C 865.37 885.34 860.70 856.90 855.37 828.57 C 853.97 819.31 848.62 811.45 845.29 802.86 C 842.19 794.69 838.93 786.24 833.01 779.63 C 829.33 775.77 825.07 772.45 821.41 768.60 C 818.03 764.86 817.03 759.44 818.51 754.67 C 822.17 741.94 823.55 728.58 822.33 715.40 C 820.79 703.44 811.98 694.24 804.28 685.61 C 804.92 678.06 804.84 670.17 808.18 663.20 C 810.54 657.23 814.61 651.71 815.21 645.20 C 813.00 639.25 805.06 639.30 799.72 639.73 C 799.75 629.29 803.13 619.21 808.42 610.31 C 813.42 606.11 819.53 603.21 825.80 601.41 C 830.54 599.68 833.88 604.77 837.48 607.10 C 839.83 613.15 845.94 616.02 851.22 619.03 C 857.57 614.46 863.69 609.25 871.18 606.61 C 873.86 609.32 876.59 613.11 880.92 612.59 C 890.02 612.18 899.16 611.37 908.20 610.14 C 913.85 609.61 917.23 604.64 920.79 600.86 Z" />
</g>
<g id="#df7f3fff">
<path fill="#df7f3f" fill-opacity="0" d=" M 539.88 606.52 C 545.12 605.51 549.48 602.05 554.22 599.74 C 557.34 603.63 560.05 607.81 562.67 612.06 C 568.34 609.08 574.07 603.60 580.95 605.13 C 585.85 607.73 582.55 613.28 581.15 617.17 C 578.94 621.82 581.62 626.99 582.16 631.67 C 590.91 627.81 598.24 621.58 606.07 616.24 C 612.33 612.87 620.38 609.31 627.36 612.65 C 631.76 617.80 633.55 625.16 639.86 628.64 C 640.08 631.10 640.44 633.69 640.70 636.20 C 637.98 638.24 634.91 639.98 632.72 642.60 C 630.08 647.20 629.21 652.67 625.95 656.95 C 620.24 664.36 611.98 669.34 603.40 672.78 C 604.35 677.59 605.54 682.54 608.44 686.61 C 610.39 689.78 613.34 692.65 613.74 696.52 C 607.44 702.99 599.47 707.67 593.52 714.51 C 590.82 718.73 592.50 724.13 594.71 728.19 C 599.49 736.70 604.09 745.32 608.15 754.22 C 601.95 753.30 595.81 751.98 589.56 751.46 C 586.28 750.66 581.21 751.46 579.26 747.83 C 575.87 742.52 572.99 736.91 569.69 731.55 C 561.91 733.75 557.87 742.12 549.82 743.65 C 541.97 745.05 534.07 746.39 526.16 747.33 C 515.46 740.18 509.14 728.45 501.79 718.21 C 495.89 710.34 490.91 701.85 485.47 693.67 C 487.95 689.13 490.24 684.42 493.76 680.56 C 488.23 664.80 486.35 647.97 479.41 632.68 C 477.77 629.34 478.97 625.68 480.39 622.53 C 482.16 616.65 489.15 614.85 494.63 614.45 C 504.45 614.14 507.13 627.42 516.89 627.81 C 518.64 623.28 520.06 618.56 522.38 614.28 C 525.24 610.37 528.37 606.61 530.42 602.18 C 533.25 604.14 536.31 606.35 539.88 606.52 Z" />
</g>
<g id="#df00bfff">
<path fill="#df00bf" fill-opacity="0" d=" M 1062.20 610.03 C 1063.75 605.24 1068.79 603.08 1072.85 600.77 C 1079.54 609.37 1083.65 620.70 1093.40 626.46 C 1098.91 626.86 1103.05 622.16 1107.08 619.04 C 1111.87 614.70 1119.56 617.15 1124.04 620.86 C 1127.56 623.88 1129.14 630.12 1134.94 629.23 C 1140.12 627.00 1143.28 621.72 1148.43 619.42 C 1151.15 618.19 1154.15 619.11 1156.96 619.51 C 1157.37 626.82 1160.54 634.19 1166.27 638.86 C 1170.19 642.31 1175.70 638.99 1180.19 639.60 C 1187.39 639.22 1191.43 646.56 1196.41 650.35 C 1201.01 650.86 1205.26 648.45 1209.56 647.17 C 1212.54 649.76 1215.18 653.33 1219.24 654.31 C 1223.84 655.11 1228.34 652.29 1232.94 653.39 C 1235.69 653.78 1238.64 655.27 1241.36 653.92 C 1245.62 651.93 1249.19 648.77 1252.79 645.81 C 1252.32 649.19 1251.63 652.70 1252.81 656.03 C 1255.03 662.88 1256.76 670.61 1262.99 675.04 C 1269.46 679.98 1272.30 687.82 1275.83 694.83 C 1269.36 705.24 1265.91 717.16 1260.03 727.89 C 1248.27 755.39 1235.71 782.54 1223.71 809.94 C 1217.08 812.48 1211.17 816.75 1204.14 818.19 C 1174.76 824.60 1145.09 830.85 1117.23 842.46 C 1112.54 843.83 1105.17 847.51 1101.93 842.06 C 1100.66 837.02 1102.01 831.83 1102.37 826.75 C 1096.47 825.76 1090.30 826.80 1085.35 830.30 C 1081.85 835.97 1081.75 845.68 1074.36 848.25 C 1069.52 848.15 1064.83 846.22 1059.96 845.90 L 1060.12 845.09 C 1065.79 814.42 1070.73 783.62 1076.70 753.01 C 1077.68 747.25 1079.32 741.41 1077.98 735.56 C 1076.52 726.81 1072.74 718.25 1073.70 709.23 C 1073.86 702.54 1076.25 695.60 1073.86 689.04 C 1072.56 680.94 1064.63 676.72 1061.31 669.77 C 1060.82 666.47 1061.24 661.28 1065.20 660.56 C 1070.26 659.62 1075.44 659.22 1080.48 658.12 C 1075.76 645.37 1067.29 634.52 1060.36 622.95 C 1060.94 618.63 1061.13 614.24 1062.20 610.03 Z" />
</g>
<g id="#dfbf3fff">
<path fill="#dfbf3f" fill-opacity="0" d=" M 724.42 619.34 C 734.17 614.08 744.51 610.08 754.73 605.85 C 752.76 613.94 752.78 623.20 757.70 630.27 C 763.82 638.11 773.55 641.11 782.45 644.54 C 788.65 646.88 794.10 641.51 799.72 639.73 C 805.06 639.30 813.00 639.25 815.21 645.20 C 814.61 651.71 810.54 657.23 808.18 663.20 C 804.84 670.17 804.92 678.06 804.28 685.61 C 803.99 691.62 803.32 697.68 801.06 703.32 C 797.54 702.61 793.58 702.68 790.61 700.42 C 786.04 694.85 782.74 688.45 779.00 682.34 C 772.33 683.37 765.19 683.64 759.34 687.40 C 754.63 690.57 750.69 694.78 745.79 697.70 C 733.27 706.03 718.59 709.97 704.95 715.99 C 696.69 720.08 686.74 718.54 678.92 723.90 C 673.94 726.90 675.48 733.67 676.03 738.54 C 664.03 738.44 651.83 739.55 640.48 743.67 C 629.57 746.95 620.13 754.99 608.15 754.22 C 604.09 745.32 599.49 736.70 594.71 728.19 C 592.50 724.13 590.82 718.73 593.52 714.51 C 599.47 707.67 607.44 702.99 613.74 696.52 C 613.34 692.65 610.39 689.78 608.44 686.61 C 605.54 682.54 604.35 677.59 603.40 672.78 C 611.98 669.34 620.24 664.36 625.95 656.95 C 629.21 652.67 630.08 647.20 632.72 642.60 C 634.91 639.98 637.98 638.24 640.70 636.20 C 640.44 633.69 640.08 631.10 639.86 628.64 C 643.48 624.32 647.13 620.00 650.48 615.46 C 657.47 620.40 663.73 626.25 670.21 631.82 C 672.78 633.83 675.93 636.48 679.43 635.25 C 684.88 633.51 689.84 630.46 695.37 628.90 C 705.18 626.10 715.37 624.28 724.42 619.34 Z" />
</g>
<g id="#9f00bfff">
<path fill="#9f00bf" fill-opacity="0" d=" M 759.34 687.40 C 765.19 683.64 772.33 683.37 779.00 682.34 C 782.74 688.45 786.04 694.85 790.61 700.42 C 793.58 702.68 797.54 702.61 801.06 703.32 C 803.32 697.68 803.99 691.62 804.28 685.61 C 811.98 694.24 820.79 703.44 822.33 715.40 C 823.55 728.58 822.17 741.94 818.51 754.67 C 817.03 759.44 818.03 764.86 821.41 768.60 C 825.07 772.45 829.33 775.77 833.01 779.63 C 838.93 786.24 842.19 794.69 845.29 802.86 C 848.62 811.45 853.97 819.31 855.37 828.57 C 860.70 856.90 865.37 885.34 870.93 913.63 C 861.32 915.10 851.95 919.08 842.09 918.04 C 836.42 918.14 832.48 923.37 828.30 926.68 C 827.40 925.07 826.56 923.45 825.62 921.89 C 823.98 924.40 823.24 927.63 820.83 929.57 C 815.46 930.56 810.35 927.42 805.04 928.70 C 799.25 929.48 793.79 931.68 788.25 933.39 C 776.22 937.51 763.70 940.10 751.88 944.85 C 747.08 946.51 742.27 948.51 737.13 948.59 C 727.01 928.09 717.16 907.48 707.03 886.99 C 700.14 873.84 695.09 859.38 684.23 848.78 C 680.72 846.44 676.40 845.70 672.65 843.86 C 665.04 838.05 661.58 828.94 657.07 820.85 C 655.12 816.67 652.17 812.76 651.43 808.13 C 653.15 803.17 656.74 799.06 658.25 794.00 C 657.85 789.05 655.09 784.52 655.28 779.49 C 660.11 776.19 666.05 775.14 671.06 772.17 C 675.94 769.99 679.92 766.37 684.30 763.41 C 684.38 754.25 678.33 747.00 676.03 738.54 C 675.48 733.67 673.94 726.90 678.92 723.90 C 686.74 718.54 696.69 720.08 704.95 715.99 C 718.59 709.97 733.27 706.03 745.79 697.70 C 750.69 694.78 754.63 690.57 759.34 687.40 Z" />
</g>
<g id="#1f7f3fff">
<path fill="#1f7f3f" fill-opacity="0" d=" M 977.91 720.86 C 999.44 722.10 1020.86 724.86 1042.26 727.44 C 1046.96 727.35 1049.31 732.33 1048.95 736.45 C 1048.09 743.32 1050.24 750.01 1050.33 756.83 C 1048.74 769.28 1046.76 781.68 1045.15 794.14 C 1043.51 810.07 1040.02 825.77 1038.66 841.74 C 1037.97 846.02 1037.80 850.46 1036.52 854.64 C 1035.14 857.43 1031.42 856.20 1028.99 856.03 C 1023.01 854.63 1017.37 857.88 1012.06 860.17 C 1010.13 861.32 1007.35 862.03 1006.61 864.42 C 1004.46 878.99 1004.91 893.83 1002.24 908.34 C 1001.84 911.01 998.90 911.57 996.67 911.61 C 991.85 911.71 986.91 912.25 982.17 911.37 C 975.42 906.52 970.69 894.58 960.74 896.80 C 951.60 901.55 942.27 906.14 932.13 908.39 C 931.67 905.20 931.95 902.77 931.71 899.79 C 931.04 880.96 929.20 862.19 928.51 843.36 C 928.19 829.54 926.00 815.67 928.03 801.88 C 929.29 797.92 931.73 794.46 933.76 790.87 C 948.65 767.65 964.02 744.69 977.91 720.86 Z" />
</g>
</svg>
