<?xml version="1.0" encoding="UTF-8" ?>
<!DOCTYPE svg PUBLIC "-//W3C//DTD SVG 1.1//EN" "http://www.w3.org/Graphics/SVG/1.1/DTD/svg11.dtd">
<svg width="1920pt" height="1080pt" viewBox="0 0 1920 1080" version="1.1" xmlns="http://www.w3.org/2000/svg">
<g id="#dfdfdfff">
<path fill="#dfdfdf" fill-opacity="0" d=" M 760.26 238.60 C 764.89 240.17 769.47 241.91 773.84 244.18 C 775.87 247.38 775.87 251.45 777.14 254.97 C 779.89 267.88 784.83 280.17 787.99 292.97 C 789.35 298.23 790.57 303.55 792.31 308.72 C 794.69 316.96 800.43 323.73 802.63 332.04 C 796.41 335.03 789.03 338.81 782.21 335.68 C 775.33 333.38 768.19 328.72 760.73 330.70 C 751.94 336.66 754.88 349.05 748.78 356.79 C 746.10 360.72 741.65 362.80 737.92 365.53 C 738.18 367.94 738.67 370.48 739.07 372.90 C 733.93 371.62 728.45 370.89 723.36 372.80 C 713.32 367.04 703.21 361.39 692.84 356.23 C 689.45 354.20 684.64 352.69 683.53 348.38 C 680.16 335.03 690.29 323.93 698.97 315.26 C 694.51 309.07 689.82 302.92 683.70 298.28 C 675.75 292.15 668.33 285.02 658.86 281.26 C 653.33 279.20 648.02 276.63 642.52 274.55 C 654.08 269.65 666.83 269.37 679.14 268.12 C 687.33 267.59 690.81 258.85 695.35 253.18 C 700.03 254.48 704.84 255.28 709.50 256.66 C 711.25 258.63 712.07 261.22 713.24 263.56 C 718.73 263.23 725.01 266.27 730.04 263.22 C 731.81 257.06 732.90 250.73 734.22 244.46 C 736.80 244.89 739.94 244.71 742.57 245.57 C 746.87 249.17 750.14 253.84 754.28 257.61 C 756.59 251.38 758.40 244.98 760.26 238.60 Z" />
</g>
<g id="#4f0000ff">
<path fill="#4f0000" fill-opacity="0" d=" M 948.33 269.35 C 956.47 268.58 965.17 272.45 969.62 279.44 C 976.15 287.44 980.38 296.91 984.83 306.15 C 986.27 309.12 986.52 312.42 986.61 315.69 C 986.68 320.22 986.63 324.82 987.94 329.21 C 990.03 334.43 994.81 337.99 997.08 343.12 C 994.59 347.16 988.67 348.61 984.46 346.51 C 979.67 344.28 974.98 341.76 969.90 340.24 C 955.76 336.24 940.10 339.05 927.72 346.79 C 921.95 350.86 917.90 356.83 913.96 362.57 C 911.54 362.15 909.27 361.76 906.90 361.31 C 903.01 354.05 900.06 346.35 897.39 338.58 C 895.43 333.91 893.71 328.73 889.65 325.43 C 884.73 321.60 878.68 319.22 874.43 314.55 C 869.37 309.47 869.24 301.81 866.94 295.38 C 873.21 290.39 879.81 285.65 886.90 281.90 C 895.21 278.53 902.97 284.52 911.15 283.97 C 923.43 278.87 935.41 272.67 948.33 269.35 Z" />
</g>
<g id="#4fbf00ff">
<path fill="#4fbf00" fill-opacity="0" d=" M 634.41 278.33 C 636.32 275.99 639.42 274.10 642.52 274.55 C 648.02 276.63 653.33 279.20 658.86 281.26 C 668.33 285.02 675.75 292.15 683.70 298.28 C 689.82 302.92 694.51 309.07 698.97 315.26 C 690.29 323.93 680.16 335.03 683.53 348.38 C 684.64 352.69 689.45 354.20 692.84 356.23 C 703.21 361.39 713.32 367.04 723.36 372.80 C 713.17 378.49 702.75 384.85 691.00 386.43 C 678.36 386.74 667.20 378.14 654.47 378.80 C 645.43 379.35 640.08 387.60 634.82 393.80 C 627.39 402.50 623.57 413.46 619.89 424.12 C 615.36 422.78 610.48 422.06 606.47 419.42 C 600.45 414.32 599.65 404.10 591.14 401.84 C 577.50 399.49 563.87 406.63 550.20 404.26 C 544.07 401.86 538.70 397.32 534.94 391.94 C 531.63 387.24 534.98 381.57 536.19 376.73 C 540.57 378.11 544.86 381.20 549.63 380.59 C 555.02 378.60 561.83 377.49 565.25 372.27 C 568.23 368.20 570.37 363.47 571.25 358.50 C 574.27 348.51 559.35 342.21 563.26 332.30 C 565.29 327.39 570.48 323.27 575.72 322.56 C 582.47 326.74 589.25 334.08 598.01 330.99 C 606.98 328.22 608.17 317.72 610.30 310.14 C 611.40 305.32 616.62 303.83 619.88 300.84 C 626.33 294.43 628.95 285.44 634.41 278.33 Z" />
</g>
<g id="#cf3f00ff">
<path fill="#cf3f00" fill-opacity="0" d=" M 836.03 294.89 C 846.35 293.38 856.82 298.77 866.94 295.38 C 869.24 301.81 869.37 309.47 874.43 314.55 C 878.68 319.22 884.73 321.60 889.65 325.43 C 893.71 328.73 895.43 333.91 897.39 338.58 C 900.06 346.35 903.01 354.05 906.90 361.31 C 906.37 367.87 906.61 374.75 903.66 380.80 C 898.95 391.10 893.54 401.06 888.88 411.38 C 878.82 424.52 862.46 429.65 848.67 437.72 C 838.77 443.66 827.81 447.42 816.99 451.30 C 807.18 453.16 797.12 451.86 787.46 449.83 C 780.62 447.36 774.78 442.97 769.19 438.45 C 756.90 430.54 750.82 416.75 746.88 403.27 C 744.32 393.13 741.28 383.11 739.07 372.90 C 738.67 370.48 738.18 367.94 737.92 365.53 C 741.65 362.80 746.10 360.72 748.78 356.79 C 754.88 349.05 751.94 336.66 760.73 330.70 C 768.19 328.72 775.33 333.38 782.21 335.68 C 789.03 338.81 796.41 335.03 802.63 332.04 C 800.43 323.73 794.69 316.96 792.31 308.72 C 797.64 308.95 803.16 309.34 808.17 307.03 C 817.38 302.81 825.40 295.06 836.03 294.89 Z" />
</g>
<g id="#5fdfdfff">
<path fill="#5fdfdf" fill-opacity="0" d=" M 986.61 315.69 C 995.19 322.20 1004.67 328.26 1015.64 329.37 C 1020.50 329.95 1026.36 327.02 1030.72 330.25 C 1033.94 332.83 1033.31 337.52 1035.00 341.02 C 1036.67 341.77 1038.48 342.09 1040.26 342.56 C 1040.92 353.35 1040.13 364.21 1038.59 374.88 C 1036.53 381.12 1028.27 381.65 1025.11 387.13 C 1013.27 406.41 1011.89 430.25 1015.84 452.06 C 1010.20 454.28 1004.48 457.80 998.19 456.90 C 992.52 456.10 986.79 455.05 981.46 452.91 C 975.23 449.20 969.40 443.76 961.76 443.37 C 951.07 441.33 942.01 448.06 933.92 453.92 C 930.07 457.12 924.91 454.94 921.17 452.75 C 916.76 450.24 916.38 444.42 913.11 440.92 C 908.09 436.80 901.45 434.87 897.05 430.01 C 893.24 424.32 892.68 417.11 888.88 411.38 C 893.54 401.06 898.95 391.10 903.66 380.80 C 906.61 374.75 906.37 367.87 906.90 361.31 C 909.27 361.76 911.54 362.15 913.96 362.57 C 917.90 356.83 921.95 350.86 927.72 346.79 C 940.10 339.05 955.76 336.24 969.90 340.24 C 974.98 341.76 979.67 344.28 984.46 346.51 C 988.67 348.61 994.59 347.16 997.08 343.12 C 994.81 337.99 990.03 334.43 987.94 329.21 C 986.63 324.82 986.68 320.22 986.61 315.69 Z" />
</g>
<g id="#8f007fff">
<path fill="#8f007f" fill-opacity="0" d=" M 1040.26 342.56 C 1047.75 342.21 1055.75 341.87 1062.55 345.49 C 1069.51 350.85 1074.67 358.45 1082.79 362.30 C 1092.19 368.29 1103.23 370.12 1113.74 373.17 C 1117.05 385.58 1121.00 398.00 1120.90 410.99 C 1120.96 420.97 1122.48 430.86 1124.66 440.58 C 1126.51 447.88 1132.54 454.45 1140.22 455.49 C 1148.66 456.63 1157.01 458.70 1164.15 463.57 C 1160.24 473.27 1155.19 482.45 1149.98 491.50 C 1137.72 493.71 1125.68 496.94 1113.47 499.40 C 1105.63 499.67 1099.52 507.78 1101.43 515.36 C 1101.64 519.89 1103.30 525.71 1098.60 528.55 C 1089.31 535.83 1077.99 542.19 1065.80 541.74 C 1057.24 538.62 1047.75 538.12 1039.88 533.20 C 1036.80 531.58 1033.74 529.95 1030.59 528.50 C 1030.03 514.96 1025.78 501.98 1024.07 488.60 C 1022.74 476.10 1017.86 464.40 1015.84 452.06 C 1011.89 430.25 1013.27 406.41 1025.11 387.13 C 1028.27 381.65 1036.53 381.12 1038.59 374.88 C 1040.13 364.21 1040.92 353.35 1040.26 342.56 M 1108.06 453.69 C 1106.44 454.58 1104.83 455.46 1103.23 456.34 C 1103.92 461.40 1104.89 466.38 1105.87 471.40 C 1113.49 469.94 1121.10 467.99 1128.04 464.44 C 1122.14 459.45 1113.69 459.16 1108.06 453.69 Z" />
</g>
<g id="#0f3f7fff">
<path fill="#0f3f7f" fill-opacity="0" d=" M 723.36 372.80 C 728.45 370.89 733.93 371.62 739.07 372.90 C 741.28 383.11 744.32 393.13 746.88 403.27 C 750.82 416.75 756.90 430.54 769.19 438.45 C 762.21 442.44 754.97 446.46 750.72 453.64 C 745.76 456.63 740.35 458.74 735.24 461.44 C 727.14 465.49 718.93 470.34 709.77 471.33 C 702.61 471.81 698.82 465.25 693.72 461.66 C 692.86 466.97 692.02 472.29 691.26 477.62 C 676.18 482.64 660.23 484.04 644.51 485.56 C 635.66 486.48 627.61 481.72 619.97 477.91 C 616.59 475.26 612.82 472.43 611.26 468.29 C 610.45 462.92 611.91 457.42 610.81 452.06 C 609.79 447.06 608.36 442.14 607.78 437.06 C 613.64 434.68 618.44 430.41 619.89 424.12 C 623.57 413.46 627.39 402.50 634.82 393.80 C 640.08 387.60 645.43 379.35 654.47 378.80 C 667.20 378.14 678.36 386.74 691.00 386.43 C 702.75 384.85 713.17 378.49 723.36 372.80 Z" />
</g>
<g id="#8f3f7fff">
<path fill="#8f3f7f" fill-opacity="0" d=" M 512.03 375.15 C 519.72 371.14 528.64 373.69 536.19 376.73 C 534.98 381.57 531.63 387.24 534.94 391.94 C 538.70 397.32 544.07 401.86 550.20 404.26 C 563.87 406.63 577.50 399.49 591.14 401.84 C 599.65 404.10 600.45 414.32 606.47 419.42 C 610.48 422.06 615.36 422.78 619.89 424.12 C 618.44 430.41 613.64 434.68 607.78 437.06 C 608.36 442.14 609.79 447.06 610.81 452.06 C 611.91 457.42 610.45 462.92 611.26 468.29 C 612.82 472.43 616.59 475.26 619.97 477.91 C 618.95 482.13 618.24 486.41 617.66 490.70 C 609.62 495.03 602.52 500.95 597.91 508.91 C 594.06 505.88 589.62 503.43 586.66 499.45 C 582.84 494.20 579.55 488.12 573.58 484.97 C 566.54 492.39 558.62 500.27 547.83 501.33 C 538.45 501.67 528.94 501.15 519.79 498.95 C 511.15 496.28 502.73 492.94 494.17 490.01 C 496.12 486.92 498.33 483.76 498.86 480.07 C 494.08 471.77 486.25 465.71 480.54 458.06 C 484.47 453.48 489.26 449.65 492.94 444.86 C 487.94 434.53 475.91 428.65 473.15 417.18 C 476.03 413.47 480.59 411.29 483.08 407.23 C 484.05 402.92 483.93 398.41 484.25 394.00 C 493.54 387.75 502.89 381.59 512.03 375.15 Z" />
</g>
<g id="#cfbf00ff">
<path fill="#cfbf00" fill-opacity="0" d=" M 1113.74 373.17 C 1128.59 376.78 1144.32 371.99 1158.84 376.94 C 1168.17 379.70 1171.29 390.00 1177.68 396.28 C 1183.98 402.37 1191.60 406.94 1197.59 413.38 C 1201.45 417.48 1204.84 422.16 1209.44 425.50 C 1212.80 428.03 1216.70 429.78 1219.91 432.53 C 1225.13 440.66 1226.95 450.40 1231.34 458.95 C 1236.58 466.30 1243.48 472.66 1246.83 481.24 C 1241.85 485.06 1236.66 489.03 1233.65 494.68 C 1228.86 502.37 1226.72 511.35 1221.81 518.95 C 1219.15 523.01 1216.49 527.06 1213.93 531.17 C 1206.93 527.76 1200.27 523.69 1194.20 518.82 C 1180.20 508.55 1165.39 499.47 1149.98 491.50 C 1155.19 482.45 1160.24 473.27 1164.15 463.57 C 1157.01 458.70 1148.66 456.63 1140.22 455.49 C 1132.54 454.45 1126.51 447.88 1124.66 440.58 C 1122.48 430.86 1120.96 420.97 1120.90 410.99 C 1121.00 398.00 1117.05 385.58 1113.74 373.17 Z" />
</g>
<g id="#0f7f00fe">
<path fill="#0f7f00" fill-opacity="0" d=" M 1297.78 392.61 C 1306.28 393.44 1315.70 398.83 1317.17 407.92 C 1319.60 415.21 1320.89 423.19 1325.61 429.47 C 1332.71 434.55 1341.44 436.50 1348.92 440.93 C 1345.90 446.44 1342.42 451.89 1340.97 458.06 C 1339.92 461.12 1343.15 463.10 1345.30 464.56 C 1353.25 469.17 1364.07 472.05 1366.94 482.05 C 1368.90 484.82 1366.88 487.89 1364.93 489.91 C 1357.16 497.04 1347.87 502.40 1338.03 506.10 C 1327.66 509.85 1319.40 517.37 1310.59 523.70 C 1305.94 527.12 1303.01 532.23 1299.67 536.81 C 1305.84 542.58 1311.40 548.97 1317.00 555.28 C 1317.67 566.33 1316.54 579.80 1306.50 586.60 C 1303.71 588.92 1299.55 589.42 1296.38 587.57 C 1286.03 582.24 1276.26 575.80 1267.61 568.00 C 1262.74 563.22 1258.08 557.52 1257.75 550.43 C 1257.07 540.67 1258.34 530.80 1256.09 521.14 C 1253.16 520.09 1250.22 519.11 1247.28 518.16 C 1242.45 524.17 1238.03 531.64 1230.33 534.30 C 1224.74 535.61 1218.99 533.39 1213.93 531.17 C 1216.49 527.06 1219.15 523.01 1221.81 518.95 C 1226.72 511.35 1228.86 502.37 1233.65 494.68 C 1236.66 489.03 1241.85 485.06 1246.83 481.24 C 1243.48 472.66 1236.58 466.30 1231.34 458.95 C 1226.95 450.40 1225.13 440.66 1219.91 432.53 C 1223.08 431.35 1226.88 430.94 1229.38 428.46 C 1233.96 419.60 1237.29 410.03 1242.60 401.55 C 1247.56 396.66 1255.40 399.48 1260.62 402.35 C 1268.06 407.59 1272.80 415.61 1279.36 421.80 C 1284.82 411.64 1291.14 402.02 1297.78 392.61 Z" />
</g>
<g id="#cf7f7fff">
<path fill="#cf7f7f" fill-opacity="0" d=" M 848.67 437.72 C 862.46 429.65 878.82 424.52 888.88 411.38 C 892.68 417.11 893.24 424.32 897.05 430.01 C 901.45 434.87 908.09 436.80 913.11 440.92 C 916.38 444.42 916.76 450.24 921.17 452.75 C 924.91 454.94 930.07 457.12 933.92 453.92 C 942.01 448.06 951.07 441.33 961.76 443.37 C 969.40 443.76 975.23 449.20 981.46 452.91 C 986.79 455.05 992.52 456.10 998.19 456.90 C 1004.48 457.80 1010.20 454.28 1015.84 452.06 C 1017.86 464.40 1022.74 476.10 1024.07 488.60 C 1025.78 501.98 1030.03 514.96 1030.59 528.50 C 1029.78 535.84 1028.84 543.17 1027.68 550.46 C 1026.71 557.30 1021.27 562.14 1017.63 567.61 C 1011.07 576.39 1008.95 588.04 1000.47 595.45 C 994.41 600.72 990.19 607.62 984.86 613.55 C 982.51 605.93 977.34 599.53 974.74 592.06 C 975.74 588.23 978.80 585.28 979.77 581.45 C 980.09 575.99 977.68 570.71 974.65 566.32 C 972.16 564.63 968.89 564.75 966.05 565.14 C 956.66 567.60 949.67 574.91 940.73 578.33 C 923.90 582.90 907.95 573.27 891.50 571.78 C 884.22 570.32 877.14 572.71 870.13 574.24 C 871.04 566.24 869.01 558.19 870.48 550.23 C 871.30 543.61 871.98 536.92 871.75 530.25 C 870.83 526.92 867.40 525.10 864.88 523.19 C 859.91 519.87 855.17 516.21 850.62 512.35 C 842.68 505.06 830.61 504.78 822.96 497.06 C 819.51 494.02 816.27 488.97 818.29 484.32 C 820.60 480.50 824.95 478.64 828.37 476.00 C 826.14 469.95 821.26 465.66 815.92 462.32 C 816.19 458.63 816.58 454.97 816.99 451.30 C 827.81 447.42 838.77 443.66 848.67 437.72 M 906.39 497.87 C 905.86 515.83 905.58 533.81 904.32 551.75 C 911.47 553.28 918.62 554.85 925.86 555.94 C 930.66 547.13 936.16 538.73 940.78 529.82 C 942.11 527.17 941.68 524.09 941.39 521.26 C 940.07 512.89 939.28 504.45 938.05 496.07 C 927.49 496.54 916.93 497.00 906.39 497.87 Z" />
</g>
<g id="#0fbf7fff">
<path fill="#0fbf7f" fill-opacity="0" d=" M 1424.81 439.62 C 1432.20 437.10 1438.05 431.51 1444.85 427.78 C 1447.11 430.22 1449.09 433.13 1452.08 434.78 C 1458.94 437.03 1466.76 436.19 1473.17 439.88 C 1481.46 445.94 1484.58 456.22 1489.21 464.90 C 1490.75 468.19 1492.92 471.59 1492.45 475.38 C 1491.58 483.56 1490.30 491.69 1489.74 499.90 C 1497.11 508.95 1509.30 511.95 1520.52 510.34 C 1521.55 512.96 1522.45 515.60 1522.37 518.50 C 1520.75 523.06 1516.97 526.33 1513.83 529.84 C 1504.78 539.92 1493.41 547.39 1483.34 556.33 C 1479.11 559.88 1474.75 564.43 1469.05 565.00 C 1462.95 563.07 1458.79 557.38 1452.70 555.26 C 1445.88 554.21 1439.18 556.45 1432.82 558.63 C 1427.47 554.42 1421.80 549.97 1419.96 543.08 C 1416.24 545.99 1412.70 549.22 1408.46 551.35 C 1401.39 554.41 1393.51 553.92 1386.02 553.89 C 1371.11 554.31 1357.05 548.47 1342.81 545.03 C 1339.92 544.25 1336.89 544.81 1334.23 546.02 C 1328.24 548.60 1322.10 551.13 1317.00 555.28 C 1311.40 548.97 1305.84 542.58 1299.67 536.81 C 1303.01 532.23 1305.94 527.12 1310.59 523.70 C 1319.40 517.37 1327.66 509.85 1338.03 506.10 C 1347.87 502.40 1357.16 497.04 1364.93 489.91 C 1366.88 487.89 1368.90 484.82 1366.94 482.05 C 1364.07 472.05 1353.25 469.17 1345.30 464.56 C 1343.15 463.10 1339.92 461.12 1340.97 458.06 C 1342.42 451.89 1345.90 446.44 1348.92 440.93 C 1357.53 444.09 1366.92 447.25 1376.04 444.17 C 1385.20 442.64 1392.80 435.97 1402.30 435.93 C 1409.80 437.04 1417.09 440.08 1424.81 439.62 Z" />
</g>
<g id="#8f3f00ff">
<path fill="#8f3f00" fill-opacity="0" d=" M 769.19 438.45 C 774.78 442.97 780.62 447.36 787.46 449.83 C 782.59 453.76 777.35 457.63 774.27 463.22 C 771.52 469.79 774.70 476.91 779.20 481.79 C 785.34 488.36 792.40 494.25 796.94 502.16 C 799.18 505.96 798.79 510.56 798.37 514.79 C 796.23 525.75 793.13 536.50 789.68 547.12 C 782.59 549.15 775.18 551.47 769.99 557.01 C 767.32 559.59 764.99 563.39 766.08 567.22 C 768.59 574.71 774.92 581.57 773.27 589.92 C 772.54 597.38 766.37 602.67 760.61 606.72 C 756.15 609.93 750.38 609.82 745.16 609.56 C 735.01 608.95 725.06 605.63 716.58 600.05 C 716.14 593.79 715.30 587.38 712.22 581.81 C 707.94 574.24 707.49 565.35 706.04 556.96 C 704.96 549.46 704.93 540.68 710.39 534.77 C 717.18 529.99 726.08 536.48 733.15 532.11 C 740.02 527.47 745.86 520.93 749.45 513.43 C 753.58 500.74 739.34 493.63 738.55 482.17 C 740.70 472.02 745.87 462.72 750.72 453.64 C 754.97 446.46 762.21 442.44 769.19 438.45 Z" />
</g>
<g id="#cf0000fe">
<path fill="#cf0000" fill-opacity="0" d=" M 787.46 449.83 C 797.12 451.86 807.18 453.16 816.99 451.30 C 816.58 454.97 816.19 458.63 815.92 462.32 C 821.26 465.66 826.14 469.95 828.37 476.00 C 824.95 478.64 820.60 480.50 818.29 484.32 C 816.27 488.97 819.51 494.02 822.96 497.06 C 830.61 504.78 842.68 505.06 850.62 512.35 C 855.17 516.21 859.91 519.87 864.88 523.19 C 867.40 525.10 870.83 526.92 871.75 530.25 C 871.98 536.92 871.30 543.61 870.48 550.23 C 869.01 558.19 871.04 566.24 870.13 574.24 C 869.78 579.51 869.64 584.80 869.17 590.06 C 858.97 587.24 849.20 583.12 839.18 579.77 C 824.59 576.44 808.81 579.20 795.04 572.19 C 791.44 564.35 789.63 555.74 789.68 547.12 C 793.13 536.50 796.23 525.75 798.37 514.79 C 798.79 510.56 799.18 505.96 796.94 502.16 C 792.40 494.25 785.34 488.36 779.20 481.79 C 774.70 476.91 771.52 469.79 774.27 463.22 C 777.35 457.63 782.59 453.76 787.46 449.83 M 798.25 547.16 C 797.84 548.05 797.45 548.94 797.06 549.85 C 800.41 550.53 803.75 551.27 807.12 552.00 C 806.66 550.69 806.23 549.38 805.82 548.08 C 803.29 547.77 800.77 547.46 798.25 547.16 Z" />
</g>
<g id="#0f007ffe">
<path fill="#0f007f" fill-opacity="0" d=" M 1108.06 453.69 C 1113.69 459.16 1122.14 459.45 1128.04 464.44 C 1121.10 467.99 1113.49 469.94 1105.87 471.40 C 1104.89 466.38 1103.92 461.40 1103.23 456.34 C 1104.83 455.46 1106.44 454.58 1108.06 453.69 Z" />
</g>
<g id="#cf007fff">
<path fill="#cf007f" fill-opacity="0" d=" M 735.24 461.44 C 740.35 458.74 745.76 456.63 750.72 453.64 C 745.87 462.72 740.70 472.02 738.55 482.17 C 739.34 493.63 753.58 500.74 749.45 513.43 C 745.86 520.93 740.02 527.47 733.15 532.11 C 726.08 536.48 717.18 529.99 710.39 534.77 C 704.93 540.68 704.96 549.46 706.04 556.96 C 707.49 565.35 707.94 574.24 712.22 581.81 C 715.30 587.38 716.14 593.79 716.58 600.05 C 710.31 604.31 703.95 608.53 696.95 611.52 C 694.55 610.38 691.61 608.35 688.99 610.06 C 684.61 612.55 681.05 616.55 676.07 617.92 C 671.62 618.79 667.07 618.82 662.57 618.60 C 662.27 609.29 661.33 597.87 652.31 592.69 C 639.63 583.95 625.84 576.94 612.15 569.94 C 616.77 562.88 621.47 555.06 619.84 546.14 C 616.41 532.11 610.14 517.49 597.91 508.91 C 602.52 500.95 609.62 495.03 617.66 490.70 C 618.24 486.41 618.95 482.13 619.97 477.91 C 627.61 481.72 635.66 486.48 644.51 485.56 C 660.23 484.04 676.18 482.64 691.26 477.62 C 692.02 472.29 692.86 466.97 693.72 461.66 C 698.82 465.25 702.61 471.81 709.77 471.33 C 718.93 470.34 727.14 465.49 735.24 461.44 M 690.73 578.27 C 692.27 580.38 694.57 581.76 696.64 583.31 C 700.15 578.18 703.69 573.08 707.20 567.95 C 702.65 564.06 698.19 560.06 694.12 555.67 C 689.06 561.98 687.71 570.73 690.73 578.27 Z" />
</g>
<g id="#0f7f7fff">
<path fill="#0f7f7f" fill-opacity="0" d=" M 547.83 501.33 C 558.62 500.27 566.54 492.39 573.58 484.97 C 579.55 488.12 582.84 494.20 586.66 499.45 C 589.62 503.43 594.06 505.88 597.91 508.91 C 610.14 517.49 616.41 532.11 619.84 546.14 C 621.47 555.06 616.77 562.88 612.15 569.94 C 605.78 567.11 599.65 563.76 593.31 560.89 C 585.01 558.08 576.18 556.51 567.40 556.74 C 561.53 557.07 558.08 562.84 555.46 567.39 C 553.26 575.37 554.34 583.77 555.67 591.81 C 554.15 593.22 552.62 594.61 551.09 596.01 C 553.84 601.76 555.83 607.97 555.77 614.40 C 549.55 614.59 543.07 614.93 537.23 612.38 C 531.89 610.49 526.62 606.54 520.68 607.77 C 516.50 608.79 511.72 610.35 509.62 614.45 C 506.98 619.74 505.43 625.49 503.51 631.08 C 497.78 630.99 491.71 628.66 489.59 622.77 C 487.33 612.20 486.78 600.66 480.48 591.45 C 476.25 585.93 468.42 587.83 462.53 587.55 C 458.03 585.03 457.71 577.26 454.50 573.23 C 448.62 567.37 441.12 562.80 438.02 554.65 C 431.78 547.39 423.58 542.10 416.49 535.69 C 420.26 533.04 424.09 529.86 428.87 529.46 C 436.05 528.73 442.78 525.60 450.05 525.55 C 454.55 525.13 459.40 525.83 463.37 523.21 C 466.70 521.80 469.46 518.29 473.36 518.58 C 480.23 518.89 487.14 518.28 493.84 516.70 C 497.35 515.74 500.65 513.21 501.59 509.57 C 503.74 501.96 497.54 495.96 494.17 490.01 C 502.73 492.94 511.15 496.28 519.79 498.95 C 528.94 501.15 538.45 501.67 547.83 501.33 Z" />
</g>
<g id="#0f0000ff">
<path fill="#0f0000" fill-opacity="0" d=" M 1113.47 499.40 C 1125.68 496.94 1137.72 493.71 1149.98 491.50 C 1165.39 499.47 1180.20 508.55 1194.20 518.82 C 1200.27 523.69 1206.93 527.76 1213.93 531.17 C 1218.99 533.39 1224.74 535.61 1230.33 534.30 C 1238.03 531.64 1242.45 524.17 1247.28 518.16 C 1250.22 519.11 1253.16 520.09 1256.09 521.14 C 1258.34 530.80 1257.07 540.67 1257.75 550.43 C 1258.08 557.52 1262.74 563.22 1267.61 568.00 C 1259.51 574.45 1248.85 572.99 1239.28 572.28 C 1227.40 571.58 1216.28 576.64 1205.32 580.49 C 1196.58 584.75 1186.78 586.15 1177.15 586.38 C 1169.31 586.42 1162.66 581.70 1155.30 579.83 C 1152.12 578.83 1149.53 581.42 1147.35 583.32 C 1141.45 588.86 1136.03 595.03 1132.15 602.18 C 1129.67 606.79 1125.19 609.75 1120.90 612.48 C 1121.61 602.68 1119.10 593.09 1116.41 583.77 C 1115.69 582.07 1115.34 579.53 1113.22 579.06 C 1108.83 578.03 1103.73 579.12 1100.02 576.03 C 1093.51 570.86 1088.68 563.99 1082.83 558.15 C 1077.18 552.64 1071.73 546.94 1065.80 541.74 C 1077.99 542.19 1089.31 535.83 1098.60 528.55 C 1103.30 525.71 1101.64 519.89 1101.43 515.36 C 1099.52 507.78 1105.63 499.67 1113.47 499.40 Z" />
</g>
<g id="#0f3f00fe">
<path fill="#0f3f00" fill-opacity="0" d=" M 906.39 497.87 C 916.93 497.00 927.49 496.54 938.05 496.07 C 939.28 504.45 940.07 512.89 941.39 521.26 C 941.68 524.09 942.11 527.17 940.78 529.82 C 936.16 538.73 930.66 547.13 925.86 555.94 C 918.62 554.85 911.47 553.28 904.32 551.75 C 905.58 533.81 905.86 515.83 906.39 497.87 Z" />
</g>
<g id="#8f7f00ff">
<path fill="#8f7f00" fill-opacity="0" d=" M 1027.68 550.46 C 1028.84 543.17 1029.78 535.84 1030.59 528.50 C 1033.74 529.95 1036.80 531.58 1039.88 533.20 C 1047.75 538.12 1057.24 538.62 1065.80 541.74 C 1071.73 546.94 1077.18 552.64 1082.83 558.15 C 1088.68 563.99 1093.51 570.86 1100.02 576.03 C 1103.73 579.12 1108.83 578.03 1113.22 579.06 C 1115.34 579.53 1115.69 582.07 1116.41 583.77 C 1119.10 593.09 1121.61 602.68 1120.90 612.48 C 1120.80 617.13 1119.40 622.25 1121.86 626.54 C 1125.65 631.91 1131.92 634.82 1135.97 639.95 C 1139.90 645.92 1143.50 652.72 1143.13 660.12 C 1142.45 664.09 1140.23 667.57 1138.43 671.11 C 1131.27 666.54 1122.43 668.65 1114.45 668.27 C 1102.98 667.42 1092.10 673.18 1084.38 681.32 C 1085.17 683.71 1086.24 686.09 1086.37 688.64 C 1084.25 692.56 1079.48 693.33 1075.43 692.56 C 1065.15 692.66 1062.74 680.11 1053.78 677.51 C 1047.44 676.09 1040.80 676.04 1034.40 676.82 C 1027.26 678.84 1020.99 683.07 1014.31 686.17 C 1006.71 680.02 997.89 675.70 988.78 672.30 C 985.12 671.00 981.11 671.04 977.31 670.85 C 976.70 670.45 976.09 670.08 975.49 669.74 C 972.58 659.61 970.76 648.39 975.53 638.49 C 979.05 634.47 983.88 631.87 987.91 628.40 C 986.89 623.44 986.18 618.43 984.86 613.55 C 990.19 607.62 994.41 600.72 1000.47 595.45 C 1008.95 588.04 1011.07 576.39 1017.63 567.61 C 1021.27 562.14 1026.71 557.30 1027.68 550.46 Z" />
</g>
<g id="#8fbf7ffe">
<path fill="#8fbf7f" fill-opacity="0" d=" M 1408.46 551.35 C 1412.70 549.22 1416.24 545.99 1419.96 543.08 C 1421.80 549.97 1427.47 554.42 1432.82 558.63 C 1441.14 567.01 1449.33 576.05 1453.80 587.13 C 1456.79 594.39 1460.54 601.32 1463.00 608.79 C 1464.21 615.38 1462.76 622.26 1464.26 628.82 C 1467.40 638.48 1473.81 646.75 1476.26 656.68 C 1478.16 667.13 1476.21 678.43 1470.16 687.23 C 1460.88 693.03 1451.50 698.81 1441.83 703.94 C 1438.28 705.98 1434.93 702.66 1432.07 700.92 C 1425.72 696.07 1417.63 694.69 1410.54 691.32 C 1398.23 686.36 1387.00 678.76 1377.98 669.02 C 1372.52 663.88 1367.58 657.51 1360.30 654.92 C 1352.57 653.91 1344.15 653.51 1336.65 655.76 C 1328.11 663.77 1318.93 671.41 1307.96 675.90 C 1298.82 680.33 1288.42 675.92 1279.35 673.56 C 1273.41 671.44 1266.94 669.68 1260.68 671.43 C 1266.76 665.41 1273.28 659.58 1278.35 652.67 C 1278.09 647.40 1274.94 642.80 1274.04 637.65 C 1272.28 633.16 1273.83 628.36 1272.82 623.80 C 1270.00 618.30 1265.70 613.82 1262.29 608.72 C 1258.46 602.94 1257.84 595.64 1254.01 589.89 C 1250.96 586.21 1246.20 584.48 1243.04 580.93 C 1240.99 578.47 1240.25 575.25 1239.28 572.28 C 1248.85 572.99 1259.51 574.45 1267.61 568.00 C 1276.26 575.80 1286.03 582.24 1296.38 587.57 C 1299.55 589.42 1303.71 588.92 1306.50 586.60 C 1316.54 579.80 1317.67 566.33 1317.00 555.28 C 1322.10 551.13 1328.24 548.60 1334.23 546.02 C 1336.89 544.81 1339.92 544.25 1342.81 545.03 C 1357.05 548.47 1371.11 554.31 1386.02 553.89 C 1393.51 553.92 1401.39 554.41 1408.46 551.35 Z" />
</g>
<g id="#4f3f7fff">
<path fill="#4f3f7f" fill-opacity="0" d=" M 769.99 557.01 C 775.18 551.47 782.59 549.15 789.68 547.12 C 789.63 555.74 791.44 564.35 795.04 572.19 C 795.93 574.72 797.70 577.18 797.56 579.96 C 795.63 587.14 790.52 593.75 791.02 601.45 C 794.72 608.41 801.85 613.35 804.24 621.06 C 805.48 635.93 803.60 652.31 811.84 665.57 C 811.04 669.45 810.18 673.50 807.67 676.69 C 805.25 679.73 801.80 681.64 798.63 683.78 C 789.18 681.70 780.76 672.19 770.50 676.45 C 762.46 681.52 762.06 692.11 755.29 698.20 C 748.78 703.98 742.10 709.57 735.91 715.71 C 731.01 712.72 726.16 709.68 721.30 706.65 C 720.54 698.00 720.10 689.32 718.89 680.72 C 717.58 673.08 713.04 666.53 708.27 660.64 C 706.12 657.78 703.47 655.08 702.55 651.53 C 699.55 643.05 703.51 634.31 703.44 625.73 C 703.38 620.24 700.52 615.44 696.95 611.52 C 703.95 608.53 710.31 604.31 716.58 600.05 C 725.06 605.63 735.01 608.95 745.16 609.56 C 750.38 609.82 756.15 609.93 760.61 606.72 C 766.37 602.67 772.54 597.38 773.27 589.92 C 774.92 581.57 768.59 574.71 766.08 567.22 C 764.99 563.39 767.32 559.59 769.99 557.01 Z" />
</g>
<g id="#10bf00ff">
<path fill="#10bf00" fill-opacity="0" d=" M 798.25 547.16 C 800.77 547.46 803.29 547.77 805.82 548.08 C 806.23 549.38 806.66 550.69 807.12 552.00 C 803.75 551.27 800.41 550.53 797.06 549.85 C 797.45 548.94 797.84 548.05 798.25 547.16 Z" />
</g>
<g id="#8fbf00ff">
<path fill="#8fbf00" fill-opacity="0" d=" M 567.40 556.74 C 576.18 556.51 585.01 558.08 593.31 560.89 C 599.65 563.76 605.78 567.11 612.15 569.94 C 625.84 576.94 639.63 583.95 652.31 592.69 C 661.33 597.87 662.27 609.29 662.57 618.60 C 660.21 623.58 657.70 628.76 653.28 632.25 C 643.64 639.92 637.23 650.99 626.81 657.75 C 619.14 662.72 613.87 670.39 608.45 677.56 C 605.61 680.96 607.31 685.44 607.75 689.39 C 609.19 697.34 609.42 705.55 611.91 713.30 C 614.54 717.52 619.03 720.10 622.70 723.31 C 634.00 732.00 644.81 741.30 656.35 749.68 C 659.97 752.77 664.82 755.49 665.67 760.59 C 667.10 766.54 669.97 772.01 673.35 777.08 C 669.69 778.65 666.58 781.12 664.07 784.21 C 661.53 787.24 657.25 785.89 653.91 785.48 C 648.60 784.42 642.71 785.28 638.02 782.01 C 627.74 776.01 618.37 768.50 607.54 763.46 C 592.85 754.69 578.60 745.22 564.41 735.66 C 558.33 731.55 551.10 728.49 546.66 722.37 C 543.28 717.71 543.58 710.85 547.64 706.68 C 552.75 700.72 560.09 694.13 558.55 685.35 C 554.28 676.23 543.91 673.45 536.97 667.02 C 533.16 663.89 529.27 659.29 530.33 653.99 C 531.80 647.91 535.49 642.22 540.86 638.90 C 544.57 636.29 549.04 634.52 551.86 630.84 C 555.11 626.03 555.62 620.05 555.77 614.40 C 555.83 607.97 553.84 601.76 551.09 596.01 C 552.62 594.61 554.15 593.22 555.67 591.81 C 554.34 583.77 553.26 575.37 555.46 567.39 C 558.08 562.84 561.53 557.07 567.40 556.74 Z" />
</g>
<g id="#4f7f7fff">
<path fill="#4f7f7f" fill-opacity="0" d=" M 690.73 578.27 C 687.71 570.73 689.06 561.98 694.12 555.67 C 698.19 560.06 702.65 564.06 707.20 567.95 C 703.69 573.08 700.15 578.18 696.64 583.31 C 694.57 581.76 692.27 580.38 690.73 578.27 Z" />
</g>
<g id="#cf7f00ff">
<path fill="#cf7f00" fill-opacity="0" d=" M 940.73 578.33 C 949.67 574.91 956.66 567.60 966.05 565.14 C 968.89 564.75 972.16 564.63 974.65 566.32 C 977.68 570.71 980.09 575.99 979.77 581.45 C 978.80 585.28 975.74 588.23 974.74 592.06 C 977.34 599.53 982.51 605.93 984.86 613.55 C 986.18 618.43 986.89 623.44 987.91 628.40 C 983.88 631.87 979.05 634.47 975.53 638.49 C 970.76 648.39 972.58 659.61 975.49 669.74 C 966.86 665.53 958.93 660.05 950.27 655.90 C 946.67 654.21 942.49 653.93 938.64 654.78 C 932.92 656.26 928.32 661.07 922.24 661.16 C 912.17 660.21 902.81 654.10 892.51 655.68 C 885.04 658.49 878.87 663.97 871.39 666.78 C 869.32 667.12 867.26 666.38 865.27 665.96 C 855.74 663.36 846.09 660.97 836.19 660.41 C 827.77 659.80 819.71 662.99 811.84 665.57 C 803.60 652.31 805.48 635.93 804.24 621.06 C 801.85 613.35 794.72 608.41 791.02 601.45 C 790.52 593.75 795.63 587.14 797.56 579.96 C 797.70 577.18 795.93 574.72 795.04 572.19 C 808.81 579.20 824.59 576.44 839.18 579.77 C 849.20 583.12 858.97 587.24 869.17 590.06 C 869.64 584.80 869.78 579.51 870.13 574.24 C 877.14 572.71 884.22 570.32 891.50 571.78 C 907.95 573.27 923.90 582.90 940.73 578.33 Z" />
</g>
<g id="#4f007fff">
<path fill="#4f007f" fill-opacity="0" d=" M 1205.32 580.49 C 1216.28 576.64 1227.40 571.58 1239.28 572.28 C 1240.25 575.25 1240.99 578.47 1243.04 580.93 C 1246.20 584.48 1250.96 586.21 1254.01 589.89 C 1257.84 595.64 1258.46 602.94 1262.29 608.72 C 1265.70 613.82 1270.00 618.30 1272.82 623.80 C 1273.83 628.36 1272.28 633.16 1274.04 637.65 C 1274.94 642.80 1278.09 647.40 1278.35 652.67 C 1273.28 659.58 1266.76 665.41 1260.68 671.43 C 1250.18 677.67 1237.85 673.11 1226.59 672.60 C 1215.59 670.61 1209.81 682.08 1201.14 686.19 C 1188.13 690.48 1174.47 692.13 1161.13 695.03 C 1161.76 692.18 1162.39 689.37 1162.99 686.53 C 1154.24 682.34 1144.77 678.83 1138.43 671.11 C 1140.23 667.57 1142.45 664.09 1143.13 660.12 C 1143.50 652.72 1139.90 645.92 1135.97 639.95 C 1131.92 634.82 1125.65 631.91 1121.86 626.54 C 1119.40 622.25 1120.80 617.13 1120.90 612.48 C 1125.19 609.75 1129.67 606.79 1132.15 602.18 C 1136.03 595.03 1141.45 588.86 1147.35 583.32 C 1149.53 581.42 1152.12 578.83 1155.30 579.83 C 1162.66 581.70 1169.31 586.42 1177.15 586.38 C 1186.78 586.15 1196.58 584.75 1205.32 580.49 Z" />
</g>
<g id="#4f3f00ff">
<path fill="#4f3f00" fill-opacity="0" d=" M 462.53 587.55 C 468.42 587.83 476.25 585.93 480.48 591.45 C 486.78 600.66 487.33 612.20 489.59 622.77 C 491.71 628.66 497.78 630.99 503.51 631.08 C 505.43 625.49 506.98 619.74 509.62 614.45 C 511.72 610.35 516.50 608.79 520.68 607.77 C 526.62 606.54 531.89 610.49 537.23 612.38 C 543.07 614.93 549.55 614.59 555.77 614.40 C 555.62 620.05 555.11 626.03 551.86 630.84 C 549.04 634.52 544.57 636.29 540.86 638.90 C 535.49 642.22 531.80 647.91 530.33 653.99 C 529.27 659.29 533.16 663.89 536.97 667.02 C 543.91 673.45 554.28 676.23 558.55 685.35 C 560.09 694.13 552.75 700.72 547.64 706.68 C 543.58 710.85 543.28 717.71 546.66 722.37 C 551.10 728.49 558.33 731.55 564.41 735.66 C 578.60 745.22 592.85 754.69 607.54 763.46 C 599.74 762.05 592.17 759.61 584.43 757.95 C 581.30 761.12 578.14 764.28 574.98 767.43 C 563.19 764.40 553.45 756.79 542.94 751.07 C 514.52 734.90 486.32 718.35 457.93 702.13 C 454.89 700.12 450.96 698.54 449.66 694.83 C 451.65 685.76 460.95 679.84 460.84 670.09 C 463.64 668.57 466.68 667.10 468.73 664.56 C 471.23 659.40 466.06 657.28 462.96 655.05 C 455.07 650.29 447.60 644.91 440.87 638.60 C 443.08 634.41 445.98 630.56 450.12 628.11 C 451.20 624.39 451.32 620.30 452.96 616.77 C 455.97 612.27 460.56 609.14 463.84 604.88 C 466.88 600.80 466.33 595.52 466.29 590.73 C 466.36 589.59 465.84 588.87 464.73 588.55 C 464.18 588.30 463.08 587.80 462.53 587.55 Z" />
</g>
<g id="#256a55ff">
<path fill="#256a55" fill-opacity="0" d=" M 464.73 588.55 C 465.84 588.87 466.36 589.59 466.29 590.73 C 464.64 590.80 464.12 590.08 464.73 588.55 Z" />
</g>
<g id="#8f0000fe">
<path fill="#8f0000" fill-opacity="0" d=" M 688.99 610.06 C 691.61 608.35 694.55 610.38 696.95 611.52 C 700.52 615.44 703.38 620.24 703.44 625.73 C 703.51 634.31 699.55 643.05 702.55 651.53 C 703.47 655.08 706.12 657.78 708.27 660.64 C 713.04 666.53 717.58 673.08 718.89 680.72 C 720.10 689.32 720.54 698.00 721.30 706.65 C 726.16 709.68 731.01 712.72 735.91 715.71 C 730.96 720.14 725.37 724.36 722.76 730.68 C 720.49 736.39 719.28 742.72 720.51 748.84 C 721.00 753.84 723.79 758.87 721.98 763.88 C 720.39 768.33 718.49 772.71 716.44 776.98 C 721.70 781.61 727.01 786.18 732.17 790.94 C 729.42 792.71 726.63 794.43 723.84 796.12 C 728.11 800.11 732.46 804.04 736.57 808.21 C 736.89 808.56 737.54 809.27 737.86 809.62 C 734.15 809.49 730.62 809.49 726.96 809.26 C 727.27 812.50 727.66 815.83 728.00 819.09 C 715.89 810.18 704.12 800.81 691.84 792.15 C 685.59 787.25 678.68 783.01 673.35 777.08 C 669.97 772.01 667.10 766.54 665.67 760.59 C 664.82 755.49 659.97 752.77 656.35 749.68 C 644.81 741.30 634.00 732.00 622.70 723.31 C 619.03 720.10 614.54 717.52 611.91 713.30 C 609.42 705.55 609.19 697.34 607.75 689.39 C 607.31 685.44 605.61 680.96 608.45 677.56 C 613.87 670.39 619.14 662.72 626.81 657.75 C 637.23 650.99 643.64 639.92 653.28 632.25 C 657.70 628.76 660.21 623.58 662.57 618.60 C 667.07 618.82 671.62 618.79 676.07 617.92 C 681.05 616.55 684.61 612.55 688.99 610.06 Z" />
</g>
<g id="#4f7f00ff">
<path fill="#4f7f00" fill-opacity="0" d=" M 922.24 661.16 C 928.32 661.07 932.92 656.26 938.64 654.78 C 942.49 653.93 946.67 654.21 950.27 655.90 C 958.93 660.05 966.86 665.53 975.49 669.74 C 976.09 670.08 976.70 670.45 977.31 670.85 C 981.96 679.21 988.62 687.79 987.15 697.97 C 986.73 703.76 983.62 709.02 983.64 714.92 C 984.65 722.51 987.64 729.76 992.13 735.97 C 1000.81 747.68 1001.13 763.29 997.47 776.88 C 993.43 774.38 989.50 771.61 985.07 769.90 C 981.73 768.58 978.30 770.33 975.04 770.99 C 970.62 772.34 966.02 770.82 961.92 769.18 C 954.53 766.75 952.76 756.95 944.86 755.31 C 932.47 753.63 927.00 770.74 914.35 766.69 C 907.94 759.25 902.55 750.85 895.04 744.38 C 887.53 746.88 882.17 752.50 876.37 757.47 C 875.42 752.21 873.73 747.12 872.13 742.03 C 859.56 738.74 846.01 737.37 835.12 729.68 C 825.15 722.56 815.14 715.21 807.09 705.90 C 801.15 700.14 800.24 691.49 798.63 683.78 C 801.80 681.64 805.25 679.73 807.67 676.69 C 810.18 673.50 811.04 669.45 811.84 665.57 C 819.71 662.99 827.77 659.80 836.19 660.41 C 846.09 660.97 855.74 663.36 865.27 665.96 C 867.26 666.38 869.32 667.12 871.39 666.78 C 878.87 663.97 885.04 658.49 892.51 655.68 C 902.81 654.10 912.17 660.21 922.24 661.16 Z" />
</g>
<g id="#8f7f7ffe">
<path fill="#8f7f7f" fill-opacity="0" d=" M 1084.38 681.32 C 1092.10 673.18 1102.98 667.42 1114.45 668.27 C 1122.43 668.65 1131.27 666.54 1138.43 671.11 C 1144.77 678.83 1154.24 682.34 1162.99 686.53 C 1162.39 689.37 1161.76 692.18 1161.13 695.03 C 1159.26 701.98 1154.46 707.67 1150.54 713.56 C 1142.62 724.99 1133.45 736.63 1120.17 742.00 C 1111.84 743.18 1103.29 740.80 1095.03 742.73 C 1087.68 744.47 1080.01 744.27 1072.66 745.75 C 1064.00 749.07 1060.74 758.48 1054.74 764.74 C 1047.03 773.18 1038.45 782.21 1026.72 784.51 C 1021.45 785.10 1016.16 785.09 1010.96 784.14 C 1005.28 784.43 1001.59 779.87 997.47 776.88 C 1001.13 763.29 1000.81 747.68 992.13 735.97 C 987.64 729.76 984.65 722.51 983.64 714.92 C 983.62 709.02 986.73 703.76 987.15 697.97 C 988.62 687.79 981.96 679.21 977.31 670.85 C 981.11 671.04 985.12 671.00 988.78 672.30 C 997.89 675.70 1006.71 680.02 1014.31 686.17 C 1020.99 683.07 1027.26 678.84 1034.40 676.82 C 1040.80 676.04 1047.44 676.09 1053.78 677.51 C 1062.74 680.11 1065.15 692.66 1075.43 692.56 C 1079.48 693.33 1084.25 692.56 1086.37 688.64 C 1086.24 686.09 1085.17 683.71 1084.38 681.32 Z" />
</g>
<g id="#cf3f7fff">
<path fill="#cf3f7f" fill-opacity="0" d=" M 770.50 676.45 C 780.76 672.19 789.18 681.70 798.63 683.78 C 800.24 691.49 801.15 700.14 807.09 705.90 C 815.14 715.21 825.15 722.56 835.12 729.68 C 846.01 737.37 859.56 738.74 872.13 742.03 C 873.73 747.12 875.42 752.21 876.37 757.47 C 876.80 763.65 884.05 766.49 884.04 772.97 C 884.86 779.54 883.86 787.27 879.93 792.85 C 873.73 796.77 865.17 795.32 859.52 800.49 C 851.55 806.52 852.80 818.02 846.39 825.25 C 840.48 822.72 834.71 819.89 828.83 817.33 C 825.09 815.39 820.08 816.06 817.21 819.16 C 813.52 823.06 810.58 828.08 805.45 830.28 C 796.12 833.69 786.04 834.02 776.31 835.48 C 771.76 836.30 768.59 832.03 765.21 829.79 C 759.10 824.31 751.35 818.93 750.31 810.02 C 745.74 809.31 741.15 808.66 736.57 808.21 C 732.46 804.04 728.11 800.11 723.84 796.12 C 726.63 794.43 729.42 792.71 732.17 790.94 C 727.01 786.18 721.70 781.61 716.44 776.98 C 718.49 772.71 720.39 768.33 721.98 763.88 C 723.79 758.87 721.00 753.84 720.51 748.84 C 719.28 742.72 720.49 736.39 722.76 730.68 C 725.37 724.36 730.96 720.14 735.91 715.71 C 742.10 709.57 748.78 703.98 755.29 698.20 C 762.06 692.11 762.46 681.52 770.50 676.45 Z" />
</g>
<g id="#cf3f5ffe">
<path fill="#cf3f5f" fill-opacity="0" d=" M 0.00 1079.00 C 315.67 1079.17 631.35 1078.66 947.02 1079.26 L 947.26 1080.00 L 0.00 1080.00 L 0.00 1079.00 Z" />
</g>
<g id="#fefefeff">
<path fill="#fefefe" fill-opacity="0" d=" M 947.02 1079.26 C 947.76 1079.25 949.25 1079.24 950.00 1079.24 L 949.76 1080.00 L 947.26 1080.00 L 947.02 1079.26 Z" />
<path fill="#fefefe" fill-opacity="0" d=" M 986.43 1079.86 C 988.12 1078.63 990.60 1077.90 992.35 1079.50 L 992.39 1080.00 L 986.89 1080.00 L 986.43 1079.86 Z" />
<path fill="#fefefe" fill-opacity="0" d=" M 997.59 1079.37 C 998.33 1079.34 999.80 1079.29 1000.54 1079.27 L 1000.20 1080.00 L 997.53 1080.00 L 997.59 1079.37 Z" />
<path fill="#fefefe" fill-opacity="0" d=" M 1217.71 1079.96 C 1221.48 1079.69 1225.15 1079.32 1228.98 1079.27 L 1229.04 1080.00 L 1218.63 1080.00 L 1217.71 1079.96 Z" />
</g>
<g id="#007f3fff">
<path fill="#007f3f" fill-opacity="0" d=" M 950.00 1079.24 C 962.14 1078.90 974.29 1079.04 986.43 1079.86 L 986.89 1080.00 L 949.76 1080.00 L 950.00 1079.24 Z" />
<path fill="#007f3f" fill-opacity="0" d=" M 992.35 1079.50 C 993.85 1078.37 996.05 1078.14 997.59 1079.37 L 997.53 1080.00 L 992.39 1080.00 L 992.35 1079.50 Z" />
<path fill="#007f3f" fill-opacity="0" d=" M 1000.54 1079.27 C 1014.77 1078.79 1029.01 1079.07 1043.23 1079.97 L 1042.34 1080.00 L 1000.20 1080.00 L 1000.54 1079.27 Z" />
</g>
<g id="#00bf3fff">
<path fill="#00bf3f" fill-opacity="0" d=" M 1043.23 1079.97 C 1058.80 1079.00 1074.40 1078.74 1090.00 1078.98 L 1089.99 1080.00 L 1042.34 1080.00 L 1043.23 1079.97 Z" />
</g>
<g id="#cf3f5fff">
<path fill="#cf3f5f" fill-opacity="0" d=" M 1090.00 1078.98 C 1132.56 1079.54 1175.17 1077.86 1217.71 1079.96 L 1218.63 1080.00 L 1089.99 1080.00 L 1090.00 1078.98 Z" />
</g>
<g id="#00bfbfff">
<path fill="#00bfbf" fill-opacity="0" d=" M 1228.98 1079.27 C 1231.53 1079.42 1234.10 1079.63 1236.71 1079.91 L 1237.76 1080.00 L 1229.04 1080.00 L 1228.98 1079.27 Z" />
<path fill="#00bfbf" fill-opacity="0" d=" M 1367.71 1079.96 C 1379.44 1079.00 1391.21 1078.82 1403.00 1078.93 C 1426.57 1079.20 1450.17 1078.31 1473.71 1079.96 L 1474.66 1080.00 L 1368.67 1080.00 L 1367.71 1079.96 Z" />
</g>
<g id="#3f3f3fff">
<path fill="#3f3f3f" fill-opacity="0" d=" M 1236.71 1079.91 C 1256.76 1078.35 1276.90 1079.09 1297.00 1079.01 C 1320.57 1079.13 1344.17 1078.32 1367.71 1079.96 L 1368.67 1080.00 L 1237.76 1080.00 L 1236.71 1079.91 Z" />
</g>
<g id="#bf7f3fff">
<path fill="#bf7f3f" fill-opacity="0" d=" M 1473.71 1079.96 C 1502.42 1077.91 1531.23 1079.45 1559.99 1078.99 L 1560.04 1080.00 L 1474.66 1080.00 L 1473.71 1079.96 Z" />
</g>
<g id="#7fbfbfff">
<path fill="#7fbfbf" fill-opacity="0" d=" M 1559.99 1078.99 C 1569.65 1078.99 1579.31 1078.98 1589.00 1079.00 L 1589.01 1080.00 L 1560.04 1080.00 L 1559.99 1078.99 Z" />
</g>
<g id="#00003fff">
<path fill="#00003f" fill-opacity="0" d=" M 1589.00 1079.00 C 1613.66 1079.00 1638.32 1078.99 1663.00 1079.00 L 1663.00 1080.00 L 1589.01 1080.00 L 1589.00 1079.00 Z" />
</g>
<g id="#3f5f7ffe">
<path fill="#3f5f7f" fill-opacity="0" d=" M 1663.00 1079.00 C 1690.23 1079.27 1717.50 1078.15 1744.71 1079.96 L 1745.66 1080.00 L 1663.00 1080.00 L 1663.00 1079.00 Z" />
</g>
<g id="#7f5f00ff">
<path fill="#7f5f00" fill-opacity="0" d=" M 1744.71 1079.96 C 1776.75 1077.83 1808.90 1079.57 1841.00 1078.92 L 1841.01 1080.00 L 1745.66 1080.00 L 1744.71 1079.96 Z" />
</g>
<g id="#7fdf7ffe">
<path fill="#7fdf7f" fill-opacity="0" d=" M 1841.00 1078.92 C 1850.22 1079.02 1859.46 1079.48 1868.71 1079.97 L 1869.66 1080.00 L 1841.01 1080.00 L 1841.00 1078.92 Z" />
</g>
<g id="#bf5f00ff">
<path fill="#bf5f00" fill-opacity="0" d=" M 1868.71 1079.97 C 1885.76 1078.54 1902.89 1078.91 1920.00 1079.02 L 1920.00 1080.00 L 1869.66 1080.00 L 1868.71 1079.97 Z" />
</g>
</svg>
