<?xml version="1.0" encoding="UTF-8" ?>
<!DOCTYPE svg PUBLIC "-//W3C//DTD SVG 1.1//EN" "http://www.w3.org/Graphics/SVG/1.1/DTD/svg11.dtd">
<svg width="1920pt" height="1080pt" viewBox="0 0 1920 1080" version="1.1" xmlns="http://www.w3.org/2000/svg">
<g id="#4fdfbfff">
<path fill="#4fdfbf" fill-opacity="0" d=" M 1340.63 202.62 C 1349.82 205.16 1358.37 209.59 1367.82 211.37 C 1375.67 212.86 1381.53 221.96 1389.98 218.82 C 1393.31 217.44 1396.48 215.75 1400.11 215.10 C 1404.71 213.98 1407.82 210.02 1411.58 207.35 C 1415.99 214.19 1409.53 222.56 1413.56 229.41 C 1418.20 232.68 1423.17 236.30 1428.77 237.66 C 1434.22 233.65 1435.26 224.18 1443.06 223.61 C 1447.96 227.01 1452.42 231.13 1456.65 235.35 C 1458.30 237.05 1458.88 239.53 1458.76 241.85 C 1457.44 256.37 1451.19 269.63 1445.19 282.68 C 1447.66 283.76 1450.11 284.88 1452.56 286.02 C 1450.13 293.67 1448.75 301.69 1444.85 308.81 C 1438.60 320.53 1433.68 332.88 1427.97 344.85 C 1426.68 348.96 1429.17 352.65 1430.76 356.24 C 1436.87 367.38 1434.99 380.77 1432.63 392.77 C 1431.81 403.80 1431.51 414.88 1430.38 425.89 C 1428.85 430.58 1426.40 434.92 1424.46 439.45 C 1422.81 442.76 1424.59 446.44 1425.13 449.86 C 1416.60 450.47 1408.09 452.69 1399.51 452.02 C 1390.59 449.75 1381.98 445.88 1375.19 439.52 C 1371.47 436.33 1367.20 433.77 1363.87 430.15 C 1359.23 425.15 1354.82 419.85 1349.43 415.63 C 1344.31 412.14 1337.51 411.56 1333.19 406.79 C 1324.81 399.69 1321.69 388.89 1317.09 379.37 C 1320.65 376.57 1323.99 373.50 1326.83 369.95 C 1321.39 368.65 1315.24 368.85 1310.58 365.50 C 1308.77 360.71 1312.21 355.07 1309.57 350.50 C 1303.01 344.37 1293.30 345.52 1285.00 344.59 C 1278.86 343.74 1278.11 335.29 1271.76 334.66 C 1266.27 332.53 1259.50 331.30 1256.55 325.53 C 1253.47 319.54 1245.72 318.78 1241.82 313.63 C 1239.93 307.91 1245.83 302.92 1244.70 297.36 C 1239.30 289.53 1228.40 292.43 1221.06 287.89 C 1214.33 285.33 1209.46 279.00 1202.00 278.21 C 1199.30 278.00 1194.39 275.77 1192.65 279.20 C 1190.78 283.15 1189.53 287.85 1185.37 290.07 C 1183.34 286.72 1182.83 282.73 1183.83 278.96 C 1185.89 269.41 1187.77 259.83 1189.54 250.22 C 1190.83 244.82 1191.23 238.59 1195.84 234.83 C 1200.90 230.86 1207.72 230.68 1213.49 228.26 C 1219.36 226.05 1224.09 220.23 1230.73 220.65 C 1242.23 222.02 1253.82 222.43 1265.30 223.94 C 1269.85 224.94 1273.34 220.49 1277.60 220.51 C 1289.14 225.84 1299.92 233.35 1307.91 243.36 C 1310.45 233.92 1312.22 222.69 1321.16 217.13 C 1328.08 212.88 1336.34 210.07 1340.63 202.62 M 1291.63 300.42 C 1293.13 300.56 1294.63 300.71 1296.15 300.85 C 1295.71 299.82 1295.28 298.79 1294.86 297.77 C 1293.77 298.64 1292.69 299.52 1291.63 300.42 Z" />
</g>
<g id="#4f9fbfff">
<path fill="#4f9fbf" fill-opacity="0" d=" M 688.95 220.94 C 692.75 216.84 696.06 212.31 699.64 208.01 C 702.55 212.13 704.91 216.86 709.27 219.69 C 713.90 222.82 719.29 224.49 724.37 226.71 C 729.89 228.64 727.94 237.59 733.65 239.18 C 735.37 239.75 737.17 240.03 738.96 240.38 C 737.23 248.32 735.70 256.44 737.59 264.55 C 739.60 276.75 737.69 289.07 737.51 301.33 C 736.75 309.24 734.69 317.01 732.57 324.65 C 730.90 331.50 721.42 333.30 720.80 340.56 C 721.28 348.74 724.20 356.73 723.50 365.01 C 723.69 375.44 722.07 387.21 729.32 395.83 C 736.66 396.36 743.50 392.16 750.87 392.21 C 753.64 396.05 751.59 401.14 753.09 405.17 C 760.71 410.48 769.84 412.96 778.64 415.66 C 784.03 420.67 789.14 426.63 790.95 433.94 C 792.62 444.45 792.02 455.96 785.91 465.08 C 783.87 468.83 779.50 472.33 780.80 477.11 C 782.95 488.10 784.59 499.24 787.90 509.97 C 775.24 505.08 763.13 498.90 751.30 492.29 C 743.38 489.00 735.13 486.40 726.76 484.58 C 720.87 483.45 715.77 487.03 711.26 490.26 C 706.17 494.35 700.26 499.16 699.39 506.08 C 698.96 510.68 701.39 514.89 702.87 519.09 C 688.26 517.92 674.51 512.39 660.03 510.45 C 655.86 510.54 651.72 511.11 647.56 511.14 C 644.64 513.41 641.54 515.40 638.34 517.24 C 637.54 520.23 637.09 523.56 634.98 525.96 C 632.93 527.42 630.33 527.68 627.95 528.24 C 629.49 533.25 632.56 538.12 632.22 543.50 C 630.25 547.62 626.14 550.40 622.29 552.67 C 618.98 543.37 615.35 534.14 610.75 525.39 C 610.78 526.88 610.83 528.39 610.89 529.90 C 608.44 527.88 605.93 525.92 603.49 523.92 C 602.94 524.26 601.83 524.95 601.28 525.29 C 601.43 526.54 601.59 527.79 601.76 529.06 C 598.93 528.37 596.11 527.66 593.29 526.96 C 593.10 528.29 592.93 529.64 592.75 530.99 C 590.66 529.53 588.57 528.08 586.45 526.68 C 586.22 528.03 585.99 529.38 585.76 530.73 C 581.33 529.29 576.72 528.46 572.06 528.37 C 571.17 526.93 570.30 525.48 569.43 524.05 C 569.25 524.57 568.87 525.61 568.69 526.13 C 563.83 516.04 559.09 505.89 554.10 495.87 C 553.11 492.84 549.47 495.38 550.93 497.75 C 551.75 500.51 552.79 503.21 553.86 505.90 C 554.19 506.52 554.86 507.76 555.19 508.38 C 558.40 515.31 562.13 522.02 564.81 529.19 C 565.10 530.24 565.54 531.24 566.14 532.18 C 566.81 533.40 567.44 534.66 568.07 535.93 C 566.72 535.95 565.37 535.98 564.04 536.01 C 540.93 489.78 519.09 442.93 496.35 396.52 C 494.44 392.88 492.73 389.06 492.34 384.91 C 494.16 385.15 496.00 385.40 497.82 385.68 C 496.74 382.67 494.25 379.06 496.80 376.11 C 503.09 369.29 508.22 361.36 515.65 355.64 C 524.40 348.37 532.89 340.79 541.91 333.86 C 545.16 331.62 546.81 327.69 550.02 325.47 C 560.24 323.65 564.64 313.10 572.22 307.28 C 580.39 300.80 588.50 294.19 596.96 288.07 C 602.00 286.61 607.44 287.28 612.47 288.61 C 618.37 282.93 618.64 274.38 622.81 267.76 C 627.30 262.54 633.75 259.05 637.09 252.84 C 640.34 247.13 648.22 248.56 652.94 244.99 C 663.66 235.14 678.08 230.59 688.95 220.94 M 617.57 342.95 C 617.54 344.31 617.54 345.68 617.57 347.05 L 619.43 347.05 C 619.45 345.68 619.45 344.31 619.43 342.95 L 617.57 342.95 Z" />
<path fill="#4f9fbf" fill-opacity="0" d=" M 490.06 395.20 C 494.87 399.77 497.47 406.01 500.14 411.94 C 521.02 454.94 542.02 497.89 562.92 540.89 C 562.46 541.20 561.54 541.82 561.08 542.13 C 540.13 499.65 519.46 457.05 498.48 414.59 C 495.55 408.19 491.95 402.02 490.06 395.20 Z" />
<path fill="#4f9fbf" fill-opacity="0" d=" M 373.60 489.73 C 372.76 483.60 370.41 476.62 373.97 470.93 C 401.47 511.28 427.90 552.37 455.08 592.95 C 461.38 602.02 467.88 612.36 467.50 623.85 C 463.95 623.08 460.29 621.79 458.91 618.08 C 436.09 583.95 412.77 550.17 389.91 516.08 C 384.22 507.47 377.39 499.41 373.60 489.73 Z" />
<path fill="#4f9fbf" fill-opacity="0" d=" M 392.08 530.97 C 392.78 530.99 394.20 531.04 394.91 531.06 C 425.00 573.66 454.23 616.88 483.35 660.15 C 481.61 661.20 479.89 662.30 478.20 663.42 C 451.46 624.06 423.80 585.34 396.86 546.11 C 394.42 542.66 392.25 539.04 390.08 535.43 C 390.74 533.93 391.40 532.45 392.08 530.97 Z" />
<path fill="#4f9fbf" fill-opacity="0" d=" M 352.52 541.23 C 353.99 541.13 355.46 541.05 356.94 540.98 C 383.82 577.75 410.95 614.34 438.11 650.91 C 442.31 656.93 447.11 662.62 450.39 669.24 C 444.69 666.28 440.86 660.92 437.00 655.99 C 416.76 628.59 396.40 601.27 375.92 574.06 C 368.30 562.98 359.25 552.91 352.52 541.23 Z" />
</g>
<g id="#4f5fbfff">
<path fill="#4f5fbf" fill-opacity="0" d=" M 739.21 239.15 C 746.94 239.19 754.93 239.54 762.10 242.77 C 767.85 244.58 770.45 250.57 775.30 253.71 C 780.52 257.07 786.53 260.29 792.94 259.46 C 795.88 259.57 799.71 258.43 801.72 261.26 C 806.94 267.08 810.49 274.36 816.56 279.43 C 823.47 284.95 827.06 293.40 833.63 299.28 C 835.61 304.81 835.11 311.13 837.62 316.58 C 845.61 331.62 843.09 349.25 846.76 365.33 C 849.90 370.23 856.29 371.66 860.50 375.54 C 864.18 379.14 868.17 382.87 870.14 387.75 C 871.65 394.75 871.74 401.96 872.07 409.09 C 862.29 411.18 851.39 412.65 843.94 419.93 C 838.07 424.65 832.72 432.35 824.59 432.74 C 813.17 429.74 804.65 420.24 793.34 416.83 C 788.58 415.39 783.53 415.72 778.64 415.66 C 769.84 412.96 760.71 410.48 753.09 405.17 C 751.59 401.14 753.64 396.05 750.87 392.21 C 743.50 392.16 736.66 396.36 729.32 395.83 C 722.07 387.21 723.69 375.44 723.50 365.01 C 724.20 356.73 721.28 348.74 720.80 340.56 C 721.42 333.30 730.90 331.50 732.57 324.65 C 734.69 317.01 736.75 309.24 737.51 301.33 C 737.69 289.07 739.60 276.75 737.59 264.55 C 735.70 256.44 737.23 248.32 738.96 240.38 L 739.21 239.15 M 787.16 275.16 C 786.24 279.16 791.16 274.25 787.16 275.16 Z" />
</g>
<g id="#cf60bfff">
<path fill="#cf60bf" fill-opacity="0" d=" M 787.16 275.16 C 791.16 274.25 786.24 279.16 787.16 275.16 Z" />
</g>
<g id="#2f1f7ffe">
<path fill="#2f1f7f" fill-opacity="0" d=" M 1192.65 279.20 C 1194.39 275.77 1199.30 278.00 1202.00 278.21 C 1209.46 279.00 1214.33 285.33 1221.06 287.89 C 1228.40 292.43 1239.30 289.53 1244.70 297.36 C 1245.83 302.92 1239.93 307.91 1241.82 313.63 C 1245.72 318.78 1253.47 319.54 1256.55 325.53 C 1259.50 331.30 1266.27 332.53 1271.76 334.66 C 1278.11 335.29 1278.86 343.74 1285.00 344.59 C 1293.30 345.52 1303.01 344.37 1309.57 350.50 C 1312.21 355.07 1308.77 360.71 1310.58 365.50 C 1315.24 368.85 1321.39 368.65 1326.83 369.95 C 1323.99 373.50 1320.65 376.57 1317.09 379.37 C 1321.69 388.89 1324.81 399.69 1333.19 406.79 C 1337.51 411.56 1344.31 412.14 1349.43 415.63 C 1354.82 419.85 1359.23 425.15 1363.87 430.15 C 1367.20 433.77 1371.47 436.33 1375.19 439.52 C 1366.72 441.70 1355.92 440.75 1350.09 448.41 C 1349.30 454.73 1355.93 462.21 1350.69 467.71 C 1343.60 472.72 1334.70 471.01 1326.57 471.59 C 1309.20 472.83 1291.78 473.13 1274.41 474.24 C 1264.60 474.41 1253.62 475.77 1245.81 468.39 C 1244.73 461.49 1243.06 454.61 1240.02 448.30 C 1236.70 443.50 1230.30 441.95 1226.93 437.20 C 1223.69 431.37 1223.54 423.54 1217.76 419.29 C 1209.37 412.04 1197.94 417.54 1188.25 414.48 C 1173.53 410.65 1157.97 408.93 1144.46 401.47 C 1139.56 398.57 1135.00 395.13 1130.31 391.93 C 1129.47 394.52 1127.80 399.70 1126.96 402.30 C 1122.74 398.63 1120.65 393.07 1121.63 387.54 C 1123.59 373.75 1126.50 360.12 1128.40 346.32 C 1128.52 342.00 1130.62 337.52 1134.85 335.99 C 1141.09 334.36 1148.46 337.42 1153.95 333.04 C 1160.65 329.48 1158.30 320.59 1161.63 314.85 C 1168.45 305.64 1175.15 295.86 1185.37 290.07 C 1189.53 287.85 1190.78 283.15 1192.65 279.20 M 1216.31 349.69 C 1219.03 348.94 1220.93 347.04 1221.69 344.31 C 1218.95 345.06 1217.05 346.96 1216.31 349.69 Z" />
</g>
<g id="#cfdfbfff">
<path fill="#cfdfbf" fill-opacity="0" d=" M 1291.63 300.42 C 1292.69 299.52 1293.77 298.64 1294.86 297.77 C 1295.28 298.79 1295.71 299.82 1296.15 300.85 C 1294.63 300.71 1293.13 300.56 1291.63 300.42 Z" />
</g>
<g id="#cf9fbfff">
<path fill="#cf9fbf" fill-opacity="0" d=" M 617.57 342.95 L 619.43 342.95 C 619.45 344.31 619.45 345.68 619.43 347.05 L 617.57 347.05 C 617.54 345.68 617.54 344.31 617.57 342.95 Z" />
</g>
<g id="#af1f7ffe">
<path fill="#af1f7f" fill-opacity="0" d=" M 1216.31 349.69 C 1217.05 346.96 1218.95 345.06 1221.69 344.31 C 1220.93 347.04 1219.03 348.94 1216.31 349.69 Z" />
</g>
<g id="#8fdf3fff">
<path fill="#8fdf3f" fill-opacity="0" d=" M 1095.87 377.86 C 1103.97 382.48 1113.77 382.32 1121.63 387.54 C 1120.65 393.07 1122.74 398.63 1126.96 402.30 C 1127.80 399.70 1129.47 394.52 1130.31 391.93 C 1135.00 395.13 1139.56 398.57 1144.46 401.47 C 1157.97 408.93 1173.53 410.65 1188.25 414.48 C 1197.94 417.54 1209.37 412.04 1217.76 419.29 C 1223.54 423.54 1223.69 431.37 1226.93 437.20 C 1230.30 441.95 1236.70 443.50 1240.02 448.30 C 1243.06 454.61 1244.73 461.49 1245.81 468.39 C 1241.27 474.68 1236.16 480.54 1230.80 486.14 C 1223.82 485.06 1216.91 482.68 1209.79 483.39 C 1202.07 483.87 1193.27 483.38 1187.53 477.50 C 1183.56 473.97 1181.40 468.12 1176.22 466.22 C 1171.01 463.61 1164.95 467.46 1163.78 472.66 C 1162.72 480.88 1166.56 488.42 1168.90 496.03 C 1171.77 505.75 1176.83 514.82 1177.94 525.02 C 1179.54 535.00 1179.26 546.28 1172.44 554.42 C 1163.17 563.95 1152.57 572.32 1140.76 578.47 C 1133.52 581.97 1126.56 586.00 1119.66 590.10 C 1118.67 598.09 1115.71 605.67 1112.13 612.82 C 1101.92 612.13 1091.34 613.94 1081.56 609.99 C 1080.00 603.09 1077.84 596.13 1072.76 590.94 C 1067.61 591.30 1063.83 596.91 1058.74 596.29 C 1054.71 592.33 1059.25 583.81 1053.16 580.83 C 1048.59 576.12 1041.45 576.49 1035.47 577.07 C 1030.96 577.46 1026.43 576.76 1021.94 576.69 C 1017.11 576.69 1012.87 579.48 1008.14 579.99 C 1003.73 579.84 999.84 577.29 996.37 574.80 C 993.90 570.57 991.38 566.36 989.05 562.06 C 981.68 546.54 968.98 532.67 952.25 527.30 C 952.95 516.19 952.70 505.06 953.08 493.96 C 953.50 488.86 956.74 484.58 960.51 481.38 C 960.74 477.70 960.98 474.03 961.23 470.37 C 965.77 467.36 970.71 464.50 973.97 460.01 C 976.57 455.68 978.47 450.98 980.93 446.57 C 994.02 445.86 1005.91 452.57 1018.89 452.61 C 1022.56 452.59 1025.87 454.30 1029.27 455.50 C 1030.16 452.24 1031.05 448.97 1032.02 445.72 C 1034.59 448.33 1039.36 450.25 1038.70 454.63 C 1038.63 456.18 1038.49 459.29 1038.42 460.84 C 1042.96 464.87 1047.01 469.95 1052.86 472.12 C 1061.97 474.45 1071.50 473.89 1080.80 473.10 C 1084.25 452.21 1086.44 431.15 1089.58 410.21 C 1091.82 399.44 1091.41 388.11 1095.87 377.86 M 1067.69 524.50 C 1069.10 525.08 1070.54 525.66 1071.99 526.24 C 1071.95 525.33 1071.87 523.49 1071.83 522.58 C 1070.43 523.20 1069.05 523.84 1067.69 524.50 Z" />
</g>
<g id="#0f5f3fff">
<path fill="#0f5f3f" fill-opacity="0" d=" M 843.94 419.93 C 851.39 412.65 862.29 411.18 872.07 409.09 L 872.84 408.94 C 876.06 419.87 876.85 431.37 880.49 442.17 C 882.33 449.03 882.77 456.14 884.28 463.06 C 887.24 464.04 891.13 463.87 893.53 466.26 C 894.32 475.37 894.90 484.52 896.06 493.60 C 898.01 495.08 899.94 496.59 901.87 498.12 C 902.21 507.66 902.79 517.21 902.98 526.77 C 892.96 525.57 884.32 532.01 878.40 539.38 C 870.57 547.16 869.24 560.15 858.70 565.36 C 858.64 570.82 859.52 577.65 853.95 580.94 C 849.26 586.31 841.20 587.61 835.34 583.41 C 833.28 581.82 831.53 579.72 830.94 577.14 C 828.60 567.21 827.96 556.98 825.76 547.02 C 824.82 542.87 820.14 541.22 817.55 538.33 C 812.72 534.62 813.20 527.98 811.88 522.58 C 811.17 519.91 811.13 515.82 807.69 515.29 C 801.06 513.67 794.30 512.44 787.90 509.97 C 784.59 499.24 782.95 488.10 780.80 477.11 C 779.50 472.33 783.87 468.83 785.91 465.08 C 792.02 455.96 792.62 444.45 790.95 433.94 C 789.14 426.63 784.03 420.67 778.64 415.66 C 783.53 415.72 788.58 415.39 793.34 416.83 C 804.65 420.24 813.17 429.74 824.59 432.74 C 832.72 432.35 838.07 424.65 843.94 419.93 M 846.33 508.55 C 844.75 509.60 846.31 512.53 847.90 510.93 C 849.60 509.91 847.89 507.13 846.33 508.55 Z" />
</g>
<g id="#8fdfbffe">
<path fill="#8fdfbf" fill-opacity="0" d=" M 1375.19 439.52 C 1381.98 445.88 1390.59 449.75 1399.51 452.02 C 1408.09 452.69 1416.60 450.47 1425.13 449.86 C 1426.27 454.84 1424.49 459.75 1424.43 464.71 C 1426.69 470.24 1434.41 470.66 1437.07 475.91 C 1438.62 481.23 1436.79 486.95 1434.03 491.57 C 1430.48 490.35 1426.52 488.61 1425.33 484.70 C 1422.41 476.86 1420.80 467.58 1413.37 462.51 C 1410.37 460.20 1406.82 462.87 1403.82 463.78 C 1409.07 471.69 1414.29 479.64 1418.60 488.12 C 1414.32 488.71 1410.01 489.22 1405.82 490.26 C 1410.63 496.29 1414.85 503.43 1412.75 511.59 C 1413.25 520.54 1405.99 526.84 1399.62 531.80 C 1394.50 535.88 1391.99 543.52 1385.06 545.13 C 1381.08 546.32 1377.15 548.25 1374.73 551.77 C 1370.00 557.74 1369.48 565.74 1370.01 573.05 C 1370.46 578.10 1367.96 582.67 1365.74 587.01 C 1356.03 579.08 1343.05 579.29 1331.21 578.77 C 1322.43 578.60 1313.50 578.41 1305.00 575.94 C 1296.62 573.48 1299.40 559.97 1289.95 558.69 C 1282.72 557.41 1274.30 558.58 1268.89 563.91 C 1267.21 565.50 1267.15 568.00 1266.88 570.14 C 1266.27 578.12 1267.67 586.17 1266.03 594.09 C 1259.92 594.69 1250.76 592.42 1247.80 599.81 C 1244.94 606.46 1244.98 615.86 1251.06 620.88 C 1254.68 624.89 1259.88 627.63 1262.20 632.70 C 1262.85 639.11 1258.04 644.00 1254.99 649.09 C 1249.74 656.03 1251.64 665.42 1248.01 673.03 C 1244.14 680.93 1241.52 689.37 1237.57 697.22 C 1233.60 700.64 1228.94 705.32 1223.16 704.61 C 1218.70 703.99 1214.42 702.48 1210.11 701.35 C 1207.40 706.76 1207.03 715.64 1199.66 716.68 C 1192.29 717.49 1187.77 710.31 1183.06 705.92 C 1178.26 699.83 1168.63 700.27 1164.96 693.06 C 1163.35 690.91 1161.98 688.75 1160.61 686.48 C 1159.25 689.03 1157.78 691.52 1155.97 693.78 C 1157.64 686.92 1159.63 680.14 1161.21 673.26 C 1162.08 670.12 1158.85 667.93 1157.09 665.94 C 1147.00 656.84 1135.28 647.93 1130.52 634.73 C 1131.02 629.87 1135.57 626.37 1135.89 621.33 C 1130.22 614.37 1120.47 613.45 1112.13 612.82 C 1115.71 605.67 1118.67 598.09 1119.66 590.10 C 1126.56 586.00 1133.52 581.97 1140.76 578.47 C 1152.57 572.32 1163.17 563.95 1172.44 554.42 C 1179.26 546.28 1179.54 535.00 1177.94 525.02 C 1176.83 514.82 1171.77 505.75 1168.90 496.03 C 1166.56 488.42 1162.72 480.88 1163.78 472.66 C 1164.95 467.46 1171.01 463.61 1176.22 466.22 C 1181.40 468.12 1183.56 473.97 1187.53 477.50 C 1193.27 483.38 1202.07 483.87 1209.79 483.39 C 1216.91 482.68 1223.82 485.06 1230.80 486.14 C 1236.16 480.54 1241.27 474.68 1245.81 468.39 C 1253.62 475.77 1264.60 474.41 1274.41 474.24 C 1291.78 473.13 1309.20 472.83 1326.57 471.59 C 1334.70 471.01 1343.60 472.72 1350.69 467.71 C 1355.93 462.21 1349.30 454.73 1350.09 448.41 C 1355.92 440.75 1366.72 441.70 1375.19 439.52 M 1235.61 592.24 C 1236.56 593.57 1237.55 594.90 1238.55 596.23 C 1238.99 594.77 1239.47 593.32 1239.95 591.88 C 1238.49 591.99 1237.04 592.11 1235.61 592.24 Z" />
</g>
<g id="#2f5f00ff">
<path fill="#2f5f00" fill-opacity="0" d=" M 1403.82 463.78 C 1406.82 462.87 1410.37 460.20 1413.37 462.51 C 1420.80 467.58 1422.41 476.86 1425.33 484.70 C 1426.52 488.61 1430.48 490.35 1434.03 491.57 C 1438.21 492.58 1442.89 491.93 1446.63 494.46 C 1451.52 497.84 1457.12 500.94 1463.29 500.42 C 1468.32 499.94 1473.09 501.71 1477.43 504.09 C 1475.45 508.71 1472.88 513.05 1470.94 517.68 C 1467.95 525.50 1470.73 533.70 1472.11 541.52 C 1473.87 549.21 1474.26 558.10 1479.60 564.37 C 1487.14 568.36 1496.17 566.18 1504.32 567.01 C 1507.64 574.55 1509.81 582.62 1511.31 590.72 C 1506.91 597.74 1501.49 604.06 1497.19 611.15 C 1493.63 617.01 1490.24 623.01 1485.93 628.37 C 1489.15 632.38 1492.76 636.13 1497.10 638.97 C 1493.67 645.28 1486.87 650.80 1487.98 658.69 C 1489.51 667.84 1484.58 676.19 1478.91 682.92 C 1473.64 689.03 1469.59 696.17 1463.77 701.80 C 1459.49 704.23 1454.30 703.19 1449.66 703.85 C 1445.56 707.88 1442.98 713.59 1437.80 716.46 C 1434.69 715.99 1431.81 715.01 1428.85 714.10 C 1426.39 717.44 1423.79 720.66 1421.36 724.02 C 1418.71 721.46 1416.07 718.89 1413.65 716.12 C 1413.70 719.43 1412.77 722.61 1411.11 725.46 C 1412.16 727.90 1414.60 730.86 1412.56 733.46 C 1408.30 740.11 1403.12 746.12 1398.54 752.55 C 1395.76 756.05 1392.95 760.25 1388.35 761.39 C 1382.23 762.28 1376.01 760.47 1370.85 757.22 C 1363.47 752.65 1354.19 752.99 1346.85 748.29 C 1338.88 742.75 1328.66 742.03 1319.42 743.99 C 1313.64 746.43 1311.63 753.07 1308.62 758.09 C 1305.01 757.37 1301.33 756.65 1298.11 754.79 C 1291.65 751.78 1287.04 745.05 1279.36 744.88 C 1276.49 744.08 1272.58 744.20 1271.09 741.12 C 1269.06 737.04 1267.90 732.48 1265.25 728.74 C 1259.99 722.92 1254.51 717.21 1250.56 710.41 C 1247.34 705.09 1243.67 699.47 1237.57 697.22 C 1241.52 689.37 1244.14 680.93 1248.01 673.03 C 1251.64 665.42 1249.74 656.03 1254.99 649.09 C 1258.04 644.00 1262.85 639.11 1262.20 632.70 C 1259.88 627.63 1254.68 624.89 1251.06 620.88 C 1244.98 615.86 1244.94 606.46 1247.80 599.81 C 1250.76 592.42 1259.92 594.69 1266.03 594.09 C 1267.67 586.17 1266.27 578.12 1266.88 570.14 C 1267.15 568.00 1267.21 565.50 1268.89 563.91 C 1274.30 558.58 1282.72 557.41 1289.95 558.69 C 1299.40 559.97 1296.62 573.48 1305.00 575.94 C 1313.50 578.41 1322.43 578.60 1331.21 578.77 C 1343.05 579.29 1356.03 579.08 1365.74 587.01 C 1367.96 582.67 1370.46 578.10 1370.01 573.05 C 1369.48 565.74 1370.00 557.74 1374.73 551.77 C 1377.15 548.25 1381.08 546.32 1385.06 545.13 C 1391.99 543.52 1394.50 535.88 1399.62 531.80 C 1405.99 526.84 1413.25 520.54 1412.75 511.59 C 1414.85 503.43 1410.63 496.29 1405.82 490.26 C 1410.01 489.22 1414.32 488.71 1418.60 488.12 C 1414.29 479.64 1409.07 471.69 1403.82 463.78 M 1309.66 608.95 C 1310.18 610.52 1310.70 612.11 1311.28 613.69 C 1312.79 612.30 1314.25 610.83 1315.62 609.29 C 1313.62 609.15 1311.63 609.05 1309.66 608.95 M 1280.30 644.41 C 1279.86 647.37 1281.62 649.13 1284.59 648.70 C 1283.19 647.23 1281.76 645.79 1280.30 644.41 Z" />
</g>
<g id="#df9f00ff">
<path fill="#df9f00" fill-opacity="0" d=" M 479.00 495.16 C 480.32 494.73 481.64 494.30 482.97 493.88 L 482.51 494.46 C 481.47 495.78 480.43 497.10 479.46 498.47 C 479.34 497.64 479.12 495.98 479.00 495.16 Z" />
</g>
<g id="#ef9f00ff">
<path fill="#ef9f00" fill-opacity="0" d=" M 503.67 493.54 C 504.54 494.44 505.39 495.37 506.24 496.32 C 507.00 497.41 508.20 498.19 509.58 498.10 L 510.44 498.16 C 522.27 519.94 533.61 541.98 545.07 563.96 C 546.58 566.87 548.32 569.66 550.15 572.39 C 549.74 575.04 549.40 577.71 548.83 580.34 C 535.65 557.19 523.72 533.36 511.05 509.94 C 508.29 504.62 505.03 499.44 503.67 493.54 Z" />
</g>
<g id="#6f9f00fe">
<path fill="#6f9f00" fill-opacity="0" d=" M 550.93 497.75 C 549.47 495.38 553.11 492.84 554.10 495.87 C 553.13 496.64 552.06 497.26 550.93 497.75 Z" />
<path fill="#6f9f00" fill-opacity="0" d=" M 487.72 515.68 C 490.40 518.04 492.71 520.84 494.25 524.08 C 497.71 530.96 501.75 537.52 505.56 544.21 C 507.81 548.16 509.12 553.52 514.04 554.99 C 519.94 557.11 522.22 563.36 525.06 568.41 C 528.04 574.44 531.78 580.04 535.92 585.33 C 536.14 585.66 536.57 586.33 536.78 586.66 C 536.87 587.92 538.23 588.79 539.27 587.79 C 542.71 585.83 547.63 584.55 548.83 580.34 C 549.40 577.71 549.74 575.04 550.15 572.39 C 551.27 566.16 551.90 559.78 553.86 553.74 C 555.97 547.90 561.77 545.22 567.08 543.04 C 569.61 541.82 571.25 545.17 573.28 546.23 C 575.17 547.71 577.27 548.89 579.29 550.19 C 582.84 553.56 586.31 557.04 589.61 560.67 C 592.00 560.32 594.56 560.12 597.00 559.78 C 602.21 564.14 608.82 568.30 610.27 575.45 C 612.78 583.29 612.76 592.87 619.00 599.00 C 625.50 604.78 634.28 599.51 641.48 597.73 C 641.45 601.95 641.82 606.33 640.46 610.39 C 635.71 622.76 627.48 633.77 624.97 646.99 C 621.58 660.82 622.48 675.15 622.51 689.24 C 622.58 697.11 627.31 706.23 622.12 713.12 C 614.31 717.04 605.60 711.25 597.68 710.68 C 597.80 714.04 598.10 717.39 598.45 720.74 C 598.74 725.85 599.30 733.32 593.43 735.53 C 589.81 737.25 586.34 734.39 585.13 731.09 C 583.53 727.24 580.06 723.10 575.40 724.40 C 570.42 728.45 568.96 735.79 563.22 739.08 C 559.30 741.11 553.39 741.54 550.87 737.15 C 546.85 728.07 551.97 718.91 554.13 710.13 C 555.94 704.22 552.24 698.65 549.12 693.95 C 544.42 686.73 537.87 681.05 531.13 675.84 C 523.58 670.04 517.15 662.99 510.10 656.65 C 509.15 657.49 508.22 658.36 507.29 659.22 C 501.45 650.20 495.56 641.23 489.90 632.10 C 494.49 624.01 499.62 615.59 499.99 606.05 C 497.41 599.21 492.57 593.51 489.90 586.71 C 494.01 592.02 497.14 598.03 501.43 603.23 C 499.91 596.50 494.83 591.26 493.55 584.44 C 492.87 582.11 492.41 579.73 491.93 577.37 C 494.82 573.58 496.86 569.20 497.96 564.57 C 500.77 562.26 504.01 560.22 505.76 556.91 C 506.69 555.90 505.70 554.62 504.98 553.86 C 504.16 552.88 503.46 551.84 502.86 550.74 C 502.21 549.36 501.50 548.01 500.74 546.70 L 500.34 545.88 C 499.96 544.77 499.35 543.78 498.63 542.89 L 498.21 542.21 C 496.05 538.14 494.09 533.99 492.05 529.87 C 493.34 530.62 494.63 531.37 495.93 532.13 C 493.18 526.65 490.16 521.31 487.72 515.68 M 496.46 533.76 C 495.51 535.01 496.91 537.74 498.54 537.24 C 499.48 535.98 498.08 533.25 496.46 533.76 M 498.85 538.81 C 500.36 542.46 502.26 545.93 504.26 549.34 C 505.46 544.80 501.67 541.67 498.85 538.81 M 504.64 548.74 C 505.66 551.25 507.09 553.58 508.89 555.62 C 507.71 553.18 506.29 550.88 504.64 548.74 M 573.53 650.12 C 573.68 650.44 573.96 651.09 574.10 651.41 C 576.69 652.02 574.94 647.93 573.53 650.12 Z" />
<path fill="#6f9f00" fill-opacity="0" d=" M 505.43 538.77 C 506.85 538.02 508.97 540.14 508.23 541.57 C 506.77 542.42 504.57 540.22 505.43 538.77 Z" />
</g>
<g id="#769f00ff">
<path fill="#769f00" fill-opacity="0" d=" M 479.46 498.47 C 480.43 497.10 481.47 495.78 482.51 494.46 C 484.00 496.85 485.48 499.24 486.96 501.66 C 488.35 500.74 489.75 499.84 491.19 498.99 C 490.91 499.51 490.34 500.54 490.06 501.06 C 488.27 502.28 486.22 503.01 484.18 503.69 C 484.76 505.05 485.35 506.42 485.95 507.79 C 485.35 507.71 484.17 507.56 483.57 507.49 C 485.30 509.74 487.06 511.97 488.85 514.18 C 488.32 514.50 487.78 514.82 487.26 515.15 C 486.34 513.96 485.42 512.78 484.50 511.61 C 484.42 512.93 484.34 514.27 484.27 515.60 C 482.74 513.23 481.29 510.82 479.93 508.36 C 481.30 509.26 482.66 510.18 484.04 511.09 C 483.33 509.37 482.63 507.66 481.92 505.96 C 480.45 506.68 478.98 507.41 477.51 508.14 C 477.40 506.97 477.35 505.81 477.36 504.66 C 477.55 503.56 477.73 502.47 477.91 501.39 C 478.28 500.34 478.80 499.37 479.46 498.47 Z" />
</g>
<g id="#889f00ff">
<path fill="#889f00" fill-opacity="0" d=" M 506.24 496.32 C 507.32 494.96 510.29 496.39 509.58 498.10 C 508.20 498.19 507.00 497.41 506.24 496.32 Z" />
<path fill="#889f00" fill-opacity="0" d=" M 554.23 499.82 C 555.60 499.08 556.81 501.47 555.62 502.33 C 554.20 503.10 552.99 500.67 554.23 499.82 Z" />
</g>
<g id="#e89e00ff">
<path fill="#e89e00" fill-opacity="0" d=" M 550.93 497.75 C 552.06 497.26 553.13 496.64 554.10 495.87 C 559.09 505.89 563.83 516.04 568.69 526.13 C 572.57 533.99 575.78 542.16 579.29 550.19 C 577.27 548.89 575.17 547.71 573.28 546.23 C 571.07 543.06 569.79 539.36 568.07 535.93 C 567.44 534.66 566.81 533.40 566.14 532.18 C 567.95 531.23 566.68 528.55 564.81 529.19 C 562.13 522.02 558.40 515.31 555.19 508.38 C 556.53 507.33 555.47 505.33 553.86 505.90 C 552.79 503.21 551.75 500.51 550.93 497.75 M 554.23 499.82 C 552.99 500.67 554.20 503.10 555.62 502.33 C 556.81 501.47 555.60 499.08 554.23 499.82 Z" />
</g>
<g id="#d59f00ff">
<path fill="#d59f00" fill-opacity="0" d=" M 477.36 504.66 C 474.93 504.88 475.72 500.36 477.91 501.39 C 477.73 502.47 477.55 503.56 477.36 504.66 Z" />
</g>
<g id="#e79f00ff">
<path fill="#e79f00" fill-opacity="0" d=" M 490.06 501.06 C 497.07 511.39 502.34 522.75 508.45 533.61 C 517.60 550.85 528.07 567.44 535.92 585.33 C 531.78 580.04 528.04 574.44 525.06 568.41 C 522.22 563.36 519.94 557.11 514.04 554.99 C 509.12 553.52 507.81 548.16 505.56 544.21 C 501.75 537.52 497.71 530.96 494.25 524.08 C 492.71 520.84 490.40 518.04 487.72 515.68 C 490.16 521.31 493.18 526.65 495.93 532.13 C 494.63 531.37 493.34 530.62 492.05 529.87 C 494.09 533.99 496.05 538.14 498.21 542.21 C 490.14 531.57 484.90 519.19 477.51 508.14 C 478.98 507.41 480.45 506.68 481.92 505.96 C 482.63 507.66 483.33 509.37 484.04 511.09 C 482.66 510.18 481.30 509.26 479.93 508.36 C 481.29 510.82 482.74 513.23 484.27 515.60 C 484.34 514.27 484.42 512.93 484.50 511.61 C 485.42 512.78 486.34 513.96 487.26 515.15 C 487.78 514.82 488.32 514.50 488.85 514.18 C 487.06 511.97 485.30 509.74 483.57 507.49 C 484.17 507.56 485.35 507.71 485.95 507.79 C 485.35 506.42 484.76 505.05 484.18 503.69 C 486.22 503.01 488.27 502.28 490.06 501.06 M 487.69 504.79 C 488.81 510.45 492.14 515.20 494.86 520.17 C 498.18 525.93 501.02 531.98 504.73 537.51 C 503.03 531.30 499.97 525.63 496.83 520.06 C 495.74 517.86 495.42 515.40 494.89 513.04 C 494.36 513.61 493.84 514.18 493.33 514.77 C 491.53 511.39 489.65 508.06 487.69 504.79 M 490.11 505.38 C 491.28 507.81 492.71 510.12 494.36 512.26 C 493.33 509.74 491.91 507.41 490.11 505.38 M 484.29 515.42 C 486.35 520.57 489.22 525.34 492.82 529.57 C 490.56 524.52 487.96 519.58 484.29 515.42 M 496.83 520.06 C 497.33 521.48 499.61 520.55 498.91 519.19 C 498.41 517.73 496.12 518.67 496.83 520.06 M 505.43 538.77 C 504.57 540.22 506.77 542.42 508.23 541.57 C 508.97 540.14 506.85 538.02 505.43 538.77 M 508.27 543.54 C 507.12 544.41 508.58 546.37 509.73 545.46 C 510.86 544.58 509.40 542.61 508.27 543.54 M 510.56 546.36 C 511.72 548.62 512.91 550.88 514.15 553.13 C 513.07 550.81 511.88 548.54 510.56 546.36 Z" />
</g>
<g id="#859f00ff">
<path fill="#859f00" fill-opacity="0" d=" M 487.69 504.79 C 489.65 508.06 491.53 511.39 493.33 514.77 C 493.84 514.18 494.36 513.61 494.89 513.04 C 495.42 515.40 495.74 517.86 496.83 520.06 C 499.97 525.63 503.03 531.30 504.73 537.51 C 501.02 531.98 498.18 525.93 494.86 520.17 C 492.14 515.20 488.81 510.45 487.69 504.79 Z" />
</g>
<g id="#8b9f00ff">
<path fill="#8b9f00" fill-opacity="0" d=" M 490.11 505.38 C 491.91 507.41 493.33 509.74 494.36 512.26 C 492.71 510.12 491.28 507.81 490.11 505.38 Z" />
</g>
<g id="#9a9f00ff">
<path fill="#9a9f00" fill-opacity="0" d=" M 553.86 505.90 C 555.47 505.33 556.53 507.33 555.19 508.38 C 554.86 507.76 554.19 506.52 553.86 505.90 Z" />
</g>
<g id="#8f5f3ffe">
<path fill="#8f5f3f" fill-opacity="0" d=" M 846.33 508.55 C 847.89 507.13 849.60 509.91 847.90 510.93 C 846.31 512.53 844.75 509.60 846.33 508.55 Z" />
</g>
<g id="#af9f00ff">
<path fill="#af9f00" fill-opacity="0" d=" M 647.56 511.14 C 651.72 511.11 655.86 510.54 660.03 510.45 C 674.51 512.39 688.26 517.92 702.87 519.09 C 706.14 521.26 709.25 523.91 713.05 525.10 C 718.25 525.66 718.37 518.39 720.75 515.03 C 723.25 527.55 727.63 539.55 731.27 551.76 C 733.45 551.67 735.76 551.66 738.02 551.62 C 739.74 556.14 742.14 560.59 746.29 563.33 C 754.55 569.02 758.67 578.49 764.74 586.16 C 753.20 596.12 737.65 599.30 723.13 602.29 C 718.51 597.88 714.47 591.59 707.87 590.35 C 696.92 591.61 688.00 600.96 676.59 599.98 C 671.22 599.31 666.58 596.07 661.31 594.99 C 654.56 592.69 647.81 595.56 641.48 597.73 C 634.28 599.51 625.50 604.78 619.00 599.00 C 612.76 592.87 612.78 583.29 610.27 575.45 C 608.82 568.30 602.21 564.14 597.00 559.78 C 597.14 558.27 597.30 556.77 597.46 555.28 C 599.49 556.73 601.40 558.47 603.76 559.40 C 607.07 557.93 609.68 555.09 613.24 554.12 C 616.21 553.40 619.28 553.20 622.29 552.67 C 626.14 550.40 630.25 547.62 632.22 543.50 C 632.56 538.12 629.49 533.25 627.95 528.24 C 630.33 527.68 632.93 527.42 634.98 525.96 C 637.09 523.56 637.54 520.23 638.34 517.24 C 641.54 515.40 644.64 513.41 647.56 511.14 M 636.15 540.40 C 635.29 544.38 640.14 539.58 636.15 540.40 Z" />
</g>
<g id="#3f7e97ca">
<path fill="#3f7e97" opacity="0.79" d=" M 354.26 509.40 C 363.52 519.81 370.71 531.84 378.92 543.07 C 392.36 561.35 405.18 580.07 418.63 598.34 C 428.37 612.67 439.60 625.99 448.26 641.04 C 427.08 614.19 408.21 585.59 388.03 557.98 C 376.83 541.75 364.24 526.44 354.26 509.40 Z" />
</g>
<g id="#6f9f00ff">
<path fill="#6f9f00" fill-opacity="0" d=" M 484.29 515.42 C 487.96 519.58 490.56 524.52 492.82 529.57 C 489.22 525.34 486.35 520.57 484.29 515.42 Z" />
<path fill="#6f9f00" fill-opacity="0" d=" M 496.83 520.06 C 496.12 518.67 498.41 517.73 498.91 519.19 C 499.61 520.55 497.33 521.48 496.83 520.06 Z" />
<path fill="#6f9f00" fill-opacity="0" d=" M 564.81 529.19 C 566.68 528.55 567.95 531.23 566.14 532.18 C 565.54 531.24 565.10 530.24 564.81 529.19 Z" />
<path fill="#6f9f00" fill-opacity="0" d=" M 508.27 543.54 C 509.40 542.61 510.86 544.58 509.73 545.46 C 508.58 546.37 507.12 544.41 508.27 543.54 Z" />
</g>
<g id="#356a7faa">
<path fill="#356a7f" opacity="0.67" d=" M 346.40 522.15 C 347.80 521.71 348.28 522.19 347.85 523.60 C 346.45 524.02 345.96 523.54 346.40 522.15 Z" />
<path fill="#356a7f" opacity="0.67" d=" M 360.15 541.40 C 364.14 540.58 359.30 545.38 360.15 541.40 Z" />
<path fill="#356a7f" opacity="0.67" d=" M 363.15 545.40 C 367.14 544.58 362.30 549.38 363.15 545.40 Z" />
<path fill="#356a7f" opacity="0.67" d=" M 371.40 556.15 C 372.80 555.71 373.28 556.19 372.85 557.60 C 371.45 558.02 370.96 557.54 371.40 556.15 Z" />
</g>
<g id="#0f5fbfff">
<path fill="#0f5fbf" fill-opacity="0" d=" M 1067.69 524.50 C 1069.05 523.84 1070.43 523.20 1071.83 522.58 C 1071.87 523.49 1071.95 525.33 1071.99 526.24 C 1070.54 525.66 1069.10 525.08 1067.69 524.50 Z" />
</g>
<g id="#2f9f7ffe">
<path fill="#2f9f7f" fill-opacity="0" d=" M 920.41 525.49 C 925.40 524.98 928.36 529.61 932.62 531.27 C 939.33 532.92 946.63 531.23 952.25 527.30 C 968.98 532.67 981.68 546.54 989.05 562.06 C 991.38 566.36 993.90 570.57 996.37 574.80 C 997.33 582.46 996.38 590.51 991.08 596.55 C 990.44 601.54 991.10 607.38 987.61 611.53 C 981.07 619.92 973.96 627.90 968.21 636.88 C 961.43 635.32 954.55 634.26 947.97 631.99 C 942.25 630.00 936.06 630.40 930.11 630.73 C 926.26 624.55 923.16 616.52 914.95 615.30 C 899.89 612.65 883.92 610.88 870.91 602.15 C 868.04 599.97 864.73 597.63 863.63 594.05 C 864.79 588.89 868.56 584.47 868.13 578.91 C 868.06 572.91 863.33 568.47 858.70 565.36 C 869.24 560.15 870.57 547.16 878.40 539.38 C 884.32 532.01 892.96 525.57 902.98 526.77 C 905.81 528.29 908.41 530.24 911.11 532.02 C 914.16 529.79 916.94 527.07 920.41 525.49 M 891.12 538.52 C 889.79 539.46 891.35 541.73 892.68 540.67 C 893.99 539.73 892.41 537.48 891.12 538.52 Z" />
</g>
<g id="#ef9f00fe">
<path fill="#ef9f00" fill-opacity="0" d=" M 496.46 533.76 C 498.08 533.25 499.48 535.98 498.54 537.24 C 496.91 537.74 495.51 535.01 496.46 533.76 Z" />
</g>
<g id="#4a5a74aa">
<path fill="#4a5a74" opacity="0.67" d=" M 357.15 537.40 C 361.14 536.58 356.30 541.38 357.15 537.40 Z" />
</g>
<g id="#af9f7fff">
<path fill="#af9f7f" fill-opacity="0" d=" M 891.12 538.52 C 892.41 537.48 893.99 539.73 892.68 540.67 C 891.35 541.73 889.79 539.46 891.12 538.52 Z" />
</g>
<g id="#d19f00ff">
<path fill="#d19f00" fill-opacity="0" d=" M 498.85 538.81 C 501.67 541.67 505.46 544.80 504.26 549.34 C 502.26 545.93 500.36 542.46 498.85 538.81 Z" />
</g>
<g id="#cf5f40ff">
<path fill="#cf5f40" fill-opacity="0" d=" M 636.15 540.40 C 640.14 539.58 635.29 544.38 636.15 540.40 Z" />
</g>
<g id="#b37700bf">
<path fill="#b37700" opacity="0.75" d=" M 498.63 542.89 C 499.35 543.78 499.96 544.77 500.34 545.88 C 498.66 546.77 497.08 543.91 498.63 542.89 Z" />
</g>
<g id="#b18500d4">
<path fill="#b18500" opacity="0.83" d=" M 500.74 546.70 C 501.50 548.01 502.21 549.36 502.86 550.74 C 500.70 551.73 499.03 548.04 500.74 546.70 Z" />
</g>
<g id="#7d9f00ff">
<path fill="#7d9f00" fill-opacity="0" d=" M 510.56 546.36 C 511.88 548.54 513.07 550.81 514.15 553.13 C 512.91 550.88 511.72 548.62 510.56 546.36 Z" />
</g>
<g id="#c49f00ff">
<path fill="#c49f00" fill-opacity="0" d=" M 504.64 548.74 C 506.29 550.88 507.71 553.18 508.89 555.62 C 507.09 553.58 505.66 551.25 504.64 548.74 Z" />
</g>
<g id="#346a7faa">
<path fill="#346a7f" opacity="0.67" d=" M 368.40 552.15 C 369.80 551.71 370.28 552.19 369.85 553.60 C 368.45 554.02 367.96 553.54 368.40 552.15 Z" />
</g>
<g id="#cf8b08ff">
<path fill="#cf8b08" fill-opacity="0" d=" M 504.98 553.86 C 505.70 554.62 506.69 555.90 505.76 556.91 C 504.19 557.13 503.57 554.42 504.98 553.86 Z" />
</g>
<g id="#0fdfbffe">
<path fill="#0fdfbf" fill-opacity="0" d=" M 858.70 565.36 C 863.33 568.47 868.06 572.91 868.13 578.91 C 868.56 584.47 864.79 588.89 863.63 594.05 C 864.73 597.63 868.04 599.97 870.91 602.15 C 883.92 610.88 899.89 612.65 914.95 615.30 C 923.16 616.52 926.26 624.55 930.11 630.73 C 936.06 630.40 942.25 630.00 947.97 631.99 C 954.55 634.26 961.43 635.32 968.21 636.88 C 964.79 646.75 964.89 657.41 966.64 667.60 C 968.70 679.58 967.03 691.75 967.68 703.81 C 968.28 707.65 970.61 711.08 970.58 715.08 C 970.61 722.39 970.31 729.69 969.88 736.99 C 969.47 740.77 965.67 742.66 962.93 744.67 C 963.15 751.96 959.72 758.61 954.91 763.89 C 951.15 768.11 950.00 773.77 947.67 778.77 C 943.44 786.12 934.75 789.01 926.98 790.66 C 919.09 787.66 913.71 779.11 904.77 778.37 C 900.91 778.21 895.90 777.80 893.54 781.57 C 889.32 786.25 889.77 792.95 887.02 798.36 C 886.54 791.78 885.54 785.25 884.64 778.74 C 883.47 769.38 873.41 765.20 867.08 759.65 C 867.10 756.36 867.28 753.19 867.47 749.94 C 864.14 749.06 860.80 748.23 857.49 747.31 C 855.61 751.27 853.56 755.14 851.61 759.07 C 846.98 757.86 842.34 756.66 837.70 755.51 C 840.59 745.64 841.07 735.29 842.65 725.17 C 843.73 719.50 843.38 713.63 841.77 708.11 C 837.34 693.57 833.15 678.74 825.39 665.56 C 820.62 657.73 816.54 649.43 813.71 640.72 C 812.38 635.79 814.53 630.87 816.46 626.42 C 819.67 619.28 819.60 611.27 820.16 603.62 C 825.97 597.46 828.09 588.32 835.34 583.41 C 841.20 587.61 849.26 586.31 853.95 580.94 C 859.52 577.65 858.64 570.82 858.70 565.36 M 876.53 623.13 C 875.59 624.30 877.64 625.68 878.45 624.46 C 879.42 623.26 877.33 621.92 876.53 623.13 Z" />
</g>
<g id="#6f1f00fe">
<path fill="#6f1f00" fill-opacity="0" d=" M 996.37 574.80 C 999.84 577.29 1003.73 579.84 1008.14 579.99 C 1012.87 579.48 1017.11 576.69 1021.94 576.69 C 1026.43 576.76 1030.96 577.46 1035.47 577.07 C 1041.45 576.49 1048.59 576.12 1053.16 580.83 C 1059.25 583.81 1054.71 592.33 1058.74 596.29 C 1063.83 596.91 1067.61 591.30 1072.76 590.94 C 1077.84 596.13 1080.00 603.09 1081.56 609.99 C 1091.34 613.94 1101.92 612.13 1112.13 612.82 C 1120.47 613.45 1130.22 614.37 1135.89 621.33 C 1135.57 626.37 1131.02 629.87 1130.52 634.73 C 1135.28 647.93 1147.00 656.84 1157.09 665.94 C 1158.85 667.93 1162.08 670.12 1161.21 673.26 C 1159.63 680.14 1157.64 686.92 1155.97 693.78 C 1155.00 697.42 1153.69 701.19 1150.86 703.82 C 1146.86 707.74 1141.09 710.11 1138.60 715.38 C 1138.47 720.47 1140.49 725.65 1138.65 730.67 C 1134.28 743.99 1133.30 759.36 1122.72 769.76 C 1117.72 774.48 1109.84 772.93 1104.65 769.36 C 1096.62 765.54 1090.74 757.48 1081.65 756.06 C 1075.29 755.01 1070.26 749.69 1068.79 743.54 C 1067.41 736.08 1067.00 728.27 1063.65 721.34 C 1060.21 717.22 1055.35 714.58 1050.63 712.19 C 1040.53 707.05 1031.62 699.96 1021.85 694.31 C 1019.25 692.54 1015.78 693.80 1013.43 695.40 C 1009.09 703.08 1011.97 713.52 1006.67 720.66 C 1001.79 721.88 993.66 724.10 990.98 718.20 C 989.11 714.79 987.48 711.06 984.27 708.67 C 979.78 704.55 973.29 704.98 967.68 703.81 C 967.03 691.75 968.70 679.58 966.64 667.60 C 964.89 657.41 964.79 646.75 968.21 636.88 C 973.96 627.90 981.07 619.92 987.61 611.53 C 991.10 607.38 990.44 601.54 991.08 596.55 C 996.38 590.51 997.33 582.46 996.37 574.80 M 1030.30 640.39 C 1028.85 641.58 1030.89 643.74 1032.19 642.41 C 1033.66 641.26 1031.54 639.08 1030.30 640.39 Z" />
</g>
<g id="#c46a15ff">
<path fill="#c46a15" fill-opacity="0" d=" M 536.78 586.66 C 537.40 586.94 538.65 587.51 539.27 587.79 C 538.23 588.79 536.87 587.92 536.78 586.66 Z" />
</g>
<g id="#6f9f7fff">
<path fill="#6f9f7f" fill-opacity="0" d=" M 764.74 586.16 C 771.75 592.63 780.24 597.25 787.19 603.82 C 797.34 609.78 809.66 607.28 820.16 603.62 C 819.60 611.27 819.67 619.28 816.46 626.42 C 814.53 630.87 812.38 635.79 813.71 640.72 C 816.54 649.43 820.62 657.73 825.39 665.56 C 833.15 678.74 837.34 693.57 841.77 708.11 C 843.38 713.63 843.73 719.50 842.65 725.17 C 841.07 735.29 840.59 745.64 837.70 755.51 C 836.53 758.47 835.24 761.64 832.68 763.68 C 825.59 763.20 822.97 752.48 814.93 755.71 C 807.25 756.12 807.51 766.28 801.34 768.97 C 798.06 769.50 794.77 768.46 791.60 767.74 C 784.51 765.78 777.34 763.98 770.47 761.36 C 767.71 759.62 766.83 756.18 765.63 753.34 C 762.51 744.08 759.29 734.81 755.01 726.02 C 751.95 718.57 742.35 719.80 735.96 717.98 C 735.52 712.63 735.17 707.28 734.84 701.94 C 720.75 701.74 706.77 700.03 692.73 699.06 C 694.61 686.33 705.65 678.41 712.58 668.45 C 716.41 663.58 716.31 656.90 717.26 651.07 C 718.32 642.37 716.03 633.70 717.08 625.01 C 717.49 617.08 720.95 609.81 723.13 602.29 C 737.65 599.30 753.20 596.12 764.74 586.16 M 760.99 621.95 C 761.41 622.98 761.83 624.02 762.27 625.07 C 763.17 624.72 764.08 624.38 765.01 624.05 C 764.57 623.00 764.15 621.96 763.73 620.93 C 762.81 621.26 761.90 621.60 760.99 621.95 Z" />
</g>
<g id="#0fdf3fff">
<path fill="#0fdf3f" fill-opacity="0" d=" M 676.59 599.98 C 688.00 600.96 696.92 591.61 707.87 590.35 C 714.47 591.59 718.51 597.88 723.13 602.29 C 720.95 609.81 717.49 617.08 717.08 625.01 C 716.03 633.70 718.32 642.37 717.26 651.07 C 716.31 656.90 716.41 663.58 712.58 668.45 C 705.65 678.41 694.61 686.33 692.73 699.06 C 692.07 704.37 691.11 711.28 696.04 714.91 C 701.17 718.04 707.08 719.62 712.74 721.52 C 711.59 728.97 708.19 735.78 703.33 741.52 C 699.53 741.41 695.23 739.72 691.61 741.69 C 687.53 743.71 683.76 746.49 679.17 747.23 C 675.51 748.33 670.86 747.85 668.02 750.94 C 664.80 753.46 662.66 757.50 658.76 759.09 C 655.28 759.22 651.95 757.90 648.67 756.87 C 636.55 752.59 624.75 747.42 613.25 741.71 C 615.63 736.54 618.82 731.80 621.42 726.75 C 614.39 722.77 606.52 720.65 598.45 720.74 C 598.10 717.39 597.80 714.04 597.68 710.68 C 605.60 711.25 614.31 717.04 622.12 713.12 C 627.31 706.23 622.58 697.11 622.51 689.24 C 622.48 675.15 621.58 660.82 624.97 646.99 C 627.48 633.77 635.71 622.76 640.46 610.39 C 641.82 606.33 641.45 601.95 641.48 597.73 C 647.81 595.56 654.56 592.69 661.31 594.99 C 666.58 596.07 671.22 599.31 676.59 599.98 Z" />
</g>
<g id="#4f5f3fff">
<path fill="#4f5f3f" fill-opacity="0" d=" M 1235.61 592.24 C 1237.04 592.11 1238.49 591.99 1239.95 591.88 C 1239.47 593.32 1238.99 594.77 1238.55 596.23 C 1237.55 594.90 1236.56 593.57 1235.61 592.24 Z" />
</g>
<g id="#2f1f00ff">
<path fill="#2f1f00" fill-opacity="0" d=" M 1309.66 608.95 C 1311.63 609.05 1313.62 609.15 1315.62 609.29 C 1314.25 610.83 1312.79 612.30 1311.28 613.69 C 1310.70 612.11 1310.18 610.52 1309.66 608.95 Z" />
</g>
<g id="#ef9f7fff">
<path fill="#ef9f7f" fill-opacity="0" d=" M 760.99 621.95 C 761.90 621.60 762.81 621.26 763.73 620.93 C 764.15 621.96 764.57 623.00 765.01 624.05 C 764.08 624.38 763.17 624.72 762.27 625.07 C 761.83 624.02 761.41 622.98 760.99 621.95 Z" />
</g>
<g id="#8f5fbfff">
<path fill="#8f5fbf" fill-opacity="0" d=" M 876.53 623.13 C 877.33 621.92 879.42 623.26 878.45 624.46 C 877.64 625.68 875.59 624.30 876.53 623.13 Z" />
</g>
<g id="#ef1f00ff">
<path fill="#ef1f00" fill-opacity="0" d=" M 1030.30 640.39 C 1031.54 639.08 1033.66 641.26 1032.19 642.41 C 1030.89 643.74 1028.85 641.58 1030.30 640.39 Z" />
</g>
<g id="#af5f00ff">
<path fill="#af5f00" fill-opacity="0" d=" M 1280.30 644.41 C 1281.76 645.79 1283.19 647.23 1284.59 648.70 C 1281.62 649.13 1279.86 647.37 1280.30 644.41 Z" />
</g>
<g id="#6f207fff">
<path fill="#6f207f" fill-opacity="0" d=" M 573.53 650.12 C 574.94 647.93 576.69 652.02 574.10 651.41 C 573.96 651.09 573.68 650.44 573.53 650.12 Z" />
</g>
<g id="#cfdf3fff">
<path fill="#cfdf3f" fill-opacity="0" d=" M 507.29 659.22 C 508.22 658.36 509.15 657.49 510.10 656.65 C 517.15 662.99 523.58 670.04 531.13 675.84 C 537.87 681.05 544.42 686.73 549.12 693.95 C 552.24 698.65 555.94 704.22 554.13 710.13 C 551.97 718.91 546.85 728.07 550.87 737.15 C 553.39 741.54 559.30 741.11 563.22 739.08 C 568.96 735.79 570.42 728.45 575.40 724.40 C 580.06 723.10 583.53 727.24 585.13 731.09 C 586.34 734.39 589.81 737.25 593.43 735.53 C 599.30 733.32 598.74 725.85 598.45 720.74 C 606.52 720.65 614.39 722.77 621.42 726.75 C 618.82 731.80 615.63 736.54 613.25 741.71 C 608.70 751.67 610.55 763.67 603.71 772.73 C 600.67 776.28 596.39 779.89 591.43 779.62 C 585.43 779.50 579.65 777.21 573.65 777.49 C 564.83 777.96 556.61 785.05 555.19 793.81 C 554.14 799.29 554.52 805.40 557.89 810.05 C 562.76 816.98 567.93 823.70 572.86 830.59 C 560.92 828.76 550.17 822.32 538.12 820.96 C 533.91 820.44 529.61 820.81 525.41 820.32 C 520.45 817.92 517.89 812.63 514.40 808.64 C 509.78 802.24 503.37 796.97 500.62 789.36 C 499.15 786.46 498.50 782.09 494.66 781.48 C 489.19 780.12 483.52 779.73 477.92 779.26 C 473.82 779.07 470.38 781.91 467.54 784.54 C 463.43 788.94 459.13 793.18 455.11 797.68 C 447.55 789.95 440.50 781.76 433.22 773.78 C 430.83 771.02 427.95 768.18 427.58 764.34 C 426.65 757.21 432.27 751.80 434.31 745.36 C 437.37 739.22 438.88 731.71 444.69 727.44 C 444.67 725.33 444.62 723.23 444.60 721.13 C 445.88 721.78 447.17 722.44 448.46 723.11 C 448.06 720.96 447.66 718.81 447.25 716.67 L 447.08 715.83 C 454.60 705.46 458.89 692.26 470.01 684.95 C 475.31 680.21 481.86 677.45 488.47 675.11 C 495.42 670.67 501.15 664.67 507.29 659.22 M 488.32 726.18 C 487.15 727.63 489.67 729.29 490.68 727.82 C 491.84 726.35 489.31 724.69 488.32 726.18 Z" />
</g>
<g id="#af1f00ff">
<path fill="#af1f00" fill-opacity="0" d=" M 696.04 714.91 C 691.11 711.28 692.07 704.37 692.73 699.06 C 706.77 700.03 720.75 701.74 734.84 701.94 C 735.17 707.28 735.52 712.63 735.96 717.98 C 742.35 719.80 751.95 718.57 755.01 726.02 C 759.29 734.81 762.51 744.08 765.63 753.34 C 766.83 756.18 767.71 759.62 770.47 761.36 C 777.34 763.98 784.51 765.78 791.60 767.74 C 794.77 768.46 798.06 769.50 801.34 768.97 C 807.51 766.28 807.25 756.12 814.93 755.71 C 822.97 752.48 825.59 763.20 832.68 763.68 C 835.24 761.64 836.53 758.47 837.70 755.51 C 842.34 756.66 846.98 757.86 851.61 759.07 C 853.56 755.14 855.61 751.27 857.49 747.31 C 860.80 748.23 864.14 749.06 867.47 749.94 C 867.28 753.19 867.10 756.36 867.08 759.65 C 873.41 765.20 883.47 769.38 884.64 778.74 C 885.54 785.25 886.54 791.78 887.02 798.36 C 887.08 803.25 885.76 808.17 883.24 812.37 C 877.86 820.02 868.73 823.30 861.40 828.52 C 851.28 836.29 859.99 850.98 850.99 859.00 C 849.11 860.93 846.59 862.45 843.82 862.42 C 840.56 861.31 838.04 858.70 834.77 857.62 C 828.94 856.45 822.37 857.40 818.48 862.47 C 814.58 865.18 812.15 871.31 806.67 870.73 C 798.31 869.84 793.41 862.17 786.49 858.39 C 783.09 856.45 779.24 855.26 775.31 855.17 C 772.68 857.23 771.16 860.30 769.38 863.05 C 770.99 866.41 773.22 869.83 773.22 873.66 C 770.54 879.32 764.17 883.16 764.62 890.17 C 766.47 896.53 770.87 902.14 770.98 909.04 C 772.93 917.34 770.26 926.23 764.47 932.43 C 761.93 936.18 757.34 937.65 752.98 937.55 C 748.46 936.10 744.82 932.11 739.82 932.14 C 732.78 931.50 728.15 938.29 721.56 939.47 C 711.35 941.14 700.72 936.60 693.44 929.55 C 687.97 922.75 684.56 914.52 679.85 907.21 C 670.65 904.89 659.66 905.69 652.50 898.45 C 645.60 891.67 641.57 882.64 636.34 874.63 C 633.90 870.99 635.21 866.42 635.37 862.42 C 628.69 856.67 623.40 849.64 618.71 842.23 C 617.17 839.28 613.51 839.51 610.68 839.45 C 597.68 839.56 584.35 836.69 572.86 830.59 C 567.93 823.70 562.76 816.98 557.89 810.05 C 554.52 805.40 554.14 799.29 555.19 793.81 C 556.61 785.05 564.83 777.96 573.65 777.49 C 579.65 777.21 585.43 779.50 591.43 779.62 C 596.39 779.89 600.67 776.28 603.71 772.73 C 610.55 763.67 608.70 751.67 613.25 741.71 C 624.75 747.42 636.55 752.59 648.67 756.87 C 651.95 757.90 655.28 759.22 658.76 759.09 C 662.66 757.50 664.80 753.46 668.02 750.94 C 670.86 747.85 675.51 748.33 679.17 747.23 C 683.76 746.49 687.53 743.71 691.61 741.69 C 695.23 739.72 699.53 741.41 703.33 741.52 C 708.19 735.78 711.59 728.97 712.74 721.52 C 707.08 719.62 701.17 718.04 696.04 714.91 M 705.32 811.18 C 704.14 812.63 706.67 814.29 707.68 812.82 C 708.84 811.35 706.31 809.69 705.32 811.18 Z" />
</g>
<g id="#ef4f1fff">
<path fill="#ef4f1f" fill-opacity="0" d=" M 444.60 721.13 C 445.47 719.63 446.35 718.15 447.25 716.67 C 447.66 718.81 448.06 720.96 448.46 723.11 C 447.17 722.44 445.88 721.78 444.60 721.13 Z" />
</g>
<g id="#4fdf40ff">
<path fill="#4fdf40" fill-opacity="0" d=" M 488.32 726.18 C 489.31 724.69 491.84 726.35 490.68 727.82 C 489.67 729.29 487.15 727.63 488.32 726.18 Z" />
</g>
<g id="#2f9f00ff">
<path fill="#2f9f00" fill-opacity="0" d=" M 705.32 811.18 C 706.31 809.69 708.84 811.35 707.68 812.82 C 706.67 814.29 704.14 812.63 705.32 811.18 Z" />
</g>
</svg>
