<?xml version="1.0" encoding="UTF-8" ?>
<!DOCTYPE svg PUBLIC "-//W3C//DTD SVG 1.1//EN" "http://www.w3.org/Graphics/SVG/1.1/DTD/svg11.dtd">
<svg width="1920pt" height="1080pt" viewBox="0 0 1920 1080" version="1.1" xmlns="http://www.w3.org/2000/svg">
<g id="#0f1f1fff">
<path fill="#0f1f1f" fill-opacity="0" d=" M 812.07 190.24 C 817.34 187.98 822.96 186.10 828.72 185.65 C 838.51 186.25 847.84 189.88 857.67 190.35 C 874.21 191.74 890.40 195.78 906.96 196.89 L 906.90 197.44 C 905.68 211.17 902.42 224.97 904.19 238.80 C 906.23 260.66 912.48 282.03 912.36 304.10 C 912.19 310.38 913.20 316.60 914.85 322.64 C 911.18 324.10 907.52 325.58 903.89 327.07 C 902.67 333.95 901.91 340.90 901.30 347.85 C 904.94 348.52 908.57 349.21 912.19 350.00 C 912.31 357.72 907.32 364.02 905.76 371.31 C 905.55 380.76 906.75 390.20 906.87 399.66 C 902.85 405.74 897.41 410.84 890.44 413.29 C 890.65 417.59 890.84 421.89 891.05 426.21 C 885.23 426.93 879.06 425.47 873.45 427.53 C 868.93 430.39 866.06 435.24 861.91 438.56 C 858.02 431.07 858.98 422.27 857.59 414.21 C 854.45 411.78 849.92 413.28 846.35 412.93 C 842.39 411.74 838.42 408.52 834.10 410.00 C 828.83 411.05 824.27 415.57 818.65 414.40 C 810.25 412.21 803.18 406.92 795.21 403.67 C 793.09 402.58 790.18 401.70 789.53 399.12 C 787.07 390.54 786.82 381.44 784.04 372.95 C 783.45 371.33 782.47 368.98 780.36 369.30 C 774.43 369.38 769.42 373.10 764.01 375.00 C 760.92 376.25 758.17 373.47 755.39 372.52 C 751.23 370.23 746.22 371.49 741.88 369.92 C 739.49 368.27 739.62 364.40 738.52 362.16 C 736.33 352.63 732.76 343.25 732.62 333.37 C 732.98 329.85 736.58 328.07 739.73 327.65 C 745.72 326.82 750.94 323.58 756.46 321.36 C 753.72 311.59 751.96 301.59 749.58 291.74 C 748.50 287.67 751.63 284.32 753.02 280.78 C 753.17 276.87 751.31 272.96 752.04 269.06 C 760.57 260.95 776.05 265.58 782.11 254.08 C 786.88 246.93 794.03 241.41 797.88 233.66 C 798.01 225.09 794.95 216.79 794.69 208.24 C 800.62 202.39 806.70 196.64 812.07 190.24 Z" />
</g>
<g id="#ef3f5fff">
<path fill="#ef3f5f" fill-opacity="0" d=" M 904.19 238.80 C 902.42 224.97 905.68 211.17 906.90 197.44 C 914.76 200.49 920.83 206.51 926.95 212.08 C 928.69 214.03 931.28 214.56 933.68 215.23 C 941.91 217.36 949.28 221.91 957.46 224.18 C 964.81 224.95 971.53 221.35 977.58 217.65 C 981.93 222.16 980.52 228.53 980.44 234.20 C 979.43 250.38 979.86 266.60 979.19 282.79 C 980.70 283.74 982.22 284.68 983.76 285.64 C 980.58 293.92 975.05 300.94 970.29 308.32 C 968.04 311.66 968.87 315.81 968.95 319.56 C 970.19 325.89 967.02 331.64 965.38 337.51 C 964.22 341.53 964.68 345.96 962.68 349.74 C 960.38 354.46 957.06 359.15 957.11 364.58 C 958.42 369.67 961.37 374.22 962.20 379.47 C 959.13 377.72 956.31 375.61 953.57 373.41 C 950.55 375.84 947.43 378.15 944.49 380.68 C 941.63 383.03 941.10 387.32 937.80 389.22 C 934.47 391.15 930.75 392.28 927.16 393.59 C 927.36 403.60 927.51 413.63 927.94 423.64 C 926.50 423.73 925.05 423.83 923.63 423.95 C 921.85 418.22 922.51 411.61 918.32 406.80 C 916.37 403.71 914.28 400.74 912.01 397.89 C 910.29 398.48 908.57 399.06 906.87 399.66 C 906.75 390.20 905.55 380.76 905.76 371.31 C 907.32 364.02 912.31 357.72 912.19 350.00 C 908.57 349.21 904.94 348.52 901.30 347.85 C 901.91 340.90 902.67 333.95 903.89 327.07 C 907.52 325.58 911.18 324.10 914.85 322.64 C 913.20 316.60 912.19 310.38 912.36 304.10 C 912.48 282.03 906.23 260.66 904.19 238.80 Z" />
</g>
<g id="#8f9f9fff">
<path fill="#8f9f9f" fill-opacity="0" d=" M 983.76 285.64 C 987.44 286.48 992.06 286.03 994.61 289.39 C 998.76 294.86 997.58 302.15 999.48 308.44 C 1000.97 316.74 1006.33 323.56 1012.33 329.20 C 1015.24 326.89 1017.86 323.65 1021.71 322.98 C 1028.40 327.10 1028.17 335.19 1030.43 341.79 C 1034.73 352.30 1044.77 358.81 1050.29 368.52 C 1055.39 379.47 1064.97 387.42 1071.28 397.60 C 1073.35 401.11 1074.27 405.39 1073.58 409.44 C 1072.15 418.29 1070.71 427.14 1069.97 436.08 L 1069.86 436.86 C 1068.79 437.82 1068.60 438.95 1069.29 440.23 C 1068.40 447.79 1067.36 455.64 1062.88 462.05 C 1061.82 456.57 1061.09 450.93 1062.52 445.44 C 1062.77 441.20 1064.98 436.32 1062.77 432.23 C 1060.13 428.86 1056.20 426.79 1053.45 423.51 C 1050.03 419.70 1049.23 414.42 1046.62 410.14 C 1044.69 407.15 1040.79 406.78 1037.62 406.07 C 1026.61 404.47 1015.47 402.35 1004.32 403.61 C 998.55 406.92 995.44 413.20 989.97 416.82 C 981.77 420.05 972.19 410.52 964.91 416.84 C 963.09 418.25 961.40 419.80 959.69 421.33 C 955.16 421.27 950.57 420.73 946.09 421.69 C 941.08 422.70 935.66 422.26 931.06 424.78 C 930.01 424.39 928.97 424.01 927.94 423.64 C 927.51 413.63 927.36 403.60 927.16 393.59 C 930.75 392.28 934.47 391.15 937.80 389.22 C 941.10 387.32 941.63 383.03 944.49 380.68 C 947.43 378.15 950.55 375.84 953.57 373.41 C 956.31 375.61 959.13 377.72 962.20 379.47 C 961.37 374.22 958.42 369.67 957.11 364.58 C 957.06 359.15 960.38 354.46 962.68 349.74 C 964.68 345.96 964.22 341.53 965.38 337.51 C 967.02 331.64 970.19 325.89 968.95 319.56 C 968.87 315.81 968.04 311.66 970.29 308.32 C 975.05 300.94 980.58 293.92 983.76 285.64 M 940.18 392.04 C 941.06 396.18 941.02 400.71 943.17 404.46 C 949.93 406.52 954.67 400.36 959.47 396.81 C 958.17 395.04 956.95 393.18 955.37 391.66 C 950.33 391.09 945.22 391.96 940.18 392.04 Z" />
</g>
<g id="#cfdf9fff">
<path fill="#cfdf9f" fill-opacity="0" d=" M 1084.31 392.05 C 1085.36 385.80 1091.94 381.63 1098.00 382.00 C 1104.43 379.35 1106.99 387.56 1104.93 391.96 C 1100.75 416.12 1096.79 440.31 1092.53 464.46 C 1090.56 475.67 1089.21 487.03 1086.36 498.07 C 1086.00 492.41 1082.47 487.85 1078.45 484.19 C 1076.91 487.03 1075.47 489.93 1074.03 492.83 C 1068.71 493.57 1064.00 497.04 1058.51 496.65 C 1039.77 493.42 1021.26 488.94 1002.93 483.91 C 1000.33 483.08 998.02 481.59 995.85 479.98 C 996.95 477.07 999.03 474.09 998.29 470.83 C 997.83 467.89 994.22 467.64 991.84 467.52 C 978.42 468.00 964.58 470.91 951.53 466.54 C 946.75 465.15 943.92 460.83 941.28 456.95 C 937.98 459.74 934.90 462.79 931.95 465.94 C 929.84 462.83 928.35 459.19 925.31 456.85 C 921.66 455.14 917.90 453.85 914.05 452.75 L 912.89 452.42 C 914.06 449.54 915.06 446.52 917.09 444.12 C 922.18 437.98 925.27 430.35 931.06 424.78 C 935.66 422.26 941.08 422.70 946.09 421.69 C 950.57 420.73 955.16 421.27 959.69 421.33 C 961.40 419.80 963.09 418.25 964.91 416.84 C 972.19 410.52 981.77 420.05 989.97 416.82 C 995.44 413.20 998.55 406.92 1004.32 403.61 C 1015.47 402.35 1026.61 404.47 1037.62 406.07 C 1040.79 406.78 1044.69 407.15 1046.62 410.14 C 1049.23 414.42 1050.03 419.70 1053.45 423.51 C 1056.20 426.79 1060.13 428.86 1062.77 432.23 C 1064.98 436.32 1062.77 441.20 1062.52 445.44 C 1061.09 450.93 1061.82 456.57 1062.88 462.05 C 1067.36 455.64 1068.40 447.79 1069.29 440.23 C 1070.31 439.25 1070.51 438.13 1069.86 436.86 L 1069.97 436.08 C 1070.89 428.34 1072.92 420.71 1076.92 413.97 C 1081.13 407.32 1082.18 399.46 1084.31 392.05 Z" />
</g>
<g id="#4f1f1fff">
<path fill="#4f1f1f" fill-opacity="0" d=" M 940.18 392.04 C 945.22 391.96 950.33 391.09 955.37 391.66 C 956.95 393.18 958.17 395.04 959.47 396.81 C 954.67 400.36 949.93 406.52 943.17 404.46 C 941.02 400.71 941.06 396.18 940.18 392.04 Z" />
</g>
<g id="#cf1f9ffe">
<path fill="#cf1f9f" fill-opacity="0" d=" M 914.05 452.75 C 917.90 453.85 921.66 455.14 925.31 456.85 C 928.35 459.19 929.84 462.83 931.95 465.94 C 934.90 462.79 937.98 459.74 941.28 456.95 C 943.92 460.83 946.75 465.15 951.53 466.54 C 964.58 470.91 978.42 468.00 991.84 467.52 C 994.22 467.64 997.83 467.89 998.29 470.83 C 999.03 474.09 996.95 477.07 995.85 479.98 C 991.54 480.18 987.24 480.55 982.96 480.99 C 982.30 484.87 983.20 489.15 981.70 492.88 C 977.92 499.08 970.99 503.84 969.61 511.33 C 968.67 515.86 968.40 520.77 965.64 524.68 C 962.66 528.74 957.59 530.35 953.18 532.30 C 948.44 532.82 943.71 533.43 938.96 533.80 C 936.42 532.32 932.82 530.87 932.70 527.45 C 932.58 523.90 934.19 520.60 935.19 517.27 C 927.75 514.51 919.56 513.38 913.21 508.28 C 913.48 514.64 915.47 521.59 912.21 527.49 C 908.45 519.92 903.95 512.55 901.94 504.27 C 900.55 495.61 899.84 486.84 899.42 478.09 C 898.87 473.55 902.35 470.19 904.86 466.88 C 908.50 462.57 911.55 457.81 914.05 452.75 Z" />
</g>
<g id="#cf1f1fff">
<path fill="#cf1f1f" fill-opacity="0" d=" M 982.96 480.99 C 987.24 480.55 991.54 480.18 995.85 479.98 C 998.02 481.59 1000.33 483.08 1002.93 483.91 C 1021.26 488.94 1039.77 493.42 1058.51 496.65 C 1064.00 497.04 1068.71 493.57 1074.03 492.83 C 1075.47 489.93 1076.91 487.03 1078.45 484.19 C 1082.47 487.85 1086.00 492.41 1086.36 498.07 C 1082.68 519.14 1079.00 540.22 1075.63 561.36 C 1072.46 558.96 1068.75 556.92 1066.59 553.53 C 1065.11 549.35 1065.49 544.79 1065.16 540.43 C 1058.81 541.02 1053.04 544.09 1047.79 547.51 C 1045.24 546.67 1042.79 545.59 1040.38 544.46 C 1041.56 539.66 1042.91 534.92 1044.16 530.15 C 1039.68 532.10 1035.05 533.66 1030.62 535.66 C 1027.62 538.35 1025.79 542.10 1023.53 545.39 C 1017.78 541.89 1012.46 537.68 1006.52 534.49 C 999.74 531.08 991.99 532.78 984.77 532.89 C 980.08 532.91 976.38 536.15 972.35 538.09 C 966.16 542.60 955.38 540.09 953.18 532.30 C 957.59 530.35 962.66 528.74 965.64 524.68 C 968.40 520.77 968.67 515.86 969.61 511.33 C 970.99 503.84 977.92 499.08 981.70 492.88 C 983.20 489.15 982.30 484.87 982.96 480.99 M 972.63 512.15 C 975.63 517.64 978.68 523.14 980.45 529.21 C 982.08 524.52 983.67 519.81 985.28 515.11 C 990.33 514.63 995.42 514.36 1000.47 513.76 C 998.13 511.32 995.72 508.92 993.02 506.89 C 989.52 503.93 984.47 506.89 980.45 506.50 C 979.75 505.56 979.06 504.63 978.39 503.71 C 976.41 506.48 974.23 509.14 972.63 512.15 Z" />
</g>
<g id="#4f9f1fff">
<path fill="#4f9f1f" fill-opacity="0" d=" M 972.63 512.15 C 974.23 509.14 976.41 506.48 978.39 503.71 C 979.06 504.63 979.75 505.56 980.45 506.50 C 984.47 506.89 989.52 503.93 993.02 506.89 C 995.72 508.92 998.13 511.32 1000.47 513.76 C 995.42 514.36 990.33 514.63 985.28 515.11 C 983.67 519.81 982.08 524.52 980.45 529.21 C 978.68 523.14 975.63 517.64 972.63 512.15 Z" />
</g>
<g id="#efbfdffe">
<path fill="#efbfdf" fill-opacity="0" d=" M 913.21 508.28 C 919.56 513.38 927.75 514.51 935.19 517.27 C 934.19 520.60 932.58 523.90 932.70 527.45 C 932.82 530.87 936.42 532.32 938.96 533.80 C 937.63 533.89 936.33 534.01 935.03 534.12 C 933.95 538.03 933.06 542.25 930.45 545.46 C 927.84 547.43 924.50 547.91 921.44 548.80 C 921.72 557.12 921.17 565.43 921.32 573.76 C 918.64 572.12 915.90 570.54 913.52 568.52 C 911.35 562.04 911.96 555.00 911.32 548.25 C 911.20 541.43 908.90 533.94 912.21 527.49 C 915.47 521.59 913.48 514.64 913.21 508.28 Z" />
</g>
<g id="#4f5f9fff">
<path fill="#4f5f9f" fill-opacity="0" d=" M 1030.62 535.66 C 1035.05 533.66 1039.68 532.10 1044.16 530.15 C 1042.91 534.92 1041.56 539.66 1040.38 544.46 C 1042.79 545.59 1045.24 546.67 1047.79 547.51 C 1049.17 553.84 1051.50 560.17 1055.97 565.01 C 1059.72 569.97 1064.30 574.30 1067.57 579.61 C 1068.35 582.18 1068.81 584.82 1069.37 587.45 C 1061.11 587.71 1052.78 585.11 1044.62 586.93 C 1041.16 587.58 1041.06 591.59 1040.84 594.38 C 1041.09 600.25 1043.35 605.90 1043.42 611.80 C 1043.41 615.35 1041.47 618.89 1042.72 622.41 C 1044.03 626.05 1045.87 629.52 1047.27 633.17 C 1034.93 639.28 1020.84 638.91 1007.50 637.63 C 1007.59 636.65 1007.73 635.69 1007.88 634.74 C 1008.03 633.49 1008.20 632.26 1008.34 631.02 C 1004.97 630.10 1000.51 630.20 998.68 626.64 C 993.67 617.17 984.16 611.54 977.12 603.80 C 975.22 601.94 975.56 599.10 975.94 596.72 C 976.75 592.38 977.80 588.08 978.51 583.72 C 977.39 584.14 976.31 584.56 975.23 585.02 C 970.77 586.58 967.13 589.83 962.67 591.33 C 958.03 591.95 953.61 589.56 949.80 587.21 C 953.79 580.55 957.22 573.56 961.13 566.85 C 963.72 567.64 966.30 568.45 968.90 569.27 C 970.03 565.32 969.67 561.21 968.36 557.35 C 971.56 553.25 975.63 549.61 977.61 544.69 C 979.04 541.19 974.52 539.73 972.35 538.09 C 976.38 536.15 980.08 532.91 984.77 532.89 C 991.99 532.78 999.74 531.08 1006.52 534.49 C 1012.46 537.68 1017.78 541.89 1023.53 545.39 C 1025.79 542.10 1027.62 538.35 1030.62 535.66 M 1006.99 597.08 C 1009.39 599.23 1011.56 601.62 1013.53 604.19 C 1015.43 601.41 1016.86 598.33 1018.01 595.17 C 1014.19 594.47 1010.34 595.12 1006.99 597.08 Z" />
</g>
<g id="#4f9f9fff">
<path fill="#4f9f9f" fill-opacity="0" d=" M 938.96 533.80 C 943.71 533.43 948.44 532.82 953.18 532.30 C 955.38 540.09 966.16 542.60 972.35 538.09 C 974.52 539.73 979.04 541.19 977.61 544.69 C 975.63 549.61 971.56 553.25 968.36 557.35 C 969.67 561.21 970.03 565.32 968.90 569.27 C 966.30 568.45 963.72 567.64 961.13 566.85 C 957.22 573.56 953.79 580.55 949.80 587.21 C 945.60 586.76 941.36 586.65 937.16 586.48 C 935.17 583.26 933.49 579.22 929.75 577.73 C 926.99 577.55 924.40 578.86 922.02 580.09 C 921.70 577.98 921.40 575.88 921.32 573.76 C 921.17 565.43 921.72 557.12 921.44 548.80 C 924.50 547.91 927.84 547.43 930.45 545.46 C 933.06 542.25 933.95 538.03 935.03 534.12 C 936.33 534.01 937.63 533.89 938.96 533.80 Z" />
</g>
<g id="#8f1f1fff">
<path fill="#8f1f1f" fill-opacity="0" d=" M 1047.79 547.51 C 1053.04 544.09 1058.81 541.02 1065.16 540.43 C 1065.49 544.79 1065.11 549.35 1066.59 553.53 C 1068.75 556.92 1072.46 558.96 1075.63 561.36 C 1078.60 563.37 1081.67 565.25 1084.81 567.00 C 1083.27 570.77 1081.88 574.94 1078.49 577.48 C 1075.35 579.76 1071.25 579.49 1067.57 579.61 C 1064.30 574.30 1059.72 569.97 1055.97 565.01 C 1051.50 560.17 1049.17 553.84 1047.79 547.51 Z" />
</g>
<g id="#0fdf1ffe">
<path fill="#0fdf1f" fill-opacity="0" d=" M 1084.81 567.00 C 1091.74 569.37 1098.76 572.81 1103.07 578.97 C 1105.63 582.37 1104.22 587.07 1105.13 590.97 C 1106.06 601.99 1105.59 613.35 1109.18 623.96 C 1111.89 631.13 1118.53 635.58 1124.40 640.04 C 1119.55 643.76 1119.43 650.12 1118.63 655.68 C 1117.97 655.82 1116.65 656.10 1115.98 656.25 C 1114.95 655.35 1113.90 654.50 1112.86 653.66 C 1109.83 656.19 1106.43 660.65 1101.94 658.82 C 1096.61 656.92 1090.49 655.04 1085.14 658.13 C 1080.72 661.39 1078.37 666.67 1074.42 670.45 C 1071.11 669.18 1067.92 667.68 1064.73 666.22 C 1065.53 663.81 1066.36 661.42 1067.18 659.02 C 1061.80 655.54 1055.69 652.99 1050.69 649.03 C 1048.29 644.13 1048.93 638.33 1047.27 633.17 C 1045.87 629.52 1044.03 626.05 1042.72 622.41 C 1041.47 618.89 1043.41 615.35 1043.42 611.80 C 1043.35 605.90 1041.09 600.25 1040.84 594.38 C 1041.06 591.59 1041.16 587.58 1044.62 586.93 C 1052.78 585.11 1061.11 587.71 1069.37 587.45 C 1068.81 584.82 1068.35 582.18 1067.57 579.61 C 1071.25 579.49 1075.35 579.76 1078.49 577.48 C 1081.88 574.94 1083.27 570.77 1084.81 567.00 M 1078.04 583.47 C 1082.13 585.55 1085.63 588.76 1089.96 590.36 C 1094.61 588.98 1098.80 586.37 1103.25 584.43 C 1097.14 580.93 1092.01 576.12 1087.72 570.57 C 1084.30 574.72 1080.95 578.94 1078.04 583.47 Z" />
</g>
<g id="#8f5f1fff">
<path fill="#8f5f1f" fill-opacity="0" d=" M 1078.04 583.47 C 1080.95 578.94 1084.30 574.72 1087.72 570.57 C 1092.01 576.12 1097.14 580.93 1103.25 584.43 C 1098.80 586.37 1094.61 588.98 1089.96 590.36 C 1085.63 588.76 1082.13 585.55 1078.04 583.47 Z" />
</g>
<g id="#8f5f9fff">
<path fill="#8f5f9f" fill-opacity="0" d=" M 922.02 580.09 C 924.40 578.86 926.99 577.55 929.75 577.73 C 933.49 579.22 935.17 583.26 937.16 586.48 C 941.36 586.65 945.60 586.76 949.80 587.21 C 953.61 589.56 958.03 591.95 962.67 591.33 C 967.13 589.83 970.77 586.58 975.23 585.02 C 972.58 591.40 969.36 597.63 964.91 602.96 C 960.86 607.98 953.43 605.96 948.40 609.40 C 944.81 611.54 940.62 615.42 942.29 620.03 C 943.53 623.34 943.14 626.79 941.57 629.91 C 935.84 626.62 929.48 626.52 923.23 627.62 C 913.45 625.88 902.11 626.12 894.69 618.41 C 896.37 615.87 898.08 613.36 899.75 610.83 C 897.12 605.83 893.12 601.08 893.03 595.19 C 896.21 592.61 899.96 590.63 903.93 589.56 C 906.73 589.13 909.70 589.43 912.34 588.21 C 916.05 586.12 918.62 582.59 922.02 580.09 Z" />
</g>
<g id="#4fdf9fff">
<path fill="#4fdf9f" fill-opacity="0" d=" M 889.63 584.13 C 893.18 582.51 896.65 580.64 899.98 578.59 C 902.19 581.87 903.17 585.73 903.93 589.56 C 899.96 590.63 896.21 592.61 893.03 595.19 C 893.12 601.08 897.12 605.83 899.75 610.83 C 898.08 613.36 896.37 615.87 894.69 618.41 C 902.11 626.12 913.45 625.88 923.23 627.62 C 920.23 631.66 916.87 635.41 913.35 639.00 C 909.12 637.68 905.17 635.43 900.77 634.74 C 891.92 634.43 883.23 638.97 878.68 646.63 C 873.55 644.44 868.07 643.33 862.60 642.45 C 856.11 641.71 850.78 637.69 846.21 633.34 C 846.77 629.48 847.41 625.65 848.01 621.80 C 853.90 620.86 859.85 620.25 865.81 619.78 C 864.94 612.67 862.84 605.63 863.40 598.41 C 866.78 594.43 871.18 591.45 875.21 588.17 C 879.28 584.93 884.93 585.82 889.63 584.13 Z" />
</g>
<g id="#af3fdfff">
<path fill="#af3fdf" fill-opacity="0" d=" M 975.23 585.02 C 976.31 584.56 977.39 584.14 978.51 583.72 C 977.80 588.08 976.75 592.38 975.94 596.72 C 975.56 599.10 975.22 601.94 977.12 603.80 C 984.16 611.54 993.67 617.17 998.68 626.64 C 1000.51 630.20 1004.97 630.10 1008.34 631.02 C 1008.20 632.26 1008.03 633.49 1007.88 634.74 C 1002.75 636.76 997.35 638.46 993.18 642.24 C 989.93 646.02 984.81 645.99 980.34 645.39 C 967.54 639.94 954.67 634.60 941.57 629.91 C 943.14 626.79 943.53 623.34 942.29 620.03 C 940.62 615.42 944.81 611.54 948.40 609.40 C 953.43 605.96 960.86 607.98 964.91 602.96 C 969.36 597.63 972.58 591.40 975.23 585.02 Z" />
</g>
<g id="#cf5f9ffe">
<path fill="#cf5f9f" fill-opacity="0" d=" M 1006.99 597.08 C 1010.34 595.12 1014.19 594.47 1018.01 595.17 C 1016.86 598.33 1015.43 601.41 1013.53 604.19 C 1011.56 601.62 1009.39 599.23 1006.99 597.08 Z" />
</g>
<g id="#cf9f1fff">
<path fill="#cf9f1f" fill-opacity="0" d=" M 923.23 627.62 C 929.48 626.52 935.84 626.62 941.57 629.91 C 954.67 634.60 967.54 639.94 980.34 645.39 C 982.32 649.07 984.04 652.94 984.76 657.10 C 981.73 659.67 978.65 662.17 975.62 664.74 C 970.82 663.36 966.07 661.78 961.16 660.87 C 960.99 662.46 960.83 664.07 960.68 665.68 C 955.44 666.29 950.12 668.40 944.90 666.55 C 942.43 663.84 941.39 660.00 938.39 657.80 C 933.10 655.09 926.97 654.77 921.21 653.90 C 918.72 648.86 915.71 644.09 913.35 639.00 C 916.87 635.41 920.23 631.66 923.23 627.62 Z" />
</g>
<g id="#afbfdfff">
<path fill="#afbfdf" fill-opacity="0" d=" M 846.21 633.34 C 850.78 637.69 856.11 641.71 862.60 642.45 C 868.07 643.33 873.55 644.44 878.68 646.63 C 884.79 650.67 889.29 656.61 893.37 662.59 C 894.86 665.77 896.71 669.15 896.27 672.80 C 895.30 677.05 891.31 679.57 889.23 683.22 C 888.19 685.55 887.94 688.15 887.37 690.63 C 886.77 692.65 886.23 694.99 884.29 696.18 C 878.09 700.31 870.57 701.65 863.38 702.97 C 856.41 704.29 850.39 708.24 843.73 710.44 C 837.69 702.64 830.38 695.22 828.42 685.17 C 828.05 685.21 827.33 685.28 826.97 685.32 C 824.07 693.88 817.41 700.22 812.33 707.45 C 808.20 704.41 804.43 700.91 800.54 697.59 C 798.91 698.42 797.29 699.24 795.65 700.05 C 791.86 688.26 799.63 677.38 803.54 666.72 C 810.96 663.69 818.47 660.10 823.76 653.88 C 826.54 649.76 827.86 644.78 831.05 640.92 C 834.27 641.97 837.14 645.73 840.79 643.87 C 844.19 641.53 845.01 637.04 846.21 633.34 Z" />
</g>
<g id="#8f9f1fff">
<path fill="#8f9f1f" fill-opacity="0" d=" M 1007.50 637.63 C 1020.84 638.91 1034.93 639.28 1047.27 633.17 C 1048.93 638.33 1048.29 644.13 1050.69 649.03 C 1055.69 652.99 1061.80 655.54 1067.18 659.02 C 1066.36 661.42 1065.53 663.81 1064.73 666.22 C 1067.92 667.68 1071.11 669.18 1074.42 670.45 C 1078.81 671.13 1085.49 668.73 1088.36 673.39 C 1089.72 678.49 1087.32 683.61 1086.26 688.58 C 1083.58 689.30 1080.89 690.60 1078.06 690.26 C 1074.35 689.19 1071.68 686.03 1068.03 684.84 C 1061.92 685.33 1057.13 689.25 1051.75 691.63 C 1049.27 692.82 1046.58 691.57 1044.18 690.86 C 1039.38 689.13 1034.58 687.36 1029.59 686.28 C 1027.93 692.84 1025.93 699.33 1024.58 705.98 C 1017.39 703.43 1013.37 696.40 1010.40 689.85 C 1010.37 684.46 1010.35 679.06 1010.18 673.68 C 1017.00 669.53 1022.40 663.66 1027.11 657.29 C 1026.71 656.93 1025.91 656.20 1025.51 655.83 C 1019.93 653.63 1016.09 649.11 1011.79 645.22 C 1009.65 643.23 1006.89 640.90 1007.50 637.63 Z" />
</g>
<g id="#8f1f5ffe">
<path fill="#8f1f5f" fill-opacity="0" d=" M 878.68 646.63 C 883.23 638.97 891.92 634.43 900.77 634.74 C 905.17 635.43 909.12 637.68 913.35 639.00 C 915.71 644.09 918.72 648.86 921.21 653.90 C 917.72 654.24 913.85 654.06 910.72 655.80 C 906.46 659.34 902.77 663.48 898.89 667.42 C 897.02 665.84 895.13 664.28 893.37 662.59 C 889.29 656.61 884.79 650.67 878.68 646.63 Z" />
</g>
<g id="#0fdf9fff">
<path fill="#0fdf9f" fill-opacity="0" d=" M 993.18 642.24 C 997.35 638.46 1002.75 636.76 1007.88 634.74 C 1007.73 635.69 1007.59 636.65 1007.50 637.63 C 1006.89 640.90 1009.65 643.23 1011.79 645.22 C 1016.09 649.11 1019.93 653.63 1025.51 655.83 C 1025.91 656.20 1026.71 656.93 1027.11 657.29 C 1022.40 663.66 1017.00 669.53 1010.18 673.68 C 1005.35 674.72 999.52 678.55 995.11 674.94 C 989.88 670.33 985.40 664.26 984.76 657.10 C 984.04 652.94 982.32 649.07 980.34 645.39 C 984.81 645.99 989.93 646.02 993.18 642.24 Z" />
</g>
<g id="#0f5f1fff">
<path fill="#0f5f1f" fill-opacity="0" d=" M 1118.63 655.68 C 1119.43 650.12 1119.55 643.76 1124.40 640.04 C 1128.94 644.90 1132.68 650.56 1135.36 656.66 C 1137.86 662.41 1142.28 667.03 1146.15 671.89 C 1152.27 679.75 1160.85 685.06 1167.74 692.17 C 1163.90 695.99 1158.77 697.98 1153.40 698.14 C 1151.58 703.27 1149.12 709.30 1143.33 710.96 C 1134.76 713.53 1125.69 713.63 1116.81 713.89 C 1119.27 709.65 1121.41 704.97 1121.58 700.00 C 1119.84 694.62 1112.88 693.57 1110.56 688.60 C 1109.47 684.89 1110.53 680.87 1111.66 677.33 C 1113.98 673.82 1118.09 671.82 1120.37 668.23 C 1122.40 663.49 1119.32 659.18 1115.98 656.25 C 1116.65 656.10 1117.97 655.82 1118.63 655.68 M 1122.74 648.56 C 1122.67 654.76 1128.91 658.37 1134.58 657.35 C 1131.45 653.38 1127.45 650.33 1122.74 648.56 Z" />
</g>
<g id="#8fdf1fff">
<path fill="#8fdf1f" fill-opacity="0" d=" M 1122.74 648.56 C 1127.45 650.33 1131.45 653.38 1134.58 657.35 C 1128.91 658.37 1122.67 654.76 1122.74 648.56 Z" />
</g>
<g id="#6f3fdfff">
<path fill="#6f3fdf" fill-opacity="0" d=" M 910.72 655.80 C 913.85 654.06 917.72 654.24 921.21 653.90 C 926.97 654.77 933.10 655.09 938.39 657.80 C 941.39 660.00 942.43 663.84 944.90 666.55 C 950.12 668.40 955.44 666.29 960.68 665.68 C 962.41 667.65 964.11 669.63 965.87 671.61 C 962.79 673.21 959.72 674.82 956.65 676.41 C 959.02 680.01 961.57 683.51 964.56 686.65 C 957.75 694.17 950.47 702.40 939.65 703.56 C 939.47 707.51 940.01 712.03 937.36 715.33 C 934.45 718.58 930.11 719.92 926.16 721.45 C 924.33 716.83 922.85 711.60 918.73 708.45 C 915.80 706.85 912.23 707.16 909.05 706.61 C 909.24 703.20 909.98 699.59 908.64 696.32 C 906.62 694.75 904.51 692.71 901.90 692.40 C 898.11 692.72 894.73 694.69 891.25 696.06 C 889.96 694.25 888.66 692.43 887.37 690.63 C 887.94 688.15 888.19 685.55 889.23 683.22 C 891.31 679.57 895.30 677.05 896.27 672.80 C 896.71 669.15 894.86 665.77 893.37 662.59 C 895.13 664.28 897.02 665.84 898.89 667.42 C 902.77 663.48 906.46 659.34 910.72 655.80 Z" />
</g>
<g id="#ef3fdfff">
<path fill="#ef3fdf" fill-opacity="0" d=" M 1101.94 658.82 C 1106.43 660.65 1109.83 656.19 1112.86 653.66 C 1113.90 654.50 1114.95 655.35 1115.98 656.25 C 1119.32 659.18 1122.40 663.49 1120.37 668.23 C 1118.09 671.82 1113.98 673.82 1111.66 677.33 C 1110.53 680.87 1109.47 684.89 1110.56 688.60 C 1112.88 693.57 1119.84 694.62 1121.58 700.00 C 1121.41 704.97 1119.27 709.65 1116.81 713.89 C 1110.48 712.35 1103.95 711.87 1097.45 712.04 C 1093.44 712.59 1089.57 711.65 1085.95 710.07 C 1087.65 704.44 1089.34 698.82 1090.97 693.18 C 1089.39 691.64 1087.82 690.11 1086.26 688.58 C 1087.32 683.61 1089.72 678.49 1088.36 673.39 C 1085.49 668.73 1078.81 671.13 1074.42 670.45 C 1078.37 666.67 1080.72 661.39 1085.14 658.13 C 1090.49 655.04 1096.61 656.92 1101.94 658.82 Z" />
</g>
<g id="#0f5f9fff">
<path fill="#0f5f9f" fill-opacity="0" d=" M 975.62 664.74 C 978.65 662.17 981.73 659.67 984.76 657.10 C 985.40 664.26 989.88 670.33 995.11 674.94 C 999.52 678.55 1005.35 674.72 1010.18 673.68 C 1010.35 679.06 1010.37 684.46 1010.40 689.85 C 1008.50 695.62 1004.27 700.09 999.34 703.47 C 993.25 708.02 990.91 715.51 987.34 721.89 C 983.69 718.75 978.46 716.80 976.46 712.12 C 973.89 703.16 971.32 693.46 964.56 686.65 C 961.57 683.51 959.02 680.01 956.65 676.41 C 959.72 674.82 962.79 673.21 965.87 671.61 C 964.11 669.63 962.41 667.65 960.68 665.68 C 960.83 664.07 960.99 662.46 961.16 660.87 C 966.07 661.78 970.82 663.36 975.62 664.74 Z" />
</g>
<g id="#0f1f5fff">
<path fill="#0f1f5f" fill-opacity="0" d=" M 1068.03 684.84 C 1071.68 686.03 1074.35 689.19 1078.06 690.26 C 1080.89 690.60 1083.58 689.30 1086.26 688.58 C 1087.82 690.11 1089.39 691.64 1090.97 693.18 C 1089.34 698.82 1087.65 704.44 1085.95 710.07 C 1084.04 715.16 1080.50 719.65 1079.48 725.06 C 1079.71 730.26 1083.81 734.14 1086.69 738.13 C 1085.25 742.93 1083.51 747.77 1083.66 752.86 C 1083.46 756.82 1084.35 761.09 1082.64 764.82 C 1078.68 770.15 1072.88 773.90 1069.33 779.59 C 1067.26 775.87 1064.75 771.84 1066.09 767.34 C 1066.28 763.50 1069.07 759.87 1067.98 756.03 C 1064.52 749.51 1058.24 745.17 1053.77 739.44 C 1050.71 734.67 1048.37 729.49 1044.82 725.06 C 1042.20 726.34 1039.62 727.77 1036.78 728.49 C 1032.67 721.00 1029.16 713.19 1024.58 705.98 C 1025.93 699.33 1027.93 692.84 1029.59 686.28 C 1034.58 687.36 1039.38 689.13 1044.18 690.86 C 1046.58 691.57 1049.27 692.82 1051.75 691.63 C 1057.13 689.25 1061.92 685.33 1068.03 684.84 Z" />
</g>
<g id="#2fbfdffe">
<path fill="#2fbfdf" fill-opacity="0" d=" M 826.97 685.32 C 827.33 685.28 828.05 685.21 828.42 685.17 C 830.38 695.22 837.69 702.64 843.73 710.44 C 850.39 708.24 856.41 704.29 863.38 702.97 C 862.33 706.62 862.05 710.66 859.87 713.87 C 857.11 717.34 853.57 720.06 850.13 722.80 C 853.48 726.36 856.90 731.15 862.36 731.00 C 870.57 730.70 878.64 732.41 886.54 734.51 C 883.72 737.08 880.54 739.22 877.67 741.73 C 869.62 749.55 858.64 753.30 848.01 756.13 C 852.19 778.06 857.80 799.73 862.04 821.67 C 860.60 822.53 859.19 823.43 857.79 824.33 C 854.05 819.97 848.25 821.73 843.58 823.14 C 841.28 819.51 839.96 815.40 838.16 811.53 C 836.89 808.47 832.20 809.15 829.93 808.09 C 821.75 806.72 816.15 799.87 809.67 795.42 C 805.38 792.49 799.57 790.66 798.23 784.93 C 790.95 765.80 784.87 746.22 778.00 726.93 C 776.82 723.44 774.93 720.02 774.88 716.28 C 776.23 711.16 778.78 706.44 780.81 701.57 C 785.70 703.91 791.09 702.35 795.65 700.05 C 797.29 699.24 798.91 698.42 800.54 697.59 C 804.43 700.91 808.20 704.41 812.33 707.45 C 817.41 700.22 824.07 693.88 826.97 685.32 Z" />
</g>
<g id="#cfdf1fff">
<path fill="#cfdf1f" fill-opacity="0" d=" M 964.56 686.65 C 971.32 693.46 973.89 703.16 976.46 712.12 C 978.46 716.80 983.69 718.75 987.34 721.89 C 989.01 728.68 988.86 735.76 987.26 742.54 C 991.50 742.69 995.75 742.88 1000.00 743.16 C 997.52 748.53 992.28 752.29 990.58 758.02 C 989.82 763.89 990.78 769.89 991.99 775.66 C 988.65 779.43 985.50 783.36 982.40 787.33 C 978.14 783.94 974.59 779.27 969.29 777.54 C 963.84 778.33 961.00 784.07 957.63 787.73 C 958.14 781.76 956.68 775.98 954.98 770.34 C 949.82 770.92 944.67 771.47 939.50 771.83 C 940.13 765.15 938.34 758.72 937.08 752.25 C 935.22 747.08 939.48 743.51 941.63 739.49 C 935.51 738.77 929.35 739.68 923.30 740.48 C 922.56 737.12 921.33 733.59 922.33 730.16 C 923.35 727.15 924.84 724.33 926.16 721.45 C 930.11 719.92 934.45 718.58 937.36 715.33 C 940.01 712.03 939.47 707.51 939.65 703.56 C 950.47 702.40 957.75 694.17 964.56 686.65 Z" />
</g>
<g id="#0f1f9fff">
<path fill="#0f1f9f" fill-opacity="0" d=" M 1010.40 689.85 C 1013.37 696.40 1017.39 703.43 1024.58 705.98 C 1029.16 713.19 1032.67 721.00 1036.78 728.49 C 1034.53 728.91 1032.07 728.87 1030.08 730.13 C 1027.62 732.14 1026.23 735.08 1024.65 737.77 C 1020.02 738.36 1013.90 739.25 1012.82 744.77 C 1009.20 753.29 1021.01 758.62 1018.95 766.94 C 1017.05 774.96 1015.15 783.00 1012.58 790.84 C 1004.51 787.71 995.79 784.14 991.99 775.66 C 990.78 769.89 989.82 763.89 990.58 758.02 C 992.28 752.29 997.52 748.53 1000.00 743.16 C 995.75 742.88 991.50 742.69 987.26 742.54 C 988.86 735.76 989.01 728.68 987.34 721.89 C 990.91 715.51 993.25 708.02 999.34 703.47 C 1004.27 700.09 1008.50 695.62 1010.40 689.85 Z" />
</g>
<g id="#6f3f5fff">
<path fill="#6f3f5f" fill-opacity="0" d=" M 884.29 696.18 C 886.23 694.99 886.77 692.65 887.37 690.63 C 888.66 692.43 889.96 694.25 891.25 696.06 C 894.73 694.69 898.11 692.72 901.90 692.40 C 904.51 692.71 906.62 694.75 908.64 696.32 C 909.98 699.59 909.24 703.20 909.05 706.61 C 912.23 707.16 915.80 706.85 918.73 708.45 C 922.85 711.60 924.33 716.83 926.16 721.45 C 924.84 724.33 923.35 727.15 922.33 730.16 C 921.33 733.59 922.56 737.12 923.30 740.48 C 929.35 739.68 935.51 738.77 941.63 739.49 C 939.48 743.51 935.22 747.08 937.08 752.25 C 938.34 758.72 940.13 765.15 939.50 771.83 C 944.67 771.47 949.82 770.92 954.98 770.34 C 956.68 775.98 958.14 781.76 957.63 787.73 C 953.73 800.53 955.79 814.06 955.47 827.21 C 955.87 836.07 955.13 844.97 956.02 853.81 C 953.80 855.94 951.69 858.18 949.68 860.50 C 942.56 859.53 936.24 863.33 929.76 865.55 C 928.40 860.82 927.67 855.95 926.67 851.16 C 920.95 849.86 914.37 850.40 909.82 846.20 C 907.13 844.20 906.32 840.61 905.06 837.75 C 903.15 837.87 901.24 837.88 899.35 837.72 C 898.73 838.98 898.10 840.23 897.50 841.51 C 893.45 837.60 889.76 833.33 886.06 829.11 C 882.82 829.77 879.52 830.32 876.23 830.51 C 873.60 829.38 871.60 827.24 869.34 825.55 C 868.62 827.20 867.90 828.85 867.20 830.53 C 864.46 828.27 862.56 825.20 862.04 821.67 C 857.80 799.73 852.19 778.06 848.01 756.13 C 858.64 753.30 869.62 749.55 877.67 741.73 C 880.54 739.22 883.72 737.08 886.54 734.51 C 878.64 732.41 870.57 730.70 862.36 731.00 C 856.90 731.15 853.48 726.36 850.13 722.80 C 853.57 720.06 857.11 717.34 859.87 713.87 C 862.05 710.66 862.33 706.62 863.38 702.97 C 870.57 701.65 878.09 700.31 884.29 696.18 Z" />
</g>
<g id="#8fdf9ffe">
<path fill="#8fdf9f" fill-opacity="0" d=" M 1153.40 698.14 C 1158.77 697.98 1163.90 695.99 1167.74 692.17 C 1173.70 705.17 1180.17 718.36 1190.49 728.52 C 1195.12 732.85 1197.86 738.65 1200.81 744.16 C 1198.96 743.14 1197.13 742.11 1195.30 741.07 C 1194.10 745.07 1191.96 748.95 1191.84 753.19 C 1194.98 759.88 1202.22 763.74 1205.34 770.44 C 1205.96 775.68 1203.17 780.64 1202.13 785.66 C 1207.35 785.68 1212.43 784.39 1217.21 782.35 C 1214.05 776.41 1211.26 770.28 1208.63 764.10 C 1212.39 769.47 1215.66 775.19 1219.59 780.46 C 1222.69 783.20 1227.19 783.06 1231.10 783.81 C 1228.49 790.29 1227.39 797.21 1225.91 804.01 C 1225.25 807.12 1222.88 809.34 1220.35 811.04 C 1217.38 808.92 1214.38 806.86 1211.07 805.33 C 1199.67 799.48 1186.36 795.74 1179.03 784.32 C 1184.14 783.61 1189.16 784.91 1194.07 786.15 C 1194.15 783.01 1194.73 779.45 1191.95 777.11 C 1188.13 770.95 1182.55 765.67 1175.66 763.18 C 1173.83 762.26 1171.14 761.83 1170.48 759.59 C 1169.62 755.76 1170.17 751.69 1168.84 747.96 C 1167.75 745.34 1165.13 743.89 1163.06 742.17 C 1159.91 747.37 1156.44 752.38 1152.89 757.32 C 1151.47 755.46 1150.08 753.60 1148.68 751.75 C 1149.03 744.61 1153.51 737.54 1150.75 730.49 C 1148.64 723.85 1145.92 717.42 1143.33 710.96 C 1149.12 709.30 1151.58 703.27 1153.40 698.14 M 1188.21 740.56 C 1186.96 740.99 1186.75 743.19 1188.20 743.51 C 1190.20 743.78 1190.35 739.95 1188.21 740.56 Z" />
</g>
<g id="#cf5f1fff">
<path fill="#cf5f1f" fill-opacity="0" d=" M 1079.48 725.06 C 1080.50 719.65 1084.04 715.16 1085.95 710.07 C 1089.57 711.65 1093.44 712.59 1097.45 712.04 C 1103.95 711.87 1110.48 712.35 1116.81 713.89 C 1115.85 718.33 1114.15 722.58 1113.30 727.04 C 1113.40 730.83 1117.11 733.08 1119.45 735.63 C 1122.55 738.19 1123.62 742.20 1124.68 745.92 C 1120.94 747.78 1113.77 748.25 1115.27 754.37 C 1115.47 759.76 1114.66 765.06 1113.36 770.27 C 1112.28 775.68 1107.82 779.44 1104.72 783.76 C 1100.58 788.44 1098.34 794.37 1096.32 800.19 C 1089.73 798.25 1087.65 791.71 1084.26 786.61 C 1080.14 780.74 1072.14 785.94 1066.78 786.06 C 1067.58 783.88 1068.34 781.69 1069.33 779.59 C 1072.88 773.90 1078.68 770.15 1082.64 764.82 C 1084.35 761.09 1083.46 756.82 1083.66 752.86 C 1083.51 747.77 1085.25 742.93 1086.69 738.13 C 1083.81 734.14 1079.71 730.26 1079.48 725.06 Z" />
</g>
<g id="#cf9f9ffe">
<path fill="#cf9f9f" fill-opacity="0" d=" M 1116.81 713.89 C 1125.69 713.63 1134.76 713.53 1143.33 710.96 C 1145.92 717.42 1148.64 723.85 1150.75 730.49 C 1153.51 737.54 1149.03 744.61 1148.68 751.75 C 1147.79 757.76 1147.46 764.10 1144.64 769.59 C 1139.91 773.09 1133.99 774.47 1128.98 777.52 C 1123.56 775.53 1118.22 773.40 1113.36 770.27 C 1114.66 765.06 1115.47 759.76 1115.27 754.37 C 1113.77 748.25 1120.94 747.78 1124.68 745.92 C 1123.62 742.20 1122.55 738.19 1119.45 735.63 C 1117.11 733.08 1113.40 730.83 1113.30 727.04 C 1114.15 722.58 1115.85 718.33 1116.81 713.89 Z" />
</g>
<g id="#0f9f9fff">
<path fill="#0f9f9f" fill-opacity="0" d=" M 1036.78 728.49 C 1039.62 727.77 1042.20 726.34 1044.82 725.06 C 1048.37 729.49 1050.71 734.67 1053.77 739.44 C 1058.24 745.17 1064.52 749.51 1067.98 756.03 C 1069.07 759.87 1066.28 763.50 1066.09 767.34 C 1064.75 771.84 1067.26 775.87 1069.33 779.59 C 1068.34 781.69 1067.58 783.88 1066.78 786.06 C 1061.36 790.04 1056.47 796.16 1057.60 803.34 C 1057.52 804.64 1057.44 805.95 1057.37 807.27 C 1051.66 808.11 1045.55 809.55 1040.05 807.05 C 1034.13 805.04 1031.13 798.01 1024.59 797.54 C 1019.81 797.02 1015.81 794.23 1012.58 790.84 C 1015.15 783.00 1017.05 774.96 1018.95 766.94 C 1021.01 758.62 1009.20 753.29 1012.82 744.77 C 1013.90 739.25 1020.02 738.36 1024.65 737.77 C 1026.23 735.08 1027.62 732.14 1030.08 730.13 C 1032.07 728.87 1034.53 728.91 1036.78 728.49 Z" />
</g>
<g id="#4fdf1fff">
<path fill="#4fdf1f" fill-opacity="0" d=" M 1188.21 740.56 C 1190.35 739.95 1190.20 743.78 1188.20 743.51 C 1186.75 743.19 1186.96 740.99 1188.21 740.56 Z" />
</g>
<g id="#4f5f1fff">
<path fill="#4f5f1f" fill-opacity="0" d=" M 1195.30 741.07 C 1197.13 742.11 1198.96 743.14 1200.81 744.16 L 1200.99 744.91 C 1202.20 751.07 1204.73 756.85 1207.77 762.32 C 1207.99 762.76 1208.42 763.66 1208.63 764.10 C 1211.26 770.28 1214.05 776.41 1217.21 782.35 C 1212.43 784.39 1207.35 785.68 1202.13 785.66 C 1203.17 780.64 1205.96 775.68 1205.34 770.44 C 1202.22 763.74 1194.98 759.88 1191.84 753.19 C 1191.96 748.95 1194.10 745.07 1195.30 741.07 Z" />
</g>
<g id="#6fbf5fff">
<path fill="#6fbf5f" fill-opacity="0" d=" M 1163.06 742.17 C 1165.13 743.89 1167.75 745.34 1168.84 747.96 C 1170.17 751.69 1169.62 755.76 1170.48 759.59 C 1171.14 761.83 1173.83 762.26 1175.66 763.18 C 1182.55 765.67 1188.13 770.95 1191.95 777.11 C 1194.73 779.45 1194.15 783.01 1194.07 786.15 C 1189.16 784.91 1184.14 783.61 1179.03 784.32 C 1186.36 795.74 1199.67 799.48 1211.07 805.33 C 1208.24 809.15 1205.90 813.29 1203.81 817.56 C 1196.20 815.29 1188.29 814.33 1180.40 813.78 C 1170.49 814.26 1165.53 804.55 1159.22 798.71 C 1155.50 794.48 1149.23 795.30 1144.24 795.11 C 1142.40 793.23 1140.58 791.38 1138.78 789.54 C 1136.09 789.41 1130.70 789.16 1128.01 789.03 C 1124.89 787.78 1122.23 785.69 1119.75 783.47 C 1122.80 781.46 1125.84 779.42 1128.98 777.52 C 1133.99 774.47 1139.91 773.09 1144.64 769.59 C 1147.46 764.10 1147.79 757.76 1148.68 751.75 C 1150.08 753.60 1151.47 755.46 1152.89 757.32 C 1156.44 752.38 1159.91 747.37 1163.06 742.17 Z" />
</g>
<g id="#8dda9aff">
<path fill="#8dda9a" fill-opacity="0" d=" M 1200.99 744.91 C 1204.02 750.36 1206.58 756.16 1207.77 762.32 C 1204.73 756.85 1202.20 751.07 1200.99 744.91 Z" />
</g>
<g id="#8f9f5fff">
<path fill="#8f9f5f" fill-opacity="0" d=" M 1113.36 770.27 C 1118.22 773.40 1123.56 775.53 1128.98 777.52 C 1125.84 779.42 1122.80 781.46 1119.75 783.47 C 1122.23 785.69 1124.89 787.78 1128.01 789.03 C 1129.62 797.54 1131.97 805.87 1134.65 814.10 C 1130.88 819.39 1128.74 825.52 1126.75 831.65 C 1125.96 833.84 1124.55 837.52 1121.55 836.35 C 1115.18 833.31 1112.49 826.22 1108.54 820.84 C 1108.07 821.18 1107.12 821.86 1106.65 822.20 C 1106.93 828.42 1107.25 834.76 1105.35 840.79 C 1101.61 838.72 1098.01 836.45 1094.36 834.26 C 1092.46 836.32 1090.55 838.36 1088.65 840.42 C 1084.76 839.78 1080.95 838.99 1077.15 837.99 C 1073.27 832.88 1070.19 827.21 1067.70 821.32 C 1065.03 814.95 1060.92 809.35 1057.60 803.34 C 1056.47 796.16 1061.36 790.04 1066.78 786.06 C 1072.14 785.94 1080.14 780.74 1084.26 786.61 C 1087.65 791.71 1089.73 798.25 1096.32 800.19 C 1098.34 794.37 1100.58 788.44 1104.72 783.76 C 1107.82 779.44 1112.28 775.68 1113.36 770.27 Z" />
</g>
<g id="#6fbfdfff">
<path fill="#6fbfdf" fill-opacity="0" d=" M 982.40 787.33 C 985.50 783.36 988.65 779.43 991.99 775.66 C 995.79 784.14 1004.51 787.71 1012.58 790.84 C 1015.81 794.23 1019.81 797.02 1024.59 797.54 C 1031.13 798.01 1034.13 805.04 1040.05 807.05 C 1045.55 809.55 1051.66 808.11 1057.37 807.27 C 1057.44 805.95 1057.52 804.64 1057.60 803.34 C 1060.92 809.35 1065.03 814.95 1067.70 821.32 C 1070.19 827.21 1073.27 832.88 1077.15 837.99 C 1081.21 843.46 1086.42 848.31 1088.74 854.87 C 1090.39 862.53 1085.88 869.26 1082.72 875.84 C 1080.03 881.41 1072.85 881.55 1067.76 883.35 C 1067.72 881.05 1067.63 878.75 1067.43 876.47 C 1060.97 881.43 1055.74 888.08 1048.26 891.61 C 1045.23 892.89 1040.67 893.17 1040.13 897.23 C 1036.46 912.65 1033.35 928.22 1029.41 943.59 C 1025.60 940.62 1024.56 935.90 1022.16 931.99 C 1017.04 923.30 1011.97 914.57 1007.85 905.37 C 1004.84 907.54 1002.21 910.17 1000.00 913.14 C 997.64 911.44 995.13 909.90 993.05 907.92 C 991.01 905.05 991.17 901.31 990.31 898.02 C 987.32 895.68 984.23 893.15 982.43 889.77 C 981.04 886.20 980.37 882.48 979.17 878.88 C 976.52 879.24 973.89 879.62 971.25 879.99 C 968.17 876.14 964.68 872.57 962.24 868.28 C 960.19 863.45 959.43 857.97 956.02 853.81 C 955.13 844.97 955.87 836.07 955.47 827.21 C 955.79 814.06 953.73 800.53 957.63 787.73 C 961.00 784.07 963.84 778.33 969.29 777.54 C 974.59 779.27 978.14 783.94 982.40 787.33 Z" />
</g>
<g id="#0f9f1fff">
<path fill="#0f9f1f" fill-opacity="0" d=" M 1231.10 783.81 C 1234.92 784.83 1238.29 787.28 1240.20 790.77 C 1241.99 795.67 1239.72 800.51 1238.24 805.08 C 1234.37 815.90 1231.74 827.15 1230.29 838.56 C 1229.74 842.53 1226.98 845.66 1225.08 849.05 C 1216.53 862.15 1207.74 875.09 1199.19 888.19 C 1194.09 896.10 1188.26 904.28 1179.55 908.46 C 1173.54 911.16 1170.51 918.00 1164.00 919.90 C 1159.25 921.13 1154.36 921.51 1149.55 922.25 C 1152.72 915.18 1154.62 907.52 1158.97 901.02 C 1160.86 897.79 1162.76 894.58 1164.71 891.39 C 1159.99 887.64 1155.39 883.77 1150.93 879.75 C 1149.80 880.95 1148.70 882.18 1147.60 883.41 C 1144.33 881.44 1141.05 879.48 1137.79 877.56 C 1145.18 874.07 1152.27 869.59 1160.63 868.86 C 1160.84 866.07 1161.05 863.30 1160.94 860.51 C 1163.71 861.76 1167.36 865.04 1170.26 862.36 C 1174.73 858.42 1178.27 853.56 1181.99 848.93 C 1184.29 846.21 1184.41 842.54 1184.30 839.16 C 1188.59 836.65 1192.83 833.98 1196.30 830.37 C 1200.95 824.95 1209.34 827.38 1215.01 823.91 C 1218.02 820.28 1219.28 815.55 1220.35 811.04 C 1222.88 809.34 1225.25 807.12 1225.91 804.01 C 1227.39 797.21 1228.49 790.29 1231.10 783.81 Z" />
</g>
<g id="#4f1f9fff">
<path fill="#4f1f9f" fill-opacity="0" d=" M 1128.01 789.03 C 1130.70 789.16 1136.09 789.41 1138.78 789.54 C 1140.58 791.38 1142.40 793.23 1144.24 795.11 C 1149.23 795.30 1155.50 794.48 1159.22 798.71 C 1165.53 804.55 1170.49 814.26 1180.40 813.78 C 1180.24 816.87 1180.83 820.77 1178.10 822.97 C 1174.35 825.44 1169.74 825.95 1165.53 827.23 C 1165.51 830.40 1165.51 833.57 1165.63 836.75 C 1164.73 837.18 1163.84 837.63 1162.96 838.09 C 1160.07 836.27 1157.15 834.39 1154.31 832.59 C 1150.28 833.99 1146.22 835.33 1142.14 836.48 C 1137.89 832.68 1132.21 831.89 1126.75 831.65 C 1128.74 825.52 1130.88 819.39 1134.65 814.10 C 1131.97 805.87 1129.62 797.54 1128.01 789.03 Z" />
</g>
<g id="#eebf5ffe">
<path fill="#eebf5f" fill-opacity="0" d=" M 1203.81 817.56 C 1205.90 813.29 1208.24 809.15 1211.07 805.33 C 1214.38 806.86 1217.38 808.92 1220.35 811.04 C 1219.28 815.55 1218.02 820.28 1215.01 823.91 C 1209.34 827.38 1200.95 824.95 1196.30 830.37 C 1192.83 833.98 1188.59 836.65 1184.30 839.16 C 1184.41 842.54 1184.29 846.21 1181.99 848.93 C 1178.27 853.56 1174.73 858.42 1170.26 862.36 C 1167.36 865.04 1163.71 861.76 1160.94 860.51 C 1160.74 855.31 1160.48 850.12 1160.24 844.93 C 1155.55 847.08 1150.92 849.35 1146.28 851.59 C 1142.24 847.62 1140.37 842.12 1142.14 836.48 C 1146.22 835.33 1150.28 833.99 1154.31 832.59 C 1157.15 834.39 1160.07 836.27 1162.96 838.09 C 1163.84 837.63 1164.73 837.18 1165.63 836.75 C 1165.51 833.57 1165.51 830.40 1165.53 827.23 C 1169.74 825.95 1174.35 825.44 1178.10 822.97 C 1180.83 820.77 1180.24 816.87 1180.40 813.78 C 1188.29 814.33 1196.20 815.29 1203.81 817.56 Z" />
</g>
<g id="#8f1f9fff">
<path fill="#8f1f9f" fill-opacity="0" d=" M 1108.54 820.84 C 1112.49 826.22 1115.18 833.31 1121.55 836.35 C 1124.55 837.52 1125.96 833.84 1126.75 831.65 C 1132.21 831.89 1137.89 832.68 1142.14 836.48 C 1140.37 842.12 1142.24 847.62 1146.28 851.59 C 1150.92 849.35 1155.55 847.08 1160.24 844.93 C 1160.48 850.12 1160.74 855.31 1160.94 860.51 C 1161.05 863.30 1160.84 866.07 1160.63 868.86 C 1152.27 869.59 1145.18 874.07 1137.79 877.56 C 1125.78 871.85 1115.47 863.39 1104.00 856.81 C 1099.44 853.85 1093.87 854.36 1088.74 854.87 C 1086.42 848.31 1081.21 843.46 1077.15 837.99 C 1080.95 838.99 1084.76 839.78 1088.65 840.42 C 1090.55 838.36 1092.46 836.32 1094.36 834.26 C 1098.01 836.45 1101.61 838.72 1105.35 840.79 C 1107.25 834.76 1106.93 828.42 1106.65 822.20 C 1107.12 821.86 1108.07 821.18 1108.54 820.84 Z" />
</g>
<g id="#0f9f5fff">
<path fill="#0f9f5f" fill-opacity="0" d=" M 1088.74 854.87 C 1093.87 854.36 1099.44 853.85 1104.00 856.81 C 1115.47 863.39 1125.78 871.85 1137.79 877.56 C 1141.05 879.48 1144.33 881.44 1147.60 883.41 C 1148.70 882.18 1149.80 880.95 1150.93 879.75 C 1155.39 883.77 1159.99 887.64 1164.71 891.39 C 1162.76 894.58 1160.86 897.79 1158.97 901.02 C 1154.62 907.52 1152.72 915.18 1149.55 922.25 C 1148.13 926.55 1147.80 931.26 1145.21 935.13 C 1139.25 945.48 1132.71 955.50 1126.99 966.00 C 1124.56 969.45 1122.89 974.42 1118.26 975.39 C 1113.95 976.53 1109.46 977.02 1105.49 979.20 C 1100.87 982.67 1096.22 978.44 1092.51 975.85 C 1089.32 975.31 1086.25 974.08 1083.03 973.88 C 1078.60 974.84 1074.18 978.05 1069.56 976.55 C 1064.46 975.60 1065.80 966.78 1060.07 967.53 C 1049.41 968.54 1039.34 963.26 1031.41 956.64 C 1029.45 952.64 1029.20 947.93 1029.41 943.59 C 1033.35 928.22 1036.46 912.65 1040.13 897.23 C 1040.67 893.17 1045.23 892.89 1048.26 891.61 C 1055.74 888.08 1060.97 881.43 1067.43 876.47 C 1067.63 878.75 1067.72 881.05 1067.76 883.35 C 1072.85 881.55 1080.03 881.41 1082.72 875.84 C 1085.88 869.26 1090.39 862.53 1088.74 854.87 Z" />
</g>
</svg>
