<?xml version="1.0" encoding="UTF-8" ?>
<!DOCTYPE svg PUBLIC "-//W3C//DTD SVG 1.1//EN" "http://www.w3.org/Graphics/SVG/1.1/DTD/svg11.dtd">
<svg width="1920pt" height="1080pt" viewBox="0 0 1920 1080" version="1.1" xmlns="http://www.w3.org/2000/svg">
<g id="#df5fdfff">
<path fill="#df5fdf" fill-opacity="0" d=" M 1037.79 242.61 C 1048.00 237.38 1057.38 230.63 1067.85 225.90 C 1069.37 229.15 1070.86 232.40 1072.38 235.65 C 1076.76 233.69 1080.85 231.19 1084.97 228.75 C 1091.71 235.20 1099.40 240.97 1108.94 242.25 C 1108.53 244.65 1108.04 247.05 1107.85 249.49 C 1106.24 257.64 1111.13 265.63 1108.34 273.67 C 1113.61 277.09 1118.22 281.56 1119.73 287.85 C 1123.17 287.63 1126.61 287.38 1130.06 287.11 C 1131.29 290.03 1132.47 292.98 1133.59 295.95 C 1137.03 294.99 1140.47 294.07 1143.95 293.16 C 1144.90 295.70 1145.86 298.25 1146.88 300.77 C 1150.78 301.58 1155.27 301.05 1158.67 303.33 C 1161.29 306.98 1163.10 311.90 1161.55 316.36 C 1157.96 327.82 1157.17 339.94 1153.18 351.28 C 1151.95 355.38 1149.80 359.74 1151.68 364.01 C 1156.32 375.34 1153.77 387.70 1154.82 399.51 C 1156.68 404.06 1159.52 408.22 1161.18 412.87 C 1161.05 416.51 1160.56 420.16 1159.99 423.77 L 1159.13 423.56 C 1152.44 421.91 1145.14 421.11 1139.95 416.09 C 1133.33 411.76 1129.33 403.97 1121.28 401.79 C 1113.15 398.21 1104.08 401.76 1095.80 399.01 C 1089.73 397.35 1084.06 393.58 1077.61 393.74 C 1070.13 395.32 1063.03 399.47 1058.37 405.60 C 1050.93 398.03 1041.11 392.52 1035.93 383.00 C 1034.37 380.48 1035.31 376.19 1038.55 375.64 C 1044.67 373.77 1050.69 377.54 1056.86 377.26 C 1060.37 377.26 1064.87 375.99 1065.87 372.15 C 1067.91 363.95 1068.29 355.46 1069.07 347.09 C 1069.34 338.93 1060.86 333.44 1061.47 325.20 C 1062.84 318.81 1068.19 311.91 1075.56 313.17 C 1080.21 313.37 1084.51 316.01 1089.19 315.78 C 1092.76 314.28 1096.81 312.75 1099.30 309.61 C 1100.63 306.14 1097.81 302.81 1095.67 300.36 C 1091.28 295.69 1085.39 289.82 1078.24 292.44 C 1070.96 293.17 1063.20 296.22 1056.18 292.87 C 1045.35 287.55 1035.99 279.73 1025.03 274.65 C 1026.90 266.13 1027.51 257.35 1030.04 248.97 C 1031.10 245.53 1035.04 244.36 1037.79 242.61 Z" />
</g>
<g id="#dfdf5ffe">
<path fill="#dfdf5f" fill-opacity="0" d=" M 894.58 233.11 C 899.85 232.69 904.61 228.93 910.00 230.09 C 915.61 232.42 918.28 238.11 918.04 244.04 C 917.20 252.18 926.52 254.61 929.84 260.71 C 930.74 265.15 930.44 269.89 931.96 274.21 C 935.30 280.02 939.58 285.22 943.50 290.65 C 951.99 287.42 959.68 281.88 968.88 280.72 C 977.68 279.50 985.97 288.71 994.50 284.38 C 998.04 282.76 1001.72 281.42 1005.57 280.72 C 1006.31 287.77 1004.55 294.81 1000.92 300.86 C 994.38 311.71 989.81 323.81 981.58 333.58 C 976.51 339.80 972.88 346.98 968.65 353.75 C 962.95 361.43 955.25 367.52 947.04 372.31 C 937.58 374.44 926.08 374.34 919.71 382.88 C 914.41 393.34 919.90 405.14 921.11 415.98 C 918.28 416.16 915.20 416.80 912.58 415.41 C 907.24 411.88 904.73 405.27 899.03 402.18 C 895.08 400.28 890.66 399.74 886.56 398.28 C 880.07 397.16 876.73 391.04 871.50 387.80 C 865.85 385.17 859.39 384.98 853.78 382.24 C 849.01 380.18 845.21 376.42 840.53 374.25 C 837.20 374.17 834.16 376.07 831.08 377.09 C 831.32 380.60 831.54 384.09 831.80 387.61 C 828.86 389.83 825.94 392.06 823.05 394.33 C 823.42 396.22 823.81 398.12 824.21 400.01 C 821.69 398.21 818.29 396.77 817.65 393.39 C 814.74 383.12 812.54 372.65 810.78 362.13 C 811.46 360.23 812.80 358.18 811.75 356.16 C 805.46 341.98 803.61 326.39 799.94 311.43 C 804.19 309.93 808.33 308.05 812.72 306.93 C 820.28 306.05 827.97 307.00 835.52 305.75 C 841.51 302.93 847.31 299.68 853.57 297.45 C 852.29 296.12 850.97 294.83 849.66 293.55 C 848.30 282.82 845.33 272.37 844.21 261.60 C 844.07 257.21 842.29 252.01 844.99 248.03 C 849.22 239.68 858.80 236.87 867.13 234.57 C 872.45 235.42 876.81 239.25 881.69 241.47 C 882.20 238.06 882.64 234.64 883.15 231.23 C 886.91 232.08 890.69 233.09 894.58 233.11 M 932.40 337.50 C 932.26 338.41 931.99 340.23 931.85 341.15 C 932.77 341.01 934.59 340.74 935.50 340.60 C 934.47 339.56 933.43 338.52 932.40 337.50 Z" />
</g>
<g id="#df9fdfff">
<path fill="#df9fdf" fill-opacity="0" d=" M 1025.03 274.65 C 1035.99 279.73 1045.35 287.55 1056.18 292.87 C 1063.20 296.22 1070.96 293.17 1078.24 292.44 C 1085.39 289.82 1091.28 295.69 1095.67 300.36 C 1097.81 302.81 1100.63 306.14 1099.30 309.61 C 1096.81 312.75 1092.76 314.28 1089.19 315.78 C 1084.51 316.01 1080.21 313.37 1075.56 313.17 C 1068.19 311.91 1062.84 318.81 1061.47 325.20 C 1060.86 333.44 1069.34 338.93 1069.07 347.09 C 1068.29 355.46 1067.91 363.95 1065.87 372.15 C 1064.87 375.99 1060.37 377.26 1056.86 377.26 C 1050.69 377.54 1044.67 373.77 1038.55 375.64 C 1035.31 376.19 1034.37 380.48 1035.93 383.00 C 1041.11 392.52 1050.93 398.03 1058.37 405.60 C 1052.22 414.75 1044.11 422.79 1040.19 433.29 C 1032.40 418.48 1025.56 403.17 1018.99 387.78 C 1015.29 380.78 1004.93 377.67 998.38 382.44 C 993.99 387.70 996.23 395.45 994.28 401.60 C 994.44 404.58 989.36 403.05 988.43 404.42 C 985.40 405.03 982.59 403.37 980.03 402.03 C 975.30 399.24 970.56 396.26 967.00 392.03 C 962.82 387.74 961.26 381.44 956.50 377.69 C 953.54 375.56 950.20 374.08 947.04 372.31 C 955.25 367.52 962.95 361.43 968.65 353.75 C 972.88 346.98 976.51 339.80 981.58 333.58 C 989.81 323.81 994.38 311.71 1000.92 300.86 C 1004.55 294.81 1006.31 287.77 1005.57 280.72 C 1012.06 280.76 1018.48 279.90 1024.93 279.15 C 1024.95 277.65 1024.99 276.15 1025.03 274.65 Z" />
</g>
<g id="#5f5fdfff">
<path fill="#5f5fdf" fill-opacity="0" d=" M 932.40 337.50 C 933.43 338.52 934.47 339.56 935.50 340.60 C 934.59 340.74 932.77 341.01 931.85 341.15 C 931.99 340.23 932.26 338.41 932.40 337.50 Z" />
</g>
<g id="#1f5f5fff">
<path fill="#1f5f5f" fill-opacity="0" d=" M 919.71 382.88 C 926.08 374.34 937.58 374.44 947.04 372.31 C 950.20 374.08 953.54 375.56 956.50 377.69 C 961.26 381.44 962.82 387.74 967.00 392.03 C 970.56 396.26 975.30 399.24 980.03 402.03 C 982.59 403.37 985.40 405.03 988.43 404.42 C 989.36 403.05 994.44 404.58 994.28 401.60 C 996.23 395.45 993.99 387.70 998.38 382.44 C 1004.93 377.67 1015.29 380.78 1018.99 387.78 C 1025.56 403.17 1032.40 418.48 1040.19 433.29 C 1038.09 438.96 1037.53 445.06 1035.56 450.76 C 1029.96 464.17 1015.90 471.33 1009.09 483.82 C 1006.40 493.24 1001.23 501.53 995.78 509.56 C 991.44 510.94 986.80 512.13 983.39 515.34 C 979.41 518.94 976.42 524.16 970.86 525.49 C 962.42 527.28 953.20 528.43 945.00 525.08 C 939.55 522.98 934.47 520.05 929.41 517.18 C 917.16 510.36 907.26 499.46 901.86 486.51 C 902.24 478.25 900.60 469.81 896.42 462.62 C 892.41 456.11 884.73 452.89 880.72 446.44 C 877.71 438.67 880.87 429.42 875.77 422.27 C 869.45 416.38 864.93 407.53 856.07 405.09 C 845.85 403.16 835.38 403.19 825.15 404.91 C 824.83 403.27 824.53 401.64 824.21 400.01 C 823.81 398.12 823.42 396.22 823.05 394.33 C 825.94 392.06 828.86 389.83 831.80 387.61 C 831.54 384.09 831.32 380.60 831.08 377.09 C 834.16 376.07 837.20 374.17 840.53 374.25 C 845.21 376.42 849.01 380.18 853.78 382.24 C 859.39 384.98 865.85 385.17 871.50 387.80 C 876.73 391.04 880.07 397.16 886.56 398.28 C 890.66 399.74 895.08 400.28 899.03 402.18 C 904.73 405.27 907.24 411.88 912.58 415.41 C 915.20 416.80 918.28 416.16 921.11 415.98 C 919.90 405.14 914.41 393.34 919.71 382.88 Z" />
</g>
<g id="#df5f5ffe">
<path fill="#df5f5f" fill-opacity="0" d=" M 1077.61 393.74 C 1084.06 393.58 1089.73 397.35 1095.80 399.01 C 1104.08 401.76 1113.15 398.21 1121.28 401.79 C 1129.33 403.97 1133.33 411.76 1139.95 416.09 C 1145.14 421.11 1152.44 421.91 1159.13 423.56 C 1158.75 425.89 1158.42 428.24 1158.13 430.60 C 1162.15 433.01 1166.55 435.00 1170.04 438.21 C 1167.22 450.68 1160.33 461.94 1157.73 474.50 C 1154.92 483.06 1163.68 489.07 1164.70 496.95 C 1163.15 506.86 1157.68 515.42 1154.67 524.86 C 1152.89 529.12 1150.51 534.08 1145.70 535.43 C 1140.42 535.06 1135.26 533.47 1129.95 533.42 C 1128.96 530.43 1128.23 527.28 1127.54 524.25 C 1122.39 529.59 1116.81 534.78 1109.88 537.71 C 1105.25 538.40 1100.67 535.84 1096.08 536.40 C 1088.75 541.43 1082.04 547.45 1073.94 551.31 C 1075.24 543.75 1079.07 535.83 1076.76 528.20 C 1072.78 522.46 1064.81 521.02 1060.85 515.13 C 1054.64 509.17 1055.45 499.76 1051.23 492.70 C 1046.29 485.83 1037.21 482.53 1028.97 483.90 C 1022.31 485.29 1018.43 491.43 1014.35 496.32 C 1009.80 502.59 1003.08 507.09 995.78 509.56 C 1001.23 501.53 1006.40 493.24 1009.09 483.82 C 1015.90 471.33 1029.96 464.17 1035.56 450.76 C 1037.53 445.06 1038.09 438.96 1040.19 433.29 C 1044.11 422.79 1052.22 414.75 1058.37 405.60 C 1063.03 399.47 1070.13 395.32 1077.61 393.74 Z" />
</g>
<g id="#5f1fdfff">
<path fill="#5f1fdf" fill-opacity="0" d=" M 657.04 400.73 C 663.02 400.52 668.98 400.87 674.97 401.01 C 676.08 403.75 677.21 406.48 678.33 409.22 C 684.17 407.95 689.87 406.05 695.78 405.05 C 703.26 403.00 708.35 410.75 715.63 410.44 C 720.74 408.32 724.75 402.46 731.05 404.79 C 733.25 405.06 736.16 405.55 737.01 407.96 C 741.66 418.91 746.13 429.97 749.53 441.38 C 755.44 440.17 761.05 437.96 766.66 435.81 C 767.02 432.36 767.54 428.97 768.00 425.55 C 772.00 426.70 776.08 427.27 780.24 427.64 C 783.88 433.97 787.10 440.56 791.83 446.21 C 796.90 452.49 798.67 462.39 792.94 468.87 C 789.29 474.98 783.18 482.84 786.81 490.09 C 790.43 496.01 797.57 491.88 802.81 491.08 C 807.62 489.80 810.76 494.78 813.61 497.77 C 811.99 501.59 810.52 505.57 807.92 508.86 C 801.55 516.44 796.28 525.26 787.83 530.78 C 780.91 536.22 772.07 538.45 765.20 543.93 C 760.46 548.49 755.53 555.88 747.91 553.40 C 744.90 552.22 742.46 549.95 739.74 548.28 C 734.85 544.82 728.82 543.50 723.95 540.00 C 723.56 538.46 723.19 536.93 722.82 535.41 C 715.56 533.85 707.72 533.11 701.71 528.34 C 692.63 521.21 687.24 510.12 685.47 498.88 C 689.60 492.49 698.37 490.85 702.24 484.21 C 703.36 481.65 704.95 477.90 702.44 475.66 C 697.97 472.39 691.95 472.63 687.38 469.57 C 680.79 464.43 678.76 454.55 670.01 452.08 C 661.46 449.86 652.96 452.78 644.78 455.05 C 645.06 456.77 645.35 458.48 645.56 460.21 C 642.38 454.84 639.29 449.42 635.95 444.16 C 637.97 441.82 639.95 439.45 641.96 437.09 C 640.96 433.62 638.57 429.88 640.22 426.24 C 641.28 423.42 642.54 420.69 643.78 417.95 C 648.15 417.94 652.57 417.97 656.97 417.98 C 656.98 412.22 657.00 406.48 657.04 400.73 Z" />
</g>
<g id="#9f5f5fff">
<path fill="#9f5f5f" fill-opacity="0" d=" M 790.23 401.00 C 791.94 401.00 795.36 400.99 797.07 400.98 C 798.92 407.35 800.92 413.66 802.99 419.96 C 806.82 419.97 814.47 419.99 818.29 420.00 C 817.96 414.92 817.78 409.87 817.19 404.82 C 819.83 405.16 822.51 405.33 825.15 404.91 C 835.38 403.19 845.85 403.16 856.07 405.09 C 864.93 407.53 869.45 416.38 875.77 422.27 C 880.87 429.42 877.71 438.67 880.72 446.44 C 884.73 452.89 892.41 456.11 896.42 462.62 C 900.60 469.81 902.24 478.25 901.86 486.51 C 900.20 496.32 897.97 506.09 894.24 515.35 C 889.45 525.85 887.22 537.80 888.91 549.28 C 886.25 546.52 883.38 543.99 880.51 541.46 C 874.88 536.33 867.19 534.39 861.26 529.68 C 853.67 525.00 849.92 516.52 843.30 510.80 C 835.16 503.14 824.06 500.52 813.61 497.77 C 810.76 494.78 807.62 489.80 802.81 491.08 C 797.57 491.88 790.43 496.01 786.81 490.09 C 783.18 482.84 789.29 474.98 792.94 468.87 C 798.67 462.39 796.90 452.49 791.83 446.21 C 787.10 440.56 783.88 433.97 780.24 427.64 C 782.90 424.22 786.09 421.23 788.62 417.71 C 790.46 412.39 789.73 406.55 790.23 401.00 Z" />
</g>
<g id="#9fdf5fff">
<path fill="#9fdf5f" fill-opacity="0" d=" M 644.78 455.05 C 652.96 452.78 661.46 449.86 670.01 452.08 C 678.76 454.55 680.79 464.43 687.38 469.57 C 691.95 472.63 697.97 472.39 702.44 475.66 C 704.95 477.90 703.36 481.65 702.24 484.21 C 698.37 490.85 689.60 492.49 685.47 498.88 C 687.24 510.12 692.63 521.21 701.71 528.34 C 707.72 533.11 715.56 533.85 722.82 535.41 C 723.19 536.93 723.56 538.46 723.95 540.00 C 724.46 542.30 724.89 544.62 725.35 546.94 C 720.23 549.94 715.19 553.52 709.18 554.35 C 704.90 555.08 699.02 555.97 697.52 560.74 C 697.13 566.63 701.04 573.48 707.30 574.29 C 715.28 574.45 722.88 571.31 730.81 571.04 C 737.28 571.65 740.63 580.27 736.60 585.33 C 731.19 592.44 721.20 593.69 715.14 600.17 C 711.69 603.64 709.92 608.33 707.59 612.55 C 705.45 614.63 702.77 616.54 702.02 619.60 C 700.34 625.13 701.65 631.55 698.45 636.55 C 690.01 643.55 679.02 638.78 669.28 638.93 C 670.51 640.84 671.75 642.76 673.01 644.70 C 670.94 646.94 668.88 649.19 666.84 651.46 C 663.19 647.34 659.44 643.26 656.40 638.67 C 652.50 631.95 651.72 623.61 646.16 617.86 C 641.24 612.07 635.94 606.26 633.93 598.72 C 636.49 596.66 638.98 594.48 641.11 591.95 C 634.79 589.55 627.95 591.41 621.47 590.44 C 614.90 583.97 609.41 576.47 603.59 569.34 C 600.11 565.20 601.56 559.23 600.74 554.24 C 607.44 554.15 616.57 556.59 621.35 550.32 C 626.98 545.01 622.10 535.21 628.15 530.20 C 634.74 524.14 642.33 518.08 644.98 509.12 C 646.77 500.21 640.34 492.60 638.06 484.42 C 637.25 475.36 646.52 469.22 645.56 460.21 C 645.35 458.48 645.06 456.77 644.78 455.05 Z" />
</g>
<g id="#df1fdfff">
<path fill="#df1fdf" fill-opacity="0" d=" M 1028.97 483.90 C 1037.21 482.53 1046.29 485.83 1051.23 492.70 C 1055.45 499.76 1054.64 509.17 1060.85 515.13 C 1064.81 521.02 1072.78 522.46 1076.76 528.20 C 1079.07 535.83 1075.24 543.75 1073.94 551.31 C 1072.94 555.15 1071.86 558.98 1070.64 562.76 C 1067.58 572.18 1066.72 582.19 1063.41 591.54 C 1059.55 600.35 1053.22 607.86 1049.73 616.84 C 1046.95 623.26 1047.14 630.46 1044.76 637.00 C 1042.32 641.92 1036.72 644.27 1034.20 649.13 C 1031.49 654.37 1032.93 660.77 1030.16 665.97 C 1026.84 669.97 1022.51 672.93 1018.67 676.39 C 1010.84 686.60 1017.04 699.87 1013.80 711.36 C 1010.63 707.69 1007.28 704.05 1005.56 699.44 C 1002.93 691.54 992.96 690.93 987.81 685.19 C 980.13 676.68 966.90 676.28 956.69 679.82 C 955.56 672.58 950.60 667.17 946.52 661.47 C 944.10 658.50 945.15 654.73 946.48 651.57 C 949.92 643.01 949.87 632.92 945.15 624.82 C 943.28 620.98 938.95 619.66 935.43 617.85 C 930.12 615.28 926.26 610.25 924.25 604.81 C 923.85 599.81 928.19 594.91 932.97 593.97 C 939.83 594.31 946.72 596.89 953.53 594.63 C 951.95 590.73 951.75 584.86 947.35 582.72 C 942.23 580.43 936.00 581.71 931.17 578.61 C 925.51 573.06 929.43 564.06 925.20 557.77 C 922.08 553.16 915.57 550.88 915.39 544.46 C 914.53 539.60 918.56 535.77 921.07 532.07 C 924.74 527.65 927.64 522.65 929.41 517.18 C 934.47 520.05 939.55 522.98 945.00 525.08 C 953.20 528.43 962.42 527.28 970.86 525.49 C 976.42 524.16 979.41 518.94 983.39 515.34 C 986.80 512.13 991.44 510.94 995.78 509.56 C 1003.08 507.09 1009.80 502.59 1014.35 496.32 C 1018.43 491.43 1022.31 485.29 1028.97 483.90 M 1023.59 529.53 C 1014.54 541.34 1006.14 553.64 998.08 566.13 C 1007.43 575.25 1020.37 579.95 1029.44 589.47 C 1031.15 592.19 1031.73 595.35 1032.67 598.40 C 1038.45 595.27 1045.14 593.78 1050.18 589.38 C 1053.12 584.49 1054.29 578.81 1056.63 573.64 C 1059.35 567.80 1060.28 560.49 1056.36 554.91 C 1050.14 550.85 1042.81 549.06 1036.13 545.94 C 1028.89 543.47 1027.92 534.92 1023.59 529.53 Z" />
</g>
<g id="#5f1f5fff">
<path fill="#5f1f5f" fill-opacity="0" d=" M 894.24 515.35 C 897.97 506.09 900.20 496.32 901.86 486.51 C 907.26 499.46 917.16 510.36 929.41 517.18 C 927.64 522.65 924.74 527.65 921.07 532.07 C 918.56 535.77 914.53 539.60 915.39 544.46 C 915.57 550.88 922.08 553.16 925.20 557.77 C 929.43 564.06 925.51 573.06 931.17 578.61 C 936.00 581.71 942.23 580.43 947.35 582.72 C 951.75 584.86 951.95 590.73 953.53 594.63 C 946.72 596.89 939.83 594.31 932.97 593.97 C 928.19 594.91 923.85 599.81 924.25 604.81 C 926.26 610.25 930.12 615.28 935.43 617.85 C 938.95 619.66 943.28 620.98 945.15 624.82 C 949.87 632.92 949.92 643.01 946.48 651.57 C 945.15 654.73 944.10 658.50 946.52 661.47 C 950.60 667.17 955.56 672.58 956.69 679.82 C 950.61 682.73 945.23 686.78 940.10 691.11 C 933.93 696.02 925.68 696.20 918.56 698.87 C 914.32 701.12 912.16 705.80 910.01 709.87 C 907.30 714.95 908.13 722.02 903.04 725.67 C 896.62 727.85 889.52 725.68 883.02 727.39 C 876.70 730.20 873.49 737.07 867.53 740.38 C 864.77 741.92 861.81 743.02 858.89 744.20 C 851.20 740.08 842.16 741.96 834.03 739.64 C 829.75 737.22 826.81 733.01 823.50 729.47 C 826.97 728.33 831.30 727.51 833.37 724.23 C 836.90 707.67 833.37 690.75 834.06 674.01 C 834.83 666.21 832.36 658.47 827.31 652.48 C 830.69 644.42 833.14 635.93 837.50 628.30 C 840.57 622.59 845.94 618.63 851.15 615.04 C 852.46 614.03 854.18 613.68 855.77 614.20 C 860.41 615.50 864.58 618.02 868.98 619.95 C 868.10 611.79 864.15 604.43 862.35 596.50 C 861.46 591.14 859.17 586.25 857.32 581.21 C 855.82 577.32 858.05 573.40 858.97 569.69 C 865.59 569.62 872.25 570.01 878.85 569.41 C 884.57 569.00 888.52 564.31 892.60 560.83 C 891.47 556.93 890.27 553.09 888.91 549.28 C 887.22 537.80 889.45 525.85 894.24 515.35 Z" />
</g>
<g id="#1fdfdfff">
<path fill="#1fdfdf" fill-opacity="0" d=" M 813.61 497.77 C 824.06 500.52 835.16 503.14 843.30 510.80 C 849.92 516.52 853.67 525.00 861.26 529.68 C 867.19 534.39 874.88 536.33 880.51 541.46 C 883.38 543.99 886.25 546.52 888.91 549.28 C 890.27 553.09 891.47 556.93 892.60 560.83 C 888.52 564.31 884.57 569.00 878.85 569.41 C 872.25 570.01 865.59 569.62 858.97 569.69 C 858.05 573.40 855.82 577.32 857.32 581.21 C 859.17 586.25 861.46 591.14 862.35 596.50 C 864.15 604.43 868.10 611.79 868.98 619.95 C 864.58 618.02 860.41 615.50 855.77 614.20 C 854.18 613.68 852.46 614.03 851.15 615.04 C 845.94 618.63 840.57 622.59 837.50 628.30 C 833.14 635.93 830.69 644.42 827.31 652.48 C 821.42 648.78 814.77 646.60 808.23 644.39 C 803.95 643.08 799.57 641.57 795.04 641.81 C 788.90 643.57 785.08 653.14 777.75 650.57 C 771.10 647.97 765.21 643.67 759.56 639.40 C 755.13 636.06 755.27 629.98 753.79 625.13 C 752.62 619.23 748.39 614.64 745.07 609.87 C 739.51 612.20 734.10 616.12 727.78 615.52 C 721.00 614.92 714.33 613.41 707.59 612.55 C 709.92 608.33 711.69 603.64 715.14 600.17 C 721.20 593.69 731.19 592.44 736.60 585.33 C 740.63 580.27 737.28 571.65 730.81 571.04 C 722.88 571.31 715.28 574.45 707.30 574.29 C 701.04 573.48 697.13 566.63 697.52 560.74 C 699.02 555.97 704.90 555.08 709.18 554.35 C 715.19 553.52 720.23 549.94 725.35 546.94 C 724.89 544.62 724.46 542.30 723.95 540.00 C 728.82 543.50 734.85 544.82 739.74 548.28 C 742.46 549.95 744.90 552.22 747.91 553.40 C 755.53 555.88 760.46 548.49 765.20 543.93 C 772.07 538.45 780.91 536.22 787.83 530.78 C 796.28 525.26 801.55 516.44 807.92 508.86 C 810.52 505.57 811.99 501.59 813.61 497.77 M 788.59 559.69 C 784.90 562.87 783.35 567.74 780.68 571.70 C 782.44 574.64 784.06 577.66 785.57 580.74 C 795.46 575.60 804.91 569.69 814.86 564.66 C 813.59 561.78 812.30 558.89 811.04 556.03 C 803.57 557.29 795.61 556.63 788.59 559.69 Z" />
</g>
<g id="#1f5fdfff">
<path fill="#1f5fdf" fill-opacity="0" d=" M 1109.88 537.71 C 1116.81 534.78 1122.39 529.59 1127.54 524.25 C 1128.23 527.28 1128.96 530.43 1129.95 533.42 C 1131.28 537.65 1134.59 541.04 1134.89 545.65 C 1135.80 552.48 1135.30 559.61 1137.65 566.20 C 1143.14 582.74 1154.09 597.85 1169.12 606.92 C 1176.68 611.55 1184.14 616.60 1192.61 619.47 C 1195.73 620.67 1199.05 621.52 1201.89 623.37 C 1203.97 627.57 1207.96 631.85 1207.04 636.95 C 1206.02 645.66 1199.54 652.28 1196.71 660.36 C 1193.17 667.10 1193.88 675.31 1189.70 681.75 C 1185.90 686.45 1178.90 687.31 1175.68 692.66 C 1170.53 699.55 1172.18 710.44 1163.80 714.93 C 1161.79 709.98 1161.43 703.53 1156.29 700.67 C 1147.77 695.53 1137.32 696.49 1127.83 695.47 C 1119.20 692.72 1113.08 685.24 1109.34 677.28 C 1107.15 674.58 1106.23 669.50 1102.11 669.43 C 1082.43 667.63 1063.41 674.40 1044.15 677.24 C 1035.72 679.30 1026.95 678.80 1018.67 676.39 C 1022.51 672.93 1026.84 669.97 1030.16 665.97 C 1032.93 660.77 1031.49 654.37 1034.20 649.13 C 1036.72 644.27 1042.32 641.92 1044.76 637.00 C 1047.14 630.46 1046.95 623.26 1049.73 616.84 C 1053.22 607.86 1059.55 600.35 1063.41 591.54 C 1066.72 582.19 1067.58 572.18 1070.64 562.76 C 1071.86 558.98 1072.94 555.15 1073.94 551.31 C 1082.04 547.45 1088.75 541.43 1096.08 536.40 C 1100.67 535.84 1105.25 538.40 1109.88 537.71 M 1117.47 614.60 C 1117.31 616.33 1119.68 616.92 1120.63 618.11 C 1120.64 616.03 1120.64 613.95 1120.63 611.89 C 1119.53 612.76 1118.43 613.60 1117.47 614.60 Z" />
</g>
<g id="#5f9fdfff">
<path fill="#5f9fdf" fill-opacity="0" d=" M 1023.59 529.53 C 1027.92 534.92 1028.89 543.47 1036.13 545.94 C 1042.81 549.06 1050.14 550.85 1056.36 554.91 C 1060.28 560.49 1059.35 567.80 1056.63 573.64 C 1054.29 578.81 1053.12 584.49 1050.18 589.38 C 1045.14 593.78 1038.45 595.27 1032.67 598.40 C 1031.73 595.35 1031.15 592.19 1029.44 589.47 C 1020.37 579.95 1007.43 575.25 998.08 566.13 C 1006.14 553.64 1014.54 541.34 1023.59 529.53 Z" />
</g>
<g id="#9fdfdfff">
<path fill="#9fdfdf" fill-opacity="0" d=" M 788.59 559.69 C 795.61 556.63 803.57 557.29 811.04 556.03 C 812.30 558.89 813.59 561.78 814.86 564.66 C 804.91 569.69 795.46 575.60 785.57 580.74 C 784.06 577.66 782.44 574.64 780.68 571.70 C 783.35 567.74 784.90 562.87 788.59 559.69 Z" />
</g>
<g id="#5f5f5ffe">
<path fill="#5f5f5f" fill-opacity="0" d=" M 727.78 615.52 C 734.10 616.12 739.51 612.20 745.07 609.87 C 748.39 614.64 752.62 619.23 753.79 625.13 C 755.27 629.98 755.13 636.06 759.56 639.40 C 765.21 643.67 771.10 647.97 777.75 650.57 C 785.08 653.14 788.90 643.57 795.04 641.81 C 799.57 641.57 803.95 643.08 808.23 644.39 C 814.77 646.60 821.42 648.78 827.31 652.48 C 832.36 658.47 834.83 666.21 834.06 674.01 C 833.37 690.75 836.90 707.67 833.37 724.23 C 831.30 727.51 826.97 728.33 823.50 729.47 C 817.06 729.33 810.59 728.68 804.31 727.20 C 796.49 725.27 790.90 717.13 782.23 718.46 C 777.34 718.62 772.07 723.16 767.56 719.53 C 761.86 715.79 764.56 708.01 763.22 702.32 C 762.77 699.11 760.89 695.22 757.24 694.98 C 750.75 694.95 744.46 697.07 738.01 697.36 C 730.53 697.05 723.14 695.91 715.73 694.97 C 714.00 700.88 714.12 707.59 710.62 712.85 C 707.56 713.28 704.38 711.97 702.56 709.47 C 698.27 703.87 695.15 697.52 691.56 691.48 C 688.01 695.27 684.69 699.35 680.40 702.35 C 676.75 704.39 672.42 703.32 668.54 702.78 C 671.51 700.28 674.65 697.99 677.86 695.80 C 677.93 690.54 678.00 685.30 678.08 680.07 C 680.94 678.36 683.81 676.68 686.72 675.06 C 682.68 665.11 673.51 659.33 666.84 651.46 C 668.88 649.19 670.94 646.94 673.01 644.70 C 671.75 642.76 670.51 640.84 669.28 638.93 C 679.02 638.78 690.01 643.55 698.45 636.55 C 701.65 631.55 700.34 625.13 702.02 619.60 C 702.77 616.54 705.45 614.63 707.59 612.55 C 714.33 613.41 721.00 614.92 727.78 615.52 Z" />
</g>
<g id="#9f5fdffe">
<path fill="#9f5fdf" fill-opacity="0" d=" M 1117.47 614.60 C 1118.43 613.60 1119.53 612.76 1120.63 611.89 C 1120.64 613.95 1120.64 616.03 1120.63 618.11 C 1119.68 616.92 1117.31 616.33 1117.47 614.60 Z" />
</g>
<g id="#5fdf5fff">
<path fill="#5fdf5f" fill-opacity="0" d=" M 1201.89 623.37 C 1208.49 625.55 1215.27 627.05 1221.96 628.98 C 1221.72 635.67 1216.52 640.20 1214.43 646.12 C 1214.76 650.96 1217.03 656.02 1221.28 658.66 C 1226.13 661.77 1230.73 665.46 1236.09 667.70 C 1247.59 669.84 1260.29 668.39 1270.96 674.11 C 1277.48 677.20 1281.42 683.60 1286.40 688.54 C 1297.48 696.91 1311.69 702.35 1319.77 714.20 C 1325.10 720.99 1321.49 730.51 1315.68 735.64 C 1309.44 741.25 1302.65 746.26 1295.50 750.65 C 1293.04 766.00 1295.03 783.36 1285.25 796.50 C 1284.40 797.14 1284.01 797.98 1284.08 799.03 C 1283.96 801.36 1283.50 803.68 1282.70 805.88 C 1281.29 805.43 1280.51 806.86 1281.15 808.02 C 1280.88 812.18 1279.54 816.31 1278.02 820.15 C 1274.26 824.36 1268.44 825.94 1263.83 828.96 C 1252.30 835.88 1238.19 831.87 1225.87 829.99 C 1216.04 828.03 1206.19 833.15 1196.44 830.49 C 1185.11 828.49 1173.42 829.64 1162.23 826.53 C 1169.45 821.12 1176.28 814.94 1181.30 807.38 C 1183.41 803.28 1181.78 798.64 1180.91 794.44 C 1175.78 777.53 1181.79 759.94 1179.04 742.84 C 1174.99 733.05 1167.17 725.15 1163.80 714.93 C 1172.18 710.44 1170.53 699.55 1175.68 692.66 C 1178.90 687.31 1185.90 686.45 1189.70 681.75 C 1193.88 675.31 1193.17 667.10 1196.71 660.36 C 1199.54 652.28 1206.02 645.66 1207.04 636.95 C 1207.96 631.85 1203.97 627.57 1201.89 623.37 Z" />
</g>
<g id="#5f9f5fff">
<path fill="#5f9f5f" fill-opacity="0" d=" M 1044.15 677.24 C 1063.41 674.40 1082.43 667.63 1102.11 669.43 C 1106.23 669.50 1107.15 674.58 1109.34 677.28 C 1113.08 685.24 1119.20 692.72 1127.83 695.47 C 1137.32 696.49 1147.77 695.53 1156.29 700.67 C 1161.43 703.53 1161.79 709.98 1163.80 714.93 C 1167.17 725.15 1174.99 733.05 1179.04 742.84 C 1181.79 759.94 1175.78 777.53 1180.91 794.44 C 1181.78 798.64 1183.41 803.28 1181.30 807.38 C 1176.28 814.94 1169.45 821.12 1162.23 826.53 C 1156.78 827.98 1151.18 828.77 1145.88 830.73 C 1141.44 831.98 1136.55 834.37 1132.11 831.77 C 1129.43 830.32 1127.16 828.19 1124.37 826.96 C 1120.17 834.68 1114.97 843.46 1105.92 846.05 C 1101.07 847.86 1096.69 844.24 1092.19 843.05 C 1085.67 841.05 1079.24 844.36 1072.74 844.06 C 1067.87 842.71 1063.56 839.90 1058.76 838.32 C 1049.99 835.44 1040.97 832.73 1033.14 827.71 C 1023.29 818.90 1031.05 804.17 1026.72 793.28 C 1020.83 788.35 1012.96 786.89 1006.08 783.74 C 1007.18 775.95 1008.55 768.17 1008.61 760.29 C 1008.65 751.18 1011.17 742.35 1011.66 733.29 C 1012.12 725.96 1012.61 718.62 1013.80 711.36 C 1017.04 699.87 1010.84 686.60 1018.67 676.39 C 1026.95 678.80 1035.72 679.30 1044.15 677.24 Z" />
</g>
<g id="#1fdf5fff">
<path fill="#1fdf5f" fill-opacity="0" d=" M 956.69 679.82 C 966.90 676.28 980.13 676.68 987.81 685.19 C 992.96 690.93 1002.93 691.54 1005.56 699.44 C 1007.28 704.05 1010.63 707.69 1013.80 711.36 C 1012.61 718.62 1012.12 725.96 1011.66 733.29 C 1011.17 742.35 1008.65 751.18 1008.61 760.29 C 1008.55 768.17 1007.18 775.95 1006.08 783.74 C 995.02 780.83 983.34 779.10 971.97 781.03 C 962.39 783.53 952.04 775.51 943.01 781.02 C 935.81 785.56 936.71 795.12 936.32 802.60 C 935.69 807.97 937.42 814.79 932.71 818.73 C 929.39 822.43 923.95 819.62 919.97 819.07 C 912.61 817.30 905.89 812.59 902.11 806.00 C 898.22 797.73 894.56 789.20 889.20 781.75 C 884.23 776.53 876.59 775.63 869.88 774.17 C 868.26 770.12 865.91 766.35 865.12 762.04 C 864.55 758.22 867.55 754.80 866.91 751.01 C 865.59 747.52 861.99 745.80 858.89 744.20 C 861.81 743.02 864.77 741.92 867.53 740.38 C 873.49 737.07 876.70 730.20 883.02 727.39 C 889.52 725.68 896.62 727.85 903.04 725.67 C 908.13 722.02 907.30 714.95 910.01 709.87 C 912.16 705.80 914.32 701.12 918.56 698.87 C 925.68 696.20 933.93 696.02 940.10 691.11 C 945.23 686.78 950.61 682.73 956.69 679.82 Z" />
</g>
<g id="#de9f5fff">
<path fill="#de9f5f" fill-opacity="0" d=" M 680.40 702.35 C 684.69 699.35 688.01 695.27 691.56 691.48 C 695.15 697.52 698.27 703.87 702.56 709.47 C 704.38 711.97 707.56 713.28 710.62 712.85 C 714.12 707.59 714.00 700.88 715.73 694.97 C 723.14 695.91 730.53 697.05 738.01 697.36 C 744.46 697.07 750.75 694.95 757.24 694.98 C 760.89 695.22 762.77 699.11 763.22 702.32 C 764.56 708.01 761.86 715.79 767.56 719.53 C 772.07 723.16 777.34 718.62 782.23 718.46 C 790.90 717.13 796.49 725.27 804.31 727.20 C 810.59 728.68 817.06 729.33 823.50 729.47 C 826.81 733.01 829.75 737.22 834.03 739.64 C 842.16 741.96 851.20 740.08 858.89 744.20 C 861.99 745.80 865.59 747.52 866.91 751.01 C 867.55 754.80 864.55 758.22 865.12 762.04 C 865.91 766.35 868.26 770.12 869.88 774.17 C 866.32 777.33 862.62 780.32 858.98 783.38 C 851.82 780.29 845.13 776.20 837.90 773.27 C 836.18 777.88 835.34 782.77 836.00 787.68 C 836.60 794.44 831.19 800.80 824.79 802.27 C 815.06 801.89 806.31 795.20 796.42 796.60 C 783.58 800.12 774.57 810.62 763.69 817.60 C 754.55 823.35 744.90 828.23 735.68 833.82 C 727.73 839.68 717.39 833.79 709.34 831.25 C 704.06 828.18 698.96 824.85 693.82 821.56 C 695.69 814.92 698.69 808.70 701.07 802.25 C 703.80 795.05 695.31 788.28 699.40 781.22 C 701.14 775.92 705.28 771.89 707.34 766.78 C 708.35 763.63 704.67 761.79 702.51 760.40 C 698.01 757.81 693.43 761.76 688.99 762.46 C 684.58 759.87 682.97 754.31 678.63 751.67 C 673.85 749.93 668.64 749.89 663.79 748.37 C 665.27 737.36 671.70 727.37 670.82 716.01 C 670.69 711.93 669.10 708.10 667.80 704.29 C 667.79 703.88 667.77 703.06 667.76 702.65 L 668.54 702.78 C 672.42 703.32 676.75 704.39 680.40 702.35 Z" />
</g>
<g id="#df1f5fff">
<path fill="#df1f5f" fill-opacity="0" d=" M 653.07 698.13 C 657.72 700.71 662.40 703.59 667.80 704.29 C 669.10 708.10 670.69 711.93 670.82 716.01 C 671.70 727.37 665.27 737.36 663.79 748.37 C 668.64 749.89 673.85 749.93 678.63 751.67 C 682.97 754.31 684.58 759.87 688.99 762.46 C 693.43 761.76 698.01 757.81 702.51 760.40 C 704.67 761.79 708.35 763.63 707.34 766.78 C 705.28 771.89 701.14 775.92 699.40 781.22 C 695.31 788.28 703.80 795.05 701.07 802.25 C 698.69 808.70 695.69 814.92 693.82 821.56 C 698.96 824.85 704.06 828.18 709.34 831.25 C 697.61 833.99 686.74 841.30 674.21 839.55 C 659.76 835.92 647.37 827.40 634.30 820.64 C 629.83 817.94 624.18 816.48 620.80 812.25 C 616.66 805.08 617.11 796.40 615.38 788.55 C 615.49 782.32 609.04 780.21 606.38 775.55 C 605.53 767.41 607.36 759.36 608.05 751.30 C 607.78 746.21 605.30 741.43 605.48 736.31 C 606.87 731.46 612.45 729.83 615.93 726.84 C 619.72 724.85 621.60 720.53 625.42 718.66 C 629.35 718.24 633.31 717.94 637.28 717.75 C 639.09 713.57 639.88 708.93 642.12 704.98 C 645.18 701.91 649.34 700.26 653.07 698.13 Z" />
</g>
<g id="#4a9f60ff">
<path fill="#4a9f60" fill-opacity="0" d=" M 1284.08 799.03 C 1284.01 797.98 1284.40 797.14 1285.25 796.50 C 1286.19 797.99 1285.80 798.83 1284.08 799.03 Z" />
<path fill="#4a9f60" fill-opacity="0" d=" M 1281.15 808.02 C 1280.51 806.86 1281.29 805.43 1282.70 805.88 C 1282.32 806.42 1281.54 807.49 1281.15 808.02 Z" />
</g>
<g id="#8fbf00ff">
<path fill="#8fbf00" fill-opacity="0" d=" M -0.00 1079.32 C 1.25 1078.42 2.51 1078.46 3.78 1079.44 L 3.38 1080.00 L 0.00 1080.00 L 0.00 1079.32 Z" />
</g>
<g id="#8f0000ff">
<path fill="#8f0000" fill-opacity="0" d=" M 3.78 1079.44 C 26.58 1078.76 49.42 1078.61 72.21 1079.82 L 70.96 1080.00 L 3.38 1080.00 L 3.78 1079.44 Z" />
</g>
<g id="#cf3f7fff">
<path fill="#cf3f7f" fill-opacity="0" d=" M 72.21 1079.82 C 96.69 1078.21 121.27 1078.72 145.75 1079.97 L 146.64 1080.00 L 70.96 1080.00 L 72.21 1079.82 Z" />
</g>
<g id="#4f7f00ff">
<path fill="#4f7f00" fill-opacity="0" d=" M 145.75 1079.97 C 170.47 1078.27 195.25 1079.15 220.00 1079.02 C 246.91 1079.16 273.85 1078.28 300.74 1079.97 L 301.63 1080.00 L 146.64 1080.00 L 145.75 1079.97 Z" />
</g>
<g id="#8f7f7fff">
<path fill="#8f7f7f" fill-opacity="0" d=" M 300.74 1079.97 C 324.12 1078.23 347.58 1079.17 371.00 1079.01 C 401.25 1079.28 431.53 1078.14 461.76 1079.97 L 462.65 1080.00 L 301.63 1080.00 L 300.74 1079.97 Z" />
</g>
<g id="#7f7fbfff">
<path fill="#7f7fbf" fill-opacity="0" d=" M 461.76 1079.97 C 483.14 1078.46 504.58 1079.01 526.00 1079.01 C 551.26 1079.12 576.54 1078.35 601.78 1079.97 L 602.65 1080.00 L 462.65 1080.00 L 461.76 1079.97 Z" />
</g>
<g id="#7fbf3fff">
<path fill="#7fbf3f" fill-opacity="0" d=" M 601.78 1079.97 C 626.15 1078.36 650.59 1079.10 675.00 1079.01 C 700.25 1079.10 725.53 1078.36 750.75 1079.97 L 751.64 1080.00 L 602.65 1080.00 L 601.78 1079.97 Z" />
</g>
<g id="#bfdf7fff">
<path fill="#bfdf7f" fill-opacity="0" d=" M 750.75 1079.97 C 767.39 1078.58 784.09 1078.76 800.74 1079.96 L 801.64 1080.00 L 751.64 1080.00 L 750.75 1079.97 Z" />
</g>
<g id="#7fdf00fe">
<path fill="#7fdf00" fill-opacity="0" d=" M 800.74 1079.96 C 814.46 1078.92 828.23 1078.84 842.00 1078.96 L 842.00 1080.00 L 801.64 1080.00 L 800.74 1079.96 Z" />
</g>
<g id="#009f3fff">
<path fill="#009f3f" fill-opacity="0" d=" M 842.00 1078.96 C 881.26 1079.52 920.56 1077.90 959.80 1079.97 L 960.67 1080.00 L 842.00 1080.00 L 842.00 1078.96 Z" />
</g>
<g id="#7f9f3fff">
<path fill="#7f9f3f" fill-opacity="0" d=" M 959.80 1079.97 C 967.69 1079.83 975.59 1079.77 983.51 1080.00 L 960.67 1080.00 L 959.80 1079.97 Z" />
<path fill="#7f9f3f" fill-opacity="0" d=" M 991.91 1079.25 C 1030.84 1079.17 1069.82 1078.07 1108.74 1079.97 L 1109.63 1080.00 L 991.51 1080.00 L 991.91 1079.25 Z" />
</g>
<g id="#001f40ff">
<path fill="#001f40" fill-opacity="0" d=" M 985.23 1080.00 C 985.23 1078.11 987.90 1078.12 987.94 1080.00 L 985.23 1080.00 Z" />
</g>
<g id="#001f3fff">
<path fill="#001f3f" fill-opacity="0" d=" M 988.81 1080.00 C 989.57 1078.60 990.60 1078.36 991.91 1079.25 L 991.51 1080.00 L 988.81 1080.00 Z" />
</g>
<g id="#bf1fbfff">
<path fill="#bf1fbf" fill-opacity="0" d=" M 1108.74 1079.97 C 1137.36 1078.23 1166.11 1078.59 1194.75 1079.97 L 1195.65 1080.00 L 1109.63 1080.00 L 1108.74 1079.97 Z" />
</g>
<g id="#3f9fbfff">
<path fill="#3f9fbf" fill-opacity="0" d=" M 1194.75 1079.97 C 1211.40 1078.57 1228.12 1078.77 1244.78 1079.96 L 1245.66 1080.00 L 1195.65 1080.00 L 1194.75 1079.97 Z" />
</g>
<g id="#bf9f7fff">
<path fill="#bf9f7f" fill-opacity="0" d=" M 1244.78 1079.96 C 1274.48 1078.13 1304.25 1079.33 1334.00 1078.93 L 1334.02 1080.00 L 1245.66 1080.00 L 1244.78 1079.96 Z" />
<path fill="#bf9f7f" fill-opacity="0" d=" M 1361.75 1079.97 C 1381.71 1078.44 1401.76 1078.65 1421.74 1079.97 L 1422.63 1080.00 L 1362.64 1080.00 L 1361.75 1079.97 Z" />
</g>
<g id="#3f9fbffe">
<path fill="#3f9fbf" fill-opacity="0" d=" M 1334.00 1078.93 C 1343.24 1079.05 1352.49 1079.55 1361.75 1079.97 L 1362.64 1080.00 L 1334.02 1080.00 L 1334.00 1078.93 Z" />
</g>
<g id="#3fdf7fff">
<path fill="#3fdf7f" fill-opacity="0" d=" M 1421.74 1079.97 C 1450.37 1078.24 1479.12 1078.59 1507.78 1079.97 L 1508.65 1080.00 L 1422.63 1080.00 L 1421.74 1079.97 Z" />
</g>
<g id="#7f9fbfff">
<path fill="#7f9fbf" fill-opacity="0" d=" M 1507.78 1079.97 C 1530.73 1078.48 1553.77 1078.52 1576.74 1079.96 L 1577.63 1080.00 L 1508.65 1080.00 L 1507.78 1079.97 Z" />
</g>
<g id="#7f5f7fff">
<path fill="#7f5f7f" fill-opacity="0" d=" M 1576.74 1079.96 C 1583.75 1079.74 1590.73 1079.85 1597.79 1079.99 L 1598.63 1080.00 L 1577.63 1080.00 L 1576.74 1079.96 Z" />
<path fill="#7f5f7f" fill-opacity="0" d=" M 1652.00 1078.98 C 1659.22 1079.22 1666.46 1079.62 1673.74 1079.97 L 1674.62 1080.00 L 1652.02 1080.00 L 1652.00 1078.98 Z" />
</g>
<g id="#3f9f3fff">
<path fill="#3f9f3f" fill-opacity="0" d=" M 1597.79 1079.99 C 1615.82 1078.85 1633.91 1078.68 1652.00 1078.98 L 1652.02 1080.00 L 1598.63 1080.00 L 1597.79 1079.99 Z" />
<path fill="#3f9f3f" fill-opacity="0" d=" M 1673.74 1079.97 C 1684.13 1079.23 1694.55 1078.91 1705.00 1078.93 L 1705.00 1080.00 L 1674.62 1080.00 L 1673.74 1079.97 Z" />
</g>
<g id="#7f5f7ffe">
<path fill="#7f5f7f" fill-opacity="0" d=" M 1705.00 1078.93 C 1725.92 1078.94 1746.86 1078.62 1767.77 1079.97 L 1768.65 1080.00 L 1705.00 1080.00 L 1705.00 1078.93 Z" />
</g>
<g id="#2f3fbfff">
<path fill="#2f3fbf" fill-opacity="0" d=" M 1767.77 1079.97 C 1773.10 1079.90 1778.35 1079.91 1783.74 1079.99 L 1784.58 1080.00 L 1768.65 1080.00 L 1767.77 1079.97 Z" />
</g>
<g id="#2f3f3fff">
<path fill="#2f3f3f" fill-opacity="0" d=" M 1783.74 1079.99 C 1829.11 1077.73 1874.58 1079.60 1920.00 1079.00 L 1920.00 1080.00 L 1784.58 1080.00 L 1783.74 1079.99 Z" />
</g>
</svg>
