<?xml version="1.0" encoding="UTF-8" ?>
<!DOCTYPE svg PUBLIC "-//W3C//DTD SVG 1.1//EN" "http://www.w3.org/Graphics/SVG/1.1/DTD/svg11.dtd">
<svg width="1920pt" height="1080pt" viewBox="0 0 1920 1080" version="1.1" xmlns="http://www.w3.org/2000/svg">
<g id="#ef6f3ffe">
<path fill="#ef6f3f" fill-opacity="0" d=" M 1135.24 200.19 C 1137.93 198.15 1140.75 200.43 1142.72 202.29 C 1148.12 207.35 1156.01 207.81 1163.05 207.59 C 1161.96 216.10 1160.57 224.64 1157.53 232.71 C 1156.30 235.92 1156.27 239.41 1157.12 242.76 C 1162.44 247.84 1169.45 249.95 1176.24 252.19 C 1170.09 254.74 1164.52 258.50 1159.06 262.24 C 1156.90 264.30 1154.51 267.81 1156.42 270.76 C 1159.04 275.35 1161.90 279.81 1163.88 284.75 C 1156.97 287.00 1149.51 285.55 1142.66 287.66 C 1138.01 293.04 1136.08 300.34 1134.05 307.05 C 1128.94 307.42 1123.25 306.66 1118.83 309.81 C 1114.15 313.19 1111.47 318.50 1108.07 323.03 C 1104.50 321.00 1101.38 318.37 1098.29 315.72 C 1095.30 312.78 1090.58 313.67 1087.11 311.76 C 1085.40 310.49 1084.04 308.84 1082.61 307.31 C 1078.92 307.74 1075.24 308.16 1071.53 308.31 C 1073.48 311.05 1075.78 313.71 1076.78 316.98 C 1075.85 319.54 1073.96 321.57 1072.36 323.71 C 1078.75 326.74 1086.15 329.99 1089.17 336.89 C 1091.01 339.91 1093.00 344.03 1091.12 347.53 C 1083.66 358.26 1071.41 365.56 1067.05 378.34 C 1062.78 375.11 1058.98 369.61 1052.98 370.32 C 1045.73 371.11 1044.20 379.93 1038.04 382.64 C 1028.14 387.15 1019.18 393.83 1011.97 401.96 C 1008.89 408.18 1009.77 415.68 1007.95 422.29 C 1005.89 424.28 1003.16 425.38 1000.74 426.83 C 1001.89 432.48 1001.94 438.78 1006.63 442.93 C 1007.14 445.10 1006.74 448.25 1009.35 449.15 C 1011.93 450.72 1015.78 450.84 1017.52 453.55 C 1017.93 457.25 1018.89 461.58 1016.88 465.04 C 1014.54 468.64 1010.62 470.98 1008.61 474.83 C 1006.48 479.47 1009.26 484.76 1007.45 489.40 C 1003.31 495.44 994.33 495.35 990.33 501.64 C 987.48 506.52 980.54 507.23 978.59 512.80 C 976.33 519.24 974.62 526.27 975.99 533.07 C 979.29 539.95 983.30 546.74 988.95 552.00 C 983.22 555.13 978.68 559.74 975.07 565.11 C 968.59 569.81 960.18 567.35 953.63 564.11 C 950.62 566.86 947.69 569.98 943.96 571.70 C 938.58 572.48 932.53 571.15 927.80 574.58 C 918.24 576.62 910.74 566.31 901.07 568.94 C 893.52 571.40 887.31 577.31 879.31 578.61 C 875.47 575.14 873.19 570.15 868.78 567.26 C 869.99 560.84 865.16 555.88 861.56 551.24 C 863.63 544.61 868.51 538.52 867.55 531.24 C 866.14 526.46 864.26 521.65 861.53 517.51 C 856.14 512.76 849.49 509.64 842.92 506.87 C 839.54 505.70 838.86 501.89 838.28 498.83 C 836.91 489.99 835.01 481.19 832.23 472.69 C 830.72 467.91 826.09 465.36 822.62 462.19 C 818.28 458.34 815.09 453.49 811.55 448.96 C 812.38 444.91 812.89 440.78 814.14 436.84 C 817.52 433.73 821.95 432.35 826.16 430.79 C 824.20 427.85 822.17 424.97 820.18 422.06 C 824.93 419.65 829.17 416.42 833.44 413.27 C 837.84 415.00 842.21 416.80 846.58 418.63 C 848.15 412.75 850.97 407.32 853.76 401.93 C 850.91 399.07 846.86 396.69 846.15 392.39 C 848.19 390.18 850.93 388.84 853.50 387.35 C 852.72 386.09 851.95 384.83 851.20 383.57 C 852.18 382.02 853.26 380.52 854.08 378.87 C 851.82 376.79 848.59 375.90 846.72 373.40 C 845.27 370.76 844.98 367.70 844.31 364.81 C 848.02 363.12 850.14 359.68 851.37 355.95 C 857.62 353.80 863.92 351.30 870.63 351.35 C 874.96 352.28 875.51 357.22 876.34 360.80 C 879.07 360.21 881.89 359.64 884.66 359.07 C 884.27 355.50 883.79 351.90 883.74 348.31 C 886.79 346.14 890.85 345.44 893.34 342.47 C 895.04 340.50 896.64 338.45 898.45 336.58 C 896.24 327.39 893.99 317.81 895.28 308.30 C 896.67 306.48 898.53 305.09 900.30 303.66 C 899.90 298.48 901.64 293.21 905.30 289.48 C 908.26 287.78 911.66 287.01 914.83 285.78 C 917.66 284.49 920.76 286.57 923.60 285.52 C 926.88 283.53 929.97 281.11 933.48 279.50 C 933.66 273.18 932.90 265.64 938.58 261.35 C 939.11 255.24 937.50 248.65 939.94 242.82 C 946.44 236.83 955.86 237.49 964.13 237.74 C 963.82 239.69 963.52 241.64 963.19 243.58 C 965.17 243.60 967.15 243.73 969.15 243.88 C 969.53 236.50 969.31 229.11 969.20 221.73 C 974.29 220.39 976.23 214.98 980.59 212.58 C 986.01 211.98 991.70 213.94 995.29 218.11 C 998.70 216.83 1001.63 214.48 1005.11 213.34 C 1007.34 213.82 1009.17 215.55 1011.46 215.79 C 1018.48 215.13 1025.97 218.27 1032.51 214.43 C 1035.12 217.70 1038.29 221.46 1042.87 221.48 C 1047.01 221.56 1051.14 221.92 1055.16 222.97 C 1057.79 218.64 1060.14 214.02 1064.16 210.77 C 1065.23 213.25 1065.86 216.07 1067.72 218.13 C 1070.58 219.97 1074.00 220.82 1076.80 222.80 C 1078.21 225.14 1078.25 228.07 1079.61 230.48 C 1083.61 233.82 1089.21 233.81 1094.10 233.04 C 1096.02 226.89 1101.76 223.38 1105.18 218.18 C 1109.72 217.63 1114.02 216.06 1118.24 214.34 C 1122.49 212.57 1126.97 215.04 1130.25 217.67 C 1130.82 211.63 1131.58 205.28 1135.24 200.19 Z" />
</g>
<g id="#6fef3fff">
<path fill="#6fef3f" fill-opacity="0" d=" M 1176.24 252.19 C 1180.00 251.73 1183.72 252.72 1187.37 253.56 C 1191.84 254.54 1194.79 258.81 1199.44 259.30 C 1202.00 260.25 1205.44 259.75 1207.92 261.23 C 1210.94 264.57 1211.87 269.53 1215.51 272.41 C 1221.08 276.87 1226.33 281.99 1232.97 284.86 C 1241.19 288.31 1250.16 285.42 1258.64 287.46 C 1263.46 288.65 1267.87 291.12 1272.70 292.37 C 1275.05 293.07 1277.72 293.53 1279.34 295.60 C 1283.71 300.77 1287.55 306.99 1293.79 310.19 C 1300.96 314.26 1309.49 313.53 1317.38 314.43 C 1323.41 314.98 1327.62 321.15 1333.87 320.67 C 1338.46 320.48 1342.98 319.46 1347.57 319.08 C 1348.57 322.80 1349.57 326.77 1352.43 329.55 C 1357.08 334.21 1362.65 338.09 1366.35 343.64 C 1367.11 344.71 1366.48 346.10 1366.27 347.26 C 1363.16 356.93 1357.72 365.61 1353.91 374.97 C 1351.00 379.15 1354.57 383.33 1354.38 387.63 C 1353.58 391.95 1351.38 395.84 1349.98 399.97 C 1353.38 402.30 1356.19 405.47 1359.98 407.23 C 1362.99 408.74 1365.71 411.24 1366.29 414.71 C 1367.86 423.76 1359.33 430.37 1359.40 439.13 C 1359.08 443.16 1363.79 446.06 1362.31 450.15 C 1360.66 455.44 1358.30 460.58 1355.19 465.17 C 1351.55 469.11 1347.76 472.93 1344.49 477.19 C 1348.24 478.24 1352.25 478.45 1355.80 480.19 C 1359.55 481.96 1362.75 484.64 1366.05 487.12 C 1365.39 488.85 1364.73 490.58 1364.09 492.32 C 1368.23 493.22 1372.53 493.95 1376.12 496.42 C 1374.72 499.86 1373.24 503.28 1372.32 506.88 C 1373.83 509.72 1376.33 511.84 1378.55 514.13 C 1378.58 517.74 1378.22 521.44 1379.18 524.98 C 1382.71 534.42 1373.64 542.69 1369.67 550.49 C 1372.49 552.68 1374.80 555.38 1377.04 558.17 C 1373.63 563.45 1371.10 569.30 1369.71 575.45 C 1373.01 577.36 1376.26 579.34 1379.55 581.31 C 1377.68 595.05 1369.34 606.47 1363.83 618.87 C 1353.84 636.25 1344.27 653.87 1334.28 671.26 C 1330.94 677.42 1324.11 680.42 1320.42 686.29 C 1316.76 691.65 1313.24 697.12 1309.27 702.27 C 1299.80 714.15 1294.18 728.40 1286.21 741.23 C 1284.79 740.13 1283.40 739.03 1282.00 737.94 C 1280.89 739.27 1279.78 740.60 1278.69 741.94 C 1277.44 741.37 1276.20 740.80 1274.99 740.23 C 1267.74 744.66 1264.96 753.38 1257.82 757.85 C 1256.47 751.13 1258.28 744.61 1260.18 738.25 C 1259.16 736.93 1257.10 734.29 1256.08 732.97 C 1259.08 726.45 1261.99 719.88 1264.47 713.15 C 1260.22 713.87 1255.74 713.32 1251.63 714.63 C 1246.94 717.78 1243.34 722.38 1240.80 727.39 C 1239.26 726.25 1237.67 725.15 1236.08 724.11 C 1238.00 718.60 1240.91 713.45 1242.56 707.86 C 1242.09 702.92 1238.68 698.84 1236.88 694.33 C 1234.86 694.98 1232.83 695.59 1230.81 696.18 C 1236.48 679.25 1245.45 663.56 1250.25 646.33 C 1251.24 641.23 1251.21 633.50 1245.10 631.78 C 1238.67 636.24 1235.22 643.19 1231.68 649.87 C 1230.66 653.22 1227.02 653.55 1224.31 654.76 C 1220.56 656.12 1216.97 658.97 1212.80 657.82 C 1212.85 653.50 1212.91 649.20 1212.98 644.90 C 1211.86 646.29 1210.76 647.69 1209.67 649.10 C 1207.75 647.73 1205.87 646.32 1204.02 644.89 C 1204.35 642.87 1204.66 640.85 1205.01 638.84 C 1199.40 638.27 1193.76 636.41 1188.14 637.14 C 1183.66 638.53 1182.00 643.36 1179.85 647.04 C 1174.84 644.90 1169.13 645.11 1165.23 649.34 C 1162.25 648.34 1159.14 647.42 1156.05 647.02 C 1152.32 649.03 1150.11 652.94 1146.63 655.29 C 1144.34 656.43 1141.80 655.26 1139.62 654.44 C 1133.29 651.62 1126.02 651.38 1119.28 652.26 C 1115.80 654.02 1114.93 658.23 1113.48 661.51 C 1111.66 661.29 1109.84 661.10 1108.04 660.91 C 1111.63 644.10 1114.99 627.24 1118.95 610.51 C 1118.53 608.10 1121.41 604.31 1118.84 602.25 C 1114.51 597.38 1107.24 596.82 1102.81 592.16 C 1102.62 589.61 1103.54 587.15 1104.05 584.69 C 1100.95 582.27 1097.59 579.77 1095.97 576.06 C 1094.61 572.81 1095.70 569.17 1097.19 566.17 C 1099.83 560.88 1105.23 557.64 1107.85 552.34 C 1109.18 549.63 1109.44 545.97 1112.57 544.58 C 1116.16 541.79 1122.74 541.03 1123.03 535.48 C 1121.86 531.07 1118.49 527.42 1118.10 522.70 C 1116.87 511.71 1122.21 499.78 1132.61 495.09 C 1129.27 492.24 1122.92 491.48 1124.21 485.71 C 1126.37 484.53 1128.62 483.50 1130.95 482.62 C 1129.02 478.09 1125.75 473.89 1125.51 468.82 C 1125.62 464.04 1125.81 458.84 1128.68 454.77 C 1132.74 448.72 1138.64 443.88 1141.36 436.96 C 1144.77 437.25 1148.21 437.92 1151.67 437.55 C 1154.68 435.22 1155.41 431.04 1158.38 428.64 C 1160.20 426.82 1162.79 425.54 1163.93 423.14 C 1165.32 416.07 1162.80 408.94 1163.95 401.83 C 1157.36 399.34 1148.40 398.60 1145.37 391.06 C 1142.77 375.64 1146.33 360.13 1148.70 344.91 C 1138.86 337.42 1141.78 322.42 1132.14 314.53 C 1132.75 312.03 1133.39 309.54 1134.05 307.05 C 1136.08 300.34 1138.01 293.04 1142.66 287.66 C 1149.51 285.55 1156.97 287.00 1163.88 284.75 C 1161.90 279.81 1159.04 275.35 1156.42 270.76 C 1154.51 267.81 1156.90 264.30 1159.06 262.24 C 1164.52 258.50 1170.09 254.74 1176.24 252.19 Z" />
</g>
<g id="#efef3ffe">
<path fill="#efef3f" fill-opacity="0" d=" M 1071.53 308.31 C 1075.24 308.16 1078.92 307.74 1082.61 307.31 C 1084.04 308.84 1085.40 310.49 1087.11 311.76 C 1090.58 313.67 1095.30 312.78 1098.29 315.72 C 1101.38 318.37 1104.50 321.00 1108.07 323.03 C 1111.47 318.50 1114.15 313.19 1118.83 309.81 C 1123.25 306.66 1128.94 307.42 1134.05 307.05 C 1133.39 309.54 1132.75 312.03 1132.14 314.53 C 1141.78 322.42 1138.86 337.42 1148.70 344.91 C 1146.33 360.13 1142.77 375.64 1145.37 391.06 C 1148.40 398.60 1157.36 399.34 1163.95 401.83 C 1162.80 408.94 1165.32 416.07 1163.93 423.14 C 1162.79 425.54 1160.20 426.82 1158.38 428.64 C 1155.41 431.04 1154.68 435.22 1151.67 437.55 C 1148.21 437.92 1144.77 437.25 1141.36 436.96 C 1138.64 443.88 1132.74 448.72 1128.68 454.77 C 1125.81 458.84 1125.62 464.04 1125.51 468.82 C 1125.75 473.89 1129.02 478.09 1130.95 482.62 C 1128.62 483.50 1126.37 484.53 1124.21 485.71 C 1122.92 491.48 1129.27 492.24 1132.61 495.09 C 1122.21 499.78 1116.87 511.71 1118.10 522.70 C 1118.49 527.42 1121.86 531.07 1123.03 535.48 C 1122.74 541.03 1116.16 541.79 1112.57 544.58 C 1109.44 545.97 1109.18 549.63 1107.85 552.34 C 1105.23 557.64 1099.83 560.88 1097.19 566.17 C 1095.70 569.17 1094.61 572.81 1095.97 576.06 C 1097.59 579.77 1100.95 582.27 1104.05 584.69 C 1103.54 587.15 1102.62 589.61 1102.81 592.16 C 1107.24 596.82 1114.51 597.38 1118.84 602.25 C 1121.41 604.31 1118.53 608.10 1118.95 610.51 C 1114.99 627.24 1111.63 644.10 1108.04 660.91 L 1107.85 661.82 C 1103.18 663.59 1098.79 666.23 1096.65 670.96 C 1086.98 680.61 1086.90 695.00 1084.14 707.51 C 1077.24 704.37 1072.40 711.88 1067.95 715.91 C 1063.83 720.74 1058.38 724.50 1055.27 730.13 C 1052.89 737.25 1052.51 744.82 1051.00 752.15 C 1047.58 752.21 1044.89 754.17 1042.86 756.77 C 1046.48 734.82 1049.36 712.75 1051.21 690.59 C 1051.56 683.68 1056.67 678.45 1060.96 673.49 C 1056.95 668.99 1053.35 664.13 1049.25 659.71 C 1045.38 655.46 1039.75 653.51 1034.87 650.79 C 1031.17 648.92 1028.06 645.99 1024.11 644.62 C 1020.33 650.42 1020.81 658.53 1015.18 663.18 C 1008.01 669.21 999.02 673.72 994.82 682.58 C 990.25 677.64 986.52 671.94 981.40 667.51 C 976.38 671.99 971.13 676.23 965.39 679.75 C 961.09 682.38 957.49 687.02 952.18 687.43 C 947.07 686.17 942.77 682.54 939.06 679.00 C 934.52 674.45 933.77 667.72 930.26 662.56 C 927.55 658.81 922.84 662.52 919.45 663.04 C 919.51 659.37 919.81 655.71 920.60 652.13 C 922.14 645.06 922.84 637.77 922.18 630.55 C 915.50 625.93 911.15 617.15 914.15 609.12 C 918.44 600.48 926.41 594.30 930.76 585.72 C 932.93 581.80 929.73 577.84 927.80 574.58 C 932.53 571.15 938.58 572.48 943.96 571.70 C 947.69 569.98 950.62 566.86 953.63 564.11 C 960.18 567.35 968.59 569.81 975.07 565.11 C 978.68 559.74 983.22 555.13 988.95 552.00 C 983.30 546.74 979.29 539.95 975.99 533.07 C 974.62 526.27 976.33 519.24 978.59 512.80 C 980.54 507.23 987.48 506.52 990.33 501.64 C 994.33 495.35 1003.31 495.44 1007.45 489.40 C 1009.26 484.76 1006.48 479.47 1008.61 474.83 C 1010.62 470.98 1014.54 468.64 1016.88 465.04 C 1018.89 461.58 1017.93 457.25 1017.52 453.55 C 1015.78 450.84 1011.93 450.72 1009.35 449.15 C 1006.74 448.25 1007.14 445.10 1006.63 442.93 C 1001.94 438.78 1001.89 432.48 1000.74 426.83 C 1003.16 425.38 1005.89 424.28 1007.95 422.29 C 1009.77 415.68 1008.89 408.18 1011.97 401.96 C 1019.18 393.83 1028.14 387.15 1038.04 382.64 C 1044.20 379.93 1045.73 371.11 1052.98 370.32 C 1058.98 369.61 1062.78 375.11 1067.05 378.34 C 1071.41 365.56 1083.66 358.26 1091.12 347.53 C 1093.00 344.03 1091.01 339.91 1089.17 336.89 C 1086.15 329.99 1078.75 326.74 1072.36 323.71 C 1073.96 321.57 1075.85 319.54 1076.78 316.98 C 1075.78 313.71 1073.48 311.05 1071.53 308.31 Z" />
</g>
<g id="#6f6f3ffe">
<path fill="#6f6f3f" fill-opacity="0" d=" M 715.03 340.09 C 717.85 342.58 720.33 345.45 723.08 348.03 C 725.40 350.59 728.93 348.76 731.79 348.43 C 732.85 349.43 733.91 350.44 734.98 351.44 C 736.85 350.35 738.67 347.65 741.09 348.84 C 745.47 350.85 748.93 354.68 753.92 355.40 C 753.73 353.86 753.56 352.33 753.38 350.81 C 754.96 351.74 756.56 352.66 758.16 353.60 C 765.01 350.20 771.72 346.50 777.83 341.90 C 781.10 339.03 782.48 342.43 783.93 344.28 C 785.28 346.49 787.28 348.16 789.25 349.80 C 790.18 356.98 792.63 364.05 791.95 371.37 C 797.66 371.93 802.79 374.49 808.09 376.45 C 808.38 370.90 809.06 365.27 811.84 360.35 C 820.79 364.17 830.26 360.79 839.41 359.70 C 842.31 359.20 843.92 362.40 844.31 364.81 C 844.98 367.70 845.27 370.76 846.72 373.40 C 848.59 375.90 851.82 376.79 854.08 378.87 C 853.26 380.52 852.18 382.02 851.20 383.57 C 851.95 384.83 852.72 386.09 853.50 387.35 C 850.93 388.84 848.19 390.18 846.15 392.39 C 846.86 396.69 850.91 399.07 853.76 401.93 C 850.97 407.32 848.15 412.75 846.58 418.63 C 842.21 416.80 837.84 415.00 833.44 413.27 C 829.17 416.42 824.93 419.65 820.18 422.06 C 822.17 424.97 824.20 427.85 826.16 430.79 C 821.95 432.35 817.52 433.73 814.14 436.84 C 812.89 440.78 812.38 444.91 811.55 448.96 C 807.72 443.73 803.32 438.97 798.49 434.66 C 797.73 429.99 799.16 422.60 793.63 420.32 C 786.78 418.87 784.23 426.47 780.91 430.76 C 778.48 427.34 776.10 423.89 773.82 420.39 C 770.72 424.46 767.42 428.40 763.41 431.61 C 764.00 433.82 764.58 436.02 765.17 438.24 C 760.43 440.05 755.62 442.65 750.42 442.31 C 745.15 441.19 740.07 439.12 735.44 436.40 C 730.96 433.80 728.74 427.36 722.46 428.52 C 715.85 428.23 710.51 422.69 703.70 423.97 C 698.30 423.73 694.11 427.51 691.93 432.21 C 693.71 439.34 700.45 444.07 701.72 451.43 C 702.70 456.48 703.30 461.61 704.55 466.62 C 696.77 475.22 696.48 487.52 697.67 498.38 C 699.85 502.76 705.24 504.06 708.15 507.85 C 710.10 509.95 710.23 513.10 709.22 515.67 C 707.02 520.79 704.25 525.65 701.53 530.51 C 701.02 529.72 700.51 528.94 700.02 528.16 C 693.64 530.80 686.90 532.83 680.01 533.41 C 675.66 533.38 676.34 527.57 675.16 524.68 C 670.77 525.74 664.33 525.93 662.98 531.23 C 661.78 535.97 660.63 540.72 658.85 545.28 C 656.84 542.00 655.01 538.64 653.06 535.33 C 648.10 535.67 643.12 536.13 638.17 535.51 C 637.49 528.56 636.74 519.34 629.28 516.39 C 624.31 514.37 622.51 520.71 620.81 523.91 C 613.49 521.15 605.33 522.80 598.83 526.85 C 590.09 531.89 582.97 539.56 578.54 548.60 C 576.80 552.19 577.62 556.31 576.59 560.05 C 575.21 562.20 573.15 563.80 571.32 565.56 C 573.71 570.62 576.09 575.71 579.05 580.47 C 574.10 574.79 565.58 574.39 561.35 567.95 C 560.40 570.42 559.85 573.09 558.47 575.37 C 555.36 577.17 551.84 578.12 548.67 579.83 C 546.62 577.45 544.93 574.80 542.99 572.35 C 541.49 573.39 540.08 574.62 538.38 575.33 C 534.51 573.41 531.63 570.10 529.18 566.63 C 526.41 561.96 519.87 567.52 516.74 563.39 C 512.55 557.60 508.31 551.32 507.87 543.95 C 513.38 539.82 521.62 539.91 525.55 533.83 C 527.02 533.71 528.49 533.62 529.96 533.54 C 533.31 528.27 532.95 521.64 536.51 516.50 C 538.10 513.96 538.27 510.89 539.40 508.18 C 543.17 506.43 547.66 507.14 551.57 505.60 C 549.48 498.64 554.73 492.10 552.56 485.05 C 555.16 481.67 559.11 478.24 557.37 473.38 C 555.84 469.03 553.74 464.91 552.25 460.55 C 553.76 459.33 555.26 458.10 556.75 456.86 C 556.18 453.69 555.60 450.48 555.13 447.30 C 562.00 439.67 568.22 431.23 571.80 421.51 C 573.37 417.49 577.73 415.69 580.02 412.18 C 584.20 406.40 583.72 398.78 586.31 392.37 C 593.88 389.69 602.06 388.66 609.37 385.21 C 617.52 380.73 620.07 370.93 626.40 364.62 C 628.61 365.88 630.76 367.35 633.21 368.13 C 638.83 369.20 645.12 365.77 650.13 369.61 C 654.43 373.13 657.90 377.93 663.50 379.55 C 664.41 377.98 665.35 376.43 666.29 374.87 C 670.76 374.58 674.85 372.70 679.05 371.33 C 682.42 376.51 683.27 382.77 685.69 388.36 C 686.72 391.07 690.28 390.01 692.54 390.33 C 693.11 387.48 693.45 384.49 694.90 381.92 C 697.17 377.72 701.52 375.06 703.72 370.85 C 703.31 363.85 700.22 357.27 699.81 350.24 C 705.74 348.34 710.67 344.43 715.03 340.09 Z" />
</g>
<g id="#2fefbfff">
<path fill="#2fefbf" fill-opacity="0" d=" M 780.91 430.76 C 784.23 426.47 786.78 418.87 793.63 420.32 C 799.16 422.60 797.73 429.99 798.49 434.66 C 803.32 438.97 807.72 443.73 811.55 448.96 C 815.09 453.49 818.28 458.34 822.62 462.19 C 826.09 465.36 830.72 467.91 832.23 472.69 C 835.01 481.19 836.91 489.99 838.28 498.83 C 838.86 501.89 839.54 505.70 842.92 506.87 C 849.49 509.64 856.14 512.76 861.53 517.51 C 864.26 521.65 866.14 526.46 867.55 531.24 C 868.51 538.52 863.63 544.61 861.56 551.24 C 865.16 555.88 869.99 560.84 868.78 567.26 C 856.28 566.80 843.46 570.68 834.18 579.25 C 829.82 583.71 826.90 589.24 824.98 595.11 C 823.41 600.33 817.39 601.38 813.76 604.78 C 806.10 611.68 797.98 618.09 790.92 625.64 C 787.82 627.59 783.85 628.40 781.46 631.32 C 779.62 634.84 779.86 638.98 779.15 642.82 C 776.55 640.93 774.17 638.79 771.79 636.65 C 769.06 634.17 765.31 633.07 762.85 630.29 C 762.29 626.12 764.73 622.27 764.96 618.15 C 765.13 614.37 764.99 610.56 764.39 606.83 C 763.71 602.52 760.14 599.59 758.25 595.85 C 757.01 592.80 756.42 589.56 755.55 586.41 C 751.05 585.78 746.54 587.11 742.07 586.58 C 736.48 582.99 732.91 577.30 728.42 572.58 C 725.25 569.08 721.67 565.48 720.71 560.67 C 719.44 551.86 720.87 543.00 722.83 534.40 C 718.41 535.01 714.14 536.53 709.70 536.86 C 705.71 537.22 703.44 533.37 701.53 530.51 C 704.25 525.65 707.02 520.79 709.22 515.67 C 710.23 513.10 710.10 509.95 708.15 507.85 C 705.24 504.06 699.85 502.76 697.67 498.38 C 696.48 487.52 696.77 475.22 704.55 466.62 C 703.30 461.61 702.70 456.48 701.72 451.43 C 700.45 444.07 693.71 439.34 691.93 432.21 C 694.11 427.51 698.30 423.73 703.70 423.97 C 710.51 422.69 715.85 428.23 722.46 428.52 C 728.74 427.36 730.96 433.80 735.44 436.40 C 740.07 439.12 745.15 441.19 750.42 442.31 C 755.62 442.65 760.43 440.05 765.17 438.24 C 764.58 436.02 764.00 433.82 763.41 431.61 C 767.42 428.40 770.72 424.46 773.82 420.39 C 776.10 423.89 778.48 427.34 780.91 430.76 Z" />
</g>
<g id="#afefbfff">
<path fill="#afefbf" fill-opacity="0" d=" M 620.81 523.91 C 622.51 520.71 624.31 514.37 629.28 516.39 C 636.74 519.34 637.49 528.56 638.17 535.51 C 643.12 536.13 648.10 535.67 653.06 535.33 C 655.01 538.64 656.84 542.00 658.85 545.28 C 660.63 540.72 661.78 535.97 662.98 531.23 C 664.33 525.93 670.77 525.74 675.16 524.68 C 676.34 527.57 675.66 533.38 680.01 533.41 C 686.90 532.83 693.64 530.80 700.02 528.16 C 700.51 528.94 701.02 529.72 701.53 530.51 C 703.44 533.37 705.71 537.22 709.70 536.86 C 714.14 536.53 718.41 535.01 722.83 534.40 C 720.87 543.00 719.44 551.86 720.71 560.67 C 721.67 565.48 725.25 569.08 728.42 572.58 C 732.91 577.30 736.48 582.99 742.07 586.58 C 746.54 587.11 751.05 585.78 755.55 586.41 C 756.42 589.56 757.01 592.80 758.25 595.85 C 760.14 599.59 763.71 602.52 764.39 606.83 C 764.99 610.56 765.13 614.37 764.96 618.15 C 764.73 622.27 762.29 626.12 762.85 630.29 C 765.31 633.07 769.06 634.17 771.79 636.65 C 774.17 638.79 776.55 640.93 779.15 642.82 C 779.86 638.98 779.62 634.84 781.46 631.32 C 783.85 628.40 787.82 627.59 790.92 625.64 C 792.33 629.77 793.87 633.89 795.89 637.79 C 795.52 644.62 795.69 651.50 797.70 658.09 C 799.57 665.32 797.06 672.52 795.99 679.64 C 798.13 680.00 800.29 680.37 802.44 680.73 C 801.54 685.96 798.18 690.10 795.31 694.39 C 798.66 696.12 803.36 697.39 803.50 702.07 C 804.55 706.09 806.10 710.54 804.75 714.69 C 795.37 718.07 785.94 721.82 777.93 727.98 C 773.17 726.69 768.30 725.62 763.35 725.93 C 760.91 723.86 758.29 721.03 754.75 721.92 C 751.23 721.91 746.09 724.05 743.86 720.23 C 742.50 713.55 744.43 706.91 745.09 700.28 C 738.89 701.32 733.33 704.69 727.14 705.56 C 721.46 704.15 717.34 698.58 717.31 692.74 C 706.44 696.95 700.08 707.38 691.93 715.09 C 688.90 716.90 684.19 716.04 682.50 712.78 C 680.49 710.29 679.63 705.79 675.78 705.81 C 671.12 705.73 666.49 706.44 661.84 706.12 C 665.13 697.71 675.33 695.01 678.62 686.59 C 682.04 678.41 676.31 669.61 669.43 665.49 C 658.60 663.48 650.87 675.70 639.98 674.20 C 635.88 673.49 631.81 674.52 628.08 676.19 C 625.86 671.03 621.59 667.78 616.69 665.50 C 619.40 662.28 622.85 659.56 624.75 655.74 C 623.90 650.96 617.82 649.93 613.71 649.82 C 605.07 650.33 596.29 650.64 587.80 648.60 C 589.41 644.26 589.99 639.57 588.98 635.02 C 587.79 629.92 589.40 624.84 589.72 619.76 C 589.26 616.00 587.31 612.55 586.76 608.81 C 586.88 606.45 587.97 604.27 588.72 602.07 C 584.99 595.05 584.70 586.43 579.05 580.47 C 576.09 575.71 573.71 570.62 571.32 565.56 C 573.15 563.80 575.21 562.20 576.59 560.05 C 577.62 556.31 576.80 552.19 578.54 548.60 C 582.97 539.56 590.09 531.89 598.83 526.85 C 605.33 522.80 613.49 521.15 620.81 523.91 Z" />
</g>
<g id="#6fefbfff">
<path fill="#6fefbf" fill-opacity="0" d=" M 834.18 579.25 C 843.46 570.68 856.28 566.80 868.78 567.26 C 873.19 570.15 875.47 575.14 879.31 578.61 C 887.31 577.31 893.52 571.40 901.07 568.94 C 910.74 566.31 918.24 576.62 927.80 574.58 C 929.73 577.84 932.93 581.80 930.76 585.72 C 926.41 594.30 918.44 600.48 914.15 609.12 C 911.15 617.15 915.50 625.93 922.18 630.55 C 922.84 637.77 922.14 645.06 920.60 652.13 C 917.86 650.97 915.24 649.26 912.25 648.90 C 908.92 649.39 906.88 652.48 904.55 654.59 C 901.45 658.10 897.40 661.04 895.51 665.44 C 894.93 669.85 899.08 673.47 898.86 677.85 C 897.66 684.07 889.99 685.02 887.36 690.24 C 887.76 693.26 889.37 695.92 890.65 698.64 C 884.67 699.79 878.69 700.94 872.73 702.13 C 867.05 703.24 861.16 700.82 855.62 702.68 C 848.19 707.62 844.87 716.45 841.67 724.40 C 840.45 721.58 839.47 718.65 837.94 716.00 C 835.46 712.31 829.75 712.81 826.84 715.65 C 824.57 721.00 823.77 726.95 821.00 732.11 C 817.40 738.37 809.49 740.54 805.90 746.76 C 804.39 752.27 805.58 758.17 805.96 763.80 C 805.86 768.22 808.66 773.53 805.70 777.60 C 804.60 779.36 803.30 780.99 801.98 782.58 C 795.36 775.12 784.82 775.79 775.84 773.96 C 772.90 778.23 770.04 782.62 768.40 787.59 C 764.42 785.79 760.05 784.12 755.64 784.92 C 751.20 785.68 746.78 786.55 742.29 786.93 C 744.12 778.54 750.12 772.08 753.30 764.26 C 758.83 750.73 765.98 736.92 777.93 727.98 C 785.94 721.82 795.37 718.07 804.75 714.69 C 806.10 710.54 804.55 706.09 803.50 702.07 C 803.36 697.39 798.66 696.12 795.31 694.39 C 798.18 690.10 801.54 685.96 802.44 680.73 C 800.29 680.37 798.13 680.00 795.99 679.64 C 797.06 672.52 799.57 665.32 797.70 658.09 C 795.69 651.50 795.52 644.62 795.89 637.79 C 793.87 633.89 792.33 629.77 790.92 625.64 C 797.98 618.09 806.10 611.68 813.76 604.78 C 817.39 601.38 823.41 600.33 824.98 595.11 C 826.90 589.24 829.82 583.71 834.18 579.25 Z" />
</g>
<g id="#6f6fbfff">
<path fill="#6f6fbf" fill-opacity="0" d=" M 1024.11 644.62 C 1028.06 645.99 1031.17 648.92 1034.87 650.79 C 1039.75 653.51 1045.38 655.46 1049.25 659.71 C 1053.35 664.13 1056.95 668.99 1060.96 673.49 C 1056.67 678.45 1051.56 683.68 1051.21 690.59 C 1049.36 712.75 1046.48 734.82 1042.86 756.77 L 1042.71 757.68 C 1036.38 760.09 1031.47 764.97 1028.84 771.19 C 1021.02 770.37 1018.23 778.96 1012.76 782.64 C 997.23 791.82 989.08 808.73 981.71 824.52 C 985.09 826.74 989.58 827.18 993.07 824.91 C 996.07 827.67 999.04 830.47 1002.03 833.27 C 1005.25 831.97 1008.56 830.77 1011.65 829.15 C 1014.99 835.65 1020.89 840.06 1025.64 845.35 C 1026.33 864.94 1022.29 884.23 1019.98 903.59 C 1013.59 902.91 1007.11 902.30 1000.69 902.62 C 1000.35 904.03 999.68 906.84 999.34 908.25 C 993.41 907.46 988.33 904.70 985.10 899.54 C 982.57 900.25 979.66 900.39 977.61 902.20 C 976.32 904.84 976.01 907.98 974.50 910.56 C 973.55 912.70 970.73 912.11 968.85 912.57 C 965.24 912.58 962.48 915.08 959.77 917.10 C 957.63 915.97 955.31 915.12 953.49 913.51 C 951.10 910.85 950.27 907.04 947.53 904.69 C 942.61 902.84 937.61 901.41 932.86 899.20 C 930.21 897.89 926.44 898.04 924.44 900.36 C 922.97 904.32 922.99 908.66 922.26 912.81 C 916.73 913.59 909.96 911.36 905.16 915.11 C 901.40 919.30 900.34 925.11 898.67 930.31 C 888.01 932.09 879.75 924.67 872.78 917.84 C 868.88 919.31 864.66 920.01 861.01 922.05 C 858.84 924.44 858.95 928.26 856.78 930.73 C 849.67 932.59 842.44 933.78 835.25 935.18 C 831.11 936.08 827.31 933.36 823.22 933.53 C 820.53 933.98 818.03 935.14 815.49 936.05 C 807.22 915.50 799.76 894.66 792.12 873.89 C 791.59 872.34 791.10 870.79 790.60 869.26 C 793.49 869.90 796.47 870.22 799.43 869.93 C 803.12 868.42 806.25 865.89 809.84 864.18 C 813.24 863.20 816.88 864.32 820.39 864.32 C 815.28 862.35 809.84 861.20 804.36 861.17 C 800.76 850.24 797.34 839.26 793.65 828.36 C 791.66 821.85 789.10 815.40 788.86 808.51 C 789.09 798.29 795.09 789.62 801.98 782.58 C 803.30 780.99 804.60 779.36 805.70 777.60 C 808.66 773.53 805.86 768.22 805.96 763.80 C 805.58 758.17 804.39 752.27 805.90 746.76 C 809.49 740.54 817.40 738.37 821.00 732.11 C 823.77 726.95 824.57 721.00 826.84 715.65 C 829.75 712.81 835.46 712.31 837.94 716.00 C 839.47 718.65 840.45 721.58 841.67 724.40 C 844.87 716.45 848.19 707.62 855.62 702.68 C 861.16 700.82 867.05 703.24 872.73 702.13 C 878.69 700.94 884.67 699.79 890.65 698.64 C 889.37 695.92 887.76 693.26 887.36 690.24 C 889.99 685.02 897.66 684.07 898.86 677.85 C 899.08 673.47 894.93 669.85 895.51 665.44 C 897.40 661.04 901.45 658.10 904.55 654.59 C 906.88 652.48 908.92 649.39 912.25 648.90 C 915.24 649.26 917.86 650.97 920.60 652.13 C 919.81 655.71 919.51 659.37 919.45 663.04 C 922.84 662.52 927.55 658.81 930.26 662.56 C 933.77 667.72 934.52 674.45 939.06 679.00 C 942.77 682.54 947.07 686.17 952.18 687.43 C 957.49 687.02 961.09 682.38 965.39 679.75 C 971.13 676.23 976.38 671.99 981.40 667.51 C 986.52 671.94 990.25 677.64 994.82 682.58 C 999.02 673.72 1008.01 669.21 1015.18 663.18 C 1020.81 658.53 1020.33 650.42 1024.11 644.62 M 823.46 864.32 C 824.79 865.53 826.27 866.56 827.86 867.46 C 827.53 866.30 827.20 865.15 826.87 864.02 C 826.02 864.10 824.31 864.25 823.46 864.32 Z" />
<path fill="#6f6fbf" fill-opacity="0" d=" M 1043.72 845.93 C 1045.17 845.95 1046.64 845.97 1048.12 846.01 C 1045.23 865.03 1042.39 884.14 1036.80 902.61 C 1038.23 894.91 1035.88 887.21 1037.41 879.55 C 1039.29 868.31 1040.81 856.97 1043.72 845.93 Z" />
<path fill="#6f6fbf" fill-opacity="0" d=" M 752.48 877.63 C 757.43 872.28 764.52 869.51 769.04 863.71 C 777.47 877.78 781.91 893.74 788.19 908.80 C 784.53 911.61 781.00 914.57 777.59 917.67 C 775.94 917.77 772.65 917.97 771.00 918.07 C 764.42 904.78 758.99 890.95 752.48 877.63 Z" />
<path fill="#6f6fbf" fill-opacity="0" d=" M 1023.25 897.38 C 1023.36 890.68 1024.35 884.05 1025.67 877.51 C 1026.35 884.24 1024.87 890.89 1023.25 897.38 Z" />
<path fill="#6f6fbf" fill-opacity="0" d=" M 1027.12 890.53 C 1031.04 891.30 1024.82 893.96 1027.12 890.53 Z" />
</g>
<g id="#6f6fbffe">
<path fill="#6f6fbf" fill-opacity="0" d=" M 587.80 648.60 C 596.29 650.64 605.07 650.33 613.71 649.82 C 617.82 649.93 623.90 650.96 624.75 655.74 C 622.85 659.56 619.40 662.28 616.69 665.50 C 621.59 667.78 625.86 671.03 628.08 676.19 C 631.81 674.52 635.88 673.49 639.98 674.20 C 650.87 675.70 658.60 663.48 669.43 665.49 C 676.31 669.61 682.04 678.41 678.62 686.59 C 675.33 695.01 665.13 697.71 661.84 706.12 C 666.49 706.44 671.12 705.73 675.78 705.81 C 679.63 705.79 680.49 710.29 682.50 712.78 C 684.19 716.04 688.90 716.90 691.93 715.09 C 700.08 707.38 706.44 696.95 717.31 692.74 C 717.34 698.58 721.46 704.15 727.14 705.56 C 733.33 704.69 738.89 701.32 745.09 700.28 C 744.43 706.91 742.50 713.55 743.86 720.23 C 746.09 724.05 751.23 721.91 754.75 721.92 C 758.29 721.03 760.91 723.86 763.35 725.93 C 768.30 725.62 773.17 726.69 777.93 727.98 C 765.98 736.92 758.83 750.73 753.30 764.26 C 750.12 772.08 744.12 778.54 742.29 786.93 C 746.78 786.55 751.20 785.68 755.64 784.92 C 760.05 784.12 764.42 785.79 768.40 787.59 C 773.33 790.24 778.20 793.02 782.86 796.13 C 780.78 801.05 779.53 806.26 777.52 811.21 C 775.73 814.58 774.03 818.05 773.51 821.88 C 768.72 822.94 763.99 824.25 759.38 825.93 C 764.18 837.22 768.61 848.66 772.85 860.18 C 772.26 860.05 771.09 859.80 770.50 859.67 C 769.59 857.60 768.69 855.54 767.73 853.52 C 754.80 850.17 744.00 839.83 730.08 840.13 C 721.03 841.40 713.47 846.75 705.78 851.24 C 708.24 856.57 710.70 861.94 711.43 867.85 C 705.66 864.42 699.13 866.81 692.93 866.85 C 696.31 872.11 699.53 877.51 702.07 883.25 C 700.26 881.25 698.58 879.14 696.95 877.01 C 696.70 877.51 696.21 878.50 695.96 879.00 C 698.74 883.94 701.35 888.97 704.06 893.97 C 700.83 897.03 697.29 899.72 693.69 902.32 C 690.56 897.56 688.50 891.52 683.38 888.48 C 678.41 884.81 671.32 889.86 666.58 885.45 C 662.62 880.74 659.88 875.14 656.65 869.96 C 649.80 870.71 642.39 870.08 636.18 873.50 C 637.48 876.74 638.19 880.44 635.36 883.12 C 631.29 880.46 626.87 876.72 621.94 879.55 C 622.09 881.29 622.26 883.04 622.42 884.80 C 617.63 881.79 613.58 877.78 609.67 873.75 C 600.95 873.65 593.93 867.61 588.82 861.15 C 579.74 849.19 570.48 837.35 560.88 825.81 C 565.25 823.59 570.00 822.33 574.83 821.57 C 575.86 814.31 578.44 807.45 582.02 801.09 C 584.02 795.10 586.02 787.98 582.44 782.15 C 583.32 781.42 584.18 780.67 585.07 779.96 C 584.80 779.48 584.24 778.51 583.97 778.03 C 581.26 779.83 578.53 781.60 575.79 783.35 C 570.10 776.49 564.26 769.24 562.95 760.09 C 562.50 754.24 557.85 750.09 555.05 745.28 C 547.62 747.19 539.88 747.58 532.30 748.34 C 524.04 738.56 516.43 727.88 510.61 716.41 C 512.12 716.15 513.65 715.91 515.18 715.67 C 513.96 712.58 512.65 709.52 511.08 706.59 C 513.27 704.77 515.82 703.47 518.52 702.60 C 520.58 693.20 532.26 694.91 536.97 687.98 C 539.93 683.61 545.36 682.28 550.13 680.97 C 552.38 685.47 556.49 689.50 561.79 689.71 C 563.53 690.00 565.37 688.94 565.81 687.20 C 567.01 679.88 568.33 672.58 569.07 665.20 C 572.94 664.44 577.09 664.45 580.67 662.63 C 583.69 658.28 585.25 653.19 587.80 648.60 Z" />
</g>
<g id="#ef6fbfff">
<path fill="#ef6fbf" fill-opacity="0" d=" M 768.40 787.59 C 770.04 782.62 772.90 778.23 775.84 773.96 C 784.82 775.79 795.36 775.12 801.98 782.58 C 795.09 789.62 789.09 798.29 788.86 808.51 C 789.10 815.40 791.66 821.85 793.65 828.36 C 797.34 839.26 800.76 850.24 804.36 861.17 C 802.35 861.73 800.38 862.40 798.41 863.05 C 798.76 865.34 799.09 867.62 799.43 869.93 C 796.47 870.22 793.49 869.90 790.60 869.26 C 791.10 870.79 791.59 872.34 792.12 873.89 C 791.18 874.17 790.24 874.47 789.32 874.78 C 787.93 872.66 787.03 870.02 784.86 868.58 C 782.11 868.60 779.46 869.18 776.78 869.53 C 775.41 866.43 774.04 863.34 772.85 860.18 C 768.61 848.66 764.18 837.22 759.38 825.93 C 763.99 824.25 768.72 822.94 773.51 821.88 C 774.03 818.05 775.73 814.58 777.52 811.21 C 779.53 806.26 780.78 801.05 782.86 796.13 C 778.20 793.02 773.33 790.24 768.40 787.59 Z" />
</g>
<g id="#6a6ab6f3">
<path fill="#6a6ab6" fill-opacity="0" d=" M 1026.30 877.46 C 1026.02 870.40 1027.09 863.38 1028.70 856.54 C 1028.97 863.59 1027.90 870.61 1026.30 877.46 Z" />
</g>
</svg>
