<?xml version="1.0" encoding="UTF-8" ?>
<!DOCTYPE svg PUBLIC "-//W3C//DTD SVG 1.1//EN" "http://www.w3.org/Graphics/SVG/1.1/DTD/svg11.dtd">
<svg width="1920pt" height="1080pt" viewBox="0 0 1920 1080" version="1.1" xmlns="http://www.w3.org/2000/svg">
<g id="#bf7f00ff">
<path fill="#bf7f00" fill-opacity="0" d=" M 968.96 189.91 C 975.73 186.82 982.21 182.25 989.71 181.28 C 994.38 183.54 997.36 188.31 1000.71 192.17 C 1006.54 192.72 1011.99 195.08 1014.58 200.71 C 1018.86 198.65 1024.85 198.95 1026.73 204.05 C 1028.73 213.60 1034.10 221.89 1039.03 230.14 C 1039.65 231.12 1040.29 232.10 1040.95 233.08 C 1039.47 235.09 1037.97 237.08 1036.49 239.08 C 1037.12 241.93 1039.88 245.58 1037.22 248.10 C 1036.39 249.06 1035.49 249.95 1034.62 250.86 C 1032.37 248.70 1030.16 246.51 1027.94 244.33 C 1022.59 246.90 1016.99 248.93 1011.74 251.71 C 1006.01 254.85 998.54 254.05 993.63 258.84 C 989.57 265.74 999.24 271.58 995.58 278.61 C 987.63 281.28 982.64 288.16 978.84 295.23 C 972.83 293.39 966.31 291.00 962.83 285.41 C 955.73 287.68 948.63 289.99 941.46 291.99 C 939.62 286.13 937.62 280.14 933.71 275.30 C 927.85 268.16 922.35 260.69 915.96 254.01 C 910.28 248.87 903.62 245.00 897.71 240.14 C 897.79 243.39 898.04 246.64 897.98 249.89 C 898.12 252.96 895.67 255.21 894.12 257.59 C 893.06 249.55 891.64 241.47 891.67 233.34 C 895.60 229.81 900.56 227.72 905.13 225.15 C 907.15 224.14 909.57 222.79 911.78 224.17 C 917.77 227.14 924.33 228.65 930.84 230.08 C 934.69 226.67 938.98 223.27 944.17 222.30 C 947.49 222.55 950.38 224.58 953.69 224.95 C 956.35 221.14 958.68 217.07 960.65 212.85 C 962.25 206.80 961.42 200.29 963.31 194.30 C 964.10 191.79 966.88 191.04 968.96 189.91 Z" />
</g>
<g id="#7fbf7fff">
<path fill="#7fbf7f" fill-opacity="0" d=" M 1071.04 224.79 C 1076.89 228.19 1080.61 233.99 1085.48 238.53 C 1086.98 240.21 1088.95 241.78 1089.58 244.02 C 1089.16 250.25 1087.29 256.26 1086.45 262.43 C 1084.97 269.80 1087.35 277.32 1085.65 284.67 C 1084.23 292.27 1082.77 300.00 1083.82 307.77 C 1086.52 307.84 1089.81 308.10 1092.66 308.23 C 1093.33 309.25 1094.01 310.28 1094.72 311.31 C 1094.16 314.98 1093.60 318.64 1093.12 322.33 C 1095.02 323.16 1098.82 324.84 1100.72 325.67 C 1100.51 332.30 1098.81 338.77 1098.66 345.40 C 1098.68 350.21 1097.80 354.98 1096.03 359.45 C 1095.83 357.66 1095.71 355.87 1095.60 354.08 C 1084.22 363.75 1073.24 373.91 1061.51 383.16 C 1054.25 381.04 1046.70 381.97 1039.29 382.45 C 1034.66 376.77 1027.27 375.01 1020.80 372.33 C 1014.75 369.63 1008.07 370.97 1001.76 371.55 C 1001.36 370.56 1000.94 369.57 1000.55 368.61 C 1001.66 368.12 1002.80 367.66 1003.95 367.22 C 1003.35 362.91 1002.16 358.29 997.53 356.55 C 998.46 355.59 999.40 354.65 1000.35 353.71 C 999.69 350.32 998.04 346.71 999.42 343.31 C 1001.21 338.90 1003.42 334.67 1005.07 330.19 C 1006.52 325.75 1004.90 320.56 1007.39 316.39 C 1008.69 314.73 1011.30 311.40 1012.61 309.74 C 1009.27 305.43 1004.31 301.90 1003.13 296.27 C 1001.95 289.88 999.36 283.88 995.58 278.61 C 999.24 271.58 989.57 265.74 993.63 258.84 C 998.54 254.05 1006.01 254.85 1011.74 251.71 C 1016.99 248.93 1022.59 246.90 1027.94 244.33 C 1030.16 246.51 1032.37 248.70 1034.62 250.86 C 1035.49 249.95 1036.39 249.06 1037.22 248.10 C 1039.88 245.58 1037.12 241.93 1036.49 239.08 C 1037.97 237.08 1039.47 235.09 1040.95 233.08 C 1040.29 232.10 1039.65 231.12 1039.03 230.14 C 1049.70 228.55 1060.94 229.09 1071.04 224.79 M 1041.80 339.79 C 1041.67 341.20 1041.53 342.62 1041.50 344.05 C 1041.11 347.71 1044.59 350.04 1046.71 352.51 C 1047.96 349.74 1049.21 346.97 1050.37 344.17 C 1047.54 342.65 1044.69 341.18 1041.80 339.79 Z" />
</g>
<g id="#df7f00ff">
<path fill="#df7f00" fill-opacity="0" d=" M 897.71 240.14 C 903.62 245.00 910.28 248.87 915.96 254.01 C 922.35 260.69 927.85 268.16 933.71 275.30 C 937.62 280.14 939.62 286.13 941.46 291.99 C 948.63 289.99 955.73 287.68 962.83 285.41 C 966.31 291.00 972.83 293.39 978.84 295.23 C 982.64 288.16 987.63 281.28 995.58 278.61 C 999.36 283.88 1001.95 289.88 1003.13 296.27 C 1004.31 301.90 1009.27 305.43 1012.61 309.74 C 1011.30 311.40 1008.69 314.73 1007.39 316.39 C 1004.90 320.56 1006.52 325.75 1005.07 330.19 C 1003.42 334.67 1001.21 338.90 999.42 343.31 C 998.04 346.71 999.69 350.32 1000.35 353.71 C 999.40 354.65 998.46 355.59 997.53 356.55 C 1002.16 358.29 1003.35 362.91 1003.95 367.22 C 1002.80 367.66 1001.66 368.12 1000.55 368.61 C 994.52 371.14 990.46 376.53 985.76 380.82 C 987.16 384.80 987.83 389.02 987.34 393.23 C 984.32 393.13 980.81 393.94 978.33 391.73 C 974.46 388.72 970.57 384.62 965.02 386.02 C 961.64 385.22 956.59 387.18 956.80 391.23 C 956.78 397.20 959.34 403.92 954.40 408.82 C 951.43 412.35 947.94 415.44 944.17 418.09 C 941.69 416.81 939.12 415.73 936.50 414.77 C 936.44 415.80 936.38 416.85 936.34 417.89 C 932.69 417.05 928.97 416.49 925.35 415.51 C 921.02 414.19 919.79 409.04 918.29 405.42 C 920.29 404.02 922.34 402.68 924.36 401.31 C 920.78 397.82 915.41 395.04 915.62 389.19 C 915.06 384.27 919.83 380.84 920.68 376.21 C 918.26 372.18 914.76 368.90 912.31 364.87 C 907.96 365.27 903.38 366.28 899.14 364.73 C 897.66 360.87 903.94 356.63 899.52 353.68 C 892.21 348.17 885.89 341.18 881.71 333.00 C 880.92 329.28 880.31 324.89 883.19 321.87 C 883.08 315.65 878.72 311.16 874.68 306.98 C 877.79 303.45 880.57 299.55 884.22 296.55 C 888.03 294.75 892.35 294.26 896.27 292.67 C 894.35 291.00 892.29 289.49 889.96 288.46 C 891.43 288.00 894.36 287.09 895.83 286.63 C 895.55 276.93 895.15 267.23 894.12 257.59 C 895.67 255.21 898.12 252.96 897.98 249.89 C 898.04 246.64 897.79 243.39 897.71 240.14 Z" />
</g>
<g id="#3fbf3fff">
<path fill="#3fbf3f" fill-opacity="0" d=" M 851.22 275.51 C 858.35 277.70 865.57 279.62 872.82 281.40 C 875.80 282.44 877.25 285.76 879.72 287.59 C 883.10 287.99 886.57 288.04 889.96 288.46 C 892.29 289.49 894.35 291.00 896.27 292.67 C 892.35 294.26 888.03 294.75 884.22 296.55 C 880.57 299.55 877.79 303.45 874.68 306.98 C 878.72 311.16 883.08 315.65 883.19 321.87 C 880.31 324.89 880.92 329.28 881.71 333.00 C 880.53 333.05 879.35 333.10 878.19 333.16 C 878.88 335.64 879.57 338.12 880.23 340.62 C 878.61 340.54 875.37 340.37 873.75 340.29 C 875.73 342.81 877.75 345.30 879.64 347.91 C 873.24 346.65 865.71 346.35 860.96 351.62 C 857.66 356.16 855.78 361.64 855.00 367.18 C 849.44 369.28 843.52 371.02 838.77 374.72 C 836.90 377.35 836.20 380.68 835.66 383.83 C 835.04 386.94 838.30 389.24 838.17 392.30 C 837.81 394.91 836.87 397.39 836.10 399.89 C 834.57 399.69 833.05 399.50 831.55 399.27 C 830.50 398.58 829.46 397.88 828.43 397.19 C 828.73 398.66 829.04 400.13 829.35 401.61 C 826.65 401.45 824.11 401.37 821.46 401.22 C 821.52 402.80 821.58 404.39 821.65 405.98 C 812.00 408.22 802.01 408.18 792.28 409.85 C 785.99 411.47 779.43 411.18 773.08 412.26 C 771.90 403.67 772.14 394.80 775.62 386.71 C 771.40 384.15 767.04 381.84 762.62 379.66 C 762.62 377.93 762.62 376.20 762.62 374.48 C 759.89 374.44 757.05 374.82 754.41 373.97 C 752.14 371.69 751.13 368.44 749.54 365.71 C 751.07 365.27 752.64 364.84 754.20 364.41 C 753.17 360.87 752.48 357.25 751.87 353.63 C 750.05 353.61 748.24 353.55 746.43 353.53 C 744.79 350.73 743.18 347.89 741.13 345.37 C 739.76 343.69 738.28 342.12 736.89 340.47 C 738.62 336.10 738.55 330.47 742.68 327.55 C 744.69 325.98 745.70 323.59 746.82 321.37 C 751.13 321.90 755.43 322.61 759.79 322.56 C 763.66 321.79 766.82 319.21 769.57 316.52 C 772.97 313.08 778.09 312.57 781.97 309.86 C 784.82 307.95 787.34 305.46 790.40 303.84 C 795.28 303.68 800.14 306.65 805.06 305.17 C 808.52 304.26 809.30 299.84 812.58 298.57 C 817.87 296.10 824.11 295.72 828.54 291.54 C 835.66 285.66 846.55 284.08 851.22 275.51 M 818.86 334.53 C 819.63 339.85 821.24 345.00 823.00 350.07 C 827.30 348.44 835.62 348.51 832.84 341.44 C 828.60 338.39 823.63 336.57 818.86 334.53 Z" />
</g>
<g id="#00bf3ffe">
<path fill="#00bf3f" fill-opacity="0" d=" M 673.99 302.68 C 677.57 304.70 681.05 306.98 685.01 308.27 C 687.16 312.86 689.20 317.52 691.27 322.15 C 697.33 323.06 702.33 326.71 707.90 328.93 C 715.06 330.28 722.50 329.73 729.64 331.38 C 732.57 333.95 734.32 337.56 736.89 340.47 C 738.28 342.12 739.76 343.69 741.13 345.37 C 739.51 346.03 737.73 346.44 736.33 347.53 C 734.48 352.63 735.74 358.27 735.12 363.55 C 732.20 362.92 729.27 362.31 726.33 361.80 C 725.54 365.54 724.74 369.33 725.00 373.17 C 719.69 374.65 714.80 377.33 709.50 378.80 C 702.97 379.31 696.06 377.21 689.72 379.57 C 684.68 381.30 679.95 383.79 674.94 385.60 C 675.17 389.07 675.60 392.55 675.85 396.02 C 673.66 396.75 671.49 397.48 669.30 398.19 C 669.27 396.03 669.24 393.88 669.20 391.73 C 666.99 392.62 664.81 393.58 662.66 394.60 C 660.95 392.50 659.26 390.40 657.58 388.30 C 653.98 388.46 650.33 388.60 646.74 388.74 C 647.62 386.53 648.56 384.35 649.53 382.18 C 647.40 381.65 645.27 381.13 643.15 380.57 C 643.69 379.10 644.24 377.64 644.78 376.18 C 643.82 375.26 642.87 374.35 641.94 373.42 C 639.42 373.96 636.88 375.21 634.26 374.70 C 631.34 372.68 630.19 369.09 628.60 366.08 C 632.62 365.27 636.77 364.88 640.84 365.64 C 641.83 364.67 642.83 363.69 643.83 362.73 C 642.68 356.33 642.23 349.85 641.98 343.37 C 640.84 337.31 636.05 332.72 634.56 326.80 C 635.24 320.94 638.56 315.21 636.47 309.22 C 641.59 309.31 643.38 314.65 647.44 316.76 C 649.11 313.94 650.78 311.13 652.40 308.28 C 654.14 308.87 655.88 309.46 657.64 310.03 C 659.58 308.29 661.30 305.20 664.36 305.87 C 668.01 306.66 670.72 303.61 673.99 302.68 Z" />
</g>
<g id="#3f7f7fff">
<path fill="#3f7f7f" fill-opacity="0" d=" M 878.19 333.16 C 879.35 333.10 880.53 333.05 881.71 333.00 C 885.89 341.18 892.21 348.17 899.52 353.68 C 903.94 356.63 897.66 360.87 899.14 364.73 C 903.38 366.28 907.96 365.27 912.31 364.87 C 914.76 368.90 918.26 372.18 920.68 376.21 C 919.83 380.84 915.06 384.27 915.62 389.19 C 915.41 395.04 920.78 397.82 924.36 401.31 C 922.34 402.68 920.29 404.02 918.29 405.42 C 919.79 409.04 921.02 414.19 925.35 415.51 C 928.97 416.49 932.69 417.05 936.34 417.89 C 936.38 416.85 936.44 415.80 936.50 414.77 C 939.12 415.73 941.69 416.81 944.17 418.09 C 943.02 419.83 941.34 421.51 941.26 423.71 C 941.44 426.53 943.84 428.35 945.83 430.02 C 945.65 430.39 945.48 430.76 945.33 431.13 C 944.19 433.52 943.53 436.08 942.77 438.61 C 933.50 440.25 924.23 436.79 914.98 438.29 C 911.70 438.61 914.14 442.39 914.29 444.45 C 915.32 443.67 916.35 442.82 917.49 442.17 C 920.25 444.36 922.75 446.88 925.41 449.21 C 925.62 447.58 925.80 445.94 926.01 444.31 C 926.63 446.04 927.17 447.81 927.56 449.62 C 924.71 449.50 921.43 448.31 918.89 450.16 C 919.03 452.45 920.23 454.46 921.57 456.26 C 919.26 457.82 916.39 460.35 913.49 458.63 C 908.50 456.27 903.66 452.35 897.78 454.28 C 890.47 449.36 886.05 441.20 886.04 432.36 C 883.15 432.79 880.27 433.22 877.41 433.69 C 876.58 430.81 875.74 427.95 874.90 425.09 C 867.27 424.07 859.70 422.69 852.21 420.93 C 849.98 416.32 848.34 411.14 844.68 407.41 C 840.50 404.38 835.66 402.39 831.55 399.27 C 833.05 399.50 834.57 399.69 836.10 399.89 C 836.87 397.39 837.81 394.91 838.17 392.30 C 838.30 389.24 835.04 386.94 835.66 383.83 C 836.20 380.68 836.90 377.35 838.77 374.72 C 843.52 371.02 849.44 369.28 855.00 367.18 C 855.78 361.64 857.66 356.16 860.96 351.62 C 865.71 346.35 873.24 346.65 879.64 347.91 C 877.75 345.30 875.73 342.81 873.75 340.29 C 875.37 340.37 878.61 340.54 880.23 340.62 C 879.57 338.12 878.88 335.64 878.19 333.16 M 862.68 380.08 C 862.12 383.33 861.63 386.58 861.15 389.85 C 862.87 390.18 864.60 390.53 866.33 390.89 C 867.85 387.93 868.62 384.64 868.31 381.30 C 866.41 380.91 864.54 380.50 862.68 380.08 Z" />
</g>
<g id="#bfbf3fff">
<path fill="#bfbf3f" fill-opacity="0" d=" M 818.86 334.53 C 823.63 336.57 828.60 338.39 832.84 341.44 C 835.62 348.51 827.30 348.44 823.00 350.07 C 821.24 345.00 819.63 339.85 818.86 334.53 Z" />
</g>
<g id="#3f3f00ff">
<path fill="#3f3f00" fill-opacity="0" d=" M 1041.80 339.79 C 1044.69 341.18 1047.54 342.65 1050.37 344.17 C 1049.21 346.97 1047.96 349.74 1046.71 352.51 C 1044.59 350.04 1041.11 347.71 1041.50 344.05 C 1041.53 342.62 1041.67 341.20 1041.80 339.79 Z" />
</g>
<g id="#3f7f00ff">
<path fill="#3f7f00" fill-opacity="0" d=" M 736.33 347.53 C 737.73 346.44 739.51 346.03 741.13 345.37 C 743.18 347.89 744.79 350.73 746.43 353.53 C 748.24 353.55 750.05 353.61 751.87 353.63 C 752.48 357.25 753.17 360.87 754.20 364.41 C 752.64 364.84 751.07 365.27 749.54 365.71 C 751.13 368.44 752.14 371.69 754.41 373.97 C 757.05 374.82 759.89 374.44 762.62 374.48 C 762.62 376.20 762.62 377.93 762.62 379.66 C 767.04 381.84 771.40 384.15 775.62 386.71 C 772.14 394.80 771.90 403.67 773.08 412.26 C 771.89 412.66 770.73 413.13 769.58 413.59 C 767.74 411.88 765.91 410.16 764.08 408.46 C 760.59 412.30 759.58 418.79 763.00 422.97 C 764.83 425.48 766.90 427.84 768.36 430.60 C 768.74 431.67 769.12 432.75 769.49 433.84 C 764.38 433.31 759.31 432.51 754.21 431.98 C 753.89 433.39 753.60 434.81 753.30 436.23 C 755.24 438.09 757.11 440.05 758.80 442.16 C 755.18 444.26 751.60 446.39 748.00 448.51 C 748.17 451.87 747.33 455.16 745.65 458.08 C 747.02 458.48 748.39 458.89 749.77 459.31 C 744.19 462.96 739.34 468.04 738.69 474.93 C 738.07 475.20 737.46 475.47 736.85 475.75 C 736.09 472.77 735.24 469.83 734.45 466.87 C 733.77 469.74 733.10 472.62 732.44 475.51 C 722.86 476.60 713.03 478.59 704.89 483.97 C 701.87 487.01 701.16 491.51 699.56 495.35 C 698.18 492.86 696.83 490.37 695.49 487.89 C 692.18 489.29 688.89 490.75 685.62 492.23 C 688.91 494.54 695.80 496.16 693.69 501.46 C 689.23 502.68 685.51 505.49 683.15 509.46 C 679.98 506.91 676.68 503.91 672.16 504.72 C 666.50 504.88 661.13 503.17 655.92 501.15 C 657.91 499.75 659.93 498.38 661.94 497.00 C 659.49 491.60 655.96 485.80 658.14 479.70 C 660.72 477.82 663.29 475.94 665.84 474.02 C 665.12 470.93 663.77 467.81 664.05 464.61 C 666.53 459.60 673.70 458.01 674.81 452.12 C 675.17 446.47 678.38 441.76 680.25 436.59 C 676.71 434.18 671.98 431.73 672.51 426.54 C 672.17 423.65 674.11 421.19 675.29 418.73 C 672.31 418.63 669.32 418.51 666.34 418.40 C 668.89 412.46 672.13 406.86 675.12 401.14 C 676.02 399.59 675.89 397.74 675.85 396.02 C 675.60 392.55 675.17 389.07 674.94 385.60 C 679.95 383.79 684.68 381.30 689.72 379.57 C 696.06 377.21 702.97 379.31 709.50 378.80 C 714.80 377.33 719.69 374.65 725.00 373.17 C 724.74 369.33 725.54 365.54 726.33 361.80 C 729.27 362.31 732.20 362.92 735.12 363.55 C 735.74 358.27 734.48 352.63 736.33 347.53 Z" />
</g>
<g id="#bfbfbffe">
<path fill="#bfbfbf" fill-opacity="0" d=" M 1061.51 383.16 C 1073.24 373.91 1084.22 363.75 1095.60 354.08 C 1095.71 355.87 1095.83 357.66 1096.03 359.45 C 1095.99 363.11 1098.77 365.77 1100.75 368.58 C 1092.82 375.40 1083.61 381.07 1077.36 389.61 C 1073.30 394.88 1066.69 397.30 1062.40 402.33 C 1060.04 405.11 1057.22 407.44 1054.13 409.37 C 1052.29 405.31 1048.15 403.55 1044.58 401.38 C 1045.39 400.12 1046.23 398.88 1047.07 397.63 C 1049.13 398.34 1051.21 399.00 1053.33 399.61 C 1052.15 397.13 1050.82 394.73 1049.47 392.36 C 1053.40 389.18 1057.54 386.29 1061.51 383.16 Z" />
</g>
<g id="#003f7fff">
<path fill="#003f7f" fill-opacity="0" d=" M 615.72 370.35 C 620.00 368.95 624.38 367.73 628.60 366.08 C 630.19 369.09 631.34 372.68 634.26 374.70 C 636.88 375.21 639.42 373.96 641.94 373.42 C 642.87 374.35 643.82 375.26 644.78 376.18 C 644.24 377.64 643.69 379.10 643.15 380.57 C 645.27 381.13 647.40 381.65 649.53 382.18 C 648.56 384.35 647.62 386.53 646.74 388.74 C 650.33 388.60 653.98 388.46 657.58 388.30 C 659.26 390.40 660.95 392.50 662.66 394.60 C 664.81 393.58 666.99 392.62 669.20 391.73 C 669.24 393.88 669.27 396.03 669.30 398.19 C 671.49 397.48 673.66 396.75 675.85 396.02 C 675.89 397.74 676.02 399.59 675.12 401.14 C 672.13 406.86 668.89 412.46 666.34 418.40 C 669.32 418.51 672.31 418.63 675.29 418.73 C 674.11 421.19 672.17 423.65 672.51 426.54 C 671.98 431.73 676.71 434.18 680.25 436.59 C 678.38 441.76 675.17 446.47 674.81 452.12 C 673.70 458.01 666.53 459.60 664.05 464.61 C 663.77 467.81 665.12 470.93 665.84 474.02 C 663.29 475.94 660.72 477.82 658.14 479.70 C 652.31 478.41 648.28 483.08 643.92 485.95 C 639.60 488.89 634.31 490.40 630.82 494.48 C 627.03 494.88 623.24 495.23 619.43 495.37 C 619.79 493.04 620.16 490.71 620.52 488.38 C 617.22 488.23 613.89 488.11 610.60 487.95 C 611.04 489.69 611.46 491.43 611.85 493.19 C 609.30 489.33 605.75 485.70 605.50 480.87 C 605.08 476.41 601.97 472.94 600.16 469.01 C 595.58 459.64 592.38 449.47 585.34 441.49 C 588.53 436.72 590.74 430.83 595.93 427.86 C 598.75 426.27 600.29 423.37 601.70 420.59 C 602.81 420.54 603.93 420.50 605.06 420.45 C 607.18 416.50 611.46 415.04 614.93 412.60 C 614.60 407.32 611.09 402.93 609.33 398.06 C 611.07 396.74 612.93 395.34 613.46 393.09 C 614.35 389.17 618.25 387.32 620.63 384.44 C 620.92 379.20 617.74 374.89 615.72 370.35 Z" />
</g>
<g id="#3fbf7fff">
<path fill="#3fbf7f" fill-opacity="0" d=" M 985.76 380.82 C 990.46 376.53 994.52 371.14 1000.55 368.61 C 1000.94 369.57 1001.36 370.56 1001.76 371.55 C 1008.07 370.97 1014.75 369.63 1020.80 372.33 C 1027.27 375.01 1034.66 376.77 1039.29 382.45 C 1046.70 381.97 1054.25 381.04 1061.51 383.16 C 1057.54 386.29 1053.40 389.18 1049.47 392.36 C 1050.82 394.73 1052.15 397.13 1053.33 399.61 C 1051.21 399.00 1049.13 398.34 1047.07 397.63 C 1046.23 398.88 1045.39 400.12 1044.58 401.38 C 1048.15 403.55 1052.29 405.31 1054.13 409.37 C 1055.38 411.48 1056.54 413.63 1057.80 415.76 C 1057.08 416.95 1056.39 418.15 1055.68 419.35 C 1051.73 418.06 1047.59 417.53 1043.61 416.35 C 1040.60 418.20 1037.23 419.37 1033.77 420.01 C 1031.58 423.77 1030.87 428.02 1032.28 432.21 C 1029.91 431.43 1027.55 430.68 1025.20 429.90 C 1025.99 431.17 1026.79 432.44 1027.55 433.75 C 1023.69 432.73 1019.79 431.65 1015.93 430.71 C 1015.10 433.02 1014.30 435.34 1013.55 437.67 C 1016.57 438.30 1019.77 439.07 1022.83 439.77 C 1024.50 440.63 1026.12 441.62 1027.73 442.61 C 1024.37 442.49 1019.60 442.35 1018.77 446.58 C 1018.65 451.93 1024.78 457.26 1020.58 462.27 C 1015.63 461.85 1010.85 463.76 1006.10 464.73 C 1004.86 464.00 1003.62 463.28 1002.41 462.56 C 1006.37 461.19 1009.91 458.89 1011.99 455.17 C 1008.18 454.70 1004.35 454.44 1000.52 454.37 C 1001.65 450.87 1003.60 447.54 1004.06 443.86 C 1002.38 441.40 999.71 439.82 997.92 437.45 C 998.39 432.85 1001.37 428.90 1001.96 424.32 C 997.50 418.03 989.52 415.27 984.93 409.03 C 980.90 404.23 986.10 398.26 987.34 393.23 C 987.83 389.02 987.16 384.80 985.76 380.82 M 1005.76 446.39 C 1007.66 447.35 1009.56 448.33 1011.46 449.32 C 1011.52 447.37 1011.42 445.41 1011.32 443.46 C 1009.44 444.39 1007.59 445.38 1005.76 446.39 Z" />
</g>
<g id="#7f3f00ff">
<path fill="#7f3f00" fill-opacity="0" d=" M 1077.36 389.61 C 1083.61 381.07 1092.82 375.40 1100.75 368.58 C 1103.10 370.14 1105.37 371.83 1107.38 373.83 C 1109.25 373.59 1111.13 373.33 1113.03 373.10 C 1111.35 378.08 1111.04 383.36 1113.10 388.29 C 1113.40 394.38 1116.98 400.47 1115.74 406.57 C 1115.46 407.28 1115.19 408.00 1114.92 408.71 C 1115.84 409.92 1116.77 411.12 1117.71 412.33 C 1116.98 413.24 1116.25 414.14 1115.55 415.06 C 1112.08 413.02 1108.78 410.67 1106.08 407.66 C 1105.39 407.79 1104.72 407.92 1104.06 408.06 C 1103.89 406.80 1103.70 405.56 1103.53 404.31 C 1101.87 403.93 1100.22 403.55 1098.59 403.18 C 1099.53 405.35 1100.52 407.51 1101.55 409.66 C 1099.27 410.49 1096.97 411.34 1094.73 412.20 C 1093.71 415.26 1092.70 419.42 1089.21 420.39 C 1083.71 420.04 1078.50 417.86 1073.10 416.90 C 1072.57 421.94 1076.94 422.85 1080.33 424.04 C 1080.47 426.35 1080.60 428.65 1080.75 430.97 C 1078.09 430.90 1075.43 430.77 1072.78 430.62 C 1071.92 434.53 1070.86 438.40 1070.26 442.36 C 1068.61 442.55 1066.96 442.73 1065.33 442.92 C 1069.97 448.42 1072.26 455.42 1072.89 462.53 C 1071.11 462.37 1069.34 462.21 1067.57 462.05 C 1067.08 460.13 1066.45 458.25 1065.79 456.39 C 1063.91 460.48 1060.93 463.90 1056.89 465.98 C 1060.67 466.69 1064.51 467.41 1068.33 468.03 C 1067.86 470.54 1067.88 474.02 1065.30 475.30 C 1058.26 476.78 1051.02 474.79 1044.01 476.51 C 1042.28 474.14 1040.42 471.71 1037.88 470.18 C 1035.50 469.21 1032.85 469.66 1030.37 469.69 C 1027.45 466.80 1024.16 464.28 1020.58 462.27 C 1024.78 457.26 1018.65 451.93 1018.77 446.58 C 1019.60 442.35 1024.37 442.49 1027.73 442.61 C 1026.12 441.62 1024.50 440.63 1022.83 439.77 C 1024.81 438.97 1026.96 438.35 1028.60 436.92 C 1028.41 435.81 1028.01 434.76 1027.55 433.75 C 1026.79 432.44 1025.99 431.17 1025.20 429.90 C 1027.55 430.68 1029.91 431.43 1032.28 432.21 C 1030.87 428.02 1031.58 423.77 1033.77 420.01 C 1037.23 419.37 1040.60 418.20 1043.61 416.35 C 1047.59 417.53 1051.73 418.06 1055.68 419.35 C 1056.39 418.15 1057.08 416.95 1057.80 415.76 C 1056.54 413.63 1055.38 411.48 1054.13 409.37 C 1057.22 407.44 1060.04 405.11 1062.40 402.33 C 1066.69 397.30 1073.30 394.88 1077.36 389.61 M 1034.47 436.73 C 1036.88 439.94 1039.81 442.70 1042.79 445.38 C 1043.99 442.29 1045.32 439.24 1046.39 436.10 C 1042.58 433.63 1038.25 435.05 1034.47 436.73 M 1049.61 460.10 C 1050.70 461.79 1052.21 463.14 1053.66 464.52 C 1054.51 462.86 1055.34 461.18 1056.15 459.50 C 1053.96 459.56 1051.76 459.69 1049.61 460.10 Z" />
</g>
<g id="#bf7f7fff">
<path fill="#bf7f7f" fill-opacity="0" d=" M 862.68 380.08 C 864.54 380.50 866.41 380.91 868.31 381.30 C 868.62 384.64 867.85 387.93 866.33 390.89 C 864.60 390.53 862.87 390.18 861.15 389.85 C 861.63 386.58 862.12 383.33 862.68 380.08 Z" />
</g>
<g id="#bf7f3fff">
<path fill="#bf7f3f" fill-opacity="0" d=" M 956.80 391.23 C 956.59 387.18 961.64 385.22 965.02 386.02 C 970.57 384.62 974.46 388.72 978.33 391.73 C 980.81 393.94 984.32 393.13 987.34 393.23 C 986.10 398.26 980.90 404.23 984.93 409.03 C 989.52 415.27 997.50 418.03 1001.96 424.32 C 1001.37 428.90 998.39 432.85 997.92 437.45 C 999.71 439.82 1002.38 441.40 1004.06 443.86 C 1003.60 447.54 1001.65 450.87 1000.52 454.37 C 1004.35 454.44 1008.18 454.70 1011.99 455.17 C 1009.91 458.89 1006.37 461.19 1002.41 462.56 C 1000.04 463.38 998.39 465.26 998.49 467.85 C 998.15 474.86 997.01 481.93 997.80 488.96 C 994.31 486.24 991.32 482.70 987.23 480.93 C 980.28 478.94 973.30 477.24 966.27 475.62 C 966.17 473.02 965.98 467.81 965.88 465.21 C 964.14 465.08 962.41 464.96 960.69 464.85 C 960.72 455.96 960.75 447.04 960.12 438.17 C 960.07 434.51 957.42 431.85 955.10 429.36 C 953.68 430.50 952.25 431.61 950.92 432.85 C 949.06 432.25 947.18 431.69 945.33 431.13 C 945.48 430.76 945.65 430.39 945.83 430.02 C 949.05 428.93 952.27 427.96 955.54 426.97 C 953.87 421.90 955.83 417.06 959.23 413.25 C 957.89 413.88 956.54 414.51 955.22 415.16 C 954.92 413.04 954.64 410.93 954.40 408.82 C 959.34 403.92 956.78 397.20 956.80 391.23 Z" />
</g>
<g id="#9f0000ff">
<path fill="#9f0000" fill-opacity="0" d=" M 828.43 397.19 C 829.46 397.88 830.50 398.58 831.55 399.27 C 835.66 402.39 840.50 404.38 844.68 407.41 C 848.34 411.14 849.98 416.32 852.21 420.93 C 859.70 422.69 867.27 424.07 874.90 425.09 C 875.74 427.95 876.58 430.81 877.41 433.69 C 880.27 433.22 883.15 432.79 886.04 432.36 C 886.05 441.20 890.47 449.36 897.78 454.28 C 897.23 455.15 896.69 456.03 896.16 456.91 C 898.70 459.11 901.24 461.32 903.68 463.64 C 901.48 468.54 900.25 473.78 899.95 479.13 C 897.57 485.32 891.55 489.04 888.09 494.55 C 883.83 494.31 879.33 494.77 875.48 492.62 C 870.77 490.41 867.67 486.08 864.44 482.22 C 862.11 482.52 859.80 482.86 857.49 483.20 C 854.79 480.92 851.87 478.45 848.14 478.43 C 841.23 478.41 834.81 475.56 827.99 475.02 C 825.30 474.86 823.55 477.17 821.88 478.88 C 818.88 482.24 815.63 485.36 812.55 488.64 C 809.78 488.01 807.06 487.28 804.33 486.51 C 803.27 487.81 802.20 489.10 801.15 490.40 C 799.13 490.66 797.12 490.94 795.11 491.21 C 794.45 489.68 793.81 488.15 793.18 486.61 C 791.23 486.67 789.27 486.72 787.34 486.77 C 787.56 484.69 787.51 482.50 788.39 480.56 C 790.59 478.44 793.39 477.09 795.96 475.47 C 794.87 473.96 793.79 472.46 792.72 470.96 C 795.98 470.06 799.25 469.20 802.54 468.40 C 799.37 462.11 796.29 455.17 789.80 451.66 C 789.59 450.50 789.38 449.33 789.19 448.19 C 791.73 448.36 794.28 448.54 796.83 448.70 C 796.76 446.12 796.89 443.47 796.15 440.97 C 794.83 438.20 792.49 436.08 790.46 433.85 C 789.33 436.23 788.40 438.70 787.76 441.26 C 786.97 439.55 786.82 436.98 784.79 436.26 C 781.97 435.24 778.95 435.09 776.03 434.57 C 775.50 437.52 774.44 440.33 772.84 442.86 C 771.46 438.73 770.52 434.42 768.36 430.60 C 766.90 427.84 764.83 425.48 763.00 422.97 C 759.58 418.79 760.59 412.30 764.08 408.46 C 765.91 410.16 767.74 411.88 769.58 413.59 C 770.73 413.13 771.89 412.66 773.08 412.26 C 779.43 411.18 785.99 411.47 792.28 409.85 C 802.01 408.18 812.00 408.22 821.65 405.98 C 821.58 404.39 821.52 402.80 821.46 401.22 C 824.11 401.37 826.65 401.45 829.35 401.61 C 829.04 400.13 828.73 398.66 828.43 397.19 M 845.42 460.62 C 847.28 461.39 849.23 461.89 851.18 462.44 C 851.31 459.46 851.31 456.48 851.13 453.51 C 848.59 455.11 844.58 456.93 845.42 460.62 Z" />
</g>
<g id="#5f007fff">
<path fill="#5f007f" fill-opacity="0" d=" M 1098.59 403.18 C 1100.22 403.55 1101.87 403.93 1103.53 404.31 C 1103.70 405.56 1103.89 406.80 1104.06 408.06 C 1104.55 411.72 1101.58 414.37 1099.86 417.25 C 1103.51 418.39 1106.49 422.04 1103.79 425.68 C 1099.40 428.22 1094.21 429.27 1089.92 432.12 C 1086.93 434.33 1083.57 432.40 1080.75 430.97 C 1080.60 428.65 1080.47 426.35 1080.33 424.04 C 1076.94 422.85 1072.57 421.94 1073.10 416.90 C 1078.50 417.86 1083.71 420.04 1089.21 420.39 C 1092.70 419.42 1093.71 415.26 1094.73 412.20 C 1096.97 411.34 1099.27 410.49 1101.55 409.66 C 1100.52 407.51 1099.53 405.35 1098.59 403.18 Z" />
</g>
<g id="#3f7f3ffe">
<path fill="#3f7f3f" fill-opacity="0" d=" M 1104.06 408.06 C 1104.72 407.92 1105.39 407.79 1106.08 407.66 C 1108.78 410.67 1112.08 413.02 1115.55 415.06 C 1116.25 414.14 1116.98 413.24 1117.71 412.33 C 1116.77 411.12 1115.84 409.92 1114.92 408.71 C 1115.19 408.00 1115.46 407.28 1115.74 406.57 C 1118.01 409.17 1120.64 411.44 1122.96 414.00 C 1126.22 420.04 1129.77 426.66 1127.30 433.77 C 1128.90 433.91 1130.51 434.06 1132.15 434.21 C 1132.25 437.03 1132.19 439.80 1132.33 442.65 C 1134.36 443.79 1136.40 444.94 1138.42 446.12 C 1135.54 451.00 1133.27 456.57 1133.93 462.34 C 1134.49 466.70 1133.95 471.36 1130.69 474.67 C 1127.06 477.33 1122.60 478.45 1118.49 480.13 C 1118.33 483.22 1118.06 486.26 1118.00 489.37 C 1115.97 484.02 1112.75 478.69 1107.59 475.89 C 1099.17 474.27 1092.60 484.65 1095.11 492.21 C 1100.65 492.81 1106.20 495.26 1111.79 493.62 C 1114.08 496.47 1116.51 499.21 1118.98 501.92 C 1116.67 504.17 1114.47 506.57 1111.71 508.29 C 1111.57 511.51 1111.43 514.73 1111.34 517.99 C 1107.45 515.52 1103.61 512.66 1099.23 511.22 C 1092.55 511.42 1086.84 517.64 1079.93 515.73 C 1076.13 514.71 1072.19 514.55 1068.29 514.58 C 1065.62 512.23 1062.78 510.08 1059.65 508.42 C 1055.52 505.34 1051.62 501.99 1048.37 497.99 C 1051.46 497.83 1054.56 498.05 1057.66 498.28 C 1056.09 496.77 1054.56 495.23 1052.96 493.78 C 1050.42 491.46 1047.10 490.22 1043.93 489.09 C 1044.95 484.98 1045.23 480.62 1044.01 476.51 C 1051.02 474.79 1058.26 476.78 1065.30 475.30 C 1067.88 474.02 1067.86 470.54 1068.33 468.03 C 1068.15 466.02 1067.96 464.02 1067.57 462.05 C 1069.34 462.21 1071.11 462.37 1072.89 462.53 C 1072.26 455.42 1069.97 448.42 1065.33 442.92 C 1066.96 442.73 1068.61 442.55 1070.26 442.36 C 1070.86 438.40 1071.92 434.53 1072.78 430.62 C 1075.43 430.77 1078.09 430.90 1080.75 430.97 C 1083.57 432.40 1086.93 434.33 1089.92 432.12 C 1094.21 429.27 1099.40 428.22 1103.79 425.68 C 1106.49 422.04 1103.51 418.39 1099.86 417.25 C 1101.58 414.37 1104.55 411.72 1104.06 408.06 Z" />
</g>
<g id="#7fbf3ffe">
<path fill="#7fbf3f" fill-opacity="0" d=" M 944.17 418.09 C 947.94 415.44 951.43 412.35 954.40 408.82 C 954.64 410.93 954.92 413.04 955.22 415.16 C 956.54 414.51 957.89 413.88 959.23 413.25 C 955.83 417.06 953.87 421.90 955.54 426.97 C 952.27 427.96 949.05 428.93 945.83 430.02 C 943.84 428.35 941.44 426.53 941.26 423.71 C 941.34 421.51 943.02 419.83 944.17 418.09 Z" />
</g>
<g id="#5f7f00ff">
<path fill="#5f7f00" fill-opacity="0" d=" M 950.92 432.85 C 952.25 431.61 953.68 430.50 955.10 429.36 C 957.42 431.85 960.07 434.51 960.12 438.17 C 960.75 447.04 960.72 455.96 960.69 464.85 C 960.58 468.84 960.15 472.80 959.93 476.81 C 958.64 477.55 957.36 478.29 956.08 479.02 C 958.95 465.70 951.21 453.20 952.36 439.89 C 950.56 439.27 948.77 438.65 946.98 438.06 C 948.26 436.29 949.54 434.53 950.92 432.85 Z" />
</g>
<g id="#3fbf00ff">
<path fill="#3fbf00" fill-opacity="0" d=" M 768.36 430.60 C 770.52 434.42 771.46 438.73 772.84 442.86 C 774.44 440.33 775.50 437.52 776.03 434.57 C 778.95 435.09 781.97 435.24 784.79 436.26 C 786.82 436.98 786.97 439.55 787.76 441.26 C 788.25 443.56 788.77 445.86 789.19 448.19 C 789.38 449.33 789.59 450.50 789.80 451.66 C 796.29 455.17 799.37 462.11 802.54 468.40 C 799.25 469.20 795.98 470.06 792.72 470.96 C 793.79 472.46 794.87 473.96 795.96 475.47 C 793.39 477.09 790.59 478.44 788.39 480.56 C 787.51 482.50 787.56 484.69 787.34 486.77 C 789.27 486.72 791.23 486.67 793.18 486.61 C 793.81 488.15 794.45 489.68 795.11 491.21 C 797.12 490.94 799.13 490.66 801.15 490.40 C 806.14 495.21 802.43 501.75 802.87 507.62 C 804.20 511.80 807.51 515.05 809.84 518.74 C 808.09 521.90 805.69 525.18 806.14 529.00 C 806.70 531.47 808.78 533.18 810.32 535.09 C 804.36 537.77 799.68 542.49 794.11 545.73 C 788.97 548.48 779.33 547.55 777.72 554.68 C 775.95 561.49 784.56 563.94 787.40 568.74 C 787.12 573.45 788.72 577.93 791.50 581.71 C 788.87 582.63 786.25 583.58 783.65 584.55 C 783.29 587.44 783.09 590.44 782.78 593.36 C 777.06 593.29 771.41 594.34 766.06 596.34 C 765.30 595.02 764.55 593.70 763.80 592.39 C 761.10 593.92 758.44 595.52 755.70 596.97 C 752.99 593.59 749.23 591.27 744.81 591.21 C 741.14 591.33 738.59 588.87 737.55 585.50 C 736.84 578.65 744.16 576.47 748.93 573.77 C 748.47 571.83 748.02 569.90 747.56 567.97 C 751.17 567.28 754.83 566.68 758.38 565.64 C 755.07 559.18 751.55 552.84 747.96 546.55 C 743.04 546.52 739.26 543.36 736.62 539.46 C 735.52 540.20 734.42 540.95 733.33 541.71 C 731.96 537.76 730.72 533.66 727.58 530.70 C 726.17 526.88 724.29 523.26 722.78 519.48 C 721.26 519.56 719.74 519.65 718.23 519.74 C 719.19 518.10 720.15 516.46 721.12 514.82 C 717.91 512.43 714.97 509.08 710.87 508.37 C 706.40 508.64 702.50 511.29 698.08 511.82 C 694.24 509.94 694.35 505.02 693.69 501.46 C 695.80 496.16 688.91 494.54 685.62 492.23 C 688.89 490.75 692.18 489.29 695.49 487.89 C 696.83 490.37 698.18 492.86 699.56 495.35 C 701.16 491.51 701.87 487.01 704.89 483.97 C 713.03 478.59 722.86 476.60 732.44 475.51 C 733.10 472.62 733.77 469.74 734.45 466.87 C 735.24 469.83 736.09 472.77 736.85 475.75 C 737.46 475.47 738.07 475.20 738.69 474.93 C 739.34 468.04 744.19 462.96 749.77 459.31 C 748.39 458.89 747.02 458.48 745.65 458.08 C 747.33 455.16 748.17 451.87 748.00 448.51 C 751.60 446.39 755.18 444.26 758.80 442.16 C 757.11 440.05 755.24 438.09 753.30 436.23 C 753.60 434.81 753.89 433.39 754.21 431.98 C 759.31 432.51 764.38 433.31 769.49 433.84 C 769.12 432.75 768.74 431.67 768.36 430.60 Z" />
</g>
<g id="#bf3fbfff">
<path fill="#bf3fbf" fill-opacity="0" d=" M 945.33 431.13 C 947.18 431.69 949.06 432.25 950.92 432.85 C 949.54 434.53 948.26 436.29 946.98 438.06 C 948.77 438.65 950.56 439.27 952.36 439.89 C 951.21 453.20 958.95 465.70 956.08 479.02 C 952.74 483.59 946.19 483.96 940.92 484.29 C 940.17 477.72 943.12 469.31 938.38 463.66 C 934.98 459.70 929.12 462.99 925.50 459.56 C 924.11 458.54 922.82 457.42 921.57 456.26 C 920.23 454.46 919.03 452.45 918.89 450.16 C 921.43 448.31 924.71 449.50 927.56 449.62 C 927.17 447.81 926.63 446.04 926.01 444.31 C 925.80 445.94 925.62 447.58 925.41 449.21 C 922.75 446.88 920.25 444.36 917.49 442.17 C 916.35 442.82 915.32 443.67 914.29 444.45 C 914.14 442.39 911.70 438.61 914.98 438.29 C 924.23 436.79 933.50 440.25 942.77 438.61 C 943.53 436.08 944.19 433.52 945.33 431.13 Z" />
</g>
<g id="#1f0000ff">
<path fill="#1f0000" fill-opacity="0" d=" M 1015.93 430.71 C 1019.79 431.65 1023.69 432.73 1027.55 433.75 C 1028.01 434.76 1028.41 435.81 1028.60 436.92 C 1026.96 438.35 1024.81 438.97 1022.83 439.77 C 1019.77 439.07 1016.57 438.30 1013.55 437.67 C 1014.30 435.34 1015.10 433.02 1015.93 430.71 Z" />
</g>
<g id="#0000bfff">
<path fill="#0000bf" fill-opacity="0" d=" M 1132.15 434.21 C 1135.71 433.58 1139.22 432.40 1142.88 432.34 C 1151.40 435.36 1157.91 442.05 1163.90 448.57 C 1166.48 451.43 1168.95 454.69 1169.40 458.64 C 1164.79 453.91 1158.55 451.99 1152.36 450.34 C 1152.19 455.97 1152.04 461.63 1151.72 467.27 C 1154.76 467.39 1157.80 467.26 1160.85 467.28 C 1158.36 470.19 1155.67 472.91 1152.83 475.48 C 1155.56 479.81 1159.21 483.45 1162.19 487.59 C 1164.33 491.99 1160.68 496.24 1158.93 500.10 C 1161.05 501.39 1163.18 502.66 1165.32 503.92 C 1164.23 506.61 1163.20 509.33 1161.93 511.94 C 1164.47 514.68 1167.85 517.10 1168.92 520.85 C 1167.51 523.62 1165.24 525.81 1163.31 528.22 C 1161.25 530.44 1159.30 533.56 1155.89 533.52 C 1149.13 533.94 1142.33 533.92 1135.58 533.47 C 1132.67 533.25 1129.76 533.28 1126.86 533.41 C 1125.40 530.22 1125.61 525.23 1121.89 523.50 C 1118.34 521.73 1114.56 520.36 1111.34 517.99 C 1111.43 514.73 1111.57 511.51 1111.71 508.29 C 1114.47 506.57 1116.67 504.17 1118.98 501.92 C 1116.51 499.21 1114.08 496.47 1111.79 493.62 C 1113.88 493.04 1115.95 492.39 1118.03 491.75 C 1118.02 491.16 1118.00 489.97 1118.00 489.37 C 1118.06 486.26 1118.33 483.22 1118.49 480.13 C 1122.60 478.45 1127.06 477.33 1130.69 474.67 C 1133.95 471.36 1134.49 466.70 1133.93 462.34 C 1133.27 456.57 1135.54 451.00 1138.42 446.12 C 1136.40 444.94 1134.36 443.79 1132.33 442.65 C 1132.19 439.80 1132.25 437.03 1132.15 434.21 Z" />
</g>
<g id="#9e7e00ff">
<path fill="#9e7e00" fill-opacity="0" d=" M 1034.47 436.73 C 1038.25 435.05 1042.58 433.63 1046.39 436.10 C 1045.32 439.24 1043.99 442.29 1042.79 445.38 C 1039.81 442.70 1036.88 439.94 1034.47 436.73 Z" />
</g>
<g id="#bf0000ff">
<path fill="#bf0000" fill-opacity="0" d=" M 787.76 441.26 C 788.40 438.70 789.33 436.23 790.46 433.85 C 792.49 436.08 794.83 438.20 796.15 440.97 C 796.89 443.47 796.76 446.12 796.83 448.70 C 794.28 448.54 791.73 448.36 789.19 448.19 C 788.77 445.86 788.25 443.56 787.76 441.26 Z" />
</g>
<g id="#7f7fbffe">
<path fill="#7f7fbf" fill-opacity="0" d=" M 1185.00 445.63 C 1188.34 444.11 1191.74 442.70 1195.24 441.57 C 1195.88 451.58 1200.78 461.05 1208.01 467.89 C 1214.54 469.88 1221.59 470.06 1228.44 470.35 C 1233.73 471.15 1238.16 467.90 1242.30 465.18 C 1240.85 468.03 1239.44 470.90 1237.98 473.75 C 1240.77 478.93 1242.40 484.59 1244.09 490.20 C 1250.53 487.76 1257.44 486.60 1264.29 488.09 C 1265.33 490.68 1266.55 493.25 1268.31 495.45 C 1270.40 498.21 1272.30 501.10 1273.84 504.22 C 1271.31 515.37 1257.86 524.49 1262.11 536.91 C 1258.35 541.38 1252.82 542.57 1247.31 543.06 C 1248.58 546.65 1249.86 550.25 1251.05 553.88 C 1241.92 555.29 1232.71 556.08 1223.48 555.67 C 1221.37 558.01 1221.24 565.55 1216.53 564.38 C 1211.38 564.00 1206.19 561.54 1201.01 562.76 C 1197.00 566.52 1196.77 572.80 1198.33 577.81 C 1195.42 577.63 1192.52 577.50 1189.61 577.44 C 1189.56 581.29 1190.39 585.43 1188.83 589.07 C 1186.10 591.96 1181.55 592.14 1178.10 593.53 C 1174.84 588.28 1168.22 589.29 1163.38 586.73 C 1161.65 582.89 1162.28 578.43 1160.61 574.58 C 1156.35 574.00 1151.92 574.05 1148.01 571.97 C 1150.19 568.26 1151.74 564.21 1152.30 559.93 C 1147.55 560.78 1142.86 561.97 1138.28 563.48 C 1137.17 557.96 1136.34 552.18 1133.33 547.30 C 1135.11 547.36 1136.88 547.45 1138.69 547.54 C 1135.79 543.59 1131.95 540.51 1128.42 537.17 C 1130.80 535.94 1133.15 534.64 1135.58 533.47 C 1142.33 533.92 1149.13 533.94 1155.89 533.52 C 1159.30 533.56 1161.25 530.44 1163.31 528.22 C 1165.24 525.81 1167.51 523.62 1168.92 520.85 C 1167.85 517.10 1164.47 514.68 1161.93 511.94 C 1163.20 509.33 1164.23 506.61 1165.32 503.92 C 1163.18 502.66 1161.05 501.39 1158.93 500.10 C 1160.68 496.24 1164.33 491.99 1162.19 487.59 C 1159.21 483.45 1155.56 479.81 1152.83 475.48 C 1155.67 472.91 1158.36 470.19 1160.85 467.28 C 1162.92 467.31 1164.65 467.12 1166.84 467.12 C 1167.52 464.24 1168.75 461.53 1169.40 458.64 C 1168.95 454.69 1166.48 451.43 1163.90 448.57 C 1170.77 446.69 1177.72 443.24 1185.00 445.63 M 1186.26 471.14 C 1183.08 475.66 1178.43 480.21 1179.32 486.24 C 1181.45 484.95 1183.57 483.63 1185.67 482.29 C 1186.47 483.82 1187.28 485.35 1188.12 486.88 C 1191.78 485.37 1195.47 483.93 1199.17 482.49 C 1198.33 482.25 1196.64 481.78 1195.80 481.55 C 1197.17 478.21 1198.60 474.90 1200.09 471.62 C 1196.15 467.65 1190.51 467.70 1186.26 471.14 Z" />
</g>
<g id="#bfbf7fff">
<path fill="#bfbf7f" fill-opacity="0" d=" M 1005.76 446.39 C 1007.59 445.38 1009.44 444.39 1011.32 443.46 C 1011.42 445.41 1011.52 447.37 1011.46 449.32 C 1009.56 448.33 1007.66 447.35 1005.76 446.39 Z" />
</g>
<g id="#9f007ffe">
<path fill="#9f007f" fill-opacity="0" d=" M 1152.36 450.34 C 1158.55 451.99 1164.79 453.91 1169.40 458.64 C 1168.75 461.53 1167.52 464.24 1166.84 467.12 C 1164.65 467.12 1162.92 467.31 1160.85 467.28 C 1157.80 467.26 1154.76 467.39 1151.72 467.27 C 1152.04 461.63 1152.19 455.97 1152.36 450.34 Z" />
</g>
<g id="#7f3fbfff">
<path fill="#7f3fbf" fill-opacity="0" d=" M 897.78 454.28 C 903.66 452.35 908.50 456.27 913.49 458.63 C 916.39 460.35 919.26 457.82 921.57 456.26 C 922.82 457.42 924.11 458.54 925.50 459.56 C 929.12 462.99 934.98 459.70 938.38 463.66 C 943.12 469.31 940.17 477.72 940.92 484.29 C 939.89 490.48 940.13 497.55 936.75 502.89 C 936.49 503.12 935.98 503.57 935.72 503.80 C 935.17 498.65 934.66 493.51 934.18 488.36 C 930.40 491.81 925.41 492.84 920.47 493.14 C 920.33 494.87 920.19 496.60 920.04 498.33 C 914.97 495.88 910.06 497.52 906.09 500.82 C 901.96 500.61 897.79 501.29 893.71 500.65 C 891.17 499.39 889.81 496.66 888.09 494.55 C 891.55 489.04 897.57 485.32 899.95 479.13 C 900.25 473.78 901.48 468.54 903.68 463.64 C 901.24 461.32 898.70 459.11 896.16 456.91 C 896.69 456.03 897.23 455.15 897.78 454.28 M 909.25 468.60 C 911.12 472.56 913.75 476.18 917.22 478.90 C 917.68 475.50 917.48 472.06 917.11 468.67 C 914.49 468.44 911.86 468.51 909.25 468.60 Z" />
</g>
<g id="#1f7f00ff">
<path fill="#1f7f00" fill-opacity="0" d=" M 845.42 460.62 C 844.58 456.93 848.59 455.11 851.13 453.51 C 851.31 456.48 851.31 459.46 851.18 462.44 C 849.23 461.89 847.28 461.39 845.42 460.62 Z" />
</g>
<g id="#7f7f3ffe">
<path fill="#7f7f3f" fill-opacity="0" d=" M 1056.89 465.98 C 1060.93 463.90 1063.91 460.48 1065.79 456.39 C 1066.45 458.25 1067.08 460.13 1067.57 462.05 C 1067.96 464.02 1068.15 466.02 1068.33 468.03 C 1064.51 467.41 1060.67 466.69 1056.89 465.98 Z" />
</g>
<g id="#bf003fff">
<path fill="#bf003f" fill-opacity="0" d=" M 1049.61 460.10 C 1051.76 459.69 1053.96 459.56 1056.15 459.50 C 1055.34 461.18 1054.51 462.86 1053.66 464.52 C 1052.21 463.14 1050.70 461.79 1049.61 460.10 Z" />
<path fill="#bf003f" fill-opacity="0" d=" M 902.44 511.76 C 904.35 512.17 906.27 512.61 908.19 513.06 C 906.95 514.95 905.68 516.80 904.39 518.64 C 903.03 516.58 902.38 514.22 902.44 511.76 Z" />
</g>
<g id="#5f7f7ffe">
<path fill="#5f7f7f" fill-opacity="0" d=" M 1006.10 464.73 C 1010.85 463.76 1015.63 461.85 1020.58 462.27 C 1024.16 464.28 1027.45 466.80 1030.37 469.69 C 1032.85 469.66 1035.50 469.21 1037.88 470.18 C 1040.42 471.71 1042.28 474.14 1044.01 476.51 C 1045.23 480.62 1044.95 484.98 1043.93 489.09 C 1047.10 490.22 1050.42 491.46 1052.96 493.78 C 1044.63 495.40 1034.58 497.86 1027.44 491.76 C 1025.04 495.58 1025.63 500.87 1029.71 503.26 C 1032.42 503.26 1037.24 507.27 1039.42 503.71 C 1041.57 500.64 1044.21 497.53 1048.37 497.99 C 1051.62 501.99 1055.52 505.34 1059.65 508.42 C 1054.25 506.77 1049.08 508.45 1044.53 511.19 C 1039.13 507.92 1032.26 508.56 1027.27 504.43 C 1022.39 507.15 1017.41 509.71 1012.17 511.67 C 1012.72 506.30 1014.83 501.25 1016.14 496.05 C 1016.86 492.30 1013.41 489.57 1011.45 486.87 C 1010.11 490.62 1008.83 494.44 1008.28 498.41 C 1004.71 495.35 1000.50 492.85 997.80 488.96 C 997.01 481.93 998.15 474.86 998.49 467.85 C 998.39 465.26 1000.04 463.38 1002.41 462.56 C 1003.62 463.28 1004.86 464.00 1006.10 464.73 Z" />
</g>
<g id="#00bfbfff">
<path fill="#00bfbf" fill-opacity="0" d=" M 909.25 468.60 C 911.86 468.51 914.49 468.44 917.11 468.67 C 917.48 472.06 917.68 475.50 917.22 478.90 C 913.75 476.18 911.12 472.56 909.25 468.60 Z" />
</g>
<g id="#3f003fff">
<path fill="#3f003f" fill-opacity="0" d=" M 1186.26 471.14 C 1190.51 467.70 1196.15 467.65 1200.09 471.62 C 1198.60 474.90 1197.17 478.21 1195.80 481.55 C 1196.64 481.78 1198.33 482.25 1199.17 482.49 C 1195.47 483.93 1191.78 485.37 1188.12 486.88 C 1187.28 485.35 1186.47 483.82 1185.67 482.29 C 1183.57 483.63 1181.45 484.95 1179.32 486.24 C 1178.43 480.21 1183.08 475.66 1186.26 471.14 Z" />
</g>
<g id="#00bf00ff">
<path fill="#00bf00" fill-opacity="0" d=" M 1308.49 468.39 C 1311.34 468.62 1314.21 469.79 1316.52 471.50 C 1321.11 470.81 1325.79 470.53 1330.44 470.90 C 1332.21 477.28 1335.74 483.26 1335.56 490.07 C 1336.47 492.69 1335.23 496.60 1336.95 499.10 C 1344.61 505.74 1352.07 512.90 1361.39 517.22 C 1360.58 518.79 1359.65 520.32 1359.19 522.04 C 1360.46 526.39 1364.04 529.96 1363.73 534.80 C 1362.41 537.96 1360.22 540.73 1359.25 544.03 C 1359.02 547.78 1360.11 551.51 1360.69 555.21 C 1366.22 554.94 1371.86 554.77 1377.42 554.39 C 1379.36 558.24 1382.01 561.77 1382.99 566.07 C 1383.00 572.80 1375.04 577.82 1378.26 584.77 C 1383.04 591.67 1385.49 599.73 1389.39 607.07 C 1387.03 609.83 1384.05 612.28 1382.90 615.84 C 1381.32 619.76 1381.12 624.65 1377.02 627.03 C 1365.21 638.17 1351.28 646.59 1338.10 655.93 C 1332.91 657.62 1326.97 655.35 1321.96 657.94 C 1316.79 659.24 1316.05 664.90 1314.33 669.13 C 1316.14 669.71 1317.94 670.46 1319.86 670.73 C 1322.97 669.17 1325.68 666.83 1328.61 664.90 C 1330.88 667.14 1333.28 669.26 1335.94 671.06 C 1335.70 677.12 1333.43 682.80 1331.98 688.63 C 1330.55 692.38 1330.83 697.50 1326.83 699.84 C 1321.70 703.84 1316.92 710.23 1309.83 709.97 C 1303.69 710.45 1297.75 713.62 1291.55 711.78 C 1293.90 709.90 1295.92 707.61 1297.36 704.95 C 1299.08 698.66 1299.93 691.90 1303.52 686.31 C 1305.74 683.96 1308.85 682.63 1311.53 680.84 C 1311.25 676.33 1310.13 671.45 1312.25 667.23 C 1313.43 664.59 1314.98 662.13 1316.48 659.65 C 1308.69 653.25 1304.37 643.94 1300.50 634.88 C 1295.30 635.52 1290.18 636.63 1284.96 637.11 C 1284.28 635.30 1283.61 633.50 1282.99 631.68 C 1279.09 631.38 1275.22 631.10 1271.38 630.85 C 1272.02 624.26 1272.06 617.71 1271.01 611.16 C 1276.59 605.90 1282.36 599.31 1281.86 591.07 C 1285.04 588.41 1288.15 585.66 1291.36 583.02 C 1294.60 580.66 1291.67 576.26 1289.99 573.98 C 1287.52 571.21 1286.68 567.61 1286.57 564.04 C 1276.18 564.64 1265.66 564.90 1255.35 563.55 C 1252.26 561.39 1252.37 557.10 1251.05 553.88 C 1249.86 550.25 1248.58 546.65 1247.31 543.06 C 1252.82 542.57 1258.35 541.38 1262.11 536.91 C 1257.86 524.49 1271.31 515.37 1273.84 504.22 C 1272.30 501.10 1270.40 498.21 1268.31 495.45 C 1271.23 490.27 1274.16 484.22 1280.24 482.20 C 1285.65 479.80 1291.74 481.89 1297.36 481.30 C 1301.90 477.91 1304.92 472.75 1308.49 468.39 M 1324.12 512.01 C 1321.21 515.99 1317.03 519.41 1316.20 524.53 C 1320.18 523.79 1324.20 523.42 1328.25 523.13 C 1331.04 521.43 1333.88 519.98 1336.78 518.42 C 1338.16 516.33 1338.37 512.76 1335.83 511.44 C 1332.47 508.80 1326.88 508.17 1324.12 512.01 M 1268.16 543.43 C 1267.71 544.99 1267.28 546.56 1266.89 548.14 C 1269.25 548.51 1271.60 548.84 1273.98 549.16 C 1273.84 547.08 1273.72 545.00 1273.63 542.93 C 1271.80 543.11 1269.98 543.30 1268.16 543.43 Z" />
</g>
<g id="#007f00ff">
<path fill="#007f00" fill-opacity="0" d=" M 821.88 478.88 C 823.55 477.17 825.30 474.86 827.99 475.02 C 834.81 475.56 841.23 478.41 848.14 478.43 C 851.87 478.45 854.79 480.92 857.49 483.20 C 859.80 482.86 862.11 482.52 864.44 482.22 C 867.67 486.08 870.77 490.41 875.48 492.62 C 879.33 494.77 883.83 494.31 888.09 494.55 C 889.81 496.66 891.17 499.39 893.71 500.65 C 897.79 501.29 901.96 500.61 906.09 500.82 C 910.06 497.52 914.97 495.88 920.04 498.33 C 920.19 496.60 920.33 494.87 920.47 493.14 C 925.41 492.84 930.40 491.81 934.18 488.36 C 934.66 493.51 935.17 498.65 935.72 503.80 C 935.83 504.30 936.05 505.28 936.16 505.77 C 938.11 511.21 941.14 516.26 941.78 522.12 C 942.36 528.57 942.21 535.11 941.54 541.57 C 932.97 540.27 925.19 544.70 916.89 545.85 C 916.21 547.55 915.56 549.26 914.87 550.95 C 912.73 551.46 910.63 551.98 908.55 552.52 C 906.03 557.79 899.94 556.44 895.13 556.99 C 894.62 551.37 891.77 546.39 888.99 541.63 C 887.83 539.55 886.76 537.42 885.71 535.30 C 881.44 536.40 878.24 539.41 875.78 542.88 C 877.08 543.29 878.40 543.69 879.72 544.10 C 874.92 548.54 868.18 543.92 862.68 546.51 C 857.70 548.94 852.89 551.76 847.40 552.98 C 845.35 563.00 834.11 564.55 826.01 567.18 C 819.88 568.23 814.02 565.15 808.22 563.62 C 807.76 566.40 807.18 569.12 806.74 571.94 C 803.15 568.42 800.04 564.02 795.27 562.04 C 792.50 564.10 789.98 566.46 787.40 568.74 C 784.56 563.94 775.95 561.49 777.72 554.68 C 779.33 547.55 788.97 548.48 794.11 545.73 C 799.68 542.49 804.36 537.77 810.32 535.09 C 808.78 533.18 806.70 531.47 806.14 529.00 C 805.69 525.18 808.09 521.90 809.84 518.74 C 807.51 515.05 804.20 511.80 802.87 507.62 C 802.43 501.75 806.14 495.21 801.15 490.40 C 802.20 489.10 803.27 487.81 804.33 486.51 C 807.06 487.28 809.78 488.01 812.55 488.64 C 815.63 485.36 818.88 482.24 821.88 478.88 M 902.44 511.76 C 902.38 514.22 903.03 516.58 904.39 518.64 C 905.68 516.80 906.95 514.95 908.19 513.06 C 906.27 512.61 904.35 512.17 902.44 511.76 Z" />
</g>
<g id="#1f007fff">
<path fill="#1f007f" fill-opacity="0" d=" M 1095.11 492.21 C 1092.60 484.65 1099.17 474.27 1107.59 475.89 C 1112.75 478.69 1115.97 484.02 1118.00 489.37 C 1118.00 489.97 1118.02 491.16 1118.03 491.75 C 1115.95 492.39 1113.88 493.04 1111.79 493.62 C 1106.20 495.26 1100.65 492.81 1095.11 492.21 Z" />
</g>
<g id="#3f00bfff">
<path fill="#3f00bf" fill-opacity="0" d=" M 643.92 485.95 C 648.28 483.08 652.31 478.41 658.14 479.70 C 655.96 485.80 659.49 491.60 661.94 497.00 C 659.93 498.38 657.91 499.75 655.92 501.15 C 661.13 503.17 666.50 504.88 672.16 504.72 C 676.68 503.91 679.98 506.91 683.15 509.46 C 685.51 505.49 689.23 502.68 693.69 501.46 C 694.35 505.02 694.24 509.94 698.08 511.82 C 702.50 511.29 706.40 508.64 710.87 508.37 C 714.97 509.08 717.91 512.43 721.12 514.82 C 720.15 516.46 719.19 518.10 718.23 519.74 C 719.74 519.65 721.26 519.56 722.78 519.48 C 724.29 523.26 726.17 526.88 727.58 530.70 C 730.72 533.66 731.96 537.76 733.33 541.71 C 734.42 540.95 735.52 540.20 736.62 539.46 C 739.26 543.36 743.04 546.52 747.96 546.55 C 751.55 552.84 755.07 559.18 758.38 565.64 C 754.83 566.68 751.17 567.28 747.56 567.97 C 748.02 569.90 748.47 571.83 748.93 573.77 C 744.16 576.47 736.84 578.65 737.55 585.50 C 728.11 587.78 720.73 594.52 717.10 603.47 C 719.35 603.37 721.60 603.26 723.87 603.16 C 723.15 606.86 722.48 610.55 721.91 614.30 C 717.95 615.66 713.62 618.94 709.33 616.75 C 704.72 614.61 697.51 615.07 695.63 620.61 C 694.27 624.95 691.23 629.89 693.38 634.55 C 696.36 641.56 701.63 647.27 705.89 653.51 L 706.71 654.71 C 703.90 654.70 700.51 656.84 698.05 654.97 C 693.14 651.14 689.76 645.82 685.87 641.05 C 678.86 643.19 671.37 643.61 664.19 642.05 C 661.37 645.83 658.56 649.62 655.68 653.36 C 653.90 652.45 652.14 651.45 650.21 650.93 C 648.31 652.95 646.99 655.41 645.51 657.74 C 638.18 657.54 629.67 657.38 624.01 652.00 C 616.66 645.34 609.76 638.20 602.81 631.15 C 600.07 628.77 600.06 625.22 600.37 621.96 C 598.98 619.63 596.01 617.37 597.33 614.36 C 599.41 607.03 600.10 599.27 603.47 592.34 C 606.15 586.99 603.53 580.95 602.26 575.54 C 605.57 571.52 605.92 566.13 607.29 561.29 C 609.46 556.00 600.48 552.61 604.30 547.40 C 608.96 544.54 614.55 543.73 619.66 541.90 C 619.79 532.63 609.98 526.83 610.40 517.57 C 611.01 512.13 609.22 506.96 607.87 501.81 C 615.37 503.17 612.19 496.71 611.85 493.19 C 611.46 491.43 611.04 489.69 610.60 487.95 C 613.89 488.11 617.22 488.23 620.52 488.38 C 620.16 490.71 619.79 493.04 619.43 495.37 C 623.24 495.23 627.03 494.88 630.82 494.48 C 634.31 490.40 639.60 488.89 643.92 485.95 M 710.17 568.17 C 709.19 570.78 708.19 573.38 707.17 575.98 C 709.60 576.65 712.06 577.94 714.66 577.50 C 715.95 575.90 716.91 574.06 717.98 572.30 C 715.36 570.94 712.76 569.57 710.17 568.17 Z" />
</g>
<g id="#3f407fff">
<path fill="#3f407f" fill-opacity="0" d=" M 1008.28 498.41 C 1008.83 494.44 1010.11 490.62 1011.45 486.87 C 1013.41 489.57 1016.86 492.30 1016.14 496.05 C 1014.83 501.25 1012.72 506.30 1012.17 511.67 C 1012.01 513.43 1011.93 515.20 1011.86 516.97 C 1011.00 516.14 1010.12 515.34 1009.26 514.55 C 1009.01 509.15 1008.31 503.80 1008.28 498.41 Z" />
</g>
<g id="#7f007fff">
<path fill="#7f007f" fill-opacity="0" d=" M 1027.44 491.76 C 1034.58 497.86 1044.63 495.40 1052.96 493.78 C 1054.56 495.23 1056.09 496.77 1057.66 498.28 C 1054.56 498.05 1051.46 497.83 1048.37 497.99 C 1044.21 497.53 1041.57 500.64 1039.42 503.71 C 1037.24 507.27 1032.42 503.26 1029.71 503.26 C 1025.63 500.87 1025.04 495.58 1027.44 491.76 Z" />
</g>
<g id="#df7f7fff">
<path fill="#df7f7f" fill-opacity="0" d=" M 935.72 503.80 C 935.98 503.57 936.49 503.12 936.75 502.89 C 938.27 503.23 937.71 506.08 936.16 505.77 C 936.05 505.28 935.83 504.30 935.72 503.80 Z" />
<path fill="#df7f7f" fill-opacity="0" d=" M 967.82 563.05 L 968.51 563.51 C 968.23 564.15 967.68 565.43 967.40 566.08 C 966.64 564.88 966.78 563.87 967.82 563.05 Z" />
</g>
<g id="#bf7fbfff">
<path fill="#bf7fbf" fill-opacity="0" d=" M 1012.17 511.67 C 1017.41 509.71 1022.39 507.15 1027.27 504.43 C 1032.26 508.56 1039.13 507.92 1044.53 511.19 C 1045.81 513.60 1049.18 516.71 1046.40 519.29 C 1042.97 523.08 1039.68 527.08 1037.97 531.98 C 1034.56 531.09 1031.17 530.13 1027.81 529.09 C 1027.94 529.70 1028.20 530.93 1028.33 531.54 C 1029.98 532.07 1031.65 532.62 1033.33 533.16 C 1029.77 537.48 1032.27 542.68 1033.90 547.22 C 1032.71 547.00 1031.53 546.79 1030.37 546.57 C 1028.46 546.15 1026.50 545.83 1024.73 544.99 C 1022.70 542.63 1021.94 539.47 1020.09 536.99 C 1018.39 536.30 1016.48 536.47 1014.70 536.31 C 1015.56 533.69 1015.25 530.89 1013.92 528.49 C 1015.86 528.16 1017.81 527.83 1019.79 527.51 C 1017.81 523.54 1015.02 520.04 1011.86 516.97 C 1011.93 515.20 1012.01 513.43 1012.17 511.67 Z" />
</g>
<g id="#bf3f7fff">
<path fill="#bf3f7f" fill-opacity="0" d=" M 1044.53 511.19 C 1049.08 508.45 1054.25 506.77 1059.65 508.42 C 1062.78 510.08 1065.62 512.23 1068.29 514.58 C 1072.19 514.55 1076.13 514.71 1079.93 515.73 C 1086.84 517.64 1092.55 511.42 1099.23 511.22 C 1103.61 512.66 1107.45 515.52 1111.34 517.99 C 1114.56 520.36 1118.34 521.73 1121.89 523.50 C 1125.61 525.23 1125.40 530.22 1126.86 533.41 C 1129.76 533.28 1132.67 533.25 1135.58 533.47 C 1133.15 534.64 1130.80 535.94 1128.42 537.17 C 1131.95 540.51 1135.79 543.59 1138.69 547.54 C 1136.88 547.45 1135.11 547.36 1133.33 547.30 C 1125.05 547.59 1114.98 546.06 1109.12 553.13 C 1106.52 557.36 1106.14 562.57 1105.13 567.35 C 1102.21 566.87 1099.26 566.44 1096.38 566.04 C 1095.81 569.68 1095.26 573.35 1094.61 576.99 C 1099.68 582.04 1103.77 588.05 1106.33 594.75 C 1109.73 594.33 1113.16 593.92 1116.59 593.50 C 1116.84 594.76 1117.12 596.02 1117.43 597.28 C 1115.04 599.87 1111.39 602.39 1111.38 606.26 C 1112.78 609.49 1116.15 611.38 1118.64 613.76 C 1116.88 619.25 1115.53 624.88 1113.93 630.42 C 1112.87 634.26 1108.81 635.85 1105.76 637.81 C 1102.80 635.34 1101.24 631.44 1097.98 629.39 C 1092.21 628.64 1087.13 632.43 1081.84 634.12 C 1081.53 632.40 1080.92 628.96 1080.61 627.24 C 1071.77 627.74 1062.80 627.69 1054.15 629.73 C 1053.43 624.96 1052.48 620.11 1049.45 616.20 C 1047.44 617.77 1045.80 621.34 1042.78 620.54 C 1039.63 619.48 1037.12 617.10 1034.87 614.76 C 1037.76 611.95 1041.64 610.44 1044.50 607.59 C 1044.69 604.12 1041.18 602.23 1039.18 599.99 C 1036.56 597.75 1034.53 594.97 1032.50 592.22 C 1030.57 589.48 1027.04 588.92 1024.17 587.68 C 1024.20 587.15 1024.26 586.09 1024.30 585.56 C 1025.87 584.86 1027.44 584.17 1029.03 583.49 C 1028.14 579.79 1027.16 576.08 1026.24 572.41 C 1024.41 572.12 1022.49 572.12 1020.81 571.29 C 1019.57 569.39 1018.87 567.22 1017.96 565.17 C 1021.47 565.93 1025.01 566.57 1028.55 567.25 C 1025.37 562.15 1022.57 556.22 1024.39 550.11 C 1025.75 550.72 1027.15 551.30 1028.55 551.88 C 1029.14 550.10 1029.74 548.33 1030.37 546.57 C 1031.53 546.79 1032.71 547.00 1033.90 547.22 C 1032.27 542.68 1029.77 537.48 1033.33 533.16 C 1031.65 532.62 1029.98 532.07 1028.33 531.54 C 1028.20 530.93 1027.94 529.70 1027.81 529.09 C 1031.17 530.13 1034.56 531.09 1037.97 531.98 C 1039.68 527.08 1042.97 523.08 1046.40 519.29 C 1049.18 516.71 1045.81 513.60 1044.53 511.19 M 1039.00 539.81 C 1040.93 546.32 1048.21 547.87 1052.15 552.82 C 1054.49 552.62 1057.25 550.90 1059.38 552.60 C 1062.08 554.58 1064.57 556.88 1067.58 558.45 C 1066.43 556.22 1064.79 554.36 1063.06 552.59 C 1060.68 550.25 1062.04 546.44 1060.28 543.77 C 1057.89 540.25 1056.25 535.41 1051.85 534.09 C 1046.64 533.48 1043.08 537.48 1039.00 539.81 Z" />
</g>
<g id="#bfbf00fe">
<path fill="#bfbf00" fill-opacity="0" d=" M 1324.12 512.01 C 1326.88 508.17 1332.47 508.80 1335.83 511.44 C 1338.37 512.76 1338.16 516.33 1336.78 518.42 C 1333.88 519.98 1331.04 521.43 1328.25 523.13 C 1324.20 523.42 1320.18 523.79 1316.20 524.53 C 1317.03 519.41 1321.21 515.99 1324.12 512.01 Z" />
</g>
<g id="#7fbfbfff">
<path fill="#7fbfbf" fill-opacity="0" d=" M 1009.26 514.55 C 1010.12 515.34 1011.00 516.14 1011.86 516.97 C 1015.02 520.04 1017.81 523.54 1019.79 527.51 C 1017.81 527.83 1015.86 528.16 1013.92 528.49 C 1012.10 527.06 1010.21 525.73 1008.37 524.36 C 1008.62 521.08 1008.92 517.81 1009.26 514.55 Z" />
</g>
<g id="#5f0000ff">
<path fill="#5f0000" fill-opacity="0" d=" M 1008.37 524.36 C 1010.21 525.73 1012.10 527.06 1013.92 528.49 C 1015.25 530.89 1015.56 533.69 1014.70 536.31 C 1014.56 536.93 1014.26 538.16 1014.12 538.78 C 1013.38 537.09 1012.94 534.85 1011.04 534.09 C 1008.13 533.08 1005.00 533.82 1002.08 534.32 C 1004.72 531.38 1007.26 528.22 1008.37 524.36 Z" />
</g>
<g id="#7f0000ff">
<path fill="#7f0000" fill-opacity="0" d=" M 1002.08 534.32 C 1005.00 533.82 1008.13 533.08 1011.04 534.09 C 1012.94 534.85 1013.38 537.09 1014.12 538.78 C 1015.06 544.23 1019.65 547.89 1024.39 550.11 C 1022.57 556.22 1025.37 562.15 1028.55 567.25 C 1025.01 566.57 1021.47 565.93 1017.96 565.17 C 1016.86 562.91 1015.72 560.68 1014.59 558.47 C 1013.25 560.07 1011.92 561.66 1010.60 563.26 C 1009.58 562.90 1008.56 562.55 1007.55 562.22 C 1007.40 563.98 1007.25 565.75 1007.14 567.53 C 1001.35 566.82 995.52 567.90 989.77 566.85 C 989.09 564.69 988.43 562.55 987.80 560.39 C 983.16 562.21 978.39 563.76 973.38 564.04 C 972.73 565.50 972.09 566.96 971.48 568.43 C 970.18 568.18 968.88 567.91 967.61 567.67 C 967.56 567.27 967.45 566.47 967.40 566.08 C 967.68 565.43 968.23 564.15 968.51 563.51 C 969.64 558.05 971.11 552.69 972.38 547.27 C 976.17 547.37 980.00 547.48 983.81 547.25 C 991.20 544.95 995.90 538.51 1002.08 534.32 Z" />
</g>
<g id="#00007fff">
<path fill="#00007f" fill-opacity="0" d=" M 1039.00 539.81 C 1043.08 537.48 1046.64 533.48 1051.85 534.09 C 1056.25 535.41 1057.89 540.25 1060.28 543.77 C 1062.04 546.44 1060.68 550.25 1063.06 552.59 C 1064.79 554.36 1066.43 556.22 1067.58 558.45 C 1064.57 556.88 1062.08 554.58 1059.38 552.60 C 1057.25 550.90 1054.49 552.62 1052.15 552.82 C 1048.21 547.87 1040.93 546.32 1039.00 539.81 Z" />
</g>
<g id="#003fbffe">
<path fill="#003fbf" fill-opacity="0" d=" M 875.78 542.88 C 878.24 539.41 881.44 536.40 885.71 535.30 C 886.76 537.42 887.83 539.55 888.99 541.63 C 885.89 542.43 882.79 543.20 879.72 544.10 C 878.40 543.69 877.08 543.29 875.78 542.88 Z" />
</g>
<g id="#003f3fff">
<path fill="#003f3f" fill-opacity="0" d=" M 1014.70 536.31 C 1016.48 536.47 1018.39 536.30 1020.09 536.99 C 1021.94 539.47 1022.70 542.63 1024.73 544.99 C 1026.50 545.83 1028.46 546.15 1030.37 546.57 C 1029.74 548.33 1029.14 550.10 1028.55 551.88 C 1027.15 551.30 1025.75 550.72 1024.39 550.11 C 1019.65 547.89 1015.06 544.23 1014.12 538.78 C 1014.26 538.16 1014.56 536.93 1014.70 536.31 Z" />
</g>
<g id="#7f7f00fe">
<path fill="#7f7f00" fill-opacity="0" d=" M 879.72 544.10 C 882.79 543.20 885.89 542.43 888.99 541.63 C 891.77 546.39 894.62 551.37 895.13 556.99 C 896.58 571.47 897.32 586.01 898.70 600.50 C 894.92 599.47 891.36 597.83 887.72 596.44 C 883.85 594.88 880.18 596.84 876.46 597.54 C 875.41 591.91 873.89 586.27 869.81 582.05 C 863.43 582.02 857.10 582.02 850.75 581.97 C 850.98 587.94 848.63 594.75 851.80 600.23 C 856.68 606.91 862.04 613.24 867.69 619.28 C 869.88 622.90 871.12 627.44 875.62 628.93 C 877.07 633.41 878.52 637.95 879.70 642.53 C 877.31 643.85 874.84 645.05 872.62 646.64 C 870.65 648.96 869.78 651.96 868.61 654.71 C 865.16 655.56 861.76 656.44 858.35 657.30 C 856.41 660.78 854.77 665.17 850.90 666.87 C 843.64 667.06 843.72 657.93 841.01 653.13 C 833.65 652.91 826.31 652.49 818.97 651.98 C 815.82 645.38 812.64 638.71 811.25 631.48 C 807.27 631.22 806.15 634.78 804.58 637.39 C 800.59 638.18 796.68 639.03 792.79 640.15 C 790.96 638.95 789.09 636.11 786.67 637.56 C 782.37 640.02 782.10 645.88 781.12 650.13 C 780.03 650.57 777.84 651.46 776.74 651.90 C 772.50 658.55 771.51 667.89 765.18 673.02 C 763.43 671.61 761.97 669.91 760.47 668.26 C 757.34 668.10 754.31 667.25 751.20 667.56 C 748.62 668.72 746.44 670.60 744.12 672.18 C 741.66 669.22 739.43 665.99 736.59 663.43 C 733.35 661.14 729.46 663.02 726.11 663.93 C 723.52 661.04 720.96 658.17 718.55 655.14 C 716.86 655.50 715.19 655.87 713.52 656.23 C 711.24 654.68 708.71 653.44 705.89 653.51 C 701.63 647.27 696.36 641.56 693.38 634.55 C 691.23 629.89 694.27 624.95 695.63 620.61 C 697.51 615.07 704.72 614.61 709.33 616.75 C 713.62 618.94 717.95 615.66 721.91 614.30 C 722.48 610.55 723.15 606.86 723.87 603.16 C 721.60 603.26 719.35 603.37 717.10 603.47 C 720.73 594.52 728.11 587.78 737.55 585.50 C 738.59 588.87 741.14 591.33 744.81 591.21 C 749.23 591.27 752.99 593.59 755.70 596.97 C 758.44 595.52 761.10 593.92 763.80 592.39 C 764.55 593.70 765.30 595.02 766.06 596.34 C 771.41 594.34 777.06 593.29 782.78 593.36 C 783.09 590.44 783.29 587.44 783.65 584.55 C 786.25 583.58 788.87 582.63 791.50 581.71 C 788.72 577.93 787.12 573.45 787.40 568.74 C 789.98 566.46 792.50 564.10 795.27 562.04 C 800.04 564.02 803.15 568.42 806.74 571.94 C 807.18 569.12 807.76 566.40 808.22 563.62 C 814.02 565.15 819.88 568.23 826.01 567.18 C 834.11 564.55 845.35 563.00 847.40 552.98 C 852.89 551.76 857.70 548.94 862.68 546.51 C 868.18 543.92 874.92 548.54 879.72 544.10 M 842.17 611.86 C 839.13 612.37 838.64 615.93 837.43 618.21 C 841.52 618.71 845.51 617.49 847.81 614.06 C 846.06 613.18 844.32 611.06 842.17 611.86 Z" />
</g>
<g id="#7fbf00ff">
<path fill="#7fbf00" fill-opacity="0" d=" M 1268.16 543.43 C 1269.98 543.30 1271.80 543.11 1273.63 542.93 C 1273.72 545.00 1273.84 547.08 1273.98 549.16 C 1271.60 548.84 1269.25 548.51 1266.89 548.14 C 1267.28 546.56 1267.71 544.99 1268.16 543.43 Z" />
</g>
<g id="#3f0000ff">
<path fill="#3f0000" fill-opacity="0" d=" M 1109.12 553.13 C 1114.98 546.06 1125.05 547.59 1133.33 547.30 C 1136.34 552.18 1137.17 557.96 1138.28 563.48 C 1142.86 561.97 1147.55 560.78 1152.30 559.93 C 1151.74 564.21 1150.19 568.26 1148.01 571.97 C 1151.92 574.05 1156.35 574.00 1160.61 574.58 C 1162.28 578.43 1161.65 582.89 1163.38 586.73 C 1168.22 589.29 1174.84 588.28 1178.10 593.53 C 1180.43 598.39 1180.89 603.86 1180.99 609.18 C 1182.75 609.63 1184.49 610.07 1186.27 610.53 C 1183.66 613.41 1180.84 616.09 1177.83 618.55 C 1179.35 619.17 1180.88 619.78 1182.44 620.38 C 1180.43 623.56 1179.81 627.25 1180.55 630.94 C 1176.15 635.54 1169.79 632.20 1164.69 630.90 C 1162.49 633.71 1160.21 637.23 1156.32 637.64 C 1151.90 637.88 1147.50 637.01 1143.15 636.61 C 1138.39 635.54 1134.93 639.85 1131.33 642.15 C 1128.24 640.35 1124.80 639.33 1121.24 639.06 C 1121.79 640.29 1122.37 641.53 1122.95 642.78 C 1118.81 641.97 1114.59 641.57 1110.52 640.49 C 1108.88 639.67 1107.28 638.79 1105.76 637.81 C 1108.81 635.85 1112.87 634.26 1113.93 630.42 C 1115.53 624.88 1116.88 619.25 1118.64 613.76 C 1116.15 611.38 1112.78 609.49 1111.38 606.26 C 1111.39 602.39 1115.04 599.87 1117.43 597.28 C 1117.12 596.02 1116.84 594.76 1116.59 593.50 C 1113.16 593.92 1109.73 594.33 1106.33 594.75 C 1103.77 588.05 1099.68 582.04 1094.61 576.99 C 1095.26 573.35 1095.81 569.68 1096.38 566.04 C 1099.26 566.44 1102.21 566.87 1105.13 567.35 C 1106.14 562.57 1106.52 557.36 1109.12 553.13 Z" />
</g>
<g id="#1f7f7fff">
<path fill="#1f7f7f" fill-opacity="0" d=" M 1223.48 555.67 C 1232.71 556.08 1241.92 555.29 1251.05 553.88 C 1252.37 557.10 1252.26 561.39 1255.35 563.55 C 1265.66 564.90 1276.18 564.64 1286.57 564.04 C 1286.68 567.61 1287.52 571.21 1289.99 573.98 C 1291.67 576.26 1294.60 580.66 1291.36 583.02 C 1288.15 585.66 1285.04 588.41 1281.86 591.07 C 1282.36 599.31 1276.59 605.90 1271.01 611.16 C 1272.06 617.71 1272.02 624.26 1271.38 630.85 C 1275.22 631.10 1279.09 631.38 1282.99 631.68 C 1283.61 633.50 1284.28 635.30 1284.96 637.11 C 1290.18 636.63 1295.30 635.52 1300.50 634.88 C 1304.37 643.94 1308.69 653.25 1316.48 659.65 C 1314.98 662.13 1313.43 664.59 1312.25 667.23 C 1310.13 671.45 1311.25 676.33 1311.53 680.84 C 1308.85 682.63 1305.74 683.96 1303.52 686.31 C 1299.93 691.90 1299.08 698.66 1297.36 704.95 C 1291.47 699.14 1281.63 695.02 1282.76 685.14 C 1276.27 680.17 1275.29 671.32 1270.96 664.76 C 1264.00 664.18 1257.02 664.98 1250.07 664.55 C 1245.58 664.16 1241.25 663.09 1236.85 662.24 C 1233.50 661.49 1230.52 664.15 1227.25 663.87 C 1224.11 662.19 1222.19 658.93 1219.11 657.13 C 1214.97 654.59 1214.61 649.30 1213.02 645.18 C 1205.93 647.62 1198.82 650.04 1191.82 652.76 C 1189.49 648.32 1186.38 643.99 1185.81 638.90 C 1187.06 636.16 1189.72 634.43 1191.91 632.47 C 1188.02 633.27 1184.08 632.76 1180.55 630.94 C 1179.81 627.25 1180.43 623.56 1182.44 620.38 C 1180.88 619.78 1179.35 619.17 1177.83 618.55 C 1180.84 616.09 1183.66 613.41 1186.27 610.53 C 1184.49 610.07 1182.75 609.63 1180.99 609.18 C 1180.89 603.86 1180.43 598.39 1178.10 593.53 C 1181.55 592.14 1186.10 591.96 1188.83 589.07 C 1190.39 585.43 1189.56 581.29 1189.61 577.44 C 1192.52 577.50 1195.42 577.63 1198.33 577.81 C 1196.77 572.80 1197.00 566.52 1201.01 562.76 C 1206.19 561.54 1211.38 564.00 1216.53 564.38 C 1221.24 565.55 1221.37 558.01 1223.48 555.67 M 1192.22 596.24 C 1190.04 599.05 1192.04 603.02 1191.70 606.11 C 1195.29 604.96 1198.84 603.68 1202.44 602.55 C 1201.34 598.32 1199.13 594.47 1197.22 590.61 C 1195.49 592.43 1193.68 594.19 1192.22 596.24 Z" />
</g>
<g id="#df0000ff">
<path fill="#df0000" fill-opacity="0" d=" M 1010.60 563.26 C 1011.92 561.66 1013.25 560.07 1014.59 558.47 C 1015.72 560.68 1016.86 562.91 1017.96 565.17 C 1018.87 567.22 1019.57 569.39 1020.81 571.29 C 1022.49 572.12 1024.41 572.12 1026.24 572.41 C 1027.16 576.08 1028.14 579.79 1029.03 583.49 C 1027.44 584.17 1025.87 584.86 1024.30 585.56 C 1024.26 586.09 1024.20 587.15 1024.17 587.68 C 1027.04 588.92 1030.57 589.48 1032.50 592.22 C 1034.53 594.97 1036.56 597.75 1039.18 599.99 C 1041.18 602.23 1044.69 604.12 1044.50 607.59 C 1041.64 610.44 1037.76 611.95 1034.87 614.76 C 1037.12 617.10 1039.63 619.48 1042.78 620.54 C 1045.80 621.34 1047.44 617.77 1049.45 616.20 C 1052.48 620.11 1053.43 624.96 1054.15 629.73 C 1051.37 634.57 1046.96 638.51 1041.56 640.12 C 1036.49 641.45 1032.56 645.06 1028.51 648.18 C 1026.86 644.10 1025.76 639.56 1022.10 636.73 C 1020.97 640.91 1019.88 645.35 1020.75 649.69 C 1022.10 653.51 1025.04 656.49 1026.81 660.12 C 1021.63 662.46 1015.56 659.99 1010.59 662.51 C 1009.33 665.13 1009.37 668.43 1008.65 671.29 C 1002.17 668.37 997.36 662.61 990.33 660.79 C 989.71 663.59 989.14 666.41 988.86 669.28 C 985.01 669.48 981.09 669.84 977.30 669.02 C 975.55 667.45 975.21 664.76 976.13 662.67 C 978.36 657.80 980.58 652.68 984.93 649.29 C 983.93 646.00 982.36 642.77 982.34 639.28 C 982.75 636.81 984.27 634.69 984.86 632.27 C 983.04 631.08 980.98 630.35 978.99 629.56 C 980.16 625.84 981.38 622.15 982.35 618.38 C 984.31 618.54 986.22 619.04 988.15 619.44 C 987.03 613.80 986.11 608.13 985.03 602.49 C 980.50 601.05 976.01 599.55 971.79 597.37 C 973.94 593.51 975.98 589.59 977.75 585.54 C 980.78 578.71 986.06 573.28 989.77 566.85 C 995.52 567.90 1001.35 566.82 1007.14 567.53 C 1007.25 565.75 1007.40 563.98 1007.55 562.22 C 1008.56 562.55 1009.58 562.90 1010.60 563.26 Z" />
</g>
<g id="#000000ff">
<path fill="#000000" fill-opacity="0" d=" M 973.38 564.04 C 978.39 563.76 983.16 562.21 987.80 560.39 C 988.43 562.55 989.09 564.69 989.77 566.85 C 986.06 573.28 980.78 578.71 977.75 585.54 C 975.98 589.59 973.94 593.51 971.79 597.37 C 976.01 599.55 980.50 601.05 985.03 602.49 C 986.11 608.13 987.03 613.80 988.15 619.44 C 986.22 619.04 984.31 618.54 982.35 618.38 C 980.05 618.26 977.75 618.21 975.47 618.15 C 975.20 619.58 974.67 622.45 974.40 623.88 C 970.53 626.56 966.73 629.36 962.26 630.98 C 960.67 628.66 959.22 626.26 957.57 623.99 L 956.98 623.20 C 958.02 618.06 957.92 612.44 960.60 607.79 C 963.95 605.75 968.02 605.31 971.71 604.07 C 969.47 601.98 967.61 598.92 964.53 598.08 C 960.55 598.59 956.81 600.29 952.92 601.25 C 952.74 596.96 952.48 592.66 952.45 588.38 C 956.48 589.93 959.63 592.93 963.26 595.14 C 966.19 594.82 968.76 593.23 971.54 592.29 C 970.91 589.19 970.43 586.05 970.48 582.88 C 970.61 577.81 967.38 573.45 967.07 568.44 L 967.61 567.67 C 968.88 567.91 970.18 568.18 971.48 568.43 C 972.09 566.96 972.73 565.50 973.38 564.04 Z" />
</g>
<g id="#003f00ff">
<path fill="#003f00" fill-opacity="0" d=" M 960.10 580.46 C 959.30 574.18 957.80 567.68 959.32 561.42 C 960.18 563.34 960.95 565.30 961.70 567.29 C 963.88 566.08 965.62 564.24 967.82 563.05 C 966.78 563.87 966.64 564.88 967.40 566.08 C 967.45 566.47 967.56 567.27 967.61 567.67 L 967.07 568.44 C 963.94 571.93 961.05 575.76 960.10 580.46 Z" />
</g>
<g id="#bf00bfff">
<path fill="#bf00bf" fill-opacity="0" d=" M 710.17 568.17 C 712.76 569.57 715.36 570.94 717.98 572.30 C 716.91 574.06 715.95 575.90 714.66 577.50 C 712.06 577.94 709.60 576.65 707.17 575.98 C 708.19 573.38 709.19 570.78 710.17 568.17 Z" />
</g>
<g id="#007f3fff">
<path fill="#007f3f" fill-opacity="0" d=" M 960.10 580.46 C 961.05 575.76 963.94 571.93 967.07 568.44 C 967.38 573.45 970.61 577.81 970.48 582.88 C 970.43 586.05 970.91 589.19 971.54 592.29 C 968.76 593.23 966.19 594.82 963.26 595.14 C 959.63 592.93 956.48 589.93 952.45 588.38 C 954.65 586.78 956.80 585.21 959.27 584.00 C 959.53 582.81 959.77 581.62 960.10 580.46 Z" />
</g>
<g id="#9e7f7fff">
<path fill="#9e7f7f" fill-opacity="0" d=" M 1192.22 596.24 C 1193.68 594.19 1195.49 592.43 1197.22 590.61 C 1199.13 594.47 1201.34 598.32 1202.44 602.55 C 1198.84 603.68 1195.29 604.96 1191.70 606.11 C 1192.04 603.02 1190.04 599.05 1192.22 596.24 Z" />
</g>
<g id="#3f3fbfff">
<path fill="#3f3fbf" fill-opacity="0" d=" M 952.92 601.25 C 956.81 600.29 960.55 598.59 964.53 598.08 C 967.61 598.92 969.47 601.98 971.71 604.07 C 968.02 605.31 963.95 605.75 960.60 607.79 C 957.92 612.44 958.02 618.06 956.98 623.20 C 954.10 616.20 952.93 608.77 952.92 601.25 Z" />
</g>
<g id="#3f7fbfff">
<path fill="#3f7fbf" fill-opacity="0" d=" M 842.17 611.86 C 844.32 611.06 846.06 613.18 847.81 614.06 C 845.51 617.49 841.52 618.71 837.43 618.21 C 838.64 615.93 839.13 612.37 842.17 611.86 Z" />
</g>
<g id="#df007fff">
<path fill="#df007f" fill-opacity="0" d=" M 975.47 618.15 C 977.75 618.21 980.05 618.26 982.35 618.38 C 981.38 622.15 980.16 625.84 978.99 629.56 C 980.98 630.35 983.04 631.08 984.86 632.27 C 984.27 634.69 982.75 636.81 982.34 639.28 C 982.36 642.77 983.93 646.00 984.93 649.29 C 980.58 652.68 978.36 657.80 976.13 662.67 C 975.21 664.76 975.55 667.45 977.30 669.02 C 981.09 669.84 985.01 669.48 988.86 669.28 C 989.21 674.74 990.91 679.97 992.01 685.30 C 988.41 685.76 984.94 686.31 981.38 686.80 C 985.41 690.40 989.97 693.33 994.29 696.56 C 991.73 697.36 989.18 698.14 986.62 698.87 C 986.72 700.86 986.83 702.85 986.96 704.86 C 983.68 703.47 980.67 701.25 977.11 700.70 C 972.65 701.66 968.59 703.82 964.44 705.59 C 964.42 704.01 964.41 702.44 964.42 700.88 C 961.85 702.27 959.30 703.69 956.73 705.09 C 956.47 701.42 956.97 697.33 954.99 694.08 C 951.68 691.37 947.32 690.42 943.49 688.68 C 938.48 691.59 932.49 690.28 927.20 692.25 C 923.18 693.91 919.25 691.43 915.56 690.08 C 914.35 692.16 913.14 694.24 911.93 696.33 C 905.71 692.26 898.35 690.83 891.17 689.52 C 889.79 689.25 888.40 689.01 887.04 688.78 C 885.34 682.37 884.24 675.85 883.78 669.25 C 890.35 667.16 897.19 664.81 902.50 660.24 C 903.14 653.94 902.98 647.62 902.27 641.35 C 905.37 640.01 908.46 638.64 911.55 637.26 C 912.11 638.55 912.69 639.84 913.29 641.15 C 921.88 640.73 931.07 641.83 939.17 638.22 C 946.29 635.06 955.01 632.29 957.57 623.99 C 959.22 626.26 960.67 628.66 962.26 630.98 C 966.73 629.36 970.53 626.56 974.40 623.88 C 974.67 622.45 975.20 619.58 975.47 618.15 Z" />
</g>
<g id="#3f007ffe">
<path fill="#3f007f" fill-opacity="0" d=" M 1054.15 629.73 C 1062.80 627.69 1071.77 627.74 1080.61 627.24 C 1080.92 628.96 1081.53 632.40 1081.84 634.12 C 1087.13 632.43 1092.21 628.64 1097.98 629.39 C 1101.24 631.44 1102.80 635.34 1105.76 637.81 C 1107.28 638.79 1108.88 639.67 1110.52 640.49 C 1110.17 642.48 1109.85 644.48 1109.53 646.48 C 1107.96 646.12 1106.41 645.76 1104.86 645.41 C 1104.29 646.82 1103.74 648.23 1103.20 649.65 C 1106.42 652.50 1109.30 655.78 1111.15 659.70 C 1105.52 660.12 1101.35 663.92 1098.40 668.43 C 1101.21 668.83 1104.04 669.03 1106.89 669.18 C 1105.94 671.19 1104.68 673.13 1104.22 675.34 C 1105.69 677.75 1108.04 679.51 1109.46 681.96 C 1108.84 684.64 1106.24 686.27 1104.60 688.33 C 1105.23 692.58 1105.17 696.92 1103.89 701.05 C 1099.87 702.88 1095.80 704.74 1091.33 705.15 C 1088.62 710.70 1084.14 717.01 1087.63 723.31 C 1090.39 726.77 1095.28 727.05 1098.91 729.25 C 1101.68 730.45 1101.92 735.62 1098.83 736.56 C 1094.22 738.51 1090.68 742.03 1087.57 745.87 C 1083.49 744.95 1079.24 745.84 1075.22 744.67 C 1072.54 744.08 1069.32 742.88 1066.94 744.92 C 1062.61 748.42 1059.36 753.18 1054.74 756.33 C 1047.73 754.96 1040.81 750.24 1033.53 753.45 C 1031.37 755.87 1031.09 759.38 1030.14 762.39 C 1026.44 761.39 1022.67 760.43 1018.96 759.63 C 1021.14 755.00 1023.15 749.23 1020.66 744.35 C 1015.85 739.84 1007.38 740.01 1004.33 733.46 C 1002.43 730.36 1003.05 726.65 1003.86 723.32 C 1001.30 720.80 1000.16 717.40 999.88 713.90 C 998.18 713.35 996.48 712.80 994.80 712.25 C 994.52 710.75 994.27 709.27 994.02 707.78 C 991.64 706.84 989.27 705.90 986.96 704.86 C 986.83 702.85 986.72 700.86 986.62 698.87 C 989.18 698.14 991.73 697.36 994.29 696.56 C 989.97 693.33 985.41 690.40 981.38 686.80 C 984.94 686.31 988.41 685.76 992.01 685.30 C 990.91 679.97 989.21 674.74 988.86 669.28 C 989.14 666.41 989.71 663.59 990.33 660.79 C 997.36 662.61 1002.17 668.37 1008.65 671.29 C 1009.37 668.43 1009.33 665.13 1010.59 662.51 C 1015.56 659.99 1021.63 662.46 1026.81 660.12 C 1025.04 656.49 1022.10 653.51 1020.75 649.69 C 1019.88 645.35 1020.97 640.91 1022.10 636.73 C 1025.76 639.56 1026.86 644.10 1028.51 648.18 C 1032.56 645.06 1036.49 641.45 1041.56 640.12 C 1046.96 638.51 1051.37 634.57 1054.15 629.73 M 1045.75 726.64 C 1047.73 730.20 1049.45 734.07 1052.60 736.81 C 1053.20 733.95 1053.54 730.95 1054.09 728.11 C 1051.58 726.43 1048.69 725.52 1045.75 726.64 Z" />
</g>
<g id="#bf3f3fff">
<path fill="#bf3f3f" fill-opacity="0" d=" M 1164.69 630.90 C 1169.79 632.20 1176.15 635.54 1180.55 630.94 C 1184.08 632.76 1188.02 633.27 1191.91 632.47 C 1189.72 634.43 1187.06 636.16 1185.81 638.90 C 1186.38 643.99 1189.49 648.32 1191.82 652.76 C 1198.82 650.04 1205.93 647.62 1213.02 645.18 C 1214.61 649.30 1214.97 654.59 1219.11 657.13 C 1222.19 658.93 1224.11 662.19 1227.25 663.87 C 1230.52 664.15 1233.50 661.49 1236.85 662.24 C 1241.25 663.09 1245.58 664.16 1250.07 664.55 C 1245.29 668.30 1241.44 673.65 1235.74 676.10 C 1229.84 675.71 1224.67 672.27 1219.09 670.57 C 1215.21 675.21 1210.74 679.83 1209.10 685.77 C 1209.82 689.87 1209.88 694.04 1208.43 698.02 C 1202.29 696.21 1195.46 695.78 1190.23 691.79 C 1187.68 689.86 1185.31 687.72 1182.83 685.72 C 1183.00 684.17 1183.12 682.61 1183.26 681.06 C 1179.97 681.81 1176.71 682.62 1173.44 683.39 C 1170.37 680.39 1167.15 677.49 1163.40 675.35 C 1158.50 672.59 1154.47 668.53 1149.42 666.03 C 1146.38 676.08 1153.34 685.09 1156.44 694.11 C 1159.67 691.79 1162.86 689.40 1166.00 686.95 C 1166.93 691.30 1169.71 694.82 1174.04 696.17 C 1174.50 694.55 1174.99 692.96 1175.47 691.36 C 1177.40 691.67 1179.32 691.97 1181.27 692.30 C 1185.89 697.66 1192.54 702.88 1191.95 710.65 C 1186.60 711.09 1180.93 712.78 1175.63 711.08 C 1170.16 707.68 1167.05 700.81 1160.25 699.49 C 1160.54 704.62 1161.68 709.61 1162.68 714.65 C 1161.77 716.92 1160.89 719.20 1160.03 721.49 C 1154.10 720.96 1148.14 720.82 1142.21 720.71 C 1142.59 719.21 1142.98 717.72 1143.37 716.23 C 1138.78 715.43 1135.40 712.29 1132.08 709.33 C 1123.15 705.19 1112.01 707.05 1103.89 701.05 C 1105.17 696.92 1105.23 692.58 1104.60 688.33 C 1106.24 686.27 1108.84 684.64 1109.46 681.96 C 1108.04 679.51 1105.69 677.75 1104.22 675.34 C 1104.68 673.13 1105.94 671.19 1106.89 669.18 C 1104.04 669.03 1101.21 668.83 1098.40 668.43 C 1101.35 663.92 1105.52 660.12 1111.15 659.70 C 1109.30 655.78 1106.42 652.50 1103.20 649.65 C 1103.74 648.23 1104.29 646.82 1104.86 645.41 C 1106.41 645.76 1107.96 646.12 1109.53 646.48 C 1109.85 644.48 1110.17 642.48 1110.52 640.49 C 1114.59 641.57 1118.81 641.97 1122.95 642.78 C 1122.37 641.53 1121.79 640.29 1121.24 639.06 C 1124.80 639.33 1128.24 640.35 1131.33 642.15 C 1134.93 639.85 1138.39 635.54 1143.15 636.61 C 1147.50 637.01 1151.90 637.88 1156.32 637.64 C 1160.21 637.23 1162.49 633.71 1164.69 630.90 Z" />
</g>
<g id="#7f3f3fff">
<path fill="#7f3f3f" fill-opacity="0" d=" M 1250.07 664.55 C 1257.02 664.98 1264.00 664.18 1270.96 664.76 C 1275.29 671.32 1276.27 680.17 1282.76 685.14 C 1281.63 695.02 1291.47 699.14 1297.36 704.95 C 1295.92 707.61 1293.90 709.90 1291.55 711.78 C 1286.00 716.24 1279.56 719.21 1273.19 722.20 C 1273.24 725.39 1274.35 728.47 1274.33 731.66 C 1272.29 736.19 1267.97 739.08 1264.42 742.36 C 1264.65 745.10 1265.67 747.93 1265.49 750.74 C 1264.30 760.28 1254.97 766.21 1253.54 775.73 C 1255.72 776.31 1257.91 776.88 1260.12 777.46 C 1255.11 784.07 1248.72 789.58 1241.19 793.16 C 1240.90 791.29 1240.70 789.43 1240.50 787.56 C 1238.45 788.43 1236.34 789.18 1234.24 789.90 C 1237.23 786.10 1239.61 781.86 1241.38 777.37 C 1238.98 777.28 1236.59 777.19 1234.21 777.06 C 1235.89 773.22 1239.20 766.71 1234.03 764.12 C 1229.63 762.05 1226.09 758.61 1223.80 754.33 C 1220.58 754.84 1217.40 755.42 1214.23 756.12 C 1212.04 753.91 1209.87 751.69 1207.61 749.57 C 1201.87 749.05 1195.98 749.74 1190.37 748.46 C 1186.88 746.92 1185.19 743.16 1183.03 740.24 C 1181.02 741.14 1179.02 742.05 1177.01 742.94 C 1177.54 740.61 1177.95 738.20 1178.57 735.92 C 1174.75 735.12 1170.83 734.77 1167.24 733.25 C 1165.42 730.09 1163.15 726.78 1163.32 722.98 C 1163.39 720.19 1163.23 717.39 1162.68 714.65 C 1161.68 709.61 1160.54 704.62 1160.25 699.49 C 1167.05 700.81 1170.16 707.68 1175.63 711.08 C 1180.93 712.78 1186.60 711.09 1191.95 710.65 C 1192.54 702.88 1185.89 697.66 1181.27 692.30 C 1181.84 690.12 1182.42 687.94 1182.83 685.72 C 1185.31 687.72 1187.68 689.86 1190.23 691.79 C 1195.46 695.78 1202.29 696.21 1208.43 698.02 C 1209.88 694.04 1209.82 689.87 1209.10 685.77 C 1210.74 679.83 1215.21 675.21 1219.09 670.57 C 1224.67 672.27 1229.84 675.71 1235.74 676.10 C 1241.44 673.65 1245.29 668.30 1250.07 664.55 Z" />
</g>
<g id="#3f3f3fff">
<path fill="#3f3f3f" fill-opacity="0" d=" M 1149.42 666.03 C 1154.47 668.53 1158.50 672.59 1163.40 675.35 C 1167.15 677.49 1170.37 680.39 1173.44 683.39 C 1176.71 682.62 1179.97 681.81 1183.26 681.06 C 1183.12 682.61 1183.00 684.17 1182.83 685.72 C 1182.42 687.94 1181.84 690.12 1181.27 692.30 C 1179.32 691.97 1177.40 691.67 1175.47 691.36 C 1174.99 692.96 1174.50 694.55 1174.04 696.17 C 1169.71 694.82 1166.93 691.30 1166.00 686.95 C 1162.86 689.40 1159.67 691.79 1156.44 694.11 C 1153.34 685.09 1146.38 676.08 1149.42 666.03 Z" />
</g>
<g id="#7f3f7ffe">
<path fill="#7f3f7f" fill-opacity="0" d=" M 927.20 692.25 C 932.49 690.28 938.48 691.59 943.49 688.68 C 947.32 690.42 951.68 691.37 954.99 694.08 C 956.97 697.33 956.47 701.42 956.73 705.09 C 959.30 703.69 961.85 702.27 964.42 700.88 C 964.41 702.44 964.42 704.01 964.44 705.59 C 968.59 703.82 972.65 701.66 977.11 700.70 C 980.67 701.25 983.68 703.47 986.96 704.86 C 989.27 705.90 991.64 706.84 994.02 707.78 C 994.27 709.27 994.52 710.75 994.80 712.25 C 996.48 712.80 998.18 713.35 999.88 713.90 C 1000.16 717.40 1001.30 720.80 1003.86 723.32 C 1003.05 726.65 1002.43 730.36 1004.33 733.46 C 1007.38 740.01 1015.85 739.84 1020.66 744.35 C 1023.15 749.23 1021.14 755.00 1018.96 759.63 C 1013.24 762.72 1006.50 762.89 1000.35 764.76 C 1000.51 775.08 998.86 786.65 991.36 794.34 C 985.39 798.91 976.72 796.88 971.46 792.02 C 967.76 792.75 964.13 793.68 960.56 794.88 C 957.58 789.76 957.56 783.58 957.42 777.84 C 952.45 775.65 950.94 770.12 947.70 766.23 C 939.82 764.10 931.50 764.08 923.44 763.06 C 923.07 764.52 922.71 766.00 922.35 767.48 C 920.80 765.57 919.36 763.56 918.07 761.46 C 915.98 761.43 913.88 761.41 911.80 761.39 C 911.22 757.46 908.76 753.05 911.08 749.27 C 911.91 745.99 916.45 742.61 914.27 738.91 C 912.60 734.88 907.57 735.76 904.09 735.34 C 903.48 725.24 897.73 716.58 893.08 707.92 C 890.83 702.11 887.57 695.43 891.17 689.52 C 898.35 690.83 905.71 692.26 911.93 696.33 C 913.14 694.24 914.35 692.16 915.56 690.08 C 919.25 691.43 923.18 693.91 927.20 692.25 M 938.26 719.76 C 937.83 721.60 937.75 723.59 936.91 725.32 C 934.85 727.43 932.17 728.85 930.27 731.13 C 931.27 733.59 932.90 735.73 934.19 738.06 C 937.37 739.04 940.56 740.04 943.66 741.32 C 944.50 739.94 945.34 738.56 946.20 737.20 C 948.68 737.58 951.31 738.27 953.89 738.50 C 954.63 737.30 954.28 735.79 954.46 734.47 C 951.95 734.51 949.45 734.54 946.95 734.45 C 947.91 731.23 948.92 728.05 949.95 724.86 C 947.83 724.61 945.70 724.39 943.59 724.21 C 942.38 722.11 940.37 720.81 938.26 719.76 M 961.93 756.51 C 965.86 758.54 969.40 761.22 973.32 763.28 C 976.03 763.27 978.48 761.74 981.00 760.89 C 980.54 757.92 980.28 755.12 979.89 752.20 C 973.50 750.87 967.66 754.20 961.93 756.51 Z" />
</g>
<g id="#007fbfff">
<path fill="#007fbf" fill-opacity="0" d=" M 1091.33 705.15 C 1095.80 704.74 1099.87 702.88 1103.89 701.05 C 1112.01 707.05 1123.15 705.19 1132.08 709.33 C 1135.40 712.29 1138.78 715.43 1143.37 716.23 C 1142.98 717.72 1142.59 719.21 1142.21 720.71 C 1148.14 720.82 1154.10 720.96 1160.03 721.49 C 1160.89 719.20 1161.77 716.92 1162.68 714.65 C 1163.23 717.39 1163.39 720.19 1163.32 722.98 C 1163.15 726.78 1165.42 730.09 1167.24 733.25 C 1165.19 733.52 1163.13 733.79 1161.10 734.05 C 1163.34 735.73 1165.54 737.44 1167.77 739.20 C 1167.68 740.91 1167.63 742.62 1167.58 744.35 C 1165.02 744.65 1162.48 744.98 1159.98 745.32 C 1160.75 749.74 1161.56 754.14 1162.24 758.59 C 1160.27 757.97 1158.30 757.36 1156.35 756.77 C 1156.14 759.55 1155.94 762.34 1155.77 765.14 C 1151.91 763.86 1147.96 760.84 1143.79 761.81 C 1136.95 766.70 1131.73 773.57 1125.34 779.03 C 1122.44 778.92 1119.78 778.99 1116.98 778.94 C 1117.79 775.25 1118.62 771.58 1119.54 767.93 C 1116.69 767.70 1113.85 767.52 1111.01 767.31 C 1111.96 764.14 1112.03 760.72 1110.19 757.84 C 1107.95 754.04 1107.43 749.63 1108.12 745.34 C 1104.47 744.98 1100.74 744.46 1097.13 745.34 C 1093.99 746.06 1090.75 746.77 1087.57 745.87 C 1090.68 742.03 1094.22 738.51 1098.83 736.56 C 1101.92 735.62 1101.68 730.45 1098.91 729.25 C 1095.28 727.05 1090.39 726.77 1087.63 723.31 C 1084.14 717.01 1088.62 710.70 1091.33 705.15 M 1114.89 748.41 C 1117.52 750.00 1120.19 751.55 1122.87 753.09 C 1125.11 750.85 1127.28 748.54 1129.35 746.13 C 1126.93 745.05 1124.60 743.71 1122.01 743.16 C 1119.15 744.07 1117.19 746.61 1114.89 748.41 Z" />
</g>
<g id="#00bf7fff">
<path fill="#00bf7f" fill-opacity="0" d=" M 938.26 719.76 C 940.37 720.81 942.38 722.11 943.59 724.21 C 945.70 724.39 947.83 724.61 949.95 724.86 C 948.92 728.05 947.91 731.23 946.95 734.45 C 949.45 734.54 951.95 734.51 954.46 734.47 C 954.28 735.79 954.63 737.30 953.89 738.50 C 951.31 738.27 948.68 737.58 946.20 737.20 C 945.34 738.56 944.50 739.94 943.66 741.32 C 940.56 740.04 937.37 739.04 934.19 738.06 C 932.90 735.73 931.27 733.59 930.27 731.13 C 932.17 728.85 934.85 727.43 936.91 725.32 C 937.75 723.59 937.83 721.60 938.26 719.76 Z" />
</g>
<g id="#bf007fff">
<path fill="#bf007f" fill-opacity="0" d=" M 1045.75 726.64 C 1048.69 725.52 1051.58 726.43 1054.09 728.11 C 1053.54 730.95 1053.20 733.95 1052.60 736.81 C 1049.45 734.07 1047.73 730.20 1045.75 726.64 Z" />
</g>
<g id="#007f7fff">
<path fill="#007f7f" fill-opacity="0" d=" M 1161.10 734.05 C 1163.13 733.79 1165.19 733.52 1167.24 733.25 C 1170.83 734.77 1174.75 735.12 1178.57 735.92 C 1177.95 738.20 1177.54 740.61 1177.01 742.94 C 1179.02 742.05 1181.02 741.14 1183.03 740.24 C 1185.19 743.16 1186.88 746.92 1190.37 748.46 C 1195.98 749.74 1201.87 749.05 1207.61 749.57 C 1209.87 751.69 1212.04 753.91 1214.23 756.12 C 1217.40 755.42 1220.58 754.84 1223.80 754.33 C 1226.09 758.61 1229.63 762.05 1234.03 764.12 C 1239.20 766.71 1235.89 773.22 1234.21 777.06 C 1236.59 777.19 1238.98 777.28 1241.38 777.37 C 1239.61 781.86 1237.23 786.10 1234.24 789.90 C 1236.34 789.18 1238.45 788.43 1240.50 787.56 C 1240.70 789.43 1240.90 791.29 1241.19 793.16 C 1242.02 797.71 1243.56 803.28 1240.20 807.22 C 1236.21 810.46 1231.59 812.94 1226.88 814.95 C 1223.47 816.51 1219.92 814.25 1216.45 814.62 C 1214.24 815.31 1212.29 816.58 1210.29 817.69 C 1209.41 816.66 1208.53 815.63 1207.69 814.63 C 1201.12 817.89 1195.44 822.72 1188.82 825.83 C 1185.02 826.81 1183.33 822.23 1181.31 819.94 C 1178.88 820.32 1176.96 821.06 1174.71 821.70 C 1171.72 822.67 1168.70 823.68 1165.76 824.73 C 1165.81 817.58 1160.85 811.17 1154.02 809.36 C 1150.23 809.09 1146.11 810.62 1142.83 807.89 C 1140.24 808.44 1137.66 809.07 1135.11 809.73 C 1132.90 807.81 1130.72 805.87 1128.58 803.93 C 1130.69 800.40 1132.19 796.55 1133.87 792.81 C 1131.54 791.03 1128.88 789.51 1127.15 787.11 C 1125.87 784.62 1125.78 781.73 1125.34 779.03 C 1131.73 773.57 1136.95 766.70 1143.79 761.81 C 1147.96 760.84 1151.91 763.86 1155.77 765.14 C 1155.94 762.34 1156.14 759.55 1156.35 756.77 C 1158.30 757.36 1160.27 757.97 1162.24 758.59 C 1161.56 754.14 1160.75 749.74 1159.98 745.32 C 1162.48 744.98 1165.02 744.65 1167.58 744.35 C 1167.63 742.62 1167.68 740.91 1167.77 739.20 C 1165.54 737.44 1163.34 735.73 1161.10 734.05 M 1177.21 773.51 C 1176.80 775.98 1176.41 778.46 1176.04 780.96 C 1178.75 780.77 1181.67 780.68 1184.46 780.60 C 1185.69 774.97 1180.94 774.44 1177.21 773.51 Z" />
</g>
<g id="#7f003fff">
<path fill="#7f003f" fill-opacity="0" d=" M 904.09 735.34 C 907.57 735.76 912.60 734.88 914.27 738.91 C 916.45 742.61 911.91 745.99 911.08 749.27 C 908.76 753.05 911.22 757.46 911.80 761.39 C 901.32 757.71 901.26 744.35 904.09 735.34 Z" />
</g>
<g id="#3fbfbfff">
<path fill="#3fbfbf" fill-opacity="0" d=" M 1066.94 744.92 C 1069.32 742.88 1072.54 744.08 1075.22 744.67 C 1079.24 745.84 1083.49 744.95 1087.57 745.87 C 1090.75 746.77 1093.99 746.06 1097.13 745.34 C 1100.74 744.46 1104.47 744.98 1108.12 745.34 C 1107.43 749.63 1107.95 754.04 1110.19 757.84 C 1112.03 760.72 1111.96 764.14 1111.01 767.31 C 1113.85 767.52 1116.69 767.70 1119.54 767.93 C 1118.62 771.58 1117.79 775.25 1116.98 778.94 C 1119.78 778.99 1122.44 778.92 1125.34 779.03 C 1125.78 781.73 1125.87 784.62 1127.15 787.11 C 1128.88 789.51 1131.54 791.03 1133.87 792.81 C 1132.19 796.55 1130.69 800.40 1128.58 803.93 C 1124.51 810.84 1116.55 813.57 1110.72 818.67 C 1109.92 817.48 1109.12 816.28 1108.36 815.10 C 1102.08 815.37 1095.62 817.94 1089.43 815.50 C 1085.81 814.48 1083.00 811.43 1079.20 811.02 C 1076.56 812.92 1074.19 815.15 1071.76 817.30 C 1065.41 812.67 1059.82 807.18 1054.51 801.42 C 1050.21 798.35 1044.58 797.79 1039.98 795.24 C 1040.87 791.80 1041.60 788.30 1042.43 784.86 C 1039.30 781.56 1036.01 778.44 1032.60 775.47 C 1032.99 770.90 1033.03 766.18 1030.14 762.39 C 1031.09 759.38 1031.37 755.87 1033.53 753.45 C 1040.81 750.24 1047.73 754.96 1054.74 756.33 C 1059.36 753.18 1062.61 748.42 1066.94 744.92 Z" />
</g>
<g id="#7f00bfff">
<path fill="#7f00bf" fill-opacity="0" d=" M 1114.89 748.41 C 1117.19 746.61 1119.15 744.07 1122.01 743.16 C 1124.60 743.71 1126.93 745.05 1129.35 746.13 C 1127.28 748.54 1125.11 750.85 1122.87 753.09 C 1120.19 751.55 1117.52 750.00 1114.89 748.41 Z" />
</g>
<g id="#00003fff">
<path fill="#00003f" fill-opacity="0" d=" M 961.93 756.51 C 967.66 754.20 973.50 750.87 979.89 752.20 C 980.28 755.12 980.54 757.92 981.00 760.89 C 978.48 761.74 976.03 763.27 973.32 763.28 C 969.40 761.22 965.86 758.54 961.93 756.51 Z" />
</g>
<g id="#7f7f7fff">
<path fill="#7f7f7f" fill-opacity="0" d=" M 1177.21 773.51 C 1180.94 774.44 1185.69 774.97 1184.46 780.60 C 1181.67 780.68 1178.75 780.77 1176.04 780.96 C 1176.41 778.46 1176.80 775.98 1177.21 773.51 Z" />
</g>
<g id="#bf3f00ff">
<path fill="#bf3f00" fill-opacity="0" d=" M 1110.72 818.67 C 1116.55 813.57 1124.51 810.84 1128.58 803.93 C 1130.72 805.87 1132.90 807.81 1135.11 809.73 C 1137.66 809.07 1140.24 808.44 1142.83 807.89 C 1146.11 810.62 1150.23 809.09 1154.02 809.36 C 1160.85 811.17 1165.81 817.58 1165.76 824.73 C 1168.70 823.68 1171.72 822.67 1174.71 821.70 C 1174.52 824.56 1174.43 827.42 1174.35 830.29 C 1170.25 832.58 1170.19 837.02 1170.34 841.23 C 1172.65 840.45 1176.00 840.41 1178.60 839.84 C 1175.39 846.16 1171.35 852.50 1171.14 859.83 C 1172.88 865.13 1178.64 866.94 1183.61 867.98 C 1189.00 868.75 1194.63 869.08 1199.78 871.12 C 1200.02 873.96 1200.64 877.03 1201.02 879.92 C 1198.46 881.13 1195.87 882.25 1193.30 883.40 C 1192.11 887.29 1190.92 891.16 1189.80 895.10 C 1186.83 895.79 1183.80 896.38 1180.82 896.91 C 1178.88 894.52 1176.53 892.48 1173.63 891.38 C 1172.35 893.77 1171.50 896.55 1169.51 898.48 C 1166.03 900.42 1161.84 900.59 1158.06 901.46 C 1157.66 907.04 1157.60 912.69 1158.48 918.24 C 1153.49 922.18 1147.46 924.48 1141.29 925.76 C 1138.74 922.90 1136.37 919.20 1131.96 919.23 C 1125.34 917.47 1118.50 915.93 1112.52 912.47 C 1110.57 909.77 1110.09 906.37 1109.19 903.26 C 1111.87 899.41 1117.38 896.25 1115.31 890.71 C 1114.30 884.50 1106.87 882.86 1103.88 878.16 C 1105.10 873.05 1102.70 868.92 1098.45 866.62 C 1098.91 863.75 1099.49 860.98 1100.03 858.16 C 1097.40 854.51 1094.98 850.81 1092.60 847.04 C 1096.71 841.89 1103.21 841.27 1108.76 838.69 C 1112.84 832.98 1113.84 825.06 1110.72 818.67 Z" />
</g>
<g id="#1f3f00ff">
<path fill="#1f3f00" fill-opacity="0" d=" M 0.00 1079.00 C 640.00 1079.00 1280.00 1079.00 1920.00 1079.00 L 1920.00 1080.00 L 0.00 1080.00 L 0.00 1079.00 Z" />
</g>
</svg>
