<?xml version="1.0" encoding="UTF-8" ?>
<!DOCTYPE svg PUBLIC "-//W3C//DTD SVG 1.1//EN" "http://www.w3.org/Graphics/SVG/1.1/DTD/svg11.dtd">
<svg width="1920pt" height="1080pt" viewBox="0 0 1920 1080" version="1.1" xmlns="http://www.w3.org/2000/svg">
<g id="#8f9f3fff">
<path fill="#8f9f3f" fill-opacity="0" d=" M 814.82 215.32 C 821.11 216.39 828.00 216.40 833.07 220.92 C 838.76 225.64 847.28 227.13 850.97 233.97 C 852.31 237.36 855.78 239.86 859.51 239.12 C 868.71 237.46 877.84 241.74 885.18 246.83 C 888.05 261.26 887.29 276.21 888.15 290.86 C 887.71 290.75 886.82 290.53 886.37 290.42 C 886.51 289.61 886.66 288.80 886.81 287.99 C 885.24 288.97 883.66 289.94 882.14 290.99 C 882.01 289.40 881.89 287.81 881.79 286.23 C 876.21 285.92 870.52 285.63 865.32 283.36 C 865.43 283.64 865.66 284.20 865.77 284.48 C 862.05 283.21 858.22 282.33 854.31 281.93 C 854.41 284.00 854.58 286.07 854.83 288.13 C 853.17 284.88 851.49 281.59 848.39 279.49 C 845.16 277.35 843.82 273.67 842.77 270.13 C 837.01 269.07 831.34 267.53 825.60 266.44 C 817.53 266.07 809.78 269.04 802.17 271.23 C 786.78 276.16 771.31 282.28 758.85 292.85 C 750.54 299.98 740.58 305.02 732.94 312.94 C 725.31 320.31 718.71 328.71 710.70 335.69 C 695.62 348.20 682.26 362.85 671.23 379.03 C 669.88 380.88 667.92 382.49 665.38 382.22 C 652.45 384.98 639.15 381.74 626.20 384.15 C 620.19 385.04 614.24 386.79 608.14 386.53 C 602.37 386.36 598.99 380.88 595.08 377.38 C 593.48 379.70 591.86 382.00 590.20 384.26 C 586.53 374.43 583.16 364.46 580.75 354.24 C 591.72 348.03 602.53 341.50 613.73 335.71 C 617.31 333.75 620.00 338.12 622.45 340.09 C 632.27 334.50 640.09 325.57 643.80 314.86 C 645.34 310.01 643.82 304.21 646.87 299.91 C 651.78 297.14 657.65 298.34 663.01 297.74 C 669.74 294.68 674.77 288.68 681.49 285.51 C 685.43 283.68 690.31 287.21 693.70 283.71 C 699.18 280.41 702.34 274.76 705.11 269.22 C 707.69 263.13 699.48 254.98 705.29 250.10 C 708.39 249.68 710.85 252.24 713.06 253.95 C 718.27 258.10 722.58 263.24 726.40 268.68 C 734.69 268.96 746.52 272.79 752.34 264.32 C 754.02 254.89 750.83 245.36 749.92 235.90 C 761.98 240.61 777.71 240.22 785.89 251.89 C 788.72 254.51 792.77 252.16 796.10 251.87 C 795.23 243.94 794.13 236.00 794.51 228.00 C 797.15 236.28 797.09 245.06 799.00 253.49 C 801.57 246.42 799.44 235.45 807.22 231.44 C 810.47 232.37 813.17 234.55 816.02 236.30 C 815.99 229.29 815.23 222.31 814.82 215.32 Z" />
</g>
<g id="#4f9f3fff">
<path fill="#4f9f3f" fill-opacity="0" d=" M 825.60 266.44 C 831.34 267.53 837.01 269.07 842.77 270.13 C 843.82 273.67 845.16 277.35 848.39 279.49 C 851.49 281.59 853.17 284.88 854.83 288.13 C 854.58 286.07 854.41 284.00 854.31 281.93 C 858.22 282.33 862.05 283.21 865.77 284.48 C 865.66 284.20 865.43 283.64 865.32 283.36 C 870.52 285.63 876.21 285.92 881.79 286.23 C 881.89 287.81 882.01 289.40 882.14 290.99 C 878.03 293.95 872.94 297.79 873.29 303.44 C 875.65 311.07 879.73 318.05 883.36 325.13 C 879.56 329.86 874.85 333.72 870.53 337.94 C 865.97 344.02 865.43 351.94 863.45 359.03 C 872.21 359.64 881.18 361.74 889.94 360.05 C 898.77 357.68 909.14 354.66 913.74 345.94 C 915.91 336.19 918.35 326.34 923.70 317.77 C 924.91 316.00 926.11 313.21 928.75 313.89 C 943.82 315.36 956.77 323.98 969.17 332.00 C 977.63 336.96 987.18 339.88 995.04 345.89 C 1000.93 349.45 1005.23 355.14 1011.12 358.61 C 1019.03 357.58 1023.00 349.28 1027.43 343.73 C 1039.30 347.87 1048.11 356.90 1057.36 364.93 C 1053.67 372.89 1049.53 381.02 1042.70 386.77 C 1040.07 389.17 1036.20 389.35 1032.93 389.96 C 1023.81 391.22 1015.23 395.77 1005.84 394.99 C 993.56 393.73 981.36 391.35 968.95 391.50 C 960.61 390.99 952.42 393.28 944.06 392.73 C 934.40 392.85 924.76 389.27 915.14 391.16 C 910.51 391.81 909.46 397.52 910.72 401.27 C 913.44 409.72 920.71 415.48 924.75 423.20 C 930.53 432.49 926.58 444.52 932.38 453.78 C 939.40 464.40 940.98 477.84 938.23 490.11 C 931.79 486.74 925.12 483.42 920.58 477.48 C 913.01 470.00 909.01 458.93 899.08 454.01 C 888.98 450.59 878.61 454.06 868.57 455.68 C 861.37 457.36 854.22 459.91 846.72 459.46 C 840.32 459.25 833.09 458.49 827.67 462.71 C 820.62 468.68 815.06 476.14 809.27 483.28 C 803.38 490.51 795.40 495.53 787.89 500.88 C 782.70 504.32 777.62 507.92 772.21 511.00 C 760.56 517.09 747.74 520.27 735.34 524.40 C 717.37 531.53 701.82 543.32 685.77 553.84 C 675.23 560.54 662.22 557.90 650.43 557.52 C 648.43 563.20 646.70 568.99 644.63 574.65 C 641.77 583.23 633.32 587.88 627.34 594.03 C 622.80 590.93 616.45 589.13 614.59 583.39 C 600.84 544.49 587.11 505.57 573.27 466.71 C 570.64 447.65 571.17 428.27 569.84 409.09 C 576.92 401.06 583.84 392.88 590.20 384.26 C 591.86 382.00 593.48 379.70 595.08 377.38 C 598.99 380.88 602.37 386.36 608.14 386.53 C 614.24 386.79 620.19 385.04 626.20 384.15 C 639.15 381.74 652.45 384.98 665.38 382.22 C 667.92 382.49 669.88 380.88 671.23 379.03 C 682.26 362.85 695.62 348.20 710.70 335.69 C 718.71 328.71 725.31 320.31 732.94 312.94 C 740.58 305.02 750.54 299.98 758.85 292.85 C 771.31 282.28 786.78 276.16 802.17 271.23 C 809.78 269.04 817.53 266.07 825.60 266.44 Z" />
</g>
<g id="#8f1f3fff">
<path fill="#8f1f3f" fill-opacity="0" d=" M 882.14 290.99 C 883.66 289.94 885.24 288.97 886.81 287.99 C 886.66 288.80 886.51 289.61 886.37 290.42 C 886.82 290.53 887.71 290.75 888.15 290.86 C 889.98 291.37 891.80 291.91 893.63 292.48 C 894.17 291.76 894.72 291.05 895.29 290.34 C 899.42 291.55 904.66 290.81 907.64 294.38 C 909.22 306.30 908.95 318.35 909.61 330.34 C 907.31 332.56 905.26 335.01 903.39 337.59 C 903.13 338.31 902.93 339.06 902.70 339.81 C 900.82 333.25 891.98 330.28 886.77 334.62 C 883.67 336.51 882.43 340.04 881.34 343.30 C 880.60 343.38 879.86 343.48 879.14 343.60 C 878.75 342.36 878.37 341.13 878.00 339.90 C 875.49 339.24 873.00 338.59 870.53 337.94 C 874.85 333.72 879.56 329.86 883.36 325.13 C 879.73 318.05 875.65 311.07 873.29 303.44 C 872.94 297.79 878.03 293.95 882.14 290.99 M 900.12 325.29 C 901.01 326.20 901.94 327.12 903.00 327.88 C 904.04 327.12 904.95 326.20 905.88 325.29 C 903.95 325.22 902.03 325.22 900.12 325.29 Z" />
</g>
<g id="#cfdf7fff">
<path fill="#cfdf7f" fill-opacity="0" d=" M 942.31 296.15 C 949.89 295.27 956.29 299.78 962.50 303.35 C 963.40 306.45 964.40 309.53 965.50 312.59 C 969.88 315.17 975.18 315.50 979.85 317.47 C 980.01 316.78 980.34 315.41 980.51 314.72 C 987.25 313.53 991.75 318.89 996.66 322.32 C 1001.96 321.68 1010.67 319.94 1010.97 328.06 C 1012.00 324.31 1009.38 319.18 1012.27 316.00 C 1016.58 314.93 1020.64 316.64 1024.46 318.31 C 1033.87 321.53 1044.78 321.37 1053.00 327.58 C 1053.12 326.84 1053.35 325.37 1053.47 324.63 C 1058.24 328.29 1063.38 331.38 1068.94 333.69 C 1068.95 333.11 1068.96 331.94 1068.96 331.35 C 1073.62 335.54 1080.20 335.78 1086.02 337.12 C 1086.10 338.55 1086.21 339.98 1086.29 341.41 C 1092.59 338.50 1095.74 346.73 1101.08 348.65 C 1106.76 351.03 1112.39 353.77 1116.77 358.24 C 1127.24 366.17 1140.34 370.12 1150.33 378.76 C 1152.66 378.78 1154.43 376.86 1156.44 375.89 C 1156.97 378.12 1157.18 380.41 1157.60 382.67 C 1159.59 384.44 1161.60 386.22 1163.64 387.98 C 1164.10 385.97 1164.59 383.97 1165.09 381.97 C 1166.25 382.75 1167.42 383.53 1168.62 384.30 C 1168.43 386.04 1168.28 387.79 1168.13 389.55 C 1169.74 390.03 1171.36 390.52 1172.99 391.02 C 1172.64 392.29 1172.31 393.57 1171.99 394.85 C 1172.91 394.34 1173.86 393.85 1174.82 393.36 C 1176.97 394.56 1179.17 395.71 1181.34 396.90 C 1181.98 395.74 1182.71 394.62 1183.50 393.54 C 1184.02 396.33 1184.55 399.13 1185.09 401.94 C 1176.44 408.56 1167.72 415.41 1157.69 419.81 C 1154.75 421.30 1151.97 418.88 1149.72 417.25 C 1143.78 412.21 1138.75 406.03 1132.00 401.99 C 1118.75 392.56 1101.95 391.04 1087.37 384.60 C 1076.86 378.88 1066.34 372.91 1057.36 364.93 C 1048.11 356.90 1039.30 347.87 1027.43 343.73 C 1023.00 349.28 1019.03 357.58 1011.12 358.61 C 1005.23 355.14 1000.93 349.45 995.04 345.89 C 987.18 339.88 977.63 336.96 969.17 332.00 C 956.77 323.98 943.82 315.36 928.75 313.89 C 926.11 313.21 924.91 316.00 923.70 317.77 C 918.35 326.34 915.91 336.19 913.74 345.94 C 910.47 342.94 906.95 340.22 903.39 337.59 C 905.26 335.01 907.31 332.56 909.61 330.34 C 909.83 330.13 910.27 329.70 910.49 329.49 C 910.83 323.07 910.74 316.64 911.30 310.24 C 912.59 307.85 915.53 308.34 917.80 308.47 C 923.39 308.86 929.31 309.68 934.67 307.65 C 937.89 304.37 938.42 298.98 942.31 296.15 Z" />
</g>
<g id="#0f1f3fff">
<path fill="#0f1f3f" fill-opacity="0" d=" M 900.12 325.29 C 902.03 325.22 903.95 325.22 905.88 325.29 C 904.95 326.20 904.04 327.12 903.00 327.88 C 901.94 327.12 901.01 326.20 900.12 325.29 Z" />
</g>
<g id="#8f1fbfff">
<path fill="#8f1fbf" fill-opacity="0" d=" M 886.77 334.62 C 891.98 330.28 900.82 333.25 902.70 339.81 C 902.93 339.06 903.13 338.31 903.39 337.59 C 906.95 340.22 910.47 342.94 913.74 345.94 C 909.14 354.66 898.77 357.68 889.94 360.05 C 881.18 361.74 872.21 359.64 863.45 359.03 C 865.43 351.94 865.97 344.02 870.53 337.94 C 873.00 338.59 875.49 339.24 878.00 339.90 C 878.37 341.13 878.75 342.36 879.14 343.60 C 876.40 344.06 873.49 344.54 871.24 346.26 C 868.98 348.75 868.63 352.34 867.43 355.39 C 873.70 355.84 880.00 356.15 886.30 356.23 C 889.35 356.39 892.04 354.17 893.36 351.56 C 893.83 348.91 892.78 346.00 891.06 344.00 C 888.11 342.34 884.54 343.06 881.34 343.30 C 882.43 340.04 883.67 336.51 886.77 334.62 Z" />
</g>
<g id="#0f9fbfff">
<path fill="#0f9fbf" fill-opacity="0" d=" M 881.34 343.30 C 884.54 343.06 888.11 342.34 891.06 344.00 C 892.78 346.00 893.83 348.91 893.36 351.56 C 892.04 354.17 889.35 356.39 886.30 356.23 C 880.00 356.15 873.70 355.84 867.43 355.39 C 868.63 352.34 868.98 348.75 871.24 346.26 C 873.49 344.54 876.40 344.06 879.14 343.60 C 879.86 343.48 880.60 343.38 881.34 343.30 Z" />
</g>
<g id="#4f1f3fff">
<path fill="#4f1f3f" fill-opacity="0" d=" M 1057.36 364.93 C 1066.34 372.91 1076.86 378.88 1087.37 384.60 C 1101.95 391.04 1118.75 392.56 1132.00 401.99 C 1138.75 406.03 1143.78 412.21 1149.72 417.25 C 1151.97 418.88 1154.75 421.30 1157.69 419.81 C 1167.72 415.41 1176.44 408.56 1185.09 401.94 C 1185.72 401.52 1186.97 400.67 1187.60 400.25 C 1188.91 402.78 1190.25 405.31 1191.50 407.87 C 1203.36 410.18 1207.48 423.07 1217.18 428.82 C 1221.55 434.48 1229.93 435.16 1232.67 442.35 C 1233.00 442.05 1233.35 441.76 1233.71 441.47 C 1234.61 442.33 1235.53 443.19 1236.46 444.05 C 1237.03 442.63 1237.61 441.23 1238.20 439.82 C 1239.37 440.91 1240.55 442.01 1241.74 443.11 C 1241.11 445.09 1240.54 447.08 1239.96 449.08 C 1241.37 447.73 1242.80 446.40 1244.24 445.08 C 1245.35 445.54 1246.48 446.02 1247.62 446.50 C 1248.37 445.01 1249.15 443.53 1249.94 442.05 C 1254.17 445.78 1258.14 450.53 1263.93 451.72 C 1267.95 452.65 1271.83 454.19 1275.46 456.18 C 1275.35 457.63 1275.26 459.08 1275.20 460.53 C 1279.57 462.91 1283.74 465.96 1285.85 470.62 C 1286.93 469.79 1288.00 468.94 1289.09 468.10 C 1295.91 472.86 1302.41 478.09 1309.46 482.54 C 1311.33 483.97 1313.76 483.70 1315.93 484.29 C 1317.71 485.97 1318.14 489.05 1320.74 489.88 C 1327.01 485.58 1328.15 477.40 1330.58 470.68 C 1340.50 477.74 1347.05 488.26 1352.85 498.75 C 1353.99 498.28 1355.16 497.84 1356.34 497.39 C 1360.06 500.54 1363.98 503.52 1368.28 505.90 C 1370.92 507.34 1373.05 509.55 1373.84 512.59 C 1374.84 511.71 1375.84 510.82 1376.88 509.95 C 1376.87 511.16 1376.89 512.38 1376.92 513.60 C 1378.83 513.00 1380.77 512.42 1382.75 511.86 C 1383.70 513.89 1384.73 515.91 1385.34 518.09 C 1385.13 520.80 1383.96 523.31 1383.10 525.85 C 1384.22 526.85 1386.46 528.86 1387.58 529.87 C 1389.11 525.68 1391.16 521.22 1396.06 520.31 C 1396.43 523.50 1396.54 526.71 1396.33 529.92 C 1398.26 526.52 1404.08 522.88 1406.67 527.20 C 1410.28 531.60 1414.42 537.98 1420.99 536.91 C 1427.92 535.54 1432.09 542.78 1435.66 547.34 C 1438.99 551.25 1437.24 556.55 1437.15 561.15 C 1436.75 564.45 1438.95 567.28 1439.34 570.47 C 1439.45 574.06 1439.40 577.71 1439.20 581.32 C 1443.52 579.03 1448.05 582.12 1449.98 586.08 C 1453.97 594.00 1453.32 603.09 1454.79 611.61 C 1456.41 616.98 1462.40 621.10 1468.00 619.00 C 1470.88 617.86 1473.70 618.88 1475.95 620.81 C 1475.62 624.43 1475.47 628.06 1475.49 631.71 C 1477.49 634.28 1481.06 634.66 1483.96 635.75 C 1482.89 638.89 1481.23 642.01 1482.08 645.48 C 1482.37 650.52 1485.36 655.61 1483.55 660.60 C 1482.19 664.61 1481.23 668.76 1481.31 673.04 C 1480.99 679.03 1483.13 685.41 1480.10 691.01 C 1474.16 707.49 1462.81 721.20 1455.10 736.72 C 1454.82 743.31 1451.89 749.16 1447.82 754.29 C 1442.26 742.48 1432.28 732.08 1419.39 728.66 C 1403.87 725.88 1390.17 736.52 1375.02 737.47 C 1365.67 738.07 1356.04 737.61 1347.13 740.96 C 1338.23 743.10 1329.83 747.52 1320.54 747.69 C 1306.57 748.52 1292.92 742.48 1282.53 733.47 C 1268.06 719.65 1248.78 710.90 1228.89 708.97 C 1217.78 707.55 1206.86 703.25 1195.54 704.70 C 1186.23 706.25 1176.83 704.69 1167.58 703.45 C 1162.70 702.92 1159.76 698.60 1156.09 695.91 C 1151.84 692.64 1146.30 692.38 1141.35 690.86 C 1131.95 688.14 1121.90 688.21 1112.32 689.88 C 1102.85 691.92 1092.59 695.96 1083.17 691.80 C 1079.14 689.78 1075.31 686.49 1074.17 681.97 C 1072.50 675.38 1073.23 668.17 1070.21 661.95 C 1065.65 654.75 1057.29 651.38 1049.66 648.39 C 1046.41 646.98 1042.38 645.88 1041.00 642.20 C 1038.68 638.43 1037.77 633.71 1034.44 630.63 C 1031.64 628.43 1028.33 626.77 1024.80 626.25 C 1014.54 623.89 1004.66 632.10 994.50 627.68 C 996.21 617.17 995.90 606.45 997.84 595.97 C 998.69 586.66 1000.78 576.33 994.94 568.13 C 987.41 562.19 977.83 558.95 971.34 551.64 C 967.45 545.89 967.86 538.02 963.53 532.53 C 955.75 526.24 945.60 524.14 936.59 520.24 C 934.53 510.22 936.86 500.06 938.23 490.11 C 940.98 477.84 939.40 464.40 932.38 453.78 C 926.58 444.52 930.53 432.49 924.75 423.20 C 920.71 415.48 913.44 409.72 910.72 401.27 C 909.46 397.52 910.51 391.81 915.14 391.16 C 924.76 389.27 934.40 392.85 944.06 392.73 C 952.42 393.28 960.61 390.99 968.95 391.50 C 981.36 391.35 993.56 393.73 1005.84 394.99 C 1015.23 395.77 1023.81 391.22 1032.93 389.96 C 1036.20 389.35 1040.07 389.17 1042.70 386.77 C 1049.53 381.02 1053.67 372.89 1057.36 364.93 M 1395.19 531.50 C 1393.79 531.56 1393.67 533.97 1395.20 533.90 C 1396.62 533.89 1396.68 531.38 1395.19 531.50 Z" />
</g>
<g id="#0f1fbfff">
<path fill="#0f1fbf" fill-opacity="0" d=" M 868.57 455.68 C 878.61 454.06 888.98 450.59 899.08 454.01 C 909.01 458.93 913.01 470.00 920.58 477.48 C 925.12 483.42 931.79 486.74 938.23 490.11 C 936.86 500.06 934.53 510.22 936.59 520.24 C 929.67 525.89 921.84 530.27 914.78 535.72 C 904.36 543.47 893.19 551.86 879.91 553.41 C 878.89 542.94 878.29 532.42 876.97 521.98 C 875.20 513.88 878.09 505.92 880.08 498.17 C 874.43 494.12 868.45 490.42 863.42 485.60 C 862.85 478.40 866.49 471.72 868.91 465.13 C 870.05 462.06 869.11 458.77 868.57 455.68 Z" />
</g>
<g id="#8f9fbfff">
<path fill="#8f9fbf" fill-opacity="0" d=" M 846.72 459.46 C 854.22 459.91 861.37 457.36 868.57 455.68 C 869.11 458.77 870.05 462.06 868.91 465.13 C 866.49 471.72 862.85 478.40 863.42 485.60 C 868.45 490.42 874.43 494.12 880.08 498.17 C 878.09 505.92 875.20 513.88 876.97 521.98 C 878.29 532.42 878.89 542.94 879.91 553.41 C 881.34 560.50 878.38 567.51 873.83 572.78 C 873.35 579.67 874.41 586.52 874.90 593.38 C 873.03 591.41 870.40 589.79 869.67 587.03 C 868.20 580.63 869.13 573.92 867.30 567.57 C 865.00 563.66 860.22 562.48 856.48 560.34 C 851.96 557.57 846.61 559.41 841.71 559.54 C 829.52 560.42 817.71 556.85 805.87 554.61 C 796.57 554.11 788.19 558.28 779.69 561.29 C 779.19 553.03 781.82 544.91 780.93 536.64 C 779.56 524.32 782.16 511.81 787.89 500.88 C 795.40 495.53 803.38 490.51 809.27 483.28 C 815.06 476.14 820.62 468.68 827.67 462.71 C 833.09 458.49 840.32 459.25 846.72 459.46 Z" />
</g>
<g id="#cf1f3fff">
<path fill="#cf1f3f" fill-opacity="0" d=" M 772.21 511.00 C 777.62 507.92 782.70 504.32 787.89 500.88 C 782.16 511.81 779.56 524.32 780.93 536.64 C 781.82 544.91 779.19 553.03 779.69 561.29 C 788.19 558.28 796.57 554.11 805.87 554.61 C 801.43 562.23 796.10 570.75 798.09 579.97 C 798.33 583.73 799.39 589.10 794.85 590.77 C 785.78 594.79 776.35 597.99 767.64 602.83 C 759.80 606.12 753.42 611.90 746.16 616.21 C 736.86 622.01 731.09 631.88 721.96 637.95 C 713.39 643.40 708.67 652.67 701.51 659.57 C 699.65 661.93 696.41 659.86 695.14 657.90 C 689.19 649.73 690.49 638.74 685.89 629.95 C 682.97 624.58 680.93 618.82 678.55 613.22 C 674.92 604.84 668.50 597.47 667.80 588.05 C 666.74 582.65 668.04 577.22 668.33 571.82 C 668.59 569.38 666.61 567.55 664.78 566.30 C 660.11 563.19 655.19 560.47 650.43 557.52 C 662.22 557.90 675.23 560.54 685.77 553.84 C 701.82 543.32 717.37 531.53 735.34 524.40 C 747.74 520.27 760.56 517.09 772.21 511.00 Z" />
</g>
<g id="#cf9f3fff">
<path fill="#cf9f3f" fill-opacity="0" d=" M 914.78 535.72 C 921.84 530.27 929.67 525.89 936.59 520.24 C 945.60 524.14 955.75 526.24 963.53 532.53 C 967.86 538.02 967.45 545.89 971.34 551.64 C 977.83 558.95 987.41 562.19 994.94 568.13 C 1000.78 576.33 998.69 586.66 997.84 595.97 C 995.90 606.45 996.21 617.17 994.50 627.68 C 993.15 635.58 992.60 643.59 991.83 651.56 C 991.29 657.73 988.06 663.13 985.10 668.41 C 980.63 666.45 976.25 664.24 971.66 662.63 C 970.22 662.07 968.55 662.36 967.45 663.45 C 963.56 666.80 960.97 671.32 957.81 675.32 C 953.70 672.05 949.85 668.50 945.84 665.13 C 941.54 661.01 934.62 661.97 930.24 658.00 C 927.91 654.99 926.19 651.62 923.88 648.62 C 923.50 636.96 921.75 625.42 921.30 613.77 C 919.46 599.19 920.96 583.99 916.22 569.86 C 912.88 558.87 910.37 546.76 914.78 535.72 Z" />
</g>
<g id="#1408103f">
<path fill="#140810" fill-opacity="0" d=" M 1395.19 531.50 C 1396.68 531.38 1396.62 533.89 1395.20 533.90 C 1393.67 533.97 1393.79 531.56 1395.19 531.50 Z" />
</g>
<g id="#cf1fbfff">
<path fill="#cf1fbf" fill-opacity="0" d=" M 879.91 553.41 C 893.19 551.86 904.36 543.47 914.78 535.72 C 910.37 546.76 912.88 558.87 916.22 569.86 C 920.96 583.99 919.46 599.19 921.30 613.77 C 921.75 625.42 923.50 636.96 923.88 648.62 C 919.53 651.78 915.33 655.22 910.44 657.52 C 904.78 660.41 898.44 661.83 892.99 665.15 C 885.10 660.13 876.82 655.48 870.08 648.90 C 865.09 644.07 859.07 640.56 853.58 636.37 C 845.12 629.48 836.48 622.64 826.78 617.58 C 829.04 611.63 831.84 605.90 833.77 599.84 C 824.25 596.62 814.70 601.56 807.65 607.72 C 795.15 601.65 781.03 603.72 767.64 602.83 C 776.35 597.99 785.78 594.79 794.85 590.77 C 799.39 589.10 798.33 583.73 798.09 579.97 C 796.10 570.75 801.43 562.23 805.87 554.61 C 817.71 556.85 829.52 560.42 841.71 559.54 C 846.61 559.41 851.96 557.57 856.48 560.34 C 860.22 562.48 865.00 563.66 867.30 567.57 C 869.13 573.92 868.20 580.63 869.67 587.03 C 870.40 589.79 873.03 591.41 874.90 593.38 C 874.41 586.52 873.35 579.67 873.83 572.78 C 878.38 567.51 881.34 560.50 879.91 553.41 Z" />
</g>
<g id="#4f1fbfff">
<path fill="#4f1fbf" fill-opacity="0" d=" M 644.63 574.65 C 646.70 568.99 648.43 563.20 650.43 557.52 C 655.19 560.47 660.11 563.19 664.78 566.30 C 666.61 567.55 668.59 569.38 668.33 571.82 C 668.04 577.22 666.74 582.65 667.80 588.05 C 668.50 597.47 674.92 604.84 678.55 613.22 C 680.93 618.82 682.97 624.58 685.89 629.95 C 690.49 638.74 689.19 649.73 695.14 657.90 C 696.41 659.86 699.65 661.93 701.51 659.57 C 708.67 652.67 713.39 643.40 721.96 637.95 C 731.09 631.88 736.86 622.01 746.16 616.21 C 753.42 611.90 759.80 606.12 767.64 602.83 C 781.03 603.72 795.15 601.65 807.65 607.72 C 810.77 609.31 813.79 611.10 816.81 612.91 C 817.72 613.62 818.75 613.96 819.91 613.96 L 820.61 613.99 C 820.99 615.36 821.91 615.99 823.37 615.88 C 824.50 616.42 825.64 616.99 826.78 617.58 C 836.48 622.64 845.12 629.48 853.58 636.37 C 859.07 640.56 865.09 644.07 870.08 648.90 C 876.82 655.48 885.10 660.13 892.99 665.15 C 884.72 671.88 877.72 680.10 872.14 689.18 C 869.69 693.50 864.35 694.53 860.16 696.26 C 860.47 708.87 862.83 721.30 863.92 733.84 C 870.41 735.08 879.19 737.48 880.40 745.11 C 881.70 755.31 881.66 765.71 883.88 775.80 C 882.29 774.82 880.72 773.82 879.19 772.79 C 878.90 773.07 878.62 773.37 878.35 773.68 C 877.77 772.35 877.19 771.02 876.62 769.72 C 875.53 772.29 874.52 774.89 873.54 777.52 C 870.03 777.54 866.57 777.65 863.09 777.88 C 863.23 779.29 863.41 780.72 863.58 782.15 C 859.73 780.42 855.62 779.55 851.47 778.94 C 842.37 776.43 832.63 771.47 823.10 774.83 C 822.81 780.73 823.50 787.56 819.48 792.47 C 814.17 794.66 808.18 794.30 802.58 794.36 C 803.26 801.00 806.41 807.98 802.11 814.13 C 797.90 813.75 793.69 813.47 789.55 812.59 C 782.62 810.83 775.41 811.26 768.34 811.64 C 766.18 804.77 763.36 798.15 761.45 791.21 C 760.37 786.78 754.38 787.35 751.23 785.45 C 749.33 778.84 747.31 772.25 745.84 765.53 C 740.23 764.65 734.67 761.96 728.89 762.93 C 720.70 764.19 712.31 763.94 704.14 762.76 C 696.75 761.70 689.18 759.67 681.77 761.59 C 671.66 764.14 661.16 764.55 650.78 764.52 C 638.53 765.48 626.46 762.62 614.25 762.48 C 605.52 763.14 597.00 765.42 588.27 766.11 C 583.06 754.38 576.55 743.15 573.06 730.73 C 568.09 713.78 556.47 698.51 558.05 680.04 C 557.53 674.58 560.45 669.77 563.64 665.67 C 574.80 652.20 586.65 639.33 598.28 626.27 C 602.35 621.68 605.70 616.41 610.40 612.40 C 616.92 607.12 621.06 599.57 627.34 594.03 C 633.32 587.88 641.77 583.23 644.63 574.65 Z" />
</g>
<g id="#119e40ff">
<path fill="#119e40" fill-opacity="0" d=" M 807.65 607.72 C 814.70 601.56 824.25 596.62 833.77 599.84 C 831.84 605.90 829.04 611.63 826.78 617.58 C 825.64 616.99 824.50 616.42 823.37 615.88 C 822.91 614.52 822.00 613.89 820.61 613.99 L 819.91 613.96 C 820.22 612.11 817.66 611.21 816.81 612.91 C 813.79 611.10 810.77 609.31 807.65 607.72 Z" />
</g>
<g id="#af20bfff">
<path fill="#af20bf" fill-opacity="0" d=" M 816.81 612.91 C 817.66 611.21 820.22 612.11 819.91 613.96 C 818.75 613.96 817.72 613.62 816.81 612.91 Z" />
</g>
<g id="#a420bfff">
<path fill="#a420bf" fill-opacity="0" d=" M 820.61 613.99 C 822.00 613.89 822.91 614.52 823.37 615.88 C 821.91 615.99 820.99 615.36 820.61 613.99 Z" />
</g>
<g id="#4fdf7fff">
<path fill="#4fdf7f" fill-opacity="0" d=" M 994.50 627.68 C 1004.66 632.10 1014.54 623.89 1024.80 626.25 C 1028.33 626.77 1031.64 628.43 1034.44 630.63 C 1037.77 633.71 1038.68 638.43 1041.00 642.20 C 1042.38 645.88 1046.41 646.98 1049.66 648.39 C 1057.29 651.38 1065.65 654.75 1070.21 661.95 C 1073.23 668.17 1072.50 675.38 1074.17 681.97 C 1075.31 686.49 1079.14 689.78 1083.17 691.80 C 1092.59 695.96 1102.85 691.92 1112.32 689.88 C 1121.90 688.21 1131.95 688.14 1141.35 690.86 C 1146.30 692.38 1151.84 692.64 1156.09 695.91 C 1159.76 698.60 1162.70 702.92 1167.58 703.45 C 1176.83 704.69 1186.23 706.25 1195.54 704.70 C 1206.86 703.25 1217.78 707.55 1228.89 708.97 C 1248.78 710.90 1268.06 719.65 1282.53 733.47 C 1292.92 742.48 1306.57 748.52 1320.54 747.69 C 1329.83 747.52 1338.23 743.10 1347.13 740.96 C 1356.04 737.61 1365.67 738.07 1375.02 737.47 C 1390.17 736.52 1403.87 725.88 1419.39 728.66 C 1432.28 732.08 1442.26 742.48 1447.82 754.29 C 1448.64 758.64 1444.59 762.28 1443.06 766.02 C 1425.41 794.47 1408.19 823.17 1390.71 851.71 C 1386.70 857.45 1383.08 864.41 1376.35 867.38 C 1367.42 872.03 1364.67 882.90 1357.01 888.93 C 1346.41 895.21 1335.64 901.38 1323.69 904.77 C 1315.15 909.17 1305.50 912.63 1299.62 920.68 C 1294.18 920.40 1288.65 919.54 1283.40 921.48 C 1278.42 923.54 1274.67 928.06 1269.34 929.28 C 1262.17 930.45 1254.88 930.38 1247.70 931.43 C 1238.78 932.68 1230.41 928.67 1221.59 928.42 C 1214.72 928.73 1208.77 924.70 1202.01 924.33 C 1196.17 924.00 1191.58 920.02 1186.71 917.29 C 1179.88 912.98 1172.44 909.86 1164.92 907.04 C 1152.99 901.51 1140.22 897.11 1127.00 896.62 C 1119.09 897.56 1111.05 898.11 1103.37 895.53 C 1085.69 890.38 1067.64 886.75 1049.53 883.51 C 1042.90 882.90 1037.24 879.28 1031.25 876.80 C 1030.50 874.45 1030.03 872.03 1029.12 869.81 C 1025.79 868.29 1021.59 868.91 1018.83 866.21 C 1012.78 860.90 1006.95 855.34 1000.85 850.11 C 996.52 846.94 988.58 844.70 985.24 850.20 C 982.14 854.81 976.40 856.43 971.14 856.86 C 966.77 854.13 964.91 848.82 962.78 844.42 C 961.89 844.51 961.02 844.60 960.15 844.70 C 960.07 842.12 960.00 839.54 959.96 836.98 C 955.76 835.14 951.32 833.64 946.69 834.21 C 943.03 834.82 941.85 830.56 940.37 828.11 C 941.41 834.31 935.41 832.40 932.01 833.35 C 931.52 830.79 931.05 828.26 930.61 825.76 C 929.73 827.25 928.89 828.76 928.07 830.28 C 926.37 827.52 925.36 824.32 924.35 821.31 C 922.70 820.18 921.04 819.06 919.42 817.93 C 919.42 814.14 919.37 810.27 917.62 806.84 C 914.20 807.56 910.73 809.20 907.19 808.46 C 904.28 806.44 905.95 801.61 903.93 799.14 C 898.71 798.27 899.74 792.91 897.70 789.50 C 895.03 787.81 891.53 786.69 890.80 783.18 C 889.82 779.67 887.54 776.73 883.88 775.80 C 881.66 765.71 881.70 755.31 880.40 745.11 C 879.19 737.48 870.41 735.08 863.92 733.84 C 862.83 721.30 860.47 708.87 860.16 696.26 C 864.35 694.53 869.69 693.50 872.14 689.18 C 877.72 680.10 884.72 671.88 892.99 665.15 C 898.44 661.83 904.78 660.41 910.44 657.52 C 915.33 655.22 919.53 651.78 923.88 648.62 C 926.19 651.62 927.91 654.99 930.24 658.00 C 934.62 661.97 941.54 661.01 945.84 665.13 C 949.85 668.50 953.70 672.05 957.81 675.32 C 960.97 671.32 963.56 666.80 967.45 663.45 C 968.55 662.36 970.22 662.07 971.66 662.63 C 976.25 664.24 980.63 666.45 985.10 668.41 C 988.06 663.13 991.29 657.73 991.83 651.56 C 992.60 643.59 993.15 635.58 994.50 627.68 Z" />
</g>
<g id="#4e1f3df7">
<path fill="#4e1f3d" fill-opacity="0" d=" M 1451.82 755.87 C 1453.35 753.31 1455.19 750.94 1457.18 748.71 C 1454.22 756.10 1449.49 762.60 1445.39 769.38 C 1434.29 787.31 1423.18 805.23 1412.25 823.27 C 1406.81 831.61 1402.25 840.55 1395.94 848.30 C 1401.77 836.14 1409.73 825.19 1416.54 813.59 C 1428.21 794.29 1440.38 775.30 1451.82 755.87 Z" />
</g>
</svg>
