<?xml version="1.0" encoding="UTF-8" ?>
<!DOCTYPE svg PUBLIC "-//W3C//DTD SVG 1.1//EN" "http://www.w3.org/Graphics/SVG/1.1/DTD/svg11.dtd">
<svg width="1920pt" height="1080pt" viewBox="0 0 1920 1080" version="1.1" xmlns="http://www.w3.org/2000/svg">
<g id="#006f00ff">
<path fill="#006f00" fill-opacity="0" d=" M 1066.78 236.78 C 1075.93 234.47 1085.54 234.96 1094.66 232.48 C 1095.22 235.10 1095.91 237.69 1096.70 240.25 C 1100.70 238.56 1104.77 235.78 1109.32 236.81 C 1114.90 237.99 1120.57 238.35 1126.26 237.77 C 1136.99 237.76 1147.69 239.10 1158.44 239.31 L 1158.49 239.91 C 1158.72 244.76 1159.68 249.56 1161.28 254.15 C 1156.14 255.17 1150.50 255.70 1146.55 259.56 C 1143.46 262.51 1139.24 263.36 1135.40 264.82 C 1134.17 265.34 1132.07 266.57 1132.92 268.15 C 1134.88 274.46 1141.41 277.29 1145.17 282.28 C 1145.16 285.60 1143.84 288.72 1142.83 291.83 C 1146.08 295.54 1151.37 298.38 1152.40 303.63 C 1152.94 309.44 1152.20 315.29 1151.27 321.03 C 1146.53 319.56 1141.57 317.71 1136.54 318.72 C 1127.40 319.65 1120.10 326.24 1110.94 327.06 C 1102.07 329.05 1091.91 327.21 1083.91 332.24 C 1085.04 325.95 1086.37 319.64 1086.72 313.24 C 1086.81 310.28 1086.52 306.55 1083.53 305.06 C 1077.40 303.06 1070.45 306.92 1064.71 303.27 C 1061.82 299.81 1060.35 295.37 1059.10 291.10 C 1061.67 287.30 1064.99 283.45 1064.59 278.49 C 1062.17 273.51 1056.29 272.44 1051.52 270.95 C 1054.09 269.01 1056.76 266.12 1060.33 266.79 C 1064.94 266.47 1071.11 270.00 1074.93 265.97 C 1077.32 262.96 1077.87 258.67 1075.59 255.43 C 1072.06 249.51 1068.74 243.43 1066.78 236.78 Z" />
</g>
<g id="#bfef00fe">
<path fill="#bfef00" fill-opacity="0" d=" M 955.96 234.92 C 962.18 232.43 968.98 233.65 975.48 233.37 C 975.97 234.72 976.48 236.08 977.01 237.43 C 981.14 238.17 984.75 240.28 988.43 242.15 C 993.75 243.07 1001.27 237.63 1005.46 243.33 C 1009.78 250.17 1015.03 260.10 1024.87 257.93 C 1031.02 256.08 1030.47 249.13 1032.58 244.56 C 1036.50 241.96 1040.67 238.31 1045.72 238.98 C 1052.81 238.94 1059.60 235.89 1066.78 236.78 C 1068.74 243.43 1072.06 249.51 1075.59 255.43 C 1077.87 258.67 1077.32 262.96 1074.93 265.97 C 1071.11 270.00 1064.94 266.47 1060.33 266.79 C 1056.76 266.12 1054.09 269.01 1051.52 270.95 C 1056.29 272.44 1062.17 273.51 1064.59 278.49 C 1064.99 283.45 1061.67 287.30 1059.10 291.10 C 1056.58 290.87 1053.95 291.17 1051.61 290.26 C 1049.17 288.45 1047.67 285.70 1045.85 283.34 C 1039.98 285.43 1035.23 289.48 1030.03 292.72 C 1023.62 295.00 1016.40 293.08 1009.90 294.84 C 1006.05 298.03 1004.28 303.22 1000.17 306.19 C 997.47 308.12 993.96 307.76 990.88 307.28 C 987.01 306.12 983.29 304.39 979.82 302.37 C 974.84 298.94 974.64 292.20 971.36 287.59 C 968.81 284.74 965.36 282.93 962.46 280.48 C 958.20 277.13 955.41 272.33 951.28 268.86 C 946.44 267.83 940.93 267.29 936.48 269.90 C 936.44 260.29 936.77 250.67 936.02 241.08 C 937.44 239.09 938.87 237.11 940.32 235.14 C 945.50 235.45 950.94 236.91 955.96 234.92 Z" />
</g>
<g id="#00ef7fff">
<path fill="#00ef7f" fill-opacity="0" d=" M 1158.49 239.91 C 1164.83 239.54 1171.29 239.13 1177.63 240.12 C 1184.02 240.79 1190.48 240.21 1196.83 241.42 C 1210.79 243.87 1224.40 247.90 1238.19 251.13 C 1236.54 262.63 1233.08 273.76 1231.23 285.22 C 1230.53 290.32 1227.92 294.81 1224.56 298.62 C 1218.20 305.91 1217.90 315.93 1215.88 324.89 C 1214.05 335.98 1210.32 346.93 1204.43 356.51 C 1196.13 361.42 1190.62 348.20 1182.32 349.67 C 1177.08 351.94 1173.98 357.32 1168.77 359.67 C 1161.47 363.89 1152.97 362.13 1145.22 360.69 C 1145.01 360.51 1144.60 360.17 1144.39 359.99 C 1147.24 347.11 1148.77 333.98 1151.27 321.03 C 1152.20 315.29 1152.94 309.44 1152.40 303.63 C 1151.37 298.38 1146.08 295.54 1142.83 291.83 C 1143.84 288.72 1145.16 285.60 1145.17 282.28 C 1141.41 277.29 1134.88 274.46 1132.92 268.15 C 1132.07 266.57 1134.17 265.34 1135.40 264.82 C 1139.24 263.36 1143.46 262.51 1146.55 259.56 C 1150.50 255.70 1156.14 255.17 1161.28 254.15 C 1159.68 249.56 1158.72 244.76 1158.49 239.91 Z" />
</g>
<g id="#3fef00fe">
<path fill="#3fef00" fill-opacity="0" d=" M 936.48 269.90 C 940.93 267.29 946.44 267.83 951.28 268.86 C 955.41 272.33 958.20 277.13 962.46 280.48 C 965.36 282.93 968.81 284.74 971.36 287.59 C 974.64 292.20 974.84 298.94 979.82 302.37 C 983.29 304.39 987.01 306.12 990.88 307.28 C 989.10 312.31 987.76 317.68 989.01 323.05 C 990.51 329.13 993.39 334.76 995.64 340.58 C 989.08 339.32 983.09 336.42 977.13 333.56 C 975.11 338.02 976.21 342.90 975.33 347.53 C 972.83 352.20 966.90 352.75 962.52 354.83 C 957.66 356.71 954.97 361.58 950.55 364.10 C 946.61 365.39 942.82 362.71 939.32 361.26 C 936.40 365.44 934.11 370.11 930.87 374.02 C 926.61 377.85 921.46 373.20 917.69 371.06 C 913.24 365.90 911.82 358.92 907.32 353.78 C 902.51 347.42 898.62 340.18 892.19 335.26 C 890.59 331.16 889.03 327.08 887.49 322.97 C 889.84 320.83 892.54 319.04 894.68 316.67 C 898.24 311.71 899.01 305.13 903.39 300.69 C 905.93 298.18 908.18 295.15 911.48 293.59 C 916.92 292.89 922.34 293.96 927.78 294.28 C 928.74 289.73 928.59 284.55 932.02 281.01 C 934.71 278.33 934.62 274.43 934.54 270.87 C 935.18 270.54 935.82 270.21 936.48 269.90 Z" />
</g>
<g id="#7fef7fff">
<path fill="#7fef7f" fill-opacity="0" d=" M 1030.03 292.72 C 1035.23 289.48 1039.98 285.43 1045.85 283.34 C 1047.67 285.70 1049.17 288.45 1051.61 290.26 C 1053.95 291.17 1056.58 290.87 1059.10 291.10 C 1060.35 295.37 1061.82 299.81 1064.71 303.27 C 1070.45 306.92 1077.40 303.06 1083.53 305.06 C 1086.52 306.55 1086.81 310.28 1086.72 313.24 C 1086.37 319.64 1085.04 325.95 1083.91 332.24 C 1080.42 340.41 1070.55 340.94 1064.78 346.73 C 1056.26 353.57 1049.01 361.79 1040.71 368.88 C 1036.19 367.05 1031.66 365.12 1027.66 362.28 C 1023.20 359.74 1021.09 354.79 1017.63 351.25 C 1012.64 349.91 1007.35 352.38 1002.48 350.51 C 999.46 347.83 997.64 344.04 995.64 340.58 C 993.39 334.76 990.51 329.13 989.01 323.05 C 987.76 317.68 989.10 312.31 990.88 307.28 C 993.96 307.76 997.47 308.12 1000.17 306.19 C 1004.28 303.22 1006.05 298.03 1009.90 294.84 C 1016.40 293.08 1023.62 295.00 1030.03 292.72 Z" />
</g>
<g id="#7f6f7fff">
<path fill="#7f6f7f" fill-opacity="0" d=" M 1136.54 318.72 C 1141.57 317.71 1146.53 319.56 1151.27 321.03 C 1148.77 333.98 1147.24 347.11 1144.39 359.99 C 1140.62 357.22 1137.62 353.66 1134.71 350.05 C 1131.99 347.60 1129.13 343.51 1124.93 344.78 C 1118.99 346.47 1113.68 349.90 1107.74 351.60 C 1105.71 352.41 1102.70 352.94 1102.39 355.55 C 1101.12 362.32 1100.43 370.89 1093.65 374.68 C 1084.95 376.99 1076.25 369.55 1067.71 372.96 C 1063.70 374.43 1059.65 375.79 1055.59 377.09 C 1050.79 374.07 1045.96 371.06 1040.71 368.88 C 1049.01 361.79 1056.26 353.57 1064.78 346.73 C 1070.55 340.94 1080.42 340.41 1083.91 332.24 C 1091.91 327.21 1102.07 329.05 1110.94 327.06 C 1120.10 326.24 1127.40 319.65 1136.54 318.72 Z" />
</g>
<g id="#5f4fbfff">
<path fill="#5f4fbf" fill-opacity="0" d=" M 874.58 323.68 C 878.89 323.68 883.20 323.39 887.49 322.97 C 889.03 327.08 890.59 331.16 892.19 335.26 C 889.28 336.48 885.74 336.98 883.59 339.45 C 879.09 347.07 878.87 356.21 876.08 364.44 C 873.77 368.47 868.49 369.83 866.42 374.05 C 864.84 378.69 868.50 382.90 870.41 386.84 C 867.98 388.25 865.54 389.65 863.14 391.10 C 862.77 400.50 854.52 406.32 847.98 411.87 C 843.68 414.93 840.77 419.40 837.77 423.64 C 831.84 428.96 824.05 431.52 817.70 436.28 C 812.92 432.09 808.13 427.33 806.15 421.13 C 805.12 417.14 804.66 412.98 802.91 409.21 C 799.10 413.30 795.57 417.64 792.11 422.03 L 791.68 422.58 C 789.51 411.34 787.51 400.03 786.51 388.62 C 786.67 377.10 794.74 366.41 805.86 363.08 C 806.66 360.54 806.67 357.53 808.41 355.40 C 810.68 354.07 813.32 353.59 815.87 353.05 C 814.76 347.21 813.85 341.34 812.78 335.49 C 822.56 332.07 832.65 339.51 842.33 335.60 C 846.12 334.25 850.47 336.22 854.03 334.06 C 860.52 329.63 869.59 330.54 874.58 323.68 Z" />
</g>
<g id="#df4fbfff">
<path fill="#df4fbf" fill-opacity="0" d=" M 977.13 333.56 C 983.09 336.42 989.08 339.32 995.64 340.58 C 997.64 344.04 999.46 347.83 1002.48 350.51 C 1007.35 352.38 1012.64 349.91 1017.63 351.25 C 1021.09 354.79 1023.20 359.74 1027.66 362.28 C 1031.66 365.12 1036.19 367.05 1040.71 368.88 C 1045.96 371.06 1050.79 374.07 1055.59 377.09 C 1051.96 379.91 1047.69 381.80 1043.31 383.10 C 1036.52 384.87 1029.20 382.05 1022.52 384.37 C 1020.51 387.78 1020.70 392.12 1018.32 395.33 C 1014.18 398.88 1009.09 401.04 1004.42 403.76 C 998.06 407.20 992.20 411.65 985.35 414.12 C 978.96 416.44 973.26 420.29 966.79 422.40 C 960.10 423.25 952.76 425.51 946.79 421.05 C 944.05 421.56 941.22 422.74 938.42 422.10 C 935.16 420.39 933.39 416.38 934.02 412.79 C 934.93 407.19 936.44 401.69 936.74 396.01 C 937.38 393.48 934.09 392.93 932.67 391.66 C 928.24 388.89 923.00 388.12 918.06 386.76 C 911.81 385.13 906.63 380.86 902.42 376.11 C 907.55 374.59 912.59 372.75 917.69 371.06 C 921.46 373.20 926.61 377.85 930.87 374.02 C 934.11 370.11 936.40 365.44 939.32 361.26 C 942.82 362.71 946.61 365.39 950.55 364.10 C 954.97 361.58 957.66 356.71 962.52 354.83 C 966.90 352.75 972.83 352.20 975.33 347.53 C 976.21 342.90 975.11 338.02 977.13 333.56 Z" />
</g>
<g id="#3faf7fff">
<path fill="#3faf7f" fill-opacity="0" d=" M 883.59 339.45 C 885.74 336.98 889.28 336.48 892.19 335.26 C 898.62 340.18 902.51 347.42 907.32 353.78 C 911.82 358.92 913.24 365.90 917.69 371.06 C 912.59 372.75 907.55 374.59 902.42 376.11 C 906.63 380.86 911.81 385.13 918.06 386.76 C 923.00 388.12 928.24 388.89 932.67 391.66 C 934.09 392.93 937.38 393.48 936.74 396.01 C 936.44 401.69 934.93 407.19 934.02 412.79 C 933.39 416.38 935.16 420.39 938.42 422.10 C 941.22 422.74 944.05 421.56 946.79 421.05 C 952.76 425.51 960.10 423.25 966.79 422.40 C 963.33 430.14 957.06 436.84 948.96 439.68 C 944.17 440.77 939.25 440.77 934.38 440.55 C 934.73 443.74 932.74 448.64 936.70 449.76 C 943.66 452.35 952.69 456.01 952.14 465.03 C 952.75 473.27 958.49 479.51 961.82 486.69 C 956.09 489.78 949.54 490.38 943.15 490.05 C 935.17 490.68 927.32 488.85 920.03 485.75 C 915.80 487.33 913.06 491.52 908.66 492.80 C 901.96 494.82 894.65 494.02 888.10 491.86 C 882.87 488.06 882.22 479.38 875.31 477.93 C 869.15 476.00 864.64 482.35 859.77 484.74 C 856.80 487.00 853.87 483.00 853.55 480.22 C 853.11 471.52 860.23 464.08 859.62 455.35 C 858.48 447.53 849.56 444.97 844.37 440.41 C 839.64 437.26 845.64 430.93 843.83 426.95 C 842.07 425.42 839.86 424.57 837.77 423.64 C 840.77 419.40 843.68 414.93 847.98 411.87 C 854.52 406.32 862.77 400.50 863.14 391.10 C 865.54 389.65 867.98 388.25 870.41 386.84 C 868.50 382.90 864.84 378.69 866.42 374.05 C 868.49 369.83 873.77 368.47 876.08 364.44 C 878.87 356.21 879.09 347.07 883.59 339.45 Z" />
</g>
<g id="#7f6f00ff">
<path fill="#7f6f00" fill-opacity="0" d=" M 1107.74 351.60 C 1113.68 349.90 1118.99 346.47 1124.93 344.78 C 1129.13 343.51 1131.99 347.60 1134.71 350.05 C 1137.62 353.66 1140.62 357.22 1144.39 359.99 C 1144.60 360.17 1145.01 360.51 1145.22 360.69 C 1148.03 364.21 1149.88 368.49 1151.07 372.80 C 1150.32 382.72 1147.15 392.30 1146.56 402.25 C 1146.40 405.52 1147.08 408.78 1146.82 412.05 C 1145.01 425.89 1143.07 439.74 1139.61 453.29 C 1138.85 451.20 1138.14 449.09 1137.49 446.97 C 1135.43 447.32 1133.08 447.06 1131.33 448.31 C 1129.76 450.53 1129.16 453.23 1128.31 455.77 C 1124.03 456.13 1119.60 456.94 1115.48 455.38 C 1108.71 453.11 1101.52 449.99 1094.31 452.29 C 1091.14 454.70 1091.13 459.44 1088.10 461.85 C 1082.58 463.00 1076.94 465.65 1071.19 464.92 C 1071.21 456.35 1072.37 447.81 1073.56 439.34 C 1074.94 430.19 1079.22 421.69 1079.77 412.39 C 1079.78 407.71 1077.59 403.31 1075.99 399.03 C 1074.11 394.44 1069.36 391.91 1067.15 387.60 C 1067.33 382.73 1068.76 377.84 1067.71 372.96 C 1076.25 369.55 1084.95 376.99 1093.65 374.68 C 1100.43 370.89 1101.12 362.32 1102.39 355.55 C 1102.70 352.94 1105.71 352.41 1107.74 351.60 Z" />
</g>
<g id="#3fef7fff">
<path fill="#3fef7f" fill-opacity="0" d=" M 1055.59 377.09 C 1059.65 375.79 1063.70 374.43 1067.71 372.96 C 1068.76 377.84 1067.33 382.73 1067.15 387.60 C 1069.36 391.91 1074.11 394.44 1075.99 399.03 C 1077.59 403.31 1079.78 407.71 1079.77 412.39 C 1079.22 421.69 1074.94 430.19 1073.56 439.34 C 1072.37 447.81 1071.21 456.35 1071.19 464.92 L 1071.19 465.55 C 1066.82 466.76 1060.74 465.61 1057.15 468.84 C 1053.66 482.27 1055.79 496.73 1050.99 509.94 C 1047.27 508.11 1043.61 504.38 1039.14 505.54 C 1035.34 506.00 1031.25 508.33 1027.56 506.31 C 1024.44 504.88 1021.72 502.28 1018.21 501.92 C 1012.04 502.28 1005.97 503.59 999.85 504.22 C 994.96 504.57 990.03 504.56 985.17 505.19 C 982.05 500.08 980.42 493.32 974.74 490.30 C 970.70 488.32 966.11 487.84 961.82 486.69 C 958.49 479.51 952.75 473.27 952.14 465.03 C 952.69 456.01 943.66 452.35 936.70 449.76 C 932.74 448.64 934.73 443.74 934.38 440.55 C 939.25 440.77 944.17 440.77 948.96 439.68 C 957.06 436.84 963.33 430.14 966.79 422.40 C 973.26 420.29 978.96 416.44 985.35 414.12 C 992.20 411.65 998.06 407.20 1004.42 403.76 C 1009.09 401.04 1014.18 398.88 1018.32 395.33 C 1020.70 392.12 1020.51 387.78 1022.52 384.37 C 1029.20 382.05 1036.52 384.87 1043.31 383.10 C 1047.69 381.80 1051.96 379.91 1055.59 377.09 Z" />
</g>
<g id="#5fcf3ffe">
<path fill="#5fcf3f" fill-opacity="0" d=" M 802.91 409.21 C 804.66 412.98 805.12 417.14 806.15 421.13 C 808.13 427.33 812.92 432.09 817.70 436.28 C 814.19 450.41 812.40 464.92 809.50 479.17 C 810.90 487.52 821.12 490.10 824.38 497.30 C 824.48 504.14 820.12 509.97 817.10 515.82 C 814.78 514.62 812.40 513.56 810.05 512.46 C 802.06 508.67 795.06 503.11 788.10 497.73 C 787.84 497.48 787.32 496.99 787.06 496.74 C 781.26 491.23 775.48 485.57 771.27 478.71 C 765.42 470.31 764.19 459.90 760.99 450.39 C 759.59 445.03 759.17 439.37 761.36 434.17 C 769.89 432.75 778.07 429.44 786.82 429.27 C 788.56 426.85 790.30 424.41 792.11 422.03 C 795.57 417.64 799.10 413.30 802.91 409.21 Z" />
</g>
<g id="#9fcf3fff">
<path fill="#9fcf3f" fill-opacity="0" d=" M 837.77 423.64 C 839.86 424.57 842.07 425.42 843.83 426.95 C 845.64 430.93 839.64 437.26 844.37 440.41 C 849.56 444.97 858.48 447.53 859.62 455.35 C 860.23 464.08 853.11 471.52 853.55 480.22 C 853.87 483.00 856.80 487.00 859.77 484.74 C 864.64 482.35 869.15 476.00 875.31 477.93 C 882.22 479.38 882.87 488.06 888.10 491.86 C 894.65 494.02 901.96 494.82 908.66 492.80 C 913.06 491.52 915.80 487.33 920.03 485.75 C 927.32 488.85 935.17 490.68 943.15 490.05 C 949.54 490.38 956.09 489.78 961.82 486.69 C 966.11 487.84 970.70 488.32 974.74 490.30 C 980.42 493.32 982.05 500.08 985.17 505.19 C 975.27 506.42 966.45 511.44 957.19 514.72 C 952.87 516.36 947.60 516.67 944.19 520.14 C 940.92 523.82 940.58 529.00 938.16 533.15 C 936.40 537.16 932.18 541.35 933.65 546.15 C 936.00 551.49 941.64 554.58 943.53 560.25 C 944.73 563.63 945.64 568.07 943.25 571.20 C 938.91 576.19 932.31 578.71 925.79 578.85 C 912.92 575.54 900.00 571.48 888.66 564.36 C 871.95 553.92 853.77 545.35 839.35 531.68 C 832.69 525.42 825.06 520.24 817.10 515.82 C 820.12 509.97 824.48 504.14 824.38 497.30 C 821.12 490.10 810.90 487.52 809.50 479.17 C 812.40 464.92 814.19 450.41 817.70 436.28 C 824.05 431.52 831.84 428.96 837.77 423.64 Z" />
</g>
<g id="#9f4fbfff">
<path fill="#9f4fbf" fill-opacity="0" d=" M 744.23 434.63 C 749.93 434.44 755.65 434.35 761.36 434.17 C 759.17 439.37 759.59 445.03 760.99 450.39 C 756.29 457.58 753.25 465.89 747.15 472.13 C 738.42 481.38 733.02 493.12 724.64 502.68 C 721.77 498.16 717.41 494.92 713.88 490.97 C 714.23 494.83 714.28 498.81 713.05 502.54 C 708.71 492.16 707.91 480.83 704.76 470.11 C 703.73 466.51 704.72 462.76 706.38 459.53 C 708.29 456.18 706.58 452.38 706.21 448.84 C 708.70 446.32 710.93 443.03 714.53 442.05 C 718.21 441.38 721.68 439.91 725.29 438.97 C 729.41 438.74 733.34 442.53 737.39 440.58 C 740.38 439.57 742.52 437.17 744.23 434.63 Z" />
</g>
<g id="#df0fbffe">
<path fill="#df0fbf" fill-opacity="0" d=" M 747.15 472.13 C 753.25 465.89 756.29 457.58 760.99 450.39 C 764.19 459.90 765.42 470.31 771.27 478.71 C 775.48 485.57 781.26 491.23 787.06 496.74 C 786.42 498.07 785.79 499.41 785.18 500.75 C 786.70 500.31 788.22 499.85 789.76 499.40 C 789.34 498.99 788.52 498.15 788.10 497.73 C 795.06 503.11 802.06 508.67 810.05 512.46 C 806.63 520.26 804.72 528.57 802.91 536.85 C 796.44 531.41 789.50 525.05 780.60 524.69 C 775.65 524.68 771.10 527.64 766.13 527.16 C 760.85 526.18 755.95 523.35 750.42 523.79 C 745.69 523.62 741.45 526.59 736.74 526.40 C 733.40 525.92 733.14 521.13 732.14 518.93 C 730.89 512.97 727.50 507.92 724.64 502.68 C 733.02 493.12 738.42 481.38 747.15 472.13 Z" />
</g>
<g id="#3f6f7fff">
<path fill="#3f6f7f" fill-opacity="0" d=" M 713.88 490.97 C 717.41 494.92 721.77 498.16 724.64 502.68 C 727.50 507.92 730.89 512.97 732.14 518.93 C 733.14 521.13 733.40 525.92 736.74 526.40 C 741.45 526.59 745.69 523.62 750.42 523.79 C 755.95 523.35 760.85 526.18 766.13 527.16 C 771.10 527.64 775.65 524.68 780.60 524.69 C 789.50 525.05 796.44 531.41 802.91 536.85 C 800.73 543.14 797.89 549.16 794.92 555.11 C 792.17 558.06 787.75 557.92 784.16 556.87 C 776.99 555.76 771.27 549.87 763.86 549.92 C 754.02 551.62 744.73 555.44 735.00 557.63 C 728.34 552.43 719.60 553.26 711.70 552.19 C 710.17 560.89 702.76 567.58 694.95 570.97 C 689.68 553.31 685.09 535.44 680.20 517.66 C 677.51 510.24 684.57 502.22 692.03 501.92 C 699.05 500.71 706.89 508.06 713.05 502.54 C 714.28 498.81 714.23 494.83 713.88 490.97 Z" />
</g>
<g id="#5f10bfff">
<path fill="#5f10bf" fill-opacity="0" d=" M 787.06 496.74 C 787.32 496.99 787.84 497.48 788.10 497.73 C 788.52 498.15 789.34 498.99 789.76 499.40 C 788.22 499.85 786.70 500.31 785.18 500.75 C 785.79 499.41 786.42 498.07 787.06 496.74 Z" />
</g>
<g id="#bf6f7ffe">
<path fill="#bf6f7f" fill-opacity="0" d=" M 1018.21 501.92 C 1021.72 502.28 1024.44 504.88 1027.56 506.31 C 1031.25 508.33 1035.34 506.00 1039.14 505.54 C 1043.61 504.38 1047.27 508.11 1050.99 509.94 C 1054.73 512.36 1059.62 513.63 1062.20 517.47 C 1065.48 528.05 1061.82 539.05 1061.15 549.75 C 1065.63 551.55 1070.37 552.62 1074.86 554.37 C 1080.47 556.90 1079.06 563.64 1079.63 568.70 C 1079.77 575.31 1084.60 580.48 1086.09 586.73 C 1087.92 595.66 1084.16 604.41 1084.64 613.34 C 1081.16 616.19 1077.90 619.62 1073.54 621.09 C 1070.41 622.01 1067.16 621.04 1064.12 620.26 C 1065.70 618.15 1067.41 615.91 1067.79 613.22 C 1066.80 610.91 1064.41 609.74 1062.15 609.06 C 1051.46 606.03 1040.22 604.58 1030.10 599.83 C 1022.81 595.41 1016.07 589.73 1007.66 587.53 C 1013.30 585.25 1019.46 582.80 1022.83 577.40 C 1025.45 573.06 1024.13 566.83 1019.68 564.24 C 1014.22 560.85 1007.44 563.26 1001.54 563.36 C 1003.56 559.15 1005.98 555.16 1008.32 551.13 C 1005.20 549.94 1002.05 548.84 998.86 547.90 C 995.30 533.68 993.95 517.98 999.85 504.22 C 1005.97 503.59 1012.04 502.28 1018.21 501.92 Z" />
</g>
<g id="#002f7fff">
<path fill="#002f7f" fill-opacity="0" d=" M 985.17 505.19 C 990.03 504.56 994.96 504.57 999.85 504.22 C 993.95 517.98 995.30 533.68 998.86 547.90 C 1002.05 548.84 1005.20 549.94 1008.32 551.13 C 1005.98 555.16 1003.56 559.15 1001.54 563.36 C 1007.44 563.26 1014.22 560.85 1019.68 564.24 C 1024.13 566.83 1025.45 573.06 1022.83 577.40 C 1019.46 582.80 1013.30 585.25 1007.66 587.53 C 1003.03 589.34 997.61 592.35 997.32 597.96 C 997.75 604.21 1001.96 609.29 1003.63 615.19 C 1005.39 618.93 1003.10 622.92 1001.47 626.25 C 994.15 624.70 991.46 614.34 983.34 615.42 C 971.01 617.84 958.56 619.60 946.02 620.47 C 937.88 620.00 929.69 619.98 921.59 619.21 C 918.74 619.07 918.34 615.89 917.82 613.69 C 917.28 607.61 914.02 602.26 912.15 596.56 C 918.21 591.86 922.07 585.37 925.79 578.85 C 932.31 578.71 938.91 576.19 943.25 571.20 C 945.64 568.07 944.73 563.63 943.53 560.25 C 941.64 554.58 936.00 551.49 933.65 546.15 C 932.18 541.35 936.40 537.16 938.16 533.15 C 940.58 529.00 940.92 523.82 944.19 520.14 C 947.60 516.67 952.87 516.36 957.19 514.72 C 966.45 511.44 975.27 506.42 985.17 505.19 Z" />
</g>
<g id="#00af7fff">
<path fill="#00af7f" fill-opacity="0" d=" M 810.05 512.46 C 812.40 513.56 814.78 514.62 817.10 515.82 C 825.06 520.24 832.69 525.42 839.35 531.68 C 833.70 536.51 829.41 542.71 823.70 547.48 C 819.11 550.32 814.56 553.25 809.71 555.61 C 804.93 557.64 799.76 555.81 794.92 555.11 C 797.89 549.16 800.73 543.14 802.91 536.85 C 804.72 528.57 806.63 520.26 810.05 512.46 Z" />
</g>
<g id="#002f00ff">
<path fill="#002f00" fill-opacity="0" d=" M 839.35 531.68 C 853.77 545.35 871.95 553.92 888.66 564.36 C 900.00 571.48 912.92 575.54 925.79 578.85 C 922.07 585.37 918.21 591.86 912.15 596.56 C 914.02 602.26 917.28 607.61 917.82 613.69 C 913.39 613.95 909.04 613.03 904.65 612.81 C 899.72 612.84 896.23 616.92 893.14 620.22 C 892.87 620.15 892.33 620.02 892.06 619.95 C 877.30 617.83 864.41 609.72 851.94 602.09 C 846.24 598.75 840.10 595.39 836.57 589.57 C 834.09 586.01 832.43 581.82 829.23 578.82 C 826.50 577.15 823.19 576.91 820.16 576.12 C 818.49 566.22 824.43 557.31 823.70 547.48 C 829.41 542.71 833.70 536.51 839.35 531.68 M 853.17 561.17 C 852.64 562.79 853.19 563.34 854.83 562.83 C 855.34 561.20 854.79 560.64 853.17 561.17 Z" />
</g>
<g id="#df8fbfff">
<path fill="#df8fbf" fill-opacity="0" d=" M 809.71 555.61 C 814.56 553.25 819.11 550.32 823.70 547.48 C 824.43 557.31 818.49 566.22 820.16 576.12 C 821.35 582.60 818.59 588.68 816.53 594.65 C 814.15 600.57 818.95 605.95 820.98 611.28 C 813.54 614.24 807.85 619.93 801.35 624.39 C 792.86 630.03 785.57 638.11 782.52 647.99 C 781.63 644.03 780.49 640.04 778.38 636.55 C 775.14 631.10 767.11 631.80 763.97 626.22 C 760.55 620.09 763.61 612.85 764.51 606.49 C 765.43 602.94 767.05 599.26 766.34 595.57 C 762.66 585.90 750.82 583.74 746.36 574.71 C 743.22 568.67 740.95 561.58 735.00 557.63 C 744.73 555.44 754.02 551.62 763.86 549.92 C 771.27 549.87 776.99 555.76 784.16 556.87 C 787.75 557.92 792.17 558.06 794.92 555.11 C 799.76 555.81 804.93 557.64 809.71 555.61 Z" />
</g>
<g id="#3f2f00ff">
<path fill="#3f2f00" fill-opacity="0" d=" M 711.70 552.19 C 719.60 553.26 728.34 552.43 735.00 557.63 C 740.95 561.58 743.22 568.67 746.36 574.71 C 750.82 583.74 762.66 585.90 766.34 595.57 C 767.05 599.26 765.43 602.94 764.51 606.49 C 757.50 611.15 749.89 614.95 741.42 615.87 C 731.08 617.31 724.01 625.79 718.51 633.90 C 713.99 631.99 710.24 628.74 707.27 624.89 C 704.35 619.69 698.17 618.52 693.69 615.19 C 691.88 611.27 693.70 606.11 690.18 602.88 C 686.10 598.01 679.11 597.24 673.42 599.38 C 675.44 597.09 677.69 594.98 679.46 592.48 C 682.24 587.42 675.91 581.58 679.83 576.87 C 683.41 572.33 689.94 572.92 694.95 570.97 C 702.76 567.58 710.17 560.89 711.70 552.19 Z" />
</g>
<g id="#dfcfbfff">
<path fill="#dfcfbf" fill-opacity="0" d=" M 853.17 561.17 C 854.79 560.64 855.34 561.20 854.83 562.83 C 853.19 563.34 852.64 562.79 853.17 561.17 Z" />
</g>
<g id="#1fcfbfff">
<path fill="#1fcfbf" fill-opacity="0" d=" M 820.16 576.12 C 823.19 576.91 826.50 577.15 829.23 578.82 C 832.43 581.82 834.09 586.01 836.57 589.57 C 840.10 595.39 846.24 598.75 851.94 602.09 C 864.41 609.72 877.30 617.83 892.06 619.95 C 890.51 625.39 889.10 630.91 888.84 636.59 C 888.44 639.90 889.05 644.43 885.88 646.71 C 882.20 649.31 877.53 650.04 873.95 652.83 C 862.85 662.71 848.70 668.09 834.39 671.34 C 832.79 666.76 832.77 660.60 827.92 658.07 C 821.67 655.19 814.60 655.76 807.98 654.54 C 799.43 653.03 791.16 650.25 782.62 648.68 L 782.52 647.99 C 785.57 638.11 792.86 630.03 801.35 624.39 C 807.85 619.93 813.54 614.24 820.98 611.28 C 818.95 605.95 814.15 600.57 816.53 594.65 C 818.59 588.68 821.35 582.60 820.16 576.12 Z" />
</g>
<g id="#006f7fff">
<path fill="#006f7f" fill-opacity="0" d=" M 997.32 597.96 C 997.61 592.35 1003.03 589.34 1007.66 587.53 C 1016.07 589.73 1022.81 595.41 1030.10 599.83 C 1040.22 604.58 1051.46 606.03 1062.15 609.06 C 1064.41 609.74 1066.80 610.91 1067.79 613.22 C 1067.41 615.91 1065.70 618.15 1064.12 620.26 C 1057.87 625.23 1051.13 630.03 1047.00 637.04 C 1044.20 641.61 1042.63 646.77 1040.90 651.81 C 1038.48 657.24 1032.31 658.82 1027.35 661.06 C 1026.43 654.39 1028.67 647.93 1029.36 641.37 C 1022.18 645.26 1016.15 651.14 1008.33 653.85 C 1004.77 651.10 997.03 649.61 998.90 643.74 C 1002.47 639.06 1006.49 634.62 1008.87 629.16 C 1006.41 628.15 1003.94 627.21 1001.47 626.25 C 1003.10 622.92 1005.39 618.93 1003.63 615.19 C 1001.96 609.29 997.75 604.21 997.32 597.96 Z" />
</g>
<g id="#3f6f00ff">
<path fill="#3f6f00" fill-opacity="0" d=" M 673.42 599.38 C 679.11 597.24 686.10 598.01 690.18 602.88 C 693.70 606.11 691.88 611.27 693.69 615.19 C 698.17 618.52 704.35 619.69 707.27 624.89 C 702.23 627.81 695.70 630.60 694.18 636.75 C 691.90 643.79 695.70 650.40 697.44 657.08 C 688.23 661.03 678.45 670.59 667.64 666.18 C 659.08 662.55 649.20 664.07 640.90 659.68 C 641.82 655.71 644.64 651.30 642.74 647.25 C 638.73 642.26 632.12 640.41 627.00 636.84 C 633.00 633.76 639.37 631.18 644.35 626.45 C 648.66 620.49 649.31 612.87 652.49 606.39 C 654.57 602.35 659.68 603.67 663.38 603.43 C 667.22 603.69 670.11 600.81 673.42 599.38 Z" />
</g>
<g id="#7fef00ff">
<path fill="#7fef00" fill-opacity="0" d=" M 741.42 615.87 C 749.89 614.95 757.50 611.15 764.51 606.49 C 763.61 612.85 760.55 620.09 763.97 626.22 C 767.11 631.80 775.14 631.10 778.38 636.55 C 780.49 640.04 781.63 644.03 782.52 647.99 L 782.62 648.68 C 778.71 647.99 774.44 646.79 770.65 648.61 C 764.99 651.17 762.49 658.12 756.43 659.90 C 750.41 661.26 744.61 663.72 740.10 668.02 C 736.03 668.96 731.85 669.36 727.76 670.20 C 715.54 673.20 705.24 680.99 693.04 684.08 C 691.87 677.95 695.60 672.74 698.26 667.57 C 700.27 664.18 698.18 660.49 697.44 657.08 C 695.70 650.40 691.90 643.79 694.18 636.75 C 695.70 630.60 702.23 627.81 707.27 624.89 C 710.24 628.74 713.99 631.99 718.51 633.90 C 724.01 625.79 731.08 617.31 741.42 615.87 Z" />
</g>
<g id="#9f4f3fff">
<path fill="#9f4f3f" fill-opacity="0" d=" M 893.14 620.22 C 896.23 616.92 899.72 612.84 904.65 612.81 C 909.04 613.03 913.39 613.95 917.82 613.69 C 918.34 615.89 918.74 619.07 921.59 619.21 C 929.69 619.98 937.88 620.00 946.02 620.47 C 943.51 624.41 940.33 628.05 938.71 632.48 C 937.12 638.41 940.80 643.94 943.53 648.91 C 945.36 656.40 954.39 661.34 951.84 669.74 C 939.99 665.38 929.57 657.74 917.30 654.39 C 913.29 652.19 909.03 649.40 907.55 644.82 C 905.48 639.40 906.50 632.95 902.87 628.13 C 900.10 624.96 896.78 622.29 893.14 620.22 Z" />
</g>
<g id="#bfaf00ff">
<path fill="#bfaf00" fill-opacity="0" d=" M 1073.54 621.09 C 1077.90 619.62 1081.16 616.19 1084.64 613.34 C 1085.00 627.05 1082.81 640.59 1081.07 654.13 C 1080.50 659.08 1076.64 662.62 1073.68 666.29 C 1083.60 673.12 1092.59 681.67 1104.05 685.95 C 1109.61 688.18 1115.65 689.22 1120.90 692.20 C 1125.23 694.78 1125.32 700.58 1124.94 705.05 C 1123.04 714.21 1121.18 723.39 1119.66 732.63 C 1114.03 735.86 1108.39 739.11 1103.15 742.94 C 1104.16 736.44 1105.44 729.96 1105.57 723.37 C 1097.22 727.72 1087.12 731.45 1077.80 728.35 C 1071.54 726.63 1069.35 719.85 1065.61 715.23 C 1063.49 711.96 1059.69 710.62 1056.36 708.96 C 1050.86 707.29 1049.10 701.60 1046.39 697.21 C 1038.25 691.02 1028.33 686.07 1023.69 676.40 C 1031.30 671.79 1040.31 670.96 1048.38 667.52 C 1045.83 662.30 1043.34 657.07 1040.90 651.81 C 1042.63 646.77 1044.20 641.61 1047.00 637.04 C 1051.13 630.03 1057.87 625.23 1064.12 620.26 C 1067.16 621.04 1070.41 622.01 1073.54 621.09 Z" />
</g>
<g id="#dfcf3fff">
<path fill="#dfcf3f" fill-opacity="0" d=" M 983.34 615.42 C 991.46 614.34 994.15 624.70 1001.47 626.25 C 1003.94 627.21 1006.41 628.15 1008.87 629.16 C 1006.49 634.62 1002.47 639.06 998.90 643.74 C 997.03 649.61 1004.77 651.10 1008.33 653.85 C 1003.96 659.70 998.80 665.05 992.77 669.21 C 987.33 667.37 981.63 665.57 977.22 661.79 C 973.75 657.51 975.04 651.56 974.38 646.49 C 970.68 648.67 968.14 652.09 965.37 655.25 C 963.80 657.24 960.91 656.60 958.81 656.03 C 953.50 654.16 948.47 651.57 943.53 648.91 C 940.80 643.94 937.12 638.41 938.71 632.48 C 940.33 628.05 943.51 624.41 946.02 620.47 C 958.56 619.60 971.01 617.84 983.34 615.42 Z" />
</g>
<g id="#bf2f00ff">
<path fill="#bf2f00" fill-opacity="0" d=" M 892.06 619.95 C 892.33 620.02 892.87 620.15 893.14 620.22 C 896.78 622.29 900.10 624.96 902.87 628.13 C 906.50 632.95 905.48 639.40 907.55 644.82 C 909.03 649.40 913.29 652.19 917.30 654.39 C 915.37 660.64 912.27 666.80 912.68 673.54 C 914.23 678.54 920.51 680.66 921.38 685.92 C 921.38 694.80 917.28 703.80 910.05 709.12 C 905.53 712.39 901.92 716.67 898.56 721.08 C 896.29 723.89 893.89 726.59 891.45 729.25 C 890.63 726.48 889.79 723.73 888.90 721.00 C 884.35 720.43 878.30 719.21 877.32 713.84 C 877.85 707.38 880.49 701.26 882.04 695.01 C 876.06 692.73 868.26 689.08 868.37 681.66 C 868.80 671.85 872.59 662.52 873.95 652.83 C 877.53 650.04 882.20 649.31 885.88 646.71 C 889.05 644.43 888.44 639.90 888.84 636.59 C 889.10 630.91 890.51 625.39 892.06 619.95 Z" />
</g>
<g id="#7f2f7ffe">
<path fill="#7f2f7f" fill-opacity="0" d=" M 621.20 640.10 C 622.57 638.48 624.61 635.75 627.00 636.84 C 632.12 640.41 638.73 642.26 642.74 647.25 C 644.64 651.30 641.82 655.71 640.90 659.68 C 649.20 664.07 659.08 662.55 667.64 666.18 C 678.45 670.59 688.23 661.03 697.44 657.08 C 698.18 660.49 700.27 664.18 698.26 667.57 C 695.60 672.74 691.87 677.95 693.04 684.08 C 691.23 687.21 689.54 690.42 687.85 693.61 C 675.79 693.55 664.23 697.40 652.28 698.28 C 645.74 699.14 641.58 692.35 635.39 691.57 C 630.43 690.95 625.34 691.50 620.52 692.71 C 615.56 693.95 612.54 698.71 607.84 700.45 C 605.29 700.20 603.02 698.87 600.73 697.84 C 597.15 686.67 596.01 674.30 600.27 663.17 C 605.89 654.31 615.12 648.58 621.20 640.10 Z" />
</g>
<g id="#bfaf7fff">
<path fill="#bfaf7f" fill-opacity="0" d=" M 1008.33 653.85 C 1016.15 651.14 1022.18 645.26 1029.36 641.37 C 1028.67 647.93 1026.43 654.39 1027.35 661.06 C 1032.31 658.82 1038.48 657.24 1040.90 651.81 C 1043.34 657.07 1045.83 662.30 1048.38 667.52 C 1040.31 670.96 1031.30 671.79 1023.69 676.40 C 1028.33 686.07 1038.25 691.02 1046.39 697.21 C 1044.59 700.54 1042.66 703.79 1040.85 707.12 C 1032.62 707.18 1023.78 704.21 1015.86 707.75 C 1004.90 712.00 996.61 720.79 989.32 729.68 C 983.03 724.81 977.56 718.89 975.07 711.19 C 976.69 710.71 978.31 710.22 979.95 709.75 C 976.53 703.34 969.68 695.61 974.15 688.12 C 979.73 681.28 985.12 673.91 992.77 669.21 C 998.80 665.05 1003.96 659.70 1008.33 653.85 Z" />
</g>
<g id="#df8f3ffe">
<path fill="#df8f3f" fill-opacity="0" d=" M 770.65 648.61 C 774.44 646.79 778.71 647.99 782.62 648.68 C 791.16 650.25 799.43 653.03 807.98 654.54 C 814.60 655.76 821.67 655.19 827.92 658.07 C 832.77 660.60 832.79 666.76 834.39 671.34 C 829.46 672.33 827.53 677.05 827.27 681.57 C 826.68 688.24 823.74 696.48 828.93 702.07 C 833.51 709.25 842.67 709.33 848.98 713.98 C 852.15 718.80 852.74 724.78 854.62 730.17 C 847.74 730.61 842.04 724.46 835.11 725.92 C 827.72 727.31 821.59 732.23 816.26 737.27 C 810.86 741.30 813.54 749.33 809.03 754.00 C 803.73 759.50 796.44 762.38 789.83 765.95 C 788.81 761.99 788.83 757.82 787.59 753.91 C 785.86 749.45 783.10 745.49 781.25 741.09 C 779.33 742.33 777.68 744.05 775.58 744.96 C 772.91 745.34 770.26 744.47 767.67 743.99 C 766.06 740.26 765.16 735.88 761.69 733.39 C 757.22 729.12 750.18 725.73 749.13 719.00 C 750.44 714.08 754.86 710.65 757.98 706.78 C 752.56 704.69 747.04 702.13 743.66 697.17 C 746.35 694.40 750.06 692.38 751.85 688.83 C 751.69 685.06 747.12 683.41 745.10 680.74 C 740.94 677.88 741.31 672.40 740.10 668.02 C 744.61 663.72 750.41 661.26 756.43 659.90 C 762.49 658.12 764.99 651.17 770.65 648.61 M 810.72 701.16 C 811.68 702.64 813.04 703.79 814.33 704.99 C 814.91 703.34 815.49 701.70 816.08 700.07 C 814.27 700.33 812.46 700.64 810.72 701.16 Z" />
</g>
<g id="#1f4fbfff">
<path fill="#1f4fbf" fill-opacity="0" d=" M 965.37 655.25 C 968.14 652.09 970.68 648.67 974.38 646.49 C 975.04 651.56 973.75 657.51 977.22 661.79 C 981.63 665.57 987.33 667.37 992.77 669.21 C 985.12 673.91 979.73 681.28 974.15 688.12 C 969.68 695.61 976.53 703.34 979.95 709.75 C 978.31 710.22 976.69 710.71 975.07 711.19 C 967.51 713.16 960.88 717.52 953.85 720.76 C 950.48 722.19 946.99 720.08 943.69 719.44 C 938.94 717.62 934.42 721.10 930.91 723.90 C 925.43 728.21 922.95 734.90 920.43 741.14 C 915.96 738.83 911.16 736.92 907.31 733.61 C 903.87 729.81 901.08 725.51 898.56 721.08 C 901.92 716.67 905.53 712.39 910.05 709.12 C 917.28 703.80 921.38 694.80 921.38 685.92 C 920.51 680.66 914.23 678.54 912.68 673.54 C 912.27 666.80 915.37 660.64 917.30 654.39 C 929.57 657.74 939.99 665.38 951.84 669.74 C 954.39 661.34 945.36 656.40 943.53 648.91 C 948.47 651.57 953.50 654.16 958.81 656.03 C 960.91 656.60 963.80 657.24 965.37 655.25 Z" />
</g>
<g id="#bf6f00ff">
<path fill="#bf6f00" fill-opacity="0" d=" M 834.39 671.34 C 848.70 668.09 862.85 662.71 873.95 652.83 C 872.59 662.52 868.80 671.85 868.37 681.66 C 868.26 689.08 876.06 692.73 882.04 695.01 C 880.49 701.26 877.85 707.38 877.32 713.84 C 878.30 719.21 884.35 720.43 888.90 721.00 C 889.79 723.73 890.63 726.48 891.45 729.25 C 884.13 733.49 875.90 728.73 868.44 727.91 C 863.62 726.77 859.15 729.05 854.62 730.17 C 852.74 724.78 852.15 718.80 848.98 713.98 C 842.67 709.33 833.51 709.25 828.93 702.07 C 823.74 696.48 826.68 688.24 827.27 681.57 C 827.53 677.05 829.46 672.33 834.39 671.34 Z" />
</g>
<g id="#df0f3ffe">
<path fill="#df0f3f" fill-opacity="0" d=" M 727.76 670.20 C 731.85 669.36 736.03 668.96 740.10 668.02 C 741.31 672.40 740.94 677.88 745.10 680.74 C 747.12 683.41 751.69 685.06 751.85 688.83 C 750.06 692.38 746.35 694.40 743.66 697.17 C 747.04 702.13 752.56 704.69 757.98 706.78 C 754.86 710.65 750.44 714.08 749.13 719.00 C 750.18 725.73 757.22 729.12 761.69 733.39 C 765.16 735.88 766.06 740.26 767.67 743.99 C 761.59 746.63 755.35 749.14 749.95 753.03 C 743.63 757.80 744.98 767.14 739.89 772.82 C 736.49 774.84 732.21 774.40 728.46 775.10 C 721.43 775.76 715.97 781.03 709.09 782.28 C 702.62 784.21 695.84 783.59 689.26 782.80 C 679.85 782.22 670.79 779.04 661.30 779.15 C 659.90 769.53 663.07 760.42 665.07 751.20 C 665.79 746.51 665.11 741.74 665.84 737.06 C 666.47 733.52 670.09 731.66 673.35 731.18 C 680.45 730.53 685.51 725.00 691.95 722.67 C 698.59 720.77 705.55 720.35 712.30 718.89 C 710.86 715.29 709.96 710.93 706.62 708.50 C 700.11 703.87 693.39 699.41 687.85 693.61 C 689.54 690.42 691.23 687.21 693.04 684.08 C 705.24 680.99 715.54 673.20 727.76 670.20 Z" />
</g>
<g id="#00af00ff">
<path fill="#00af00" fill-opacity="0" d=" M 620.52 692.71 C 625.34 691.50 630.43 690.95 635.39 691.57 C 641.58 692.35 645.74 699.14 652.28 698.28 C 664.23 697.40 675.79 693.55 687.85 693.61 C 693.39 699.41 700.11 703.87 706.62 708.50 C 709.96 710.93 710.86 715.29 712.30 718.89 C 705.55 720.35 698.59 720.77 691.95 722.67 C 685.51 725.00 680.45 730.53 673.35 731.18 C 670.09 731.66 666.47 733.52 665.84 737.06 C 665.11 741.74 665.79 746.51 665.07 751.20 C 660.80 755.01 656.08 758.32 651.05 761.04 C 649.15 754.89 650.03 748.15 647.82 742.15 C 643.77 735.77 635.02 740.33 629.24 738.61 C 622.71 734.06 620.52 725.54 614.94 720.09 C 611.55 716.98 606.89 715.67 603.62 712.42 C 601.77 710.35 600.70 707.69 600.10 705.02 C 600.00 702.54 600.26 700.07 600.25 697.60 L 600.73 697.84 C 603.02 698.87 605.29 700.20 607.84 700.45 C 612.54 698.71 615.56 693.95 620.52 692.71 M 645.68 703.05 C 646.78 703.74 647.88 704.45 648.98 705.19 C 649.35 704.06 649.73 702.92 650.12 701.80 C 648.63 702.19 647.15 702.61 645.68 703.05 Z" />
</g>
<g id="#5fcfbfff">
<path fill="#5fcfbf" fill-opacity="0" d=" M 1046.39 697.21 C 1049.10 701.60 1050.86 707.29 1056.36 708.96 C 1061.10 717.02 1057.81 726.06 1055.04 734.05 C 1052.40 741.91 1041.91 741.32 1037.25 746.91 C 1035.82 758.42 1036.06 770.11 1033.70 781.53 C 1026.31 786.89 1021.43 796.22 1011.42 797.22 C 1013.01 788.75 1013.02 780.08 1013.58 771.50 C 1008.97 768.75 1005.60 764.29 1000.87 761.81 C 996.96 761.60 993.15 763.12 989.78 764.98 C 987.76 764.53 985.74 764.08 983.74 763.64 C 984.02 754.93 990.99 748.76 993.85 741.00 C 995.62 736.50 992.21 732.63 989.32 729.68 C 996.61 720.79 1004.90 712.00 1015.86 707.75 C 1023.78 704.21 1032.62 707.18 1040.85 707.12 C 1042.66 703.79 1044.59 700.54 1046.39 697.21 Z" />
</g>
<g id="#5f8f3fff">
<path fill="#5f8f3f" fill-opacity="0" d=" M 810.72 701.16 C 812.46 700.64 814.27 700.33 816.08 700.07 C 815.49 701.70 814.91 703.34 814.33 704.99 C 813.04 703.79 811.68 702.64 810.72 701.16 Z" />
</g>
<g id="#7f2f00ff">
<path fill="#7f2f00" fill-opacity="0" d=" M 645.68 703.05 C 647.15 702.61 648.63 702.19 650.12 701.80 C 649.73 702.92 649.35 704.06 648.98 705.19 C 647.88 704.45 646.78 703.74 645.68 703.05 Z" />
</g>
<g id="#7f2f3fff">
<path fill="#7f2f3f" fill-opacity="0" d=" M 600.10 705.02 C 600.70 707.69 601.77 710.35 603.62 712.42 C 606.89 715.67 611.55 716.98 614.94 720.09 C 620.52 725.54 622.71 734.06 629.24 738.61 C 635.02 740.33 643.77 735.77 647.82 742.15 C 650.03 748.15 649.15 754.89 651.05 761.04 C 656.08 758.32 660.80 755.01 665.07 751.20 C 663.07 760.42 659.90 769.53 661.30 779.15 C 651.87 780.52 643.63 785.70 635.08 789.56 C 635.51 791.19 635.96 792.83 636.41 794.47 C 634.35 795.57 632.30 796.71 630.27 797.87 C 630.50 801.20 631.32 804.60 630.66 807.93 C 629.69 812.93 626.21 818.14 628.39 823.26 C 631.10 829.60 634.14 835.79 637.14 842.00 C 631.89 844.56 626.76 848.95 620.46 847.21 C 615.36 846.05 610.45 844.19 605.39 842.90 C 597.14 842.74 595.04 834.12 592.40 828.05 C 590.14 829.05 587.89 830.08 585.63 831.07 C 571.91 812.85 563.43 791.55 551.81 772.06 C 548.49 768.97 550.51 764.54 552.32 761.38 C 555.36 758.59 561.03 759.05 562.54 754.51 C 565.22 748.66 570.01 744.12 572.39 738.10 C 576.29 732.16 576.14 724.65 579.61 718.56 C 582.02 716.63 585.31 716.44 587.99 714.98 C 592.85 712.80 596.55 708.86 600.10 705.02 Z" />
</g>
<g id="#bf2f7fff">
<path fill="#bf2f7f" fill-opacity="0" d=" M 1056.36 708.96 C 1059.69 710.62 1063.49 711.96 1065.61 715.23 C 1069.35 719.85 1071.54 726.63 1077.80 728.35 C 1087.12 731.45 1097.22 727.72 1105.57 723.37 C 1105.44 729.96 1104.16 736.44 1103.15 742.94 C 1102.24 747.75 1101.69 752.66 1100.43 757.41 C 1098.98 763.69 1091.96 765.75 1087.32 769.31 C 1088.75 773.73 1091.19 778.27 1090.17 783.05 C 1089.08 788.68 1087.95 794.33 1087.09 800.00 C 1086.59 802.51 1086.47 805.47 1084.28 807.19 C 1079.99 810.93 1075.24 814.14 1070.47 817.21 C 1065.55 818.20 1060.35 816.80 1055.61 818.97 C 1052.48 819.67 1049.56 821.68 1046.28 821.38 C 1041.55 819.66 1038.52 814.29 1039.47 809.35 C 1040.72 800.54 1041.36 791.64 1043.14 782.91 C 1039.96 782.41 1036.84 781.99 1033.70 781.53 C 1036.06 770.11 1035.82 758.42 1037.25 746.91 C 1041.91 741.32 1052.40 741.91 1055.04 734.05 C 1057.81 726.06 1061.10 717.02 1056.36 708.96 Z" />
</g>
<g id="#5f4f3fff">
<path fill="#5f4f3f" fill-opacity="0" d=" M 953.85 720.76 C 960.88 717.52 967.51 713.16 975.07 711.19 C 977.56 718.89 983.03 724.81 989.32 729.68 C 992.21 732.63 995.62 736.50 993.85 741.00 C 990.99 748.76 984.02 754.93 983.74 763.64 C 985.74 764.08 987.76 764.53 989.78 764.98 C 983.41 771.85 972.53 772.25 967.32 780.30 C 965.52 782.53 964.00 785.06 961.57 786.66 C 955.43 787.01 949.27 786.84 943.16 787.49 C 938.58 780.15 932.49 773.46 924.75 769.43 C 918.39 766.27 909.10 765.40 906.96 757.22 C 912.43 752.34 918.63 748.24 923.35 742.58 C 922.62 742.22 921.16 741.50 920.43 741.14 C 922.95 734.90 925.43 728.21 930.91 723.90 C 934.42 721.10 938.94 717.62 943.69 719.44 C 946.99 720.08 950.48 722.19 953.85 720.76 Z" />
</g>
<g id="#00ef00ff">
<path fill="#00ef00" fill-opacity="0" d=" M 891.45 729.25 C 893.89 726.59 896.29 723.89 898.56 721.08 C 901.08 725.51 903.87 729.81 907.31 733.61 C 911.16 736.92 915.96 738.83 920.43 741.14 C 921.16 741.50 922.62 742.22 923.35 742.58 C 918.63 748.24 912.43 752.34 906.96 757.22 C 904.36 758.69 902.41 761.94 899.32 762.30 C 895.02 761.64 891.21 759.20 887.19 757.68 C 884.71 761.40 882.27 765.17 879.83 768.93 C 882.68 772.51 885.46 776.15 887.99 779.98 C 884.57 782.11 881.01 784.02 877.48 785.94 C 872.22 780.04 866.50 774.25 859.41 770.58 C 855.79 768.58 852.10 771.45 848.87 772.90 C 851.07 776.24 853.00 779.73 854.74 783.34 C 849.45 787.30 843.99 791.01 838.75 795.03 C 831.21 794.33 823.50 794.08 816.26 791.70 C 804.68 787.35 794.06 778.65 790.02 766.65 L 789.83 765.95 C 796.44 762.38 803.73 759.50 809.03 754.00 C 813.54 749.33 810.86 741.30 816.26 737.27 C 821.59 732.23 827.72 727.31 835.11 725.92 C 842.04 724.46 847.74 730.61 854.62 730.17 C 859.15 729.05 863.62 726.77 868.44 727.91 C 875.90 728.73 884.13 733.49 891.45 729.25 Z" />
</g>
<g id="#9fcfbfff">
<path fill="#9fcfbf" fill-opacity="0" d=" M 775.58 744.96 C 777.68 744.05 779.33 742.33 781.25 741.09 C 783.10 745.49 785.86 749.45 787.59 753.91 C 788.83 757.82 788.81 761.99 789.83 765.95 L 790.02 766.65 C 783.08 770.61 776.61 775.35 770.62 780.63 C 763.01 787.97 757.47 797.11 752.10 806.13 C 754.89 813.79 756.45 821.82 759.13 829.51 C 755.63 827.02 751.38 828.25 747.56 829.08 C 746.08 832.04 745.25 836.09 741.75 837.32 C 737.93 838.75 733.93 839.64 730.05 840.84 C 727.33 832.58 725.12 824.13 721.59 816.18 C 717.54 811.45 711.67 808.75 706.94 804.77 C 708.33 800.97 713.94 794.03 708.13 791.79 C 701.88 790.41 696.38 795.32 690.41 796.23 C 689.94 791.76 689.62 787.27 689.26 782.80 C 695.84 783.59 702.62 784.21 709.09 782.28 C 715.97 781.03 721.43 775.76 728.46 775.10 C 732.21 774.40 736.49 774.84 739.89 772.82 C 744.98 767.14 743.63 757.80 749.95 753.03 C 755.35 749.14 761.59 746.63 767.67 743.99 C 770.26 744.47 772.91 745.34 775.58 744.96 Z" />
</g>
<g id="#7faf00ff">
<path fill="#7faf00" fill-opacity="0" d=" M 899.32 762.30 C 902.41 761.94 904.36 758.69 906.96 757.22 C 909.10 765.40 918.39 766.27 924.75 769.43 C 932.49 773.46 938.58 780.15 943.16 787.49 C 949.27 786.84 955.43 787.01 961.57 786.66 C 960.33 787.56 959.12 788.47 957.91 789.39 C 960.35 792.75 963.82 795.74 964.76 799.93 C 963.97 803.62 960.19 805.56 956.93 806.67 C 952.02 808.35 946.46 806.43 941.76 808.80 C 939.09 811.17 939.78 815.23 939.59 818.44 C 938.20 820.58 936.79 822.69 935.43 824.85 C 930.13 823.01 925.89 818.51 920.31 817.57 C 914.91 818.66 915.60 825.80 911.88 828.90 C 908.98 832.55 904.62 828.67 901.27 827.79 C 895.97 825.58 891.20 830.37 888.36 834.32 C 883.61 841.45 876.94 847.01 872.20 854.14 C 870.21 856.87 868.45 860.02 865.42 861.72 C 862.21 863.07 858.55 862.87 855.21 863.46 C 857.49 875.89 859.73 888.36 861.05 900.95 C 853.61 899.33 847.48 893.85 843.78 887.37 C 841.46 882.15 840.76 876.37 839.81 870.79 C 838.71 864.38 838.82 857.87 839.29 851.41 C 839.38 843.28 845.46 836.40 844.57 828.15 C 843.88 820.19 837.13 814.83 834.28 807.76 C 834.98 803.29 836.35 798.87 838.75 795.03 C 843.99 791.01 849.45 787.30 854.74 783.34 C 853.00 779.73 851.07 776.24 848.87 772.90 C 852.10 771.45 855.79 768.58 859.41 770.58 C 866.50 774.25 872.22 780.04 877.48 785.94 C 881.01 784.02 884.57 782.11 887.99 779.98 C 885.46 776.15 882.68 772.51 879.83 768.93 C 882.27 765.17 884.71 761.40 887.19 757.68 C 891.21 759.20 895.02 761.64 899.32 762.30 Z" />
</g>
<g id="#1f4f3fff">
<path fill="#1f4f3f" fill-opacity="0" d=" M 989.78 764.98 C 993.15 763.12 996.96 761.60 1000.87 761.81 C 1005.60 764.29 1008.97 768.75 1013.58 771.50 C 1013.02 780.08 1013.01 788.75 1011.42 797.22 C 1007.02 804.04 1011.09 811.80 1010.70 819.21 C 1010.35 826.08 1009.59 833.05 1007.19 839.56 C 1001.81 839.81 996.49 840.88 991.35 842.41 C 988.98 843.31 985.95 844.11 985.09 846.83 C 982.94 853.89 982.30 861.50 979.01 868.20 C 976.18 864.79 973.73 861.15 970.54 858.10 C 970.42 849.98 970.41 841.86 970.81 833.75 C 960.06 829.35 949.01 825.45 939.59 818.44 C 939.78 815.23 939.09 811.17 941.76 808.80 C 946.46 806.43 952.02 808.35 956.93 806.67 C 960.19 805.56 963.97 803.62 964.76 799.93 C 963.82 795.74 960.35 792.75 957.91 789.39 C 959.12 788.47 960.33 787.56 961.57 786.66 C 964.00 785.06 965.52 782.53 967.32 780.30 C 972.53 772.25 983.41 771.85 989.78 764.98 Z" />
</g>
<g id="#3faf00ff">
<path fill="#3faf00" fill-opacity="0" d=" M 770.62 780.63 C 776.61 775.35 783.08 770.61 790.02 766.65 C 794.06 778.65 804.68 787.35 816.26 791.70 C 823.50 794.08 831.21 794.33 838.75 795.03 C 836.35 798.87 834.98 803.29 834.28 807.76 C 837.13 814.83 843.88 820.19 844.57 828.15 C 845.46 836.40 839.38 843.28 839.29 851.41 C 838.82 857.87 838.71 864.38 839.81 870.79 C 835.48 871.51 831.20 873.91 826.75 873.12 C 819.37 870.80 825.32 858.71 817.38 857.75 C 810.60 857.05 803.67 857.85 796.98 856.12 C 790.11 854.74 780.57 853.11 779.42 844.72 C 778.06 840.72 776.98 836.68 775.88 832.65 C 770.80 833.43 765.37 834.85 760.49 832.61 C 759.92 831.61 759.47 830.58 759.13 829.51 C 756.45 821.82 754.89 813.79 752.10 806.13 C 757.47 797.11 763.01 787.97 770.62 780.63 Z" />
</g>
<g id="#bfef7fff">
<path fill="#bfef7f" fill-opacity="0" d=" M 635.08 789.56 C 643.63 785.70 651.87 780.52 661.30 779.15 C 670.79 779.04 679.85 782.22 689.26 782.80 C 689.62 787.27 689.94 791.76 690.41 796.23 C 696.38 795.32 701.88 790.41 708.13 791.79 C 713.94 794.03 708.33 800.97 706.94 804.77 C 711.67 808.75 717.54 811.45 721.59 816.18 C 725.12 824.13 727.33 832.58 730.05 840.84 C 727.09 843.63 723.55 846.75 723.60 851.18 C 723.64 855.46 722.70 860.20 718.95 862.81 C 714.16 862.97 711.94 857.83 709.40 854.65 C 703.17 857.23 697.87 861.47 692.17 864.98 C 688.68 866.40 683.85 865.75 681.79 862.29 C 680.02 859.42 678.81 856.26 677.53 853.16 C 673.89 853.26 669.60 852.82 666.96 855.91 C 664.21 857.97 662.24 862.54 658.22 861.69 C 653.82 860.82 651.07 856.88 647.97 854.02 C 644.33 850.05 639.47 847.03 637.14 842.00 C 634.14 835.79 631.10 829.60 628.39 823.26 C 626.21 818.14 629.69 812.93 630.66 807.93 C 631.32 804.60 630.50 801.20 630.27 797.87 C 632.30 796.71 634.35 795.57 636.41 794.47 C 635.96 792.83 635.51 791.19 635.08 789.56 Z" />
</g>
<g id="#3f2f7fff">
<path fill="#3f2f7f" fill-opacity="0" d=" M 920.31 817.57 C 925.89 818.51 930.13 823.01 935.43 824.85 C 936.79 822.69 938.20 820.58 939.59 818.44 C 949.01 825.45 960.06 829.35 970.81 833.75 C 970.41 841.86 970.42 849.98 970.54 858.10 C 969.10 859.46 967.70 860.84 966.28 862.22 C 966.79 869.17 966.10 876.09 966.08 883.04 C 966.00 887.22 969.59 890.07 971.87 893.13 C 974.71 895.55 974.41 899.43 974.45 902.79 C 974.23 910.79 974.67 919.16 971.25 926.63 C 966.23 925.38 961.49 921.50 956.09 922.98 C 951.67 923.74 947.67 926.15 943.18 926.51 C 938.36 924.42 934.63 918.81 928.87 919.38 C 920.14 920.08 912.41 924.70 905.07 929.15 C 904.51 923.08 904.05 916.99 903.56 910.92 C 900.33 913.73 896.57 917.54 891.86 916.31 C 884.96 915.33 881.31 908.70 876.58 904.39 C 872.61 900.21 866.32 901.09 861.05 900.95 C 859.73 888.36 857.49 875.89 855.21 863.46 C 858.55 862.87 862.21 863.07 865.42 861.72 C 868.45 860.02 870.21 856.87 872.20 854.14 C 876.94 847.01 883.61 841.45 888.36 834.32 C 891.20 830.37 895.97 825.58 901.27 827.79 C 904.62 828.67 908.98 832.55 911.88 828.90 C 915.60 825.80 914.91 818.66 920.31 817.57 Z" />
</g>
</svg>
