<?xml version="1.0" encoding="UTF-8" ?>
<!DOCTYPE svg PUBLIC "-//W3C//DTD SVG 1.1//EN" "http://www.w3.org/Graphics/SVG/1.1/DTD/svg11.dtd">
<svg width="1920pt" height="1080pt" viewBox="0 0 1920 1080" version="1.1" xmlns="http://www.w3.org/2000/svg">
<g id="#8fdf00ff">
<path fill="#8fdf00" fill-opacity="0" d=" M 990.47 221.35 C 996.21 216.88 998.93 209.86 1003.20 204.16 C 1006.48 208.83 1009.76 214.37 1015.49 216.28 C 1027.63 218.23 1032.36 233.87 1045.60 232.50 C 1052.20 230.84 1053.54 223.33 1056.77 218.33 C 1062.52 220.40 1068.63 222.09 1074.80 221.58 C 1080.45 220.30 1085.74 214.23 1091.82 217.43 C 1097.59 222.32 1101.40 229.08 1106.22 234.84 C 1109.60 239.04 1114.73 241.63 1117.53 246.34 C 1119.39 249.66 1120.77 253.25 1122.71 256.58 C 1124.71 260.38 1129.29 259.66 1132.84 260.26 C 1138.29 260.37 1142.20 264.72 1146.77 267.15 C 1151.67 270.22 1157.21 271.97 1162.83 273.16 C 1161.07 278.66 1161.44 284.99 1157.52 289.59 C 1152.62 297.26 1142.76 300.90 1140.11 310.10 C 1134.93 318.72 1142.98 326.54 1144.86 334.73 C 1147.05 340.61 1142.89 345.67 1140.77 350.77 C 1140.13 352.53 1138.86 354.80 1140.44 356.46 C 1145.00 361.32 1152.76 363.17 1155.01 370.08 C 1154.83 374.03 1155.47 378.49 1152.76 381.75 C 1149.16 385.97 1143.20 387.37 1137.94 386.10 C 1130.83 384.50 1123.71 382.85 1116.42 382.33 C 1114.00 386.88 1112.70 392.28 1109.01 396.04 C 1104.22 399.00 1098.11 397.37 1092.98 399.40 C 1086.80 401.99 1081.65 406.34 1076.37 410.34 C 1064.05 403.95 1051.01 398.54 1040.04 389.87 C 1034.17 386.78 1034.84 378.97 1029.88 375.11 C 1026.87 372.35 1022.78 371.54 1018.90 370.91 C 1014.27 370.17 1009.84 368.64 1005.42 367.13 C 1011.60 357.75 1010.09 345.80 1008.47 335.25 C 1006.70 328.05 998.73 325.92 993.19 322.53 C 989.68 320.50 988.28 316.36 985.22 313.85 C 978.26 309.16 969.71 307.18 963.14 301.88 C 958.32 296.70 956.35 289.61 953.62 283.22 C 956.63 280.97 959.69 278.75 962.77 276.55 C 962.41 267.49 962.72 258.43 962.56 249.37 C 962.33 243.48 965.29 237.42 970.36 234.33 C 977.06 229.99 983.86 225.83 990.47 221.35 Z" />
</g>
<g id="#4f5f00fe">
<path fill="#4f5f00" fill-opacity="0" d=" M 840.69 212.65 C 842.59 207.82 849.43 208.11 853.13 210.77 C 865.74 219.36 879.95 225.16 892.94 233.08 C 899.50 237.15 898.59 246.10 899.51 252.91 C 899.04 260.51 906.15 266.50 913.17 267.60 C 921.87 268.68 928.65 274.98 935.36 280.12 C 923.64 281.60 911.89 279.90 900.15 280.55 C 891.30 281.92 885.17 289.30 877.25 292.71 C 870.70 292.97 864.12 291.13 857.57 292.32 C 851.17 293.42 844.09 290.30 838.29 294.23 C 832.90 297.77 828.21 303.30 826.67 309.56 C 828.28 316.29 832.62 322.22 833.36 329.27 C 832.15 335.19 830.02 341.24 826.05 345.87 C 821.66 349.21 815.35 348.92 810.59 346.50 C 801.99 342.41 793.63 337.84 784.92 334.00 C 777.32 330.77 768.89 330.33 761.31 327.13 C 755.41 324.33 754.18 317.31 750.37 312.58 C 746.11 309.73 740.84 308.79 736.37 306.29 C 737.69 303.56 739.10 300.87 740.66 298.27 C 749.25 296.57 758.44 294.29 764.77 287.78 C 767.72 284.50 767.91 279.74 770.22 276.10 C 773.35 272.93 777.67 271.01 780.46 267.48 C 782.31 264.07 781.24 260.00 781.40 256.33 C 783.91 255.21 786.41 254.09 788.93 252.97 C 787.36 241.42 787.30 229.76 786.08 218.18 C 793.62 217.17 801.26 218.85 808.16 221.89 C 812.91 224.36 815.11 229.51 817.42 234.03 C 822.87 234.70 828.37 234.50 833.84 234.11 C 836.49 227.07 838.27 219.75 840.69 212.65 Z" />
</g>
<g id="#8f5f7fff">
<path fill="#8f5f7f" fill-opacity="0" d=" M 1172.48 261.24 C 1182.29 257.85 1193.50 258.51 1202.83 263.15 C 1211.37 267.53 1220.89 269.11 1229.85 272.36 C 1235.22 274.51 1240.40 278.19 1246.45 277.72 C 1250.24 277.97 1253.87 276.76 1257.20 275.09 C 1262.49 277.16 1267.76 279.50 1273.41 280.44 C 1278.44 281.87 1285.26 281.36 1288.34 286.47 C 1288.89 289.44 1287.70 292.36 1287.16 295.24 C 1298.37 305.10 1315.10 295.93 1326.54 305.11 C 1326.03 311.14 1324.32 316.94 1323.16 322.85 C 1322.41 328.55 1323.76 334.19 1325.42 339.59 C 1329.15 336.22 1332.22 331.31 1337.81 331.14 C 1338.56 337.48 1337.14 344.74 1342.34 349.67 C 1344.51 348.35 1346.69 347.01 1348.95 345.82 C 1350.33 349.34 1352.15 352.70 1354.20 355.88 C 1357.90 361.90 1366.01 363.30 1369.88 369.17 C 1371.25 373.20 1369.77 377.61 1369.05 381.67 C 1364.55 381.55 1360.04 381.05 1355.56 381.46 C 1351.20 381.86 1347.75 384.88 1344.73 387.78 C 1331.56 388.02 1317.90 391.53 1305.17 386.57 C 1297.15 382.25 1289.85 376.75 1282.26 371.75 C 1277.81 368.79 1272.60 366.92 1267.26 366.66 C 1258.24 366.68 1250.10 371.13 1241.79 374.02 C 1230.80 377.19 1219.26 376.39 1208.00 376.22 C 1203.08 376.29 1201.27 381.50 1199.57 385.23 C 1189.38 382.78 1179.26 380.01 1169.06 377.64 C 1163.86 376.24 1159.56 372.79 1155.01 370.08 C 1152.76 363.17 1145.00 361.32 1140.44 356.46 C 1138.86 354.80 1140.13 352.53 1140.77 350.77 C 1142.89 345.67 1147.05 340.61 1144.86 334.73 C 1142.98 326.54 1134.93 318.72 1140.11 310.10 C 1142.76 300.90 1152.62 297.26 1157.52 289.59 C 1161.44 284.99 1161.07 278.66 1162.83 273.16 C 1164.96 268.61 1167.10 262.79 1172.48 261.24 Z" />
</g>
<g id="#0fdf00ff">
<path fill="#0fdf00" fill-opacity="0" d=" M 877.25 292.71 C 885.17 289.30 891.30 281.92 900.15 280.55 C 911.89 279.90 923.64 281.60 935.36 280.12 C 941.44 281.19 947.20 284.65 953.62 283.22 C 956.35 289.61 958.32 296.70 963.14 301.88 C 969.71 307.18 978.26 309.16 985.22 313.85 C 988.28 316.36 989.68 320.50 993.19 322.53 C 998.73 325.92 1006.70 328.05 1008.47 335.25 C 1010.09 345.80 1011.60 357.75 1005.42 367.13 C 1001.03 378.20 993.53 387.95 983.46 394.41 C 976.73 398.53 971.49 404.48 965.60 409.63 C 958.71 414.19 949.90 411.47 942.53 414.37 C 939.15 419.36 936.73 425.06 933.20 430.00 C 916.11 428.39 897.84 432.36 881.58 425.45 C 875.01 422.09 868.80 417.84 863.63 412.56 C 859.88 407.74 857.90 401.84 854.21 397.00 C 851.74 393.50 848.02 390.74 846.68 386.57 C 847.73 377.69 852.54 369.67 853.31 360.73 C 853.37 357.01 850.89 353.91 849.80 350.49 C 847.54 344.98 850.55 338.33 846.70 333.33 C 843.74 328.95 838.00 329.67 833.36 329.27 C 832.62 322.22 828.28 316.29 826.67 309.56 C 828.21 303.30 832.90 297.77 838.29 294.23 C 844.09 290.30 851.17 293.42 857.57 292.32 C 864.12 291.13 870.70 292.97 877.25 292.71 Z" />
</g>
<g id="#cf9f7fff">
<path fill="#cf9f7f" fill-opacity="0" d=" M 704.23 290.23 C 709.22 285.13 717.28 285.77 723.50 287.84 C 729.43 290.94 734.88 294.88 740.66 298.27 C 739.10 300.87 737.69 303.56 736.37 306.29 C 740.84 308.79 746.11 309.73 750.37 312.58 C 754.18 317.31 755.41 324.33 761.31 327.13 C 768.89 330.33 777.32 330.77 784.92 334.00 C 793.63 337.84 801.99 342.41 810.59 346.50 C 815.35 348.92 821.66 349.21 826.05 345.87 C 830.02 341.24 832.15 335.19 833.36 329.27 C 838.00 329.67 843.74 328.95 846.70 333.33 C 850.55 338.33 847.54 344.98 849.80 350.49 C 850.89 353.91 853.37 357.01 853.31 360.73 C 852.54 369.67 847.73 377.69 846.68 386.57 C 848.02 390.74 851.74 393.50 854.21 397.00 C 857.90 401.84 859.88 407.74 863.63 412.56 C 862.57 417.70 864.24 425.28 858.64 428.41 C 852.30 432.04 844.57 435.47 842.15 443.03 C 838.89 455.96 840.19 471.79 829.90 481.83 C 819.98 488.27 808.04 491.28 798.67 498.67 C 797.99 504.23 799.67 509.83 800.90 515.22 C 799.74 513.05 798.67 510.85 797.62 508.63 C 789.69 507.43 782.56 503.65 776.81 498.13 C 772.19 500.81 766.95 502.13 762.29 504.65 C 758.89 508.04 756.10 512.06 752.22 514.97 C 752.34 518.96 752.64 522.95 752.95 526.92 C 750.03 525.34 746.82 524.28 743.76 523.07 C 742.62 520.60 741.54 518.05 739.76 515.96 C 733.79 516.64 728.99 520.76 724.08 523.89 C 714.07 515.99 699.68 516.74 690.59 507.43 C 686.90 503.41 681.62 501.96 676.49 500.83 C 676.05 495.73 675.36 490.42 673.14 485.80 C 669.54 481.63 663.59 480.77 659.33 477.45 C 653.96 474.87 649.93 468.59 651.68 462.60 C 652.00 457.84 655.30 452.95 653.82 448.14 C 650.55 444.30 645.65 442.32 641.56 439.49 C 644.02 437.91 646.53 436.40 649.09 434.98 C 649.39 433.65 649.70 432.32 650.02 431.00 C 656.32 427.45 660.96 421.25 668.18 419.33 C 674.21 421.52 678.53 426.62 681.70 431.99 C 684.19 430.51 688.83 430.11 689.27 426.46 C 690.44 418.89 685.67 411.96 685.17 404.55 C 688.74 394.73 701.12 396.15 707.32 389.16 C 710.22 382.67 706.42 375.69 702.09 370.91 C 696.08 362.72 684.69 361.46 678.14 353.89 C 673.39 347.16 671.13 339.12 667.08 332.00 C 675.70 329.62 683.76 325.35 690.49 319.45 C 697.47 310.97 697.84 299.08 704.23 290.23 M 721.08 411.25 C 717.58 420.28 723.02 429.73 728.61 436.61 C 736.26 430.00 746.14 423.22 746.46 412.03 C 743.09 404.16 737.69 397.21 731.78 391.05 C 723.99 395.17 723.27 403.83 721.08 411.25 Z" />
</g>
<g id="#4f1f7fff">
<path fill="#4f1f7f" fill-opacity="0" d=" M 1363.01 326.03 C 1375.41 323.71 1385.96 332.00 1397.09 335.86 C 1401.08 338.93 1405.41 335.56 1409.66 335.50 C 1413.06 337.95 1416.18 340.90 1419.38 343.66 C 1421.81 345.76 1425.25 345.23 1428.21 345.77 C 1437.92 347.32 1446.50 352.43 1455.02 357.05 C 1459.74 360.78 1466.28 358.58 1471.22 361.76 C 1477.20 365.12 1480.66 371.38 1482.24 377.86 C 1483.63 384.85 1493.07 384.49 1495.63 390.65 C 1497.61 394.36 1498.26 399.42 1502.16 401.81 C 1509.48 406.87 1518.73 406.50 1527.24 406.73 C 1516.68 430.38 1505.03 453.50 1494.45 477.14 C 1491.21 484.85 1486.70 491.95 1483.72 499.77 C 1481.17 506.50 1476.42 511.99 1471.79 517.37 C 1466.59 513.63 1459.96 514.85 1454.06 515.62 C 1451.04 517.22 1448.77 519.96 1446.36 522.34 C 1443.68 521.26 1440.94 520.35 1438.28 519.28 C 1435.73 522.73 1432.99 526.04 1430.60 529.59 C 1427.48 528.75 1424.28 527.97 1421.20 527.19 C 1419.80 531.12 1418.48 535.10 1416.65 538.86 C 1415.45 541.73 1411.69 540.36 1409.23 540.67 C 1394.25 540.94 1380.79 530.98 1365.66 533.67 C 1356.37 536.17 1349.69 543.84 1341.09 547.77 C 1349.26 524.13 1357.31 500.45 1366.27 477.10 C 1367.79 472.41 1370.97 466.79 1367.96 461.99 C 1364.63 457.19 1361.56 451.70 1356.19 448.86 C 1352.04 446.21 1346.08 444.66 1344.89 439.18 C 1341.57 429.55 1346.00 420.12 1349.30 411.25 C 1350.82 407.10 1352.83 402.78 1352.20 398.25 C 1351.22 393.90 1347.73 390.80 1344.73 387.78 C 1347.75 384.88 1351.20 381.86 1355.56 381.46 C 1360.04 381.05 1364.55 381.55 1369.05 381.67 C 1369.77 377.61 1371.25 373.20 1369.88 369.17 C 1366.01 363.30 1357.90 361.90 1354.20 355.88 C 1352.15 352.70 1350.33 349.34 1348.95 345.82 C 1349.79 340.90 1351.72 336.20 1353.53 331.57 C 1354.85 327.75 1358.87 325.28 1363.01 326.03 Z" />
</g>
<g id="#cfdf00fe">
<path fill="#cfdf00" fill-opacity="0" d=" M 660.87 339.86 C 662.12 336.68 664.78 334.41 667.08 332.00 C 671.13 339.12 673.39 347.16 678.14 353.89 C 684.69 361.46 696.08 362.72 702.09 370.91 C 706.42 375.69 710.22 382.67 707.32 389.16 C 701.12 396.15 688.74 394.73 685.17 404.55 C 685.67 411.96 690.44 418.89 689.27 426.46 C 688.83 430.11 684.19 430.51 681.70 431.99 C 678.53 426.62 674.21 421.52 668.18 419.33 C 660.96 421.25 656.32 427.45 650.02 431.00 C 647.23 428.95 644.06 426.62 640.38 427.42 C 620.97 431.42 606.13 446.25 586.94 450.91 C 574.27 454.92 559.11 454.10 548.36 445.63 C 544.50 442.98 541.31 439.52 537.76 436.50 C 542.04 435.43 546.91 435.39 550.47 432.49 C 555.21 428.75 559.36 423.65 560.28 417.52 C 561.86 408.46 554.49 400.71 555.43 391.76 C 555.82 387.22 559.02 383.97 561.61 380.54 C 565.51 376.44 560.81 370.66 562.84 365.89 C 564.88 360.67 570.87 355.10 576.76 358.11 C 584.97 360.45 590.30 367.55 597.78 371.12 C 604.95 375.08 611.04 369.33 616.25 365.27 C 623.89 357.87 637.06 358.55 644.61 365.83 C 649.22 363.43 655.16 361.76 657.38 356.55 C 659.20 351.14 658.60 345.16 660.87 339.86 Z" />
</g>
<g id="#0f5f00fe">
<path fill="#0f5f00" fill-opacity="0" d=" M 1241.79 374.02 C 1250.10 371.13 1258.24 366.68 1267.26 366.66 C 1272.60 366.92 1277.81 368.79 1282.26 371.75 C 1289.85 376.75 1297.15 382.25 1305.17 386.57 C 1317.90 391.53 1331.56 388.02 1344.73 387.78 C 1347.73 390.80 1351.22 393.90 1352.20 398.25 C 1352.83 402.78 1350.82 407.10 1349.30 411.25 C 1346.00 420.12 1341.57 429.55 1344.89 439.18 C 1346.08 444.66 1352.04 446.21 1356.19 448.86 C 1361.56 451.70 1364.63 457.19 1367.96 461.99 C 1370.97 466.79 1367.79 472.41 1366.27 477.10 C 1357.31 500.45 1349.26 524.13 1341.09 547.77 C 1337.64 556.87 1334.78 566.33 1329.98 574.85 C 1325.91 579.44 1321.52 583.83 1317.12 588.10 C 1311.79 591.05 1305.00 591.16 1300.16 595.16 C 1298.65 596.04 1297.31 597.96 1295.38 597.49 C 1290.44 596.28 1286.32 593.06 1282.54 589.81 C 1277.64 592.91 1271.83 592.12 1266.69 590.14 C 1271.38 575.05 1276.13 559.99 1280.25 544.74 C 1282.18 537.85 1285.52 531.24 1286.19 524.06 C 1284.65 519.87 1281.26 516.62 1278.80 512.95 C 1279.23 510.38 1280.74 507.61 1279.77 505.03 C 1275.26 499.32 1267.87 496.31 1264.38 489.71 C 1261.59 481.29 1263.25 472.34 1262.42 463.70 C 1262.22 461.21 1260.23 457.96 1257.36 458.80 C 1251.38 460.46 1245.52 463.58 1239.12 462.92 C 1237.25 462.73 1236.47 461.01 1236.91 459.35 C 1238.33 453.52 1241.79 448.39 1242.91 442.45 C 1236.91 437.97 1228.75 437.67 1222.82 433.10 C 1219.63 429.87 1220.72 424.77 1218.66 420.96 C 1216.84 417.85 1214.65 415.02 1212.46 412.20 C 1215.70 407.82 1219.61 403.73 1221.53 398.55 C 1222.94 394.85 1219.11 392.11 1216.33 390.56 C 1211.19 387.58 1205.26 386.59 1199.57 385.23 C 1201.27 381.50 1203.08 376.29 1208.00 376.22 C 1219.26 376.39 1230.80 377.19 1241.79 374.02 Z" />
</g>
<g id="#4f9f7fff">
<path fill="#4f9f7f" fill-opacity="0" d=" M 1005.42 367.13 C 1009.84 368.64 1014.27 370.17 1018.90 370.91 C 1022.78 371.54 1026.87 372.35 1029.88 375.11 C 1034.84 378.97 1034.17 386.78 1040.04 389.87 C 1051.01 398.54 1064.05 403.95 1076.37 410.34 C 1088.49 418.11 1099.21 428.74 1104.50 442.34 C 1105.15 443.99 1104.61 446.00 1103.11 446.98 C 1098.17 450.07 1091.54 449.30 1087.07 453.26 C 1086.28 460.08 1092.81 463.90 1096.97 468.07 C 1102.39 473.92 1103.06 483.35 1110.38 487.57 C 1119.75 493.26 1129.51 498.88 1136.55 507.48 C 1138.05 509.38 1139.61 511.73 1138.93 514.27 C 1137.55 520.25 1135.56 526.10 1134.82 532.21 C 1131.32 559.26 1125.47 585.96 1122.04 613.02 C 1120.07 612.67 1118.11 612.32 1116.15 611.99 C 1118.64 597.15 1120.67 582.20 1121.08 567.15 C 1120.87 564.05 1118.88 561.36 1116.50 559.51 C 1111.93 555.90 1105.60 556.08 1100.77 553.08 C 1096.72 548.25 1100.79 540.32 1096.50 535.58 C 1087.92 525.40 1074.21 523.07 1063.08 516.88 C 1054.19 511.92 1044.50 508.70 1035.48 504.07 C 1029.54 500.27 1025.19 494.02 1018.25 491.96 C 1011.80 489.71 1004.29 488.86 999.30 483.72 C 993.82 477.96 988.48 470.77 989.59 462.34 C 991.91 455.04 998.65 450.61 1002.09 444.03 C 997.74 436.29 987.60 438.04 980.36 438.96 C 971.71 439.63 964.69 446.59 955.78 445.65 C 949.99 443.84 947.62 437.51 943.19 433.91 C 940.23 431.82 936.69 430.77 933.20 430.00 C 936.73 425.06 939.15 419.36 942.53 414.37 C 949.90 411.47 958.71 414.19 965.60 409.63 C 971.49 404.48 976.73 398.53 983.46 394.41 C 993.53 387.95 1001.03 378.20 1005.42 367.13 Z" />
</g>
<g id="#cf5f00ff">
<path fill="#cf5f00" fill-opacity="0" d=" M 1155.01 370.08 C 1159.56 372.79 1163.86 376.24 1169.06 377.64 C 1179.26 380.01 1189.38 382.78 1199.57 385.23 C 1205.26 386.59 1211.19 387.58 1216.33 390.56 C 1219.11 392.11 1222.94 394.85 1221.53 398.55 C 1219.61 403.73 1215.70 407.82 1212.46 412.20 C 1214.65 415.02 1216.84 417.85 1218.66 420.96 C 1220.72 424.77 1219.63 429.87 1222.82 433.10 C 1228.75 437.67 1236.91 437.97 1242.91 442.45 C 1241.79 448.39 1238.33 453.52 1236.91 459.35 C 1236.47 461.01 1237.25 462.73 1239.12 462.92 C 1245.52 463.58 1251.38 460.46 1257.36 458.80 C 1260.23 457.96 1262.22 461.21 1262.42 463.70 C 1263.25 472.34 1261.59 481.29 1264.38 489.71 C 1267.87 496.31 1275.26 499.32 1279.77 505.03 C 1280.74 507.61 1279.23 510.38 1278.80 512.95 C 1281.26 516.62 1284.65 519.87 1286.19 524.06 C 1285.52 531.24 1282.18 537.85 1280.25 544.74 C 1276.13 559.99 1271.38 575.05 1266.69 590.14 C 1262.41 603.43 1260.87 618.76 1249.83 628.60 C 1243.69 625.66 1237.37 623.12 1230.83 621.25 C 1225.80 619.89 1221.97 616.14 1217.96 613.04 C 1214.56 614.18 1211.00 616.42 1207.33 615.39 C 1204.68 613.14 1202.70 610.29 1200.43 607.74 C 1195.48 607.39 1190.57 606.85 1185.71 606.11 C 1180.61 604.23 1177.84 598.69 1172.80 596.82 C 1167.49 596.72 1162.29 598.16 1157.08 599.02 C 1156.11 596.70 1155.15 594.38 1154.21 592.07 C 1143.84 597.04 1142.45 611.03 1132.00 615.87 C 1128.76 617.36 1123.38 616.07 1122.04 613.02 C 1125.47 585.96 1131.32 559.26 1134.82 532.21 C 1135.56 526.10 1137.55 520.25 1138.93 514.27 C 1139.61 511.73 1138.05 509.38 1136.55 507.48 C 1129.51 498.88 1119.75 493.26 1110.38 487.57 C 1103.06 483.35 1102.39 473.92 1096.97 468.07 C 1092.81 463.90 1086.28 460.08 1087.07 453.26 C 1091.54 449.30 1098.17 450.07 1103.11 446.98 C 1104.61 446.00 1105.15 443.99 1104.50 442.34 C 1099.21 428.74 1088.49 418.11 1076.37 410.34 C 1081.65 406.34 1086.80 401.99 1092.98 399.40 C 1098.11 397.37 1104.22 399.00 1109.01 396.04 C 1112.70 392.28 1114.00 386.88 1116.42 382.33 C 1123.71 382.85 1130.83 384.50 1137.94 386.10 C 1143.20 387.37 1149.16 385.97 1152.76 381.75 C 1155.47 378.49 1154.83 374.03 1155.01 370.08 M 1146.08 442.41 C 1149.66 446.32 1154.22 449.58 1159.14 451.53 C 1164.77 450.93 1169.84 447.99 1175.23 446.39 C 1169.96 442.16 1164.54 437.28 1157.63 436.26 C 1152.83 435.42 1149.44 439.81 1146.08 442.41 Z" />
</g>
<g id="#8f1f7ffe">
<path fill="#8f1f7f" fill-opacity="0" d=" M 721.08 411.25 C 723.27 403.83 723.99 395.17 731.78 391.05 C 737.69 397.21 743.09 404.16 746.46 412.03 C 746.14 423.22 736.26 430.00 728.61 436.61 C 723.02 429.73 717.58 420.28 721.08 411.25 Z" />
</g>
<g id="#0f5f7fff">
<path fill="#0f5f7f" fill-opacity="0" d=" M 863.63 412.56 C 868.80 417.84 875.01 422.09 881.58 425.45 C 897.84 432.36 916.11 428.39 933.20 430.00 C 936.69 430.77 940.23 431.82 943.19 433.91 C 947.62 437.51 949.99 443.84 955.78 445.65 C 964.69 446.59 971.71 439.63 980.36 438.96 C 987.60 438.04 997.74 436.29 1002.09 444.03 C 998.65 450.61 991.91 455.04 989.59 462.34 C 988.48 470.77 993.82 477.96 999.30 483.72 C 1004.29 488.86 1011.80 489.71 1018.25 491.96 C 1025.19 494.02 1029.54 500.27 1035.48 504.07 C 1032.45 506.63 1029.37 509.34 1025.37 510.23 C 1018.34 512.06 1011.40 506.78 1004.39 508.39 C 993.17 513.58 989.45 526.03 985.37 536.58 C 983.58 541.72 977.55 541.13 973.20 541.71 C 968.10 542.08 963.75 545.01 958.91 546.26 C 953.00 547.13 948.36 543.19 943.88 540.14 C 938.12 536.17 929.13 538.69 926.15 544.96 C 925.50 548.98 925.85 553.10 925.88 557.16 C 912.34 556.88 906.69 541.20 893.76 539.67 C 886.92 540.47 880.64 544.11 873.57 543.76 C 871.07 536.47 865.75 530.66 862.55 523.75 C 860.31 518.06 861.33 510.62 855.94 506.55 C 848.01 506.24 840.67 509.87 832.88 510.75 C 826.20 512.07 819.13 512.59 813.09 515.97 C 810.28 517.48 808.81 520.47 807.09 523.00 C 804.76 520.64 802.33 518.26 800.90 515.22 C 799.67 509.83 797.99 504.23 798.67 498.67 C 808.04 491.28 819.98 488.27 829.90 481.83 C 840.19 471.79 838.89 455.96 842.15 443.03 C 844.57 435.47 852.30 432.04 858.64 428.41 C 864.24 425.28 862.57 417.70 863.63 412.56 Z" />
</g>
<g id="#4f9f00ff">
<path fill="#4f9f00" fill-opacity="0" d=" M 586.94 450.91 C 606.13 446.25 620.97 431.42 640.38 427.42 C 644.06 426.62 647.23 428.95 650.02 431.00 C 649.70 432.32 649.39 433.65 649.09 434.98 C 646.53 436.40 644.02 437.91 641.56 439.49 C 645.65 442.32 650.55 444.30 653.82 448.14 C 655.30 452.95 652.00 457.84 651.68 462.60 C 649.93 468.59 653.96 474.87 659.33 477.45 C 663.59 480.77 669.54 481.63 673.14 485.80 C 675.36 490.42 676.05 495.73 676.49 500.83 C 676.71 511.96 677.86 523.04 678.00 534.18 C 665.36 535.63 653.86 541.23 641.85 544.98 C 634.84 546.96 627.40 546.50 620.22 547.34 C 616.92 543.99 612.31 541.40 610.56 536.87 C 611.20 527.37 614.21 518.24 616.04 508.92 C 604.02 499.77 588.45 498.38 573.93 499.75 C 556.70 501.23 539.40 500.00 522.16 499.70 C 510.51 499.55 498.86 501.34 487.22 500.34 C 481.76 499.45 476.84 496.69 471.74 494.70 C 475.51 487.01 484.29 484.41 491.81 481.81 C 502.23 477.68 514.75 473.90 519.52 462.59 C 522.93 452.04 522.54 440.73 521.78 429.81 C 527.51 430.81 533.44 432.34 537.76 436.50 C 541.31 439.52 544.50 442.98 548.36 445.63 C 559.11 454.10 574.27 454.92 586.94 450.91 Z" />
</g>
<g id="#4fdf00ff">
<path fill="#4fdf00" fill-opacity="0" d=" M 1146.08 442.41 C 1149.44 439.81 1152.83 435.42 1157.63 436.26 C 1164.54 437.28 1169.96 442.16 1175.23 446.39 C 1169.84 447.99 1164.77 450.93 1159.14 451.53 C 1154.22 449.58 1149.66 446.32 1146.08 442.41 Z" />
</g>
<g id="#cf1f00fe">
<path fill="#cf1f00" fill-opacity="0" d=" M 471.16 494.45 L 471.74 494.70 C 476.84 496.69 481.76 499.45 487.22 500.34 C 498.86 501.34 510.51 499.55 522.16 499.70 C 539.40 500.00 556.70 501.23 573.93 499.75 C 588.45 498.38 604.02 499.77 616.04 508.92 C 614.21 518.24 611.20 527.37 610.56 536.87 C 612.31 541.40 616.92 543.99 620.22 547.34 C 612.13 549.24 600.35 546.84 595.79 555.87 C 593.40 558.39 591.52 563.48 595.02 565.96 C 600.99 570.67 609.10 569.23 616.16 570.73 C 615.82 576.04 616.16 582.14 612.48 586.48 C 610.39 589.30 606.95 590.35 603.76 591.35 C 602.20 594.62 600.83 597.98 599.08 601.16 C 596.15 606.41 590.46 609.22 586.84 613.91 C 583.21 618.14 588.52 623.48 589.10 627.91 C 582.42 629.85 575.13 629.44 569.01 625.98 C 561.59 623.11 555.37 615.10 546.68 616.71 C 543.17 617.19 538.42 618.74 536.14 614.92 C 532.00 607.19 530.34 598.14 524.94 591.06 C 520.23 585.38 513.91 580.53 506.45 579.38 C 503.26 578.52 499.88 578.87 496.67 578.12 C 494.04 577.54 492.61 575.03 491.30 572.92 C 484.90 561.12 480.59 548.35 474.75 536.29 C 473.26 532.89 471.37 529.60 470.61 525.95 C 471.61 521.09 474.44 516.80 475.82 512.05 C 477.63 505.68 473.36 500.09 471.16 494.45 Z" />
</g>
<g id="#cf1f7fff">
<path fill="#cf1f7f" fill-opacity="0" d=" M 762.29 504.65 C 766.95 502.13 772.19 500.81 776.81 498.13 C 782.56 503.65 789.69 507.43 797.62 508.63 C 798.67 510.85 799.74 513.05 800.90 515.22 C 802.33 518.26 804.76 520.64 807.09 523.00 C 808.81 520.47 810.28 517.48 813.09 515.97 C 819.13 512.59 826.20 512.07 832.88 510.75 C 840.67 509.87 848.01 506.24 855.94 506.55 C 861.33 510.62 860.31 518.06 862.55 523.75 C 865.75 530.66 871.07 536.47 873.57 543.76 C 874.94 549.07 876.44 554.43 876.91 559.91 C 876.27 567.51 865.59 570.85 867.78 579.29 C 869.85 589.09 878.14 596.00 881.82 605.14 C 883.29 608.06 885.35 613.37 881.36 615.28 C 875.29 617.57 868.25 615.49 862.33 618.42 C 857.49 621.75 855.52 627.97 850.78 631.35 C 845.85 633.14 840.60 634.09 835.92 636.58 C 829.78 635.23 823.55 634.49 817.27 634.43 C 810.56 634.41 802.83 631.64 800.06 625.06 C 797.97 619.29 796.83 612.33 791.32 608.76 C 785.21 604.17 777.23 599.89 775.81 591.62 C 774.48 582.66 768.52 575.13 768.02 565.98 C 766.75 556.87 768.57 547.53 766.30 538.52 C 764.21 532.49 757.87 530.12 752.95 526.92 C 752.64 522.95 752.34 518.96 752.22 514.97 C 756.10 512.06 758.89 508.04 762.29 504.65 Z" />
</g>
<g id="#8f9f7fff">
<path fill="#8f9f7f" fill-opacity="0" d=" M 678.00 534.18 C 677.86 523.04 676.71 511.96 676.49 500.83 C 681.62 501.96 686.90 503.41 690.59 507.43 C 699.68 516.74 714.07 515.99 724.08 523.89 C 728.99 520.76 733.79 516.64 739.76 515.96 C 741.54 518.05 742.62 520.60 743.76 523.07 C 746.82 524.28 750.03 525.34 752.95 526.92 C 757.87 530.12 764.21 532.49 766.30 538.52 C 768.57 547.53 766.75 556.87 768.02 565.98 C 768.52 575.13 774.48 582.66 775.81 591.62 C 777.23 599.89 785.21 604.17 791.32 608.76 C 796.83 612.33 797.97 619.29 800.06 625.06 C 802.83 631.64 810.56 634.41 817.27 634.43 C 823.55 634.49 829.78 635.23 835.92 636.58 C 840.18 659.12 841.32 682.59 850.12 704.04 C 842.07 709.69 832.24 709.31 823.04 710.96 C 813.16 712.69 804.87 720.81 802.64 730.56 C 800.44 738.01 798.78 745.62 797.11 753.21 C 785.96 741.22 774.14 729.62 765.11 715.88 C 760.65 709.56 762.40 701.12 758.44 694.58 C 755.11 688.49 748.30 685.36 744.54 679.67 C 743.29 674.21 747.71 668.11 744.07 663.00 C 739.20 656.45 731.56 652.83 725.53 647.49 C 716.90 640.71 709.99 632.14 702.75 623.97 C 700.30 630.08 697.82 636.21 694.37 641.84 C 686.95 637.21 679.72 631.53 675.60 623.66 C 673.04 616.41 667.44 609.61 668.68 601.54 C 671.21 596.15 676.22 592.32 678.53 586.76 C 681.07 582.03 680.91 576.52 680.75 571.32 C 680.51 564.13 675.05 558.46 674.31 551.37 C 679.15 543.93 690.05 543.43 694.28 535.30 C 688.88 534.64 683.44 533.44 678.00 534.18 M 729.15 555.39 C 727.06 557.56 726.23 560.72 726.27 563.67 C 727.90 568.41 735.09 570.02 738.77 566.80 C 741.52 562.44 740.04 556.79 740.34 551.98 C 736.63 553.16 732.81 554.09 729.15 555.39 Z" />
</g>
<g id="#0f9f7ffe">
<path fill="#0f9f7f" fill-opacity="0" d=" M 1035.48 504.07 C 1044.50 508.70 1054.19 511.92 1063.08 516.88 C 1074.21 523.07 1087.92 525.40 1096.50 535.58 C 1100.79 540.32 1096.72 548.25 1100.77 553.08 C 1105.60 556.08 1111.93 555.90 1116.50 559.51 C 1118.88 561.36 1120.87 564.05 1121.08 567.15 C 1120.67 582.20 1118.64 597.15 1116.15 611.99 C 1112.25 634.06 1110.04 656.43 1105.34 678.36 C 1104.69 683.16 1098.06 683.73 1097.63 688.62 C 1096.07 698.80 1094.85 709.04 1092.79 719.14 C 1086.59 718.64 1083.89 723.88 1081.89 728.64 C 1077.89 727.15 1074.06 724.75 1069.74 724.54 C 1065.72 725.22 1062.41 727.93 1058.99 729.96 C 1060.52 709.66 1065.44 689.52 1064.24 669.07 C 1053.92 665.51 1040.32 665.46 1033.64 655.35 C 1028.93 649.65 1026.62 642.50 1022.49 636.46 C 1019.10 632.05 1014.05 627.85 1008.17 628.32 C 998.15 629.82 988.60 633.40 979.46 637.65 C 976.28 638.80 973.03 640.95 969.49 640.38 C 963.22 640.36 958.70 635.52 955.37 630.83 C 952.87 626.91 953.32 622.06 952.93 617.62 C 951.65 605.23 957.43 593.57 958.10 581.34 C 957.77 573.03 952.84 564.10 944.44 561.76 C 938.33 559.97 932.08 558.63 925.88 557.16 C 925.85 553.10 925.50 548.98 926.15 544.96 C 929.13 538.69 938.12 536.17 943.88 540.14 C 948.36 543.19 953.00 547.13 958.91 546.26 C 963.75 545.01 968.10 542.08 973.20 541.71 C 977.55 541.13 983.58 541.72 985.37 536.58 C 989.45 526.03 993.17 513.58 1004.39 508.39 C 1011.40 506.78 1018.34 512.06 1025.37 510.23 C 1029.37 509.34 1032.45 506.63 1035.48 504.07 Z" />
</g>
<g id="#0f1f7fff">
<path fill="#0f1f7f" fill-opacity="0" d=" M 678.00 534.18 C 683.44 533.44 688.88 534.64 694.28 535.30 C 690.05 543.43 679.15 543.93 674.31 551.37 C 675.05 558.46 680.51 564.13 680.75 571.32 C 680.91 576.52 681.07 582.03 678.53 586.76 C 676.22 592.32 671.21 596.15 668.68 601.54 C 667.44 609.61 673.04 616.41 675.60 623.66 C 669.51 627.51 663.89 632.03 658.12 636.34 C 650.98 641.09 643.02 644.73 636.84 650.81 C 634.25 653.11 632.15 655.97 629.35 658.04 C 623.57 661.33 616.24 663.10 612.76 669.35 C 609.29 675.41 604.48 680.52 598.04 683.56 C 593.61 673.57 589.72 663.36 585.62 653.25 C 584.76 650.99 583.78 648.35 585.02 646.05 C 586.60 642.31 590.22 639.75 591.37 635.82 C 591.25 633.04 590.01 630.48 589.10 627.91 C 588.52 623.48 583.21 618.14 586.84 613.91 C 590.46 609.22 596.15 606.41 599.08 601.16 C 600.83 597.98 602.20 594.62 603.76 591.35 C 606.95 590.35 610.39 589.30 612.48 586.48 C 616.16 582.14 615.82 576.04 616.16 570.73 C 609.10 569.23 600.99 570.67 595.02 565.96 C 591.52 563.48 593.40 558.39 595.79 555.87 C 600.35 546.84 612.13 549.24 620.22 547.34 C 627.40 546.50 634.84 546.96 641.85 544.98 C 653.86 541.23 665.36 535.63 678.00 534.18 Z" />
</g>
<g id="#8fdf7ffe">
<path fill="#8fdf7f" fill-opacity="0" d=" M 873.57 543.76 C 880.64 544.11 886.92 540.47 893.76 539.67 C 906.69 541.20 912.34 556.88 925.88 557.16 C 932.08 558.63 938.33 559.97 944.44 561.76 C 952.84 564.10 957.77 573.03 958.10 581.34 C 957.43 593.57 951.65 605.23 952.93 617.62 C 953.32 622.06 952.87 626.91 955.37 630.83 C 958.70 635.52 963.22 640.36 969.49 640.38 C 973.03 640.95 976.28 638.80 979.46 637.65 C 988.60 633.40 998.15 629.82 1008.17 628.32 C 1014.05 627.85 1019.10 632.05 1022.49 636.46 C 1026.62 642.50 1028.93 649.65 1033.64 655.35 C 1040.32 665.46 1053.92 665.51 1064.24 669.07 C 1065.44 689.52 1060.52 709.66 1058.99 729.96 C 1058.11 739.41 1056.91 748.84 1055.54 758.23 C 1053.18 768.21 1053.12 778.52 1051.78 788.66 C 1051.03 794.94 1048.69 800.88 1047.55 807.09 C 1044.34 804.68 1039.85 803.23 1038.49 799.12 C 1036.78 794.27 1033.05 790.65 1029.09 787.57 C 1025.25 789.74 1020.59 791.19 1018.17 795.14 C 1016.55 797.73 1014.10 799.58 1011.60 801.25 C 1007.82 797.47 1003.95 793.82 999.85 790.43 C 996.96 792.93 994.44 795.80 992.27 798.95 C 988.73 796.99 985.39 794.09 981.25 793.72 C 974.04 795.21 968.53 800.59 963.02 805.12 C 964.44 778.43 962.58 751.64 963.70 724.92 C 954.44 721.02 944.18 719.17 936.06 712.94 C 931.68 709.41 926.38 707.49 921.25 705.39 C 915.66 703.16 912.81 697.35 907.68 694.42 C 900.71 690.21 893.25 686.85 886.28 682.63 C 882.95 680.59 878.79 681.97 875.54 683.53 C 868.51 687.65 865.33 696.22 858.06 700.02 C 855.45 701.44 852.76 702.70 850.12 704.04 C 841.32 682.59 840.18 659.12 835.92 636.58 C 840.60 634.09 845.85 633.14 850.78 631.35 C 855.52 627.97 857.49 621.75 862.33 618.42 C 868.25 615.49 875.29 617.57 881.36 615.28 C 885.35 613.37 883.29 608.06 881.82 605.14 C 878.14 596.00 869.85 589.09 867.78 579.29 C 865.59 570.85 876.27 567.51 876.91 559.91 C 876.44 554.43 874.94 549.07 873.57 543.76 Z" />
</g>
<g id="#4f1f00ff">
<path fill="#4f1f00" fill-opacity="0" d=" M 729.15 555.39 C 732.81 554.09 736.63 553.16 740.34 551.98 C 740.04 556.79 741.52 562.44 738.77 566.80 C 735.09 570.02 727.90 568.41 726.27 563.67 C 726.23 560.72 727.06 557.56 729.15 555.39 Z" />
</g>
<g id="#cf9f00ff">
<path fill="#cf9f00" fill-opacity="0" d=" M 675.60 623.66 C 679.72 631.53 686.95 637.21 694.37 641.84 C 697.82 636.21 700.30 630.08 702.75 623.97 C 709.99 632.14 716.90 640.71 725.53 647.49 C 731.56 652.83 739.20 656.45 744.07 663.00 C 747.71 668.11 743.29 674.21 744.54 679.67 C 748.30 685.36 755.11 688.49 758.44 694.58 C 762.40 701.12 760.65 709.56 765.11 715.88 C 774.14 729.62 785.96 741.22 797.11 753.21 C 794.64 767.41 795.45 781.93 793.39 796.19 C 766.15 787.50 740.35 774.63 712.69 767.21 C 698.51 762.10 684.63 756.10 671.23 749.22 C 669.85 753.98 669.10 759.13 666.19 763.27 C 662.04 765.79 656.58 763.80 652.07 764.79 C 646.36 765.08 641.58 769.27 635.82 769.23 C 632.11 769.11 628.43 768.51 624.75 768.10 C 626.00 772.15 628.30 776.07 628.29 780.40 C 624.02 785.21 618.11 788.14 613.18 792.20 L 612.59 792.64 C 605.53 787.30 597.33 783.26 591.50 776.48 C 585.05 767.01 581.70 755.92 576.76 745.68 C 574.97 740.95 571.91 736.69 570.89 731.71 C 571.58 721.65 584.22 714.84 580.63 704.11 C 580.29 701.46 578.70 698.26 580.99 696.05 C 585.91 690.92 591.99 687.17 598.04 683.56 C 604.48 680.52 609.29 675.41 612.76 669.35 C 616.24 663.10 623.57 661.33 629.35 658.04 C 632.15 655.97 634.25 653.11 636.84 650.81 C 643.02 644.73 650.98 641.09 658.12 636.34 C 663.89 632.03 669.51 627.51 675.60 623.66 Z" />
</g>
<g id="#8f5f00ff">
<path fill="#8f5f00" fill-opacity="0" d=" M 875.54 683.53 C 878.79 681.97 882.95 680.59 886.28 682.63 C 893.25 686.85 900.71 690.21 907.68 694.42 C 912.81 697.35 915.66 703.16 921.25 705.39 C 926.38 707.49 931.68 709.41 936.06 712.94 C 944.18 719.17 954.44 721.02 963.70 724.92 C 962.58 751.64 964.44 778.43 963.02 805.12 C 959.25 813.86 952.86 821.46 951.59 831.21 C 945.29 833.28 938.83 829.89 932.55 831.08 C 931.15 834.66 932.02 840.86 927.36 842.34 C 922.22 843.03 917.04 842.93 911.89 842.64 C 911.71 845.18 911.54 847.73 911.51 850.29 C 904.68 852.30 897.49 851.90 891.07 848.82 C 891.50 856.30 893.87 864.30 889.48 871.15 C 884.26 869.71 879.01 868.50 873.78 867.21 C 872.28 869.78 871.12 872.76 868.71 874.64 C 863.60 877.57 857.60 878.16 851.98 879.61 C 852.04 882.29 852.34 885.22 852.54 887.96 C 850.47 889.04 848.40 890.10 846.35 891.20 C 847.02 893.98 847.86 896.79 847.66 899.69 C 845.89 901.38 843.60 902.37 841.47 903.50 C 839.02 898.63 837.85 892.90 834.29 888.72 C 826.62 886.74 820.06 893.34 816.27 899.30 C 812.18 876.52 807.23 853.91 802.77 831.20 C 800.54 819.28 794.97 808.24 793.39 796.19 C 795.45 781.93 794.64 767.41 797.11 753.21 C 798.78 745.62 800.44 738.01 802.64 730.56 C 804.87 720.81 813.16 712.69 823.04 710.96 C 832.24 709.31 842.07 709.69 850.12 704.04 C 852.76 702.70 855.45 701.44 858.06 700.02 C 865.33 696.22 868.51 687.65 875.54 683.53 Z" />
</g>
<g id="#0fdf7fff">
<path fill="#0fdf7f" fill-opacity="0" d=" M 671.23 749.22 C 684.63 756.10 698.51 762.10 712.69 767.21 C 740.35 774.63 766.15 787.50 793.39 796.19 C 794.97 808.24 800.54 819.28 802.77 831.20 C 807.23 853.91 812.18 876.52 816.27 899.30 L 816.44 900.29 C 813.91 898.73 811.40 897.14 808.92 895.53 C 805.96 900.05 802.66 904.44 800.67 909.49 C 799.88 912.97 801.25 916.47 801.74 919.96 C 797.96 920.78 793.92 921.37 790.74 923.71 C 787.09 929.71 784.51 936.30 781.66 942.72 C 772.01 942.34 762.36 941.85 752.72 941.53 C 748.39 941.32 746.18 936.77 743.29 934.29 C 737.87 934.20 732.27 932.57 726.90 933.65 C 722.91 936.76 719.38 940.46 715.68 943.91 C 707.63 939.71 700.42 934.08 692.32 930.04 C 687.71 927.34 679.84 928.31 677.49 922.49 C 673.14 912.58 669.76 902.25 665.15 892.47 C 662.43 890.46 658.67 887.42 655.11 889.19 C 648.46 892.37 641.66 895.24 635.14 898.68 C 627.55 895.54 620.99 890.14 617.52 882.57 C 611.34 869.43 605.47 856.14 599.09 843.09 C 595.16 835.30 599.01 826.30 603.69 819.75 C 609.52 811.75 612.47 802.00 613.18 792.20 C 618.11 788.14 624.02 785.21 628.29 780.40 C 628.30 776.07 626.00 772.15 624.75 768.10 C 628.43 768.51 632.11 769.11 635.82 769.23 C 641.58 769.27 646.36 765.08 652.07 764.79 C 656.58 763.80 662.04 765.79 666.19 763.27 C 669.10 759.13 669.85 753.98 671.23 749.22 Z" />
</g>
</svg>
