<?xml version="1.0" encoding="UTF-8" ?>
<!DOCTYPE svg PUBLIC "-//W3C//DTD SVG 1.1//EN" "http://www.w3.org/Graphics/SVG/1.1/DTD/svg11.dtd">
<svg width="1920pt" height="1080pt" viewBox="0 0 1920 1080" version="1.1" xmlns="http://www.w3.org/2000/svg">
<g id="#3fbf5fff">
<path fill="#3fbf5f" fill-opacity="0" d=" M 567.30 169.92 C 574.71 174.44 583.65 174.14 591.88 176.03 C 602.95 179.47 614.51 175.28 625.79 176.47 C 630.80 177.70 634.58 181.93 639.96 182.19 C 651.25 184.36 662.85 183.46 674.27 184.42 C 685.40 184.20 696.49 185.53 707.62 185.32 C 730.21 184.96 752.79 189.34 775.35 186.55 C 781.23 186.32 787.16 185.06 793.03 185.93 C 797.79 186.44 798.41 191.95 799.99 195.51 C 795.58 201.05 793.30 207.86 791.64 214.66 C 790.14 219.32 789.34 224.67 785.61 228.17 C 779.49 233.06 771.14 234.10 765.13 239.13 C 762.35 242.03 762.62 246.46 760.65 249.79 C 758.26 252.20 754.94 253.38 752.01 254.99 C 751.82 251.39 752.03 247.75 751.37 244.19 C 750.95 241.55 748.22 240.36 746.39 238.82 C 744.94 242.60 741.55 246.65 743.34 250.89 C 744.02 253.18 745.39 255.37 745.34 257.82 C 744.21 262.24 739.83 265.05 739.00 269.62 C 737.54 273.45 738.01 278.16 735.50 281.57 C 730.51 285.36 724.80 287.91 719.12 290.45 C 718.40 288.78 717.83 287.01 716.71 285.56 C 712.11 285.83 707.63 287.10 703.01 287.19 C 700.78 292.55 696.89 297.21 691.26 299.15 C 683.57 301.89 676.81 306.44 670.04 310.89 C 667.88 310.53 665.72 309.85 663.52 310.06 C 658.47 312.34 654.35 316.17 650.44 320.01 C 651.32 323.61 652.05 327.25 652.80 330.88 C 645.46 333.67 638.14 336.51 631.07 339.94 C 629.16 336.81 627.76 333.21 624.93 330.78 C 621.54 329.22 617.59 329.41 614.24 327.68 C 611.03 326.50 607.98 323.98 604.38 324.53 C 600.13 325.32 596.02 326.56 591.85 327.62 C 593.54 330.33 595.24 333.02 596.95 335.74 C 591.94 336.69 586.96 338.86 581.81 338.31 C 576.45 336.40 572.61 331.82 568.99 327.64 C 566.70 327.46 564.72 327.47 562.52 327.31 C 561.49 332.85 561.38 339.15 556.92 343.22 C 555.76 343.41 554.63 343.60 553.49 343.82 C 551.89 338.41 549.86 333.14 547.95 327.83 C 544.32 330.13 541.22 333.62 537.10 334.90 C 532.74 333.37 530.99 328.74 529.42 324.83 C 525.45 314.87 521.35 304.95 518.16 294.71 C 517.27 291.99 517.54 288.69 519.49 286.49 C 526.09 280.60 535.09 277.75 540.49 270.48 C 543.28 266.32 548.82 267.80 552.80 265.84 C 558.00 263.43 562.55 259.60 566.18 255.20 C 571.07 248.70 568.38 240.16 570.96 232.90 C 574.19 225.29 568.56 217.83 567.98 210.24 C 568.61 204.85 570.86 199.64 570.49 194.13 C 570.02 186.00 569.07 177.87 567.30 169.92 Z" />
</g>
<g id="#003fdfff">
<path fill="#003fdf" fill-opacity="0" d=" M 799.99 195.51 C 820.90 203.01 843.17 205.13 864.66 210.31 C 871.96 211.91 879.51 211.67 886.81 213.36 C 895.06 216.53 901.18 224.01 910.06 225.80 C 918.37 227.84 926.24 231.78 932.99 237.02 C 939.58 243.47 944.97 251.04 950.80 258.18 C 959.64 270.51 970.35 281.32 979.84 293.13 C 982.67 296.44 985.37 300.13 989.20 302.34 C 993.71 303.37 998.36 302.27 1002.90 302.06 C 999.63 309.26 997.75 317.37 992.35 323.37 C 986.57 329.17 977.03 325.60 970.92 330.93 C 965.61 334.35 966.63 342.96 960.10 345.11 C 950.55 349.61 942.19 356.20 932.66 360.72 C 928.02 363.06 923.41 365.47 918.88 368.00 C 913.09 371.38 907.05 374.29 900.92 376.98 C 894.77 369.99 889.03 362.62 884.78 354.28 C 873.21 358.05 862.09 363.20 852.66 371.03 C 853.75 375.01 854.38 379.12 854.19 383.26 C 843.84 385.83 835.22 393.63 831.66 403.63 C 829.79 408.85 829.80 414.63 827.52 419.70 C 824.28 421.88 820.38 422.72 816.66 423.65 C 815.04 420.38 813.85 416.59 810.86 414.27 C 807.72 413.00 804.21 413.49 800.90 413.23 C 799.61 410.65 798.56 407.82 796.46 405.77 C 792.92 405.86 789.47 407.06 786.03 407.58 C 783.56 402.70 781.08 397.82 778.72 392.89 C 769.10 396.30 759.54 400.05 749.36 401.39 C 743.55 401.84 738.08 404.36 732.27 404.53 C 729.80 402.17 728.48 397.96 731.09 395.18 C 743.04 383.94 760.10 381.57 775.68 379.64 C 776.01 379.16 776.67 378.19 777.00 377.71 C 774.47 372.23 772.05 365.75 765.95 363.39 C 762.87 361.37 757.46 361.01 756.34 356.76 C 754.30 348.15 753.87 339.18 751.16 330.72 C 742.17 334.43 733.74 340.31 723.77 340.97 C 714.58 340.70 707.41 346.88 700.51 352.01 C 699.67 351.62 698.01 350.84 697.18 350.45 C 699.38 342.16 706.30 336.75 711.12 330.10 C 714.68 324.66 708.97 319.44 703.82 319.58 C 691.96 320.06 681.30 325.91 670.06 329.09 C 667.55 323.47 665.20 316.03 670.04 310.89 C 676.81 306.44 683.57 301.89 691.26 299.15 C 696.89 297.21 700.78 292.55 703.01 287.19 C 707.63 287.10 712.11 285.83 716.71 285.56 C 717.83 287.01 718.40 288.78 719.12 290.45 C 724.80 287.91 730.51 285.36 735.50 281.57 C 738.01 278.16 737.54 273.45 739.00 269.62 C 739.83 265.05 744.21 262.24 745.34 257.82 C 745.39 255.37 744.02 253.18 743.34 250.89 C 741.55 246.65 744.94 242.60 746.39 238.82 C 748.22 240.36 750.95 241.55 751.37 244.19 C 752.03 247.75 751.82 251.39 752.01 254.99 C 754.94 253.38 758.26 252.20 760.65 249.79 C 762.62 246.46 762.35 242.03 765.13 239.13 C 771.14 234.10 779.49 233.06 785.61 228.17 C 789.34 224.67 790.14 219.32 791.64 214.66 C 793.30 207.86 795.58 201.05 799.99 195.51 Z" />
</g>
<g id="#bfbfdfff">
<path fill="#bfbfdf" fill-opacity="0" d=" M 1275.81 287.37 C 1278.82 285.24 1281.59 282.60 1284.99 281.07 C 1288.66 281.88 1290.51 285.61 1292.87 288.13 C 1295.70 292.27 1299.75 295.31 1303.10 298.99 C 1305.17 302.73 1302.57 307.03 1301.68 310.71 C 1299.15 318.29 1296.23 325.79 1294.82 333.68 C 1297.66 334.64 1300.41 335.61 1303.24 336.69 C 1304.91 340.91 1303.44 345.69 1304.25 350.00 C 1305.93 354.40 1311.15 353.01 1314.70 354.33 C 1316.08 359.49 1314.85 365.03 1317.08 370.05 C 1320.02 376.84 1324.65 382.76 1327.60 389.55 C 1329.15 392.78 1328.42 396.47 1327.88 399.87 C 1326.18 407.19 1323.60 414.27 1320.77 421.21 C 1325.50 424.91 1331.45 423.56 1336.54 421.55 C 1337.44 422.58 1338.37 423.59 1339.30 424.62 C 1345.20 424.18 1351.12 424.89 1357.02 424.38 C 1359.89 424.36 1360.28 420.80 1361.64 418.94 C 1365.36 423.05 1368.26 428.25 1367.77 434.01 C 1368.39 439.65 1364.41 443.90 1360.75 447.50 C 1356.92 451.11 1353.16 454.81 1349.26 458.33 C 1337.89 467.58 1323.39 471.32 1311.16 479.15 C 1307.59 476.54 1303.91 472.85 1299.16 473.18 C 1294.17 474.63 1290.26 478.64 1288.00 483.21 C 1287.82 490.30 1292.15 496.18 1293.79 502.81 C 1294.76 506.43 1292.34 509.71 1290.56 512.64 C 1282.06 513.47 1273.63 514.89 1265.09 515.26 C 1260.58 515.20 1257.65 518.94 1253.96 520.81 C 1250.33 520.69 1246.38 518.36 1245.79 514.51 C 1244.62 508.87 1242.32 503.44 1238.09 499.43 C 1235.88 501.60 1233.72 503.82 1231.61 506.08 C 1228.85 503.36 1225.49 500.72 1224.63 496.74 C 1223.14 491.04 1223.00 484.10 1218.02 480.07 C 1213.98 476.77 1209.30 473.16 1209.43 467.37 C 1209.61 463.06 1206.42 460.23 1202.71 458.79 C 1199.35 450.16 1196.95 441.08 1191.78 433.26 C 1179.94 413.58 1171.72 391.88 1158.83 372.83 C 1155.02 366.28 1149.37 361.18 1144.61 355.37 C 1138.78 348.14 1136.88 338.94 1134.58 330.18 C 1139.41 329.29 1144.47 329.01 1149.09 327.16 C 1156.42 324.75 1162.95 319.74 1170.91 319.55 C 1183.31 319.11 1194.83 314.03 1206.88 311.62 C 1216.25 308.69 1225.97 307.17 1235.66 305.72 C 1242.37 304.93 1250.03 308.22 1256.12 304.17 C 1259.16 299.24 1257.70 291.69 1263.01 288.03 C 1266.81 285.10 1271.54 287.04 1275.81 287.37 Z" />
</g>
<g id="#bf7fdfff">
<path fill="#bf7fdf" fill-opacity="0" d=" M 1070.78 287.39 C 1075.86 286.91 1081.96 283.70 1086.66 287.33 C 1097.27 296.37 1105.62 307.71 1116.01 317.00 C 1119.33 320.03 1121.69 323.96 1125.13 326.88 C 1127.82 329.00 1131.37 329.28 1134.58 330.18 C 1136.88 338.94 1138.78 348.14 1144.61 355.37 C 1149.37 361.18 1155.02 366.28 1158.83 372.83 C 1157.23 374.58 1155.80 376.55 1153.78 377.83 C 1140.49 385.13 1125.19 389.33 1114.03 400.06 C 1106.86 405.86 1097.38 407.59 1089.85 412.82 C 1083.60 416.48 1085.06 425.16 1083.04 431.11 C 1073.60 433.64 1063.81 434.29 1054.08 434.03 C 1044.09 436.36 1034.72 441.25 1026.92 447.91 C 1018.73 454.78 1008.49 458.29 998.26 460.69 C 991.86 463.07 987.53 453.60 981.00 456.94 C 976.27 460.58 973.90 466.46 971.40 471.72 C 969.53 475.81 965.69 478.45 963.22 482.11 C 961.19 485.68 961.31 490.04 959.48 493.70 C 956.26 498.97 951.10 502.54 947.07 507.11 C 944.19 510.09 945.16 514.49 944.68 518.26 C 944.48 521.84 941.75 524.61 941.02 528.04 C 940.46 533.42 943.78 539.33 940.21 544.17 C 937.78 548.47 933.04 553.69 927.62 552.13 C 918.73 549.90 908.81 552.39 901.75 558.13 C 903.64 562.47 908.03 565.11 910.02 569.35 C 909.64 571.10 908.52 572.56 907.63 574.06 C 898.44 580.51 890.16 589.09 878.68 591.30 C 874.18 585.14 867.99 580.12 864.94 572.98 C 862.68 567.64 859.09 562.99 854.72 559.22 C 851.06 556.25 849.37 551.69 847.83 547.40 C 842.95 532.43 834.52 518.40 833.51 502.36 C 833.48 496.83 835.43 491.56 836.81 486.28 C 838.58 476.47 844.66 467.30 854.18 463.54 C 860.27 462.99 864.43 469.77 870.65 468.64 C 879.09 467.26 884.99 460.39 890.39 454.37 C 894.79 449.21 901.77 447.80 907.02 443.81 C 907.17 439.54 903.41 436.25 902.02 432.48 C 905.37 430.80 910.15 429.89 911.34 425.79 C 911.94 420.05 908.81 414.43 909.95 408.71 C 912.16 400.72 920.46 396.77 924.00 389.62 C 922.89 382.32 920.42 375.23 918.88 368.00 C 923.41 365.47 928.02 363.06 932.66 360.72 C 942.19 356.20 950.55 349.61 960.10 345.11 C 966.63 342.96 965.61 334.35 970.92 330.93 C 977.03 325.60 986.57 329.17 992.35 323.37 C 997.75 317.37 999.63 309.26 1002.90 302.06 C 1026.04 300.03 1048.01 291.60 1070.78 287.39 Z" />
</g>
<g id="#bf00dfff">
<path fill="#bf00df" fill-opacity="0" d=" M 663.52 310.06 C 665.72 309.85 667.88 310.53 670.04 310.89 C 665.20 316.03 667.55 323.47 670.06 329.09 C 681.30 325.91 691.96 320.06 703.82 319.58 C 708.97 319.44 714.68 324.66 711.12 330.10 C 706.30 336.75 699.38 342.16 697.18 350.45 C 698.01 350.84 699.67 351.62 700.51 352.01 C 707.41 346.88 714.58 340.70 723.77 340.97 C 717.45 349.71 707.93 354.96 700.14 362.15 C 696.60 364.94 693.51 368.67 689.13 370.17 C 685.44 371.36 681.90 369.09 678.56 367.86 C 675.11 372.76 669.84 377.84 670.91 384.38 C 673.51 394.55 679.59 404.11 678.66 414.99 C 679.22 427.11 670.47 436.33 664.71 446.09 C 660.24 446.27 655.71 446.89 651.25 446.26 C 648.36 444.53 647.29 440.91 644.61 438.94 C 641.60 437.78 638.31 437.73 635.17 437.24 C 633.33 439.73 631.54 442.25 629.69 444.73 C 617.75 445.21 606.71 450.04 595.26 452.85 C 594.34 450.16 593.71 447.47 592.59 444.90 C 588.92 445.57 585.57 447.45 582.48 449.46 C 579.15 451.76 579.73 456.55 578.91 459.95 C 574.09 461.17 570.72 457.59 566.81 455.68 C 561.80 456.07 557.03 458.19 552.29 459.78 C 551.93 455.37 551.31 451.01 550.23 446.73 C 546.32 447.44 541.49 447.16 538.77 450.61 C 536.92 452.33 535.66 455.24 532.85 455.52 C 529.93 455.99 526.91 455.91 524.00 456.14 C 524.40 454.46 524.82 452.78 525.24 451.11 C 529.12 435.36 531.92 419.38 534.87 403.44 C 535.80 398.47 539.28 393.99 543.78 391.73 C 548.86 390.55 553.49 393.39 558.00 395.26 C 561.30 382.50 561.47 369.25 560.67 356.17 C 560.23 351.66 558.66 347.37 556.92 343.22 C 561.38 339.15 561.49 332.85 562.52 327.31 C 564.72 327.47 566.70 327.46 568.99 327.64 C 572.61 331.82 576.45 336.40 581.81 338.31 C 586.96 338.86 591.94 336.69 596.95 335.74 C 595.24 333.02 593.54 330.33 591.85 327.62 C 596.02 326.56 600.13 325.32 604.38 324.53 C 607.98 323.98 611.03 326.50 614.24 327.68 C 617.59 329.41 621.54 329.22 624.93 330.78 C 627.76 333.21 629.16 336.81 631.07 339.94 C 638.14 336.51 645.46 333.67 652.80 330.88 C 652.05 327.25 651.32 323.61 650.44 320.01 C 654.35 316.17 658.47 312.34 663.52 310.06 Z" />
</g>
<g id="#bfbf5fff">
<path fill="#bfbf5f" fill-opacity="0" d=" M 723.77 340.97 C 733.74 340.31 742.17 334.43 751.16 330.72 C 753.87 339.18 754.30 348.15 756.34 356.76 C 757.46 361.01 762.87 361.37 765.95 363.39 C 772.05 365.75 774.47 372.23 777.00 377.71 C 776.67 378.19 776.01 379.16 775.68 379.64 C 760.10 381.57 743.04 383.94 731.09 395.18 C 728.48 397.96 729.80 402.17 732.27 404.53 C 738.08 404.36 743.55 401.84 749.36 401.39 C 759.54 400.05 769.10 396.30 778.72 392.89 C 781.08 397.82 783.56 402.70 786.03 407.58 C 789.47 407.06 792.92 405.86 796.46 405.77 C 798.56 407.82 799.61 410.65 800.90 413.23 C 804.21 413.49 807.72 413.00 810.86 414.27 C 813.85 416.59 815.04 420.38 816.66 423.65 C 820.38 422.72 824.28 421.88 827.52 419.70 C 829.80 414.63 829.79 408.85 831.66 403.63 C 835.22 393.63 843.84 385.83 854.19 383.26 C 854.38 379.12 853.75 375.01 852.66 371.03 C 862.09 363.20 873.21 358.05 884.78 354.28 C 889.03 362.62 894.77 369.99 900.92 376.98 C 907.05 374.29 913.09 371.38 918.88 368.00 C 920.42 375.23 922.89 382.32 924.00 389.62 C 920.46 396.77 912.16 400.72 909.95 408.71 C 908.81 414.43 911.94 420.05 911.34 425.79 C 910.15 429.89 905.37 430.80 902.02 432.48 C 903.41 436.25 907.17 439.54 907.02 443.81 C 901.77 447.80 894.79 449.21 890.39 454.37 C 884.99 460.39 879.09 467.26 870.65 468.64 C 864.43 469.77 860.27 462.99 854.18 463.54 C 844.66 467.30 838.58 476.47 836.81 486.28 C 828.21 487.58 819.49 487.74 810.87 488.88 C 809.39 483.84 808.75 478.43 805.92 473.91 C 804.62 471.81 801.95 471.73 799.81 472.23 C 793.86 473.42 788.06 475.40 781.99 475.89 C 777.85 476.53 773.43 475.93 769.54 477.62 C 766.42 479.88 765.06 483.76 762.16 486.24 C 758.56 488.25 754.59 489.69 750.46 489.89 C 741.84 490.47 733.20 490.68 724.56 490.58 C 718.68 490.54 712.56 489.61 707.62 486.24 C 705.59 483.37 704.03 480.10 701.58 477.59 C 696.81 474.96 690.90 475.44 686.13 472.79 C 682.87 470.67 679.29 468.46 677.55 464.85 C 676.09 461.04 676.67 456.68 674.85 453.01 C 672.29 451.44 669.21 451.12 666.34 450.44 C 665.79 448.99 665.25 447.54 664.71 446.09 C 670.47 436.33 679.22 427.11 678.66 414.99 C 679.59 404.11 673.51 394.55 670.91 384.38 C 669.84 377.84 675.11 372.76 678.56 367.86 C 681.90 369.09 685.44 371.36 689.13 370.17 C 693.51 368.67 696.60 364.94 700.14 362.15 C 707.93 354.96 717.45 349.71 723.77 340.97 M 774.95 458.96 C 774.96 460.30 774.99 461.64 775.03 462.99 C 775.79 462.99 777.30 462.97 778.06 462.97 C 778.01 462.29 777.90 460.93 777.85 460.25 C 776.88 459.82 775.91 459.39 774.95 458.96 Z" />
</g>
<g id="#3f7fdffe">
<path fill="#3f7fdf" fill-opacity="0" d=" M 510.22 349.17 C 517.83 346.53 524.53 340.65 533.00 341.04 C 537.28 341.78 540.91 344.64 545.22 345.32 C 548.05 345.43 550.73 344.27 553.49 343.82 C 554.63 343.60 555.76 343.41 556.92 343.22 C 558.66 347.37 560.23 351.66 560.67 356.17 C 561.47 369.25 561.30 382.50 558.00 395.26 C 553.49 393.39 548.86 390.55 543.78 391.73 C 539.28 393.99 535.80 398.47 534.87 403.44 C 531.92 419.38 529.12 435.36 525.24 451.11 C 521.35 452.07 517.49 453.71 513.42 453.37 C 506.45 452.64 500.08 449.46 493.34 447.81 C 488.35 446.64 484.40 451.27 480.41 453.31 C 472.96 458.68 464.25 463.84 461.22 473.00 C 457.97 472.37 454.03 472.73 451.39 470.55 C 447.41 462.54 445.85 453.51 442.08 445.39 C 437.46 445.71 432.85 446.02 428.22 445.87 C 429.49 448.46 430.79 451.04 432.07 453.64 C 430.15 454.45 428.21 455.23 426.33 456.13 C 423.41 449.48 418.66 443.48 417.37 436.23 C 416.53 432.56 419.69 430.16 421.50 427.49 C 420.45 422.78 416.96 418.87 416.42 413.99 C 417.00 411.52 419.23 409.78 420.81 407.89 C 426.73 412.08 434.84 415.04 441.48 410.52 C 450.04 405.18 438.39 391.98 446.34 386.43 C 454.73 381.55 464.08 376.71 468.68 367.64 C 470.01 364.98 468.97 362.05 468.41 359.34 C 472.83 357.25 477.72 356.28 482.61 357.10 C 487.94 357.21 491.25 352.14 495.05 349.16 C 500.04 349.80 505.44 351.96 510.22 349.17 Z" />
</g>
<g id="#df7f1fff">
<path fill="#df7f1f" fill-opacity="0" d=" M 1409.35 362.58 C 1416.27 364.34 1421.77 370.94 1429.36 370.82 C 1435.27 371.01 1438.34 364.62 1443.50 362.70 C 1447.18 362.47 1450.83 362.73 1454.56 362.88 C 1454.46 368.66 1455.76 374.54 1459.72 378.95 C 1458.63 381.67 1455.95 384.84 1458.38 387.61 C 1461.89 393.93 1468.45 401.18 1464.70 408.78 C 1469.58 412.43 1473.58 417.05 1477.05 422.04 C 1480.44 427.26 1487.61 426.51 1492.37 429.64 C 1495.52 434.38 1499.50 439.97 1497.87 445.94 C 1496.64 450.40 1497.55 455.04 1497.13 459.58 C 1495.98 463.48 1493.56 466.84 1491.64 470.39 C 1489.97 470.51 1488.30 470.62 1486.65 470.71 C 1486.56 469.24 1486.51 467.78 1486.48 466.31 C 1483.69 465.30 1480.93 464.33 1478.16 463.41 C 1477.64 459.70 1477.24 453.17 1471.96 453.42 C 1463.80 455.12 1459.03 463.34 1451.33 466.15 C 1446.83 468.37 1442.38 465.82 1438.20 464.34 C 1437.10 466.46 1436.02 468.59 1434.95 470.72 C 1430.77 470.73 1426.54 470.77 1422.43 470.81 C 1421.77 468.71 1420.88 466.53 1420.31 464.46 C 1413.32 461.74 1411.15 453.04 1404.13 450.59 C 1398.12 451.03 1392.94 456.63 1386.58 454.85 C 1378.23 451.55 1369.92 447.58 1360.75 447.50 C 1364.41 443.90 1368.39 439.65 1367.77 434.01 C 1368.26 428.25 1365.36 423.05 1361.64 418.94 C 1362.13 415.32 1363.78 411.98 1366.61 409.62 C 1373.54 403.74 1373.18 392.98 1380.02 387.03 C 1385.57 382.17 1388.47 375.21 1392.31 369.09 C 1397.11 365.29 1403.45 363.82 1409.35 362.58 Z" />
</g>
<g id="#9f7f9ffe">
<path fill="#9f7f9f" fill-opacity="0" d=" M 1153.78 377.83 C 1155.80 376.55 1157.23 374.58 1158.83 372.83 C 1171.72 391.88 1179.94 413.58 1191.78 433.26 C 1196.95 441.08 1199.35 450.16 1202.71 458.79 C 1198.03 464.84 1191.16 469.11 1183.50 470.05 C 1173.08 471.73 1162.76 474.02 1152.50 476.48 C 1143.98 478.03 1136.97 483.42 1129.84 487.98 C 1135.14 504.56 1141.80 520.84 1144.98 538.01 C 1139.12 543.14 1134.87 549.78 1129.43 555.32 C 1132.88 564.38 1144.29 567.00 1147.32 576.30 C 1148.85 581.08 1145.11 585.24 1144.13 589.70 C 1142.27 593.85 1145.82 597.17 1147.39 600.63 C 1151.93 607.34 1155.80 614.60 1161.45 620.49 C 1159.36 622.98 1156.95 625.88 1153.44 626.01 C 1150.75 625.89 1148.25 624.74 1145.72 623.99 C 1143.09 626.48 1140.58 629.07 1138.08 631.68 C 1139.92 636.55 1141.85 641.39 1143.51 646.32 C 1141.43 646.89 1139.39 647.74 1137.23 647.87 C 1134.35 647.28 1132.03 645.25 1129.55 643.81 C 1125.24 645.94 1121.02 648.22 1116.87 650.63 C 1118.33 652.81 1119.79 655.00 1121.24 657.21 C 1118.10 658.65 1115.02 660.63 1111.51 660.85 C 1107.75 660.43 1104.37 658.00 1100.51 658.23 C 1095.98 659.23 1092.00 661.84 1087.83 663.74 C 1085.86 661.82 1083.90 659.92 1081.90 658.06 C 1078.35 659.25 1074.78 660.41 1071.18 661.45 C 1069.42 658.61 1067.62 655.35 1064.27 654.21 C 1056.02 651.47 1048.83 646.25 1043.23 639.67 C 1040.16 633.29 1038.42 626.36 1035.54 619.89 C 1032.21 618.56 1026.01 620.03 1024.70 615.43 C 1022.41 609.72 1021.13 603.66 1019.29 597.81 C 1021.19 596.91 1023.08 595.98 1024.99 595.06 C 1025.71 587.78 1027.20 580.60 1028.57 573.43 C 1024.86 570.42 1019.39 567.65 1020.08 561.93 C 1019.14 556.93 1024.48 552.99 1022.71 548.14 C 1019.86 540.06 1019.81 531.31 1020.44 522.87 C 1021.26 517.48 1023.02 510.76 1028.76 508.74 C 1035.77 505.78 1043.59 504.44 1049.89 499.94 C 1059.69 494.07 1067.34 485.11 1077.72 480.14 C 1078.29 473.03 1081.07 466.38 1082.15 459.38 C 1081.99 449.97 1081.45 440.43 1083.04 431.11 C 1085.06 425.16 1083.60 416.48 1089.85 412.82 C 1097.38 407.59 1106.86 405.86 1114.03 400.06 C 1125.19 389.33 1140.49 385.13 1153.78 377.83 Z" />
</g>
<g id="#1f7f1fff">
<path fill="#1f7f1f" fill-opacity="0" d=" M 1054.08 434.03 C 1063.81 434.29 1073.60 433.64 1083.04 431.11 C 1081.45 440.43 1081.99 449.97 1082.15 459.38 C 1081.07 466.38 1078.29 473.03 1077.72 480.14 C 1067.34 485.11 1059.69 494.07 1049.89 499.94 C 1043.59 504.44 1035.77 505.78 1028.76 508.74 C 1023.02 510.76 1021.26 517.48 1020.44 522.87 C 1019.81 531.31 1019.86 540.06 1022.71 548.14 C 1024.48 552.99 1019.14 556.93 1020.08 561.93 C 1019.39 567.65 1024.86 570.42 1028.57 573.43 C 1027.20 580.60 1025.71 587.78 1024.99 595.06 C 1023.08 595.98 1021.19 596.91 1019.29 597.81 C 1021.13 603.66 1022.41 609.72 1024.70 615.43 C 1026.01 620.03 1032.21 618.56 1035.54 619.89 C 1038.42 626.36 1040.16 633.29 1043.23 639.67 C 1035.46 640.79 1027.70 641.97 1020.01 643.50 C 1020.43 647.42 1024.23 651.55 1022.68 655.61 C 1018.60 660.19 1011.86 661.88 1005.93 660.66 C 1002.02 652.69 998.11 644.69 995.48 636.19 C 991.86 636.68 988.19 637.73 984.55 637.12 C 976.32 632.42 975.21 622.74 974.02 614.36 C 972.83 607.64 973.66 600.85 973.56 594.10 C 973.58 592.58 972.24 591.48 970.93 591.04 C 958.99 587.63 946.62 596.11 935.05 590.00 C 929.87 587.68 929.43 581.50 926.58 577.25 C 920.29 575.97 913.76 576.09 907.63 574.06 C 908.52 572.56 909.64 571.10 910.02 569.35 C 908.03 565.11 903.64 562.47 901.75 558.13 C 908.81 552.39 918.73 549.90 927.62 552.13 C 933.04 553.69 937.78 548.47 940.21 544.17 C 943.78 539.33 940.46 533.42 941.02 528.04 C 941.75 524.61 944.48 521.84 944.68 518.26 C 945.16 514.49 944.19 510.09 947.07 507.11 C 951.10 502.54 956.26 498.97 959.48 493.70 C 961.31 490.04 961.19 485.68 963.22 482.11 C 965.69 478.45 969.53 475.81 971.40 471.72 C 973.90 466.46 976.27 460.58 981.00 456.94 C 987.53 453.60 991.86 463.07 998.26 460.69 C 1008.49 458.29 1018.73 454.78 1026.92 447.91 C 1034.72 441.25 1044.09 436.36 1054.08 434.03 Z" />
</g>
<g id="#5f7f1fff">
<path fill="#5f7f1f" fill-opacity="0" d=" M 635.17 437.24 C 638.31 437.73 641.60 437.78 644.61 438.94 C 647.29 440.91 648.36 444.53 651.25 446.26 C 655.71 446.89 660.24 446.27 664.71 446.09 C 665.25 447.54 665.79 448.99 666.34 450.44 C 669.21 451.12 672.29 451.44 674.85 453.01 C 676.67 456.68 676.09 461.04 677.55 464.85 C 679.29 468.46 682.87 470.67 686.13 472.79 C 690.90 475.44 696.81 474.96 701.58 477.59 C 704.03 480.10 705.59 483.37 707.62 486.24 C 697.84 481.66 684.28 483.58 678.21 493.14 C 679.85 497.71 685.85 500.13 685.49 505.49 C 685.43 510.13 680.10 510.82 676.63 511.88 C 669.92 514.12 659.02 514.45 657.42 523.30 C 654.99 538.97 662.34 553.76 667.32 568.17 C 659.02 574.92 651.95 583.81 641.46 587.34 C 632.68 591.49 622.58 588.09 613.69 591.83 C 607.18 584.83 598.96 579.53 593.11 571.90 C 590.53 566.58 590.26 560.54 588.89 554.87 C 588.08 550.49 582.94 549.80 579.59 548.14 C 580.32 541.62 578.95 535.19 574.93 529.95 C 571.00 531.79 566.59 533.08 563.39 536.12 C 562.09 538.42 562.07 541.20 561.54 543.74 C 556.99 545.33 552.55 547.19 548.11 549.05 C 546.18 543.19 543.86 537.46 541.39 531.81 C 539.29 533.05 537.19 534.29 535.09 535.53 C 531.66 530.37 528.84 524.42 528.68 518.14 C 529.25 513.15 535.45 512.43 539.16 510.64 C 539.97 502.91 539.15 495.16 538.60 487.44 C 536.46 486.87 534.32 486.29 532.18 485.74 C 532.75 481.72 533.30 477.73 533.94 473.73 C 537.68 472.61 541.96 472.42 545.30 470.17 C 548.18 467.13 550.59 463.62 552.29 459.78 C 557.03 458.19 561.80 456.07 566.81 455.68 C 570.72 457.59 574.09 461.17 578.91 459.95 C 579.73 456.55 579.15 451.76 582.48 449.46 C 585.57 447.45 588.92 445.57 592.59 444.90 C 593.71 447.47 594.34 450.16 595.26 452.85 C 606.71 450.04 617.75 445.21 629.69 444.73 C 631.54 442.25 633.33 439.73 635.17 437.24 Z" />
</g>
<g id="#7f3f5fff">
<path fill="#7f3f5f" fill-opacity="0" d=" M 428.22 445.87 C 432.85 446.02 437.46 445.71 442.08 445.39 C 445.85 453.51 447.41 462.54 451.39 470.55 C 454.03 472.73 457.97 472.37 461.22 473.00 C 464.25 463.84 472.96 458.68 480.41 453.31 C 484.40 451.27 488.35 446.64 493.34 447.81 C 500.08 449.46 506.45 452.64 513.42 453.37 C 517.49 453.71 521.35 452.07 525.24 451.11 C 524.82 452.78 524.40 454.46 524.00 456.14 C 526.91 455.91 529.93 455.99 532.85 455.52 C 535.66 455.24 536.92 452.33 538.77 450.61 C 541.49 447.16 546.32 447.44 550.23 446.73 C 551.31 451.01 551.93 455.37 552.29 459.78 C 550.59 463.62 548.18 467.13 545.30 470.17 C 541.96 472.42 537.68 472.61 533.94 473.73 C 533.30 477.73 532.75 481.72 532.18 485.74 C 534.32 486.29 536.46 486.87 538.60 487.44 C 539.15 495.16 539.97 502.91 539.16 510.64 C 535.45 512.43 529.25 513.15 528.68 518.14 C 528.84 524.42 531.66 530.37 535.09 535.53 C 535.10 538.32 535.26 541.10 535.43 543.89 C 532.71 545.41 530.01 546.94 527.29 548.46 C 526.89 551.65 526.58 554.86 526.18 558.07 C 523.38 558.89 520.53 559.67 517.74 560.48 C 517.36 564.43 517.75 568.93 515.19 572.22 C 511.19 575.14 506.25 576.36 501.50 577.52 C 501.14 580.08 500.99 582.90 500.65 585.54 C 487.15 590.21 473.52 594.49 459.62 597.81 C 461.39 602.76 462.79 607.88 463.22 613.15 C 461.29 610.66 459.39 608.16 457.55 605.62 C 456.59 606.06 455.64 606.50 454.69 606.94 C 451.84 600.79 448.05 595.14 444.55 589.36 C 440.58 589.26 436.40 590.32 432.51 589.15 C 426.91 581.38 422.19 573.02 416.98 564.99 C 415.28 561.89 412.34 558.76 413.78 554.85 C 417.31 550.03 422.75 545.84 424.57 540.06 C 422.46 532.57 415.68 527.30 413.56 519.79 C 412.84 514.30 417.23 510.13 419.77 505.79 C 422.18 503.74 420.10 501.07 419.00 499.08 C 414.29 491.80 410.35 484.05 406.24 476.43 C 414.83 471.52 417.57 460.68 426.33 456.13 C 428.21 455.23 430.15 454.45 432.07 453.64 C 430.79 451.04 429.49 448.46 428.22 445.87 M 501.18 503.32 C 499.69 504.31 501.35 506.84 502.82 505.68 C 504.29 504.67 502.64 502.15 501.18 503.32 Z" />
</g>
<g id="#3f3f5fff">
<path fill="#3f3f5f" fill-opacity="0" d=" M 1349.26 458.33 C 1353.16 454.81 1356.92 451.11 1360.75 447.50 C 1369.92 447.58 1378.23 451.55 1386.58 454.85 C 1392.94 456.63 1398.12 451.03 1404.13 450.59 C 1411.15 453.04 1413.32 461.74 1420.31 464.46 C 1420.88 466.53 1421.77 468.71 1422.43 470.81 C 1426.54 470.77 1430.77 470.73 1434.95 470.72 C 1437.00 480.30 1440.71 489.84 1439.72 499.79 C 1438.83 502.42 1436.07 503.84 1433.69 504.91 C 1423.39 509.01 1412.48 511.55 1402.63 516.71 C 1394.68 520.66 1387.48 526.24 1378.77 528.48 C 1376.58 528.76 1374.55 527.63 1372.62 526.82 C 1368.64 524.03 1365.18 520.57 1361.21 517.79 C 1359.53 516.69 1356.93 515.49 1355.23 517.16 C 1352.70 519.91 1350.68 523.05 1348.54 526.09 C 1345.01 524.86 1341.56 523.54 1338.09 522.22 C 1336.26 525.23 1334.53 528.30 1332.70 531.30 C 1327.87 527.95 1323.30 524.25 1318.59 520.75 C 1315.51 518.59 1315.32 514.55 1314.82 511.18 C 1314.33 506.47 1313.15 501.87 1311.79 497.35 C 1314.22 495.42 1317.87 493.90 1318.35 490.44 C 1318.69 488.81 1318.90 487.14 1319.16 485.50 C 1316.07 485.63 1312.98 485.75 1309.90 485.87 C 1310.29 483.62 1310.72 481.38 1311.16 479.15 C 1323.39 471.32 1337.89 467.58 1349.26 458.33 Z" />
</g>
<g id="#003f5fff">
<path fill="#003f5f" fill-opacity="0" d=" M 1451.33 466.15 C 1459.03 463.34 1463.80 455.12 1471.96 453.42 C 1477.24 453.17 1477.64 459.70 1478.16 463.41 C 1480.93 464.33 1483.69 465.30 1486.48 466.31 C 1486.51 467.78 1486.56 469.24 1486.65 470.71 C 1488.30 470.62 1489.97 470.51 1491.64 470.39 C 1498.03 469.83 1504.45 469.65 1510.87 469.89 C 1512.79 476.99 1516.65 484.14 1515.15 491.75 C 1514.82 494.44 1515.05 497.22 1516.29 499.68 C 1519.56 506.74 1523.65 513.45 1526.15 520.86 C 1527.94 527.59 1526.14 534.62 1523.71 540.95 C 1530.14 546.74 1538.57 550.07 1544.07 556.93 C 1547.39 561.19 1549.86 566.07 1552.03 571.02 C 1553.35 573.91 1552.69 577.36 1550.99 579.95 C 1547.96 584.89 1544.62 589.62 1541.45 594.46 C 1545.67 598.58 1552.04 599.80 1555.88 604.28 C 1556.41 609.64 1552.39 613.91 1549.06 617.62 C 1543.59 622.11 1537.36 625.58 1531.51 629.52 C 1525.31 633.76 1518.01 628.89 1511.89 626.94 C 1506.53 619.11 1504.64 609.45 1500.06 601.11 C 1498.10 601.54 1496.14 602.23 1494.13 602.04 C 1490.99 597.29 1487.86 591.95 1481.64 591.43 C 1480.94 594.80 1480.56 598.31 1479.90 601.71 C 1470.96 604.79 1461.91 607.49 1452.83 610.15 C 1451.62 607.78 1450.87 605.07 1448.92 603.20 C 1446.69 601.49 1444.12 600.35 1441.82 598.79 C 1437.32 593.83 1432.94 588.02 1425.53 587.93 C 1423.72 585.56 1422.23 582.82 1419.74 581.11 C 1416.72 579.27 1413.79 582.34 1411.21 583.59 C 1399.69 577.39 1396.55 564.02 1390.30 553.54 C 1389.05 551.12 1386.31 549.83 1383.66 550.34 C 1378.15 551.15 1373.29 554.35 1369.41 558.20 C 1365.84 550.39 1360.79 543.32 1357.67 535.30 C 1362.78 532.73 1367.96 530.20 1372.62 526.82 C 1374.55 527.63 1376.58 528.76 1378.77 528.48 C 1387.48 526.24 1394.68 520.66 1402.63 516.71 C 1412.48 511.55 1423.39 509.01 1433.69 504.91 C 1436.07 503.84 1438.83 502.42 1439.72 499.79 C 1440.71 489.84 1437.00 480.30 1434.95 470.72 C 1436.02 468.59 1437.10 466.46 1438.20 464.34 C 1442.38 465.82 1446.83 468.37 1451.33 466.15 Z" />
</g>
<g id="#3f3fdfff">
<path fill="#3f3fdf" fill-opacity="0" d=" M 774.95 458.96 C 775.91 459.39 776.88 459.82 777.85 460.25 C 777.90 460.93 778.01 462.29 778.06 462.97 C 777.30 462.97 775.79 462.99 775.03 462.99 C 774.99 461.64 774.96 460.30 774.95 458.96 Z" />
</g>
<g id="#9f001ffe">
<path fill="#9f001f" fill-opacity="0" d=" M 1202.71 458.79 C 1206.42 460.23 1209.61 463.06 1209.43 467.37 C 1209.30 473.16 1213.98 476.77 1218.02 480.07 C 1223.00 484.10 1223.14 491.04 1224.63 496.74 C 1225.49 500.72 1228.85 503.36 1231.61 506.08 C 1233.72 503.82 1235.88 501.60 1238.09 499.43 C 1242.32 503.44 1244.62 508.87 1245.79 514.51 C 1246.38 518.36 1250.33 520.69 1253.96 520.81 C 1257.65 518.94 1260.58 515.20 1265.09 515.26 C 1273.63 514.89 1282.06 513.47 1290.56 512.64 C 1286.29 518.24 1282.68 524.65 1276.70 528.67 C 1270.65 533.86 1261.72 535.26 1257.06 542.08 C 1255.46 548.78 1260.17 554.89 1261.77 561.16 C 1265.58 566.78 1260.96 572.38 1259.20 577.63 C 1256.21 583.91 1258.30 592.61 1252.17 597.19 C 1242.73 603.58 1231.20 600.79 1220.66 600.08 C 1211.85 598.37 1202.88 598.05 1193.97 598.97 C 1189.82 599.47 1185.84 597.53 1181.73 597.89 C 1178.50 598.73 1174.55 601.05 1174.75 604.87 C 1174.86 607.75 1175.41 610.53 1175.91 613.42 C 1171.25 616.11 1166.35 618.30 1161.45 620.49 C 1155.80 614.60 1151.93 607.34 1147.39 600.63 C 1145.82 597.17 1142.27 593.85 1144.13 589.70 C 1145.11 585.24 1148.85 581.08 1147.32 576.30 C 1144.29 567.00 1132.88 564.38 1129.43 555.32 C 1134.87 549.78 1139.12 543.14 1144.98 538.01 C 1141.80 520.84 1135.14 504.56 1129.84 487.98 C 1136.97 483.42 1143.98 478.03 1152.50 476.48 C 1162.76 474.02 1173.08 471.73 1183.50 470.05 C 1191.16 469.11 1198.03 464.84 1202.71 458.79 Z" />
</g>
<g id="#df009fff">
<path fill="#df009f" fill-opacity="0" d=" M 799.81 472.23 C 801.95 471.73 804.62 471.81 805.92 473.91 C 808.75 478.43 809.39 483.84 810.87 488.88 C 819.49 487.74 828.21 487.58 836.81 486.28 C 835.43 491.56 833.48 496.83 833.51 502.36 C 834.52 518.40 842.95 532.43 847.83 547.40 C 843.74 549.19 839.47 550.72 835.01 551.20 C 831.37 551.02 828.47 548.09 824.73 548.25 C 820.26 549.89 816.10 554.29 810.94 553.10 C 806.68 552.82 801.88 550.15 797.95 552.89 C 792.87 556.43 788.74 561.16 783.54 564.56 C 777.68 568.80 770.33 570.95 765.35 576.34 C 762.54 580.84 762.61 586.51 760.90 591.48 C 756.51 589.78 752.29 585.46 747.33 587.17 C 737.53 590.11 727.68 593.26 718.65 598.15 C 717.84 602.02 719.43 607.06 716.61 610.42 C 714.66 611.78 712.17 611.94 709.90 612.35 C 704.22 612.99 697.86 614.46 692.60 611.34 C 688.37 607.98 686.16 602.83 683.67 598.18 C 678.76 587.89 671.98 578.58 667.32 568.17 C 662.34 553.76 654.99 538.97 657.42 523.30 C 659.02 514.45 669.92 514.12 676.63 511.88 C 680.10 510.82 685.43 510.13 685.49 505.49 C 685.85 500.13 679.85 497.71 678.21 493.14 C 684.28 483.58 697.84 481.66 707.62 486.24 C 712.56 489.61 718.68 490.54 724.56 490.58 C 733.20 490.68 741.84 490.47 750.46 489.89 C 754.59 489.69 758.56 488.25 762.16 486.24 C 765.06 483.76 766.42 479.88 769.54 477.62 C 773.43 475.93 777.85 476.53 781.99 475.89 C 788.06 475.40 793.86 473.42 799.81 472.23 M 776.16 481.54 C 777.27 482.43 778.38 483.38 779.65 484.07 C 780.36 482.72 780.97 481.32 781.63 479.95 C 779.79 480.44 777.97 480.98 776.16 481.54 Z" />
</g>
<g id="#7fbfdfff">
<path fill="#7fbfdf" fill-opacity="0" d=" M 1288.00 483.21 C 1290.26 478.64 1294.17 474.63 1299.16 473.18 C 1303.91 472.85 1307.59 476.54 1311.16 479.15 C 1310.72 481.38 1310.29 483.62 1309.90 485.87 C 1312.98 485.75 1316.07 485.63 1319.16 485.50 C 1318.90 487.14 1318.69 488.81 1318.35 490.44 C 1317.87 493.90 1314.22 495.42 1311.79 497.35 C 1313.15 501.87 1314.33 506.47 1314.82 511.18 C 1315.32 514.55 1315.51 518.59 1318.59 520.75 C 1323.30 524.25 1327.87 527.95 1332.70 531.30 C 1334.53 528.30 1336.26 525.23 1338.09 522.22 C 1341.56 523.54 1345.01 524.86 1348.54 526.09 C 1350.68 523.05 1352.70 519.91 1355.23 517.16 C 1356.93 515.49 1359.53 516.69 1361.21 517.79 C 1365.18 520.57 1368.64 524.03 1372.62 526.82 C 1367.96 530.20 1362.78 532.73 1357.67 535.30 C 1360.79 543.32 1365.84 550.39 1369.41 558.20 C 1361.81 566.51 1352.26 572.61 1343.36 579.39 C 1340.24 581.74 1336.75 583.64 1332.94 584.52 C 1332.45 584.57 1331.48 584.67 1331.00 584.72 C 1327.35 584.95 1323.89 585.19 1320.30 585.40 C 1321.62 590.79 1323.10 596.16 1324.11 601.63 C 1317.68 602.33 1311.24 601.62 1304.83 601.24 C 1300.15 601.68 1295.45 602.11 1290.83 602.94 C 1281.21 606.28 1274.71 614.74 1269.13 622.80 C 1267.25 623.07 1265.15 622.75 1263.49 623.78 C 1257.14 629.51 1251.59 636.02 1245.49 642.00 C 1248.37 633.19 1251.82 622.54 1245.82 614.16 C 1240.08 609.91 1232.34 612.82 1225.91 610.79 C 1222.90 608.07 1222.16 603.70 1220.66 600.08 C 1231.20 600.79 1242.73 603.58 1252.17 597.19 C 1258.30 592.61 1256.21 583.91 1259.20 577.63 C 1260.96 572.38 1265.58 566.78 1261.77 561.16 C 1260.17 554.89 1255.46 548.78 1257.06 542.08 C 1261.72 535.26 1270.65 533.86 1276.70 528.67 C 1282.68 524.65 1286.29 518.24 1290.56 512.64 C 1292.34 509.71 1294.76 506.43 1293.79 502.81 C 1292.15 496.18 1287.82 490.30 1288.00 483.21 M 1272.03 546.17 C 1272.06 547.71 1272.11 549.26 1272.19 550.82 C 1274.97 549.93 1276.22 547.66 1275.73 544.85 C 1274.48 545.28 1273.25 545.72 1272.03 546.17 Z" />
</g>
<g id="#5f7f9fff">
<path fill="#5f7f9f" fill-opacity="0" d=" M 776.16 481.54 C 777.97 480.98 779.79 480.44 781.63 479.95 C 780.97 481.32 780.36 482.72 779.65 484.07 C 778.38 483.38 777.27 482.43 776.16 481.54 Z" />
</g>
<g id="#00bf5fff">
<path fill="#00bf5f" fill-opacity="0" d=" M 501.18 503.32 C 502.64 502.15 504.29 504.67 502.82 505.68 C 501.35 506.84 499.69 504.31 501.18 503.32 Z" />
</g>
<g id="#5f001fff">
<path fill="#5f001f" fill-opacity="0" d=" M 563.39 536.12 C 566.59 533.08 571.00 531.79 574.93 529.95 C 578.95 535.19 580.32 541.62 579.59 548.14 C 582.94 549.80 588.08 550.49 588.89 554.87 C 590.26 560.54 590.53 566.58 593.11 571.90 C 598.96 579.53 607.18 584.83 613.69 591.83 C 617.68 597.30 619.50 604.11 619.94 610.81 C 620.11 614.74 619.17 619.40 615.57 621.60 C 607.72 625.17 598.52 625.97 591.67 631.59 C 586.91 635.37 581.28 639.77 581.43 646.54 C 581.04 649.84 582.59 652.93 583.61 655.98 C 579.34 657.92 575.08 659.90 570.88 661.99 C 573.07 666.90 576.28 671.57 576.99 676.99 C 576.81 681.29 576.00 685.67 574.46 689.69 C 570.81 693.68 565.57 696.15 562.66 700.88 C 559.67 705.68 553.88 707.19 549.19 709.80 C 547.83 707.82 546.47 705.85 545.10 703.89 C 537.47 703.96 530.55 699.88 522.89 699.92 C 521.89 705.96 524.72 711.24 527.02 716.53 C 529.80 725.70 531.82 735.47 537.47 743.43 C 544.18 753.22 549.59 763.81 556.05 773.76 C 537.00 780.02 520.23 791.66 501.13 797.87 C 485.42 775.01 468.39 753.09 452.98 730.02 C 446.97 721.16 439.37 713.34 434.70 703.62 C 431.46 691.38 435.28 679.01 436.62 666.83 C 439.46 653.80 440.46 640.18 445.90 627.88 C 447.44 623.90 452.15 624.05 455.68 623.47 C 460.59 623.02 463.66 617.77 463.22 613.15 C 462.79 607.88 461.39 602.76 459.62 597.81 C 473.52 594.49 487.15 590.21 500.65 585.54 C 500.99 582.90 501.14 580.08 501.50 577.52 C 506.25 576.36 511.19 575.14 515.19 572.22 C 517.75 568.93 517.36 564.43 517.74 560.48 C 520.53 559.67 523.38 558.89 526.18 558.07 C 526.58 554.86 526.89 551.65 527.29 548.46 C 530.01 546.94 532.71 545.41 535.43 543.89 C 535.26 541.10 535.10 538.32 535.09 535.53 C 537.19 534.29 539.29 533.05 541.39 531.81 C 543.86 537.46 546.18 543.19 548.11 549.05 C 552.55 547.19 556.99 545.33 561.54 543.74 C 562.07 541.20 562.09 538.42 563.39 536.12 Z" />
</g>
<g id="#00bfdfff">
<path fill="#00bfdf" fill-opacity="0" d=" M 1272.03 546.17 C 1273.25 545.72 1274.48 545.28 1275.73 544.85 C 1276.22 547.66 1274.97 549.93 1272.19 550.82 C 1272.11 549.26 1272.06 547.71 1272.03 546.17 Z" />
</g>
<g id="#3f00dfff">
<path fill="#3f00df" fill-opacity="0" d=" M 824.73 548.25 C 828.47 548.09 831.37 551.02 835.01 551.20 C 839.47 550.72 843.74 549.19 847.83 547.40 C 849.37 551.69 851.06 556.25 854.72 559.22 C 859.09 562.99 862.68 567.64 864.94 572.98 C 867.99 580.12 874.18 585.14 878.68 591.30 C 881.85 596.01 882.49 604.55 889.12 605.32 C 895.57 603.32 901.54 599.70 908.53 599.44 C 909.27 602.64 910.26 605.77 911.55 608.80 C 902.73 609.53 895.10 614.39 887.86 619.03 C 884.72 621.27 886.01 626.40 882.56 628.38 C 877.35 631.26 871.50 632.69 866.07 635.08 C 863.92 629.08 863.36 622.01 858.68 617.27 C 856.86 615.27 853.94 616.13 851.59 616.15 C 854.03 622.43 856.89 628.54 859.11 634.92 C 854.48 639.71 849.43 644.33 843.33 647.15 C 838.15 649.34 832.42 646.80 827.16 648.24 C 820.99 656.19 826.76 665.84 832.35 672.13 C 819.25 677.35 805.78 682.10 791.80 684.22 C 790.36 680.72 788.70 677.34 786.99 673.97 C 781.09 675.12 775.04 675.66 769.29 677.44 C 768.21 678.36 767.18 679.33 766.15 680.30 C 762.63 680.79 759.15 681.31 755.67 681.84 C 749.22 677.91 743.36 673.13 740.07 666.15 C 737.70 662.18 734.56 658.58 733.10 654.14 C 732.20 649.31 732.81 644.41 733.24 639.57 C 724.40 631.39 722.14 616.58 709.90 612.35 C 712.17 611.94 714.66 611.78 716.61 610.42 C 719.43 607.06 717.84 602.02 718.65 598.15 C 727.68 593.26 737.53 590.11 747.33 587.17 C 752.29 585.46 756.51 589.78 760.90 591.48 C 762.61 586.51 762.54 580.84 765.35 576.34 C 770.33 570.95 777.68 568.80 783.54 564.56 C 788.74 561.16 792.87 556.43 797.95 552.89 C 801.88 550.15 806.68 552.82 810.94 553.10 C 816.10 554.29 820.26 549.89 824.73 548.25 Z" />
</g>
<g id="#1f009fff">
<path fill="#1f009f" fill-opacity="0" d=" M 1369.41 558.20 C 1373.29 554.35 1378.15 551.15 1383.66 550.34 C 1386.31 549.83 1389.05 551.12 1390.30 553.54 C 1396.55 564.02 1399.69 577.39 1411.21 583.59 C 1413.79 582.34 1416.72 579.27 1419.74 581.11 C 1422.23 582.82 1423.72 585.56 1425.53 587.93 C 1432.94 588.02 1437.32 593.83 1441.82 598.79 C 1440.91 604.14 1438.10 608.68 1434.88 612.90 C 1430.31 619.20 1432.82 628.18 1428.54 634.53 C 1425.38 638.99 1419.01 636.06 1415.30 639.26 C 1413.87 643.40 1415.14 647.92 1413.85 652.09 C 1412.69 655.11 1410.62 657.67 1408.81 660.31 C 1406.37 656.57 1403.42 652.26 1398.66 651.54 C 1393.47 650.89 1388.57 653.61 1383.41 653.22 C 1379.83 652.13 1377.22 649.24 1374.43 646.92 C 1373.24 648.49 1372.08 650.09 1370.92 651.68 C 1372.56 654.08 1374.50 656.34 1375.68 659.04 C 1374.70 660.57 1373.37 661.88 1371.88 662.90 C 1366.15 660.73 1362.64 654.18 1356.23 653.64 C 1351.22 655.33 1347.68 659.71 1344.08 663.39 C 1342.38 662.34 1340.69 661.31 1339.02 660.24 C 1336.86 662.24 1334.70 664.24 1332.54 666.22 C 1334.17 669.95 1336.93 673.39 1337.51 677.52 C 1333.82 682.50 1328.09 685.89 1322.21 687.54 C 1316.36 686.94 1312.21 681.60 1306.38 680.71 C 1301.79 680.03 1297.21 681.31 1292.68 681.90 C 1287.69 676.67 1283.23 670.95 1277.98 665.98 C 1275.02 663.61 1271.91 660.60 1267.87 660.76 C 1262.72 660.89 1257.77 662.53 1252.87 663.95 C 1249.52 656.97 1245.11 650.05 1245.49 642.00 C 1251.59 636.02 1257.14 629.51 1263.49 623.78 C 1265.15 622.75 1267.25 623.07 1269.13 622.80 C 1274.71 614.74 1281.21 606.28 1290.83 602.94 C 1295.45 602.11 1300.15 601.68 1304.83 601.24 C 1311.24 601.62 1317.68 602.33 1324.11 601.63 C 1323.10 596.16 1321.62 590.79 1320.30 585.40 C 1323.89 585.19 1327.35 584.95 1331.00 584.72 C 1327.56 587.83 1325.61 592.16 1323.31 596.10 C 1329.94 597.56 1336.74 597.97 1343.52 597.67 C 1344.11 594.72 1344.69 591.77 1345.28 588.82 C 1341.16 587.28 1337.20 585.50 1332.94 584.52 C 1336.75 583.64 1340.24 581.74 1343.36 579.39 C 1352.26 572.61 1361.81 566.51 1369.41 558.20 M 1360.94 613.99 C 1361.04 614.92 1361.24 616.79 1361.34 617.72 C 1362.33 616.09 1363.29 614.44 1364.25 612.80 C 1363.13 613.18 1362.03 613.58 1360.94 613.99 Z" />
</g>
<g id="#bf3fdfff">
<path fill="#bf3fdf" fill-opacity="0" d=" M 641.46 587.34 C 651.95 583.81 659.02 574.92 667.32 568.17 C 671.98 578.58 678.76 587.89 683.67 598.18 C 686.16 602.83 688.37 607.98 692.60 611.34 C 697.86 614.46 704.22 612.99 709.90 612.35 C 722.14 616.58 724.40 631.39 733.24 639.57 C 732.81 644.41 732.20 649.31 733.10 654.14 C 734.56 658.58 737.70 662.18 740.07 666.15 C 737.64 671.73 738.85 677.76 738.74 683.61 C 737.53 689.10 730.66 688.49 726.37 689.35 C 724.76 685.61 723.17 681.89 721.53 678.18 C 719.61 679.34 717.61 680.43 716.01 682.01 C 713.60 685.05 715.48 690.63 711.40 692.40 C 705.67 694.25 699.48 693.57 693.57 693.29 C 692.90 695.18 692.23 697.07 691.56 698.97 C 687.44 699.20 683.38 700.45 679.27 700.08 C 676.24 697.97 674.26 694.53 670.89 692.87 C 667.18 694.00 664.06 696.74 660.18 697.33 C 650.81 698.20 640.68 695.36 632.20 700.70 C 632.91 702.91 633.61 705.12 634.30 707.35 C 629.36 708.58 624.25 708.24 619.30 707.27 C 619.62 709.69 619.01 712.89 621.45 714.40 C 624.62 716.70 628.32 718.11 631.88 719.69 C 630.14 725.31 624.61 727.60 619.71 729.85 C 620.17 732.51 622.09 735.62 620.28 738.14 C 618.88 740.16 616.76 742.19 614.15 742.17 C 611.69 740.89 609.79 738.77 607.46 737.30 C 600.92 743.87 596.80 752.54 591.01 759.78 C 593.40 763.02 595.84 766.28 598.12 769.63 C 591.67 773.20 585.94 777.85 580.24 782.50 C 596.13 810.90 612.43 839.10 629.16 867.01 C 616.10 856.78 604.39 844.99 593.34 832.66 C 587.02 825.66 582.53 817.33 577.68 809.32 C 570.60 797.38 563.31 785.58 556.05 773.76 C 549.59 763.81 544.18 753.22 537.47 743.43 C 531.82 735.47 529.80 725.70 527.02 716.53 C 524.72 711.24 521.89 705.96 522.89 699.92 C 530.55 699.88 537.47 703.96 545.10 703.89 C 546.47 705.85 547.83 707.82 549.19 709.80 C 553.88 707.19 559.67 705.68 562.66 700.88 C 565.57 696.15 570.81 693.68 574.46 689.69 C 576.00 685.67 576.81 681.29 576.99 676.99 C 576.28 671.57 573.07 666.90 570.88 661.99 C 575.08 659.90 579.34 657.92 583.61 655.98 C 582.59 652.93 581.04 649.84 581.43 646.54 C 581.28 639.77 586.91 635.37 591.67 631.59 C 598.52 625.97 607.72 625.17 615.57 621.60 C 619.17 619.40 620.11 614.74 619.94 610.81 C 619.50 604.11 617.68 597.30 613.69 591.83 C 622.58 588.09 632.68 591.49 641.46 587.34 Z" />
</g>
<g id="#1f7f9fff">
<path fill="#1f7f9f" fill-opacity="0" d=" M 878.68 591.30 C 890.16 589.09 898.44 580.51 907.63 574.06 C 913.76 576.09 920.29 575.97 926.58 577.25 C 929.43 581.50 929.87 587.68 935.05 590.00 C 946.62 596.11 958.99 587.63 970.93 591.04 C 972.24 591.48 973.58 592.58 973.56 594.10 C 973.66 600.85 972.83 607.64 974.02 614.36 C 975.21 622.74 976.32 632.42 984.55 637.12 C 988.19 637.73 991.86 636.68 995.48 636.19 C 998.11 644.69 1002.02 652.69 1005.93 660.66 C 997.59 663.89 988.96 666.41 980.82 670.13 C 974.24 673.97 967.41 677.56 961.50 682.38 C 958.41 687.64 961.44 697.54 953.65 699.43 C 946.57 700.16 939.44 701.52 933.52 705.74 C 927.65 708.87 923.10 713.83 918.54 718.56 C 916.47 714.71 915.57 709.62 911.60 707.22 C 905.89 706.10 901.83 710.70 897.35 713.26 C 895.07 705.78 893.05 698.21 892.33 690.41 C 888.01 689.44 882.64 686.66 878.71 690.04 C 873.77 695.22 870.39 701.65 865.89 707.21 C 858.85 700.88 851.72 694.66 844.74 688.27 C 839.56 683.76 836.70 677.35 832.35 672.13 C 826.76 665.84 820.99 656.19 827.16 648.24 C 832.42 646.80 838.15 649.34 843.33 647.15 C 849.43 644.33 854.48 639.71 859.11 634.92 C 856.89 628.54 854.03 622.43 851.59 616.15 C 853.94 616.13 856.86 615.27 858.68 617.27 C 863.36 622.01 863.92 629.08 866.07 635.08 C 871.50 632.69 877.35 631.26 882.56 628.38 C 886.01 626.40 884.72 621.27 887.86 619.03 C 895.10 614.39 902.73 609.53 911.55 608.80 C 910.26 605.77 909.27 602.64 908.53 599.44 C 901.54 599.70 895.57 603.32 889.12 605.32 C 882.49 604.55 881.85 596.01 878.68 591.30 Z" />
</g>
<g id="#5f009fff">
<path fill="#5f009f" fill-opacity="0" d=" M 1331.00 584.72 C 1331.48 584.67 1332.45 584.57 1332.94 584.52 C 1337.20 585.50 1341.16 587.28 1345.28 588.82 C 1344.69 591.77 1344.11 594.72 1343.52 597.67 C 1336.74 597.97 1329.94 597.56 1323.31 596.10 C 1325.61 592.16 1327.56 587.83 1331.00 584.72 Z" />
</g>
<g id="#bf3f5fff">
<path fill="#bf3f5f" fill-opacity="0" d=" M 1481.64 591.43 C 1487.86 591.95 1490.99 597.29 1494.13 602.04 C 1496.14 602.23 1498.10 601.54 1500.06 601.11 C 1504.64 609.45 1506.53 619.11 1511.89 626.94 C 1518.01 628.89 1525.31 633.76 1531.51 629.52 C 1537.36 625.58 1543.59 622.11 1549.06 617.62 C 1555.00 624.80 1558.29 633.76 1564.08 641.08 C 1566.71 644.40 1569.45 647.92 1569.19 652.49 C 1562.11 660.39 1556.38 669.42 1549.16 677.17 C 1542.73 682.10 1533.65 680.45 1526.87 684.76 C 1518.65 689.68 1508.68 692.75 1503.00 700.94 C 1495.93 710.57 1489.34 720.68 1480.61 728.93 C 1478.76 726.77 1477.21 722.78 1473.70 723.78 C 1468.25 725.02 1463.13 722.46 1458.12 720.77 C 1446.89 724.87 1437.81 733.49 1426.54 737.50 C 1422.27 740.05 1418.28 737.86 1414.96 735.33 C 1420.14 727.95 1425.02 720.37 1429.78 712.71 C 1432.08 709.30 1430.69 704.97 1430.46 701.26 C 1429.50 695.70 1429.86 689.75 1427.40 684.56 C 1424.47 679.34 1419.65 675.63 1415.65 671.30 C 1412.65 668.12 1411.03 664.00 1408.81 660.31 C 1410.62 657.67 1412.69 655.11 1413.85 652.09 C 1415.14 647.92 1413.87 643.40 1415.30 639.26 C 1419.01 636.06 1425.38 638.99 1428.54 634.53 C 1432.82 628.18 1430.31 619.20 1434.88 612.90 C 1438.10 608.68 1440.91 604.14 1441.82 598.79 C 1444.12 600.35 1446.69 601.49 1448.92 603.20 C 1450.87 605.07 1451.62 607.78 1452.83 610.15 C 1461.91 607.49 1470.96 604.79 1479.90 601.71 C 1480.56 598.31 1480.94 594.80 1481.64 591.43 Z" />
</g>
<g id="#7f3fdfff">
<path fill="#7f3fdf" fill-opacity="0" d=" M 1181.73 597.89 C 1185.84 597.53 1189.82 599.47 1193.97 598.97 C 1202.88 598.05 1211.85 598.37 1220.66 600.08 C 1222.16 603.70 1222.90 608.07 1225.91 610.79 C 1232.34 612.82 1240.08 609.91 1245.82 614.16 C 1251.82 622.54 1248.37 633.19 1245.49 642.00 C 1245.11 650.05 1249.52 656.97 1252.87 663.95 C 1244.60 676.23 1235.55 687.96 1227.27 700.24 C 1225.11 703.52 1222.29 706.56 1218.39 707.65 C 1211.40 709.84 1209.07 717.57 1205.05 722.97 C 1202.32 722.38 1199.57 721.78 1196.90 721.21 C 1187.33 730.92 1178.58 741.44 1170.15 752.14 C 1165.85 760.08 1163.90 769.11 1161.57 777.79 C 1156.78 775.92 1151.85 777.33 1147.59 779.81 C 1145.63 773.85 1147.17 767.63 1146.30 761.60 C 1140.93 757.87 1134.44 755.24 1132.30 748.33 C 1126.64 748.93 1120.89 750.34 1115.19 749.39 C 1110.06 748.51 1108.14 742.00 1102.80 741.61 C 1098.98 741.73 1095.32 742.80 1091.65 743.70 C 1090.36 738.64 1090.38 733.06 1087.33 728.64 C 1083.56 723.64 1078.12 720.33 1073.66 716.04 C 1069.44 710.73 1067.49 703.80 1067.16 697.11 C 1067.63 685.13 1071.32 673.43 1071.18 661.45 C 1074.78 660.41 1078.35 659.25 1081.90 658.06 C 1083.90 659.92 1085.86 661.82 1087.83 663.74 C 1092.00 661.84 1095.98 659.23 1100.51 658.23 C 1104.37 658.00 1107.75 660.43 1111.51 660.85 C 1115.02 660.63 1118.10 658.65 1121.24 657.21 C 1119.79 655.00 1118.33 652.81 1116.87 650.63 C 1121.02 648.22 1125.24 645.94 1129.55 643.81 C 1132.03 645.25 1134.35 647.28 1137.23 647.87 C 1139.39 647.74 1141.43 646.89 1143.51 646.32 C 1141.85 641.39 1139.92 636.55 1138.08 631.68 C 1140.58 629.07 1143.09 626.48 1145.72 623.99 C 1148.25 624.74 1150.75 625.89 1153.44 626.01 C 1156.95 625.88 1159.36 622.98 1161.45 620.49 C 1166.35 618.30 1171.25 616.11 1175.91 613.42 C 1175.41 610.53 1174.86 607.75 1174.75 604.87 C 1174.55 601.05 1178.50 598.73 1181.73 597.89 Z" />
</g>
<g id="#9f009fff">
<path fill="#9f009f" fill-opacity="0" d=" M 1360.94 613.99 C 1362.03 613.58 1363.13 613.18 1364.25 612.80 C 1363.29 614.44 1362.33 616.09 1361.34 617.72 C 1361.24 616.79 1361.04 614.92 1360.94 613.99 Z" />
</g>
<g id="#1f001fff">
<path fill="#1f001f" fill-opacity="0" d=" M 1020.01 643.50 C 1027.70 641.97 1035.46 640.79 1043.23 639.67 C 1048.83 646.25 1056.02 651.47 1064.27 654.21 C 1067.62 655.35 1069.42 658.61 1071.18 661.45 C 1071.32 673.43 1067.63 685.13 1067.16 697.11 C 1064.47 696.81 1061.79 696.47 1059.11 696.12 C 1058.59 703.32 1057.62 710.48 1056.00 717.53 C 1044.74 718.24 1035.44 725.30 1025.17 729.16 C 1023.25 733.36 1023.70 738.17 1022.07 742.44 C 1018.57 746.55 1012.75 745.54 1008.04 744.69 C 1005.32 747.58 1002.54 750.68 998.68 752.02 C 992.16 753.80 988.80 762.13 981.23 760.92 C 979.25 758.63 978.38 755.66 977.28 752.92 C 974.35 754.33 971.42 755.76 968.55 757.29 C 967.24 761.10 969.70 766.97 965.68 769.59 C 957.90 774.93 949.24 778.84 941.37 784.05 C 940.58 774.29 941.81 764.14 938.50 754.72 C 935.51 745.16 943.20 736.49 942.14 726.91 C 940.96 723.24 937.90 720.51 936.67 716.87 C 936.17 714.16 937.41 711.54 938.13 708.99 C 936.59 707.90 935.04 706.82 933.52 705.74 C 939.44 701.52 946.57 700.16 953.65 699.43 C 961.44 697.54 958.41 687.64 961.50 682.38 C 967.41 677.56 974.24 673.97 980.82 670.13 C 988.96 666.41 997.59 663.89 1005.93 660.66 C 1011.86 661.88 1018.60 660.19 1022.68 655.61 C 1024.23 651.55 1020.43 647.42 1020.01 643.50 Z" />
</g>
<g id="#df001fff">
<path fill="#df001f" fill-opacity="0" d=" M 1370.92 651.68 C 1372.08 650.09 1373.24 648.49 1374.43 646.92 C 1377.22 649.24 1379.83 652.13 1383.41 653.22 C 1388.57 653.61 1393.47 650.89 1398.66 651.54 C 1403.42 652.26 1406.37 656.57 1408.81 660.31 C 1411.03 664.00 1412.65 668.12 1415.65 671.30 C 1419.65 675.63 1424.47 679.34 1427.40 684.56 C 1429.86 689.75 1429.50 695.70 1430.46 701.26 C 1430.69 704.97 1432.08 709.30 1429.78 712.71 C 1425.02 720.37 1420.14 727.95 1414.96 735.33 C 1407.94 735.67 1401.17 737.71 1394.24 738.67 C 1391.13 739.12 1387.68 740.06 1386.17 743.11 C 1380.48 752.74 1374.45 762.16 1367.73 771.10 C 1364.27 769.72 1360.52 768.75 1357.56 766.42 C 1354.32 762.94 1353.76 757.76 1350.84 754.14 C 1344.12 749.59 1335.31 751.76 1328.83 755.74 C 1331.47 750.75 1334.01 745.71 1336.35 740.58 C 1327.69 740.82 1319.33 744.27 1310.62 743.19 C 1307.84 742.16 1305.23 739.88 1304.77 736.83 C 1303.86 731.49 1305.08 725.82 1303.27 720.66 C 1300.49 716.67 1296.33 713.95 1292.72 710.78 C 1293.13 708.50 1293.62 706.22 1293.75 703.90 C 1293.98 699.47 1290.46 695.61 1291.25 691.15 C 1291.66 688.05 1292.30 685.00 1292.68 681.90 C 1297.21 681.31 1301.79 680.03 1306.38 680.71 C 1312.21 681.60 1316.36 686.94 1322.21 687.54 C 1328.09 685.89 1333.82 682.50 1337.51 677.52 C 1336.93 673.39 1334.17 669.95 1332.54 666.22 C 1334.70 664.24 1336.86 662.24 1339.02 660.24 C 1340.69 661.31 1342.38 662.34 1344.08 663.39 C 1347.68 659.71 1351.22 655.33 1356.23 653.64 C 1362.64 654.18 1366.15 660.73 1371.88 662.90 C 1373.37 661.88 1374.70 660.57 1375.68 659.04 C 1374.50 656.34 1372.56 654.08 1370.92 651.68 Z" />
</g>
<g id="#7fbf5fff">
<path fill="#7fbf5f" fill-opacity="0" d=" M 1252.87 663.95 C 1257.77 662.53 1262.72 660.89 1267.87 660.76 C 1271.91 660.60 1275.02 663.61 1277.98 665.98 C 1283.23 670.95 1287.69 676.67 1292.68 681.90 C 1292.30 685.00 1291.66 688.05 1291.25 691.15 C 1290.46 695.61 1293.98 699.47 1293.75 703.90 C 1293.62 706.22 1293.13 708.50 1292.72 710.78 C 1296.33 713.95 1300.49 716.67 1303.27 720.66 C 1305.08 725.82 1303.86 731.49 1304.77 736.83 C 1305.23 739.88 1307.84 742.16 1310.62 743.19 C 1319.33 744.27 1327.69 740.82 1336.35 740.58 C 1334.01 745.71 1331.47 750.75 1328.83 755.74 C 1326.09 760.76 1322.99 765.90 1318.00 768.98 C 1311.82 773.06 1306.87 778.60 1301.31 783.43 C 1301.45 786.42 1301.87 789.47 1301.29 792.45 C 1300.80 798.75 1296.03 803.43 1294.70 809.44 C 1293.80 816.99 1288.82 822.99 1285.99 829.81 C 1283.62 835.66 1280.72 841.28 1277.76 846.85 C 1274.48 856.63 1262.38 859.84 1253.28 857.58 C 1248.57 856.80 1246.03 852.29 1242.44 849.67 C 1236.76 845.66 1230.47 842.47 1223.86 840.28 C 1224.64 836.74 1225.51 833.22 1226.64 829.78 C 1222.56 827.78 1218.14 826.18 1213.53 826.62 C 1205.07 828.61 1198.51 822.22 1191.01 819.91 C 1187.34 818.54 1183.86 821.02 1180.28 821.44 C 1176.17 819.31 1174.34 814.64 1171.89 811.05 C 1169.59 807.08 1166.55 802.71 1167.81 797.87 C 1169.32 791.29 1171.85 784.98 1173.31 778.38 C 1169.41 779.98 1164.98 781.06 1161.57 777.79 C 1163.90 769.11 1165.85 760.08 1170.15 752.14 C 1178.58 741.44 1187.33 730.92 1196.90 721.21 C 1199.57 721.78 1202.32 722.38 1205.05 722.97 C 1209.07 717.57 1211.40 709.84 1218.39 707.65 C 1222.29 706.56 1225.11 703.52 1227.27 700.24 C 1235.55 687.96 1244.60 676.23 1252.87 663.95 Z" />
</g>
<g id="#df7f9fff">
<path fill="#df7f9f" fill-opacity="0" d=" M 738.74 683.61 C 738.85 677.76 737.64 671.73 740.07 666.15 C 743.36 673.13 749.22 677.91 755.67 681.84 C 754.66 688.65 752.08 695.10 750.83 701.87 C 749.37 707.05 749.83 713.10 746.59 717.60 C 743.50 719.11 740.13 716.63 737.12 715.75 C 735.80 717.74 734.45 719.71 733.10 721.69 C 736.26 723.62 739.48 725.58 742.71 727.49 C 742.79 728.91 742.94 731.77 743.02 733.20 C 739.67 734.07 734.34 732.19 732.03 735.86 C 727.35 742.68 724.66 750.88 718.94 756.97 C 714.02 762.42 706.31 763.53 700.31 767.30 C 694.94 772.82 698.29 782.64 692.69 787.84 C 687.69 787.73 685.22 781.71 682.17 778.32 C 673.24 780.33 666.95 788.70 657.58 788.97 C 652.50 789.72 647.12 789.34 642.33 791.40 C 638.80 793.14 637.89 797.37 636.36 800.66 C 632.88 801.56 629.42 802.68 625.82 802.96 C 621.87 803.44 618.97 800.09 615.92 798.15 C 612.03 800.01 608.17 801.95 604.27 803.79 C 618.84 831.06 634.77 857.60 649.31 884.89 C 642.43 879.15 634.83 874.00 629.16 867.01 C 612.43 839.10 596.13 810.90 580.24 782.50 C 585.94 777.85 591.67 773.20 598.12 769.63 C 595.84 766.28 593.40 763.02 591.01 759.78 C 596.80 752.54 600.92 743.87 607.46 737.30 C 609.79 738.77 611.69 740.89 614.15 742.17 C 616.76 742.19 618.88 740.16 620.28 738.14 C 622.09 735.62 620.17 732.51 619.71 729.85 C 624.61 727.60 630.14 725.31 631.88 719.69 C 628.32 718.11 624.62 716.70 621.45 714.40 C 619.01 712.89 619.62 709.69 619.30 707.27 C 624.25 708.24 629.36 708.58 634.30 707.35 C 633.61 705.12 632.91 702.91 632.20 700.70 C 640.68 695.36 650.81 698.20 660.18 697.33 C 664.06 696.74 667.18 694.00 670.89 692.87 C 674.26 694.53 676.24 697.97 679.27 700.08 C 683.38 700.45 687.44 699.20 691.56 698.97 C 692.23 697.07 692.90 695.18 693.57 693.29 C 699.48 693.57 705.67 694.25 711.40 692.40 C 715.48 690.63 713.60 685.05 716.01 682.01 C 717.61 680.43 719.61 679.34 721.53 678.18 C 723.17 681.89 724.76 685.61 726.37 689.35 C 730.66 688.49 737.53 689.10 738.74 683.61 Z" />
</g>
<g id="#3fbfdfff">
<path fill="#3fbfdf" fill-opacity="0" d=" M 832.35 672.13 C 836.70 677.35 839.56 683.76 844.74 688.27 C 851.72 694.66 858.85 700.88 865.89 707.21 C 870.39 701.65 873.77 695.22 878.71 690.04 C 882.64 686.66 888.01 689.44 892.33 690.41 C 893.05 698.21 895.07 705.78 897.35 713.26 C 901.83 710.70 905.89 706.10 911.60 707.22 C 915.57 709.62 916.47 714.71 918.54 718.56 C 923.10 713.83 927.65 708.87 933.52 705.74 C 935.04 706.82 936.59 707.90 938.13 708.99 C 937.41 711.54 936.17 714.16 936.67 716.87 C 937.90 720.51 940.96 723.24 942.14 726.91 C 943.20 736.49 935.51 745.16 938.50 754.72 C 941.81 764.14 940.58 774.29 941.37 784.05 C 943.27 792.37 935.75 800.20 927.57 799.60 C 921.68 798.46 916.37 801.28 911.40 803.96 C 910.16 808.51 909.91 814.50 904.77 816.56 C 898.00 820.54 891.54 825.78 883.70 827.38 C 878.98 826.47 875.06 823.16 870.75 821.18 C 869.50 827.81 861.59 828.44 856.22 829.69 C 850.52 832.12 845.41 829.09 840.80 826.15 C 839.61 828.55 838.48 830.97 837.38 833.42 C 833.47 831.87 830.17 828.41 825.79 828.36 C 817.04 829.08 808.58 831.54 800.01 833.24 C 798.51 826.78 797.30 820.19 794.97 813.97 C 793.07 808.47 786.36 807.41 783.41 802.75 C 780.75 798.63 779.15 793.92 777.57 789.32 C 774.03 783.52 779.42 776.82 775.78 771.11 C 771.14 763.55 766.18 755.20 767.91 745.87 C 768.55 732.78 782.76 727.57 787.38 716.57 C 790.13 706.94 781.73 699.34 776.83 692.16 C 773.39 687.77 771.62 682.43 769.29 677.44 C 775.04 675.66 781.09 675.12 786.99 673.97 C 788.70 677.34 790.36 680.72 791.80 684.22 C 805.78 682.10 819.25 677.35 832.35 672.13 Z" />
</g>
<g id="#9f7f1ffe">
<path fill="#9f7f1f" fill-opacity="0" d=" M 766.15 680.30 C 767.18 679.33 768.21 678.36 769.29 677.44 C 771.62 682.43 773.39 687.77 776.83 692.16 C 781.73 699.34 790.13 706.94 787.38 716.57 C 782.76 727.57 768.55 732.78 767.91 745.87 C 766.18 755.20 771.14 763.55 775.78 771.11 C 779.42 776.82 774.03 783.52 777.57 789.32 C 779.15 793.92 780.75 798.63 783.41 802.75 C 786.36 807.41 793.07 808.47 794.97 813.97 C 797.30 820.19 798.51 826.78 800.01 833.24 C 796.63 835.65 791.92 837.33 791.17 842.02 C 789.18 846.68 792.47 853.49 787.66 856.64 C 780.48 860.67 771.64 858.60 764.29 862.24 C 758.18 864.42 751.08 868.94 744.72 865.30 C 735.22 861.76 734.45 850.90 730.93 842.87 C 728.83 846.02 727.24 849.93 723.71 851.76 C 719.75 851.22 716.05 849.30 711.95 849.58 C 713.79 855.00 716.22 860.20 718.46 865.47 C 719.39 868.35 720.78 871.99 718.69 874.65 C 714.49 876.09 709.94 875.76 705.65 876.73 C 706.67 879.44 708.26 882.01 708.62 884.93 C 708.26 887.02 707.30 888.95 706.44 890.88 C 704.67 890.15 702.90 889.43 701.12 888.75 C 698.84 892.97 695.59 897.05 695.22 901.99 C 696.14 906.95 699.41 911.05 701.44 915.59 C 707.58 928.20 714.44 940.47 719.72 953.48 C 706.27 939.55 693.71 924.69 679.13 911.89 C 669.35 902.74 658.36 894.74 649.31 884.89 C 634.77 857.60 618.84 831.06 604.27 803.79 C 608.17 801.95 612.03 800.01 615.92 798.15 C 618.97 800.09 621.87 803.44 625.82 802.96 C 629.42 802.68 632.88 801.56 636.36 800.66 C 637.89 797.37 638.80 793.14 642.33 791.40 C 647.12 789.34 652.50 789.72 657.58 788.97 C 666.95 788.70 673.24 780.33 682.17 778.32 C 685.22 781.71 687.69 787.73 692.69 787.84 C 698.29 782.64 694.94 772.82 700.31 767.30 C 706.31 763.53 714.02 762.42 718.94 756.97 C 724.66 750.88 727.35 742.68 732.03 735.86 C 734.34 732.19 739.67 734.07 743.02 733.20 C 742.94 731.77 742.79 728.91 742.71 727.49 C 739.48 725.58 736.26 723.62 733.10 721.69 C 734.45 719.71 735.80 717.74 737.12 715.75 C 740.13 716.63 743.50 719.11 746.59 717.60 C 749.83 713.10 749.37 707.05 750.83 701.87 C 752.08 695.10 754.66 688.65 755.67 681.84 C 759.15 681.31 762.63 680.79 766.15 680.30 Z" />
</g>
</svg>
