<?xml version="1.0" encoding="UTF-8" ?>
<!DOCTYPE svg PUBLIC "-//W3C//DTD SVG 1.1//EN" "http://www.w3.org/Graphics/SVG/1.1/DTD/svg11.dtd">
<svg width="1920pt" height="1080pt" viewBox="0 0 1920 1080" version="1.1" xmlns="http://www.w3.org/2000/svg">
<g id="#bf009fff" target="1859">
<path fill="#bf009f" fill-opacity="0" d=" M 1087.44 194.49 C 1091.10 190.39 1095.00 185.58 1100.62 184.35 C 1104.11 186.80 1106.84 190.14 1110.02 192.97 C 1112.64 195.63 1116.41 198.38 1115.70 202.63 C 1114.97 211.32 1113.99 220.06 1112.15 228.58 C 1109.81 234.44 1106.92 240.32 1107.56 246.87 C 1114.88 254.14 1125.83 254.21 1134.12 259.68 C 1138.13 264.28 1139.38 270.58 1140.71 276.36 C 1142.47 283.18 1143.15 290.45 1141.33 297.33 C 1145.02 298.05 1149.49 297.67 1152.16 300.80 C 1155.67 304.98 1158.05 309.97 1161.32 314.34 C 1157.79 320.77 1154.55 327.72 1154.32 335.18 C 1154.19 336.91 1154.09 338.67 1153.47 340.31 C 1147.87 342.49 1140.24 342.13 1137.77 348.84 C 1132.86 346.31 1127.50 344.09 1121.86 345.21 C 1112.83 344.97 1103.65 346.19 1096.08 351.47 C 1099.42 355.58 1105.41 357.57 1107.10 362.87 C 1105.11 366.66 1100.80 368.63 1096.66 368.77 C 1092.69 368.93 1088.29 369.33 1085.49 372.52 C 1081.46 375.82 1083.26 383.26 1088.22 384.56 C 1091.01 385.49 1093.96 385.80 1096.86 386.25 C 1094.83 388.12 1092.83 390.02 1090.92 392.00 C 1092.80 394.42 1094.70 396.81 1096.38 399.40 C 1093.04 400.69 1087.38 403.37 1090.14 407.79 C 1094.84 412.73 1100.35 417.40 1102.31 424.24 C 1099.55 427.43 1097.41 431.47 1093.55 433.46 C 1088.97 434.76 1084.09 432.65 1079.52 433.97 C 1077.52 434.58 1075.59 435.39 1073.66 436.13 C 1070.47 433.83 1067.58 426.55 1062.81 429.73 C 1054.48 433.88 1045.55 436.75 1036.35 438.18 C 1036.13 440.61 1035.93 443.04 1035.73 445.48 C 1029.40 446.21 1023.12 447.32 1016.84 448.38 C 1011.86 442.49 1006.50 436.92 1001.78 430.81 C 1005.07 430.45 1008.20 429.88 1011.52 429.34 C 1004.73 426.42 997.48 424.78 990.64 422.11 C 985.46 418.72 980.88 414.48 975.91 410.79 C 981.66 406.28 983.68 398.96 988.02 393.35 C 992.54 389.15 997.88 385.94 1002.63 381.98 C 1005.22 386.84 1005.99 392.94 1010.30 396.68 C 1018.50 395.75 1025.75 391.06 1033.84 389.41 C 1032.66 385.92 1030.83 382.67 1029.79 379.14 C 1028.62 370.39 1025.82 361.96 1023.02 353.62 C 1021.91 350.53 1019.69 348.05 1017.54 345.65 C 1017.44 349.40 1017.10 353.14 1016.91 356.90 C 1014.09 355.62 1008.79 356.64 1007.49 352.80 C 1005.59 347.93 1004.09 342.93 1002.23 338.06 C 1000.02 332.06 1004.65 326.27 1005.21 320.42 C 1005.60 314.04 1003.44 307.91 1001.10 302.09 C 1003.79 303.14 1006.49 304.16 1009.21 305.14 C 1007.88 299.33 1004.52 294.55 1000.79 290.07 C 999.44 290.70 998.09 291.34 996.78 292.01 C 994.06 288.47 989.29 285.15 990.33 280.07 C 990.37 277.50 992.47 275.41 994.97 275.08 C 1001.51 273.87 1008.16 275.18 1014.75 275.21 C 1014.57 262.44 1020.48 250.96 1025.16 239.43 C 1033.43 236.27 1039.50 229.58 1046.44 224.34 C 1049.83 221.61 1054.46 221.57 1058.47 220.40 C 1060.39 217.69 1062.04 214.74 1064.39 212.35 C 1069.84 208.07 1076.88 207.15 1083.24 204.84 C 1083.81 201.13 1084.79 197.29 1087.44 194.49 M 1046.18 394.32 C 1044.69 395.31 1046.34 397.84 1047.82 396.68 C 1049.28 395.68 1047.63 393.15 1046.18 394.32 Z" />
</g>
<g id="#3f001fff" target="1862">
<path fill="#3f001f" fill-opacity="0" d=" M 771.21 188.67 C 776.21 192.17 781.49 195.26 787.57 196.38 C 788.00 199.15 788.62 201.98 789.11 204.76 C 793.42 205.62 797.77 206.46 801.97 207.84 C 802.46 221.45 805.63 234.77 806.45 248.34 C 820.00 247.06 833.49 245.16 846.91 242.81 C 848.60 247.57 850.56 252.22 852.67 256.82 C 844.78 264.24 836.80 271.57 828.29 278.27 C 828.98 283.96 831.07 289.72 829.48 295.47 C 827.23 300.41 820.92 300.83 816.28 301.13 C 815.08 304.80 812.01 308.92 814.38 312.75 C 817.12 317.48 817.74 322.94 818.89 328.18 C 815.27 329.68 811.57 330.93 807.88 332.23 C 809.43 335.49 811.36 338.55 813.54 341.43 C 813.20 343.16 812.86 344.89 812.53 346.63 C 799.98 346.80 787.42 346.88 774.88 347.06 C 777.79 363.56 780.44 380.11 783.34 396.61 C 777.53 393.78 769.71 392.31 764.05 396.02 C 761.05 399.69 760.69 404.97 758.92 409.25 C 756.06 409.33 753.20 409.43 750.35 409.59 C 748.83 404.26 744.08 401.46 739.31 399.42 C 734.42 397.36 732.53 391.86 731.82 387.04 C 728.33 371.22 725.08 355.35 721.37 339.59 C 721.72 337.10 718.37 332.55 721.79 330.87 C 727.27 327.36 733.63 325.11 738.40 320.54 C 737.16 307.67 732.76 295.17 731.87 282.25 C 734.10 271.48 736.39 260.70 739.12 250.04 C 746.35 227.82 764.84 211.29 771.21 188.67 Z" />
</g>
<g id="#bf7f1fff" target="1860">
<path fill="#bf7f1f" fill-opacity="0" d=" M 946.52 237.81 C 953.43 235.57 960.88 236.74 967.97 237.17 C 986.95 239.66 1006.13 237.43 1025.16 239.43 C 1020.48 250.96 1014.57 262.44 1014.75 275.21 C 1008.16 275.18 1001.51 273.87 994.97 275.08 C 992.47 275.41 990.37 277.50 990.33 280.07 C 989.29 285.15 994.06 288.47 996.78 292.01 C 990.70 296.05 982.23 296.71 978.07 303.28 C 973.72 307.06 970.44 311.94 968.24 317.23 C 967.22 319.53 968.30 321.98 968.83 324.27 C 963.70 324.47 956.01 324.46 954.12 330.53 C 953.62 336.66 954.78 343.02 952.67 348.97 C 943.36 348.17 933.90 347.82 924.75 350.07 C 917.17 351.05 909.87 354.45 902.20 354.30 C 894.19 351.47 887.82 344.74 879.25 343.27 C 869.43 341.70 859.55 340.54 849.80 338.63 C 837.74 336.38 824.92 336.05 813.54 341.43 C 811.36 338.55 809.43 335.49 807.88 332.23 C 811.57 330.93 815.27 329.68 818.89 328.18 C 817.74 322.94 817.12 317.48 814.38 312.75 C 812.01 308.92 815.08 304.80 816.28 301.13 C 820.92 300.83 827.23 300.41 829.48 295.47 C 831.07 289.72 828.98 283.96 828.29 278.27 C 836.80 271.57 844.78 264.24 852.67 256.82 C 850.56 252.22 848.60 247.57 846.91 242.81 C 851.08 243.23 856.30 242.09 859.79 245.20 C 863.27 247.82 865.30 252.24 869.29 254.17 C 881.77 256.47 894.35 251.85 906.82 254.38 C 911.29 255.29 915.25 258.18 919.84 258.55 C 925.38 257.42 929.93 253.53 932.97 248.86 C 937.20 244.89 941.38 240.63 946.52 237.81 Z" />
</g>
<g id="#7f7f9fff" target="1837">
<path fill="#7f7f9f" fill-opacity="0" d=" M 996.78 292.01 C 998.09 291.34 999.44 290.70 1000.79 290.07 C 1004.52 294.55 1007.88 299.33 1009.21 305.14 C 1006.49 304.16 1003.79 303.14 1001.10 302.09 C 1003.44 307.91 1005.60 314.04 1005.21 320.42 C 1004.65 326.27 1000.02 332.06 1002.23 338.06 C 1004.09 342.93 1005.59 347.93 1007.49 352.80 C 1008.79 356.64 1014.09 355.62 1016.91 356.90 C 1017.10 353.14 1017.44 349.40 1017.54 345.65 C 1019.69 348.05 1021.91 350.53 1023.02 353.62 C 1025.82 361.96 1028.62 370.39 1029.79 379.14 C 1030.83 382.67 1032.66 385.92 1033.84 389.41 C 1025.75 391.06 1018.50 395.75 1010.30 396.68 C 1005.99 392.94 1005.22 386.84 1002.63 381.98 C 997.88 385.94 992.54 389.15 988.02 393.35 C 983.68 398.96 981.66 406.28 975.91 410.79 C 971.88 414.12 967.88 417.56 963.27 420.04 C 959.87 421.47 956.30 422.41 952.73 423.23 C 948.09 415.82 944.03 407.89 942.27 399.27 C 949.89 396.70 957.67 393.90 964.09 388.91 C 966.26 387.36 966.12 384.21 964.94 382.10 C 961.07 376.93 952.12 376.35 950.71 369.13 C 947.31 362.55 951.67 355.54 952.67 348.97 C 954.78 343.02 953.62 336.66 954.12 330.53 C 956.01 324.46 963.70 324.47 968.83 324.27 C 968.30 321.98 967.22 319.53 968.24 317.23 C 970.44 311.94 973.72 307.06 978.07 303.28 C 982.23 296.71 990.70 296.05 996.78 292.01 Z" />
</g>
<g id="#003f1fff" target="1857">
<path fill="#003f1f" fill-opacity="0" d=" M 1161.32 314.34 C 1165.55 319.16 1166.48 325.69 1167.69 331.75 C 1171.03 331.12 1174.31 330.47 1177.69 329.96 C 1183.47 337.83 1190.05 345.41 1193.34 354.76 C 1197.03 363.10 1199.71 371.91 1200.08 381.08 C 1200.72 386.41 1206.07 389.69 1207.10 394.93 C 1208.24 400.91 1207.06 407.15 1208.92 413.04 C 1210.87 419.62 1208.55 426.35 1207.02 432.78 C 1205.16 439.64 1204.62 447.54 1199.02 452.58 C 1200.08 443.85 1202.57 435.38 1204.25 426.76 C 1181.24 423.85 1157.97 425.59 1134.98 422.58 C 1130.29 422.25 1125.53 422.46 1120.95 421.20 C 1114.43 418.80 1108.39 422.53 1102.31 424.24 C 1100.35 417.40 1094.84 412.73 1090.14 407.79 C 1087.38 403.37 1093.04 400.69 1096.38 399.40 C 1094.70 396.81 1092.80 394.42 1090.92 392.00 C 1092.83 390.02 1094.83 388.12 1096.86 386.25 C 1093.96 385.80 1091.01 385.49 1088.22 384.56 C 1083.26 383.26 1081.46 375.82 1085.49 372.52 C 1088.29 369.33 1092.69 368.93 1096.66 368.77 C 1100.80 368.63 1105.11 366.66 1107.10 362.87 C 1105.41 357.57 1099.42 355.58 1096.08 351.47 C 1103.65 346.19 1112.83 344.97 1121.86 345.21 C 1127.50 344.09 1132.86 346.31 1137.77 348.84 C 1140.24 342.13 1147.87 342.49 1153.47 340.31 C 1154.09 338.67 1154.19 336.91 1154.32 335.18 C 1154.55 327.72 1157.79 320.77 1161.32 314.34 Z" />
</g>
<g id="#bf005fff" target="1835">
<path fill="#bf005f" fill-opacity="0" d=" M 813.54 341.43 C 824.92 336.05 837.74 336.38 849.80 338.63 C 859.55 340.54 869.43 341.70 879.25 343.27 C 887.82 344.74 894.19 351.47 902.20 354.30 C 909.87 354.45 917.17 351.05 924.75 350.07 C 933.90 347.82 943.36 348.17 952.67 348.97 C 951.67 355.54 947.31 362.55 950.71 369.13 C 952.12 376.35 961.07 376.93 964.94 382.10 C 966.12 384.21 966.26 387.36 964.09 388.91 C 957.67 393.90 949.89 396.70 942.27 399.27 C 944.03 407.89 948.09 415.82 952.73 423.23 C 956.30 422.41 959.87 421.47 963.27 420.04 C 963.12 423.94 964.69 428.37 962.94 432.13 C 960.52 435.21 956.65 436.80 953.03 438.01 C 950.49 438.89 948.23 436.84 945.83 436.38 C 938.91 434.60 931.91 437.06 926.23 440.92 C 923.45 439.77 920.41 438.02 917.35 439.15 C 913.96 445.23 914.16 452.58 914.76 459.32 C 910.73 460.55 906.56 460.02 902.71 458.48 C 897.74 456.39 893.92 461.68 889.24 462.17 C 884.72 461.23 881.18 457.96 877.46 455.44 C 874.57 453.46 871.87 451.09 868.67 449.69 C 864.26 448.82 859.84 450.41 855.42 450.29 C 847.88 451.36 841.99 444.21 834.42 446.06 C 828.03 446.12 822.80 450.20 817.14 452.59 C 813.45 445.68 810.79 438.28 807.26 431.30 C 805.43 427.50 801.52 425.70 797.86 424.14 C 789.07 419.24 784.98 409.41 784.00 399.81 C 783.89 399.26 783.68 398.15 783.57 397.60 L 783.34 396.61 C 780.44 380.11 777.79 363.56 774.88 347.06 C 787.42 346.88 799.98 346.80 812.53 346.63 C 812.86 344.89 813.20 343.16 813.54 341.43 Z" />
</g>
<g id="#007f5ffe" target="1840">
<path fill="#007f5f" fill-opacity="0" d=" M 963.27 420.04 C 967.88 417.56 971.88 414.12 975.91 410.79 C 980.88 414.48 985.46 418.72 990.64 422.11 C 997.48 424.78 1004.73 426.42 1011.52 429.34 C 1008.20 429.88 1005.07 430.45 1001.78 430.81 C 1006.50 436.92 1011.86 442.49 1016.84 448.38 C 1022.24 456.36 1020.37 466.28 1023.12 475.07 C 1023.99 477.90 1024.99 481.21 1022.84 483.76 C 1020.35 487.13 1019.33 491.20 1019.96 495.34 C 1017.20 498.33 1014.41 501.27 1011.45 504.06 C 1008.11 501.97 1005.13 499.26 1001.48 497.82 C 998.44 497.45 995.58 498.99 992.76 499.87 C 993.29 501.78 993.87 503.70 994.45 505.61 C 991.66 507.50 989.23 510.20 985.95 511.18 C 980.70 510.93 975.65 509.32 970.49 508.48 C 968.45 510.55 966.51 513.31 963.32 513.42 C 957.23 514.14 951.06 514.88 945.30 517.08 C 942.50 513.11 939.68 509.17 936.88 505.22 C 941.46 504.64 946.02 504.11 950.62 503.57 C 950.75 502.12 950.89 500.68 951.05 499.25 C 945.91 498.37 940.42 498.52 935.69 496.18 C 931.95 492.90 931.50 487.38 929.41 483.16 C 928.23 479.81 925.12 477.79 923.11 475.02 C 919.58 470.22 917.35 464.63 914.76 459.32 C 914.16 452.58 913.96 445.23 917.35 439.15 C 920.41 438.02 923.45 439.77 926.23 440.92 C 931.91 437.06 938.91 434.60 945.83 436.38 C 948.23 436.84 950.49 438.89 953.03 438.01 C 956.65 436.80 960.52 435.21 962.94 432.13 C 964.69 428.37 963.12 423.94 963.27 420.04 Z" />
</g>
<g id="#3f3f9fff" target="1846">
<path fill="#3f3f9f" fill-opacity="0" d=" M 1102.31 424.24 C 1108.39 422.53 1114.43 418.80 1120.95 421.20 C 1125.53 422.46 1130.29 422.25 1134.98 422.58 C 1157.97 425.59 1181.24 423.85 1204.25 426.76 C 1202.57 435.38 1200.08 443.85 1199.02 452.58 C 1200.41 454.07 1202.11 455.22 1203.73 456.46 C 1202.70 462.09 1200.40 468.17 1203.50 473.61 C 1208.40 479.77 1217.46 481.60 1221.10 488.98 C 1223.66 492.21 1221.55 496.09 1220.73 499.50 C 1218.47 506.02 1217.49 512.97 1214.91 519.38 C 1210.95 523.62 1204.03 526.02 1198.55 523.29 C 1195.15 521.73 1191.02 520.76 1187.47 522.53 C 1183.87 524.52 1180.99 527.70 1177.03 529.06 C 1173.03 530.98 1168.59 530.54 1164.33 530.43 C 1162.48 532.45 1160.77 534.71 1158.40 536.14 C 1155.49 537.14 1152.21 536.85 1149.25 537.34 C 1148.53 544.05 1146.51 550.67 1141.62 555.58 C 1140.13 549.25 1137.69 542.91 1139.06 536.30 C 1131.53 537.52 1123.92 538.07 1116.32 538.42 C 1110.87 538.62 1109.28 544.79 1106.30 548.38 C 1102.78 544.45 1097.60 541.55 1095.80 536.38 C 1094.77 529.48 1089.37 524.83 1084.36 520.63 C 1086.35 516.87 1088.27 513.08 1090.26 509.32 C 1086.23 507.52 1081.89 506.80 1077.52 506.57 C 1078.60 502.54 1080.99 499.09 1084.01 496.26 C 1081.75 492.78 1079.28 489.44 1077.27 485.82 C 1081.89 484.40 1086.62 483.31 1091.16 481.63 C 1088.32 479.13 1084.88 477.33 1082.33 474.53 C 1082.78 471.97 1084.19 469.73 1085.30 467.42 C 1080.52 457.38 1076.93 446.76 1073.66 436.13 C 1075.59 435.39 1077.52 434.58 1079.52 433.97 C 1084.09 432.65 1088.97 434.76 1093.55 433.46 C 1097.41 431.47 1099.55 427.43 1102.31 424.24 Z" />
</g>
<g id="#00005fff" target="1842">
<path fill="#00005f" fill-opacity="0" d=" M 797.86 424.14 C 801.52 425.70 805.43 427.50 807.26 431.30 C 810.79 438.28 813.45 445.68 817.14 452.59 C 822.80 450.20 828.03 446.12 834.42 446.06 C 841.99 444.21 847.88 451.36 855.42 450.29 C 859.84 450.41 864.26 448.82 868.67 449.69 C 871.87 451.09 874.57 453.46 877.46 455.44 C 867.48 460.63 856.49 463.90 847.57 470.98 C 848.17 479.51 851.43 488.04 849.68 496.63 C 846.58 500.74 842.36 503.80 838.91 507.56 C 836.85 510.07 837.16 513.47 837.07 516.51 C 827.90 520.64 819.17 525.66 809.92 529.60 C 811.85 533.64 814.21 537.47 817.06 540.93 C 820.83 545.12 821.30 550.94 822.96 556.09 C 820.60 557.04 818.27 558.06 815.96 559.12 C 814.48 556.81 813.05 554.51 811.63 552.20 C 811.87 557.47 810.71 562.61 808.95 567.54 C 802.76 566.77 795.66 566.72 791.04 561.94 C 784.61 554.09 781.25 544.39 777.98 534.93 C 773.42 537.05 770.30 541.33 765.75 543.38 C 762.56 543.72 760.01 541.11 757.38 539.81 C 751.44 535.89 744.54 533.96 738.03 531.27 C 739.60 526.56 742.66 522.30 743.29 517.33 C 741.36 506.96 738.02 496.81 736.81 486.28 C 739.91 485.04 743.02 483.82 746.14 482.62 C 744.79 474.56 742.74 466.63 741.67 458.51 C 746.06 457.10 750.65 457.92 755.13 457.75 C 760.44 455.47 765.52 452.08 769.43 447.84 C 768.72 440.83 766.96 433.98 765.79 427.04 C 769.28 428.88 772.87 431.13 776.98 430.93 C 781.55 430.61 785.87 433.38 790.43 432.42 C 794.48 431.61 796.14 427.37 797.86 424.14 Z" />
</g>
<g id="#3f7f5fff" target="1834">
<path fill="#3f7f5f" fill-opacity="0" d=" M 1062.81 429.73 C 1067.58 426.55 1070.47 433.83 1073.66 436.13 C 1076.93 446.76 1080.52 457.38 1085.30 467.42 C 1084.19 469.73 1082.78 471.97 1082.33 474.53 C 1084.88 477.33 1088.32 479.13 1091.16 481.63 C 1086.62 483.31 1081.89 484.40 1077.27 485.82 C 1079.28 489.44 1081.75 492.78 1084.01 496.26 C 1080.99 499.09 1078.60 502.54 1077.52 506.57 C 1081.89 506.80 1086.23 507.52 1090.26 509.32 C 1088.27 513.08 1086.35 516.87 1084.36 520.63 C 1078.90 531.72 1070.67 541.06 1060.78 548.38 C 1049.59 557.00 1035.21 558.26 1022.02 561.78 C 1018.11 559.32 1014.13 556.95 1009.86 555.17 C 1006.76 553.31 1002.31 552.83 1000.62 549.26 C 997.43 542.73 995.89 535.53 994.83 528.39 C 997.63 526.01 1000.47 523.66 1003.10 521.08 C 995.44 518.69 999.11 510.15 994.45 505.61 C 993.87 503.70 993.29 501.78 992.76 499.87 C 995.58 498.99 998.44 497.45 1001.48 497.82 C 1005.13 499.26 1008.11 501.97 1011.45 504.06 C 1014.41 501.27 1017.20 498.33 1019.96 495.34 C 1019.33 491.20 1020.35 487.13 1022.84 483.76 C 1024.99 481.21 1023.99 477.90 1023.12 475.07 C 1020.37 466.28 1022.24 456.36 1016.84 448.38 C 1023.12 447.32 1029.40 446.21 1035.73 445.48 C 1035.93 443.04 1036.13 440.61 1036.35 438.18 C 1045.55 436.75 1054.48 433.88 1062.81 429.73 Z" />
</g>
<g id="#bf001fff" target="1861">
<path fill="#bf001f" fill-opacity="0" d=" M 847.57 470.98 C 856.49 463.90 867.48 460.63 877.46 455.44 C 881.18 457.96 884.72 461.23 889.24 462.17 C 893.92 461.68 897.74 456.39 902.71 458.48 C 906.56 460.02 910.73 460.55 914.76 459.32 C 917.35 464.63 919.58 470.22 923.11 475.02 C 925.12 477.79 928.23 479.81 929.41 483.16 C 931.50 487.38 931.95 492.90 935.69 496.18 C 940.42 498.52 945.91 498.37 951.05 499.25 C 950.89 500.68 950.75 502.12 950.62 503.57 C 946.02 504.11 941.46 504.64 936.88 505.22 C 939.68 509.17 942.50 513.11 945.30 517.08 C 938.11 521.71 927.78 524.74 925.50 534.11 C 921.59 535.30 917.69 536.47 913.74 537.51 C 916.92 544.93 921.14 551.84 925.22 558.79 C 927.27 561.50 924.60 564.39 923.63 566.96 C 921.70 565.79 919.76 564.63 917.82 563.51 C 914.64 567.02 911.59 570.65 908.66 574.37 C 909.04 576.81 910.83 579.70 909.02 581.96 C 906.52 585.42 903.62 588.87 903.37 593.35 C 900.92 594.57 898.24 595.95 895.43 595.56 C 891.69 592.38 890.23 587.45 887.31 583.63 C 885.71 581.59 883.65 578.91 880.46 580.46 C 877.05 582.64 874.29 585.59 871.23 588.18 C 867.47 591.12 862.92 592.74 858.54 594.45 C 850.91 597.06 843.66 601.06 835.49 601.75 C 831.88 592.82 832.28 582.12 825.21 574.83 C 821.84 569.16 814.96 568.02 808.95 567.54 C 810.71 562.61 811.87 557.47 811.63 552.20 C 813.05 554.51 814.48 556.81 815.96 559.12 C 818.27 558.06 820.60 557.04 822.96 556.09 C 821.30 550.94 820.83 545.12 817.06 540.93 C 814.21 537.47 811.85 533.64 809.92 529.60 C 819.17 525.66 827.90 520.64 837.07 516.51 C 837.16 513.47 836.85 510.07 838.91 507.56 C 842.36 503.80 846.58 500.74 849.68 496.63 C 851.43 488.04 848.17 479.51 847.57 470.98 M 859.41 535.25 C 857.97 536.56 860.24 538.86 861.56 537.41 C 863.05 536.07 860.73 533.78 859.41 535.25 Z" />
</g>
<g id="#7f3f1fff" target="1856">
<path fill="#7f3f1f" fill-opacity="0" d=" M 985.95 511.18 C 989.23 510.20 991.66 507.50 994.45 505.61 C 999.11 510.15 995.44 518.69 1003.10 521.08 C 1000.47 523.66 997.63 526.01 994.83 528.39 C 995.89 535.53 997.43 542.73 1000.62 549.26 C 1002.31 552.83 1006.76 553.31 1009.86 555.17 C 1014.13 556.95 1018.11 559.32 1022.02 561.78 C 1014.00 564.31 1007.52 570.12 999.42 572.47 C 992.16 574.58 984.87 577.08 978.88 581.88 C 973.50 587.83 970.77 595.63 967.22 602.69 C 965.45 600.96 962.98 598.13 960.38 600.31 C 954.68 604.31 950.81 610.81 943.68 612.63 C 942.62 610.56 941.57 608.51 940.52 606.47 C 937.64 605.77 934.82 605.12 931.99 604.46 C 932.00 600.12 932.19 595.70 930.74 591.55 C 926.09 593.36 921.57 595.76 916.65 596.73 C 914.86 594.72 913.90 591.89 911.70 590.32 C 908.61 590.07 905.94 591.95 903.37 593.35 C 903.62 588.87 906.52 585.42 909.02 581.96 C 910.83 579.70 909.04 576.81 908.66 574.37 C 911.59 570.65 914.64 567.02 917.82 563.51 C 919.76 564.63 921.70 565.79 923.63 566.96 C 924.60 564.39 927.27 561.50 925.22 558.79 C 921.14 551.84 916.92 544.93 913.74 537.51 C 917.69 536.47 921.59 535.30 925.50 534.11 C 927.78 524.74 938.11 521.71 945.30 517.08 C 951.06 514.88 957.23 514.14 963.32 513.42 C 966.51 513.31 968.45 510.55 970.49 508.48 C 975.65 509.32 980.70 510.93 985.95 511.18 Z" />
</g>
<g id="#bf3f1ffe" target="1848">
<path fill="#bf3f1f" fill-opacity="0" d=" M 1084.36 520.63 C 1089.37 524.83 1094.77 529.48 1095.80 536.38 C 1097.60 541.55 1102.78 544.45 1106.30 548.38 C 1109.28 544.79 1110.87 538.62 1116.32 538.42 C 1123.92 538.07 1131.53 537.52 1139.06 536.30 C 1137.69 542.91 1140.13 549.25 1141.62 555.58 C 1139.95 563.50 1138.72 571.58 1136.27 579.32 C 1135.25 583.10 1131.14 584.27 1128.06 585.88 C 1129.44 586.24 1130.81 586.59 1132.22 586.97 C 1129.86 591.43 1126.60 595.50 1122.10 597.94 C 1117.57 600.71 1111.36 603.28 1110.61 609.27 C 1110.29 618.36 1116.13 625.93 1120.99 633.07 C 1124.09 636.95 1121.16 644.50 1115.94 644.15 C 1110.55 642.53 1105.69 639.23 1099.88 639.05 C 1098.46 633.74 1097.49 628.34 1096.04 623.04 C 1091.05 622.63 1086.07 622.07 1081.13 621.36 C 1079.63 616.69 1079.54 611.36 1076.74 607.24 C 1071.01 602.10 1063.62 598.17 1060.01 591.06 C 1057.45 587.18 1060.49 583.67 1062.75 580.84 C 1065.87 574.55 1073.69 576.37 1079.26 574.35 C 1076.32 570.87 1071.89 569.34 1068.58 566.34 C 1064.59 561.02 1063.31 554.39 1060.78 548.38 C 1070.67 541.06 1078.90 531.72 1084.36 520.63 Z" />
</g>
<g id="#3fbf1fff" target="1847">
<path fill="#3fbf1f" fill-opacity="0" d=" M 738.03 531.27 C 744.54 533.96 751.44 535.89 757.38 539.81 C 760.01 541.11 762.56 543.72 765.75 543.38 C 770.30 541.33 773.42 537.05 777.98 534.93 C 781.25 544.39 784.61 554.09 791.04 561.94 C 795.66 566.72 802.76 566.77 808.95 567.54 C 814.96 568.02 821.84 569.16 825.21 574.83 C 832.28 582.12 831.88 592.82 835.49 601.75 C 835.63 606.29 837.42 611.14 835.45 615.50 C 832.22 620.25 827.89 624.18 824.88 629.10 C 817.45 628.75 807.06 628.80 804.83 637.96 C 799.98 639.08 795.29 640.99 791.40 644.13 C 789.74 637.25 786.63 630.49 780.71 626.23 C 777.09 622.29 772.88 627.47 768.80 627.34 C 765.49 626.05 763.24 622.86 759.83 621.76 C 757.02 622.38 754.61 624.09 752.08 625.38 C 749.34 624.99 744.51 622.30 743.81 626.63 C 743.67 632.49 745.76 638.06 746.92 643.74 C 744.26 644.37 741.78 645.14 739.18 645.84 C 740.47 653.14 743.58 660.44 741.73 667.98 C 741.22 673.51 739.70 678.95 739.99 684.55 C 741.25 691.21 742.98 697.78 744.83 704.31 C 740.07 704.78 735.89 707.43 731.12 707.91 C 728.05 707.04 725.99 704.31 725.18 701.34 C 716.29 672.17 705.80 643.46 697.98 613.97 C 695.65 606.78 702.97 601.67 706.58 596.30 C 711.06 597.64 716.16 597.41 719.43 593.59 C 717.67 583.05 712.99 573.16 711.15 562.62 C 710.31 558.96 712.84 555.78 713.21 552.26 C 713.08 548.32 710.94 544.83 710.39 540.99 C 710.59 538.74 712.18 536.92 713.12 534.95 C 719.47 534.59 725.84 534.82 732.11 535.96 C 734.10 534.42 736.06 532.84 738.03 531.27 M 788.32 583.18 C 787.24 584.53 789.59 586.00 790.47 584.61 C 791.55 583.24 789.18 581.80 788.32 583.18 Z" />
</g>
<g id="#7f7fdfff" target="1836">
<path fill="#7f7fdf" fill-opacity="0" d=" M 1022.02 561.78 C 1035.21 558.26 1049.59 557.00 1060.78 548.38 C 1063.31 554.39 1064.59 561.02 1068.58 566.34 C 1071.89 569.34 1076.32 570.87 1079.26 574.35 C 1073.69 576.37 1065.87 574.55 1062.75 580.84 C 1060.49 583.67 1057.45 587.18 1060.01 591.06 C 1063.62 598.17 1071.01 602.10 1076.74 607.24 C 1079.54 611.36 1079.63 616.69 1081.13 621.36 C 1082.11 624.76 1083.32 628.02 1084.46 631.40 C 1075.95 635.74 1066.29 637.14 1057.76 641.44 C 1049.90 636.65 1041.46 642.43 1033.19 641.61 C 1024.12 640.86 1014.74 640.62 1006.13 637.37 C 1008.71 633.01 1009.45 627.65 1008.29 622.74 C 1010.86 618.93 1013.43 615.03 1014.60 610.53 C 1006.73 610.31 999.36 613.38 991.73 614.74 C 989.88 613.06 988.25 611.03 986.00 609.89 C 982.61 609.12 979.11 610.69 975.79 611.02 C 973.16 608.01 970.07 605.48 967.22 602.69 C 970.77 595.63 973.50 587.83 978.88 581.88 C 984.87 577.08 992.16 574.58 999.42 572.47 C 1007.52 570.12 1014.00 564.31 1022.02 561.78 Z" />
</g>
<g id="#bfbf9ffe" target="1843">
<path fill="#bfbf9f" fill-opacity="0" d=" M 880.46 580.46 C 883.65 578.91 885.71 581.59 887.31 583.63 C 890.23 587.45 891.69 592.38 895.43 595.56 C 898.24 595.95 900.92 594.57 903.37 593.35 C 905.94 591.95 908.61 590.07 911.70 590.32 C 913.90 591.89 914.86 594.72 916.65 596.73 C 921.57 595.76 926.09 593.36 930.74 591.55 C 932.19 595.70 932.00 600.12 931.99 604.46 C 934.82 605.12 937.64 605.77 940.52 606.47 C 941.57 608.51 942.62 610.56 943.68 612.63 C 938.24 615.89 931.49 618.32 928.18 624.15 C 925.25 627.76 924.70 632.72 925.86 637.10 C 932.70 637.46 939.41 635.95 946.17 635.25 C 944.67 639.49 942.64 643.53 941.40 647.86 C 940.40 652.86 940.14 657.98 939.30 663.01 C 935.33 662.20 931.37 660.86 927.28 661.08 C 922.58 662.12 918.59 665.12 914.30 667.13 C 912.62 665.30 910.91 663.45 909.17 661.72 C 906.61 658.09 901.76 659.50 898.09 659.85 C 889.95 661.70 880.82 660.85 873.60 665.66 C 870.93 667.50 867.83 668.52 864.62 668.81 C 863.31 668.48 862.05 668.14 860.77 667.80 C 859.98 662.37 860.17 656.40 857.48 651.53 C 853.63 648.22 848.36 647.28 844.03 644.78 C 839.86 643.53 838.96 638.91 836.99 635.63 C 834.74 631.17 829.19 630.40 824.88 629.10 C 827.89 624.18 832.22 620.25 835.45 615.50 C 837.42 611.14 835.63 606.29 835.49 601.75 C 843.66 601.06 850.91 597.06 858.54 594.45 C 862.92 592.74 867.47 591.12 871.23 588.18 C 874.29 585.59 877.05 582.64 880.46 580.46 Z" />
</g>
<g id="#7f7f5fff" target="1839">
<path fill="#7f7f5f" fill-opacity="0" d=" M 1132.22 586.97 C 1136.53 588.65 1140.88 590.33 1145.17 592.17 C 1144.22 600.84 1142.19 609.34 1139.63 617.66 C 1136.95 618.44 1134.29 619.25 1131.64 620.09 C 1134.06 626.25 1139.38 630.58 1142.37 636.38 C 1142.53 640.85 1140.81 645.27 1139.99 649.66 C 1143.79 650.27 1148.10 651.25 1150.23 654.82 C 1157.33 663.60 1151.05 673.90 1149.91 683.54 C 1145.39 683.27 1140.71 683.87 1136.35 682.48 C 1130.71 679.39 1131.46 670.68 1125.45 668.00 C 1121.01 665.78 1114.19 662.27 1110.48 667.36 C 1107.40 672.73 1105.66 678.79 1103.04 684.41 C 1097.92 685.26 1092.40 684.55 1087.53 686.60 C 1083.58 691.30 1083.76 698.13 1084.84 703.86 C 1085.67 707.71 1081.89 710.19 1079.81 712.81 C 1083.48 720.06 1092.58 721.14 1097.73 727.02 C 1103.82 731.69 1110.29 736.28 1113.09 743.79 C 1099.72 748.09 1088.69 736.40 1076.26 734.04 C 1070.09 734.60 1064.55 732.10 1060.10 728.10 C 1061.10 726.56 1062.09 725.01 1063.10 723.48 C 1061.38 723.12 1059.66 722.77 1057.94 722.54 C 1057.18 720.46 1056.47 718.38 1055.77 716.31 C 1058.69 715.07 1061.61 713.82 1064.53 712.57 C 1063.67 707.19 1060.30 702.80 1058.52 697.78 C 1057.84 692.01 1061.36 686.97 1064.04 682.17 C 1058.06 674.96 1054.41 666.19 1048.63 658.84 C 1051.01 652.73 1055.68 647.74 1057.76 641.44 C 1066.29 637.14 1075.95 635.74 1084.46 631.40 C 1083.32 628.02 1082.11 624.76 1081.13 621.36 C 1086.07 622.07 1091.05 622.63 1096.04 623.04 C 1097.49 628.34 1098.46 633.74 1099.88 639.05 C 1105.69 639.23 1110.55 642.53 1115.94 644.15 C 1121.16 644.50 1124.09 636.95 1120.99 633.07 C 1116.13 625.93 1110.29 618.36 1110.61 609.27 C 1111.36 603.28 1117.57 600.71 1122.10 597.94 C 1126.60 595.50 1129.86 591.43 1132.22 586.97 Z" />
</g>
<g id="#7f3f9fff" target="1852">
<path fill="#7f3f9f" fill-opacity="0" d=" M 960.38 600.31 C 962.98 598.13 965.45 600.96 967.22 602.69 C 970.07 605.48 973.16 608.01 975.79 611.02 C 979.11 610.69 982.61 609.12 986.00 609.89 C 988.25 611.03 989.88 613.06 991.73 614.74 C 999.36 613.38 1006.73 610.31 1014.60 610.53 C 1013.43 615.03 1010.86 618.93 1008.29 622.74 C 1009.45 627.65 1008.71 633.01 1006.13 637.37 C 1001.72 642.51 994.71 643.09 989.19 646.37 C 985.37 650.75 988.32 657.38 988.01 662.56 C 988.66 662.64 989.97 662.81 990.62 662.90 C 992.05 659.25 993.60 655.64 995.27 652.09 C 997.74 654.02 1000.95 655.62 1002.16 658.69 C 1002.39 664.99 1000.21 671.15 1000.77 677.47 C 999.79 683.75 1003.74 689.07 1007.46 693.61 C 1010.36 697.39 1015.58 697.21 1019.39 699.54 C 1023.35 707.86 1022.52 718.68 1029.67 725.38 C 1033.52 729.70 1039.66 726.89 1044.29 725.69 C 1042.84 730.38 1041.12 734.98 1038.95 739.39 C 1030.01 737.95 1020.40 737.96 1012.86 732.10 C 999.99 724.29 995.68 707.52 981.61 701.36 C 973.29 699.07 964.92 703.53 957.28 706.36 C 954.13 708.25 951.82 711.45 948.30 712.71 C 945.41 711.49 943.26 709.04 940.71 707.31 C 937.48 704.68 933.38 703.57 929.93 701.32 C 926.20 698.72 922.05 696.62 918.66 693.61 C 913.42 685.87 914.48 675.98 914.30 667.13 C 918.59 665.12 922.58 662.12 927.28 661.08 C 931.37 660.86 935.33 662.20 939.30 663.01 C 940.14 657.98 940.40 652.86 941.40 647.86 C 942.64 643.53 944.67 639.49 946.17 635.25 C 939.41 635.95 932.70 637.46 925.86 637.10 C 924.70 632.72 925.25 627.76 928.18 624.15 C 931.49 618.32 938.24 615.89 943.68 612.63 C 950.81 610.81 954.68 604.31 960.38 600.31 Z" />
</g>
<g id="#7f00dfff" target="1838">
<path fill="#7f00df" fill-opacity="0" d=" M 752.08 625.38 C 754.61 624.09 757.02 622.38 759.83 621.76 C 763.24 622.86 765.49 626.05 768.80 627.34 C 772.88 627.47 777.09 622.29 780.71 626.23 C 786.63 630.49 789.74 637.25 791.40 644.13 C 789.39 647.27 787.72 650.68 786.80 654.30 C 785.09 661.56 791.53 668.52 788.78 675.69 C 788.34 677.76 786.74 680.45 788.74 682.17 C 790.10 683.96 792.00 685.39 793.08 687.40 C 794.13 692.00 793.56 697.32 796.68 701.26 C 799.42 705.40 806.35 707.87 803.91 713.89 C 795.90 713.89 787.33 717.53 784.20 725.40 C 781.29 731.01 785.23 737.08 783.93 742.90 C 783.28 746.50 778.08 744.94 775.95 745.65 C 768.51 745.67 761.09 744.42 753.65 745.62 C 753.40 740.50 754.00 735.28 752.52 730.32 C 749.85 721.68 747.17 713.04 744.83 704.31 C 742.98 697.78 741.25 691.21 739.99 684.55 C 739.70 678.95 741.22 673.51 741.73 667.98 C 743.58 660.44 740.47 653.14 739.18 645.84 C 741.78 645.14 744.26 644.37 746.92 643.74 C 745.76 638.06 743.67 632.49 743.81 626.63 C 744.51 622.30 749.34 624.99 752.08 625.38 M 764.15 680.40 C 763.29 684.38 768.14 679.58 764.15 680.40 Z" />
</g>
<g id="#bf3f9fff" target="1845">
<path fill="#bf3f9f" fill-opacity="0" d=" M 804.83 637.96 C 807.06 628.80 817.45 628.75 824.88 629.10 C 829.19 630.40 834.74 631.17 836.99 635.63 C 838.96 638.91 839.86 643.53 844.03 644.78 C 848.36 647.28 853.63 648.22 857.48 651.53 C 860.17 656.40 859.98 662.37 860.77 667.80 C 862.05 668.14 863.31 668.48 864.62 668.81 C 861.18 670.27 857.84 671.94 854.45 673.50 C 854.41 678.55 854.53 683.67 853.50 688.64 C 852.08 693.59 846.06 694.26 842.38 696.76 C 838.65 698.40 836.64 702.15 834.08 705.08 C 837.43 710.15 840.64 715.50 841.92 721.52 C 840.64 724.67 840.37 728.14 838.91 731.21 C 837.06 734.06 833.24 734.62 831.03 737.10 C 829.84 738.84 829.21 740.88 828.44 742.83 C 823.30 740.33 815.78 739.64 814.72 732.79 C 812.81 725.68 809.92 718.51 803.91 713.89 C 806.35 707.87 799.42 705.40 796.68 701.26 C 793.56 697.32 794.13 692.00 793.08 687.40 C 792.00 685.39 790.10 683.96 788.74 682.17 C 786.74 680.45 788.34 677.76 788.78 675.69 C 791.53 668.52 785.09 661.56 786.80 654.30 C 787.72 650.68 789.39 647.27 791.40 644.13 C 795.29 640.99 799.98 639.08 804.83 637.96 Z" />
</g>
<g id="#7f005fff" target="1841">
<path fill="#7f005f" fill-opacity="0" d=" M 1006.13 637.37 C 1014.74 640.62 1024.12 640.86 1033.19 641.61 C 1041.46 642.43 1049.90 636.65 1057.76 641.44 C 1055.68 647.74 1051.01 652.73 1048.63 658.84 C 1054.41 666.19 1058.06 674.96 1064.04 682.17 C 1061.36 686.97 1057.84 692.01 1058.52 697.78 C 1060.30 702.80 1063.67 707.19 1064.53 712.57 C 1061.61 713.82 1058.69 715.07 1055.77 716.31 C 1056.47 718.38 1057.18 720.46 1057.94 722.54 C 1053.27 722.95 1048.78 724.44 1044.29 725.69 C 1039.66 726.89 1033.52 729.70 1029.67 725.38 C 1022.52 718.68 1023.35 707.86 1019.39 699.54 C 1015.58 697.21 1010.36 697.39 1007.46 693.61 C 1003.74 689.07 999.79 683.75 1000.77 677.47 C 1000.21 671.15 1002.39 664.99 1002.16 658.69 C 1000.95 655.62 997.74 654.02 995.27 652.09 C 993.60 655.64 992.05 659.25 990.62 662.90 C 989.97 662.81 988.66 662.64 988.01 662.56 C 988.32 657.38 985.37 650.75 989.19 646.37 C 994.71 643.09 1001.72 642.51 1006.13 637.37 Z" />
</g>
<g id="#3fbf9ffe" target="1844">
<path fill="#3fbf9f" fill-opacity="0" d=" M 898.09 659.85 C 901.76 659.50 906.61 658.09 909.17 661.72 C 910.91 663.45 912.62 665.30 914.30 667.13 C 914.48 675.98 913.42 685.87 918.66 693.61 C 922.05 696.62 926.20 698.72 929.93 701.32 C 925.41 709.29 917.22 713.19 909.38 717.03 C 909.64 715.35 910.00 713.69 910.35 712.04 C 909.85 711.39 909.37 710.74 908.89 710.10 C 905.53 711.83 902.01 714.19 898.05 713.47 C 893.76 712.75 889.35 712.66 885.23 714.20 C 881.14 715.73 877.23 713.41 873.59 711.82 C 870.07 713.50 866.89 716.86 862.62 715.20 C 859.78 717.40 857.19 720.14 853.76 721.38 C 849.87 722.23 845.84 722.02 841.92 721.52 C 840.64 715.50 837.43 710.15 834.08 705.08 C 836.64 702.15 838.65 698.40 842.38 696.76 C 846.06 694.26 852.08 693.59 853.50 688.64 C 854.53 683.67 854.41 678.55 854.45 673.50 C 857.84 671.94 861.18 670.27 864.62 668.81 C 867.83 668.52 870.93 667.50 873.60 665.66 C 880.82 660.85 889.95 661.70 898.09 659.85 Z" />
</g>
<g id="#00bf9fff" target="1851">
<path fill="#00bf9f" fill-opacity="0" d=" M 1110.48 667.36 C 1114.19 662.27 1121.01 665.78 1125.45 668.00 C 1131.46 670.68 1130.71 679.39 1136.35 682.48 C 1140.71 683.87 1145.39 683.27 1149.91 683.54 C 1155.10 683.61 1160.20 682.44 1165.36 681.97 C 1166.75 687.10 1169.04 691.95 1171.78 696.51 C 1172.61 694.46 1173.42 692.40 1174.26 690.35 C 1177.22 692.44 1180.18 694.60 1182.69 697.27 C 1185.81 701.25 1186.54 706.41 1187.45 711.24 C 1190.74 712.54 1194.79 713.30 1196.90 716.45 C 1199.37 720.56 1200.50 725.66 1199.33 730.37 C 1197.45 738.36 1194.46 746.01 1191.67 753.70 C 1190.56 753.51 1189.46 753.33 1188.37 753.18 C 1180.03 751.84 1171.59 751.33 1163.18 752.09 C 1153.97 751.08 1145.25 754.60 1136.40 756.33 C 1132.42 757.20 1128.58 755.40 1125.11 753.68 C 1127.46 748.37 1129.98 742.87 1129.15 736.91 C 1123.67 738.92 1118.28 741.14 1113.09 743.79 C 1110.29 736.28 1103.82 731.69 1097.73 727.02 C 1092.58 721.14 1083.48 720.06 1079.81 712.81 C 1081.89 710.19 1085.67 707.71 1084.84 703.86 C 1083.76 698.13 1083.58 691.30 1087.53 686.60 C 1092.40 684.55 1097.92 685.26 1103.04 684.41 C 1105.66 678.79 1107.40 672.73 1110.48 667.36 Z" />
</g>
<g id="#3f009fff" target="1858">
<path fill="#3f009f" fill-opacity="0" d=" M 957.28 706.36 C 964.92 703.53 973.29 699.07 981.61 701.36 C 995.68 707.52 999.99 724.29 1012.86 732.10 C 1020.40 737.96 1030.01 737.95 1038.95 739.39 C 1049.75 743.18 1058.61 753.16 1059.92 764.68 C 1060.53 771.66 1058.85 778.50 1056.30 784.95 C 1052.24 783.30 1047.73 780.78 1043.28 782.45 C 1038.97 784.12 1034.84 786.25 1030.44 787.65 C 1030.38 784.80 1030.34 781.95 1030.33 779.11 C 1026.30 779.60 1022.34 780.26 1018.35 780.97 C 1017.28 775.37 1017.89 769.65 1017.38 764.01 C 1017.02 757.98 1010.92 753.51 1005.18 753.52 C 1001.34 755.60 1000.94 760.84 997.55 763.43 C 993.08 765.98 987.79 766.35 982.87 767.45 C 978.90 768.32 974.79 768.65 970.78 767.87 C 966.95 747.22 961.24 726.98 957.28 706.36 Z" />
</g>
<g id="#bf7f5fff" target="1833">
<path fill="#bf7f5f" fill-opacity="0" d=" M 909.38 717.03 C 917.22 713.19 925.41 709.29 929.93 701.32 C 933.38 703.57 937.48 704.68 940.71 707.31 C 943.26 709.04 945.41 711.49 948.30 712.71 C 951.82 711.45 954.13 708.25 957.28 706.36 C 961.24 726.98 966.95 747.22 970.78 767.87 C 966.21 769.29 961.54 770.73 957.64 773.61 C 953.08 776.97 947.32 777.88 941.82 778.32 C 937.82 775.27 932.98 772.97 930.19 768.68 C 928.54 766.23 930.06 763.29 930.84 760.82 C 932.65 756.01 934.24 751.00 934.58 745.86 C 934.33 740.92 929.95 737.69 926.58 734.65 C 922.60 739.15 919.63 748.58 911.86 746.95 C 911.76 744.44 911.63 741.94 911.47 739.45 C 915.80 736.46 919.49 732.48 920.86 727.22 C 917.03 726.86 913.22 726.57 909.39 726.46 C 909.29 723.31 909.21 720.15 909.38 717.03 Z" />
</g>
<g id="#bf7f9ffe" target="1864">
<path fill="#bf7f9f" fill-opacity="0" d=" M 898.05 713.47 C 902.01 714.19 905.53 711.83 908.89 710.10 C 909.37 710.74 909.85 711.39 910.35 712.04 C 910.00 713.69 909.64 715.35 909.38 717.03 C 909.21 720.15 909.29 723.31 909.39 726.46 C 913.22 726.57 917.03 726.86 920.86 727.22 C 919.49 732.48 915.80 736.46 911.47 739.45 C 911.63 741.94 911.76 744.44 911.86 746.95 C 911.90 747.99 911.95 749.03 912.01 750.08 C 907.57 750.03 903.26 748.44 898.83 748.75 C 895.83 749.74 894.40 753.79 896.66 756.28 C 900.03 760.26 904.69 762.85 908.62 766.24 C 904.05 771.76 898.88 776.75 894.40 782.34 C 889.16 785.69 883.57 788.87 880.62 794.67 C 875.15 793.59 869.39 792.74 864.05 795.00 C 861.41 804.65 866.57 814.41 866.33 824.17 C 865.90 831.13 865.53 838.19 867.10 845.06 C 863.48 842.69 860.03 840.11 856.06 838.40 C 852.88 823.82 852.23 808.69 847.21 794.55 C 840.70 779.12 841.07 761.61 833.25 746.63 C 832.34 744.65 830.27 743.71 828.44 742.83 C 829.21 740.88 829.84 738.84 831.03 737.10 C 833.24 734.62 837.06 734.06 838.91 731.21 C 840.37 728.14 840.64 724.67 841.92 721.52 C 845.84 722.02 849.87 722.23 853.76 721.38 C 857.19 720.14 859.78 717.40 862.62 715.20 C 866.89 716.86 870.07 713.50 873.59 711.82 C 877.23 713.41 881.14 715.73 885.23 714.20 C 889.35 712.66 893.76 712.75 898.05 713.47 Z" />
</g>
<g id="#7fbf1fff" target="1854">
<path fill="#7fbf1f" fill-opacity="0" d=" M 784.20 725.40 C 787.33 717.53 795.90 713.89 803.91 713.89 C 809.92 718.51 812.81 725.68 814.72 732.79 C 815.78 739.64 823.30 740.33 828.44 742.83 C 830.27 743.71 832.34 744.65 833.25 746.63 C 841.07 761.61 840.70 779.12 847.21 794.55 C 852.23 808.69 852.88 823.82 856.06 838.40 C 856.91 849.03 862.42 860.28 858.12 870.74 C 852.86 868.44 850.25 863.37 846.99 859.03 C 839.04 856.78 830.77 856.11 822.65 854.79 C 820.58 859.67 820.31 864.99 819.68 870.21 C 816.66 871.43 813.52 873.59 810.12 872.73 C 806.52 871.91 802.85 871.28 799.16 871.19 C 798.30 869.15 797.47 867.12 796.64 865.09 C 792.22 864.95 787.73 863.90 783.32 864.42 C 778.79 866.19 775.54 870.21 771.01 871.97 C 769.91 871.58 768.66 871.08 768.13 869.98 C 758.98 853.73 754.14 835.61 747.77 818.21 C 741.86 801.46 735.61 784.54 733.63 766.79 C 739.81 768.75 745.97 770.77 752.25 772.43 C 757.04 764.03 755.34 754.58 753.65 745.62 C 761.09 744.42 768.51 745.67 775.95 745.65 C 778.08 744.94 783.28 746.50 783.93 742.90 C 785.23 737.08 781.29 731.01 784.20 725.40 Z" />
</g>
<g id="#3f005fff" target="1863">
<path fill="#3f005f" fill-opacity="0" d=" M 1044.29 725.69 C 1048.78 724.44 1053.27 722.95 1057.94 722.54 C 1059.66 722.77 1061.38 723.12 1063.10 723.48 C 1062.09 725.01 1061.10 726.56 1060.10 728.10 C 1064.55 732.10 1070.09 734.60 1076.26 734.04 C 1088.69 736.40 1099.72 748.09 1113.09 743.79 C 1118.28 741.14 1123.67 738.92 1129.15 736.91 C 1129.98 742.87 1127.46 748.37 1125.11 753.68 C 1128.58 755.40 1132.42 757.20 1136.40 756.33 C 1145.25 754.60 1153.97 751.08 1163.18 752.09 C 1171.59 751.33 1180.03 751.84 1188.37 753.18 C 1188.77 768.20 1188.64 783.68 1194.05 797.95 C 1195.24 801.49 1193.85 805.13 1192.56 808.43 C 1184.86 827.65 1177.48 847.00 1170.30 866.42 C 1168.58 872.03 1162.24 873.34 1157.35 874.88 C 1154.13 882.09 1153.29 891.59 1145.15 895.23 C 1133.81 902.45 1123.94 911.57 1113.37 919.81 C 1110.02 917.69 1106.27 916.28 1102.32 915.85 C 1107.44 896.87 1112.75 877.93 1118.05 859.00 C 1120.29 851.03 1126.75 843.19 1123.27 834.59 C 1121.80 829.43 1115.88 828.80 1112.40 825.63 C 1111.81 821.69 1114.08 818.02 1114.74 814.20 C 1112.20 814.39 1109.69 814.64 1107.18 814.89 C 1101.54 806.20 1094.73 798.19 1090.28 788.79 C 1088.91 783.53 1092.00 778.18 1090.71 772.83 C 1090.58 768.53 1086.44 765.47 1082.34 765.61 C 1074.85 765.66 1067.40 764.82 1059.92 764.68 C 1058.61 753.16 1049.75 743.18 1038.95 739.39 C 1041.12 734.98 1042.84 730.38 1044.29 725.69 Z" />
</g>
<g id="#7fbf9fff" target="1850">
<path fill="#7fbf9f" fill-opacity="0" d=" M 926.58 734.65 C 929.95 737.69 934.33 740.92 934.58 745.86 C 934.24 751.00 932.65 756.01 930.84 760.82 C 930.06 763.29 928.54 766.23 930.19 768.68 C 932.98 772.97 937.82 775.27 941.82 778.32 C 947.98 789.66 954.91 800.58 962.16 811.26 C 953.96 818.05 942.92 818.75 933.75 823.65 C 934.36 844.82 935.92 865.95 936.01 887.13 C 930.05 885.09 929.03 877.41 922.88 875.97 C 916.71 873.90 910.16 873.36 903.82 872.05 C 904.28 880.44 905.35 888.77 906.05 897.16 C 901.09 895.33 896.18 893.36 891.18 891.66 C 888.94 895.59 886.75 899.54 884.57 903.51 C 879.83 900.89 874.13 897.80 874.63 891.41 C 872.86 879.14 870.14 867.00 869.08 854.65 C 869.21 853.62 868.97 852.69 868.38 851.86 L 868.20 850.79 C 868.21 849.58 868.01 848.39 867.62 847.28 C 867.49 846.72 867.23 845.61 867.10 845.06 C 865.53 838.19 865.90 831.13 866.33 824.17 C 866.57 814.41 861.41 804.65 864.05 795.00 C 869.39 792.74 875.15 793.59 880.62 794.67 C 883.57 788.87 889.16 785.69 894.40 782.34 C 898.88 776.75 904.05 771.76 908.62 766.24 C 904.69 762.85 900.03 760.26 896.66 756.28 C 894.40 753.79 895.83 749.74 898.83 748.75 C 903.26 748.44 907.57 750.03 912.01 750.08 C 911.95 749.03 911.90 747.99 911.86 746.95 C 919.63 748.58 922.60 739.15 926.58 734.65 Z" />
</g>
<g id="#003f9fff" target="1853">
<path fill="#003f9f" fill-opacity="0" d=" M 1005.18 753.52 C 1010.92 753.51 1017.02 757.98 1017.38 764.01 C 1017.89 769.65 1017.28 775.37 1018.35 780.97 C 1022.34 780.26 1026.30 779.60 1030.33 779.11 C 1030.34 781.95 1030.38 784.80 1030.44 787.65 C 1034.84 786.25 1038.97 784.12 1043.28 782.45 C 1047.73 780.78 1052.24 783.30 1056.30 784.95 C 1054.12 790.32 1057.04 797.04 1053.73 801.79 C 1048.21 803.11 1042.93 798.83 1037.24 799.30 C 1038.51 803.64 1039.70 808.58 1043.62 811.35 C 1047.00 813.64 1051.12 814.30 1054.95 815.61 C 1055.01 819.84 1055.71 824.02 1056.48 828.18 C 1055.93 827.99 1054.81 827.62 1054.26 827.43 C 1050.14 826.26 1045.75 823.97 1041.44 825.38 C 1038.99 828.74 1039.27 833.19 1038.46 837.06 C 1032.80 837.01 1026.83 836.27 1021.42 838.38 C 1018.87 839.36 1016.27 840.21 1013.63 840.90 C 1013.54 836.04 1014.22 830.72 1011.66 826.34 C 1009.01 823.80 1005.34 822.62 1002.20 820.82 C 1000.69 829.97 999.10 839.11 996.98 848.14 C 989.88 847.24 982.83 845.15 975.65 845.50 C 970.15 846.08 971.55 853.37 970.18 857.42 C 967.65 858.19 965.13 858.96 962.61 859.73 C 962.36 865.34 962.72 871.36 960.35 876.57 C 958.60 877.94 956.03 877.89 953.93 878.51 C 953.60 884.71 952.84 890.89 952.23 897.07 C 946.23 895.29 936.93 894.89 936.01 887.13 C 935.92 865.95 934.36 844.82 933.75 823.65 C 942.92 818.75 953.96 818.05 962.16 811.26 C 954.91 800.58 947.98 789.66 941.82 778.32 C 947.32 777.88 953.08 776.97 957.64 773.61 C 961.54 770.73 966.21 769.29 970.78 767.87 C 974.79 768.65 978.90 768.32 982.87 767.45 C 987.79 766.35 993.08 765.98 997.55 763.43 C 1000.94 760.84 1001.34 755.60 1005.18 753.52 Z" />
</g>
<g id="#3f3f1fff" target="1849">
<path fill="#3f3f1f" fill-opacity="0" d=" M 1059.92 764.68 C 1067.40 764.82 1074.85 765.66 1082.34 765.61 C 1086.44 765.47 1090.58 768.53 1090.71 772.83 C 1092.00 778.18 1088.91 783.53 1090.28 788.79 C 1094.73 798.19 1101.54 806.20 1107.18 814.89 C 1109.69 814.64 1112.20 814.39 1114.74 814.20 C 1114.08 818.02 1111.81 821.69 1112.40 825.63 C 1115.88 828.80 1121.80 829.43 1123.27 834.59 C 1126.75 843.19 1120.29 851.03 1118.05 859.00 C 1112.75 877.93 1107.44 896.87 1102.32 915.85 C 1099.54 916.32 1096.74 916.48 1093.94 916.59 C 1092.77 919.17 1091.87 921.95 1090.18 924.26 C 1088.45 926.26 1085.46 925.31 1083.17 925.54 C 1081.80 929.99 1080.65 934.54 1079.17 938.97 C 1075.71 938.30 1072.31 937.71 1068.89 937.02 C 1071.49 922.61 1075.56 908.52 1078.74 894.24 C 1077.30 893.70 1075.87 893.18 1074.46 892.66 C 1075.74 887.73 1076.97 882.78 1077.87 877.78 C 1078.52 872.19 1075.74 866.82 1075.93 861.27 C 1077.05 858.98 1079.45 857.69 1081.29 856.04 C 1079.07 853.26 1075.36 851.24 1074.81 847.47 C 1073.16 844.87 1074.85 839.53 1071.23 838.13 C 1065.88 835.69 1060.24 833.77 1054.39 833.04 C 1054.33 831.16 1054.28 829.29 1054.26 827.43 C 1054.81 827.62 1055.93 827.99 1056.48 828.18 C 1055.71 824.02 1055.01 819.84 1054.95 815.61 C 1051.12 814.30 1047.00 813.64 1043.62 811.35 C 1039.70 808.58 1038.51 803.64 1037.24 799.30 C 1042.93 798.83 1048.21 803.11 1053.73 801.79 C 1057.04 797.04 1054.12 790.32 1056.30 784.95 C 1058.85 778.50 1060.53 771.66 1059.92 764.68 Z" />
</g>
<g id="#00bf1ffe" target="1855">
<path fill="#00bf1f" fill-opacity="0" d=" M 1002.20 820.82 C 1005.34 822.62 1009.01 823.80 1011.66 826.34 C 1014.22 830.72 1013.54 836.04 1013.63 840.90 C 1016.27 840.21 1018.87 839.36 1021.42 838.38 C 1026.83 836.27 1032.80 837.01 1038.46 837.06 C 1039.27 833.19 1038.99 828.74 1041.44 825.38 C 1045.75 823.97 1050.14 826.26 1054.26 827.43 C 1054.28 829.29 1054.33 831.16 1054.39 833.04 C 1060.24 833.77 1065.88 835.69 1071.23 838.13 C 1074.85 839.53 1073.16 844.87 1074.81 847.47 C 1075.36 851.24 1079.07 853.26 1081.29 856.04 C 1079.45 857.69 1077.05 858.98 1075.93 861.27 C 1075.74 866.82 1078.52 872.19 1077.87 877.78 C 1076.97 882.78 1075.74 887.73 1074.46 892.66 C 1075.87 893.18 1077.30 893.70 1078.74 894.24 C 1075.56 908.52 1071.49 922.61 1068.89 937.02 C 1066.88 948.50 1063.33 959.62 1058.77 970.33 C 1055.17 968.96 1051.56 967.66 1048.13 965.99 C 1045.68 961.69 1044.58 956.76 1042.37 952.33 C 1040.35 951.82 1038.33 951.34 1036.32 950.87 C 1035.98 952.46 1035.31 955.62 1034.98 957.20 C 1032.36 956.74 1029.75 956.27 1027.15 955.84 C 1027.40 953.15 1027.63 950.47 1027.85 947.78 C 1022.67 946.46 1017.40 945.37 1012.20 944.22 C 1010.40 946.48 1008.60 948.74 1006.82 951.02 C 1002.07 949.88 997.28 948.97 992.49 948.03 C 991.04 951.22 989.19 954.25 986.56 956.62 C 980.37 962.73 976.15 971.85 966.96 973.95 C 965.77 969.71 965.18 965.18 963.68 961.12 C 960.66 958.08 956.64 956.31 953.14 953.90 C 953.10 934.95 951.03 916.02 952.23 897.07 C 952.84 890.89 953.60 884.71 953.93 878.51 C 956.03 877.89 958.60 877.94 960.35 876.57 C 962.72 871.36 962.36 865.34 962.61 859.73 C 965.13 858.96 967.65 858.19 970.18 857.42 C 971.55 853.37 970.15 846.08 975.65 845.50 C 982.83 845.15 989.88 847.24 996.98 848.14 C 999.10 839.11 1000.69 829.97 1002.20 820.82 Z" />
</g>
</svg>
