<?xml version="1.0" encoding="UTF-8" ?>
<!DOCTYPE svg PUBLIC "-//W3C//DTD SVG 1.1//EN" "http://www.w3.org/Graphics/SVG/1.1/DTD/svg11.dtd">
<svg width="1920pt" height="1080pt" viewBox="0 0 1920 1080" version="1.1" xmlns="http://www.w3.org/2000/svg">
<g id="#3f1f9fff">
<path fill="#3f1f9f" fill-opacity="0" d=" M 828.14 229.19 C 836.03 224.17 843.01 217.54 851.87 214.20 C 853.49 221.80 854.92 229.43 856.30 237.07 C 860.76 236.17 865.18 234.51 869.77 234.59 C 873.34 236.33 875.84 239.61 879.20 241.68 C 888.85 246.59 900.00 246.96 909.85 251.28 C 913.08 256.65 913.72 263.09 916.48 268.67 C 919.13 273.19 923.37 276.44 927.25 279.85 C 916.77 278.22 906.14 278.34 895.59 277.58 C 891.62 292.08 886.76 306.31 882.81 320.82 C 880.87 327.01 879.47 333.60 876.16 339.17 C 868.10 342.80 858.59 342.38 851.07 347.53 C 849.75 348.74 848.50 350.03 847.26 351.30 C 841.51 348.74 836.30 345.16 830.75 342.26 C 825.80 339.61 820.02 340.82 814.67 340.73 C 816.18 328.80 815.92 316.72 816.69 304.73 C 809.69 302.64 802.80 299.03 795.30 299.61 C 787.93 300.19 780.12 301.80 772.97 299.15 C 766.53 296.83 760.38 293.80 754.29 290.70 C 754.04 286.36 751.77 282.66 747.74 280.85 C 747.62 280.22 747.52 279.59 747.43 278.96 C 748.24 278.91 749.88 278.81 750.70 278.75 C 753.45 271.88 756.74 265.24 759.50 258.37 C 760.99 253.44 767.13 254.94 770.78 252.63 C 773.88 250.46 776.14 247.36 778.70 244.62 C 780.71 248.02 782.58 251.50 784.29 255.07 C 791.57 254.36 799.21 255.12 806.34 253.30 C 810.97 249.33 812.06 242.56 815.89 237.89 C 819.57 234.48 824.07 232.11 828.14 229.19 Z" />
</g>
<g id="#9fbf5fff">
<path fill="#9fbf5f" fill-opacity="0" d=" M 732.13 270.17 C 736.09 267.95 740.72 267.43 745.04 266.14 C 745.81 270.41 746.71 274.68 747.43 278.96 C 747.52 279.59 747.62 280.22 747.74 280.85 C 751.77 282.66 754.04 286.36 754.29 290.70 C 760.38 293.80 766.53 296.83 772.97 299.15 C 780.12 301.80 787.93 300.19 795.30 299.61 C 802.80 299.03 809.69 302.64 816.69 304.73 C 815.92 316.72 816.18 328.80 814.67 340.73 C 811.62 350.92 805.91 360.11 799.24 368.31 C 790.12 363.43 781.53 356.66 770.96 355.40 C 767.84 356.18 766.04 359.43 763.75 361.51 C 758.25 360.93 752.75 360.47 747.23 360.18 C 746.44 366.28 746.33 372.43 746.60 378.57 C 737.43 376.51 728.87 372.62 720.96 367.59 C 721.56 362.02 721.98 356.31 724.29 351.14 C 726.09 346.22 729.01 341.72 730.29 336.61 C 730.95 334.75 728.84 333.43 727.49 332.61 C 719.17 331.63 710.86 332.53 702.64 333.81 C 702.56 325.75 701.95 317.70 701.52 309.67 L 701.45 308.70 C 705.40 308.75 709.32 309.30 713.21 309.94 C 717.40 299.83 719.27 288.66 725.42 279.43 C 727.50 276.26 729.13 272.61 732.13 270.17 Z" />
</g>
<g id="#1fbf5fff">
<path fill="#1fbf5f" fill-opacity="0" d=" M 895.59 277.58 C 906.14 278.34 916.77 278.22 927.25 279.85 C 936.71 286.66 946.33 293.38 956.06 299.86 C 958.69 301.71 962.06 299.70 964.84 299.74 C 975.76 297.53 986.85 296.21 997.84 294.35 C 997.75 296.60 997.52 298.81 997.56 301.11 C 1006.49 308.63 1007.21 321.22 1013.53 330.52 C 1016.54 332.72 1020.49 332.79 1023.94 334.06 C 1034.67 336.56 1045.06 340.70 1056.09 341.81 C 1058.20 339.54 1060.34 337.23 1062.97 335.54 C 1065.67 337.15 1068.01 339.28 1070.69 340.94 C 1070.54 355.04 1071.87 369.14 1071.09 383.23 C 1064.76 384.47 1058.85 387.28 1053.11 390.14 C 1048.62 392.15 1046.13 396.60 1043.54 400.52 C 1038.45 408.66 1033.35 416.79 1028.02 424.78 C 1024.30 420.28 1020.64 415.29 1015.02 413.03 C 1009.36 410.42 1003.91 407.37 998.43 404.42 C 994.20 401.86 989.13 403.37 984.50 403.47 C 983.23 399.77 983.01 395.06 979.32 392.81 C 975.48 390.33 971.24 388.16 966.67 387.54 C 964.69 387.14 963.60 389.16 962.57 390.46 C 959.19 395.56 956.41 401.02 953.23 406.24 C 950.14 404.75 947.01 403.35 944.05 401.65 C 936.38 395.11 929.99 387.22 922.49 380.49 C 915.25 373.47 908.96 364.03 897.63 363.83 C 895.70 367.57 893.85 371.34 891.86 375.04 C 886.07 370.56 879.95 366.42 874.77 361.22 C 872.40 358.91 871.07 355.74 868.57 353.58 C 863.19 350.39 857.08 348.93 851.07 347.53 C 858.59 342.38 868.10 342.80 876.16 339.17 C 879.47 333.60 880.87 327.01 882.81 320.82 C 886.76 306.31 891.62 292.08 895.59 277.58 M 969.31 328.59 C 968.24 330.44 967.16 332.28 966.10 334.13 C 968.71 335.68 971.22 337.41 973.77 339.08 C 974.58 336.71 975.39 334.35 976.20 331.98 C 973.99 330.68 971.69 329.54 969.31 328.59 Z" />
</g>
<g id="#3f1f1fff">
<path fill="#3f1f1f" fill-opacity="0" d=" M 684.78 318.23 C 690.51 315.68 696.08 312.80 701.52 309.67 C 701.95 317.70 702.56 325.75 702.64 333.81 C 710.86 332.53 719.17 331.63 727.49 332.61 C 728.84 333.43 730.95 334.75 730.29 336.61 C 729.01 341.72 726.09 346.22 724.29 351.14 C 721.98 356.31 721.56 362.02 720.96 367.59 C 728.87 372.62 737.43 376.51 746.60 378.57 C 750.51 382.64 754.61 386.50 758.78 390.31 C 752.96 396.61 745.14 401.61 741.71 409.78 C 740.51 412.34 739.49 414.99 738.42 417.61 C 734.65 416.85 730.86 416.07 727.11 415.32 C 724.21 421.04 719.25 426.79 720.68 433.60 C 721.43 439.12 724.71 446.79 718.57 450.62 C 713.91 457.29 705.61 453.41 699.47 452.16 C 696.67 448.30 693.91 444.46 691.05 440.67 C 685.50 444.12 680.41 448.61 674.13 450.66 C 671.59 449.00 669.79 446.50 667.79 444.28 C 671.51 440.96 675.25 437.64 679.07 434.42 C 676.18 432.85 673.33 431.22 670.36 429.82 C 672.37 429.37 676.40 428.49 678.41 428.05 C 675.48 422.25 668.69 421.30 663.72 418.11 C 658.56 411.31 655.27 403.33 651.02 395.97 C 648.85 391.80 645.97 387.84 644.98 383.17 C 647.97 380.43 651.71 378.72 655.14 376.61 C 650.58 363.56 653.14 349.68 654.23 336.28 C 660.08 333.98 665.69 330.61 671.99 329.73 C 676.47 330.56 680.34 333.24 684.67 334.59 C 684.64 329.13 684.37 323.68 684.78 318.23 Z" />
</g>
<g id="#001f1fff">
<path fill="#001f1f" fill-opacity="0" d=" M 969.31 328.59 C 971.69 329.54 973.99 330.68 976.20 331.98 C 975.39 334.35 974.58 336.71 973.77 339.08 C 971.22 337.41 968.71 335.68 966.10 334.13 C 967.16 332.28 968.24 330.44 969.31 328.59 Z" />
</g>
<g id="#009f9fff">
<path fill="#009f9f" fill-opacity="0" d=" M 1136.22 331.03 C 1144.98 330.12 1153.75 330.78 1162.53 331.27 C 1166.54 339.18 1175.10 340.78 1182.89 342.34 C 1183.61 340.21 1184.30 338.06 1185.04 335.93 C 1188.99 337.18 1192.95 338.41 1196.98 339.44 C 1196.36 349.84 1196.23 360.26 1196.56 370.67 C 1197.15 377.88 1197.20 386.41 1203.51 391.26 C 1196.26 398.51 1188.12 404.81 1180.11 411.18 C 1177.16 408.57 1174.72 404.93 1170.93 403.54 C 1165.06 403.29 1162.46 410.05 1159.30 413.68 C 1157.04 410.17 1154.77 406.67 1152.56 403.15 C 1148.45 404.53 1144.32 405.85 1140.19 407.17 C 1141.11 411.29 1142.06 415.44 1143.04 419.55 C 1135.46 416.53 1130.11 410.12 1124.34 404.66 C 1117.79 398.70 1111.89 390.93 1102.40 389.72 C 1092.03 387.29 1081.61 384.90 1071.09 383.23 C 1071.87 369.14 1070.54 355.04 1070.69 340.94 C 1078.69 340.62 1086.77 341.11 1094.66 342.50 C 1101.37 344.63 1105.99 350.73 1112.44 353.46 C 1119.63 353.80 1125.92 349.88 1132.51 347.60 C 1133.55 342.03 1134.95 336.54 1136.22 331.03 Z" />
</g>
<g id="#5f3fdfff">
<path fill="#5f3fdf" fill-opacity="0" d=" M 814.67 340.73 C 820.02 340.82 825.80 339.61 830.75 342.26 C 836.30 345.16 841.51 348.74 847.26 351.30 C 848.50 350.03 849.75 348.74 851.07 347.53 C 857.08 348.93 863.19 350.39 868.57 353.58 C 871.07 355.74 872.40 358.91 874.77 361.22 C 879.95 366.42 886.07 370.56 891.86 375.04 C 893.85 371.34 895.70 367.57 897.63 363.83 C 908.96 364.03 915.25 373.47 922.49 380.49 C 929.99 387.22 936.38 395.11 944.05 401.65 C 941.80 405.39 940.07 409.51 937.16 412.81 C 933.83 415.83 929.61 417.57 925.98 420.17 C 917.98 425.52 912.57 434.33 903.40 437.93 C 904.64 443.35 905.11 449.49 909.01 453.78 C 917.31 460.36 928.42 463.19 935.79 470.95 C 938.04 479.08 935.75 487.60 935.74 495.87 C 923.25 500.74 911.81 508.04 901.43 516.43 C 897.44 522.78 900.05 531.17 896.71 537.83 C 894.73 540.81 891.55 542.74 889.11 545.29 C 879.14 534.31 866.63 526.11 854.28 518.08 C 851.24 520.76 848.23 523.48 845.03 525.96 C 842.23 520.58 839.40 515.23 836.60 509.86 C 829.93 510.56 822.95 510.70 816.87 513.81 C 813.00 515.24 809.44 518.16 805.19 518.26 C 798.95 516.71 793.36 511.28 786.46 513.47 C 779.57 517.91 776.03 525.80 770.94 532.00 C 767.47 530.89 764.02 529.77 760.53 528.77 C 761.67 521.76 761.86 514.60 763.47 507.66 C 767.10 501.16 771.25 494.83 776.46 489.46 C 785.11 480.77 793.24 471.57 802.07 463.06 C 808.37 457.32 809.26 448.32 810.29 440.36 C 811.14 435.43 805.98 432.81 803.04 429.84 C 804.62 427.25 806.17 424.65 807.79 422.09 C 802.37 417.53 796.45 413.35 792.57 407.29 C 787.89 401.94 788.41 394.40 788.23 387.73 C 787.77 379.69 795.11 374.32 799.24 368.31 C 805.91 360.11 811.62 350.92 814.67 340.73 M 854.97 431.01 C 850.87 432.71 848.84 436.88 846.57 440.39 C 843.91 445.28 840.63 449.79 837.80 454.57 C 841.65 457.23 845.25 460.24 849.07 462.97 C 854.25 467.41 859.95 460.32 864.81 458.69 C 870.88 455.10 877.64 452.60 883.07 447.99 C 880.12 444.59 876.89 441.29 874.89 437.21 C 872.94 432.69 873.34 427.65 872.89 422.86 C 867.11 426.00 860.94 428.28 854.97 431.01 Z" />
</g>
<g id="#1fbfdfff">
<path fill="#1fbfdf" fill-opacity="0" d=" M 763.75 361.51 C 766.04 359.43 767.84 356.18 770.96 355.40 C 781.53 356.66 790.12 363.43 799.24 368.31 C 795.11 374.32 787.77 379.69 788.23 387.73 C 788.41 394.40 787.89 401.94 792.57 407.29 C 796.45 413.35 802.37 417.53 807.79 422.09 C 806.17 424.65 804.62 427.25 803.04 429.84 C 805.98 432.81 811.14 435.43 810.29 440.36 C 809.26 448.32 808.37 457.32 802.07 463.06 C 793.24 471.57 785.11 480.77 776.46 489.46 C 771.25 494.83 767.10 501.16 763.47 507.66 C 754.54 505.20 744.68 507.35 738.25 514.22 C 735.27 510.79 733.17 506.21 729.07 503.95 C 723.17 502.58 717.03 502.75 711.03 502.08 C 710.27 494.91 709.53 487.56 706.83 480.84 C 702.40 477.21 696.65 475.73 691.61 473.16 C 693.47 471.30 695.50 469.62 697.48 467.89 C 696.52 462.54 697.02 457.06 699.47 452.16 C 705.61 453.41 713.91 457.29 718.57 450.62 C 724.71 446.79 721.43 439.12 720.68 433.60 C 719.25 426.79 724.21 421.04 727.11 415.32 C 730.86 416.07 734.65 416.85 738.42 417.61 C 739.49 414.99 740.51 412.34 741.71 409.78 C 745.14 401.61 752.96 396.61 758.78 390.31 C 754.61 386.50 750.51 382.64 746.60 378.57 C 746.33 372.43 746.44 366.28 747.23 360.18 C 752.75 360.47 758.25 360.93 763.75 361.51 Z" />
</g>
<g id="#5fbfdffe">
<path fill="#5fbfdf" fill-opacity="0" d=" M 1053.11 390.14 C 1058.85 387.28 1064.76 384.47 1071.09 383.23 C 1081.61 384.90 1092.03 387.29 1102.40 389.72 C 1111.89 390.93 1117.79 398.70 1124.34 404.66 C 1130.11 410.12 1135.46 416.53 1143.04 419.55 C 1145.37 428.26 1147.61 437.00 1150.00 445.70 C 1145.99 448.16 1142.04 450.67 1138.05 453.15 C 1134.21 447.93 1130.39 442.70 1126.30 437.69 C 1124.46 435.54 1122.21 433.16 1119.16 433.23 C 1117.05 435.55 1116.25 438.68 1115.66 441.67 C 1114.08 450.09 1112.54 458.54 1110.25 466.80 C 1104.07 463.89 1098.04 460.68 1091.78 457.96 C 1090.68 463.79 1089.38 469.59 1088.54 475.47 C 1073.90 466.95 1059.82 457.20 1048.14 444.87 C 1041.57 438.03 1034.29 431.89 1028.02 424.78 C 1033.35 416.79 1038.45 408.66 1043.54 400.52 C 1046.13 396.60 1048.62 392.15 1053.11 390.14 Z" />
</g>
<g id="#1f3fdfff">
<path fill="#1f3fdf" fill-opacity="0" d=" M 962.57 390.46 C 963.60 389.16 964.69 387.14 966.67 387.54 C 971.24 388.16 975.48 390.33 979.32 392.81 C 983.01 395.06 983.23 399.77 984.50 403.47 C 989.13 403.37 994.20 401.86 998.43 404.42 C 1003.91 407.37 1009.36 410.42 1015.02 413.03 C 1020.64 415.29 1024.30 420.28 1028.02 424.78 C 1034.29 431.89 1041.57 438.03 1048.14 444.87 C 1059.82 457.20 1073.90 466.95 1088.54 475.47 C 1087.19 486.15 1086.56 496.90 1085.91 507.64 C 1080.56 509.28 1074.80 510.10 1070.00 513.08 C 1067.31 516.06 1067.75 520.87 1066.17 524.40 C 1063.64 524.67 1060.94 524.88 1058.48 525.21 C 1055.61 531.40 1052.79 537.61 1049.98 543.83 C 1044.61 542.67 1039.10 542.67 1033.71 541.72 C 1029.21 541.05 1026.51 537.00 1023.51 534.04 C 1019.10 533.39 1013.81 534.12 1010.22 530.85 C 1004.50 525.76 1001.09 518.59 995.32 513.54 C 991.76 510.03 986.43 512.59 982.07 512.32 C 968.57 510.63 955.14 508.19 941.94 504.98 C 937.71 504.11 936.75 499.38 935.74 495.87 C 935.75 487.60 938.04 479.08 935.79 470.95 C 928.42 463.19 917.31 460.36 909.01 453.78 C 905.11 449.49 904.64 443.35 903.40 437.93 C 912.57 434.33 917.98 425.52 925.98 420.17 C 929.61 417.57 933.83 415.83 937.16 412.81 C 940.07 409.51 941.80 405.39 944.05 401.65 C 947.01 403.35 950.14 404.75 953.23 406.24 C 956.41 401.02 959.19 395.56 962.57 390.46 Z" />
</g>
<g id="#dfbfdfff">
<path fill="#dfbfdf" fill-opacity="0" d=" M 1231.27 389.44 C 1237.61 391.22 1242.39 396.69 1245.87 402.02 C 1250.53 412.16 1256.37 421.66 1262.63 430.88 C 1259.87 437.14 1258.66 444.34 1262.18 450.51 C 1261.14 453.90 1259.20 457.17 1259.17 460.78 C 1261.44 464.74 1265.55 467.19 1268.04 471.00 C 1269.78 473.59 1268.99 477.01 1269.40 479.99 L 1268.08 480.07 C 1259.45 480.58 1250.77 481.16 1242.14 480.51 C 1238.25 479.48 1235.67 475.95 1231.92 474.64 C 1226.46 475.94 1222.51 480.59 1217.21 482.25 C 1209.85 483.55 1202.10 479.23 1195.06 482.90 C 1183.99 488.61 1178.59 500.48 1170.88 509.67 C 1163.11 502.24 1154.96 495.21 1147.00 487.99 C 1143.09 484.44 1139.91 479.97 1138.13 475.00 C 1136.59 467.78 1137.60 460.40 1138.05 453.15 C 1142.04 450.67 1145.99 448.16 1150.00 445.70 C 1147.61 437.00 1145.37 428.26 1143.04 419.55 C 1142.06 415.44 1141.11 411.29 1140.19 407.17 C 1144.32 405.85 1148.45 404.53 1152.56 403.15 C 1154.77 406.67 1157.04 410.17 1159.30 413.68 C 1162.46 410.05 1165.06 403.29 1170.93 403.54 C 1174.72 404.93 1177.16 408.57 1180.11 411.18 C 1188.12 404.81 1196.26 398.51 1203.51 391.26 C 1209.04 393.69 1214.00 397.65 1219.94 398.97 C 1224.63 397.29 1226.93 391.89 1231.27 389.44 Z" />
</g>
<g id="#df3fdfff">
<path fill="#df3fdf" fill-opacity="0" d=" M 854.97 431.01 C 860.94 428.28 867.11 426.00 872.89 422.86 C 873.34 427.65 872.94 432.69 874.89 437.21 C 876.89 441.29 880.12 444.59 883.07 447.99 C 877.64 452.60 870.88 455.10 864.81 458.69 C 859.95 460.32 854.25 467.41 849.07 462.97 C 845.25 460.24 841.65 457.23 837.80 454.57 C 840.63 449.79 843.91 445.28 846.57 440.39 C 848.84 436.88 850.87 432.71 854.97 431.01 Z" />
</g>
<g id="#5fbf5fff">
<path fill="#5fbf5f" fill-opacity="0" d=" M 653.01 428.81 C 658.71 429.35 664.80 428.05 670.36 429.82 C 673.33 431.22 676.18 432.85 679.07 434.42 C 675.25 437.64 671.51 440.96 667.79 444.28 C 669.79 446.50 671.59 449.00 674.13 450.66 C 680.41 448.61 685.50 444.12 691.05 440.67 C 693.91 444.46 696.67 448.30 699.47 452.16 C 697.02 457.06 696.52 462.54 697.48 467.89 C 695.50 469.62 693.47 471.30 691.61 473.16 C 690.03 477.96 689.75 483.13 687.42 487.70 C 685.87 490.19 683.51 492.02 681.42 494.02 C 675.57 490.38 669.78 486.67 663.73 483.37 C 661.57 488.85 660.67 494.89 662.45 500.60 C 666.82 518.57 659.30 537.51 646.60 550.32 C 643.32 547.99 640.18 545.50 636.98 543.08 C 634.76 545.31 632.52 547.52 630.29 549.73 C 628.95 549.06 627.62 548.39 626.30 547.72 C 622.45 541.20 620.71 532.49 614.26 527.86 C 611.21 530.87 608.56 534.25 605.74 537.47 C 599.26 530.79 593.88 523.14 588.14 515.84 C 578.13 504.72 578.92 487.72 567.91 477.30 C 574.41 475.95 581.07 474.93 587.20 472.26 C 588.79 471.42 591.13 470.35 590.73 468.16 C 590.46 462.10 589.61 456.12 589.10 450.09 C 594.55 450.86 597.80 457.27 603.45 456.79 C 613.61 458.52 612.29 446.12 614.49 439.90 C 617.58 445.43 621.08 450.72 624.31 456.18 C 632.39 450.73 642.42 450.40 651.77 448.87 C 652.06 442.17 652.35 435.48 653.01 428.81 Z" />
</g>
<g id="#9f3fdfff">
<path fill="#9f3fdf" fill-opacity="0" d=" M 1119.16 433.23 C 1122.21 433.16 1124.46 435.54 1126.30 437.69 C 1130.39 442.70 1134.21 447.93 1138.05 453.15 C 1137.60 460.40 1136.59 467.78 1138.13 475.00 C 1139.91 479.97 1143.09 484.44 1147.00 487.99 C 1154.96 495.21 1163.11 502.24 1170.88 509.67 C 1173.36 512.62 1175.77 515.72 1178.18 518.78 C 1174.32 520.89 1170.49 523.01 1166.67 525.16 C 1168.54 533.44 1170.58 541.81 1174.94 549.20 C 1177.38 552.72 1182.84 553.36 1184.13 557.78 C 1185.29 561.97 1185.10 566.42 1185.09 570.76 C 1184.04 577.34 1182.67 583.88 1181.29 590.40 C 1186.23 593.55 1191.32 596.53 1195.92 600.18 C 1200.10 603.53 1200.80 609.21 1202.44 613.97 C 1198.98 615.04 1195.67 616.76 1192.07 617.22 C 1184.22 616.89 1176.72 614.32 1169.00 613.13 C 1168.98 616.84 1168.94 624.28 1168.92 628.00 C 1162.30 625.15 1155.51 622.75 1148.77 620.25 C 1150.96 626.20 1153.40 632.06 1155.93 637.88 C 1151.05 637.61 1146.17 636.30 1141.29 636.77 C 1139.29 637.05 1138.43 639.09 1137.59 640.65 C 1135.45 645.08 1133.80 649.77 1132.87 654.60 C 1129.46 653.44 1125.93 652.44 1122.30 652.63 C 1119.79 643.17 1116.33 633.98 1114.33 624.39 C 1119.00 620.20 1124.81 616.50 1127.01 610.35 C 1127.03 605.56 1125.46 600.86 1125.84 596.02 C 1126.60 587.99 1122.82 579.52 1115.82 575.29 C 1112.24 572.30 1106.95 570.55 1105.39 565.73 C 1101.75 554.55 1098.55 543.24 1095.62 531.85 C 1089.82 531.07 1084.13 529.71 1078.35 528.84 C 1075.11 536.03 1071.56 543.07 1068.50 550.34 C 1062.25 548.39 1056.31 545.55 1049.98 543.83 C 1052.79 537.61 1055.61 531.40 1058.48 525.21 C 1060.94 524.88 1063.64 524.67 1066.17 524.40 C 1067.75 520.87 1067.31 516.06 1070.00 513.08 C 1074.80 510.10 1080.56 509.28 1085.91 507.64 C 1086.56 496.90 1087.19 486.15 1088.54 475.47 C 1089.38 469.59 1090.68 463.79 1091.78 457.96 C 1098.04 460.68 1104.07 463.89 1110.25 466.80 C 1112.54 458.54 1114.08 450.09 1115.66 441.67 C 1116.25 438.68 1117.05 435.55 1119.16 433.23 Z" />
</g>
<g id="#df3f5fff">
<path fill="#df3f5f" fill-opacity="0" d=" M 687.42 487.70 C 689.75 483.13 690.03 477.96 691.61 473.16 C 696.65 475.73 702.40 477.21 706.83 480.84 C 709.53 487.56 710.27 494.91 711.03 502.08 C 717.03 502.75 723.17 502.58 729.07 503.95 C 733.17 506.21 735.27 510.79 738.25 514.22 C 734.32 517.99 730.61 521.97 726.44 525.49 C 721.62 529.60 719.05 535.54 715.93 540.91 C 720.42 541.39 724.92 541.85 729.42 542.33 C 725.74 548.58 721.68 554.59 717.86 560.75 C 714.38 560.26 710.83 559.14 707.31 559.83 C 702.91 562.13 699.25 565.62 695.36 568.67 C 686.86 575.21 683.52 586.01 678.81 595.25 C 675.05 593.16 670.81 591.50 667.78 588.40 C 664.66 582.46 664.20 575.59 662.58 569.16 C 661.55 565.41 661.20 560.82 657.92 558.18 C 654.33 555.29 650.34 552.99 646.60 550.32 C 659.30 537.51 666.82 518.57 662.45 500.60 C 660.67 494.89 661.57 488.85 663.73 483.37 C 669.78 486.67 675.57 490.38 681.42 494.02 C 683.51 492.02 685.87 490.19 687.42 487.70 Z" />
</g>
<g id="#7f1f9ffe">
<path fill="#7f1f9f" fill-opacity="0" d=" M 1217.21 482.25 C 1222.51 480.59 1226.46 475.94 1231.92 474.64 C 1235.67 475.95 1238.25 479.48 1242.14 480.51 C 1250.77 481.16 1259.45 480.58 1268.08 480.07 C 1266.31 484.78 1264.25 489.44 1263.42 494.44 C 1260.81 501.50 1267.68 505.95 1270.18 511.73 C 1272.02 515.97 1274.80 520.93 1272.54 525.55 C 1268.78 534.24 1261.64 540.90 1257.58 549.43 C 1255.76 553.89 1256.53 559.11 1254.38 563.47 C 1250.33 569.66 1245.92 575.64 1242.35 582.13 C 1239.85 582.05 1237.38 581.99 1234.95 581.94 C 1234.17 577.66 1233.46 573.39 1232.86 569.09 C 1230.25 570.56 1227.65 572.04 1225.09 573.57 C 1223.80 569.85 1222.38 566.17 1220.99 562.49 C 1215.94 563.36 1210.86 563.99 1205.82 564.90 C 1205.36 570.92 1205.52 576.97 1205.04 582.99 C 1198.38 578.92 1191.77 574.78 1185.09 570.76 C 1185.10 566.42 1185.29 561.97 1184.13 557.78 C 1182.84 553.36 1177.38 552.72 1174.94 549.20 C 1170.58 541.81 1168.54 533.44 1166.67 525.16 C 1170.49 523.01 1174.32 520.89 1178.18 518.78 C 1175.77 515.72 1173.36 512.62 1170.88 509.67 C 1178.59 500.48 1183.99 488.61 1195.06 482.90 C 1202.10 479.23 1209.85 483.55 1217.21 482.25 Z" />
</g>
<g id="#5f3f5fff">
<path fill="#5f3f5f" fill-opacity="0" d=" M 901.43 516.43 C 911.81 508.04 923.25 500.74 935.74 495.87 C 936.75 499.38 937.71 504.11 941.94 504.98 C 955.14 508.19 968.57 510.63 982.07 512.32 C 981.50 520.09 979.63 528.19 982.30 535.76 C 983.24 538.77 984.27 541.74 985.21 544.76 C 980.51 547.17 975.33 548.96 971.18 552.25 C 968.47 558.37 963.99 566.39 968.03 572.89 C 971.39 578.78 975.98 583.89 979.27 589.84 C 981.56 593.71 979.08 598.19 977.73 601.94 C 974.45 605.58 970.53 608.57 967.02 611.97 C 961.58 607.61 955.66 603.92 949.82 600.14 C 944.79 603.59 939.80 607.12 934.45 610.06 C 927.43 604.21 919.97 598.92 912.95 593.09 C 910.43 591.34 907.41 588.67 904.15 590.12 C 892.66 594.41 881.96 600.57 870.33 604.52 C 856.75 598.09 843.51 589.41 835.48 576.40 C 833.55 573.23 836.18 569.85 837.26 566.88 C 831.27 559.38 825.75 551.46 822.85 542.19 C 830.26 536.80 837.74 531.52 845.03 525.96 C 848.23 523.48 851.24 520.76 854.28 518.08 C 866.63 526.11 879.14 534.31 889.11 545.29 C 891.55 542.74 894.73 540.81 896.71 537.83 C 900.05 531.17 897.44 522.78 901.43 516.43 Z" />
</g>
<g id="#001f9fff">
<path fill="#001f9f" fill-opacity="0" d=" M 738.25 514.22 C 744.68 507.35 754.54 505.20 763.47 507.66 C 761.86 514.60 761.67 521.76 760.53 528.77 C 764.02 529.77 767.47 530.89 770.94 532.00 C 776.03 525.80 779.57 517.91 786.46 513.47 C 793.36 511.28 798.95 516.71 805.19 518.26 C 809.44 518.16 813.00 515.24 816.87 513.81 C 822.95 510.70 829.93 510.56 836.60 509.86 C 839.40 515.23 842.23 520.58 845.03 525.96 C 837.74 531.52 830.26 536.80 822.85 542.19 C 825.75 551.46 831.27 559.38 837.26 566.88 C 836.18 569.85 833.55 573.23 835.48 576.40 C 843.51 589.41 856.75 598.09 870.33 604.52 C 861.45 608.96 851.60 608.30 842.13 606.84 C 831.53 606.42 820.93 605.91 810.34 605.59 C 799.02 605.67 787.58 599.00 783.23 588.35 C 776.58 588.68 769.81 587.61 763.23 588.87 C 753.71 592.11 749.38 603.32 739.80 606.41 C 732.23 606.62 725.26 602.60 718.08 600.66 C 722.17 595.88 726.50 591.23 729.87 585.90 C 731.31 584.14 730.49 581.62 728.82 580.34 C 722.73 578.67 716.26 579.02 710.13 577.53 C 704.75 575.45 700.18 571.76 695.36 568.67 C 699.25 565.62 702.91 562.13 707.31 559.83 C 710.83 559.14 714.38 560.26 717.86 560.75 C 721.68 554.59 725.74 548.58 729.42 542.33 C 724.92 541.85 720.42 541.39 715.93 540.91 C 719.05 535.54 721.62 529.60 726.44 525.49 C 730.61 521.97 734.32 517.99 738.25 514.22 Z" />
</g>
<g id="#dfbf5fff">
<path fill="#dfbf5f" fill-opacity="0" d=" M 982.07 512.32 C 986.43 512.59 991.76 510.03 995.32 513.54 C 1001.09 518.59 1004.50 525.76 1010.22 530.85 C 1013.81 534.12 1019.10 533.39 1023.51 534.04 C 1026.51 537.00 1029.21 541.05 1033.71 541.72 C 1039.10 542.67 1044.61 542.67 1049.98 543.83 C 1056.31 545.55 1062.25 548.39 1068.50 550.34 C 1071.56 543.07 1075.11 536.03 1078.35 528.84 C 1084.13 529.71 1089.82 531.07 1095.62 531.85 C 1098.55 543.24 1101.75 554.55 1105.39 565.73 C 1106.95 570.55 1112.24 572.30 1115.82 575.29 C 1122.82 579.52 1126.60 587.99 1125.84 596.02 C 1125.46 600.86 1127.03 605.56 1127.01 610.35 C 1124.81 616.50 1119.00 620.20 1114.33 624.39 C 1116.33 633.98 1119.79 643.17 1122.30 652.63 C 1115.56 656.56 1110.28 662.46 1104.75 667.84 C 1102.82 669.79 1099.90 669.17 1097.50 668.82 C 1091.09 667.61 1084.11 666.42 1078.99 662.08 C 1075.00 659.10 1071.50 655.26 1066.83 653.36 C 1063.05 652.53 1059.16 653.14 1055.37 653.47 C 1054.85 660.51 1052.10 667.06 1048.38 672.98 C 1044.83 671.01 1041.40 668.22 1037.22 667.88 C 1031.53 668.48 1026.28 671.08 1020.91 672.89 C 1016.24 666.56 1012.17 659.76 1008.80 652.66 C 1007.06 647.75 1005.45 642.30 1007.13 637.16 C 1009.25 630.24 1012.95 623.93 1015.36 617.11 C 1011.43 614.00 1007.95 610.09 1003.28 608.06 C 997.73 607.99 993.02 611.18 988.27 613.58 C 984.88 609.59 981.38 605.69 977.73 601.94 C 979.08 598.19 981.56 593.71 979.27 589.84 C 975.98 583.89 971.39 578.78 968.03 572.89 C 963.99 566.39 968.47 558.37 971.18 552.25 C 975.33 548.96 980.51 547.17 985.21 544.76 C 984.27 541.74 983.24 538.77 982.30 535.76 C 979.63 528.19 981.50 520.09 982.07 512.32 Z" />
</g>
<g id="#bf9f1ffe">
<path fill="#bf9f1f" fill-opacity="0" d=" M 630.29 549.73 C 632.52 547.52 634.76 545.31 636.98 543.08 C 640.18 545.50 643.32 547.99 646.60 550.32 C 650.34 552.99 654.33 555.29 657.92 558.18 C 661.20 560.82 661.55 565.41 662.58 569.16 C 664.20 575.59 664.66 582.46 667.78 588.40 C 670.81 591.50 675.05 593.16 678.81 595.25 C 683.52 586.01 686.86 575.21 695.36 568.67 C 700.18 571.76 704.75 575.45 710.13 577.53 C 716.26 579.02 722.73 578.67 728.82 580.34 C 730.49 581.62 731.31 584.14 729.87 585.90 C 726.50 591.23 722.17 595.88 718.08 600.66 C 715.67 603.75 711.20 606.15 711.25 610.48 C 710.33 616.61 715.32 620.21 718.66 624.31 C 724.09 632.41 729.75 641.14 729.85 651.25 C 728.89 656.80 726.80 662.07 724.67 667.26 C 722.06 664.30 719.57 661.23 717.32 658.00 C 713.37 659.04 706.77 655.72 704.54 660.40 C 702.68 665.87 702.80 671.80 701.83 677.46 C 697.25 677.08 692.64 676.70 688.17 675.66 C 683.91 673.99 681.87 669.20 677.63 667.49 C 675.00 666.47 672.06 666.14 669.35 665.64 C 666.20 670.46 662.76 675.09 659.42 679.79 C 645.59 680.92 631.57 681.52 618.28 685.86 C 613.81 681.65 609.82 676.74 604.52 673.50 C 601.16 671.42 597.29 673.26 593.85 674.03 C 586.00 667.75 578.63 660.95 570.94 654.51 C 571.02 647.49 571.76 640.46 573.28 633.60 C 577.31 632.75 581.37 631.85 585.39 630.86 C 584.35 627.95 583.26 625.06 582.02 622.23 C 586.60 621.94 591.26 621.85 595.84 621.22 C 596.33 617.76 596.05 614.19 597.01 610.80 C 602.97 606.63 609.88 604.10 616.66 601.58 C 613.20 595.75 608.22 591.08 604.14 585.74 C 606.20 581.24 610.56 577.87 611.74 572.99 C 610.96 566.18 606.81 560.38 604.05 554.25 C 604.76 553.54 605.47 552.84 606.19 552.14 C 610.01 554.84 613.75 557.70 618.12 559.50 C 620.76 555.51 623.51 551.60 626.30 547.72 C 627.62 548.39 628.95 549.06 630.29 549.73 Z" />
</g>
<g id="#7f9f1fff">
<path fill="#7f9f1f" fill-opacity="0" d=" M 1205.82 564.90 C 1210.86 563.99 1215.94 563.36 1220.99 562.49 C 1222.38 566.17 1223.80 569.85 1225.09 573.57 C 1227.65 572.04 1230.25 570.56 1232.86 569.09 C 1233.46 573.39 1234.17 577.66 1234.95 581.94 C 1237.38 581.99 1239.85 582.05 1242.35 582.13 C 1246.26 582.51 1250.41 581.96 1254.30 582.88 C 1257.08 585.57 1258.91 589.05 1261.00 592.28 C 1263.37 591.62 1265.75 590.92 1268.14 590.27 C 1270.84 596.70 1276.05 601.56 1282.02 604.98 C 1277.40 610.01 1272.56 615.57 1273.38 622.95 C 1277.66 622.72 1281.98 622.46 1286.29 622.24 C 1287.88 624.65 1289.11 627.71 1291.95 628.94 C 1293.95 628.37 1295.76 627.29 1297.60 626.31 C 1298.86 627.50 1300.10 628.71 1301.35 629.93 C 1297.85 633.68 1294.41 637.49 1290.82 641.15 C 1293.04 645.67 1294.98 650.32 1296.97 654.95 C 1302.24 655.00 1307.52 655.06 1312.83 655.12 C 1313.86 656.80 1314.91 658.48 1315.93 660.18 C 1314.80 659.70 1314.01 660.04 1313.57 661.20 C 1312.56 663.43 1309.96 666.25 1312.60 668.36 C 1317.61 673.06 1323.41 676.90 1329.17 680.64 C 1328.39 683.11 1330.88 687.21 1328.34 689.29 C 1326.75 690.86 1324.94 692.17 1323.18 693.53 C 1323.61 698.49 1324.11 703.46 1324.73 708.41 C 1314.82 715.15 1305.66 722.92 1296.29 730.35 C 1292.37 733.61 1286.55 730.32 1282.77 733.73 C 1274.81 739.38 1268.35 749.01 1257.48 748.24 C 1252.29 742.39 1244.59 740.02 1238.32 735.66 C 1231.74 731.12 1233.95 721.51 1229.48 715.53 C 1223.91 713.42 1217.77 714.49 1211.96 714.62 C 1211.26 718.21 1210.68 721.85 1209.98 725.46 C 1206.85 725.75 1203.72 726.03 1200.63 726.38 C 1201.33 729.81 1202.36 733.27 1202.12 736.81 C 1201.02 740.99 1198.27 744.50 1196.06 748.15 C 1190.53 746.48 1184.43 745.74 1179.63 742.36 C 1175.39 737.35 1173.32 730.95 1170.05 725.33 C 1165.79 726.12 1161.52 726.80 1157.28 727.68 C 1150.52 712.18 1142.08 697.21 1138.44 680.56 C 1136.42 671.95 1134.08 663.37 1132.87 654.60 C 1133.80 649.77 1135.45 645.08 1137.59 640.65 C 1138.43 639.09 1139.29 637.05 1141.29 636.77 C 1146.17 636.30 1151.05 637.61 1155.93 637.88 C 1153.40 632.06 1150.96 626.20 1148.77 620.25 C 1155.51 622.75 1162.30 625.15 1168.92 628.00 C 1168.94 624.28 1168.98 616.84 1169.00 613.13 C 1176.72 614.32 1184.22 616.89 1192.07 617.22 C 1195.67 616.76 1198.98 615.04 1202.44 613.97 C 1200.80 609.21 1200.10 603.53 1195.92 600.18 C 1191.32 596.53 1186.23 593.55 1181.29 590.40 C 1182.67 583.88 1184.04 577.34 1185.09 570.76 C 1191.77 574.78 1198.38 578.92 1205.04 582.99 C 1205.52 576.97 1205.36 570.92 1205.82 564.90 M 1201.37 657.09 C 1206.74 659.85 1210.02 664.93 1213.65 669.52 C 1218.24 664.65 1222.12 659.05 1223.10 652.26 C 1218.22 651.15 1213.35 649.20 1208.31 649.27 C 1205.62 651.52 1203.65 654.47 1201.37 657.09 Z" />
</g>
<g id="#9fbfdffe">
<path fill="#9fbfdf" fill-opacity="0" d=" M 763.23 588.87 C 769.81 587.61 776.58 588.68 783.23 588.35 C 787.58 599.00 799.02 605.67 810.34 605.59 C 820.93 605.91 831.53 606.42 842.13 606.84 C 836.35 612.83 830.09 618.34 824.48 624.49 C 831.08 628.02 841.73 630.02 841.99 639.16 C 843.19 644.72 839.44 649.51 838.79 654.79 C 842.30 662.80 849.82 668.41 853.39 676.45 C 855.82 682.09 857.50 688.03 859.78 693.74 C 847.16 692.11 838.36 701.45 828.93 707.83 C 819.44 710.76 809.90 704.58 800.29 707.14 C 789.21 707.51 782.40 717.78 771.99 719.99 C 766.63 722.81 761.27 719.07 757.79 715.25 C 753.68 710.32 749.68 705.22 746.38 699.72 C 744.46 693.16 746.32 686.07 744.56 679.42 C 742.63 668.98 739.61 657.11 729.85 651.25 C 729.75 641.14 724.09 632.41 718.66 624.31 C 715.32 620.21 710.33 616.61 711.25 610.48 C 711.20 606.15 715.67 603.75 718.08 600.66 C 725.26 602.60 732.23 606.62 739.80 606.41 C 749.38 603.32 753.71 592.11 763.23 588.87 Z" />
</g>
<g id="#bf1f1ffe">
<path fill="#bf1f1f" fill-opacity="0" d=" M 904.15 590.12 C 907.41 588.67 910.43 591.34 912.95 593.09 C 919.97 598.92 927.43 604.21 934.45 610.06 C 939.80 607.12 944.79 603.59 949.82 600.14 C 955.66 603.92 961.58 607.61 967.02 611.97 C 955.04 622.82 948.90 638.93 935.40 648.28 C 922.93 654.25 909.28 648.91 896.36 648.17 C 899.76 653.98 905.04 658.72 907.18 665.23 C 908.46 670.52 908.96 675.97 909.81 681.35 C 897.67 685.02 885.66 689.40 874.48 695.40 C 869.57 697.47 864.56 694.83 859.78 693.74 C 857.50 688.03 855.82 682.09 853.39 676.45 C 849.82 668.41 842.30 662.80 838.79 654.79 C 839.44 649.51 843.19 644.72 841.99 639.16 C 841.73 630.02 831.08 628.02 824.48 624.49 C 830.09 618.34 836.35 612.83 842.13 606.84 C 851.60 608.30 861.45 608.96 870.33 604.52 C 881.96 600.57 892.66 594.41 904.15 590.12 Z" />
</g>
<g id="#7f1f1fff">
<path fill="#7f1f1f" fill-opacity="0" d=" M 967.02 611.97 C 970.53 608.57 974.45 605.58 977.73 601.94 C 981.38 605.69 984.88 609.59 988.27 613.58 C 993.02 611.18 997.73 607.99 1003.28 608.06 C 1007.95 610.09 1011.43 614.00 1015.36 617.11 C 1012.95 623.93 1009.25 630.24 1007.13 637.16 C 1005.45 642.30 1007.06 647.75 1008.80 652.66 C 1012.17 659.76 1016.24 666.56 1020.91 672.89 C 1023.29 675.71 1025.97 678.26 1028.62 680.84 C 1020.20 687.03 1009.44 690.36 1003.03 699.04 C 1000.07 703.78 999.30 709.51 997.56 714.76 C 992.06 714.29 985.71 711.98 980.88 715.83 C 976.74 718.86 972.37 721.90 969.34 726.09 C 967.51 730.87 968.27 736.17 967.79 741.18 C 959.99 738.02 951.74 734.68 946.22 728.11 C 942.40 714.54 936.45 701.37 927.74 690.23 C 923.88 684.14 916.09 683.41 909.81 681.35 C 908.96 675.97 908.46 670.52 907.18 665.23 C 905.04 658.72 899.76 653.98 896.36 648.17 C 909.28 648.91 922.93 654.25 935.40 648.28 C 948.90 638.93 955.04 622.82 967.02 611.97 Z" />
</g>
<g id="#009f1fff">
<path fill="#009f1f" fill-opacity="0" d=" M 1201.37 657.09 C 1203.65 654.47 1205.62 651.52 1208.31 649.27 C 1213.35 649.20 1218.22 651.15 1223.10 652.26 C 1222.12 659.05 1218.24 664.65 1213.65 669.52 C 1210.02 664.93 1206.74 659.85 1201.37 657.09 Z" />
</g>
<g id="#7f9f9fff">
<path fill="#7f9f9f" fill-opacity="0" d=" M 1055.37 653.47 C 1059.16 653.14 1063.05 652.53 1066.83 653.36 C 1071.50 655.26 1075.00 659.10 1078.99 662.08 C 1084.11 666.42 1091.09 667.61 1097.50 668.82 C 1099.90 669.17 1102.82 669.79 1104.75 667.84 C 1110.28 662.46 1115.56 656.56 1122.30 652.63 C 1125.93 652.44 1129.46 653.44 1132.87 654.60 C 1134.08 663.37 1136.42 671.95 1138.44 680.56 C 1142.08 697.21 1150.52 712.18 1157.28 727.68 C 1154.51 732.32 1152.50 737.61 1148.65 741.51 C 1145.01 743.20 1141.11 744.20 1137.32 745.42 C 1139.59 750.68 1142.31 756.00 1142.71 761.78 C 1141.32 766.17 1137.18 768.91 1134.24 772.23 C 1127.29 779.10 1120.78 786.44 1115.49 794.68 C 1111.94 791.78 1108.40 788.53 1104.01 787.04 C 1095.20 785.11 1086.17 785.40 1077.22 785.33 C 1059.19 784.65 1040.09 780.16 1026.55 767.47 C 1021.85 763.55 1018.54 757.85 1012.94 755.11 C 1005.49 753.44 997.68 754.50 990.15 753.67 C 987.92 749.45 988.11 744.05 984.47 740.60 C 978.93 739.92 973.33 740.99 967.79 741.18 C 968.27 736.17 967.51 730.87 969.34 726.09 C 972.37 721.90 976.74 718.86 980.88 715.83 C 985.71 711.98 992.06 714.29 997.56 714.76 C 999.30 709.51 1000.07 703.78 1003.03 699.04 C 1009.44 690.36 1020.20 687.03 1028.62 680.84 C 1025.97 678.26 1023.29 675.71 1020.91 672.89 C 1026.28 671.08 1031.53 668.48 1037.22 667.88 C 1041.40 668.22 1044.83 671.01 1048.38 672.98 C 1052.10 667.06 1054.85 660.51 1055.37 653.47 Z" />
</g>
<g id="#95c94aff">
<path fill="#95c94a" fill-opacity="0" d=" M 1313.57 661.20 C 1314.01 660.04 1314.80 659.70 1315.93 660.18 C 1315.66 661.72 1314.87 662.06 1313.57 661.20 Z" />
</g>
<g id="#3f9f1fff">
<path fill="#3f9f1f" fill-opacity="0" d=" M 1211.96 714.62 C 1217.77 714.49 1223.91 713.42 1229.48 715.53 C 1233.95 721.51 1231.74 731.12 1238.32 735.66 C 1244.59 740.02 1252.29 742.39 1257.48 748.24 C 1252.37 755.48 1259.25 763.38 1260.11 770.73 C 1260.04 778.12 1259.61 785.50 1259.77 792.90 C 1253.65 797.40 1247.46 801.85 1240.86 805.61 C 1240.45 810.11 1240.50 814.60 1240.74 819.12 C 1233.16 823.67 1225.73 828.74 1217.26 831.49 C 1213.02 826.44 1209.36 820.91 1204.88 816.10 C 1201.11 811.95 1195.33 810.88 1190.13 809.62 C 1186.10 816.86 1186.30 826.89 1179.09 832.11 C 1173.87 836.17 1167.95 840.43 1161.11 840.78 C 1153.77 838.20 1148.98 831.55 1143.93 826.05 C 1135.03 815.17 1120.47 808.65 1115.49 794.68 C 1120.78 786.44 1127.29 779.10 1134.24 772.23 C 1137.18 768.91 1141.32 766.17 1142.71 761.78 C 1142.31 756.00 1139.59 750.68 1137.32 745.42 C 1141.11 744.20 1145.01 743.20 1148.65 741.51 C 1152.50 737.61 1154.51 732.32 1157.28 727.68 C 1161.52 726.80 1165.79 726.12 1170.05 725.33 C 1173.32 730.95 1175.39 737.35 1179.63 742.36 C 1184.43 745.74 1190.53 746.48 1196.06 748.15 C 1198.27 744.50 1201.02 740.99 1202.12 736.81 C 1202.36 733.27 1201.33 729.81 1200.63 726.38 C 1203.72 726.03 1206.85 725.75 1209.98 725.46 C 1210.68 721.85 1211.26 718.21 1211.96 714.62 Z" />
</g>
<g id="#cf3f5ffe">
<path fill="#cf3f5f" fill-opacity="0" d=" M 0.00 1079.00 C 139.00 1078.96 278.00 1079.08 417.00 1078.94 C 427.25 1078.95 437.49 1079.41 447.73 1079.97 L 448.65 1080.00 L 0.00 1080.00 L 0.00 1079.00 Z" />
</g>
<g id="#4f3f00ff">
<path fill="#4f3f00" fill-opacity="0" d=" M 447.73 1079.97 C 477.69 1078.33 507.76 1078.50 537.72 1079.97 L 538.63 1080.00 L 448.65 1080.00 L 447.73 1079.97 Z" />
</g>
<g id="#8fbf00ff">
<path fill="#8fbf00" fill-opacity="0" d=" M 537.72 1079.97 C 554.78 1078.62 571.90 1078.90 589.00 1078.99 L 589.00 1080.00 L 538.63 1080.00 L 537.72 1079.97 Z" />
</g>
<g id="#8f0000ff">
<path fill="#8f0000" fill-opacity="0" d=" M 589.00 1078.99 C 623.00 1079.00 656.99 1079.02 690.99 1078.98 L 691.02 1080.00 L 589.00 1080.00 L 589.00 1078.99 Z" />
</g>
<g id="#4f3f7fff">
<path fill="#4f3f7f" fill-opacity="0" d=" M 690.99 1078.98 C 707.26 1078.79 723.54 1078.94 739.79 1079.96 L 740.68 1080.00 L 691.02 1080.00 L 690.99 1078.98 Z" />
<path fill="#4f3f7f" fill-opacity="0" d=" M 750.64 1080.00 C 758.81 1079.73 766.99 1079.79 775.18 1079.95 L 774.24 1080.00 L 750.64 1080.00 Z" />
</g>
<g id="#cf3f7fff">
<path fill="#cf3f7f" fill-opacity="0" d=" M 739.79 1079.96 C 742.97 1079.99 746.05 1079.87 749.27 1080.00 L 740.68 1080.00 L 739.79 1079.96 Z" />
</g>
<g id="#4f7f00ff">
<path fill="#4f7f00" fill-opacity="0" d=" M 775.18 1079.95 C 799.75 1078.18 824.39 1079.22 849.00 1079.01 C 877.58 1079.24 906.19 1078.19 934.74 1079.97 L 935.63 1080.00 L 774.24 1080.00 L 775.18 1079.95 Z" />
</g>
<g id="#8f7f7fff">
<path fill="#8f7f7f" fill-opacity="0" d=" M 934.74 1079.97 C 939.83 1079.66 944.87 1079.23 950.00 1079.06 L 950.01 1080.00 L 935.63 1080.00 L 934.74 1079.97 Z" />
<path fill="#8f7f7f" fill-opacity="0" d=" M 1036.73 1079.97 C 1053.35 1078.58 1070.06 1078.72 1086.70 1079.96 L 1087.64 1080.00 L 1037.65 1080.00 L 1036.73 1079.97 Z" />
</g>
<g id="#8f7f00ff">
<path fill="#8f7f00" fill-opacity="0" d=" M 950.00 1079.06 C 978.91 1079.06 1007.85 1078.29 1036.73 1079.97 L 1037.65 1080.00 L 950.01 1080.00 L 950.00 1079.06 Z" />
</g>
<g id="#4f007fff">
<path fill="#4f007f" fill-opacity="0" d=" M 1086.70 1079.96 C 1097.02 1079.05 1107.39 1079.33 1117.74 1079.96 L 1118.67 1080.00 L 1087.64 1080.00 L 1086.70 1079.96 Z" />
</g>
<g id="#7f7fbfff">
<path fill="#7f7fbf" fill-opacity="0" d=" M 1117.74 1079.96 C 1159.45 1077.85 1201.24 1079.52 1243.00 1079.00 L 1243.02 1080.00 L 1118.67 1080.00 L 1117.74 1079.96 Z" />
</g>
<g id="#7fbf3fff">
<path fill="#7fbf3f" fill-opacity="0" d=" M 1243.00 1079.00 C 1285.90 1079.49 1328.85 1077.89 1371.73 1079.97 L 1372.64 1080.00 L 1243.02 1080.00 L 1243.00 1079.00 Z" />
</g>
<g id="#8fbf7fff">
<path fill="#8fbf7f" fill-opacity="0" d=" M 1371.73 1079.97 C 1380.14 1079.47 1388.54 1079.10 1396.99 1078.94 L 1397.03 1080.00 L 1372.64 1080.00 L 1371.73 1079.97 Z" />
</g>
<g id="#bfdf7fff">
<path fill="#bfdf7f" fill-opacity="0" d=" M 1396.99 1078.94 C 1414.90 1078.73 1432.83 1078.90 1450.72 1079.97 L 1451.62 1080.00 L 1397.03 1080.00 L 1396.99 1078.94 Z" />
</g>
<g id="#7fdf00ff">
<path fill="#7fdf00" fill-opacity="0" d=" M 1450.72 1079.97 C 1457.80 1079.46 1464.86 1079.12 1472.00 1078.95 L 1472.01 1080.00 L 1451.62 1080.00 L 1450.72 1079.97 Z" />
</g>
<g id="#009f3ffe">
<path fill="#009f3f" fill-opacity="0" d=" M 1472.00 1078.95 C 1509.57 1079.45 1547.18 1077.97 1584.72 1079.97 L 1585.64 1080.00 L 1472.01 1080.00 L 1472.00 1078.95 Z" />
</g>
<g id="#7f9f3fff">
<path fill="#7f9f3f" fill-opacity="0" d=" M 1584.72 1079.97 C 1638.43 1077.73 1692.24 1079.62 1746.00 1079.00 L 1746.00 1080.00 L 1585.64 1080.00 L 1584.72 1079.97 Z" />
</g>
<g id="#bf1fbfff">
<path fill="#bf1fbf" fill-opacity="0" d=" M 1746.00 1079.00 C 1776.55 1079.36 1807.14 1078.15 1837.68 1079.74 L 1839.03 1080.00 L 1746.00 1080.00 L 1746.00 1079.00 Z" />
</g>
<g id="#3f9fbfff">
<path fill="#3f9fbf" fill-opacity="0" d=" M 1837.68 1079.74 C 1850.77 1079.12 1863.87 1078.84 1877.00 1078.97 L 1876.99 1080.00 L 1839.03 1080.00 L 1837.68 1079.74 Z" />
</g>
<g id="#bf9f7fff">
<path fill="#bf9f7f" fill-opacity="0" d=" M 1877.00 1078.97 C 1891.32 1079.00 1905.65 1079.00 1920.00 1079.00 L 1920.00 1080.00 L 1876.99 1080.00 L 1877.00 1078.97 Z" />
</g>
</svg>
