<?xml version="1.0" encoding="UTF-8" ?>
<!DOCTYPE svg PUBLIC "-//W3C//DTD SVG 1.1//EN" "http://www.w3.org/Graphics/SVG/1.1/DTD/svg11.dtd">
<svg width="1920pt" height="1080pt" viewBox="0 0 1920 1080" version="1.1" xmlns="http://www.w3.org/2000/svg">
<g id="#9f2f7fff">
<path fill="#9f2f7f" fill-opacity="0" d=" M 601.67 192.65 C 606.30 189.59 611.82 188.12 616.68 185.44 C 619.20 186.64 621.32 189.51 624.37 189.29 C 632.79 188.61 641.94 188.65 649.12 193.89 C 652.21 196.44 655.73 198.80 659.97 198.62 C 664.14 198.08 667.72 195.66 671.32 193.67 C 677.32 201.22 677.08 211.21 680.22 219.87 C 683.62 224.37 688.36 227.76 691.41 232.60 C 682.05 234.11 674.13 240.47 670.14 249.07 C 664.84 248.39 661.39 243.83 656.67 241.90 C 653.46 241.57 650.46 243.27 647.28 243.38 C 643.90 240.64 642.79 236.19 640.88 232.47 C 634.67 237.42 630.15 244.34 623.10 248.24 C 619.62 250.02 616.17 253.48 612.01 252.82 C 605.81 250.55 600.04 246.85 593.13 247.14 C 594.10 244.61 595.72 241.97 594.92 239.16 C 593.03 230.77 590.35 222.56 589.12 214.03 C 591.76 212.38 595.64 211.19 596.16 207.65 C 597.23 202.44 598.42 196.98 601.67 192.65 Z" />
</g>
<g id="#7faf3fff">
<path fill="#7faf3f" fill-opacity="0" d=" M 691.41 232.60 C 695.27 232.97 699.51 234.11 701.84 237.49 C 709.19 247.61 710.80 261.15 719.66 270.31 C 726.73 276.55 733.75 283.02 739.14 290.83 C 744.37 298.56 749.91 306.12 754.12 314.48 C 746.91 317.03 739.80 319.94 733.09 323.60 C 729.12 319.87 726.30 314.96 721.86 311.74 C 717.79 309.86 713.38 308.80 709.23 307.10 C 709.87 304.00 712.29 300.23 709.72 297.38 C 705.83 292.70 700.97 288.94 696.83 284.50 C 691.46 285.77 686.06 286.89 680.66 287.96 C 682.59 282.33 682.85 276.02 680.47 270.48 C 677.56 267.65 673.25 267.54 669.50 266.74 C 670.04 260.87 670.33 254.96 670.14 249.07 C 674.13 240.47 682.05 234.11 691.41 232.60 M 715.18 292.32 C 713.69 293.31 715.35 295.84 716.82 294.68 C 718.29 293.68 716.64 291.15 715.18 292.32 Z" />
</g>
<g id="#3faf3fff">
<path fill="#3faf3f" fill-opacity="0" d=" M 623.10 248.24 C 630.15 244.34 634.67 237.42 640.88 232.47 C 642.79 236.19 643.90 240.64 647.28 243.38 C 650.46 243.27 653.46 241.57 656.67 241.90 C 661.39 243.83 664.84 248.39 670.14 249.07 C 670.33 254.96 670.04 260.87 669.50 266.74 C 663.08 271.18 658.20 277.75 651.11 281.17 C 645.49 283.91 639.29 279.54 633.70 282.16 C 629.33 283.94 625.67 287.03 621.48 289.15 C 618.56 290.86 614.65 292.14 613.62 295.75 C 611.98 300.92 610.42 306.15 609.44 311.48 C 610.63 318.62 618.18 325.50 612.89 332.83 C 609.99 336.72 605.04 336.15 601.00 334.82 C 600.36 335.82 599.73 336.82 599.10 337.83 C 601.78 340.91 604.48 343.98 607.18 347.05 C 606.65 347.70 606.13 348.35 605.61 349.00 C 602.28 350.11 598.96 351.22 595.81 352.76 C 589.88 351.07 584.55 347.70 578.57 346.23 C 574.27 346.20 570.20 348.03 566.09 349.03 C 561.38 344.83 557.36 339.95 553.41 335.06 C 554.21 333.65 554.99 332.22 555.77 330.80 C 552.97 324.41 549.35 317.61 550.60 310.41 C 553.25 303.87 560.09 300.69 564.54 295.57 C 569.54 289.54 567.98 280.80 572.56 274.57 C 577.30 268.40 583.96 263.90 588.17 257.30 C 590.08 254.11 591.27 250.56 592.49 247.07 L 593.13 247.14 C 600.04 246.85 605.81 250.55 612.01 252.82 C 616.17 253.48 619.62 250.02 623.10 248.24 M 587.33 287.32 C 586.25 288.63 588.53 290.19 589.48 288.88 C 590.50 287.57 588.26 286.00 587.33 287.32 M 559.63 340.80 C 561.22 340.68 562.84 340.65 564.41 340.27 C 566.30 337.95 567.38 335.12 568.33 332.32 C 563.55 332.91 561.82 337.35 559.63 340.80 Z" />
</g>
<g id="#7fafbfff">
<path fill="#7fafbf" fill-opacity="0" d=" M 669.50 266.74 C 673.25 267.54 677.56 267.65 680.47 270.48 C 682.85 276.02 682.59 282.33 680.66 287.96 C 679.06 292.08 677.51 296.24 675.74 300.29 C 674.05 304.13 670.41 307.00 669.63 311.23 C 670.00 316.42 675.52 320.98 673.22 326.35 C 671.16 331.43 669.37 337.75 672.01 342.88 C 675.38 345.23 679.97 344.95 683.82 346.21 C 680.55 352.29 675.76 357.50 669.91 361.16 C 666.00 358.18 661.67 355.67 657.03 354.04 C 653.65 353.28 650.25 354.51 646.88 354.77 C 643.51 355.33 640.42 353.53 637.20 352.91 C 628.07 351.57 617.59 355.89 614.23 364.94 C 612.04 362.01 610.36 358.15 606.61 356.94 C 602.99 355.59 599.33 354.36 595.81 352.76 C 598.96 351.22 602.28 350.11 605.61 349.00 C 606.13 348.35 606.65 347.70 607.18 347.05 C 604.48 343.98 601.78 340.91 599.10 337.83 C 599.73 336.82 600.36 335.82 601.00 334.82 C 605.04 336.15 609.99 336.72 612.89 332.83 C 618.18 325.50 610.63 318.62 609.44 311.48 C 610.42 306.15 611.98 300.92 613.62 295.75 C 614.65 292.14 618.56 290.86 621.48 289.15 C 625.67 287.03 629.33 283.94 633.70 282.16 C 639.29 279.54 645.49 283.91 651.11 281.17 C 658.20 277.75 663.08 271.18 669.50 266.74 Z" />
</g>
<g id="#3f6f3ffe">
<path fill="#3f6f3f" fill-opacity="0" d=" M 680.66 287.96 C 686.06 286.89 691.46 285.77 696.83 284.50 C 700.97 288.94 705.83 292.70 709.72 297.38 C 712.29 300.23 709.87 304.00 709.23 307.10 C 713.38 308.80 717.79 309.86 721.86 311.74 C 726.30 314.96 729.12 319.87 733.09 323.60 C 730.62 325.54 728.49 327.87 726.32 330.13 C 730.37 331.94 736.22 332.46 737.64 337.49 C 738.48 341.41 741.46 346.11 739.01 350.00 C 736.36 354.04 732.35 356.90 728.91 360.19 C 729.73 363.37 730.20 366.62 730.41 369.89 C 721.80 370.44 714.67 365.21 706.62 363.23 C 700.87 362.15 695.75 358.59 689.94 358.02 C 685.48 361.09 682.13 365.45 677.76 368.63 C 675.28 366.00 672.81 363.34 669.91 361.16 C 675.76 357.50 680.55 352.29 683.82 346.21 C 679.97 344.95 675.38 345.23 672.01 342.88 C 669.37 337.75 671.16 331.43 673.22 326.35 C 675.52 320.98 670.00 316.42 669.63 311.23 C 670.41 307.00 674.05 304.13 675.74 300.29 C 677.51 296.24 679.06 292.08 680.66 287.96 Z" />
</g>
<g id="#bf2f3fff">
<path fill="#bf2f3f" fill-opacity="0" d=" M 587.33 287.32 C 588.26 286.00 590.50 287.57 589.48 288.88 C 588.53 290.19 586.25 288.63 587.33 287.32 Z" />
</g>
<g id="#00af3fff">
<path fill="#00af3f" fill-opacity="0" d=" M 715.18 292.32 C 716.64 291.15 718.29 293.68 716.82 294.68 C 715.35 295.84 713.69 293.31 715.18 292.32 Z" />
</g>
<g id="#1faf00ff">
<path fill="#1faf00" fill-opacity="0" d=" M 733.09 323.60 C 739.80 319.94 746.91 317.03 754.12 314.48 C 758.84 319.97 764.35 324.77 770.51 328.60 C 774.12 331.08 778.76 330.20 782.91 330.40 C 788.02 330.13 792.38 333.18 797.05 334.81 C 800.19 336.11 804.02 336.86 805.85 340.05 C 808.43 344.30 810.56 348.81 813.08 353.11 C 809.04 359.42 805.42 367.26 797.76 369.72 C 793.62 371.42 787.98 371.05 785.41 375.22 C 785.68 378.34 787.21 381.16 788.44 383.99 C 785.17 385.73 781.92 387.48 778.58 389.07 C 776.61 388.36 774.19 387.47 772.38 386.89 C 768.45 389.20 764.36 392.43 759.52 391.81 C 755.79 391.34 751.98 390.49 748.28 391.60 C 742.88 389.13 739.00 384.52 736.01 379.53 C 737.84 377.46 739.66 375.38 741.48 373.30 C 737.94 371.73 734.27 370.35 730.41 369.89 C 730.20 366.62 729.73 363.37 728.91 360.19 C 732.35 356.90 736.36 354.04 739.01 350.00 C 741.46 346.11 738.48 341.41 737.64 337.49 C 736.22 332.46 730.37 331.94 726.32 330.13 C 728.49 327.87 730.62 325.54 733.09 323.60 Z" />
</g>
<g id="#00ef3fff">
<path fill="#00ef3f" fill-opacity="0" d=" M 559.63 340.80 C 561.82 337.35 563.55 332.91 568.33 332.32 C 567.38 335.12 566.30 337.95 564.41 340.27 C 562.84 340.65 561.22 340.68 559.63 340.80 Z" />
</g>
<g id="#3f2fbfff">
<path fill="#3f2fbf" fill-opacity="0" d=" M 553.41 335.06 C 557.36 339.95 561.38 344.83 566.09 349.03 C 570.20 348.03 574.27 346.20 578.57 346.23 C 584.55 347.70 589.88 351.07 595.81 352.76 C 599.33 354.36 602.99 355.59 606.61 356.94 C 610.36 358.15 612.04 362.01 614.23 364.94 C 612.16 369.71 611.86 375.89 607.50 379.39 C 604.26 382.37 599.32 384.44 598.64 389.30 C 597.61 395.87 597.00 402.56 596.73 409.20 C 598.44 412.48 601.88 414.48 603.61 417.76 C 604.88 420.77 605.39 424.02 606.41 427.11 C 607.74 431.04 608.77 435.04 609.71 439.09 C 606.70 441.29 603.58 444.05 599.49 443.46 C 594.23 443.57 589.79 439.94 584.60 439.57 C 579.75 439.28 574.73 439.61 570.13 441.26 C 564.12 443.72 560.90 449.92 558.41 455.53 C 555.97 461.33 549.81 463.87 545.17 467.63 C 543.26 466.28 541.35 464.92 539.44 463.58 C 541.13 458.78 543.20 454.13 545.39 449.54 C 542.94 447.86 540.66 445.90 538.02 444.58 C 534.92 443.70 531.52 444.50 528.49 443.24 C 522.47 440.31 516.41 437.43 510.62 434.07 C 506.37 431.64 510.04 425.54 506.61 422.48 C 503.35 420.19 499.16 420.02 495.39 419.06 C 494.85 418.95 493.75 418.73 493.21 418.62 C 492.38 413.27 495.38 408.00 500.65 406.38 C 505.70 405.80 509.81 402.74 512.76 398.76 C 518.50 391.50 527.71 386.74 537.08 387.60 C 539.88 382.33 539.52 375.40 544.79 371.68 C 543.91 368.02 542.64 364.48 541.28 360.98 C 546.90 353.40 554.09 345.19 553.41 335.06 M 555.49 425.25 C 554.41 427.01 557.47 428.18 558.32 426.57 C 559.41 424.81 556.33 423.67 555.49 425.25 Z" />
</g>
<g id="#006f3fff">
<path fill="#006f3f" fill-opacity="0" d=" M 614.23 364.94 C 617.59 355.89 628.07 351.57 637.20 352.91 C 640.42 353.53 643.51 355.33 646.88 354.77 C 650.25 354.51 653.65 353.28 657.03 354.04 C 661.67 355.67 666.00 358.18 669.91 361.16 C 672.81 363.34 675.28 366.00 677.76 368.63 C 674.62 370.76 671.26 372.66 668.60 375.40 C 666.65 378.13 665.92 381.49 664.79 384.60 C 658.99 385.88 650.76 386.65 648.66 393.43 C 649.79 400.08 653.98 405.89 654.09 412.77 C 654.58 416.36 655.10 422.30 650.11 422.67 C 644.16 422.97 638.30 424.67 634.06 429.02 C 630.07 427.36 626.77 424.48 622.89 422.65 C 619.56 423.94 617.04 426.62 614.30 428.81 C 611.63 428.25 609.05 427.72 606.41 427.11 C 605.39 424.02 604.88 420.77 603.61 417.76 C 601.88 414.48 598.44 412.48 596.73 409.20 C 597.00 402.56 597.61 395.87 598.64 389.30 C 599.32 384.44 604.26 382.37 607.50 379.39 C 611.86 375.89 612.16 369.71 614.23 364.94 Z" />
</g>
<g id="#1faf7fff">
<path fill="#1faf7f" fill-opacity="0" d=" M 840.38 352.60 C 842.94 352.23 845.53 354.01 846.12 356.54 C 848.55 367.10 852.69 377.20 854.25 387.98 C 855.99 396.04 864.41 400.73 865.88 408.93 C 866.80 412.14 866.08 416.44 870.00 417.97 C 872.82 421.26 876.91 419.37 880.16 418.27 C 884.18 416.61 888.46 415.74 892.76 415.13 C 894.02 421.54 894.07 428.54 897.78 434.16 C 901.02 439.97 900.57 446.72 900.66 453.11 L 900.10 452.74 C 894.76 447.86 887.02 451.74 881.30 447.80 C 878.89 456.48 869.61 459.41 862.86 463.84 C 858.72 464.54 854.54 461.50 854.31 457.22 C 853.47 452.30 849.32 449.06 846.28 445.48 C 843.61 446.20 840.96 447.44 838.15 447.25 C 835.44 446.91 834.15 444.16 832.95 442.06 C 828.75 433.38 822.99 425.45 815.90 418.90 C 813.43 420.60 811.12 422.95 808.06 423.45 C 805.16 422.77 802.72 420.94 800.21 419.43 C 801.80 417.82 803.41 416.23 805.03 414.65 C 797.84 404.49 785.14 399.81 778.58 389.07 C 781.92 387.48 785.17 385.73 788.44 383.99 C 787.21 381.16 785.68 378.34 785.41 375.22 C 787.98 371.05 793.62 371.42 797.76 369.72 C 805.42 367.26 809.04 359.42 813.08 353.11 C 815.58 354.42 818.07 356.59 821.10 356.15 C 827.63 355.58 833.87 353.29 840.38 352.60 Z" />
</g>
<g id="#7fef3fff">
<path fill="#7fef3f" fill-opacity="0" d=" M 689.94 358.02 C 695.75 358.59 700.87 362.15 706.62 363.23 C 714.67 365.21 721.80 370.44 730.41 369.89 C 734.27 370.35 737.94 371.73 741.48 373.30 C 739.66 375.38 737.84 377.46 736.01 379.53 C 739.00 384.52 742.88 389.13 748.28 391.60 C 743.61 393.26 738.82 394.59 734.28 396.54 C 730.37 398.29 729.30 403.75 731.84 407.09 C 735.45 412.91 743.38 412.23 749.17 413.68 C 750.95 420.25 755.67 426.01 755.95 432.97 C 752.04 436.10 747.70 439.71 742.22 438.62 C 734.24 437.27 726.46 428.87 718.27 433.82 C 722.55 437.43 726.92 440.97 731.13 444.68 C 725.72 445.77 720.25 446.77 715.20 449.07 C 719.54 453.83 725.52 456.29 731.00 459.42 C 718.56 462.56 705.52 462.14 693.05 459.45 C 686.50 458.15 680.33 455.52 674.07 453.31 C 664.85 451.15 654.65 449.31 647.90 442.10 C 643.50 437.50 638.60 433.46 634.06 429.02 C 638.30 424.67 644.16 422.97 650.11 422.67 C 655.10 422.30 654.58 416.36 654.09 412.77 C 653.98 405.89 649.79 400.08 648.66 393.43 C 650.76 386.65 658.99 385.88 664.79 384.60 C 665.92 381.49 666.65 378.13 668.60 375.40 C 671.26 372.66 674.62 370.76 677.76 368.63 C 682.13 365.45 685.48 361.09 689.94 358.02 Z" />
</g>
<g id="#00afbfff">
<path fill="#00afbf" fill-opacity="0" d=" M 759.52 391.81 C 764.36 392.43 768.45 389.20 772.38 386.89 C 774.19 387.47 776.61 388.36 778.58 389.07 C 785.14 399.81 797.84 404.49 805.03 414.65 C 803.41 416.23 801.80 417.82 800.21 419.43 C 802.72 420.94 805.16 422.77 808.06 423.45 C 811.12 422.95 813.43 420.60 815.90 418.90 C 822.99 425.45 828.75 433.38 832.95 442.06 C 834.15 444.16 835.44 446.91 838.15 447.25 C 840.96 447.44 843.61 446.20 846.28 445.48 C 849.32 449.06 853.47 452.30 854.31 457.22 C 849.99 460.12 845.22 462.74 842.27 467.17 C 839.28 471.53 836.82 476.28 833.13 480.12 C 826.20 487.27 820.06 495.16 812.68 501.88 C 806.62 495.94 798.19 494.06 790.00 493.86 C 780.01 493.65 770.51 490.34 761.29 486.82 C 757.13 478.83 749.86 471.86 750.14 462.20 C 749.42 451.99 755.67 443.03 755.95 432.97 C 755.67 426.01 750.95 420.25 749.17 413.68 C 743.38 412.23 735.45 412.91 731.84 407.09 C 729.30 403.75 730.37 398.29 734.28 396.54 C 738.82 394.59 743.61 393.26 748.28 391.60 C 751.98 390.49 755.79 391.34 759.52 391.81 Z" />
</g>
<g id="#006fbfff">
<path fill="#006fbf" fill-opacity="0" d=" M 495.39 419.06 C 499.16 420.02 503.35 420.19 506.61 422.48 C 510.04 425.54 506.37 431.64 510.62 434.07 C 516.41 437.43 522.47 440.31 528.49 443.24 C 531.52 444.50 534.92 443.70 538.02 444.58 C 540.66 445.90 542.94 447.86 545.39 449.54 C 543.20 454.13 541.13 458.78 539.44 463.58 C 541.35 464.92 543.26 466.28 545.17 467.63 C 539.96 471.31 535.99 476.88 536.63 483.60 C 533.51 486.72 530.70 490.14 528.43 493.93 C 532.27 494.82 536.81 494.45 539.89 497.23 C 541.37 501.00 542.14 505.43 540.40 509.25 C 537.29 516.67 534.26 524.55 528.40 530.27 C 523.75 532.14 518.44 530.68 513.81 532.72 C 509.63 534.23 507.05 538.06 504.39 541.38 C 493.72 538.13 482.90 534.04 474.34 526.66 C 469.58 522.73 464.78 518.76 459.56 515.46 C 454.43 511.98 448.20 513.42 442.42 513.30 C 441.50 508.83 438.89 504.63 438.96 500.03 C 440.75 493.30 447.11 490.18 451.72 485.74 C 455.37 481.71 460.23 479.19 464.95 476.64 C 462.79 470.93 458.98 465.88 457.48 459.95 C 457.79 455.28 461.66 451.83 463.96 448.03 C 467.17 443.10 471.94 439.57 476.77 436.36 C 479.25 437.40 481.72 438.31 484.29 439.18 C 488.12 432.52 493.05 426.50 495.39 419.06 Z" />
</g>
<g id="#5f2f00ff">
<path fill="#5f2f00" fill-opacity="0" d=" M 614.30 428.81 C 617.04 426.62 619.56 423.94 622.89 422.65 C 626.77 424.48 630.07 427.36 634.06 429.02 C 638.60 433.46 643.50 437.50 647.90 442.10 C 654.65 449.31 664.85 451.15 674.07 453.31 C 680.33 455.52 686.50 458.15 693.05 459.45 C 694.50 463.06 696.93 467.75 693.60 471.10 C 691.00 473.22 687.78 474.45 684.99 476.31 C 688.38 479.18 691.62 482.22 694.60 485.53 C 700.25 485.98 705.94 486.46 711.60 486.95 C 712.98 492.02 715.24 496.77 717.21 501.63 C 713.04 501.17 708.80 500.40 704.61 500.73 C 701.85 502.88 700.01 505.92 697.92 508.66 C 690.02 509.55 682.42 512.01 674.80 514.16 C 671.31 515.61 667.15 516.51 664.70 519.61 C 662.37 523.69 662.94 529.00 659.70 532.67 C 656.72 536.52 651.92 538.08 647.43 539.37 C 645.08 539.53 642.49 539.85 640.37 538.61 C 635.83 535.14 635.75 527.19 629.62 525.74 C 620.65 523.39 610.96 522.08 604.05 515.21 C 605.54 509.56 608.71 503.84 606.62 497.90 C 606.08 495.61 604.81 493.54 604.43 491.21 C 607.73 488.74 611.87 487.90 615.79 486.90 C 616.82 488.82 617.88 490.73 618.88 492.68 C 620.56 492.26 622.24 491.84 623.92 491.44 C 625.51 484.73 627.55 478.08 628.32 471.21 C 628.64 464.88 626.28 458.85 625.05 452.73 C 627.52 450.54 629.91 448.27 632.03 445.73 C 628.16 444.76 624.34 443.14 620.32 443.04 C 617.24 443.97 614.96 446.44 612.42 448.28 C 611.39 445.25 610.46 442.19 609.71 439.09 C 608.77 435.04 607.74 431.04 606.41 427.11 C 609.05 427.72 611.63 428.25 614.30 428.81 Z" />
</g>
<g id="#bfaf3ffe">
<path fill="#bfaf3f" fill-opacity="0" d=" M 555.49 425.25 C 556.33 423.67 559.41 424.81 558.32 426.57 C 557.47 428.18 554.41 427.01 555.49 425.25 Z" />
</g>
<g id="#bfef3fff">
<path fill="#bfef3f" fill-opacity="0" d=" M 718.27 433.82 C 726.46 428.87 734.24 437.27 742.22 438.62 C 747.70 439.71 752.04 436.10 755.95 432.97 C 755.67 443.03 749.42 451.99 750.14 462.20 C 749.86 471.86 757.13 478.83 761.29 486.82 C 764.06 495.19 762.55 504.33 759.24 512.31 C 756.68 517.78 752.90 522.55 749.61 527.59 C 753.70 530.58 758.67 531.61 763.67 531.21 C 757.85 533.78 751.15 534.27 745.73 537.68 C 741.90 543.03 742.88 550.91 737.28 555.20 C 731.46 559.72 726.12 564.85 721.95 570.96 C 724.93 575.23 728.14 579.49 729.76 584.50 C 732.00 590.12 726.57 595.25 722.20 598.05 C 712.41 598.27 702.52 605.46 692.92 601.10 C 684.19 597.76 675.78 591.07 665.94 593.04 C 658.66 596.11 651.12 599.95 642.96 598.30 C 640.26 596.07 637.62 593.30 634.01 592.70 C 629.79 592.03 625.51 592.00 621.31 591.26 C 625.54 586.85 629.84 582.50 634.22 578.24 C 638.52 578.66 642.88 579.96 647.24 579.36 C 651.46 578.48 655.00 575.83 658.81 573.97 C 658.67 572.32 658.55 570.68 658.45 569.05 C 653.32 567.07 648.59 563.59 647.03 558.01 C 645.57 551.89 646.29 545.49 647.43 539.37 C 651.92 538.08 656.72 536.52 659.70 532.67 C 662.94 529.00 662.37 523.69 664.70 519.61 C 667.15 516.51 671.31 515.61 674.80 514.16 C 682.42 512.01 690.02 509.55 697.92 508.66 C 700.01 505.92 701.85 502.88 704.61 500.73 C 708.80 500.40 713.04 501.17 717.21 501.63 C 715.24 496.77 712.98 492.02 711.60 486.95 C 705.94 486.46 700.25 485.98 694.60 485.53 C 691.62 482.22 688.38 479.18 684.99 476.31 C 687.78 474.45 691.00 473.22 693.60 471.10 C 696.93 467.75 694.50 463.06 693.05 459.45 C 705.52 462.14 718.56 462.56 731.00 459.42 C 725.52 456.29 719.54 453.83 715.20 449.07 C 720.25 446.77 725.72 445.77 731.13 444.68 C 726.92 440.97 722.55 437.43 718.27 433.82 Z" />
</g>
<g id="#dfaf00ff">
<path fill="#dfaf00" fill-opacity="0" d=" M 570.13 441.26 C 574.73 439.61 579.75 439.28 584.60 439.57 C 589.79 439.94 594.23 443.57 599.49 443.46 C 603.58 444.05 606.70 441.29 609.71 439.09 C 610.46 442.19 611.39 445.25 612.42 448.28 C 614.96 446.44 617.24 443.97 620.32 443.04 C 624.34 443.14 628.16 444.76 632.03 445.73 C 629.91 448.27 627.52 450.54 625.05 452.73 C 626.28 458.85 628.64 464.88 628.32 471.21 C 627.55 478.08 625.51 484.73 623.92 491.44 C 622.24 491.84 620.56 492.26 618.88 492.68 C 617.88 490.73 616.82 488.82 615.79 486.90 C 611.87 487.90 607.73 488.74 604.43 491.21 C 604.81 493.54 606.08 495.61 606.62 497.90 C 608.71 503.84 605.54 509.56 604.05 515.21 C 602.23 522.96 597.79 531.81 602.55 539.37 C 605.16 543.20 606.44 548.90 602.11 552.10 C 596.84 556.80 590.29 551.93 584.38 552.76 C 576.67 555.66 570.97 562.60 563.03 565.00 C 555.61 563.84 552.99 556.12 548.83 550.89 C 546.11 547.79 542.88 544.69 538.74 543.77 C 534.68 543.37 530.81 545.12 526.81 545.45 C 519.09 546.45 511.62 543.69 504.39 541.38 C 507.05 538.06 509.63 534.23 513.81 532.72 C 518.44 530.68 523.75 532.14 528.40 530.27 C 534.26 524.55 537.29 516.67 540.40 509.25 C 542.14 505.43 541.37 501.00 539.89 497.23 C 536.81 494.45 532.27 494.82 528.43 493.93 C 530.70 490.14 533.51 486.72 536.63 483.60 C 535.99 476.88 539.96 471.31 545.17 467.63 C 549.81 463.87 555.97 461.33 558.41 455.53 C 560.90 449.92 564.12 443.72 570.13 441.26 Z" />
</g>
<g id="#bf6fbfff">
<path fill="#bf6fbf" fill-opacity="0" d=" M 862.86 463.84 C 869.61 459.41 878.89 456.48 881.30 447.80 C 887.02 451.74 894.76 447.86 900.10 452.74 C 904.64 455.75 906.58 460.81 907.04 465.99 C 907.31 470.76 910.60 474.40 913.79 477.62 C 913.66 480.81 913.58 484.05 913.28 487.25 C 918.83 488.82 924.71 489.43 929.87 492.23 C 934.51 494.18 939.29 497.97 944.62 496.17 C 951.47 493.23 954.80 485.71 959.64 480.45 C 961.99 488.39 961.25 497.52 956.55 504.45 C 952.10 506.32 946.47 503.14 942.23 506.10 C 937.95 509.04 932.64 512.36 933.28 518.27 C 930.32 520.47 927.35 523.36 923.43 523.42 C 917.74 523.71 911.94 522.18 906.34 523.73 C 900.84 525.28 897.96 532.47 891.63 531.38 C 883.83 525.47 875.38 518.12 873.60 507.91 C 869.49 509.78 865.52 511.99 861.46 513.95 C 857.67 515.57 853.37 515.07 849.47 516.22 C 846.04 517.49 842.84 519.25 839.68 521.05 C 837.24 518.92 834.46 516.97 831.09 516.77 C 827.21 518.29 824.25 521.56 820.27 522.88 C 817.31 521.22 814.99 518.66 812.49 516.42 C 814.18 512.08 814.69 507.30 813.16 502.83 L 812.68 501.88 C 820.06 495.16 826.20 487.27 833.13 480.12 C 836.82 476.28 839.28 471.53 842.27 467.17 C 845.22 462.74 849.99 460.12 854.31 457.22 C 854.54 461.50 858.72 464.54 862.86 463.84 Z" />
</g>
<g id="#5f2f7fff">
<path fill="#5f2f7f" fill-opacity="0" d=" M 976.35 446.63 C 986.24 449.56 991.65 460.45 1002.03 462.37 C 1005.83 461.70 1008.95 459.12 1012.36 457.47 C 1013.65 463.36 1013.72 469.39 1013.59 475.39 C 1013.23 478.48 1015.48 480.73 1016.91 483.19 C 1019.73 491.21 1020.82 499.80 1019.77 508.27 C 1019.39 513.68 1019.79 519.24 1018.24 524.50 C 1015.92 529.68 1013.15 534.64 1009.70 539.15 C 1004.92 536.14 1000.55 532.54 996.54 528.58 C 991.29 531.11 985.99 533.98 980.05 534.34 C 974.86 532.81 970.68 528.86 965.35 527.62 C 959.01 526.07 952.68 524.26 946.20 523.55 C 943.57 524.30 941.03 525.43 938.29 525.64 C 935.56 524.10 934.39 521.01 933.28 518.27 C 932.64 512.36 937.95 509.04 942.23 506.10 C 946.47 503.14 952.10 506.32 956.55 504.45 C 961.25 497.52 961.99 488.39 959.64 480.45 C 958.99 475.06 963.34 471.14 967.22 468.20 C 974.11 463.25 973.97 454.00 976.35 446.63 Z" />
</g>
<g id="#7fefbfff">
<path fill="#7fefbf" fill-opacity="0" d=" M 1350.61 476.86 C 1356.73 475.94 1361.50 471.67 1366.85 468.87 C 1368.64 471.15 1370.03 473.85 1372.38 475.64 C 1378.50 477.53 1383.83 470.44 1389.77 473.30 C 1392.54 474.31 1395.13 475.97 1398.10 476.40 C 1401.38 476.22 1404.94 473.69 1408.01 476.02 C 1412.51 478.75 1416.87 484.05 1422.67 482.16 C 1430.48 480.23 1441.89 475.32 1447.02 484.05 C 1449.81 490.64 1451.25 497.81 1452.86 504.77 C 1450.93 512.86 1445.36 519.50 1442.02 527.02 C 1439.35 532.68 1436.70 538.36 1433.74 543.88 C 1439.08 545.64 1444.31 547.96 1448.48 551.83 C 1446.32 555.48 1444.19 559.14 1442.13 562.84 C 1445.87 567.16 1449.41 571.96 1454.69 574.53 C 1455.56 572.37 1456.44 570.21 1457.31 568.06 C 1458.84 568.45 1460.38 568.85 1461.94 569.25 L 1462.26 570.01 C 1464.55 575.91 1468.68 580.85 1471.42 586.52 C 1472.87 589.45 1469.38 592.17 1466.71 592.48 C 1463.15 592.65 1459.86 590.91 1456.80 589.34 C 1449.75 585.29 1442.20 582.16 1435.57 577.43 C 1428.98 572.73 1421.16 569.24 1412.92 569.50 C 1409.34 569.15 1405.02 569.57 1402.33 566.73 C 1399.93 563.01 1400.82 557.80 1397.48 554.56 C 1392.94 550.36 1386.41 549.32 1381.05 546.64 C 1377.21 545.22 1373.57 542.69 1369.39 542.64 C 1359.31 545.61 1350.92 552.36 1343.11 559.15 C 1334.43 566.75 1335.87 580.00 1338.81 590.06 C 1338.07 592.00 1337.40 593.96 1336.72 595.93 C 1327.69 597.66 1318.72 601.06 1309.41 600.66 C 1302.81 599.51 1296.82 596.11 1291.30 592.48 C 1288.55 590.65 1285.83 588.80 1283.04 587.05 C 1281.17 589.56 1279.28 592.07 1277.03 594.25 C 1276.32 586.64 1277.44 579.00 1279.78 571.75 C 1276.26 568.54 1271.21 566.31 1269.47 561.60 C 1269.02 545.79 1274.91 530.70 1280.36 516.15 C 1286.07 504.02 1290.24 491.25 1294.36 478.51 C 1300.12 479.87 1305.80 477.94 1311.52 477.49 C 1315.47 481.96 1317.82 487.68 1321.88 492.08 C 1325.52 495.06 1329.95 496.83 1334.05 499.11 C 1336.66 493.07 1338.54 486.73 1341.45 480.82 C 1342.93 477.39 1347.79 477.97 1350.61 476.86 Z" />
</g>
<g id="#1f2f00ff">
<path fill="#1f2f00" fill-opacity="0" d=" M 761.29 486.82 C 770.51 490.34 780.01 493.65 790.00 493.86 C 798.19 494.06 806.62 495.94 812.68 501.88 L 813.16 502.83 C 810.54 505.84 807.93 509.29 803.99 510.57 C 801.36 511.16 798.63 510.60 795.98 510.59 C 796.90 516.24 799.82 521.23 803.36 525.64 C 801.14 528.58 798.59 531.36 797.06 534.75 C 796.27 537.81 797.20 540.98 797.56 544.05 C 793.68 547.37 788.50 550.95 790.02 557.03 C 790.14 563.75 795.34 568.79 799.82 573.19 C 806.36 579.15 809.10 587.97 811.65 596.13 C 812.62 600.56 808.83 604.18 805.61 606.57 C 800.62 609.73 794.67 607.73 789.21 608.12 C 783.44 609.81 778.64 614.14 772.71 615.34 C 768.03 614.84 763.97 611.92 759.34 611.11 C 752.21 611.50 745.38 613.88 739.04 617.03 C 735.81 618.69 731.80 619.23 728.49 617.49 C 723.91 615.13 721.20 610.38 718.94 605.98 C 717.41 602.92 720.39 600.19 722.20 598.05 C 726.57 595.25 732.00 590.12 729.76 584.50 C 728.14 579.49 724.93 575.23 721.95 570.96 C 726.12 564.85 731.46 559.72 737.28 555.20 C 742.88 550.91 741.90 543.03 745.73 537.68 C 751.15 534.27 757.85 533.78 763.67 531.21 C 758.67 531.61 753.70 530.58 749.61 527.59 C 752.90 522.55 756.68 517.78 759.24 512.31 C 762.55 504.33 764.06 495.19 761.29 486.82 Z" />
</g>
<g id="#9faf00ff">
<path fill="#9faf00" fill-opacity="0" d=" M 803.99 510.57 C 807.93 509.29 810.54 505.84 813.16 502.83 C 814.69 507.30 814.18 512.08 812.49 516.42 C 814.99 518.66 817.31 521.22 820.27 522.88 C 824.25 521.56 827.21 518.29 831.09 516.77 C 834.46 516.97 837.24 518.92 839.68 521.05 C 842.84 519.25 846.04 517.49 849.47 516.22 C 853.37 515.07 857.67 515.57 861.46 513.95 C 865.52 511.99 869.49 509.78 873.60 507.91 C 875.38 518.12 883.83 525.47 891.63 531.38 C 897.96 532.47 900.84 525.28 906.34 523.73 C 911.94 522.18 917.74 523.71 923.43 523.42 C 927.35 523.36 930.32 520.47 933.28 518.27 C 934.39 521.01 935.56 524.10 938.29 525.64 C 941.03 525.43 943.57 524.30 946.20 523.55 C 952.71 529.01 960.16 534.22 963.71 542.21 C 963.76 546.12 959.76 548.76 958.14 552.02 C 954.56 556.49 952.49 561.90 949.05 566.45 C 947.83 566.39 946.65 566.35 945.46 566.31 C 942.49 563.97 940.51 559.90 936.61 559.12 C 934.84 560.98 933.45 563.15 931.98 565.24 C 927.59 565.58 923.10 565.73 918.85 566.94 C 912.50 569.55 908.83 576.30 902.51 578.96 C 896.27 580.27 889.79 579.68 883.48 580.40 C 876.34 571.99 865.51 568.68 855.34 565.61 C 851.05 564.50 850.07 559.12 850.35 555.32 C 854.05 550.67 860.08 548.85 864.89 545.60 C 861.57 544.05 858.03 541.19 854.17 542.51 C 851.85 542.97 849.29 544.37 847.02 542.98 C 841.19 539.81 839.00 532.40 832.84 529.69 C 826.53 528.17 820.96 533.02 815.03 534.07 C 810.09 533.27 806.36 529.37 803.36 525.64 C 799.82 521.23 796.90 516.24 795.98 510.59 C 798.63 510.60 801.36 511.16 803.99 510.57 Z" />
</g>
<g id="#9f2f00ff">
<path fill="#9f2f00" fill-opacity="0" d=" M 442.42 513.30 C 448.20 513.42 454.43 511.98 459.56 515.46 C 464.78 518.76 469.58 522.73 474.34 526.66 C 482.90 534.04 493.72 538.13 504.39 541.38 C 511.62 543.69 519.09 546.45 526.81 545.45 C 530.81 545.12 534.68 543.37 538.74 543.77 C 542.88 544.69 546.11 547.79 548.83 550.89 C 542.33 565.12 536.15 580.28 536.80 596.19 C 536.61 603.37 535.32 610.88 538.30 617.68 C 541.93 625.96 546.61 633.79 549.56 642.37 C 552.66 651.72 557.42 660.38 561.75 669.19 C 567.56 681.21 573.51 693.16 579.47 705.11 C 574.94 706.96 570.02 706.46 565.26 706.31 C 561.53 708.77 558.11 712.97 552.99 711.67 C 546.39 712.05 539.77 710.80 533.20 711.33 C 529.11 713.69 525.78 717.19 522.75 720.77 C 520.08 723.88 520.70 728.19 520.43 732.02 C 514.35 735.33 508.18 738.56 501.52 740.58 C 500.43 738.21 499.35 735.86 498.27 733.51 C 492.55 736.70 486.40 740.78 479.54 739.75 C 475.98 738.74 471.58 739.85 468.48 737.53 C 460.96 728.08 456.08 716.57 447.43 708.05 C 441.70 705.22 434.74 705.20 429.45 701.54 C 418.15 686.35 408.60 669.93 397.28 654.76 C 386.67 638.73 375.59 623.00 364.89 607.03 C 361.91 602.10 361.84 596.03 359.10 590.97 C 360.93 588.02 362.05 584.36 365.08 582.37 C 376.34 574.94 387.56 567.31 399.96 561.87 C 414.47 554.21 428.38 544.63 438.81 531.78 C 443.16 526.74 442.28 519.44 442.42 513.30 Z" />
</g>
<g id="#5faf00ff">
<path fill="#5faf00" fill-opacity="0" d=" M 604.05 515.21 C 610.96 522.08 620.65 523.39 629.62 525.74 C 635.75 527.19 635.83 535.14 640.37 538.61 C 642.49 539.85 645.08 539.53 647.43 539.37 C 646.29 545.49 645.57 551.89 647.03 558.01 C 648.59 563.59 653.32 567.07 658.45 569.05 C 658.55 570.68 658.67 572.32 658.81 573.97 C 655.00 575.83 651.46 578.48 647.24 579.36 C 642.88 579.96 638.52 578.66 634.22 578.24 C 629.84 582.50 625.54 586.85 621.31 591.26 C 625.51 592.00 629.79 592.03 634.01 592.70 C 637.62 593.30 640.26 596.07 642.96 598.30 C 640.24 602.73 637.47 607.15 634.35 611.32 C 631.42 610.87 627.96 609.07 625.29 611.19 C 622.29 613.60 619.96 616.79 618.16 620.17 C 615.55 624.95 616.08 630.57 614.92 635.76 C 613.97 639.69 610.74 642.48 608.50 645.68 C 612.81 657.12 618.34 668.04 622.72 679.46 C 631.61 701.88 641.57 723.85 650.83 746.12 C 649.33 746.22 647.84 746.30 646.36 746.37 C 646.39 746.90 646.46 747.97 646.49 748.51 C 644.06 747.47 641.74 746.20 639.52 744.78 C 638.25 745.41 636.96 746.01 635.69 746.64 C 631.00 739.60 621.28 740.73 614.21 742.16 C 614.13 742.64 613.97 743.58 613.90 744.06 C 609.32 743.99 604.70 745.99 600.21 744.38 C 597.81 743.69 597.18 740.86 595.94 739.05 C 590.13 727.89 585.01 716.40 579.47 705.11 C 573.51 693.16 567.56 681.21 561.75 669.19 C 557.42 660.38 552.66 651.72 549.56 642.37 C 546.61 633.79 541.93 625.96 538.30 617.68 C 535.32 610.88 536.61 603.37 536.80 596.19 C 536.15 580.28 542.33 565.12 548.83 550.89 C 552.99 556.12 555.61 563.84 563.03 565.00 C 570.97 562.60 576.67 555.66 584.38 552.76 C 590.29 551.93 596.84 556.80 602.11 552.10 C 606.44 548.90 605.16 543.20 602.55 539.37 C 597.79 531.81 602.23 522.96 604.05 515.21 Z" />
</g>
<g id="#1f2f7fff">
<path fill="#1f2f7f" fill-opacity="0" d=" M 946.20 523.55 C 952.68 524.26 959.01 526.07 965.35 527.62 C 970.68 528.86 974.86 532.81 980.05 534.34 C 985.99 533.98 991.29 531.11 996.54 528.58 C 1000.55 532.54 1004.92 536.14 1009.70 539.15 C 1013.15 534.64 1015.92 529.68 1018.24 524.50 C 1024.97 527.35 1030.43 532.45 1036.14 536.89 C 1040.38 542.61 1046.29 547.21 1048.80 554.08 C 1050.84 559.74 1054.81 564.40 1057.25 569.86 C 1058.62 577.42 1055.57 585.01 1055.99 592.60 C 1059.31 600.59 1063.18 608.58 1069.48 614.70 C 1069.01 620.79 1068.70 626.90 1068.11 632.99 C 1067.42 637.84 1066.66 643.17 1062.68 646.50 C 1059.49 647.38 1056.15 648.64 1052.82 647.96 C 1047.35 646.44 1042.10 644.31 1036.78 642.39 C 1038.28 639.71 1039.83 637.07 1041.32 634.40 C 1034.68 631.18 1028.27 627.26 1023.80 621.26 C 1022.89 621.39 1022.00 621.52 1021.11 621.66 C 1017.43 626.25 1012.87 629.91 1007.99 633.12 C 1004.05 635.50 1003.65 640.42 1002.78 644.48 C 994.68 644.16 991.19 635.92 984.65 632.49 C 980.27 629.84 974.97 628.07 972.42 623.32 C 967.89 615.17 958.07 613.00 951.26 607.36 C 955.05 604.47 959.31 602.21 964.06 601.30 C 959.51 596.07 953.63 592.10 949.48 586.53 C 945.52 580.55 946.82 572.80 949.05 566.45 C 952.49 561.90 954.56 556.49 958.14 552.02 C 959.76 548.76 963.76 546.12 963.71 542.21 C 960.16 534.22 952.71 529.01 946.20 523.55 Z" />
</g>
<g id="#bfefbfff">
<path fill="#bfefbf" fill-opacity="0" d=" M 803.36 525.64 C 806.36 529.37 810.09 533.27 815.03 534.07 C 820.96 533.02 826.53 528.17 832.84 529.69 C 839.00 532.40 841.19 539.81 847.02 542.98 C 849.29 544.37 851.85 542.97 854.17 542.51 C 858.03 541.19 861.57 544.05 864.89 545.60 C 860.08 548.85 854.05 550.67 850.35 555.32 C 850.07 559.12 851.05 564.50 855.34 565.61 C 865.51 568.68 876.34 571.99 883.48 580.40 C 889.79 579.68 896.27 580.27 902.51 578.96 C 908.83 576.30 912.50 569.55 918.85 566.94 C 923.10 565.73 927.59 565.58 931.98 565.24 C 933.45 563.15 934.84 560.98 936.61 559.12 C 940.51 559.90 942.49 563.97 945.46 566.31 C 946.65 566.35 947.83 566.39 949.05 566.45 C 946.82 572.80 945.52 580.55 949.48 586.53 C 953.63 592.10 959.51 596.07 964.06 601.30 C 959.31 602.21 955.05 604.47 951.26 607.36 C 947.23 610.86 941.61 608.99 937.14 611.17 C 932.84 615.18 935.35 620.78 938.80 624.17 C 944.21 629.51 949.22 635.21 954.04 641.09 C 952.91 642.99 951.78 644.89 950.67 646.80 C 946.01 646.18 941.24 643.81 936.49 645.02 C 929.07 648.87 923.48 655.24 917.03 660.41 L 916.56 659.98 C 913.06 656.55 909.88 652.84 906.39 649.43 C 901.56 650.58 896.71 651.64 891.77 652.03 C 887.49 652.39 883.90 654.99 880.36 657.16 C 878.41 651.54 880.66 645.51 878.61 639.89 C 873.91 641.83 869.57 644.46 865.04 646.72 C 859.80 649.13 853.19 647.60 848.61 651.55 C 842.90 656.96 840.83 664.84 837.46 671.67 C 834.30 677.38 831.02 683.05 827.31 688.42 C 823.38 693.84 815.81 693.47 809.79 693.65 C 799.14 693.21 788.20 694.03 777.89 690.91 C 773.62 687.62 772.01 681.90 768.10 678.17 C 770.92 672.62 770.67 666.26 771.39 660.24 C 771.74 654.16 773.18 647.85 771.03 641.94 C 768.54 634.32 763.47 627.96 760.09 620.77 C 758.55 617.77 759.09 614.32 759.34 611.11 C 763.97 611.92 768.03 614.84 772.71 615.34 C 778.64 614.14 783.44 609.81 789.21 608.12 C 794.67 607.73 800.62 609.73 805.61 606.57 C 808.83 604.18 812.62 600.56 811.65 596.13 C 809.10 587.97 806.36 579.15 799.82 573.19 C 795.34 568.79 790.14 563.75 790.02 557.03 C 788.50 550.95 793.68 547.37 797.56 544.05 C 797.20 540.98 796.27 537.81 797.06 534.75 C 798.59 531.36 801.14 528.58 803.36 525.64 M 860.18 589.61 C 857.42 595.81 849.62 601.33 852.08 608.85 C 853.65 615.41 855.54 621.89 857.18 628.44 C 860.19 628.47 863.82 628.60 865.71 625.74 C 875.03 613.97 883.92 601.86 893.20 590.05 C 888.30 588.90 883.61 587.03 878.72 585.92 C 872.35 585.85 866.45 588.78 860.18 589.61 Z" />
</g>
<g id="#002fbfff">
<path fill="#002fbf" fill-opacity="0" d=" M 1369.39 542.64 C 1373.57 542.69 1377.21 545.22 1381.05 546.64 C 1386.41 549.32 1392.94 550.36 1397.48 554.56 C 1400.82 557.80 1399.93 563.01 1402.33 566.73 C 1405.02 569.57 1409.34 569.15 1412.92 569.50 C 1421.16 569.24 1428.98 572.73 1435.57 577.43 C 1442.20 582.16 1449.75 585.29 1456.80 589.34 C 1459.86 590.91 1463.15 592.65 1466.71 592.48 C 1469.38 592.17 1472.87 589.45 1471.42 586.52 C 1468.68 580.85 1464.55 575.91 1462.26 570.01 C 1470.91 573.63 1478.44 579.82 1487.64 582.18 C 1492.32 583.20 1497.13 583.74 1501.80 584.95 C 1498.97 592.07 1494.68 598.48 1490.85 605.08 C 1497.25 608.85 1503.31 614.07 1510.96 615.03 C 1524.82 616.91 1538.81 614.55 1552.75 614.92 C 1554.01 624.05 1559.17 632.10 1566.53 637.52 C 1569.51 640.73 1574.05 640.86 1578.17 640.59 C 1573.66 644.11 1568.87 647.26 1564.55 651.00 C 1563.02 652.64 1560.64 654.76 1561.84 657.22 C 1565.73 666.74 1576.06 672.77 1577.96 683.19 C 1579.81 691.26 1569.31 694.05 1563.78 696.60 C 1561.00 692.03 1559.40 686.13 1554.53 683.32 C 1548.62 683.46 1543.28 686.08 1537.95 688.29 C 1539.55 692.61 1542.39 696.55 1543.35 701.12 C 1530.47 707.03 1516.11 709.32 1503.78 716.61 C 1499.08 718.02 1494.04 717.61 1489.21 717.45 C 1483.51 716.65 1477.77 716.11 1472.09 715.23 C 1467.37 714.54 1465.56 709.30 1462.62 706.28 C 1457.92 699.88 1450.94 695.08 1442.95 694.13 C 1438.22 693.96 1436.29 688.86 1432.35 687.23 C 1428.56 686.28 1427.12 690.89 1424.80 693.00 C 1422.60 696.28 1416.73 695.29 1415.77 691.46 C 1414.86 688.63 1414.25 685.90 1413.90 683.01 C 1414.58 680.50 1415.10 677.95 1415.57 675.39 C 1406.25 671.39 1397.31 666.50 1388.82 660.99 C 1383.43 655.35 1380.41 647.90 1376.96 641.01 C 1373.82 634.27 1371.02 627.18 1370.51 619.69 C 1370.19 612.09 1377.74 606.49 1377.21 598.93 C 1374.94 594.45 1370.77 590.37 1365.66 589.53 C 1359.69 589.36 1354.61 593.34 1348.81 594.07 C 1345.11 593.62 1342.78 586.51 1338.81 590.06 C 1335.87 580.00 1334.43 566.75 1343.11 559.15 C 1350.92 552.36 1359.31 545.61 1369.39 542.64 Z" />
</g>
<g id="#00efbfff">
<path fill="#00efbf" fill-opacity="0" d=" M 1170.81 588.62 C 1171.46 585.35 1175.00 584.46 1177.52 583.00 C 1179.73 584.83 1181.81 586.95 1184.44 588.19 C 1189.07 588.39 1193.89 586.78 1198.45 588.36 C 1206.06 590.76 1213.92 592.31 1221.51 594.65 C 1226.03 598.32 1230.56 602.45 1233.20 607.73 C 1236.65 615.29 1234.92 623.58 1233.39 631.36 C 1231.98 638.50 1237.23 644.93 1236.51 651.94 C 1234.57 656.24 1230.99 659.59 1228.44 663.54 C 1224.05 669.29 1225.95 677.24 1222.24 683.31 C 1218.08 690.83 1207.94 690.39 1202.68 696.71 C 1199.76 699.58 1198.84 705.05 1201.63 708.33 C 1203.11 710.23 1204.91 711.85 1206.63 713.55 C 1196.25 745.17 1185.92 776.82 1175.81 808.53 C 1172.80 809.21 1169.70 809.25 1166.68 808.74 C 1163.78 818.06 1161.11 827.47 1157.45 836.53 C 1156.00 837.95 1154.13 838.79 1152.42 839.81 C 1151.81 838.29 1151.24 836.80 1150.67 835.30 C 1144.48 836.71 1137.69 838.49 1135.08 844.90 C 1131.38 844.96 1127.50 845.72 1123.85 844.98 C 1120.83 843.55 1117.97 841.71 1115.53 839.47 C 1112.20 836.24 1111.79 831.33 1109.36 827.56 C 1106.72 824.84 1103.04 823.40 1100.52 820.59 C 1098.80 818.19 1097.92 815.33 1096.73 812.68 C 1092.23 814.41 1087.98 816.86 1083.29 817.97 C 1079.23 818.38 1075.21 816.82 1071.17 817.05 C 1068.35 817.54 1065.64 818.52 1062.86 819.17 L 1063.09 817.92 C 1068.27 790.17 1071.91 762.16 1076.51 734.32 C 1078.57 726.40 1074.11 718.72 1074.94 710.90 C 1080.27 701.34 1093.15 702.66 1100.37 695.39 C 1102.07 693.52 1105.67 690.97 1103.94 688.04 C 1101.65 683.09 1097.26 679.30 1095.77 673.96 C 1094.42 669.10 1093.78 663.99 1091.70 659.38 C 1087.33 655.41 1081.84 652.93 1076.54 650.47 C 1072.08 648.38 1067.29 650.41 1062.94 651.69 C 1062.84 649.95 1062.75 648.22 1062.68 646.50 C 1066.66 643.17 1067.42 637.84 1068.11 632.99 C 1069.47 633.25 1070.84 633.52 1072.22 633.80 C 1073.81 625.38 1074.37 616.82 1075.47 608.36 C 1077.50 605.85 1080.96 602.66 1084.34 604.49 C 1092.18 607.21 1098.68 612.70 1104.79 618.13 C 1110.18 623.40 1111.23 633.06 1119.17 635.55 C 1126.16 632.38 1135.58 628.38 1137.03 619.73 C 1138.71 615.79 1137.83 606.76 1144.32 607.26 C 1148.73 608.71 1151.17 614.43 1156.85 613.05 C 1166.89 608.86 1168.10 597.66 1170.81 588.62 M 1126.86 651.86 C 1126.97 652.79 1127.20 654.65 1127.31 655.58 C 1128.40 654.50 1129.49 653.40 1130.58 652.31 C 1129.65 652.20 1127.79 651.97 1126.86 651.86 M 1161.42 662.31 C 1162.48 663.40 1163.58 664.50 1164.69 665.58 C 1164.80 664.65 1165.03 662.79 1165.14 661.86 C 1164.21 661.97 1162.35 662.20 1161.42 662.31 Z" />
</g>
<g id="#3fefbfff">
<path fill="#3fefbf" fill-opacity="0" d=" M 860.18 589.61 C 866.45 588.78 872.35 585.85 878.72 585.92 C 883.61 587.03 888.30 588.90 893.20 590.05 C 883.92 601.86 875.03 613.97 865.71 625.74 C 863.82 628.60 860.19 628.47 857.18 628.44 C 855.54 621.89 853.65 615.41 852.08 608.85 C 849.62 601.33 857.42 595.81 860.18 589.61 Z" />
</g>
<g id="#bfafbfff">
<path fill="#bfafbf" fill-opacity="0" d=" M 1283.04 587.05 C 1285.83 588.80 1288.55 590.65 1291.30 592.48 C 1291.49 598.32 1290.22 604.66 1292.90 610.07 C 1295.98 615.62 1304.20 613.11 1307.48 618.57 C 1312.32 625.73 1311.46 635.07 1313.00 643.29 C 1308.83 642.83 1304.36 641.77 1300.31 643.24 C 1296.68 650.09 1301.26 657.76 1303.88 664.08 C 1305.39 668.37 1307.97 673.69 1304.87 677.83 C 1299.88 683.82 1290.63 683.69 1285.47 689.44 C 1281.86 695.38 1281.28 702.96 1276.36 708.20 C 1270.15 712.54 1260.69 713.82 1257.57 721.67 C 1246.84 748.05 1237.10 774.84 1225.99 801.07 C 1224.89 803.73 1223.92 806.45 1223.28 809.26 C 1221.29 806.01 1219.56 802.61 1217.69 799.31 C 1215.64 800.30 1213.44 801.13 1211.75 802.68 C 1209.71 805.14 1208.89 808.40 1206.78 810.81 C 1203.72 813.19 1199.56 813.46 1196.01 814.51 C 1195.52 811.58 1195.08 808.67 1194.67 805.78 C 1191.30 807.82 1188.21 810.36 1184.62 811.98 C 1181.24 812.71 1178.25 810.58 1175.81 808.53 C 1185.92 776.82 1196.25 745.17 1206.63 713.55 C 1204.91 711.85 1203.11 710.23 1201.63 708.33 C 1198.84 705.05 1199.76 699.58 1202.68 696.71 C 1207.94 690.39 1218.08 690.83 1222.24 683.31 C 1225.95 677.24 1224.05 669.29 1228.44 663.54 C 1230.99 659.59 1234.57 656.24 1236.51 651.94 C 1237.23 644.93 1231.98 638.50 1233.39 631.36 C 1234.92 623.58 1236.65 615.29 1233.20 607.73 C 1245.44 610.16 1252.82 597.07 1264.58 596.90 C 1268.70 596.01 1273.45 596.76 1277.03 594.25 C 1279.28 592.07 1281.17 589.56 1283.04 587.05 M 1263.27 649.48 C 1261.82 650.77 1263.99 653.17 1265.41 651.82 C 1266.75 650.56 1264.64 648.16 1263.27 649.48 M 1233.04 678.03 C 1234.55 682.59 1235.79 687.19 1237.12 691.83 C 1238.49 691.03 1239.86 690.25 1241.27 689.48 C 1245.03 693.76 1247.36 698.98 1249.19 704.33 C 1256.00 703.85 1262.87 703.07 1269.68 704.22 C 1273.53 704.66 1275.91 700.71 1278.72 698.72 C 1275.70 695.25 1272.35 692.10 1268.85 689.13 C 1259.45 679.80 1244.80 681.89 1233.04 678.03 Z" />
</g>
<g id="#3fef3ffe">
<path fill="#3fef3f" fill-opacity="0" d=" M 1338.81 590.06 C 1342.78 586.51 1345.11 593.62 1348.81 594.07 C 1354.61 593.34 1359.69 589.36 1365.66 589.53 C 1370.77 590.37 1374.94 594.45 1377.21 598.93 C 1377.74 606.49 1370.19 612.09 1370.51 619.69 C 1371.02 627.18 1373.82 634.27 1376.96 641.01 C 1380.41 647.90 1383.43 655.35 1388.82 660.99 C 1397.31 666.50 1406.25 671.39 1415.57 675.39 C 1415.10 677.95 1414.58 680.50 1413.90 683.01 C 1410.92 686.97 1407.35 690.54 1404.97 694.92 C 1402.51 699.41 1403.51 704.88 1401.31 709.42 C 1397.58 712.80 1393.50 715.76 1389.08 718.15 C 1386.76 719.39 1384.41 720.59 1382.11 721.82 C 1377.42 721.35 1372.06 718.52 1367.57 721.35 C 1360.69 724.64 1360.59 734.33 1353.64 737.50 C 1344.94 737.09 1337.50 729.95 1328.54 730.87 C 1322.28 732.19 1316.54 735.19 1310.44 737.03 C 1303.58 738.94 1296.38 738.26 1289.38 738.89 C 1276.78 767.26 1264.29 795.68 1251.48 823.96 C 1249.02 820.35 1247.21 816.00 1243.64 813.42 C 1237.12 811.01 1230.16 812.98 1223.48 813.35 C 1223.36 811.98 1223.23 810.62 1223.28 809.26 C 1223.92 806.45 1224.89 803.73 1225.99 801.07 C 1237.10 774.84 1246.84 748.05 1257.57 721.67 C 1260.69 713.82 1270.15 712.54 1276.36 708.20 C 1281.28 702.96 1281.86 695.38 1285.47 689.44 C 1290.63 683.69 1299.88 683.82 1304.87 677.83 C 1307.97 673.69 1305.39 668.37 1303.88 664.08 C 1301.26 657.76 1296.68 650.09 1300.31 643.24 C 1304.36 641.77 1308.83 642.83 1313.00 643.29 C 1311.46 635.07 1312.32 625.73 1307.48 618.57 C 1304.20 613.11 1295.98 615.62 1292.90 610.07 C 1290.22 604.66 1291.49 598.32 1291.30 592.48 C 1296.82 596.11 1302.81 599.51 1309.41 600.66 C 1318.72 601.06 1327.69 597.66 1336.72 595.93 C 1337.40 593.96 1338.07 592.00 1338.81 590.06 Z" />
</g>
<g id="#7f6f3fff">
<path fill="#7f6f3f" fill-opacity="0" d=" M 665.94 593.04 C 675.78 591.07 684.19 597.76 692.92 601.10 C 702.52 605.46 712.41 598.27 722.20 598.05 C 720.39 600.19 717.41 602.92 718.94 605.98 C 721.20 610.38 723.91 615.13 728.49 617.49 C 731.80 619.23 735.81 618.69 739.04 617.03 C 745.38 613.88 752.21 611.50 759.34 611.11 C 759.09 614.32 758.55 617.77 760.09 620.77 C 763.47 627.96 768.54 634.32 771.03 641.94 C 773.18 647.85 771.74 654.16 771.39 660.24 C 770.67 666.26 770.92 672.62 768.10 678.17 C 764.77 678.62 761.32 678.91 758.26 680.39 C 749.75 683.51 747.30 693.37 739.20 697.18 C 737.69 695.08 736.23 692.92 734.43 691.07 C 727.80 694.59 723.97 703.04 725.72 710.31 C 735.04 740.19 743.15 770.48 753.34 800.11 C 748.35 798.45 743.86 795.32 738.62 794.55 C 730.30 793.72 721.87 791.10 715.54 785.46 C 708.29 776.97 707.63 765.18 702.12 755.78 C 698.43 751.51 694.31 747.54 689.99 743.93 C 686.76 741.05 682.34 743.36 679.17 745.08 C 674.71 742.69 669.77 741.46 665.04 739.73 C 665.29 741.58 665.57 743.44 665.86 745.30 C 660.81 744.59 655.60 743.61 650.83 746.12 C 641.57 723.85 631.61 701.88 622.72 679.46 C 618.34 668.04 612.81 657.12 608.50 645.68 C 610.74 642.48 613.97 639.69 614.92 635.76 C 616.08 630.57 615.55 624.95 618.16 620.17 C 619.96 616.79 622.29 613.60 625.29 611.19 C 627.96 609.07 631.42 610.87 634.35 611.32 C 637.47 607.15 640.24 602.73 642.96 598.30 C 651.12 599.95 658.66 596.11 665.94 593.04 Z" />
</g>
<g id="#3f2f3fff">
<path fill="#3f2f3f" fill-opacity="0" d=" M 937.14 611.17 C 941.61 608.99 947.23 610.86 951.26 607.36 C 958.07 613.00 967.89 615.17 972.42 623.32 C 974.97 628.07 980.27 629.84 984.65 632.49 C 991.19 635.92 994.68 644.16 1002.78 644.48 C 1003.65 640.42 1004.05 635.50 1007.99 633.12 C 1012.87 629.91 1017.43 626.25 1021.11 621.66 C 1022.00 621.52 1022.89 621.39 1023.80 621.26 C 1028.27 627.26 1034.68 631.18 1041.32 634.40 C 1039.83 637.07 1038.28 639.71 1036.78 642.39 C 1042.10 644.31 1047.35 646.44 1052.82 647.96 C 1056.15 648.64 1059.49 647.38 1062.68 646.50 C 1062.75 648.22 1062.84 649.95 1062.94 651.69 C 1067.29 650.41 1072.08 648.38 1076.54 650.47 C 1081.84 652.93 1087.33 655.41 1091.70 659.38 C 1093.78 663.99 1094.42 669.10 1095.77 673.96 C 1097.26 679.30 1101.65 683.09 1103.94 688.04 C 1105.67 690.97 1102.07 693.52 1100.37 695.39 C 1093.15 702.66 1080.27 701.34 1074.94 710.90 C 1074.11 718.72 1078.57 726.40 1076.51 734.32 C 1071.91 762.16 1068.27 790.17 1063.09 817.92 C 1059.36 816.22 1055.27 815.74 1051.24 815.45 C 1050.58 820.24 1049.93 825.06 1049.13 829.85 C 1044.84 829.34 1040.51 829.03 1036.20 829.06 C 1033.79 826.81 1031.51 824.56 1029.01 822.49 C 1031.73 800.79 1034.25 779.07 1036.42 757.32 C 1037.79 746.68 1036.91 735.40 1041.55 725.46 C 1043.48 720.87 1046.67 714.79 1042.51 710.44 C 1034.77 707.21 1026.75 716.02 1019.10 711.89 C 1011.18 708.01 1001.93 706.79 995.21 700.74 C 990.33 696.25 983.97 702.46 978.58 700.42 C 970.72 694.96 969.64 684.28 963.39 677.48 C 959.02 672.47 950.72 674.19 947.70 679.67 C 944.59 685.49 943.08 692.15 938.73 697.30 C 935.89 694.16 933.11 690.84 931.46 686.90 C 929.80 682.17 929.88 676.99 928.00 672.33 C 925.60 667.33 920.93 664.12 917.03 660.41 C 923.48 655.24 929.07 648.87 936.49 645.02 C 941.24 643.81 946.01 646.18 950.67 646.80 C 951.78 644.89 952.91 642.99 954.04 641.09 C 949.22 635.21 944.21 629.51 938.80 624.17 C 935.35 620.78 932.84 615.18 937.14 611.17 Z" />
</g>
<g id="#df2f00fe">
<path fill="#df2f00" fill-opacity="0" d=" M 1578.17 640.59 C 1583.06 641.47 1588.35 640.72 1592.85 643.16 C 1598.91 646.15 1604.79 650.63 1611.99 649.99 C 1616.22 648.74 1619.27 644.31 1623.87 644.10 C 1629.27 644.53 1630.93 650.49 1633.79 654.22 C 1638.15 662.72 1647.02 667.04 1654.31 672.61 C 1651.13 676.33 1647.75 679.95 1645.39 684.27 C 1644.03 706.87 1645.77 729.51 1646.78 752.09 C 1647.23 756.82 1643.05 760.06 1640.30 763.29 C 1618.55 785.88 1597.12 808.78 1575.42 831.41 C 1569.34 838.39 1562.96 845.52 1554.32 849.30 C 1544.39 853.52 1534.88 858.60 1525.08 863.08 C 1509.57 868.54 1493.29 871.37 1476.95 872.73 C 1464.55 873.68 1451.98 872.00 1440.45 867.32 C 1455.61 846.96 1472.15 827.69 1487.37 807.37 C 1496.31 795.34 1506.92 784.43 1514.28 771.30 C 1518.80 762.86 1516.35 752.80 1511.25 745.22 C 1507.40 746.89 1503.36 748.31 1499.22 748.99 C 1493.67 739.37 1493.51 727.63 1489.21 717.45 C 1494.04 717.61 1499.08 718.02 1503.78 716.61 C 1516.11 709.32 1530.47 707.03 1543.35 701.12 C 1542.39 696.55 1539.55 692.61 1537.95 688.29 C 1543.28 686.08 1548.62 683.46 1554.53 683.32 C 1559.40 686.13 1561.00 692.03 1563.78 696.60 C 1569.31 694.05 1579.81 691.26 1577.96 683.19 C 1576.06 672.77 1565.73 666.74 1561.84 657.22 C 1560.64 654.76 1563.02 652.64 1564.55 651.00 C 1568.87 647.26 1573.66 644.11 1578.17 640.59 Z" />
</g>
<g id="#9faf7fff">
<path fill="#9faf7f" fill-opacity="0" d=" M 865.04 646.72 C 869.57 644.46 873.91 641.83 878.61 639.89 C 880.66 645.51 878.41 651.54 880.36 657.16 C 883.90 654.99 887.49 652.39 891.77 652.03 C 896.71 651.64 901.56 650.58 906.39 649.43 C 909.88 652.84 913.06 656.55 916.56 659.98 C 914.35 663.08 910.88 665.52 909.68 669.23 C 909.39 681.27 912.95 693.30 910.12 705.28 C 911.59 711.90 918.19 716.02 920.83 722.17 C 921.84 724.90 920.26 727.64 919.52 730.23 C 914.71 730.06 909.91 730.65 905.12 730.54 C 899.20 729.29 895.22 722.97 888.89 723.16 C 881.86 723.61 876.30 729.58 875.69 736.51 C 873.67 743.26 878.93 748.89 882.02 754.36 C 878.13 757.85 873.78 760.76 869.48 763.70 C 865.44 760.57 861.19 757.70 856.73 755.21 C 854.64 761.53 849.36 767.54 850.67 774.61 C 854.58 796.83 857.53 819.21 860.92 841.51 C 859.72 843.45 858.63 845.45 857.55 847.45 C 854.61 847.41 851.65 846.28 848.72 846.91 C 846.19 847.70 845.24 850.38 843.98 852.43 C 841.39 850.42 839.19 847.94 836.48 846.12 C 832.57 844.52 828.32 844.04 824.25 843.07 C 822.33 847.43 820.15 851.69 818.79 856.26 C 819.40 866.85 824.61 876.78 824.43 887.48 C 818.10 895.11 811.54 903.90 801.13 905.77 C 790.47 894.79 788.46 879.01 783.88 865.07 C 780.61 854.45 779.24 842.82 772.30 833.75 C 766.74 826.27 764.63 817.02 761.38 808.48 C 758.86 805.54 754.94 803.83 753.34 800.11 C 743.15 770.48 735.04 740.19 725.72 710.31 C 723.97 703.04 727.80 694.59 734.43 691.07 C 736.23 692.92 737.69 695.08 739.20 697.18 C 747.30 693.37 749.75 683.51 758.26 680.39 C 761.32 678.91 764.77 678.62 768.10 678.17 C 772.01 681.90 773.62 687.62 777.89 690.91 C 788.20 694.03 799.14 693.21 809.79 693.65 C 815.81 693.47 823.38 693.84 827.31 688.42 C 831.02 683.05 834.30 677.38 837.46 671.67 C 840.83 664.84 842.90 656.96 848.61 651.55 C 853.19 647.60 859.80 649.13 865.04 646.72 Z" />
</g>
<g id="#3fafbffe">
<path fill="#3fafbf" fill-opacity="0" d=" M 1263.27 649.48 C 1264.64 648.16 1266.75 650.56 1265.41 651.82 C 1263.99 653.17 1261.82 650.77 1263.27 649.48 Z" />
</g>
<g id="#7f6fbfff">
<path fill="#7f6fbf" fill-opacity="0" d=" M 1126.86 651.86 C 1127.79 651.97 1129.65 652.20 1130.58 652.31 C 1129.49 653.40 1128.40 654.50 1127.31 655.58 C 1127.20 654.65 1126.97 652.79 1126.86 651.86 Z" />
</g>
<g id="#7f2fbfff">
<path fill="#7f2fbf" fill-opacity="0" d=" M 916.56 659.98 L 917.03 660.41 C 920.93 664.12 925.60 667.33 928.00 672.33 C 929.88 676.99 929.80 682.17 931.46 686.90 C 933.11 690.84 935.89 694.16 938.73 697.30 C 943.08 692.15 944.59 685.49 947.70 679.67 C 950.72 674.19 959.02 672.47 963.39 677.48 C 969.64 684.28 970.72 694.96 978.58 700.42 C 983.97 702.46 990.33 696.25 995.21 700.74 C 1001.93 706.79 1011.18 708.01 1019.10 711.89 C 1026.75 716.02 1034.77 707.21 1042.51 710.44 C 1046.67 714.79 1043.48 720.87 1041.55 725.46 C 1036.91 735.40 1037.79 746.68 1036.42 757.32 C 1034.25 779.07 1031.73 800.79 1029.01 822.49 C 1026.25 820.15 1023.94 817.37 1021.58 814.66 C 1020.96 820.18 1020.30 825.70 1019.26 831.17 C 1016.55 830.76 1013.84 830.33 1011.14 829.94 C 1010.40 833.30 1009.68 836.69 1008.96 840.07 C 1001.88 841.36 994.59 843.07 987.69 840.01 C 984.20 848.16 982.80 856.90 982.70 865.74 C 977.00 869.60 971.86 874.17 966.86 878.87 C 959.36 886.62 948.16 888.54 939.51 894.59 C 935.99 896.87 931.90 900.47 927.39 898.50 C 920.88 894.29 912.34 891.39 909.27 883.63 C 904.95 884.40 900.65 885.07 896.52 886.53 C 887.04 878.31 877.88 869.72 868.05 861.93 C 861.14 857.70 862.99 848.25 860.92 841.51 C 857.53 819.21 854.58 796.83 850.67 774.61 C 849.36 767.54 854.64 761.53 856.73 755.21 C 861.19 757.70 865.44 760.57 869.48 763.70 C 873.78 760.76 878.13 757.85 882.02 754.36 C 878.93 748.89 873.67 743.26 875.69 736.51 C 876.30 729.58 881.86 723.61 888.89 723.16 C 895.22 722.97 899.20 729.29 905.12 730.54 C 909.91 730.65 914.71 730.06 919.52 730.23 C 920.26 727.64 921.84 724.90 920.83 722.17 C 918.19 716.02 911.59 711.90 910.12 705.28 C 912.95 693.30 909.39 681.27 909.68 669.23 C 910.88 665.52 914.35 663.08 916.56 659.98 Z" />
</g>
<g id="#bf703fff">
<path fill="#bf703f" fill-opacity="0" d=" M 1161.42 662.31 C 1162.35 662.20 1164.21 661.97 1165.14 661.86 C 1165.03 662.79 1164.80 664.65 1164.69 665.58 C 1163.58 664.50 1162.48 663.40 1161.42 662.31 Z" />
</g>
<g id="#3f6fbfff">
<path fill="#3f6fbf" fill-opacity="0" d=" M 1233.04 678.03 C 1244.80 681.89 1259.45 679.80 1268.85 689.13 C 1272.35 692.10 1275.70 695.25 1278.72 698.72 C 1275.91 700.71 1273.53 704.66 1269.68 704.22 C 1262.87 703.07 1256.00 703.85 1249.19 704.33 C 1247.36 698.98 1245.03 693.76 1241.27 689.48 C 1239.86 690.25 1238.49 691.03 1237.12 691.83 C 1235.79 687.19 1234.55 682.59 1233.04 678.03 Z" />
</g>
<g id="#df2f7fff">
<path fill="#df2f7f" fill-opacity="0" d=" M 1404.97 694.92 C 1407.35 690.54 1410.92 686.97 1413.90 683.01 C 1414.25 685.90 1414.86 688.63 1415.77 691.46 C 1416.73 695.29 1422.60 696.28 1424.80 693.00 C 1427.12 690.89 1428.56 686.28 1432.35 687.23 C 1436.29 688.86 1438.22 693.96 1442.95 694.13 C 1450.94 695.08 1457.92 699.88 1462.62 706.28 C 1465.56 709.30 1467.37 714.54 1472.09 715.23 C 1477.77 716.11 1483.51 716.65 1489.21 717.45 C 1493.51 727.63 1493.67 739.37 1499.22 748.99 C 1503.36 748.31 1507.40 746.89 1511.25 745.22 C 1516.35 752.80 1518.80 762.86 1514.28 771.30 C 1506.92 784.43 1496.31 795.34 1487.37 807.37 C 1472.15 827.69 1455.61 846.96 1440.45 867.32 C 1434.73 861.20 1427.05 855.89 1426.04 846.87 C 1437.95 830.55 1451.48 815.09 1460.08 796.64 C 1463.12 788.09 1465.05 779.15 1466.30 770.18 C 1458.24 771.19 1451.81 776.18 1445.68 781.07 C 1443.17 778.67 1439.22 776.64 1439.57 772.60 C 1439.99 765.42 1437.11 758.87 1434.31 752.48 C 1430.94 753.87 1425.52 751.49 1423.24 755.00 C 1421.61 757.50 1420.50 760.28 1419.21 762.96 C 1414.47 759.43 1410.08 753.86 1403.48 754.37 C 1398.75 754.09 1395.29 757.99 1391.00 759.30 C 1386.64 754.98 1384.41 748.87 1379.34 745.15 C 1383.21 736.38 1386.29 727.31 1389.08 718.15 C 1393.50 715.76 1397.58 712.80 1401.31 709.42 C 1403.51 704.88 1402.51 699.41 1404.97 694.92 M 1449.32 739.33 C 1447.98 740.25 1449.56 742.50 1450.88 741.48 C 1452.17 740.52 1450.62 738.25 1449.32 739.33 Z" />
</g>
<g id="#bf2fbfff">
<path fill="#bf2fbf" fill-opacity="0" d=" M 1382.11 721.82 C 1384.41 720.59 1386.76 719.39 1389.08 718.15 C 1386.29 727.31 1383.21 736.38 1379.34 745.15 C 1384.41 748.87 1386.64 754.98 1391.00 759.30 C 1395.29 757.99 1398.75 754.09 1403.48 754.37 C 1410.08 753.86 1414.47 759.43 1419.21 762.96 C 1420.50 760.28 1421.61 757.50 1423.24 755.00 C 1425.52 751.49 1430.94 753.87 1434.31 752.48 C 1437.11 758.87 1439.99 765.42 1439.57 772.60 C 1439.22 776.64 1443.17 778.67 1445.68 781.07 C 1451.81 776.18 1458.24 771.19 1466.30 770.18 C 1465.05 779.15 1463.12 788.09 1460.08 796.64 C 1451.48 815.09 1437.95 830.55 1426.04 846.87 C 1415.90 860.16 1406.45 873.98 1396.10 887.11 C 1390.12 894.53 1380.17 895.68 1371.85 899.09 C 1368.03 900.65 1364.42 902.59 1360.71 904.34 C 1359.82 898.91 1359.38 893.38 1360.00 887.91 C 1357.94 885.34 1355.92 882.80 1353.87 880.26 C 1346.69 881.55 1339.41 881.48 1332.17 881.19 C 1328.91 881.12 1326.44 878.54 1323.33 877.95 C 1317.47 876.97 1311.58 876.70 1305.84 875.21 C 1300.38 873.54 1294.67 876.89 1289.30 874.68 C 1285.92 873.15 1284.75 869.28 1282.18 866.88 C 1279.82 864.92 1276.77 863.92 1274.62 861.72 C 1274.49 858.81 1274.75 856.06 1274.88 853.20 C 1268.25 851.58 1259.73 855.96 1254.45 850.61 C 1250.41 842.64 1246.93 832.38 1251.48 823.96 C 1264.29 795.68 1276.78 767.26 1289.38 738.89 C 1296.38 738.26 1303.58 738.94 1310.44 737.03 C 1316.54 735.19 1322.28 732.19 1328.54 730.87 C 1337.50 729.95 1344.94 737.09 1353.64 737.50 C 1360.59 734.33 1360.69 724.64 1367.57 721.35 C 1372.06 718.52 1377.42 721.35 1382.11 721.82 Z" />
</g>
<g id="#5faf7fff">
<path fill="#5faf7f" fill-opacity="0" d=" M 1449.32 739.33 C 1450.62 738.25 1452.17 740.52 1450.88 741.48 C 1449.56 742.50 1447.98 740.25 1449.32 739.33 Z" />
</g>
</svg>
