<?xml version="1.0" encoding="UTF-8" ?>
<!DOCTYPE svg PUBLIC "-//W3C//DTD SVG 1.1//EN" "http://www.w3.org/Graphics/SVG/1.1/DTD/svg11.dtd">
<svg width="1920pt" height="1080pt" viewBox="0 0 1920 1080" version="1.1" xmlns="http://www.w3.org/2000/svg">
<g id="#af3f9ffe">
<path fill="#af3f9f" fill-opacity="0" d=" M 895.91 259.69 C 905.44 256.95 915.27 260.61 924.79 261.51 C 937.31 263.78 951.17 264.24 961.57 272.44 C 965.48 277.78 965.50 285.05 969.77 290.24 C 975.17 296.90 981.49 302.78 986.54 309.73 C 983.73 307.54 981.07 305.11 978.04 303.25 C 974.38 301.84 969.90 302.97 966.73 300.34 C 963.16 295.15 961.03 289.12 958.11 283.57 C 952.09 283.56 946.09 282.94 940.14 282.17 C 938.29 286.74 935.10 291.15 935.36 296.29 C 935.77 304.48 936.65 312.68 936.62 320.91 C 936.53 322.78 936.53 324.80 935.53 326.47 C 927.12 332.10 916.03 333.52 906.77 329.10 C 904.23 327.86 901.69 325.38 903.05 321.96 C 902.50 317.42 902.63 312.76 901.49 308.32 C 899.91 305.73 897.96 303.44 896.10 301.07 C 887.30 302.26 878.68 300.38 870.00 299.59 C 864.11 300.13 857.17 301.32 853.47 306.41 C 849.66 317.91 851.96 330.27 853.20 342.02 C 852.77 352.38 847.73 361.94 846.79 372.22 C 847.09 379.88 849.04 387.33 850.36 394.85 C 852.21 404.61 853.57 414.45 855.54 424.19 C 850.63 428.11 844.97 431.97 838.34 431.39 C 834.22 430.07 831.24 426.65 828.46 423.51 C 826.09 420.27 824.34 416.27 824.45 412.20 C 825.74 408.27 828.58 405.09 830.66 401.57 C 835.24 394.95 836.07 386.65 838.17 379.10 C 840.21 369.84 834.39 360.99 835.80 351.73 C 836.90 345.76 839.18 338.91 835.72 333.22 C 832.04 327.74 827.71 322.47 822.19 318.76 C 816.90 315.15 810.15 315.04 804.62 312.00 C 800.51 308.39 796.35 303.83 795.47 298.22 C 796.17 292.34 801.31 288.02 802.31 282.20 C 802.78 278.86 802.43 275.48 802.19 272.14 C 806.33 276.10 810.74 280.88 817.09 280.57 C 834.17 281.49 848.80 271.31 864.98 267.83 C 875.35 265.34 885.60 262.45 895.91 259.69 Z" />
</g>
<g id="#2fbf9ffe">
<path fill="#2fbf9f" fill-opacity="0" d=" M 828.46 423.51 C 831.24 426.65 834.22 430.07 838.34 431.39 C 844.97 431.97 850.63 428.11 855.54 424.19 C 857.48 429.07 859.08 434.33 862.79 438.22 C 865.55 441.33 869.67 442.56 873.33 444.28 C 866.19 455.01 858.59 465.44 850.29 475.30 C 844.59 482.01 841.39 490.60 840.65 499.33 C 839.81 503.70 839.90 508.55 837.31 512.33 C 831.25 518.90 821.03 518.47 814.63 524.57 C 811.01 528.10 807.33 531.65 802.89 534.14 C 794.98 535.94 786.58 536.27 778.70 534.09 C 772.42 531.33 767.52 525.91 764.54 519.81 C 762.21 511.17 760.47 502.07 755.35 494.54 C 752.87 490.88 747.53 490.01 743.66 491.88 C 737.37 493.93 732.72 499.06 726.72 501.72 C 721.14 504.36 714.87 504.70 708.93 506.01 C 708.33 491.79 698.47 479.85 699.46 465.37 C 704.26 454.60 715.18 448.87 725.96 445.77 C 728.32 448.51 730.65 451.28 732.70 454.27 C 736.49 459.86 742.34 463.57 747.90 467.21 C 756.57 462.37 763.60 455.49 770.33 448.34 C 779.34 443.52 789.99 440.78 800.23 442.85 C 806.16 446.83 811.15 452.06 816.65 456.60 C 822.61 451.36 829.47 446.25 832.27 438.49 C 832.30 433.22 829.93 428.45 828.46 423.51 Z" />
</g>
<g id="#2f3f9fff">
<path fill="#2f3f9f" fill-opacity="0" d=" M 873.33 444.28 C 874.14 444.58 874.96 444.88 875.80 445.18 C 875.17 452.04 875.64 458.93 875.19 465.80 C 874.60 472.99 866.92 478.16 868.57 485.65 C 870.82 499.14 873.34 512.59 875.22 526.13 C 880.02 527.09 885.34 530.99 890.30 528.33 C 897.49 524.67 906.75 523.90 913.71 528.34 C 917.74 534.51 920.81 541.64 921.81 548.99 C 921.61 560.26 919.17 571.34 917.44 582.45 C 916.84 586.95 914.63 590.94 911.89 594.48 C 905.95 588.83 904.02 579.64 896.90 575.24 C 889.96 573.47 883.14 577.68 877.84 581.79 C 865.57 590.29 858.51 603.93 847.71 613.93 C 845.75 609.15 842.84 604.70 841.71 599.61 C 841.01 594.78 844.98 590.94 847.21 587.15 C 850.96 581.92 854.05 576.21 856.28 570.17 C 857.62 566.60 856.29 562.84 855.62 559.29 C 847.97 560.06 839.95 560.80 832.52 558.44 C 820.40 553.37 812.51 542.54 802.89 534.14 C 807.33 531.65 811.01 528.10 814.63 524.57 C 821.03 518.47 831.25 518.90 837.31 512.33 C 839.90 508.55 839.81 503.70 840.65 499.33 C 841.39 490.60 844.59 482.01 850.29 475.30 C 858.59 465.44 866.19 455.01 873.33 444.28 Z" />
</g>
<g id="#afbf9fff">
<path fill="#afbf9f" fill-opacity="0" d=" M 608.64 507.83 C 612.59 499.57 616.05 490.69 622.91 484.36 C 627.11 490.94 632.31 497.20 633.99 505.00 C 634.61 508.94 637.61 512.09 641.23 513.59 C 643.79 513.16 645.86 511.40 648.20 510.40 C 653.68 507.13 659.80 505.25 665.79 503.18 C 669.93 508.19 674.12 513.19 678.12 518.32 C 672.10 519.68 666.07 520.84 659.97 521.70 C 662.50 525.65 664.79 529.74 667.15 533.81 C 672.88 534.52 678.56 536.40 684.38 536.23 C 689.73 535.03 692.98 529.93 697.06 526.62 C 701.57 529.23 706.06 531.84 710.49 534.61 C 703.78 542.80 696.69 550.69 688.44 557.39 C 688.76 562.37 690.40 568.12 686.29 572.14 C 682.59 577.38 679.13 583.71 672.96 586.37 C 662.41 589.68 651.30 590.99 640.93 594.91 C 633.74 598.29 627.08 602.76 619.58 605.52 C 616.53 606.99 611.40 608.44 612.06 612.77 C 614.22 616.01 617.89 617.70 621.05 619.81 C 613.65 627.01 603.09 632.14 599.26 642.27 C 597.60 645.99 600.17 649.84 602.14 652.88 C 607.62 657.59 615.17 654.36 621.32 653.24 C 625.78 651.97 630.43 653.11 634.65 654.71 C 638.76 664.30 635.39 675.53 628.62 683.02 C 629.18 687.89 633.27 693.38 630.18 698.13 C 626.97 703.54 623.30 708.67 620.13 714.11 C 618.13 717.24 616.23 720.82 612.86 722.66 C 605.33 725.23 597.17 724.91 589.67 727.64 C 582.01 730.27 573.62 732.05 567.25 737.34 C 563.79 740.17 564.75 745.09 563.75 748.97 C 560.18 746.26 556.67 743.52 552.97 741.02 C 548.13 736.47 541.05 738.01 535.38 735.43 C 527.20 731.81 520.68 725.61 513.50 720.46 C 491.14 704.74 469.12 688.54 446.61 673.05 C 440.43 668.37 433.83 664.25 428.03 659.10 C 438.41 654.70 444.65 643.92 455.33 640.06 C 458.68 639.74 462.24 639.80 465.44 640.95 C 472.15 645.40 477.70 651.38 482.38 657.89 C 492.45 658.14 502.75 655.15 510.30 648.29 C 518.81 642.41 520.38 631.49 527.08 624.12 C 540.82 607.58 554.45 590.91 569.52 575.53 C 581.03 562.17 592.32 548.42 601.12 533.07 C 605.82 525.40 604.66 515.79 608.64 507.83 Z" />
</g>
<g id="#6f3f1fff">
<path fill="#6f3f1f" fill-opacity="0" d=" M 743.66 491.88 C 747.53 490.01 752.87 490.88 755.35 494.54 C 760.47 502.07 762.21 511.17 764.54 519.81 C 761.18 526.37 759.74 534.04 754.61 539.58 C 748.70 546.03 742.60 552.34 737.42 559.42 C 733.16 565.43 727.73 570.68 724.31 577.26 C 721.97 581.58 722.92 586.58 723.41 591.22 C 726.67 600.51 717.22 604.66 712.69 610.62 C 708.66 618.07 710.85 626.56 711.86 634.44 C 712.67 638.40 708.78 640.85 706.45 643.40 C 703.55 639.50 701.58 634.69 697.62 631.76 C 693.73 630.37 688.99 633.25 688.28 637.40 C 683.05 647.70 684.35 660.50 676.76 669.72 C 673.36 673.74 667.17 676.71 662.15 673.89 C 652.12 668.85 643.74 661.17 634.65 654.71 C 630.43 653.11 625.78 651.97 621.32 653.24 C 615.17 654.36 607.62 657.59 602.14 652.88 C 600.17 649.84 597.60 645.99 599.26 642.27 C 603.09 632.14 613.65 627.01 621.05 619.81 C 617.89 617.70 614.22 616.01 612.06 612.77 C 611.40 608.44 616.53 606.99 619.58 605.52 C 627.08 602.76 633.74 598.29 640.93 594.91 C 651.30 590.99 662.41 589.68 672.96 586.37 C 679.13 583.71 682.59 577.38 686.29 572.14 C 690.40 568.12 688.76 562.37 688.44 557.39 C 696.69 550.69 703.78 542.80 710.49 534.61 C 706.06 531.84 701.57 529.23 697.06 526.62 C 699.38 523.44 701.96 520.44 704.10 517.13 C 706.29 513.68 706.48 509.31 708.93 506.01 C 714.87 504.70 721.14 504.36 726.72 501.72 C 732.72 499.06 737.37 493.93 743.66 491.88 Z" />
</g>
<g id="#ef3f1fff">
<path fill="#ef3f1f" fill-opacity="0" d=" M 754.61 539.58 C 759.74 534.04 761.18 526.37 764.54 519.81 C 767.52 525.91 772.42 531.33 778.70 534.09 C 786.58 536.27 794.98 535.94 802.89 534.14 C 812.51 542.54 820.40 553.37 832.52 558.44 C 839.95 560.80 847.97 560.06 855.62 559.29 C 856.29 562.84 857.62 566.60 856.28 570.17 C 854.05 576.21 850.96 581.92 847.21 587.15 C 844.98 590.94 841.01 594.78 841.71 599.61 C 842.84 604.70 845.75 609.15 847.71 613.93 C 847.82 614.27 848.04 614.95 848.15 615.28 C 829.37 623.37 808.24 624.77 788.11 622.60 C 781.10 623.04 778.25 615.38 772.52 612.94 C 768.64 612.06 764.56 612.83 760.67 612.66 C 756.98 617.72 752.97 622.52 748.95 627.31 C 744.51 625.48 740.09 623.57 735.64 621.78 C 736.10 613.14 741.29 604.94 739.86 596.32 C 734.70 593.75 728.89 592.90 723.41 591.22 C 722.92 586.58 721.97 581.58 724.31 577.26 C 727.73 570.68 733.16 565.43 737.42 559.42 C 742.60 552.34 748.70 546.03 754.61 539.58 Z" />
</g>
<g id="#afbf1fff">
<path fill="#afbf1f" fill-opacity="0" d=" M 921.81 548.99 C 925.46 552.47 929.09 556.21 933.85 558.18 C 939.63 560.69 945.37 563.54 949.67 568.32 C 957.31 576.51 967.03 582.24 975.29 589.73 C 984.69 602.14 982.41 618.37 982.29 632.99 C 983.26 638.18 988.30 641.46 990.92 645.78 C 985.97 651.43 980.36 656.54 976.00 662.69 C 974.06 666.40 973.96 670.93 971.28 674.28 C 963.69 682.61 952.68 688.84 941.10 687.64 C 935.35 687.41 929.44 688.00 923.85 686.32 C 917.78 683.98 912.04 680.93 906.35 677.81 C 905.13 670.60 905.28 662.96 902.79 656.02 C 899.51 653.72 893.94 650.57 890.83 654.80 C 882.29 661.76 880.43 672.81 878.69 682.97 C 878.49 692.66 878.33 702.43 878.97 712.11 C 885.83 740.68 893.39 769.11 900.14 797.72 C 898.14 797.38 896.14 797.05 894.15 796.74 C 890.69 783.66 887.08 770.63 883.42 757.62 C 881.18 750.16 880.56 742.07 876.65 735.23 C 872.47 727.44 862.21 721.56 863.35 711.78 C 864.22 701.62 866.51 691.61 866.96 681.40 C 867.14 676.56 865.31 671.37 867.90 666.87 C 872.49 658.36 878.36 650.60 883.10 642.16 C 885.47 638.42 887.46 634.00 891.53 631.78 C 895.74 629.45 900.16 627.52 904.38 625.22 C 899.51 613.30 894.71 601.33 889.12 589.73 C 880.62 594.75 870.08 597.79 864.26 606.18 C 858.49 618.92 852.70 631.73 848.04 644.93 C 843.42 662.30 840.61 680.09 836.53 697.58 C 834.57 706.56 832.46 715.50 830.72 724.53 C 829.56 730.62 829.40 737.17 832.05 742.92 C 839.68 760.52 846.99 778.26 854.89 795.74 C 842.80 795.92 832.76 803.61 821.84 807.71 C 815.06 809.65 807.90 809.59 800.93 810.02 C 786.08 787.48 768.80 766.53 755.39 743.06 C 761.57 737.63 769.51 734.14 774.60 727.57 C 778.64 722.34 772.95 716.99 771.08 712.15 C 767.49 706.98 772.28 702.81 775.64 699.65 C 784.55 691.84 789.83 681.01 796.45 671.41 C 800.22 665.92 806.96 662.45 813.60 664.10 C 821.49 665.63 830.73 664.80 835.87 657.87 C 838.77 650.73 838.15 642.82 839.79 635.40 C 841.66 631.15 845.65 628.27 847.81 624.20 C 848.87 621.35 848.46 618.22 848.15 615.28 C 848.04 614.95 847.82 614.27 847.71 613.93 C 858.51 603.93 865.57 590.29 877.84 581.79 C 883.14 577.68 889.96 573.47 896.90 575.24 C 904.02 579.64 905.95 588.83 911.89 594.48 C 914.63 590.94 916.84 586.95 917.44 582.45 C 919.17 571.34 921.61 560.26 921.81 548.99 Z" />
</g>
<g id="#2fbf1fff">
<path fill="#2fbf1f" fill-opacity="0" d=" M 864.26 606.18 C 870.08 597.79 880.62 594.75 889.12 589.73 C 894.71 601.33 899.51 613.30 904.38 625.22 C 900.16 627.52 895.74 629.45 891.53 631.78 C 887.46 634.00 885.47 638.42 883.10 642.16 C 878.36 650.60 872.49 658.36 867.90 666.87 C 865.31 671.37 867.14 676.56 866.96 681.40 C 866.51 691.61 864.22 701.62 863.35 711.78 C 862.21 721.56 872.47 727.44 876.65 735.23 C 880.56 742.07 881.18 750.16 883.42 757.62 C 887.08 770.63 890.69 783.66 894.15 796.74 C 881.14 799.41 867.75 799.04 854.89 795.74 C 846.99 778.26 839.68 760.52 832.05 742.92 C 829.40 737.17 829.56 730.62 830.72 724.53 C 832.46 715.50 834.57 706.56 836.53 697.58 C 840.61 680.09 843.42 662.30 848.04 644.93 C 852.70 631.73 858.49 618.92 864.26 606.18 Z" />
</g>
<g id="#6fbf1fff">
<path fill="#6fbf1f" fill-opacity="0" d=" M 723.41 591.22 C 728.89 592.90 734.70 593.75 739.86 596.32 C 741.29 604.94 736.10 613.14 735.64 621.78 C 740.09 623.57 744.51 625.48 748.95 627.31 C 752.97 622.52 756.98 617.72 760.67 612.66 C 764.56 612.83 768.64 612.06 772.52 612.94 C 778.25 615.38 781.10 623.04 788.11 622.60 C 808.24 624.77 829.37 623.37 848.15 615.28 C 848.46 618.22 848.87 621.35 847.81 624.20 C 845.65 628.27 841.66 631.15 839.79 635.40 C 838.15 642.82 838.77 650.73 835.87 657.87 C 830.73 664.80 821.49 665.63 813.60 664.10 C 806.96 662.45 800.22 665.92 796.45 671.41 C 789.83 681.01 784.55 691.84 775.64 699.65 C 772.28 702.81 767.49 706.98 771.08 712.15 C 772.95 716.99 778.64 722.34 774.60 727.57 C 769.51 734.14 761.57 737.63 755.39 743.06 C 768.80 766.53 786.08 787.48 800.93 810.02 C 794.84 811.58 788.60 813.06 783.09 816.20 C 777.54 820.18 772.63 825.00 767.75 829.77 C 764.70 833.15 764.70 838.26 761.73 841.67 C 757.12 844.14 751.94 845.37 747.09 847.29 C 739.76 850.67 731.26 847.34 723.95 850.87 C 714.40 854.65 702.75 854.25 695.39 862.38 C 691.32 865.83 686.88 871.98 680.71 870.27 C 672.34 867.59 664.01 864.73 655.72 861.84 C 649.31 866.20 642.89 859.74 636.34 859.35 C 632.30 859.18 628.29 858.38 624.78 856.33 C 600.91 843.08 576.81 830.27 552.85 817.19 C 546.87 814.59 543.82 808.64 540.45 803.48 C 538.03 799.31 534.71 795.28 534.99 790.13 C 536.69 783.46 543.65 781.41 548.08 777.06 C 552.69 771.66 555.35 765.00 558.93 758.95 C 560.61 755.67 562.88 752.60 563.75 748.97 C 564.75 745.09 563.79 740.17 567.25 737.34 C 573.62 732.05 582.01 730.27 589.67 727.64 C 597.17 724.91 605.33 725.23 612.86 722.66 C 616.23 720.82 618.13 717.24 620.13 714.11 C 623.30 708.67 626.97 703.54 630.18 698.13 C 633.27 693.38 629.18 687.89 628.62 683.02 C 635.39 675.53 638.76 664.30 634.65 654.71 C 643.74 661.17 652.12 668.85 662.15 673.89 C 667.17 676.71 673.36 673.74 676.76 669.72 C 684.35 660.50 683.05 647.70 688.28 637.40 C 688.99 633.25 693.73 630.37 697.62 631.76 C 701.58 634.69 703.55 639.50 706.45 643.40 C 708.78 640.85 712.67 638.40 711.86 634.44 C 710.85 626.56 708.66 618.07 712.69 610.62 C 717.22 604.66 726.67 600.51 723.41 591.22 Z" />
</g>
</svg>
