<?xml version="1.0" encoding="UTF-8" ?>
<!DOCTYPE svg PUBLIC "-//W3C//DTD SVG 1.1//EN" "http://www.w3.org/Graphics/SVG/1.1/DTD/svg11.dtd">
<svg width="1920pt" height="1080pt" viewBox="0 0 1920 1080" version="1.1" xmlns="http://www.w3.org/2000/svg">
<g id="#1f6f00ff">
<path fill="#1f6f00" fill-opacity="0" d=" M 724.30 274.13 C 725.87 274.13 729.01 274.14 730.58 274.15 C 732.05 275.83 733.10 278.13 735.18 279.16 C 741.21 279.64 751.00 276.51 754.24 283.52 C 755.29 294.01 754.42 304.74 757.10 315.03 C 759.44 323.19 762.67 331.12 763.60 339.63 C 766.59 351.14 777.96 357.42 787.27 363.34 C 782.88 366.53 778.72 371.19 772.92 371.37 C 767.17 370.91 761.87 367.76 755.98 368.25 C 748.34 368.01 741.67 372.48 736.39 377.59 C 728.68 375.44 721.21 372.59 714.15 368.83 C 708.19 365.64 701.19 363.57 696.80 358.12 C 690.53 350.68 693.93 340.70 695.26 332.14 C 698.26 325.88 706.24 327.38 711.85 328.62 C 712.50 328.04 713.16 327.46 713.82 326.88 C 711.89 318.02 708.63 309.25 708.24 300.16 C 710.12 289.85 718.28 282.19 724.30 274.13 Z" />
</g>
<g id="#9faf3fff">
<path fill="#9faf3f" fill-opacity="0" d=" M 1212.05 286.10 C 1218.82 281.14 1226.96 277.90 1235.46 278.40 C 1241.28 277.11 1244.92 282.07 1248.96 285.06 C 1253.25 288.86 1259.94 287.75 1263.96 292.01 C 1268.86 296.73 1275.16 301.14 1275.60 308.60 C 1276.59 313.43 1274.12 318.81 1277.94 322.98 C 1281.61 331.30 1290.05 335.56 1296.13 341.83 C 1301.33 347.97 1306.19 354.42 1311.71 360.29 C 1319.31 368.10 1330.89 372.41 1334.40 383.65 C 1336.96 389.70 1333.62 395.75 1333.55 401.88 C 1333.36 404.81 1334.01 407.83 1333.19 410.69 C 1330.92 413.21 1328.53 415.99 1325.19 417.03 C 1318.96 417.95 1312.70 416.73 1306.46 417.14 C 1302.19 417.29 1298.15 418.89 1293.94 419.35 C 1279.60 420.47 1266.27 410.62 1251.93 414.07 C 1244.37 417.75 1237.28 422.41 1229.33 425.28 C 1223.30 419.71 1217.72 413.61 1211.23 408.57 C 1204.65 403.87 1196.13 404.06 1188.51 402.79 C 1175.83 401.42 1163.26 399.24 1150.59 397.81 C 1152.41 393.28 1154.47 388.70 1155.06 383.82 C 1155.80 378.51 1149.68 375.35 1149.36 370.32 C 1150.98 364.17 1158.52 363.69 1163.49 361.59 C 1163.69 357.01 1163.23 352.37 1164.08 347.85 C 1168.91 338.47 1180.77 334.66 1184.34 324.50 C 1185.67 320.09 1182.23 316.07 1178.25 314.68 C 1170.37 311.77 1164.77 305.42 1159.70 299.04 C 1164.82 299.82 1170.03 300.67 1175.21 299.61 C 1180.86 298.66 1186.98 298.97 1192.09 296.02 C 1196.35 292.05 1198.43 286.09 1203.49 282.87 C 1206.56 283.15 1209.25 284.91 1212.05 286.10 Z" />
</g>
<g id="#9f2f3ffe">
<path fill="#9f2f3f" fill-opacity="0" d=" M 781.86 280.00 C 785.50 278.56 790.38 278.64 793.07 281.86 C 794.67 284.66 794.88 288.01 796.20 290.95 C 797.92 295.37 804.81 292.07 808.06 293.83 C 818.32 293.00 827.07 298.30 836.13 302.03 C 844.22 305.82 853.96 309.91 856.08 319.69 C 857.36 327.90 858.01 336.24 858.78 344.51 C 855.90 351.72 853.18 360.12 845.90 364.03 C 837.27 370.27 826.82 375.93 815.85 374.58 C 806.18 371.28 796.51 367.72 787.27 363.34 C 777.96 357.42 766.59 351.14 763.60 339.63 C 762.67 331.12 759.44 323.19 757.10 315.03 C 754.42 304.74 755.29 294.01 754.24 283.52 C 757.41 284.92 759.99 289.36 763.84 287.91 C 770.13 285.97 775.81 282.53 781.86 280.00 Z" />
</g>
<g id="#9f6f7ffe">
<path fill="#9f6f7f" fill-opacity="0" d=" M 1032.20 288.38 C 1037.68 287.33 1042.29 292.95 1047.99 290.75 C 1053.92 289.80 1059.49 292.48 1065.25 293.35 C 1071.74 292.84 1077.09 288.08 1083.62 287.53 C 1087.66 287.27 1091.76 287.49 1095.79 287.92 C 1096.20 294.41 1098.24 300.62 1101.26 306.36 C 1096.03 315.79 1089.26 324.30 1084.76 334.13 C 1082.50 337.85 1081.24 343.43 1075.97 343.94 C 1068.07 347.24 1059.34 345.39 1051.16 344.61 C 1048.08 344.33 1044.61 343.96 1041.97 345.91 C 1036.47 349.73 1035.30 356.65 1032.54 362.32 C 1029.03 367.34 1024.68 371.99 1019.34 375.08 C 1011.84 377.22 1003.99 372.80 999.85 366.59 C 992.44 367.41 984.99 368.51 977.92 370.91 C 978.60 355.71 978.32 340.49 978.39 325.29 C 977.48 317.47 982.93 310.06 989.72 306.84 C 995.68 305.80 1002.39 307.46 1007.67 303.62 C 1015.36 297.91 1022.39 290.31 1032.20 288.38 Z" />
</g>
<g id="#5fef7fff">
<path fill="#5fef7f" fill-opacity="0" d=" M 1113.18 310.08 C 1127.34 302.26 1143.95 300.89 1159.70 299.04 C 1164.77 305.42 1170.37 311.77 1178.25 314.68 C 1182.23 316.07 1185.67 320.09 1184.34 324.50 C 1180.77 334.66 1168.91 338.47 1164.08 347.85 C 1163.23 352.37 1163.69 357.01 1163.49 361.59 C 1158.52 363.69 1150.98 364.17 1149.36 370.32 C 1149.68 375.35 1155.80 378.51 1155.06 383.82 C 1154.47 388.70 1152.41 393.28 1150.59 397.81 C 1146.19 405.82 1141.39 413.74 1138.55 422.49 C 1135.93 430.69 1139.58 438.83 1141.45 446.77 C 1127.13 449.30 1111.68 450.09 1098.23 443.69 C 1090.19 439.70 1083.34 433.18 1074.39 431.15 C 1066.01 432.07 1059.23 439.54 1050.45 438.50 C 1041.58 438.23 1034.02 433.55 1026.95 428.73 C 1035.12 414.63 1041.97 399.35 1044.57 383.22 C 1041.88 375.63 1036.90 369.03 1032.54 362.32 C 1035.30 356.65 1036.47 349.73 1041.97 345.91 C 1044.61 343.96 1048.08 344.33 1051.16 344.61 C 1059.34 345.39 1068.07 347.24 1075.97 343.94 C 1081.24 343.43 1082.50 337.85 1084.76 334.13 C 1089.26 324.30 1096.03 315.79 1101.26 306.36 C 1104.82 308.58 1108.63 311.72 1113.18 310.08 Z" />
</g>
<g id="#5fafbfff">
<path fill="#5fafbf" fill-opacity="0" d=" M 577.59 335.61 C 581.95 331.10 587.23 327.57 592.10 323.62 C 595.48 329.67 597.76 336.25 601.09 342.32 C 605.27 338.47 610.02 335.30 615.26 333.07 C 613.91 338.10 613.23 343.28 612.03 348.35 C 611.21 352.27 609.96 356.45 611.48 360.37 C 615.30 371.08 621.34 380.83 627.88 390.08 C 634.37 400.65 645.37 407.02 655.11 414.15 C 646.53 418.08 645.43 428.37 640.31 435.27 C 635.57 443.50 626.40 448.49 617.09 449.29 C 609.07 449.53 600.94 448.90 593.02 450.53 C 576.60 455.29 560.14 461.06 546.34 471.48 C 560.36 500.22 572.94 529.61 586.39 558.62 C 580.81 558.23 575.02 558.86 569.64 557.32 C 565.49 554.96 564.22 549.90 562.05 545.96 C 556.55 535.60 552.73 524.39 546.42 514.46 C 537.50 501.04 531.95 485.80 524.42 471.63 C 516.61 453.76 507.02 436.75 498.86 419.05 C 495.00 411.85 496.74 403.29 496.78 395.55 C 498.95 390.80 502.70 386.78 503.55 381.45 C 505.59 374.64 503.21 367.57 503.46 360.66 C 503.89 355.02 506.84 350.00 509.11 344.97 C 507.66 341.70 506.16 338.46 504.79 335.17 C 513.52 334.25 522.29 334.53 531.05 334.40 C 535.15 334.75 537.34 330.70 539.74 328.10 C 542.66 328.51 546.00 327.87 548.79 329.18 C 551.61 332.37 553.07 336.80 556.79 339.17 C 564.71 344.37 571.74 350.81 580.04 355.47 C 578.41 348.97 573.95 342.32 577.59 335.61 Z" />
</g>
<g id="#df2fbfff">
<path fill="#df2fbf" fill-opacity="0" d=" M 641.16 331.80 C 655.45 333.81 671.21 333.86 683.79 325.69 C 688.13 326.71 691.66 329.66 695.26 332.14 C 693.93 340.70 690.53 350.68 696.80 358.12 C 701.19 363.57 708.19 365.64 714.15 368.83 C 721.21 372.59 728.68 375.44 736.39 377.59 C 735.94 385.90 734.39 394.15 734.41 402.49 C 730.23 404.64 725.69 406.18 721.91 409.01 C 717.82 412.52 715.69 417.83 711.72 421.40 C 700.47 425.54 688.98 419.77 677.48 420.34 C 669.90 418.82 662.25 417.18 655.11 414.15 C 645.37 407.02 634.37 400.65 627.88 390.08 C 621.34 380.83 615.30 371.08 611.48 360.37 C 609.96 356.45 611.21 352.27 612.03 348.35 C 613.23 343.28 613.91 338.10 615.26 333.07 C 622.59 327.16 632.88 329.67 641.16 331.80 Z" />
</g>
<g id="#1f2fbfff">
<path fill="#1f2fbf" fill-opacity="0" d=" M 845.90 364.03 C 853.18 360.12 855.90 351.72 858.78 344.51 C 864.87 348.65 869.64 354.59 876.67 357.33 C 887.96 361.74 899.69 365.15 911.70 366.94 C 909.31 377.16 909.12 388.23 903.40 397.33 C 901.58 400.49 898.75 402.93 895.53 404.57 C 887.34 408.82 878.86 412.56 870.08 415.42 C 870.47 419.58 870.90 424.80 875.39 426.65 C 883.17 429.71 891.91 430.76 898.49 436.49 C 902.09 439.00 899.75 443.72 899.48 447.21 C 892.39 447.25 885.22 449.15 879.60 453.64 C 875.10 457.14 869.79 459.68 864.14 460.53 C 860.44 459.21 857.88 455.72 854.08 454.66 C 845.74 455.45 839.00 461.19 832.79 466.32 C 823.05 460.96 818.92 450.39 811.79 442.63 C 803.32 440.92 796.13 446.56 788.94 450.05 C 782.41 453.42 774.28 456.66 767.32 452.76 C 759.46 449.32 756.13 440.78 752.49 433.68 C 747.44 422.70 737.51 414.46 734.41 402.49 C 734.39 394.15 735.94 385.90 736.39 377.59 C 741.67 372.48 748.34 368.01 755.98 368.25 C 761.87 367.76 767.17 370.91 772.92 371.37 C 778.72 371.19 782.88 366.53 787.27 363.34 C 796.51 367.72 806.18 371.28 815.85 374.58 C 826.82 375.93 837.27 370.27 845.90 364.03 Z" />
</g>
<g id="#1f2f3fff">
<path fill="#1f2f3f" fill-opacity="0" d=" M 930.78 368.53 C 940.99 367.74 951.00 365.33 960.83 362.53 C 963.38 366.43 965.98 370.56 970.33 372.69 C 972.97 372.97 975.44 371.64 977.92 370.91 C 984.99 368.51 992.44 367.41 999.85 366.59 C 1003.99 372.80 1011.84 377.22 1019.34 375.08 C 1024.68 371.99 1029.03 367.34 1032.54 362.32 C 1036.90 369.03 1041.88 375.63 1044.57 383.22 C 1041.97 399.35 1035.12 414.63 1026.95 428.73 C 1019.28 438.40 1010.00 447.64 1006.43 459.79 C 1009.47 464.04 1013.99 466.93 1017.91 470.32 C 1023.04 474.30 1026.84 479.62 1030.95 484.57 C 1022.72 489.42 1014.39 494.15 1005.62 497.97 C 998.28 489.33 988.76 482.61 978.25 478.43 C 979.74 484.84 981.24 491.27 981.77 497.86 C 975.81 507.72 963.92 507.77 953.79 507.60 C 946.80 506.23 939.53 504.99 933.12 501.81 C 922.61 492.63 913.63 481.81 905.62 470.41 C 901.13 463.61 898.94 455.34 899.48 447.21 C 899.75 443.72 902.09 439.00 898.49 436.49 C 891.91 430.76 883.17 429.71 875.39 426.65 C 870.90 424.80 870.47 419.58 870.08 415.42 C 878.86 412.56 887.34 408.82 895.53 404.57 C 898.75 402.93 901.58 400.49 903.40 397.33 C 909.12 388.23 909.31 377.16 911.70 366.94 C 918.03 367.69 924.38 368.51 930.78 368.53 Z" />
</g>
<g id="#1f6f7fff">
<path fill="#1f6f7f" fill-opacity="0" d=" M 1138.55 422.49 C 1141.39 413.74 1146.19 405.82 1150.59 397.81 C 1163.26 399.24 1175.83 401.42 1188.51 402.79 C 1196.13 404.06 1204.65 403.87 1211.23 408.57 C 1217.72 413.61 1223.30 419.71 1229.33 425.28 C 1228.20 427.17 1227.09 429.06 1225.97 430.95 C 1231.49 441.72 1238.09 451.89 1245.38 461.55 C 1254.51 474.03 1258.61 489.20 1266.70 502.27 C 1271.47 510.32 1279.75 515.74 1283.68 524.36 C 1285.56 538.03 1296.91 547.08 1301.57 559.58 C 1304.75 566.43 1303.89 574.38 1300.86 581.13 C 1296.07 576.82 1289.43 576.10 1283.38 575.05 C 1277.79 581.54 1271.91 587.90 1265.04 593.06 C 1262.61 594.97 1259.36 595.80 1256.42 594.66 C 1245.23 590.69 1233.76 587.27 1223.58 580.98 C 1223.37 577.02 1222.59 573.12 1221.86 569.23 C 1213.25 565.35 1204.08 562.96 1194.71 561.87 C 1194.69 556.00 1197.21 548.95 1193.20 543.84 C 1187.36 542.02 1181.24 542.21 1175.23 542.39 C 1168.10 540.46 1161.61 535.33 1158.89 528.39 C 1159.02 521.86 1164.61 516.42 1163.47 509.57 C 1162.24 495.41 1141.95 493.17 1142.25 478.37 C 1147.30 479.47 1152.39 480.43 1157.54 480.87 C 1153.13 469.03 1144.55 459.16 1141.45 446.77 C 1139.58 438.83 1135.93 430.69 1138.55 422.49 Z" />
</g>
<g id="#9f2fbfff">
<path fill="#9f2fbf" fill-opacity="0" d=" M 721.91 409.01 C 725.69 406.18 730.23 404.64 734.41 402.49 C 737.51 414.46 747.44 422.70 752.49 433.68 C 756.13 440.78 759.46 449.32 767.32 452.76 C 774.28 456.66 782.41 453.42 788.94 450.05 C 796.13 446.56 803.32 440.92 811.79 442.63 C 818.92 450.39 823.05 460.96 832.79 466.32 C 823.11 479.10 817.38 495.26 804.10 505.01 C 791.75 513.56 777.75 519.21 764.44 526.00 C 753.85 522.44 744.53 515.18 733.14 514.23 C 729.09 513.87 726.40 517.39 723.67 519.81 C 717.99 525.46 710.94 529.76 706.42 536.52 C 703.44 535.10 699.96 533.96 698.22 530.93 C 695.89 526.83 694.70 522.22 693.09 517.82 C 696.70 510.02 701.64 502.11 700.91 493.15 C 700.30 487.13 696.61 482.33 693.50 477.42 C 687.51 469.07 692.73 456.72 684.52 449.48 C 679.43 443.88 673.61 438.98 668.27 433.63 C 671.46 429.29 674.67 424.95 677.48 420.34 C 688.98 419.77 700.47 425.54 711.72 421.40 C 715.69 417.83 717.82 412.52 721.91 409.01 Z" />
</g>
<g id="#dfaf3fff">
<path fill="#dfaf3f" fill-opacity="0" d=" M 1325.19 417.03 C 1328.53 415.99 1330.92 413.21 1333.19 410.69 C 1334.68 417.96 1340.99 422.63 1347.43 425.39 C 1357.97 428.05 1366.48 418.20 1376.81 419.29 C 1382.53 420.19 1382.61 427.59 1385.65 431.32 C 1389.58 433.82 1394.38 434.38 1398.40 436.73 C 1400.28 438.45 1401.16 440.97 1402.45 443.13 C 1395.27 452.27 1389.69 462.84 1380.84 470.51 C 1373.87 473.44 1366.00 472.79 1358.66 474.16 C 1356.78 478.20 1354.36 482.00 1351.38 485.31 C 1346.11 489.09 1339.83 491.04 1334.35 494.44 C 1330.47 496.69 1329.99 501.77 1327.91 505.34 C 1326.66 508.62 1324.44 511.87 1324.72 515.50 C 1327.02 520.84 1331.42 524.92 1334.78 529.62 C 1327.94 533.60 1320.66 529.08 1315.22 524.78 C 1309.79 519.92 1305.74 513.80 1301.60 507.88 C 1297.01 514.73 1290.65 520.06 1283.68 524.36 C 1279.75 515.74 1271.47 510.32 1266.70 502.27 C 1258.61 489.20 1254.51 474.03 1245.38 461.55 C 1238.09 451.89 1231.49 441.72 1225.97 430.95 C 1227.09 429.06 1228.20 427.17 1229.33 425.28 C 1237.28 422.41 1244.37 417.75 1251.93 414.07 C 1266.27 410.62 1279.60 420.47 1293.94 419.35 C 1298.15 418.89 1302.19 417.29 1306.46 417.14 C 1312.70 416.73 1318.96 417.95 1325.19 417.03 Z" />
</g>
<g id="#dfaf7fff">
<path fill="#dfaf7f" fill-opacity="0" d=" M 640.31 435.27 C 645.43 428.37 646.53 418.08 655.11 414.15 C 662.25 417.18 669.90 418.82 677.48 420.34 C 674.67 424.95 671.46 429.29 668.27 433.63 C 673.61 438.98 679.43 443.88 684.52 449.48 C 692.73 456.72 687.51 469.07 693.50 477.42 C 696.61 482.33 700.30 487.13 700.91 493.15 C 701.64 502.11 696.70 510.02 693.09 517.82 C 679.95 522.88 675.70 537.57 664.57 545.15 C 652.46 553.23 640.01 560.82 628.09 569.17 C 623.74 572.14 619.75 578.09 622.57 583.31 C 630.79 599.65 636.50 617.09 644.33 633.61 C 647.84 641.09 650.78 648.81 654.06 656.38 C 643.95 651.91 638.18 641.60 632.64 632.60 C 629.75 624.70 619.49 624.48 614.87 618.12 C 609.06 610.00 606.23 600.27 601.54 591.53 C 596.17 580.71 591.99 569.34 586.39 558.62 C 572.94 529.61 560.36 500.22 546.34 471.48 C 560.14 461.06 576.60 455.29 593.02 450.53 C 600.94 448.90 609.07 449.53 617.09 449.29 C 626.40 448.49 635.57 443.50 640.31 435.27 Z" />
</g>
<g id="#9fef00ff">
<path fill="#9fef00" fill-opacity="0" d=" M 1026.95 428.73 C 1034.02 433.55 1041.58 438.23 1050.45 438.50 C 1059.23 439.54 1066.01 432.07 1074.39 431.15 C 1083.34 433.18 1090.19 439.70 1098.23 443.69 C 1111.68 450.09 1127.13 449.30 1141.45 446.77 C 1144.55 459.16 1153.13 469.03 1157.54 480.87 C 1152.39 480.43 1147.30 479.47 1142.25 478.37 C 1141.95 493.17 1162.24 495.41 1163.47 509.57 C 1164.61 516.42 1159.02 521.86 1158.89 528.39 C 1161.61 535.33 1168.10 540.46 1175.23 542.39 C 1164.92 548.33 1154.70 554.41 1144.58 560.66 C 1138.53 564.64 1130.74 564.50 1124.21 561.85 C 1121.02 560.36 1117.72 561.71 1114.75 562.99 C 1109.09 560.20 1103.77 556.85 1098.39 553.62 C 1091.00 549.06 1081.90 547.64 1075.37 541.66 C 1070.05 536.71 1063.91 532.24 1060.29 525.79 C 1057.57 519.56 1056.46 512.74 1053.57 506.58 L 1053.34 506.21 C 1048.35 496.63 1038.63 491.56 1030.95 484.57 C 1026.84 479.62 1023.04 474.30 1017.91 470.32 C 1013.99 466.93 1009.47 464.04 1006.43 459.79 C 1010.00 447.64 1019.28 438.40 1026.95 428.73 Z" />
</g>
<g id="#5f6f7fff">
<path fill="#5f6f7f" fill-opacity="0" d=" M 1402.45 443.13 C 1410.38 446.75 1422.10 449.27 1423.27 459.65 C 1423.96 464.54 1428.38 467.37 1430.64 471.45 C 1433.38 481.47 1423.06 489.38 1425.79 499.26 C 1428.59 505.38 1433.50 510.18 1437.55 515.47 C 1440.92 521.12 1437.27 527.57 1436.34 533.38 C 1434.81 538.07 1436.73 542.89 1437.20 547.60 C 1438.33 555.07 1437.24 562.60 1437.32 570.11 C 1437.34 576.61 1437.77 583.13 1437.12 589.62 C 1428.41 593.10 1420.63 599.61 1411.17 600.71 C 1398.58 599.98 1388.51 591.08 1378.51 584.42 C 1375.70 582.29 1371.85 581.63 1368.86 583.81 C 1360.86 589.52 1354.05 597.52 1350.90 606.95 C 1348.37 613.76 1345.28 620.34 1342.72 627.13 C 1337.47 627.91 1332.09 627.54 1327.15 625.54 C 1327.32 619.42 1331.74 611.64 1326.15 606.86 C 1319.61 599.70 1310.28 595.35 1304.93 587.09 C 1303.57 585.10 1302.29 583.06 1300.86 581.13 C 1303.89 574.38 1304.75 566.43 1301.57 559.58 C 1296.91 547.08 1285.56 538.03 1283.68 524.36 C 1290.65 520.06 1297.01 514.73 1301.60 507.88 C 1305.74 513.80 1309.79 519.92 1315.22 524.78 C 1320.66 529.08 1327.94 533.60 1334.78 529.62 C 1331.42 524.92 1327.02 520.84 1324.72 515.50 C 1324.44 511.87 1326.66 508.62 1327.91 505.34 C 1329.99 501.77 1330.47 496.69 1334.35 494.44 C 1339.83 491.04 1346.11 489.09 1351.38 485.31 C 1354.36 482.00 1356.78 478.20 1358.66 474.16 C 1366.00 472.79 1373.87 473.44 1380.84 470.51 C 1389.69 462.84 1395.27 452.27 1402.45 443.13 M 1367.17 521.69 C 1366.57 527.08 1365.86 532.46 1365.13 537.83 C 1371.78 540.74 1378.69 538.29 1385.36 536.68 C 1383.54 533.36 1383.78 528.55 1380.34 526.35 C 1376.40 523.72 1371.63 522.93 1367.17 521.69 Z" />
</g>
<g id="#9fef7ffe">
<path fill="#9fef7f" fill-opacity="0" d=" M 879.60 453.64 C 885.22 449.15 892.39 447.25 899.48 447.21 C 898.94 455.34 901.13 463.61 905.62 470.41 C 913.63 481.81 922.61 492.63 933.12 501.81 C 939.53 504.99 946.80 506.23 953.79 507.60 C 952.16 515.08 949.15 523.04 951.74 530.68 C 958.58 546.33 972.64 556.92 983.02 569.99 C 983.99 573.24 983.88 576.77 984.29 580.14 C 972.91 583.50 962.05 588.64 952.19 595.23 C 949.19 597.03 946.24 599.28 942.73 599.92 C 938.67 600.04 934.84 598.28 930.82 598.06 C 927.82 598.08 925.14 599.90 922.70 601.38 C 914.71 604.86 915.41 615.92 907.80 619.82 C 900.43 623.66 893.81 628.73 886.55 632.75 C 874.23 636.50 860.89 636.27 849.19 642.12 C 840.14 640.64 830.01 640.36 822.39 634.63 C 819.94 632.54 817.41 629.71 817.69 626.26 C 818.17 618.69 820.59 611.40 821.27 603.86 C 820.84 597.10 815.95 591.41 815.67 584.63 C 817.06 578.07 823.16 572.77 821.90 565.59 C 814.48 549.75 799.77 538.63 783.94 532.01 C 777.81 528.90 770.86 528.24 764.44 526.00 C 777.75 519.21 791.75 513.56 804.10 505.01 C 817.38 495.26 823.11 479.10 832.79 466.32 C 839.00 461.19 845.74 455.45 854.08 454.66 C 857.88 455.72 860.44 459.21 864.14 460.53 C 869.79 459.68 875.10 457.14 879.60 453.64 M 845.49 515.10 C 844.32 520.76 849.79 523.75 853.30 527.02 C 860.16 526.00 867.01 524.74 873.64 522.63 C 872.32 519.94 871.69 515.29 867.82 515.42 C 860.38 515.08 852.93 515.71 845.49 515.10 Z" />
</g>
<g id="#9fafbfff">
<path fill="#9fafbf" fill-opacity="0" d=" M 978.25 478.43 C 988.76 482.61 998.28 489.33 1005.62 497.97 C 1014.39 494.15 1022.72 489.42 1030.95 484.57 C 1038.63 491.56 1048.35 496.63 1053.34 506.21 C 1046.57 504.12 1039.71 502.32 1033.07 499.86 C 1028.39 498.23 1023.40 496.12 1018.35 497.42 C 1012.71 499.25 1008.09 503.13 1003.58 506.83 C 1005.34 511.25 1007.16 515.64 1009.01 520.03 C 1020.17 519.60 1031.53 520.74 1042.63 519.19 C 1047.60 516.54 1049.81 510.64 1053.57 506.58 C 1056.46 512.74 1057.57 519.56 1060.29 525.79 C 1063.91 532.24 1070.05 536.71 1075.37 541.66 C 1081.90 547.64 1091.00 549.06 1098.39 553.62 C 1103.77 556.85 1109.09 560.20 1114.75 562.99 C 1113.59 571.53 1111.10 579.79 1108.70 588.05 C 1103.12 585.04 1097.26 582.47 1090.96 581.49 C 1096.28 592.25 1100.34 603.60 1102.13 615.51 C 1097.85 618.11 1094.11 621.98 1089.24 623.31 C 1072.30 617.20 1064.45 599.46 1053.16 586.86 C 1046.48 579.64 1036.38 576.17 1026.77 575.54 C 1012.87 577.28 998.85 578.16 984.97 579.99 L 984.29 580.14 C 983.88 576.77 983.99 573.24 983.02 569.99 C 972.64 556.92 958.58 546.33 951.74 530.68 C 949.15 523.04 952.16 515.08 953.79 507.60 C 963.92 507.77 975.81 507.72 981.77 497.86 C 981.24 491.27 979.74 484.84 978.25 478.43 Z" />
</g>
<g id="#1fafbffe">
<path fill="#1fafbf" fill-opacity="0" d=" M 1018.35 497.42 C 1023.40 496.12 1028.39 498.23 1033.07 499.86 C 1039.71 502.32 1046.57 504.12 1053.34 506.21 L 1053.57 506.58 C 1049.81 510.64 1047.60 516.54 1042.63 519.19 C 1031.53 520.74 1020.17 519.60 1009.01 520.03 C 1007.16 515.64 1005.34 511.25 1003.58 506.83 C 1008.09 503.13 1012.71 499.25 1018.35 497.42 Z" />
</g>
<g id="#1fef00ff">
<path fill="#1fef00" fill-opacity="0" d=" M 723.67 519.81 C 726.40 517.39 729.09 513.87 733.14 514.23 C 744.53 515.18 753.85 522.44 764.44 526.00 C 770.86 528.24 777.81 528.90 783.94 532.01 C 799.77 538.63 814.48 549.75 821.90 565.59 C 823.16 572.77 817.06 578.07 815.67 584.63 C 815.95 591.41 820.84 597.10 821.27 603.86 C 820.59 611.40 818.17 618.69 817.69 626.26 C 817.41 629.71 819.94 632.54 822.39 634.63 C 830.01 640.36 840.14 640.64 849.19 642.12 C 843.15 646.29 838.00 651.57 833.09 656.98 C 818.64 658.80 804.36 654.14 789.95 653.67 C 779.99 642.28 765.97 635.71 751.76 631.30 C 747.21 630.12 742.36 629.72 737.72 630.46 C 729.55 632.50 723.80 640.03 715.34 641.29 C 710.71 641.23 707.58 636.04 702.98 636.01 C 696.75 637.50 692.51 643.08 689.42 648.33 C 687.86 654.79 691.50 660.79 693.30 666.81 C 695.72 673.82 699.03 680.50 701.55 687.47 C 703.47 692.06 699.43 696.03 697.17 699.62 C 690.71 692.97 684.25 686.25 679.54 678.18 C 672.95 668.90 660.82 665.42 654.06 656.38 C 650.78 648.81 647.84 641.09 644.33 633.61 C 636.50 617.09 630.79 599.65 622.57 583.31 C 619.75 578.09 623.74 572.14 628.09 569.17 C 640.01 560.82 652.46 553.23 664.57 545.15 C 675.70 537.57 679.95 522.88 693.09 517.82 C 694.70 522.22 695.89 526.83 698.22 530.93 C 699.96 533.96 703.44 535.10 706.42 536.52 C 710.94 529.76 717.99 525.46 723.67 519.81 Z" />
</g>
<g id="#1fef7ffe">
<path fill="#1fef7f" fill-opacity="0" d=" M 845.49 515.10 C 852.93 515.71 860.38 515.08 867.82 515.42 C 871.69 515.29 872.32 519.94 873.64 522.63 C 867.01 524.74 860.16 526.00 853.30 527.02 C 849.79 523.75 844.32 520.76 845.49 515.10 Z" />
</g>
<g id="#dfef00ff">
<path fill="#dfef00" fill-opacity="0" d=" M 1367.17 521.69 C 1371.63 522.93 1376.40 523.72 1380.34 526.35 C 1383.78 528.55 1383.54 533.36 1385.36 536.68 C 1378.69 538.29 1371.78 540.74 1365.13 537.83 C 1365.86 532.46 1366.57 527.08 1367.17 521.69 Z" />
</g>
<g id="#5faf3ffe">
<path fill="#5faf3f" fill-opacity="0" d=" M 1175.23 542.39 C 1181.24 542.21 1187.36 542.02 1193.20 543.84 C 1197.21 548.95 1194.69 556.00 1194.71 561.87 C 1204.08 562.96 1213.25 565.35 1221.86 569.23 C 1222.59 573.12 1223.37 577.02 1223.58 580.98 C 1223.11 585.47 1220.90 589.91 1221.68 594.43 C 1224.97 600.44 1230.86 604.39 1235.67 609.10 C 1233.81 615.87 1232.58 622.94 1229.15 629.15 C 1225.30 636.35 1221.19 643.41 1217.00 650.42 C 1213.84 645.39 1209.54 641.02 1203.80 639.02 C 1200.76 650.84 1199.51 665.99 1187.30 672.30 C 1168.19 683.18 1146.44 688.30 1125.05 692.53 C 1124.03 687.25 1123.00 682.04 1121.83 676.82 C 1130.85 671.47 1140.65 667.36 1149.17 661.19 C 1152.48 658.99 1152.73 654.76 1153.51 651.24 C 1142.27 643.98 1128.81 640.38 1118.81 631.21 C 1112.93 626.28 1109.08 619.16 1102.13 615.51 C 1100.34 603.60 1096.28 592.25 1090.96 581.49 C 1097.26 582.47 1103.12 585.04 1108.70 588.05 C 1111.10 579.79 1113.59 571.53 1114.75 562.99 C 1117.72 561.71 1121.02 560.36 1124.21 561.85 C 1130.74 564.50 1138.53 564.64 1144.58 560.66 C 1154.70 554.41 1164.92 548.33 1175.23 542.39 Z" />
</g>
<g id="#5fef00ff">
<path fill="#5fef00" fill-opacity="0" d=" M 984.97 579.99 C 998.85 578.16 1012.87 577.28 1026.77 575.54 C 1036.38 576.17 1046.48 579.64 1053.16 586.86 C 1064.45 599.46 1072.30 617.20 1089.24 623.31 C 1094.11 621.98 1097.85 618.11 1102.13 615.51 C 1109.08 619.16 1112.93 626.28 1118.81 631.21 C 1128.81 640.38 1142.27 643.98 1153.51 651.24 C 1152.73 654.76 1152.48 658.99 1149.17 661.19 C 1140.65 667.36 1130.85 671.47 1121.83 676.82 C 1106.54 682.38 1090.26 684.95 1074.03 685.48 C 1067.50 686.24 1062.72 680.73 1057.89 677.19 C 1052.20 680.82 1046.19 683.96 1039.24 683.46 C 1032.92 666.53 1019.96 653.15 1011.66 637.27 C 1007.72 630.19 1007.35 621.94 1005.41 614.23 C 1003.36 606.57 1001.03 598.87 996.96 592.01 C 993.86 587.20 989.20 583.72 984.97 579.99 Z" />
</g>
<g id="#5f6f00ff">
<path fill="#5f6f00" fill-opacity="0" d=" M 1283.38 575.05 C 1289.43 576.10 1296.07 576.82 1300.86 581.13 C 1302.29 583.06 1303.57 585.10 1304.93 587.09 C 1310.28 595.35 1319.61 599.70 1326.15 606.86 C 1331.74 611.64 1327.32 619.42 1327.15 625.54 C 1332.09 627.54 1337.47 627.91 1342.72 627.13 C 1353.27 635.64 1361.85 646.31 1369.79 657.22 C 1371.86 659.77 1369.40 662.82 1368.26 665.22 C 1362.04 674.87 1356.42 684.88 1350.80 694.89 C 1348.44 697.86 1346.39 702.52 1342.01 702.61 C 1337.01 702.30 1332.55 699.09 1327.44 699.64 C 1323.25 699.87 1318.28 701.13 1316.26 705.21 C 1312.78 712.14 1308.89 718.85 1305.39 725.77 C 1296.03 726.00 1284.61 722.91 1277.51 730.63 C 1283.04 720.33 1288.03 709.74 1292.76 699.04 C 1285.61 692.76 1278.48 686.42 1270.66 680.96 C 1273.12 674.87 1273.31 667.46 1268.75 662.26 C 1262.51 655.50 1255.34 649.62 1248.26 643.78 C 1240.43 649.82 1233.10 657.95 1222.57 658.70 C 1220.73 655.92 1218.87 653.17 1217.00 650.42 C 1221.19 643.41 1225.30 636.35 1229.15 629.15 C 1232.58 622.94 1233.81 615.87 1235.67 609.10 C 1230.86 604.39 1224.97 600.44 1221.68 594.43 C 1220.90 589.91 1223.11 585.47 1223.58 580.98 C 1233.76 587.27 1245.23 590.69 1256.42 594.66 C 1259.36 595.80 1262.61 594.97 1265.04 593.06 C 1271.91 587.90 1277.79 581.54 1283.38 575.05 Z" />
</g>
<g id="#df6f00ff">
<path fill="#df6f00" fill-opacity="0" d=" M 952.19 595.23 C 962.05 588.64 972.91 583.50 984.29 580.14 L 984.97 579.99 C 989.20 583.72 993.86 587.20 996.96 592.01 C 1001.03 598.87 1003.36 606.57 1005.41 614.23 C 1007.35 621.94 1007.72 630.19 1011.66 637.27 C 1019.96 653.15 1032.92 666.53 1039.24 683.46 C 1038.73 689.96 1035.43 695.69 1032.26 701.22 C 1026.74 710.52 1032.64 722.49 1026.84 731.71 C 1019.52 743.44 1021.15 757.45 1019.10 770.52 C 1014.32 772.33 1009.86 776.06 1004.51 775.60 C 996.43 776.27 992.54 767.96 986.15 764.83 C 981.53 761.48 975.71 761.27 970.23 761.15 C 970.27 751.14 971.02 741.12 970.87 731.11 C 970.90 727.13 966.71 725.16 964.35 722.68 C 957.81 717.42 950.88 712.66 943.70 708.33 C 934.71 703.09 922.52 705.07 914.82 697.31 C 909.98 688.63 906.99 679.02 903.19 669.85 C 898.70 657.02 892.24 645.05 886.55 632.75 C 893.81 628.73 900.43 623.66 907.80 619.82 C 915.41 615.92 914.71 604.86 922.70 601.38 C 925.14 599.90 927.82 598.08 930.82 598.06 C 934.84 598.28 938.67 600.04 942.73 599.92 C 946.24 599.28 949.19 597.03 952.19 595.23 Z" />
</g>
<g id="#1faf3fff">
<path fill="#1faf3f" fill-opacity="0" d=" M 1368.86 583.81 C 1371.85 581.63 1375.70 582.29 1378.51 584.42 C 1388.51 591.08 1398.58 599.98 1411.17 600.71 C 1420.63 599.61 1428.41 593.10 1437.12 589.62 C 1439.55 597.56 1442.24 605.70 1447.87 612.03 C 1451.68 617.47 1457.13 623.33 1454.94 630.61 C 1454.60 639.56 1448.23 646.50 1443.68 653.72 C 1437.65 661.73 1432.75 670.56 1426.16 678.15 C 1418.02 689.16 1411.01 700.95 1403.21 712.19 C 1401.93 713.93 1400.20 716.35 1397.72 715.36 C 1391.19 713.63 1384.20 712.25 1378.45 708.57 C 1374.88 703.03 1375.91 695.02 1370.02 690.95 C 1363.92 686.29 1356.14 691.64 1350.80 694.89 C 1356.42 684.88 1362.04 674.87 1368.26 665.22 C 1369.40 662.82 1371.86 659.77 1369.79 657.22 C 1361.85 646.31 1353.27 635.64 1342.72 627.13 C 1345.28 620.34 1348.37 613.76 1350.90 606.95 C 1354.05 597.52 1360.86 589.52 1368.86 583.81 Z" />
</g>
<g id="#5f2fbfff">
<path fill="#5f2fbf" fill-opacity="0" d=" M 715.34 641.29 C 723.80 640.03 729.55 632.50 737.72 630.46 C 742.36 629.72 747.21 630.12 751.76 631.30 C 765.97 635.71 779.99 642.28 789.95 653.67 C 784.46 658.96 778.99 664.45 775.56 671.38 C 772.26 676.70 770.07 683.00 765.21 687.19 C 760.89 691.00 757.11 695.60 754.84 700.93 C 751.98 709.30 750.01 718.07 745.85 725.94 C 741.69 733.50 735.46 739.59 728.95 745.13 C 730.36 751.10 731.94 757.06 734.24 762.76 C 736.62 769.46 745.74 770.25 748.06 776.99 C 751.42 786.10 754.33 795.38 757.84 804.46 L 758.10 805.18 C 753.95 806.30 749.87 809.00 745.44 808.38 C 739.30 806.71 733.30 803.80 728.96 799.05 C 723.99 794.11 721.16 787.55 716.92 782.07 C 713.21 777.00 706.19 778.41 700.81 778.80 C 694.72 782.09 692.09 789.47 686.70 793.70 C 683.79 794.92 680.53 794.72 677.47 795.18 C 673.77 786.21 669.43 777.55 665.19 768.85 C 660.43 759.96 661.49 748.38 667.24 740.21 C 670.10 736.54 665.67 732.39 666.56 728.44 C 668.78 722.00 673.07 716.08 679.43 713.26 C 685.43 708.87 692.84 705.89 697.17 699.62 C 699.43 696.03 703.47 692.06 701.55 687.47 C 699.03 680.50 695.72 673.82 693.30 666.81 C 691.50 660.79 687.86 654.79 689.42 648.33 C 692.51 643.08 696.75 637.50 702.98 636.01 C 707.58 636.04 710.71 641.23 715.34 641.29 Z" />
</g>
<g id="#df2f3fff">
<path fill="#df2f3f" fill-opacity="0" d=" M 849.19 642.12 C 860.89 636.27 874.23 636.50 886.55 632.75 C 892.24 645.05 898.70 657.02 903.19 669.85 C 906.99 679.02 909.98 688.63 914.82 697.31 C 922.52 705.07 934.71 703.09 943.70 708.33 C 950.88 712.66 957.81 717.42 964.35 722.68 C 966.71 725.16 970.90 727.13 970.87 731.11 C 971.02 741.12 970.27 751.14 970.23 761.15 C 969.83 767.51 969.08 773.84 967.84 780.10 C 966.10 785.26 962.85 789.73 960.60 794.66 C 954.36 796.60 947.98 798.77 942.73 802.75 C 935.57 808.58 937.50 820.37 928.93 824.97 C 924.86 828.31 919.43 829.96 914.20 829.60 C 905.12 823.60 897.18 815.89 887.68 810.51 C 874.02 805.46 858.39 809.18 845.13 802.75 C 839.34 798.05 832.05 794.66 827.30 788.86 C 824.73 779.70 822.62 770.41 820.74 761.09 C 819.47 755.88 821.93 750.69 821.78 745.53 C 819.47 741.28 816.05 737.73 813.71 733.50 C 823.44 727.40 833.05 721.09 842.37 714.37 C 848.73 710.50 850.24 701.49 846.94 695.14 C 843.99 689.31 839.57 684.31 837.33 678.12 C 837.42 674.64 839.63 671.21 838.35 667.74 C 837.06 663.94 834.93 660.51 833.09 656.98 C 838.00 651.57 843.15 646.29 849.19 642.12 M 881.80 750.85 C 886.33 752.82 891.28 754.98 896.33 753.41 C 898.39 752.17 900.08 750.43 901.90 748.87 C 899.00 746.35 896.18 743.74 893.49 740.99 C 889.31 743.93 885.40 747.24 881.80 750.85 Z" />
</g>
<g id="#df6f7fff">
<path fill="#df6f7f" fill-opacity="0" d=" M 1203.80 639.02 C 1209.54 641.02 1213.84 645.39 1217.00 650.42 C 1218.87 653.17 1220.73 655.92 1222.57 658.70 C 1233.10 657.95 1240.43 649.82 1248.26 643.78 C 1255.34 649.62 1262.51 655.50 1268.75 662.26 C 1273.31 667.46 1273.12 674.87 1270.66 680.96 C 1278.48 686.42 1285.61 692.76 1292.76 699.04 C 1288.03 709.74 1283.04 720.33 1277.51 730.63 C 1275.94 733.71 1274.34 736.87 1273.77 740.31 C 1273.98 744.15 1277.53 747.77 1275.56 751.64 C 1269.22 764.68 1262.63 777.62 1255.59 790.29 C 1254.11 793.16 1250.44 792.68 1247.74 792.74 C 1244.13 792.82 1241.15 790.59 1238.33 788.67 C 1231.73 783.97 1225.22 779.09 1218.07 775.25 C 1213.22 773.22 1207.67 772.09 1204.04 767.99 C 1199.59 763.54 1195.72 756.95 1188.45 757.45 C 1184.85 756.67 1182.52 760.12 1180.32 762.32 C 1172.09 770.84 1167.31 782.47 1157.60 789.56 C 1147.69 793.21 1137.07 789.07 1127.72 785.54 C 1131.57 776.69 1133.29 767.10 1136.04 757.89 C 1138.06 752.29 1134.46 746.90 1131.88 742.18 C 1129.57 737.75 1125.61 734.35 1123.67 729.74 C 1123.18 717.35 1127.12 704.91 1125.05 692.53 C 1146.44 688.30 1168.19 683.18 1187.30 672.30 C 1199.51 665.99 1200.76 650.84 1203.80 639.02 Z" />
</g>
<g id="#9f6f00ff">
<path fill="#9f6f00" fill-opacity="0" d=" M 789.95 653.67 C 804.36 654.14 818.64 658.80 833.09 656.98 C 834.93 660.51 837.06 663.94 838.35 667.74 C 839.63 671.21 837.42 674.64 837.33 678.12 C 839.57 684.31 843.99 689.31 846.94 695.14 C 850.24 701.49 848.73 710.50 842.37 714.37 C 833.05 721.09 823.44 727.40 813.71 733.50 C 816.05 737.73 819.47 741.28 821.78 745.53 C 821.93 750.69 819.47 755.88 820.74 761.09 C 822.62 770.41 824.73 779.70 827.30 788.86 C 824.29 786.81 821.46 784.44 818.15 782.89 C 814.89 781.37 811.17 783.15 807.94 783.62 C 801.19 784.45 796.17 790.13 789.22 790.20 C 782.75 789.89 776.34 790.97 770.25 793.14 C 764.61 794.85 761.84 800.56 757.84 804.46 C 754.33 795.38 751.42 786.10 748.06 776.99 C 745.74 770.25 736.62 769.46 734.24 762.76 C 731.94 757.06 730.36 751.10 728.95 745.13 C 735.46 739.59 741.69 733.50 745.85 725.94 C 750.01 718.07 751.98 709.30 754.84 700.93 C 757.11 695.60 760.89 691.00 765.21 687.19 C 770.07 683.00 772.26 676.70 775.56 671.38 C 778.99 664.45 784.46 658.96 789.95 653.67 Z" />
</g>
<g id="#dfef7fff">
<path fill="#dfef7f" fill-opacity="0" d=" M 1039.24 683.46 C 1046.19 683.96 1052.20 680.82 1057.89 677.19 C 1062.72 680.73 1067.50 686.24 1074.03 685.48 C 1090.26 684.95 1106.54 682.38 1121.83 676.82 C 1123.00 682.04 1124.03 687.25 1125.05 692.53 C 1127.12 704.91 1123.18 717.35 1123.67 729.74 C 1125.61 734.35 1129.57 737.75 1131.88 742.18 C 1134.46 746.90 1138.06 752.29 1136.04 757.89 C 1133.29 767.10 1131.57 776.69 1127.72 785.54 C 1122.46 790.91 1114.99 796.61 1106.92 794.36 C 1100.64 795.76 1096.95 787.68 1090.88 789.73 C 1086.45 790.96 1080.96 792.30 1079.09 797.06 C 1076.28 803.91 1072.38 810.20 1067.92 816.09 C 1061.80 813.21 1055.71 809.92 1051.44 804.55 C 1047.16 800.31 1045.97 794.18 1042.49 789.42 C 1036.55 781.21 1029.12 773.49 1019.10 770.52 C 1021.15 757.45 1019.52 743.44 1026.84 731.71 C 1032.64 722.49 1026.74 710.52 1032.26 701.22 C 1035.43 695.69 1038.73 689.96 1039.24 683.46 Z" />
</g>
<g id="#5f2f3fff">
<path fill="#5f2f3f" fill-opacity="0" d=" M 881.80 750.85 C 885.40 747.24 889.31 743.93 893.49 740.99 C 896.18 743.74 899.00 746.35 901.90 748.87 C 900.08 750.43 898.39 752.17 896.33 753.41 C 891.28 754.98 886.33 752.82 881.80 750.85 Z" />
</g>
</svg>
