<?xml version="1.0" encoding="UTF-8" ?>
<!DOCTYPE svg PUBLIC "-//W3C//DTD SVG 1.1//EN" "http://www.w3.org/Graphics/SVG/1.1/DTD/svg11.dtd">
<svg width="1920pt" height="1080pt" viewBox="0 0 1920 1080" version="1.1" xmlns="http://www.w3.org/2000/svg">
<g id="#0f1f00ff">
<path fill="#0f1f00" fill-opacity="0" d=" M 793.45 215.43 C 802.61 214.82 812.58 215.61 820.73 220.27 C 827.44 224.88 827.94 234.09 832.88 240.11 C 834.90 242.65 838.47 242.59 841.42 242.81 C 848.45 242.78 855.41 243.81 862.32 245.04 L 862.08 245.82 C 857.19 261.28 851.80 276.92 851.84 293.32 C 852.56 304.39 859.68 314.40 857.94 325.75 C 857.51 331.49 854.42 336.62 849.94 340.09 C 846.94 341.61 843.68 343.40 840.20 342.81 C 832.52 341.78 825.02 339.40 817.24 339.33 C 810.00 339.16 802.81 340.42 795.68 341.50 C 781.17 344.06 768.02 351.36 753.48 353.86 C 753.39 357.04 753.21 360.21 753.20 363.41 C 750.83 354.39 751.33 344.99 751.95 335.78 C 755.04 335.16 759.09 336.10 761.80 333.86 C 762.77 331.54 762.51 328.95 762.68 326.50 C 765.90 323.04 767.84 318.73 769.59 314.40 C 770.99 310.46 775.11 308.78 778.29 306.55 C 779.04 308.88 779.82 311.22 780.66 313.53 C 781.87 310.93 783.43 308.28 783.46 305.33 C 782.52 293.42 779.01 281.87 778.29 269.95 C 777.09 260.09 783.76 250.87 780.87 241.02 C 780.63 236.49 778.50 231.62 780.23 227.22 C 783.70 222.43 788.11 218.12 793.45 215.43 Z" />
</g>
<g id="#2f3fbffe">
<path fill="#2f3fbf" fill-opacity="0" d=" M 862.08 245.82 C 875.28 248.38 888.09 254.07 901.79 253.44 C 904.35 253.47 907.22 253.00 909.48 254.52 C 912.87 257.22 915.00 261.12 918.09 264.14 C 923.60 268.18 930.64 270.50 934.94 276.11 C 938.90 280.82 937.39 287.53 938.29 293.19 C 943.78 295.15 949.47 296.49 955.23 297.43 C 959.33 298.40 964.12 298.65 967.48 301.56 C 970.32 305.06 969.91 310.38 973.59 313.36 C 978.84 317.30 985.42 319.19 991.92 319.70 C 997.60 319.69 1002.45 316.22 1007.48 314.01 C 1009.24 323.70 1010.53 333.56 1009.40 343.42 C 1007.84 352.86 1009.31 362.44 1007.74 371.87 C 1006.94 378.68 999.54 381.47 994.50 384.86 C 991.14 384.50 987.77 384.14 984.53 383.16 C 986.56 381.89 985.94 379.32 984.82 377.68 C 984.84 377.38 984.89 376.78 984.91 376.49 C 985.95 368.97 985.54 361.39 985.43 353.84 C 980.20 350.49 971.33 348.98 970.25 341.73 C 969.67 338.70 970.15 335.60 970.26 332.55 C 963.39 328.29 955.21 327.16 947.31 326.56 C 936.86 325.72 927.79 319.68 917.50 318.20 C 910.63 317.53 904.06 315.21 898.05 311.87 C 883.38 304.02 867.56 298.64 851.84 293.32 C 851.80 276.92 857.19 261.28 862.08 245.82 Z" />
</g>
<g id="#6f00bfff">
<path fill="#6f00bf" fill-opacity="0" d=" M 851.84 293.32 C 867.56 298.64 883.38 304.02 898.05 311.87 C 904.06 315.21 910.63 317.53 917.50 318.20 C 927.79 319.68 936.86 325.72 947.31 326.56 C 955.21 327.16 963.39 328.29 970.26 332.55 C 970.15 335.60 969.67 338.70 970.25 341.73 C 971.33 348.98 980.20 350.49 985.43 353.84 C 985.54 361.39 985.95 368.97 984.91 376.49 C 984.95 375.37 984.98 374.26 985.02 373.15 C 976.96 376.56 968.73 379.52 960.29 381.82 C 949.23 384.91 941.28 394.54 929.92 396.86 C 918.43 399.10 911.58 409.91 901.00 414.06 C 893.66 417.26 885.28 415.22 878.01 412.94 C 870.47 410.02 866.48 402.76 863.09 395.94 C 859.65 388.66 864.08 380.11 859.87 373.11 C 857.96 369.31 854.93 365.89 854.45 361.53 C 853.60 354.26 851.82 347.14 849.94 340.09 C 854.42 336.62 857.51 331.49 857.94 325.75 C 859.68 314.40 852.56 304.39 851.84 293.32 Z" />
<path fill="#6f00bf" fill-opacity="0" d=" M 983.97 383.00 C 984.18 381.67 984.60 379.01 984.82 377.68 C 985.94 379.32 986.56 381.89 984.53 383.16 L 983.97 383.00 Z" />
</g>
<g id="#af3f3ffe">
<path fill="#af3f3f" fill-opacity="0" d=" M 795.68 341.50 C 802.81 340.42 810.00 339.16 817.24 339.33 C 825.02 339.40 832.52 341.78 840.20 342.81 C 843.68 343.40 846.94 341.61 849.94 340.09 C 851.82 347.14 853.60 354.26 854.45 361.53 C 854.93 365.89 857.96 369.31 859.87 373.11 C 864.08 380.11 859.65 388.66 863.09 395.94 C 866.48 402.76 870.47 410.02 878.01 412.94 C 885.28 415.22 893.66 417.26 901.00 414.06 C 911.58 409.91 918.43 399.10 929.92 396.86 C 933.03 402.00 936.30 407.18 937.97 413.00 C 938.96 415.79 936.98 418.38 935.65 420.64 C 931.66 426.54 928.66 433.36 922.97 437.92 C 918.64 441.34 914.77 445.49 912.61 450.62 C 909.83 457.95 904.21 463.54 900.18 470.12 C 898.99 471.76 898.01 473.81 896.07 474.67 C 889.79 476.37 882.95 475.32 876.85 477.72 C 872.42 479.97 872.21 485.58 870.61 489.75 C 863.07 493.53 854.35 493.45 846.12 493.12 C 846.18 490.40 846.90 487.48 845.81 484.89 C 844.00 482.14 841.90 479.68 839.81 477.19 C 840.24 474.73 840.68 472.26 841.13 469.81 C 837.59 467.93 833.99 466.25 830.49 464.32 C 824.91 461.25 820.88 455.70 814.56 453.97 C 806.29 451.68 797.81 448.99 789.11 449.72 C 795.46 440.94 799.73 430.93 805.28 421.66 C 801.33 421.06 797.45 420.45 793.54 419.70 C 791.84 412.05 791.40 403.94 788.32 396.66 C 786.15 397.40 784.11 398.45 782.06 399.44 C 777.85 394.23 773.73 388.92 768.77 384.38 C 766.39 390.31 764.20 396.78 765.38 403.24 C 766.66 410.65 768.41 417.97 769.85 425.36 C 768.30 425.20 766.76 425.05 765.24 424.89 C 762.16 404.22 756.19 384.05 753.20 363.41 C 753.21 360.21 753.39 357.04 753.48 353.86 C 768.02 351.36 781.17 344.06 795.68 341.50 M 827.97 430.21 C 828.38 431.54 828.80 432.86 829.23 434.19 C 830.92 433.42 832.60 432.62 834.28 431.82 C 833.13 430.92 832.00 430.01 830.88 429.10 C 829.90 429.46 828.93 429.84 827.97 430.21 Z" />
</g>
<g id="#afbf3fff">
<path fill="#afbf3f" fill-opacity="0" d=" M 960.29 381.82 C 968.73 379.52 976.96 376.56 985.02 373.15 C 984.98 374.26 984.95 375.37 984.91 376.49 C 984.89 376.78 984.84 377.38 984.82 377.68 C 984.60 379.01 984.18 381.67 983.97 383.00 L 984.53 383.16 C 987.77 384.14 991.14 384.50 994.50 384.86 C 1001.11 385.99 1006.00 390.89 1011.03 394.91 C 1004.01 400.29 996.23 405.20 991.75 413.10 C 996.84 415.58 1002.39 417.55 1006.67 421.35 C 1008.05 422.30 1007.34 424.04 1007.16 425.39 C 1005.70 431.09 1003.30 436.72 1003.50 442.72 C 1004.45 449.99 1008.16 456.52 1009.17 463.80 C 1009.58 468.81 1010.13 474.07 1008.83 478.98 C 1004.71 487.08 994.79 485.29 987.24 485.67 C 979.99 485.86 972.96 488.20 965.68 487.91 C 960.02 487.57 955.28 491.38 951.35 495.02 C 955.70 498.76 961.03 501.71 964.22 506.59 C 966.98 512.73 966.81 519.65 968.57 526.08 C 966.62 527.77 964.66 529.43 962.74 531.15 C 956.40 529.48 949.83 528.69 943.28 528.70 C 933.54 528.70 924.41 524.10 917.50 517.45 C 911.95 511.87 903.10 513.48 896.82 509.21 C 888.03 502.79 877.26 498.74 870.61 489.75 C 872.21 485.58 872.42 479.97 876.85 477.72 C 882.95 475.32 889.79 476.37 896.07 474.67 C 898.01 473.81 898.99 471.76 900.18 470.12 C 904.21 463.54 909.83 457.95 912.61 450.62 C 914.77 445.49 918.64 441.34 922.97 437.92 C 928.66 433.36 931.66 426.54 935.65 420.64 C 936.98 418.38 938.96 415.79 937.97 413.00 C 936.30 407.18 933.03 402.00 929.92 396.86 C 941.28 394.54 949.23 384.91 960.29 381.82 Z" />
</g>
<g id="#af3fbfff">
<path fill="#af3fbf" fill-opacity="0" d=" M 768.77 384.38 C 773.73 388.92 777.85 394.23 782.06 399.44 C 784.11 398.45 786.15 397.40 788.32 396.66 C 791.40 403.94 791.84 412.05 793.54 419.70 C 797.45 420.45 801.33 421.06 805.28 421.66 C 799.73 430.93 795.46 440.94 789.11 449.72 C 780.68 457.17 770.40 462.35 762.99 470.99 C 751.85 482.12 742.57 498.75 747.57 514.77 C 751.99 529.93 755.26 545.39 759.46 560.62 C 756.84 563.31 753.83 566.15 753.15 570.01 C 752.36 578.11 750.96 586.18 751.01 594.35 C 749.48 594.07 747.96 593.80 746.44 593.53 C 736.11 557.75 726.20 521.83 715.94 486.02 C 714.91 481.77 713.17 477.55 713.16 473.13 C 714.78 470.31 717.95 469.04 720.66 467.52 C 720.69 461.96 718.96 455.03 723.79 450.80 C 727.06 446.53 732.88 446.55 737.70 447.34 C 737.40 442.28 736.59 437.25 736.07 432.22 C 737.14 432.02 738.23 431.83 739.32 431.64 C 740.33 429.38 741.22 427.02 742.71 425.02 C 749.89 422.25 757.86 423.65 765.24 424.89 C 766.76 425.05 768.30 425.20 769.85 425.36 C 768.41 417.97 766.66 410.65 765.38 403.24 C 764.20 396.78 766.39 390.31 768.77 384.38 Z" />
</g>
<g id="#8f1f00ff">
<path fill="#8f1f00" fill-opacity="0" d=" M 991.75 413.10 C 996.23 405.20 1004.01 400.29 1011.03 394.91 C 1012.87 396.31 1014.83 397.62 1016.28 399.46 C 1017.96 403.04 1017.86 407.45 1020.27 410.74 C 1024.70 411.99 1029.35 410.14 1033.78 411.21 C 1038.56 413.23 1042.52 417.26 1047.82 418.11 C 1053.28 418.73 1058.84 417.30 1064.24 418.75 C 1069.90 420.19 1075.70 419.18 1081.37 418.25 C 1081.65 425.51 1080.93 432.74 1079.83 439.90 C 1078.88 444.14 1082.38 447.74 1081.94 451.93 C 1081.43 457.36 1080.36 462.72 1079.36 468.07 C 1076.49 465.33 1074.30 461.33 1069.90 460.87 C 1064.58 461.73 1059.93 464.90 1054.76 466.31 C 1049.65 468.27 1044.15 468.27 1038.80 468.89 C 1033.69 469.52 1028.59 471.14 1023.41 470.30 C 1018.16 469.45 1013.84 466.10 1009.17 463.80 C 1008.16 456.52 1004.45 449.99 1003.50 442.72 C 1003.30 436.72 1005.70 431.09 1007.16 425.39 C 1007.34 424.04 1008.05 422.30 1006.67 421.35 C 1002.39 417.55 996.84 415.58 991.75 413.10 Z" />
</g>
<g id="#2fbf3fff">
<path fill="#2fbf3f" fill-opacity="0" d=" M 827.97 430.21 C 828.93 429.84 829.90 429.46 830.88 429.10 C 832.00 430.01 833.13 430.92 834.28 431.82 C 832.60 432.62 830.92 433.42 829.23 434.19 C 828.80 432.86 828.38 431.54 827.97 430.21 Z" />
</g>
<g id="#2fbfbfff">
<path fill="#2fbfbf" fill-opacity="0" d=" M 789.11 449.72 C 797.81 448.99 806.29 451.68 814.56 453.97 C 820.88 455.70 824.91 461.25 830.49 464.32 C 833.99 466.25 837.59 467.93 841.13 469.81 C 840.68 472.26 840.24 474.73 839.81 477.19 C 834.33 478.89 828.85 480.65 823.17 481.47 C 821.20 481.86 819.04 482.06 817.44 483.36 C 814.39 488.54 815.16 495.46 811.23 500.20 C 804.50 505.85 794.62 505.29 787.98 511.18 C 781.97 515.75 776.21 521.61 768.31 522.33 C 769.22 528.93 771.35 535.73 769.50 542.36 C 767.61 549.07 765.05 556.07 759.46 560.62 C 755.26 545.39 751.99 529.93 747.57 514.77 C 742.57 498.75 751.85 482.12 762.99 470.99 C 770.40 462.35 780.68 457.17 789.11 449.72 Z" />
</g>
<g id="#0f9f00ff">
<path fill="#0f9f00" fill-opacity="0" d=" M 1054.76 466.31 C 1059.93 464.90 1064.58 461.73 1069.90 460.87 C 1074.30 461.33 1076.49 465.33 1079.36 468.07 C 1084.73 472.95 1092.56 473.83 1099.54 473.65 C 1097.76 483.94 1096.40 494.31 1094.23 504.53 C 1091.66 512.75 1085.01 518.63 1077.76 522.78 C 1076.07 521.80 1074.35 520.42 1072.32 520.53 C 1065.17 522.22 1060.44 529.33 1053.02 530.22 C 1045.55 528.93 1039.13 524.33 1032.01 521.88 C 1026.97 519.72 1021.40 520.57 1016.14 521.15 C 1012.86 521.58 1009.27 522.44 1007.07 525.09 C 1003.09 531.70 1008.59 540.26 1004.83 546.84 C 1001.98 550.56 997.31 547.35 994.18 545.83 C 988.33 542.39 981.39 542.20 975.01 543.96 C 973.92 537.55 969.02 532.61 962.74 531.15 C 964.66 529.43 966.62 527.77 968.57 526.08 C 966.81 519.65 966.98 512.73 964.22 506.59 C 961.03 501.71 955.70 498.76 951.35 495.02 C 955.28 491.38 960.02 487.57 965.68 487.91 C 972.96 488.20 979.99 485.86 987.24 485.67 C 994.79 485.29 1004.71 487.08 1008.83 478.98 C 1010.13 474.07 1009.58 468.81 1009.17 463.80 C 1013.84 466.10 1018.16 469.45 1023.41 470.30 C 1028.59 471.14 1033.69 469.52 1038.80 468.89 C 1044.15 468.27 1049.65 468.27 1054.76 466.31 Z" />
</g>
<g id="#afbfbfff">
<path fill="#afbfbf" fill-opacity="0" d=" M 823.17 481.47 C 828.85 480.65 834.33 478.89 839.81 477.19 C 841.90 479.68 844.00 482.14 845.81 484.89 C 846.90 487.48 846.18 490.40 846.12 493.12 C 854.35 493.45 863.07 493.53 870.61 489.75 C 877.26 498.74 888.03 502.79 896.82 509.21 C 903.10 513.48 911.95 511.87 917.50 517.45 C 924.41 524.10 933.54 528.70 943.28 528.70 C 926.28 536.68 912.29 549.48 896.30 559.08 C 889.02 561.10 881.36 561.18 874.09 563.23 C 862.70 566.75 851.77 571.56 840.81 576.20 C 833.60 576.67 826.57 574.65 819.46 573.88 C 813.66 572.95 807.72 572.57 802.12 570.80 C 799.85 570.05 797.47 568.65 796.86 566.16 C 794.14 556.10 796.97 545.34 793.36 535.44 C 790.91 529.56 792.80 523.23 793.51 517.21 C 791.64 515.20 789.81 513.20 787.98 511.18 C 794.62 505.29 804.50 505.85 811.23 500.20 C 815.16 495.46 814.39 488.54 817.44 483.36 C 819.04 482.06 821.20 481.86 823.17 481.47 M 820.81 525.09 C 820.13 526.97 819.52 528.87 819.01 530.81 C 820.25 530.10 821.53 529.43 822.72 528.61 C 822.20 527.36 821.49 526.22 820.81 525.09 Z" />
</g>
<g id="#6f7fbfff">
<path fill="#6f7fbf" fill-opacity="0" d=" M 768.31 522.33 C 776.21 521.61 781.97 515.75 787.98 511.18 C 789.81 513.20 791.64 515.20 793.51 517.21 C 792.80 523.23 790.91 529.56 793.36 535.44 C 796.97 545.34 794.14 556.10 796.86 566.16 C 797.47 568.65 799.85 570.05 802.12 570.80 C 807.72 572.57 813.66 572.95 819.46 573.88 C 819.06 578.95 820.79 584.82 817.23 589.12 C 814.00 593.25 809.86 596.54 805.88 599.92 C 802.01 603.29 796.78 604.47 792.91 607.86 C 783.65 615.66 777.84 626.49 771.61 636.65 C 768.79 640.69 770.85 645.64 771.86 649.91 C 777.20 670.90 783.49 691.63 788.97 712.58 C 782.61 712.06 776.18 712.72 770.21 715.01 C 761.96 686.32 753.25 657.76 744.78 629.13 C 742.50 621.96 741.36 614.19 743.89 606.90 C 745.50 604.18 748.50 602.61 750.79 600.49 C 750.85 598.96 750.96 595.88 751.01 594.35 C 750.96 586.18 752.36 578.11 753.15 570.01 C 753.83 566.15 756.84 563.31 759.46 560.62 C 765.05 556.07 767.61 549.07 769.50 542.36 C 771.35 535.73 769.22 528.93 768.31 522.33 Z" />
</g>
<g id="#8f9f00fe">
<path fill="#8f9f00" fill-opacity="0" d=" M 1016.14 521.15 C 1021.40 520.57 1026.97 519.72 1032.01 521.88 C 1039.13 524.33 1045.55 528.93 1053.02 530.22 C 1060.44 529.33 1065.17 522.22 1072.32 520.53 C 1074.35 520.42 1076.07 521.80 1077.76 522.78 C 1088.55 531.64 1101.60 536.75 1113.92 543.00 C 1118.35 545.09 1119.80 550.39 1119.10 554.97 C 1117.70 562.75 1116.24 570.55 1114.18 578.19 C 1113.10 582.34 1109.14 584.65 1106.10 587.28 C 1107.82 578.67 1109.55 570.05 1110.16 561.27 C 1103.17 565.74 1096.00 570.17 1090.30 576.27 C 1084.84 583.85 1084.74 594.36 1078.27 601.30 C 1073.14 604.41 1068.11 599.30 1063.13 598.36 C 1059.26 601.44 1058.66 606.84 1055.43 610.40 C 1052.15 612.77 1047.92 613.05 1044.21 614.43 C 1035.09 617.19 1027.85 623.73 1020.55 629.52 C 1010.49 637.36 1005.56 649.70 996.39 658.40 C 993.84 660.85 990.32 661.84 986.95 662.56 C 979.97 662.62 972.17 660.46 966.26 665.27 C 962.11 668.50 959.39 673.15 955.62 676.79 C 948.94 673.29 942.24 669.70 936.97 664.16 C 939.82 659.14 942.34 653.93 944.65 648.64 C 947.79 641.50 952.45 635.15 957.37 629.14 C 967.30 617.64 980.18 607.25 983.40 591.63 C 984.69 585.64 982.43 579.90 978.87 575.24 C 972.28 566.05 976.58 554.33 975.01 543.96 C 981.39 542.20 988.33 542.39 994.18 545.83 C 997.31 547.35 1001.98 550.56 1004.83 546.84 C 1008.59 540.26 1003.09 531.70 1007.07 525.09 C 1009.27 522.44 1012.86 521.58 1016.14 521.15 Z" />
</g>
<g id="#6f3f3fff">
<path fill="#6f3f3f" fill-opacity="0" d=" M 820.81 525.09 C 821.49 526.22 822.20 527.36 822.72 528.61 C 821.53 529.43 820.25 530.10 819.01 530.81 C 819.52 528.87 820.13 526.97 820.81 525.09 Z" />
</g>
<g id="#efbf3fff">
<path fill="#efbf3f" fill-opacity="0" d=" M 943.28 528.70 C 949.83 528.69 956.40 529.48 962.74 531.15 C 969.02 532.61 973.92 537.55 975.01 543.96 C 976.58 554.33 972.28 566.05 978.87 575.24 C 982.43 579.90 984.69 585.64 983.40 591.63 C 980.18 607.25 967.30 617.64 957.37 629.14 C 950.31 625.50 941.52 623.38 934.26 627.63 C 927.43 631.66 919.76 633.97 911.81 633.45 C 914.32 629.63 918.50 626.33 918.59 621.45 C 918.88 615.26 915.76 609.58 914.98 603.54 C 914.39 595.66 919.37 587.56 916.16 579.88 C 913.06 573.51 905.32 572.09 900.71 567.23 C 898.85 564.73 897.48 561.94 896.30 559.08 C 912.29 549.48 926.28 536.68 943.28 528.70 Z" />
</g>
<g id="#2f3f3fff">
<path fill="#2f3f3f" fill-opacity="0" d=" M 874.09 563.23 C 881.36 561.18 889.02 561.10 896.30 559.08 C 897.48 561.94 898.85 564.73 900.71 567.23 C 905.32 572.09 913.06 573.51 916.16 579.88 C 919.37 587.56 914.39 595.66 914.98 603.54 C 915.76 609.58 918.88 615.26 918.59 621.45 C 918.50 626.33 914.32 629.63 911.81 633.45 C 900.87 633.55 893.41 642.23 883.93 645.98 C 878.57 648.18 875.03 641.43 874.94 637.05 C 872.84 625.71 864.80 615.70 853.49 612.60 C 855.61 608.63 857.27 603.82 855.70 599.39 C 852.61 590.61 846.82 583.16 840.81 576.20 C 851.77 571.56 862.70 566.75 874.09 563.23 Z" />
</g>
<g id="#ef3fbfff">
<path fill="#ef3fbf" fill-opacity="0" d=" M 1090.30 576.27 C 1096.00 570.17 1103.17 565.74 1110.16 561.27 C 1109.55 570.05 1107.82 578.67 1106.10 587.28 C 1103.23 595.72 1112.06 602.53 1119.32 604.44 C 1125.04 604.11 1129.46 599.60 1134.87 598.18 C 1136.78 598.35 1138.60 599.03 1140.47 599.53 C 1138.39 611.37 1135.11 622.94 1132.47 634.66 C 1130.73 641.02 1129.63 647.64 1126.81 653.65 C 1127.00 649.10 1127.72 644.61 1128.30 640.11 C 1126.35 639.87 1124.44 639.64 1122.58 639.43 C 1121.48 636.23 1119.88 632.65 1116.32 631.64 C 1112.59 630.57 1109.49 633.65 1106.59 635.47 C 1101.32 639.32 1093.80 641.82 1092.01 648.85 C 1089.98 655.29 1094.04 663.06 1089.80 668.71 C 1083.40 672.95 1075.25 673.21 1068.47 676.79 C 1063.24 674.25 1057.99 671.14 1051.94 671.44 C 1041.37 670.89 1033.08 680.92 1022.22 678.86 C 1014.71 677.25 1006.47 680.09 999.41 676.71 C 995.38 671.93 992.53 665.89 986.95 662.56 C 990.32 661.84 993.84 660.85 996.39 658.40 C 1005.56 649.70 1010.49 637.36 1020.55 629.52 C 1027.85 623.73 1035.09 617.19 1044.21 614.43 C 1047.92 613.05 1052.15 612.77 1055.43 610.40 C 1058.66 606.84 1059.26 601.44 1063.13 598.36 C 1068.11 599.30 1073.14 604.41 1078.27 601.30 C 1084.74 594.36 1084.84 583.85 1090.30 576.27 Z" />
</g>
<g id="#efbfbfff">
<path fill="#efbfbf" fill-opacity="0" d=" M 819.46 573.88 C 826.57 574.65 833.60 576.67 840.81 576.20 C 846.82 583.16 852.61 590.61 855.70 599.39 C 857.27 603.82 855.61 608.63 853.49 612.60 C 848.38 621.90 844.92 632.11 838.95 640.93 C 833.90 649.64 825.17 655.32 820.29 664.16 C 813.16 674.28 810.30 686.85 811.55 699.09 C 807.19 704.86 801.37 709.49 797.80 715.84 C 795.48 719.67 798.57 724.02 799.00 727.96 C 800.27 733.20 802.60 738.50 801.55 743.99 C 793.89 735.21 791.33 723.65 788.97 712.58 C 783.49 691.63 777.20 670.90 771.86 649.91 C 770.85 645.64 768.79 640.69 771.61 636.65 C 777.84 626.49 783.65 615.66 792.91 607.86 C 796.78 604.47 802.01 603.29 805.88 599.92 C 809.86 596.54 814.00 593.25 817.23 589.12 C 820.79 584.82 819.06 578.95 819.46 573.88 Z" />
</g>
<g id="#ef3f3fff">
<path fill="#ef3f3f" fill-opacity="0" d=" M 838.95 640.93 C 844.92 632.11 848.38 621.90 853.49 612.60 C 864.80 615.70 872.84 625.71 874.94 637.05 C 875.03 641.43 878.57 648.18 883.93 645.98 C 893.41 642.23 900.87 633.55 911.81 633.45 C 919.76 633.97 927.43 631.66 934.26 627.63 C 941.52 623.38 950.31 625.50 957.37 629.14 C 952.45 635.15 947.79 641.50 944.65 648.64 C 942.34 653.93 939.82 659.14 936.97 664.16 C 934.25 668.51 931.87 673.46 927.43 676.36 C 922.80 679.56 917.39 681.21 912.45 683.80 C 905.97 687.88 901.43 694.91 893.85 697.24 C 887.94 699.22 882.32 701.91 876.88 704.96 C 872.98 707.31 868.62 704.30 864.92 703.14 C 858.31 700.09 850.89 698.47 843.67 700.04 C 833.08 702.38 822.01 701.81 811.55 699.09 C 810.30 686.85 813.16 674.28 820.29 664.16 C 825.17 655.32 833.90 649.64 838.95 640.93 Z" />
</g>
<g id="#ef003fff">
<path fill="#ef003f" fill-opacity="0" d=" M 1106.59 635.47 C 1109.49 633.65 1112.59 630.57 1116.32 631.64 C 1119.88 632.65 1121.48 636.23 1122.58 639.43 C 1124.44 639.64 1126.35 639.87 1128.30 640.11 C 1127.72 644.61 1127.00 649.10 1126.81 653.65 C 1128.31 655.95 1131.25 656.36 1133.47 657.69 C 1139.78 660.34 1145.74 663.73 1151.65 667.19 C 1150.53 676.86 1149.65 686.54 1148.33 696.19 C 1143.21 697.73 1137.93 699.34 1133.59 702.58 C 1128.73 708.96 1127.07 716.99 1126.40 724.81 C 1126.03 734.09 1121.60 742.41 1119.79 751.39 C 1124.58 754.57 1130.99 756.58 1133.55 762.26 C 1135.27 767.91 1133.61 774.06 1135.35 779.69 C 1137.79 784.60 1142.95 788.01 1144.25 793.55 C 1144.65 797.95 1144.56 802.46 1143.99 806.87 C 1138.96 809.18 1133.45 808.93 1128.09 808.48 C 1118.50 808.49 1110.55 814.94 1101.77 818.03 C 1096.05 821.27 1093.23 827.85 1087.52 831.12 C 1084.38 832.80 1080.70 832.53 1077.27 832.52 C 1070.85 821.27 1057.47 815.59 1052.91 803.08 C 1051.88 799.06 1048.95 794.43 1051.41 790.45 C 1056.16 783.75 1066.89 782.42 1068.33 773.25 C 1070.07 768.77 1067.28 764.60 1063.98 761.82 C 1067.85 756.48 1073.00 751.65 1074.99 745.18 C 1076.82 736.90 1075.09 727.26 1068.82 721.21 C 1065.07 717.32 1060.03 714.32 1057.93 709.13 C 1055.56 697.38 1060.90 685.53 1068.47 676.79 C 1075.25 673.21 1083.40 672.95 1089.80 668.71 C 1094.04 663.06 1089.98 655.29 1092.01 648.85 C 1093.80 641.82 1101.32 639.32 1106.59 635.47 M 1085.66 722.06 C 1086.06 724.30 1087.15 726.95 1087.79 729.27 C 1089.14 728.80 1090.50 728.35 1091.87 727.89 C 1091.26 725.92 1090.66 723.94 1090.09 721.97 C 1088.60 721.99 1087.13 722.02 1085.66 722.06 Z" />
</g>
<g id="#6fbf3fff">
<path fill="#6fbf3f" fill-opacity="0" d=" M 966.26 665.27 C 972.17 660.46 979.97 662.62 986.95 662.56 C 992.53 665.89 995.38 671.93 999.41 676.71 C 1006.47 680.09 1014.71 677.25 1022.22 678.86 C 1033.08 680.92 1041.37 670.89 1051.94 671.44 C 1057.99 671.14 1063.24 674.25 1068.47 676.79 C 1060.90 685.53 1055.56 697.38 1057.93 709.13 C 1060.03 714.32 1065.07 717.32 1068.82 721.21 C 1075.09 727.26 1076.82 736.90 1074.99 745.18 C 1073.00 751.65 1067.85 756.48 1063.98 761.82 C 1059.00 763.00 1054.02 764.20 1049.05 765.36 C 1042.54 766.92 1035.72 765.19 1029.81 762.37 C 1019.22 757.05 1008.69 751.52 997.74 746.99 C 996.59 738.69 995.96 730.28 996.80 721.94 C 997.21 716.77 997.65 711.29 995.57 706.40 C 992.76 699.88 986.22 696.00 980.18 692.82 C 971.37 688.44 963.48 682.61 955.62 676.79 C 959.39 673.15 962.11 668.50 966.26 665.27 Z" />
</g>
<g id="#ef7fbfff">
<path fill="#ef7fbf" fill-opacity="0" d=" M 936.97 664.16 C 942.24 669.70 948.94 673.29 955.62 676.79 C 963.48 682.61 971.37 688.44 980.18 692.82 C 986.22 696.00 992.76 699.88 995.57 706.40 C 997.65 711.29 997.21 716.77 996.80 721.94 C 995.96 730.28 996.59 738.69 997.74 746.99 C 992.99 745.29 988.11 743.69 983.15 742.88 C 976.74 743.96 973.70 750.53 970.00 755.12 C 965.33 761.58 955.12 759.96 951.01 767.04 C 945.67 774.07 948.68 783.33 946.01 791.16 C 942.37 794.66 936.60 794.12 931.87 794.73 C 932.07 789.84 933.12 784.77 932.00 779.98 C 928.32 770.84 917.06 764.21 919.43 753.06 C 918.44 742.97 927.44 733.87 923.11 723.92 C 920.11 717.46 912.70 715.43 907.17 711.79 C 901.39 708.37 897.78 702.46 893.85 697.24 C 901.43 694.91 905.97 687.88 912.45 683.80 C 917.39 681.21 922.80 679.56 927.43 676.36 C 931.87 673.46 934.25 668.51 936.97 664.16 Z" />
</g>
<g id="#6fbfbfff">
<path fill="#6fbfbf" fill-opacity="0" d=" M 1133.59 702.58 C 1137.93 699.34 1143.21 697.73 1148.33 696.19 C 1155.27 704.05 1167.69 699.52 1175.82 705.20 C 1177.91 707.88 1179.06 711.17 1180.21 714.35 C 1180.11 717.71 1178.62 720.85 1177.82 724.08 C 1185.80 730.47 1195.93 726.82 1205.07 728.84 C 1209.16 729.01 1212.82 731.29 1215.28 734.49 C 1214.29 739.13 1211.54 743.21 1210.39 747.82 C 1211.74 749.33 1213.56 750.28 1215.25 751.43 C 1214.59 758.52 1210.08 764.35 1208.43 771.11 C 1209.45 776.60 1214.94 780.33 1216.39 785.78 C 1213.85 798.44 1204.22 808.33 1202.47 821.23 C 1199.65 829.50 1207.30 835.80 1209.85 843.07 C 1212.20 849.15 1209.78 855.49 1206.96 860.89 C 1202.72 869.01 1198.74 877.26 1194.52 885.39 C 1192.46 890.13 1186.84 890.89 1182.88 893.41 C 1180.42 892.60 1177.72 890.74 1175.17 892.25 C 1171.42 893.87 1167.40 896.72 1163.19 894.71 C 1157.77 892.49 1151.78 892.54 1146.16 893.92 C 1149.48 882.33 1158.41 871.01 1155.53 858.35 C 1150.17 847.16 1149.34 834.59 1144.95 823.07 C 1143.11 817.88 1143.18 812.25 1143.99 806.87 C 1144.56 802.46 1144.65 797.95 1144.25 793.55 C 1142.95 788.01 1137.79 784.60 1135.35 779.69 C 1133.61 774.06 1135.27 767.91 1133.55 762.26 C 1130.99 756.58 1124.58 754.57 1119.79 751.39 C 1121.60 742.41 1126.03 734.09 1126.40 724.81 C 1127.07 716.99 1128.73 708.96 1133.59 702.58 Z" />
</g>
<g id="#ef00bfff">
<path fill="#ef00bf" fill-opacity="0" d=" M 876.88 704.96 C 882.32 701.91 887.94 699.22 893.85 697.24 C 897.78 702.46 901.39 708.37 907.17 711.79 C 912.70 715.43 920.11 717.46 923.11 723.92 C 927.44 733.87 918.44 742.97 919.43 753.06 C 917.06 764.21 928.32 770.84 932.00 779.98 C 933.12 784.77 932.07 789.84 931.87 794.73 C 928.92 797.63 925.97 801.04 925.63 805.35 C 925.10 811.22 926.32 817.07 926.57 822.94 C 927.56 841.16 929.39 859.35 929.75 877.61 C 928.14 875.31 927.24 872.13 924.56 870.87 C 920.89 870.07 917.10 869.66 913.34 869.70 C 904.68 870.55 897.44 875.88 890.05 880.00 C 886.09 882.18 881.29 881.34 877.02 882.07 C 874.37 873.78 870.22 866.09 867.57 857.80 C 859.56 855.24 851.29 858.32 843.27 856.43 C 842.26 857.72 841.26 859.01 840.25 860.31 C 837.57 860.15 834.90 860.47 832.27 860.95 C 830.77 860.37 829.25 859.83 827.74 859.33 C 825.84 856.21 825.41 852.04 822.40 849.75 C 819.43 847.33 815.65 845.25 814.70 841.22 C 808.80 820.48 803.06 799.69 796.89 779.03 C 795.39 774.02 793.91 768.78 794.02 763.53 C 796.13 756.88 798.78 750.40 801.55 743.99 C 802.60 738.50 800.27 733.20 799.00 727.96 C 798.57 724.02 795.48 719.67 797.80 715.84 C 801.37 709.49 807.19 704.86 811.55 699.09 C 822.01 701.81 833.08 702.38 843.67 700.04 C 850.89 698.47 858.31 700.09 864.92 703.14 C 868.62 704.30 872.98 707.31 876.88 704.96 Z" />
</g>
<g id="#6f7f3fff">
<path fill="#6f7f3f" fill-opacity="0" d=" M 1085.66 722.06 C 1087.13 722.02 1088.60 721.99 1090.09 721.97 C 1090.66 723.94 1091.26 725.92 1091.87 727.89 C 1090.50 728.35 1089.14 728.80 1087.79 729.27 C 1087.15 726.95 1086.06 724.30 1085.66 722.06 Z" />
</g>
<g id="#6f3fbfff">
<path fill="#6f3fbf" fill-opacity="0" d=" M 983.15 742.88 C 988.11 743.69 992.99 745.29 997.74 746.99 C 1008.69 751.52 1019.22 757.05 1029.81 762.37 C 1035.72 765.19 1042.54 766.92 1049.05 765.36 C 1054.02 764.20 1059.00 763.00 1063.98 761.82 C 1067.28 764.60 1070.07 768.77 1068.33 773.25 C 1066.89 782.42 1056.16 783.75 1051.41 790.45 C 1048.95 794.43 1051.88 799.06 1052.91 803.08 C 1057.47 815.59 1070.85 821.27 1077.27 832.52 C 1079.18 836.59 1079.62 841.18 1078.48 845.57 C 1075.31 862.23 1070.45 878.52 1067.18 895.16 C 1066.01 901.01 1064.76 906.86 1062.59 912.44 C 1062.47 912.74 1062.23 913.34 1062.11 913.64 C 1061.59 912.12 1061.09 910.61 1060.63 909.10 C 1059.01 909.23 1057.40 909.37 1055.80 909.50 C 1053.66 907.99 1051.39 906.72 1048.99 905.73 C 1046.38 902.78 1043.85 898.39 1038.95 899.92 C 1034.10 900.23 1032.24 908.06 1026.57 905.15 C 1021.36 903.31 1017.07 899.59 1012.27 896.98 C 1011.47 898.19 1010.70 899.42 1009.93 900.65 C 1007.45 900.30 1004.81 899.20 1002.37 900.23 C 999.34 905.43 997.46 911.28 994.27 916.43 C 986.97 914.67 979.72 917.37 973.06 920.11 C 970.41 921.07 969.13 923.67 967.78 925.92 C 965.96 929.49 962.01 931.07 958.95 933.36 C 955.62 929.01 951.97 924.90 947.18 922.17 C 945.49 909.25 946.79 896.12 945.35 883.23 C 943.20 876.66 935.40 877.07 929.75 877.61 C 929.39 859.35 927.56 841.16 926.57 822.94 C 926.32 817.07 925.10 811.22 925.63 805.35 C 925.97 801.04 928.92 797.63 931.87 794.73 C 936.60 794.12 942.37 794.66 946.01 791.16 C 948.68 783.33 945.67 774.07 951.01 767.04 C 955.12 759.96 965.33 761.58 970.00 755.12 C 973.70 750.53 976.74 743.96 983.15 742.88 Z" />
</g>
<g id="#ef7f3ffe">
<path fill="#ef7f3f" fill-opacity="0" d=" M 1128.09 808.48 C 1133.45 808.93 1138.96 809.18 1143.99 806.87 C 1143.18 812.25 1143.11 817.88 1144.95 823.07 C 1149.34 834.59 1150.17 847.16 1155.53 858.35 C 1158.41 871.01 1149.48 882.33 1146.16 893.92 C 1144.95 897.10 1144.06 900.45 1142.24 903.35 C 1139.21 906.60 1134.53 908.21 1132.29 912.22 C 1126.49 923.45 1123.13 935.72 1117.84 947.19 C 1116.61 946.53 1115.40 945.89 1114.20 945.25 C 1111.13 947.69 1108.47 951.62 1104.17 951.60 C 1100.07 949.62 1099.75 944.07 1097.50 940.61 C 1096.24 941.78 1095.01 942.97 1093.79 944.18 C 1091.78 942.35 1089.29 940.75 1088.15 938.21 C 1087.20 934.63 1087.57 930.68 1085.60 927.40 C 1082.32 924.50 1076.90 925.51 1073.86 922.20 C 1072.10 919.39 1071.60 916.03 1070.59 912.94 C 1067.90 912.74 1065.22 912.57 1062.59 912.44 C 1064.76 906.86 1066.01 901.01 1067.18 895.16 C 1070.45 878.52 1075.31 862.23 1078.48 845.57 C 1079.62 841.18 1079.18 836.59 1077.27 832.52 C 1080.70 832.53 1084.38 832.80 1087.52 831.12 C 1093.23 827.85 1096.05 821.27 1101.77 818.03 C 1110.55 814.94 1118.50 808.49 1128.09 808.48 Z" />
</g>
</svg>
