<?xml version="1.0" encoding="UTF-8" ?>
<!DOCTYPE svg PUBLIC "-//W3C//DTD SVG 1.1//EN" "http://www.w3.org/Graphics/SVG/1.1/DTD/svg11.dtd">
<svg width="1920pt" height="1080pt" viewBox="0 0 1920 1080" version="1.1" xmlns="http://www.w3.org/2000/svg">
<g id="#5f00dfff">
<path fill="#5f00df" fill-opacity="0" d=" M 889.07 188.86 C 890.89 188.71 892.88 188.41 894.57 189.35 C 897.86 195.94 897.14 203.76 899.16 210.73 C 902.65 210.93 906.85 211.36 909.50 208.55 C 913.81 204.09 917.14 198.79 921.16 194.07 C 924.43 194.85 927.70 195.61 931.00 196.29 C 931.91 205.44 931.64 214.70 932.71 223.83 C 934.62 229.02 937.98 233.55 941.05 238.12 C 951.53 238.06 962.01 237.49 972.47 236.65 C 975.37 232.95 977.32 226.23 983.50 228.29 C 985.33 230.71 986.45 233.56 987.69 236.31 C 991.00 235.30 995.92 236.46 998.50 233.58 C 1000.53 227.50 1001.51 221.12 1003.12 214.91 C 1008.92 215.24 1014.76 215.68 1020.58 216.11 C 1021.83 220.32 1022.14 225.23 1025.59 228.34 C 1028.16 230.81 1031.29 233.15 1032.00 236.89 C 1033.52 243.85 1036.07 250.51 1038.37 257.25 C 1039.40 260.68 1040.01 264.21 1040.72 267.72 C 1032.77 272.58 1025.21 278.36 1016.38 281.56 C 1008.33 283.61 999.99 283.97 991.79 285.14 C 997.27 289.12 1003.39 293.41 1005.53 300.16 C 1005.11 312.93 993.09 320.96 981.82 323.93 C 986.06 326.08 990.35 328.15 994.39 330.69 C 997.80 333.11 999.46 337.14 1001.64 340.57 C 993.59 346.36 983.65 347.27 974.17 348.42 C 967.82 349.31 968.21 357.16 966.02 361.76 C 958.86 361.05 951.67 360.75 944.49 360.58 C 942.88 352.97 941.95 344.89 937.93 338.09 C 934.36 332.57 926.76 333.61 921.11 332.84 C 919.16 332.51 917.81 334.36 916.54 335.44 C 911.93 339.93 907.15 344.30 903.15 349.35 C 897.68 344.07 892.19 337.50 883.52 338.59 C 875.36 337.60 865.41 342.94 858.56 336.46 C 851.38 329.87 843.84 322.10 833.36 321.66 C 828.28 322.16 823.35 323.70 818.57 325.45 C 812.04 321.40 805.15 317.98 798.57 314.01 C 798.61 300.11 793.56 286.90 787.46 274.62 C 783.82 282.96 780.76 291.52 777.70 300.09 C 776.24 298.68 774.80 297.27 773.36 295.85 C 772.87 285.14 767.80 275.32 766.10 264.82 C 764.63 258.68 771.03 254.34 773.91 249.91 C 776.93 246.68 777.32 241.83 780.31 238.67 C 785.82 238.31 791.51 238.44 796.46 235.54 C 803.35 231.44 811.53 231.72 819.01 233.85 C 829.85 226.05 842.49 221.13 853.24 213.19 C 856.80 206.91 858.85 199.86 861.39 193.12 C 870.56 191.43 879.78 189.85 889.07 188.86 Z" />
</g>
<g id="#df00dfff">
<path fill="#df00df" fill-opacity="0" d=" M 1053.28 235.22 C 1058.15 226.53 1070.38 224.77 1078.60 229.48 C 1084.93 233.22 1091.11 237.37 1096.32 242.61 C 1099.77 246.63 1100.49 252.84 1105.51 255.49 C 1109.11 257.46 1112.70 259.85 1116.80 260.57 C 1121.56 258.25 1125.48 254.52 1130.20 252.08 C 1133.78 252.72 1137.10 254.39 1140.81 254.59 C 1144.41 253.53 1147.40 251.11 1150.62 249.25 C 1154.29 253.66 1157.73 258.39 1162.24 261.99 C 1165.53 261.53 1167.59 258.52 1169.88 256.41 C 1175.21 256.51 1180.58 256.66 1185.94 256.95 C 1186.72 262.43 1183.03 269.75 1187.86 274.10 C 1192.10 278.22 1195.95 282.77 1200.59 286.47 C 1202.57 288.35 1205.81 287.10 1208.01 286.08 C 1216.72 281.59 1225.04 276.42 1233.55 271.56 C 1234.20 273.26 1235.09 274.95 1235.25 276.79 C 1233.92 286.19 1229.06 294.62 1226.99 303.80 C 1229.18 306.05 1232.37 306.62 1235.31 307.23 L 1235.04 307.38 C 1226.49 312.23 1218.00 318.31 1213.15 327.11 C 1211.18 334.45 1214.85 341.55 1215.28 348.86 C 1208.91 351.57 1201.40 353.17 1196.97 358.90 C 1195.79 362.13 1198.12 365.40 1198.97 368.46 C 1192.56 374.96 1183.74 378.17 1176.53 383.56 C 1171.31 387.79 1173.30 395.59 1169.78 400.83 C 1167.68 403.46 1164.87 405.40 1162.28 407.50 C 1157.40 402.94 1152.49 398.42 1147.34 394.17 C 1141.09 408.40 1139.43 424.00 1136.81 439.17 C 1120.43 427.23 1103.49 416.06 1087.65 403.40 C 1082.76 400.18 1078.35 395.76 1077.32 389.71 C 1073.19 374.59 1067.25 360.08 1061.45 345.54 C 1059.81 340.81 1054.01 340.35 1050.23 338.25 C 1051.84 350.93 1055.17 363.30 1057.22 375.90 C 1058.17 380.14 1053.30 384.98 1049.11 382.94 C 1041.78 380.21 1035.18 375.87 1027.79 373.31 C 1007.31 368.97 986.77 364.65 966.02 361.76 C 968.21 357.16 967.82 349.31 974.17 348.42 C 983.65 347.27 993.59 346.36 1001.64 340.57 C 999.46 337.14 997.80 333.11 994.39 330.69 C 990.35 328.15 986.06 326.08 981.82 323.93 C 993.09 320.96 1005.11 312.93 1005.53 300.16 C 1003.39 293.41 997.27 289.12 991.79 285.14 C 999.99 283.97 1008.33 283.61 1016.38 281.56 C 1025.21 278.36 1032.77 272.58 1040.72 267.72 C 1040.01 264.21 1039.40 260.68 1038.37 257.25 C 1041.30 257.44 1044.23 257.73 1047.16 258.02 C 1048.83 250.36 1048.11 241.65 1053.28 235.22 M 1091.59 324.61 C 1089.66 327.49 1088.81 330.93 1087.55 334.12 C 1091.93 334.33 1096.63 335.45 1100.93 333.93 C 1103.45 332.89 1104.83 330.36 1106.47 328.33 C 1103.75 325.84 1101.09 323.29 1098.60 320.58 C 1096.23 321.88 1093.77 323.05 1091.59 324.61 Z" />
</g>
<g id="#9f005fff">
<path fill="#9f005f" fill-opacity="0" d=" M 777.70 300.09 C 780.76 291.52 783.82 282.96 787.46 274.62 C 793.56 286.90 798.61 300.11 798.57 314.01 C 805.15 317.98 812.04 321.40 818.57 325.45 C 809.27 329.52 799.45 332.94 791.63 339.65 C 779.68 349.64 769.66 361.77 757.71 371.71 C 753.16 372.81 748.82 369.17 744.46 368.07 C 739.70 376.13 735.44 384.81 728.72 391.43 C 709.88 405.14 689.45 416.88 672.97 433.59 C 673.95 434.75 674.94 435.92 675.94 437.09 C 671.85 440.55 667.63 443.91 664.05 447.93 C 659.10 445.61 654.50 442.62 649.85 439.80 C 644.66 445.03 639.68 450.44 634.77 455.93 C 638.71 460.69 645.57 465.77 644.18 472.56 C 638.68 478.79 630.71 482.21 623.92 486.86 C 616.57 477.34 608.58 468.34 601.10 458.92 C 596.54 453.64 592.06 446.56 584.36 446.04 C 578.80 446.08 573.53 448.28 568.13 449.39 C 568.52 445.86 568.91 442.35 569.44 438.84 C 575.78 438.19 581.68 435.83 587.45 433.28 C 589.88 436.17 591.57 440.31 595.39 441.67 C 600.89 444.44 603.01 438.84 605.77 435.72 C 609.84 429.58 618.43 432.04 624.23 428.53 C 624.70 429.86 625.15 431.18 625.63 432.53 C 629.91 430.90 634.01 428.85 637.99 426.59 C 639.24 427.98 640.47 429.39 641.68 430.83 C 645.67 430.45 649.76 430.52 653.70 429.63 C 658.62 423.58 655.19 415.34 656.39 408.28 C 656.39 404.65 660.01 402.23 663.34 402.02 C 668.16 401.92 672.96 402.51 677.79 402.38 C 678.14 397.47 676.53 392.85 675.80 388.10 C 676.99 383.23 680.94 379.63 683.49 375.42 C 686.82 370.50 692.42 367.08 693.59 360.83 C 693.48 357.80 692.15 354.99 691.28 352.13 C 695.63 348.92 700.19 345.87 703.86 341.85 C 707.94 337.54 705.53 330.79 707.83 325.80 C 711.73 320.11 718.29 317.03 722.55 311.63 C 726.83 311.22 731.27 311.54 735.52 310.57 C 738.04 305.61 739.22 300.05 741.42 294.94 C 746.97 293.16 748.95 298.64 751.46 302.02 C 756.57 302.14 761.69 302.04 766.82 301.75 C 769.54 300.51 771.12 297.74 773.36 295.85 C 774.80 297.27 776.24 298.68 777.70 300.09 Z" />
</g>
<g id="#1f3f5fff">
<path fill="#1f3f5f" fill-opacity="0" d=" M 1314.12 303.77 C 1318.13 302.32 1320.76 298.14 1324.94 297.22 C 1329.01 298.63 1332.90 301.18 1335.91 304.33 C 1334.97 309.94 1330.41 314.16 1328.88 319.60 C 1328.11 323.80 1330.45 327.63 1330.41 331.74 C 1329.16 335.68 1326.10 338.90 1325.38 343.01 C 1325.87 349.08 1329.25 354.65 1329.43 360.73 C 1326.42 369.20 1319.59 375.99 1317.23 384.67 C 1315.61 392.05 1322.08 395.80 1326.98 399.35 C 1315.33 409.51 1304.04 422.10 1287.97 424.64 C 1279.37 427.21 1269.90 421.87 1261.75 426.68 C 1252.98 429.91 1245.14 435.39 1235.90 437.34 C 1231.84 432.77 1226.66 427.75 1227.51 421.04 C 1229.05 412.44 1233.30 404.62 1236.35 396.49 C 1230.56 391.67 1224.88 386.68 1220.26 380.69 C 1217.23 376.73 1212.99 373.50 1211.05 368.83 C 1211.02 361.95 1214.62 355.67 1215.28 348.86 C 1214.85 341.55 1211.18 334.45 1213.15 327.11 C 1218.00 318.31 1226.49 312.23 1235.04 307.38 C 1249.84 308.55 1263.73 315.57 1278.75 315.53 C 1288.27 311.49 1295.40 303.02 1305.11 299.33 C 1308.39 300.14 1310.97 302.58 1314.12 303.77 M 1289.85 376.03 C 1292.09 381.93 1295.31 387.37 1298.31 392.91 C 1300.84 392.54 1303.73 392.24 1306.34 391.87 C 1303.27 385.04 1297.99 376.91 1289.85 376.03 Z" />
</g>
<g id="#9f7f5ffe">
<path fill="#9f7f5f" fill-opacity="0" d=" M 833.36 321.66 C 843.84 322.10 851.38 329.87 858.56 336.46 C 865.41 342.94 875.36 337.60 883.52 338.59 C 892.19 337.50 897.68 344.07 903.15 349.35 C 898.81 358.68 894.22 367.97 886.60 375.20 C 880.16 371.88 873.07 370.35 865.88 369.83 C 868.24 381.13 872.72 392.89 869.30 404.51 C 864.00 418.30 853.02 428.66 841.97 437.98 C 838.88 440.99 834.99 443.68 833.45 447.88 C 838.74 457.94 844.92 467.56 849.29 478.11 C 837.38 486.27 825.88 495.07 813.49 502.50 C 806.84 506.50 798.65 505.10 791.60 507.84 C 787.62 509.79 784.11 512.55 780.55 515.15 C 772.03 507.69 760.80 502.95 749.30 504.53 C 748.01 509.33 746.63 514.10 745.31 518.90 C 742.55 517.32 739.39 516.27 737.06 514.05 C 735.32 511.69 734.53 508.81 733.42 506.15 C 729.81 497.55 725.43 489.24 720.64 481.27 C 716.94 477.97 711.94 471.01 706.17 474.22 C 701.29 476.42 696.72 479.25 692.05 481.85 C 688.75 478.88 685.43 475.93 681.89 473.27 C 679.54 474.56 677.35 476.92 674.58 477.04 C 668.73 474.75 664.37 469.89 659.20 466.47 C 660.59 460.23 661.60 453.86 664.05 447.93 C 667.63 443.91 671.85 440.55 675.94 437.09 C 674.94 435.92 673.95 434.75 672.97 433.59 C 689.45 416.88 709.88 405.14 728.72 391.43 C 735.44 384.81 739.70 376.13 744.46 368.07 C 748.82 369.17 753.16 372.81 757.71 371.71 C 769.66 361.77 779.68 349.64 791.63 339.65 C 799.45 332.94 809.27 329.52 818.57 325.45 C 823.35 323.70 828.28 322.16 833.36 321.66 M 731.33 418.94 C 727.27 419.75 722.75 420.60 719.71 423.62 C 717.11 427.11 715.61 431.26 713.66 435.11 C 727.04 446.84 741.74 457.08 758.05 464.32 C 762.80 460.07 767.38 455.63 771.61 450.86 C 769.62 443.93 771.37 436.58 769.21 429.68 C 756.20 427.50 744.54 420.18 731.33 418.94 Z" />
</g>
<g id="#5f7fdfff">
<path fill="#5f7fdf" fill-opacity="0" d=" M 1091.59 324.61 C 1093.77 323.05 1096.23 321.88 1098.60 320.58 C 1101.09 323.29 1103.75 325.84 1106.47 328.33 C 1104.83 330.36 1103.45 332.89 1100.93 333.93 C 1096.63 335.45 1091.93 334.33 1087.55 334.12 C 1088.81 330.93 1089.66 327.49 1091.59 324.61 Z" />
</g>
<g id="#9fbf9fff">
<path fill="#9fbf9f" fill-opacity="0" d=" M 916.54 335.44 C 917.81 334.36 919.16 332.51 921.11 332.84 C 926.76 333.61 934.36 332.57 937.93 338.09 C 941.95 344.89 942.88 352.97 944.49 360.58 C 951.67 360.75 958.86 361.05 966.02 361.76 C 986.77 364.65 1007.31 368.97 1027.79 373.31 C 1028.85 383.23 1030.81 393.10 1030.65 403.11 C 1030.70 406.18 1028.17 408.33 1026.62 410.72 C 1023.69 414.27 1023.75 419.12 1023.29 423.47 C 1022.07 444.98 1018.89 466.32 1017.66 487.83 C 1013.81 488.62 1010.02 489.99 1006.09 490.26 C 1002.88 488.79 1000.17 486.49 997.26 484.58 C 995.12 487.65 992.66 490.62 989.25 492.31 C 981.29 496.43 973.25 500.42 965.10 504.14 C 956.36 507.67 954.88 518.32 951.64 526.11 C 945.64 526.65 939.50 525.67 933.61 527.04 C 926.25 531.29 920.05 537.18 913.25 542.23 C 909.57 545.36 904.58 548.14 903.63 553.29 C 901.84 564.38 901.30 575.79 897.95 586.56 C 893.74 592.98 887.67 598.01 883.68 604.64 C 878.48 601.03 872.30 599.39 866.62 596.75 C 862.92 595.04 859.87 591.31 860.53 586.93 C 859.94 581.65 860.62 576.27 859.81 571.03 C 858.30 564.53 854.19 558.99 850.27 553.77 C 844.75 547.91 839.23 541.50 831.53 538.53 C 818.53 533.31 804.97 529.68 791.53 525.77 C 786.22 524.46 783.97 518.78 780.55 515.15 C 784.11 512.55 787.62 509.79 791.60 507.84 C 798.65 505.10 806.84 506.50 813.49 502.50 C 825.88 495.07 837.38 486.27 849.29 478.11 C 844.92 467.56 838.74 457.94 833.45 447.88 C 834.99 443.68 838.88 440.99 841.97 437.98 C 853.02 428.66 864.00 418.30 869.30 404.51 C 872.72 392.89 868.24 381.13 865.88 369.83 C 873.07 370.35 880.16 371.88 886.60 375.20 C 894.22 367.97 898.81 358.68 903.15 349.35 C 907.15 344.30 911.93 339.93 916.54 335.44 Z" />
</g>
<g id="#5fbf1fff">
<path fill="#5fbf1f" fill-opacity="0" d=" M 1050.23 338.25 C 1054.01 340.35 1059.81 340.81 1061.45 345.54 C 1067.25 360.08 1073.19 374.59 1077.32 389.71 C 1078.35 395.76 1082.76 400.18 1087.65 403.40 C 1103.49 416.06 1120.43 427.23 1136.81 439.17 C 1136.86 444.54 1135.01 449.71 1131.66 453.86 C 1125.40 461.51 1118.33 468.48 1112.29 476.30 C 1106.22 484.77 1108.72 495.78 1104.84 504.95 C 1100.53 510.33 1093.16 512.47 1089.36 518.38 C 1085.85 525.93 1090.13 534.57 1087.35 542.25 C 1084.97 548.38 1078.52 551.16 1073.41 554.67 C 1073.53 560.60 1073.45 566.55 1072.93 572.47 C 1067.82 567.67 1062.12 563.50 1056.32 559.62 C 1053.36 557.55 1048.23 557.55 1046.57 561.27 C 1043.50 566.42 1041.95 574.19 1035.36 575.98 C 1027.32 576.60 1019.29 574.46 1011.27 574.99 C 1006.48 577.83 1005.28 584.27 1000.69 587.41 C 995.87 589.44 990.10 588.90 985.56 591.62 C 982.30 595.03 980.84 599.69 978.85 603.87 C 973.27 603.93 967.05 600.52 961.83 603.76 C 956.15 607.31 950.03 610.91 946.31 616.70 C 941.29 626.96 929.28 631.08 918.59 631.73 C 914.04 633.57 910.53 630.21 907.49 627.54 C 902.74 623.18 897.61 619.26 892.83 614.96 C 892.57 614.69 892.04 614.15 891.78 613.88 C 889.10 610.78 886.70 607.43 883.68 604.64 C 887.67 598.01 893.74 592.98 897.95 586.56 C 901.30 575.79 901.84 564.38 903.63 553.29 C 904.58 548.14 909.57 545.36 913.25 542.23 C 920.05 537.18 926.25 531.29 933.61 527.04 C 939.50 525.67 945.64 526.65 951.64 526.11 C 954.88 518.32 956.36 507.67 965.10 504.14 C 973.25 500.42 981.29 496.43 989.25 492.31 C 992.66 490.62 995.12 487.65 997.26 484.58 C 1000.17 486.49 1002.88 488.79 1006.09 490.26 C 1010.02 489.99 1013.81 488.62 1017.66 487.83 C 1018.89 466.32 1022.07 444.98 1023.29 423.47 C 1023.75 419.12 1023.69 414.27 1026.62 410.72 C 1028.17 408.33 1030.70 406.18 1030.65 403.11 C 1030.81 393.10 1028.85 383.23 1027.79 373.31 C 1035.18 375.87 1041.78 380.21 1049.11 382.94 C 1053.30 384.98 1058.17 380.14 1057.22 375.90 C 1055.17 363.30 1051.84 350.93 1050.23 338.25 Z" />
</g>
<g id="#9f7fdfff">
<path fill="#9f7fdf" fill-opacity="0" d=" M 1196.97 358.90 C 1201.40 353.17 1208.91 351.57 1215.28 348.86 C 1214.62 355.67 1211.02 361.95 1211.05 368.83 C 1212.99 373.50 1217.23 376.73 1220.26 380.69 C 1224.88 386.68 1230.56 391.67 1236.35 396.49 C 1233.30 404.62 1229.05 412.44 1227.51 421.04 C 1226.66 427.75 1231.84 432.77 1235.90 437.34 C 1238.12 441.39 1239.19 445.94 1241.32 450.03 C 1243.48 453.75 1246.24 457.11 1248.89 460.53 C 1241.10 467.25 1239.83 478.37 1232.00 485.02 C 1226.34 490.61 1217.49 489.43 1210.42 487.71 C 1205.91 486.16 1202.01 489.65 1198.00 491.06 C 1194.12 493.05 1189.79 491.00 1185.73 491.54 C 1181.35 492.79 1177.59 495.75 1173.08 496.50 C 1167.08 494.27 1163.98 487.87 1159.38 483.81 C 1155.85 487.98 1152.60 492.37 1148.97 496.45 C 1144.98 488.47 1140.88 480.52 1137.71 472.16 C 1135.49 466.13 1133.99 459.86 1131.66 453.86 C 1135.01 449.71 1136.86 444.54 1136.81 439.17 C 1139.43 424.00 1141.09 408.40 1147.34 394.17 C 1152.49 398.42 1157.40 402.94 1162.28 407.50 C 1164.87 405.40 1167.68 403.46 1169.78 400.83 C 1173.30 395.59 1171.31 387.79 1176.53 383.56 C 1183.74 378.17 1192.56 374.96 1198.97 368.46 C 1198.12 365.40 1195.79 362.13 1196.97 358.90 Z" />
</g>
<g id="#1f3f9ffe">
<path fill="#1f3f9f" fill-opacity="0" d=" M 1289.85 376.03 C 1297.99 376.91 1303.27 385.04 1306.34 391.87 C 1303.73 392.24 1300.84 392.54 1298.31 392.91 C 1295.31 387.37 1292.09 381.93 1289.85 376.03 Z" />
</g>
<g id="#df7fdfff">
<path fill="#df7fdf" fill-opacity="0" d=" M 1287.97 424.64 C 1304.04 422.10 1315.33 409.51 1326.98 399.35 C 1331.67 403.22 1336.36 407.09 1340.94 411.10 C 1344.19 415.13 1346.64 408.34 1349.32 406.65 C 1350.83 410.07 1351.86 413.85 1354.24 416.80 C 1356.71 418.60 1359.82 419.66 1362.90 419.68 C 1366.75 418.17 1369.86 415.18 1373.29 412.88 C 1376.35 420.22 1370.65 427.88 1373.68 435.19 C 1375.97 442.95 1385.39 443.71 1390.93 448.34 C 1390.59 455.40 1383.15 459.55 1379.44 465.10 C 1379.63 469.01 1380.83 473.24 1379.13 477.03 C 1375.37 486.81 1365.80 492.78 1361.51 502.29 C 1366.46 504.33 1372.17 506.04 1375.07 510.98 C 1377.55 515.31 1383.25 521.09 1379.29 526.27 C 1370.22 537.77 1359.44 547.80 1350.05 559.04 C 1347.08 562.41 1344.38 566.07 1340.82 568.85 C 1336.40 571.97 1331.53 574.52 1327.64 578.30 C 1326.33 577.73 1325.04 577.16 1323.76 576.61 C 1333.17 566.63 1342.34 556.40 1350.82 545.61 C 1340.62 540.04 1329.56 535.73 1320.30 528.65 C 1314.87 520.97 1316.23 510.61 1311.38 502.60 C 1307.45 496.37 1303.06 490.40 1298.01 485.04 C 1294.13 481.81 1289.12 480.47 1284.59 478.43 C 1276.75 475.34 1270.68 469.11 1263.01 465.70 C 1258.36 463.75 1253.67 462.06 1248.89 460.53 C 1246.24 457.11 1243.48 453.75 1241.32 450.03 C 1239.19 445.94 1238.12 441.39 1235.90 437.34 C 1245.14 435.39 1252.98 429.91 1261.75 426.68 C 1269.90 421.87 1279.37 427.21 1287.97 424.64 Z" />
</g>
<g id="#1f00dfff">
<path fill="#1f00df" fill-opacity="0" d=" M 731.33 418.94 C 744.54 420.18 756.20 427.50 769.21 429.68 C 771.37 436.58 769.62 443.93 771.61 450.86 C 767.38 455.63 762.80 460.07 758.05 464.32 C 741.74 457.08 727.04 446.84 713.66 435.11 C 715.61 431.26 717.11 427.11 719.71 423.62 C 722.75 420.60 727.27 419.75 731.33 418.94 Z" />
</g>
<g id="#9fbf1fff">
<path fill="#9fbf1f" fill-opacity="0" d=" M 634.77 455.93 C 639.68 450.44 644.66 445.03 649.85 439.80 C 654.50 442.62 659.10 445.61 664.05 447.93 C 661.60 453.86 660.59 460.23 659.20 466.47 C 664.37 469.89 668.73 474.75 674.58 477.04 C 677.35 476.92 679.54 474.56 681.89 473.27 C 685.43 475.93 688.75 478.88 692.05 481.85 C 696.72 479.25 701.29 476.42 706.17 474.22 C 711.94 471.01 716.94 477.97 720.64 481.27 C 725.43 489.24 729.81 497.55 733.42 506.15 C 728.62 509.01 723.81 511.86 719.03 514.75 C 715.87 511.05 712.72 507.35 709.58 503.64 C 701.42 505.36 697.37 514.82 698.69 522.49 C 701.59 529.32 705.58 535.63 709.19 542.11 C 694.95 549.37 680.07 555.28 665.62 562.10 C 661.37 557.47 657.36 552.45 651.88 549.20 C 641.11 542.47 629.87 536.52 618.88 530.15 C 611.11 525.99 603.99 520.68 595.87 517.18 C 591.79 515.61 587.44 517.13 583.35 517.83 C 576.57 509.82 570.57 501.20 563.60 493.36 C 562.04 491.32 559.93 489.46 559.50 486.82 C 560.13 481.21 565.46 477.40 566.67 472.10 C 565.30 467.03 562.20 462.57 560.56 457.60 C 562.99 456.69 565.40 455.74 567.82 454.80 C 567.72 453.49 567.53 450.86 567.44 449.55 L 568.13 449.39 C 573.53 448.28 578.80 446.08 584.36 446.04 C 592.06 446.56 596.54 453.64 601.10 458.92 C 608.58 468.34 616.57 477.34 623.92 486.86 C 630.71 482.21 638.68 478.79 644.18 472.56 C 645.57 465.77 638.71 460.69 634.77 455.93 Z" />
</g>
<g id="#9f3f5fff">
<path fill="#9f3f5f" fill-opacity="0" d=" M 1131.66 453.86 C 1133.99 459.86 1135.49 466.13 1137.71 472.16 C 1140.88 480.52 1144.98 488.47 1148.97 496.45 C 1153.53 506.24 1157.86 516.14 1162.56 525.86 C 1168.65 523.37 1174.85 521.14 1181.09 519.01 C 1185.43 527.65 1189.98 536.22 1193.75 545.13 C 1194.73 549.20 1193.74 554.58 1189.84 556.80 C 1186.26 559.17 1182.56 561.28 1178.78 563.28 C 1179.56 568.73 1179.67 574.23 1180.07 579.71 C 1173.48 584.87 1167.05 590.40 1159.23 593.60 C 1154.95 596.17 1148.58 597.33 1146.71 602.61 C 1144.97 606.78 1143.75 611.15 1142.39 615.45 C 1137.07 615.84 1132.10 613.77 1126.95 613.02 C 1121.93 613.56 1117.77 616.85 1113.29 618.91 C 1105.31 609.85 1096.98 601.10 1088.64 592.38 C 1082.76 586.25 1078.72 578.65 1072.93 572.47 C 1073.45 566.55 1073.53 560.60 1073.41 554.67 C 1078.52 551.16 1084.97 548.38 1087.35 542.25 C 1090.13 534.57 1085.85 525.93 1089.36 518.38 C 1093.16 512.47 1100.53 510.33 1104.84 504.95 C 1108.72 495.78 1106.22 484.77 1112.29 476.30 C 1118.33 468.48 1125.40 461.51 1131.66 453.86 Z" />
</g>
<g id="#df3f9fff">
<path fill="#df3f9f" fill-opacity="0" d=" M 1248.89 460.53 C 1253.67 462.06 1258.36 463.75 1263.01 465.70 C 1270.68 469.11 1276.75 475.34 1284.59 478.43 C 1289.12 480.47 1294.13 481.81 1298.01 485.04 C 1303.06 490.40 1307.45 496.37 1311.38 502.60 C 1316.23 510.61 1314.87 520.97 1320.30 528.65 C 1329.56 535.73 1340.62 540.04 1350.82 545.61 C 1342.34 556.40 1333.17 566.63 1323.76 576.61 C 1317.10 584.28 1308.53 590.89 1305.08 600.76 C 1315.66 597.17 1321.54 586.93 1327.64 578.30 C 1331.53 574.52 1336.40 571.97 1340.82 568.85 C 1343.01 569.72 1345.30 570.38 1347.64 570.86 C 1351.76 576.16 1355.94 581.46 1359.38 587.25 C 1364.18 586.08 1368.98 584.71 1373.44 582.54 C 1379.26 579.22 1386.19 582.07 1391.96 584.12 C 1400.27 587.37 1402.10 597.03 1402.88 604.84 C 1396.03 613.37 1386.72 619.36 1378.84 626.83 C 1371.27 633.99 1362.69 640.00 1355.40 647.46 C 1353.04 650.19 1349.25 649.41 1346.09 649.39 C 1343.38 652.06 1340.67 654.72 1338.08 657.48 C 1335.45 655.69 1332.57 654.20 1330.25 652.07 C 1328.15 648.17 1327.62 643.03 1323.63 640.39 C 1318.20 636.43 1312.63 632.64 1307.68 628.06 C 1308.30 625.56 1309.23 623.07 1309.17 620.47 C 1304.73 614.72 1299.10 610.00 1293.23 605.78 C 1290.05 604.12 1286.55 600.81 1282.75 602.31 C 1278.85 604.26 1275.30 607.26 1270.81 607.77 C 1262.39 608.88 1253.86 609.01 1245.40 609.64 C 1242.69 606.39 1240.73 602.25 1237.01 600.04 C 1232.03 598.44 1226.78 597.83 1221.91 595.86 C 1217.87 591.00 1215.39 584.31 1209.24 581.56 C 1207.34 580.73 1204.61 578.56 1202.77 580.58 C 1199.36 584.33 1197.51 589.19 1194.90 593.49 C 1190.08 588.76 1185.20 584.10 1180.07 579.71 C 1179.67 574.23 1179.56 568.73 1178.78 563.28 C 1182.56 561.28 1186.26 559.17 1189.84 556.80 C 1193.74 554.58 1194.73 549.20 1193.75 545.13 C 1189.98 536.22 1185.43 527.65 1181.09 519.01 C 1174.85 521.14 1168.65 523.37 1162.56 525.86 C 1157.86 516.14 1153.53 506.24 1148.97 496.45 C 1152.60 492.37 1155.85 487.98 1159.38 483.81 C 1163.98 487.87 1167.08 494.27 1173.08 496.50 C 1177.59 495.75 1181.35 492.79 1185.73 491.54 C 1189.79 491.00 1194.12 493.05 1198.00 491.06 C 1202.01 489.65 1205.91 486.16 1210.42 487.71 C 1217.49 489.43 1226.34 490.61 1232.00 485.02 C 1239.83 478.37 1241.10 467.25 1248.89 460.53 M 1209.31 533.71 C 1211.69 534.08 1214.09 534.50 1216.49 534.91 C 1217.64 532.25 1218.89 529.64 1220.17 527.04 C 1218.51 525.26 1216.88 523.46 1215.31 521.62 C 1211.14 524.19 1209.34 528.91 1209.31 533.71 M 1368.07 593.20 C 1368.54 595.18 1369.15 597.12 1369.84 599.05 C 1370.84 598.62 1371.85 598.20 1372.87 597.78 C 1372.12 595.92 1371.40 594.05 1370.73 592.17 C 1369.83 592.51 1368.94 592.85 1368.07 593.20 Z" />
</g>
<g id="#1f7fdfff">
<path fill="#1f7fdf" fill-opacity="0" d=" M 698.69 522.49 C 697.37 514.82 701.42 505.36 709.58 503.64 C 712.72 507.35 715.87 511.05 719.03 514.75 C 723.81 511.86 728.62 509.01 733.42 506.15 C 734.53 508.81 735.32 511.69 737.06 514.05 C 739.39 516.27 742.55 517.32 745.31 518.90 C 749.27 521.68 753.84 524.09 756.66 528.18 C 752.75 537.66 745.00 545.68 744.04 556.37 C 744.70 564.17 755.53 568.85 752.35 577.17 C 750.54 583.01 749.43 589.03 748.80 595.11 C 758.15 598.84 767.03 603.82 774.87 610.15 C 779.71 614.05 783.52 619.00 787.96 623.31 C 778.27 628.10 774.26 638.52 769.90 647.71 C 773.96 652.93 779.64 658.75 777.83 666.01 C 766.54 664.85 755.21 664.07 743.94 662.72 C 738.56 661.81 733.46 659.72 728.08 658.90 C 719.06 657.35 713.08 670.35 703.86 665.42 C 694.41 664.20 691.68 653.42 683.78 649.74 C 674.38 648.58 667.24 656.18 662.24 663.16 C 659.72 659.13 655.10 655.93 654.49 651.07 C 655.31 642.29 660.91 634.81 663.03 626.37 C 664.66 618.05 658.61 610.72 658.63 602.50 C 658.16 594.28 663.32 587.32 664.58 579.45 C 665.18 573.68 665.31 567.89 665.62 562.10 C 680.07 555.28 694.95 549.37 709.19 542.11 C 705.58 535.63 701.59 529.32 698.69 522.49 Z" />
</g>
<g id="#1fbf9fff">
<path fill="#1fbf9f" fill-opacity="0" d=" M 749.30 504.53 C 760.80 502.95 772.03 507.69 780.55 515.15 C 783.97 518.78 786.22 524.46 791.53 525.77 C 804.97 529.68 818.53 533.31 831.53 538.53 C 839.23 541.50 844.75 547.91 850.27 553.77 C 854.19 558.99 858.30 564.53 859.81 571.03 C 860.62 576.27 859.94 581.65 860.53 586.93 C 859.87 591.31 862.92 595.04 866.62 596.75 C 872.30 599.39 878.48 601.03 883.68 604.64 C 886.70 607.43 889.10 610.78 891.78 613.88 C 886.81 614.47 881.78 614.62 876.84 615.41 C 871.33 616.30 866.45 619.41 860.94 620.24 C 855.65 620.61 850.51 618.28 845.24 618.65 C 839.38 620.66 835.83 626.75 830.16 629.01 C 821.99 629.12 814.19 626.07 806.33 624.21 C 804.14 626.30 801.98 628.42 799.81 630.53 C 795.74 628.33 791.59 626.20 787.96 623.31 C 783.52 619.00 779.71 614.05 774.87 610.15 C 767.03 603.82 758.15 598.84 748.80 595.11 C 749.43 589.03 750.54 583.01 752.35 577.17 C 755.53 568.85 744.70 564.17 744.04 556.37 C 745.00 545.68 752.75 537.66 756.66 528.18 C 753.84 524.09 749.27 521.68 745.31 518.90 C 746.63 514.10 748.01 509.33 749.30 504.53 Z" />
</g>
<g id="#5f7f5fff">
<path fill="#5f7f5f" fill-opacity="0" d=" M 583.35 517.83 C 587.44 517.13 591.79 515.61 595.87 517.18 C 603.99 520.68 611.11 525.99 618.88 530.15 C 629.87 536.52 641.11 542.47 651.88 549.20 C 657.36 552.45 661.37 557.47 665.62 562.10 C 665.31 567.89 665.18 573.68 664.58 579.45 C 663.32 587.32 658.16 594.28 658.63 602.50 C 658.61 610.72 664.66 618.05 663.03 626.37 C 660.91 634.81 655.31 642.29 654.49 651.07 C 655.10 655.93 659.72 659.13 662.24 663.16 C 659.06 667.20 656.07 671.40 652.79 675.37 C 646.87 672.89 641.81 668.17 635.41 667.06 C 619.67 670.13 604.19 674.51 588.44 677.54 C 581.63 678.90 574.76 676.41 567.91 677.31 C 563.77 678.55 560.68 681.86 557.61 684.74 C 552.34 680.74 545.91 677.58 542.42 671.73 C 541.96 667.22 543.26 662.75 543.85 658.30 C 540.33 656.07 536.91 653.63 533.48 651.29 C 534.36 649.37 535.35 647.48 535.78 645.40 C 531.59 641.26 525.22 639.18 522.35 633.80 C 521.94 628.11 523.32 622.45 523.97 616.82 C 529.72 617.02 535.52 617.11 541.23 617.87 C 543.06 613.65 546.21 609.57 545.35 604.65 C 540.96 598.21 533.53 594.48 529.26 587.89 C 527.66 583.91 530.17 578.67 526.54 575.47 C 521.43 570.01 515.41 565.45 510.84 559.45 C 515.47 560.45 519.25 563.44 521.94 567.24 C 526.81 566.12 531.41 564.19 535.99 562.24 C 532.85 551.84 537.50 541.55 539.94 531.56 C 544.68 533.66 549.32 536.03 554.35 537.40 C 556.42 532.30 557.10 526.14 561.27 522.16 C 567.45 522.73 573.53 525.67 577.36 530.67 C 578.07 530.79 579.49 531.04 580.20 531.17 C 581.60 526.81 582.58 522.33 583.35 517.83 Z" />
</g>
<g id="#5fbf9fff">
<path fill="#5fbf9f" fill-opacity="0" d=" M 1209.31 533.71 C 1209.34 528.91 1211.14 524.19 1215.31 521.62 C 1216.88 523.46 1218.51 525.26 1220.17 527.04 C 1218.89 529.64 1217.64 532.25 1216.49 534.91 C 1214.09 534.50 1211.69 534.08 1209.31 533.71 Z" />
</g>
<g id="#9f00dfff">
<path fill="#9f00df" fill-opacity="0" d=" M 1046.57 561.27 C 1048.23 557.55 1053.36 557.55 1056.32 559.62 C 1062.12 563.50 1067.82 567.67 1072.93 572.47 C 1078.72 578.65 1082.76 586.25 1088.64 592.38 C 1096.98 601.10 1105.31 609.85 1113.29 618.91 C 1117.77 616.85 1121.93 613.56 1126.95 613.02 C 1132.10 613.77 1137.07 615.84 1142.39 615.45 C 1142.97 619.55 1145.21 623.97 1143.92 628.15 C 1137.51 637.55 1127.45 643.46 1117.50 648.43 C 1111.52 651.40 1103.94 648.94 1098.69 653.67 C 1093.92 656.47 1095.75 662.58 1095.68 667.02 C 1085.32 668.61 1075.14 671.08 1065.14 674.16 C 1061.45 666.36 1059.18 658.01 1055.87 650.07 C 1054.81 647.53 1052.50 644.19 1049.31 645.41 C 1042.58 648.35 1036.39 652.39 1030.18 656.29 C 1025.89 658.96 1021.78 662.78 1016.38 662.12 C 1020.35 653.50 1026.68 646.21 1030.46 637.50 C 1031.66 635.09 1030.28 632.25 1027.96 631.18 C 1023.27 628.58 1018.32 626.37 1013.19 624.85 C 1009.72 623.70 1006.66 626.24 1003.78 627.75 C 995.85 632.65 986.16 632.65 977.18 633.82 C 974.56 630.35 972.05 626.89 969.39 623.49 C 966.09 626.65 962.75 629.76 959.24 632.68 C 955.00 627.29 950.91 621.79 946.31 616.70 C 950.03 610.91 956.15 607.31 961.83 603.76 C 967.05 600.52 973.27 603.93 978.85 603.87 C 980.84 599.69 982.30 595.03 985.56 591.62 C 990.10 588.90 995.87 589.44 1000.69 587.41 C 1005.28 584.27 1006.48 577.83 1011.27 574.99 C 1019.29 574.46 1027.32 576.60 1035.36 575.98 C 1041.95 574.19 1043.50 566.42 1046.57 561.27 Z" />
</g>
<g id="#dfbf1ffe">
<path fill="#dfbf1f" fill-opacity="0" d=" M 1202.77 580.58 C 1204.61 578.56 1207.34 580.73 1209.24 581.56 C 1215.39 584.31 1217.87 591.00 1221.91 595.86 C 1226.78 597.83 1232.03 598.44 1237.01 600.04 C 1240.73 602.25 1242.69 606.39 1245.40 609.64 C 1253.86 609.01 1262.39 608.88 1270.81 607.77 C 1275.30 607.26 1278.85 604.26 1282.75 602.31 C 1286.55 600.81 1290.05 604.12 1293.23 605.78 C 1299.10 610.00 1304.73 614.72 1309.17 620.47 C 1309.23 623.07 1308.30 625.56 1307.68 628.06 C 1312.63 632.64 1318.20 636.43 1323.63 640.39 C 1327.62 643.03 1328.15 648.17 1330.25 652.07 C 1332.57 654.20 1335.45 655.69 1338.08 657.48 C 1342.86 660.95 1348.75 662.26 1353.77 665.30 C 1357.26 668.07 1359.37 672.13 1361.96 675.69 C 1351.02 683.31 1339.38 691.76 1334.85 704.94 C 1331.97 710.98 1330.82 717.75 1327.45 723.55 C 1320.81 730.78 1311.99 735.39 1304.23 741.24 C 1297.81 745.61 1291.68 751.02 1284.07 753.19 C 1277.26 754.09 1272.59 759.93 1266.07 761.76 C 1266.54 755.16 1260.66 748.79 1253.96 749.51 C 1241.66 749.84 1229.40 746.98 1217.16 748.31 C 1209.45 750.57 1202.18 754.14 1194.65 756.89 C 1192.43 753.57 1190.19 748.34 1185.31 749.22 C 1178.69 749.28 1175.71 755.68 1171.59 759.77 C 1166.42 759.88 1161.26 759.95 1156.12 759.99 C 1155.24 758.05 1154.34 756.12 1153.47 754.20 C 1149.05 756.74 1146.18 761.06 1142.39 764.33 C 1139.08 765.89 1135.26 765.61 1131.72 766.10 C 1135.27 760.10 1143.31 754.59 1140.47 746.78 C 1136.98 734.94 1133.59 723.06 1129.95 711.27 C 1128.02 704.46 1120.89 700.90 1118.65 694.26 C 1116.24 688.25 1115.52 681.09 1110.85 676.26 C 1106.27 672.47 1100.81 669.96 1095.68 667.02 C 1095.75 662.58 1093.92 656.47 1098.69 653.67 C 1103.94 648.94 1111.52 651.40 1117.50 648.43 C 1127.45 643.46 1137.51 637.55 1143.92 628.15 C 1145.21 623.97 1142.97 619.55 1142.39 615.45 C 1143.75 611.15 1144.97 606.78 1146.71 602.61 C 1148.58 597.33 1154.95 596.17 1159.23 593.60 C 1167.05 590.40 1173.48 584.87 1180.07 579.71 C 1185.20 584.10 1190.08 588.76 1194.90 593.49 C 1197.51 589.19 1199.36 584.33 1202.77 580.58 Z" />
</g>
<g id="#5f3f9fff">
<path fill="#5f3f9f" fill-opacity="0" d=" M 1368.07 593.20 C 1368.94 592.85 1369.83 592.51 1370.73 592.17 C 1371.40 594.05 1372.12 595.92 1372.87 597.78 C 1371.85 598.20 1370.84 598.62 1369.84 599.05 C 1369.15 597.12 1368.54 595.18 1368.07 593.20 Z" />
</g>
<g id="#df7f5fff">
<path fill="#df7f5f" fill-opacity="0" d=" M 876.84 615.41 C 881.78 614.62 886.81 614.47 891.78 613.88 C 892.04 614.15 892.57 614.69 892.83 614.96 C 894.11 620.91 896.87 626.36 899.23 631.93 C 901.60 637.57 901.90 643.76 903.04 649.73 C 897.12 654.76 891.45 660.07 885.64 665.23 C 887.94 670.50 890.61 675.61 893.47 680.61 C 886.67 689.31 881.81 699.35 875.87 708.65 C 872.13 707.75 868.38 706.92 864.63 706.09 C 863.20 709.33 862.24 713.01 859.61 715.54 C 856.48 718.08 852.58 719.37 848.92 720.92 C 840.35 718.90 831.47 716.78 822.64 718.37 C 810.80 720.85 798.92 723.15 787.16 725.98 C 777.78 727.13 768.33 727.41 758.90 727.80 C 756.89 718.40 756.52 708.78 754.80 699.34 C 753.53 693.01 747.36 689.29 745.14 683.42 C 743.47 676.67 743.83 669.61 743.94 662.72 C 755.21 664.07 766.54 664.85 777.83 666.01 C 779.64 658.75 773.96 652.93 769.90 647.71 C 774.26 638.52 778.27 628.10 787.96 623.31 C 791.59 626.20 795.74 628.33 799.81 630.53 C 801.98 628.42 804.14 626.30 806.33 624.21 C 814.19 626.07 821.99 629.12 830.16 629.01 C 835.83 626.75 839.38 620.66 845.24 618.65 C 850.51 618.28 855.65 620.61 860.94 620.24 C 866.45 619.41 871.33 616.30 876.84 615.41 Z" />
</g>
<g id="#1f005fff">
<path fill="#1f005f" fill-opacity="0" d=" M 892.83 614.96 C 897.61 619.26 902.74 623.18 907.49 627.54 C 910.53 630.21 914.04 633.57 918.59 631.73 C 929.28 631.08 941.29 626.96 946.31 616.70 C 950.91 621.79 955.00 627.29 959.24 632.68 C 962.75 629.76 966.09 626.65 969.39 623.49 C 972.05 626.89 974.56 630.35 977.18 633.82 C 986.16 632.65 995.85 632.65 1003.78 627.75 C 1006.66 626.24 1009.72 623.70 1013.19 624.85 C 1018.32 626.37 1023.27 628.58 1027.96 631.18 C 1030.28 632.25 1031.66 635.09 1030.46 637.50 C 1026.68 646.21 1020.35 653.50 1016.38 662.12 C 1021.78 662.78 1025.89 658.96 1030.18 656.29 C 1033.49 660.41 1037.52 664.25 1039.49 669.22 C 1039.98 676.59 1034.79 683.02 1029.23 687.27 C 1021.27 692.92 1012.95 698.06 1005.25 704.08 C 1001.12 704.54 997.06 704.96 992.92 705.09 C 983.45 708.04 979.67 694.14 970.45 696.09 C 963.60 697.26 956.50 698.69 950.68 702.66 C 946.97 705.13 943.27 707.62 939.57 710.08 C 937.85 704.73 936.38 698.91 932.07 694.96 C 923.11 686.87 913.88 679.09 904.61 671.38 C 900.85 674.40 896.94 677.25 893.47 680.61 C 890.61 675.61 887.94 670.50 885.64 665.23 C 891.45 660.07 897.12 654.76 903.04 649.73 C 901.90 643.76 901.60 637.57 899.23 631.93 C 896.87 626.36 894.11 620.91 892.83 614.96 Z" />
</g>
<g id="#dfbf9fff">
<path fill="#dfbf9f" fill-opacity="0" d=" M 1030.18 656.29 C 1036.39 652.39 1042.58 648.35 1049.31 645.41 C 1052.50 644.19 1054.81 647.53 1055.87 650.07 C 1059.18 658.01 1061.45 666.36 1065.14 674.16 C 1075.14 671.08 1085.32 668.61 1095.68 667.02 C 1100.81 669.96 1106.27 672.47 1110.85 676.26 C 1115.52 681.09 1116.24 688.25 1118.65 694.26 C 1120.89 700.90 1128.02 704.46 1129.95 711.27 C 1133.59 723.06 1136.98 734.94 1140.47 746.78 C 1143.31 754.59 1135.27 760.10 1131.72 766.10 C 1128.65 765.99 1125.79 766.04 1122.81 765.99 C 1121.55 765.89 1120.96 766.46 1121.04 767.73 C 1121.02 779.18 1118.93 790.49 1117.83 801.87 C 1116.34 813.14 1116.12 824.63 1113.52 835.73 C 1111.05 840.28 1106.47 843.24 1102.22 845.96 C 1102.74 849.01 1103.44 852.08 1104.13 855.12 C 1097.89 860.93 1091.21 868.87 1081.81 867.66 C 1080.12 871.62 1077.44 875.00 1074.63 878.22 C 1074.37 880.97 1074.66 884.26 1072.21 886.17 C 1069.30 889.78 1064.01 888.86 1059.99 889.10 C 1057.57 889.51 1056.69 886.86 1055.57 885.30 C 1052.47 880.45 1050.72 874.94 1048.16 869.83 C 1046.49 866.01 1042.15 864.84 1038.66 863.35 C 1030.08 860.39 1022.46 854.95 1013.34 853.57 C 1009.53 858.37 1005.47 862.96 1001.64 867.74 C 999.84 867.10 998.05 866.46 996.27 865.83 C 995.34 861.14 994.75 856.34 993.06 851.88 C 990.93 849.73 987.80 849.04 985.15 847.78 C 984.92 844.75 985.04 842.03 984.91 839.09 C 981.24 838.66 977.59 838.25 973.96 837.85 C 974.88 823.03 974.58 808.17 975.47 793.35 C 975.68 781.64 975.34 769.87 976.69 758.23 C 978.84 749.58 984.49 742.28 988.56 734.50 C 994.79 724.72 999.55 714.14 1005.25 704.08 C 1012.95 698.06 1021.27 692.92 1029.23 687.27 C 1034.79 683.02 1039.98 676.59 1039.49 669.22 C 1037.52 664.25 1033.49 660.41 1030.18 656.29 Z" />
</g>
<g id="#5f3f1ffe">
<path fill="#5f3f1f" fill-opacity="0" d=" M 662.24 663.16 C 667.24 656.18 674.38 648.58 683.78 649.74 C 691.68 653.42 694.41 664.20 703.86 665.42 C 713.08 670.35 719.06 657.35 728.08 658.90 C 733.46 659.72 738.56 661.81 743.94 662.72 C 743.83 669.61 743.47 676.67 745.14 683.42 C 747.36 689.29 753.53 693.01 754.80 699.34 C 756.52 708.78 756.89 718.40 758.90 727.80 C 768.33 727.41 777.78 727.13 787.16 725.98 C 785.76 730.09 783.46 734.15 783.61 738.59 C 785.63 742.54 789.88 744.62 793.04 747.59 C 791.30 756.25 791.69 767.04 783.60 772.63 C 773.58 779.78 764.42 789.44 752.00 792.30 C 745.74 791.79 739.15 791.46 733.52 788.42 C 728.29 784.56 724.52 779.13 720.12 774.44 C 717.43 776.14 714.99 778.68 711.77 779.27 C 699.25 778.43 687.34 770.63 674.60 773.53 C 666.21 774.94 657.74 775.89 649.42 777.66 C 646.99 770.78 646.81 763.41 647.93 756.26 C 649.13 751.62 647.58 747.21 645.60 743.13 C 630.78 744.33 615.92 744.95 601.08 745.95 C 595.57 758.31 587.76 769.59 577.83 778.80 C 573.36 781.90 568.01 783.39 562.94 785.24 C 564.60 778.72 565.51 772.00 567.71 765.64 C 569.05 761.73 572.58 759.11 574.06 755.29 C 569.44 751.22 563.32 749.35 558.69 745.30 C 556.39 741.96 554.76 738.25 553.04 734.60 C 554.80 732.29 557.57 730.11 556.44 726.69 C 552.73 722.92 547.86 720.69 543.68 717.53 C 546.82 715.29 549.89 712.96 553.01 710.70 C 552.51 704.24 551.66 697.82 551.09 691.38 C 553.34 689.24 555.48 686.99 557.61 684.74 C 560.68 681.86 563.77 678.55 567.91 677.31 C 574.76 676.41 581.63 678.90 588.44 677.54 C 604.19 674.51 619.67 670.13 635.41 667.06 C 641.81 668.17 646.87 672.89 652.79 675.37 C 656.07 671.40 659.06 667.20 662.24 663.16 M 716.03 735.83 C 718.48 736.35 721.04 736.45 723.55 736.85 C 724.38 735.11 725.23 733.39 726.12 731.68 C 724.73 730.40 723.41 729.03 721.79 728.08 C 718.05 728.54 715.80 732.26 716.03 735.83 Z" />
</g>
<g id="#9f3f9fff">
<path fill="#9f3f9f" fill-opacity="0" d=" M 904.61 671.38 C 913.88 679.09 923.11 686.87 932.07 694.96 C 936.38 698.91 937.85 704.73 939.57 710.08 C 943.27 707.62 946.97 705.13 950.68 702.66 C 956.50 698.69 963.60 697.26 970.45 696.09 C 979.67 694.14 983.45 708.04 992.92 705.09 C 997.06 704.96 1001.12 704.54 1005.25 704.08 C 999.55 714.14 994.79 724.72 988.56 734.50 C 984.49 742.28 978.84 749.58 976.69 758.23 C 975.34 769.87 975.68 781.64 975.47 793.35 C 974.58 808.17 974.88 823.03 973.96 837.85 C 970.97 837.86 968.16 838.05 965.25 838.11 C 964.27 840.81 963.29 843.50 962.30 846.21 C 962.49 844.01 962.57 841.81 962.67 839.62 C 953.62 837.07 944.30 835.77 934.97 834.79 C 930.45 834.03 924.90 834.11 922.26 829.76 C 916.48 821.43 910.72 813.08 905.24 804.57 C 901.59 797.97 899.77 790.54 896.04 783.97 C 887.72 768.46 879.41 752.64 867.45 739.56 C 861.19 733.43 854.93 727.30 848.92 720.92 C 852.58 719.37 856.48 718.08 859.61 715.54 C 862.24 713.01 863.20 709.33 864.63 706.09 C 868.38 706.92 872.13 707.75 875.87 708.65 C 881.81 699.35 886.67 689.31 893.47 680.61 C 896.94 677.25 900.85 674.40 904.61 671.38 Z" />
</g>
<g id="#1f7f5fff">
<path fill="#1f7f5f" fill-opacity="0" d=" M 822.64 718.37 C 831.47 716.78 840.35 718.90 848.92 720.92 C 854.93 727.30 861.19 733.43 867.45 739.56 C 879.41 752.64 887.72 768.46 896.04 783.97 C 899.77 790.54 901.59 797.97 905.24 804.57 C 893.93 806.69 882.55 808.64 871.46 811.71 C 864.92 813.96 862.25 822.44 855.06 823.50 C 844.42 824.85 832.52 824.31 823.90 831.91 C 820.79 835.91 819.73 841.11 817.79 845.74 C 814.95 841.94 812.14 838.11 809.51 834.16 C 806.13 836.22 803.37 839.18 801.70 842.79 C 798.95 848.45 795.96 854.00 793.22 859.67 C 789.48 853.60 790.96 846.27 791.48 839.58 C 787.21 836.24 783.63 832.00 778.99 829.16 C 774.81 830.48 771.76 833.87 767.82 835.66 C 763.28 833.87 759.66 830.30 755.00 828.74 C 752.30 823.64 749.79 818.22 749.42 812.38 C 748.76 805.59 750.46 798.87 752.00 792.30 C 764.42 789.44 773.58 779.78 783.60 772.63 C 791.69 767.04 791.30 756.25 793.04 747.59 C 789.88 744.62 785.63 742.54 783.61 738.59 C 783.46 734.15 785.76 730.09 787.16 725.98 C 798.92 723.15 810.80 720.85 822.64 718.37 Z" />
</g>
<g id="#df3f1ffe">
<path fill="#df3f1f" fill-opacity="0" d=" M 716.03 735.83 C 715.80 732.26 718.05 728.54 721.79 728.08 C 723.41 729.03 724.73 730.40 726.12 731.68 C 725.23 733.39 724.38 735.11 723.55 736.85 C 721.04 736.45 718.48 736.35 716.03 735.83 Z" />
</g>
<g id="#df005fff">
<path fill="#df005f" fill-opacity="0" d=" M 601.08 745.95 C 615.92 744.95 630.78 744.33 645.60 743.13 C 647.58 747.21 649.13 751.62 647.93 756.26 C 646.81 763.41 646.99 770.78 649.42 777.66 C 657.74 775.89 666.21 774.94 674.60 773.53 C 687.34 770.63 699.25 778.43 711.77 779.27 C 714.99 778.68 717.43 776.14 720.12 774.44 C 724.52 779.13 728.29 784.56 733.52 788.42 C 739.15 791.46 745.74 791.79 752.00 792.30 C 750.46 798.87 748.76 805.59 749.42 812.38 C 749.79 818.22 752.30 823.64 755.00 828.74 C 747.24 833.89 739.12 838.45 731.02 843.04 C 727.55 845.34 723.25 847.47 721.89 851.71 C 719.31 861.33 717.69 871.17 715.90 880.95 C 706.87 881.91 697.35 880.85 688.95 884.86 C 678.35 890.52 668.40 879.64 657.56 882.41 C 651.17 882.56 646.83 887.70 641.21 889.90 C 634.83 890.97 628.66 888.34 622.76 886.31 C 618.59 885.03 616.96 880.53 614.58 877.36 C 611.83 872.92 608.17 868.54 608.54 862.95 C 607.46 858.08 609.25 851.80 604.57 848.45 C 599.84 844.27 595.88 839.16 595.33 832.60 C 582.84 827.94 570.65 822.39 559.09 815.74 C 560.10 805.55 560.31 795.18 562.94 785.24 C 568.01 783.39 573.36 781.90 577.83 778.80 C 587.76 769.59 595.57 758.31 601.08 745.95 Z" />
</g>
<g id="#753f74ff">
<path fill="#753f74" fill-opacity="0" d=" M 1121.04 767.73 C 1120.96 766.46 1121.55 765.89 1122.81 765.99 C 1123.12 767.51 1122.54 768.08 1121.04 767.73 Z" />
</g>
<g id="#5f005fff">
<path fill="#5f005f" fill-opacity="0" d=" M 871.46 811.71 C 882.55 808.64 893.93 806.69 905.24 804.57 C 910.72 813.08 916.48 821.43 922.26 829.76 C 924.90 834.11 930.45 834.03 934.97 834.79 C 944.30 835.77 953.62 837.07 962.67 839.62 C 962.57 841.81 962.49 844.01 962.30 846.21 C 961.84 849.80 960.60 853.23 959.68 856.72 C 954.08 858.14 948.50 859.65 942.94 861.17 C 943.18 866.84 943.46 872.56 943.86 878.25 C 941.40 877.30 938.83 876.75 936.62 875.40 C 933.75 870.00 931.74 864.19 929.45 858.53 C 924.55 859.93 920.22 862.67 915.78 865.05 C 920.14 873.34 921.66 882.71 920.06 891.95 C 911.03 897.06 902.01 902.20 893.17 907.64 C 889.42 902.84 885.52 898.05 880.62 894.39 C 877.70 903.33 875.01 912.35 872.84 921.52 C 868.87 919.43 864.75 916.87 860.01 917.64 C 856.97 917.44 853.75 918.59 850.86 917.26 C 846.63 915.49 844.74 911.03 842.95 907.15 C 829.60 901.54 817.21 894.15 804.50 887.33 C 800.07 884.31 800.40 877.82 796.94 874.08 C 793.73 871.33 790.22 869.07 786.87 866.56 C 788.56 866.01 790.27 865.49 791.98 864.93 C 792.29 863.62 792.91 860.99 793.22 859.67 C 795.96 854.00 798.95 848.45 801.70 842.79 C 803.37 839.18 806.13 836.22 809.51 834.16 C 812.14 838.11 814.95 841.94 817.79 845.74 C 819.73 841.11 820.79 835.91 823.90 831.91 C 832.52 824.31 844.42 824.85 855.06 823.50 C 862.25 822.44 864.92 813.96 871.46 811.71 Z" />
</g>
<g id="#5f3f5fff">
<path fill="#5f3f5f" fill-opacity="0" d=" M 0.00 1079.02 C 16.92 1078.80 33.85 1078.81 50.74 1079.96 L 51.70 1080.00 L 0.00 1080.00 L 0.00 1079.02 Z" />
</g>
<g id="#1f3fdfff">
<path fill="#1f3fdf" fill-opacity="0" d=" M 50.74 1079.96 C 63.48 1079.15 76.24 1078.76 89.00 1078.94 C 114.25 1079.28 139.53 1078.21 164.75 1079.96 L 165.70 1080.00 L 51.70 1080.00 L 50.74 1079.96 Z" />
</g>
<g id="#9f3fdfff">
<path fill="#9f3fdf" fill-opacity="0" d=" M 164.75 1079.96 C 187.69 1078.47 210.73 1078.46 233.68 1079.94 L 234.69 1080.00 L 165.70 1080.00 L 164.75 1079.96 Z" />
</g>
<g id="#dfbfdfff">
<path fill="#dfbfdf" fill-opacity="0" d=" M 233.68 1079.94 C 240.69 1079.53 247.71 1079.74 254.73 1079.97 L 255.71 1080.00 L 234.69 1080.00 L 233.68 1079.94 Z" />
</g>
<g id="#7f1f9fff">
<path fill="#7f1f9f" fill-opacity="0" d=" M 254.73 1079.97 C 281.45 1078.04 308.24 1079.34 335.00 1079.00 L 335.01 1080.00 L 255.71 1080.00 L 254.73 1079.97 Z" />
</g>
<g id="#9fdf5ffe">
<path fill="#9fdf5f" fill-opacity="0" d=" M 335.00 1079.00 C 355.91 1079.00 376.85 1078.49 397.74 1079.96 L 398.70 1080.00 L 335.01 1080.00 L 335.00 1079.00 Z" />
</g>
<g id="#5f1fdfff">
<path fill="#5f1fdf" fill-opacity="0" d=" M 397.74 1079.96 C 425.69 1078.42 453.75 1078.43 481.70 1079.96 L 482.69 1080.00 L 398.70 1080.00 L 397.74 1079.96 Z" />
</g>
<g id="#9f5f5fff">
<path fill="#9f5f5f" fill-opacity="0" d=" M 481.70 1079.96 C 517.08 1077.80 552.57 1079.55 588.00 1079.00 L 588.00 1080.00 L 482.69 1080.00 L 481.70 1079.96 Z" />
</g>
<g id="#1f5f5fff">
<path fill="#1f5f5f" fill-opacity="0" d=" M 588.00 1079.00 C 627.00 1079.00 666.00 1079.00 705.00 1079.00 L 705.00 1080.00 L 588.00 1080.00 L 588.00 1079.00 Z" />
</g>
<g id="#df5f5fff">
<path fill="#df5f5f" fill-opacity="0" d=" M 705.00 1079.00 C 747.58 1079.52 790.20 1077.87 832.74 1079.96 L 833.70 1080.00 L 705.00 1080.00 L 705.00 1079.00 Z" />
</g>
<g id="#bf7f5fff">
<path fill="#bf7f5f" fill-opacity="0" d=" M 832.74 1079.96 C 855.71 1078.45 878.76 1078.48 901.73 1079.96 L 902.68 1080.00 L 833.70 1080.00 L 832.74 1079.96 Z" />
<path fill="#bf7f5f" fill-opacity="0" d=" M 927.00 1078.85 C 939.25 1078.74 951.50 1079.24 963.74 1079.96 L 964.70 1080.00 L 927.02 1080.00 L 927.00 1078.85 Z" />
</g>
<g id="#3f00dfff">
<path fill="#3f00df" fill-opacity="0" d=" M 901.73 1079.96 C 910.14 1079.42 918.55 1079.03 927.00 1078.85 L 927.02 1080.00 L 902.68 1080.00 L 901.73 1079.96 Z" />
</g>
<g id="#007fdfff">
<path fill="#007fdf" fill-opacity="0" d=" M 963.74 1079.96 C 991.70 1078.41 1019.76 1078.44 1047.73 1079.96 L 1048.68 1080.00 L 964.70 1080.00 L 963.74 1079.96 Z" />
</g>
<g id="#3fbf9fff">
<path fill="#3fbf9f" fill-opacity="0" d=" M 1047.73 1079.96 C 1054.48 1079.54 1061.21 1079.14 1068.00 1078.94 L 1068.02 1080.00 L 1048.68 1080.00 L 1047.73 1079.96 Z" />
<path fill="#3fbf9f" fill-opacity="0" d=" M 1094.99 1078.99 C 1097.63 1078.97 1100.30 1078.97 1103.00 1079.00 L 1103.00 1080.00 L 1095.02 1080.00 L 1094.99 1078.99 Z" />
</g>
<g id="#bfbf1fff">
<path fill="#bfbf1f" fill-opacity="0" d=" M 1068.00 1078.94 C 1076.98 1078.84 1085.98 1078.97 1094.99 1078.99 L 1095.02 1080.00 L 1068.02 1080.00 L 1068.00 1078.94 Z" />
<path fill="#bfbf1f" fill-opacity="0" d=" M 1103.00 1079.00 C 1130.90 1079.30 1158.83 1078.12 1186.70 1079.96 L 1187.69 1080.00 L 1103.00 1080.00 L 1103.00 1079.00 Z" />
</g>
<g id="#00bf5fff">
<path fill="#00bf5f" fill-opacity="0" d=" M 1186.70 1079.96 C 1206.75 1078.28 1226.89 1079.12 1247.00 1079.01 C 1273.90 1079.29 1300.84 1078.13 1327.72 1079.95 L 1328.71 1080.00 L 1187.69 1080.00 L 1186.70 1079.96 Z" />
<path fill="#00bf5f" fill-opacity="0" d=" M 1347.78 1079.98 C 1355.25 1079.85 1362.74 1079.80 1370.25 1080.00 L 1348.72 1080.00 L 1347.78 1079.98 Z" />
</g>
<g id="#3f7fdfff">
<path fill="#3f7fdf" fill-opacity="0" d=" M 1327.72 1079.95 C 1334.40 1079.80 1341.06 1079.81 1347.78 1079.98 L 1348.72 1080.00 L 1328.71 1080.00 L 1327.72 1079.95 Z" />
</g>
<g id="#7f3f5fff">
<path fill="#7f3f5f" fill-opacity="0" d=" M 1371.59 1080.00 C 1405.01 1077.87 1438.53 1079.48 1472.01 1079.00 L 1471.98 1080.00 L 1371.59 1080.00 Z" />
</g>
<g id="#ef7fbffe">
<path fill="#ef7fbf" fill-opacity="0" d=" M 1472.01 1079.00 C 1621.34 1079.00 1770.67 1079.00 1920.00 1079.00 L 1920.00 1080.00 L 1471.98 1080.00 L 1472.01 1079.00 Z" />
</g>
</svg>
