<?xml version="1.0" encoding="UTF-8" ?>
<!DOCTYPE svg PUBLIC "-//W3C//DTD SVG 1.1//EN" "http://www.w3.org/Graphics/SVG/1.1/DTD/svg11.dtd">
<svg width="1920pt" height="1080pt" viewBox="0 0 1920 1080" version="1.1" xmlns="http://www.w3.org/2000/svg">
<g id="#cf0f00ff">
<path fill="#cf0f00" fill-opacity="0" d=" M 952.18 171.48 C 954.74 173.33 957.70 174.78 959.89 177.12 C 962.48 180.48 962.35 184.98 962.57 189.02 C 968.31 192.08 975.04 192.97 980.53 196.50 C 982.79 201.14 981.24 206.95 982.00 211.91 C 978.29 210.90 976.52 207.44 975.21 204.16 C 973.00 203.76 970.23 203.30 968.23 203.00 C 967.49 203.89 966.76 204.77 966.03 205.66 C 967.75 207.09 969.48 208.53 971.21 209.97 C 968.72 215.98 967.70 223.14 962.40 227.49 C 954.52 234.27 958.22 247.25 949.58 253.46 C 946.30 256.77 941.49 259.43 940.52 264.39 C 939.85 269.04 941.75 273.55 942.74 278.04 C 937.87 281.90 932.47 285.40 929.04 290.72 C 928.08 292.68 930.10 294.50 930.97 296.11 C 929.37 297.97 927.74 299.80 926.22 301.72 C 922.13 299.99 918.28 297.77 914.41 295.62 C 908.53 292.36 901.87 290.46 896.62 286.15 C 893.37 283.46 889.63 281.45 885.86 279.63 C 884.61 277.33 884.35 273.87 881.70 272.56 C 878.79 271.01 875.46 270.53 872.51 269.09 C 867.61 266.80 864.25 262.43 861.25 258.11 C 867.85 256.65 874.59 255.70 881.02 253.54 C 885.73 251.83 891.67 252.19 895.60 248.68 C 898.92 243.58 900.10 237.39 903.34 232.24 C 905.93 228.11 908.99 224.24 910.88 219.72 C 914.98 209.87 924.43 203.19 934.39 200.08 C 939.99 197.03 947.09 192.76 945.62 185.12 C 945.88 182.21 945.89 179.23 946.77 176.42 C 947.94 174.21 950.30 173.01 952.18 171.48 Z" />
</g>
<g id="#8f4f00ff">
<path fill="#8f4f00" fill-opacity="0" d=" M 968.23 203.00 C 970.23 203.30 973.00 203.76 975.21 204.16 C 976.52 207.44 978.29 210.90 982.00 211.91 C 986.43 212.87 990.73 214.39 995.00 215.89 C 999.12 217.35 1003.53 216.46 1007.68 215.61 C 1016.37 227.37 1031.61 231.11 1041.85 241.14 C 1045.24 244.74 1046.10 249.91 1045.55 254.67 C 1044.25 265.77 1044.26 276.97 1042.95 288.06 C 1042.71 291.66 1039.82 294.15 1038.06 297.05 C 1035.77 300.40 1035.36 304.54 1034.43 308.39 L 1034.23 307.73 C 1031.81 301.04 1031.20 293.91 1030.27 286.92 C 1026.95 287.63 1023.04 287.87 1020.76 290.73 C 1016.51 295.64 1015.40 302.31 1012.10 307.81 C 1006.34 304.71 1003.22 298.83 998.60 294.54 C 991.31 290.76 981.38 295.07 975.64 287.71 C 975.55 284.95 976.25 282.25 976.69 279.55 C 965.37 279.86 953.50 283.03 942.74 278.04 C 941.75 273.55 939.85 269.04 940.52 264.39 C 941.49 259.43 946.30 256.77 949.58 253.46 C 958.22 247.25 954.52 234.27 962.40 227.49 C 967.70 223.14 968.72 215.98 971.21 209.97 C 969.48 208.53 967.75 207.09 966.03 205.66 C 966.76 204.77 967.49 203.89 968.23 203.00 Z" />
</g>
<g id="#0f4fbfff">
<path fill="#0f4fbf" fill-opacity="0" d=" M 841.87 266.55 C 849.13 266.09 855.07 261.45 861.25 258.11 C 864.25 262.43 867.61 266.80 872.51 269.09 C 875.46 270.53 878.79 271.01 881.70 272.56 C 884.35 273.87 884.61 277.33 885.86 279.63 C 889.63 281.45 893.37 283.46 896.62 286.15 C 901.87 290.46 908.53 292.36 914.41 295.62 C 918.28 297.77 922.13 299.99 926.22 301.72 C 922.69 305.43 920.54 312.90 914.32 312.56 C 906.64 311.89 905.45 300.44 898.18 300.04 C 891.10 304.66 891.20 315.08 885.05 320.86 C 882.60 323.43 880.29 326.44 877.10 328.05 C 873.50 328.55 870.20 326.13 866.82 325.32 C 860.97 322.94 854.30 324.04 848.57 321.37 C 843.38 318.41 839.55 313.59 835.99 308.90 C 830.76 314.36 827.07 321.22 821.05 325.91 C 817.79 328.22 813.60 328.45 810.20 330.45 C 807.95 332.24 806.70 334.95 805.10 337.28 C 800.29 334.12 795.30 330.47 789.24 330.70 C 787.48 328.21 785.74 325.74 784.02 323.27 C 786.94 321.36 790.31 320.41 793.71 319.73 C 792.69 312.03 792.38 304.27 791.43 296.56 C 789.75 290.29 792.77 284.35 796.81 279.77 C 799.78 276.32 797.57 271.33 799.50 267.50 C 801.99 264.30 805.47 262.08 808.40 259.32 C 813.41 260.21 818.49 260.73 823.47 261.84 C 829.60 263.39 835.44 266.45 841.87 266.55 Z" />
</g>
<g id="#8f4fbfff">
<path fill="#8f4fbf" fill-opacity="0" d=" M 942.74 278.04 C 953.50 283.03 965.37 279.86 976.69 279.55 C 976.25 282.25 975.55 284.95 975.64 287.71 C 981.38 295.07 991.31 290.76 998.60 294.54 C 1003.22 298.83 1006.34 304.71 1012.10 307.81 C 1015.40 302.31 1016.51 295.64 1020.76 290.73 C 1023.04 287.87 1026.95 287.63 1030.27 286.92 C 1031.20 293.91 1031.81 301.04 1034.23 307.73 C 1037.61 317.14 1034.08 326.85 1034.64 336.46 C 1042.09 335.27 1049.21 332.72 1056.56 331.09 L 1056.30 331.76 C 1054.48 338.53 1048.96 343.08 1044.05 347.63 C 1045.78 349.84 1047.77 351.95 1048.93 354.55 C 1049.69 357.44 1047.57 360.91 1044.52 361.24 C 1036.70 362.47 1028.69 361.17 1021.19 358.92 C 1017.96 358.04 1015.65 355.52 1013.85 352.85 C 1010.51 346.69 1003.37 344.89 997.02 343.78 C 985.78 342.16 977.79 333.48 967.75 329.08 C 963.45 327.18 959.46 323.68 954.50 324.04 C 951.11 324.05 947.21 325.13 944.35 322.73 C 940.43 319.78 936.80 316.49 932.91 313.51 C 936.13 311.85 939.37 310.20 942.60 308.53 C 938.95 304.18 934.54 300.52 930.97 296.11 C 930.10 294.50 928.08 292.68 929.04 290.72 C 932.47 285.40 937.87 281.90 942.74 278.04 Z" />
</g>
<g id="#4f0fbfff">
<path fill="#4f0fbf" fill-opacity="0" d=" M 930.97 296.11 C 934.54 300.52 938.95 304.18 942.60 308.53 C 939.37 310.20 936.13 311.85 932.91 313.51 C 936.80 316.49 940.43 319.78 944.35 322.73 C 947.21 325.13 951.11 324.05 954.50 324.04 C 959.46 323.68 963.45 327.18 967.75 329.08 C 977.79 333.48 985.78 342.16 997.02 343.78 C 1003.37 344.89 1010.51 346.69 1013.85 352.85 C 1012.42 356.62 1010.98 360.40 1009.29 364.06 C 1005.53 360.80 1001.84 356.88 997.00 355.37 C 988.94 356.15 985.09 364.91 977.99 367.75 C 972.65 368.88 966.24 365.63 961.52 369.54 C 946.89 380.99 937.72 397.56 926.67 412.16 L 926.00 413.04 C 918.88 412.71 912.67 408.84 907.92 403.70 C 901.86 403.46 895.80 403.58 889.74 403.43 C 890.44 400.61 891.24 397.81 892.35 395.13 C 894.89 390.22 897.47 385.32 899.41 380.14 C 892.44 375.81 885.34 371.72 878.25 367.61 C 880.05 362.05 882.62 356.81 885.38 351.68 C 883.68 349.16 881.99 346.63 880.32 344.11 C 884.04 341.83 888.18 340.44 892.37 339.29 C 891.58 336.39 890.86 333.39 891.54 330.40 C 891.56 328.63 892.80 326.35 891.11 325.02 C 889.31 323.33 887.12 322.16 885.05 320.86 C 891.20 315.08 891.10 304.66 898.18 300.04 C 905.45 300.44 906.64 311.89 914.32 312.56 C 920.54 312.90 922.69 305.43 926.22 301.72 C 927.74 299.80 929.37 297.97 930.97 296.11 Z" />
</g>
<g id="#0f0fbfff">
<path fill="#0f0fbf" fill-opacity="0" d=" M 821.05 325.91 C 827.07 321.22 830.76 314.36 835.99 308.90 C 839.55 313.59 843.38 318.41 848.57 321.37 C 854.30 324.04 860.97 322.94 866.82 325.32 C 870.20 326.13 873.50 328.55 877.10 328.05 C 880.29 326.44 882.60 323.43 885.05 320.86 C 887.12 322.16 889.31 323.33 891.11 325.02 C 892.80 326.35 891.56 328.63 891.54 330.40 C 890.86 333.39 891.58 336.39 892.37 339.29 C 888.18 340.44 884.04 341.83 880.32 344.11 C 881.99 346.63 883.68 349.16 885.38 351.68 C 882.62 356.81 880.05 362.05 878.25 367.61 C 885.34 371.72 892.44 375.81 899.41 380.14 C 897.47 385.32 894.89 390.22 892.35 395.13 C 887.57 391.81 883.18 387.03 877.24 385.91 C 868.52 386.51 863.91 395.43 856.81 399.32 C 849.61 400.61 844.03 393.84 837.07 393.54 C 832.17 394.51 828.18 399.11 822.92 398.17 C 815.94 397.13 808.84 394.43 804.01 389.11 C 801.03 385.23 796.30 382.51 791.30 383.51 C 784.76 384.81 778.04 385.64 771.79 388.01 C 767.47 389.60 763.97 394.69 758.90 393.07 C 752.31 390.88 745.92 388.07 739.38 385.71 C 737.55 390.10 735.55 394.50 732.28 398.03 C 730.46 386.44 727.31 375.11 725.29 363.57 C 724.00 359.34 724.97 355.10 726.11 351.02 C 729.35 351.35 732.63 352.39 735.94 352.37 C 739.26 351.88 741.93 349.56 745.10 348.58 C 749.70 347.82 754.20 349.44 758.77 349.55 C 761.49 341.93 766.38 334.88 773.66 330.99 C 777.70 329.34 781.58 326.96 783.98 323.22 L 784.02 323.27 C 785.74 325.74 787.48 328.21 789.24 330.70 C 795.30 330.47 800.29 334.12 805.10 337.28 C 806.70 334.95 807.95 332.24 810.20 330.45 C 813.60 328.45 817.79 328.22 821.05 325.91 M 800.62 372.79 C 803.03 375.23 804.95 378.69 808.56 379.53 C 815.63 381.56 823.08 381.86 830.21 383.73 C 827.28 379.66 824.62 375.38 821.44 371.51 C 820.48 370.56 819.53 369.15 818.01 369.32 C 812.09 369.72 806.43 371.74 800.62 372.79 Z" />
</g>
<g id="#0f4f00ff">
<path fill="#0f4f00" fill-opacity="0" d=" M 1056.30 331.76 C 1062.55 333.02 1069.52 333.98 1074.06 338.94 C 1079.72 343.54 1076.66 351.91 1077.79 358.10 C 1083.37 356.44 1089.19 354.26 1095.08 356.14 C 1106.48 359.85 1117.84 367.88 1119.87 380.54 C 1098.15 387.32 1076.35 393.91 1054.58 400.53 C 1043.32 404.28 1032.02 408.05 1020.51 410.93 C 1016.74 410.12 1013.14 408.73 1009.59 407.30 C 1012.88 402.69 1017.90 400.01 1022.67 397.24 C 1019.73 393.22 1014.72 391.48 1011.73 387.63 C 1011.23 379.87 1017.01 369.90 1009.29 364.06 C 1010.98 360.40 1012.42 356.62 1013.85 352.85 C 1015.65 355.52 1017.96 358.04 1021.19 358.92 C 1028.69 361.17 1036.70 362.47 1044.52 361.24 C 1047.57 360.91 1049.69 357.44 1048.93 354.55 C 1047.77 351.95 1045.78 349.84 1044.05 347.63 C 1048.96 343.08 1054.48 338.53 1056.30 331.76 Z" />
</g>
<g id="#8f8f3fff">
<path fill="#8f8f3f" fill-opacity="0" d=" M 977.99 367.75 C 985.09 364.91 988.94 356.15 997.00 355.37 C 1001.84 356.88 1005.53 360.80 1009.29 364.06 C 1017.01 369.90 1011.23 379.87 1011.73 387.63 C 1014.72 391.48 1019.73 393.22 1022.67 397.24 C 1017.90 400.01 1012.88 402.69 1009.59 407.30 C 1013.14 408.73 1016.74 410.12 1020.51 410.93 C 1021.68 418.72 1021.01 426.71 1022.52 434.45 C 1011.16 437.41 1000.15 441.98 988.46 443.45 C 979.74 442.83 971.06 440.66 962.27 441.62 C 956.27 437.15 950.05 432.91 943.03 430.19 C 939.96 433.34 936.64 436.25 932.91 438.57 C 932.66 436.63 932.15 432.73 931.90 430.78 C 933.87 427.72 935.71 423.56 934.06 420.01 C 932.56 416.62 929.51 414.34 926.67 412.16 C 937.72 397.56 946.89 380.99 961.52 369.54 C 966.24 365.63 972.65 368.88 977.99 367.75 Z" />
</g>
<g id="#8e0fbffe">
<path fill="#8e0fbf" fill-opacity="0" d=" M 800.62 372.79 C 806.43 371.74 812.09 369.72 818.01 369.32 C 819.53 369.15 820.48 370.56 821.44 371.51 C 824.62 375.38 827.28 379.66 830.21 383.73 C 823.08 381.86 815.63 381.56 808.56 379.53 C 804.95 378.69 803.03 375.23 800.62 372.79 Z" />
</g>
<g id="#cf4f7fff">
<path fill="#cf4f7f" fill-opacity="0" d=" M 1119.87 380.54 L 1120.91 380.19 C 1122.34 382.80 1124.06 385.55 1123.63 388.68 C 1122.68 399.84 1120.23 410.80 1118.78 421.90 C 1118.13 426.81 1113.87 430.11 1111.90 434.44 C 1110.09 441.72 1110.23 449.35 1108.49 456.65 C 1103.88 465.79 1093.49 470.12 1083.93 472.02 C 1076.14 474.58 1067.93 474.89 1059.90 475.97 C 1053.24 477.84 1047.88 482.61 1041.64 485.45 C 1041.93 474.47 1043.72 463.59 1043.94 452.61 C 1038.91 451.20 1032.78 451.22 1029.56 446.53 C 1026.73 442.80 1024.59 438.61 1022.52 434.45 C 1021.01 426.71 1021.68 418.72 1020.51 410.93 C 1032.02 408.05 1043.32 404.28 1054.58 400.53 C 1076.35 393.91 1098.15 387.32 1119.87 380.54 Z" />
</g>
<g id="#4f8f7fff">
<path fill="#4f8f7f" fill-opacity="0" d=" M 771.79 388.01 C 778.04 385.64 784.76 384.81 791.30 383.51 C 796.30 382.51 801.03 385.23 804.01 389.11 C 808.84 394.43 815.94 397.13 822.92 398.17 C 828.18 399.11 832.17 394.51 837.07 393.54 C 844.03 393.84 849.61 400.61 856.81 399.32 C 863.91 395.43 868.52 386.51 877.24 385.91 C 883.18 387.03 887.57 391.81 892.35 395.13 C 891.24 397.81 890.44 400.61 889.74 403.43 C 895.80 403.58 901.86 403.46 907.92 403.70 C 912.67 408.84 918.88 412.71 926.00 413.04 C 922.86 417.02 919.75 421.03 916.68 425.06 C 914.06 423.51 911.46 421.93 908.85 420.37 C 905.88 425.65 902.13 430.65 896.98 434.00 C 893.29 436.02 888.89 435.40 884.87 435.79 C 882.32 437.61 880.73 442.18 877.18 441.87 C 874.52 440.47 873.00 437.72 871.29 435.37 C 872.12 431.51 873.69 427.88 875.43 424.36 C 871.68 424.69 867.29 423.46 864.28 426.19 C 861.21 428.92 858.61 432.11 855.80 435.08 C 852.45 432.80 849.11 430.50 845.84 428.12 C 844.48 429.23 843.14 430.36 841.80 431.49 C 839.05 429.84 836.25 428.28 833.41 426.81 C 834.26 424.96 835.09 423.09 835.91 421.22 C 821.71 417.25 807.06 419.88 792.74 421.26 C 794.09 417.95 795.55 414.69 796.98 411.41 C 790.51 414.01 782.68 415.47 779.05 422.11 C 779.18 425.09 782.32 426.63 784.08 428.66 C 781.79 431.11 779.51 434.49 775.84 434.68 C 770.06 435.07 764.26 435.70 758.63 437.08 C 754.64 439.05 751.99 442.88 749.08 446.09 C 746.95 448.78 744.04 451.78 744.65 455.54 C 745.31 460.84 747.02 465.94 747.94 471.20 C 745.10 472.26 742.04 473.24 739.81 475.39 C 739.28 477.93 740.04 480.52 740.47 483.02 C 742.09 489.92 743.35 496.96 746.10 503.53 C 745.63 505.16 745.17 506.78 744.66 508.40 C 743.44 510.93 741.79 513.22 740.29 515.59 C 735.11 498.24 731.56 480.45 727.11 462.91 C 724.16 449.79 720.23 436.87 718.05 423.59 C 721.24 420.79 724.75 417.71 725.17 413.19 C 725.55 407.37 728.57 402.31 732.28 398.03 C 735.55 394.50 737.55 390.10 739.38 385.71 C 745.92 388.07 752.31 390.88 758.90 393.07 C 763.97 394.69 767.47 389.60 771.79 388.01 Z" />
</g>
<g id="#cf0fbfff">
<path fill="#cf0fbf" fill-opacity="0" d=" M 779.05 422.11 C 782.68 415.47 790.51 414.01 796.98 411.41 C 795.55 414.69 794.09 417.95 792.74 421.26 C 807.06 419.88 821.71 417.25 835.91 421.22 C 835.09 423.09 834.26 424.96 833.41 426.81 C 836.25 428.28 839.05 429.84 841.80 431.49 C 843.14 430.36 844.48 429.23 845.84 428.12 C 849.11 430.50 852.45 432.80 855.80 435.08 C 858.61 432.11 861.21 428.92 864.28 426.19 C 867.29 423.46 871.68 424.69 875.43 424.36 C 873.69 427.88 872.12 431.51 871.29 435.37 C 870.66 439.43 870.47 444.16 867.25 447.20 C 862.85 451.48 857.69 455.05 854.12 460.14 C 851.14 464.55 846.18 466.86 841.72 469.44 C 842.69 474.80 844.49 480.65 841.80 485.83 C 839.47 489.11 836.59 491.96 833.77 494.82 C 821.29 500.39 806.60 501.34 793.44 497.79 C 800.13 495.10 803.92 488.91 805.93 482.28 C 799.57 480.45 793.27 478.42 787.01 476.32 C 784.24 480.45 781.58 484.65 778.94 488.86 C 781.04 491.70 783.08 494.58 785.21 497.42 C 777.75 499.47 771.25 503.70 764.64 507.54 C 758.42 510.53 751.18 509.95 744.66 508.40 C 745.17 506.78 745.63 505.16 746.10 503.53 C 747.18 503.10 748.27 502.67 749.38 502.25 C 749.68 499.41 749.85 496.46 750.25 493.67 C 753.27 493.93 756.26 494.24 759.30 494.57 C 759.71 491.45 759.91 488.30 760.06 485.15 C 765.06 483.55 770.02 481.77 774.93 479.89 C 774.91 479.23 774.86 477.90 774.84 477.24 C 765.92 475.19 757.26 470.30 747.94 471.20 C 747.02 465.94 745.31 460.84 744.65 455.54 C 744.04 451.78 746.95 448.78 749.08 446.09 C 751.99 442.88 754.64 439.05 758.63 437.08 C 764.26 435.70 770.06 435.07 775.84 434.68 C 779.51 434.49 781.79 431.11 784.08 428.66 C 782.32 426.63 779.18 425.09 779.05 422.11 Z" />
</g>
<g id="#0fcfbfff">
<path fill="#0fcfbf" fill-opacity="0" d=" M 926.00 413.04 L 926.67 412.16 C 929.51 414.34 932.56 416.62 934.06 420.01 C 935.71 423.56 933.87 427.72 931.90 430.78 C 928.31 434.29 924.35 437.64 922.28 442.34 C 919.01 449.82 908.17 449.46 905.15 457.05 C 900.63 470.81 895.76 484.54 892.72 498.72 C 894.41 501.89 897.76 503.60 900.60 505.60 C 899.72 508.13 898.86 510.67 898.07 513.22 C 900.51 513.65 902.98 514.11 905.48 514.58 C 905.38 520.38 904.03 527.25 908.83 531.69 C 904.07 535.56 898.40 538.05 892.64 540.01 C 885.09 542.60 877.41 545.29 870.84 549.94 C 866.31 552.99 865.38 558.69 863.30 563.34 C 855.76 559.42 848.70 554.67 841.17 550.75 C 839.86 551.69 838.57 552.63 837.28 553.58 C 835.21 553.87 833.15 554.14 831.11 554.55 C 831.63 547.04 832.76 539.52 831.67 532.01 C 830.79 519.74 828.12 506.38 833.77 494.82 C 836.59 491.96 839.47 489.11 841.80 485.83 C 844.49 480.65 842.69 474.80 841.72 469.44 C 846.18 466.86 851.14 464.55 854.12 460.14 C 857.69 455.05 862.85 451.48 867.25 447.20 C 870.47 444.16 870.66 439.43 871.29 435.37 C 873.00 437.72 874.52 440.47 877.18 441.87 C 880.73 442.18 882.32 437.61 884.87 435.79 C 888.89 435.40 893.29 436.02 896.98 434.00 C 902.13 430.65 905.88 425.65 908.85 420.37 C 911.46 421.93 914.06 423.51 916.68 425.06 C 919.75 421.03 922.86 417.02 926.00 413.04 M 857.10 503.59 C 854.37 506.85 853.22 510.83 853.17 515.00 C 856.02 515.34 859.03 515.79 861.93 516.14 C 860.25 511.98 858.68 507.78 857.10 503.59 Z" />
</g>
<g id="#cf0f7fff">
<path fill="#cf0f7f" fill-opacity="0" d=" M 943.03 430.19 C 950.05 432.91 956.27 437.15 962.27 441.62 C 963.42 447.93 964.22 455.42 959.17 460.31 C 958.64 464.11 958.25 467.93 957.81 471.74 C 952.88 474.78 947.92 477.77 943.02 480.84 C 942.93 481.77 942.76 483.62 942.68 484.54 C 948.05 486.30 954.16 486.67 958.69 490.35 C 964.17 496.51 967.13 504.78 967.81 512.92 C 966.28 517.59 963.63 521.79 960.89 525.84 C 956.50 533.30 950.42 539.48 945.74 546.70 C 940.23 548.41 936.57 552.88 933.22 557.28 C 929.47 562.54 922.38 562.29 916.68 563.71 C 916.53 558.88 915.88 554.10 914.62 549.44 C 916.26 547.14 918.69 545.12 919.35 542.29 C 918.50 538.59 915.83 535.41 913.97 532.21 C 912.31 531.65 910.54 531.74 908.83 531.69 C 904.03 527.25 905.38 520.38 905.48 514.58 C 902.98 514.11 900.51 513.65 898.07 513.22 C 898.86 510.67 899.72 508.13 900.60 505.60 C 897.76 503.60 894.41 501.89 892.72 498.72 C 895.76 484.54 900.63 470.81 905.15 457.05 C 908.17 449.46 919.01 449.82 922.28 442.34 C 924.35 437.64 928.31 434.29 931.90 430.78 C 932.15 432.73 932.66 436.63 932.91 438.57 C 936.64 436.25 939.96 433.34 943.03 430.19 Z" />
</g>
<g id="#0f8f3fff">
<path fill="#0f8f3f" fill-opacity="0" d=" M 988.46 443.45 C 1000.15 441.98 1011.16 437.41 1022.52 434.45 C 1024.59 438.61 1026.73 442.80 1029.56 446.53 C 1032.78 451.22 1038.91 451.20 1043.94 452.61 C 1043.72 463.59 1041.93 474.47 1041.64 485.45 C 1041.43 494.67 1040.61 503.87 1039.65 513.04 C 1039.54 516.58 1035.16 517.14 1033.63 519.77 C 1032.62 523.18 1032.46 526.78 1031.91 530.29 C 1027.33 531.68 1022.25 533.40 1019.39 537.48 C 1018.22 540.52 1020.75 543.35 1021.74 546.10 C 1018.75 551.90 1017.91 558.45 1018.50 564.90 C 1013.61 565.42 1008.70 565.90 1003.80 566.28 C 996.22 566.41 989.11 563.43 981.87 561.68 C 981.38 560.27 980.90 558.86 980.45 557.46 C 979.70 555.41 979.12 552.42 976.47 552.14 C 971.67 551.71 966.84 552.02 962.04 551.52 C 961.50 542.97 961.32 534.40 960.89 525.84 C 963.63 521.79 966.28 517.59 967.81 512.92 C 967.13 504.78 964.17 496.51 958.69 490.35 C 954.16 486.67 948.05 486.30 942.68 484.54 C 942.76 483.62 942.93 481.77 943.02 480.84 C 947.92 477.77 952.88 474.78 957.81 471.74 C 958.25 467.93 958.64 464.11 959.17 460.31 C 964.22 455.42 963.42 447.93 962.27 441.62 C 971.06 440.66 979.74 442.83 988.46 443.45 Z" />
</g>
<g id="#8fcf3fff">
<path fill="#8fcf3f" fill-opacity="0" d=" M 747.94 471.20 C 757.26 470.30 765.92 475.19 774.84 477.24 C 774.86 477.90 774.91 479.23 774.93 479.89 C 770.02 481.77 765.06 483.55 760.06 485.15 C 759.91 488.30 759.71 491.45 759.30 494.57 C 756.26 494.24 753.27 493.93 750.25 493.67 C 749.85 496.46 749.68 499.41 749.38 502.25 C 748.27 502.67 747.18 503.10 746.10 503.53 C 743.35 496.96 742.09 489.92 740.47 483.02 C 740.04 480.52 739.28 477.93 739.81 475.39 C 742.04 473.24 745.10 472.26 747.94 471.20 Z" />
</g>
<g id="#4f8fbfff">
<path fill="#4f8fbf" fill-opacity="0" d=" M 787.01 476.32 C 793.27 478.42 799.57 480.45 805.93 482.28 C 803.92 488.91 800.13 495.10 793.44 497.79 C 791.58 498.83 789.73 499.86 787.90 500.92 C 786.99 499.75 786.09 498.59 785.21 497.42 C 783.08 494.58 781.04 491.70 778.94 488.86 C 781.58 484.65 784.24 480.45 787.01 476.32 Z" />
</g>
<g id="#4f8f3fff">
<path fill="#4f8f3f" fill-opacity="0" d=" M 793.44 497.79 C 806.60 501.34 821.29 500.39 833.77 494.82 C 828.12 506.38 830.79 519.74 831.67 532.01 C 832.76 539.52 831.63 547.04 831.11 554.55 C 827.27 555.88 823.85 558.41 819.80 559.07 C 814.61 558.73 810.34 553.71 805.02 554.90 C 796.56 558.19 791.39 566.09 783.98 570.97 C 776.86 575.50 770.76 581.45 763.53 585.80 C 765.10 583.80 767.60 581.71 766.99 578.87 C 766.02 573.47 764.14 568.27 763.01 562.89 C 767.21 562.22 771.43 561.58 775.67 561.18 C 775.71 557.05 775.64 552.92 775.62 548.79 C 768.59 548.44 761.53 548.23 754.51 548.74 C 754.03 555.07 753.38 561.39 752.32 567.66 C 753.83 567.59 755.34 567.53 756.87 567.49 C 756.42 571.11 755.86 574.73 755.42 578.35 C 757.99 580.54 760.31 583.06 762.55 585.60 C 756.67 584.77 753.28 579.42 748.41 576.71 C 745.16 575.38 742.10 577.98 739.48 579.56 C 738.67 580.03 737.87 580.52 737.09 581.02 C 730.94 580.04 724.72 579.74 718.51 580.01 C 717.28 575.45 716.56 570.77 715.82 566.12 C 716.91 566.26 718.04 566.43 719.15 566.58 C 721.43 562.36 724.63 558.73 728.31 555.68 C 728.83 551.85 729.57 548.09 730.49 544.35 C 732.10 538.88 729.33 533.39 728.38 528.03 C 729.98 528.00 733.20 527.93 734.81 527.90 C 736.07 523.58 737.86 519.39 740.29 515.59 C 741.79 513.22 743.44 510.93 744.66 508.40 C 751.18 509.95 758.42 510.53 764.64 507.54 C 771.25 503.70 777.75 499.47 785.21 497.42 C 786.09 498.59 786.99 499.75 787.90 500.92 C 789.73 499.86 791.58 498.83 793.44 497.79 M 747.73 518.11 C 745.51 522.00 743.18 525.84 741.42 529.98 C 748.76 531.32 756.97 531.06 762.68 525.63 C 757.72 523.09 752.69 520.64 747.73 518.11 M 771.19 531.91 C 769.52 532.35 770.42 534.95 772.01 534.29 C 773.67 533.86 772.75 531.22 771.19 531.91 Z" />
</g>
<g id="#8fcfbfff">
<path fill="#8fcfbf" fill-opacity="0" d=" M 857.10 503.59 C 858.68 507.78 860.25 511.98 861.93 516.14 C 859.03 515.79 856.02 515.34 853.17 515.00 C 853.22 510.83 854.37 506.85 857.10 503.59 Z" />
</g>
<g id="#10503fff">
<path fill="#10503f" fill-opacity="0" d=" M 747.73 518.11 C 752.69 520.64 757.72 523.09 762.68 525.63 C 756.97 531.06 748.76 531.32 741.42 529.98 C 743.18 525.84 745.51 522.00 747.73 518.11 Z" />
</g>
<g id="#cf8f3fff">
<path fill="#cf8f3f" fill-opacity="0" d=" M 945.74 546.70 C 950.42 539.48 956.50 533.30 960.89 525.84 C 961.32 534.40 961.50 542.97 962.04 551.52 C 966.84 552.02 971.67 551.71 976.47 552.14 C 979.12 552.42 979.70 555.41 980.45 557.46 C 978.85 564.88 975.43 571.92 975.45 579.64 C 978.56 585.99 987.35 585.18 991.79 590.08 C 993.71 594.94 993.57 600.29 993.76 605.45 C 988.96 603.83 983.95 602.44 978.83 602.87 C 971.99 603.39 967.08 610.06 960.05 609.54 C 953.10 609.00 946.31 607.39 939.37 606.83 C 934.27 606.61 929.72 609.05 925.15 610.87 C 919.06 612.48 912.62 610.76 907.18 607.89 C 896.74 601.54 883.60 611.55 873.61 603.73 C 878.08 600.98 880.48 596.23 881.98 591.35 C 884.72 587.20 891.48 589.66 894.37 585.57 C 895.98 583.78 897.21 581.72 898.42 579.66 C 894.69 575.71 889.06 572.69 887.47 567.15 C 889.26 562.42 894.69 558.77 893.66 553.22 C 892.95 548.85 892.42 544.44 892.64 540.01 C 898.40 538.05 904.07 535.56 908.83 531.69 C 910.54 531.74 912.31 531.65 913.97 532.21 C 915.83 535.41 918.50 538.59 919.35 542.29 C 918.69 545.12 916.26 547.14 914.62 549.44 C 915.88 554.10 916.53 558.88 916.68 563.71 C 922.38 562.29 929.47 562.54 933.22 557.28 C 936.57 552.88 940.23 548.41 945.74 546.70 Z" />
</g>
<g id="#cf8f00ff">
<path fill="#cf8f00" fill-opacity="0" d=" M 1019.39 537.48 C 1022.25 533.40 1027.33 531.68 1031.91 530.29 C 1040.07 530.91 1048.19 533.13 1056.45 532.31 C 1067.18 530.84 1078.50 531.41 1088.42 536.10 C 1098.01 539.72 1102.17 550.52 1111.52 554.56 C 1116.50 557.46 1123.18 558.38 1126.44 563.59 C 1127.32 569.52 1125.81 575.48 1123.55 580.91 C 1118.47 586.70 1114.96 594.10 1108.06 598.05 C 1103.82 600.16 1102.34 604.78 1101.05 608.98 C 1096.28 606.23 1091.39 602.43 1085.60 602.84 C 1080.38 603.54 1079.21 609.57 1075.43 612.31 C 1071.61 614.51 1067.09 614.72 1063.00 616.17 C 1058.06 618.69 1054.05 623.43 1048.29 624.01 C 1044.31 619.83 1043.96 613.73 1042.58 608.41 C 1026.52 612.14 1009.23 611.14 993.76 605.45 C 993.57 600.29 993.71 594.94 991.79 590.08 C 987.35 585.18 978.56 585.99 975.45 579.64 C 975.43 571.92 978.85 564.88 980.45 557.46 C 980.90 558.86 981.38 560.27 981.87 561.68 C 989.11 563.43 996.22 566.41 1003.80 566.28 C 1008.70 565.90 1013.61 565.42 1018.50 564.90 C 1017.91 558.45 1018.75 551.90 1021.74 546.10 C 1020.75 543.35 1018.22 540.52 1019.39 537.48 Z" />
</g>
<g id="#0f8f00ff">
<path fill="#0f8f00" fill-opacity="0" d=" M 771.19 531.91 C 772.75 531.22 773.67 533.86 772.01 534.29 C 770.42 534.95 769.52 532.35 771.19 531.91 Z" />
</g>
<g id="#4f8f00ff">
<path fill="#4f8f00" fill-opacity="0" d=" M 870.84 549.94 C 877.41 545.29 885.09 542.60 892.64 540.01 C 892.42 544.44 892.95 548.85 893.66 553.22 C 894.69 558.77 889.26 562.42 887.47 567.15 C 889.06 572.69 894.69 575.71 898.42 579.66 C 897.21 581.72 895.98 583.78 894.37 585.57 C 891.48 589.66 884.72 587.20 881.98 591.35 C 880.48 596.23 878.08 600.98 873.61 603.73 C 866.28 605.90 858.75 603.44 851.74 601.33 C 849.45 605.93 847.90 610.92 845.09 615.26 C 842.44 619.26 837.67 620.95 834.45 624.35 C 832.59 628.55 832.07 633.27 831.54 637.81 C 822.80 639.44 812.47 637.53 805.78 644.77 C 804.88 642.59 803.99 640.43 803.16 638.24 C 800.02 637.18 796.94 636.20 793.82 635.21 C 795.81 629.27 794.69 620.34 801.98 617.96 C 805.69 616.11 809.86 617.26 813.77 617.60 C 817.45 611.78 823.05 607.20 825.49 600.63 C 826.90 597.57 827.62 594.16 829.42 591.30 C 831.71 588.76 834.81 587.13 837.65 585.28 C 837.41 578.71 836.53 571.99 838.56 565.59 C 839.91 561.55 838.67 557.41 837.28 553.58 C 838.57 552.63 839.86 551.69 841.17 550.75 C 848.70 554.67 855.76 559.42 863.30 563.34 C 865.38 558.69 866.31 552.99 870.84 549.94 Z" />
</g>
<g id="#cf0f3fff">
<path fill="#cf0f3f" fill-opacity="0" d=" M 754.51 548.74 C 761.53 548.23 768.59 548.44 775.62 548.79 C 775.64 552.92 775.71 557.05 775.67 561.18 C 771.43 561.58 767.21 562.22 763.01 562.89 C 764.14 568.27 766.02 573.47 766.99 578.87 C 767.60 581.71 765.10 583.80 763.53 585.80 C 763.29 585.75 762.79 585.65 762.55 585.60 C 760.31 583.06 757.99 580.54 755.42 578.35 C 755.86 574.73 756.42 571.11 756.87 567.49 C 755.34 567.53 753.83 567.59 752.32 567.66 C 753.38 561.39 754.03 555.07 754.51 548.74 Z" />
</g>
<g id="#4f4f7fff">
<path fill="#4f4f7f" fill-opacity="0" d=" M 805.02 554.90 C 810.34 553.71 814.61 558.73 819.80 559.07 C 823.85 558.41 827.27 555.88 831.11 554.55 C 833.15 554.14 835.21 553.87 837.28 553.58 C 838.67 557.41 839.91 561.55 838.56 565.59 C 836.53 571.99 837.41 578.71 837.65 585.28 C 834.81 587.13 831.71 588.76 829.42 591.30 C 827.62 594.16 826.90 597.57 825.49 600.63 C 823.05 607.20 817.45 611.78 813.77 617.60 C 809.86 617.26 805.69 616.11 801.98 617.96 C 794.69 620.34 795.81 629.27 793.82 635.21 C 796.94 636.20 800.02 637.18 803.16 638.24 C 803.99 640.43 804.88 642.59 805.78 644.77 C 799.89 650.60 791.82 653.25 783.93 655.06 C 777.36 656.60 771.98 661.19 765.41 662.61 C 759.92 662.79 754.44 661.82 748.95 661.77 C 748.60 655.45 748.48 649.04 747.25 642.82 C 743.38 632.02 734.56 624.13 729.33 614.11 C 728.85 607.76 732.67 602.86 737.01 598.89 C 730.17 593.53 720.92 588.99 718.51 580.01 C 724.72 579.74 730.94 580.04 737.09 581.02 C 734.03 582.87 730.98 584.73 727.93 586.58 C 730.76 588.94 733.62 591.20 736.40 593.68 C 739.82 596.66 738.57 601.97 739.58 605.86 C 746.93 607.13 754.28 608.44 761.66 609.65 C 758.23 604.92 754.64 600.30 751.46 595.41 C 754.79 593.97 758.14 592.58 761.43 591.04 C 757.82 590.49 753.70 590.79 750.74 588.33 C 747.72 585.39 745.84 581.52 743.51 578.08 C 742.16 578.55 740.80 579.02 739.48 579.56 C 742.10 577.98 745.16 575.38 748.41 576.71 C 753.28 579.42 756.67 584.77 762.55 585.60 C 762.79 585.65 763.29 585.75 763.53 585.80 C 770.76 581.45 776.86 575.50 783.98 570.97 C 791.39 566.09 796.56 558.19 805.02 554.90 M 780.02 581.03 C 776.91 584.45 775.55 589.34 775.40 593.90 C 776.85 598.90 780.40 603.24 784.35 606.56 C 786.86 606.15 789.16 604.93 791.36 603.68 C 795.55 601.32 796.25 595.99 798.37 592.09 C 804.06 590.01 811.66 590.73 815.45 585.33 C 808.39 583.60 801.05 585.03 793.94 583.65 C 789.21 583.32 784.78 580.60 780.02 581.03 M 757.75 624.21 C 753.44 630.92 753.21 639.19 753.30 646.94 C 754.72 652.97 761.32 655.51 765.81 659.00 C 767.69 649.09 770.51 638.43 766.21 628.74 C 763.76 626.63 760.64 625.55 757.75 624.21 Z" />
</g>
<g id="#4f0f3fff">
<path fill="#4f0f3f" fill-opacity="0" d=" M 597.32 558.99 C 599.85 558.16 602.12 556.39 604.81 556.14 C 614.72 556.90 625.89 556.05 634.37 562.25 C 642.92 560.04 651.80 558.11 660.68 558.70 C 662.45 561.84 664.28 564.96 666.18 568.03 C 664.75 569.97 663.30 571.88 661.88 573.83 C 662.49 576.49 664.43 580.36 661.29 582.17 C 654.46 586.74 646.42 589.25 639.99 594.51 C 637.35 591.80 634.55 589.24 631.45 587.07 C 629.37 592.31 627.63 597.68 626.07 603.09 C 624.55 600.38 623.43 597.38 621.27 595.09 C 618.03 592.20 613.39 591.19 610.59 587.76 C 608.71 586.18 607.89 583.56 605.56 582.56 C 599.59 581.70 593.56 582.30 587.57 581.75 C 588.92 576.19 588.12 568.55 594.38 565.94 C 595.36 563.62 596.32 561.30 597.32 558.99 Z" />
</g>
<g id="#8fcf7fff">
<path fill="#8fcf7f" fill-opacity="0" d=" M 660.68 558.70 C 663.44 557.60 666.19 556.51 669.05 555.66 C 670.18 557.19 672.44 560.24 673.57 561.77 C 676.14 561.39 678.45 560.06 681.01 559.65 C 685.46 560.87 688.88 565.34 693.96 564.20 C 701.22 563.89 708.45 564.02 715.66 565.12 L 715.82 566.12 C 716.56 570.77 717.28 575.45 718.51 580.01 C 720.92 588.99 730.17 593.53 737.01 598.89 C 732.67 602.86 728.85 607.76 729.33 614.11 C 727.16 616.11 724.96 618.08 722.76 620.04 C 724.65 625.35 726.93 630.50 729.32 635.60 C 727.20 636.76 725.14 638.64 722.55 638.33 C 714.75 637.46 707.01 636.25 699.21 635.42 C 692.06 634.15 685.50 630.82 679.06 627.63 C 681.38 624.13 683.81 620.68 685.62 616.88 C 679.10 617.92 673.60 621.68 667.65 624.24 C 663.67 626.15 659.95 622.75 656.45 621.29 C 649.96 618.08 643.27 615.28 637.07 611.54 C 633.11 609.14 629.20 606.54 626.07 603.09 C 627.63 597.68 629.37 592.31 631.45 587.07 C 634.55 589.24 637.35 591.80 639.99 594.51 C 646.42 589.25 654.46 586.74 661.29 582.17 C 664.43 580.36 662.49 576.49 661.88 573.83 C 663.30 571.88 664.75 569.97 666.18 568.03 C 664.28 564.96 662.45 561.84 660.68 558.70 Z" />
</g>
<g id="#4fce7fff">
<path fill="#4fce7f" fill-opacity="0" d=" M 739.48 579.56 C 740.80 579.02 742.16 578.55 743.51 578.08 C 745.84 581.52 747.72 585.39 750.74 588.33 C 753.70 590.79 757.82 590.49 761.43 591.04 C 758.14 592.58 754.79 593.97 751.46 595.41 C 754.64 600.30 758.23 604.92 761.66 609.65 C 754.28 608.44 746.93 607.13 739.58 605.86 C 738.57 601.97 739.82 596.66 736.40 593.68 C 733.62 591.20 730.76 588.94 727.93 586.58 C 730.98 584.73 734.03 582.87 737.09 581.02 C 737.87 580.52 738.67 580.03 739.48 579.56 Z" />
</g>
<g id="#0fcf3fff">
<path fill="#0fcf3f" fill-opacity="0" d=" M 1123.55 580.91 C 1125.14 580.05 1126.84 579.41 1128.52 578.72 C 1133.85 586.04 1139.84 592.89 1144.25 600.85 C 1150.60 610.09 1155.38 620.64 1163.41 628.63 C 1166.61 632.26 1171.55 629.61 1175.46 628.95 C 1176.65 625.53 1177.66 620.98 1181.64 619.86 C 1187.74 618.74 1194.57 620.16 1198.99 624.75 C 1197.58 628.77 1196.25 632.81 1194.97 636.87 C 1198.52 640.57 1202.04 645.15 1207.60 645.45 C 1216.84 646.38 1225.73 642.51 1234.70 640.77 C 1234.70 646.53 1234.10 652.31 1234.61 658.06 C 1234.67 661.51 1238.25 663.27 1240.41 665.34 C 1239.32 671.69 1236.23 678.06 1238.59 684.55 C 1242.77 700.72 1248.95 716.57 1249.66 733.42 C 1249.64 735.39 1249.49 737.57 1248.13 739.13 C 1243.82 743.84 1238.75 747.80 1234.59 752.64 C 1231.32 756.32 1231.90 761.62 1230.55 766.09 C 1226.57 766.61 1222.60 767.85 1218.60 767.36 C 1215.35 766.87 1213.16 764.23 1211.22 761.85 C 1202.63 761.19 1193.57 762.24 1185.44 758.89 C 1188.97 752.03 1193.84 744.51 1190.91 736.50 C 1196.87 736.51 1202.79 736.76 1208.77 736.96 C 1208.46 722.01 1207.86 707.01 1205.61 692.22 C 1204.70 689.12 1203.36 684.67 1199.45 684.61 C 1191.21 683.99 1182.93 684.82 1174.69 684.26 C 1174.49 688.19 1173.92 692.10 1172.94 695.92 C 1164.31 693.06 1155.20 692.30 1146.34 690.52 C 1140.16 689.28 1137.07 683.11 1132.97 679.01 C 1129.39 673.64 1123.24 671.41 1117.62 668.98 C 1117.66 665.85 1119.51 661.12 1115.76 659.42 C 1106.34 655.75 1095.80 656.26 1086.36 652.59 C 1081.54 651.09 1081.72 645.11 1079.95 641.17 C 1081.82 639.40 1083.67 637.60 1085.50 635.78 C 1081.36 633.41 1077.09 631.26 1072.78 629.22 C 1069.71 627.77 1066.63 626.31 1063.59 624.86 C 1063.42 621.96 1063.22 619.06 1063.00 616.17 C 1067.09 614.72 1071.61 614.51 1075.43 612.31 C 1079.21 609.57 1080.38 603.54 1085.60 602.84 C 1091.39 602.43 1096.28 606.23 1101.05 608.98 C 1102.34 604.78 1103.82 600.16 1108.06 598.05 C 1114.96 594.10 1118.47 586.70 1123.55 580.91 Z" />
</g>
<g id="#0fcf00ff">
<path fill="#0fcf00" fill-opacity="0" d=" M 780.02 581.03 C 784.78 580.60 789.21 583.32 793.94 583.65 C 801.05 585.03 808.39 583.60 815.45 585.33 C 811.66 590.73 804.06 590.01 798.37 592.09 C 796.25 595.99 795.55 601.32 791.36 603.68 C 789.16 604.93 786.86 606.15 784.35 606.56 C 780.40 603.24 776.85 598.90 775.40 593.90 C 775.55 589.34 776.91 584.45 780.02 581.03 Z" />
</g>
<g id="#0f8fbffe">
<path fill="#0f8fbf" fill-opacity="0" d=" M 587.57 581.75 C 593.56 582.30 599.59 581.70 605.56 582.56 C 607.89 583.56 608.71 586.18 610.59 587.76 C 613.39 591.19 618.03 592.20 621.27 595.09 C 623.43 597.38 624.55 600.38 626.07 603.09 C 629.20 606.54 633.11 609.14 637.07 611.54 C 630.83 614.46 624.49 617.17 618.36 620.32 C 612.27 623.34 604.87 623.47 599.58 628.06 C 591.17 627.75 582.74 627.63 574.38 626.63 C 571.26 626.41 567.77 626.02 565.03 627.84 C 560.05 631.28 557.28 637.42 551.69 640.01 C 539.91 638.82 528.02 638.44 516.23 637.26 C 516.78 630.91 515.65 624.50 516.35 618.18 C 518.35 611.59 526.07 609.37 528.54 602.97 C 532.41 603.09 536.30 603.41 540.16 603.82 C 540.54 602.48 541.30 599.79 541.69 598.45 C 550.43 596.82 561.47 600.75 568.50 593.73 C 569.11 592.23 570.34 589.24 570.95 587.74 C 575.01 588.40 578.97 589.55 582.87 590.87 C 584.44 587.82 585.93 584.75 587.57 581.75 Z" />
</g>
<g id="#8fcf00fe">
<path fill="#8fcf00" fill-opacity="0" d=" M 851.74 601.33 C 858.75 603.44 866.28 605.90 873.61 603.73 C 883.60 611.55 896.74 601.54 907.18 607.89 C 912.62 610.76 919.06 612.48 925.15 610.87 C 927.94 613.85 932.37 616.58 932.10 621.24 C 931.59 627.29 931.19 633.35 930.93 639.43 C 921.00 637.62 911.29 634.64 901.25 633.45 C 898.35 640.72 893.74 647.38 891.65 654.94 C 892.77 659.16 897.42 660.94 900.76 663.13 C 899.66 665.21 899.42 667.87 897.88 669.77 C 895.06 671.55 891.43 671.62 888.75 673.67 C 887.14 675.42 886.30 677.70 885.18 679.77 C 882.49 685.77 875.59 687.84 870.18 690.70 C 869.04 689.48 867.91 688.27 866.78 687.08 C 868.62 681.94 872.72 678.41 877.19 675.63 C 876.76 674.30 876.34 672.99 875.92 671.68 C 870.98 670.45 864.74 671.94 860.58 668.44 C 856.54 662.73 854.38 654.32 846.54 652.60 C 842.94 651.05 838.54 649.97 836.48 646.31 C 834.84 643.47 833.39 640.52 831.54 637.81 C 832.07 633.27 832.59 628.55 834.45 624.35 C 837.67 620.95 842.44 619.26 845.09 615.26 C 847.90 610.92 849.45 605.93 851.74 601.33 Z" />
</g>
<g id="#0f8f7ffe">
<path fill="#0f8f7f" fill-opacity="0" d=" M 978.83 602.87 C 983.95 602.44 988.96 603.83 993.76 605.45 C 1009.23 611.14 1026.52 612.14 1042.58 608.41 C 1043.96 613.73 1044.31 619.83 1048.29 624.01 C 1054.05 623.43 1058.06 618.69 1063.00 616.17 C 1063.22 619.06 1063.42 621.96 1063.59 624.86 C 1066.63 626.31 1069.71 627.77 1072.78 629.22 C 1072.21 631.60 1072.15 634.34 1070.54 636.31 C 1065.77 639.59 1060.67 643.19 1054.66 643.43 C 1051.18 643.52 1048.02 644.97 1045.31 647.07 C 1047.63 648.47 1049.95 649.91 1052.28 651.31 C 1048.54 655.41 1045.64 661.22 1039.82 662.46 C 1032.05 662.75 1024.24 662.91 1016.49 663.37 C 1013.06 663.92 1009.06 663.18 1006.93 660.25 C 1004.86 655.68 1005.15 650.39 1002.97 645.87 C 1001.26 642.58 997.65 641.10 994.60 639.38 C 993.03 642.86 991.43 646.33 989.57 649.68 C 985.89 648.26 982.32 646.45 978.43 645.78 C 971.35 644.98 964.41 647.01 957.41 647.48 C 948.05 647.48 937.96 646.20 930.93 639.43 C 931.19 633.35 931.59 627.29 932.10 621.24 C 932.37 616.58 927.94 613.85 925.15 610.87 C 929.72 609.05 934.27 606.61 939.37 606.83 C 946.31 607.39 953.10 609.00 960.05 609.54 C 967.08 610.06 971.99 603.39 978.83 602.87 M 1041.95 624.16 C 1042.35 625.49 1042.75 626.83 1043.17 628.18 C 1044.50 627.80 1045.84 627.43 1047.19 627.05 C 1046.73 625.68 1046.27 624.31 1045.83 622.95 C 1044.52 623.34 1043.23 623.74 1041.95 624.16 Z" />
</g>
<g id="#0f0f3fff">
<path fill="#0f0f3f" fill-opacity="0" d=" M 618.36 620.32 C 624.49 617.17 630.83 614.46 637.07 611.54 C 643.27 615.28 649.96 618.08 656.45 621.29 C 651.96 622.82 647.41 624.18 642.89 625.56 C 642.90 628.12 644.22 631.47 641.70 633.26 C 639.12 635.48 635.59 637.04 634.49 640.55 C 633.56 644.03 631.65 647.83 632.60 651.55 C 634.94 656.81 641.09 658.87 644.03 663.67 C 644.99 666.50 644.45 669.54 644.28 672.45 C 640.56 674.28 637.27 677.49 637.31 682.02 C 636.39 689.58 639.06 697.02 638.37 704.60 C 637.75 709.61 640.16 714.22 641.83 718.79 C 633.67 716.42 625.16 716.65 616.89 714.99 C 610.60 718.14 604.49 721.68 598.82 725.84 C 595.67 728.27 591.74 729.06 587.87 729.33 C 584.18 729.50 582.74 733.45 580.66 735.87 C 578.72 738.81 575.39 740.27 572.25 741.54 C 565.62 744.01 558.87 746.53 551.73 746.77 C 553.78 754.92 557.68 762.46 562.29 769.45 C 559.52 770.17 556.78 770.97 554.06 771.86 C 536.74 743.89 519.12 716.09 502.07 687.96 C 499.13 684.27 499.70 679.11 502.65 675.70 C 504.52 674.33 506.77 673.62 508.88 672.69 C 506.34 667.52 501.63 662.71 502.65 656.49 C 503.98 651.42 508.10 647.56 512.84 645.55 C 514.98 643.42 515.09 639.95 516.23 637.26 C 528.02 638.44 539.91 638.82 551.69 640.01 C 557.28 637.42 560.05 631.28 565.03 627.84 C 567.77 626.02 571.26 626.41 574.38 626.63 C 582.74 627.63 591.17 627.75 599.58 628.06 C 604.87 623.47 612.27 623.34 618.36 620.32 M 581.62 660.30 C 580.60 666.41 581.29 672.72 583.00 678.65 C 586.70 677.34 590.29 675.73 593.64 673.69 C 595.96 671.41 596.88 668.18 598.11 665.27 C 594.34 662.22 591.17 658.35 586.86 656.06 C 584.60 656.38 581.97 657.83 581.62 660.30 Z" />
</g>
<g id="#4f4fbfff">
<path fill="#4f4fbf" fill-opacity="0" d=" M 722.76 620.04 C 724.96 618.08 727.16 616.11 729.33 614.11 C 734.56 624.13 743.38 632.02 747.25 642.82 C 748.48 649.04 748.60 655.45 748.95 661.77 C 749.55 673.61 749.52 685.50 747.96 697.27 C 743.21 700.13 738.20 702.85 732.51 702.81 C 727.60 702.03 723.37 704.55 721.09 708.68 C 723.04 702.07 720.70 695.24 719.12 688.84 C 718.22 685.31 715.40 682.83 712.98 680.32 C 711.06 682.46 708.25 684.21 707.38 687.05 C 707.60 696.17 712.68 705.01 720.51 709.72 C 720.05 710.52 719.58 711.31 719.14 712.13 C 711.66 705.13 704.30 697.94 698.24 689.64 C 701.81 687.61 703.27 683.48 703.25 679.51 C 703.38 674.99 705.28 670.07 703.32 665.71 C 701.90 662.57 700.11 659.64 698.47 656.64 C 701.28 652.97 705.18 649.65 706.22 644.99 C 704.69 641.28 701.52 638.61 699.21 635.42 C 707.01 636.25 714.75 637.46 722.55 638.33 C 725.14 638.64 727.20 636.76 729.32 635.60 C 726.93 630.50 724.65 625.35 722.76 620.04 Z" />
</g>
<g id="#8f0f7ffe">
<path fill="#8f0f7f" fill-opacity="0" d=" M 1331.23 616.91 C 1334.57 615.33 1337.54 617.83 1340.21 619.55 C 1339.29 621.99 1338.41 624.43 1337.63 626.91 C 1341.89 627.55 1346.97 627.06 1350.21 630.47 C 1354.09 634.63 1354.21 640.67 1355.56 645.88 C 1358.40 655.57 1356.81 665.72 1357.27 675.64 C 1357.26 684.41 1358.94 693.47 1355.85 701.96 C 1354.07 709.49 1350.14 716.78 1351.52 724.78 C 1351.86 728.29 1353.54 731.47 1354.16 734.91 C 1353.93 743.15 1348.26 749.63 1344.68 756.67 C 1340.59 764.81 1334.59 771.86 1327.71 777.77 C 1324.77 780.21 1320.58 777.59 1317.51 779.44 C 1314.24 782.73 1312.03 786.90 1308.77 790.19 C 1309.15 787.92 1309.44 785.64 1309.74 783.37 C 1301.74 782.01 1294.23 779.06 1287.16 775.17 C 1278.20 773.77 1268.99 773.53 1259.91 773.40 C 1250.60 771.92 1244.75 781.26 1236.18 782.66 C 1232.16 782.88 1228.73 780.31 1225.27 778.68 C 1226.07 774.11 1228.51 770.17 1230.55 766.09 C 1231.90 761.62 1231.32 756.32 1234.59 752.64 C 1238.75 747.80 1243.82 743.84 1248.13 739.13 C 1249.49 737.57 1249.64 735.39 1249.66 733.42 C 1248.95 716.57 1242.77 700.72 1238.59 684.55 C 1236.23 678.06 1239.32 671.69 1240.41 665.34 C 1238.25 663.27 1234.67 661.51 1234.61 658.06 C 1234.10 652.31 1234.70 646.53 1234.70 640.77 C 1238.44 638.12 1242.38 635.27 1247.17 635.15 C 1253.10 635.12 1258.71 632.38 1264.60 632.44 C 1273.25 639.25 1279.59 649.70 1279.25 661.03 C 1283.87 663.52 1288.60 665.81 1293.45 667.85 C 1296.88 659.59 1299.85 650.73 1306.13 644.13 C 1309.51 640.65 1315.99 641.04 1317.89 636.01 C 1321.27 629.18 1322.73 619.22 1331.23 616.91 Z" />
</g>
<g id="#8f0f3fff">
<path fill="#8f0f3f" fill-opacity="0" d=" M 667.65 624.24 C 673.60 621.68 679.10 617.92 685.62 616.88 C 683.81 620.68 681.38 624.13 679.06 627.63 C 685.50 630.82 692.06 634.15 699.21 635.42 C 701.52 638.61 704.69 641.28 706.22 644.99 C 705.18 649.65 701.28 652.97 698.47 656.64 C 693.72 660.50 687.69 662.24 682.69 665.71 C 675.21 670.98 668.14 677.16 663.18 684.93 C 659.19 682.96 657.22 678.76 654.20 675.73 C 651.64 673.10 647.81 672.37 644.28 672.45 C 644.45 669.54 644.99 666.50 644.03 663.67 C 641.09 658.87 634.94 656.81 632.60 651.55 C 631.65 647.83 633.56 644.03 634.49 640.55 C 635.59 637.04 639.12 635.48 641.70 633.26 C 644.22 631.47 642.90 628.12 642.89 625.56 C 647.41 624.18 651.96 622.82 656.45 621.29 C 659.95 622.75 663.67 626.15 667.65 624.24 Z" />
</g>
<g id="#8f8f7fff">
<path fill="#8f8f7f" fill-opacity="0" d=" M 1041.95 624.16 C 1043.23 623.74 1044.52 623.34 1045.83 622.95 C 1046.27 624.31 1046.73 625.68 1047.19 627.05 C 1045.84 627.43 1044.50 627.80 1043.17 628.18 C 1042.75 626.83 1042.35 625.49 1041.95 624.16 Z" />
</g>
<g id="#cfcf7fff">
<path fill="#cfcf7f" fill-opacity="0" d=" M 757.75 624.21 C 760.64 625.55 763.76 626.63 766.21 628.74 C 770.51 638.43 767.69 649.09 765.81 659.00 C 761.32 655.51 754.72 652.97 753.30 646.94 C 753.21 639.19 753.44 630.92 757.75 624.21 Z" />
</g>
<g id="#8f8f00ff">
<path fill="#8f8f00" fill-opacity="0" d=" M 1072.78 629.22 C 1077.09 631.26 1081.36 633.41 1085.50 635.78 C 1083.67 637.60 1081.82 639.40 1079.95 641.17 C 1081.72 645.11 1081.54 651.09 1086.36 652.59 C 1095.80 656.26 1106.34 655.75 1115.76 659.42 C 1119.51 661.12 1117.66 665.85 1117.62 668.98 C 1123.24 671.41 1129.39 673.64 1132.97 679.01 C 1137.07 683.11 1140.16 689.28 1146.34 690.52 C 1155.20 692.30 1164.31 693.06 1172.94 695.92 C 1173.92 692.10 1174.49 688.19 1174.69 684.26 C 1182.93 684.82 1191.21 683.99 1199.45 684.61 C 1203.36 684.67 1204.70 689.12 1205.61 692.22 C 1207.86 707.01 1208.46 722.01 1208.77 736.96 C 1202.79 736.76 1196.87 736.51 1190.91 736.50 C 1193.84 744.51 1188.97 752.03 1185.44 758.89 C 1193.57 762.24 1202.63 761.19 1211.22 761.85 C 1213.16 764.23 1215.35 766.87 1218.60 767.36 C 1222.60 767.85 1226.57 766.61 1230.55 766.09 C 1228.51 770.17 1226.07 774.11 1225.27 778.68 C 1223.54 784.87 1221.43 791.08 1221.68 797.62 C 1222.06 804.07 1223.15 810.51 1223.41 817.00 C 1221.52 816.42 1219.65 815.85 1217.79 815.28 C 1217.08 817.15 1216.33 819.00 1215.61 820.88 C 1212.43 819.14 1209.54 816.90 1206.31 815.27 C 1201.67 813.79 1196.70 813.89 1192.01 812.63 C 1192.13 811.46 1192.28 810.33 1192.43 809.19 C 1195.07 807.94 1197.69 806.67 1200.31 805.36 C 1197.48 798.42 1187.67 800.13 1185.74 792.46 C 1183.95 792.38 1182.15 792.31 1180.38 792.27 C 1178.31 800.09 1176.88 808.07 1176.01 816.12 C 1172.31 814.22 1168.40 812.62 1165.16 809.97 C 1160.35 805.34 1152.06 804.56 1150.20 797.22 C 1146.81 796.41 1143.49 795.66 1140.15 794.84 C 1139.02 786.37 1130.86 781.67 1123.77 778.62 C 1119.21 776.27 1113.52 776.07 1109.82 772.24 C 1107.57 770.44 1105.74 767.77 1102.85 767.01 C 1098.90 767.00 1095.08 768.55 1091.26 769.26 C 1087.04 765.72 1082.58 762.42 1077.56 760.13 C 1079.41 757.17 1083.62 754.52 1082.34 750.53 C 1078.75 738.04 1070.80 727.56 1064.22 716.56 C 1066.14 715.44 1068.08 714.33 1070.03 713.24 C 1067.04 707.73 1063.94 702.29 1060.84 696.87 C 1056.71 697.40 1052.60 697.97 1048.51 698.71 C 1049.82 704.19 1048.83 709.78 1046.92 715.00 C 1042.36 711.15 1038.41 706.18 1032.39 704.59 C 1023.70 701.98 1015.41 697.86 1009.31 690.94 C 1007.98 683.34 1013.83 678.40 1016.88 672.34 C 1022.13 672.86 1027.49 673.45 1032.72 672.46 C 1037.41 671.60 1038.36 666.19 1039.82 662.46 C 1045.64 661.22 1048.54 655.41 1052.28 651.31 C 1049.95 649.91 1047.63 648.47 1045.31 647.07 C 1048.02 644.97 1051.18 643.52 1054.66 643.43 C 1060.67 643.19 1065.77 639.59 1070.54 636.31 C 1072.15 634.34 1072.21 631.60 1072.78 629.22 Z" />
</g>
<g id="#8f8fbfff">
<path fill="#8f8fbf" fill-opacity="0" d=" M 901.25 633.45 C 911.29 634.64 921.00 637.62 930.93 639.43 C 937.96 646.20 948.05 647.48 957.41 647.48 C 964.41 647.01 971.35 644.98 978.43 645.78 C 982.32 646.45 985.89 648.26 989.57 649.68 C 991.43 646.33 993.03 642.86 994.60 639.38 C 997.65 641.10 1001.26 642.58 1002.97 645.87 C 1005.15 650.39 1004.86 655.68 1006.93 660.25 C 1009.06 663.18 1013.06 663.92 1016.49 663.37 C 1024.24 662.91 1032.05 662.75 1039.82 662.46 C 1038.36 666.19 1037.41 671.60 1032.72 672.46 C 1027.49 673.45 1022.13 672.86 1016.88 672.34 C 1013.83 678.40 1007.98 683.34 1009.31 690.94 C 1009.11 693.03 1008.91 695.13 1008.67 697.22 C 1005.02 695.05 1001.64 690.65 996.92 691.88 C 991.35 693.04 985.81 694.43 980.40 696.17 C 978.40 697.77 976.60 699.61 974.76 701.39 C 970.85 699.80 967.19 697.36 962.96 696.75 C 956.26 696.86 949.92 700.07 943.19 699.48 C 935.74 697.93 930.91 690.27 923.24 689.48 C 917.68 690.90 915.78 697.31 913.54 701.93 C 912.51 701.89 911.49 701.87 910.49 701.85 C 908.18 697.36 905.64 692.62 901.08 690.05 C 895.57 686.94 890.22 683.59 885.18 679.77 C 886.30 677.70 887.14 675.42 888.75 673.67 C 891.43 671.62 895.06 671.55 897.88 669.77 C 899.42 667.87 899.66 665.21 900.76 663.13 C 897.42 660.94 892.77 659.16 891.65 654.94 C 893.74 647.38 898.35 640.72 901.25 633.45 Z" />
</g>
<g id="#cf4f3fff">
<path fill="#cf4f3f" fill-opacity="0" d=" M 805.78 644.77 C 812.47 637.53 822.80 639.44 831.54 637.81 C 833.39 640.52 834.84 643.47 836.48 646.31 C 838.54 649.97 842.94 651.05 846.54 652.60 C 843.32 654.96 840.14 657.62 836.25 658.77 C 831.83 659.92 827.09 659.24 822.74 660.65 C 819.91 664.14 818.39 668.67 814.83 671.57 C 811.75 673.77 807.94 674.78 805.05 677.26 C 805.53 682.28 809.12 686.17 811.72 690.25 C 817.25 698.48 824.57 706.62 825.07 717.09 C 825.88 721.81 822.75 725.86 820.98 729.96 C 818.96 729.56 816.84 729.23 815.11 728.08 C 813.28 724.15 813.88 719.32 811.29 715.73 C 805.28 710.80 798.53 706.84 791.67 703.25 C 788.24 700.58 784.15 703.03 780.46 703.69 C 776.17 705.05 771.62 704.11 767.30 703.46 C 760.76 702.14 754.07 701.94 747.51 700.85 C 747.65 699.64 747.81 698.45 747.96 697.27 C 749.52 685.50 749.55 673.61 748.95 661.77 C 754.44 661.82 759.92 662.79 765.41 662.61 C 771.98 661.19 777.36 656.60 783.93 655.06 C 791.82 653.25 799.89 650.60 805.78 644.77 Z" />
</g>
<g id="#4f0f00ff">
<path fill="#4f0f00" fill-opacity="0" d=" M 836.25 658.77 C 840.14 657.62 843.32 654.96 846.54 652.60 C 854.38 654.32 856.54 662.73 860.58 668.44 C 864.74 671.94 870.98 670.45 875.92 671.68 C 876.34 672.99 876.76 674.30 877.19 675.63 C 872.72 678.41 868.62 681.94 866.78 687.08 C 865.46 690.04 864.22 693.04 862.82 695.98 C 871.55 701.79 882.12 703.29 891.59 707.46 C 896.49 709.62 901.43 711.73 906.03 714.50 C 905.55 718.44 905.27 722.41 904.37 726.29 C 903.54 729.31 900.58 730.91 898.27 732.69 C 888.30 730.23 877.98 729.49 868.06 726.84 C 863.28 725.67 860.50 721.26 856.43 718.88 C 852.86 717.20 849.01 716.43 845.17 715.70 C 844.43 713.56 843.72 711.44 843.04 709.34 C 840.34 710.71 836.64 711.71 835.64 714.91 C 835.32 720.47 840.12 724.42 842.03 729.29 C 835.13 731.06 827.99 730.40 820.98 729.96 C 822.75 725.86 825.88 721.81 825.07 717.09 C 824.57 706.62 817.25 698.48 811.72 690.25 C 809.12 686.17 805.53 682.28 805.05 677.26 C 807.94 674.78 811.75 673.77 814.83 671.57 C 818.39 668.67 819.91 664.14 822.74 660.65 C 827.09 659.24 831.83 659.92 836.25 658.77 Z" />
</g>
<g id="#cf8f7fff">
<path fill="#cf8f7f" fill-opacity="0" d=" M 581.62 660.30 C 581.97 657.83 584.60 656.38 586.86 656.06 C 591.17 658.35 594.34 662.22 598.11 665.27 C 596.88 668.18 595.96 671.41 593.64 673.69 C 590.29 675.73 586.70 677.34 583.00 678.65 C 581.29 672.72 580.60 666.41 581.62 660.30 Z" />
</g>
<g id="#0fcf7fff">
<path fill="#0fcf7f" fill-opacity="0" d=" M 682.69 665.71 C 687.69 662.24 693.72 660.50 698.47 656.64 C 700.11 659.64 701.90 662.57 703.32 665.71 C 705.28 670.07 703.38 674.99 703.25 679.51 C 703.27 683.48 701.81 687.61 698.24 689.64 C 694.78 690.91 691.27 691.97 687.76 693.05 C 679.78 689.71 671.68 686.60 663.18 684.93 C 668.14 677.16 675.21 670.98 682.69 665.71 Z" />
</g>
<g id="#4fcf3fff">
<path fill="#4fcf3f" fill-opacity="0" d=" M 644.28 672.45 C 647.81 672.37 651.64 673.10 654.20 675.73 C 657.22 678.76 659.19 682.96 663.18 684.93 C 671.68 686.60 679.78 689.71 687.76 693.05 C 688.67 697.29 689.14 701.61 689.60 705.93 C 696.32 708.28 705.40 709.34 706.98 717.86 C 703.38 720.11 699.81 722.39 696.26 724.70 C 698.86 730.55 705.26 732.34 709.50 736.48 C 713.73 744.32 705.54 752.19 708.07 760.28 C 710.29 767.64 713.30 774.75 715.95 781.97 C 702.08 779.81 688.00 779.57 674.12 777.63 C 670.60 776.62 669.07 772.64 665.85 771.08 C 660.92 770.89 657.20 775.04 653.19 777.21 C 648.91 780.20 643.34 780.27 638.91 782.89 C 635.31 785.57 635.69 790.43 635.03 794.38 C 634.94 797.31 631.87 798.38 629.85 799.85 C 625.45 802.30 622.63 806.73 618.39 809.38 C 609.41 812.20 600.47 808.00 591.60 806.91 C 590.27 806.52 589.59 807.95 588.78 808.71 C 586.11 811.94 583.44 815.26 579.81 817.49 C 575.25 808.45 567.92 800.72 565.48 790.73 C 565.91 786.52 567.96 782.61 568.37 778.42 C 566.63 775.25 564.22 772.50 562.29 769.45 C 557.68 762.46 553.78 754.92 551.73 746.77 C 558.87 746.53 565.62 744.01 572.25 741.54 C 575.39 740.27 578.72 738.81 580.66 735.87 C 582.74 733.45 584.18 729.50 587.87 729.33 C 591.74 729.06 595.67 728.27 598.82 725.84 C 604.49 721.68 610.60 718.14 616.89 714.99 C 625.16 716.65 633.67 716.42 641.83 718.79 C 640.16 714.22 637.75 709.61 638.37 704.60 C 639.06 697.02 636.39 689.58 637.31 682.02 C 637.27 677.49 640.56 674.28 644.28 672.45 M 661.37 706.13 C 660.75 709.30 660.04 712.46 659.21 715.59 C 663.05 715.98 666.87 716.58 670.71 717.04 C 672.30 712.58 674.02 708.17 675.94 703.84 C 671.06 704.44 666.20 705.20 661.37 706.13 Z" />
</g>
<g id="#cf4f00ff">
<path fill="#cf4f00" fill-opacity="0" d=" M 885.18 679.77 C 890.22 683.59 895.57 686.94 901.08 690.05 C 905.64 692.62 908.18 697.36 910.49 701.85 C 911.49 701.87 912.51 701.89 913.54 701.93 C 915.78 697.31 917.68 690.90 923.24 689.48 C 930.91 690.27 935.74 697.93 943.19 699.48 C 949.92 700.07 956.26 696.86 962.96 696.75 C 967.19 697.36 970.85 699.80 974.76 701.39 C 976.60 699.61 978.40 697.77 980.40 696.17 C 988.95 705.97 994.48 718.43 995.30 731.45 C 996.52 739.32 989.05 744.59 987.57 751.76 C 988.44 756.02 992.69 758.53 995.56 761.46 C 1002.53 767.09 1007.68 774.67 1014.97 779.92 C 1023.49 783.14 1032.54 780.09 1041.15 779.01 C 1046.33 778.16 1051.35 780.14 1056.42 780.94 C 1055.30 782.78 1054.18 784.62 1053.04 786.45 C 1056.85 787.86 1060.88 788.94 1064.20 791.41 C 1071.06 796.37 1079.67 799.18 1084.51 806.61 C 1089.05 812.28 1097.47 816.50 1097.25 824.76 C 1095.63 833.93 1093.08 842.93 1090.96 852.00 C 1077.79 845.89 1064.58 839.79 1050.85 835.04 C 1047.98 831.75 1045.76 827.93 1044.09 823.93 C 1042.31 819.72 1043.24 815.03 1043.25 810.61 C 1037.95 807.90 1032.53 805.14 1026.59 804.21 C 1018.06 802.87 1009.27 803.12 1000.93 800.66 C 988.19 797.30 974.76 795.31 963.37 788.24 C 957.25 784.11 950.63 779.72 947.25 772.89 C 944.72 767.42 944.02 761.24 940.86 756.04 C 937.00 748.03 929.88 742.43 924.57 735.49 C 918.81 728.14 914.29 719.41 906.03 714.50 C 901.43 711.73 896.49 709.62 891.59 707.46 C 882.12 703.29 871.55 701.79 862.82 695.98 C 864.22 693.04 865.46 690.04 866.78 687.08 C 867.91 688.27 869.04 689.48 870.18 690.70 C 875.59 687.84 882.49 685.77 885.18 679.77 Z" />
</g>
<g id="#4f4f3fff">
<path fill="#4f4f3f" fill-opacity="0" d=" M 707.38 687.05 C 708.25 684.21 711.06 682.46 712.98 680.32 C 715.40 682.83 718.22 685.31 719.12 688.84 C 720.70 695.24 723.04 702.07 721.09 708.68 L 720.51 709.72 C 712.68 705.01 707.60 696.17 707.38 687.05 Z" />
</g>
<g id="#cf8fbfff">
<path fill="#cf8fbf" fill-opacity="0" d=" M 687.76 693.05 C 691.27 691.97 694.78 690.91 698.24 689.64 C 704.30 697.94 711.66 705.13 719.14 712.13 C 719.58 711.31 720.05 710.52 720.51 709.72 L 721.09 708.68 C 723.37 704.55 727.60 702.03 732.51 702.81 C 738.20 702.85 743.21 700.13 747.96 697.27 C 747.81 698.45 747.65 699.64 747.51 700.85 C 754.07 701.94 760.76 702.14 767.30 703.46 C 771.93 710.56 777.85 716.69 782.92 723.47 C 782.37 728.68 776.36 729.59 772.12 729.52 C 767.54 729.48 764.45 733.20 761.64 736.30 C 763.89 738.86 766.07 741.49 768.12 744.24 C 764.95 745.48 761.25 746.21 759.12 749.14 C 753.55 756.88 758.07 766.45 759.92 774.67 C 754.74 775.01 749.02 773.87 744.15 776.23 C 741.48 778.46 740.78 782.21 739.54 785.33 C 731.98 783.07 724.10 781.50 716.20 782.63 L 715.95 781.97 C 713.30 774.75 710.29 767.64 708.07 760.28 C 705.54 752.19 713.73 744.32 709.50 736.48 C 705.26 732.34 698.86 730.55 696.26 724.70 C 699.81 722.39 703.38 720.11 706.98 717.86 C 705.40 709.34 696.32 708.28 689.60 705.93 C 689.14 701.61 688.67 697.29 687.76 693.05 Z" />
</g>
<g id="#cfcf00ff">
<path fill="#cfcf00" fill-opacity="0" d=" M 996.92 691.88 C 1001.64 690.65 1005.02 695.05 1008.67 697.22 C 1008.91 695.13 1009.11 693.03 1009.31 690.94 C 1015.41 697.86 1023.70 701.98 1032.39 704.59 C 1038.41 706.18 1042.36 711.15 1046.92 715.00 C 1048.83 709.78 1049.82 704.19 1048.51 698.71 C 1052.60 697.97 1056.71 697.40 1060.84 696.87 C 1063.94 702.29 1067.04 707.73 1070.03 713.24 C 1068.08 714.33 1066.14 715.44 1064.22 716.56 C 1070.80 727.56 1078.75 738.04 1082.34 750.53 C 1083.62 754.52 1079.41 757.17 1077.56 760.13 C 1082.58 762.42 1087.04 765.72 1091.26 769.26 C 1095.08 768.55 1098.90 767.00 1102.85 767.01 C 1105.74 767.77 1107.57 770.44 1109.82 772.24 C 1113.52 776.07 1119.21 776.27 1123.77 778.62 C 1130.86 781.67 1139.02 786.37 1140.15 794.84 C 1143.49 795.66 1146.81 796.41 1150.20 797.22 C 1152.06 804.56 1160.35 805.34 1165.16 809.97 C 1168.40 812.62 1172.31 814.22 1176.01 816.12 C 1181.36 818.47 1182.02 825.01 1181.73 830.15 C 1181.50 837.18 1177.17 842.98 1174.52 849.23 C 1171.77 854.82 1169.68 860.70 1167.75 866.62 C 1155.44 865.46 1144.03 871.55 1133.61 877.28 C 1122.35 877.01 1111.35 871.66 1103.42 863.73 C 1099.44 859.64 1095.24 855.75 1090.96 852.00 C 1093.08 842.93 1095.63 833.93 1097.25 824.76 C 1097.47 816.50 1089.05 812.28 1084.51 806.61 C 1079.67 799.18 1071.06 796.37 1064.20 791.41 C 1060.88 788.94 1056.85 787.86 1053.04 786.45 C 1054.18 784.62 1055.30 782.78 1056.42 780.94 C 1051.35 780.14 1046.33 778.16 1041.15 779.01 C 1032.54 780.09 1023.49 783.14 1014.97 779.92 C 1007.68 774.67 1002.53 767.09 995.56 761.46 C 992.69 758.53 988.44 756.02 987.57 751.76 C 989.05 744.59 996.52 739.32 995.30 731.45 C 994.48 718.43 988.95 705.97 980.40 696.17 C 985.81 694.43 991.35 693.04 996.92 691.88 Z" />
</g>
<g id="#0f0f7fff">
<path fill="#0f0f7f" fill-opacity="0" d=" M 780.46 703.69 C 784.15 703.03 788.24 700.58 791.67 703.25 C 798.53 706.84 805.28 710.80 811.29 715.73 C 813.88 719.32 813.28 724.15 815.11 728.08 C 816.84 729.23 818.96 729.56 820.98 729.96 C 827.99 730.40 835.13 731.06 842.03 729.29 C 840.12 724.42 835.32 720.47 835.64 714.91 C 836.64 711.71 840.34 710.71 843.04 709.34 C 843.72 711.44 844.43 713.56 845.17 715.70 C 849.01 716.43 852.86 717.20 856.43 718.88 C 860.50 721.26 863.28 725.67 868.06 726.84 C 877.98 729.49 888.30 730.23 898.27 732.69 C 898.56 736.38 898.96 740.07 899.87 743.67 C 894.51 745.61 889.39 748.39 883.74 749.36 C 878.09 750.15 873.88 744.10 868.22 745.26 C 863.48 746.08 858.68 746.83 854.11 748.37 C 850.80 749.43 850.00 753.21 848.66 755.99 C 852.89 758.47 856.64 761.67 859.74 765.47 C 855.42 769.83 851.26 774.35 847.25 779.01 C 844.68 778.49 842.05 777.80 839.43 778.35 C 837.51 780.31 835.51 783.39 836.87 786.18 C 838.18 788.95 839.85 791.57 841.43 794.24 C 837.08 795.06 832.67 795.42 828.25 795.51 C 827.88 790.82 828.05 786.05 827.25 781.41 C 826.85 779.10 824.04 778.78 822.16 778.46 C 816.90 778.02 811.62 778.48 806.36 778.08 C 805.84 775.86 805.34 773.64 804.82 771.42 C 800.41 771.48 795.81 770.29 791.53 771.66 C 784.67 775.44 780.41 782.39 775.28 788.05 C 778.39 789.13 781.89 789.68 784.76 791.44 C 785.96 797.72 783.27 804.07 783.95 810.40 C 783.96 815.39 786.10 820.57 784.55 825.50 C 781.49 828.54 777.08 829.50 773.39 831.53 C 768.99 833.25 769.23 838.78 767.10 842.32 C 762.93 835.34 754.18 835.75 747.25 834.18 C 740.46 832.59 739.01 824.56 736.75 819.09 C 735.09 813.27 730.74 807.19 733.20 800.95 C 735.74 795.91 738.16 790.82 739.54 785.33 C 740.78 782.21 741.48 778.46 744.15 776.23 C 749.02 773.87 754.74 775.01 759.92 774.67 C 758.07 766.45 753.55 756.88 759.12 749.14 C 761.25 746.21 764.95 745.48 768.12 744.24 C 766.07 741.49 763.89 738.86 761.64 736.30 C 764.45 733.20 767.54 729.48 772.12 729.52 C 776.36 729.59 782.37 728.68 782.92 723.47 C 777.85 716.69 771.93 710.56 767.30 703.46 C 771.62 704.11 776.17 705.05 780.46 703.69 Z" />
</g>
<g id="#cfcf3fff">
<path fill="#cfcf3f" fill-opacity="0" d=" M 661.37 706.13 C 666.20 705.20 671.06 704.44 675.94 703.84 C 674.02 708.17 672.30 712.58 670.71 717.04 C 666.87 716.58 663.05 715.98 659.21 715.59 C 660.04 712.46 660.75 709.30 661.37 706.13 Z" />
</g>
<g id="#0f4f7fff">
<path fill="#0f4f7f" fill-opacity="0" d=" M 904.37 726.29 C 905.27 722.41 905.55 718.44 906.03 714.50 C 914.29 719.41 918.81 728.14 924.57 735.49 C 929.88 742.43 937.00 748.03 940.86 756.04 C 944.02 761.24 944.72 767.42 947.25 772.89 C 950.63 779.72 957.25 784.11 963.37 788.24 C 974.76 795.31 988.19 797.30 1000.93 800.66 C 1009.27 803.12 1018.06 802.87 1026.59 804.21 C 1032.53 805.14 1037.95 807.90 1043.25 810.61 C 1043.24 815.03 1042.31 819.72 1044.09 823.93 C 1045.76 827.93 1047.98 831.75 1050.85 835.04 C 1054.98 840.97 1061.95 845.28 1063.81 852.62 C 1064.79 860.65 1063.03 868.81 1060.43 876.36 C 1058.07 882.03 1050.69 881.33 1045.68 880.19 C 1040.69 878.96 1034.50 875.54 1030.26 880.26 C 1026.36 887.54 1029.04 896.80 1025.02 904.07 C 1020.50 907.78 1015.79 912.05 1010.00 913.57 C 1004.47 912.98 1000.98 908.16 996.39 905.64 C 992.45 903.77 989.61 906.97 986.70 908.81 C 983.07 903.48 981.19 896.44 975.40 892.95 C 965.85 889.67 954.30 893.63 946.05 886.48 C 950.01 882.34 954.14 878.35 958.53 874.66 C 958.53 871.37 957.12 867.43 959.55 864.67 C 961.76 861.44 964.87 858.77 966.29 855.05 C 956.87 851.36 947.15 860.92 937.61 856.28 C 934.77 854.25 932.27 851.60 928.79 850.64 C 916.93 847.01 907.15 838.61 895.00 835.73 C 894.29 830.54 894.15 825.23 895.19 820.08 C 896.09 815.71 900.86 813.67 902.19 809.53 C 903.66 804.61 904.61 799.58 905.80 794.60 C 913.36 793.53 918.57 786.34 919.08 778.97 C 919.93 773.25 921.62 766.77 918.45 761.50 C 914.71 757.47 907.96 759.74 903.89 756.21 C 901.66 752.40 901.08 747.86 899.87 743.67 C 898.96 740.07 898.56 736.38 898.27 732.69 C 900.58 730.91 903.54 729.31 904.37 726.29 M 956.82 839.05 C 960.81 840.45 964.85 841.70 968.90 842.91 C 970.65 839.39 972.47 835.91 974.18 832.37 C 971.69 830.54 969.24 828.66 966.82 826.80 C 963.62 830.99 960.25 835.04 956.82 839.05 Z" />
</g>
<g id="#4f0f7ffe">
<path fill="#4f0f7f" fill-opacity="0" d=" M 868.22 745.26 C 873.88 744.10 878.09 750.15 883.74 749.36 C 889.39 748.39 894.51 745.61 899.87 743.67 C 901.08 747.86 901.66 752.40 903.89 756.21 C 907.96 759.74 914.71 757.47 918.45 761.50 C 921.62 766.77 919.93 773.25 919.08 778.97 C 918.57 786.34 913.36 793.53 905.80 794.60 C 904.61 799.58 903.66 804.61 902.19 809.53 C 900.86 813.67 896.09 815.71 895.19 820.08 C 894.15 825.23 894.29 830.54 895.00 835.73 C 895.11 841.88 897.03 848.66 894.74 854.53 C 888.21 856.77 881.11 859.04 876.53 864.60 C 875.23 867.24 875.66 870.29 875.88 873.12 C 876.53 878.64 876.36 884.18 876.52 889.75 C 868.40 891.64 861.82 898.76 853.24 898.34 C 845.90 897.74 842.21 890.84 837.12 886.58 C 834.95 880.44 833.50 874.05 832.71 867.60 C 832.02 861.61 833.75 855.66 833.67 849.68 C 833.61 845.18 828.94 842.82 827.41 838.93 C 829.36 829.75 838.10 825.01 842.44 817.24 C 847.79 810.53 845.54 800.97 841.43 794.24 C 839.85 791.57 838.18 788.95 836.87 786.18 C 835.51 783.39 837.51 780.31 839.43 778.35 C 842.05 777.80 844.68 778.49 847.25 779.01 C 851.26 774.35 855.42 769.83 859.74 765.47 C 856.64 761.67 852.89 758.47 848.66 755.99 C 850.00 753.21 850.80 749.43 854.11 748.37 C 858.68 746.83 863.48 746.08 868.22 745.26 Z" />
</g>
<g id="#8f4f3fff">
<path fill="#8f4f3f" fill-opacity="0" d=" M 791.53 771.66 C 795.81 770.29 800.41 771.48 804.82 771.42 C 805.34 773.64 805.84 775.86 806.36 778.08 C 811.62 778.48 816.90 778.02 822.16 778.46 C 824.04 778.78 826.85 779.10 827.25 781.41 C 828.05 786.05 827.88 790.82 828.25 795.51 C 832.67 795.42 837.08 795.06 841.43 794.24 C 845.54 800.97 847.79 810.53 842.44 817.24 C 838.10 825.01 829.36 829.75 827.41 838.93 C 828.94 842.82 833.61 845.18 833.67 849.68 C 833.75 855.66 832.02 861.61 832.71 867.60 C 833.50 874.05 834.95 880.44 837.12 886.58 C 833.32 886.65 829.48 886.40 825.71 886.73 C 819.22 887.64 812.99 891.25 806.33 889.89 C 802.32 889.44 798.66 887.56 794.71 886.93 C 791.08 886.49 787.04 888.45 783.76 886.28 C 773.63 875.73 766.10 862.66 764.10 848.00 C 764.45 845.84 766.12 844.21 767.10 842.32 C 769.23 838.78 768.99 833.25 773.39 831.53 C 777.08 829.50 781.49 828.54 784.55 825.50 C 786.10 820.57 783.96 815.39 783.95 810.40 C 783.27 804.07 785.96 797.72 784.76 791.44 C 781.89 789.68 778.39 789.13 775.28 788.05 C 780.41 782.39 784.67 775.44 791.53 771.66 Z" />
</g>
<g id="#4f4f00ff">
<path fill="#4f4f00" fill-opacity="0" d=" M 1236.18 782.66 C 1244.75 781.26 1250.60 771.92 1259.91 773.40 C 1268.99 773.53 1278.20 773.77 1287.16 775.17 C 1294.23 779.06 1301.74 782.01 1309.74 783.37 C 1309.44 785.64 1309.15 787.92 1308.77 790.19 C 1305.99 796.52 1301.89 802.20 1298.77 808.38 C 1303.56 810.21 1308.63 811.09 1313.67 812.09 C 1311.51 817.13 1309.36 822.40 1309.13 827.94 C 1310.27 837.75 1318.46 844.47 1322.33 853.09 C 1318.92 861.25 1313.45 868.41 1308.83 875.92 C 1305.40 881.67 1299.18 884.38 1293.37 887.01 C 1293.61 879.89 1291.75 872.66 1285.58 868.35 C 1285.01 871.90 1284.31 875.37 1283.66 878.93 C 1281.13 888.56 1274.76 896.41 1269.73 904.81 C 1267.03 908.59 1264.76 913.70 1259.76 914.84 C 1246.50 918.43 1231.60 916.26 1219.97 908.95 C 1206.59 898.83 1195.15 886.37 1181.70 876.34 C 1177.19 872.89 1172.27 870.03 1167.75 866.62 C 1169.68 860.70 1171.77 854.82 1174.52 849.23 C 1177.17 842.98 1181.50 837.18 1181.73 830.15 C 1182.02 825.01 1181.36 818.47 1176.01 816.12 C 1176.88 808.07 1178.31 800.09 1180.38 792.27 C 1182.15 792.31 1183.95 792.38 1185.74 792.46 C 1187.67 800.13 1197.48 798.42 1200.31 805.36 C 1197.69 806.67 1195.07 807.94 1192.43 809.19 C 1192.28 810.33 1192.13 811.46 1192.01 812.63 C 1196.70 813.89 1201.67 813.79 1206.31 815.27 C 1209.54 816.90 1212.43 819.14 1215.61 820.88 C 1216.33 819.00 1217.08 817.15 1217.79 815.28 C 1219.65 815.85 1221.52 816.42 1223.41 817.00 C 1223.15 810.51 1222.06 804.07 1221.68 797.62 C 1221.43 791.08 1223.54 784.87 1225.27 778.68 C 1228.73 780.31 1232.16 782.88 1236.18 782.66 Z" />
</g>
<g id="#8f4f7fff">
<path fill="#8f4f7f" fill-opacity="0" d=" M 956.82 839.05 C 960.25 835.04 963.62 830.99 966.82 826.80 C 969.24 828.66 971.69 830.54 974.18 832.37 C 972.47 835.91 970.65 839.39 968.90 842.91 C 964.85 841.70 960.81 840.45 956.82 839.05 Z" />
</g>
<g id="#4fcf00ff">
<path fill="#4fcf00" fill-opacity="0" d=" M 895.00 835.73 C 907.15 838.61 916.93 847.01 928.79 850.64 C 932.27 851.60 934.77 854.25 937.61 856.28 C 947.15 860.92 956.87 851.36 966.29 855.05 C 964.87 858.77 961.76 861.44 959.55 864.67 C 957.12 867.43 958.53 871.37 958.53 874.66 C 954.14 878.35 950.01 882.34 946.05 886.48 C 954.30 893.63 965.85 889.67 975.40 892.95 C 981.19 896.44 983.07 903.48 986.70 908.81 C 994.75 918.30 992.46 931.10 990.13 942.21 C 988.33 949.24 988.04 956.46 987.85 963.68 C 981.99 963.19 976.15 962.56 970.27 962.54 C 964.00 962.49 957.69 960.91 951.45 961.95 C 946.90 964.83 944.78 970.16 942.50 974.82 C 932.47 974.29 922.75 971.41 913.05 969.01 C 911.73 961.20 911.33 952.94 906.71 946.18 C 903.27 940.80 901.91 934.46 899.08 928.81 C 894.53 921.74 884.72 919.95 880.59 912.57 C 878.09 905.25 876.77 897.47 876.52 889.75 C 876.36 884.18 876.53 878.64 875.88 873.12 C 875.66 870.29 875.23 867.24 876.53 864.60 C 881.11 859.04 888.21 856.77 894.74 854.53 C 897.03 848.66 895.11 841.88 895.00 835.73 Z" />
</g>
</svg>
