<?xml version="1.0" encoding="UTF-8" ?>
<!DOCTYPE svg PUBLIC "-//W3C//DTD SVG 1.1//EN" "http://www.w3.org/Graphics/SVG/1.1/DTD/svg11.dtd">
<svg width="1920pt" height="1080pt" viewBox="0 0 1920 1080" version="1.1" xmlns="http://www.w3.org/2000/svg">
<g id="#3f0f5fff">
<path fill="#3f0f5f" fill-opacity="0" d=" M 1050.79 218.73 C 1056.03 216.24 1060.18 211.92 1065.31 209.18 C 1067.47 216.22 1064.61 223.51 1065.39 230.65 C 1066.03 234.62 1067.04 238.55 1067.65 242.54 C 1067.84 246.07 1065.76 249.27 1065.70 252.78 C 1066.82 257.10 1072.60 260.50 1070.46 265.36 C 1067.22 272.88 1064.30 280.54 1061.23 288.13 C 1050.84 299.98 1040.79 313.78 1024.94 318.47 C 1019.51 317.98 1015.72 313.20 1011.32 310.42 C 1004.82 305.46 998.41 300.39 991.98 295.36 C 992.71 290.71 993.67 286.10 994.62 281.49 C 992.00 278.49 989.65 275.28 987.56 271.90 C 993.77 273.83 998.93 277.93 1003.87 282.02 C 1009.55 269.16 1003.92 254.08 1010.58 241.49 C 1013.34 237.99 1018.22 237.41 1021.41 234.44 C 1026.96 228.29 1031.48 221.04 1032.46 212.64 C 1039.56 209.64 1044.08 218.84 1050.79 218.73 Z" />
</g>
<g id="#bfcf5fff">
<path fill="#bfcf5f" fill-opacity="0" d=" M 1071.06 229.14 C 1076.32 224.66 1078.56 217.61 1084.00 213.25 C 1086.11 216.53 1087.76 220.08 1089.92 223.33 C 1093.36 227.62 1098.84 228.87 1103.82 230.40 C 1112.61 233.31 1118.51 241.62 1127.45 244.19 C 1132.60 244.12 1138.41 242.30 1142.79 246.19 C 1148.12 249.32 1146.24 256.01 1145.73 260.98 L 1145.39 260.56 C 1144.50 259.49 1143.66 258.39 1142.84 257.30 C 1136.58 262.31 1130.75 267.83 1125.61 274.00 C 1128.48 275.64 1131.43 277.13 1134.41 278.57 C 1133.06 282.16 1131.77 285.77 1130.52 289.39 C 1127.46 290.09 1124.29 290.69 1121.38 291.84 C 1116.28 295.07 1112.32 301.14 1105.84 301.54 C 1099.71 301.99 1094.21 304.94 1088.91 307.79 C 1082.10 304.25 1074.67 302.13 1067.25 300.35 C 1065.46 296.17 1063.71 291.96 1061.23 288.13 C 1064.30 280.54 1067.22 272.88 1070.46 265.36 C 1072.60 260.50 1066.82 257.10 1065.70 252.78 C 1065.76 249.27 1067.84 246.07 1067.65 242.54 C 1067.04 238.55 1066.03 234.62 1065.39 230.65 C 1067.32 230.42 1069.50 230.52 1071.06 229.14 Z" />
</g>
<g id="#bf8fdfff">
<path fill="#bf8fdf" fill-opacity="0" d=" M 879.18 242.14 C 884.28 244.10 889.75 244.66 894.97 246.13 C 904.48 249.41 905.83 264.19 917.03 264.21 C 917.92 260.37 919.56 256.73 921.91 253.55 C 925.00 254.78 928.73 255.58 930.46 258.77 C 934.64 266.15 940.89 272.68 940.55 281.86 C 941.36 286.13 949.51 286.19 950.40 281.71 C 954.07 272.01 964.42 268.03 969.59 259.40 C 977.85 259.14 983.13 265.99 987.56 271.90 C 989.65 275.28 992.00 278.49 994.62 281.49 C 993.67 286.10 992.71 290.71 991.98 295.36 C 998.41 300.39 1004.82 305.46 1011.32 310.42 C 1001.84 322.08 992.78 334.12 985.03 347.03 C 981.42 353.30 976.75 358.79 971.50 363.72 C 960.74 363.40 950.36 360.42 939.79 358.74 C 927.17 356.73 914.75 353.69 902.16 351.53 C 896.05 350.58 890.08 348.89 884.37 346.55 C 887.68 343.25 893.69 340.87 893.73 335.41 C 893.99 329.76 892.71 324.08 893.95 318.46 C 895.32 315.32 897.01 312.34 898.64 309.33 C 892.49 301.80 887.90 293.20 883.45 284.60 C 881.26 280.17 881.41 275.17 881.26 270.37 C 880.60 260.95 879.44 251.58 879.18 242.14 Z" />
</g>
<g id="#3f8f5fff">
<path fill="#3f8f5f" fill-opacity="0" d=" M 1217.49 256.66 C 1219.65 256.19 1221.85 256.94 1224.01 257.22 C 1224.00 263.21 1228.71 266.76 1231.61 271.32 C 1231.55 277.48 1228.25 283.09 1227.11 289.09 C 1224.81 296.70 1223.55 304.65 1220.79 312.10 C 1216.74 316.27 1211.28 318.73 1206.06 321.15 C 1205.92 322.41 1205.65 324.94 1205.51 326.20 C 1210.86 329.47 1215.00 334.27 1219.38 338.67 C 1222.89 342.13 1221.58 347.64 1221.72 351.96 C 1220.40 357.88 1220.30 364.62 1216.95 369.91 C 1211.17 372.14 1204.49 373.89 1198.39 372.10 C 1194.50 368.04 1199.23 361.17 1194.88 357.18 C 1191.10 351.55 1183.67 353.19 1178.04 352.74 C 1170.52 353.01 1162.70 352.27 1155.44 354.47 C 1145.36 359.12 1137.08 367.24 1131.78 376.95 C 1127.06 387.11 1124.14 397.99 1119.69 408.27 C 1114.20 406.84 1108.53 405.36 1103.63 402.45 C 1100.54 399.39 1097.70 395.92 1093.54 394.25 C 1093.01 390.48 1092.52 386.73 1092.12 382.94 C 1087.95 384.43 1084.35 387.11 1080.35 388.92 C 1077.86 390.10 1075.77 386.72 1076.57 384.58 C 1078.90 378.69 1084.54 375.29 1089.75 372.25 C 1087.46 366.76 1083.24 362.49 1078.76 358.73 C 1078.74 354.62 1080.21 350.23 1078.68 346.24 C 1075.14 339.64 1067.74 337.22 1062.23 332.74 C 1056.92 328.77 1052.50 323.82 1048.37 318.67 C 1052.41 315.89 1056.65 313.41 1060.62 310.51 C 1064.03 308.08 1065.26 303.86 1067.25 300.35 C 1074.67 302.13 1082.10 304.25 1088.91 307.79 C 1094.21 304.94 1099.71 301.99 1105.84 301.54 C 1112.32 301.14 1116.28 295.07 1121.38 291.84 C 1124.29 290.69 1127.46 290.09 1130.52 289.39 C 1131.77 285.77 1133.06 282.16 1134.41 278.57 C 1131.43 277.13 1128.48 275.64 1125.61 274.00 C 1130.75 267.83 1136.58 262.31 1142.84 257.30 C 1143.66 258.39 1144.50 259.49 1145.39 260.56 C 1149.25 264.73 1155.59 265.32 1159.45 269.49 C 1161.31 273.41 1161.64 277.90 1162.80 282.05 C 1166.37 279.62 1169.97 277.14 1173.63 274.81 C 1181.04 270.71 1184.41 261.56 1192.72 258.72 C 1198.77 256.54 1204.16 260.36 1209.19 263.08 C 1211.90 260.89 1214.36 258.28 1217.49 256.66 Z" />
</g>
<g id="#3fcf5fff">
<path fill="#3fcf5f" fill-opacity="0" d=" M 1061.23 288.13 C 1063.71 291.96 1065.46 296.17 1067.25 300.35 C 1065.26 303.86 1064.03 308.08 1060.62 310.51 C 1056.65 313.41 1052.41 315.89 1048.37 318.67 C 1052.50 323.82 1056.92 328.77 1062.23 332.74 C 1067.74 337.22 1075.14 339.64 1078.68 346.24 C 1080.21 350.23 1078.74 354.62 1078.76 358.73 C 1083.24 362.49 1087.46 366.76 1089.75 372.25 C 1084.54 375.29 1078.90 378.69 1076.57 384.58 C 1075.77 386.72 1077.86 390.10 1080.35 388.92 C 1084.35 387.11 1087.95 384.43 1092.12 382.94 C 1092.52 386.73 1093.01 390.48 1093.54 394.25 C 1092.78 402.73 1088.33 410.47 1085.40 418.34 C 1083.02 422.56 1081.30 427.65 1077.13 430.43 C 1072.10 431.95 1069.98 425.52 1068.02 422.14 C 1066.44 417.73 1061.12 417.53 1057.22 416.44 C 1050.71 414.87 1044.17 417.84 1038.35 420.38 C 1027.69 425.18 1016.09 429.21 1008.20 438.29 C 1005.85 440.85 1001.69 439.79 999.46 437.65 C 996.74 434.82 994.83 431.34 992.66 428.10 C 989.10 428.83 985.56 429.55 982.04 430.40 C 978.09 431.35 974.25 432.70 970.43 434.06 C 969.20 431.51 967.19 428.91 967.69 425.93 C 968.69 423.09 970.72 420.74 972.25 418.17 C 970.44 415.30 968.09 412.76 966.74 409.67 C 966.66 406.91 967.94 404.34 968.72 401.75 C 965.15 400.36 961.68 398.77 957.98 397.83 C 959.36 396.24 960.75 394.66 962.14 393.08 C 956.65 388.64 951.30 384.02 946.03 379.33 C 949.32 376.00 952.63 372.67 955.89 369.30 C 958.48 370.21 961.10 371.07 963.72 371.95 C 966.28 369.19 968.87 366.43 971.50 363.72 C 976.75 358.79 981.42 353.30 985.03 347.03 C 992.78 334.12 1001.84 322.08 1011.32 310.42 C 1015.72 313.20 1019.51 317.98 1024.94 318.47 C 1040.79 313.78 1050.84 299.98 1061.23 288.13 Z" />
</g>
<g id="#bf0f5fff">
<path fill="#bf0f5f" fill-opacity="0" d=" M 875.51 354.55 C 878.30 351.91 880.64 348.84 883.39 346.16 L 884.37 346.55 C 890.08 348.89 896.05 350.58 902.16 351.53 C 914.75 353.69 927.17 356.73 939.79 358.74 C 950.36 360.42 960.74 363.40 971.50 363.72 C 968.87 366.43 966.28 369.19 963.72 371.95 C 961.10 371.07 958.48 370.21 955.89 369.30 C 952.63 372.67 949.32 376.00 946.03 379.33 C 951.30 384.02 956.65 388.64 962.14 393.08 C 960.75 394.66 959.36 396.24 957.98 397.83 C 951.55 397.48 945.14 397.11 938.71 397.28 C 930.57 397.12 926.23 406.22 919.03 408.26 C 913.47 407.31 908.61 403.29 902.77 403.87 C 897.53 403.89 891.77 405.41 886.79 403.18 C 879.59 397.77 874.05 390.52 867.00 384.92 C 866.85 384.79 866.54 384.52 866.38 384.39 C 863.26 386.59 860.21 389.19 856.34 389.91 C 855.52 383.20 854.84 376.48 853.83 369.80 C 857.08 366.49 860.11 362.79 864.16 360.40 C 867.84 358.26 872.39 357.63 875.51 354.55 Z" />
</g>
<g id="#7fcfdffe">
<path fill="#7fcfdf" fill-opacity="0" d=" M 1155.44 354.47 C 1162.70 352.27 1170.52 353.01 1178.04 352.74 C 1183.67 353.19 1191.10 351.55 1194.88 357.18 C 1199.23 361.17 1194.50 368.04 1198.39 372.10 C 1204.49 373.89 1211.17 372.14 1216.95 369.91 C 1216.90 379.09 1213.88 387.88 1211.66 396.69 C 1209.40 404.74 1207.53 412.90 1204.75 420.79 C 1202.14 427.80 1195.74 432.93 1194.79 440.65 C 1190.75 454.66 1188.46 469.26 1182.75 482.74 C 1180.74 478.83 1179.44 474.61 1178.17 470.42 C 1167.89 476.14 1155.08 473.72 1145.17 480.17 C 1143.21 481.34 1141.27 482.53 1139.36 483.73 C 1134.13 479.82 1128.68 476.23 1123.18 472.76 C 1115.63 468.07 1111.02 460.22 1105.60 453.44 C 1102.44 448.94 1098.46 444.65 1097.18 439.16 C 1100.20 435.14 1104.68 432.54 1108.50 429.32 C 1106.37 426.13 1104.32 422.54 1101.27 420.28 C 1095.97 419.77 1090.49 420.27 1085.40 418.34 C 1088.33 410.47 1092.78 402.73 1093.54 394.25 C 1097.70 395.92 1100.54 399.39 1103.63 402.45 C 1108.53 405.36 1114.20 406.84 1119.69 408.27 C 1124.14 397.99 1127.06 387.11 1131.78 376.95 C 1137.08 367.24 1145.36 359.12 1155.44 354.47 Z" />
</g>
<g id="#bf4fdfff">
<path fill="#bf4fdf" fill-opacity="0" d=" M 800.82 396.07 C 813.06 394.32 823.57 387.06 834.22 381.35 C 838.30 379.97 841.50 383.34 844.23 385.81 C 847.36 388.98 852.05 389.72 856.34 389.91 C 860.21 389.19 863.26 386.59 866.38 384.39 C 866.54 384.52 866.85 384.79 867.00 384.92 C 867.99 391.20 871.07 397.85 868.16 404.03 C 866.06 413.20 857.80 418.55 852.19 425.42 C 856.13 431.34 860.25 437.30 862.48 444.12 C 862.44 451.02 858.54 457.28 858.37 464.19 C 858.20 470.33 859.33 476.43 859.96 482.53 C 856.82 485.80 853.93 489.49 850.04 491.91 C 845.89 493.37 841.37 491.14 837.19 492.36 C 832.62 494.89 830.64 500.43 826.04 502.86 C 819.88 504.29 813.51 504.44 807.26 505.17 C 806.85 506.90 806.45 508.63 806.03 510.36 C 810.66 512.52 815.41 514.31 820.16 516.25 C 818.45 521.82 816.04 527.18 814.72 532.87 C 813.52 538.66 817.69 543.86 817.37 549.57 C 812.31 555.37 804.96 558.41 799.03 563.11 C 796.04 566.71 794.13 571.06 791.90 575.15 C 789.48 577.78 786.68 580.80 782.89 581.12 C 779.59 580.97 776.61 578.94 774.48 576.52 C 770.54 571.59 769.89 564.93 766.15 559.87 C 762.52 554.91 758.79 549.56 753.20 546.67 C 747.57 544.28 741.66 542.65 735.86 540.75 C 743.07 532.63 750.63 524.78 756.79 515.81 C 754.40 513.31 752.02 510.82 749.73 508.24 C 749.62 508.42 749.39 508.76 749.28 508.93 C 746.33 510.88 743.29 512.66 740.29 514.52 C 738.62 511.09 736.93 507.66 734.95 504.41 C 730.78 493.88 728.30 482.80 724.94 472.02 C 723.20 465.90 720.62 459.71 721.57 453.21 C 722.90 446.97 726.32 441.03 725.09 434.46 C 724.96 430.08 723.13 425.74 723.86 421.38 C 726.32 414.28 727.77 405.95 734.86 401.81 C 739.74 405.04 744.78 408.06 749.30 411.81 C 747.77 401.74 742.89 392.19 742.82 381.93 C 748.63 383.20 753.72 387.15 759.89 386.72 C 766.14 385.05 772.03 381.09 778.83 382.24 C 787.50 384.09 795.20 389.30 800.82 396.07 M 779.50 470.40 C 779.00 472.37 778.51 474.35 778.01 476.33 C 780.10 477.14 782.24 477.81 784.41 478.41 C 784.36 474.65 782.82 471.84 779.50 470.40 Z" />
</g>
<g id="#7f4f5fff">
<path fill="#7f4f5f" fill-opacity="0" d=" M 867.00 384.92 C 874.05 390.52 879.59 397.77 886.79 403.18 C 891.77 405.41 897.53 403.89 902.77 403.87 C 908.61 403.29 913.47 407.31 919.03 408.26 C 926.23 406.22 930.57 397.12 938.71 397.28 C 945.14 397.11 951.55 397.48 957.98 397.83 C 961.68 398.77 965.15 400.36 968.72 401.75 C 967.94 404.34 966.66 406.91 966.74 409.67 C 968.09 412.76 970.44 415.30 972.25 418.17 C 970.72 420.74 968.69 423.09 967.69 425.93 C 967.19 428.91 969.20 431.51 970.43 434.06 C 974.25 432.70 978.09 431.35 982.04 430.40 C 984.31 436.91 986.28 443.79 990.78 449.21 C 995.96 456.54 1004.79 459.65 1011.32 465.51 C 1010.21 466.73 1009.13 467.96 1008.05 469.19 C 1010.39 472.59 1012.22 476.54 1010.17 480.53 C 1001.57 480.35 993.15 478.21 984.91 475.91 C 985.47 473.63 986.06 471.36 986.65 469.10 C 982.29 469.44 977.50 469.05 973.70 471.62 C 970.64 473.25 967.57 476.27 963.81 475.33 C 959.92 474.66 956.04 474.02 952.19 473.21 C 947.52 472.19 944.02 468.73 940.30 466.00 C 935.16 475.14 931.81 485.11 927.36 494.59 C 925.75 497.17 922.69 498.31 920.24 499.91 C 921.88 503.45 923.50 507.00 925.12 510.56 C 923.69 511.61 922.28 512.67 920.88 513.73 C 915.35 508.10 911.48 500.74 904.74 496.37 C 891.47 487.85 876.24 480.28 859.96 482.53 C 859.33 476.43 858.20 470.33 858.37 464.19 C 858.54 457.28 862.44 451.02 862.48 444.12 C 860.25 437.30 856.13 431.34 852.19 425.42 C 857.80 418.55 866.06 413.20 868.16 404.03 C 871.07 397.85 867.99 391.20 867.00 384.92 Z" />
</g>
<g id="#3f4fdfff">
<path fill="#3f4fdf" fill-opacity="0" d=" M 635.32 413.19 C 637.43 408.12 643.23 404.90 648.63 405.47 C 656.05 407.09 662.03 412.19 668.85 415.24 C 675.54 419.32 683.06 421.49 690.46 423.83 C 697.97 441.40 701.15 460.59 708.91 478.06 C 714.77 485.82 716.82 495.42 719.30 504.61 C 724.50 505.32 729.80 505.74 734.95 504.41 C 736.93 507.66 738.62 511.09 740.29 514.52 C 743.29 512.66 746.33 510.88 749.28 508.93 C 746.24 517.51 737.04 520.64 729.00 522.59 C 718.87 524.57 709.08 519.89 699.01 520.10 C 689.56 521.15 680.65 525.10 672.41 529.67 C 671.66 527.25 670.92 524.84 670.17 522.43 C 673.24 520.13 676.36 517.87 679.44 515.56 C 677.60 512.79 676.00 509.72 673.38 507.60 C 666.81 504.91 658.90 511.80 653.22 505.85 C 647.86 502.31 643.54 497.37 640.19 491.93 C 637.45 486.68 636.41 480.78 634.75 475.14 C 629.86 473.91 625.02 472.65 620.10 471.57 C 621.29 469.51 622.45 467.44 623.64 465.38 C 619.96 456.85 615.98 448.40 612.96 439.61 C 611.54 432.71 618.61 428.57 624.23 426.75 C 629.84 427.37 635.27 429.10 640.66 430.74 C 639.40 424.73 635.90 419.33 635.32 413.19 Z" />
</g>
<g id="#bf0fdfff">
<path fill="#bf0fdf" fill-opacity="0" d=" M 1038.35 420.38 C 1044.17 417.84 1050.71 414.87 1057.22 416.44 C 1061.12 417.53 1066.44 417.73 1068.02 422.14 C 1069.98 425.52 1072.10 431.95 1077.13 430.43 C 1081.30 427.65 1083.02 422.56 1085.40 418.34 C 1090.49 420.27 1095.97 419.77 1101.27 420.28 C 1104.32 422.54 1106.37 426.13 1108.50 429.32 C 1104.68 432.54 1100.20 435.14 1097.18 439.16 C 1098.46 444.65 1102.44 448.94 1105.60 453.44 C 1111.02 460.22 1115.63 468.07 1123.18 472.76 C 1128.68 476.23 1134.13 479.82 1139.36 483.73 C 1141.27 482.53 1143.21 481.34 1145.17 480.17 C 1155.08 473.72 1167.89 476.14 1178.17 470.42 C 1179.44 474.61 1180.74 478.83 1182.75 482.74 C 1184.97 486.63 1188.30 490.27 1192.73 491.55 C 1197.31 492.88 1202.09 493.19 1206.81 493.78 C 1208.90 494.01 1210.86 496.10 1210.22 498.29 C 1208.24 505.81 1205.36 513.07 1203.35 520.60 C 1201.78 525.11 1201.05 530.72 1196.06 532.91 C 1193.58 534.65 1190.75 533.53 1188.10 533.26 C 1191.45 524.48 1192.67 515.04 1189.92 505.96 C 1184.43 508.57 1179.21 511.71 1174.01 514.84 C 1172.50 511.87 1171.03 508.91 1169.56 505.94 C 1164.98 507.96 1160.40 509.98 1155.85 512.00 C 1155.48 515.33 1155.20 518.67 1154.88 522.01 C 1148.73 519.30 1142.93 515.47 1136.30 514.06 C 1132.93 514.43 1130.55 517.50 1127.28 518.33 C 1122.44 519.48 1117.43 519.63 1112.49 519.86 C 1112.88 515.13 1113.26 510.42 1113.53 505.69 C 1106.48 505.19 1099.46 504.35 1092.52 503.01 C 1091.10 511.44 1088.65 519.64 1087.16 528.05 C 1080.83 527.77 1074.45 526.88 1068.13 527.72 C 1066.45 527.88 1065.51 529.42 1064.80 530.75 C 1062.63 534.82 1060.64 539.00 1059.07 543.35 C 1054.88 540.26 1049.63 538.03 1047.13 533.22 C 1044.15 527.28 1040.27 521.88 1036.40 516.52 C 1034.09 513.52 1035.51 509.53 1034.50 506.14 C 1028.29 498.75 1017.67 498.50 1010.75 492.22 C 1007.06 489.30 1009.31 484.32 1010.17 480.53 C 1012.22 476.54 1010.39 472.59 1008.05 469.19 C 1009.13 467.96 1010.21 466.73 1011.32 465.51 C 1004.79 459.65 995.96 456.54 990.78 449.21 C 986.28 443.79 984.31 436.91 982.04 430.40 C 985.56 429.55 989.10 428.83 992.66 428.10 C 994.83 431.34 996.74 434.82 999.46 437.65 C 1001.69 439.79 1005.85 440.85 1008.20 438.29 C 1016.09 429.21 1027.69 425.18 1038.35 420.38 M 1064.88 510.25 C 1065.19 511.51 1065.52 512.79 1065.86 514.06 C 1066.89 513.62 1067.94 513.18 1069.01 512.75 C 1068.64 511.52 1068.28 510.29 1067.94 509.07 C 1066.91 509.46 1065.89 509.85 1064.88 510.25 Z" />
</g>
<g id="#3f8fdffe">
<path fill="#3f8fdf" fill-opacity="0" d=" M 940.30 466.00 C 944.02 468.73 947.52 472.19 952.19 473.21 C 956.04 474.02 959.92 474.66 963.81 475.33 C 967.57 476.27 970.64 473.25 973.70 471.62 C 977.50 469.05 982.29 469.44 986.65 469.10 C 986.06 471.36 985.47 473.63 984.91 475.91 C 993.15 478.21 1001.57 480.35 1010.17 480.53 C 1009.31 484.32 1007.06 489.30 1010.75 492.22 C 1017.67 498.50 1028.29 498.75 1034.50 506.14 C 1035.51 509.53 1034.09 513.52 1036.40 516.52 C 1040.27 521.88 1044.15 527.28 1047.13 533.22 C 1049.63 538.03 1054.88 540.26 1059.07 543.35 C 1057.72 547.51 1056.55 551.74 1055.31 555.93 C 1049.91 553.72 1045.23 550.20 1040.13 547.43 C 1036.77 554.64 1033.93 562.44 1028.17 568.14 C 1025.48 571.52 1019.59 574.28 1020.40 579.45 C 1020.79 584.14 1026.04 585.13 1029.53 586.73 C 1029.69 587.92 1029.85 589.11 1030.02 590.31 C 1027.68 592.02 1025.45 593.85 1023.06 595.48 C 1020.55 596.37 1018.09 597.72 1015.41 597.84 C 1010.97 597.46 1006.50 595.09 1002.06 596.86 C 996.35 598.17 992.37 602.57 988.56 606.67 C 983.46 609.70 978.54 613.04 974.75 617.71 C 965.45 613.86 955.43 616.12 945.99 618.07 C 940.81 615.40 934.79 613.65 930.91 609.07 C 929.40 607.72 930.51 605.69 931.02 604.14 C 936.73 591.77 947.23 582.66 957.99 574.75 C 954.35 565.15 949.43 556.03 942.74 548.20 C 937.99 541.40 930.51 536.99 926.27 529.81 C 925.18 525.93 926.90 521.94 927.40 518.09 C 925.19 516.68 922.97 515.29 920.88 513.73 C 922.28 512.67 923.69 511.61 925.12 510.56 C 923.50 507.00 921.88 503.45 920.24 499.91 C 922.69 498.31 925.75 497.17 927.36 494.59 C 931.81 485.11 935.16 475.14 940.30 466.00 M 957.38 540.38 C 956.00 541.70 958.28 543.98 959.62 542.62 C 960.98 541.28 958.70 539.01 957.38 540.38 Z" />
</g>
<g id="#bfcfdfff">
<path fill="#bfcfdf" fill-opacity="0" d=" M 571.21 473.25 C 577.78 469.76 585.44 467.03 592.95 468.07 C 600.90 470.99 608.25 475.49 616.59 477.43 C 617.74 475.47 618.91 473.51 620.10 471.57 C 625.02 472.65 629.86 473.91 634.75 475.14 C 636.41 480.78 637.45 486.68 640.19 491.93 C 643.54 497.37 647.86 502.31 653.22 505.85 C 658.90 511.80 666.81 504.91 673.38 507.60 C 676.00 509.72 677.60 512.79 679.44 515.56 C 676.36 517.87 673.24 520.13 670.17 522.43 C 670.92 524.84 671.66 527.25 672.41 529.67 C 661.90 537.72 651.29 545.64 641.00 553.98 C 637.57 557.01 633.40 559.76 631.65 564.20 C 629.86 568.44 630.13 573.16 628.81 577.52 C 626.75 581.93 623.52 585.73 621.56 590.20 C 622.46 598.03 630.38 603.52 629.55 611.80 C 629.37 614.45 628.08 616.86 626.86 619.17 C 622.78 618.52 618.61 617.82 614.76 616.32 C 612.57 613.00 611.16 609.25 609.67 605.59 C 605.22 607.18 600.97 609.26 596.62 611.09 C 590.71 599.23 583.54 587.98 578.29 575.83 C 578.48 570.69 583.04 566.76 583.44 561.59 C 584.02 554.11 578.27 548.37 576.83 541.33 C 573.06 525.89 561.66 513.77 557.67 498.46 C 554.27 492.21 560.73 488.57 564.69 485.54 C 569.42 483.00 566.26 475.74 571.21 473.25 M 619.05 552.79 C 621.03 553.14 623.03 553.42 625.05 553.53 C 624.47 551.72 623.90 549.91 623.33 548.11 C 621.83 549.61 620.41 551.17 619.05 552.79 Z" />
</g>
<g id="#1f0f1fff">
<path fill="#1f0f1f" fill-opacity="0" d=" M 779.50 470.40 C 782.82 471.84 784.36 474.65 784.41 478.41 C 782.24 477.81 780.10 477.14 778.01 476.33 C 778.51 474.35 779.00 472.37 779.50 470.40 Z" />
</g>
<g id="#9f0f1fff">
<path fill="#9f0f1f" fill-opacity="0" d=" M 859.96 482.53 C 876.24 480.28 891.47 487.85 904.74 496.37 C 911.48 500.74 915.35 508.10 920.88 513.73 C 922.97 515.29 925.19 516.68 927.40 518.09 C 926.90 521.94 925.18 525.93 926.27 529.81 C 930.51 536.99 937.99 541.40 942.74 548.20 C 949.43 556.03 954.35 565.15 957.99 574.75 C 947.23 582.66 936.73 591.77 931.02 604.14 C 930.51 605.69 929.40 607.72 930.91 609.07 C 934.79 613.65 940.81 615.40 945.99 618.07 C 945.37 618.98 944.76 619.90 944.16 620.82 C 947.73 625.02 952.61 629.29 952.64 635.22 C 952.99 648.42 951.04 661.53 949.89 674.65 C 938.81 676.05 927.64 675.17 916.52 675.87 C 915.19 673.48 912.70 670.92 913.95 667.99 C 916.48 661.26 920.34 655.12 922.93 648.40 C 915.97 648.66 909.21 651.18 902.24 650.80 C 896.30 650.46 892.00 645.78 887.79 642.20 C 883.55 638.32 877.64 637.52 872.31 636.01 C 873.30 631.89 872.38 626.89 875.48 623.56 C 879.12 619.25 884.42 615.69 885.04 609.59 C 877.91 609.56 870.39 610.08 863.73 607.13 C 857.29 604.84 854.55 596.43 846.88 597.01 C 848.15 605.67 850.67 614.18 850.58 623.00 C 850.67 628.23 851.21 633.45 851.61 638.67 C 841.19 635.03 840.22 622.52 835.88 614.01 C 834.43 609.47 830.66 605.39 825.76 604.89 C 821.68 604.96 817.80 606.52 813.77 607.03 C 808.59 607.27 802.54 606.16 800.02 601.02 C 796.88 592.53 797.02 582.90 791.90 575.15 C 794.13 571.06 796.04 566.71 799.03 563.11 C 804.96 558.41 812.31 555.37 817.37 549.57 C 817.69 543.86 813.52 538.66 814.72 532.87 C 816.04 527.18 818.45 521.82 820.16 516.25 C 815.41 514.31 810.66 512.52 806.03 510.36 C 806.45 508.63 806.85 506.90 807.26 505.17 C 813.51 504.44 819.88 504.29 826.04 502.86 C 830.64 500.43 832.62 494.89 837.19 492.36 C 841.37 491.14 845.89 493.37 850.04 491.91 C 853.93 489.49 856.82 485.80 859.96 482.53 M 825.18 509.57 C 825.24 511.23 825.31 512.90 825.36 514.56 C 828.62 514.81 831.52 513.40 833.77 511.10 C 830.96 510.31 828.08 509.81 825.18 509.57 M 885.21 536.24 C 881.48 536.08 877.87 535.13 874.24 534.36 C 871.59 537.44 866.44 540.20 867.96 544.97 C 869.11 550.68 869.83 556.48 869.24 562.32 C 874.31 562.92 879.44 563.79 884.56 563.10 C 891.16 561.31 898.94 560.27 903.02 554.11 C 907.87 549.23 910.72 542.84 911.10 535.92 C 908.98 534.32 906.91 532.65 904.67 531.28 C 898.04 532.38 891.85 535.26 885.21 536.24 M 846.93 562.84 C 845.79 564.47 844.77 566.18 843.82 567.93 C 845.48 568.34 847.16 568.74 848.84 569.14 C 849.56 567.79 850.29 566.44 851.03 565.10 C 849.66 564.33 848.29 563.58 846.93 562.84 M 804.59 599.73 C 805.74 600.26 806.91 600.79 808.10 601.32 C 808.44 599.75 808.75 598.16 809.05 596.60 C 807.49 597.55 806.01 598.60 804.59 599.73 Z" />
</g>
<g id="#008fdffe">
<path fill="#008fdf" fill-opacity="0" d=" M 1092.52 503.01 C 1099.46 504.35 1106.48 505.19 1113.53 505.69 C 1113.26 510.42 1112.88 515.13 1112.49 519.86 C 1117.43 519.63 1122.44 519.48 1127.28 518.33 C 1130.55 517.50 1132.93 514.43 1136.30 514.06 C 1142.93 515.47 1148.73 519.30 1154.88 522.01 C 1155.20 518.67 1155.48 515.33 1155.85 512.00 C 1160.40 509.98 1164.98 507.96 1169.56 505.94 C 1171.03 508.91 1172.50 511.87 1174.01 514.84 C 1179.21 511.71 1184.43 508.57 1189.92 505.96 C 1192.67 515.04 1191.45 524.48 1188.10 533.26 C 1186.62 538.67 1183.89 543.91 1183.87 549.62 C 1185.99 553.10 1189.71 555.51 1191.35 559.31 C 1191.53 563.17 1189.64 566.77 1188.71 570.46 C 1184.82 586.87 1179.76 603.02 1173.72 618.76 C 1163.91 618.30 1155.06 623.54 1148.58 630.53 C 1145.10 634.79 1142.84 639.97 1138.79 643.78 C 1136.88 646.14 1133.82 647.79 1132.86 650.82 C 1130.53 658.11 1128.96 665.60 1126.93 672.97 C 1124.78 682.18 1120.64 690.73 1116.79 699.32 C 1114.23 698.16 1111.74 696.86 1109.10 695.92 C 1106.79 694.84 1104.77 696.98 1102.79 697.83 C 1105.59 689.11 1107.64 680.16 1109.34 671.16 C 1106.22 668.65 1103.13 666.07 1100.06 663.55 C 1106.37 656.43 1114.51 649.89 1116.39 640.03 C 1111.03 639.16 1105.67 638.07 1100.58 636.18 C 1097.61 633.93 1096.63 629.82 1093.47 627.78 C 1089.55 626.14 1084.75 626.80 1081.57 623.46 C 1073.58 616.91 1065.68 610.23 1056.92 604.70 L 1056.54 603.86 C 1064.69 602.47 1072.97 603.91 1081.08 604.81 C 1085.18 602.64 1089.36 599.40 1092.01 595.51 C 1094.37 586.36 1094.58 576.79 1095.89 567.45 C 1091.98 563.92 1087.51 560.72 1084.63 556.25 C 1083.31 554.41 1084.54 552.23 1085.57 550.63 C 1090.91 543.98 1086.51 535.61 1087.16 528.05 C 1088.65 519.64 1091.10 511.44 1092.52 503.01 Z" />
</g>
<g id="#3f4f5fff">
<path fill="#3f4f5f" fill-opacity="0" d=" M 749.28 508.93 C 749.39 508.76 749.62 508.42 749.73 508.24 C 752.02 510.82 754.40 513.31 756.79 515.81 C 750.63 524.78 743.07 532.63 735.86 540.75 C 730.72 546.65 725.23 552.28 720.54 558.58 C 714.65 566.35 715.48 577.42 708.74 584.71 C 701.45 594.67 690.06 600.04 680.80 607.83 C 676.15 611.69 671.57 615.62 666.83 619.37 C 669.17 622.15 671.50 624.96 674.15 627.46 C 672.69 630.89 671.30 634.35 669.85 637.79 C 662.88 637.76 657.93 642.50 655.09 648.32 C 651.07 646.29 647.24 643.86 643.37 641.63 C 638.97 646.13 632.61 646.79 626.86 648.37 C 628.17 655.06 625.80 661.61 623.46 667.78 C 628.20 676.03 632.18 684.71 637.15 692.83 C 634.38 692.34 631.65 691.71 628.93 691.03 C 622.08 696.56 615.25 702.61 606.92 705.73 C 600.52 702.41 598.97 694.53 594.89 689.07 C 591.87 683.90 586.86 679.40 586.98 672.94 C 586.72 669.70 588.53 666.81 590.21 664.20 C 594.78 657.54 599.74 651.12 605.43 645.38 C 605.23 642.91 605.29 640.73 605.14 638.33 C 615.58 636.74 621.73 627.36 626.86 619.17 C 628.08 616.86 629.37 614.45 629.55 611.80 C 630.38 603.52 622.46 598.03 621.56 590.20 C 623.52 585.73 626.75 581.93 628.81 577.52 C 630.13 573.16 629.86 568.44 631.65 564.20 C 633.40 559.76 637.57 557.01 641.00 553.98 C 651.29 545.64 661.90 537.72 672.41 529.67 C 680.65 525.10 689.56 521.15 699.01 520.10 C 709.08 519.89 718.87 524.57 729.00 522.59 C 737.04 520.64 746.24 517.51 749.28 508.93 M 657.14 548.11 C 655.81 548.79 655.80 549.47 657.11 550.14 C 658.42 549.45 658.43 548.78 657.14 548.11 Z" />
</g>
<g id="#1f8f20ff">
<path fill="#1f8f20" fill-opacity="0" d=" M 825.18 509.57 C 828.08 509.81 830.96 510.31 833.77 511.10 C 831.52 513.40 828.62 514.81 825.36 514.56 C 825.31 512.90 825.24 511.23 825.18 509.57 Z" />
</g>
<g id="#7f4fdfff">
<path fill="#7f4fdf" fill-opacity="0" d=" M 1064.88 510.25 C 1065.89 509.85 1066.91 509.46 1067.94 509.07 C 1068.28 510.29 1068.64 511.52 1069.01 512.75 C 1067.94 513.18 1066.89 513.62 1065.86 514.06 C 1065.52 512.79 1065.19 511.51 1064.88 510.25 Z" />
</g>
<g id="#7f8f5fff">
<path fill="#7f8f5f" fill-opacity="0" d=" M 1064.80 530.75 C 1065.51 529.42 1066.45 527.88 1068.13 527.72 C 1074.45 526.88 1080.83 527.77 1087.16 528.05 C 1086.51 535.61 1090.91 543.98 1085.57 550.63 C 1084.54 552.23 1083.31 554.41 1084.63 556.25 C 1087.51 560.72 1091.98 563.92 1095.89 567.45 C 1094.58 576.79 1094.37 586.36 1092.01 595.51 C 1089.36 599.40 1085.18 602.64 1081.08 604.81 C 1072.97 603.91 1064.69 602.47 1056.54 603.86 C 1052.44 607.89 1048.68 612.23 1044.86 616.51 C 1035.56 611.57 1031.69 601.15 1023.06 595.48 C 1025.45 593.85 1027.68 592.02 1030.02 590.31 C 1029.85 589.11 1029.69 587.92 1029.53 586.73 C 1026.04 585.13 1020.79 584.14 1020.40 579.45 C 1019.59 574.28 1025.48 571.52 1028.17 568.14 C 1033.93 562.44 1036.77 554.64 1040.13 547.43 C 1045.23 550.20 1049.91 553.72 1055.31 555.93 C 1056.55 551.74 1057.72 547.51 1059.07 543.35 C 1060.64 539.00 1062.63 534.82 1064.80 530.75 Z" />
</g>
<g id="#bf4f5fff">
<path fill="#bf4f5f" fill-opacity="0" d=" M 885.21 536.24 C 891.85 535.26 898.04 532.38 904.67 531.28 C 906.91 532.65 908.98 534.32 911.10 535.92 C 910.72 542.84 907.87 549.23 903.02 554.11 C 898.94 560.27 891.16 561.31 884.56 563.10 C 879.44 563.79 874.31 562.92 869.24 562.32 C 869.83 556.48 869.11 550.68 867.96 544.97 C 866.44 540.20 871.59 537.44 874.24 534.36 C 877.87 535.13 881.48 536.08 885.21 536.24 Z" />
</g>
<g id="#3f0fdffe">
<path fill="#3f0fdf" fill-opacity="0" d=" M 957.38 540.38 C 958.70 539.01 960.98 541.28 959.62 542.62 C 958.28 543.98 956.00 541.70 957.38 540.38 Z" />
</g>
<g id="#008f5fff">
<path fill="#008f5f" fill-opacity="0" d=" M 735.86 540.75 C 741.66 542.65 747.57 544.28 753.20 546.67 C 758.79 549.56 762.52 554.91 766.15 559.87 C 769.89 564.93 770.54 571.59 774.48 576.52 C 776.61 578.94 779.59 580.97 782.89 581.12 C 786.68 580.80 789.48 577.78 791.90 575.15 C 797.02 582.90 796.88 592.53 800.02 601.02 C 802.54 606.16 808.59 607.27 813.77 607.03 C 811.80 613.48 810.01 620.01 808.79 626.66 C 808.26 629.10 807.69 632.07 805.13 633.19 C 800.27 635.42 794.85 632.15 789.90 633.33 C 784.84 638.07 779.17 642.74 771.99 643.47 C 766.60 644.05 761.21 644.38 755.82 644.67 C 754.46 639.60 753.93 634.04 750.57 629.81 C 747.20 625.38 743.22 621.45 739.86 617.02 C 728.28 619.89 716.91 623.58 705.75 627.80 C 698.75 630.41 691.45 633.26 683.84 632.24 C 680.30 631.40 677.11 629.51 674.15 627.46 C 671.50 624.96 669.17 622.15 666.83 619.37 C 671.57 615.62 676.15 611.69 680.80 607.83 C 690.06 600.04 701.45 594.67 708.74 584.71 C 715.48 577.42 714.65 566.35 720.54 558.58 C 725.23 552.28 730.72 546.65 735.86 540.75 Z" />
</g>
<g id="#0050dfff">
<path fill="#0050df" fill-opacity="0" d=" M 657.14 548.11 C 658.43 548.78 658.42 549.45 657.11 550.14 C 655.80 549.47 655.81 548.79 657.14 548.11 Z" />
</g>
<g id="#3fcfdfff">
<path fill="#3fcfdf" fill-opacity="0" d=" M 619.05 552.79 C 620.41 551.17 621.83 549.61 623.33 548.11 C 623.90 549.91 624.47 551.72 625.05 553.53 C 623.03 553.42 621.03 553.14 619.05 552.79 Z" />
</g>
<g id="#7fcf5fff">
<path fill="#7fcf5f" fill-opacity="0" d=" M 846.93 562.84 C 848.29 563.58 849.66 564.33 851.03 565.10 C 850.29 566.44 849.56 567.79 848.84 569.14 C 847.16 568.74 845.48 568.34 843.82 567.93 C 844.77 566.18 845.79 564.47 846.93 562.84 Z" />
</g>
<g id="#00cf5ffe">
<path fill="#00cf5f" fill-opacity="0" d=" M 1002.06 596.86 C 1006.50 595.09 1010.97 597.46 1015.41 597.84 C 1018.09 597.72 1020.55 596.37 1023.06 595.48 C 1031.69 601.15 1035.56 611.57 1044.86 616.51 C 1048.68 612.23 1052.44 607.89 1056.54 603.86 L 1056.92 604.70 C 1058.49 609.02 1060.62 613.28 1061.11 617.91 C 1059.50 628.98 1054.85 639.89 1047.27 648.22 C 1039.68 657.84 1028.65 663.63 1019.35 671.34 C 1014.14 675.53 1008.59 680.13 1001.72 681.04 C 998.43 681.44 995.43 679.70 992.45 678.63 C 989.89 682.94 986.06 686.43 980.95 687.15 C 971.33 681.77 961.74 672.74 949.89 674.65 C 951.04 661.53 952.99 648.42 952.64 635.22 C 952.61 629.29 947.73 625.02 944.16 620.82 C 944.76 619.90 945.37 618.98 945.99 618.07 C 955.43 616.12 965.45 613.86 974.75 617.71 C 978.54 613.04 983.46 609.70 988.56 606.67 C 992.37 602.57 996.35 598.17 1002.06 596.86 Z" />
</g>
<g id="#7f8fdfff">
<path fill="#7f8fdf" fill-opacity="0" d=" M 804.59 599.73 C 806.01 598.60 807.49 597.55 809.05 596.60 C 808.75 598.16 808.44 599.75 808.10 601.32 C 806.91 600.79 805.74 600.26 804.59 599.73 Z" />
</g>
<g id="#004f5fff">
<path fill="#004f5f" fill-opacity="0" d=" M 846.88 597.01 C 854.55 596.43 857.29 604.84 863.73 607.13 C 870.39 610.08 877.91 609.56 885.04 609.59 C 884.42 615.69 879.12 619.25 875.48 623.56 C 872.38 626.89 873.30 631.89 872.31 636.01 C 877.64 637.52 883.55 638.32 887.79 642.20 C 892.00 645.78 896.30 650.46 902.24 650.80 C 909.21 651.18 915.97 648.66 922.93 648.40 C 920.34 655.12 916.48 661.26 913.95 667.99 C 912.70 670.92 915.19 673.48 916.52 675.87 C 915.09 678.61 913.60 681.31 912.07 683.99 C 901.93 684.42 895.39 693.32 887.90 698.99 C 889.37 700.74 890.86 702.50 892.35 704.26 C 889.67 707.51 886.90 710.73 883.78 713.55 C 879.27 715.74 874.07 715.76 869.20 716.45 C 861.88 717.03 854.56 715.99 847.32 715.13 C 842.62 720.41 835.77 722.43 829.08 723.90 C 828.68 729.44 826.67 734.80 822.67 738.72 C 819.15 735.42 815.59 732.15 811.64 729.39 C 813.60 722.42 815.24 715.38 816.97 708.35 C 811.81 705.04 806.98 701.00 801.08 699.06 C 793.10 696.43 784.65 694.33 777.95 688.98 C 773.09 686.26 775.50 679.10 771.14 675.98 C 768.94 674.23 766.43 672.95 764.02 671.55 C 766.61 662.17 769.40 652.84 771.99 643.47 C 779.17 642.74 784.84 638.07 789.90 633.33 C 794.85 632.15 800.27 635.42 805.13 633.19 C 807.69 632.07 808.26 629.10 808.79 626.66 C 810.01 620.01 811.80 613.48 813.77 607.03 C 817.80 606.52 821.68 604.96 825.76 604.89 C 830.66 605.39 834.43 609.47 835.88 614.01 C 840.22 622.52 841.19 635.03 851.61 638.67 C 851.21 633.45 850.67 628.23 850.58 623.00 C 850.67 614.18 848.15 605.67 846.88 597.01 Z" />
</g>
<g id="#7f0f5fff">
<path fill="#7f0f5f" fill-opacity="0" d=" M 1056.92 604.70 C 1065.68 610.23 1073.58 616.91 1081.57 623.46 C 1084.75 626.80 1089.55 626.14 1093.47 627.78 C 1096.63 629.82 1097.61 633.93 1100.58 636.18 C 1105.67 638.07 1111.03 639.16 1116.39 640.03 C 1114.51 649.89 1106.37 656.43 1100.06 663.55 C 1103.13 666.07 1106.22 668.65 1109.34 671.16 C 1107.64 680.16 1105.59 689.11 1102.79 697.83 C 1100.63 701.46 1096.30 703.90 1095.08 707.99 C 1096.81 712.66 1101.57 715.52 1104.68 719.32 C 1109.32 723.48 1108.13 730.48 1107.15 736.05 C 1105.50 742.30 1104.43 748.83 1101.50 754.64 C 1098.02 758.41 1093.31 761.03 1090.38 765.36 C 1087.71 769.25 1085.52 773.53 1081.92 776.69 C 1080.05 773.11 1079.16 769.06 1077.87 765.31 C 1074.33 764.34 1070.78 763.46 1067.22 762.65 C 1064.94 759.13 1062.70 755.68 1060.47 752.16 C 1053.60 753.02 1042.99 758.30 1038.28 750.79 C 1033.10 742.74 1025.10 737.26 1018.31 730.71 C 1006.47 719.83 994.21 709.42 982.25 698.70 C 978.21 695.93 980.40 691.02 980.95 687.15 C 986.06 686.43 989.89 682.94 992.45 678.63 C 995.43 679.70 998.43 681.44 1001.72 681.04 C 1008.59 680.13 1014.14 675.53 1019.35 671.34 C 1028.65 663.63 1039.68 657.84 1047.27 648.22 C 1054.85 639.89 1059.50 628.98 1061.11 617.91 C 1060.62 613.28 1058.49 609.02 1056.92 604.70 Z" />
</g>
<g id="#bf8f5ffe">
<path fill="#bf8f5f" fill-opacity="0" d=" M 705.75 627.80 C 716.91 623.58 728.28 619.89 739.86 617.02 C 743.22 621.45 747.20 625.38 750.57 629.81 C 753.93 634.04 754.46 639.60 755.82 644.67 C 761.21 644.38 766.60 644.05 771.99 643.47 C 769.40 652.84 766.61 662.17 764.02 671.55 C 761.64 672.33 759.07 672.78 756.97 674.21 C 753.47 678.99 751.23 684.71 746.96 688.94 C 739.56 696.13 733.74 705.74 732.64 716.08 C 734.02 724.71 739.10 732.20 741.38 740.59 C 728.36 739.25 716.11 745.68 703.19 745.73 C 699.46 745.94 697.03 742.69 694.64 740.36 C 689.50 734.39 683.55 729.12 676.59 725.41 C 668.55 720.85 666.14 711.37 661.32 704.17 C 657.62 703.95 652.84 706.26 650.18 702.88 C 647.90 700.52 646.45 697.42 643.86 695.38 C 641.79 694.12 639.27 693.94 637.15 692.83 C 632.18 684.71 628.20 676.03 623.46 667.78 C 625.80 661.61 628.17 655.06 626.86 648.37 C 632.61 646.79 638.97 646.13 643.37 641.63 C 647.24 643.86 651.07 646.29 655.09 648.32 C 657.93 642.50 662.88 637.76 669.85 637.79 C 671.30 634.35 672.69 630.89 674.15 627.46 C 677.11 629.51 680.30 631.40 683.84 632.24 C 691.45 633.26 698.75 630.41 705.75 627.80 Z" />
</g>
<g id="#00cfdfff">
<path fill="#00cfdf" fill-opacity="0" d=" M 756.97 674.21 C 759.07 672.78 761.64 672.33 764.02 671.55 C 766.43 672.95 768.94 674.23 771.14 675.98 C 775.50 679.10 773.09 686.26 777.95 688.98 C 784.65 694.33 793.10 696.43 801.08 699.06 C 806.98 701.00 811.81 705.04 816.97 708.35 C 815.24 715.38 813.60 722.42 811.64 729.39 C 815.59 732.15 819.15 735.42 822.67 738.72 C 826.67 734.80 828.68 729.44 829.08 723.90 C 835.77 722.43 842.62 720.41 847.32 715.13 C 854.56 715.99 861.88 717.03 869.20 716.45 C 868.49 721.68 867.56 726.88 866.36 732.02 C 869.47 733.80 872.54 735.59 875.67 737.38 C 875.32 741.40 874.93 745.44 874.78 749.49 C 879.37 750.09 884.59 749.71 888.51 752.50 C 892.27 759.02 889.40 767.14 891.30 774.15 C 892.72 776.95 895.36 778.85 897.56 781.02 C 897.24 784.00 897.12 787.01 896.30 789.93 C 893.87 794.92 889.77 799.26 889.49 805.12 C 888.31 813.98 884.66 822.78 885.97 831.85 C 880.85 831.31 875.72 830.93 870.68 830.10 C 866.18 828.39 863.55 824.11 860.76 820.47 C 854.87 820.38 849.00 820.53 843.13 820.71 C 840.73 820.58 837.88 820.87 836.05 819.01 C 831.43 814.56 827.67 808.98 821.78 806.04 C 817.93 803.78 813.25 802.89 809.84 799.98 C 806.69 793.35 805.08 786.10 802.81 779.15 C 801.27 774.69 801.14 769.75 798.80 765.60 C 796.27 765.15 793.69 765.35 791.15 765.54 C 790.06 769.93 788.88 774.32 787.32 778.58 C 783.27 777.19 778.12 777.65 775.41 773.89 C 772.78 770.42 769.67 767.39 766.51 764.42 C 761.43 758.55 759.63 750.74 756.79 743.72 C 751.68 742.55 746.57 741.33 741.38 740.59 C 739.10 732.20 734.02 724.71 732.64 716.08 C 733.74 705.74 739.56 696.13 746.96 688.94 C 751.23 684.71 753.47 678.99 756.97 674.21 Z" />
</g>
<g id="#7f0fdfff">
<path fill="#7f0fdf" fill-opacity="0" d=" M 949.89 674.65 C 961.74 672.74 971.33 681.77 980.95 687.15 C 980.40 691.02 978.21 695.93 982.25 698.70 C 994.21 709.42 1006.47 719.83 1018.31 730.71 C 1025.10 737.26 1033.10 742.74 1038.28 750.79 C 1042.99 758.30 1053.60 753.02 1060.47 752.16 C 1062.70 755.68 1064.94 759.13 1067.22 762.65 C 1070.78 763.46 1074.33 764.34 1077.87 765.31 C 1079.16 769.06 1080.05 773.11 1081.92 776.69 C 1084.66 780.95 1086.80 785.57 1087.89 790.53 C 1083.17 788.87 1078.53 786.90 1073.91 785.05 C 1073.66 782.69 1073.45 780.33 1073.25 777.97 C 1067.39 777.31 1061.67 775.62 1057.65 771.09 C 1047.52 777.06 1038.70 788.66 1025.49 786.40 C 1019.76 786.34 1014.08 785.43 1008.40 784.80 C 1005.53 784.43 1002.37 784.05 1000.32 781.79 C 993.61 775.10 987.46 767.85 980.36 761.58 C 976.62 758.01 970.30 758.64 966.25 761.20 C 961.80 769.30 959.42 778.43 955.68 786.89 C 953.04 792.31 954.35 798.31 955.49 803.95 C 954.27 804.40 953.05 804.85 951.86 805.32 C 948.09 799.47 944.51 793.52 941.37 787.32 C 939.79 783.99 934.91 784.81 932.20 783.64 C 925.38 782.39 917.79 780.05 911.59 784.53 C 909.36 782.64 907.17 780.77 904.98 778.90 C 902.50 779.60 900.03 780.30 897.56 781.02 C 895.36 778.85 892.72 776.95 891.30 774.15 C 889.40 767.14 892.27 759.02 888.51 752.50 C 884.59 749.71 879.37 750.09 874.78 749.49 C 874.93 745.44 875.32 741.40 875.67 737.38 C 872.54 735.59 869.47 733.80 866.36 732.02 C 867.56 726.88 868.49 721.68 869.20 716.45 C 874.07 715.76 879.27 715.74 883.78 713.55 C 886.90 710.73 889.67 707.51 892.35 704.26 C 890.86 702.50 889.37 700.74 887.90 698.99 C 895.39 693.32 901.93 684.42 912.07 683.99 C 913.60 681.31 915.09 678.61 916.52 675.87 C 927.64 675.17 938.81 676.05 949.89 674.65 Z" />
</g>
<g id="#000fdfff">
<path fill="#000fdf" fill-opacity="0" d=" M 966.25 761.20 C 970.30 758.64 976.62 758.01 980.36 761.58 C 987.46 767.85 993.61 775.10 1000.32 781.79 C 1002.37 784.05 1005.53 784.43 1008.40 784.80 C 1014.08 785.43 1019.76 786.34 1025.49 786.40 C 1038.70 788.66 1047.52 777.06 1057.65 771.09 C 1061.67 775.62 1067.39 777.31 1073.25 777.97 C 1073.45 780.33 1073.66 782.69 1073.91 785.05 C 1078.53 786.90 1083.17 788.87 1087.89 790.53 C 1093.05 805.91 1091.22 822.79 1084.19 837.25 C 1075.94 854.86 1061.04 868.06 1046.72 880.69 C 1043.64 883.38 1040.28 885.75 1036.76 887.82 C 1027.79 893.32 1019.62 899.98 1011.16 906.21 C 1005.62 910.25 1001.85 916.49 995.52 919.45 C 993.61 920.72 991.98 918.47 990.54 917.48 C 986.70 913.67 982.75 909.89 979.61 905.48 C 975.75 897.54 975.19 888.17 970.14 880.76 C 967.44 877.52 964.17 874.67 960.48 872.62 C 950.83 869.32 939.99 870.17 930.78 865.46 C 926.20 863.12 922.74 858.75 917.68 857.39 C 913.34 857.25 909.56 860.09 905.28 860.40 C 902.34 860.05 899.67 858.44 897.56 856.44 C 891.50 849.50 887.06 841.09 885.97 831.85 C 884.66 822.78 888.31 813.98 889.49 805.12 C 889.77 799.26 893.87 794.92 896.30 789.93 C 897.12 787.01 897.24 784.00 897.56 781.02 C 900.03 780.30 902.50 779.60 904.98 778.90 C 907.17 780.77 909.36 782.64 911.59 784.53 C 917.79 780.05 925.38 782.39 932.20 783.64 C 934.91 784.81 939.79 783.99 941.37 787.32 C 944.51 793.52 948.09 799.47 951.86 805.32 C 953.05 804.85 954.27 804.40 955.49 803.95 C 954.35 798.31 953.04 792.31 955.68 786.89 C 959.42 778.43 961.80 769.30 966.25 761.20 Z" />
</g>
</svg>
