<?xml version="1.0" encoding="UTF-8" ?>
<!DOCTYPE svg PUBLIC "-//W3C//DTD SVG 1.1//EN" "http://www.w3.org/Graphics/SVG/1.1/DTD/svg11.dtd">
<svg width="1920pt" height="1080pt" viewBox="0 0 1920 1080" version="1.1" xmlns="http://www.w3.org/2000/svg">
<g id="#9fcf9fff">
<path fill="#9fcf9f" fill-opacity="0" d=" M 1139.96 255.65 C 1145.88 254.36 1150.09 248.45 1156.34 248.31 C 1160.66 249.11 1164.17 252.22 1167.98 254.30 C 1167.39 262.68 1165.99 270.96 1164.95 279.28 C 1162.36 280.18 1159.64 280.57 1156.95 280.97 C 1155.09 285.92 1153.96 291.15 1151.72 295.96 C 1148.49 302.14 1143.74 307.49 1141.37 314.12 C 1138.30 322.18 1134.77 330.05 1131.03 337.83 C 1130.84 338.21 1130.47 338.99 1130.28 339.38 C 1125.93 340.58 1121.56 341.78 1117.39 343.45 C 1112.46 345.48 1108.69 349.54 1103.76 351.54 C 1098.58 349.65 1094.56 345.08 1091.59 340.56 C 1088.95 336.11 1092.27 331.13 1091.86 326.43 C 1090.37 320.29 1085.02 316.32 1081.84 311.11 C 1075.95 303.32 1077.59 292.97 1076.16 283.83 C 1080.65 284.97 1084.98 286.66 1088.99 289.02 C 1090.22 280.06 1089.28 268.51 1098.23 263.19 C 1103.77 259.99 1107.02 266.46 1111.40 268.39 C 1114.78 268.97 1118.15 267.90 1121.51 267.56 C 1123.31 263.02 1125.48 258.65 1127.78 254.33 C 1131.77 254.98 1135.86 256.20 1139.96 255.65 M 1136.14 308.27 C 1134.51 308.21 1134.37 310.95 1136.06 310.93 C 1137.67 311.01 1137.79 308.23 1136.14 308.27 Z" />
</g>
<g id="#df8f1fff">
<path fill="#df8f1f" fill-opacity="0" d=" M 937.09 270.07 C 940.56 267.32 945.08 265.33 949.54 266.62 C 953.72 268.67 952.92 274.13 955.57 277.29 C 962.58 280.37 970.41 281.30 977.03 285.40 C 979.22 284.60 981.40 283.78 983.57 282.95 C 983.75 288.07 982.60 293.67 985.68 298.19 C 988.56 303.45 990.82 309.04 993.89 314.22 C 997.38 319.09 1001.67 323.34 1004.84 328.46 C 1002.44 330.69 1000.08 332.97 998.14 335.62 C 1000.93 337.75 1003.75 339.90 1006.55 342.06 C 1000.35 347.08 992.81 350.56 984.67 349.80 C 984.66 348.24 984.66 346.69 984.68 345.14 C 979.41 344.60 974.16 343.87 968.92 343.20 C 960.23 328.93 945.05 320.67 930.50 313.54 C 930.92 311.57 931.34 309.61 931.77 307.65 C 929.92 307.24 928.08 306.82 926.26 306.41 C 926.37 302.16 926.48 297.91 926.67 293.66 C 921.11 293.44 915.57 292.90 910.05 292.30 C 909.35 289.43 908.73 286.56 908.03 283.71 C 907.85 283.03 907.51 281.68 907.34 281.01 C 910.23 278.02 913.05 274.87 916.59 272.62 C 922.86 268.84 931.21 274.92 937.09 270.07 Z" />
</g>
<g id="#5f8f9ffe">
<path fill="#5f8f9f" fill-opacity="0" d=" M 1177.31 270.91 C 1184.87 270.51 1192.54 273.40 1197.57 279.19 C 1201.18 279.70 1205.51 278.83 1208.70 281.17 C 1212.50 283.43 1213.66 288.17 1217.16 290.74 C 1222.40 294.11 1227.98 296.95 1233.77 299.28 L 1233.78 300.03 C 1233.81 306.49 1234.35 312.92 1234.81 319.36 C 1227.76 318.32 1221.94 310.78 1214.47 314.52 C 1212.81 314.97 1211.26 315.73 1209.81 316.62 C 1206.42 322.85 1203.26 329.86 1205.03 337.14 C 1206.02 340.86 1211.45 344.51 1208.71 348.62 C 1204.37 356.64 1195.31 361.04 1186.65 362.62 C 1179.51 354.85 1167.92 357.58 1158.56 355.59 C 1150.22 353.68 1138.66 352.89 1135.20 343.43 C 1134.03 341.40 1132.52 339.60 1131.03 337.83 C 1134.77 330.05 1138.30 322.18 1141.37 314.12 C 1143.74 307.49 1148.49 302.14 1151.72 295.96 C 1153.96 291.15 1155.09 285.92 1156.95 280.97 C 1159.64 280.57 1162.36 280.18 1164.95 279.28 C 1169.28 276.85 1172.65 272.80 1177.31 270.91 Z" />
</g>
<g id="#1fcf5fff">
<path fill="#1fcf5f" fill-opacity="0" d=" M 983.57 282.95 C 987.22 281.49 991.04 277.82 995.17 279.74 C 1000.23 281.46 1002.33 286.80 1004.43 291.24 C 1008.60 289.87 1012.54 287.77 1016.96 287.21 C 1020.25 288.04 1022.98 290.29 1026.25 291.21 C 1029.99 291.67 1033.86 290.50 1037.52 291.80 C 1041.54 292.78 1046.00 295.61 1050.05 293.33 C 1055.31 290.10 1059.65 285.21 1065.78 283.53 C 1069.15 282.22 1072.74 283.39 1076.16 283.83 C 1077.59 292.97 1075.95 303.32 1081.84 311.11 C 1085.02 316.32 1090.37 320.29 1091.86 326.43 C 1092.27 331.13 1088.95 336.11 1091.59 340.56 C 1094.56 345.08 1098.58 349.65 1103.76 351.54 C 1108.69 349.54 1112.46 345.48 1117.39 343.45 C 1121.56 341.78 1125.93 340.58 1130.28 339.38 C 1124.77 352.32 1116.41 363.71 1107.45 374.44 C 1103.05 378.44 1098.48 382.43 1093.21 385.24 C 1087.83 388.27 1082.66 382.87 1077.65 381.48 C 1070.26 377.79 1062.07 380.32 1054.75 382.64 C 1046.02 385.95 1037.87 390.69 1030.34 396.16 C 1027.41 398.61 1025.17 401.75 1023.39 405.10 C 1015.01 396.58 1005.91 388.04 994.25 384.43 C 988.96 379.60 984.77 373.53 979.08 369.03 C 973.99 363.95 969.67 358.01 966.30 351.68 C 964.39 348.57 967.50 345.74 968.92 343.20 C 974.16 343.87 979.41 344.60 984.68 345.14 C 984.66 346.69 984.66 348.24 984.67 349.80 C 992.81 350.56 1000.35 347.08 1006.55 342.06 C 1003.75 339.90 1000.93 337.75 998.14 335.62 C 1000.08 332.97 1002.44 330.69 1004.84 328.46 C 1001.67 323.34 997.38 319.09 993.89 314.22 C 990.82 309.04 988.56 303.45 985.68 298.19 C 982.60 293.67 983.75 288.07 983.57 282.95 M 1034.36 374.84 C 1031.59 377.60 1028.81 380.36 1026.07 383.15 C 1028.86 385.69 1031.61 388.28 1034.33 390.90 C 1039.93 387.11 1045.51 383.26 1051.17 379.55 C 1045.65 377.69 1040.11 375.82 1034.36 374.84 Z" />
</g>
<g id="#5f0f9fff">
<path fill="#5f0f9f" fill-opacity="0" d=" M 893.15 285.49 C 898.06 284.74 903.14 284.79 908.03 283.71 C 908.73 286.56 909.35 289.43 910.05 292.30 C 915.57 292.90 921.11 293.44 926.67 293.66 C 926.48 297.91 926.37 302.16 926.26 306.41 C 928.08 306.82 929.92 307.24 931.77 307.65 C 931.34 309.61 930.92 311.57 930.50 313.54 C 945.05 320.67 960.23 328.93 968.92 343.20 C 967.50 345.74 964.39 348.57 966.30 351.68 C 969.67 358.01 973.99 363.95 979.08 369.03 C 974.13 375.33 967.09 379.30 960.21 383.15 C 953.62 386.68 948.66 392.53 944.49 398.61 C 939.41 406.27 929.75 408.15 921.63 411.01 C 917.96 400.61 918.49 389.47 916.68 378.74 C 914.95 370.94 905.36 369.78 901.13 363.98 C 899.55 360.33 900.11 356.17 898.82 352.45 C 894.92 346.66 889.05 342.67 884.56 337.40 C 881.71 333.88 883.37 329.11 882.62 325.01 C 880.59 324.08 877.88 323.68 875.94 325.00 C 873.20 327.96 871.58 331.75 869.48 335.16 C 867.30 334.29 865.10 333.44 862.89 332.65 C 864.73 329.00 866.69 325.39 868.11 321.54 C 870.07 314.57 865.92 307.12 868.27 300.29 C 872.53 295.52 880.48 296.54 884.62 291.60 C 887.25 289.44 889.50 286.00 893.15 285.49 Z" />
</g>
<g id="#1f4f9fff">
<path fill="#1f4f9f" fill-opacity="0" d=" M 1233.78 300.03 C 1237.13 302.36 1240.07 305.63 1244.12 306.71 C 1252.30 307.16 1260.09 304.04 1268.06 302.71 C 1273.92 302.11 1279.83 302.66 1285.66 303.42 C 1291.88 304.23 1296.87 308.40 1301.97 311.72 C 1301.29 314.09 1300.68 316.48 1300.10 318.87 C 1305.30 322.92 1311.14 325.99 1317.59 327.48 C 1319.10 324.29 1319.47 319.33 1323.59 318.44 C 1327.60 317.14 1330.78 321.11 1333.60 323.32 C 1336.44 329.23 1334.62 337.98 1340.53 342.24 C 1349.13 345.35 1357.95 348.91 1364.33 355.76 C 1360.49 356.36 1356.72 357.25 1352.95 358.11 C 1354.91 360.92 1356.91 363.70 1358.94 366.47 C 1351.35 372.80 1343.56 378.90 1335.94 385.18 C 1336.37 386.24 1336.83 387.30 1337.29 388.37 C 1331.60 383.99 1325.88 379.52 1320.86 374.38 C 1321.29 371.51 1322.78 368.93 1323.89 366.28 C 1323.11 365.41 1322.36 364.54 1321.63 363.68 C 1315.18 365.22 1309.13 367.96 1302.79 369.81 C 1299.93 370.59 1296.37 371.35 1293.94 369.12 C 1288.82 364.17 1287.67 356.41 1282.57 351.49 C 1272.38 345.65 1260.13 348.33 1249.05 348.76 C 1244.25 346.96 1242.09 341.38 1238.72 337.84 C 1230.98 328.19 1216.48 327.37 1209.81 316.62 C 1211.26 315.73 1212.81 314.97 1214.47 314.52 C 1221.94 310.78 1227.76 318.32 1234.81 319.36 C 1234.35 312.92 1233.81 306.49 1233.78 300.03 Z" />
</g>
<g id="#df8f9fff">
<path fill="#df8f9f" fill-opacity="0" d=" M 688.94 300.73 C 695.31 302.62 701.19 305.72 707.04 308.84 C 711.48 310.70 715.89 307.30 720.38 307.69 C 728.25 310.35 734.17 316.88 736.36 324.80 C 733.87 328.87 730.02 332.70 729.95 337.76 C 729.91 341.34 730.04 344.93 729.84 348.51 C 725.20 351.93 720.43 355.30 716.80 359.83 C 708.41 369.94 697.97 377.98 688.03 386.45 C 691.61 391.45 695.75 396.22 697.68 402.18 C 698.59 405.02 700.59 408.75 698.62 411.67 C 696.31 415.37 693.86 418.99 691.26 422.49 C 688.79 425.92 683.82 425.02 680.84 427.73 C 676.41 431.63 674.23 437.31 671.52 442.39 C 666.11 441.14 660.62 442.07 655.17 442.09 C 647.92 440.87 642.91 434.76 637.55 430.26 C 632.44 434.43 627.20 438.44 622.16 442.68 C 619.65 442.04 617.27 441.48 614.82 440.87 C 616.04 438.87 617.27 436.88 618.56 434.93 C 614.55 434.27 610.55 433.65 606.56 432.94 C 608.05 426.48 609.53 419.92 609.33 413.25 C 607.95 407.14 605.69 401.24 604.79 395.01 C 615.40 390.09 622.03 380.01 629.83 371.72 C 632.08 369.66 630.11 366.77 629.54 364.43 C 639.02 356.68 647.36 347.74 655.18 338.36 C 657.54 336.04 660.86 334.64 662.44 331.59 C 664.33 328.30 666.38 324.69 670.17 323.29 C 674.54 320.56 680.60 320.32 683.64 315.71 C 686.70 311.26 687.28 305.75 688.94 300.73 Z" />
</g>
<g id="#1f0fdffe">
<path fill="#1f0fdf" fill-opacity="0" d=" M 827.24 301.53 C 830.97 301.20 834.19 303.92 837.04 305.99 C 843.25 310.80 850.92 313.21 857.13 318.00 C 852.36 321.63 848.21 326.00 844.95 331.04 C 842.60 336.06 836.59 335.74 831.99 336.66 C 831.05 341.80 831.26 347.34 834.01 351.96 C 837.57 357.83 842.66 362.55 846.65 368.12 C 837.89 369.80 829.01 370.22 820.18 371.25 C 823.90 375.55 827.88 379.68 832.41 383.14 C 827.04 384.74 821.99 388.11 816.25 388.24 C 811.73 387.63 808.00 384.66 804.20 382.38 C 803.51 382.65 802.14 383.20 801.46 383.48 C 803.39 386.70 806.09 389.52 807.36 393.10 C 807.21 397.45 802.97 399.88 800.06 402.45 C 794.05 402.34 788.02 402.53 782.03 401.95 C 780.51 398.37 779.06 394.01 775.10 392.46 C 767.62 389.30 760.57 384.93 752.51 383.38 C 746.65 383.25 743.27 378.27 738.93 375.26 C 735.71 376.94 733.17 379.63 730.34 381.84 C 730.42 376.42 732.27 371.32 733.87 366.22 C 738.70 365.76 743.43 364.48 747.74 362.22 C 741.96 357.41 735.69 353.22 729.84 348.51 C 730.04 344.93 729.91 341.34 729.95 337.76 C 730.02 332.70 733.87 328.87 736.36 324.80 C 739.56 327.52 742.75 330.69 746.94 331.77 C 753.19 328.86 755.01 320.80 761.64 318.50 C 765.55 316.67 769.10 320.07 772.95 320.37 C 778.37 321.73 783.42 318.62 788.46 317.26 C 794.24 317.95 800.01 320.41 805.94 318.94 C 814.45 314.99 818.68 305.37 827.24 301.53 M 787.33 332.93 C 787.45 336.20 787.39 339.47 787.34 342.74 C 792.29 341.39 797.01 339.22 801.28 336.36 C 796.63 335.22 791.96 334.13 787.33 332.93 Z" />
</g>
<g id="#1fcf9fff">
<path fill="#1fcf9f" fill-opacity="0" d=" M 1136.14 308.27 C 1137.79 308.23 1137.67 311.01 1136.06 310.93 C 1134.37 310.95 1134.51 308.21 1136.14 308.27 Z" />
</g>
<g id="#df8f5ffe">
<path fill="#df8f5f" fill-opacity="0" d=" M 514.61 309.85 C 517.50 308.84 521.01 308.84 523.75 310.31 C 528.24 313.79 530.22 319.76 535.21 322.76 C 538.75 324.61 543.19 327.73 547.14 325.16 C 552.35 322.30 556.89 318.05 562.93 316.92 C 566.38 316.01 570.01 316.75 573.48 316.02 C 578.56 314.72 583.37 311.80 588.69 311.82 C 595.96 315.50 601.55 322.29 609.72 324.27 C 617.40 326.74 625.89 324.94 633.35 328.27 C 640.75 331.37 646.29 340.17 655.18 338.36 C 647.36 347.74 639.02 356.68 629.54 364.43 C 630.11 366.77 632.08 369.66 629.83 371.72 C 622.03 380.01 615.40 390.09 604.79 395.01 C 599.58 393.66 594.34 392.34 589.30 390.47 C 587.09 386.23 591.51 381.86 592.83 378.06 C 590.64 373.31 590.33 368.07 591.49 363.01 C 590.62 362.42 589.75 361.82 588.91 361.23 C 585.53 362.77 582.28 365.57 578.44 365.41 C 574.01 362.80 570.48 358.85 565.72 356.73 C 562.37 360.93 558.86 365.02 554.98 368.75 C 550.82 364.49 546.32 359.88 540.25 358.64 C 533.45 357.65 526.56 358.33 519.74 357.67 C 525.96 352.65 533.84 350.35 540.41 345.84 C 534.91 343.63 529.27 341.69 524.05 338.88 C 519.91 336.57 516.72 332.78 512.33 330.92 C 507.68 330.35 503.53 332.54 499.42 334.26 C 493.37 336.82 486.69 337.49 480.18 337.30 C 482.18 333.42 484.42 329.68 486.55 325.87 C 493.59 325.75 498.13 319.60 504.67 318.03 C 508.83 316.49 511.16 312.39 514.61 309.85 M 577.45 338.09 C 576.26 340.68 575.02 343.24 573.81 345.81 C 577.74 346.29 581.68 347.48 585.67 347.31 C 589.13 345.93 591.11 342.52 593.42 339.79 C 588.12 338.93 582.80 338.33 577.45 338.09 Z" />
</g>
<g id="#9f8fdfff">
<path fill="#9f8fdf" fill-opacity="0" d=" M 1209.81 316.62 C 1216.48 327.37 1230.98 328.19 1238.72 337.84 C 1242.09 341.38 1244.25 346.96 1249.05 348.76 C 1260.13 348.33 1272.38 345.65 1282.57 351.49 C 1287.67 356.41 1288.82 364.17 1293.94 369.12 C 1296.37 371.35 1299.93 370.59 1302.79 369.81 C 1309.13 367.96 1315.18 365.22 1321.63 363.68 C 1322.36 364.54 1323.11 365.41 1323.89 366.28 C 1322.78 368.93 1321.29 371.51 1320.86 374.38 C 1325.88 379.52 1331.60 383.99 1337.29 388.37 C 1344.80 391.47 1347.76 399.66 1354.57 403.58 C 1359.78 406.63 1361.76 412.74 1364.27 417.84 C 1367.05 423.57 1367.34 430.10 1368.15 436.32 C 1360.21 436.10 1352.23 435.88 1344.32 435.49 C 1342.66 437.31 1339.35 440.95 1337.69 442.77 C 1343.90 450.00 1350.89 456.55 1357.69 463.24 C 1350.57 468.70 1341.15 462.00 1333.92 466.87 C 1330.77 468.77 1328.02 471.22 1325.16 473.50 C 1323.39 472.36 1321.61 471.20 1319.91 470.02 C 1312.03 466.62 1313.22 457.05 1311.39 450.16 C 1313.20 449.70 1315.03 449.23 1316.86 448.77 C 1316.19 446.28 1315.51 443.79 1314.86 441.30 C 1312.26 441.13 1307.07 440.79 1304.48 440.62 C 1300.67 434.28 1297.30 427.24 1290.81 423.20 C 1276.97 412.41 1259.99 407.27 1244.21 400.14 C 1243.36 402.43 1243.04 404.89 1242.34 407.23 C 1236.16 402.84 1230.65 397.52 1224.11 393.64 C 1221.48 398.35 1219.86 404.02 1215.32 407.31 C 1207.89 413.47 1198.14 416.14 1188.60 415.76 C 1186.85 411.68 1183.85 407.72 1184.58 403.07 C 1184.75 398.50 1187.41 393.57 1184.79 389.28 C 1181.63 384.24 1175.37 382.88 1170.34 380.47 C 1171.42 375.51 1171.67 369.48 1176.11 366.09 C 1179.20 363.76 1182.95 363.39 1186.65 362.62 C 1195.31 361.04 1204.37 356.64 1208.71 348.62 C 1211.45 344.51 1206.02 340.86 1205.03 337.14 C 1203.26 329.86 1206.42 322.85 1209.81 316.62 M 1216.99 383.31 C 1219.32 385.54 1221.42 388.13 1224.23 389.81 C 1231.33 392.03 1239.21 388.78 1241.86 381.86 C 1241.05 376.82 1236.11 372.98 1231.25 372.32 C 1225.93 375.18 1221.71 379.63 1216.99 383.31 Z" />
</g>
<g id="#dfcf9fff">
<path fill="#dfcf9f" fill-opacity="0" d=" M 857.13 318.00 C 860.60 319.72 864.36 320.57 868.11 321.54 C 866.69 325.39 864.73 329.00 862.89 332.65 C 865.10 333.44 867.30 334.29 869.48 335.16 C 871.58 331.75 873.20 327.96 875.94 325.00 C 877.88 323.68 880.59 324.08 882.62 325.01 C 883.37 329.11 881.71 333.88 884.56 337.40 C 889.05 342.67 894.92 346.66 898.82 352.45 C 900.11 356.17 899.55 360.33 901.13 363.98 C 905.36 369.78 914.95 370.94 916.68 378.74 C 918.49 389.47 917.96 400.61 921.63 411.01 C 915.15 412.70 908.42 413.08 901.77 412.91 C 896.61 412.91 893.85 418.00 890.64 421.22 C 887.58 417.86 884.38 414.65 881.17 411.45 C 872.21 402.73 862.54 394.54 851.60 388.42 C 845.79 384.96 838.96 384.12 832.41 383.14 C 827.88 379.68 823.90 375.55 820.18 371.25 C 829.01 370.22 837.89 369.80 846.65 368.12 C 842.66 362.55 837.57 357.83 834.01 351.96 C 831.26 347.34 831.05 341.80 831.99 336.66 C 836.59 335.74 842.60 336.06 844.95 331.04 C 848.21 326.00 852.36 321.63 857.13 318.00 Z" />
</g>
<g id="#1f4f5ffe">
<path fill="#1f4f5f" fill-opacity="0" d=" M 499.42 334.26 C 503.53 332.54 507.68 330.35 512.33 330.92 C 516.72 332.78 519.91 336.57 524.05 338.88 C 529.27 341.69 534.91 343.63 540.41 345.84 C 533.84 350.35 525.96 352.65 519.74 357.67 C 517.83 363.20 514.83 368.70 515.00 374.69 C 516.72 379.83 521.40 383.16 525.26 386.68 C 522.54 391.26 520.08 396.14 516.13 399.81 C 505.93 398.66 495.79 401.48 485.62 399.85 C 478.88 398.93 470.20 399.52 465.82 393.18 C 462.74 388.31 459.02 383.84 454.07 380.78 C 455.53 375.91 456.50 370.88 458.26 366.11 C 463.85 355.32 476.68 349.44 479.89 337.30 L 480.18 337.30 C 486.69 337.49 493.37 336.82 499.42 334.26 Z" />
</g>
<g id="#9f8f5fff">
<path fill="#9f8f5f" fill-opacity="0" d=" M 787.33 332.93 C 791.96 334.13 796.63 335.22 801.28 336.36 C 797.01 339.22 792.29 341.39 787.34 342.74 C 787.39 339.47 787.45 336.20 787.33 332.93 Z" />
</g>
<g id="#5f8f5ffe">
<path fill="#5f8f5f" fill-opacity="0" d=" M 577.45 338.09 C 582.80 338.33 588.12 338.93 593.42 339.79 C 591.11 342.52 589.13 345.93 585.67 347.31 C 581.68 347.48 577.74 346.29 573.81 345.81 C 575.02 343.24 576.26 340.68 577.45 338.09 Z" />
</g>
<g id="#5f0f1fff">
<path fill="#5f0f1f" fill-opacity="0" d=" M 1130.28 339.38 C 1130.47 338.99 1130.84 338.21 1131.03 337.83 C 1132.52 339.60 1134.03 341.40 1135.20 343.43 C 1138.66 352.89 1150.22 353.68 1158.56 355.59 C 1167.92 357.58 1179.51 354.85 1186.65 362.62 C 1182.95 363.39 1179.20 363.76 1176.11 366.09 C 1171.67 369.48 1171.42 375.51 1170.34 380.47 C 1175.37 382.88 1181.63 384.24 1184.79 389.28 C 1187.41 393.57 1184.75 398.50 1184.58 403.07 C 1183.85 407.72 1186.85 411.68 1188.60 415.76 C 1178.67 415.74 1168.70 415.74 1158.83 414.58 C 1156.21 418.73 1154.06 423.17 1152.68 427.90 C 1148.22 437.53 1153.22 448.02 1155.60 457.45 C 1140.28 457.53 1124.90 457.47 1109.64 458.89 C 1104.40 455.72 1099.55 451.99 1094.70 448.29 C 1086.48 442.97 1081.72 456.54 1074.09 455.22 C 1066.47 448.68 1058.68 441.71 1054.22 432.48 C 1051.30 428.51 1047.17 425.67 1043.68 422.25 C 1046.29 419.91 1048.92 417.58 1051.55 415.23 C 1043.61 409.96 1035.95 403.95 1030.34 396.16 C 1037.87 390.69 1046.02 385.95 1054.75 382.64 C 1062.07 380.32 1070.26 377.79 1077.65 381.48 C 1082.66 382.87 1087.83 388.27 1093.21 385.24 C 1098.48 382.43 1103.05 378.44 1107.45 374.44 C 1116.41 363.71 1124.77 352.32 1130.28 339.38 M 1097.39 392.71 C 1093.71 396.75 1094.42 402.83 1093.18 407.90 C 1094.46 408.67 1095.75 409.44 1097.06 410.21 C 1103.70 404.77 1109.89 398.77 1115.26 392.05 C 1109.43 391.75 1102.96 390.21 1097.39 392.71 Z" />
</g>
<g id="#1f8f9fff">
<path fill="#1f8f9f" fill-opacity="0" d=" M 716.80 359.83 C 720.43 355.30 725.20 351.93 729.84 348.51 C 735.69 353.22 741.96 357.41 747.74 362.22 C 743.43 364.48 738.70 365.76 733.87 366.22 C 732.27 371.32 730.42 376.42 730.34 381.84 C 733.17 379.63 735.71 376.94 738.93 375.26 C 743.27 378.27 746.65 383.25 752.51 383.38 C 760.57 384.93 767.62 389.30 775.10 392.46 C 779.06 394.01 780.51 398.37 782.03 401.95 C 788.02 402.53 794.05 402.34 800.06 402.45 C 803.52 405.53 807.04 408.55 810.71 411.39 C 807.09 412.26 802.82 412.23 799.84 414.78 C 797.46 417.12 795.77 420.03 793.89 422.76 C 796.33 425.14 798.76 427.52 801.21 429.92 C 788.92 435.08 781.14 446.41 773.99 457.07 C 777.57 461.50 777.00 466.96 775.60 472.02 C 774.13 472.86 772.68 473.70 771.24 474.56 C 762.23 471.43 753.04 468.82 743.74 466.75 C 738.76 469.36 732.77 472.33 727.13 469.81 C 717.21 466.01 707.20 456.37 695.90 461.83 C 692.21 458.98 688.43 456.22 684.74 453.36 C 680.16 449.91 675.49 446.55 671.52 442.39 C 674.23 437.31 676.41 431.63 680.84 427.73 C 683.82 425.02 688.79 425.92 691.26 422.49 C 693.86 418.99 696.31 415.37 698.62 411.67 C 700.59 408.75 698.59 405.02 697.68 402.18 C 695.75 396.22 691.61 391.45 688.03 386.45 C 697.97 377.98 708.41 369.94 716.80 359.83 M 735.13 418.95 C 734.92 419.23 734.52 419.80 734.31 420.08 C 735.16 423.22 738.47 418.42 735.13 418.95 Z" />
</g>
<g id="#1f8f5fff">
<path fill="#1f8f5f" fill-opacity="0" d=" M 1364.33 355.76 C 1370.67 354.94 1377.10 355.32 1383.47 355.70 C 1387.24 357.52 1390.28 360.79 1394.32 362.15 C 1398.90 363.37 1403.94 361.50 1408.34 363.60 C 1411.03 364.56 1409.08 368.44 1411.30 369.95 C 1412.91 376.25 1418.98 380.05 1424.69 382.21 C 1428.92 382.50 1433.00 380.16 1437.29 380.81 C 1442.35 382.41 1446.61 386.15 1452.08 386.67 C 1459.55 388.98 1467.90 387.10 1474.89 391.15 C 1483.27 394.69 1486.26 403.96 1491.32 410.77 C 1494.95 416.45 1502.07 418.63 1505.90 424.13 C 1505.04 431.84 1500.53 438.51 1497.82 445.67 C 1499.06 446.35 1500.35 447.02 1501.63 447.71 C 1501.44 453.54 1502.60 459.71 1500.02 465.17 C 1478.32 508.95 1457.71 553.26 1435.97 597.01 C 1433.71 601.98 1427.50 601.65 1422.99 602.33 C 1424.23 598.82 1425.37 595.29 1426.33 591.70 C 1423.58 593.66 1421.01 595.89 1417.98 597.40 C 1428.14 573.97 1440.24 551.43 1450.04 527.83 C 1457.46 513.13 1464.23 498.12 1470.98 483.10 C 1469.63 479.45 1467.33 476.06 1466.86 472.18 C 1467.35 466.83 1470.99 462.40 1471.83 457.13 C 1470.39 455.06 1467.29 451.89 1464.75 453.93 C 1461.41 456.53 1459.14 460.29 1455.60 462.64 C 1444.15 461.64 1441.62 449.40 1434.18 442.96 C 1430.05 446.96 1426.58 451.78 1425.56 457.55 C 1422.39 456.87 1418.99 456.56 1416.20 454.77 C 1412.22 452.16 1409.93 447.76 1406.21 444.87 C 1401.97 442.25 1396.74 442.40 1391.97 441.92 C 1390.94 444.81 1389.84 447.67 1388.73 450.52 C 1382.14 445.40 1376.26 439.02 1368.15 436.32 C 1367.34 430.10 1367.05 423.57 1364.27 417.84 C 1361.76 412.74 1359.78 406.63 1354.57 403.58 C 1347.76 399.66 1344.80 391.47 1337.29 388.37 C 1336.83 387.30 1336.37 386.24 1335.94 385.18 C 1343.56 378.90 1351.35 372.80 1358.94 366.47 C 1356.91 363.70 1354.91 360.92 1352.95 358.11 C 1356.72 357.25 1360.49 356.36 1364.33 355.76 Z" />
</g>
<g id="#1f0f9fff">
<path fill="#1f0f9f" fill-opacity="0" d=" M 519.74 357.67 C 526.56 358.33 533.45 357.65 540.25 358.64 C 546.32 359.88 550.82 364.49 554.98 368.75 C 558.86 365.02 562.37 360.93 565.72 356.73 C 570.48 358.85 574.01 362.80 578.44 365.41 C 582.28 365.57 585.53 362.77 588.91 361.23 C 589.75 361.82 590.62 362.42 591.49 363.01 C 590.33 368.07 590.64 373.31 592.83 378.06 C 591.51 381.86 587.09 386.23 589.30 390.47 C 594.34 392.34 599.58 393.66 604.79 395.01 C 605.69 401.24 607.95 407.14 609.33 413.25 C 609.53 419.92 608.05 426.48 606.56 432.94 C 602.49 435.72 597.98 438.08 594.74 441.86 C 593.38 445.99 596.96 448.76 598.98 451.74 C 594.89 455.39 589.77 458.56 584.08 457.00 C 578.27 453.41 572.19 449.63 568.56 443.66 C 565.31 439.57 566.75 434.00 566.38 429.29 C 556.12 431.77 547.82 439.38 537.26 440.80 C 531.14 440.22 525.83 436.71 520.11 434.75 C 512.85 431.75 504.94 430.56 497.84 427.23 C 494.64 424.53 493.38 420.22 491.00 416.85 C 499.97 412.10 508.17 406.08 516.13 399.81 C 520.08 396.14 522.54 391.26 525.26 386.68 C 521.40 383.16 516.72 379.83 515.00 374.69 C 514.83 368.70 517.83 363.20 519.74 357.67 Z" />
</g>
<g id="#9fcf5fff">
<path fill="#9fcf5f" fill-opacity="0" d=" M 960.21 383.15 C 967.09 379.30 974.13 375.33 979.08 369.03 C 984.77 373.53 988.96 379.60 994.25 384.43 C 1005.91 388.04 1015.01 396.58 1023.39 405.10 C 1019.28 413.31 1013.02 420.17 1006.89 426.90 C 999.95 433.53 990.41 436.43 981.20 438.26 C 971.65 440.12 962.63 444.03 953.02 445.59 C 945.55 447.00 937.68 447.79 931.10 451.90 C 922.97 456.77 914.84 461.66 907.34 467.47 C 901.57 456.17 897.09 444.05 895.67 431.39 C 895.28 427.50 893.16 424.10 890.64 421.22 C 893.85 418.00 896.61 412.91 901.77 412.91 C 908.42 413.08 915.15 412.70 921.63 411.01 C 929.75 408.15 939.41 406.27 944.49 398.61 C 948.66 392.53 953.62 386.68 960.21 383.15 Z" />
</g>
<g id="#1f8fdfff">
<path fill="#1f8fdf" fill-opacity="0" d=" M 1216.99 383.31 C 1221.71 379.63 1225.93 375.18 1231.25 372.32 C 1236.11 372.98 1241.05 376.82 1241.86 381.86 C 1239.21 388.78 1231.33 392.03 1224.23 389.81 C 1221.42 388.13 1219.32 385.54 1216.99 383.31 Z" />
</g>
<g id="#9f4f5fff">
<path fill="#9f4f5f" fill-opacity="0" d=" M 1034.36 374.84 C 1040.11 375.82 1045.65 377.69 1051.17 379.55 C 1045.51 383.26 1039.93 387.11 1034.33 390.90 C 1031.61 388.28 1028.86 385.69 1026.07 383.15 C 1028.81 380.36 1031.59 377.60 1034.36 374.84 Z" />
</g>
<g id="#5f0f5fff">
<path fill="#5f0f5f" fill-opacity="0" d=" M 435.67 404.45 C 440.04 395.30 447.23 388.08 454.07 380.78 C 459.02 383.84 462.74 388.31 465.82 393.18 C 470.20 399.52 478.88 398.93 485.62 399.85 C 495.79 401.48 505.93 398.66 516.13 399.81 C 508.17 406.08 499.97 412.10 491.00 416.85 C 483.15 421.51 477.54 428.86 472.10 436.01 C 462.96 449.26 452.53 461.87 439.69 471.70 C 437.94 472.99 436.16 474.47 433.98 474.93 C 429.13 473.34 426.19 468.69 421.70 466.44 C 416.34 462.88 409.71 463.47 403.58 463.13 C 402.42 459.20 399.46 454.84 401.68 450.78 C 405.40 442.70 411.43 435.90 417.92 429.93 C 422.17 425.85 427.34 422.67 430.82 417.83 C 433.43 413.80 433.82 408.81 435.67 404.45 Z" />
</g>
<g id="#df8fdfff">
<path fill="#df8fdf" fill-opacity="0" d=" M 804.20 382.38 C 808.00 384.66 811.73 387.63 816.25 388.24 C 821.99 388.11 827.04 384.74 832.41 383.14 C 838.96 384.12 845.79 384.96 851.60 388.42 C 862.54 394.54 872.21 402.73 881.17 411.45 C 877.53 417.90 873.47 424.12 868.70 429.80 C 864.81 433.78 867.86 439.61 867.06 444.50 C 867.84 451.37 860.52 453.84 856.23 457.36 C 851.80 460.81 846.02 461.41 841.22 464.05 C 840.21 466.85 840.31 469.90 839.91 472.82 C 835.20 473.32 829.74 472.48 825.85 475.79 C 820.80 479.86 816.33 485.85 809.13 485.68 C 797.32 482.79 787.00 476.04 775.60 472.02 C 777.00 466.96 777.57 461.50 773.99 457.07 C 781.14 446.41 788.92 435.08 801.21 429.92 C 798.76 427.52 796.33 425.14 793.89 422.76 C 795.77 420.03 797.46 417.12 799.84 414.78 C 802.82 412.23 807.09 412.26 810.71 411.39 C 807.04 408.55 803.52 405.53 800.06 402.45 C 802.97 399.88 807.21 397.45 807.36 393.10 C 806.09 389.52 803.39 386.70 801.46 383.48 C 802.14 383.20 803.51 382.65 804.20 382.38 Z" />
</g>
<g id="#9f8f9fff">
<path fill="#9f8f9f" fill-opacity="0" d=" M 1097.39 392.71 C 1102.96 390.21 1109.43 391.75 1115.26 392.05 C 1109.89 398.77 1103.70 404.77 1097.06 410.21 C 1095.75 409.44 1094.46 408.67 1093.18 407.90 C 1094.42 402.83 1093.71 396.75 1097.39 392.71 Z" />
</g>
<g id="#dfcf1fff">
<path fill="#dfcf1f" fill-opacity="0" d=" M 1215.32 407.31 C 1219.86 404.02 1221.48 398.35 1224.11 393.64 C 1230.65 397.52 1236.16 402.84 1242.34 407.23 C 1243.04 404.89 1243.36 402.43 1244.21 400.14 C 1259.99 407.27 1276.97 412.41 1290.81 423.20 C 1297.30 427.24 1300.67 434.28 1304.48 440.62 C 1307.07 440.79 1312.26 441.13 1314.86 441.30 C 1315.51 443.79 1316.19 446.28 1316.86 448.77 C 1315.03 449.23 1313.20 449.70 1311.39 450.16 C 1313.22 457.05 1312.03 466.62 1319.91 470.02 C 1321.61 471.20 1323.39 472.36 1325.16 473.50 C 1325.14 475.61 1325.07 477.72 1325.10 479.84 C 1320.59 479.18 1316.07 478.55 1311.55 478.00 C 1309.47 483.36 1307.04 488.57 1304.77 493.86 C 1298.29 493.22 1291.45 494.81 1285.15 492.78 C 1279.62 486.12 1278.20 476.87 1272.74 470.15 C 1269.22 468.22 1265.05 470.39 1261.46 471.09 C 1261.58 474.01 1261.69 476.92 1261.86 479.85 C 1254.98 480.24 1248.08 480.57 1241.20 480.50 C 1237.43 480.46 1233.50 480.32 1230.02 481.97 C 1223.64 484.55 1218.14 489.95 1210.93 489.97 C 1206.33 489.22 1201.97 487.25 1198.03 484.84 C 1195.01 483.16 1194.50 479.48 1194.28 476.38 C 1193.81 468.50 1193.64 460.62 1193.02 452.76 C 1187.09 453.02 1181.14 453.55 1175.26 453.95 C 1174.60 451.64 1173.91 449.35 1173.20 447.07 C 1177.92 443.10 1182.63 439.15 1187.46 435.31 C 1185.23 433.48 1183.13 430.50 1179.90 430.90 C 1175.64 431.08 1171.45 432.05 1167.28 432.79 C 1164.68 426.61 1161.93 420.51 1158.83 414.58 C 1168.70 415.74 1178.67 415.74 1188.60 415.76 C 1198.14 416.14 1207.89 413.47 1215.32 407.31 Z" />
</g>
<g id="#5fcf9fff">
<path fill="#5fcf9f" fill-opacity="0" d=" M 1023.39 405.10 C 1025.17 401.75 1027.41 398.61 1030.34 396.16 C 1035.95 403.95 1043.61 409.96 1051.55 415.23 C 1048.92 417.58 1046.29 419.91 1043.68 422.25 C 1047.17 425.67 1051.30 428.51 1054.22 432.48 C 1058.68 441.71 1066.47 448.68 1074.09 455.22 C 1081.72 456.54 1086.48 442.97 1094.70 448.29 C 1099.55 451.99 1104.40 455.72 1109.64 458.89 C 1109.70 461.61 1109.81 467.04 1109.87 469.76 C 1106.09 470.85 1102.27 471.85 1098.65 473.39 C 1092.21 481.89 1084.75 489.79 1075.72 495.58 C 1072.63 495.21 1069.88 493.61 1066.90 492.87 C 1061.51 491.17 1055.76 492.11 1050.44 493.50 C 1045.76 495.27 1042.75 500.03 1037.85 501.37 C 1032.93 501.58 1028.08 500.23 1023.25 499.55 C 1016.10 492.29 1008.72 485.06 999.97 479.73 C 992.62 475.44 984.20 479.68 977.05 482.27 C 980.79 477.39 984.53 472.51 988.37 467.71 C 981.26 467.21 973.99 467.65 967.33 470.33 C 960.61 473.11 953.46 475.10 946.17 475.41 C 943.30 475.64 941.50 473.01 939.89 471.07 C 935.65 465.36 934.17 458.22 931.10 451.90 C 937.68 447.79 945.55 447.00 953.02 445.59 C 962.63 444.03 971.65 440.12 981.20 438.26 C 990.41 436.43 999.95 433.53 1006.89 426.90 C 1013.02 420.17 1019.28 413.31 1023.39 405.10 M 963.53 447.13 C 962.59 448.31 964.64 449.68 965.45 448.46 C 966.42 447.26 964.33 445.92 963.53 447.13 Z" />
</g>
<g id="#df0fdfff">
<path fill="#df0fdf" fill-opacity="0" d=" M 868.70 429.80 C 873.47 424.12 877.53 417.90 881.17 411.45 C 884.38 414.65 887.58 417.86 890.64 421.22 C 893.16 424.10 895.28 427.50 895.67 431.39 C 897.09 444.05 901.57 456.17 907.34 467.47 C 898.61 473.49 889.21 479.01 882.31 487.23 C 882.13 487.42 881.77 487.81 881.59 488.01 C 880.36 486.17 878.60 488.29 878.50 489.75 C 872.92 495.13 867.86 501.01 862.79 506.86 C 855.81 515.55 846.53 522.56 841.55 532.74 C 840.01 535.52 838.50 538.31 836.92 541.07 C 832.32 541.89 827.75 543.31 823.04 543.19 C 815.61 542.75 808.29 540.45 800.81 541.24 C 792.98 542.35 785.43 544.85 778.08 547.68 C 774.27 543.94 770.46 540.21 766.45 536.69 C 768.64 532.68 771.19 528.73 774.85 525.89 C 778.05 523.06 782.15 521.03 784.21 517.10 C 788.57 511.76 786.04 503.02 780.10 500.00 C 775.44 496.76 770.20 493.68 764.37 493.54 C 759.28 493.25 754.21 493.46 749.13 493.57 C 753.13 484.18 763.20 479.87 771.24 474.56 C 772.68 473.70 774.13 472.86 775.60 472.02 C 787.00 476.04 797.32 482.79 809.13 485.68 C 816.33 485.85 820.80 479.86 825.85 475.79 C 829.74 472.48 835.20 473.32 839.91 472.82 C 840.31 469.90 840.21 466.85 841.22 464.05 C 846.02 461.41 851.80 460.81 856.23 457.36 C 860.52 453.84 867.84 451.37 867.06 444.50 C 867.86 439.61 864.81 433.78 868.70 429.80 Z" />
</g>
<g id="#1fcf1fff">
<path fill="#1fcf1f" fill-opacity="0" d=" M 1152.68 427.90 C 1154.06 423.17 1156.21 418.73 1158.83 414.58 C 1161.93 420.51 1164.68 426.61 1167.28 432.79 C 1171.45 432.05 1175.64 431.08 1179.90 430.90 C 1183.13 430.50 1185.23 433.48 1187.46 435.31 C 1182.63 439.15 1177.92 443.10 1173.20 447.07 C 1173.91 449.35 1174.60 451.64 1175.26 453.95 C 1181.14 453.55 1187.09 453.02 1193.02 452.76 C 1193.64 460.62 1193.81 468.50 1194.28 476.38 C 1194.50 479.48 1195.01 483.16 1198.03 484.84 C 1201.97 487.25 1206.33 489.22 1210.93 489.97 C 1218.14 489.95 1223.64 484.55 1230.02 481.97 C 1233.50 480.32 1237.43 480.46 1241.20 480.50 C 1240.14 484.94 1237.68 489.89 1239.99 494.36 C 1242.87 496.83 1246.67 497.84 1250.08 499.38 C 1249.14 504.90 1248.08 510.40 1246.88 515.88 C 1243.99 515.43 1241.40 515.13 1238.59 514.69 C 1235.23 519.37 1229.69 520.62 1224.15 519.87 C 1221.85 524.20 1219.57 528.52 1217.17 532.79 C 1217.42 533.21 1217.93 534.07 1218.18 534.50 C 1222.45 534.46 1226.74 534.50 1231.03 534.44 C 1230.85 542.76 1231.07 551.17 1229.68 559.41 C 1228.92 563.93 1225.43 567.24 1222.45 570.44 C 1216.71 576.04 1211.37 582.03 1205.59 587.58 C 1196.50 596.73 1184.82 602.68 1175.56 611.63 C 1169.07 611.22 1162.59 610.61 1156.13 609.88 C 1146.10 608.81 1135.86 608.47 1126.25 605.14 C 1126.56 602.96 1126.67 600.76 1126.80 598.57 C 1121.75 597.08 1115.97 593.90 1110.85 596.87 C 1107.32 599.03 1103.12 599.14 1099.12 599.44 C 1098.30 595.21 1097.54 590.98 1096.84 586.76 C 1104.41 585.53 1112.12 583.22 1117.90 577.91 C 1124.01 572.01 1129.72 565.68 1135.29 559.26 C 1133.57 557.77 1131.86 556.28 1130.16 554.79 C 1133.66 551.51 1137.69 548.53 1140.03 544.24 C 1139.59 540.03 1136.82 536.22 1136.99 531.97 C 1140.63 526.52 1148.37 527.66 1153.46 524.42 C 1156.44 519.72 1155.77 513.85 1155.56 508.55 C 1147.90 508.10 1140.17 508.50 1132.76 510.61 C 1126.44 511.11 1120.23 509.22 1114.08 508.06 C 1114.41 501.50 1116.64 494.64 1114.37 488.23 C 1110.58 481.92 1104.12 478.07 1098.65 473.39 C 1102.27 471.85 1106.09 470.85 1109.87 469.76 C 1109.81 467.04 1109.70 461.61 1109.64 458.89 C 1124.90 457.47 1140.28 457.53 1155.60 457.45 C 1153.22 448.02 1148.22 437.53 1152.68 427.90 Z" />
</g>
<g id="#5f8f1fff">
<path fill="#5f8f1f" fill-opacity="0" d=" M 472.10 436.01 C 477.54 428.86 483.15 421.51 491.00 416.85 C 493.38 420.22 494.64 424.53 497.84 427.23 C 504.94 430.56 512.85 431.75 520.11 434.75 C 525.83 436.71 531.14 440.22 537.26 440.80 C 547.82 439.38 556.12 431.77 566.38 429.29 C 566.75 434.00 565.31 439.57 568.56 443.66 C 572.19 449.63 578.27 453.41 584.08 457.00 C 575.81 461.80 566.55 464.77 558.96 470.73 C 563.37 475.05 568.36 478.69 573.24 482.44 C 569.37 485.96 565.75 489.75 562.40 493.76 C 557.10 497.89 550.10 496.30 543.92 496.51 C 543.26 494.35 542.54 492.21 541.85 490.06 C 535.56 492.08 530.75 496.85 524.74 499.34 C 518.45 500.61 511.83 501.15 506.44 505.09 C 503.11 504.53 499.82 503.99 496.51 503.42 C 492.67 507.26 487.17 512.96 481.32 509.75 C 476.33 507.46 477.37 501.09 477.29 496.76 C 472.28 499.63 466.77 503.72 466.27 509.96 C 467.86 515.16 474.46 517.78 473.84 524.01 C 474.32 531.46 469.14 537.22 464.26 542.10 C 475.69 565.31 485.70 589.25 497.98 612.04 C 497.57 612.20 496.77 612.53 496.37 612.69 C 491.45 607.27 486.98 600.03 478.91 599.65 C 470.03 586.59 464.65 571.67 457.45 557.71 C 454.97 550.73 446.29 549.51 442.91 543.16 C 435.35 528.89 428.42 514.30 421.25 499.83 C 415.31 487.62 408.65 475.75 403.58 463.13 C 409.71 463.47 416.34 462.88 421.70 466.44 C 426.19 468.69 429.13 473.34 433.98 474.93 C 436.16 474.47 437.94 472.99 439.69 471.70 C 452.53 461.87 462.96 449.26 472.10 436.01 M 473.84 460.90 C 475.05 468.06 476.40 475.19 477.62 482.35 C 481.78 481.11 485.83 479.58 489.87 478.00 C 487.33 471.92 484.70 465.88 481.89 459.92 C 479.20 460.22 476.52 460.55 473.84 460.90 Z" />
</g>
<g id="#9f109fff">
<path fill="#9f109f" fill-opacity="0" d=" M 735.13 418.95 C 738.47 418.42 735.16 423.22 734.31 420.08 C 734.52 419.80 734.92 419.23 735.13 418.95 Z" />
</g>
<g id="#9f4f9ffe">
<path fill="#9f4f9f" fill-opacity="0" d=" M 622.16 442.68 C 627.20 438.44 632.44 434.43 637.55 430.26 C 642.91 434.76 647.92 440.87 655.17 442.09 C 660.62 442.07 666.11 441.14 671.52 442.39 C 675.49 446.55 680.16 449.91 684.74 453.36 C 682.88 459.91 683.16 466.77 682.75 473.51 C 686.62 472.22 690.70 471.71 694.77 472.10 C 694.14 474.90 693.03 477.69 693.14 480.60 C 693.58 484.04 695.09 487.21 696.32 490.42 C 693.06 494.79 688.95 499.18 688.98 505.05 C 689.71 509.18 693.49 511.91 694.55 515.92 C 695.48 520.96 691.97 525.61 692.63 530.60 C 696.02 543.22 697.59 556.24 701.26 568.80 C 705.60 584.59 709.07 600.60 713.33 616.41 C 708.92 616.40 704.62 615.09 700.24 615.04 C 696.31 616.55 693.84 620.45 689.93 621.98 C 684.06 621.43 683.30 612.31 677.26 611.62 C 667.16 610.22 657.45 614.40 647.35 613.82 C 642.76 597.07 637.32 580.59 631.64 564.19 C 629.17 556.25 626.97 548.19 623.14 540.77 C 620.41 535.85 620.00 529.73 615.84 525.64 C 612.16 523.32 607.74 522.36 604.37 519.59 C 601.80 515.24 605.74 509.48 602.86 505.24 C 598.05 504.20 593.09 504.50 588.22 504.85 C 587.19 507.68 586.51 510.93 584.08 512.94 C 581.89 514.65 579.36 515.86 576.96 517.22 C 576.61 513.76 576.78 509.96 574.88 506.90 C 572.14 503.46 567.51 502.76 563.58 501.45 C 563.20 498.88 562.75 496.28 562.40 493.76 C 565.75 489.75 569.37 485.96 573.24 482.44 C 568.36 478.69 563.37 475.05 558.96 470.73 C 566.55 464.77 575.81 461.80 584.08 457.00 C 589.77 458.56 594.89 455.39 598.98 451.74 C 596.96 448.76 593.38 445.99 594.74 441.86 C 597.98 438.08 602.49 435.72 606.56 432.94 C 610.55 433.65 614.55 434.27 618.56 434.93 C 617.27 436.88 616.04 438.87 614.82 440.87 C 617.27 441.48 619.65 442.04 622.16 442.68 Z" />
</g>
<g id="#9f0f5fff">
<path fill="#9f0f5f" fill-opacity="0" d=" M 1344.32 435.49 C 1352.23 435.88 1360.21 436.10 1368.15 436.32 C 1376.26 439.02 1382.14 445.40 1388.73 450.52 C 1389.84 447.67 1390.94 444.81 1391.97 441.92 C 1396.74 442.40 1401.97 442.25 1406.21 444.87 C 1409.93 447.76 1412.22 452.16 1416.20 454.77 C 1418.99 456.56 1422.39 456.87 1425.56 457.55 C 1426.58 451.78 1430.05 446.96 1434.18 442.96 C 1441.62 449.40 1444.15 461.64 1455.60 462.64 C 1459.14 460.29 1461.41 456.53 1464.75 453.93 C 1467.29 451.89 1470.39 455.06 1471.83 457.13 C 1470.99 462.40 1467.35 466.83 1466.86 472.18 C 1467.33 476.06 1469.63 479.45 1470.98 483.10 C 1464.23 498.12 1457.46 513.13 1450.04 527.83 C 1440.24 551.43 1428.14 573.97 1417.98 597.40 C 1413.77 606.19 1409.94 615.19 1404.32 623.22 C 1400.10 629.07 1398.50 636.41 1394.23 642.16 C 1385.54 647.23 1379.01 656.29 1368.49 657.74 C 1357.68 661.71 1345.16 664.07 1337.36 673.32 C 1332.64 678.36 1328.49 684.70 1321.41 686.56 C 1317.11 688.47 1312.42 687.68 1307.94 687.30 C 1318.25 661.90 1327.23 635.97 1337.76 610.66 C 1339.11 607.39 1340.39 603.65 1338.92 600.18 C 1335.69 592.17 1329.23 586.00 1323.63 579.63 C 1324.33 573.50 1326.99 568.02 1329.47 562.48 C 1331.36 559.06 1329.17 555.69 1327.30 552.88 C 1329.64 551.35 1331.82 548.62 1334.91 549.01 C 1337.46 549.19 1339.94 549.89 1342.43 550.51 C 1343.55 547.45 1345.19 544.28 1344.67 540.93 C 1343.75 538.23 1341.36 536.41 1339.82 534.10 C 1337.41 531.17 1337.90 527.16 1337.46 523.62 C 1336.57 508.15 1324.48 495.60 1325.10 479.84 C 1325.07 477.72 1325.14 475.61 1325.16 473.50 C 1328.02 471.22 1330.77 468.77 1333.92 466.87 C 1341.15 462.00 1350.57 468.70 1357.69 463.24 C 1350.89 456.55 1343.90 450.00 1337.69 442.77 C 1339.35 440.95 1342.66 437.31 1344.32 435.49 Z" />
</g>
<g id="#df4f9fff">
<path fill="#df4f9f" fill-opacity="0" d=" M 963.53 447.13 C 964.33 445.92 966.42 447.26 965.45 448.46 C 964.64 449.68 962.59 448.31 963.53 447.13 Z" />
</g>
<g id="#9f4f1fff">
<path fill="#9f4f1f" fill-opacity="0" d=" M 907.34 467.47 C 914.84 461.66 922.97 456.77 931.10 451.90 C 934.17 458.22 935.65 465.36 939.89 471.07 C 941.50 473.01 943.30 475.64 946.17 475.41 C 953.46 475.10 960.61 473.11 967.33 470.33 C 973.99 467.65 981.26 467.21 988.37 467.71 C 984.53 472.51 980.79 477.39 977.05 482.27 C 968.70 488.53 960.39 494.85 952.70 501.92 C 953.66 504.80 954.97 507.68 955.02 510.77 C 954.42 515.28 951.77 519.18 950.07 523.31 C 954.09 527.51 958.58 531.20 962.54 535.48 C 965.30 537.73 964.94 541.54 964.63 544.68 C 963.62 551.24 960.77 557.32 958.35 563.44 C 950.78 559.32 941.37 556.16 933.10 560.08 C 928.56 562.35 923.33 565.14 921.46 570.14 C 922.62 580.02 927.14 589.15 930.24 598.54 C 925.80 599.72 921.42 601.72 916.75 601.56 C 910.29 601.01 903.39 599.08 898.75 594.32 C 896.27 589.86 896.15 584.50 894.15 579.83 C 893.24 576.56 890.88 572.97 892.58 569.57 C 894.78 565.17 898.05 561.41 900.30 557.03 C 892.20 558.63 886.32 565.46 878.13 566.79 C 867.69 569.08 857.55 564.43 847.35 562.86 C 844.80 559.40 841.50 556.53 839.24 552.86 C 837.17 549.29 837.23 545.05 836.92 541.07 C 838.50 538.31 840.01 535.52 841.55 532.74 C 846.53 522.56 855.81 515.55 862.79 506.86 C 868.53 509.18 878.16 513.02 881.99 505.96 C 886.26 499.45 888.44 491.70 887.30 483.91 C 885.62 485.00 883.93 486.07 882.31 487.23 C 889.21 479.01 898.61 473.49 907.34 467.47 Z" />
</g>
<g id="#5f4f9fff">
<path fill="#5f4f9f" fill-opacity="0" d=" M 684.74 453.36 C 688.43 456.22 692.21 458.98 695.90 461.83 C 707.20 456.37 717.21 466.01 727.13 469.81 C 732.77 472.33 738.76 469.36 743.74 466.75 C 753.04 468.82 762.23 471.43 771.24 474.56 C 763.20 479.87 753.13 484.18 749.13 493.57 C 754.21 493.46 759.28 493.25 764.37 493.54 C 770.20 493.68 775.44 496.76 780.10 500.00 C 786.04 503.02 788.57 511.76 784.21 517.10 C 782.15 521.03 778.05 523.06 774.85 525.89 C 771.19 528.73 768.64 532.68 766.45 536.69 C 759.32 541.22 750.53 540.80 742.60 539.03 C 742.68 543.02 742.92 547.01 742.78 551.03 C 742.44 555.43 738.50 558.48 737.77 562.73 C 738.46 571.21 741.29 579.31 742.68 587.69 C 745.66 601.72 748.55 615.76 751.93 629.70 C 746.09 626.63 739.32 626.50 733.08 624.83 C 728.72 622.67 725.94 618.39 722.64 614.99 C 719.54 615.42 716.39 615.89 713.33 616.41 C 709.07 600.60 705.60 584.59 701.26 568.80 C 697.59 556.24 696.02 543.22 692.63 530.60 C 691.97 525.61 695.48 520.96 694.55 515.92 C 693.49 511.91 689.71 509.18 688.98 505.05 C 688.95 499.18 693.06 494.79 696.32 490.42 C 695.09 487.21 693.58 484.04 693.14 480.60 C 693.03 477.69 694.14 474.90 694.77 472.10 C 690.70 471.71 686.62 472.22 682.75 473.51 C 683.16 466.77 682.88 459.91 684.74 453.36 Z" />
</g>
<g id="#df0f1fff">
<path fill="#df0f1f" fill-opacity="0" d=" M 473.84 460.90 C 476.52 460.55 479.20 460.22 481.89 459.92 C 484.70 465.88 487.33 471.92 489.87 478.00 C 485.83 479.58 481.78 481.11 477.62 482.35 C 476.40 475.19 475.05 468.06 473.84 460.90 Z" />
</g>
<g id="#df0f9fff">
<path fill="#df0f9f" fill-opacity="0" d=" M 1261.46 471.09 C 1265.05 470.39 1269.22 468.22 1272.74 470.15 C 1278.20 476.87 1279.62 486.12 1285.15 492.78 C 1291.45 494.81 1298.29 493.22 1304.77 493.86 C 1307.04 488.57 1309.47 483.36 1311.55 478.00 C 1316.07 478.55 1320.59 479.18 1325.10 479.84 C 1324.48 495.60 1336.57 508.15 1337.46 523.62 C 1337.90 527.16 1337.41 531.17 1339.82 534.10 C 1341.36 536.41 1343.75 538.23 1344.67 540.93 C 1345.19 544.28 1343.55 547.45 1342.43 550.51 C 1339.94 549.89 1337.46 549.19 1334.91 549.01 C 1331.82 548.62 1329.64 551.35 1327.30 552.88 C 1329.17 555.69 1331.36 559.06 1329.47 562.48 C 1326.99 568.02 1324.33 573.50 1323.63 579.63 C 1329.23 586.00 1335.69 592.17 1338.92 600.18 C 1340.39 603.65 1339.11 607.39 1337.76 610.66 C 1327.23 635.97 1318.25 661.90 1307.94 687.30 C 1302.56 700.32 1297.60 713.50 1292.53 726.64 C 1291.14 731.10 1286.16 732.01 1282.34 733.41 C 1274.61 735.60 1268.66 741.28 1261.93 745.37 C 1259.02 740.45 1255.29 736.08 1252.27 731.26 C 1258.50 715.47 1262.83 699.02 1269.12 683.25 C 1274.62 667.44 1280.32 651.68 1285.16 635.64 C 1258.07 632.58 1231.72 625.25 1204.71 621.72 C 1198.48 620.62 1190.95 620.76 1186.47 615.46 C 1183.86 612.19 1179.46 611.71 1175.56 611.63 C 1184.82 602.68 1196.50 596.73 1205.59 587.58 C 1211.37 582.03 1216.71 576.04 1222.45 570.44 C 1225.43 567.24 1228.92 563.93 1229.68 559.41 C 1231.07 551.17 1230.85 542.76 1231.03 534.44 C 1226.74 534.50 1222.45 534.46 1218.18 534.50 C 1217.93 534.07 1217.42 533.21 1217.17 532.79 C 1219.57 528.52 1221.85 524.20 1224.15 519.87 C 1229.69 520.62 1235.23 519.37 1238.59 514.69 C 1241.40 515.13 1243.99 515.43 1246.88 515.88 C 1248.08 510.40 1249.14 504.90 1250.08 499.38 C 1246.67 497.84 1242.87 496.83 1239.99 494.36 C 1237.68 489.89 1240.14 484.94 1241.20 480.50 C 1248.08 480.57 1254.98 480.24 1261.86 479.85 C 1261.69 476.92 1261.58 474.01 1261.46 471.09 Z" />
</g>
<g id="#9fcf1fff">
<path fill="#9fcf1f" fill-opacity="0" d=" M 1075.72 495.58 C 1084.75 489.79 1092.21 481.89 1098.65 473.39 C 1104.12 478.07 1110.58 481.92 1114.37 488.23 C 1116.64 494.64 1114.41 501.50 1114.08 508.06 C 1120.23 509.22 1126.44 511.11 1132.76 510.61 C 1140.17 508.50 1147.90 508.10 1155.56 508.55 C 1155.77 513.85 1156.44 519.72 1153.46 524.42 C 1148.37 527.66 1140.63 526.52 1136.99 531.97 C 1136.82 536.22 1139.59 540.03 1140.03 544.24 C 1137.69 548.53 1133.66 551.51 1130.16 554.79 C 1131.86 556.28 1133.57 557.77 1135.29 559.26 C 1129.72 565.68 1124.01 572.01 1117.90 577.91 C 1112.12 583.22 1104.41 585.53 1096.84 586.76 C 1097.54 590.98 1098.30 595.21 1099.12 599.44 C 1090.48 599.38 1081.82 600.01 1073.18 599.55 C 1070.97 599.37 1069.61 597.32 1068.34 595.75 C 1064.91 590.86 1061.65 585.82 1058.20 580.94 C 1059.68 572.01 1063.81 560.87 1056.26 553.74 C 1051.41 547.39 1042.65 548.88 1035.87 546.32 C 1034.92 542.63 1034.30 538.43 1031.13 535.90 C 1024.73 530.38 1017.41 525.36 1013.48 517.62 C 1016.30 515.14 1019.58 512.90 1021.35 509.48 C 1022.59 506.32 1022.68 502.86 1023.25 499.55 C 1028.08 500.23 1032.93 501.58 1037.85 501.37 C 1042.75 500.03 1045.76 495.27 1050.44 493.50 C 1055.76 492.11 1061.51 491.17 1066.90 492.87 C 1069.88 493.61 1072.63 495.21 1075.72 495.58 Z" />
</g>
<g id="#5f8fdfff">
<path fill="#5f8fdf" fill-opacity="0" d=" M 977.05 482.27 C 984.20 479.68 992.62 475.44 999.97 479.73 C 1008.72 485.06 1016.10 492.29 1023.25 499.55 C 1022.68 502.86 1022.59 506.32 1021.35 509.48 C 1019.58 512.90 1016.30 515.14 1013.48 517.62 C 1017.41 525.36 1024.73 530.38 1031.13 535.90 C 1034.30 538.43 1034.92 542.63 1035.87 546.32 C 1025.81 549.01 1016.35 553.56 1007.00 558.03 C 1001.58 560.37 1000.91 566.86 999.00 571.70 C 989.04 571.00 979.07 570.36 969.15 569.33 C 964.55 569.47 961.01 566.79 958.35 563.44 C 960.77 557.32 963.62 551.24 964.63 544.68 C 964.94 541.54 965.30 537.73 962.54 535.48 C 958.58 531.20 954.09 527.51 950.07 523.31 C 951.77 519.18 954.42 515.28 955.02 510.77 C 954.97 507.68 953.66 504.80 952.70 501.92 C 960.39 494.85 968.70 488.53 977.05 482.27 Z" />
</g>
<g id="#1f4f1fff">
<path fill="#1f4f1f" fill-opacity="0" d=" M 882.31 487.23 C 883.93 486.07 885.62 485.00 887.30 483.91 C 888.44 491.70 886.26 499.45 881.99 505.96 C 878.16 513.02 868.53 509.18 862.79 506.86 C 867.86 501.01 872.92 495.13 878.50 489.75 C 879.74 489.52 880.77 488.95 881.59 488.01 C 881.77 487.81 882.13 487.42 882.31 487.23 Z" />
</g>
<g id="#7f4f20ff">
<path fill="#7f4f20" fill-opacity="0" d=" M 878.50 489.75 C 878.60 488.29 880.36 486.17 881.59 488.01 C 880.77 488.95 879.74 489.52 878.50 489.75 Z" />
</g>
<g id="#5f0fdfff">
<path fill="#5f0fdf" fill-opacity="0" d=" M 524.74 499.34 C 530.75 496.85 535.56 492.08 541.85 490.06 C 542.54 492.21 543.26 494.35 543.92 496.51 C 550.10 496.30 557.10 497.89 562.40 493.76 C 562.75 496.28 563.20 498.88 563.58 501.45 C 567.51 502.76 572.14 503.46 574.88 506.90 C 576.78 509.96 576.61 513.76 576.96 517.22 C 579.36 515.86 581.89 514.65 584.08 512.94 C 586.51 510.93 587.19 507.68 588.22 504.85 C 593.09 504.50 598.05 504.20 602.86 505.24 C 605.74 509.48 601.80 515.24 604.37 519.59 C 607.74 522.36 612.16 523.32 615.84 525.64 C 620.00 529.73 620.41 535.85 623.14 540.77 C 626.97 548.19 629.17 556.25 631.64 564.19 C 637.32 580.59 642.76 597.07 647.35 613.82 C 642.69 618.58 638.49 624.12 632.25 626.90 C 626.39 627.97 620.58 629.25 614.94 631.19 C 612.35 625.86 610.31 620.29 607.98 614.85 C 604.54 618.10 601.25 621.93 596.63 623.46 C 591.93 623.85 587.37 620.56 582.68 622.18 C 575.89 624.65 571.36 631.05 564.62 633.57 C 560.72 635.13 555.95 633.64 552.60 636.65 C 547.73 640.13 541.46 644.00 535.33 641.87 C 527.32 639.28 521.73 632.68 516.48 626.48 C 511.28 620.46 502.81 618.34 497.98 612.04 C 485.70 589.25 475.69 565.31 464.26 542.10 C 469.14 537.22 474.32 531.46 473.84 524.01 C 474.46 517.78 467.86 515.16 466.27 509.96 C 466.77 503.72 472.28 499.63 477.29 496.76 C 477.37 501.09 476.33 507.46 481.32 509.75 C 487.17 512.96 492.67 507.26 496.51 503.42 C 499.82 503.99 503.11 504.53 506.44 505.09 C 511.83 501.15 518.45 500.61 524.74 499.34 Z" />
</g>
<g id="#df4f1fff">
<path fill="#df4f1f" fill-opacity="0" d=" M 742.60 539.03 C 750.53 540.80 759.32 541.22 766.45 536.69 C 770.46 540.21 774.27 543.94 778.08 547.68 C 785.43 544.85 792.98 542.35 800.81 541.24 C 808.29 540.45 815.61 542.75 823.04 543.19 C 827.75 543.31 832.32 541.89 836.92 541.07 C 837.23 545.05 837.17 549.29 839.24 552.86 C 841.50 556.53 844.80 559.40 847.35 562.86 C 852.87 570.85 857.88 579.52 858.81 589.42 C 860.18 600.56 864.15 612.29 859.10 623.15 C 857.08 627.63 852.75 630.37 849.25 633.60 C 849.99 646.69 852.15 659.63 853.40 672.67 C 854.68 681.72 855.04 690.94 857.21 699.85 C 849.73 695.79 839.87 691.48 832.10 697.14 C 829.72 698.03 830.48 700.77 830.51 702.75 C 831.43 709.97 833.51 717.08 833.63 724.40 C 833.84 727.64 830.92 729.90 828.44 731.39 C 815.18 732.82 802.24 727.75 789.01 728.39 C 782.17 729.69 776.88 735.72 769.58 735.46 C 763.32 734.48 760.56 727.58 759.43 722.07 C 754.73 696.35 745.26 671.30 744.78 644.95 C 747.49 641.59 751.99 639.91 755.50 637.35 C 753.94 634.99 752.55 632.48 751.93 629.70 C 748.55 615.76 745.66 601.72 742.68 587.69 C 741.29 579.31 738.46 571.21 737.77 562.73 C 738.50 558.48 742.44 555.43 742.78 551.03 C 742.92 547.01 742.68 543.02 742.60 539.03 M 816.41 577.25 C 814.97 578.56 817.24 580.86 818.56 579.41 C 820.05 578.07 817.73 575.78 816.41 577.25 Z" />
</g>
<g id="#5fcf1ffe">
<path fill="#5fcf1f" fill-opacity="0" d=" M 1007.00 558.03 C 1016.35 553.56 1025.81 549.01 1035.87 546.32 C 1042.65 548.88 1051.41 547.39 1056.26 553.74 C 1063.81 560.87 1059.68 572.01 1058.20 580.94 C 1054.73 584.23 1051.33 587.58 1047.89 590.88 C 1049.72 594.28 1051.61 597.64 1053.42 601.06 C 1046.74 606.16 1037.99 608.85 1032.90 615.83 C 1027.15 624.93 1021.94 634.75 1020.69 645.62 C 1018.86 653.20 1020.01 662.44 1013.14 667.87 C 1008.55 670.11 1002.87 670.19 999.18 674.16 C 991.71 679.06 993.99 689.19 993.43 696.81 C 993.10 712.31 992.81 727.83 991.75 743.31 C 988.91 739.56 984.20 736.57 983.77 731.56 C 982.99 728.61 984.04 724.09 980.46 722.50 C 976.36 719.15 970.74 719.00 966.10 716.73 C 961.45 715.08 957.49 711.91 952.85 710.30 C 949.40 710.11 946.70 712.88 944.07 714.74 C 944.33 704.89 943.20 695.05 943.58 685.20 C 943.31 673.09 944.61 660.81 941.86 648.89 C 939.96 643.87 935.82 639.98 934.29 634.81 C 933.33 630.79 935.41 626.78 935.76 622.85 C 937.96 614.27 932.50 606.48 930.24 598.54 C 927.14 589.15 922.62 580.02 921.46 570.14 C 923.33 565.14 928.56 562.35 933.10 560.08 C 941.37 556.16 950.78 559.32 958.35 563.44 C 961.01 566.79 964.55 569.47 969.15 569.33 C 979.07 570.36 989.04 571.00 999.00 571.70 C 1000.91 566.86 1001.58 560.37 1007.00 558.03 Z" />
</g>
<g id="#df0f5ffe">
<path fill="#df0f5f" fill-opacity="0" d=" M 878.13 566.79 C 886.32 565.46 892.20 558.63 900.30 557.03 C 898.05 561.41 894.78 565.17 892.58 569.57 C 890.88 572.97 893.24 576.56 894.15 579.83 C 896.15 584.50 896.27 589.86 898.75 594.32 C 903.39 599.08 910.29 601.01 916.75 601.56 C 921.42 601.72 925.80 599.72 930.24 598.54 C 932.50 606.48 937.96 614.27 935.76 622.85 C 935.41 626.78 933.33 630.79 934.29 634.81 C 935.82 639.98 939.96 643.87 941.86 648.89 C 944.61 660.81 943.31 673.09 943.58 685.20 C 943.20 695.05 944.33 704.89 944.07 714.74 C 943.79 718.11 943.21 721.46 942.59 724.80 C 941.81 729.46 937.74 732.49 934.37 735.36 C 931.09 737.68 927.56 741.25 923.10 738.72 C 918.48 737.77 914.26 734.64 909.41 735.02 C 901.25 738.57 893.79 745.96 884.29 744.56 C 881.82 742.70 879.15 740.44 878.81 737.19 C 877.63 729.48 877.42 721.63 875.97 713.96 C 875.73 711.15 872.43 710.63 870.36 709.66 C 865.15 707.90 859.51 705.16 857.21 699.85 C 855.04 690.94 854.68 681.72 853.40 672.67 C 852.15 659.63 849.99 646.69 849.25 633.60 C 852.75 630.37 857.08 627.63 859.10 623.15 C 864.15 612.29 860.18 600.56 858.81 589.42 C 857.88 579.52 852.87 570.85 847.35 562.86 C 857.55 564.43 867.69 569.08 878.13 566.79 Z" />
</g>
<g id="#5f4f1ffe">
<path fill="#5f4f1f" fill-opacity="0" d=" M 816.41 577.25 C 817.73 575.78 820.05 578.07 818.56 579.41 C 817.24 580.86 814.97 578.56 816.41 577.25 Z" />
</g>
<g id="#9f0fdfff">
<path fill="#9f0fdf" fill-opacity="0" d=" M 1047.89 590.88 C 1051.33 587.58 1054.73 584.23 1058.20 580.94 C 1061.65 585.82 1064.91 590.86 1068.34 595.75 C 1069.61 597.32 1070.97 599.37 1073.18 599.55 C 1081.82 600.01 1090.48 599.38 1099.12 599.44 C 1103.12 599.14 1107.32 599.03 1110.85 596.87 C 1115.97 593.90 1121.75 597.08 1126.80 598.57 C 1126.67 600.76 1126.56 602.96 1126.25 605.14 C 1123.36 614.47 1118.38 623.07 1116.18 632.63 C 1116.35 637.24 1119.87 641.05 1120.40 645.63 C 1116.05 652.88 1109.74 658.65 1104.45 665.13 C 1101.69 680.26 1100.66 695.72 1097.80 710.87 C 1093.83 734.47 1090.57 758.18 1086.53 781.77 C 1083.98 795.02 1083.03 808.53 1079.96 821.69 C 1075.19 818.26 1071.52 812.82 1065.56 811.42 C 1058.56 808.75 1054.15 816.07 1049.19 819.20 C 1051.97 801.98 1052.68 784.48 1055.89 767.32 C 1049.84 768.51 1043.62 770.73 1037.44 769.33 C 1033.31 766.71 1029.29 763.20 1027.96 758.32 C 1026.17 756.41 1027.30 751.83 1024.33 750.80 C 1018.43 749.07 1010.85 748.91 1007.23 754.78 C 1001.47 751.83 996.23 747.98 991.75 743.31 C 992.81 727.83 993.10 712.31 993.43 696.81 C 993.99 689.19 991.71 679.06 999.18 674.16 C 1002.87 670.19 1008.55 670.11 1013.14 667.87 C 1020.01 662.44 1018.86 653.20 1020.69 645.62 C 1021.94 634.75 1027.15 624.93 1032.90 615.83 C 1037.99 608.85 1046.74 606.16 1053.42 601.06 C 1051.61 597.64 1049.72 594.28 1047.89 590.88 Z" />
</g>
<g id="#1f0f5fff">
<path fill="#1f0f5f" fill-opacity="0" d=" M 1116.18 632.63 C 1118.38 623.07 1123.36 614.47 1126.25 605.14 C 1135.86 608.47 1146.10 608.81 1156.13 609.88 C 1162.59 610.61 1169.07 611.22 1175.56 611.63 C 1179.46 611.71 1183.86 612.19 1186.47 615.46 C 1190.95 620.76 1198.48 620.62 1204.71 621.72 C 1231.72 625.25 1258.07 632.58 1285.16 635.64 C 1280.32 651.68 1274.62 667.44 1269.12 683.25 C 1262.83 699.02 1258.50 715.47 1252.27 731.26 C 1247.43 720.89 1247.07 709.33 1243.48 698.60 C 1241.28 690.54 1238.94 682.51 1235.99 674.69 C 1231.79 679.25 1228.04 684.35 1222.99 688.02 C 1220.67 689.97 1217.70 687.72 1216.56 685.54 C 1213.85 680.08 1212.05 674.24 1209.88 668.56 C 1202.32 669.86 1194.68 670.54 1187.05 671.18 C 1186.58 678.04 1185.76 684.92 1185.93 691.81 C 1187.07 697.35 1193.07 699.73 1197.06 702.87 C 1196.70 711.04 1195.84 719.19 1194.39 727.23 C 1191.24 728.25 1188.11 729.27 1185.01 730.31 C 1183.18 738.12 1181.28 746.01 1181.27 754.08 C 1180.33 757.68 1182.34 764.17 1177.74 766.11 C 1172.71 768.75 1164.75 769.03 1163.29 775.73 C 1159.77 790.02 1156.11 804.29 1152.57 818.58 C 1147.89 839.42 1141.40 859.86 1137.18 880.78 C 1132.65 877.81 1127.32 875.67 1124.43 870.77 C 1115.05 855.64 1104.39 840.60 1089.56 830.40 C 1088.40 828.85 1087.65 827.10 1086.96 825.33 C 1084.61 824.09 1082.28 822.87 1079.96 821.69 C 1083.03 808.53 1083.98 795.02 1086.53 781.77 C 1090.57 758.18 1093.83 734.47 1097.80 710.87 C 1100.66 695.72 1101.69 680.26 1104.45 665.13 C 1109.74 658.65 1116.05 652.88 1120.40 645.63 C 1119.87 641.05 1116.35 637.24 1116.18 632.63 Z" />
</g>
<g id="#9f8f1fff">
<path fill="#9f8f1f" fill-opacity="0" d=" M 1187.05 671.18 C 1194.68 670.54 1202.32 669.86 1209.88 668.56 C 1212.05 674.24 1213.85 680.08 1216.56 685.54 C 1217.70 687.72 1220.67 689.97 1222.99 688.02 C 1228.04 684.35 1231.79 679.25 1235.99 674.69 C 1238.94 682.51 1241.28 690.54 1243.48 698.60 C 1247.07 709.33 1247.43 720.89 1252.27 731.26 C 1255.29 736.08 1259.02 740.45 1261.93 745.37 C 1265.88 751.33 1261.54 758.16 1261.74 764.34 C 1265.12 768.15 1271.34 767.60 1276.01 769.07 C 1277.48 772.91 1279.14 776.71 1280.20 780.71 C 1281.25 786.28 1278.20 791.25 1276.33 796.23 C 1264.35 825.95 1252.19 855.60 1240.45 885.42 C 1237.30 891.92 1231.76 896.88 1227.74 902.83 C 1221.41 912.53 1209.78 915.97 1199.89 920.84 C 1193.92 923.36 1187.26 925.44 1183.22 930.88 C 1173.92 927.92 1165.95 922.16 1157.04 918.37 C 1151.27 905.44 1137.51 895.90 1137.18 880.78 C 1141.40 859.86 1147.89 839.42 1152.57 818.58 C 1156.11 804.29 1159.77 790.02 1163.29 775.73 C 1164.75 769.03 1172.71 768.75 1177.74 766.11 C 1182.34 764.17 1180.33 757.68 1181.27 754.08 C 1181.28 746.01 1183.18 738.12 1185.01 730.31 C 1188.11 729.27 1191.24 728.25 1194.39 727.23 C 1195.84 719.19 1196.70 711.04 1197.06 702.87 C 1193.07 699.73 1187.07 697.35 1185.93 691.81 C 1185.76 684.92 1186.58 678.04 1187.05 671.18 Z" />
</g>
</svg>
