<?xml version="1.0" encoding="UTF-8" ?>
<!DOCTYPE svg PUBLIC "-//W3C//DTD SVG 1.1//EN" "http://www.w3.org/Graphics/SVG/1.1/DTD/svg11.dtd">
<svg width="1920pt" height="1080pt" viewBox="0 0 1920 1080" version="1.1" xmlns="http://www.w3.org/2000/svg">
<g id="#4f6f7fff">
<path fill="#4f6f7f" fill-opacity="0" d=" M 784.89 206.27 C 789.38 214.24 794.34 222.37 795.50 231.64 C 797.58 244.36 800.22 256.98 802.47 269.67 C 804.41 277.60 800.27 285.53 802.40 293.43 C 806.12 313.15 811.40 333.25 808.68 353.47 C 808.36 360.85 805.74 368.07 800.61 373.47 C 799.07 358.77 794.48 344.62 791.96 330.10 C 790.34 322.01 794.12 314.50 796.32 306.97 C 782.14 311.66 767.41 306.61 753.07 306.06 C 754.00 310.17 755.75 314.48 754.50 318.73 C 753.32 322.83 752.97 327.16 753.65 331.39 C 755.10 337.40 754.42 343.56 753.87 349.62 C 747.39 352.02 740.33 348.48 734.06 351.91 C 731.24 350.15 728.44 348.43 725.57 346.79 C 725.88 339.59 727.54 332.53 727.51 325.31 C 727.20 319.74 733.26 317.04 735.10 312.28 C 737.63 304.57 739.16 296.55 741.94 288.91 C 745.82 279.99 739.39 270.77 738.05 261.92 C 746.20 260.29 753.51 255.27 762.07 255.81 C 763.99 253.82 766.23 252.18 768.52 250.63 C 769.28 251.80 770.07 252.97 770.85 254.14 C 772.09 249.02 773.87 243.64 772.75 238.33 C 770.95 229.65 768.86 221.03 766.99 212.36 C 770.48 213.21 774.20 214.06 777.71 212.75 C 781.01 211.83 782.71 208.63 784.89 206.27 M 771.12 255.53 C 768.82 258.96 775.05 256.31 771.12 255.53 M 763.12 259.53 C 760.82 262.96 767.05 260.31 763.12 259.53 Z" />
</g>
<g id="#4fef7fff">
<path fill="#4fef7f" fill-opacity="0" d=" M 753.07 306.06 C 767.41 306.61 782.14 311.66 796.32 306.97 C 794.12 314.50 790.34 322.01 791.96 330.10 C 794.48 344.62 799.07 358.77 800.61 373.47 C 800.02 379.78 798.10 386.17 800.47 392.41 C 807.11 417.66 809.03 443.80 814.28 469.31 C 810.31 468.78 806.22 469.15 802.50 470.66 C 796.88 473.01 790.76 473.53 784.79 474.33 C 786.24 468.30 789.71 462.60 788.95 456.19 C 786.30 453.03 782.69 450.88 779.50 448.34 C 781.64 442.71 785.04 436.70 783.27 430.51 C 781.05 422.47 779.02 414.32 775.20 406.85 C 771.07 399.97 772.99 391.59 770.03 384.36 C 768.39 380.84 764.74 378.96 761.88 376.61 C 760.00 378.51 758.07 380.37 756.24 382.32 C 753.19 371.71 752.66 360.54 753.87 349.62 C 754.42 343.56 755.10 337.40 753.65 331.39 C 752.97 327.16 753.32 322.83 754.50 318.73 C 755.75 314.48 754.00 310.17 753.07 306.06 Z" />
<path fill="#4fef7f" fill-opacity="0" d=" M 813.90 471.21 C 815.60 471.17 815.80 474.09 814.36 474.67 C 813.68 473.64 813.49 472.36 813.90 471.21 Z" />
</g>
<g id="#4faf3fff">
<path fill="#4faf3f" fill-opacity="0" d=" M 723.41 349.09 C 724.12 348.32 724.84 347.56 725.57 346.79 C 728.44 348.43 731.24 350.15 734.06 351.91 C 740.33 348.48 747.39 352.02 753.87 349.62 C 752.66 360.54 753.19 371.71 756.24 382.32 C 750.75 390.13 753.50 399.74 751.39 408.42 C 750.11 414.10 742.92 415.86 741.76 421.58 C 740.25 430.43 743.84 438.97 747.79 446.66 C 744.78 452.72 739.74 458.53 732.92 460.13 C 734.19 450.81 733.51 441.60 730.75 432.64 C 731.38 423.40 735.32 414.67 738.58 406.08 C 738.69 404.72 738.21 403.39 737.91 402.09 C 732.38 384.64 726.12 367.27 723.41 349.09 Z" />
</g>
<g id="#8fef7fff">
<path fill="#8fef7f" fill-opacity="0" d=" M 761.88 376.61 C 764.74 378.96 768.39 380.84 770.03 384.36 C 772.99 391.59 771.07 399.97 775.20 406.85 C 779.02 414.32 781.05 422.47 783.27 430.51 C 785.04 436.70 781.64 442.71 779.50 448.34 C 777.06 450.15 774.42 452.35 771.26 452.44 C 763.35 450.72 756.21 445.82 747.79 446.66 C 743.84 438.97 740.25 430.43 741.76 421.58 C 742.92 415.86 750.11 414.10 751.39 408.42 C 753.50 399.74 750.75 390.13 756.24 382.32 C 758.07 380.37 760.00 378.51 761.88 376.61 Z" />
</g>
<g id="#0faf3ffe">
<path fill="#0faf3f" fill-opacity="0" d=" M 1315.87 401.94 C 1317.77 401.93 1321.57 401.91 1323.47 401.90 C 1324.30 405.23 1325.27 408.93 1323.08 412.02 C 1313.14 431.89 1302.38 451.35 1292.05 471.03 C 1288.44 477.60 1286.12 485.08 1280.91 490.64 C 1285.30 477.62 1292.81 465.98 1298.65 453.61 C 1296.71 452.09 1294.81 450.53 1292.95 448.92 C 1300.25 433.10 1308.13 417.55 1315.87 401.94 Z" />
<path fill="#0faf3f" fill-opacity="0" d=" M 1128.94 722.55 C 1134.84 715.29 1135.05 704.04 1143.31 698.50 C 1143.21 700.68 1142.73 702.83 1141.91 704.86 C 1137.99 714.69 1133.30 724.19 1128.80 733.77 C 1127.52 733.21 1126.26 732.66 1125.01 732.11 C 1122.89 736.92 1121.36 742.08 1118.31 746.41 C 1115.03 750.10 1111.18 753.23 1107.84 756.85 C 1101.84 762.63 1099.08 771.21 1091.65 775.58 C 1082.27 781.78 1075.99 793.37 1063.59 794.04 C 1066.78 779.21 1072.91 765.14 1082.16 753.11 C 1084.73 749.73 1090.46 750.61 1092.10 746.25 C 1095.59 737.51 1104.34 733.04 1110.47 726.46 C 1115.46 721.76 1122.91 724.26 1128.94 722.55 Z" />
</g>
<g id="#10af3fff">
<path fill="#10af3f" fill-opacity="0" d=" M 1349.75 408.81 C 1352.58 406.62 1355.35 404.32 1358.80 403.10 C 1360.32 405.75 1361.32 409.02 1359.99 411.97 C 1354.78 426.17 1346.26 438.82 1339.04 452.02 C 1337.36 455.21 1335.23 458.15 1332.65 460.66 C 1325.71 467.56 1322.83 477.26 1316.82 484.83 C 1314.02 488.18 1309.26 488.50 1305.93 491.09 C 1302.17 496.54 1307.21 503.43 1303.89 508.91 C 1294.63 525.32 1285.80 541.99 1275.82 557.98 C 1274.26 557.81 1272.72 557.65 1271.19 557.47 C 1266.30 566.12 1262.23 575.96 1253.76 581.82 C 1254.70 574.88 1258.76 569.03 1261.89 562.96 C 1267.82 551.43 1274.91 540.39 1279.23 528.09 C 1282.48 518.19 1289.00 509.78 1292.49 499.99 C 1293.80 494.31 1291.63 488.60 1290.50 483.08 C 1292.36 477.01 1296.38 471.77 1298.99 465.99 C 1303.22 458.47 1305.99 450.06 1311.08 443.04 C 1315.08 439.80 1320.24 438.28 1324.37 435.19 C 1330.92 428.32 1332.88 418.39 1339.49 411.50 C 1342.75 410.00 1346.81 411.17 1349.75 408.81 Z" />
<path fill="#10af3f" fill-opacity="0" d=" M 924.51 902.44 C 928.91 899.37 934.14 897.74 939.06 895.67 C 942.77 901.21 944.08 908.16 942.73 914.72 C 939.92 918.68 935.64 921.44 931.16 923.20 C 929.25 924.26 927.49 921.97 926.56 920.54 C 925.27 914.64 923.55 908.52 924.51 902.44 Z" />
</g>
<g id="#cf6f00ff">
<path fill="#cf6f00" fill-opacity="0" d=" M 747.79 446.66 C 756.21 445.82 763.35 450.72 771.26 452.44 C 774.42 452.35 777.06 450.15 779.50 448.34 C 782.69 450.88 786.30 453.03 788.95 456.19 C 789.71 462.60 786.24 468.30 784.79 474.33 C 790.76 473.53 796.88 473.01 802.50 470.66 C 806.22 469.15 810.31 468.78 814.28 469.31 L 813.90 471.21 C 813.49 472.36 813.68 473.64 814.36 474.67 C 814.57 475.09 814.99 475.93 815.19 476.35 C 807.82 480.47 800.65 485.27 792.24 487.01 C 784.67 489.94 778.12 495.61 769.70 496.26 C 770.53 498.39 771.26 500.57 771.87 502.78 C 765.88 503.02 760.06 504.53 754.11 504.97 C 750.01 505.04 746.66 502.36 743.42 500.22 C 743.69 491.43 739.43 480.80 729.75 479.39 C 729.30 472.82 730.51 466.23 732.92 460.13 C 739.74 458.53 744.78 452.72 747.79 446.66 Z" />
</g>
<g id="#0faf3fff">
<path fill="#0faf3f" fill-opacity="0" d=" M 1282.12 472.77 C 1283.51 473.18 1284.90 473.60 1286.32 474.02 C 1279.37 489.30 1272.21 504.52 1263.88 519.10 C 1262.92 518.34 1261.96 517.58 1261.03 516.84 C 1266.95 501.66 1275.05 487.43 1282.12 472.77 Z" />
<path fill="#0faf3f" fill-opacity="0" d=" M 1237.98 548.99 C 1241.65 541.84 1244.77 534.36 1249.27 527.67 C 1247.59 535.31 1243.36 542.03 1240.09 549.05 C 1236.82 555.25 1234.13 561.81 1230.11 567.59 C 1231.57 560.95 1235.11 555.07 1237.98 548.99 Z" />
<path fill="#0faf3f" fill-opacity="0" d=" M 1268.14 528.75 C 1269.88 529.13 1271.64 529.54 1273.41 529.96 C 1266.74 543.13 1260.02 556.28 1252.85 569.19 C 1251.18 568.85 1249.52 568.53 1247.88 568.19 C 1254.45 554.95 1261.52 541.97 1268.14 528.75 Z" />
<path fill="#0faf3f" fill-opacity="0" d=" M 1225.28 610.71 C 1230.86 598.17 1236.58 585.41 1244.68 574.27 C 1241.26 582.40 1237.02 590.15 1233.13 598.06 C 1230.82 602.45 1228.82 607.13 1225.28 610.71 Z" />
<path fill="#0faf3f" fill-opacity="0" d=" M 1241.53 586.52 C 1243.82 587.51 1246.06 588.64 1248.26 589.85 C 1245.94 594.64 1243.32 599.27 1241.07 604.09 C 1238.93 608.56 1239.85 613.90 1237.27 618.24 C 1229.03 632.70 1221.95 647.93 1211.75 661.18 C 1213.58 655.55 1216.89 650.50 1218.26 644.70 C 1209.75 654.33 1207.54 668.27 1197.60 676.73 C 1191.98 683.31 1188.95 691.70 1183.22 698.19 C 1179.82 702.45 1175.45 705.76 1171.93 709.90 C 1171.06 709.98 1169.30 710.14 1168.42 710.22 C 1167.62 707.18 1167.20 703.86 1169.15 701.11 C 1173.15 693.47 1176.41 685.36 1180.98 678.07 C 1190.00 674.19 1196.26 666.20 1200.87 657.79 C 1205.18 651.70 1209.49 645.59 1212.66 638.81 C 1214.82 639.46 1217.26 640.45 1219.35 641.52 C 1221.98 636.69 1224.41 631.76 1226.62 626.73 C 1225.17 623.75 1223.67 619.94 1225.87 616.94 C 1230.78 606.64 1236.68 596.85 1241.53 586.52 Z" />
<path fill="#0faf3f" fill-opacity="0" d=" M 1133.00 685.87 C 1133.48 686.18 1134.42 686.80 1134.89 687.11 C 1130.53 696.87 1127.87 707.52 1121.99 716.56 C 1123.56 705.71 1129.18 696.02 1133.00 685.87 Z" />
<path fill="#0faf3f" fill-opacity="0" d=" M 1035.35 773.31 C 1038.86 771.53 1045.70 772.79 1044.87 777.84 C 1043.50 788.50 1042.11 799.66 1037.41 809.44 C 1032.83 811.29 1027.43 810.27 1023.28 813.29 C 1015.41 817.87 1006.27 821.05 1000.34 828.29 C 996.91 832.25 992.85 837.06 987.06 836.81 C 984.80 836.18 983.19 834.29 981.35 832.94 C 980.52 842.39 972.55 847.57 965.99 853.02 C 962.16 855.81 961.24 861.60 956.49 863.19 C 949.73 864.23 947.03 871.22 941.25 873.93 C 940.46 868.35 939.85 862.72 939.56 857.11 C 939.17 851.36 942.64 846.33 944.38 841.08 C 945.07 842.21 945.77 843.36 946.46 844.53 C 946.64 842.86 947.00 839.52 947.19 837.85 C 948.69 838.59 950.19 839.36 951.70 840.13 C 951.92 835.35 952.15 830.64 952.58 825.90 C 954.66 826.51 956.75 827.16 958.86 827.76 C 962.41 822.50 968.23 819.35 971.90 814.18 C 972.74 811.13 972.98 808.03 973.45 804.94 C 975.95 806.03 978.44 807.13 980.96 808.21 C 982.91 803.69 985.90 799.85 989.43 796.47 C 991.13 791.15 990.45 784.15 996.17 781.02 C 997.68 785.46 999.29 789.98 1000.93 794.42 C 1005.73 793.72 1011.08 794.76 1015.63 792.59 C 1023.56 787.58 1026.20 776.84 1035.35 773.31 Z" />
<path fill="#0faf3f" fill-opacity="0" d=" M 900.37 848.25 C 903.93 850.41 906.78 853.61 910.52 855.50 C 914.99 856.03 919.57 855.49 924.01 854.69 C 924.53 861.13 926.50 867.72 925.26 874.18 C 924.71 877.32 921.08 877.40 918.64 878.11 C 914.85 883.04 909.04 883.98 903.31 884.49 C 900.31 888.06 896.71 891.06 893.48 894.40 C 890.63 898.05 888.74 902.36 885.82 905.97 C 883.25 908.85 878.76 909.19 876.48 912.39 C 874.80 916.65 874.67 921.35 873.89 925.84 C 871.30 922.84 867.56 920.85 865.71 917.25 C 862.94 911.78 860.16 905.66 860.61 899.39 C 864.40 892.24 873.06 889.50 877.76 883.10 C 880.95 877.36 884.88 872.08 889.01 866.99 C 893.55 861.22 896.74 854.59 900.37 848.25 Z" />
<path fill="#0faf3f" fill-opacity="0" d=" M 906.90 915.20 C 907.85 914.86 908.82 914.53 909.80 914.21 C 910.26 914.49 911.20 915.04 911.67 915.32 C 912.59 920.08 913.65 924.86 914.65 929.64 C 913.14 929.38 911.63 929.12 910.15 928.88 C 909.03 924.29 907.97 919.77 906.90 915.20 Z" />
</g>
<g id="#4fee00ff">
<path fill="#4fee00" fill-opacity="0" d=" M 792.24 487.01 C 800.65 485.27 807.82 480.47 815.19 476.35 C 819.40 490.92 823.63 505.51 826.48 520.43 C 827.72 525.40 828.00 531.23 832.04 534.94 C 835.40 538.98 841.19 541.62 841.42 547.58 C 844.80 562.64 847.51 577.83 849.76 593.10 C 848.61 593.02 847.48 592.95 846.35 592.87 C 845.02 587.58 844.60 581.94 841.76 577.17 C 838.92 572.19 833.84 569.14 830.56 564.51 C 827.59 560.54 824.91 555.77 819.92 554.11 C 808.51 550.23 795.08 547.90 783.97 553.96 C 779.37 556.00 775.10 559.66 773.65 564.63 C 772.83 568.34 773.65 572.14 773.83 575.90 C 773.27 576.21 772.14 576.84 771.57 577.16 C 768.63 565.41 764.38 553.98 759.64 542.84 C 755.74 542.49 751.03 543.18 748.07 540.06 C 745.75 536.92 744.55 533.13 743.08 529.56 C 742.21 526.15 742.22 522.57 742.94 519.14 C 744.09 512.88 743.54 506.53 743.42 500.22 C 746.66 502.36 750.01 505.04 754.11 504.97 C 760.06 504.53 765.88 503.02 771.87 502.78 C 771.26 500.57 770.53 498.39 769.70 496.26 C 778.12 495.61 784.67 489.94 792.24 487.01 Z" />
</g>
<g id="#8f6f7fff">
<path fill="#8f6f7f" fill-opacity="0" d=" M 729.75 479.39 C 739.43 480.80 743.69 491.43 743.42 500.22 C 743.54 506.53 744.09 512.88 742.94 519.14 C 742.22 522.57 742.21 526.15 743.08 529.56 C 740.60 534.11 737.49 538.53 736.67 543.76 C 736.12 547.88 736.97 552.01 737.42 556.10 C 733.94 554.65 730.47 553.15 726.94 551.85 C 723.25 550.46 719.26 551.28 715.43 551.30 C 714.53 554.38 713.51 557.46 712.66 560.57 C 709.49 555.54 705.54 548.10 709.66 542.60 C 716.17 535.92 718.31 526.68 720.67 517.99 C 722.57 504.84 729.01 492.79 729.75 479.39 M 721.40 528.15 C 720.96 529.54 721.44 530.02 722.85 529.60 C 723.28 528.19 722.80 527.71 721.40 528.15 Z" />
</g>
<g id="#10ef7fff">
<path fill="#10ef7f" fill-opacity="0" d=" M 721.40 528.15 C 722.80 527.71 723.28 528.19 722.85 529.60 C 721.44 530.02 720.96 529.54 721.40 528.15 Z" />
</g>
<g id="#8f2f3fff">
<path fill="#8f2f3f" fill-opacity="0" d=" M 736.67 543.76 C 737.49 538.53 740.60 534.11 743.08 529.56 C 744.55 533.13 745.75 536.92 748.07 540.06 C 751.03 543.18 755.74 542.49 759.64 542.84 C 764.38 553.98 768.63 565.41 771.57 577.16 C 770.12 582.60 765.59 587.08 763.46 592.39 C 757.82 606.02 752.34 619.72 747.10 633.50 C 742.68 620.85 737.18 608.51 731.10 596.55 C 735.15 589.64 731.43 581.39 734.25 574.19 C 736.44 568.44 738.01 562.29 737.42 556.10 C 736.97 552.01 736.12 547.88 736.67 543.76 Z" />
</g>
<g id="#4f6f00ff">
<path fill="#4f6f00" fill-opacity="0" d=" M 715.43 551.30 C 719.26 551.28 723.25 550.46 726.94 551.85 C 730.47 553.15 733.94 554.65 737.42 556.10 C 738.01 562.29 736.44 568.44 734.25 574.19 C 731.43 581.39 735.15 589.64 731.10 596.55 C 728.64 600.76 726.11 605.32 726.87 610.40 C 727.65 615.25 726.50 620.18 723.34 623.99 C 719.60 626.78 715.85 629.61 711.66 631.71 C 709.77 627.98 707.56 624.43 705.04 621.10 C 708.16 614.95 711.06 608.65 714.99 602.95 C 719.89 596.47 717.68 587.46 718.10 579.96 C 718.80 572.88 713.39 567.28 712.66 560.57 C 713.51 557.46 714.53 554.38 715.43 551.30 Z" />
</g>
<g id="#8fafbfff">
<path fill="#8fafbf" fill-opacity="0" d=" M 726.87 610.40 C 726.11 605.32 728.64 600.76 731.10 596.55 C 737.18 608.51 742.68 620.85 747.10 633.50 C 747.70 636.29 747.78 639.23 749.09 641.82 C 755.26 654.65 761.29 667.59 765.95 681.05 C 758.14 673.83 759.30 660.31 750.06 654.56 C 741.95 650.18 732.60 650.73 723.85 648.84 C 721.95 645.49 719.83 641.84 720.28 637.84 C 720.86 633.14 722.03 628.52 723.34 623.99 C 726.50 620.18 727.65 615.25 726.87 610.40 M 746.24 642.06 C 744.47 642.44 745.15 645.33 746.92 644.78 C 748.68 644.39 748.02 641.44 746.24 642.06 Z" />
</g>
<g id="#8f30bfff">
<path fill="#8f30bf" fill-opacity="0" d=" M 702.92 641.80 C 702.87 634.84 702.76 627.78 705.04 621.10 C 707.56 624.43 709.77 627.98 711.66 631.71 C 715.85 629.61 719.60 626.78 723.34 623.99 C 722.03 628.52 720.86 633.14 720.28 637.84 C 719.83 641.84 721.95 645.49 723.85 648.84 C 723.51 656.53 723.71 664.73 719.85 671.60 C 716.05 672.71 711.87 672.13 708.28 674.06 C 704.66 675.67 700.77 676.47 696.84 676.70 C 699.45 671.58 702.36 666.53 703.93 660.97 C 705.53 654.57 703.27 648.18 702.92 641.80 Z" />
</g>
<g id="#4f2f3fff">
<path fill="#4f2f3f" fill-opacity="0" d=" M 746.24 642.06 C 748.02 641.44 748.68 644.39 746.92 644.78 C 745.15 645.33 744.47 642.44 746.24 642.06 Z" />
</g>
<g id="#cf2f3fff">
<path fill="#cf2f3f" fill-opacity="0" d=" M 723.85 648.84 C 732.60 650.73 741.95 650.18 750.06 654.56 C 747.84 661.00 746.30 667.65 744.57 674.23 C 742.81 680.60 736.72 685.07 736.34 691.87 C 738.12 699.27 742.82 705.55 746.07 712.37 C 742.19 714.47 737.17 715.72 735.22 720.12 C 731.61 726.74 728.36 733.60 725.69 740.66 C 723.26 747.29 722.57 755.19 717.04 760.22 C 712.53 752.69 706.87 745.92 702.61 738.26 C 698.26 728.49 700.43 717.39 703.36 707.52 C 704.94 701.83 704.18 695.97 703.48 690.24 C 702.76 684.41 705.46 678.96 708.28 674.06 C 711.87 672.13 716.05 672.71 719.85 671.60 C 723.71 664.73 723.51 656.53 723.85 648.84 Z" />
</g>
<g id="#8faf3ffe">
<path fill="#8faf3f" fill-opacity="0" d=" M 750.06 654.56 C 759.30 660.31 758.14 673.83 765.95 681.05 C 766.61 681.69 767.30 682.32 768.01 682.93 C 769.22 681.10 770.43 679.28 771.68 677.48 C 775.42 685.51 778.69 693.74 782.21 701.87 C 787.24 713.28 783.70 726.33 788.55 737.84 C 783.21 744.80 780.91 753.29 777.63 761.25 C 773.50 752.77 768.53 744.64 765.44 735.70 C 764.85 731.33 765.80 727.04 766.58 722.78 C 761.16 721.67 755.78 720.40 750.23 720.45 C 748.84 717.74 747.47 715.04 746.07 712.37 C 742.82 705.55 738.12 699.27 736.34 691.87 C 736.72 685.07 742.81 680.60 744.57 674.23 C 746.30 667.65 747.84 661.00 750.06 654.56 Z" />
</g>
<g id="#ceee7fff">
<path fill="#ceee7f" fill-opacity="0" d=" M 696.84 676.70 C 700.77 676.47 704.66 675.67 708.28 674.06 C 705.46 678.96 702.76 684.41 703.48 690.24 C 704.18 695.97 704.94 701.83 703.36 707.52 C 700.43 717.39 698.26 728.49 702.61 738.26 C 706.87 745.92 712.53 752.69 717.04 760.22 C 715.68 762.19 714.46 764.27 713.21 766.32 C 706.19 756.40 699.25 746.41 692.79 736.12 C 688.71 730.44 691.33 723.12 690.65 716.65 C 690.76 707.00 686.91 696.64 691.51 687.59 C 693.12 683.88 694.94 680.27 696.84 676.70 Z" />
</g>
<g id="#cfef7fff">
<path fill="#cfef7f" fill-opacity="0" d=" M 657.01 712.18 C 662.29 717.27 666.37 723.43 670.70 729.32 C 673.74 733.76 677.45 738.08 678.31 743.58 C 671.04 737.06 665.45 728.99 659.93 721.02 C 658.08 718.51 657.44 715.11 657.01 712.18 Z" />
</g>
<g id="#10ae3fff">
<path fill="#10ae3f" fill-opacity="0" d=" M 895.04 922.75 C 897.67 922.45 900.34 922.19 903.01 921.89 C 904.14 927.13 907.32 932.40 905.79 937.84 C 905.29 939.89 904.76 941.94 904.32 944.01 C 903.24 942.29 902.17 940.56 901.09 938.86 C 901.26 940.23 901.47 941.63 901.69 943.02 C 900.60 943.60 899.53 944.18 898.47 944.78 C 897.69 943.77 896.93 942.79 896.16 941.81 C 896.49 943.87 896.83 945.94 897.16 948.01 C 895.02 945.72 892.72 943.60 890.42 941.49 C 886.50 938.00 886.38 932.19 884.73 927.60 C 891.39 928.83 892.64 936.44 895.82 941.32 C 895.01 937.92 894.06 934.57 893.09 931.24 C 894.38 930.39 895.67 929.55 896.98 928.73 C 896.34 926.73 895.68 924.73 895.04 922.75 Z" />
</g>
</svg>
