<?xml version="1.0" encoding="UTF-8" ?>
<!DOCTYPE svg PUBLIC "-//W3C//DTD SVG 1.1//EN" "http://www.w3.org/Graphics/SVG/1.1/DTD/svg11.dtd">
<svg width="1920pt" height="1080pt" viewBox="0 0 1920 1080" version="1.1" xmlns="http://www.w3.org/2000/svg">
<g id="#1fbf00ff">
<path fill="#1fbf00" opacity="1.00" d=" M 901.67 215.60 C 905.13 213.20 908.89 216.55 912.43 217.14 C 918.89 218.49 925.69 219.49 930.80 224.11 C 932.01 228.54 929.50 236.51 935.37 238.47 C 943.52 239.67 951.24 235.79 959.29 235.49 C 969.68 235.77 979.71 238.93 990.07 239.67 C 998.29 240.27 1006.62 242.61 1013.20 247.77 C 1019.80 253.21 1028.32 255.07 1035.65 259.22 C 1045.08 264.44 1055.50 267.56 1064.85 272.95 C 1072.56 277.11 1080.09 281.70 1088.48 284.39 C 1096.92 287.54 1103.16 294.44 1108.74 301.25 C 1112.14 306.30 1110.29 312.69 1109.59 318.26 C 1108.26 325.80 1112.43 332.75 1115.97 339.05 C 1119.98 346.46 1125.10 353.15 1130.27 359.77 C 1124.49 361.68 1118.19 363.97 1112.15 361.69 C 1102.68 357.92 1092.34 357.55 1082.25 357.53 C 1074.67 357.47 1067.39 354.89 1059.92 353.97 C 1058.84 354.00 1057.19 353.42 1056.69 354.74 C 1052.16 363.12 1050.86 373.12 1044.50 380.52 C 1040.57 383.51 1035.17 381.70 1030.95 383.87 C 1029.09 385.65 1028.48 388.30 1027.22 390.48 C 1025.59 393.90 1022.65 396.38 1019.83 398.79 C 1015.34 393.14 1010.17 386.20 1002.39 385.41 C 994.12 384.80 985.87 383.19 977.57 383.59 C 970.37 384.09 969.53 393.04 964.15 396.34 C 956.96 397.92 950.15 393.60 943.30 391.90 C 944.22 386.07 945.25 380.12 944.65 374.21 C 943.40 370.28 939.22 368.25 936.61 365.40 C 939.42 356.23 942.29 347.07 945.66 338.08 C 930.38 334.73 914.94 332.25 899.66 328.92 C 897.46 335.60 894.82 342.13 892.83 348.89 L 892.61 349.59 C 890.32 326.50 889.96 303.27 888.64 280.11 C 888.05 273.24 896.13 269.24 895.72 262.38 C 895.49 252.89 894.17 243.45 894.26 233.95 C 893.25 227.10 895.91 219.60 901.67 215.60 Z" />
</g>
<g id="#7fbfbfff">
<path fill="#7fbfbf" opacity="1.00" d=" M 899.66 328.92 C 914.94 332.25 930.38 334.73 945.66 338.08 C 942.29 347.07 939.42 356.23 936.61 365.40 C 939.22 368.25 943.40 370.28 944.65 374.21 C 945.25 380.12 944.22 386.07 943.30 391.90 C 942.58 395.74 941.64 399.53 940.96 403.38 C 936.65 403.60 932.28 405.08 928.00 403.86 C 923.17 402.52 918.51 400.25 913.39 400.27 C 910.91 401.28 909.43 403.77 907.08 404.99 C 903.93 405.99 900.74 406.80 897.51 407.43 C 895.69 401.25 893.65 395.17 891.72 389.04 C 887.32 388.70 882.94 388.33 878.54 388.08 C 876.16 372.77 889.96 362.86 892.83 348.89 C 894.82 342.13 897.46 335.60 899.66 328.92 Z" />
</g>
<g id="#9f3f7fff">
<path fill="#9f3f7f" opacity="1.00" d=" M 1056.69 354.74 C 1057.19 353.42 1058.84 354.00 1059.92 353.97 C 1067.39 354.89 1074.67 357.47 1082.25 357.53 C 1092.34 357.55 1102.68 357.92 1112.15 361.69 C 1118.19 363.97 1124.49 361.68 1130.27 359.77 C 1134.69 364.35 1140.18 368.58 1142.16 374.93 C 1144.24 379.53 1143.63 384.65 1143.22 389.52 C 1151.99 391.47 1160.95 393.12 1169.12 397.02 C 1174.58 399.72 1176.11 406.21 1177.75 411.51 C 1179.74 418.20 1183.29 424.60 1183.51 431.72 C 1183.58 441.07 1185.19 450.37 1187.57 459.39 C 1190.14 468.14 1198.31 472.88 1205.65 477.19 C 1202.60 489.19 1196.38 499.93 1190.85 510.88 C 1190.03 512.25 1189.23 513.71 1187.96 514.71 C 1178.65 517.17 1168.96 515.51 1159.51 516.83 C 1156.64 524.33 1148.80 526.74 1141.94 529.27 C 1135.54 525.50 1128.38 523.08 1122.59 518.29 C 1118.99 515.74 1115.40 512.51 1110.70 512.61 C 1105.13 512.62 1100.20 509.93 1095.61 507.05 C 1094.38 503.21 1092.59 499.20 1089.10 496.93 C 1080.84 493.40 1071.42 496.65 1063.08 493.79 C 1053.44 488.23 1052.32 476.25 1051.76 466.26 C 1051.47 458.97 1047.67 452.51 1046.58 445.39 C 1045.67 440.91 1045.64 436.24 1044.06 431.92 C 1039.34 418.70 1027.89 409.85 1019.83 398.79 C 1022.65 396.38 1025.59 393.90 1027.22 390.48 C 1028.48 388.30 1029.09 385.65 1030.95 383.87 C 1035.17 381.70 1040.57 383.51 1044.50 380.52 C 1050.86 373.12 1052.16 363.12 1056.69 354.74 Z" />
</g>
<g id="#3f3f3fff">
<path fill="#3f3f3f" opacity="1.00" d=" M 977.57 383.59 C 985.87 383.19 994.12 384.80 1002.39 385.41 C 1010.17 386.20 1015.34 393.14 1019.83 398.79 C 1027.89 409.85 1039.34 418.70 1044.06 431.92 C 1045.64 436.24 1045.67 440.91 1046.58 445.39 C 1047.67 452.51 1051.47 458.97 1051.76 466.26 C 1052.32 476.25 1053.44 488.23 1063.08 493.79 C 1071.42 496.65 1080.84 493.40 1089.10 496.93 C 1092.59 499.20 1094.38 503.21 1095.61 507.05 C 1097.72 516.02 1104.02 524.20 1102.54 533.81 C 1101.63 537.89 1097.95 540.75 1097.16 544.86 C 1097.82 551.62 1105.79 554.09 1107.61 560.30 C 1107.47 562.93 1105.32 564.99 1104.06 567.20 C 1094.25 563.10 1084.66 558.49 1075.05 553.97 C 1069.72 551.98 1069.36 545.61 1068.11 540.88 C 1061.73 542.65 1055.51 545.62 1048.78 545.56 C 1042.93 545.19 1037.13 544.28 1031.30 543.77 C 1027.13 537.50 1022.27 530.90 1021.90 523.08 C 1021.81 519.26 1023.07 515.62 1024.47 512.14 C 1013.68 512.38 1003.88 517.86 993.10 518.42 C 993.14 512.99 994.82 507.34 993.01 502.06 C 988.15 498.10 981.42 501.03 975.96 498.95 C 970.13 495.33 967.39 487.91 960.51 485.82 C 957.45 483.94 952.25 483.22 951.83 478.72 C 950.60 475.52 950.77 471.87 949.09 468.86 C 946.94 466.91 944.32 465.57 941.81 464.18 C 942.08 461.40 942.51 458.70 942.85 455.96 C 946.51 456.54 950.16 457.15 953.80 457.89 C 953.34 460.48 952.88 463.07 952.43 465.67 C 957.77 466.29 963.53 467.63 968.68 465.20 C 972.39 463.19 975.84 460.70 979.42 458.46 C 977.54 454.51 975.90 450.45 974.42 446.34 C 968.91 445.82 963.41 444.21 957.85 444.50 C 956.95 446.26 955.15 449.76 954.25 451.51 C 950.66 451.06 947.16 450.60 943.60 450.12 C 944.87 442.98 951.82 439.07 955.67 433.48 C 957.01 429.24 952.72 426.04 951.86 422.17 C 951.79 418.50 952.24 414.88 952.70 411.25 C 950.85 411.31 949.00 411.34 947.17 411.43 C 946.77 408.79 946.40 406.15 946.03 403.52 C 944.33 403.44 942.64 403.37 940.96 403.38 C 941.64 399.53 942.58 395.74 943.30 391.90 C 950.15 393.60 956.96 397.92 964.15 396.34 C 969.53 393.04 970.37 384.09 977.57 383.59 Z" />
</g>
<g id="#5f007fff">
<path fill="#5f007f" opacity="1.00" d=" M 868.30 415.33 C 871.98 406.35 875.37 397.25 878.54 388.08 C 882.94 388.33 887.32 388.70 891.72 389.04 C 893.65 395.17 895.69 401.25 897.51 407.43 C 900.74 406.80 903.93 405.99 907.08 404.99 C 909.43 403.77 910.91 401.28 913.39 400.27 C 918.51 400.25 923.17 402.52 928.00 403.86 C 932.28 405.08 936.65 403.60 940.96 403.38 C 942.64 403.37 944.33 403.44 946.03 403.52 C 946.40 406.15 946.77 408.79 947.17 411.43 C 944.13 412.28 937.49 410.49 937.05 415.35 C 936.29 426.25 935.90 438.06 929.17 447.21 C 925.73 450.91 921.65 453.96 918.33 457.77 C 914.80 457.79 911.19 458.40 907.73 457.57 C 900.65 454.31 896.12 447.72 890.60 442.51 C 888.16 445.07 885.55 447.68 884.38 451.10 C 883.09 454.22 882.78 457.79 880.80 460.60 C 878.83 462.76 876.07 463.95 873.64 465.48 C 873.85 467.71 874.12 469.99 874.38 472.26 C 865.64 480.00 859.42 491.19 858.32 502.77 C 859.78 515.94 860.29 529.24 862.74 542.28 C 862.81 542.73 862.97 543.63 863.04 544.08 C 858.30 543.63 852.96 543.77 848.86 540.92 C 843.14 535.58 839.77 528.08 833.42 523.39 C 830.91 521.67 830.99 518.37 830.55 515.69 C 829.38 502.12 827.33 488.64 825.67 475.13 C 824.92 469.99 827.74 465.33 829.72 460.80 C 832.35 455.33 833.74 449.23 837.24 444.19 C 843.03 437.09 848.69 429.58 856.64 424.74 C 860.64 421.89 866.41 420.39 868.30 415.33 Z" />
</g>
<g id="#5f7f00ff">
<path fill="#5f7f00" opacity="1.00" d=" M 947.17 411.43 C 949.00 411.34 950.85 411.31 952.70 411.25 C 952.24 414.88 951.79 418.50 951.86 422.17 C 952.72 426.04 957.01 429.24 955.67 433.48 C 951.82 439.07 944.87 442.98 943.60 450.12 C 943.27 452.05 943.08 454.01 942.85 455.96 C 942.51 458.70 942.08 461.40 941.81 464.18 C 933.73 463.27 925.02 463.10 918.33 457.77 C 921.65 453.96 925.73 450.91 929.17 447.21 C 935.90 438.06 936.29 426.25 937.05 415.35 C 937.49 410.49 944.13 412.28 947.17 411.43 Z" />
</g>
<g id="#9f0000fe">
<path fill="#9f0000" opacity="1.00" d=" M 884.38 451.10 C 885.55 447.68 888.16 445.07 890.60 442.51 C 896.12 447.72 900.65 454.31 907.73 457.57 C 911.19 458.40 914.80 457.79 918.33 457.77 C 925.02 463.10 933.73 463.27 941.81 464.18 C 944.32 465.57 946.94 466.91 949.09 468.86 C 950.77 471.87 950.60 475.52 951.83 478.72 C 952.25 483.22 957.45 483.94 960.51 485.82 C 967.39 487.91 970.13 495.33 975.96 498.95 C 981.42 501.03 988.15 498.10 993.01 502.06 C 994.82 507.34 993.14 512.99 993.10 518.42 C 991.18 519.96 989.41 521.70 987.36 523.04 C 983.11 524.38 978.47 523.02 974.24 524.45 C 971.19 525.61 968.30 527.06 965.41 528.55 C 959.93 531.60 953.50 532.45 948.24 535.97 C 947.41 535.60 946.59 535.23 945.78 534.87 C 939.66 541.79 929.60 540.59 921.16 541.44 C 919.71 533.62 916.48 526.28 914.99 518.47 C 907.08 518.03 900.68 522.20 894.21 525.95 C 887.20 528.76 879.18 531.66 871.70 528.78 C 868.70 533.27 865.68 537.75 862.74 542.28 C 860.29 529.24 859.78 515.94 858.32 502.77 C 859.42 491.19 865.64 480.00 874.38 472.26 C 874.12 469.99 873.85 467.71 873.64 465.48 C 876.07 463.95 878.83 462.76 880.80 460.60 C 882.78 457.79 883.09 454.22 884.38 451.10 Z" />
</g>
<g id="#bf3f3fff">
<path fill="#bf3f3f" opacity="1.00" d=" M 957.85 444.50 C 963.41 444.21 968.91 445.82 974.42 446.34 C 975.90 450.45 977.54 454.51 979.42 458.46 C 975.84 460.70 972.39 463.19 968.68 465.20 C 963.53 467.63 957.77 466.29 952.43 465.67 C 952.88 463.07 953.34 460.48 953.80 457.89 C 950.16 457.15 946.51 456.54 942.85 455.96 C 943.08 454.01 943.27 452.05 943.60 450.12 C 947.16 450.60 950.66 451.06 954.25 451.51 C 955.15 449.76 956.95 446.26 957.85 444.50 Z" />
</g>
<g id="#7f3f3ffe">
<path fill="#7f3f3f" opacity="1.00" d=" M 1205.65 477.19 C 1214.32 478.68 1223.10 478.56 1231.86 478.46 C 1239.38 479.70 1246.35 483.46 1254.05 484.01 C 1260.93 485.22 1267.89 484.26 1274.82 484.01 C 1276.41 486.96 1277.32 490.48 1279.67 492.97 C 1282.23 493.85 1285.13 493.22 1287.70 494.25 C 1289.76 496.11 1290.44 498.94 1291.57 501.39 C 1293.74 507.53 1298.32 512.45 1300.47 518.60 C 1302.50 524.45 1305.98 529.58 1309.14 534.86 C 1312.08 539.69 1314.94 544.95 1319.70 548.29 C 1325.03 552.27 1330.07 556.80 1336.12 559.70 C 1328.34 562.23 1320.51 565.43 1312.14 564.33 C 1310.93 566.04 1309.80 567.81 1308.60 569.52 C 1304.38 570.54 1298.93 569.87 1295.63 573.22 C 1293.39 578.47 1295.63 584.56 1293.75 589.91 C 1290.92 593.44 1285.92 594.64 1283.11 598.26 C 1281.67 602.33 1284.64 606.17 1286.04 609.82 C 1281.48 610.81 1276.90 611.71 1272.23 611.88 C 1267.51 612.29 1262.41 611.99 1258.26 614.66 C 1255.43 616.11 1252.61 618.36 1249.31 618.25 C 1243.43 616.30 1240.96 610.09 1237.05 605.86 C 1234.75 603.18 1231.24 601.69 1229.38 598.64 C 1227.77 594.22 1229.20 589.35 1228.12 584.86 C 1225.00 582.03 1218.94 581.63 1218.95 576.43 C 1218.75 568.94 1214.43 562.73 1210.57 556.62 C 1204.41 557.50 1198.44 559.66 1192.23 560.10 C 1187.16 559.14 1183.18 555.36 1178.17 554.22 C 1172.11 552.91 1165.77 552.35 1160.16 549.48 C 1153.92 542.90 1148.92 535.13 1141.94 529.27 C 1148.80 526.74 1156.64 524.33 1159.51 516.83 C 1168.96 515.51 1178.65 517.17 1187.96 514.71 C 1189.23 513.71 1190.03 512.25 1190.85 510.88 C 1196.38 499.93 1202.60 489.19 1205.65 477.19 Z" />
</g>
<g id="#dfbf7fff">
<path fill="#dfbf7f" opacity="1.00" d=" M 1095.61 507.05 C 1100.20 509.93 1105.13 512.62 1110.70 512.61 C 1115.40 512.51 1118.99 515.74 1122.59 518.29 C 1128.38 523.08 1135.54 525.50 1141.94 529.27 C 1148.92 535.13 1153.92 542.90 1160.16 549.48 C 1159.06 552.66 1157.63 555.81 1157.35 559.19 C 1157.66 561.43 1158.88 563.41 1159.74 565.48 C 1155.81 569.86 1152.29 574.82 1147.29 578.05 C 1143.80 579.43 1140.01 579.72 1136.34 580.39 C 1133.37 584.69 1129.65 588.73 1128.40 593.94 C 1127.56 595.97 1127.32 598.71 1125.35 599.98 C 1122.29 600.40 1119.24 599.42 1116.25 599.04 C 1113.65 605.18 1117.65 611.13 1119.08 617.00 C 1120.73 621.92 1121.23 627.35 1119.59 632.35 C 1117.98 636.38 1117.14 640.77 1118.87 644.93 C 1121.79 651.44 1118.54 658.02 1117.06 664.35 C 1118.76 666.05 1120.45 667.77 1122.15 669.49 C 1116.19 673.69 1110.46 678.23 1104.33 682.18 C 1098.86 684.14 1093.44 678.90 1087.98 680.92 C 1084.20 682.82 1085.11 687.62 1085.36 691.04 C 1076.42 698.38 1067.09 705.26 1057.04 711.01 C 1054.73 712.20 1052.03 711.93 1049.53 712.12 C 1044.17 705.73 1039.73 698.47 1038.07 690.17 C 1037.89 686.96 1038.24 683.76 1038.67 680.58 C 1041.53 681.85 1044.35 683.23 1047.18 684.59 C 1052.99 681.04 1058.96 677.74 1065.05 674.69 C 1064.05 669.76 1063.29 664.23 1059.08 660.89 C 1055.82 657.39 1050.68 657.98 1046.40 657.11 C 1043.59 656.73 1041.79 654.36 1039.65 652.78 C 1037.16 650.53 1033.36 651.79 1030.44 651.52 C 1030.48 653.22 1030.54 654.92 1030.61 656.63 C 1025.79 656.17 1021.05 655.02 1016.26 654.53 C 1012.91 655.18 1011.04 658.43 1008.75 660.65 C 1006.87 659.75 1004.99 658.86 1003.12 657.99 C 1001.54 660.90 999.97 663.83 998.44 666.77 C 997.13 666.27 995.83 665.77 994.55 665.27 C 996.41 659.23 995.98 652.86 995.82 646.64 C 995.61 642.63 999.63 640.53 1001.86 637.80 C 1004.51 635.36 1004.87 631.62 1005.42 628.25 C 1006.17 620.89 1006.48 613.43 1005.18 606.11 C 1007.88 605.78 1010.57 605.27 1013.27 604.78 C 1012.66 600.11 1009.48 594.82 1012.17 590.21 C 1014.98 585.58 1019.57 582.51 1023.62 579.06 C 1027.04 582.01 1030.35 586.30 1035.56 585.29 C 1042.39 585.48 1049.21 584.58 1055.99 583.75 C 1060.79 583.30 1062.13 577.75 1064.58 574.49 C 1067.27 576.51 1069.78 579.90 1073.55 579.44 C 1080.97 578.86 1087.96 575.93 1095.31 574.96 C 1100.22 575.16 1105.15 577.20 1110.11 575.98 C 1112.43 570.54 1107.67 568.75 1104.06 567.20 C 1105.32 564.99 1107.47 562.93 1107.61 560.30 C 1105.79 554.09 1097.82 551.62 1097.16 544.86 C 1097.95 540.75 1101.63 537.89 1102.54 533.81 C 1104.02 524.20 1097.72 516.02 1095.61 507.05 Z" />
</g>
<g id="#3f003ffe">
<path fill="#3f003f" opacity="1.00" d=" M 993.10 518.42 C 1003.88 517.86 1013.68 512.38 1024.47 512.14 C 1023.07 515.62 1021.81 519.26 1021.90 523.08 C 1022.27 530.90 1027.13 537.50 1031.30 543.77 C 1037.13 544.28 1042.93 545.19 1048.78 545.56 C 1055.51 545.62 1061.73 542.65 1068.11 540.88 C 1069.36 545.61 1069.72 551.98 1075.05 553.97 C 1084.66 558.49 1094.25 563.10 1104.06 567.20 C 1107.67 568.75 1112.43 570.54 1110.11 575.98 C 1105.15 577.20 1100.22 575.16 1095.31 574.96 C 1087.96 575.93 1080.97 578.86 1073.55 579.44 C 1069.78 579.90 1067.27 576.51 1064.58 574.49 C 1062.13 577.75 1060.79 583.30 1055.99 583.75 C 1049.21 584.58 1042.39 585.48 1035.56 585.29 C 1030.35 586.30 1027.04 582.01 1023.62 579.06 C 1019.57 582.51 1014.98 585.58 1012.17 590.21 C 1009.48 594.82 1012.66 600.11 1013.27 604.78 C 1010.57 605.27 1007.88 605.78 1005.18 606.11 C 1002.51 605.82 999.38 605.78 997.39 603.74 C 994.47 598.66 993.91 591.80 989.08 587.94 C 985.02 585.54 980.11 586.64 975.64 586.63 C 968.48 586.01 961.62 583.62 955.38 580.12 C 953.34 573.60 950.49 567.04 945.38 562.33 C 938.82 558.50 930.81 557.41 925.20 551.88 C 921.89 549.50 921.99 545.04 921.16 541.44 C 929.60 540.59 939.66 541.79 945.78 534.87 C 946.59 535.23 947.41 535.60 948.24 535.97 C 953.50 532.45 959.93 531.60 965.41 528.55 C 968.30 527.06 971.19 525.61 974.24 524.45 C 978.47 523.02 983.11 524.38 987.36 523.04 C 989.41 521.70 991.18 519.96 993.10 518.42 Z" />
</g>
<g id="#207f00ff">
<path fill="#207f00" opacity="1.00" d=" M 894.21 525.95 C 900.68 522.20 907.08 518.03 914.99 518.47 C 916.48 526.28 919.71 533.62 921.16 541.44 C 921.99 545.04 921.89 549.50 925.20 551.88 C 930.81 557.41 938.82 558.50 945.38 562.33 C 950.49 567.04 953.34 573.60 955.38 580.12 C 948.05 580.50 940.71 580.41 933.38 580.68 C 930.49 581.26 928.65 584.01 925.94 585.02 C 922.33 584.09 918.97 581.99 915.08 582.43 C 909.30 582.97 903.57 580.14 897.89 581.95 C 894.28 582.94 890.61 583.65 886.90 584.12 C 886.37 573.70 893.50 565.73 900.62 559.16 C 899.04 554.29 898.97 549.16 899.24 544.10 C 895.59 542.93 891.23 539.79 887.60 542.55 C 881.84 546.87 876.59 551.83 870.95 556.29 C 870.47 569.03 873.65 581.52 873.51 594.23 C 873.14 594.72 872.39 595.70 872.02 596.18 C 870.70 595.73 869.41 595.26 868.13 594.80 C 866.14 577.91 865.60 560.89 863.04 544.08 C 862.97 543.63 862.81 542.73 862.74 542.28 C 865.68 537.75 868.70 533.27 871.70 528.78 C 879.18 531.66 887.20 528.76 894.21 525.95 Z" />
</g>
<g id="#9f3f00ff">
<path fill="#9f3f00" opacity="1.00" d=" M 887.60 542.55 C 891.23 539.79 895.59 542.93 899.24 544.10 C 898.97 549.16 899.04 554.29 900.62 559.16 C 893.50 565.73 886.37 573.70 886.90 584.12 C 885.41 590.43 877.93 590.80 873.51 594.23 C 873.65 581.52 870.47 569.03 870.95 556.29 C 876.59 551.83 881.84 546.87 887.60 542.55 Z" />
</g>
<g id="#3f00bfff">
<path fill="#3f00bf" opacity="1.00" d=" M 1157.35 559.19 C 1157.63 555.81 1159.06 552.66 1160.16 549.48 C 1165.77 552.35 1172.11 552.91 1178.17 554.22 C 1183.18 555.36 1187.16 559.14 1192.23 560.10 C 1198.44 559.66 1204.41 557.50 1210.57 556.62 C 1214.43 562.73 1218.75 568.94 1218.95 576.43 C 1218.94 581.63 1225.00 582.03 1228.12 584.86 C 1229.20 589.35 1227.77 594.22 1229.38 598.64 C 1231.24 601.69 1234.75 603.18 1237.05 605.86 C 1240.96 610.09 1243.43 616.30 1249.31 618.25 C 1252.61 618.36 1255.43 616.11 1258.26 614.66 C 1263.84 631.99 1264.61 650.40 1265.99 668.42 C 1257.11 670.36 1248.78 666.06 1241.47 661.54 C 1239.50 660.33 1237.51 658.93 1235.21 658.51 C 1228.14 662.98 1221.83 668.52 1215.11 673.49 C 1210.88 673.74 1206.58 673.10 1202.89 670.92 C 1201.23 668.04 1198.73 665.43 1198.17 662.09 C 1198.60 660.17 1200.74 659.19 1201.97 657.77 C 1200.90 656.67 1199.84 655.56 1198.62 654.69 C 1195.07 654.72 1192.04 657.37 1188.45 657.19 C 1185.71 656.78 1183.16 655.64 1180.58 654.72 C 1177.38 656.99 1173.75 658.58 1169.79 658.73 C 1169.17 654.71 1168.21 650.76 1167.37 646.80 C 1162.93 647.91 1158.50 649.13 1154.07 650.27 C 1149.73 647.14 1145.61 643.64 1140.89 641.10 C 1138.17 639.80 1135.31 641.62 1132.68 642.32 C 1128.57 638.67 1124.12 635.45 1119.59 632.35 C 1121.23 627.35 1120.73 621.92 1119.08 617.00 C 1117.65 611.13 1113.65 605.18 1116.25 599.04 C 1119.24 599.42 1122.29 600.40 1125.35 599.98 C 1127.32 598.71 1127.56 595.97 1128.40 593.94 C 1129.65 588.73 1133.37 584.69 1136.34 580.39 C 1140.01 579.72 1143.80 579.43 1147.29 578.05 C 1152.29 574.82 1155.81 569.86 1159.74 565.48 C 1158.88 563.41 1157.66 561.43 1157.35 559.19 Z" />
</g>
<g id="#3f7fbfff">
<path fill="#3f7fbf" opacity="1.00" d=" M 1336.12 559.70 C 1341.24 558.23 1347.13 560.67 1349.36 565.65 C 1351.60 570.95 1350.89 577.13 1353.77 582.24 C 1357.42 588.66 1358.96 595.96 1361.11 602.98 C 1362.71 610.84 1368.53 616.68 1372.60 623.33 C 1374.71 626.98 1378.93 630.28 1376.85 635.03 C 1373.56 643.23 1371.01 653.11 1362.81 657.74 C 1356.45 661.82 1348.15 664.56 1345.22 672.18 C 1342.16 673.52 1338.72 674.89 1337.32 678.19 C 1335.06 682.80 1331.91 687.33 1327.04 689.42 C 1323.38 688.91 1320.93 685.80 1317.77 684.22 C 1311.95 686.42 1307.41 691.07 1301.68 693.52 C 1299.29 691.32 1296.74 689.29 1294.15 687.35 C 1294.56 684.85 1295.13 682.38 1295.56 679.89 C 1290.64 677.03 1288.04 669.49 1281.53 670.26 C 1277.43 670.11 1273.35 669.21 1269.26 669.99 C 1268.15 669.47 1267.06 668.94 1265.99 668.42 C 1264.61 650.40 1263.84 631.99 1258.26 614.66 C 1262.41 611.99 1267.51 612.29 1272.23 611.88 C 1276.90 611.71 1281.48 610.81 1286.04 609.82 C 1284.64 606.17 1281.67 602.33 1283.11 598.26 C 1285.92 594.64 1290.92 593.44 1293.75 589.91 C 1295.63 584.56 1293.39 578.47 1295.63 573.22 C 1298.93 569.87 1304.38 570.54 1308.60 569.52 C 1309.80 567.81 1310.93 566.04 1312.14 564.33 C 1320.51 565.43 1328.34 562.23 1336.12 559.70 M 1309.17 639.17 C 1308.63 640.79 1309.19 641.34 1310.83 640.83 C 1311.33 639.20 1310.78 638.64 1309.17 639.17 Z" />
</g>
<g id="#9f7f7fff">
<path fill="#9f7f7f" opacity="1.00" d=" M 897.89 581.95 C 903.57 580.14 909.30 582.97 915.08 582.43 C 917.47 587.30 920.05 592.36 919.95 597.94 C 919.79 601.95 917.03 604.93 915.06 608.15 C 919.48 613.82 917.45 621.28 919.00 627.83 C 917.00 628.78 914.84 629.53 913.15 630.98 C 910.92 634.32 910.87 638.98 907.75 641.81 C 903.66 645.25 898.64 647.86 893.36 648.74 C 888.69 649.32 886.79 643.76 882.93 642.34 C 875.20 642.40 867.21 645.11 862.61 651.70 C 860.19 647.20 858.06 642.33 854.07 638.96 C 849.54 634.92 845.35 630.42 842.19 625.22 C 840.63 621.76 842.87 618.08 844.16 614.90 C 845.56 613.07 847.27 611.47 849.11 610.07 C 853.99 606.41 861.23 610.75 866.04 607.09 C 868.88 603.99 869.55 599.55 872.02 596.18 C 872.39 595.70 873.14 594.72 873.51 594.23 C 877.93 590.80 885.41 590.43 886.90 584.12 C 890.61 583.65 894.28 582.94 897.89 581.95 Z" />
</g>
<g id="#5f0000ff">
<path fill="#5f0000" opacity="1.00" d=" M 925.94 585.02 C 928.65 584.01 930.49 581.26 933.38 580.68 C 940.71 580.41 948.05 580.50 955.38 580.12 C 961.62 583.62 968.48 586.01 975.64 586.63 C 972.59 595.41 963.33 597.66 956.60 602.53 C 956.66 605.84 958.00 608.94 959.22 611.96 C 956.08 616.07 953.07 620.27 950.06 624.48 C 946.22 626.93 941.49 626.78 937.28 628.20 C 932.98 629.29 929.08 631.54 924.77 632.54 C 921.77 633.30 920.06 630.06 919.00 627.83 C 917.45 621.28 919.48 613.82 915.06 608.15 C 917.03 604.93 919.79 601.95 919.95 597.94 C 920.05 592.36 917.47 587.30 915.08 582.43 C 918.97 581.99 922.33 584.09 925.94 585.02 Z" />
</g>
<g id="#bf7f3fff">
<path fill="#bf7f3f" opacity="1.00" d=" M 975.64 586.63 C 980.11 586.64 985.02 585.54 989.08 587.94 C 993.91 591.80 994.47 598.66 997.39 603.74 C 999.38 605.78 1002.51 605.82 1005.18 606.11 C 1006.48 613.43 1006.17 620.89 1005.42 628.25 C 1004.87 631.62 1004.51 635.36 1001.86 637.80 C 999.63 640.53 995.61 642.63 995.82 646.64 C 995.98 652.86 996.41 659.23 994.55 665.27 C 993.05 667.89 990.85 671.69 987.27 670.81 C 983.50 668.62 980.86 665.00 977.62 662.17 C 970.78 663.33 963.81 663.00 957.14 661.16 C 958.83 657.51 961.09 654.16 963.52 650.96 C 957.19 643.09 954.56 633.32 950.06 624.48 C 953.07 620.27 956.08 616.07 959.22 611.96 C 958.00 608.94 956.66 605.84 956.60 602.53 C 963.33 597.66 972.59 595.41 975.64 586.63 M 970.33 646.31 C 969.25 647.62 971.52 649.19 972.48 647.88 C 973.49 646.57 971.26 644.99 970.33 646.31 Z" />
</g>
<g id="#3fbfbfff">
<path fill="#3fbfbf" opacity="1.00" d=" M 836.95 620.85 C 838.12 617.61 840.91 615.68 844.16 614.90 C 842.87 618.08 840.63 621.76 842.19 625.22 C 845.35 630.42 849.54 634.92 854.07 638.96 C 858.06 642.33 860.19 647.20 862.61 651.70 C 867.21 645.11 875.20 642.40 882.93 642.34 C 886.79 643.76 888.69 649.32 893.36 648.74 C 898.64 647.86 903.66 645.25 907.75 641.81 C 910.87 638.98 910.92 634.32 913.15 630.98 C 914.84 629.53 917.00 628.78 919.00 627.83 C 920.06 630.06 921.77 633.30 924.77 632.54 C 929.08 631.54 932.98 629.29 937.28 628.20 C 941.49 626.78 946.22 626.93 950.06 624.48 C 954.56 633.32 957.19 643.09 963.52 650.96 C 961.09 654.16 958.83 657.51 957.14 661.16 C 963.81 663.00 970.78 663.33 977.62 662.17 C 980.86 665.00 983.50 668.62 987.27 670.81 C 990.85 671.69 993.05 667.89 994.55 665.27 C 995.83 665.77 997.13 666.27 998.44 666.77 C 999.97 663.83 1001.54 660.90 1003.12 657.99 C 1004.99 658.86 1006.87 659.75 1008.75 660.65 C 1009.53 663.28 1010.25 665.98 1011.74 668.33 C 1014.82 671.58 1019.72 672.05 1023.06 674.98 C 1025.15 676.92 1026.58 679.44 1028.08 681.85 C 1025.24 684.30 1022.02 686.40 1019.61 689.30 C 1017.62 692.69 1017.85 697.08 1015.23 700.17 C 1011.27 705.14 1004.61 706.81 998.62 707.75 C 993.04 708.26 988.23 711.26 983.35 713.72 C 977.69 708.92 970.87 705.71 965.45 700.63 C 962.22 697.81 958.91 695.02 955.61 692.34 C 952.88 690.08 949.26 689.50 946.29 687.68 C 943.42 686.08 940.50 683.71 936.99 684.31 C 933.07 685.06 929.48 687.19 926.32 689.56 C 924.51 691.25 922.90 693.19 920.84 694.58 C 917.23 696.31 912.04 693.12 909.26 696.14 C 907.85 700.91 910.73 706.03 908.78 710.78 C 905.91 714.98 900.04 716.56 897.70 721.21 C 897.17 725.21 899.15 729.03 900.16 732.83 C 893.98 733.62 887.74 733.80 881.53 733.83 C 877.71 727.74 870.68 724.48 863.59 725.21 C 860.73 725.76 858.13 727.27 855.25 727.70 C 851.31 726.31 848.28 722.93 844.10 722.11 C 839.78 720.80 834.64 721.06 830.96 718.09 C 827.41 714.37 827.57 708.64 828.94 704.03 C 830.46 697.57 830.29 690.90 830.39 684.32 C 829.30 684.49 828.22 684.67 827.15 684.86 C 825.72 674.77 824.53 664.65 822.59 654.64 C 822.15 649.19 822.12 643.65 822.74 638.23 C 825.73 631.10 834.14 628.14 836.95 620.85 M 922.71 638.95 C 917.62 645.68 913.55 653.11 908.22 659.67 C 911.15 660.34 914.03 661.28 916.95 662.05 C 917.65 666.09 918.67 670.07 919.38 674.14 C 924.41 671.78 929.10 668.81 933.58 665.54 C 935.79 663.80 938.74 664.69 941.31 664.66 C 942.18 661.95 943.43 659.16 943.25 656.27 C 940.32 650.65 935.69 646.09 931.79 641.18 C 929.90 638.30 925.68 637.63 922.71 638.95 Z" />
</g>
<g id="#9fbf00ff">
<path fill="#9fbf00" opacity="1.00" d=" M 1118.87 644.93 C 1117.14 640.77 1117.98 636.38 1119.59 632.35 C 1124.12 635.45 1128.57 638.67 1132.68 642.32 C 1135.31 641.62 1138.17 639.80 1140.89 641.10 C 1145.61 643.64 1149.73 647.14 1154.07 650.27 C 1158.50 649.13 1162.93 647.91 1167.37 646.80 C 1168.21 650.76 1169.17 654.71 1169.79 658.73 C 1173.75 658.58 1177.38 656.99 1180.58 654.72 C 1183.16 655.64 1185.71 656.78 1188.45 657.19 C 1192.04 657.37 1195.07 654.72 1198.62 654.69 C 1199.84 655.56 1200.90 656.67 1201.97 657.77 C 1200.74 659.19 1198.60 660.17 1198.17 662.09 C 1198.73 665.43 1201.23 668.04 1202.89 670.92 C 1198.78 677.17 1194.82 683.62 1192.59 690.82 C 1191.18 695.51 1186.68 698.10 1183.94 701.91 C 1176.66 711.32 1171.76 722.76 1162.68 730.71 C 1157.37 734.32 1152.74 727.57 1148.29 725.43 C 1150.01 730.45 1152.13 735.34 1153.42 740.52 C 1150.75 741.32 1148.07 742.08 1145.36 742.71 C 1138.05 744.55 1130.60 741.52 1123.26 743.06 C 1117.84 743.62 1112.72 745.83 1107.27 746.13 C 1105.71 746.15 1104.16 746.20 1102.63 746.26 C 1105.64 741.79 1108.80 737.35 1112.87 733.77 C 1114.17 732.27 1116.59 730.61 1115.74 728.34 C 1113.21 723.40 1107.64 720.99 1104.74 716.32 C 1107.26 714.17 1110.00 712.32 1112.68 710.36 C 1108.98 706.39 1106.73 701.22 1102.70 697.60 C 1097.31 694.54 1091.13 693.21 1085.36 691.04 C 1085.11 687.62 1084.20 682.82 1087.98 680.92 C 1093.44 678.90 1098.86 684.14 1104.33 682.18 C 1110.46 678.23 1116.19 673.69 1122.15 669.49 C 1120.45 667.77 1118.76 666.05 1117.06 664.35 C 1118.54 658.02 1121.79 651.44 1118.87 644.93 M 1154.24 695.06 C 1152.47 695.44 1153.15 698.33 1154.91 697.78 C 1156.67 697.39 1156.02 694.43 1154.24 695.06 Z" />
</g>
<g id="#9f7f00ff">
<path fill="#9f7f00" opacity="1.00" d=" M 922.71 638.95 C 925.68 637.63 929.90 638.30 931.79 641.18 C 935.69 646.09 940.32 650.65 943.25 656.27 C 943.43 659.16 942.18 661.95 941.31 664.66 C 938.74 664.69 935.79 663.80 933.58 665.54 C 929.10 668.81 924.41 671.78 919.38 674.14 C 918.67 670.07 917.65 666.09 916.95 662.05 C 914.03 661.28 911.15 660.34 908.22 659.67 C 913.55 653.11 917.62 645.68 922.71 638.95 Z" />
</g>
<g id="#bf7fbfff">
<path fill="#bf7fbf" opacity="1.00" d=" M 1309.17 639.17 C 1310.78 638.64 1311.33 639.20 1310.83 640.83 C 1309.19 641.34 1308.63 640.79 1309.17 639.17 Z" />
</g>
<g id="#bf0040ff">
<path fill="#bf0040" opacity="1.00" d=" M 970.33 646.31 C 971.26 644.99 973.49 646.57 972.48 647.88 C 971.52 649.19 969.25 647.62 970.33 646.31 Z" />
</g>
<g id="#1f003fff">
<path fill="#1f003f" opacity="1.00" d=" M 1030.44 651.52 C 1033.36 651.79 1037.16 650.53 1039.65 652.78 C 1041.79 654.36 1043.59 656.73 1046.40 657.11 C 1050.68 657.98 1055.82 657.39 1059.08 660.89 C 1063.29 664.23 1064.05 669.76 1065.05 674.69 C 1058.96 677.74 1052.99 681.04 1047.18 684.59 C 1044.35 683.23 1041.53 681.85 1038.67 680.58 C 1038.24 683.76 1037.89 686.96 1038.07 690.17 C 1036.85 690.32 1035.65 690.46 1034.45 690.59 C 1032.46 687.58 1030.47 684.56 1028.08 681.85 C 1026.58 679.44 1025.15 676.92 1023.06 674.98 C 1019.72 672.05 1014.82 671.58 1011.74 668.33 C 1010.25 665.98 1009.53 663.28 1008.75 660.65 C 1011.04 658.43 1012.91 655.18 1016.26 654.53 C 1021.05 655.02 1025.79 656.17 1030.61 656.63 C 1030.54 654.92 1030.48 653.22 1030.44 651.52 Z" />
</g>
<g id="#7f3fbfff">
<path fill="#7f3fbf" opacity="1.00" d=" M 1235.21 658.51 C 1237.51 658.93 1239.50 660.33 1241.47 661.54 C 1248.78 666.06 1257.11 670.36 1265.99 668.42 C 1267.06 668.94 1268.15 669.47 1269.26 669.99 C 1273.35 669.21 1277.43 670.11 1281.53 670.26 C 1288.04 669.49 1290.64 677.03 1295.56 679.89 C 1295.13 682.38 1294.56 684.85 1294.15 687.35 C 1296.74 689.29 1299.29 691.32 1301.68 693.52 C 1298.90 699.54 1295.60 705.53 1294.41 712.11 C 1295.05 717.85 1298.04 723.03 1300.19 728.33 C 1287.28 729.85 1273.55 729.21 1261.86 723.03 C 1253.27 722.74 1244.67 723.99 1236.21 725.38 C 1231.90 726.16 1228.48 729.08 1225.39 731.97 C 1225.67 726.41 1226.71 720.72 1225.30 715.25 C 1224.86 712.74 1223.78 709.81 1225.39 707.51 C 1228.23 705.21 1231.96 704.48 1235.37 703.39 C 1234.01 698.58 1233.47 693.08 1229.21 689.82 C 1226.23 686.70 1222.14 685.01 1219.05 682.05 C 1217.13 679.52 1216.38 676.35 1215.11 673.49 C 1221.83 668.52 1228.14 662.98 1235.21 658.51 Z" />
</g>
<g id="#5fbf00ff">
<path fill="#5fbf00" opacity="1.00" d=" M 1202.89 670.92 C 1206.58 673.10 1210.88 673.74 1215.11 673.49 C 1216.38 676.35 1217.13 679.52 1219.05 682.05 C 1222.14 685.01 1226.23 686.70 1229.21 689.82 C 1233.47 693.08 1234.01 698.58 1235.37 703.39 C 1231.96 704.48 1228.23 705.21 1225.39 707.51 C 1223.78 709.81 1224.86 712.74 1225.30 715.25 C 1226.71 720.72 1225.67 726.41 1225.39 731.97 C 1225.28 733.11 1225.19 734.26 1225.11 735.42 C 1212.95 741.15 1199.20 741.36 1186.04 740.73 C 1179.27 741.34 1173.10 738.03 1166.57 737.01 C 1161.97 736.93 1157.78 739.39 1153.42 740.52 C 1152.13 735.34 1150.01 730.45 1148.29 725.43 C 1152.74 727.57 1157.37 734.32 1162.68 730.71 C 1171.76 722.76 1176.66 711.32 1183.94 701.91 C 1186.68 698.10 1191.18 695.51 1192.59 690.82 C 1194.82 683.62 1198.78 677.17 1202.89 670.92 Z" />
</g>
<g id="#00bfbfff">
<path fill="#00bfbf" opacity="1.00" d=" M 780.70 684.72 C 782.46 682.88 784.67 681.56 786.75 680.11 C 793.96 683.42 801.93 683.52 809.71 683.98 C 810.53 688.78 810.48 693.98 813.17 698.22 C 818.98 695.35 822.05 688.83 827.15 684.86 C 828.22 684.67 829.30 684.49 830.39 684.32 C 830.29 690.90 830.46 697.57 828.94 704.03 C 827.57 708.64 827.41 714.37 830.96 718.09 C 834.64 721.06 839.78 720.80 844.10 722.11 C 848.28 722.93 851.31 726.31 855.25 727.70 C 858.13 727.27 860.73 725.76 863.59 725.21 C 870.68 724.48 877.71 727.74 881.53 733.83 C 887.74 733.80 893.98 733.62 900.16 732.83 C 901.70 733.96 903.27 735.08 904.74 736.35 C 897.92 741.55 897.72 750.77 893.51 757.53 C 890.10 762.25 885.20 757.10 881.88 755.09 C 877.07 751.09 871.35 757.05 868.51 760.53 C 863.37 766.24 865.46 774.83 861.93 781.29 C 858.13 775.31 854.68 767.60 846.96 766.08 C 834.78 763.63 822.32 766.38 811.16 771.35 C 808.81 770.23 806.59 768.88 804.23 767.79 C 801.11 770.63 798.12 773.60 794.98 776.41 C 792.27 773.30 789.60 770.19 786.95 767.05 C 781.83 767.12 776.93 765.67 772.05 764.32 L 771.56 764.19 C 769.25 752.96 766.08 741.91 763.43 730.78 C 761.26 722.05 770.85 717.02 771.56 708.87 C 771.69 706.31 771.04 703.80 770.63 701.29 C 772.74 699.18 774.98 697.15 776.67 694.67 C 778.65 691.63 778.71 687.73 780.70 684.72 Z" />
</g>
<g id="#3fbf3fff">
<path fill="#3fbf3f" opacity="1.00" d=" M 1028.08 681.85 C 1030.47 684.56 1032.46 687.58 1034.45 690.59 C 1035.65 690.46 1036.85 690.32 1038.07 690.17 C 1039.73 698.47 1044.17 705.73 1049.53 712.12 C 1046.08 717.18 1042.02 722.67 1042.37 729.11 C 1042.92 736.26 1046.70 742.59 1050.34 748.58 C 1043.62 747.13 1036.33 748.14 1030.11 750.97 C 1027.85 751.98 1025.70 753.58 1023.17 753.68 C 1019.92 753.20 1017.11 751.36 1014.18 750.02 C 1008.74 747.32 1002.60 746.91 996.78 745.49 C 994.67 740.04 992.06 734.48 986.02 732.35 C 987.69 726.25 984.29 720.93 981.07 716.01 C 981.82 715.24 982.58 714.48 983.35 713.72 C 988.23 711.26 993.04 708.26 998.62 707.75 C 1004.61 706.81 1011.27 705.14 1015.23 700.17 C 1017.85 697.08 1017.62 692.69 1019.61 689.30 C 1022.02 686.40 1025.24 684.30 1028.08 681.85 M 1034.20 726.65 C 1033.70 727.77 1033.23 728.90 1032.76 730.03 C 1034.32 729.93 1035.89 729.83 1037.48 729.74 C 1036.38 728.70 1035.30 727.66 1034.20 726.65 Z" />
</g>
<g id="#9f007ffe">
<path fill="#9f007f" opacity="1.00" d=" M 926.32 689.56 C 929.48 687.19 933.07 685.06 936.99 684.31 C 940.50 683.71 943.42 686.08 946.29 687.68 C 949.26 689.50 952.88 690.08 955.61 692.34 C 958.91 695.02 962.22 697.81 965.45 700.63 C 970.87 705.71 977.69 708.92 983.35 713.72 C 982.58 714.48 981.82 715.24 981.07 716.01 C 984.29 720.93 987.69 726.25 986.02 732.35 C 978.34 735.86 969.44 733.24 961.88 736.81 C 955.81 742.43 954.59 751.93 956.51 759.73 C 953.16 762.12 948.93 764.07 947.32 768.12 C 945.81 772.36 945.44 776.90 944.55 781.30 C 938.81 780.48 931.23 780.69 928.34 774.57 C 925.51 768.30 927.29 760.90 923.71 754.80 C 922.12 754.79 920.55 754.81 918.98 754.77 C 920.23 751.00 920.86 747.02 922.62 743.44 C 926.03 737.46 936.42 739.23 937.87 731.91 C 940.00 728.32 936.74 725.62 935.18 722.83 C 928.76 712.99 927.28 700.98 926.32 689.56 M 936.25 716.41 C 934.78 717.73 937.07 720.05 938.41 718.56 C 939.86 717.25 937.55 714.97 936.25 716.41 Z" />
</g>
<g id="#df7f00ff">
<path fill="#df7f00" opacity="1.00" d=" M 920.84 694.58 C 922.90 693.19 924.51 691.25 926.32 689.56 C 927.28 700.98 928.76 712.99 935.18 722.83 C 936.74 725.62 940.00 728.32 937.87 731.91 C 936.42 739.23 926.03 737.46 922.62 743.44 C 920.86 747.02 920.23 751.00 918.98 754.77 C 916.31 754.11 913.12 753.07 912.28 750.12 C 910.69 745.10 908.82 739.90 904.74 736.35 C 903.27 735.08 901.70 733.96 900.16 732.83 C 899.15 729.03 897.17 725.21 897.70 721.21 C 900.04 716.56 905.91 714.98 908.78 710.78 C 910.73 706.03 907.85 700.91 909.26 696.14 C 912.04 693.12 917.23 696.31 920.84 694.58 Z" />
</g>
<g id="#df3f7ffe">
<path fill="#df3f7f" opacity="1.00" d=" M 1057.04 711.01 C 1067.09 705.26 1076.42 698.38 1085.36 691.04 C 1091.13 693.21 1097.31 694.54 1102.70 697.60 C 1106.73 701.22 1108.98 706.39 1112.68 710.36 C 1110.00 712.32 1107.26 714.17 1104.74 716.32 C 1107.64 720.99 1113.21 723.40 1115.74 728.34 C 1116.59 730.61 1114.17 732.27 1112.87 733.77 C 1108.80 737.35 1105.64 741.79 1102.63 746.26 C 1094.75 746.60 1088.09 752.37 1080.07 751.15 C 1077.01 751.02 1074.11 749.87 1071.09 749.56 C 1069.36 751.45 1068.90 754.09 1067.97 756.39 C 1064.47 755.86 1060.94 755.17 1057.71 753.69 C 1055.17 752.05 1052.75 750.33 1050.34 748.58 C 1046.70 742.59 1042.92 736.26 1042.37 729.11 C 1042.02 722.67 1046.08 717.18 1049.53 712.12 C 1052.03 711.93 1054.73 712.20 1057.04 711.01 M 1066.17 735.25 C 1064.53 735.61 1065.24 738.24 1066.83 737.75 C 1068.45 737.38 1067.74 734.75 1066.17 735.25 Z" />
</g>
<g id="#1f3f7fff">
<path fill="#1f3f7f" opacity="1.00" d=" M 1154.24 695.06 C 1156.02 694.43 1156.67 697.39 1154.91 697.78 C 1153.15 698.33 1152.47 695.44 1154.24 695.06 Z" />
</g>
<g id="#1f7f7ffe">
<path fill="#1f7f7f" opacity="1.00" d=" M 936.25 716.41 C 937.55 714.97 939.86 717.25 938.41 718.56 C 937.07 720.05 934.78 717.73 936.25 716.41 Z" />
</g>
<g id="#bf00bffe">
<path fill="#bf00bf" opacity="1.00" d=" M 1236.21 725.38 C 1244.67 723.99 1253.27 722.74 1261.86 723.03 C 1273.55 729.21 1287.28 729.85 1300.19 728.33 C 1303.34 734.96 1305.97 741.84 1309.77 748.15 C 1315.83 757.81 1315.05 770.56 1322.49 779.53 C 1326.75 779.57 1331.03 778.25 1335.26 779.51 C 1333.31 792.50 1329.62 805.62 1320.77 815.69 C 1316.63 817.75 1312.00 820.02 1307.22 819.35 C 1302.14 817.84 1298.17 814.20 1294.70 810.38 C 1288.88 811.84 1282.88 811.42 1276.96 811.28 C 1272.27 810.86 1270.07 815.97 1267.28 818.81 C 1266.29 815.59 1265.19 812.42 1264.11 809.24 C 1259.99 809.84 1255.05 811.59 1251.47 808.52 C 1248.36 806.07 1250.37 801.52 1250.34 798.38 C 1251.11 793.90 1249.07 789.70 1248.47 785.36 C 1248.40 777.59 1249.54 769.80 1248.53 762.06 C 1247.52 758.12 1244.56 755.12 1242.63 751.63 C 1240.30 748.15 1238.97 744.04 1235.99 741.08 C 1232.83 738.42 1228.86 737.02 1225.11 735.42 C 1225.19 734.26 1225.28 733.11 1225.39 731.97 C 1228.48 729.08 1231.90 726.16 1236.21 725.38 Z" />
</g>
<g id="#bfbf3fff">
<path fill="#bfbf3f" opacity="1.00" d=" M 1034.20 726.65 C 1035.30 727.66 1036.38 728.70 1037.48 729.74 C 1035.89 729.83 1034.32 729.93 1032.76 730.03 C 1033.23 728.90 1033.70 727.77 1034.20 726.65 Z" />
</g>
<g id="#3f7f3ffe">
<path fill="#3f7f3f" opacity="1.00" d=" M 961.88 736.81 C 969.44 733.24 978.34 735.86 986.02 732.35 C 992.06 734.48 994.67 740.04 996.78 745.49 C 988.74 752.20 984.46 762.07 981.83 771.98 C 981.28 776.12 984.07 779.69 984.96 783.60 C 982.55 782.97 980.17 782.35 977.80 781.73 C 973.72 784.76 969.48 788.43 964.18 788.67 C 959.47 788.93 954.79 789.09 950.12 789.64 C 948.54 786.68 946.51 783.99 944.55 781.30 C 945.44 776.90 945.81 772.36 947.32 768.12 C 948.93 764.07 953.16 762.12 956.51 759.73 C 954.59 751.93 955.81 742.43 961.88 736.81 Z" />
</g>
<g id="#5fbf7fff">
<path fill="#5fbf7f" opacity="1.00" d=" M 1066.17 735.25 C 1067.74 734.75 1068.45 737.38 1066.83 737.75 C 1065.24 738.24 1064.53 735.61 1066.17 735.25 Z" />
</g>
<g id="#003f3fff">
<path fill="#003f3f" opacity="1.00" d=" M 1186.04 740.73 C 1199.20 741.36 1212.95 741.15 1225.11 735.42 C 1228.86 737.02 1232.83 738.42 1235.99 741.08 C 1238.97 744.04 1240.30 748.15 1242.63 751.63 C 1244.56 755.12 1247.52 758.12 1248.53 762.06 C 1249.54 769.80 1248.40 777.59 1248.47 785.36 C 1249.07 789.70 1251.11 793.90 1250.34 798.38 C 1250.37 801.52 1248.36 806.07 1251.47 808.52 C 1255.05 811.59 1259.99 809.84 1264.11 809.24 C 1265.19 812.42 1266.29 815.59 1267.28 818.81 C 1264.05 823.74 1261.44 829.18 1260.52 835.04 C 1259.51 842.46 1256.31 849.37 1252.89 855.95 C 1251.20 859.52 1246.60 861.27 1242.93 859.91 C 1233.51 857.21 1222.43 862.73 1214.05 855.90 C 1206.14 851.75 1200.03 841.19 1189.84 843.68 C 1192.65 839.03 1194.19 833.72 1195.53 828.51 C 1197.62 821.38 1194.83 814.28 1194.54 807.13 C 1194.34 801.35 1189.94 796.96 1188.70 791.48 C 1186.32 783.36 1187.80 774.50 1184.52 766.63 C 1183.39 763.70 1182.51 760.69 1181.71 757.67 C 1178.56 758.17 1174.94 759.12 1172.24 756.81 C 1167.30 752.90 1161.00 751.68 1155.67 748.51 C 1152.19 746.65 1148.76 744.69 1145.36 742.71 C 1148.07 742.08 1150.75 741.32 1153.42 740.52 C 1157.78 739.39 1161.97 736.93 1166.57 737.01 C 1173.10 738.03 1179.27 741.34 1186.04 740.73 Z" />
</g>
<g id="#1f0000fe">
<path fill="#1f0000" opacity="1.00" d=" M 893.51 757.53 C 897.72 750.77 897.92 741.55 904.74 736.35 C 908.82 739.90 910.69 745.10 912.28 750.12 C 913.12 753.07 916.31 754.11 918.98 754.77 C 920.55 754.81 922.12 754.79 923.71 754.80 C 927.29 760.90 925.51 768.30 928.34 774.57 C 931.23 780.69 938.81 780.48 944.55 781.30 C 946.51 783.99 948.54 786.68 950.12 789.64 C 951.54 794.10 952.89 799.63 949.69 803.67 C 945.93 807.79 940.47 809.62 935.49 811.79 C 929.21 806.36 923.22 800.55 916.51 795.65 C 913.31 794.18 910.39 797.19 908.65 799.55 C 904.58 805.44 900.81 811.86 899.73 819.05 C 896.57 817.65 893.33 816.37 890.21 814.93 C 888.75 811.09 887.85 806.93 885.30 803.66 C 881.94 800.33 877.08 799.21 873.29 796.49 C 867.25 793.49 865.24 786.64 861.93 781.29 C 865.46 774.83 863.37 766.24 868.51 760.53 C 871.35 757.05 877.07 751.09 881.88 755.09 C 885.20 757.10 890.10 762.25 893.51 757.53 Z" />
</g>
<g id="#df007ffe">
<path fill="#df007f" opacity="1.00" d=" M 1123.26 743.06 C 1130.60 741.52 1138.05 744.55 1145.36 742.71 C 1144.90 745.66 1143.32 749.03 1145.10 751.83 C 1147.46 756.61 1151.33 760.78 1152.51 766.06 C 1152.24 769.94 1149.15 772.91 1148.28 776.64 C 1151.07 778.97 1154.72 779.85 1157.96 781.37 C 1156.43 785.00 1154.75 788.75 1155.07 792.81 C 1155.32 799.85 1152.93 806.81 1154.07 813.84 C 1156.01 825.04 1152.31 836.32 1148.31 846.65 C 1143.12 852.72 1134.43 855.19 1130.24 862.46 C 1126.09 859.90 1124.30 855.26 1122.19 851.13 C 1124.05 843.65 1125.75 836.06 1129.02 829.05 C 1129.83 826.41 1132.00 822.87 1129.48 820.56 C 1123.70 815.32 1115.20 812.04 1112.76 803.90 C 1112.04 797.03 1113.12 790.09 1112.46 783.23 C 1110.83 776.44 1104.66 770.74 1105.96 763.31 C 1107.28 757.69 1108.54 751.89 1107.27 746.13 C 1112.72 745.83 1117.84 743.62 1123.26 743.06 M 1136.53 800.13 C 1135.59 801.30 1137.63 802.68 1138.45 801.46 C 1139.42 800.26 1137.33 798.91 1136.53 800.13 Z" />
</g>
<g id="#bf3fbfff">
<path fill="#bf3fbf" opacity="1.00" d=" M 1145.36 742.71 C 1148.76 744.69 1152.19 746.65 1155.67 748.51 C 1161.00 751.68 1167.30 752.90 1172.24 756.81 C 1174.94 759.12 1178.56 758.17 1181.71 757.67 C 1182.51 760.69 1183.39 763.70 1184.52 766.63 C 1187.80 774.50 1186.32 783.36 1188.70 791.48 C 1189.94 796.96 1194.34 801.35 1194.54 807.13 C 1194.83 814.28 1197.62 821.38 1195.53 828.51 C 1194.19 833.72 1192.65 839.03 1189.84 843.68 C 1187.87 846.74 1185.61 849.60 1183.61 852.64 C 1178.96 848.43 1172.60 849.46 1166.97 850.39 C 1162.51 849.42 1159.14 845.67 1154.71 844.54 C 1152.42 844.53 1150.39 845.88 1148.31 846.65 C 1152.31 836.32 1156.01 825.04 1154.07 813.84 C 1152.93 806.81 1155.32 799.85 1155.07 792.81 C 1154.75 788.75 1156.43 785.00 1157.96 781.37 C 1154.72 779.85 1151.07 778.97 1148.28 776.64 C 1149.15 772.91 1152.24 769.94 1152.51 766.06 C 1151.33 760.78 1147.46 756.61 1145.10 751.83 C 1143.32 749.03 1144.90 745.66 1145.36 742.71 Z" />
</g>
<g id="#5f3f00fe">
<path fill="#5f3f00" opacity="1.00" d=" M 996.78 745.49 C 1002.60 746.91 1008.74 747.32 1014.18 750.02 C 1017.11 751.36 1019.92 753.20 1023.17 753.68 C 1025.70 753.58 1027.85 751.98 1030.11 750.97 C 1027.67 755.88 1024.59 760.45 1022.49 765.52 C 1020.49 768.95 1025.03 771.04 1026.73 773.43 C 1026.12 775.46 1025.49 777.49 1024.85 779.52 C 1023.68 780.29 1022.52 781.08 1021.38 781.88 C 1021.63 785.23 1022.49 788.64 1021.86 792.00 C 1016.70 800.86 1005.78 802.37 997.67 807.31 C 997.28 805.03 997.06 802.42 995.30 800.74 C 992.08 798.10 987.85 797.08 984.68 794.36 C 984.04 790.79 984.90 787.18 984.96 783.60 C 984.07 779.69 981.28 776.12 981.83 771.98 C 984.46 762.07 988.74 752.20 996.78 745.49 Z" />
</g>
<g id="#003fbfff">
<path fill="#003fbf" opacity="1.00" d=" M 1102.63 746.26 C 1104.16 746.20 1105.71 746.15 1107.27 746.13 C 1108.54 751.89 1107.28 757.69 1105.96 763.31 C 1104.66 770.74 1110.83 776.44 1112.46 783.23 C 1113.12 790.09 1112.04 797.03 1112.76 803.90 C 1108.30 804.77 1103.88 806.45 1099.29 806.18 C 1095.73 804.75 1093.30 801.55 1090.71 798.86 C 1083.09 798.91 1075.52 799.89 1067.94 800.20 C 1062.01 799.03 1055.97 800.17 1050.73 803.12 C 1053.49 797.13 1054.74 790.73 1054.50 784.16 C 1054.97 773.91 1060.73 764.05 1057.71 753.69 C 1060.94 755.17 1064.47 755.86 1067.97 756.39 C 1068.90 754.09 1069.36 751.45 1071.09 749.56 C 1074.11 749.87 1077.01 751.02 1080.07 751.15 C 1088.09 752.37 1094.75 746.60 1102.63 746.26 Z" />
</g>
<g id="#dfbf00ff">
<path fill="#dfbf00" opacity="1.00" d=" M 1030.11 750.97 C 1036.33 748.14 1043.62 747.13 1050.34 748.58 C 1052.75 750.33 1055.17 752.05 1057.71 753.69 C 1060.73 764.05 1054.97 773.91 1054.50 784.16 C 1044.55 783.13 1034.00 784.34 1024.85 779.52 C 1025.49 777.49 1026.12 775.46 1026.73 773.43 C 1025.03 771.04 1020.49 768.95 1022.49 765.52 C 1024.59 760.45 1027.67 755.88 1030.11 750.97 Z" />
</g>
<g id="#9f003ffe">
<path fill="#9f003f" opacity="1.00" d=" M 772.05 764.32 C 776.93 765.67 781.83 767.12 786.95 767.05 C 789.60 770.19 792.27 773.30 794.98 776.41 C 798.12 773.60 801.11 770.63 804.23 767.79 C 806.59 768.88 808.81 770.23 811.16 771.35 C 808.21 775.30 805.00 779.04 801.85 782.84 C 798.94 786.51 796.21 791.43 798.06 796.20 C 801.45 804.51 803.13 813.53 808.19 821.10 C 802.65 826.54 796.77 831.72 790.16 835.82 C 785.91 836.71 781.49 835.20 777.21 834.93 C 777.57 831.22 777.76 827.02 774.86 824.19 C 772.03 820.04 766.49 821.12 762.38 819.42 C 759.16 817.41 755.87 815.46 753.31 812.64 C 750.15 809.23 751.52 803.41 747.62 800.55 C 743.03 797.08 738.18 794.00 733.49 790.67 C 742.53 788.11 747.44 779.71 754.76 774.56 C 758.36 771.92 760.96 767.87 765.09 766.02 C 768.47 766.13 770.46 769.49 772.97 771.35 C 772.71 768.99 772.34 766.66 772.05 764.32 Z" />
</g>
<g id="#1f007fff">
<path fill="#1f007f" opacity="1.00" d=" M 811.16 771.35 C 822.32 766.38 834.78 763.63 846.96 766.08 C 854.68 767.60 858.13 775.31 861.93 781.29 C 865.24 786.64 867.25 793.49 873.29 796.49 C 877.08 799.21 881.94 800.33 885.30 803.66 C 887.85 806.93 888.75 811.09 890.21 814.93 C 893.33 816.37 896.57 817.65 899.73 819.05 C 900.03 826.12 901.48 833.26 900.33 840.33 C 898.92 847.66 906.43 853.69 904.18 861.10 C 902.71 867.87 894.95 869.92 892.13 875.84 C 892.73 878.13 893.41 880.41 894.24 882.65 C 893.00 883.30 892.72 884.30 893.39 885.67 C 893.62 886.72 893.86 887.78 894.11 888.85 C 887.02 885.96 878.98 889.46 872.20 885.63 C 869.45 884.47 866.93 882.74 863.98 882.18 C 861.08 882.35 858.54 884.00 855.95 885.14 C 855.65 890.55 857.63 896.38 855.81 901.66 C 852.54 902.63 849.13 902.86 845.81 903.55 C 845.71 896.45 844.17 889.22 841.09 882.82 C 838.06 877.12 830.94 878.25 825.86 875.81 C 826.78 871.97 829.29 868.69 830.07 864.84 C 829.75 858.48 826.36 852.11 828.61 845.79 C 829.56 841.27 832.65 834.78 827.78 831.39 C 824.57 831.31 821.44 833.01 818.27 832.51 C 813.74 829.97 811.01 825.28 808.19 821.10 C 803.13 813.53 801.45 804.51 798.06 796.20 C 796.21 791.43 798.94 786.51 801.85 782.84 C 805.00 779.04 808.21 775.30 811.16 771.35 Z" />
</g>
<g id="#df3f00ff">
<path fill="#df3f00" opacity="1.00" d=" M 1021.38 781.88 C 1022.52 781.08 1023.68 780.29 1024.85 779.52 C 1034.00 784.34 1044.55 783.13 1054.50 784.16 C 1054.74 790.73 1053.49 797.13 1050.73 803.12 C 1049.98 806.65 1049.82 810.25 1049.54 813.86 C 1051.81 813.75 1054.10 813.64 1056.39 813.55 C 1058.16 817.57 1059.82 821.74 1062.63 825.18 C 1061.07 827.60 1059.70 830.16 1058.16 832.60 C 1055.58 832.03 1052.34 829.33 1050.02 831.68 C 1045.97 835.49 1040.80 838.54 1038.92 844.07 C 1036.99 849.88 1030.30 850.72 1025.20 852.14 C 1021.05 853.50 1017.44 850.50 1014.17 848.42 C 1013.93 842.58 1013.78 836.71 1014.83 830.94 C 1015.18 827.95 1016.37 824.99 1015.97 821.96 C 1012.84 814.61 999.87 817.42 997.90 809.09 C 997.84 808.64 997.72 807.75 997.67 807.31 C 1005.78 802.37 1016.70 800.86 1021.86 792.00 C 1022.49 788.64 1021.63 785.23 1021.38 781.88 M 1027.16 805.16 C 1026.24 809.16 1031.16 804.24 1027.16 805.16 Z" />
</g>
<g id="#1fbf7ffe">
<path fill="#1fbf7f" opacity="1.00" d=" M 977.80 781.73 C 980.17 782.35 982.55 782.97 984.96 783.60 C 984.90 787.18 984.04 790.79 984.68 794.36 C 987.85 797.08 992.08 798.10 995.30 800.74 C 997.06 802.42 997.28 805.03 997.67 807.31 C 997.72 807.75 997.84 808.64 997.90 809.09 C 992.26 812.00 986.38 814.56 981.14 818.17 C 976.58 821.47 976.40 827.78 972.92 831.90 C 970.71 832.35 968.50 832.60 966.28 832.66 C 961.20 832.59 956.12 833.05 951.09 833.65 C 951.92 831.44 952.77 829.23 953.65 827.04 C 949.93 826.12 946.21 825.46 942.52 824.54 C 940.47 820.12 938.42 815.68 935.49 811.79 C 940.47 809.62 945.93 807.79 949.69 803.67 C 952.89 799.63 951.54 794.10 950.12 789.64 C 954.79 789.09 959.47 788.93 964.18 788.67 C 969.48 788.43 973.72 784.76 977.80 781.73 Z" />
</g>
<g id="#df0000fe">
<path fill="#df0000" opacity="1.00" d=" M 712.27 784.30 C 713.75 782.62 716.29 783.38 718.18 783.81 C 723.50 785.53 728.72 787.73 733.49 790.67 C 738.18 794.00 743.03 797.08 747.62 800.55 C 751.52 803.41 750.15 809.23 753.31 812.64 C 755.87 815.46 759.16 817.41 762.38 819.42 C 766.49 821.12 772.03 820.04 774.86 824.19 C 777.76 827.02 777.57 831.22 777.21 834.93 C 772.09 836.59 766.36 839.66 765.79 845.67 C 765.50 853.36 770.89 860.09 770.97 867.75 C 770.02 874.54 767.91 881.25 768.26 888.18 C 768.06 902.33 774.45 915.28 778.00 928.70 C 773.91 930.76 769.66 935.39 764.82 933.29 C 758.95 930.78 755.23 923.93 748.02 924.70 C 743.48 923.98 739.73 927.29 735.60 928.54 C 732.89 929.75 731.04 926.29 729.63 924.48 C 724.94 915.33 722.11 905.38 718.17 895.90 C 716.30 891.48 717.89 886.46 715.90 882.05 C 711.11 870.96 710.94 858.50 711.44 846.65 C 713.06 839.98 713.19 832.89 716.31 826.65 C 713.77 818.37 710.62 810.31 707.51 802.24 C 704.83 796.04 708.20 789.03 712.27 784.30 Z" />
</g>
<g id="#3f3fbfff">
<path fill="#3f3fbf" opacity="1.00" d=" M 908.65 799.55 C 910.39 797.19 913.31 794.18 916.51 795.65 C 923.22 800.55 929.21 806.36 935.49 811.79 C 938.42 815.68 940.47 820.12 942.52 824.54 C 940.22 828.16 938.03 831.85 935.85 835.55 C 932.94 832.92 930.27 830.06 927.28 827.54 C 921.59 839.77 917.07 852.50 912.18 865.07 C 910.79 867.71 910.02 871.50 906.73 872.41 C 901.93 873.83 897.03 874.82 892.13 875.84 C 894.95 869.92 902.71 867.87 904.18 861.10 C 906.43 853.69 898.92 847.66 900.33 840.33 C 901.48 833.26 900.03 826.12 899.73 819.05 C 900.81 811.86 904.58 805.44 908.65 799.55 Z" />
</g>
<g id="#9fbf7fff">
<path fill="#9fbf7f" opacity="1.00" d=" M 1067.94 800.20 C 1075.52 799.89 1083.09 798.91 1090.71 798.86 C 1093.30 801.55 1095.73 804.75 1099.29 806.18 C 1103.88 806.45 1108.30 804.77 1112.76 803.90 C 1115.20 812.04 1123.70 815.32 1129.48 820.56 C 1132.00 822.87 1129.83 826.41 1129.02 829.05 C 1125.75 836.06 1124.05 843.65 1122.19 851.13 C 1114.72 852.03 1110.29 858.66 1105.92 864.03 C 1107.47 858.71 1108.41 853.23 1109.64 847.85 C 1105.57 846.88 1100.80 846.61 1097.69 843.42 C 1095.18 841.32 1093.23 837.99 1089.78 837.45 C 1084.59 837.32 1079.47 838.19 1074.35 838.63 C 1070.98 833.67 1067.39 828.87 1062.63 825.18 C 1059.82 821.74 1058.16 817.57 1056.39 813.55 C 1054.10 813.64 1051.81 813.75 1049.54 813.86 C 1049.82 810.25 1049.98 806.65 1050.73 803.12 C 1055.97 800.17 1062.01 799.03 1067.94 800.20 Z" />
</g>
<g id="#607f7fff">
<path fill="#607f7f" opacity="1.00" d=" M 1136.53 800.13 C 1137.33 798.91 1139.42 800.26 1138.45 801.46 C 1137.63 802.68 1135.59 801.30 1136.53 800.13 Z" />
</g>
<g id="#9f6a7fff">
<path fill="#9f6a7f" opacity="1.00" d=" M 1027.16 805.16 C 1031.16 804.24 1026.24 809.16 1027.16 805.16 Z" />
</g>
<g id="#00bf3fff">
<path fill="#00bf3f" opacity="1.00" d=" M 981.14 818.17 C 986.38 814.56 992.26 812.00 997.90 809.09 C 999.87 817.42 1012.84 814.61 1015.97 821.96 C 1016.37 824.99 1015.18 827.95 1014.83 830.94 C 1013.78 836.71 1013.93 842.58 1014.17 848.42 C 1011.99 850.98 1009.78 853.52 1007.56 856.05 C 1009.97 863.82 1010.59 872.08 1013.62 879.67 C 1014.46 886.57 1014.25 893.82 1012.61 900.63 C 1010.82 902.78 1006.89 900.76 1004.98 902.01 C 996.10 902.11 987.00 903.47 978.27 901.24 C 974.48 899.41 970.91 902.15 967.19 901.81 C 961.04 899.55 956.65 893.39 949.26 894.55 C 949.33 886.98 948.94 879.16 951.98 872.05 C 955.99 863.99 952.50 854.93 954.53 846.57 C 957.58 841.30 962.84 837.71 966.28 832.66 C 968.50 832.60 970.71 832.35 972.92 831.90 C 976.40 827.78 976.58 821.47 981.14 818.17 Z" />
</g>
<g id="#5f3f7ffe">
<path fill="#5f3f7f" opacity="1.00" d=" M 808.19 821.10 C 811.01 825.28 813.74 829.97 818.27 832.51 C 821.44 833.01 824.57 831.31 827.78 831.39 C 832.65 834.78 829.56 841.27 828.61 845.79 C 826.36 852.11 829.75 858.48 830.07 864.84 C 829.29 868.69 826.78 871.97 825.86 875.81 C 830.94 878.25 838.06 877.12 841.09 882.82 C 844.17 889.22 845.71 896.45 845.81 903.55 C 844.67 910.20 844.77 916.92 846.33 923.50 C 849.51 931.31 841.71 941.18 833.34 938.64 C 826.17 934.44 820.29 928.11 812.68 924.67 C 806.93 923.47 803.33 929.30 799.47 932.47 C 796.59 935.25 792.13 933.74 789.23 931.77 C 785.90 929.54 781.90 928.97 778.00 928.70 C 774.45 915.28 768.06 902.33 768.26 888.18 C 767.91 881.25 770.02 874.54 770.97 867.75 C 770.89 860.09 765.50 853.36 765.79 845.67 C 766.36 839.66 772.09 836.59 777.21 834.93 C 781.49 835.20 785.91 836.71 790.16 835.82 C 796.77 831.72 802.65 826.54 808.19 821.10 Z" />
</g>
<g id="#bfbfbffe">
<path fill="#bfbfbf" opacity="1.00" d=" M 935.85 835.55 C 938.03 831.85 940.22 828.16 942.52 824.54 C 946.21 825.46 949.93 826.12 953.65 827.04 C 952.77 829.23 951.92 831.44 951.09 833.65 C 956.12 833.05 961.20 832.59 966.28 832.66 C 962.84 837.71 957.58 841.30 954.53 846.57 C 952.50 854.93 955.99 863.99 951.98 872.05 C 948.94 879.16 949.33 886.98 949.26 894.55 C 944.03 899.54 936.65 900.60 929.72 900.60 C 924.67 900.39 920.71 895.58 915.51 896.47 C 910.61 896.68 906.54 899.46 902.02 900.88 C 897.78 898.28 894.91 893.73 894.11 888.85 C 893.86 887.78 893.62 886.72 893.39 885.67 C 894.51 884.87 894.79 883.86 894.24 882.65 C 893.41 880.41 892.73 878.13 892.13 875.84 C 897.03 874.82 901.93 873.83 906.73 872.41 C 910.02 871.50 910.79 867.71 912.18 865.07 C 917.07 852.50 921.59 839.77 927.28 827.54 C 930.27 830.06 932.94 832.92 935.85 835.55 Z" />
</g>
<g id="#1f3f00fe">
<path fill="#1f3f00" opacity="1.00" d=" M 1058.16 832.60 C 1059.70 830.16 1061.07 827.60 1062.63 825.18 C 1067.39 828.87 1070.98 833.67 1074.35 838.63 C 1079.47 838.19 1084.59 837.32 1089.78 837.45 C 1093.23 837.99 1095.18 841.32 1097.69 843.42 C 1100.80 846.61 1105.57 846.88 1109.64 847.85 C 1108.41 853.23 1107.47 858.71 1105.92 864.03 C 1103.71 870.29 1100.03 875.96 1096.25 881.39 C 1093.21 885.94 1087.99 889.60 1087.85 895.63 C 1087.02 900.58 1085.74 905.43 1084.35 910.26 C 1080.29 908.52 1076.16 906.86 1072.41 904.57 C 1069.48 902.13 1069.02 898.05 1066.83 895.10 C 1064.54 892.92 1061.15 892.89 1058.24 892.25 C 1058.51 890.77 1058.76 889.28 1059.04 887.82 C 1053.66 887.14 1048.21 886.35 1042.88 887.77 C 1040.31 885.11 1038.07 881.98 1034.83 880.11 C 1032.09 880.44 1029.64 881.84 1026.97 882.38 C 1022.54 881.37 1018.27 879.37 1013.62 879.67 C 1010.59 872.08 1009.97 863.82 1007.56 856.05 C 1009.78 853.52 1011.99 850.98 1014.17 848.42 C 1017.44 850.50 1021.05 853.50 1025.20 852.14 C 1030.30 850.72 1036.99 849.88 1038.92 844.07 C 1040.80 838.54 1045.97 835.49 1050.02 831.68 C 1052.34 829.33 1055.58 832.03 1058.16 832.60 M 1068.15 849.09 C 1066.08 854.62 1067.85 860.81 1069.83 866.11 C 1070.83 868.59 1072.24 873.03 1075.82 871.91 C 1079.22 870.09 1082.39 866.51 1081.73 862.37 C 1081.04 855.15 1079.12 848.11 1077.89 840.98 C 1074.60 843.61 1070.91 845.89 1068.15 849.09 Z" />
</g>
<g id="#df7f7fff">
<path fill="#df7f7f" opacity="1.00" d=" M 1068.15 849.09 C 1070.91 845.89 1074.60 843.61 1077.89 840.98 C 1079.12 848.11 1081.04 855.15 1081.73 862.37 C 1082.39 866.51 1079.22 870.09 1075.82 871.91 C 1072.24 873.03 1070.83 868.59 1069.83 866.11 C 1067.85 860.81 1066.08 854.62 1068.15 849.09 Z" />
</g>
<g id="#352aaaff">
<path fill="#352aaa" opacity="1.00" d=" M 893.39 885.67 C 892.72 884.30 893.00 883.30 894.24 882.65 C 894.79 883.86 894.51 884.87 893.39 885.67 Z" />
</g>
</svg>
