<?xml version="1.0" encoding="UTF-8" ?>
<!DOCTYPE svg PUBLIC "-//W3C//DTD SVG 1.1//EN" "http://www.w3.org/Graphics/SVG/1.1/DTD/svg11.dtd">
<svg width="1920pt" height="1080pt" viewBox="0 0 1920 1080" version="1.1" xmlns="http://www.w3.org/2000/svg">
<g id="#3fbf5ffe">
<path fill="#3fbf5f" fill-opacity="0" d=" M 1136.19 183.68 C 1141.53 185.58 1145.43 191.80 1151.85 190.44 C 1156.45 190.20 1161.12 190.14 1165.69 189.37 C 1169.00 187.76 1171.68 185.13 1174.98 183.46 C 1178.88 184.30 1183.35 185.53 1185.74 188.98 C 1188.10 196.94 1190.86 204.80 1194.89 212.09 C 1195.60 212.03 1197.02 211.90 1197.73 211.84 C 1200.10 206.95 1201.37 200.13 1207.13 198.14 C 1214.52 197.75 1218.87 204.93 1223.08 209.95 C 1225.81 213.77 1230.32 215.42 1234.56 216.94 C 1234.55 221.05 1234.45 225.43 1236.74 229.06 C 1239.55 234.91 1245.40 238.12 1250.51 241.72 C 1250.61 252.59 1252.79 263.26 1256.81 273.35 C 1250.77 276.96 1245.70 281.87 1241.20 287.23 C 1238.49 290.67 1234.24 292.86 1229.83 292.66 C 1222.14 292.50 1216.03 287.00 1208.71 285.51 C 1200.80 284.79 1194.20 292.00 1186.20 290.42 C 1178.32 288.43 1173.53 281.11 1166.65 277.27 C 1160.32 273.29 1151.96 273.84 1146.24 268.77 C 1142.12 264.93 1138.77 260.25 1133.83 257.39 C 1129.55 254.88 1125.93 250.93 1121.08 249.61 C 1116.10 250.78 1112.32 254.78 1107.34 255.97 C 1097.73 258.62 1087.85 257.05 1078.09 257.78 C 1077.52 259.33 1076.96 260.88 1076.40 262.43 C 1076.48 258.54 1076.74 254.65 1077.00 250.77 C 1080.72 250.63 1084.38 250.69 1088.13 250.82 C 1090.77 238.55 1090.90 225.37 1097.19 214.20 C 1098.55 215.27 1099.87 216.44 1101.39 217.32 C 1105.24 216.96 1108.94 215.60 1112.84 215.45 C 1114.46 209.13 1114.41 201.41 1119.69 196.70 C 1122.87 193.88 1124.46 189.90 1126.45 186.25 C 1128.25 182.93 1132.90 183.79 1136.19 183.68 Z" />
</g>
<g id="#df7f1ffe">
<path fill="#df7f1f" fill-opacity="0" d=" M 1287.47 206.79 C 1292.52 206.80 1297.21 208.87 1302.16 209.57 C 1307.18 209.81 1312.26 204.56 1317.05 207.85 C 1320.35 212.19 1324.07 216.17 1327.91 220.04 C 1333.57 228.18 1337.23 237.68 1343.82 245.20 C 1346.03 247.50 1346.51 250.72 1346.82 253.76 C 1349.06 254.21 1351.67 254.73 1354.00 255.19 C 1354.97 260.48 1356.53 265.87 1355.56 271.29 C 1354.53 277.67 1356.12 284.00 1356.71 290.34 C 1359.94 294.12 1363.21 297.84 1366.97 301.11 C 1371.88 306.91 1365.77 312.28 1363.05 317.04 C 1357.18 323.95 1360.24 333.57 1357.39 341.55 C 1354.94 347.45 1360.84 352.61 1359.96 358.51 C 1358.90 366.73 1358.69 375.17 1356.14 383.11 C 1354.77 386.13 1358.22 388.17 1359.61 390.44 C 1349.14 392.42 1337.92 396.70 1327.44 392.48 C 1318.04 386.70 1309.11 379.83 1301.45 371.87 C 1297.86 364.28 1297.18 355.68 1293.46 348.14 C 1289.02 350.43 1284.86 353.31 1280.22 355.16 C 1277.69 356.28 1275.09 354.44 1273.70 352.42 C 1270.49 347.87 1267.68 343.04 1264.71 338.36 C 1260.61 339.90 1257.00 344.27 1252.24 343.46 C 1249.08 343.68 1252.05 337.42 1250.39 336.95 C 1250.23 334.46 1250.37 331.97 1250.47 329.49 C 1258.06 321.64 1261.87 311.22 1266.51 301.54 C 1268.06 297.56 1270.44 293.23 1269.16 288.84 C 1266.74 282.52 1261.88 277.64 1256.81 273.35 C 1252.79 263.26 1250.61 252.59 1250.51 241.72 C 1245.40 238.12 1239.55 234.91 1236.74 229.06 C 1234.45 225.43 1234.55 221.05 1234.56 216.94 C 1242.18 219.17 1249.74 221.74 1257.57 223.24 C 1260.56 218.23 1262.10 211.66 1267.34 208.43 C 1271.21 208.58 1274.89 210.35 1278.77 210.38 C 1281.80 209.53 1284.38 207.51 1287.47 206.79 M 1299.99 308.09 C 1298.59 310.58 1297.23 313.09 1295.88 315.59 C 1298.20 316.38 1300.53 317.22 1302.85 318.08 C 1303.93 315.79 1305.02 313.50 1306.13 311.22 C 1304.06 310.20 1302.01 309.17 1299.99 308.09 Z" />
</g>
<g id="#1f009fff">
<path fill="#1f009f" fill-opacity="0" d=" M 1107.34 255.97 C 1112.32 254.78 1116.10 250.78 1121.08 249.61 C 1125.93 250.93 1129.55 254.88 1133.83 257.39 C 1138.77 260.25 1142.12 264.93 1146.24 268.77 C 1151.96 273.84 1160.32 273.29 1166.65 277.27 C 1173.53 281.11 1178.32 288.43 1186.20 290.42 C 1194.20 292.00 1200.80 284.79 1208.71 285.51 C 1216.03 287.00 1222.14 292.50 1229.83 292.66 C 1234.24 292.86 1238.49 290.67 1241.20 287.23 C 1245.70 281.87 1250.77 276.96 1256.81 273.35 C 1261.88 277.64 1266.74 282.52 1269.16 288.84 C 1270.44 293.23 1268.06 297.56 1266.51 301.54 C 1261.87 311.22 1258.06 321.64 1250.47 329.49 C 1242.61 327.00 1234.60 325.00 1226.43 323.89 C 1221.15 337.21 1215.25 350.27 1209.80 363.53 C 1200.85 363.11 1191.08 365.45 1182.97 360.67 C 1183.68 356.76 1185.87 353.34 1187.50 349.76 C 1176.83 349.22 1166.14 347.45 1155.46 348.69 C 1150.63 353.13 1147.73 359.45 1142.33 363.40 C 1137.74 367.68 1131.21 367.97 1125.39 369.13 L 1124.61 369.31 C 1128.01 357.85 1133.12 347.06 1139.18 336.79 C 1132.75 330.60 1125.09 325.64 1119.30 318.83 C 1117.05 312.90 1119.49 306.41 1119.98 300.30 C 1116.57 300.18 1113.18 298.46 1109.82 299.17 C 1103.25 302.34 1097.21 306.46 1091.06 310.35 C 1084.14 297.40 1077.66 284.17 1072.16 270.54 C 1073.98 268.08 1075.44 265.35 1076.40 262.43 C 1076.96 260.88 1077.52 259.33 1078.09 257.78 C 1087.85 257.05 1097.73 258.62 1107.34 255.97 Z" />
</g>
<g id="#7fbfdfff">
<path fill="#7fbfdf" fill-opacity="0" d=" M 716.42 265.18 C 720.54 263.84 724.55 262.08 728.58 260.44 C 735.68 267.78 745.95 269.37 755.40 271.59 C 760.54 273.08 766.01 272.34 770.88 270.31 C 774.30 274.24 777.74 278.17 781.26 282.04 C 775.01 289.87 768.92 297.84 762.48 305.51 C 756.51 312.93 746.00 313.76 739.41 320.39 C 734.66 325.06 729.96 329.88 724.14 333.22 C 712.70 340.06 702.10 348.33 693.45 358.52 C 687.61 356.22 681.71 352.85 675.22 353.48 C 668.87 354.23 662.91 357.02 657.81 360.81 C 655.03 362.66 652.39 365.09 649.05 365.82 C 644.62 365.56 640.37 364.33 636.02 363.61 C 638.63 359.51 641.34 355.11 640.90 349.99 C 640.28 343.94 637.52 338.29 637.13 332.24 C 638.91 330.01 641.79 329.19 644.26 327.96 C 642.95 323.65 641.41 319.44 639.87 315.22 C 642.45 314.18 645.01 313.10 647.56 311.97 C 647.29 304.48 644.69 297.38 641.05 290.92 C 644.78 286.04 649.84 282.55 655.01 279.34 C 655.97 276.89 654.41 272.93 656.91 271.01 C 662.76 266.64 669.65 263.58 676.90 262.47 C 682.36 263.42 686.70 267.46 692.12 268.54 C 696.84 268.03 700.85 264.96 705.45 263.91 C 709.14 263.83 712.73 265.62 716.42 265.18 Z" />
</g>
<g id="#1fbf1fff">
<path fill="#1fbf1f" fill-opacity="0" d=" M 804.85 274.15 C 814.13 271.86 824.65 266.62 834.03 270.91 C 836.90 274.49 836.45 280.01 838.86 284.01 C 842.80 284.90 846.87 285.45 850.87 286.09 C 851.30 289.51 851.65 292.90 852.08 296.33 C 848.26 297.85 845.16 300.94 843.88 304.89 C 839.94 314.79 836.14 324.76 832.10 334.62 C 834.80 337.32 838.35 339.62 839.58 343.42 C 839.98 348.09 836.52 351.43 835.02 355.48 C 833.44 360.57 835.15 366.73 830.98 370.92 C 824.07 381.26 816.09 390.84 808.94 401.01 C 807.32 403.22 805.48 405.67 805.47 408.55 C 805.45 420.24 809.58 431.33 813.03 442.34 C 807.76 442.40 802.52 443.09 797.34 443.94 C 796.90 448.92 796.45 453.91 795.92 458.88 C 792.41 460.24 788.94 461.87 785.20 462.44 C 781.38 462.87 777.96 460.73 774.59 459.30 C 776.02 455.82 777.51 452.36 779.01 448.91 C 776.33 446.84 773.69 444.73 771.02 442.66 C 768.50 445.76 766.01 448.88 763.56 452.04 C 762.06 451.37 760.57 450.70 759.09 450.04 C 759.82 445.06 760.49 440.08 761.16 435.10 C 758.44 433.73 755.75 432.38 753.05 431.02 C 746.42 437.07 740.22 443.55 734.12 450.12 C 731.68 452.52 729.24 455.37 725.80 456.23 C 721.64 455.94 718.12 453.25 714.72 451.07 C 712.85 449.74 711.02 448.38 709.18 447.02 C 714.79 436.40 720.18 425.64 724.86 414.58 C 712.22 408.15 699.96 400.99 687.79 393.75 C 683.65 397.57 679.54 401.45 675.96 405.82 C 672.19 404.33 667.99 402.94 665.36 399.66 C 663.25 395.51 665.61 390.69 666.52 386.60 C 668.32 381.79 669.96 376.49 673.81 372.89 C 680.56 368.45 688.74 365.46 693.45 358.52 C 702.10 348.33 712.70 340.06 724.14 333.22 C 729.96 329.88 734.66 325.06 739.41 320.39 C 746.00 313.76 756.51 312.93 762.48 305.51 C 768.92 297.84 775.01 289.87 781.26 282.04 C 789.07 281.73 795.04 286.10 801.31 289.81 C 802.89 285.13 799.87 277.32 804.85 274.15 Z" />
</g>
<g id="#9f7f9ffe">
<path fill="#9f7f9f" fill-opacity="0" d=" M 1065.33 270.20 C 1067.59 270.29 1069.87 270.40 1072.16 270.54 C 1077.66 284.17 1084.14 297.40 1091.06 310.35 C 1097.21 306.46 1103.25 302.34 1109.82 299.17 C 1113.18 298.46 1116.57 300.18 1119.98 300.30 C 1119.49 306.41 1117.05 312.90 1119.30 318.83 C 1125.09 325.64 1132.75 330.60 1139.18 336.79 C 1133.12 347.06 1128.01 357.85 1124.61 369.31 C 1122.20 371.92 1119.82 374.53 1117.42 377.13 C 1113.48 369.89 1108.85 363.07 1104.72 355.95 C 1100.33 360.44 1096.43 365.56 1091.18 369.10 C 1079.36 375.53 1064.72 379.72 1051.67 374.35 C 1043.16 371.91 1035.05 366.94 1025.90 367.53 C 1012.62 368.73 999.61 373.88 990.11 383.41 C 986.91 373.09 983.87 362.65 983.44 351.77 C 979.79 352.00 976.19 353.21 972.53 352.89 C 967.49 349.91 964.79 343.76 958.95 341.98 C 948.97 338.75 941.54 331.13 933.82 324.44 C 936.14 314.49 940.95 305.46 946.92 297.19 C 952.92 299.04 959.16 299.70 965.38 300.52 C 970.87 301.12 975.27 304.89 980.22 306.99 C 984.05 302.92 986.64 297.85 989.23 292.94 C 992.02 295.69 994.22 299.70 998.05 300.99 C 1002.10 300.28 1004.08 295.84 1006.73 293.07 C 1008.16 296.75 1009.42 300.54 1011.47 303.93 C 1012.66 303.81 1015.06 303.57 1016.26 303.45 C 1020.94 297.15 1023.17 289.48 1027.00 282.68 C 1034.09 284.29 1038.63 278.40 1043.40 274.36 C 1049.17 275.46 1055.16 277.52 1061.04 276.17 C 1064.09 276.00 1063.15 271.32 1065.33 270.20 Z" />
</g>
<g id="#df7f9fff">
<path fill="#df7f9f" fill-opacity="0" d=" M 912.18 283.63 C 915.41 285.07 918.59 286.60 921.80 288.08 C 922.21 291.78 922.66 295.49 923.13 299.19 C 929.79 293.08 938.95 296.46 946.92 297.19 C 940.95 305.46 936.14 314.49 933.82 324.44 C 929.34 330.50 923.86 335.73 918.63 341.13 C 922.12 349.16 926.59 357.72 923.66 366.72 C 920.16 377.01 917.43 388.07 910.39 396.63 C 915.03 398.14 920.45 399.17 923.52 403.40 C 925.94 406.76 929.29 409.75 930.38 413.86 C 930.51 419.41 930.01 426.47 924.98 429.94 C 912.08 438.98 899.49 448.44 887.08 458.14 C 881.02 457.32 874.89 455.67 868.76 457.00 C 863.60 460.70 860.45 466.48 856.17 471.09 C 853.21 469.81 850.27 468.50 847.28 467.30 C 838.83 463.93 830.24 460.93 821.58 458.16 C 823.49 456.57 825.43 455.02 827.42 453.53 C 822.24 451.20 817.28 448.17 815.59 442.33 C 814.73 442.32 813.87 442.32 813.03 442.34 C 809.58 431.33 805.45 420.24 805.47 408.55 C 805.48 405.67 807.32 403.22 808.94 401.01 C 816.09 390.84 824.07 381.26 830.98 370.92 C 835.15 366.73 833.44 360.57 835.02 355.48 C 836.52 351.43 839.98 348.09 839.58 343.42 C 838.35 339.62 834.80 337.32 832.10 334.62 C 836.14 324.76 839.94 314.79 843.88 304.89 C 845.16 300.94 848.26 297.85 852.08 296.33 C 855.53 295.09 858.91 293.62 862.02 291.66 C 867.32 295.68 874.21 294.71 880.50 295.04 C 883.00 291.36 886.24 286.17 891.47 287.30 C 898.37 286.85 901.71 293.33 903.49 298.84 C 904.63 298.91 905.78 298.98 906.94 299.05 C 908.60 293.88 910.38 288.75 912.18 283.63 Z" />
</g>
<g id="#5f009fff">
<path fill="#5f009f" fill-opacity="0" d=" M 1299.99 308.09 C 1302.01 309.17 1304.06 310.20 1306.13 311.22 C 1305.02 313.50 1303.93 315.79 1302.85 318.08 C 1300.53 317.22 1298.20 316.38 1295.88 315.59 C 1297.23 313.09 1298.59 310.58 1299.99 308.09 Z" />
</g>
<g id="#7f3fdfff">
<path fill="#7f3fdf" fill-opacity="0" d=" M 1226.43 323.89 C 1234.60 325.00 1242.61 327.00 1250.47 329.49 C 1250.37 331.97 1250.23 334.46 1250.39 336.95 C 1252.05 337.42 1249.08 343.68 1252.24 343.46 C 1257.00 344.27 1260.61 339.90 1264.71 338.36 C 1267.68 343.04 1270.49 347.87 1273.70 352.42 C 1275.09 354.44 1277.69 356.28 1280.22 355.16 C 1284.86 353.31 1289.02 350.43 1293.46 348.14 C 1297.18 355.68 1297.86 364.28 1301.45 371.87 C 1294.62 375.15 1288.36 379.44 1283.03 384.83 C 1278.14 382.82 1273.19 380.95 1268.28 379.05 C 1268.73 385.63 1268.43 392.23 1268.38 398.82 C 1268.28 409.08 1269.55 419.44 1267.04 429.55 C 1265.02 440.67 1258.16 449.93 1254.50 460.47 C 1249.90 470.84 1240.24 478.67 1229.27 481.37 C 1221.27 482.48 1212.78 481.59 1205.37 485.46 C 1200.94 488.60 1198.08 493.41 1194.55 497.43 C 1202.22 501.62 1206.56 509.14 1208.74 517.31 C 1204.91 519.51 1201.44 523.57 1196.49 522.44 C 1189.57 519.69 1184.03 514.46 1177.10 511.77 C 1168.83 509.38 1163.63 516.99 1158.01 521.36 C 1154.89 518.42 1152.35 514.89 1148.81 512.41 C 1146.39 516.96 1143.44 521.29 1139.43 524.58 C 1134.00 513.49 1126.13 503.95 1119.28 493.78 C 1114.59 487.46 1115.02 479.40 1115.69 472.04 C 1115.01 469.00 1116.64 466.50 1118.37 464.35 C 1125.90 459.28 1128.11 449.79 1130.94 441.66 C 1131.75 439.84 1132.25 437.24 1134.51 436.73 C 1141.94 434.18 1149.85 434.37 1157.60 434.39 C 1158.53 430.03 1159.34 425.64 1160.11 421.25 C 1156.11 417.90 1151.56 414.77 1149.48 409.77 C 1147.64 406.07 1147.93 401.80 1146.48 398.02 C 1143.08 393.88 1138.87 390.60 1134.74 387.25 C 1129.09 382.98 1127.26 375.63 1125.39 369.13 C 1131.21 367.97 1137.74 367.68 1142.33 363.40 C 1147.73 359.45 1150.63 353.13 1155.46 348.69 C 1166.14 347.45 1176.83 349.22 1187.50 349.76 C 1185.87 353.34 1183.68 356.76 1182.97 360.67 C 1191.08 365.45 1200.85 363.11 1209.80 363.53 C 1215.25 350.27 1221.15 337.21 1226.43 323.89 M 1179.62 419.56 C 1176.62 423.06 1175.20 427.53 1173.28 431.63 C 1177.22 433.79 1181.04 436.17 1184.57 438.96 C 1188.60 436.30 1192.27 433.15 1195.84 429.90 C 1194.06 425.69 1192.38 421.44 1190.76 417.17 C 1187.00 417.34 1182.59 416.73 1179.62 419.56 Z" />
</g>
<g id="#7fbf5fff">
<path fill="#7fbf5f" fill-opacity="0" d=" M 918.63 341.13 C 923.86 335.73 929.34 330.50 933.82 324.44 C 941.54 331.13 948.97 338.75 958.95 341.98 C 964.79 343.76 967.49 349.91 972.53 352.89 C 976.19 353.21 979.79 352.00 983.44 351.77 C 983.87 362.65 986.91 373.09 990.11 383.41 C 989.59 400.87 977.25 416.24 979.98 434.02 C 980.47 445.34 982.17 456.59 984.28 467.71 C 985.31 472.01 985.35 476.55 983.79 480.71 C 980.98 483.42 977.48 486.10 976.53 490.05 C 976.74 495.97 979.42 501.47 980.98 507.12 C 976.16 510.53 971.49 514.20 966.41 517.22 C 962.60 519.08 958.10 518.67 954.07 519.47 L 953.56 519.05 C 943.77 510.63 933.11 503.22 924.02 494.00 C 911.72 482.03 899.33 470.16 887.08 458.14 C 899.49 448.44 912.08 438.98 924.98 429.94 C 930.01 426.47 930.51 419.41 930.38 413.86 C 929.29 409.75 925.94 406.76 923.52 403.40 C 920.45 399.17 915.03 398.14 910.39 396.63 C 917.43 388.07 920.16 377.01 923.66 366.72 C 926.59 357.72 922.12 349.16 918.63 341.13 M 933.97 465.06 C 932.60 468.44 934.61 471.84 935.66 475.00 C 939.88 473.90 944.14 472.86 948.35 471.69 C 946.17 467.80 944.31 463.70 941.55 460.19 C 938.36 459.99 934.92 461.89 933.97 465.06 Z" />
</g>
<g id="#1f001fff">
<path fill="#1f001f" fill-opacity="0" d=" M 657.81 360.81 C 662.91 357.02 668.87 354.23 675.22 353.48 C 681.71 352.85 687.61 356.22 693.45 358.52 C 688.74 365.46 680.56 368.45 673.81 372.89 C 669.96 376.49 668.32 381.79 666.52 386.60 C 665.61 390.69 663.25 395.51 665.36 399.66 C 667.99 402.94 672.19 404.33 675.96 405.82 C 679.54 401.45 683.65 397.57 687.79 393.75 C 699.96 400.99 712.22 408.15 724.86 414.58 C 720.18 425.64 714.79 436.40 709.18 447.02 C 711.02 448.38 712.85 449.74 714.72 451.07 C 708.36 460.85 699.08 468.16 692.05 477.40 C 696.53 482.78 699.85 489.16 704.85 494.11 C 711.53 499.39 719.90 501.77 727.67 504.96 C 733.09 507.31 733.12 514.30 737.02 518.08 C 740.10 519.83 743.66 520.43 747.02 521.53 C 743.14 529.46 739.07 537.30 735.22 545.24 C 730.81 542.00 726.15 539.12 721.54 536.20 C 717.03 539.17 712.13 542.06 706.57 542.24 C 692.31 542.66 678.22 539.71 663.98 539.59 C 652.01 539.50 640.03 539.64 628.07 539.85 C 631.28 544.80 635.34 549.46 637.00 555.25 C 639.57 565.55 648.08 572.58 654.38 580.63 C 656.63 583.54 659.32 586.53 659.53 590.41 C 648.56 579.94 639.71 567.58 629.97 556.04 C 620.40 544.29 610.39 532.92 600.96 521.06 C 604.70 513.91 605.99 504.25 613.95 500.30 C 615.20 494.33 615.31 488.19 616.40 482.21 C 622.33 480.59 628.87 481.15 634.55 478.53 C 637.52 472.45 636.71 465.03 633.22 459.29 C 638.20 456.71 643.85 457.73 649.21 457.10 C 648.95 452.83 647.54 448.84 646.38 444.78 C 644.29 436.86 648.50 428.25 644.21 420.73 C 637.72 407.93 628.95 396.36 622.65 383.45 C 622.18 379.18 620.20 373.30 623.96 369.95 C 627.62 367.57 631.29 363.53 636.02 363.61 C 640.37 364.33 644.62 365.56 649.05 365.82 C 652.39 365.09 655.03 362.66 657.81 360.81 Z" />
</g>
<g id="#3fbfdfff">
<path fill="#3fbfdf" fill-opacity="0" d=" M 1091.18 369.10 C 1096.43 365.56 1100.33 360.44 1104.72 355.95 C 1108.85 363.07 1113.48 369.89 1117.42 377.13 C 1119.82 374.53 1122.20 371.92 1124.61 369.31 L 1125.39 369.13 C 1127.26 375.63 1129.09 382.98 1134.74 387.25 C 1138.87 390.60 1143.08 393.88 1146.48 398.02 C 1147.93 401.80 1147.64 406.07 1149.48 409.77 C 1151.56 414.77 1156.11 417.90 1160.11 421.25 C 1159.34 425.64 1158.53 430.03 1157.60 434.39 C 1149.85 434.37 1141.94 434.18 1134.51 436.73 C 1132.25 437.24 1131.75 439.84 1130.94 441.66 C 1128.11 449.79 1125.90 459.28 1118.37 464.35 C 1106.67 465.19 1094.98 466.20 1083.29 467.15 C 1083.36 464.41 1083.43 461.67 1083.53 458.94 C 1077.55 458.38 1071.49 457.78 1065.52 458.80 C 1061.80 461.51 1060.36 466.40 1056.56 469.02 C 1053.53 470.21 1050.18 470.19 1046.99 470.51 C 1034.98 470.93 1022.99 471.76 1010.98 472.21 C 1005.94 472.50 1001.38 474.96 996.74 476.67 C 992.54 478.39 988.06 479.23 983.79 480.71 C 985.35 476.55 985.31 472.01 984.28 467.71 C 982.17 456.59 980.47 445.34 979.98 434.02 C 977.25 416.24 989.59 400.87 990.11 383.41 C 999.61 373.88 1012.62 368.73 1025.90 367.53 C 1035.05 366.94 1043.16 371.91 1051.67 374.35 C 1064.72 379.72 1079.36 375.53 1091.18 369.10 M 1022.84 444.73 C 1020.19 447.71 1018.08 451.11 1016.47 454.76 C 1019.49 456.55 1022.27 458.90 1025.63 460.07 C 1028.28 460.30 1030.89 459.44 1033.50 459.04 C 1034.58 452.04 1028.60 447.26 1022.84 444.73 Z" />
</g>
<g id="#bf3f5fff">
<path fill="#bf3f5f" fill-opacity="0" d=" M 1301.45 371.87 C 1309.11 379.83 1318.04 386.70 1327.44 392.48 C 1337.92 396.70 1349.14 392.42 1359.61 390.44 C 1360.19 392.72 1360.51 395.18 1361.83 397.20 C 1364.11 399.88 1367.90 400.33 1370.62 402.43 C 1372.43 410.79 1372.99 420.02 1368.42 427.64 C 1362.31 441.72 1351.52 452.91 1344.23 466.29 C 1341.99 470.03 1342.48 474.59 1341.40 478.65 C 1336.13 486.50 1329.61 493.40 1323.22 500.32 C 1321.24 496.68 1319.34 492.99 1317.54 489.29 C 1316.90 489.17 1315.64 488.95 1315.00 488.84 C 1311.43 493.33 1307.74 497.72 1304.30 502.32 C 1295.47 501.14 1286.24 500.11 1278.41 495.59 C 1272.58 489.30 1273.28 480.17 1272.83 472.28 C 1266.60 468.52 1260.66 464.33 1254.50 460.47 C 1258.16 449.93 1265.02 440.67 1267.04 429.55 C 1269.55 419.44 1268.28 409.08 1268.38 398.82 C 1268.43 392.23 1268.73 385.63 1268.28 379.05 C 1273.19 380.95 1278.14 382.82 1283.03 384.83 C 1288.36 379.44 1294.62 375.15 1301.45 371.87 Z" />
</g>
<g id="#00bfdfff">
<path fill="#00bfdf" fill-opacity="0" d=" M 1179.62 419.56 C 1182.59 416.73 1187.00 417.34 1190.76 417.17 C 1192.38 421.44 1194.06 425.69 1195.84 429.90 C 1192.27 433.15 1188.60 436.30 1184.57 438.96 C 1181.04 436.17 1177.22 433.79 1173.28 431.63 C 1175.20 427.53 1176.62 423.06 1179.62 419.56 Z" />
</g>
<g id="#bfbf5fff">
<path fill="#bfbf5f" fill-opacity="0" d=" M 753.05 431.02 C 755.75 432.38 758.44 433.73 761.16 435.10 C 760.49 440.08 759.82 445.06 759.09 450.04 C 760.57 450.70 762.06 451.37 763.56 452.04 C 766.01 448.88 768.50 445.76 771.02 442.66 C 773.69 444.73 776.33 446.84 779.01 448.91 C 777.51 452.36 776.02 455.82 774.59 459.30 C 777.96 460.73 781.38 462.87 785.20 462.44 C 788.94 461.87 792.41 460.24 795.92 458.88 C 796.45 453.91 796.90 448.92 797.34 443.94 C 802.52 443.09 807.76 442.40 813.03 442.34 C 813.87 442.32 814.73 442.32 815.59 442.33 C 817.28 448.17 822.24 451.20 827.42 453.53 C 825.43 455.02 823.49 456.57 821.58 458.16 C 830.24 460.93 838.83 463.93 847.28 467.30 C 845.12 472.13 842.59 476.77 840.51 481.64 C 839.72 483.52 838.94 485.87 840.27 487.72 C 846.44 497.35 853.60 506.30 861.22 514.81 C 867.28 521.97 867.10 532.05 865.19 540.69 C 878.41 548.14 892.44 553.97 906.02 560.66 C 907.20 561.90 909.56 563.38 908.34 565.39 C 904.43 571.52 899.73 577.12 894.65 582.32 C 886.73 577.04 877.93 573.33 869.02 570.10 C 864.41 576.30 859.66 582.41 854.65 588.31 C 858.89 593.73 863.56 598.79 867.76 604.26 C 863.79 608.76 860.02 613.43 856.10 617.97 C 850.64 615.18 845.15 611.36 838.78 611.45 C 836.16 611.77 832.47 611.19 831.51 614.14 C 829.61 619.78 828.98 625.77 827.51 631.53 C 824.75 631.97 821.99 632.43 819.24 632.89 C 818.97 630.04 818.87 627.31 818.68 624.52 C 807.38 619.01 795.33 614.80 782.68 614.09 C 784.71 611.66 787.00 609.19 787.80 606.04 C 786.82 600.73 780.28 600.89 776.34 599.75 C 774.77 597.29 773.35 593.94 770.01 593.67 C 764.96 592.87 759.34 590.81 757.40 585.59 C 756.26 583.87 758.07 582.38 759.15 581.21 C 763.58 577.38 768.70 574.43 773.70 571.41 C 770.95 567.43 768.78 562.99 765.35 559.56 C 760.46 556.38 754.29 562.04 749.44 558.65 C 744.11 554.87 740.21 549.42 735.22 545.24 C 739.07 537.30 743.14 529.46 747.02 521.53 C 743.66 520.43 740.10 519.83 737.02 518.08 C 733.12 514.30 733.09 507.31 727.67 504.96 C 719.90 501.77 711.53 499.39 704.85 494.11 C 699.85 489.16 696.53 482.78 692.05 477.40 C 699.08 468.16 708.36 460.85 714.72 451.07 C 718.12 453.25 721.64 455.94 725.80 456.23 C 729.24 455.37 731.68 452.52 734.12 450.12 C 740.22 443.55 746.42 437.07 753.05 431.02 M 794.95 543.94 C 790.80 547.46 786.84 551.21 782.94 554.99 C 779.68 558.18 783.17 562.53 784.09 565.98 C 791.70 564.31 799.32 562.67 806.74 560.25 C 813.84 568.48 820.85 576.80 828.09 584.91 C 829.32 583.84 830.56 582.78 831.82 581.73 C 830.29 574.12 829.11 566.46 827.99 558.79 C 830.21 557.92 832.42 556.88 834.81 556.54 C 839.29 559.49 842.17 564.35 845.71 568.34 C 846.89 563.67 848.12 559.04 849.18 554.35 C 844.50 551.50 839.62 549.00 834.56 546.90 C 825.22 542.41 814.45 543.29 804.43 542.32 C 801.21 542.35 797.54 541.65 794.95 543.94 Z" />
</g>
<g id="#bfbfdfff">
<path fill="#bfbfdf" fill-opacity="0" d=" M 1022.84 444.73 C 1028.60 447.26 1034.58 452.04 1033.50 459.04 C 1030.89 459.44 1028.28 460.30 1025.63 460.07 C 1022.27 458.90 1019.49 456.55 1016.47 454.76 C 1018.08 451.11 1020.19 447.71 1022.84 444.73 Z" />
</g>
<g id="#df001fff">
<path fill="#df001f" fill-opacity="0" d=" M 868.76 457.00 C 874.89 455.67 881.02 457.32 887.08 458.14 C 899.33 470.16 911.72 482.03 924.02 494.00 C 933.11 503.22 943.77 510.63 953.56 519.05 C 944.36 528.17 932.92 534.61 923.62 543.61 C 917.72 549.26 911.86 554.95 906.02 560.66 C 892.44 553.97 878.41 548.14 865.19 540.69 C 867.10 532.05 867.28 521.97 861.22 514.81 C 853.60 506.30 846.44 497.35 840.27 487.72 C 838.94 485.87 839.72 483.52 840.51 481.64 C 842.59 476.77 845.12 472.13 847.28 467.30 C 850.27 468.50 853.21 469.81 856.17 471.09 C 860.45 466.48 863.60 460.70 868.76 457.00 Z" />
</g>
<g id="#1f3f1fff">
<path fill="#1f3f1f" fill-opacity="0" d=" M 1065.52 458.80 C 1071.49 457.78 1077.55 458.38 1083.53 458.94 C 1083.43 461.67 1083.36 464.41 1083.29 467.15 C 1094.98 466.20 1106.67 465.19 1118.37 464.35 C 1116.64 466.50 1115.01 469.00 1115.69 472.04 C 1115.02 479.40 1114.59 487.46 1119.28 493.78 C 1126.13 503.95 1134.00 513.49 1139.43 524.58 C 1130.03 530.70 1118.66 529.91 1108.11 528.58 C 1108.94 534.81 1112.64 541.75 1108.62 547.50 C 1104.35 554.56 1098.66 562.78 1101.57 571.46 C 1099.32 572.20 1097.08 572.94 1094.86 573.70 C 1091.79 572.45 1087.67 571.04 1085.11 574.07 C 1079.79 580.31 1080.50 589.74 1074.74 595.76 C 1071.95 599.28 1065.15 599.11 1063.24 594.82 C 1059.37 585.76 1059.65 575.38 1055.42 566.49 C 1049.14 557.89 1038.42 553.63 1028.20 551.93 C 1013.74 552.45 999.56 555.66 985.25 557.54 C 980.44 558.08 975.55 560.19 970.70 559.06 C 967.06 556.88 964.14 553.25 962.76 549.25 C 961.86 543.04 963.58 536.76 963.04 530.55 C 962.20 525.55 957.58 522.60 954.07 519.47 C 958.10 518.67 962.60 519.08 966.41 517.22 C 971.49 514.20 976.16 510.53 980.98 507.12 C 979.42 501.47 976.74 495.97 976.53 490.05 C 977.48 486.10 980.98 483.42 983.79 480.71 C 988.06 479.23 992.54 478.39 996.74 476.67 C 1001.38 474.96 1005.94 472.50 1010.98 472.21 C 1022.99 471.76 1034.98 470.93 1046.99 470.51 C 1050.18 470.19 1053.53 470.21 1056.56 469.02 C 1060.36 466.40 1061.80 461.51 1065.52 458.80 Z" />
</g>
<g id="#003fdfff">
<path fill="#003fdf" fill-opacity="0" d=" M 933.97 465.06 C 934.92 461.89 938.36 459.99 941.55 460.19 C 944.31 463.70 946.17 467.80 948.35 471.69 C 944.14 472.86 939.88 473.90 935.66 475.00 C 934.61 471.84 932.60 468.44 933.97 465.06 Z" />
</g>
<g id="#3f3f5fff">
<path fill="#3f3f5f" fill-opacity="0" d=" M 1229.27 481.37 C 1240.24 478.67 1249.90 470.84 1254.50 460.47 C 1260.66 464.33 1266.60 468.52 1272.83 472.28 C 1273.28 480.17 1272.58 489.30 1278.41 495.59 C 1286.24 500.11 1295.47 501.14 1304.30 502.32 C 1302.10 504.76 1299.62 506.92 1297.03 508.93 C 1297.53 513.34 1297.78 518.05 1300.02 522.01 C 1302.87 526.63 1307.99 529.00 1312.25 532.10 C 1303.94 541.49 1297.66 553.28 1286.46 559.64 C 1282.26 562.64 1280.11 567.86 1275.59 570.47 C 1271.35 572.17 1266.58 571.87 1262.36 573.49 C 1257.59 575.63 1254.67 580.72 1249.47 582.05 C 1244.80 582.81 1239.49 585.05 1237.87 589.90 C 1236.87 595.94 1240.22 602.29 1237.04 608.11 C 1233.08 615.62 1226.34 621.14 1221.59 628.12 C 1212.71 627.90 1203.95 625.88 1195.06 626.15 C 1191.28 627.11 1188.32 629.93 1185.04 631.87 C 1181.38 629.27 1178.08 625.97 1177.32 621.27 C 1176.02 617.84 1170.60 616.01 1167.76 618.71 C 1166.52 619.54 1165.34 620.46 1164.17 621.38 C 1157.52 619.41 1150.11 618.85 1145.06 613.61 C 1140.47 613.55 1135.87 612.63 1131.35 613.56 C 1128.65 614.47 1127.29 617.22 1125.59 619.29 C 1123.68 617.50 1121.68 615.81 1119.60 614.23 C 1118.66 615.87 1116.79 619.14 1115.85 620.78 C 1113.52 620.64 1111.01 620.42 1108.80 620.35 C 1105.81 626.30 1101.57 632.37 1094.18 632.17 C 1093.86 631.92 1093.23 631.40 1092.91 631.15 C 1094.07 623.73 1098.03 617.19 1099.67 609.91 C 1101.75 601.92 1104.14 593.97 1105.37 585.79 C 1105.92 580.67 1103.71 575.93 1101.57 571.46 C 1098.66 562.78 1104.35 554.56 1108.62 547.50 C 1112.64 541.75 1108.94 534.81 1108.11 528.58 C 1118.66 529.91 1130.03 530.70 1139.43 524.58 C 1143.44 521.29 1146.39 516.96 1148.81 512.41 C 1152.35 514.89 1154.89 518.42 1158.01 521.36 C 1163.63 516.99 1168.83 509.38 1177.10 511.77 C 1184.03 514.46 1189.57 519.69 1196.49 522.44 C 1201.44 523.57 1204.91 519.51 1208.74 517.31 C 1206.56 509.14 1202.22 501.62 1194.55 497.43 C 1198.08 493.41 1200.94 488.60 1205.37 485.46 C 1212.78 481.59 1221.27 482.48 1229.27 481.37 Z" />
</g>
<g id="#5f7f1fff">
<path fill="#5f7f1f" fill-opacity="0" d=" M 953.56 519.05 L 954.07 519.47 C 957.58 522.60 962.20 525.55 963.04 530.55 C 963.58 536.76 961.86 543.04 962.76 549.25 C 964.14 553.25 967.06 556.88 970.70 559.06 C 975.55 560.19 980.44 558.08 985.25 557.54 C 999.56 555.66 1013.74 552.45 1028.20 551.93 C 1024.43 556.42 1020.50 560.77 1016.60 565.15 C 1017.29 572.01 1019.54 578.73 1019.41 585.66 C 1019.54 587.76 1017.67 589.07 1016.14 590.12 C 1012.22 592.61 1008.15 594.81 1004.07 597.00 C 1006.34 600.54 1008.55 604.09 1010.81 607.65 C 1007.83 611.04 1004.92 614.47 1002.07 617.96 C 999.39 616.58 996.70 615.23 994.01 613.90 C 989.47 618.44 984.91 622.96 980.86 627.94 C 983.05 630.56 985.23 633.19 987.38 635.85 C 980.76 640.80 974.07 645.67 967.39 650.54 C 959.95 645.65 951.37 642.95 943.84 638.27 C 939.86 635.86 937.93 630.78 933.23 629.52 C 928.68 627.86 922.96 627.39 920.15 622.91 C 917.67 618.01 918.65 611.92 915.75 607.19 C 910.81 601.73 902.58 601.58 896.94 597.23 C 895.61 592.35 895.18 587.31 894.65 582.32 C 899.73 577.12 904.43 571.52 908.34 565.39 C 909.56 563.38 907.20 561.90 906.02 560.66 C 911.86 554.95 917.72 549.26 923.62 543.61 C 932.92 534.61 944.36 528.17 953.56 519.05 Z" />
</g>
<g id="#1f7f9fff">
<path fill="#1f7f9f" fill-opacity="0" d=" M 706.57 542.24 C 712.13 542.06 717.03 539.17 721.54 536.20 C 726.15 539.12 730.81 542.00 735.22 545.24 C 740.21 549.42 744.11 554.87 749.44 558.65 C 754.29 562.04 760.46 556.38 765.35 559.56 C 768.78 562.99 770.95 567.43 773.70 571.41 C 768.70 574.43 763.58 577.38 759.15 581.21 C 758.07 582.38 756.26 583.87 757.40 585.59 C 759.34 590.81 764.96 592.87 770.01 593.67 C 773.35 593.94 774.77 597.29 776.34 599.75 C 780.28 600.89 786.82 600.73 787.80 606.04 C 787.00 609.19 784.71 611.66 782.68 614.09 C 773.52 618.33 763.51 621.82 756.79 629.79 C 753.18 634.90 750.56 640.68 749.03 646.74 C 738.94 647.07 728.88 647.51 718.80 647.26 C 721.20 649.46 724.44 651.07 726.19 653.86 C 726.64 658.87 724.75 663.75 723.94 668.65 C 719.90 668.58 715.44 666.70 711.73 668.69 C 706.86 673.23 704.90 679.94 701.55 685.54 C 702.37 686.90 703.20 688.26 704.02 689.63 C 702.96 690.55 701.91 691.49 700.87 692.45 C 696.93 688.03 691.58 684.61 688.81 679.29 C 688.05 674.69 689.12 670.00 689.56 665.42 C 688.25 663.76 686.96 662.09 685.71 660.39 C 687.34 659.43 688.97 658.47 690.62 657.53 C 690.77 650.27 685.13 645.23 680.85 640.16 C 672.54 631.12 664.63 621.72 656.14 612.85 C 654.64 611.09 652.86 609.33 652.35 607.01 C 652.35 602.12 656.45 598.86 659.90 596.06 C 659.85 594.16 659.73 592.28 659.53 590.41 C 659.32 586.53 656.63 583.54 654.38 580.63 C 648.08 572.58 639.57 565.55 637.00 555.25 C 635.34 549.46 631.28 544.80 628.07 539.85 C 640.03 539.64 652.01 539.50 663.98 539.59 C 678.22 539.71 692.31 542.66 706.57 542.24 Z" />
</g>
<g id="#3f3fdfff">
<path fill="#3f3fdf" fill-opacity="0" d=" M 794.95 543.94 C 797.54 541.65 801.21 542.35 804.43 542.32 C 814.45 543.29 825.22 542.41 834.56 546.90 C 839.62 549.00 844.50 551.50 849.18 554.35 C 848.12 559.04 846.89 563.67 845.71 568.34 C 842.17 564.35 839.29 559.49 834.81 556.54 C 832.42 556.88 830.21 557.92 827.99 558.79 C 829.11 566.46 830.29 574.12 831.82 581.73 C 830.56 582.78 829.32 583.84 828.09 584.91 C 820.85 576.80 813.84 568.48 806.74 560.25 C 799.32 562.67 791.70 564.31 784.09 565.98 C 783.17 562.53 779.68 558.18 782.94 554.99 C 786.84 551.21 790.80 547.46 794.95 543.94 Z" />
</g>
<g id="#5f7f9fff">
<path fill="#5f7f9f" fill-opacity="0" d=" M 1028.20 551.93 C 1038.42 553.63 1049.14 557.89 1055.42 566.49 C 1059.65 575.38 1059.37 585.76 1063.24 594.82 C 1065.15 599.11 1071.95 599.28 1074.74 595.76 C 1080.50 589.74 1079.79 580.31 1085.11 574.07 C 1087.67 571.04 1091.79 572.45 1094.86 573.70 C 1097.08 572.94 1099.32 572.20 1101.57 571.46 C 1103.71 575.93 1105.92 580.67 1105.37 585.79 C 1104.14 593.97 1101.75 601.92 1099.67 609.91 C 1098.03 617.19 1094.07 623.73 1092.91 631.15 C 1093.23 631.40 1093.86 631.92 1094.18 632.17 C 1096.21 633.83 1098.26 635.49 1100.33 637.13 C 1097.33 644.07 1094.64 651.14 1092.47 658.38 C 1088.19 658.87 1083.45 658.32 1079.70 660.71 C 1072.99 667.33 1067.83 675.27 1061.87 682.53 C 1057.37 681.66 1052.67 681.04 1048.20 682.45 C 1040.25 685.00 1031.90 682.43 1023.77 683.17 C 1019.94 684.04 1016.99 686.87 1013.92 689.13 C 1009.75 686.12 1005.72 682.88 1002.43 678.92 C 998.38 674.52 994.86 669.20 989.20 666.81 C 984.35 664.50 979.20 662.91 974.49 660.33 C 970.70 658.36 969.20 654.11 967.39 650.54 C 974.07 645.67 980.76 640.80 987.38 635.85 C 985.23 633.19 983.05 630.56 980.86 627.94 C 984.91 622.96 989.47 618.44 994.01 613.90 C 996.70 615.23 999.39 616.58 1002.07 617.96 C 1004.92 614.47 1007.83 611.04 1010.81 607.65 C 1008.55 604.09 1006.34 600.54 1004.07 597.00 C 1008.15 594.81 1012.22 592.61 1016.14 590.12 C 1017.67 589.07 1019.54 587.76 1019.41 585.66 C 1019.54 578.73 1017.29 572.01 1016.60 565.15 C 1020.50 560.77 1024.43 556.42 1028.20 551.93 Z" />
</g>
<g id="#9f7f1fff">
<path fill="#9f7f1f" fill-opacity="0" d=" M 854.65 588.31 C 859.66 582.41 864.41 576.30 869.02 570.10 C 877.93 573.33 886.73 577.04 894.65 582.32 C 895.18 587.31 895.61 592.35 896.94 597.23 C 902.58 601.58 910.81 601.73 915.75 607.19 C 918.65 611.92 917.67 618.01 920.15 622.91 C 922.96 627.39 928.68 627.86 933.23 629.52 C 937.93 630.78 939.86 635.86 943.84 638.27 C 951.37 642.95 959.95 645.65 967.39 650.54 C 969.20 654.11 970.70 658.36 974.49 660.33 C 979.20 662.91 984.35 664.50 989.20 666.81 C 994.86 669.20 998.38 674.52 1002.43 678.92 C 1005.72 682.88 1009.75 686.12 1013.92 689.13 C 1011.65 694.22 1011.76 703.32 1004.50 703.80 C 988.35 705.37 972.20 706.85 956.06 708.43 C 951.92 721.11 949.09 734.85 940.40 745.30 C 932.44 751.05 923.16 755.79 913.22 756.60 C 902.94 755.51 892.46 754.90 882.51 751.92 C 881.17 745.55 874.82 742.93 870.99 738.41 C 869.05 733.59 871.91 728.21 872.21 723.33 C 874.56 713.25 877.33 703.24 877.67 692.83 C 867.94 691.70 858.40 689.36 848.75 687.77 C 841.88 686.75 835.22 689.12 829.05 691.85 C 827.58 690.28 826.12 688.71 824.68 687.13 C 825.94 676.76 823.05 666.60 821.76 656.39 C 820.72 648.58 819.94 640.74 819.24 632.89 C 821.99 632.43 824.75 631.97 827.51 631.53 C 828.98 625.77 829.61 619.78 831.51 614.14 C 832.47 611.19 836.16 611.77 838.78 611.45 C 845.15 611.36 850.64 615.18 856.10 617.97 C 860.02 613.43 863.79 608.76 867.76 604.26 C 863.56 598.79 858.89 593.73 854.65 588.31 Z" />
</g>
<g id="#9f009fff">
<path fill="#9f009f" fill-opacity="0" d=" M 756.79 629.79 C 763.51 621.82 773.52 618.33 782.68 614.09 C 795.33 614.80 807.38 619.01 818.68 624.52 C 818.87 627.31 818.97 630.04 819.24 632.89 C 819.94 640.74 820.72 648.58 821.76 656.39 C 823.05 666.60 825.94 676.76 824.68 687.13 C 818.93 687.24 813.24 686.39 807.86 684.36 C 806.03 690.77 803.52 697.07 799.24 702.27 C 794.80 707.30 794.80 714.52 790.94 719.88 C 785.58 727.64 779.75 735.06 774.21 742.70 C 778.33 746.58 780.42 751.89 781.22 757.41 C 779.38 758.65 777.54 759.89 775.81 761.29 C 769.18 754.71 760.36 750.91 754.21 743.80 C 741.69 729.95 725.14 720.11 714.20 704.79 C 713.85 703.80 713.20 703.14 712.25 702.79 C 707.99 699.88 704.52 696.03 700.87 692.45 C 701.91 691.49 702.96 690.55 704.02 689.63 C 703.20 688.26 702.37 686.90 701.55 685.54 C 704.90 679.94 706.86 673.23 711.73 668.69 C 715.44 666.70 719.90 668.58 723.94 668.65 C 724.75 663.75 726.64 658.87 726.19 653.86 C 724.44 651.07 721.20 649.46 718.80 647.26 C 728.88 647.51 738.94 647.07 749.03 646.74 C 750.56 640.68 753.18 634.90 756.79 629.79 Z" />
</g>
<g id="#9f001fff">
<path fill="#9f001f" fill-opacity="0" d=" M 1079.70 660.71 C 1083.45 658.32 1088.19 658.87 1092.47 658.38 C 1097.02 662.85 1102.22 666.54 1107.31 670.37 C 1104.97 678.90 1099.84 686.21 1096.28 694.22 C 1093.48 699.33 1099.38 704.81 1095.99 709.86 C 1094.07 716.02 1088.79 719.73 1082.79 721.50 C 1082.61 725.80 1083.23 730.08 1083.67 734.35 C 1082.59 738.25 1079.73 741.41 1077.78 744.88 C 1076.13 749.06 1071.26 748.67 1067.62 749.72 C 1069.36 753.18 1071.31 756.54 1073.57 759.70 C 1071.43 764.83 1067.87 769.36 1062.65 771.57 C 1063.71 779.62 1057.48 785.98 1051.80 790.77 C 1048.17 787.49 1044.01 784.87 1039.80 782.47 C 1038.40 790.15 1033.01 796.01 1030.09 802.97 C 1032.66 808.78 1037.80 812.96 1041.39 818.10 C 1038.11 823.11 1034.87 828.24 1030.46 832.35 C 1027.47 830.16 1024.60 827.80 1021.29 826.12 C 1020.54 831.49 1020.45 836.93 1019.96 842.33 C 1019.93 842.90 1019.87 844.04 1019.84 844.61 C 1019.81 847.40 1019.00 850.10 1018.25 852.77 C 1014.60 852.03 1010.86 851.30 1007.16 851.26 C 1000.80 854.56 997.17 861.36 995.53 868.11 C 989.34 853.40 975.06 844.35 961.16 837.94 C 951.89 834.79 941.73 834.92 932.73 830.83 C 926.24 825.07 918.15 820.66 912.98 813.61 C 911.69 794.64 914.09 775.61 913.22 756.60 C 923.16 755.79 932.44 751.05 940.40 745.30 C 949.09 734.85 951.92 721.11 956.06 708.43 C 972.20 706.85 988.35 705.37 1004.50 703.80 C 1011.76 703.32 1011.65 694.22 1013.92 689.13 C 1016.99 686.87 1019.94 684.04 1023.77 683.17 C 1031.90 682.43 1040.25 685.00 1048.20 682.45 C 1052.67 681.04 1057.37 681.66 1061.87 682.53 C 1067.83 675.27 1072.99 667.33 1079.70 660.71 M 1031.15 717.43 C 1032.59 719.26 1034.10 721.04 1035.71 722.74 C 1035.55 720.79 1035.38 718.87 1035.21 716.94 C 1034.20 717.06 1032.17 717.30 1031.15 717.43 M 951.44 781.10 C 950.38 784.94 948.30 788.65 948.33 792.72 C 949.90 796.50 954.21 798.01 957.19 800.54 C 960.23 795.55 962.69 790.21 963.47 784.37 C 959.46 783.30 955.42 782.16 951.44 781.10 Z" />
</g>
<g id="#5f001fff">
<path fill="#5f001f" fill-opacity="0" d=" M 807.86 684.36 C 813.24 686.39 818.93 687.24 824.68 687.13 C 826.12 688.71 827.58 690.28 829.05 691.85 C 835.22 689.12 841.88 686.75 848.75 687.77 C 858.40 689.36 867.94 691.70 877.67 692.83 C 877.33 703.24 874.56 713.25 872.21 723.33 C 871.91 728.21 869.05 733.59 870.99 738.41 C 874.82 742.93 881.17 745.55 882.51 751.92 C 878.71 757.98 876.42 764.80 873.04 771.08 C 872.08 772.51 871.40 774.79 869.41 775.16 C 861.51 777.00 853.35 776.72 845.31 777.30 C 843.07 782.85 841.44 788.88 837.67 793.62 C 831.86 797.47 824.88 799.18 818.43 801.62 C 812.28 803.89 806.21 800.07 801.18 796.90 C 793.91 792.87 785.50 791.56 777.69 788.99 C 776.31 786.00 774.88 783.05 773.56 780.05 C 776.20 779.60 778.87 779.19 781.55 778.81 C 782.17 773.45 779.51 768.70 776.57 764.49 C 776.34 763.50 774.45 762.04 775.81 761.29 C 777.54 759.89 779.38 758.65 781.22 757.41 C 780.42 751.89 778.33 746.58 774.21 742.70 C 779.75 735.06 785.58 727.64 790.94 719.88 C 794.80 714.52 794.80 707.30 799.24 702.27 C 803.52 697.07 806.03 690.77 807.86 684.36 Z" />
</g>
<g id="#4a559fff">
<path fill="#4a559f" fill-opacity="0" d=" M 712.25 702.79 C 713.20 703.14 713.85 703.80 714.20 704.79 C 712.45 705.18 711.80 704.51 712.25 702.79 Z" />
</g>
<g id="#9f3f1fff">
<path fill="#9f3f1f" fill-opacity="0" d=" M 1031.15 717.43 C 1032.17 717.30 1034.20 717.06 1035.21 716.94 C 1035.38 718.87 1035.55 720.79 1035.71 722.74 C 1034.10 721.04 1032.59 719.26 1031.15 717.43 Z" />
</g>
<g id="#bf3fdfff">
<path fill="#bf3fdf" fill-opacity="0" d=" M 873.04 771.08 C 876.42 764.80 878.71 757.98 882.51 751.92 C 892.46 754.90 902.94 755.51 913.22 756.60 C 914.09 775.61 911.69 794.64 912.98 813.61 C 918.15 820.66 926.24 825.07 932.73 830.83 C 923.51 839.66 912.09 845.68 901.30 852.32 C 895.18 856.18 887.80 857.11 881.52 860.61 C 880.23 859.31 878.97 858.03 877.70 856.75 C 872.23 856.67 867.00 854.92 862.18 852.48 C 857.75 849.33 853.62 845.69 848.63 843.42 C 834.36 844.33 820.26 849.96 805.85 846.95 C 800.20 844.57 793.62 844.48 788.84 840.22 C 779.83 833.94 770.76 827.74 761.56 821.75 C 761.47 818.73 761.23 815.72 760.66 812.75 C 762.20 811.56 763.76 810.40 765.36 809.27 C 765.67 807.18 766.02 805.12 766.39 803.07 C 772.89 801.16 775.31 794.55 777.69 788.99 C 785.50 791.56 793.91 792.87 801.18 796.90 C 806.21 800.07 812.28 803.89 818.43 801.62 C 824.88 799.18 831.86 797.47 837.67 793.62 C 841.44 788.88 843.07 782.85 845.31 777.30 C 853.35 776.72 861.51 777.00 869.41 775.16 C 871.40 774.79 872.08 772.51 873.04 771.08 Z" />
</g>
<g id="#1f7f1fff">
<path fill="#1f7f1f" fill-opacity="0" d=" M 951.44 781.10 C 955.42 782.16 959.46 783.30 963.47 784.37 C 962.69 790.21 960.23 795.55 957.19 800.54 C 954.21 798.01 949.90 796.50 948.33 792.72 C 948.30 788.65 950.38 784.94 951.44 781.10 Z" />
</g>
<g id="#df009fff">
<path fill="#df009f" fill-opacity="0" d=" M 932.73 830.83 C 941.73 834.92 951.89 834.79 961.16 837.94 C 975.06 844.35 989.34 853.40 995.53 868.11 C 996.61 874.38 988.55 877.72 984.03 879.90 C 977.97 881.90 973.19 886.87 970.87 892.74 C 970.42 897.12 971.91 901.44 972.12 905.81 C 970.63 910.30 965.98 913.01 964.78 917.64 C 963.79 923.79 963.72 930.07 963.07 936.27 C 959.55 934.54 956.00 931.59 951.78 932.86 C 946.74 935.13 942.31 938.58 937.13 940.59 C 937.40 937.82 937.54 934.88 937.89 932.17 C 929.68 930.97 921.42 928.81 914.09 924.90 C 910.13 923.25 910.48 918.53 909.27 915.25 C 899.78 907.63 891.11 899.00 883.35 889.63 C 880.63 886.26 881.06 881.93 881.67 877.98 C 879.48 874.91 876.91 871.85 876.27 868.02 C 877.73 865.37 879.43 862.81 881.52 860.61 C 887.80 857.11 895.18 856.18 901.30 852.32 C 912.09 845.68 923.51 839.66 932.73 830.83 Z" />
</g>
<g id="#a03f40ff">
<path fill="#a03f40" fill-opacity="0" d=" M 1019.96 842.33 C 1021.87 841.66 1021.67 845.44 1019.84 844.61 C 1019.87 844.04 1019.93 842.90 1019.96 842.33 Z" />
</g>
<g id="#8f5f00ff">
<path fill="#8f5f00" fill-opacity="0" d=" M 0.00 1079.00 C 222.67 1078.96 445.33 1079.08 668.00 1078.94 C 676.58 1078.99 685.15 1079.45 693.72 1079.96 L 694.71 1080.00 L 0.00 1080.00 L 0.00 1079.00 Z" />
</g>
<g id="#9f7fbfff">
<path fill="#9f7fbf" fill-opacity="0" d=" M 693.72 1079.96 C 718.67 1078.34 743.73 1078.50 768.70 1079.95 L 769.70 1080.00 L 694.71 1080.00 L 693.72 1079.96 Z" />
</g>
<g id="#5f7fbfff">
<path fill="#5f7fbf" fill-opacity="0" d=" M 768.70 1079.95 C 784.09 1078.60 799.55 1078.89 814.99 1079.00 L 815.03 1080.00 L 769.70 1080.00 L 768.70 1079.95 Z" />
</g>
<g id="#5f7f40ff">
<path fill="#5f7f40" fill-opacity="0" d=" M 814.99 1079.00 C 817.64 1078.97 820.31 1078.98 823.01 1079.01 L 822.98 1080.00 L 815.03 1080.00 L 814.99 1079.00 Z" />
</g>
<g id="#df3f7fff">
<path fill="#df3f7f" fill-opacity="0" d=" M 823.01 1079.01 C 843.83 1078.91 864.68 1078.64 885.49 1080.00 L 822.98 1080.00 L 823.01 1079.01 Z" />
</g>
<g id="#5fbf00ff">
<path fill="#5fbf00" fill-opacity="0" d=" M 887.09 1080.00 C 887.70 1078.62 888.65 1078.34 889.94 1079.16 L 889.87 1080.00 L 887.09 1080.00 Z" />
<path fill="#5fbf00" fill-opacity="0" d=" M 897.01 1079.46 C 929.73 1078.88 962.51 1078.25 995.21 1079.96 L 994.23 1080.00 L 896.54 1080.00 L 897.01 1079.46 Z" />
</g>
<g id="#df3f7ffe">
<path fill="#df3f7f" fill-opacity="0" d=" M 889.94 1079.16 C 891.71 1079.24 895.24 1079.38 897.01 1079.46 L 896.54 1080.00 L 889.87 1080.00 L 889.94 1079.16 Z" />
</g>
<g id="#1f7f3ffe">
<path fill="#1f7f3f" fill-opacity="0" d=" M 995.21 1079.96 C 1036.10 1077.84 1077.07 1079.57 1118.00 1078.96 L 1118.01 1080.00 L 994.23 1080.00 L 995.21 1079.96 Z" />
</g>
<g id="#df3f00ff">
<path fill="#df3f00" fill-opacity="0" d=" M 1118.00 1078.96 C 1131.90 1078.75 1145.83 1079.02 1159.72 1079.96 L 1160.71 1080.00 L 1118.01 1080.00 L 1118.00 1078.96 Z" />
</g>
<g id="#9f00bfff">
<path fill="#9f00bf" fill-opacity="0" d=" M 1159.72 1079.96 C 1201.47 1077.85 1243.31 1079.42 1285.10 1079.21 L 1285.20 1080.00 L 1160.71 1080.00 L 1159.72 1079.96 Z" />
<path fill="#9f00bf" fill-opacity="0" d=" M 1287.92 1079.21 C 1294.31 1079.61 1300.72 1079.72 1307.16 1079.95 L 1306.19 1080.00 L 1287.84 1080.00 L 1287.92 1079.21 Z" />
</g>
<g id="#df00bfff">
<path fill="#df00bf" fill-opacity="0" d=" M 1285.10 1079.21 C 1285.81 1079.21 1287.22 1079.21 1287.92 1079.21 L 1287.84 1080.00 L 1285.20 1080.00 L 1285.10 1079.21 Z" />
</g>
<g id="#5fbf5fff">
<path fill="#5fbf5f" fill-opacity="0" d=" M 1307.16 1079.95 C 1335.30 1078.28 1363.57 1078.52 1391.73 1079.96 L 1392.72 1080.00 L 1306.19 1080.00 L 1307.16 1079.95 Z" />
</g>
<g id="#1fbfdfff">
<path fill="#1fbfdf" fill-opacity="0" d=" M 1391.73 1079.96 C 1416.36 1078.44 1441.09 1078.45 1465.74 1079.96 L 1466.72 1080.00 L 1392.72 1080.00 L 1391.73 1079.96 Z" />
</g>
<g id="#5f3fdfff">
<path fill="#5f3fdf" fill-opacity="0" d=" M 1465.74 1079.96 C 1502.02 1078.39 1538.43 1078.39 1574.72 1079.96 L 1575.71 1080.00 L 1466.72 1080.00 L 1465.74 1079.96 Z" />
</g>
<g id="#1f3fdfff">
<path fill="#1f3fdf" fill-opacity="0" d=" M 1574.72 1079.96 C 1597.77 1078.18 1620.90 1079.26 1644.00 1078.98 C 1659.23 1078.77 1674.47 1078.91 1689.70 1079.95 L 1690.70 1080.00 L 1575.71 1080.00 L 1574.72 1079.96 Z" />
</g>
<g id="#9f3fdfff">
<path fill="#9f3fdf" fill-opacity="0" d=" M 1689.70 1079.95 C 1705.08 1078.63 1720.55 1078.88 1736.00 1078.91 L 1736.02 1080.00 L 1690.70 1080.00 L 1689.70 1079.95 Z" />
</g>
<g id="#dfbfdffe">
<path fill="#dfbfdf" fill-opacity="0" d=" M 1736.00 1078.91 C 1745.23 1079.02 1754.47 1079.44 1763.72 1079.95 L 1764.71 1080.00 L 1736.02 1080.00 L 1736.00 1078.91 Z" />
</g>
<g id="#7f1f9fff">
<path fill="#7f1f9f" fill-opacity="0" d=" M 1763.72 1079.95 C 1783.69 1078.38 1803.75 1078.58 1823.74 1079.95 L 1824.71 1080.00 L 1764.71 1080.00 L 1763.72 1079.95 Z" />
</g>
<g id="#9fdf5fff">
<path fill="#9fdf5f" fill-opacity="0" d=" M 1823.74 1079.95 C 1840.12 1078.80 1856.56 1078.81 1873.00 1078.99 L 1873.01 1080.00 L 1824.71 1080.00 L 1823.74 1079.95 Z" />
</g>
<g id="#5f1fdfff">
<path fill="#5f1fdf" fill-opacity="0" d=" M 1873.00 1078.99 C 1888.65 1079.02 1904.32 1078.98 1920.00 1079.00 L 1920.00 1080.00 L 1873.01 1080.00 L 1873.00 1078.99 Z" />
</g>
</svg>
