<?xml version="1.0" encoding="UTF-8" ?>
<!DOCTYPE svg PUBLIC "-//W3C//DTD SVG 1.1//EN" "http://www.w3.org/Graphics/SVG/1.1/DTD/svg11.dtd">
<svg width="1920pt" height="1080pt" viewBox="0 0 1920 1080" version="1.1" xmlns="http://www.w3.org/2000/svg">
<g id="#3f005fff">
<path fill="#3f005f" fill-opacity="0" d=" M 1012.97 180.08 C 1025.09 177.97 1037.42 180.71 1049.63 180.64 C 1052.64 180.71 1054.77 183.40 1056.40 185.64 C 1058.52 197.02 1052.75 208.30 1055.48 219.62 C 1059.24 236.04 1049.97 252.39 1054.12 268.78 C 1058.04 277.40 1067.96 279.88 1076.08 282.77 C 1081.52 285.06 1088.37 285.72 1092.38 290.58 C 1094.96 295.01 1092.93 300.18 1092.06 304.80 C 1081.63 302.53 1070.90 304.44 1060.51 305.79 C 1052.64 306.97 1046.57 313.72 1038.27 313.10 C 1033.39 313.42 1025.84 309.93 1023.22 315.87 C 1020.41 326.74 1023.50 338.55 1019.07 349.12 C 1015.73 357.11 1013.52 365.47 1011.61 373.90 C 1006.05 367.67 1001.43 360.14 993.85 356.14 C 984.02 350.84 974.20 344.67 967.52 335.50 C 960.62 326.81 957.31 315.58 948.96 307.99 C 945.57 304.97 940.75 305.28 936.55 304.50 C 925.86 303.14 921.19 291.07 911.44 287.73 C 908.42 287.08 905.46 287.62 902.51 288.20 C 898.08 289.21 893.84 286.92 889.70 285.72 C 896.04 281.58 894.64 273.67 894.35 267.05 C 899.13 265.17 909.42 266.40 908.10 258.06 C 911.04 236.83 914.73 215.71 917.19 194.42 C 926.45 195.14 935.67 194.23 944.93 193.88 C 946.74 189.44 948.64 185.04 950.65 180.68 C 951.88 183.37 953.08 186.09 954.28 188.80 C 960.28 189.17 966.34 189.52 972.37 189.79 C 973.39 187.16 974.15 184.33 975.90 182.06 C 979.48 181.13 983.22 180.51 986.88 179.85 C 988.35 182.36 989.78 184.91 991.25 187.44 C 998.78 185.92 1005.80 182.74 1012.97 180.08 M 972.81 273.45 C 979.75 280.14 989.67 283.29 999.27 282.38 C 998.60 278.47 997.85 274.57 997.18 270.69 C 992.66 269.08 987.97 267.26 983.12 267.32 C 979.36 268.71 975.97 271.00 972.81 273.45 Z" />
</g>
<g id="#bf3f9fff">
<path fill="#bf3f9f" fill-opacity="0" d=" M 775.43 257.36 C 779.76 256.12 786.71 254.90 789.07 259.64 C 790.53 263.08 792.95 265.90 795.50 268.56 C 798.89 272.13 798.54 277.62 801.45 281.47 C 803.32 282.92 805.64 283.59 807.79 284.54 C 811.79 279.96 815.94 275.52 820.14 271.13 C 819.87 276.29 818.84 281.36 817.90 286.42 C 817.16 290.66 821.07 293.60 823.58 296.42 C 827.96 300.93 834.78 305.42 833.67 312.64 C 829.17 318.60 820.11 320.51 817.75 328.24 C 816.09 331.63 816.03 335.71 813.82 338.83 C 809.38 343.24 801.53 344.53 799.58 351.19 C 798.35 356.04 797.13 360.95 794.43 365.25 L 793.48 365.31 C 785.08 365.98 776.42 367.55 768.10 365.36 C 763.09 364.03 757.96 363.16 752.77 363.23 C 754.20 360.37 755.41 357.42 756.61 354.47 C 750.18 352.56 742.97 353.21 737.01 349.92 C 733.99 346.85 732.35 341.67 734.57 337.69 C 739.27 328.26 747.91 321.36 751.64 311.36 C 747.56 311.06 743.46 311.45 739.40 311.01 C 735.53 310.56 732.88 307.35 730.27 304.80 C 733.62 296.74 727.85 289.00 725.69 281.36 C 729.66 279.51 733.60 277.56 737.58 275.70 C 739.21 279.96 740.13 284.59 742.61 288.47 C 746.05 290.87 750.06 292.36 754.03 293.69 C 754.65 288.11 754.28 282.50 754.07 276.91 C 759.21 275.74 764.39 274.75 769.57 273.75 C 771.38 268.25 772.67 262.47 775.43 257.36 Z" />
</g>
<g id="#bf005fff">
<path fill="#bf005f" fill-opacity="0" d=" M 972.81 273.45 C 975.97 271.00 979.36 268.71 983.12 267.32 C 987.97 267.26 992.66 269.08 997.18 270.69 C 997.85 274.57 998.60 278.47 999.27 282.38 C 989.67 283.29 979.75 280.14 972.81 273.45 Z" />
</g>
<g id="#3fbf9fff">
<path fill="#3fbf9f" fill-opacity="0" d=" M 820.14 271.13 C 828.78 275.75 838.60 277.95 846.97 283.04 C 851.73 288.32 853.36 295.65 856.27 302.02 C 861.16 302.43 866.04 302.79 870.97 303.16 C 870.39 300.52 870.50 298.11 870.13 295.53 C 872.35 294.71 874.56 293.84 876.77 292.94 C 876.99 289.04 877.27 285.15 877.59 281.26 C 881.49 283.08 885.57 284.47 889.70 285.72 C 893.84 286.92 898.08 289.21 902.51 288.20 C 905.46 287.62 908.42 287.08 911.44 287.73 C 921.19 291.07 925.86 303.14 936.55 304.50 C 940.75 305.28 945.57 304.97 948.96 307.99 C 957.31 315.58 960.62 326.81 967.52 335.50 C 974.20 344.67 984.02 350.84 993.85 356.14 C 1001.43 360.14 1006.05 367.67 1011.61 373.90 C 1010.38 377.86 1008.44 381.61 1005.84 384.85 C 1001.42 390.18 998.83 396.68 996.07 402.95 C 993.05 409.94 988.27 415.97 984.28 422.41 C 978.29 420.10 972.10 418.09 967.15 413.85 C 961.40 409.82 957.85 402.69 950.82 400.59 C 946.29 399.79 940.59 399.31 937.28 403.20 C 932.66 408.70 929.97 415.65 924.71 420.66 C 918.91 423.86 912.19 420.43 906.20 422.64 C 903.03 423.79 902.41 427.81 901.37 430.48 C 898.91 437.92 897.67 446.00 899.48 453.73 C 900.13 457.72 901.83 461.69 901.33 465.78 C 900.29 470.30 895.78 473.67 891.27 473.99 C 886.96 470.17 885.14 464.14 880.38 460.78 C 877.21 459.11 873.88 461.44 871.57 463.51 C 862.33 471.70 854.25 482.73 841.42 485.28 C 841.73 480.49 843.34 475.93 843.89 471.18 C 844.03 464.43 839.00 459.05 837.30 452.82 C 837.69 449.07 840.41 445.71 839.75 441.83 C 838.65 435.90 834.51 431.04 833.45 425.10 C 833.75 421.13 837.15 418.32 838.28 414.62 C 839.99 408.33 838.25 401.33 841.28 395.38 C 843.39 391.09 844.03 386.32 844.83 381.67 C 841.52 380.44 837.97 377.17 834.32 379.12 C 833.08 379.58 831.87 380.10 830.67 380.61 C 827.88 375.78 826.40 369.72 821.80 366.25 C 812.88 364.26 803.49 365.34 794.43 365.25 C 797.13 360.95 798.35 356.04 799.58 351.19 C 801.53 344.53 809.38 343.24 813.82 338.83 C 816.03 335.71 816.09 331.63 817.75 328.24 C 820.11 320.51 829.17 318.60 833.67 312.64 C 834.78 305.42 827.96 300.93 823.58 296.42 C 821.07 293.60 817.16 290.66 817.90 286.42 C 818.84 281.36 819.87 276.29 820.14 271.13 Z" />
</g>
<g id="#7f7f5fff">
<path fill="#7f7f5f" fill-opacity="0" d=" M 1060.51 305.79 C 1070.90 304.44 1081.63 302.53 1092.06 304.80 C 1090.81 311.91 1089.75 319.08 1089.63 326.32 C 1099.44 329.09 1109.71 328.92 1119.79 329.89 C 1124.71 336.31 1129.97 342.54 1133.83 349.69 C 1126.28 356.38 1121.15 365.53 1118.44 375.18 C 1116.78 381.94 1115.08 389.82 1108.73 393.84 C 1103.19 397.84 1096.50 393.75 1090.82 392.23 C 1086.76 396.51 1082.91 401.12 1080.76 406.68 C 1078.90 411.38 1076.12 416.30 1070.98 417.96 C 1061.67 420.24 1053.00 415.23 1043.97 414.07 C 1034.04 412.62 1023.98 415.58 1014.07 414.25 C 1007.32 411.91 1002.10 406.63 996.07 402.95 C 998.83 396.68 1001.42 390.18 1005.84 384.85 C 1008.44 381.61 1010.38 377.86 1011.61 373.90 C 1013.52 365.47 1015.73 357.11 1019.07 349.12 C 1023.50 338.55 1020.41 326.74 1023.22 315.87 C 1025.84 309.93 1033.39 313.42 1038.27 313.10 C 1046.57 313.72 1052.64 306.97 1060.51 305.79 Z" />
</g>
<g id="#7f00dfff">
<path fill="#7f00df" fill-opacity="0" d=" M 702.25 317.79 C 712.41 315.85 720.78 308.69 730.27 304.80 C 732.88 307.35 735.53 310.56 739.40 311.01 C 743.46 311.45 747.56 311.06 751.64 311.36 C 747.91 321.36 739.27 328.26 734.57 337.69 C 732.35 341.67 733.99 346.85 737.01 349.92 C 742.97 353.21 750.18 352.56 756.61 354.47 C 755.41 357.42 754.20 360.37 752.77 363.23 C 749.77 369.17 745.97 374.86 744.56 381.47 C 741.52 392.77 743.55 405.34 737.63 415.83 C 733.65 421.00 726.04 420.23 720.46 422.09 C 714.07 424.33 708.67 429.73 701.54 429.59 C 693.47 430.67 686.43 426.85 679.47 423.59 C 674.13 420.71 669.29 425.63 664.73 427.80 C 661.48 429.72 657.57 429.43 653.95 429.45 C 654.91 425.74 655.77 421.92 655.66 418.07 C 654.70 413.48 651.33 409.73 650.57 405.09 C 651.00 395.75 653.83 386.36 651.90 377.04 C 651.16 372.12 648.84 366.61 652.31 362.20 C 656.30 355.18 659.54 347.50 659.56 339.29 C 659.69 334.49 662.69 330.57 665.14 326.68 C 672.23 325.62 678.85 328.11 685.06 331.22 C 687.93 323.70 690.54 316.07 692.61 308.29 C 695.86 311.39 698.53 315.19 702.25 317.79 Z" />
</g>
<g id="#7f3f5fff">
<path fill="#7f3f5f" fill-opacity="0" d=" M 1118.44 375.18 C 1121.15 365.53 1126.28 356.38 1133.83 349.69 C 1137.64 355.85 1141.32 362.35 1147.27 366.72 C 1149.96 369.19 1153.74 371.73 1153.61 375.84 C 1153.31 382.43 1152.43 388.98 1152.07 395.58 C 1155.53 398.58 1158.96 401.68 1163.01 403.93 C 1168.59 407.55 1175.67 409.84 1178.93 416.08 C 1187.99 432.44 1204.49 442.08 1219.26 452.61 C 1230.70 459.06 1240.56 468.13 1247.88 479.04 C 1247.57 481.84 1247.72 484.88 1246.40 487.43 C 1244.84 489.22 1242.65 490.30 1240.58 491.37 C 1234.54 491.78 1228.30 491.07 1222.77 488.61 C 1218.15 486.25 1214.32 482.47 1209.33 480.86 C 1204.83 479.39 1200.01 478.99 1195.31 479.13 C 1187.90 480.10 1181.85 484.78 1175.66 488.57 C 1172.95 490.36 1169.44 489.73 1166.80 488.16 C 1160.37 484.37 1154.49 479.30 1150.72 472.80 C 1146.14 464.07 1139.98 456.34 1134.84 447.96 C 1131.08 441.74 1124.57 437.88 1117.86 435.55 C 1110.57 433.21 1109.24 424.60 1104.28 419.66 C 1097.02 412.06 1095.53 401.28 1090.82 392.23 C 1096.50 393.75 1103.19 397.84 1108.73 393.84 C 1115.08 389.82 1116.78 381.94 1118.44 375.18 Z" />
</g>
<g id="#bf7f5fff">
<path fill="#bf7f5f" fill-opacity="0" d=" M 752.77 363.23 C 757.96 363.16 763.09 364.03 768.10 365.36 C 776.42 367.55 785.08 365.98 793.48 365.31 C 796.03 368.03 799.18 370.54 800.46 374.17 C 800.21 378.94 797.16 382.95 795.33 387.23 C 791.36 395.12 790.26 404.19 785.63 411.76 C 781.50 419.51 772.89 425.01 772.75 434.62 C 772.07 441.27 769.20 447.25 766.55 453.25 C 762.31 469.36 770.64 485.47 768.58 501.67 C 765.02 508.50 757.68 511.99 752.64 517.56 C 749.32 522.36 749.80 529.18 745.18 533.20 C 739.93 537.95 732.11 536.31 725.73 536.41 C 721.02 534.72 715.57 533.81 712.01 530.04 C 707.60 524.68 705.01 517.91 699.38 513.59 C 691.64 507.03 686.46 497.62 677.43 492.62 C 668.41 487.09 658.19 484.04 647.90 481.95 C 645.74 475.46 642.79 469.16 642.14 462.28 C 647.02 457.42 655.17 456.99 658.97 450.82 C 658.31 444.53 652.84 440.04 651.19 434.07 C 651.85 432.39 652.94 430.93 653.95 429.45 C 657.57 429.43 661.48 429.72 664.73 427.80 C 669.29 425.63 674.13 420.71 679.47 423.59 C 686.43 426.85 693.47 430.67 701.54 429.59 C 708.67 429.73 714.07 424.33 720.46 422.09 C 726.04 420.23 733.65 421.00 737.63 415.83 C 743.55 405.34 741.52 392.77 744.56 381.47 C 745.97 374.86 749.77 369.17 752.77 363.23 M 709.73 440.87 C 707.65 441.82 707.56 444.35 707.35 446.31 C 706.68 458.51 706.57 470.75 706.19 482.96 C 713.09 483.02 720.01 483.24 726.93 483.26 C 728.47 477.31 730.96 471.42 730.41 465.14 C 729.22 454.54 724.90 444.68 722.87 434.25 C 718.55 436.58 713.97 438.39 709.73 440.87 Z" />
</g>
<g id="#007fdffe">
<path fill="#007fdf" fill-opacity="0" d=" M 793.48 365.31 L 794.43 365.25 C 803.49 365.34 812.88 364.26 821.80 366.25 C 826.40 369.72 827.88 375.78 830.67 380.61 C 831.87 380.10 833.08 379.58 834.32 379.12 C 837.97 377.17 841.52 380.44 844.83 381.67 C 844.03 386.32 843.39 391.09 841.28 395.38 C 838.25 401.33 839.99 408.33 838.28 414.62 C 837.15 418.32 833.75 421.13 833.45 425.10 C 834.51 431.04 838.65 435.90 839.75 441.83 C 840.41 445.71 837.69 449.07 837.30 452.82 C 839.00 459.05 844.03 464.43 843.89 471.18 C 843.34 475.93 841.73 480.49 841.42 485.28 C 840.38 490.60 841.75 496.78 838.76 501.63 C 833.18 503.28 827.13 502.60 821.36 503.24 C 821.48 507.34 820.93 511.53 821.83 515.56 C 823.92 520.59 829.32 524.02 828.91 530.08 C 829.55 533.45 827.96 537.30 824.49 538.33 C 813.98 541.80 802.33 544.23 793.95 551.99 C 789.18 556.52 790.13 563.56 788.10 569.29 C 786.41 573.06 784.01 576.58 781.05 579.48 C 777.21 581.54 773.35 583.51 769.43 585.38 C 766.67 580.72 764.26 575.52 759.78 572.25 C 754.90 568.69 747.84 569.04 743.77 564.31 C 740.35 558.96 741.59 552.02 738.35 546.59 C 735.43 541.89 730.65 538.72 725.73 536.41 C 732.11 536.31 739.93 537.95 745.18 533.20 C 749.80 529.18 749.32 522.36 752.64 517.56 C 757.68 511.99 765.02 508.50 768.58 501.67 C 770.64 485.47 762.31 469.36 766.55 453.25 C 769.20 447.25 772.07 441.27 772.75 434.62 C 772.89 425.01 781.50 419.51 785.63 411.76 C 790.26 404.19 791.36 395.12 795.33 387.23 C 797.16 382.95 800.21 378.94 800.46 374.17 C 799.18 370.54 796.03 368.03 793.48 365.31 Z" />
</g>
<g id="#00bf5fff">
<path fill="#00bf5f" fill-opacity="0" d=" M 1080.76 406.68 C 1082.91 401.12 1086.76 396.51 1090.82 392.23 C 1095.53 401.28 1097.02 412.06 1104.28 419.66 C 1109.24 424.60 1110.57 433.21 1117.86 435.55 C 1124.57 437.88 1131.08 441.74 1134.84 447.96 C 1139.98 456.34 1146.14 464.07 1150.72 472.80 C 1151.12 477.83 1151.56 483.89 1147.31 487.53 C 1139.50 490.32 1133.51 483.56 1130.62 477.26 C 1127.06 471.49 1123.90 463.16 1116.17 462.42 C 1112.33 461.81 1111.34 466.45 1110.78 469.31 C 1109.78 473.58 1110.63 479.79 1105.69 481.72 C 1100.31 484.13 1094.22 484.21 1088.55 485.45 C 1088.18 490.78 1088.25 496.35 1090.91 501.16 C 1084.58 502.06 1076.67 507.68 1071.28 501.80 C 1063.17 495.42 1060.04 484.60 1051.80 478.33 C 1049.04 476.45 1045.91 475.24 1042.91 473.83 C 1037.49 482.53 1031.20 490.77 1022.47 496.41 C 1019.96 492.75 1017.27 488.42 1012.75 487.14 C 1005.53 487.28 998.36 490.16 991.13 489.24 C 987.08 487.33 985.02 482.87 982.11 479.71 C 979.93 476.17 975.84 473.48 975.06 469.25 C 975.49 463.26 977.61 457.54 978.47 451.61 C 980.63 441.87 977.84 430.92 984.28 422.41 C 988.27 415.97 993.05 409.94 996.07 402.95 C 1002.10 406.63 1007.32 411.91 1014.07 414.25 C 1023.98 415.58 1034.04 412.62 1043.97 414.07 C 1053.00 415.23 1061.67 420.24 1070.98 417.96 C 1076.12 416.30 1078.90 411.38 1080.76 406.68 Z" />
</g>
<g id="#bfbf1ffe">
<path fill="#bfbf1f" fill-opacity="0" d=" M 937.28 403.20 C 940.59 399.31 946.29 399.79 950.82 400.59 C 957.85 402.69 961.40 409.82 967.15 413.85 C 972.10 418.09 978.29 420.10 984.28 422.41 C 977.84 430.92 980.63 441.87 978.47 451.61 C 977.61 457.54 975.49 463.26 975.06 469.25 C 975.84 473.48 979.93 476.17 982.11 479.71 C 985.02 482.87 987.08 487.33 991.13 489.24 C 998.36 490.16 1005.53 487.28 1012.75 487.14 C 1017.27 488.42 1019.96 492.75 1022.47 496.41 C 1023.50 499.03 1024.70 501.79 1024.48 504.67 C 1019.83 513.31 1010.30 518.05 1005.77 526.78 C 1002.90 531.39 1000.56 537.09 995.01 538.95 C 983.54 543.25 970.64 537.22 959.48 542.35 C 953.59 544.34 951.78 551.35 953.01 556.95 C 955.80 567.93 965.71 575.55 967.54 586.91 C 967.11 589.53 965.39 591.68 963.86 593.77 C 960.13 598.37 955.60 602.28 950.82 605.74 C 942.98 610.86 933.23 609.44 924.35 610.23 C 916.73 612.71 910.29 617.85 902.85 620.77 C 898.35 622.44 893.69 619.68 889.48 618.47 C 878.75 614.34 867.51 610.56 855.89 610.71 C 850.62 610.74 845.47 612.49 840.21 612.25 C 832.11 611.14 824.40 607.45 816.18 607.21 C 812.20 607.12 809.28 610.17 807.40 613.34 C 802.84 609.97 797.33 607.53 793.82 602.98 C 792.71 598.17 796.36 593.47 795.16 588.66 C 792.33 583.39 786.28 581.47 781.05 579.48 C 784.01 576.58 786.41 573.06 788.10 569.29 C 790.13 563.56 789.18 556.52 793.95 551.99 C 802.33 544.23 813.98 541.80 824.49 538.33 C 827.96 537.30 829.55 533.45 828.91 530.08 C 829.32 524.02 823.92 520.59 821.83 515.56 C 820.93 511.53 821.48 507.34 821.36 503.24 C 827.13 502.60 833.18 503.28 838.76 501.63 C 841.75 496.78 840.38 490.60 841.42 485.28 C 854.25 482.73 862.33 471.70 871.57 463.51 C 873.88 461.44 877.21 459.11 880.38 460.78 C 885.14 464.14 886.96 470.17 891.27 473.99 C 895.78 473.67 900.29 470.30 901.33 465.78 C 901.83 461.69 900.13 457.72 899.48 453.73 C 897.67 446.00 898.91 437.92 901.37 430.48 C 902.41 427.81 903.03 423.79 906.20 422.64 C 912.19 420.43 918.91 423.86 924.71 420.66 C 929.97 415.65 932.66 408.70 937.28 403.20 M 893.43 518.42 C 890.55 521.10 891.59 525.27 891.67 528.74 C 893.39 529.05 895.15 529.38 896.89 529.71 C 898.90 525.88 901.05 522.11 903.17 518.33 C 899.96 517.91 896.51 516.91 893.43 518.42 M 920.72 573.49 C 921.31 578.29 922.02 583.09 922.74 587.88 C 927.71 587.03 932.73 586.39 937.72 585.51 C 936.68 581.74 936.93 577.47 934.98 574.04 C 930.66 571.49 925.35 572.52 920.72 573.49 Z" />
</g>
<g id="#3f00dfff">
<path fill="#3f00df" fill-opacity="0" d=" M 709.73 440.87 C 713.97 438.39 718.55 436.58 722.87 434.25 C 724.90 444.68 729.22 454.54 730.41 465.14 C 730.96 471.42 728.47 477.31 726.93 483.26 C 720.01 483.24 713.09 483.02 706.19 482.96 C 706.57 470.75 706.68 458.51 707.35 446.31 C 707.56 444.35 707.65 441.82 709.73 440.87 Z" />
</g>
<g id="#3f7fdfff">
<path fill="#3f7fdf" fill-opacity="0" d=" M 1110.78 469.31 C 1111.34 466.45 1112.33 461.81 1116.17 462.42 C 1123.90 463.16 1127.06 471.49 1130.62 477.26 C 1133.51 483.56 1139.50 490.32 1147.31 487.53 C 1151.56 483.89 1151.12 477.83 1150.72 472.80 C 1154.49 479.30 1160.37 484.37 1166.80 488.16 C 1169.44 489.73 1172.95 490.36 1175.66 488.57 C 1181.85 484.78 1187.90 480.10 1195.31 479.13 C 1200.01 478.99 1204.83 479.39 1209.33 480.86 C 1214.32 482.47 1218.15 486.25 1222.77 488.61 C 1228.30 491.07 1234.54 491.78 1240.58 491.37 C 1245.43 495.63 1243.79 502.18 1243.74 507.80 C 1243.53 518.91 1239.75 529.50 1237.38 540.25 C 1236.03 546.52 1236.87 553.01 1235.93 559.34 C 1234.29 565.54 1227.90 569.32 1226.55 575.63 C 1226.12 581.04 1228.06 586.29 1228.78 591.61 C 1225.12 595.73 1219.82 598.95 1219.02 604.87 C 1217.00 612.74 1213.77 620.21 1210.25 627.51 C 1193.30 627.94 1176.43 626.26 1159.53 625.60 C 1143.85 624.05 1131.32 612.97 1121.26 601.71 C 1116.19 595.16 1110.16 589.44 1104.94 583.03 C 1098.69 575.49 1099.09 563.60 1105.20 556.10 C 1109.97 550.19 1116.20 544.92 1118.31 537.34 C 1118.90 534.00 1119.23 530.00 1116.80 527.32 C 1111.75 521.22 1103.72 518.49 1098.70 512.35 C 1095.83 508.82 1093.12 505.14 1090.91 501.16 C 1088.25 496.35 1088.18 490.78 1088.55 485.45 C 1094.22 484.21 1100.31 484.13 1105.69 481.72 C 1110.63 479.79 1109.78 473.58 1110.78 469.31 M 1178.54 539.37 C 1179.50 541.35 1180.28 543.49 1181.70 545.22 C 1186.12 547.51 1191.20 548.04 1195.98 549.18 C 1195.94 547.85 1195.91 546.53 1195.89 545.21 C 1190.14 543.17 1184.61 540.31 1178.54 539.37 Z" />
</g>
<g id="#7f005fff">
<path fill="#7f005f" fill-opacity="0" d=" M 1022.47 496.41 C 1031.20 490.77 1037.49 482.53 1042.91 473.83 C 1045.91 475.24 1049.04 476.45 1051.80 478.33 C 1060.04 484.60 1063.17 495.42 1071.28 501.80 C 1076.67 507.68 1084.58 502.06 1090.91 501.16 C 1093.12 505.14 1095.83 508.82 1098.70 512.35 C 1103.72 518.49 1111.75 521.22 1116.80 527.32 C 1119.23 530.00 1118.90 534.00 1118.31 537.34 C 1116.20 544.92 1109.97 550.19 1105.20 556.10 C 1099.09 563.60 1098.69 575.49 1104.94 583.03 C 1110.16 589.44 1116.19 595.16 1121.26 601.71 C 1114.80 604.10 1108.00 606.81 1101.00 605.02 C 1092.04 605.32 1083.12 598.44 1074.54 603.42 C 1069.26 610.27 1075.92 618.08 1078.14 624.76 C 1083.09 640.19 1084.05 656.56 1087.79 672.30 C 1079.47 669.70 1071.79 664.04 1068.03 656.04 C 1064.65 650.39 1063.68 643.00 1057.91 639.04 C 1054.84 636.61 1050.53 637.57 1047.50 639.52 C 1043.66 642.14 1041.08 646.19 1039.00 650.27 C 1035.97 645.65 1032.86 641.01 1028.94 637.09 C 1023.34 632.02 1015.19 631.21 1007.98 632.02 C 999.66 632.58 991.45 630.58 983.45 628.56 C 982.00 624.30 979.49 619.92 980.40 615.28 C 982.94 610.49 986.76 606.51 989.83 602.06 C 981.53 598.26 972.51 596.54 963.86 593.77 C 965.39 591.68 967.11 589.53 967.54 586.91 C 965.71 575.55 955.80 567.93 953.01 556.95 C 951.78 551.35 953.59 544.34 959.48 542.35 C 970.64 537.22 983.54 543.25 995.01 538.95 C 1000.56 537.09 1002.90 531.39 1005.77 526.78 C 1010.30 518.05 1019.83 513.31 1024.48 504.67 C 1024.70 501.79 1023.50 499.03 1022.47 496.41 M 999.73 555.89 C 1004.20 558.66 1008.79 561.24 1013.28 564.01 C 1018.02 557.17 1022.35 550.07 1026.89 543.10 C 1025.06 540.76 1023.30 538.37 1021.60 535.95 C 1013.92 542.16 1006.94 549.16 999.73 555.89 Z" />
</g>
<g id="#bf3f1ffe">
<path fill="#bf3f1f" fill-opacity="0" d=" M 1247.88 479.04 C 1260.82 491.46 1275.25 502.71 1284.73 518.25 C 1290.88 528.92 1301.23 537.10 1304.94 549.11 C 1306.70 553.89 1303.86 558.62 1301.90 562.85 C 1295.03 576.88 1283.16 587.43 1274.02 599.86 C 1273.04 603.66 1275.16 607.82 1273.45 611.58 C 1270.66 618.50 1271.37 626.09 1271.46 633.40 C 1271.73 638.44 1268.24 642.56 1265.08 646.09 C 1259.44 652.01 1254.01 658.12 1248.31 663.98 C 1250.76 658.20 1254.72 653.21 1258.69 648.39 C 1252.53 644.51 1246.34 640.66 1240.29 636.63 C 1236.55 634.16 1233.13 631.10 1228.99 629.32 C 1223.01 626.78 1216.53 627.50 1210.25 627.51 C 1213.77 620.21 1217.00 612.74 1219.02 604.87 C 1219.82 598.95 1225.12 595.73 1228.78 591.61 C 1228.06 586.29 1226.12 581.04 1226.55 575.63 C 1227.90 569.32 1234.29 565.54 1235.93 559.34 C 1236.87 553.01 1236.03 546.52 1237.38 540.25 C 1239.75 529.50 1243.53 518.91 1243.74 507.80 C 1243.79 502.18 1245.43 495.63 1240.58 491.37 C 1242.65 490.30 1244.84 489.22 1246.40 487.43 C 1247.72 484.88 1247.57 481.84 1247.88 479.04 Z" />
</g>
<g id="#0000dfff">
<path fill="#0000df" fill-opacity="0" d=" M 647.90 481.95 C 658.19 484.04 668.41 487.09 677.43 492.62 C 686.46 497.62 691.64 507.03 699.38 513.59 C 705.01 517.91 707.60 524.68 712.01 530.04 C 715.57 533.81 721.02 534.72 725.73 536.41 C 730.65 538.72 735.43 541.89 738.35 546.59 C 741.59 552.02 740.35 558.96 743.77 564.31 C 747.84 569.04 754.90 568.69 759.78 572.25 C 764.26 575.52 766.67 580.72 769.43 585.38 C 773.35 583.51 777.21 581.54 781.05 579.48 C 786.28 581.47 792.33 583.39 795.16 588.66 C 796.36 593.47 792.71 598.17 793.82 602.98 C 797.33 607.53 802.84 609.97 807.40 613.34 C 805.13 618.14 800.65 620.95 795.97 623.02 C 790.35 627.28 788.28 634.64 788.76 641.43 C 789.69 646.09 788.05 651.30 784.00 653.94 C 780.11 655.25 775.95 653.82 772.08 653.07 C 769.28 652.19 765.83 651.87 763.97 649.33 C 762.32 646.03 761.07 642.63 759.67 639.27 C 758.71 638.77 757.76 638.27 756.82 637.78 C 754.81 640.05 752.52 642.19 751.14 644.94 C 748.95 650.45 751.00 656.40 749.82 662.06 C 749.24 665.69 747.65 669.14 747.38 672.82 C 747.81 675.21 749.49 677.13 750.82 679.09 C 742.61 675.69 733.94 673.08 725.00 672.84 C 722.30 672.55 719.46 672.40 717.09 670.94 C 706.35 664.63 698.35 654.76 691.08 644.87 C 688.03 640.79 687.30 635.57 686.97 630.64 C 675.70 624.92 664.39 618.64 655.70 609.31 C 643.50 593.77 627.70 579.66 623.04 559.72 C 621.02 552.70 622.00 545.26 621.48 538.09 C 620.17 532.49 615.57 527.55 616.28 521.52 C 616.22 514.72 621.24 509.22 626.39 505.45 C 632.75 502.37 639.36 507.48 645.85 506.82 C 651.66 504.54 656.23 496.71 651.91 491.06 C 650.69 487.95 649.26 484.97 647.90 481.95 Z" />
</g>
<g id="#41419dff">
<path fill="#41419d" fill-opacity="0" d=" M 893.43 518.42 C 896.51 516.91 899.96 517.91 903.17 518.33 C 901.05 522.11 898.90 525.88 896.89 529.71 C 895.15 529.38 893.39 529.05 891.67 528.74 C 891.59 525.27 890.55 521.10 893.43 518.42 Z" />
</g>
<g id="#007f5fff">
<path fill="#007f5f" fill-opacity="0" d=" M 999.73 555.89 C 1006.94 549.16 1013.92 542.16 1021.60 535.95 C 1023.30 538.37 1025.06 540.76 1026.89 543.10 C 1022.35 550.07 1018.02 557.17 1013.28 564.01 C 1008.79 561.24 1004.20 558.66 999.73 555.89 Z" />
</g>
<g id="#bf7fdffe">
<path fill="#bf7fdf" fill-opacity="0" d=" M 1178.54 539.37 C 1184.61 540.31 1190.14 543.17 1195.89 545.21 C 1195.91 546.53 1195.94 547.85 1195.98 549.18 C 1191.20 548.04 1186.12 547.51 1181.70 545.22 C 1180.28 543.49 1179.50 541.35 1178.54 539.37 Z" />
</g>
<g id="#bf00dfff">
<path fill="#bf00df" fill-opacity="0" d=" M 920.72 573.49 C 925.35 572.52 930.66 571.49 934.98 574.04 C 936.93 577.47 936.68 581.74 937.72 585.51 C 932.73 586.39 927.71 587.03 922.74 587.88 C 922.02 583.09 921.31 578.29 920.72 573.49 Z" />
</g>
<g id="#7f3f9fff">
<path fill="#7f3f9f" fill-opacity="0" d=" M 950.82 605.74 C 955.60 602.28 960.13 598.37 963.86 593.77 C 972.51 596.54 981.53 598.26 989.83 602.06 C 986.76 606.51 982.94 610.49 980.40 615.28 C 979.49 619.92 982.00 624.30 983.45 628.56 C 981.58 633.19 979.90 638.53 975.24 641.11 C 968.07 645.15 960.19 648.37 954.20 654.18 C 949.83 658.39 947.41 664.60 941.81 667.47 C 937.82 669.72 932.93 671.55 930.81 675.91 C 929.46 682.36 935.48 688.74 932.15 694.98 C 930.55 699.72 927.66 703.84 924.31 707.50 C 908.34 708.35 891.23 712.64 875.84 706.22 C 867.46 702.02 859.90 696.12 853.43 689.35 C 849.63 683.64 845.41 678.23 840.59 673.36 C 836.03 668.79 835.82 661.78 832.41 656.54 C 829.66 653.11 825.44 651.06 821.15 650.40 C 817.84 649.78 814.12 649.99 811.40 647.68 C 805.30 643.10 804.79 634.85 802.44 628.16 C 800.70 626.00 798.18 624.63 795.97 623.02 C 800.65 620.95 805.13 618.14 807.40 613.34 C 809.28 610.17 812.20 607.12 816.18 607.21 C 824.40 607.45 832.11 611.14 840.21 612.25 C 845.47 612.49 850.62 610.74 855.89 610.71 C 867.51 610.56 878.75 614.34 889.48 618.47 C 893.69 619.68 898.35 622.44 902.85 620.77 C 910.29 617.85 916.73 612.71 924.35 610.23 C 933.23 609.44 942.98 610.86 950.82 605.74 Z" />
</g>
<g id="#003f5fff">
<path fill="#003f5f" fill-opacity="0" d=" M 1074.54 603.42 C 1083.12 598.44 1092.04 605.32 1101.00 605.02 C 1108.00 606.81 1114.80 604.10 1121.26 601.71 C 1131.32 612.97 1143.85 624.05 1159.53 625.60 C 1176.43 626.26 1193.30 627.94 1210.25 627.51 C 1216.53 627.50 1223.01 626.78 1228.99 629.32 C 1233.13 631.10 1236.55 634.16 1240.29 636.63 C 1246.34 640.66 1252.53 644.51 1258.69 648.39 C 1254.72 653.21 1250.76 658.20 1248.31 663.98 C 1244.51 672.22 1246.62 682.00 1242.03 689.96 C 1235.41 702.01 1228.03 713.64 1221.94 725.99 C 1220.77 728.37 1219.32 730.87 1219.51 733.63 C 1219.79 743.00 1222.34 752.78 1219.23 761.94 C 1209.38 763.30 1199.56 764.80 1189.70 766.02 C 1181.12 756.37 1168.64 752.52 1157.89 746.11 C 1149.54 740.68 1143.28 732.73 1136.79 725.34 C 1133.38 725.79 1130.06 726.28 1126.69 726.76 C 1129.87 719.87 1133.09 712.96 1135.26 705.68 C 1135.28 702.20 1131.79 699.83 1129.89 697.27 C 1125.13 692.98 1120.70 688.34 1115.92 684.08 C 1108.05 677.07 1097.33 675.81 1087.79 672.30 C 1084.05 656.56 1083.09 640.19 1078.14 624.76 C 1075.92 618.08 1069.26 610.27 1074.54 603.42 Z" />
</g>
<g id="#3f7f5fff">
<path fill="#3f7f5f" fill-opacity="0" d=" M 788.76 641.43 C 788.28 634.64 790.35 627.28 795.97 623.02 C 798.18 624.63 800.70 626.00 802.44 628.16 C 804.79 634.85 805.30 643.10 811.40 647.68 C 814.12 649.99 817.84 649.78 821.15 650.40 C 825.44 651.06 829.66 653.11 832.41 656.54 C 835.82 661.78 836.03 668.79 840.59 673.36 C 845.41 678.23 849.63 683.64 853.43 689.35 C 851.81 696.04 851.15 702.95 849.09 709.54 C 846.68 716.57 844.51 723.70 843.09 731.02 C 840.16 749.75 830.90 767.26 818.11 781.13 C 810.05 789.96 814.09 802.99 810.62 813.51 C 808.26 819.15 813.81 823.24 817.69 826.25 C 812.23 826.74 806.71 828.15 801.22 827.28 C 796.37 825.77 792.42 822.35 787.93 820.10 C 778.17 815.41 766.24 818.97 756.91 813.14 C 748.65 808.49 738.29 805.43 733.22 796.87 C 734.17 785.39 742.53 776.30 746.64 765.86 C 750.97 754.12 750.93 741.37 754.67 729.50 C 755.50 726.79 756.92 724.06 759.49 722.64 C 763.86 721.65 768.37 722.77 772.82 722.66 C 776.93 718.05 780.43 712.44 780.85 706.14 C 777.66 701.89 772.70 699.53 768.49 696.45 C 761.57 691.82 756.37 685.19 750.82 679.09 C 749.49 677.13 747.81 675.21 747.38 672.82 C 747.65 669.14 749.24 665.69 749.82 662.06 C 751.00 656.40 748.95 650.45 751.14 644.94 C 752.52 642.19 754.81 640.05 756.82 637.78 C 757.76 638.27 758.71 638.77 759.67 639.27 C 761.07 642.63 762.32 646.03 763.97 649.33 C 765.83 651.87 769.28 652.19 772.08 653.07 C 775.95 653.82 780.11 655.25 784.00 653.94 C 788.05 651.30 789.69 646.09 788.76 641.43 Z" />
</g>
<g id="#bfbf9fff">
<path fill="#bfbf9f" fill-opacity="0" d=" M 983.45 628.56 C 991.45 630.58 999.66 632.58 1007.98 632.02 C 1015.19 631.21 1023.34 632.02 1028.94 637.09 C 1032.86 641.01 1035.97 645.65 1039.00 650.27 C 1037.21 657.00 1038.23 664.06 1036.90 670.86 C 1034.47 686.94 1023.98 699.91 1014.37 712.36 C 1006.07 720.99 1000.98 732.07 992.75 740.74 C 987.92 746.04 983.49 751.69 978.84 757.15 C 975.02 760.90 971.12 764.74 966.45 767.43 C 961.77 770.14 956.25 767.44 952.32 764.55 C 951.27 761.04 950.70 757.27 948.72 754.12 C 944.67 748.17 933.42 750.99 931.64 743.48 C 931.77 735.01 940.60 729.25 940.24 720.61 C 939.21 716.92 938.82 712.74 936.35 709.70 C 932.83 707.39 928.36 707.51 924.31 707.50 C 927.66 703.84 930.55 699.72 932.15 694.98 C 935.48 688.74 929.46 682.36 930.81 675.91 C 932.93 671.55 937.82 669.72 941.81 667.47 C 947.41 664.60 949.83 658.39 954.20 654.18 C 960.19 648.37 968.07 645.15 975.24 641.11 C 979.90 638.53 981.58 633.19 983.45 628.56 Z" />
</g>
<g id="#00005fff">
<path fill="#00005f" fill-opacity="0" d=" M 1047.50 639.52 C 1050.53 637.57 1054.84 636.61 1057.91 639.04 C 1063.68 643.00 1064.65 650.39 1068.03 656.04 C 1071.79 664.04 1079.47 669.70 1087.79 672.30 C 1097.33 675.81 1108.05 677.07 1115.92 684.08 C 1120.70 688.34 1125.13 692.98 1129.89 697.27 C 1131.79 699.83 1135.28 702.20 1135.26 705.68 C 1133.09 712.96 1129.87 719.87 1126.69 726.76 C 1120.62 737.53 1118.05 749.80 1112.23 760.67 C 1106.25 760.69 1100.28 760.17 1094.40 761.42 C 1092.70 764.15 1091.66 767.21 1090.38 770.14 L 1090.14 770.65 C 1085.85 776.62 1079.43 781.71 1071.84 782.19 C 1067.74 782.76 1063.00 781.66 1059.53 784.43 C 1055.53 789.16 1055.75 795.86 1054.93 801.64 C 1054.65 805.68 1050.11 807.46 1046.77 808.37 C 1041.48 807.24 1037.81 802.27 1032.43 801.42 C 1026.17 805.80 1021.09 812.04 1018.61 819.33 C 1016.90 824.54 1013.71 829.25 1009.41 832.66 C 1003.37 837.36 996.85 843.48 988.50 842.03 C 977.78 833.81 969.35 822.71 963.42 810.61 C 961.19 806.32 963.21 801.36 963.91 796.98 C 965.04 788.83 970.39 782.41 974.90 775.89 C 978.65 770.47 978.97 763.53 978.84 757.15 C 983.49 751.69 987.92 746.04 992.75 740.74 C 1000.98 732.07 1006.07 720.99 1014.37 712.36 C 1023.98 699.91 1034.47 686.94 1036.90 670.86 C 1038.23 664.06 1037.21 657.00 1039.00 650.27 C 1041.08 646.19 1043.66 642.14 1047.50 639.52 Z" />
</g>
<g id="#3fbf1fff">
<path fill="#3fbf1f" fill-opacity="0" d=" M 853.43 689.35 C 859.90 696.12 867.46 702.02 875.84 706.22 C 891.23 712.64 908.34 708.35 924.31 707.50 C 928.36 707.51 932.83 707.39 936.35 709.70 C 938.82 712.74 939.21 716.92 940.24 720.61 C 940.60 729.25 931.77 735.01 931.64 743.48 C 933.42 750.99 944.67 748.17 948.72 754.12 C 950.70 757.27 951.27 761.04 952.32 764.55 C 947.00 776.47 929.97 776.32 926.00 789.03 C 924.05 794.52 919.96 798.91 915.33 802.32 C 906.87 808.65 898.57 815.37 888.89 819.79 C 883.39 822.43 877.10 825.63 875.23 831.95 C 873.32 838.78 873.35 846.33 869.47 852.50 C 865.43 859.01 863.00 866.34 858.87 872.79 C 857.32 875.65 855.31 878.49 854.95 881.79 C 855.79 883.96 857.34 885.76 858.63 887.68 C 852.49 889.13 846.36 891.70 839.93 891.03 C 833.20 889.51 827.44 885.13 822.68 880.33 C 820.80 878.31 818.84 875.66 819.76 872.76 C 823.11 859.91 823.74 846.55 824.31 833.35 C 824.31 829.58 820.10 828.32 817.69 826.25 C 813.81 823.24 808.26 819.15 810.62 813.51 C 814.09 802.99 810.05 789.96 818.11 781.13 C 830.90 767.26 840.16 749.75 843.09 731.02 C 844.51 723.70 846.68 716.57 849.09 709.54 C 851.15 702.95 851.81 696.04 853.43 689.35 Z" />
</g>
<g id="#7fbf9fff">
<path fill="#7fbf9f" fill-opacity="0" d=" M 1126.69 726.76 C 1130.06 726.28 1133.38 725.79 1136.79 725.34 C 1143.28 732.73 1149.54 740.68 1157.89 746.11 C 1168.64 752.52 1181.12 756.37 1189.70 766.02 C 1186.35 769.63 1183.07 773.84 1178.12 775.25 C 1168.14 778.52 1158.32 782.40 1148.02 784.54 C 1144.29 785.42 1140.26 786.53 1138.06 790.03 C 1133.87 794.10 1133.52 802.01 1138.29 805.73 C 1142.64 809.81 1149.77 808.59 1153.83 813.06 C 1153.46 816.84 1152.31 820.73 1149.26 823.24 C 1141.53 830.02 1132.43 835.50 1122.43 838.11 C 1118.24 839.42 1113.69 840.30 1110.44 843.44 C 1105.11 848.45 1103.63 855.96 1099.68 861.89 C 1098.05 864.49 1094.75 864.76 1092.00 865.07 C 1086.15 865.46 1080.42 868.29 1076.69 872.81 C 1075.13 874.56 1074.90 877.00 1075.41 879.20 C 1076.79 886.97 1079.93 894.25 1082.66 901.61 C 1083.98 905.69 1084.63 909.95 1085.64 914.15 C 1081.72 916.47 1078.22 920.38 1073.19 919.82 C 1068.35 917.27 1064.52 913.09 1059.52 910.84 C 1055.89 910.46 1052.31 910.59 1048.70 910.66 C 1054.14 907.27 1058.51 902.39 1061.81 896.93 C 1062.74 894.94 1061.91 892.68 1061.58 890.65 C 1060.37 886.28 1059.72 881.21 1055.63 878.44 C 1051.11 874.21 1046.26 869.92 1044.16 863.88 C 1041.61 859.61 1042.98 853.62 1038.76 850.30 C 1030.21 842.69 1020.78 835.36 1009.41 832.66 C 1013.71 829.25 1016.90 824.54 1018.61 819.33 C 1021.09 812.04 1026.17 805.80 1032.43 801.42 C 1037.81 802.27 1041.48 807.24 1046.77 808.37 C 1050.11 807.46 1054.65 805.68 1054.93 801.64 C 1055.75 795.86 1055.53 789.16 1059.53 784.43 C 1063.00 781.66 1067.74 782.76 1071.84 782.19 C 1079.43 781.71 1085.85 776.62 1090.14 770.65 C 1089.65 779.72 1089.54 788.82 1089.16 797.90 C 1092.77 797.92 1099.98 797.97 1103.58 797.99 C 1103.95 786.27 1104.92 773.66 1097.90 763.48 C 1095.35 765.66 1092.79 767.82 1090.38 770.14 C 1091.66 767.21 1092.70 764.15 1094.40 761.42 C 1100.28 760.17 1106.25 760.69 1112.23 760.67 C 1118.05 749.80 1120.62 737.53 1126.69 726.76 Z" />
</g>
<g id="#00bf9fff">
<path fill="#00bf9f" fill-opacity="0" d=" M 966.45 767.43 C 971.12 764.74 975.02 760.90 978.84 757.15 C 978.97 763.53 978.65 770.47 974.90 775.89 C 970.39 782.41 965.04 788.83 963.91 796.98 C 963.21 801.36 961.19 806.32 963.42 810.61 C 969.35 822.71 977.78 833.81 988.50 842.03 C 996.85 843.48 1003.37 837.36 1009.41 832.66 C 1020.78 835.36 1030.21 842.69 1038.76 850.30 C 1042.98 853.62 1041.61 859.61 1044.16 863.88 C 1046.26 869.92 1051.11 874.21 1055.63 878.44 C 1059.72 881.21 1060.37 886.28 1061.58 890.65 C 1061.91 892.68 1062.74 894.94 1061.81 896.93 C 1058.51 902.39 1054.14 907.27 1048.70 910.66 C 1042.35 912.57 1034.54 911.16 1030.53 905.55 C 1025.73 899.26 1022.82 890.20 1014.85 887.24 C 1007.56 887.29 1001.71 893.48 994.35 893.19 C 984.59 889.09 976.37 882.23 967.71 876.31 C 955.77 870.54 941.80 876.51 929.61 871.50 C 922.44 869.18 915.38 863.66 907.51 866.34 C 900.12 868.76 899.81 877.80 896.44 883.54 C 892.93 887.67 886.61 884.66 882.11 884.99 C 874.10 883.65 866.26 885.51 858.63 887.68 C 857.34 885.76 855.79 883.96 854.95 881.79 C 855.31 878.49 857.32 875.65 858.87 872.79 C 863.00 866.34 865.43 859.01 869.47 852.50 C 873.35 846.33 873.32 838.78 875.23 831.95 C 877.10 825.63 883.39 822.43 888.89 819.79 C 898.57 815.37 906.87 808.65 915.33 802.32 C 919.96 798.91 924.05 794.52 926.00 789.03 C 929.97 776.32 947.00 776.47 952.32 764.55 C 956.25 767.44 961.77 770.14 966.45 767.43 Z" />
</g>
<g id="#7f7fdeff">
<path fill="#7f7fde" fill-opacity="0" d=" M 1189.70 766.02 C 1199.56 764.80 1209.38 763.30 1219.23 761.94 C 1211.71 775.71 1203.46 789.23 1198.20 804.08 C 1195.80 813.78 1198.53 824.22 1195.77 833.83 C 1188.17 849.77 1176.06 862.95 1167.01 878.03 C 1160.34 887.18 1159.24 898.99 1158.44 909.93 C 1159.98 916.42 1163.15 922.43 1165.92 928.48 C 1162.90 929.28 1159.88 929.96 1156.86 930.53 C 1149.88 930.32 1144.62 921.50 1137.47 924.71 C 1131.72 927.77 1125.83 931.56 1119.13 931.72 C 1114.09 929.69 1110.80 924.68 1107.91 920.35 C 1107.55 913.99 1108.57 907.65 1108.93 901.33 C 1101.07 898.70 1092.86 897.26 1084.60 896.74 C 1083.95 898.35 1083.31 899.98 1082.66 901.61 C 1079.93 894.25 1076.79 886.97 1075.41 879.20 C 1074.90 877.00 1075.13 874.56 1076.69 872.81 C 1080.42 868.29 1086.15 865.46 1092.00 865.07 C 1094.75 864.76 1098.05 864.49 1099.68 861.89 C 1103.63 855.96 1105.11 848.45 1110.44 843.44 C 1113.69 840.30 1118.24 839.42 1122.43 838.11 C 1132.43 835.50 1141.53 830.02 1149.26 823.24 C 1152.31 820.73 1153.46 816.84 1153.83 813.06 C 1149.77 808.59 1142.64 809.81 1138.29 805.73 C 1133.52 802.01 1133.87 794.10 1138.06 790.03 C 1140.26 786.53 1144.29 785.42 1148.02 784.54 C 1158.32 782.40 1168.14 778.52 1178.12 775.25 C 1183.07 773.84 1186.35 769.63 1189.70 766.02 Z" />
</g>
<g id="#3f3f1fff">
<path fill="#3f3f1f" fill-opacity="0" d=" M 1097.90 763.48 C 1104.92 773.66 1103.95 786.27 1103.58 797.99 C 1099.98 797.97 1092.77 797.92 1089.16 797.90 C 1089.54 788.82 1089.65 779.72 1090.14 770.65 L 1090.38 770.14 C 1092.79 767.82 1095.35 765.66 1097.90 763.48 Z" />
</g>
<g id="#3f7fbfff">
<path fill="#3f7fbf" fill-opacity="0" d=" M 0.00 1079.00 C 5.67 1078.98 11.33 1078.99 17.00 1079.01 L 17.00 1080.00 L 0.00 1080.00 L 0.00 1079.00 Z" />
</g>
<g id="#7f7fbfff">
<path fill="#7f7fbf" fill-opacity="0" d=" M 17.00 1079.01 C 39.26 1078.96 61.53 1078.55 83.76 1079.97 L 84.64 1080.00 L 17.00 1080.00 L 17.00 1079.01 Z" />
</g>
<g id="#0000bfff">
<path fill="#0000bf" fill-opacity="0" d=" M 83.76 1079.97 C 107.07 1078.37 130.46 1078.59 153.78 1079.97 L 154.65 1080.00 L 84.64 1080.00 L 83.76 1079.97 Z" />
</g>
<g id="#7fbf3fff">
<path fill="#7fbf3f" fill-opacity="0" d=" M 153.78 1079.97 C 168.17 1079.11 182.58 1078.76 197.00 1078.95 C 223.91 1079.23 250.85 1078.26 277.74 1079.97 L 278.63 1080.00 L 154.65 1080.00 L 153.78 1079.97 Z" />
</g>
<g id="#7fdf00ff">
<path fill="#7fdf00" fill-opacity="0" d=" M 277.74 1079.97 C 291.13 1078.96 304.57 1078.82 318.00 1078.94 C 343.26 1079.17 368.54 1078.34 393.76 1079.97 L 394.65 1080.00 L 278.63 1080.00 L 277.74 1079.97 Z" />
</g>
<g id="#bfdf00ff">
<path fill="#bfdf00" fill-opacity="0" d=" M 393.76 1079.97 C 406.75 1078.97 419.77 1078.99 432.76 1079.96 L 433.67 1080.00 L 394.65 1080.00 L 393.76 1079.97 Z" />
</g>
<g id="#001f3fff">
<path fill="#001f3f" fill-opacity="0" d=" M 432.76 1079.96 C 447.49 1078.99 462.24 1078.78 477.00 1078.96 C 503.92 1079.24 530.86 1078.25 557.76 1079.97 L 558.65 1080.00 L 433.67 1080.00 L 432.76 1079.96 Z" />
</g>
<g id="#bf1fbfff">
<path fill="#bf1fbf" fill-opacity="0" d=" M 557.76 1079.97 C 579.14 1078.46 600.58 1079.01 622.00 1079.01 C 647.25 1079.12 672.52 1078.35 697.74 1079.97 L 698.63 1080.00 L 558.65 1080.00 L 557.76 1079.97 Z" />
</g>
<g id="#bf9f7fff">
<path fill="#bf9f7f" fill-opacity="0" d=" M 697.74 1079.97 C 726.11 1078.02 754.58 1079.35 783.00 1079.01 C 811.59 1079.22 840.21 1078.21 868.78 1079.97 L 869.65 1080.00 L 698.63 1080.00 L 697.74 1079.97 Z" />
</g>
<g id="#3fdf7fff">
<path fill="#3fdf7f" fill-opacity="0" d=" M 868.78 1079.97 C 921.81 1077.81 974.93 1079.56 1028.00 1079.00 L 1028.01 1080.00 L 869.65 1080.00 L 868.78 1079.97 Z" />
</g>
<g id="#2f3fbffe">
<path fill="#2f3fbf" fill-opacity="0" d=" M 1028.00 1079.00 C 1037.32 1078.99 1046.65 1078.98 1056.00 1079.00 L 1056.02 1080.00 L 1028.01 1080.00 L 1028.00 1079.00 Z" />
<path fill="#2f3fbf" fill-opacity="0" d=" M 1391.74 1079.97 C 1410.38 1078.36 1429.11 1078.76 1447.78 1079.96 L 1448.64 1080.00 L 1392.63 1080.00 L 1391.74 1079.97 Z" />
</g>
<g id="#7f5f7fff">
<path fill="#7f5f7f" fill-opacity="0" d=" M 1056.00 1079.00 C 1082.33 1078.99 1108.66 1078.99 1135.00 1079.00 L 1134.99 1080.00 L 1056.02 1080.00 L 1056.00 1079.00 Z" />
</g>
<g id="#2f3fbfff">
<path fill="#2f3fbf" fill-opacity="0" d=" M 1135.00 1079.00 C 1184.25 1079.53 1233.55 1077.85 1282.78 1079.97 L 1283.65 1080.00 L 1134.99 1080.00 L 1135.00 1079.00 Z" />
<path fill="#2f3fbf" fill-opacity="0" d=" M 1477.00 1078.93 C 1514.33 1079.05 1551.66 1078.97 1589.00 1079.01 C 1614.25 1079.11 1639.52 1078.36 1664.76 1079.97 L 1665.64 1080.00 L 1477.00 1080.00 L 1477.00 1078.93 Z" />
</g>
<g id="#2f3f3fff">
<path fill="#2f3f3f" fill-opacity="0" d=" M 1282.78 1079.97 C 1319.06 1078.38 1355.45 1078.43 1391.74 1079.97 L 1392.63 1080.00 L 1283.65 1080.00 L 1282.78 1079.97 Z" />
<path fill="#2f3f3f" fill-opacity="0" d=" M 1447.78 1079.96 C 1457.50 1079.51 1467.23 1078.96 1477.00 1078.93 L 1477.00 1080.00 L 1448.64 1080.00 L 1447.78 1079.96 Z" />
<path fill="#2f3f3f" fill-opacity="0" d=" M 1664.76 1079.97 C 1687.80 1078.36 1710.91 1079.09 1734.00 1079.01 C 1796.00 1078.99 1858.00 1079.00 1920.00 1079.00 L 1920.00 1080.00 L 1665.64 1080.00 L 1664.76 1079.97 Z" />
</g>
</svg>
