<?xml version="1.0" encoding="UTF-8" ?>
<!DOCTYPE svg PUBLIC "-//W3C//DTD SVG 1.1//EN" "http://www.w3.org/Graphics/SVG/1.1/DTD/svg11.dtd">
<svg width="1920pt" height="1080pt" viewBox="0 0 1920 1080" version="1.1" xmlns="http://www.w3.org/2000/svg">
<g id="#6f7f5ffe">
<path fill="#6f7f5f" fill-opacity="0" d=" M 1290.45 224.41 C 1294.52 219.15 1299.71 214.89 1304.08 209.89 C 1306.34 220.96 1308.80 232.99 1303.80 243.74 C 1293.97 266.05 1286.38 289.41 1274.97 310.99 C 1270.88 316.57 1273.31 323.64 1273.86 329.93 L 1273.16 329.98 C 1258.00 331.10 1242.88 332.59 1227.69 333.29 C 1218.54 333.93 1209.13 335.63 1201.07 340.21 C 1192.88 346.22 1186.85 354.62 1180.04 362.04 C 1172.60 369.42 1164.43 376.24 1155.14 381.15 C 1143.24 386.70 1131.88 393.62 1119.15 397.20 C 1114.93 398.43 1110.65 399.42 1106.32 400.09 C 1103.25 398.07 1100.16 396.00 1097.16 393.96 C 1096.62 389.63 1097.19 384.45 1093.93 381.07 C 1089.50 378.20 1083.85 378.51 1078.78 377.78 C 1071.75 376.89 1064.08 379.05 1057.65 375.27 C 1053.54 372.33 1051.23 367.64 1048.41 363.59 C 1053.12 358.06 1056.00 351.45 1057.23 344.31 C 1050.82 343.79 1044.30 344.00 1038.09 345.78 C 1035.12 346.68 1031.12 346.36 1029.96 342.94 C 1030.80 338.28 1034.17 334.60 1037.67 331.64 C 1046.73 323.90 1057.59 318.77 1068.03 313.19 C 1071.72 310.92 1075.96 309.26 1079.00 306.09 C 1084.21 297.58 1084.06 287.18 1086.97 277.85 C 1090.14 268.08 1094.10 258.34 1099.88 249.82 C 1110.73 239.70 1123.04 231.03 1136.38 224.50 C 1139.96 222.88 1143.96 223.91 1147.69 224.38 C 1157.93 224.76 1163.97 234.42 1173.02 237.84 C 1185.62 242.99 1199.49 238.47 1212.24 242.80 C 1217.90 246.15 1219.24 253.59 1224.17 257.63 C 1234.62 262.07 1245.80 265.25 1257.25 265.32 C 1259.58 265.25 1261.98 264.40 1263.53 262.58 C 1273.44 250.54 1281.71 237.29 1290.45 224.41 M 1089.01 289.49 C 1090.45 294.22 1090.94 299.42 1093.29 303.85 C 1100.46 308.46 1109.17 309.98 1117.07 312.95 C 1122.97 307.64 1128.78 302.23 1134.56 296.78 C 1132.83 294.03 1131.29 291.18 1129.72 288.35 C 1116.14 288.50 1102.59 289.80 1089.01 289.49 M 1145.62 319.57 C 1138.19 326.55 1130.93 333.89 1122.08 339.10 C 1104.28 350.20 1086.54 361.39 1068.76 372.53 C 1084.52 375.84 1100.07 380.24 1115.94 382.99 C 1127.73 382.64 1138.90 378.42 1150.28 375.71 C 1157.93 373.82 1165.79 371.22 1171.61 365.63 C 1185.53 352.29 1199.69 339.19 1213.38 325.63 C 1195.54 323.16 1177.65 320.94 1159.86 318.09 C 1155.29 317.84 1149.36 315.67 1145.62 319.57 Z" />
</g>
<g id="#2f7fdfff">
<path fill="#2f7fdf" fill-opacity="0" d=" M 865.70 248.80 C 870.63 246.36 876.27 243.65 881.78 246.21 C 888.72 247.51 891.97 254.78 893.35 261.03 C 894.51 271.01 895.73 281.04 898.39 290.76 C 900.12 299.97 908.23 305.55 914.02 312.22 C 924.47 306.71 934.81 300.93 945.86 296.66 C 944.84 303.88 943.89 311.24 941.21 318.07 C 938.93 321.06 935.12 322.29 931.86 323.90 C 920.30 329.31 907.36 332.89 898.01 342.03 C 890.27 347.90 890.42 358.96 883.65 365.61 C 875.17 373.73 866.50 382.77 854.78 385.91 C 849.90 387.37 846.73 380.43 841.85 382.56 C 837.04 385.06 834.03 389.98 829.41 392.76 C 819.66 398.04 808.33 399.25 797.42 398.69 C 790.11 398.32 782.67 398.31 775.63 396.15 C 771.25 394.45 769.42 389.80 767.20 386.05 C 762.70 387.02 757.45 386.65 753.59 389.55 C 748.50 395.08 746.42 402.76 741.22 408.23 C 737.85 411.76 733.29 413.77 728.72 415.23 C 721.76 417.39 715.33 421.08 709.66 425.63 C 697.09 435.52 683.91 444.60 671.15 454.24 C 666.90 457.11 666.54 462.67 664.76 467.10 C 669.55 469.21 674.62 471.01 678.81 474.18 C 681.77 478.89 683.18 484.40 685.58 489.41 C 681.54 500.27 673.76 508.84 666.57 517.66 C 660.95 517.30 654.94 516.83 649.86 519.80 C 641.61 524.32 634.28 531.27 624.64 532.67 C 611.67 534.82 598.87 537.88 585.79 539.36 C 571.23 540.89 556.68 542.57 542.15 544.43 C 545.59 536.82 548.14 528.48 547.30 520.05 C 546.66 514.02 542.53 508.33 544.29 502.24 C 550.81 491.93 562.69 486.67 570.17 477.21 C 574.82 469.50 575.37 459.88 573.06 451.30 C 570.79 438.71 565.50 425.23 572.14 413.10 C 577.53 404.65 585.53 398.33 593.57 392.54 C 602.18 385.54 613.45 383.42 623.54 379.43 C 633.02 375.59 642.98 372.94 652.18 368.43 C 661.14 363.51 670.31 357.93 676.36 349.46 C 678.94 343.24 679.69 336.39 680.46 329.74 C 680.45 322.47 678.74 315.33 677.91 308.13 C 695.59 306.32 713.93 306.39 730.62 299.52 C 737.73 297.04 742.20 290.43 748.32 286.35 C 752.66 283.61 757.41 280.57 762.74 280.49 C 770.45 280.75 777.91 284.28 785.69 283.27 C 799.34 278.66 811.81 270.23 826.39 268.55 C 833.00 267.73 839.73 269.29 846.31 268.08 C 854.24 263.25 857.87 253.77 865.70 248.80 Z" />
</g>
<g id="#ef005fff">
<path fill="#ef005f" fill-opacity="0" d=" M 1089.01 289.49 C 1102.59 289.80 1116.14 288.50 1129.72 288.35 C 1131.29 291.18 1132.83 294.03 1134.56 296.78 C 1128.78 302.23 1122.97 307.64 1117.07 312.95 C 1109.17 309.98 1100.46 308.46 1093.29 303.85 C 1090.94 299.42 1090.45 294.22 1089.01 289.49 Z" />
</g>
<g id="#af3f5fff">
<path fill="#af3f5f" fill-opacity="0" d=" M 976.23 291.62 C 987.86 290.48 999.33 293.04 1010.82 294.38 C 1020.87 296.42 1030.91 298.94 1040.50 302.63 C 1049.23 307.22 1058.66 310.21 1068.03 313.19 C 1057.59 318.77 1046.73 323.90 1037.67 331.64 C 1034.17 334.60 1030.80 338.28 1029.96 342.94 C 1031.12 346.36 1035.12 346.68 1038.09 345.78 C 1044.30 344.00 1050.82 343.79 1057.23 344.31 C 1056.00 351.45 1053.12 358.06 1048.41 363.59 C 1051.23 367.64 1053.54 372.33 1057.65 375.27 C 1064.08 379.05 1071.75 376.89 1078.78 377.78 C 1083.85 378.51 1089.50 378.20 1093.93 381.07 C 1097.19 384.45 1096.62 389.63 1097.16 393.96 C 1100.16 396.00 1103.25 398.07 1106.32 400.09 C 1098.29 400.53 1091.03 403.86 1084.26 407.95 C 1078.20 406.08 1072.13 404.04 1065.79 403.48 C 1058.61 402.78 1051.20 403.13 1044.29 400.76 C 1037.78 399.06 1030.69 396.01 1024.13 399.19 C 1014.40 402.67 1007.04 410.54 997.68 414.74 C 990.61 417.78 983.24 412.77 975.99 413.89 C 962.20 415.94 951.05 425.35 937.81 429.06 C 924.41 432.07 913.71 441.14 902.40 448.36 C 885.27 459.30 874.35 477.01 859.85 490.83 C 849.29 499.60 838.86 508.53 828.11 517.06 C 820.62 522.81 810.77 523.62 802.00 526.04 C 792.19 527.81 782.72 531.68 774.91 537.93 C 767.99 543.53 760.84 548.85 753.13 553.30 C 757.49 530.73 761.49 508.11 765.65 485.50 C 753.57 487.35 741.33 486.31 729.20 487.23 C 714.66 487.98 700.08 487.95 685.58 489.41 C 683.18 484.40 681.77 478.89 678.81 474.18 C 674.62 471.01 669.55 469.21 664.76 467.10 C 666.54 462.67 666.90 457.11 671.15 454.24 C 683.91 444.60 697.09 435.52 709.66 425.63 C 715.33 421.08 721.76 417.39 728.72 415.23 C 733.29 413.77 737.85 411.76 741.22 408.23 C 746.42 402.76 748.50 395.08 753.59 389.55 C 757.45 386.65 762.70 387.02 767.20 386.05 C 769.42 389.80 771.25 394.45 775.63 396.15 C 782.67 398.31 790.11 398.32 797.42 398.69 C 808.33 399.25 819.66 398.04 829.41 392.76 C 834.03 389.98 837.04 385.06 841.85 382.56 C 846.73 380.43 849.90 387.37 854.78 385.91 C 866.50 382.77 875.17 373.73 883.65 365.61 C 890.42 358.96 890.27 347.90 898.01 342.03 C 907.36 332.89 920.30 329.31 931.86 323.90 C 935.12 322.29 938.93 321.06 941.21 318.07 C 943.89 311.24 944.84 303.88 945.86 296.66 C 955.80 294.03 965.89 291.86 976.23 291.62 Z" />
</g>
<g id="#6f00dfff">
<path fill="#6f00df" fill-opacity="0" d=" M 1145.62 319.57 C 1149.36 315.67 1155.29 317.84 1159.86 318.09 C 1177.65 320.94 1195.54 323.16 1213.38 325.63 C 1199.69 339.19 1185.53 352.29 1171.61 365.63 C 1165.79 371.22 1157.93 373.82 1150.28 375.71 C 1138.90 378.42 1127.73 382.64 1115.94 382.99 C 1100.07 380.24 1084.52 375.84 1068.76 372.53 C 1086.54 361.39 1104.28 350.20 1122.08 339.10 C 1130.93 333.89 1138.19 326.55 1145.62 319.57 Z" />
</g>
<g id="#ef7f5fff">
<path fill="#ef7f5f" fill-opacity="0" d=" M 1227.69 333.29 C 1242.88 332.59 1258.00 331.10 1273.16 329.98 C 1271.51 335.68 1269.27 341.20 1266.66 346.53 C 1268.06 349.33 1269.39 352.19 1270.76 355.02 C 1256.01 367.98 1239.56 378.83 1224.91 391.90 C 1212.68 401.57 1206.35 416.33 1200.00 430.12 C 1196.37 440.20 1192.00 450.97 1194.37 461.87 C 1195.15 468.56 1197.71 474.91 1201.39 480.52 C 1203.81 484.93 1207.51 489.72 1206.12 495.06 C 1203.83 504.47 1199.74 513.32 1196.29 522.33 C 1191.45 533.72 1187.00 545.30 1181.52 556.40 L 1180.98 557.47 C 1177.69 551.09 1176.98 543.86 1174.82 537.11 C 1174.09 535.15 1173.40 532.76 1171.26 531.94 C 1165.68 529.45 1158.91 529.88 1154.05 525.78 C 1154.79 521.32 1157.57 517.56 1159.55 513.60 C 1156.15 505.60 1148.37 501.37 1140.83 498.04 C 1142.38 488.49 1151.74 482.42 1152.75 472.78 C 1153.60 465.18 1145.50 458.68 1149.27 451.25 C 1153.27 445.06 1158.62 439.85 1162.86 433.82 C 1166.35 428.60 1171.92 423.90 1171.82 417.02 C 1171.62 412.99 1169.67 409.30 1168.51 405.52 C 1153.63 403.81 1139.92 410.99 1125.98 414.93 C 1122.07 415.66 1118.02 417.01 1114.06 415.96 C 1109.14 408.95 1115.19 402.57 1119.15 397.20 C 1131.88 393.62 1143.24 386.70 1155.14 381.15 C 1164.43 376.24 1172.60 369.42 1180.04 362.04 C 1186.85 354.62 1192.88 346.22 1201.07 340.21 C 1209.13 335.63 1218.54 333.93 1227.69 333.29 Z" />
</g>
<g id="#6f005fff">
<path fill="#6f005f" fill-opacity="0" d=" M 1224.91 391.90 C 1239.56 378.83 1256.01 367.98 1270.76 355.02 C 1272.96 357.32 1275.17 359.68 1277.77 361.56 C 1283.56 365.76 1291.68 363.92 1297.21 368.74 C 1304.89 374.29 1313.85 380.45 1315.69 390.47 C 1318.03 398.02 1314.29 405.64 1315.92 413.22 C 1317.61 419.32 1320.00 425.37 1320.15 431.77 C 1319.63 438.25 1318.19 444.63 1316.92 450.99 C 1315.51 458.19 1310.84 464.08 1307.78 470.61 C 1307.10 471.73 1307.24 473.07 1307.73 474.25 C 1310.63 482.02 1314.78 489.24 1318.18 496.79 C 1319.10 498.60 1317.99 500.54 1317.38 502.26 C 1313.06 512.17 1306.62 520.95 1301.30 530.31 C 1292.94 542.79 1286.45 557.08 1274.23 566.42 C 1268.08 561.48 1262.97 554.87 1255.80 551.39 C 1246.17 550.81 1236.33 553.49 1227.82 557.85 C 1221.32 564.80 1214.79 571.74 1206.97 577.27 C 1201.76 574.62 1196.10 572.38 1192.18 567.90 C 1188.74 563.96 1185.66 559.66 1181.52 556.40 C 1187.00 545.30 1191.45 533.72 1196.29 522.33 C 1199.74 513.32 1203.83 504.47 1206.12 495.06 C 1207.51 489.72 1203.81 484.93 1201.39 480.52 C 1197.71 474.91 1195.15 468.56 1194.37 461.87 C 1192.00 450.97 1196.37 440.20 1200.00 430.12 C 1206.35 416.33 1212.68 401.57 1224.91 391.90 M 1278.98 370.99 C 1278.98 372.32 1278.98 373.66 1279.01 375.00 C 1279.77 374.99 1281.29 374.98 1282.04 374.97 C 1282.00 374.28 1281.91 372.90 1281.87 372.21 C 1280.89 371.80 1279.93 371.40 1278.98 370.99 Z" />
</g>
<g id="#ef00dfff">
<path fill="#ef00df" fill-opacity="0" d=" M 1278.98 370.99 C 1279.93 371.40 1280.89 371.80 1281.87 372.21 C 1281.91 372.90 1282.00 374.28 1282.04 374.97 C 1281.29 374.98 1279.77 374.99 1279.01 375.00 C 1278.98 373.66 1278.98 372.32 1278.98 370.99 Z" />
</g>
<g id="#2f3f5fff">
<path fill="#2f3f5f" fill-opacity="0" d=" M 1024.13 399.19 C 1030.69 396.01 1037.78 399.06 1044.29 400.76 C 1051.20 403.13 1058.61 402.78 1065.79 403.48 C 1072.13 404.04 1078.20 406.08 1084.26 407.95 C 1079.01 411.04 1073.61 413.98 1068.94 417.93 C 1064.94 421.75 1061.69 426.25 1058.09 430.42 C 1062.71 432.64 1068.84 434.15 1071.11 439.24 C 1071.26 452.48 1065.14 465.49 1068.22 478.75 C 1062.67 481.59 1057.28 486.23 1050.70 485.55 C 1046.13 485.50 1041.44 483.80 1036.95 485.14 C 1029.60 489.04 1024.03 495.44 1017.75 500.74 C 1012.80 504.78 1004.95 502.53 1000.71 507.60 C 994.12 515.30 990.34 524.86 985.47 533.62 C 983.62 537.12 979.69 538.50 976.39 540.23 C 970.76 531.32 966.12 519.86 955.13 516.57 C 947.08 512.78 940.20 520.62 932.98 522.95 C 915.14 530.42 895.79 524.08 877.26 525.75 C 871.30 532.79 865.52 540.05 861.33 548.33 C 855.06 560.64 850.70 573.99 843.03 585.56 C 838.13 593.27 830.08 597.74 822.82 602.85 C 815.52 607.85 817.09 618.38 811.75 624.72 C 799.87 632.74 786.22 638.03 774.86 646.84 C 763.91 656.89 753.34 667.41 743.61 678.65 C 741.65 680.40 743.23 682.93 744.05 684.85 C 753.13 701.72 761.98 718.73 771.70 735.25 C 779.99 752.16 789.79 768.27 798.02 785.20 C 790.42 776.40 786.95 765.00 780.36 755.59 C 775.76 752.86 769.66 754.29 764.88 751.99 C 759.56 745.27 755.74 737.53 751.20 730.28 C 734.90 702.11 718.57 673.95 701.65 646.14 C 698.54 640.78 694.90 635.21 694.86 628.82 C 694.83 624.80 693.46 620.98 692.92 617.05 C 699.24 609.01 708.07 603.35 714.14 595.09 C 720.45 587.11 726.55 578.94 733.48 571.47 C 739.70 565.09 745.14 557.63 753.13 553.30 C 760.84 548.85 767.99 543.53 774.91 537.93 C 782.72 531.68 792.19 527.81 802.00 526.04 C 810.77 523.62 820.62 522.81 828.11 517.06 C 838.86 508.53 849.29 499.60 859.85 490.83 C 874.35 477.01 885.27 459.30 902.40 448.36 C 913.71 441.14 924.41 432.07 937.81 429.06 C 951.05 425.35 962.20 415.94 975.99 413.89 C 983.24 412.77 990.61 417.78 997.68 414.74 C 1007.04 410.54 1014.40 402.67 1024.13 399.19 Z" />
</g>
<g id="#af7fdfff">
<path fill="#af7fdf" fill-opacity="0" d=" M 1106.32 400.09 C 1110.65 399.42 1114.93 398.43 1119.15 397.20 C 1115.19 402.57 1109.14 408.95 1114.06 415.96 C 1118.02 417.01 1122.07 415.66 1125.98 414.93 C 1139.92 410.99 1153.63 403.81 1168.51 405.52 C 1169.67 409.30 1171.62 412.99 1171.82 417.02 C 1171.92 423.90 1166.35 428.60 1162.86 433.82 C 1158.62 439.85 1153.27 445.06 1149.27 451.25 C 1145.50 458.68 1153.60 465.18 1152.75 472.78 C 1151.74 482.42 1142.38 488.49 1140.83 498.04 C 1148.37 501.37 1156.15 505.60 1159.55 513.60 C 1157.57 517.56 1154.79 521.32 1154.05 525.78 C 1158.91 529.88 1165.68 529.45 1171.26 531.94 C 1173.40 532.76 1174.09 535.15 1174.82 537.11 C 1176.98 543.86 1177.69 551.09 1180.98 557.47 C 1187.55 567.87 1187.67 581.21 1181.99 591.97 C 1173.67 607.73 1169.08 625.58 1157.41 639.43 C 1154.22 643.20 1150.44 646.41 1146.91 649.84 C 1140.43 648.51 1133.52 648.31 1127.44 645.57 C 1124.97 642.02 1122.06 638.37 1121.35 633.99 C 1122.49 627.52 1125.56 621.48 1125.72 614.79 C 1118.01 618.44 1109.84 621.13 1102.45 625.44 C 1099.83 627.41 1097.14 624.49 1095.33 622.78 C 1093.14 619.33 1092.37 615.19 1090.34 611.66 C 1087.38 606.50 1083.72 601.79 1080.52 596.78 C 1070.01 606.29 1068.27 621.26 1065.25 634.36 C 1060.27 655.16 1045.55 671.45 1033.26 688.28 C 1027.94 694.86 1022.75 701.65 1016.36 707.24 C 1018.64 696.38 1019.64 685.29 1021.57 674.36 C 1014.83 669.85 1004.31 667.68 1002.06 658.75 C 1000.24 652.70 1003.81 647.02 1007.32 642.39 C 1016.88 631.26 1027.08 620.69 1036.46 609.42 C 1045.27 599.89 1050.61 586.99 1050.77 574.00 C 1051.12 565.76 1045.79 558.85 1043.98 551.06 C 1042.99 547.51 1046.24 544.70 1047.89 541.94 C 1056.55 530.69 1068.34 521.91 1075.02 509.14 C 1076.39 505.46 1077.04 501.24 1075.40 497.55 C 1072.83 491.35 1069.87 485.28 1068.22 478.75 C 1065.14 465.49 1071.26 452.48 1071.11 439.24 C 1068.84 434.15 1062.71 432.64 1058.09 430.42 C 1061.69 426.25 1064.94 421.75 1068.94 417.93 C 1073.61 413.98 1079.01 411.04 1084.26 407.95 C 1091.03 403.86 1098.29 400.53 1106.32 400.09 Z" />
</g>
<g id="#ef7fdffe">
<path fill="#ef7fdf" fill-opacity="0" d=" M 1050.70 485.55 C 1057.28 486.23 1062.67 481.59 1068.22 478.75 C 1069.87 485.28 1072.83 491.35 1075.40 497.55 C 1077.04 501.24 1076.39 505.46 1075.02 509.14 C 1068.34 521.91 1056.55 530.69 1047.89 541.94 C 1046.24 544.70 1042.99 547.51 1043.98 551.06 C 1045.79 558.85 1051.12 565.76 1050.77 574.00 C 1050.61 586.99 1045.27 599.89 1036.46 609.42 C 1027.08 620.69 1016.88 631.26 1007.32 642.39 C 1003.81 647.02 1000.24 652.70 1002.06 658.75 C 1004.31 667.68 1014.83 669.85 1021.57 674.36 C 1019.64 685.29 1018.64 696.38 1016.36 707.24 C 1015.98 708.96 1014.77 710.32 1013.77 711.72 C 1005.78 721.50 998.70 731.99 990.81 741.86 C 985.98 747.66 984.88 755.49 980.57 761.61 C 973.27 769.64 962.91 776.05 951.73 775.78 C 945.35 775.98 942.96 768.77 938.43 765.55 C 933.69 760.11 926.65 756.60 919.32 757.83 C 912.99 760.93 907.08 765.09 902.67 770.64 C 900.15 773.90 896.80 776.39 893.02 778.01 C 897.62 798.93 902.67 819.74 906.97 840.72 C 899.18 841.33 891.41 842.84 883.57 842.27 C 877.89 839.48 872.78 835.59 866.99 833.01 C 858.36 828.82 848.14 828.41 840.15 822.84 C 830.62 813.35 821.32 803.38 809.93 796.06 C 805.71 792.76 800.63 790.06 798.02 785.20 C 789.79 768.27 779.99 752.16 771.70 735.25 C 761.98 718.73 753.13 701.72 744.05 684.85 C 743.23 682.93 741.65 680.40 743.61 678.65 C 753.34 667.41 763.91 656.89 774.86 646.84 C 786.22 638.03 799.87 632.74 811.75 624.72 C 817.09 618.38 815.52 607.85 822.82 602.85 C 830.08 597.74 838.13 593.27 843.03 585.56 C 850.70 573.99 855.06 560.64 861.33 548.33 C 865.52 540.05 871.30 532.79 877.26 525.75 C 895.79 524.08 915.14 530.42 932.98 522.95 C 940.20 520.62 947.08 512.78 955.13 516.57 C 966.12 519.86 970.76 531.32 976.39 540.23 C 979.69 538.50 983.62 537.12 985.47 533.62 C 990.34 524.86 994.12 515.30 1000.71 507.60 C 1004.95 502.53 1012.80 504.78 1017.75 500.74 C 1024.03 495.44 1029.60 489.04 1036.95 485.14 C 1041.44 483.80 1046.13 485.50 1050.70 485.55 Z" />
</g>
<g id="#6f7fdfff">
<path fill="#6f7fdf" fill-opacity="0" d=" M 729.20 487.23 C 741.33 486.31 753.57 487.35 765.65 485.50 C 761.49 508.11 757.49 530.73 753.13 553.30 C 745.14 557.63 739.70 565.09 733.48 571.47 C 726.55 578.94 720.45 587.11 714.14 595.09 C 708.07 603.35 699.24 609.01 692.92 617.05 C 693.46 620.98 694.83 624.80 694.86 628.82 C 694.90 635.21 698.54 640.78 701.65 646.14 C 718.57 673.95 734.90 702.11 751.20 730.28 C 741.11 728.71 730.90 727.94 720.97 725.45 C 711.34 725.79 702.26 729.69 692.65 730.35 C 692.31 733.56 692.52 736.79 692.46 740.02 C 678.85 735.78 664.15 731.76 654.16 720.85 C 623.37 684.61 592.85 648.16 562.21 611.80 C 551.90 599.85 541.37 587.54 535.24 572.84 C 532.90 566.35 531.78 558.11 536.26 552.28 C 538.16 549.61 540.21 547.06 542.15 544.43 C 556.68 542.57 571.23 540.89 585.79 539.36 C 598.87 537.88 611.67 534.82 624.64 532.67 C 634.28 531.27 641.61 524.32 649.86 519.80 C 654.94 516.83 660.95 517.30 666.57 517.66 C 673.76 508.84 681.54 500.27 685.58 489.41 C 700.08 487.95 714.66 487.98 729.20 487.23 Z" />
</g>
</svg>
