<?xml version="1.0" encoding="UTF-8" ?>
<!DOCTYPE svg PUBLIC "-//W3C//DTD SVG 1.1//EN" "http://www.w3.org/Graphics/SVG/1.1/DTD/svg11.dtd">
<svg width="1920pt" height="1080pt" viewBox="0 0 1920 1080" version="1.1" xmlns="http://www.w3.org/2000/svg">
<g id="#df9f00ff">
<path fill="#df9f00" fill-opacity="0" d=" M 1198.81 187.73 C 1203.06 184.60 1207.82 182.05 1211.36 178.03 C 1216.08 180.66 1222.86 184.22 1226.88 178.71 C 1229.73 180.91 1232.92 182.71 1235.45 185.31 C 1235.65 188.60 1233.69 192.21 1235.69 195.23 C 1237.25 198.54 1239.74 201.52 1240.59 205.14 C 1240.67 209.27 1238.62 213.11 1237.87 217.10 C 1242.78 216.24 1247.70 214.92 1252.73 215.17 C 1254.89 217.60 1255.83 220.81 1257.15 223.73 C 1260.15 224.73 1264.50 224.32 1265.87 227.78 C 1267.71 232.60 1271.19 236.42 1275.44 239.22 C 1276.24 242.30 1273.98 246.74 1276.79 249.29 C 1279.07 253.12 1283.56 250.86 1286.90 250.30 C 1289.08 255.44 1293.32 258.95 1298.28 261.30 C 1293.87 272.45 1288.11 282.99 1283.48 294.04 C 1282.32 293.69 1281.18 293.34 1280.06 292.98 C 1278.02 289.73 1275.70 286.69 1273.31 283.72 C 1275.12 279.82 1276.96 275.91 1278.72 271.97 C 1271.44 269.52 1262.22 262.44 1255.44 269.42 C 1252.37 275.16 1257.39 281.94 1254.85 287.85 C 1251.10 292.10 1244.95 292.96 1239.57 293.17 C 1232.51 291.42 1225.29 290.39 1218.07 289.66 C 1218.67 272.95 1215.78 256.19 1210.44 240.42 C 1201.25 232.44 1189.68 227.63 1179.23 221.44 C 1181.02 217.16 1182.31 212.65 1184.56 208.57 C 1186.43 205.24 1190.44 204.33 1193.35 202.20 C 1196.06 197.78 1196.26 192.25 1198.81 187.73 Z" />
</g>
<g id="#1fdf7fff">
<path fill="#1fdf7f" fill-opacity="0" d=" M 1179.23 221.44 C 1189.68 227.63 1201.25 232.44 1210.44 240.42 C 1215.78 256.19 1218.67 272.95 1218.07 289.66 C 1213.93 292.33 1209.75 294.92 1205.60 297.55 C 1202.02 294.02 1198.24 290.69 1194.26 287.62 C 1191.58 291.45 1189.90 296.18 1186.24 299.18 C 1181.44 301.64 1175.80 300.90 1170.60 301.53 C 1169.66 298.95 1168.73 296.37 1167.81 293.79 C 1164.20 295.22 1160.41 296.26 1157.06 298.23 C 1152.88 300.67 1152.09 306.29 1147.76 308.57 C 1142.82 311.55 1136.91 312.11 1131.67 314.40 L 1131.29 314.57 C 1123.78 298.94 1111.42 286.64 1100.37 273.56 C 1101.40 269.16 1102.35 264.74 1103.22 260.30 C 1106.66 261.50 1110.01 263.33 1113.69 263.68 C 1116.92 261.67 1118.88 258.26 1121.27 255.38 C 1123.76 255.90 1126.24 256.67 1128.82 256.64 C 1131.57 255.14 1133.26 252.27 1135.91 250.62 C 1139.99 249.78 1144.16 250.37 1147.99 251.85 C 1151.26 253.40 1153.59 249.52 1156.26 248.25 C 1159.51 245.53 1165.92 248.16 1166.98 243.10 C 1169.24 235.02 1173.49 227.56 1179.23 221.44 Z" />
</g>
<g id="#9f9f3ffe">
<path fill="#9f9f3f" fill-opacity="0" d=" M 1055.96 267.08 C 1064.41 264.16 1072.84 267.73 1080.85 270.23 C 1087.08 272.59 1093.81 272.75 1100.37 273.56 C 1111.42 286.64 1123.78 298.94 1131.29 314.57 C 1123.10 319.33 1116.78 326.60 1109.19 332.17 C 1100.57 338.50 1092.70 345.90 1083.61 351.58 C 1079.19 354.40 1073.51 355.31 1068.89 352.24 C 1056.68 347.87 1047.16 333.29 1032.61 337.40 C 1027.13 329.04 1022.06 320.35 1015.20 313.02 C 1017.28 309.92 1020.47 307.64 1022.11 304.26 C 1023.77 297.86 1022.45 290.92 1024.63 284.64 C 1025.50 281.50 1029.80 281.91 1032.03 280.84 C 1041.03 278.22 1047.77 271.28 1055.96 267.08 Z" />
</g>
<g id="#9f1fbfff">
<path fill="#9f1fbf" fill-opacity="0" d=" M 1255.44 269.42 C 1262.22 262.44 1271.44 269.52 1278.72 271.97 C 1276.96 275.91 1275.12 279.82 1273.31 283.72 C 1275.70 286.69 1278.02 289.73 1280.06 292.98 C 1276.80 296.85 1273.67 301.17 1272.30 306.09 C 1273.00 309.44 1275.37 312.13 1276.98 315.09 C 1280.82 322.77 1293.28 315.93 1297.29 323.55 C 1301.22 330.49 1308.63 334.56 1312.24 341.72 C 1306.91 349.43 1301.75 357.30 1297.82 365.85 C 1294.70 365.87 1292.04 366.02 1289.04 366.08 C 1288.24 368.39 1287.49 370.71 1286.94 373.09 C 1289.90 374.71 1292.71 376.58 1295.36 378.69 C 1291.02 386.76 1286.54 394.77 1281.57 402.47 C 1281.13 402.29 1280.24 401.93 1279.80 401.75 C 1281.73 396.47 1284.54 391.58 1287.10 386.58 C 1285.06 386.57 1283.04 386.56 1281.03 386.52 C 1279.98 384.36 1279.11 382.06 1277.56 380.21 C 1275.54 379.21 1273.23 379.94 1271.25 380.63 C 1265.51 383.09 1260.28 386.52 1255.12 389.99 C 1250.93 387.21 1247.13 383.58 1242.32 381.97 C 1238.75 381.61 1235.44 383.51 1232.19 384.70 C 1232.35 378.69 1233.54 372.74 1233.42 366.74 C 1233.38 362.29 1229.95 358.92 1227.00 356.01 C 1228.72 345.20 1232.52 334.90 1235.12 324.30 C 1237.08 314.00 1238.32 303.57 1239.57 293.17 C 1244.95 292.96 1251.10 292.10 1254.85 287.85 C 1257.39 281.94 1252.37 275.16 1255.44 269.42 Z" />
</g>
<g id="#1f1f3fff">
<path fill="#1f1f3f" fill-opacity="0" d=" M 1186.24 299.18 C 1189.90 296.18 1191.58 291.45 1194.26 287.62 C 1198.24 290.69 1202.02 294.02 1205.60 297.55 C 1209.75 294.92 1213.93 292.33 1218.07 289.66 C 1225.29 290.39 1232.51 291.42 1239.57 293.17 C 1238.32 303.57 1237.08 314.00 1235.12 324.30 C 1232.52 334.90 1228.72 345.20 1227.00 356.01 C 1224.55 354.45 1221.95 352.82 1219.00 352.56 C 1212.63 352.87 1206.70 355.46 1200.66 357.16 C 1198.10 357.83 1195.16 357.72 1193.02 356.01 C 1188.44 352.56 1184.78 348.06 1180.30 344.49 C 1177.85 347.08 1175.43 349.70 1173.01 352.31 C 1169.48 349.37 1165.91 346.47 1162.66 343.23 C 1161.77 342.26 1160.38 341.22 1161.06 339.75 C 1162.93 334.36 1165.54 329.23 1167.31 323.79 C 1162.34 324.21 1157.63 322.71 1153.52 319.88 C 1149.40 321.95 1145.34 324.13 1141.37 326.46 C 1137.17 323.31 1133.73 319.24 1131.67 314.40 C 1136.91 312.11 1142.82 311.55 1147.76 308.57 C 1152.09 306.29 1152.88 300.67 1157.06 298.23 C 1160.41 296.26 1164.20 295.22 1167.81 293.79 C 1168.73 296.37 1169.66 298.95 1170.60 301.53 C 1175.80 300.90 1181.44 301.64 1186.24 299.18 Z" />
</g>
<g id="#df1f7fff">
<path fill="#df1f7f" fill-opacity="0" d=" M 957.50 321.27 C 959.40 317.72 962.22 314.79 964.90 311.82 C 969.65 314.07 974.59 316.04 979.91 316.43 C 985.47 316.88 989.38 321.81 994.78 322.73 C 996.72 321.81 998.34 320.36 1000.13 319.20 C 1004.70 316.09 1010.69 316.27 1015.20 313.02 C 1022.06 320.35 1027.13 329.04 1032.61 337.40 C 1035.91 342.29 1039.34 347.27 1044.19 350.77 C 1048.98 355.03 1055.22 357.78 1059.07 363.02 C 1061.45 370.22 1057.44 377.66 1055.61 384.53 C 1053.45 390.50 1057.17 396.71 1055.65 402.77 C 1054.19 408.82 1050.97 414.34 1049.76 420.45 C 1049.35 424.98 1051.31 429.30 1052.27 433.68 L 1051.73 434.04 C 1044.54 432.95 1037.64 430.56 1030.72 428.43 C 1023.73 426.36 1015.93 429.04 1009.25 425.66 C 1007.22 424.78 1005.29 423.60 1003.12 423.14 C 999.35 422.70 995.47 424.76 991.79 423.26 C 987.63 421.16 983.43 419.08 979.87 416.05 C 976.16 412.88 974.28 408.01 970.39 405.06 C 965.24 402.67 959.57 401.45 954.84 398.17 C 952.19 400.12 949.57 402.09 946.96 404.06 C 941.01 399.23 935.05 394.41 928.75 390.05 C 927.76 381.76 925.10 372.94 928.87 364.96 C 931.95 357.57 934.59 350.01 936.74 342.30 C 942.45 344.12 947.76 347.50 953.82 347.99 C 954.48 347.27 955.01 346.46 955.39 345.56 C 956.29 337.48 956.38 329.33 957.50 321.27 M 986.27 395.54 C 985.12 396.41 986.58 398.37 987.73 397.46 C 988.86 396.58 987.40 394.62 986.27 395.54 Z" />
</g>
<g id="#9f1f3fff">
<path fill="#9f1f3f" fill-opacity="0" d=" M 1131.29 314.57 L 1131.67 314.40 C 1133.73 319.24 1137.17 323.31 1141.37 326.46 C 1142.95 334.42 1141.94 342.73 1144.41 350.54 C 1146.89 357.73 1150.06 364.74 1151.75 372.18 C 1153.76 380.32 1148.02 387.71 1148.20 395.81 C 1146.56 408.65 1154.14 419.79 1158.06 431.48 C 1155.31 431.96 1152.57 432.44 1149.85 432.95 C 1149.18 440.35 1149.23 447.90 1147.11 455.09 C 1144.61 460.72 1139.56 464.57 1134.99 468.44 C 1130.52 473.18 1125.14 476.93 1118.40 477.44 C 1117.65 475.02 1116.88 472.63 1116.05 470.25 C 1112.54 470.35 1109.04 470.44 1105.56 470.52 C 1102.11 467.60 1097.99 465.64 1093.89 463.84 C 1090.96 462.72 1090.03 459.44 1088.86 456.87 C 1088.48 454.46 1088.22 451.96 1088.06 449.57 C 1084.70 448.22 1081.33 446.89 1077.97 445.57 C 1077.52 439.16 1077.42 432.74 1077.50 426.32 C 1075.16 425.93 1072.43 425.32 1070.25 424.93 C 1068.82 428.18 1067.36 431.41 1066.05 434.70 C 1061.45 434.38 1056.85 434.01 1052.27 433.68 C 1051.31 429.30 1049.35 424.98 1049.76 420.45 C 1050.97 414.34 1054.19 408.82 1055.65 402.77 C 1057.17 396.71 1053.45 390.50 1055.61 384.53 C 1057.44 377.66 1061.45 370.22 1059.07 363.02 C 1055.22 357.78 1048.98 355.03 1044.19 350.77 C 1039.34 347.27 1035.91 342.29 1032.61 337.40 C 1047.16 333.29 1056.68 347.87 1068.89 352.24 C 1073.51 355.31 1079.19 354.40 1083.61 351.58 C 1092.70 345.90 1100.57 338.50 1109.19 332.17 C 1116.78 326.60 1123.10 319.33 1131.29 314.57 Z" />
</g>
<g id="#1f5f3fff">
<path fill="#1f5f3f" fill-opacity="0" d=" M 855.80 335.98 C 864.19 331.04 868.07 321.67 875.21 315.40 C 875.81 317.30 876.43 319.22 877.06 321.13 C 881.70 320.66 886.30 319.99 890.90 319.18 C 894.50 322.46 897.25 327.52 902.43 328.40 C 904.66 328.80 909.11 329.59 911.34 329.99 C 913.66 332.13 915.51 335.02 918.35 336.59 C 921.37 336.50 924.49 336.18 927.49 335.64 C 929.92 338.66 932.89 341.30 936.74 342.30 C 934.59 350.01 931.95 357.57 928.87 364.96 C 925.10 372.94 927.76 381.76 928.75 390.05 C 924.51 387.04 920.30 384.04 916.08 381.03 C 912.03 388.69 908.76 397.08 902.59 403.34 C 896.83 407.69 895.22 415.20 893.37 421.80 C 891.62 430.89 891.02 440.25 887.59 448.97 C 886.29 448.37 885.01 447.78 883.72 447.21 C 877.35 444.38 870.77 442.12 864.22 439.81 C 863.36 435.75 862.50 431.69 861.66 427.64 C 849.88 426.26 838.15 424.41 826.45 422.47 C 822.58 421.95 818.31 421.27 814.82 423.48 C 814.06 420.33 813.28 417.13 813.04 413.91 C 813.60 410.16 815.35 406.67 816.20 402.99 C 817.35 398.96 821.15 396.63 824.04 393.91 C 820.59 381.43 817.53 368.77 815.53 355.99 C 817.05 350.26 823.17 347.06 827.03 342.98 C 831.03 339.85 831.58 333.51 836.68 331.63 C 843.62 329.90 848.96 336.15 855.80 335.98 M 850.08 382.96 C 852.16 385.53 854.83 385.53 856.92 382.96 C 854.64 382.72 852.35 382.72 850.08 382.96 Z" />
</g>
<g id="#1fdf3fff">
<path fill="#1fdf3f" fill-opacity="0" d=" M 1153.52 319.88 C 1157.63 322.71 1162.34 324.21 1167.31 323.79 C 1165.54 329.23 1162.93 334.36 1161.06 339.75 C 1160.38 341.22 1161.77 342.26 1162.66 343.23 C 1165.91 346.47 1169.48 349.37 1173.01 352.31 C 1175.43 349.70 1177.85 347.08 1180.30 344.49 C 1184.78 348.06 1188.44 352.56 1193.02 356.01 C 1195.16 357.72 1198.10 357.83 1200.66 357.16 C 1206.70 355.46 1212.63 352.87 1219.00 352.56 C 1221.95 352.82 1224.55 354.45 1227.00 356.01 C 1229.95 358.92 1233.38 362.29 1233.42 366.74 C 1233.54 372.74 1232.35 378.69 1232.19 384.70 C 1231.97 392.86 1231.97 401.11 1234.00 409.08 C 1235.65 417.62 1240.07 425.23 1243.19 433.27 C 1244.10 437.00 1244.89 440.80 1245.71 444.57 C 1234.12 455.44 1240.66 473.73 1232.08 486.27 C 1230.02 489.70 1227.67 492.93 1225.46 496.26 C 1217.72 492.64 1209.83 488.00 1201.02 488.51 C 1195.98 488.39 1190.56 489.84 1186.02 487.02 C 1179.09 483.21 1172.39 479.00 1165.35 475.41 C 1161.48 477.62 1157.14 482.28 1152.39 479.66 C 1146.22 476.53 1140.97 471.90 1134.99 468.44 C 1139.56 464.57 1144.61 460.72 1147.11 455.09 C 1149.23 447.90 1149.18 440.35 1149.85 432.95 C 1152.57 432.44 1155.31 431.96 1158.06 431.48 C 1154.14 419.79 1146.56 408.65 1148.20 395.81 C 1148.02 387.71 1153.76 380.32 1151.75 372.18 C 1150.06 364.74 1146.89 357.73 1144.41 350.54 C 1141.94 342.73 1142.95 334.42 1141.37 326.46 C 1145.34 324.13 1149.40 321.95 1153.52 319.88 M 1198.32 413.18 C 1197.23 414.53 1199.58 416.00 1200.47 414.61 C 1201.55 413.25 1199.18 411.80 1198.32 413.18 Z" />
</g>
<g id="#1f5f7ffe">
<path fill="#1f5f7f" fill-opacity="0" d=" M 1271.25 380.63 C 1273.23 379.94 1275.54 379.21 1277.56 380.21 C 1279.11 382.06 1279.98 384.36 1281.03 386.52 C 1283.04 386.56 1285.06 386.57 1287.10 386.58 C 1284.54 391.58 1281.73 396.47 1279.80 401.75 C 1280.24 401.93 1281.13 402.29 1281.57 402.47 C 1288.78 405.39 1297.10 405.15 1303.87 409.18 C 1311.10 415.11 1316.15 423.44 1318.78 432.38 C 1316.71 430.76 1314.55 429.27 1312.41 427.79 C 1312.23 430.88 1312.00 433.98 1311.70 437.06 C 1306.68 435.00 1303.90 430.32 1301.93 425.48 C 1300.30 424.92 1298.67 424.38 1297.06 423.84 C 1295.96 426.68 1294.86 429.51 1293.80 432.36 C 1288.83 429.75 1283.54 427.81 1278.36 425.74 C 1276.23 428.67 1274.22 431.65 1272.12 434.58 C 1263.06 429.97 1252.74 431.20 1243.19 433.27 C 1240.07 425.23 1235.65 417.62 1234.00 409.08 C 1231.97 401.11 1231.97 392.86 1232.19 384.70 C 1235.44 383.51 1238.75 381.61 1242.32 381.97 C 1247.13 383.58 1250.93 387.21 1255.12 389.99 C 1260.28 386.52 1265.51 383.09 1271.25 380.63 Z" />
</g>
<g id="#5f9f00fe">
<path fill="#5f9f00" fill-opacity="0" d=" M 916.08 381.03 C 920.30 384.04 924.51 387.04 928.75 390.05 C 935.05 394.41 941.01 399.23 946.96 404.06 C 949.57 402.09 952.19 400.12 954.84 398.17 C 959.57 401.45 965.24 402.67 970.39 405.06 C 974.28 408.01 976.16 412.88 979.87 416.05 C 983.43 419.08 987.63 421.16 991.79 423.26 C 995.47 424.76 999.35 422.70 1003.12 423.14 C 1005.29 423.60 1007.22 424.78 1009.25 425.66 C 1015.93 429.04 1023.73 426.36 1030.72 428.43 C 1037.64 430.56 1044.54 432.95 1051.73 434.04 C 1044.57 439.65 1037.98 445.93 1031.09 451.86 C 1027.48 449.64 1024.28 446.14 1020.06 445.36 C 1014.28 446.87 1009.72 451.13 1004.73 454.22 C 1006.46 456.70 1008.22 459.16 1009.96 461.65 C 998.54 468.76 986.59 475.31 976.31 484.05 C 973.19 489.43 973.10 496.28 969.26 501.33 C 962.86 507.61 955.31 512.52 947.85 517.42 C 948.76 521.31 949.82 525.17 950.83 529.04 C 947.42 530.92 944.07 532.84 940.72 534.80 C 936.86 531.88 932.95 529.05 929.01 526.25 C 927.30 529.24 926.24 533.37 922.65 534.62 C 921.00 535.29 919.32 535.84 917.66 536.43 C 917.42 532.92 917.22 529.41 916.94 525.91 C 909.27 529.36 901.73 533.21 893.75 535.85 C 884.30 534.74 875.02 532.47 865.62 531.05 C 862.41 528.80 859.37 526.33 856.28 523.94 C 857.96 513.54 859.39 503.11 860.75 492.67 C 864.96 492.37 869.15 491.99 873.36 491.61 C 874.30 486.73 875.43 481.89 876.64 477.07 C 873.21 475.57 869.76 473.89 867.28 470.98 C 866.94 465.27 869.79 459.97 871.20 454.57 C 875.71 452.80 881.27 451.89 883.72 447.21 C 885.01 447.78 886.29 448.37 887.59 448.97 C 891.02 440.25 891.62 430.89 893.37 421.80 C 895.22 415.20 896.83 407.69 902.59 403.34 C 908.76 397.08 912.03 388.69 916.08 381.03 M 924.50 462.32 C 923.42 464.01 926.38 465.36 927.34 463.84 C 928.34 462.16 925.44 460.79 924.50 462.32 Z" />
</g>
<g id="#9f5f3fff">
<path fill="#9f5f3f" fill-opacity="0" d=" M 850.08 382.96 C 852.35 382.72 854.64 382.72 856.92 382.96 C 854.83 385.53 852.16 385.53 850.08 382.96 Z" />
</g>
<g id="#5f207fff">
<path fill="#5f207f" fill-opacity="0" d=" M 986.27 395.54 C 987.40 394.62 988.86 396.58 987.73 397.46 C 986.58 398.37 985.12 396.41 986.27 395.54 Z" />
</g>
<g id="#9fdf3fff">
<path fill="#9fdf3f" fill-opacity="0" d=" M 1198.32 413.18 C 1199.18 411.80 1201.55 413.25 1200.47 414.61 C 1199.58 416.00 1197.23 414.53 1198.32 413.18 Z" />
</g>
<g id="#df9fbfff">
<path fill="#df9fbf" fill-opacity="0" d=" M 814.82 423.48 C 818.31 421.27 822.58 421.95 826.45 422.47 C 838.15 424.41 849.88 426.26 861.66 427.64 C 862.50 431.69 863.36 435.75 864.22 439.81 C 870.77 442.12 877.35 444.38 883.72 447.21 C 881.27 451.89 875.71 452.80 871.20 454.57 C 869.79 459.97 866.94 465.27 867.28 470.98 C 869.76 473.89 873.21 475.57 876.64 477.07 C 875.43 481.89 874.30 486.73 873.36 491.61 C 869.15 491.99 864.96 492.37 860.75 492.67 C 859.39 503.11 857.96 513.54 856.28 523.94 C 859.37 526.33 862.41 528.80 865.62 531.05 C 860.08 531.74 854.58 532.99 848.99 533.20 C 840.84 532.98 832.77 531.69 824.65 531.14 C 822.84 526.82 822.37 521.97 819.95 517.95 C 817.12 515.23 813.28 513.90 809.85 512.14 C 811.52 509.89 813.28 507.72 815.09 505.58 C 802.42 498.89 789.88 491.99 777.46 484.85 C 776.88 486.99 776.26 489.13 775.78 491.30 C 771.64 483.83 767.82 474.71 772.31 466.44 C 773.75 462.09 779.04 463.37 782.65 462.52 C 783.39 461.53 784.15 460.55 784.92 459.58 C 784.16 454.87 781.69 450.02 783.30 445.19 C 784.55 441.57 784.48 437.74 783.45 434.09 C 791.27 430.45 799.81 428.70 808.15 431.49 C 810.01 428.56 811.90 425.49 814.82 423.48 Z" />
</g>
<g id="#5f9f3fff">
<path fill="#5f9f3f" fill-opacity="0" d=" M 1297.06 423.84 C 1298.67 424.38 1300.30 424.92 1301.93 425.48 C 1303.90 430.32 1306.68 435.00 1311.70 437.06 C 1312.00 433.98 1312.23 430.88 1312.41 427.79 C 1314.55 429.27 1316.71 430.76 1318.78 432.38 C 1323.90 437.82 1331.43 439.96 1336.43 445.57 C 1338.59 447.31 1341.10 450.93 1339.34 453.60 C 1327.41 464.44 1312.85 473.01 1296.80 475.73 C 1275.41 480.05 1254.21 487.70 1232.08 486.27 C 1240.66 473.73 1234.12 455.44 1245.71 444.57 C 1244.89 440.80 1244.10 437.00 1243.19 433.27 C 1252.74 431.20 1263.06 429.97 1272.12 434.58 C 1274.22 431.65 1276.23 428.67 1278.36 425.74 C 1283.54 427.81 1288.83 429.75 1293.80 432.36 C 1294.86 429.51 1295.96 426.68 1297.06 423.84 Z" />
</g>
<g id="#9fdf00ff">
<path fill="#9fdf00" fill-opacity="0" d=" M 1070.25 424.93 C 1072.43 425.32 1075.16 425.93 1077.50 426.32 C 1077.42 432.74 1077.52 439.16 1077.97 445.57 C 1081.33 446.89 1084.70 448.22 1088.06 449.57 C 1088.22 451.96 1088.48 454.46 1088.86 456.87 C 1085.07 459.57 1081.38 462.39 1077.83 465.41 C 1076.22 464.60 1074.61 463.80 1073.01 463.02 C 1064.18 472.51 1054.42 481.13 1045.83 490.85 C 1041.96 494.82 1042.11 500.73 1041.22 505.82 C 1038.28 505.99 1035.50 506.26 1032.61 506.43 C 1032.46 510.91 1032.22 515.41 1031.44 519.83 C 1027.83 519.32 1024.28 518.87 1020.71 518.34 C 1020.31 521.64 1019.18 525.15 1020.56 528.36 C 1021.79 531.57 1024.38 534.01 1025.89 537.07 C 1026.75 539.80 1026.74 542.75 1027.09 545.62 C 1023.60 545.60 1019.65 545.73 1016.97 543.10 C 1011.79 538.55 1010.26 531.53 1009.59 524.98 C 1003.07 521.89 996.47 519.03 990.01 515.84 C 987.96 518.32 985.92 520.81 983.90 523.30 C 981.81 521.52 979.76 519.71 977.72 517.90 C 972.85 523.43 969.20 530.61 962.60 534.30 C 958.20 534.40 954.49 531.14 950.83 529.04 C 949.82 525.17 948.76 521.31 947.85 517.42 C 955.31 512.52 962.86 507.61 969.26 501.33 C 973.10 496.28 973.19 489.43 976.31 484.05 C 986.59 475.31 998.54 468.76 1009.96 461.65 C 1008.22 459.16 1006.46 456.70 1004.73 454.22 C 1009.72 451.13 1014.28 446.87 1020.06 445.36 C 1024.28 446.14 1027.48 449.64 1031.09 451.86 C 1037.98 445.93 1044.57 439.65 1051.73 434.04 L 1052.27 433.68 C 1056.85 434.01 1061.45 434.38 1066.05 434.70 C 1067.36 431.41 1068.82 428.18 1070.25 424.93 Z" />
</g>
<g id="#df9f3fff">
<path fill="#df9f3f" fill-opacity="0" d=" M 1296.80 475.73 C 1312.85 473.01 1327.41 464.44 1339.34 453.60 C 1338.79 459.57 1340.90 465.15 1342.69 470.70 C 1344.61 485.63 1358.01 494.52 1368.51 503.62 C 1366.67 508.44 1365.58 513.94 1361.33 517.30 C 1349.55 527.01 1343.00 541.40 1337.04 555.13 C 1332.84 552.06 1328.80 548.70 1324.19 546.31 C 1320.86 545.19 1317.27 545.43 1313.82 545.23 C 1311.57 541.36 1309.27 537.47 1306.93 533.68 C 1302.22 534.59 1297.35 535.13 1292.89 536.98 C 1286.44 540.12 1281.84 545.89 1276.51 550.48 C 1272.84 552.40 1268.51 551.25 1264.57 551.16 C 1263.88 538.35 1263.66 522.88 1252.48 514.50 C 1243.53 506.53 1231.05 509.53 1220.58 512.04 C 1221.88 506.69 1222.62 501.08 1225.46 496.26 C 1227.67 492.93 1230.02 489.70 1232.08 486.27 C 1254.21 487.70 1275.41 480.05 1296.80 475.73 M 1310.32 496.18 C 1309.23 497.53 1311.58 499.00 1312.47 497.61 C 1313.54 496.25 1311.17 494.80 1310.32 496.18 Z" />
</g>
<g id="#1f9f3fff">
<path fill="#1f9f3f" fill-opacity="0" d=" M 1077.83 465.41 C 1081.38 462.39 1085.07 459.57 1088.86 456.87 C 1090.03 459.44 1090.96 462.72 1093.89 463.84 C 1097.99 465.64 1102.11 467.60 1105.56 470.52 C 1109.04 470.44 1112.54 470.35 1116.05 470.25 C 1116.88 472.63 1117.65 475.02 1118.40 477.44 C 1116.21 480.41 1114.11 483.43 1112.03 486.47 C 1114.55 488.84 1117.03 491.26 1119.44 493.76 C 1113.52 501.14 1107.64 508.57 1101.14 515.45 C 1102.14 525.59 1103.45 535.71 1105.31 545.74 C 1106.02 551.23 1111.29 554.20 1114.98 557.67 C 1110.94 559.24 1106.89 560.77 1102.77 562.08 C 1099.87 563.23 1096.27 563.57 1094.19 566.10 C 1092.07 570.03 1091.14 574.49 1089.68 578.70 C 1084.90 578.76 1080.07 578.95 1075.33 579.12 C 1074.65 581.70 1073.98 584.28 1073.33 586.87 C 1063.80 587.31 1054.49 585.18 1045.03 584.82 C 1040.66 580.19 1036.35 575.48 1032.67 570.30 C 1028.08 562.99 1027.13 554.07 1027.09 545.62 C 1026.74 542.75 1026.75 539.80 1025.89 537.07 C 1024.38 534.01 1021.79 531.57 1020.56 528.36 C 1019.18 525.15 1020.31 521.64 1020.71 518.34 C 1024.28 518.87 1027.83 519.32 1031.44 519.83 C 1032.22 515.41 1032.46 510.91 1032.61 506.43 C 1035.50 506.26 1038.28 505.99 1041.22 505.82 C 1042.11 500.73 1041.96 494.82 1045.83 490.85 C 1054.42 481.13 1064.18 472.51 1073.01 463.02 C 1074.61 463.80 1076.22 464.60 1077.83 465.41 Z" />
</g>
<g id="#df1f00fe">
<path fill="#df1f00" fill-opacity="0" d=" M 924.50 462.32 C 925.44 460.79 928.34 462.16 927.34 463.84 C 926.38 465.36 923.42 464.01 924.50 462.32 Z" />
</g>
<g id="#df5f00ff">
<path fill="#df5f00" fill-opacity="0" d=" M 1118.40 477.44 C 1125.14 476.93 1130.52 473.18 1134.99 468.44 C 1140.97 471.90 1146.22 476.53 1152.39 479.66 C 1157.14 482.28 1161.48 477.62 1165.35 475.41 C 1172.39 479.00 1179.09 483.21 1186.02 487.02 C 1190.56 489.84 1195.98 488.39 1201.02 488.51 C 1209.83 488.00 1217.72 492.64 1225.46 496.26 C 1222.62 501.08 1221.88 506.69 1220.58 512.04 C 1217.45 523.40 1212.80 534.27 1209.61 545.60 C 1206.84 560.69 1206.57 576.08 1205.25 591.34 C 1194.94 593.21 1184.58 594.77 1174.15 595.72 C 1173.03 591.54 1172.86 585.04 1167.44 584.30 C 1147.09 580.50 1126.52 577.81 1106.17 573.95 C 1105.08 569.98 1104.03 566.00 1102.77 562.08 C 1106.89 560.77 1110.94 559.24 1114.98 557.67 C 1111.29 554.20 1106.02 551.23 1105.31 545.74 C 1103.45 535.71 1102.14 525.59 1101.14 515.45 C 1107.64 508.57 1113.52 501.14 1119.44 493.76 C 1117.03 491.26 1114.55 488.84 1112.03 486.47 C 1114.11 483.43 1116.21 480.41 1118.40 477.44 Z" />
</g>
<g id="#dfdf00ff">
<path fill="#dfdf00" fill-opacity="0" d=" M 745.61 492.68 C 751.31 489.56 754.85 483.61 761.02 481.19 C 765.39 486.91 767.69 494.77 774.86 497.73 C 775.09 496.12 775.55 492.91 775.78 491.30 C 776.26 489.13 776.88 486.99 777.46 484.85 C 789.88 491.99 802.42 498.89 815.09 505.58 C 813.28 507.72 811.52 509.89 809.85 512.14 C 813.28 513.90 817.12 515.23 819.95 517.95 C 822.37 521.97 822.84 526.82 824.65 531.14 C 826.13 534.91 827.24 538.86 828.94 542.56 C 830.51 546.04 834.01 547.97 837.01 550.07 C 833.11 558.12 826.02 563.82 820.00 570.21 C 816.61 573.64 813.44 577.43 809.43 580.12 C 803.17 581.50 796.69 580.72 790.33 580.84 C 788.02 585.63 785.79 590.47 783.19 595.12 C 769.68 593.97 756.08 594.74 742.78 597.27 C 742.11 603.03 741.99 608.94 740.39 614.57 C 738.75 617.73 735.33 619.37 732.53 621.36 C 727.75 617.54 722.74 614.04 717.94 610.25 C 722.99 598.13 728.40 586.18 734.34 574.48 C 730.01 573.52 725.65 572.60 721.41 571.33 C 716.00 569.60 712.30 564.50 706.63 563.40 C 700.88 561.70 693.76 561.44 689.82 556.24 C 688.01 552.87 688.38 548.89 688.32 545.20 C 680.09 540.84 672.84 534.47 663.91 531.53 C 664.18 529.37 664.52 527.22 664.90 525.08 C 668.85 524.73 673.16 526.23 677.04 524.96 C 680.81 523.48 680.64 519.01 681.64 515.68 C 686.27 515.62 691.35 517.98 695.67 515.75 C 698.34 512.23 699.62 507.82 702.16 504.18 C 707.10 496.83 712.06 487.98 721.33 485.75 C 724.60 485.87 727.11 488.47 730.08 489.60 C 732.57 488.09 734.51 485.84 736.61 483.84 C 740.06 486.29 742.96 489.39 745.61 492.68 M 743.80 544.85 C 744.11 546.59 744.44 548.35 744.81 550.09 C 745.56 550.04 747.07 549.94 747.82 549.89 C 748.14 548.57 748.49 547.26 748.85 545.96 C 747.16 545.59 745.47 545.21 743.80 544.85 Z" />
</g>
<g id="#df1fbfff">
<path fill="#df1fbf" fill-opacity="0" d=" M 1391.85 496.23 C 1394.40 495.37 1397.31 494.73 1399.98 494.01 C 1401.92 500.70 1408.24 507.98 1403.95 514.92 C 1400.66 521.63 1394.87 526.57 1390.60 532.56 C 1390.43 537.71 1394.54 541.39 1396.35 545.87 C 1398.75 546.42 1401.17 546.98 1403.63 547.55 C 1402.05 550.71 1399.67 553.46 1398.43 556.78 C 1401.02 561.32 1405.26 565.44 1405.78 570.91 C 1403.39 578.57 1395.32 581.79 1391.23 588.25 C 1393.31 588.85 1395.42 589.49 1397.53 590.12 C 1396.38 595.58 1393.56 600.55 1392.53 606.02 C 1395.52 611.67 1398.02 617.60 1399.01 624.01 C 1401.23 623.66 1403.46 623.30 1405.71 622.98 C 1407.13 625.36 1408.63 627.71 1410.13 630.07 C 1403.98 634.67 1398.46 640.74 1390.82 642.85 C 1383.01 644.87 1375.10 646.36 1367.09 647.20 C 1363.58 641.50 1359.80 635.89 1357.55 629.54 C 1357.15 623.14 1350.21 620.80 1344.90 622.06 C 1343.79 620.64 1342.67 619.24 1341.58 617.83 C 1337.34 616.99 1332.90 615.67 1330.42 611.85 C 1335.54 607.24 1341.27 602.95 1345.10 597.14 C 1346.10 590.72 1341.37 585.60 1339.40 579.93 C 1336.85 571.96 1335.44 563.43 1337.04 555.13 C 1343.00 541.40 1349.55 527.01 1361.33 517.30 C 1365.58 513.94 1366.67 508.44 1368.51 503.62 C 1372.52 503.91 1376.61 505.11 1380.69 504.65 C 1385.35 503.28 1387.63 498.35 1391.85 496.23 Z" />
</g>
<g id="#5f1fbfff">
<path fill="#5f1fbf" fill-opacity="0" d=" M 1310.32 496.18 C 1311.17 494.80 1313.54 496.25 1312.47 497.61 C 1311.58 499.00 1309.23 497.53 1310.32 496.18 Z" />
</g>
<g id="#df1f3fff">
<path fill="#df1f3f" fill-opacity="0" d=" M 1220.58 512.04 C 1231.05 509.53 1243.53 506.53 1252.48 514.50 C 1263.66 522.88 1263.88 538.35 1264.57 551.16 C 1268.51 551.25 1272.84 552.40 1276.51 550.48 C 1281.84 545.89 1286.44 540.12 1292.89 536.98 C 1297.35 535.13 1302.22 534.59 1306.93 533.68 C 1309.27 537.47 1311.57 541.36 1313.82 545.23 C 1317.27 545.43 1320.86 545.19 1324.19 546.31 C 1328.80 548.70 1332.84 552.06 1337.04 555.13 C 1335.44 563.43 1336.85 571.96 1339.40 579.93 C 1341.37 585.60 1346.10 590.72 1345.10 597.14 C 1341.27 602.95 1335.54 607.24 1330.42 611.85 C 1327.30 611.07 1326.20 607.02 1323.63 605.21 C 1321.58 605.32 1319.06 605.87 1318.35 608.07 C 1316.02 614.12 1315.17 620.83 1311.42 626.27 C 1307.49 633.90 1300.49 639.15 1294.69 645.24 C 1292.50 644.47 1290.24 642.99 1287.85 643.72 C 1283.37 644.86 1280.22 648.75 1275.95 650.28 C 1270.86 650.00 1266.06 647.82 1260.93 647.84 C 1260.09 646.51 1259.15 645.24 1258.27 643.97 C 1260.60 641.27 1262.95 638.60 1265.29 635.91 C 1260.21 631.89 1254.67 628.42 1250.05 623.85 C 1246.35 620.14 1247.89 614.27 1245.46 609.96 C 1236.26 606.92 1226.43 606.44 1216.80 606.18 C 1216.18 600.72 1215.68 595.26 1215.08 589.81 C 1211.79 590.26 1208.51 590.75 1205.25 591.34 C 1206.57 576.08 1206.84 560.69 1209.61 545.60 C 1212.80 534.27 1217.45 523.40 1220.58 512.04 M 1292.05 612.74 C 1292.05 613.62 1292.05 615.38 1292.05 616.26 C 1293.38 615.87 1294.73 615.49 1296.08 615.11 L 1296.08 613.89 C 1294.73 613.49 1293.38 613.11 1292.05 612.74 Z" />
</g>
<g id="#df9f7fff">
<path fill="#df9f7f" fill-opacity="0" d=" M 983.90 523.30 C 985.92 520.81 987.96 518.32 990.01 515.84 C 996.47 519.03 1003.07 521.89 1009.59 524.98 C 1010.26 531.53 1011.79 538.55 1016.97 543.10 C 1019.65 545.73 1023.60 545.60 1027.09 545.62 C 1027.13 554.07 1028.08 562.99 1032.67 570.30 C 1036.35 575.48 1040.66 580.19 1045.03 584.82 C 1045.20 588.15 1046.32 591.59 1045.57 594.89 C 1042.74 601.26 1037.20 605.91 1034.05 612.11 C 1031.91 616.03 1031.06 620.46 1029.85 624.73 C 1035.60 631.04 1041.85 637.02 1046.24 644.43 C 1032.37 655.46 1020.37 668.70 1005.90 678.99 C 1002.11 681.85 997.46 683.23 992.86 684.05 C 987.80 684.99 983.26 681.36 979.48 678.62 C 977.22 675.16 977.01 670.86 975.63 667.05 C 974.65 663.57 970.88 662.30 968.12 660.55 C 970.27 654.50 972.42 648.45 974.21 642.28 C 972.36 641.64 970.52 641.00 968.69 640.34 C 967.02 644.07 965.94 648.51 962.62 651.14 C 957.39 653.05 951.91 654.31 946.96 656.94 C 942.57 658.91 938.57 661.88 933.89 663.10 C 929.66 662.41 926.37 659.02 922.68 657.11 C 925.05 655.34 927.45 653.59 929.86 651.86 C 928.83 649.47 927.82 647.08 926.82 644.69 C 921.85 645.73 916.90 646.77 911.99 648.05 C 910.27 645.49 908.64 642.88 906.89 640.36 C 909.05 639.83 911.21 639.29 913.38 638.75 C 915.18 634.52 916.67 629.12 921.67 627.70 C 930.95 624.77 940.04 621.44 948.90 617.44 C 949.51 614.86 950.13 612.29 950.75 609.73 C 947.63 607.40 944.00 605.57 941.56 602.49 C 938.61 598.04 940.33 592.38 938.55 587.59 C 933.46 579.12 926.74 571.64 922.51 562.64 C 919.55 554.22 918.45 545.28 917.66 536.43 C 919.32 535.84 921.00 535.29 922.65 534.62 C 926.24 533.37 927.30 529.24 929.01 526.25 C 932.95 529.05 936.86 531.88 940.72 534.80 C 944.07 532.84 947.42 530.92 950.83 529.04 C 954.49 531.14 958.20 534.40 962.60 534.30 C 969.20 530.61 972.85 523.43 977.72 517.90 C 979.76 519.71 981.81 521.52 983.90 523.30 M 983.18 584.32 C 981.79 585.18 983.24 587.55 984.61 586.47 C 986.00 585.59 984.53 583.24 983.18 584.32 Z" />
</g>
<g id="#1f1fbfff">
<path fill="#1f1fbf" fill-opacity="0" d=" M 893.75 535.85 C 901.73 533.21 909.27 529.36 916.94 525.91 C 917.22 529.41 917.42 532.92 917.66 536.43 C 918.45 545.28 919.55 554.22 922.51 562.64 C 926.74 571.64 933.46 579.12 938.55 587.59 C 940.33 592.38 938.61 598.04 941.56 602.49 C 944.00 605.57 947.63 607.40 950.75 609.73 C 950.13 612.29 949.51 614.86 948.90 617.44 C 940.04 621.44 930.95 624.77 921.67 627.70 C 916.67 629.12 915.18 634.52 913.38 638.75 C 911.21 639.29 909.05 639.83 906.89 640.36 C 901.74 632.28 892.99 626.33 883.37 625.42 C 873.52 625.71 863.75 627.22 853.93 628.00 C 853.18 619.20 852.65 610.38 851.71 601.60 C 849.82 600.73 847.94 599.85 846.07 598.96 C 846.99 597.68 847.91 596.40 848.84 595.13 C 845.48 592.40 842.13 589.66 838.82 586.89 C 837.45 589.02 836.11 591.17 834.79 593.33 C 830.00 590.92 824.69 588.98 820.93 585.04 C 818.18 580.58 819.90 575.07 820.00 570.21 C 826.02 563.82 833.11 558.12 837.01 550.07 C 834.01 547.97 830.51 546.04 828.94 542.56 C 827.24 538.86 826.13 534.91 824.65 531.14 C 832.77 531.69 840.84 532.98 848.99 533.20 C 854.58 532.99 860.08 531.74 865.62 531.05 C 875.02 532.47 884.30 534.74 893.75 535.85 Z" />
</g>
<g id="#5fdf00ff">
<path fill="#5fdf00" fill-opacity="0" d=" M 647.01 529.54 C 652.37 531.73 658.25 530.96 663.91 531.53 C 672.84 534.47 680.09 540.84 688.32 545.20 C 688.38 548.89 688.01 552.87 689.82 556.24 C 693.76 561.44 700.88 561.70 706.63 563.40 C 712.30 564.50 716.00 569.60 721.41 571.33 C 725.65 572.60 730.01 573.52 734.34 574.48 C 728.40 586.18 722.99 598.13 717.94 610.25 C 722.74 614.04 727.75 617.54 732.53 621.36 C 730.82 625.73 729.15 630.14 727.67 634.61 C 732.23 637.32 736.73 640.14 741.31 642.81 C 736.53 648.42 729.49 651.03 722.73 653.33 C 722.43 658.46 721.79 663.57 721.14 668.67 C 727.81 667.74 734.49 666.97 741.17 666.14 C 740.46 671.27 739.85 676.43 738.97 681.54 C 733.85 683.16 729.15 685.76 724.75 688.77 C 714.50 686.07 704.67 682.05 694.82 678.21 C 693.75 673.24 692.70 668.31 691.65 663.36 C 680.89 659.09 670.17 654.53 660.22 648.56 C 649.56 640.55 643.36 628.35 637.05 616.93 C 633.28 610.41 630.80 603.25 627.19 596.65 C 622.80 589.55 614.86 586.33 608.59 581.32 C 605.66 579.08 605.07 575.13 604.11 571.85 C 605.80 571.29 607.50 570.76 609.20 570.21 C 609.42 570.14 609.85 570.00 610.07 569.93 C 609.98 566.46 610.12 562.42 614.00 560.86 C 615.88 559.23 615.75 556.42 616.67 554.24 C 622.77 551.93 630.05 551.12 633.98 545.31 C 638.18 545.68 642.32 546.33 646.51 546.96 C 647.28 541.17 646.83 535.35 647.01 529.54 Z" />
</g>
<g id="#5f5f7fff">
<path fill="#5f5f7f" fill-opacity="0" d=" M 743.80 544.85 C 745.47 545.21 747.16 545.59 748.85 545.96 C 748.49 547.26 748.14 548.57 747.82 549.89 C 747.07 549.94 745.56 550.04 744.81 550.09 C 744.44 548.35 744.11 546.59 743.80 544.85 Z" />
</g>
<g id="#9f5fbfff">
<path fill="#9f5fbf" fill-opacity="0" d=" M 594.60 560.28 C 601.54 559.76 605.01 566.01 609.20 570.21 C 607.50 570.76 605.80 571.29 604.11 571.85 C 605.07 575.13 605.66 579.08 608.59 581.32 C 614.86 586.33 622.80 589.55 627.19 596.65 C 630.80 603.25 633.28 610.41 637.05 616.93 C 643.36 628.35 649.56 640.55 660.22 648.56 C 670.17 654.53 680.89 659.09 691.65 663.36 C 692.70 668.31 693.75 673.24 694.82 678.21 C 704.67 682.05 714.50 686.07 724.75 688.77 C 727.14 693.82 728.93 699.14 730.33 704.56 C 724.59 709.57 722.21 717.70 715.11 721.25 C 711.66 723.21 707.61 721.72 703.89 721.58 C 700.57 714.47 693.76 709.11 693.24 700.81 C 690.00 700.57 686.76 700.43 683.52 700.27 C 681.47 704.07 680.51 709.23 676.43 711.39 C 672.38 712.92 670.07 708.21 668.02 705.64 C 665.10 705.68 662.10 705.75 659.20 705.99 C 657.44 709.63 655.57 713.24 654.38 717.12 C 651.59 715.50 648.82 713.88 646.07 712.21 C 643.92 715.36 641.76 718.52 639.64 721.70 C 632.98 716.99 626.42 712.14 619.76 707.43 C 606.59 697.19 594.30 685.46 579.33 677.81 C 571.80 674.93 563.81 673.57 555.94 671.96 C 555.59 667.99 554.43 663.88 555.35 659.93 C 558.44 654.89 563.79 651.80 568.00 647.79 C 563.47 637.50 559.86 626.87 556.83 616.06 C 549.23 617.70 541.61 619.24 534.01 620.88 C 532.10 612.86 530.03 604.87 528.00 596.88 C 535.55 604.17 547.23 603.05 556.83 602.84 C 561.77 599.40 562.50 592.21 566.87 588.09 C 569.64 586.83 572.52 585.77 575.38 584.69 C 574.23 582.70 573.04 580.75 571.84 578.80 C 574.66 574.85 577.41 570.84 580.14 566.82 C 582.67 567.70 585.14 568.29 587.80 568.83 C 590.50 566.36 592.34 563.12 594.60 560.28 Z" />
</g>
<g id="#5f9fbfff">
<path fill="#5f9fbf" fill-opacity="0" d=" M 1094.19 566.10 C 1096.27 563.57 1099.87 563.23 1102.77 562.08 C 1104.03 566.00 1105.08 569.98 1106.17 573.95 C 1126.52 577.81 1147.09 580.50 1167.44 584.30 C 1172.86 585.04 1173.03 591.54 1174.15 595.72 C 1184.58 594.77 1194.94 593.21 1205.25 591.34 C 1208.51 590.75 1211.79 590.26 1215.08 589.81 C 1215.68 595.26 1216.18 600.72 1216.80 606.18 C 1204.48 617.92 1203.88 635.72 1198.57 650.91 C 1193.34 651.69 1187.36 650.53 1182.73 653.67 C 1180.79 654.90 1179.00 656.34 1177.19 657.75 C 1174.72 653.31 1173.09 648.19 1169.27 644.70 C 1166.49 641.88 1161.94 641.54 1158.40 642.88 C 1155.78 645.13 1154.97 648.76 1153.41 651.74 C 1149.92 653.48 1144.08 652.58 1142.55 657.02 C 1139.55 664.48 1136.91 672.75 1139.31 680.80 C 1140.90 686.61 1146.33 690.18 1148.94 695.41 C 1149.41 699.02 1147.53 702.49 1147.65 706.12 C 1148.01 713.47 1151.38 720.40 1151.37 727.78 C 1148.74 730.62 1145.95 733.69 1142.17 734.92 C 1138.34 735.58 1134.47 735.70 1130.64 736.05 C 1130.78 742.07 1127.42 747.16 1123.24 751.19 C 1122.64 749.14 1122.38 746.83 1120.87 745.21 C 1114.33 743.32 1107.34 743.53 1100.71 742.14 C 1096.58 741.12 1093.22 738.16 1089.08 737.25 C 1086.38 737.84 1084.16 739.61 1081.89 741.07 C 1079.95 736.35 1080.97 731.08 1080.70 726.16 C 1077.40 724.28 1074.38 721.85 1070.84 720.46 C 1064.51 721.99 1058.54 725.78 1051.76 725.17 C 1052.99 722.63 1054.34 720.04 1054.69 717.20 C 1055.07 713.24 1051.51 709.87 1052.21 705.94 C 1054.67 699.83 1058.38 694.30 1061.14 688.33 C 1055.70 680.56 1049.56 673.31 1043.66 665.89 C 1048.14 661.85 1052.74 657.96 1057.34 654.06 C 1053.49 651.03 1049.49 648.12 1046.24 644.43 C 1041.85 637.02 1035.60 631.04 1029.85 624.73 C 1031.06 620.46 1031.91 616.03 1034.05 612.11 C 1037.20 605.91 1042.74 601.26 1045.57 594.89 C 1046.32 591.59 1045.20 588.15 1045.03 584.82 C 1054.49 585.18 1063.80 587.31 1073.33 586.87 C 1073.98 584.28 1074.65 581.70 1075.33 579.12 C 1080.07 578.95 1084.90 578.76 1089.68 578.70 C 1091.14 574.49 1092.07 570.03 1094.19 566.10 M 1096.12 604.97 C 1090.80 613.13 1085.93 621.79 1084.78 631.63 C 1092.32 631.59 1099.86 630.90 1107.40 631.35 C 1113.78 632.35 1119.71 635.15 1125.86 637.03 C 1123.50 629.82 1117.96 624.26 1114.22 617.82 C 1110.26 611.13 1102.64 608.41 1096.12 604.97 Z" />
</g>
<g id="#9f5f7fff">
<path fill="#9f5f7f" fill-opacity="0" d=" M 809.43 580.12 C 813.44 577.43 816.61 573.64 820.00 570.21 C 819.90 575.07 818.18 580.58 820.93 585.04 C 824.69 588.98 830.00 590.92 834.79 593.33 C 836.11 591.17 837.45 589.02 838.82 586.89 C 842.13 589.66 845.48 592.40 848.84 595.13 C 847.91 596.40 846.99 597.68 846.07 598.96 C 847.94 599.85 849.82 600.73 851.71 601.60 C 852.65 610.38 853.18 619.20 853.93 628.00 C 854.69 634.33 855.72 640.66 857.45 646.82 C 858.51 650.52 862.17 652.50 864.11 655.64 C 864.99 659.40 863.33 663.21 863.15 666.99 C 858.66 668.13 854.20 669.35 849.68 670.34 C 849.64 673.73 849.99 677.17 849.37 680.54 C 842.82 686.33 832.89 686.38 826.24 692.01 C 824.44 695.74 824.65 700.14 823.82 704.16 C 814.99 707.10 806.05 709.69 797.04 712.01 C 786.54 714.67 775.54 715.02 765.14 718.10 C 762.39 714.09 760.12 709.69 756.69 706.21 C 754.27 703.64 750.14 704.44 747.10 703.90 C 741.52 703.63 735.75 702.74 730.33 704.56 C 728.93 699.14 727.14 693.82 724.75 688.77 C 729.15 685.76 733.85 683.16 738.97 681.54 C 739.85 676.43 740.46 671.27 741.17 666.14 C 734.49 666.97 727.81 667.74 721.14 668.67 C 721.79 663.57 722.43 658.46 722.73 653.33 C 729.49 651.03 736.53 648.42 741.31 642.81 C 736.73 640.14 732.23 637.32 727.67 634.61 C 729.15 630.14 730.82 625.73 732.53 621.36 C 735.33 619.37 738.75 617.73 740.39 614.57 C 741.99 608.94 742.11 603.03 742.78 597.27 C 756.08 594.74 769.68 593.97 783.19 595.12 C 785.79 590.47 788.02 585.63 790.33 580.84 C 796.69 580.72 803.17 581.50 809.43 580.12 Z" />
</g>
<g id="#205f00ff">
<path fill="#205f00" fill-opacity="0" d=" M 983.18 584.32 C 984.53 583.24 986.00 585.59 984.61 586.47 C 983.24 587.55 981.79 585.18 983.18 584.32 Z" />
</g>
<g id="#9f5f00ff">
<path fill="#9f5f00" fill-opacity="0" d=" M 473.51 587.68 C 478.40 588.78 483.77 589.01 488.03 591.96 C 493.07 594.74 497.29 598.92 502.62 601.18 C 507.86 603.25 511.34 598.17 514.66 595.15 C 519.02 595.13 523.38 595.36 527.73 595.80 L 528.00 596.88 C 530.03 604.87 532.10 612.86 534.01 620.88 C 541.61 619.24 549.23 617.70 556.83 616.06 C 559.86 626.87 563.47 637.50 568.00 647.79 C 563.79 651.80 558.44 654.89 555.35 659.93 C 554.43 663.88 555.59 667.99 555.94 671.96 C 563.81 673.57 571.80 674.93 579.33 677.81 C 594.30 685.46 606.59 697.19 619.76 707.43 C 612.31 718.59 605.20 729.98 598.43 741.56 C 574.52 741.63 550.47 740.14 527.07 734.97 C 528.66 737.43 530.25 739.92 531.86 742.41 C 529.20 742.36 526.53 742.38 523.90 741.98 C 513.26 738.40 503.71 732.01 495.30 724.63 C 498.06 721.57 503.07 717.80 499.61 713.38 C 490.79 706.48 480.38 702.09 470.60 696.77 C 470.50 685.43 475.89 675.13 476.81 663.98 C 477.30 662.04 475.39 660.96 474.15 659.91 C 466.46 654.26 455.83 651.64 451.95 641.97 C 449.72 638.65 453.51 635.57 455.11 632.90 C 453.19 631.51 451.29 630.11 449.40 628.71 C 453.00 624.91 457.18 621.69 460.73 617.88 C 462.96 613.41 464.76 608.72 467.51 604.53 C 470.94 599.53 472.10 593.46 473.51 587.68 Z" />
</g>
<g id="#5f9f7fff">
<path fill="#5f9f7f" fill-opacity="0" d=" M 1096.12 604.97 C 1102.64 608.41 1110.26 611.13 1114.22 617.82 C 1117.96 624.26 1123.50 629.82 1125.86 637.03 C 1119.71 635.15 1113.78 632.35 1107.40 631.35 C 1099.86 630.90 1092.32 631.59 1084.78 631.63 C 1085.93 621.79 1090.80 613.13 1096.12 604.97 Z" />
</g>
<g id="#1f9fbfff">
<path fill="#1f9fbf" fill-opacity="0" d=" M 1216.80 606.18 C 1226.43 606.44 1236.26 606.92 1245.46 609.96 C 1247.89 614.27 1246.35 620.14 1250.05 623.85 C 1254.67 628.42 1260.21 631.89 1265.29 635.91 C 1262.95 638.60 1260.60 641.27 1258.27 643.97 C 1259.15 645.24 1260.09 646.51 1260.93 647.84 C 1263.09 652.87 1263.77 659.03 1260.95 663.96 C 1258.08 669.17 1261.53 674.85 1261.62 680.34 C 1261.61 684.65 1262.98 690.03 1259.21 693.16 C 1255.09 696.96 1250.71 701.08 1245.12 702.43 C 1235.13 699.85 1226.53 692.02 1215.45 693.63 C 1205.72 698.16 1198.58 706.80 1188.66 710.96 C 1183.16 713.62 1179.02 718.89 1172.68 719.65 C 1170.31 719.52 1168.21 718.27 1165.94 717.75 C 1161.00 720.98 1156.59 724.99 1151.37 727.78 C 1151.38 720.40 1148.01 713.47 1147.65 706.12 C 1147.53 702.49 1149.41 699.02 1148.94 695.41 C 1146.33 690.18 1140.90 686.61 1139.31 680.80 C 1136.91 672.75 1139.55 664.48 1142.55 657.02 C 1144.08 652.58 1149.92 653.48 1153.41 651.74 C 1154.97 648.76 1155.78 645.13 1158.40 642.88 C 1161.94 641.54 1166.49 641.88 1169.27 644.70 C 1173.09 648.19 1174.72 653.31 1177.19 657.75 C 1179.00 656.34 1180.79 654.90 1182.73 653.67 C 1187.36 650.53 1193.34 651.69 1198.57 650.91 C 1203.88 635.72 1204.48 617.92 1216.80 606.18 M 1217.14 654.27 C 1215.51 654.21 1215.37 656.94 1217.06 656.93 C 1218.67 657.00 1218.79 654.23 1217.14 654.27 Z" />
</g>
<g id="#5f1f3fff">
<path fill="#5f1f3f" fill-opacity="0" d=" M 1292.05 612.74 C 1293.38 613.11 1294.73 613.49 1296.08 613.89 L 1296.08 615.11 C 1294.73 615.49 1293.38 615.87 1292.05 616.26 C 1292.05 615.38 1292.05 613.62 1292.05 612.74 Z" />
</g>
<g id="#1fdf00fe">
<path fill="#1fdf00" fill-opacity="0" d=" M 853.93 628.00 C 863.75 627.22 873.52 625.71 883.37 625.42 C 892.99 626.33 901.74 632.28 906.89 640.36 C 908.64 642.88 910.27 645.49 911.99 648.05 C 916.90 646.77 921.85 645.73 926.82 644.69 C 927.82 647.08 928.83 649.47 929.86 651.86 C 927.45 653.59 925.05 655.34 922.68 657.11 C 926.37 659.02 929.66 662.41 933.89 663.10 C 938.57 661.88 942.57 658.91 946.96 656.94 C 951.91 654.31 957.39 653.05 962.62 651.14 C 965.94 648.51 967.02 644.07 968.69 640.34 C 970.52 641.00 972.36 641.64 974.21 642.28 C 972.42 648.45 970.27 654.50 968.12 660.55 C 970.88 662.30 974.65 663.57 975.63 667.05 C 977.01 670.86 977.22 675.16 979.48 678.62 C 983.26 681.36 987.80 684.99 992.86 684.05 C 997.46 683.23 1002.11 681.85 1005.90 678.99 C 1020.37 668.70 1032.37 655.46 1046.24 644.43 C 1049.49 648.12 1053.49 651.03 1057.34 654.06 C 1052.74 657.96 1048.14 661.85 1043.66 665.89 C 1049.56 673.31 1055.70 680.56 1061.14 688.33 C 1058.38 694.30 1054.67 699.83 1052.21 705.94 C 1051.51 709.87 1055.07 713.24 1054.69 717.20 C 1054.34 720.04 1052.99 722.63 1051.76 725.17 C 1050.26 727.86 1048.70 730.52 1047.16 733.20 C 1046.64 731.87 1046.14 730.55 1045.66 729.24 C 1044.90 729.12 1043.38 728.87 1042.62 728.74 C 1041.68 731.47 1040.55 734.18 1039.96 737.03 C 1044.30 738.91 1048.99 736.92 1053.06 735.28 C 1050.06 741.36 1046.72 748.13 1049.80 754.86 C 1049.32 754.83 1048.35 754.79 1047.86 754.76 C 1041.75 754.48 1035.66 756.06 1029.55 755.21 C 1023.06 754.83 1016.73 752.15 1010.21 752.68 C 1002.37 755.19 997.37 762.64 990.24 766.47 C 988.30 765.03 986.35 763.63 984.48 762.12 C 969.78 739.94 955.84 717.22 941.27 694.93 C 939.11 699.52 937.16 704.20 935.06 708.82 C 922.83 702.82 907.47 700.22 899.47 688.16 C 896.59 680.89 888.56 678.15 882.52 674.11 C 881.93 675.99 881.35 677.89 880.77 679.79 C 875.66 679.59 870.54 679.57 865.44 679.52 C 864.47 675.39 863.34 671.25 863.15 666.99 C 863.33 663.21 864.99 659.40 864.11 655.64 C 862.17 652.50 858.51 650.52 857.45 646.82 C 855.72 640.66 854.69 634.33 853.93 628.00 Z" />
</g>
<g id="#9f9fbfff">
<path fill="#9f9fbf" fill-opacity="0" d=" M 1217.14 654.27 C 1218.79 654.23 1218.67 657.00 1217.06 656.93 C 1215.37 656.94 1215.51 654.21 1217.14 654.27 Z" />
</g>
<g id="#9fdf7ffe">
<path fill="#9fdf7f" fill-opacity="0" d=" M 849.68 670.34 C 854.20 669.35 858.66 668.13 863.15 666.99 C 863.34 671.25 864.47 675.39 865.44 679.52 C 870.54 679.57 875.66 679.59 880.77 679.79 C 881.35 677.89 881.93 675.99 882.52 674.11 C 888.56 678.15 896.59 680.89 899.47 688.16 C 907.47 700.22 922.83 702.82 935.06 708.82 C 937.16 704.20 939.11 699.52 941.27 694.93 C 955.84 717.22 969.78 739.94 984.48 762.12 C 981.77 764.89 979.12 767.72 976.52 770.60 C 970.52 766.21 965.08 761.11 959.15 756.65 C 954.39 752.89 947.79 752.45 942.03 753.53 C 939.87 753.88 939.09 756.33 937.81 757.77 C 930.97 767.84 925.69 778.86 919.28 789.20 C 915.78 795.54 910.84 801.44 909.62 808.78 C 908.89 815.34 909.34 822.02 910.79 828.46 C 908.27 831.73 906.38 835.41 904.31 838.97 C 897.74 833.51 900.24 820.95 891.54 817.25 C 887.05 814.75 881.94 817.64 879.33 821.49 C 874.96 821.52 870.59 821.89 866.26 822.39 C 862.90 818.04 857.98 815.67 852.60 814.95 C 849.13 810.55 846.47 805.51 845.11 800.06 C 844.07 794.54 844.60 788.94 844.47 783.38 C 843.97 768.12 837.00 754.18 831.76 740.14 C 829.05 733.39 837.06 727.49 835.13 720.67 C 831.43 715.11 827.35 709.83 823.82 704.16 C 824.65 700.14 824.44 695.74 826.24 692.01 C 832.89 686.38 842.82 686.33 849.37 680.54 C 849.99 677.17 849.64 673.73 849.68 670.34 M 895.16 764.10 C 894.75 765.10 894.36 766.11 893.97 767.12 C 895.29 767.48 896.61 767.84 897.96 768.20 C 897.94 767.44 897.89 765.92 897.87 765.17 C 896.95 764.80 896.05 764.45 895.16 764.10 Z" />
</g>
<g id="#5fdf7fff">
<path fill="#5fdf7f" fill-opacity="0" d=" M 683.52 700.27 C 686.76 700.43 690.00 700.57 693.24 700.81 C 693.76 709.11 700.57 714.47 703.89 721.58 C 707.61 721.72 711.66 723.21 715.11 721.25 C 722.21 717.70 724.59 709.57 730.33 704.56 C 735.75 702.74 741.52 703.63 747.10 703.90 C 750.14 704.44 754.27 703.64 756.69 706.21 C 760.12 709.69 762.39 714.09 765.14 718.10 C 758.31 722.83 752.64 728.98 746.43 734.45 C 742.04 738.83 737.12 742.73 733.35 747.69 C 736.35 749.02 739.77 749.95 742.08 752.41 C 745.96 766.09 740.52 780.10 742.14 793.93 C 742.82 800.33 746.17 806.06 747.12 812.37 C 746.84 815.54 744.51 818.07 743.37 820.97 C 741.70 830.51 741.78 843.11 732.52 848.89 C 724.62 849.33 718.31 843.30 711.24 840.62 C 705.75 837.96 699.90 842.23 694.26 840.60 C 687.06 838.67 679.72 836.35 672.20 837.87 C 665.55 822.43 651.66 809.10 634.49 806.80 C 635.99 799.91 636.89 792.90 638.08 785.95 C 639.02 781.81 636.49 778.12 634.84 774.56 C 638.54 766.15 643.33 758.24 646.28 749.51 C 650.27 739.06 651.16 727.79 654.38 717.12 C 655.57 713.24 657.44 709.63 659.20 705.99 C 662.10 705.75 665.10 705.68 668.02 705.64 C 670.07 708.21 672.38 712.92 676.43 711.39 C 680.51 709.23 681.47 704.07 683.52 700.27 M 686.98 766.90 L 686.98 768.10 C 688.19 768.46 689.41 768.83 690.64 769.22 C 690.63 768.06 690.63 766.92 690.64 765.78 C 689.41 766.14 688.19 766.52 686.98 766.90 Z" />
</g>
<g id="#df5f7fff">
<path fill="#df5f7f" fill-opacity="0" d=" M 797.04 712.01 C 806.05 709.69 814.99 707.10 823.82 704.16 C 827.35 709.83 831.43 715.11 835.13 720.67 C 837.06 727.49 829.05 733.39 831.76 740.14 C 837.00 754.18 843.97 768.12 844.47 783.38 C 844.60 788.94 844.07 794.54 845.11 800.06 C 846.47 805.51 849.13 810.55 852.60 814.95 C 846.93 818.21 842.57 823.68 840.20 829.70 C 841.82 832.00 844.08 833.81 845.59 836.22 C 843.29 842.56 843.03 849.44 840.40 855.66 C 835.50 853.13 831.92 848.75 832.74 842.80 C 830.86 843.40 829.00 844.02 827.14 844.64 C 825.58 843.54 824.00 842.48 822.40 841.47 C 820.83 844.25 819.26 847.04 817.76 849.86 C 805.31 850.65 792.84 850.26 780.39 850.68 C 777.20 844.62 773.95 838.53 770.00 832.94 C 767.97 829.93 764.41 828.72 761.19 827.48 C 755.26 825.28 749.33 823.07 743.37 820.97 C 744.51 818.07 746.84 815.54 747.12 812.37 C 746.17 806.06 742.82 800.33 742.14 793.93 C 740.52 780.10 745.96 766.09 742.08 752.41 C 739.77 749.95 736.35 749.02 733.35 747.69 C 737.12 742.73 742.04 738.83 746.43 734.45 C 752.64 728.98 758.31 722.83 765.14 718.10 C 775.54 715.02 786.54 714.67 797.04 712.01 Z" />
</g>
<g id="#5f1f00fe">
<path fill="#5f1f00" fill-opacity="0" d=" M 619.76 707.43 C 626.42 712.14 632.98 716.99 639.64 721.70 C 641.76 718.52 643.92 715.36 646.07 712.21 C 648.82 713.88 651.59 715.50 654.38 717.12 C 651.16 727.79 650.27 739.06 646.28 749.51 C 643.33 758.24 638.54 766.15 634.84 774.56 C 636.49 778.12 639.02 781.81 638.08 785.95 C 636.89 792.90 635.99 799.91 634.49 806.80 C 627.00 818.20 619.58 830.18 608.94 838.97 C 605.54 841.33 602.17 845.08 597.69 845.01 C 590.31 843.77 583.25 841.15 576.06 839.17 C 566.48 853.43 557.65 868.98 542.74 878.41 C 543.73 879.75 544.72 881.11 545.78 882.44 C 537.25 880.72 528.60 879.35 520.32 876.65 C 515.00 874.90 509.38 870.52 510.58 864.10 C 510.32 856.25 505.02 849.70 504.39 841.93 C 504.84 837.71 508.25 833.96 506.43 829.54 C 505.79 825.05 503.83 819.80 506.64 815.62 C 512.94 810.54 522.88 808.96 525.54 800.30 C 528.22 796.02 524.73 791.87 522.77 788.16 C 520.03 783.73 519.48 778.23 520.06 773.16 C 522.56 769.59 526.73 767.67 529.42 764.28 C 532.88 758.22 526.65 756.08 522.91 753.52 C 523.07 749.64 523.40 745.81 523.90 741.98 C 526.53 742.38 529.20 742.36 531.86 742.41 C 530.25 739.92 528.66 737.43 527.07 734.97 C 550.47 740.14 574.52 741.63 598.43 741.56 C 605.20 729.98 612.31 718.59 619.76 707.43 Z" />
</g>
<g id="#1f9f7fff">
<path fill="#1f9f7f" fill-opacity="0" d=" M 1010.21 752.68 C 1016.73 752.15 1023.06 754.83 1029.55 755.21 C 1035.66 756.06 1041.75 754.48 1047.86 754.76 C 1049.14 758.54 1049.88 762.50 1051.51 766.16 C 1049.29 769.14 1048.88 774.97 1044.34 775.25 C 1039.91 775.73 1035.59 776.81 1031.35 778.16 C 1031.64 781.82 1033.03 785.80 1031.32 789.30 C 1028.76 794.43 1025.86 799.39 1023.47 804.62 C 1025.23 804.78 1028.76 805.09 1030.53 805.25 C 1029.19 809.39 1027.77 813.62 1025.40 817.29 C 1019.22 821.79 1014.51 827.80 1009.18 833.19 C 1007.37 835.35 1006.13 837.90 1004.76 840.34 C 996.60 838.92 988.38 841.26 980.28 839.19 C 973.18 839.63 966.09 840.29 958.97 840.00 C 955.36 843.14 953.94 848.11 950.56 851.50 C 941.24 849.22 930.66 846.33 925.24 837.71 C 922.11 832.55 916.28 830.24 910.79 828.46 C 909.34 822.02 908.89 815.34 909.62 808.78 C 910.84 801.44 915.78 795.54 919.28 789.20 C 925.69 778.86 930.97 767.84 937.81 757.77 C 939.09 756.33 939.87 753.88 942.03 753.53 C 947.79 752.45 954.39 752.89 959.15 756.65 C 965.08 761.11 970.52 766.21 976.52 770.60 C 979.12 767.72 981.77 764.89 984.48 762.12 C 986.35 763.63 988.30 765.03 990.24 766.47 C 997.37 762.64 1002.37 755.19 1010.21 752.68 Z" />
</g>
<g id="#5f5f00ff">
<path fill="#5f5f00" fill-opacity="0" d=" M 895.16 764.10 C 896.05 764.45 896.95 764.80 897.87 765.17 C 897.89 765.92 897.94 767.44 897.96 768.20 C 896.61 767.84 895.29 767.48 893.97 767.12 C 894.36 766.11 894.75 765.10 895.16 764.10 Z" />
</g>
<g id="#dfdf7fff">
<path fill="#dfdf7f" fill-opacity="0" d=" M 686.98 766.90 C 688.19 766.52 689.41 766.14 690.64 765.78 C 690.63 766.92 690.63 768.06 690.64 769.22 C 689.41 768.83 688.19 768.46 686.98 768.10 L 686.98 766.90 Z" />
</g>
<g id="#9f9f7fff">
<path fill="#9f9f7f" fill-opacity="0" d=" M 608.94 838.97 C 619.58 830.18 627.00 818.20 634.49 806.80 C 651.66 809.10 665.55 822.43 672.20 837.87 C 676.32 846.66 686.26 849.85 694.17 854.14 C 693.50 858.33 692.77 862.51 692.04 866.70 C 688.38 865.11 684.68 863.62 680.99 862.11 C 679.62 866.73 676.92 871.60 678.71 876.49 C 682.04 886.43 678.59 897.33 682.09 907.26 C 680.69 910.46 679.84 913.95 677.83 916.85 C 669.40 916.62 661.63 912.89 654.53 908.68 C 653.66 905.75 652.69 902.86 651.64 900.00 C 649.21 901.63 647.00 903.57 644.96 905.67 C 640.46 905.44 636.03 905.06 631.56 904.71 C 627.49 904.37 624.28 907.45 620.48 908.29 C 612.92 909.90 605.75 906.02 599.03 903.18 C 602.90 902.06 606.51 899.95 608.88 896.65 C 605.43 895.19 601.98 893.75 598.53 892.34 C 598.64 889.35 598.88 886.54 599.01 883.61 C 594.14 884.76 588.63 884.73 584.19 887.23 C 581.15 890.75 582.55 896.15 581.22 900.34 C 574.97 899.22 568.40 897.88 563.60 893.43 C 557.40 890.31 550.28 888.12 545.78 882.44 C 544.72 881.11 543.73 879.75 542.74 878.41 C 557.65 868.98 566.48 853.43 576.06 839.17 C 583.25 841.15 590.31 843.77 597.69 845.01 C 602.17 845.08 605.54 841.33 608.94 838.97 Z" />
</g>
<g id="#1f5fbfff">
<path fill="#1f5fbf" fill-opacity="0" d=" M 743.37 820.97 C 749.33 823.07 755.26 825.28 761.19 827.48 C 764.41 828.72 767.97 829.93 770.00 832.94 C 773.95 838.53 777.20 844.62 780.39 850.68 C 792.84 850.26 805.31 850.65 817.76 849.86 C 819.51 852.49 821.26 855.10 822.60 858.00 C 821.16 862.45 819.33 866.78 818.45 871.42 C 814.00 872.07 809.54 872.56 805.06 872.37 C 804.99 876.91 804.99 881.51 804.96 886.08 C 801.40 887.51 797.71 888.63 794.06 889.76 C 792.97 891.09 791.99 892.54 790.61 893.59 C 785.77 893.67 781.00 892.77 776.23 892.13 C 771.99 895.93 766.51 897.86 761.77 900.83 C 758.17 905.43 756.37 911.20 753.80 916.41 C 745.31 915.99 737.39 912.39 729.05 910.96 C 727.78 913.33 726.52 915.71 725.37 918.15 C 716.65 917.24 709.56 911.63 701.11 909.87 C 694.81 908.59 688.48 907.70 682.09 907.26 C 678.59 897.33 682.04 886.43 678.71 876.49 C 676.92 871.60 679.62 866.73 680.99 862.11 C 684.68 863.62 688.38 865.11 692.04 866.70 C 692.77 862.51 693.50 858.33 694.17 854.14 C 686.26 849.85 676.32 846.66 672.20 837.87 C 679.72 836.35 687.06 838.67 694.26 840.60 C 699.90 842.23 705.75 837.96 711.24 840.62 C 718.31 843.30 724.62 849.33 732.52 848.89 C 741.78 843.11 741.70 830.51 743.37 820.97 Z" />
</g>
<g id="#8f5f00ff">
<path fill="#8f5f00" fill-opacity="0" d=" M 0.00 1079.00 C 118.33 1079.00 236.67 1078.99 355.00 1079.01 C 376.90 1079.10 398.82 1078.36 420.69 1079.95 L 421.71 1080.00 L 0.00 1080.00 L 0.00 1079.00 Z" />
</g>
<g id="#1f001ffe">
<path fill="#1f001f" fill-opacity="0" d=" M 420.69 1079.95 C 451.07 1077.86 481.57 1079.50 512.00 1079.00 L 512.00 1080.00 L 421.71 1080.00 L 420.69 1079.95 Z" />
</g>
<g id="#bfbf5fff">
<path fill="#bfbf5f" fill-opacity="0" d=" M 512.00 1079.00 C 546.00 1079.00 580.00 1078.99 614.00 1079.00 L 614.00 1080.00 L 512.00 1080.00 L 512.00 1079.00 Z" />
</g>
<g id="#df001fff">
<path fill="#df001f" fill-opacity="0" d=" M 614.00 1079.00 C 634.57 1079.02 655.17 1078.46 675.72 1079.96 L 676.70 1080.00 L 614.00 1080.00 L 614.00 1079.00 Z" />
</g>
<g id="#7fbf5fff">
<path fill="#7fbf5f" fill-opacity="0" d=" M 675.72 1079.96 C 689.12 1078.95 702.56 1078.77 716.00 1078.97 L 716.01 1080.00 L 676.70 1080.00 L 675.72 1079.96 Z" />
</g>
<g id="#1f3f1ffe">
<path fill="#1f3f1f" fill-opacity="0" d=" M 716.00 1078.97 C 753.33 1079.04 790.66 1078.97 828.00 1079.00 L 828.00 1080.00 L 716.01 1080.00 L 716.00 1078.97 Z" />
</g>
<g id="#7f3fdfff">
<path fill="#7f3fdf" fill-opacity="0" d=" M 828.00 1079.00 C 850.33 1078.99 872.66 1078.99 895.00 1079.00 L 895.00 1080.00 L 828.00 1080.00 L 828.00 1079.00 Z" />
</g>
<g id="#3f3f5fff">
<path fill="#3f3f5f" fill-opacity="0" d=" M 895.00 1079.00 C 914.33 1078.98 933.66 1079.04 953.00 1078.93 L 953.00 1080.00 L 895.00 1080.00 L 895.00 1079.00 Z" />
</g>
<g id="#bf3f5fff">
<path fill="#bf3f5f" fill-opacity="0" d=" M 953.00 1078.93 C 963.91 1078.87 974.82 1079.30 985.72 1079.97 L 986.66 1080.00 L 953.00 1080.00 L 953.00 1078.93 Z" />
</g>
<g id="#0f003fff">
<path fill="#0f003f" fill-opacity="0" d=" M 985.72 1079.97 C 989.17 1079.70 992.51 1079.27 996.01 1079.11 L 996.07 1080.00 L 986.66 1080.00 L 985.72 1079.97 Z" />
</g>
<g id="#8fbf3fff">
<path fill="#8fbf3f" fill-opacity="0" d=" M 996.01 1079.11 C 1025.75 1078.98 1055.53 1078.32 1085.25 1080.00 L 996.07 1080.00 L 996.01 1079.11 Z" />
</g>
<g id="#cf003fff">
<path fill="#cf003f" fill-opacity="0" d=" M 1086.62 1080.00 C 1103.04 1078.82 1119.52 1078.80 1135.99 1078.98 L 1136.02 1080.00 L 1086.62 1080.00 Z" />
</g>
<g id="#4f7f3fff">
<path fill="#4f7f3f" fill-opacity="0" d=" M 1135.99 1078.98 C 1164.32 1079.03 1192.65 1078.97 1220.99 1079.00 L 1221.03 1080.00 L 1136.02 1080.00 L 1135.99 1078.98 Z" />
</g>
<g id="#4fbf7fff">
<path fill="#4fbf7f" fill-opacity="0" d=" M 1220.99 1079.00 C 1242.21 1079.07 1263.46 1078.40 1284.66 1079.94 L 1285.72 1080.00 L 1221.03 1080.00 L 1220.99 1079.00 Z" />
</g>
<g id="#5f9f9fff">
<path fill="#5f9f9f" fill-opacity="0" d=" M 1284.66 1079.94 C 1291.68 1079.41 1298.70 1079.66 1305.76 1079.96 L 1306.77 1080.00 L 1285.72 1080.00 L 1284.66 1079.94 Z" />
<path fill="#5f9f9f" fill-opacity="0" d=" M 1319.70 1079.99 C 1334.99 1078.33 1350.40 1078.78 1365.72 1079.95 L 1366.72 1080.00 L 1320.66 1080.00 L 1319.70 1079.99 Z" />
</g>
<g id="#df9f9ffe">
<path fill="#df9f9f" fill-opacity="0" d=" M 1305.76 1079.96 C 1310.40 1079.95 1315.00 1079.92 1319.70 1079.99 L 1320.66 1080.00 L 1306.77 1080.00 L 1305.76 1079.96 Z" />
</g>
<g id="#9f1f9fff">
<path fill="#9f1f9f" fill-opacity="0" d=" M 1365.72 1079.95 C 1390.55 1078.21 1415.48 1078.68 1440.33 1080.00 L 1366.72 1080.00 L 1365.72 1079.95 Z" />
</g>
<g id="#bf5f1fff">
<path fill="#bf5f1f" fill-opacity="0" d=" M 1442.51 1080.00 C 1460.88 1078.41 1479.35 1078.65 1497.75 1079.96 L 1498.69 1080.00 L 1442.51 1080.00 Z" />
</g>
<g id="#005f1fff">
<path fill="#005f1f" fill-opacity="0" d=" M 1497.75 1079.96 C 1500.46 1079.72 1503.21 1079.49 1506.00 1079.25 L 1506.40 1080.00 L 1498.69 1080.00 L 1497.75 1079.96 Z" />
</g>
<g id="#7f1fdfff">
<path fill="#7f1fdf" fill-opacity="0" d=" M 1506.00 1079.25 C 1507.27 1078.35 1508.30 1078.60 1509.09 1080.00 L 1506.40 1080.00 L 1506.00 1079.25 Z" />
<path fill="#7f1fdf" fill-opacity="0" d=" M 1510.50 1080.00 C 1532.19 1078.40 1553.98 1078.47 1575.69 1079.95 L 1576.71 1080.00 L 1510.50 1080.00 Z" />
</g>
<g id="#9f005fff">
<path fill="#9f005f" fill-opacity="0" d=" M 1575.69 1079.95 C 1592.64 1078.33 1609.70 1078.71 1626.69 1079.94 L 1627.72 1080.00 L 1576.71 1080.00 L 1575.69 1079.95 Z" />
</g>
<g id="#9f7f5fff">
<path fill="#9f7f5f" fill-opacity="0" d=" M 1626.69 1079.94 C 1651.97 1078.23 1677.38 1078.58 1702.69 1079.95 L 1703.72 1080.00 L 1627.72 1080.00 L 1626.69 1079.94 Z" />
</g>
<g id="#9fbf9fff">
<path fill="#9fbf9f" fill-opacity="0" d=" M 1702.69 1079.95 C 1731.33 1078.18 1760.10 1078.62 1788.77 1079.97 L 1789.67 1080.00 L 1703.72 1080.00 L 1702.69 1079.95 Z" />
</g>
<g id="#5fbf1fff">
<path fill="#5fbf1f" fill-opacity="0" d=" M 1788.77 1079.97 C 1792.81 1079.76 1796.89 1079.57 1801.01 1079.39 L 1801.34 1080.00 L 1789.67 1080.00 L 1788.77 1079.97 Z" />
</g>
<g id="#df00dfff">
<path fill="#df00df" fill-opacity="0" d=" M 1801.01 1079.39 C 1802.32 1078.53 1803.65 1078.52 1805.02 1079.37 L 1804.71 1080.00 L 1801.34 1080.00 L 1801.01 1079.39 Z" />
<path fill="#df00df" fill-opacity="0" d=" M 1819.19 1079.95 C 1838.67 1078.46 1858.24 1078.55 1877.75 1079.96 L 1878.72 1080.00 L 1818.24 1080.00 L 1819.19 1079.95 Z" />
</g>
<g id="#5fbf1ffe">
<path fill="#5fbf1f" fill-opacity="0" d=" M 1805.02 1079.37 C 1809.73 1079.55 1814.39 1079.76 1819.19 1079.95 L 1818.24 1080.00 L 1804.71 1080.00 L 1805.02 1079.37 Z" />
</g>
<g id="#9f7fdfff">
<path fill="#9f7fdf" fill-opacity="0" d=" M 1877.75 1079.96 C 1890.54 1079.11 1903.39 1078.79 1916.23 1079.44 L 1916.63 1080.00 L 1878.72 1080.00 L 1877.75 1079.96 Z" />
</g>
<g id="#203f5fff">
<path fill="#203f5f" fill-opacity="0" d=" M 1916.23 1079.44 C 1917.47 1078.46 1918.72 1078.42 1920.00 1079.32 L 1920.00 1080.00 L 1916.63 1080.00 L 1916.23 1079.44 Z" />
</g>
</svg>
