<?xml version="1.0" encoding="UTF-8" ?>
<!DOCTYPE svg PUBLIC "-//W3C//DTD SVG 1.1//EN" "http://www.w3.org/Graphics/SVG/1.1/DTD/svg11.dtd">
<svg width="1920pt" height="1080pt" viewBox="0 0 1920 1080" version="1.1" xmlns="http://www.w3.org/2000/svg">
<g id="#7f001fff">
<path fill="#7f001f" opacity="0" d=" M 1019.62 247.56 C 1025.59 243.53 1033.08 243.62 1040.02 243.35 C 1044.49 243.11 1048.95 244.70 1052.33 247.64 C 1058.12 252.64 1064.46 256.93 1070.77 261.24 C 1077.19 264.96 1084.81 262.47 1091.78 262.55 C 1093.96 265.02 1096.60 266.99 1099.06 269.15 C 1103.84 274.12 1106.83 280.42 1111.25 285.68 C 1118.33 295.29 1127.09 303.71 1132.60 314.41 C 1134.01 317.13 1132.95 320.23 1132.65 323.08 C 1131.12 331.37 1130.00 339.85 1126.66 347.65 C 1124.43 352.95 1122.96 358.52 1122.27 364.23 C 1112.45 367.92 1102.57 371.51 1092.35 373.92 C 1083.46 375.82 1074.60 378.04 1065.57 379.13 C 1049.21 380.13 1033.26 384.36 1017.48 388.55 C 1013.29 389.50 1009.30 391.21 1005.91 393.85 C 998.90 399.17 990.16 401.12 982.55 405.32 C 985.36 407.44 988.27 409.43 991.19 411.39 C 987.10 421.55 983.77 432.11 978.65 441.82 C 976.10 448.02 968.86 449.16 963.47 451.63 C 950.57 456.03 937.81 461.15 924.37 463.68 C 914.24 465.81 904.22 468.44 894.29 471.35 C 891.18 472.39 887.52 473.38 885.92 476.55 C 883.64 480.69 882.22 485.56 877.77 488.03 C 873.42 491.26 873.44 497.80 868.75 500.70 C 859.75 506.81 850.16 512.02 841.25 518.27 C 833.31 524.32 822.93 528.01 812.95 526.05 C 807.44 524.96 805.89 518.69 803.18 514.53 C 797.60 514.83 792.04 515.30 786.45 515.38 C 780.24 526.25 783.54 538.92 782.35 550.67 C 780.61 554.55 776.56 556.72 773.53 559.46 C 769.03 562.61 765.04 566.60 760.00 568.89 C 753.42 571.78 746.77 567.73 740.06 568.23 C 731.06 568.79 721.83 570.91 713.03 567.93 C 702.11 565.42 692.05 557.95 680.36 559.42 C 670.29 559.65 661.12 564.19 651.73 567.28 C 640.57 570.82 628.57 570.02 617.39 573.47 C 611.15 575.53 605.25 578.39 599.43 581.41 C 601.78 584.73 604.41 587.80 607.17 590.82 C 612.21 595.56 619.14 597.98 623.79 603.21 C 626.78 607.35 623.97 612.83 621.63 616.63 C 617.16 623.40 613.56 631.00 612.92 639.20 C 613.60 644.51 616.81 649.09 619.09 653.85 C 626.90 669.46 638.50 683.06 652.26 693.74 C 657.43 697.83 662.55 702.09 666.53 707.39 C 669.49 711.81 670.75 717.08 673.21 721.77 L 673.53 722.42 C 659.67 722.53 645.75 723.50 631.95 721.81 C 608.88 719.60 585.63 719.42 562.65 716.35 C 555.41 715.88 550.87 707.21 543.05 710.07 C 532.06 711.79 521.04 708.89 510.82 705.12 C 503.71 700.38 501.28 691.47 495.73 685.36 C 489.94 680.03 484.68 674.01 481.18 666.92 C 479.55 661.55 482.53 655.31 479.64 650.31 C 474.68 643.74 469.33 637.33 465.90 629.78 C 466.83 626.07 469.00 622.78 470.14 619.14 C 471.25 614.04 471.59 608.83 471.72 603.63 C 459.29 595.17 451.43 581.75 444.58 568.77 C 444.10 562.76 451.07 560.98 455.31 558.74 C 452.53 553.18 449.23 547.84 447.31 541.89 C 448.67 538.21 452.32 536.13 455.70 534.61 C 460.87 532.39 465.87 529.81 470.97 527.45 C 468.12 522.00 464.95 516.72 462.58 511.03 C 463.65 509.68 464.82 508.38 465.61 506.84 C 465.11 504.55 463.92 502.51 462.93 500.42 C 465.71 497.38 468.16 493.82 471.95 491.95 C 481.33 486.60 490.31 480.57 498.64 473.68 C 502.21 470.67 506.96 468.52 508.85 463.97 C 512.45 455.78 509.56 446.64 508.94 438.12 C 513.97 435.20 519.91 433.38 524.02 429.07 C 526.96 425.21 528.27 420.25 531.88 416.87 C 535.42 413.00 541.62 414.08 545.12 410.17 C 548.69 407.06 551.40 401.52 556.88 401.95 C 567.02 401.62 577.34 397.35 587.48 399.88 C 592.82 401.85 598.55 400.38 604.06 400.09 C 613.61 399.01 623.26 399.27 632.84 399.62 C 646.35 400.21 659.12 405.30 672.55 406.49 C 680.72 406.65 688.87 409.98 693.72 416.75 C 701.68 414.20 711.13 406.81 719.23 412.80 C 721.69 417.88 717.68 423.72 719.15 429.04 C 724.01 434.88 731.86 440.44 739.93 437.74 C 747.60 436.33 755.28 434.91 763.05 434.13 C 767.18 433.59 771.80 432.96 774.80 429.76 C 778.43 424.42 780.32 418.23 782.33 412.17 C 784.22 405.89 789.47 401.43 793.83 396.81 C 798.31 392.35 801.28 386.26 807.14 383.33 C 816.62 378.84 827.56 378.08 836.64 372.69 C 842.84 368.13 846.34 361.03 851.22 355.25 C 857.84 347.50 866.36 341.70 873.16 334.13 C 877.37 329.17 876.98 321.55 882.27 317.33 C 891.25 306.88 904.64 300.69 911.81 288.68 C 921.43 287.39 931.09 283.82 940.82 286.35 C 947.66 288.27 952.72 293.56 958.22 297.74 C 963.54 301.20 968.30 296.23 972.01 292.98 C 976.43 289.35 975.60 283.02 976.62 278.01 C 989.10 265.41 1004.94 257.19 1019.62 247.56 Z" />
</g>
<g id="#007f9fff">
<path fill="#007f9f" opacity="0" d=" M 637.08 262.96 C 637.43 259.65 641.32 255.40 644.64 257.51 C 648.62 259.30 652.69 261.41 657.17 261.36 C 667.76 260.53 679.15 260.81 688.67 266.11 C 696.33 270.13 704.40 262.97 712.32 264.79 C 717.76 265.93 723.26 267.37 728.87 266.64 C 732.30 265.73 735.30 263.70 738.65 262.54 C 741.49 265.03 743.77 268.42 747.57 269.57 C 749.35 270.12 751.80 271.25 753.10 269.26 C 755.62 266.40 758.59 263.19 762.75 263.29 C 767.37 263.48 772.44 264.84 775.73 268.18 C 777.51 272.68 778.16 277.61 778.59 282.42 C 787.82 283.29 796.77 280.07 805.98 280.43 C 812.97 280.31 819.99 280.94 826.97 280.42 C 832.31 280.07 837.00 277.53 841.66 275.19 C 849.62 272.24 858.32 272.01 866.19 268.71 C 874.13 265.95 882.02 269.60 888.35 274.17 C 888.90 277.93 889.01 281.94 890.54 285.50 C 896.96 289.08 904.78 288.15 911.81 288.68 C 904.64 300.69 891.25 306.88 882.27 317.33 C 876.98 321.55 877.37 329.17 873.16 334.13 C 866.36 341.70 857.84 347.50 851.22 355.25 C 846.34 361.03 842.84 368.13 836.64 372.69 C 827.56 378.08 816.62 378.84 807.14 383.33 C 801.28 386.26 798.31 392.35 793.83 396.81 C 789.47 401.43 784.22 405.89 782.33 412.17 C 780.32 418.23 778.43 424.42 774.80 429.76 C 771.80 432.96 767.18 433.59 763.05 434.13 C 755.28 434.91 747.60 436.33 739.93 437.74 C 731.86 440.44 724.01 434.88 719.15 429.04 C 717.68 423.72 721.69 417.88 719.23 412.80 C 711.13 406.81 701.68 414.20 693.72 416.75 C 688.87 409.98 680.72 406.65 672.55 406.49 C 659.12 405.30 646.35 400.21 632.84 399.62 C 623.26 399.27 613.61 399.01 604.06 400.09 C 598.55 400.38 592.82 401.85 587.48 399.88 C 588.78 395.65 589.60 391.31 590.47 386.99 C 591.15 382.89 595.31 380.54 596.20 376.52 C 597.68 369.61 598.25 362.50 600.96 355.90 C 603.25 350.73 601.95 344.98 602.90 339.63 C 606.20 334.77 611.41 331.06 612.74 324.99 C 614.22 316.13 613.45 306.75 617.49 298.44 C 621.42 293.83 628.74 294.36 632.66 289.77 C 632.83 285.22 629.33 280.43 632.15 276.15 C 634.60 272.09 636.69 267.80 637.08 262.96 M 665.40 269.15 C 664.96 270.54 665.44 271.03 666.85 270.60 C 667.28 269.19 666.80 268.71 665.40 269.15 Z" />
</g>
<g id="#605f40ff">
<path fill="#605f40" opacity="0" d=" M 665.40 269.15 C 666.80 268.71 667.28 269.19 666.85 270.60 C 665.44 271.03 664.96 270.54 665.40 269.15 Z" />
</g>
<g id="#1f5fbfff">
<path fill="#1f5fbf" opacity="0" d=" M 1226.02 358.90 C 1233.44 358.26 1240.90 356.68 1248.36 357.76 C 1258.04 359.15 1267.59 361.29 1277.31 362.52 C 1282.46 363.66 1288.85 364.96 1291.18 370.36 C 1293.33 375.61 1294.10 381.28 1295.31 386.81 C 1302.67 386.76 1310.19 384.97 1317.46 386.50 C 1326.13 397.81 1332.26 410.83 1340.71 422.28 C 1344.93 426.82 1348.36 433.36 1354.93 434.50 C 1369.78 434.45 1383.69 427.36 1398.54 427.45 C 1400.44 432.25 1401.14 438.11 1405.13 441.83 C 1409.89 446.03 1415.56 449.11 1420.16 453.52 C 1421.88 457.38 1419.94 461.57 1418.00 464.96 C 1415.25 469.69 1413.32 474.87 1410.34 479.47 C 1406.15 484.59 1399.62 486.74 1394.33 490.40 C 1391.15 493.52 1389.90 497.98 1387.84 501.82 C 1383.73 510.56 1377.08 517.78 1372.47 526.22 C 1372.30 528.51 1373.15 530.69 1373.82 532.85 C 1376.28 540.08 1378.07 547.53 1380.63 554.74 C 1379.60 556.33 1378.59 557.92 1377.66 559.56 C 1371.89 560.33 1366.09 559.24 1360.55 557.72 C 1346.95 554.43 1333.21 551.81 1319.44 549.43 C 1298.06 546.70 1276.53 545.62 1255.05 543.99 C 1251.43 550.98 1248.35 558.25 1245.66 565.65 C 1242.76 573.37 1242.76 581.74 1241.94 589.85 C 1231.74 591.07 1221.61 592.68 1211.48 594.35 C 1198.28 596.07 1184.96 596.71 1171.65 596.61 C 1154.67 596.35 1137.68 596.66 1120.73 595.55 C 1110.40 595.46 1100.03 594.79 1089.74 595.82 C 1089.08 594.21 1088.42 592.60 1087.85 590.97 C 1085.26 581.99 1083.70 572.61 1083.54 563.28 C 1084.65 556.11 1093.44 553.61 1095.74 546.96 C 1094.99 544.25 1093.18 542.04 1091.66 539.74 C 1094.27 536.55 1097.15 533.51 1099.18 529.89 C 1100.25 527.58 1099.06 525.01 1098.74 522.66 C 1096.25 512.61 1098.18 502.20 1097.76 492.02 C 1098.10 483.45 1096.42 475.01 1095.93 466.50 C 1095.31 459.37 1096.36 451.87 1092.81 445.28 C 1088.67 441.36 1083.22 439.41 1078.61 436.16 C 1082.78 434.23 1088.82 433.77 1091.03 429.00 C 1093.81 424.28 1093.00 418.74 1093.55 413.55 C 1095.03 400.35 1095.13 386.95 1092.35 373.92 C 1102.57 371.51 1112.45 367.92 1122.27 364.23 C 1124.15 366.06 1125.85 368.86 1128.85 368.71 C 1144.72 368.91 1160.52 366.42 1176.40 366.53 C 1180.88 366.62 1185.39 366.10 1189.63 364.57 C 1201.33 360.52 1213.80 360.03 1226.02 358.90 Z" />
</g>
<g id="#dfdf3fff">
<path fill="#dfdf3f" opacity="0" d=" M 1065.57 379.13 C 1074.60 378.04 1083.46 375.82 1092.35 373.92 C 1095.13 386.95 1095.03 400.35 1093.55 413.55 C 1093.00 418.74 1093.81 424.28 1091.03 429.00 C 1088.82 433.77 1082.78 434.23 1078.61 436.16 C 1074.15 437.88 1070.30 440.78 1066.26 443.27 C 1057.28 448.83 1048.37 454.53 1040.06 461.07 C 1031.64 467.90 1020.90 470.59 1011.22 475.09 C 999.66 479.80 989.21 486.76 977.80 491.78 C 973.71 493.68 969.36 495.16 965.68 497.82 C 962.41 500.04 963.59 504.80 963.16 508.01 C 962.51 512.96 963.87 518.42 961.95 523.17 C 954.26 529.60 942.70 530.32 936.79 539.19 C 928.95 538.73 921.30 541.24 914.11 544.10 C 899.01 550.45 884.71 558.50 870.50 566.59 C 867.13 569.24 861.90 570.82 860.51 575.33 C 860.45 579.64 862.94 583.46 864.70 587.26 C 868.36 594.85 870.73 603.06 872.17 611.36 C 862.68 609.13 853.60 613.20 844.60 615.51 C 840.42 616.74 835.45 618.37 834.10 623.05 C 829.33 636.19 829.80 650.56 825.85 663.91 C 823.75 669.93 818.04 673.43 813.65 677.65 C 807.43 683.52 800.58 688.71 794.63 694.86 C 784.65 706.89 775.42 719.52 765.78 731.83 C 762.77 735.86 758.51 739.22 756.74 744.02 C 756.64 749.55 759.24 754.79 761.62 759.66 C 753.25 759.24 748.64 751.85 741.69 748.53 C 722.79 743.17 703.11 740.57 684.57 733.93 C 678.92 732.11 676.00 726.58 673.21 721.77 C 670.75 717.08 669.49 711.81 666.53 707.39 C 662.55 702.09 657.43 697.83 652.26 693.74 C 638.50 683.06 626.90 669.46 619.09 653.85 C 616.81 649.09 613.60 644.51 612.92 639.20 C 613.56 631.00 617.16 623.40 621.63 616.63 C 623.97 612.83 626.78 607.35 623.79 603.21 C 619.14 597.98 612.21 595.56 607.17 590.82 C 604.41 587.80 601.78 584.73 599.43 581.41 C 605.25 578.39 611.15 575.53 617.39 573.47 C 628.57 570.02 640.57 570.82 651.73 567.28 C 661.12 564.19 670.29 559.65 680.36 559.42 C 692.05 557.95 702.11 565.42 713.03 567.93 C 721.83 570.91 731.06 568.79 740.06 568.23 C 746.77 567.73 753.42 571.78 760.00 568.89 C 765.04 566.60 769.03 562.61 773.53 559.46 C 776.56 556.72 780.61 554.55 782.35 550.67 C 783.54 538.92 780.24 526.25 786.45 515.38 C 792.04 515.30 797.60 514.83 803.18 514.53 C 805.89 518.69 807.44 524.96 812.95 526.05 C 822.93 528.01 833.31 524.32 841.25 518.27 C 850.16 512.02 859.75 506.81 868.75 500.70 C 873.44 497.80 873.42 491.26 877.77 488.03 C 882.22 485.56 883.64 480.69 885.92 476.55 C 887.52 473.38 891.18 472.39 894.29 471.35 C 904.22 468.44 914.24 465.81 924.37 463.68 C 937.81 461.15 950.57 456.03 963.47 451.63 C 968.86 449.16 976.10 448.02 978.65 441.82 C 983.77 432.11 987.10 421.55 991.19 411.39 C 988.27 409.43 985.36 407.44 982.55 405.32 C 990.16 401.12 998.90 399.17 1005.91 393.85 C 1009.30 391.21 1013.29 389.50 1017.48 388.55 C 1033.26 384.36 1049.21 380.13 1065.57 379.13 Z" />
</g>
<g id="#dfdfbfff">
<path fill="#dfdfbf" opacity="0" d=" M 1066.26 443.27 C 1070.30 440.78 1074.15 437.88 1078.61 436.16 C 1083.22 439.41 1088.67 441.36 1092.81 445.28 C 1096.36 451.87 1095.31 459.37 1095.93 466.50 C 1096.42 475.01 1098.10 483.45 1097.76 492.02 C 1098.18 502.20 1096.25 512.61 1098.74 522.66 C 1099.06 525.01 1100.25 527.58 1099.18 529.89 C 1097.15 533.51 1094.27 536.55 1091.66 539.74 C 1093.18 542.04 1094.99 544.25 1095.74 546.96 C 1093.44 553.61 1084.65 556.11 1083.54 563.28 C 1083.70 572.61 1085.26 581.99 1087.85 590.97 C 1084.03 594.45 1078.52 596.96 1077.04 602.30 C 1075.16 607.50 1075.61 613.31 1073.23 618.35 C 1070.87 620.00 1067.94 620.41 1065.20 620.99 C 1061.63 614.59 1058.46 607.99 1055.45 601.33 C 1052.28 595.43 1043.86 595.50 1038.95 599.01 C 1035.67 603.51 1039.23 610.29 1035.54 614.49 C 1028.26 617.95 1019.19 617.27 1011.96 614.02 C 1008.71 612.63 1007.61 609.13 1007.53 605.89 C 1007.40 599.98 1003.50 594.41 998.09 592.14 C 987.10 590.87 975.69 590.44 964.81 592.87 C 958.56 594.90 960.98 603.65 959.44 608.37 C 950.51 608.20 941.79 610.33 932.96 611.38 C 924.42 612.34 915.82 612.40 907.25 612.65 C 895.56 612.07 883.75 613.57 872.17 611.36 C 870.73 603.06 868.36 594.85 864.70 587.26 C 862.94 583.46 860.45 579.64 860.51 575.33 C 861.90 570.82 867.13 569.24 870.50 566.59 C 884.71 558.50 899.01 550.45 914.11 544.10 C 921.30 541.24 928.95 538.73 936.79 539.19 C 942.70 530.32 954.26 529.60 961.95 523.17 C 963.87 518.42 962.51 512.96 963.16 508.01 C 963.59 504.80 962.41 500.04 965.68 497.82 C 969.36 495.16 973.71 493.68 977.80 491.78 C 989.21 486.76 999.66 479.80 1011.22 475.09 C 1020.90 470.59 1031.64 467.90 1040.06 461.07 C 1048.37 454.53 1057.28 448.83 1066.26 443.27 M 1016.19 557.91 C 1014.52 558.35 1015.42 560.95 1017.01 560.29 C 1018.67 559.86 1017.75 557.21 1016.19 557.91 Z" />
</g>
<g id="#5fdf3fff">
<path fill="#5fdf3f" opacity="0" d=" M 1255.05 543.99 C 1276.53 545.62 1298.06 546.70 1319.44 549.43 C 1333.21 551.81 1346.95 554.43 1360.55 557.72 C 1366.09 559.24 1371.89 560.33 1377.66 559.56 C 1372.79 567.36 1374.61 577.07 1374.47 585.77 C 1374.54 614.81 1370.96 643.77 1371.67 672.82 C 1372.14 680.51 1373.21 688.32 1371.37 695.93 C 1364.73 695.00 1358.14 693.89 1351.63 692.35 C 1346.51 691.02 1340.60 692.02 1336.67 695.68 C 1333.34 699.05 1333.36 704.10 1333.58 708.52 C 1331.76 710.75 1329.58 712.81 1328.41 715.48 C 1327.93 720.60 1328.46 725.77 1328.41 730.91 C 1322.99 732.37 1317.52 733.82 1312.50 736.40 C 1308.75 738.02 1308.69 742.80 1306.37 745.69 C 1300.85 745.30 1295.78 743.02 1290.50 741.62 C 1289.28 738.38 1288.20 735.12 1286.76 732.00 C 1281.80 724.03 1272.35 720.65 1265.99 714.02 C 1258.74 706.63 1255.90 696.21 1254.68 686.20 C 1251.77 684.71 1248.89 683.19 1246.02 681.65 C 1245.00 673.72 1239.95 667.29 1235.06 661.31 C 1230.95 659.62 1226.48 658.24 1223.10 655.25 C 1221.51 652.40 1221.08 649.09 1219.64 646.20 C 1216.52 641.97 1210.45 640.87 1207.74 636.31 C 1206.63 629.55 1206.84 622.55 1207.61 615.74 C 1208.56 608.55 1210.22 601.49 1211.48 594.35 C 1221.61 592.68 1231.74 591.07 1241.94 589.85 C 1242.76 581.74 1242.76 573.37 1245.66 565.65 C 1248.35 558.25 1251.43 550.98 1255.05 543.99 Z" />
</g>
<g id="#9fdfbffe">
<path fill="#9fdfbf" opacity="0" d=" M 1380.63 554.74 C 1383.44 557.10 1386.75 559.15 1388.55 562.48 C 1390.37 565.66 1390.67 569.44 1392.43 572.67 C 1401.41 577.03 1411.62 575.12 1421.14 577.04 C 1426.15 578.11 1432.50 576.46 1436.10 580.90 C 1443.89 589.29 1456.09 593.97 1467.38 590.53 C 1475.80 587.44 1485.55 591.17 1490.86 598.11 C 1494.73 604.06 1492.25 611.64 1495.03 617.98 C 1496.58 622.44 1499.16 627.72 1496.09 632.08 C 1487.67 645.76 1474.91 656.09 1466.71 669.96 C 1465.49 669.74 1464.30 669.55 1463.11 669.35 C 1461.95 675.87 1461.04 682.48 1459.26 688.87 C 1456.76 694.13 1452.50 698.37 1449.29 703.19 C 1449.60 704.45 1449.90 705.70 1450.25 706.98 C 1454.89 706.47 1459.48 705.75 1464.11 705.00 C 1464.88 707.18 1466.04 709.33 1466.17 711.70 C 1465.30 719.23 1463.11 726.53 1461.92 734.01 C 1460.80 744.96 1452.29 752.70 1445.12 760.16 C 1442.29 763.05 1438.68 759.58 1435.80 758.51 C 1427.00 767.04 1416.61 773.50 1406.96 780.95 C 1410.26 776.07 1415.30 771.87 1417.16 766.19 C 1415.66 759.71 1410.18 754.95 1404.68 751.67 C 1398.29 747.94 1393.67 741.26 1385.99 739.95 C 1376.26 736.16 1366.23 741.69 1356.33 741.59 C 1352.97 741.58 1346.78 742.93 1345.71 738.19 C 1342.81 730.95 1348.90 725.57 1352.37 720.08 C 1347.47 718.46 1342.23 718.17 1337.40 716.36 C 1334.13 715.33 1334.18 711.30 1333.58 708.52 C 1333.36 704.10 1333.34 699.05 1336.67 695.68 C 1340.60 692.02 1346.51 691.02 1351.63 692.35 C 1358.14 693.89 1364.73 695.00 1371.37 695.93 C 1373.21 688.32 1372.14 680.51 1371.67 672.82 C 1370.96 643.77 1374.54 614.81 1374.47 585.77 C 1374.61 577.07 1372.79 567.36 1377.66 559.56 C 1378.59 557.92 1379.60 556.33 1380.63 554.74 Z" />
</g>
<g id="#2c2c3fff">
<path fill="#2c2c3f" opacity="0" d=" M 1016.19 557.91 C 1017.75 557.21 1018.67 559.86 1017.01 560.29 C 1015.42 560.95 1014.52 558.35 1016.19 557.91 Z" />
</g>
<g id="#007f1fff">
<path fill="#007f1f" opacity="0" d=" M 964.81 592.87 C 975.69 590.44 987.10 590.87 998.09 592.14 C 1003.50 594.41 1007.40 599.98 1007.53 605.89 C 1007.61 609.13 1008.71 612.63 1011.96 614.02 C 1019.19 617.27 1028.26 617.95 1035.54 614.49 C 1039.23 610.29 1035.67 603.51 1038.95 599.01 C 1043.86 595.50 1052.28 595.43 1055.45 601.33 C 1058.46 607.99 1061.63 614.59 1065.20 620.99 C 1066.83 628.49 1058.05 632.21 1052.58 634.32 C 1046.37 636.73 1038.72 633.65 1033.29 638.24 C 1030.98 644.11 1032.36 650.51 1031.73 656.64 C 1031.33 661.79 1029.56 666.69 1027.73 671.47 C 1016.91 673.74 1005.89 675.12 995.27 678.24 C 985.30 681.14 977.91 689.60 967.62 691.65 C 960.68 692.78 953.23 696.25 946.29 693.85 C 942.07 686.51 942.25 677.03 936.48 670.49 C 932.88 667.48 928.39 665.40 923.75 664.69 C 912.03 663.52 900.28 665.20 888.58 665.80 C 893.24 647.53 903.95 631.29 907.25 612.65 C 915.82 612.40 924.42 612.34 932.96 611.38 C 941.79 610.33 950.51 608.20 959.44 608.37 C 960.98 603.65 958.56 594.90 964.81 592.87 Z" />
</g>
<g id="#5f5fbfff">
<path fill="#5f5fbf" opacity="0" d=" M 1077.04 602.30 C 1078.52 596.96 1084.03 594.45 1087.85 590.97 C 1088.42 592.60 1089.08 594.21 1089.74 595.82 C 1100.03 594.79 1110.40 595.46 1120.73 595.55 C 1137.68 596.66 1154.67 596.35 1171.65 596.61 C 1184.96 596.71 1198.28 596.07 1211.48 594.35 C 1210.22 601.49 1208.56 608.55 1207.61 615.74 C 1200.79 614.30 1193.06 611.71 1186.45 615.39 C 1183.44 616.91 1181.61 619.84 1179.57 622.39 C 1170.19 619.74 1161.02 623.27 1152.32 626.47 C 1151.70 632.79 1146.37 638.60 1147.81 645.10 C 1150.32 649.10 1155.73 649.81 1159.86 651.52 C 1159.44 658.49 1157.75 665.27 1155.99 672.01 C 1143.46 667.69 1130.06 669.96 1117.10 669.50 C 1107.42 669.70 1097.57 668.77 1088.09 671.19 C 1082.48 672.75 1076.54 669.65 1071.09 672.03 C 1065.21 674.70 1064.36 681.84 1061.45 687.01 C 1057.41 682.79 1056.33 676.93 1054.18 671.71 C 1051.88 672.51 1049.59 673.30 1047.29 674.07 C 1047.77 675.88 1048.25 677.70 1048.73 679.52 C 1046.46 680.71 1044.20 681.88 1041.94 683.09 C 1037.81 678.52 1032.58 675.19 1027.73 671.47 C 1029.56 666.69 1031.33 661.79 1031.73 656.64 C 1032.36 650.51 1030.98 644.11 1033.29 638.24 C 1038.72 633.65 1046.37 636.73 1052.58 634.32 C 1058.05 632.21 1066.83 628.49 1065.20 620.99 C 1067.94 620.41 1070.87 620.00 1073.23 618.35 C 1075.61 613.31 1075.16 607.50 1077.04 602.30 Z" />
</g>
<g id="#7f7f1fff">
<path fill="#7f7f1f" opacity="0" d=" M 844.60 615.51 C 853.60 613.20 862.68 609.13 872.17 611.36 C 883.75 613.57 895.56 612.07 907.25 612.65 C 903.95 631.29 893.24 647.53 888.58 665.80 C 900.28 665.20 912.03 663.52 923.75 664.69 C 928.39 665.40 932.88 667.48 936.48 670.49 C 942.25 677.03 942.07 686.51 946.29 693.85 C 953.23 696.25 960.68 692.78 967.62 691.65 C 977.91 689.60 985.30 681.14 995.27 678.24 C 1005.89 675.12 1016.91 673.74 1027.73 671.47 C 1032.58 675.19 1037.81 678.52 1041.94 683.09 C 1047.31 692.10 1049.49 703.43 1046.69 713.65 C 1044.53 720.03 1039.90 725.25 1035.13 729.88 C 1032.04 733.14 1027.97 735.88 1026.32 740.21 C 1026.13 748.22 1034.61 753.64 1033.98 761.82 C 1034.15 766.84 1034.63 771.83 1035.34 776.81 C 1036.41 785.93 1032.15 794.47 1031.09 803.39 C 1030.72 805.73 1030.36 808.09 1029.86 810.42 C 1028.62 817.51 1019.42 816.41 1014.20 817.07 C 1014.28 823.81 1010.43 832.18 1002.72 832.13 C 985.46 830.39 968.97 836.98 952.49 841.06 C 944.85 842.21 937.05 843.40 930.15 847.08 C 924.44 849.65 917.17 852.48 911.39 848.60 C 903.28 839.60 896.23 829.71 889.28 819.80 C 887.38 817.43 885.67 814.19 882.36 813.75 C 873.62 812.53 865.06 815.09 856.79 817.56 C 842.82 821.83 828.41 825.09 813.75 825.44 C 810.11 825.18 808.71 820.77 806.30 818.74 C 796.15 803.89 787.02 788.35 777.06 773.37 C 773.20 767.51 766.77 764.19 761.62 759.66 C 759.24 754.79 756.64 749.55 756.74 744.02 C 758.51 739.22 762.77 735.86 765.78 731.83 C 775.42 719.52 784.65 706.89 794.63 694.86 C 800.58 688.71 807.43 683.52 813.65 677.65 C 818.04 673.43 823.75 669.93 825.85 663.91 C 829.80 650.56 829.33 636.19 834.10 623.05 C 835.45 618.37 840.42 616.74 844.60 615.51 Z" />
</g>
<g id="#00009fff">
<path fill="#00009f" opacity="0" d=" M 1186.45 615.39 C 1193.06 611.71 1200.79 614.30 1207.61 615.74 C 1206.84 622.55 1206.63 629.55 1207.74 636.31 C 1210.45 640.87 1216.52 641.97 1219.64 646.20 C 1221.08 649.09 1221.51 652.40 1223.10 655.25 C 1226.48 658.24 1230.95 659.62 1235.06 661.31 C 1239.95 667.29 1245.00 673.72 1246.02 681.65 C 1248.89 683.19 1251.77 684.71 1254.68 686.20 C 1255.90 696.21 1258.74 706.63 1265.99 714.02 C 1272.35 720.65 1281.80 724.03 1286.76 732.00 C 1283.08 737.12 1281.50 743.38 1278.19 748.70 C 1273.30 751.16 1273.10 756.60 1271.80 761.28 C 1270.87 765.49 1266.16 766.94 1262.42 767.47 C 1257.55 768.41 1253.99 764.12 1250.18 761.84 C 1247.06 764.76 1243.09 766.62 1238.75 765.88 C 1237.69 761.10 1238.37 755.92 1236.27 751.42 C 1234.56 748.63 1231.98 746.51 1229.75 744.16 C 1231.17 740.28 1232.94 736.54 1234.60 732.76 C 1231.27 731.33 1227.78 730.16 1224.75 728.23 C 1222.70 725.93 1222.04 722.77 1220.89 720.00 C 1216.59 717.67 1211.41 716.53 1207.92 712.94 C 1203.57 705.63 1203.10 696.55 1198.24 689.48 C 1187.49 689.60 1178.42 696.40 1169.18 701.09 C 1168.88 696.17 1168.66 691.19 1167.46 686.41 C 1165.71 680.32 1161.17 675.44 1155.99 672.01 C 1157.75 665.27 1159.44 658.49 1159.86 651.52 C 1155.73 649.81 1150.32 649.10 1147.81 645.10 C 1146.37 638.60 1151.70 632.79 1152.32 626.47 C 1161.02 623.27 1170.19 619.74 1179.57 622.39 C 1181.61 619.84 1183.44 616.91 1186.45 615.39 M 1266.78 730.18 C 1268.16 730.21 1269.54 730.22 1270.94 730.25 C 1270.50 729.09 1270.07 727.95 1269.66 726.81 C 1268.69 727.93 1267.72 729.04 1266.78 730.18 Z" />
</g>
<g id="#df5fbfff">
<path fill="#df5fbf" opacity="0" d=" M 1088.09 671.19 C 1097.57 668.77 1107.42 669.70 1117.10 669.50 C 1130.06 669.96 1143.46 667.69 1155.99 672.01 C 1161.17 675.44 1165.71 680.32 1167.46 686.41 C 1168.66 691.19 1168.88 696.17 1169.18 701.09 C 1168.88 705.17 1168.60 709.68 1166.03 713.06 C 1163.26 715.57 1159.26 715.84 1155.76 716.52 C 1148.35 717.18 1141.10 718.84 1133.87 720.47 C 1129.42 721.27 1124.88 720.71 1120.42 721.27 C 1106.46 722.33 1097.01 735.48 1082.89 736.14 C 1079.39 733.96 1076.37 730.26 1072.05 729.85 C 1066.52 730.25 1061.26 732.46 1055.76 733.01 C 1048.73 733.20 1041.97 731.04 1035.13 729.88 C 1039.90 725.25 1044.53 720.03 1046.69 713.65 C 1049.49 703.43 1047.31 692.10 1041.94 683.09 C 1044.20 681.88 1046.46 680.71 1048.73 679.52 C 1048.25 677.70 1047.77 675.88 1047.29 674.07 C 1049.59 673.30 1051.88 672.51 1054.18 671.71 C 1056.33 676.93 1057.41 682.79 1061.45 687.01 C 1064.36 681.84 1065.21 674.70 1071.09 672.03 C 1076.54 669.65 1082.48 672.75 1088.09 671.19 Z" />
</g>
<g id="#9f5fbfff">
<path fill="#9f5fbf" opacity="0" d=" M 1169.18 701.09 C 1178.42 696.40 1187.49 689.60 1198.24 689.48 C 1203.10 696.55 1203.57 705.63 1207.92 712.94 C 1211.41 716.53 1216.59 717.67 1220.89 720.00 C 1222.04 722.77 1222.70 725.93 1224.75 728.23 C 1227.78 730.16 1231.27 731.33 1234.60 732.76 C 1232.94 736.54 1231.17 740.28 1229.75 744.16 C 1231.98 746.51 1234.56 748.63 1236.27 751.42 C 1238.37 755.92 1237.69 761.10 1238.75 765.88 C 1243.09 766.62 1247.06 764.76 1250.18 761.84 C 1253.99 764.12 1257.55 768.41 1262.42 767.47 C 1266.16 766.94 1270.87 765.49 1271.80 761.28 C 1273.10 756.60 1273.30 751.16 1278.19 748.70 C 1278.70 751.94 1280.80 755.66 1278.74 758.78 C 1277.11 761.83 1274.78 765.10 1275.93 768.75 C 1277.88 776.57 1282.07 784.82 1278.84 792.90 C 1276.51 797.91 1273.40 802.53 1270.73 807.36 C 1268.67 807.92 1266.55 808.28 1264.64 809.22 C 1261.31 811.56 1259.33 815.50 1255.51 817.21 C 1251.68 818.92 1249.16 822.43 1246.93 825.83 C 1242.48 833.48 1238.58 841.46 1233.91 848.98 C 1232.35 851.85 1228.76 851.58 1225.99 851.70 C 1212.57 851.97 1198.36 853.12 1187.08 861.13 C 1181.35 865.77 1173.47 861.09 1167.23 864.19 C 1161.67 866.99 1157.31 871.64 1152.05 874.90 C 1146.48 878.22 1141.42 882.28 1136.19 886.06 C 1133.89 887.38 1130.99 889.27 1128.35 887.70 C 1124.30 885.71 1120.76 882.88 1117.13 880.25 C 1114.33 881.47 1111.51 882.62 1108.65 883.65 C 1110.01 878.30 1112.68 872.97 1111.83 867.33 C 1110.54 858.39 1109.63 849.20 1110.91 840.22 C 1114.05 832.62 1121.46 827.89 1125.21 820.60 C 1120.13 820.33 1115.16 820.06 1110.13 819.84 C 1109.66 817.64 1109.22 815.44 1108.81 813.24 C 1119.42 804.39 1129.31 794.33 1135.63 781.90 C 1136.95 778.80 1137.16 775.38 1137.32 772.07 C 1137.67 767.06 1134.18 762.78 1134.07 757.80 C 1133.01 749.81 1131.23 741.94 1130.41 733.93 C 1129.84 729.16 1131.88 724.66 1133.87 720.47 C 1141.10 718.84 1148.35 717.18 1155.76 716.52 C 1159.26 715.84 1163.26 715.57 1166.03 713.06 C 1168.60 709.68 1168.88 705.17 1169.18 701.09 M 1162.52 766.62 C 1164.18 770.14 1165.81 773.71 1168.11 776.89 C 1170.42 779.61 1173.71 781.20 1176.65 783.15 C 1178.74 780.66 1180.80 778.16 1182.94 775.69 C 1181.17 771.15 1180.12 764.89 1174.68 763.40 C 1170.43 763.31 1166.57 765.60 1162.52 766.62 Z" />
</g>
<g id="#9fdf3fff">
<path fill="#9fdf3f" opacity="0" d=" M 1328.41 715.48 C 1329.58 712.81 1331.76 710.75 1333.58 708.52 C 1334.18 711.30 1334.13 715.33 1337.40 716.36 C 1342.23 718.17 1347.47 718.46 1352.37 720.08 C 1348.90 725.57 1342.81 730.95 1345.71 738.19 C 1346.78 742.93 1352.97 741.58 1356.33 741.59 C 1366.23 741.69 1376.26 736.16 1385.99 739.95 C 1393.67 741.26 1398.29 747.94 1404.68 751.67 C 1410.18 754.95 1415.66 759.71 1417.16 766.19 C 1415.30 771.87 1410.26 776.07 1406.96 780.95 C 1403.06 785.37 1399.30 790.25 1393.93 792.94 C 1390.15 794.92 1386.18 796.52 1382.24 798.16 C 1381.68 792.80 1380.15 787.43 1376.59 783.27 C 1371.83 787.30 1366.77 790.97 1361.33 794.03 C 1360.72 791.02 1360.16 788.00 1359.36 785.04 C 1356.27 786.19 1352.44 786.39 1350.31 789.23 C 1347.07 792.96 1344.77 798.41 1339.38 799.42 C 1332.76 800.95 1325.91 801.26 1319.30 802.85 C 1318.45 798.82 1318.96 794.73 1319.28 790.69 C 1314.33 791.33 1309.06 791.06 1304.34 792.83 C 1299.12 796.42 1294.18 801.68 1287.16 801.01 C 1284.05 798.64 1281.35 795.85 1278.84 792.90 C 1282.07 784.82 1277.88 776.57 1275.93 768.75 C 1274.78 765.10 1277.11 761.83 1278.74 758.78 C 1280.80 755.66 1278.70 751.94 1278.19 748.70 C 1281.50 743.38 1283.08 737.12 1286.76 732.00 C 1288.20 735.12 1289.28 738.38 1290.50 741.62 C 1295.78 743.02 1300.85 745.30 1306.37 745.69 C 1308.69 742.80 1308.75 738.02 1312.50 736.40 C 1317.52 733.82 1322.99 732.37 1328.41 730.91 C 1328.46 725.77 1327.93 720.60 1328.41 715.48 Z" />
</g>
<g id="#df5f3fff">
<path fill="#df5f3f" opacity="0" d=" M 1120.42 721.27 C 1124.88 720.71 1129.42 721.27 1133.87 720.47 C 1131.88 724.66 1129.84 729.16 1130.41 733.93 C 1131.23 741.94 1133.01 749.81 1134.07 757.80 C 1134.18 762.78 1137.67 767.06 1137.32 772.07 C 1137.16 775.38 1136.95 778.80 1135.63 781.90 C 1129.31 794.33 1119.42 804.39 1108.81 813.24 C 1107.23 812.45 1105.66 811.65 1104.10 810.86 C 1103.55 814.85 1103.09 818.85 1102.62 822.86 C 1101.09 823.05 1099.58 823.26 1098.07 823.47 C 1095.82 817.22 1091.17 812.58 1086.26 808.36 C 1080.95 809.49 1075.63 810.96 1070.15 810.78 C 1065.00 810.10 1060.14 807.78 1055.00 807.24 C 1052.00 807.28 1049.94 809.92 1048.12 811.98 C 1045.50 815.52 1042.76 818.96 1040.10 822.47 C 1037.40 817.99 1034.67 813.12 1029.81 810.67 L 1029.86 810.42 C 1030.36 808.09 1030.72 805.73 1031.09 803.39 C 1032.15 794.47 1036.41 785.93 1035.34 776.81 C 1034.63 771.83 1034.15 766.84 1033.98 761.82 C 1034.61 753.64 1026.13 748.22 1026.32 740.21 C 1027.97 735.88 1032.04 733.14 1035.13 729.88 C 1041.97 731.04 1048.73 733.20 1055.76 733.01 C 1061.26 732.46 1066.52 730.25 1072.05 729.85 C 1076.37 730.26 1079.39 733.96 1082.89 736.14 C 1097.01 735.48 1106.46 722.33 1120.42 721.27 Z" />
</g>
<g id="#7f009fff">
<path fill="#7f009f" opacity="0" d=" M 1266.78 730.18 C 1267.72 729.04 1268.69 727.93 1269.66 726.81 C 1270.07 727.95 1270.50 729.09 1270.94 730.25 C 1269.54 730.22 1268.16 730.21 1266.78 730.18 Z" />
</g>
<g id="#1fdfbffe">
<path fill="#1fdfbf" opacity="0" d=" M 1162.52 766.62 C 1166.57 765.60 1170.43 763.31 1174.68 763.40 C 1180.12 764.89 1181.17 771.15 1182.94 775.69 C 1180.80 778.16 1178.74 780.66 1176.65 783.15 C 1173.71 781.20 1170.42 779.61 1168.11 776.89 C 1165.81 773.71 1164.18 770.14 1162.52 766.62 Z" />
</g>
<g id="#5fdfbfff">
<path fill="#5fdfbf" opacity="0" d=" M 1048.12 811.98 C 1049.94 809.92 1052.00 807.28 1055.00 807.24 C 1060.14 807.78 1065.00 810.10 1070.15 810.78 C 1075.63 810.96 1080.95 809.49 1086.26 808.36 C 1091.17 812.58 1095.82 817.22 1098.07 823.47 C 1099.58 823.26 1101.09 823.05 1102.62 822.86 C 1103.09 818.85 1103.55 814.85 1104.10 810.86 C 1105.66 811.65 1107.23 812.45 1108.81 813.24 C 1109.22 815.44 1109.66 817.64 1110.13 819.84 C 1115.16 820.06 1120.13 820.33 1125.21 820.60 C 1121.46 827.89 1114.05 832.62 1110.91 840.22 C 1109.63 849.20 1110.54 858.39 1111.83 867.33 C 1112.68 872.97 1110.01 878.30 1108.65 883.65 C 1101.47 886.28 1099.45 894.52 1094.84 899.91 C 1090.32 905.40 1089.04 912.84 1083.86 917.89 C 1080.17 921.69 1078.26 926.69 1076.53 931.59 C 1067.55 931.96 1058.65 930.48 1049.69 930.81 C 1046.78 926.15 1043.38 920.96 1046.08 915.29 C 1046.38 910.56 1052.68 910.01 1053.72 905.65 C 1056.11 899.42 1051.32 894.18 1049.35 888.66 C 1046.51 883.16 1048.45 876.91 1047.47 871.04 C 1045.87 871.81 1044.27 872.59 1042.68 873.36 C 1040.23 869.01 1040.40 863.96 1040.79 859.16 C 1037.88 857.11 1034.46 855.55 1032.27 852.66 C 1032.07 846.83 1033.12 840.96 1035.74 835.74 C 1037.86 831.54 1038.09 826.69 1040.10 822.47 C 1042.76 818.96 1045.50 815.52 1048.12 811.98 Z" />
</g>
</svg>
