<?xml version="1.0" encoding="UTF-8" ?>
<!DOCTYPE svg PUBLIC "-//W3C//DTD SVG 1.1//EN" "http://www.w3.org/Graphics/SVG/1.1/DTD/svg11.dtd">
<svg width="1920pt" height="1080pt" viewBox="0 0 1920 1080" version="1.1" xmlns="http://www.w3.org/2000/svg">
<g id="#9fdfbfff">
<path fill="#9fdfbf" fill-opacity="0" d=" M 1017.46 202.57 C 1023.21 199.86 1030.27 202.32 1033.86 207.26 C 1037.23 211.76 1033.31 219.03 1038.06 222.87 C 1041.08 225.77 1044.56 228.36 1046.75 232.00 C 1048.72 237.57 1048.80 243.54 1049.93 249.30 C 1049.63 253.13 1048.14 257.14 1049.23 260.97 C 1051.18 265.33 1055.09 268.36 1058.39 271.67 C 1056.29 275.04 1054.70 278.88 1051.76 281.61 C 1046.95 284.70 1040.36 283.95 1036.04 287.98 C 1032.80 291.22 1028.56 294.40 1027.68 299.20 C 1027.70 304.41 1031.50 308.60 1035.37 311.66 C 1041.58 316.47 1047.90 321.19 1054.42 325.60 C 1053.92 330.78 1053.47 336.58 1049.54 340.47 C 1041.14 350.45 1029.31 356.24 1017.36 360.74 C 1008.64 357.97 1000.36 352.24 990.91 352.99 C 991.21 363.70 985.40 373.75 976.59 379.57 C 970.86 381.45 964.27 379.98 959.40 376.54 C 956.66 374.58 952.94 372.58 952.52 368.84 C 951.56 361.40 954.56 354.19 954.91 346.82 C 954.52 344.32 952.83 341.77 950.35 340.97 C 940.52 337.83 930.17 336.62 920.45 333.10 C 922.05 330.90 923.85 328.62 924.37 325.87 C 924.20 323.70 922.90 321.82 921.89 319.97 C 925.25 318.10 928.50 315.92 932.17 314.71 C 936.75 315.18 940.58 318.20 944.73 320.00 C 946.93 310.24 948.89 300.39 951.95 290.85 C 953.33 286.35 958.03 284.40 962.06 282.89 C 970.91 279.60 981.90 281.63 988.95 274.33 C 981.98 265.84 974.64 257.64 967.18 249.58 C 974.18 247.15 984.38 249.49 988.02 241.20 C 990.82 230.49 989.95 219.18 990.55 208.17 C 999.50 206.22 1008.61 205.01 1017.46 202.57 Z" />
</g>
<g id="#1fdfbfff">
<path fill="#1fdfbf" fill-opacity="0" d=" M 872.86 202.08 C 877.24 202.67 881.66 203.09 886.09 203.34 C 886.18 205.48 886.22 207.62 886.26 209.76 C 888.19 210.15 890.14 210.54 892.08 210.95 C 890.44 202.79 897.24 205.77 901.46 206.47 C 907.73 208.20 914.53 206.05 920.67 208.34 C 924.75 210.88 925.41 216.21 927.29 220.28 C 929.92 222.04 933.84 222.30 936.01 224.79 C 937.94 230.96 935.69 238.37 938.81 244.21 C 944.11 248.11 949.88 241.47 955.53 242.61 C 959.64 244.44 963.57 246.84 967.18 249.58 C 974.64 257.64 981.98 265.84 988.95 274.33 C 981.90 281.63 970.91 279.60 962.06 282.89 C 958.03 284.40 953.33 286.35 951.95 290.85 C 948.89 300.39 946.93 310.24 944.73 320.00 C 940.58 318.20 936.75 315.18 932.17 314.71 C 928.50 315.92 925.25 318.10 921.89 319.97 C 914.27 315.28 905.30 315.51 896.88 313.74 C 893.02 312.48 889.55 310.33 885.96 308.48 C 892.69 300.00 899.33 291.44 905.14 282.28 C 902.32 278.47 899.66 274.54 896.91 270.67 C 891.18 272.37 885.69 274.78 879.92 276.37 C 875.77 265.90 872.58 255.07 868.64 244.52 C 867.48 238.79 868.49 233.00 869.30 227.32 C 870.61 218.92 871.25 210.43 872.86 202.08 Z" />
</g>
<g id="#7fbf1ffe">
<path fill="#7fbf1f" fill-opacity="0" d=" M 868.64 244.52 C 872.58 255.07 875.77 265.90 879.92 276.37 C 885.69 274.78 891.18 272.37 896.91 270.67 C 899.66 274.54 902.32 278.47 905.14 282.28 C 899.33 291.44 892.69 300.00 885.96 308.48 C 889.55 310.33 893.02 312.48 896.88 313.74 C 905.30 315.51 914.27 315.28 921.89 319.97 C 922.90 321.82 924.20 323.70 924.37 325.87 C 923.85 328.62 922.05 330.90 920.45 333.10 C 915.46 337.91 910.58 342.83 905.68 347.73 C 901.69 352.00 895.45 352.19 890.05 353.08 C 889.64 355.85 889.26 358.62 888.84 361.39 C 885.42 363.30 881.75 365.09 879.22 368.20 C 872.66 376.21 866.76 384.73 860.64 393.08 C 843.54 392.37 826.22 390.17 809.33 394.21 C 808.27 389.37 807.37 384.50 806.51 379.64 C 804.00 377.76 801.32 375.64 800.70 372.36 C 796.35 354.60 790.65 337.18 786.78 319.30 C 792.05 316.27 797.25 313.11 802.27 309.69 C 801.68 303.39 800.07 297.27 798.96 291.07 C 805.74 289.47 812.51 287.75 819.41 286.77 C 821.27 286.48 822.93 287.58 824.37 288.62 C 829.81 292.82 834.41 297.97 839.69 302.36 C 840.78 303.33 842.16 303.94 843.64 303.98 C 848.81 297.42 852.50 289.87 856.74 282.72 C 864.39 271.37 864.92 257.30 868.64 244.52 M 840.16 328.16 C 839.24 332.16 844.16 327.24 840.16 328.16 Z" />
</g>
<g id="#df5f3fff">
<path fill="#df5f3f" fill-opacity="0" d=" M 1049.93 249.30 C 1053.99 251.41 1058.56 251.71 1062.97 250.64 C 1069.10 259.50 1077.59 266.44 1086.23 272.75 C 1087.64 273.64 1089.16 274.48 1090.85 274.74 C 1095.24 272.84 1098.38 269.08 1101.76 265.83 C 1107.94 271.53 1116.18 273.59 1124.29 274.73 C 1128.13 272.62 1132.25 270.74 1136.77 270.96 C 1139.56 274.99 1142.90 279.69 1142.52 284.76 C 1138.49 300.86 1133.03 316.61 1129.91 332.93 C 1129.25 339.64 1132.14 346.02 1131.92 352.74 C 1138.50 356.67 1146.92 361.48 1147.54 370.08 C 1146.53 378.80 1141.85 386.86 1142.11 395.81 C 1142.18 401.41 1142.76 407.01 1143.94 412.49 C 1145.75 415.75 1147.96 418.85 1150.22 421.85 C 1146.94 425.59 1144.74 431.05 1139.61 432.45 C 1136.48 433.39 1133.41 434.25 1130.24 434.92 C 1132.21 440.50 1134.18 446.10 1136.09 451.71 C 1129.35 453.67 1122.68 451.25 1116.59 448.48 C 1108.77 446.04 1099.53 443.10 1092.12 448.03 C 1082.13 452.75 1075.51 461.84 1068.74 470.17 C 1060.58 465.66 1051.56 462.21 1044.83 455.60 C 1042.01 450.53 1040.56 444.20 1042.67 438.58 C 1044.74 429.70 1052.13 423.56 1056.40 415.84 C 1056.68 413.60 1056.08 410.37 1053.55 409.76 C 1050.11 408.93 1046.46 409.38 1042.99 409.34 C 1040.49 406.51 1038.01 403.67 1035.64 400.74 C 1039.16 399.10 1042.60 397.26 1046.07 395.51 C 1044.32 392.52 1042.89 389.22 1040.35 386.80 C 1033.70 383.22 1025.26 382.82 1019.56 377.48 C 1017.53 372.20 1017.60 366.34 1017.36 360.74 C 1029.31 356.24 1041.14 350.45 1049.54 340.47 C 1053.47 336.58 1053.92 330.78 1054.42 325.60 C 1047.90 321.19 1041.58 316.47 1035.37 311.66 C 1031.50 308.60 1027.70 304.41 1027.68 299.20 C 1028.56 294.40 1032.80 291.22 1036.04 287.98 C 1040.36 283.95 1046.95 284.70 1051.76 281.61 C 1054.70 278.88 1056.29 275.04 1058.39 271.67 C 1055.09 268.36 1051.18 265.33 1049.23 260.97 C 1048.14 257.14 1049.63 253.13 1049.93 249.30 Z" />
</g>
<g id="#003f9fff">
<path fill="#003f9f" fill-opacity="0" d=" M 840.16 328.16 C 844.16 327.24 839.24 332.16 840.16 328.16 Z" />
</g>
<g id="#7f009ffe">
<path fill="#7f009f" fill-opacity="0" d=" M 905.68 347.73 C 910.58 342.83 915.46 337.91 920.45 333.10 C 930.17 336.62 940.52 337.83 950.35 340.97 C 952.83 341.77 954.52 344.32 954.91 346.82 C 954.56 354.19 951.56 361.40 952.52 368.84 C 952.94 372.58 956.66 374.58 959.40 376.54 C 964.27 379.98 970.86 381.45 976.59 379.57 C 985.40 373.75 991.21 363.70 990.91 352.99 C 1000.36 352.24 1008.64 357.97 1017.36 360.74 C 1017.60 366.34 1017.53 372.20 1019.56 377.48 C 1025.26 382.82 1033.70 383.22 1040.35 386.80 C 1042.89 389.22 1044.32 392.52 1046.07 395.51 C 1042.60 397.26 1039.16 399.10 1035.64 400.74 C 1029.02 401.77 1021.84 400.41 1015.74 403.76 C 1010.98 408.80 1004.58 415.13 1007.07 422.88 C 1010.89 431.74 1018.84 438.27 1022.09 447.47 C 1014.28 449.20 1005.88 449.48 998.65 453.16 C 993.42 461.37 992.28 471.54 988.16 480.30 C 984.02 486.65 975.21 492.23 967.99 487.16 C 960.58 483.04 953.65 478.11 946.16 474.14 C 940.53 471.43 934.69 469.22 928.91 466.89 C 918.82 462.46 907.62 464.82 896.96 464.79 C 896.46 461.30 896.14 457.74 895.77 454.24 C 892.65 452.96 889.52 451.67 886.42 450.40 C 880.91 458.78 876.28 467.68 871.66 476.57 C 868.97 474.96 866.26 473.37 863.61 471.71 C 864.47 460.55 865.47 449.40 867.18 438.34 C 867.55 433.31 868.37 427.80 865.84 423.20 C 860.80 414.03 860.96 403.22 860.64 393.08 C 866.76 384.73 872.66 376.21 879.22 368.20 C 881.75 365.09 885.42 363.30 888.84 361.39 C 889.26 358.62 889.64 355.85 890.05 353.08 C 895.45 352.19 901.69 352.00 905.68 347.73 M 946.34 414.35 C 940.27 421.50 932.83 427.39 927.13 434.84 C 925.68 442.14 926.97 449.78 927.19 457.16 C 938.24 451.83 949.56 447.07 960.87 442.30 C 962.65 446.96 963.99 451.96 967.01 456.02 C 972.14 459.92 977.93 462.94 983.57 466.06 C 981.96 454.10 974.90 443.68 972.36 431.99 C 973.71 426.51 978.08 422.20 981.05 417.45 C 971.84 415.59 963.03 412.28 953.91 410.10 C 950.55 408.79 948.51 412.50 946.34 414.35 Z" />
</g>
<g id="#5fdfbfff">
<path fill="#5fdfbf" fill-opacity="0" d=" M 723.87 397.56 C 729.76 395.33 735.30 392.23 740.79 389.13 C 743.99 392.05 747.19 394.96 750.35 397.95 C 756.96 397.81 763.61 397.64 770.21 396.97 C 772.49 406.91 774.65 419.66 766.58 427.55 C 763.10 432.60 757.00 434.29 751.58 436.35 C 756.04 442.76 761.12 448.71 765.18 455.41 C 762.37 456.47 759.58 457.60 756.67 458.36 C 751.92 457.20 747.67 454.48 742.81 453.73 C 737.84 453.27 733.26 455.68 729.05 458.00 C 722.45 461.83 715.18 465.24 710.87 471.87 C 704.37 480.64 696.71 488.42 688.21 495.26 C 688.12 501.55 688.25 507.88 687.95 514.19 C 683.80 511.79 678.90 507.90 673.97 510.08 C 669.66 511.54 664.92 513.05 660.44 511.53 C 649.18 507.92 639.34 501.16 628.87 495.85 C 625.79 481.83 615.37 471.23 607.87 459.44 C 612.48 459.05 617.10 458.49 621.67 457.77 C 618.66 449.36 612.74 442.47 608.12 434.94 C 615.92 435.07 624.58 432.00 631.70 436.31 C 635.37 438.34 639.20 440.06 643.21 441.30 C 645.69 429.12 657.00 421.85 665.51 413.90 C 667.30 415.67 668.99 417.63 671.20 418.92 C 674.30 418.77 676.78 416.63 679.33 415.11 C 682.96 416.27 686.70 419.08 690.53 418.41 C 697.69 412.00 703.19 403.88 710.16 397.22 C 714.73 397.46 719.26 397.66 723.87 397.56 Z" />
</g>
<g id="#bf009fff">
<path fill="#bf009f" fill-opacity="0" d=" M 809.33 394.21 C 826.22 390.17 843.54 392.37 860.64 393.08 C 860.96 403.22 860.80 414.03 865.84 423.20 C 868.37 427.80 867.55 433.31 867.18 438.34 C 865.47 449.40 864.47 460.55 863.61 471.71 C 846.89 475.29 831.10 481.96 815.97 489.77 C 809.76 491.03 803.39 491.19 797.13 492.13 C 791.69 492.81 785.57 493.66 780.84 490.21 C 776.20 486.88 770.88 483.75 768.02 478.65 C 766.75 472.80 768.12 466.74 768.19 460.82 C 764.31 460.18 760.44 459.45 756.67 458.36 C 759.58 457.60 762.37 456.47 765.18 455.41 C 761.12 448.71 756.04 442.76 751.58 436.35 C 757.00 434.29 763.10 432.60 766.58 427.55 C 774.65 419.66 772.49 406.91 770.21 396.97 C 783.08 393.72 796.58 397.76 809.33 394.21 Z" />
</g>
<g id="#7f7f1ffe">
<path fill="#7f7f1f" fill-opacity="0" d=" M 1142.11 395.81 C 1147.25 397.58 1152.33 399.57 1157.49 401.31 C 1168.75 404.44 1178.23 411.90 1189.59 414.77 C 1190.76 421.22 1187.64 429.35 1192.05 434.90 C 1198.13 439.58 1205.93 441.28 1213.15 443.62 C 1208.13 457.43 1200.35 470.16 1196.61 484.41 C 1189.30 488.76 1180.82 492.78 1172.16 489.83 C 1162.75 487.37 1153.10 486.43 1143.45 485.50 C 1139.28 480.40 1133.65 474.13 1126.30 477.25 C 1118.16 481.77 1116.14 492.91 1108.24 497.93 C 1104.42 499.54 1099.72 500.30 1095.97 498.12 C 1089.54 494.67 1083.64 490.28 1077.05 487.13 C 1074.71 485.83 1072.06 484.88 1070.25 482.85 C 1068.30 479.81 1067.85 476.12 1066.85 472.72 C 1067.46 471.87 1068.10 471.02 1068.74 470.17 C 1075.51 461.84 1082.13 452.75 1092.12 448.03 C 1099.53 443.10 1108.77 446.04 1116.59 448.48 C 1122.68 451.25 1129.35 453.67 1136.09 451.71 C 1134.18 446.10 1132.21 440.50 1130.24 434.92 C 1133.41 434.25 1136.48 433.39 1139.61 432.45 C 1144.74 431.05 1146.94 425.59 1150.22 421.85 C 1147.96 418.85 1145.75 415.75 1143.94 412.49 C 1142.76 407.01 1142.18 401.41 1142.11 395.81 M 1077.87 460.97 C 1077.52 462.21 1077.18 463.45 1076.87 464.71 C 1078.25 465.08 1079.67 465.47 1081.08 465.87 C 1081.00 464.64 1080.94 463.42 1080.89 462.21 C 1079.87 461.79 1078.86 461.38 1077.87 460.97 Z" />
</g>
<g id="#7f7f9ffe">
<path fill="#7f7f9f" fill-opacity="0" d=" M 1015.74 403.76 C 1021.84 400.41 1029.02 401.77 1035.64 400.74 C 1038.01 403.67 1040.49 406.51 1042.99 409.34 C 1046.46 409.38 1050.11 408.93 1053.55 409.76 C 1056.08 410.37 1056.68 413.60 1056.40 415.84 C 1052.13 423.56 1044.74 429.70 1042.67 438.58 C 1040.56 444.20 1042.01 450.53 1044.83 455.60 C 1051.56 462.21 1060.58 465.66 1068.74 470.17 C 1068.10 471.02 1067.46 471.87 1066.85 472.72 C 1062.63 472.71 1057.95 471.88 1054.19 474.26 C 1052.01 475.56 1051.75 478.24 1051.51 480.52 C 1050.57 490.18 1050.93 499.94 1049.65 509.59 C 1049.54 515.32 1046.05 519.99 1043.50 524.86 C 1048.85 529.46 1056.03 533.70 1056.30 541.57 C 1052.80 543.15 1049.27 544.69 1045.95 546.63 C 1041.61 550.79 1037.67 555.35 1033.69 559.85 C 1036.06 563.51 1039.09 566.94 1040.32 571.21 C 1040.49 575.40 1038.80 579.88 1035.82 582.83 C 1027.44 586.23 1018.46 582.84 1009.76 583.68 C 1005.38 579.69 1001.37 575.29 997.47 570.85 C 991.48 572.40 985.31 574.74 981.74 580.14 C 977.90 572.81 973.37 565.75 970.77 557.83 C 968.61 551.83 969.18 545.29 968.71 539.04 C 968.34 530.27 968.76 521.49 969.26 512.73 C 969.16 504.19 968.40 495.69 967.99 487.16 C 975.21 492.23 984.02 486.65 988.16 480.30 C 992.28 471.54 993.42 461.37 998.65 453.16 C 1005.88 449.48 1014.28 449.20 1022.09 447.47 C 1018.84 438.27 1010.89 431.74 1007.07 422.88 C 1004.58 415.13 1010.98 408.80 1015.74 403.76 Z" />
</g>
<g id="#5f5fbfff">
<path fill="#5f5fbf" fill-opacity="0" d=" M 946.34 414.35 C 948.51 412.50 950.55 408.79 953.91 410.10 C 963.03 412.28 971.84 415.59 981.05 417.45 C 978.08 422.20 973.71 426.51 972.36 431.99 C 974.90 443.68 981.96 454.10 983.57 466.06 C 977.93 462.94 972.14 459.92 967.01 456.02 C 963.99 451.96 962.65 446.96 960.87 442.30 C 949.56 447.07 938.24 451.83 927.19 457.16 C 926.97 449.78 925.68 442.14 927.13 434.84 C 932.83 427.39 940.27 421.50 946.34 414.35 Z" />
</g>
<g id="#00001fff">
<path fill="#00001f" fill-opacity="0" d=" M 886.42 450.40 C 889.52 451.67 892.65 452.96 895.77 454.24 C 896.14 457.74 896.46 461.30 896.96 464.79 C 907.62 464.82 918.82 462.46 928.91 466.89 C 934.69 469.22 940.53 471.43 946.16 474.14 C 953.65 478.11 960.58 483.04 967.99 487.16 C 968.40 495.69 969.16 504.19 969.26 512.73 C 968.76 521.49 968.34 530.27 968.71 539.04 C 969.18 545.29 968.61 551.83 970.77 557.83 C 973.37 565.75 977.90 572.81 981.74 580.14 C 976.74 586.33 972.37 593.06 966.73 598.70 C 962.18 601.79 956.50 602.55 951.48 604.67 C 942.20 608.40 933.37 613.16 924.43 617.61 C 917.35 613.35 910.57 608.64 903.61 604.22 C 897.61 600.05 890.00 602.51 883.28 602.89 C 881.88 590.06 889.18 578.73 893.00 566.96 C 887.31 564.16 881.94 559.35 875.21 559.63 C 866.73 559.90 858.29 560.62 849.80 560.63 C 844.10 553.42 837.26 546.14 837.29 536.28 C 832.91 535.40 828.56 534.41 824.28 533.19 C 823.81 528.46 827.02 522.13 822.89 518.23 C 819.67 514.94 815.73 512.50 812.09 509.73 C 813.36 503.07 814.82 496.45 815.97 489.77 C 831.10 481.96 846.89 475.29 863.61 471.71 C 866.26 473.37 868.97 474.96 871.66 476.57 C 876.28 467.68 880.91 458.78 886.42 450.40 M 947.19 509.67 C 945.75 509.75 945.30 512.41 946.96 512.49 C 948.44 512.45 948.83 509.73 947.19 509.67 Z" />
</g>
<g id="#007f1fff">
<path fill="#007f1f" fill-opacity="0" d=" M 729.05 458.00 C 733.26 455.68 737.84 453.27 742.81 453.73 C 747.67 454.48 751.92 457.20 756.67 458.36 C 760.44 459.45 764.31 460.18 768.19 460.82 C 768.12 466.74 766.75 472.80 768.02 478.65 C 770.88 483.75 776.20 486.88 780.84 490.21 C 785.57 493.66 791.69 492.81 797.13 492.13 C 803.39 491.19 809.76 491.03 815.97 489.77 C 814.82 496.45 813.36 503.07 812.09 509.73 C 815.73 512.50 819.67 514.94 822.89 518.23 C 827.02 522.13 823.81 528.46 824.28 533.19 C 828.56 534.41 832.91 535.40 837.29 536.28 C 837.26 546.14 844.10 553.42 849.80 560.63 C 846.90 565.79 844.54 572.06 838.80 574.71 C 834.75 577.12 828.86 578.18 827.76 583.62 C 826.66 586.00 825.71 588.44 824.73 590.86 C 818.76 587.94 813.09 584.17 806.57 582.59 C 802.01 581.80 798.68 585.66 795.51 588.27 C 789.62 587.25 783.52 587.24 777.81 585.37 C 771.58 582.70 768.15 575.45 761.36 573.85 C 750.78 572.42 740.12 571.62 729.50 570.47 C 727.43 574.48 725.36 578.50 723.28 582.52 C 717.31 581.24 713.56 576.40 709.46 572.38 C 702.96 573.37 696.46 574.34 689.98 575.38 C 687.76 570.60 684.76 565.98 683.90 560.71 C 684.04 555.19 686.08 549.91 687.01 544.49 C 684.70 543.39 682.41 542.29 680.13 541.16 C 680.46 538.71 680.78 536.26 681.15 533.84 C 686.24 533.18 692.06 532.93 695.71 528.73 C 697.44 527.16 699.26 525.64 701.01 524.08 C 696.63 520.81 692.36 517.41 687.95 514.19 C 688.25 507.88 688.12 501.55 688.21 495.26 C 696.71 488.42 704.37 480.64 710.87 471.87 C 715.18 465.24 722.45 461.83 729.05 458.00 Z" />
</g>
<g id="#00009ffe">
<path fill="#00009f" fill-opacity="0" d=" M 1077.87 460.97 C 1078.86 461.38 1079.87 461.79 1080.89 462.21 C 1080.94 463.42 1081.00 464.64 1081.08 465.87 C 1079.67 465.47 1078.25 465.08 1076.87 464.71 C 1077.18 463.45 1077.52 462.21 1077.87 460.97 Z" />
</g>
<g id="#5fdf3fff">
<path fill="#5fdf3f" fill-opacity="0" d=" M 1054.19 474.26 C 1057.95 471.88 1062.63 472.71 1066.85 472.72 C 1067.85 476.12 1068.30 479.81 1070.25 482.85 C 1072.06 484.88 1074.71 485.83 1077.05 487.13 C 1083.64 490.28 1089.54 494.67 1095.97 498.12 C 1099.72 500.30 1104.42 499.54 1108.24 497.93 C 1116.14 492.91 1118.16 481.77 1126.30 477.25 C 1133.65 474.13 1139.28 480.40 1143.45 485.50 C 1136.15 492.89 1132.75 503.47 1133.11 513.68 C 1140.09 526.84 1151.44 536.82 1161.29 547.76 C 1162.79 549.63 1165.10 551.69 1164.36 554.36 C 1162.86 561.81 1160.34 568.99 1158.32 576.31 C 1154.71 577.54 1150.61 577.96 1147.54 580.32 C 1145.59 583.05 1144.97 586.49 1143.73 589.57 C 1137.37 586.81 1128.00 585.97 1125.85 578.16 C 1122.89 570.00 1123.22 561.21 1123.39 552.68 C 1116.82 552.14 1110.29 549.57 1103.67 550.32 C 1091.05 556.22 1083.03 570.81 1067.95 571.42 C 1064.40 569.72 1062.37 565.98 1059.77 563.26 C 1055.30 557.60 1050.67 552.07 1045.95 546.63 C 1049.27 544.69 1052.80 543.15 1056.30 541.57 C 1056.03 533.70 1048.85 529.46 1043.50 524.86 C 1046.05 519.99 1049.54 515.32 1049.65 509.59 C 1050.93 499.94 1050.57 490.18 1051.51 480.52 C 1051.75 478.24 1052.01 475.56 1054.19 474.26 M 1070.81 500.98 C 1071.70 500.96 1073.46 500.92 1074.34 500.90 C 1073.81 499.44 1073.25 498.01 1072.66 496.59 C 1072.00 498.03 1071.39 499.50 1070.81 500.98 Z" />
</g>
<g id="#3f001fff">
<path fill="#3f001f" fill-opacity="0" d=" M 1172.16 489.83 C 1180.82 492.78 1189.30 488.76 1196.61 484.41 C 1200.06 485.34 1203.58 486.42 1206.96 487.68 C 1205.84 490.55 1204.79 493.44 1203.93 496.40 C 1207.37 498.12 1210.75 499.98 1214.04 501.99 C 1213.66 507.35 1213.20 512.69 1212.87 518.07 C 1216.06 519.83 1219.07 521.99 1222.52 523.34 C 1229.19 524.30 1235.58 521.88 1242.08 520.83 C 1237.38 528.48 1231.91 535.68 1228.03 543.80 C 1226.75 547.77 1227.63 552.14 1226.12 556.06 C 1225.05 558.81 1223.62 561.40 1222.53 564.14 C 1227.86 564.49 1233.22 564.62 1238.59 564.45 C 1236.76 569.67 1232.77 574.06 1232.51 579.80 C 1233.35 583.17 1235.18 586.19 1236.86 589.21 C 1245.24 588.95 1253.66 588.53 1262.06 587.98 C 1257.67 593.55 1252.17 598.53 1249.21 605.07 C 1247.40 612.64 1246.85 620.48 1245.92 628.21 C 1236.62 630.43 1227.20 632.24 1218.25 635.71 C 1208.87 639.08 1198.84 638.96 1189.03 638.76 C 1183.58 632.23 1178.64 625.31 1172.96 618.99 C 1169.21 614.42 1162.36 616.12 1157.71 613.18 C 1152.33 605.77 1148.51 597.37 1143.73 589.57 C 1144.97 586.49 1145.59 583.05 1147.54 580.32 C 1150.61 577.96 1154.71 577.54 1158.32 576.31 C 1160.34 568.99 1162.86 561.81 1164.36 554.36 C 1165.10 551.69 1162.79 549.63 1161.29 547.76 C 1151.44 536.82 1140.09 526.84 1133.11 513.68 C 1132.75 503.47 1136.15 492.89 1143.45 485.50 C 1153.10 486.43 1162.75 487.37 1172.16 489.83 M 1150.21 512.85 C 1150.76 510.91 1151.27 508.96 1151.76 507.01 C 1150.14 508.60 1149.51 510.67 1150.21 512.85 Z" />
</g>
<g id="#7f3f1fff">
<path fill="#7f3f1f" fill-opacity="0" d=" M 628.87 495.85 C 639.34 501.16 649.18 507.92 660.44 511.53 C 664.92 513.05 669.66 511.54 673.97 510.08 C 678.90 507.90 683.80 511.79 687.95 514.19 C 692.36 517.41 696.63 520.81 701.01 524.08 C 699.26 525.64 697.44 527.16 695.71 528.73 C 692.06 532.93 686.24 533.18 681.15 533.84 C 680.78 536.26 680.46 538.71 680.13 541.16 C 682.41 542.29 684.70 543.39 687.01 544.49 C 686.08 549.91 684.04 555.19 683.90 560.71 C 684.76 565.98 687.76 570.60 689.98 575.38 C 687.00 578.20 683.99 580.98 681.06 583.84 C 677.59 582.80 674.08 581.91 670.58 580.99 C 668.60 587.60 666.16 594.22 661.37 599.40 C 656.35 605.63 647.46 608.99 645.18 617.27 C 643.73 623.83 645.31 630.56 646.82 636.98 C 650.92 637.38 655.01 637.76 659.13 638.15 C 655.64 646.73 652.05 655.26 648.87 663.95 C 646.53 670.05 649.99 676.25 652.10 681.91 C 648.54 680.92 644.93 680.03 641.57 678.47 C 636.35 676.86 633.29 671.93 628.50 669.65 C 623.89 668.64 618.78 671.86 614.46 669.54 C 607.97 664.10 600.92 659.07 595.62 652.38 C 591.65 644.48 594.29 634.00 587.70 627.25 C 593.08 623.91 597.68 619.26 600.38 613.48 C 602.08 610.90 597.61 608.93 597.02 607.00 C 589.07 598.65 580.72 590.65 573.88 581.30 C 577.63 577.04 581.06 572.47 585.21 568.58 C 582.02 563.53 578.49 558.72 574.95 553.92 C 581.77 549.66 589.62 547.03 595.93 542.00 C 594.58 537.78 591.65 534.27 590.27 530.08 C 594.62 524.48 601.03 520.80 606.90 517.01 C 613.12 515.88 619.17 518.81 625.19 520.01 C 624.97 513.15 624.49 506.33 623.64 499.53 C 625.41 498.34 627.14 497.11 628.87 495.85 Z" />
</g>
<g id="#dfdf3fff">
<path fill="#dfdf3f" fill-opacity="0" d=" M 1070.81 500.98 C 1071.39 499.50 1072.00 498.03 1072.66 496.59 C 1073.25 498.01 1073.81 499.44 1074.34 500.90 C 1073.46 500.92 1071.70 500.96 1070.81 500.98 Z" />
</g>
<g id="#bf001fff">
<path fill="#bf001f" fill-opacity="0" d=" M 1150.21 512.85 C 1149.51 510.67 1150.14 508.60 1151.76 507.01 C 1151.27 508.96 1150.76 510.91 1150.21 512.85 Z" />
</g>
<g id="#dfdfbfff">
<path fill="#dfdfbf" fill-opacity="0" d=" M 947.19 509.67 C 948.83 509.73 948.44 512.45 946.96 512.49 C 945.30 512.41 945.75 509.75 947.19 509.67 Z" />
</g>
<g id="#003f1fff">
<path fill="#003f1f" fill-opacity="0" d=" M 1033.69 559.85 C 1037.67 555.35 1041.61 550.79 1045.95 546.63 C 1050.67 552.07 1055.30 557.60 1059.77 563.26 C 1062.37 565.98 1064.40 569.72 1067.95 571.42 C 1083.03 570.81 1091.05 556.22 1103.67 550.32 C 1110.29 549.57 1116.82 552.14 1123.39 552.68 C 1123.22 561.21 1122.89 570.00 1125.85 578.16 C 1128.00 585.97 1137.37 586.81 1143.73 589.57 C 1148.51 597.37 1152.33 605.77 1157.71 613.18 C 1162.36 616.12 1169.21 614.42 1172.96 618.99 C 1178.64 625.31 1183.58 632.23 1189.03 638.76 C 1179.81 638.60 1170.60 637.92 1161.42 637.18 C 1150.03 635.68 1139.20 641.67 1130.62 648.62 C 1125.54 652.41 1123.40 658.61 1120.65 664.07 C 1115.06 661.63 1109.50 659.03 1103.63 657.32 C 1097.23 655.46 1091.03 659.58 1084.64 659.12 C 1079.66 658.11 1077.25 652.74 1075.77 648.44 C 1072.97 641.01 1067.81 634.86 1063.61 628.22 C 1055.11 627.12 1046.39 627.21 1038.14 624.66 C 1033.06 622.40 1028.17 619.57 1024.08 615.78 C 1020.40 611.60 1017.22 606.86 1015.28 601.62 C 1013.59 597.93 1016.96 594.74 1018.59 591.73 C 1015.66 589.04 1012.66 586.35 1009.76 583.68 C 1018.46 582.84 1027.44 586.23 1035.82 582.83 C 1038.80 579.88 1040.49 575.40 1040.32 571.21 C 1039.09 566.94 1036.06 563.51 1033.69 559.85 Z" />
</g>
<g id="#7f001fff">
<path fill="#7f001f" fill-opacity="0" d=" M 875.21 559.63 C 881.94 559.35 887.31 564.16 893.00 566.96 C 889.18 578.73 881.88 590.06 883.28 602.89 C 890.00 602.51 897.61 600.05 903.61 604.22 C 910.57 608.64 917.35 613.35 924.43 617.61 C 918.38 622.62 912.76 628.15 906.66 633.10 C 911.49 636.85 918.29 637.80 921.96 643.03 C 924.93 647.08 927.61 651.37 930.29 655.63 C 918.25 664.29 906.03 674.09 899.75 687.91 C 897.09 693.26 903.13 698.19 901.73 703.73 C 899.87 714.92 897.17 725.95 895.19 737.13 C 883.17 725.04 871.87 712.24 859.99 700.01 C 853.61 692.03 846.91 684.28 840.91 676.02 C 837.43 671.28 839.98 665.40 840.67 660.23 C 836.60 658.69 831.03 658.73 828.72 654.53 C 826.12 650.58 825.08 644.81 819.91 643.33 C 810.57 640.74 802.70 635.11 796.01 628.31 C 799.08 624.88 804.49 622.12 804.39 616.84 C 804.01 611.17 805.26 605.58 808.52 600.92 C 805.67 599.59 802.64 598.68 800.09 596.85 C 797.97 594.36 796.94 591.16 795.51 588.27 C 798.68 585.66 802.01 581.80 806.57 582.59 C 813.09 584.17 818.76 587.94 824.73 590.86 C 825.71 588.44 826.66 586.00 827.76 583.62 C 828.86 578.18 834.75 577.12 838.80 574.71 C 844.54 572.06 846.90 565.79 849.80 560.63 C 858.29 560.62 866.73 559.90 875.21 559.63 Z" />
</g>
<g id="#00bf1ffe">
<path fill="#00bf1f" fill-opacity="0" d=" M 729.50 570.47 C 740.12 571.62 750.78 572.42 761.36 573.85 C 768.15 575.45 771.58 582.70 777.81 585.37 C 783.52 587.24 789.62 587.25 795.51 588.27 C 796.94 591.16 797.97 594.36 800.09 596.85 C 802.64 598.68 805.67 599.59 808.52 600.92 C 805.26 605.58 804.01 611.17 804.39 616.84 C 804.49 622.12 799.08 624.88 796.01 628.31 C 789.27 634.41 783.39 641.73 775.25 646.01 C 767.12 647.93 758.39 644.66 750.41 647.62 C 743.79 652.50 739.99 660.46 733.04 664.91 C 725.95 667.43 718.42 662.10 711.34 664.37 C 703.62 668.49 696.08 674.03 692.05 682.02 C 689.81 685.43 687.99 690.07 683.54 691.03 C 676.83 692.59 671.00 696.38 665.34 700.16 C 660.23 694.64 655.23 688.82 652.10 681.91 C 649.99 676.25 646.53 670.05 648.87 663.95 C 652.05 655.26 655.64 646.73 659.13 638.15 C 655.01 637.76 650.92 637.38 646.82 636.98 C 645.31 630.56 643.73 623.83 645.18 617.27 C 647.46 608.99 656.35 605.63 661.37 599.40 C 666.16 594.22 668.60 587.60 670.58 580.99 C 674.08 581.91 677.59 582.80 681.06 583.84 C 683.99 580.98 687.00 578.20 689.98 575.38 C 696.46 574.34 702.96 573.37 709.46 572.38 C 713.56 576.40 717.31 581.24 723.28 582.52 C 725.36 578.50 727.43 574.48 729.50 570.47 Z" />
</g>
<g id="#df5fbfff">
<path fill="#df5fbf" fill-opacity="0" d=" M 981.74 580.14 C 985.31 574.74 991.48 572.40 997.47 570.85 C 1001.37 575.29 1005.38 579.69 1009.76 583.68 C 1012.66 586.35 1015.66 589.04 1018.59 591.73 C 1016.96 594.74 1013.59 597.93 1015.28 601.62 C 1017.22 606.86 1020.40 611.60 1024.08 615.78 C 1018.87 625.48 1014.42 635.57 1009.09 645.20 C 1007.27 648.86 1003.30 650.49 999.83 652.13 C 993.95 654.90 992.95 662.02 990.36 667.33 C 984.47 680.25 979.24 693.45 973.16 706.28 C 978.08 708.61 983.10 710.77 988.22 712.67 C 987.64 719.48 986.64 726.27 986.45 733.11 C 977.37 734.20 968.10 734.14 959.20 736.35 C 947.38 740.55 936.02 747.16 923.16 747.49 C 912.74 748.24 902.92 743.88 895.19 737.13 C 897.17 725.95 899.87 714.92 901.73 703.73 C 903.13 698.19 897.09 693.26 899.75 687.91 C 906.03 674.09 918.25 664.29 930.29 655.63 C 927.61 651.37 924.93 647.08 921.96 643.03 C 918.29 637.80 911.49 636.85 906.66 633.10 C 912.76 628.15 918.38 622.62 924.43 617.61 C 933.37 613.16 942.20 608.40 951.48 604.67 C 956.50 602.55 962.18 601.79 966.73 598.70 C 972.37 593.06 976.74 586.33 981.74 580.14 Z" />
</g>
<g id="#5f5f3ffe">
<path fill="#5f5f3f" fill-opacity="0" d=" M 1024.08 615.78 C 1028.17 619.57 1033.06 622.40 1038.14 624.66 C 1046.39 627.21 1055.11 627.12 1063.61 628.22 C 1067.81 634.86 1072.97 641.01 1075.77 648.44 C 1077.25 652.74 1079.66 658.11 1084.64 659.12 C 1091.03 659.58 1097.23 655.46 1103.63 657.32 C 1109.50 659.03 1115.06 661.63 1120.65 664.07 C 1125.50 667.05 1130.76 669.98 1134.20 674.63 C 1135.35 678.57 1131.98 682.19 1130.88 685.78 C 1124.87 697.37 1119.84 709.44 1113.95 721.07 C 1107.73 727.46 1098.24 728.97 1090.40 732.59 C 1092.82 738.63 1098.04 742.81 1103.21 746.47 C 1098.16 751.52 1090.78 752.17 1084.18 753.65 C 1078.19 747.65 1072.00 741.86 1065.89 735.99 C 1060.06 739.31 1053.30 741.48 1048.48 746.33 C 1045.54 751.08 1043.94 756.70 1039.99 760.84 C 1035.95 757.72 1031.92 754.34 1029.05 750.08 C 1026.45 744.73 1025.87 738.63 1023.54 733.19 C 1013.83 723.37 1001.62 716.11 988.22 712.67 C 983.10 710.77 978.08 708.61 973.16 706.28 C 979.24 693.45 984.47 680.25 990.36 667.33 C 992.95 662.02 993.95 654.90 999.83 652.13 C 1003.30 650.49 1007.27 648.86 1009.09 645.20 C 1014.42 635.57 1018.87 625.48 1024.08 615.78 Z" />
</g>
<g id="#bf7f9fff">
<path fill="#bf7f9f" fill-opacity="0" d=" M 775.25 646.01 C 783.39 641.73 789.27 634.41 796.01 628.31 C 802.70 635.11 810.57 640.74 819.91 643.33 C 825.08 644.81 826.12 650.58 828.72 654.53 C 831.03 658.73 836.60 658.69 840.67 660.23 C 839.98 665.40 837.43 671.28 840.91 676.02 C 846.91 684.28 853.61 692.03 859.99 700.01 C 871.87 712.24 883.17 725.04 895.19 737.13 C 902.92 743.88 912.74 748.24 923.16 747.49 C 926.38 758.76 924.87 770.59 926.54 782.09 L 926.66 783.36 C 919.53 782.56 914.14 778.15 910.60 772.28 C 901.04 771.76 891.48 771.46 881.93 770.92 C 881.22 776.46 881.00 782.12 879.58 787.56 C 873.90 790.71 867.53 792.92 861.20 794.32 C 855.49 791.98 851.36 787.08 846.01 784.15 C 835.58 780.40 823.20 783.10 813.77 776.41 C 808.83 773.57 806.12 779.34 802.92 781.91 C 790.51 777.24 777.29 775.03 765.16 769.63 C 760.21 766.48 756.66 761.55 753.05 757.05 C 748.82 749.37 748.10 740.20 743.25 732.79 C 732.33 734.57 721.42 736.44 710.45 737.85 C 694.51 726.40 679.33 713.93 665.34 700.16 C 671.00 696.38 676.83 692.59 683.54 691.03 C 687.99 690.07 689.81 685.43 692.05 682.02 C 696.08 674.03 703.62 668.49 711.34 664.37 C 718.42 662.10 725.95 667.43 733.04 664.91 C 739.99 660.46 743.79 652.50 750.41 647.62 C 758.39 644.66 767.12 647.93 775.25 646.01 Z" />
</g>
<g id="#007f9fff">
<path fill="#007f9f" fill-opacity="0" d=" M 1218.25 635.71 C 1227.20 632.24 1236.62 630.43 1245.92 628.21 C 1245.62 637.94 1245.60 647.69 1245.48 657.42 C 1244.82 662.73 1246.01 668.97 1242.36 673.47 C 1238.23 679.10 1233.24 684.03 1228.76 689.38 C 1223.36 686.87 1218.44 682.72 1212.14 683.09 C 1210.12 684.10 1208.58 685.80 1206.99 687.36 C 1210.74 689.55 1214.64 691.48 1218.63 693.21 C 1216.64 696.00 1214.03 698.57 1213.18 701.97 C 1217.26 711.76 1223.03 720.92 1226.45 731.01 C 1222.15 736.70 1216.51 741.36 1210.97 745.82 C 1202.42 749.90 1192.46 751.50 1185.81 758.92 C 1179.36 758.66 1172.89 758.34 1166.46 758.19 C 1159.38 749.92 1155.30 739.76 1152.98 729.24 C 1144.50 731.27 1142.03 740.49 1138.99 747.44 C 1133.07 743.18 1126.70 738.50 1118.96 739.03 C 1112.50 738.11 1107.79 742.85 1103.21 746.47 C 1098.04 742.81 1092.82 738.63 1090.40 732.59 C 1098.24 728.97 1107.73 727.46 1113.95 721.07 C 1119.84 709.44 1124.87 697.37 1130.88 685.78 C 1131.98 682.19 1135.35 678.57 1134.20 674.63 C 1130.76 669.98 1125.50 667.05 1120.65 664.07 C 1123.40 658.61 1125.54 652.41 1130.62 648.62 C 1139.20 641.67 1150.03 635.68 1161.42 637.18 C 1170.60 637.92 1179.81 638.60 1189.03 638.76 C 1198.84 638.96 1208.87 639.08 1218.25 635.71 Z" />
</g>
<g id="#3f7f1fff">
<path fill="#3f7f1f" fill-opacity="0" d=" M 988.22 712.67 C 1001.62 716.11 1013.83 723.37 1023.54 733.19 C 1025.87 738.63 1026.45 744.73 1029.05 750.08 C 1031.92 754.34 1035.95 757.72 1039.99 760.84 C 1036.57 765.42 1032.42 770.07 1031.55 775.91 C 1031.50 782.97 1035.78 789.50 1035.17 796.60 C 1030.15 806.18 1022.41 814.09 1017.74 823.90 C 1011.90 836.15 1000.69 844.90 995.08 857.26 C 992.49 852.28 991.00 846.73 987.92 842.02 C 983.73 837.95 979.35 833.80 974.09 831.16 C 969.37 834.52 965.87 839.29 961.43 842.99 C 956.27 838.32 949.63 835.24 945.25 829.80 C 942.11 813.71 941.91 797.08 943.08 780.73 C 938.93 779.51 934.70 778.37 930.36 778.29 C 928.92 779.38 927.76 780.77 926.54 782.09 C 924.87 770.59 926.38 758.76 923.16 747.49 C 936.02 747.16 947.38 740.55 959.20 736.35 C 968.10 734.14 977.37 734.20 986.45 733.11 C 986.64 726.27 987.64 719.48 988.22 712.67 Z" />
</g>
<g id="#bf7f1fff">
<path fill="#bf7f1f" fill-opacity="0" d=" M 1138.99 747.44 C 1142.03 740.49 1144.50 731.27 1152.98 729.24 C 1155.30 739.76 1159.38 749.92 1166.46 758.19 C 1169.15 762.62 1171.53 767.21 1174.58 771.44 C 1177.69 775.79 1184.88 775.82 1186.66 781.30 C 1188.99 787.28 1190.57 793.53 1192.74 799.59 C 1189.16 802.51 1185.30 805.28 1183.05 809.42 C 1187.76 811.63 1193.68 812.72 1196.48 817.61 C 1199.37 822.28 1202.96 826.69 1204.89 831.89 C 1201.98 835.89 1197.39 838.29 1194.41 842.20 C 1194.31 845.79 1195.19 849.37 1195.71 852.93 C 1193.25 854.40 1190.55 855.55 1188.44 857.51 C 1186.37 860.55 1187.84 864.55 1187.55 867.93 C 1179.47 872.87 1170.53 876.48 1160.91 876.31 C 1160.51 873.84 1160.14 871.40 1159.81 868.98 C 1158.65 869.04 1157.50 869.11 1156.37 869.19 C 1153.44 872.58 1151.18 876.81 1147.23 879.18 C 1140.12 882.91 1134.24 888.59 1126.91 891.92 C 1121.13 894.63 1115.23 897.11 1109.20 899.22 C 1106.86 886.76 1103.31 874.52 1098.02 862.98 C 1093.33 862.26 1088.67 861.54 1083.99 860.84 C 1080.94 863.14 1077.92 865.45 1074.96 867.86 C 1069.11 864.95 1063.34 860.60 1056.39 861.61 C 1050.76 862.68 1045.45 865.02 1039.84 866.20 C 1038.84 863.90 1038.13 861.42 1036.54 859.47 C 1031.00 857.40 1024.94 858.58 1019.17 858.60 C 1019.32 864.22 1021.69 871.47 1016.78 875.76 C 1013.19 877.36 1009.03 876.18 1005.25 876.02 C 1002.22 869.64 996.40 864.33 995.08 857.26 C 1000.69 844.90 1011.90 836.15 1017.74 823.90 C 1022.41 814.09 1030.15 806.18 1035.17 796.60 C 1035.78 789.50 1031.50 782.97 1031.55 775.91 C 1032.42 770.07 1036.57 765.42 1039.99 760.84 C 1043.94 756.70 1045.54 751.08 1048.48 746.33 C 1053.30 741.48 1060.06 739.31 1065.89 735.99 C 1072.00 741.86 1078.19 747.65 1084.18 753.65 C 1090.78 752.17 1098.16 751.52 1103.21 746.47 C 1107.79 742.85 1112.50 738.11 1118.96 739.03 C 1126.70 738.50 1133.07 743.18 1138.99 747.44 M 1052.79 822.91 C 1053.16 824.70 1053.54 826.50 1053.95 828.30 C 1054.66 827.25 1055.37 826.21 1056.10 825.18 C 1054.98 824.41 1053.88 823.65 1052.79 822.91 Z" />
</g>
<g id="#3f009fff">
<path fill="#3f009f" fill-opacity="0" d=" M 1052.79 822.91 C 1053.88 823.65 1054.98 824.41 1056.10 825.18 C 1055.37 826.21 1054.66 827.25 1053.95 828.30 C 1053.54 826.50 1053.16 824.70 1052.79 822.91 Z" />
</g>
<g id="#dfbf00ff">
<path fill="#dfbf00" fill-opacity="0" d=" M 0.00 1079.00 C 26.56 1079.28 53.16 1078.20 79.69 1079.79 L 80.99 1080.00 L 0.00 1080.00 L 0.00 1079.00 Z" />
</g>
<g id="#5f3f7fff">
<path fill="#5f3f7f" fill-opacity="0" d=" M 79.69 1079.79 C 100.78 1078.61 121.90 1079.01 143.00 1079.00 C 168.25 1079.11 193.53 1078.37 218.75 1079.97 L 219.65 1080.00 L 80.99 1080.00 L 79.69 1079.79 Z" />
</g>
<g id="#5f003fff">
<path fill="#5f003f" fill-opacity="0" d=" M 218.75 1079.97 C 253.36 1078.42 288.08 1078.46 322.70 1079.79 L 323.99 1080.00 L 219.65 1080.00 L 218.75 1079.97 Z" />
</g>
<g id="#bf9f1fff">
<path fill="#bf9f1f" fill-opacity="0" d=" M 322.70 1079.79 C 360.77 1078.14 398.90 1079.37 437.00 1079.00 L 437.01 1080.00 L 323.99 1080.00 L 322.70 1079.79 Z" />
</g>
<g id="#dfdfdfff">
<path fill="#dfdfdf" fill-opacity="0" d=" M 437.00 1079.00 C 440.99 1078.97 444.99 1078.97 449.00 1079.00 L 449.00 1080.00 L 437.01 1080.00 L 437.00 1079.00 Z" />
<path fill="#dfdfdf" fill-opacity="0" d=" M 461.00 1079.00 C 466.66 1078.98 472.32 1078.98 478.00 1078.99 L 477.99 1080.00 L 461.00 1080.00 L 461.00 1079.00 Z" />
</g>
<g id="#bf9f20ff">
<path fill="#bf9f20" fill-opacity="0" d=" M 449.00 1079.00 C 452.99 1078.97 456.99 1078.97 461.00 1079.00 L 461.00 1080.00 L 449.00 1080.00 L 449.00 1079.00 Z" />
</g>
<g id="#9fbfdfff">
<path fill="#9fbfdf" fill-opacity="0" d=" M 478.00 1078.99 C 513.58 1079.40 549.19 1078.01 584.73 1079.97 L 585.64 1080.00 L 477.99 1080.00 L 478.00 1078.99 Z" />
</g>
<g id="#bf1f1fff">
<path fill="#bf1f1f" fill-opacity="0" d=" M 584.73 1079.97 C 619.78 1077.93 654.91 1079.46 690.00 1078.99 L 690.00 1080.00 L 585.64 1080.00 L 584.73 1079.97 Z" />
</g>
<g id="#7f1f1fff">
<path fill="#7f1f1f" fill-opacity="0" d=" M 690.00 1078.99 C 708.91 1078.83 727.84 1078.80 746.73 1079.97 L 747.64 1080.00 L 690.00 1080.00 L 690.00 1078.99 Z" />
</g>
<g id="#dfbf5fff">
<path fill="#dfbf5f" fill-opacity="0" d=" M 746.73 1079.97 C 781.78 1077.94 816.91 1079.45 852.00 1079.00 L 852.01 1080.00 L 747.64 1080.00 L 746.73 1079.97 Z" />
</g>
<g id="#9f3fdfff">
<path fill="#9f3fdf" fill-opacity="0" d=" M 852.00 1079.00 C 864.32 1078.99 876.66 1078.99 889.00 1079.00 L 889.02 1080.00 L 852.01 1080.00 L 852.00 1079.00 Z" />
</g>
<g id="#7f9f1fff">
<path fill="#7f9f1f" fill-opacity="0" d=" M 889.00 1079.00 C 936.99 1078.97 985.00 1079.06 1033.00 1078.95 L 1033.00 1080.00 L 889.02 1080.00 L 889.00 1079.00 Z" />
</g>
<g id="#9fdf5fff">
<path fill="#9fdf5f" fill-opacity="0" d=" M 1033.00 1078.95 C 1047.25 1078.82 1061.51 1079.11 1075.75 1079.97 L 1076.66 1080.00 L 1033.00 1080.00 L 1033.00 1078.95 Z" />
</g>
<g id="#5f5f5fff">
<path fill="#5f5f5f" fill-opacity="0" d=" M 1075.75 1079.97 C 1083.88 1079.72 1092.00 1079.75 1100.16 1080.00 L 1076.66 1080.00 L 1075.75 1079.97 Z" />
<path fill="#5f5f5f" fill-opacity="0" d=" M 1100.79 1080.00 C 1107.24 1079.84 1113.68 1079.85 1120.17 1079.95 L 1119.26 1080.00 L 1100.79 1080.00 Z" />
</g>
<g id="#1fdfdfff">
<path fill="#1fdfdf" fill-opacity="0" d=" M 1120.17 1079.95 C 1151.66 1078.31 1183.25 1078.50 1214.75 1079.97 L 1215.65 1080.00 L 1119.26 1080.00 L 1120.17 1079.95 Z" />
</g>
<g id="#5f1f5fff">
<path fill="#5f1f5f" fill-opacity="0" d=" M 1214.75 1079.97 C 1221.59 1079.73 1228.42 1079.84 1235.30 1080.00 L 1215.65 1080.00 L 1214.75 1079.97 Z" />
<path fill="#5f1f5f" fill-opacity="0" d=" M 1236.70 1080.00 C 1260.43 1078.50 1284.23 1079.02 1308.00 1079.00 L 1307.99 1080.00 L 1236.70 1080.00 Z" />
</g>
<g id="#df1fdfff">
<path fill="#df1fdf" fill-opacity="0" d=" M 1308.00 1079.00 C 1342.24 1079.38 1376.51 1078.04 1410.72 1079.97 L 1411.63 1080.00 L 1307.99 1080.00 L 1308.00 1079.00 Z" />
</g>
<g id="#1f5fdfff">
<path fill="#1f5fdf" fill-opacity="0" d=" M 1410.72 1079.97 C 1434.10 1078.23 1457.57 1079.17 1481.00 1079.01 C 1507.92 1079.19 1534.87 1078.25 1561.77 1079.97 L 1562.67 1080.00 L 1411.63 1080.00 L 1410.72 1079.97 Z" />
</g>
<g id="#5fdf5fff">
<path fill="#5fdf5f" fill-opacity="0" d=" M 1561.77 1079.97 C 1566.75 1079.93 1571.68 1079.93 1576.72 1079.99 L 1577.58 1080.00 L 1562.67 1080.00 L 1561.77 1079.97 Z" />
</g>
<g id="#0000dfff">
<path fill="#0000df" fill-opacity="0" d=" M 1576.72 1079.99 C 1613.52 1078.19 1650.47 1078.55 1687.30 1080.00 L 1577.58 1080.00 L 1576.72 1079.99 Z" />
</g>
<g id="#7f3f9fff">
<path fill="#7f3f9f" fill-opacity="0" d=" M 1688.65 1080.00 C 1753.05 1077.74 1817.55 1079.60 1882.00 1079.00 L 1882.00 1080.00 L 1688.65 1080.00 Z" />
</g>
<g id="#bfbf9fff">
<path fill="#bfbf9f" fill-opacity="0" d=" M 1882.00 1079.00 C 1894.65 1078.99 1907.32 1078.99 1920.00 1079.00 L 1920.00 1080.00 L 1882.00 1080.00 L 1882.00 1079.00 Z" />
</g>
</svg>
