<?xml version="1.0" encoding="UTF-8" ?>
<!DOCTYPE svg PUBLIC "-//W3C//DTD SVG 1.1//EN" "http://www.w3.org/Graphics/SVG/1.1/DTD/svg11.dtd">
<svg width="1920pt" height="1080pt" viewBox="0 0 1920 1080" version="1.1" xmlns="http://www.w3.org/2000/svg">
<g id="#7f7f7fff">
<path fill="#7f7f7f" fill-opacity="0" d=" M 911.12 214.41 C 919.51 212.75 929.42 210.22 936.88 215.95 C 937.77 218.86 938.24 221.97 938.94 224.95 C 948.25 223.50 957.42 221.00 965.92 216.86 C 967.85 216.07 970.06 214.55 972.12 215.88 C 982.01 221.50 991.77 228.93 1003.33 230.47 C 1011.07 229.62 1018.51 226.73 1026.34 226.15 C 1028.10 228.18 1029.66 230.59 1032.13 231.85 C 1038.20 231.78 1042.53 225.27 1048.81 226.32 C 1052.30 228.31 1054.72 231.70 1057.90 234.13 C 1064.71 240.13 1072.93 244.04 1080.90 248.22 C 1088.80 252.20 1094.75 259.01 1102.18 263.72 C 1108.06 267.31 1116.21 263.07 1121.13 268.85 C 1129.19 276.12 1137.92 282.72 1145.01 291.01 C 1149.45 295.91 1145.28 304.34 1151.94 308.00 C 1157.00 311.21 1161.32 315.40 1166.16 318.85 C 1172.24 319.39 1175.90 313.38 1181.18 311.62 C 1185.30 311.87 1189.84 314.22 1191.47 318.16 C 1191.23 322.34 1190.09 326.42 1189.09 330.47 C 1193.54 332.58 1198.93 333.97 1201.91 338.16 C 1202.84 343.42 1199.83 348.53 1199.75 353.80 C 1208.71 355.88 1217.62 358.67 1226.88 358.93 C 1234.77 358.96 1239.69 350.40 1247.78 351.31 C 1252.23 352.76 1255.68 356.29 1260.15 357.71 C 1263.83 357.93 1267.21 356.07 1270.83 355.74 C 1277.46 358.18 1280.54 365.84 1287.02 368.52 C 1301.89 367.71 1316.83 365.31 1331.75 366.79 C 1338.26 367.94 1344.89 368.45 1351.49 367.72 C 1360.39 364.68 1366.28 373.21 1372.71 377.42 C 1371.21 384.31 1367.46 390.33 1364.95 396.85 C 1362.61 403.00 1359.46 408.79 1356.88 414.83 C 1354.85 419.24 1353.60 424.00 1351.10 428.18 C 1348.65 432.28 1343.93 434.28 1341.33 438.25 C 1337.74 443.93 1336.58 450.97 1332.32 456.23 C 1327.52 459.01 1321.56 459.51 1317.26 463.19 C 1314.24 465.98 1313.20 470.26 1310.34 473.16 C 1306.12 475.38 1301.12 476.22 1297.56 479.53 C 1291.63 484.54 1288.77 492.96 1280.64 495.24 C 1276.14 495.92 1271.53 495.07 1267.05 494.81 C 1257.49 493.71 1247.90 495.30 1238.34 495.45 C 1227.12 495.94 1215.78 492.71 1204.70 495.49 C 1197.96 498.19 1195.97 506.27 1193.02 512.20 C 1189.74 515.42 1185.25 517.36 1180.98 518.83 C 1173.52 518.01 1166.55 514.09 1158.92 514.56 C 1149.43 515.30 1139.89 517.29 1130.37 516.36 C 1125.83 513.75 1124.24 507.71 1119.21 505.70 C 1112.81 502.84 1105.73 504.60 1099.27 506.14 C 1086.73 509.32 1073.78 510.25 1061.11 512.67 C 1057.35 507.45 1056.89 501.02 1057.18 494.80 C 1055.55 485.44 1057.11 476.04 1058.17 466.71 C 1053.90 465.50 1049.48 464.94 1045.15 464.03 C 1044.60 461.06 1044.27 458.20 1043.77 455.26 C 1037.37 454.66 1031.84 451.63 1027.07 447.48 C 1027.38 431.93 1029.23 416.48 1030.21 400.98 C 1029.92 395.44 1029.54 388.42 1024.30 385.21 C 1017.96 385.31 1011.90 388.05 1005.56 388.60 C 994.52 388.87 985.04 395.40 974.21 396.72 C 965.55 398.18 956.82 396.00 948.15 396.78 C 944.16 397.02 943.56 401.66 942.45 404.65 C 940.03 413.05 939.79 423.58 932.20 429.26 C 920.49 433.18 908.52 427.45 896.95 425.46 C 895.00 424.08 892.90 422.83 891.32 421.05 C 890.54 418.43 890.29 415.80 889.81 413.15 C 892.32 412.83 894.85 412.56 897.38 412.33 C 897.42 405.14 895.24 398.17 895.23 390.99 C 887.24 383.63 875.75 385.52 865.76 385.50 C 856.51 385.06 846.71 387.18 837.97 383.17 C 830.14 380.20 821.63 376.32 817.33 368.73 C 813.99 363.15 810.76 357.42 809.01 351.12 C 807.54 347.47 807.06 341.73 802.36 340.64 C 792.51 337.84 785.66 329.51 780.31 321.24 C 782.63 318.38 784.68 315.19 787.56 312.85 C 790.59 312.06 793.77 312.49 796.87 312.27 C 810.66 311.67 823.20 305.37 836.35 301.89 C 842.57 300.07 845.47 293.49 848.38 288.35 C 852.14 280.25 853.09 271.21 855.94 262.79 C 863.27 261.87 872.40 266.34 878.82 260.88 C 887.45 254.30 896.71 248.63 905.95 242.96 C 905.33 235.96 904.28 228.94 904.50 221.91 C 904.93 218.47 906.88 214.11 911.12 214.41 Z" />
</g>
<g id="#bf7f00ff">
<path fill="#bf7f00" fill-opacity="0" d=" M 762.47 331.71 C 768.60 328.64 776.75 327.95 780.31 321.24 C 785.66 329.51 792.51 337.84 802.36 340.64 C 807.06 341.73 807.54 347.47 809.01 351.12 C 810.76 357.42 813.99 363.15 817.33 368.73 C 821.63 376.32 830.14 380.20 837.97 383.17 C 846.71 387.18 856.51 385.06 865.76 385.50 C 875.75 385.52 887.24 383.63 895.23 390.99 C 895.24 398.17 897.42 405.14 897.38 412.33 C 894.85 412.56 892.32 412.83 889.81 413.15 C 890.29 415.80 890.54 418.43 891.32 421.05 C 892.90 422.83 895.00 424.08 896.95 425.46 C 890.59 434.61 884.94 444.30 880.64 454.59 C 878.85 458.71 878.08 463.27 875.82 467.18 C 874.09 469.68 870.64 470.13 868.22 471.57 C 861.98 473.74 856.99 478.16 851.97 482.27 C 854.14 486.53 856.19 490.85 858.23 495.18 C 852.92 500.45 855.01 509.09 848.89 513.83 C 835.63 526.78 817.57 532.42 802.27 542.35 C 796.83 538.59 791.78 534.13 785.61 531.56 C 782.05 530.17 778.09 530.24 774.56 528.79 C 772.37 527.38 771.11 524.99 769.52 523.01 C 767.21 522.78 764.90 522.58 762.59 522.38 C 762.71 516.54 762.25 510.72 761.20 504.98 C 760.27 500.03 763.71 495.22 762.27 490.32 C 757.55 483.93 750.71 479.17 746.87 472.09 C 744.40 467.88 743.48 462.94 740.92 458.79 C 738.89 456.75 736.28 455.51 733.75 454.27 C 722.42 449.40 710.56 445.72 698.37 443.78 C 690.45 442.93 684.31 449.45 677.73 452.67 C 672.35 455.93 667.46 459.96 661.89 462.86 C 656.58 465.52 650.45 462.20 646.59 458.41 L 646.18 458.05 C 647.47 457.66 648.77 457.29 650.07 456.90 C 647.08 448.38 644.10 439.85 641.27 431.28 C 638.65 423.08 642.21 414.59 641.40 406.26 C 640.79 402.27 639.11 398.44 639.28 394.34 C 639.21 390.08 641.19 386.19 643.01 382.46 C 650.97 383.35 658.65 386.00 666.59 386.91 C 680.84 384.29 694.67 379.62 708.92 376.85 C 710.22 366.71 711.75 356.58 711.83 346.34 C 717.79 343.24 723.29 339.38 728.39 335.01 C 731.15 335.70 733.91 336.45 736.69 337.14 C 737.22 339.09 737.76 341.03 738.30 342.98 C 746.76 340.11 754.24 335.10 762.47 331.71 M 818.36 437.75 C 818.30 439.76 818.23 441.76 818.21 443.78 C 821.13 443.33 823.41 441.50 825.19 439.31 C 823.48 438.92 820.07 438.14 818.36 437.75 Z" />
</g>
<g id="#007f7fff">
<path fill="#007f7f" fill-opacity="0" d=" M 1005.56 388.60 C 1011.90 388.05 1017.96 385.31 1024.30 385.21 C 1029.54 388.42 1029.92 395.44 1030.21 400.98 C 1029.23 416.48 1027.38 431.93 1027.07 447.48 C 1024.16 469.44 1009.76 487.34 1004.12 508.49 C 1008.40 512.68 1012.70 517.33 1013.53 523.56 C 1014.81 529.16 1017.55 534.53 1022.67 537.53 C 1021.27 553.36 1020.63 569.27 1018.74 585.05 C 1011.31 584.00 1009.78 593.41 1006.95 598.12 C 1003.01 601.40 997.27 601.63 992.98 604.44 C 990.54 606.64 990.75 610.37 988.75 612.86 C 985.05 615.25 980.31 614.65 976.17 615.19 C 975.29 611.56 974.43 607.94 973.58 604.31 C 969.12 606.04 964.86 608.22 960.49 610.13 C 953.37 611.83 946.02 612.20 938.82 613.47 C 937.98 612.28 937.13 611.10 936.34 609.89 C 931.66 604.59 933.47 597.42 932.88 591.07 C 928.72 589.60 924.43 591.51 920.41 592.57 C 917.94 589.98 915.35 586.82 911.45 586.77 C 905.38 586.47 899.47 588.48 893.47 589.00 C 891.16 586.38 888.80 583.80 886.11 581.57 C 885.67 584.40 885.91 587.43 884.78 590.12 C 882.71 591.64 880.02 591.94 877.56 592.34 C 870.95 593.04 864.37 593.95 857.78 594.61 C 851.99 594.96 847.13 598.50 842.07 601.00 C 840.45 599.75 838.83 598.51 837.22 597.28 C 836.26 597.60 835.31 597.92 834.37 598.24 C 832.42 602.58 830.21 606.81 827.23 610.54 C 818.44 600.51 807.93 591.80 796.00 585.76 C 791.09 583.03 785.32 584.14 780.04 584.54 C 776.25 579.23 769.48 579.46 764.25 576.67 C 762.58 572.90 764.50 568.41 765.96 565.01 C 773.83 560.67 782.56 557.76 789.83 552.27 C 791.83 554.21 793.86 556.12 795.84 558.09 C 798.61 553.12 801.23 547.99 802.27 542.35 C 817.57 532.42 835.63 526.78 848.89 513.83 C 855.01 509.09 852.92 500.45 858.23 495.18 C 856.19 490.85 854.14 486.53 851.97 482.27 C 856.99 478.16 861.98 473.74 868.22 471.57 C 870.64 470.13 874.09 469.68 875.82 467.18 C 878.08 463.27 878.85 458.71 880.64 454.59 C 884.94 444.30 890.59 434.61 896.95 425.46 C 908.52 427.45 920.49 433.18 932.20 429.26 C 939.79 423.58 940.03 413.05 942.45 404.65 C 943.56 401.66 944.16 397.02 948.15 396.78 C 956.82 396.00 965.55 398.18 974.21 396.72 C 985.04 395.40 994.52 388.87 1005.56 388.60 Z" />
</g>
<g id="#3f007fff">
<path fill="#3f007f" fill-opacity="0" d=" M 818.36 437.75 C 820.07 438.14 823.48 438.92 825.19 439.31 C 823.41 441.50 821.13 443.33 818.21 443.78 C 818.23 441.76 818.30 439.76 818.36 437.75 Z" />
</g>
<g id="#7f7f00ff">
<path fill="#7f7f00" fill-opacity="0" d=" M 677.73 452.67 C 684.31 449.45 690.45 442.93 698.37 443.78 C 710.56 445.72 722.42 449.40 733.75 454.27 C 736.28 455.51 738.89 456.75 740.92 458.79 C 743.48 462.94 744.40 467.88 746.87 472.09 C 750.71 479.17 757.55 483.93 762.27 490.32 C 763.71 495.22 760.27 500.03 761.20 504.98 C 762.25 510.72 762.71 516.54 762.59 522.38 C 764.90 522.58 767.21 522.78 769.52 523.01 C 771.11 524.99 772.37 527.38 774.56 528.79 C 778.09 530.24 782.05 530.17 785.61 531.56 C 791.78 534.13 796.83 538.59 802.27 542.35 C 801.23 547.99 798.61 553.12 795.84 558.09 C 793.86 556.12 791.83 554.21 789.83 552.27 C 782.56 557.76 773.83 560.67 765.96 565.01 C 764.50 568.41 762.58 572.90 764.25 576.67 C 769.48 579.46 776.25 579.23 780.04 584.54 C 777.92 586.92 775.81 589.29 773.72 591.68 C 769.07 591.63 764.45 591.69 759.82 592.02 C 758.51 593.60 757.37 595.36 755.71 596.61 C 748.04 596.73 742.96 590.75 737.32 586.64 C 733.88 584.15 729.81 587.08 726.45 588.25 C 720.34 591.09 714.01 593.65 708.44 597.48 C 705.38 599.50 704.79 603.32 702.87 606.18 C 700.34 608.62 696.71 609.30 693.56 610.59 C 691.53 606.86 689.65 603.05 687.74 599.27 C 681.51 599.60 674.98 600.46 669.12 597.75 C 665.69 589.66 658.96 583.68 651.33 579.62 C 653.84 575.76 656.23 571.81 658.02 567.56 C 660.96 567.59 663.93 567.88 666.85 567.35 C 670.55 566.65 673.11 563.47 676.70 562.50 C 681.36 561.14 686.31 561.23 690.97 559.88 C 694.71 558.79 697.74 556.23 700.60 553.70 C 697.89 551.83 693.67 552.85 691.30 550.37 C 689.60 547.22 688.95 543.63 687.71 540.30 C 684.67 530.73 678.08 522.78 675.29 513.10 C 680.05 510.58 684.85 508.06 689.96 506.32 C 691.13 502.23 692.35 497.57 696.23 495.20 C 700.17 492.81 704.96 492.97 709.36 492.05 C 704.56 482.36 693.91 478.74 687.00 471.06 C 688.28 468.55 689.98 466.13 690.49 463.31 C 687.39 458.58 682.00 456.16 677.73 452.67 Z" />
</g>
<g id="#003f00ff">
<path fill="#003f00" fill-opacity="0" d=" M 661.89 462.86 C 667.46 459.96 672.35 455.93 677.73 452.67 C 682.00 456.16 687.39 458.58 690.49 463.31 C 689.98 466.13 688.28 468.55 687.00 471.06 C 693.91 478.74 704.56 482.36 709.36 492.05 C 704.96 492.97 700.17 492.81 696.23 495.20 C 692.35 497.57 691.13 502.23 689.96 506.32 C 684.85 508.06 680.05 510.58 675.29 513.10 C 678.08 522.78 684.67 530.73 687.71 540.30 C 688.95 543.63 689.60 547.22 691.30 550.37 C 693.67 552.85 697.89 551.83 700.60 553.70 C 697.74 556.23 694.71 558.79 690.97 559.88 C 686.31 561.23 681.36 561.14 676.70 562.50 C 673.11 563.47 670.55 566.65 666.85 567.35 C 663.93 567.88 660.96 567.59 658.02 567.56 C 656.23 571.81 653.84 575.76 651.33 579.62 C 645.59 576.08 639.72 572.17 632.80 571.58 C 630.27 571.60 628.08 573.06 625.79 573.94 C 622.07 575.59 617.93 575.53 613.95 575.79 C 615.29 571.86 616.63 567.92 617.96 563.98 C 615.84 563.50 613.73 562.99 611.63 562.46 C 609.31 565.53 607.25 568.87 604.48 571.55 C 600.27 573.99 595.47 570.40 591.36 569.61 C 578.18 564.45 565.74 557.60 553.44 550.66 C 544.94 545.79 538.46 538.33 530.88 532.28 C 534.47 527.69 537.93 522.99 541.77 518.61 C 539.77 514.22 537.65 509.88 535.50 505.57 C 542.42 500.82 550.37 497.78 558.39 495.41 C 566.28 492.49 573.76 488.56 581.55 485.36 C 583.81 487.79 585.80 490.86 589.02 492.10 C 592.09 493.37 594.82 490.83 597.15 489.19 C 603.05 484.90 607.24 478.25 614.24 475.55 C 619.34 473.63 622.65 468.98 627.48 466.61 C 633.72 463.59 640.17 461.02 646.59 458.41 C 650.45 462.20 656.58 465.52 661.89 462.86 Z" />
</g>
<g id="#bf0000ff">
<path fill="#bf0000" fill-opacity="0" d=" M 530.10 531.63 L 530.88 532.28 C 538.46 538.33 544.94 545.79 553.44 550.66 C 565.74 557.60 578.18 564.45 591.36 569.61 C 595.47 570.40 600.27 573.99 604.48 571.55 C 607.25 568.87 609.31 565.53 611.63 562.46 C 613.73 562.99 615.84 563.50 617.96 563.98 C 616.63 567.92 615.29 571.86 613.95 575.79 C 617.93 575.53 622.07 575.59 625.79 573.94 C 628.08 573.06 630.27 571.60 632.80 571.58 C 639.72 572.17 645.59 576.08 651.33 579.62 C 658.96 583.68 665.69 589.66 669.12 597.75 C 666.78 599.27 664.41 600.77 662.07 602.29 C 654.79 601.62 647.00 602.75 641.00 607.18 C 633.70 612.92 630.74 621.83 626.37 629.63 C 628.62 629.92 630.94 630.67 633.22 630.15 C 635.43 629.32 636.74 627.20 638.32 625.58 C 638.95 627.15 639.57 628.72 640.19 630.31 C 636.00 632.95 631.77 635.58 628.02 638.84 C 624.86 637.66 621.61 634.45 618.08 636.22 C 611.76 639.24 604.61 639.24 597.97 641.17 C 595.30 641.74 595.10 644.97 594.20 647.05 C 593.38 650.14 591.13 652.50 588.94 654.71 C 587.14 650.59 582.82 647.78 578.30 648.16 C 574.30 648.34 569.87 650.46 566.21 647.90 C 558.35 643.16 551.14 637.40 542.98 633.15 C 543.44 630.71 544.50 628.23 544.09 625.72 C 542.47 620.83 538.54 617.08 537.05 612.13 C 533.75 600.06 536.32 587.32 533.52 575.18 C 531.90 567.72 531.40 560.08 530.39 552.53 C 529.42 545.62 528.76 538.54 530.10 531.63 M 573.59 585.46 C 574.41 587.01 575.27 588.56 576.16 590.09 C 578.36 589.73 580.57 589.37 582.79 589.01 C 582.71 587.16 582.61 585.32 582.52 583.48 C 579.42 583.44 576.38 584.14 573.59 585.46 Z" />
</g>
<g id="#7f007fff">
<path fill="#7f007f" fill-opacity="0" d=" M 1034.19 567.15 C 1039.68 565.70 1045.26 568.33 1050.80 568.53 C 1053.58 574.76 1055.17 581.48 1058.37 587.53 C 1061.36 593.33 1067.10 596.91 1070.97 602.06 C 1080.49 614.39 1095.97 622.32 1101.49 637.61 C 1104.37 647.15 1101.50 657.20 1099.51 666.60 C 1096.47 677.59 1096.86 690.08 1089.21 699.30 C 1087.27 701.54 1084.19 701.65 1081.47 701.90 C 1078.57 705.13 1076.52 710.15 1071.66 710.57 C 1068.44 710.61 1065.68 708.52 1062.86 707.23 C 1061.61 707.79 1060.38 708.37 1059.15 708.95 C 1060.13 701.14 1062.14 693.40 1062.00 685.49 C 1061.24 681.21 1058.35 677.70 1056.09 674.12 C 1048.75 679.51 1042.99 687.66 1033.37 689.00 C 1023.04 691.17 1012.67 693.16 1002.36 695.46 C 1000.61 688.87 997.05 683.00 994.80 676.61 C 993.79 672.33 996.26 668.11 995.65 663.84 C 993.74 659.03 990.06 655.09 988.37 650.18 C 987.34 647.32 986.90 644.20 985.29 641.59 C 982.74 639.33 978.84 639.88 976.17 637.84 C 973.82 635.72 972.46 632.69 970.02 630.69 C 966.29 629.46 961.80 629.06 959.35 625.59 C 957.36 623.08 957.89 618.35 961.19 617.25 C 966.00 615.66 971.15 615.49 976.17 615.19 C 980.31 614.65 985.05 615.25 988.75 612.86 C 990.75 610.37 990.54 606.64 992.98 604.44 C 997.27 601.63 1003.01 601.40 1006.95 598.12 C 1009.78 593.41 1011.31 584.00 1018.74 585.05 C 1021.64 585.15 1024.52 585.50 1027.42 585.69 C 1029.16 579.60 1027.76 570.69 1034.19 567.15 Z" />
</g>
<g id="#7fbf7fff">
<path fill="#7fbf7f" fill-opacity="0" d=" M 886.11 581.57 C 888.80 583.80 891.16 586.38 893.47 589.00 C 899.47 588.48 905.38 586.47 911.45 586.77 C 915.35 586.82 917.94 589.98 920.41 592.57 C 924.43 591.51 928.72 589.60 932.88 591.07 C 933.47 597.42 931.66 604.59 936.34 609.89 C 936.53 611.72 936.75 613.60 936.39 615.43 C 930.99 620.89 922.35 619.99 916.46 624.50 C 911.88 630.60 914.07 639.01 910.65 645.56 C 908.23 647.87 904.78 648.55 901.84 649.98 C 905.76 655.53 909.93 660.89 914.03 666.31 C 906.35 666.80 899.06 669.44 892.44 673.26 C 891.00 672.68 889.56 672.13 888.13 671.58 C 887.14 674.28 886.21 676.99 885.29 679.72 C 882.10 679.71 879.05 679.90 875.90 679.74 C 860.81 678.08 849.72 666.63 839.43 656.53 C 833.90 651.34 827.91 646.59 821.29 642.87 C 822.69 639.75 824.03 636.61 825.49 633.52 C 827.41 633.56 829.33 633.61 831.25 633.68 C 831.57 629.08 831.94 624.48 833.08 620.00 C 830.98 616.92 828.46 614.09 827.23 610.54 C 830.21 606.81 832.42 602.58 834.37 598.24 C 835.31 597.92 836.26 597.60 837.22 597.28 C 838.83 598.51 840.45 599.75 842.07 601.00 C 847.13 598.50 851.99 594.96 857.78 594.61 C 864.37 593.95 870.95 593.04 877.56 592.34 C 880.02 591.94 882.71 591.64 884.78 590.12 C 885.91 587.43 885.67 584.40 886.11 581.57 Z" />
</g>
<g id="#3f7f00ff">
<path fill="#3f7f00" fill-opacity="0" d=" M 573.59 585.46 C 576.38 584.14 579.42 583.44 582.52 583.48 C 582.61 585.32 582.71 587.16 582.79 589.01 C 580.57 589.37 578.36 589.73 576.16 590.09 C 575.27 588.56 574.41 587.01 573.59 585.46 Z" />
</g>
<g id="#007f00ff">
<path fill="#007f00" fill-opacity="0" d=" M 780.04 584.54 C 785.32 584.14 791.09 583.03 796.00 585.76 C 807.93 591.80 818.44 600.51 827.23 610.54 C 828.46 614.09 830.98 616.92 833.08 620.00 C 831.94 624.48 831.57 629.08 831.25 633.68 C 829.33 633.61 827.41 633.56 825.49 633.52 C 824.03 636.61 822.69 639.75 821.29 642.87 C 814.94 645.20 808.57 647.46 802.15 649.60 C 796.11 651.24 789.82 651.63 783.62 652.22 C 781.89 650.49 780.64 647.01 777.68 647.53 C 769.30 648.57 762.78 654.29 755.29 657.62 C 751.52 659.17 749.88 663.06 747.83 666.30 C 736.58 666.67 725.55 669.33 714.86 672.72 C 715.45 670.87 716.53 668.91 716.09 666.93 C 714.68 664.14 712.29 661.96 710.41 659.52 C 707.36 661.60 704.28 663.64 701.22 665.70 C 700.22 662.93 696.48 660.26 698.11 657.09 C 700.55 651.70 704.94 647.21 706.22 641.31 C 706.69 639.30 704.99 637.66 703.70 636.40 C 699.80 632.99 695.63 629.95 691.56 626.77 C 692.68 621.44 692.91 615.97 693.56 610.59 C 696.71 609.30 700.34 608.62 702.87 606.18 C 704.79 603.32 705.38 599.50 708.44 597.48 C 714.01 593.65 720.34 591.09 726.45 588.25 C 729.81 587.08 733.88 584.15 737.32 586.64 C 742.96 590.75 748.04 596.73 755.71 596.61 C 757.37 595.36 758.51 593.60 759.82 592.02 C 764.45 591.69 769.07 591.63 773.72 591.68 C 775.81 589.29 777.92 586.92 780.04 584.54 Z" />
</g>
<g id="#00007fff">
<path fill="#00007f" fill-opacity="0" d=" M 669.12 597.75 C 674.98 600.46 681.51 599.60 687.74 599.27 C 689.65 603.05 691.53 606.86 693.56 610.59 C 692.91 615.97 692.68 621.44 691.56 626.77 C 689.20 633.68 686.17 640.53 685.99 647.97 C 685.44 654.72 684.56 662.27 679.40 667.23 C 669.27 671.06 658.20 672.07 648.16 676.24 C 644.61 677.64 642.15 680.74 638.78 682.43 C 628.01 686.86 616.90 690.82 605.13 691.37 C 602.47 686.04 600.19 680.55 597.90 675.07 C 595.34 668.06 590.18 662.23 588.94 654.71 C 591.13 652.50 593.38 650.14 594.20 647.05 C 595.10 644.97 595.30 641.74 597.97 641.17 C 604.61 639.24 611.76 639.24 618.08 636.22 C 621.61 634.45 624.86 637.66 628.02 638.84 C 631.77 635.58 636.00 632.95 640.19 630.31 C 639.57 628.72 638.95 627.15 638.32 625.58 C 636.74 627.20 635.43 629.32 633.22 630.15 C 630.94 630.67 628.62 629.92 626.37 629.63 C 630.74 621.83 633.70 612.92 641.00 607.18 C 647.00 602.75 654.79 601.62 662.07 602.29 C 664.41 600.77 666.78 599.27 669.12 597.75 Z" />
</g>
<g id="#bf007fff">
<path fill="#bf007f" fill-opacity="0" d=" M 960.49 610.13 C 964.86 608.22 969.12 606.04 973.58 604.31 C 974.43 607.94 975.29 611.56 976.17 615.19 C 971.15 615.49 966.00 615.66 961.19 617.25 C 957.89 618.35 957.36 623.08 959.35 625.59 C 961.80 629.06 966.29 629.46 970.02 630.69 C 972.46 632.69 973.82 635.72 976.17 637.84 C 978.84 639.88 982.74 639.33 985.29 641.59 C 986.90 644.20 987.34 647.32 988.37 650.18 C 990.06 655.09 993.74 659.03 995.65 663.84 C 996.26 668.11 993.79 672.33 994.80 676.61 C 997.05 683.00 1000.61 688.87 1002.36 695.46 C 997.98 696.61 993.77 698.26 989.56 699.89 C 987.70 696.60 985.75 693.34 983.85 690.10 C 981.02 693.20 978.27 696.43 974.75 698.79 C 971.07 703.04 965.53 700.56 960.94 700.16 C 961.18 702.64 961.36 705.14 961.84 707.60 C 954.12 709.12 946.48 711.11 938.70 712.23 C 935.88 712.60 934.40 709.77 933.47 707.62 C 930.43 700.12 928.73 692.11 925.20 684.82 C 922.79 680.10 917.42 678.10 912.86 676.17 C 906.38 672.91 898.77 677.01 892.44 673.26 C 899.06 669.44 906.35 666.80 914.03 666.31 C 909.93 660.89 905.76 655.53 901.84 649.98 C 904.78 648.55 908.23 647.87 910.65 645.56 C 914.07 639.01 911.88 630.60 916.46 624.50 C 922.35 619.99 930.99 620.89 936.39 615.43 C 936.75 613.60 936.53 611.72 936.34 609.89 C 937.13 611.10 937.98 612.28 938.82 613.47 C 946.02 612.20 953.37 611.83 960.49 610.13 Z" />
</g>
<g id="#000000ff">
<path fill="#000000" fill-opacity="0" d=" M 691.56 626.77 C 695.63 629.95 699.80 632.99 703.70 636.40 C 704.99 637.66 706.69 639.30 706.22 641.31 C 704.94 647.21 700.55 651.70 698.11 657.09 C 696.48 660.26 700.22 662.93 701.22 665.70 C 704.28 663.64 707.36 661.60 710.41 659.52 C 712.29 661.96 714.68 664.14 716.09 666.93 C 716.53 668.91 715.45 670.87 714.86 672.72 C 710.59 679.08 708.08 686.33 707.84 694.04 C 705.42 694.88 703.00 695.69 700.57 696.50 C 699.57 702.55 698.89 708.88 701.30 714.72 C 702.72 717.51 700.97 720.23 699.69 722.66 C 700.51 727.42 701.36 732.18 701.95 736.99 C 698.64 738.39 695.38 739.91 692.12 741.41 C 691.66 745.59 691.37 749.78 691.10 754.00 C 686.96 750.93 682.48 748.46 678.27 745.53 C 672.65 741.45 674.47 732.12 667.67 729.22 C 662.61 727.42 658.36 732.65 653.36 732.25 C 649.44 729.91 647.62 725.22 647.05 720.87 C 646.20 712.97 639.22 706.95 631.91 704.83 C 627.56 703.44 625.51 698.81 621.68 696.63 C 616.07 696.68 610.65 698.70 605.22 699.91 C 605.22 697.06 605.17 694.21 605.13 691.37 C 616.90 690.82 628.01 686.86 638.78 682.43 C 642.15 680.74 644.61 677.64 648.16 676.24 C 658.20 672.07 669.27 671.06 679.40 667.23 C 684.56 662.27 685.44 654.72 685.99 647.97 C 686.17 640.53 689.20 633.68 691.56 626.77 Z" />
</g>
<g id="#003f7ffe">
<path fill="#003f7f" fill-opacity="0" d=" M 519.66 636.29 C 527.55 636.72 535.49 635.69 542.98 633.15 C 551.14 637.40 558.35 643.16 566.21 647.90 C 569.87 650.46 574.30 648.34 578.30 648.16 C 582.82 647.78 587.14 650.59 588.94 654.71 C 590.18 662.23 595.34 668.06 597.90 675.07 C 600.19 680.55 602.47 686.04 605.13 691.37 C 597.59 689.88 589.29 687.01 582.11 691.08 C 577.80 697.65 574.81 705.08 571.45 712.20 C 569.03 716.58 571.30 721.09 573.03 725.19 C 563.07 724.52 553.05 724.91 543.12 723.74 C 538.98 723.14 536.91 719.13 534.70 716.07 C 531.91 711.65 528.40 707.72 525.83 703.18 C 523.73 698.05 529.33 693.13 526.87 688.14 C 523.81 681.44 519.04 675.14 518.44 667.58 C 516.82 661.49 522.24 657.23 523.39 651.74 C 522.65 646.50 520.24 641.59 519.66 636.29 Z" />
</g>
<g id="#7f3f7fff">
<path fill="#7f3f7f" fill-opacity="0" d=" M 802.15 649.60 C 808.57 647.46 814.94 645.20 821.29 642.87 C 827.91 646.59 833.90 651.34 839.43 656.53 C 849.72 666.63 860.81 678.08 875.90 679.74 C 866.99 690.51 879.11 706.05 869.57 716.53 C 862.06 724.29 859.10 734.94 853.98 744.18 C 851.96 747.93 847.25 748.21 843.76 749.77 C 840.99 750.72 839.24 753.16 837.46 755.33 C 840.02 758.18 842.59 761.06 845.15 763.93 C 841.68 765.38 838.24 767.02 835.37 769.50 C 830.19 774.05 823.56 776.36 816.92 777.83 C 814.30 774.73 811.46 771.83 808.70 768.87 C 805.91 769.60 803.13 770.38 800.35 771.12 C 799.77 768.34 799.12 765.47 798.60 762.72 C 794.93 762.01 791.32 761.28 787.72 760.36 C 788.67 756.49 789.27 752.54 789.70 748.58 C 785.25 747.76 780.08 747.88 777.36 743.63 C 780.04 737.12 782.41 730.50 785.05 723.97 C 787.93 718.66 784.88 712.75 784.37 707.32 C 783.20 700.87 784.47 694.47 785.66 688.17 C 787.43 688.41 789.21 688.65 791.00 688.90 C 793.69 684.04 796.30 679.14 798.87 674.21 C 796.89 671.46 794.90 668.66 792.97 665.93 C 796.28 660.63 799.54 655.28 802.15 649.60 Z" />
</g>
<g id="#bf7f7fff">
<path fill="#bf7f7f" fill-opacity="0" d=" M 777.68 647.53 C 780.64 647.01 781.89 650.49 783.62 652.22 C 789.82 651.63 796.11 651.24 802.15 649.60 C 799.54 655.28 796.28 660.63 792.97 665.93 C 794.90 668.66 796.89 671.46 798.87 674.21 C 796.30 679.14 793.69 684.04 791.00 688.90 C 789.21 688.65 787.43 688.41 785.66 688.17 C 784.47 694.47 783.20 700.87 784.37 707.32 C 784.88 712.75 787.93 718.66 785.05 723.97 C 782.41 730.50 780.04 737.12 777.36 743.63 C 771.12 744.15 765.56 747.21 760.13 750.06 C 761.85 753.90 763.52 757.75 765.30 761.56 C 762.01 763.30 758.50 765.18 754.64 764.44 C 749.25 763.57 744.97 767.92 739.93 768.93 C 736.41 770.24 732.65 769.13 729.12 768.48 C 733.02 759.55 737.08 750.65 742.81 742.71 C 744.98 739.85 745.82 734.97 742.18 732.87 C 736.36 729.98 729.48 730.41 723.68 727.39 C 720.25 725.31 717.33 728.95 714.81 730.84 C 711.28 734.24 706.43 735.39 701.95 736.99 C 701.36 732.18 700.51 727.42 699.69 722.66 C 700.97 720.23 702.72 717.51 701.30 714.72 C 698.89 708.88 699.57 702.55 700.57 696.50 C 703.00 695.69 705.42 694.88 707.84 694.04 C 708.08 686.33 710.59 679.08 714.86 672.72 C 725.55 669.33 736.58 666.67 747.83 666.30 C 749.88 663.06 751.52 659.17 755.29 657.62 C 762.78 654.29 769.30 648.57 777.68 647.53 Z" />
</g>
<g id="#00bf00ff">
<path fill="#00bf00" fill-opacity="0" d=" M 888.13 671.58 C 889.56 672.13 891.00 672.68 892.44 673.26 C 898.77 677.01 906.38 672.91 912.86 676.17 C 917.42 678.10 922.79 680.10 925.20 684.82 C 928.73 692.11 930.43 700.12 933.47 707.62 C 934.40 709.77 935.88 712.60 938.70 712.23 C 946.48 711.11 954.12 709.12 961.84 707.60 C 964.32 713.33 963.79 719.48 961.29 725.17 C 963.65 729.46 965.93 733.99 965.70 739.07 C 966.21 745.36 963.68 751.45 964.09 757.73 C 964.93 762.99 969.38 766.59 972.34 770.69 C 975.50 774.40 976.89 779.16 978.94 783.54 C 977.22 788.20 976.47 793.41 973.35 797.42 C 968.69 799.42 963.57 797.07 958.79 798.22 C 954.52 799.75 950.89 802.62 946.85 804.63 C 942.68 806.69 938.26 808.39 933.66 809.19 C 929.14 809.79 925.95 805.30 921.68 804.82 C 916.72 805.18 911.49 807.47 906.66 805.06 C 902.76 804.14 898.71 800.40 894.66 802.55 C 888.75 805.27 882.02 808.65 875.52 805.68 C 874.50 801.42 874.31 796.32 870.28 793.71 C 858.69 785.59 846.56 778.19 835.37 769.50 C 838.24 767.02 841.68 765.38 845.15 763.93 C 842.59 761.06 840.02 758.18 837.46 755.33 C 839.24 753.16 840.99 750.72 843.76 749.77 C 847.25 748.21 851.96 747.93 853.98 744.18 C 859.10 734.94 862.06 724.29 869.57 716.53 C 879.11 706.05 866.99 690.51 875.90 679.74 C 879.05 679.90 882.10 679.71 885.29 679.72 C 886.21 676.99 887.14 674.28 888.13 671.58 M 914.17 744.21 C 912.39 743.64 911.18 746.60 913.16 747.12 C 914.94 747.77 916.11 744.70 914.17 744.21 Z" />
</g>
<g id="#bf3f00ff">
<path fill="#bf3f00" fill-opacity="0" d=" M 1033.37 689.00 C 1042.99 687.66 1048.75 679.51 1056.09 674.12 C 1058.35 677.70 1061.24 681.21 1062.00 685.49 C 1062.14 693.40 1060.13 701.14 1059.15 708.95 C 1058.12 716.18 1057.40 723.93 1053.14 730.09 C 1049.75 736.06 1050.08 743.15 1048.78 749.70 C 1047.65 757.88 1044.27 765.55 1043.23 773.75 C 1042.06 782.61 1041.10 791.49 1039.29 800.26 C 1032.51 799.09 1025.69 799.86 1019.00 801.15 C 1012.83 802.87 1010.73 795.18 1006.16 792.77 C 1002.66 789.76 998.38 792.61 994.98 794.22 C 989.62 790.67 984.31 787.07 978.94 783.54 C 976.89 779.16 975.50 774.40 972.34 770.69 C 969.38 766.59 964.93 762.99 964.09 757.73 C 963.68 751.45 966.21 745.36 965.70 739.07 C 965.93 733.99 963.65 729.46 961.29 725.17 C 963.79 719.48 964.32 713.33 961.84 707.60 C 961.36 705.14 961.18 702.64 960.94 700.16 C 965.53 700.56 971.07 703.04 974.75 698.79 C 978.27 696.43 981.02 693.20 983.85 690.10 C 985.75 693.34 987.70 696.60 989.56 699.89 C 993.77 698.26 997.98 696.61 1002.36 695.46 C 1012.67 693.16 1023.04 691.17 1033.37 689.00 Z" />
</g>
<g id="#3f0000ff">
<path fill="#3f0000" fill-opacity="0" d=" M 582.11 691.08 C 589.29 687.01 597.59 689.88 605.13 691.37 C 605.17 694.21 605.22 697.06 605.22 699.91 C 610.65 698.70 616.07 696.68 621.68 696.63 C 625.51 698.81 627.56 703.44 631.91 704.83 C 639.22 706.95 646.20 712.97 647.05 720.87 C 647.62 725.22 649.44 729.91 653.36 732.25 C 658.36 732.65 662.61 727.42 667.67 729.22 C 674.47 732.12 672.65 741.45 678.27 745.53 C 682.48 748.46 686.96 750.93 691.10 754.00 C 690.94 759.07 690.68 764.17 689.38 769.10 C 688.38 772.61 690.36 775.96 691.72 779.08 C 690.91 778.48 690.12 777.88 689.33 777.30 C 684.41 780.44 678.80 785.34 672.67 781.36 C 668.96 778.57 667.56 773.77 664.86 770.13 C 659.10 774.07 655.82 782.15 648.17 782.79 C 640.07 778.38 639.00 767.40 631.66 762.37 C 622.67 762.27 616.03 770.53 607.09 770.98 C 601.16 768.79 599.60 761.46 595.85 757.08 C 588.22 746.48 579.80 736.39 573.03 725.19 C 571.30 721.09 569.03 716.58 571.45 712.20 C 574.81 705.08 577.80 697.65 582.11 691.08 Z" />
</g>
<g id="#3f3f00ff">
<path fill="#3f3f00" fill-opacity="0" d=" M 714.81 730.84 C 717.33 728.95 720.25 725.31 723.68 727.39 C 729.48 730.41 736.36 729.98 742.18 732.87 C 745.82 734.97 744.98 739.85 742.81 742.71 C 737.08 750.65 733.02 759.55 729.12 768.48 C 732.65 769.13 736.41 770.24 739.93 768.93 C 744.97 767.92 749.25 763.57 754.64 764.44 C 758.50 765.18 762.01 763.30 765.30 761.56 C 763.52 757.75 761.85 753.90 760.13 750.06 C 765.56 747.21 771.12 744.15 777.36 743.63 C 780.08 747.88 785.25 747.76 789.70 748.58 C 789.27 752.54 788.67 756.49 787.72 760.36 C 791.32 761.28 794.93 762.01 798.60 762.72 C 799.12 765.47 799.77 768.34 800.35 771.12 C 796.63 772.08 792.95 773.19 789.25 774.21 C 789.03 785.42 788.27 796.63 787.84 807.85 C 788.07 813.55 789.48 819.16 790.53 824.77 C 785.66 827.81 781.19 832.51 774.95 832.06 C 766.37 834.98 765.44 824.32 759.56 821.31 C 755.14 820.55 751.42 823.06 747.34 824.01 C 741.99 826.00 736.78 823.47 731.65 822.24 C 728.10 821.36 724.29 819.79 722.75 816.20 C 718.52 807.28 713.53 798.45 711.88 788.60 C 706.39 788.20 700.48 788.30 695.70 785.25 C 693.96 783.49 692.81 781.26 691.72 779.08 C 690.36 775.96 688.38 772.61 689.38 769.10 C 690.68 764.17 690.94 759.07 691.10 754.00 C 691.37 749.78 691.66 745.59 692.12 741.41 C 695.38 739.91 698.64 738.39 701.95 736.99 C 706.43 735.39 711.28 734.24 714.81 730.84 Z" />
</g>
<g id="#7fbf00fe">
<path fill="#7fbf00" fill-opacity="0" d=" M 914.17 744.21 C 916.11 744.70 914.94 747.77 913.16 747.12 C 911.18 746.60 912.39 743.64 914.17 744.21 Z" />
</g>
<g id="#00bf7fff">
<path fill="#00bf7f" fill-opacity="0" d=" M 800.35 771.12 C 803.13 770.38 805.91 769.60 808.70 768.87 C 811.46 771.83 814.30 774.73 816.92 777.83 C 823.56 776.36 830.19 774.05 835.37 769.50 C 846.56 778.19 858.69 785.59 870.28 793.71 C 874.31 796.32 874.50 801.42 875.52 805.68 C 875.03 814.04 865.65 814.80 859.93 818.11 C 859.11 822.92 861.10 827.64 861.34 832.44 C 861.69 838.56 862.16 844.77 865.24 850.27 C 859.93 851.49 854.03 852.02 849.75 855.72 C 845.93 861.78 847.12 869.73 849.83 876.03 C 855.46 890.82 857.50 906.66 862.23 921.72 C 859.47 922.08 856.84 922.58 854.15 923.06 C 852.24 927.50 850.13 931.97 846.69 935.45 C 841.42 922.09 838.90 907.82 833.58 894.47 C 831.53 889.52 833.25 884.16 833.89 879.13 C 828.46 874.18 821.11 871.07 817.48 864.42 C 816.07 861.30 812.76 860.12 809.82 858.97 C 808.23 855.53 807.27 851.87 805.25 848.69 C 803.16 845.33 798.01 845.24 796.71 841.26 C 794.45 835.85 792.10 830.42 790.53 824.77 C 789.48 819.16 788.07 813.55 787.84 807.85 C 788.27 796.63 789.03 785.42 789.25 774.21 C 792.95 773.19 796.63 772.08 800.35 771.12 Z" />
</g>
<g id="#3f7f7fff">
<path fill="#3f7f7f" fill-opacity="0" d=" M 973.35 797.42 C 976.47 793.41 977.22 788.20 978.94 783.54 C 984.31 787.07 989.62 790.67 994.98 794.22 C 998.38 792.61 1002.66 789.76 1006.16 792.77 C 1010.73 795.18 1012.83 802.87 1019.00 801.15 C 1025.69 799.86 1032.51 799.09 1039.29 800.26 C 1036.51 810.97 1036.04 822.11 1033.25 832.83 C 1029.34 833.73 1025.43 834.52 1021.59 835.67 C 1025.38 836.13 1029.19 836.66 1032.99 837.11 C 1031.67 849.72 1030.04 862.42 1026.70 874.66 C 1025.26 881.93 1017.94 886.98 1010.56 885.47 C 1009.89 901.06 1006.25 916.31 1005.19 931.86 C 1002.62 933.16 999.11 933.76 997.92 936.73 C 996.21 939.65 995.89 943.77 992.63 945.50 C 987.78 948.23 982.39 950.45 979.22 955.29 C 975.48 955.40 972.06 954.08 969.28 951.72 C 965.31 948.33 959.84 948.02 955.43 945.49 C 952.61 942.66 951.96 938.27 949.81 935.03 C 948.32 931.57 944.33 930.69 941.19 929.42 L 941.15 928.73 C 939.58 906.88 940.47 884.72 935.24 863.28 C 939.26 861.15 943.69 859.28 946.61 855.62 C 944.54 851.91 940.38 849.05 941.63 844.07 C 941.34 836.34 940.66 827.80 945.01 821.00 C 947.87 816.05 946.46 810.09 946.85 804.63 C 950.89 802.62 954.52 799.75 958.79 798.22 C 963.57 797.07 968.69 799.42 973.35 797.42 Z" />
</g>
<g id="#7f3f00ff">
<path fill="#7f3f00" fill-opacity="0" d=" M 894.66 802.55 C 898.71 800.40 902.76 804.14 906.66 805.06 C 911.49 807.47 916.72 805.18 921.68 804.82 C 925.95 805.30 929.14 809.79 933.66 809.19 C 938.26 808.39 942.68 806.69 946.85 804.63 C 946.46 810.09 947.87 816.05 945.01 821.00 C 940.66 827.80 941.34 836.34 941.63 844.07 C 940.38 849.05 944.54 851.91 946.61 855.62 C 943.69 859.28 939.26 861.15 935.24 863.28 C 940.47 884.72 939.58 906.88 941.15 928.73 C 930.97 924.24 919.77 923.82 908.94 922.06 C 903.18 921.24 897.46 922.74 891.83 923.69 C 887.69 917.31 881.54 912.34 873.81 911.54 C 874.86 918.23 876.96 924.90 876.28 931.74 C 871.40 928.80 865.38 926.66 862.23 921.72 C 857.50 906.66 855.46 890.82 849.83 876.03 C 847.12 869.73 845.93 861.78 849.75 855.72 C 854.03 852.02 859.93 851.49 865.24 850.27 C 862.16 844.77 861.69 838.56 861.34 832.44 C 861.10 827.64 859.11 822.92 859.93 818.11 C 865.65 814.80 875.03 814.04 875.52 805.68 C 882.02 808.65 888.75 805.27 894.66 802.55 Z" />
</g>
</svg>
