<?xml version="1.0" encoding="UTF-8" ?>
<!DOCTYPE svg PUBLIC "-//W3C//DTD SVG 1.1//EN" "http://www.w3.org/Graphics/SVG/1.1/DTD/svg11.dtd">
<svg width="1920pt" height="1080pt" viewBox="0 0 1920 1080" version="1.1" xmlns="http://www.w3.org/2000/svg">
<g id="#1fef9fff">
<path fill="#1fef9f" fill-opacity="0" d=" M 1200.86 218.72 C 1203.42 217.92 1205.47 220.25 1207.37 221.61 C 1212.70 226.36 1218.52 230.52 1224.27 234.76 C 1229.18 238.47 1230.04 244.96 1233.10 249.94 C 1236.86 257.16 1242.69 262.96 1248.54 268.50 C 1251.77 271.33 1251.36 276.41 1254.69 279.18 C 1256.73 281.17 1259.45 282.61 1260.71 285.30 C 1262.06 287.95 1261.30 290.97 1260.94 293.76 C 1255.77 295.58 1250.78 299.34 1248.55 304.46 C 1247.33 310.62 1252.07 315.77 1254.27 321.13 C 1246.69 320.48 1239.98 316.73 1233.62 312.84 C 1226.98 317.61 1220.88 323.31 1213.16 326.33 C 1207.51 328.43 1205.41 334.47 1203.16 339.49 C 1197.01 337.24 1190.25 335.32 1185.98 330.04 C 1180.26 323.64 1175.02 315.01 1165.76 313.69 C 1160.42 313.06 1157.74 318.44 1154.85 321.89 C 1152.80 324.88 1147.93 323.61 1146.50 320.68 C 1143.91 315.42 1143.39 309.48 1142.15 303.83 C 1141.31 296.45 1143.94 289.37 1144.60 282.10 C 1145.07 277.77 1145.38 273.24 1147.47 269.33 C 1148.78 266.42 1150.98 263.81 1151.53 260.60 C 1152.71 253.00 1154.30 245.42 1154.55 237.72 C 1161.05 235.94 1167.85 235.77 1174.50 234.81 C 1176.89 228.79 1180.95 223.68 1186.75 220.72 C 1187.58 222.27 1189.22 225.38 1190.04 226.93 C 1193.50 224.12 1196.32 219.90 1200.86 218.72 Z" />
</g>
<g id="#df6f1fff">
<path fill="#df6f1f" fill-opacity="0" d=" M 1004.22 251.32 C 1006.57 250.19 1009.38 250.36 1011.97 249.88 C 1013.40 252.25 1014.97 255.29 1018.00 255.81 C 1021.62 256.15 1025.31 255.84 1028.96 255.87 C 1024.26 268.71 1028.55 282.15 1029.13 295.27 C 1029.27 298.62 1025.04 299.42 1023.07 301.20 C 1017.78 304.12 1014.28 309.23 1010.33 313.63 C 1002.70 314.33 996.20 318.70 992.17 325.09 C 986.54 323.15 981.32 319.62 975.34 318.94 C 968.57 320.81 963.23 325.84 957.22 329.29 C 957.70 336.29 958.55 343.30 958.18 350.33 C 950.23 349.99 942.60 347.69 935.27 344.74 C 927.05 341.80 916.83 345.84 910.38 338.59 C 915.91 331.89 922.30 325.02 923.55 316.05 C 924.12 311.81 921.33 308.01 918.04 305.67 C 917.68 300.92 916.26 296.11 916.92 291.35 C 921.68 284.38 928.23 279.00 934.61 273.60 C 939.61 269.70 938.11 262.40 938.52 256.88 C 943.22 256.24 948.61 252.75 953.21 255.74 C 955.71 257.25 958.86 258.47 960.15 261.31 C 961.51 266.97 959.61 273.00 961.55 278.57 C 963.87 283.03 969.02 284.68 973.11 287.08 C 974.08 279.35 973.65 271.02 976.75 263.74 C 981.68 258.56 989.72 263.54 995.21 265.00 C 998.22 260.44 1000.63 255.48 1004.22 251.32 Z" />
</g>
<g id="#9fef9fff">
<path fill="#9fef9f" fill-opacity="0" d=" M 731.77 251.92 C 743.42 260.57 754.70 271.66 769.76 273.53 C 774.77 274.11 779.79 272.85 784.79 273.38 C 790.10 275.37 790.37 283.55 796.28 284.54 C 800.56 284.72 804.89 282.96 807.98 279.98 C 812.16 277.15 812.58 271.51 816.35 268.39 C 821.35 266.73 826.73 265.01 832.09 265.94 C 838.17 267.55 842.27 272.91 847.29 276.35 C 855.59 274.96 859.07 266.37 865.86 262.40 C 870.00 271.55 881.44 274.10 885.22 283.44 C 886.63 292.85 885.53 302.53 887.58 311.90 C 888.49 318.49 887.26 325.20 884.19 331.09 C 879.48 332.74 874.97 335.02 870.09 336.13 C 865.61 336.57 861.63 333.85 857.38 332.89 C 851.68 331.15 848.07 339.99 842.43 337.49 C 838.34 335.89 834.84 332.92 830.49 331.95 C 826.06 331.14 821.67 333.09 817.26 332.88 C 813.66 332.14 810.58 329.51 806.81 329.51 C 798.66 329.72 790.97 332.66 782.95 333.67 C 785.84 339.09 788.73 344.52 791.50 350.01 C 781.55 353.57 772.65 346.93 763.55 343.97 C 763.02 350.43 765.41 358.58 760.37 363.78 C 753.51 366.72 745.67 367.12 739.16 370.93 C 737.98 362.40 735.36 354.17 733.76 345.73 C 730.51 329.87 727.32 314.02 724.33 298.12 C 728.48 295.91 732.77 293.96 736.94 291.76 C 735.40 281.72 733.02 271.84 731.35 261.82 C 730.75 258.53 731.38 255.19 731.77 251.92 Z" />
</g>
<g id="#dfef1fff">
<path fill="#dfef1f" fill-opacity="0" d=" M 1028.96 255.87 C 1029.70 252.75 1033.01 253.75 1035.70 254.21 C 1040.21 257.66 1038.12 264.18 1038.64 269.00 C 1045.39 270.80 1052.55 271.15 1059.06 273.76 C 1064.93 277.51 1069.56 282.89 1074.96 287.26 C 1073.75 307.30 1071.62 327.27 1069.53 347.23 C 1068.19 368.44 1065.79 389.56 1063.46 410.68 C 1062.50 416.00 1065.61 420.32 1068.86 424.06 C 1067.43 425.68 1066.00 427.29 1064.60 428.92 C 1059.72 428.47 1054.88 427.87 1050.03 427.22 C 1048.86 431.33 1047.76 435.46 1046.67 439.59 C 1044.25 440.01 1041.85 440.46 1039.47 440.92 C 1033.44 434.71 1026.08 429.98 1019.93 423.89 C 1016.05 426.40 1012.25 429.02 1008.43 431.60 C 1008.07 431.82 1007.37 432.26 1007.02 432.48 C 1003.87 431.78 1000.10 431.35 998.09 428.51 C 995.78 425.31 994.21 421.51 991.03 419.02 C 985.62 414.60 979.16 410.47 977.27 403.24 C 981.70 400.99 986.01 398.46 989.88 395.32 C 983.89 391.22 977.07 388.21 971.76 383.21 C 966.74 374.82 972.01 362.13 963.64 355.46 C 961.85 353.70 960.01 352.02 958.18 350.33 C 958.55 343.30 957.70 336.29 957.22 329.29 C 963.23 325.84 968.57 320.81 975.34 318.94 C 981.32 319.62 986.54 323.15 992.17 325.09 C 996.20 318.70 1002.70 314.33 1010.33 313.63 C 1014.28 309.23 1017.78 304.12 1023.07 301.20 C 1025.04 299.42 1029.27 298.62 1029.13 295.27 C 1028.55 282.15 1024.26 268.71 1028.96 255.87 M 1052.46 354.48 C 1049.42 355.99 1046.57 357.79 1043.77 359.67 C 1034.19 365.19 1029.42 375.86 1024.00 384.94 C 1027.34 389.03 1032.21 391.79 1037.11 393.55 C 1042.47 393.13 1047.25 390.26 1052.15 388.30 C 1054.16 387.10 1057.07 386.56 1058.22 384.28 C 1060.59 376.18 1062.59 366.86 1058.05 359.05 C 1056.87 357.07 1055.41 352.68 1052.46 354.48 Z" />
</g>
<g id="#5faf9fff">
<path fill="#5faf9f" fill-opacity="0" d=" M 1280.67 293.72 C 1284.06 293.45 1288.86 291.02 1291.75 294.18 C 1297.21 299.59 1302.32 306.53 1310.19 308.34 C 1319.62 308.05 1328.85 305.63 1338.31 305.35 C 1341.44 322.56 1343.71 340.81 1338.77 357.93 C 1336.30 367.41 1327.48 372.47 1321.26 379.27 C 1314.44 387.00 1302.80 391.41 1301.12 402.79 C 1309.96 402.49 1319.92 399.37 1327.58 405.47 C 1331.90 410.52 1332.79 417.51 1335.10 423.57 C 1337.65 430.42 1341.45 436.68 1344.91 443.09 C 1348.98 450.69 1342.84 458.53 1340.71 465.82 C 1344.94 469.44 1349.15 473.12 1353.30 476.87 C 1345.80 491.38 1341.82 507.37 1335.22 522.26 C 1332.62 525.62 1331.19 530.99 1326.71 532.40 C 1322.55 532.66 1318.35 531.46 1314.41 530.42 C 1308.49 528.38 1304.27 520.85 1297.42 522.65 C 1291.76 525.80 1286.87 530.27 1280.82 532.78 C 1275.28 535.10 1270.23 538.49 1264.57 540.50 C 1260.98 541.79 1258.35 537.92 1255.70 536.31 C 1250.49 531.74 1244.26 528.32 1237.52 526.66 C 1231.88 525.13 1225.44 524.24 1220.06 527.12 C 1215.63 528.99 1211.19 531.94 1206.21 531.54 C 1200.81 529.95 1195.87 526.87 1190.17 526.32 C 1188.49 536.47 1187.24 548.10 1178.70 555.02 C 1187.23 518.78 1195.64 482.52 1203.79 446.20 C 1205.64 440.20 1200.44 435.26 1196.40 431.75 C 1192.16 429.82 1187.34 430.45 1182.83 429.90 C 1181.01 420.77 1174.23 413.97 1169.82 406.08 C 1168.23 403.44 1166.02 400.53 1166.62 397.24 C 1167.41 393.10 1170.40 389.91 1172.68 386.52 C 1170.64 383.20 1167.03 379.39 1169.11 375.26 C 1171.55 369.90 1176.71 365.76 1182.25 363.98 C 1191.60 364.20 1202.74 369.87 1211.04 363.03 C 1215.59 357.71 1216.90 350.51 1219.33 344.10 C 1221.73 344.17 1226.54 344.30 1228.94 344.36 C 1231.26 349.13 1234.36 353.44 1238.06 357.25 C 1245.13 350.82 1253.24 344.38 1255.76 334.68 C 1257.29 330.14 1256.40 325.27 1254.27 321.13 C 1252.07 315.77 1247.33 310.62 1248.55 304.46 C 1250.78 299.34 1255.77 295.58 1260.94 293.76 C 1267.47 294.10 1274.19 295.33 1280.67 293.72 M 1277.17 381.21 C 1274.04 382.59 1274.16 385.62 1275.37 388.34 C 1277.57 387.36 1279.77 386.36 1281.98 385.36 C 1280.46 383.86 1278.97 382.33 1277.17 381.21 Z" />
</g>
<g id="#df2f9fff">
<path fill="#df2f9f" fill-opacity="0" d=" M 893.57 299.19 C 900.65 298.88 904.04 305.84 910.03 308.05 C 912.95 309.29 915.64 307.02 918.04 305.67 C 921.33 308.01 924.12 311.81 923.55 316.05 C 922.30 325.02 915.91 331.89 910.38 338.59 C 916.83 345.84 927.05 341.80 935.27 344.74 C 942.60 347.69 950.23 349.99 958.18 350.33 C 960.01 352.02 961.85 353.70 963.64 355.46 C 972.01 362.13 966.74 374.82 971.76 383.21 C 977.07 388.21 983.89 391.22 989.88 395.32 C 986.01 398.46 981.70 400.99 977.27 403.24 C 979.16 410.47 985.62 414.60 991.03 419.02 C 994.21 421.51 995.78 425.31 998.09 428.51 C 1000.10 431.35 1003.87 431.78 1007.02 432.48 C 1001.61 435.79 997.81 440.98 993.47 445.47 C 986.52 452.59 978.48 458.49 970.98 464.99 C 964.10 470.95 962.38 480.64 955.97 486.97 C 945.39 495.84 931.95 500.02 919.62 505.78 C 914.36 500.51 908.33 496.14 902.20 491.97 C 900.72 483.18 902.24 474.35 901.83 465.54 C 897.64 455.35 889.03 447.98 883.00 438.98 C 879.83 434.51 882.53 428.34 879.00 424.07 C 876.22 420.62 873.02 417.57 869.86 414.48 C 873.63 412.50 878.25 411.43 881.04 408.03 C 883.62 401.69 884.82 394.83 887.81 388.62 C 890.93 387.67 894.02 386.62 897.13 385.65 C 895.62 376.46 892.23 367.12 894.40 357.76 C 894.99 353.34 896.86 348.15 893.84 344.22 C 890.52 339.92 887.18 335.63 884.19 331.09 C 887.26 325.20 888.49 318.49 887.58 311.90 C 891.99 309.11 892.45 303.77 893.57 299.19 Z" />
</g>
<g id="#5f2f1fff">
<path fill="#5f2f1f" fill-opacity="0" d=" M 1142.15 303.83 C 1143.39 309.48 1143.91 315.42 1146.50 320.68 C 1147.93 323.61 1152.80 324.88 1154.85 321.89 C 1157.74 318.44 1160.42 313.06 1165.76 313.69 C 1175.02 315.01 1180.26 323.64 1185.98 330.04 C 1190.25 335.32 1197.01 337.24 1203.16 339.49 C 1205.41 334.47 1207.51 328.43 1213.16 326.33 C 1220.88 323.31 1226.98 317.61 1233.62 312.84 C 1239.98 316.73 1246.69 320.48 1254.27 321.13 C 1256.40 325.27 1257.29 330.14 1255.76 334.68 C 1253.24 344.38 1245.13 350.82 1238.06 357.25 C 1234.36 353.44 1231.26 349.13 1228.94 344.36 C 1226.54 344.30 1221.73 344.17 1219.33 344.10 C 1216.90 350.51 1215.59 357.71 1211.04 363.03 C 1202.74 369.87 1191.60 364.20 1182.25 363.98 C 1176.71 365.76 1171.55 369.90 1169.11 375.26 C 1167.03 379.39 1170.64 383.20 1172.68 386.52 C 1170.40 389.91 1167.41 393.10 1166.62 397.24 C 1166.02 400.53 1168.23 403.44 1169.82 406.08 C 1174.23 413.97 1181.01 420.77 1182.83 429.90 C 1187.34 430.45 1192.16 429.82 1196.40 431.75 C 1200.44 435.26 1205.64 440.20 1203.79 446.20 C 1195.64 482.52 1187.23 518.78 1178.70 555.02 C 1173.54 575.65 1168.91 596.42 1164.03 617.10 C 1161.95 620.71 1157.92 622.76 1154.86 625.51 C 1141.09 613.59 1136.56 594.38 1137.26 576.82 C 1139.40 563.17 1142.53 549.71 1145.10 536.14 C 1147.43 524.71 1148.90 513.11 1151.67 501.77 C 1152.44 497.92 1153.66 493.41 1151.01 489.98 C 1144.94 480.58 1136.16 473.51 1128.52 465.47 C 1119.62 456.02 1109.60 447.75 1100.58 438.41 C 1094.13 432.03 1086.95 424.14 1076.90 425.57 C 1078.27 407.07 1080.73 388.67 1082.25 370.17 C 1083.24 363.70 1083.78 356.46 1088.42 351.42 C 1094.22 344.89 1101.31 339.65 1108.22 334.35 C 1115.76 335.60 1123.69 334.71 1131.02 337.20 C 1131.79 330.41 1132.25 323.55 1133.98 316.92 C 1135.47 311.91 1138.83 307.76 1142.15 303.83 Z" />
</g>
<g id="#1f6f1fff">
<path fill="#1f6f1f" fill-opacity="0" d=" M 1338.31 305.35 C 1341.53 306.63 1344.86 308.10 1347.03 310.95 C 1354.49 320.45 1360.69 331.14 1370.13 338.92 C 1375.87 343.86 1377.85 351.72 1375.26 358.78 C 1372.39 367.56 1381.14 373.25 1385.47 379.43 C 1382.17 386.42 1379.32 393.61 1376.63 400.84 C 1375.00 404.78 1377.51 408.81 1377.96 412.75 C 1379.24 418.33 1377.06 423.94 1375.15 429.12 C 1370.51 439.98 1366.67 451.15 1362.22 462.08 C 1360.08 467.63 1358.46 473.46 1355.05 478.41 C 1354.61 478.03 1353.74 477.25 1353.30 476.87 C 1349.15 473.12 1344.94 469.44 1340.71 465.82 C 1342.84 458.53 1348.98 450.69 1344.91 443.09 C 1341.45 436.68 1337.65 430.42 1335.10 423.57 C 1332.79 417.51 1331.90 410.52 1327.58 405.47 C 1319.92 399.37 1309.96 402.49 1301.12 402.79 C 1302.80 391.41 1314.44 387.00 1321.26 379.27 C 1327.48 372.47 1336.30 367.41 1338.77 357.93 C 1343.71 340.81 1341.44 322.56 1338.31 305.35 Z" />
</g>
<g id="#dfaf1fff">
<path fill="#dfaf1f" fill-opacity="0" d=" M 782.95 333.67 C 790.97 332.66 798.66 329.72 806.81 329.51 C 810.58 329.51 813.66 332.14 817.26 332.88 C 821.67 333.09 826.06 331.14 830.49 331.95 C 834.84 332.92 838.34 335.89 842.43 337.49 C 848.07 339.99 851.68 331.15 857.38 332.89 C 861.63 333.85 865.61 336.57 870.09 336.13 C 874.97 335.02 879.48 332.74 884.19 331.09 C 887.18 335.63 890.52 339.92 893.84 344.22 C 896.86 348.15 894.99 353.34 894.40 357.76 C 892.23 367.12 895.62 376.46 897.13 385.65 C 894.02 386.62 890.93 387.67 887.81 388.62 C 880.30 390.42 872.94 392.76 865.77 395.63 C 863.15 392.76 861.70 388.58 858.18 386.67 C 852.74 384.88 847.27 388.18 842.66 390.66 C 833.43 396.45 824.29 402.38 814.93 407.95 C 808.71 411.80 801.37 413.76 794.12 414.12 C 787.73 409.29 787.16 400.34 781.10 395.09 C 778.50 404.26 777.22 413.78 773.91 422.75 C 770.81 430.56 769.94 439.84 763.69 445.99 C 757.16 444.30 750.48 442.68 743.71 442.64 C 737.54 443.35 731.93 446.50 725.72 447.10 C 723.67 434.62 721.77 421.74 714.28 411.14 C 716.07 406.14 720.23 400.15 717.06 394.97 C 715.36 392.11 713.63 389.33 711.87 386.55 C 722.49 384.50 731.13 377.78 739.16 370.93 C 745.67 367.12 753.51 366.72 760.37 363.78 C 765.41 358.58 763.02 350.43 763.55 343.97 C 772.65 346.93 781.55 353.57 791.50 350.01 C 788.73 344.52 785.84 339.09 782.95 333.67 Z" />
</g>
<g id="#5fef1fff">
<path fill="#5fef1f" fill-opacity="0" d=" M 1052.46 354.48 C 1055.41 352.68 1056.87 357.07 1058.05 359.05 C 1062.59 366.86 1060.59 376.18 1058.22 384.28 C 1057.07 386.56 1054.16 387.10 1052.15 388.30 C 1047.25 390.26 1042.47 393.13 1037.11 393.55 C 1032.21 391.79 1027.34 389.03 1024.00 384.94 C 1029.42 375.86 1034.19 365.19 1043.77 359.67 C 1046.57 357.79 1049.42 355.99 1052.46 354.48 Z" />
</g>
<g id="#df2f1fff">
<path fill="#df2f1f" fill-opacity="0" d=" M 1277.17 381.21 C 1278.97 382.33 1280.46 383.86 1281.98 385.36 C 1279.77 386.36 1277.57 387.36 1275.37 388.34 C 1274.16 385.62 1274.04 382.59 1277.17 381.21 Z" />
</g>
<g id="#5f6f9fff">
<path fill="#5f6f9f" fill-opacity="0" d=" M 842.66 390.66 C 847.27 388.18 852.74 384.88 858.18 386.67 C 861.70 388.58 863.15 392.76 865.77 395.63 C 872.94 392.76 880.30 390.42 887.81 388.62 C 884.82 394.83 883.62 401.69 881.04 408.03 C 878.25 411.43 873.63 412.50 869.86 414.48 C 873.02 417.57 876.22 420.62 879.00 424.07 C 882.53 428.34 879.83 434.51 883.00 438.98 C 889.03 447.98 897.64 455.35 901.83 465.54 C 902.24 474.35 900.72 483.18 902.20 491.97 C 901.32 495.76 898.96 499.94 894.73 500.48 C 889.69 500.68 885.17 497.69 881.62 494.41 C 874.16 487.74 866.45 481.18 857.57 476.49 C 853.60 475.08 849.28 476.38 845.34 477.27 C 835.00 479.49 826.35 486.20 816.05 488.52 C 806.45 490.59 797.67 495.18 788.85 499.31 C 785.68 497.01 782.27 495.02 779.07 492.80 C 773.46 485.77 773.49 476.13 769.58 468.22 C 764.82 468.34 760.06 468.55 755.31 468.86 C 756.68 462.88 755.03 455.46 759.53 450.59 C 760.84 448.98 762.29 447.50 763.69 445.99 C 769.94 439.84 770.81 430.56 773.91 422.75 C 777.22 413.78 778.50 404.26 781.10 395.09 C 787.16 400.34 787.73 409.29 794.12 414.12 C 801.37 413.76 808.71 411.80 814.93 407.95 C 824.29 402.38 833.43 396.45 842.66 390.66 Z" />
</g>
<g id="#5faf1ffe">
<path fill="#5faf1f" fill-opacity="0" d=" M 703.43 393.39 C 706.35 391.25 709.04 388.81 711.87 386.55 C 713.63 389.33 715.36 392.11 717.06 394.97 C 720.23 400.15 716.07 406.14 714.28 411.14 C 721.77 421.74 723.67 434.62 725.72 447.10 C 731.93 446.50 737.54 443.35 743.71 442.64 C 750.48 442.68 757.16 444.30 763.69 445.99 C 762.29 447.50 760.84 448.98 759.53 450.59 C 755.03 455.46 756.68 462.88 755.31 468.86 C 760.06 468.55 764.82 468.34 769.58 468.22 C 773.49 476.13 773.46 485.77 779.07 492.80 C 754.44 508.81 729.86 524.92 704.80 540.26 C 707.02 548.77 710.48 557.06 710.89 565.94 C 710.60 570.05 709.37 574.04 708.91 578.15 C 702.60 567.74 695.72 557.62 687.19 548.91 C 679.46 537.38 678.45 522.90 673.31 510.27 C 667.08 508.74 662.31 504.43 657.53 500.43 C 653.27 496.64 646.94 498.68 641.99 499.05 C 635.14 500.08 628.37 508.21 621.75 502.29 C 618.69 496.36 617.53 489.67 615.09 483.48 C 611.93 473.14 606.19 463.41 605.52 452.49 C 610.33 443.90 619.01 438.46 623.94 429.94 C 628.54 423.38 630.92 414.65 638.23 410.35 C 646.51 406.83 654.97 402.26 664.25 402.50 C 673.56 402.55 682.22 398.65 691.31 397.27 C 695.44 396.39 699.89 395.92 703.43 393.39 Z" />
</g>
<g id="#1f6f9fff">
<path fill="#1f6f9f" fill-opacity="0" d=" M 1068.86 424.06 C 1071.46 424.88 1074.15 425.47 1076.90 425.57 C 1086.95 424.14 1094.13 432.03 1100.58 438.41 C 1109.60 447.75 1119.62 456.02 1128.52 465.47 C 1136.16 473.51 1144.94 480.58 1151.01 489.98 C 1153.66 493.41 1152.44 497.92 1151.67 501.77 C 1148.90 513.11 1147.43 524.71 1145.10 536.14 C 1142.53 549.71 1139.40 563.17 1137.26 576.82 C 1125.10 572.86 1112.61 569.49 1101.60 562.76 C 1102.85 553.79 1105.16 544.77 1104.19 535.64 C 1103.92 533.46 1103.15 530.88 1100.89 530.03 C 1096.57 528.17 1091.82 527.74 1087.28 526.73 C 1089.16 510.75 1089.98 493.50 1081.97 478.94 C 1077.96 472.13 1071.22 467.19 1063.77 464.74 C 1058.05 462.91 1052.48 460.10 1048.15 455.90 C 1044.36 451.48 1042.60 445.77 1039.47 440.92 C 1041.85 440.46 1044.25 440.01 1046.67 439.59 C 1047.76 435.46 1048.86 431.33 1050.03 427.22 C 1054.88 427.87 1059.72 428.47 1064.60 428.92 C 1066.00 427.29 1067.43 425.68 1068.86 424.06 Z" />
</g>
<g id="#5f6f1fff">
<path fill="#5f6f1f" fill-opacity="0" d=" M 1008.43 431.60 C 1012.25 429.02 1016.05 426.40 1019.93 423.89 C 1026.08 429.98 1033.44 434.71 1039.47 440.92 C 1042.60 445.77 1044.36 451.48 1048.15 455.90 C 1052.48 460.10 1058.05 462.91 1063.77 464.74 C 1071.22 467.19 1077.96 472.13 1081.97 478.94 C 1089.98 493.50 1089.16 510.75 1087.28 526.73 C 1091.82 527.74 1096.57 528.17 1100.89 530.03 C 1103.15 530.88 1103.92 533.46 1104.19 535.64 C 1105.16 544.77 1102.85 553.79 1101.60 562.76 C 1100.32 569.60 1099.44 576.51 1099.11 583.47 C 1095.89 584.82 1093.16 588.34 1089.36 587.68 C 1082.16 586.52 1075.23 584.19 1068.05 582.89 C 1066.81 593.84 1065.74 604.82 1064.38 615.76 C 1063.96 622.97 1062.05 630.06 1058.57 636.39 C 1057.66 638.55 1055.96 640.81 1053.31 640.22 C 1042.89 637.60 1033.53 631.54 1022.97 629.47 C 1014.57 630.54 1006.77 634.75 999.63 639.13 C 999.51 638.96 999.27 638.62 999.14 638.45 C 1000.08 626.16 1000.99 613.85 1000.21 601.51 C 999.01 593.45 1003.06 585.73 1001.27 577.69 C 998.73 563.98 1000.35 549.78 995.95 536.36 C 990.23 537.17 984.54 537.96 979.02 539.67 C 979.80 526.01 978.78 512.19 980.77 498.66 C 986.62 492.29 997.58 491.74 1001.36 483.32 C 1005.46 474.58 1009.43 465.66 1011.77 456.28 C 1012.40 447.94 1009.87 439.75 1008.43 431.60 Z" />
</g>
<g id="#5f2f9fff">
<path fill="#5f2f9f" fill-opacity="0" d=" M 1007.02 432.48 C 1007.37 432.26 1008.07 431.82 1008.43 431.60 C 1009.87 439.75 1012.40 447.94 1011.77 456.28 C 1009.43 465.66 1005.46 474.58 1001.36 483.32 C 997.58 491.74 986.62 492.29 980.77 498.66 C 978.78 512.19 979.80 526.01 979.02 539.67 C 984.54 537.96 990.23 537.17 995.95 536.36 C 1000.35 549.78 998.73 563.98 1001.27 577.69 C 1003.06 585.73 999.01 593.45 1000.21 601.51 C 1000.99 613.85 1000.08 626.16 999.14 638.45 C 994.90 632.85 991.56 626.62 988.59 620.26 C 980.91 626.29 972.70 632.15 962.85 633.85 C 947.54 636.03 932.03 634.25 916.90 631.62 C 910.17 630.33 903.17 629.77 896.43 631.31 C 889.69 632.85 883.17 635.20 876.43 636.73 C 869.68 638.85 863.80 633.16 858.24 630.16 C 859.25 612.44 872.52 598.80 883.25 585.88 C 877.77 582.74 872.25 579.72 866.59 576.93 C 871.83 572.24 878.95 571.10 885.00 567.88 C 887.67 566.65 888.15 563.46 888.99 560.96 C 891.13 553.43 893.82 544.80 900.57 540.20 C 906.36 538.68 912.70 540.61 918.35 538.16 C 924.53 535.40 930.67 532.52 937.13 530.46 C 936.29 526.76 936.45 522.43 933.24 519.83 C 928.70 515.15 924.05 510.57 919.62 505.78 C 931.95 500.02 945.39 495.84 955.97 486.97 C 962.38 480.64 964.10 470.95 970.98 464.99 C 978.48 458.49 986.52 452.59 993.47 445.47 C 997.81 440.98 1001.61 435.79 1007.02 432.48 Z" />
</g>
<g id="#1faf9fff">
<path fill="#1faf9f" fill-opacity="0" d=" M 845.34 477.27 C 849.28 476.38 853.60 475.08 857.57 476.49 C 866.45 481.18 874.16 487.74 881.62 494.41 C 885.17 497.69 889.69 500.68 894.73 500.48 C 898.96 499.94 901.32 495.76 902.20 491.97 C 908.33 496.14 914.36 500.51 919.62 505.78 C 924.05 510.57 928.70 515.15 933.24 519.83 C 936.45 522.43 936.29 526.76 937.13 530.46 C 930.67 532.52 924.53 535.40 918.35 538.16 C 912.70 540.61 906.36 538.68 900.57 540.20 C 893.82 544.80 891.13 553.43 888.99 560.96 C 888.15 563.46 887.67 566.65 885.00 567.88 C 878.95 571.10 871.83 572.24 866.59 576.93 C 872.25 579.72 877.77 582.74 883.25 585.88 C 872.52 598.80 859.25 612.44 858.24 630.16 C 856.89 630.78 855.53 631.40 854.19 632.03 C 850.07 629.51 845.97 627.04 841.79 624.66 C 837.63 626.71 833.20 631.02 828.36 628.71 C 820.05 625.51 812.39 620.69 803.84 618.09 C 797.39 615.93 790.38 620.64 787.87 626.51 C 785.76 634.92 789.95 643.16 789.87 651.57 C 789.41 655.25 786.86 658.23 785.26 661.48 C 782.10 659.38 779.22 656.82 777.39 653.46 C 774.87 648.61 768.27 649.00 764.68 645.46 C 763.03 642.18 762.41 638.52 761.60 634.97 C 759.55 624.01 755.50 613.32 755.36 602.07 C 756.67 596.92 761.22 593.17 762.47 587.98 C 761.39 583.37 757.68 579.80 756.97 575.03 C 755.96 568.27 750.62 563.36 746.08 558.67 C 746.39 557.48 746.71 556.30 747.04 555.13 C 752.81 553.67 758.58 552.20 764.27 550.43 C 766.78 549.63 769.44 548.53 770.90 546.19 C 773.45 541.94 774.12 536.49 778.11 533.18 C 786.03 526.20 795.51 517.79 794.43 506.08 C 793.19 503.43 790.86 501.39 788.85 499.31 C 797.67 495.18 806.45 490.59 816.05 488.52 C 826.35 486.20 835.00 479.49 845.34 477.27 M 820.87 549.67 C 820.58 551.25 820.27 552.82 819.99 554.41 C 821.47 553.40 822.95 552.37 824.41 551.31 C 823.22 550.76 822.04 550.21 820.87 549.67 Z" />
</g>
<g id="#9faf9fff">
<path fill="#9faf9f" fill-opacity="0" d=" M 704.80 540.26 C 729.86 524.92 754.44 508.81 779.07 492.80 C 782.27 495.02 785.68 497.01 788.85 499.31 C 790.86 501.39 793.19 503.43 794.43 506.08 C 795.51 517.79 786.03 526.20 778.11 533.18 C 774.12 536.49 773.45 541.94 770.90 546.19 C 769.44 548.53 766.78 549.63 764.27 550.43 C 758.58 552.20 752.81 553.67 747.04 555.13 C 746.71 556.30 746.39 557.48 746.08 558.67 C 750.62 563.36 755.96 568.27 756.97 575.03 C 757.68 579.80 761.39 583.37 762.47 587.98 C 761.22 593.17 756.67 596.92 755.36 602.07 C 755.50 613.32 759.55 624.01 761.60 634.97 C 751.79 630.77 743.75 640.93 733.99 639.72 C 728.62 639.86 724.41 635.50 721.73 631.35 C 717.53 619.06 714.64 606.37 710.96 593.93 C 709.41 588.85 708.12 583.47 708.91 578.15 C 709.37 574.04 710.60 570.05 710.89 565.94 C 710.48 557.06 707.02 548.77 704.80 540.26 Z" />
</g>
<g id="#9f2f9fff">
<path fill="#9f2f9f" fill-opacity="0" d=" M 820.87 549.67 C 822.04 550.21 823.22 550.76 824.41 551.31 C 822.95 552.37 821.47 553.40 819.99 554.41 C 820.27 552.82 820.58 551.25 820.87 549.67 Z" />
</g>
<g id="#dfaf9fff">
<path fill="#dfaf9f" fill-opacity="0" d=" M 787.87 626.51 C 790.38 620.64 797.39 615.93 803.84 618.09 C 812.39 620.69 820.05 625.51 828.36 628.71 C 833.20 631.02 837.63 626.71 841.79 624.66 C 845.97 627.04 850.07 629.51 854.19 632.03 C 855.53 631.40 856.89 630.78 858.24 630.16 C 863.80 633.16 869.68 638.85 876.43 636.73 C 883.17 635.20 889.69 632.85 896.43 631.31 C 903.17 629.77 910.17 630.33 916.90 631.62 C 912.02 641.50 908.91 652.14 903.91 661.99 C 900.52 667.85 901.87 674.66 902.48 681.01 C 908.72 674.79 916.48 670.72 924.68 667.71 C 926.65 673.12 928.74 678.80 927.06 684.63 C 926.13 696.02 922.42 707.01 917.20 717.13 C 909.82 718.39 902.54 720.13 895.22 721.61 C 895.44 725.94 895.70 730.24 896.08 734.57 C 899.22 736.03 902.33 737.56 905.43 739.12 C 905.01 742.65 904.18 746.29 905.10 749.82 C 910.01 750.71 915.07 750.93 920.07 751.29 C 914.85 755.00 909.78 758.93 904.33 762.31 C 896.53 767.13 886.93 765.76 878.41 768.33 C 874.93 769.35 870.77 769.42 867.97 771.93 C 865.37 776.33 865.39 781.82 862.75 786.26 C 855.59 781.38 848.09 776.86 839.76 774.26 C 830.61 771.44 821.01 767.97 811.36 770.37 C 806.14 770.44 799.96 773.24 795.23 769.90 C 790.05 766.46 785.07 762.75 780.03 759.10 C 782.85 747.78 783.07 736.01 785.80 724.68 C 787.21 718.79 785.69 712.65 787.15 706.77 C 787.85 703.65 789.49 700.60 788.88 697.32 C 787.66 687.64 784.65 678.28 783.46 668.60 C 783.13 666.09 784.06 663.64 785.26 661.48 C 786.86 658.23 789.41 655.25 789.87 651.57 C 789.95 643.16 785.76 634.92 787.87 626.51 Z" />
</g>
<g id="#9f6f1ffe">
<path fill="#9f6f1f" fill-opacity="0" d=" M 962.85 633.85 C 972.70 632.15 980.91 626.29 988.59 620.26 C 991.56 626.62 994.90 632.85 999.14 638.45 C 999.27 638.62 999.51 638.96 999.63 639.13 C 1004.10 645.15 1010.11 649.97 1017.06 652.84 C 1018.97 654.35 1023.56 654.73 1023.57 658.09 C 1024.06 665.27 1021.21 672.50 1022.69 679.65 C 1025.44 684.69 1030.88 687.83 1033.29 693.10 C 1032.47 704.37 1030.60 715.61 1031.59 726.99 C 1027.92 729.23 1023.74 730.68 1019.38 730.57 C 1006.92 730.12 994.51 728.58 982.04 728.69 C 969.29 728.50 956.42 728.49 943.85 726.18 C 934.53 724.54 926.31 719.44 917.20 717.13 C 922.42 707.01 926.13 696.02 927.06 684.63 C 928.74 678.80 926.65 673.12 924.68 667.71 C 916.48 670.72 908.72 674.79 902.48 681.01 C 901.87 674.66 900.52 667.85 903.91 661.99 C 908.91 652.14 912.02 641.50 916.90 631.62 C 932.03 634.25 947.54 636.03 962.85 633.85 Z" />
</g>
<g id="#9fef1fff">
<path fill="#9fef1f" fill-opacity="0" d=" M 895.22 721.61 C 902.54 720.13 909.82 718.39 917.20 717.13 C 926.31 719.44 934.53 724.54 943.85 726.18 C 956.42 728.49 969.29 728.50 982.04 728.69 C 994.51 728.58 1006.92 730.12 1019.38 730.57 C 1023.74 730.68 1027.92 729.23 1031.59 726.99 C 1037.75 723.63 1044.09 720.63 1050.13 717.06 C 1053.31 718.81 1056.51 720.54 1059.71 722.28 C 1060.19 726.15 1060.63 729.99 1061.13 733.88 C 1069.30 735.13 1077.63 735.28 1085.72 737.10 C 1093.51 738.80 1097.21 746.99 1100.12 753.67 C 1100.24 761.11 1097.75 768.33 1096.69 775.67 C 1093.74 793.58 1089.43 812.93 1076.17 826.25 C 1072.97 829.80 1067.99 830.37 1063.64 831.68 C 1058.47 827.88 1052.82 821.78 1045.73 823.76 C 1038.11 827.30 1032.11 833.80 1024.32 837.01 C 1018.27 836.89 1012.44 834.51 1006.37 834.17 C 1008.30 822.28 1008.46 810.21 1009.50 798.23 C 990.02 793.80 969.23 797.10 951.89 806.90 C 945.78 811.36 937.76 808.80 932.56 804.38 C 929.55 798.36 933.29 791.79 934.79 785.85 C 937.47 775.41 942.66 765.97 948.02 756.72 C 942.99 751.95 937.63 746.27 930.32 745.62 C 926.34 746.11 923.28 749.15 920.07 751.29 C 915.07 750.93 910.01 750.71 905.10 749.82 C 904.18 746.29 905.01 742.65 905.43 739.12 C 902.33 737.56 899.22 736.03 896.08 734.57 C 895.70 730.24 895.44 725.94 895.22 721.61 Z" />
</g>
<g id="#9f6f9fff">
<path fill="#9f6f9f" fill-opacity="0" d=" M 920.07 751.29 C 923.28 749.15 926.34 746.11 930.32 745.62 C 937.63 746.27 942.99 751.95 948.02 756.72 C 942.66 765.97 937.47 775.41 934.79 785.85 C 933.29 791.79 929.55 798.36 932.56 804.38 C 937.76 808.80 945.78 811.36 951.89 806.90 C 969.23 797.10 990.02 793.80 1009.50 798.23 C 1008.46 810.21 1008.30 822.28 1006.37 834.17 C 1004.99 838.24 1002.19 841.63 1000.64 845.64 C 998.76 849.47 997.72 854.04 994.52 857.02 C 990.06 858.74 985.24 859.34 980.72 860.88 C 977.25 857.12 974.23 852.97 970.53 849.44 C 966.55 845.56 958.01 847.80 957.73 853.74 C 958.53 865.08 958.40 876.45 958.52 887.80 C 958.78 893.47 953.28 898.35 948.03 899.15 C 941.31 896.09 936.25 890.03 929.02 887.97 C 924.14 886.60 919.20 885.11 914.12 884.81 C 904.31 885.85 897.30 893.48 889.88 899.23 C 889.52 891.21 888.10 883.27 887.51 875.27 C 886.67 868.23 884.61 859.41 877.21 856.70 C 867.30 851.22 854.98 847.13 849.66 836.34 C 848.81 831.99 851.74 827.94 852.66 823.83 C 855.17 816.70 853.35 808.60 856.94 801.78 C 860.77 796.48 867.68 795.06 873.26 792.23 C 869.77 790.21 866.17 788.39 862.75 786.26 C 865.39 781.82 865.37 776.33 867.97 771.93 C 870.77 769.42 874.93 769.35 878.41 768.33 C 886.93 765.76 896.53 767.13 904.33 762.31 C 909.78 758.93 914.85 755.00 920.07 751.29 Z" />
</g>
<g id="#1fef1fff">
<path fill="#1fef1f" fill-opacity="0" d=" M 779.44 758.67 L 780.03 759.10 C 785.07 762.75 790.05 766.46 795.23 769.90 C 799.96 773.24 806.14 770.44 811.36 770.37 C 821.01 767.97 830.61 771.44 839.76 774.26 C 848.09 776.86 855.59 781.38 862.75 786.26 C 866.17 788.39 869.77 790.21 873.26 792.23 C 867.68 795.06 860.77 796.48 856.94 801.78 C 853.35 808.60 855.17 816.70 852.66 823.83 C 851.74 827.94 848.81 831.99 849.66 836.34 C 854.98 847.13 867.30 851.22 877.21 856.70 C 884.61 859.41 886.67 868.23 887.51 875.27 C 888.10 883.27 889.52 891.21 889.88 899.23 C 888.81 902.36 884.46 903.87 881.73 905.52 C 874.58 904.58 868.37 900.16 861.30 898.83 C 856.57 898.15 851.89 901.06 847.21 899.76 C 843.44 897.76 840.93 894.00 837.41 891.65 C 828.91 889.10 822.90 897.30 815.64 899.98 C 814.11 892.25 812.41 883.30 805.05 879.06 C 801.33 877.83 796.49 876.04 793.03 879.03 C 787.28 882.57 781.29 885.70 775.11 888.42 C 770.58 884.63 764.47 881.78 762.51 875.80 C 759.75 867.29 757.11 858.73 754.55 850.16 C 752.64 844.57 756.37 839.10 757.71 833.85 C 758.12 829.22 761.86 826.65 765.31 824.35 C 773.38 819.23 778.94 810.53 788.40 807.61 C 789.46 798.75 785.83 790.34 783.99 781.84 C 781.54 774.30 781.17 766.36 779.44 758.67 Z" />
</g>
</svg>
