<?xml version="1.0" encoding="UTF-8" ?>
<!DOCTYPE svg PUBLIC "-//W3C//DTD SVG 1.1//EN" "http://www.w3.org/Graphics/SVG/1.1/DTD/svg11.dtd">
<svg width="1920pt" height="1080pt" viewBox="0 0 1920 1080" version="1.1" xmlns="http://www.w3.org/2000/svg">
<g id="#bf9fbffe">
<path fill="#bf9fbf" fill-opacity="0" d=" M 1030.83 186.69 C 1032.61 180.83 1040.27 177.58 1045.77 180.21 C 1048.48 181.13 1051.11 182.74 1054.07 182.71 C 1057.54 182.01 1060.82 180.48 1064.47 180.56 C 1068.31 182.68 1071.21 186.17 1075.24 188.01 C 1080.67 188.28 1086.20 186.63 1091.60 187.91 C 1092.84 189.12 1093.59 190.73 1094.42 192.25 C 1097.66 193.41 1100.92 194.64 1104.14 195.91 L 1103.94 196.91 C 1102.12 205.39 1100.51 213.92 1099.15 222.49 C 1096.92 223.78 1094.44 224.79 1092.66 226.70 C 1091.47 229.34 1092.00 232.33 1092.01 235.14 C 1087.51 236.68 1083.17 238.64 1078.86 240.62 C 1076.93 239.06 1074.98 237.54 1073.06 235.99 C 1066.08 239.47 1060.00 244.56 1052.66 247.34 C 1049.25 241.25 1046.99 234.46 1041.90 229.47 C 1036.06 232.44 1030.06 235.25 1025.13 239.64 C 1027.13 243.68 1029.54 247.81 1029.68 252.43 C 1029.66 258.39 1025.21 263.13 1024.49 268.92 C 1024.12 272.57 1025.41 276.11 1026.36 279.57 C 1022.18 284.96 1016.83 289.58 1009.61 289.19 C 1005.50 279.81 1001.86 269.06 992.14 263.99 C 987.34 262.22 982.16 262.76 977.16 262.63 C 977.10 260.82 976.99 257.20 976.93 255.39 C 969.65 254.21 963.26 257.59 957.13 260.93 C 954.04 261.31 951.12 261.63 948.10 261.97 C 948.71 254.76 948.47 246.85 953.14 240.82 C 959.98 245.38 969.46 247.66 976.66 242.57 C 978.20 237.07 976.26 231.37 976.43 225.78 C 977.10 217.96 976.36 209.25 982.82 203.49 C 987.42 201.57 992.72 201.06 997.50 202.69 C 1000.33 203.63 1003.25 204.75 1006.30 204.25 C 1013.81 203.10 1021.46 202.97 1029.01 203.86 C 1029.59 198.13 1029.88 192.36 1030.83 186.69 M 1001.53 256.13 C 1000.59 257.31 1002.64 258.68 1003.45 257.46 C 1004.42 256.27 1002.33 254.92 1001.53 256.13 Z" />
</g>
<g id="#009f3fff">
<path fill="#009f3f" fill-opacity="0" d=" M 849.64 183.64 C 855.55 180.59 861.15 184.73 866.66 186.31 C 874.05 188.97 882.17 187.16 889.75 188.89 C 894.75 193.26 897.13 200.26 903.44 203.23 C 911.69 196.24 924.28 195.58 933.01 202.09 C 929.63 212.53 920.33 219.72 917.18 230.25 C 915.81 234.07 917.48 238.48 915.17 242.04 C 911.95 247.51 908.22 252.68 904.98 258.14 C 914.34 264.55 922.34 272.65 931.42 279.42 L 931.07 279.84 C 927.57 286.32 922.85 291.95 918.69 297.98 C 917.01 300.37 914.60 303.59 911.26 302.16 C 904.99 299.73 898.08 295.18 891.31 298.81 C 884.90 304.27 879.50 310.79 874.61 317.62 C 865.17 318.27 855.55 317.92 846.30 320.21 C 845.44 309.31 844.01 298.48 842.55 287.66 C 842.30 284.40 840.00 281.79 839.58 278.59 C 837.22 258.92 834.73 239.26 832.75 219.55 C 831.98 214.37 833.01 209.23 834.62 204.33 C 839.04 204.97 843.40 203.96 846.99 201.29 C 847.33 195.44 842.78 186.58 849.64 183.64 Z" />
</g>
<g id="#005f7fff">
<path fill="#005f7f" fill-opacity="0" d=" M 951.71 199.40 C 955.08 198.46 958.00 196.23 961.48 195.65 C 969.69 193.76 975.86 200.44 982.82 203.49 C 976.36 209.25 977.10 217.96 976.43 225.78 C 976.26 231.37 978.20 237.07 976.66 242.57 C 969.46 247.66 959.98 245.38 953.14 240.82 C 948.47 246.85 948.71 254.76 948.10 261.97 C 951.12 261.63 954.04 261.31 957.13 260.93 C 952.23 264.72 948.01 269.31 943.15 273.15 C 939.63 275.92 935.25 277.19 931.42 279.42 C 922.34 272.65 914.34 264.55 904.98 258.14 C 908.22 252.68 911.95 247.51 915.17 242.04 C 917.48 238.48 915.81 234.07 917.18 230.25 C 920.33 219.72 929.63 212.53 933.01 202.09 C 933.06 201.96 933.18 201.68 933.23 201.55 C 939.42 201.53 945.78 201.47 951.71 199.40 Z" />
</g>
<g id="#3f1f3ffe">
<path fill="#3f1f3f" fill-opacity="0" d=" M 1103.94 196.91 C 1105.91 200.25 1107.69 203.77 1110.31 206.66 C 1114.70 210.01 1120.69 209.48 1125.41 212.17 C 1132.54 215.97 1136.13 223.71 1141.17 229.64 C 1142.83 235.33 1143.91 241.24 1146.88 246.49 C 1137.49 247.46 1130.27 254.51 1123.78 260.72 C 1119.32 266.72 1115.24 273.80 1115.41 281.52 C 1115.93 294.61 1113.10 307.46 1111.05 320.30 C 1106.40 320.50 1101.77 320.78 1097.14 320.39 C 1093.18 320.07 1089.18 321.40 1085.28 320.55 C 1083.97 319.25 1083.31 317.49 1082.65 315.83 C 1081.17 311.61 1080.07 306.62 1075.94 304.15 C 1072.50 302.10 1068.89 299.65 1069.16 294.90 C 1068.60 290.66 1065.44 286.63 1060.84 286.81 C 1056.07 287.57 1052.30 291.04 1048.07 293.18 C 1045.86 290.90 1043.92 288.37 1042.18 285.73 C 1046.43 282.99 1051.80 280.93 1054.10 276.08 C 1053.67 272.85 1050.28 272.29 1047.63 273.02 C 1040.49 275.06 1033.34 277.06 1026.36 279.57 C 1025.41 276.11 1024.12 272.57 1024.49 268.92 C 1025.21 263.13 1029.66 258.39 1029.68 252.43 C 1029.54 247.81 1027.13 243.68 1025.13 239.64 C 1030.06 235.25 1036.06 232.44 1041.90 229.47 C 1046.99 234.46 1049.25 241.25 1052.66 247.34 C 1060.00 244.56 1066.08 239.47 1073.06 235.99 C 1074.98 237.54 1076.93 239.06 1078.86 240.62 C 1083.17 238.64 1087.51 236.68 1092.01 235.14 C 1092.00 232.33 1091.47 229.34 1092.66 226.70 C 1094.44 224.79 1096.92 223.78 1099.15 222.49 C 1100.51 213.92 1102.12 205.39 1103.94 196.91 Z" />
</g>
<g id="#bf1f3fff">
<path fill="#bf1f3f" fill-opacity="0" d=" M 1123.78 260.72 C 1130.27 254.51 1137.49 247.46 1146.88 246.49 C 1150.75 246.34 1154.64 246.51 1158.51 246.69 C 1159.03 250.35 1156.86 255.68 1160.48 258.46 C 1165.37 263.87 1172.39 266.41 1177.93 270.91 C 1179.23 274.05 1177.32 277.94 1178.20 281.34 C 1179.46 284.74 1181.79 287.74 1182.56 291.33 C 1182.74 294.78 1181.69 298.16 1181.23 301.56 C 1182.97 303.51 1185.15 305.43 1185.41 308.21 C 1185.77 312.35 1184.05 316.34 1183.41 320.36 C 1181.47 328.41 1180.92 336.94 1177.47 344.54 C 1173.23 350.25 1165.70 352.18 1159.30 354.23 C 1155.40 355.39 1151.46 353.70 1147.83 352.39 C 1147.61 354.46 1147.41 356.53 1147.24 358.61 C 1152.44 364.08 1158.64 370.52 1156.63 378.82 C 1154.57 389.73 1153.24 400.96 1148.73 411.21 C 1147.57 414.13 1146.66 417.14 1145.65 420.12 C 1144.13 419.72 1142.63 419.31 1141.13 418.92 C 1137.66 411.74 1135.07 404.02 1130.55 397.41 C 1128.41 393.72 1123.74 394.42 1120.16 394.36 C 1113.10 394.13 1106.06 396.22 1099.04 394.80 C 1095.17 393.46 1092.45 390.15 1089.24 387.79 C 1091.83 386.73 1094.77 385.98 1096.73 383.84 C 1098.22 381.85 1098.49 379.27 1099.20 376.95 C 1101.67 376.52 1104.21 376.22 1106.59 375.31 C 1107.25 368.22 1105.98 360.71 1103.92 353.95 C 1098.37 351.39 1097.97 357.28 1096.87 360.53 C 1093.85 359.35 1090.83 358.18 1087.83 357.05 C 1087.23 352.16 1085.82 347.41 1085.28 342.52 C 1084.89 339.86 1085.30 337.08 1084.23 334.59 C 1081.97 330.72 1077.67 328.37 1075.93 324.16 C 1077.72 321.06 1080.45 318.64 1082.65 315.83 C 1083.31 317.49 1083.97 319.25 1085.28 320.55 C 1089.18 321.40 1093.18 320.07 1097.14 320.39 C 1101.77 320.78 1106.40 320.50 1111.05 320.30 C 1113.10 307.46 1115.93 294.61 1115.41 281.52 C 1115.24 273.80 1119.32 266.72 1123.78 260.72 Z" />
</g>
<g id="#009fbfff">
<path fill="#009fbf" fill-opacity="0" d=" M 957.13 260.93 C 963.26 257.59 969.65 254.21 976.93 255.39 C 976.99 257.20 977.10 260.82 977.16 262.63 C 982.16 262.76 987.34 262.22 992.14 263.99 C 1001.86 269.06 1005.50 279.81 1009.61 289.19 C 1006.79 291.14 1004.16 293.52 1000.92 294.77 C 995.72 296.26 990.04 294.79 985.02 297.08 C 982.33 298.54 980.26 300.84 978.19 303.02 C 972.30 299.61 966.31 295.42 959.22 295.37 C 951.75 295.36 944.81 292.20 937.69 290.38 C 939.13 288.33 940.62 286.31 942.14 284.31 C 938.47 282.75 934.78 281.28 931.07 279.84 L 931.42 279.42 C 935.25 277.19 939.63 275.92 943.15 273.15 C 948.01 269.31 952.23 264.72 957.13 260.93 Z" />
</g>
<g id="#005f40ff">
<path fill="#005f40" fill-opacity="0" d=" M 1001.53 256.13 C 1002.33 254.92 1004.42 256.27 1003.45 257.46 C 1002.64 258.68 1000.59 257.31 1001.53 256.13 Z" />
</g>
<g id="#bf5fbfff">
<path fill="#bf5fbf" fill-opacity="0" d=" M 1047.63 273.02 C 1050.28 272.29 1053.67 272.85 1054.10 276.08 C 1051.80 280.93 1046.43 282.99 1042.18 285.73 C 1043.92 288.37 1045.86 290.90 1048.07 293.18 C 1050.33 295.74 1053.22 298.03 1054.35 301.37 C 1054.41 306.62 1049.85 311.30 1051.56 316.67 C 1052.30 320.04 1054.33 324.87 1050.64 327.23 C 1041.81 330.50 1033.45 335.13 1026.40 341.42 C 1022.23 345.31 1021.65 351.64 1017.43 355.46 C 1014.20 357.17 1010.46 355.81 1007.17 355.02 C 1006.57 358.54 1006.40 362.19 1005.20 365.57 C 1001.76 369.47 996.93 371.63 991.92 372.50 C 986.00 370.53 980.15 367.70 973.72 368.44 C 973.19 371.15 972.60 373.84 971.99 376.53 C 964.84 372.72 958.26 367.87 950.82 364.58 C 946.34 362.62 942.23 359.91 938.78 356.46 C 944.30 354.41 950.40 351.29 951.56 344.83 C 952.89 338.75 947.78 334.14 944.52 329.72 C 948.37 322.44 955.28 317.20 962.89 314.32 C 965.78 313.22 968.98 312.95 971.71 311.42 C 974.15 308.87 976.00 305.79 978.19 303.02 C 980.26 300.84 982.33 298.54 985.02 297.08 C 990.04 294.79 995.72 296.26 1000.92 294.77 C 1004.16 293.52 1006.79 291.14 1009.61 289.19 C 1016.83 289.58 1022.18 284.96 1026.36 279.57 C 1033.34 277.06 1040.49 275.06 1047.63 273.02 Z" />
</g>
<g id="#7fdf3fff">
<path fill="#7fdf3f" fill-opacity="0" d=" M 918.69 297.98 C 922.85 291.95 927.57 286.32 931.07 279.84 C 934.78 281.28 938.47 282.75 942.14 284.31 C 940.62 286.31 939.13 288.33 937.69 290.38 C 944.81 292.20 951.75 295.36 959.22 295.37 C 966.31 295.42 972.30 299.61 978.19 303.02 C 976.00 305.79 974.15 308.87 971.71 311.42 C 968.98 312.95 965.78 313.22 962.89 314.32 C 955.28 317.20 948.37 322.44 944.52 329.72 C 938.47 328.78 932.59 327.08 926.85 324.98 C 925.81 323.55 924.77 322.13 923.74 320.71 C 924.41 316.61 924.97 312.42 924.54 308.27 C 924.09 304.19 921.10 301.07 918.69 297.98 Z" />
</g>
<g id="#bf5f7fff">
<path fill="#bf5f7f" fill-opacity="0" d=" M 1048.07 293.18 C 1052.30 291.04 1056.07 287.57 1060.84 286.81 C 1065.44 286.63 1068.60 290.66 1069.16 294.90 C 1068.89 299.65 1072.50 302.10 1075.94 304.15 C 1080.07 306.62 1081.17 311.61 1082.65 315.83 C 1080.45 318.64 1077.72 321.06 1075.93 324.16 C 1077.67 328.37 1081.97 330.72 1084.23 334.59 C 1085.30 337.08 1084.89 339.86 1085.28 342.52 C 1078.87 340.53 1072.71 342.92 1067.30 346.28 C 1066.30 344.38 1065.31 342.48 1064.34 340.58 C 1058.02 344.05 1050.51 351.39 1053.79 359.18 C 1056.31 367.19 1055.04 375.69 1055.37 383.93 C 1060.29 383.71 1065.28 383.85 1070.21 383.39 C 1069.13 389.55 1069.37 396.24 1066.19 401.80 C 1064.03 405.09 1061.73 408.33 1060.37 412.05 C 1060.28 414.55 1060.38 417.05 1060.48 419.56 C 1053.90 419.64 1047.51 417.77 1040.95 417.71 C 1038.12 417.41 1034.83 417.64 1032.70 415.42 C 1029.35 412.26 1026.51 407.88 1021.48 407.48 C 1019.86 402.91 1018.78 398.17 1018.14 393.37 C 1017.24 386.02 1011.57 380.15 1005.37 376.67 C 1001.16 374.46 996.46 373.66 991.92 372.50 C 996.93 371.63 1001.76 369.47 1005.20 365.57 C 1006.40 362.19 1006.57 358.54 1007.17 355.02 C 1010.46 355.81 1014.20 357.17 1017.43 355.46 C 1021.65 351.64 1022.23 345.31 1026.40 341.42 C 1033.45 335.13 1041.81 330.50 1050.64 327.23 C 1054.33 324.87 1052.30 320.04 1051.56 316.67 C 1049.85 311.30 1054.41 306.62 1054.35 301.37 C 1053.22 298.03 1050.33 295.74 1048.07 293.18 Z" />
</g>
<g id="#7f9fbffe">
<path fill="#7f9fbf" fill-opacity="0" d=" M 891.31 298.81 C 898.08 295.18 904.99 299.73 911.26 302.16 C 914.60 303.59 917.01 300.37 918.69 297.98 C 921.10 301.07 924.09 304.19 924.54 308.27 C 924.97 312.42 924.41 316.61 923.74 320.71 C 919.46 328.57 911.54 333.17 905.40 339.37 C 899.86 345.66 892.59 349.96 885.59 354.39 C 875.20 358.96 862.68 359.22 852.21 354.74 C 847.71 349.01 840.99 345.96 835.48 341.40 C 836.95 339.79 838.43 338.19 839.93 336.60 C 839.68 332.99 839.37 329.42 838.95 325.84 C 841.38 324.01 843.28 321.15 846.30 320.21 C 855.55 317.92 865.17 318.27 874.61 317.62 C 879.50 310.79 884.90 304.27 891.31 298.81 Z" />
</g>
<g id="#00df00ff">
<path fill="#00df00" fill-opacity="0" d=" M 905.40 339.37 C 911.54 333.17 919.46 328.57 923.74 320.71 C 924.77 322.13 925.81 323.55 926.85 324.98 C 923.59 330.39 923.11 336.73 922.71 342.87 C 922.43 348.03 919.33 352.39 916.46 356.46 C 907.82 367.96 898.88 379.29 891.58 391.71 C 887.79 398.02 887.55 405.65 887.63 412.80 C 888.45 430.68 890.87 448.47 891.48 466.35 C 891.44 467.56 891.36 468.76 891.32 469.98 C 890.44 470.48 889.56 470.97 888.68 471.45 C 886.04 472.89 883.07 473.78 880.73 475.73 C 877.56 480.04 875.32 484.97 872.33 489.41 C 870.13 492.19 867.09 494.14 864.46 496.49 C 859.11 500.85 854.87 506.49 848.80 509.98 C 844.05 510.37 839.72 508.43 835.59 506.43 C 833.52 494.40 832.21 482.26 830.31 470.21 C 829.40 463.48 827.12 456.65 828.05 449.83 C 834.37 434.14 845.19 420.77 852.97 405.83 C 854.83 402.33 854.03 398.29 853.29 394.61 C 851.61 387.06 849.83 379.55 847.82 372.08 C 845.38 373.22 842.91 374.31 840.46 375.41 C 839.18 368.50 846.38 364.48 847.46 358.11 C 849.03 356.98 850.61 355.86 852.21 354.74 C 862.68 359.22 875.20 358.96 885.59 354.39 C 892.59 349.96 899.86 345.66 905.40 339.37 Z" />
</g>
<g id="#001fbfff">
<path fill="#001fbf" fill-opacity="0" d=" M 926.85 324.98 C 932.59 327.08 938.47 328.78 944.52 329.72 C 947.78 334.14 952.89 338.75 951.56 344.83 C 950.40 351.29 944.30 354.41 938.78 356.46 C 942.23 359.91 946.34 362.62 950.82 364.58 C 949.86 377.44 953.91 390.19 951.86 403.04 C 947.18 405.80 943.69 410.53 938.43 412.19 C 932.01 413.18 927.72 407.13 923.93 403.04 C 919.88 398.51 914.71 394.94 908.93 393.04 C 905.68 392.26 902.55 393.97 899.56 394.94 C 905.63 402.84 916.55 406.87 919.65 416.95 C 917.98 421.38 913.63 424.33 912.28 428.90 C 912.17 436.80 911.60 444.96 907.39 451.87 C 904.78 456.44 902.17 461.11 898.59 465.01 C 897.79 464.23 896.99 463.47 896.20 462.71 C 894.62 463.92 893.05 465.14 891.48 466.35 C 890.87 448.47 888.45 430.68 887.63 412.80 C 887.55 405.65 887.79 398.02 891.58 391.71 C 898.88 379.29 907.82 367.96 916.46 356.46 C 919.33 352.39 922.43 348.03 922.71 342.87 C 923.11 336.73 923.59 330.39 926.85 324.98 Z" />
</g>
<g id="#bfdf3fff">
<path fill="#bfdf3f" fill-opacity="0" d=" M 664.69 339.67 C 668.80 337.76 673.61 336.22 678.10 337.76 C 684.88 339.97 692.15 339.80 698.94 341.99 C 705.50 343.97 712.13 345.76 718.97 346.45 C 721.66 347.11 725.71 347.03 726.56 350.33 C 729.25 358.83 731.91 367.48 733.15 376.34 C 731.03 384.12 725.94 390.63 720.39 396.30 C 719.42 393.58 718.45 390.86 717.51 388.14 C 712.93 389.22 708.20 390.07 703.89 391.98 C 700.37 394.66 698.13 398.76 694.46 401.26 C 690.42 402.62 685.80 400.66 681.97 403.00 C 676.61 405.50 674.08 411.08 672.24 416.32 C 670.72 420.83 668.51 425.05 666.33 429.26 C 663.72 434.20 664.86 440.12 666.49 445.20 C 671.69 461.11 676.80 477.07 682.41 492.85 C 672.47 487.24 662.74 481.20 653.71 474.22 C 649.31 470.74 647.45 465.28 645.57 460.21 C 640.85 445.79 635.48 431.61 630.70 417.21 C 629.69 413.97 629.16 410.52 629.12 407.14 C 630.76 404.35 633.55 402.53 635.96 400.45 C 633.53 392.82 629.95 385.53 628.60 377.58 C 627.45 373.60 629.33 369.77 631.93 366.95 C 636.52 362.13 639.80 356.25 644.44 351.48 C 650.77 346.88 657.73 343.22 664.69 339.67 M 643.17 391.17 C 642.64 392.79 643.20 393.35 644.83 392.83 C 645.34 391.20 644.79 390.64 643.17 391.17 Z" />
</g>
<g id="#3fdf7fff">
<path fill="#3fdf7f" fill-opacity="0" d=" M 798.57 345.83 C 801.28 343.54 804.37 341.41 807.86 340.56 C 813.72 340.83 817.89 345.31 823.16 347.15 C 827.75 346.57 831.42 343.35 835.48 341.40 C 840.99 345.96 847.71 349.01 852.21 354.74 C 850.61 355.86 849.03 356.98 847.46 358.11 C 846.38 364.48 839.18 368.50 840.46 375.41 C 842.91 374.31 845.38 373.22 847.82 372.08 C 849.83 379.55 851.61 387.06 853.29 394.61 C 854.03 398.29 854.83 402.33 852.97 405.83 C 845.19 420.77 834.37 434.14 828.05 449.83 C 827.12 456.65 829.40 463.48 830.31 470.21 C 832.21 482.26 833.52 494.40 835.59 506.43 C 832.03 508.57 828.27 510.42 824.22 511.44 C 821.45 495.15 819.10 478.79 816.59 462.46 C 816.99 453.05 806.77 450.99 799.50 450.33 C 794.58 450.89 790.70 447.97 787.67 444.57 C 794.81 439.03 803.02 435.26 811.03 431.23 C 808.52 428.37 805.80 425.64 802.84 423.28 C 797.46 419.97 790.73 419.24 785.84 415.13 C 782.81 412.62 782.77 408.39 781.87 404.88 C 781.26 402.22 780.42 399.61 779.30 397.12 C 782.56 396.08 785.79 394.93 789.03 393.80 C 787.96 383.53 786.07 373.38 784.13 363.25 C 787.09 360.85 790.11 358.48 792.65 355.61 C 795.24 352.73 795.52 348.40 798.57 345.83 M 823.32 390.18 C 822.14 391.64 824.67 393.29 825.68 391.82 C 826.84 390.35 824.31 388.69 823.32 390.18 Z" />
</g>
<g id="#7fdfbfff">
<path fill="#7fdfbf" fill-opacity="0" d=" M 1053.79 359.18 C 1050.51 351.39 1058.02 344.05 1064.34 340.58 C 1065.31 342.48 1066.30 344.38 1067.30 346.28 C 1072.71 342.92 1078.87 340.53 1085.28 342.52 C 1085.82 347.41 1087.23 352.16 1087.83 357.05 C 1087.59 362.55 1086.11 367.88 1085.39 373.33 C 1085.00 377.20 1080.98 378.86 1077.94 380.39 C 1075.41 381.53 1072.86 382.61 1070.21 383.39 C 1065.28 383.85 1060.29 383.71 1055.37 383.93 C 1055.04 375.69 1056.31 367.19 1053.79 359.18 Z" />
</g>
<g id="#bf9f3fff">
<path fill="#bf9f3f" fill-opacity="0" d=" M 1096.87 360.53 C 1097.97 357.28 1098.37 351.39 1103.92 353.95 C 1105.98 360.71 1107.25 368.22 1106.59 375.31 C 1104.21 376.22 1101.67 376.52 1099.20 376.95 C 1098.49 379.27 1098.22 381.85 1096.73 383.84 C 1094.77 385.98 1091.83 386.73 1089.24 387.79 C 1085.71 384.97 1081.76 382.76 1077.94 380.39 C 1080.98 378.86 1085.00 377.20 1085.39 373.33 C 1086.11 367.88 1087.59 362.55 1087.83 357.05 C 1090.83 358.18 1093.85 359.35 1096.87 360.53 Z" />
</g>
<g id="#bf5f00fe">
<path fill="#bf5f00" fill-opacity="0" d=" M 746.44 359.09 C 752.64 365.42 757.88 372.65 761.40 380.81 C 762.67 385.91 768.24 383.88 772.10 383.81 C 774.36 388.32 777.17 392.54 779.30 397.12 C 780.42 399.61 781.26 402.22 781.87 404.88 C 776.78 407.32 772.10 411.11 766.40 411.91 C 758.26 411.89 750.34 409.37 743.16 405.67 C 741.69 408.17 740.22 410.66 738.72 413.14 C 730.59 410.76 723.04 406.09 717.08 400.15 C 718.02 398.74 719.21 397.51 720.39 396.30 C 725.94 390.63 731.03 384.12 733.15 376.34 C 734.07 368.13 740.47 363.60 746.44 359.09 M 731.16 405.16 C 730.24 409.16 735.16 404.25 731.16 405.16 Z" />
</g>
<g id="#3f5f3fff">
<path fill="#3f5f3f" fill-opacity="0" d=" M 950.82 364.58 C 958.26 367.87 964.84 372.72 971.99 376.53 C 972.60 373.84 973.19 371.15 973.72 368.44 C 980.15 367.70 986.00 370.53 991.92 372.50 C 996.46 373.66 1001.16 374.46 1005.37 376.67 C 1011.57 380.15 1017.24 386.02 1018.14 393.37 C 1018.78 398.17 1019.86 402.91 1021.48 407.48 C 1017.93 414.48 1009.92 417.07 1004.63 422.36 C 1004.78 425.45 1006.05 428.34 1006.82 431.32 C 1008.27 436.06 1008.18 441.17 1010.48 445.68 C 1012.33 448.42 1014.85 450.66 1017.02 453.18 C 1022.70 458.70 1018.17 466.53 1018.55 473.34 C 1011.16 473.27 1003.77 473.74 996.44 474.62 C 995.37 472.96 994.31 471.31 993.26 469.67 C 987.69 461.41 984.26 451.83 977.64 444.27 C 974.59 441.27 969.83 441.37 965.82 441.33 C 958.12 442.47 950.01 444.63 944.50 450.47 C 941.63 452.88 939.10 456.73 934.96 456.71 C 931.26 456.01 928.74 452.84 926.07 450.46 C 919.84 450.90 913.63 451.56 907.39 451.87 C 911.60 444.96 912.17 436.80 912.28 428.90 C 913.63 424.33 917.98 421.38 919.65 416.95 C 916.55 406.87 905.63 402.84 899.56 394.94 C 902.55 393.97 905.68 392.26 908.93 393.04 C 914.71 394.94 919.88 398.51 923.93 403.04 C 927.72 407.13 932.01 413.18 938.43 412.19 C 943.69 410.53 947.18 405.80 951.86 403.04 C 953.91 390.19 949.86 377.44 950.82 364.58 M 961.53 399.13 C 960.59 400.31 962.64 401.68 963.45 400.46 C 964.42 399.26 962.33 397.92 961.53 399.13 Z" />
</g>
<g id="#005fbfff">
<path fill="#005fbf" fill-opacity="0" d=" M 1070.21 383.39 C 1072.86 382.61 1075.41 381.53 1077.94 380.39 C 1081.76 382.76 1085.71 384.97 1089.24 387.79 C 1092.45 390.15 1095.17 393.46 1099.04 394.80 C 1106.06 396.22 1113.10 394.13 1120.16 394.36 C 1123.74 394.42 1128.41 393.72 1130.55 397.41 C 1135.07 404.02 1137.66 411.74 1141.13 418.92 C 1143.14 423.27 1141.41 428.13 1141.89 432.67 C 1144.27 438.30 1150.73 440.06 1154.88 444.02 C 1156.98 452.73 1154.27 461.94 1149.16 469.10 C 1144.83 469.71 1139.99 471.57 1135.93 469.06 C 1131.40 466.12 1129.56 460.68 1126.83 456.29 C 1123.35 460.22 1123.17 465.55 1123.59 470.50 C 1117.15 471.22 1109.64 472.43 1104.34 467.67 C 1101.66 465.64 1099.92 462.70 1098.11 459.94 C 1091.70 459.03 1085.36 457.64 1079.77 454.24 C 1070.23 449.24 1059.18 448.11 1049.59 443.23 C 1046.10 440.12 1046.32 434.95 1045.40 430.74 C 1038.82 434.20 1032.69 438.52 1025.64 441.04 C 1027.87 444.53 1030.28 447.91 1032.53 451.40 C 1027.42 452.47 1022.20 452.73 1017.02 453.18 C 1014.85 450.66 1012.33 448.42 1010.48 445.68 C 1008.18 441.17 1008.27 436.06 1006.82 431.32 C 1006.05 428.34 1004.78 425.45 1004.63 422.36 C 1009.92 417.07 1017.93 414.48 1021.48 407.48 C 1026.51 407.88 1029.35 412.26 1032.70 415.42 C 1034.83 417.64 1038.12 417.41 1040.95 417.71 C 1047.51 417.77 1053.90 419.64 1060.48 419.56 C 1060.38 417.05 1060.28 414.55 1060.37 412.05 C 1065.04 413.77 1069.53 416.71 1074.63 416.77 C 1079.47 415.70 1083.84 412.81 1087.58 409.66 C 1089.34 405.24 1089.55 400.36 1089.96 395.66 C 1082.01 397.63 1074.23 400.28 1066.19 401.80 C 1069.37 396.24 1069.13 389.55 1070.21 383.39 M 1065.73 418.64 C 1063.14 422.57 1061.22 427.03 1057.36 429.96 C 1058.55 434.02 1059.72 438.08 1060.94 442.13 C 1067.22 437.20 1073.54 432.30 1079.84 427.38 C 1075.04 424.61 1070.42 421.56 1065.73 418.64 Z" />
</g>
<g id="#bf1fbfff">
<path fill="#bf1fbf" fill-opacity="0" d=" M 703.89 391.98 C 708.20 390.07 712.93 389.22 717.51 388.14 C 718.45 390.86 719.42 393.58 720.39 396.30 C 719.21 397.51 718.02 398.74 717.08 400.15 C 723.04 406.09 730.59 410.76 738.72 413.14 C 740.22 410.66 741.69 408.17 743.16 405.67 C 750.34 409.37 758.26 411.89 766.40 411.91 C 772.10 411.11 776.78 407.32 781.87 404.88 C 782.77 408.39 782.81 412.62 785.84 415.13 C 790.73 419.24 797.46 419.97 802.84 423.28 C 805.80 425.64 808.52 428.37 811.03 431.23 C 803.02 435.26 794.81 439.03 787.67 444.57 C 790.70 447.97 794.58 450.89 799.50 450.33 C 806.77 450.99 816.99 453.05 816.59 462.46 C 819.10 478.79 821.45 495.15 824.22 511.44 C 816.27 513.97 807.82 515.05 800.41 519.08 C 799.61 522.38 799.33 526.14 796.94 528.76 C 794.43 530.33 790.98 529.44 788.32 530.25 C 783.57 526.36 778.70 522.31 772.86 520.19 C 766.84 518.35 760.59 519.67 754.69 521.17 C 742.50 522.95 737.46 537.87 725.24 539.59 C 721.08 539.81 715.85 539.55 713.33 535.68 C 709.91 531.09 706.42 526.57 702.98 522.00 C 699.30 517.03 698.96 510.09 694.21 505.83 C 690.13 501.66 685.09 498.12 682.41 492.85 C 676.80 477.07 671.69 461.11 666.49 445.20 C 664.86 440.12 663.72 434.20 666.33 429.26 C 668.51 425.05 670.72 420.83 672.24 416.32 C 674.08 411.08 676.61 405.50 681.97 403.00 C 685.80 400.66 690.42 402.62 694.46 401.26 C 698.13 398.76 700.37 394.66 703.89 391.98 Z" />
</g>
<g id="#bfdf7fff">
<path fill="#bfdf7f" fill-opacity="0" d=" M 823.32 390.18 C 824.31 388.69 826.84 390.35 825.68 391.82 C 824.67 393.29 822.14 391.64 823.32 390.18 Z" />
</g>
<g id="#4060bfff">
<path fill="#4060bf" fill-opacity="0" d=" M 643.17 391.17 C 644.79 390.64 645.34 391.20 644.83 392.83 C 643.20 393.35 642.64 392.79 643.17 391.17 Z" />
</g>
<g id="#3f9f3fff">
<path fill="#3f9f3f" fill-opacity="0" d=" M 1066.19 401.80 C 1074.23 400.28 1082.01 397.63 1089.96 395.66 C 1089.55 400.36 1089.34 405.24 1087.58 409.66 C 1083.84 412.81 1079.47 415.70 1074.63 416.77 C 1069.53 416.71 1065.04 413.77 1060.37 412.05 C 1061.73 408.33 1064.03 405.09 1066.19 401.80 Z" />
</g>
<g id="#bf5f3fff">
<path fill="#bf5f3f" fill-opacity="0" d=" M 961.53 399.13 C 962.33 397.92 964.42 399.26 963.45 400.46 C 962.64 401.68 960.59 400.31 961.53 399.13 Z" />
</g>
<g id="#40df00ff">
<path fill="#40df00" fill-opacity="0" d=" M 731.16 405.16 C 735.16 404.25 730.24 409.16 731.16 405.16 Z" />
</g>
<g id="#7f5fbffe">
<path fill="#7f5fbf" fill-opacity="0" d=" M 1065.73 418.64 C 1070.42 421.56 1075.04 424.61 1079.84 427.38 C 1073.54 432.30 1067.22 437.20 1060.94 442.13 C 1059.72 438.08 1058.55 434.02 1057.36 429.96 C 1061.22 427.03 1063.14 422.57 1065.73 418.64 Z" />
</g>
<g id="#3f5f00ff">
<path fill="#3f5f00" fill-opacity="0" d=" M 1025.64 441.04 C 1032.69 438.52 1038.82 434.20 1045.40 430.74 C 1046.32 434.95 1046.10 440.12 1049.59 443.23 C 1059.18 448.11 1070.23 449.24 1079.77 454.24 C 1085.36 457.64 1091.70 459.03 1098.11 459.94 C 1099.92 462.70 1101.66 465.64 1104.34 467.67 C 1109.64 472.43 1117.15 471.22 1123.59 470.50 C 1123.17 465.55 1123.35 460.22 1126.83 456.29 C 1129.56 460.68 1131.40 466.12 1135.93 469.06 C 1139.99 471.57 1144.83 469.71 1149.16 469.10 C 1153.36 474.82 1157.18 480.88 1159.51 487.63 C 1153.48 491.97 1147.50 496.42 1140.89 499.84 C 1138.31 501.40 1134.92 502.87 1134.05 506.05 C 1133.52 510.13 1133.68 514.25 1133.48 518.36 C 1128.01 516.56 1122.51 514.87 1117.06 513.06 C 1115.98 508.96 1115.97 504.26 1113.13 500.86 C 1110.33 498.15 1106.16 497.94 1102.62 496.82 C 1100.83 500.72 1099.03 504.62 1096.72 508.25 C 1095.01 504.58 1093.32 500.73 1093.68 496.56 C 1095.17 492.90 1098.45 490.39 1100.30 486.94 C 1096.40 484.60 1090.27 484.14 1087.40 488.23 C 1083.39 493.79 1080.46 500.04 1076.89 505.87 C 1075.61 505.77 1074.34 505.69 1073.08 505.60 C 1071.16 501.85 1069.38 498.02 1067.65 494.18 C 1067.02 494.13 1065.75 494.02 1065.12 493.97 C 1063.54 497.69 1062.60 501.82 1059.98 504.98 C 1057.46 506.61 1054.25 506.63 1051.43 507.40 C 1050.06 499.91 1051.33 491.78 1048.29 484.66 C 1046.26 480.48 1041.23 483.22 1038.03 484.14 C 1030.74 482.25 1024.39 477.94 1018.55 473.34 C 1018.17 466.53 1022.70 458.70 1017.02 453.18 C 1022.20 452.73 1027.42 452.47 1032.53 451.40 C 1030.28 447.91 1027.87 444.53 1025.64 441.04 M 1061.15 483.14 C 1059.14 482.96 1058.89 486.13 1061.01 486.02 C 1062.98 486.23 1063.22 482.98 1061.15 483.14 Z" />
</g>
<g id="#7f1f3fff">
<path fill="#7f1f3f" fill-opacity="0" d=" M 1168.82 441.56 C 1175.13 439.05 1179.84 431.19 1187.43 432.40 C 1193.96 431.98 1196.31 438.88 1194.76 444.02 C 1201.39 444.82 1208.06 445.90 1214.77 445.46 C 1220.90 444.80 1225.69 440.45 1231.36 438.44 C 1238.58 435.46 1246.39 434.57 1254.14 434.35 C 1257.46 434.26 1261.13 434.93 1263.46 437.52 C 1266.05 440.76 1265.24 445.13 1265.02 449.00 C 1268.04 455.89 1277.27 462.70 1273.11 470.85 C 1269.40 480.32 1266.89 490.29 1262.02 499.28 C 1265.88 500.50 1270.15 501.04 1273.33 503.77 C 1277.11 506.69 1280.56 510.15 1284.96 512.16 C 1289.68 513.98 1289.39 520.24 1288.82 524.29 C 1285.49 537.30 1279.34 549.33 1274.83 561.93 C 1266.13 581.50 1259.66 601.97 1251.01 621.55 C 1245.98 621.33 1240.98 622.23 1235.99 621.54 C 1234.00 625.98 1233.01 632.38 1227.07 633.13 C 1218.33 636.95 1208.55 633.69 1199.71 636.97 C 1193.98 639.36 1189.43 643.76 1185.28 648.24 C 1180.67 653.32 1178.91 660.17 1176.53 666.45 C 1171.87 664.56 1165.98 663.26 1163.99 658.01 C 1161.80 654.22 1162.46 649.79 1162.70 645.66 C 1159.70 646.60 1156.73 647.58 1153.82 648.75 C 1160.93 623.10 1167.50 597.31 1174.65 571.67 C 1178.75 555.74 1185.75 539.84 1183.70 523.06 C 1181.24 517.94 1175.32 515.17 1173.72 509.48 C 1170.09 500.42 1171.14 490.50 1174.74 481.56 C 1168.95 481.26 1164.15 484.63 1159.51 487.63 C 1157.18 480.88 1153.36 474.82 1149.16 469.10 C 1154.27 461.94 1156.98 452.73 1154.88 444.02 C 1159.51 443.10 1164.21 442.65 1168.82 441.56 Z" />
</g>
<g id="#7fdf7fff">
<path fill="#7fdf7f" fill-opacity="0" d=" M 944.50 450.47 C 950.01 444.63 958.12 442.47 965.82 441.33 C 969.83 441.37 974.59 441.27 977.64 444.27 C 984.26 451.83 987.69 461.41 993.26 469.67 C 989.29 469.60 985.32 469.53 981.36 469.58 C 980.01 466.92 978.66 464.26 977.35 461.59 C 975.36 462.70 973.14 463.54 971.54 465.20 C 969.90 469.95 969.18 474.97 967.33 479.66 C 964.13 486.85 965.32 495.01 963.18 502.48 C 962.00 507.64 957.54 511.09 955.19 515.65 C 954.03 520.08 955.28 524.69 955.25 529.20 C 954.47 532.08 954.31 535.32 952.57 537.84 C 948.39 540.61 942.91 539.55 938.37 541.47 C 935.43 542.35 932.43 543.99 929.29 543.25 C 925.38 541.93 922.73 538.39 919.06 536.70 C 915.55 536.00 911.20 534.53 907.95 536.87 C 903.58 539.82 901.79 545.05 899.32 549.46 C 895.39 543.00 892.49 535.53 886.12 530.98 C 886.77 530.97 888.07 530.96 888.72 530.96 C 887.66 519.61 885.97 508.27 885.89 496.86 C 887.02 492.87 890.14 489.49 890.33 485.22 C 890.12 480.59 889.46 476.01 888.68 471.45 C 889.56 470.97 890.44 470.48 891.32 469.98 C 893.82 468.44 896.26 466.80 898.59 465.01 C 902.17 461.11 904.78 456.44 907.39 451.87 C 913.63 451.56 919.84 450.90 926.07 450.46 C 928.74 452.84 931.26 456.01 934.96 456.71 C 939.10 456.73 941.63 452.88 944.50 450.47 Z" />
</g>
<g id="#001f3fff">
<path fill="#001f3f" fill-opacity="0" d=" M 971.54 465.20 C 973.14 463.54 975.36 462.70 977.35 461.59 C 978.66 464.26 980.01 466.92 981.36 469.58 C 985.32 469.53 989.29 469.60 993.26 469.67 C 994.31 471.31 995.37 472.96 996.44 474.62 C 1003.77 473.74 1011.16 473.27 1018.55 473.34 C 1024.39 477.94 1030.74 482.25 1038.03 484.14 C 1038.23 487.88 1039.28 492.33 1036.46 495.40 C 1032.40 499.58 1028.21 504.55 1022.19 505.75 C 1018.03 506.79 1013.24 505.94 1009.66 508.64 C 1001.87 515.89 996.46 526.15 986.77 531.20 C 979.34 533.60 974.84 525.64 969.09 522.72 C 963.29 520.62 958.25 524.75 955.25 529.20 C 955.28 524.69 954.03 520.08 955.19 515.65 C 957.54 511.09 962.00 507.64 963.18 502.48 C 965.32 495.01 964.13 486.85 967.33 479.66 C 969.18 474.97 969.90 469.95 971.54 465.20 Z" />
</g>
<g id="#bfdf00ff">
<path fill="#bfdf00" fill-opacity="0" d=" M 1159.51 487.63 C 1164.15 484.63 1168.95 481.26 1174.74 481.56 C 1171.14 490.50 1170.09 500.42 1173.72 509.48 C 1175.32 515.17 1181.24 517.94 1183.70 523.06 C 1185.75 539.84 1178.75 555.74 1174.65 571.67 C 1167.50 597.31 1160.93 623.10 1153.82 648.75 C 1145.53 649.61 1136.68 650.52 1129.20 646.05 C 1127.84 650.57 1127.75 655.84 1124.69 659.66 C 1119.50 660.45 1114.35 661.02 1109.15 661.39 C 1109.34 658.13 1109.77 655.01 1109.98 651.79 C 1108.68 652.46 1107.42 653.16 1106.16 653.87 C 1105.90 652.46 1105.66 651.06 1105.43 649.66 C 1104.39 652.01 1103.43 654.40 1102.53 656.80 C 1101.40 656.88 1100.28 656.97 1099.18 657.06 C 1100.54 650.74 1101.43 643.70 1098.60 637.65 C 1096.65 633.61 1091.73 632.43 1087.63 632.19 C 1081.48 631.68 1077.22 637.56 1071.16 637.52 C 1072.05 624.69 1074.69 612.10 1076.41 599.38 C 1078.55 582.24 1081.96 565.28 1084.23 548.15 C 1091.47 545.39 1098.91 543.19 1106.45 541.36 C 1106.41 534.27 1106.72 527.18 1106.90 520.10 C 1102.98 519.23 1099.20 517.71 1095.96 515.30 C 1091.94 517.29 1088.63 520.39 1086.01 524.00 C 1081.25 530.51 1075.58 536.36 1069.09 541.14 C 1071.66 542.38 1074.19 543.67 1076.79 544.95 C 1075.20 562.41 1071.61 579.61 1069.59 597.02 C 1067.61 610.31 1065.74 623.61 1063.69 636.89 C 1059.93 636.60 1056.12 636.72 1052.42 635.96 C 1054.22 623.05 1055.58 610.08 1057.46 597.19 C 1058.13 592.66 1055.11 588.89 1052.07 585.95 C 1049.76 583.83 1047.55 581.01 1044.24 580.59 C 1040.23 579.99 1036.24 579.53 1032.25 578.95 C 1032.36 577.52 1032.59 574.67 1032.71 573.24 C 1023.80 575.30 1014.46 574.35 1005.96 571.10 C 999.60 568.57 992.68 568.43 985.95 568.22 C 980.52 568.39 978.29 561.57 972.84 561.65 C 966.26 562.02 962.11 568.00 958.37 572.76 C 954.04 560.99 944.94 551.95 938.37 541.47 C 942.91 539.55 948.39 540.61 952.57 537.84 C 954.31 535.32 954.47 532.08 955.25 529.20 C 958.25 524.75 963.29 520.62 969.09 522.72 C 974.84 525.64 979.34 533.60 986.77 531.20 C 996.46 526.15 1001.87 515.89 1009.66 508.64 C 1013.24 505.94 1018.03 506.79 1022.19 505.75 C 1028.21 504.55 1032.40 499.58 1036.46 495.40 C 1039.28 492.33 1038.23 487.88 1038.03 484.14 C 1041.23 483.22 1046.26 480.48 1048.29 484.66 C 1051.33 491.78 1050.06 499.91 1051.43 507.40 C 1054.25 506.63 1057.46 506.61 1059.98 504.98 C 1062.60 501.82 1063.54 497.69 1065.12 493.97 C 1065.75 494.02 1067.02 494.13 1067.65 494.18 C 1069.38 498.02 1071.16 501.85 1073.08 505.60 C 1074.34 505.69 1075.61 505.77 1076.89 505.87 C 1080.46 500.04 1083.39 493.79 1087.40 488.23 C 1090.27 484.14 1096.40 484.60 1100.30 486.94 C 1098.45 490.39 1095.17 492.90 1093.68 496.56 C 1093.32 500.73 1095.01 504.58 1096.72 508.25 C 1099.03 504.62 1100.83 500.72 1102.62 496.82 C 1106.16 497.94 1110.33 498.15 1113.13 500.86 C 1115.97 504.26 1115.98 508.96 1117.06 513.06 C 1122.51 514.87 1128.01 516.56 1133.48 518.36 C 1133.68 514.25 1133.52 510.13 1134.05 506.05 C 1134.92 502.87 1138.31 501.40 1140.89 499.84 C 1147.50 496.42 1153.48 491.97 1159.51 487.63 Z" />
</g>
<g id="#7fdf00fe">
<path fill="#7fdf00" fill-opacity="0" d=" M 1061.15 483.14 C 1063.22 482.98 1062.98 486.23 1061.01 486.02 C 1058.89 486.13 1059.14 482.96 1061.15 483.14 Z" />
</g>
<g id="#3f5f7fff">
<path fill="#3f5f7f" fill-opacity="0" d=" M 1095.96 515.30 C 1099.20 517.71 1102.98 519.23 1106.90 520.10 C 1106.72 527.18 1106.41 534.27 1106.45 541.36 C 1098.91 543.19 1091.47 545.39 1084.23 548.15 C 1081.96 565.28 1078.55 582.24 1076.41 599.38 C 1074.69 612.10 1072.05 624.69 1071.16 637.52 C 1068.64 637.38 1066.14 637.06 1063.69 636.89 C 1065.74 623.61 1067.61 610.31 1069.59 597.02 C 1071.61 579.61 1075.20 562.41 1076.79 544.95 C 1074.19 543.67 1071.66 542.38 1069.09 541.14 C 1075.58 536.36 1081.25 530.51 1086.01 524.00 C 1088.63 520.39 1091.94 517.29 1095.96 515.30 Z" />
</g>
<g id="#7f5f7fff">
<path fill="#7f5f7f" fill-opacity="0" d=" M 847.32 528.22 C 852.35 524.16 858.66 527.06 864.42 527.17 C 868.51 527.47 872.49 525.99 876.57 526.14 C 880.06 526.98 883.26 528.82 886.12 530.98 C 892.49 535.53 895.39 543.00 899.32 549.46 C 901.79 545.05 903.58 539.82 907.95 536.87 C 911.20 534.53 915.55 536.00 919.06 536.70 C 922.73 538.39 925.38 541.93 929.29 543.25 C 932.43 543.99 935.43 542.35 938.37 541.47 C 944.94 551.95 954.04 560.99 958.37 572.76 C 959.39 575.12 960.39 577.49 961.40 579.86 C 957.77 581.74 954.07 583.94 949.84 583.80 C 940.15 583.62 930.18 584.56 920.80 581.57 C 914.32 578.39 907.81 573.20 900.16 574.87 C 901.43 579.49 902.71 584.11 903.40 588.87 C 902.19 593.91 897.73 597.32 894.91 601.43 C 887.06 598.42 877.96 594.97 873.79 587.15 C 872.66 584.45 872.18 581.54 871.59 578.70 C 868.51 580.06 864.75 581.36 863.53 584.85 C 861.93 589.37 860.12 594.14 856.16 597.14 C 851.33 601.55 844.26 606.72 846.70 614.20 C 847.83 620.47 856.07 619.76 860.66 622.01 C 856.78 632.12 845.60 635.50 836.79 639.95 C 833.41 631.20 828.62 623.12 825.35 614.33 C 822.13 608.74 818.89 602.95 813.97 598.66 C 812.34 603.39 811.82 608.70 808.83 612.85 C 805.50 615.42 801.14 615.96 797.37 617.67 C 800.78 601.35 802.26 584.71 805.48 568.37 C 812.15 565.11 820.61 566.56 826.66 561.74 C 837.82 553.71 839.08 538.53 847.32 528.22 Z" />
</g>
<g id="#00dfbfff">
<path fill="#00dfbf" fill-opacity="0" d=" M 958.37 572.76 C 962.11 568.00 966.26 562.02 972.84 561.65 C 978.29 561.57 980.52 568.39 985.95 568.22 C 992.68 568.43 999.60 568.57 1005.96 571.10 C 1014.46 574.35 1023.80 575.30 1032.71 573.24 C 1032.59 574.67 1032.36 577.52 1032.25 578.95 C 1036.24 579.53 1040.23 579.99 1044.24 580.59 C 1047.55 581.01 1049.76 583.83 1052.07 585.95 C 1055.11 588.89 1058.13 592.66 1057.46 597.19 C 1055.58 610.08 1054.22 623.05 1052.42 635.96 C 1045.17 630.98 1036.71 627.80 1027.78 628.45 C 1028.42 623.23 1029.80 616.92 1025.06 613.00 C 1022.56 609.94 1019.24 605.39 1014.64 606.52 C 1009.38 607.83 1003.18 611.18 1003.05 617.42 C 1002.77 618.45 1002.50 619.48 1002.26 620.53 C 999.10 621.17 992.79 622.46 989.63 623.10 C 992.83 629.40 997.37 635.05 999.89 641.67 C 1002.29 644.21 1000.24 646.10 998.70 647.64 C 996.26 649.97 993.63 652.09 990.98 654.18 C 992.72 659.52 994.65 664.88 995.08 670.55 C 991.76 670.46 988.43 670.32 985.18 669.64 C 981.07 667.46 976.67 665.82 972.02 665.28 C 965.54 664.37 964.39 656.25 959.62 652.94 C 955.61 650.86 951.24 649.63 947.08 647.92 C 943.70 640.67 939.30 633.82 937.19 626.03 C 934.31 615.17 929.76 604.75 923.68 595.31 C 921.09 591.22 920.61 586.29 920.80 581.57 C 930.18 584.56 940.15 583.62 949.84 583.80 C 954.07 583.94 957.77 581.74 961.40 579.86 C 960.39 577.49 959.39 575.12 958.37 572.76 Z" />
</g>
<g id="#7f9f3fff">
<path fill="#7f9f3f" fill-opacity="0" d=" M 900.16 574.87 C 907.81 573.20 914.32 578.39 920.80 581.57 C 920.61 586.29 921.09 591.22 923.68 595.31 C 929.76 604.75 934.31 615.17 937.19 626.03 C 939.30 633.82 943.70 640.67 947.08 647.92 C 944.32 654.45 940.81 660.94 939.86 668.05 C 940.53 673.28 943.29 678.02 945.16 682.92 C 939.54 682.88 934.96 686.01 931.01 689.76 C 928.02 687.39 925.20 684.84 922.47 682.21 C 914.14 688.21 903.27 690.56 897.50 699.81 C 895.97 699.69 894.46 699.57 892.95 699.46 C 891.54 694.06 890.99 688.05 887.46 683.53 C 879.97 677.95 871.70 673.33 864.53 667.32 C 860.95 664.23 860.49 659.43 860.98 655.07 C 861.49 650.92 859.88 646.97 858.27 643.24 C 851.03 643.07 843.61 642.58 836.79 639.95 C 845.60 635.50 856.78 632.12 860.66 622.01 C 856.07 619.76 847.83 620.47 846.70 614.20 C 844.26 606.72 851.33 601.55 856.16 597.14 C 860.12 594.14 861.93 589.37 863.53 584.85 C 864.75 581.36 868.51 580.06 871.59 578.70 C 872.18 581.54 872.66 584.45 873.79 587.15 C 877.96 594.97 887.06 598.42 894.91 601.43 C 897.73 597.32 902.19 593.91 903.40 588.87 C 902.71 584.11 901.43 579.49 900.16 574.87 Z" />
</g>
<g id="#3fdfbfff">
<path fill="#3fdfbf" fill-opacity="0" d=" M 813.97 598.66 C 818.89 602.95 822.13 608.74 825.35 614.33 C 828.62 623.12 833.41 631.20 836.79 639.95 C 843.61 642.58 851.03 643.07 858.27 643.24 C 859.88 646.97 861.49 650.92 860.98 655.07 C 860.49 659.43 860.95 664.23 864.53 667.32 C 871.70 673.33 879.97 677.95 887.46 683.53 C 890.99 688.05 891.54 694.06 892.95 699.46 C 894.14 704.99 891.73 710.47 887.49 714.09 C 876.98 722.07 865.15 732.66 850.72 728.53 C 835.67 722.86 826.68 741.28 812.24 740.86 C 806.33 738.05 802.70 732.60 799.61 727.13 C 798.48 728.27 797.35 729.41 796.23 730.56 C 791.70 716.52 788.46 702.07 785.24 687.68 C 786.94 684.97 791.58 683.54 791.44 679.85 C 791.39 675.56 790.90 671.29 791.72 667.05 C 798.73 667.24 805.75 669.21 812.74 668.25 C 817.69 666.23 820.72 661.07 823.01 656.46 C 823.63 650.36 822.94 642.40 816.98 639.10 C 812.05 635.69 806.80 632.79 801.66 629.73 C 798.44 633.34 794.71 636.97 793.68 641.89 C 793.26 645.97 793.49 650.10 793.34 654.23 C 791.29 645.70 789.21 637.18 788.01 628.49 C 791.21 624.96 793.67 620.71 797.37 617.67 C 801.14 615.96 805.50 615.42 808.83 612.85 C 811.82 608.70 812.34 603.39 813.97 598.66 Z" />
</g>
<g id="#00df7fff">
<path fill="#00df7f" fill-opacity="0" d=" M 1014.64 606.52 C 1019.24 605.39 1022.56 609.94 1025.06 613.00 C 1029.80 616.92 1028.42 623.23 1027.78 628.45 C 1036.71 627.80 1045.17 630.98 1052.42 635.96 C 1056.12 636.72 1059.93 636.60 1063.69 636.89 C 1066.14 637.06 1068.64 637.38 1071.16 637.52 C 1077.22 637.56 1081.48 631.68 1087.63 632.19 C 1091.73 632.43 1096.65 633.61 1098.60 637.65 C 1101.43 643.70 1100.54 650.74 1099.18 657.06 C 1096.18 671.10 1093.27 685.16 1090.74 699.29 C 1096.06 699.69 1101.40 699.93 1106.78 700.09 C 1107.89 697.44 1109.02 694.79 1110.24 692.19 C 1120.30 696.35 1123.30 709.19 1134.05 712.07 C 1143.80 715.69 1155.14 712.39 1164.38 717.74 C 1168.63 723.25 1168.60 730.99 1168.52 737.63 C 1161.60 759.74 1153.69 781.56 1146.71 803.67 C 1145.59 806.72 1144.87 810.14 1142.58 812.57 C 1137.85 816.53 1132.50 819.63 1127.09 822.53 C 1124.00 819.45 1120.95 816.38 1118.02 813.17 C 1111.65 815.75 1104.49 815.27 1098.27 818.29 C 1096.50 818.86 1094.56 820.29 1092.70 819.30 C 1087.04 816.40 1082.22 811.62 1075.83 810.27 C 1072.20 809.13 1070.86 814.90 1068.17 816.11 C 1065.77 815.91 1060.98 815.50 1058.58 815.30 C 1056.78 813.95 1055.43 812.11 1053.96 810.47 C 1047.73 812.27 1042.62 816.41 1036.88 819.27 C 1038.37 802.24 1041.51 785.43 1043.84 768.51 C 1045.62 760.03 1042.34 751.75 1041.84 743.35 C 1041.27 739.17 1039.20 735.37 1038.55 731.23 C 1037.18 724.71 1041.01 718.05 1037.94 711.73 C 1036.54 707.04 1032.42 703.53 1031.88 698.55 C 1031.18 695.04 1031.29 690.92 1028.70 688.09 C 1026.34 687.68 1024.22 686.94 1022.22 688.26 C 1017.22 691.45 1013.53 696.29 1008.64 699.62 C 1005.89 701.53 1001.56 701.31 999.44 698.61 C 997.84 695.17 998.45 691.26 998.40 687.60 C 992.26 682.99 989.27 675.85 985.18 669.64 C 988.43 670.32 991.76 670.46 995.08 670.55 C 994.65 664.88 992.72 659.52 990.98 654.18 C 993.63 652.09 996.26 649.97 998.70 647.64 C 1000.24 646.10 1002.29 644.21 999.89 641.67 C 997.37 635.05 992.83 629.40 989.63 623.10 C 992.79 622.46 999.10 621.17 1002.26 620.53 C 1002.50 619.48 1002.77 618.45 1003.05 617.42 C 1003.18 611.18 1009.38 607.83 1014.64 606.52 Z" />
</g>
<g id="#7f1fbffe">
<path fill="#7f1fbf" fill-opacity="0" d=" M 793.68 641.89 C 794.71 636.97 798.44 633.34 801.66 629.73 C 806.80 632.79 812.05 635.69 816.98 639.10 C 822.94 642.40 823.63 650.36 823.01 656.46 C 820.72 661.07 817.69 666.23 812.74 668.25 C 805.75 669.21 798.73 667.24 791.72 667.05 C 792.34 662.78 793.19 658.54 793.34 654.23 C 793.49 650.10 793.26 645.97 793.68 641.89 Z" />
</g>
<g id="#00df3fff">
<path fill="#00df3f" fill-opacity="0" d=" M 947.08 647.92 C 951.24 649.63 955.61 650.86 959.62 652.94 C 964.39 656.25 965.54 664.37 972.02 665.28 C 976.67 665.82 981.07 667.46 985.18 669.64 C 989.27 675.85 992.26 682.99 998.40 687.60 C 998.45 691.26 997.84 695.17 999.44 698.61 C 1001.56 701.31 1005.89 701.53 1008.64 699.62 C 1013.53 696.29 1017.22 691.45 1022.22 688.26 C 1024.22 686.94 1026.34 687.68 1028.70 688.09 C 1031.29 690.92 1031.18 695.04 1031.88 698.55 C 1032.42 703.53 1036.54 707.04 1037.94 711.73 C 1041.01 718.05 1037.18 724.71 1038.55 731.23 C 1039.20 735.37 1041.27 739.17 1041.84 743.35 C 1042.34 751.75 1045.62 760.03 1043.84 768.51 C 1041.51 785.43 1038.37 802.24 1036.88 819.27 C 1036.62 824.71 1033.97 829.49 1031.18 834.01 C 1027.80 833.36 1024.47 832.57 1021.20 831.65 C 1018.18 825.36 1020.07 817.88 1018.97 811.19 C 1014.45 809.92 1009.44 809.35 1005.71 806.27 C 1001.96 803.43 1004.36 797.60 1003.03 793.82 C 998.83 793.57 994.60 793.66 990.44 793.09 C 982.67 793.47 979.62 784.92 973.00 782.62 C 967.51 784.61 963.13 789.50 957.19 790.29 C 950.98 789.36 948.75 782.46 943.92 779.37 C 937.35 777.60 930.50 778.90 923.82 778.11 C 917.39 773.64 910.04 770.15 904.67 764.33 C 899.29 758.13 903.29 749.45 903.06 742.25 C 902.33 738.74 899.67 735.99 898.00 732.94 C 893.68 727.04 894.29 718.24 887.49 714.09 C 891.73 710.47 894.14 704.99 892.95 699.46 C 894.46 699.57 895.97 699.69 897.50 699.81 C 903.27 690.56 914.14 688.21 922.47 682.21 C 925.20 684.84 928.02 687.39 931.01 689.76 C 934.96 686.01 939.54 682.88 945.16 682.92 C 943.29 678.02 940.53 673.28 939.86 668.05 C 940.81 660.94 944.32 654.45 947.08 647.92 M 990.24 723.92 C 988.43 724.81 990.28 727.20 991.76 726.08 C 993.55 725.17 991.69 722.79 990.24 723.92 Z" />
</g>
<g id="#3f1fbfff">
<path fill="#3f1fbf" fill-opacity="0" d=" M 850.72 728.53 C 865.15 732.66 876.98 722.07 887.49 714.09 C 894.29 718.24 893.68 727.04 898.00 732.94 C 899.67 735.99 902.33 738.74 903.06 742.25 C 903.29 749.45 899.29 758.13 904.67 764.33 C 910.04 770.15 917.39 773.64 923.82 778.11 C 925.00 779.51 926.11 780.98 927.22 782.45 C 923.15 786.65 917.09 790.01 917.02 796.65 C 915.97 799.81 916.14 803.54 914.36 806.47 C 911.53 808.83 907.62 809.20 904.38 810.80 C 898.49 813.31 891.87 816.33 885.42 813.79 C 877.87 812.87 872.66 803.91 864.74 805.68 C 856.46 809.00 863.86 819.86 857.98 824.87 C 853.85 828.52 848.71 830.81 844.69 834.61 C 844.20 838.65 845.46 842.65 846.28 846.58 C 848.62 855.94 850.59 865.40 853.01 874.75 C 847.64 874.28 841.62 875.96 839.10 881.10 C 834.56 888.60 841.40 896.44 840.14 904.27 C 833.26 902.67 827.56 898.12 822.06 893.91 C 815.71 889.05 815.86 879.90 810.46 874.36 C 806.32 873.91 802.43 875.32 798.67 876.79 C 795.53 874.05 792.44 871.04 790.98 867.05 C 786.97 857.76 784.07 848.03 780.38 838.63 C 778.55 834.50 779.49 829.94 778.92 825.60 C 778.34 817.49 772.97 810.46 773.50 802.20 C 774.59 797.08 778.13 792.70 778.48 787.40 C 779.39 774.65 780.21 761.80 782.84 749.26 C 785.10 741.79 791.16 736.26 796.23 730.56 C 797.35 729.41 798.48 728.27 799.61 727.13 C 802.70 732.60 806.33 738.05 812.24 740.86 C 826.68 741.28 835.67 722.86 850.72 728.53 Z" />
</g>
<g id="#7f5f3fff">
<path fill="#7f5f3f" fill-opacity="0" d=" M 990.24 723.92 C 991.69 722.79 993.55 725.17 991.76 726.08 C 990.28 727.20 988.43 724.81 990.24 723.92 Z" />
</g>
<g id="#3fdf3fff">
<path fill="#3fdf3f" fill-opacity="0" d=" M 923.82 778.11 C 930.50 778.90 937.35 777.60 943.92 779.37 C 948.75 782.46 950.98 789.36 957.19 790.29 C 963.13 789.50 967.51 784.61 973.00 782.62 C 979.62 784.92 982.67 793.47 990.44 793.09 C 994.60 793.66 998.83 793.57 1003.03 793.82 C 1004.36 797.60 1001.96 803.43 1005.71 806.27 C 1009.44 809.35 1014.45 809.92 1018.97 811.19 C 1020.07 817.88 1018.18 825.36 1021.20 831.65 C 1024.47 832.57 1027.80 833.36 1031.18 834.01 C 1032.54 834.23 1033.93 834.41 1035.32 834.61 C 1034.06 849.15 1051.25 858.82 1046.72 873.45 C 1043.94 888.44 1041.28 903.45 1038.63 918.47 C 1038.67 926.86 1030.68 931.16 1025.37 936.22 C 1020.08 939.70 1014.19 942.25 1009.25 946.26 C 1004.76 950.43 1000.60 955.33 994.89 957.90 C 989.97 959.47 984.77 957.19 979.78 958.03 C 968.06 962.69 961.34 974.38 952.00 982.06 C 947.95 985.58 944.06 980.39 940.45 978.77 C 940.02 981.20 939.59 983.64 939.16 986.09 C 937.88 986.02 936.60 985.96 935.34 985.91 C 933.99 977.34 935.80 967.92 932.10 959.90 C 929.83 953.80 920.88 955.37 918.80 949.30 C 916.98 940.64 916.37 931.74 916.02 922.91 C 917.07 920.23 919.13 918.08 920.53 915.58 C 923.72 910.50 922.65 904.03 925.55 898.83 C 929.47 891.65 937.17 887.97 942.76 882.30 C 937.83 881.73 932.61 879.69 927.84 881.81 C 924.05 883.10 920.00 885.44 915.90 884.14 C 910.88 882.59 908.95 876.57 903.94 875.10 C 901.71 875.43 899.74 876.59 897.75 877.54 C 894.35 875.88 891.20 873.66 887.58 872.61 C 882.26 872.47 877.59 876.06 872.29 875.60 C 869.48 874.09 869.08 870.47 867.77 867.86 C 862.60 869.63 857.85 872.29 853.01 874.75 C 850.59 865.40 848.62 855.94 846.28 846.58 C 845.46 842.65 844.20 838.65 844.69 834.61 C 848.71 830.81 853.85 828.52 857.98 824.87 C 863.86 819.86 856.46 809.00 864.74 805.68 C 872.66 803.91 877.87 812.87 885.42 813.79 C 891.87 816.33 898.49 813.31 904.38 810.80 C 907.62 809.20 911.53 808.83 914.36 806.47 C 916.14 803.54 915.97 799.81 917.02 796.65 C 917.09 790.01 923.15 786.65 927.22 782.45 C 926.11 780.98 925.00 779.51 923.82 778.11 Z" />
</g>
</svg>
