<?xml version="1.0" encoding="UTF-8" ?>
<!DOCTYPE svg PUBLIC "-//W3C//DTD SVG 1.1//EN" "http://www.w3.org/Graphics/SVG/1.1/DTD/svg11.dtd">
<svg width="1920pt" height="1080pt" viewBox="0 0 1920 1080" version="1.1" xmlns="http://www.w3.org/2000/svg">
<g id="#dfbfbfff">
<path fill="#dfbfbf" fill-opacity="0" d=" M 945.08 195.95 C 944.97 191.54 949.46 188.93 951.70 185.54 C 956.03 188.69 959.89 192.71 964.86 194.89 C 968.01 192.42 970.85 189.56 973.78 186.82 C 977.31 189.76 981.03 192.56 985.31 194.33 C 990.85 195.28 996.86 193.32 1002.12 195.82 C 1011.58 200.32 1021.10 204.70 1030.58 209.15 C 1038.08 210.33 1045.67 207.79 1052.46 204.77 C 1055.26 207.82 1057.30 211.47 1056.85 215.85 C 1049.42 220.26 1042.38 225.27 1035.34 230.25 C 1030.92 233.31 1027.76 238.01 1026.16 243.10 C 1024.64 247.88 1026.94 252.76 1026.31 257.60 C 1023.80 259.72 1020.54 260.56 1017.51 261.61 C 1018.24 266.87 1018.89 272.17 1018.88 277.50 C 1018.94 283.18 1016.05 288.51 1016.16 294.17 C 1016.90 297.99 1018.08 302.24 1021.07 304.90 C 1027.49 307.13 1035.43 306.18 1040.58 311.39 C 1046.85 318.72 1046.02 329.04 1047.25 338.02 C 1051.88 337.26 1056.53 336.47 1061.03 335.05 C 1062.32 335.49 1063.61 335.92 1064.93 336.35 C 1062.62 343.74 1059.92 351.20 1059.79 359.02 C 1060.45 363.93 1062.76 368.78 1061.28 373.80 C 1060.82 384.58 1050.99 390.54 1046.17 399.21 C 1042.24 398.92 1038.37 398.66 1034.47 398.43 C 1032.85 393.41 1031.79 385.44 1025.02 385.40 C 1014.96 385.62 1012.54 397.81 1005.39 402.90 C 999.44 396.12 995.83 385.69 986.24 383.15 C 980.22 382.16 973.89 382.78 968.22 380.12 C 957.54 376.72 950.64 365.76 939.36 364.04 C 930.77 365.90 926.25 375.20 922.44 382.25 C 915.64 395.97 918.16 411.54 920.26 426.08 C 913.94 421.82 907.08 417.67 903.02 411.00 C 898.45 404.52 894.16 397.86 889.53 391.44 C 886.35 386.71 882.23 382.15 881.85 376.15 C 876.63 335.86 870.82 295.64 865.94 255.29 C 871.71 253.94 877.90 253.24 883.05 250.08 C 884.08 246.80 884.96 243.48 885.71 240.12 C 890.81 240.04 895.91 239.98 901.04 239.93 C 901.42 242.31 901.81 244.70 902.19 247.11 C 905.05 247.61 907.88 248.65 910.84 248.51 C 914.99 247.70 918.56 244.72 922.83 244.52 C 927.40 245.83 931.41 248.61 936.01 249.92 C 938.36 249.48 940.30 247.76 941.82 245.99 C 946.24 229.69 946.53 212.69 945.08 195.95 Z" />
</g>
<g id="#001f00ff">
<path fill="#001f00" fill-opacity="0" d=" M 1035.34 230.25 C 1042.38 225.27 1049.42 220.26 1056.85 215.85 C 1058.32 219.09 1060.23 222.10 1062.28 225.01 C 1068.78 223.92 1075.28 222.68 1081.84 221.85 C 1082.99 226.75 1082.38 232.39 1085.31 236.68 C 1088.73 240.02 1094.17 240.02 1097.61 243.38 C 1103.59 249.40 1109.30 255.71 1115.26 261.77 C 1118.81 265.21 1123.68 266.79 1128.25 268.46 C 1130.43 275.54 1129.40 282.80 1127.81 289.84 C 1130.69 290.37 1133.69 290.67 1136.54 291.55 C 1138.24 293.50 1138.64 296.22 1139.57 298.59 C 1145.77 301.25 1151.56 305.16 1158.18 306.77 C 1162.05 307.83 1163.86 303.44 1165.74 300.96 C 1171.54 303.33 1176.66 307.68 1182.86 308.93 C 1186.67 306.95 1188.38 302.38 1191.08 299.15 C 1192.96 300.46 1194.77 301.91 1196.85 302.94 C 1200.25 303.52 1202.92 301.26 1205.78 299.92 C 1207.26 304.01 1208.82 308.07 1210.19 312.20 C 1204.10 313.04 1193.97 310.50 1192.61 318.53 C 1192.00 330.48 1201.34 339.07 1206.37 349.00 C 1202.12 350.42 1194.13 348.79 1192.68 354.73 C 1190.32 361.67 1189.68 369.07 1188.38 376.24 C 1176.38 368.88 1161.97 368.54 1148.41 366.84 C 1140.01 365.82 1131.04 368.86 1123.13 365.11 C 1114.60 361.79 1105.57 358.64 1098.98 352.02 C 1093.38 347.00 1088.80 340.85 1082.67 336.46 C 1076.26 332.27 1068.04 333.27 1061.03 335.05 C 1056.53 336.47 1051.88 337.26 1047.25 338.02 C 1046.02 329.04 1046.85 318.72 1040.58 311.39 C 1035.43 306.18 1027.49 307.13 1021.07 304.90 C 1018.08 302.24 1016.90 297.99 1016.16 294.17 C 1016.05 288.51 1018.94 283.18 1018.88 277.50 C 1018.89 272.17 1018.24 266.87 1017.51 261.61 C 1020.54 260.56 1023.80 259.72 1026.31 257.60 C 1026.94 252.76 1024.64 247.88 1026.16 243.10 C 1027.76 238.01 1030.92 233.31 1035.34 230.25 Z" />
</g>
<g id="#3f1f00ff">
<path fill="#3f1f00" fill-opacity="0" d=" M 750.02 274.80 C 758.16 276.59 766.23 278.66 774.33 280.62 C 775.42 285.50 776.37 290.87 781.68 292.73 C 783.98 288.53 786.24 284.30 788.26 279.96 C 793.37 280.01 798.71 278.89 803.76 280.29 C 808.14 287.14 808.85 295.44 810.79 303.14 C 817.32 334.37 824.80 365.38 831.58 396.56 C 835.39 412.19 835.28 428.51 840.72 443.80 C 841.58 448.24 842.21 452.72 842.93 457.20 C 838.55 444.11 836.06 430.49 833.00 417.05 C 821.80 421.85 810.78 427.07 799.56 431.81 C 791.11 435.40 784.82 442.19 778.85 448.89 C 771.29 443.87 763.47 437.63 753.81 438.29 C 747.15 439.26 741.38 443.20 735.55 446.33 C 734.93 444.71 734.32 443.10 733.71 441.49 C 727.04 439.65 720.17 438.20 713.21 438.59 C 710.68 433.92 708.93 428.69 705.32 424.70 C 702.91 423.01 699.87 422.61 697.16 421.61 C 693.00 412.53 687.54 403.93 685.03 394.18 C 690.24 388.58 696.97 384.63 703.11 380.14 C 701.43 373.96 698.86 368.08 696.25 362.26 C 699.44 358.29 702.70 354.38 705.64 350.22 C 708.98 350.68 712.34 351.29 715.68 351.87 C 718.16 349.17 720.07 345.72 723.28 343.79 C 726.15 343.43 729.13 343.82 732.05 343.82 C 732.86 341.93 733.65 340.04 734.44 338.14 C 736.97 343.88 742.79 346.71 747.12 350.90 C 752.02 355.39 752.58 362.94 757.98 367.01 C 768.43 374.01 770.64 387.13 775.04 397.97 C 775.81 397.98 777.34 397.99 778.11 398.00 C 778.54 392.31 778.97 386.50 777.01 381.00 C 767.76 353.84 759.03 326.48 751.05 298.91 C 749.57 293.89 747.18 289.10 746.51 283.89 C 746.82 280.61 748.73 277.76 750.02 274.80 Z" />
</g>
<g id="#7f1f7fff">
<path fill="#7f1f7f" fill-opacity="0" d=" M 1207.18 298.17 C 1217.36 298.62 1228.06 296.09 1238.07 298.91 C 1242.55 299.96 1241.33 305.58 1241.53 308.86 C 1254.43 304.13 1270.29 304.81 1281.07 313.85 C 1283.57 324.17 1284.88 335.39 1291.96 343.96 C 1295.05 349.15 1300.88 351.93 1304.04 357.01 C 1296.55 371.17 1289.02 385.50 1279.29 398.30 C 1275.43 404.15 1266.31 402.57 1262.90 408.90 C 1258.60 413.44 1260.21 419.70 1259.90 425.30 C 1255.68 435.33 1249.38 444.35 1243.48 453.45 C 1238.89 459.55 1240.76 467.53 1239.16 474.54 C 1235.50 469.38 1232.67 463.44 1227.63 459.44 C 1219.05 452.58 1210.72 445.39 1201.55 439.32 C 1196.65 436.61 1195.66 429.49 1199.52 425.37 C 1202.59 419.74 1208.72 412.60 1203.79 406.20 C 1196.86 397.29 1188.89 388.14 1188.38 376.24 C 1189.68 369.07 1190.32 361.67 1192.68 354.73 C 1194.13 348.79 1202.12 350.42 1206.37 349.00 C 1201.34 339.07 1192.00 330.48 1192.61 318.53 C 1193.97 310.50 1204.10 313.04 1210.19 312.20 C 1208.82 308.07 1207.26 304.01 1205.78 299.92 C 1206.13 299.48 1206.83 298.61 1207.18 298.17 Z" />
</g>
<g id="#7f9f7fff">
<path fill="#7f9f7f" fill-opacity="0" d=" M 1061.03 335.05 C 1068.04 333.27 1076.26 332.27 1082.67 336.46 C 1088.80 340.85 1093.38 347.00 1098.98 352.02 C 1105.57 358.64 1114.60 361.79 1123.13 365.11 C 1131.04 368.86 1140.01 365.82 1148.41 366.84 C 1161.97 368.54 1176.38 368.88 1188.38 376.24 C 1188.89 388.14 1196.86 397.29 1203.79 406.20 C 1208.72 412.60 1202.59 419.74 1199.52 425.37 C 1195.66 429.49 1196.65 436.61 1201.55 439.32 C 1210.72 445.39 1219.05 452.58 1227.63 459.44 C 1232.67 463.44 1235.50 469.38 1239.16 474.54 C 1234.43 486.40 1227.53 497.17 1219.43 507.00 C 1218.06 502.93 1216.95 498.83 1215.73 494.75 C 1199.08 495.32 1182.64 498.40 1165.98 498.87 C 1158.46 499.36 1150.93 499.19 1143.43 499.72 C 1146.31 494.73 1145.45 487.82 1140.24 484.74 C 1130.25 477.45 1117.58 484.49 1107.41 488.11 C 1105.71 482.02 1101.29 476.68 1101.92 470.03 C 1101.64 467.13 1102.44 464.08 1101.51 461.27 C 1098.96 457.02 1094.82 454.06 1091.27 450.74 C 1083.22 443.72 1075.97 435.85 1068.19 428.56 C 1064.14 424.78 1058.41 423.46 1054.44 419.65 C 1052.48 416.05 1052.96 411.74 1051.88 407.88 C 1051.13 404.36 1048.47 401.78 1046.17 399.21 C 1050.99 390.54 1060.82 384.58 1061.28 373.80 C 1062.76 368.78 1060.45 363.93 1059.79 359.02 C 1059.92 351.20 1062.62 343.74 1064.93 336.35 C 1063.61 335.92 1062.32 335.49 1061.03 335.05 Z" />
</g>
<g id="#dfbf3fff">
<path fill="#dfbf3f" fill-opacity="0" d=" M 939.36 364.04 C 950.64 365.76 957.54 376.72 968.22 380.12 C 973.89 382.78 980.22 382.16 986.24 383.15 C 995.83 385.69 999.44 396.12 1005.39 402.90 C 1012.54 397.81 1014.96 385.62 1025.02 385.40 C 1031.79 385.44 1032.85 393.41 1034.47 398.43 C 1030.93 403.23 1026.48 407.71 1024.78 413.59 C 1023.18 419.30 1023.35 425.35 1021.81 431.08 C 1020.29 436.74 1013.51 438.72 1011.70 444.16 C 1010.09 452.48 1013.71 460.68 1013.29 469.00 C 1012.18 475.23 1008.19 480.46 1003.49 484.50 C 995.16 491.73 992.10 502.76 985.72 511.46 C 981.46 512.47 977.08 513.56 972.67 513.26 C 965.05 511.80 959.09 506.10 951.75 503.94 C 943.23 505.36 935.08 511.46 926.10 508.91 C 921.49 506.07 918.16 501.11 912.72 499.66 C 908.45 499.05 903.32 500.06 901.07 504.12 C 897.58 509.56 898.98 516.24 897.56 522.27 C 891.38 515.84 883.79 510.73 878.75 503.26 C 875.52 498.74 873.06 493.69 869.36 489.54 C 866.38 486.72 862.99 484.40 859.63 482.10 C 861.52 478.16 862.98 473.70 860.82 469.53 C 859.41 470.55 858.09 471.72 856.54 472.50 C 852.68 471.50 849.32 469.15 845.81 467.35 C 846.05 465.46 845.16 463.58 843.63 462.50 L 843.75 461.99 C 844.19 460.60 843.75 459.15 843.18 457.89 L 842.93 457.20 C 842.21 452.72 841.58 448.24 840.72 443.80 C 844.08 440.85 846.75 437.11 850.44 434.54 C 856.64 433.95 863.26 436.83 869.04 433.46 C 872.74 438.57 876.31 443.82 880.40 448.66 C 881.49 450.30 884.46 450.53 885.34 448.39 C 888.82 444.65 893.66 440.20 892.65 434.57 C 891.47 423.15 889.41 411.85 888.13 400.45 C 895.66 406.37 901.41 414.31 907.05 421.98 C 911.85 429.91 914.75 438.78 918.91 447.04 C 920.36 447.02 921.82 447.00 923.30 447.00 C 923.08 439.93 921.73 432.97 920.26 426.08 C 918.16 411.54 915.64 395.97 922.44 382.25 C 926.25 375.20 930.77 365.90 939.36 364.04 M 920.12 464.91 C 919.41 466.18 918.73 467.47 918.08 468.77 C 918.78 469.49 919.50 470.22 920.23 470.94 C 921.47 470.27 922.72 469.59 923.97 468.91 C 923.97 468.22 923.96 466.82 923.95 466.13 C 922.66 465.72 921.39 465.31 920.12 464.91 Z" />
</g>
<g id="#df3f3fff">
<path fill="#df3f3f" fill-opacity="0" d=" M 1034.47 398.43 C 1038.37 398.66 1042.24 398.92 1046.17 399.21 C 1048.47 401.78 1051.13 404.36 1051.88 407.88 C 1052.96 411.74 1052.48 416.05 1054.44 419.65 C 1058.41 423.46 1064.14 424.78 1068.19 428.56 C 1075.97 435.85 1083.22 443.72 1091.27 450.74 C 1094.82 454.06 1098.96 457.02 1101.51 461.27 C 1102.44 464.08 1101.64 467.13 1101.92 470.03 C 1101.29 476.68 1105.71 482.02 1107.41 488.11 C 1107.15 494.85 1108.51 501.43 1110.06 507.93 C 1111.30 512.66 1105.91 517.50 1101.33 516.84 C 1091.14 515.35 1083.06 507.93 1072.75 506.59 C 1069.64 520.84 1069.78 537.02 1059.45 548.47 C 1047.62 558.42 1032.39 569.22 1015.96 565.33 C 1019.85 558.52 1023.98 551.39 1024.25 543.32 C 1022.77 534.98 1015.33 529.25 1007.88 526.29 C 999.58 522.86 992.19 517.63 985.72 511.46 C 992.10 502.76 995.16 491.73 1003.49 484.50 C 1008.19 480.46 1012.18 475.23 1013.29 469.00 C 1013.71 460.68 1010.09 452.48 1011.70 444.16 C 1013.51 438.72 1020.29 436.74 1021.81 431.08 C 1023.35 425.35 1023.18 419.30 1024.78 413.59 C 1026.48 407.71 1030.93 403.23 1034.47 398.43 M 1038.36 483.47 C 1038.27 485.60 1038.17 487.73 1038.11 489.87 C 1041.30 489.25 1043.89 487.25 1045.95 484.81 C 1043.45 484.15 1040.92 483.68 1038.36 483.47 Z" />
</g>
<g id="#7f9f00ff">
<path fill="#7f9f00" fill-opacity="0" d=" M 799.56 431.81 C 810.78 427.07 821.80 421.85 833.00 417.05 C 836.06 430.49 838.55 444.11 842.93 457.20 L 843.18 457.89 C 841.52 458.95 841.80 461.45 843.75 461.99 L 843.63 462.50 C 842.65 464.49 843.75 466.68 845.81 467.35 C 849.32 469.15 852.68 471.50 856.54 472.50 C 858.09 471.72 859.41 470.55 860.82 469.53 C 862.98 473.70 861.52 478.16 859.63 482.10 C 856.25 483.33 852.81 485.14 849.11 484.68 C 844.70 484.18 840.40 483.11 836.02 482.48 C 836.42 490.00 841.15 499.36 834.39 505.39 C 828.15 510.86 819.84 507.00 812.76 505.77 C 806.31 504.71 798.46 502.53 793.40 508.21 C 787.60 515.95 785.28 526.44 777.15 532.35 C 770.04 534.56 764.59 528.17 757.93 527.18 C 753.00 524.98 747.67 525.83 742.70 527.16 C 742.67 532.17 742.76 537.33 740.94 542.11 C 738.14 547.56 733.94 552.09 730.13 556.83 C 722.06 552.81 713.04 551.62 704.41 549.41 C 701.21 548.75 699.33 545.86 697.64 543.34 C 694.39 538.21 691.66 532.76 688.21 527.76 C 687.03 525.66 685.23 523.65 685.16 521.13 C 685.79 517.15 689.25 514.64 691.37 511.49 C 691.08 502.91 685.11 495.99 681.55 488.55 C 680.32 483.48 682.73 477.86 686.10 474.06 C 694.07 468.15 705.22 472.31 713.44 467.44 C 717.57 461.80 719.02 454.70 722.01 448.45 C 726.42 447.62 731.53 448.83 735.55 446.33 C 741.38 443.20 747.15 439.26 753.81 438.29 C 763.47 437.63 771.29 443.87 778.85 448.89 C 784.82 442.19 791.11 435.40 799.56 431.81 Z" />
</g>
<g id="#402000ff">
<path fill="#402000" fill-opacity="0" d=" M 843.18 457.89 C 843.75 459.15 844.19 460.60 843.75 461.99 C 841.80 461.45 841.52 458.95 843.18 457.89 Z" />
</g>
<g id="#3f1f00fe">
<path fill="#3f1f00" fill-opacity="0" d=" M 845.81 467.35 C 843.75 466.68 842.65 464.49 843.63 462.50 C 845.16 463.58 846.05 465.46 845.81 467.35 Z" />
</g>
<g id="#5f3fbfff">
<path fill="#5f3fbf" fill-opacity="0" d=" M 920.12 464.91 C 921.39 465.31 922.66 465.72 923.95 466.13 C 923.96 466.82 923.97 468.22 923.97 468.91 C 922.72 469.59 921.47 470.27 920.23 470.94 C 919.50 470.22 918.78 469.49 918.08 468.77 C 918.73 467.47 919.41 466.18 920.12 464.91 Z" />
</g>
<g id="#9f3fbfff">
<path fill="#9f3fbf" fill-opacity="0" d=" M 1107.41 488.11 C 1117.58 484.49 1130.25 477.45 1140.24 484.74 C 1145.45 487.82 1146.31 494.73 1143.43 499.72 C 1142.08 503.71 1140.18 507.78 1140.49 512.09 C 1142.17 517.94 1150.09 520.01 1150.62 526.43 C 1151.64 534.78 1153.08 543.09 1153.69 551.49 C 1156.31 559.58 1145.67 565.38 1149.44 573.42 C 1151.44 579.33 1158.63 575.58 1163.21 575.62 C 1166.57 579.72 1172.12 583.54 1171.67 589.54 C 1171.52 599.55 1170.49 609.55 1169.74 619.53 C 1170.28 634.73 1155.17 643.16 1150.99 656.70 C 1144.63 660.16 1137.90 663.12 1130.68 664.19 C 1131.76 658.96 1133.95 654.07 1136.46 649.38 C 1133.87 648.00 1131.30 645.28 1128.11 646.18 C 1125.97 646.59 1123.90 647.25 1121.82 647.87 C 1119.15 643.74 1117.16 638.94 1113.33 635.72 C 1108.17 633.07 1101.95 634.20 1096.38 633.77 C 1089.78 634.32 1085.48 640.18 1080.83 644.22 C 1072.75 636.94 1066.80 627.20 1056.96 622.02 C 1049.83 620.14 1042.85 623.52 1036.21 625.64 C 1033.18 617.84 1032.52 607.23 1023.77 603.32 C 1020.08 613.49 1016.74 624.07 1017.15 635.03 C 1012.07 628.91 1004.62 624.24 1001.79 616.48 C 999.43 608.85 995.82 601.71 991.93 594.77 C 997.75 593.60 1004.41 589.50 1004.50 582.92 C 1003.29 576.82 1000.45 571.14 999.59 564.93 C 1005.03 564.98 1010.49 565.11 1015.96 565.33 C 1032.39 569.22 1047.62 558.42 1059.45 548.47 C 1069.78 537.02 1069.64 520.84 1072.75 506.59 C 1083.06 507.93 1091.14 515.35 1101.33 516.84 C 1105.91 517.50 1111.30 512.66 1110.06 507.93 C 1108.51 501.43 1107.15 494.85 1107.41 488.11 M 1075.04 568.02 C 1074.26 569.54 1073.47 571.05 1072.73 572.59 C 1074.36 572.70 1076.02 572.84 1077.69 572.65 C 1078.59 571.24 1079.12 569.63 1079.76 568.10 C 1078.17 568.06 1076.60 568.03 1075.04 568.02 Z" />
</g>
<g id="#001f7fff">
<path fill="#001f7f" fill-opacity="0" d=" M 836.02 482.48 C 840.40 483.11 844.70 484.18 849.11 484.68 C 852.81 485.14 856.25 483.33 859.63 482.10 C 862.99 484.40 866.38 486.72 869.36 489.54 C 873.06 493.69 875.52 498.74 878.75 503.26 C 883.79 510.73 891.38 515.84 897.56 522.27 C 896.36 527.25 893.43 531.52 891.02 535.97 C 888.47 540.52 890.53 545.87 890.94 550.74 C 877.74 561.08 863.33 570.04 852.23 582.83 C 840.28 573.04 831.22 559.34 816.44 553.45 C 812.97 551.95 808.33 553.67 807.31 557.49 C 804.75 563.82 811.20 569.37 810.54 575.71 C 808.49 579.11 803.74 579.69 800.04 579.57 C 791.39 578.80 783.03 576.00 774.32 575.59 C 765.15 573.49 758.37 580.87 751.17 585.10 C 753.72 589.63 756.12 594.23 758.46 598.88 C 755.11 597.20 751.14 596.27 748.48 593.57 C 741.13 581.97 735.94 569.22 730.13 556.83 C 733.94 552.09 738.14 547.56 740.94 542.11 C 742.76 537.33 742.67 532.17 742.70 527.16 C 747.67 525.83 753.00 524.98 757.93 527.18 C 764.59 528.17 770.04 534.56 777.15 532.35 C 785.28 526.44 787.60 515.95 793.40 508.21 C 798.46 502.53 806.31 504.71 812.76 505.77 C 819.84 507.00 828.15 510.86 834.39 505.39 C 841.15 499.36 836.42 490.00 836.02 482.48 Z" />
</g>
<g id="#5fbf3fff">
<path fill="#5fbf3f" fill-opacity="0" d=" M 1038.36 483.47 C 1040.92 483.68 1043.45 484.15 1045.95 484.81 C 1043.89 487.25 1041.30 489.25 1038.11 489.87 C 1038.17 487.73 1038.27 485.60 1038.36 483.47 Z" />
</g>
<g id="#009f00ff">
<path fill="#009f00" fill-opacity="0" d=" M 1165.98 498.87 C 1182.64 498.40 1199.08 495.32 1215.73 494.75 C 1216.95 498.83 1218.06 502.93 1219.43 507.00 C 1221.80 513.40 1226.74 518.52 1229.29 524.85 C 1224.56 534.53 1216.15 543.35 1217.23 554.95 C 1219.68 564.20 1227.57 571.06 1230.73 579.91 C 1228.03 590.02 1219.26 597.15 1214.43 606.27 C 1210.84 604.88 1207.50 602.25 1203.51 602.30 C 1199.99 606.92 1197.52 612.17 1195.13 617.41 C 1194.27 617.95 1193.74 618.71 1193.52 619.69 C 1192.01 623.43 1189.25 626.72 1189.31 631.00 C 1189.60 636.98 1192.60 642.75 1191.75 648.82 C 1190.87 655.74 1193.26 662.54 1191.75 669.47 C 1187.51 665.15 1182.87 660.72 1176.84 659.19 C 1168.44 656.99 1159.62 656.26 1150.99 656.70 C 1155.17 643.16 1170.28 634.73 1169.74 619.53 C 1170.49 609.55 1171.52 599.55 1171.67 589.54 C 1172.12 583.54 1166.57 579.72 1163.21 575.62 C 1158.63 575.58 1151.44 579.33 1149.44 573.42 C 1145.67 565.38 1156.31 559.58 1153.69 551.49 C 1153.08 543.09 1151.64 534.78 1150.62 526.43 C 1150.09 520.01 1142.17 517.94 1140.49 512.09 C 1140.18 507.78 1142.08 503.71 1143.43 499.72 C 1150.93 499.19 1158.46 499.36 1165.98 498.87 Z" />
</g>
<g id="#3f9f00ff">
<path fill="#3f9f00" fill-opacity="0" d=" M 901.07 504.12 C 903.32 500.06 908.45 499.05 912.72 499.66 C 918.16 501.11 921.49 506.07 926.10 508.91 C 935.08 511.46 943.23 505.36 951.75 503.94 C 959.09 506.10 965.05 511.80 972.67 513.26 C 977.08 513.56 981.46 512.47 985.72 511.46 C 992.19 517.63 999.58 522.86 1007.88 526.29 C 1015.33 529.25 1022.77 534.98 1024.25 543.32 C 1023.98 551.39 1019.85 558.52 1015.96 565.33 C 1010.49 565.11 1005.03 564.98 999.59 564.93 C 1000.45 571.14 1003.29 576.82 1004.50 582.92 C 1004.41 589.50 997.75 593.60 991.93 594.77 C 985.53 594.38 978.93 593.31 972.71 595.35 C 964.48 597.89 956.37 600.82 948.06 603.08 C 940.34 605.43 934.33 611.12 928.42 616.35 C 924.86 612.76 920.40 609.80 918.01 605.26 C 915.61 596.98 922.60 587.75 916.95 580.10 C 910.56 568.58 900.79 559.31 890.94 550.74 C 890.53 545.87 888.47 540.52 891.02 535.97 C 893.43 531.52 896.36 527.25 897.56 522.27 C 898.98 516.24 897.58 509.56 901.07 504.12 Z" />
</g>
<g id="#9fbfbfff">
<path fill="#9fbfbf" fill-opacity="0" d=" M 852.23 582.83 C 863.33 570.04 877.74 561.08 890.94 550.74 C 900.79 559.31 910.56 568.58 916.95 580.10 C 922.60 587.75 915.61 596.98 918.01 605.26 C 920.40 609.80 924.86 612.76 928.42 616.35 C 928.30 621.38 928.15 626.42 927.56 631.42 C 927.20 634.42 926.32 637.77 923.60 639.48 C 919.79 642.28 914.64 643.68 912.11 647.96 C 908.58 658.63 910.21 670.07 908.60 681.04 C 908.10 686.17 902.34 687.56 898.62 689.83 C 897.25 698.64 895.63 707.48 895.54 716.44 C 895.36 725.63 894.95 735.23 890.54 743.52 C 887.50 740.15 885.11 736.00 884.52 731.46 C 883.93 728.05 883.79 724.27 881.52 721.47 C 874.73 718.19 867.09 723.64 860.20 720.80 C 855.35 718.39 856.79 712.21 856.24 707.70 C 853.74 707.22 851.16 706.17 848.61 706.73 C 844.14 709.18 840.70 713.44 838.82 718.16 C 835.73 726.80 831.47 734.96 827.70 743.32 C 823.06 736.52 819.24 729.16 816.54 721.39 C 814.81 715.40 815.42 709.09 815.90 702.98 C 820.61 703.42 826.85 707.14 830.39 702.40 C 833.67 698.07 837.66 694.14 840.18 689.27 C 841.21 684.88 840.77 680.37 840.36 675.94 C 835.92 675.98 831.56 675.98 827.16 676.05 C 825.20 679.39 823.52 682.98 821.04 685.96 C 813.59 689.47 804.50 689.41 797.91 683.98 C 783.67 671.26 771.79 655.84 763.16 638.79 C 760.75 634.55 762.53 629.70 762.26 625.16 C 761.35 620.65 758.29 616.77 758.41 612.00 C 757.92 607.70 760.64 602.97 758.46 598.88 C 756.12 594.23 753.72 589.63 751.17 585.10 C 758.37 580.87 765.15 573.49 774.32 575.59 C 783.03 576.00 791.39 578.80 800.04 579.57 C 803.74 579.69 808.49 579.11 810.54 575.71 C 811.20 569.37 804.75 563.82 807.31 557.49 C 808.33 553.67 812.97 551.95 816.44 553.45 C 831.22 559.34 840.28 573.04 852.23 582.83 M 839.76 627.94 C 842.06 626.27 843.75 623.98 844.74 621.32 C 841.19 621.93 839.47 624.41 839.76 627.94 Z" />
</g>
<g id="#1fbfbfff">
<path fill="#1fbfbf" fill-opacity="0" d=" M 1075.04 568.02 C 1076.60 568.03 1078.17 568.06 1079.76 568.10 C 1079.12 569.63 1078.59 571.24 1077.69 572.65 C 1076.02 572.84 1074.36 572.70 1072.73 572.59 C 1073.47 571.05 1074.26 569.54 1075.04 568.02 Z" />
</g>
<g id="#bf1f00ff">
<path fill="#bf1f00" fill-opacity="0" d=" M 972.71 595.35 C 978.93 593.31 985.53 594.38 991.93 594.77 C 995.82 601.71 999.43 608.85 1001.79 616.48 C 1004.62 624.24 1012.07 628.91 1017.15 635.03 C 1018.27 638.29 1019.36 641.58 1019.90 644.99 C 1020.81 651.85 1021.85 658.76 1021.61 665.71 C 1021.45 670.32 1019.91 675.17 1016.32 678.26 C 1014.17 679.43 1011.59 679.01 1009.24 679.22 C 1007.82 686.23 1006.23 693.34 1002.52 699.55 C 997.03 708.88 992.31 718.62 987.00 728.03 C 984.92 733.07 980.00 736.57 974.72 737.40 C 966.98 737.74 958.29 731.91 951.17 737.11 C 947.69 741.42 946.66 747.17 944.18 752.04 C 936.92 751.80 929.54 749.47 922.34 751.34 C 917.62 752.48 915.75 757.54 913.31 761.16 C 905.93 754.99 898.18 749.34 890.54 743.52 C 894.95 735.23 895.36 725.63 895.54 716.44 C 895.63 707.48 897.25 698.64 898.62 689.83 C 902.34 687.56 908.10 686.17 908.60 681.04 C 910.21 670.07 908.58 658.63 912.11 647.96 C 914.64 643.68 919.79 642.28 923.60 639.48 C 926.32 637.77 927.20 634.42 927.56 631.42 C 928.15 626.42 928.30 621.38 928.42 616.35 C 934.33 611.12 940.34 605.43 948.06 603.08 C 956.37 600.82 964.48 597.89 972.71 595.35 Z" />
</g>
<g id="#009f7fff">
<path fill="#009f7f" fill-opacity="0" d=" M 1023.77 603.32 C 1032.52 607.23 1033.18 617.84 1036.21 625.64 C 1042.85 623.52 1049.83 620.14 1056.96 622.02 C 1066.80 627.20 1072.75 636.94 1080.83 644.22 C 1085.48 640.18 1089.78 634.32 1096.38 633.77 C 1101.95 634.20 1108.17 633.07 1113.33 635.72 C 1117.16 638.94 1119.15 643.74 1121.82 647.87 C 1123.90 647.25 1125.97 646.59 1128.11 646.18 C 1131.30 645.28 1133.87 648.00 1136.46 649.38 C 1133.95 654.07 1131.76 658.96 1130.68 664.19 C 1137.90 663.12 1144.63 660.16 1150.99 656.70 C 1159.62 656.26 1168.44 656.99 1176.84 659.19 C 1182.87 660.72 1187.51 665.15 1191.75 669.47 C 1195.66 673.61 1199.66 677.67 1203.44 681.95 C 1197.67 691.07 1190.33 699.94 1179.86 703.73 C 1176.43 703.62 1173.29 702.01 1170.09 700.96 C 1166.93 702.87 1163.80 704.86 1160.59 706.63 C 1159.58 706.99 1158.99 707.70 1158.82 708.75 C 1153.79 717.21 1148.66 728.00 1138.36 730.96 C 1134.52 726.83 1130.55 722.88 1126.74 718.75 C 1118.32 722.02 1109.76 726.73 1106.38 735.70 C 1104.67 735.70 1101.25 735.70 1099.54 735.69 C 1101.30 731.89 1102.68 727.92 1104.20 724.02 C 1097.98 718.12 1091.21 712.83 1084.34 707.71 C 1080.66 704.97 1077.04 701.52 1076.11 696.84 C 1074.64 689.52 1073.34 681.91 1068.33 676.05 C 1061.46 677.35 1053.91 678.94 1047.87 674.43 C 1049.20 670.80 1051.08 667.28 1051.48 663.38 C 1041.83 655.95 1029.99 651.85 1019.90 644.99 C 1019.36 641.58 1018.27 638.29 1017.15 635.03 C 1016.74 624.07 1020.08 613.49 1023.77 603.32 Z" />
</g>
<g id="#2a8a55ff">
<path fill="#2a8a55" fill-opacity="0" d=" M 1193.52 619.69 C 1193.74 618.71 1194.27 617.95 1195.13 617.41 C 1195.86 619.08 1195.33 619.84 1193.52 619.69 Z" />
</g>
<g id="#5f3f3fff">
<path fill="#5f3f3f" fill-opacity="0" d=" M 839.76 627.94 C 839.47 624.41 841.19 621.93 844.74 621.32 C 843.75 623.98 842.06 626.27 839.76 627.94 Z" />
</g>
<g id="#df3fbfff">
<path fill="#df3fbf" fill-opacity="0" d=" M 1019.90 644.99 C 1029.99 651.85 1041.83 655.95 1051.48 663.38 C 1051.08 667.28 1049.20 670.80 1047.87 674.43 C 1053.91 678.94 1061.46 677.35 1068.33 676.05 C 1073.34 681.91 1074.64 689.52 1076.11 696.84 C 1077.04 701.52 1080.66 704.97 1084.34 707.71 C 1091.21 712.83 1097.98 718.12 1104.20 724.02 C 1102.68 727.92 1101.30 731.89 1099.54 735.69 C 1095.76 742.82 1091.15 749.77 1084.68 754.75 C 1082.21 756.97 1079.49 752.78 1076.88 753.94 C 1071.12 757.18 1064.95 760.33 1060.49 765.28 C 1057.92 768.61 1058.38 775.72 1053.16 776.00 C 1049.67 776.65 1045.60 776.43 1042.96 779.22 C 1043.68 785.56 1050.88 788.09 1053.92 793.18 C 1053.72 797.04 1051.48 800.42 1049.42 803.56 C 1047.41 806.60 1043.20 805.03 1040.18 805.31 C 1036.45 813.36 1032.08 821.09 1028.11 829.03 C 1026.74 832.23 1023.82 834.16 1020.87 835.73 C 1021.39 840.52 1022.27 845.28 1022.93 850.07 C 1023.72 853.57 1020.50 856.23 1019.07 859.10 C 1016.78 862.16 1015.43 865.76 1014.42 869.42 C 1007.68 863.97 1000.07 859.14 995.44 851.61 C 989.06 841.43 984.17 830.05 975.43 821.57 C 962.99 809.72 948.23 800.46 932.56 793.49 C 925.44 790.00 918.48 785.74 913.29 779.66 C 908.45 774.63 911.18 766.85 913.31 761.16 C 915.75 757.54 917.62 752.48 922.34 751.34 C 929.54 749.47 936.92 751.80 944.18 752.04 C 946.66 747.17 947.69 741.42 951.17 737.11 C 958.29 731.91 966.98 737.74 974.72 737.40 C 980.00 736.57 984.92 733.07 987.00 728.03 C 992.31 718.62 997.03 708.88 1002.52 699.55 C 1006.23 693.34 1007.82 686.23 1009.24 679.22 C 1011.59 679.01 1014.17 679.43 1016.32 678.26 C 1019.91 675.17 1021.45 670.32 1021.61 665.71 C 1021.85 658.76 1020.81 651.85 1019.90 644.99 M 1006.46 710.54 C 1001.45 713.58 1002.64 720.27 1001.19 725.24 C 1005.89 726.69 1010.68 728.47 1015.65 728.54 C 1018.69 726.19 1022.92 724.03 1023.68 719.87 C 1025.00 712.30 1025.47 704.62 1026.52 697.02 C 1019.82 701.51 1013.03 705.86 1006.46 710.54 Z" />
</g>
<g id="#5fbfbfff">
<path fill="#5fbfbf" fill-opacity="0" d=" M 1006.46 710.54 C 1013.03 705.86 1019.82 701.51 1026.52 697.02 C 1025.47 704.62 1025.00 712.30 1023.68 719.87 C 1022.92 724.03 1018.69 726.19 1015.65 728.54 C 1010.68 728.47 1005.89 726.69 1001.19 725.24 C 1002.64 720.27 1001.45 713.58 1006.46 710.54 Z" />
</g>
<g id="#7f1f00ff">
<path fill="#7f1f00" fill-opacity="0" d=" M 848.61 706.73 C 851.16 706.17 853.74 707.22 856.24 707.70 C 856.79 712.21 855.35 718.39 860.20 720.80 C 867.09 723.64 874.73 718.19 881.52 721.47 C 883.79 724.27 883.93 728.05 884.52 731.46 C 885.11 736.00 887.50 740.15 890.54 743.52 C 898.18 749.34 905.93 754.99 913.31 761.16 C 911.18 766.85 908.45 774.63 913.29 779.66 C 918.48 785.74 925.44 790.00 932.56 793.49 C 948.23 800.46 962.99 809.72 975.43 821.57 C 984.17 830.05 989.06 841.43 995.44 851.61 C 1000.07 859.14 1007.68 863.97 1014.42 869.42 L 1015.30 870.10 C 1009.88 877.18 1009.42 886.37 1010.99 894.86 C 1013.00 895.38 1015.01 895.90 1017.04 896.41 C 1015.05 903.67 1013.16 911.49 1006.11 915.65 C 1006.69 918.57 1007.28 921.47 1007.91 924.42 C 1003.93 926.05 999.78 927.20 995.70 928.54 C 993.22 924.43 988.99 922.17 984.51 920.84 C 983.15 914.67 975.96 911.96 970.35 913.22 C 966.66 916.08 965.00 921.12 960.90 923.42 C 953.37 923.65 945.84 923.00 938.34 922.78 C 934.14 917.71 931.04 911.27 925.25 907.81 C 920.51 906.71 915.00 903.69 910.24 906.16 C 908.00 908.22 906.90 911.19 905.43 913.80 C 901.44 913.31 897.47 912.66 893.50 912.24 C 890.04 915.84 887.29 920.39 882.86 922.88 C 877.81 922.51 873.54 919.31 869.19 917.00 C 867.78 908.21 870.70 897.14 863.91 890.13 C 854.77 880.23 844.16 871.60 836.62 860.33 C 833.24 855.20 828.87 850.84 825.43 845.76 C 819.90 846.34 816.04 842.07 812.02 838.97 C 812.13 834.05 813.10 829.08 812.37 824.19 C 811.04 821.36 808.66 819.20 806.81 816.72 C 810.15 811.11 813.44 805.46 816.29 799.58 C 810.77 795.78 805.61 791.42 801.44 786.16 C 810.98 783.47 824.11 784.28 829.26 774.17 C 833.83 765.15 827.80 755.40 823.15 747.73 C 824.76 746.39 826.91 745.40 827.70 743.32 C 831.47 734.96 835.73 726.80 838.82 718.16 C 840.70 713.44 844.14 709.18 848.61 706.73 Z" />
</g>
<g id="#94357fff">
<path fill="#94357f" fill-opacity="0" d=" M 1158.82 708.75 C 1158.99 707.70 1159.58 706.99 1160.59 706.63 C 1161.11 708.28 1160.52 708.99 1158.82 708.75 Z" />
</g>
<g id="#df5f7fff">
<path fill="#df5f7f" fill-opacity="0" d=" M 0.00 1079.00 C 25.56 1079.37 51.17 1078.05 76.70 1079.92 L 77.90 1080.00 L 0.00 1080.00 L 0.00 1079.00 Z" />
</g>
<g id="#3fbf5fff">
<path fill="#3fbf5f" fill-opacity="0" d=" M 76.70 1079.92 C 100.00 1078.35 123.44 1078.48 146.75 1079.95 L 147.75 1080.00 L 77.90 1080.00 L 76.70 1079.92 Z" />
<path fill="#3fbf5f" fill-opacity="0" d=" M 156.19 1079.98 C 162.02 1079.79 167.85 1079.79 173.68 1079.95 L 174.94 1080.00 L 155.20 1080.00 L 156.19 1079.98 Z" />
</g>
<g id="#9fdf7fff">
<path fill="#9fdf7f" fill-opacity="0" d=" M 146.75 1079.95 C 149.90 1080.00 153.03 1079.90 156.19 1079.98 L 155.20 1080.00 L 147.75 1080.00 L 146.75 1079.95 Z" />
</g>
<g id="#1f9f7ffe">
<path fill="#1f9f7f" fill-opacity="0" d=" M 173.68 1079.95 C 192.05 1078.07 210.57 1079.28 229.00 1079.01 C 252.57 1079.30 276.19 1078.11 299.72 1079.93 L 300.92 1080.00 L 174.94 1080.00 L 173.68 1079.95 Z" />
</g>
<g id="#df1f9fff">
<path fill="#df1f9f" fill-opacity="0" d=" M 299.72 1079.93 C 327.68 1078.42 355.77 1078.40 383.72 1079.93 L 384.92 1080.00 L 300.92 1080.00 L 299.72 1079.93 Z" />
</g>
<g id="#005f9fff">
<path fill="#005f9f" fill-opacity="0" d=" M 383.72 1079.93 C 415.01 1078.41 446.44 1078.39 477.72 1079.93 L 478.92 1080.00 L 384.92 1080.00 L 383.72 1079.93 Z" />
</g>
<g id="#00dfdfff">
<path fill="#00dfdf" fill-opacity="0" d=" M 477.72 1079.93 C 510.66 1078.40 543.75 1078.41 576.69 1079.92 L 577.89 1080.00 L 478.92 1080.00 L 477.72 1079.93 Z" />
</g>
<g id="#9f9f9fff">
<path fill="#9f9f9f" fill-opacity="0" d=" M 576.69 1079.92 C 603.63 1078.21 630.74 1078.57 657.70 1079.92 L 658.86 1080.00 L 577.89 1080.00 L 576.69 1079.92 Z" />
</g>
<g id="#1f1f1fff">
<path fill="#1f1f1f" fill-opacity="0" d=" M 657.70 1079.92 C 667.78 1079.08 677.89 1078.97 688.00 1079.50 L 688.38 1080.00 L 658.86 1080.00 L 657.70 1079.92 Z" />
</g>
<g id="#7f9fdfff">
<path fill="#7f9fdf" fill-opacity="0" d=" M 688.00 1079.50 C 689.49 1078.41 691.51 1078.41 693.02 1079.50 L 692.64 1080.00 L 688.38 1080.00 L 688.00 1079.50 Z" />
</g>
<g id="#bfdf9fff">
<path fill="#bfdf9f" fill-opacity="0" d=" M 693.02 1079.50 C 705.73 1078.78 718.47 1078.99 731.17 1079.92 L 730.05 1080.00 L 692.64 1080.00 L 693.02 1079.50 Z" />
</g>
<g id="#9fdf9fff">
<path fill="#9fdf9f" fill-opacity="0" d=" M 731.17 1079.92 C 755.65 1078.32 780.26 1078.50 804.76 1079.93 L 805.89 1080.00 L 730.05 1080.00 L 731.17 1079.92 Z" />
</g>
<g id="#5f9f1fff">
<path fill="#5f9f1f" fill-opacity="0" d=" M 804.76 1079.93 C 820.84 1078.71 836.99 1078.80 853.11 1079.26 L 853.51 1080.00 L 805.89 1080.00 L 804.76 1079.93 Z" />
</g>
<g id="#9f2020ff">
<path fill="#9f2020" fill-opacity="0" d=" M 853.11 1079.26 C 854.40 1078.36 855.43 1078.61 856.21 1080.00 L 853.51 1080.00 L 853.11 1079.26 Z" />
</g>
<g id="#9f201fff">
<path fill="#9f201f" fill-opacity="0" d=" M 857.06 1080.00 C 857.70 1078.62 858.67 1078.35 859.97 1079.21 L 859.88 1080.00 L 857.06 1080.00 Z" />
</g>
<g id="#bf5f9fff">
<path fill="#bf5f9f" fill-opacity="0" d=" M 859.97 1079.21 C 861.30 1078.50 862.59 1078.59 863.84 1079.48 L 863.39 1080.00 L 859.88 1080.00 L 859.97 1079.21 Z" />
<path fill="#bf5f9f" fill-opacity="0" d=" M 873.00 1079.38 C 874.32 1078.53 875.66 1078.52 877.01 1079.37 L 876.68 1080.00 L 873.33 1080.00 L 873.00 1079.38 Z" />
</g>
<g id="#5f9f20ff">
<path fill="#5f9f20" fill-opacity="0" d=" M 863.84 1079.48 C 866.90 1079.45 869.86 1079.31 873.00 1079.38 L 873.33 1080.00 L 863.39 1080.00 L 863.84 1079.48 Z" />
</g>
<g id="#9f1f00ff">
<path fill="#9f1f00" fill-opacity="0" d=" M 877.01 1079.37 C 906.99 1078.65 936.99 1079.06 966.99 1079.01 L 967.04 1080.00 L 876.68 1080.00 L 877.01 1079.37 Z" />
</g>
<g id="#bf5f3fff">
<path fill="#bf5f3f" fill-opacity="0" d=" M 966.99 1079.01 C 974.06 1079.20 981.14 1079.63 988.24 1080.00 L 967.04 1080.00 L 966.99 1079.01 Z" />
<path fill="#bf5f3f" fill-opacity="0" d=" M 1018.19 1079.93 C 1035.68 1078.43 1053.26 1078.54 1070.76 1079.94 L 1071.90 1080.00 L 1017.06 1080.00 L 1018.19 1079.93 Z" />
</g>
<g id="#bfdfbffe">
<path fill="#bfdfbf" fill-opacity="0" d=" M 989.61 1080.00 C 999.12 1079.37 1008.66 1079.35 1018.19 1079.93 L 1017.06 1080.00 L 989.61 1080.00 Z" />
</g>
<g id="#00dfbfff">
<path fill="#00dfbf" fill-opacity="0" d=" M 1070.76 1079.94 C 1096.82 1078.23 1122.96 1078.96 1149.06 1079.42 L 1149.50 1080.00 L 1071.90 1080.00 L 1070.76 1079.94 Z" />
</g>
<g id="#7fdf3ffe">
<path fill="#7fdf3f" fill-opacity="0" d=" M 1149.06 1079.42 C 1150.86 1079.38 1154.46 1079.30 1156.27 1079.26 L 1156.31 1080.00 L 1149.50 1080.00 L 1149.06 1079.42 Z" />
<path fill="#7fdf3f" fill-opacity="0" d=" M 1159.93 1079.26 C 1161.89 1077.43 1164.10 1077.67 1166.58 1080.00 L 1159.92 1080.00 L 1159.93 1079.26 Z" />
</g>
<g id="#00df3fff">
<path fill="#00df3f" fill-opacity="0" d=" M 1156.27 1079.26 C 1157.47 1078.55 1158.69 1078.55 1159.93 1079.26 L 1159.92 1080.00 L 1156.31 1080.00 L 1156.27 1079.26 Z" />
</g>
<g id="#7fdf3fff">
<path fill="#7fdf3f" fill-opacity="0" d=" M 1167.24 1080.00 C 1175.58 1079.43 1183.93 1079.64 1192.30 1080.00 L 1167.24 1080.00 Z" />
<path fill="#7fdf3f" fill-opacity="0" d=" M 1193.72 1080.00 C 1200.79 1079.65 1207.87 1079.22 1214.98 1079.01 L 1215.03 1080.00 L 1193.72 1080.00 Z" />
</g>
<g id="#7f5fbfff">
<path fill="#7f5fbf" fill-opacity="0" d=" M 1214.98 1079.01 C 1250.32 1078.91 1285.66 1079.05 1321.00 1079.00 L 1321.00 1080.00 L 1215.03 1080.00 L 1214.98 1079.01 Z" />
</g>
<g id="#bf5fbfff">
<path fill="#bf5fbf" fill-opacity="0" d=" M 1321.00 1079.00 C 1343.21 1079.25 1365.47 1078.17 1387.65 1079.91 L 1388.89 1080.00 L 1321.00 1080.00 L 1321.00 1079.00 Z" />
<path fill="#bf5fbf" fill-opacity="0" d=" M 1408.80 1079.94 C 1411.99 1079.99 1415.01 1079.85 1418.28 1080.00 L 1409.88 1080.00 L 1408.80 1079.94 Z" />
</g>
<g id="#005f3fff">
<path fill="#005f3f" fill-opacity="0" d=" M 1387.65 1079.91 C 1394.67 1079.11 1401.73 1079.50 1408.80 1079.94 L 1409.88 1080.00 L 1388.89 1080.00 L 1387.65 1079.91 Z" />
<path fill="#005f3f" fill-opacity="0" d=" M 1419.65 1080.00 C 1445.62 1078.54 1471.70 1078.29 1497.69 1079.92 L 1498.90 1080.00 L 1419.65 1080.00 Z" />
</g>
<g id="#1f1f7fff">
<path fill="#1f1f7f" fill-opacity="0" d=" M 1497.69 1079.92 C 1526.29 1078.22 1555.07 1078.55 1583.69 1079.92 L 1584.89 1080.00 L 1498.90 1080.00 L 1497.69 1079.92 Z" />
</g>
<g id="#ef00bfff">
<path fill="#ef00bf" fill-opacity="0" d=" M 1583.69 1079.92 C 1607.06 1077.93 1630.56 1079.44 1654.00 1079.00 C 1742.66 1079.00 1831.33 1079.00 1920.00 1079.00 L 1920.00 1080.00 L 1584.89 1080.00 L 1583.69 1079.92 Z" />
</g>
</svg>
