<?xml version="1.0" encoding="UTF-8" ?>
<!DOCTYPE svg PUBLIC "-//W3C//DTD SVG 1.1//EN" "http://www.w3.org/Graphics/SVG/1.1/DTD/svg11.dtd">
<svg width="1920pt" height="1080pt" viewBox="0 0 1920 1080" version="1.1" xmlns="http://www.w3.org/2000/svg">
<g id="#ff0000ff">
<path fill="#ff0000" fill-opacity="0" d=" M 791.39 195.36 C 792.37 194.64 793.33 193.86 794.31 193.10 C 798.87 195.61 803.36 198.28 807.40 201.58 C 812.92 206.00 820.39 208.29 824.25 214.55 C 829.70 225.44 830.08 237.93 832.44 249.68 C 833.95 255.57 832.62 261.52 831.96 267.40 C 829.34 264.99 827.38 261.80 824.36 259.91 C 820.57 258.93 816.71 258.22 812.86 257.61 C 810.56 265.66 811.53 273.91 812.99 282.02 C 809.63 281.62 806.81 279.81 804.19 277.82 C 798.29 273.41 790.32 275.00 783.82 272.14 C 778.89 257.02 775.46 241.12 775.19 225.14 C 774.50 214.98 771.39 205.23 769.67 195.24 C 776.90 193.65 785.12 200.91 791.39 195.36 Z" />
<path fill="#ff0000" fill-opacity="0" d=" M 871.90 236.21 C 880.55 227.93 889.52 219.92 900.48 214.77 C 901.09 216.64 901.73 218.51 902.37 220.39 C 908.03 222.16 913.51 224.48 918.86 227.04 C 919.00 238.29 919.48 249.54 919.99 260.78 C 913.30 264.32 906.80 268.21 900.29 272.06 C 898.09 280.35 893.75 287.88 891.45 296.11 C 890.61 299.94 893.98 302.83 897.49 303.33 C 902.01 304.77 905.06 300.90 908.86 299.52 C 914.67 297.93 921.32 298.12 926.46 294.53 C 932.40 290.42 938.21 286.13 944.10 281.94 C 943.78 272.67 943.29 263.41 942.95 254.14 C 947.52 251.81 951.12 248.25 952.34 243.06 C 957.34 242.81 962.32 242.08 967.22 241.02 C 968.02 252.77 968.05 264.56 968.10 276.33 C 976.68 277.47 984.48 281.35 992.47 284.40 C 1002.74 288.09 1014.24 284.84 1024.46 288.63 C 1037.71 298.19 1049.74 309.32 1062.46 319.56 C 1069.50 326.55 1077.10 332.92 1084.40 339.62 C 1087.77 342.71 1088.87 347.29 1090.41 351.41 C 1094.02 349.13 1097.26 346.14 1101.26 344.52 C 1105.61 344.09 1109.98 345.77 1114.17 346.88 C 1112.30 355.68 1110.41 364.48 1108.26 373.22 C 1107.81 374.62 1107.49 376.40 1106.03 377.10 C 1100.72 379.51 1095.46 382.03 1090.05 384.20 C 1090.00 390.95 1089.98 397.71 1090.00 404.47 C 1097.28 404.92 1104.55 403.63 1111.29 400.87 C 1111.48 408.15 1110.13 415.29 1108.90 422.43 C 1115.30 421.68 1123.88 422.84 1127.98 416.57 C 1131.81 418.18 1135.58 419.93 1139.41 421.57 C 1137.50 429.90 1135.46 438.32 1132.14 446.20 C 1128.04 450.35 1122.99 453.75 1120.30 459.13 C 1111.80 459.71 1102.54 462.05 1097.87 469.77 C 1096.01 474.16 1095.05 478.89 1093.77 483.48 C 1091.96 482.88 1090.14 482.32 1088.32 481.79 C 1086.03 491.62 1083.68 501.99 1076.66 509.70 C 1063.34 524.98 1049.74 540.31 1033.30 552.33 C 1026.43 556.42 1020.30 562.39 1012.27 564.13 C 1001.72 565.51 991.09 564.26 980.53 564.06 C 979.28 567.80 978.67 571.93 976.02 575.00 C 971.23 580.38 972.21 588.89 976.39 594.39 C 981.26 601.03 980.26 609.78 979.61 617.49 C 980.24 622.64 975.14 624.20 971.73 626.17 C 969.05 620.84 968.16 614.93 967.40 609.10 C 965.85 609.06 962.77 608.99 961.23 608.95 C 964.09 617.74 966.43 628.07 961.14 636.41 C 955.44 647.23 949.67 658.35 949.41 670.87 C 943.22 670.71 937.10 669.85 930.98 669.12 C 927.34 675.56 922.11 681.98 922.42 689.82 C 923.82 701.58 926.98 713.08 931.22 724.13 C 934.54 729.29 938.79 734.08 944.93 735.78 C 945.83 750.19 942.94 764.37 940.57 778.49 C 940.32 785.07 935.06 789.49 931.31 794.30 C 925.85 800.16 921.03 807.47 913.12 810.23 C 896.79 816.85 881.30 825.50 864.71 831.43 C 847.82 832.45 830.94 830.28 814.06 829.83 C 811.73 827.11 809.46 824.40 807.25 821.61 C 797.77 824.63 788.71 829.02 780.40 834.48 C 777.51 836.56 778.32 840.50 778.29 843.65 C 779.33 858.73 781.03 873.76 781.06 888.90 C 776.31 890.26 771.55 891.54 766.82 892.91 C 766.69 895.73 766.63 898.61 766.53 901.46 C 749.51 901.87 731.26 909.04 715.05 900.97 C 711.47 899.02 708.04 896.66 705.30 893.65 C 702.19 890.35 702.60 885.37 700.35 881.63 C 695.21 878.13 688.78 876.97 683.73 873.31 C 675.98 863.13 677.28 848.66 668.23 839.21 C 666.82 834.75 667.71 829.76 667.20 825.12 C 666.51 819.03 669.97 813.61 672.14 808.18 C 673.95 804.56 675.04 800.15 678.57 797.77 C 682.60 795.39 686.96 793.62 691.11 791.47 C 688.22 786.56 683.61 783.03 679.24 779.51 C 679.34 773.08 679.63 766.67 679.80 760.24 C 667.54 750.29 659.22 736.75 649.42 724.59 C 643.31 717.05 635.34 711.30 629.19 703.79 C 624.03 699.20 624.38 691.88 623.01 685.67 C 623.03 681.26 619.56 678.54 616.80 675.74 C 617.05 673.16 618.04 670.16 615.83 668.08 C 611.85 663.26 610.94 656.79 607.11 651.92 C 601.46 645.53 604.21 634.35 610.27 629.18 C 611.49 618.54 613.08 607.96 614.44 597.34 C 627.96 596.97 641.49 596.71 655.03 596.95 C 658.41 597.11 662.33 596.81 665.41 598.65 C 669.60 602.06 671.47 608.14 676.86 610.03 C 684.61 612.67 688.76 620.56 692.89 627.05 C 696.94 633.51 695.56 641.46 696.42 648.72 C 703.11 644.12 709.37 638.64 717.11 635.83 C 719.05 638.54 720.72 641.53 723.20 643.80 C 731.49 647.63 740.39 650.39 749.55 651.15 C 746.28 644.59 742.41 638.36 739.08 631.85 C 745.26 631.16 751.41 630.16 757.52 628.94 C 755.87 624.28 752.75 620.07 752.14 615.12 C 753.54 611.74 756.73 609.56 759.05 606.85 C 757.68 603.31 756.16 599.80 755.06 596.18 C 753.23 584.43 757.49 572.62 756.07 560.92 C 752.58 550.40 746.58 540.89 742.44 530.62 C 746.00 527.74 749.27 524.52 752.43 521.21 C 755.53 522.25 758.65 523.27 761.80 524.21 C 762.36 522.11 762.92 520.01 763.47 517.91 C 769.96 518.38 776.44 519.13 782.92 519.88 C 785.38 515.75 787.02 510.92 790.66 507.61 C 794.76 504.19 799.92 506.71 804.21 508.10 C 806.94 505.53 809.90 503.18 812.37 500.35 C 815.23 497.20 814.23 492.62 814.57 488.71 C 818.70 486.79 822.82 484.75 827.26 483.58 C 834.26 483.01 841.20 484.49 848.14 485.16 C 850.38 481.46 852.24 477.56 854.05 473.64 C 859.49 478.33 865.82 474.02 870.61 470.54 C 872.26 473.22 873.99 475.94 876.30 478.14 C 877.03 476.23 877.76 474.34 878.45 472.43 C 882.60 474.39 887.24 475.09 891.63 473.46 C 890.32 468.01 888.36 462.77 884.84 458.36 C 878.47 441.98 876.92 424.23 874.11 406.98 C 873.37 407.02 871.89 407.09 871.15 407.12 C 869.67 409.54 868.57 412.30 866.51 414.29 C 862.71 415.68 858.49 415.71 854.60 416.74 C 853.15 407.41 851.35 398.14 850.21 388.77 C 856.60 384.38 864.02 378.85 864.66 370.44 C 865.40 366.62 867.10 362.58 864.63 358.88 C 861.76 350.98 860.61 342.60 859.51 334.31 C 857.86 326.40 860.92 316.28 868.78 312.80 C 870.77 311.74 872.89 310.97 875.01 310.16 C 874.81 305.24 874.32 300.34 873.84 295.44 C 871.88 296.33 869.95 297.26 868.08 298.31 C 860.84 289.46 861.43 277.66 859.97 266.97 C 859.28 258.82 862.14 250.90 861.43 242.74 C 863.77 244.02 866.09 245.34 868.46 246.61 C 870.31 243.41 871.58 239.91 871.90 236.21 Z" />
<path fill="#ff0000" fill-opacity="0" d=" M 687.07 393.80 C 692.02 396.13 697.31 397.92 701.67 401.34 C 704.25 403.55 705.35 406.90 707.65 409.35 C 711.37 411.25 715.75 411.41 719.80 412.35 C 720.93 414.84 721.95 417.41 723.43 419.74 C 727.21 424.50 736.11 423.28 738.12 429.85 C 740.47 436.14 743.34 442.27 745.03 448.79 C 746.56 453.59 743.79 457.91 742.27 462.27 C 734.25 461.99 726.25 461.85 718.28 460.95 C 715.33 455.01 713.55 446.04 705.90 444.43 C 696.65 443.73 687.34 444.20 678.09 444.66 C 672.52 433.71 664.89 423.42 662.79 411.07 C 662.40 409.35 662.75 407.35 664.20 406.21 C 669.76 401.95 677.02 401.86 683.60 400.57 C 684.73 398.30 685.87 396.03 687.07 393.80 Z" />
<path fill="#ff0000" fill-opacity="0" d=" M 0.00 1079.00 C 640.00 1079.00 1280.00 1079.00 1920.00 1079.00 L 1920.00 1080.00 L 0.00 1080.00 L 0.00 1079.00 Z" />
</g>
</svg>
