<?xml version="1.0" encoding="UTF-8" ?>
<!DOCTYPE svg PUBLIC "-//W3C//DTD SVG 1.1//EN" "http://www.w3.org/Graphics/SVG/1.1/DTD/svg11.dtd">
<svg width="1920pt" height="1080pt" viewBox="0 0 1920 1080" version="1.1" xmlns="http://www.w3.org/2000/svg">
<g id="#0fbf1fff">
<path fill="#0fbf1f" fill-opacity="0" d=" M 769.15 300.09 C 777.55 293.49 786.89 286.51 798.05 286.23 C 809.11 284.83 819.93 287.93 830.10 291.91 C 843.81 297.29 858.18 300.64 872.27 304.82 C 883.53 310.67 893.49 318.93 905.36 323.67 C 919.93 330.84 935.70 335.26 950.02 342.96 C 966.37 351.84 984.79 355.63 1002.53 360.65 C 1021.28 366.32 1041.05 366.95 1060.15 370.87 C 1063.74 371.17 1065.53 375.30 1064.20 378.56 C 1063.04 392.43 1061.42 406.27 1059.54 420.06 C 1059.34 423.89 1058.28 429.19 1063.01 430.91 C 1073.70 437.78 1085.07 443.58 1096.21 449.70 C 1102.51 453.26 1110.19 456.44 1113.79 463.19 C 1115.35 468.90 1114.33 474.89 1113.55 480.64 C 1111.99 489.73 1110.81 498.88 1108.96 507.92 C 1107.11 517.04 1104.31 526.40 1106.51 535.76 C 1108.93 543.46 1114.28 550.14 1121.47 553.92 C 1130.34 558.82 1138.77 564.47 1147.72 569.24 C 1154.17 572.51 1161.28 574.16 1167.88 577.08 C 1179.39 581.74 1189.14 589.62 1198.84 597.18 C 1202.30 599.71 1203.75 603.90 1205.49 607.65 C 1207.49 612.27 1206.05 617.39 1204.92 622.04 C 1200.30 636.79 1194.61 651.17 1189.91 665.89 C 1185.28 677.90 1182.20 690.63 1175.61 701.79 C 1171.21 708.30 1164.58 712.71 1158.73 717.78 C 1154.13 722.12 1147.29 723.11 1141.23 722.43 C 1136.01 720.80 1131.19 718.10 1126.18 715.95 C 1122.69 718.24 1118.73 719.83 1115.55 722.57 C 1104.69 732.10 1105.86 748.25 1099.14 760.20 C 1093.83 764.64 1087.33 767.34 1081.01 770.01 C 1074.03 772.97 1067.21 776.71 1059.56 777.57 C 1052.51 779.39 1045.37 777.79 1038.34 776.86 C 1030.42 775.78 1022.28 775.76 1014.59 773.44 C 1009.10 772.02 1008.00 765.42 1003.67 762.42 C 994.88 755.30 984.41 750.59 975.74 743.31 C 963.85 733.35 949.81 724.99 942.28 710.87 C 935.09 696.25 924.47 683.50 912.42 672.64 C 903.63 666.45 895.08 659.92 886.30 653.73 C 885.51 649.13 884.71 644.55 883.89 639.96 C 877.57 640.03 871.22 642.12 864.94 641.17 C 856.56 636.44 849.03 630.29 840.95 625.06 C 837.32 621.89 831.56 619.86 830.59 614.58 C 828.48 604.66 826.96 594.63 825.34 584.62 C 824.77 582.04 824.47 579.25 823.02 577.00 C 818.58 574.68 813.25 574.13 809.42 570.61 C 801.64 563.90 792.42 558.02 781.80 558.12 C 775.97 538.07 772.63 517.42 767.63 497.17 C 756.78 453.97 747.47 410.40 736.82 367.15 C 735.26 359.50 732.44 351.58 734.17 343.71 C 735.67 337.10 736.47 329.63 741.85 324.87 C 749.62 315.24 759.52 307.72 769.15 300.09 Z" />
</g>
</svg>
