<?xml version="1.0" encoding="UTF-8" ?>
<!DOCTYPE svg PUBLIC "-//W3C//DTD SVG 1.1//EN" "http://www.w3.org/Graphics/SVG/1.1/DTD/svg11.dtd">
<svg width="1920pt" height="1080pt" viewBox="0 0 1920 1080" version="1.1" xmlns="http://www.w3.org/2000/svg">
<g id="#2fef00ff">
<path fill="#2fef00" fill-opacity="0" d=" M 895.45 288.99 C 900.33 286.50 905.14 283.09 910.73 282.49 C 916.51 283.89 920.90 287.92 925.49 291.40 C 930.98 295.38 939.79 294.06 943.03 300.98 C 945.94 305.04 945.39 310.11 945.92 314.78 C 946.34 318.87 950.70 320.59 953.31 323.16 C 957.11 320.95 960.68 317.95 965.06 316.99 C 969.61 317.23 973.86 319.35 978.44 319.44 C 983.50 320.73 987.14 316.65 991.09 314.44 C 992.99 319.54 994.96 324.61 997.27 329.54 C 1007.92 330.51 1018.58 331.77 1029.21 332.90 C 1035.03 335.77 1040.74 339.02 1046.78 341.47 C 1049.38 344.60 1049.81 348.97 1051.50 352.60 C 1057.07 364.71 1058.06 378.23 1059.96 391.24 C 1054.18 395.12 1049.15 400.39 1042.76 403.19 C 1035.43 403.07 1028.67 398.07 1021.25 398.91 C 1013.73 401.93 1008.29 408.53 1000.84 411.70 C 994.99 414.17 988.93 416.11 982.99 418.31 C 984.28 425.76 986.07 433.88 981.93 440.85 C 978.76 446.96 971.46 448.25 965.67 450.73 C 958.15 453.31 951.70 458.02 944.92 462.01 C 942.25 463.72 939.10 462.23 936.32 461.75 C 933.44 466.27 931.20 471.31 927.17 474.98 C 924.84 477.15 922.35 479.15 919.91 481.19 C 908.20 476.53 895.09 479.41 883.19 475.47 C 874.94 473.10 868.47 466.63 860.00 464.86 C 856.37 464.19 852.69 463.94 849.11 463.09 C 840.82 460.84 834.85 453.79 826.57 451.53 C 818.51 448.58 809.80 448.95 801.40 449.63 C 796.89 449.93 792.36 451.04 788.54 453.52 C 782.86 457.00 779.04 462.83 773.22 466.09 C 767.20 468.48 760.51 466.70 754.40 468.48 C 746.51 471.66 740.75 478.54 732.98 481.94 C 726.51 483.68 721.88 478.14 717.08 474.92 C 713.49 471.99 708.75 471.55 704.40 470.59 C 705.40 475.88 706.73 481.18 706.43 486.60 C 705.50 498.79 711.09 509.83 715.22 520.90 C 712.96 522.80 710.67 524.67 708.55 526.72 C 698.53 503.96 690.21 480.49 680.22 457.71 C 678.84 453.86 677.06 449.14 679.31 445.31 C 683.52 437.36 688.76 429.87 691.49 421.22 C 693.88 415.31 688.81 409.56 688.04 403.79 C 686.81 401.31 688.74 399.06 690.37 397.37 C 698.91 388.55 710.82 384.71 721.64 379.60 C 728.81 376.38 736.69 376.06 744.38 377.01 C 748.78 370.79 747.54 362.34 752.62 356.54 C 755.82 352.02 760.63 348.63 762.78 343.39 C 765.07 337.98 768.23 332.44 773.58 329.57 C 782.03 324.28 792.29 327.97 801.67 327.47 C 807.67 327.32 812.97 330.82 818.78 331.54 C 823.67 329.54 827.05 325.11 831.85 322.92 C 837.31 320.36 843.35 318.94 848.24 315.28 C 851.62 313.06 855.05 309.68 859.46 310.52 C 866.53 310.30 871.91 315.23 875.72 320.58 C 879.12 320.40 882.52 320.20 885.94 320.00 C 885.56 315.49 885.28 310.97 885.12 306.45 C 887.73 304.41 890.88 302.67 892.47 299.63 C 893.64 296.14 894.50 292.54 895.45 288.99 Z" />
</g>
<g id="#2f6f7fff">
<path fill="#2f6f7f" fill-opacity="0" d=" M 1059.96 391.24 L 1060.02 391.19 C 1061.14 395.27 1063.86 398.56 1066.68 401.61 C 1064.74 407.61 1063.18 414.02 1058.80 418.83 C 1055.71 423.45 1051.21 427.20 1048.95 432.33 C 1049.86 440.09 1055.11 446.30 1060.62 451.45 C 1071.53 465.02 1074.83 482.81 1076.59 499.68 C 1079.00 516.97 1078.96 534.45 1080.77 551.79 C 1082.78 562.44 1077.98 572.59 1076.53 583.01 C 1072.70 601.60 1069.19 620.24 1064.97 638.74 C 1056.65 638.90 1048.34 638.98 1040.07 638.24 C 1043.93 611.93 1048.56 585.73 1052.13 559.38 C 1039.78 557.22 1027.28 555.52 1015.36 551.50 C 1008.25 549.00 1000.66 550.33 993.34 549.93 C 985.01 547.82 977.26 543.90 969.35 540.64 C 961.22 537.36 956.37 529.49 950.90 523.15 C 942.75 511.26 941.91 496.44 937.87 482.99 C 936.81 478.02 931.10 477.01 927.17 474.98 C 931.20 471.31 933.44 466.27 936.32 461.75 C 939.10 462.23 942.25 463.72 944.92 462.01 C 951.70 458.02 958.15 453.31 965.67 450.73 C 971.46 448.25 978.76 446.96 981.93 440.85 C 986.07 433.88 984.28 425.76 982.99 418.31 C 988.93 416.11 994.99 414.17 1000.84 411.70 C 1008.29 408.53 1013.73 401.93 1021.25 398.91 C 1028.67 398.07 1035.43 403.07 1042.76 403.19 C 1049.15 400.39 1054.18 395.12 1059.96 391.24 Z" />
</g>
<g id="#2f6f00ff">
<path fill="#2f6f00" fill-opacity="0" d=" M 1058.80 418.83 C 1063.18 414.02 1064.74 407.61 1066.68 401.61 C 1075.34 408.11 1081.55 418.42 1092.38 421.55 C 1102.31 425.06 1111.82 429.61 1121.65 433.40 C 1130.62 438.11 1140.79 439.56 1150.71 440.93 C 1162.90 443.31 1175.15 445.53 1187.56 446.46 C 1192.19 447.15 1196.46 444.75 1200.10 442.11 C 1205.66 437.96 1207.36 430.78 1212.51 426.34 C 1216.77 426.07 1222.12 425.12 1225.58 428.44 C 1229.92 432.64 1233.22 438.49 1240.00 439.11 C 1240.95 444.81 1244.05 449.71 1248.55 453.24 C 1251.53 451.54 1253.87 446.54 1257.89 447.94 C 1262.57 448.61 1265.09 452.94 1268.22 456.03 C 1271.97 453.87 1275.40 450.71 1279.74 449.84 C 1285.78 450.89 1293.22 451.65 1297.72 456.28 C 1301.56 465.89 1295.59 475.32 1291.83 483.90 C 1286.80 493.59 1283.06 505.51 1272.33 510.35 C 1264.59 515.36 1255.42 510.46 1248.12 506.98 C 1241.75 504.69 1234.43 503.11 1227.95 505.86 C 1222.39 507.78 1218.56 512.52 1214.36 516.34 C 1210.53 520.17 1206.33 523.89 1203.97 528.86 C 1196.30 548.48 1188.55 568.09 1180.90 587.73 C 1171.28 589.96 1162.31 594.14 1152.81 596.74 C 1149.31 597.45 1148.14 601.15 1146.54 603.86 C 1142.75 604.61 1139.01 605.36 1135.26 606.15 C 1133.45 611.21 1131.69 616.29 1129.90 621.36 C 1126.54 620.40 1123.30 619.36 1120.02 618.26 C 1111.10 623.79 1101.79 628.68 1092.71 633.91 C 1089.18 636.61 1087.28 641.82 1082.35 642.34 C 1076.33 642.50 1070.73 640.06 1064.97 638.74 C 1069.19 620.24 1072.70 601.60 1076.53 583.01 C 1077.98 572.59 1082.78 562.44 1080.77 551.79 C 1078.96 534.45 1079.00 516.97 1076.59 499.68 C 1074.83 482.81 1071.53 465.02 1060.62 451.45 C 1055.11 446.30 1049.86 440.09 1048.95 432.33 C 1051.21 427.20 1055.71 423.45 1058.80 418.83 Z" />
</g>
<g id="#af6f00ff">
<path fill="#af6f00" fill-opacity="0" d=" M 801.40 449.63 C 809.80 448.95 818.51 448.58 826.57 451.53 C 834.85 453.79 840.82 460.84 849.11 463.09 C 852.69 463.94 856.37 464.19 860.00 464.86 C 856.00 474.47 851.59 483.99 849.23 494.17 C 845.61 510.22 843.47 526.73 837.60 542.20 C 841.22 547.37 844.95 552.51 848.00 558.06 C 850.48 562.50 849.26 567.86 848.85 572.61 C 848.05 580.27 845.61 587.64 844.48 595.24 C 844.17 597.21 845.30 598.97 846.47 600.45 C 851.38 606.45 857.88 611.30 861.52 618.26 C 862.90 624.08 861.43 630.05 860.31 635.80 C 864.06 638.25 867.82 640.68 871.51 643.23 C 869.99 646.39 868.49 649.79 869.19 653.39 C 872.89 673.94 876.70 694.49 880.20 715.09 C 875.49 715.74 870.79 716.57 866.04 716.59 C 862.19 715.78 858.97 713.24 855.16 712.37 C 850.97 714.76 847.46 719.13 841.96 718.05 C 833.26 718.47 832.70 704.84 823.84 705.83 C 816.26 706.99 808.58 707.37 800.92 707.37 C 795.86 707.48 791.54 710.65 786.72 711.78 C 779.77 713.69 772.37 714.11 765.24 713.33 C 763.30 711.36 761.63 709.21 760.23 706.88 C 750.77 688.40 744.69 668.20 733.18 650.83 C 729.07 646.42 725.32 641.63 723.04 635.98 C 714.35 616.16 705.00 596.64 696.10 576.92 C 693.47 570.22 690.36 563.46 689.56 556.27 C 691.71 550.77 697.10 547.23 700.86 542.85 C 705.54 538.72 704.95 531.57 708.55 526.72 C 710.67 524.67 712.96 522.80 715.22 520.90 C 711.09 509.83 705.50 498.79 706.43 486.60 C 706.73 481.18 705.40 475.88 704.40 470.59 C 708.75 471.55 713.49 471.99 717.08 474.92 C 721.88 478.14 726.51 483.68 732.98 481.94 C 740.75 478.54 746.51 471.66 754.40 468.48 C 760.51 466.70 767.20 468.48 773.22 466.09 C 779.04 462.83 782.86 457.00 788.54 453.52 C 792.36 451.04 796.89 449.93 801.40 449.63 Z" />
</g>
<g id="#afef00ff">
<path fill="#afef00" fill-opacity="0" d=" M 860.00 464.86 C 868.47 466.63 874.94 473.10 883.19 475.47 C 895.09 479.41 908.20 476.53 919.91 481.19 C 922.35 479.15 924.84 477.15 927.17 474.98 C 931.10 477.01 936.81 478.02 937.87 482.99 C 941.91 496.44 942.75 511.26 950.90 523.15 C 956.37 529.49 961.22 537.36 969.35 540.64 C 977.26 543.90 985.01 547.82 993.34 549.93 C 1000.66 550.33 1008.25 549.00 1015.36 551.50 C 1027.28 555.52 1039.78 557.22 1052.13 559.38 C 1048.56 585.73 1043.93 611.93 1040.07 638.24 C 1034.24 641.52 1026.95 643.47 1023.53 649.70 C 1021.39 653.57 1016.41 654.03 1012.97 656.20 C 1006.71 659.04 1001.41 663.54 997.30 669.03 C 991.86 668.85 986.47 668.08 981.11 667.22 C 981.22 678.55 971.41 686.40 970.75 697.48 C 969.66 700.66 970.41 705.09 967.71 707.66 C 965.02 708.94 961.95 709.01 959.08 709.47 C 951.18 710.94 944.77 704.12 937.00 704.01 C 931.60 704.86 927.80 710.19 921.96 709.56 C 912.14 710.56 902.34 711.88 892.57 713.26 C 891.64 714.99 890.74 716.74 889.83 718.49 C 886.58 717.45 883.37 716.32 880.20 715.09 C 876.70 694.49 872.89 673.94 869.19 653.39 C 868.49 649.79 869.99 646.39 871.51 643.23 C 867.82 640.68 864.06 638.25 860.31 635.80 C 861.43 630.05 862.90 624.08 861.52 618.26 C 857.88 611.30 851.38 606.45 846.47 600.45 C 845.30 598.97 844.17 597.21 844.48 595.24 C 845.61 587.64 848.05 580.27 848.85 572.61 C 849.26 567.86 850.48 562.50 848.00 558.06 C 844.95 552.51 841.22 547.37 837.60 542.20 C 843.47 526.73 845.61 510.22 849.23 494.17 C 851.59 483.99 856.00 474.47 860.00 464.86 Z" />
</g>
</svg>
