<?xml version="1.0" encoding="UTF-8" ?>
<!DOCTYPE svg PUBLIC "-//W3C//DTD SVG 1.1//EN" "http://www.w3.org/Graphics/SVG/1.1/DTD/svg11.dtd">
<svg width="1920pt" height="1080pt" viewBox="0 0 1920 1080" version="1.1" xmlns="http://www.w3.org/2000/svg">
<g id="#ef4f3fff">
<path fill="#ef4f3f" fill-opacity="0" d=" M 874.23 236.05 C 876.46 231.10 880.80 225.72 886.80 226.15 C 894.43 226.34 901.22 230.42 908.45 232.43 C 908.48 240.01 908.56 247.59 908.97 255.16 C 915.44 253.17 921.76 250.59 927.72 247.34 C 930.49 249.47 933.17 251.79 936.37 253.28 C 940.57 254.22 944.87 252.46 948.96 251.48 C 948.97 246.09 947.22 238.68 952.47 234.90 C 959.43 232.80 967.26 234.12 973.63 237.49 C 979.41 240.70 985.47 244.71 992.36 244.72 C 995.63 244.84 997.95 242.14 1000.38 240.36 C 1005.27 243.13 1010.62 245.31 1014.77 249.23 C 1020.04 253.30 1023.78 259.18 1029.86 262.24 C 1033.02 265.12 1036.86 262.24 1040.24 261.50 C 1046.50 259.29 1053.02 260.97 1059.04 263.07 C 1060.18 266.99 1061.20 270.96 1061.64 275.03 C 1051.40 278.21 1041.18 283.38 1030.22 282.55 C 1022.79 278.56 1022.65 264.48 1012.81 264.25 C 1002.21 263.78 991.77 261.94 981.38 259.96 C 983.76 264.66 986.31 269.63 986.21 275.05 C 983.46 280.67 978.57 285.29 976.87 291.45 C 977.33 297.30 983.10 302.22 982.14 308.32 C 976.70 318.60 967.98 326.63 960.58 335.48 C 955.45 333.48 950.08 332.16 944.88 330.40 C 947.45 319.46 946.69 307.13 940.19 297.67 C 935.21 293.81 930.41 299.89 926.85 302.84 C 925.93 302.50 925.02 302.16 924.13 301.83 C 924.64 297.80 925.20 293.79 925.64 289.76 C 914.39 288.14 903.27 285.68 892.33 282.64 C 889.59 282.13 886.85 280.86 884.02 281.30 C 881.61 282.40 879.48 283.99 877.25 285.37 C 875.79 284.83 874.33 284.30 872.89 283.78 C 872.02 272.80 870.23 261.87 869.99 250.86 C 870.91 245.82 872.43 240.85 874.23 236.05 Z" />
</g>
<g id="#6f4f3fff">
<path fill="#6f4f3f" fill-opacity="0" d=" M 981.38 259.96 C 991.77 261.94 1002.21 263.78 1012.81 264.25 C 1022.65 264.48 1022.79 278.56 1030.22 282.55 C 1041.18 283.38 1051.40 278.21 1061.64 275.03 C 1061.12 280.90 1059.60 286.71 1059.60 292.62 C 1061.57 294.90 1064.42 296.23 1066.36 298.56 C 1069.51 302.27 1071.52 306.74 1074.21 310.78 C 1077.29 316.04 1084.43 317.24 1087.05 322.90 C 1090.72 330.10 1097.05 335.44 1103.87 339.56 C 1092.64 347.18 1082.19 355.91 1070.73 363.21 C 1073.19 370.25 1076.04 377.14 1078.70 384.11 C 1075.18 387.61 1071.72 391.16 1068.44 394.88 C 1069.76 397.97 1070.98 401.11 1072.09 404.29 C 1065.59 405.59 1059.09 407.14 1052.46 407.52 C 1036.79 407.89 1020.94 408.57 1005.49 405.43 C 1004.75 404.58 1004.03 403.74 1003.32 402.90 C 1005.87 396.84 1008.24 390.61 1012.23 385.31 C 1016.46 379.94 1019.30 372.35 1016.42 365.72 C 1015.06 362.23 1011.09 361.32 1007.99 360.03 C 999.26 357.10 992.26 350.77 983.85 347.16 C 975.81 343.83 968.45 339.15 960.58 335.48 C 967.98 326.63 976.70 318.60 982.14 308.32 C 983.10 302.22 977.33 297.30 976.87 291.45 C 978.57 285.29 983.46 280.67 986.21 275.05 C 986.31 269.63 983.76 264.66 981.38 259.96 Z" />
</g>
<g id="#2fcfbffe">
<path fill="#2fcfbf" fill-opacity="0" d=" M 829.18 285.04 C 832.24 280.21 837.67 278.00 843.12 277.56 C 848.37 281.02 853.49 285.22 859.97 285.99 C 865.44 286.76 872.21 288.65 877.25 285.37 C 879.48 283.99 881.61 282.40 884.02 281.30 C 886.85 280.86 889.59 282.13 892.33 282.64 C 903.27 285.68 914.39 288.14 925.64 289.76 C 925.20 293.79 924.64 297.80 924.13 301.83 C 925.02 302.16 925.93 302.50 926.85 302.84 C 930.41 299.89 935.21 293.81 940.19 297.67 C 946.69 307.13 947.45 319.46 944.88 330.40 C 942.56 334.77 937.91 336.55 934.08 339.20 C 929.27 344.79 929.33 352.95 924.66 358.64 C 921.98 362.04 919.02 365.22 916.28 368.57 C 911.12 364.41 906.68 359.23 900.71 356.19 C 897.54 354.80 894.71 357.76 892.09 359.11 C 885.05 364.16 876.47 366.34 869.43 371.39 C 869.88 376.95 870.66 382.57 870.10 388.16 C 866.72 387.39 863.14 387.23 859.99 385.78 C 857.96 382.66 858.30 378.69 857.63 375.15 C 854.12 376.44 849.82 377.16 847.61 380.50 C 846.56 385.24 846.26 390.09 846.40 394.93 C 838.29 396.71 829.03 397.66 822.87 403.88 C 817.66 409.06 818.32 417.00 817.03 423.69 C 811.08 422.90 805.05 421.25 800.11 417.75 C 797.09 414.86 797.62 410.28 796.51 406.57 C 795.30 395.79 787.13 387.48 786.08 376.71 C 782.49 365.11 782.95 352.99 781.40 341.09 C 780.25 331.45 784.08 320.86 792.32 315.37 C 802.95 307.47 816.75 306.34 827.65 298.82 C 827.65 294.21 827.64 289.44 829.18 285.04 Z" />
</g>
<g id="#efcf3fff">
<path fill="#efcf3f" fill-opacity="0" d=" M 934.08 339.20 C 937.91 336.55 942.56 334.77 944.88 330.40 C 950.08 332.16 955.45 333.48 960.58 335.48 C 968.45 339.15 975.81 343.83 983.85 347.16 C 992.26 350.77 999.26 357.10 1007.99 360.03 C 1011.09 361.32 1015.06 362.23 1016.42 365.72 C 1019.30 372.35 1016.46 379.94 1012.23 385.31 C 1008.24 390.61 1005.87 396.84 1003.32 402.90 C 1004.03 403.74 1004.75 404.58 1005.49 405.43 C 1002.91 417.27 1000.11 429.06 998.10 441.01 C 996.78 449.29 997.49 458.12 993.67 465.81 C 991.96 469.77 989.76 473.48 987.59 477.18 C 981.53 475.60 975.29 475.22 969.09 474.89 C 967.07 484.59 965.19 494.32 963.05 503.99 C 958.95 501.95 954.80 500.00 950.65 498.12 C 948.00 500.51 945.30 504.71 941.15 503.35 C 931.90 500.56 923.17 496.26 914.01 493.18 C 917.45 485.49 921.00 477.86 924.21 470.07 C 908.62 474.23 892.55 471.55 876.77 470.42 C 869.76 469.86 863.40 466.68 857.03 463.99 C 856.39 456.83 854.09 449.55 856.65 442.49 C 858.21 438.88 860.69 435.75 862.06 432.05 C 868.39 418.23 867.25 402.77 870.10 388.16 C 870.66 382.57 869.88 376.95 869.43 371.39 C 876.47 366.34 885.05 364.16 892.09 359.11 C 894.71 357.76 897.54 354.80 900.71 356.19 C 906.68 359.23 911.12 364.41 916.28 368.57 C 919.02 365.22 921.98 362.04 924.66 358.64 C 929.33 352.95 929.27 344.79 934.08 339.20 Z" />
</g>
<g id="#2fcf3fff">
<path fill="#2fcf3f" fill-opacity="0" d=" M 1177.46 335.49 C 1179.61 333.07 1182.14 330.32 1185.64 330.32 C 1191.96 329.53 1197.81 332.64 1202.76 336.22 C 1200.97 347.45 1197.41 358.28 1194.12 369.13 C 1193.38 371.73 1191.70 374.02 1189.23 375.20 C 1183.76 377.92 1178.01 379.95 1172.37 382.24 C 1174.57 389.68 1179.98 395.43 1184.15 401.80 C 1193.27 416.69 1204.38 430.20 1214.65 444.30 C 1217.86 449.50 1224.79 449.24 1229.11 452.91 C 1233.89 458.31 1235.88 465.81 1241.18 470.83 C 1245.22 474.56 1251.11 472.84 1255.91 472.28 C 1264.76 479.41 1267.43 491.59 1277.01 498.04 C 1273.23 504.90 1273.54 513.05 1270.13 520.05 C 1266.91 527.67 1264.32 535.71 1259.55 542.55 C 1254.62 546.78 1247.60 547.03 1242.05 550.12 C 1240.89 555.15 1241.73 560.58 1239.49 565.41 C 1237.01 571.04 1235.56 577.37 1231.64 582.21 C 1223.21 583.56 1214.60 582.83 1206.21 584.43 C 1202.58 585.43 1199.56 587.79 1196.45 589.80 C 1198.94 583.16 1201.54 576.56 1203.80 569.84 C 1206.03 563.50 1206.40 556.74 1207.72 550.20 C 1201.52 549.17 1195.36 548.08 1189.17 547.04 C 1192.11 540.73 1194.75 534.21 1195.70 527.26 C 1199.07 526.06 1202.46 524.83 1205.87 523.68 C 1205.78 521.82 1205.71 519.98 1205.64 518.14 C 1197.76 515.95 1189.90 513.75 1181.91 512.06 C 1177.63 511.21 1173.81 508.96 1170.88 505.77 C 1162.85 505.02 1154.83 503.73 1146.76 503.80 C 1140.10 504.40 1136.51 510.92 1132.19 515.20 C 1127.88 520.34 1122.31 524.18 1117.06 528.28 C 1112.33 524.80 1107.60 521.31 1102.90 517.83 C 1099.30 518.96 1095.72 520.14 1092.12 521.23 C 1089.17 512.95 1085.42 504.98 1082.20 496.81 C 1078.79 488.88 1089.07 483.78 1092.21 477.68 C 1087.12 472.58 1079.43 472.55 1072.72 473.49 C 1067.47 474.22 1065.15 479.95 1060.24 481.35 C 1055.54 482.75 1050.55 483.07 1045.68 483.13 C 1041.02 482.27 1037.30 478.79 1032.81 477.48 C 1017.75 473.66 1002.23 484.14 987.59 477.18 C 989.76 473.48 991.96 469.77 993.67 465.81 C 997.49 458.12 996.78 449.29 998.10 441.01 C 1000.11 429.06 1002.91 417.27 1005.49 405.43 C 1020.94 408.57 1036.79 407.89 1052.46 407.52 C 1059.09 407.14 1065.59 405.59 1072.09 404.29 C 1070.98 401.11 1069.76 397.97 1068.44 394.88 C 1071.72 391.16 1075.18 387.61 1078.70 384.11 C 1076.04 377.14 1073.19 370.25 1070.73 363.21 C 1082.19 355.91 1092.64 347.18 1103.87 339.56 C 1108.70 343.22 1112.44 348.05 1117.04 351.97 C 1126.24 359.01 1136.32 364.88 1147.02 369.36 C 1158.26 359.07 1167.45 346.90 1177.46 335.49 Z" />
</g>
<g id="#af4fbfff">
<path fill="#af4fbf" fill-opacity="0" d=" M 839.14 479.87 C 846.31 476.16 851.76 469.95 857.03 463.99 C 863.40 466.68 869.76 469.86 876.77 470.42 C 892.55 471.55 908.62 474.23 924.21 470.07 C 921.00 477.86 917.45 485.49 914.01 493.18 C 923.17 496.26 931.90 500.56 941.15 503.35 C 945.30 504.71 948.00 500.51 950.65 498.12 C 954.80 500.00 958.95 501.95 963.05 503.99 C 961.52 511.38 960.54 518.93 957.96 526.06 C 955.54 532.64 954.30 539.64 954.45 546.67 C 948.88 549.29 942.88 550.67 936.81 551.48 C 934.20 562.59 936.39 574.67 930.45 584.90 C 931.77 585.79 934.39 587.56 935.71 588.44 C 934.21 589.45 935.94 592.48 935.51 594.15 C 925.38 595.64 920.58 604.95 916.38 613.12 C 906.41 616.18 896.45 620.26 885.88 620.45 C 880.26 619.43 875.68 615.50 870.21 613.98 C 862.20 611.17 853.73 612.74 845.58 613.68 C 843.33 607.53 847.98 602.53 849.60 597.03 C 848.75 592.65 845.00 589.45 842.23 586.14 C 848.01 586.18 853.86 586.33 859.66 586.06 C 862.59 579.11 865.55 572.15 867.50 564.85 C 857.88 562.90 848.05 564.49 838.42 565.38 C 839.67 572.09 840.54 578.86 841.66 585.60 C 841.10 585.13 839.98 584.20 839.42 583.73 C 838.42 582.90 837.45 582.04 836.50 581.19 C 829.40 586.86 822.45 592.85 814.39 597.13 C 808.10 600.51 802.84 605.41 797.74 610.33 C 794.38 606.26 789.64 603.32 787.02 598.70 C 787.17 593.33 789.51 587.29 794.50 584.66 C 798.42 582.96 802.41 581.39 806.27 579.51 C 804.55 571.97 803.31 564.22 800.81 556.91 C 793.93 548.63 792.80 537.42 790.84 527.20 C 794.63 523.53 798.30 519.71 801.60 515.58 C 806.28 509.42 807.11 500.45 814.19 496.19 C 821.08 491.02 826.70 484.49 832.73 478.39 C 834.79 478.98 836.95 480.26 839.14 479.87 Z" />
</g>
<g id="#afcf3ffe">
<path fill="#afcf3f" fill-opacity="0" d=" M 1060.24 481.35 C 1065.15 479.95 1067.47 474.22 1072.72 473.49 C 1079.43 472.55 1087.12 472.58 1092.21 477.68 C 1089.07 483.78 1078.79 488.88 1082.20 496.81 C 1085.42 504.98 1089.17 512.95 1092.12 521.23 C 1095.72 520.14 1099.30 518.96 1102.90 517.83 C 1107.60 521.31 1112.33 524.80 1117.06 528.28 C 1122.31 524.18 1127.88 520.34 1132.19 515.20 C 1136.51 510.92 1140.10 504.40 1146.76 503.80 C 1154.83 503.73 1162.85 505.02 1170.88 505.77 C 1173.81 508.96 1177.63 511.21 1181.91 512.06 C 1189.90 513.75 1197.76 515.95 1205.64 518.14 C 1205.71 519.98 1205.78 521.82 1205.87 523.68 C 1202.46 524.83 1199.07 526.06 1195.70 527.26 C 1194.75 534.21 1192.11 540.73 1189.17 547.04 C 1195.36 548.08 1201.52 549.17 1207.72 550.20 C 1206.40 556.74 1206.03 563.50 1203.80 569.84 C 1201.54 576.56 1198.94 583.16 1196.45 589.80 C 1193.20 587.95 1190.15 585.65 1188.35 582.30 C 1185.11 583.26 1181.84 584.20 1178.67 585.21 C 1183.13 590.46 1188.77 594.66 1192.70 600.35 C 1194.11 602.05 1192.33 604.19 1191.78 605.80 C 1188.58 613.00 1181.99 619.30 1183.33 627.85 C 1186.22 639.96 1191.87 651.10 1196.71 662.50 C 1188.16 664.02 1179.76 666.38 1171.10 667.19 C 1167.02 667.76 1163.77 664.64 1160.06 663.56 C 1157.90 665.65 1156.15 668.12 1154.22 670.38 C 1149.21 670.51 1144.18 670.70 1139.19 670.28 C 1134.28 669.79 1130.72 666.02 1127.21 662.97 C 1119.41 664.15 1112.06 667.14 1104.35 668.67 C 1097.28 670.14 1090.96 665.74 1084.55 663.57 C 1078.28 661.50 1072.93 657.51 1068.57 652.61 C 1065.53 654.74 1062.62 657.70 1058.82 658.25 C 1051.71 657.15 1045.28 653.18 1038.05 652.55 C 1029.92 651.90 1021.82 650.82 1013.80 649.38 C 1014.74 659.95 1015.63 670.54 1016.70 681.10 C 1009.73 681.88 1003.10 684.51 996.14 685.31 C 992.77 685.58 989.81 683.62 986.91 682.24 C 988.82 676.34 992.66 670.76 992.90 664.43 C 990.78 660.91 987.72 658.04 984.74 655.26 C 982.40 653.38 979.95 650.66 976.50 651.92 C 967.83 654.36 960.86 660.98 952.13 663.23 C 948.37 660.93 943.88 658.42 942.84 653.76 C 940.95 645.97 941.75 637.69 939.04 630.07 C 937.48 625.86 935.79 621.54 933.08 618.01 C 928.05 614.96 921.96 614.64 916.38 613.12 C 920.58 604.95 925.38 595.64 935.51 594.15 C 935.94 592.48 934.21 589.45 935.71 588.44 C 934.39 587.56 931.77 585.79 930.45 584.90 C 936.39 574.67 934.20 562.59 936.81 551.48 C 942.88 550.67 948.88 549.29 954.45 546.67 C 954.30 539.64 955.54 532.64 957.96 526.06 C 960.54 518.93 961.52 511.38 963.05 503.99 C 965.19 494.32 967.07 484.59 969.09 474.89 C 975.29 475.22 981.53 475.60 987.59 477.18 C 1002.23 484.14 1017.75 473.66 1032.81 477.48 C 1037.30 478.79 1041.02 482.27 1045.68 483.13 C 1050.55 483.07 1055.54 482.75 1060.24 481.35 Z" />
</g>
<g id="#2f4fbfff">
<path fill="#2f4fbf" fill-opacity="0" d=" M 543.10 524.27 C 548.19 526.54 553.33 528.72 558.65 530.41 C 567.33 533.04 574.82 538.36 583.16 541.80 C 590.33 544.73 596.17 550.13 600.62 556.38 C 607.78 566.09 620.05 569.81 631.34 572.12 C 634.47 575.50 637.62 578.96 641.59 581.38 C 646.56 584.48 652.30 587.43 654.94 593.01 C 662.30 608.70 669.11 624.71 677.78 639.75 C 673.34 642.81 668.70 646.00 665.78 650.65 C 663.09 655.46 661.40 660.90 657.69 665.11 C 653.15 666.93 647.88 665.57 643.49 667.87 C 636.46 673.91 629.17 680.43 620.24 683.46 C 612.95 684.74 605.51 685.13 598.14 685.74 C 595.46 685.54 591.82 686.59 590.14 683.88 C 586.21 678.79 582.69 673.45 579.09 668.14 C 574.03 660.45 568.36 653.13 563.80 645.13 C 561.02 640.31 566.07 634.74 563.11 629.98 C 560.37 625.11 556.88 620.73 554.00 615.95 C 550.77 610.66 551.77 603.82 548.24 598.66 C 546.32 595.39 543.21 592.80 541.95 589.19 C 542.76 583.15 547.68 578.76 550.82 573.82 C 552.82 571.71 555.26 570.11 557.58 568.39 C 555.30 560.79 549.78 554.82 546.21 547.87 C 542.44 541.53 539.97 534.51 538.63 527.27 C 540.12 526.28 541.62 525.28 543.10 524.27 Z" />
</g>
<g id="#afcfbfff">
<path fill="#afcfbf" fill-opacity="0" d=" M 645.96 564.93 C 652.49 563.23 659.55 559.90 666.27 562.72 C 680.24 571.00 690.93 583.35 702.47 594.53 C 707.54 599.46 712.01 605.17 718.38 608.54 C 731.01 613.28 745.71 616.39 758.59 610.56 C 764.43 605.48 768.30 598.23 769.76 590.65 C 770.47 587.36 771.07 583.90 773.11 581.12 C 776.99 575.90 778.77 569.56 781.07 563.56 C 783.96 566.06 787.32 568.22 789.53 571.42 C 791.62 575.64 792.92 580.21 794.50 584.66 C 789.51 587.29 787.17 593.33 787.02 598.70 C 789.64 603.32 794.38 606.26 797.74 610.33 C 802.84 605.41 808.10 600.51 814.39 597.13 C 822.45 592.85 829.40 586.86 836.50 581.19 C 837.45 582.04 838.42 582.90 839.42 583.73 C 837.03 597.86 834.58 612.31 836.56 626.65 C 832.05 627.61 827.96 629.77 824.03 632.11 C 825.69 634.43 827.32 636.78 829.02 639.08 C 821.64 647.09 814.53 655.68 810.32 665.83 C 809.98 670.25 812.34 674.43 813.11 678.74 C 815.76 687.79 816.90 697.41 821.24 705.88 C 814.28 703.78 807.87 700.22 800.93 698.05 C 792.82 695.38 784.86 691.12 776.10 691.42 C 769.69 691.50 763.15 692.26 756.95 690.17 C 743.44 688.39 739.43 672.41 727.58 667.48 C 715.66 660.17 700.83 659.78 689.40 651.63 C 685.98 647.24 684.07 640.78 677.78 639.75 C 669.11 624.71 662.30 608.70 654.94 593.01 C 652.30 587.43 646.56 584.48 641.59 581.38 C 637.62 578.96 634.47 575.50 631.34 572.12 C 635.95 569.23 640.61 566.23 645.96 564.93 Z" />
</g>
<g id="#6fcfbfff">
<path fill="#6fcfbf" fill-opacity="0" d=" M 838.42 565.38 C 848.05 564.49 857.88 562.90 867.50 564.85 C 865.55 572.15 862.59 579.11 859.66 586.06 C 853.86 586.33 848.01 586.18 842.23 586.14 L 841.66 585.60 C 840.54 578.86 839.67 572.09 838.42 565.38 Z" />
</g>
<g id="#ef4fbffe">
<path fill="#ef4fbf" fill-opacity="0" d=" M 519.98 575.09 C 523.95 572.27 528.42 568.79 533.65 569.90 C 539.38 571.14 545.03 572.79 550.82 573.82 C 547.68 578.76 542.76 583.15 541.95 589.19 C 543.21 592.80 546.32 595.39 548.24 598.66 C 551.77 603.82 550.77 610.66 554.00 615.95 C 556.88 620.73 560.37 625.11 563.11 629.98 C 566.07 634.74 561.02 640.31 563.80 645.13 C 568.36 653.13 574.03 660.45 579.09 668.14 C 576.15 670.96 573.16 673.73 570.17 676.50 C 570.33 681.41 570.53 686.38 570.93 691.30 C 565.88 692.47 559.41 693.78 555.52 689.47 C 551.48 686.18 548.34 681.33 542.90 680.22 C 533.06 676.50 522.38 677.96 512.16 676.74 C 508.48 676.49 506.92 672.60 504.73 670.22 C 495.31 658.70 486.30 646.83 476.37 635.74 C 477.56 632.32 479.43 628.99 479.53 625.31 C 478.46 617.84 470.48 612.50 472.28 604.39 C 476.00 599.94 480.95 595.58 486.82 594.49 C 492.77 596.29 495.68 604.33 502.77 603.28 C 508.96 601.18 515.44 597.79 519.08 592.16 C 520.38 586.72 514.84 579.56 519.98 575.09 Z" />
</g>
<g id="#efcfbffe">
<path fill="#efcfbf" fill-opacity="0" d=" M 1178.67 585.21 C 1181.84 584.20 1185.11 583.26 1188.35 582.30 C 1190.15 585.65 1193.20 587.95 1196.45 589.80 C 1200.70 592.38 1205.29 594.39 1210.09 595.75 C 1215.47 596.94 1221.21 596.09 1226.46 597.98 C 1229.49 600.24 1231.38 603.67 1233.00 607.02 C 1236.18 612.31 1232.25 618.44 1233.98 624.00 C 1235.70 627.52 1239.10 630.28 1242.86 631.34 C 1255.99 628.82 1268.42 619.74 1282.29 622.89 C 1285.23 625.36 1288.30 629.18 1286.89 633.28 C 1284.05 645.88 1274.03 655.36 1270.61 667.79 C 1266.85 682.97 1260.51 697.32 1253.93 711.45 C 1250.95 717.70 1248.26 724.42 1243.33 729.40 C 1238.75 732.14 1237.07 737.44 1235.78 742.30 C 1228.63 768.58 1235.36 795.76 1232.42 822.39 C 1230.58 834.98 1225.96 847.03 1225.16 859.80 C 1227.45 862.15 1230.44 864.35 1231.10 867.78 C 1231.59 870.99 1231.17 874.25 1231.17 877.51 C 1220.41 882.13 1214.39 892.68 1207.52 901.50 C 1203.97 906.44 1200.33 911.33 1196.72 916.23 C 1189.55 912.30 1181.16 910.75 1175.05 904.97 C 1168.19 899.00 1161.70 891.16 1152.13 889.87 C 1136.13 888.14 1120.47 884.08 1104.41 882.75 C 1094.22 881.70 1084.33 878.05 1074.02 878.39 C 1068.01 878.14 1062.93 881.69 1057.41 883.39 C 1051.46 875.34 1044.71 867.89 1039.75 859.14 C 1036.92 853.65 1031.66 850.27 1026.86 846.72 C 1028.35 837.94 1029.79 829.16 1031.42 820.41 C 1032.59 813.55 1037.52 808.01 1038.67 801.16 C 1033.00 795.56 1024.22 794.25 1019.28 787.59 C 1025.91 775.35 1032.51 762.61 1033.51 748.44 C 1027.93 745.76 1022.44 742.95 1016.79 740.45 C 1022.14 726.31 1027.52 712.08 1030.31 697.18 C 1030.82 693.33 1030.27 689.14 1028.08 685.88 C 1025.21 682.71 1020.68 681.97 1016.70 681.10 C 1015.63 670.54 1014.74 659.95 1013.80 649.38 C 1021.82 650.82 1029.92 651.90 1038.05 652.55 C 1045.28 653.18 1051.71 657.15 1058.82 658.25 C 1062.62 657.70 1065.53 654.74 1068.57 652.61 C 1072.93 657.51 1078.28 661.50 1084.55 663.57 C 1090.96 665.74 1097.28 670.14 1104.35 668.67 C 1112.06 667.14 1119.41 664.15 1127.21 662.97 C 1130.72 666.02 1134.28 669.79 1139.19 670.28 C 1144.18 670.70 1149.21 670.51 1154.22 670.38 C 1156.15 668.12 1157.90 665.65 1160.06 663.56 C 1163.77 664.64 1167.02 667.76 1171.10 667.19 C 1179.76 666.38 1188.16 664.02 1196.71 662.50 C 1191.87 651.10 1186.22 639.96 1183.33 627.85 C 1181.99 619.30 1188.58 613.00 1191.78 605.80 C 1192.33 604.19 1194.11 602.05 1192.70 600.35 C 1188.77 594.66 1183.13 590.46 1178.67 585.21 Z" />
</g>
<g id="#6f4fbfff">
<path fill="#6f4fbf" fill-opacity="0" d=" M 836.56 626.65 C 834.58 612.31 837.03 597.86 839.42 583.73 C 839.98 584.20 841.10 585.13 841.66 585.60 L 842.23 586.14 C 845.00 589.45 848.75 592.65 849.60 597.03 C 847.98 602.53 843.33 607.53 845.58 613.68 C 853.73 612.74 862.20 611.17 870.21 613.98 C 875.68 615.50 880.26 619.43 885.88 620.45 C 896.45 620.26 906.41 616.18 916.38 613.12 C 921.96 614.64 928.05 614.96 933.08 618.01 C 935.79 621.54 937.48 625.86 939.04 630.07 C 941.75 637.69 940.95 645.97 942.84 653.76 C 943.88 658.42 948.37 660.93 952.13 663.23 C 960.86 660.98 967.83 654.36 976.50 651.92 C 979.95 650.66 982.40 653.38 984.74 655.26 C 987.72 658.04 990.78 660.91 992.90 664.43 C 992.66 670.76 988.82 676.34 986.91 682.24 C 989.81 683.62 992.77 685.58 996.14 685.31 C 1003.10 684.51 1009.73 681.88 1016.70 681.10 C 1020.68 681.97 1025.21 682.71 1028.08 685.88 C 1030.27 689.14 1030.82 693.33 1030.31 697.18 C 1027.52 712.08 1022.14 726.31 1016.79 740.45 C 1022.44 742.95 1027.93 745.76 1033.51 748.44 C 1032.51 762.61 1025.91 775.35 1019.28 787.59 C 1024.22 794.25 1033.00 795.56 1038.67 801.16 C 1037.52 808.01 1032.59 813.55 1031.42 820.41 C 1029.79 829.16 1028.35 837.94 1026.86 846.72 C 1011.14 837.66 993.68 832.01 978.07 822.74 C 969.56 817.54 960.14 814.14 950.70 811.10 C 943.99 809.32 943.46 800.14 936.71 798.60 C 919.10 794.37 900.56 793.94 883.90 786.17 C 874.32 781.70 866.70 774.10 859.78 766.28 C 853.59 758.42 846.69 751.03 842.03 742.09 C 837.43 733.90 837.27 723.90 831.82 716.11 C 829.56 711.50 824.84 709.21 821.24 705.88 C 816.90 697.41 815.76 687.79 813.11 678.74 C 812.34 674.43 809.98 670.25 810.32 665.83 C 814.53 655.68 821.64 647.09 829.02 639.08 C 827.32 636.78 825.69 634.43 824.03 632.11 C 827.96 629.77 832.05 627.61 836.56 626.65 Z" />
</g>
<g id="#6fcf3ffe">
<path fill="#6fcf3f" fill-opacity="0" d=" M 1290.15 729.09 C 1297.33 723.67 1306.13 719.45 1315.39 720.61 C 1324.39 722.24 1333.30 725.70 1342.61 724.44 C 1342.65 732.29 1335.46 737.37 1331.50 743.29 C 1335.30 748.68 1340.58 752.64 1346.53 755.32 C 1346.19 761.09 1346.18 766.91 1345.27 772.64 C 1344.14 780.04 1340.11 787.27 1342.12 794.94 C 1344.29 805.12 1343.25 815.74 1340.41 825.67 C 1337.84 831.04 1333.15 834.90 1329.24 839.24 C 1322.60 845.68 1319.43 854.64 1313.69 861.78 C 1309.05 868.05 1303.10 873.15 1298.12 879.12 C 1292.50 885.86 1287.66 893.23 1281.70 899.69 C 1267.80 914.01 1254.33 928.76 1239.87 942.52 C 1236.85 939.55 1234.00 936.33 1231.20 933.20 C 1228.78 935.55 1226.43 937.95 1223.97 940.25 C 1224.08 931.40 1228.40 923.48 1231.23 915.30 C 1229.88 915.54 1228.54 915.79 1227.22 916.04 C 1227.35 915.51 1227.60 914.43 1227.72 913.89 C 1224.05 916.35 1220.72 919.73 1216.06 920.15 C 1209.22 922.30 1202.82 918.78 1196.72 916.23 C 1200.33 911.33 1203.97 906.44 1207.52 901.50 C 1214.39 892.68 1220.41 882.13 1231.17 877.51 C 1231.17 874.25 1231.59 870.99 1231.10 867.78 C 1230.44 864.35 1227.45 862.15 1225.16 859.80 C 1225.96 847.03 1230.58 834.98 1232.42 822.39 C 1235.36 795.76 1228.63 768.58 1235.78 742.30 C 1237.07 737.44 1238.75 732.14 1243.33 729.40 C 1249.21 729.31 1255.14 730.03 1260.97 728.93 C 1270.67 726.95 1280.50 730.79 1290.15 729.09 Z" />
</g>
</svg>
