<?xml version="1.0" encoding="UTF-8" ?>
<!DOCTYPE svg PUBLIC "-//W3C//DTD SVG 1.1//EN" "http://www.w3.org/Graphics/SVG/1.1/DTD/svg11.dtd">
<svg width="1920pt" height="1080pt" viewBox="0 0 1920 1080" version="1.1" xmlns="http://www.w3.org/2000/svg">
<g id="#4f5f7ffe">
<path fill="#4f5f7f" fill-opacity="0" d=" M 1182.11 295.97 C 1184.31 297.72 1186.56 299.40 1188.90 301.02 C 1201.90 309.09 1212.24 320.85 1225.68 328.27 C 1233.45 331.74 1239.94 337.38 1247.32 341.56 C 1252.62 344.15 1255.50 349.70 1258.01 354.74 C 1258.54 360.10 1257.15 365.49 1257.01 370.86 C 1258.57 370.56 1260.13 370.27 1261.70 369.97 C 1263.73 363.86 1264.30 357.08 1267.45 351.39 C 1271.23 349.47 1275.68 350.34 1279.73 349.36 C 1281.56 349.03 1283.36 348.27 1285.24 348.35 C 1289.43 350.71 1292.55 355.37 1298.04 354.91 C 1306.40 355.98 1314.86 356.24 1323.24 357.25 C 1337.75 357.77 1352.45 355.69 1366.84 358.34 C 1381.22 360.69 1395.45 363.89 1409.59 367.42 C 1418.72 369.69 1427.96 372.08 1436.14 376.93 C 1445.04 382.17 1455.89 384.55 1462.78 392.81 C 1461.26 396.80 1458.97 400.94 1460.39 405.37 C 1461.28 410.18 1462.56 415.15 1461.12 419.99 C 1459.72 424.17 1463.27 427.74 1465.02 431.12 C 1467.66 434.09 1472.06 430.18 1475.02 430.31 C 1479.31 432.79 1483.58 436.09 1488.63 436.66 C 1494.56 435.60 1503.21 435.19 1505.12 442.45 C 1507.75 443.50 1510.42 444.57 1513.13 445.64 C 1514.08 448.77 1514.57 452.40 1517.28 454.61 C 1521.57 458.27 1527.39 462.92 1525.32 469.51 C 1522.78 476.25 1518.81 482.36 1516.04 489.02 C 1512.65 495.76 1510.07 504.29 1502.64 507.65 C 1497.98 509.97 1492.87 506.97 1488.24 506.32 C 1484.24 516.10 1479.77 525.80 1473.66 534.46 C 1468.64 541.70 1465.93 550.27 1464.45 558.89 C 1462.00 567.26 1457.40 574.79 1453.87 582.73 C 1448.21 581.68 1439.97 577.43 1435.88 583.74 C 1434.92 587.43 1437.34 591.01 1437.95 594.61 C 1440.44 599.48 1437.09 603.94 1435.38 608.29 C 1432.49 614.12 1430.84 620.63 1426.77 625.81 C 1415.49 638.23 1403.09 649.65 1389.51 659.52 C 1383.99 662.97 1381.91 669.00 1379.27 674.51 C 1378.03 677.81 1372.99 675.27 1370.95 676.61 C 1367.97 676.50 1365.86 678.83 1363.62 680.39 C 1353.09 678.89 1342.79 682.63 1332.32 683.14 C 1314.29 684.05 1296.35 686.23 1278.34 687.45 C 1268.95 687.70 1259.61 688.79 1250.26 689.54 C 1235.65 690.89 1220.97 690.16 1206.35 691.40 C 1183.53 692.80 1160.73 694.26 1137.90 695.57 C 1133.70 695.67 1129.46 696.02 1125.30 695.38 C 1124.31 695.06 1123.39 695.19 1122.56 695.76 C 1088.66 698.87 1054.40 697.31 1020.34 697.59 C 999.31 697.91 978.54 694.13 957.58 693.31 C 947.77 691.73 937.65 692.66 927.98 690.37 C 927.06 689.84 926.12 689.77 925.17 690.13 C 919.88 691.37 914.52 689.77 909.20 689.61 C 900.63 689.22 892.17 687.44 883.59 687.56 C 880.69 687.47 878.19 689.31 876.05 691.03 C 869.13 696.41 861.24 700.29 853.75 704.78 C 851.34 706.28 848.52 706.85 845.82 707.54 C 845.52 712.44 845.92 717.32 846.52 722.19 C 822.42 733.06 799.48 746.22 775.75 757.83 C 754.27 769.45 732.08 779.72 710.80 791.74 C 705.15 794.18 699.96 798.34 693.70 799.14 C 686.95 798.70 680.44 796.17 673.62 796.50 C 667.17 796.85 661.57 791.86 654.99 793.88 C 649.70 793.49 645.92 797.27 641.58 799.48 C 633.63 803.42 627.15 809.55 621.23 816.07 C 623.23 820.44 625.05 824.92 626.14 829.62 C 616.34 828.26 606.47 827.22 596.58 827.50 C 593.13 826.76 588.92 828.46 585.89 826.19 C 578.00 821.19 572.56 813.45 566.14 806.84 C 562.32 803.10 560.06 797.70 555.20 795.12 C 549.25 794.66 543.71 799.70 537.72 798.20 C 533.05 795.11 530.30 789.87 526.15 786.15 C 521.09 787.05 515.03 792.16 510.31 787.66 C 505.96 784.97 503.68 780.32 500.21 776.77 C 491.14 767.85 477.24 768.12 467.23 760.76 C 464.01 758.05 462.85 753.77 460.44 750.44 C 457.68 745.98 451.87 745.23 448.32 741.69 C 443.48 735.09 439.99 727.66 435.75 720.69 C 438.54 717.21 441.17 713.54 444.65 710.71 C 451.45 705.49 452.05 694.90 460.20 691.04 C 458.19 685.92 457.34 680.47 456.62 675.05 C 459.56 673.62 462.55 672.30 465.49 670.85 C 458.89 655.11 449.96 640.50 443.04 624.92 C 441.83 622.57 442.68 619.92 443.52 617.62 C 447.07 608.41 452.64 600.20 458.09 592.05 C 465.27 580.30 477.62 572.21 482.16 558.78 C 482.99 554.17 483.65 549.54 485.12 545.07 C 485.85 545.76 486.58 546.45 487.32 547.14 C 486.43 539.56 492.91 534.48 494.77 527.68 C 495.79 524.35 495.54 520.70 494.55 517.41 C 486.97 497.23 477.24 477.82 470.78 457.24 C 482.34 456.01 490.72 465.59 498.80 472.28 C 502.92 475.77 508.53 476.06 513.69 476.52 C 537.29 477.06 562.01 479.23 582.95 491.12 C 590.42 494.64 596.37 500.39 602.82 505.40 C 606.63 508.28 606.82 513.50 608.51 517.62 C 615.79 543.00 624.32 567.99 631.77 593.32 C 635.28 601.70 632.31 610.86 635.71 619.25 C 638.34 628.27 637.37 637.82 638.85 647.04 C 640.10 652.03 638.69 657.03 637.59 661.90 C 632.17 660.93 626.83 659.12 621.31 659.06 C 611.79 660.53 602.36 662.72 592.81 663.95 C 586.17 662.89 578.93 664.01 573.86 668.73 C 572.09 673.21 575.79 677.40 577.77 681.09 C 592.90 680.09 607.95 677.30 621.86 671.08 C 624.59 672.57 627.26 674.18 629.92 675.80 C 632.25 669.92 637.74 666.39 641.43 661.51 C 645.06 654.86 645.42 647.21 642.54 640.34 C 644.57 638.21 646.80 636.23 648.66 633.95 C 650.08 630.32 649.93 626.17 651.90 622.72 C 654.40 618.79 658.48 615.94 660.42 611.66 C 660.89 606.51 658.55 601.43 659.34 596.30 C 661.49 592.76 665.67 591.20 668.85 588.77 C 670.56 590.10 672.29 591.41 674.02 592.73 C 677.56 590.53 681.14 587.97 685.54 587.97 C 688.30 587.86 690.88 589.28 693.64 589.20 C 697.50 588.32 700.72 585.80 704.22 584.07 C 705.31 585.11 706.41 586.15 707.53 587.19 C 709.41 577.54 706.33 568.01 704.17 558.67 C 706.83 561.02 709.28 563.65 712.11 565.83 C 716.39 568.77 721.79 568.27 726.71 569.02 C 719.64 538.28 713.35 507.36 706.44 476.58 C 704.71 467.96 702.61 459.13 704.27 450.31 C 706.86 436.37 710.28 422.10 718.15 410.09 C 727.92 397.00 744.34 388.68 760.81 390.33 C 772.57 394.37 780.76 404.44 791.14 410.85 C 797.68 415.06 803.49 421.43 804.44 429.43 C 808.00 458.15 811.55 486.87 815.43 515.55 C 821.36 510.79 826.13 504.47 833.07 501.06 C 840.87 498.90 848.99 500.89 856.84 501.70 C 868.98 501.39 880.02 496.02 891.14 491.82 C 891.84 495.71 892.56 499.64 893.37 503.55 C 893.60 498.99 893.65 494.45 893.43 489.89 C 906.90 480.96 920.78 472.69 934.93 464.88 C 954.79 452.39 978.79 447.29 1002.05 447.82 C 1001.88 449.02 1001.72 450.22 1001.57 451.42 C 1003.67 449.60 1006.19 448.42 1008.91 447.85 C 1008.54 475.74 1005.06 503.65 1007.13 531.51 C 1011.28 505.07 1008.70 478.07 1012.45 451.60 C 1013.28 479.74 1010.64 507.86 1009.19 535.95 C 1010.72 537.05 1012.28 538.13 1013.86 539.19 C 1015.57 509.81 1016.44 480.39 1018.29 451.02 C 1019.53 451.52 1022.01 452.53 1023.25 453.03 C 1023.43 474.43 1021.43 495.82 1020.40 517.20 C 1023.90 509.58 1032.52 504.95 1033.15 496.08 C 1034.56 481.74 1034.90 467.30 1036.37 452.96 C 1043.20 452.76 1049.95 453.90 1055.30 458.50 C 1054.10 470.62 1053.14 482.76 1052.13 494.90 C 1059.40 492.73 1064.58 486.79 1071.28 483.65 C 1077.96 483.17 1083.08 489.77 1090.02 488.85 C 1095.24 488.86 1100.11 483.89 1105.33 486.61 C 1111.00 489.65 1116.60 492.84 1122.64 495.15 C 1123.90 488.64 1123.08 480.98 1127.56 475.54 C 1137.01 468.42 1149.59 468.77 1160.14 464.11 C 1163.92 462.69 1162.94 457.52 1164.28 454.31 C 1155.30 447.90 1151.53 437.02 1143.14 430.13 C 1143.56 416.97 1146.40 404.04 1148.07 391.01 C 1151.51 369.02 1154.64 346.99 1158.11 325.01 C 1159.71 315.39 1164.52 306.72 1166.61 297.22 C 1167.13 297.14 1168.17 296.97 1168.69 296.89 C 1168.08 301.32 1167.53 305.77 1167.09 310.23 C 1169.38 307.08 1171.07 303.53 1173.46 300.46 C 1176.11 298.55 1179.21 297.49 1182.11 295.97 M 1168.12 456.52 C 1166.79 457.46 1168.35 459.73 1169.68 458.67 C 1170.98 457.73 1169.41 455.49 1168.12 456.52 M 1230.08 496.96 C 1229.29 499.90 1228.54 502.86 1227.83 505.82 C 1232.07 506.31 1236.31 506.78 1240.53 507.44 C 1237.26 503.74 1233.62 500.38 1230.08 496.96 M 924.94 583.56 C 923.10 587.15 920.31 592.70 924.37 595.75 C 927.96 595.62 932.20 593.43 931.81 589.26 C 930.15 586.70 927.34 585.28 924.94 583.56 Z" />
<path fill="#4f5f7f" fill-opacity="0" d=" M 1033.74 469.36 C 1033.48 464.44 1033.24 459.55 1033.26 454.64 C 1033.43 459.52 1033.76 464.45 1033.74 469.36 Z" />
</g>
<g id="#4f5f7fff">
<path fill="#4f5f7f" fill-opacity="0" d=" M 1155.40 318.37 C 1155.39 314.09 1155.88 309.85 1156.57 305.64 C 1156.41 309.90 1155.92 314.13 1155.40 318.37 Z" />
<path fill="#4f5f7f" fill-opacity="0" d=" M 1144.27 388.12 C 1146.00 388.07 1146.00 391.92 1144.27 391.88 C 1143.16 391.03 1143.16 388.96 1144.27 388.12 Z" />
<path fill="#4f5f7f" fill-opacity="0" d=" M 1032.72 484.36 C 1032.50 479.77 1032.33 475.22 1032.28 470.64 C 1032.41 475.19 1032.67 479.78 1032.72 484.36 Z" />
<path fill="#4f5f7f" fill-opacity="0" d=" M 1031.67 499.34 C 1031.46 495.09 1031.36 490.88 1031.33 486.66 C 1031.44 490.86 1031.63 495.11 1031.67 499.34 Z" />
</g>
<g id="#4a5876ec">
<path fill="#4a5876" opacity="0.93" d=" M 1153.46 332.39 C 1153.53 327.76 1154.00 323.16 1154.58 318.58 C 1154.76 323.21 1154.33 327.84 1153.46 332.39 Z" />
<path fill="#4a5876" opacity="0.93" d=" M 1142.44 407.39 C 1142.33 402.76 1142.89 398.17 1143.56 393.61 C 1143.65 398.23 1143.09 402.82 1142.44 407.39 Z" />
</g>
<g id="#475672e5">
<path fill="#475672" opacity="0.90" d=" M 1145.25 386.34 C 1146.46 368.30 1149.41 350.39 1152.74 332.63 C 1151.69 350.67 1148.73 368.62 1145.25 386.34 Z" />
<path fill="#475672" opacity="0.90" d=" M 1140.30 417.33 C 1140.62 414.10 1141.14 410.87 1141.77 407.70 C 1141.35 410.90 1141.04 414.17 1140.30 417.33 Z" />
</g>
<g id="#cf5f7fff">
<path fill="#cf5f7f" fill-opacity="0" d=" M 924.94 583.56 C 927.34 585.28 930.15 586.70 931.81 589.26 C 932.20 593.43 927.96 595.62 924.37 595.75 C 920.31 592.70 923.10 587.15 924.94 583.56 Z" />
</g>
<g id="#2fdf7fff">
<path fill="#2fdf7f" fill-opacity="0" d=" M 925.17 690.13 C 926.12 689.77 927.06 689.84 927.98 690.37 C 926.85 691.78 925.91 691.71 925.17 690.13 Z" />
</g>
<g id="#655f2aff">
<path fill="#655f2a" fill-opacity="0" d=" M 1122.56 695.76 C 1123.39 695.19 1124.31 695.06 1125.30 695.38 C 1124.55 697.02 1123.64 697.15 1122.56 695.76 Z" />
</g>
</svg>
