<?xml version="1.0" encoding="UTF-8" ?>
<!DOCTYPE svg PUBLIC "-//W3C//DTD SVG 1.1//EN" "http://www.w3.org/Graphics/SVG/1.1/DTD/svg11.dtd">
<svg width="1920pt" height="1080pt" viewBox="0 0 1920 1080" version="1.1" xmlns="http://www.w3.org/2000/svg">
<g id="#bf9f7fff">
<path fill="#bf9f7f" fill-opacity="0" d=" M 587.12 257.37 C 593.29 253.93 599.23 249.98 605.87 247.43 C 610.43 254.55 612.76 262.66 615.72 270.49 C 617.49 275.45 624.07 276.35 625.51 281.56 C 627.53 287.92 631.31 295.12 627.68 301.66 C 625.08 308.48 622.03 315.12 619.41 321.93 C 618.98 325.77 619.97 329.62 619.95 333.48 C 622.48 335.41 625.55 336.80 627.74 339.19 C 630.38 343.37 631.53 348.27 633.25 352.87 C 638.00 351.69 642.43 349.59 646.96 347.76 C 653.43 345.66 660.32 346.43 666.99 345.84 C 674.24 345.23 681.40 343.86 688.66 343.33 C 696.04 342.63 703.25 338.69 710.78 340.39 C 713.03 342.86 714.83 345.71 716.75 348.46 C 714.74 351.02 712.59 353.49 710.85 356.23 C 708.78 361.59 709.50 368.10 705.87 372.82 C 700.78 379.38 695.50 385.84 689.24 391.34 C 685.37 395.02 688.76 400.52 687.62 404.99 C 686.46 408.71 684.64 412.18 683.01 415.71 C 677.03 423.32 665.40 418.72 659.35 426.33 C 655.78 430.14 656.02 435.88 654.52 440.60 C 653.32 446.94 649.10 452.35 648.52 458.84 C 647.50 468.93 650.49 478.80 651.89 488.70 C 647.97 491.11 644.45 494.08 640.74 496.79 C 633.68 495.80 625.92 492.64 619.16 496.14 C 609.13 501.15 598.14 503.77 587.87 508.14 C 575.18 508.56 562.79 504.47 550.29 502.85 C 545.27 502.77 540.81 505.81 536.27 507.52 C 533.58 504.86 530.70 500.70 526.34 501.79 C 516.03 504.09 506.70 509.93 499.43 517.51 C 497.17 520.05 493.91 521.21 490.70 521.99 C 483.63 523.71 477.06 526.92 470.58 530.15 C 473.59 535.10 476.35 540.28 480.24 544.62 C 471.05 541.60 461.45 540.41 451.85 542.05 C 447.07 535.44 442.21 528.78 439.00 521.24 C 436.59 520.49 433.55 520.42 432.20 517.88 C 429.61 514.18 426.03 510.69 425.00 506.15 C 425.17 498.40 428.79 491.20 432.73 484.70 C 434.25 481.82 437.64 480.95 440.31 479.51 C 441.06 475.94 441.93 472.40 442.54 468.81 C 438.64 464.43 439.20 458.48 440.33 453.19 C 440.69 447.50 446.74 445.06 449.32 440.51 C 447.40 437.20 445.07 434.07 443.80 430.45 C 441.81 425.93 446.33 423.41 448.00 419.97 C 448.75 417.98 449.01 415.86 449.41 413.79 C 456.35 405.54 460.28 395.30 466.23 386.37 C 470.96 379.12 472.03 369.70 478.72 363.72 C 482.65 359.65 488.30 357.59 491.58 352.77 C 491.09 349.11 488.92 345.83 488.77 342.10 C 489.75 338.07 492.22 334.52 493.02 330.42 C 493.03 326.94 492.70 323.48 492.05 320.06 C 494.77 317.45 497.51 314.84 499.89 311.90 C 502.94 309.20 502.14 304.99 503.63 301.62 C 507.95 297.74 513.58 295.84 518.37 292.65 C 521.80 290.39 523.08 285.57 527.12 284.18 C 530.77 284.20 535.13 285.45 537.09 288.82 C 538.59 291.26 539.97 293.79 541.39 296.31 C 544.74 293.64 547.94 290.66 552.07 289.19 C 559.01 286.46 564.25 280.94 570.93 277.72 C 571.68 268.28 579.72 262.01 587.12 257.37 Z" />
</g>
<g id="#7f5f00ff">
<path fill="#7f5f00" fill-opacity="0" d=" M 710.78 340.39 C 716.43 339.60 722.14 338.95 727.86 339.32 C 731.17 340.06 733.62 342.63 736.14 344.73 C 741.45 343.49 746.78 342.33 752.13 341.16 C 756.56 349.04 758.15 358.10 758.69 367.02 C 760.77 369.25 762.53 371.68 763.99 374.38 C 770.71 374.44 778.02 372.93 784.28 376.25 C 794.65 374.55 801.78 365.60 811.12 361.49 C 816.91 362.67 821.08 367.78 826.87 369.14 C 829.64 363.90 829.61 357.69 829.60 351.93 C 833.87 351.03 838.84 349.30 842.72 352.31 C 847.26 355.86 853.27 354.86 858.60 356.14 C 861.51 357.39 863.56 360.88 867.07 360.43 C 872.33 360.56 878.79 357.23 882.89 362.07 C 886.66 366.41 892.88 368.03 896.13 372.71 C 898.20 383.70 896.81 395.18 900.22 406.01 C 905.77 406.54 911.45 405.90 916.92 407.13 C 920.79 407.79 922.10 412.10 923.44 415.26 C 925.18 424.67 926.15 434.22 927.85 443.66 C 920.51 444.29 913.23 445.51 905.87 445.71 C 897.00 445.93 888.04 444.56 879.25 446.27 C 872.94 447.54 867.36 450.86 861.69 453.71 C 850.88 459.45 838.65 462.43 828.73 469.84 C 826.09 471.95 821.80 474.05 819.15 470.82 C 816.64 465.54 815.66 459.66 813.30 454.30 C 806.75 458.81 799.23 461.48 791.46 462.95 C 789.66 470.53 781.93 473.90 775.24 476.29 C 769.74 478.22 764.16 479.92 758.70 481.95 C 757.70 480.51 756.74 479.06 755.77 477.61 C 746.90 481.79 737.20 477.38 729.93 471.99 C 723.73 467.69 718.73 462.01 714.07 456.15 C 715.61 453.50 717.03 450.77 718.41 448.02 C 711.31 443.48 703.76 439.63 696.93 434.69 C 699.67 432.56 702.61 430.70 705.68 429.07 C 699.57 422.60 692.03 416.99 683.01 415.71 C 684.64 412.18 686.46 408.71 687.62 404.99 C 688.76 400.52 685.37 395.02 689.24 391.34 C 695.50 385.84 700.78 379.38 705.87 372.82 C 709.50 368.10 708.78 361.59 710.85 356.23 C 712.59 353.49 714.74 351.02 716.75 348.46 C 714.83 345.71 713.03 342.86 710.78 340.39 M 734.29 404.26 C 736.30 403.44 738.17 402.29 739.71 400.74 C 737.68 401.55 735.83 402.70 734.29 404.26 Z" />
</g>
<g id="#005f00ff">
<path fill="#005f00" fill-opacity="0" d=" M 734.29 404.26 C 735.83 402.70 737.68 401.55 739.71 400.74 C 738.17 402.29 736.30 403.44 734.29 404.26 Z" />
</g>
<g id="#7f9f00ff">
<path fill="#7f9f00" fill-opacity="0" d=" M 683.01 415.71 C 692.03 416.99 699.57 422.60 705.68 429.07 C 702.61 430.70 699.67 432.56 696.93 434.69 C 703.76 439.63 711.31 443.48 718.41 448.02 C 717.03 450.77 715.61 453.50 714.07 456.15 C 718.73 462.01 723.73 467.69 729.93 471.99 C 737.20 477.38 746.90 481.79 755.77 477.61 C 756.74 479.06 757.70 480.51 758.70 481.95 C 760.23 484.12 761.84 486.23 763.45 488.35 C 761.29 490.49 759.11 492.67 757.46 495.25 C 755.78 498.08 757.41 501.29 758.03 504.18 C 754.16 506.32 750.28 508.42 746.44 510.61 C 746.89 511.13 747.79 512.19 748.24 512.72 C 753.18 513.54 758.65 514.88 761.53 519.39 C 768.00 529.12 775.61 538.23 780.08 549.14 C 771.36 556.82 761.70 563.30 751.16 568.17 C 740.65 573.08 733.48 585.77 720.89 585.68 C 716.71 585.87 712.50 585.73 708.37 585.20 C 704.93 584.47 702.78 581.38 700.39 579.10 C 698.48 581.37 696.61 583.68 694.70 585.94 C 688.31 585.70 681.90 585.76 675.54 585.02 C 678.55 578.99 680.20 572.33 680.19 565.59 C 680.18 561.05 683.53 556.68 681.89 552.18 C 678.21 545.70 669.50 543.83 662.86 546.67 C 656.75 547.55 650.75 555.38 644.67 550.37 C 637.91 544.16 633.75 535.33 631.48 526.53 C 634.11 525.23 636.76 523.94 639.41 522.66 C 635.96 518.22 633.14 513.26 633.02 507.44 C 636.01 507.12 639.17 507.17 641.93 505.78 C 642.89 502.75 641.50 499.70 640.74 496.79 C 644.45 494.08 647.97 491.11 651.89 488.70 C 650.49 478.80 647.50 468.93 648.52 458.84 C 649.10 452.35 653.32 446.94 654.52 440.60 C 656.02 435.88 655.78 430.14 659.35 426.33 C 665.40 418.72 677.03 423.32 683.01 415.71 Z" />
</g>
<g id="#df3fbfff">
<path fill="#df3fbf" fill-opacity="0" d=" M 970.55 436.13 C 974.75 431.90 978.87 426.60 985.46 426.68 C 989.07 433.74 995.23 438.93 1000.25 444.94 C 1009.03 444.80 1017.87 443.85 1026.65 444.72 C 1034.81 445.95 1038.89 455.15 1047.33 455.38 C 1059.42 455.30 1070.82 450.43 1082.80 449.34 C 1087.17 448.86 1091.73 446.86 1096.00 448.82 C 1102.61 451.17 1110.15 452.45 1114.98 458.00 C 1119.16 456.29 1122.91 453.72 1127.00 451.82 L 1127.02 452.74 C 1126.94 464.90 1129.02 477.04 1128.25 489.19 C 1126.78 496.56 1126.81 504.62 1123.34 511.42 C 1118.72 514.97 1112.31 515.48 1106.85 517.38 C 1106.36 520.69 1106.33 524.13 1105.18 527.30 C 1102.78 529.63 1099.31 530.41 1096.22 531.44 C 1086.10 534.27 1075.60 536.13 1065.08 535.49 C 1064.09 545.23 1062.59 554.96 1062.51 564.77 C 1063.12 574.27 1063.77 583.84 1065.66 593.19 C 1067.10 596.73 1070.07 599.43 1072.48 602.35 C 1075.71 601.59 1080.29 598.53 1082.72 602.23 C 1085.34 606.83 1089.03 611.93 1088.15 617.58 C 1087.73 620.85 1088.20 624.13 1088.92 627.33 C 1081.81 628.76 1074.63 629.69 1067.45 630.61 C 1064.92 631.83 1059.24 630.51 1058.50 634.44 C 1058.37 638.16 1059.01 641.87 1059.76 645.51 C 1064.45 645.75 1070.54 643.64 1073.62 648.38 C 1079.59 653.24 1078.99 661.20 1080.38 667.97 C 1082.32 672.40 1085.66 676.10 1088.20 680.22 C 1085.79 680.30 1083.40 680.35 1081.01 680.38 C 1080.77 683.23 1080.63 686.09 1080.50 688.95 C 1089.82 693.26 1099.08 700.26 1100.94 711.04 C 1105.37 710.02 1109.79 708.73 1114.36 708.48 C 1121.53 708.45 1127.18 713.49 1133.05 716.93 C 1141.24 722.43 1149.74 727.52 1158.88 731.31 C 1159.08 741.82 1154.19 751.38 1151.10 761.12 C 1144.33 764.39 1135.82 763.74 1128.92 767.05 C 1125.48 770.64 1123.69 776.13 1117.92 776.83 C 1114.52 785.10 1117.25 794.09 1114.72 802.46 C 1113.00 808.15 1112.01 814.39 1108.21 819.19 C 1103.47 825.41 1097.94 830.96 1092.51 836.58 C 1089.29 834.75 1086.57 831.87 1082.99 830.92 C 1068.50 830.66 1053.99 829.81 1039.49 830.68 C 1036.96 827.88 1034.34 825.16 1031.85 822.32 C 1029.31 822.86 1026.77 823.69 1024.15 823.62 C 1021.28 822.43 1019.40 819.75 1016.74 818.22 C 1011.36 819.30 1007.44 825.00 1001.42 823.37 C 995.32 822.35 988.52 821.59 983.51 817.67 C 982.93 813.50 983.63 809.30 984.41 805.22 C 983.04 804.34 981.68 803.46 980.33 802.60 C 980.13 798.50 979.93 794.42 979.73 790.35 C 976.14 792.03 973.10 794.90 969.18 795.77 C 965.10 792.95 960.92 789.72 958.16 785.58 C 957.52 780.89 956.41 776.32 954.42 772.01 C 953.79 768.95 953.48 765.80 953.24 762.71 C 958.31 763.09 964.20 764.88 968.88 761.89 C 972.18 759.32 973.74 755.22 976.19 751.95 C 978.76 748.34 981.35 744.56 981.71 739.97 C 983.54 728.15 983.68 716.13 983.11 704.20 C 986.30 703.12 989.50 702.07 992.69 701.00 C 994.24 693.65 995.97 686.23 999.92 679.76 C 1002.20 673.47 1007.96 669.18 1009.84 662.72 C 1011.71 657.77 1011.24 652.37 1011.90 647.23 C 1013.35 641.98 1018.40 638.20 1019.37 632.78 C 1017.51 626.74 1011.30 622.91 1005.39 621.50 C 1004.65 616.27 1005.01 610.93 1004.24 605.73 C 1003.74 602.90 1000.38 602.61 998.07 602.58 C 988.95 602.81 979.82 603.30 970.78 604.52 C 964.71 605.31 958.65 603.43 952.64 603.82 C 948.38 606.16 948.27 612.74 943.38 614.51 C 935.30 619.38 927.22 612.95 919.64 610.59 C 916.96 609.34 914.06 607.34 911.10 609.12 C 906.78 610.91 902.05 610.84 897.47 610.99 C 898.87 601.98 901.24 593.10 902.30 584.07 C 899.39 576.20 894.96 568.05 887.37 563.78 C 883.26 561.21 877.89 559.32 876.11 554.36 C 874.87 550.37 873.26 545.66 875.87 541.90 C 881.55 534.66 893.57 536.62 898.44 528.55 C 901.79 523.27 904.76 517.62 909.35 513.26 C 913.15 510.00 912.86 504.47 912.35 499.92 C 909.61 481.92 906.34 463.96 905.87 445.71 C 913.23 445.51 920.51 444.29 927.85 443.66 C 935.61 442.67 943.18 440.25 950.30 437.04 C 956.97 436.56 964.08 438.72 970.55 436.13 M 1001.33 592.68 C 1003.09 591.81 1005.09 591.21 1006.54 589.81 C 1006.61 588.19 1006.36 586.58 1006.24 584.99 C 1004.04 587.16 1002.44 589.81 1001.33 592.68 Z" />
</g>
<g id="#7f1f7fff">
<path fill="#7f1f7f" fill-opacity="0" d=" M 1283.96 439.82 C 1287.01 436.96 1291.37 436.24 1295.24 434.99 C 1298.66 440.62 1303.85 444.42 1309.42 447.70 C 1312.14 449.11 1312.40 452.24 1312.75 454.94 C 1316.77 457.36 1321.28 459.81 1326.14 458.64 C 1329.50 461.45 1332.96 464.16 1336.79 466.34 C 1338.57 462.53 1340.40 458.73 1341.86 454.78 C 1346.02 455.66 1350.01 457.27 1354.16 458.23 C 1359.95 459.14 1365.77 456.70 1371.58 457.67 C 1373.28 460.01 1373.85 463.08 1375.84 465.23 C 1378.83 467.09 1382.72 466.47 1385.76 468.28 C 1387.83 469.86 1389.01 472.37 1391.13 473.92 C 1394.72 475.96 1398.78 477.06 1402.75 478.20 C 1404.72 475.83 1406.76 473.49 1408.76 471.12 C 1409.69 472.46 1410.65 473.80 1411.63 475.13 C 1412.78 473.02 1413.92 470.91 1415.09 468.80 C 1422.93 469.33 1426.52 477.59 1433.77 479.54 C 1437.08 480.39 1439.69 482.70 1441.70 485.40 C 1444.51 489.13 1449.04 491.15 1451.79 494.93 C 1454.48 500.48 1454.81 507.17 1459.03 511.96 C 1462.14 515.54 1465.35 519.42 1469.70 521.53 C 1475.33 522.91 1481.13 523.89 1486.60 525.93 C 1492.61 528.43 1499.79 526.63 1505.11 530.95 C 1511.75 536.39 1521.28 533.01 1527.74 538.84 C 1525.44 542.48 1522.82 545.89 1520.57 549.55 C 1518.07 553.35 1521.85 558.22 1519.02 561.95 C 1515.52 567.35 1511.06 572.05 1507.34 577.30 C 1495.77 594.32 1477.56 604.93 1462.72 618.70 C 1457.86 624.05 1451.78 629.77 1444.05 629.37 C 1435.88 627.43 1430.26 620.13 1422.35 617.63 C 1416.16 616.22 1410.01 619.74 1405.17 623.16 C 1401.53 625.77 1401.50 630.66 1399.29 634.24 C 1393.09 644.47 1385.64 653.95 1380.10 664.60 C 1372.93 662.25 1367.16 656.18 1359.40 655.70 C 1349.98 656.67 1340.86 660.89 1331.28 659.73 C 1327.58 656.84 1327.64 650.58 1322.85 648.88 C 1313.61 644.26 1304.12 651.10 1295.88 654.92 C 1289.08 660.94 1280.03 660.00 1271.76 661.13 C 1265.95 662.66 1260.03 663.85 1253.99 663.55 C 1252.85 660.33 1252.32 656.93 1250.81 653.87 C 1249.27 651.05 1245.52 650.97 1242.73 651.26 C 1239.27 651.48 1237.74 655.07 1235.95 657.49 C 1232.03 657.01 1228.97 654.61 1225.63 652.83 C 1222.34 653.41 1219.64 655.92 1216.25 656.11 C 1210.71 656.05 1204.92 654.87 1199.71 657.30 C 1194.13 659.90 1188.64 656.27 1183.09 655.89 C 1177.83 654.92 1172.57 656.38 1167.30 656.48 C 1164.88 664.63 1160.73 672.58 1161.10 681.27 C 1161.12 686.59 1158.44 691.49 1158.14 696.76 C 1159.67 708.17 1160.20 719.86 1158.88 731.31 C 1149.74 727.52 1141.24 722.43 1133.05 716.93 C 1127.18 713.49 1121.53 708.45 1114.36 708.48 C 1109.79 708.73 1105.37 710.02 1100.94 711.04 C 1099.08 700.26 1089.82 693.26 1080.50 688.95 C 1080.63 686.09 1080.77 683.23 1081.01 680.38 C 1083.40 680.35 1085.79 680.30 1088.20 680.22 C 1085.66 676.10 1082.32 672.40 1080.38 667.97 C 1078.99 661.20 1079.59 653.24 1073.62 648.38 C 1070.54 643.64 1064.45 645.75 1059.76 645.51 C 1059.01 641.87 1058.37 638.16 1058.50 634.44 C 1059.24 630.51 1064.92 631.83 1067.45 630.61 C 1074.63 629.69 1081.81 628.76 1088.92 627.33 C 1088.20 624.13 1087.73 620.85 1088.15 617.58 C 1089.03 611.93 1085.34 606.83 1082.72 602.23 C 1080.29 598.53 1075.71 601.59 1072.48 602.35 C 1070.07 599.43 1067.10 596.73 1065.66 593.19 C 1063.77 583.84 1063.12 574.27 1062.51 564.77 C 1062.59 554.96 1064.09 545.23 1065.08 535.49 C 1075.60 536.13 1086.10 534.27 1096.22 531.44 C 1099.31 530.41 1102.78 529.63 1105.18 527.30 C 1106.33 524.13 1106.36 520.69 1106.85 517.38 C 1112.31 515.48 1118.72 514.97 1123.34 511.42 C 1126.81 504.62 1126.78 496.56 1128.25 489.19 C 1129.02 477.04 1126.94 464.90 1127.02 452.74 C 1131.34 452.91 1135.72 453.86 1139.76 455.44 C 1143.69 457.15 1144.78 461.66 1147.28 464.77 C 1153.07 473.07 1162.97 476.63 1171.24 481.82 C 1175.03 483.97 1178.46 486.99 1182.67 488.38 C 1189.37 491.40 1194.78 485.19 1201.23 484.68 C 1208.80 484.06 1216.18 481.00 1223.87 482.24 C 1233.88 483.14 1243.86 481.73 1253.82 480.77 C 1255.86 475.03 1258.13 469.37 1259.76 463.49 C 1265.43 461.93 1271.23 459.67 1274.88 454.81 C 1278.64 450.29 1280.79 444.72 1283.96 439.82 M 1166.53 519.98 C 1165.93 521.76 1165.37 523.55 1164.82 525.36 C 1167.27 525.39 1169.70 525.15 1172.12 524.73 C 1170.44 522.93 1168.53 521.38 1166.53 519.98 M 1071.76 562.94 C 1071.71 564.95 1071.77 566.96 1071.90 568.97 C 1073.26 568.98 1074.63 568.99 1076.01 569.01 C 1076.79 567.32 1077.57 565.63 1078.35 563.95 C 1076.70 563.70 1073.40 563.19 1071.76 562.94 M 1079.30 591.83 C 1078.86 593.01 1078.44 594.20 1078.03 595.39 C 1079.40 595.28 1080.77 595.13 1082.17 595.00 C 1081.20 593.93 1080.25 592.87 1079.30 591.83 M 1123.19 619.27 C 1125.84 619.95 1128.56 620.38 1131.30 620.61 C 1130.52 618.57 1129.71 616.55 1128.90 614.54 C 1126.87 615.96 1124.95 617.53 1123.19 619.27 M 1150.04 619.00 C 1150.40 619.95 1150.78 620.91 1151.17 621.87 C 1151.90 621.94 1153.36 622.06 1154.09 622.13 C 1154.44 620.69 1154.81 619.26 1155.20 617.85 C 1153.47 618.22 1151.75 618.62 1150.04 619.00 Z" />
</g>
<g id="#bf1f7fff">
<path fill="#bf1f7f" fill-opacity="0" d=" M 879.25 446.27 C 888.04 444.56 897.00 445.93 905.87 445.71 C 906.34 463.96 909.61 481.92 912.35 499.92 C 912.86 504.47 913.15 510.00 909.35 513.26 C 904.76 517.62 901.79 523.27 898.44 528.55 C 893.57 536.62 881.55 534.66 875.87 541.90 C 873.26 545.66 874.87 550.37 876.11 554.36 C 877.89 559.32 883.26 561.21 887.37 563.78 C 894.96 568.05 899.39 576.20 902.30 584.07 C 901.24 593.10 898.87 601.98 897.47 610.99 C 893.47 625.29 880.26 633.98 868.30 641.27 C 861.87 645.08 860.81 652.88 859.36 659.55 C 857.32 658.06 856.54 661.88 859.03 661.13 C 857.79 669.16 855.25 677.30 856.68 685.46 C 859.95 691.86 867.19 694.77 871.46 700.39 C 877.59 709.26 880.95 719.72 882.63 730.31 C 879.31 731.32 876.03 732.69 872.57 733.04 C 866.70 732.05 861.93 728.02 857.08 724.90 C 855.12 723.70 853.00 721.59 850.55 722.78 C 844.88 724.89 839.21 727.01 833.24 728.16 C 831.81 725.31 830.86 722.09 828.67 719.72 C 823.63 718.51 818.30 719.20 813.49 720.99 C 811.19 716.65 808.93 712.26 806.72 707.89 C 812.76 701.87 819.53 696.47 824.68 689.62 C 828.04 685.10 826.74 679.14 825.44 674.15 C 831.86 667.64 835.80 659.20 837.58 650.29 C 833.49 649.60 829.00 648.04 825.09 650.10 C 819.82 652.65 815.21 656.58 809.42 657.98 C 803.47 658.42 797.27 655.23 791.45 657.49 C 785.56 661.89 779.58 669.15 781.07 677.04 C 781.30 680.98 783.01 685.67 780.02 688.95 C 775.55 694.19 768.24 695.46 761.94 697.02 C 753.93 698.94 746.20 694.87 738.19 695.01 C 732.98 694.95 726.48 692.58 725.58 686.78 C 726.33 680.15 731.18 675.05 734.50 669.55 C 737.58 664.67 733.62 658.46 729.43 655.73 C 723.71 654.22 717.61 655.05 711.82 653.97 C 708.10 653.30 705.37 650.44 702.45 648.29 C 705.56 639.38 712.40 629.46 706.88 620.20 C 700.38 609.81 695.97 598.17 694.70 585.94 C 696.61 583.68 698.48 581.37 700.39 579.10 C 702.78 581.38 704.93 584.47 708.37 585.20 C 712.50 585.73 716.71 585.87 720.89 585.68 C 733.48 585.77 740.65 573.08 751.16 568.17 C 761.70 563.30 771.36 556.82 780.08 549.14 C 775.61 538.23 768.00 529.12 761.53 519.39 C 758.65 514.88 753.18 513.54 748.24 512.72 C 747.79 512.19 746.89 511.13 746.44 510.61 C 750.28 508.42 754.16 506.32 758.03 504.18 C 757.41 501.29 755.78 498.08 757.46 495.25 C 759.11 492.67 761.29 490.49 763.45 488.35 C 761.84 486.23 760.23 484.12 758.70 481.95 C 764.16 479.92 769.74 478.22 775.24 476.29 C 781.93 473.90 789.66 470.53 791.46 462.95 C 799.23 461.48 806.75 458.81 813.30 454.30 C 815.66 459.66 816.64 465.54 819.15 470.82 C 821.80 474.05 826.09 471.95 828.73 469.84 C 838.65 462.43 850.88 459.45 861.69 453.71 C 867.36 450.86 872.94 447.54 879.25 446.27 Z" />
</g>
<g id="#dfbfbfff">
<path fill="#dfbfbf" fill-opacity="0" d=" M 619.16 496.14 C 625.92 492.64 633.68 495.80 640.74 496.79 C 641.50 499.70 642.89 502.75 641.93 505.78 C 639.17 507.17 636.01 507.12 633.02 507.44 C 633.14 513.26 635.96 518.22 639.41 522.66 C 636.76 523.94 634.11 525.23 631.48 526.53 C 633.75 535.33 637.91 544.16 644.67 550.37 C 650.75 555.38 656.75 547.55 662.86 546.67 C 669.50 543.83 678.21 545.70 681.89 552.18 C 683.53 556.68 680.18 561.05 680.19 565.59 C 680.20 572.33 678.55 578.99 675.54 585.02 C 668.22 592.01 658.85 596.30 650.01 601.01 C 643.05 604.82 635.02 606.68 628.88 611.89 C 612.70 623.93 592.81 628.65 574.08 635.17 C 563.78 637.94 553.03 643.23 542.17 640.22 L 541.12 640.03 C 538.58 629.58 535.55 618.87 536.68 608.01 C 538.25 603.26 542.08 599.33 542.53 594.18 C 542.80 592.34 541.11 591.17 539.95 590.07 C 532.57 584.14 525.96 577.35 518.52 571.51 C 511.14 565.58 503.59 559.78 497.33 552.63 C 492.58 548.15 485.61 547.73 480.24 544.62 C 476.35 540.28 473.59 535.10 470.58 530.15 C 477.06 526.92 483.63 523.71 490.70 521.99 C 493.91 521.21 497.17 520.05 499.43 517.51 C 506.70 509.93 516.03 504.09 526.34 501.79 C 530.70 500.70 533.58 504.86 536.27 507.52 C 540.81 505.81 545.27 502.77 550.29 502.85 C 562.79 504.47 575.18 508.56 587.87 508.14 C 598.14 503.77 609.13 501.15 619.16 496.14 Z" />
</g>
<g id="#001f00ff">
<path fill="#001f00" fill-opacity="0" d=" M 1166.53 519.98 C 1168.53 521.38 1170.44 522.93 1172.12 524.73 C 1169.70 525.15 1167.27 525.39 1164.82 525.36 C 1165.37 523.55 1165.93 521.76 1166.53 519.98 Z" />
</g>
<g id="#009f00ff">
<path fill="#009f00" fill-opacity="0" d=" M 1071.76 562.94 C 1073.40 563.19 1076.70 563.70 1078.35 563.95 C 1077.57 565.63 1076.79 567.32 1076.01 569.01 C 1074.63 568.99 1073.26 568.98 1071.90 568.97 C 1071.77 566.96 1071.71 564.95 1071.76 562.94 Z" />
</g>
<g id="#bf9f00ff">
<path fill="#bf9f00" fill-opacity="0" d=" M 650.01 601.01 C 658.85 596.30 668.22 592.01 675.54 585.02 C 681.90 585.76 688.31 585.70 694.70 585.94 C 695.97 598.17 700.38 609.81 706.88 620.20 C 712.40 629.46 705.56 639.38 702.45 648.29 C 705.37 650.44 708.10 653.30 711.82 653.97 C 717.61 655.05 723.71 654.22 729.43 655.73 C 733.62 658.46 737.58 664.67 734.50 669.55 C 731.18 675.05 726.33 680.15 725.58 686.78 C 726.48 692.58 732.98 694.95 738.19 695.01 C 746.20 694.87 753.93 698.94 761.94 697.02 C 768.24 695.46 775.55 694.19 780.02 688.95 C 783.01 685.67 781.30 680.98 781.07 677.04 C 779.58 669.15 785.56 661.89 791.45 657.49 C 797.27 655.23 803.47 658.42 809.42 657.98 C 815.21 656.58 819.82 652.65 825.09 650.10 C 829.00 648.04 833.49 649.60 837.58 650.29 C 835.80 659.20 831.86 667.64 825.44 674.15 C 826.74 679.14 828.04 685.10 824.68 689.62 C 819.53 696.47 812.76 701.87 806.72 707.89 C 808.93 712.26 811.19 716.65 813.49 720.99 C 815.83 725.28 817.48 730.01 817.88 734.90 C 813.47 739.62 807.47 742.57 802.18 746.16 C 798.36 748.43 794.95 751.46 790.81 753.15 C 786.96 753.64 783.03 753.11 779.21 753.32 C 777.80 760.52 776.59 768.16 772.06 774.17 C 769.05 778.80 763.05 779.64 758.37 781.62 C 751.43 784.63 743.66 784.04 736.43 785.61 C 731.91 788.68 729.80 794.73 724.12 796.16 C 718.19 798.87 712.24 801.53 706.14 803.84 C 704.59 802.00 703.17 798.46 700.16 799.53 C 696.20 801.12 692.87 803.92 689.23 806.10 C 688.95 811.97 688.76 817.90 687.54 823.67 C 687.06 826.74 683.60 827.35 681.12 828.06 C 675.59 829.13 670.10 830.29 664.63 831.64 C 658.94 833.21 653.29 830.67 647.96 828.95 C 647.15 829.98 646.35 831.01 645.56 832.06 C 637.56 820.30 626.72 810.32 621.39 796.90 C 617.32 787.48 618.72 776.82 615.90 767.09 C 614.47 762.36 610.21 758.91 605.23 758.45 C 597.54 756.51 590.49 752.41 582.58 751.33 C 578.08 750.19 572.42 750.71 569.02 747.00 C 565.71 743.51 563.36 739.25 560.53 735.39 C 558.47 732.26 555.88 729.10 555.61 725.22 C 556.07 716.38 558.14 707.74 560.10 699.14 C 560.97 693.19 560.68 687.18 560.71 681.20 C 556.47 679.46 551.54 678.21 548.75 674.28 C 546.34 670.81 544.30 667.15 542.23 663.50 C 543.91 660.81 546.08 658.22 546.58 655.01 C 546.22 649.81 544.48 644.84 542.17 640.22 C 553.03 643.23 563.78 637.94 574.08 635.17 C 592.81 628.65 612.70 623.93 628.88 611.89 C 635.02 606.68 643.05 604.82 650.01 601.01 M 608.12 680.27 C 606.61 679.78 605.56 682.26 607.22 682.73 C 608.70 683.25 609.76 680.69 608.12 680.27 Z" />
</g>
<g id="#5fbfbfff">
<path fill="#5fbfbf" fill-opacity="0" d=" M 1001.33 592.68 C 1002.44 589.81 1004.04 587.16 1006.24 584.99 C 1006.36 586.58 1006.61 588.19 1006.54 589.81 C 1005.09 591.21 1003.09 591.81 1001.33 592.68 Z" />
</g>
<g id="#3f9f00ff">
<path fill="#3f9f00" fill-opacity="0" d=" M 1079.30 591.83 C 1080.25 592.87 1081.20 593.93 1082.17 595.00 C 1080.77 595.13 1079.40 595.28 1078.03 595.39 C 1078.44 594.20 1078.86 593.01 1079.30 591.83 Z" />
</g>
<g id="#7f9f7fff">
<path fill="#7f9f7f" fill-opacity="0" d=" M 970.78 604.52 C 979.82 603.30 988.95 602.81 998.07 602.58 C 1000.38 602.61 1003.74 602.90 1004.24 605.73 C 1005.01 610.93 1004.65 616.27 1005.39 621.50 C 1011.30 622.91 1017.51 626.74 1019.37 632.78 C 1018.40 638.20 1013.35 641.98 1011.90 647.23 C 1011.24 652.37 1011.71 657.77 1009.84 662.72 C 1007.96 669.18 1002.20 673.47 999.92 679.76 C 995.97 686.23 994.24 693.65 992.69 701.00 C 989.50 702.07 986.30 703.12 983.11 704.20 C 983.68 716.13 983.54 728.15 981.71 739.97 C 981.35 744.56 978.76 748.34 976.19 751.95 C 973.74 755.22 972.18 759.32 968.88 761.89 C 964.20 764.88 958.31 763.09 953.24 762.71 C 953.48 765.80 953.79 768.95 954.42 772.01 C 950.31 768.99 947.02 765.08 943.57 761.38 C 940.36 757.23 934.09 760.00 930.60 756.40 C 926.02 751.89 921.20 747.63 915.76 744.21 C 909.68 740.14 904.55 734.92 899.31 729.89 C 896.25 731.35 893.04 735.33 889.40 733.35 C 887.13 732.34 884.93 731.20 882.63 730.31 C 880.95 719.72 877.59 709.26 871.46 700.39 C 867.19 694.77 859.95 691.86 856.68 685.46 C 855.25 677.30 857.79 669.16 859.03 661.13 C 859.11 660.73 859.28 659.94 859.36 659.55 C 860.81 652.88 861.87 645.08 868.30 641.27 C 880.26 633.98 893.47 625.29 897.47 610.99 C 902.05 610.84 906.78 610.91 911.10 609.12 C 914.06 607.34 916.96 609.34 919.64 610.59 C 927.22 612.95 935.30 619.38 943.38 614.51 C 948.27 612.74 948.38 606.16 952.64 603.82 C 958.65 603.43 964.71 605.31 970.78 604.52 M 980.11 639.57 C 979.82 641.24 979.25 644.58 978.96 646.25 C 980.71 645.77 982.47 645.28 984.24 644.80 C 982.91 643.01 981.53 641.26 980.11 639.57 Z" />
</g>
<g id="#bf1f00ff">
<path fill="#bf1f00" fill-opacity="0" d=" M 1123.19 619.27 C 1124.95 617.53 1126.87 615.96 1128.90 614.54 C 1129.71 616.55 1130.52 618.57 1131.30 620.61 C 1128.56 620.38 1125.84 619.95 1123.19 619.27 Z" />
</g>
<g id="#009f7fff">
<path fill="#009f7f" fill-opacity="0" d=" M 1150.04 619.00 C 1151.75 618.62 1153.47 618.22 1155.20 617.85 C 1154.81 619.26 1154.44 620.69 1154.09 622.13 C 1153.36 622.06 1151.90 621.94 1151.17 621.87 C 1150.78 620.91 1150.40 619.95 1150.04 619.00 Z" />
</g>
<g id="#7f1f00ff">
<path fill="#7f1f00" fill-opacity="0" d=" M 980.11 639.57 C 981.53 641.26 982.91 643.01 984.24 644.80 C 982.47 645.28 980.71 645.77 978.96 646.25 C 979.25 644.58 979.82 641.24 980.11 639.57 Z" />
</g>
<g id="#3f9f80ff">
<path fill="#3f9f80" fill-opacity="0" d=" M 859.03 661.13 C 856.54 661.88 857.32 658.06 859.36 659.55 C 859.28 659.94 859.11 660.73 859.03 661.13 Z" />
</g>
<g id="#5f3fbfff">
<path fill="#5f3fbf" fill-opacity="0" d=" M 608.12 680.27 C 609.76 680.69 608.70 683.25 607.22 682.73 C 605.56 682.26 606.61 679.78 608.12 680.27 Z" />
</g>
</svg>
