<?xml version="1.0" encoding="UTF-8" ?>
<!DOCTYPE svg PUBLIC "-//W3C//DTD SVG 1.1//EN" "http://www.w3.org/Graphics/SVG/1.1/DTD/svg11.dtd">
<svg width="1920pt" height="1080pt" viewBox="0 0 1920 1080" version="1.1" xmlns="http://www.w3.org/2000/svg">
<g id="#8f8f5fff">
<path fill="#8f8f5f" fill-opacity="0" d=" M 1114.63 182.74 C 1129.16 181.18 1144.73 185.30 1155.37 195.64 C 1158.42 198.68 1162.41 200.38 1166.29 202.11 C 1164.29 227.69 1157.86 252.68 1153.71 277.96 C 1151.01 288.43 1139.47 290.98 1130.40 293.38 C 1122.27 295.09 1115.18 299.87 1106.97 301.34 C 1104.88 296.70 1099.79 295.42 1095.07 295.21 C 1089.66 297.19 1085.61 302.50 1079.42 302.23 C 1074.24 302.52 1069.86 305.44 1065.50 307.94 C 1062.79 300.60 1058.26 293.15 1059.85 284.98 C 1061.70 265.16 1063.70 245.34 1065.34 225.50 C 1065.17 216.53 1071.93 209.60 1078.30 204.24 C 1083.47 199.14 1088.58 193.85 1094.65 189.79 C 1099.74 187.07 1105.39 185.62 1111.08 184.83 C 1112.21 184.08 1113.35 183.30 1114.63 182.74 Z" />
<path fill="#8f8f5f" fill-opacity="0" d=" M 960.97 298.13 C 975.58 300.28 990.01 295.64 1004.64 296.27 C 1009.78 301.82 1015.45 307.08 1022.92 309.23 C 1031.62 313.76 1042.06 312.52 1050.62 317.42 C 1055.69 320.23 1060.99 322.84 1066.88 323.38 C 1071.58 324.43 1076.57 322.90 1081.12 324.82 C 1087.57 327.44 1093.75 330.71 1099.79 334.19 C 1111.15 340.89 1119.86 351.68 1132.09 356.96 C 1134.74 358.43 1137.60 357.42 1139.95 355.88 C 1145.26 359.19 1150.95 361.83 1156.73 364.24 C 1164.83 367.59 1170.31 375.02 1178.07 378.97 C 1193.22 386.71 1207.29 396.46 1222.99 403.16 C 1222.01 403.86 1221.05 404.56 1220.10 405.27 C 1226.12 411.65 1230.17 419.59 1233.03 427.83 C 1233.31 429.24 1234.15 431.26 1232.71 432.29 C 1229.97 434.48 1226.82 436.09 1223.92 438.05 C 1218.93 435.93 1213.19 434.80 1209.34 430.69 C 1206.37 427.71 1203.09 425.06 1199.73 422.54 C 1201.23 416.19 1199.69 408.83 1193.69 405.28 C 1188.93 404.48 1184.10 402.93 1179.25 403.34 C 1174.37 405.30 1169.50 407.98 1165.97 411.96 C 1163.73 414.38 1163.94 417.83 1164.33 420.85 C 1164.73 424.05 1164.26 427.47 1165.60 430.48 C 1168.99 433.89 1174.04 434.75 1178.13 437.08 C 1181.04 438.41 1180.97 442.25 1182.31 444.88 C 1172.40 451.22 1161.16 454.89 1149.84 457.73 C 1144.39 459.00 1138.17 457.66 1133.46 461.33 C 1123.65 468.96 1110.82 471.25 1098.66 471.09 C 1088.28 471.51 1078.44 466.26 1068.00 467.66 C 1060.55 468.57 1054.86 474.97 1047.07 474.40 C 1042.37 474.26 1038.35 471.31 1033.76 470.70 C 1029.72 470.53 1025.85 472.05 1021.87 472.46 C 1017.71 471.91 1013.76 470.46 1009.68 469.63 C 1004.82 468.66 999.75 469.90 994.95 468.60 C 989.01 466.41 984.04 462.17 977.98 460.26 C 972.23 458.54 966.35 456.79 961.62 452.95 C 966.87 448.82 973.53 447.56 979.55 444.95 C 976.72 439.59 970.28 440.34 965.12 439.93 C 963.28 439.89 961.25 439.45 960.24 437.74 C 960.50 431.46 965.73 425.90 963.67 419.47 C 960.42 411.60 949.44 414.39 944.39 408.07 C 944.46 405.91 944.53 403.77 944.62 401.63 C 950.03 396.29 955.75 390.16 956.57 382.26 C 956.62 374.62 950.25 369.24 947.15 362.75 C 952.23 358.68 958.96 356.22 962.91 350.86 C 965.41 347.73 961.37 344.70 958.94 343.17 C 951.55 339.07 946.30 332.32 941.33 325.69 C 937.51 319.97 936.50 313.08 934.80 306.55 C 936.09 306.40 937.38 306.24 938.69 306.08 C 936.69 303.21 934.25 300.68 932.01 298.01 C 933.11 297.55 934.23 297.10 935.36 296.66 C 935.91 298.10 936.52 299.55 937.11 300.99 C 944.31 296.81 952.97 296.69 960.97 298.13 Z" />
</g>
<g id="#8f8f5ffe">
<path fill="#8f8f5f" fill-opacity="0" d=" M 1205.26 187.98 C 1207.49 188.39 1209.72 188.80 1211.97 189.19 C 1206.60 214.51 1200.92 239.76 1195.68 265.11 C 1193.70 264.39 1191.73 263.68 1189.77 262.97 C 1194.82 237.95 1200.52 213.06 1205.26 187.98 Z" />
</g>
<g id="#8f8fdfff">
<path fill="#8f8fdf" fill-opacity="0" d=" M 846.02 277.80 C 850.31 279.06 854.59 280.33 859.06 280.89 C 872.67 283.07 885.48 288.61 899.13 290.68 C 902.29 291.66 905.60 291.25 908.80 290.77 C 911.91 294.28 915.85 296.83 920.00 298.98 C 921.85 296.53 923.61 293.28 926.98 292.82 C 930.43 292.10 933.13 295.04 936.03 296.39 L 935.36 296.66 C 934.23 297.10 933.11 297.55 932.01 298.01 C 934.25 300.68 936.69 303.21 938.69 306.08 C 937.38 306.24 936.09 306.40 934.80 306.55 C 936.50 313.08 937.51 319.97 941.33 325.69 C 946.30 332.32 951.55 339.07 958.94 343.17 C 961.37 344.70 965.41 347.73 962.91 350.86 C 958.96 356.22 952.23 358.68 947.15 362.75 C 950.25 369.24 956.62 374.62 956.57 382.26 C 955.75 390.16 950.03 396.29 944.62 401.63 C 944.53 403.77 944.46 405.91 944.39 408.07 C 942.66 411.50 941.85 415.45 939.52 418.55 C 936.17 420.47 931.92 419.52 928.28 420.05 C 927.57 423.66 926.62 427.21 925.63 430.75 C 924.19 435.36 926.01 440.12 926.43 444.76 C 914.33 445.88 902.13 447.43 890.01 445.98 C 887.25 445.54 885.47 448.08 884.13 450.07 C 881.13 454.90 879.61 460.51 876.39 465.23 C 873.78 468.87 872.14 474.49 866.94 475.14 C 862.19 476.59 855.65 475.55 852.28 480.05 C 851.12 482.78 851.50 485.88 851.21 488.81 C 847.09 489.88 843.00 491.01 838.85 491.91 C 832.38 487.17 825.12 483.33 819.58 477.41 C 814.75 472.31 813.60 464.39 807.20 460.70 C 803.26 457.81 798.29 461.57 794.07 459.75 C 788.20 456.83 783.31 452.29 777.72 448.97 C 773.18 449.28 768.81 450.70 764.41 451.78 C 758.06 444.37 750.36 438.32 743.88 431.03 C 739.99 426.50 733.66 424.22 731.28 418.44 C 730.06 415.68 728.82 412.32 730.42 409.46 C 732.73 405.97 736.87 404.49 739.94 401.82 C 742.50 399.77 743.92 396.73 745.48 393.92 C 740.23 392.94 733.82 393.32 730.12 388.85 C 726.86 385.40 730.22 380.79 731.73 377.26 C 734.27 371.27 740.92 368.82 744.33 363.55 C 745.19 353.88 739.42 345.19 732.28 339.18 C 736.21 335.14 740.05 330.92 744.72 327.70 C 747.48 325.27 751.52 323.73 753.00 320.09 C 751.46 316.74 748.65 314.26 746.14 311.66 C 752.62 307.04 759.32 302.68 765.42 297.54 C 768.66 293.73 770.75 288.63 775.41 286.26 C 779.29 284.38 783.57 280.95 788.13 282.73 C 794.29 284.81 799.30 289.27 805.52 291.27 C 805.81 290.26 806.39 288.24 806.68 287.23 C 811.54 290.06 814.89 295.26 815.09 300.96 C 818.26 323.07 821.05 345.23 824.23 367.34 C 828.76 366.22 837.13 366.24 837.78 360.04 C 835.98 340.64 832.72 321.38 830.90 301.97 C 833.52 301.64 836.05 301.27 838.73 300.94 C 838.90 302.31 839.07 303.69 839.25 305.07 C 841.86 304.33 844.48 303.68 847.14 303.03 C 846.78 294.62 846.39 286.21 846.02 277.80 Z" />
</g>
<g id="#4f0f5fff">
<path fill="#4f0f5f" fill-opacity="0" d=" M 654.75 293.69 C 657.85 292.58 660.78 291.01 663.79 289.66 C 666.15 294.47 668.42 299.91 673.41 302.58 C 682.59 305.97 692.58 303.85 702.03 305.91 C 709.43 306.18 715.22 311.76 722.62 312.06 C 727.43 312.47 732.15 313.55 736.91 314.34 C 740.26 315.07 743.24 313.01 746.14 311.66 C 748.65 314.26 751.46 316.74 753.00 320.09 C 751.52 323.73 747.48 325.27 744.72 327.70 C 740.05 330.92 736.21 335.14 732.28 339.18 C 739.42 345.19 745.19 353.88 744.33 363.55 C 740.92 368.82 734.27 371.27 731.73 377.26 C 730.22 380.79 726.86 385.40 730.12 388.85 C 733.82 393.32 740.23 392.94 745.48 393.92 C 743.92 396.73 742.50 399.77 739.94 401.82 C 736.87 404.49 732.73 405.97 730.42 409.46 C 728.82 412.32 730.06 415.68 731.28 418.44 C 733.66 424.22 739.99 426.50 743.88 431.03 C 750.36 438.32 758.06 444.37 764.41 451.78 C 768.81 450.70 773.18 449.28 777.72 448.97 C 783.31 452.29 788.20 456.83 794.07 459.75 C 798.29 461.57 803.26 457.81 807.20 460.70 C 813.60 464.39 814.75 472.31 819.58 477.41 C 825.12 483.33 832.38 487.17 838.85 491.91 C 831.57 493.42 824.54 495.83 818.00 499.38 C 820.81 503.46 824.77 506.47 828.66 509.45 C 818.14 514.03 806.54 512.22 795.53 510.78 C 789.03 509.73 783.38 514.23 776.95 514.11 C 772.05 514.63 765.73 513.88 762.79 518.83 C 760.44 522.37 765.62 523.91 767.72 525.83 C 766.80 526.07 765.89 526.33 764.99 526.59 C 763.84 531.40 763.49 537.83 758.46 540.43 C 750.90 543.10 742.66 540.32 735.00 542.14 C 730.81 544.69 731.21 550.49 730.00 554.79 C 726.51 555.32 722.96 556.74 719.38 556.04 C 714.07 554.75 709.39 551.61 704.04 550.54 C 698.02 550.00 693.16 555.15 687.27 555.32 C 681.19 553.07 676.39 546.47 669.32 547.49 C 663.58 549.18 663.19 556.41 659.01 559.99 C 653.32 565.08 652.18 572.74 649.48 579.48 C 648.30 583.12 646.95 587.25 643.22 589.03 C 637.41 591.82 631.56 594.59 626.11 598.08 C 626.47 598.99 626.83 599.90 627.19 600.82 C 629.34 601.37 631.48 601.89 633.63 602.47 C 631.42 607.31 629.28 612.52 624.85 615.79 C 618.96 620.47 614.39 626.64 611.92 633.76 C 615.16 634.05 618.38 634.49 621.56 635.23 C 618.84 639.37 616.28 643.63 613.54 647.76 C 611.03 651.47 606.82 653.60 604.35 657.34 C 604.21 661.20 606.02 664.84 607.26 668.44 C 604.57 669.27 601.68 669.75 599.30 671.30 C 597.61 673.69 598.84 676.97 598.65 679.81 C 597.40 680.17 596.16 680.53 594.93 680.91 C 589.29 672.77 583.90 663.92 574.89 659.07 C 571.03 657.17 567.17 660.74 563.19 659.83 C 559.08 658.89 555.55 656.42 552.04 654.21 C 547.69 659.21 541.98 663.25 535.09 663.23 C 535.39 666.10 535.62 668.89 535.94 671.80 C 530.95 671.40 525.80 671.60 520.98 670.15 C 517.70 667.82 515.98 663.77 512.46 661.70 C 507.33 659.10 501.12 658.33 496.98 654.02 C 493.17 650.12 489.70 645.83 486.87 641.17 C 484.20 636.33 482.66 630.93 479.71 626.23 C 474.65 621.94 467.91 621.86 461.88 620.08 C 457.95 619.05 455.85 615.25 453.88 612.07 C 449.57 604.89 444.52 597.99 442.06 589.91 C 440.62 586.13 439.61 581.43 435.62 579.52 C 430.67 577.00 425.39 574.59 421.61 570.41 C 417.66 564.94 413.70 559.43 410.59 553.44 C 408.85 547.66 412.35 542.50 414.48 537.44 C 416.90 531.82 420.92 527.05 425.95 523.59 C 422.14 517.86 418.01 512.33 414.56 506.37 C 412.96 503.57 412.08 499.39 414.86 497.02 C 421.76 491.21 428.22 484.90 434.29 478.23 C 435.87 476.19 438.64 476.18 440.90 475.46 C 439.70 468.90 440.91 461.36 435.76 456.21 C 431.87 451.21 428.75 445.69 425.96 440.03 C 423.51 436.80 425.45 432.74 426.32 429.31 C 428.05 424.74 426.97 419.59 429.16 415.15 C 430.92 411.39 433.35 407.99 435.43 404.41 C 440.54 404.40 445.82 405.15 450.83 403.76 C 449.82 401.36 447.64 398.78 448.94 396.06 C 450.48 393.33 453.42 391.81 455.34 389.37 C 458.45 386.12 460.76 381.36 465.50 380.21 C 470.75 378.15 476.24 383.22 481.36 380.42 C 485.41 378.59 489.53 376.94 493.66 375.30 C 494.20 376.33 494.77 377.37 495.33 378.41 C 497.94 378.61 500.54 378.89 503.12 379.39 C 506.33 377.28 509.66 374.57 513.74 374.81 C 520.72 375.38 527.22 378.37 534.11 379.43 C 542.54 379.97 548.81 372.43 557.04 372.39 C 566.92 375.01 575.23 381.57 584.83 385.01 C 588.84 378.23 591.11 370.34 596.56 364.50 C 599.37 361.63 597.00 357.26 598.94 354.06 C 600.59 352.25 603.10 351.58 605.21 350.46 C 603.65 344.67 599.45 338.50 602.31 332.49 C 603.50 328.91 607.14 327.14 610.38 325.81 C 608.18 318.12 605.39 309.99 606.87 301.91 C 609.08 298.02 612.56 294.94 614.85 291.06 C 621.50 292.25 628.31 294.10 635.05 292.17 C 641.79 289.62 647.98 295.11 654.75 293.69 Z" />
</g>
<g id="#8f0fdfff">
<path fill="#8f0fdf" fill-opacity="0" d=" M 1179.25 403.34 C 1184.10 402.93 1188.93 404.48 1193.69 405.28 C 1199.69 408.83 1201.23 416.19 1199.73 422.54 C 1203.09 425.06 1206.37 427.71 1209.34 430.69 C 1213.19 434.80 1218.93 435.93 1223.92 438.05 C 1226.82 436.09 1229.97 434.48 1232.71 432.29 C 1234.15 431.26 1233.31 429.24 1233.03 427.83 C 1230.17 419.59 1226.12 411.65 1220.10 405.27 C 1221.05 404.56 1222.01 403.86 1222.99 403.16 C 1237.85 409.26 1251.22 418.62 1266.85 422.88 C 1274.19 426.83 1281.12 431.63 1289.07 434.40 C 1290.83 444.57 1301.94 447.49 1309.71 452.16 C 1310.62 449.77 1311.52 447.37 1312.42 444.98 C 1313.28 445.31 1314.16 445.66 1315.05 446.02 C 1313.74 450.00 1310.72 454.54 1313.42 458.60 C 1317.04 464.30 1318.07 471.12 1321.31 477.02 C 1318.42 483.61 1322.89 489.71 1325.30 495.59 C 1319.30 497.76 1313.40 496.01 1307.64 494.26 C 1307.89 500.49 1308.51 506.85 1306.89 512.97 C 1305.92 516.32 1305.99 519.84 1306.45 523.28 C 1307.58 530.22 1304.35 536.85 1303.17 543.55 C 1301.42 549.03 1293.59 546.24 1291.62 542.34 C 1289.53 536.91 1286.79 531.77 1283.48 526.98 C 1280.62 529.22 1277.60 531.33 1275.37 534.24 C 1273.63 536.19 1272.07 538.88 1269.24 539.29 C 1264.55 540.01 1259.81 539.27 1255.14 538.85 C 1257.87 541.13 1261.09 542.88 1263.43 545.61 C 1265.89 549.46 1265.89 554.25 1266.72 558.64 C 1271.74 559.46 1277.11 560.38 1280.96 564.03 C 1287.15 569.99 1290.16 578.41 1291.57 586.73 C 1292.79 593.24 1293.28 600.24 1290.58 606.48 C 1283.86 622.60 1275.97 638.20 1269.26 654.33 C 1262.84 652.78 1256.70 649.85 1250.10 649.25 C 1243.04 650.11 1242.71 660.28 1235.99 661.98 C 1221.45 664.75 1206.46 665.96 1191.67 665.09 C 1193.86 657.74 1196.66 650.58 1198.34 643.09 C 1196.33 643.32 1194.34 643.59 1192.35 643.84 C 1189.81 639.69 1186.63 635.95 1183.24 632.50 C 1176.44 651.03 1172.52 670.58 1164.74 688.73 C 1159.40 696.32 1151.24 701.31 1144.96 708.04 C 1149.26 692.05 1154.37 676.27 1158.01 660.10 C 1151.02 658.70 1143.90 661.30 1137.01 660.08 C 1134.30 656.98 1133.12 652.88 1131.23 649.28 C 1127.06 658.08 1115.66 657.53 1107.84 654.29 C 1102.89 652.15 1095.67 652.97 1092.81 647.65 C 1093.34 642.68 1094.93 637.62 1092.94 632.71 C 1098.09 628.85 1103.68 625.61 1108.88 621.81 C 1113.48 618.72 1113.77 612.51 1116.84 608.30 C 1120.53 605.36 1125.49 604.11 1128.51 600.29 C 1131.59 596.21 1133.75 591.33 1134.24 586.22 C 1134.30 584.95 1134.39 583.46 1133.44 582.48 C 1129.27 578.08 1123.73 574.24 1121.93 568.13 C 1120.41 562.83 1120.86 557.23 1120.11 551.81 C 1119.60 548.61 1120.30 545.42 1121.15 542.35 C 1114.00 541.54 1107.05 544.09 1099.98 544.69 C 1101.81 541.29 1105.21 538.32 1105.37 534.27 C 1105.16 527.45 1096.46 525.75 1096.43 518.78 C 1093.59 519.66 1090.62 520.43 1088.19 522.20 C 1086.59 524.13 1086.57 526.84 1085.92 529.16 C 1083.78 527.17 1081.67 525.14 1079.62 523.07 C 1077.17 524.04 1074.73 525.02 1072.29 525.98 C 1070.05 523.86 1068.04 521.42 1065.34 519.88 C 1058.87 516.84 1051.10 517.42 1044.82 514.10 C 1040.77 509.66 1046.73 505.05 1048.84 501.15 C 1044.77 500.79 1039.03 502.95 1036.63 498.39 C 1033.15 492.26 1033.81 484.93 1032.50 478.21 C 1027.89 479.25 1023.03 479.66 1018.55 477.84 C 1019.64 476.04 1020.76 474.26 1021.87 472.46 C 1025.85 472.05 1029.72 470.53 1033.76 470.70 C 1038.35 471.31 1042.37 474.26 1047.07 474.40 C 1054.86 474.97 1060.55 468.57 1068.00 467.66 C 1078.44 466.26 1088.28 471.51 1098.66 471.09 C 1110.82 471.25 1123.65 468.96 1133.46 461.33 C 1138.17 457.66 1144.39 459.00 1149.84 457.73 C 1161.16 454.89 1172.40 451.22 1182.31 444.88 C 1180.97 442.25 1181.04 438.41 1178.13 437.08 C 1174.04 434.75 1168.99 433.89 1165.60 430.48 C 1164.26 427.47 1164.73 424.05 1164.33 420.85 C 1163.94 417.83 1163.73 414.38 1165.97 411.96 C 1169.50 407.98 1174.37 405.30 1179.25 403.34 Z" />
</g>
<g id="#4f8f5fff">
<path fill="#4f8f5f" fill-opacity="0" d=" M 944.39 408.07 C 949.44 414.39 960.42 411.60 963.67 419.47 C 965.73 425.90 960.50 431.46 960.24 437.74 C 961.25 439.45 963.28 439.89 965.12 439.93 C 970.28 440.34 976.72 439.59 979.55 444.95 C 973.53 447.56 966.87 448.82 961.62 452.95 C 966.35 456.79 972.23 458.54 977.98 460.26 C 984.04 462.17 989.01 466.41 994.95 468.60 C 999.75 469.90 1004.82 468.66 1009.68 469.63 C 1013.76 470.46 1017.71 471.91 1021.87 472.46 C 1020.76 474.26 1019.64 476.04 1018.55 477.84 C 1023.03 479.66 1027.89 479.25 1032.50 478.21 C 1033.81 484.93 1033.15 492.26 1036.63 498.39 C 1039.03 502.95 1044.77 500.79 1048.84 501.15 C 1046.73 505.05 1040.77 509.66 1044.82 514.10 C 1051.10 517.42 1058.87 516.84 1065.34 519.88 C 1068.04 521.42 1070.05 523.86 1072.29 525.98 C 1074.73 525.02 1077.17 524.04 1079.62 523.07 C 1081.67 525.14 1083.78 527.17 1085.92 529.16 C 1086.57 526.84 1086.59 524.13 1088.19 522.20 C 1090.62 520.43 1093.59 519.66 1096.43 518.78 C 1096.46 525.75 1105.16 527.45 1105.37 534.27 C 1105.21 538.32 1101.81 541.29 1099.98 544.69 C 1107.05 544.09 1114.00 541.54 1121.15 542.35 C 1120.30 545.42 1119.60 548.61 1120.11 551.81 C 1120.86 557.23 1120.41 562.83 1121.93 568.13 C 1123.73 574.24 1129.27 578.08 1133.44 582.48 C 1134.39 583.46 1134.30 584.95 1134.24 586.22 C 1133.75 591.33 1131.59 596.21 1128.51 600.29 C 1125.49 604.11 1120.53 605.36 1116.84 608.30 C 1113.77 612.51 1113.48 618.72 1108.88 621.81 C 1103.68 625.61 1098.09 628.85 1092.94 632.71 C 1094.93 637.62 1093.34 642.68 1092.81 647.65 C 1095.67 652.97 1102.89 652.15 1107.84 654.29 C 1115.66 657.53 1127.06 658.08 1131.23 649.28 C 1133.12 652.88 1134.30 656.98 1137.01 660.08 C 1143.90 661.30 1151.02 658.70 1158.01 660.10 C 1154.37 676.27 1149.26 692.05 1144.96 708.04 C 1143.19 712.15 1141.31 716.71 1137.62 719.47 C 1131.21 722.17 1124.16 723.97 1118.99 728.92 C 1114.23 720.86 1110.61 712.19 1105.64 704.26 C 1102.70 710.91 1101.56 718.15 1100.30 725.26 C 1093.12 722.77 1086.81 718.44 1081.86 712.70 C 1085.24 718.65 1089.07 724.49 1090.26 731.37 C 1087.29 732.96 1083.95 734.16 1081.66 736.71 C 1079.49 740.59 1084.93 747.26 1079.42 749.28 C 1071.75 751.00 1063.35 751.08 1056.58 755.62 C 1052.26 759.74 1053.26 766.37 1052.60 771.80 C 1059.95 770.29 1066.95 767.49 1074.20 765.60 C 1076.50 765.28 1079.89 764.26 1081.02 767.07 C 1083.41 772.27 1081.06 778.18 1081.51 783.68 C 1081.81 789.86 1089.23 793.17 1089.22 799.40 C 1088.11 808.52 1090.38 820.57 1082.05 826.79 C 1076.88 828.05 1071.49 824.78 1066.30 826.35 C 1062.20 828.45 1062.97 834.36 1059.15 836.81 C 1055.00 839.71 1050.34 841.79 1045.94 844.25 C 1044.87 840.77 1045.24 836.23 1042.47 833.65 C 1034.43 831.27 1025.86 831.97 1017.58 831.27 C 1018.77 824.17 1024.33 819.38 1030.53 816.57 C 1030.61 815.52 1030.68 814.48 1030.77 813.46 C 1023.02 811.77 1014.94 807.68 1007.18 811.50 C 1007.05 817.07 1004.32 822.02 1002.90 827.30 C 997.72 827.36 992.69 826.09 987.56 825.85 C 982.92 825.66 979.78 829.47 976.77 832.40 C 972.92 831.98 969.05 832.18 965.25 832.92 C 959.56 834.14 954.47 829.96 948.79 830.43 C 942.67 830.99 936.11 832.23 931.33 836.41 C 928.26 839.49 926.66 843.70 923.57 846.78 C 922.34 843.53 921.37 839.99 918.98 837.37 C 916.80 837.02 914.29 837.64 912.23 837.79 C 911.60 836.85 910.97 835.91 910.37 835.00 C 909.14 838.21 907.98 841.46 906.73 844.66 C 904.46 842.99 902.30 841.16 900.23 839.27 C 895.16 843.21 889.95 847.58 883.27 848.04 C 882.60 850.76 882.86 853.94 881.39 856.47 C 879.60 858.92 876.79 860.30 874.35 861.99 C 873.83 864.63 874.18 867.88 871.89 869.80 C 869.33 871.93 866.41 873.71 863.36 875.02 C 858.86 875.77 854.13 872.25 849.89 874.98 C 844.24 878.14 838.02 880.04 831.82 881.77 C 826.13 883.37 822.51 888.51 817.19 890.81 C 814.87 891.99 812.24 892.67 810.22 894.37 C 808.63 896.36 808.83 899.12 808.44 901.52 C 807.54 905.89 802.74 907.86 799.35 910.19 C 796.21 910.83 792.67 914.95 789.25 912.74 C 784.03 909.60 778.31 907.58 772.69 905.33 C 771.16 907.20 769.55 909.02 767.90 910.81 C 758.46 900.23 759.19 884.77 753.58 872.37 C 752.27 870.55 749.08 870.01 747.59 868.95 C 745.98 865.25 744.13 861.63 740.89 859.13 C 736.59 855.76 733.43 851.16 728.98 847.99 C 725.66 845.71 721.39 847.22 717.81 845.92 C 708.29 839.08 697.64 831.77 695.41 819.36 C 699.98 816.90 704.75 814.80 709.19 812.11 C 714.09 809.01 714.72 802.63 718.63 798.67 C 721.20 795.45 725.30 794.12 728.15 791.21 C 730.70 788.72 733.24 785.85 736.92 785.14 C 741.09 784.14 746.33 783.05 747.82 778.38 C 751.48 771.99 747.22 764.82 743.72 759.42 C 740.97 757.68 737.08 758.46 734.42 756.55 C 729.09 750.86 727.77 742.90 724.72 736.01 C 721.69 732.08 719.51 727.55 716.43 723.70 C 710.10 721.79 703.95 725.83 697.68 726.15 C 695.65 722.59 692.10 720.84 688.14 720.42 C 683.86 711.80 679.93 703.00 675.64 694.39 C 671.63 696.94 668.06 701.17 662.94 701.18 C 659.12 701.00 655.29 700.72 651.49 701.36 C 647.82 695.81 642.09 692.62 635.90 690.73 C 633.46 694.12 629.53 697.62 625.24 694.81 C 620.98 690.69 620.96 683.50 617.08 679.06 C 612.53 676.88 608.85 673.32 607.26 668.44 C 606.02 664.84 604.21 661.20 604.35 657.34 C 606.82 653.60 611.03 651.47 613.54 647.76 C 616.28 643.63 618.84 639.37 621.56 635.23 C 618.38 634.49 615.16 634.05 611.92 633.76 C 614.39 626.64 618.96 620.47 624.85 615.79 C 629.28 612.52 631.42 607.31 633.63 602.47 C 631.48 601.89 629.34 601.37 627.19 600.82 C 626.83 599.90 626.47 598.99 626.11 598.08 C 631.56 594.59 637.41 591.82 643.22 589.03 C 646.95 587.25 648.30 583.12 649.48 579.48 C 652.18 572.74 653.32 565.08 659.01 559.99 C 663.19 556.41 663.58 549.18 669.32 547.49 C 676.39 546.47 681.19 553.07 687.27 555.32 C 693.16 555.15 698.02 550.00 704.04 550.54 C 709.39 551.61 714.07 554.75 719.38 556.04 C 722.96 556.74 726.51 555.32 730.00 554.79 C 731.21 550.49 730.81 544.69 735.00 542.14 C 742.66 540.32 750.90 543.10 758.46 540.43 C 763.49 537.83 763.84 531.40 764.99 526.59 C 765.89 526.33 766.80 526.07 767.72 525.83 C 765.62 523.91 760.44 522.37 762.79 518.83 C 765.73 513.88 772.05 514.63 776.95 514.11 C 783.38 514.23 789.03 509.73 795.53 510.78 C 806.54 512.22 818.14 514.03 828.66 509.45 C 824.77 506.47 820.81 503.46 818.00 499.38 C 824.54 495.83 831.57 493.42 838.85 491.91 C 843.00 491.01 847.09 489.88 851.21 488.81 C 851.50 485.88 851.12 482.78 852.28 480.05 C 855.65 475.55 862.19 476.59 866.94 475.14 C 872.14 474.49 873.78 468.87 876.39 465.23 C 879.61 460.51 881.13 454.90 884.13 450.07 C 885.47 448.08 887.25 445.54 890.01 445.98 C 902.13 447.43 914.33 445.88 926.43 444.76 C 926.01 440.12 924.19 435.36 925.63 430.75 C 926.62 427.21 927.57 423.66 928.28 420.05 C 931.92 419.52 936.17 420.47 939.52 418.55 C 941.85 415.45 942.66 411.50 944.39 408.07 M 1068.42 682.37 C 1069.91 683.39 1071.45 684.34 1073.00 685.30 C 1073.00 684.45 1073.01 682.75 1073.01 681.90 C 1071.47 682.02 1069.94 682.18 1068.42 682.37 Z" />
</g>
<g id="#0f8fdfff">
<path fill="#0f8fdf" fill-opacity="0" d=" M 1352.83 467.83 C 1361.61 468.72 1370.47 469.98 1379.33 469.27 C 1386.11 468.69 1392.65 471.63 1399.44 471.33 C 1406.53 471.01 1413.85 469.74 1420.83 471.81 C 1420.58 473.48 1420.33 475.16 1420.11 476.84 C 1424.37 478.97 1428.91 480.65 1433.02 483.12 C 1434.90 484.95 1435.44 487.78 1437.34 489.64 C 1443.78 494.81 1451.88 496.98 1458.96 501.08 C 1465.16 504.15 1470.17 509.76 1477.44 510.46 C 1482.45 510.79 1486.03 514.33 1490.20 516.61 C 1494.50 518.25 1499.57 517.25 1503.86 519.16 C 1507.18 520.93 1508.19 525.22 1507.79 528.70 C 1503.05 537.40 1496.61 545.05 1491.87 553.75 C 1490.50 558.41 1493.35 563.82 1489.86 567.93 C 1478.41 585.59 1466.62 603.08 1454.33 620.16 C 1456.60 613.10 1449.04 608.60 1447.09 602.49 C 1443.81 596.51 1444.28 589.63 1444.88 583.09 C 1442.96 585.73 1440.98 588.32 1438.73 590.69 C 1438.74 588.64 1438.77 586.59 1438.84 584.55 C 1436.48 583.50 1434.34 582.02 1431.89 581.31 C 1427.88 582.09 1424.95 585.44 1421.91 587.89 C 1417.90 591.24 1418.72 597.11 1416.44 601.46 C 1414.27 604.83 1411.15 607.40 1408.72 610.56 C 1406.91 613.25 1406.29 616.52 1405.19 619.53 C 1397.79 611.61 1399.69 600.28 1397.27 590.57 L 1395.70 596.06 C 1395.18 595.89 1394.14 595.55 1393.61 595.38 C 1393.06 588.93 1393.01 582.32 1390.71 576.18 C 1389.43 572.21 1384.54 575.83 1381.79 574.79 C 1379.78 572.58 1379.38 569.24 1376.96 567.33 C 1374.71 565.14 1371.24 563.68 1370.57 560.31 C 1369.48 555.55 1368.85 550.66 1367.01 546.09 C 1364.60 548.60 1361.84 550.95 1360.32 554.14 C 1359.59 557.12 1360.84 560.15 1361.09 563.14 C 1361.78 567.86 1359.94 572.39 1359.26 577.00 C 1361.71 577.19 1364.17 577.36 1366.65 577.54 C 1364.33 580.31 1361.66 582.74 1359.09 585.27 C 1356.02 588.23 1355.34 592.64 1353.82 596.45 C 1348.17 593.56 1343.11 589.28 1340.87 583.19 C 1335.86 582.07 1327.76 580.04 1328.82 573.54 C 1328.89 570.79 1328.74 567.98 1328.55 565.27 C 1325.51 562.63 1322.27 560.30 1318.57 558.75 C 1319.44 555.13 1319.14 550.85 1322.06 548.15 C 1323.72 546.00 1326.33 544.37 1327.24 541.74 C 1326.66 535.31 1322.73 529.58 1322.78 522.98 C 1322.39 516.94 1321.36 510.98 1319.73 505.16 C 1321.10 506.53 1322.49 507.90 1323.90 509.26 C 1325.17 504.86 1327.04 500.13 1325.30 495.59 C 1322.89 489.71 1318.42 483.61 1321.31 477.02 C 1321.86 475.44 1323.21 474.21 1324.86 473.84 C 1332.41 471.99 1340.23 471.74 1347.92 470.65 C 1349.84 470.37 1351.27 468.88 1352.83 467.83 Z" />
</g>
<g id="#0f0fdfff">
<path fill="#0f0fdf" fill-opacity="0" d=" M 1307.64 494.26 C 1313.40 496.01 1319.30 497.76 1325.30 495.59 C 1327.04 500.13 1325.17 504.86 1323.90 509.26 C 1322.49 507.90 1321.10 506.53 1319.73 505.16 C 1321.36 510.98 1322.39 516.94 1322.78 522.98 C 1322.73 529.58 1326.66 535.31 1327.24 541.74 C 1326.33 544.37 1323.72 546.00 1322.06 548.15 C 1319.14 550.85 1319.44 555.13 1318.57 558.75 C 1322.27 560.30 1325.51 562.63 1328.55 565.27 C 1328.74 567.98 1328.89 570.79 1328.82 573.54 C 1327.76 580.04 1335.86 582.07 1340.87 583.19 C 1343.11 589.28 1348.17 593.56 1353.82 596.45 C 1355.34 592.64 1356.02 588.23 1359.09 585.27 C 1361.66 582.74 1364.33 580.31 1366.65 577.54 C 1364.17 577.36 1361.71 577.19 1359.26 577.00 C 1359.94 572.39 1361.78 567.86 1361.09 563.14 C 1360.84 560.15 1359.59 557.12 1360.32 554.14 C 1361.84 550.95 1364.60 548.60 1367.01 546.09 C 1368.85 550.66 1369.48 555.55 1370.57 560.31 C 1371.24 563.68 1374.71 565.14 1376.96 567.33 C 1379.38 569.24 1379.78 572.58 1381.79 574.79 C 1384.54 575.83 1389.43 572.21 1390.71 576.18 C 1393.01 582.32 1393.06 588.93 1393.61 595.38 C 1394.14 595.55 1395.18 595.89 1395.70 596.06 L 1397.27 590.57 C 1399.69 600.28 1397.79 611.61 1405.19 619.53 C 1406.29 616.52 1406.91 613.25 1408.72 610.56 C 1411.15 607.40 1414.27 604.83 1416.44 601.46 C 1418.72 597.11 1417.90 591.24 1421.91 587.89 C 1424.95 585.44 1427.88 582.09 1431.89 581.31 C 1434.34 582.02 1436.48 583.50 1438.84 584.55 C 1438.77 586.59 1438.74 588.64 1438.73 590.69 C 1440.98 588.32 1442.96 585.73 1444.88 583.09 C 1444.28 589.63 1443.81 596.51 1447.09 602.49 C 1449.04 608.60 1456.60 613.10 1454.33 620.16 C 1449.30 631.33 1439.77 640.17 1437.34 652.53 C 1441.64 647.11 1445.29 641.20 1449.30 635.56 C 1454.59 635.77 1459.65 637.38 1464.53 639.34 C 1460.93 646.23 1456.12 652.39 1451.95 658.92 C 1458.68 659.98 1462.78 665.56 1467.77 669.56 C 1456.75 685.21 1445.28 700.53 1433.85 715.87 C 1430.93 719.48 1425.59 719.28 1421.86 721.77 C 1415.86 724.33 1414.42 732.09 1408.46 734.62 C 1403.89 736.79 1399.11 733.03 1394.66 732.54 C 1395.15 728.84 1395.92 725.23 1396.64 721.59 C 1394.18 724.50 1392.05 727.70 1389.35 730.39 C 1386.91 732.55 1383.66 730.89 1381.04 730.10 C 1376.97 728.53 1372.15 727.31 1369.94 723.17 C 1366.92 718.02 1362.35 713.75 1356.94 711.24 C 1351.13 709.67 1345.38 707.82 1340.14 704.81 C 1332.35 700.28 1323.26 704.07 1314.95 704.67 C 1315.10 703.26 1315.27 701.87 1315.45 700.48 C 1309.22 697.00 1302.72 694.06 1296.36 690.86 C 1296.92 687.08 1298.53 683.11 1297.61 679.34 C 1293.16 672.30 1286.26 666.64 1283.91 658.42 C 1278.92 657.24 1273.98 656.07 1269.01 654.91 L 1269.26 654.33 C 1275.97 638.20 1283.86 622.60 1290.58 606.48 C 1293.28 600.24 1292.79 593.24 1291.57 586.73 C 1290.16 578.41 1287.15 569.99 1280.96 564.03 C 1277.11 560.38 1271.74 559.46 1266.72 558.64 C 1265.89 554.25 1265.89 549.46 1263.43 545.61 C 1261.09 542.88 1257.87 541.13 1255.14 538.85 C 1259.81 539.27 1264.55 540.01 1269.24 539.29 C 1272.07 538.88 1273.63 536.19 1275.37 534.24 C 1277.60 531.33 1280.62 529.22 1283.48 526.98 C 1286.79 531.77 1289.53 536.91 1291.62 542.34 C 1293.59 546.24 1301.42 549.03 1303.17 543.55 C 1304.35 536.85 1307.58 530.22 1306.45 523.28 C 1305.99 519.84 1305.92 516.32 1306.89 512.97 C 1308.51 506.85 1307.89 500.49 1307.64 494.26 Z" />
</g>
<g id="#cf8f5fff">
<path fill="#cf8f5f" fill-opacity="0" d=" M 1068.42 682.37 C 1069.94 682.18 1071.47 682.02 1073.01 681.90 C 1073.01 682.75 1073.00 684.45 1073.00 685.30 C 1071.45 684.34 1069.91 683.39 1068.42 682.37 Z" />
</g>
<g id="#cf0f5fff">
<path fill="#cf0f5f" fill-opacity="0" d=" M 1100.30 725.26 C 1101.56 718.15 1102.70 710.91 1105.64 704.26 C 1110.61 712.19 1114.23 720.86 1118.99 728.92 C 1128.35 741.93 1131.36 758.06 1134.58 773.42 C 1136.08 783.74 1140.76 793.50 1147.71 801.27 C 1152.36 806.89 1160.54 808.15 1164.50 814.55 C 1170.93 821.26 1164.08 829.47 1161.93 836.40 C 1165.59 837.75 1169.33 838.65 1173.15 839.52 C 1175.52 844.80 1178.03 850.17 1178.64 856.01 C 1177.67 863.19 1173.89 869.54 1171.16 876.15 C 1167.30 884.26 1164.35 892.84 1159.61 900.51 C 1154.65 909.34 1150.73 918.69 1146.74 927.98 C 1146.21 927.90 1145.14 927.73 1144.60 927.65 C 1142.97 925.85 1141.54 923.62 1139.14 922.81 C 1127.81 918.59 1115.79 916.33 1104.81 911.17 C 1079.50 901.92 1048.81 909.54 1031.57 930.53 C 1018.40 936.45 1003.50 940.29 993.24 951.23 C 986.32 958.86 975.44 960.92 968.34 968.35 C 965.20 971.46 961.05 973.13 956.90 974.42 C 954.68 965.01 955.92 955.35 955.18 945.85 C 952.63 939.15 948.61 933.01 946.93 925.97 C 944.80 926.62 942.67 927.29 940.55 927.99 C 938.39 923.87 938.01 919.19 937.57 914.65 C 933.09 912.77 931.76 907.70 932.65 903.26 C 933.65 900.33 935.86 898.06 937.80 895.73 C 933.11 894.08 928.39 892.11 925.25 888.08 C 915.21 889.08 905.13 891.47 896.25 896.35 C 892.09 899.01 887.53 900.92 883.28 903.42 C 879.49 900.62 875.30 898.35 870.96 896.56 C 865.98 897.46 861.24 899.76 856.13 900.02 C 853.69 898.46 852.08 895.91 849.67 894.32 C 841.35 894.51 837.12 903.34 829.29 904.80 C 824.32 906.11 819.04 909.73 813.90 907.26 C 810.99 906.68 809.33 904.15 808.44 901.52 C 808.83 899.12 808.63 896.36 810.22 894.37 C 812.24 892.67 814.87 891.99 817.19 890.81 C 822.51 888.51 826.13 883.37 831.82 881.77 C 838.02 880.04 844.24 878.14 849.89 874.98 C 854.13 872.25 858.86 875.77 863.36 875.02 C 866.41 873.71 869.33 871.93 871.89 869.80 C 874.18 867.88 873.83 864.63 874.35 861.99 C 876.79 860.30 879.60 858.92 881.39 856.47 C 882.86 853.94 882.60 850.76 883.27 848.04 C 889.95 847.58 895.16 843.21 900.23 839.27 C 902.30 841.16 904.46 842.99 906.73 844.66 C 907.98 841.46 909.14 838.21 910.37 835.00 C 910.97 835.91 911.60 836.85 912.23 837.79 C 914.29 837.64 916.80 837.02 918.98 837.37 C 921.37 839.99 922.34 843.53 923.57 846.78 C 926.66 843.70 928.26 839.49 931.33 836.41 C 936.11 832.23 942.67 830.99 948.79 830.43 C 954.47 829.96 959.56 834.14 965.25 832.92 C 969.05 832.18 972.92 831.98 976.77 832.40 C 979.78 829.47 982.92 825.66 987.56 825.85 C 992.69 826.09 997.72 827.36 1002.90 827.30 C 1004.32 822.02 1007.05 817.07 1007.18 811.50 C 1014.94 807.68 1023.02 811.77 1030.77 813.46 C 1030.68 814.48 1030.61 815.52 1030.53 816.57 C 1024.33 819.38 1018.77 824.17 1017.58 831.27 C 1025.86 831.97 1034.43 831.27 1042.47 833.65 C 1045.24 836.23 1044.87 840.77 1045.94 844.25 C 1050.34 841.79 1055.00 839.71 1059.15 836.81 C 1062.97 834.36 1062.20 828.45 1066.30 826.35 C 1071.49 824.78 1076.88 828.05 1082.05 826.79 C 1090.38 820.57 1088.11 808.52 1089.22 799.40 C 1089.23 793.17 1081.81 789.86 1081.51 783.68 C 1081.06 778.18 1083.41 772.27 1081.02 767.07 C 1079.89 764.26 1076.50 765.28 1074.20 765.60 C 1066.95 767.49 1059.95 770.29 1052.60 771.80 C 1053.26 766.37 1052.26 759.74 1056.58 755.62 C 1063.35 751.08 1071.75 751.00 1079.42 749.28 C 1084.93 747.26 1079.49 740.59 1081.66 736.71 C 1083.95 734.16 1087.29 732.96 1090.26 731.37 C 1089.07 724.49 1085.24 718.65 1081.86 712.70 C 1086.81 718.44 1093.12 722.77 1100.30 725.26 Z" />
</g>
</svg>
