<?xml version="1.0" encoding="UTF-8" ?>
<!DOCTYPE svg PUBLIC "-//W3C//DTD SVG 1.1//EN" "http://www.w3.org/Graphics/SVG/1.1/DTD/svg11.dtd">
<svg width="1920pt" height="1080pt" viewBox="0 0 1920 1080" version="1.1" xmlns="http://www.w3.org/2000/svg">
<g id="#bfbf00fe">
<path fill="#bfbf00" fill-opacity="0" d=" M 1015.24 219.12 C 1015.82 214.65 1020.78 212.07 1025.03 212.99 C 1031.47 212.13 1037.63 214.54 1042.98 217.86 C 1041.69 228.89 1044.41 239.84 1042.81 250.86 C 1040.88 267.06 1041.07 283.48 1038.22 299.56 C 1034.46 298.93 1030.81 298.25 1027.16 297.24 C 1026.06 311.48 1025.32 325.72 1025.40 340.00 C 1027.95 341.03 1030.49 342.08 1033.03 343.15 C 1034.47 330.57 1033.72 317.72 1036.37 305.30 C 1040.06 300.50 1045.55 297.48 1050.56 294.21 C 1052.17 287.82 1050.42 279.75 1056.05 275.05 C 1059.91 271.11 1062.54 266.18 1066.32 262.18 C 1071.54 262.15 1078.08 261.84 1081.83 266.20 C 1083.85 268.48 1083.58 271.71 1083.71 274.53 C 1085.80 274.79 1088.30 274.39 1089.97 275.98 C 1092.97 278.80 1094.48 282.92 1097.84 285.42 C 1100.95 287.71 1104.35 289.56 1107.92 291.07 C 1112.77 292.87 1118.04 289.57 1122.82 291.81 C 1127.24 293.88 1133.22 294.50 1136.33 298.64 C 1136.79 305.75 1134.88 312.95 1134.15 320.08 C 1133.48 326.77 1130.03 332.71 1127.44 338.79 C 1131.70 342.04 1135.92 345.91 1141.55 346.46 C 1144.90 347.52 1148.66 347.47 1151.76 349.25 C 1157.37 356.38 1157.20 366.21 1162.44 373.46 C 1163.45 376.59 1162.16 379.93 1161.53 383.04 C 1163.26 384.14 1164.90 385.40 1166.70 386.40 C 1164.46 397.33 1161.86 408.18 1159.66 419.12 C 1155.37 417.08 1149.81 412.89 1145.53 417.40 C 1141.41 424.49 1134.16 429.39 1131.63 437.45 C 1131.59 436.71 1131.49 435.23 1131.44 434.49 C 1130.51 435.43 1129.53 436.32 1128.56 437.20 C 1132.59 438.14 1136.73 438.45 1140.87 438.47 C 1142.90 443.08 1144.11 448.43 1148.13 451.81 C 1150.30 453.72 1152.53 455.56 1154.68 457.50 C 1164.03 456.55 1173.89 457.22 1182.43 461.43 C 1186.68 464.29 1191.38 461.26 1195.30 459.41 C 1200.51 457.41 1199.77 450.68 1201.10 446.34 C 1204.32 448.04 1208.11 448.91 1210.89 451.31 C 1211.79 454.65 1210.40 458.00 1209.86 461.27 C 1214.91 463.32 1220.59 462.55 1225.64 464.24 C 1226.44 471.26 1229.72 477.59 1233.76 483.31 C 1236.85 487.26 1242.71 488.49 1244.94 493.14 C 1246.75 497.45 1241.92 501.00 1242.85 505.29 C 1243.87 510.34 1245.92 515.39 1245.27 520.64 C 1244.16 526.70 1241.22 532.38 1241.46 538.68 C 1242.05 546.76 1236.93 553.78 1237.27 561.82 C 1238.11 569.12 1251.01 568.16 1249.37 576.35 C 1248.94 582.76 1250.68 589.12 1249.70 595.53 C 1255.96 599.53 1262.36 603.38 1268.45 607.67 C 1263.02 608.64 1257.78 610.44 1252.38 611.55 C 1251.87 614.21 1251.38 616.88 1250.87 619.54 C 1247.66 618.73 1244.48 617.80 1241.32 616.84 C 1240.15 620.46 1238.38 624.70 1240.92 628.13 C 1244.53 633.72 1246.65 641.18 1243.41 647.40 C 1242.35 649.80 1239.90 651.09 1237.46 651.62 C 1225.85 654.47 1213.79 654.32 1201.92 654.47 C 1195.38 652.88 1191.89 659.14 1187.74 662.79 C 1183.41 664.31 1178.83 665.00 1174.37 665.96 C 1175.04 652.42 1170.61 637.91 1159.72 629.30 C 1155.57 627.22 1150.77 629.77 1146.48 628.39 C 1138.16 622.67 1134.67 612.92 1128.91 605.07 C 1126.17 601.40 1124.14 597.28 1122.68 592.96 C 1126.84 591.41 1130.77 589.30 1134.54 586.96 C 1132.71 584.44 1131.44 580.30 1127.70 580.40 C 1123.45 580.69 1119.48 582.47 1115.23 582.77 C 1115.11 581.59 1115.01 580.42 1114.92 579.25 C 1113.19 582.04 1111.66 584.94 1110.29 587.92 C 1109.80 584.42 1109.72 580.91 1108.74 577.51 C 1104.07 573.85 1097.79 572.46 1094.01 567.67 C 1095.61 567.76 1095.54 565.53 1094.30 565.06 C 1093.65 564.49 1093.01 563.92 1092.39 563.36 C 1092.01 564.12 1091.69 564.90 1091.35 565.68 C 1086.76 565.00 1082.21 566.50 1077.64 566.13 C 1072.37 565.45 1069.81 560.22 1065.71 557.57 C 1061.52 555.59 1056.38 556.45 1052.35 554.15 C 1047.90 548.59 1044.63 542.14 1039.61 537.01 C 1043.20 529.18 1041.64 520.42 1041.05 512.18 C 1046.80 514.76 1050.73 521.49 1057.66 520.72 C 1063.55 518.28 1067.52 510.63 1065.71 504.44 C 1062.66 501.07 1058.50 498.95 1055.45 495.58 C 1052.70 493.33 1050.67 489.13 1046.82 488.88 C 1035.49 490.45 1024.91 495.43 1015.14 501.21 C 1009.86 503.60 1009.70 510.00 1009.51 514.99 C 1009.57 519.70 1008.58 524.32 1007.50 528.89 C 1002.67 529.21 998.43 531.40 993.92 532.78 C 991.73 533.53 990.32 531.02 989.67 529.34 C 988.57 521.99 989.58 514.47 988.69 507.12 C 986.26 501.87 981.31 497.33 982.07 490.99 C 981.80 474.35 982.66 457.70 983.55 441.10 C 983.88 433.58 987.88 426.06 986.15 418.60 C 982.45 411.19 979.92 402.05 971.95 398.07 C 969.85 396.81 967.07 395.22 967.43 392.33 C 968.35 373.54 967.75 354.73 968.01 335.94 C 968.93 330.28 974.88 327.47 977.77 322.89 C 979.00 319.32 978.91 315.42 980.02 311.82 C 982.27 309.71 984.96 308.08 987.48 306.27 C 990.13 285.33 988.52 264.13 990.25 243.13 C 990.76 240.51 991.45 237.12 994.39 236.24 C 998.93 235.08 1002.94 237.66 1007.08 238.97 C 1006.85 242.22 1006.80 245.52 1006.54 248.78 C 1008.86 249.71 1011.13 250.74 1013.38 251.85 C 1014.11 240.95 1014.23 230.00 1015.24 219.12 M 1027.23 280.97 C 1026.16 281.57 1026.16 283.42 1027.23 284.03 C 1028.99 284.34 1028.99 280.65 1027.23 280.97 Z" />
</g>
<g id="#3fbf00fe">
<path fill="#3fbf00" fill-opacity="0" d=" M 906.33 219.97 C 913.71 217.32 923.03 212.31 930.28 217.73 C 939.72 225.93 940.72 239.50 942.31 251.04 C 950.40 253.88 958.75 256.34 966.00 261.07 C 965.86 287.06 966.95 313.13 964.11 339.02 C 964.32 344.78 961.69 349.98 960.52 355.47 C 958.82 361.36 964.43 365.74 964.50 371.39 C 963.77 399.19 964.80 427.05 962.02 454.76 C 960.64 467.78 960.51 480.92 961.08 494.01 C 961.07 495.30 961.60 496.55 962.51 497.49 C 969.08 503.66 977.13 508.11 983.53 514.48 C 987.65 518.51 986.82 524.78 986.91 530.00 C 986.33 545.35 986.08 560.72 985.07 576.06 C 984.14 574.94 983.30 573.79 982.44 572.65 C 980.27 577.70 976.53 582.33 976.44 588.04 C 975.72 599.33 975.82 610.82 972.70 621.80 C 967.78 623.98 964.65 628.71 959.68 630.86 C 954.07 636.36 957.32 647.88 948.48 650.63 C 948.38 654.01 948.37 657.42 948.20 660.81 C 946.88 660.18 945.58 659.56 944.28 658.95 C 943.21 666.72 937.86 672.55 933.37 678.59 C 927.10 672.45 917.94 672.86 909.89 671.06 C 906.66 670.43 905.34 667.05 903.56 664.69 C 903.48 667.07 903.42 669.46 903.38 671.88 C 902.23 671.40 901.09 670.93 899.96 670.46 C 892.82 674.53 881.10 672.60 878.48 663.91 C 877.52 664.86 876.56 665.81 875.63 666.79 C 871.87 664.29 868.03 661.80 863.65 660.53 C 862.62 650.59 861.02 640.60 862.00 630.59 C 864.98 612.36 863.55 593.71 860.63 575.57 C 858.97 567.20 853.82 560.01 848.05 553.93 C 842.08 548.48 846.16 539.71 843.38 532.86 C 845.63 525.58 845.95 517.82 843.56 510.49 C 842.94 504.72 837.72 501.63 834.21 497.68 C 834.38 500.62 834.32 503.40 834.58 506.39 C 833.94 503.35 833.24 500.27 832.64 497.25 C 831.64 497.29 830.66 497.34 829.68 497.39 C 829.20 503.75 827.30 511.71 819.96 513.05 C 819.71 512.61 819.21 511.72 818.96 511.28 C 815.17 494.72 813.30 477.77 809.67 461.17 C 807.10 449.20 805.48 436.48 809.80 424.70 C 811.38 420.00 814.17 415.53 813.59 410.34 C 812.64 399.36 809.37 388.68 809.22 377.61 C 812.64 391.65 813.56 406.16 816.85 420.24 C 817.34 419.91 818.31 419.24 818.79 418.90 C 815.98 400.65 812.39 382.49 810.29 364.15 C 812.34 358.35 816.49 353.67 819.51 348.38 C 822.35 344.44 824.56 339.31 829.30 337.31 C 842.88 331.46 857.05 323.82 864.17 310.19 C 871.37 294.21 874.99 276.97 880.55 260.44 C 884.04 255.30 887.26 249.89 891.08 245.00 C 895.66 241.76 899.55 246.46 902.36 249.46 C 902.72 239.49 905.77 229.92 906.33 219.97 Z" />
</g>
<g id="#bfbf7fff">
<path fill="#bfbf7f" fill-opacity="0" d=" M 751.47 461.22 C 756.10 459.20 759.06 463.48 762.48 465.48 C 769.24 470.73 778.21 471.48 785.59 475.44 C 789.56 479.21 791.64 484.58 795.42 488.54 C 801.33 491.28 807.93 492.37 813.77 495.29 C 815.83 500.48 815.98 506.42 818.96 511.28 C 819.21 511.72 819.71 512.61 819.96 513.05 C 823.25 517.48 828.12 520.25 832.12 523.95 C 835.77 527.40 835.59 532.88 836.76 537.41 C 838.97 535.91 841.18 534.39 843.38 532.86 C 846.16 539.71 842.08 548.48 848.05 553.93 C 853.82 560.01 858.97 567.20 860.63 575.57 C 863.55 593.71 864.98 612.36 862.00 630.59 C 861.02 640.60 862.62 650.59 863.65 660.53 C 855.25 658.93 850.89 648.33 841.46 650.18 C 839.56 650.12 837.65 650.15 835.75 650.19 C 836.53 659.76 843.26 667.49 850.06 673.67 C 856.02 676.20 862.94 676.08 868.62 679.44 C 871.44 681.05 873.00 684.02 874.76 686.62 C 868.86 689.75 862.87 692.69 856.97 695.82 C 858.16 702.02 857.48 709.00 861.80 714.13 C 868.38 725.19 875.13 736.40 884.79 745.10 C 889.14 747.87 894.05 749.68 898.79 751.73 C 896.69 759.48 890.77 765.20 885.42 770.82 C 886.72 774.18 889.57 777.61 888.32 781.42 C 886.62 786.81 886.53 792.52 884.76 797.90 C 883.44 804.06 880.08 809.68 879.55 816.03 C 879.14 821.91 879.32 827.86 880.29 833.68 C 875.28 834.38 870.25 835.23 865.20 835.33 C 863.19 834.54 862.49 832.06 861.25 830.45 C 857.22 830.23 853.20 830.72 849.23 830.15 C 846.67 829.07 845.38 826.34 843.68 824.31 C 839.95 824.38 836.23 824.71 832.55 825.23 C 831.39 822.48 830.42 819.53 828.45 817.26 C 824.00 813.91 817.71 814.95 813.17 811.80 C 809.67 807.95 809.47 802.33 808.87 797.43 C 811.66 798.87 814.33 800.50 816.97 802.21 C 819.39 794.12 823.06 785.70 820.61 777.15 C 818.37 770.45 819.07 763.31 819.11 756.38 C 819.29 752.91 816.81 750.17 815.22 747.32 C 811.43 748.90 807.45 751.34 803.20 750.41 C 799.19 746.36 794.56 742.44 791.94 737.26 C 791.06 732.61 795.81 728.14 793.52 723.55 C 789.80 718.95 784.05 716.74 778.90 714.16 C 777.46 708.98 776.14 702.98 771.13 700.01 C 765.96 696.97 764.50 690.68 760.11 686.85 C 752.28 680.44 753.46 668.66 746.44 661.60 C 741.93 654.77 733.41 650.85 730.92 642.69 C 728.75 635.76 728.36 628.40 728.51 621.18 C 728.61 617.38 728.59 613.57 728.51 609.77 C 732.92 607.13 735.53 602.33 740.21 600.09 C 747.12 595.76 752.84 589.15 761.34 587.87 C 757.35 568.82 746.00 549.89 750.84 529.89 C 751.75 524.44 757.43 521.52 759.08 516.29 C 756.52 513.10 753.26 510.41 748.90 511.43 C 746.00 499.68 740.68 488.15 741.30 475.83 C 748.12 473.75 746.21 465.01 751.47 461.22 M 759.26 640.31 C 757.77 641.67 760.13 643.98 761.39 642.32 C 762.86 640.94 760.53 638.74 759.26 640.31 M 767.51 649.11 C 768.60 649.89 769.70 650.67 770.82 651.45 C 771.25 650.19 771.71 648.95 772.20 647.72 C 770.64 648.22 769.08 648.68 767.51 649.11 Z" />
</g>
<g id="#007f3fff">
<path fill="#007f3f" fill-opacity="0" d=" M 1046.82 488.88 C 1050.67 489.13 1052.70 493.33 1055.45 495.58 C 1058.50 498.95 1062.66 501.07 1065.71 504.44 C 1067.52 510.63 1063.55 518.28 1057.66 520.72 C 1050.73 521.49 1046.80 514.76 1041.05 512.18 C 1041.64 520.42 1043.20 529.18 1039.61 537.01 C 1044.63 542.14 1047.90 548.59 1052.35 554.15 C 1056.38 556.45 1061.52 555.59 1065.71 557.57 C 1069.81 560.22 1072.37 565.45 1077.64 566.13 C 1082.21 566.50 1086.76 565.00 1091.35 565.68 C 1091.69 564.90 1092.01 564.12 1092.39 563.36 C 1093.01 563.92 1093.65 564.49 1094.30 565.06 C 1094.23 565.71 1094.08 567.02 1094.01 567.67 C 1097.79 572.46 1104.07 573.85 1108.74 577.51 C 1103.46 581.38 1098.50 586.20 1091.89 587.64 C 1087.75 588.96 1083.28 588.06 1079.16 589.32 C 1076.65 594.44 1079.47 600.93 1075.41 605.48 C 1069.01 614.41 1063.87 624.13 1057.60 633.13 C 1061.56 646.69 1059.79 661.19 1063.24 674.83 C 1064.70 679.64 1070.85 679.53 1074.80 680.24 C 1081.38 681.30 1088.33 680.13 1094.68 682.40 C 1098.28 683.84 1097.95 688.50 1096.65 691.45 C 1094.26 698.97 1086.86 702.83 1080.54 706.67 C 1072.19 711.78 1062.22 714.11 1054.88 720.84 C 1050.35 724.73 1051.30 731.38 1053.79 736.15 C 1057.37 742.97 1059.71 750.86 1066.33 755.53 C 1069.16 758.11 1073.92 760.06 1073.84 764.55 C 1076.04 777.66 1062.67 785.15 1060.72 797.12 C 1059.18 801.61 1058.94 807.62 1054.23 810.16 C 1046.09 814.80 1036.43 817.64 1030.64 825.52 C 1024.75 833.98 1021.12 843.70 1017.01 853.08 C 1014.96 857.77 1009.93 859.61 1005.76 861.89 C 1001.20 864.14 999.79 869.37 997.19 873.34 C 993.67 879.26 987.79 883.20 983.58 888.56 C 980.16 894.03 977.51 900.50 978.56 907.07 C 975.93 907.33 973.19 907.43 970.60 907.66 C 968.18 911.14 966.18 915.22 962.58 917.62 C 956.64 918.49 950.66 916.93 944.80 917.23 C 939.21 922.50 930.89 920.77 924.73 925.04 C 921.52 915.05 920.36 904.61 919.12 894.24 C 918.52 891.13 917.92 886.50 914.15 885.80 C 908.98 884.88 903.68 885.84 898.48 885.11 C 897.97 878.50 895.87 872.15 892.38 866.53 C 889.55 862.08 888.75 856.80 887.55 851.77 C 889.69 850.02 891.68 848.08 893.36 845.88 C 888.11 842.99 882.53 839.56 880.29 833.68 C 879.32 827.86 879.14 821.91 879.55 816.03 C 880.08 809.68 883.44 804.06 884.76 797.90 C 886.53 792.52 886.62 786.81 888.32 781.42 C 889.57 777.61 886.72 774.18 885.42 770.82 C 890.77 765.20 896.69 759.48 898.79 751.73 C 894.05 749.68 889.14 747.87 884.79 745.10 C 875.13 736.40 868.38 725.19 861.80 714.13 C 857.48 709.00 858.16 702.02 856.97 695.82 C 862.87 692.69 868.86 689.75 874.76 686.62 C 873.00 684.02 871.44 681.05 868.62 679.44 C 862.94 676.08 856.02 676.20 850.06 673.67 C 843.26 667.49 836.53 659.76 835.75 650.19 C 837.65 650.15 839.56 650.12 841.46 650.18 C 850.89 648.33 855.25 658.93 863.65 660.53 C 868.03 661.80 871.87 664.29 875.63 666.79 C 876.56 665.81 877.52 664.86 878.48 663.91 C 881.10 672.60 892.82 674.53 899.96 670.46 C 901.09 670.93 902.23 671.40 903.38 671.88 C 903.42 669.46 903.48 667.07 903.56 664.69 C 905.34 667.05 906.66 670.43 909.89 671.06 C 917.94 672.86 927.10 672.45 933.37 678.59 C 936.84 680.20 940.87 680.26 944.66 680.35 C 944.82 677.15 945.25 674.22 945.59 671.10 C 946.37 671.59 947.16 672.09 947.96 672.60 C 948.33 672.40 949.07 671.99 949.44 671.79 C 950.35 667.11 948.75 661.31 952.65 657.70 C 956.47 650.91 966.34 653.95 970.33 647.41 C 974.66 641.60 982.54 640.49 987.55 635.64 C 989.90 631.09 993.06 627.21 997.65 624.68 C 998.12 617.38 997.48 609.86 999.90 602.84 C 1002.26 596.45 1006.53 591.02 1011.03 585.99 C 1008.47 582.86 1003.47 580.33 1004.30 575.58 C 1005.61 560.03 1006.04 544.41 1007.50 528.89 C 1008.58 524.32 1009.57 519.70 1009.51 514.99 C 1009.70 510.00 1009.86 503.60 1015.14 501.21 C 1024.91 495.43 1035.49 490.45 1046.82 488.88 M 1088.26 690.91 C 1090.03 691.32 1091.79 691.78 1093.57 692.25 C 1093.04 690.41 1092.54 688.57 1091.77 686.84 C 1089.95 687.48 1089.29 689.46 1088.26 690.91 M 953.98 731.33 C 954.00 732.44 954.05 734.67 954.08 735.78 C 956.45 735.17 958.70 734.17 960.88 733.05 C 958.64 732.21 956.35 731.57 953.98 731.33 M 988.04 867.10 C 987.54 869.28 990.24 869.63 991.56 870.67 C 992.09 869.19 992.62 867.72 993.17 866.26 C 991.44 866.38 989.58 866.17 988.04 867.10 Z" />
</g>
<g id="#3fbf7ffe">
<path fill="#3fbf7f" fill-opacity="0" d=" M 1091.89 587.64 C 1098.50 586.20 1103.46 581.38 1108.74 577.51 C 1109.72 580.91 1109.80 584.42 1110.29 587.92 C 1111.66 584.94 1113.19 582.04 1114.92 579.25 C 1115.01 580.42 1115.11 581.59 1115.23 582.77 C 1119.48 582.47 1123.45 580.69 1127.70 580.40 C 1131.44 580.30 1132.71 584.44 1134.54 586.96 C 1130.77 589.30 1126.84 591.41 1122.68 592.96 C 1124.14 597.28 1126.17 601.40 1128.91 605.07 C 1134.67 612.92 1138.16 622.67 1146.48 628.39 C 1150.77 629.77 1155.57 627.22 1159.72 629.30 C 1170.61 637.91 1175.04 652.42 1174.37 665.96 C 1178.83 665.00 1183.41 664.31 1187.74 662.79 C 1184.68 668.37 1183.62 674.75 1182.86 680.99 C 1180.36 681.61 1177.88 682.24 1175.43 682.88 C 1177.28 689.69 1185.13 691.08 1190.20 694.87 C 1196.29 699.45 1201.48 705.12 1207.34 709.99 C 1205.70 714.38 1205.13 719.21 1207.52 723.42 C 1211.73 730.03 1208.55 737.69 1209.20 744.89 C 1202.40 745.12 1197.64 750.73 1191.60 753.14 C 1191.56 753.47 1191.49 754.13 1191.45 754.46 C 1195.23 756.20 1199.07 757.93 1202.88 759.67 C 1203.55 765.22 1206.55 769.79 1209.53 774.30 C 1208.81 779.08 1205.14 782.79 1203.67 787.32 C 1201.68 794.71 1204.01 802.33 1202.50 809.76 C 1201.08 814.75 1198.54 819.48 1198.38 824.78 C 1198.81 828.25 1200.58 831.49 1202.89 834.09 C 1207.40 838.57 1215.06 838.84 1218.98 844.01 C 1219.90 849.96 1220.02 856.21 1219.40 862.26 C 1218.65 869.94 1212.08 874.98 1208.07 881.03 C 1206.32 883.49 1208.37 886.49 1209.14 888.90 C 1211.86 894.94 1214.57 900.98 1217.41 906.97 C 1221.11 910.37 1226.11 907.76 1230.35 906.98 C 1230.48 903.05 1229.86 898.95 1231.23 895.21 C 1232.82 892.96 1235.77 892.33 1238.09 891.05 C 1239.07 896.28 1240.33 901.59 1244.08 905.62 C 1248.90 901.44 1253.19 895.49 1259.98 894.74 C 1264.77 893.81 1268.85 897.46 1270.38 901.62 C 1272.26 906.07 1268.52 909.45 1265.53 911.94 C 1263.32 913.61 1260.85 915.12 1259.67 917.75 C 1257.50 922.03 1254.06 925.38 1250.57 928.58 C 1246.45 933.10 1242.17 937.50 1238.29 942.20 C 1236.23 948.22 1237.56 957.24 1230.87 960.83 C 1217.87 963.89 1204.36 963.96 1191.09 963.43 C 1183.12 965.19 1174.98 966.82 1167.69 970.69 C 1164.40 972.82 1160.67 970.80 1157.62 969.26 C 1150.39 965.01 1143.73 959.89 1136.64 955.43 C 1129.36 951.27 1126.21 942.97 1121.88 936.21 C 1117.11 935.60 1112.59 933.18 1107.76 933.45 C 1104.29 934.86 1101.76 937.91 1098.85 940.19 C 1093.03 932.87 1083.43 930.81 1074.78 928.87 C 1066.54 929.57 1058.34 931.54 1050.65 934.61 C 1044.09 936.75 1037.04 936.07 1030.28 936.81 C 1026.09 932.02 1021.54 926.93 1014.95 925.65 C 1007.10 924.52 999.08 926.72 991.29 925.22 C 987.19 923.28 986.09 918.27 982.69 915.52 C 980.04 913.52 978.70 910.33 978.56 907.07 C 977.51 900.50 980.16 894.03 983.58 888.56 C 987.79 883.20 993.67 879.26 997.19 873.34 C 999.79 869.37 1001.20 864.14 1005.76 861.89 C 1009.93 859.61 1014.96 857.77 1017.01 853.08 C 1021.12 843.70 1024.75 833.98 1030.64 825.52 C 1036.43 817.64 1046.09 814.80 1054.23 810.16 C 1058.94 807.62 1059.18 801.61 1060.72 797.12 C 1062.67 785.15 1076.04 777.66 1073.84 764.55 C 1073.92 760.06 1069.16 758.11 1066.33 755.53 C 1059.71 750.86 1057.37 742.97 1053.79 736.15 C 1051.30 731.38 1050.35 724.73 1054.88 720.84 C 1062.22 714.11 1072.19 711.78 1080.54 706.67 C 1086.86 702.83 1094.26 698.97 1096.65 691.45 C 1097.95 688.50 1098.28 683.84 1094.68 682.40 C 1088.33 680.13 1081.38 681.30 1074.80 680.24 C 1070.85 679.53 1064.70 679.64 1063.24 674.83 C 1059.79 661.19 1061.56 646.69 1057.60 633.13 C 1063.87 624.13 1069.01 614.41 1075.41 605.48 C 1079.47 600.93 1076.65 594.44 1079.16 589.32 C 1083.28 588.06 1087.75 588.96 1091.89 587.64 M 1062.38 917.11 C 1061.78 918.78 1061.21 920.47 1060.69 922.18 C 1062.20 921.72 1063.72 921.26 1065.19 920.64 C 1064.35 919.38 1063.31 918.27 1062.38 917.11 Z" />
</g>
<g id="#007fbffe">
<path fill="#007fbf" fill-opacity="0" d=" M 1268.45 607.67 C 1273.24 609.08 1276.90 613.04 1280.89 615.98 C 1285.88 619.47 1289.43 624.86 1291.28 630.59 C 1291.27 635.03 1284.71 639.90 1288.93 644.00 C 1295.88 650.21 1303.02 656.29 1308.52 663.90 C 1306.73 667.64 1305.29 671.53 1303.92 675.44 C 1306.49 677.96 1309.92 679.98 1311.45 683.41 C 1312.95 686.23 1313.70 689.68 1316.34 691.72 C 1320.44 693.36 1324.65 689.65 1328.76 691.30 C 1333.16 693.04 1337.68 694.71 1341.66 697.33 C 1341.63 699.56 1340.93 701.70 1340.36 703.84 C 1343.92 704.42 1348.02 704.52 1350.74 707.24 C 1353.00 710.53 1353.61 714.73 1356.01 717.99 C 1356.89 719.83 1359.08 721.71 1358.07 723.93 C 1356.65 728.42 1352.48 731.83 1352.17 736.65 C 1353.53 738.62 1355.46 740.17 1356.68 742.25 C 1357.90 745.19 1357.56 748.47 1357.83 751.58 C 1364.70 750.76 1371.41 748.89 1377.94 746.58 C 1378.97 747.06 1380.00 747.55 1381.07 748.06 C 1380.49 749.26 1379.95 750.47 1379.41 751.69 C 1383.02 753.11 1386.51 754.85 1389.88 756.80 C 1392.60 754.47 1395.34 752.15 1398.06 749.80 C 1401.38 751.33 1405.36 752.08 1407.62 755.27 C 1411.48 761.43 1413.77 768.52 1414.56 775.74 C 1419.25 785.70 1425.55 795.16 1427.34 806.25 C 1427.25 808.04 1425.80 809.42 1424.85 810.84 C 1420.22 816.35 1416.08 822.32 1412.81 828.74 C 1411.64 833.51 1413.93 838.48 1413.24 843.34 C 1412.76 845.98 1410.67 848.14 1410.40 850.79 C 1412.10 853.94 1416.89 853.09 1419.58 854.66 C 1421.47 857.15 1423.31 859.65 1425.22 862.17 C 1427.23 862.40 1429.36 862.40 1431.25 863.31 C 1433.59 869.61 1431.31 877.53 1436.25 882.74 C 1440.47 887.29 1437.24 894.00 1436.97 899.24 C 1433.71 905.59 1432.33 912.69 1428.86 918.94 C 1426.19 923.85 1426.48 929.67 1427.41 935.01 C 1428.60 941.59 1423.67 946.81 1421.33 952.48 C 1419.43 956.47 1419.40 961.04 1417.79 965.12 C 1415.60 967.64 1412.60 969.35 1409.99 971.41 C 1404.47 967.12 1399.57 962.07 1395.76 956.19 C 1394.17 956.61 1392.59 957.06 1391.04 957.53 C 1388.08 953.44 1385.13 949.07 1380.69 946.47 C 1374.99 949.57 1369.41 953.28 1363.00 954.77 C 1357.89 954.61 1353.19 951.62 1350.67 947.20 C 1348.72 943.09 1343.71 945.05 1340.26 943.71 C 1338.25 940.85 1337.79 937.16 1336.44 934.08 C 1328.76 934.29 1320.66 938.20 1313.69 933.42 C 1311.91 938.51 1308.18 942.58 1303.44 945.07 C 1299.06 941.71 1295.01 934.20 1288.70 937.80 C 1284.79 936.03 1281.62 933.08 1280.70 928.76 C 1276.32 922.67 1268.37 919.32 1265.53 911.94 C 1268.52 909.45 1272.26 906.07 1270.38 901.62 C 1268.85 897.46 1264.77 893.81 1259.98 894.74 C 1253.19 895.49 1248.90 901.44 1244.08 905.62 C 1240.33 901.59 1239.07 896.28 1238.09 891.05 C 1235.77 892.33 1232.82 892.96 1231.23 895.21 C 1229.86 898.95 1230.48 903.05 1230.35 906.98 C 1226.11 907.76 1221.11 910.37 1217.41 906.97 C 1214.57 900.98 1211.86 894.94 1209.14 888.90 C 1208.37 886.49 1206.32 883.49 1208.07 881.03 C 1212.08 874.98 1218.65 869.94 1219.40 862.26 C 1220.02 856.21 1219.90 849.96 1218.98 844.01 C 1215.06 838.84 1207.40 838.57 1202.89 834.09 C 1200.58 831.49 1198.81 828.25 1198.38 824.78 C 1198.54 819.48 1201.08 814.75 1202.50 809.76 C 1204.01 802.33 1201.68 794.71 1203.67 787.32 C 1205.14 782.79 1208.81 779.08 1209.53 774.30 C 1206.55 769.79 1203.55 765.22 1202.88 759.67 C 1199.07 757.93 1195.23 756.20 1191.45 754.46 C 1191.49 754.13 1191.56 753.47 1191.60 753.14 C 1197.64 750.73 1202.40 745.12 1209.20 744.89 C 1208.55 737.69 1211.73 730.03 1207.52 723.42 C 1205.13 719.21 1205.70 714.38 1207.34 709.99 C 1201.48 705.12 1196.29 699.45 1190.20 694.87 C 1185.13 691.08 1177.28 689.69 1175.43 682.88 C 1177.88 682.24 1180.36 681.61 1182.86 680.99 C 1183.62 674.75 1184.68 668.37 1187.74 662.79 C 1191.89 659.14 1195.38 652.88 1201.92 654.47 C 1213.79 654.32 1225.85 654.47 1237.46 651.62 C 1239.90 651.09 1242.35 649.80 1243.41 647.40 C 1246.65 641.18 1244.53 633.72 1240.92 628.13 C 1238.38 624.70 1240.15 620.46 1241.32 616.84 C 1244.48 617.80 1247.66 618.73 1250.87 619.54 C 1251.38 616.88 1251.87 614.21 1252.38 611.55 C 1257.78 610.44 1263.02 608.64 1268.45 607.67 Z" />
</g>
<g id="#3f3f7fff">
<path fill="#3f3f7f" fill-opacity="0" d=" M 712.33 627.48 C 717.71 625.38 723.25 623.62 728.51 621.18 C 728.36 628.40 728.75 635.76 730.92 642.69 C 733.41 650.85 741.93 654.77 746.44 661.60 C 753.46 668.66 752.28 680.44 760.11 686.85 C 764.50 690.68 765.96 696.97 771.13 700.01 C 776.14 702.98 777.46 708.98 778.90 714.16 C 784.05 716.74 789.80 718.95 793.52 723.55 C 795.81 728.14 791.06 732.61 791.94 737.26 C 794.56 742.44 799.19 746.36 803.20 750.41 C 807.45 751.34 811.43 748.90 815.22 747.32 C 816.81 750.17 819.29 752.91 819.11 756.38 C 819.07 763.31 818.37 770.45 820.61 777.15 C 823.06 785.70 819.39 794.12 816.97 802.21 C 814.33 800.50 811.66 798.87 808.87 797.43 C 809.47 802.33 809.67 807.95 813.17 811.80 C 817.71 814.95 824.00 813.91 828.45 817.26 C 830.42 819.53 831.39 822.48 832.55 825.23 C 835.31 831.59 831.33 838.00 829.95 844.13 C 824.86 841.54 819.73 838.92 815.69 834.81 C 812.56 836.93 809.46 839.10 806.57 841.54 C 801.20 846.06 794.46 848.52 789.03 852.96 C 787.91 851.42 787.54 848.61 785.21 848.55 C 780.24 848.23 775.23 848.39 770.33 849.34 C 769.39 847.01 769.07 843.86 766.52 842.73 C 763.50 841.14 759.54 840.47 758.02 837.00 C 755.96 832.90 753.57 828.54 753.64 823.84 C 754.56 820.11 756.57 816.76 758.02 813.24 C 753.41 814.09 748.92 815.49 744.42 816.74 C 742.51 814.50 740.53 812.33 738.56 810.16 C 727.96 810.73 717.16 809.65 706.84 812.69 C 696.02 812.90 685.78 816.78 675.03 817.43 C 670.62 817.43 665.66 814.64 661.70 817.71 C 658.19 819.87 654.24 824.31 649.77 822.11 C 643.23 817.41 639.75 809.65 637.62 802.10 C 633.78 800.29 629.58 800.35 625.76 802.16 C 619.58 798.36 615.47 792.25 611.91 786.10 C 611.25 784.96 610.93 783.65 611.10 782.35 C 614.78 779.55 620.10 778.77 622.42 774.37 C 626.10 769.35 623.01 762.86 624.46 757.37 C 627.51 750.52 630.17 743.44 631.58 736.07 C 628.81 731.50 624.69 727.74 622.74 722.67 C 621.38 718.73 623.07 714.46 621.64 710.55 C 620.10 705.78 617.18 701.66 614.85 697.27 C 622.76 694.57 630.82 692.22 638.55 689.02 C 644.94 685.27 644.73 676.81 650.09 672.20 C 654.17 668.21 656.50 661.03 663.37 662.00 C 661.22 656.26 666.08 651.70 669.09 647.45 C 676.66 647.60 683.00 643.18 688.34 638.30 C 691.15 635.56 695.27 637.85 698.56 636.47 C 703.62 634.25 708.12 631.01 712.33 627.48 Z" />
</g>
<g id="#7f00bffe">
<path fill="#7f00bf" fill-opacity="0" d=" M 759.26 640.31 C 760.53 638.74 762.86 640.94 761.39 642.32 C 760.13 643.98 757.77 641.67 759.26 640.31 Z" />
</g>
<g id="#bf3f7fff">
<path fill="#bf3f7f" fill-opacity="0" d=" M 767.51 649.11 C 769.08 648.68 770.64 648.22 772.20 647.72 C 771.71 648.95 771.25 650.19 770.82 651.45 C 769.70 650.67 768.60 649.89 767.51 649.11 Z" />
</g>
<g id="#7f003fff">
<path fill="#7f003f" fill-opacity="0" d=" M 1088.26 690.91 C 1089.29 689.46 1089.95 687.48 1091.77 686.84 C 1092.54 688.57 1093.04 690.41 1093.57 692.25 C 1091.79 691.78 1090.03 691.32 1088.26 690.91 Z" />
</g>
<g id="#7f7f40ff">
<path fill="#7f7f40" fill-opacity="0" d=" M 953.98 731.33 C 956.35 731.57 958.64 732.21 960.88 733.05 C 958.70 734.17 956.45 735.17 954.08 735.78 C 954.05 734.67 954.00 732.44 953.98 731.33 Z" />
</g>
<g id="#0000bfff">
<path fill="#0000bf" fill-opacity="0" d=" M 988.04 867.10 C 989.58 866.17 991.44 866.38 993.17 866.26 C 992.62 867.72 992.09 869.19 991.56 870.67 C 990.24 869.63 987.54 869.28 988.04 867.10 Z" />
</g>
<g id="#050f45ff">
<path fill="#050f45" fill-opacity="0" d=" M 1062.38 917.11 C 1063.31 918.27 1064.35 919.38 1065.19 920.64 C 1063.72 921.26 1062.20 921.72 1060.69 922.18 C 1061.21 920.47 1061.78 918.78 1062.38 917.11 Z" />
</g>
</svg>
