<?xml version="1.0" encoding="UTF-8" ?>
<!DOCTYPE svg PUBLIC "-//W3C//DTD SVG 1.1//EN" "http://www.w3.org/Graphics/SVG/1.1/DTD/svg11.dtd">
<svg width="1920pt" height="1080pt" viewBox="0 0 1920 1080" version="1.1" xmlns="http://www.w3.org/2000/svg">
<g id="#af00dffe">
<path fill="#af00df" fill-opacity="0" d=" M 976.93 215.95 C 989.30 213.42 1001.64 216.90 1013.75 219.26 C 1015.71 223.87 1018.35 228.23 1019.89 233.03 C 1021.98 239.26 1020.59 246.61 1025.11 251.91 C 1035.77 267.55 1052.77 277.07 1069.86 284.16 L 1069.93 284.99 C 1070.13 292.02 1072.49 299.51 1069.43 306.25 C 1064.46 318.62 1053.78 327.72 1043.15 335.28 C 1036.65 340.23 1028.22 336.63 1020.98 335.89 C 1008.25 333.81 995.70 330.72 983.35 327.03 C 982.36 323.60 982.78 318.85 979.51 316.46 C 973.97 312.80 966.78 311.69 960.37 313.35 C 952.96 315.19 945.63 317.28 938.29 319.33 C 938.83 329.28 938.46 339.36 935.96 349.06 C 934.56 353.86 932.03 358.21 930.20 362.85 C 926.85 373.40 922.13 383.42 915.89 392.59 C 914.00 391.32 912.01 390.15 910.45 388.49 C 906.00 378.71 906.78 367.77 905.64 357.35 C 903.38 337.53 902.83 317.58 900.71 297.75 C 900.08 289.27 898.80 280.76 899.43 272.25 C 904.38 265.17 912.31 260.61 919.91 256.83 C 929.16 252.01 940.33 251.96 949.13 246.12 C 953.84 243.00 954.82 236.98 957.49 232.37 C 959.26 228.60 963.91 228.12 967.17 226.15 C 971.85 224.33 972.83 218.40 976.93 215.95 M 1028.22 270.60 C 1023.88 287.86 1020.37 305.32 1015.66 322.49 C 1014.00 325.92 1014.54 329.64 1016.20 332.85 C 1025.00 325.41 1031.89 316.12 1040.07 308.06 C 1046.55 300.36 1053.99 293.55 1060.27 285.68 C 1055.17 282.18 1050.43 278.18 1045.47 274.50 C 1040.46 270.96 1034.13 270.62 1028.22 270.60 Z" />
</g>
<g id="#2f00dfff">
<path fill="#2f00df" fill-opacity="0" d=" M 1028.22 270.60 C 1034.13 270.62 1040.46 270.96 1045.47 274.50 C 1050.43 278.18 1055.17 282.18 1060.27 285.68 C 1053.99 293.55 1046.55 300.36 1040.07 308.06 C 1031.89 316.12 1025.00 325.41 1016.20 332.85 C 1014.54 329.64 1014.00 325.92 1015.66 322.49 C 1020.37 305.32 1023.88 287.86 1028.22 270.60 Z" />
</g>
<g id="#6fbf9fff">
<path fill="#6fbf9f" fill-opacity="0" d=" M 1069.93 284.99 C 1077.31 283.76 1084.55 281.46 1092.01 280.74 C 1104.97 282.53 1117.37 287.01 1130.09 289.96 C 1140.22 292.43 1150.69 292.78 1160.99 294.17 C 1163.75 294.46 1165.83 296.47 1167.61 298.42 C 1173.70 304.39 1172.36 314.52 1178.58 320.43 C 1183.54 325.10 1190.46 326.60 1196.34 329.76 C 1198.87 324.47 1200.70 318.92 1202.38 313.32 C 1203.57 308.56 1209.23 305.78 1213.85 307.07 C 1219.69 308.45 1225.58 309.82 1231.61 310.16 C 1234.12 301.03 1237.35 291.99 1241.60 283.53 C 1246.04 282.03 1250.72 281.08 1255.32 280.05 C 1255.42 285.28 1257.06 290.52 1260.41 294.60 C 1266.05 301.33 1273.16 306.55 1279.85 312.17 C 1286.73 317.59 1290.73 325.55 1295.12 332.94 C 1286.69 349.17 1279.10 365.83 1271.64 382.52 C 1269.21 388.12 1264.35 391.95 1260.09 396.09 C 1254.96 394.85 1249.69 393.72 1244.39 394.57 C 1236.60 398.28 1234.14 406.87 1228.85 412.90 C 1224.61 415.70 1219.15 415.24 1214.32 416.17 C 1208.74 417.06 1202.11 416.39 1197.89 420.86 C 1194.86 423.51 1192.17 426.49 1189.17 429.15 C 1183.38 434.32 1176.07 437.21 1169.41 441.03 C 1170.87 436.98 1172.70 432.73 1172.09 428.33 C 1170.93 423.10 1168.36 418.32 1166.93 413.18 C 1159.53 413.95 1151.97 416.54 1144.59 414.52 C 1125.47 409.52 1107.82 400.32 1089.19 393.89 C 1081.07 391.44 1072.35 388.69 1063.79 390.42 C 1054.83 392.81 1050.59 402.72 1041.77 405.39 C 1034.45 405.77 1027.53 402.74 1020.68 400.59 C 1026.67 392.88 1029.20 383.25 1032.16 374.11 C 1034.49 367.50 1033.26 360.39 1031.78 353.74 C 1030.16 346.79 1025.27 341.35 1020.98 335.89 C 1028.22 336.63 1036.65 340.23 1043.15 335.28 C 1053.78 327.72 1064.46 318.62 1069.43 306.25 C 1072.49 299.51 1070.13 292.02 1069.93 284.99 Z" />
</g>
<g id="#af005fff">
<path fill="#af005f" fill-opacity="0" d=" M 960.37 313.35 C 966.78 311.69 973.97 312.80 979.51 316.46 C 982.78 318.85 982.36 323.60 983.35 327.03 C 995.70 330.72 1008.25 333.81 1020.98 335.89 C 1025.27 341.35 1030.16 346.79 1031.78 353.74 C 1033.26 360.39 1034.49 367.50 1032.16 374.11 C 1029.20 383.25 1026.67 392.88 1020.68 400.59 C 1013.53 409.09 1006.58 417.88 997.90 424.89 C 994.31 428.42 989.50 431.26 987.47 436.07 C 988.37 444.64 999.30 445.99 1002.94 453.07 C 1005.63 457.24 1002.69 461.95 1001.05 465.92 C 996.52 474.61 993.41 483.99 988.54 492.49 L 988.17 493.08 C 980.22 498.56 971.83 503.59 962.81 507.12 C 957.41 509.40 951.10 508.61 945.78 506.49 C 939.03 503.11 933.64 497.66 927.36 493.57 C 916.64 485.77 904.13 481.20 891.55 477.44 C 891.43 473.91 891.26 470.37 891.11 466.86 C 904.45 457.48 918.66 449.41 931.99 440.01 C 939.84 434.03 946.12 425.57 948.86 416.05 C 949.48 408.52 951.26 400.21 948.05 392.97 C 942.86 382.49 936.32 372.78 930.20 362.85 C 932.03 358.21 934.56 353.86 935.96 349.06 C 938.46 339.36 938.83 329.28 938.29 319.33 C 945.63 317.28 952.96 315.19 960.37 313.35 Z" />
</g>
<g id="#efbf1fff">
<path fill="#efbf1f" fill-opacity="0" d=" M 930.20 362.85 C 936.32 372.78 942.86 382.49 948.05 392.97 C 951.26 400.21 949.48 408.52 948.86 416.05 C 946.12 425.57 939.84 434.03 931.99 440.01 C 918.66 449.41 904.45 457.48 891.11 466.86 C 891.26 470.37 891.43 473.91 891.55 477.44 C 904.13 481.20 916.64 485.77 927.36 493.57 C 933.64 497.66 939.03 503.11 945.78 506.49 C 951.10 508.61 957.41 509.40 962.81 507.12 C 971.83 503.59 980.22 498.56 988.17 493.08 C 981.78 502.75 977.85 513.71 973.04 524.18 C 966.12 538.09 964.14 553.72 961.90 568.89 C 959.68 586.23 965.91 604.07 961.02 621.18 C 954.35 618.84 947.40 616.74 940.24 617.20 C 936.20 619.03 934.48 623.73 934.04 627.84 C 932.42 634.69 932.51 642.32 928.28 648.27 C 921.62 658.19 915.22 668.34 910.36 679.28 C 905.36 677.77 900.94 674.94 896.13 672.99 C 893.05 671.71 889.64 673.16 887.15 675.03 C 882.81 678.47 879.06 682.75 876.68 687.78 C 870.95 698.74 872.26 711.81 866.96 722.95 C 862.15 732.53 857.28 742.19 850.64 750.67 C 840.65 764.72 830.24 778.46 818.56 791.16 C 830.36 812.05 841.70 833.24 854.20 853.72 C 848.72 849.52 841.71 848.98 835.60 846.30 C 829.88 839.43 826.25 831.10 820.37 824.35 C 816.00 829.32 811.83 835.18 804.65 835.99 C 801.68 832.74 799.10 828.65 794.58 827.49 C 779.98 822.95 766.98 812.52 751.24 812.09 C 749.25 813.85 747.84 816.12 746.30 818.26 C 741.95 817.71 736.67 818.16 733.22 814.86 C 708.35 789.37 683.16 764.21 658.04 738.97 C 660.87 730.88 662.78 722.52 665.44 714.38 C 670.42 700.10 674.18 685.23 682.30 672.28 C 687.27 663.07 698.77 658.74 701.60 648.24 C 696.82 642.01 691.39 636.31 686.40 630.25 C 695.07 626.18 704.97 625.28 714.39 626.77 C 721.30 628.50 728.03 630.93 735.12 631.98 C 741.62 633.01 748.53 635.55 755.06 633.23 C 759.96 631.76 763.76 628.12 767.12 624.42 C 773.70 616.27 780.28 608.11 787.48 600.49 C 792.89 594.42 799.30 588.68 801.64 580.59 C 788.81 579.10 776.16 582.26 764.28 586.89 C 760.75 584.50 757.17 582.19 753.57 579.92 C 756.63 569.18 759.87 558.42 761.26 547.31 C 762.47 538.89 758.05 531.32 755.63 523.60 C 752.74 513.91 750.34 504.08 747.91 494.27 C 758.46 486.12 768.08 476.81 778.95 469.07 C 787.61 463.89 796.43 458.94 805.17 453.88 C 818.34 457.29 831.76 462.43 845.60 460.52 C 852.20 456.61 856.45 449.74 860.49 443.44 C 864.13 437.65 868.85 432.22 870.20 425.31 C 871.66 419.92 872.00 413.88 875.11 409.09 C 879.03 406.15 883.99 405.16 888.48 403.40 C 891.39 405.31 894.12 407.61 897.35 409.00 C 900.16 409.60 903.07 409.44 905.93 409.49 C 908.92 403.67 912.38 398.11 915.89 392.59 C 922.13 383.42 926.85 373.40 930.20 362.85 Z" />
</g>
<g id="#ef3f9ffe">
<path fill="#ef3f9f" fill-opacity="0" d=" M 656.23 379.84 C 664.50 380.87 672.68 383.57 679.62 388.29 C 686.18 392.39 692.30 398.05 700.41 398.63 C 709.48 401.07 717.88 394.55 726.95 396.04 C 730.82 396.80 734.82 397.69 738.17 399.87 C 742.25 403.11 744.60 408.00 748.51 411.40 C 753.21 413.19 758.18 413.83 763.16 414.45 C 769.94 415.22 776.66 412.79 783.43 413.68 C 786.68 416.84 788.93 420.89 791.39 424.68 C 794.92 430.18 794.87 436.97 797.16 442.94 C 798.81 447.24 802.21 450.47 805.17 453.88 C 796.43 458.94 787.61 463.89 778.95 469.07 C 768.08 476.81 758.46 486.12 747.91 494.27 C 750.34 504.08 752.74 513.91 755.63 523.60 C 758.05 531.32 762.47 538.89 761.26 547.31 C 759.87 558.42 756.63 569.18 753.57 579.92 C 757.17 582.19 760.75 584.50 764.28 586.89 C 776.16 582.26 788.81 579.10 801.64 580.59 C 799.30 588.68 792.89 594.42 787.48 600.49 C 780.28 608.11 773.70 616.27 767.12 624.42 C 763.76 628.12 759.96 631.76 755.06 633.23 C 748.53 635.55 741.62 633.01 735.12 631.98 C 728.03 630.93 721.30 628.50 714.39 626.77 C 704.97 625.28 695.07 626.18 686.40 630.25 C 691.39 636.31 696.82 642.01 701.60 648.24 C 698.77 658.74 687.27 663.07 682.30 672.28 C 674.18 685.23 670.42 700.10 665.44 714.38 C 662.78 722.52 660.87 730.88 658.04 738.97 C 683.16 764.21 708.35 789.37 733.22 814.86 C 726.53 809.88 720.70 803.96 714.54 798.38 C 711.01 799.56 707.09 801.55 703.35 800.65 C 692.68 794.31 685.89 783.11 675.01 777.02 C 667.56 772.89 659.97 768.97 653.07 763.96 C 648.76 761.05 643.61 759.64 639.42 756.57 C 621.92 741.43 605.24 725.34 587.43 710.56 C 569.91 694.32 551.84 678.73 534.04 662.81 C 539.17 631.64 545.93 600.14 542.51 568.41 C 541.78 562.97 547.24 559.86 550.59 556.57 C 558.30 550.48 562.10 540.56 562.61 530.96 C 562.92 526.15 560.86 521.34 561.80 516.60 C 565.61 509.90 572.97 506.09 577.02 499.62 C 578.98 492.34 579.16 484.65 581.57 477.46 C 591.52 470.08 604.62 473.42 615.99 470.92 C 626.42 459.31 633.09 443.78 633.54 427.98 C 633.39 417.90 625.11 410.55 622.64 401.20 C 625.48 393.34 632.06 387.46 639.05 383.23 C 644.42 380.81 650.50 380.71 656.23 379.84 Z" />
</g>
<g id="#6f3f9fff">
<path fill="#6f3f9f" fill-opacity="0" d=" M 1063.79 390.42 C 1072.35 388.69 1081.07 391.44 1089.19 393.89 C 1107.82 400.32 1125.47 409.52 1144.59 414.52 C 1151.97 416.54 1159.53 413.95 1166.93 413.18 C 1168.36 418.32 1170.93 423.10 1172.09 428.33 C 1172.70 432.73 1170.87 436.98 1169.41 441.03 C 1168.86 442.42 1168.27 443.80 1167.69 445.18 C 1164.13 453.76 1158.19 463.20 1161.32 472.76 C 1167.50 485.18 1179.44 494.19 1183.21 507.93 C 1186.01 516.57 1185.61 525.79 1185.52 534.75 C 1185.43 545.17 1180.90 556.28 1171.69 561.82 C 1168.08 564.19 1163.81 565.40 1159.56 565.91 C 1135.36 561.06 1111.20 555.50 1087.93 547.17 C 1083.05 545.59 1079.11 542.15 1075.00 539.23 C 1076.40 533.89 1079.51 527.39 1075.58 522.40 C 1068.76 517.84 1060.36 517.69 1052.50 516.74 C 1036.05 515.33 1019.42 512.72 1004.32 505.73 C 997.51 503.53 993.18 497.55 988.54 492.49 C 993.41 483.99 996.52 474.61 1001.05 465.92 C 1002.69 461.95 1005.63 457.24 1002.94 453.07 C 999.30 445.99 988.37 444.64 987.47 436.07 C 989.50 431.26 994.31 428.42 997.90 424.89 C 1006.58 417.88 1013.53 409.09 1020.68 400.59 C 1027.53 402.74 1034.45 405.77 1041.77 405.39 C 1050.59 402.72 1054.83 392.81 1063.79 390.42 Z" />
</g>
<g id="#efbf9fff">
<path fill="#efbf9f" fill-opacity="0" d=" M 1241.65 443.20 C 1246.43 441.34 1251.33 443.69 1255.81 445.31 C 1259.27 446.76 1263.00 447.71 1266.14 449.82 C 1269.35 455.05 1270.13 461.43 1273.38 466.64 C 1275.92 469.79 1279.57 471.77 1282.41 474.63 C 1287.60 480.00 1291.34 486.58 1294.17 493.45 C 1295.83 504.27 1290.20 516.00 1295.75 526.17 C 1298.51 531.25 1299.75 537.12 1303.19 541.84 C 1309.24 547.21 1316.73 550.59 1323.24 555.35 C 1321.63 558.82 1318.67 561.45 1316.47 564.51 C 1317.23 574.01 1317.60 583.61 1316.49 593.10 C 1315.94 597.47 1312.76 600.81 1310.22 604.19 C 1301.54 614.85 1293.05 625.67 1284.20 636.19 C 1278.79 643.48 1270.41 647.64 1262.44 651.52 C 1250.71 656.04 1239.25 661.24 1227.42 665.50 C 1224.18 666.76 1220.26 668.44 1219.66 672.32 C 1218.33 680.77 1222.29 688.76 1224.55 696.67 C 1225.95 702.51 1229.39 708.50 1227.91 714.70 C 1226.76 718.95 1225.93 723.58 1223.20 727.18 C 1216.39 736.15 1208.69 744.40 1201.53 753.08 C 1199.36 745.09 1198.83 736.77 1197.29 728.65 C 1195.75 720.44 1196.97 712.07 1197.63 703.84 C 1198.95 691.65 1199.02 679.35 1201.13 667.25 C 1202.76 654.53 1206.63 640.99 1201.30 628.59 C 1197.84 624.31 1192.00 627.20 1188.00 628.99 C 1183.77 630.55 1179.32 634.42 1174.62 632.38 C 1171.46 631.00 1167.45 628.70 1167.65 624.74 C 1168.04 612.93 1170.94 601.12 1169.05 589.32 C 1167.21 581.01 1162.18 573.95 1159.56 565.91 C 1163.81 565.40 1168.08 564.19 1171.69 561.82 C 1180.90 556.28 1185.43 545.17 1185.52 534.75 C 1185.61 525.79 1186.01 516.57 1183.21 507.93 C 1179.44 494.19 1167.50 485.18 1161.32 472.76 C 1158.19 463.20 1164.13 453.76 1167.69 445.18 C 1174.09 448.37 1181.32 448.80 1188.04 450.98 C 1191.22 451.81 1192.97 454.83 1194.85 457.26 C 1199.23 463.43 1204.57 468.81 1209.78 474.27 C 1213.38 477.93 1219.01 477.08 1223.69 478.15 C 1227.84 468.08 1233.24 458.59 1237.47 448.56 C 1238.49 446.59 1239.21 443.84 1241.65 443.20 M 1247.06 458.33 C 1247.47 464.35 1247.82 470.37 1248.39 476.38 C 1249.26 483.05 1248.47 490.08 1250.54 496.51 C 1256.59 501.37 1265.10 501.55 1271.96 504.82 C 1274.89 503.05 1277.92 501.30 1280.92 499.60 C 1276.29 490.94 1270.17 483.17 1265.46 474.59 C 1262.89 467.08 1265.15 458.93 1265.04 451.19 C 1259.24 454.02 1253.17 456.28 1247.06 458.33 Z" />
</g>
<g id="#2f005fff">
<path fill="#2f005f" fill-opacity="0" d=" M 1247.06 458.33 C 1253.17 456.28 1259.24 454.02 1265.04 451.19 C 1265.15 458.93 1262.89 467.08 1265.46 474.59 C 1270.17 483.17 1276.29 490.94 1280.92 499.60 C 1277.92 501.30 1274.89 503.05 1271.96 504.82 C 1265.10 501.55 1256.59 501.37 1250.54 496.51 C 1248.47 490.08 1249.26 483.05 1248.39 476.38 C 1247.82 470.37 1247.47 464.35 1247.06 458.33 Z" />
</g>
<g id="#2f7f5fff">
<path fill="#2f7f5f" fill-opacity="0" d=" M 988.17 493.08 L 988.54 492.49 C 993.18 497.55 997.51 503.53 1004.32 505.73 C 1019.42 512.72 1036.05 515.33 1052.50 516.74 C 1060.36 517.69 1068.76 517.84 1075.58 522.40 C 1079.51 527.39 1076.40 533.89 1075.00 539.23 C 1079.11 542.15 1083.05 545.59 1087.93 547.17 C 1111.20 555.50 1135.36 561.06 1159.56 565.91 C 1162.18 573.95 1167.21 581.01 1169.05 589.32 C 1170.94 601.12 1168.04 612.93 1167.65 624.74 C 1167.45 628.70 1171.46 631.00 1174.62 632.38 C 1179.32 634.42 1183.77 630.55 1188.00 628.99 C 1192.00 627.20 1197.84 624.31 1201.30 628.59 C 1206.63 640.99 1202.76 654.53 1201.13 667.25 C 1199.02 679.35 1198.95 691.65 1197.63 703.84 C 1196.97 712.07 1195.75 720.44 1197.29 728.65 C 1198.83 736.77 1199.36 745.09 1201.53 753.08 C 1203.18 758.67 1205.91 763.92 1207.15 769.64 C 1208.76 779.82 1205.04 790.06 1199.61 798.54 C 1196.94 802.75 1196.33 808.06 1197.13 812.93 C 1200.53 822.99 1207.51 831.20 1212.87 840.21 C 1210.43 844.43 1205.56 846.76 1202.00 850.04 C 1189.47 859.45 1177.74 869.85 1165.14 879.16 C 1159.35 883.22 1154.65 889.20 1148.04 891.83 C 1138.97 887.10 1129.33 883.57 1119.46 880.88 C 1121.00 877.54 1122.78 874.32 1124.47 871.05 C 1120.57 869.14 1116.67 864.83 1112.05 867.07 C 1105.63 869.59 1098.14 870.17 1092.83 874.87 C 1088.29 878.82 1081.63 878.33 1076.37 880.77 C 1069.86 883.67 1064.53 877.91 1058.50 876.74 C 1054.65 875.21 1051.58 877.80 1048.36 879.22 C 1043.31 882.06 1037.41 878.36 1032.14 880.24 C 1025.10 883.03 1018.30 886.39 1011.19 888.98 C 1006.84 890.29 1004.04 885.01 1000.74 883.31 C 995.72 879.21 989.23 882.30 983.70 883.47 C 976.98 876.37 966.81 874.84 958.84 869.51 C 957.19 873.49 959.33 880.21 954.67 882.65 C 943.84 889.59 931.98 882.33 922.80 876.25 C 919.01 872.99 916.75 879.32 914.30 881.43 C 907.87 880.21 901.96 876.41 895.27 876.81 C 885.15 877.61 875.70 872.16 868.70 865.30 C 864.41 860.75 857.82 858.91 854.20 853.72 C 841.70 833.24 830.36 812.05 818.56 791.16 C 830.24 778.46 840.65 764.72 850.64 750.67 C 857.28 742.19 862.15 732.53 866.96 722.95 C 872.26 711.81 870.95 698.74 876.68 687.78 C 879.06 682.75 882.81 678.47 887.15 675.03 C 889.64 673.16 893.05 671.71 896.13 672.99 C 900.94 674.94 905.36 677.77 910.36 679.28 C 915.22 668.34 921.62 658.19 928.28 648.27 C 932.51 642.32 932.42 634.69 934.04 627.84 C 934.48 623.73 936.20 619.03 940.24 617.20 C 947.40 616.74 954.35 618.84 961.02 621.18 C 965.91 604.07 959.68 586.23 961.90 568.89 C 964.14 553.72 966.12 538.09 973.04 524.18 C 977.85 513.71 981.78 502.75 988.17 493.08 M 988.05 555.21 C 986.86 560.71 985.64 566.20 984.66 571.74 C 986.32 572.06 989.63 572.70 991.28 573.02 C 997.06 566.23 1002.41 559.06 1006.80 551.29 C 1000.54 552.58 994.30 553.94 988.05 555.21 Z" />
</g>
<g id="#af7f5fff">
<path fill="#af7f5f" fill-opacity="0" d=" M 988.05 555.21 C 994.30 553.94 1000.54 552.58 1006.80 551.29 C 1002.41 559.06 997.06 566.23 991.28 573.02 C 989.63 572.70 986.32 572.06 984.66 571.74 C 985.64 566.20 986.86 560.71 988.05 555.21 Z" />
</g>
</svg>
