<?xml version="1.0" encoding="UTF-8" standalone="no"?>
<svg
   xmlns:dc="http://purl.org/dc/elements/1.1/"
   xmlns:cc="http://creativecommons.org/ns#"
   xmlns:rdf="http://www.w3.org/1999/02/22-rdf-syntax-ns#"
   xmlns:svg="http://www.w3.org/2000/svg"
   xmlns="http://www.w3.org/2000/svg"
   xmlns:sodipodi="http://sodipodi.sourceforge.net/DTD/sodipodi-0.dtd"
   xmlns:inkscape="http://www.inkscape.org/namespaces/inkscape"
   width="1920pt"
   height="1080pt"
   viewBox="0 0 1920 1080"
   version="1.1"
   id="svg2"
   inkscape:version="0.48.4 r9939"
   sodipodi:docname="all_regions_borders_left.svg">
  <g target="32"
     id="#7f407fff">
    <path
       fill="#7f407f"
       fill-opacity="0.00"
       d=" M 891.88 172.75 C 897.66 169.72 905.94 171.06 908.91 166.01 C 912.00 173.28 921.04 169.31 927.89 171.90 C 930.85 174.86 934.60 174.08 936.53 170.54 C 945.77 171.50 955.03 172.88 964.31 173.64 C 976.93 172.42 990.96 181.04 1002.83 173.67 C 1008.85 172.98 1014.93 173.51 1020.98 173.61 C 1022.46 177.61 1022.65 185.17 1028.63 183.49 C 1035.57 182.15 1040.48 188.88 1047.17 188.80 C 1053.73 185.32 1051.82 196.00 1047.20 193.71 C 1036.79 190.29 1026.41 195.35 1015.95 196.02 C 1015.01 195.23 1015.01 195.23 1015.95 196.02 C 997.71 195.40 976.48 195.12 957.10 197.19 C 964.00 203.53 978.97 199.62 987.96 205.80 C 980.76 211.42 995.28 211.73 998.86 212.90 C 997.19 216.44 992.47 215.42 989.38 216.81 C 992.16 222.54 994.52 229.44 1002.27 227.00 C 1005.35 225.37 1022.20 228.31 1013.96 222.75 C 1021.24 216.23 1033.26 218.57 1042.50 219.00 C 1041.90 225.36 1036.78 230.00 1035.05 235.97 C 1035.38 240.69 1046.21 235.19 1044.47 240.11 C 1041.11 251.19 1027.22 242.89 1020.78 250.91 C 1011.06 252.67 999.54 241.92 990.77 250.98 C 982.05 249.10 973.19 248.72 963.98 249.42 C 959.76 245.48 949.30 241.81 947.72 250.09 C 935.44 253.06 922.74 245.02 910.90 250.74 C 894.63 256.09 878.03 250.92 861.74 251.70 C 856.39 255.87 849.55 256.74 843.45 253.75 C 825.92 253.70 805.48 259.07 789.67 252.01 C 792.76 251.70 788.95 249.00 789.67 252.01 C 787.52 248.01 780.78 246.62 782.41 240.93 C 786.63 239.06 793.25 232.23 787.44 229.06 C 778.73 231.55 792.97 224.13 787.38 222.38 C 781.00 221.86 769.95 223.89 767.78 215.74 C 772.48 215.55 770.03 211.27 768.40 209.03 C 772.42 207.47 780.31 210.30 780.91 204.28 C 776.05 201.72 773.24 197.41 774.14 191.67 C 774.13 191.48 774.12 191.10 774.11 190.92 C 774.09 190.54 774.04 189.79 774.02 189.42 C 783.76 182.61 790.19 194.72 798.09 187.92 C 798.37 187.65 798.94 187.10 799.22 186.82 C 815.61 189.91 832.27 193.62 848.99 193.25 C 856.66 192.95 848.57 182.89 855.12 181.04 C 867.26 177.78 879.52 175.04 891.88 172.75 M 776.27 198.27 C 776.77 198.77 776.77 198.77 776.27 198.27 M 782.81 198.02 C 780.00 209.84 794.37 201.78 782.81 198.02 M 772.27 214.27 C 772.77 214.77 772.77 214.77 772.27 214.27 Z"
       id="path57" />
    <path
       fill="#80407f"
       fill-opacity="0.00"
       d=" M 966.05 103.05 C 979.01 103.05 992.00 102.75 1004.96 103.10 C 1005.08 111.72 1005.12 120.33 1004.95 128.95 C 991.97 128.95 978.99 129.25 966.04 128.90 C 965.90 120.28 965.86 111.66 966.05 103.05 Z"
       id="path10" />
    <path
       fill="#80407f"
       fill-opacity="0.00"
       d=" M 1009.64 103.54 C 1031.99 105.11 1062.72 102.07 1079.53 110.41 C 1106.34 110.40 1133.51 109.72 1160.15 112.98 C 1159.21 121.38 1158.05 129.75 1157.32 138.17 L 1157.11 138.99 C 1151.24 138.35 1139.00 132.54 1137.80 139.96 C 1129.04 138.85 1118.83 138.93 1122.45 149.60 C 1115.92 151.63 1112.70 148.18 1106.46 146.96 C 1108.25 154.06 1100.92 154.40 1103.75 147.15 C 1099.88 148.99 1098.99 157.11 1098.37 146.71 C 1077.63 144.85 1056.51 149.63 1035.85 151.69 C 1036.46 144.49 1036.80 137.28 1036.68 130.05 C 1027.23 129.10 1016.99 131.83 1007.95 128.43 C 1008.97 120.51 1006.41 110.58 1009.64 103.54 M 1136.27 137.27 C 1136.76 137.77 1136.76 137.77 1136.27 137.27 Z"
       id="path12" />
  </g>
  <g target="26"
     id="#bf7f00ff">
    <path
       fill="#bf7f00"
       fill-opacity="0.00"
       d=" M 1160.15 112.98 C 1160.31 120.03 1160.35 130.72 1157.32 138.17 C 1158.05 129.75 1159.21 121.38 1160.15 112.98 Z"
       id="path15" />
    <path
       fill="#bf7f00"
       fill-opacity="0.00"
       d=" M 1176.31 118.91 C 1187.94 116.41 1181.66 132.46 1180.88 139.15 C 1168.60 144.73 1176.54 125.34 1176.31 118.91 Z"
       id="path17" />
    <path
       fill="#bf7f00"
       fill-opacity="0.00"
       d=" M 1190.00 122.08 C 1202.49 117.53 1219.55 125.43 1229.90 119.30 C 1236.88 126.82 1250.79 124.88 1260.79 127.78 C 1263.00 122.99 1287.17 123.58 1285.11 131.79 C 1279.52 130.65 1273.45 127.58 1268.14 131.12 C 1253.12 133.36 1238.91 124.32 1223.91 125.38 C 1221.09 131.29 1222.31 138.23 1220.03 144.35 C 1208.64 142.21 1196.05 142.95 1185.41 139.39 C 1192.01 142.01 1185.07 127.78 1187.38 128.45 C 1189.32 136.55 1189.27 125.50 1190.00 122.08 Z"
       id="path19" />
    <path
       fill="#bf7f00"
       fill-opacity="0.00"
       d=" M 1303.81 138.10 C 1305.11 136.01 1305.43 132.18 1307.61 131.30 C 1520.56 166.47 1728.13 236.57 1920.00 335.49 L 1920.00 378.62 C 1911.39 376.30 1904.64 370.38 1896.95 366.29 C 1882.66 358.03 1873.79 342.64 1855.82 341.35 C 1833.68 339.89 1824.48 314.99 1802.86 314.78 C 1785.04 305.59 1766.08 298.53 1745.70 299.40 C 1734.49 291.84 1721.88 286.76 1709.62 281.11 C 1714.92 276.17 1706.90 270.58 1701.91 270.38 C 1689.89 267.52 1677.90 264.02 1667.05 257.98 C 1657.72 242.02 1636.22 244.35 1624.41 231.80 C 1611.19 224.16 1596.34 220.51 1581.53 217.67 C 1568.80 210.35 1554.38 207.69 1540.55 203.41 C 1515.69 191.50 1485.85 187.88 1463.68 174.93 C 1440.98 166.01 1416.87 165.27 1393.56 158.99 C 1383.44 148.76 1365.92 148.91 1351.33 146.14 C 1351.90 145.35 1352.47 144.55 1353.04 143.73 C 1336.69 141.50 1318.54 136.30 1303.81 138.10 M 1390.27 154.27 C 1390.76 154.77 1390.76 154.77 1390.27 154.27 Z"
       id="path21" />
    <path
       fill="#bf7f00"
       fill-opacity="0.00"
       d=" M 1289.10 132.77 C 1293.46 133.55 1299.05 132.83 1301.85 137.05 C 1297.49 135.96 1292.76 135.61 1289.10 132.77 Z"
       id="path23" />
  </g>
  <g target="83"
     id="#000000ff">
    <path
       fill="#000000"
       fill-opacity="0.00"
       d=" M 1223.91 125.38 C 1238.91 124.32 1253.12 133.36 1268.14 131.12 C 1273.45 127.58 1279.52 130.65 1285.11 131.79 C 1286.42 132.11 1287.76 132.42 1289.10 132.77 C 1292.76 135.61 1297.49 135.96 1301.85 137.05 C 1302.34 137.31 1303.32 137.84 1303.81 138.10 C 1318.54 136.30 1336.69 141.50 1353.04 143.73 C 1352.47 144.55 1351.90 145.35 1351.33 146.14 C 1365.92 148.91 1383.44 148.76 1393.56 158.99 C 1416.87 165.27 1440.98 166.01 1463.68 174.93 C 1485.85 187.88 1515.69 191.50 1540.55 203.41 C 1554.38 207.69 1568.80 210.35 1581.53 217.67 C 1596.34 220.51 1611.19 224.16 1624.41 231.80 C 1636.22 244.35 1657.72 242.02 1667.05 257.98 C 1643.96 249.44 1619.49 248.13 1596.62 239.25 C 1595.05 240.87 1594.51 243.17 1595.07 245.34 C 1566.37 247.40 1540.68 230.31 1511.88 232.54 C 1503.37 231.03 1494.97 229.02 1486.32 228.15 C 1474.86 223.24 1461.12 230.51 1450.76 222.26 C 1432.26 217.18 1415.18 207.96 1395.74 206.95 C 1384.84 209.43 1365.04 213.27 1353.03 203.68 C 1327.79 200.44 1302.61 205.73 1278.10 199.32 C 1278.28 189.70 1260.88 187.03 1251.96 183.79 C 1257.47 184.40 1261.10 181.92 1261.28 176.46 C 1266.19 174.02 1272.10 174.18 1277.44 172.90 C 1276.30 167.70 1282.17 169.33 1284.92 166.98 C 1282.56 166.25 1277.72 167.09 1280.89 163.84 C 1273.63 161.39 1264.66 163.61 1258.79 157.87 C 1261.39 152.25 1247.27 154.83 1243.46 152.70 C 1235.82 149.69 1228.26 146.11 1219.78 146.00 C 1219.84 145.59 1219.97 144.77 1220.03 144.35 C 1222.31 138.23 1221.09 131.29 1223.91 125.38 M 1389.28 207.09 C 1389.42 210.41 1392.25 205.55 1389.28 207.09 M 1594.27 239.27 C 1594.76 239.77 1594.76 239.77 1594.27 239.27 M 1592.27 242.27 C 1592.76 242.77 1592.76 242.77 1592.27 242.27 Z"
       id="path26" />
    <path
       fill="#000000"
       fill-opacity="0.00"
       d=" M 1390.27 154.27 C 1390.76 154.77 1390.76 154.77 1390.27 154.27 Z"
       id="path28" />
    <path
       fill="#000000"
       fill-opacity="0.00"
       d=" M 1595.07 245.34 C 1595.42 249.32 1598.92 244.27 1595.07 245.34 Z"
       id="path30" />
  </g>
  <g target="80"
     id="#7fbf00ff">
    <path
       fill="#7fbf00"
       fill-opacity="0.00"
       d=" M 1137.80 139.96 C 1139.00 132.54 1151.24 138.35 1157.11 138.99 C 1177.54 144.40 1198.93 142.76 1219.78 146.00 C 1228.26 146.11 1235.82 149.69 1243.46 152.70 C 1247.27 154.83 1261.39 152.25 1258.79 157.87 C 1250.34 156.44 1242.56 159.74 1238.52 164.53 C 1223.11 172.01 1204.37 166.71 1187.44 167.51 C 1156.15 166.09 1124.73 165.58 1093.37 164.46 C 1068.05 160.43 1046.14 171.36 1020.98 173.61 C 1014.93 173.51 1008.85 172.98 1002.83 173.67 C 990.96 181.04 976.93 172.42 964.31 173.64 C 955.03 172.88 945.77 171.50 936.53 170.54 C 934.60 174.08 930.85 174.86 927.89 171.90 C 928.07 164.14 925.66 154.29 927.95 148.07 C 945.07 152.41 980.66 139.23 981.41 164.61 C 995.40 170.02 1005.13 155.40 1002.39 142.89 C 1010.67 137.92 1021.31 141.70 1030.16 142.74 C 1036.91 142.96 1027.73 156.40 1035.85 151.69 C 1056.51 149.63 1077.63 144.85 1098.37 146.71 C 1098.99 157.11 1099.88 148.99 1103.75 147.15 C 1100.92 154.40 1108.25 154.06 1106.46 146.96 C 1112.70 148.18 1115.92 151.63 1122.45 149.60 C 1132.54 153.95 1139.68 150.61 1137.80 139.96 M 1096.09 147.28 C 1094.54 150.26 1099.40 147.43 1096.09 147.28 M 1107.27 148.27 C 1107.76 148.77 1107.76 148.77 1107.27 148.27 Z"
       id="path33" />
  </g>
  <g target="53"
     id="#00bf00ff">
    <path
       fill="#00bf00"
       fill-opacity="0.00"
       d=" M 770.73 143.13 C 777.46 140.83 786.54 139.57 791.50 145.83 C 813.80 143.69 835.99 147.12 857.61 152.48 C 870.44 154.43 896.38 152.37 891.88 172.75 C 879.52 175.04 867.26 177.78 855.12 181.04 C 848.57 182.89 856.66 192.95 848.99 193.25 C 832.27 193.62 815.61 189.91 799.22 186.82 C 797.81 186.03 797.43 186.40 798.09 187.92 C 790.19 194.72 783.76 182.61 774.02 189.42 C 773.11 170.51 744.95 170.10 731.50 175.48 C 719.05 172.82 703.24 171.34 690.96 176.84 C 689.22 167.88 702.13 169.69 706.76 166.25 C 703.51 154.36 717.60 151.44 726.18 150.39 C 740.65 146.05 755.73 144.36 770.73 143.13 Z"
       id="path39" />
    <path
       fill="#00bf00"
       fill-opacity="0.00"
       d=" M 774.11 190.92 C 774.12 191.10 774.13 191.48 774.14 191.67 L 774.11 190.92 Z"
       id="path41" />
  </g>
  <g target="11"
     id="#00407fff">
    <path
       fill="#00407f"
       fill-opacity="0.00"
       d=" M 1238.52 164.53 C 1242.56 159.74 1250.34 156.44 1258.79 157.87 C 1264.66 163.61 1273.63 161.39 1280.89 163.84 C 1277.72 167.09 1282.56 166.25 1284.92 166.98 C 1282.17 169.33 1276.30 167.70 1277.44 172.90 C 1272.10 174.18 1266.19 174.02 1261.28 176.46 C 1261.10 181.92 1257.47 184.40 1251.96 183.79 C 1248.85 183.10 1242.37 186.68 1245.57 189.97 C 1238.87 196.45 1229.54 186.07 1224.05 193.45 C 1223.42 199.17 1231.44 202.92 1236.52 203.15 C 1231.25 208.59 1237.73 222.06 1246.75 221.88 C 1242.48 227.94 1255.50 225.32 1255.41 230.79 C 1255.17 232.99 1256.30 234.80 1257.70 236.39 C 1258.17 237.55 1258.65 238.71 1259.19 239.86 C 1241.24 251.45 1213.70 233.46 1197.07 246.67 C 1189.21 247.27 1180.11 247.37 1171.91 252.52 C 1160.49 249.28 1149.51 252.86 1138.19 252.25 C 1130.23 242.91 1114.20 253.82 1102.75 251.61 C 1100.43 262.40 1116.91 254.55 1117.74 263.23 L 1116.95 263.25 C 1109.53 258.39 1105.05 265.57 1099.66 269.52 C 1087.52 264.84 1070.07 271.81 1059.97 275.44 C 1066.57 281.84 1053.68 288.23 1054.92 279.65 C 1044.42 279.70 1038.23 272.62 1028.03 273.74 C 1024.85 269.93 1023.27 262.78 1029.34 261.22 L 1029.96 260.90 C 1030.70 261.95 1030.70 261.95 1029.96 260.90 C 1029.81 260.98 1029.49 261.14 1029.34 261.22 C 1025.18 259.00 1023.79 254.24 1020.78 250.91 C 1027.22 242.89 1041.11 251.19 1044.47 240.11 C 1046.21 235.19 1035.38 240.69 1035.05 235.97 C 1036.78 230.00 1041.90 225.36 1042.50 219.00 C 1033.26 218.57 1021.24 216.23 1013.96 222.75 C 1022.20 228.31 1005.35 225.37 1002.27 227.00 C 994.52 229.44 992.16 222.54 989.38 216.81 C 992.47 215.42 997.19 216.44 998.86 212.90 C 995.28 211.73 980.76 211.42 987.96 205.80 C 978.97 199.62 964.00 203.53 957.10 197.19 C 976.48 195.12 997.71 195.40 1015.95 196.02 C 1026.41 195.35 1036.79 190.29 1047.20 193.71 C 1051.82 196.00 1053.73 185.32 1047.17 188.80 C 1040.48 188.88 1035.57 182.15 1028.63 183.49 C 1022.65 185.17 1022.46 177.61 1020.98 173.61 C 1046.14 171.36 1068.05 160.43 1093.37 164.46 C 1124.73 165.58 1156.15 166.09 1187.44 167.51 C 1204.37 166.71 1223.11 172.01 1238.52 164.53 Z"
       id="path54" />
  </g>
  <g target="10"
     id="#7fbf7fff">
    <path
       fill="#7fbf7f"
       fill-opacity="0.00"
       d=" M 731.50 175.48 C 744.95 170.10 773.11 170.51 774.02 189.42 C 774.04 189.79 774.09 190.54 774.11 190.92 L 774.14 191.67 C 773.24 197.41 776.05 201.72 780.91 204.28 C 780.31 210.30 772.42 207.47 768.40 209.03 C 770.03 211.27 772.48 215.55 767.78 215.74 C 769.95 223.89 781.00 221.86 787.38 222.38 C 792.97 224.13 778.73 231.55 787.44 229.06 C 793.25 232.23 786.63 239.06 782.41 240.93 C 772.43 242.64 761.28 237.41 752.34 244.75 C 747.68 250.11 740.35 250.12 734.11 252.47 C 730.02 243.85 712.87 246.11 704.73 249.32 C 701.55 243.88 675.40 250.63 691.73 250.86 C 683.80 255.07 670.84 253.56 664.31 261.71 C 655.81 260.27 652.95 271.69 644.30 269.61 C 637.40 265.25 626.71 268.10 621.88 274.82 C 618.87 267.99 620.72 259.22 615.03 253.64 C 610.32 252.34 604.52 254.10 600.88 250.05 C 620.17 242.84 639.58 235.89 658.88 228.70 C 658.54 222.63 655.67 216.85 656.49 210.68 C 662.04 209.13 670.99 208.83 668.16 200.19 C 666.36 185.44 695.28 190.87 690.96 176.84 C 703.24 171.34 719.05 172.82 731.50 175.48 M 772.12 199.21 C 770.44 202.13 775.42 199.48 772.12 199.21 C 775.71 191.58 764.34 195.65 772.12 199.21 Z"
       id="path60" />
  </g>
  <g target="81"
     id="#7f0000ff">
    <path
       fill="#7f0000"
       fill-opacity="0.00"
       d=" M 1245.57 189.97 C 1242.37 186.68 1248.85 183.10 1251.96 183.79 C 1260.88 187.03 1278.28 189.70 1278.10 199.32 C 1302.61 205.73 1327.79 200.44 1353.03 203.68 C 1365.04 213.27 1384.84 209.43 1395.74 206.95 C 1415.18 207.96 1432.26 217.18 1450.76 222.26 C 1461.12 230.51 1474.86 223.24 1486.32 228.15 C 1494.97 229.02 1503.37 231.03 1511.88 232.54 C 1540.68 230.31 1566.37 247.40 1595.07 245.34 C 1595.42 249.32 1598.92 244.27 1595.07 245.34 C 1594.51 243.17 1595.05 240.87 1596.62 239.25 C 1619.49 248.13 1643.96 249.44 1667.05 257.98 C 1677.90 264.02 1689.89 267.52 1701.91 270.38 C 1706.90 270.58 1714.92 276.17 1709.62 281.11 C 1703.25 280.01 1682.68 273.13 1693.98 285.10 C 1666.45 278.31 1639.35 275.94 1611.17 272.98 C 1610.08 272.05 1610.08 272.05 1611.17 272.98 C 1618.49 281.74 1628.62 287.60 1637.90 293.95 C 1641.48 298.03 1631.96 293.51 1632.39 297.12 C 1630.76 304.41 1645.46 304.48 1639.16 311.87 C 1620.45 308.85 1600.39 310.02 1584.28 299.64 C 1564.25 296.40 1543.76 283.11 1521.98 283.97 C 1513.34 281.15 1504.75 281.72 1495.98 280.33 C 1505.17 282.91 1499.78 288.98 1492.20 286.94 C 1498.86 292.61 1489.99 296.17 1484.68 294.31 C 1481.90 301.56 1463.27 295.48 1474.60 303.60 C 1472.00 306.27 1463.71 305.84 1459.00 305.00 C 1448.82 301.86 1438.83 298.42 1430.49 291.63 C 1419.07 286.42 1405.67 288.78 1394.11 284.16 C 1381.68 270.20 1361.93 269.52 1347.64 258.34 C 1341.55 249.64 1329.71 250.65 1320.60 247.44 C 1299.92 240.47 1278.03 241.84 1257.70 236.39 C 1256.30 234.80 1255.17 232.99 1255.41 230.79 C 1255.50 225.32 1242.48 227.94 1246.75 221.88 C 1237.73 222.06 1231.25 208.59 1236.52 203.15 C 1231.44 202.92 1223.42 199.17 1224.05 193.45 C 1229.54 186.07 1238.87 196.45 1245.57 189.97 Z"
       id="path63" />
    <path
       fill="#7f0000"
       fill-opacity="0.00"
       d=" M 1592.27 242.27 C 1592.76 242.77 1592.76 242.77 1592.27 242.27 Z"
       id="path65" />
    <path
       fill="#7f0000"
       fill-opacity="0.00"
       d=" M 1617.27 277.27 C 1617.76 277.77 1617.76 277.77 1617.27 277.27 Z"
       id="path67" />
  </g>
  <g target="67"
     id="#7f7f00ff">
    <path
       fill="#7f7f00"
       fill-opacity="0.00"
       d=" M 1257.70 236.39 C 1278.03 241.84 1299.92 240.47 1320.60 247.44 C 1329.71 250.65 1341.55 249.64 1347.64 258.34 C 1361.93 269.52 1381.68 270.20 1394.11 284.16 C 1405.67 288.78 1419.07 286.42 1430.49 291.63 C 1438.83 298.42 1448.82 301.86 1459.00 305.00 C 1463.60 309.15 1468.30 313.46 1474.25 315.69 C 1469.45 322.58 1462.96 321.19 1455.53 323.05 C 1458.77 331.93 1468.25 337.00 1475.83 341.46 C 1481.67 340.36 1479.75 347.32 1474.65 345.48 C 1469.41 341.03 1455.49 343.39 1461.79 351.97 C 1448.45 351.05 1434.51 343.68 1422.17 350.32 C 1417.45 344.41 1409.95 354.87 1414.27 358.71 C 1405.17 356.50 1395.81 351.52 1385.97 352.99 C 1391.75 359.81 1377.36 356.10 1374.15 355.94 C 1361.09 355.81 1348.16 354.36 1335.35 351.76 C 1337.42 354.21 1336.41 356.35 1333.93 357.95 C 1331.02 361.72 1326.99 358.20 1323.54 357.38 C 1311.37 357.74 1296.79 361.00 1287.18 351.83 C 1286.36 345.00 1277.76 342.96 1277.41 337.60 C 1283.19 338.71 1291.65 337.68 1294.36 332.38 C 1289.12 329.56 1284.19 325.54 1286.60 318.90 C 1291.65 314.67 1298.69 325.66 1303.26 319.25 C 1309.22 313.40 1293.48 316.63 1295.02 310.17 C 1296.69 304.01 1306.79 307.92 1307.41 301.17 C 1305.70 295.13 1296.83 298.70 1294.83 293.06 C 1291.09 283.28 1276.72 287.53 1271.38 279.82 C 1269.00 273.71 1279.70 273.66 1277.38 267.93 C 1275.47 263.18 1278.12 255.10 1271.66 253.46 C 1264.66 251.69 1265.82 241.97 1259.19 239.86 C 1258.65 238.71 1258.17 237.55 1257.70 236.39 Z"
       id="path88" />
  </g>
  <g target="38"
     id="#00bf7fff">
    <path
       fill="#00bf7f"
       fill-opacity="0.00"
       d=" M 752.34 244.75 C 761.28 237.41 772.43 242.64 782.41 240.93 C 780.78 246.62 787.52 248.01 789.67 252.01 C 805.48 259.07 825.92 253.70 843.45 253.75 C 849.55 256.74 856.39 255.87 861.74 251.70 C 878.03 250.92 894.63 256.09 910.90 250.74 C 922.74 245.02 935.44 253.06 947.72 250.09 C 949.30 241.81 959.76 245.48 963.98 249.42 C 973.19 248.72 982.05 249.10 990.77 250.98 C 991.02 259.74 982.23 264.61 974.08 262.93 C 976.71 272.49 995.33 259.78 989.01 269.93 C 986.21 274.09 996.51 270.76 993.32 276.12 C 987.92 274.67 982.35 276.24 976.87 275.56 C 974.41 281.92 960.27 285.37 951.43 283.69 C 928.44 288.55 907.11 279.84 885.11 284.62 C 880.28 283.79 860.89 276.01 866.83 285.58 C 859.52 287.39 851.38 288.28 844.22 290.22 C 844.38 295.89 839.24 297.79 834.51 299.04 C 828.02 298.09 821.45 299.10 814.97 298.61 C 807.95 291.38 790.66 287.53 783.98 294.41 C 775.49 292.31 769.22 297.92 772.81 306.57 C 771.40 309.05 769.67 311.35 766.68 309.66 C 758.39 310.50 767.26 293.84 757.97 297.74 C 750.05 295.77 755.20 308.63 748.11 302.14 C 746.67 301.20 745.24 300.27 743.98 299.12 C 744.87 298.13 744.87 298.13 743.98 299.12 C 737.93 289.28 726.96 298.51 719.15 301.32 L 718.40 301.18 L 717.66 301.02 C 713.69 295.22 705.86 294.31 699.45 293.85 C 696.26 296.36 691.26 295.87 694.90 291.35 C 691.79 291.50 688.69 290.76 685.97 289.26 C 691.06 285.03 698.16 286.54 704.00 284.15 C 707.90 282.21 709.94 276.75 714.94 277.29 C 705.44 277.13 716.92 269.66 708.47 269.73 C 709.59 263.37 720.42 262.80 718.67 255.08 C 723.70 253.63 728.90 252.92 734.11 252.47 C 740.35 250.12 747.68 250.11 752.34 244.75 Z"
       id="path91" />
  </g>
  <g target="27"
     id="#bf7f40ff">
    <path
       fill="#bf7f40"
       fill-opacity="0.00"
       d=" M 1259.19 239.86 C 1265.82 241.97 1264.66 251.69 1271.66 253.46 C 1278.12 255.10 1275.47 263.18 1277.38 267.93 C 1279.70 273.66 1269.00 273.71 1271.38 279.82 C 1276.72 287.53 1291.09 283.28 1294.83 293.06 C 1296.83 298.70 1305.70 295.13 1307.41 301.17 C 1306.79 307.92 1296.69 304.01 1295.02 310.17 C 1293.48 316.63 1309.22 313.40 1303.26 319.25 C 1298.69 325.66 1291.65 314.67 1286.60 318.90 C 1284.19 325.54 1289.12 329.56 1294.36 332.38 C 1291.65 337.68 1283.19 338.71 1277.41 337.60 C 1277.76 342.96 1286.36 345.00 1287.18 351.83 C 1278.75 366.78 1266.99 346.90 1255.59 352.59 C 1249.09 355.91 1245.68 344.81 1238.99 347.91 C 1230.07 351.96 1219.32 350.47 1210.65 346.31 C 1207.84 345.11 1206.46 348.58 1205.09 350.33 C 1199.77 347.76 1194.19 340.59 1188.14 343.70 C 1179.59 338.27 1196.12 338.83 1195.56 332.09 C 1194.37 326.98 1186.71 328.21 1188.13 322.13 C 1178.95 324.65 1187.30 311.19 1178.88 310.76 C 1171.48 310.78 1173.03 301.79 1166.92 300.94 C 1164.47 294.52 1165.75 292.74 1162.36 287.10 C 1158.15 285.67 1150.14 287.69 1146.58 282.56 C 1145.61 277.15 1152.29 273.64 1151.83 268.29 C 1141.36 262.78 1128.79 267.49 1117.74 263.23 C 1116.91 254.55 1100.43 262.40 1102.75 251.61 C 1114.20 253.82 1130.23 242.91 1138.19 252.25 C 1149.51 252.86 1160.49 249.28 1171.91 252.52 C 1180.11 247.37 1189.21 247.27 1197.07 246.67 C 1213.70 233.46 1241.24 251.45 1259.19 239.86 M 1197.27 332.27 C 1197.76 332.77 1197.76 332.77 1197.27 332.27 Z"
       id="path94" />
  </g>
  <g target="49"
     id="#404000ff">
    <path
       fill="#404000"
       fill-opacity="0.00"
       d=" M 704.73 249.32 C 712.87 246.11 730.02 243.85 734.11 252.47 C 728.90 252.92 723.70 253.63 718.67 255.08 C 720.42 262.80 709.59 263.37 708.47 269.73 C 716.92 269.66 705.44 277.13 714.94 277.29 C 709.94 276.75 707.90 282.21 704.00 284.15 C 698.16 286.54 691.06 285.03 685.97 289.26 C 673.70 290.91 663.71 284.97 652.81 285.82 C 644.58 280.92 638.35 294.93 630.79 289.36 C 627.32 280.44 619.39 290.23 613.23 287.14 C 609.89 292.17 603.97 294.29 597.96 293.34 C 590.15 296.28 582.74 301.11 574.01 300.53 C 567.97 299.01 567.27 308.30 561.04 306.87 C 556.73 308.22 553.20 305.45 549.28 304.13 C 546.77 295.24 532.51 303.13 530.77 296.28 C 527.86 295.97 524.91 296.25 522.12 297.11 C 525.21 295.27 524.81 291.86 523.88 288.87 C 527.34 298.55 534.92 287.22 528.43 281.41 C 527.10 266.45 532.94 286.14 533.29 289.92 C 540.59 289.68 544.04 281.18 545.06 274.96 C 548.43 275.88 546.43 284.32 551.02 280.92 C 558.81 279.44 554.20 271.66 554.06 266.52 C 568.91 259.12 585.34 255.71 600.88 250.05 C 604.52 254.10 610.32 252.34 615.03 253.64 C 620.72 259.22 618.87 267.99 621.88 274.82 C 626.71 268.10 637.40 265.25 644.30 269.61 C 652.95 271.69 655.81 260.27 664.31 261.71 C 670.84 253.56 683.80 255.07 691.73 250.86 C 675.40 250.63 701.55 243.88 704.73 249.32 M 588.01 269.61 C 573.33 270.30 587.83 286.76 597.11 280.15 C 608.62 279.81 597.66 266.83 588.01 269.61 Z"
       id="path97" />
    <path
       fill="#404000"
       fill-opacity="0.00"
       d=" M 550.09 277.38 C 549.11 276.20 549.11 276.20 550.09 277.38 Z"
       id="path99" />
    <path
       fill="#404000"
       fill-opacity="0.00"
       d=" M 550.09 277.38 C 551.30 278.08 551.82 279.70 551.02 280.92 C 549.67 280.30 549.31 278.58 550.09 277.38 Z"
       id="path101" />
    <path
       fill="#404000"
       fill-opacity="0.00"
       d=" M 523.05 285.04 C 524.61 281.19 519.42 283.12 523.05 285.04 Z"
       id="path103" />
    <path
       fill="#404000"
       fill-opacity="0.00"
       d=" M 523.05 285.04 C 524.34 285.87 524.56 287.57 523.88 288.87 C 522.67 287.99 522.26 286.34 523.05 285.04 Z"
       id="path105" />
  </g>
  <g target="45"
     id="#4000bfff">
    <path
       fill="#4000bf"
       fill-opacity="0.00"
       d=" M 990.77 250.98 C 999.54 241.92 1011.06 252.67 1020.78 250.91 C 1023.79 254.24 1025.18 259.00 1029.34 261.22 C 1023.27 262.78 1024.85 269.93 1028.03 273.74 C 1038.23 272.62 1044.42 279.70 1054.92 279.65 C 1053.68 288.23 1066.57 281.84 1059.97 275.44 C 1070.07 271.81 1087.52 264.84 1099.66 269.52 C 1105.05 265.57 1109.53 258.39 1116.95 263.25 C 1117.15 263.24 1117.54 263.23 1117.74 263.23 C 1128.79 267.49 1141.36 262.78 1151.83 268.29 C 1152.29 273.64 1145.61 277.15 1146.58 282.56 C 1150.14 287.69 1158.15 285.67 1162.36 287.10 C 1165.75 292.74 1164.47 294.52 1166.92 300.94 C 1159.68 303.31 1153.81 300.59 1147.40 299.05 C 1139.56 307.60 1121.81 293.17 1116.17 306.06 C 1119.87 308.42 1125.60 312.75 1123.94 317.98 C 1119.99 324.67 1112.00 321.10 1106.41 324.46 C 1105.81 332.90 1129.81 338.19 1112.10 341.96 C 1109.43 349.08 1122.87 348.42 1123.08 355.31 C 1113.59 360.67 1107.68 349.41 1101.96 348.87 C 1094.85 350.19 1089.94 337.12 1083.28 342.82 C 1082.78 342.80 1081.78 342.75 1081.28 342.73 L 1081.30 342.05 C 1083.61 332.66 1070.13 340.28 1069.64 332.98 C 1064.54 329.79 1051.60 336.20 1053.78 325.43 C 1048.66 324.15 1050.37 330.30 1046.36 331.27 C 1026.09 325.62 1007.60 341.70 985.99 334.35 C 988.11 328.03 984.09 327.74 985.73 322.09 C 995.50 319.78 1008.16 323.44 1010.61 310.95 C 998.76 308.80 986.69 309.58 974.75 308.55 C 978.31 292.97 1000.49 294.36 1007.14 288.76 C 1002.21 284.31 992.40 282.43 993.32 276.12 C 996.51 270.76 986.21 274.09 989.01 269.93 C 995.33 259.78 976.71 272.49 974.08 262.93 C 982.23 264.61 991.02 259.74 990.77 250.98 Z"
       id="path108" />
    <path
       fill="#4000bf"
       fill-opacity="0.00"
       d=" M 1029.96 260.90 C 1030.70 261.95 1030.70 261.95 1029.96 260.90 Z"
       id="path110" />
    <path
       fill="#4000bf"
       fill-opacity="0.00"
       d=" M 1101.96 348.87 C 1102.92 349.71 1102.92 349.71 1101.96 348.87 Z"
       id="path112" />
  </g>
  <g target="78"
     id="#40bfbfff">
    <path
       fill="#40bfbf"
       fill-opacity="0.00"
       d=" M 588.01 269.61 C 597.66 266.83 608.62 279.81 597.11 280.15 C 587.83 286.76 573.33 270.30 588.01 269.61 M 583.27 275.27 C 583.77 275.77 583.77 275.77 583.27 275.27 Z"
       id="path126" />
  </g>
  <g target="71"
     id="#40007fff">
    <path
       fill="#40007f"
       fill-opacity="0.00"
       d=" M 1611.17 272.98 C 1639.35 275.94 1666.45 278.31 1693.98 285.10 C 1682.68 273.13 1703.25 280.01 1709.62 281.11 C 1721.88 286.76 1734.49 291.84 1745.70 299.40 C 1766.08 298.53 1785.04 305.59 1802.86 314.78 C 1824.48 314.99 1833.68 339.89 1855.82 341.35 C 1873.79 342.64 1882.66 358.03 1896.95 366.29 C 1899.63 372.94 1895.94 370.49 1891.17 371.03 C 1890.02 370.40 1890.02 370.40 1891.17 371.03 C 1886.50 372.20 1875.04 367.08 1880.78 375.37 C 1880.62 375.75 1880.29 376.51 1880.12 376.89 C 1878.44 378.57 1872.98 378.11 1874.94 381.22 C 1874.61 381.24 1873.96 381.28 1873.63 381.30 C 1866.02 379.38 1872.10 385.90 1874.16 388.92 C 1867.93 389.12 1864.98 383.42 1860.07 380.94 C 1850.94 378.04 1844.57 369.51 1835.26 367.67 C 1838.64 371.89 1832.18 370.11 1829.58 371.49 C 1820.51 376.14 1813.07 363.49 1803.76 366.54 C 1796.55 370.14 1789.55 363.29 1783.30 360.67 C 1757.75 349.06 1729.44 348.04 1702.01 345.00 C 1688.45 340.82 1676.42 333.25 1663.93 327.01 C 1653.42 327.02 1650.21 317.78 1642.92 313.81 C 1641.65 313.15 1640.40 312.50 1639.16 311.87 C 1645.46 304.48 1630.76 304.41 1632.39 297.12 C 1631.96 293.51 1641.48 298.03 1637.90 293.95 C 1628.62 287.60 1618.49 281.74 1611.17 272.98 M 1617.27 277.27 C 1617.76 277.77 1617.76 277.77 1617.27 277.27 M 1877.27 369.27 C 1877.75 369.77 1877.75 369.77 1877.27 369.27 Z"
       id="path132" />
    <path
       fill="#40007f"
       fill-opacity="0.00"
       d=" M 1880.78 375.37 C 1881.77 375.88 1881.77 375.88 1880.78 375.37 Z"
       id="path134" />
  </g>
  <g target="46"
     id="#607f7fff">
    <path
       fill="#607f7f"
       fill-opacity="0.00"
       d=" M 951.43 283.69 C 960.27 285.37 974.41 281.92 976.87 275.56 C 982.35 276.24 987.92 274.67 993.32 276.12 C 992.40 282.43 1002.21 284.31 1007.14 288.76 C 1000.49 294.36 978.31 292.97 974.75 308.55 C 968.47 308.90 961.08 308.34 956.07 311.72 C 947.98 310.41 933.64 302.95 933.06 314.78 C 924.90 319.59 913.27 325.30 902.43 322.65 C 898.20 320.38 893.33 321.43 889.02 322.83 C 890.26 319.88 889.44 318.12 886.42 320.18 C 888.96 326.54 878.91 325.11 877.00 323.79 C 882.61 314.71 870.52 318.73 864.94 319.91 C 858.66 322.11 852.88 316.43 846.58 317.22 C 847.83 323.89 840.02 323.78 835.51 324.02 C 827.92 326.53 819.85 327.94 811.82 327.45 C 810.36 321.96 816.09 321.01 819.89 319.76 C 819.91 314.89 824.93 309.47 829.76 307.90 C 830.83 308.68 830.83 308.68 829.76 307.90 C 833.91 304.59 843.08 303.73 834.51 299.04 C 839.24 297.79 844.38 295.89 844.22 290.22 C 851.38 288.28 859.52 287.39 866.83 285.58 C 860.89 276.01 880.28 283.79 885.11 284.62 C 907.11 279.84 928.44 288.55 951.43 283.69 Z"
       id="path142" />
    <path
       fill="#607f7f"
       fill-opacity="0.00"
       d=" M 933.06 314.78 C 933.65 315.58 933.65 315.58 933.06 314.78 Z"
       id="path144" />
  </g>
  <g target="73"
     id="#007f00ff">
    <path
       fill="#007f00"
       fill-opacity="0.00"
       d=" M 1495.98 280.33 C 1504.75 281.72 1513.34 281.15 1521.98 283.97 C 1543.76 283.11 1564.25 296.40 1584.28 299.64 C 1600.39 310.02 1620.45 308.85 1639.16 311.87 C 1640.40 312.50 1641.65 313.15 1642.92 313.81 C 1640.94 325.60 1627.77 321.72 1619.49 321.52 C 1614.88 328.14 1602.39 320.91 1593.99 321.28 C 1581.99 325.47 1575.88 311.92 1564.35 311.72 C 1562.99 311.17 1562.99 311.17 1564.35 311.72 C 1567.37 322.66 1577.05 328.70 1586.72 333.00 C 1580.30 338.18 1591.28 338.21 1594.77 339.91 C 1591.64 336.13 1596.10 336.74 1598.73 337.80 C 1606.81 342.90 1616.60 344.92 1624.56 350.27 C 1626.58 351.14 1624.65 352.93 1624.07 354.17 C 1617.92 352.46 1623.42 358.02 1619.14 359.14 C 1617.99 359.79 1617.99 359.79 1619.14 359.14 C 1621.38 360.45 1627.81 360.85 1624.20 364.16 C 1627.98 365.48 1637.55 373.60 1628.53 372.27 C 1622.99 374.54 1638.74 371.42 1633.67 374.84 C 1625.29 377.41 1646.11 378.55 1638.97 383.74 C 1644.84 392.13 1632.62 405.36 1630.38 416.08 C 1618.29 422.07 1603.15 411.49 1590.22 413.20 C 1592.90 404.49 1599.08 396.38 1600.31 387.58 C 1584.51 372.39 1560.91 375.68 1542.61 366.43 C 1527.13 364.64 1512.97 365.60 1497.97 356.51 C 1488.11 358.95 1481.58 351.03 1474.65 345.48 C 1479.75 347.32 1481.67 340.36 1475.83 341.46 C 1468.25 337.00 1458.77 331.93 1455.53 323.05 C 1462.96 321.19 1469.45 322.58 1474.25 315.69 C 1468.30 313.46 1463.60 309.15 1459.00 305.00 C 1463.71 305.84 1472.00 306.27 1474.60 303.60 C 1463.27 295.48 1481.90 301.56 1484.68 294.31 C 1489.99 296.17 1498.86 292.61 1492.20 286.94 C 1499.78 288.98 1505.17 282.91 1495.98 280.33 M 1618.27 354.27 C 1618.76 354.77 1618.76 354.77 1618.27 354.27 Z"
       id="path147" />
  </g>
  <g target="55"
     id="#bf4000ff">
    <path
       fill="#bf4000"
       fill-opacity="0.00"
       d=" M 630.79 289.36 C 638.35 294.93 644.58 280.92 652.81 285.82 C 663.71 284.97 673.70 290.91 685.97 289.26 C 688.69 290.76 691.79 291.50 694.90 291.35 C 691.26 295.87 696.26 296.36 699.45 293.85 C 705.86 294.31 713.69 295.22 717.66 301.02 C 707.40 304.84 695.51 300.76 686.51 307.56 C 681.37 310.00 674.48 306.66 670.56 311.73 C 661.43 309.93 651.56 307.86 642.86 312.79 C 647.22 319.70 628.58 319.74 625.02 326.69 C 602.06 327.23 581.44 343.22 558.21 340.36 C 547.01 342.21 556.62 335.59 559.54 333.22 C 549.69 332.72 555.46 327.66 561.65 325.94 C 556.32 323.34 563.78 322.20 564.96 319.01 C 559.75 318.25 551.87 319.56 550.05 312.98 C 551.51 308.75 559.06 311.54 561.04 306.87 C 567.27 308.30 567.97 299.01 574.01 300.53 C 582.74 301.11 590.15 296.28 597.96 293.34 C 603.97 294.29 609.89 292.17 613.23 287.14 C 619.39 290.23 627.32 280.44 630.79 289.36 Z"
       id="path150" />
    <path
       fill="#bf4000"
       fill-opacity="0.00"
       d=" M 718.40 301.18 L 719.15 301.32 C 718.96 301.29 718.58 301.21 718.40 301.18 Z"
       id="path152" />
  </g>
  <g target="76"
     id="#df7f7fff">
    <path
       fill="#df7f7f"
       fill-opacity="0.00"
       d=" M 783.98 294.41 C 790.66 287.53 807.95 291.38 814.97 298.61 C 821.45 299.10 828.02 298.09 834.51 299.04 C 843.08 303.73 833.91 304.59 829.76 307.90 C 824.93 309.47 819.91 314.89 819.89 319.76 C 816.09 321.01 810.36 321.96 811.82 327.45 C 803.57 329.57 787.18 331.05 779.44 340.56 C 777.78 342.48 776.57 344.72 775.03 346.72 C 767.26 341.64 756.24 350.56 751.23 342.56 C 750.12 341.78 748.95 341.11 747.80 340.43 C 744.05 335.37 754.08 336.50 751.18 332.24 C 748.54 328.92 756.29 329.95 755.62 326.54 C 752.02 327.33 745.75 329.28 744.88 323.97 C 747.05 317.72 732.02 318.23 738.28 312.49 C 749.28 312.14 736.36 303.57 748.11 302.14 C 755.20 308.63 750.05 295.77 757.97 297.74 C 767.26 293.84 758.39 310.50 766.68 309.66 C 769.67 311.35 771.40 309.05 772.81 306.57 C 773.57 307.72 773.57 307.72 772.81 306.57 C 769.22 297.92 775.49 292.31 783.98 294.41 Z"
       id="path155" />
  </g>
  <g target="70"
     id="#204000ff">
    <path
       fill="#204000"
       fill-opacity="0.00"
       d=" M 719.15 301.32 C 726.96 298.51 737.93 289.28 743.98 299.12 C 745.24 300.27 746.67 301.20 748.11 302.14 C 736.36 303.57 749.28 312.14 738.28 312.49 C 732.02 318.23 747.05 317.72 744.88 323.97 C 745.75 329.28 752.02 327.33 755.62 326.54 C 756.29 329.95 748.54 328.92 751.18 332.24 C 754.08 336.50 744.05 335.37 747.80 340.43 C 742.54 343.98 738.22 334.16 732.11 337.99 C 726.53 344.10 716.41 338.05 713.46 347.05 C 700.89 344.53 689.06 354.24 676.32 351.94 C 666.82 345.02 662.36 361.32 651.14 363.04 C 640.27 366.32 630.40 360.88 619.53 361.42 C 608.24 370.24 592.85 372.86 578.13 373.06 C 577.97 368.15 568.23 375.68 565.00 370.74 C 559.69 370.73 553.86 371.58 548.35 369.73 C 549.02 363.36 558.09 362.10 558.75 356.27 C 551.46 351.57 546.90 345.12 558.21 340.36 C 581.44 343.22 602.06 327.23 625.02 326.69 C 628.58 319.74 647.22 319.70 642.86 312.79 C 651.56 307.86 661.43 309.93 670.56 311.73 C 674.48 306.66 681.37 310.00 686.51 307.56 C 695.51 300.76 707.40 304.84 717.66 301.02 L 718.40 301.18 C 718.58 301.21 718.96 301.29 719.15 301.32 M 560.27 355.27 C 560.77 355.77 560.77 355.77 560.27 355.27 Z"
       id="path158" />
    <path
       fill="#204000"
       fill-opacity="0.00"
       d=" M 578.13 373.06 C 577.15 373.83 577.15 373.83 578.13 373.06 Z"
       id="path160" />
  </g>
  <g target="61"
     id="#40bf00ff">
    <path
       fill="#40bf00"
       fill-opacity="0.00"
       d=" M 522.12 297.11 C 524.91 296.25 527.86 295.97 530.77 296.28 C 532.51 303.13 546.77 295.24 549.28 304.13 C 553.20 305.45 556.73 308.22 561.04 306.87 C 559.06 311.54 551.51 308.75 550.05 312.98 C 551.87 319.56 559.75 318.25 564.96 319.01 C 563.78 322.20 556.32 323.34 561.65 325.94 C 555.46 327.66 549.69 332.72 559.54 333.22 C 556.62 335.59 547.01 342.21 558.21 340.36 C 546.90 345.12 551.46 351.57 558.75 356.27 C 558.09 362.10 549.02 363.36 548.35 369.73 C 536.61 367.22 530.39 376.02 523.49 381.86 C 529.40 391.99 508.02 389.91 512.22 399.00 C 509.63 400.25 507.00 401.52 504.14 401.98 C 504.21 389.32 488.99 395.89 482.06 391.92 C 479.05 381.67 474.82 371.63 472.22 361.40 C 476.78 358.68 479.31 353.75 476.12 348.86 C 471.21 340.95 487.91 340.71 484.00 333.01 C 480.72 323.55 494.76 322.31 500.73 319.79 C 501.47 307.66 516.98 308.73 521.20 298.10 C 521.43 297.86 521.89 297.36 522.12 297.11 M 548.27 314.27 C 548.77 314.77 548.77 314.77 548.27 314.27 Z"
       id="path163" />
    <path
       fill="#40bf00"
       fill-opacity="0.00"
       d=" M 560.27 355.27 C 560.77 355.77 560.77 355.77 560.27 355.27 Z"
       id="path165" />
  </g>
  <g target="18"
     id="#400040ff">
    <path
       fill="#400040"
       fill-opacity="0.00"
       d=" M 1116.17 306.06 C 1121.81 293.17 1139.56 307.60 1147.40 299.05 C 1153.81 300.59 1159.68 303.31 1166.92 300.94 C 1173.03 301.79 1171.48 310.78 1178.88 310.76 C 1187.30 311.19 1178.95 324.65 1188.13 322.13 C 1186.71 328.21 1194.37 326.98 1195.56 332.09 C 1196.12 338.83 1179.59 338.27 1188.14 343.70 C 1194.19 340.59 1199.77 347.76 1205.09 350.33 C 1201.74 355.29 1194.52 355.60 1191.32 360.75 C 1186.49 361.28 1171.74 365.37 1180.27 357.44 C 1189.05 355.90 1172.68 347.78 1176.34 354.52 C 1177.83 358.93 1170.47 354.59 1168.29 353.82 C 1163.07 352.98 1167.96 341.52 1163.09 347.14 C 1162.29 346.16 1162.29 346.16 1163.09 347.14 C 1161.75 351.36 1154.83 348.28 1154.18 352.72 C 1156.76 353.27 1166.50 354.53 1159.87 356.20 C 1160.30 363.55 1140.19 351.52 1147.40 361.50 C 1141.36 360.35 1131.20 360.18 1123.32 360.93 C 1123.50 357.26 1130.54 354.33 1123.08 355.31 C 1122.87 348.42 1109.43 349.08 1112.10 341.96 C 1129.81 338.19 1105.81 332.90 1106.41 324.46 C 1112.00 321.10 1119.99 324.67 1123.94 317.98 C 1125.60 312.75 1119.87 308.42 1116.17 306.06 Z"
       id="path171" />
    <path
       fill="#400040"
       fill-opacity="0.00"
       d=" M 1197.27 332.27 C 1197.76 332.77 1197.76 332.77 1197.27 332.27 Z"
       id="path173" />
  </g>
  <g target="54"
     id="#bf00bfff">
    <path
       fill="#bf00bf"
       fill-opacity="0.00"
       d=" M 933.06 314.78 C 933.64 302.95 947.98 310.41 956.07 311.72 C 961.08 308.34 968.47 308.90 974.75 308.55 C 986.69 309.58 998.76 308.80 1010.61 310.95 C 1008.16 323.44 995.50 319.78 985.73 322.09 C 984.09 327.74 988.11 328.03 985.99 334.35 C 979.03 335.33 960.69 332.01 962.05 341.97 C 958.95 342.51 954.07 342.41 953.98 346.67 C 957.06 348.18 960.88 346.94 963.78 348.94 C 957.13 353.76 968.65 352.93 969.13 358.17 C 967.34 361.47 967.03 365.27 963.19 367.16 C 964.30 373.34 974.55 369.36 977.16 374.53 C 972.63 375.29 962.50 379.44 966.84 385.27 C 962.02 386.29 953.92 389.35 956.67 381.57 C 952.31 381.23 943.93 383.31 946.95 389.22 C 940.53 389.60 928.17 396.06 938.04 400.85 C 932.74 400.98 927.35 399.37 922.17 401.09 C 921.99 397.09 906.68 401.64 905.74 393.49 C 894.46 395.57 887.03 381.71 875.22 392.09 C 868.84 391.79 861.37 392.87 854.79 391.39 L 854.15 391.18 C 860.80 380.66 842.42 393.07 841.68 384.54 C 839.51 384.99 835.94 386.86 835.84 383.21 C 840.08 379.00 848.99 377.42 846.97 370.77 C 856.53 364.12 866.33 360.42 874.82 354.27 C 872.73 353.70 868.60 352.68 867.51 348.88 C 869.39 345.19 876.30 350.25 875.95 345.08 C 867.05 331.83 900.47 342.58 898.89 332.20 C 888.32 328.09 907.49 328.21 902.43 322.65 C 913.27 325.30 924.90 319.59 933.06 314.78 C 933.65 315.58 933.65 315.58 933.06 314.78 M 905.27 325.27 C 905.76 325.77 905.76 325.77 905.27 325.27 Z"
       id="path179" />
    <path
       fill="#bf00bf"
       fill-opacity="0.00"
       d=" M 962.05 341.97 C 962.86 343.07 962.86 343.07 962.05 341.97 Z"
       id="path181" />
  </g>
  <g target="57"
     id="#7f4000ff">
    <path
       fill="#7f4000"
       fill-opacity="0.00"
       d=" M 1564.35 311.72 C 1562.99 311.17 1562.99 311.17 1564.35 311.72 Z"
       id="path184" />
    <path
       fill="#7f4000"
       fill-opacity="0.00"
       d=" M 1564.35 311.72 C 1575.88 311.92 1581.99 325.47 1593.99 321.28 C 1602.39 320.91 1614.88 328.14 1619.49 321.52 C 1627.77 321.72 1640.94 325.60 1642.92 313.81 C 1650.21 317.78 1653.42 327.02 1663.93 327.01 C 1676.42 333.25 1688.45 340.82 1702.01 345.00 C 1706.49 351.43 1721.24 352.32 1717.54 361.99 C 1723.56 363.14 1730.35 365.98 1735.18 370.71 C 1732.05 369.03 1728.87 370.62 1725.75 371.38 C 1723.05 374.17 1732.82 379.48 1727.11 380.14 C 1726.24 379.15 1726.24 379.15 1727.11 380.14 C 1742.52 389.67 1756.08 401.63 1773.57 407.50 C 1776.99 415.23 1788.59 417.79 1787.72 427.55 C 1783.41 432.29 1782.72 438.47 1780.32 444.11 C 1774.52 450.95 1772.08 459.91 1766.49 466.91 C 1760.04 465.92 1751.61 459.37 1746.39 466.57 C 1739.15 467.75 1731.36 458.45 1735.22 451.34 C 1729.40 454.93 1723.15 451.26 1717.52 450.58 C 1708.08 459.30 1700.58 442.21 1690.20 445.74 C 1680.76 451.02 1668.45 446.48 1664.48 436.54 C 1654.03 428.77 1643.55 418.27 1630.38 416.08 C 1632.62 405.36 1644.84 392.13 1638.97 383.74 C 1646.11 378.55 1625.29 377.41 1633.67 374.84 C 1638.74 371.42 1622.99 374.54 1628.53 372.27 C 1637.55 373.60 1627.98 365.48 1624.20 364.16 C 1627.81 360.85 1621.38 360.45 1619.14 359.14 C 1623.42 358.02 1617.92 352.46 1624.07 354.17 C 1625.05 354.93 1625.05 354.93 1624.07 354.17 C 1624.65 352.93 1626.58 351.14 1624.56 350.27 C 1616.60 344.92 1606.81 342.90 1598.73 337.80 C 1596.10 336.74 1591.64 336.13 1594.77 339.91 C 1591.28 338.21 1580.30 338.18 1586.72 333.00 C 1577.05 328.70 1567.37 322.66 1564.35 311.72 Z"
       id="path186" />
  </g>
  <g target="40"
     id="#df007fff">
    <path
       fill="#df007f"
       fill-opacity="0.00"
       d=" M 846.58 317.22 C 852.88 316.43 858.66 322.11 864.94 319.91 C 870.52 318.73 882.61 314.71 877.00 323.79 C 878.91 325.11 888.96 326.54 886.42 320.18 C 889.44 318.12 890.26 319.88 889.02 322.83 C 893.33 321.43 898.20 320.38 902.43 322.65 C 907.49 328.21 888.32 328.09 898.89 332.20 C 900.47 342.58 867.05 331.83 875.95 345.08 C 876.30 350.25 869.39 345.19 867.51 348.88 C 860.46 342.95 849.46 355.84 846.60 347.08 C 830.53 351.49 814.95 340.85 799.75 348.22 C 794.72 350.80 789.33 344.27 792.37 339.65 C 788.01 339.19 783.76 340.30 779.44 340.56 C 787.18 331.05 803.57 329.57 811.82 327.45 C 819.85 327.94 827.92 326.53 835.51 324.02 C 840.02 323.78 847.83 323.89 846.58 317.22 Z"
       id="path192" />
  </g>
  <g target="12"
     id="#bf0040ff">
    <path
       fill="#bf0040"
       fill-opacity="0.00"
       d=" M 1046.36 331.27 C 1050.37 330.30 1048.66 324.15 1053.78 325.43 C 1051.60 336.20 1064.54 329.79 1069.64 332.98 C 1070.13 340.28 1083.61 332.66 1081.30 342.05 C 1081.29 342.22 1081.28 342.56 1081.28 342.73 C 1081.78 342.75 1082.78 342.80 1083.28 342.82 C 1085.85 346.75 1076.21 346.78 1073.17 347.99 C 1076.66 340.34 1066.38 348.37 1062.60 347.71 C 1059.40 352.19 1052.76 345.56 1049.43 350.21 C 1055.40 357.58 1037.76 355.80 1034.77 363.12 C 1025.10 362.23 1018.85 353.32 1008.76 354.62 C 1002.11 345.62 991.89 353.76 983.76 355.29 C 978.63 354.84 973.84 356.43 969.13 358.17 C 968.65 352.93 957.13 353.76 963.78 348.94 C 960.88 346.94 957.06 348.18 953.98 346.67 C 954.07 342.41 958.95 342.51 962.05 341.97 C 962.86 343.07 962.86 343.07 962.05 341.97 C 960.69 332.01 979.03 335.33 985.99 334.35 C 1007.60 341.70 1026.09 325.62 1046.36 331.27 Z"
       id="path198" />
  </g>
  <g target="52"
     id="#9f0000ff">
    <path
       fill="#9f0000"
       fill-opacity="0.00"
       d=" M 732.11 337.99 C 738.22 334.16 742.54 343.98 747.80 340.43 C 748.95 341.11 750.12 341.78 751.23 342.56 C 745.22 347.20 749.07 355.53 751.10 361.20 C 761.53 359.77 769.95 370.33 779.99 364.86 C 787.59 362.08 789.90 372.97 790.41 378.14 C 785.56 381.53 779.53 381.09 774.20 383.17 C 777.71 383.49 778.69 386.76 774.69 387.29 C 764.20 384.25 760.20 398.28 750.27 398.21 C 746.18 398.40 739.89 397.53 740.39 403.60 C 751.46 403.88 736.06 405.03 734.00 409.75 C 732.40 408.92 730.82 408.05 729.25 407.21 C 725.29 402.43 735.90 397.56 727.88 397.53 C 721.49 399.73 719.18 388.43 713.48 393.70 C 707.89 399.82 703.12 389.11 696.99 393.23 C 697.20 390.24 696.79 387.09 696.14 384.12 C 701.05 379.61 710.47 383.76 712.66 376.64 C 715.09 369.94 727.32 373.36 727.37 364.90 C 723.31 362.15 717.12 363.42 713.75 363.07 C 714.08 371.62 703.82 368.41 701.42 374.99 C 699.40 377.43 695.64 373.07 693.07 374.53 C 692.07 377.65 697.55 379.07 693.98 381.56 C 688.57 385.05 684.25 377.31 678.93 380.69 C 669.37 387.36 658.24 378.30 647.95 383.06 C 644.01 377.09 659.50 369.86 651.14 363.04 C 662.36 361.32 666.82 345.02 676.32 351.94 C 689.06 354.24 700.89 344.53 713.46 347.05 C 716.41 338.05 726.53 344.10 732.11 337.99 M 709.03 360.33 C 706.73 364.17 715.30 360.47 709.03 360.33 M 716.28 361.09 C 716.43 364.41 719.26 359.54 716.28 361.09 M 701.14 367.38 C 700.35 371.36 705.12 366.65 701.14 367.38 M 728.27 368.27 C 728.77 368.77 728.77 368.77 728.27 368.27 Z"
       id="path201" />
    <path
       fill="#9f0000"
       fill-opacity="0.00"
       d=" M 729.25 407.21 C 728.31 406.35 728.31 406.35 729.25 407.21 Z"
       id="path203" />
  </g>
  <g target="40"
     id="#60007fff">
    <path
       fill="#60007f"
       fill-opacity="0.00"
       d=" M 779.44 340.56 C 783.76 340.30 788.01 339.19 792.37 339.65 C 789.33 344.27 794.72 350.80 799.75 348.22 C 814.95 340.85 830.53 351.49 846.60 347.08 C 849.46 355.84 860.46 342.95 867.51 348.88 C 868.60 352.68 872.73 353.70 874.82 354.27 C 866.33 360.42 856.53 364.12 846.97 370.77 C 848.99 377.42 840.08 379.00 835.84 383.21 C 819.29 380.37 804.02 382.78 790.41 378.14 C 789.90 372.97 787.59 362.08 779.99 364.86 C 769.95 370.33 761.53 359.77 751.10 361.20 C 749.07 355.53 745.22 347.20 751.23 342.56 C 756.24 350.56 767.26 341.64 775.03 346.72 C 776.57 344.72 777.78 342.48 779.44 340.56 M 789.27 343.27 C 789.77 343.77 789.77 343.77 789.27 343.27 Z"
       id="path206" />
  </g>
  <g target="16"
     id="#7f7fbfff">
    <path
       fill="#7f7fbf"
       fill-opacity="0.00"
       d=" M 1083.28 342.82 C 1089.94 337.12 1094.85 350.19 1101.96 348.87 C 1102.92 349.71 1102.92 349.71 1101.96 348.87 C 1107.68 349.41 1113.59 360.67 1123.08 355.31 C 1130.54 354.33 1123.50 357.26 1123.32 360.93 C 1131.20 360.18 1141.36 360.35 1147.40 361.50 C 1140.19 351.52 1160.30 363.55 1159.87 356.20 C 1166.50 354.53 1156.76 353.27 1154.18 352.72 C 1154.83 348.28 1161.75 351.36 1163.09 347.14 C 1167.96 341.52 1163.07 352.98 1168.29 353.82 C 1170.47 354.59 1177.83 358.93 1176.34 354.52 C 1172.68 347.78 1189.05 355.90 1180.27 357.44 C 1171.74 365.37 1186.49 361.28 1191.32 360.75 C 1196.59 361.66 1201.26 364.46 1205.92 366.95 C 1201.10 376.45 1191.47 381.44 1181.04 382.19 C 1184.73 386.84 1192.51 387.76 1198.28 388.81 C 1197.06 397.99 1192.71 406.51 1198.03 414.41 C 1193.07 413.31 1177.87 410.81 1186.64 407.70 C 1182.42 405.55 1174.18 405.61 1168.29 404.04 C 1164.02 400.07 1158.78 403.42 1154.28 404.85 C 1147.32 399.19 1137.50 397.20 1129.78 396.39 C 1130.62 395.45 1130.62 395.45 1129.78 396.39 C 1124.53 394.03 1118.24 398.80 1119.55 404.63 C 1108.77 402.00 1102.22 404.78 1092.18 399.85 C 1084.49 399.33 1075.78 398.67 1070.44 392.31 C 1062.46 384.50 1053.07 393.05 1052.50 401.88 C 1043.46 398.56 1041.73 420.54 1041.34 405.89 C 1046.20 394.04 1028.02 388.43 1022.00 396.97 C 1017.66 386.37 1008.82 407.62 1004.03 394.20 C 1006.93 393.90 1007.83 391.69 1008.41 389.19 C 1016.88 394.14 1031.70 382.06 1022.13 376.20 C 1021.24 378.99 1014.85 382.27 1015.47 377.51 C 1019.69 375.65 1023.28 372.63 1027.59 370.95 C 1018.36 365.31 1041.64 367.37 1034.77 363.12 C 1037.76 355.80 1055.40 357.58 1049.43 350.21 C 1052.76 345.56 1059.40 352.19 1062.60 347.71 C 1066.38 348.37 1076.66 340.34 1073.17 347.99 C 1076.21 346.78 1085.85 346.75 1083.28 342.82 M 1026.00 386.00 C 1025.46 386.53 1025.46 386.53 1026.00 386.00 C 1026.52 385.46 1026.52 385.46 1026.00 386.00 M 1028.27 385.27 C 1028.76 385.77 1028.76 385.77 1028.27 385.27 Z"
       id="path209" />
    <path
       fill="#7f7fbf"
       fill-opacity="0.00"
       d=" M 1163.09 347.14 C 1162.29 346.16 1162.29 346.16 1163.09 347.14 Z"
       id="path211" />
  </g>
  <g target="47"
     id="#00007fff">
    <path
       fill="#00007f"
       fill-opacity="0.00"
       d=" M 1461.79 351.97 C 1455.49 343.39 1469.41 341.03 1474.65 345.48 C 1481.58 351.03 1488.11 358.95 1497.97 356.51 C 1512.97 365.60 1527.13 364.64 1542.61 366.43 C 1560.91 375.68 1584.51 372.39 1600.31 387.58 C 1599.08 396.38 1592.90 404.49 1590.22 413.20 C 1588.17 416.26 1586.38 419.48 1584.34 422.54 C 1566.11 427.61 1547.21 429.77 1528.45 431.77 C 1526.32 435.27 1525.62 441.75 1519.47 438.41 C 1505.93 437.00 1493.08 441.42 1479.76 442.66 C 1482.47 432.29 1487.72 422.61 1489.75 412.18 C 1487.29 408.88 1474.45 409.81 1479.92 403.10 C 1474.43 395.33 1461.05 399.60 1451.98 397.83 C 1445.27 402.46 1426.69 384.37 1440.85 388.98 C 1440.84 383.60 1425.94 382.39 1434.73 380.30 C 1425.03 375.49 1447.64 379.50 1438.53 375.08 C 1434.65 366.25 1421.39 365.02 1414.27 358.71 C 1409.95 354.87 1417.45 344.41 1422.17 350.32 C 1434.51 343.68 1448.45 351.05 1461.79 351.97 Z"
       id="path220" />
  </g>
  <g target="56"
     id="#004000ff">
    <path
       fill="#004000"
       fill-opacity="0.00"
       d=" M 1702.01 345.00 C 1729.44 348.04 1757.75 349.06 1783.30 360.67 C 1789.55 363.29 1796.55 370.14 1803.76 366.54 C 1813.07 363.49 1820.51 376.14 1829.58 371.49 C 1832.18 370.11 1838.64 371.89 1835.26 367.67 C 1844.57 369.51 1850.94 378.04 1860.07 380.94 C 1858.99 381.76 1858.99 381.76 1860.07 380.94 C 1864.98 383.42 1867.93 389.12 1874.16 388.92 C 1872.10 385.90 1866.02 379.38 1873.63 381.30 C 1873.96 381.28 1874.61 381.24 1874.94 381.22 C 1889.92 390.52 1906.45 397.31 1920.00 408.74 L 1920.00 438.09 C 1906.40 433.02 1892.42 422.94 1877.71 423.26 C 1879.35 429.31 1871.45 425.79 1875.95 431.65 C 1875.99 440.69 1858.72 430.59 1863.68 440.17 C 1859.91 443.67 1855.91 436.06 1851.94 439.02 C 1867.36 448.57 1842.50 462.19 1841.64 473.15 C 1823.30 465.05 1803.02 460.00 1786.31 448.96 C 1789.86 443.19 1785.21 442.48 1780.32 444.11 C 1782.72 438.47 1783.41 432.29 1787.72 427.55 C 1788.59 417.79 1776.99 415.23 1773.57 407.50 C 1756.08 401.63 1742.52 389.67 1727.11 380.14 C 1732.82 379.48 1723.05 374.17 1725.75 371.38 C 1728.87 370.62 1732.05 369.03 1735.18 370.71 C 1730.35 365.98 1723.56 363.14 1717.54 361.99 C 1721.24 352.32 1706.49 351.43 1702.01 345.00 M 1876.38 419.31 C 1877.76 423.89 1881.77 418.11 1876.38 419.31 Z"
       id="path223" />
    <path
       fill="#004000"
       fill-opacity="0.00"
       d=" M 1727.11 380.14 C 1726.24 379.15 1726.24 379.15 1727.11 380.14 Z"
       id="path225" />
    <path
       fill="#004000"
       fill-opacity="0.00"
       d=" M 1875.95 431.65 C 1876.49 432.80 1876.49 432.80 1875.95 431.65 Z"
       id="path227" />
  </g>
  <g target="3"
     id="#407f40ff">
    <path
       fill="#407f40"
       fill-opacity="0.00"
       d=" M 1205.09 350.33 C 1206.46 348.58 1207.84 345.11 1210.65 346.31 C 1219.32 350.47 1230.07 351.96 1238.99 347.91 C 1245.68 344.81 1249.09 355.91 1255.59 352.59 C 1266.99 346.90 1278.75 366.78 1287.18 351.83 C 1296.79 361.00 1311.37 357.74 1323.54 357.38 C 1326.99 358.20 1331.02 361.72 1333.93 357.95 C 1337.02 357.27 1340.20 357.09 1343.37 357.24 C 1339.02 368.18 1353.45 370.60 1360.85 372.95 C 1358.85 378.17 1349.14 372.57 1350.05 379.87 C 1340.84 376.02 1336.48 384.63 1346.93 385.97 C 1342.25 396.83 1327.71 373.57 1325.86 388.69 C 1323.81 377.87 1303.64 374.42 1297.38 384.52 C 1304.76 386.44 1300.50 392.77 1307.98 393.96 C 1317.63 394.90 1324.44 402.86 1333.73 404.62 C 1338.28 400.50 1344.74 399.21 1350.01 402.79 C 1355.95 397.00 1365.75 401.65 1370.01 394.00 C 1373.19 388.69 1385.87 392.83 1381.97 399.82 C 1376.53 404.99 1394.67 413.02 1382.32 411.74 C 1374.19 408.18 1375.48 416.23 1369.71 418.79 C 1369.82 429.41 1375.71 438.30 1382.68 445.24 C 1381.79 452.69 1384.88 459.73 1390.88 464.10 C 1393.26 466.65 1397.65 471.46 1390.21 471.25 C 1390.34 476.07 1397.67 479.05 1394.76 485.37 C 1385.71 496.63 1367.55 476.02 1362.53 490.25 C 1356.88 485.53 1357.80 495.75 1351.47 493.83 C 1348.46 491.47 1345.29 489.24 1341.30 488.86 C 1338.23 486.09 1338.55 491.86 1341.30 488.86 C 1342.93 499.75 1336.15 488.04 1332.25 485.54 C 1331.01 478.88 1323.51 473.58 1317.58 472.77 C 1312.66 477.88 1308.73 471.77 1315.50 469.47 C 1313.70 461.21 1298.64 450.67 1296.01 465.07 C 1290.00 469.74 1282.06 464.04 1278.60 458.36 C 1276.42 457.80 1266.87 455.96 1273.31 455.54 C 1277.20 456.51 1273.75 452.69 1272.27 451.72 C 1263.56 453.35 1258.77 444.55 1253.48 439.37 C 1233.39 436.68 1214.49 426.52 1198.03 414.41 C 1192.71 406.51 1197.06 397.99 1198.28 388.81 C 1192.51 387.76 1184.73 386.84 1181.04 382.19 C 1191.47 381.44 1201.10 376.45 1205.92 366.95 C 1201.26 364.46 1196.59 361.66 1191.32 360.75 C 1194.52 355.60 1201.74 355.29 1205.09 350.33 Z"
       id="path230" />
  </g>
  <g target="21"
     id="#007fbfff">
    <path
       fill="#007fbf"
       fill-opacity="0.00"
       d=" M 983.76 355.29 C 991.89 353.76 1002.11 345.62 1008.76 354.62 C 1018.85 353.32 1025.10 362.23 1034.77 363.12 C 1041.64 367.37 1018.36 365.31 1027.59 370.95 C 1023.28 372.63 1019.69 375.65 1015.47 377.51 C 1014.85 382.27 1021.24 378.99 1022.13 376.20 C 1031.70 382.06 1016.88 394.14 1008.41 389.19 C 1007.83 391.69 1006.93 393.90 1004.03 394.20 C 995.42 394.68 987.40 398.31 978.89 393.09 C 978.69 392.82 978.27 392.28 978.06 392.01 C 974.06 388.15 973.32 382.55 966.84 385.27 C 962.50 379.44 972.63 375.29 977.16 374.53 C 974.55 369.36 964.30 373.34 963.19 367.16 C 967.03 365.27 967.34 361.47 969.13 358.17 C 973.84 356.43 978.63 354.84 983.76 355.29 Z"
       id="path233" />
    <path
       fill="#007fbf"
       fill-opacity="0.00"
       d=" M 1028.27 385.27 C 1028.76 385.77 1028.76 385.77 1028.27 385.27 Z"
       id="path235" />
    <path
       fill="#007fbf"
       fill-opacity="0.00"
       d=" M 1026.00 386.00 C 1025.46 386.53 1025.46 386.53 1026.00 386.00 Z"
       id="path237" />
  </g>
  <g target="75"
     id="#7f007fff">
    <path
       fill="#7f007f"
       fill-opacity="0.00"
       d=" M 1335.35 351.76 C 1348.16 354.36 1361.09 355.81 1374.15 355.94 C 1377.36 356.10 1391.75 359.81 1385.97 352.99 C 1395.81 351.52 1405.17 356.50 1414.27 358.71 C 1421.39 365.02 1434.65 366.25 1438.53 375.08 C 1447.64 379.50 1425.03 375.49 1434.73 380.30 C 1425.94 382.39 1440.84 383.60 1440.85 388.98 C 1426.69 384.37 1445.27 402.46 1451.98 397.83 C 1461.05 399.60 1474.43 395.33 1479.92 403.10 C 1474.45 409.81 1487.29 408.88 1489.75 412.18 C 1487.72 422.61 1482.47 432.29 1479.76 442.66 C 1474.72 442.26 1476.70 445.99 1479.90 447.36 C 1476.63 458.13 1473.39 470.07 1467.07 479.20 C 1460.69 479.06 1456.07 480.06 1454.75 487.30 C 1447.32 483.36 1434.99 485.39 1434.16 474.37 C 1440.54 470.04 1431.01 462.49 1425.90 466.26 C 1420.19 465.15 1401.71 459.51 1406.13 469.84 C 1401.00 467.97 1396.42 464.80 1390.88 464.10 C 1384.88 459.73 1381.79 452.69 1382.68 445.24 C 1375.71 438.30 1369.82 429.41 1369.71 418.79 C 1375.48 416.23 1374.19 408.18 1382.32 411.74 C 1394.67 413.02 1376.53 404.99 1381.97 399.82 C 1385.87 392.83 1373.19 388.69 1370.01 394.00 C 1365.75 401.65 1355.95 397.00 1350.01 402.79 C 1344.74 399.21 1338.28 400.50 1333.73 404.62 C 1324.44 402.86 1317.63 394.90 1307.98 393.96 C 1300.50 392.77 1304.76 386.44 1297.38 384.52 C 1303.64 374.42 1323.81 377.87 1325.86 388.69 C 1327.71 373.57 1342.25 396.83 1346.93 385.97 C 1336.48 384.63 1340.84 376.02 1350.05 379.87 C 1349.14 372.57 1358.85 378.17 1360.85 372.95 C 1353.45 370.60 1339.02 368.18 1343.37 357.24 C 1340.20 357.09 1337.02 357.27 1333.93 357.95 C 1336.41 356.35 1337.42 354.21 1335.35 351.76 Z"
       id="path240" />
  </g>
  <g target="77"
     id="#208000ff">
    <path
       fill="#208000"
       fill-opacity="0.00"
       d=" M 709.03 360.33 C 715.30 360.47 706.73 364.17 709.03 360.33 Z"
       id="path251" />
    <path
       fill="#208000"
       fill-opacity="0.00"
       d=" M 713.75 363.07 C 717.12 363.42 723.31 362.15 727.37 364.90 C 727.32 373.36 715.09 369.94 712.66 376.64 C 710.47 383.76 701.05 379.61 696.14 384.12 C 695.57 383.13 694.85 382.26 693.98 381.56 C 697.55 379.07 692.07 377.65 693.07 374.53 C 695.64 373.07 699.40 377.43 701.42 374.99 C 703.82 368.41 714.08 371.62 713.75 363.07 Z"
       id="path253" />
  </g>
  <g target="68"
     id="#9f4000ff">
    <path
       fill="#9f4000"
       fill-opacity="0.00"
       d=" M 619.53 361.42 C 630.40 360.88 640.27 366.32 651.14 363.04 C 659.50 369.86 644.01 377.09 647.95 383.06 C 642.16 389.28 630.72 387.69 627.32 395.75 C 623.78 397.06 620.02 397.64 616.27 397.92 C 614.92 394.92 613.58 399.67 616.27 397.92 C 609.98 409.24 596.50 394.98 586.84 404.76 C 587.18 411.35 579.04 411.81 576.28 416.76 C 559.33 424.64 545.08 437.65 526.38 442.18 C 521.20 427.92 518.00 413.02 512.22 399.00 C 508.02 389.91 529.40 391.99 523.49 381.86 C 530.39 376.02 536.61 367.22 548.35 369.73 C 553.86 371.58 559.69 370.73 565.00 370.74 C 568.23 375.68 577.97 368.15 578.13 373.06 C 577.15 373.83 577.15 373.83 578.13 373.06 C 592.85 372.86 608.24 370.24 619.53 361.42 Z"
       id="path256" />
  </g>
  <g target="44"
     id="#407f7fff">
    <path
       fill="#407f7f"
       fill-opacity="0.00"
       d=" M 1896.95 366.29 C 1904.64 370.38 1911.39 376.30 1920.00 378.62 L 1920.00 408.74 C 1906.45 397.31 1889.92 390.52 1874.94 381.22 C 1872.98 378.11 1878.44 378.57 1880.12 376.89 C 1880.64 377.91 1880.64 377.91 1880.12 376.89 C 1880.29 376.51 1880.62 375.75 1880.78 375.37 C 1881.77 375.88 1881.77 375.88 1880.78 375.37 C 1875.04 367.08 1886.50 372.20 1891.17 371.03 C 1895.94 370.49 1899.63 372.94 1896.95 366.29 Z"
       id="path266" />
    <path
       fill="#407f7f"
       fill-opacity="0.00"
       d=" M 1877.27 369.27 C 1877.75 369.77 1877.75 369.77 1877.27 369.27 Z"
       id="path268" />
  </g>
  <g target="63"
     id="#df7f00ff">
    <path
       fill="#df7f00"
       fill-opacity="0.00"
       d=" M 774.20 383.17 C 779.53 381.09 785.56 381.53 790.41 378.14 C 804.02 382.78 819.29 380.37 835.84 383.21 C 835.94 386.86 839.51 384.99 841.68 384.54 C 842.42 393.07 860.80 380.66 854.15 391.18 C 846.91 394.93 859.08 395.18 860.52 398.08 C 856.80 402.73 856.06 406.20 848.88 408.96 C 841.80 407.82 845.54 414.20 848.88 408.96 C 852.60 409.79 857.53 408.12 860.10 411.65 C 855.58 411.55 851.53 414.10 846.99 414.09 C 849.49 410.17 842.53 412.29 846.99 414.09 C 853.00 415.50 849.24 419.04 845.86 421.16 C 843.23 421.50 840.59 421.80 837.96 422.04 C 830.46 420.85 822.70 422.23 815.49 423.84 C 811.13 440.64 793.21 425.90 783.23 433.23 C 781.42 437.31 776.33 433.46 773.34 436.11 C 769.98 435.47 765.27 434.30 766.31 429.97 C 758.68 424.93 753.59 436.13 745.87 433.64 C 740.56 435.34 739.70 428.10 734.62 428.77 C 736.67 423.58 733.89 418.03 732.66 413.19 C 735.31 413.58 736.55 411.19 734.00 409.75 C 736.06 405.03 751.46 403.88 740.39 403.60 C 739.89 397.53 746.18 398.40 750.27 398.21 C 760.20 398.28 764.20 384.25 774.69 387.29 C 778.69 386.76 777.71 383.49 774.20 383.17 M 737.27 423.27 C 737.77 423.77 737.77 423.77 737.27 423.27 Z"
       id="path279" />
  </g>
  <g target="43"
     id="#207f7fff">
    <path
       fill="#207f7f"
       fill-opacity="0.00"
       d=" M 678.93 380.69 C 684.25 377.31 688.57 385.05 693.98 381.56 C 694.85 382.26 695.57 383.13 696.14 384.12 C 696.79 387.09 697.20 390.24 696.99 393.23 C 694.15 402.48 678.15 396.66 683.09 405.35 C 675.49 410.09 661.37 408.54 654.31 411.94 C 660.62 417.58 643.64 418.13 644.91 424.34 C 647.37 425.55 645.72 426.79 644.11 427.92 C 637.51 429.41 630.28 432.09 624.90 432.97 C 627.64 434.51 626.01 429.96 624.90 432.97 C 621.02 435.87 616.20 436.85 611.86 438.82 C 609.05 433.29 597.31 439.26 596.94 432.22 C 600.40 427.59 596.91 419.88 590.68 421.54 C 583.98 423.70 583.30 413.27 576.28 416.76 C 579.04 411.81 587.18 411.35 586.84 404.76 C 596.50 394.98 609.98 409.24 616.27 397.92 C 620.02 397.64 623.78 397.06 627.32 395.75 C 630.72 387.69 642.16 389.28 647.95 383.06 C 658.24 378.30 669.37 387.36 678.93 380.69 Z"
       id="path282" />
  </g>
  <g target="13"
     id="#407fbfff">
    <path
       fill="#407fbf"
       fill-opacity="0.00"
       d=" M 946.95 389.22 C 943.93 383.31 952.31 381.23 956.67 381.57 C 953.92 389.35 962.02 386.29 966.84 385.27 C 973.32 382.55 974.06 388.15 978.06 392.01 C 978.27 392.28 978.69 392.82 978.89 393.09 C 982.56 396.83 975.81 397.98 982.00 399.89 C 980.29 398.42 980.09 402.06 981.96 400.76 C 979.10 404.12 989.05 403.05 984.46 405.41 C 976.34 410.48 964.60 407.19 958.63 415.66 C 945.66 421.79 932.28 412.23 919.11 418.98 C 919.22 421.58 924.03 421.85 923.59 424.77 C 915.20 424.14 906.51 425.67 898.47 422.74 C 898.38 413.19 880.92 415.38 873.78 416.36 C 876.38 424.44 859.76 418.95 854.11 422.60 C 852.59 417.20 848.69 426.51 845.86 421.16 C 849.24 419.04 853.00 415.50 846.99 414.09 C 851.53 414.10 855.58 411.55 860.10 411.65 C 857.53 408.12 852.60 409.79 848.88 408.96 C 856.06 406.20 856.80 402.73 860.52 398.08 C 859.08 395.18 846.91 394.93 854.15 391.18 C 854.31 391.24 854.63 391.34 854.79 391.39 C 861.37 392.87 868.84 391.79 875.22 392.09 C 887.03 381.71 894.46 395.57 905.74 393.49 C 906.68 401.64 921.99 397.09 922.17 401.09 C 921.01 401.90 921.01 401.90 922.17 401.09 C 927.35 399.37 932.74 400.98 938.04 400.85 C 928.17 396.06 940.53 389.60 946.95 389.22 Z"
       id="path285" />
  </g>
  <g target="42"
     id="#bfbf00ff">
    <path
       fill="#bfbf00"
       fill-opacity="0.00"
       d=" M 290.22 388.36 C 295.55 393.66 304.13 394.61 311.85 393.20 C 316.98 404.02 323.44 414.90 325.86 426.65 C 320.25 431.38 312.21 433.46 309.22 441.08 C 287.21 441.85 265.34 442.13 243.41 439.85 C 239.24 430.25 232.86 421.32 229.99 411.29 C 236.47 407.27 244.44 405.20 249.08 398.80 C 264.26 399.04 276.63 390.22 290.22 388.36 Z"
       id="path294" />
  </g>
  <g target="74"
     id="#7f00bfff">
    <path
       fill="#7f00bf"
       fill-opacity="0.00"
       d=" M 1052.50 401.88 C 1053.07 393.05 1062.46 384.50 1070.44 392.31 C 1075.78 398.67 1084.49 399.33 1092.18 399.85 C 1094.50 402.60 1098.29 405.53 1097.23 409.58 C 1096.69 414.71 1085.60 414.30 1091.41 419.18 C 1082.29 421.35 1058.79 411.53 1061.77 430.63 C 1056.14 431.89 1055.52 420.78 1048.54 423.27 C 1043.38 418.34 1041.42 425.54 1048.54 423.27 C 1043.95 424.14 1035.32 423.79 1041.65 429.43 C 1039.18 433.06 1030.56 428.08 1027.98 433.97 C 1031.79 436.45 1036.06 439.18 1035.79 444.33 C 1041.34 443.40 1054.20 448.60 1043.13 451.88 C 1036.21 450.06 1030.40 456.40 1023.57 454.21 C 1026.67 463.12 1018.68 455.46 1013.67 458.64 C 1005.37 461.78 997.81 456.88 989.63 457.21 C 999.03 452.98 991.18 444.62 994.44 435.97 C 990.62 432.23 985.12 429.09 979.52 430.72 C 978.16 423.36 967.95 413.92 958.63 415.66 C 964.60 407.19 976.34 410.48 984.46 405.41 C 989.05 403.05 979.10 404.12 981.96 400.76 C 981.97 400.54 981.99 400.10 982.00 399.89 C 975.81 397.98 982.56 396.83 978.89 393.09 C 987.40 398.31 995.42 394.68 1004.03 394.20 C 1008.82 407.62 1017.66 386.37 1022.00 396.97 C 1028.02 388.43 1046.20 394.04 1041.34 405.89 C 1041.73 420.54 1043.46 398.56 1052.50 401.88 Z"
       id="path297" />
    <path
       fill="#7f00bf"
       fill-opacity="0.00"
       d=" M 981.96 400.76 C 980.09 402.06 980.29 398.42 982.00 399.89 L 981.96 400.76 Z"
       id="path299" />
  </g>
  <g target="72"
     id="#20007fff">
    <path
       fill="#20007f"
       fill-opacity="0.00"
       d=" M 696.99 393.23 C 703.12 389.11 707.89 399.82 713.48 393.70 C 719.18 388.43 721.49 399.73 727.88 397.53 C 735.90 397.56 725.29 402.43 729.25 407.21 C 728.31 406.35 728.31 406.35 729.25 407.21 C 730.82 408.05 732.40 408.92 734.00 409.75 C 736.55 411.19 735.31 413.58 732.66 413.19 C 733.89 418.03 736.67 423.58 734.62 428.77 C 732.22 429.91 727.56 429.84 728.60 433.40 C 730.06 438.88 717.61 432.32 721.12 438.49 C 724.39 442.57 720.80 447.35 716.35 444.68 C 710.00 451.91 701.75 440.11 694.90 446.25 C 693.92 440.95 685.99 445.57 687.60 439.82 C 686.75 435.29 679.85 437.65 676.90 439.44 C 664.68 437.02 655.34 433.88 644.11 427.92 C 645.72 426.79 647.37 425.55 644.91 424.34 C 643.64 418.13 660.62 417.58 654.31 411.94 C 661.37 408.54 675.49 410.09 683.09 405.35 C 678.15 396.66 694.15 402.48 696.99 393.23 Z"
       id="path305" />
  </g>
  <g target="64"
     id="#0000bfff">
    <path
       fill="#0000bf"
       fill-opacity="0.00"
       d=" M 1119.55 404.63 C 1118.24 398.80 1124.53 394.03 1129.78 396.39 C 1137.50 397.20 1147.32 399.19 1154.28 404.85 C 1158.78 403.42 1164.02 400.07 1168.29 404.04 C 1164.74 403.90 1163.20 408.48 1163.84 410.72 C 1177.04 416.19 1150.60 432.79 1168.39 434.15 C 1162.20 434.30 1166.00 441.32 1164.97 444.99 C 1155.77 447.63 1154.33 455.15 1148.19 460.85 C 1153.38 462.52 1151.33 465.94 1147.10 467.15 C 1154.95 477.63 1140.77 481.53 1132.95 485.67 C 1125.19 476.70 1112.32 480.24 1103.71 473.19 C 1097.66 472.26 1088.86 472.71 1086.87 465.23 C 1080.13 470.60 1078.05 459.14 1070.74 462.24 C 1060.26 465.67 1051.80 451.48 1041.92 457.57 C 1039.98 457.12 1042.35 453.31 1043.13 451.88 C 1054.20 448.60 1041.34 443.40 1035.79 444.33 C 1036.06 439.18 1031.79 436.45 1027.98 433.97 C 1030.56 428.08 1039.18 433.06 1041.65 429.43 C 1035.32 423.79 1043.95 424.14 1048.54 423.27 C 1055.52 420.78 1056.14 431.89 1061.77 430.63 C 1058.79 411.53 1082.29 421.35 1091.41 419.18 C 1085.60 414.30 1096.69 414.71 1097.23 409.58 C 1098.29 405.53 1094.50 402.60 1092.18 399.85 C 1102.22 404.78 1108.77 402.00 1119.55 404.63 Z"
       id="path311" />
    <path
       fill="#0000bf"
       fill-opacity="0.00"
       d=" M 1129.78 396.39 C 1130.62 395.45 1130.62 395.45 1129.78 396.39 Z"
       id="path313" />
    <path
       fill="#0000bf"
       fill-opacity="0.00"
       d=" M 1048.54 423.27 C 1043.38 418.34 1041.42 425.54 1048.54 423.27 Z"
       id="path315" />
    <path
       fill="#0000bf"
       fill-opacity="0.00"
       d=" M 1164.97 444.99 C 1165.81 445.87 1165.81 445.87 1164.97 444.99 Z"
       id="path317" />
  </g>
  <g target="58"
     id="#7f7f40ff">
    <path
       fill="#7f7f40"
       fill-opacity="0.00"
       d=" M 1168.29 404.04 C 1174.18 405.61 1182.42 405.55 1186.64 407.70 C 1177.87 410.81 1193.07 413.31 1198.03 414.41 C 1214.49 426.52 1233.39 436.68 1253.48 439.37 C 1258.77 444.55 1263.56 453.35 1272.27 451.72 C 1273.75 452.69 1277.20 456.51 1273.31 455.54 C 1266.87 455.96 1276.42 457.80 1278.60 458.36 C 1282.06 464.04 1290.00 469.74 1296.01 465.07 C 1298.64 450.67 1313.70 461.21 1315.50 469.47 C 1308.73 471.77 1312.66 477.88 1317.58 472.77 C 1323.51 473.58 1331.01 478.88 1332.25 485.54 C 1336.15 488.04 1342.93 499.75 1341.30 488.86 C 1345.29 489.24 1348.46 491.47 1351.47 493.83 C 1357.80 495.75 1356.88 485.53 1362.53 490.25 C 1367.55 476.02 1385.71 496.63 1394.76 485.37 C 1397.67 479.05 1390.34 476.07 1390.21 471.25 C 1397.65 471.46 1393.26 466.65 1390.88 464.10 C 1396.42 464.80 1401.00 467.97 1406.13 469.84 C 1401.71 459.51 1420.19 465.15 1425.90 466.26 C 1431.01 462.49 1440.54 470.04 1434.16 474.37 C 1434.99 485.39 1447.32 483.36 1454.75 487.30 C 1454.61 496.29 1467.44 491.06 1472.27 494.41 C 1480.08 502.62 1497.39 494.92 1501.81 506.79 C 1508.87 521.87 1498.15 535.43 1493.55 549.53 C 1480.30 556.82 1462.46 558.00 1449.04 549.98 C 1447.09 555.48 1444.47 561.31 1437.72 561.53 C 1428.28 552.59 1408.03 558.10 1397.85 546.13 C 1390.66 540.36 1374.11 536.25 1369.87 546.35 C 1358.26 551.58 1348.81 538.15 1337.38 543.18 C 1330.82 545.25 1321.82 543.99 1318.68 551.66 C 1307.98 565.97 1290.33 554.80 1278.58 548.36 C 1271.80 546.83 1274.85 556.95 1270.24 559.34 C 1265.71 563.64 1260.48 556.88 1261.37 552.21 C 1248.49 542.29 1232.09 536.39 1217.84 527.88 C 1207.26 526.74 1195.81 528.62 1185.49 525.69 C 1179.84 517.13 1165.99 518.12 1160.86 526.27 C 1146.76 532.14 1142.29 517.69 1128.13 519.01 C 1129.87 508.00 1130.05 496.13 1132.95 485.67 C 1140.77 481.53 1154.95 477.63 1147.10 467.15 C 1151.33 465.94 1153.38 462.52 1148.19 460.85 C 1154.33 455.15 1155.77 447.63 1164.97 444.99 C 1165.81 445.87 1165.81 445.87 1164.97 444.99 C 1166.00 441.32 1162.20 434.30 1168.39 434.15 C 1150.60 432.79 1177.04 416.19 1163.84 410.72 C 1163.20 408.48 1164.74 403.90 1168.29 404.04 Z"
       id="path333" />
  </g>
  <g target="60"
     id="#bf7fbfff">
    <path
       fill="#bf7fbf"
       fill-opacity="0.00"
       d=" M 873.78 416.36 C 880.92 415.38 898.38 413.19 898.47 422.74 C 906.51 425.67 915.20 424.14 923.59 424.77 C 924.03 421.85 919.22 421.58 919.11 418.98 C 932.28 412.23 945.66 421.79 958.63 415.66 C 967.95 413.92 978.16 423.36 979.52 430.72 C 985.12 429.09 990.62 432.23 994.44 435.97 C 991.18 444.62 999.03 452.98 989.63 457.21 C 982.39 451.89 975.14 457.16 968.01 459.13 C 967.27 458.34 967.27 458.34 968.01 459.13 C 964.76 460.95 960.56 460.38 963.66 465.07 C 959.65 465.15 956.31 462.82 952.82 461.23 C 940.61 467.08 927.37 467.00 915.21 461.49 C 907.56 474.50 894.45 463.78 883.74 464.53 C 876.85 469.21 870.65 463.22 863.58 465.40 C 863.26 460.08 873.55 460.16 869.58 455.38 C 863.70 448.60 853.10 447.57 848.74 439.20 C 847.14 434.67 838.44 437.99 842.62 431.88 C 835.51 433.36 837.30 426.78 837.96 422.04 C 840.59 421.80 843.23 421.50 845.86 421.16 C 848.69 426.51 852.59 417.20 854.11 422.60 C 859.76 418.95 876.38 424.44 873.78 416.36 Z"
       id="path336" />
  </g>
  <g target="35"
     id="#20bf00ff">
    <path
       fill="#20bf00"
       fill-opacity="0.00"
       d=" M 576.28 416.76 C 583.30 413.27 583.98 423.70 590.68 421.54 C 596.91 419.88 600.40 427.59 596.94 432.22 C 597.31 439.26 609.05 433.29 611.86 438.82 C 608.15 442.33 610.74 443.69 614.07 445.77 C 608.07 448.11 601.10 447.54 595.77 451.22 C 595.25 450.00 595.25 450.00 595.77 451.22 C 607.88 455.19 589.61 464.79 592.09 467.07 C 588.26 473.96 580.90 469.25 578.47 476.24 C 573.63 476.62 567.26 475.83 565.05 481.57 C 571.15 480.12 561.09 484.60 565.69 488.06 C 557.70 488.72 551.69 490.22 554.02 498.85 C 542.30 497.60 531.06 502.05 519.11 500.74 C 515.32 508.48 498.40 512.35 496.53 501.29 C 493.83 488.54 481.49 474.68 491.19 462.12 C 497.87 457.29 486.96 449.12 493.95 445.87 C 504.67 433.04 515.47 452.33 526.38 442.18 C 545.08 437.65 559.33 424.64 576.28 416.76 Z"
       id="path339" />
  </g>
  <g target="69"
     id="#607f00ff">
    <path
       fill="#607f00"
       fill-opacity="0.00"
       d=" M 815.49 423.84 C 822.70 422.23 830.46 420.85 837.96 422.04 C 837.30 426.78 835.51 433.36 842.62 431.88 C 838.44 437.99 847.14 434.67 848.74 439.20 C 853.10 447.57 863.70 448.60 869.58 455.38 C 873.55 460.16 863.26 460.08 863.58 465.40 C 855.96 470.30 851.82 478.45 846.31 485.30 C 844.02 487.64 838.75 489.06 840.76 493.25 C 826.46 492.06 806.15 485.40 787.35 489.16 C 792.73 480.30 779.49 483.40 774.40 481.17 C 776.51 477.15 781.73 474.32 783.61 471.25 C 774.73 466.93 769.71 465.65 762.22 459.94 C 761.59 456.23 761.96 451.74 766.78 453.62 C 770.11 449.15 767.93 440.36 773.34 436.11 C 776.33 433.46 781.42 437.31 783.23 433.23 C 793.21 425.90 811.13 440.64 815.49 423.84 Z"
       id="path345" />
  </g>
  <g target="22"
     id="#bf7f7fff">
    <path
       fill="#bf7f7f"
       fill-opacity="0.00"
       d=" M 1877.71 423.26 C 1892.42 422.94 1906.40 433.02 1920.00 438.09 L 1920.00 519.63 C 1894.77 502.74 1867.57 488.88 1841.64 473.15 C 1842.50 462.19 1867.36 448.57 1851.94 439.02 C 1855.91 436.06 1859.91 443.67 1863.68 440.17 C 1858.72 430.59 1875.99 440.69 1875.95 431.65 C 1876.49 432.80 1876.49 432.80 1875.95 431.65 C 1871.45 425.79 1879.35 429.31 1877.71 423.26 Z"
       id="path348" />
  </g>
  <g target="59"
     id="#9f007fff">
    <path
       fill="#9f007f"
       fill-opacity="0.00"
       d=" M 624.90 432.97 C 630.28 432.09 637.51 429.41 644.11 427.92 C 655.34 433.88 664.68 437.02 676.90 439.44 C 679.85 437.65 686.75 435.29 687.60 439.82 C 685.99 445.57 693.92 440.95 694.90 446.25 C 694.66 451.79 691.67 455.56 687.24 458.21 C 690.93 461.80 692.82 464.61 693.47 469.51 C 689.43 472.36 679.85 470.70 681.00 478.16 C 676.38 478.34 671.26 478.96 666.49 480.42 C 658.10 472.62 643.22 476.68 636.16 466.68 C 628.49 466.26 621.05 469.64 613.38 469.70 C 610.36 459.03 601.06 468.67 592.09 467.07 C 589.61 464.79 607.88 455.19 595.77 451.22 C 601.10 447.54 608.07 448.11 614.07 445.77 C 610.74 443.69 608.15 442.33 611.86 438.82 C 616.20 436.85 621.02 435.87 624.90 432.97 M 684.28 458.09 C 684.43 461.41 687.26 456.54 684.28 458.09 Z"
       id="path354" />
  </g>
  <g target="50"
     id="#9f7f00ff">
    <path
       fill="#9f7f00"
       fill-opacity="0.00"
       d=" M 745.87 433.64 C 753.59 436.13 758.68 424.93 766.31 429.97 C 765.27 434.30 769.98 435.47 773.34 436.11 C 767.93 440.36 770.11 449.15 766.78 453.62 C 761.96 451.74 761.59 456.23 762.22 459.94 C 769.71 465.65 774.73 466.93 783.61 471.25 C 781.73 474.32 776.51 477.15 774.40 481.17 C 763.14 478.75 751.92 483.04 740.77 481.21 C 740.56 472.80 727.92 475.79 723.99 479.99 C 717.23 473.28 706.36 477.65 698.59 480.79 C 693.07 480.51 682.92 485.34 681.00 478.16 C 679.85 470.70 689.43 472.36 693.47 469.51 C 692.82 464.61 690.93 461.80 687.24 458.21 C 691.67 455.56 694.66 451.79 694.90 446.25 C 701.75 440.11 710.00 451.91 716.35 444.68 C 720.80 447.35 724.39 442.57 721.12 438.49 C 717.61 432.32 730.06 438.88 728.60 433.40 C 727.56 429.84 732.22 429.91 734.62 428.77 C 739.70 428.10 740.56 435.34 745.87 433.64 Z"
       id="path357" />
  </g>
  <g target="65"
     id="#004040ff">
    <path
       fill="#004040"
       fill-opacity="0.00"
       d=" M 1023.57 454.21 C 1030.40 456.40 1036.21 450.06 1043.13 451.88 C 1042.35 453.31 1039.98 457.12 1041.92 457.57 C 1051.80 451.48 1060.26 465.67 1070.74 462.24 C 1078.05 459.14 1080.13 470.60 1086.87 465.23 C 1088.86 472.71 1097.66 472.26 1103.71 473.19 C 1112.32 480.24 1125.19 476.70 1132.95 485.67 C 1130.05 496.13 1129.87 508.00 1128.13 519.01 C 1128.31 524.20 1121.88 522.27 1119.19 525.15 C 1111.71 536.82 1095.46 537.44 1084.49 542.49 C 1085.72 552.45 1071.94 549.15 1068.92 556.42 C 1068.20 564.23 1068.41 572.11 1067.45 579.90 C 1061.26 585.26 1050.83 591.19 1043.80 584.23 C 1034.40 577.64 1027.04 563.66 1013.87 566.26 C 1014.57 556.10 1013.99 545.90 1015.03 535.76 C 1003.71 536.29 996.37 527.32 986.12 525.37 C 982.03 530.63 973.35 530.09 967.04 531.14 C 967.99 523.60 956.95 519.70 951.12 523.92 C 956.49 532.07 943.36 526.80 938.98 529.31 C 931.94 532.17 934.20 522.40 938.91 520.78 C 932.06 503.15 907.50 505.06 893.09 510.45 C 890.33 504.65 881.23 510.62 875.87 511.63 C 866.88 514.44 860.20 506.92 852.17 504.61 C 855.58 495.52 845.37 497.09 840.76 493.25 C 838.75 489.06 844.02 487.64 846.31 485.30 C 851.82 478.45 855.96 470.30 863.58 465.40 C 870.65 463.22 876.85 469.21 883.74 464.53 C 894.45 463.78 907.56 474.50 915.21 461.49 C 927.37 467.00 940.61 467.08 952.82 461.23 C 956.31 462.82 959.65 465.15 963.66 465.07 C 960.56 460.38 964.76 460.95 968.01 459.13 C 975.14 457.16 982.39 451.89 989.63 457.21 C 997.81 456.88 1005.37 461.78 1013.67 458.64 C 1018.68 455.46 1026.67 463.12 1023.57 454.21 Z"
       id="path365" />
    <path
       fill="#004040"
       fill-opacity="0.00"
       d=" M 968.01 459.13 C 967.27 458.34 967.27 458.34 968.01 459.13 Z"
       id="path367" />
  </g>
  <g target="48"
     id="#9f7f7fff">
    <path
       fill="#9f7f7f"
       fill-opacity="0.00"
       d=" M 592.09 467.07 C 601.06 468.67 610.36 459.03 613.38 469.70 C 621.05 469.64 628.49 466.26 636.16 466.68 C 643.22 476.68 658.10 472.62 666.49 480.42 C 671.26 478.96 676.38 478.34 681.00 478.16 C 682.92 485.34 693.07 480.51 698.59 480.79 C 705.26 479.83 699.86 489.02 705.98 488.86 C 701.16 491.82 695.52 490.18 690.23 490.13 C 692.30 494.47 695.34 499.71 691.91 504.22 C 669.91 492.65 647.76 506.32 626.20 510.72 C 620.55 510.15 605.83 504.00 607.87 511.33 C 599.87 515.01 592.12 515.67 583.77 513.52 C 587.35 522.89 577.49 528.09 581.86 537.10 C 574.81 538.96 567.69 535.30 561.39 533.72 C 558.68 522.24 551.36 510.94 554.02 498.85 C 551.69 490.22 557.70 488.72 565.69 488.06 C 561.09 484.60 571.15 480.12 565.05 481.57 C 567.26 475.83 573.63 476.62 578.47 476.24 C 580.90 469.25 588.26 473.96 592.09 467.07 Z"
       id="path373" />
  </g>
  <g target="39"
     id="#df0000ff">
    <path
       fill="#df0000"
       fill-opacity="0.00"
       d=" M 698.59 480.79 C 706.36 477.65 717.23 473.28 723.99 479.99 C 727.92 475.79 740.56 472.80 740.77 481.21 C 751.92 483.04 763.14 478.75 774.40 481.17 C 779.49 483.40 792.73 480.30 787.35 489.16 C 806.15 485.40 826.46 492.06 840.76 493.25 C 845.37 497.09 855.58 495.52 852.17 504.61 C 840.69 508.44 828.69 509.14 816.63 508.51 C 809.38 516.13 799.63 518.08 790.15 522.12 C 793.44 524.68 796.99 526.98 799.99 529.92 C 794.03 532.93 798.47 541.84 791.11 543.71 C 789.77 550.79 782.05 550.31 777.40 554.34 C 771.80 565.10 757.70 567.29 746.75 565.76 C 739.45 563.35 737.21 573.40 736.72 578.50 C 730.47 585.18 720.20 586.35 713.71 590.33 C 712.75 589.38 712.24 588.16 711.87 586.91 C 710.54 577.06 707.51 567.28 706.59 557.52 C 719.48 550.76 704.88 537.16 712.14 529.45 C 722.55 530.26 703.02 526.54 703.58 520.85 C 701.45 515.28 710.15 519.98 707.99 515.36 C 707.55 505.78 695.84 518.59 693.06 509.99 C 698.84 507.90 698.30 503.29 691.91 504.22 C 695.34 499.71 692.30 494.47 690.23 490.13 C 695.52 490.18 701.16 491.82 705.98 488.86 C 699.86 489.02 705.26 479.83 698.59 480.79 Z"
       id="path376" />
  </g>
  <g target="34"
     id="#600000ff">
    <path
       fill="#600000"
       fill-opacity="0.00"
       d=" M 626.20 510.72 C 647.76 506.32 669.91 492.65 691.91 504.22 C 698.30 503.29 698.84 507.90 693.06 509.99 C 695.84 518.59 707.55 505.78 707.99 515.36 C 710.15 519.98 701.45 515.28 703.58 520.85 C 703.02 526.54 722.55 530.26 712.14 529.45 C 704.88 537.16 719.48 550.76 706.59 557.52 C 707.51 567.28 710.54 577.06 711.87 586.91 C 699.81 587.51 689.85 581.40 678.22 578.38 C 674.31 587.65 661.27 579.30 659.51 572.58 C 653.52 557.14 634.49 571.08 623.36 571.38 C 613.60 566.42 602.89 561.32 592.20 566.90 C 586.87 557.72 586.48 546.59 581.86 537.10 C 577.49 528.09 587.35 522.89 583.77 513.52 C 592.12 515.67 599.87 515.01 607.87 511.33 C 605.83 504.00 620.55 510.15 626.20 510.72 Z"
       id="path382" />
  </g>
  <g target="37"
     id="#0040bfff">
    <path
       fill="#0040bf"
       fill-opacity="0.00"
       d=" M 816.63 508.51 C 828.69 509.14 840.69 508.44 852.17 504.61 C 860.20 506.92 866.88 514.44 875.87 511.63 C 881.23 510.62 890.33 504.65 893.09 510.45 C 907.50 505.06 932.06 503.15 938.91 520.78 C 934.20 522.40 931.94 532.17 938.98 529.31 C 943.36 526.80 956.49 532.07 951.12 523.92 C 956.95 519.70 967.99 523.60 967.04 531.14 C 973.35 530.09 982.03 530.63 986.12 525.37 C 996.37 527.32 1003.71 536.29 1015.03 535.76 C 1013.99 545.90 1014.57 556.10 1013.87 566.26 C 1008.82 571.59 1011.15 581.70 1002.87 584.22 C 998.24 593.93 1006.11 609.92 997.73 618.16 C 988.21 617.67 982.06 613.66 984.63 603.76 C 978.98 598.42 968.49 594.10 960.68 597.58 C 953.38 606.10 942.23 608.68 931.47 608.57 C 926.31 612.72 937.56 607.66 935.81 612.97 C 929.88 610.91 924.30 611.44 921.33 617.64 C 920.67 624.32 930.60 620.66 931.95 626.72 C 927.96 628.57 914.35 620.19 918.89 628.35 C 916.14 629.17 912.12 631.02 910.87 627.23 C 908.52 630.53 900.73 630.79 904.50 625.53 C 903.34 622.34 895.92 620.98 894.53 625.75 C 891.17 631.83 907.26 629.50 898.07 634.85 C 892.88 643.43 880.82 629.01 879.06 640.71 C 872.73 642.98 862.33 644.44 864.77 654.49 C 858.21 655.70 843.32 662.25 843.95 651.50 C 830.50 659.90 830.72 638.34 819.93 634.04 C 814.13 627.91 804.12 633.12 798.22 629.03 C 802.81 625.77 798.39 620.19 804.18 619.52 C 799.72 603.90 830.33 615.37 830.10 601.03 C 839.73 596.37 829.38 586.44 821.82 588.48 C 823.36 580.63 814.04 583.99 809.27 583.59 C 809.42 575.38 811.98 568.32 816.88 561.86 C 812.45 557.32 805.50 552.89 798.28 553.11 C 802.08 547.33 793.28 548.31 791.11 543.71 C 798.47 541.84 794.03 532.93 799.99 529.92 C 796.99 526.98 793.44 524.68 790.15 522.12 C 799.63 518.08 809.38 516.13 816.63 508.51 Z"
       id="path385" />
  </g>
  <g target="62"
     id="#7f40bfff">
    <path
       fill="#7f40bf"
       fill-opacity="0.00"
       d=" M 777.40 554.34 C 782.05 550.31 789.77 550.79 791.11 543.71 C 793.28 548.31 802.08 547.33 798.28 553.11 C 805.50 552.89 812.45 557.32 816.88 561.86 C 811.98 568.32 809.42 575.38 809.27 583.59 C 814.04 583.99 823.36 580.63 821.82 588.48 C 829.38 586.44 839.73 596.37 830.10 601.03 C 830.33 615.37 799.72 603.90 804.18 619.52 C 798.39 620.19 802.81 625.77 798.22 629.03 C 804.12 633.12 814.13 627.91 819.93 634.04 C 830.72 638.34 830.50 659.90 843.95 651.50 C 843.32 662.25 858.21 655.70 864.77 654.49 C 869.04 656.72 866.35 665.27 873.33 662.66 C 875.33 656.55 883.04 657.27 885.25 651.30 C 898.75 656.22 886.76 670.74 886.16 680.57 C 880.03 684.70 872.48 686.84 868.40 693.47 C 862.45 697.91 874.67 694.26 869.27 700.09 C 873.59 704.58 866.96 713.43 866.02 705.64 C 859.62 700.57 861.61 715.01 855.34 714.57 C 840.31 721.66 831.84 694.74 817.85 706.49 C 808.38 703.44 800.87 695.85 790.41 694.66 C 788.82 699.31 795.80 701.69 794.68 706.26 C 790.51 707.42 783.55 703.70 783.28 711.15 C 780.32 717.43 772.51 708.56 769.00 714.86 C 770.33 716.74 771.59 718.71 771.92 721.05 L 771.10 721.14 C 762.63 719.65 755.58 724.99 747.28 722.95 C 746.13 718.18 743.62 715.37 739.32 713.05 C 744.15 705.79 734.29 709.77 730.74 709.56 C 725.08 703.21 713.39 712.55 709.77 704.03 C 711.40 699.79 708.35 694.62 703.52 695.06 C 697.81 694.01 704.81 688.30 706.26 685.80 C 697.48 681.05 687.27 683.71 678.26 680.33 C 670.44 686.84 662.19 690.62 651.91 690.97 C 653.99 687.83 658.23 685.70 657.66 681.36 C 651.68 683.82 647.14 678.60 640.91 680.84 C 638.63 673.18 633.48 662.45 641.91 656.70 C 643.59 641.81 664.19 649.60 669.27 637.23 C 680.60 637.27 692.24 636.35 703.76 638.61 C 710.13 637.73 708.56 629.44 713.27 626.30 C 715.04 618.49 706.45 608.98 712.65 601.66 C 715.89 598.61 714.58 594.14 713.71 590.33 C 720.20 586.35 730.47 585.18 736.72 578.50 C 737.21 573.40 739.45 563.35 746.75 565.76 C 757.70 567.29 771.80 565.10 777.40 554.34 Z"
       id="path388" />
  </g>
  <g target="33"
     id="#00bf40ff">
    <path
       fill="#00bf40"
       fill-opacity="0.00"
       d=" M 960.68 597.58 C 968.49 594.10 978.98 598.42 984.63 603.76 C 982.06 613.66 988.21 617.67 997.73 618.16 C 1013.79 621.60 1002.00 644.51 1017.13 645.80 C 1016.66 634.10 1031.08 646.80 1037.51 642.37 C 1052.34 638.28 1054.53 660.28 1068.55 658.21 C 1070.53 673.88 1092.22 680.39 1087.15 696.91 C 1084.39 706.89 1104.40 702.19 1099.61 713.74 C 1096.90 725.39 1099.76 738.85 1092.06 748.98 C 1089.93 753.38 1083.27 753.31 1083.04 759.07 C 1080.43 768.94 1070.53 751.60 1067.52 763.29 C 1060.24 760.62 1061.11 770.14 1055.89 771.93 C 1050.48 769.43 1044.05 769.43 1039.85 774.14 C 1036.95 772.93 1037.93 767.97 1033.93 767.99 C 1032.10 771.85 1034.32 779.44 1029.10 780.07 C 1028.97 770.07 1031.04 760.05 1030.44 750.10 C 1026.05 748.50 1025.04 744.80 1030.03 743.07 C 1020.19 740.20 1010.45 744.41 1000.50 743.65 C 1004.42 735.87 1010.01 728.73 1013.95 720.87 C 1012.35 712.72 997.82 726.08 998.72 715.47 C 997.35 710.06 988.87 713.51 986.00 708.83 C 987.99 700.27 1002.85 707.34 1002.69 698.00 C 1003.93 693.28 1011.83 696.06 1012.67 690.70 C 1012.66 686.34 1008.77 681.97 1004.19 682.23 C 995.36 675.80 987.43 667.69 982.06 658.02 C 983.90 653.32 991.70 653.63 993.53 650.17 C 986.04 643.50 981.81 656.57 975.13 657.50 C 964.84 653.69 957.35 645.03 949.38 637.91 C 951.75 634.73 950.94 630.29 946.16 631.50 C 940.28 633.74 937.57 625.94 931.95 626.72 C 930.60 620.66 920.67 624.32 921.33 617.64 C 924.30 611.44 929.88 610.91 935.81 612.97 C 937.56 607.66 926.31 612.72 931.47 608.57 C 942.23 608.68 953.38 606.10 960.68 597.58 Z"
       id="path391" />
  </g>
  <g target="8"
     id="#7fbf40ff">
    <path
       fill="#7fbf40"
       fill-opacity="0.00"
       d=" M 894.53 625.75 C 895.92 620.98 903.34 622.34 904.50 625.53 C 900.73 630.79 908.52 630.53 910.87 627.23 C 912.12 631.02 916.14 629.17 918.89 628.35 C 914.35 620.19 927.96 628.57 931.95 626.72 C 937.57 625.94 940.28 633.74 946.16 631.50 C 950.94 630.29 951.75 634.73 949.38 637.91 C 957.35 645.03 964.84 653.69 975.13 657.50 C 981.81 656.57 986.04 643.50 993.53 650.17 C 991.70 653.63 983.90 653.32 982.06 658.02 C 987.43 667.69 995.36 675.80 1004.19 682.23 C 1008.77 681.97 1012.66 686.34 1012.67 690.70 C 1011.83 696.06 1003.93 693.28 1002.69 698.00 C 1002.85 707.34 987.99 700.27 986.00 708.83 C 988.87 713.51 997.35 710.06 998.72 715.47 C 997.82 726.08 1012.35 712.72 1013.95 720.87 C 1010.01 728.73 1004.42 735.87 1000.50 743.65 C 1010.45 744.41 1020.19 740.20 1030.03 743.07 C 1025.04 744.80 1026.05 748.50 1030.44 750.10 C 1031.04 760.05 1028.97 770.07 1029.10 780.07 C 1029.84 795.20 1018.51 800.61 1009.76 811.44 C 1006.10 807.66 1007.60 800.31 1001.01 799.76 C 999.69 794.25 1000.99 787.40 1000.34 781.24 C 991.58 784.97 983.33 779.03 976.20 774.49 C 965.71 775.28 955.02 768.95 945.05 772.92 C 936.89 758.84 918.26 759.87 906.69 750.73 C 892.63 751.75 878.38 743.90 873.98 730.08 C 867.68 724.77 858.59 724.28 850.66 724.29 C 843.41 717.46 833.23 716.99 824.97 711.99 C 817.39 718.13 807.63 724.44 796.90 723.55 C 802.99 717.21 792.59 711.35 791.47 719.99 C 790.77 729.99 778.77 718.95 771.92 721.05 C 771.59 718.71 770.33 716.74 769.00 714.86 C 772.51 708.56 780.32 717.43 783.28 711.15 C 783.55 703.70 790.51 707.42 794.68 706.26 C 795.80 701.69 788.82 699.31 790.41 694.66 C 800.87 695.85 808.38 703.44 817.85 706.49 C 831.84 694.74 840.31 721.66 855.34 714.57 C 861.61 715.01 859.62 700.57 866.02 705.64 C 866.96 713.43 873.59 704.58 869.27 700.09 C 874.67 694.26 862.45 697.91 868.40 693.47 C 872.48 686.84 880.03 684.70 886.16 680.57 C 886.76 670.74 898.75 656.22 885.25 651.30 C 883.04 657.27 875.33 656.55 873.33 662.66 C 866.35 665.27 869.04 656.72 864.77 654.49 C 862.33 644.44 872.73 642.98 879.06 640.71 C 880.82 629.01 892.88 643.43 898.07 634.85 C 907.26 629.50 891.17 631.83 894.53 625.75 Z"
       id="path394" />
  </g>
  <g target="25"
     id="#00bfbfff">
    <path
       fill="#00bfbf"
       fill-opacity="0.00"
       d=" M 640.91 680.84 C 647.14 678.60 651.68 683.82 657.66 681.36 C 658.23 685.70 653.99 687.83 651.91 690.97 C 662.19 690.62 670.44 686.84 678.26 680.33 C 687.27 683.71 697.48 681.05 706.26 685.80 C 704.81 688.30 697.81 694.01 703.52 695.06 C 708.35 694.62 711.40 699.79 709.77 704.03 C 713.39 712.55 725.08 703.21 730.74 709.56 C 734.29 709.77 744.15 705.79 739.32 713.05 C 743.62 715.37 746.13 718.18 747.28 722.95 C 743.88 726.97 750.19 728.41 750.93 731.92 C 746.07 732.58 744.15 739.37 738.89 736.88 C 734.26 733.31 726.52 738.09 729.89 743.38 C 735.24 746.69 737.80 752.93 736.54 759.06 C 741.14 760.46 746.17 758.93 750.71 760.13 C 748.82 767.17 755.47 773.30 762.07 774.06 C 766.06 781.64 757.32 784.88 752.25 787.71 C 752.19 794.27 760.29 797.22 765.17 800.15 C 763.52 801.64 754.62 803.31 758.64 806.43 C 765.79 810.37 757.57 819.98 751.98 820.24 C 749.70 825.91 742.33 827.39 739.67 821.21 C 732.73 820.16 716.75 810.03 719.32 824.35 C 697.99 833.49 705.10 857.86 711.03 874.69 C 699.02 877.09 678.55 862.93 676.96 882.56 C 660.26 867.69 647.35 843.78 626.54 832.46 C 613.59 830.61 602.47 824.15 596.90 812.17 C 588.40 818.41 575.40 812.19 574.61 801.37 C 572.50 787.59 551.82 797.38 549.64 784.34 C 546.75 776.07 543.22 768.04 540.23 759.83 C 543.08 754.59 548.67 742.86 557.47 747.37 C 569.20 756.20 589.37 752.24 590.91 735.88 C 604.62 736.11 604.61 715.72 618.02 718.72 C 615.00 708.99 611.41 699.38 609.71 689.30 C 619.16 694.87 629.31 683.40 637.47 689.97 C 636.83 686.43 638.70 683.41 640.91 680.84 M 669.49 761.30 C 659.16 768.30 644.43 773.27 632.88 766.48 C 629.47 767.54 623.47 762.76 623.29 768.70 C 633.46 776.23 652.36 781.40 666.28 777.16 C 667.38 772.84 671.44 763.11 676.11 769.73 C 684.38 768.17 677.62 774.51 684.61 774.43 C 687.50 779.75 678.18 777.61 684.35 780.73 C 686.19 785.33 675.84 782.94 678.35 788.53 C 673.26 788.52 670.18 806.43 678.12 804.09 C 679.00 807.15 685.36 810.16 680.19 815.29 C 671.82 823.12 671.72 803.32 664.11 811.16 C 668.85 819.63 655.70 820.03 662.17 824.82 C 671.88 822.34 679.55 829.22 686.85 833.69 C 696.65 830.19 698.03 819.09 696.93 810.14 C 709.33 803.52 691.60 791.55 702.22 784.07 C 707.22 780.04 710.30 787.13 711.96 789.88 C 714.99 778.73 705.47 762.90 692.60 765.67 C 683.95 769.54 678.36 759.07 669.49 761.30 M 714.02 795.89 C 711.44 789.74 708.95 804.23 716.94 798.71 C 717.56 789.64 712.76 782.23 714.02 795.89 Z"
       id="path397" />
  </g>
  <g target="29"
     id="#007f40ff">
    <path
       fill="#007f40"
       fill-opacity="0.00"
       d=" M 796.90 723.55 C 807.63 724.44 817.39 718.13 824.97 711.99 C 833.23 716.99 843.41 717.46 850.66 724.29 C 858.59 724.28 867.68 724.77 873.98 730.08 C 878.38 743.90 892.63 751.75 906.69 750.73 C 918.26 759.87 936.89 758.84 945.05 772.92 C 941.21 775.14 938.72 778.94 941.33 783.16 C 941.02 793.51 924.24 791.52 925.52 802.04 C 928.53 803.37 933.99 799.66 934.61 804.94 C 933.88 813.29 922.07 809.75 919.75 816.37 C 926.87 818.98 941.40 811.47 937.03 824.61 C 932.72 827.95 936.85 836.64 927.90 834.08 C 919.23 838.49 928.03 824.19 918.36 830.34 C 918.36 836.26 915.34 845.16 906.82 843.25 C 903.16 831.93 890.31 839.49 881.92 839.62 C 880.53 834.09 887.50 832.34 887.15 827.29 C 883.53 829.53 880.42 835.32 875.69 831.24 C 868.61 825.91 858.39 828.43 856.91 837.84 C 849.49 831.88 832.37 843.29 834.36 830.29 C 825.65 832.59 816.51 834.75 807.70 836.46 C 803.66 833.90 805.16 823.12 800.29 824.35 C 798.64 829.82 789.14 826.69 790.27 821.58 C 794.02 814.65 803.56 816.76 808.20 811.20 C 805.21 801.26 799.69 811.34 794.53 811.09 C 790.50 804.89 782.34 806.56 776.29 804.77 C 774.64 799.77 769.96 795.38 765.17 800.15 C 760.29 797.22 752.19 794.27 752.25 787.71 C 757.32 784.88 766.06 781.64 762.07 774.06 C 755.47 773.30 748.82 767.17 750.71 760.13 C 746.17 758.93 741.14 760.46 736.54 759.06 C 737.80 752.93 735.24 746.69 729.89 743.38 C 726.52 738.09 734.26 733.31 738.89 736.88 C 744.15 739.37 746.07 732.58 750.93 731.92 C 750.19 728.41 743.88 726.97 747.28 722.95 C 755.58 724.99 762.63 719.65 771.10 721.14 C 771.30 721.12 771.71 721.07 771.92 721.05 C 778.77 718.95 790.77 729.99 791.47 719.99 C 792.59 711.35 802.99 717.21 796.90 723.55 Z"
       id="path400" />
  </g>
  <g target="25"
     id="#7f4040ff">
    <path
       fill="#7f4040"
       fill-opacity="0.00"
       d=" M 669.49 761.30 C 678.36 759.07 683.95 769.54 692.60 765.67 C 705.47 762.90 714.99 778.73 711.96 789.88 C 710.30 787.13 707.22 780.04 702.22 784.07 C 691.60 791.55 709.33 803.52 696.93 810.14 C 698.03 819.09 696.65 830.19 686.85 833.69 C 679.55 829.22 671.88 822.34 662.17 824.82 C 655.70 820.03 668.85 819.63 664.11 811.16 C 671.72 803.32 671.82 823.12 680.19 815.29 C 685.36 810.16 679.00 807.15 678.12 804.09 C 670.18 806.43 673.26 788.52 678.35 788.53 C 675.84 782.94 686.19 785.33 684.35 780.73 C 678.18 777.61 687.50 779.75 684.61 774.43 C 677.62 774.51 684.38 768.17 676.11 769.73 C 671.44 763.11 667.38 772.84 666.28 777.16 C 652.36 781.40 633.46 776.23 623.29 768.70 C 623.47 762.76 629.47 767.54 632.88 766.48 C 644.43 773.27 659.16 768.30 669.49 761.30 Z"
       id="path406" />
    <path
       fill="#804040"
       fill-opacity="0.00"
       d=" M 714.02 795.89 C 712.76 782.23 717.56 789.64 716.94 798.71 C 708.95 804.23 711.44 789.74 714.02 795.89 C 713.43 797.13 713.43 797.13 714.02 795.89 Z"
       id="path412" />
  </g>
  <g target="5"
     id="#40407fff">
    <path
       fill="#40407f"
       fill-opacity="0.00"
       d=" M 945.05 772.92 C 955.02 768.95 965.71 775.28 976.20 774.49 C 983.33 779.03 991.58 784.97 1000.34 781.24 C 1000.99 787.40 999.69 794.25 1001.01 799.76 C 1007.60 800.31 1006.10 807.66 1009.76 811.44 C 1010.37 814.88 1015.72 809.97 1016.19 813.69 C 1018.79 823.69 1030.91 828.21 1031.79 838.97 C 1034.61 834.82 1033.78 826.21 1041.57 829.13 C 1044.07 847.52 1034.55 863.67 1034.50 881.31 C 1043.28 881.97 1041.96 891.08 1042.97 897.72 C 1055.42 911.54 1069.11 924.44 1077.67 941.33 C 1080.96 943.71 1088.05 942.55 1084.45 949.50 C 1081.78 964.02 1084.65 985.53 1066.86 990.91 C 1057.70 992.15 1056.50 1002.28 1052.03 1008.24 C 1042.14 1009.98 1030.37 1008.00 1021.60 1003.38 C 1016.06 989.27 1003.61 983.99 994.20 972.52 C 980.95 974.48 971.94 961.24 958.80 961.26 C 945.19 956.64 931.73 947.98 936.80 931.08 C 936.68 926.41 935.44 917.94 942.54 919.27 C 943.00 911.14 952.88 902.98 957.79 902.81 C 957.80 894.53 975.67 897.78 964.10 890.89 C 969.03 881.92 979.37 891.35 984.69 884.01 C 981.18 880.14 984.50 875.78 979.12 872.86 C 984.34 864.81 971.52 857.40 978.38 850.69 C 979.67 844.07 988.93 841.41 986.50 833.82 C 982.08 832.10 981.47 826.58 978.02 824.24 C 972.07 828.41 969.56 835.34 961.17 835.57 C 962.45 820.96 943.63 834.27 937.03 824.61 C 941.40 811.47 926.87 818.98 919.75 816.37 C 922.07 809.75 933.88 813.29 934.61 804.94 C 933.99 799.66 928.53 803.37 925.52 802.04 C 924.24 791.52 941.02 793.51 941.33 783.16 C 938.72 778.94 941.21 775.14 945.05 772.92 Z"
       id="path409" />
  </g>
  <g target="9"
     id="#7f0040ff">
    <path
       fill="#7f0040"
       fill-opacity="0.00"
       d=" M 765.17 800.15 C 769.96 795.38 774.64 799.77 776.29 804.77 C 782.34 806.56 790.50 804.89 794.53 811.09 C 799.69 811.34 805.21 801.26 808.20 811.20 C 803.56 816.76 794.02 814.65 790.27 821.58 C 789.14 826.69 798.64 829.82 800.29 824.35 C 805.16 823.12 803.66 833.90 807.70 836.46 C 808.72 845.02 799.27 843.02 794.57 846.55 C 785.07 860.80 790.59 878.86 794.14 895.04 C 779.77 887.45 763.47 895.90 748.19 891.33 C 738.11 881.40 721.54 884.69 711.03 874.69 C 705.10 857.86 697.99 833.49 719.32 824.35 C 716.75 810.03 732.73 820.16 739.67 821.21 C 742.33 827.39 749.70 825.91 751.98 820.24 C 757.57 819.98 765.79 810.37 758.64 806.43 C 754.62 803.31 763.52 801.64 765.17 800.15 Z"
       id="path418" />
  </g>
  <g target="20"
     id="#bf407fff">
    <path
       fill="#bf407f"
       fill-opacity="0.00"
       d=" M 978.02 824.24 C 981.47 826.58 982.08 832.10 986.50 833.82 C 988.93 841.41 979.67 844.07 978.38 850.69 C 971.52 857.40 984.34 864.81 979.12 872.86 C 984.50 875.78 981.18 880.14 984.69 884.01 C 979.37 891.35 969.03 881.92 964.10 890.89 C 975.67 897.78 957.80 894.53 957.79 902.81 C 952.88 902.98 943.00 911.14 942.54 919.27 C 935.44 917.94 936.68 926.41 936.80 931.08 C 926.20 934.03 920.65 926.86 912.79 921.88 C 912.12 915.93 913.38 909.88 911.84 904.01 C 908.75 894.71 921.73 887.78 916.14 878.40 C 919.53 872.94 925.11 867.34 923.57 860.24 C 918.36 862.06 917.59 859.34 919.17 854.79 C 914.46 853.73 910.30 851.09 905.88 849.29 C 906.20 847.27 906.53 845.26 906.82 843.25 C 915.34 845.16 918.36 836.26 918.36 830.34 C 928.03 824.19 919.23 838.49 927.90 834.08 C 936.85 836.64 932.72 827.95 937.03 824.61 C 943.63 834.27 962.45 820.96 961.17 835.57 C 969.56 835.34 972.07 828.41 978.02 824.24 Z"
       id="path421" />
  </g>
  <g target="7"
     id="#000040ff">
    <path
       fill="#000040"
       fill-opacity="0.00"
       d=" M 875.69 831.24 C 880.42 835.32 883.53 829.53 887.15 827.29 C 887.50 832.34 880.53 834.09 881.92 839.62 C 880.28 842.34 882.44 844.05 885.06 844.30 C 889.13 849.24 883.39 854.70 884.45 860.14 C 879.33 855.28 874.07 865.05 869.82 859.19 C 864.94 861.61 870.49 872.87 861.20 869.14 C 867.64 863.47 856.14 870.16 855.82 864.07 C 850.30 873.49 842.35 885.64 830.42 883.19 C 828.38 891.29 834.33 902.19 832.91 911.24 C 817.45 909.31 811.07 891.13 794.14 895.04 C 790.59 878.86 785.07 860.80 794.57 846.55 C 799.27 843.02 808.72 845.02 807.70 836.46 C 816.51 834.75 825.65 832.59 834.36 830.29 C 832.37 843.29 849.49 831.88 856.91 837.84 C 858.39 828.43 868.61 825.91 875.69 831.24 Z"
       id="path424" />
  </g>
  <g target="15"
     id="#bfbf7fff">
    <path
       fill="#bfbf7f"
       fill-opacity="0.00"
       d=" M 881.92 839.62 C 890.31 839.49 903.16 831.93 906.82 843.25 C 906.53 845.26 906.20 847.27 905.88 849.29 C 898.51 841.49 902.61 856.94 896.50 850.54 C 882.93 846.10 894.29 862.37 891.61 868.73 C 899.52 870.69 907.00 876.94 906.38 885.56 C 903.03 891.48 896.99 891.44 892.03 887.44 C 890.12 898.25 893.34 909.30 892.88 919.96 C 876.56 914.22 863.36 934.00 847.59 927.30 C 849.03 917.70 840.83 913.04 832.91 911.24 C 834.33 902.19 828.38 891.29 830.42 883.19 C 842.35 885.64 850.30 873.49 855.82 864.07 C 856.14 870.16 867.64 863.47 861.20 869.14 C 870.49 872.87 864.94 861.61 869.82 859.19 C 874.07 865.05 879.33 855.28 884.45 860.14 C 883.39 854.70 889.13 849.24 885.06 844.30 C 882.44 844.05 880.28 842.34 881.92 839.62 Z"
       id="path427" />
  </g>
  <g target="20"
     id="#40bf7fff">
    <path
       fill="#40bf7f"
       fill-opacity="0.00"
       d=" M 896.50 850.54 C 902.61 856.94 898.51 841.49 905.88 849.29 C 910.30 851.09 914.46 853.73 919.17 854.79 C 917.59 859.34 918.36 862.06 923.57 860.24 C 925.11 867.34 919.53 872.94 916.14 878.40 C 921.73 887.78 908.75 894.71 911.84 904.01 C 913.38 909.88 912.12 915.93 912.79 921.88 C 908.14 921.96 901.55 915.78 899.88 923.00 C 897.68 928.18 895.14 921.34 892.88 919.96 C 893.34 909.30 890.12 898.25 892.03 887.44 C 896.99 891.44 903.03 891.48 906.38 885.56 C 907.00 876.94 899.52 870.69 891.61 868.73 C 894.29 862.37 882.93 846.10 896.50 850.54 Z"
       id="path430" />
  </g>
</svg>
