<?xml version="1.0" encoding="UTF-8" standalone="no"?>
<svg
   xmlns:dc="http://purl.org/dc/elements/1.1/"
   xmlns:cc="http://creativecommons.org/ns#"
   xmlns:rdf="http://www.w3.org/1999/02/22-rdf-syntax-ns#"
   xmlns:svg="http://www.w3.org/2000/svg"
   xmlns="http://www.w3.org/2000/svg"
   xmlns:sodipodi="http://sodipodi.sourceforge.net/DTD/sodipodi-0.dtd"
   xmlns:inkscape="http://www.inkscape.org/namespaces/inkscape"
   width="1920pt"
   height="1080pt"
   viewBox="0 0 1920 1080"
   version="1.1"
   id="svg2"
   inkscape:version="0.48.4 r9939"
   sodipodi:docname="all_regions_borders_right.svg">
  <g target="32"
     id="#80407fff">
     <path
       fill="#80407f"
       fill-opacity="0"
       d=" M 505.20 191.95 C 559.18 171.75 616.08 156.25 673.59 153.62 C 675.05 159.80 675.59 166.32 678.31 172.14 C 677.21 172.87 676.12 173.61 675.04 174.35 C 668.18 176.21 661.21 177.78 654.09 178.13 C 652.93 178.28 651.78 178.45 650.64 178.65 C 633.18 179.53 615.95 182.35 599.08 186.96 C 595.90 179.40 585.34 185.43 582.79 188.80 C 576.18 185.97 569.14 190.98 562.88 192.84 C 547.71 199.97 529.81 199.83 515.71 208.97 C 510.71 210.37 506.23 214.62 501.13 214.11 C 499.16 210.47 499.66 204.38 494.94 203.06 C 491.40 196.03 501.80 196.04 505.20 191.95 Z"
       id="path32" />
    <path
       fill="#80407f"
       fill-opacity="0"
       d=" M 768.51 126.32 C 778.53 115.55 781.23 138.82 779.05 143.90 C 768.55 146.97 771.58 134.82 769.03 130.09 C 771.48 140.86 771.37 152.68 756.20 148.89 C 755.72 136.78 750.77 139.91 752.73 149.24 C 743.39 149.60 733.20 151.07 725.77 147.94 C 724.03 142.20 723.10 136.23 722.12 130.33 C 731.30 123.04 744.46 127.94 753.33 124.83 C 758.14 127.07 766.33 122.26 768.51 126.32 Z"
       id="path30" />
    <path
       fill="#7f4080"
       fill-opacity="0"
       d=" M 409.61 222.94 C 409.85 223.10 410.34 223.41 410.59 223.57 L 409.84 223.76 L 409.61 222.94 Z"
       id="path152" />
    <path
       fill="#7f4080"
       fill-opacity="0"
       d=" M 408.26 224.26 L 409.25 224.25 C 408.94 224.43 408.32 224.77 408.01 224.94 L 408.26 224.26 Z"
       id="path154" />
    <path
       fill="#7f4080"
       fill-opacity="0"
       d=" M 349.30 256.10 C 346.56 254.46 348.03 259.06 349.30 256.10 Z"
       id="path156" />
    <path
       fill="#7f4080"
       fill-opacity="0"
       d=" M 270.74 296.80 C 271.32 296.67 272.47 296.42 273.05 296.29 C 272.78 297.67 271.99 298.11 270.68 297.63 L 270.74 296.80 Z"
       id="path158" />
  </g>
  <g target="26"
     id="#bf7f00ff">
     <path
       fill="#bf7f00"
       fill-opacity="0"
       d=" M 800.74 144.57 C 814.94 136.75 826.91 134.50 842.82 134.15 C 840.93 148.59 852.25 157.13 854.46 169.05 C 868.66 168.90 872.61 181.74 869.02 194.16 C 867.46 194.83 867.50 195.39 869.15 195.84 C 869.18 196.26 869.26 197.10 869.30 197.52 C 867.84 198.69 866.43 199.92 864.97 201.08 C 858.01 199.10 847.77 205.34 843.55 198.77 C 836.97 201.75 824.48 195.18 818.11 204.94 C 817.25 204.05 817.25 204.05 818.11 204.94 C 820.42 208.81 810.55 209.59 814.80 214.33 C 822.60 218.94 808.48 225.81 816.59 229.92 C 800.20 234.59 782.31 234.77 770.03 247.54 C 758.55 245.45 747.09 250.01 735.48 250.45 C 735.79 264.56 721.43 273.51 711.76 282.39 C 707.07 283.37 688.36 286.91 700.78 288.14 C 696.64 297.31 686.46 302.40 691.69 311.98 C 681.43 314.69 670.24 319.79 664.60 327.58 C 673.10 327.87 679.60 335.12 688.29 334.35 C 690.14 342.73 672.79 341.06 667.28 339.30 C 660.28 344.38 656.01 352.54 647.49 355.58 C 642.79 358.65 651.04 365.66 645.00 367.23 C 638.90 368.78 636.05 375.25 629.99 376.79 C 616.87 386.35 598.62 386.66 589.38 401.57 C 586.79 407.19 595.24 408.03 596.57 410.74 C 595.79 423.97 581.06 413.08 578.21 423.95 C 581.63 427.34 578.81 432.16 576.84 435.25 C 567.67 433.78 565.25 446.05 556.28 443.81 C 557.42 439.90 555.23 439.66 552.03 440.88 C 556.67 435.60 545.86 435.60 549.32 428.50 C 543.24 426.32 532.24 428.85 532.96 437.84 C 521.46 444.03 507.87 444.91 497.70 453.92 C 488.96 451.53 488.94 469.99 482.31 462.79 C 485.89 458.23 482.25 452.86 485.97 448.49 C 477.54 445.96 469.92 459.76 463.00 452.56 C 450.18 447.18 441.58 460.40 431.68 466.04 C 436.04 471.40 423.41 470.88 431.69 474.06 C 423.31 490.21 399.66 486.18 392.50 504.45 C 383.39 508.51 380.59 518.80 371.75 523.47 C 366.24 521.33 361.08 525.10 356.05 526.40 C 354.99 532.47 354.18 540.84 358.05 546.12 C 344.46 552.59 325.56 540.82 316.14 556.14 C 296.47 562.71 280.28 584.57 256.85 580.29 C 253.70 573.37 241.45 575.64 246.06 565.28 C 254.78 556.33 268.98 555.91 276.48 545.82 C 281.87 545.58 292.12 541.30 286.76 535.13 C 296.87 523.22 307.51 508.69 305.20 494.22 C 305.81 493.03 305.81 493.03 305.20 494.22 C 295.83 496.25 288.14 495.03 294.88 483.71 C 304.53 478.83 315.52 477.85 317.04 465.47 C 313.94 459.99 320.37 457.40 323.50 454.22 C 323.88 453.87 324.63 453.17 325.00 452.82 C 325.26 452.63 325.76 452.24 326.02 452.05 C 327.39 450.61 332.11 449.70 329.47 447.40 C 334.85 439.31 351.99 441.53 354.59 430.74 C 349.89 431.75 351.01 426.17 347.33 424.80 C 351.64 410.41 372.05 414.90 376.76 402.03 C 367.15 405.11 371.14 397.45 374.98 392.50 C 369.61 393.84 374.56 389.83 376.41 388.28 C 370.80 383.03 360.39 387.19 356.22 382.48 C 362.28 377.46 370.33 374.54 373.06 366.23 C 382.35 361.70 395.54 362.06 402.51 355.36 C 396.57 350.24 400.70 344.82 405.83 341.74 C 407.21 341.99 407.82 341.43 407.67 340.07 C 419.57 335.57 435.61 331.87 442.63 319.50 C 453.07 314.59 465.66 311.66 471.95 301.41 C 467.75 302.61 470.84 297.28 465.53 298.26 C 470.48 294.44 482.88 291.85 479.89 283.46 C 494.14 275.26 502.22 263.95 514.31 253.62 C 525.88 252.24 536.50 246.08 545.39 238.83 C 547.93 233.82 538.24 236.57 538.36 232.41 C 548.38 219.29 569.21 226.17 579.01 212.99 C 581.65 204.83 593.44 209.18 597.69 204.16 C 591.84 200.85 601.89 195.66 604.36 201.03 C 603.59 202.21 603.80 203.19 604.99 203.96 C 604.22 205.16 604.42 206.13 605.60 206.86 C 608.89 212.74 611.11 202.21 609.89 198.95 C 610.20 197.31 610.54 195.68 610.96 194.06 L 611.76 193.90 C 613.90 193.50 616.06 192.99 617.97 191.90 C 622.13 186.70 622.21 196.12 626.33 192.25 C 634.22 186.06 644.55 188.88 653.69 189.13 C 653.49 185.46 652.03 182.00 650.64 178.65 C 651.78 178.45 652.93 178.28 654.09 178.13 C 656.15 193.12 677.70 187.89 675.04 174.35 C 676.12 173.61 677.21 172.87 678.31 172.14 C 684.51 169.07 685.56 174.33 687.31 178.82 C 694.97 180.27 692.34 173.04 690.85 168.19 C 693.97 171.34 700.06 163.81 699.13 172.87 C 698.50 179.90 710.30 177.69 712.03 173.13 C 716.47 176.96 724.17 171.90 729.61 174.27 C 729.10 168.03 727.03 162.04 726.09 155.87 C 732.27 158.73 726.83 171.55 734.08 173.93 C 740.32 171.57 747.69 171.62 742.45 162.00 C 747.28 157.79 746.08 169.03 749.03 171.03 C 749.06 167.06 744.10 158.69 750.88 160.05 C 754.37 161.56 750.16 172.35 756.88 169.82 C 757.18 162.78 753.97 156.09 752.73 149.24 C 750.77 139.91 755.72 136.78 756.20 148.89 C 759.02 154.54 755.59 161.68 758.87 166.84 C 765.58 169.87 767.44 161.48 767.87 158.33 C 767.19 170.97 775.04 161.81 781.72 162.28 C 783.22 164.95 782.55 170.89 786.87 170.00 C 786.38 164.76 784.91 159.63 784.92 154.33 C 789.86 156.62 783.40 173.10 793.50 169.51 C 805.05 170.08 789.02 144.36 797.22 148.94 C 794.55 159.40 800.76 153.99 797.22 148.94 C 796.19 145.63 797.24 143.98 800.74 144.57 M 797.91 157.14 C 797.88 170.14 803.03 165.26 797.91 157.14 M 802.27 165.27 C 802.77 165.77 802.77 165.77 802.27 165.27 M 694.96 175.03 C 693.16 178.94 698.51 176.58 694.96 175.03 C 696.87 170.04 691.56 172.00 694.96 175.03 M 817.27 202.27 C 817.77 202.77 817.77 202.77 817.27 202.27 M 547.18 234.18 C 546.17 238.19 551.19 233.18 547.18 234.18 M 550.27 427.27 C 550.77 427.77 550.77 427.77 550.27 427.27 Z"
       id="path37" />
    <path
       fill="#bf7f00"
       fill-opacity="0"
       d=" M 786.09 133.01 C 794.94 131.89 791.04 145.98 792.95 151.94 C 784.47 152.70 788.04 139.17 786.09 133.01 Z"
       id="path35" />
  </g>
  <g target="14"
     id="#bf4040ff">
     <path
       fill="#bf4040"
       fill-opacity="0"
       d=" M 1034.28 177.01 C 1040.89 173.18 1049.91 184.64 1053.84 176.55 C 1064.74 178.09 1075.93 179.45 1086.93 181.33 C 1088.67 189.06 1079.44 201.45 1091.76 203.23 C 1094.07 205.61 1093.09 209.10 1093.57 212.11 C 1115.55 214.03 1137.74 214.57 1159.34 218.45 C 1165.16 226.80 1177.09 222.42 1184.86 228.01 C 1193.02 233.98 1203.10 231.40 1212.01 229.03 C 1226.75 224.10 1242.16 228.61 1257.13 229.30 C 1259.88 224.57 1264.64 228.70 1262.12 232.92 C 1265.30 232.02 1266.97 221.11 1267.00 231.02 C 1263.36 232.89 1268.57 234.85 1267.00 231.02 C 1272.06 222.24 1271.87 237.43 1270.31 240.84 C 1277.59 242.79 1273.10 230.21 1278.86 228.70 C 1278.04 233.06 1275.93 237.24 1276.16 241.75 C 1282.48 244.39 1289.24 243.71 1295.66 242.01 C 1297.94 245.56 1302.11 246.66 1305.81 248.11 C 1310.72 252.64 1318.00 254.20 1320.91 260.87 C 1311.62 259.67 1301.70 260.89 1293.36 265.26 C 1290.06 266.66 1290.55 272.23 1294.76 270.61 C 1286.17 275.38 1304.70 280.52 1308.96 281.04 C 1316.94 281.14 1315.97 289.20 1320.78 292.47 C 1320.86 293.06 1321.02 294.23 1321.10 294.82 C 1315.77 298.87 1312.21 303.30 1305.68 296.95 C 1299.63 301.62 1273.58 291.12 1285.07 304.63 C 1269.78 300.21 1288.93 314.02 1276.28 315.26 C 1276.31 321.88 1286.61 323.39 1282.91 330.20 C 1275.53 327.22 1271.31 334.22 1263.72 332.39 C 1267.17 340.10 1255.10 332.26 1252.63 329.63 C 1247.28 332.64 1239.54 333.94 1234.02 330.36 C 1228.01 333.17 1240.86 339.21 1234.24 341.63 C 1229.01 336.85 1222.89 340.73 1216.46 338.29 C 1205.74 340.24 1206.54 350.91 1209.60 360.15 C 1218.13 363.76 1217.76 375.06 1213.26 381.16 C 1213.00 384.11 1211.77 387.23 1208.39 387.52 C 1204.64 389.72 1203.34 378.94 1200.47 385.14 C 1198.70 383.97 1189.44 376.48 1190.42 384.28 C 1180.22 384.79 1169.91 384.50 1162.55 377.47 C 1157.30 375.60 1151.00 372.41 1146.27 377.25 C 1146.42 380.63 1150.28 386.85 1144.41 385.52 C 1146.86 395.56 1133.42 399.29 1128.21 399.86 C 1131.55 402.60 1127.35 404.09 1125.02 405.21 C 1124.19 404.05 1124.19 404.05 1125.02 405.21 C 1122.68 409.38 1126.31 411.43 1129.44 413.41 C 1129.27 421.10 1128.63 428.71 1131.62 436.07 C 1126.78 433.61 1119.88 433.71 1118.53 439.93 C 1108.19 452.96 1087.48 431.49 1082.90 450.06 C 1069.87 450.52 1053.76 443.00 1040.76 451.70 C 1038.79 452.84 1042.50 454.95 1040.92 455.77 C 1033.59 455.31 1039.02 467.28 1031.07 465.64 C 1031.46 469.15 1031.93 472.69 1031.43 476.22 C 1027.21 476.42 1024.32 472.01 1020.28 472.31 C 1020.84 478.48 1028.84 480.05 1030.71 485.70 C 1028.14 487.42 1024.60 488.54 1023.76 491.90 C 1024.76 500.14 1014.71 490.58 1015.81 498.00 C 1026.84 499.02 1028.74 509.91 1026.12 516.46 C 1014.11 511.69 1011.50 527.87 1011.97 536.24 C 999.57 536.15 986.86 534.09 974.67 537.18 C 977.85 544.26 967.49 543.06 963.67 540.37 C 947.85 532.93 931.18 539.96 914.41 539.23 C 907.68 527.19 883.60 538.20 877.22 521.78 C 873.67 511.55 860.97 520.88 855.46 512.54 C 847.84 518.69 842.70 503.45 833.40 507.42 C 824.73 494.66 809.13 500.47 797.17 502.14 C 790.46 499.39 799.25 478.97 789.16 486.70 C 786.98 480.29 791.99 475.45 792.78 469.33 C 793.51 466.92 795.17 463.90 792.92 461.81 C 792.73 461.86 792.33 461.95 792.14 462.00 C 791.51 461.37 790.90 460.75 790.28 460.14 C 794.43 455.08 789.74 447.32 795.63 443.68 C 795.06 439.65 788.81 440.61 787.68 436.58 C 782.75 435.00 780.38 443.73 777.67 438.21 C 768.25 442.91 766.69 428.73 774.95 426.98 C 765.95 418.23 750.11 408.73 738.96 420.21 C 727.57 426.96 712.11 431.67 704.06 441.99 C 699.52 442.12 695.37 443.80 691.32 445.38 C 688.45 439.19 688.96 449.79 684.95 448.97 C 683.04 442.43 699.60 438.12 688.10 438.00 C 690.23 431.89 680.87 439.37 677.58 439.38 C 672.24 437.84 666.96 439.91 661.57 438.41 C 655.25 444.96 638.67 446.22 640.57 433.47 C 651.13 425.23 658.48 413.50 670.41 407.15 C 674.03 404.35 677.70 401.61 681.20 398.63 C 676.81 396.35 672.14 392.60 676.09 387.48 C 673.93 378.88 685.38 380.21 687.70 373.58 C 689.68 368.79 675.92 372.32 681.91 367.78 C 689.44 366.01 689.95 358.81 693.10 353.11 C 693.67 351.84 693.67 351.84 693.10 353.11 C 690.94 348.13 684.30 346.09 679.57 348.65 C 681.33 342.16 690.15 346.64 692.70 341.83 C 690.39 336.95 696.39 332.12 688.29 334.35 C 679.60 335.12 673.10 327.87 664.60 327.58 C 670.24 319.79 681.43 314.69 691.69 311.98 C 686.46 302.40 696.64 297.31 700.78 288.14 C 688.36 286.91 707.07 283.37 711.76 282.39 C 721.43 273.51 735.79 264.56 735.48 250.45 C 747.09 250.01 758.55 245.45 770.03 247.54 C 782.31 234.77 800.20 234.59 816.59 229.92 C 808.48 225.81 822.60 218.94 814.80 214.33 C 810.55 209.59 820.42 208.81 818.11 204.94 C 824.48 195.18 836.97 201.75 843.55 198.77 C 847.77 205.34 858.01 199.10 864.97 201.08 C 867.85 201.71 870.51 200.96 869.30 197.52 C 869.26 197.10 869.18 196.26 869.15 195.84 C 869.11 195.42 869.05 194.58 869.02 194.16 C 868.50 206.72 883.82 199.55 887.94 207.01 C 897.28 210.70 908.63 209.08 918.80 210.21 C 926.35 214.86 920.15 196.94 924.67 200.26 C 940.01 204.84 960.24 200.93 975.81 210.50 C 977.85 216.30 975.90 241.84 980.84 228.09 C 979.00 237.09 988.51 235.32 993.15 238.73 C 1002.75 237.63 999.25 219.04 1011.02 223.55 C 1012.06 230.72 1022.30 231.02 1027.62 228.80 C 1036.96 222.89 1048.19 231.41 1057.76 225.95 C 1061.35 221.30 1058.03 214.48 1058.46 209.13 C 1050.22 206.89 1043.31 213.52 1035.01 208.02 C 1024.19 201.90 1035.25 225.94 1024.97 218.21 C 1018.32 216.33 1023.13 207.28 1022.57 202.84 C 1010.93 207.91 1019.76 187.57 1017.60 180.34 C 1029.25 179.26 1015.20 197.46 1027.10 197.20 C 1029.57 190.43 1024.76 178.78 1034.28 177.01 M 1289.27 266.27 C 1289.76 266.77 1289.76 266.77 1289.27 266.27 Z"
       id="path71" />
    <path
       fill="#bf4040"
       fill-opacity="0"
       d=" M 1137.18 166.12 C 1140.80 168.07 1136.48 179.49 1135.72 184.97 C 1133.85 179.92 1136.92 172.25 1137.18 166.12 Z"
       id="path67" />
    <path
       fill="#bf4040"
       fill-opacity="0"
       d=" M 1096.02 170.16 C 1104.23 164.72 1096.55 180.88 1099.75 182.57 C 1109.22 180.19 1128.63 191.26 1126.24 174.19 C 1128.92 181.91 1131.06 197.16 1125.72 206.67 C 1114.54 210.14 1102.64 205.98 1091.76 203.23 C 1091.06 192.05 1094.47 181.13 1096.02 170.16 Z"
       id="path69" />
    
    <path
       fill="#bf4040"
       fill-opacity="0"
       d=" M 817.27 202.27 C 817.77 202.77 817.77 202.77 817.27 202.27 Z"
       id="path73" />
    <path
       fill="#bf4040"
       fill-opacity="0"
       d=" M 1305.81 248.11 C 1306.87 247.21 1306.87 247.21 1305.81 248.11 Z"
       id="path75" />
  </g>
  <!--
  <g
     id="#a04080ff">
    <path
       fill="#a04080"
       fill-opacity="0.00"
       d=" M 694.96 175.03 C 691.56 172.00 696.87 170.04 694.96 175.03 Z"
       id="path78" />
    <path
       fill="#a04080"
       fill-opacity="0.00"
       d=" M 1382.27 424.27 C 1382.76 424.77 1382.76 424.77 1382.27 424.27 Z"
       id="path80" />
    <path
       fill="#a04080"
       fill-opacity="0.00"
       d=" M 1158.82 572.87 C 1162.58 571.37 1157.51 568.94 1158.82 572.87 Z"
       id="path82" />
    <path
       fill="#a04080"
       fill-opacity="0.00"
       d=" M 1239.78 610.37 C 1241.26 610.17 1242.30 611.55 1242.07 612.96 C 1240.62 613.03 1239.57 611.74 1239.78 610.37 Z"
       id="path84" />
    <path
       fill="#a04080"
       fill-opacity="0.00"
       d=" M 1242.22 613.73 C 1242.39 614.07 1242.72 614.75 1242.89 615.09 C 1242.72 614.75 1242.39 614.07 1242.22 613.73 Z"
       id="path86" />
    <path
       fill="#a04080"
       fill-opacity="0.00"
       d=" M 1249.13 655.96 C 1257.66 657.76 1244.31 663.48 1249.13 655.96 Z"
       id="path88" />
    <path
       fill="#a04080"
       fill-opacity="0.00"
       d=" M 919.07 663.07 C 919.19 663.40 919.44 664.06 919.57 664.39 C 919.44 664.06 919.19 663.40 919.07 663.07 Z"
       id="path90" />
    <path
       fill="#a04080"
       fill-opacity="0.00"
       d=" M 932.93 701.75 C 931.36 701.15 931.38 700.58 933.00 700.06 C 932.98 700.48 932.95 701.33 932.93 701.75 Z"
       id="path92" />
    <path
       fill="#a04080"
       fill-opacity="0.00"
       d=" M 1544.79 706.84 C 1545.94 706.11 1545.94 706.11 1544.79 706.84 Z"
       id="path94" />
    <path
       fill="#a04080"
       fill-opacity="0.00"
       d=" M 502.04 711.13 C 502.34 711.32 502.94 711.72 503.24 711.92 C 502.94 711.72 502.34 711.32 502.04 711.13 Z"
       id="path96" />
  </g>
-->
<!--
  <g
     id="#a0407fff">
    <path
       fill="#a0407f"
       fill-opacity="0.00"
       d=" M 694.96 175.03 C 698.51 176.58 693.16 178.94 694.96 175.03 Z"
       id="path102" />
    <path
       fill="#a0407f"
       fill-opacity="0.00"
       d=" M 395.16 640.90 C 395.30 640.58 395.57 639.94 395.71 639.61 C 395.57 639.94 395.30 640.58 395.16 640.90 Z"
       id="path104" />
    <path
       fill="#a0407f"
       fill-opacity="0.00"
       d=" M 1534.54 731.89 C 1534.69 731.73 1535.00 731.42 1535.16 731.26 L 1535.14 731.87 L 1534.54 731.89 Z"
       id="path106" />
    <path
       fill="#a0407f"
       fill-opacity="0.00"
       d=" M 1536.27 764.27 C 1536.76 764.77 1536.76 764.77 1536.27 764.27 Z"
       id="path108" />
    <path
       fill="#a0407f"
       fill-opacity="0.00"
       d=" M 1528.45 778.02 C 1528.55 777.71 1528.77 777.08 1528.88 776.77 C 1528.77 777.08 1528.55 777.71 1528.45 778.02 Z"
       id="path110" />
    <path
       fill="#a0407f"
       fill-opacity="0.00"
       d=" M 1485.30 827.18 C 1485.52 826.92 1485.97 826.42 1486.19 826.17 C 1485.97 826.42 1485.52 826.92 1485.30 827.18 Z"
       id="path112" />
    <path
       fill="#a0407f"
       fill-opacity="0.00"
       d=" M 1305.24 826.84 C 1305.42 827.13 1305.78 827.71 1305.96 828.00 C 1305.78 827.71 1305.42 827.13 1305.24 826.84 Z"
       id="path114" />
  </g>
-->
  <g target="83"
     id="#000000ff">
    <path
       fill="#000000"
       fill-opacity="0"
       d=" M 582.79 188.80 C 585.34 185.43 595.90 179.40 599.08 186.96 C 601.15 191.52 602.78 196.27 604.36 201.03 C 601.89 195.66 591.84 200.85 597.69 204.16 C 593.44 209.18 581.65 204.83 579.01 212.99 C 569.21 226.17 548.38 219.29 538.36 232.41 C 538.24 236.57 547.93 233.82 545.39 238.83 C 536.50 246.08 525.88 252.24 514.31 253.62 C 502.22 263.95 494.14 275.26 479.89 283.46 C 482.88 291.85 470.48 294.44 465.53 298.26 C 470.84 297.28 467.75 302.61 471.95 301.41 C 465.66 311.66 453.07 314.59 442.63 319.50 C 435.61 331.87 419.57 335.57 407.67 340.07 C 407.68 338.65 407.65 337.24 407.71 335.84 C 408.82 335.24 408.82 335.24 407.71 335.84 C 400.16 338.88 406.57 327.62 400.53 328.84 C 394.35 332.48 398.88 323.56 401.17 321.43 C 391.47 321.92 383.18 331.23 373.62 326.40 C 366.00 327.11 371.46 320.22 373.77 317.08 C 370.50 311.28 358.39 314.97 363.08 305.80 C 363.26 305.63 363.63 305.30 363.82 305.13 C 364.54 304.51 364.54 304.51 363.82 305.13 C 363.63 305.30 363.26 305.63 363.08 305.80 C 360.67 305.80 358.27 305.72 355.90 305.33 C 355.52 300.83 364.48 302.13 362.74 297.57 C 365.31 292.79 376.35 292.86 373.38 285.27 C 368.79 286.55 363.99 287.00 359.23 287.13 C 358.90 282.44 367.57 283.65 365.62 278.61 C 362.06 278.28 358.48 278.79 354.91 278.66 C 360.69 268.80 375.06 268.95 382.06 259.97 C 382.36 259.79 382.97 259.44 383.27 259.27 L 383.94 259.07 C 384.11 259.02 384.46 258.91 384.63 258.86 C 405.30 250.50 427.64 247.20 447.85 237.32 C 448.63 236.36 448.63 236.36 447.85 237.32 C 446.94 232.95 454.07 232.84 456.85 230.66 C 465.54 231.89 476.74 212.58 481.15 226.72 C 487.15 222.01 493.38 217.36 501.13 214.11 C 506.23 214.62 510.71 210.37 515.71 208.97 C 529.81 199.83 547.71 199.97 562.88 192.84 C 569.14 190.98 576.18 185.97 582.79 188.80 M 367.27 280.27 C 367.77 280.77 367.77 280.77 367.27 280.27 Z"
       id="path117" />
    <path
       fill="#000000"
       fill-opacity="0"
       d=" M 611.15 191.95 C 606.85 184.12 618.90 184.44 617.97 191.90 C 616.06 192.99 613.90 193.50 611.76 193.90 C 611.56 193.94 611.16 194.02 610.96 194.06 C 610.54 195.68 610.20 197.31 609.89 198.95 C 607.72 195.33 605.15 184.81 611.15 191.95 Z"
       id="path119" />
    <path
       fill="#000000"
       fill-opacity="0"
       d=" M 604.36 201.03 C 605.49 201.80 605.70 202.78 604.99 203.96 C 603.80 203.19 603.59 202.21 604.36 201.03 Z"
       id="path121" />
    <path
       fill="#000000"
       fill-opacity="0"
       d=" M 604.99 203.96 C 606.12 204.73 606.32 205.70 605.60 206.86 C 604.42 206.13 604.22 205.16 604.99 203.96 Z"
       id="path123" />
    <path
       fill="#000000"
       fill-opacity="0"
       d=" M 547.18 234.18 C 551.19 233.18 546.17 238.19 547.18 234.18 Z"
       id="path125" />
    <path
       fill="#000000"
       fill-opacity="0"
       d=" M 354.27 305.27 C 354.77 305.77 354.77 305.77 354.27 305.27 Z"
       id="path127" />
    <path
       fill="#000000"
       fill-opacity="0"
       d=" M 405.83 341.74 C 405.72 340.36 406.33 339.80 407.67 340.07 C 407.82 341.43 407.21 341.99 405.83 341.74 Z"
       id="path129" />
  </g>
  <g target="53"
     id="#00bf00ff">
    <path
       fill="#00bf00"
       fill-opacity="0"
       d=" M 409.61 222.94 C 440.17 208.98 471.36 196.31 503.03 185.12 C 504.23 187.21 504.71 189.61 505.20 191.95 C 501.80 196.04 491.40 196.03 494.94 203.06 C 486.36 204.36 480.80 212.93 472.39 213.80 C 470.51 210.69 469.65 207.11 468.12 203.84 C 449.60 206.04 430.14 215.27 410.59 223.57 C 410.34 223.41 409.85 223.10 409.61 222.94 Z"
       id="path132" />
    <path
       fill="#00bf00"
       fill-opacity="0"
       d=" M 408.26 224.26 C 408.60 223.93 409.27 223.27 409.61 222.94 L 409.84 223.76 L 409.25 224.25 L 408.26 224.26 Z"
       id="path134" />
    <path
       fill="#00bf00"
       fill-opacity="0"
       d=" M 405.31 226.45 C 403.53 224.40 406.77 223.64 408.26 224.26 L 408.01 224.94 C 407.15 225.52 406.25 226.02 405.31 226.45 Z"
       id="path136" />
  </g>
  <g target="80"
     id="#7fbf00ff">
    <path
       fill="#7fbf00"
       fill-opacity="0"
       d=" M 410.59 223.57 C 430.14 215.27 449.60 206.04 468.12 203.84 C 469.65 207.11 470.51 210.69 472.39 213.80 C 480.80 212.93 486.36 204.36 494.94 203.06 C 499.66 204.38 499.16 210.47 501.13 214.11 C 493.38 217.36 487.15 222.01 481.15 226.72 C 476.74 212.58 465.54 231.89 456.85 230.66 C 442.80 232.72 429.70 239.95 415.53 241.95 C 411.05 240.12 406.87 236.69 409.18 231.65 C 401.63 231.60 394.71 236.96 386.88 236.90 C 390.09 233.63 394.22 231.56 398.00 229.09 C 400.45 228.24 402.95 227.53 405.31 226.45 C 406.25 226.02 407.15 225.52 408.01 224.94 C 408.32 224.77 408.94 224.43 409.25 224.25 L 409.84 223.76 L 410.59 223.57 Z"
       id="path139" />
  </g>
  <g target="82"
     id="#bfbfbfff">
    <path
       fill="#bfbfbf"
       fill-opacity="0"
       d=" M 1363.55 206.08 C 1370.58 204.93 1378.58 209.76 1384.72 205.20 C 1383.53 213.55 1379.54 221.07 1377.25 229.10 C 1416.33 232.96 1455.62 242.23 1492.75 253.67 C 1500.46 251.11 1507.94 252.99 1515.09 255.99 C 1525.40 259.38 1541.30 261.65 1543.09 274.17 C 1550.75 277.44 1556.62 283.71 1564.38 286.84 C 1566.06 294.33 1558.42 300.92 1555.65 307.64 C 1546.71 306.98 1538.60 302.10 1529.50 301.96 C 1524.86 301.41 1516.70 292.42 1515.59 301.53 C 1521.44 298.10 1527.71 304.96 1533.18 306.77 C 1546.04 316.32 1564.38 318.12 1573.83 332.13 C 1570.65 338.11 1567.03 343.86 1563.62 349.71 C 1559.76 349.50 1555.71 346.91 1552.09 349.14 C 1553.29 343.41 1544.47 344.85 1541.31 341.76 C 1531.46 329.94 1519.44 346.97 1508.12 347.13 C 1498.69 340.38 1487.03 337.96 1475.81 336.16 C 1476.15 315.45 1449.98 318.35 1435.62 312.78 C 1420.45 314.98 1409.59 308.16 1395.27 311.21 C 1394.17 310.27 1394.17 310.27 1395.27 311.21 C 1394.98 311.68 1394.38 312.60 1394.09 313.06 C 1393.26 311.92 1393.26 311.92 1394.09 313.06 C 1394.31 313.34 1394.75 313.90 1394.97 314.18 C 1381.27 314.81 1368.94 308.23 1355.71 307.02 C 1348.34 301.72 1336.90 305.20 1331.25 297.78 C 1330.99 291.90 1324.79 293.90 1320.78 292.47 C 1315.97 289.20 1316.94 281.14 1308.96 281.04 C 1304.70 280.52 1286.17 275.38 1294.76 270.61 C 1290.55 272.23 1290.06 266.66 1293.36 265.26 C 1301.70 260.89 1311.62 259.67 1320.91 260.87 C 1318.00 254.20 1310.72 252.64 1305.81 248.11 C 1306.87 247.21 1306.87 247.21 1305.81 248.11 C 1302.11 246.66 1297.94 245.56 1295.66 242.01 C 1306.28 237.04 1318.28 243.91 1328.56 239.87 C 1329.43 232.17 1335.81 233.38 1341.73 233.78 C 1343.07 224.70 1363.83 236.71 1356.68 226.37 C 1357.68 219.75 1361.28 212.62 1363.55 206.08 Z"
       id="path147" />
    <path
       fill="#bfbfbf"
       fill-opacity="0"
       d=" M 1289.27 266.27 C 1289.76 266.77 1289.76 266.77 1289.27 266.27 Z"
       id="path149" />
  </g>
  <g target="10"
     id="#81407fff">
    <path
       fill="#81407f"
       fill-opacity="0"
       d=" M 277.95 291.07 C 316.77 268.38 356.40 246.21 398.00 229.09 C 394.22 231.56 390.09 233.63 386.88 236.90 C 386.46 237.22 385.62 237.88 385.20 238.21 L 385.10 237.51 C 385.65 236.21 385.65 236.21 385.10 237.51 C 383.19 236.05 381.12 239.34 384.07 239.17 C 371.85 243.48 361.81 253.10 349.30 256.10 C 348.44 252.72 345.16 255.22 343.44 256.43 C 333.02 264.12 319.03 267.57 309.91 276.30 C 309.72 276.30 309.35 276.32 309.17 276.32 C 308.69 276.44 307.74 276.67 307.27 276.78 C 306.24 277.90 306.24 277.90 307.27 276.78 C 307.74 276.67 308.69 276.44 309.17 276.32 L 309.91 276.30 C 298.47 283.43 285.66 290.57 273.05 296.29 C 273.70 295.08 274.35 293.86 275.03 292.67 C 275.52 292.54 276.51 292.28 277.00 292.15 C 277.24 291.88 277.71 291.34 277.95 291.07 M 303.28 278.09 C 303.43 281.41 306.26 276.54 303.28 278.09 Z"
       id="path161" />
  </g>
  <g target="11"
     id="#00407fff">
    <path
       fill="#00407f"
       fill-opacity="0"
       d=" M 415.53 241.95 C 429.70 239.95 442.80 232.72 456.85 230.66 C 454.07 232.84 446.94 232.95 447.85 237.32 C 427.64 247.20 405.30 250.50 384.63 258.86 L 383.94 259.07 L 383.27 259.27 C 382.97 259.44 382.36 259.79 382.06 259.97 C 375.69 260.55 370.45 266.04 363.98 265.19 C 364.81 264.54 364.81 264.54 363.98 265.19 C 339.24 275.71 315.49 289.57 292.14 303.20 C 291.80 303.29 291.11 303.46 290.76 303.54 L 290.03 303.78 C 288.77 304.05 288.09 304.84 287.98 306.14 C 287.47 306.27 286.43 306.53 285.91 306.65 C 285.54 306.83 284.81 307.17 284.44 307.34 C 278.20 305.13 272.35 306.75 265.38 308.74 C 270.12 299.16 256.66 311.48 251.74 313.19 C 251.46 313.32 250.89 313.57 250.60 313.70 L 250.00 313.97 C 247.11 313.54 238.97 319.49 240.88 315.02 C 242.96 314.98 244.86 313.94 245.96 312.17 C 247.30 312.19 248.84 311.41 248.65 309.83 C 249.17 309.64 250.23 309.27 250.76 309.08 C 251.09 308.88 251.75 308.46 252.08 308.26 L 252.75 307.86 C 253.06 307.65 253.68 307.23 253.99 307.01 C 255.68 306.24 258.91 306.56 258.74 304.00 C 261.10 304.42 263.47 303.19 264.07 300.78 C 264.58 300.59 265.59 300.21 266.10 300.02 C 266.55 299.74 267.46 299.19 267.92 298.92 C 268.25 298.74 268.91 298.39 269.24 298.22 L 269.93 297.89 L 270.68 297.63 C 271.99 298.11 272.78 297.67 273.05 296.29 C 285.66 290.57 298.47 283.43 309.91 276.30 C 319.03 267.57 333.02 264.12 343.44 256.43 C 345.16 255.22 348.44 252.72 349.30 256.10 C 346.56 254.46 348.03 259.06 349.30 256.10 C 361.81 253.10 371.85 243.48 384.07 239.17 C 384.35 238.93 384.91 238.45 385.20 238.21 C 385.62 237.88 386.46 237.22 386.88 236.90 C 394.71 236.96 401.63 231.60 409.18 231.65 C 406.87 236.69 411.05 240.12 415.53 241.95 M 366.27 263.27 C 366.77 263.77 366.77 263.77 366.27 263.27 Z"
       id="path164" />
    <path
       fill="#00407f"
       fill-opacity="0"
       d=" M 238.27 318.27 C 238.77 318.77 238.77 318.77 238.27 318.27 Z"
       id="path166" />
    <path
       fill="#00407f"
       fill-opacity="0"
       d=" M 235.27 320.27 C 235.77 320.77 235.77 320.77 235.27 320.27 Z"
       id="path168" />
  </g>
  <g target="81"
     id="#7f0000ff">
    <path
       fill="#7f0000"
       fill-opacity="0"
       d=" M 363.98 265.19 C 370.45 266.04 375.69 260.55 382.06 259.97 C 375.06 268.95 360.69 268.80 354.91 278.66 C 358.48 278.79 362.06 278.28 365.62 278.61 C 367.57 283.65 358.90 282.44 359.23 287.13 C 363.99 287.00 368.79 286.55 373.38 285.27 C 376.35 292.86 365.31 292.79 362.74 297.57 C 364.48 302.13 355.52 300.83 355.90 305.33 C 358.27 305.72 360.67 305.80 363.08 305.80 C 358.39 314.97 370.50 311.28 373.77 317.08 C 371.46 320.22 366.00 327.11 373.62 326.40 C 383.18 331.23 391.47 321.92 401.17 321.43 C 398.88 323.56 394.35 332.48 400.53 328.84 C 406.57 327.62 400.16 338.88 407.71 335.84 C 407.65 337.24 407.68 338.65 407.67 340.07 C 406.33 339.80 405.72 340.36 405.83 341.74 C 400.70 344.82 396.57 350.24 402.51 355.36 C 395.54 362.06 382.35 361.70 373.06 366.23 C 369.18 353.01 351.47 373.10 345.69 363.38 C 350.80 355.08 329.28 366.10 335.44 356.91 C 331.18 356.67 327.21 355.43 324.07 352.64 C 313.41 358.47 303.24 365.46 293.06 372.25 C 281.00 373.00 273.06 382.50 262.10 385.86 C 259.23 385.12 258.10 382.59 257.70 379.90 C 258.81 379.37 258.81 379.37 257.70 379.90 C 251.80 377.74 260.77 376.28 261.12 372.95 C 263.10 373.96 262.62 370.63 260.96 372.00 C 265.08 366.13 274.01 358.08 266.20 351.94 C 253.50 360.64 237.92 362.61 223.86 366.97 C 227.53 358.94 239.41 357.87 240.02 348.17 C 253.72 338.22 266.90 327.64 280.62 317.66 C 282.92 314.41 290.85 310.04 285.91 306.65 C 286.43 306.53 287.47 306.27 287.98 306.14 C 289.65 307.33 291.71 305.24 290.03 303.78 L 290.76 303.54 C 291.11 303.46 291.80 303.29 292.14 303.20 C 315.49 289.57 339.24 275.71 363.98 265.19 M 354.27 305.27 C 354.77 305.77 354.77 305.77 354.27 305.27 Z"
       id="path199" />
    <path
       fill="#7f0000"
       fill-opacity="0"
       d=" M 367.27 280.27 C 367.77 280.77 367.77 280.77 367.27 280.27 Z"
       id="path201" />
    <path
       fill="#7f0000"
       fill-opacity="0"
       d=" M 363.08 305.80 C 363.26 305.63 363.63 305.30 363.82 305.13 C 363.63 305.30 363.26 305.63 363.08 305.80 Z"
       id="path203" />
    <path
       fill="#7f0000"
       fill-opacity="0"
       d=" M 407.71 335.84 C 408.82 335.24 408.82 335.24 407.71 335.84 Z"
       id="path205" />
    <path
       fill="#7f0000"
       fill-opacity="0"
       d=" M 261.12 372.95 C 261.08 372.71 261.00 372.23 260.96 372.00 L 261.12 372.95 Z"
       id="path207" />
  </g>
  <g target="78"
     id="#003f80ff">
    <path
       fill="#003f80"
       fill-opacity="0"
       d=" M 309.17 276.32 C 309.35 276.32 309.72 276.30 309.91 276.30 L 309.17 276.32 Z"
       id="path210" />
  </g>
  <g target="55"
     id="#00bf80ff">
    <path
       fill="#00bf80"
       fill-opacity="0"
       d=" M 277.00 292.15 C 277.24 291.88 277.71 291.34 277.95 291.07 C 277.71 291.34 277.24 291.88 277.00 292.15 Z"
       id="path213" />
    <path
       fill="#00bf80"
       fill-opacity="0"
       d=" M 257.13 304.23 C 261.63 298.53 269.13 296.53 275.03 292.67 C 274.35 293.86 273.70 295.08 273.05 296.29 C 272.47 296.42 271.32 296.67 270.74 296.80 C 270.54 297.07 270.14 297.62 269.93 297.89 L 269.24 298.22 C 268.91 298.39 268.25 298.74 267.92 298.92 C 267.46 299.19 266.55 299.74 266.10 300.02 C 265.59 300.21 264.58 300.59 264.07 300.78 C 261.99 301.27 260.21 302.49 258.74 304.00 C 258.34 304.06 257.53 304.17 257.13 304.23 Z"
       id="path215" />
    <path
       fill="#00bf80"
       fill-opacity="0"
       d=" M 247.00 309.83 C 249.52 307.90 252.20 306.15 255.10 304.83 C 254.83 305.38 254.27 306.47 253.99 307.01 C 253.68 307.23 253.06 307.65 252.75 307.86 L 252.08 308.26 C 251.75 308.46 251.09 308.88 250.76 309.08 C 250.23 309.27 249.17 309.64 248.65 309.83 C 248.24 309.83 247.41 309.83 247.00 309.83 Z"
       id="path217" />
    <path
       fill="#00bf80"
       fill-opacity="0"
       d=" M 244.27 312.09 C 244.08 310.50 245.69 309.83 247.00 309.83 C 246.74 310.42 246.22 311.59 245.96 312.17 C 245.54 312.15 244.70 312.11 244.27 312.09 Z"
       id="path219" />
    <path
       fill="#00bf80"
       fill-opacity="0"
       d=" M 242.07 312.88 C 242.62 312.68 243.72 312.29 244.27 312.09 C 243.72 312.29 242.62 312.68 242.07 312.88 Z"
       id="path221" />
  </g>
  <g target="61"
     id="#00c080ff">
    <path
       fill="#00c080"
       fill-opacity="0"
       d=" M 275.03 292.67 C 275.52 292.54 276.51 292.28 277.00 292.15 C 276.51 292.28 275.52 292.54 275.03 292.67 Z"
       id="path224" />
    <path
       fill="#00c080"
       fill-opacity="0"
       d=" M 255.10 304.83 C 255.61 304.68 256.63 304.38 257.13 304.23 C 256.63 304.38 255.61 304.68 255.10 304.83 Z"
       id="path226" />
    <path
       fill="#00c080"
       fill-opacity="0"
       d=" M 240.85 314.24 C 240.07 312.82 240.48 312.37 242.07 312.88 C 241.77 313.22 241.16 313.90 240.85 314.24 Z"
       id="path228" />
  </g>
  <g target="51"
     id="#bfbf40ff">
    <path
       fill="#bfbf40"
       fill-opacity="0"
       d=" M 1320.78 292.47 C 1324.79 293.90 1330.99 291.90 1331.25 297.78 C 1336.90 305.20 1348.34 301.72 1355.71 307.02 C 1368.94 308.23 1381.27 314.81 1394.97 314.18 C 1398.88 316.65 1407.88 318.89 1403.40 324.90 C 1411.94 331.15 1419.92 335.51 1420.01 346.17 C 1436.20 346.64 1434.77 363.06 1444.47 366.59 C 1449.34 373.01 1442.75 381.72 1445.05 389.14 C 1441.69 397.06 1438.54 405.92 1431.06 410.86 C 1428.06 408.38 1426.95 398.24 1422.63 404.59 C 1418.57 401.39 1413.20 395.73 1413.16 389.18 C 1410.47 381.06 1408.06 393.35 1403.75 390.22 C 1397.72 385.11 1389.81 389.73 1383.81 392.60 C 1387.48 401.44 1371.08 414.83 1383.26 422.24 C 1390.85 421.50 1396.67 426.45 1403.27 427.44 C 1401.00 442.84 1385.55 454.93 1371.47 449.24 C 1367.32 450.05 1366.33 456.46 1362.00 456.62 C 1353.88 451.91 1347.28 466.28 1338.98 457.09 C 1330.76 456.25 1343.46 445.52 1336.35 446.11 C 1332.49 448.44 1332.73 455.96 1328.87 457.94 C 1325.26 454.93 1336.93 445.24 1330.18 444.25 C 1326.30 454.49 1311.68 435.45 1308.90 446.94 C 1308.39 452.34 1302.06 461.63 1305.00 451.08 C 1310.35 443.46 1305.91 441.56 1305.00 451.08 C 1300.27 458.79 1292.07 451.29 1286.16 452.94 C 1281.87 457.65 1275.95 454.46 1270.69 454.13 C 1271.26 443.01 1286.00 429.49 1271.07 422.36 C 1269.15 426.15 1266.98 423.47 1265.53 420.89 C 1258.93 414.23 1248.14 422.30 1243.03 412.99 C 1245.13 408.91 1248.25 404.61 1253.09 407.76 C 1257.48 395.20 1238.29 376.97 1224.18 381.98 C 1220.63 380.98 1216.89 379.60 1213.26 381.16 C 1217.76 375.06 1218.13 363.76 1209.60 360.15 C 1206.54 350.91 1205.74 340.24 1216.46 338.29 C 1222.89 340.73 1229.01 336.85 1234.24 341.63 C 1240.86 339.21 1228.01 333.17 1234.02 330.36 C 1239.54 333.94 1247.28 332.64 1252.63 329.63 C 1255.10 332.26 1267.17 340.10 1263.72 332.39 C 1271.31 334.22 1275.53 327.22 1282.91 330.20 C 1286.61 323.39 1276.31 321.88 1276.28 315.26 C 1288.93 314.02 1269.78 300.21 1285.07 304.63 C 1273.58 291.12 1299.63 301.62 1305.68 296.95 C 1312.21 303.30 1315.77 298.87 1321.10 294.82 C 1322.62 298.58 1324.92 293.40 1321.10 294.82 C 1321.02 294.23 1320.86 293.06 1320.78 292.47 M 1382.27 424.27 C 1382.76 424.77 1382.76 424.77 1382.27 424.27 Z"
       id="path231" />
    <path
       fill="#bfbf40"
       fill-opacity="0"
       d=" M 1403.27 427.44 C 1403.70 426.12 1403.70 426.12 1403.27 427.44 Z"
       id="path233" />
    <path
       fill="#bfbf40"
       fill-opacity="0"
       d=" M 1398.27 442.27 C 1398.76 442.77 1398.76 442.77 1398.27 442.27 Z"
       id="path235" />
  </g>
  <g target="24"
     id="#bf40bfff">
    <path
       fill="#bf40bf"
       fill-opacity="0"
       d=" M 1395.27 311.21 C 1409.59 308.16 1420.45 314.98 1435.62 312.78 C 1449.98 318.35 1476.15 315.45 1475.81 336.16 C 1487.03 337.96 1498.69 340.38 1508.12 347.13 C 1519.44 346.97 1531.46 329.94 1541.31 341.76 C 1544.47 344.85 1553.29 343.41 1552.09 349.14 C 1549.25 357.99 1557.95 365.72 1554.68 374.57 C 1552.29 380.51 1558.33 383.82 1560.97 388.04 C 1557.12 393.92 1554.07 400.44 1549.61 405.87 C 1540.70 405.11 1534.47 395.26 1524.81 397.37 C 1520.48 402.60 1517.57 408.86 1514.98 415.08 C 1511.14 418.89 1508.20 408.95 1506.03 414.21 C 1504.80 419.59 1504.81 425.18 1504.04 430.64 C 1509.36 428.71 1510.45 419.17 1514.98 415.08 C 1518.16 410.94 1523.83 416.55 1524.90 420.04 C 1521.61 428.25 1517.27 436.15 1513.03 443.96 C 1517.89 450.15 1530.83 438.36 1534.17 450.01 C 1532.54 459.04 1542.19 463.02 1546.48 469.62 C 1554.52 467.10 1558.15 476.30 1563.57 480.45 C 1565.34 487.90 1557.73 492.63 1555.38 498.84 C 1560.47 506.61 1568.86 511.03 1575.98 516.66 C 1577.71 528.04 1567.01 535.21 1561.00 543.10 C 1564.96 550.98 1572.85 557.29 1578.00 563.99 C 1574.72 570.32 1569.99 576.60 1564.30 581.14 C 1579.35 596.12 1568.98 618.85 1564.24 636.15 C 1559.24 633.82 1555.57 640.49 1551.94 643.19 C 1550.56 642.22 1549.26 641.17 1548.06 640.03 C 1550.30 636.81 1545.74 633.93 1543.06 636.24 C 1513.33 588.94 1463.38 554.77 1444.17 500.83 C 1447.58 492.63 1449.58 480.44 1438.84 476.19 C 1439.18 469.58 1444.96 462.70 1448.18 456.48 C 1453.99 457.68 1458.67 449.48 1455.59 444.56 C 1450.49 433.34 1462.02 421.91 1455.27 410.97 C 1459.08 404.06 1465.99 390.31 1454.02 387.83 C 1451.87 377.99 1449.24 385.23 1445.05 389.14 C 1442.75 381.72 1449.34 373.01 1444.47 366.59 C 1434.77 363.06 1436.20 346.64 1420.01 346.17 C 1419.92 335.51 1411.94 331.15 1403.40 324.90 C 1407.88 318.89 1398.88 316.65 1394.97 314.18 C 1394.75 313.90 1394.31 313.34 1394.09 313.06 C 1394.38 312.60 1394.98 311.68 1395.27 311.21 M 1505.31 409.15 C 1497.78 415.61 1508.09 416.85 1505.31 409.15 Z"
       id="path307" />
    <path
       fill="#bf40bf"
       fill-opacity="0"
       d=" M 1394.09 313.06 C 1393.26 311.92 1393.26 311.92 1394.09 313.06 Z"
       id="path309" />
    <path
       fill="#bf40bf"
       fill-opacity="0"
       d=" M 1612.65 494.18 C 1621.29 493.67 1628.08 504.55 1635.53 506.59 C 1638.92 496.93 1649.49 504.37 1654.99 508.00 C 1651.20 513.49 1647.15 518.90 1642.63 523.79 C 1635.51 523.87 1626.40 513.00 1622.76 523.83 C 1614.53 521.64 1607.59 515.36 1600.07 511.90 C 1602.59 505.27 1608.30 499.85 1612.65 494.18 Z"
       id="path311" />
  </g>
  <g target="41"
     id="#007f7fff">
    <path
       fill="#007f7f"
       fill-opacity="0"
       d=" M 688.29 334.35 C 696.39 332.12 690.39 336.95 692.70 341.83 C 690.15 346.64 681.33 342.16 679.57 348.65 C 684.30 346.09 690.94 348.13 693.10 353.11 C 689.95 358.81 689.44 366.01 681.91 367.78 C 675.92 372.32 689.68 368.79 687.70 373.58 C 685.38 380.21 673.93 378.88 676.09 387.48 C 672.14 392.60 676.81 396.35 681.20 398.63 C 677.70 401.61 674.03 404.35 670.41 407.15 C 669.43 406.54 669.43 406.54 670.41 407.15 C 658.48 413.50 651.13 425.23 640.57 433.47 C 638.67 446.22 655.25 444.96 661.57 438.41 C 666.96 439.91 672.24 437.84 677.58 439.38 C 680.87 439.37 690.23 431.89 688.10 438.00 C 687.08 438.95 687.08 438.95 688.10 438.00 C 699.60 438.12 683.04 442.43 684.95 448.97 C 688.96 449.79 688.45 439.19 691.32 445.38 C 695.37 443.80 699.52 442.12 704.06 441.99 C 712.11 431.67 727.57 426.96 738.96 420.21 C 750.11 408.73 765.95 418.23 774.95 426.98 C 766.69 428.73 768.25 442.91 777.67 438.21 C 780.38 443.73 782.75 435.00 787.68 436.58 C 788.81 440.61 795.06 439.65 795.63 443.68 C 789.74 447.32 794.43 455.08 790.28 460.14 C 789.15 460.93 789.15 460.93 790.28 460.14 C 790.90 460.75 791.51 461.37 792.14 462.00 C 792.33 461.95 792.73 461.86 792.92 461.81 C 795.17 463.90 793.51 466.92 792.78 469.33 C 787.16 470.06 781.20 470.60 778.08 464.99 C 773.65 464.19 761.21 462.53 765.54 469.89 C 757.82 474.43 751.80 479.21 754.81 488.64 C 754.63 489.87 754.63 489.87 754.81 488.64 C 754.31 493.58 758.00 490.95 760.94 490.20 C 758.72 494.56 756.26 506.32 749.80 499.57 C 741.55 505.33 731.26 502.39 723.60 497.74 C 726.03 494.68 733.88 495.83 732.52 491.05 C 725.77 489.16 719.30 496.31 713.05 492.05 C 708.64 498.40 702.35 504.83 693.67 502.51 C 689.72 500.75 684.01 510.05 683.24 503.01 C 677.45 502.83 664.82 503.47 667.68 494.01 C 661.52 497.14 652.04 494.21 650.22 488.51 C 642.99 496.82 632.01 496.22 623.21 490.42 C 613.77 500.41 595.07 492.09 590.17 504.75 C 592.83 507.51 592.07 512.09 595.92 513.96 C 586.75 515.47 577.33 524.74 576.64 533.88 C 571.76 542.26 561.00 550.65 571.21 559.82 C 577.95 567.52 568.97 566.11 566.56 571.31 C 562.74 564.80 545.27 576.26 552.93 583.66 C 542.67 582.09 537.84 594.84 528.35 596.45 C 519.17 597.98 508.33 598.97 501.89 606.57 C 498.92 602.70 491.55 603.45 490.65 608.68 C 481.59 622.59 463.33 625.38 448.19 625.98 C 446.81 632.09 435.20 630.89 428.98 632.87 C 429.70 629.26 436.20 623.46 429.01 623.27 C 422.56 624.83 425.95 617.54 427.80 614.63 C 427.59 609.30 421.98 604.52 424.48 598.84 C 420.57 597.09 414.78 597.85 412.84 593.35 C 413.65 582.14 399.83 573.53 406.77 562.37 C 398.14 563.20 389.81 567.54 382.06 571.74 C 380.46 569.68 378.82 566.68 381.26 564.54 C 376.00 566.98 366.80 562.41 371.11 556.52 C 362.47 557.54 366.14 540.66 358.05 546.12 C 354.18 540.84 354.99 532.47 356.05 526.40 C 361.08 525.10 366.24 521.33 371.75 523.47 C 380.59 518.80 383.39 508.51 392.50 504.45 C 399.66 486.18 423.31 490.21 431.69 474.06 C 423.41 470.88 436.04 471.40 431.68 466.04 C 441.58 460.40 450.18 447.18 463.00 452.56 C 469.92 459.76 477.54 445.96 485.97 448.49 C 482.25 452.86 485.89 458.23 482.31 462.79 C 488.94 469.99 488.96 451.53 497.70 453.92 C 507.87 444.91 521.46 444.03 532.96 437.84 C 532.24 428.85 543.24 426.32 549.32 428.50 C 545.86 435.60 556.67 435.60 552.03 440.88 C 555.23 439.66 557.42 439.90 556.28 443.81 C 565.25 446.05 567.67 433.78 576.84 435.25 C 578.81 432.16 581.63 427.34 578.21 423.95 C 581.06 413.08 595.79 423.97 596.57 410.74 C 595.24 408.03 586.79 407.19 589.38 401.57 C 598.62 386.66 616.87 386.35 629.99 376.79 C 636.05 375.25 638.90 368.78 645.00 367.23 C 651.04 365.66 642.79 358.65 647.49 355.58 C 656.01 352.54 660.28 344.38 667.28 339.30 C 672.79 341.06 690.14 342.73 688.29 334.35 Z"
       id="path341" />
    <path
       fill="#007f7f"
       fill-opacity="0"
       d=" M 693.10 353.11 C 693.67 351.84 693.67 351.84 693.10 353.11 Z"
       id="path343" />
  </g>
  <g target="73"
     id="#007f00ff">
    <path
       fill="#007f00"
       fill-opacity="0"
       d=" M 223.86 366.97 C 237.92 362.61 253.50 360.64 266.20 351.94 C 274.01 358.08 265.08 366.13 260.96 372.00 C 261.00 372.23 261.08 372.71 261.12 372.95 C 260.77 376.28 251.80 377.74 257.70 379.90 C 258.10 382.59 259.23 385.12 262.10 385.86 C 261.14 386.62 260.20 387.43 259.27 388.23 C 250.13 392.76 240.52 394.00 232.07 390.86 C 225.57 386.31 235.97 384.29 236.91 380.12 C 226.50 384.31 218.52 392.96 208.49 397.99 C 212.26 403.74 197.91 414.29 190.69 415.63 C 179.76 424.35 165.87 429.37 158.13 441.12 C 156.74 437.79 156.56 434.06 154.36 431.08 C 167.47 420.08 161.55 403.96 180.15 393.79 C 193.12 381.71 210.40 378.27 223.86 366.97 M 206.27 401.27 C 206.77 401.77 206.77 401.77 206.27 401.27 Z"
       id="path378" />
  </g>
  <g target="71"
     id="#40007fff">
    <path
       fill="#40007f"
       fill-opacity="0"
       d=" M 324.07 352.64 C 327.21 355.43 331.18 356.67 335.44 356.91 C 329.28 366.10 350.80 355.08 345.69 363.38 C 351.47 373.10 369.18 353.01 373.06 366.23 C 370.33 374.54 362.28 377.46 356.22 382.48 C 360.39 387.19 370.80 383.03 376.41 388.28 C 374.56 389.83 369.61 393.84 374.98 392.50 C 371.14 397.45 367.15 405.11 376.76 402.03 C 372.05 414.90 351.64 410.41 347.33 424.80 C 351.01 426.17 349.89 431.75 354.59 430.74 C 351.99 441.53 334.85 439.31 329.47 447.40 C 332.11 449.70 327.39 450.61 326.02 452.05 C 325.76 452.24 325.26 452.63 325.00 452.82 C 324.63 453.17 323.88 453.87 323.50 454.22 C 318.95 452.01 314.89 455.41 310.60 456.52 C 308.85 452.51 304.24 454.10 301.00 455.04 C 298.74 448.09 291.09 454.64 286.90 456.15 C 280.91 460.10 273.32 456.52 267.37 460.39 C 260.41 456.26 255.54 465.78 248.99 463.91 C 255.22 457.99 261.99 451.26 266.92 445.28 C 261.31 448.04 254.89 447.85 248.89 446.84 C 253.91 440.08 249.04 440.78 243.11 440.16 C 246.26 434.50 250.17 427.77 245.03 422.04 C 245.92 421.00 245.92 421.00 245.03 422.04 C 241.20 419.80 237.25 417.73 233.81 414.90 C 241.22 404.67 248.66 395.34 259.27 388.23 C 260.20 387.43 261.14 386.62 262.10 385.86 C 273.06 382.50 281.00 373.00 293.06 372.25 C 303.24 365.46 313.41 358.47 324.07 352.64 Z"
       id="path381" />
    <path
       fill="#40007f"
       fill-opacity="0"
       d=" M 248.89 446.84 C 248.21 448.00 248.21 448.00 248.89 446.84 Z"
       id="path383" />
  </g>
  <g target="3"
     id="#8080bfff">
    <path
       fill="#8080bf"
       fill-opacity="0"
       d=" M 163.17 365.99 C 164.38 366.00 165.45 365.61 166.36 364.82 C 166.79 364.89 167.64 365.02 168.06 365.09 L 167.73 365.82 C 167.55 366.14 167.21 366.77 167.04 367.08 C 166.78 367.31 166.27 367.76 166.01 367.98 C 165.56 368.22 164.66 368.69 164.22 368.93 C 163.91 369.13 163.31 369.52 163.00 369.71 C 159.76 371.04 159.23 374.40 158.14 377.30 C 157.81 377.43 157.15 377.69 156.81 377.82 C 155.56 376.55 153.73 378.40 155.31 379.48 C 144.86 387.23 133.81 394.18 123.12 401.55 C 123.64 400.05 124.13 398.54 124.63 397.04 C 125.41 396.39 126.22 395.78 127.04 395.19 C 125.88 397.38 129.50 396.27 127.70 394.79 C 130.19 392.27 132.49 389.58 135.00 387.08 C 138.03 384.60 140.93 381.99 144.06 379.64 C 144.32 379.45 144.86 379.07 145.12 378.88 C 145.39 378.68 145.93 378.29 146.19 378.10 C 146.62 377.78 147.48 377.15 147.91 376.83 C 148.19 376.63 148.74 376.23 149.02 376.02 C 149.30 375.83 149.85 375.45 150.13 375.26 L 150.72 374.86 C 151.00 374.66 151.57 374.26 151.86 374.05 C 152.14 373.82 152.71 373.35 153.00 373.12 C 153.46 372.86 154.39 372.33 154.85 372.07 C 155.14 371.80 155.71 371.26 156.00 370.99 C 156.48 370.76 157.44 370.30 157.92 370.07 C 158.20 369.81 158.76 369.29 159.04 369.03 C 160.48 369.39 161.81 368.36 161.96 366.92 C 162.26 366.68 162.87 366.22 163.17 365.99 M 157.27 374.27 C 157.77 374.77 157.77 374.77 157.27 374.27 M 155.27 375.27 C 155.77 375.77 155.77 375.77 155.27 375.27 Z"
       id="path426" />
    <path
       fill="#8080bf"
       fill-opacity="0"
       d=" M 120.00 403.24 L 120.80 403.05 C 120.55 403.28 120.05 403.76 119.80 403.99 L 120.00 403.24 Z"
       id="path428" />
    <path
       fill="#8080bf"
       fill-opacity="0"
       d=" M 114.07 407.78 L 114.86 407.70 C 114.59 407.89 114.04 408.26 113.76 408.45 L 114.07 407.78 Z"
       id="path430" />
  </g>
  <g target="30"
     id="#4040bfff">
    <path
       fill="#4040bf"
       fill-opacity="0"
       d=" M 1146.27 377.25 C 1151.00 372.41 1157.30 375.60 1162.55 377.47 C 1169.91 384.50 1180.22 384.79 1190.42 384.28 C 1189.44 376.48 1198.70 383.97 1200.47 385.14 C 1203.34 378.94 1204.64 389.72 1208.39 387.52 C 1211.77 387.23 1213.00 384.11 1213.26 381.16 C 1216.89 379.60 1220.63 380.98 1224.18 381.98 C 1238.29 376.97 1257.48 395.20 1253.09 407.76 C 1248.25 404.61 1245.13 408.91 1243.03 412.99 C 1248.14 422.30 1258.93 414.23 1265.53 420.89 C 1266.98 423.47 1269.15 426.15 1271.07 422.36 C 1286.00 429.49 1271.26 443.01 1270.69 454.13 C 1263.40 450.20 1257.91 467.01 1253.19 454.56 C 1233.00 458.62 1200.13 449.97 1191.73 475.58 C 1177.57 477.95 1184.57 496.47 1172.05 499.06 C 1167.73 508.22 1156.91 511.07 1153.11 520.64 C 1147.54 522.24 1151.90 532.62 1144.44 533.42 C 1137.10 547.00 1119.41 551.44 1113.20 565.18 C 1117.96 567.70 1126.63 563.54 1126.84 556.98 C 1129.71 550.04 1125.15 567.92 1129.16 564.06 C 1129.19 557.71 1132.58 549.96 1139.93 550.07 C 1140.35 557.70 1134.42 567.18 1138.77 573.76 C 1138.59 578.09 1135.89 582.74 1138.24 586.81 C 1144.48 587.31 1143.56 577.89 1144.81 573.37 C 1142.04 572.84 1140.76 578.01 1138.77 573.76 C 1142.00 565.35 1143.09 556.18 1147.45 548.22 C 1155.68 547.75 1166.39 551.79 1159.01 562.06 C 1157.29 576.25 1165.36 538.68 1164.38 554.31 C 1163.26 560.13 1161.04 582.25 1158.82 572.87 C 1162.58 571.37 1157.51 568.94 1158.82 572.87 C 1157.31 576.15 1154.91 583.40 1161.09 581.25 C 1160.22 585.22 1158.92 589.12 1158.46 593.17 C 1169.73 593.83 1173.61 582.26 1174.99 573.25 C 1175.71 568.57 1181.78 574.49 1183.04 569.85 C 1184.23 580.66 1197.01 567.71 1199.24 571.15 C 1199.39 571.62 1199.71 572.56 1199.86 573.03 C 1203.95 575.54 1210.49 575.63 1211.97 581.02 C 1218.32 592.31 1237.26 588.17 1242.16 600.29 C 1241.25 603.61 1239.14 606.80 1239.78 610.37 C 1239.57 611.74 1240.62 613.03 1242.07 612.96 L 1242.22 613.73 C 1242.39 614.07 1242.72 614.75 1242.89 615.09 C 1242.01 620.73 1240.82 624.48 1247.12 620.40 C 1247.13 620.81 1247.14 621.62 1247.15 622.02 C 1245.36 622.50 1244.83 625.14 1247.03 625.45 C 1256.01 627.96 1250.99 637.39 1249.04 643.59 C 1242.13 659.50 1237.01 682.71 1251.55 694.79 C 1245.95 703.54 1257.00 712.75 1251.62 722.44 C 1255.81 730.37 1250.70 738.57 1253.38 746.91 C 1250.80 761.08 1236.44 769.54 1233.82 783.81 C 1226.71 781.74 1218.36 783.02 1220.07 774.05 C 1228.07 770.86 1222.02 765.85 1217.20 763.15 C 1223.77 758.52 1210.96 756.85 1211.78 751.11 C 1204.89 749.01 1202.67 759.31 1192.68 758.99 C 1184.67 758.71 1186.70 768.36 1193.34 768.54 C 1186.56 778.37 1211.17 770.87 1208.62 782.44 C 1202.25 789.38 1192.84 794.97 1183.62 790.18 C 1186.71 802.71 1171.72 814.61 1161.05 806.17 C 1158.77 810.48 1154.13 808.17 1152.97 804.35 C 1149.61 801.44 1145.80 805.49 1142.31 805.37 C 1147.94 792.67 1121.93 794.04 1122.35 805.03 C 1114.82 800.26 1121.81 809.82 1119.53 813.64 C 1114.58 815.26 1108.88 815.25 1104.99 819.17 C 1108.07 808.88 1104.62 792.34 1116.78 787.77 C 1110.64 781.84 1119.44 768.48 1106.01 769.62 C 1106.81 763.85 1107.44 750.94 1116.64 754.14 C 1120.66 756.66 1126.15 748.69 1120.04 748.36 C 1115.42 749.68 1112.43 746.67 1108.92 744.46 C 1100.83 751.21 1087.66 746.07 1080.24 739.94 C 1079.90 728.42 1067.29 728.18 1058.84 726.42 C 1056.18 719.93 1046.67 719.95 1047.45 728.11 C 1042.81 723.97 1038.79 729.36 1034.10 729.80 C 1036.72 725.06 1036.45 719.33 1033.20 715.05 C 1039.78 710.85 1030.03 703.94 1033.70 698.87 C 1030.88 693.61 1024.72 690.70 1019.11 692.03 C 1024.03 687.76 1021.13 682.10 1014.29 684.61 C 1017.36 674.74 1022.46 664.78 1032.57 660.80 C 1032.14 658.09 1029.01 655.59 1030.32 652.30 C 1039.73 652.99 1050.69 649.99 1054.77 640.81 C 1059.10 633.30 1071.29 641.22 1072.51 632.29 C 1068.82 630.82 1065.95 623.95 1070.00 622.13 C 1079.13 625.42 1088.62 627.21 1098.13 628.64 C 1103.95 622.58 1093.32 616.05 1099.51 610.61 C 1104.48 606.55 1095.31 599.26 1100.83 599.90 C 1093.89 587.71 1081.91 603.96 1072.76 596.52 C 1069.31 597.74 1063.49 598.23 1063.11 602.71 C 1057.12 608.18 1048.51 603.52 1041.78 606.69 C 1035.30 612.58 1035.80 600.06 1027.57 606.30 C 1032.28 601.75 1025.69 595.98 1025.10 590.81 C 1017.59 590.27 1010.71 586.56 1003.22 586.42 C 1005.68 581.46 1007.99 574.69 1014.44 574.41 C 1022.14 575.42 1017.71 564.98 1023.68 563.12 C 1035.26 559.45 1042.38 549.34 1052.78 544.24 C 1048.89 542.24 1045.76 539.34 1043.47 535.68 C 1033.06 535.94 1022.37 539.14 1011.97 536.24 C 1011.50 527.87 1014.11 511.69 1026.12 516.46 C 1028.74 509.91 1026.84 499.02 1015.81 498.00 C 1014.71 490.58 1024.76 500.14 1023.76 491.90 C 1024.60 488.54 1028.14 487.42 1030.71 485.70 C 1028.84 480.05 1020.84 478.48 1020.28 472.31 C 1024.32 472.01 1027.21 476.42 1031.43 476.22 C 1031.93 472.69 1031.46 469.15 1031.07 465.64 C 1039.02 467.28 1033.59 455.31 1040.92 455.77 C 1042.50 454.95 1038.79 452.84 1040.76 451.70 C 1053.76 443.00 1069.87 450.52 1082.90 450.06 C 1087.48 431.49 1108.19 452.96 1118.53 439.93 C 1119.88 433.71 1126.78 433.61 1131.62 436.07 C 1128.63 428.71 1129.27 421.10 1129.44 413.41 C 1126.31 411.43 1122.68 409.38 1125.02 405.21 C 1127.35 404.09 1131.55 402.60 1128.21 399.86 C 1133.42 399.29 1146.86 395.56 1144.41 385.52 C 1150.28 386.85 1146.42 380.63 1146.27 377.25 M 1160.27 568.27 C 1160.76 568.77 1160.76 568.77 1160.27 568.27 Z"
       id="path468" />
    <path
       fill="#4040bf"
       fill-opacity="0"
       d=" M 1183.04 569.85 C 1182.39 568.52 1182.66 566.84 1183.97 566.03 C 1184.67 567.34 1184.32 569.03 1183.04 569.85 Z"
       id="path470" />
  </g>
  <g target="56"
     id="#004000ff">
    <path
       fill="#004000"
       fill-opacity="0"
       d=" M 209.52 435.34 C 215.15 425.84 225.82 422.49 233.81 414.90 C 237.25 417.73 241.20 419.80 245.03 422.04 C 250.17 427.77 246.26 434.50 243.11 440.16 C 249.04 440.78 253.91 440.08 248.89 446.84 C 248.21 448.00 248.21 448.00 248.89 446.84 C 254.89 447.85 261.31 448.04 266.92 445.28 C 261.99 451.26 255.22 457.99 248.99 463.91 C 255.54 465.78 260.41 456.26 267.37 460.39 C 258.19 472.80 246.65 483.82 237.21 496.25 L 236.94 496.91 C 230.53 496.48 224.73 500.63 218.14 498.91 C 214.80 496.35 210.59 505.36 211.36 498.90 C 204.24 499.08 200.17 506.73 193.39 507.69 C 193.47 504.20 190.98 498.75 196.26 498.15 C 197.32 493.69 196.83 488.74 199.76 484.84 C 185.49 492.99 167.92 492.71 154.70 496.58 C 154.77 496.22 154.91 495.50 154.97 495.14 C 157.54 489.14 159.18 482.75 162.54 477.10 C 154.69 472.30 169.01 467.43 172.20 463.24 C 177.13 454.27 185.37 447.54 193.12 440.87 C 193.32 440.92 193.71 441.02 193.90 441.07 C 198.33 437.49 203.65 434.55 209.52 435.34 M 162.27 492.27 C 162.77 492.77 162.77 492.77 162.27 492.27 Z"
       id="path549" />
    <path
       fill="#004000"
       fill-opacity="0"
       d=" M 193.12 440.87 C 193.32 440.92 193.71 441.02 193.90 441.07 L 193.12 440.87 Z"
       id="path551" />
  </g>
  <g target="44"
     id="#407f7fff">
    <path
       fill="#407f7f"
       fill-opacity="0"
       d=" M 286.90 456.15 C 291.09 454.64 298.74 448.09 301.00 455.04 C 304.24 454.10 308.85 452.51 310.60 456.52 C 314.89 455.41 318.95 452.01 323.50 454.22 C 320.37 457.40 313.94 459.99 317.04 465.47 C 315.52 477.85 304.53 478.83 294.88 483.71 C 285.54 489.50 281.18 500.47 271.13 506.11 C 267.43 508.30 271.13 509.34 273.64 508.23 C 279.95 509.35 274.45 513.25 271.19 515.14 C 262.42 525.70 248.07 531.39 245.46 545.61 C 239.37 550.48 231.20 554.12 224.12 558.26 C 227.33 555.41 227.64 544.93 221.75 548.73 C 217.55 551.75 218.84 545.22 218.26 542.65 C 218.24 542.48 218.21 542.14 218.19 541.96 C 220.25 537.93 225.90 536.14 225.49 530.96 C 224.18 525.26 237.80 527.23 231.88 521.40 C 232.19 514.10 239.90 508.52 236.10 500.48 C 236.37 499.28 236.67 498.09 236.94 496.91 C 237.01 496.74 237.14 496.41 237.21 496.25 C 246.65 483.82 258.19 472.80 267.37 460.39 C 273.32 456.52 280.91 460.10 286.90 456.15 Z"
       id="path592" />
  </g>
  <g target="23"
     id="#7f7f7fff">
    <path
       fill="#7f7f7f"
       fill-opacity="0"
       d=" M 765.54 469.89 C 761.21 462.53 773.65 464.19 778.08 464.99 C 781.20 470.60 787.16 470.06 792.78 469.33 C 791.99 475.45 786.98 480.29 789.16 486.70 C 799.25 478.97 790.46 499.39 797.17 502.14 C 788.53 509.89 803.90 512.82 805.87 519.42 C 800.28 518.69 794.88 522.11 795.83 528.31 C 804.24 531.54 819.62 518.25 819.39 532.37 C 814.98 538.18 823.14 544.40 826.25 537.05 C 833.98 538.24 828.90 547.46 828.47 552.35 C 824.76 555.26 816.14 562.23 825.38 559.26 C 823.61 565.15 834.19 572.37 821.80 568.76 C 823.12 568.48 823.12 568.48 821.80 568.76 C 818.29 571.11 819.54 576.38 817.12 579.79 C 824.55 587.14 821.18 601.96 825.08 612.73 C 813.57 617.77 798.66 613.56 789.92 624.43 C 790.35 633.92 794.81 646.90 787.73 654.91 C 769.25 663.31 761.42 683.16 747.66 696.64 C 748.71 703.76 747.47 713.71 738.05 713.15 C 725.37 711.84 717.61 725.66 705.74 725.34 C 698.07 721.65 687.98 720.68 683.64 712.37 C 676.67 703.83 666.44 711.71 657.86 710.24 C 651.22 709.27 651.80 699.69 645.08 698.76 C 632.41 692.52 620.64 702.95 609.25 707.21 C 597.26 722.86 575.53 714.88 558.86 719.76 C 540.04 728.80 522.68 713.21 503.24 711.92 C 502.94 711.72 502.34 711.32 502.04 711.13 C 496.84 703.91 492.65 695.88 486.60 689.34 C 486.79 686.80 487.24 684.30 488.00 681.87 C 489.50 681.32 489.51 680.72 488.03 680.06 C 487.76 679.83 487.21 679.37 486.94 679.14 C 485.59 668.71 505.04 667.90 510.62 666.20 C 509.02 662.51 504.26 661.17 503.24 657.19 C 508.78 654.30 511.50 647.86 517.77 646.25 C 514.52 641.71 520.77 637.99 523.93 635.45 C 531.18 636.90 538.35 642.65 545.62 637.70 C 550.03 634.16 558.92 632.66 561.65 638.37 C 569.74 640.28 573.88 629.71 581.77 629.53 C 588.74 629.66 594.38 625.54 599.08 620.89 C 599.28 620.92 599.68 620.98 599.88 621.02 C 617.04 615.44 638.07 618.34 653.35 606.38 C 663.61 598.68 644.67 591.96 656.24 582.29 C 677.76 576.44 696.08 560.79 719.35 561.61 C 732.41 556.46 726.10 538.24 712.92 539.14 C 709.45 529.44 724.20 513.40 715.44 505.44 C 718.74 503.22 719.01 497.97 723.60 497.74 C 731.26 502.39 741.55 505.33 749.80 499.57 C 756.26 506.32 758.72 494.56 760.94 490.20 C 758.00 490.95 754.31 493.58 754.81 488.64 C 751.80 479.21 757.82 474.43 765.54 469.89 Z"
       id="path615" />
  </g>
  <g target="19"
     id="#408000ff">
    <path
       fill="#408000"
       fill-opacity="0"
       d=" M 271.13 506.11 C 281.18 500.47 285.54 489.50 294.88 483.71 C 288.14 495.03 295.83 496.25 305.20 494.22 C 307.51 508.69 296.87 523.22 286.76 535.13 C 292.12 541.30 281.87 545.58 276.48 545.82 C 268.98 555.91 254.78 556.33 246.06 565.28 C 235.49 563.25 229.60 585.08 218.42 575.02 C 219.78 574.40 219.78 574.40 218.42 575.02 C 217.08 575.00 215.73 574.96 214.40 575.06 C 209.82 577.55 202.01 583.60 203.17 574.39 C 207.94 568.05 213.49 559.57 222.78 558.73 C 223.12 558.61 223.79 558.38 224.12 558.26 C 231.20 554.12 239.37 550.48 245.46 545.61 C 248.07 531.39 262.42 525.70 271.19 515.14 C 274.45 513.25 279.95 509.35 273.64 508.23 C 274.70 507.45 274.70 507.45 273.64 508.23 C 271.13 509.34 267.43 508.30 271.13 506.11 Z"
       id="path621" />
  </g>
  <g target="22"
     id="#bf7f7fff">
    <path
       fill="#bf7f7f"
       fill-opacity="0"
       d=" M 154.70 496.58 C 167.92 492.71 185.49 492.99 199.76 484.84 C 196.83 488.74 197.32 493.69 196.26 498.15 C 190.98 498.75 193.47 504.20 193.39 507.69 C 200.17 506.73 204.24 499.08 211.36 498.90 C 210.59 505.36 214.80 496.35 218.14 498.91 C 224.73 500.63 230.53 496.48 236.94 496.91 C 236.67 498.09 236.37 499.28 236.10 500.48 C 235.61 501.77 235.61 501.77 236.10 500.48 C 239.90 508.52 232.19 514.10 231.88 521.40 C 237.80 527.23 224.18 525.26 225.49 530.96 C 225.90 536.14 220.25 537.93 218.19 541.96 C 207.39 542.44 205.41 559.15 193.17 553.27 C 182.34 565.37 164.99 562.35 152.21 569.96 C 159.96 578.25 146.45 580.44 142.81 583.84 C 136.18 582.62 133.46 571.93 126.32 575.63 C 122.61 570.22 109.50 566.43 114.63 558.76 C 127.71 537.86 141.92 517.66 154.70 496.58 Z"
       id="path624" />
  </g>
  <g target="4"
     id="#400000ff">
    <path
       fill="#400000"
       fill-opacity="0"
       d=" M 650.22 488.51 C 652.04 494.21 661.52 497.14 667.68 494.01 C 664.82 503.47 677.45 502.83 683.24 503.01 C 684.01 510.05 689.72 500.75 693.67 502.51 C 702.35 504.83 708.64 498.40 713.05 492.05 C 719.30 496.31 725.77 489.16 732.52 491.05 C 733.88 495.83 726.03 494.68 723.60 497.74 C 719.01 497.97 718.74 503.22 715.44 505.44 C 724.20 513.40 709.45 529.44 712.92 539.14 C 726.10 538.24 732.41 556.46 719.35 561.61 C 696.08 560.79 677.76 576.44 656.24 582.29 C 644.67 591.96 663.61 598.68 653.35 606.38 C 638.07 618.34 617.04 615.44 599.88 621.02 C 599.68 620.98 599.28 620.92 599.08 620.89 C 594.38 625.54 588.74 629.66 581.77 629.53 C 573.88 629.71 569.74 640.28 561.65 638.37 C 558.92 632.66 550.03 634.16 545.62 637.70 C 538.35 642.65 531.18 636.90 523.93 635.45 C 520.77 637.99 514.52 641.71 517.77 646.25 C 511.50 647.86 508.78 654.30 503.24 657.19 C 504.26 661.17 509.02 662.51 510.62 666.20 C 505.04 667.90 485.59 668.71 486.94 679.14 C 486.99 679.34 487.10 679.75 487.15 679.95 C 487.36 680.43 487.79 681.39 488.00 681.87 C 487.24 684.30 486.79 686.80 486.60 689.34 C 475.24 670.59 449.70 666.41 430.42 675.57 C 411.85 676.54 400.48 657.40 392.93 643.00 C 393.24 642.77 393.88 642.31 394.20 642.08 C 394.44 641.78 394.92 641.19 395.16 640.90 C 395.30 640.58 395.57 639.94 395.71 639.61 C 398.77 633.87 401.11 624.27 392.82 621.96 C 383.65 621.57 379.55 612.86 373.93 607.04 C 368.37 600.98 363.29 592.30 363.31 585.09 C 368.75 580.58 374.25 576.30 378.77 570.95 C 379.52 572.40 380.73 572.85 382.06 571.74 C 389.81 567.54 398.14 563.20 406.77 562.37 C 399.83 573.53 413.65 582.14 412.84 593.35 C 414.78 597.85 420.57 597.09 424.48 598.84 C 421.98 604.52 427.59 609.30 427.80 614.63 C 425.95 617.54 422.56 624.83 429.01 623.27 C 436.20 623.46 429.70 629.26 428.98 632.87 C 428.07 634.00 428.07 634.00 428.98 632.87 C 435.20 630.89 446.81 632.09 448.19 625.98 C 463.33 625.38 481.59 622.59 490.65 608.68 C 491.55 603.45 498.92 602.70 501.89 606.57 C 508.33 598.97 519.17 597.98 528.35 596.45 C 537.84 594.84 542.67 582.09 552.93 583.66 C 545.27 576.26 562.74 564.80 566.56 571.31 C 568.97 566.11 577.95 567.52 571.21 559.82 C 561.00 550.65 571.76 542.26 576.64 533.88 C 577.33 524.74 586.75 515.47 595.92 513.96 C 592.07 512.09 592.83 507.51 590.17 504.75 C 595.07 492.09 613.77 500.41 623.21 490.42 C 632.01 496.22 642.99 496.82 650.22 488.51 Z"
       id="path627" />
    <path
       fill="#400000"
       fill-opacity="0"
       d=" M 599.08 620.89 L 599.88 621.02 C 599.68 620.98 599.28 620.92 599.08 620.89 Z"
       id="path629" />
    <path
       fill="#400000"
       fill-opacity="0"
       d=" M 488.03 680.06 C 489.51 680.72 489.50 681.32 488.00 681.87 C 488.01 681.42 488.02 680.51 488.03 680.06 Z"
       id="path631" />
  </g>
  <g target="31"
     id="#200000ff">
    <path
       fill="#200000"
       fill-opacity="0"
       d=" M 797.17 502.14 C 809.13 500.47 824.73 494.66 833.40 507.42 C 842.70 503.45 847.84 518.69 855.46 512.54 C 860.97 520.88 873.67 511.55 877.22 521.78 C 883.60 538.20 907.68 527.19 914.41 539.23 C 931.18 539.96 947.85 532.93 963.67 540.37 C 967.49 543.06 977.85 544.26 974.67 537.18 C 986.86 534.09 999.57 536.15 1011.97 536.24 C 1022.37 539.14 1033.06 535.94 1043.47 535.68 C 1045.76 539.34 1048.89 542.24 1052.78 544.24 C 1042.38 549.34 1035.26 559.45 1023.68 563.12 C 1017.71 564.98 1022.14 575.42 1014.44 574.41 C 1007.99 574.69 1005.68 581.46 1003.22 586.42 C 1010.71 586.56 1017.59 590.27 1025.10 590.81 C 1025.69 595.98 1032.28 601.75 1027.57 606.30 C 1035.80 600.06 1035.30 612.58 1041.78 606.69 C 1048.51 603.52 1057.12 608.18 1063.11 602.71 C 1063.49 598.23 1069.31 597.74 1072.76 596.52 C 1081.91 603.96 1093.89 587.71 1100.83 599.90 C 1095.31 599.26 1104.48 606.55 1099.51 610.61 C 1093.32 616.05 1103.95 622.58 1098.13 628.64 C 1088.62 627.21 1079.13 625.42 1070.00 622.13 C 1065.95 623.95 1068.82 630.82 1072.51 632.29 C 1071.29 641.22 1059.10 633.30 1054.77 640.81 C 1050.69 649.99 1039.73 652.99 1030.32 652.30 C 1029.01 655.59 1032.14 658.09 1032.57 660.80 C 1022.46 664.78 1017.36 674.74 1014.29 684.61 C 1021.13 682.10 1024.03 687.76 1019.11 692.03 C 1024.72 690.70 1030.88 693.61 1033.70 698.87 C 1030.03 703.94 1039.78 710.85 1033.20 715.05 C 1036.45 719.33 1036.72 725.06 1034.10 729.80 C 1024.21 725.00 1026.31 739.43 1018.01 738.93 C 1010.56 741.10 1013.37 750.51 1011.99 756.34 C 999.68 756.15 993.63 744.45 984.71 738.47 C 977.87 739.30 969.65 737.85 965.55 732.10 C 958.60 732.36 949.84 736.13 943.93 730.29 C 934.26 723.84 938.44 710.74 932.93 701.75 C 932.95 701.33 932.98 700.48 933.00 700.06 C 929.49 688.11 921.77 677.41 919.57 664.39 C 919.44 664.06 919.19 663.40 919.07 663.07 C 912.91 646.38 902.73 617.40 882.00 622.81 C 875.83 622.18 872.74 616.50 867.17 614.76 C 854.13 607.16 839.04 614.71 825.08 612.73 C 821.18 601.96 824.55 587.14 817.12 579.79 C 819.54 576.38 818.29 571.11 821.80 568.76 C 834.19 572.37 823.61 565.15 825.38 559.26 C 816.14 562.23 824.76 555.26 828.47 552.35 C 828.90 547.46 833.98 538.24 826.25 537.05 C 823.14 544.40 814.98 538.18 819.39 532.37 C 819.62 518.25 804.24 531.54 795.83 528.31 C 794.88 522.11 800.28 518.69 805.87 519.42 C 803.90 512.82 788.53 509.89 797.17 502.14 Z"
       id="path646" />
  </g>
  <g target="2"
     id="#bf007fff">
    <path
       fill="#bf007f"
       fill-opacity="0"
       d=" M 193.17 553.27 C 205.41 559.15 207.39 542.44 218.19 541.96 L 218.26 542.65 C 218.84 545.22 217.55 551.75 221.75 548.73 C 227.64 544.93 227.33 555.41 224.12 558.26 C 223.79 558.38 223.12 558.61 222.78 558.73 C 213.49 559.57 207.94 568.05 203.17 574.39 C 202.01 583.60 209.82 577.55 214.40 575.06 C 209.77 582.81 203.98 590.31 204.79 599.88 C 207.03 603.18 199.97 612.29 198.81 606.55 C 191.14 606.91 192.90 615.26 189.33 619.84 C 194.53 623.94 199.59 628.23 204.37 632.83 C 197.23 647.69 178.47 635.56 169.90 645.33 C 159.16 649.40 150.27 638.83 145.46 631.27 C 150.18 618.62 125.22 615.31 136.80 603.91 C 143.23 597.87 133.73 588.91 142.81 583.84 C 146.45 580.44 159.96 578.25 152.21 569.96 C 164.99 562.35 182.34 565.37 193.17 553.27 Z"
       id="path654" />
  </g>
  <g target="17"
     id="#bf0000ff">
    <path
       fill="#bf0000"
       fill-opacity="0"
       d=" M 358.05 546.12 C 366.14 540.66 362.47 557.54 371.11 556.52 C 366.80 562.41 376.00 566.98 381.26 564.54 C 378.82 566.68 380.46 569.68 382.06 571.74 C 380.73 572.85 379.52 572.40 378.77 570.95 C 379.96 570.32 379.96 570.32 378.77 570.95 C 374.25 576.30 368.75 580.58 363.31 585.09 C 363.29 592.30 368.37 600.98 373.93 607.04 C 361.21 617.81 340.28 621.90 335.55 639.81 C 340.12 655.64 318.04 662.78 306.37 665.53 C 301.24 660.82 295.21 657.37 289.33 653.71 C 276.03 658.02 267.89 642.90 259.10 635.94 C 258.98 635.65 258.72 635.06 258.60 634.77 C 260.50 612.61 238.85 626.70 228.07 624.98 C 222.01 631.15 212.73 632.87 204.37 632.83 C 199.59 628.23 194.53 623.94 189.33 619.84 C 192.90 615.26 191.14 606.91 198.81 606.55 C 199.97 612.29 207.03 603.18 204.79 599.88 C 203.98 590.31 209.77 582.81 214.40 575.06 C 215.73 574.96 217.08 575.00 218.42 575.02 C 229.60 585.08 235.49 563.25 246.06 565.28 C 241.45 575.64 253.70 573.37 256.85 580.29 C 280.28 584.57 296.47 562.71 316.14 556.14 C 325.56 540.82 344.46 552.59 358.05 546.12 Z"
       id="path660" />
    <path
       fill="#bf0000"
       fill-opacity="0"
       d=" M 218.42 575.02 C 219.78 574.40 219.78 574.40 218.42 575.02 Z"
       id="path662" />
  </g>
  <g target="79"
     id="#7fbfbfff">
    <path
       fill="#7fbfbf"
       fill-opacity="0"
       d=" M 1047.45 728.11 C 1046.67 719.95 1056.18 719.93 1058.84 726.42 C 1067.29 728.18 1079.90 728.42 1080.24 739.94 C 1087.66 746.07 1100.83 751.21 1108.92 744.46 C 1112.43 746.67 1115.42 749.68 1120.04 748.36 C 1126.15 748.69 1120.66 756.66 1116.64 754.14 C 1107.44 750.94 1106.81 763.85 1106.01 769.62 C 1096.99 771.28 1091.01 780.74 1081.36 780.24 C 1073.66 780.17 1065.64 784.74 1064.46 792.71 C 1050.94 794.64 1036.43 795.13 1023.55 792.68 C 1014.88 781.94 1013.89 769.33 1011.99 756.34 C 1013.37 750.51 1010.56 741.10 1018.01 738.93 C 1026.31 739.43 1024.21 725.00 1034.10 729.80 C 1038.79 729.36 1042.81 723.97 1047.45 728.11 Z"
       id="path762" />
  </g>
  <g target="28"
     id="#40bf40ff">
    <path
       fill="#40bf40"
       fill-opacity="0"
       d=" M 1192.68 758.99 C 1202.67 759.31 1204.89 749.01 1211.78 751.11 C 1210.96 756.85 1223.77 758.52 1217.20 763.15 C 1222.02 765.85 1228.07 770.86 1220.07 774.05 C 1218.36 783.02 1226.71 781.74 1233.82 783.81 C 1233.23 795.85 1219.40 802.40 1221.66 814.87 C 1215.65 836.98 1202.99 856.26 1188.76 873.78 C 1179.90 884.57 1176.59 899.94 1164.68 907.76 C 1159.25 930.52 1142.93 947.74 1123.12 959.11 C 1115.89 969.31 1104.13 967.10 1094.35 973.37 C 1087.76 978.97 1092.46 965.60 1088.11 970.14 C 1085.33 974.24 1083.49 969.36 1082.89 966.56 C 1078.16 967.80 1073.79 969.30 1070.41 972.93 C 1069.61 966.00 1068.72 959.10 1068.71 952.08 C 1061.06 956.55 1058.54 965.89 1049.71 968.82 C 1050.60 964.79 1051.90 960.89 1052.89 956.90 C 1048.78 958.05 1047.58 963.40 1045.82 966.95 C 1052.46 961.70 1047.44 975.88 1045.05 976.47 C 1047.67 965.74 1036.34 972.51 1039.04 979.89 C 1030.95 972.32 1026.34 984.86 1024.01 991.14 C 1019.25 986.20 1022.40 976.82 1015.17 974.58 C 1012.63 963.18 1023.91 959.14 1032.90 959.37 C 1042.63 950.25 1033.62 939.29 1036.98 927.95 C 1042.11 911.82 1022.15 897.64 1030.79 882.83 C 1041.72 881.23 1047.29 873.77 1054.01 866.07 C 1068.39 870.56 1055.53 890.19 1070.39 892.76 C 1082.33 898.05 1075.96 875.62 1085.56 875.38 C 1088.83 855.46 1103.95 840.76 1104.99 819.17 C 1108.88 815.25 1114.58 815.26 1119.53 813.64 C 1121.81 809.82 1114.82 800.26 1122.35 805.03 C 1121.93 794.04 1147.94 792.67 1142.31 805.37 C 1145.80 805.49 1149.61 801.44 1152.97 804.35 C 1154.13 808.17 1158.77 810.48 1161.05 806.17 C 1171.72 814.61 1186.71 802.71 1183.62 790.18 C 1192.84 794.97 1202.25 789.38 1208.62 782.44 C 1211.17 770.87 1186.56 778.37 1193.34 768.54 C 1186.70 768.36 1184.67 758.71 1192.68 758.99 M 1056.09 952.08 C 1052.76 952.18 1057.47 955.13 1056.09 952.08 C 1056.54 951.45 1056.54 951.45 1056.09 952.08 Z"
       id="path768" />
    <path
       fill="#40bf40"
       fill-opacity="0"
       d=" M 1030.24 980.47 C 1033.75 982.66 1027.78 985.05 1030.24 980.47 Z"
       id="path770" />
  </g>
</svg>
